<?xml version="1.0" encoding="utf-8"?>
<svg xmlns="http://www.w3.org/2000/svg" xmlns:xlink="http://www.w3.org/1999/xlink" width="800" height="300" viewBox="0 0 3200 1200">
<defs>
  <clipPath id="clip490">
    <rect x="0" y="0" width="3200" height="1200"/>
  </clipPath>
</defs>
<path clip-path="url(#clip490)" d="M0 1200 L3200 1200 L3200 0 L0 0  Z" fill="#ffffff" fill-rule="evenodd" fill-opacity="1"/>
<defs>
  <clipPath id="clip491">
    <rect x="640" y="0" width="2241" height="1200"/>
  </clipPath>
</defs>
<path clip-path="url(#clip490)" d="M270.918 1000.1 L3089.76 1000.1 L3089.76 110.236 L270.918 110.236  Z" fill="#ffffff" fill-rule="evenodd" fill-opacity="1"/>
<defs>
  <clipPath id="clip492">
    <rect x="270" y="110" width="2820" height="891"/>
  </clipPath>
</defs>
<polyline clip-path="url(#clip492)" style="stroke:#000000; stroke-linecap:round; stroke-linejoin:round; stroke-width:2; stroke-opacity:0.1; fill:none" points="325.609,1000.1 325.609,110.236 "/>
<polyline clip-path="url(#clip492)" style="stroke:#000000; stroke-linecap:round; stroke-linejoin:round; stroke-width:2; stroke-opacity:0.1; fill:none" points="952.799,1000.1 952.799,110.236 "/>
<polyline clip-path="url(#clip492)" style="stroke:#000000; stroke-linecap:round; stroke-linejoin:round; stroke-width:2; stroke-opacity:0.1; fill:none" points="1579.99,1000.1 1579.99,110.236 "/>
<polyline clip-path="url(#clip492)" style="stroke:#000000; stroke-linecap:round; stroke-linejoin:round; stroke-width:2; stroke-opacity:0.1; fill:none" points="2207.18,1000.1 2207.18,110.236 "/>
<polyline clip-path="url(#clip492)" style="stroke:#000000; stroke-linecap:round; stroke-linejoin:round; stroke-width:2; stroke-opacity:0.1; fill:none" points="2834.37,1000.1 2834.37,110.236 "/>
<polyline clip-path="url(#clip490)" style="stroke:#000000; stroke-linecap:round; stroke-linejoin:round; stroke-width:4; stroke-opacity:1; fill:none" points="270.918,1000.1 3089.76,1000.1 "/>
<polyline clip-path="url(#clip490)" style="stroke:#000000; stroke-linecap:round; stroke-linejoin:round; stroke-width:4; stroke-opacity:1; fill:none" points="325.609,1000.1 325.609,981.2 "/>
<polyline clip-path="url(#clip490)" style="stroke:#000000; stroke-linecap:round; stroke-linejoin:round; stroke-width:4; stroke-opacity:1; fill:none" points="952.799,1000.1 952.799,981.2 "/>
<polyline clip-path="url(#clip490)" style="stroke:#000000; stroke-linecap:round; stroke-linejoin:round; stroke-width:4; stroke-opacity:1; fill:none" points="1579.99,1000.1 1579.99,981.2 "/>
<polyline clip-path="url(#clip490)" style="stroke:#000000; stroke-linecap:round; stroke-linejoin:round; stroke-width:4; stroke-opacity:1; fill:none" points="2207.18,1000.1 2207.18,981.2 "/>
<polyline clip-path="url(#clip490)" style="stroke:#000000; stroke-linecap:round; stroke-linejoin:round; stroke-width:4; stroke-opacity:1; fill:none" points="2834.37,1000.1 2834.37,981.2 "/>
<path clip-path="url(#clip490)" d="M325.609 1037.42 Q321.998 1037.42 320.169 1040.98 Q318.363 1044.52 318.363 1051.65 Q318.363 1058.76 320.169 1062.32 Q321.998 1065.87 325.609 1065.87 Q329.243 1065.87 331.048 1062.32 Q332.877 1058.76 332.877 1051.65 Q332.877 1044.52 331.048 1040.98 Q329.243 1037.42 325.609 1037.42 M325.609 1033.71 Q331.419 1033.71 334.474 1038.32 Q337.553 1042.9 337.553 1051.65 Q337.553 1060.38 334.474 1064.99 Q331.419 1069.57 325.609 1069.57 Q319.799 1069.57 316.72 1064.99 Q313.664 1060.38 313.664 1051.65 Q313.664 1042.9 316.72 1038.32 Q319.799 1033.71 325.609 1033.71 Z" fill="#000000" fill-rule="nonzero" fill-opacity="1" /><path clip-path="url(#clip490)" d="M932.07 1064.96 L948.39 1064.96 L948.39 1068.9 L926.445 1068.9 L926.445 1064.96 Q929.107 1062.21 933.691 1057.58 Q938.297 1052.93 939.478 1051.58 Q941.723 1049.06 942.603 1047.32 Q943.505 1045.56 943.505 1043.87 Q943.505 1041.12 941.561 1039.38 Q939.64 1037.65 936.538 1037.65 Q934.339 1037.65 931.885 1038.41 Q929.455 1039.18 926.677 1040.73 L926.677 1036 Q929.501 1034.87 931.955 1034.29 Q934.408 1033.71 936.445 1033.71 Q941.816 1033.71 945.01 1036.4 Q948.205 1039.08 948.205 1043.57 Q948.205 1045.7 947.394 1047.62 Q946.607 1049.52 944.501 1052.12 Q943.922 1052.79 940.82 1056 Q937.718 1059.2 932.07 1064.96 Z" fill="#000000" fill-rule="nonzero" fill-opacity="1" /><path clip-path="url(#clip490)" d="M958.251 1034.34 L976.607 1034.34 L976.607 1038.27 L962.533 1038.27 L962.533 1046.75 Q963.552 1046.4 964.57 1046.24 Q965.589 1046.05 966.607 1046.05 Q972.394 1046.05 975.774 1049.22 Q979.153 1052.39 979.153 1057.81 Q979.153 1063.39 975.681 1066.49 Q972.209 1069.57 965.89 1069.57 Q963.714 1069.57 961.445 1069.2 Q959.2 1068.83 956.792 1068.09 L956.792 1063.39 Q958.876 1064.52 961.098 1065.08 Q963.32 1065.63 965.797 1065.63 Q969.802 1065.63 972.14 1063.53 Q974.478 1061.42 974.478 1057.81 Q974.478 1054.2 972.14 1052.09 Q969.802 1049.99 965.797 1049.99 Q963.922 1049.99 962.047 1050.4 Q960.195 1050.82 958.251 1051.7 L958.251 1034.34 Z" fill="#000000" fill-rule="nonzero" fill-opacity="1" /><path clip-path="url(#clip490)" d="M1554.69 1034.34 L1573.05 1034.34 L1573.05 1038.27 L1558.97 1038.27 L1558.97 1046.75 Q1559.99 1046.4 1561.01 1046.24 Q1562.03 1046.05 1563.05 1046.05 Q1568.83 1046.05 1572.21 1049.22 Q1575.59 1052.39 1575.59 1057.81 Q1575.59 1063.39 1572.12 1066.49 Q1568.65 1069.57 1562.33 1069.57 Q1560.15 1069.57 1557.88 1069.2 Q1555.64 1068.83 1553.23 1068.09 L1553.23 1063.39 Q1555.31 1064.52 1557.54 1065.08 Q1559.76 1065.63 1562.24 1065.63 Q1566.24 1065.63 1568.58 1063.53 Q1570.92 1061.42 1570.92 1057.81 Q1570.92 1054.2 1568.58 1052.09 Q1566.24 1049.99 1562.24 1049.99 Q1560.36 1049.99 1558.49 1050.4 Q1556.63 1050.82 1554.69 1051.7 L1554.69 1034.34 Z" fill="#000000" fill-rule="nonzero" fill-opacity="1" /><path clip-path="url(#clip490)" d="M1594.8 1037.42 Q1591.19 1037.42 1589.37 1040.98 Q1587.56 1044.52 1587.56 1051.65 Q1587.56 1058.76 1589.37 1062.32 Q1591.19 1065.87 1594.8 1065.87 Q1598.44 1065.87 1600.24 1062.32 Q1602.07 1058.76 1602.07 1051.65 Q1602.07 1044.52 1600.24 1040.98 Q1598.44 1037.42 1594.8 1037.42 M1594.8 1033.71 Q1600.62 1033.71 1603.67 1038.32 Q1606.75 1042.9 1606.75 1051.65 Q1606.75 1060.38 1603.67 1064.99 Q1600.62 1069.57 1594.8 1069.57 Q1588.99 1069.57 1585.92 1064.99 Q1582.86 1060.38 1582.86 1051.65 Q1582.86 1042.9 1585.92 1038.32 Q1588.99 1033.71 1594.8 1033.71 Z" fill="#000000" fill-rule="nonzero" fill-opacity="1" /><path clip-path="url(#clip490)" d="M2181.04 1034.34 L2203.26 1034.34 L2203.26 1036.33 L2190.71 1068.9 L2185.83 1068.9 L2197.63 1038.27 L2181.04 1038.27 L2181.04 1034.34 Z" fill="#000000" fill-rule="nonzero" fill-opacity="1" /><path clip-path="url(#clip490)" d="M2212.42 1034.34 L2230.78 1034.34 L2230.78 1038.27 L2216.71 1038.27 L2216.71 1046.75 Q2217.72 1046.4 2218.74 1046.24 Q2219.76 1046.05 2220.78 1046.05 Q2226.57 1046.05 2229.95 1049.22 Q2233.33 1052.39 2233.33 1057.81 Q2233.33 1063.39 2229.85 1066.49 Q2226.38 1069.57 2220.06 1069.57 Q2217.89 1069.57 2215.62 1069.2 Q2213.37 1068.83 2210.97 1068.09 L2210.97 1063.39 Q2213.05 1064.52 2215.27 1065.08 Q2217.49 1065.63 2219.97 1065.63 Q2223.97 1065.63 2226.31 1063.53 Q2228.65 1061.42 2228.65 1057.81 Q2228.65 1054.2 2226.31 1052.09 Q2223.97 1049.99 2219.97 1049.99 Q2218.1 1049.99 2216.22 1050.4 Q2214.37 1050.82 2212.42 1051.7 L2212.42 1034.34 Z" fill="#000000" fill-rule="nonzero" fill-opacity="1" /><path clip-path="url(#clip490)" d="M2793.98 1064.96 L2801.62 1064.96 L2801.62 1038.6 L2793.31 1040.26 L2793.31 1036 L2801.57 1034.34 L2806.25 1034.34 L2806.25 1064.96 L2813.89 1064.96 L2813.89 1068.9 L2793.98 1068.9 L2793.98 1064.96 Z" fill="#000000" fill-rule="nonzero" fill-opacity="1" /><path clip-path="url(#clip490)" d="M2833.33 1037.42 Q2829.72 1037.42 2827.89 1040.98 Q2826.08 1044.52 2826.08 1051.65 Q2826.08 1058.76 2827.89 1062.32 Q2829.72 1065.87 2833.33 1065.87 Q2836.96 1065.87 2838.77 1062.32 Q2840.6 1058.76 2840.6 1051.65 Q2840.6 1044.52 2838.77 1040.98 Q2836.96 1037.42 2833.33 1037.42 M2833.33 1033.71 Q2839.14 1033.71 2842.2 1038.32 Q2845.27 1042.9 2845.27 1051.65 Q2845.27 1060.38 2842.2 1064.99 Q2839.14 1069.57 2833.33 1069.57 Q2827.52 1069.57 2824.44 1064.99 Q2821.39 1060.38 2821.39 1051.65 Q2821.39 1042.9 2824.44 1038.32 Q2827.52 1033.71 2833.33 1033.71 Z" fill="#000000" fill-rule="nonzero" fill-opacity="1" /><path clip-path="url(#clip490)" d="M2863.49 1037.42 Q2859.88 1037.42 2858.05 1040.98 Q2856.25 1044.52 2856.25 1051.65 Q2856.25 1058.76 2858.05 1062.32 Q2859.88 1065.87 2863.49 1065.87 Q2867.13 1065.87 2868.93 1062.32 Q2870.76 1058.76 2870.76 1051.65 Q2870.76 1044.52 2868.93 1040.98 Q2867.13 1037.42 2863.49 1037.42 M2863.49 1033.71 Q2869.3 1033.71 2872.36 1038.32 Q2875.44 1042.9 2875.44 1051.65 Q2875.44 1060.38 2872.36 1064.99 Q2869.3 1069.57 2863.49 1069.57 Q2857.68 1069.57 2854.6 1064.99 Q2851.55 1060.38 2851.55 1051.65 Q2851.55 1042.9 2854.6 1038.32 Q2857.68 1033.71 2863.49 1033.71 Z" fill="#000000" fill-rule="nonzero" fill-opacity="1" /><path clip-path="url(#clip490)" d="M1556.64 1109.44 L1563.07 1109.44 L1563.07 1151.55 L1586.21 1151.55 L1586.21 1156.96 L1556.64 1156.96 L1556.64 1109.44 Z" fill="#000000" fill-rule="nonzero" fill-opacity="1" /><path clip-path="url(#clip490)" d="M1592.7 1121.31 L1598.56 1121.31 L1598.56 1156.96 L1592.7 1156.96 L1592.7 1121.31 M1592.7 1107.44 L1598.56 1107.44 L1598.56 1114.85 L1592.7 1114.85 L1592.7 1107.44 Z" fill="#000000" fill-rule="nonzero" fill-opacity="1" /><path clip-path="url(#clip490)" d="M1640.44 1135.45 L1640.44 1156.96 L1634.59 1156.96 L1634.59 1135.64 Q1634.59 1130.58 1632.61 1128.06 Q1630.64 1125.55 1626.69 1125.55 Q1621.95 1125.55 1619.21 1128.57 Q1616.48 1131.59 1616.48 1136.81 L1616.48 1156.96 L1610.59 1156.96 L1610.59 1121.31 L1616.48 1121.31 L1616.48 1126.85 Q1618.58 1123.64 1621.41 1122.05 Q1624.27 1120.45 1628 1120.45 Q1634.14 1120.45 1637.29 1124.27 Q1640.44 1128.06 1640.44 1135.45 Z" fill="#000000" fill-rule="nonzero" fill-opacity="1" /><path clip-path="url(#clip490)" d="M1682.62 1137.67 L1682.62 1140.54 L1655.69 1140.54 Q1656.07 1146.59 1659.32 1149.77 Q1662.6 1152.92 1668.42 1152.92 Q1671.79 1152.92 1674.95 1152.09 Q1678.13 1151.26 1681.25 1149.61 L1681.25 1155.15 Q1678.1 1156.48 1674.79 1157.18 Q1671.48 1157.88 1668.07 1157.88 Q1659.54 1157.88 1654.54 1152.92 Q1649.58 1147.95 1649.58 1139.49 Q1649.58 1130.74 1654.29 1125.61 Q1659.03 1120.45 1667.05 1120.45 Q1674.25 1120.45 1678.42 1125.1 Q1682.62 1129.72 1682.62 1137.67 M1676.76 1135.95 Q1676.7 1131.15 1674.05 1128.28 Q1671.44 1125.42 1667.12 1125.42 Q1662.21 1125.42 1659.25 1128.19 Q1656.33 1130.96 1655.88 1135.99 L1676.76 1135.95 Z" fill="#000000" fill-rule="nonzero" fill-opacity="1" /><path clip-path="url(#clip490)" d="M1708.43 1139.04 Q1701.33 1139.04 1698.59 1140.67 Q1695.86 1142.29 1695.86 1146.2 Q1695.86 1149.32 1697.89 1151.17 Q1699.96 1152.98 1703.5 1152.98 Q1708.37 1152.98 1711.29 1149.55 Q1714.25 1146.08 1714.25 1140.35 L1714.25 1139.04 L1708.43 1139.04 M1720.11 1136.62 L1720.11 1156.96 L1714.25 1156.96 L1714.25 1151.55 Q1712.25 1154.8 1709.26 1156.36 Q1706.27 1157.88 1701.94 1157.88 Q1696.46 1157.88 1693.22 1154.83 Q1690 1151.74 1690 1146.59 Q1690 1140.57 1694.01 1137.51 Q1698.05 1134.46 1706.04 1134.46 L1714.25 1134.46 L1714.25 1133.89 Q1714.25 1129.84 1711.58 1127.65 Q1708.94 1125.42 1704.13 1125.42 Q1701.08 1125.42 1698.18 1126.15 Q1695.28 1126.88 1692.61 1128.35 L1692.61 1122.94 Q1695.83 1121.7 1698.85 1121.09 Q1701.87 1120.45 1704.74 1120.45 Q1712.47 1120.45 1716.29 1124.46 Q1720.11 1128.48 1720.11 1136.62 Z" fill="#000000" fill-rule="nonzero" fill-opacity="1" /><path clip-path="url(#clip490)" d="M1755.63 1138.72 Q1755.63 1132.36 1752.99 1128.86 Q1750.38 1125.36 1745.64 1125.36 Q1740.93 1125.36 1738.28 1128.86 Q1735.67 1132.36 1735.67 1138.72 Q1735.67 1145.06 1738.28 1148.56 Q1740.93 1152.06 1745.64 1152.06 Q1750.38 1152.06 1752.99 1148.56 Q1755.63 1145.06 1755.63 1138.72 M1761.49 1152.54 Q1761.49 1161.64 1757.45 1166.06 Q1753.4 1170.52 1745.06 1170.52 Q1741.98 1170.52 1739.24 1170.04 Q1736.5 1169.6 1733.92 1168.64 L1733.92 1162.95 Q1736.5 1164.35 1739.02 1165.01 Q1741.53 1165.68 1744.14 1165.68 Q1749.9 1165.68 1752.77 1162.66 Q1755.63 1159.67 1755.63 1153.59 L1755.63 1150.69 Q1753.82 1153.84 1750.98 1155.4 Q1748.15 1156.96 1744.2 1156.96 Q1737.65 1156.96 1733.64 1151.96 Q1729.63 1146.97 1729.63 1138.72 Q1729.63 1130.45 1733.64 1125.45 Q1737.65 1120.45 1744.2 1120.45 Q1748.15 1120.45 1750.98 1122.01 Q1753.82 1123.57 1755.63 1126.72 L1755.63 1121.31 L1761.49 1121.31 L1761.49 1152.54 Z" fill="#000000" fill-rule="nonzero" fill-opacity="1" /><path clip-path="url(#clip490)" d="M1804.04 1137.67 L1804.04 1140.54 L1777.12 1140.54 Q1777.5 1146.59 1780.74 1149.77 Q1784.02 1152.92 1789.85 1152.92 Q1793.22 1152.92 1796.37 1152.09 Q1799.55 1151.26 1802.67 1149.61 L1802.67 1155.15 Q1799.52 1156.48 1796.21 1157.18 Q1792.9 1157.88 1789.5 1157.88 Q1780.97 1157.88 1775.97 1152.92 Q1771 1147.95 1771 1139.49 Q1771 1130.74 1775.71 1125.61 Q1780.46 1120.45 1788.48 1120.45 Q1795.67 1120.45 1799.84 1125.1 Q1804.04 1129.72 1804.04 1137.67 M1798.19 1135.95 Q1798.12 1131.15 1795.48 1128.28 Q1792.87 1125.42 1788.54 1125.42 Q1783.64 1125.42 1780.68 1128.19 Q1777.75 1130.96 1777.31 1135.99 L1798.19 1135.95 Z" fill="#000000" fill-rule="nonzero" fill-opacity="1" /><polyline clip-path="url(#clip492)" style="stroke:#000000; stroke-linecap:round; stroke-linejoin:round; stroke-width:2; stroke-opacity:0.1; fill:none" points="270.918,1000.1 3089.76,1000.1 "/>
<polyline clip-path="url(#clip492)" style="stroke:#000000; stroke-linecap:round; stroke-linejoin:round; stroke-width:2; stroke-opacity:0.1; fill:none" points="270.918,663.517 3089.76,663.517 "/>
<polyline clip-path="url(#clip492)" style="stroke:#000000; stroke-linecap:round; stroke-linejoin:round; stroke-width:2; stroke-opacity:0.1; fill:none" points="270.918,326.935 3089.76,326.935 "/>
<polyline clip-path="url(#clip490)" style="stroke:#000000; stroke-linecap:round; stroke-linejoin:round; stroke-width:4; stroke-opacity:1; fill:none" points="270.918,1000.1 270.918,110.236 "/>
<polyline clip-path="url(#clip490)" style="stroke:#000000; stroke-linecap:round; stroke-linejoin:round; stroke-width:4; stroke-opacity:1; fill:none" points="270.918,1000.1 289.815,1000.1 "/>
<polyline clip-path="url(#clip490)" style="stroke:#000000; stroke-linecap:round; stroke-linejoin:round; stroke-width:4; stroke-opacity:1; fill:none" points="270.918,663.517 289.815,663.517 "/>
<polyline clip-path="url(#clip490)" style="stroke:#000000; stroke-linecap:round; stroke-linejoin:round; stroke-width:4; stroke-opacity:1; fill:none" points="270.918,326.935 289.815,326.935 "/>
<path clip-path="url(#clip490)" d="M154.902 1019.89 L162.54 1019.89 L162.54 993.525 L154.23 995.191 L154.23 990.932 L162.494 989.265 L167.17 989.265 L167.17 1019.89 L174.809 1019.89 L174.809 1023.83 L154.902 1023.83 L154.902 1019.89 Z" fill="#000000" fill-rule="nonzero" fill-opacity="1" /><path clip-path="url(#clip490)" d="M194.253 992.344 Q190.642 992.344 188.813 995.909 Q187.008 999.45 187.008 1006.58 Q187.008 1013.69 188.813 1017.25 Q190.642 1020.79 194.253 1020.79 Q197.887 1020.79 199.693 1017.25 Q201.522 1013.69 201.522 1006.58 Q201.522 999.45 199.693 995.909 Q197.887 992.344 194.253 992.344 M194.253 988.64 Q200.063 988.64 203.119 993.247 Q206.198 997.83 206.198 1006.58 Q206.198 1015.31 203.119 1019.91 Q200.063 1024.5 194.253 1024.5 Q188.443 1024.5 185.364 1019.91 Q182.309 1015.31 182.309 1006.58 Q182.309 997.83 185.364 993.247 Q188.443 988.64 194.253 988.64 Z" fill="#000000" fill-rule="nonzero" fill-opacity="1" /><path clip-path="url(#clip490)" d="M206.743 993.218 L212.95 993.218 L212.95 971.796 L206.198 973.15 L206.198 969.689 L212.912 968.335 L216.711 968.335 L216.711 993.218 L222.918 993.218 L222.918 996.415 L206.743 996.415 L206.743 993.218 Z" fill="#000000" fill-rule="nonzero" fill-opacity="1" /><path clip-path="url(#clip490)" d="M153.792 683.309 L161.431 683.309 L161.431 656.943 L153.121 658.61 L153.121 654.351 L161.384 652.684 L166.06 652.684 L166.06 683.309 L173.699 683.309 L173.699 687.244 L153.792 687.244 L153.792 683.309 Z" fill="#000000" fill-rule="nonzero" fill-opacity="1" /><path clip-path="url(#clip490)" d="M193.143 655.763 Q189.532 655.763 187.704 659.328 Q185.898 662.869 185.898 669.999 Q185.898 677.105 187.704 680.67 Q189.532 684.212 193.143 684.212 Q196.778 684.212 198.583 680.67 Q200.412 677.105 200.412 669.999 Q200.412 662.869 198.583 659.328 Q196.778 655.763 193.143 655.763 M193.143 652.059 Q198.954 652.059 202.009 656.666 Q205.088 661.249 205.088 669.999 Q205.088 678.726 202.009 683.332 Q198.954 687.915 193.143 687.915 Q187.333 687.915 184.255 683.332 Q181.199 678.726 181.199 669.999 Q181.199 661.249 184.255 656.666 Q187.333 652.059 193.143 652.059 Z" fill="#000000" fill-rule="nonzero" fill-opacity="1" /><path clip-path="url(#clip490)" d="M209.658 656.636 L222.918 656.636 L222.918 659.834 L205.088 659.834 L205.088 656.636 Q207.251 654.398 210.975 650.637 Q214.717 646.856 215.677 645.766 Q217.501 643.715 218.216 642.305 Q218.949 640.876 218.949 639.503 Q218.949 637.264 217.369 635.854 Q215.808 634.443 213.288 634.443 Q211.501 634.443 209.508 635.064 Q207.533 635.685 205.276 636.945 L205.276 633.108 Q207.57 632.186 209.564 631.716 Q211.558 631.246 213.213 631.246 Q217.576 631.246 220.172 633.428 Q222.767 635.609 222.767 639.258 Q222.767 640.988 222.109 642.549 Q221.469 644.092 219.758 646.198 Q219.288 646.744 216.767 649.358 Q214.247 651.953 209.658 656.636 Z" fill="#000000" fill-rule="nonzero" fill-opacity="1" /><path clip-path="url(#clip490)" d="M153.134 346.728 L160.772 346.728 L160.772 320.362 L152.462 322.029 L152.462 317.77 L160.726 316.103 L165.402 316.103 L165.402 346.728 L173.041 346.728 L173.041 350.663 L153.134 350.663 L153.134 346.728 Z" fill="#000000" fill-rule="nonzero" fill-opacity="1" /><path clip-path="url(#clip490)" d="M192.485 319.182 Q188.874 319.182 187.045 322.746 Q185.24 326.288 185.24 333.418 Q185.24 340.524 187.045 344.089 Q188.874 347.631 192.485 347.631 Q196.119 347.631 197.925 344.089 Q199.754 340.524 199.754 333.418 Q199.754 326.288 197.925 322.746 Q196.119 319.182 192.485 319.182 M192.485 315.478 Q198.295 315.478 201.351 320.084 Q204.43 324.668 204.43 333.418 Q204.43 342.144 201.351 346.751 Q198.295 351.334 192.485 351.334 Q186.675 351.334 183.596 346.751 Q180.541 342.144 180.541 333.418 Q180.541 324.668 183.596 320.084 Q186.675 315.478 192.485 315.478 Z" fill="#000000" fill-rule="nonzero" fill-opacity="1" /><path clip-path="url(#clip490)" d="M217.125 308.112 Q219.852 308.695 221.375 310.539 Q222.918 312.382 222.918 315.09 Q222.918 319.247 220.059 321.522 Q217.2 323.798 211.934 323.798 Q210.166 323.798 208.285 323.441 Q206.423 323.102 204.43 322.406 L204.43 318.739 Q206.009 319.66 207.89 320.13 Q209.771 320.601 211.821 320.601 Q215.395 320.601 217.256 319.19 Q219.137 317.78 219.137 315.09 Q219.137 312.607 217.388 311.216 Q215.658 309.805 212.555 309.805 L209.282 309.805 L209.282 306.683 L212.705 306.683 Q215.507 306.683 216.993 305.573 Q218.479 304.445 218.479 302.338 Q218.479 300.175 216.937 299.028 Q215.413 297.862 212.555 297.862 Q210.994 297.862 209.207 298.201 Q207.42 298.539 205.276 299.254 L205.276 295.868 Q207.439 295.267 209.32 294.966 Q211.219 294.665 212.893 294.665 Q217.219 294.665 219.739 296.64 Q222.259 298.596 222.259 301.943 Q222.259 304.276 220.924 305.893 Q219.589 307.492 217.125 308.112 Z" fill="#000000" fill-rule="nonzero" fill-opacity="1" /><path clip-path="url(#clip490)" d="M42.6863 868.105 L42.6863 838.059 L48.0971 838.059 L48.0971 861.676 L62.1653 861.676 L62.1653 839.046 L67.5762 839.046 L67.5762 861.676 L84.7954 861.676 L84.7954 837.486 L90.2063 837.486 L90.2063 868.105 L42.6863 868.105 Z" fill="#000000" fill-rule="nonzero" fill-opacity="1" /><path clip-path="url(#clip490)" d="M44.2459 798.432 L50.5161 798.432 Q48.7655 802.093 47.9062 805.339 Q47.0468 808.586 47.0468 811.609 Q47.0468 816.861 49.0838 819.726 Q51.1208 822.558 54.8766 822.558 Q58.0276 822.558 59.6509 820.681 Q61.2423 818.771 62.229 813.487 L63.0247 809.604 Q64.3933 802.411 67.8627 799.005 Q71.3001 795.568 77.0929 795.568 Q83.9997 795.568 87.5645 800.215 Q91.1293 804.83 91.1293 813.774 Q91.1293 817.148 90.3654 820.967 Q89.6015 824.755 88.1056 828.829 L81.4853 828.829 Q83.6814 824.914 84.7954 821.158 Q85.9094 817.402 85.9094 813.774 Q85.9094 808.267 83.7451 805.276 Q81.5808 802.284 77.5704 802.284 Q74.0692 802.284 72.0958 804.448 Q70.1225 806.581 69.1358 811.482 L68.3719 815.397 Q66.9396 822.59 63.8841 825.805 Q60.8285 829.02 55.3859 829.02 Q49.0838 829.02 45.4554 824.596 Q41.8269 820.14 41.8269 812.342 Q41.8269 809 42.4317 805.53 Q43.0364 802.061 44.2459 798.432 Z" fill="#000000" fill-rule="nonzero" fill-opacity="1" /><path clip-path="url(#clip490)" d="M44.2459 757.055 L50.5161 757.055 Q48.7655 760.716 47.9062 763.962 Q47.0468 767.209 47.0468 770.232 Q47.0468 775.484 49.0838 778.349 Q51.1208 781.181 54.8766 781.181 Q58.0276 781.181 59.6509 779.303 Q61.2423 777.394 62.229 772.11 L63.0247 768.227 Q64.3933 761.034 67.8627 757.628 Q71.3001 754.191 77.0929 754.191 Q83.9997 754.191 87.5645 758.838 Q91.1293 763.453 91.1293 772.397 Q91.1293 775.771 90.3654 779.59 Q89.6015 783.378 88.1056 787.452 L81.4853 787.452 Q83.6814 783.537 84.7954 779.781 Q85.9094 776.025 85.9094 772.397 Q85.9094 766.89 83.7451 763.898 Q81.5808 760.907 77.5704 760.907 Q74.0692 760.907 72.0958 763.071 Q70.1225 765.203 69.1358 770.105 L68.3719 774.02 Q66.9396 781.213 63.8841 784.428 Q60.8285 787.643 55.3859 787.643 Q49.0838 787.643 45.4554 783.218 Q41.8269 778.762 41.8269 770.964 Q41.8269 767.622 42.4317 764.153 Q43.0364 760.684 44.2459 757.055 Z" fill="#000000" fill-rule="nonzero" fill-opacity="1" /><path clip-path="url(#clip490)" d="M82.1218 742.923 L82.1218 736.208 L90.2063 736.208 L90.2063 742.923 L82.1218 742.923 M56.4999 742.923 L56.4999 736.208 L64.5843 736.208 L64.5843 742.923 L56.4999 742.923 Z" fill="#000000" fill-rule="nonzero" fill-opacity="1" /><path clip-path="url(#clip490)" d="M42.6863 702.215 L42.6863 695.754 L71.5548 695.754 Q79.1936 695.754 82.5674 692.985 Q85.9094 690.215 85.9094 684.009 Q85.9094 677.834 82.5674 675.065 Q79.1936 672.296 71.5548 672.296 L42.6863 672.296 L42.6863 665.835 L72.3505 665.835 Q81.6444 665.835 86.3869 670.45 Q91.1293 675.033 91.1293 684.009 Q91.1293 693.016 86.3869 697.631 Q81.6444 702.215 72.3505 702.215 L42.6863 702.215 Z" fill="#000000" fill-rule="nonzero" fill-opacity="1" /><path clip-path="url(#clip490)" d="M44.2459 625.285 L50.5161 625.285 Q48.7655 628.946 47.9062 632.192 Q47.0468 635.439 47.0468 638.462 Q47.0468 643.714 49.0838 646.579 Q51.1208 649.411 54.8766 649.411 Q58.0276 649.411 59.6509 647.533 Q61.2423 645.624 62.229 640.34 L63.0247 636.457 Q64.3933 629.264 67.8627 625.858 Q71.3001 622.421 77.0929 622.421 Q83.9997 622.421 87.5645 627.068 Q91.1293 631.683 91.1293 640.627 Q91.1293 644 90.3654 647.82 Q89.6015 651.607 88.1056 655.681 L81.4853 655.681 Q83.6814 651.767 84.7954 648.011 Q85.9094 644.255 85.9094 640.627 Q85.9094 635.12 83.7451 632.128 Q81.5808 629.136 77.5704 629.136 Q74.0692 629.136 72.0958 631.301 Q70.1225 633.433 69.1358 638.335 L68.3719 642.25 Q66.9396 649.443 63.8841 652.658 Q60.8285 655.872 55.3859 655.872 Q49.0838 655.872 45.4554 651.448 Q41.8269 646.992 41.8269 639.194 Q41.8269 635.852 42.4317 632.383 Q43.0364 628.914 44.2459 625.285 Z" fill="#000000" fill-rule="nonzero" fill-opacity="1" /><path clip-path="url(#clip490)" d="M49.0202 595.303 L72.6688 604.024 L72.6688 586.55 L49.0202 595.303 M42.6863 598.931 L42.6863 591.642 L90.2063 573.532 L90.2063 580.216 L78.016 584.545 L78.016 605.965 L90.2063 610.294 L90.2063 617.073 L42.6863 598.931 Z" fill="#000000" fill-rule="nonzero" fill-opacity="1" /><path clip-path="url(#clip490)" d="M82.1218 565.352 L82.1218 558.636 L87.5963 558.636 L97.7815 563.856 L97.7815 567.962 L87.5963 565.352 L82.1218 565.352 Z" fill="#000000" fill-rule="nonzero" fill-opacity="1" /><path clip-path="url(#clip490)" d="M44.4369 519.614 L54.5583 519.614 L54.5583 507.551 L59.1098 507.551 L59.1098 519.614 L78.4616 519.614 Q82.8221 519.614 84.0634 518.437 Q85.3047 517.227 85.3047 513.567 L85.3047 507.551 L90.2063 507.551 L90.2063 513.567 Q90.2063 520.347 87.6918 522.925 Q85.1455 525.503 78.4616 525.503 L59.1098 525.503 L59.1098 529.8 L54.5583 529.8 L54.5583 525.503 L44.4369 525.503 L44.4369 519.614 Z" fill="#000000" fill-rule="nonzero" fill-opacity="1" /><path clip-path="url(#clip490)" d="M54.5583 499.849 L54.5583 493.993 L90.2063 493.993 L90.2063 499.849 L54.5583 499.849 M40.6811 499.849 L40.6811 493.993 L48.0971 493.993 L48.0971 499.849 L40.6811 499.849 Z" fill="#000000" fill-rule="nonzero" fill-opacity="1" /><path clip-path="url(#clip490)" d="M61.4015 453.984 Q57.4547 451.788 55.5768 448.732 Q53.699 445.677 53.699 441.539 Q53.699 435.969 57.6139 432.945 Q61.4969 429.922 68.6902 429.922 L90.2063 429.922 L90.2063 435.81 L68.8812 435.81 Q63.7568 435.81 61.2741 437.624 Q58.7915 439.438 58.7915 443.162 Q58.7915 447.714 61.8152 450.356 Q64.8389 452.997 70.0588 452.997 L90.2063 452.997 L90.2063 458.886 L68.8812 458.886 Q63.7249 458.886 61.2741 460.7 Q58.7915 462.514 58.7915 466.302 Q58.7915 470.79 61.8471 473.431 Q64.8708 476.073 70.0588 476.073 L90.2063 476.073 L90.2063 481.961 L54.5583 481.961 L54.5583 476.073 L60.0965 476.073 Q56.8182 474.068 55.2586 471.267 Q53.699 468.466 53.699 464.615 Q53.699 460.732 55.6723 458.026 Q57.6457 455.289 61.4015 453.984 Z" fill="#000000" fill-rule="nonzero" fill-opacity="1" /><path clip-path="url(#clip490)" d="M70.9182 387.749 L73.7828 387.749 L73.7828 414.676 Q79.8302 414.294 83.013 411.047 Q86.1641 407.769 86.1641 401.944 Q86.1641 398.571 85.3365 395.42 Q84.509 392.237 82.8539 389.118 L88.3921 389.118 Q89.7289 392.269 90.4291 395.579 Q91.1293 398.889 91.1293 402.295 Q91.1293 410.825 86.1641 415.822 Q81.1988 420.787 72.7324 420.787 Q63.9796 420.787 58.8552 416.076 Q53.699 411.334 53.699 403.313 Q53.699 396.12 58.3459 391.95 Q62.9611 387.749 70.9182 387.749 M69.1995 393.605 Q64.3933 393.669 61.5288 396.311 Q58.6642 398.921 58.6642 403.249 Q58.6642 408.151 61.4333 411.111 Q64.2024 414.039 69.2313 414.485 L69.1995 393.605 Z" fill="#000000" fill-rule="nonzero" fill-opacity="1" /><path clip-path="url(#clip490)" d="M82.1218 376.641 L82.1218 369.925 L90.2063 369.925 L90.2063 376.641 L82.1218 376.641 M56.4999 376.641 L56.4999 369.925 L64.5843 369.925 L64.5843 376.641 L56.4999 376.641 Z" fill="#000000" fill-rule="nonzero" fill-opacity="1" /><path clip-path="url(#clip490)" d="M84.7954 354.233 L84.7954 343.73 L48.5427 343.73 L50.8344 355.156 L44.9779 355.156 L42.6863 343.794 L42.6863 337.364 L84.7954 337.364 L84.7954 326.861 L90.2063 326.861 L90.2063 354.233 L84.7954 354.233 Z" fill="#000000" fill-rule="nonzero" fill-opacity="1" /><path clip-path="url(#clip490)" d="M46.9195 300.125 Q46.9195 305.09 51.8211 307.605 Q56.6908 310.087 66.494 310.087 Q76.2654 310.087 81.167 307.605 Q86.0367 305.09 86.0367 300.125 Q86.0367 295.128 81.167 292.645 Q76.2654 290.131 66.494 290.131 Q56.6908 290.131 51.8211 292.645 Q46.9195 295.128 46.9195 300.125 M41.8269 300.125 Q41.8269 292.136 48.1608 287.935 Q54.4628 283.701 66.494 283.701 Q78.4934 283.701 84.8273 287.935 Q91.1293 292.136 91.1293 300.125 Q91.1293 308.114 84.8273 312.347 Q78.4934 316.548 66.494 316.548 Q54.4628 316.548 48.1608 312.347 Q41.8269 308.114 41.8269 300.125 Z" fill="#000000" fill-rule="nonzero" fill-opacity="1" /><path clip-path="url(#clip490)" d="M46.9195 258.652 Q46.9195 263.618 51.8211 266.132 Q56.6908 268.615 66.494 268.615 Q76.2654 268.615 81.167 266.132 Q86.0367 263.618 86.0367 258.652 Q86.0367 253.655 81.167 251.173 Q76.2654 248.658 66.494 248.658 Q56.6908 248.658 51.8211 251.173 Q46.9195 253.655 46.9195 258.652 M41.8269 258.652 Q41.8269 250.663 48.1608 246.462 Q54.4628 242.229 66.494 242.229 Q78.4934 242.229 84.8273 246.462 Q91.1293 250.663 91.1293 258.652 Q91.1293 266.641 84.8273 270.875 Q78.4934 275.076 66.494 275.076 Q54.4628 275.076 48.1608 270.875 Q41.8269 266.641 41.8269 258.652 Z" fill="#000000" fill-rule="nonzero" fill-opacity="1" /><polyline clip-path="url(#clip492)" style="stroke:#009af9; stroke-linecap:round; stroke-linejoin:round; stroke-width:4; stroke-opacity:1; fill:none" points="350.696,387.924 375.784,155.31 400.872,133.36 425.959,159.688 451.047,168.901 476.134,137.425 501.222,182.127 526.31,141.905 551.397,176.286 576.485,150.857 601.573,157.479 626.66,162.224 651.748,150.235 676.835,140.167 701.923,135.867 727.011,157.558 752.098,126.407 777.186,154.426 802.274,148.984 827.361,137.727 852.449,149.855 877.537,200.816 902.624,170.45 927.712,141.646 952.799,139.873 977.887,124.417 1002.97,146.372 1028.06,133.775 1053.15,143.406 1078.24,164.953 1103.33,113.503 1128.41,139.119 1153.5,147.903 1178.59,136.574 1203.68,139.102 1228.76,169.863 1253.85,179.579 1278.94,175.626 1304.03,187.726 1329.11,149.628 1354.2,220.088 1379.29,174.568 1404.38,158.257 1429.46,157.882 1454.55,166.237 1479.64,176.64 1504.73,194.88 1529.81,196.681 1554.9,167.102 1579.99,176.224 1605.08,143.774 1630.17,176.834 1655.25,169.285 1680.34,111.607 1705.43,149.028 1730.52,145.875 1755.6,201.785 1780.69,185.223 1805.78,208.104 1830.87,174.143 1855.95,163.082 1881.04,186.629 1906.13,125.829 1931.22,129.948 1956.3,202.582 1981.39,150.068 2006.48,159.546 2031.57,187.573 2056.66,169.109 2081.74,145.857 2106.83,156.972 2131.92,178.337 2157.01,164.455 2182.09,156.856 2207.18,157.482 2232.27,168.307 2257.36,139.365 2282.44,176.325 2307.53,158.69 2332.62,184.367 2357.71,132.809 2382.79,165.727 2407.88,168.498 2432.97,179.889 2458.06,173.434 2483.14,131.621 2508.23,201.698 2533.32,172.303 2558.41,139.491 2583.5,155.408 2608.58,154.366 2633.67,147.629 2658.76,191.256 2683.85,143.953 2708.93,202.061 2734.02,181.397 2759.11,167.506 2784.2,124.018 2809.28,220.021 2834.37,110.236 2859.46,130.92 2884.55,135.355 2909.63,145.488 2934.72,168.91 2959.81,151.712 2984.9,158.921 3009.99,158.87 "/>
</svg>
