<?xml version="1.0" encoding="utf-8"?>
<svg xmlns="http://www.w3.org/2000/svg" xmlns:xlink="http://www.w3.org/1999/xlink" width="800" height="300" viewBox="0 0 3200 1200">
<defs>
  <clipPath id="clip330">
    <rect x="0" y="0" width="3200" height="1200"/>
  </clipPath>
</defs>
<path clip-path="url(#clip330)" d="M0 1200 L3200 1200 L3200 0 L0 0  Z" fill="#ffffff" fill-rule="evenodd" fill-opacity="1"/>
<defs>
  <clipPath id="clip331">
    <rect x="640" y="0" width="2241" height="1200"/>
  </clipPath>
</defs>
<path clip-path="url(#clip330)" d="M270.918 1000.1 L3089.76 1000.1 L3089.76 110.236 L270.918 110.236  Z" fill="#ffffff" fill-rule="evenodd" fill-opacity="1"/>
<defs>
  <clipPath id="clip332">
    <rect x="270" y="110" width="2820" height="891"/>
  </clipPath>
</defs>
<polyline clip-path="url(#clip332)" style="stroke:#000000; stroke-linecap:round; stroke-linejoin:round; stroke-width:2; stroke-opacity:0.1; fill:none" points="331.565,1000.1 331.565,110.236 "/>
<polyline clip-path="url(#clip332)" style="stroke:#000000; stroke-linecap:round; stroke-linejoin:round; stroke-width:2; stroke-opacity:0.1; fill:none" points="809.854,1000.1 809.854,110.236 "/>
<polyline clip-path="url(#clip332)" style="stroke:#000000; stroke-linecap:round; stroke-linejoin:round; stroke-width:2; stroke-opacity:0.1; fill:none" points="1288.14,1000.1 1288.14,110.236 "/>
<polyline clip-path="url(#clip332)" style="stroke:#000000; stroke-linecap:round; stroke-linejoin:round; stroke-width:2; stroke-opacity:0.1; fill:none" points="1766.43,1000.1 1766.43,110.236 "/>
<polyline clip-path="url(#clip332)" style="stroke:#000000; stroke-linecap:round; stroke-linejoin:round; stroke-width:2; stroke-opacity:0.1; fill:none" points="2244.72,1000.1 2244.72,110.236 "/>
<polyline clip-path="url(#clip332)" style="stroke:#000000; stroke-linecap:round; stroke-linejoin:round; stroke-width:2; stroke-opacity:0.1; fill:none" points="2723.01,1000.1 2723.01,110.236 "/>
<polyline clip-path="url(#clip330)" style="stroke:#000000; stroke-linecap:round; stroke-linejoin:round; stroke-width:4; stroke-opacity:1; fill:none" points="270.918,1000.1 3089.76,1000.1 "/>
<polyline clip-path="url(#clip330)" style="stroke:#000000; stroke-linecap:round; stroke-linejoin:round; stroke-width:4; stroke-opacity:1; fill:none" points="331.565,1000.1 331.565,981.2 "/>
<polyline clip-path="url(#clip330)" style="stroke:#000000; stroke-linecap:round; stroke-linejoin:round; stroke-width:4; stroke-opacity:1; fill:none" points="809.854,1000.1 809.854,981.2 "/>
<polyline clip-path="url(#clip330)" style="stroke:#000000; stroke-linecap:round; stroke-linejoin:round; stroke-width:4; stroke-opacity:1; fill:none" points="1288.14,1000.1 1288.14,981.2 "/>
<polyline clip-path="url(#clip330)" style="stroke:#000000; stroke-linecap:round; stroke-linejoin:round; stroke-width:4; stroke-opacity:1; fill:none" points="1766.43,1000.1 1766.43,981.2 "/>
<polyline clip-path="url(#clip330)" style="stroke:#000000; stroke-linecap:round; stroke-linejoin:round; stroke-width:4; stroke-opacity:1; fill:none" points="2244.72,1000.1 2244.72,981.2 "/>
<polyline clip-path="url(#clip330)" style="stroke:#000000; stroke-linecap:round; stroke-linejoin:round; stroke-width:4; stroke-opacity:1; fill:none" points="2723.01,1000.1 2723.01,981.2 "/>
<path clip-path="url(#clip330)" d="M331.565 1037.42 Q327.954 1037.42 326.125 1040.98 Q324.319 1044.52 324.319 1051.65 Q324.319 1058.76 326.125 1062.32 Q327.954 1065.87 331.565 1065.87 Q335.199 1065.87 337.005 1062.32 Q338.833 1058.76 338.833 1051.65 Q338.833 1044.52 337.005 1040.98 Q335.199 1037.42 331.565 1037.42 M331.565 1033.71 Q337.375 1033.71 340.43 1038.32 Q343.509 1042.9 343.509 1051.65 Q343.509 1060.38 340.43 1064.99 Q337.375 1069.57 331.565 1069.57 Q325.755 1069.57 322.676 1064.99 Q319.62 1060.38 319.62 1051.65 Q319.62 1042.9 322.676 1038.32 Q325.755 1033.71 331.565 1033.71 Z" fill="#000000" fill-rule="nonzero" fill-opacity="1" /><path clip-path="url(#clip330)" d="M789.125 1064.96 L805.444 1064.96 L805.444 1068.9 L783.5 1068.9 L783.5 1064.96 Q786.162 1062.21 790.745 1057.58 Q795.352 1052.93 796.532 1051.58 Q798.778 1049.06 799.657 1047.32 Q800.56 1045.56 800.56 1043.87 Q800.56 1041.12 798.616 1039.38 Q796.694 1037.65 793.593 1037.65 Q791.394 1037.65 788.94 1038.41 Q786.509 1039.18 783.732 1040.73 L783.732 1036 Q786.556 1034.87 789.009 1034.29 Q791.463 1033.71 793.5 1033.71 Q798.87 1033.71 802.065 1036.4 Q805.259 1039.08 805.259 1043.57 Q805.259 1045.7 804.449 1047.62 Q803.662 1049.52 801.556 1052.12 Q800.977 1052.79 797.875 1056 Q794.773 1059.2 789.125 1064.96 Z" fill="#000000" fill-rule="nonzero" fill-opacity="1" /><path clip-path="url(#clip330)" d="M815.305 1034.34 L833.662 1034.34 L833.662 1038.27 L819.588 1038.27 L819.588 1046.75 Q820.606 1046.4 821.625 1046.24 Q822.643 1046.05 823.662 1046.05 Q829.449 1046.05 832.828 1049.22 Q836.208 1052.39 836.208 1057.81 Q836.208 1063.39 832.736 1066.49 Q829.264 1069.57 822.944 1069.57 Q820.768 1069.57 818.5 1069.2 Q816.255 1068.83 813.847 1068.09 L813.847 1063.39 Q815.93 1064.52 818.153 1065.08 Q820.375 1065.63 822.852 1065.63 Q826.856 1065.63 829.194 1063.53 Q831.532 1061.42 831.532 1057.81 Q831.532 1054.2 829.194 1052.09 Q826.856 1049.99 822.852 1049.99 Q820.977 1049.99 819.102 1050.4 Q817.25 1050.82 815.305 1051.7 L815.305 1034.34 Z" fill="#000000" fill-rule="nonzero" fill-opacity="1" /><path clip-path="url(#clip330)" d="M1262.84 1034.34 L1281.2 1034.34 L1281.2 1038.27 L1267.13 1038.27 L1267.13 1046.75 Q1268.14 1046.4 1269.16 1046.24 Q1270.18 1046.05 1271.2 1046.05 Q1276.99 1046.05 1280.37 1049.22 Q1283.75 1052.39 1283.75 1057.81 Q1283.75 1063.39 1280.27 1066.49 Q1276.8 1069.57 1270.48 1069.57 Q1268.31 1069.57 1266.04 1069.2 Q1263.79 1068.83 1261.38 1068.09 L1261.38 1063.39 Q1263.47 1064.52 1265.69 1065.08 Q1267.91 1065.63 1270.39 1065.63 Q1274.39 1065.63 1276.73 1063.53 Q1279.07 1061.42 1279.07 1057.81 Q1279.07 1054.2 1276.73 1052.09 Q1274.39 1049.99 1270.39 1049.99 Q1268.51 1049.99 1266.64 1050.4 Q1264.79 1050.82 1262.84 1051.7 L1262.84 1034.34 Z" fill="#000000" fill-rule="nonzero" fill-opacity="1" /><path clip-path="url(#clip330)" d="M1302.96 1037.42 Q1299.35 1037.42 1297.52 1040.98 Q1295.71 1044.52 1295.71 1051.65 Q1295.71 1058.76 1297.52 1062.32 Q1299.35 1065.87 1302.96 1065.87 Q1306.59 1065.87 1308.4 1062.32 Q1310.23 1058.76 1310.23 1051.65 Q1310.23 1044.52 1308.4 1040.98 Q1306.59 1037.42 1302.96 1037.42 M1302.96 1033.71 Q1308.77 1033.71 1311.82 1038.32 Q1314.9 1042.9 1314.9 1051.65 Q1314.9 1060.38 1311.82 1064.99 Q1308.77 1069.57 1302.96 1069.57 Q1297.15 1069.57 1294.07 1064.99 Q1291.01 1060.38 1291.01 1051.65 Q1291.01 1042.9 1294.07 1038.32 Q1297.15 1033.71 1302.96 1033.71 Z" fill="#000000" fill-rule="nonzero" fill-opacity="1" /><path clip-path="url(#clip330)" d="M1740.29 1034.34 L1762.51 1034.34 L1762.51 1036.33 L1749.96 1068.9 L1745.08 1068.9 L1756.88 1038.27 L1740.29 1038.27 L1740.29 1034.34 Z" fill="#000000" fill-rule="nonzero" fill-opacity="1" /><path clip-path="url(#clip330)" d="M1771.68 1034.34 L1790.03 1034.34 L1790.03 1038.27 L1775.96 1038.27 L1775.96 1046.75 Q1776.98 1046.4 1778 1046.24 Q1779.01 1046.05 1780.03 1046.05 Q1785.82 1046.05 1789.2 1049.22 Q1792.58 1052.39 1792.58 1057.81 Q1792.58 1063.39 1789.11 1066.49 Q1785.63 1069.57 1779.31 1069.57 Q1777.14 1069.57 1774.87 1069.2 Q1772.62 1068.83 1770.22 1068.09 L1770.22 1063.39 Q1772.3 1064.52 1774.52 1065.08 Q1776.75 1065.63 1779.22 1065.63 Q1783.23 1065.63 1785.56 1063.53 Q1787.9 1061.42 1787.9 1057.81 Q1787.9 1054.2 1785.56 1052.09 Q1783.23 1049.99 1779.22 1049.99 Q1777.35 1049.99 1775.47 1050.4 Q1773.62 1050.82 1771.68 1051.7 L1771.68 1034.34 Z" fill="#000000" fill-rule="nonzero" fill-opacity="1" /><path clip-path="url(#clip330)" d="M2204.33 1064.96 L2211.97 1064.96 L2211.97 1038.6 L2203.66 1040.26 L2203.66 1036 L2211.92 1034.34 L2216.6 1034.34 L2216.6 1064.96 L2224.24 1064.96 L2224.24 1068.9 L2204.33 1068.9 L2204.33 1064.96 Z" fill="#000000" fill-rule="nonzero" fill-opacity="1" /><path clip-path="url(#clip330)" d="M2243.68 1037.42 Q2240.07 1037.42 2238.24 1040.98 Q2236.44 1044.52 2236.44 1051.65 Q2236.44 1058.76 2238.24 1062.32 Q2240.07 1065.87 2243.68 1065.87 Q2247.31 1065.87 2249.12 1062.32 Q2250.95 1058.76 2250.95 1051.65 Q2250.95 1044.52 2249.12 1040.98 Q2247.31 1037.42 2243.68 1037.42 M2243.68 1033.71 Q2249.49 1033.71 2252.55 1038.32 Q2255.62 1042.9 2255.62 1051.65 Q2255.62 1060.38 2252.55 1064.99 Q2249.49 1069.57 2243.68 1069.57 Q2237.87 1069.57 2234.79 1064.99 Q2231.74 1060.38 2231.74 1051.65 Q2231.74 1042.9 2234.79 1038.32 Q2237.87 1033.71 2243.68 1033.71 Z" fill="#000000" fill-rule="nonzero" fill-opacity="1" /><path clip-path="url(#clip330)" d="M2273.84 1037.42 Q2270.23 1037.42 2268.4 1040.98 Q2266.6 1044.52 2266.6 1051.65 Q2266.6 1058.76 2268.4 1062.32 Q2270.23 1065.87 2273.84 1065.87 Q2277.48 1065.87 2279.28 1062.32 Q2281.11 1058.76 2281.11 1051.65 Q2281.11 1044.52 2279.28 1040.98 Q2277.48 1037.42 2273.84 1037.42 M2273.84 1033.71 Q2279.65 1033.71 2282.71 1038.32 Q2285.79 1042.9 2285.79 1051.65 Q2285.79 1060.38 2282.71 1064.99 Q2279.65 1069.57 2273.84 1069.57 Q2268.03 1069.57 2264.95 1064.99 Q2261.9 1060.38 2261.9 1051.65 Q2261.9 1042.9 2264.95 1038.32 Q2268.03 1033.71 2273.84 1033.71 Z" fill="#000000" fill-rule="nonzero" fill-opacity="1" /><path clip-path="url(#clip330)" d="M2683.12 1064.96 L2690.75 1064.96 L2690.75 1038.6 L2682.44 1040.26 L2682.44 1036 L2690.71 1034.34 L2695.38 1034.34 L2695.38 1064.96 L2703.02 1064.96 L2703.02 1068.9 L2683.12 1068.9 L2683.12 1064.96 Z" fill="#000000" fill-rule="nonzero" fill-opacity="1" /><path clip-path="url(#clip330)" d="M2716.5 1064.96 L2732.81 1064.96 L2732.81 1068.9 L2710.87 1068.9 L2710.87 1064.96 Q2713.53 1062.21 2718.12 1057.58 Q2722.72 1052.93 2723.9 1051.58 Q2726.15 1049.06 2727.03 1047.32 Q2727.93 1045.56 2727.93 1043.87 Q2727.93 1041.12 2725.99 1039.38 Q2724.06 1037.65 2720.96 1037.65 Q2718.76 1037.65 2716.31 1038.41 Q2713.88 1039.18 2711.1 1040.73 L2711.1 1036 Q2713.93 1034.87 2716.38 1034.29 Q2718.83 1033.71 2720.87 1033.71 Q2726.24 1033.71 2729.44 1036.4 Q2732.63 1039.08 2732.63 1043.57 Q2732.63 1045.7 2731.82 1047.62 Q2731.03 1049.52 2728.93 1052.12 Q2728.35 1052.79 2725.25 1056 Q2722.14 1059.2 2716.5 1064.96 Z" fill="#000000" fill-rule="nonzero" fill-opacity="1" /><path clip-path="url(#clip330)" d="M2742.68 1034.34 L2761.03 1034.34 L2761.03 1038.27 L2746.96 1038.27 L2746.96 1046.75 Q2747.98 1046.4 2749 1046.24 Q2750.01 1046.05 2751.03 1046.05 Q2756.82 1046.05 2760.2 1049.22 Q2763.58 1052.39 2763.58 1057.81 Q2763.58 1063.39 2760.11 1066.49 Q2756.63 1069.57 2750.31 1069.57 Q2748.14 1069.57 2745.87 1069.2 Q2743.62 1068.83 2741.22 1068.09 L2741.22 1063.39 Q2743.3 1064.52 2745.52 1065.08 Q2747.75 1065.63 2750.22 1065.63 Q2754.23 1065.63 2756.56 1063.53 Q2758.9 1061.42 2758.9 1057.81 Q2758.9 1054.2 2756.56 1052.09 Q2754.23 1049.99 2750.22 1049.99 Q2748.35 1049.99 2746.47 1050.4 Q2744.62 1050.82 2742.68 1051.7 L2742.68 1034.34 Z" fill="#000000" fill-rule="nonzero" fill-opacity="1" /><path clip-path="url(#clip330)" d="M1556.64 1109.44 L1563.07 1109.44 L1563.07 1151.55 L1586.21 1151.55 L1586.21 1156.96 L1556.64 1156.96 L1556.64 1109.44 Z" fill="#000000" fill-rule="nonzero" fill-opacity="1" /><path clip-path="url(#clip330)" d="M1592.7 1121.31 L1598.56 1121.31 L1598.56 1156.96 L1592.7 1156.96 L1592.7 1121.31 M1592.7 1107.44 L1598.56 1107.44 L1598.56 1114.85 L1592.7 1114.85 L1592.7 1107.44 Z" fill="#000000" fill-rule="nonzero" fill-opacity="1" /><path clip-path="url(#clip330)" d="M1640.44 1135.45 L1640.44 1156.96 L1634.59 1156.96 L1634.59 1135.64 Q1634.59 1130.58 1632.61 1128.06 Q1630.64 1125.55 1626.69 1125.55 Q1621.95 1125.55 1619.21 1128.57 Q1616.48 1131.59 1616.48 1136.81 L1616.48 1156.96 L1610.59 1156.96 L1610.59 1121.31 L1616.48 1121.31 L1616.48 1126.85 Q1618.58 1123.64 1621.41 1122.05 Q1624.27 1120.45 1628 1120.45 Q1634.14 1120.45 1637.29 1124.27 Q1640.44 1128.06 1640.44 1135.45 Z" fill="#000000" fill-rule="nonzero" fill-opacity="1" /><path clip-path="url(#clip330)" d="M1682.62 1137.67 L1682.62 1140.54 L1655.69 1140.54 Q1656.07 1146.59 1659.32 1149.77 Q1662.6 1152.92 1668.42 1152.92 Q1671.79 1152.92 1674.95 1152.09 Q1678.13 1151.26 1681.25 1149.61 L1681.25 1155.15 Q1678.1 1156.48 1674.79 1157.18 Q1671.48 1157.88 1668.07 1157.88 Q1659.54 1157.88 1654.54 1152.92 Q1649.58 1147.95 1649.58 1139.49 Q1649.58 1130.74 1654.29 1125.61 Q1659.03 1120.45 1667.05 1120.45 Q1674.25 1120.45 1678.42 1125.1 Q1682.62 1129.72 1682.62 1137.67 M1676.76 1135.95 Q1676.7 1131.15 1674.05 1128.28 Q1671.44 1125.42 1667.12 1125.42 Q1662.21 1125.42 1659.25 1128.19 Q1656.33 1130.96 1655.88 1135.99 L1676.76 1135.95 Z" fill="#000000" fill-rule="nonzero" fill-opacity="1" /><path clip-path="url(#clip330)" d="M1708.43 1139.04 Q1701.33 1139.04 1698.59 1140.67 Q1695.86 1142.29 1695.86 1146.2 Q1695.86 1149.32 1697.89 1151.17 Q1699.96 1152.98 1703.5 1152.98 Q1708.37 1152.98 1711.29 1149.55 Q1714.25 1146.08 1714.25 1140.35 L1714.25 1139.04 L1708.43 1139.04 M1720.11 1136.62 L1720.11 1156.96 L1714.25 1156.96 L1714.25 1151.55 Q1712.25 1154.8 1709.26 1156.36 Q1706.27 1157.88 1701.94 1157.88 Q1696.46 1157.88 1693.22 1154.83 Q1690 1151.74 1690 1146.59 Q1690 1140.57 1694.01 1137.51 Q1698.05 1134.46 1706.04 1134.46 L1714.25 1134.46 L1714.25 1133.89 Q1714.25 1129.84 1711.58 1127.65 Q1708.94 1125.42 1704.13 1125.42 Q1701.08 1125.42 1698.18 1126.15 Q1695.28 1126.88 1692.61 1128.35 L1692.61 1122.94 Q1695.83 1121.7 1698.85 1121.09 Q1701.87 1120.45 1704.74 1120.45 Q1712.47 1120.45 1716.29 1124.46 Q1720.11 1128.48 1720.11 1136.62 Z" fill="#000000" fill-rule="nonzero" fill-opacity="1" /><path clip-path="url(#clip330)" d="M1755.63 1138.72 Q1755.63 1132.36 1752.99 1128.86 Q1750.38 1125.36 1745.64 1125.36 Q1740.93 1125.36 1738.28 1128.86 Q1735.67 1132.36 1735.67 1138.72 Q1735.67 1145.06 1738.28 1148.56 Q1740.93 1152.06 1745.64 1152.06 Q1750.38 1152.06 1752.99 1148.56 Q1755.63 1145.06 1755.63 1138.72 M1761.49 1152.54 Q1761.49 1161.64 1757.45 1166.06 Q1753.4 1170.52 1745.06 1170.52 Q1741.98 1170.52 1739.24 1170.04 Q1736.5 1169.6 1733.92 1168.64 L1733.92 1162.95 Q1736.5 1164.35 1739.02 1165.01 Q1741.53 1165.68 1744.14 1165.68 Q1749.9 1165.68 1752.77 1162.66 Q1755.63 1159.67 1755.63 1153.59 L1755.63 1150.69 Q1753.82 1153.84 1750.98 1155.4 Q1748.15 1156.96 1744.2 1156.96 Q1737.65 1156.96 1733.64 1151.96 Q1729.63 1146.97 1729.63 1138.72 Q1729.63 1130.45 1733.64 1125.45 Q1737.65 1120.45 1744.2 1120.45 Q1748.15 1120.45 1750.98 1122.01 Q1753.82 1123.57 1755.63 1126.72 L1755.63 1121.31 L1761.49 1121.31 L1761.49 1152.54 Z" fill="#000000" fill-rule="nonzero" fill-opacity="1" /><path clip-path="url(#clip330)" d="M1804.04 1137.67 L1804.04 1140.54 L1777.12 1140.54 Q1777.5 1146.59 1780.74 1149.77 Q1784.02 1152.92 1789.85 1152.92 Q1793.22 1152.92 1796.37 1152.09 Q1799.55 1151.26 1802.67 1149.61 L1802.67 1155.15 Q1799.52 1156.48 1796.21 1157.18 Q1792.9 1157.88 1789.5 1157.88 Q1780.97 1157.88 1775.97 1152.92 Q1771 1147.95 1771 1139.49 Q1771 1130.74 1775.71 1125.61 Q1780.46 1120.45 1788.48 1120.45 Q1795.67 1120.45 1799.84 1125.1 Q1804.04 1129.72 1804.04 1137.67 M1798.19 1135.95 Q1798.12 1131.15 1795.48 1128.28 Q1792.87 1125.42 1788.54 1125.42 Q1783.64 1125.42 1780.68 1128.19 Q1777.75 1130.96 1777.31 1135.99 L1798.19 1135.95 Z" fill="#000000" fill-rule="nonzero" fill-opacity="1" /><polyline clip-path="url(#clip332)" style="stroke:#000000; stroke-linecap:round; stroke-linejoin:round; stroke-width:2; stroke-opacity:0.1; fill:none" points="270.918,1000.1 3089.76,1000.1 "/>
<polyline clip-path="url(#clip332)" style="stroke:#000000; stroke-linecap:round; stroke-linejoin:round; stroke-width:2; stroke-opacity:0.1; fill:none" points="270.918,643.074 3089.76,643.074 "/>
<polyline clip-path="url(#clip332)" style="stroke:#000000; stroke-linecap:round; stroke-linejoin:round; stroke-width:2; stroke-opacity:0.1; fill:none" points="270.918,286.05 3089.76,286.05 "/>
<polyline clip-path="url(#clip330)" style="stroke:#000000; stroke-linecap:round; stroke-linejoin:round; stroke-width:4; stroke-opacity:1; fill:none" points="270.918,1000.1 270.918,110.236 "/>
<polyline clip-path="url(#clip330)" style="stroke:#000000; stroke-linecap:round; stroke-linejoin:round; stroke-width:4; stroke-opacity:1; fill:none" points="270.918,1000.1 289.815,1000.1 "/>
<polyline clip-path="url(#clip330)" style="stroke:#000000; stroke-linecap:round; stroke-linejoin:round; stroke-width:4; stroke-opacity:1; fill:none" points="270.918,643.074 289.815,643.074 "/>
<polyline clip-path="url(#clip330)" style="stroke:#000000; stroke-linecap:round; stroke-linejoin:round; stroke-width:4; stroke-opacity:1; fill:none" points="270.918,286.05 289.815,286.05 "/>
<path clip-path="url(#clip330)" d="M154.902 1019.89 L162.54 1019.89 L162.54 993.525 L154.23 995.191 L154.23 990.932 L162.494 989.265 L167.17 989.265 L167.17 1019.89 L174.809 1019.89 L174.809 1023.83 L154.902 1023.83 L154.902 1019.89 Z" fill="#000000" fill-rule="nonzero" fill-opacity="1" /><path clip-path="url(#clip330)" d="M194.253 992.344 Q190.642 992.344 188.813 995.909 Q187.008 999.45 187.008 1006.58 Q187.008 1013.69 188.813 1017.25 Q190.642 1020.79 194.253 1020.79 Q197.887 1020.79 199.693 1017.25 Q201.522 1013.69 201.522 1006.58 Q201.522 999.45 199.693 995.909 Q197.887 992.344 194.253 992.344 M194.253 988.64 Q200.063 988.64 203.119 993.247 Q206.198 997.83 206.198 1006.58 Q206.198 1015.31 203.119 1019.91 Q200.063 1024.5 194.253 1024.5 Q188.443 1024.5 185.364 1019.91 Q182.309 1015.31 182.309 1006.58 Q182.309 997.83 185.364 993.247 Q188.443 988.64 194.253 988.64 Z" fill="#000000" fill-rule="nonzero" fill-opacity="1" /><path clip-path="url(#clip330)" d="M206.743 993.218 L212.95 993.218 L212.95 971.796 L206.198 973.15 L206.198 969.689 L212.912 968.335 L216.711 968.335 L216.711 993.218 L222.918 993.218 L222.918 996.415 L206.743 996.415 L206.743 993.218 Z" fill="#000000" fill-rule="nonzero" fill-opacity="1" /><path clip-path="url(#clip330)" d="M153.792 662.866 L161.431 662.866 L161.431 636.501 L153.121 638.167 L153.121 633.908 L161.384 632.241 L166.06 632.241 L166.06 662.866 L173.699 662.866 L173.699 666.801 L153.792 666.801 L153.792 662.866 Z" fill="#000000" fill-rule="nonzero" fill-opacity="1" /><path clip-path="url(#clip330)" d="M193.143 635.32 Q189.532 635.32 187.704 638.885 Q185.898 642.426 185.898 649.556 Q185.898 656.662 187.704 660.227 Q189.532 663.769 193.143 663.769 Q196.778 663.769 198.583 660.227 Q200.412 656.662 200.412 649.556 Q200.412 642.426 198.583 638.885 Q196.778 635.32 193.143 635.32 M193.143 631.616 Q198.954 631.616 202.009 636.223 Q205.088 640.806 205.088 649.556 Q205.088 658.283 202.009 662.889 Q198.954 667.473 193.143 667.473 Q187.333 667.473 184.255 662.889 Q181.199 658.283 181.199 649.556 Q181.199 640.806 184.255 636.223 Q187.333 631.616 193.143 631.616 Z" fill="#000000" fill-rule="nonzero" fill-opacity="1" /><path clip-path="url(#clip330)" d="M209.658 636.194 L222.918 636.194 L222.918 639.391 L205.088 639.391 L205.088 636.194 Q207.251 633.955 210.975 630.194 Q214.717 626.414 215.677 625.323 Q217.501 623.273 218.216 621.862 Q218.949 620.433 218.949 619.06 Q218.949 616.822 217.369 615.411 Q215.808 614 213.288 614 Q211.501 614 209.508 614.621 Q207.533 615.242 205.276 616.502 L205.276 612.665 Q207.57 611.744 209.564 611.273 Q211.558 610.803 213.213 610.803 Q217.576 610.803 220.172 612.985 Q222.767 615.167 222.767 618.815 Q222.767 620.546 222.109 622.107 Q221.469 623.649 219.758 625.755 Q219.288 626.301 216.767 628.915 Q214.247 631.51 209.658 636.194 Z" fill="#000000" fill-rule="nonzero" fill-opacity="1" /><path clip-path="url(#clip330)" d="M153.134 305.842 L160.772 305.842 L160.772 279.477 L152.462 281.143 L152.462 276.884 L160.726 275.217 L165.402 275.217 L165.402 305.842 L173.041 305.842 L173.041 309.777 L153.134 309.777 L153.134 305.842 Z" fill="#000000" fill-rule="nonzero" fill-opacity="1" /><path clip-path="url(#clip330)" d="M192.485 278.296 Q188.874 278.296 187.045 281.861 Q185.24 285.402 185.24 292.532 Q185.24 299.639 187.045 303.203 Q188.874 306.745 192.485 306.745 Q196.119 306.745 197.925 303.203 Q199.754 299.639 199.754 292.532 Q199.754 285.402 197.925 281.861 Q196.119 278.296 192.485 278.296 M192.485 274.592 Q198.295 274.592 201.351 279.199 Q204.43 283.782 204.43 292.532 Q204.43 301.259 201.351 305.865 Q198.295 310.449 192.485 310.449 Q186.675 310.449 183.596 305.865 Q180.541 301.259 180.541 292.532 Q180.541 283.782 183.596 279.199 Q186.675 274.592 192.485 274.592 Z" fill="#000000" fill-rule="nonzero" fill-opacity="1" /><path clip-path="url(#clip330)" d="M217.125 267.227 Q219.852 267.81 221.375 269.653 Q222.918 271.496 222.918 274.204 Q222.918 278.361 220.059 280.637 Q217.2 282.912 211.934 282.912 Q210.166 282.912 208.285 282.555 Q206.423 282.216 204.43 281.521 L204.43 277.853 Q206.009 278.775 207.89 279.245 Q209.771 279.715 211.821 279.715 Q215.395 279.715 217.256 278.304 Q219.137 276.894 219.137 274.204 Q219.137 271.722 217.388 270.33 Q215.658 268.919 212.555 268.919 L209.282 268.919 L209.282 265.797 L212.705 265.797 Q215.507 265.797 216.993 264.688 Q218.479 263.559 218.479 261.453 Q218.479 259.29 216.937 258.143 Q215.413 256.976 212.555 256.976 Q210.994 256.976 209.207 257.315 Q207.42 257.654 205.276 258.368 L205.276 254.983 Q207.439 254.381 209.32 254.08 Q211.219 253.779 212.893 253.779 Q217.219 253.779 219.739 255.754 Q222.259 257.71 222.259 261.058 Q222.259 263.39 220.924 265.007 Q219.589 266.606 217.125 267.227 Z" fill="#000000" fill-rule="nonzero" fill-opacity="1" /><path clip-path="url(#clip330)" d="M42.6863 612.124 L42.6863 582.078 L48.0971 582.078 L48.0971 605.695 L62.1653 605.695 L62.1653 583.065 L67.5762 583.065 L67.5762 605.695 L84.7954 605.695 L84.7954 581.505 L90.2063 581.505 L90.2063 612.124 L42.6863 612.124 Z" fill="#000000" fill-rule="nonzero" fill-opacity="1" /><path clip-path="url(#clip330)" d="M44.2459 542.451 L50.5161 542.451 Q48.7655 546.112 47.9062 549.358 Q47.0468 552.605 47.0468 555.628 Q47.0468 560.88 49.0838 563.745 Q51.1208 566.577 54.8766 566.577 Q58.0276 566.577 59.6509 564.7 Q61.2423 562.79 62.229 557.506 L63.0247 553.623 Q64.3933 546.43 67.8627 543.024 Q71.3001 539.587 77.0929 539.587 Q83.9997 539.587 87.5645 544.234 Q91.1293 548.849 91.1293 557.793 Q91.1293 561.167 90.3654 564.986 Q89.6015 568.774 88.1056 572.848 L81.4853 572.848 Q83.6814 568.933 84.7954 565.177 Q85.9094 561.421 85.9094 557.793 Q85.9094 552.286 83.7451 549.295 Q81.5808 546.303 77.5704 546.303 Q74.0692 546.303 72.0958 548.467 Q70.1225 550.6 69.1358 555.501 L68.3719 559.416 Q66.9396 566.609 63.8841 569.824 Q60.8285 573.039 55.3859 573.039 Q49.0838 573.039 45.4554 568.615 Q41.8269 564.159 41.8269 556.361 Q41.8269 553.019 42.4317 549.549 Q43.0364 546.08 44.2459 542.451 Z" fill="#000000" fill-rule="nonzero" fill-opacity="1" /><path clip-path="url(#clip330)" d="M44.2459 501.074 L50.5161 501.074 Q48.7655 504.735 47.9062 507.981 Q47.0468 511.228 47.0468 514.251 Q47.0468 519.503 49.0838 522.368 Q51.1208 525.2 54.8766 525.2 Q58.0276 525.2 59.6509 523.323 Q61.2423 521.413 62.229 516.129 L63.0247 512.246 Q64.3933 505.053 67.8627 501.647 Q71.3001 498.21 77.0929 498.21 Q83.9997 498.21 87.5645 502.857 Q91.1293 507.472 91.1293 516.416 Q91.1293 519.79 90.3654 523.609 Q89.6015 527.397 88.1056 531.471 L81.4853 531.471 Q83.6814 527.556 84.7954 523.8 Q85.9094 520.044 85.9094 516.416 Q85.9094 510.909 83.7451 507.918 Q81.5808 504.926 77.5704 504.926 Q74.0692 504.926 72.0958 507.09 Q70.1225 509.222 69.1358 514.124 L68.3719 518.039 Q66.9396 525.232 63.8841 528.447 Q60.8285 531.662 55.3859 531.662 Q49.0838 531.662 45.4554 527.237 Q41.8269 522.781 41.8269 514.983 Q41.8269 511.641 42.4317 508.172 Q43.0364 504.703 44.2459 501.074 Z" fill="#000000" fill-rule="nonzero" fill-opacity="1" /><polyline clip-path="url(#clip332)" style="stroke:#009af9; stroke-linecap:round; stroke-linejoin:round; stroke-width:4; stroke-opacity:1; fill:none" points="350.696,236.349 369.828,165.569 388.959,171.794 408.091,184.091 427.223,167.401 446.354,155.473 465.486,129.176 484.617,175.668 503.749,186.333 522.88,153.099 542.012,129.016 561.144,138.54 580.275,168.83 599.407,146.522 618.538,119.086 637.67,181.135 656.801,186.518 675.933,233.704 695.065,165.291 714.196,204.429 733.328,160.438 752.459,174.272 771.591,168.818 790.723,163.408 809.854,173.544 828.986,205.752 848.117,240.815 867.249,144.844 886.38,145.843 905.512,141.186 924.644,169.7 943.775,149.749 962.907,160.865 982.038,186.392 "/>
<polyline clip-path="url(#clip332)" style="stroke:#009af9; stroke-linecap:round; stroke-linejoin:round; stroke-width:4; stroke-opacity:1; fill:none" points="1020.3,242.768 1039.43,321.513 1058.56,149.154 1077.7,201.33 1096.83,136.092 1115.96,268.909 1135.09,161.765 1154.22,165.214 1173.35,208.571 1192.49,255.07 1211.62,115.351 1230.75,242.646 1249.88,182.02 1269.01,173.692 1288.14,247.417 1307.28,208.326 1326.41,188.953 1345.54,197.751 1364.67,191.267 1383.8,155.66 1402.93,176.46 1422.06,229.881 1441.2,124.488 1460.33,144.639 1479.46,171.38 1498.59,168.085 1517.72,140.055 1536.85,170.857 1555.99,184.188 1575.12,192.584 1594.25,204.688 1613.38,153.33 1632.51,182.466 1651.64,191.695 1670.77,187.92 1689.91,179.118 1709.04,208.558 1728.17,197.566 1747.3,179.624 1766.43,159.949 1785.56,161.088 1804.7,120.449 1823.83,191.634 1842.96,195.947 1862.09,143.883 1881.22,146.326 1900.35,182.965 1919.49,135.225 1938.62,146.2 1957.75,156.433 1976.88,161.801 1996.01,137.896 2015.14,134.149 2034.27,168.012 2053.41,136.103 2072.54,164.153 2091.67,145.232 2110.8,126.097 2129.93,184.309 2149.06,153.416 2168.2,178.628 2187.33,140.257 2206.46,157.363 2225.59,197.528 2244.72,177.105 2263.85,168.17 2282.99,165.92 2302.12,167.228 2321.25,219.855 2340.38,235.404 2359.51,222.41 2378.64,134.937 2397.77,239.044 2416.91,160.175 2436.04,183.218 2455.17,178.051 2474.3,243.663 2493.43,163.286 2512.56,180.624 2531.7,202.047 2550.83,183.549 2569.96,206.119 2589.09,181.204 2608.22,169.134 2627.35,211.722 2646.49,136.038 2665.62,154.279 2684.75,144.122 2703.88,142.266 2723.01,164.421 2742.14,131.65 2761.27,144.486 2780.41,110.236 2799.54,150.576 2818.67,178.74 2837.8,161.352 2856.93,193.247 2876.06,200.173 2895.2,169.14 2914.33,162.653 2933.46,139.32 2952.59,184.159 2971.72,176.538 2990.85,238.786 3009.99,170.783 "/>
</svg>
