<?xml version="1.0" encoding="utf-8"?>
<svg xmlns="http://www.w3.org/2000/svg" xmlns:xlink="http://www.w3.org/1999/xlink" width="800" height="300" viewBox="0 0 3200 1200">
<defs>
  <clipPath id="clip920">
    <rect x="0" y="0" width="3200" height="1200"/>
  </clipPath>
</defs>
<path clip-path="url(#clip920)" d="
M0 1200 L3200 1200 L3200 0 L0 0  Z
  " fill="#ffffff" fill-rule="evenodd" fill-opacity="1"/>
<defs>
  <clipPath id="clip921">
    <rect x="640" y="0" width="2241" height="1200"/>
  </clipPath>
</defs>
<path clip-path="url(#clip920)" d="
M270.918 1000.1 L3089.76 1000.1 L3089.76 110.236 L270.918 110.236  Z
  " fill="#ffffff" fill-rule="evenodd" fill-opacity="1"/>
<defs>
  <clipPath id="clip922">
    <rect x="270" y="110" width="2820" height="891"/>
  </clipPath>
</defs>
<polyline clip-path="url(#clip922)" style="stroke:#000000; stroke-linecap:round; stroke-linejoin:round; stroke-width:2; stroke-opacity:0.1; fill:none" points="
  342.006,1000.1 342.006,110.236 
  "/>
<polyline clip-path="url(#clip922)" style="stroke:#000000; stroke-linecap:round; stroke-linejoin:round; stroke-width:2; stroke-opacity:0.1; fill:none" points="
  1211.05,1000.1 1211.05,110.236 
  "/>
<polyline clip-path="url(#clip922)" style="stroke:#000000; stroke-linecap:round; stroke-linejoin:round; stroke-width:2; stroke-opacity:0.1; fill:none" points="
  2080.1,1000.1 2080.1,110.236 
  "/>
<polyline clip-path="url(#clip922)" style="stroke:#000000; stroke-linecap:round; stroke-linejoin:round; stroke-width:2; stroke-opacity:0.1; fill:none" points="
  2949.15,1000.1 2949.15,110.236 
  "/>
<polyline clip-path="url(#clip920)" style="stroke:#000000; stroke-linecap:round; stroke-linejoin:round; stroke-width:4; stroke-opacity:1; fill:none" points="
  270.918,1000.1 3089.76,1000.1 
  "/>
<polyline clip-path="url(#clip920)" style="stroke:#000000; stroke-linecap:round; stroke-linejoin:round; stroke-width:4; stroke-opacity:1; fill:none" points="
  342.006,1000.1 342.006,981.2 
  "/>
<polyline clip-path="url(#clip920)" style="stroke:#000000; stroke-linecap:round; stroke-linejoin:round; stroke-width:4; stroke-opacity:1; fill:none" points="
  1211.05,1000.1 1211.05,981.2 
  "/>
<polyline clip-path="url(#clip920)" style="stroke:#000000; stroke-linecap:round; stroke-linejoin:round; stroke-width:4; stroke-opacity:1; fill:none" points="
  2080.1,1000.1 2080.1,981.2 
  "/>
<polyline clip-path="url(#clip920)" style="stroke:#000000; stroke-linecap:round; stroke-linejoin:round; stroke-width:4; stroke-opacity:1; fill:none" points="
  2949.15,1000.1 2949.15,981.2 
  "/>
<path clip-path="url(#clip920)" d="M342.006 1037.42 Q338.395 1037.42 336.566 1040.98 Q334.76 1044.52 334.76 1051.65 Q334.76 1058.76 336.566 1062.32 Q338.395 1065.87 342.006 1065.87 Q345.64 1065.87 347.446 1062.32 Q349.274 1058.76 349.274 1051.65 Q349.274 1044.52 347.446 1040.98 Q345.64 1037.42 342.006 1037.42 M342.006 1033.71 Q347.816 1033.71 350.872 1038.32 Q353.95 1042.9 353.95 1051.65 Q353.95 1060.38 350.872 1064.99 Q347.816 1069.57 342.006 1069.57 Q336.196 1069.57 333.117 1064.99 Q330.061 1060.38 330.061 1051.65 Q330.061 1042.9 333.117 1038.32 Q336.196 1033.71 342.006 1033.71 Z" fill="#000000" fill-rule="evenodd" fill-opacity="1" /><path clip-path="url(#clip920)" d="M1170.66 1064.96 L1178.3 1064.96 L1178.3 1038.6 L1169.99 1040.26 L1169.99 1036 L1178.25 1034.34 L1182.93 1034.34 L1182.93 1064.96 L1190.57 1064.96 L1190.57 1068.9 L1170.66 1068.9 L1170.66 1064.96 Z" fill="#000000" fill-rule="evenodd" fill-opacity="1" /><path clip-path="url(#clip920)" d="M1210.01 1037.42 Q1206.4 1037.42 1204.57 1040.98 Q1202.77 1044.52 1202.77 1051.65 Q1202.77 1058.76 1204.57 1062.32 Q1206.4 1065.87 1210.01 1065.87 Q1213.65 1065.87 1215.45 1062.32 Q1217.28 1058.76 1217.28 1051.65 Q1217.28 1044.52 1215.45 1040.98 Q1213.65 1037.42 1210.01 1037.42 M1210.01 1033.71 Q1215.82 1033.71 1218.88 1038.32 Q1221.96 1042.9 1221.96 1051.65 Q1221.96 1060.38 1218.88 1064.99 Q1215.82 1069.57 1210.01 1069.57 Q1204.2 1069.57 1201.12 1064.99 Q1198.07 1060.38 1198.07 1051.65 Q1198.07 1042.9 1201.12 1038.32 Q1204.2 1033.71 1210.01 1033.71 Z" fill="#000000" fill-rule="evenodd" fill-opacity="1" /><path clip-path="url(#clip920)" d="M1240.17 1037.42 Q1236.56 1037.42 1234.73 1040.98 Q1232.93 1044.52 1232.93 1051.65 Q1232.93 1058.76 1234.73 1062.32 Q1236.56 1065.87 1240.17 1065.87 Q1243.81 1065.87 1245.61 1062.32 Q1247.44 1058.76 1247.44 1051.65 Q1247.44 1044.52 1245.61 1040.98 Q1243.81 1037.42 1240.17 1037.42 M1240.17 1033.71 Q1245.98 1033.71 1249.04 1038.32 Q1252.12 1042.9 1252.12 1051.65 Q1252.12 1060.38 1249.04 1064.99 Q1245.98 1069.57 1240.17 1069.57 Q1234.36 1069.57 1231.29 1064.99 Q1228.23 1060.38 1228.23 1051.65 Q1228.23 1042.9 1231.29 1038.32 Q1234.36 1033.71 1240.17 1033.71 Z" fill="#000000" fill-rule="evenodd" fill-opacity="1" /><path clip-path="url(#clip920)" d="M2043.8 1064.96 L2060.11 1064.96 L2060.11 1068.9 L2038.17 1068.9 L2038.17 1064.96 Q2040.83 1062.21 2045.42 1057.58 Q2050.02 1052.93 2051.2 1051.58 Q2053.45 1049.06 2054.33 1047.32 Q2055.23 1045.56 2055.23 1043.87 Q2055.23 1041.12 2053.29 1039.38 Q2051.36 1037.65 2048.26 1037.65 Q2046.06 1037.65 2043.61 1038.41 Q2041.18 1039.18 2038.4 1040.73 L2038.4 1036 Q2041.23 1034.87 2043.68 1034.29 Q2046.13 1033.71 2048.17 1033.71 Q2053.54 1033.71 2056.74 1036.4 Q2059.93 1039.08 2059.93 1043.57 Q2059.93 1045.7 2059.12 1047.62 Q2058.33 1049.52 2056.23 1052.12 Q2055.65 1052.79 2052.55 1056 Q2049.44 1059.2 2043.8 1064.96 Z" fill="#000000" fill-rule="evenodd" fill-opacity="1" /><path clip-path="url(#clip920)" d="M2079.93 1037.42 Q2076.32 1037.42 2074.49 1040.98 Q2072.68 1044.52 2072.68 1051.65 Q2072.68 1058.76 2074.49 1062.32 Q2076.32 1065.87 2079.93 1065.87 Q2083.56 1065.87 2085.37 1062.32 Q2087.2 1058.76 2087.2 1051.65 Q2087.2 1044.52 2085.37 1040.98 Q2083.56 1037.42 2079.93 1037.42 M2079.93 1033.71 Q2085.74 1033.71 2088.8 1038.32 Q2091.87 1042.9 2091.87 1051.65 Q2091.87 1060.38 2088.8 1064.99 Q2085.74 1069.57 2079.93 1069.57 Q2074.12 1069.57 2071.04 1064.99 Q2067.99 1060.38 2067.99 1051.65 Q2067.99 1042.9 2071.04 1038.32 Q2074.12 1033.71 2079.93 1033.71 Z" fill="#000000" fill-rule="evenodd" fill-opacity="1" /><path clip-path="url(#clip920)" d="M2110.09 1037.42 Q2106.48 1037.42 2104.65 1040.98 Q2102.85 1044.52 2102.85 1051.65 Q2102.85 1058.76 2104.65 1062.32 Q2106.48 1065.87 2110.09 1065.87 Q2113.73 1065.87 2115.53 1062.32 Q2117.36 1058.76 2117.36 1051.65 Q2117.36 1044.52 2115.53 1040.98 Q2113.73 1037.42 2110.09 1037.42 M2110.09 1033.71 Q2115.9 1033.71 2118.96 1038.32 Q2122.04 1042.9 2122.04 1051.65 Q2122.04 1060.38 2118.96 1064.99 Q2115.9 1069.57 2110.09 1069.57 Q2104.28 1069.57 2101.2 1064.99 Q2098.15 1060.38 2098.15 1051.65 Q2098.15 1042.9 2101.2 1038.32 Q2104.28 1033.71 2110.09 1033.71 Z" fill="#000000" fill-rule="evenodd" fill-opacity="1" /><path clip-path="url(#clip920)" d="M2922.91 1050.26 Q2926.27 1050.98 2928.14 1053.25 Q2930.04 1055.52 2930.04 1058.85 Q2930.04 1063.97 2926.52 1066.77 Q2923.01 1069.57 2916.52 1069.57 Q2914.35 1069.57 2912.03 1069.13 Q2909.74 1068.71 2907.29 1067.86 L2907.29 1063.34 Q2909.23 1064.48 2911.55 1065.06 Q2913.86 1065.63 2916.39 1065.63 Q2920.78 1065.63 2923.08 1063.9 Q2925.39 1062.16 2925.39 1058.85 Q2925.39 1055.8 2923.24 1054.08 Q2921.11 1052.35 2917.29 1052.35 L2913.26 1052.35 L2913.26 1048.5 L2917.47 1048.5 Q2920.92 1048.5 2922.75 1047.14 Q2924.58 1045.75 2924.58 1043.16 Q2924.58 1040.5 2922.68 1039.08 Q2920.81 1037.65 2917.29 1037.65 Q2915.37 1037.65 2913.17 1038.06 Q2910.97 1038.48 2908.33 1039.36 L2908.33 1035.19 Q2910.99 1034.45 2913.31 1034.08 Q2915.64 1033.71 2917.71 1033.71 Q2923.03 1033.71 2926.13 1036.14 Q2929.23 1038.55 2929.23 1042.67 Q2929.23 1045.54 2927.59 1047.53 Q2925.95 1049.5 2922.91 1050.26 Z" fill="#000000" fill-rule="evenodd" fill-opacity="1" /><path clip-path="url(#clip920)" d="M2948.91 1037.42 Q2945.3 1037.42 2943.47 1040.98 Q2941.66 1044.52 2941.66 1051.65 Q2941.66 1058.76 2943.47 1062.32 Q2945.3 1065.87 2948.91 1065.87 Q2952.54 1065.87 2954.35 1062.32 Q2956.18 1058.76 2956.18 1051.65 Q2956.18 1044.52 2954.35 1040.98 Q2952.54 1037.42 2948.91 1037.42 M2948.91 1033.71 Q2954.72 1033.71 2957.77 1038.32 Q2960.85 1042.9 2960.85 1051.65 Q2960.85 1060.38 2957.77 1064.99 Q2954.72 1069.57 2948.91 1069.57 Q2943.1 1069.57 2940.02 1064.99 Q2936.96 1060.38 2936.96 1051.65 Q2936.96 1042.9 2940.02 1038.32 Q2943.1 1033.71 2948.91 1033.71 Z" fill="#000000" fill-rule="evenodd" fill-opacity="1" /><path clip-path="url(#clip920)" d="M2979.07 1037.42 Q2975.46 1037.42 2973.63 1040.98 Q2971.83 1044.52 2971.83 1051.65 Q2971.83 1058.76 2973.63 1062.32 Q2975.46 1065.87 2979.07 1065.87 Q2982.7 1065.87 2984.51 1062.32 Q2986.34 1058.76 2986.34 1051.65 Q2986.34 1044.52 2984.51 1040.98 Q2982.7 1037.42 2979.07 1037.42 M2979.07 1033.71 Q2984.88 1033.71 2987.94 1038.32 Q2991.01 1042.9 2991.01 1051.65 Q2991.01 1060.38 2987.94 1064.99 Q2984.88 1069.57 2979.07 1069.57 Q2973.26 1069.57 2970.18 1064.99 Q2967.13 1060.38 2967.13 1051.65 Q2967.13 1042.9 2970.18 1038.32 Q2973.26 1033.71 2979.07 1033.71 Z" fill="#000000" fill-rule="evenodd" fill-opacity="1" /><path clip-path="url(#clip920)" d="M1556.64 1109.44 L1563.07 1109.44 L1563.07 1151.55 L1586.21 1151.55 L1586.21 1156.96 L1556.64 1156.96 L1556.64 1109.44 Z" fill="#000000" fill-rule="evenodd" fill-opacity="1" /><path clip-path="url(#clip920)" d="M1592.7 1121.31 L1598.56 1121.31 L1598.56 1156.96 L1592.7 1156.96 L1592.7 1121.31 M1592.7 1107.44 L1598.56 1107.44 L1598.56 1114.85 L1592.7 1114.85 L1592.7 1107.44 Z" fill="#000000" fill-rule="evenodd" fill-opacity="1" /><path clip-path="url(#clip920)" d="M1640.44 1135.45 L1640.44 1156.96 L1634.59 1156.96 L1634.59 1135.64 Q1634.59 1130.58 1632.61 1128.06 Q1630.64 1125.55 1626.69 1125.55 Q1621.95 1125.55 1619.21 1128.57 Q1616.48 1131.59 1616.48 1136.81 L1616.48 1156.96 L1610.59 1156.96 L1610.59 1121.31 L1616.48 1121.31 L1616.48 1126.85 Q1618.58 1123.64 1621.41 1122.05 Q1624.27 1120.45 1628 1120.45 Q1634.14 1120.45 1637.29 1124.27 Q1640.44 1128.06 1640.44 1135.45 Z" fill="#000000" fill-rule="evenodd" fill-opacity="1" /><path clip-path="url(#clip920)" d="M1682.62 1137.67 L1682.62 1140.54 L1655.69 1140.54 Q1656.07 1146.59 1659.32 1149.77 Q1662.6 1152.92 1668.42 1152.92 Q1671.79 1152.92 1674.95 1152.09 Q1678.13 1151.26 1681.25 1149.61 L1681.25 1155.15 Q1678.1 1156.48 1674.79 1157.18 Q1671.48 1157.88 1668.07 1157.88 Q1659.54 1157.88 1654.54 1152.92 Q1649.58 1147.95 1649.58 1139.49 Q1649.58 1130.74 1654.29 1125.61 Q1659.03 1120.45 1667.05 1120.45 Q1674.25 1120.45 1678.42 1125.1 Q1682.62 1129.72 1682.62 1137.67 M1676.76 1135.95 Q1676.7 1131.15 1674.05 1128.28 Q1671.44 1125.42 1667.12 1125.42 Q1662.21 1125.42 1659.25 1128.19 Q1656.33 1130.96 1655.88 1135.99 L1676.76 1135.95 Z" fill="#000000" fill-rule="evenodd" fill-opacity="1" /><path clip-path="url(#clip920)" d="M1708.43 1139.04 Q1701.33 1139.04 1698.59 1140.67 Q1695.86 1142.29 1695.86 1146.2 Q1695.86 1149.32 1697.89 1151.17 Q1699.96 1152.98 1703.5 1152.98 Q1708.37 1152.98 1711.29 1149.55 Q1714.25 1146.08 1714.25 1140.35 L1714.25 1139.04 L1708.43 1139.04 M1720.11 1136.62 L1720.11 1156.96 L1714.25 1156.96 L1714.25 1151.55 Q1712.25 1154.8 1709.26 1156.36 Q1706.27 1157.88 1701.94 1157.88 Q1696.46 1157.88 1693.22 1154.83 Q1690 1151.74 1690 1146.59 Q1690 1140.57 1694.01 1137.51 Q1698.05 1134.46 1706.04 1134.46 L1714.25 1134.46 L1714.25 1133.89 Q1714.25 1129.84 1711.58 1127.65 Q1708.94 1125.42 1704.13 1125.42 Q1701.08 1125.42 1698.18 1126.15 Q1695.28 1126.88 1692.61 1128.35 L1692.61 1122.94 Q1695.83 1121.7 1698.85 1121.09 Q1701.87 1120.45 1704.74 1120.45 Q1712.47 1120.45 1716.29 1124.46 Q1720.11 1128.48 1720.11 1136.62 Z" fill="#000000" fill-rule="evenodd" fill-opacity="1" /><path clip-path="url(#clip920)" d="M1755.63 1138.72 Q1755.63 1132.36 1752.99 1128.86 Q1750.38 1125.36 1745.64 1125.36 Q1740.93 1125.36 1738.28 1128.86 Q1735.67 1132.36 1735.67 1138.72 Q1735.67 1145.06 1738.28 1148.56 Q1740.93 1152.06 1745.64 1152.06 Q1750.38 1152.06 1752.99 1148.56 Q1755.63 1145.06 1755.63 1138.72 M1761.49 1152.54 Q1761.49 1161.64 1757.45 1166.06 Q1753.4 1170.52 1745.06 1170.52 Q1741.98 1170.52 1739.24 1170.04 Q1736.5 1169.6 1733.92 1168.64 L1733.92 1162.95 Q1736.5 1164.35 1739.02 1165.01 Q1741.53 1165.68 1744.14 1165.68 Q1749.9 1165.68 1752.77 1162.66 Q1755.63 1159.67 1755.63 1153.59 L1755.63 1150.69 Q1753.82 1153.84 1750.98 1155.4 Q1748.15 1156.96 1744.2 1156.96 Q1737.65 1156.96 1733.64 1151.96 Q1729.63 1146.97 1729.63 1138.72 Q1729.63 1130.45 1733.64 1125.45 Q1737.65 1120.45 1744.2 1120.45 Q1748.15 1120.45 1750.98 1122.01 Q1753.82 1123.57 1755.63 1126.72 L1755.63 1121.31 L1761.49 1121.31 L1761.49 1152.54 Z" fill="#000000" fill-rule="evenodd" fill-opacity="1" /><path clip-path="url(#clip920)" d="M1804.04 1137.67 L1804.04 1140.54 L1777.12 1140.54 Q1777.5 1146.59 1780.74 1149.77 Q1784.02 1152.92 1789.85 1152.92 Q1793.22 1152.92 1796.37 1152.09 Q1799.55 1151.26 1802.67 1149.61 L1802.67 1155.15 Q1799.52 1156.48 1796.21 1157.18 Q1792.9 1157.88 1789.5 1157.88 Q1780.97 1157.88 1775.97 1152.92 Q1771 1147.95 1771 1139.49 Q1771 1130.74 1775.71 1125.61 Q1780.46 1120.45 1788.48 1120.45 Q1795.67 1120.45 1799.84 1125.1 Q1804.04 1129.72 1804.04 1137.67 M1798.19 1135.95 Q1798.12 1131.15 1795.48 1128.28 Q1792.87 1125.42 1788.54 1125.42 Q1783.64 1125.42 1780.68 1128.19 Q1777.75 1130.96 1777.31 1135.99 L1798.19 1135.95 Z" fill="#000000" fill-rule="evenodd" fill-opacity="1" /><polyline clip-path="url(#clip922)" style="stroke:#000000; stroke-linecap:round; stroke-linejoin:round; stroke-width:2; stroke-opacity:0.1; fill:none" points="
  270.918,1000.1 3089.76,1000.1 
  "/>
<polyline clip-path="url(#clip922)" style="stroke:#000000; stroke-linecap:round; stroke-linejoin:round; stroke-width:2; stroke-opacity:0.1; fill:none" points="
  270.918,669.359 3089.76,669.359 
  "/>
<polyline clip-path="url(#clip922)" style="stroke:#000000; stroke-linecap:round; stroke-linejoin:round; stroke-width:2; stroke-opacity:0.1; fill:none" points="
  270.918,338.62 3089.76,338.62 
  "/>
<polyline clip-path="url(#clip920)" style="stroke:#000000; stroke-linecap:round; stroke-linejoin:round; stroke-width:4; stroke-opacity:1; fill:none" points="
  270.918,1000.1 270.918,110.236 
  "/>
<polyline clip-path="url(#clip920)" style="stroke:#000000; stroke-linecap:round; stroke-linejoin:round; stroke-width:4; stroke-opacity:1; fill:none" points="
  270.918,1000.1 289.815,1000.1 
  "/>
<polyline clip-path="url(#clip920)" style="stroke:#000000; stroke-linecap:round; stroke-linejoin:round; stroke-width:4; stroke-opacity:1; fill:none" points="
  270.918,669.359 289.815,669.359 
  "/>
<polyline clip-path="url(#clip920)" style="stroke:#000000; stroke-linecap:round; stroke-linejoin:round; stroke-width:4; stroke-opacity:1; fill:none" points="
  270.918,338.62 289.815,338.62 
  "/>
<path clip-path="url(#clip920)" d="M154.902 1019.89 L162.54 1019.89 L162.54 993.525 L154.23 995.191 L154.23 990.932 L162.494 989.265 L167.17 989.265 L167.17 1019.89 L174.809 1019.89 L174.809 1023.83 L154.902 1023.83 L154.902 1019.89 Z" fill="#000000" fill-rule="evenodd" fill-opacity="1" /><path clip-path="url(#clip920)" d="M194.253 992.344 Q190.642 992.344 188.813 995.909 Q187.008 999.45 187.008 1006.58 Q187.008 1013.69 188.813 1017.25 Q190.642 1020.79 194.253 1020.79 Q197.887 1020.79 199.693 1017.25 Q201.522 1013.69 201.522 1006.58 Q201.522 999.45 199.693 995.909 Q197.887 992.344 194.253 992.344 M194.253 988.64 Q200.063 988.64 203.119 993.247 Q206.198 997.83 206.198 1006.58 Q206.198 1015.31 203.119 1019.91 Q200.063 1024.5 194.253 1024.5 Q188.443 1024.5 185.364 1019.91 Q182.309 1015.31 182.309 1006.58 Q182.309 997.83 185.364 993.247 Q188.443 988.64 194.253 988.64 Z" fill="#000000" fill-rule="evenodd" fill-opacity="1" /><path clip-path="url(#clip920)" d="M206.743 993.218 L212.95 993.218 L212.95 971.796 L206.198 973.15 L206.198 969.689 L212.912 968.335 L216.711 968.335 L216.711 993.218 L222.918 993.218 L222.918 996.415 L206.743 996.415 L206.743 993.218 Z" fill="#000000" fill-rule="evenodd" fill-opacity="1" /><path clip-path="url(#clip920)" d="M153.792 689.152 L161.431 689.152 L161.431 662.786 L153.121 664.453 L153.121 660.193 L161.384 658.527 L166.06 658.527 L166.06 689.152 L173.699 689.152 L173.699 693.087 L153.792 693.087 L153.792 689.152 Z" fill="#000000" fill-rule="evenodd" fill-opacity="1" /><path clip-path="url(#clip920)" d="M193.143 661.605 Q189.532 661.605 187.704 665.17 Q185.898 668.712 185.898 675.841 Q185.898 682.948 187.704 686.513 Q189.532 690.054 193.143 690.054 Q196.778 690.054 198.583 686.513 Q200.412 682.948 200.412 675.841 Q200.412 668.712 198.583 665.17 Q196.778 661.605 193.143 661.605 M193.143 657.902 Q198.954 657.902 202.009 662.508 Q205.088 667.091 205.088 675.841 Q205.088 684.568 202.009 689.175 Q198.954 693.758 193.143 693.758 Q187.333 693.758 184.255 689.175 Q181.199 684.568 181.199 675.841 Q181.199 667.091 184.255 662.508 Q187.333 657.902 193.143 657.902 Z" fill="#000000" fill-rule="evenodd" fill-opacity="1" /><path clip-path="url(#clip920)" d="M209.658 662.479 L222.918 662.479 L222.918 665.676 L205.088 665.676 L205.088 662.479 Q207.251 660.241 210.975 656.479 Q214.717 652.699 215.677 651.608 Q217.501 649.558 218.216 648.147 Q218.949 646.718 218.949 645.345 Q218.949 643.107 217.369 641.696 Q215.808 640.286 213.288 640.286 Q211.501 640.286 209.508 640.906 Q207.533 641.527 205.276 642.787 L205.276 638.95 Q207.57 638.029 209.564 637.559 Q211.558 637.088 213.213 637.088 Q217.576 637.088 220.172 639.27 Q222.767 641.452 222.767 645.101 Q222.767 646.831 222.109 648.392 Q221.469 649.934 219.758 652.041 Q219.288 652.586 216.767 655.2 Q214.247 657.796 209.658 662.479 Z" fill="#000000" fill-rule="evenodd" fill-opacity="1" /><path clip-path="url(#clip920)" d="M153.134 358.413 L160.772 358.413 L160.772 332.047 L152.462 333.714 L152.462 329.455 L160.726 327.788 L165.402 327.788 L165.402 358.413 L173.041 358.413 L173.041 362.348 L153.134 362.348 L153.134 358.413 Z" fill="#000000" fill-rule="evenodd" fill-opacity="1" /><path clip-path="url(#clip920)" d="M192.485 330.867 Q188.874 330.867 187.045 334.432 Q185.24 337.973 185.24 345.103 Q185.24 352.209 187.045 355.774 Q188.874 359.316 192.485 359.316 Q196.119 359.316 197.925 355.774 Q199.754 352.209 199.754 345.103 Q199.754 337.973 197.925 334.432 Q196.119 330.867 192.485 330.867 M192.485 327.163 Q198.295 327.163 201.351 331.77 Q204.43 336.353 204.43 345.103 Q204.43 353.83 201.351 358.436 Q198.295 363.019 192.485 363.019 Q186.675 363.019 183.596 358.436 Q180.541 353.83 180.541 345.103 Q180.541 336.353 183.596 331.77 Q186.675 327.163 192.485 327.163 Z" fill="#000000" fill-rule="evenodd" fill-opacity="1" /><path clip-path="url(#clip920)" d="M217.125 319.797 Q219.852 320.38 221.375 322.224 Q222.918 324.067 222.918 326.775 Q222.918 330.932 220.059 333.207 Q217.2 335.483 211.934 335.483 Q210.166 335.483 208.285 335.126 Q206.423 334.787 204.43 334.091 L204.43 330.424 Q206.009 331.345 207.89 331.816 Q209.771 332.286 211.821 332.286 Q215.395 332.286 217.256 330.875 Q219.137 329.465 219.137 326.775 Q219.137 324.292 217.388 322.901 Q215.658 321.49 212.555 321.49 L209.282 321.49 L209.282 318.368 L212.705 318.368 Q215.507 318.368 216.993 317.258 Q218.479 316.13 218.479 314.023 Q218.479 311.861 216.937 310.713 Q215.413 309.547 212.555 309.547 Q210.994 309.547 209.207 309.886 Q207.42 310.224 205.276 310.939 L205.276 307.554 Q207.439 306.952 209.32 306.651 Q211.219 306.35 212.893 306.35 Q217.219 306.35 219.739 308.325 Q222.259 310.281 222.259 313.628 Q222.259 315.961 220.924 317.578 Q219.589 319.177 217.125 319.797 Z" fill="#000000" fill-rule="evenodd" fill-opacity="1" /><path clip-path="url(#clip920)" d="M42.6863 890.656 L42.6863 860.609 L48.0971 860.609 L48.0971 884.226 L62.1653 884.226 L62.1653 861.596 L67.5762 861.596 L67.5762 884.226 L84.7954 884.226 L84.7954 860.037 L90.2063 860.037 L90.2063 890.656 L42.6863 890.656 Z" fill="#000000" fill-rule="evenodd" fill-opacity="1" /><path clip-path="url(#clip920)" d="M44.2459 820.983 L50.5161 820.983 Q48.7655 824.643 47.9062 827.89 Q47.0468 831.136 47.0468 834.16 Q47.0468 839.412 49.0838 842.276 Q51.1208 845.109 54.8766 845.109 Q58.0276 845.109 59.6509 843.231 Q61.2423 841.321 62.229 836.038 L63.0247 832.155 Q64.3933 824.962 67.8627 821.556 Q71.3001 818.118 77.0929 818.118 Q83.9997 818.118 87.5645 822.765 Q91.1293 827.38 91.1293 836.324 Q91.1293 839.698 90.3654 843.518 Q89.6015 847.305 88.1056 851.379 L81.4853 851.379 Q83.6814 847.464 84.7954 843.709 Q85.9094 839.953 85.9094 836.324 Q85.9094 830.818 83.7451 827.826 Q81.5808 824.834 77.5704 824.834 Q74.0692 824.834 72.0958 826.999 Q70.1225 829.131 69.1358 834.033 L68.3719 837.948 Q66.9396 845.141 63.8841 848.356 Q60.8285 851.57 55.3859 851.57 Q49.0838 851.57 45.4554 847.146 Q41.8269 842.69 41.8269 834.892 Q41.8269 831.55 42.4317 828.081 Q43.0364 824.611 44.2459 820.983 Z" fill="#000000" fill-rule="evenodd" fill-opacity="1" /><path clip-path="url(#clip920)" d="M44.2459 779.606 L50.5161 779.606 Q48.7655 783.266 47.9062 786.513 Q47.0468 789.759 47.0468 792.783 Q47.0468 798.035 49.0838 800.899 Q51.1208 803.732 54.8766 803.732 Q58.0276 803.732 59.6509 801.854 Q61.2423 799.944 62.229 794.661 L63.0247 790.778 Q64.3933 783.584 67.8627 780.179 Q71.3001 776.741 77.0929 776.741 Q83.9997 776.741 87.5645 781.388 Q91.1293 786.003 91.1293 794.947 Q91.1293 798.321 90.3654 802.14 Q89.6015 805.928 88.1056 810.002 L81.4853 810.002 Q83.6814 806.087 84.7954 802.331 Q85.9094 798.576 85.9094 794.947 Q85.9094 789.441 83.7451 786.449 Q81.5808 783.457 77.5704 783.457 Q74.0692 783.457 72.0958 785.621 Q70.1225 787.754 69.1358 792.656 L68.3719 796.57 Q66.9396 803.764 63.8841 806.978 Q60.8285 810.193 55.3859 810.193 Q49.0838 810.193 45.4554 805.769 Q41.8269 801.313 41.8269 793.515 Q41.8269 790.173 42.4317 786.704 Q43.0364 783.234 44.2459 779.606 Z" fill="#000000" fill-rule="evenodd" fill-opacity="1" /><path clip-path="url(#clip920)" d="M82.1218 765.474 L82.1218 758.758 L90.2063 758.758 L90.2063 765.474 L82.1218 765.474 M56.4999 765.474 L56.4999 758.758 L64.5843 758.758 L64.5843 765.474 L56.4999 765.474 Z" fill="#000000" fill-rule="evenodd" fill-opacity="1" /><path clip-path="url(#clip920)" d="M42.6863 724.033 L42.6863 693.987 L48.0971 693.987 L48.0971 717.604 L62.1653 717.604 L62.1653 694.974 L67.5762 694.974 L67.5762 717.604 L84.7954 717.604 L84.7954 693.414 L90.2063 693.414 L90.2063 724.033 L42.6863 724.033 Z" fill="#000000" fill-rule="evenodd" fill-opacity="1" /><path clip-path="url(#clip920)" d="M68.6902 653.469 L90.2063 653.469 L90.2063 659.326 L68.8812 659.326 Q63.8204 659.326 61.306 661.299 Q58.7915 663.273 58.7915 667.219 Q58.7915 671.962 61.8152 674.699 Q64.8389 677.436 70.0588 677.436 L90.2063 677.436 L90.2063 683.325 L54.5583 683.325 L54.5583 677.436 L60.0965 677.436 Q56.8818 675.336 55.2904 672.503 Q53.699 669.638 53.699 665.914 Q53.699 659.771 57.5184 656.62 Q61.306 653.469 68.6902 653.469 Z" fill="#000000" fill-rule="evenodd" fill-opacity="1" /><path clip-path="url(#clip920)" d="M71.9685 618.331 Q65.6028 618.331 62.1017 620.972 Q58.6006 623.582 58.6006 628.325 Q58.6006 633.035 62.1017 635.677 Q65.6028 638.287 71.9685 638.287 Q78.3024 638.287 81.8036 635.677 Q85.3047 633.035 85.3047 628.325 Q85.3047 623.582 81.8036 620.972 Q78.3024 618.331 71.9685 618.331 M85.7821 612.474 Q94.8851 612.474 99.3092 616.516 Q103.765 620.559 103.765 628.898 Q103.765 631.985 103.288 634.722 Q102.842 637.46 101.887 640.038 L96.19 640.038 Q97.5905 637.46 98.2589 634.945 Q98.9273 632.431 98.9273 629.821 Q98.9273 624.06 95.9036 621.195 Q92.9117 618.331 86.8325 618.331 L83.9361 618.331 Q87.0871 620.145 88.6467 622.978 Q90.2063 625.81 90.2063 629.757 Q90.2063 636.314 85.2092 640.324 Q80.2121 644.335 71.9685 644.335 Q63.6931 644.335 58.696 640.324 Q53.699 636.314 53.699 629.757 Q53.699 625.81 55.2586 622.978 Q56.8182 620.145 59.9692 618.331 L54.5583 618.331 L54.5583 612.474 L85.7821 612.474 Z" fill="#000000" fill-rule="evenodd" fill-opacity="1" /><path clip-path="url(#clip920)" d="M40.6811 600.411 L40.6811 594.555 L90.2063 594.555 L90.2063 600.411 L40.6811 600.411 Z" fill="#000000" fill-rule="evenodd" fill-opacity="1" /><path clip-path="url(#clip920)" d="M72.2868 566.1 Q72.2868 573.198 73.9101 575.935 Q75.5333 578.672 79.4482 578.672 Q82.5674 578.672 84.4135 576.635 Q86.2277 574.566 86.2277 571.033 Q86.2277 566.164 82.7902 563.236 Q79.3209 560.275 73.5918 560.275 L72.2868 560.275 L72.2868 566.1 M69.8679 554.419 L90.2063 554.419 L90.2063 560.275 L84.7954 560.275 Q88.0419 562.281 89.6015 565.273 Q91.1293 568.264 91.1293 572.593 Q91.1293 578.068 88.0738 581.314 Q84.9864 584.529 79.8302 584.529 Q73.8146 584.529 70.759 580.518 Q67.7035 576.476 67.7035 568.487 L67.7035 560.275 L67.1306 560.275 Q63.0884 560.275 60.8922 562.949 Q58.6642 565.591 58.6642 570.397 Q58.6642 573.452 59.3963 576.349 Q60.1283 579.245 61.5924 581.919 L56.1816 581.919 Q54.9403 578.704 54.3355 575.68 Q53.699 572.657 53.699 569.792 Q53.699 562.058 57.7094 558.238 Q61.7197 554.419 69.8679 554.419 Z" fill="#000000" fill-rule="evenodd" fill-opacity="1" /><path clip-path="url(#clip920)" d="M68.6902 512.724 L90.2063 512.724 L90.2063 518.58 L68.8812 518.58 Q63.8204 518.58 61.306 520.553 Q58.7915 522.527 58.7915 526.474 Q58.7915 531.216 61.8152 533.953 Q64.8389 536.691 70.0588 536.691 L90.2063 536.691 L90.2063 542.579 L54.5583 542.579 L54.5583 536.691 L60.0965 536.691 Q56.8818 534.59 55.2904 531.757 Q53.699 528.893 53.699 525.169 Q53.699 519.026 57.5184 515.875 Q61.306 512.724 68.6902 512.724 Z" fill="#000000" fill-rule="evenodd" fill-opacity="1" /><path clip-path="url(#clip920)" d="M59.9692 477.585 L40.6811 477.585 L40.6811 471.728 L90.2063 471.728 L90.2063 477.585 L84.8591 477.585 Q88.0419 479.431 89.6015 482.264 Q91.1293 485.065 91.1293 489.011 Q91.1293 495.473 85.9731 499.547 Q80.8169 503.589 72.4141 503.589 Q64.0114 503.589 58.8552 499.547 Q53.699 495.473 53.699 489.011 Q53.699 485.065 55.2586 482.264 Q56.7863 479.431 59.9692 477.585 M72.4141 497.541 Q78.8753 497.541 82.5674 494.9 Q86.2277 492.226 86.2277 487.579 Q86.2277 482.932 82.5674 480.259 Q78.8753 477.585 72.4141 477.585 Q65.9529 477.585 62.2927 480.259 Q58.6006 482.932 58.6006 487.579 Q58.6006 492.226 62.2927 494.9 Q65.9529 497.541 72.4141 497.541 Z" fill="#000000" fill-rule="evenodd" fill-opacity="1" /><path clip-path="url(#clip920)" d="M82.1218 458.17 L82.1218 451.454 L87.5963 451.454 L97.7815 456.674 L97.7815 460.779 L87.5963 458.17 L82.1218 458.17 Z" fill="#000000" fill-rule="evenodd" fill-opacity="1" /><path clip-path="url(#clip920)" d="M44.4369 412.432 L54.5583 412.432 L54.5583 400.369 L59.1098 400.369 L59.1098 412.432 L78.4616 412.432 Q82.8221 412.432 84.0634 411.254 Q85.3047 410.045 85.3047 406.384 L85.3047 400.369 L90.2063 400.369 L90.2063 406.384 Q90.2063 413.164 87.6918 415.742 Q85.1455 418.32 78.4616 418.32 L59.1098 418.32 L59.1098 422.617 L54.5583 422.617 L54.5583 418.32 L44.4369 418.32 L44.4369 412.432 Z" fill="#000000" fill-rule="evenodd" fill-opacity="1" /><path clip-path="url(#clip920)" d="M54.5583 392.666 L54.5583 386.81 L90.2063 386.81 L90.2063 392.666 L54.5583 392.666 M40.6811 392.666 L40.6811 386.81 L48.0971 386.81 L48.0971 392.666 L40.6811 392.666 Z" fill="#000000" fill-rule="evenodd" fill-opacity="1" /><path clip-path="url(#clip920)" d="M61.4015 346.801 Q57.4547 344.605 55.5768 341.55 Q53.699 338.494 53.699 334.357 Q53.699 328.787 57.6139 325.763 Q61.4969 322.739 68.6902 322.739 L90.2063 322.739 L90.2063 328.627 L68.8812 328.627 Q63.7568 328.627 61.2741 330.442 Q58.7915 332.256 58.7915 335.98 Q58.7915 340.531 61.8152 343.173 Q64.8389 345.815 70.0588 345.815 L90.2063 345.815 L90.2063 351.703 L68.8812 351.703 Q63.7249 351.703 61.2741 353.517 Q58.7915 355.332 58.7915 359.119 Q58.7915 363.607 61.8471 366.249 Q64.8708 368.89 70.0588 368.89 L90.2063 368.89 L90.2063 374.779 L54.5583 374.779 L54.5583 368.89 L60.0965 368.89 Q56.8182 366.885 55.2586 364.084 Q53.699 361.283 53.699 357.432 Q53.699 353.549 55.6723 350.844 Q57.6457 348.106 61.4015 346.801 Z" fill="#000000" fill-rule="evenodd" fill-opacity="1" /><path clip-path="url(#clip920)" d="M70.9182 280.566 L73.7828 280.566 L73.7828 307.493 Q79.8302 307.111 83.013 303.865 Q86.1641 300.586 86.1641 294.762 Q86.1641 291.388 85.3365 288.237 Q84.509 285.054 82.8539 281.935 L88.3921 281.935 Q89.7289 285.086 90.4291 288.396 Q91.1293 291.706 91.1293 295.112 Q91.1293 303.642 86.1641 308.639 Q81.1988 313.604 72.7324 313.604 Q63.9796 313.604 58.8552 308.894 Q53.699 304.151 53.699 296.13 Q53.699 288.937 58.3459 284.768 Q62.9611 280.566 70.9182 280.566 M69.1995 286.423 Q64.3933 286.486 61.5288 289.128 Q58.6642 291.738 58.6642 296.067 Q58.6642 300.968 61.4333 303.928 Q64.2024 306.857 69.2313 307.302 L69.1995 286.423 Z" fill="#000000" fill-rule="evenodd" fill-opacity="1" /><path clip-path="url(#clip920)" d="M82.1218 269.458 L82.1218 262.742 L90.2063 262.742 L90.2063 269.458 L82.1218 269.458 M56.4999 269.458 L56.4999 262.742 L64.5843 262.742 L64.5843 269.458 L56.4999 269.458 Z" fill="#000000" fill-rule="evenodd" fill-opacity="1" /><path clip-path="url(#clip920)" d="M84.7954 247.051 L84.7954 236.547 L48.5427 236.547 L50.8344 247.974 L44.9779 247.974 L42.6863 236.611 L42.6863 230.182 L84.7954 230.182 L84.7954 219.678 L90.2063 219.678 L90.2063 247.051 L84.7954 247.051 Z" fill="#000000" fill-rule="evenodd" fill-opacity="1" /><polyline clip-path="url(#clip922)" style="stroke:#009af9; stroke-linecap:round; stroke-linejoin:round; stroke-width:4; stroke-opacity:1; fill:none" points="
  350.696,374.085 359.387,181.718 368.077,189.299 376.768,146.947 385.458,181.838 394.149,149.147 402.839,150.998 411.53,170.582 420.22,139.077 428.911,137.388 
  437.601,152.391 446.292,190.246 454.982,217.647 463.673,148.531 472.363,153.515 481.054,221.004 489.744,147.922 498.435,153.603 507.125,177.705 515.816,132.578 
  524.506,185.124 533.197,202.807 541.887,209.429 550.577,192.425 559.268,197.273 567.958,146.2 576.649,204.683 585.339,153.072 594.03,174.905 602.72,167.399 
  611.411,196.593 620.101,159.248 628.792,155.537 637.482,161.709 646.173,150.936 654.863,193.059 663.554,145.65 672.244,142.461 680.935,140.036 689.625,159.683 
  698.316,143.703 707.006,139.114 715.697,144.814 724.387,110.236 733.078,183.079 741.768,157.474 750.459,173.913 759.149,145.718 767.84,145.343 776.53,162.373 
  785.221,158.901 793.911,155.239 802.602,145.52 811.292,162.858 819.983,208.299 828.673,167.752 837.364,148.93 846.054,133.864 854.745,169.996 863.435,208.296 
  872.125,203.323 880.816,137.845 889.506,190.386 898.197,148.3 906.887,181.539 915.578,132.994 924.268,163.519 932.959,184.92 941.649,160.851 950.34,134.858 
  959.03,165.715 967.721,133.012 976.411,165.766 985.102,169.339 993.792,174.962 1002.48,184.33 1011.17,140 1019.86,170.003 1028.55,145.41 1037.24,178.403 
  1045.94,158.131 1054.63,230.087 1063.32,176.479 1072.01,125.343 1080.7,197.574 1089.39,152.553 1098.08,138.384 1106.77,197.666 1115.46,168.422 1124.15,131.608 
  1132.84,169.747 1141.53,141.222 1150.22,150.818 1158.91,153.709 1167.6,177.764 1176.29,146.75 1184.98,161.569 1193.67,195.859 1202.36,180.523 1211.05,163.61 
  1219.74,161.386 1228.44,171.868 1237.13,133.133 1245.82,213.342 1254.51,211.147 1263.2,163.21 1271.89,171.315 1280.58,186.742 1289.27,204.967 1297.96,161.921 
  1306.65,181.718 1315.34,179.736 1324.03,153.9 1332.72,159.276 1341.41,148.599 1350.1,198.109 1358.79,145.451 1367.48,187.968 1376.17,200.706 1384.86,222.926 
  1393.55,177.26 1402.25,128.402 1410.94,181.065 1419.63,120.376 1428.32,180.139 1437.01,202.48 1445.7,169.243 1454.39,153.428 1463.08,198.447 1471.77,167.781 
  1480.46,155.792 1489.15,216.229 1497.84,136.375 1506.53,131.926 1515.22,188.355 1523.91,159.615 1532.6,185.101 1541.29,160.531 1549.98,134.621 1558.67,115.631 
  1567.36,178.973 1576.05,180.15 1584.75,169.694 1593.44,157.992 1602.13,142.246 1610.82,165.423 1619.51,206.348 1628.2,149.977 1636.89,152.238 1645.58,147.9 
  1654.27,152.205 1662.96,165.457 1671.65,161.604 1680.34,192.215 1689.03,186.177 1697.72,167.192 1706.41,222.484 1715.1,214.801 1723.79,154.868 1732.48,171.685 
  1741.17,181.408 1749.86,161.85 1758.56,216.938 1767.25,191.681 1775.94,188.915 1784.63,161.203 1793.32,227.805 1802.01,226.86 1810.7,193.173 1819.39,132.625 
  1828.08,215.831 1836.77,126.921 1845.46,143.526 1854.15,231.57 1862.84,130.262 1871.53,146.028 1880.22,158.558 1888.91,222.97 1897.6,143.835 1906.29,150.545 
  1914.98,133.267 1923.67,149.216 1932.36,132.823 1941.06,151.792 1949.75,177.607 1958.44,111.161 1967.13,130.793 1975.82,141.628 1984.51,175.593 1993.2,192.056 
  2001.89,146.315 2010.58,140.722 2019.27,171.58 2027.96,172.304 2036.65,170.656 2045.34,164.799 2054.03,174.619 2062.72,157.742 2071.41,198.336 2080.1,195.483 
  2088.79,168.447 2097.48,225.567 2106.17,230.491 2114.87,184.343 2123.56,201.321 2132.25,225.635 2140.94,181.062 2149.63,225.148 2158.32,179.782 2167.01,222.664 
  2175.7,169.45 2184.39,197.729 2193.08,190.865 2201.77,132.242 2210.46,173.207 2219.15,116.596 2227.84,227.767 2236.53,237.5 2245.22,197.413 2253.91,172.643 
  2262.6,158.088 2271.29,114.898 2279.98,120.729 2288.67,146.558 2297.37,176.221 2306.06,175.603 2314.75,131.317 2323.44,234.154 2332.13,186.394 2340.82,205.966 
  2349.51,129.349 2358.2,199.088 2366.89,167.666 2375.58,206.039 2384.27,186.719 2392.96,138.848 2401.65,154.01 2410.34,121.6 2419.03,214.976 2427.72,197.969 
  2436.41,161.377 2445.1,207.039 2453.79,140.853 2462.48,148.526 2471.17,213.417 2479.87,216.555 2488.56,195.596 2497.25,213.796 2505.94,121.665 2514.63,158.909 
  2523.32,205.943 2532.01,218.984 2540.7,136.545 2549.39,157.218 2558.08,199.989 2566.77,161.466 2575.46,141.879 2584.15,236.814 2592.84,185.565 2601.53,181.039 
  2610.22,220.538 2618.91,152.031 2627.6,178.259 2636.29,199.786 2644.98,200.604 2653.68,167.133 2662.37,292.868 2671.06,167.348 2679.75,179.182 2688.44,176.928 
  2697.13,152.893 2705.82,194.072 2714.51,194.819 2723.2,210.211 2731.89,188.584 2740.58,201.369 2749.27,173.55 2757.96,247.71 2766.65,203.338 2775.34,163.872 
  2784.03,175.186 2792.72,148.373 2801.41,221.456 2810.1,153.89 2818.79,219.498 2827.48,202.748 2836.18,191.122 2844.87,198.705 2853.56,223.158 2862.25,186.352 
  2870.94,222.375 2879.63,176.746 2888.32,212.018 2897.01,205.757 2905.7,143.874 2914.39,168.596 2923.08,160.279 2931.77,204.677 2940.46,266.33 2949.15,186.422 
  2957.84,193.473 2966.53,211.715 2975.22,201.224 2983.91,175.724 2992.6,178.842 3001.29,230.365 3009.99,163.921 
  "/>
</svg>
