<?xml version="1.0" encoding="utf-8"?>
<svg xmlns="http://www.w3.org/2000/svg" xmlns:xlink="http://www.w3.org/1999/xlink" width="800" height="300" viewBox="0 0 3200 1200">
<defs>
  <clipPath id="clip920">
    <rect x="0" y="0" width="3200" height="1200"/>
  </clipPath>
</defs>
<path clip-path="url(#clip920)" d="M0 1200 L3200 1200 L3200 0 L0 0  Z" fill="#ffffff" fill-rule="evenodd" fill-opacity="1"/>
<defs>
  <clipPath id="clip921">
    <rect x="640" y="0" width="2241" height="1200"/>
  </clipPath>
</defs>
<path clip-path="url(#clip920)" d="M270.918 1000.1 L3089.76 1000.1 L3089.76 110.236 L270.918 110.236  Z" fill="#ffffff" fill-rule="evenodd" fill-opacity="1"/>
<defs>
  <clipPath id="clip922">
    <rect x="270" y="110" width="2820" height="891"/>
  </clipPath>
</defs>
<polyline clip-path="url(#clip922)" style="stroke:#000000; stroke-linecap:round; stroke-linejoin:round; stroke-width:2; stroke-opacity:0.1; fill:none" points="331.836,1000.1 331.836,110.236 "/>
<polyline clip-path="url(#clip922)" style="stroke:#000000; stroke-linecap:round; stroke-linejoin:round; stroke-width:2; stroke-opacity:0.1; fill:none" points="803.341,1000.1 803.341,110.236 "/>
<polyline clip-path="url(#clip922)" style="stroke:#000000; stroke-linecap:round; stroke-linejoin:round; stroke-width:2; stroke-opacity:0.1; fill:none" points="1274.85,1000.1 1274.85,110.236 "/>
<polyline clip-path="url(#clip922)" style="stroke:#000000; stroke-linecap:round; stroke-linejoin:round; stroke-width:2; stroke-opacity:0.1; fill:none" points="1746.35,1000.1 1746.35,110.236 "/>
<polyline clip-path="url(#clip922)" style="stroke:#000000; stroke-linecap:round; stroke-linejoin:round; stroke-width:2; stroke-opacity:0.1; fill:none" points="2217.86,1000.1 2217.86,110.236 "/>
<polyline clip-path="url(#clip922)" style="stroke:#000000; stroke-linecap:round; stroke-linejoin:round; stroke-width:2; stroke-opacity:0.1; fill:none" points="2689.36,1000.1 2689.36,110.236 "/>
<polyline clip-path="url(#clip920)" style="stroke:#000000; stroke-linecap:round; stroke-linejoin:round; stroke-width:4; stroke-opacity:1; fill:none" points="270.918,1000.1 3089.76,1000.1 "/>
<polyline clip-path="url(#clip920)" style="stroke:#000000; stroke-linecap:round; stroke-linejoin:round; stroke-width:4; stroke-opacity:1; fill:none" points="331.836,1000.1 331.836,981.2 "/>
<polyline clip-path="url(#clip920)" style="stroke:#000000; stroke-linecap:round; stroke-linejoin:round; stroke-width:4; stroke-opacity:1; fill:none" points="803.341,1000.1 803.341,981.2 "/>
<polyline clip-path="url(#clip920)" style="stroke:#000000; stroke-linecap:round; stroke-linejoin:round; stroke-width:4; stroke-opacity:1; fill:none" points="1274.85,1000.1 1274.85,981.2 "/>
<polyline clip-path="url(#clip920)" style="stroke:#000000; stroke-linecap:round; stroke-linejoin:round; stroke-width:4; stroke-opacity:1; fill:none" points="1746.35,1000.1 1746.35,981.2 "/>
<polyline clip-path="url(#clip920)" style="stroke:#000000; stroke-linecap:round; stroke-linejoin:round; stroke-width:4; stroke-opacity:1; fill:none" points="2217.86,1000.1 2217.86,981.2 "/>
<polyline clip-path="url(#clip920)" style="stroke:#000000; stroke-linecap:round; stroke-linejoin:round; stroke-width:4; stroke-opacity:1; fill:none" points="2689.36,1000.1 2689.36,981.2 "/>
<path clip-path="url(#clip920)" d="M331.836 1037.42 Q328.225 1037.42 326.396 1040.98 Q324.591 1044.52 324.591 1051.65 Q324.591 1058.76 326.396 1062.32 Q328.225 1065.87 331.836 1065.87 Q335.47 1065.87 337.276 1062.32 Q339.105 1058.76 339.105 1051.65 Q339.105 1044.52 337.276 1040.98 Q335.47 1037.42 331.836 1037.42 M331.836 1033.71 Q337.646 1033.71 340.702 1038.32 Q343.78 1042.9 343.78 1051.65 Q343.78 1060.38 340.702 1064.99 Q337.646 1069.57 331.836 1069.57 Q326.026 1069.57 322.947 1064.99 Q319.892 1060.38 319.892 1051.65 Q319.892 1042.9 322.947 1038.32 Q326.026 1033.71 331.836 1033.71 Z" fill="#000000" fill-rule="nonzero" fill-opacity="1" /><path clip-path="url(#clip920)" d="M782.612 1064.96 L798.932 1064.96 L798.932 1068.9 L776.987 1068.9 L776.987 1064.96 Q779.649 1062.21 784.233 1057.58 Q788.839 1052.93 790.02 1051.58 Q792.265 1049.06 793.144 1047.32 Q794.047 1045.56 794.047 1043.87 Q794.047 1041.12 792.103 1039.38 Q790.182 1037.65 787.08 1037.65 Q784.881 1037.65 782.427 1038.41 Q779.996 1039.18 777.219 1040.73 L777.219 1036 Q780.043 1034.87 782.496 1034.29 Q784.95 1033.71 786.987 1033.71 Q792.357 1033.71 795.552 1036.4 Q798.746 1039.08 798.746 1043.57 Q798.746 1045.7 797.936 1047.62 Q797.149 1049.52 795.043 1052.12 Q794.464 1052.79 791.362 1056 Q788.26 1059.2 782.612 1064.96 Z" fill="#000000" fill-rule="nonzero" fill-opacity="1" /><path clip-path="url(#clip920)" d="M808.793 1034.34 L827.149 1034.34 L827.149 1038.27 L813.075 1038.27 L813.075 1046.75 Q814.093 1046.4 815.112 1046.24 Q816.13 1046.05 817.149 1046.05 Q822.936 1046.05 826.316 1049.22 Q829.695 1052.39 829.695 1057.81 Q829.695 1063.39 826.223 1066.49 Q822.751 1069.57 816.431 1069.57 Q814.255 1069.57 811.987 1069.2 Q809.742 1068.83 807.334 1068.09 L807.334 1063.39 Q809.418 1064.52 811.64 1065.08 Q813.862 1065.63 816.339 1065.63 Q820.343 1065.63 822.681 1063.53 Q825.019 1061.42 825.019 1057.81 Q825.019 1054.2 822.681 1052.09 Q820.343 1049.99 816.339 1049.99 Q814.464 1049.99 812.589 1050.4 Q810.737 1050.82 808.793 1051.7 L808.793 1034.34 Z" fill="#000000" fill-rule="nonzero" fill-opacity="1" /><path clip-path="url(#clip920)" d="M1249.55 1034.34 L1267.9 1034.34 L1267.9 1038.27 L1253.83 1038.27 L1253.83 1046.75 Q1254.85 1046.4 1255.86 1046.24 Q1256.88 1046.05 1257.9 1046.05 Q1263.69 1046.05 1267.07 1049.22 Q1270.45 1052.39 1270.45 1057.81 Q1270.45 1063.39 1266.98 1066.49 Q1263.5 1069.57 1257.18 1069.57 Q1255.01 1069.57 1252.74 1069.2 Q1250.49 1068.83 1248.09 1068.09 L1248.09 1063.39 Q1250.17 1064.52 1252.39 1065.08 Q1254.61 1065.63 1257.09 1065.63 Q1261.1 1065.63 1263.43 1063.53 Q1265.77 1061.42 1265.77 1057.81 Q1265.77 1054.2 1263.43 1052.09 Q1261.1 1049.99 1257.09 1049.99 Q1255.22 1049.99 1253.34 1050.4 Q1251.49 1050.82 1249.55 1051.7 L1249.55 1034.34 Z" fill="#000000" fill-rule="nonzero" fill-opacity="1" /><path clip-path="url(#clip920)" d="M1289.66 1037.42 Q1286.05 1037.42 1284.22 1040.98 Q1282.42 1044.52 1282.42 1051.65 Q1282.42 1058.76 1284.22 1062.32 Q1286.05 1065.87 1289.66 1065.87 Q1293.3 1065.87 1295.1 1062.32 Q1296.93 1058.76 1296.93 1051.65 Q1296.93 1044.52 1295.1 1040.98 Q1293.3 1037.42 1289.66 1037.42 M1289.66 1033.71 Q1295.47 1033.71 1298.53 1038.32 Q1301.61 1042.9 1301.61 1051.65 Q1301.61 1060.38 1298.53 1064.99 Q1295.47 1069.57 1289.66 1069.57 Q1283.85 1069.57 1280.77 1064.99 Q1277.72 1060.38 1277.72 1051.65 Q1277.72 1042.9 1280.77 1038.32 Q1283.85 1033.71 1289.66 1033.71 Z" fill="#000000" fill-rule="nonzero" fill-opacity="1" /><path clip-path="url(#clip920)" d="M1720.21 1034.34 L1742.43 1034.34 L1742.43 1036.33 L1729.88 1068.9 L1725 1068.9 L1736.8 1038.27 L1720.21 1038.27 L1720.21 1034.34 Z" fill="#000000" fill-rule="nonzero" fill-opacity="1" /><path clip-path="url(#clip920)" d="M1751.59 1034.34 L1769.95 1034.34 L1769.95 1038.27 L1755.88 1038.27 L1755.88 1046.75 Q1756.9 1046.4 1757.91 1046.24 Q1758.93 1046.05 1759.95 1046.05 Q1765.74 1046.05 1769.12 1049.22 Q1772.5 1052.39 1772.5 1057.81 Q1772.5 1063.39 1769.02 1066.49 Q1765.55 1069.57 1759.23 1069.57 Q1757.06 1069.57 1754.79 1069.2 Q1752.54 1068.83 1750.14 1068.09 L1750.14 1063.39 Q1752.22 1064.52 1754.44 1065.08 Q1756.66 1065.63 1759.14 1065.63 Q1763.15 1065.63 1765.48 1063.53 Q1767.82 1061.42 1767.82 1057.81 Q1767.82 1054.2 1765.48 1052.09 Q1763.15 1049.99 1759.14 1049.99 Q1757.27 1049.99 1755.39 1050.4 Q1753.54 1050.82 1751.59 1051.7 L1751.59 1034.34 Z" fill="#000000" fill-rule="nonzero" fill-opacity="1" /><path clip-path="url(#clip920)" d="M2177.46 1064.96 L2185.1 1064.96 L2185.1 1038.6 L2176.79 1040.26 L2176.79 1036 L2185.06 1034.34 L2189.73 1034.34 L2189.73 1064.96 L2197.37 1064.96 L2197.37 1068.9 L2177.46 1068.9 L2177.46 1064.96 Z" fill="#000000" fill-rule="nonzero" fill-opacity="1" /><path clip-path="url(#clip920)" d="M2216.81 1037.42 Q2213.2 1037.42 2211.38 1040.98 Q2209.57 1044.52 2209.57 1051.65 Q2209.57 1058.76 2211.38 1062.32 Q2213.2 1065.87 2216.81 1065.87 Q2220.45 1065.87 2222.25 1062.32 Q2224.08 1058.76 2224.08 1051.65 Q2224.08 1044.52 2222.25 1040.98 Q2220.45 1037.42 2216.81 1037.42 M2216.81 1033.71 Q2222.63 1033.71 2225.68 1038.32 Q2228.76 1042.9 2228.76 1051.65 Q2228.76 1060.38 2225.68 1064.99 Q2222.63 1069.57 2216.81 1069.57 Q2211 1069.57 2207.93 1064.99 Q2204.87 1060.38 2204.87 1051.65 Q2204.87 1042.9 2207.93 1038.32 Q2211 1033.71 2216.81 1033.71 Z" fill="#000000" fill-rule="nonzero" fill-opacity="1" /><path clip-path="url(#clip920)" d="M2246.98 1037.42 Q2243.37 1037.42 2241.54 1040.98 Q2239.73 1044.52 2239.73 1051.65 Q2239.73 1058.76 2241.54 1062.32 Q2243.37 1065.87 2246.98 1065.87 Q2250.61 1065.87 2252.42 1062.32 Q2254.25 1058.76 2254.25 1051.65 Q2254.25 1044.52 2252.42 1040.98 Q2250.61 1037.42 2246.98 1037.42 M2246.98 1033.71 Q2252.79 1033.71 2255.84 1038.32 Q2258.92 1042.9 2258.92 1051.65 Q2258.92 1060.38 2255.84 1064.99 Q2252.79 1069.57 2246.98 1069.57 Q2241.17 1069.57 2238.09 1064.99 Q2235.03 1060.38 2235.03 1051.65 Q2235.03 1042.9 2238.09 1038.32 Q2241.17 1033.71 2246.98 1033.71 Z" fill="#000000" fill-rule="nonzero" fill-opacity="1" /><path clip-path="url(#clip920)" d="M2649.47 1064.96 L2657.1 1064.96 L2657.1 1038.6 L2648.79 1040.26 L2648.79 1036 L2657.06 1034.34 L2661.73 1034.34 L2661.73 1064.96 L2669.37 1064.96 L2669.37 1068.9 L2649.47 1068.9 L2649.47 1064.96 Z" fill="#000000" fill-rule="nonzero" fill-opacity="1" /><path clip-path="url(#clip920)" d="M2682.85 1064.96 L2699.16 1064.96 L2699.16 1068.9 L2677.22 1068.9 L2677.22 1064.96 Q2679.88 1062.21 2684.47 1057.58 Q2689.07 1052.93 2690.25 1051.58 Q2692.5 1049.06 2693.38 1047.32 Q2694.28 1045.56 2694.28 1043.87 Q2694.28 1041.12 2692.34 1039.38 Q2690.41 1037.65 2687.31 1037.65 Q2685.11 1037.65 2682.66 1038.41 Q2680.23 1039.18 2677.45 1040.73 L2677.45 1036 Q2680.28 1034.87 2682.73 1034.29 Q2685.18 1033.71 2687.22 1033.71 Q2692.59 1033.71 2695.79 1036.4 Q2698.98 1039.08 2698.98 1043.57 Q2698.98 1045.7 2698.17 1047.62 Q2697.38 1049.52 2695.28 1052.12 Q2694.7 1052.79 2691.6 1056 Q2688.49 1059.2 2682.85 1064.96 Z" fill="#000000" fill-rule="nonzero" fill-opacity="1" /><path clip-path="url(#clip920)" d="M2709.03 1034.34 L2727.38 1034.34 L2727.38 1038.27 L2713.31 1038.27 L2713.31 1046.75 Q2714.33 1046.4 2715.35 1046.24 Q2716.36 1046.05 2717.38 1046.05 Q2723.17 1046.05 2726.55 1049.22 Q2729.93 1052.39 2729.93 1057.81 Q2729.93 1063.39 2726.46 1066.49 Q2722.98 1069.57 2716.66 1069.57 Q2714.49 1069.57 2712.22 1069.2 Q2709.97 1068.83 2707.57 1068.09 L2707.57 1063.39 Q2709.65 1064.52 2711.87 1065.08 Q2714.1 1065.63 2716.57 1065.63 Q2720.58 1065.63 2722.91 1063.53 Q2725.25 1061.42 2725.25 1057.81 Q2725.25 1054.2 2722.91 1052.09 Q2720.58 1049.99 2716.57 1049.99 Q2714.7 1049.99 2712.82 1050.4 Q2710.97 1050.82 2709.03 1051.7 L2709.03 1034.34 Z" fill="#000000" fill-rule="nonzero" fill-opacity="1" /><path clip-path="url(#clip920)" d="M1556.64 1109.44 L1563.07 1109.44 L1563.07 1151.55 L1586.21 1151.55 L1586.21 1156.96 L1556.64 1156.96 L1556.64 1109.44 Z" fill="#000000" fill-rule="nonzero" fill-opacity="1" /><path clip-path="url(#clip920)" d="M1592.7 1121.31 L1598.56 1121.31 L1598.56 1156.96 L1592.7 1156.96 L1592.7 1121.31 M1592.7 1107.44 L1598.56 1107.44 L1598.56 1114.85 L1592.7 1114.85 L1592.7 1107.44 Z" fill="#000000" fill-rule="nonzero" fill-opacity="1" /><path clip-path="url(#clip920)" d="M1640.44 1135.45 L1640.44 1156.96 L1634.59 1156.96 L1634.59 1135.64 Q1634.59 1130.58 1632.61 1128.06 Q1630.64 1125.55 1626.69 1125.55 Q1621.95 1125.55 1619.21 1128.57 Q1616.48 1131.59 1616.48 1136.81 L1616.48 1156.96 L1610.59 1156.96 L1610.59 1121.31 L1616.48 1121.31 L1616.48 1126.85 Q1618.58 1123.64 1621.41 1122.05 Q1624.27 1120.45 1628 1120.45 Q1634.14 1120.45 1637.29 1124.27 Q1640.44 1128.06 1640.44 1135.45 Z" fill="#000000" fill-rule="nonzero" fill-opacity="1" /><path clip-path="url(#clip920)" d="M1682.62 1137.67 L1682.62 1140.54 L1655.69 1140.54 Q1656.07 1146.59 1659.32 1149.77 Q1662.6 1152.92 1668.42 1152.92 Q1671.79 1152.92 1674.95 1152.09 Q1678.13 1151.26 1681.25 1149.61 L1681.25 1155.15 Q1678.1 1156.48 1674.79 1157.18 Q1671.48 1157.88 1668.07 1157.88 Q1659.54 1157.88 1654.54 1152.92 Q1649.58 1147.95 1649.58 1139.49 Q1649.58 1130.74 1654.29 1125.61 Q1659.03 1120.45 1667.05 1120.45 Q1674.25 1120.45 1678.42 1125.1 Q1682.62 1129.72 1682.62 1137.67 M1676.76 1135.95 Q1676.7 1131.15 1674.05 1128.28 Q1671.44 1125.42 1667.12 1125.42 Q1662.21 1125.42 1659.25 1128.19 Q1656.33 1130.96 1655.88 1135.99 L1676.76 1135.95 Z" fill="#000000" fill-rule="nonzero" fill-opacity="1" /><path clip-path="url(#clip920)" d="M1708.43 1139.04 Q1701.33 1139.04 1698.59 1140.67 Q1695.86 1142.29 1695.86 1146.2 Q1695.86 1149.32 1697.89 1151.17 Q1699.96 1152.98 1703.5 1152.98 Q1708.37 1152.98 1711.29 1149.55 Q1714.25 1146.08 1714.25 1140.35 L1714.25 1139.04 L1708.43 1139.04 M1720.11 1136.62 L1720.11 1156.96 L1714.25 1156.96 L1714.25 1151.55 Q1712.25 1154.8 1709.26 1156.36 Q1706.27 1157.88 1701.94 1157.88 Q1696.46 1157.88 1693.22 1154.83 Q1690 1151.74 1690 1146.59 Q1690 1140.57 1694.01 1137.51 Q1698.05 1134.46 1706.04 1134.46 L1714.25 1134.46 L1714.25 1133.89 Q1714.25 1129.84 1711.58 1127.65 Q1708.94 1125.42 1704.13 1125.42 Q1701.08 1125.42 1698.18 1126.15 Q1695.28 1126.88 1692.61 1128.35 L1692.61 1122.94 Q1695.83 1121.7 1698.85 1121.09 Q1701.87 1120.45 1704.74 1120.45 Q1712.47 1120.45 1716.29 1124.46 Q1720.11 1128.48 1720.11 1136.62 Z" fill="#000000" fill-rule="nonzero" fill-opacity="1" /><path clip-path="url(#clip920)" d="M1755.63 1138.72 Q1755.63 1132.36 1752.99 1128.86 Q1750.38 1125.36 1745.64 1125.36 Q1740.93 1125.36 1738.28 1128.86 Q1735.67 1132.36 1735.67 1138.72 Q1735.67 1145.06 1738.28 1148.56 Q1740.93 1152.06 1745.64 1152.06 Q1750.38 1152.06 1752.99 1148.56 Q1755.63 1145.06 1755.63 1138.72 M1761.49 1152.54 Q1761.49 1161.64 1757.45 1166.06 Q1753.4 1170.52 1745.06 1170.52 Q1741.98 1170.52 1739.24 1170.04 Q1736.5 1169.6 1733.92 1168.64 L1733.92 1162.95 Q1736.5 1164.35 1739.02 1165.01 Q1741.53 1165.68 1744.14 1165.68 Q1749.9 1165.68 1752.77 1162.66 Q1755.63 1159.67 1755.63 1153.59 L1755.63 1150.69 Q1753.82 1153.84 1750.98 1155.4 Q1748.15 1156.96 1744.2 1156.96 Q1737.65 1156.96 1733.64 1151.96 Q1729.63 1146.97 1729.63 1138.72 Q1729.63 1130.45 1733.64 1125.45 Q1737.65 1120.45 1744.2 1120.45 Q1748.15 1120.45 1750.98 1122.01 Q1753.82 1123.57 1755.63 1126.72 L1755.63 1121.31 L1761.49 1121.31 L1761.49 1152.54 Z" fill="#000000" fill-rule="nonzero" fill-opacity="1" /><path clip-path="url(#clip920)" d="M1804.04 1137.67 L1804.04 1140.54 L1777.12 1140.54 Q1777.5 1146.59 1780.74 1149.77 Q1784.02 1152.92 1789.85 1152.92 Q1793.22 1152.92 1796.37 1152.09 Q1799.55 1151.26 1802.67 1149.61 L1802.67 1155.15 Q1799.52 1156.48 1796.21 1157.18 Q1792.9 1157.88 1789.5 1157.88 Q1780.97 1157.88 1775.97 1152.92 Q1771 1147.95 1771 1139.49 Q1771 1130.74 1775.71 1125.61 Q1780.46 1120.45 1788.48 1120.45 Q1795.67 1120.45 1799.84 1125.1 Q1804.04 1129.72 1804.04 1137.67 M1798.19 1135.95 Q1798.12 1131.15 1795.48 1128.28 Q1792.87 1125.42 1788.54 1125.42 Q1783.64 1125.42 1780.68 1128.19 Q1777.75 1130.96 1777.31 1135.99 L1798.19 1135.95 Z" fill="#000000" fill-rule="nonzero" fill-opacity="1" /><polyline clip-path="url(#clip922)" style="stroke:#000000; stroke-linecap:round; stroke-linejoin:round; stroke-width:2; stroke-opacity:0.1; fill:none" points="270.918,1000.1 3089.76,1000.1 "/>
<polyline clip-path="url(#clip922)" style="stroke:#000000; stroke-linecap:round; stroke-linejoin:round; stroke-width:2; stroke-opacity:0.1; fill:none" points="270.918,633.369 3089.76,633.369 "/>
<polyline clip-path="url(#clip922)" style="stroke:#000000; stroke-linecap:round; stroke-linejoin:round; stroke-width:2; stroke-opacity:0.1; fill:none" points="270.918,266.64 3089.76,266.64 "/>
<polyline clip-path="url(#clip920)" style="stroke:#000000; stroke-linecap:round; stroke-linejoin:round; stroke-width:4; stroke-opacity:1; fill:none" points="270.918,1000.1 270.918,110.236 "/>
<polyline clip-path="url(#clip920)" style="stroke:#000000; stroke-linecap:round; stroke-linejoin:round; stroke-width:4; stroke-opacity:1; fill:none" points="270.918,1000.1 289.815,1000.1 "/>
<polyline clip-path="url(#clip920)" style="stroke:#000000; stroke-linecap:round; stroke-linejoin:round; stroke-width:4; stroke-opacity:1; fill:none" points="270.918,633.369 289.815,633.369 "/>
<polyline clip-path="url(#clip920)" style="stroke:#000000; stroke-linecap:round; stroke-linejoin:round; stroke-width:4; stroke-opacity:1; fill:none" points="270.918,266.64 289.815,266.64 "/>
<path clip-path="url(#clip920)" d="M154.902 1019.89 L162.54 1019.89 L162.54 993.525 L154.23 995.191 L154.23 990.932 L162.494 989.265 L167.17 989.265 L167.17 1019.89 L174.809 1019.89 L174.809 1023.83 L154.902 1023.83 L154.902 1019.89 Z" fill="#000000" fill-rule="nonzero" fill-opacity="1" /><path clip-path="url(#clip920)" d="M194.253 992.344 Q190.642 992.344 188.813 995.909 Q187.008 999.45 187.008 1006.58 Q187.008 1013.69 188.813 1017.25 Q190.642 1020.79 194.253 1020.79 Q197.887 1020.79 199.693 1017.25 Q201.522 1013.69 201.522 1006.58 Q201.522 999.45 199.693 995.909 Q197.887 992.344 194.253 992.344 M194.253 988.64 Q200.063 988.64 203.119 993.247 Q206.198 997.83 206.198 1006.58 Q206.198 1015.31 203.119 1019.91 Q200.063 1024.5 194.253 1024.5 Q188.443 1024.5 185.364 1019.91 Q182.309 1015.31 182.309 1006.58 Q182.309 997.83 185.364 993.247 Q188.443 988.64 194.253 988.64 Z" fill="#000000" fill-rule="nonzero" fill-opacity="1" /><path clip-path="url(#clip920)" d="M206.743 993.218 L212.95 993.218 L212.95 971.796 L206.198 973.15 L206.198 969.689 L212.912 968.335 L216.711 968.335 L216.711 993.218 L222.918 993.218 L222.918 996.415 L206.743 996.415 L206.743 993.218 Z" fill="#000000" fill-rule="nonzero" fill-opacity="1" /><path clip-path="url(#clip920)" d="M153.792 653.161 L161.431 653.161 L161.431 626.796 L153.121 628.463 L153.121 624.203 L161.384 622.537 L166.06 622.537 L166.06 653.161 L173.699 653.161 L173.699 657.097 L153.792 657.097 L153.792 653.161 Z" fill="#000000" fill-rule="nonzero" fill-opacity="1" /><path clip-path="url(#clip920)" d="M193.143 625.615 Q189.532 625.615 187.704 629.18 Q185.898 632.722 185.898 639.851 Q185.898 646.958 187.704 650.523 Q189.532 654.064 193.143 654.064 Q196.778 654.064 198.583 650.523 Q200.412 646.958 200.412 639.851 Q200.412 632.722 198.583 629.18 Q196.778 625.615 193.143 625.615 M193.143 621.912 Q198.954 621.912 202.009 626.518 Q205.088 631.101 205.088 639.851 Q205.088 648.578 202.009 653.185 Q198.954 657.768 193.143 657.768 Q187.333 657.768 184.255 653.185 Q181.199 648.578 181.199 639.851 Q181.199 631.101 184.255 626.518 Q187.333 621.912 193.143 621.912 Z" fill="#000000" fill-rule="nonzero" fill-opacity="1" /><path clip-path="url(#clip920)" d="M209.658 626.489 L222.918 626.489 L222.918 629.686 L205.088 629.686 L205.088 626.489 Q207.251 624.251 210.975 620.489 Q214.717 616.709 215.677 615.618 Q217.501 613.568 218.216 612.157 Q218.949 610.728 218.949 609.355 Q218.949 607.117 217.369 605.706 Q215.808 604.296 213.288 604.296 Q211.501 604.296 209.508 604.916 Q207.533 605.537 205.276 606.797 L205.276 602.96 Q207.57 602.039 209.564 601.569 Q211.558 601.098 213.213 601.098 Q217.576 601.098 220.172 603.28 Q222.767 605.462 222.767 609.111 Q222.767 610.841 222.109 612.402 Q221.469 613.944 219.758 616.051 Q219.288 616.596 216.767 619.21 Q214.247 621.806 209.658 626.489 Z" fill="#000000" fill-rule="nonzero" fill-opacity="1" /><path clip-path="url(#clip920)" d="M153.134 286.433 L160.772 286.433 L160.772 260.067 L152.462 261.734 L152.462 257.475 L160.726 255.808 L165.402 255.808 L165.402 286.433 L173.041 286.433 L173.041 290.368 L153.134 290.368 L153.134 286.433 Z" fill="#000000" fill-rule="nonzero" fill-opacity="1" /><path clip-path="url(#clip920)" d="M192.485 258.887 Q188.874 258.887 187.045 262.451 Q185.24 265.993 185.24 273.123 Q185.24 280.229 187.045 283.794 Q188.874 287.336 192.485 287.336 Q196.119 287.336 197.925 283.794 Q199.754 280.229 199.754 273.123 Q199.754 265.993 197.925 262.451 Q196.119 258.887 192.485 258.887 M192.485 255.183 Q198.295 255.183 201.351 259.789 Q204.43 264.373 204.43 273.123 Q204.43 281.849 201.351 286.456 Q198.295 291.039 192.485 291.039 Q186.675 291.039 183.596 286.456 Q180.541 281.849 180.541 273.123 Q180.541 264.373 183.596 259.789 Q186.675 255.183 192.485 255.183 Z" fill="#000000" fill-rule="nonzero" fill-opacity="1" /><path clip-path="url(#clip920)" d="M217.125 247.817 Q219.852 248.4 221.375 250.243 Q222.918 252.087 222.918 254.795 Q222.918 258.951 220.059 261.227 Q217.2 263.503 211.934 263.503 Q210.166 263.503 208.285 263.146 Q206.423 262.807 204.43 262.111 L204.43 258.444 Q206.009 259.365 207.89 259.835 Q209.771 260.306 211.821 260.306 Q215.395 260.306 217.256 258.895 Q219.137 257.484 219.137 254.795 Q219.137 252.312 217.388 250.921 Q215.658 249.51 212.555 249.51 L209.282 249.51 L209.282 246.388 L212.705 246.388 Q215.507 246.388 216.993 245.278 Q218.479 244.15 218.479 242.043 Q218.479 239.88 216.937 238.733 Q215.413 237.567 212.555 237.567 Q210.994 237.567 209.207 237.906 Q207.42 238.244 205.276 238.959 L205.276 235.573 Q207.439 234.972 209.32 234.671 Q211.219 234.37 212.893 234.37 Q217.219 234.37 219.739 236.345 Q222.259 238.301 222.259 241.648 Q222.259 243.98 220.924 245.598 Q219.589 247.197 217.125 247.817 Z" fill="#000000" fill-rule="nonzero" fill-opacity="1" /><path clip-path="url(#clip920)" d="M42.6863 612.124 L42.6863 582.078 L48.0971 582.078 L48.0971 605.695 L62.1653 605.695 L62.1653 583.065 L67.5762 583.065 L67.5762 605.695 L84.7954 605.695 L84.7954 581.505 L90.2063 581.505 L90.2063 612.124 L42.6863 612.124 Z" fill="#000000" fill-rule="nonzero" fill-opacity="1" /><path clip-path="url(#clip920)" d="M44.2459 542.451 L50.5161 542.451 Q48.7655 546.112 47.9062 549.358 Q47.0468 552.605 47.0468 555.628 Q47.0468 560.88 49.0838 563.745 Q51.1208 566.577 54.8766 566.577 Q58.0276 566.577 59.6509 564.7 Q61.2423 562.79 62.229 557.506 L63.0247 553.623 Q64.3933 546.43 67.8627 543.024 Q71.3001 539.587 77.0929 539.587 Q83.9997 539.587 87.5645 544.234 Q91.1293 548.849 91.1293 557.793 Q91.1293 561.167 90.3654 564.986 Q89.6015 568.774 88.1056 572.848 L81.4853 572.848 Q83.6814 568.933 84.7954 565.177 Q85.9094 561.421 85.9094 557.793 Q85.9094 552.286 83.7451 549.295 Q81.5808 546.303 77.5704 546.303 Q74.0692 546.303 72.0958 548.467 Q70.1225 550.6 69.1358 555.501 L68.3719 559.416 Q66.9396 566.609 63.8841 569.824 Q60.8285 573.039 55.3859 573.039 Q49.0838 573.039 45.4554 568.615 Q41.8269 564.159 41.8269 556.361 Q41.8269 553.019 42.4317 549.549 Q43.0364 546.08 44.2459 542.451 Z" fill="#000000" fill-rule="nonzero" fill-opacity="1" /><path clip-path="url(#clip920)" d="M44.2459 501.074 L50.5161 501.074 Q48.7655 504.735 47.9062 507.981 Q47.0468 511.228 47.0468 514.251 Q47.0468 519.503 49.0838 522.368 Q51.1208 525.2 54.8766 525.2 Q58.0276 525.2 59.6509 523.323 Q61.2423 521.413 62.229 516.129 L63.0247 512.246 Q64.3933 505.053 67.8627 501.647 Q71.3001 498.21 77.0929 498.21 Q83.9997 498.21 87.5645 502.857 Q91.1293 507.472 91.1293 516.416 Q91.1293 519.79 90.3654 523.609 Q89.6015 527.397 88.1056 531.471 L81.4853 531.471 Q83.6814 527.556 84.7954 523.8 Q85.9094 520.044 85.9094 516.416 Q85.9094 510.909 83.7451 507.918 Q81.5808 504.926 77.5704 504.926 Q74.0692 504.926 72.0958 507.09 Q70.1225 509.222 69.1358 514.124 L68.3719 518.039 Q66.9396 525.232 63.8841 528.447 Q60.8285 531.662 55.3859 531.662 Q49.0838 531.662 45.4554 527.237 Q41.8269 522.781 41.8269 514.983 Q41.8269 511.641 42.4317 508.172 Q43.0364 504.703 44.2459 501.074 Z" fill="#000000" fill-rule="nonzero" fill-opacity="1" /><polyline clip-path="url(#clip922)" style="stroke:#009af9; stroke-linecap:round; stroke-linejoin:round; stroke-width:4; stroke-opacity:1; fill:none" points="350.696,326.404 369.557,155.339 388.417,283.688 407.277,202.302 426.137,199.733 444.997,147.134 463.858,142.85 482.718,187.67 501.578,152.282 520.438,165.535 539.298,148.505 558.159,195.678 577.019,181.946 595.879,160.264 614.739,167.636 633.599,151.434 652.46,142.054 671.32,138.757 690.18,117.29 709.04,126.827 727.9,247.495 746.761,168.94 765.621,229.876 784.481,244.774 803.341,185.692 822.201,245.878 841.062,211.164 859.922,149.339 878.782,132.943 897.642,224.613 916.502,252.329 935.363,142.541 954.223,168.201 973.083,164.656 991.943,123.123 1010.8,110.236 1029.66,255.997 1048.52,160.129 1067.38,290.641 "/>
<polyline clip-path="url(#clip922)" style="stroke:#009af9; stroke-linecap:round; stroke-linejoin:round; stroke-width:4; stroke-opacity:1; fill:none" points="1105.1,342.007 1123.96,201.647 1142.82,132.211 1161.69,215.899 1180.55,153.73 1199.41,205.495 1218.27,232.696 1237.13,202.007 1255.99,137.404 1274.85,180.919 1293.71,285.912 1312.57,212.932 1331.43,157.084 1350.29,272.043 1369.15,273.821 1388.01,238.929 1406.87,221.664 1425.73,235.194 1444.59,308.937 1463.45,177.96 1482.31,201.873 1501.17,133.851 1520.03,230.905 1538.89,218.788 1557.75,238.394 1576.61,235.977 1595.47,201.308 1614.33,182.985 1633.19,269.014 1652.05,309.368 1670.91,250.377 1689.77,190.231 1708.63,204.43 1727.49,202.769 1746.35,205.84 1765.21,320.078 1784.07,341.839 1802.93,223.53 1821.79,213.014 1840.65,209.483 1859.51,225.548 1878.37,305.667 1897.23,253.151 1916.09,256.661 1934.95,144.842 1953.81,230.228 1972.67,138.855 1991.53,240.342 2010.39,248.182 2029.25,260.588 2048.11,257.218 2066.97,300.13 2085.84,248.697 2104.7,203.906 2123.56,339.853 2142.42,201.824 2161.28,237.735 2180.14,244.182 2199,286.991 2217.86,211.446 2236.72,278.639 2255.58,224.577 2274.44,115.835 2293.3,193.436 2312.16,176.684 2331.02,245.537 2349.88,153.929 2368.74,206.288 2387.6,222.272 2406.46,127.109 2425.32,213.835 2444.18,148.92 2463.04,144.051 2481.9,188.993 2500.76,145.286 2519.62,208.439 2538.48,158.548 2557.34,229.129 2576.2,191.494 2595.06,188.81 2613.92,161.67 2632.78,182.234 2651.64,149.645 2670.5,182.115 2689.36,190.648 2708.22,176.338 2727.08,152.245 2745.94,164.729 2764.8,162.718 2783.66,263.839 2802.52,189.993 2821.38,161.339 2840.24,252 2859.1,182.266 2877.96,164.265 2896.82,246.764 2915.68,224.173 2934.54,170.357 2953.4,182.017 2972.26,182.908 2991.12,207.586 3009.99,165.024 "/>
</svg>
