<?xml version="1.0" encoding="utf-8"?>
<svg xmlns="http://www.w3.org/2000/svg" xmlns:xlink="http://www.w3.org/1999/xlink" width="800" height="300" viewBox="0 0 3200 1200">
<defs>
  <clipPath id="clip560">
    <rect x="0" y="0" width="3200" height="1200"/>
  </clipPath>
</defs>
<path clip-path="url(#clip560)" d="M0 1200 L3200 1200 L3200 0 L0 0  Z" fill="#ffffff" fill-rule="evenodd" fill-opacity="1"/>
<defs>
  <clipPath id="clip561">
    <rect x="640" y="0" width="2241" height="1200"/>
  </clipPath>
</defs>
<path clip-path="url(#clip560)" d="M270.918 1000.1 L3089.76 1000.1 L3089.76 110.236 L270.918 110.236  Z" fill="#ffffff" fill-rule="evenodd" fill-opacity="1"/>
<defs>
  <clipPath id="clip562">
    <rect x="270" y="110" width="2820" height="891"/>
  </clipPath>
</defs>
<polyline clip-path="url(#clip562)" style="stroke:#000000; stroke-linecap:round; stroke-linejoin:round; stroke-width:2; stroke-opacity:0.1; fill:none" points="330.55,1000.1 330.55,110.236 "/>
<polyline clip-path="url(#clip562)" style="stroke:#000000; stroke-linecap:round; stroke-linejoin:round; stroke-width:2; stroke-opacity:0.1; fill:none" points="733.473,1000.1 733.473,110.236 "/>
<polyline clip-path="url(#clip562)" style="stroke:#000000; stroke-linecap:round; stroke-linejoin:round; stroke-width:2; stroke-opacity:0.1; fill:none" points="1136.4,1000.1 1136.4,110.236 "/>
<polyline clip-path="url(#clip562)" style="stroke:#000000; stroke-linecap:round; stroke-linejoin:round; stroke-width:2; stroke-opacity:0.1; fill:none" points="1539.32,1000.1 1539.32,110.236 "/>
<polyline clip-path="url(#clip562)" style="stroke:#000000; stroke-linecap:round; stroke-linejoin:round; stroke-width:2; stroke-opacity:0.1; fill:none" points="1942.24,1000.1 1942.24,110.236 "/>
<polyline clip-path="url(#clip562)" style="stroke:#000000; stroke-linecap:round; stroke-linejoin:round; stroke-width:2; stroke-opacity:0.1; fill:none" points="2345.16,1000.1 2345.16,110.236 "/>
<polyline clip-path="url(#clip562)" style="stroke:#000000; stroke-linecap:round; stroke-linejoin:round; stroke-width:2; stroke-opacity:0.1; fill:none" points="2748.09,1000.1 2748.09,110.236 "/>
<polyline clip-path="url(#clip560)" style="stroke:#000000; stroke-linecap:round; stroke-linejoin:round; stroke-width:4; stroke-opacity:1; fill:none" points="270.918,1000.1 3089.76,1000.1 "/>
<polyline clip-path="url(#clip560)" style="stroke:#000000; stroke-linecap:round; stroke-linejoin:round; stroke-width:4; stroke-opacity:1; fill:none" points="330.55,1000.1 330.55,981.2 "/>
<polyline clip-path="url(#clip560)" style="stroke:#000000; stroke-linecap:round; stroke-linejoin:round; stroke-width:4; stroke-opacity:1; fill:none" points="733.473,1000.1 733.473,981.2 "/>
<polyline clip-path="url(#clip560)" style="stroke:#000000; stroke-linecap:round; stroke-linejoin:round; stroke-width:4; stroke-opacity:1; fill:none" points="1136.4,1000.1 1136.4,981.2 "/>
<polyline clip-path="url(#clip560)" style="stroke:#000000; stroke-linecap:round; stroke-linejoin:round; stroke-width:4; stroke-opacity:1; fill:none" points="1539.32,1000.1 1539.32,981.2 "/>
<polyline clip-path="url(#clip560)" style="stroke:#000000; stroke-linecap:round; stroke-linejoin:round; stroke-width:4; stroke-opacity:1; fill:none" points="1942.24,1000.1 1942.24,981.2 "/>
<polyline clip-path="url(#clip560)" style="stroke:#000000; stroke-linecap:round; stroke-linejoin:round; stroke-width:4; stroke-opacity:1; fill:none" points="2345.16,1000.1 2345.16,981.2 "/>
<polyline clip-path="url(#clip560)" style="stroke:#000000; stroke-linecap:round; stroke-linejoin:round; stroke-width:4; stroke-opacity:1; fill:none" points="2748.09,1000.1 2748.09,981.2 "/>
<path clip-path="url(#clip560)" d="M330.55 1037.42 Q326.939 1037.42 325.11 1040.98 Q323.305 1044.52 323.305 1051.65 Q323.305 1058.76 325.11 1062.32 Q326.939 1065.87 330.55 1065.87 Q334.184 1065.87 335.99 1062.32 Q337.819 1058.76 337.819 1051.65 Q337.819 1044.52 335.99 1040.98 Q334.184 1037.42 330.55 1037.42 M330.55 1033.71 Q336.36 1033.71 339.416 1038.32 Q342.495 1042.9 342.495 1051.65 Q342.495 1060.38 339.416 1064.99 Q336.36 1069.57 330.55 1069.57 Q324.74 1069.57 321.661 1064.99 Q318.606 1060.38 318.606 1051.65 Q318.606 1042.9 321.661 1038.32 Q324.74 1033.71 330.55 1033.71 Z" fill="#000000" fill-rule="nonzero" fill-opacity="1" /><path clip-path="url(#clip560)" d="M712.246 1064.96 L728.565 1064.96 L728.565 1068.9 L706.621 1068.9 L706.621 1064.96 Q709.283 1062.21 713.866 1057.58 Q718.473 1052.93 719.653 1051.58 Q721.899 1049.06 722.778 1047.32 Q723.681 1045.56 723.681 1043.87 Q723.681 1041.12 721.737 1039.38 Q719.815 1037.65 716.714 1037.65 Q714.514 1037.65 712.061 1038.41 Q709.63 1039.18 706.852 1040.73 L706.852 1036 Q709.677 1034.87 712.13 1034.29 Q714.584 1033.71 716.621 1033.71 Q721.991 1033.71 725.186 1036.4 Q728.38 1039.08 728.38 1043.57 Q728.38 1045.7 727.57 1047.62 Q726.783 1049.52 724.676 1052.12 Q724.098 1052.79 720.996 1056 Q717.894 1059.2 712.246 1064.96 Z" fill="#000000" fill-rule="nonzero" fill-opacity="1" /><path clip-path="url(#clip560)" d="M748.38 1037.42 Q744.769 1037.42 742.94 1040.98 Q741.135 1044.52 741.135 1051.65 Q741.135 1058.76 742.94 1062.32 Q744.769 1065.87 748.38 1065.87 Q752.014 1065.87 753.82 1062.32 Q755.649 1058.76 755.649 1051.65 Q755.649 1044.52 753.82 1040.98 Q752.014 1037.42 748.38 1037.42 M748.38 1033.71 Q754.19 1033.71 757.246 1038.32 Q760.324 1042.9 760.324 1051.65 Q760.324 1060.38 757.246 1064.99 Q754.19 1069.57 748.38 1069.57 Q742.57 1069.57 739.491 1064.99 Q736.436 1060.38 736.436 1051.65 Q736.436 1042.9 739.491 1038.32 Q742.57 1033.71 748.38 1033.71 Z" fill="#000000" fill-rule="nonzero" fill-opacity="1" /><path clip-path="url(#clip560)" d="M1124.57 1038.41 L1112.76 1056.86 L1124.57 1056.86 L1124.57 1038.41 M1123.34 1034.34 L1129.22 1034.34 L1129.22 1056.86 L1134.15 1056.86 L1134.15 1060.75 L1129.22 1060.75 L1129.22 1068.9 L1124.57 1068.9 L1124.57 1060.75 L1108.96 1060.75 L1108.96 1056.24 L1123.34 1034.34 Z" fill="#000000" fill-rule="nonzero" fill-opacity="1" /><path clip-path="url(#clip560)" d="M1151.88 1037.42 Q1148.27 1037.42 1146.44 1040.98 Q1144.64 1044.52 1144.64 1051.65 Q1144.64 1058.76 1146.44 1062.32 Q1148.27 1065.87 1151.88 1065.87 Q1155.52 1065.87 1157.32 1062.32 Q1159.15 1058.76 1159.15 1051.65 Q1159.15 1044.52 1157.32 1040.98 Q1155.52 1037.42 1151.88 1037.42 M1151.88 1033.71 Q1157.69 1033.71 1160.75 1038.32 Q1163.83 1042.9 1163.83 1051.65 Q1163.83 1060.38 1160.75 1064.99 Q1157.69 1069.57 1151.88 1069.57 Q1146.07 1069.57 1142.99 1064.99 Q1139.94 1060.38 1139.94 1051.65 Q1139.94 1042.9 1142.99 1038.32 Q1146.07 1033.71 1151.88 1033.71 Z" fill="#000000" fill-rule="nonzero" fill-opacity="1" /><path clip-path="url(#clip560)" d="M1524.72 1049.75 Q1521.57 1049.75 1519.72 1051.91 Q1517.89 1054.06 1517.89 1057.81 Q1517.89 1061.54 1519.72 1063.71 Q1521.57 1065.87 1524.72 1065.87 Q1527.87 1065.87 1529.7 1063.71 Q1531.55 1061.54 1531.55 1057.81 Q1531.55 1054.06 1529.7 1051.91 Q1527.87 1049.75 1524.72 1049.75 M1534.01 1035.1 L1534.01 1039.36 Q1532.25 1038.53 1530.44 1038.09 Q1528.66 1037.65 1526.9 1037.65 Q1522.27 1037.65 1519.82 1040.77 Q1517.39 1043.9 1517.04 1050.22 Q1518.4 1048.2 1520.46 1047.14 Q1522.52 1046.05 1525 1046.05 Q1530.21 1046.05 1533.22 1049.22 Q1536.25 1052.37 1536.25 1057.81 Q1536.25 1063.13 1533.1 1066.35 Q1529.95 1069.57 1524.72 1069.57 Q1518.73 1069.57 1515.56 1064.99 Q1512.39 1060.38 1512.39 1051.65 Q1512.39 1043.46 1516.27 1038.6 Q1520.16 1033.71 1526.71 1033.71 Q1528.47 1033.71 1530.26 1034.06 Q1532.06 1034.41 1534.01 1035.1 Z" fill="#000000" fill-rule="nonzero" fill-opacity="1" /><path clip-path="url(#clip560)" d="M1554.31 1037.42 Q1550.7 1037.42 1548.87 1040.98 Q1547.06 1044.52 1547.06 1051.65 Q1547.06 1058.76 1548.87 1062.32 Q1550.7 1065.87 1554.31 1065.87 Q1557.94 1065.87 1559.75 1062.32 Q1561.57 1058.76 1561.57 1051.65 Q1561.57 1044.52 1559.75 1040.98 Q1557.94 1037.42 1554.31 1037.42 M1554.31 1033.71 Q1560.12 1033.71 1563.17 1038.32 Q1566.25 1042.9 1566.25 1051.65 Q1566.25 1060.38 1563.17 1064.99 Q1560.12 1069.57 1554.31 1069.57 Q1548.5 1069.57 1545.42 1064.99 Q1542.36 1060.38 1542.36 1051.65 Q1542.36 1042.9 1545.42 1038.32 Q1548.5 1033.71 1554.31 1033.71 Z" fill="#000000" fill-rule="nonzero" fill-opacity="1" /><path clip-path="url(#clip560)" d="M1927.11 1052.49 Q1923.78 1052.49 1921.86 1054.27 Q1919.96 1056.05 1919.96 1059.18 Q1919.96 1062.3 1921.86 1064.08 Q1923.78 1065.87 1927.11 1065.87 Q1930.45 1065.87 1932.37 1064.08 Q1934.29 1062.28 1934.29 1059.18 Q1934.29 1056.05 1932.37 1054.27 Q1930.47 1052.49 1927.11 1052.49 M1922.44 1050.5 Q1919.43 1049.75 1917.74 1047.69 Q1916.07 1045.63 1916.07 1042.67 Q1916.07 1038.53 1919.01 1036.12 Q1921.97 1033.71 1927.11 1033.71 Q1932.28 1033.71 1935.21 1036.12 Q1938.15 1038.53 1938.15 1042.67 Q1938.15 1045.63 1936.46 1047.69 Q1934.8 1049.75 1931.81 1050.5 Q1935.19 1051.28 1937.07 1053.57 Q1938.96 1055.87 1938.96 1059.18 Q1938.96 1064.2 1935.89 1066.88 Q1932.83 1069.57 1927.11 1069.57 Q1921.4 1069.57 1918.32 1066.88 Q1915.26 1064.2 1915.26 1059.18 Q1915.26 1055.87 1917.16 1053.57 Q1919.06 1051.28 1922.44 1050.5 M1920.72 1043.11 Q1920.72 1045.8 1922.39 1047.3 Q1924.08 1048.81 1927.11 1048.81 Q1930.12 1048.81 1931.81 1047.3 Q1933.53 1045.8 1933.53 1043.11 Q1933.53 1040.43 1931.81 1038.92 Q1930.12 1037.42 1927.11 1037.42 Q1924.08 1037.42 1922.39 1038.92 Q1920.72 1040.43 1920.72 1043.11 Z" fill="#000000" fill-rule="nonzero" fill-opacity="1" /><path clip-path="url(#clip560)" d="M1957.28 1037.42 Q1953.66 1037.42 1951.84 1040.98 Q1950.03 1044.52 1950.03 1051.65 Q1950.03 1058.76 1951.84 1062.32 Q1953.66 1065.87 1957.28 1065.87 Q1960.91 1065.87 1962.71 1062.32 Q1964.54 1058.76 1964.54 1051.65 Q1964.54 1044.52 1962.71 1040.98 Q1960.91 1037.42 1957.28 1037.42 M1957.28 1033.71 Q1963.09 1033.71 1966.14 1038.32 Q1969.22 1042.9 1969.22 1051.65 Q1969.22 1060.38 1966.14 1064.99 Q1963.09 1069.57 1957.28 1069.57 Q1951.46 1069.57 1948.39 1064.99 Q1945.33 1060.38 1945.33 1051.65 Q1945.33 1042.9 1948.39 1038.32 Q1951.46 1033.71 1957.28 1033.71 Z" fill="#000000" fill-rule="nonzero" fill-opacity="1" /><path clip-path="url(#clip560)" d="M2304.77 1064.96 L2312.41 1064.96 L2312.41 1038.6 L2304.1 1040.26 L2304.1 1036 L2312.36 1034.34 L2317.04 1034.34 L2317.04 1064.96 L2324.68 1064.96 L2324.68 1068.9 L2304.77 1068.9 L2304.77 1064.96 Z" fill="#000000" fill-rule="nonzero" fill-opacity="1" /><path clip-path="url(#clip560)" d="M2344.12 1037.42 Q2340.51 1037.42 2338.68 1040.98 Q2336.88 1044.52 2336.88 1051.65 Q2336.88 1058.76 2338.68 1062.32 Q2340.51 1065.87 2344.12 1065.87 Q2347.76 1065.87 2349.56 1062.32 Q2351.39 1058.76 2351.39 1051.65 Q2351.39 1044.52 2349.56 1040.98 Q2347.76 1037.42 2344.12 1037.42 M2344.12 1033.71 Q2349.93 1033.71 2352.99 1038.32 Q2356.07 1042.9 2356.07 1051.65 Q2356.07 1060.38 2352.99 1064.99 Q2349.93 1069.57 2344.12 1069.57 Q2338.31 1069.57 2335.23 1064.99 Q2332.18 1060.38 2332.18 1051.65 Q2332.18 1042.9 2335.23 1038.32 Q2338.31 1033.71 2344.12 1033.71 Z" fill="#000000" fill-rule="nonzero" fill-opacity="1" /><path clip-path="url(#clip560)" d="M2374.28 1037.42 Q2370.67 1037.42 2368.84 1040.98 Q2367.04 1044.52 2367.04 1051.65 Q2367.04 1058.76 2368.84 1062.32 Q2370.67 1065.87 2374.28 1065.87 Q2377.92 1065.87 2379.72 1062.32 Q2381.55 1058.76 2381.55 1051.65 Q2381.55 1044.52 2379.72 1040.98 Q2377.92 1037.42 2374.28 1037.42 M2374.28 1033.71 Q2380.09 1033.71 2383.15 1038.32 Q2386.23 1042.9 2386.23 1051.65 Q2386.23 1060.38 2383.15 1064.99 Q2380.09 1069.57 2374.28 1069.57 Q2368.47 1069.57 2365.39 1064.99 Q2362.34 1060.38 2362.34 1051.65 Q2362.34 1042.9 2365.39 1038.32 Q2368.47 1033.71 2374.28 1033.71 Z" fill="#000000" fill-rule="nonzero" fill-opacity="1" /><path clip-path="url(#clip560)" d="M2707.69 1064.96 L2715.33 1064.96 L2715.33 1038.6 L2707.02 1040.26 L2707.02 1036 L2715.28 1034.34 L2719.96 1034.34 L2719.96 1064.96 L2727.6 1064.96 L2727.6 1068.9 L2707.69 1068.9 L2707.69 1064.96 Z" fill="#000000" fill-rule="nonzero" fill-opacity="1" /><path clip-path="url(#clip560)" d="M2741.07 1064.96 L2757.39 1064.96 L2757.39 1068.9 L2735.45 1068.9 L2735.45 1064.96 Q2738.11 1062.21 2742.69 1057.58 Q2747.3 1052.93 2748.48 1051.58 Q2750.72 1049.06 2751.6 1047.32 Q2752.51 1045.56 2752.51 1043.87 Q2752.51 1041.12 2750.56 1039.38 Q2748.64 1037.65 2745.54 1037.65 Q2743.34 1037.65 2740.89 1038.41 Q2738.46 1039.18 2735.68 1040.73 L2735.68 1036 Q2738.5 1034.87 2740.96 1034.29 Q2743.41 1033.71 2745.45 1033.71 Q2750.82 1033.71 2754.01 1036.4 Q2757.21 1039.08 2757.21 1043.57 Q2757.21 1045.7 2756.4 1047.62 Q2755.61 1049.52 2753.5 1052.12 Q2752.92 1052.79 2749.82 1056 Q2746.72 1059.2 2741.07 1064.96 Z" fill="#000000" fill-rule="nonzero" fill-opacity="1" /><path clip-path="url(#clip560)" d="M2777.21 1037.42 Q2773.59 1037.42 2771.77 1040.98 Q2769.96 1044.52 2769.96 1051.65 Q2769.96 1058.76 2771.77 1062.32 Q2773.59 1065.87 2777.21 1065.87 Q2780.84 1065.87 2782.65 1062.32 Q2784.47 1058.76 2784.47 1051.65 Q2784.47 1044.52 2782.65 1040.98 Q2780.84 1037.42 2777.21 1037.42 M2777.21 1033.71 Q2783.02 1033.71 2786.07 1038.32 Q2789.15 1042.9 2789.15 1051.65 Q2789.15 1060.38 2786.07 1064.99 Q2783.02 1069.57 2777.21 1069.57 Q2771.4 1069.57 2768.32 1064.99 Q2765.26 1060.38 2765.26 1051.65 Q2765.26 1042.9 2768.32 1038.32 Q2771.4 1033.71 2777.21 1033.71 Z" fill="#000000" fill-rule="nonzero" fill-opacity="1" /><path clip-path="url(#clip560)" d="M1556.64 1109.44 L1563.07 1109.44 L1563.07 1151.55 L1586.21 1151.55 L1586.21 1156.96 L1556.64 1156.96 L1556.64 1109.44 Z" fill="#000000" fill-rule="nonzero" fill-opacity="1" /><path clip-path="url(#clip560)" d="M1592.7 1121.31 L1598.56 1121.31 L1598.56 1156.96 L1592.7 1156.96 L1592.7 1121.31 M1592.7 1107.44 L1598.56 1107.44 L1598.56 1114.85 L1592.7 1114.85 L1592.7 1107.44 Z" fill="#000000" fill-rule="nonzero" fill-opacity="1" /><path clip-path="url(#clip560)" d="M1640.44 1135.45 L1640.44 1156.96 L1634.59 1156.96 L1634.59 1135.64 Q1634.59 1130.58 1632.61 1128.06 Q1630.64 1125.55 1626.69 1125.55 Q1621.95 1125.55 1619.21 1128.57 Q1616.48 1131.59 1616.48 1136.81 L1616.48 1156.96 L1610.59 1156.96 L1610.59 1121.31 L1616.48 1121.31 L1616.48 1126.85 Q1618.58 1123.64 1621.41 1122.05 Q1624.27 1120.45 1628 1120.45 Q1634.14 1120.45 1637.29 1124.27 Q1640.44 1128.06 1640.44 1135.45 Z" fill="#000000" fill-rule="nonzero" fill-opacity="1" /><path clip-path="url(#clip560)" d="M1682.62 1137.67 L1682.62 1140.54 L1655.69 1140.54 Q1656.07 1146.59 1659.32 1149.77 Q1662.6 1152.92 1668.42 1152.92 Q1671.79 1152.92 1674.95 1152.09 Q1678.13 1151.26 1681.25 1149.61 L1681.25 1155.15 Q1678.1 1156.48 1674.79 1157.18 Q1671.48 1157.88 1668.07 1157.88 Q1659.54 1157.88 1654.54 1152.92 Q1649.58 1147.95 1649.58 1139.49 Q1649.58 1130.74 1654.29 1125.61 Q1659.03 1120.45 1667.05 1120.45 Q1674.25 1120.45 1678.42 1125.1 Q1682.62 1129.72 1682.62 1137.67 M1676.76 1135.95 Q1676.7 1131.15 1674.05 1128.28 Q1671.44 1125.42 1667.12 1125.42 Q1662.21 1125.42 1659.25 1128.19 Q1656.33 1130.96 1655.88 1135.99 L1676.76 1135.95 Z" fill="#000000" fill-rule="nonzero" fill-opacity="1" /><path clip-path="url(#clip560)" d="M1708.43 1139.04 Q1701.33 1139.04 1698.59 1140.67 Q1695.86 1142.29 1695.86 1146.2 Q1695.86 1149.32 1697.89 1151.17 Q1699.96 1152.98 1703.5 1152.98 Q1708.37 1152.98 1711.29 1149.55 Q1714.25 1146.08 1714.25 1140.35 L1714.25 1139.04 L1708.43 1139.04 M1720.11 1136.62 L1720.11 1156.96 L1714.25 1156.96 L1714.25 1151.55 Q1712.25 1154.8 1709.26 1156.36 Q1706.27 1157.88 1701.94 1157.88 Q1696.46 1157.88 1693.22 1154.83 Q1690 1151.74 1690 1146.59 Q1690 1140.57 1694.01 1137.51 Q1698.05 1134.46 1706.04 1134.46 L1714.25 1134.46 L1714.25 1133.89 Q1714.25 1129.84 1711.58 1127.65 Q1708.94 1125.42 1704.13 1125.42 Q1701.08 1125.42 1698.18 1126.15 Q1695.28 1126.88 1692.61 1128.35 L1692.61 1122.94 Q1695.83 1121.7 1698.85 1121.09 Q1701.87 1120.45 1704.74 1120.45 Q1712.47 1120.45 1716.29 1124.46 Q1720.11 1128.48 1720.11 1136.62 Z" fill="#000000" fill-rule="nonzero" fill-opacity="1" /><path clip-path="url(#clip560)" d="M1755.63 1138.72 Q1755.63 1132.36 1752.99 1128.86 Q1750.38 1125.36 1745.64 1125.36 Q1740.93 1125.36 1738.28 1128.86 Q1735.67 1132.36 1735.67 1138.72 Q1735.67 1145.06 1738.28 1148.56 Q1740.93 1152.06 1745.64 1152.06 Q1750.38 1152.06 1752.99 1148.56 Q1755.63 1145.06 1755.63 1138.72 M1761.49 1152.54 Q1761.49 1161.64 1757.45 1166.06 Q1753.4 1170.52 1745.06 1170.52 Q1741.98 1170.52 1739.24 1170.04 Q1736.5 1169.6 1733.92 1168.64 L1733.92 1162.95 Q1736.5 1164.35 1739.02 1165.01 Q1741.53 1165.68 1744.14 1165.68 Q1749.9 1165.68 1752.77 1162.66 Q1755.63 1159.67 1755.63 1153.59 L1755.63 1150.69 Q1753.82 1153.84 1750.98 1155.4 Q1748.15 1156.96 1744.2 1156.96 Q1737.65 1156.96 1733.64 1151.96 Q1729.63 1146.97 1729.63 1138.72 Q1729.63 1130.45 1733.64 1125.45 Q1737.65 1120.45 1744.2 1120.45 Q1748.15 1120.45 1750.98 1122.01 Q1753.82 1123.57 1755.63 1126.72 L1755.63 1121.31 L1761.49 1121.31 L1761.49 1152.54 Z" fill="#000000" fill-rule="nonzero" fill-opacity="1" /><path clip-path="url(#clip560)" d="M1804.04 1137.67 L1804.04 1140.54 L1777.12 1140.54 Q1777.5 1146.59 1780.74 1149.77 Q1784.02 1152.92 1789.85 1152.92 Q1793.22 1152.92 1796.37 1152.09 Q1799.55 1151.26 1802.67 1149.61 L1802.67 1155.15 Q1799.52 1156.48 1796.21 1157.18 Q1792.9 1157.88 1789.5 1157.88 Q1780.97 1157.88 1775.97 1152.92 Q1771 1147.95 1771 1139.49 Q1771 1130.74 1775.71 1125.61 Q1780.46 1120.45 1788.48 1120.45 Q1795.67 1120.45 1799.84 1125.1 Q1804.04 1129.72 1804.04 1137.67 M1798.19 1135.95 Q1798.12 1131.15 1795.48 1128.28 Q1792.87 1125.42 1788.54 1125.42 Q1783.64 1125.42 1780.68 1128.19 Q1777.75 1130.96 1777.31 1135.99 L1798.19 1135.95 Z" fill="#000000" fill-rule="nonzero" fill-opacity="1" /><polyline clip-path="url(#clip562)" style="stroke:#000000; stroke-linecap:round; stroke-linejoin:round; stroke-width:2; stroke-opacity:0.1; fill:none" points="270.918,1000.1 3089.76,1000.1 "/>
<polyline clip-path="url(#clip562)" style="stroke:#000000; stroke-linecap:round; stroke-linejoin:round; stroke-width:2; stroke-opacity:0.1; fill:none" points="270.918,673.601 3089.76,673.601 "/>
<polyline clip-path="url(#clip562)" style="stroke:#000000; stroke-linecap:round; stroke-linejoin:round; stroke-width:2; stroke-opacity:0.1; fill:none" points="270.918,347.104 3089.76,347.104 "/>
<polyline clip-path="url(#clip560)" style="stroke:#000000; stroke-linecap:round; stroke-linejoin:round; stroke-width:4; stroke-opacity:1; fill:none" points="270.918,1000.1 270.918,110.236 "/>
<polyline clip-path="url(#clip560)" style="stroke:#000000; stroke-linecap:round; stroke-linejoin:round; stroke-width:4; stroke-opacity:1; fill:none" points="270.918,1000.1 289.815,1000.1 "/>
<polyline clip-path="url(#clip560)" style="stroke:#000000; stroke-linecap:round; stroke-linejoin:round; stroke-width:4; stroke-opacity:1; fill:none" points="270.918,673.601 289.815,673.601 "/>
<polyline clip-path="url(#clip560)" style="stroke:#000000; stroke-linecap:round; stroke-linejoin:round; stroke-width:4; stroke-opacity:1; fill:none" points="270.918,347.104 289.815,347.104 "/>
<path clip-path="url(#clip560)" d="M154.902 1019.89 L162.54 1019.89 L162.54 993.525 L154.23 995.191 L154.23 990.932 L162.494 989.265 L167.17 989.265 L167.17 1019.89 L174.809 1019.89 L174.809 1023.83 L154.902 1023.83 L154.902 1019.89 Z" fill="#000000" fill-rule="nonzero" fill-opacity="1" /><path clip-path="url(#clip560)" d="M194.253 992.344 Q190.642 992.344 188.813 995.909 Q187.008 999.45 187.008 1006.58 Q187.008 1013.69 188.813 1017.25 Q190.642 1020.79 194.253 1020.79 Q197.887 1020.79 199.693 1017.25 Q201.522 1013.69 201.522 1006.58 Q201.522 999.45 199.693 995.909 Q197.887 992.344 194.253 992.344 M194.253 988.64 Q200.063 988.64 203.119 993.247 Q206.198 997.83 206.198 1006.58 Q206.198 1015.31 203.119 1019.91 Q200.063 1024.5 194.253 1024.5 Q188.443 1024.5 185.364 1019.91 Q182.309 1015.31 182.309 1006.58 Q182.309 997.83 185.364 993.247 Q188.443 988.64 194.253 988.64 Z" fill="#000000" fill-rule="nonzero" fill-opacity="1" /><path clip-path="url(#clip560)" d="M206.743 993.218 L212.95 993.218 L212.95 971.796 L206.198 973.15 L206.198 969.689 L212.912 968.335 L216.711 968.335 L216.711 993.218 L222.918 993.218 L222.918 996.415 L206.743 996.415 L206.743 993.218 Z" fill="#000000" fill-rule="nonzero" fill-opacity="1" /><path clip-path="url(#clip560)" d="M153.792 693.393 L161.431 693.393 L161.431 667.028 L153.121 668.694 L153.121 664.435 L161.384 662.768 L166.06 662.768 L166.06 693.393 L173.699 693.393 L173.699 697.328 L153.792 697.328 L153.792 693.393 Z" fill="#000000" fill-rule="nonzero" fill-opacity="1" /><path clip-path="url(#clip560)" d="M193.143 665.847 Q189.532 665.847 187.704 669.412 Q185.898 672.953 185.898 680.083 Q185.898 687.189 187.704 690.754 Q189.532 694.296 193.143 694.296 Q196.778 694.296 198.583 690.754 Q200.412 687.189 200.412 680.083 Q200.412 672.953 198.583 669.412 Q196.778 665.847 193.143 665.847 M193.143 662.143 Q198.954 662.143 202.009 666.75 Q205.088 671.333 205.088 680.083 Q205.088 688.81 202.009 693.416 Q198.954 698 193.143 698 Q187.333 698 184.255 693.416 Q181.199 688.81 181.199 680.083 Q181.199 671.333 184.255 666.75 Q187.333 662.143 193.143 662.143 Z" fill="#000000" fill-rule="nonzero" fill-opacity="1" /><path clip-path="url(#clip560)" d="M209.658 666.721 L222.918 666.721 L222.918 669.918 L205.088 669.918 L205.088 666.721 Q207.251 664.482 210.975 660.721 Q214.717 656.941 215.677 655.85 Q217.501 653.8 218.216 652.389 Q218.949 650.96 218.949 649.587 Q218.949 647.349 217.369 645.938 Q215.808 644.527 213.288 644.527 Q211.501 644.527 209.508 645.148 Q207.533 645.769 205.276 647.029 L205.276 643.192 Q207.57 642.27 209.564 641.8 Q211.558 641.33 213.213 641.33 Q217.576 641.33 220.172 643.512 Q222.767 645.693 222.767 649.342 Q222.767 651.073 222.109 652.634 Q221.469 654.176 219.758 656.282 Q219.288 656.828 216.767 659.442 Q214.247 662.037 209.658 666.721 Z" fill="#000000" fill-rule="nonzero" fill-opacity="1" /><path clip-path="url(#clip560)" d="M153.134 366.896 L160.772 366.896 L160.772 340.531 L152.462 342.197 L152.462 337.938 L160.726 336.271 L165.402 336.271 L165.402 366.896 L173.041 366.896 L173.041 370.831 L153.134 370.831 L153.134 366.896 Z" fill="#000000" fill-rule="nonzero" fill-opacity="1" /><path clip-path="url(#clip560)" d="M192.485 339.35 Q188.874 339.35 187.045 342.915 Q185.24 346.456 185.24 353.586 Q185.24 360.692 187.045 364.257 Q188.874 367.799 192.485 367.799 Q196.119 367.799 197.925 364.257 Q199.754 360.692 199.754 353.586 Q199.754 346.456 197.925 342.915 Q196.119 339.35 192.485 339.35 M192.485 335.646 Q198.295 335.646 201.351 340.253 Q204.43 344.836 204.43 353.586 Q204.43 362.313 201.351 366.919 Q198.295 371.503 192.485 371.503 Q186.675 371.503 183.596 366.919 Q180.541 362.313 180.541 353.586 Q180.541 344.836 183.596 340.253 Q186.675 335.646 192.485 335.646 Z" fill="#000000" fill-rule="nonzero" fill-opacity="1" /><path clip-path="url(#clip560)" d="M217.125 328.281 Q219.852 328.864 221.375 330.707 Q222.918 332.55 222.918 335.258 Q222.918 339.415 220.059 341.691 Q217.2 343.966 211.934 343.966 Q210.166 343.966 208.285 343.609 Q206.423 343.27 204.43 342.575 L204.43 338.907 Q206.009 339.829 207.89 340.299 Q209.771 340.769 211.821 340.769 Q215.395 340.769 217.256 339.358 Q219.137 337.948 219.137 335.258 Q219.137 332.776 217.388 331.384 Q215.658 329.973 212.555 329.973 L209.282 329.973 L209.282 326.851 L212.705 326.851 Q215.507 326.851 216.993 325.742 Q218.479 324.613 218.479 322.507 Q218.479 320.344 216.937 319.196 Q215.413 318.03 212.555 318.03 Q210.994 318.03 209.207 318.369 Q207.42 318.707 205.276 319.422 L205.276 316.037 Q207.439 315.435 209.32 315.134 Q211.219 314.833 212.893 314.833 Q217.219 314.833 219.739 316.808 Q222.259 318.764 222.259 322.112 Q222.259 324.444 220.924 326.061 Q219.589 327.66 217.125 328.281 Z" fill="#000000" fill-rule="nonzero" fill-opacity="1" /><path clip-path="url(#clip560)" d="M42.6863 908.145 L42.6863 878.099 L48.0971 878.099 L48.0971 901.716 L62.1653 901.716 L62.1653 879.086 L67.5762 879.086 L67.5762 901.716 L84.7954 901.716 L84.7954 877.526 L90.2063 877.526 L90.2063 908.145 L42.6863 908.145 Z" fill="#000000" fill-rule="nonzero" fill-opacity="1" /><path clip-path="url(#clip560)" d="M44.2459 838.473 L50.5161 838.473 Q48.7655 842.133 47.9062 845.38 Q47.0468 848.626 47.0468 851.65 Q47.0468 856.901 49.0838 859.766 Q51.1208 862.599 54.8766 862.599 Q58.0276 862.599 59.6509 860.721 Q61.2423 858.811 62.229 853.528 L63.0247 849.645 Q64.3933 842.451 67.8627 839.046 Q71.3001 835.608 77.0929 835.608 Q83.9997 835.608 87.5645 840.255 Q91.1293 844.87 91.1293 853.814 Q91.1293 857.188 90.3654 861.007 Q89.6015 864.795 88.1056 868.869 L81.4853 868.869 Q83.6814 864.954 84.7954 861.198 Q85.9094 857.443 85.9094 853.814 Q85.9094 848.308 83.7451 845.316 Q81.5808 842.324 77.5704 842.324 Q74.0692 842.324 72.0958 844.488 Q70.1225 846.621 69.1358 851.522 L68.3719 855.437 Q66.9396 862.631 63.8841 865.845 Q60.8285 869.06 55.3859 869.06 Q49.0838 869.06 45.4554 864.636 Q41.8269 860.18 41.8269 852.382 Q41.8269 849.04 42.4317 845.571 Q43.0364 842.101 44.2459 838.473 Z" fill="#000000" fill-rule="nonzero" fill-opacity="1" /><path clip-path="url(#clip560)" d="M44.2459 797.096 L50.5161 797.096 Q48.7655 800.756 47.9062 804.002 Q47.0468 807.249 47.0468 810.273 Q47.0468 815.524 49.0838 818.389 Q51.1208 821.222 54.8766 821.222 Q58.0276 821.222 59.6509 819.344 Q61.2423 817.434 62.229 812.151 L63.0247 808.267 Q64.3933 801.074 67.8627 797.669 Q71.3001 794.231 77.0929 794.231 Q83.9997 794.231 87.5645 798.878 Q91.1293 803.493 91.1293 812.437 Q91.1293 815.811 90.3654 819.63 Q89.6015 823.418 88.1056 827.492 L81.4853 827.492 Q83.6814 823.577 84.7954 819.821 Q85.9094 816.065 85.9094 812.437 Q85.9094 806.931 83.7451 803.939 Q81.5808 800.947 77.5704 800.947 Q74.0692 800.947 72.0958 803.111 Q70.1225 805.244 69.1358 810.145 L68.3719 814.06 Q66.9396 821.254 63.8841 824.468 Q60.8285 827.683 55.3859 827.683 Q49.0838 827.683 45.4554 823.259 Q41.8269 818.803 41.8269 811.005 Q41.8269 807.663 42.4317 804.193 Q43.0364 800.724 44.2459 797.096 Z" fill="#000000" fill-rule="nonzero" fill-opacity="1" /><path clip-path="url(#clip560)" d="M82.1218 782.964 L82.1218 776.248 L90.2063 776.248 L90.2063 782.964 L82.1218 782.964 M56.4999 782.964 L56.4999 776.248 L64.5843 776.248 L64.5843 782.964 L56.4999 782.964 Z" fill="#000000" fill-rule="nonzero" fill-opacity="1" /><path clip-path="url(#clip560)" d="M47.9698 735.094 L84.9227 735.094 L84.9227 727.328 Q84.9227 717.492 80.4668 712.941 Q76.0108 708.358 66.3985 708.358 Q56.85 708.358 52.4258 712.941 Q47.9698 717.492 47.9698 727.328 L47.9698 735.094 M42.6863 741.523 L42.6863 728.314 Q42.6863 714.501 48.4472 708.039 Q54.1764 701.578 66.3985 701.578 Q78.6844 701.578 84.4453 708.071 Q90.2063 714.564 90.2063 728.314 L90.2063 741.523 L42.6863 741.523 Z" fill="#000000" fill-rule="nonzero" fill-opacity="1" /><path clip-path="url(#clip560)" d="M70.9182 661.092 L73.7828 661.092 L73.7828 688.019 Q79.8302 687.637 83.013 684.391 Q86.1641 681.112 86.1641 675.288 Q86.1641 671.914 85.3365 668.763 Q84.509 665.58 82.8539 662.461 L88.3921 662.461 Q89.7289 665.612 90.4291 668.922 Q91.1293 672.232 91.1293 675.638 Q91.1293 684.168 86.1641 689.165 Q81.1988 694.13 72.7324 694.13 Q63.9796 694.13 58.8552 689.42 Q53.699 684.677 53.699 676.656 Q53.699 669.463 58.3459 665.294 Q62.9611 661.092 70.9182 661.092 M69.1995 666.949 Q64.3933 667.012 61.5288 669.654 Q58.6642 672.264 58.6642 676.593 Q58.6642 681.494 61.4333 684.454 Q64.2024 687.383 69.2313 687.828 L69.1995 666.949 Z" fill="#000000" fill-rule="nonzero" fill-opacity="1" /><path clip-path="url(#clip560)" d="M68.6902 621.848 L90.2063 621.848 L90.2063 627.704 L68.8812 627.704 Q63.8204 627.704 61.306 629.678 Q58.7915 631.651 58.7915 635.598 Q58.7915 640.34 61.8152 643.077 Q64.8389 645.815 70.0588 645.815 L90.2063 645.815 L90.2063 651.703 L54.5583 651.703 L54.5583 645.815 L60.0965 645.815 Q56.8818 643.714 55.2904 640.881 Q53.699 638.017 53.699 634.293 Q53.699 628.15 57.5184 624.999 Q61.306 621.848 68.6902 621.848 Z" fill="#000000" fill-rule="nonzero" fill-opacity="1" /><path clip-path="url(#clip560)" d="M61.4015 582.412 Q57.4547 580.216 55.5768 577.16 Q53.699 574.105 53.699 569.967 Q53.699 564.397 57.6139 561.374 Q61.4969 558.35 68.6902 558.35 L90.2063 558.35 L90.2063 564.238 L68.8812 564.238 Q63.7568 564.238 61.2741 566.052 Q58.7915 567.867 58.7915 571.59 Q58.7915 576.142 61.8152 578.784 Q64.8389 581.426 70.0588 581.426 L90.2063 581.426 L90.2063 587.314 L68.8812 587.314 Q63.7249 587.314 61.2741 589.128 Q58.7915 590.942 58.7915 594.73 Q58.7915 599.218 61.8471 601.859 Q64.8708 604.501 70.0588 604.501 L90.2063 604.501 L90.2063 610.389 L54.5583 610.389 L54.5583 604.501 L60.0965 604.501 Q56.8182 602.496 55.2586 599.695 Q53.699 596.894 53.699 593.043 Q53.699 589.16 55.6723 586.454 Q57.6457 583.717 61.4015 582.412 Z" fill="#000000" fill-rule="nonzero" fill-opacity="1" /><path clip-path="url(#clip560)" d="M72.2868 530.468 Q72.2868 537.566 73.9101 540.303 Q75.5333 543.04 79.4482 543.04 Q82.5674 543.04 84.4135 541.003 Q86.2277 538.934 86.2277 535.401 Q86.2277 530.532 82.7902 527.603 Q79.3209 524.643 73.5918 524.643 L72.2868 524.643 L72.2868 530.468 M69.8679 518.787 L90.2063 518.787 L90.2063 524.643 L84.7954 524.643 Q88.0419 526.649 89.6015 529.64 Q91.1293 532.632 91.1293 536.961 Q91.1293 542.436 88.0738 545.682 Q84.9864 548.897 79.8302 548.897 Q73.8146 548.897 70.759 544.886 Q67.7035 540.844 67.7035 532.855 L67.7035 524.643 L67.1306 524.643 Q63.0884 524.643 60.8922 527.317 Q58.6642 529.959 58.6642 534.765 Q58.6642 537.82 59.3963 540.717 Q60.1283 543.613 61.5924 546.287 L56.1816 546.287 Q54.9403 543.072 54.3355 540.048 Q53.699 537.025 53.699 534.16 Q53.699 526.426 57.7094 522.606 Q61.7197 518.787 69.8679 518.787 Z" fill="#000000" fill-rule="nonzero" fill-opacity="1" /><path clip-path="url(#clip560)" d="M60.0328 486.067 Q59.4599 487.054 59.2053 488.232 Q58.9188 489.377 58.9188 490.778 Q58.9188 495.743 62.1653 498.417 Q65.38 501.058 71.4274 501.058 L90.2063 501.058 L90.2063 506.947 L54.5583 506.947 L54.5583 501.058 L60.0965 501.058 Q56.85 499.212 55.2904 496.252 Q53.699 493.292 53.699 489.059 Q53.699 488.454 53.7944 487.722 Q53.8581 486.99 54.0172 486.099 L60.0328 486.067 Z" fill="#000000" fill-rule="nonzero" fill-opacity="1" /><path clip-path="url(#clip560)" d="M40.6811 480.147 L40.6811 474.259 L69.9315 474.259 L54.5583 456.785 L54.5583 449.305 L71.2365 468.211 L90.2063 448.51 L90.2063 456.148 L72.7961 474.259 L90.2063 474.259 L90.2063 480.147 L40.6811 480.147 Z" fill="#000000" fill-rule="nonzero" fill-opacity="1" /><path clip-path="url(#clip560)" d="M82.1218 440.68 L82.1218 433.964 L87.5963 433.964 L97.7815 439.184 L97.7815 443.29 L87.5963 440.68 L82.1218 440.68 Z" fill="#000000" fill-rule="nonzero" fill-opacity="1" /><path clip-path="url(#clip560)" d="M44.4369 394.942 L54.5583 394.942 L54.5583 382.879 L59.1098 382.879 L59.1098 394.942 L78.4616 394.942 Q82.8221 394.942 84.0634 393.764 Q85.3047 392.555 85.3047 388.895 L85.3047 382.879 L90.2063 382.879 L90.2063 388.895 Q90.2063 395.674 87.6918 398.252 Q85.1455 400.83 78.4616 400.83 L59.1098 400.83 L59.1098 405.127 L54.5583 405.127 L54.5583 400.83 L44.4369 400.83 L44.4369 394.942 Z" fill="#000000" fill-rule="nonzero" fill-opacity="1" /><path clip-path="url(#clip560)" d="M54.5583 375.177 L54.5583 369.32 L90.2063 369.32 L90.2063 375.177 L54.5583 375.177 M40.6811 375.177 L40.6811 369.32 L48.0971 369.32 L48.0971 375.177 L40.6811 375.177 Z" fill="#000000" fill-rule="nonzero" fill-opacity="1" /><path clip-path="url(#clip560)" d="M61.4015 329.312 Q57.4547 327.116 55.5768 324.06 Q53.699 321.004 53.699 316.867 Q53.699 311.297 57.6139 308.273 Q61.4969 305.249 68.6902 305.249 L90.2063 305.249 L90.2063 311.138 L68.8812 311.138 Q63.7568 311.138 61.2741 312.952 Q58.7915 314.766 58.7915 318.49 Q58.7915 323.041 61.8152 325.683 Q64.8389 328.325 70.0588 328.325 L90.2063 328.325 L90.2063 334.213 L68.8812 334.213 Q63.7249 334.213 61.2741 336.028 Q58.7915 337.842 58.7915 341.629 Q58.7915 346.117 61.8471 348.759 Q64.8708 351.401 70.0588 351.401 L90.2063 351.401 L90.2063 357.289 L54.5583 357.289 L54.5583 351.401 L60.0965 351.401 Q56.8182 349.396 55.2586 346.595 Q53.699 343.794 53.699 339.942 Q53.699 336.059 55.6723 333.354 Q57.6457 330.617 61.4015 329.312 Z" fill="#000000" fill-rule="nonzero" fill-opacity="1" /><path clip-path="url(#clip560)" d="M70.9182 263.077 L73.7828 263.077 L73.7828 290.003 Q79.8302 289.622 83.013 286.375 Q86.1641 283.097 86.1641 277.272 Q86.1641 273.898 85.3365 270.747 Q84.509 267.564 82.8539 264.445 L88.3921 264.445 Q89.7289 267.596 90.4291 270.906 Q91.1293 274.217 91.1293 277.622 Q91.1293 286.152 86.1641 291.149 Q81.1988 296.115 72.7324 296.115 Q63.9796 296.115 58.8552 291.404 Q53.699 286.661 53.699 278.641 Q53.699 271.447 58.3459 267.278 Q62.9611 263.077 70.9182 263.077 M69.1995 268.933 Q64.3933 268.997 61.5288 271.638 Q58.6642 274.248 58.6642 278.577 Q58.6642 283.479 61.4333 286.439 Q64.2024 289.367 69.2313 289.812 L69.1995 268.933 Z" fill="#000000" fill-rule="nonzero" fill-opacity="1" /><path clip-path="url(#clip560)" d="M82.1218 251.968 L82.1218 245.253 L90.2063 245.253 L90.2063 251.968 L82.1218 251.968 M56.4999 251.968 L56.4999 245.253 L64.5843 245.253 L64.5843 251.968 L56.4999 251.968 Z" fill="#000000" fill-rule="nonzero" fill-opacity="1" /><path clip-path="url(#clip560)" d="M84.7954 229.561 L84.7954 219.058 L48.5427 219.058 L50.8344 230.484 L44.9779 230.484 L42.6863 219.121 L42.6863 212.692 L84.7954 212.692 L84.7954 202.189 L90.2063 202.189 L90.2063 229.561 L84.7954 229.561 Z" fill="#000000" fill-rule="nonzero" fill-opacity="1" /><polyline clip-path="url(#clip562)" style="stroke:#009af9; stroke-linecap:round; stroke-linejoin:round; stroke-width:4; stroke-opacity:1; fill:none" points="350.696,302.381 370.842,175.612 390.989,153.63 411.135,116.774 431.281,197.825 451.427,145.887 471.573,130.706 491.719,134.91 511.865,203.937 532.011,151.715 552.158,217.127 572.304,147.365 592.45,157.149 612.596,167.758 632.742,183.784 652.888,172.11 673.034,139.344 693.18,129.623 713.327,130.44 733.473,159.514 753.619,149.243 773.765,145.437 793.911,215.976 814.057,182.822 834.203,163.457 854.349,116.306 874.496,151.265 894.642,191.207 914.788,131.055 934.934,161.013 955.08,161.235 975.226,176.381 995.372,180.66 1015.52,211.439 1035.66,180.787 1055.81,196.797 1075.96,125.032 1096.1,183.397 1116.25,149.284 1136.4,181.981 1156.54,133.054 1176.69,163.343 1196.83,195.227 1216.98,144.194 1237.13,172.523 1257.27,136.442 1277.42,202.221 1297.56,145.318 1317.71,152.588 1337.86,119.909 1358,186.943 1378.15,142.716 1398.29,155.838 1418.44,125.944 1438.59,143.054 1458.73,158.634 1478.88,178.574 1499.03,161.66 1519.17,118.976 1539.32,185.902 1559.46,138.308 1579.61,144.392 1599.76,123.312 1619.9,137.281 1640.05,163.959 1660.19,155.944 1680.34,154.145 1700.49,157.349 1720.63,130.997 1740.78,118.488 1760.93,159.24 1781.07,141.622 1801.22,133.608 1821.36,139.356 1841.51,139.678 1861.66,141.32 1881.8,113.4 1901.95,135.609 1922.09,160.38 1942.24,119.518 1962.39,156.374 1982.53,162.645 2002.68,137.108 2022.82,121.619 2042.97,156.501 2063.12,199.866 2083.26,127.618 2103.41,154.799 2123.56,150.41 2143.7,110.236 2163.85,158.756 2183.99,126.966 2204.14,133.963 2224.29,124.356 2244.43,125.433 2264.58,164.39 2284.72,144.139 2304.87,138.829 2325.02,153.742 2345.16,150.747 2365.31,132.045 2385.46,131.658 2405.6,177.34 2425.75,187.878 2445.89,154.356 2466.04,164.982 2486.19,194.316 2506.33,139.685 2526.48,133.908 2546.62,140.241 2566.77,136.391 2586.92,150.012 2607.06,146.709 2627.21,132.33 2647.35,131.041 2667.5,132.226 2687.65,141.626 2707.79,131.728 2727.94,154.674 2748.09,131.166 2768.23,156.82 2788.38,127.702 2808.52,146.955 2828.67,140.455 2848.82,126.004 2868.96,153.968 2889.11,179.598 2909.25,160.787 2929.4,134.12 2949.55,133.056 2969.69,161.8 2989.84,131.851 3009.99,157.415 "/>
</svg>
