<?xml version="1.0" encoding="utf-8"?>
<svg xmlns="http://www.w3.org/2000/svg" xmlns:xlink="http://www.w3.org/1999/xlink" width="800" height="300" viewBox="0 0 3200 1200">
<defs>
  <clipPath id="clip050">
    <rect x="0" y="0" width="3200" height="1200"/>
  </clipPath>
</defs>
<path clip-path="url(#clip050)" d="M0 1200 L3200 1200 L3200 0 L0 0  Z" fill="#ffffff" fill-rule="evenodd" fill-opacity="1"/>
<defs>
  <clipPath id="clip051">
    <rect x="640" y="0" width="2241" height="1200"/>
  </clipPath>
</defs>
<path clip-path="url(#clip050)" d="M270.918 1000.1 L3089.76 1000.1 L3089.76 110.236 L270.918 110.236  Z" fill="#ffffff" fill-rule="evenodd" fill-opacity="1"/>
<defs>
  <clipPath id="clip052">
    <rect x="270" y="110" width="2820" height="891"/>
  </clipPath>
</defs>
<polyline clip-path="url(#clip052)" style="stroke:#000000; stroke-linecap:round; stroke-linejoin:round; stroke-width:2; stroke-opacity:0.1; fill:none" points="327.967,1000.1 327.967,110.236 "/>
<polyline clip-path="url(#clip052)" style="stroke:#000000; stroke-linecap:round; stroke-linejoin:round; stroke-width:2; stroke-opacity:0.1; fill:none" points="896.191,1000.1 896.191,110.236 "/>
<polyline clip-path="url(#clip052)" style="stroke:#000000; stroke-linecap:round; stroke-linejoin:round; stroke-width:2; stroke-opacity:0.1; fill:none" points="1464.42,1000.1 1464.42,110.236 "/>
<polyline clip-path="url(#clip052)" style="stroke:#000000; stroke-linecap:round; stroke-linejoin:round; stroke-width:2; stroke-opacity:0.1; fill:none" points="2032.64,1000.1 2032.64,110.236 "/>
<polyline clip-path="url(#clip052)" style="stroke:#000000; stroke-linecap:round; stroke-linejoin:round; stroke-width:2; stroke-opacity:0.1; fill:none" points="2600.86,1000.1 2600.86,110.236 "/>
<polyline clip-path="url(#clip050)" style="stroke:#000000; stroke-linecap:round; stroke-linejoin:round; stroke-width:4; stroke-opacity:1; fill:none" points="270.918,1000.1 3089.76,1000.1 "/>
<polyline clip-path="url(#clip050)" style="stroke:#000000; stroke-linecap:round; stroke-linejoin:round; stroke-width:4; stroke-opacity:1; fill:none" points="327.967,1000.1 327.967,981.2 "/>
<polyline clip-path="url(#clip050)" style="stroke:#000000; stroke-linecap:round; stroke-linejoin:round; stroke-width:4; stroke-opacity:1; fill:none" points="896.191,1000.1 896.191,981.2 "/>
<polyline clip-path="url(#clip050)" style="stroke:#000000; stroke-linecap:round; stroke-linejoin:round; stroke-width:4; stroke-opacity:1; fill:none" points="1464.42,1000.1 1464.42,981.2 "/>
<polyline clip-path="url(#clip050)" style="stroke:#000000; stroke-linecap:round; stroke-linejoin:round; stroke-width:4; stroke-opacity:1; fill:none" points="2032.64,1000.1 2032.64,981.2 "/>
<polyline clip-path="url(#clip050)" style="stroke:#000000; stroke-linecap:round; stroke-linejoin:round; stroke-width:4; stroke-opacity:1; fill:none" points="2600.86,1000.1 2600.86,981.2 "/>
<path clip-path="url(#clip050)" d="M327.967 1037.42 Q324.356 1037.42 322.528 1040.98 Q320.722 1044.52 320.722 1051.65 Q320.722 1058.76 322.528 1062.32 Q324.356 1065.87 327.967 1065.87 Q331.602 1065.87 333.407 1062.32 Q335.236 1058.76 335.236 1051.65 Q335.236 1044.52 333.407 1040.98 Q331.602 1037.42 327.967 1037.42 M327.967 1033.71 Q333.777 1033.71 336.833 1038.32 Q339.912 1042.9 339.912 1051.65 Q339.912 1060.38 336.833 1064.99 Q333.777 1069.57 327.967 1069.57 Q322.157 1069.57 319.078 1064.99 Q316.023 1060.38 316.023 1051.65 Q316.023 1042.9 319.078 1038.32 Q322.157 1033.71 327.967 1033.71 Z" fill="#000000" fill-rule="nonzero" fill-opacity="1" /><path clip-path="url(#clip050)" d="M875.462 1064.96 L891.782 1064.96 L891.782 1068.9 L869.837 1068.9 L869.837 1064.96 Q872.499 1062.21 877.083 1057.58 Q881.689 1052.93 882.87 1051.58 Q885.115 1049.06 885.995 1047.32 Q886.898 1045.56 886.898 1043.87 Q886.898 1041.12 884.953 1039.38 Q883.032 1037.65 879.93 1037.65 Q877.731 1037.65 875.277 1038.41 Q872.847 1039.18 870.069 1040.73 L870.069 1036 Q872.893 1034.87 875.347 1034.29 Q877.8 1033.71 879.837 1033.71 Q885.208 1033.71 888.402 1036.4 Q891.597 1039.08 891.597 1043.57 Q891.597 1045.7 890.786 1047.62 Q889.999 1049.52 887.893 1052.12 Q887.314 1052.79 884.212 1056 Q881.111 1059.2 875.462 1064.96 Z" fill="#000000" fill-rule="nonzero" fill-opacity="1" /><path clip-path="url(#clip050)" d="M901.643 1034.34 L919.999 1034.34 L919.999 1038.27 L905.925 1038.27 L905.925 1046.75 Q906.944 1046.4 907.962 1046.24 Q908.981 1046.05 909.999 1046.05 Q915.786 1046.05 919.166 1049.22 Q922.545 1052.39 922.545 1057.81 Q922.545 1063.39 919.073 1066.49 Q915.601 1069.57 909.282 1069.57 Q907.106 1069.57 904.837 1069.2 Q902.592 1068.83 900.184 1068.09 L900.184 1063.39 Q902.268 1064.52 904.49 1065.08 Q906.712 1065.63 909.189 1065.63 Q913.194 1065.63 915.532 1063.53 Q917.87 1061.42 917.87 1057.81 Q917.87 1054.2 915.532 1052.09 Q913.194 1049.99 909.189 1049.99 Q907.314 1049.99 905.439 1050.4 Q903.587 1050.82 901.643 1051.7 L901.643 1034.34 Z" fill="#000000" fill-rule="nonzero" fill-opacity="1" /><path clip-path="url(#clip050)" d="M1439.11 1034.34 L1457.47 1034.34 L1457.47 1038.27 L1443.4 1038.27 L1443.4 1046.75 Q1444.42 1046.4 1445.43 1046.24 Q1446.45 1046.05 1447.47 1046.05 Q1453.26 1046.05 1456.64 1049.22 Q1460.02 1052.39 1460.02 1057.81 Q1460.02 1063.39 1456.55 1066.49 Q1453.07 1069.57 1446.75 1069.57 Q1444.58 1069.57 1442.31 1069.2 Q1440.06 1068.83 1437.66 1068.09 L1437.66 1063.39 Q1439.74 1064.52 1441.96 1065.08 Q1444.18 1065.63 1446.66 1065.63 Q1450.67 1065.63 1453 1063.53 Q1455.34 1061.42 1455.34 1057.81 Q1455.34 1054.2 1453 1052.09 Q1450.67 1049.99 1446.66 1049.99 Q1444.79 1049.99 1442.91 1050.4 Q1441.06 1050.82 1439.11 1051.7 L1439.11 1034.34 Z" fill="#000000" fill-rule="nonzero" fill-opacity="1" /><path clip-path="url(#clip050)" d="M1479.23 1037.42 Q1475.62 1037.42 1473.79 1040.98 Q1471.98 1044.52 1471.98 1051.65 Q1471.98 1058.76 1473.79 1062.32 Q1475.62 1065.87 1479.23 1065.87 Q1482.86 1065.87 1484.67 1062.32 Q1486.5 1058.76 1486.5 1051.65 Q1486.5 1044.52 1484.67 1040.98 Q1482.86 1037.42 1479.23 1037.42 M1479.23 1033.71 Q1485.04 1033.71 1488.1 1038.32 Q1491.17 1042.9 1491.17 1051.65 Q1491.17 1060.38 1488.1 1064.99 Q1485.04 1069.57 1479.23 1069.57 Q1473.42 1069.57 1470.34 1064.99 Q1467.29 1060.38 1467.29 1051.65 Q1467.29 1042.9 1470.34 1038.32 Q1473.42 1033.71 1479.23 1033.71 Z" fill="#000000" fill-rule="nonzero" fill-opacity="1" /><path clip-path="url(#clip050)" d="M2006.49 1034.34 L2028.72 1034.34 L2028.72 1036.33 L2016.17 1068.9 L2011.29 1068.9 L2023.09 1038.27 L2006.49 1038.27 L2006.49 1034.34 Z" fill="#000000" fill-rule="nonzero" fill-opacity="1" /><path clip-path="url(#clip050)" d="M2037.88 1034.34 L2056.24 1034.34 L2056.24 1038.27 L2042.17 1038.27 L2042.17 1046.75 Q2043.18 1046.4 2044.2 1046.24 Q2045.22 1046.05 2046.24 1046.05 Q2052.03 1046.05 2055.41 1049.22 Q2058.79 1052.39 2058.79 1057.81 Q2058.79 1063.39 2055.31 1066.49 Q2051.84 1069.57 2045.52 1069.57 Q2043.35 1069.57 2041.08 1069.2 Q2038.83 1068.83 2036.42 1068.09 L2036.42 1063.39 Q2038.51 1064.52 2040.73 1065.08 Q2042.95 1065.63 2045.43 1065.63 Q2049.43 1065.63 2051.77 1063.53 Q2054.11 1061.42 2054.11 1057.81 Q2054.11 1054.2 2051.77 1052.09 Q2049.43 1049.99 2045.43 1049.99 Q2043.55 1049.99 2041.68 1050.4 Q2039.83 1050.82 2037.88 1051.7 L2037.88 1034.34 Z" fill="#000000" fill-rule="nonzero" fill-opacity="1" /><path clip-path="url(#clip050)" d="M2560.47 1064.96 L2568.11 1064.96 L2568.11 1038.6 L2559.8 1040.26 L2559.8 1036 L2568.06 1034.34 L2572.74 1034.34 L2572.74 1064.96 L2580.38 1064.96 L2580.38 1068.9 L2560.47 1068.9 L2560.47 1064.96 Z" fill="#000000" fill-rule="nonzero" fill-opacity="1" /><path clip-path="url(#clip050)" d="M2599.82 1037.42 Q2596.21 1037.42 2594.38 1040.98 Q2592.58 1044.52 2592.58 1051.65 Q2592.58 1058.76 2594.38 1062.32 Q2596.21 1065.87 2599.82 1065.87 Q2603.46 1065.87 2605.26 1062.32 Q2607.09 1058.76 2607.09 1051.65 Q2607.09 1044.52 2605.26 1040.98 Q2603.46 1037.42 2599.82 1037.42 M2599.82 1033.71 Q2605.63 1033.71 2608.69 1038.32 Q2611.77 1042.9 2611.77 1051.65 Q2611.77 1060.38 2608.69 1064.99 Q2605.63 1069.57 2599.82 1069.57 Q2594.01 1069.57 2590.93 1064.99 Q2587.88 1060.38 2587.88 1051.65 Q2587.88 1042.9 2590.93 1038.32 Q2594.01 1033.71 2599.82 1033.71 Z" fill="#000000" fill-rule="nonzero" fill-opacity="1" /><path clip-path="url(#clip050)" d="M2629.98 1037.42 Q2626.37 1037.42 2624.54 1040.98 Q2622.74 1044.52 2622.74 1051.65 Q2622.74 1058.76 2624.54 1062.32 Q2626.37 1065.87 2629.98 1065.87 Q2633.62 1065.87 2635.42 1062.32 Q2637.25 1058.76 2637.25 1051.65 Q2637.25 1044.52 2635.42 1040.98 Q2633.62 1037.42 2629.98 1037.42 M2629.98 1033.71 Q2635.79 1033.71 2638.85 1038.32 Q2641.93 1042.9 2641.93 1051.65 Q2641.93 1060.38 2638.85 1064.99 Q2635.79 1069.57 2629.98 1069.57 Q2624.17 1069.57 2621.1 1064.99 Q2618.04 1060.38 2618.04 1051.65 Q2618.04 1042.9 2621.1 1038.32 Q2624.17 1033.71 2629.98 1033.71 Z" fill="#000000" fill-rule="nonzero" fill-opacity="1" /><path clip-path="url(#clip050)" d="M1556.64 1109.44 L1563.07 1109.44 L1563.07 1151.55 L1586.21 1151.55 L1586.21 1156.96 L1556.64 1156.96 L1556.64 1109.44 Z" fill="#000000" fill-rule="nonzero" fill-opacity="1" /><path clip-path="url(#clip050)" d="M1592.7 1121.31 L1598.56 1121.31 L1598.56 1156.96 L1592.7 1156.96 L1592.7 1121.31 M1592.7 1107.44 L1598.56 1107.44 L1598.56 1114.85 L1592.7 1114.85 L1592.7 1107.44 Z" fill="#000000" fill-rule="nonzero" fill-opacity="1" /><path clip-path="url(#clip050)" d="M1640.44 1135.45 L1640.44 1156.96 L1634.59 1156.96 L1634.59 1135.64 Q1634.59 1130.58 1632.61 1128.06 Q1630.64 1125.55 1626.69 1125.55 Q1621.95 1125.55 1619.21 1128.57 Q1616.48 1131.59 1616.48 1136.81 L1616.48 1156.96 L1610.59 1156.96 L1610.59 1121.31 L1616.48 1121.31 L1616.48 1126.85 Q1618.58 1123.64 1621.41 1122.05 Q1624.27 1120.45 1628 1120.45 Q1634.14 1120.45 1637.29 1124.27 Q1640.44 1128.06 1640.44 1135.45 Z" fill="#000000" fill-rule="nonzero" fill-opacity="1" /><path clip-path="url(#clip050)" d="M1682.62 1137.67 L1682.62 1140.54 L1655.69 1140.54 Q1656.07 1146.59 1659.32 1149.77 Q1662.6 1152.92 1668.42 1152.92 Q1671.79 1152.92 1674.95 1152.09 Q1678.13 1151.26 1681.25 1149.61 L1681.25 1155.15 Q1678.1 1156.48 1674.79 1157.18 Q1671.48 1157.88 1668.07 1157.88 Q1659.54 1157.88 1654.54 1152.92 Q1649.58 1147.95 1649.58 1139.49 Q1649.58 1130.74 1654.29 1125.61 Q1659.03 1120.45 1667.05 1120.45 Q1674.25 1120.45 1678.42 1125.1 Q1682.62 1129.72 1682.62 1137.67 M1676.76 1135.95 Q1676.7 1131.15 1674.05 1128.28 Q1671.44 1125.42 1667.12 1125.42 Q1662.21 1125.42 1659.25 1128.19 Q1656.33 1130.96 1655.88 1135.99 L1676.76 1135.95 Z" fill="#000000" fill-rule="nonzero" fill-opacity="1" /><path clip-path="url(#clip050)" d="M1708.43 1139.04 Q1701.33 1139.04 1698.59 1140.67 Q1695.86 1142.29 1695.86 1146.2 Q1695.86 1149.32 1697.89 1151.17 Q1699.96 1152.98 1703.5 1152.98 Q1708.37 1152.98 1711.29 1149.55 Q1714.25 1146.08 1714.25 1140.35 L1714.25 1139.04 L1708.43 1139.04 M1720.11 1136.62 L1720.11 1156.96 L1714.25 1156.96 L1714.25 1151.55 Q1712.25 1154.8 1709.26 1156.36 Q1706.27 1157.88 1701.94 1157.88 Q1696.46 1157.88 1693.22 1154.83 Q1690 1151.74 1690 1146.59 Q1690 1140.57 1694.01 1137.51 Q1698.05 1134.46 1706.04 1134.46 L1714.25 1134.46 L1714.25 1133.89 Q1714.25 1129.84 1711.58 1127.65 Q1708.94 1125.42 1704.13 1125.42 Q1701.08 1125.42 1698.18 1126.15 Q1695.28 1126.88 1692.61 1128.35 L1692.61 1122.94 Q1695.83 1121.7 1698.85 1121.09 Q1701.87 1120.45 1704.74 1120.45 Q1712.47 1120.45 1716.29 1124.46 Q1720.11 1128.48 1720.11 1136.62 Z" fill="#000000" fill-rule="nonzero" fill-opacity="1" /><path clip-path="url(#clip050)" d="M1755.63 1138.72 Q1755.63 1132.36 1752.99 1128.86 Q1750.38 1125.36 1745.64 1125.36 Q1740.93 1125.36 1738.28 1128.86 Q1735.67 1132.36 1735.67 1138.72 Q1735.67 1145.06 1738.28 1148.56 Q1740.93 1152.06 1745.64 1152.06 Q1750.38 1152.06 1752.99 1148.56 Q1755.63 1145.06 1755.63 1138.72 M1761.49 1152.54 Q1761.49 1161.64 1757.45 1166.06 Q1753.4 1170.52 1745.06 1170.52 Q1741.98 1170.52 1739.24 1170.04 Q1736.5 1169.6 1733.92 1168.64 L1733.92 1162.95 Q1736.5 1164.35 1739.02 1165.01 Q1741.53 1165.68 1744.14 1165.68 Q1749.9 1165.68 1752.77 1162.66 Q1755.63 1159.67 1755.63 1153.59 L1755.63 1150.69 Q1753.82 1153.84 1750.98 1155.4 Q1748.15 1156.96 1744.2 1156.96 Q1737.65 1156.96 1733.64 1151.96 Q1729.63 1146.97 1729.63 1138.72 Q1729.63 1130.45 1733.64 1125.45 Q1737.65 1120.45 1744.2 1120.45 Q1748.15 1120.45 1750.98 1122.01 Q1753.82 1123.57 1755.63 1126.72 L1755.63 1121.31 L1761.49 1121.31 L1761.49 1152.54 Z" fill="#000000" fill-rule="nonzero" fill-opacity="1" /><path clip-path="url(#clip050)" d="M1804.04 1137.67 L1804.04 1140.54 L1777.12 1140.54 Q1777.5 1146.59 1780.74 1149.77 Q1784.02 1152.92 1789.85 1152.92 Q1793.22 1152.92 1796.37 1152.09 Q1799.55 1151.26 1802.67 1149.61 L1802.67 1155.15 Q1799.52 1156.48 1796.21 1157.18 Q1792.9 1157.88 1789.5 1157.88 Q1780.97 1157.88 1775.97 1152.92 Q1771 1147.95 1771 1139.49 Q1771 1130.74 1775.71 1125.61 Q1780.46 1120.45 1788.48 1120.45 Q1795.67 1120.45 1799.84 1125.1 Q1804.04 1129.72 1804.04 1137.67 M1798.19 1135.95 Q1798.12 1131.15 1795.48 1128.28 Q1792.87 1125.42 1788.54 1125.42 Q1783.64 1125.42 1780.68 1128.19 Q1777.75 1130.96 1777.31 1135.99 L1798.19 1135.95 Z" fill="#000000" fill-rule="nonzero" fill-opacity="1" /><polyline clip-path="url(#clip052)" style="stroke:#000000; stroke-linecap:round; stroke-linejoin:round; stroke-width:2; stroke-opacity:0.1; fill:none" points="270.918,1000.1 3089.76,1000.1 "/>
<polyline clip-path="url(#clip052)" style="stroke:#000000; stroke-linecap:round; stroke-linejoin:round; stroke-width:2; stroke-opacity:0.1; fill:none" points="270.918,671.931 3089.76,671.931 "/>
<polyline clip-path="url(#clip052)" style="stroke:#000000; stroke-linecap:round; stroke-linejoin:round; stroke-width:2; stroke-opacity:0.1; fill:none" points="270.918,343.764 3089.76,343.764 "/>
<polyline clip-path="url(#clip050)" style="stroke:#000000; stroke-linecap:round; stroke-linejoin:round; stroke-width:4; stroke-opacity:1; fill:none" points="270.918,1000.1 270.918,110.236 "/>
<polyline clip-path="url(#clip050)" style="stroke:#000000; stroke-linecap:round; stroke-linejoin:round; stroke-width:4; stroke-opacity:1; fill:none" points="270.918,1000.1 289.815,1000.1 "/>
<polyline clip-path="url(#clip050)" style="stroke:#000000; stroke-linecap:round; stroke-linejoin:round; stroke-width:4; stroke-opacity:1; fill:none" points="270.918,671.931 289.815,671.931 "/>
<polyline clip-path="url(#clip050)" style="stroke:#000000; stroke-linecap:round; stroke-linejoin:round; stroke-width:4; stroke-opacity:1; fill:none" points="270.918,343.764 289.815,343.764 "/>
<path clip-path="url(#clip050)" d="M154.902 1019.89 L162.54 1019.89 L162.54 993.525 L154.23 995.191 L154.23 990.932 L162.494 989.265 L167.17 989.265 L167.17 1019.89 L174.809 1019.89 L174.809 1023.83 L154.902 1023.83 L154.902 1019.89 Z" fill="#000000" fill-rule="nonzero" fill-opacity="1" /><path clip-path="url(#clip050)" d="M194.253 992.344 Q190.642 992.344 188.813 995.909 Q187.008 999.45 187.008 1006.58 Q187.008 1013.69 188.813 1017.25 Q190.642 1020.79 194.253 1020.79 Q197.887 1020.79 199.693 1017.25 Q201.522 1013.69 201.522 1006.58 Q201.522 999.45 199.693 995.909 Q197.887 992.344 194.253 992.344 M194.253 988.64 Q200.063 988.64 203.119 993.247 Q206.198 997.83 206.198 1006.58 Q206.198 1015.31 203.119 1019.91 Q200.063 1024.5 194.253 1024.5 Q188.443 1024.5 185.364 1019.91 Q182.309 1015.31 182.309 1006.58 Q182.309 997.83 185.364 993.247 Q188.443 988.64 194.253 988.64 Z" fill="#000000" fill-rule="nonzero" fill-opacity="1" /><path clip-path="url(#clip050)" d="M206.743 993.218 L212.95 993.218 L212.95 971.796 L206.198 973.15 L206.198 969.689 L212.912 968.335 L216.711 968.335 L216.711 993.218 L222.918 993.218 L222.918 996.415 L206.743 996.415 L206.743 993.218 Z" fill="#000000" fill-rule="nonzero" fill-opacity="1" /><path clip-path="url(#clip050)" d="M153.792 691.723 L161.431 691.723 L161.431 665.358 L153.121 667.025 L153.121 662.765 L161.384 661.099 L166.06 661.099 L166.06 691.723 L173.699 691.723 L173.699 695.659 L153.792 695.659 L153.792 691.723 Z" fill="#000000" fill-rule="nonzero" fill-opacity="1" /><path clip-path="url(#clip050)" d="M193.143 664.177 Q189.532 664.177 187.704 667.742 Q185.898 671.284 185.898 678.413 Q185.898 685.52 187.704 689.085 Q189.532 692.626 193.143 692.626 Q196.778 692.626 198.583 689.085 Q200.412 685.52 200.412 678.413 Q200.412 671.284 198.583 667.742 Q196.778 664.177 193.143 664.177 M193.143 660.474 Q198.954 660.474 202.009 665.08 Q205.088 669.663 205.088 678.413 Q205.088 687.14 202.009 691.747 Q198.954 696.33 193.143 696.33 Q187.333 696.33 184.255 691.747 Q181.199 687.14 181.199 678.413 Q181.199 669.663 184.255 665.08 Q187.333 660.474 193.143 660.474 Z" fill="#000000" fill-rule="nonzero" fill-opacity="1" /><path clip-path="url(#clip050)" d="M209.658 665.051 L222.918 665.051 L222.918 668.248 L205.088 668.248 L205.088 665.051 Q207.251 662.813 210.975 659.051 Q214.717 655.271 215.677 654.18 Q217.501 652.13 218.216 650.719 Q218.949 649.29 218.949 647.917 Q218.949 645.679 217.369 644.268 Q215.808 642.858 213.288 642.858 Q211.501 642.858 209.508 643.478 Q207.533 644.099 205.276 645.359 L205.276 641.522 Q207.57 640.601 209.564 640.131 Q211.558 639.66 213.213 639.66 Q217.576 639.66 220.172 641.842 Q222.767 644.024 222.767 647.673 Q222.767 649.403 222.109 650.964 Q221.469 652.506 219.758 654.613 Q219.288 655.158 216.767 657.772 Q214.247 660.368 209.658 665.051 Z" fill="#000000" fill-rule="nonzero" fill-opacity="1" /><path clip-path="url(#clip050)" d="M153.134 363.557 L160.772 363.557 L160.772 337.191 L152.462 338.858 L152.462 334.599 L160.726 332.932 L165.402 332.932 L165.402 363.557 L173.041 363.557 L173.041 367.492 L153.134 367.492 L153.134 363.557 Z" fill="#000000" fill-rule="nonzero" fill-opacity="1" /><path clip-path="url(#clip050)" d="M192.485 336.011 Q188.874 336.011 187.045 339.575 Q185.24 343.117 185.24 350.247 Q185.24 357.353 187.045 360.918 Q188.874 364.46 192.485 364.46 Q196.119 364.46 197.925 360.918 Q199.754 357.353 199.754 350.247 Q199.754 343.117 197.925 339.575 Q196.119 336.011 192.485 336.011 M192.485 332.307 Q198.295 332.307 201.351 336.913 Q204.43 341.497 204.43 350.247 Q204.43 358.974 201.351 363.58 Q198.295 368.163 192.485 368.163 Q186.675 368.163 183.596 363.58 Q180.541 358.974 180.541 350.247 Q180.541 341.497 183.596 336.913 Q186.675 332.307 192.485 332.307 Z" fill="#000000" fill-rule="nonzero" fill-opacity="1" /><path clip-path="url(#clip050)" d="M217.125 324.941 Q219.852 325.524 221.375 327.368 Q222.918 329.211 222.918 331.919 Q222.918 336.076 220.059 338.351 Q217.2 340.627 211.934 340.627 Q210.166 340.627 208.285 340.27 Q206.423 339.931 204.43 339.235 L204.43 335.568 Q206.009 336.489 207.89 336.96 Q209.771 337.43 211.821 337.43 Q215.395 337.43 217.256 336.019 Q219.137 334.609 219.137 331.919 Q219.137 329.436 217.388 328.045 Q215.658 326.634 212.555 326.634 L209.282 326.634 L209.282 323.512 L212.705 323.512 Q215.507 323.512 216.993 322.402 Q218.479 321.274 218.479 319.167 Q218.479 317.004 216.937 315.857 Q215.413 314.691 212.555 314.691 Q210.994 314.691 209.207 315.03 Q207.42 315.368 205.276 316.083 L205.276 312.697 Q207.439 312.096 209.32 311.795 Q211.219 311.494 212.893 311.494 Q217.219 311.494 219.739 313.469 Q222.259 315.425 222.259 318.772 Q222.259 321.105 220.924 322.722 Q219.589 324.321 217.125 324.941 Z" fill="#000000" fill-rule="nonzero" fill-opacity="1" /><path clip-path="url(#clip050)" d="M42.6863 868.105 L42.6863 838.059 L48.0971 838.059 L48.0971 861.676 L62.1653 861.676 L62.1653 839.046 L67.5762 839.046 L67.5762 861.676 L84.7954 861.676 L84.7954 837.486 L90.2063 837.486 L90.2063 868.105 L42.6863 868.105 Z" fill="#000000" fill-rule="nonzero" fill-opacity="1" /><path clip-path="url(#clip050)" d="M44.2459 798.432 L50.5161 798.432 Q48.7655 802.093 47.9062 805.339 Q47.0468 808.586 47.0468 811.609 Q47.0468 816.861 49.0838 819.726 Q51.1208 822.558 54.8766 822.558 Q58.0276 822.558 59.6509 820.681 Q61.2423 818.771 62.229 813.487 L63.0247 809.604 Q64.3933 802.411 67.8627 799.005 Q71.3001 795.568 77.0929 795.568 Q83.9997 795.568 87.5645 800.215 Q91.1293 804.83 91.1293 813.774 Q91.1293 817.148 90.3654 820.967 Q89.6015 824.755 88.1056 828.829 L81.4853 828.829 Q83.6814 824.914 84.7954 821.158 Q85.9094 817.402 85.9094 813.774 Q85.9094 808.267 83.7451 805.276 Q81.5808 802.284 77.5704 802.284 Q74.0692 802.284 72.0958 804.448 Q70.1225 806.581 69.1358 811.482 L68.3719 815.397 Q66.9396 822.59 63.8841 825.805 Q60.8285 829.02 55.3859 829.02 Q49.0838 829.02 45.4554 824.596 Q41.8269 820.14 41.8269 812.342 Q41.8269 809 42.4317 805.53 Q43.0364 802.061 44.2459 798.432 Z" fill="#000000" fill-rule="nonzero" fill-opacity="1" /><path clip-path="url(#clip050)" d="M44.2459 757.055 L50.5161 757.055 Q48.7655 760.716 47.9062 763.962 Q47.0468 767.209 47.0468 770.232 Q47.0468 775.484 49.0838 778.349 Q51.1208 781.181 54.8766 781.181 Q58.0276 781.181 59.6509 779.303 Q61.2423 777.394 62.229 772.11 L63.0247 768.227 Q64.3933 761.034 67.8627 757.628 Q71.3001 754.191 77.0929 754.191 Q83.9997 754.191 87.5645 758.838 Q91.1293 763.453 91.1293 772.397 Q91.1293 775.771 90.3654 779.59 Q89.6015 783.378 88.1056 787.452 L81.4853 787.452 Q83.6814 783.537 84.7954 779.781 Q85.9094 776.025 85.9094 772.397 Q85.9094 766.89 83.7451 763.898 Q81.5808 760.907 77.5704 760.907 Q74.0692 760.907 72.0958 763.071 Q70.1225 765.203 69.1358 770.105 L68.3719 774.02 Q66.9396 781.213 63.8841 784.428 Q60.8285 787.643 55.3859 787.643 Q49.0838 787.643 45.4554 783.218 Q41.8269 778.762 41.8269 770.964 Q41.8269 767.622 42.4317 764.153 Q43.0364 760.684 44.2459 757.055 Z" fill="#000000" fill-rule="nonzero" fill-opacity="1" /><path clip-path="url(#clip050)" d="M82.1218 742.923 L82.1218 736.208 L90.2063 736.208 L90.2063 742.923 L82.1218 742.923 M56.4999 742.923 L56.4999 736.208 L64.5843 736.208 L64.5843 742.923 L56.4999 742.923 Z" fill="#000000" fill-rule="nonzero" fill-opacity="1" /><path clip-path="url(#clip050)" d="M42.6863 702.215 L42.6863 695.754 L71.5548 695.754 Q79.1936 695.754 82.5674 692.985 Q85.9094 690.215 85.9094 684.009 Q85.9094 677.834 82.5674 675.065 Q79.1936 672.296 71.5548 672.296 L42.6863 672.296 L42.6863 665.835 L72.3505 665.835 Q81.6444 665.835 86.3869 670.45 Q91.1293 675.033 91.1293 684.009 Q91.1293 693.016 86.3869 697.631 Q81.6444 702.215 72.3505 702.215 L42.6863 702.215 Z" fill="#000000" fill-rule="nonzero" fill-opacity="1" /><path clip-path="url(#clip050)" d="M44.2459 625.285 L50.5161 625.285 Q48.7655 628.946 47.9062 632.192 Q47.0468 635.439 47.0468 638.462 Q47.0468 643.714 49.0838 646.579 Q51.1208 649.411 54.8766 649.411 Q58.0276 649.411 59.6509 647.533 Q61.2423 645.624 62.229 640.34 L63.0247 636.457 Q64.3933 629.264 67.8627 625.858 Q71.3001 622.421 77.0929 622.421 Q83.9997 622.421 87.5645 627.068 Q91.1293 631.683 91.1293 640.627 Q91.1293 644 90.3654 647.82 Q89.6015 651.607 88.1056 655.681 L81.4853 655.681 Q83.6814 651.767 84.7954 648.011 Q85.9094 644.255 85.9094 640.627 Q85.9094 635.12 83.7451 632.128 Q81.5808 629.136 77.5704 629.136 Q74.0692 629.136 72.0958 631.301 Q70.1225 633.433 69.1358 638.335 L68.3719 642.25 Q66.9396 649.443 63.8841 652.658 Q60.8285 655.872 55.3859 655.872 Q49.0838 655.872 45.4554 651.448 Q41.8269 646.992 41.8269 639.194 Q41.8269 635.852 42.4317 632.383 Q43.0364 628.914 44.2459 625.285 Z" fill="#000000" fill-rule="nonzero" fill-opacity="1" /><path clip-path="url(#clip050)" d="M49.0202 595.303 L72.6688 604.024 L72.6688 586.55 L49.0202 595.303 M42.6863 598.931 L42.6863 591.642 L90.2063 573.532 L90.2063 580.216 L78.016 584.545 L78.016 605.965 L90.2063 610.294 L90.2063 617.073 L42.6863 598.931 Z" fill="#000000" fill-rule="nonzero" fill-opacity="1" /><path clip-path="url(#clip050)" d="M82.1218 565.352 L82.1218 558.636 L87.5963 558.636 L97.7815 563.856 L97.7815 567.962 L87.5963 565.352 L82.1218 565.352 Z" fill="#000000" fill-rule="nonzero" fill-opacity="1" /><path clip-path="url(#clip050)" d="M44.4369 519.614 L54.5583 519.614 L54.5583 507.551 L59.1098 507.551 L59.1098 519.614 L78.4616 519.614 Q82.8221 519.614 84.0634 518.437 Q85.3047 517.227 85.3047 513.567 L85.3047 507.551 L90.2063 507.551 L90.2063 513.567 Q90.2063 520.347 87.6918 522.925 Q85.1455 525.503 78.4616 525.503 L59.1098 525.503 L59.1098 529.8 L54.5583 529.8 L54.5583 525.503 L44.4369 525.503 L44.4369 519.614 Z" fill="#000000" fill-rule="nonzero" fill-opacity="1" /><path clip-path="url(#clip050)" d="M54.5583 499.849 L54.5583 493.993 L90.2063 493.993 L90.2063 499.849 L54.5583 499.849 M40.6811 499.849 L40.6811 493.993 L48.0971 493.993 L48.0971 499.849 L40.6811 499.849 Z" fill="#000000" fill-rule="nonzero" fill-opacity="1" /><path clip-path="url(#clip050)" d="M61.4015 453.984 Q57.4547 451.788 55.5768 448.732 Q53.699 445.677 53.699 441.539 Q53.699 435.969 57.6139 432.945 Q61.4969 429.922 68.6902 429.922 L90.2063 429.922 L90.2063 435.81 L68.8812 435.81 Q63.7568 435.81 61.2741 437.624 Q58.7915 439.438 58.7915 443.162 Q58.7915 447.714 61.8152 450.356 Q64.8389 452.997 70.0588 452.997 L90.2063 452.997 L90.2063 458.886 L68.8812 458.886 Q63.7249 458.886 61.2741 460.7 Q58.7915 462.514 58.7915 466.302 Q58.7915 470.79 61.8471 473.431 Q64.8708 476.073 70.0588 476.073 L90.2063 476.073 L90.2063 481.961 L54.5583 481.961 L54.5583 476.073 L60.0965 476.073 Q56.8182 474.068 55.2586 471.267 Q53.699 468.466 53.699 464.615 Q53.699 460.732 55.6723 458.026 Q57.6457 455.289 61.4015 453.984 Z" fill="#000000" fill-rule="nonzero" fill-opacity="1" /><path clip-path="url(#clip050)" d="M70.9182 387.749 L73.7828 387.749 L73.7828 414.676 Q79.8302 414.294 83.013 411.047 Q86.1641 407.769 86.1641 401.944 Q86.1641 398.571 85.3365 395.42 Q84.509 392.237 82.8539 389.118 L88.3921 389.118 Q89.7289 392.269 90.4291 395.579 Q91.1293 398.889 91.1293 402.295 Q91.1293 410.825 86.1641 415.822 Q81.1988 420.787 72.7324 420.787 Q63.9796 420.787 58.8552 416.076 Q53.699 411.334 53.699 403.313 Q53.699 396.12 58.3459 391.95 Q62.9611 387.749 70.9182 387.749 M69.1995 393.605 Q64.3933 393.669 61.5288 396.311 Q58.6642 398.921 58.6642 403.249 Q58.6642 408.151 61.4333 411.111 Q64.2024 414.039 69.2313 414.485 L69.1995 393.605 Z" fill="#000000" fill-rule="nonzero" fill-opacity="1" /><path clip-path="url(#clip050)" d="M82.1218 376.641 L82.1218 369.925 L90.2063 369.925 L90.2063 376.641 L82.1218 376.641 M56.4999 376.641 L56.4999 369.925 L64.5843 369.925 L64.5843 376.641 L56.4999 376.641 Z" fill="#000000" fill-rule="nonzero" fill-opacity="1" /><path clip-path="url(#clip050)" d="M84.7954 354.233 L84.7954 343.73 L48.5427 343.73 L50.8344 355.156 L44.9779 355.156 L42.6863 343.794 L42.6863 337.364 L84.7954 337.364 L84.7954 326.861 L90.2063 326.861 L90.2063 354.233 L84.7954 354.233 Z" fill="#000000" fill-rule="nonzero" fill-opacity="1" /><path clip-path="url(#clip050)" d="M46.9195 300.125 Q46.9195 305.09 51.8211 307.605 Q56.6908 310.087 66.494 310.087 Q76.2654 310.087 81.167 307.605 Q86.0367 305.09 86.0367 300.125 Q86.0367 295.128 81.167 292.645 Q76.2654 290.131 66.494 290.131 Q56.6908 290.131 51.8211 292.645 Q46.9195 295.128 46.9195 300.125 M41.8269 300.125 Q41.8269 292.136 48.1608 287.935 Q54.4628 283.701 66.494 283.701 Q78.4934 283.701 84.8273 287.935 Q91.1293 292.136 91.1293 300.125 Q91.1293 308.114 84.8273 312.347 Q78.4934 316.548 66.494 316.548 Q54.4628 316.548 48.1608 312.347 Q41.8269 308.114 41.8269 300.125 Z" fill="#000000" fill-rule="nonzero" fill-opacity="1" /><path clip-path="url(#clip050)" d="M46.9195 258.652 Q46.9195 263.618 51.8211 266.132 Q56.6908 268.615 66.494 268.615 Q76.2654 268.615 81.167 266.132 Q86.0367 263.618 86.0367 258.652 Q86.0367 253.655 81.167 251.173 Q76.2654 248.658 66.494 248.658 Q56.6908 248.658 51.8211 251.173 Q46.9195 253.655 46.9195 258.652 M41.8269 258.652 Q41.8269 250.663 48.1608 246.462 Q54.4628 242.229 66.494 242.229 Q78.4934 242.229 84.8273 246.462 Q91.1293 250.663 91.1293 258.652 Q91.1293 266.641 84.8273 270.875 Q78.4934 275.076 66.494 275.076 Q54.4628 275.076 48.1608 270.875 Q41.8269 266.641 41.8269 258.652 Z" fill="#000000" fill-rule="nonzero" fill-opacity="1" /><polyline clip-path="url(#clip052)" style="stroke:#009af9; stroke-linecap:round; stroke-linejoin:round; stroke-width:4; stroke-opacity:1; fill:none" points="350.696,233.989 373.425,184.369 396.154,187.563 418.883,188.963 441.612,128.013 464.341,153.719 487.07,182.045 509.799,205.232 532.528,226.27 555.257,161.306 577.986,163.214 600.715,110.236 623.444,153.695 646.173,156.552 668.902,147.086 691.631,194.042 714.36,194.504 737.089,216.267 759.818,174.493 782.547,162.48 805.276,156.664 828.005,175.658 850.734,169.297 873.462,138.4 896.191,198.67 918.92,195.645 941.649,158.478 964.378,161.013 987.107,178.619 1009.84,147.156 1032.57,219.361 1055.29,176.352 1078.02,157.729 1100.75,203.439 1123.48,150.386 1146.21,142.256 1168.94,142.018 1191.67,149.231 1214.4,141.31 1237.13,187.708 1259.85,206.129 1282.58,136.616 1305.31,134.694 1328.04,138.348 1350.77,137.347 1373.5,174.006 1396.23,164.421 1418.96,131.773 1441.69,198.851 1464.42,170.391 1487.14,140.343 1509.87,184.877 1532.6,143.8 1555.33,166.717 1578.06,162.581 1600.79,141.738 1623.52,152.011 1646.25,164.271 1668.98,149.583 1691.71,183.683 1714.43,164.544 1737.16,122.945 1759.89,139.395 1782.62,142.205 1805.35,191.99 1828.08,163.766 1850.81,216.215 1873.54,148.295 1896.27,163.41 1918.99,161.375 1941.72,159.132 1964.45,120.054 1987.18,144.497 2009.91,182.044 2032.64,155.39 2055.37,166.802 2078.1,155.123 2100.83,170.595 2123.56,191.363 2146.28,153.72 2169.01,162.397 2191.74,164.539 2214.47,177.565 2237.2,144.032 2259.93,181.929 2282.66,184.073 2305.39,204.789 2328.12,200.607 2350.85,178.6 2373.57,179.23 2396.3,174.523 2419.03,125.943 2441.76,128.221 2464.49,149.623 2487.22,126.216 2509.95,162.219 2532.68,215.491 2555.41,166.448 2578.13,140.871 2600.86,139.922 2623.59,142.51 2646.32,152.226 2669.05,166.796 2691.78,154.151 2714.51,141.391 2737.24,184.861 2759.97,183.008 2782.7,151.004 2805.42,163.645 2828.15,177.887 2850.88,167.204 2873.61,127.925 2896.34,162.574 2919.07,142.283 2941.8,161.489 2964.53,212.906 2987.26,174.427 3009.99,158.316 "/>
</svg>
