<?xml version="1.0" encoding="utf-8"?>
<svg xmlns="http://www.w3.org/2000/svg" xmlns:xlink="http://www.w3.org/1999/xlink" width="800" height="300" viewBox="0 0 3200 1200">
<defs>
  <clipPath id="clip100">
    <rect x="0" y="0" width="3200" height="1200"/>
  </clipPath>
</defs>
<path clip-path="url(#clip100)" d="
M0 1200 L3200 1200 L3200 0 L0 0  Z
  " fill="#ffffff" fill-rule="evenodd" fill-opacity="1"/>
<defs>
  <clipPath id="clip101">
    <rect x="640" y="0" width="2241" height="1200"/>
  </clipPath>
</defs>
<path clip-path="url(#clip100)" d="
M270.918 1000.1 L3089.76 1000.1 L3089.76 110.236 L270.918 110.236  Z
  " fill="#ffffff" fill-rule="evenodd" fill-opacity="1"/>
<defs>
  <clipPath id="clip102">
    <rect x="270" y="110" width="2820" height="891"/>
  </clipPath>
</defs>
<polyline clip-path="url(#clip102)" style="stroke:#000000; stroke-linecap:round; stroke-linejoin:round; stroke-width:2; stroke-opacity:0.1; fill:none" points="
  340.144,1000.1 340.144,110.236 
  "/>
<polyline clip-path="url(#clip102)" style="stroke:#000000; stroke-linecap:round; stroke-linejoin:round; stroke-width:2; stroke-opacity:0.1; fill:none" points="
  867.78,1000.1 867.78,110.236 
  "/>
<polyline clip-path="url(#clip102)" style="stroke:#000000; stroke-linecap:round; stroke-linejoin:round; stroke-width:2; stroke-opacity:0.1; fill:none" points="
  1395.42,1000.1 1395.42,110.236 
  "/>
<polyline clip-path="url(#clip102)" style="stroke:#000000; stroke-linecap:round; stroke-linejoin:round; stroke-width:2; stroke-opacity:0.1; fill:none" points="
  1923.05,1000.1 1923.05,110.236 
  "/>
<polyline clip-path="url(#clip102)" style="stroke:#000000; stroke-linecap:round; stroke-linejoin:round; stroke-width:2; stroke-opacity:0.1; fill:none" points="
  2450.69,1000.1 2450.69,110.236 
  "/>
<polyline clip-path="url(#clip102)" style="stroke:#000000; stroke-linecap:round; stroke-linejoin:round; stroke-width:2; stroke-opacity:0.1; fill:none" points="
  2978.33,1000.1 2978.33,110.236 
  "/>
<polyline clip-path="url(#clip100)" style="stroke:#000000; stroke-linecap:round; stroke-linejoin:round; stroke-width:4; stroke-opacity:1; fill:none" points="
  270.918,1000.1 3089.76,1000.1 
  "/>
<polyline clip-path="url(#clip100)" style="stroke:#000000; stroke-linecap:round; stroke-linejoin:round; stroke-width:4; stroke-opacity:1; fill:none" points="
  340.144,1000.1 340.144,981.2 
  "/>
<polyline clip-path="url(#clip100)" style="stroke:#000000; stroke-linecap:round; stroke-linejoin:round; stroke-width:4; stroke-opacity:1; fill:none" points="
  867.78,1000.1 867.78,981.2 
  "/>
<polyline clip-path="url(#clip100)" style="stroke:#000000; stroke-linecap:round; stroke-linejoin:round; stroke-width:4; stroke-opacity:1; fill:none" points="
  1395.42,1000.1 1395.42,981.2 
  "/>
<polyline clip-path="url(#clip100)" style="stroke:#000000; stroke-linecap:round; stroke-linejoin:round; stroke-width:4; stroke-opacity:1; fill:none" points="
  1923.05,1000.1 1923.05,981.2 
  "/>
<polyline clip-path="url(#clip100)" style="stroke:#000000; stroke-linecap:round; stroke-linejoin:round; stroke-width:4; stroke-opacity:1; fill:none" points="
  2450.69,1000.1 2450.69,981.2 
  "/>
<polyline clip-path="url(#clip100)" style="stroke:#000000; stroke-linecap:round; stroke-linejoin:round; stroke-width:4; stroke-opacity:1; fill:none" points="
  2978.33,1000.1 2978.33,981.2 
  "/>
<path clip-path="url(#clip100)" d="M340.144 1037.42 Q336.532 1037.42 334.704 1040.98 Q332.898 1044.52 332.898 1051.65 Q332.898 1058.76 334.704 1062.32 Q336.532 1065.87 340.144 1065.87 Q343.778 1065.87 345.583 1062.32 Q347.412 1058.76 347.412 1051.65 Q347.412 1044.52 345.583 1040.98 Q343.778 1037.42 340.144 1037.42 M340.144 1033.71 Q345.954 1033.71 349.009 1038.32 Q352.088 1042.9 352.088 1051.65 Q352.088 1060.38 349.009 1064.99 Q345.954 1069.57 340.144 1069.57 Q334.333 1069.57 331.255 1064.99 Q328.199 1060.38 328.199 1051.65 Q328.199 1042.9 331.255 1038.32 Q334.333 1033.71 340.144 1033.71 Z" fill="#000000" fill-rule="evenodd" fill-opacity="1" /><path clip-path="url(#clip100)" d="M842.479 1034.34 L860.836 1034.34 L860.836 1038.27 L846.762 1038.27 L846.762 1046.75 Q847.78 1046.4 848.799 1046.24 Q849.817 1046.05 850.836 1046.05 Q856.623 1046.05 860.002 1049.22 Q863.382 1052.39 863.382 1057.81 Q863.382 1063.39 859.91 1066.49 Q856.438 1069.57 850.118 1069.57 Q847.942 1069.57 845.674 1069.2 Q843.429 1068.83 841.021 1068.09 L841.021 1063.39 Q843.104 1064.52 845.327 1065.08 Q847.549 1065.63 850.026 1065.63 Q854.03 1065.63 856.368 1063.53 Q858.706 1061.42 858.706 1057.81 Q858.706 1054.2 856.368 1052.09 Q854.03 1049.99 850.026 1049.99 Q848.151 1049.99 846.276 1050.4 Q844.424 1050.82 842.479 1051.7 L842.479 1034.34 Z" fill="#000000" fill-rule="evenodd" fill-opacity="1" /><path clip-path="url(#clip100)" d="M882.595 1037.42 Q878.984 1037.42 877.155 1040.98 Q875.35 1044.52 875.35 1051.65 Q875.35 1058.76 877.155 1062.32 Q878.984 1065.87 882.595 1065.87 Q886.229 1065.87 888.035 1062.32 Q889.863 1058.76 889.863 1051.65 Q889.863 1044.52 888.035 1040.98 Q886.229 1037.42 882.595 1037.42 M882.595 1033.71 Q888.405 1033.71 891.461 1038.32 Q894.539 1042.9 894.539 1051.65 Q894.539 1060.38 891.461 1064.99 Q888.405 1069.57 882.595 1069.57 Q876.785 1069.57 873.706 1064.99 Q870.651 1060.38 870.651 1051.65 Q870.651 1042.9 873.706 1038.32 Q876.785 1033.71 882.595 1033.71 Z" fill="#000000" fill-rule="evenodd" fill-opacity="1" /><path clip-path="url(#clip100)" d="M1355.02 1064.96 L1362.66 1064.96 L1362.66 1038.6 L1354.35 1040.26 L1354.35 1036 L1362.62 1034.34 L1367.29 1034.34 L1367.29 1064.96 L1374.93 1064.96 L1374.93 1068.9 L1355.02 1068.9 L1355.02 1064.96 Z" fill="#000000" fill-rule="evenodd" fill-opacity="1" /><path clip-path="url(#clip100)" d="M1394.38 1037.42 Q1390.76 1037.42 1388.94 1040.98 Q1387.13 1044.52 1387.13 1051.65 Q1387.13 1058.76 1388.94 1062.32 Q1390.76 1065.87 1394.38 1065.87 Q1398.01 1065.87 1399.82 1062.32 Q1401.64 1058.76 1401.64 1051.65 Q1401.64 1044.52 1399.82 1040.98 Q1398.01 1037.42 1394.38 1037.42 M1394.38 1033.71 Q1400.19 1033.71 1403.24 1038.32 Q1406.32 1042.9 1406.32 1051.65 Q1406.32 1060.38 1403.24 1064.99 Q1400.19 1069.57 1394.38 1069.57 Q1388.57 1069.57 1385.49 1064.99 Q1382.43 1060.38 1382.43 1051.65 Q1382.43 1042.9 1385.49 1038.32 Q1388.57 1033.71 1394.38 1033.71 Z" fill="#000000" fill-rule="evenodd" fill-opacity="1" /><path clip-path="url(#clip100)" d="M1424.54 1037.42 Q1420.93 1037.42 1419.1 1040.98 Q1417.29 1044.52 1417.29 1051.65 Q1417.29 1058.76 1419.1 1062.32 Q1420.93 1065.87 1424.54 1065.87 Q1428.17 1065.87 1429.98 1062.32 Q1431.81 1058.76 1431.81 1051.65 Q1431.81 1044.52 1429.98 1040.98 Q1428.17 1037.42 1424.54 1037.42 M1424.54 1033.71 Q1430.35 1033.71 1433.4 1038.32 Q1436.48 1042.9 1436.48 1051.65 Q1436.48 1060.38 1433.4 1064.99 Q1430.35 1069.57 1424.54 1069.57 Q1418.73 1069.57 1415.65 1064.99 Q1412.59 1060.38 1412.59 1051.65 Q1412.59 1042.9 1415.65 1038.32 Q1418.73 1033.71 1424.54 1033.71 Z" fill="#000000" fill-rule="evenodd" fill-opacity="1" /><path clip-path="url(#clip100)" d="M1882.66 1064.96 L1890.3 1064.96 L1890.3 1038.6 L1881.99 1040.26 L1881.99 1036 L1890.25 1034.34 L1894.93 1034.34 L1894.93 1064.96 L1902.57 1064.96 L1902.57 1068.9 L1882.66 1068.9 L1882.66 1064.96 Z" fill="#000000" fill-rule="evenodd" fill-opacity="1" /><path clip-path="url(#clip100)" d="M1912.06 1034.34 L1930.41 1034.34 L1930.41 1038.27 L1916.34 1038.27 L1916.34 1046.75 Q1917.36 1046.4 1918.38 1046.24 Q1919.4 1046.05 1920.41 1046.05 Q1926.2 1046.05 1929.58 1049.22 Q1932.96 1052.39 1932.96 1057.81 Q1932.96 1063.39 1929.49 1066.49 Q1926.02 1069.57 1919.7 1069.57 Q1917.52 1069.57 1915.25 1069.2 Q1913.01 1068.83 1910.6 1068.09 L1910.6 1063.39 Q1912.68 1064.52 1914.91 1065.08 Q1917.13 1065.63 1919.6 1065.63 Q1923.61 1065.63 1925.95 1063.53 Q1928.29 1061.42 1928.29 1057.81 Q1928.29 1054.2 1925.95 1052.09 Q1923.61 1049.99 1919.6 1049.99 Q1917.73 1049.99 1915.85 1050.4 Q1914 1050.82 1912.06 1051.7 L1912.06 1034.34 Z" fill="#000000" fill-rule="evenodd" fill-opacity="1" /><path clip-path="url(#clip100)" d="M1952.17 1037.42 Q1948.56 1037.42 1946.73 1040.98 Q1944.93 1044.52 1944.93 1051.65 Q1944.93 1058.76 1946.73 1062.32 Q1948.56 1065.87 1952.17 1065.87 Q1955.81 1065.87 1957.61 1062.32 Q1959.44 1058.76 1959.44 1051.65 Q1959.44 1044.52 1957.61 1040.98 Q1955.81 1037.42 1952.17 1037.42 M1952.17 1033.71 Q1957.98 1033.71 1961.04 1038.32 Q1964.12 1042.9 1964.12 1051.65 Q1964.12 1060.38 1961.04 1064.99 Q1957.98 1069.57 1952.17 1069.57 Q1946.36 1069.57 1943.28 1064.99 Q1940.23 1060.38 1940.23 1051.65 Q1940.23 1042.9 1943.28 1038.32 Q1946.36 1033.71 1952.17 1033.71 Z" fill="#000000" fill-rule="evenodd" fill-opacity="1" /><path clip-path="url(#clip100)" d="M2414.38 1064.96 L2430.7 1064.96 L2430.7 1068.9 L2408.76 1068.9 L2408.76 1064.96 Q2411.42 1062.21 2416 1057.58 Q2420.61 1052.93 2421.79 1051.58 Q2424.04 1049.06 2424.91 1047.32 Q2425.82 1045.56 2425.82 1043.87 Q2425.82 1041.12 2423.87 1039.38 Q2421.95 1037.65 2418.85 1037.65 Q2416.65 1037.65 2414.2 1038.41 Q2411.77 1039.18 2408.99 1040.73 L2408.99 1036 Q2411.81 1034.87 2414.27 1034.29 Q2416.72 1033.71 2418.76 1033.71 Q2424.13 1033.71 2427.32 1036.4 Q2430.52 1039.08 2430.52 1043.57 Q2430.52 1045.7 2429.71 1047.62 Q2428.92 1049.52 2426.81 1052.12 Q2426.23 1052.79 2423.13 1056 Q2420.03 1059.2 2414.38 1064.96 Z" fill="#000000" fill-rule="evenodd" fill-opacity="1" /><path clip-path="url(#clip100)" d="M2450.52 1037.42 Q2446.91 1037.42 2445.08 1040.98 Q2443.27 1044.52 2443.27 1051.65 Q2443.27 1058.76 2445.08 1062.32 Q2446.91 1065.87 2450.52 1065.87 Q2454.15 1065.87 2455.96 1062.32 Q2457.79 1058.76 2457.79 1051.65 Q2457.79 1044.52 2455.96 1040.98 Q2454.15 1037.42 2450.52 1037.42 M2450.52 1033.71 Q2456.33 1033.71 2459.38 1038.32 Q2462.46 1042.9 2462.46 1051.65 Q2462.46 1060.38 2459.38 1064.99 Q2456.33 1069.57 2450.52 1069.57 Q2444.71 1069.57 2441.63 1064.99 Q2438.57 1060.38 2438.57 1051.65 Q2438.57 1042.9 2441.63 1038.32 Q2444.71 1033.71 2450.52 1033.71 Z" fill="#000000" fill-rule="evenodd" fill-opacity="1" /><path clip-path="url(#clip100)" d="M2480.68 1037.42 Q2477.07 1037.42 2475.24 1040.98 Q2473.43 1044.52 2473.43 1051.65 Q2473.43 1058.76 2475.24 1062.32 Q2477.07 1065.87 2480.68 1065.87 Q2484.31 1065.87 2486.12 1062.32 Q2487.95 1058.76 2487.95 1051.65 Q2487.95 1044.52 2486.12 1040.98 Q2484.31 1037.42 2480.68 1037.42 M2480.68 1033.71 Q2486.49 1033.71 2489.54 1038.32 Q2492.62 1042.9 2492.62 1051.65 Q2492.62 1060.38 2489.54 1064.99 Q2486.49 1069.57 2480.68 1069.57 Q2474.87 1069.57 2471.79 1064.99 Q2468.73 1060.38 2468.73 1051.65 Q2468.73 1042.9 2471.79 1038.32 Q2474.87 1033.71 2480.68 1033.71 Z" fill="#000000" fill-rule="evenodd" fill-opacity="1" /><path clip-path="url(#clip100)" d="M2942.02 1064.96 L2958.34 1064.96 L2958.34 1068.9 L2936.39 1068.9 L2936.39 1064.96 Q2939.06 1062.21 2943.64 1057.58 Q2948.25 1052.93 2949.43 1051.58 Q2951.67 1049.06 2952.55 1047.32 Q2953.45 1045.56 2953.45 1043.87 Q2953.45 1041.12 2951.51 1039.38 Q2949.59 1037.65 2946.49 1037.65 Q2944.29 1037.65 2941.83 1038.41 Q2939.4 1039.18 2936.63 1040.73 L2936.63 1036 Q2939.45 1034.87 2941.9 1034.29 Q2944.36 1033.71 2946.39 1033.71 Q2951.76 1033.71 2954.96 1036.4 Q2958.15 1039.08 2958.15 1043.57 Q2958.15 1045.7 2957.34 1047.62 Q2956.56 1049.52 2954.45 1052.12 Q2953.87 1052.79 2950.77 1056 Q2947.67 1059.2 2942.02 1064.96 Z" fill="#000000" fill-rule="evenodd" fill-opacity="1" /><path clip-path="url(#clip100)" d="M2968.2 1034.34 L2986.56 1034.34 L2986.56 1038.27 L2972.48 1038.27 L2972.48 1046.75 Q2973.5 1046.4 2974.52 1046.24 Q2975.54 1046.05 2976.56 1046.05 Q2982.34 1046.05 2985.72 1049.22 Q2989.1 1052.39 2989.1 1057.81 Q2989.1 1063.39 2985.63 1066.49 Q2982.16 1069.57 2975.84 1069.57 Q2973.66 1069.57 2971.39 1069.2 Q2969.15 1068.83 2966.74 1068.09 L2966.74 1063.39 Q2968.82 1064.52 2971.05 1065.08 Q2973.27 1065.63 2975.75 1065.63 Q2979.75 1065.63 2982.09 1063.53 Q2984.43 1061.42 2984.43 1057.81 Q2984.43 1054.2 2982.09 1052.09 Q2979.75 1049.99 2975.75 1049.99 Q2973.87 1049.99 2972 1050.4 Q2970.14 1050.82 2968.2 1051.7 L2968.2 1034.34 Z" fill="#000000" fill-rule="evenodd" fill-opacity="1" /><path clip-path="url(#clip100)" d="M3008.32 1037.42 Q3004.7 1037.42 3002.88 1040.98 Q3001.07 1044.52 3001.07 1051.65 Q3001.07 1058.76 3002.88 1062.32 Q3004.7 1065.87 3008.32 1065.87 Q3011.95 1065.87 3013.75 1062.32 Q3015.58 1058.76 3015.58 1051.65 Q3015.58 1044.52 3013.75 1040.98 Q3011.95 1037.42 3008.32 1037.42 M3008.32 1033.71 Q3014.13 1033.71 3017.18 1038.32 Q3020.26 1042.9 3020.26 1051.65 Q3020.26 1060.38 3017.18 1064.99 Q3014.13 1069.57 3008.32 1069.57 Q3002.51 1069.57 2999.43 1064.99 Q2996.37 1060.38 2996.37 1051.65 Q2996.37 1042.9 2999.43 1038.32 Q3002.51 1033.71 3008.32 1033.71 Z" fill="#000000" fill-rule="evenodd" fill-opacity="1" /><path clip-path="url(#clip100)" d="M1556.64 1109.44 L1563.07 1109.44 L1563.07 1151.55 L1586.21 1151.55 L1586.21 1156.96 L1556.64 1156.96 L1556.64 1109.44 Z" fill="#000000" fill-rule="evenodd" fill-opacity="1" /><path clip-path="url(#clip100)" d="M1592.7 1121.31 L1598.56 1121.31 L1598.56 1156.96 L1592.7 1156.96 L1592.7 1121.31 M1592.7 1107.44 L1598.56 1107.44 L1598.56 1114.85 L1592.7 1114.85 L1592.7 1107.44 Z" fill="#000000" fill-rule="evenodd" fill-opacity="1" /><path clip-path="url(#clip100)" d="M1640.44 1135.45 L1640.44 1156.96 L1634.59 1156.96 L1634.59 1135.64 Q1634.59 1130.58 1632.61 1128.06 Q1630.64 1125.55 1626.69 1125.55 Q1621.95 1125.55 1619.21 1128.57 Q1616.48 1131.59 1616.48 1136.81 L1616.48 1156.96 L1610.59 1156.96 L1610.59 1121.31 L1616.48 1121.31 L1616.48 1126.85 Q1618.58 1123.64 1621.41 1122.05 Q1624.27 1120.45 1628 1120.45 Q1634.14 1120.45 1637.29 1124.27 Q1640.44 1128.06 1640.44 1135.45 Z" fill="#000000" fill-rule="evenodd" fill-opacity="1" /><path clip-path="url(#clip100)" d="M1682.62 1137.67 L1682.62 1140.54 L1655.69 1140.54 Q1656.07 1146.59 1659.32 1149.77 Q1662.6 1152.92 1668.42 1152.92 Q1671.79 1152.92 1674.95 1152.09 Q1678.13 1151.26 1681.25 1149.61 L1681.25 1155.15 Q1678.1 1156.48 1674.79 1157.18 Q1671.48 1157.88 1668.07 1157.88 Q1659.54 1157.88 1654.54 1152.92 Q1649.58 1147.95 1649.58 1139.49 Q1649.58 1130.74 1654.29 1125.61 Q1659.03 1120.45 1667.05 1120.45 Q1674.25 1120.45 1678.42 1125.1 Q1682.62 1129.72 1682.62 1137.67 M1676.76 1135.95 Q1676.7 1131.15 1674.05 1128.28 Q1671.44 1125.42 1667.12 1125.42 Q1662.21 1125.42 1659.25 1128.19 Q1656.33 1130.96 1655.88 1135.99 L1676.76 1135.95 Z" fill="#000000" fill-rule="evenodd" fill-opacity="1" /><path clip-path="url(#clip100)" d="M1708.43 1139.04 Q1701.33 1139.04 1698.59 1140.67 Q1695.86 1142.29 1695.86 1146.2 Q1695.86 1149.32 1697.89 1151.17 Q1699.96 1152.98 1703.5 1152.98 Q1708.37 1152.98 1711.29 1149.55 Q1714.25 1146.08 1714.25 1140.35 L1714.25 1139.04 L1708.43 1139.04 M1720.11 1136.62 L1720.11 1156.96 L1714.25 1156.96 L1714.25 1151.55 Q1712.25 1154.8 1709.26 1156.36 Q1706.27 1157.88 1701.94 1157.88 Q1696.46 1157.88 1693.22 1154.83 Q1690 1151.74 1690 1146.59 Q1690 1140.57 1694.01 1137.51 Q1698.05 1134.46 1706.04 1134.46 L1714.25 1134.46 L1714.25 1133.89 Q1714.25 1129.84 1711.58 1127.65 Q1708.94 1125.42 1704.13 1125.42 Q1701.08 1125.42 1698.18 1126.15 Q1695.28 1126.88 1692.61 1128.35 L1692.61 1122.94 Q1695.83 1121.7 1698.85 1121.09 Q1701.87 1120.45 1704.74 1120.45 Q1712.47 1120.45 1716.29 1124.46 Q1720.11 1128.48 1720.11 1136.62 Z" fill="#000000" fill-rule="evenodd" fill-opacity="1" /><path clip-path="url(#clip100)" d="M1755.63 1138.72 Q1755.63 1132.36 1752.99 1128.86 Q1750.38 1125.36 1745.64 1125.36 Q1740.93 1125.36 1738.28 1128.86 Q1735.67 1132.36 1735.67 1138.72 Q1735.67 1145.06 1738.28 1148.56 Q1740.93 1152.06 1745.64 1152.06 Q1750.38 1152.06 1752.99 1148.56 Q1755.63 1145.06 1755.63 1138.72 M1761.49 1152.54 Q1761.49 1161.64 1757.45 1166.06 Q1753.4 1170.52 1745.06 1170.52 Q1741.98 1170.52 1739.24 1170.04 Q1736.5 1169.6 1733.92 1168.64 L1733.92 1162.95 Q1736.5 1164.35 1739.02 1165.01 Q1741.53 1165.68 1744.14 1165.68 Q1749.9 1165.68 1752.77 1162.66 Q1755.63 1159.67 1755.63 1153.59 L1755.63 1150.69 Q1753.82 1153.84 1750.98 1155.4 Q1748.15 1156.96 1744.2 1156.96 Q1737.65 1156.96 1733.64 1151.96 Q1729.63 1146.97 1729.63 1138.72 Q1729.63 1130.45 1733.64 1125.45 Q1737.65 1120.45 1744.2 1120.45 Q1748.15 1120.45 1750.98 1122.01 Q1753.82 1123.57 1755.63 1126.72 L1755.63 1121.31 L1761.49 1121.31 L1761.49 1152.54 Z" fill="#000000" fill-rule="evenodd" fill-opacity="1" /><path clip-path="url(#clip100)" d="M1804.04 1137.67 L1804.04 1140.54 L1777.12 1140.54 Q1777.5 1146.59 1780.74 1149.77 Q1784.02 1152.92 1789.85 1152.92 Q1793.22 1152.92 1796.37 1152.09 Q1799.55 1151.26 1802.67 1149.61 L1802.67 1155.15 Q1799.52 1156.48 1796.21 1157.18 Q1792.9 1157.88 1789.5 1157.88 Q1780.97 1157.88 1775.97 1152.92 Q1771 1147.95 1771 1139.49 Q1771 1130.74 1775.71 1125.61 Q1780.46 1120.45 1788.48 1120.45 Q1795.67 1120.45 1799.84 1125.1 Q1804.04 1129.72 1804.04 1137.67 M1798.19 1135.95 Q1798.12 1131.15 1795.48 1128.28 Q1792.87 1125.42 1788.54 1125.42 Q1783.64 1125.42 1780.68 1128.19 Q1777.75 1130.96 1777.31 1135.99 L1798.19 1135.95 Z" fill="#000000" fill-rule="evenodd" fill-opacity="1" /><polyline clip-path="url(#clip102)" style="stroke:#000000; stroke-linecap:round; stroke-linejoin:round; stroke-width:2; stroke-opacity:0.1; fill:none" points="
  270.918,1000.1 3089.76,1000.1 
  "/>
<polyline clip-path="url(#clip102)" style="stroke:#000000; stroke-linecap:round; stroke-linejoin:round; stroke-width:2; stroke-opacity:0.1; fill:none" points="
  270.918,672.62 3089.76,672.62 
  "/>
<polyline clip-path="url(#clip102)" style="stroke:#000000; stroke-linecap:round; stroke-linejoin:round; stroke-width:2; stroke-opacity:0.1; fill:none" points="
  270.918,345.142 3089.76,345.142 
  "/>
<polyline clip-path="url(#clip100)" style="stroke:#000000; stroke-linecap:round; stroke-linejoin:round; stroke-width:4; stroke-opacity:1; fill:none" points="
  270.918,1000.1 270.918,110.236 
  "/>
<polyline clip-path="url(#clip100)" style="stroke:#000000; stroke-linecap:round; stroke-linejoin:round; stroke-width:4; stroke-opacity:1; fill:none" points="
  270.918,1000.1 289.815,1000.1 
  "/>
<polyline clip-path="url(#clip100)" style="stroke:#000000; stroke-linecap:round; stroke-linejoin:round; stroke-width:4; stroke-opacity:1; fill:none" points="
  270.918,672.62 289.815,672.62 
  "/>
<polyline clip-path="url(#clip100)" style="stroke:#000000; stroke-linecap:round; stroke-linejoin:round; stroke-width:4; stroke-opacity:1; fill:none" points="
  270.918,345.142 289.815,345.142 
  "/>
<path clip-path="url(#clip100)" d="M154.902 1019.89 L162.54 1019.89 L162.54 993.525 L154.23 995.191 L154.23 990.932 L162.494 989.265 L167.17 989.265 L167.17 1019.89 L174.809 1019.89 L174.809 1023.83 L154.902 1023.83 L154.902 1019.89 Z" fill="#000000" fill-rule="evenodd" fill-opacity="1" /><path clip-path="url(#clip100)" d="M194.253 992.344 Q190.642 992.344 188.813 995.909 Q187.008 999.45 187.008 1006.58 Q187.008 1013.69 188.813 1017.25 Q190.642 1020.79 194.253 1020.79 Q197.887 1020.79 199.693 1017.25 Q201.522 1013.69 201.522 1006.58 Q201.522 999.45 199.693 995.909 Q197.887 992.344 194.253 992.344 M194.253 988.64 Q200.063 988.64 203.119 993.247 Q206.198 997.83 206.198 1006.58 Q206.198 1015.31 203.119 1019.91 Q200.063 1024.5 194.253 1024.5 Q188.443 1024.5 185.364 1019.91 Q182.309 1015.31 182.309 1006.58 Q182.309 997.83 185.364 993.247 Q188.443 988.64 194.253 988.64 Z" fill="#000000" fill-rule="evenodd" fill-opacity="1" /><path clip-path="url(#clip100)" d="M206.743 993.218 L212.95 993.218 L212.95 971.796 L206.198 973.15 L206.198 969.689 L212.912 968.335 L216.711 968.335 L216.711 993.218 L222.918 993.218 L222.918 996.415 L206.743 996.415 L206.743 993.218 Z" fill="#000000" fill-rule="evenodd" fill-opacity="1" /><path clip-path="url(#clip100)" d="M153.792 692.412 L161.431 692.412 L161.431 666.046 L153.121 667.713 L153.121 663.454 L161.384 661.787 L166.06 661.787 L166.06 692.412 L173.699 692.412 L173.699 696.347 L153.792 696.347 L153.792 692.412 Z" fill="#000000" fill-rule="evenodd" fill-opacity="1" /><path clip-path="url(#clip100)" d="M193.143 664.866 Q189.532 664.866 187.704 668.431 Q185.898 671.972 185.898 679.102 Q185.898 686.208 187.704 689.773 Q189.532 693.315 193.143 693.315 Q196.778 693.315 198.583 689.773 Q200.412 686.208 200.412 679.102 Q200.412 671.972 198.583 668.431 Q196.778 664.866 193.143 664.866 M193.143 661.162 Q198.954 661.162 202.009 665.769 Q205.088 670.352 205.088 679.102 Q205.088 687.829 202.009 692.435 Q198.954 697.019 193.143 697.019 Q187.333 697.019 184.255 692.435 Q181.199 687.829 181.199 679.102 Q181.199 670.352 184.255 665.769 Q187.333 661.162 193.143 661.162 Z" fill="#000000" fill-rule="evenodd" fill-opacity="1" /><path clip-path="url(#clip100)" d="M209.658 665.74 L222.918 665.74 L222.918 668.937 L205.088 668.937 L205.088 665.74 Q207.251 663.501 210.975 659.74 Q214.717 655.959 215.677 654.869 Q217.501 652.819 218.216 651.408 Q218.949 649.979 218.949 648.606 Q218.949 646.368 217.369 644.957 Q215.808 643.546 213.288 643.546 Q211.501 643.546 209.508 644.167 Q207.533 644.788 205.276 646.048 L205.276 642.211 Q207.57 641.289 209.564 640.819 Q211.558 640.349 213.213 640.349 Q217.576 640.349 220.172 642.531 Q222.767 644.712 222.767 648.361 Q222.767 650.091 222.109 651.653 Q221.469 653.195 219.758 655.301 Q219.288 655.847 216.767 658.461 Q214.247 661.056 209.658 665.74 Z" fill="#000000" fill-rule="evenodd" fill-opacity="1" /><path clip-path="url(#clip100)" d="M153.134 364.934 L160.772 364.934 L160.772 338.568 L152.462 340.235 L152.462 335.976 L160.726 334.309 L165.402 334.309 L165.402 364.934 L173.041 364.934 L173.041 368.869 L153.134 368.869 L153.134 364.934 Z" fill="#000000" fill-rule="evenodd" fill-opacity="1" /><path clip-path="url(#clip100)" d="M192.485 337.388 Q188.874 337.388 187.045 340.953 Q185.24 344.494 185.24 351.624 Q185.24 358.73 187.045 362.295 Q188.874 365.837 192.485 365.837 Q196.119 365.837 197.925 362.295 Q199.754 358.73 199.754 351.624 Q199.754 344.494 197.925 340.953 Q196.119 337.388 192.485 337.388 M192.485 333.684 Q198.295 333.684 201.351 338.291 Q204.43 342.874 204.43 351.624 Q204.43 360.351 201.351 364.957 Q198.295 369.54 192.485 369.54 Q186.675 369.54 183.596 364.957 Q180.541 360.351 180.541 351.624 Q180.541 342.874 183.596 338.291 Q186.675 333.684 192.485 333.684 Z" fill="#000000" fill-rule="evenodd" fill-opacity="1" /><path clip-path="url(#clip100)" d="M217.125 326.319 Q219.852 326.902 221.375 328.745 Q222.918 330.588 222.918 333.296 Q222.918 337.453 220.059 339.728 Q217.2 342.004 211.934 342.004 Q210.166 342.004 208.285 341.647 Q206.423 341.308 204.43 340.612 L204.43 336.945 Q206.009 337.866 207.89 338.337 Q209.771 338.807 211.821 338.807 Q215.395 338.807 217.256 337.396 Q219.137 335.986 219.137 333.296 Q219.137 330.814 217.388 329.422 Q215.658 328.011 212.555 328.011 L209.282 328.011 L209.282 324.889 L212.705 324.889 Q215.507 324.889 216.993 323.779 Q218.479 322.651 218.479 320.545 Q218.479 318.382 216.937 317.234 Q215.413 316.068 212.555 316.068 Q210.994 316.068 209.207 316.407 Q207.42 316.745 205.276 317.46 L205.276 314.075 Q207.439 313.473 209.32 313.172 Q211.219 312.871 212.893 312.871 Q217.219 312.871 219.739 314.846 Q222.259 316.802 222.259 320.15 Q222.259 322.482 220.924 324.099 Q219.589 325.698 217.125 326.319 Z" fill="#000000" fill-rule="evenodd" fill-opacity="1" /><path clip-path="url(#clip100)" d="M42.6863 929.455 L42.6863 899.408 L48.0971 899.408 L48.0971 923.025 L62.1653 923.025 L62.1653 900.395 L67.5762 900.395 L67.5762 923.025 L84.7954 923.025 L84.7954 898.836 L90.2063 898.836 L90.2063 929.455 L42.6863 929.455 Z" fill="#000000" fill-rule="evenodd" fill-opacity="1" /><path clip-path="url(#clip100)" d="M44.2459 859.782 L50.5161 859.782 Q48.7655 863.442 47.9062 866.689 Q47.0468 869.935 47.0468 872.959 Q47.0468 878.211 49.0838 881.075 Q51.1208 883.908 54.8766 883.908 Q58.0276 883.908 59.6509 882.03 Q61.2423 880.12 62.229 874.837 L63.0247 870.954 Q64.3933 863.761 67.8627 860.355 Q71.3001 856.917 77.0929 856.917 Q83.9997 856.917 87.5645 861.564 Q91.1293 866.179 91.1293 875.123 Q91.1293 878.497 90.3654 882.317 Q89.6015 886.104 88.1056 890.178 L81.4853 890.178 Q83.6814 886.263 84.7954 882.508 Q85.9094 878.752 85.9094 875.123 Q85.9094 869.617 83.7451 866.625 Q81.5808 863.633 77.5704 863.633 Q74.0692 863.633 72.0958 865.798 Q70.1225 867.93 69.1358 872.832 L68.3719 876.747 Q66.9396 883.94 63.8841 887.154 Q60.8285 890.369 55.3859 890.369 Q49.0838 890.369 45.4554 885.945 Q41.8269 881.489 41.8269 873.691 Q41.8269 870.349 42.4317 866.88 Q43.0364 863.41 44.2459 859.782 Z" fill="#000000" fill-rule="evenodd" fill-opacity="1" /><path clip-path="url(#clip100)" d="M44.2459 818.405 L50.5161 818.405 Q48.7655 822.065 47.9062 825.312 Q47.0468 828.558 47.0468 831.582 Q47.0468 836.834 49.0838 839.698 Q51.1208 842.531 54.8766 842.531 Q58.0276 842.531 59.6509 840.653 Q61.2423 838.743 62.229 833.46 L63.0247 829.577 Q64.3933 822.383 67.8627 818.978 Q71.3001 815.54 77.0929 815.54 Q83.9997 815.54 87.5645 820.187 Q91.1293 824.802 91.1293 833.746 Q91.1293 837.12 90.3654 840.939 Q89.6015 844.727 88.1056 848.801 L81.4853 848.801 Q83.6814 844.886 84.7954 841.13 Q85.9094 837.375 85.9094 833.746 Q85.9094 828.24 83.7451 825.248 Q81.5808 822.256 77.5704 822.256 Q74.0692 822.256 72.0958 824.42 Q70.1225 826.553 69.1358 831.455 L68.3719 835.369 Q66.9396 842.563 63.8841 845.777 Q60.8285 848.992 55.3859 848.992 Q49.0838 848.992 45.4554 844.568 Q41.8269 840.112 41.8269 832.314 Q41.8269 828.972 42.4317 825.503 Q43.0364 822.033 44.2459 818.405 Z" fill="#000000" fill-rule="evenodd" fill-opacity="1" /><path clip-path="url(#clip100)" d="M82.1218 804.273 L82.1218 797.557 L90.2063 797.557 L90.2063 804.273 L82.1218 804.273 M56.4999 804.273 L56.4999 797.557 L64.5843 797.557 L64.5843 804.273 L56.4999 804.273 Z" fill="#000000" fill-rule="evenodd" fill-opacity="1" /><path clip-path="url(#clip100)" d="M44.2459 734.346 L50.5161 734.346 Q48.7655 738.006 47.9062 741.252 Q47.0468 744.499 47.0468 747.523 Q47.0468 752.774 49.0838 755.639 Q51.1208 758.472 54.8766 758.472 Q58.0276 758.472 59.6509 756.594 Q61.2423 754.684 62.229 749.401 L63.0247 745.518 Q64.3933 738.324 67.8627 734.919 Q71.3001 731.481 77.0929 731.481 Q83.9997 731.481 87.5645 736.128 Q91.1293 740.743 91.1293 749.687 Q91.1293 753.061 90.3654 756.88 Q89.6015 760.668 88.1056 764.742 L81.4853 764.742 Q83.6814 760.827 84.7954 757.071 Q85.9094 753.316 85.9094 749.687 Q85.9094 744.181 83.7451 741.189 Q81.5808 738.197 77.5704 738.197 Q74.0692 738.197 72.0958 740.361 Q70.1225 742.494 69.1358 747.395 L68.3719 751.31 Q66.9396 758.504 63.8841 761.718 Q60.8285 764.933 55.3859 764.933 Q49.0838 764.933 45.4554 760.509 Q41.8269 756.053 41.8269 748.255 Q41.8269 744.913 42.4317 741.443 Q43.0364 737.974 44.2459 734.346 Z" fill="#000000" fill-rule="evenodd" fill-opacity="1" /><path clip-path="url(#clip100)" d="M54.5583 725.115 L54.5583 719.259 L82.3765 711.938 L54.5583 704.65 L54.5583 697.743 L82.3765 690.422 L54.5583 683.134 L54.5583 677.277 L90.2063 686.603 L90.2063 693.51 L60.9877 701.18 L90.2063 708.883 L90.2063 715.79 L54.5583 725.115 Z" fill="#000000" fill-rule="evenodd" fill-opacity="1" /><path clip-path="url(#clip100)" d="M70.9182 637.905 L73.7828 637.905 L73.7828 664.832 Q79.8302 664.45 83.013 661.204 Q86.1641 657.925 86.1641 652.101 Q86.1641 648.727 85.3365 645.576 Q84.509 642.393 82.8539 639.274 L88.3921 639.274 Q89.7289 642.425 90.4291 645.735 Q91.1293 649.045 91.1293 652.451 Q91.1293 660.981 86.1641 665.978 Q81.1988 670.943 72.7324 670.943 Q63.9796 670.943 58.8552 666.233 Q53.699 661.49 53.699 653.469 Q53.699 646.276 58.3459 642.107 Q62.9611 637.905 70.9182 637.905 M69.1995 643.762 Q64.3933 643.825 61.5288 646.467 Q58.6642 649.077 58.6642 653.406 Q58.6642 658.307 61.4333 661.267 Q64.2024 664.196 69.2313 664.641 L69.1995 643.762 Z" fill="#000000" fill-rule="evenodd" fill-opacity="1" /><path clip-path="url(#clip100)" d="M59.9692 604.835 L40.6811 604.835 L40.6811 598.979 L90.2063 598.979 L90.2063 604.835 L84.8591 604.835 Q88.0419 606.681 89.6015 609.514 Q91.1293 612.315 91.1293 616.262 Q91.1293 622.723 85.9731 626.797 Q80.8169 630.839 72.4141 630.839 Q64.0114 630.839 58.8552 626.797 Q53.699 622.723 53.699 616.262 Q53.699 612.315 55.2586 609.514 Q56.7863 606.681 59.9692 604.835 M72.4141 624.792 Q78.8753 624.792 82.5674 622.15 Q86.2277 619.477 86.2277 614.83 Q86.2277 610.183 82.5674 607.509 Q78.8753 604.835 72.4141 604.835 Q65.9529 604.835 62.2927 607.509 Q58.6006 610.183 58.6006 614.83 Q58.6006 619.477 62.2927 622.15 Q65.9529 624.792 72.4141 624.792 Z" fill="#000000" fill-rule="evenodd" fill-opacity="1" /><path clip-path="url(#clip100)" d="M70.9182 556.424 L73.7828 556.424 L73.7828 583.351 Q79.8302 582.969 83.013 579.723 Q86.1641 576.444 86.1641 570.62 Q86.1641 567.246 85.3365 564.095 Q84.509 560.912 82.8539 557.793 L88.3921 557.793 Q89.7289 560.944 90.4291 564.254 Q91.1293 567.564 91.1293 570.97 Q91.1293 579.5 86.1641 584.497 Q81.1988 589.462 72.7324 589.462 Q63.9796 589.462 58.8552 584.752 Q53.699 580.009 53.699 571.988 Q53.699 564.795 58.3459 560.626 Q62.9611 556.424 70.9182 556.424 M69.1995 562.281 Q64.3933 562.344 61.5288 564.986 Q58.6642 567.596 58.6642 571.925 Q58.6642 576.826 61.4333 579.786 Q64.2024 582.715 69.2313 583.16 L69.1995 562.281 Z" fill="#000000" fill-rule="evenodd" fill-opacity="1" /><path clip-path="url(#clip100)" d="M68.6902 517.18 L90.2063 517.18 L90.2063 523.036 L68.8812 523.036 Q63.8204 523.036 61.306 525.009 Q58.7915 526.983 58.7915 530.93 Q58.7915 535.672 61.8152 538.409 Q64.8389 541.146 70.0588 541.146 L90.2063 541.146 L90.2063 547.035 L54.5583 547.035 L54.5583 541.146 L60.0965 541.146 Q56.8818 539.046 55.2904 536.213 Q53.699 533.349 53.699 529.625 Q53.699 523.482 57.5184 520.331 Q61.306 517.18 68.6902 517.18 Z" fill="#000000" fill-rule="evenodd" fill-opacity="1" /><path clip-path="url(#clip100)" d="M82.1218 504.003 L82.1218 497.287 L87.5963 497.287 L97.7815 502.507 L97.7815 506.613 L87.5963 504.003 L82.1218 504.003 Z" fill="#000000" fill-rule="evenodd" fill-opacity="1" /><path clip-path="url(#clip100)" d="M44.4369 458.265 L54.5583 458.265 L54.5583 446.202 L59.1098 446.202 L59.1098 458.265 L78.4616 458.265 Q82.8221 458.265 84.0634 457.087 Q85.3047 455.878 85.3047 452.218 L85.3047 446.202 L90.2063 446.202 L90.2063 452.218 Q90.2063 458.997 87.6918 461.575 Q85.1455 464.153 78.4616 464.153 L59.1098 464.153 L59.1098 468.45 L54.5583 468.45 L54.5583 464.153 L44.4369 464.153 L44.4369 458.265 Z" fill="#000000" fill-rule="evenodd" fill-opacity="1" /><path clip-path="url(#clip100)" d="M54.5583 438.499 L54.5583 432.643 L90.2063 432.643 L90.2063 438.499 L54.5583 438.499 M40.6811 438.499 L40.6811 432.643 L48.0971 432.643 L48.0971 438.499 L40.6811 438.499 Z" fill="#000000" fill-rule="evenodd" fill-opacity="1" /><path clip-path="url(#clip100)" d="M61.4015 392.635 Q57.4547 390.438 55.5768 387.383 Q53.699 384.327 53.699 380.19 Q53.699 374.62 57.6139 371.596 Q61.4969 368.572 68.6902 368.572 L90.2063 368.572 L90.2063 374.46 L68.8812 374.46 Q63.7568 374.46 61.2741 376.275 Q58.7915 378.089 58.7915 381.813 Q58.7915 386.364 61.8152 389.006 Q64.8389 391.648 70.0588 391.648 L90.2063 391.648 L90.2063 397.536 L68.8812 397.536 Q63.7249 397.536 61.2741 399.35 Q58.7915 401.165 58.7915 404.952 Q58.7915 409.44 61.8471 412.082 Q64.8708 414.724 70.0588 414.724 L90.2063 414.724 L90.2063 420.612 L54.5583 420.612 L54.5583 414.724 L60.0965 414.724 Q56.8182 412.718 55.2586 409.917 Q53.699 407.117 53.699 403.265 Q53.699 399.382 55.6723 396.677 Q57.6457 393.94 61.4015 392.635 Z" fill="#000000" fill-rule="evenodd" fill-opacity="1" /><path clip-path="url(#clip100)" d="M70.9182 326.399 L73.7828 326.399 L73.7828 353.326 Q79.8302 352.944 83.013 349.698 Q86.1641 346.42 86.1641 340.595 Q86.1641 337.221 85.3365 334.07 Q84.509 330.887 82.8539 327.768 L88.3921 327.768 Q89.7289 330.919 90.4291 334.229 Q91.1293 337.539 91.1293 340.945 Q91.1293 349.475 86.1641 354.472 Q81.1988 359.437 72.7324 359.437 Q63.9796 359.437 58.8552 354.727 Q53.699 349.984 53.699 341.964 Q53.699 334.77 58.3459 330.601 Q62.9611 326.399 70.9182 326.399 M69.1995 332.256 Q64.3933 332.319 61.5288 334.961 Q58.6642 337.571 58.6642 341.9 Q58.6642 346.801 61.4333 349.762 Q64.2024 352.69 69.2313 353.135 L69.1995 332.256 Z" fill="#000000" fill-rule="evenodd" fill-opacity="1" /><path clip-path="url(#clip100)" d="M82.1218 315.291 L82.1218 308.575 L90.2063 308.575 L90.2063 315.291 L82.1218 315.291 M56.4999 315.291 L56.4999 308.575 L64.5843 308.575 L64.5843 315.291 L56.4999 315.291 Z" fill="#000000" fill-rule="evenodd" fill-opacity="1" /><path clip-path="url(#clip100)" d="M84.7954 292.884 L84.7954 282.381 L48.5427 282.381 L50.8344 293.807 L44.9779 293.807 L42.6863 282.444 L42.6863 276.015 L84.7954 276.015 L84.7954 265.511 L90.2063 265.511 L90.2063 292.884 L84.7954 292.884 Z" fill="#000000" fill-rule="evenodd" fill-opacity="1" /><path clip-path="url(#clip100)" d="M46.9195 238.775 Q46.9195 243.741 51.8211 246.255 Q56.6908 248.738 66.494 248.738 Q76.2654 248.738 81.167 246.255 Q86.0367 243.741 86.0367 238.775 Q86.0367 233.778 81.167 231.296 Q76.2654 228.781 66.494 228.781 Q56.6908 228.781 51.8211 231.296 Q46.9195 233.778 46.9195 238.775 M41.8269 238.775 Q41.8269 230.786 48.1608 226.585 Q54.4628 222.352 66.494 222.352 Q78.4934 222.352 84.8273 226.585 Q91.1293 230.786 91.1293 238.775 Q91.1293 246.764 84.8273 250.998 Q78.4934 255.199 66.494 255.199 Q54.4628 255.199 48.1608 250.998 Q41.8269 246.764 41.8269 238.775 Z" fill="#000000" fill-rule="evenodd" fill-opacity="1" /><path clip-path="url(#clip100)" d="M46.9195 197.303 Q46.9195 202.268 51.8211 204.783 Q56.6908 207.265 66.494 207.265 Q76.2654 207.265 81.167 204.783 Q86.0367 202.268 86.0367 197.303 Q86.0367 192.306 81.167 189.823 Q76.2654 187.309 66.494 187.309 Q56.6908 187.309 51.8211 189.823 Q46.9195 192.306 46.9195 197.303 M41.8269 197.303 Q41.8269 189.314 48.1608 185.113 Q54.4628 180.879 66.494 180.879 Q78.4934 180.879 84.8273 185.113 Q91.1293 189.314 91.1293 197.303 Q91.1293 205.292 84.8273 209.525 Q78.4934 213.726 66.494 213.726 Q54.4628 213.726 48.1608 209.525 Q41.8269 205.292 41.8269 197.303 Z" fill="#000000" fill-rule="evenodd" fill-opacity="1" /><polyline clip-path="url(#clip102)" style="stroke:#009af9; stroke-linecap:round; stroke-linejoin:round; stroke-width:4; stroke-opacity:1; fill:none" points="
  350.696,512.472 361.249,240.346 371.802,223.219 382.354,225.314 392.907,257.555 403.46,254.756 414.013,240.122 424.565,267.212 435.118,223.55 445.671,266.69 
  456.224,181.005 466.776,252.319 477.329,226.63 487.882,238.966 498.435,222.899 508.987,226.503 519.54,220.484 530.093,220.778 540.646,219.874 551.198,174.855 
  561.751,241.664 572.304,225.805 582.856,166.782 593.409,228.132 603.962,214.584 614.515,273.273 625.067,254.506 635.62,138.934 646.173,110.236 656.726,204.209 
  667.278,205.165 677.831,266.488 688.384,238.658 698.937,201.884 709.489,235.11 720.042,248.022 730.595,222.447 741.147,223.929 751.7,223.464 762.253,230.751 
  772.806,238.86 783.358,160.388 793.911,218.839 804.464,260.149 815.017,223.179 825.569,133.3 836.122,130.843 846.675,226.306 857.228,185.384 867.78,146.639 
  878.333,238.598 888.886,159.79 899.438,250.054 909.991,266.987 920.544,195.003 931.097,173.66 941.649,186.01 952.202,144.797 962.755,232.969 973.308,223.633 
  983.86,140.969 994.413,142.316 1004.97,141.476 1015.52,208.754 1026.07,208.755 1036.62,225.314 1047.18,236.277 1057.73,155.473 1068.28,228.168 1078.83,163.237 
  1089.39,223.772 1099.94,232.718 1110.49,217.103 1121.05,192.886 1131.6,170.858 1142.15,211.995 1152.7,235.101 1163.26,199.301 1173.81,184.798 1184.36,181.866 
  1194.91,192.684 1205.47,185.605 1216.02,212.329 1226.57,227.721 1237.13,199.158 1247.68,146.722 1258.23,170.955 1268.78,196.524 1279.34,182.954 1289.89,167.12 
  1300.44,151.706 1311,158.388 1321.55,232.115 1332.1,144.198 1342.65,127.063 1353.21,193.606 1363.76,213.001 1374.31,211.683 1384.86,174.188 1395.42,197.114 
  1405.97,191.879 1416.52,197.798 1427.08,227.177 1437.63,222.888 1448.18,199.408 1458.73,166.113 1469.29,215.82 1479.84,165.709 1490.39,207.413 1500.94,159.853 
  1511.5,219.851 1522.05,222.035 1532.6,262.277 1543.16,164.671 1553.71,186.699 1564.26,225.923 1574.81,268.382 1585.37,138.029 1595.92,294.299 1606.47,226.775 
  1617.02,243.526 1627.58,186.842 1638.13,261.703 1648.68,153.572 1659.24,115.27 1669.79,123.655 1680.34,213.605 1690.89,184.768 1701.45,151.575 1712,219.424 
  1722.55,176.223 1733.1,176.606 1743.66,197.26 1754.21,191.077 1764.76,278.158 1775.32,228.047 1785.87,245.936 1796.42,201.17 1806.97,220.693 1817.53,233.733 
  1828.08,254.167 1838.63,193.277 1849.18,150.241 1859.74,169.661 1870.29,213.113 1880.84,223.451 1891.4,187.87 1901.95,201.996 1912.5,207.197 1923.05,167.156 
  1933.61,168.497 1944.16,224.959 1954.71,212.689 1965.26,228.198 1975.82,234.659 1986.37,190.211 1996.92,202.603 2007.48,221.847 2018.03,249.029 2028.58,249.044 
  2039.13,223.526 2049.69,240.226 2060.24,186.107 2070.79,211.306 2081.34,181.463 2091.9,214.64 2102.45,221.452 2113,250.919 2123.56,191.59 2134.11,160.939 
  2144.66,220.399 2155.21,168.833 2165.77,184.388 2176.32,174.441 2186.87,224.511 2197.42,228.239 2207.98,161.871 2218.53,178.34 2229.08,175.661 2239.64,227.204 
  2250.19,186.563 2260.74,182.535 2271.29,215.248 2281.85,260.116 2292.4,227.448 2302.95,214.883 2313.5,230.894 2324.06,247.11 2334.61,193.707 2345.16,194.401 
  2355.72,217.548 2366.27,246.789 2376.82,226.995 2387.37,230.597 2397.93,203.668 2408.48,159.5 2419.03,186.883 2429.58,154.916 2440.14,156.629 2450.69,195.581 
  2461.24,214.963 2471.8,263.938 2482.35,188.695 2492.9,191.988 2503.45,225.481 2514.01,212.171 2524.56,169.345 2535.11,185.331 2545.66,180.826 2556.22,182.074 
  2566.77,178.376 2577.32,176.414 2587.88,216.322 2598.43,185.857 2608.98,156.831 2619.53,163.652 2630.09,158.347 2640.64,171.396 2651.19,228.497 2661.74,161.924 
  2672.3,240.737 2682.85,217.727 2693.4,244.808 2703.96,208.799 2714.51,230.53 2725.06,224.159 2735.61,231.215 2746.17,202.621 2756.72,217.367 2767.27,158.905 
  2777.82,249.638 2788.38,216.031 2798.93,193.608 2809.48,193.32 2820.04,165.393 2830.59,241.951 2841.14,219.897 2851.69,235.753 2862.25,183.863 2872.8,193.329 
  2883.35,208.06 2893.91,214.956 2904.46,245.928 2915.01,182.473 2925.56,214.226 2936.12,224.493 2946.67,247.39 2957.22,167.312 2967.77,162.011 2978.33,172.225 
  2988.88,155.635 2999.43,173.751 3009.99,216.016 
  "/>
</svg>
