<?xml version="1.0" encoding="utf-8"?>
<svg xmlns="http://www.w3.org/2000/svg" xmlns:xlink="http://www.w3.org/1999/xlink" width="800" height="300" viewBox="0 0 3200 1200">
<defs>
  <clipPath id="clip900">
    <rect x="0" y="0" width="3200" height="1200"/>
  </clipPath>
</defs>
<path clip-path="url(#clip900)" d="M0 1200 L3200 1200 L3200 0 L0 0  Z" fill="#ffffff" fill-rule="evenodd" fill-opacity="1"/>
<defs>
  <clipPath id="clip901">
    <rect x="640" y="0" width="2241" height="1200"/>
  </clipPath>
</defs>
<path clip-path="url(#clip900)" d="M270.918 1000.1 L3089.76 1000.1 L3089.76 110.236 L270.918 110.236  Z" fill="#ffffff" fill-rule="evenodd" fill-opacity="1"/>
<defs>
  <clipPath id="clip902">
    <rect x="270" y="110" width="2820" height="891"/>
  </clipPath>
</defs>
<polyline clip-path="url(#clip902)" style="stroke:#000000; stroke-linecap:round; stroke-linejoin:round; stroke-width:2; stroke-opacity:0.1; fill:none" points="327.967,1000.1 327.967,110.236 "/>
<polyline clip-path="url(#clip902)" style="stroke:#000000; stroke-linecap:round; stroke-linejoin:round; stroke-width:2; stroke-opacity:0.1; fill:none" points="896.191,1000.1 896.191,110.236 "/>
<polyline clip-path="url(#clip902)" style="stroke:#000000; stroke-linecap:round; stroke-linejoin:round; stroke-width:2; stroke-opacity:0.1; fill:none" points="1464.42,1000.1 1464.42,110.236 "/>
<polyline clip-path="url(#clip902)" style="stroke:#000000; stroke-linecap:round; stroke-linejoin:round; stroke-width:2; stroke-opacity:0.1; fill:none" points="2032.64,1000.1 2032.64,110.236 "/>
<polyline clip-path="url(#clip902)" style="stroke:#000000; stroke-linecap:round; stroke-linejoin:round; stroke-width:2; stroke-opacity:0.1; fill:none" points="2600.86,1000.1 2600.86,110.236 "/>
<polyline clip-path="url(#clip900)" style="stroke:#000000; stroke-linecap:round; stroke-linejoin:round; stroke-width:4; stroke-opacity:1; fill:none" points="270.918,1000.1 3089.76,1000.1 "/>
<polyline clip-path="url(#clip900)" style="stroke:#000000; stroke-linecap:round; stroke-linejoin:round; stroke-width:4; stroke-opacity:1; fill:none" points="327.967,1000.1 327.967,981.2 "/>
<polyline clip-path="url(#clip900)" style="stroke:#000000; stroke-linecap:round; stroke-linejoin:round; stroke-width:4; stroke-opacity:1; fill:none" points="896.191,1000.1 896.191,981.2 "/>
<polyline clip-path="url(#clip900)" style="stroke:#000000; stroke-linecap:round; stroke-linejoin:round; stroke-width:4; stroke-opacity:1; fill:none" points="1464.42,1000.1 1464.42,981.2 "/>
<polyline clip-path="url(#clip900)" style="stroke:#000000; stroke-linecap:round; stroke-linejoin:round; stroke-width:4; stroke-opacity:1; fill:none" points="2032.64,1000.1 2032.64,981.2 "/>
<polyline clip-path="url(#clip900)" style="stroke:#000000; stroke-linecap:round; stroke-linejoin:round; stroke-width:4; stroke-opacity:1; fill:none" points="2600.86,1000.1 2600.86,981.2 "/>
<path clip-path="url(#clip900)" d="M327.967 1037.42 Q324.356 1037.42 322.528 1040.98 Q320.722 1044.52 320.722 1051.65 Q320.722 1058.76 322.528 1062.32 Q324.356 1065.87 327.967 1065.87 Q331.602 1065.87 333.407 1062.32 Q335.236 1058.76 335.236 1051.65 Q335.236 1044.52 333.407 1040.98 Q331.602 1037.42 327.967 1037.42 M327.967 1033.71 Q333.777 1033.71 336.833 1038.32 Q339.912 1042.9 339.912 1051.65 Q339.912 1060.38 336.833 1064.99 Q333.777 1069.57 327.967 1069.57 Q322.157 1069.57 319.078 1064.99 Q316.023 1060.38 316.023 1051.65 Q316.023 1042.9 319.078 1038.32 Q322.157 1033.71 327.967 1033.71 Z" fill="#000000" fill-rule="nonzero" fill-opacity="1" /><path clip-path="url(#clip900)" d="M875.462 1064.96 L891.782 1064.96 L891.782 1068.9 L869.837 1068.9 L869.837 1064.96 Q872.499 1062.21 877.083 1057.58 Q881.689 1052.93 882.87 1051.58 Q885.115 1049.06 885.995 1047.32 Q886.898 1045.56 886.898 1043.87 Q886.898 1041.12 884.953 1039.38 Q883.032 1037.65 879.93 1037.65 Q877.731 1037.65 875.277 1038.41 Q872.847 1039.18 870.069 1040.73 L870.069 1036 Q872.893 1034.87 875.347 1034.29 Q877.8 1033.71 879.837 1033.71 Q885.208 1033.71 888.402 1036.4 Q891.597 1039.08 891.597 1043.57 Q891.597 1045.7 890.786 1047.62 Q889.999 1049.52 887.893 1052.12 Q887.314 1052.79 884.212 1056 Q881.111 1059.2 875.462 1064.96 Z" fill="#000000" fill-rule="nonzero" fill-opacity="1" /><path clip-path="url(#clip900)" d="M901.643 1034.34 L919.999 1034.34 L919.999 1038.27 L905.925 1038.27 L905.925 1046.75 Q906.944 1046.4 907.962 1046.24 Q908.981 1046.05 909.999 1046.05 Q915.786 1046.05 919.166 1049.22 Q922.545 1052.39 922.545 1057.81 Q922.545 1063.39 919.073 1066.49 Q915.601 1069.57 909.282 1069.57 Q907.106 1069.57 904.837 1069.2 Q902.592 1068.83 900.184 1068.09 L900.184 1063.39 Q902.268 1064.52 904.49 1065.08 Q906.712 1065.63 909.189 1065.63 Q913.194 1065.63 915.532 1063.53 Q917.87 1061.42 917.87 1057.81 Q917.87 1054.2 915.532 1052.09 Q913.194 1049.99 909.189 1049.99 Q907.314 1049.99 905.439 1050.4 Q903.587 1050.82 901.643 1051.7 L901.643 1034.34 Z" fill="#000000" fill-rule="nonzero" fill-opacity="1" /><path clip-path="url(#clip900)" d="M1439.11 1034.34 L1457.47 1034.34 L1457.47 1038.27 L1443.4 1038.27 L1443.4 1046.75 Q1444.42 1046.4 1445.43 1046.24 Q1446.45 1046.05 1447.47 1046.05 Q1453.26 1046.05 1456.64 1049.22 Q1460.02 1052.39 1460.02 1057.81 Q1460.02 1063.39 1456.55 1066.49 Q1453.07 1069.57 1446.75 1069.57 Q1444.58 1069.57 1442.31 1069.2 Q1440.06 1068.83 1437.66 1068.09 L1437.66 1063.39 Q1439.74 1064.52 1441.96 1065.08 Q1444.18 1065.63 1446.66 1065.63 Q1450.67 1065.63 1453 1063.53 Q1455.34 1061.42 1455.34 1057.81 Q1455.34 1054.2 1453 1052.09 Q1450.67 1049.99 1446.66 1049.99 Q1444.79 1049.99 1442.91 1050.4 Q1441.06 1050.82 1439.11 1051.7 L1439.11 1034.34 Z" fill="#000000" fill-rule="nonzero" fill-opacity="1" /><path clip-path="url(#clip900)" d="M1479.23 1037.42 Q1475.62 1037.42 1473.79 1040.98 Q1471.98 1044.52 1471.98 1051.65 Q1471.98 1058.76 1473.79 1062.32 Q1475.62 1065.87 1479.23 1065.87 Q1482.86 1065.87 1484.67 1062.32 Q1486.5 1058.76 1486.5 1051.65 Q1486.5 1044.52 1484.67 1040.98 Q1482.86 1037.42 1479.23 1037.42 M1479.23 1033.71 Q1485.04 1033.71 1488.1 1038.32 Q1491.17 1042.9 1491.17 1051.65 Q1491.17 1060.38 1488.1 1064.99 Q1485.04 1069.57 1479.23 1069.57 Q1473.42 1069.57 1470.34 1064.99 Q1467.29 1060.38 1467.29 1051.65 Q1467.29 1042.9 1470.34 1038.32 Q1473.42 1033.71 1479.23 1033.71 Z" fill="#000000" fill-rule="nonzero" fill-opacity="1" /><path clip-path="url(#clip900)" d="M2006.49 1034.34 L2028.72 1034.34 L2028.72 1036.33 L2016.17 1068.9 L2011.29 1068.9 L2023.09 1038.27 L2006.49 1038.27 L2006.49 1034.34 Z" fill="#000000" fill-rule="nonzero" fill-opacity="1" /><path clip-path="url(#clip900)" d="M2037.88 1034.34 L2056.24 1034.34 L2056.24 1038.27 L2042.17 1038.27 L2042.17 1046.75 Q2043.18 1046.4 2044.2 1046.24 Q2045.22 1046.05 2046.24 1046.05 Q2052.03 1046.05 2055.41 1049.22 Q2058.79 1052.39 2058.79 1057.81 Q2058.79 1063.39 2055.31 1066.49 Q2051.84 1069.57 2045.52 1069.57 Q2043.35 1069.57 2041.08 1069.2 Q2038.83 1068.83 2036.42 1068.09 L2036.42 1063.39 Q2038.51 1064.52 2040.73 1065.08 Q2042.95 1065.63 2045.43 1065.63 Q2049.43 1065.63 2051.77 1063.53 Q2054.11 1061.42 2054.11 1057.81 Q2054.11 1054.2 2051.77 1052.09 Q2049.43 1049.99 2045.43 1049.99 Q2043.55 1049.99 2041.68 1050.4 Q2039.83 1050.82 2037.88 1051.7 L2037.88 1034.34 Z" fill="#000000" fill-rule="nonzero" fill-opacity="1" /><path clip-path="url(#clip900)" d="M2560.47 1064.96 L2568.11 1064.96 L2568.11 1038.6 L2559.8 1040.26 L2559.8 1036 L2568.06 1034.34 L2572.74 1034.34 L2572.74 1064.96 L2580.38 1064.96 L2580.38 1068.9 L2560.47 1068.9 L2560.47 1064.96 Z" fill="#000000" fill-rule="nonzero" fill-opacity="1" /><path clip-path="url(#clip900)" d="M2599.82 1037.42 Q2596.21 1037.42 2594.38 1040.98 Q2592.58 1044.52 2592.58 1051.65 Q2592.58 1058.76 2594.38 1062.32 Q2596.21 1065.87 2599.82 1065.87 Q2603.46 1065.87 2605.26 1062.32 Q2607.09 1058.76 2607.09 1051.65 Q2607.09 1044.52 2605.26 1040.98 Q2603.46 1037.42 2599.82 1037.42 M2599.82 1033.71 Q2605.63 1033.71 2608.69 1038.32 Q2611.77 1042.9 2611.77 1051.65 Q2611.77 1060.38 2608.69 1064.99 Q2605.63 1069.57 2599.82 1069.57 Q2594.01 1069.57 2590.93 1064.99 Q2587.88 1060.38 2587.88 1051.65 Q2587.88 1042.9 2590.93 1038.32 Q2594.01 1033.71 2599.82 1033.71 Z" fill="#000000" fill-rule="nonzero" fill-opacity="1" /><path clip-path="url(#clip900)" d="M2629.98 1037.42 Q2626.37 1037.42 2624.54 1040.98 Q2622.74 1044.52 2622.74 1051.65 Q2622.74 1058.76 2624.54 1062.32 Q2626.37 1065.87 2629.98 1065.87 Q2633.62 1065.87 2635.42 1062.32 Q2637.25 1058.76 2637.25 1051.65 Q2637.25 1044.52 2635.42 1040.98 Q2633.62 1037.42 2629.98 1037.42 M2629.98 1033.71 Q2635.79 1033.71 2638.85 1038.32 Q2641.93 1042.9 2641.93 1051.65 Q2641.93 1060.38 2638.85 1064.99 Q2635.79 1069.57 2629.98 1069.57 Q2624.17 1069.57 2621.1 1064.99 Q2618.04 1060.38 2618.04 1051.65 Q2618.04 1042.9 2621.1 1038.32 Q2624.17 1033.71 2629.98 1033.71 Z" fill="#000000" fill-rule="nonzero" fill-opacity="1" /><path clip-path="url(#clip900)" d="M1556.64 1109.44 L1563.07 1109.44 L1563.07 1151.55 L1586.21 1151.55 L1586.21 1156.96 L1556.64 1156.96 L1556.64 1109.44 Z" fill="#000000" fill-rule="nonzero" fill-opacity="1" /><path clip-path="url(#clip900)" d="M1592.7 1121.31 L1598.56 1121.31 L1598.56 1156.96 L1592.7 1156.96 L1592.7 1121.31 M1592.7 1107.44 L1598.56 1107.44 L1598.56 1114.85 L1592.7 1114.85 L1592.7 1107.44 Z" fill="#000000" fill-rule="nonzero" fill-opacity="1" /><path clip-path="url(#clip900)" d="M1640.44 1135.45 L1640.44 1156.96 L1634.59 1156.96 L1634.59 1135.64 Q1634.59 1130.58 1632.61 1128.06 Q1630.64 1125.55 1626.69 1125.55 Q1621.95 1125.55 1619.21 1128.57 Q1616.48 1131.59 1616.48 1136.81 L1616.48 1156.96 L1610.59 1156.96 L1610.59 1121.31 L1616.48 1121.31 L1616.48 1126.85 Q1618.58 1123.64 1621.41 1122.05 Q1624.27 1120.45 1628 1120.45 Q1634.14 1120.45 1637.29 1124.27 Q1640.44 1128.06 1640.44 1135.45 Z" fill="#000000" fill-rule="nonzero" fill-opacity="1" /><path clip-path="url(#clip900)" d="M1682.62 1137.67 L1682.62 1140.54 L1655.69 1140.54 Q1656.07 1146.59 1659.32 1149.77 Q1662.6 1152.92 1668.42 1152.92 Q1671.79 1152.92 1674.95 1152.09 Q1678.13 1151.26 1681.25 1149.61 L1681.25 1155.15 Q1678.1 1156.48 1674.79 1157.18 Q1671.48 1157.88 1668.07 1157.88 Q1659.54 1157.88 1654.54 1152.92 Q1649.58 1147.95 1649.58 1139.49 Q1649.58 1130.74 1654.29 1125.61 Q1659.03 1120.45 1667.05 1120.45 Q1674.25 1120.45 1678.42 1125.1 Q1682.62 1129.72 1682.62 1137.67 M1676.76 1135.95 Q1676.7 1131.15 1674.05 1128.28 Q1671.44 1125.42 1667.12 1125.42 Q1662.21 1125.42 1659.25 1128.19 Q1656.33 1130.96 1655.88 1135.99 L1676.76 1135.95 Z" fill="#000000" fill-rule="nonzero" fill-opacity="1" /><path clip-path="url(#clip900)" d="M1708.43 1139.04 Q1701.33 1139.04 1698.59 1140.67 Q1695.86 1142.29 1695.86 1146.2 Q1695.86 1149.32 1697.89 1151.17 Q1699.96 1152.98 1703.5 1152.98 Q1708.37 1152.98 1711.29 1149.55 Q1714.25 1146.08 1714.25 1140.35 L1714.25 1139.04 L1708.43 1139.04 M1720.11 1136.62 L1720.11 1156.96 L1714.25 1156.96 L1714.25 1151.55 Q1712.25 1154.8 1709.26 1156.36 Q1706.27 1157.88 1701.94 1157.88 Q1696.46 1157.88 1693.22 1154.83 Q1690 1151.74 1690 1146.59 Q1690 1140.57 1694.01 1137.51 Q1698.05 1134.46 1706.04 1134.46 L1714.25 1134.46 L1714.25 1133.89 Q1714.25 1129.84 1711.58 1127.65 Q1708.94 1125.42 1704.13 1125.42 Q1701.08 1125.42 1698.18 1126.15 Q1695.28 1126.88 1692.61 1128.35 L1692.61 1122.94 Q1695.83 1121.7 1698.85 1121.09 Q1701.87 1120.45 1704.74 1120.45 Q1712.47 1120.45 1716.29 1124.46 Q1720.11 1128.48 1720.11 1136.62 Z" fill="#000000" fill-rule="nonzero" fill-opacity="1" /><path clip-path="url(#clip900)" d="M1755.63 1138.72 Q1755.63 1132.36 1752.99 1128.86 Q1750.38 1125.36 1745.64 1125.36 Q1740.93 1125.36 1738.28 1128.86 Q1735.67 1132.36 1735.67 1138.72 Q1735.67 1145.06 1738.28 1148.56 Q1740.93 1152.06 1745.64 1152.06 Q1750.38 1152.06 1752.99 1148.56 Q1755.63 1145.06 1755.63 1138.72 M1761.49 1152.54 Q1761.49 1161.64 1757.45 1166.06 Q1753.4 1170.52 1745.06 1170.52 Q1741.98 1170.52 1739.24 1170.04 Q1736.5 1169.6 1733.92 1168.64 L1733.92 1162.95 Q1736.5 1164.35 1739.02 1165.01 Q1741.53 1165.68 1744.14 1165.68 Q1749.9 1165.68 1752.77 1162.66 Q1755.63 1159.67 1755.63 1153.59 L1755.63 1150.69 Q1753.82 1153.84 1750.98 1155.4 Q1748.15 1156.96 1744.2 1156.96 Q1737.65 1156.96 1733.64 1151.96 Q1729.63 1146.97 1729.63 1138.72 Q1729.63 1130.45 1733.64 1125.45 Q1737.65 1120.45 1744.2 1120.45 Q1748.15 1120.45 1750.98 1122.01 Q1753.82 1123.57 1755.63 1126.72 L1755.63 1121.31 L1761.49 1121.31 L1761.49 1152.54 Z" fill="#000000" fill-rule="nonzero" fill-opacity="1" /><path clip-path="url(#clip900)" d="M1804.04 1137.67 L1804.04 1140.54 L1777.12 1140.54 Q1777.5 1146.59 1780.74 1149.77 Q1784.02 1152.92 1789.85 1152.92 Q1793.22 1152.92 1796.37 1152.09 Q1799.55 1151.26 1802.67 1149.61 L1802.67 1155.15 Q1799.52 1156.48 1796.21 1157.18 Q1792.9 1157.88 1789.5 1157.88 Q1780.97 1157.88 1775.97 1152.92 Q1771 1147.95 1771 1139.49 Q1771 1130.74 1775.71 1125.61 Q1780.46 1120.45 1788.48 1120.45 Q1795.67 1120.45 1799.84 1125.1 Q1804.04 1129.72 1804.04 1137.67 M1798.19 1135.95 Q1798.12 1131.15 1795.48 1128.28 Q1792.87 1125.42 1788.54 1125.42 Q1783.64 1125.42 1780.68 1128.19 Q1777.75 1130.96 1777.31 1135.99 L1798.19 1135.95 Z" fill="#000000" fill-rule="nonzero" fill-opacity="1" /><polyline clip-path="url(#clip902)" style="stroke:#000000; stroke-linecap:round; stroke-linejoin:round; stroke-width:2; stroke-opacity:0.1; fill:none" points="270.918,1000.1 3089.76,1000.1 "/>
<polyline clip-path="url(#clip902)" style="stroke:#000000; stroke-linecap:round; stroke-linejoin:round; stroke-width:2; stroke-opacity:0.1; fill:none" points="270.918,676.193 3089.76,676.193 "/>
<polyline clip-path="url(#clip902)" style="stroke:#000000; stroke-linecap:round; stroke-linejoin:round; stroke-width:2; stroke-opacity:0.1; fill:none" points="270.918,352.287 3089.76,352.287 "/>
<polyline clip-path="url(#clip900)" style="stroke:#000000; stroke-linecap:round; stroke-linejoin:round; stroke-width:4; stroke-opacity:1; fill:none" points="270.918,1000.1 270.918,110.236 "/>
<polyline clip-path="url(#clip900)" style="stroke:#000000; stroke-linecap:round; stroke-linejoin:round; stroke-width:4; stroke-opacity:1; fill:none" points="270.918,1000.1 289.815,1000.1 "/>
<polyline clip-path="url(#clip900)" style="stroke:#000000; stroke-linecap:round; stroke-linejoin:round; stroke-width:4; stroke-opacity:1; fill:none" points="270.918,676.193 289.815,676.193 "/>
<polyline clip-path="url(#clip900)" style="stroke:#000000; stroke-linecap:round; stroke-linejoin:round; stroke-width:4; stroke-opacity:1; fill:none" points="270.918,352.287 289.815,352.287 "/>
<path clip-path="url(#clip900)" d="M154.902 1019.89 L162.54 1019.89 L162.54 993.525 L154.23 995.191 L154.23 990.932 L162.494 989.265 L167.17 989.265 L167.17 1019.89 L174.809 1019.89 L174.809 1023.83 L154.902 1023.83 L154.902 1019.89 Z" fill="#000000" fill-rule="nonzero" fill-opacity="1" /><path clip-path="url(#clip900)" d="M194.253 992.344 Q190.642 992.344 188.813 995.909 Q187.008 999.45 187.008 1006.58 Q187.008 1013.69 188.813 1017.25 Q190.642 1020.79 194.253 1020.79 Q197.887 1020.79 199.693 1017.25 Q201.522 1013.69 201.522 1006.58 Q201.522 999.45 199.693 995.909 Q197.887 992.344 194.253 992.344 M194.253 988.64 Q200.063 988.64 203.119 993.247 Q206.198 997.83 206.198 1006.58 Q206.198 1015.31 203.119 1019.91 Q200.063 1024.5 194.253 1024.5 Q188.443 1024.5 185.364 1019.91 Q182.309 1015.31 182.309 1006.58 Q182.309 997.83 185.364 993.247 Q188.443 988.64 194.253 988.64 Z" fill="#000000" fill-rule="nonzero" fill-opacity="1" /><path clip-path="url(#clip900)" d="M206.743 993.218 L212.95 993.218 L212.95 971.796 L206.198 973.15 L206.198 969.689 L212.912 968.335 L216.711 968.335 L216.711 993.218 L222.918 993.218 L222.918 996.415 L206.743 996.415 L206.743 993.218 Z" fill="#000000" fill-rule="nonzero" fill-opacity="1" /><path clip-path="url(#clip900)" d="M153.792 695.985 L161.431 695.985 L161.431 669.619 L153.121 671.286 L153.121 667.027 L161.384 665.36 L166.06 665.36 L166.06 695.985 L173.699 695.985 L173.699 699.92 L153.792 699.92 L153.792 695.985 Z" fill="#000000" fill-rule="nonzero" fill-opacity="1" /><path clip-path="url(#clip900)" d="M193.143 668.439 Q189.532 668.439 187.704 672.004 Q185.898 675.545 185.898 682.675 Q185.898 689.781 187.704 693.346 Q189.532 696.888 193.143 696.888 Q196.778 696.888 198.583 693.346 Q200.412 689.781 200.412 682.675 Q200.412 675.545 198.583 672.004 Q196.778 668.439 193.143 668.439 M193.143 664.735 Q198.954 664.735 202.009 669.342 Q205.088 673.925 205.088 682.675 Q205.088 691.402 202.009 696.008 Q198.954 700.591 193.143 700.591 Q187.333 700.591 184.255 696.008 Q181.199 691.402 181.199 682.675 Q181.199 673.925 184.255 669.342 Q187.333 664.735 193.143 664.735 Z" fill="#000000" fill-rule="nonzero" fill-opacity="1" /><path clip-path="url(#clip900)" d="M209.658 669.312 L222.918 669.312 L222.918 672.51 L205.088 672.51 L205.088 669.312 Q207.251 667.074 210.975 663.313 Q214.717 659.532 215.677 658.442 Q217.501 656.392 218.216 654.981 Q218.949 653.552 218.949 652.179 Q218.949 649.94 217.369 648.53 Q215.808 647.119 213.288 647.119 Q211.501 647.119 209.508 647.74 Q207.533 648.361 205.276 649.621 L205.276 645.784 Q207.57 644.862 209.564 644.392 Q211.558 643.922 213.213 643.922 Q217.576 643.922 220.172 646.104 Q222.767 648.285 222.767 651.934 Q222.767 653.664 222.109 655.225 Q221.469 656.768 219.758 658.874 Q219.288 659.42 216.767 662.034 Q214.247 664.629 209.658 669.312 Z" fill="#000000" fill-rule="nonzero" fill-opacity="1" /><path clip-path="url(#clip900)" d="M153.134 372.08 L160.772 372.08 L160.772 345.714 L152.462 347.381 L152.462 343.122 L160.726 341.455 L165.402 341.455 L165.402 372.08 L173.041 372.08 L173.041 376.015 L153.134 376.015 L153.134 372.08 Z" fill="#000000" fill-rule="nonzero" fill-opacity="1" /><path clip-path="url(#clip900)" d="M192.485 344.534 Q188.874 344.534 187.045 348.099 Q185.24 351.64 185.24 358.77 Q185.24 365.876 187.045 369.441 Q188.874 372.983 192.485 372.983 Q196.119 372.983 197.925 369.441 Q199.754 365.876 199.754 358.77 Q199.754 351.64 197.925 348.099 Q196.119 344.534 192.485 344.534 M192.485 340.83 Q198.295 340.83 201.351 345.437 Q204.43 350.02 204.43 358.77 Q204.43 367.497 201.351 372.103 Q198.295 376.686 192.485 376.686 Q186.675 376.686 183.596 372.103 Q180.541 367.497 180.541 358.77 Q180.541 350.02 183.596 345.437 Q186.675 340.83 192.485 340.83 Z" fill="#000000" fill-rule="nonzero" fill-opacity="1" /><path clip-path="url(#clip900)" d="M217.125 333.464 Q219.852 334.047 221.375 335.891 Q222.918 337.734 222.918 340.442 Q222.918 344.599 220.059 346.874 Q217.2 349.15 211.934 349.15 Q210.166 349.15 208.285 348.793 Q206.423 348.454 204.43 347.758 L204.43 344.091 Q206.009 345.012 207.89 345.483 Q209.771 345.953 211.821 345.953 Q215.395 345.953 217.256 344.542 Q219.137 343.132 219.137 340.442 Q219.137 337.959 217.388 336.568 Q215.658 335.157 212.555 335.157 L209.282 335.157 L209.282 332.035 L212.705 332.035 Q215.507 332.035 216.993 330.925 Q218.479 329.797 218.479 327.69 Q218.479 325.528 216.937 324.38 Q215.413 323.214 212.555 323.214 Q210.994 323.214 209.207 323.553 Q207.42 323.891 205.276 324.606 L205.276 321.221 Q207.439 320.619 209.32 320.318 Q211.219 320.017 212.893 320.017 Q217.219 320.017 219.739 321.992 Q222.259 323.948 222.259 327.295 Q222.259 329.628 220.924 331.245 Q219.589 332.844 217.125 333.464 Z" fill="#000000" fill-rule="nonzero" fill-opacity="1" /><path clip-path="url(#clip900)" d="M42.6863 950.461 L42.6863 920.415 L48.0971 920.415 L48.0971 944.032 L62.1653 944.032 L62.1653 921.402 L67.5762 921.402 L67.5762 944.032 L84.7954 944.032 L84.7954 919.842 L90.2063 919.842 L90.2063 950.461 L42.6863 950.461 Z" fill="#000000" fill-rule="nonzero" fill-opacity="1" /><path clip-path="url(#clip900)" d="M44.2459 880.789 L50.5161 880.789 Q48.7655 884.449 47.9062 887.696 Q47.0468 890.942 47.0468 893.966 Q47.0468 899.217 49.0838 902.082 Q51.1208 904.915 54.8766 904.915 Q58.0276 904.915 59.6509 903.037 Q61.2423 901.127 62.229 895.844 L63.0247 891.961 Q64.3933 884.767 67.8627 881.362 Q71.3001 877.924 77.0929 877.924 Q83.9997 877.924 87.5645 882.571 Q91.1293 887.186 91.1293 896.13 Q91.1293 899.504 90.3654 903.323 Q89.6015 907.111 88.1056 911.185 L81.4853 911.185 Q83.6814 907.27 84.7954 903.514 Q85.9094 899.759 85.9094 896.13 Q85.9094 890.624 83.7451 887.632 Q81.5808 884.64 77.5704 884.64 Q74.0692 884.64 72.0958 886.804 Q70.1225 888.937 69.1358 893.838 L68.3719 897.753 Q66.9396 904.947 63.8841 908.161 Q60.8285 911.376 55.3859 911.376 Q49.0838 911.376 45.4554 906.952 Q41.8269 902.496 41.8269 894.698 Q41.8269 891.356 42.4317 887.887 Q43.0364 884.417 44.2459 880.789 Z" fill="#000000" fill-rule="nonzero" fill-opacity="1" /><path clip-path="url(#clip900)" d="M44.2459 839.412 L50.5161 839.412 Q48.7655 843.072 47.9062 846.318 Q47.0468 849.565 47.0468 852.589 Q47.0468 857.84 49.0838 860.705 Q51.1208 863.538 54.8766 863.538 Q58.0276 863.538 59.6509 861.66 Q61.2423 859.75 62.229 854.467 L63.0247 850.583 Q64.3933 843.39 67.8627 839.985 Q71.3001 836.547 77.0929 836.547 Q83.9997 836.547 87.5645 841.194 Q91.1293 845.809 91.1293 854.753 Q91.1293 858.127 90.3654 861.946 Q89.6015 865.734 88.1056 869.808 L81.4853 869.808 Q83.6814 865.893 84.7954 862.137 Q85.9094 858.381 85.9094 854.753 Q85.9094 849.247 83.7451 846.255 Q81.5808 843.263 77.5704 843.263 Q74.0692 843.263 72.0958 845.427 Q70.1225 847.56 69.1358 852.461 L68.3719 856.376 Q66.9396 863.57 63.8841 866.784 Q60.8285 869.999 55.3859 869.999 Q49.0838 869.999 45.4554 865.575 Q41.8269 861.119 41.8269 853.321 Q41.8269 849.979 42.4317 846.509 Q43.0364 843.04 44.2459 839.412 Z" fill="#000000" fill-rule="nonzero" fill-opacity="1" /><path clip-path="url(#clip900)" d="M82.1218 825.28 L82.1218 818.564 L90.2063 818.564 L90.2063 825.28 L82.1218 825.28 M56.4999 825.28 L56.4999 818.564 L64.5843 818.564 L64.5843 825.28 L56.4999 825.28 Z" fill="#000000" fill-rule="nonzero" fill-opacity="1" /><path clip-path="url(#clip900)" d="M47.9698 777.41 L84.9227 777.41 L84.9227 769.644 Q84.9227 759.809 80.4668 755.257 Q76.0108 750.674 66.3985 750.674 Q56.85 750.674 52.4258 755.257 Q47.9698 759.809 47.9698 769.644 L47.9698 777.41 M42.6863 783.839 L42.6863 770.63 Q42.6863 756.817 48.4472 750.355 Q54.1764 743.894 66.3985 743.894 Q78.6844 743.894 84.4453 750.387 Q90.2063 756.88 90.2063 770.63 L90.2063 783.839 L42.6863 783.839 Z" fill="#000000" fill-rule="nonzero" fill-opacity="1" /><path clip-path="url(#clip900)" d="M70.9182 703.408 L73.7828 703.408 L73.7828 730.335 Q79.8302 729.953 83.013 726.707 Q86.1641 723.429 86.1641 717.604 Q86.1641 714.23 85.3365 711.079 Q84.509 707.896 82.8539 704.777 L88.3921 704.777 Q89.7289 707.928 90.4291 711.238 Q91.1293 714.548 91.1293 717.954 Q91.1293 726.484 86.1641 731.481 Q81.1988 736.446 72.7324 736.446 Q63.9796 736.446 58.8552 731.736 Q53.699 726.993 53.699 718.973 Q53.699 711.779 58.3459 707.61 Q62.9611 703.408 70.9182 703.408 M69.1995 709.265 Q64.3933 709.328 61.5288 711.97 Q58.6642 714.58 58.6642 718.909 Q58.6642 723.81 61.4333 726.771 Q64.2024 729.699 69.2313 730.144 L69.1995 709.265 Z" fill="#000000" fill-rule="nonzero" fill-opacity="1" /><path clip-path="url(#clip900)" d="M68.6902 664.164 L90.2063 664.164 L90.2063 670.02 L68.8812 670.02 Q63.8204 670.02 61.306 671.994 Q58.7915 673.967 58.7915 677.914 Q58.7915 682.656 61.8152 685.393 Q64.8389 688.131 70.0588 688.131 L90.2063 688.131 L90.2063 694.019 L54.5583 694.019 L54.5583 688.131 L60.0965 688.131 Q56.8818 686.03 55.2904 683.197 Q53.699 680.333 53.699 676.609 Q53.699 670.466 57.5184 667.315 Q61.306 664.164 68.6902 664.164 Z" fill="#000000" fill-rule="nonzero" fill-opacity="1" /><path clip-path="url(#clip900)" d="M61.4015 624.728 Q57.4547 622.532 55.5768 619.477 Q53.699 616.421 53.699 612.283 Q53.699 606.713 57.6139 603.69 Q61.4969 600.666 68.6902 600.666 L90.2063 600.666 L90.2063 606.554 L68.8812 606.554 Q63.7568 606.554 61.2741 608.368 Q58.7915 610.183 58.7915 613.907 Q58.7915 618.458 61.8152 621.1 Q64.8389 623.742 70.0588 623.742 L90.2063 623.742 L90.2063 629.63 L68.8812 629.63 Q63.7249 629.63 61.2741 631.444 Q58.7915 633.258 58.7915 637.046 Q58.7915 641.534 61.8471 644.175 Q64.8708 646.817 70.0588 646.817 L90.2063 646.817 L90.2063 652.706 L54.5583 652.706 L54.5583 646.817 L60.0965 646.817 Q56.8182 644.812 55.2586 642.011 Q53.699 639.21 53.699 635.359 Q53.699 631.476 55.6723 628.77 Q57.6457 626.033 61.4015 624.728 Z" fill="#000000" fill-rule="nonzero" fill-opacity="1" /><path clip-path="url(#clip900)" d="M72.2868 572.784 Q72.2868 579.882 73.9101 582.619 Q75.5333 585.356 79.4482 585.356 Q82.5674 585.356 84.4135 583.319 Q86.2277 581.25 86.2277 577.717 Q86.2277 572.848 82.7902 569.919 Q79.3209 566.959 73.5918 566.959 L72.2868 566.959 L72.2868 572.784 M69.8679 561.103 L90.2063 561.103 L90.2063 566.959 L84.7954 566.959 Q88.0419 568.965 89.6015 571.957 Q91.1293 574.948 91.1293 579.277 Q91.1293 584.752 88.0738 587.998 Q84.9864 591.213 79.8302 591.213 Q73.8146 591.213 70.759 587.202 Q67.7035 583.16 67.7035 575.171 L67.7035 566.959 L67.1306 566.959 Q63.0884 566.959 60.8922 569.633 Q58.6642 572.275 58.6642 577.081 Q58.6642 580.136 59.3963 583.033 Q60.1283 585.929 61.5924 588.603 L56.1816 588.603 Q54.9403 585.388 54.3355 582.364 Q53.699 579.341 53.699 576.476 Q53.699 568.742 57.7094 564.922 Q61.7197 561.103 69.8679 561.103 Z" fill="#000000" fill-rule="nonzero" fill-opacity="1" /><path clip-path="url(#clip900)" d="M60.0328 528.383 Q59.4599 529.37 59.2053 530.548 Q58.9188 531.693 58.9188 533.094 Q58.9188 538.059 62.1653 540.733 Q65.38 543.374 71.4274 543.374 L90.2063 543.374 L90.2063 549.263 L54.5583 549.263 L54.5583 543.374 L60.0965 543.374 Q56.85 541.528 55.2904 538.568 Q53.699 535.608 53.699 531.375 Q53.699 530.77 53.7944 530.038 Q53.8581 529.306 54.0172 528.415 L60.0328 528.383 Z" fill="#000000" fill-rule="nonzero" fill-opacity="1" /><path clip-path="url(#clip900)" d="M40.6811 522.463 L40.6811 516.575 L69.9315 516.575 L54.5583 499.101 L54.5583 491.621 L71.2365 510.527 L90.2063 490.826 L90.2063 498.464 L72.7961 516.575 L90.2063 516.575 L90.2063 522.463 L40.6811 522.463 Z" fill="#000000" fill-rule="nonzero" fill-opacity="1" /><path clip-path="url(#clip900)" d="M82.1218 482.996 L82.1218 476.28 L87.5963 476.28 L97.7815 481.5 L97.7815 485.606 L87.5963 482.996 L82.1218 482.996 Z" fill="#000000" fill-rule="nonzero" fill-opacity="1" /><path clip-path="url(#clip900)" d="M44.4369 437.258 L54.5583 437.258 L54.5583 425.195 L59.1098 425.195 L59.1098 437.258 L78.4616 437.258 Q82.8221 437.258 84.0634 436.081 Q85.3047 434.871 85.3047 431.211 L85.3047 425.195 L90.2063 425.195 L90.2063 431.211 Q90.2063 437.99 87.6918 440.568 Q85.1455 443.146 78.4616 443.146 L59.1098 443.146 L59.1098 447.443 L54.5583 447.443 L54.5583 443.146 L44.4369 443.146 L44.4369 437.258 Z" fill="#000000" fill-rule="nonzero" fill-opacity="1" /><path clip-path="url(#clip900)" d="M54.5583 417.493 L54.5583 411.636 L90.2063 411.636 L90.2063 417.493 L54.5583 417.493 M40.6811 417.493 L40.6811 411.636 L48.0971 411.636 L48.0971 417.493 L40.6811 417.493 Z" fill="#000000" fill-rule="nonzero" fill-opacity="1" /><path clip-path="url(#clip900)" d="M61.4015 371.628 Q57.4547 369.432 55.5768 366.376 Q53.699 363.32 53.699 359.183 Q53.699 353.613 57.6139 350.589 Q61.4969 347.565 68.6902 347.565 L90.2063 347.565 L90.2063 353.454 L68.8812 353.454 Q63.7568 353.454 61.2741 355.268 Q58.7915 357.082 58.7915 360.806 Q58.7915 365.358 61.8152 367.999 Q64.8389 370.641 70.0588 370.641 L90.2063 370.641 L90.2063 376.529 L68.8812 376.529 Q63.7249 376.529 61.2741 378.344 Q58.7915 380.158 58.7915 383.945 Q58.7915 388.433 61.8471 391.075 Q64.8708 393.717 70.0588 393.717 L90.2063 393.717 L90.2063 399.605 L54.5583 399.605 L54.5583 393.717 L60.0965 393.717 Q56.8182 391.712 55.2586 388.911 Q53.699 386.11 53.699 382.258 Q53.699 378.375 55.6723 375.67 Q57.6457 372.933 61.4015 371.628 Z" fill="#000000" fill-rule="nonzero" fill-opacity="1" /><path clip-path="url(#clip900)" d="M70.9182 305.393 L73.7828 305.393 L73.7828 332.319 Q79.8302 331.938 83.013 328.691 Q86.1641 325.413 86.1641 319.588 Q86.1641 316.214 85.3365 313.063 Q84.509 309.88 82.8539 306.761 L88.3921 306.761 Q89.7289 309.912 90.4291 313.222 Q91.1293 316.533 91.1293 319.938 Q91.1293 328.468 86.1641 333.465 Q81.1988 338.431 72.7324 338.431 Q63.9796 338.431 58.8552 333.72 Q53.699 328.977 53.699 320.957 Q53.699 313.763 58.3459 309.594 Q62.9611 305.393 70.9182 305.393 M69.1995 311.249 Q64.3933 311.313 61.5288 313.954 Q58.6642 316.564 58.6642 320.893 Q58.6642 325.795 61.4333 328.755 Q64.2024 331.683 69.2313 332.129 L69.1995 311.249 Z" fill="#000000" fill-rule="nonzero" fill-opacity="1" /><path clip-path="url(#clip900)" d="M82.1218 294.284 L82.1218 287.569 L90.2063 287.569 L90.2063 294.284 L82.1218 294.284 M56.4999 294.284 L56.4999 287.569 L64.5843 287.569 L64.5843 294.284 L56.4999 294.284 Z" fill="#000000" fill-rule="nonzero" fill-opacity="1" /><path clip-path="url(#clip900)" d="M84.7954 271.877 L84.7954 261.374 L48.5427 261.374 L50.8344 272.8 L44.9779 272.8 L42.6863 261.437 L42.6863 255.008 L84.7954 255.008 L84.7954 244.505 L90.2063 244.505 L90.2063 271.877 L84.7954 271.877 Z" fill="#000000" fill-rule="nonzero" fill-opacity="1" /><path clip-path="url(#clip900)" d="M46.9195 217.769 Q46.9195 222.734 51.8211 225.248 Q56.6908 227.731 66.494 227.731 Q76.2654 227.731 81.167 225.248 Q86.0367 222.734 86.0367 217.769 Q86.0367 212.772 81.167 210.289 Q76.2654 207.774 66.494 207.774 Q56.6908 207.774 51.8211 210.289 Q46.9195 212.772 46.9195 217.769 M41.8269 217.769 Q41.8269 209.78 48.1608 205.578 Q54.4628 201.345 66.494 201.345 Q78.4934 201.345 84.8273 205.578 Q91.1293 209.78 91.1293 217.769 Q91.1293 225.758 84.8273 229.991 Q78.4934 234.192 66.494 234.192 Q54.4628 234.192 48.1608 229.991 Q41.8269 225.758 41.8269 217.769 Z" fill="#000000" fill-rule="nonzero" fill-opacity="1" /><path clip-path="url(#clip900)" d="M46.9195 176.296 Q46.9195 181.261 51.8211 183.776 Q56.6908 186.258 66.494 186.258 Q76.2654 186.258 81.167 183.776 Q86.0367 181.261 86.0367 176.296 Q86.0367 171.299 81.167 168.816 Q76.2654 166.302 66.494 166.302 Q56.6908 166.302 51.8211 168.816 Q46.9195 171.299 46.9195 176.296 M41.8269 176.296 Q41.8269 168.307 48.1608 164.106 Q54.4628 159.873 66.494 159.873 Q78.4934 159.873 84.8273 164.106 Q91.1293 168.307 91.1293 176.296 Q91.1293 184.285 84.8273 188.518 Q78.4934 192.72 66.494 192.72 Q54.4628 192.72 48.1608 188.518 Q41.8269 184.285 41.8269 176.296 Z" fill="#000000" fill-rule="nonzero" fill-opacity="1" /><polyline clip-path="url(#clip902)" style="stroke:#009af9; stroke-linecap:round; stroke-linejoin:round; stroke-width:4; stroke-opacity:1; fill:none" points="350.696,343.365 373.425,174.141 396.154,192.539 418.883,211.958 441.612,192.163 464.341,197.224 487.07,193.204 509.799,187.679 532.528,123.462 555.257,164.365 577.986,190.647 600.715,177.493 623.444,167.725 646.173,179.616 668.902,189.719 691.631,176.541 714.36,137.744 737.089,172.162 759.818,158.909 782.547,167.255 805.276,182.34 828.005,183.163 850.734,188.584 873.462,194.954 896.191,153.74 918.92,170.147 941.649,150.4 964.378,174.802 987.107,177.414 1009.84,178.686 1032.57,139.105 1055.29,184.605 1078.02,152.96 1100.75,139.452 1123.48,170.36 1146.21,167.913 1168.94,179.869 1191.67,153.284 1214.4,194.286 1237.13,166.916 1259.85,178.41 1282.58,177.354 1305.31,228.305 1328.04,208.836 1350.77,159.971 1373.5,192.098 1396.23,183.377 1418.96,176.63 1441.69,161.165 1464.42,173.763 1487.14,201.081 1509.87,200.106 1532.6,180.125 1555.33,136.994 1578.06,172.992 1600.79,156.698 1623.52,161.892 1646.25,147.316 1668.98,167.105 1691.71,179.305 1714.43,199.341 1737.16,189.476 1759.89,163.661 1782.62,175.855 1805.35,155.864 1828.08,169.998 1850.81,162.726 1873.54,176.232 1896.27,155.798 1918.99,221.931 1941.72,172.601 1964.45,171.653 1987.18,171.974 2009.91,173.139 2032.64,166.439 2055.37,181.695 2078.1,186.502 2100.83,160.16 2123.56,173.22 2146.28,156.596 2169.01,172.077 2191.74,182.726 2214.47,163.353 2237.2,170.986 2259.93,121.007 2282.66,180.331 2305.39,166.118 2328.12,176.411 2350.85,130.69 2373.57,185.816 2396.3,159.364 2419.03,152.015 2441.76,170.429 2464.49,181.791 2487.22,110.236 2509.95,163.635 2532.68,148.66 2555.41,165.975 2578.13,145.128 2600.86,149.494 2623.59,174.858 2646.32,120.887 2669.05,175.563 2691.78,196.439 2714.51,150.716 2737.24,128.98 2759.97,161.083 2782.7,170.71 2805.42,157.624 2828.15,183.74 2850.88,181.057 2873.61,163.59 2896.34,168.54 2919.07,176.101 2941.8,170.38 2964.53,167.826 2987.26,142.981 3009.99,158.623 "/>
</svg>
