<?xml version="1.0" encoding="utf-8"?>
<svg xmlns="http://www.w3.org/2000/svg" xmlns:xlink="http://www.w3.org/1999/xlink" width="800" height="300" viewBox="0 0 3200 1200">
<defs>
  <clipPath id="clip060">
    <rect x="0" y="0" width="3200" height="1200"/>
  </clipPath>
</defs>
<path clip-path="url(#clip060)" d="
M0 1200 L3200 1200 L3200 0 L0 0  Z
  " fill="#ffffff" fill-rule="evenodd" fill-opacity="1"/>
<defs>
  <clipPath id="clip061">
    <rect x="640" y="0" width="2241" height="1200"/>
  </clipPath>
</defs>
<path clip-path="url(#clip060)" d="
M270.918 1000.1 L3089.76 1000.1 L3089.76 110.236 L270.918 110.236  Z
  " fill="#ffffff" fill-rule="evenodd" fill-opacity="1"/>
<defs>
  <clipPath id="clip062">
    <rect x="270" y="110" width="2820" height="891"/>
  </clipPath>
</defs>
<polyline clip-path="url(#clip062)" style="stroke:#000000; stroke-linecap:round; stroke-linejoin:round; stroke-width:2; stroke-opacity:0.1; fill:none" points="
  339.332,1000.1 339.332,110.236 
  "/>
<polyline clip-path="url(#clip062)" style="stroke:#000000; stroke-linecap:round; stroke-linejoin:round; stroke-width:2; stroke-opacity:0.1; fill:none" points="
  907.556,1000.1 907.556,110.236 
  "/>
<polyline clip-path="url(#clip062)" style="stroke:#000000; stroke-linecap:round; stroke-linejoin:round; stroke-width:2; stroke-opacity:0.1; fill:none" points="
  1475.78,1000.1 1475.78,110.236 
  "/>
<polyline clip-path="url(#clip062)" style="stroke:#000000; stroke-linecap:round; stroke-linejoin:round; stroke-width:2; stroke-opacity:0.1; fill:none" points="
  2044,1000.1 2044,110.236 
  "/>
<polyline clip-path="url(#clip062)" style="stroke:#000000; stroke-linecap:round; stroke-linejoin:round; stroke-width:2; stroke-opacity:0.1; fill:none" points="
  2612.23,1000.1 2612.23,110.236 
  "/>
<polyline clip-path="url(#clip060)" style="stroke:#000000; stroke-linecap:round; stroke-linejoin:round; stroke-width:4; stroke-opacity:1; fill:none" points="
  270.918,1000.1 3089.76,1000.1 
  "/>
<polyline clip-path="url(#clip060)" style="stroke:#000000; stroke-linecap:round; stroke-linejoin:round; stroke-width:4; stroke-opacity:1; fill:none" points="
  339.332,1000.1 339.332,981.2 
  "/>
<polyline clip-path="url(#clip060)" style="stroke:#000000; stroke-linecap:round; stroke-linejoin:round; stroke-width:4; stroke-opacity:1; fill:none" points="
  907.556,1000.1 907.556,981.2 
  "/>
<polyline clip-path="url(#clip060)" style="stroke:#000000; stroke-linecap:round; stroke-linejoin:round; stroke-width:4; stroke-opacity:1; fill:none" points="
  1475.78,1000.1 1475.78,981.2 
  "/>
<polyline clip-path="url(#clip060)" style="stroke:#000000; stroke-linecap:round; stroke-linejoin:round; stroke-width:4; stroke-opacity:1; fill:none" points="
  2044,1000.1 2044,981.2 
  "/>
<polyline clip-path="url(#clip060)" style="stroke:#000000; stroke-linecap:round; stroke-linejoin:round; stroke-width:4; stroke-opacity:1; fill:none" points="
  2612.23,1000.1 2612.23,981.2 
  "/>
<path clip-path="url(#clip060)" d="M339.332 1037.42 Q335.721 1037.42 333.892 1040.98 Q332.086 1044.52 332.086 1051.65 Q332.086 1058.76 333.892 1062.32 Q335.721 1065.87 339.332 1065.87 Q342.966 1065.87 344.772 1062.32 Q346.6 1058.76 346.6 1051.65 Q346.6 1044.52 344.772 1040.98 Q342.966 1037.42 339.332 1037.42 M339.332 1033.71 Q345.142 1033.71 348.198 1038.32 Q351.276 1042.9 351.276 1051.65 Q351.276 1060.38 348.198 1064.99 Q345.142 1069.57 339.332 1069.57 Q333.522 1069.57 330.443 1064.99 Q327.387 1060.38 327.387 1051.65 Q327.387 1042.9 330.443 1038.32 Q333.522 1033.71 339.332 1033.71 Z" fill="#000000" fill-rule="evenodd" fill-opacity="1" /><path clip-path="url(#clip060)" d="M882.255 1034.34 L900.612 1034.34 L900.612 1038.27 L886.538 1038.27 L886.538 1046.75 Q887.556 1046.4 888.575 1046.24 Q889.593 1046.05 890.612 1046.05 Q896.399 1046.05 899.778 1049.22 Q903.158 1052.39 903.158 1057.81 Q903.158 1063.39 899.686 1066.49 Q896.213 1069.57 889.894 1069.57 Q887.718 1069.57 885.45 1069.2 Q883.204 1068.83 880.797 1068.09 L880.797 1063.39 Q882.88 1064.52 885.102 1065.08 Q887.325 1065.63 889.801 1065.63 Q893.806 1065.63 896.144 1063.53 Q898.482 1061.42 898.482 1057.81 Q898.482 1054.2 896.144 1052.09 Q893.806 1049.99 889.801 1049.99 Q887.926 1049.99 886.051 1050.4 Q884.2 1050.82 882.255 1051.7 L882.255 1034.34 Z" fill="#000000" fill-rule="evenodd" fill-opacity="1" /><path clip-path="url(#clip060)" d="M922.371 1037.42 Q918.76 1037.42 916.931 1040.98 Q915.125 1044.52 915.125 1051.65 Q915.125 1058.76 916.931 1062.32 Q918.76 1065.87 922.371 1065.87 Q926.005 1065.87 927.81 1062.32 Q929.639 1058.76 929.639 1051.65 Q929.639 1044.52 927.81 1040.98 Q926.005 1037.42 922.371 1037.42 M922.371 1033.71 Q928.181 1033.71 931.236 1038.32 Q934.315 1042.9 934.315 1051.65 Q934.315 1060.38 931.236 1064.99 Q928.181 1069.57 922.371 1069.57 Q916.561 1069.57 913.482 1064.99 Q910.426 1060.38 910.426 1051.65 Q910.426 1042.9 913.482 1038.32 Q916.561 1033.71 922.371 1033.71 Z" fill="#000000" fill-rule="evenodd" fill-opacity="1" /><path clip-path="url(#clip060)" d="M1435.39 1064.96 L1443.03 1064.96 L1443.03 1038.6 L1434.72 1040.26 L1434.72 1036 L1442.98 1034.34 L1447.66 1034.34 L1447.66 1064.96 L1455.29 1064.96 L1455.29 1068.9 L1435.39 1068.9 L1435.39 1064.96 Z" fill="#000000" fill-rule="evenodd" fill-opacity="1" /><path clip-path="url(#clip060)" d="M1474.74 1037.42 Q1471.13 1037.42 1469.3 1040.98 Q1467.49 1044.52 1467.49 1051.65 Q1467.49 1058.76 1469.3 1062.32 Q1471.13 1065.87 1474.74 1065.87 Q1478.37 1065.87 1480.18 1062.32 Q1482.01 1058.76 1482.01 1051.65 Q1482.01 1044.52 1480.18 1040.98 Q1478.37 1037.42 1474.74 1037.42 M1474.74 1033.71 Q1480.55 1033.71 1483.6 1038.32 Q1486.68 1042.9 1486.68 1051.65 Q1486.68 1060.38 1483.6 1064.99 Q1480.55 1069.57 1474.74 1069.57 Q1468.93 1069.57 1465.85 1064.99 Q1462.79 1060.38 1462.79 1051.65 Q1462.79 1042.9 1465.85 1038.32 Q1468.93 1033.71 1474.74 1033.71 Z" fill="#000000" fill-rule="evenodd" fill-opacity="1" /><path clip-path="url(#clip060)" d="M1504.9 1037.42 Q1501.29 1037.42 1499.46 1040.98 Q1497.65 1044.52 1497.65 1051.65 Q1497.65 1058.76 1499.46 1062.32 Q1501.29 1065.87 1504.9 1065.87 Q1508.53 1065.87 1510.34 1062.32 Q1512.17 1058.76 1512.17 1051.65 Q1512.17 1044.52 1510.34 1040.98 Q1508.53 1037.42 1504.9 1037.42 M1504.9 1033.71 Q1510.71 1033.71 1513.77 1038.32 Q1516.84 1042.9 1516.84 1051.65 Q1516.84 1060.38 1513.77 1064.99 Q1510.71 1069.57 1504.9 1069.57 Q1499.09 1069.57 1496.01 1064.99 Q1492.96 1060.38 1492.96 1051.65 Q1492.96 1042.9 1496.01 1038.32 Q1499.09 1033.71 1504.9 1033.71 Z" fill="#000000" fill-rule="evenodd" fill-opacity="1" /><path clip-path="url(#clip060)" d="M2003.61 1064.96 L2011.25 1064.96 L2011.25 1038.6 L2002.94 1040.26 L2002.94 1036 L2011.2 1034.34 L2015.88 1034.34 L2015.88 1064.96 L2023.52 1064.96 L2023.52 1068.9 L2003.61 1068.9 L2003.61 1064.96 Z" fill="#000000" fill-rule="evenodd" fill-opacity="1" /><path clip-path="url(#clip060)" d="M2033.01 1034.34 L2051.37 1034.34 L2051.37 1038.27 L2037.29 1038.27 L2037.29 1046.75 Q2038.31 1046.4 2039.33 1046.24 Q2040.35 1046.05 2041.37 1046.05 Q2047.15 1046.05 2050.53 1049.22 Q2053.91 1052.39 2053.91 1057.81 Q2053.91 1063.39 2050.44 1066.49 Q2046.97 1069.57 2040.65 1069.57 Q2038.47 1069.57 2036.2 1069.2 Q2033.96 1068.83 2031.55 1068.09 L2031.55 1063.39 Q2033.63 1064.52 2035.86 1065.08 Q2038.08 1065.63 2040.56 1065.63 Q2044.56 1065.63 2046.9 1063.53 Q2049.24 1061.42 2049.24 1057.81 Q2049.24 1054.2 2046.9 1052.09 Q2044.56 1049.99 2040.56 1049.99 Q2038.68 1049.99 2036.81 1050.4 Q2034.95 1050.82 2033.01 1051.7 L2033.01 1034.34 Z" fill="#000000" fill-rule="evenodd" fill-opacity="1" /><path clip-path="url(#clip060)" d="M2073.12 1037.42 Q2069.51 1037.42 2067.68 1040.98 Q2065.88 1044.52 2065.88 1051.65 Q2065.88 1058.76 2067.68 1062.32 Q2069.51 1065.87 2073.12 1065.87 Q2076.76 1065.87 2078.56 1062.32 Q2080.39 1058.76 2080.39 1051.65 Q2080.39 1044.52 2078.56 1040.98 Q2076.76 1037.42 2073.12 1037.42 M2073.12 1033.71 Q2078.93 1033.71 2081.99 1038.32 Q2085.07 1042.9 2085.07 1051.65 Q2085.07 1060.38 2081.99 1064.99 Q2078.93 1069.57 2073.12 1069.57 Q2067.31 1069.57 2064.24 1064.99 Q2061.18 1060.38 2061.18 1051.65 Q2061.18 1042.9 2064.24 1038.32 Q2067.31 1033.71 2073.12 1033.71 Z" fill="#000000" fill-rule="evenodd" fill-opacity="1" /><path clip-path="url(#clip060)" d="M2575.92 1064.96 L2592.24 1064.96 L2592.24 1068.9 L2570.3 1068.9 L2570.3 1064.96 Q2572.96 1062.21 2577.54 1057.58 Q2582.15 1052.93 2583.33 1051.58 Q2585.57 1049.06 2586.45 1047.32 Q2587.36 1045.56 2587.36 1043.87 Q2587.36 1041.12 2585.41 1039.38 Q2583.49 1037.65 2580.39 1037.65 Q2578.19 1037.65 2575.74 1038.41 Q2573.3 1039.18 2570.53 1040.73 L2570.53 1036 Q2573.35 1034.87 2575.8 1034.29 Q2578.26 1033.71 2580.3 1033.71 Q2585.67 1033.71 2588.86 1036.4 Q2592.05 1039.08 2592.05 1043.57 Q2592.05 1045.7 2591.24 1047.62 Q2590.46 1049.52 2588.35 1052.12 Q2587.77 1052.79 2584.67 1056 Q2581.57 1059.2 2575.92 1064.96 Z" fill="#000000" fill-rule="evenodd" fill-opacity="1" /><path clip-path="url(#clip060)" d="M2612.05 1037.42 Q2608.44 1037.42 2606.61 1040.98 Q2604.81 1044.52 2604.81 1051.65 Q2604.81 1058.76 2606.61 1062.32 Q2608.44 1065.87 2612.05 1065.87 Q2615.69 1065.87 2617.49 1062.32 Q2619.32 1058.76 2619.32 1051.65 Q2619.32 1044.52 2617.49 1040.98 Q2615.69 1037.42 2612.05 1037.42 M2612.05 1033.71 Q2617.86 1033.71 2620.92 1038.32 Q2624 1042.9 2624 1051.65 Q2624 1060.38 2620.92 1064.99 Q2617.86 1069.57 2612.05 1069.57 Q2606.24 1069.57 2603.17 1064.99 Q2600.11 1060.38 2600.11 1051.65 Q2600.11 1042.9 2603.17 1038.32 Q2606.24 1033.71 2612.05 1033.71 Z" fill="#000000" fill-rule="evenodd" fill-opacity="1" /><path clip-path="url(#clip060)" d="M2642.22 1037.42 Q2638.61 1037.42 2636.78 1040.98 Q2634.97 1044.52 2634.97 1051.65 Q2634.97 1058.76 2636.78 1062.32 Q2638.61 1065.87 2642.22 1065.87 Q2645.85 1065.87 2647.66 1062.32 Q2649.48 1058.76 2649.48 1051.65 Q2649.48 1044.52 2647.66 1040.98 Q2645.85 1037.42 2642.22 1037.42 M2642.22 1033.71 Q2648.03 1033.71 2651.08 1038.32 Q2654.16 1042.9 2654.16 1051.65 Q2654.16 1060.38 2651.08 1064.99 Q2648.03 1069.57 2642.22 1069.57 Q2636.41 1069.57 2633.33 1064.99 Q2630.27 1060.38 2630.27 1051.65 Q2630.27 1042.9 2633.33 1038.32 Q2636.41 1033.71 2642.22 1033.71 Z" fill="#000000" fill-rule="evenodd" fill-opacity="1" /><path clip-path="url(#clip060)" d="M1556.64 1109.44 L1563.07 1109.44 L1563.07 1151.55 L1586.21 1151.55 L1586.21 1156.96 L1556.64 1156.96 L1556.64 1109.44 Z" fill="#000000" fill-rule="evenodd" fill-opacity="1" /><path clip-path="url(#clip060)" d="M1592.7 1121.31 L1598.56 1121.31 L1598.56 1156.96 L1592.7 1156.96 L1592.7 1121.31 M1592.7 1107.44 L1598.56 1107.44 L1598.56 1114.85 L1592.7 1114.85 L1592.7 1107.44 Z" fill="#000000" fill-rule="evenodd" fill-opacity="1" /><path clip-path="url(#clip060)" d="M1640.44 1135.45 L1640.44 1156.96 L1634.59 1156.96 L1634.59 1135.64 Q1634.59 1130.58 1632.61 1128.06 Q1630.64 1125.55 1626.69 1125.55 Q1621.95 1125.55 1619.21 1128.57 Q1616.48 1131.59 1616.48 1136.81 L1616.48 1156.96 L1610.59 1156.96 L1610.59 1121.31 L1616.48 1121.31 L1616.48 1126.85 Q1618.58 1123.64 1621.41 1122.05 Q1624.27 1120.45 1628 1120.45 Q1634.14 1120.45 1637.29 1124.27 Q1640.44 1128.06 1640.44 1135.45 Z" fill="#000000" fill-rule="evenodd" fill-opacity="1" /><path clip-path="url(#clip060)" d="M1682.62 1137.67 L1682.62 1140.54 L1655.69 1140.54 Q1656.07 1146.59 1659.32 1149.77 Q1662.6 1152.92 1668.42 1152.92 Q1671.79 1152.92 1674.95 1152.09 Q1678.13 1151.26 1681.25 1149.61 L1681.25 1155.15 Q1678.1 1156.48 1674.79 1157.18 Q1671.48 1157.88 1668.07 1157.88 Q1659.54 1157.88 1654.54 1152.92 Q1649.58 1147.95 1649.58 1139.49 Q1649.58 1130.74 1654.29 1125.61 Q1659.03 1120.45 1667.05 1120.45 Q1674.25 1120.45 1678.42 1125.1 Q1682.62 1129.72 1682.62 1137.67 M1676.76 1135.95 Q1676.7 1131.15 1674.05 1128.28 Q1671.44 1125.42 1667.12 1125.42 Q1662.21 1125.42 1659.25 1128.19 Q1656.33 1130.96 1655.88 1135.99 L1676.76 1135.95 Z" fill="#000000" fill-rule="evenodd" fill-opacity="1" /><path clip-path="url(#clip060)" d="M1708.43 1139.04 Q1701.33 1139.04 1698.59 1140.67 Q1695.86 1142.29 1695.86 1146.2 Q1695.86 1149.32 1697.89 1151.17 Q1699.96 1152.98 1703.5 1152.98 Q1708.37 1152.98 1711.29 1149.55 Q1714.25 1146.08 1714.25 1140.35 L1714.25 1139.04 L1708.43 1139.04 M1720.11 1136.62 L1720.11 1156.96 L1714.25 1156.96 L1714.25 1151.55 Q1712.25 1154.8 1709.26 1156.36 Q1706.27 1157.88 1701.94 1157.88 Q1696.46 1157.88 1693.22 1154.83 Q1690 1151.74 1690 1146.59 Q1690 1140.57 1694.01 1137.51 Q1698.05 1134.46 1706.04 1134.46 L1714.25 1134.46 L1714.25 1133.89 Q1714.25 1129.84 1711.58 1127.65 Q1708.94 1125.42 1704.13 1125.42 Q1701.08 1125.42 1698.18 1126.15 Q1695.28 1126.88 1692.61 1128.35 L1692.61 1122.94 Q1695.83 1121.7 1698.85 1121.09 Q1701.87 1120.45 1704.74 1120.45 Q1712.47 1120.45 1716.29 1124.46 Q1720.11 1128.48 1720.11 1136.62 Z" fill="#000000" fill-rule="evenodd" fill-opacity="1" /><path clip-path="url(#clip060)" d="M1755.63 1138.72 Q1755.63 1132.36 1752.99 1128.86 Q1750.38 1125.36 1745.64 1125.36 Q1740.93 1125.36 1738.28 1128.86 Q1735.67 1132.36 1735.67 1138.72 Q1735.67 1145.06 1738.28 1148.56 Q1740.93 1152.06 1745.64 1152.06 Q1750.38 1152.06 1752.99 1148.56 Q1755.63 1145.06 1755.63 1138.72 M1761.49 1152.54 Q1761.49 1161.64 1757.45 1166.06 Q1753.4 1170.52 1745.06 1170.52 Q1741.98 1170.52 1739.24 1170.04 Q1736.5 1169.6 1733.92 1168.64 L1733.92 1162.95 Q1736.5 1164.35 1739.02 1165.01 Q1741.53 1165.68 1744.14 1165.68 Q1749.9 1165.68 1752.77 1162.66 Q1755.63 1159.67 1755.63 1153.59 L1755.63 1150.69 Q1753.82 1153.84 1750.98 1155.4 Q1748.15 1156.96 1744.2 1156.96 Q1737.65 1156.96 1733.64 1151.96 Q1729.63 1146.97 1729.63 1138.72 Q1729.63 1130.45 1733.64 1125.45 Q1737.65 1120.45 1744.2 1120.45 Q1748.15 1120.45 1750.98 1122.01 Q1753.82 1123.57 1755.63 1126.72 L1755.63 1121.31 L1761.49 1121.31 L1761.49 1152.54 Z" fill="#000000" fill-rule="evenodd" fill-opacity="1" /><path clip-path="url(#clip060)" d="M1804.04 1137.67 L1804.04 1140.54 L1777.12 1140.54 Q1777.5 1146.59 1780.74 1149.77 Q1784.02 1152.92 1789.85 1152.92 Q1793.22 1152.92 1796.37 1152.09 Q1799.55 1151.26 1802.67 1149.61 L1802.67 1155.15 Q1799.52 1156.48 1796.21 1157.18 Q1792.9 1157.88 1789.5 1157.88 Q1780.97 1157.88 1775.97 1152.92 Q1771 1147.95 1771 1139.49 Q1771 1130.74 1775.71 1125.61 Q1780.46 1120.45 1788.48 1120.45 Q1795.67 1120.45 1799.84 1125.1 Q1804.04 1129.72 1804.04 1137.67 M1798.19 1135.95 Q1798.12 1131.15 1795.48 1128.28 Q1792.87 1125.42 1788.54 1125.42 Q1783.64 1125.42 1780.68 1128.19 Q1777.75 1130.96 1777.31 1135.99 L1798.19 1135.95 Z" fill="#000000" fill-rule="evenodd" fill-opacity="1" /><polyline clip-path="url(#clip062)" style="stroke:#000000; stroke-linecap:round; stroke-linejoin:round; stroke-width:2; stroke-opacity:0.1; fill:none" points="
  270.918,1000.1 3089.76,1000.1 
  "/>
<polyline clip-path="url(#clip062)" style="stroke:#000000; stroke-linecap:round; stroke-linejoin:round; stroke-width:2; stroke-opacity:0.1; fill:none" points="
  270.918,668.181 3089.76,668.181 
  "/>
<polyline clip-path="url(#clip062)" style="stroke:#000000; stroke-linecap:round; stroke-linejoin:round; stroke-width:2; stroke-opacity:0.1; fill:none" points="
  270.918,336.265 3089.76,336.265 
  "/>
<polyline clip-path="url(#clip060)" style="stroke:#000000; stroke-linecap:round; stroke-linejoin:round; stroke-width:4; stroke-opacity:1; fill:none" points="
  270.918,1000.1 270.918,110.236 
  "/>
<polyline clip-path="url(#clip060)" style="stroke:#000000; stroke-linecap:round; stroke-linejoin:round; stroke-width:4; stroke-opacity:1; fill:none" points="
  270.918,1000.1 289.815,1000.1 
  "/>
<polyline clip-path="url(#clip060)" style="stroke:#000000; stroke-linecap:round; stroke-linejoin:round; stroke-width:4; stroke-opacity:1; fill:none" points="
  270.918,668.181 289.815,668.181 
  "/>
<polyline clip-path="url(#clip060)" style="stroke:#000000; stroke-linecap:round; stroke-linejoin:round; stroke-width:4; stroke-opacity:1; fill:none" points="
  270.918,336.265 289.815,336.265 
  "/>
<path clip-path="url(#clip060)" d="M154.902 1019.89 L162.54 1019.89 L162.54 993.525 L154.23 995.191 L154.23 990.932 L162.494 989.265 L167.17 989.265 L167.17 1019.89 L174.809 1019.89 L174.809 1023.83 L154.902 1023.83 L154.902 1019.89 Z" fill="#000000" fill-rule="evenodd" fill-opacity="1" /><path clip-path="url(#clip060)" d="M194.253 992.344 Q190.642 992.344 188.813 995.909 Q187.008 999.45 187.008 1006.58 Q187.008 1013.69 188.813 1017.25 Q190.642 1020.79 194.253 1020.79 Q197.887 1020.79 199.693 1017.25 Q201.522 1013.69 201.522 1006.58 Q201.522 999.45 199.693 995.909 Q197.887 992.344 194.253 992.344 M194.253 988.64 Q200.063 988.64 203.119 993.247 Q206.198 997.83 206.198 1006.58 Q206.198 1015.31 203.119 1019.91 Q200.063 1024.5 194.253 1024.5 Q188.443 1024.5 185.364 1019.91 Q182.309 1015.31 182.309 1006.58 Q182.309 997.83 185.364 993.247 Q188.443 988.64 194.253 988.64 Z" fill="#000000" fill-rule="evenodd" fill-opacity="1" /><path clip-path="url(#clip060)" d="M206.743 993.218 L212.95 993.218 L212.95 971.796 L206.198 973.15 L206.198 969.689 L212.912 968.335 L216.711 968.335 L216.711 993.218 L222.918 993.218 L222.918 996.415 L206.743 996.415 L206.743 993.218 Z" fill="#000000" fill-rule="evenodd" fill-opacity="1" /><path clip-path="url(#clip060)" d="M153.792 687.974 L161.431 687.974 L161.431 661.608 L153.121 663.275 L153.121 659.016 L161.384 657.349 L166.06 657.349 L166.06 687.974 L173.699 687.974 L173.699 691.909 L153.792 691.909 L153.792 687.974 Z" fill="#000000" fill-rule="evenodd" fill-opacity="1" /><path clip-path="url(#clip060)" d="M193.143 660.428 Q189.532 660.428 187.704 663.993 Q185.898 667.534 185.898 674.664 Q185.898 681.77 187.704 685.335 Q189.532 688.877 193.143 688.877 Q196.778 688.877 198.583 685.335 Q200.412 681.77 200.412 674.664 Q200.412 667.534 198.583 663.993 Q196.778 660.428 193.143 660.428 M193.143 656.724 Q198.954 656.724 202.009 661.331 Q205.088 665.914 205.088 674.664 Q205.088 683.391 202.009 687.997 Q198.954 692.58 193.143 692.58 Q187.333 692.58 184.255 687.997 Q181.199 683.391 181.199 674.664 Q181.199 665.914 184.255 661.331 Q187.333 656.724 193.143 656.724 Z" fill="#000000" fill-rule="evenodd" fill-opacity="1" /><path clip-path="url(#clip060)" d="M209.658 661.301 L222.918 661.301 L222.918 664.499 L205.088 664.499 L205.088 661.301 Q207.251 659.063 210.975 655.302 Q214.717 651.521 215.677 650.43 Q217.501 648.38 218.216 646.97 Q218.949 645.54 218.949 644.167 Q218.949 641.929 217.369 640.519 Q215.808 639.108 213.288 639.108 Q211.501 639.108 209.508 639.729 Q207.533 640.349 205.276 641.61 L205.276 637.773 Q207.57 636.851 209.564 636.381 Q211.558 635.911 213.213 635.911 Q217.576 635.911 220.172 638.093 Q222.767 640.274 222.767 643.923 Q222.767 645.653 222.109 647.214 Q221.469 648.757 219.758 650.863 Q219.288 651.408 216.767 654.023 Q214.247 656.618 209.658 661.301 Z" fill="#000000" fill-rule="evenodd" fill-opacity="1" /><path clip-path="url(#clip060)" d="M153.134 356.058 L160.772 356.058 L160.772 329.692 L152.462 331.359 L152.462 327.099 L160.726 325.433 L165.402 325.433 L165.402 356.058 L173.041 356.058 L173.041 359.993 L153.134 359.993 L153.134 356.058 Z" fill="#000000" fill-rule="evenodd" fill-opacity="1" /><path clip-path="url(#clip060)" d="M192.485 328.511 Q188.874 328.511 187.045 332.076 Q185.24 335.618 185.24 342.748 Q185.24 349.854 187.045 353.419 Q188.874 356.96 192.485 356.96 Q196.119 356.96 197.925 353.419 Q199.754 349.854 199.754 342.748 Q199.754 335.618 197.925 332.076 Q196.119 328.511 192.485 328.511 M192.485 324.808 Q198.295 324.808 201.351 329.414 Q204.43 333.998 204.43 342.748 Q204.43 351.474 201.351 356.081 Q198.295 360.664 192.485 360.664 Q186.675 360.664 183.596 356.081 Q180.541 351.474 180.541 342.748 Q180.541 333.998 183.596 329.414 Q186.675 324.808 192.485 324.808 Z" fill="#000000" fill-rule="evenodd" fill-opacity="1" /><path clip-path="url(#clip060)" d="M217.125 317.442 Q219.852 318.025 221.375 319.868 Q222.918 321.712 222.918 324.42 Q222.918 328.576 220.059 330.852 Q217.2 333.128 211.934 333.128 Q210.166 333.128 208.285 332.77 Q206.423 332.432 204.43 331.736 L204.43 328.069 Q206.009 328.99 207.89 329.46 Q209.771 329.931 211.821 329.931 Q215.395 329.931 217.256 328.52 Q219.137 327.109 219.137 324.42 Q219.137 321.937 217.388 320.545 Q215.658 319.135 212.555 319.135 L209.282 319.135 L209.282 316.013 L212.705 316.013 Q215.507 316.013 216.993 314.903 Q218.479 313.775 218.479 311.668 Q218.479 309.505 216.937 308.358 Q215.413 307.192 212.555 307.192 Q210.994 307.192 209.207 307.53 Q207.42 307.869 205.276 308.584 L205.276 305.198 Q207.439 304.596 209.32 304.296 Q211.219 303.995 212.893 303.995 Q217.219 303.995 219.739 305.969 Q222.259 307.925 222.259 311.273 Q222.259 313.605 220.924 315.223 Q219.589 316.821 217.125 317.442 Z" fill="#000000" fill-rule="evenodd" fill-opacity="1" /><path clip-path="url(#clip060)" d="M42.6863 890.656 L42.6863 860.609 L48.0971 860.609 L48.0971 884.226 L62.1653 884.226 L62.1653 861.596 L67.5762 861.596 L67.5762 884.226 L84.7954 884.226 L84.7954 860.037 L90.2063 860.037 L90.2063 890.656 L42.6863 890.656 Z" fill="#000000" fill-rule="evenodd" fill-opacity="1" /><path clip-path="url(#clip060)" d="M44.2459 820.983 L50.5161 820.983 Q48.7655 824.643 47.9062 827.89 Q47.0468 831.136 47.0468 834.16 Q47.0468 839.412 49.0838 842.276 Q51.1208 845.109 54.8766 845.109 Q58.0276 845.109 59.6509 843.231 Q61.2423 841.321 62.229 836.038 L63.0247 832.155 Q64.3933 824.962 67.8627 821.556 Q71.3001 818.118 77.0929 818.118 Q83.9997 818.118 87.5645 822.765 Q91.1293 827.38 91.1293 836.324 Q91.1293 839.698 90.3654 843.518 Q89.6015 847.305 88.1056 851.379 L81.4853 851.379 Q83.6814 847.464 84.7954 843.709 Q85.9094 839.953 85.9094 836.324 Q85.9094 830.818 83.7451 827.826 Q81.5808 824.834 77.5704 824.834 Q74.0692 824.834 72.0958 826.999 Q70.1225 829.131 69.1358 834.033 L68.3719 837.948 Q66.9396 845.141 63.8841 848.356 Q60.8285 851.57 55.3859 851.57 Q49.0838 851.57 45.4554 847.146 Q41.8269 842.69 41.8269 834.892 Q41.8269 831.55 42.4317 828.081 Q43.0364 824.611 44.2459 820.983 Z" fill="#000000" fill-rule="evenodd" fill-opacity="1" /><path clip-path="url(#clip060)" d="M44.2459 779.606 L50.5161 779.606 Q48.7655 783.266 47.9062 786.513 Q47.0468 789.759 47.0468 792.783 Q47.0468 798.035 49.0838 800.899 Q51.1208 803.732 54.8766 803.732 Q58.0276 803.732 59.6509 801.854 Q61.2423 799.944 62.229 794.661 L63.0247 790.778 Q64.3933 783.584 67.8627 780.179 Q71.3001 776.741 77.0929 776.741 Q83.9997 776.741 87.5645 781.388 Q91.1293 786.003 91.1293 794.947 Q91.1293 798.321 90.3654 802.14 Q89.6015 805.928 88.1056 810.002 L81.4853 810.002 Q83.6814 806.087 84.7954 802.331 Q85.9094 798.576 85.9094 794.947 Q85.9094 789.441 83.7451 786.449 Q81.5808 783.457 77.5704 783.457 Q74.0692 783.457 72.0958 785.621 Q70.1225 787.754 69.1358 792.656 L68.3719 796.57 Q66.9396 803.764 63.8841 806.978 Q60.8285 810.193 55.3859 810.193 Q49.0838 810.193 45.4554 805.769 Q41.8269 801.313 41.8269 793.515 Q41.8269 790.173 42.4317 786.704 Q43.0364 783.234 44.2459 779.606 Z" fill="#000000" fill-rule="evenodd" fill-opacity="1" /><path clip-path="url(#clip060)" d="M82.1218 765.474 L82.1218 758.758 L90.2063 758.758 L90.2063 765.474 L82.1218 765.474 M56.4999 765.474 L56.4999 758.758 L64.5843 758.758 L64.5843 765.474 L56.4999 765.474 Z" fill="#000000" fill-rule="evenodd" fill-opacity="1" /><path clip-path="url(#clip060)" d="M42.6863 724.033 L42.6863 693.987 L48.0971 693.987 L48.0971 717.604 L62.1653 717.604 L62.1653 694.974 L67.5762 694.974 L67.5762 717.604 L84.7954 717.604 L84.7954 693.414 L90.2063 693.414 L90.2063 724.033 L42.6863 724.033 Z" fill="#000000" fill-rule="evenodd" fill-opacity="1" /><path clip-path="url(#clip060)" d="M68.6902 653.469 L90.2063 653.469 L90.2063 659.326 L68.8812 659.326 Q63.8204 659.326 61.306 661.299 Q58.7915 663.273 58.7915 667.219 Q58.7915 671.962 61.8152 674.699 Q64.8389 677.436 70.0588 677.436 L90.2063 677.436 L90.2063 683.325 L54.5583 683.325 L54.5583 677.436 L60.0965 677.436 Q56.8818 675.336 55.2904 672.503 Q53.699 669.638 53.699 665.914 Q53.699 659.771 57.5184 656.62 Q61.306 653.469 68.6902 653.469 Z" fill="#000000" fill-rule="evenodd" fill-opacity="1" /><path clip-path="url(#clip060)" d="M71.9685 618.331 Q65.6028 618.331 62.1017 620.972 Q58.6006 623.582 58.6006 628.325 Q58.6006 633.035 62.1017 635.677 Q65.6028 638.287 71.9685 638.287 Q78.3024 638.287 81.8036 635.677 Q85.3047 633.035 85.3047 628.325 Q85.3047 623.582 81.8036 620.972 Q78.3024 618.331 71.9685 618.331 M85.7821 612.474 Q94.8851 612.474 99.3092 616.516 Q103.765 620.559 103.765 628.898 Q103.765 631.985 103.288 634.722 Q102.842 637.46 101.887 640.038 L96.19 640.038 Q97.5905 637.46 98.2589 634.945 Q98.9273 632.431 98.9273 629.821 Q98.9273 624.06 95.9036 621.195 Q92.9117 618.331 86.8325 618.331 L83.9361 618.331 Q87.0871 620.145 88.6467 622.978 Q90.2063 625.81 90.2063 629.757 Q90.2063 636.314 85.2092 640.324 Q80.2121 644.335 71.9685 644.335 Q63.6931 644.335 58.696 640.324 Q53.699 636.314 53.699 629.757 Q53.699 625.81 55.2586 622.978 Q56.8182 620.145 59.9692 618.331 L54.5583 618.331 L54.5583 612.474 L85.7821 612.474 Z" fill="#000000" fill-rule="evenodd" fill-opacity="1" /><path clip-path="url(#clip060)" d="M40.6811 600.411 L40.6811 594.555 L90.2063 594.555 L90.2063 600.411 L40.6811 600.411 Z" fill="#000000" fill-rule="evenodd" fill-opacity="1" /><path clip-path="url(#clip060)" d="M72.2868 566.1 Q72.2868 573.198 73.9101 575.935 Q75.5333 578.672 79.4482 578.672 Q82.5674 578.672 84.4135 576.635 Q86.2277 574.566 86.2277 571.033 Q86.2277 566.164 82.7902 563.236 Q79.3209 560.275 73.5918 560.275 L72.2868 560.275 L72.2868 566.1 M69.8679 554.419 L90.2063 554.419 L90.2063 560.275 L84.7954 560.275 Q88.0419 562.281 89.6015 565.273 Q91.1293 568.264 91.1293 572.593 Q91.1293 578.068 88.0738 581.314 Q84.9864 584.529 79.8302 584.529 Q73.8146 584.529 70.759 580.518 Q67.7035 576.476 67.7035 568.487 L67.7035 560.275 L67.1306 560.275 Q63.0884 560.275 60.8922 562.949 Q58.6642 565.591 58.6642 570.397 Q58.6642 573.452 59.3963 576.349 Q60.1283 579.245 61.5924 581.919 L56.1816 581.919 Q54.9403 578.704 54.3355 575.68 Q53.699 572.657 53.699 569.792 Q53.699 562.058 57.7094 558.238 Q61.7197 554.419 69.8679 554.419 Z" fill="#000000" fill-rule="evenodd" fill-opacity="1" /><path clip-path="url(#clip060)" d="M68.6902 512.724 L90.2063 512.724 L90.2063 518.58 L68.8812 518.58 Q63.8204 518.58 61.306 520.553 Q58.7915 522.527 58.7915 526.474 Q58.7915 531.216 61.8152 533.953 Q64.8389 536.691 70.0588 536.691 L90.2063 536.691 L90.2063 542.579 L54.5583 542.579 L54.5583 536.691 L60.0965 536.691 Q56.8818 534.59 55.2904 531.757 Q53.699 528.893 53.699 525.169 Q53.699 519.026 57.5184 515.875 Q61.306 512.724 68.6902 512.724 Z" fill="#000000" fill-rule="evenodd" fill-opacity="1" /><path clip-path="url(#clip060)" d="M59.9692 477.585 L40.6811 477.585 L40.6811 471.728 L90.2063 471.728 L90.2063 477.585 L84.8591 477.585 Q88.0419 479.431 89.6015 482.264 Q91.1293 485.065 91.1293 489.011 Q91.1293 495.473 85.9731 499.547 Q80.8169 503.589 72.4141 503.589 Q64.0114 503.589 58.8552 499.547 Q53.699 495.473 53.699 489.011 Q53.699 485.065 55.2586 482.264 Q56.7863 479.431 59.9692 477.585 M72.4141 497.541 Q78.8753 497.541 82.5674 494.9 Q86.2277 492.226 86.2277 487.579 Q86.2277 482.932 82.5674 480.259 Q78.8753 477.585 72.4141 477.585 Q65.9529 477.585 62.2927 480.259 Q58.6006 482.932 58.6006 487.579 Q58.6006 492.226 62.2927 494.9 Q65.9529 497.541 72.4141 497.541 Z" fill="#000000" fill-rule="evenodd" fill-opacity="1" /><path clip-path="url(#clip060)" d="M82.1218 458.17 L82.1218 451.454 L87.5963 451.454 L97.7815 456.674 L97.7815 460.779 L87.5963 458.17 L82.1218 458.17 Z" fill="#000000" fill-rule="evenodd" fill-opacity="1" /><path clip-path="url(#clip060)" d="M44.4369 412.432 L54.5583 412.432 L54.5583 400.369 L59.1098 400.369 L59.1098 412.432 L78.4616 412.432 Q82.8221 412.432 84.0634 411.254 Q85.3047 410.045 85.3047 406.384 L85.3047 400.369 L90.2063 400.369 L90.2063 406.384 Q90.2063 413.164 87.6918 415.742 Q85.1455 418.32 78.4616 418.32 L59.1098 418.32 L59.1098 422.617 L54.5583 422.617 L54.5583 418.32 L44.4369 418.32 L44.4369 412.432 Z" fill="#000000" fill-rule="evenodd" fill-opacity="1" /><path clip-path="url(#clip060)" d="M54.5583 392.666 L54.5583 386.81 L90.2063 386.81 L90.2063 392.666 L54.5583 392.666 M40.6811 392.666 L40.6811 386.81 L48.0971 386.81 L48.0971 392.666 L40.6811 392.666 Z" fill="#000000" fill-rule="evenodd" fill-opacity="1" /><path clip-path="url(#clip060)" d="M61.4015 346.801 Q57.4547 344.605 55.5768 341.55 Q53.699 338.494 53.699 334.357 Q53.699 328.787 57.6139 325.763 Q61.4969 322.739 68.6902 322.739 L90.2063 322.739 L90.2063 328.627 L68.8812 328.627 Q63.7568 328.627 61.2741 330.442 Q58.7915 332.256 58.7915 335.98 Q58.7915 340.531 61.8152 343.173 Q64.8389 345.815 70.0588 345.815 L90.2063 345.815 L90.2063 351.703 L68.8812 351.703 Q63.7249 351.703 61.2741 353.517 Q58.7915 355.332 58.7915 359.119 Q58.7915 363.607 61.8471 366.249 Q64.8708 368.89 70.0588 368.89 L90.2063 368.89 L90.2063 374.779 L54.5583 374.779 L54.5583 368.89 L60.0965 368.89 Q56.8182 366.885 55.2586 364.084 Q53.699 361.283 53.699 357.432 Q53.699 353.549 55.6723 350.844 Q57.6457 348.106 61.4015 346.801 Z" fill="#000000" fill-rule="evenodd" fill-opacity="1" /><path clip-path="url(#clip060)" d="M70.9182 280.566 L73.7828 280.566 L73.7828 307.493 Q79.8302 307.111 83.013 303.865 Q86.1641 300.586 86.1641 294.762 Q86.1641 291.388 85.3365 288.237 Q84.509 285.054 82.8539 281.935 L88.3921 281.935 Q89.7289 285.086 90.4291 288.396 Q91.1293 291.706 91.1293 295.112 Q91.1293 303.642 86.1641 308.639 Q81.1988 313.604 72.7324 313.604 Q63.9796 313.604 58.8552 308.894 Q53.699 304.151 53.699 296.13 Q53.699 288.937 58.3459 284.768 Q62.9611 280.566 70.9182 280.566 M69.1995 286.423 Q64.3933 286.486 61.5288 289.128 Q58.6642 291.738 58.6642 296.067 Q58.6642 300.968 61.4333 303.928 Q64.2024 306.857 69.2313 307.302 L69.1995 286.423 Z" fill="#000000" fill-rule="evenodd" fill-opacity="1" /><path clip-path="url(#clip060)" d="M82.1218 269.458 L82.1218 262.742 L90.2063 262.742 L90.2063 269.458 L82.1218 269.458 M56.4999 269.458 L56.4999 262.742 L64.5843 262.742 L64.5843 269.458 L56.4999 269.458 Z" fill="#000000" fill-rule="evenodd" fill-opacity="1" /><path clip-path="url(#clip060)" d="M84.7954 247.051 L84.7954 236.547 L48.5427 236.547 L50.8344 247.974 L44.9779 247.974 L42.6863 236.611 L42.6863 230.182 L84.7954 230.182 L84.7954 219.678 L90.2063 219.678 L90.2063 247.051 L84.7954 247.051 Z" fill="#000000" fill-rule="evenodd" fill-opacity="1" /><polyline clip-path="url(#clip062)" style="stroke:#009af9; stroke-linecap:round; stroke-linejoin:round; stroke-width:4; stroke-opacity:1; fill:none" points="
  350.696,349.249 362.061,150.188 373.425,198.039 384.79,183.931 396.154,188.165 407.519,171.764 418.883,203.963 430.248,205.551 441.612,200.282 452.977,130.532 
  464.341,200.202 475.706,205.057 487.07,222.458 498.435,166.177 509.799,175.335 521.164,230 532.528,175.148 543.892,198.155 555.257,131.55 566.621,144.186 
  577.986,145.652 589.35,133.19 600.715,159.89 612.079,194.289 623.444,159.444 634.808,212.597 646.173,164.04 657.537,185.423 668.902,172.3 680.266,240.004 
  691.631,142.556 702.995,147.556 714.36,202.892 725.724,166.328 737.089,167.223 748.453,180.442 759.818,151.949 771.182,141.533 782.547,216.496 793.911,206.346 
  805.276,157.51 816.64,202.505 828.005,195.094 839.369,194.268 850.734,228.336 862.098,160.075 873.462,192.555 884.827,199.734 896.191,172.53 907.556,161.22 
  918.92,156.887 930.285,163.318 941.649,148.282 953.014,143.822 964.378,119.696 975.743,169.199 987.107,181.244 998.472,189.352 1009.84,134.657 1021.2,176.296 
  1032.57,211.259 1043.93,151.524 1055.29,174.503 1066.66,156.245 1078.02,149.384 1089.39,189.317 1100.75,134.679 1112.12,161.066 1123.48,185.512 1134.85,181.365 
  1146.21,130.886 1157.57,140.098 1168.94,182.787 1180.3,177.847 1191.67,126.207 1203.03,198.596 1214.4,207.112 1225.76,207.008 1237.13,196.434 1248.49,201.328 
  1259.85,162.561 1271.22,123.659 1282.58,156.161 1293.95,196.567 1305.31,163.463 1316.68,154.057 1328.04,139.072 1339.41,193.622 1350.77,157.839 1362.14,197.533 
  1373.5,121.917 1384.86,173.169 1396.23,190.657 1407.59,180 1418.96,191.833 1430.32,214.612 1441.69,191.285 1453.05,176.257 1464.42,219.594 1475.78,144.46 
  1487.14,156.823 1498.51,128.291 1509.87,190.476 1521.24,191.215 1532.6,146.891 1543.97,129.388 1555.33,150.99 1566.7,170.537 1578.06,180.398 1589.42,166.554 
  1600.79,191.585 1612.15,205.351 1623.52,154.031 1634.88,170.308 1646.25,167.766 1657.61,157.058 1668.98,176.939 1680.34,180.284 1691.71,169.794 1703.07,180.387 
  1714.43,188.064 1725.8,172.648 1737.16,188.192 1748.53,139.466 1759.89,207.286 1771.26,217.4 1782.62,160.99 1793.99,188.419 1805.35,141.968 1816.71,196.488 
  1828.08,199.424 1839.44,185.723 1850.81,219.713 1862.17,234.053 1873.54,173.027 1884.9,200.221 1896.27,166.407 1907.63,180.477 1918.99,191.81 1930.36,196.829 
  1941.72,151.363 1953.09,198.307 1964.45,182.46 1975.82,192.603 1987.18,170.027 1998.55,151.285 2009.91,141.039 2021.28,197.678 2032.64,150.97 2044,157.94 
  2055.37,202.239 2066.73,154.678 2078.1,110.236 2089.46,187.829 2100.83,194.487 2112.19,182.572 2123.56,209.088 2134.92,216.939 2146.28,127.081 2157.65,190.876 
  2169.01,164.778 2180.38,135.124 2191.74,197.003 2203.11,181.238 2214.47,174.061 2225.84,157.87 2237.2,205.446 2248.56,198.846 2259.93,180.881 2271.29,129.228 
  2282.66,231.189 2294.02,249.367 2305.39,122.072 2316.75,157.205 2328.12,111.399 2339.48,187.64 2350.85,214.363 2362.21,148.523 2373.57,173.25 2384.94,197.968 
  2396.3,164.349 2407.67,158.602 2419.03,144.93 2430.4,171.592 2441.76,175.51 2453.13,228.277 2464.49,220.968 2475.85,169.895 2487.22,202.865 2498.58,183.579 
  2509.95,191.059 2521.31,222.905 2532.68,166.957 2544.04,135.127 2555.41,185.428 2566.77,193.192 2578.13,211.157 2589.5,246.124 2600.86,188.677 2612.23,201.161 
  2623.59,217.142 2634.96,231.64 2646.32,204.124 2657.69,184.106 2669.05,224.254 2680.42,206.91 2691.78,266.531 2703.14,205.812 2714.51,203.302 2725.87,200.737 
  2737.24,164.438 2748.6,211.649 2759.97,188.564 2771.33,175.394 2782.7,149.817 2794.06,181.957 2805.42,196.885 2816.79,227.851 2828.15,149.119 2839.52,135.198 
  2850.88,202.913 2862.25,206.187 2873.61,219.535 2884.98,186.002 2896.34,166.535 2907.7,213.435 2919.07,229.659 2930.43,169.339 2941.8,191.251 2953.16,126.4 
  2964.53,162.204 2975.89,139.258 2987.26,289.832 2998.62,221.365 3009.99,245.197 
  "/>
</svg>
