<?xml version="1.0" encoding="utf-8"?>
<svg xmlns="http://www.w3.org/2000/svg" xmlns:xlink="http://www.w3.org/1999/xlink" width="800" height="300" viewBox="0 0 3200 1200">
<defs>
  <clipPath id="clip680">
    <rect x="0" y="0" width="3200" height="1200"/>
  </clipPath>
</defs>
<path clip-path="url(#clip680)" d="
M0 1200 L3200 1200 L3200 0 L0 0  Z
  " fill="#ffffff" fill-rule="evenodd" fill-opacity="1"/>
<defs>
  <clipPath id="clip681">
    <rect x="640" y="0" width="2241" height="1200"/>
  </clipPath>
</defs>
<path clip-path="url(#clip680)" d="
M270.918 1000.1 L3089.76 1000.1 L3089.76 110.236 L270.918 110.236  Z
  " fill="#ffffff" fill-rule="evenodd" fill-opacity="1"/>
<defs>
  <clipPath id="clip682">
    <rect x="270" y="110" width="2820" height="891"/>
  </clipPath>
</defs>
<polyline clip-path="url(#clip682)" style="stroke:#000000; stroke-linecap:round; stroke-linejoin:round; stroke-width:2; stroke-opacity:0.1; fill:none" points="
  341.62,1000.1 341.62,110.236 
  "/>
<polyline clip-path="url(#clip682)" style="stroke:#000000; stroke-linecap:round; stroke-linejoin:round; stroke-width:2; stroke-opacity:0.1; fill:none" points="
  1249.23,1000.1 1249.23,110.236 
  "/>
<polyline clip-path="url(#clip682)" style="stroke:#000000; stroke-linecap:round; stroke-linejoin:round; stroke-width:2; stroke-opacity:0.1; fill:none" points="
  2156.83,1000.1 2156.83,110.236 
  "/>
<polyline clip-path="url(#clip682)" style="stroke:#000000; stroke-linecap:round; stroke-linejoin:round; stroke-width:2; stroke-opacity:0.1; fill:none" points="
  3064.44,1000.1 3064.44,110.236 
  "/>
<polyline clip-path="url(#clip680)" style="stroke:#000000; stroke-linecap:round; stroke-linejoin:round; stroke-width:4; stroke-opacity:1; fill:none" points="
  270.918,1000.1 3089.76,1000.1 
  "/>
<polyline clip-path="url(#clip680)" style="stroke:#000000; stroke-linecap:round; stroke-linejoin:round; stroke-width:4; stroke-opacity:1; fill:none" points="
  341.62,1000.1 341.62,981.2 
  "/>
<polyline clip-path="url(#clip680)" style="stroke:#000000; stroke-linecap:round; stroke-linejoin:round; stroke-width:4; stroke-opacity:1; fill:none" points="
  1249.23,1000.1 1249.23,981.2 
  "/>
<polyline clip-path="url(#clip680)" style="stroke:#000000; stroke-linecap:round; stroke-linejoin:round; stroke-width:4; stroke-opacity:1; fill:none" points="
  2156.83,1000.1 2156.83,981.2 
  "/>
<polyline clip-path="url(#clip680)" style="stroke:#000000; stroke-linecap:round; stroke-linejoin:round; stroke-width:4; stroke-opacity:1; fill:none" points="
  3064.44,1000.1 3064.44,981.2 
  "/>
<path clip-path="url(#clip680)" d="M341.62 1037.42 Q338.009 1037.42 336.18 1040.98 Q334.375 1044.52 334.375 1051.65 Q334.375 1058.76 336.18 1062.32 Q338.009 1065.87 341.62 1065.87 Q345.254 1065.87 347.06 1062.32 Q348.889 1058.76 348.889 1051.65 Q348.889 1044.52 347.06 1040.98 Q345.254 1037.42 341.62 1037.42 M341.62 1033.71 Q347.43 1033.71 350.486 1038.32 Q353.565 1042.9 353.565 1051.65 Q353.565 1060.38 350.486 1064.99 Q347.43 1069.57 341.62 1069.57 Q335.81 1069.57 332.731 1064.99 Q329.676 1060.38 329.676 1051.65 Q329.676 1042.9 332.731 1038.32 Q335.81 1033.71 341.62 1033.71 Z" fill="#000000" fill-rule="evenodd" fill-opacity="1" /><path clip-path="url(#clip680)" d="M1208.83 1064.96 L1216.47 1064.96 L1216.47 1038.6 L1208.16 1040.26 L1208.16 1036 L1216.43 1034.34 L1221.1 1034.34 L1221.1 1064.96 L1228.74 1064.96 L1228.74 1068.9 L1208.83 1068.9 L1208.83 1064.96 Z" fill="#000000" fill-rule="evenodd" fill-opacity="1" /><path clip-path="url(#clip680)" d="M1248.19 1037.42 Q1244.57 1037.42 1242.75 1040.98 Q1240.94 1044.52 1240.94 1051.65 Q1240.94 1058.76 1242.75 1062.32 Q1244.57 1065.87 1248.19 1065.87 Q1251.82 1065.87 1253.63 1062.32 Q1255.45 1058.76 1255.45 1051.65 Q1255.45 1044.52 1253.63 1040.98 Q1251.82 1037.42 1248.19 1037.42 M1248.19 1033.71 Q1254 1033.71 1257.05 1038.32 Q1260.13 1042.9 1260.13 1051.65 Q1260.13 1060.38 1257.05 1064.99 Q1254 1069.57 1248.19 1069.57 Q1242.38 1069.57 1239.3 1064.99 Q1236.24 1060.38 1236.24 1051.65 Q1236.24 1042.9 1239.3 1038.32 Q1242.38 1033.71 1248.19 1033.71 Z" fill="#000000" fill-rule="evenodd" fill-opacity="1" /><path clip-path="url(#clip680)" d="M1278.35 1037.42 Q1274.74 1037.42 1272.91 1040.98 Q1271.1 1044.52 1271.1 1051.65 Q1271.1 1058.76 1272.91 1062.32 Q1274.74 1065.87 1278.35 1065.87 Q1281.98 1065.87 1283.79 1062.32 Q1285.62 1058.76 1285.62 1051.65 Q1285.62 1044.52 1283.79 1040.98 Q1281.98 1037.42 1278.35 1037.42 M1278.35 1033.71 Q1284.16 1033.71 1287.21 1038.32 Q1290.29 1042.9 1290.29 1051.65 Q1290.29 1060.38 1287.21 1064.99 Q1284.16 1069.57 1278.35 1069.57 Q1272.54 1069.57 1269.46 1064.99 Q1266.4 1060.38 1266.4 1051.65 Q1266.4 1042.9 1269.46 1038.32 Q1272.54 1033.71 1278.35 1033.71 Z" fill="#000000" fill-rule="evenodd" fill-opacity="1" /><path clip-path="url(#clip680)" d="M2120.53 1064.96 L2136.85 1064.96 L2136.85 1068.9 L2114.9 1068.9 L2114.9 1064.96 Q2117.56 1062.21 2122.15 1057.58 Q2126.75 1052.93 2127.93 1051.58 Q2130.18 1049.06 2131.06 1047.32 Q2131.96 1045.56 2131.96 1043.87 Q2131.96 1041.12 2130.02 1039.38 Q2128.1 1037.65 2124.99 1037.65 Q2122.8 1037.65 2120.34 1038.41 Q2117.91 1039.18 2115.13 1040.73 L2115.13 1036 Q2117.96 1034.87 2120.41 1034.29 Q2122.86 1033.71 2124.9 1033.71 Q2130.27 1033.71 2133.47 1036.4 Q2136.66 1039.08 2136.66 1043.57 Q2136.66 1045.7 2135.85 1047.62 Q2135.06 1049.52 2132.96 1052.12 Q2132.38 1052.79 2129.28 1056 Q2126.17 1059.2 2120.53 1064.96 Z" fill="#000000" fill-rule="evenodd" fill-opacity="1" /><path clip-path="url(#clip680)" d="M2156.66 1037.42 Q2153.05 1037.42 2151.22 1040.98 Q2149.42 1044.52 2149.42 1051.65 Q2149.42 1058.76 2151.22 1062.32 Q2153.05 1065.87 2156.66 1065.87 Q2160.3 1065.87 2162.1 1062.32 Q2163.93 1058.76 2163.93 1051.65 Q2163.93 1044.52 2162.1 1040.98 Q2160.3 1037.42 2156.66 1037.42 M2156.66 1033.71 Q2162.47 1033.71 2165.53 1038.32 Q2168.61 1042.9 2168.61 1051.65 Q2168.61 1060.38 2165.53 1064.99 Q2162.47 1069.57 2156.66 1069.57 Q2150.85 1069.57 2147.77 1064.99 Q2144.72 1060.38 2144.72 1051.65 Q2144.72 1042.9 2147.77 1038.32 Q2150.85 1033.71 2156.66 1033.71 Z" fill="#000000" fill-rule="evenodd" fill-opacity="1" /><path clip-path="url(#clip680)" d="M2186.82 1037.42 Q2183.21 1037.42 2181.38 1040.98 Q2179.58 1044.52 2179.58 1051.65 Q2179.58 1058.76 2181.38 1062.32 Q2183.21 1065.87 2186.82 1065.87 Q2190.46 1065.87 2192.26 1062.32 Q2194.09 1058.76 2194.09 1051.65 Q2194.09 1044.52 2192.26 1040.98 Q2190.46 1037.42 2186.82 1037.42 M2186.82 1033.71 Q2192.63 1033.71 2195.69 1038.32 Q2198.77 1042.9 2198.77 1051.65 Q2198.77 1060.38 2195.69 1064.99 Q2192.63 1069.57 2186.82 1069.57 Q2181.01 1069.57 2177.93 1064.99 Q2174.88 1060.38 2174.88 1051.65 Q2174.88 1042.9 2177.93 1038.32 Q2181.01 1033.71 2186.82 1033.71 Z" fill="#000000" fill-rule="evenodd" fill-opacity="1" /><path clip-path="url(#clip680)" d="M3038.2 1050.26 Q3041.56 1050.98 3043.43 1053.25 Q3045.33 1055.52 3045.33 1058.85 Q3045.33 1063.97 3041.81 1066.77 Q3038.3 1069.57 3031.81 1069.57 Q3029.64 1069.57 3027.32 1069.13 Q3025.03 1068.71 3022.58 1067.86 L3022.58 1063.34 Q3024.52 1064.48 3026.84 1065.06 Q3029.15 1065.63 3031.68 1065.63 Q3036.07 1065.63 3038.37 1063.9 Q3040.68 1062.16 3040.68 1058.85 Q3040.68 1055.8 3038.53 1054.08 Q3036.4 1052.35 3032.58 1052.35 L3028.55 1052.35 L3028.55 1048.5 L3032.76 1048.5 Q3036.21 1048.5 3038.04 1047.14 Q3039.87 1045.75 3039.87 1043.16 Q3039.87 1040.5 3037.97 1039.08 Q3036.1 1037.65 3032.58 1037.65 Q3030.66 1037.65 3028.46 1038.06 Q3026.26 1038.48 3023.62 1039.36 L3023.62 1035.19 Q3026.28 1034.45 3028.6 1034.08 Q3030.93 1033.71 3032.99 1033.71 Q3038.32 1033.71 3041.42 1036.14 Q3044.52 1038.55 3044.52 1042.67 Q3044.52 1045.54 3042.88 1047.53 Q3041.24 1049.5 3038.2 1050.26 Z" fill="#000000" fill-rule="evenodd" fill-opacity="1" /><path clip-path="url(#clip680)" d="M3064.2 1037.42 Q3060.59 1037.42 3058.76 1040.98 Q3056.95 1044.52 3056.95 1051.65 Q3056.95 1058.76 3058.76 1062.32 Q3060.59 1065.87 3064.2 1065.87 Q3067.83 1065.87 3069.64 1062.32 Q3071.47 1058.76 3071.47 1051.65 Q3071.47 1044.52 3069.64 1040.98 Q3067.83 1037.42 3064.2 1037.42 M3064.2 1033.71 Q3070.01 1033.71 3073.06 1038.32 Q3076.14 1042.9 3076.14 1051.65 Q3076.14 1060.38 3073.06 1064.99 Q3070.01 1069.57 3064.2 1069.57 Q3058.39 1069.57 3055.31 1064.99 Q3052.25 1060.38 3052.25 1051.65 Q3052.25 1042.9 3055.31 1038.32 Q3058.39 1033.71 3064.2 1033.71 Z" fill="#000000" fill-rule="evenodd" fill-opacity="1" /><path clip-path="url(#clip680)" d="M3094.36 1037.42 Q3090.75 1037.42 3088.92 1040.98 Q3087.12 1044.52 3087.12 1051.65 Q3087.12 1058.76 3088.92 1062.32 Q3090.75 1065.87 3094.36 1065.87 Q3097.99 1065.87 3099.8 1062.32 Q3101.63 1058.76 3101.63 1051.65 Q3101.63 1044.52 3099.8 1040.98 Q3097.99 1037.42 3094.36 1037.42 M3094.36 1033.71 Q3100.17 1033.71 3103.23 1038.32 Q3106.3 1042.9 3106.3 1051.65 Q3106.3 1060.38 3103.23 1064.99 Q3100.17 1069.57 3094.36 1069.57 Q3088.55 1069.57 3085.47 1064.99 Q3082.42 1060.38 3082.42 1051.65 Q3082.42 1042.9 3085.47 1038.32 Q3088.55 1033.71 3094.36 1033.71 Z" fill="#000000" fill-rule="evenodd" fill-opacity="1" /><path clip-path="url(#clip680)" d="M1556.64 1109.44 L1563.07 1109.44 L1563.07 1151.55 L1586.21 1151.55 L1586.21 1156.96 L1556.64 1156.96 L1556.64 1109.44 Z" fill="#000000" fill-rule="evenodd" fill-opacity="1" /><path clip-path="url(#clip680)" d="M1592.7 1121.31 L1598.56 1121.31 L1598.56 1156.96 L1592.7 1156.96 L1592.7 1121.31 M1592.7 1107.44 L1598.56 1107.44 L1598.56 1114.85 L1592.7 1114.85 L1592.7 1107.44 Z" fill="#000000" fill-rule="evenodd" fill-opacity="1" /><path clip-path="url(#clip680)" d="M1640.44 1135.45 L1640.44 1156.96 L1634.59 1156.96 L1634.59 1135.64 Q1634.59 1130.58 1632.61 1128.06 Q1630.64 1125.55 1626.69 1125.55 Q1621.95 1125.55 1619.21 1128.57 Q1616.48 1131.59 1616.48 1136.81 L1616.48 1156.96 L1610.59 1156.96 L1610.59 1121.31 L1616.48 1121.31 L1616.48 1126.85 Q1618.58 1123.64 1621.41 1122.05 Q1624.27 1120.45 1628 1120.45 Q1634.14 1120.45 1637.29 1124.27 Q1640.44 1128.06 1640.44 1135.45 Z" fill="#000000" fill-rule="evenodd" fill-opacity="1" /><path clip-path="url(#clip680)" d="M1682.62 1137.67 L1682.62 1140.54 L1655.69 1140.54 Q1656.07 1146.59 1659.32 1149.77 Q1662.6 1152.92 1668.42 1152.92 Q1671.79 1152.92 1674.95 1152.09 Q1678.13 1151.26 1681.25 1149.61 L1681.25 1155.15 Q1678.1 1156.48 1674.79 1157.18 Q1671.48 1157.88 1668.07 1157.88 Q1659.54 1157.88 1654.54 1152.92 Q1649.58 1147.95 1649.58 1139.49 Q1649.58 1130.74 1654.29 1125.61 Q1659.03 1120.45 1667.05 1120.45 Q1674.25 1120.45 1678.42 1125.1 Q1682.62 1129.72 1682.62 1137.67 M1676.76 1135.95 Q1676.7 1131.15 1674.05 1128.28 Q1671.44 1125.42 1667.12 1125.42 Q1662.21 1125.42 1659.25 1128.19 Q1656.33 1130.96 1655.88 1135.99 L1676.76 1135.95 Z" fill="#000000" fill-rule="evenodd" fill-opacity="1" /><path clip-path="url(#clip680)" d="M1708.43 1139.04 Q1701.33 1139.04 1698.59 1140.67 Q1695.86 1142.29 1695.86 1146.2 Q1695.86 1149.32 1697.89 1151.17 Q1699.96 1152.98 1703.5 1152.98 Q1708.37 1152.98 1711.29 1149.55 Q1714.25 1146.08 1714.25 1140.35 L1714.25 1139.04 L1708.43 1139.04 M1720.11 1136.62 L1720.11 1156.96 L1714.25 1156.96 L1714.25 1151.55 Q1712.25 1154.8 1709.26 1156.36 Q1706.27 1157.88 1701.94 1157.88 Q1696.46 1157.88 1693.22 1154.83 Q1690 1151.74 1690 1146.59 Q1690 1140.57 1694.01 1137.51 Q1698.05 1134.46 1706.04 1134.46 L1714.25 1134.46 L1714.25 1133.89 Q1714.25 1129.84 1711.58 1127.65 Q1708.94 1125.42 1704.13 1125.42 Q1701.08 1125.42 1698.18 1126.15 Q1695.28 1126.88 1692.61 1128.35 L1692.61 1122.94 Q1695.83 1121.7 1698.85 1121.09 Q1701.87 1120.45 1704.74 1120.45 Q1712.47 1120.45 1716.29 1124.46 Q1720.11 1128.48 1720.11 1136.62 Z" fill="#000000" fill-rule="evenodd" fill-opacity="1" /><path clip-path="url(#clip680)" d="M1755.63 1138.72 Q1755.63 1132.36 1752.99 1128.86 Q1750.38 1125.36 1745.64 1125.36 Q1740.93 1125.36 1738.28 1128.86 Q1735.67 1132.36 1735.67 1138.72 Q1735.67 1145.06 1738.28 1148.56 Q1740.93 1152.06 1745.64 1152.06 Q1750.38 1152.06 1752.99 1148.56 Q1755.63 1145.06 1755.63 1138.72 M1761.49 1152.54 Q1761.49 1161.64 1757.45 1166.06 Q1753.4 1170.52 1745.06 1170.52 Q1741.98 1170.52 1739.24 1170.04 Q1736.5 1169.6 1733.92 1168.64 L1733.92 1162.95 Q1736.5 1164.35 1739.02 1165.01 Q1741.53 1165.68 1744.14 1165.68 Q1749.9 1165.68 1752.77 1162.66 Q1755.63 1159.67 1755.63 1153.59 L1755.63 1150.69 Q1753.82 1153.84 1750.98 1155.4 Q1748.15 1156.96 1744.2 1156.96 Q1737.65 1156.96 1733.64 1151.96 Q1729.63 1146.97 1729.63 1138.72 Q1729.63 1130.45 1733.64 1125.45 Q1737.65 1120.45 1744.2 1120.45 Q1748.15 1120.45 1750.98 1122.01 Q1753.82 1123.57 1755.63 1126.72 L1755.63 1121.31 L1761.49 1121.31 L1761.49 1152.54 Z" fill="#000000" fill-rule="evenodd" fill-opacity="1" /><path clip-path="url(#clip680)" d="M1804.04 1137.67 L1804.04 1140.54 L1777.12 1140.54 Q1777.5 1146.59 1780.74 1149.77 Q1784.02 1152.92 1789.85 1152.92 Q1793.22 1152.92 1796.37 1152.09 Q1799.55 1151.26 1802.67 1149.61 L1802.67 1155.15 Q1799.52 1156.48 1796.21 1157.18 Q1792.9 1157.88 1789.5 1157.88 Q1780.97 1157.88 1775.97 1152.92 Q1771 1147.95 1771 1139.49 Q1771 1130.74 1775.71 1125.61 Q1780.46 1120.45 1788.48 1120.45 Q1795.67 1120.45 1799.84 1125.1 Q1804.04 1129.72 1804.04 1137.67 M1798.19 1135.95 Q1798.12 1131.15 1795.48 1128.28 Q1792.87 1125.42 1788.54 1125.42 Q1783.64 1125.42 1780.68 1128.19 Q1777.75 1130.96 1777.31 1135.99 L1798.19 1135.95 Z" fill="#000000" fill-rule="evenodd" fill-opacity="1" /><polyline clip-path="url(#clip682)" style="stroke:#000000; stroke-linecap:round; stroke-linejoin:round; stroke-width:2; stroke-opacity:0.1; fill:none" points="
  270.918,1000.1 3089.76,1000.1 
  "/>
<polyline clip-path="url(#clip682)" style="stroke:#000000; stroke-linecap:round; stroke-linejoin:round; stroke-width:2; stroke-opacity:0.1; fill:none" points="
  270.918,666.884 3089.76,666.884 
  "/>
<polyline clip-path="url(#clip682)" style="stroke:#000000; stroke-linecap:round; stroke-linejoin:round; stroke-width:2; stroke-opacity:0.1; fill:none" points="
  270.918,333.671 3089.76,333.671 
  "/>
<polyline clip-path="url(#clip680)" style="stroke:#000000; stroke-linecap:round; stroke-linejoin:round; stroke-width:4; stroke-opacity:1; fill:none" points="
  270.918,1000.1 270.918,110.236 
  "/>
<polyline clip-path="url(#clip680)" style="stroke:#000000; stroke-linecap:round; stroke-linejoin:round; stroke-width:4; stroke-opacity:1; fill:none" points="
  270.918,1000.1 289.815,1000.1 
  "/>
<polyline clip-path="url(#clip680)" style="stroke:#000000; stroke-linecap:round; stroke-linejoin:round; stroke-width:4; stroke-opacity:1; fill:none" points="
  270.918,666.884 289.815,666.884 
  "/>
<polyline clip-path="url(#clip680)" style="stroke:#000000; stroke-linecap:round; stroke-linejoin:round; stroke-width:4; stroke-opacity:1; fill:none" points="
  270.918,333.671 289.815,333.671 
  "/>
<path clip-path="url(#clip680)" d="M154.902 1019.89 L162.54 1019.89 L162.54 993.525 L154.23 995.191 L154.23 990.932 L162.494 989.265 L167.17 989.265 L167.17 1019.89 L174.809 1019.89 L174.809 1023.83 L154.902 1023.83 L154.902 1019.89 Z" fill="#000000" fill-rule="evenodd" fill-opacity="1" /><path clip-path="url(#clip680)" d="M194.253 992.344 Q190.642 992.344 188.813 995.909 Q187.008 999.45 187.008 1006.58 Q187.008 1013.69 188.813 1017.25 Q190.642 1020.79 194.253 1020.79 Q197.887 1020.79 199.693 1017.25 Q201.522 1013.69 201.522 1006.58 Q201.522 999.45 199.693 995.909 Q197.887 992.344 194.253 992.344 M194.253 988.64 Q200.063 988.64 203.119 993.247 Q206.198 997.83 206.198 1006.58 Q206.198 1015.31 203.119 1019.91 Q200.063 1024.5 194.253 1024.5 Q188.443 1024.5 185.364 1019.91 Q182.309 1015.31 182.309 1006.58 Q182.309 997.83 185.364 993.247 Q188.443 988.64 194.253 988.64 Z" fill="#000000" fill-rule="evenodd" fill-opacity="1" /><path clip-path="url(#clip680)" d="M206.743 993.218 L212.95 993.218 L212.95 971.796 L206.198 973.15 L206.198 969.689 L212.912 968.335 L216.711 968.335 L216.711 993.218 L222.918 993.218 L222.918 996.415 L206.743 996.415 L206.743 993.218 Z" fill="#000000" fill-rule="evenodd" fill-opacity="1" /><path clip-path="url(#clip680)" d="M153.792 686.677 L161.431 686.677 L161.431 660.311 L153.121 661.978 L153.121 657.719 L161.384 656.052 L166.06 656.052 L166.06 686.677 L173.699 686.677 L173.699 690.612 L153.792 690.612 L153.792 686.677 Z" fill="#000000" fill-rule="evenodd" fill-opacity="1" /><path clip-path="url(#clip680)" d="M193.143 659.131 Q189.532 659.131 187.704 662.696 Q185.898 666.237 185.898 673.367 Q185.898 680.473 187.704 684.038 Q189.532 687.58 193.143 687.58 Q196.778 687.58 198.583 684.038 Q200.412 680.473 200.412 673.367 Q200.412 666.237 198.583 662.696 Q196.778 659.131 193.143 659.131 M193.143 655.427 Q198.954 655.427 202.009 660.034 Q205.088 664.617 205.088 673.367 Q205.088 682.094 202.009 686.7 Q198.954 691.283 193.143 691.283 Q187.333 691.283 184.255 686.7 Q181.199 682.094 181.199 673.367 Q181.199 664.617 184.255 660.034 Q187.333 655.427 193.143 655.427 Z" fill="#000000" fill-rule="evenodd" fill-opacity="1" /><path clip-path="url(#clip680)" d="M209.658 660.004 L222.918 660.004 L222.918 663.202 L205.088 663.202 L205.088 660.004 Q207.251 657.766 210.975 654.005 Q214.717 650.224 215.677 649.133 Q217.501 647.083 218.216 645.673 Q218.949 644.243 218.949 642.871 Q218.949 640.632 217.369 639.222 Q215.808 637.811 213.288 637.811 Q211.501 637.811 209.508 638.432 Q207.533 639.053 205.276 640.313 L205.276 636.476 Q207.57 635.554 209.564 635.084 Q211.558 634.614 213.213 634.614 Q217.576 634.614 220.172 636.796 Q222.767 638.977 222.767 642.626 Q222.767 644.356 222.109 645.917 Q221.469 647.46 219.758 649.566 Q219.288 650.111 216.767 652.726 Q214.247 655.321 209.658 660.004 Z" fill="#000000" fill-rule="evenodd" fill-opacity="1" /><path clip-path="url(#clip680)" d="M153.134 353.464 L160.772 353.464 L160.772 327.098 L152.462 328.765 L152.462 324.506 L160.726 322.839 L165.402 322.839 L165.402 353.464 L173.041 353.464 L173.041 357.399 L153.134 357.399 L153.134 353.464 Z" fill="#000000" fill-rule="evenodd" fill-opacity="1" /><path clip-path="url(#clip680)" d="M192.485 325.918 Q188.874 325.918 187.045 329.482 Q185.24 333.024 185.24 340.154 Q185.24 347.26 187.045 350.825 Q188.874 354.366 192.485 354.366 Q196.119 354.366 197.925 350.825 Q199.754 347.26 199.754 340.154 Q199.754 333.024 197.925 329.482 Q196.119 325.918 192.485 325.918 M192.485 322.214 Q198.295 322.214 201.351 326.82 Q204.43 331.404 204.43 340.154 Q204.43 348.88 201.351 353.487 Q198.295 358.07 192.485 358.07 Q186.675 358.07 183.596 353.487 Q180.541 348.88 180.541 340.154 Q180.541 331.404 183.596 326.82 Q186.675 322.214 192.485 322.214 Z" fill="#000000" fill-rule="evenodd" fill-opacity="1" /><path clip-path="url(#clip680)" d="M217.125 314.848 Q219.852 315.431 221.375 317.274 Q222.918 319.118 222.918 321.826 Q222.918 325.982 220.059 328.258 Q217.2 330.534 211.934 330.534 Q210.166 330.534 208.285 330.177 Q206.423 329.838 204.43 329.142 L204.43 325.475 Q206.009 326.396 207.89 326.866 Q209.771 327.337 211.821 327.337 Q215.395 327.337 217.256 325.926 Q219.137 324.515 219.137 321.826 Q219.137 319.343 217.388 317.952 Q215.658 316.541 212.555 316.541 L209.282 316.541 L209.282 313.419 L212.705 313.419 Q215.507 313.419 216.993 312.309 Q218.479 311.181 218.479 309.074 Q218.479 306.911 216.937 305.764 Q215.413 304.598 212.555 304.598 Q210.994 304.598 209.207 304.937 Q207.42 305.275 205.276 305.99 L205.276 302.604 Q207.439 302.003 209.32 301.702 Q211.219 301.401 212.893 301.401 Q217.219 301.401 219.739 303.375 Q222.259 305.331 222.259 308.679 Q222.259 311.011 220.924 312.629 Q219.589 314.228 217.125 314.848 Z" fill="#000000" fill-rule="evenodd" fill-opacity="1" /><path clip-path="url(#clip680)" d="M42.6863 847.369 L42.6863 817.323 L48.0971 817.323 L48.0971 840.939 L62.1653 840.939 L62.1653 818.309 L67.5762 818.309 L67.5762 840.939 L84.7954 840.939 L84.7954 816.75 L90.2063 816.75 L90.2063 847.369 L42.6863 847.369 Z" fill="#000000" fill-rule="evenodd" fill-opacity="1" /><path clip-path="url(#clip680)" d="M44.2459 777.696 L50.5161 777.696 Q48.7655 781.356 47.9062 784.603 Q47.0468 787.849 47.0468 790.873 Q47.0468 796.125 49.0838 798.989 Q51.1208 801.822 54.8766 801.822 Q58.0276 801.822 59.6509 799.944 Q61.2423 798.035 62.229 792.751 L63.0247 788.868 Q64.3933 781.675 67.8627 778.269 Q71.3001 774.832 77.0929 774.832 Q83.9997 774.832 87.5645 779.479 Q91.1293 784.094 91.1293 793.038 Q91.1293 796.411 90.3654 800.231 Q89.6015 804.018 88.1056 808.092 L81.4853 808.092 Q83.6814 804.177 84.7954 800.422 Q85.9094 796.666 85.9094 793.038 Q85.9094 787.531 83.7451 784.539 Q81.5808 781.547 77.5704 781.547 Q74.0692 781.547 72.0958 783.712 Q70.1225 785.844 69.1358 790.746 L68.3719 794.661 Q66.9396 801.854 63.8841 805.069 Q60.8285 808.283 55.3859 808.283 Q49.0838 808.283 45.4554 803.859 Q41.8269 799.403 41.8269 791.605 Q41.8269 788.263 42.4317 784.794 Q43.0364 781.325 44.2459 777.696 Z" fill="#000000" fill-rule="evenodd" fill-opacity="1" /><path clip-path="url(#clip680)" d="M44.2459 736.319 L50.5161 736.319 Q48.7655 739.979 47.9062 743.226 Q47.0468 746.472 47.0468 749.496 Q47.0468 754.748 49.0838 757.612 Q51.1208 760.445 54.8766 760.445 Q58.0276 760.445 59.6509 758.567 Q61.2423 756.657 62.229 751.374 L63.0247 747.491 Q64.3933 740.298 67.8627 736.892 Q71.3001 733.454 77.0929 733.454 Q83.9997 733.454 87.5645 738.101 Q91.1293 742.717 91.1293 751.66 Q91.1293 755.034 90.3654 758.854 Q89.6015 762.641 88.1056 766.715 L81.4853 766.715 Q83.6814 762.8 84.7954 759.045 Q85.9094 755.289 85.9094 751.66 Q85.9094 746.154 83.7451 743.162 Q81.5808 740.17 77.5704 740.17 Q74.0692 740.17 72.0958 742.335 Q70.1225 744.467 69.1358 749.369 L68.3719 753.284 Q66.9396 760.477 63.8841 763.692 Q60.8285 766.906 55.3859 766.906 Q49.0838 766.906 45.4554 762.482 Q41.8269 758.026 41.8269 750.228 Q41.8269 746.886 42.4317 743.417 Q43.0364 739.948 44.2459 736.319 Z" fill="#000000" fill-rule="evenodd" fill-opacity="1" /><path clip-path="url(#clip680)" d="M82.1218 722.187 L82.1218 715.471 L90.2063 715.471 L90.2063 722.187 L82.1218 722.187 M56.4999 722.187 L56.4999 715.471 L64.5843 715.471 L64.5843 722.187 L56.4999 722.187 Z" fill="#000000" fill-rule="evenodd" fill-opacity="1" /><path clip-path="url(#clip680)" d="M42.6863 681.479 L42.6863 675.017 L71.5548 675.017 Q79.1936 675.017 82.5674 672.248 Q85.9094 669.479 85.9094 663.273 Q85.9094 657.098 82.5674 654.329 Q79.1936 651.56 71.5548 651.56 L42.6863 651.56 L42.6863 645.098 L72.3505 645.098 Q81.6444 645.098 86.3869 649.714 Q91.1293 654.297 91.1293 663.273 Q91.1293 672.28 86.3869 676.895 Q81.6444 681.479 72.3505 681.479 L42.6863 681.479 Z" fill="#000000" fill-rule="evenodd" fill-opacity="1" /><path clip-path="url(#clip680)" d="M44.2459 604.549 L50.5161 604.549 Q48.7655 608.209 47.9062 611.456 Q47.0468 614.702 47.0468 617.726 Q47.0468 622.978 49.0838 625.842 Q51.1208 628.675 54.8766 628.675 Q58.0276 628.675 59.6509 626.797 Q61.2423 624.887 62.229 619.604 L63.0247 615.721 Q64.3933 608.528 67.8627 605.122 Q71.3001 601.684 77.0929 601.684 Q83.9997 601.684 87.5645 606.331 Q91.1293 610.946 91.1293 619.89 Q91.1293 623.264 90.3654 627.084 Q89.6015 630.871 88.1056 634.945 L81.4853 634.945 Q83.6814 631.03 84.7954 627.275 Q85.9094 623.519 85.9094 619.89 Q85.9094 614.384 83.7451 611.392 Q81.5808 608.4 77.5704 608.4 Q74.0692 608.4 72.0958 610.565 Q70.1225 612.697 69.1358 617.599 L68.3719 621.514 Q66.9396 628.707 63.8841 631.921 Q60.8285 635.136 55.3859 635.136 Q49.0838 635.136 45.4554 630.712 Q41.8269 626.256 41.8269 618.458 Q41.8269 615.116 42.4317 611.647 Q43.0364 608.177 44.2459 604.549 Z" fill="#000000" fill-rule="evenodd" fill-opacity="1" /><path clip-path="url(#clip680)" d="M49.0202 574.566 L72.6688 583.287 L72.6688 565.814 L49.0202 574.566 M42.6863 578.195 L42.6863 570.906 L90.2063 552.796 L90.2063 559.48 L78.016 563.808 L78.016 585.229 L90.2063 589.558 L90.2063 596.337 L42.6863 578.195 Z" fill="#000000" fill-rule="evenodd" fill-opacity="1" /><path clip-path="url(#clip680)" d="M82.1218 544.616 L82.1218 537.9 L87.5963 537.9 L97.7815 543.12 L97.7815 547.226 L87.5963 544.616 L82.1218 544.616 Z" fill="#000000" fill-rule="evenodd" fill-opacity="1" /><path clip-path="url(#clip680)" d="M44.4369 498.878 L54.5583 498.878 L54.5583 486.815 L59.1098 486.815 L59.1098 498.878 L78.4616 498.878 Q82.8221 498.878 84.0634 497.701 Q85.3047 496.491 85.3047 492.831 L85.3047 486.815 L90.2063 486.815 L90.2063 492.831 Q90.2063 499.61 87.6918 502.188 Q85.1455 504.766 78.4616 504.766 L59.1098 504.766 L59.1098 509.063 L54.5583 509.063 L54.5583 504.766 L44.4369 504.766 L44.4369 498.878 Z" fill="#000000" fill-rule="evenodd" fill-opacity="1" /><path clip-path="url(#clip680)" d="M54.5583 479.113 L54.5583 473.256 L90.2063 473.256 L90.2063 479.113 L54.5583 479.113 M40.6811 479.113 L40.6811 473.256 L48.0971 473.256 L48.0971 479.113 L40.6811 479.113 Z" fill="#000000" fill-rule="evenodd" fill-opacity="1" /><path clip-path="url(#clip680)" d="M61.4015 433.248 Q57.4547 431.052 55.5768 427.996 Q53.699 424.941 53.699 420.803 Q53.699 415.233 57.6139 412.209 Q61.4969 409.185 68.6902 409.185 L90.2063 409.185 L90.2063 415.074 L68.8812 415.074 Q63.7568 415.074 61.2741 416.888 Q58.7915 418.702 58.7915 422.426 Q58.7915 426.978 61.8152 429.619 Q64.8389 432.261 70.0588 432.261 L90.2063 432.261 L90.2063 438.149 L68.8812 438.149 Q63.7249 438.149 61.2741 439.964 Q58.7915 441.778 58.7915 445.565 Q58.7915 450.053 61.8471 452.695 Q64.8708 455.337 70.0588 455.337 L90.2063 455.337 L90.2063 461.225 L54.5583 461.225 L54.5583 455.337 L60.0965 455.337 Q56.8182 453.332 55.2586 450.531 Q53.699 447.73 53.699 443.879 Q53.699 439.995 55.6723 437.29 Q57.6457 434.553 61.4015 433.248 Z" fill="#000000" fill-rule="evenodd" fill-opacity="1" /><path clip-path="url(#clip680)" d="M70.9182 367.013 L73.7828 367.013 L73.7828 393.94 Q79.8302 393.558 83.013 390.311 Q86.1641 387.033 86.1641 381.208 Q86.1641 377.834 85.3365 374.683 Q84.509 371.5 82.8539 368.381 L88.3921 368.381 Q89.7289 371.532 90.4291 374.842 Q91.1293 378.153 91.1293 381.558 Q91.1293 390.088 86.1641 395.085 Q81.1988 400.051 72.7324 400.051 Q63.9796 400.051 58.8552 395.34 Q53.699 390.598 53.699 382.577 Q53.699 375.383 58.3459 371.214 Q62.9611 367.013 70.9182 367.013 M69.1995 372.869 Q64.3933 372.933 61.5288 375.574 Q58.6642 378.184 58.6642 382.513 Q58.6642 387.415 61.4333 390.375 Q64.2024 393.303 69.2313 393.749 L69.1995 372.869 Z" fill="#000000" fill-rule="evenodd" fill-opacity="1" /><path clip-path="url(#clip680)" d="M82.1218 355.904 L82.1218 349.189 L90.2063 349.189 L90.2063 355.904 L82.1218 355.904 M56.4999 355.904 L56.4999 349.189 L64.5843 349.189 L64.5843 355.904 L56.4999 355.904 Z" fill="#000000" fill-rule="evenodd" fill-opacity="1" /><path clip-path="url(#clip680)" d="M42.6863 334.547 L42.6863 309.307 L48.0971 309.307 L48.0971 328.659 L59.7464 328.659 Q59.2689 327.259 59.0461 325.858 Q58.7915 324.458 58.7915 323.057 Q58.7915 315.1 63.152 310.453 Q67.5125 305.806 74.9604 305.806 Q82.6311 305.806 86.8961 310.581 Q91.1293 315.355 91.1293 324.044 Q91.1293 327.036 90.6201 330.155 Q90.1108 333.243 89.0923 336.553 L82.6311 336.553 Q84.1907 333.688 84.9546 330.633 Q85.7185 327.577 85.7185 324.171 Q85.7185 318.665 82.8221 315.45 Q79.9257 312.236 74.9604 312.236 Q69.9952 312.236 67.0988 315.45 Q64.2024 318.665 64.2024 324.171 Q64.2024 326.75 64.7753 329.328 Q65.3482 331.874 66.5577 334.547 L42.6863 334.547 Z" fill="#000000" fill-rule="evenodd" fill-opacity="1" /><path clip-path="url(#clip680)" d="M46.9195 279.389 Q46.9195 284.354 51.8211 286.868 Q56.6908 289.351 66.494 289.351 Q76.2654 289.351 81.167 286.868 Q86.0367 284.354 86.0367 279.389 Q86.0367 274.392 81.167 271.909 Q76.2654 269.394 66.494 269.394 Q56.6908 269.394 51.8211 271.909 Q46.9195 274.392 46.9195 279.389 M41.8269 279.389 Q41.8269 271.4 48.1608 267.198 Q54.4628 262.965 66.494 262.965 Q78.4934 262.965 84.8273 267.198 Q91.1293 271.4 91.1293 279.389 Q91.1293 287.378 84.8273 291.611 Q78.4934 295.812 66.494 295.812 Q54.4628 295.812 48.1608 291.611 Q41.8269 287.378 41.8269 279.389 Z" fill="#000000" fill-rule="evenodd" fill-opacity="1" /><polyline clip-path="url(#clip682)" style="stroke:#009af9; stroke-linecap:round; stroke-linejoin:round; stroke-width:4; stroke-opacity:1; fill:none" points="
  350.696,432.746 359.772,209.051 368.848,189.747 377.925,193.831 387.001,195.251 396.077,179.315 405.153,159.217 414.229,190.205 423.305,158.798 432.381,176.388 
  441.457,180.873 450.533,140.594 459.609,201.128 468.685,162.182 477.761,171.791 486.837,174.612 495.913,156.952 504.99,182.635 514.066,167.476 523.142,166.902 
  532.218,201.452 541.294,195.631 550.37,235.767 559.446,168.192 568.522,179.164 577.598,192.113 586.674,163.251 595.75,158.002 604.826,166.462 613.902,154.601 
  622.978,161.783 632.055,154.223 641.131,191.404 650.207,180.885 659.283,207.255 668.359,171.209 677.435,186.107 686.511,187.586 695.587,173.988 704.663,208.537 
  713.739,163.881 722.815,166.593 731.891,158.276 740.967,131.523 750.043,209.009 759.119,212.965 768.196,153.445 777.272,177.668 786.348,178.73 795.424,188.604 
  804.5,173.688 813.576,182.65 822.652,180.818 831.728,202.698 840.804,193.335 849.88,158.7 858.956,198.044 868.032,171.672 877.108,161.01 886.184,147.255 
  895.261,184.181 904.337,158.152 913.413,171.152 922.489,166.836 931.565,188.977 940.641,213.598 949.717,161.893 958.793,171.596 967.869,203.034 976.945,201.588 
  986.021,177.533 995.097,177.455 1004.17,184.44 1013.25,217.262 1022.33,169.489 1031.4,158.711 1040.48,199.8 1049.55,170 1058.63,174.216 1067.71,197.518 
  1076.78,193.544 1085.86,208.544 1094.93,138.751 1104.01,187.457 1113.09,190.255 1122.16,163.416 1131.24,166.939 1140.31,152.578 1149.39,178.659 1158.47,174.441 
  1167.54,168.1 1176.62,166.171 1185.69,186.651 1194.77,140.23 1203.85,181.362 1212.92,217.253 1222,181.652 1231.08,204.122 1240.15,178.28 1249.23,156.837 
  1258.3,162.085 1267.38,166.478 1276.46,131.514 1285.53,205.194 1294.61,177.578 1303.68,190.51 1312.76,127.851 1321.84,194.75 1330.91,147.996 1339.99,197.4 
  1349.06,205.715 1358.14,143.434 1367.22,185.993 1376.29,158.596 1385.37,164.288 1394.44,185.566 1403.52,167.207 1412.6,203.536 1421.67,213.864 1430.75,151.909 
  1439.82,209.105 1448.9,178.129 1457.98,184.417 1467.05,168.535 1476.13,172.825 1485.21,183.641 1494.28,174.721 1503.36,201.119 1512.43,196.367 1521.51,142.584 
  1530.59,153.653 1539.66,153.563 1548.74,159.375 1557.81,181.164 1566.89,203.668 1575.97,151.694 1585.04,168.169 1594.12,197.491 1603.19,140.817 1612.27,198.295 
  1621.35,156.744 1630.42,174.22 1639.5,143.093 1648.57,172.806 1657.65,159.997 1666.73,182.678 1675.8,164.02 1684.88,209.054 1693.95,202.515 1703.03,156.467 
  1712.11,188.763 1721.18,186.104 1730.26,181.344 1739.34,174.266 1748.41,190.676 1757.49,171.904 1766.56,167.782 1775.64,143.608 1784.72,195.389 1793.79,171.869 
  1802.87,159.536 1811.94,186.79 1821.02,176.554 1830.1,172.138 1839.17,174.516 1848.25,217.818 1857.32,221.04 1866.4,153.274 1875.48,217.569 1884.55,110.236 
  1893.63,217.923 1902.7,195.173 1911.78,198.321 1920.86,205.005 1929.93,209.502 1939.01,214.873 1948.08,164.835 1957.16,209.566 1966.24,229.447 1975.31,212.926 
  1984.39,196.967 1993.47,147.286 2002.54,200.6 2011.62,211.752 2020.69,136.843 2029.77,198.282 2038.85,229.094 2047.92,183.729 2057,217.904 2066.07,161.658 
  2075.15,183.277 2084.23,202.3 2093.3,201.433 2102.38,192.334 2111.45,213.174 2120.53,194.727 2129.61,221.705 2138.68,214.997 2147.76,198.163 2156.83,195.998 
  2165.91,232.385 2174.99,215.841 2184.06,205.926 2193.14,204.58 2202.21,214.728 2211.29,196.684 2220.37,194.398 2229.44,186.193 2238.52,161.265 2247.6,210.207 
  2256.67,186.508 2265.75,214.839 2274.82,187.752 2283.9,137.936 2292.98,229.361 2302.05,210.655 2311.13,172.733 2320.2,197.595 2329.28,172.019 2338.36,208.747 
  2347.43,196.93 2356.51,219.559 2365.58,211.333 2374.66,205.749 2383.74,196.515 2392.81,187.478 2401.89,220.916 2410.96,205.417 2420.04,198.228 2429.12,205.114 
  2438.19,202.053 2447.27,195.371 2456.34,133.434 2465.42,160.468 2474.5,156.703 2483.57,222.832 2492.65,173.764 2501.73,202.988 2510.8,193.75 2519.88,121.031 
  2528.95,216.953 2538.03,214.228 2547.11,208.712 2556.18,189.864 2565.26,170.056 2574.33,150.264 2583.41,154.907 2592.49,187.982 2601.56,193.605 2610.64,208.657 
  2619.71,170.929 2628.79,206.462 2637.87,191.789 2646.94,196.289 2656.02,176.001 2665.09,201.071 2674.17,172.954 2683.25,164.953 2692.32,150.507 2701.4,166.644 
  2710.47,187.746 2719.55,217.2 2728.63,185.561 2737.7,195.74 2746.78,195.346 2755.86,200.626 2764.93,135.329 2774.01,176.739 2783.08,200.99 2792.16,184.034 
  2801.24,207.823 2810.31,171.048 2819.39,148.562 2828.46,185.399 2837.54,159.858 2846.62,212.212 2855.69,189.412 2864.77,152.984 2873.84,219.06 2882.92,209.601 
  2892,199.426 2901.07,199.802 2910.15,141.637 2919.22,161.968 2928.3,210.887 2937.38,202.784 2946.45,197.96 2955.53,199.514 2964.6,156.27 2973.68,189.387 
  2982.76,195.593 2991.83,192.136 3000.91,224.571 3009.99,135.765 
  "/>
</svg>
