<?xml version="1.0" encoding="utf-8"?>
<svg xmlns="http://www.w3.org/2000/svg" xmlns:xlink="http://www.w3.org/1999/xlink" width="800" height="300" viewBox="0 0 3200 1200">
<defs>
  <clipPath id="clip300">
    <rect x="0" y="0" width="3200" height="1200"/>
  </clipPath>
</defs>
<path clip-path="url(#clip300)" d="M0 1200 L3200 1200 L3200 0 L0 0  Z" fill="#ffffff" fill-rule="evenodd" fill-opacity="1"/>
<defs>
  <clipPath id="clip301">
    <rect x="640" y="0" width="2241" height="1200"/>
  </clipPath>
</defs>
<path clip-path="url(#clip300)" d="M270.918 1000.1 L3089.76 1000.1 L3089.76 110.236 L270.918 110.236  Z" fill="#ffffff" fill-rule="evenodd" fill-opacity="1"/>
<defs>
  <clipPath id="clip302">
    <rect x="270" y="110" width="2820" height="891"/>
  </clipPath>
</defs>
<polyline clip-path="url(#clip302)" style="stroke:#000000; stroke-linecap:round; stroke-linejoin:round; stroke-width:2; stroke-opacity:0.1; fill:none" points="326.073,1000.1 326.073,110.236 "/>
<polyline clip-path="url(#clip302)" style="stroke:#000000; stroke-linecap:round; stroke-linejoin:round; stroke-width:2; stroke-opacity:0.1; fill:none" points="941.649,1000.1 941.649,110.236 "/>
<polyline clip-path="url(#clip302)" style="stroke:#000000; stroke-linecap:round; stroke-linejoin:round; stroke-width:2; stroke-opacity:0.1; fill:none" points="1557.23,1000.1 1557.23,110.236 "/>
<polyline clip-path="url(#clip302)" style="stroke:#000000; stroke-linecap:round; stroke-linejoin:round; stroke-width:2; stroke-opacity:0.1; fill:none" points="2172.8,1000.1 2172.8,110.236 "/>
<polyline clip-path="url(#clip302)" style="stroke:#000000; stroke-linecap:round; stroke-linejoin:round; stroke-width:2; stroke-opacity:0.1; fill:none" points="2788.38,1000.1 2788.38,110.236 "/>
<polyline clip-path="url(#clip300)" style="stroke:#000000; stroke-linecap:round; stroke-linejoin:round; stroke-width:4; stroke-opacity:1; fill:none" points="270.918,1000.1 3089.76,1000.1 "/>
<polyline clip-path="url(#clip300)" style="stroke:#000000; stroke-linecap:round; stroke-linejoin:round; stroke-width:4; stroke-opacity:1; fill:none" points="326.073,1000.1 326.073,981.2 "/>
<polyline clip-path="url(#clip300)" style="stroke:#000000; stroke-linecap:round; stroke-linejoin:round; stroke-width:4; stroke-opacity:1; fill:none" points="941.649,1000.1 941.649,981.2 "/>
<polyline clip-path="url(#clip300)" style="stroke:#000000; stroke-linecap:round; stroke-linejoin:round; stroke-width:4; stroke-opacity:1; fill:none" points="1557.23,1000.1 1557.23,981.2 "/>
<polyline clip-path="url(#clip300)" style="stroke:#000000; stroke-linecap:round; stroke-linejoin:round; stroke-width:4; stroke-opacity:1; fill:none" points="2172.8,1000.1 2172.8,981.2 "/>
<polyline clip-path="url(#clip300)" style="stroke:#000000; stroke-linecap:round; stroke-linejoin:round; stroke-width:4; stroke-opacity:1; fill:none" points="2788.38,1000.1 2788.38,981.2 "/>
<path clip-path="url(#clip300)" d="M326.073 1037.42 Q322.462 1037.42 320.633 1040.98 Q318.828 1044.52 318.828 1051.65 Q318.828 1058.76 320.633 1062.32 Q322.462 1065.87 326.073 1065.87 Q329.707 1065.87 331.513 1062.32 Q333.342 1058.76 333.342 1051.65 Q333.342 1044.52 331.513 1040.98 Q329.707 1037.42 326.073 1037.42 M326.073 1033.71 Q331.883 1033.71 334.939 1038.32 Q338.018 1042.9 338.018 1051.65 Q338.018 1060.38 334.939 1064.99 Q331.883 1069.57 326.073 1069.57 Q320.263 1069.57 317.184 1064.99 Q314.129 1060.38 314.129 1051.65 Q314.129 1042.9 317.184 1038.32 Q320.263 1033.71 326.073 1033.71 Z" fill="#000000" fill-rule="nonzero" fill-opacity="1" /><path clip-path="url(#clip300)" d="M920.92 1064.96 L937.24 1064.96 L937.24 1068.9 L915.295 1068.9 L915.295 1064.96 Q917.957 1062.21 922.541 1057.58 Q927.147 1052.93 928.328 1051.58 Q930.573 1049.06 931.453 1047.32 Q932.355 1045.56 932.355 1043.87 Q932.355 1041.12 930.411 1039.38 Q928.49 1037.65 925.388 1037.65 Q923.189 1037.65 920.735 1038.41 Q918.305 1039.18 915.527 1040.73 L915.527 1036 Q918.351 1034.87 920.805 1034.29 Q923.258 1033.71 925.295 1033.71 Q930.666 1033.71 933.86 1036.4 Q937.054 1039.08 937.054 1043.57 Q937.054 1045.7 936.244 1047.62 Q935.457 1049.52 933.351 1052.12 Q932.772 1052.79 929.67 1056 Q926.568 1059.2 920.92 1064.96 Z" fill="#000000" fill-rule="nonzero" fill-opacity="1" /><path clip-path="url(#clip300)" d="M947.101 1034.34 L965.457 1034.34 L965.457 1038.27 L951.383 1038.27 L951.383 1046.75 Q952.402 1046.4 953.42 1046.24 Q954.439 1046.05 955.457 1046.05 Q961.244 1046.05 964.624 1049.22 Q968.003 1052.39 968.003 1057.81 Q968.003 1063.39 964.531 1066.49 Q961.059 1069.57 954.74 1069.57 Q952.564 1069.57 950.295 1069.2 Q948.05 1068.83 945.642 1068.09 L945.642 1063.39 Q947.726 1064.52 949.948 1065.08 Q952.17 1065.63 954.647 1065.63 Q958.652 1065.63 960.99 1063.53 Q963.327 1061.42 963.327 1057.81 Q963.327 1054.2 960.99 1052.09 Q958.652 1049.99 954.647 1049.99 Q952.772 1049.99 950.897 1050.4 Q949.045 1050.82 947.101 1051.7 L947.101 1034.34 Z" fill="#000000" fill-rule="nonzero" fill-opacity="1" /><path clip-path="url(#clip300)" d="M1531.92 1034.34 L1550.28 1034.34 L1550.28 1038.27 L1536.21 1038.27 L1536.21 1046.75 Q1537.23 1046.4 1538.24 1046.24 Q1539.26 1046.05 1540.28 1046.05 Q1546.07 1046.05 1549.45 1049.22 Q1552.83 1052.39 1552.83 1057.81 Q1552.83 1063.39 1549.36 1066.49 Q1545.88 1069.57 1539.56 1069.57 Q1537.39 1069.57 1535.12 1069.2 Q1532.87 1068.83 1530.47 1068.09 L1530.47 1063.39 Q1532.55 1064.52 1534.77 1065.08 Q1536.99 1065.63 1539.47 1065.63 Q1543.48 1065.63 1545.81 1063.53 Q1548.15 1061.42 1548.15 1057.81 Q1548.15 1054.2 1545.81 1052.09 Q1543.48 1049.99 1539.47 1049.99 Q1537.6 1049.99 1535.72 1050.4 Q1533.87 1050.82 1531.92 1051.7 L1531.92 1034.34 Z" fill="#000000" fill-rule="nonzero" fill-opacity="1" /><path clip-path="url(#clip300)" d="M1572.04 1037.42 Q1568.43 1037.42 1566.6 1040.98 Q1564.79 1044.52 1564.79 1051.65 Q1564.79 1058.76 1566.6 1062.32 Q1568.43 1065.87 1572.04 1065.87 Q1575.67 1065.87 1577.48 1062.32 Q1579.31 1058.76 1579.31 1051.65 Q1579.31 1044.52 1577.48 1040.98 Q1575.67 1037.42 1572.04 1037.42 M1572.04 1033.71 Q1577.85 1033.71 1580.91 1038.32 Q1583.98 1042.9 1583.98 1051.65 Q1583.98 1060.38 1580.91 1064.99 Q1577.85 1069.57 1572.04 1069.57 Q1566.23 1069.57 1563.15 1064.99 Q1560.1 1060.38 1560.1 1051.65 Q1560.1 1042.9 1563.15 1038.32 Q1566.23 1033.71 1572.04 1033.71 Z" fill="#000000" fill-rule="nonzero" fill-opacity="1" /><path clip-path="url(#clip300)" d="M2146.66 1034.34 L2168.88 1034.34 L2168.88 1036.33 L2156.33 1068.9 L2151.45 1068.9 L2163.25 1038.27 L2146.66 1038.27 L2146.66 1034.34 Z" fill="#000000" fill-rule="nonzero" fill-opacity="1" /><path clip-path="url(#clip300)" d="M2178.04 1034.34 L2196.4 1034.34 L2196.4 1038.27 L2182.33 1038.27 L2182.33 1046.75 Q2183.35 1046.4 2184.36 1046.24 Q2185.38 1046.05 2186.4 1046.05 Q2192.19 1046.05 2195.57 1049.22 Q2198.95 1052.39 2198.95 1057.81 Q2198.95 1063.39 2195.48 1066.49 Q2192 1069.57 2185.68 1069.57 Q2183.51 1069.57 2181.24 1069.2 Q2178.99 1068.83 2176.59 1068.09 L2176.59 1063.39 Q2178.67 1064.52 2180.89 1065.08 Q2183.11 1065.63 2185.59 1065.63 Q2189.6 1065.63 2191.93 1063.53 Q2194.27 1061.42 2194.27 1057.81 Q2194.27 1054.2 2191.93 1052.09 Q2189.6 1049.99 2185.59 1049.99 Q2183.72 1049.99 2181.84 1050.4 Q2179.99 1050.82 2178.04 1051.7 L2178.04 1034.34 Z" fill="#000000" fill-rule="nonzero" fill-opacity="1" /><path clip-path="url(#clip300)" d="M2747.98 1064.96 L2755.62 1064.96 L2755.62 1038.6 L2747.31 1040.26 L2747.31 1036 L2755.58 1034.34 L2760.25 1034.34 L2760.25 1064.96 L2767.89 1064.96 L2767.89 1068.9 L2747.98 1068.9 L2747.98 1064.96 Z" fill="#000000" fill-rule="nonzero" fill-opacity="1" /><path clip-path="url(#clip300)" d="M2787.34 1037.42 Q2783.72 1037.42 2781.9 1040.98 Q2780.09 1044.52 2780.09 1051.65 Q2780.09 1058.76 2781.9 1062.32 Q2783.72 1065.87 2787.34 1065.87 Q2790.97 1065.87 2792.78 1062.32 Q2794.6 1058.76 2794.6 1051.65 Q2794.6 1044.52 2792.78 1040.98 Q2790.97 1037.42 2787.34 1037.42 M2787.34 1033.71 Q2793.15 1033.71 2796.2 1038.32 Q2799.28 1042.9 2799.28 1051.65 Q2799.28 1060.38 2796.2 1064.99 Q2793.15 1069.57 2787.34 1069.57 Q2781.53 1069.57 2778.45 1064.99 Q2775.39 1060.38 2775.39 1051.65 Q2775.39 1042.9 2778.45 1038.32 Q2781.53 1033.71 2787.34 1033.71 Z" fill="#000000" fill-rule="nonzero" fill-opacity="1" /><path clip-path="url(#clip300)" d="M2817.5 1037.42 Q2813.89 1037.42 2812.06 1040.98 Q2810.25 1044.52 2810.25 1051.65 Q2810.25 1058.76 2812.06 1062.32 Q2813.89 1065.87 2817.5 1065.87 Q2821.13 1065.87 2822.94 1062.32 Q2824.77 1058.76 2824.77 1051.65 Q2824.77 1044.52 2822.94 1040.98 Q2821.13 1037.42 2817.5 1037.42 M2817.5 1033.71 Q2823.31 1033.71 2826.36 1038.32 Q2829.44 1042.9 2829.44 1051.65 Q2829.44 1060.38 2826.36 1064.99 Q2823.31 1069.57 2817.5 1069.57 Q2811.69 1069.57 2808.61 1064.99 Q2805.55 1060.38 2805.55 1051.65 Q2805.55 1042.9 2808.61 1038.32 Q2811.69 1033.71 2817.5 1033.71 Z" fill="#000000" fill-rule="nonzero" fill-opacity="1" /><path clip-path="url(#clip300)" d="M1556.64 1109.44 L1563.07 1109.44 L1563.07 1151.55 L1586.21 1151.55 L1586.21 1156.96 L1556.64 1156.96 L1556.64 1109.44 Z" fill="#000000" fill-rule="nonzero" fill-opacity="1" /><path clip-path="url(#clip300)" d="M1592.7 1121.31 L1598.56 1121.31 L1598.56 1156.96 L1592.7 1156.96 L1592.7 1121.31 M1592.7 1107.44 L1598.56 1107.44 L1598.56 1114.85 L1592.7 1114.85 L1592.7 1107.44 Z" fill="#000000" fill-rule="nonzero" fill-opacity="1" /><path clip-path="url(#clip300)" d="M1640.44 1135.45 L1640.44 1156.96 L1634.59 1156.96 L1634.59 1135.64 Q1634.59 1130.58 1632.61 1128.06 Q1630.64 1125.55 1626.69 1125.55 Q1621.95 1125.55 1619.21 1128.57 Q1616.48 1131.59 1616.48 1136.81 L1616.48 1156.96 L1610.59 1156.96 L1610.59 1121.31 L1616.48 1121.31 L1616.48 1126.85 Q1618.58 1123.64 1621.41 1122.05 Q1624.27 1120.45 1628 1120.45 Q1634.14 1120.45 1637.29 1124.27 Q1640.44 1128.06 1640.44 1135.45 Z" fill="#000000" fill-rule="nonzero" fill-opacity="1" /><path clip-path="url(#clip300)" d="M1682.62 1137.67 L1682.62 1140.54 L1655.69 1140.54 Q1656.07 1146.59 1659.32 1149.77 Q1662.6 1152.92 1668.42 1152.92 Q1671.79 1152.92 1674.95 1152.09 Q1678.13 1151.26 1681.25 1149.61 L1681.25 1155.15 Q1678.1 1156.48 1674.79 1157.18 Q1671.48 1157.88 1668.07 1157.88 Q1659.54 1157.88 1654.54 1152.92 Q1649.58 1147.95 1649.58 1139.49 Q1649.58 1130.74 1654.29 1125.61 Q1659.03 1120.45 1667.05 1120.45 Q1674.25 1120.45 1678.42 1125.1 Q1682.62 1129.72 1682.62 1137.67 M1676.76 1135.95 Q1676.7 1131.15 1674.05 1128.28 Q1671.44 1125.42 1667.12 1125.42 Q1662.21 1125.42 1659.25 1128.19 Q1656.33 1130.96 1655.88 1135.99 L1676.76 1135.95 Z" fill="#000000" fill-rule="nonzero" fill-opacity="1" /><path clip-path="url(#clip300)" d="M1708.43 1139.04 Q1701.33 1139.04 1698.59 1140.67 Q1695.86 1142.29 1695.86 1146.2 Q1695.86 1149.32 1697.89 1151.17 Q1699.96 1152.98 1703.5 1152.98 Q1708.37 1152.98 1711.29 1149.55 Q1714.25 1146.08 1714.25 1140.35 L1714.25 1139.04 L1708.43 1139.04 M1720.11 1136.62 L1720.11 1156.96 L1714.25 1156.96 L1714.25 1151.55 Q1712.25 1154.8 1709.26 1156.36 Q1706.27 1157.88 1701.94 1157.88 Q1696.46 1157.88 1693.22 1154.83 Q1690 1151.74 1690 1146.59 Q1690 1140.57 1694.01 1137.51 Q1698.05 1134.46 1706.04 1134.46 L1714.25 1134.46 L1714.25 1133.89 Q1714.25 1129.84 1711.58 1127.65 Q1708.94 1125.42 1704.13 1125.42 Q1701.08 1125.42 1698.18 1126.15 Q1695.28 1126.88 1692.61 1128.35 L1692.61 1122.94 Q1695.83 1121.7 1698.85 1121.09 Q1701.87 1120.45 1704.74 1120.45 Q1712.47 1120.45 1716.29 1124.46 Q1720.11 1128.48 1720.11 1136.62 Z" fill="#000000" fill-rule="nonzero" fill-opacity="1" /><path clip-path="url(#clip300)" d="M1755.63 1138.72 Q1755.63 1132.36 1752.99 1128.86 Q1750.38 1125.36 1745.64 1125.36 Q1740.93 1125.36 1738.28 1128.86 Q1735.67 1132.36 1735.67 1138.72 Q1735.67 1145.06 1738.28 1148.56 Q1740.93 1152.06 1745.64 1152.06 Q1750.38 1152.06 1752.99 1148.56 Q1755.63 1145.06 1755.63 1138.72 M1761.49 1152.54 Q1761.49 1161.64 1757.45 1166.06 Q1753.4 1170.52 1745.06 1170.52 Q1741.98 1170.52 1739.24 1170.04 Q1736.5 1169.6 1733.92 1168.64 L1733.92 1162.95 Q1736.5 1164.35 1739.02 1165.01 Q1741.53 1165.68 1744.14 1165.68 Q1749.9 1165.68 1752.77 1162.66 Q1755.63 1159.67 1755.63 1153.59 L1755.63 1150.69 Q1753.82 1153.84 1750.98 1155.4 Q1748.15 1156.96 1744.2 1156.96 Q1737.65 1156.96 1733.64 1151.96 Q1729.63 1146.97 1729.63 1138.72 Q1729.63 1130.45 1733.64 1125.45 Q1737.65 1120.45 1744.2 1120.45 Q1748.15 1120.45 1750.98 1122.01 Q1753.82 1123.57 1755.63 1126.72 L1755.63 1121.31 L1761.49 1121.31 L1761.49 1152.54 Z" fill="#000000" fill-rule="nonzero" fill-opacity="1" /><path clip-path="url(#clip300)" d="M1804.04 1137.67 L1804.04 1140.54 L1777.12 1140.54 Q1777.5 1146.59 1780.74 1149.77 Q1784.02 1152.92 1789.85 1152.92 Q1793.22 1152.92 1796.37 1152.09 Q1799.55 1151.26 1802.67 1149.61 L1802.67 1155.15 Q1799.52 1156.48 1796.21 1157.18 Q1792.9 1157.88 1789.5 1157.88 Q1780.97 1157.88 1775.97 1152.92 Q1771 1147.95 1771 1139.49 Q1771 1130.74 1775.71 1125.61 Q1780.46 1120.45 1788.48 1120.45 Q1795.67 1120.45 1799.84 1125.1 Q1804.04 1129.72 1804.04 1137.67 M1798.19 1135.95 Q1798.12 1131.15 1795.48 1128.28 Q1792.87 1125.42 1788.54 1125.42 Q1783.64 1125.42 1780.68 1128.19 Q1777.75 1130.96 1777.31 1135.99 L1798.19 1135.95 Z" fill="#000000" fill-rule="nonzero" fill-opacity="1" /><polyline clip-path="url(#clip302)" style="stroke:#000000; stroke-linecap:round; stroke-linejoin:round; stroke-width:2; stroke-opacity:0.1; fill:none" points="270.918,1000.1 3089.76,1000.1 "/>
<polyline clip-path="url(#clip302)" style="stroke:#000000; stroke-linecap:round; stroke-linejoin:round; stroke-width:2; stroke-opacity:0.1; fill:none" points="270.918,663.313 3089.76,663.313 "/>
<polyline clip-path="url(#clip302)" style="stroke:#000000; stroke-linecap:round; stroke-linejoin:round; stroke-width:2; stroke-opacity:0.1; fill:none" points="270.918,326.529 3089.76,326.529 "/>
<polyline clip-path="url(#clip300)" style="stroke:#000000; stroke-linecap:round; stroke-linejoin:round; stroke-width:4; stroke-opacity:1; fill:none" points="270.918,1000.1 270.918,110.236 "/>
<polyline clip-path="url(#clip300)" style="stroke:#000000; stroke-linecap:round; stroke-linejoin:round; stroke-width:4; stroke-opacity:1; fill:none" points="270.918,1000.1 289.815,1000.1 "/>
<polyline clip-path="url(#clip300)" style="stroke:#000000; stroke-linecap:round; stroke-linejoin:round; stroke-width:4; stroke-opacity:1; fill:none" points="270.918,663.313 289.815,663.313 "/>
<polyline clip-path="url(#clip300)" style="stroke:#000000; stroke-linecap:round; stroke-linejoin:round; stroke-width:4; stroke-opacity:1; fill:none" points="270.918,326.529 289.815,326.529 "/>
<path clip-path="url(#clip300)" d="M154.902 1019.89 L162.54 1019.89 L162.54 993.525 L154.23 995.191 L154.23 990.932 L162.494 989.265 L167.17 989.265 L167.17 1019.89 L174.809 1019.89 L174.809 1023.83 L154.902 1023.83 L154.902 1019.89 Z" fill="#000000" fill-rule="nonzero" fill-opacity="1" /><path clip-path="url(#clip300)" d="M194.253 992.344 Q190.642 992.344 188.813 995.909 Q187.008 999.45 187.008 1006.58 Q187.008 1013.69 188.813 1017.25 Q190.642 1020.79 194.253 1020.79 Q197.887 1020.79 199.693 1017.25 Q201.522 1013.69 201.522 1006.58 Q201.522 999.45 199.693 995.909 Q197.887 992.344 194.253 992.344 M194.253 988.64 Q200.063 988.64 203.119 993.247 Q206.198 997.83 206.198 1006.58 Q206.198 1015.31 203.119 1019.91 Q200.063 1024.5 194.253 1024.5 Q188.443 1024.5 185.364 1019.91 Q182.309 1015.31 182.309 1006.58 Q182.309 997.83 185.364 993.247 Q188.443 988.64 194.253 988.64 Z" fill="#000000" fill-rule="nonzero" fill-opacity="1" /><path clip-path="url(#clip300)" d="M206.743 993.218 L212.95 993.218 L212.95 971.796 L206.198 973.15 L206.198 969.689 L212.912 968.335 L216.711 968.335 L216.711 993.218 L222.918 993.218 L222.918 996.415 L206.743 996.415 L206.743 993.218 Z" fill="#000000" fill-rule="nonzero" fill-opacity="1" /><path clip-path="url(#clip300)" d="M153.792 683.106 L161.431 683.106 L161.431 656.74 L153.121 658.407 L153.121 654.148 L161.384 652.481 L166.06 652.481 L166.06 683.106 L173.699 683.106 L173.699 687.041 L153.792 687.041 L153.792 683.106 Z" fill="#000000" fill-rule="nonzero" fill-opacity="1" /><path clip-path="url(#clip300)" d="M193.143 655.56 Q189.532 655.56 187.704 659.124 Q185.898 662.666 185.898 669.796 Q185.898 676.902 187.704 680.467 Q189.532 684.009 193.143 684.009 Q196.778 684.009 198.583 680.467 Q200.412 676.902 200.412 669.796 Q200.412 662.666 198.583 659.124 Q196.778 655.56 193.143 655.56 M193.143 651.856 Q198.954 651.856 202.009 656.462 Q205.088 661.046 205.088 669.796 Q205.088 678.522 202.009 683.129 Q198.954 687.712 193.143 687.712 Q187.333 687.712 184.255 683.129 Q181.199 678.522 181.199 669.796 Q181.199 661.046 184.255 656.462 Q187.333 651.856 193.143 651.856 Z" fill="#000000" fill-rule="nonzero" fill-opacity="1" /><path clip-path="url(#clip300)" d="M209.658 656.433 L222.918 656.433 L222.918 659.631 L205.088 659.631 L205.088 656.433 Q207.251 654.195 210.975 650.434 Q214.717 646.653 215.677 645.562 Q217.501 643.512 218.216 642.102 Q218.949 640.672 218.949 639.299 Q218.949 637.061 217.369 635.651 Q215.808 634.24 213.288 634.24 Q211.501 634.24 209.508 634.861 Q207.533 635.481 205.276 636.741 L205.276 632.905 Q207.57 631.983 209.564 631.513 Q211.558 631.043 213.213 631.043 Q217.576 631.043 220.172 633.224 Q222.767 635.406 222.767 639.055 Q222.767 640.785 222.109 642.346 Q221.469 643.888 219.758 645.995 Q219.288 646.54 216.767 649.155 Q214.247 651.75 209.658 656.433 Z" fill="#000000" fill-rule="nonzero" fill-opacity="1" /><path clip-path="url(#clip300)" d="M153.134 346.321 L160.772 346.321 L160.772 319.956 L152.462 321.622 L152.462 317.363 L160.726 315.697 L165.402 315.697 L165.402 346.321 L173.041 346.321 L173.041 350.257 L153.134 350.257 L153.134 346.321 Z" fill="#000000" fill-rule="nonzero" fill-opacity="1" /><path clip-path="url(#clip300)" d="M192.485 318.775 Q188.874 318.775 187.045 322.34 Q185.24 325.882 185.24 333.011 Q185.24 340.118 187.045 343.683 Q188.874 347.224 192.485 347.224 Q196.119 347.224 197.925 343.683 Q199.754 340.118 199.754 333.011 Q199.754 325.882 197.925 322.34 Q196.119 318.775 192.485 318.775 M192.485 315.072 Q198.295 315.072 201.351 319.678 Q204.43 324.261 204.43 333.011 Q204.43 341.738 201.351 346.345 Q198.295 350.928 192.485 350.928 Q186.675 350.928 183.596 346.345 Q180.541 341.738 180.541 333.011 Q180.541 324.261 183.596 319.678 Q186.675 315.072 192.485 315.072 Z" fill="#000000" fill-rule="nonzero" fill-opacity="1" /><path clip-path="url(#clip300)" d="M217.125 307.706 Q219.852 308.289 221.375 310.132 Q222.918 311.975 222.918 314.684 Q222.918 318.84 220.059 321.116 Q217.2 323.392 211.934 323.392 Q210.166 323.392 208.285 323.034 Q206.423 322.696 204.43 322 L204.43 318.332 Q206.009 319.254 207.89 319.724 Q209.771 320.194 211.821 320.194 Q215.395 320.194 217.256 318.784 Q219.137 317.373 219.137 314.684 Q219.137 312.201 217.388 310.809 Q215.658 309.399 212.555 309.399 L209.282 309.399 L209.282 306.277 L212.705 306.277 Q215.507 306.277 216.993 305.167 Q218.479 304.038 218.479 301.932 Q218.479 299.769 216.937 298.622 Q215.413 297.456 212.555 297.456 Q210.994 297.456 209.207 297.794 Q207.42 298.133 205.276 298.847 L205.276 295.462 Q207.439 294.86 209.32 294.559 Q211.219 294.258 212.893 294.258 Q217.219 294.258 219.739 296.233 Q222.259 298.189 222.259 301.537 Q222.259 303.869 220.924 305.487 Q219.589 307.085 217.125 307.706 Z" fill="#000000" fill-rule="nonzero" fill-opacity="1" /><path clip-path="url(#clip300)" d="M42.6863 929.455 L42.6863 899.408 L48.0971 899.408 L48.0971 923.025 L62.1653 923.025 L62.1653 900.395 L67.5762 900.395 L67.5762 923.025 L84.7954 923.025 L84.7954 898.836 L90.2063 898.836 L90.2063 929.455 L42.6863 929.455 Z" fill="#000000" fill-rule="nonzero" fill-opacity="1" /><path clip-path="url(#clip300)" d="M44.2459 859.782 L50.5161 859.782 Q48.7655 863.442 47.9062 866.689 Q47.0468 869.935 47.0468 872.959 Q47.0468 878.211 49.0838 881.075 Q51.1208 883.908 54.8766 883.908 Q58.0276 883.908 59.6509 882.03 Q61.2423 880.12 62.229 874.837 L63.0247 870.954 Q64.3933 863.761 67.8627 860.355 Q71.3001 856.917 77.0929 856.917 Q83.9997 856.917 87.5645 861.564 Q91.1293 866.179 91.1293 875.123 Q91.1293 878.497 90.3654 882.317 Q89.6015 886.104 88.1056 890.178 L81.4853 890.178 Q83.6814 886.263 84.7954 882.508 Q85.9094 878.752 85.9094 875.123 Q85.9094 869.617 83.7451 866.625 Q81.5808 863.633 77.5704 863.633 Q74.0692 863.633 72.0958 865.798 Q70.1225 867.93 69.1358 872.832 L68.3719 876.747 Q66.9396 883.94 63.8841 887.154 Q60.8285 890.369 55.3859 890.369 Q49.0838 890.369 45.4554 885.945 Q41.8269 881.489 41.8269 873.691 Q41.8269 870.349 42.4317 866.88 Q43.0364 863.41 44.2459 859.782 Z" fill="#000000" fill-rule="nonzero" fill-opacity="1" /><path clip-path="url(#clip300)" d="M44.2459 818.405 L50.5161 818.405 Q48.7655 822.065 47.9062 825.312 Q47.0468 828.558 47.0468 831.582 Q47.0468 836.834 49.0838 839.698 Q51.1208 842.531 54.8766 842.531 Q58.0276 842.531 59.6509 840.653 Q61.2423 838.743 62.229 833.46 L63.0247 829.577 Q64.3933 822.383 67.8627 818.978 Q71.3001 815.54 77.0929 815.54 Q83.9997 815.54 87.5645 820.187 Q91.1293 824.802 91.1293 833.746 Q91.1293 837.12 90.3654 840.939 Q89.6015 844.727 88.1056 848.801 L81.4853 848.801 Q83.6814 844.886 84.7954 841.13 Q85.9094 837.375 85.9094 833.746 Q85.9094 828.24 83.7451 825.248 Q81.5808 822.256 77.5704 822.256 Q74.0692 822.256 72.0958 824.42 Q70.1225 826.553 69.1358 831.455 L68.3719 835.369 Q66.9396 842.563 63.8841 845.777 Q60.8285 848.992 55.3859 848.992 Q49.0838 848.992 45.4554 844.568 Q41.8269 840.112 41.8269 832.314 Q41.8269 828.972 42.4317 825.503 Q43.0364 822.033 44.2459 818.405 Z" fill="#000000" fill-rule="nonzero" fill-opacity="1" /><path clip-path="url(#clip300)" d="M82.1218 804.273 L82.1218 797.557 L90.2063 797.557 L90.2063 804.273 L82.1218 804.273 M56.4999 804.273 L56.4999 797.557 L64.5843 797.557 L64.5843 804.273 L56.4999 804.273 Z" fill="#000000" fill-rule="nonzero" fill-opacity="1" /><path clip-path="url(#clip300)" d="M44.2459 734.346 L50.5161 734.346 Q48.7655 738.006 47.9062 741.252 Q47.0468 744.499 47.0468 747.523 Q47.0468 752.774 49.0838 755.639 Q51.1208 758.472 54.8766 758.472 Q58.0276 758.472 59.6509 756.594 Q61.2423 754.684 62.229 749.401 L63.0247 745.518 Q64.3933 738.324 67.8627 734.919 Q71.3001 731.481 77.0929 731.481 Q83.9997 731.481 87.5645 736.128 Q91.1293 740.743 91.1293 749.687 Q91.1293 753.061 90.3654 756.88 Q89.6015 760.668 88.1056 764.742 L81.4853 764.742 Q83.6814 760.827 84.7954 757.071 Q85.9094 753.316 85.9094 749.687 Q85.9094 744.181 83.7451 741.189 Q81.5808 738.197 77.5704 738.197 Q74.0692 738.197 72.0958 740.361 Q70.1225 742.494 69.1358 747.395 L68.3719 751.31 Q66.9396 758.504 63.8841 761.718 Q60.8285 764.933 55.3859 764.933 Q49.0838 764.933 45.4554 760.509 Q41.8269 756.053 41.8269 748.255 Q41.8269 744.913 42.4317 741.443 Q43.0364 737.974 44.2459 734.346 Z" fill="#000000" fill-rule="nonzero" fill-opacity="1" /><path clip-path="url(#clip300)" d="M54.5583 725.115 L54.5583 719.259 L82.3765 711.938 L54.5583 704.65 L54.5583 697.743 L82.3765 690.422 L54.5583 683.134 L54.5583 677.277 L90.2063 686.603 L90.2063 693.51 L60.9877 701.18 L90.2063 708.883 L90.2063 715.79 L54.5583 725.115 Z" fill="#000000" fill-rule="nonzero" fill-opacity="1" /><path clip-path="url(#clip300)" d="M70.9182 637.905 L73.7828 637.905 L73.7828 664.832 Q79.8302 664.45 83.013 661.204 Q86.1641 657.925 86.1641 652.101 Q86.1641 648.727 85.3365 645.576 Q84.509 642.393 82.8539 639.274 L88.3921 639.274 Q89.7289 642.425 90.4291 645.735 Q91.1293 649.045 91.1293 652.451 Q91.1293 660.981 86.1641 665.978 Q81.1988 670.943 72.7324 670.943 Q63.9796 670.943 58.8552 666.233 Q53.699 661.49 53.699 653.469 Q53.699 646.276 58.3459 642.107 Q62.9611 637.905 70.9182 637.905 M69.1995 643.762 Q64.3933 643.825 61.5288 646.467 Q58.6642 649.077 58.6642 653.406 Q58.6642 658.307 61.4333 661.267 Q64.2024 664.196 69.2313 664.641 L69.1995 643.762 Z" fill="#000000" fill-rule="nonzero" fill-opacity="1" /><path clip-path="url(#clip300)" d="M59.9692 604.835 L40.6811 604.835 L40.6811 598.979 L90.2063 598.979 L90.2063 604.835 L84.8591 604.835 Q88.0419 606.681 89.6015 609.514 Q91.1293 612.315 91.1293 616.262 Q91.1293 622.723 85.9731 626.797 Q80.8169 630.839 72.4141 630.839 Q64.0114 630.839 58.8552 626.797 Q53.699 622.723 53.699 616.262 Q53.699 612.315 55.2586 609.514 Q56.7863 606.681 59.9692 604.835 M72.4141 624.792 Q78.8753 624.792 82.5674 622.15 Q86.2277 619.477 86.2277 614.83 Q86.2277 610.183 82.5674 607.509 Q78.8753 604.835 72.4141 604.835 Q65.9529 604.835 62.2927 607.509 Q58.6006 610.183 58.6006 614.83 Q58.6006 619.477 62.2927 622.15 Q65.9529 624.792 72.4141 624.792 Z" fill="#000000" fill-rule="nonzero" fill-opacity="1" /><path clip-path="url(#clip300)" d="M70.9182 556.424 L73.7828 556.424 L73.7828 583.351 Q79.8302 582.969 83.013 579.723 Q86.1641 576.444 86.1641 570.62 Q86.1641 567.246 85.3365 564.095 Q84.509 560.912 82.8539 557.793 L88.3921 557.793 Q89.7289 560.944 90.4291 564.254 Q91.1293 567.564 91.1293 570.97 Q91.1293 579.5 86.1641 584.497 Q81.1988 589.462 72.7324 589.462 Q63.9796 589.462 58.8552 584.752 Q53.699 580.009 53.699 571.988 Q53.699 564.795 58.3459 560.626 Q62.9611 556.424 70.9182 556.424 M69.1995 562.281 Q64.3933 562.344 61.5288 564.986 Q58.6642 567.596 58.6642 571.925 Q58.6642 576.826 61.4333 579.786 Q64.2024 582.715 69.2313 583.16 L69.1995 562.281 Z" fill="#000000" fill-rule="nonzero" fill-opacity="1" /><path clip-path="url(#clip300)" d="M68.6902 517.18 L90.2063 517.18 L90.2063 523.036 L68.8812 523.036 Q63.8204 523.036 61.306 525.009 Q58.7915 526.983 58.7915 530.93 Q58.7915 535.672 61.8152 538.409 Q64.8389 541.146 70.0588 541.146 L90.2063 541.146 L90.2063 547.035 L54.5583 547.035 L54.5583 541.146 L60.0965 541.146 Q56.8818 539.046 55.2904 536.213 Q53.699 533.349 53.699 529.625 Q53.699 523.482 57.5184 520.331 Q61.306 517.18 68.6902 517.18 Z" fill="#000000" fill-rule="nonzero" fill-opacity="1" /><path clip-path="url(#clip300)" d="M82.1218 504.003 L82.1218 497.287 L87.5963 497.287 L97.7815 502.507 L97.7815 506.613 L87.5963 504.003 L82.1218 504.003 Z" fill="#000000" fill-rule="nonzero" fill-opacity="1" /><path clip-path="url(#clip300)" d="M44.4369 458.265 L54.5583 458.265 L54.5583 446.202 L59.1098 446.202 L59.1098 458.265 L78.4616 458.265 Q82.8221 458.265 84.0634 457.087 Q85.3047 455.878 85.3047 452.218 L85.3047 446.202 L90.2063 446.202 L90.2063 452.218 Q90.2063 458.997 87.6918 461.575 Q85.1455 464.153 78.4616 464.153 L59.1098 464.153 L59.1098 468.45 L54.5583 468.45 L54.5583 464.153 L44.4369 464.153 L44.4369 458.265 Z" fill="#000000" fill-rule="nonzero" fill-opacity="1" /><path clip-path="url(#clip300)" d="M54.5583 438.499 L54.5583 432.643 L90.2063 432.643 L90.2063 438.499 L54.5583 438.499 M40.6811 438.499 L40.6811 432.643 L48.0971 432.643 L48.0971 438.499 L40.6811 438.499 Z" fill="#000000" fill-rule="nonzero" fill-opacity="1" /><path clip-path="url(#clip300)" d="M61.4015 392.635 Q57.4547 390.438 55.5768 387.383 Q53.699 384.327 53.699 380.19 Q53.699 374.62 57.6139 371.596 Q61.4969 368.572 68.6902 368.572 L90.2063 368.572 L90.2063 374.46 L68.8812 374.46 Q63.7568 374.46 61.2741 376.275 Q58.7915 378.089 58.7915 381.813 Q58.7915 386.364 61.8152 389.006 Q64.8389 391.648 70.0588 391.648 L90.2063 391.648 L90.2063 397.536 L68.8812 397.536 Q63.7249 397.536 61.2741 399.35 Q58.7915 401.165 58.7915 404.952 Q58.7915 409.44 61.8471 412.082 Q64.8708 414.724 70.0588 414.724 L90.2063 414.724 L90.2063 420.612 L54.5583 420.612 L54.5583 414.724 L60.0965 414.724 Q56.8182 412.718 55.2586 409.917 Q53.699 407.117 53.699 403.265 Q53.699 399.382 55.6723 396.677 Q57.6457 393.94 61.4015 392.635 Z" fill="#000000" fill-rule="nonzero" fill-opacity="1" /><path clip-path="url(#clip300)" d="M70.9182 326.399 L73.7828 326.399 L73.7828 353.326 Q79.8302 352.944 83.013 349.698 Q86.1641 346.42 86.1641 340.595 Q86.1641 337.221 85.3365 334.07 Q84.509 330.887 82.8539 327.768 L88.3921 327.768 Q89.7289 330.919 90.4291 334.229 Q91.1293 337.539 91.1293 340.945 Q91.1293 349.475 86.1641 354.472 Q81.1988 359.437 72.7324 359.437 Q63.9796 359.437 58.8552 354.727 Q53.699 349.984 53.699 341.964 Q53.699 334.77 58.3459 330.601 Q62.9611 326.399 70.9182 326.399 M69.1995 332.256 Q64.3933 332.319 61.5288 334.961 Q58.6642 337.571 58.6642 341.9 Q58.6642 346.801 61.4333 349.762 Q64.2024 352.69 69.2313 353.135 L69.1995 332.256 Z" fill="#000000" fill-rule="nonzero" fill-opacity="1" /><path clip-path="url(#clip300)" d="M82.1218 315.291 L82.1218 308.575 L90.2063 308.575 L90.2063 315.291 L82.1218 315.291 M56.4999 315.291 L56.4999 308.575 L64.5843 308.575 L64.5843 315.291 L56.4999 315.291 Z" fill="#000000" fill-rule="nonzero" fill-opacity="1" /><path clip-path="url(#clip300)" d="M84.7954 292.884 L84.7954 282.381 L48.5427 282.381 L50.8344 293.807 L44.9779 293.807 L42.6863 282.444 L42.6863 276.015 L84.7954 276.015 L84.7954 265.511 L90.2063 265.511 L90.2063 292.884 L84.7954 292.884 Z" fill="#000000" fill-rule="nonzero" fill-opacity="1" /><path clip-path="url(#clip300)" d="M46.9195 238.775 Q46.9195 243.741 51.8211 246.255 Q56.6908 248.738 66.494 248.738 Q76.2654 248.738 81.167 246.255 Q86.0367 243.741 86.0367 238.775 Q86.0367 233.778 81.167 231.296 Q76.2654 228.781 66.494 228.781 Q56.6908 228.781 51.8211 231.296 Q46.9195 233.778 46.9195 238.775 M41.8269 238.775 Q41.8269 230.786 48.1608 226.585 Q54.4628 222.352 66.494 222.352 Q78.4934 222.352 84.8273 226.585 Q91.1293 230.786 91.1293 238.775 Q91.1293 246.764 84.8273 250.998 Q78.4934 255.199 66.494 255.199 Q54.4628 255.199 48.1608 250.998 Q41.8269 246.764 41.8269 238.775 Z" fill="#000000" fill-rule="nonzero" fill-opacity="1" /><path clip-path="url(#clip300)" d="M46.9195 197.303 Q46.9195 202.268 51.8211 204.783 Q56.6908 207.265 66.494 207.265 Q76.2654 207.265 81.167 204.783 Q86.0367 202.268 86.0367 197.303 Q86.0367 192.306 81.167 189.823 Q76.2654 187.309 66.494 187.309 Q56.6908 187.309 51.8211 189.823 Q46.9195 192.306 46.9195 197.303 M41.8269 197.303 Q41.8269 189.314 48.1608 185.113 Q54.4628 180.879 66.494 180.879 Q78.4934 180.879 84.8273 185.113 Q91.1293 189.314 91.1293 197.303 Q91.1293 205.292 84.8273 209.525 Q78.4934 213.726 66.494 213.726 Q54.4628 213.726 48.1608 209.525 Q41.8269 205.292 41.8269 197.303 Z" fill="#000000" fill-rule="nonzero" fill-opacity="1" /><polyline clip-path="url(#clip302)" style="stroke:#009af9; stroke-linecap:round; stroke-linejoin:round; stroke-width:4; stroke-opacity:1; fill:none" points="350.696,353.735 375.319,160.42 399.942,159.682 424.565,140.874 449.188,138.032 473.812,152.939 498.435,161.849 523.058,159.674 547.681,142.527 572.304,179.902 596.927,151.528 621.55,178.393 646.173,180.671 670.796,126.084 695.419,156.806 720.042,169.9 744.665,146.441 769.288,147.573 793.911,134.524 818.534,153.752 843.157,179.864 867.78,140.394 892.403,136.021 917.026,147.172 941.649,150.466 966.272,135.066 990.895,157.051 1015.52,162.58 1040.14,163.026 1064.76,157.476 1089.39,159.359 1114.01,156.65 1138.63,139.608 1163.26,131.523 1187.88,153.274 1212.5,160.252 1237.13,172.938 1261.75,145.038 1286.37,123.028 1311,145.556 1335.62,147.79 1360.24,155.457 1384.86,136.604 1409.49,141.493 1434.11,166.014 1458.73,143.672 1483.36,164.055 1507.98,143.213 1532.6,171.757 1557.23,145.374 1581.85,163.372 1606.47,149.088 1631.09,154.066 1655.72,158.379 1680.34,152.155 1704.96,125.887 1729.59,162.053 1754.21,178.071 1778.83,182.957 1803.46,137.294 1828.08,153.448 1852.7,140.3 1877.33,147.74 1901.95,145.092 1926.57,149.712 1951.19,152.571 1975.82,167.305 2000.44,165.769 2025.06,117.012 2049.69,118.943 2074.31,146.077 2098.93,143.688 2123.56,140.879 2148.18,134.793 2172.8,160.233 2197.42,123.107 2222.05,156.84 2246.67,158.563 2271.29,169.395 2295.92,137.223 2320.54,155.15 2345.16,150.33 2369.79,138.112 2394.41,125.913 2419.03,129.645 2443.66,176.283 2468.28,162.049 2492.9,120.616 2517.52,129.328 2542.15,166.727 2566.77,175.899 2591.39,131.295 2616.02,136.547 2640.64,151.528 2665.26,154.117 2689.89,110.236 2714.51,139.438 2739.13,136.656 2763.75,168.677 2788.38,140.225 2813,138.997 2837.62,160.173 2862.25,151.835 2886.87,165.406 2911.49,151.743 2936.12,117.847 2960.74,140.075 2985.36,150.31 3009.99,168.318 "/>
</svg>
