<?xml version="1.0" encoding="utf-8"?>
<svg xmlns="http://www.w3.org/2000/svg" xmlns:xlink="http://www.w3.org/1999/xlink" width="800" height="300" viewBox="0 0 3200 1200">
<defs>
  <clipPath id="clip130">
    <rect x="0" y="0" width="3200" height="1200"/>
  </clipPath>
</defs>
<path clip-path="url(#clip130)" d="
M0 1200 L3200 1200 L3200 0 L0 0  Z
  " fill="#ffffff" fill-rule="evenodd" fill-opacity="1"/>
<defs>
  <clipPath id="clip131">
    <rect x="640" y="0" width="2241" height="1200"/>
  </clipPath>
</defs>
<path clip-path="url(#clip130)" d="
M270.918 1000.1 L3089.76 1000.1 L3089.76 110.236 L270.918 110.236  Z
  " fill="#ffffff" fill-rule="evenodd" fill-opacity="1"/>
<defs>
  <clipPath id="clip132">
    <rect x="270" y="110" width="2820" height="891"/>
  </clipPath>
</defs>
<polyline clip-path="url(#clip132)" style="stroke:#000000; stroke-linecap:round; stroke-linejoin:round; stroke-width:2; stroke-opacity:0.1; fill:none" points="
  341.62,1000.1 341.62,110.236 
  "/>
<polyline clip-path="url(#clip132)" style="stroke:#000000; stroke-linecap:round; stroke-linejoin:round; stroke-width:2; stroke-opacity:0.1; fill:none" points="
  1249.23,1000.1 1249.23,110.236 
  "/>
<polyline clip-path="url(#clip132)" style="stroke:#000000; stroke-linecap:round; stroke-linejoin:round; stroke-width:2; stroke-opacity:0.1; fill:none" points="
  2156.83,1000.1 2156.83,110.236 
  "/>
<polyline clip-path="url(#clip132)" style="stroke:#000000; stroke-linecap:round; stroke-linejoin:round; stroke-width:2; stroke-opacity:0.1; fill:none" points="
  3064.44,1000.1 3064.44,110.236 
  "/>
<polyline clip-path="url(#clip130)" style="stroke:#000000; stroke-linecap:round; stroke-linejoin:round; stroke-width:4; stroke-opacity:1; fill:none" points="
  270.918,1000.1 3089.76,1000.1 
  "/>
<polyline clip-path="url(#clip130)" style="stroke:#000000; stroke-linecap:round; stroke-linejoin:round; stroke-width:4; stroke-opacity:1; fill:none" points="
  341.62,1000.1 341.62,981.2 
  "/>
<polyline clip-path="url(#clip130)" style="stroke:#000000; stroke-linecap:round; stroke-linejoin:round; stroke-width:4; stroke-opacity:1; fill:none" points="
  1249.23,1000.1 1249.23,981.2 
  "/>
<polyline clip-path="url(#clip130)" style="stroke:#000000; stroke-linecap:round; stroke-linejoin:round; stroke-width:4; stroke-opacity:1; fill:none" points="
  2156.83,1000.1 2156.83,981.2 
  "/>
<polyline clip-path="url(#clip130)" style="stroke:#000000; stroke-linecap:round; stroke-linejoin:round; stroke-width:4; stroke-opacity:1; fill:none" points="
  3064.44,1000.1 3064.44,981.2 
  "/>
<path clip-path="url(#clip130)" d="M341.62 1037.42 Q338.009 1037.42 336.18 1040.98 Q334.375 1044.52 334.375 1051.65 Q334.375 1058.76 336.18 1062.32 Q338.009 1065.87 341.62 1065.87 Q345.254 1065.87 347.06 1062.32 Q348.889 1058.76 348.889 1051.65 Q348.889 1044.52 347.06 1040.98 Q345.254 1037.42 341.62 1037.42 M341.62 1033.71 Q347.43 1033.71 350.486 1038.32 Q353.565 1042.9 353.565 1051.65 Q353.565 1060.38 350.486 1064.99 Q347.43 1069.57 341.62 1069.57 Q335.81 1069.57 332.731 1064.99 Q329.676 1060.38 329.676 1051.65 Q329.676 1042.9 332.731 1038.32 Q335.81 1033.71 341.62 1033.71 Z" fill="#000000" fill-rule="evenodd" fill-opacity="1" /><path clip-path="url(#clip130)" d="M1208.83 1064.96 L1216.47 1064.96 L1216.47 1038.6 L1208.16 1040.26 L1208.16 1036 L1216.43 1034.34 L1221.1 1034.34 L1221.1 1064.96 L1228.74 1064.96 L1228.74 1068.9 L1208.83 1068.9 L1208.83 1064.96 Z" fill="#000000" fill-rule="evenodd" fill-opacity="1" /><path clip-path="url(#clip130)" d="M1248.19 1037.42 Q1244.57 1037.42 1242.75 1040.98 Q1240.94 1044.52 1240.94 1051.65 Q1240.94 1058.76 1242.75 1062.32 Q1244.57 1065.87 1248.19 1065.87 Q1251.82 1065.87 1253.63 1062.32 Q1255.45 1058.76 1255.45 1051.65 Q1255.45 1044.52 1253.63 1040.98 Q1251.82 1037.42 1248.19 1037.42 M1248.19 1033.71 Q1254 1033.71 1257.05 1038.32 Q1260.13 1042.9 1260.13 1051.65 Q1260.13 1060.38 1257.05 1064.99 Q1254 1069.57 1248.19 1069.57 Q1242.38 1069.57 1239.3 1064.99 Q1236.24 1060.38 1236.24 1051.65 Q1236.24 1042.9 1239.3 1038.32 Q1242.38 1033.71 1248.19 1033.71 Z" fill="#000000" fill-rule="evenodd" fill-opacity="1" /><path clip-path="url(#clip130)" d="M1278.35 1037.42 Q1274.74 1037.42 1272.91 1040.98 Q1271.1 1044.52 1271.1 1051.65 Q1271.1 1058.76 1272.91 1062.32 Q1274.74 1065.87 1278.35 1065.87 Q1281.98 1065.87 1283.79 1062.32 Q1285.62 1058.76 1285.62 1051.65 Q1285.62 1044.52 1283.79 1040.98 Q1281.98 1037.42 1278.35 1037.42 M1278.35 1033.71 Q1284.16 1033.71 1287.21 1038.32 Q1290.29 1042.9 1290.29 1051.65 Q1290.29 1060.38 1287.21 1064.99 Q1284.16 1069.57 1278.35 1069.57 Q1272.54 1069.57 1269.46 1064.99 Q1266.4 1060.38 1266.4 1051.65 Q1266.4 1042.9 1269.46 1038.32 Q1272.54 1033.71 1278.35 1033.71 Z" fill="#000000" fill-rule="evenodd" fill-opacity="1" /><path clip-path="url(#clip130)" d="M2120.53 1064.96 L2136.85 1064.96 L2136.85 1068.9 L2114.9 1068.9 L2114.9 1064.96 Q2117.56 1062.21 2122.15 1057.58 Q2126.75 1052.93 2127.93 1051.58 Q2130.18 1049.06 2131.06 1047.32 Q2131.96 1045.56 2131.96 1043.87 Q2131.96 1041.12 2130.02 1039.38 Q2128.1 1037.65 2124.99 1037.65 Q2122.8 1037.65 2120.34 1038.41 Q2117.91 1039.18 2115.13 1040.73 L2115.13 1036 Q2117.96 1034.87 2120.41 1034.29 Q2122.86 1033.71 2124.9 1033.71 Q2130.27 1033.71 2133.47 1036.4 Q2136.66 1039.08 2136.66 1043.57 Q2136.66 1045.7 2135.85 1047.62 Q2135.06 1049.52 2132.96 1052.12 Q2132.38 1052.79 2129.28 1056 Q2126.17 1059.2 2120.53 1064.96 Z" fill="#000000" fill-rule="evenodd" fill-opacity="1" /><path clip-path="url(#clip130)" d="M2156.66 1037.42 Q2153.05 1037.42 2151.22 1040.98 Q2149.42 1044.52 2149.42 1051.65 Q2149.42 1058.76 2151.22 1062.32 Q2153.05 1065.87 2156.66 1065.87 Q2160.3 1065.87 2162.1 1062.32 Q2163.93 1058.76 2163.93 1051.65 Q2163.93 1044.52 2162.1 1040.98 Q2160.3 1037.42 2156.66 1037.42 M2156.66 1033.71 Q2162.47 1033.71 2165.53 1038.32 Q2168.61 1042.9 2168.61 1051.65 Q2168.61 1060.38 2165.53 1064.99 Q2162.47 1069.57 2156.66 1069.57 Q2150.85 1069.57 2147.77 1064.99 Q2144.72 1060.38 2144.72 1051.65 Q2144.72 1042.9 2147.77 1038.32 Q2150.85 1033.71 2156.66 1033.71 Z" fill="#000000" fill-rule="evenodd" fill-opacity="1" /><path clip-path="url(#clip130)" d="M2186.82 1037.42 Q2183.21 1037.42 2181.38 1040.98 Q2179.58 1044.52 2179.58 1051.65 Q2179.58 1058.76 2181.38 1062.32 Q2183.21 1065.87 2186.82 1065.87 Q2190.46 1065.87 2192.26 1062.32 Q2194.09 1058.76 2194.09 1051.65 Q2194.09 1044.52 2192.26 1040.98 Q2190.46 1037.42 2186.82 1037.42 M2186.82 1033.71 Q2192.63 1033.71 2195.69 1038.32 Q2198.77 1042.9 2198.77 1051.65 Q2198.77 1060.38 2195.69 1064.99 Q2192.63 1069.57 2186.82 1069.57 Q2181.01 1069.57 2177.93 1064.99 Q2174.88 1060.38 2174.88 1051.65 Q2174.88 1042.9 2177.93 1038.32 Q2181.01 1033.71 2186.82 1033.71 Z" fill="#000000" fill-rule="evenodd" fill-opacity="1" /><path clip-path="url(#clip130)" d="M3038.2 1050.26 Q3041.56 1050.98 3043.43 1053.25 Q3045.33 1055.52 3045.33 1058.85 Q3045.33 1063.97 3041.81 1066.77 Q3038.3 1069.57 3031.81 1069.57 Q3029.64 1069.57 3027.32 1069.13 Q3025.03 1068.71 3022.58 1067.86 L3022.58 1063.34 Q3024.52 1064.48 3026.84 1065.06 Q3029.15 1065.63 3031.68 1065.63 Q3036.07 1065.63 3038.37 1063.9 Q3040.68 1062.16 3040.68 1058.85 Q3040.68 1055.8 3038.53 1054.08 Q3036.4 1052.35 3032.58 1052.35 L3028.55 1052.35 L3028.55 1048.5 L3032.76 1048.5 Q3036.21 1048.5 3038.04 1047.14 Q3039.87 1045.75 3039.87 1043.16 Q3039.87 1040.5 3037.97 1039.08 Q3036.1 1037.65 3032.58 1037.65 Q3030.66 1037.65 3028.46 1038.06 Q3026.26 1038.48 3023.62 1039.36 L3023.62 1035.19 Q3026.28 1034.45 3028.6 1034.08 Q3030.93 1033.71 3032.99 1033.71 Q3038.32 1033.71 3041.42 1036.14 Q3044.52 1038.55 3044.52 1042.67 Q3044.52 1045.54 3042.88 1047.53 Q3041.24 1049.5 3038.2 1050.26 Z" fill="#000000" fill-rule="evenodd" fill-opacity="1" /><path clip-path="url(#clip130)" d="M3064.2 1037.42 Q3060.59 1037.42 3058.76 1040.98 Q3056.95 1044.52 3056.95 1051.65 Q3056.95 1058.76 3058.76 1062.32 Q3060.59 1065.87 3064.2 1065.87 Q3067.83 1065.87 3069.64 1062.32 Q3071.47 1058.76 3071.47 1051.65 Q3071.47 1044.52 3069.64 1040.98 Q3067.83 1037.42 3064.2 1037.42 M3064.2 1033.71 Q3070.01 1033.71 3073.06 1038.32 Q3076.14 1042.9 3076.14 1051.65 Q3076.14 1060.38 3073.06 1064.99 Q3070.01 1069.57 3064.2 1069.57 Q3058.39 1069.57 3055.31 1064.99 Q3052.25 1060.38 3052.25 1051.65 Q3052.25 1042.9 3055.31 1038.32 Q3058.39 1033.71 3064.2 1033.71 Z" fill="#000000" fill-rule="evenodd" fill-opacity="1" /><path clip-path="url(#clip130)" d="M3094.36 1037.42 Q3090.75 1037.42 3088.92 1040.98 Q3087.12 1044.52 3087.12 1051.65 Q3087.12 1058.76 3088.92 1062.32 Q3090.75 1065.87 3094.36 1065.87 Q3097.99 1065.87 3099.8 1062.32 Q3101.63 1058.76 3101.63 1051.65 Q3101.63 1044.52 3099.8 1040.98 Q3097.99 1037.42 3094.36 1037.42 M3094.36 1033.71 Q3100.17 1033.71 3103.23 1038.32 Q3106.3 1042.9 3106.3 1051.65 Q3106.3 1060.38 3103.23 1064.99 Q3100.17 1069.57 3094.36 1069.57 Q3088.55 1069.57 3085.47 1064.99 Q3082.42 1060.38 3082.42 1051.65 Q3082.42 1042.9 3085.47 1038.32 Q3088.55 1033.71 3094.36 1033.71 Z" fill="#000000" fill-rule="evenodd" fill-opacity="1" /><path clip-path="url(#clip130)" d="M1556.64 1109.44 L1563.07 1109.44 L1563.07 1151.55 L1586.21 1151.55 L1586.21 1156.96 L1556.64 1156.96 L1556.64 1109.44 Z" fill="#000000" fill-rule="evenodd" fill-opacity="1" /><path clip-path="url(#clip130)" d="M1592.7 1121.31 L1598.56 1121.31 L1598.56 1156.96 L1592.7 1156.96 L1592.7 1121.31 M1592.7 1107.44 L1598.56 1107.44 L1598.56 1114.85 L1592.7 1114.85 L1592.7 1107.44 Z" fill="#000000" fill-rule="evenodd" fill-opacity="1" /><path clip-path="url(#clip130)" d="M1640.44 1135.45 L1640.44 1156.96 L1634.59 1156.96 L1634.59 1135.64 Q1634.59 1130.58 1632.61 1128.06 Q1630.64 1125.55 1626.69 1125.55 Q1621.95 1125.55 1619.21 1128.57 Q1616.48 1131.59 1616.48 1136.81 L1616.48 1156.96 L1610.59 1156.96 L1610.59 1121.31 L1616.48 1121.31 L1616.48 1126.85 Q1618.58 1123.64 1621.41 1122.05 Q1624.27 1120.45 1628 1120.45 Q1634.14 1120.45 1637.29 1124.27 Q1640.44 1128.06 1640.44 1135.45 Z" fill="#000000" fill-rule="evenodd" fill-opacity="1" /><path clip-path="url(#clip130)" d="M1682.62 1137.67 L1682.62 1140.54 L1655.69 1140.54 Q1656.07 1146.59 1659.32 1149.77 Q1662.6 1152.92 1668.42 1152.92 Q1671.79 1152.92 1674.95 1152.09 Q1678.13 1151.26 1681.25 1149.61 L1681.25 1155.15 Q1678.1 1156.48 1674.79 1157.18 Q1671.48 1157.88 1668.07 1157.88 Q1659.54 1157.88 1654.54 1152.92 Q1649.58 1147.95 1649.58 1139.49 Q1649.58 1130.74 1654.29 1125.61 Q1659.03 1120.45 1667.05 1120.45 Q1674.25 1120.45 1678.42 1125.1 Q1682.62 1129.72 1682.62 1137.67 M1676.76 1135.95 Q1676.7 1131.15 1674.05 1128.28 Q1671.44 1125.42 1667.12 1125.42 Q1662.21 1125.42 1659.25 1128.19 Q1656.33 1130.96 1655.88 1135.99 L1676.76 1135.95 Z" fill="#000000" fill-rule="evenodd" fill-opacity="1" /><path clip-path="url(#clip130)" d="M1708.43 1139.04 Q1701.33 1139.04 1698.59 1140.67 Q1695.86 1142.29 1695.86 1146.2 Q1695.86 1149.32 1697.89 1151.17 Q1699.96 1152.98 1703.5 1152.98 Q1708.37 1152.98 1711.29 1149.55 Q1714.25 1146.08 1714.25 1140.35 L1714.25 1139.04 L1708.43 1139.04 M1720.11 1136.62 L1720.11 1156.96 L1714.25 1156.96 L1714.25 1151.55 Q1712.25 1154.8 1709.26 1156.36 Q1706.27 1157.88 1701.94 1157.88 Q1696.46 1157.88 1693.22 1154.83 Q1690 1151.74 1690 1146.59 Q1690 1140.57 1694.01 1137.51 Q1698.05 1134.46 1706.04 1134.46 L1714.25 1134.46 L1714.25 1133.89 Q1714.25 1129.84 1711.58 1127.65 Q1708.94 1125.42 1704.13 1125.42 Q1701.08 1125.42 1698.18 1126.15 Q1695.28 1126.88 1692.61 1128.35 L1692.61 1122.94 Q1695.83 1121.7 1698.85 1121.09 Q1701.87 1120.45 1704.74 1120.45 Q1712.47 1120.45 1716.29 1124.46 Q1720.11 1128.48 1720.11 1136.62 Z" fill="#000000" fill-rule="evenodd" fill-opacity="1" /><path clip-path="url(#clip130)" d="M1755.63 1138.72 Q1755.63 1132.36 1752.99 1128.86 Q1750.38 1125.36 1745.64 1125.36 Q1740.93 1125.36 1738.28 1128.86 Q1735.67 1132.36 1735.67 1138.72 Q1735.67 1145.06 1738.28 1148.56 Q1740.93 1152.06 1745.64 1152.06 Q1750.38 1152.06 1752.99 1148.56 Q1755.63 1145.06 1755.63 1138.72 M1761.49 1152.54 Q1761.49 1161.64 1757.45 1166.06 Q1753.4 1170.52 1745.06 1170.52 Q1741.98 1170.52 1739.24 1170.04 Q1736.5 1169.6 1733.92 1168.64 L1733.92 1162.95 Q1736.5 1164.35 1739.02 1165.01 Q1741.53 1165.68 1744.14 1165.68 Q1749.9 1165.68 1752.77 1162.66 Q1755.63 1159.67 1755.63 1153.59 L1755.63 1150.69 Q1753.82 1153.84 1750.98 1155.4 Q1748.15 1156.96 1744.2 1156.96 Q1737.65 1156.96 1733.64 1151.96 Q1729.63 1146.97 1729.63 1138.72 Q1729.63 1130.45 1733.64 1125.45 Q1737.65 1120.45 1744.2 1120.45 Q1748.15 1120.45 1750.98 1122.01 Q1753.82 1123.57 1755.63 1126.72 L1755.63 1121.31 L1761.49 1121.31 L1761.49 1152.54 Z" fill="#000000" fill-rule="evenodd" fill-opacity="1" /><path clip-path="url(#clip130)" d="M1804.04 1137.67 L1804.04 1140.54 L1777.12 1140.54 Q1777.5 1146.59 1780.74 1149.77 Q1784.02 1152.92 1789.85 1152.92 Q1793.22 1152.92 1796.37 1152.09 Q1799.55 1151.26 1802.67 1149.61 L1802.67 1155.15 Q1799.52 1156.48 1796.21 1157.18 Q1792.9 1157.88 1789.5 1157.88 Q1780.97 1157.88 1775.97 1152.92 Q1771 1147.95 1771 1139.49 Q1771 1130.74 1775.71 1125.61 Q1780.46 1120.45 1788.48 1120.45 Q1795.67 1120.45 1799.84 1125.1 Q1804.04 1129.72 1804.04 1137.67 M1798.19 1135.95 Q1798.12 1131.15 1795.48 1128.28 Q1792.87 1125.42 1788.54 1125.42 Q1783.64 1125.42 1780.68 1128.19 Q1777.75 1130.96 1777.31 1135.99 L1798.19 1135.95 Z" fill="#000000" fill-rule="evenodd" fill-opacity="1" /><polyline clip-path="url(#clip132)" style="stroke:#000000; stroke-linecap:round; stroke-linejoin:round; stroke-width:2; stroke-opacity:0.1; fill:none" points="
  270.918,1000.1 3089.76,1000.1 
  "/>
<polyline clip-path="url(#clip132)" style="stroke:#000000; stroke-linecap:round; stroke-linejoin:round; stroke-width:2; stroke-opacity:0.1; fill:none" points="
  270.918,668.586 3089.76,668.586 
  "/>
<polyline clip-path="url(#clip132)" style="stroke:#000000; stroke-linecap:round; stroke-linejoin:round; stroke-width:2; stroke-opacity:0.1; fill:none" points="
  270.918,337.074 3089.76,337.074 
  "/>
<polyline clip-path="url(#clip130)" style="stroke:#000000; stroke-linecap:round; stroke-linejoin:round; stroke-width:4; stroke-opacity:1; fill:none" points="
  270.918,1000.1 270.918,110.236 
  "/>
<polyline clip-path="url(#clip130)" style="stroke:#000000; stroke-linecap:round; stroke-linejoin:round; stroke-width:4; stroke-opacity:1; fill:none" points="
  270.918,1000.1 289.815,1000.1 
  "/>
<polyline clip-path="url(#clip130)" style="stroke:#000000; stroke-linecap:round; stroke-linejoin:round; stroke-width:4; stroke-opacity:1; fill:none" points="
  270.918,668.586 289.815,668.586 
  "/>
<polyline clip-path="url(#clip130)" style="stroke:#000000; stroke-linecap:round; stroke-linejoin:round; stroke-width:4; stroke-opacity:1; fill:none" points="
  270.918,337.074 289.815,337.074 
  "/>
<path clip-path="url(#clip130)" d="M154.902 1019.89 L162.54 1019.89 L162.54 993.525 L154.23 995.191 L154.23 990.932 L162.494 989.265 L167.17 989.265 L167.17 1019.89 L174.809 1019.89 L174.809 1023.83 L154.902 1023.83 L154.902 1019.89 Z" fill="#000000" fill-rule="evenodd" fill-opacity="1" /><path clip-path="url(#clip130)" d="M194.253 992.344 Q190.642 992.344 188.813 995.909 Q187.008 999.45 187.008 1006.58 Q187.008 1013.69 188.813 1017.25 Q190.642 1020.79 194.253 1020.79 Q197.887 1020.79 199.693 1017.25 Q201.522 1013.69 201.522 1006.58 Q201.522 999.45 199.693 995.909 Q197.887 992.344 194.253 992.344 M194.253 988.64 Q200.063 988.64 203.119 993.247 Q206.198 997.83 206.198 1006.58 Q206.198 1015.31 203.119 1019.91 Q200.063 1024.5 194.253 1024.5 Q188.443 1024.5 185.364 1019.91 Q182.309 1015.31 182.309 1006.58 Q182.309 997.83 185.364 993.247 Q188.443 988.64 194.253 988.64 Z" fill="#000000" fill-rule="evenodd" fill-opacity="1" /><path clip-path="url(#clip130)" d="M206.743 993.218 L212.95 993.218 L212.95 971.796 L206.198 973.15 L206.198 969.689 L212.912 968.335 L216.711 968.335 L216.711 993.218 L222.918 993.218 L222.918 996.415 L206.743 996.415 L206.743 993.218 Z" fill="#000000" fill-rule="evenodd" fill-opacity="1" /><path clip-path="url(#clip130)" d="M153.792 688.378 L161.431 688.378 L161.431 662.013 L153.121 663.679 L153.121 659.42 L161.384 657.753 L166.06 657.753 L166.06 688.378 L173.699 688.378 L173.699 692.313 L153.792 692.313 L153.792 688.378 Z" fill="#000000" fill-rule="evenodd" fill-opacity="1" /><path clip-path="url(#clip130)" d="M193.143 660.832 Q189.532 660.832 187.704 664.397 Q185.898 667.939 185.898 675.068 Q185.898 682.175 187.704 685.739 Q189.532 689.281 193.143 689.281 Q196.778 689.281 198.583 685.739 Q200.412 682.175 200.412 675.068 Q200.412 667.939 198.583 664.397 Q196.778 660.832 193.143 660.832 M193.143 657.128 Q198.954 657.128 202.009 661.735 Q205.088 666.318 205.088 675.068 Q205.088 683.795 202.009 688.401 Q198.954 692.985 193.143 692.985 Q187.333 692.985 184.255 688.401 Q181.199 683.795 181.199 675.068 Q181.199 666.318 184.255 661.735 Q187.333 657.128 193.143 657.128 Z" fill="#000000" fill-rule="evenodd" fill-opacity="1" /><path clip-path="url(#clip130)" d="M209.658 661.706 L222.918 661.706 L222.918 664.903 L205.088 664.903 L205.088 661.706 Q207.251 659.468 210.975 655.706 Q214.717 651.926 215.677 650.835 Q217.501 648.785 218.216 647.374 Q218.949 645.945 218.949 644.572 Q218.949 642.334 217.369 640.923 Q215.808 639.513 213.288 639.513 Q211.501 639.513 209.508 640.133 Q207.533 640.754 205.276 642.014 L205.276 638.177 Q207.57 637.256 209.564 636.785 Q211.558 636.315 213.213 636.315 Q217.576 636.315 220.172 638.497 Q222.767 640.679 222.767 644.327 Q222.767 646.058 222.109 647.619 Q221.469 649.161 219.758 651.267 Q219.288 651.813 216.767 654.427 Q214.247 657.023 209.658 661.706 Z" fill="#000000" fill-rule="evenodd" fill-opacity="1" /><path clip-path="url(#clip130)" d="M153.134 356.866 L160.772 356.866 L160.772 330.501 L152.462 332.167 L152.462 327.908 L160.726 326.242 L165.402 326.242 L165.402 356.866 L173.041 356.866 L173.041 360.802 L153.134 360.802 L153.134 356.866 Z" fill="#000000" fill-rule="evenodd" fill-opacity="1" /><path clip-path="url(#clip130)" d="M192.485 329.32 Q188.874 329.32 187.045 332.885 Q185.24 336.427 185.24 343.556 Q185.24 350.663 187.045 354.228 Q188.874 357.769 192.485 357.769 Q196.119 357.769 197.925 354.228 Q199.754 350.663 199.754 343.556 Q199.754 336.427 197.925 332.885 Q196.119 329.32 192.485 329.32 M192.485 325.617 Q198.295 325.617 201.351 330.223 Q204.43 334.806 204.43 343.556 Q204.43 352.283 201.351 356.89 Q198.295 361.473 192.485 361.473 Q186.675 361.473 183.596 356.89 Q180.541 352.283 180.541 343.556 Q180.541 334.806 183.596 330.223 Q186.675 325.617 192.485 325.617 Z" fill="#000000" fill-rule="evenodd" fill-opacity="1" /><path clip-path="url(#clip130)" d="M217.125 318.251 Q219.852 318.834 221.375 320.677 Q222.918 322.52 222.918 325.229 Q222.918 329.385 220.059 331.661 Q217.2 333.937 211.934 333.937 Q210.166 333.937 208.285 333.579 Q206.423 333.241 204.43 332.545 L204.43 328.877 Q206.009 329.799 207.89 330.269 Q209.771 330.739 211.821 330.739 Q215.395 330.739 217.256 329.329 Q219.137 327.918 219.137 325.229 Q219.137 322.746 217.388 321.354 Q215.658 319.944 212.555 319.944 L209.282 319.944 L209.282 316.822 L212.705 316.822 Q215.507 316.822 216.993 315.712 Q218.479 314.583 218.479 312.477 Q218.479 310.314 216.937 309.167 Q215.413 308.001 212.555 308.001 Q210.994 308.001 209.207 308.339 Q207.42 308.678 205.276 309.392 L205.276 306.007 Q207.439 305.405 209.32 305.104 Q211.219 304.803 212.893 304.803 Q217.219 304.803 219.739 306.778 Q222.259 308.734 222.259 312.082 Q222.259 314.414 220.924 316.032 Q219.589 317.63 217.125 318.251 Z" fill="#000000" fill-rule="evenodd" fill-opacity="1" /><path clip-path="url(#clip130)" d="M42.6863 912.235 L42.6863 882.189 L48.0971 882.189 L48.0971 905.806 L62.1653 905.806 L62.1653 883.176 L67.5762 883.176 L67.5762 905.806 L84.7954 905.806 L84.7954 881.616 L90.2063 881.616 L90.2063 912.235 L42.6863 912.235 Z" fill="#000000" fill-rule="evenodd" fill-opacity="1" /><path clip-path="url(#clip130)" d="M44.2459 842.563 L50.5161 842.563 Q48.7655 846.223 47.9062 849.47 Q47.0468 852.716 47.0468 855.74 Q47.0468 860.991 49.0838 863.856 Q51.1208 866.689 54.8766 866.689 Q58.0276 866.689 59.6509 864.811 Q61.2423 862.901 62.229 857.618 L63.0247 853.735 Q64.3933 846.541 67.8627 843.136 Q71.3001 839.698 77.0929 839.698 Q83.9997 839.698 87.5645 844.345 Q91.1293 848.96 91.1293 857.904 Q91.1293 861.278 90.3654 865.097 Q89.6015 868.885 88.1056 872.959 L81.4853 872.959 Q83.6814 869.044 84.7954 865.288 Q85.9094 861.533 85.9094 857.904 Q85.9094 852.398 83.7451 849.406 Q81.5808 846.414 77.5704 846.414 Q74.0692 846.414 72.0958 848.578 Q70.1225 850.711 69.1358 855.612 L68.3719 859.527 Q66.9396 866.721 63.8841 869.935 Q60.8285 873.15 55.3859 873.15 Q49.0838 873.15 45.4554 868.726 Q41.8269 864.27 41.8269 856.472 Q41.8269 853.13 42.4317 849.66 Q43.0364 846.191 44.2459 842.563 Z" fill="#000000" fill-rule="evenodd" fill-opacity="1" /><path clip-path="url(#clip130)" d="M44.2459 801.186 L50.5161 801.186 Q48.7655 804.846 47.9062 808.092 Q47.0468 811.339 47.0468 814.363 Q47.0468 819.614 49.0838 822.479 Q51.1208 825.312 54.8766 825.312 Q58.0276 825.312 59.6509 823.434 Q61.2423 821.524 62.229 816.241 L63.0247 812.357 Q64.3933 805.164 67.8627 801.759 Q71.3001 798.321 77.0929 798.321 Q83.9997 798.321 87.5645 802.968 Q91.1293 807.583 91.1293 816.527 Q91.1293 819.901 90.3654 823.72 Q89.6015 827.508 88.1056 831.582 L81.4853 831.582 Q83.6814 827.667 84.7954 823.911 Q85.9094 820.155 85.9094 816.527 Q85.9094 811.021 83.7451 808.029 Q81.5808 805.037 77.5704 805.037 Q74.0692 805.037 72.0958 807.201 Q70.1225 809.334 69.1358 814.235 L68.3719 818.15 Q66.9396 825.343 63.8841 828.558 Q60.8285 831.773 55.3859 831.773 Q49.0838 831.773 45.4554 827.349 Q41.8269 822.893 41.8269 815.095 Q41.8269 811.753 42.4317 808.283 Q43.0364 804.814 44.2459 801.186 Z" fill="#000000" fill-rule="evenodd" fill-opacity="1" /><path clip-path="url(#clip130)" d="M82.1218 787.054 L82.1218 780.338 L90.2063 780.338 L90.2063 787.054 L82.1218 787.054 M56.4999 787.054 L56.4999 780.338 L64.5843 780.338 L64.5843 787.054 L56.4999 787.054 Z" fill="#000000" fill-rule="evenodd" fill-opacity="1" /><path clip-path="url(#clip130)" d="M42.6863 745.613 L42.6863 715.567 L48.0971 715.567 L48.0971 739.184 L62.1653 739.184 L62.1653 716.554 L67.5762 716.554 L67.5762 739.184 L84.7954 739.184 L84.7954 714.994 L90.2063 714.994 L90.2063 745.613 L42.6863 745.613 Z" fill="#000000" fill-rule="evenodd" fill-opacity="1" /><path clip-path="url(#clip130)" d="M68.6902 675.049 L90.2063 675.049 L90.2063 680.906 L68.8812 680.906 Q63.8204 680.906 61.306 682.879 Q58.7915 684.852 58.7915 688.799 Q58.7915 693.542 61.8152 696.279 Q64.8389 699.016 70.0588 699.016 L90.2063 699.016 L90.2063 704.904 L54.5583 704.904 L54.5583 699.016 L60.0965 699.016 Q56.8818 696.915 55.2904 694.083 Q53.699 691.218 53.699 687.494 Q53.699 681.351 57.5184 678.2 Q61.306 675.049 68.6902 675.049 Z" fill="#000000" fill-rule="evenodd" fill-opacity="1" /><path clip-path="url(#clip130)" d="M71.9685 639.91 Q65.6028 639.91 62.1017 642.552 Q58.6006 645.162 58.6006 649.905 Q58.6006 654.615 62.1017 657.257 Q65.6028 659.867 71.9685 659.867 Q78.3024 659.867 81.8036 657.257 Q85.3047 654.615 85.3047 649.905 Q85.3047 645.162 81.8036 642.552 Q78.3024 639.91 71.9685 639.91 M85.7821 634.054 Q94.8851 634.054 99.3092 638.096 Q103.765 642.138 103.765 650.478 Q103.765 653.565 103.288 656.302 Q102.842 659.039 101.887 661.617 L96.19 661.617 Q97.5905 659.039 98.2589 656.525 Q98.9273 654.01 98.9273 651.401 Q98.9273 645.64 95.9036 642.775 Q92.9117 639.91 86.8325 639.91 L83.9361 639.91 Q87.0871 641.725 88.6467 644.557 Q90.2063 647.39 90.2063 651.337 Q90.2063 657.894 85.2092 661.904 Q80.2121 665.914 71.9685 665.914 Q63.6931 665.914 58.696 661.904 Q53.699 657.894 53.699 651.337 Q53.699 647.39 55.2586 644.557 Q56.8182 641.725 59.9692 639.91 L54.5583 639.91 L54.5583 634.054 L85.7821 634.054 Z" fill="#000000" fill-rule="evenodd" fill-opacity="1" /><path clip-path="url(#clip130)" d="M40.6811 621.991 L40.6811 616.135 L90.2063 616.135 L90.2063 621.991 L40.6811 621.991 Z" fill="#000000" fill-rule="evenodd" fill-opacity="1" /><path clip-path="url(#clip130)" d="M72.2868 587.68 Q72.2868 594.778 73.9101 597.515 Q75.5333 600.252 79.4482 600.252 Q82.5674 600.252 84.4135 598.215 Q86.2277 596.146 86.2277 592.613 Q86.2277 587.743 82.7902 584.815 Q79.3209 581.855 73.5918 581.855 L72.2868 581.855 L72.2868 587.68 M69.8679 575.999 L90.2063 575.999 L90.2063 581.855 L84.7954 581.855 Q88.0419 583.86 89.6015 586.852 Q91.1293 589.844 91.1293 594.173 Q91.1293 599.647 88.0738 602.894 Q84.9864 606.109 79.8302 606.109 Q73.8146 606.109 70.759 602.098 Q67.7035 598.056 67.7035 590.067 L67.7035 581.855 L67.1306 581.855 Q63.0884 581.855 60.8922 584.529 Q58.6642 587.171 58.6642 591.977 Q58.6642 595.032 59.3963 597.929 Q60.1283 600.825 61.5924 603.499 L56.1816 603.499 Q54.9403 600.284 54.3355 597.26 Q53.699 594.236 53.699 591.372 Q53.699 583.638 57.7094 579.818 Q61.7197 575.999 69.8679 575.999 Z" fill="#000000" fill-rule="evenodd" fill-opacity="1" /><path clip-path="url(#clip130)" d="M68.6902 534.303 L90.2063 534.303 L90.2063 540.16 L68.8812 540.16 Q63.8204 540.16 61.306 542.133 Q58.7915 544.107 58.7915 548.053 Q58.7915 552.796 61.8152 555.533 Q64.8389 558.27 70.0588 558.27 L90.2063 558.27 L90.2063 564.159 L54.5583 564.159 L54.5583 558.27 L60.0965 558.27 Q56.8818 556.17 55.2904 553.337 Q53.699 550.472 53.699 546.748 Q53.699 540.605 57.5184 537.454 Q61.306 534.303 68.6902 534.303 Z" fill="#000000" fill-rule="evenodd" fill-opacity="1" /><path clip-path="url(#clip130)" d="M59.9692 499.165 L40.6811 499.165 L40.6811 493.308 L90.2063 493.308 L90.2063 499.165 L84.8591 499.165 Q88.0419 501.011 89.6015 503.843 Q91.1293 506.644 91.1293 510.591 Q91.1293 517.052 85.9731 521.126 Q80.8169 525.169 72.4141 525.169 Q64.0114 525.169 58.8552 521.126 Q53.699 517.052 53.699 510.591 Q53.699 506.644 55.2586 503.843 Q56.7863 501.011 59.9692 499.165 M72.4141 519.121 Q78.8753 519.121 82.5674 516.479 Q86.2277 513.806 86.2277 509.159 Q86.2277 504.512 82.5674 501.838 Q78.8753 499.165 72.4141 499.165 Q65.9529 499.165 62.2927 501.838 Q58.6006 504.512 58.6006 509.159 Q58.6006 513.806 62.2927 516.479 Q65.9529 519.121 72.4141 519.121 Z" fill="#000000" fill-rule="evenodd" fill-opacity="1" /><path clip-path="url(#clip130)" d="M82.1218 479.749 L82.1218 473.033 L87.5963 473.033 L97.7815 478.253 L97.7815 482.359 L87.5963 479.749 L82.1218 479.749 Z" fill="#000000" fill-rule="evenodd" fill-opacity="1" /><path clip-path="url(#clip130)" d="M44.4369 434.012 L54.5583 434.012 L54.5583 421.949 L59.1098 421.949 L59.1098 434.012 L78.4616 434.012 Q82.8221 434.012 84.0634 432.834 Q85.3047 431.625 85.3047 427.964 L85.3047 421.949 L90.2063 421.949 L90.2063 427.964 Q90.2063 434.744 87.6918 437.322 Q85.1455 439.9 78.4616 439.9 L59.1098 439.9 L59.1098 444.197 L54.5583 444.197 L54.5583 439.9 L44.4369 439.9 L44.4369 434.012 Z" fill="#000000" fill-rule="evenodd" fill-opacity="1" /><path clip-path="url(#clip130)" d="M54.5583 414.246 L54.5583 408.39 L90.2063 408.39 L90.2063 414.246 L54.5583 414.246 M40.6811 414.246 L40.6811 408.39 L48.0971 408.39 L48.0971 414.246 L40.6811 414.246 Z" fill="#000000" fill-rule="evenodd" fill-opacity="1" /><path clip-path="url(#clip130)" d="M61.4015 368.381 Q57.4547 366.185 55.5768 363.13 Q53.699 360.074 53.699 355.936 Q53.699 350.366 57.6139 347.343 Q61.4969 344.319 68.6902 344.319 L90.2063 344.319 L90.2063 350.207 L68.8812 350.207 Q63.7568 350.207 61.2741 352.021 Q58.7915 353.836 58.7915 357.56 Q58.7915 362.111 61.8152 364.753 Q64.8389 367.395 70.0588 367.395 L90.2063 367.395 L90.2063 373.283 L68.8812 373.283 Q63.7249 373.283 61.2741 375.097 Q58.7915 376.911 58.7915 380.699 Q58.7915 385.187 61.8471 387.828 Q64.8708 390.47 70.0588 390.47 L90.2063 390.47 L90.2063 396.359 L54.5583 396.359 L54.5583 390.47 L60.0965 390.47 Q56.8182 388.465 55.2586 385.664 Q53.699 382.863 53.699 379.012 Q53.699 375.129 55.6723 372.423 Q57.6457 369.686 61.4015 368.381 Z" fill="#000000" fill-rule="evenodd" fill-opacity="1" /><path clip-path="url(#clip130)" d="M70.9182 302.146 L73.7828 302.146 L73.7828 329.073 Q79.8302 328.691 83.013 325.445 Q86.1641 322.166 86.1641 316.342 Q86.1641 312.968 85.3365 309.817 Q84.509 306.634 82.8539 303.515 L88.3921 303.515 Q89.7289 306.666 90.4291 309.976 Q91.1293 313.286 91.1293 316.692 Q91.1293 325.222 86.1641 330.219 Q81.1988 335.184 72.7324 335.184 Q63.9796 335.184 58.8552 330.473 Q53.699 325.731 53.699 317.71 Q53.699 310.517 58.3459 306.347 Q62.9611 302.146 70.9182 302.146 M69.1995 308.002 Q64.3933 308.066 61.5288 310.708 Q58.6642 313.318 58.6642 317.647 Q58.6642 322.548 61.4333 325.508 Q64.2024 328.436 69.2313 328.882 L69.1995 308.002 Z" fill="#000000" fill-rule="evenodd" fill-opacity="1" /><path clip-path="url(#clip130)" d="M82.1218 291.038 L82.1218 284.322 L90.2063 284.322 L90.2063 291.038 L82.1218 291.038 M56.4999 291.038 L56.4999 284.322 L64.5843 284.322 L64.5843 291.038 L56.4999 291.038 Z" fill="#000000" fill-rule="evenodd" fill-opacity="1" /><path clip-path="url(#clip130)" d="M42.6863 269.681 L42.6863 244.441 L48.0971 244.441 L48.0971 263.793 L59.7464 263.793 Q59.2689 262.392 59.0461 260.992 Q58.7915 259.591 58.7915 258.191 Q58.7915 250.234 63.152 245.587 Q67.5125 240.94 74.9604 240.94 Q82.6311 240.94 86.8961 245.714 Q91.1293 250.488 91.1293 259.178 Q91.1293 262.169 90.6201 265.289 Q90.1108 268.376 89.0923 271.686 L82.6311 271.686 Q84.1907 268.822 84.9546 265.766 Q85.7185 262.71 85.7185 259.305 Q85.7185 253.799 82.8221 250.584 Q79.9257 247.369 74.9604 247.369 Q69.9952 247.369 67.0988 250.584 Q64.2024 253.799 64.2024 259.305 Q64.2024 261.883 64.7753 264.461 Q65.3482 267.007 66.5577 269.681 L42.6863 269.681 Z" fill="#000000" fill-rule="evenodd" fill-opacity="1" /><path clip-path="url(#clip130)" d="M46.9195 214.522 Q46.9195 219.487 51.8211 222.002 Q56.6908 224.484 66.494 224.484 Q76.2654 224.484 81.167 222.002 Q86.0367 219.487 86.0367 214.522 Q86.0367 209.525 81.167 207.042 Q76.2654 204.528 66.494 204.528 Q56.6908 204.528 51.8211 207.042 Q46.9195 209.525 46.9195 214.522 M41.8269 214.522 Q41.8269 206.533 48.1608 202.332 Q54.4628 198.099 66.494 198.099 Q78.4934 198.099 84.8273 202.332 Q91.1293 206.533 91.1293 214.522 Q91.1293 222.511 84.8273 226.744 Q78.4934 230.946 66.494 230.946 Q54.4628 230.946 48.1608 226.744 Q41.8269 222.511 41.8269 214.522 Z" fill="#000000" fill-rule="evenodd" fill-opacity="1" /><polyline clip-path="url(#clip132)" style="stroke:#009af9; stroke-linecap:round; stroke-linejoin:round; stroke-width:4; stroke-opacity:1; fill:none" points="
  350.696,453.813 359.772,191.512 368.848,171.254 377.925,164.925 387.001,180.224 396.077,170.681 405.153,198.311 414.229,206.033 423.305,193.308 432.381,192.353 
  441.457,151.026 450.533,155 459.609,177.503 468.685,213.292 477.761,167.148 486.837,218.562 495.913,197.891 504.99,157.852 514.066,173.064 523.142,150.823 
  532.218,175.436 541.294,204.944 550.37,180.674 559.446,189.91 568.522,173.346 577.598,138.904 586.674,177.711 595.75,192.553 604.826,176.524 613.902,177.675 
  622.978,175.924 632.055,204.177 641.131,168.01 650.207,191.236 659.283,197.356 668.359,159.71 677.435,198.795 686.511,163.33 695.587,127.66 704.663,185.635 
  713.739,180.441 722.815,193.592 731.891,168.117 740.967,175.041 750.043,201.523 759.119,179.284 768.196,199.679 777.272,197.359 786.348,166.108 795.424,189.534 
  804.5,166.313 813.576,169.606 822.652,189.401 831.728,139.935 840.804,156.494 849.88,186.173 858.956,187.726 868.032,187.76 877.108,161.022 886.184,201.857 
  895.261,171.554 904.337,198.849 913.413,240.318 922.489,160.33 931.565,208.694 940.641,185.289 949.717,188.165 958.793,229.876 967.869,188.038 976.945,207.47 
  986.021,180.423 995.097,181.079 1004.17,159.795 1013.25,203.438 1022.33,159.748 1031.4,145.366 1040.48,164.437 1049.55,181.767 1058.63,195.564 1067.71,218.895 
  1076.78,212.6 1085.86,184.464 1094.93,201.249 1104.01,191.204 1113.09,163.818 1122.16,187.221 1131.24,188.865 1140.31,194.581 1149.39,179.993 1158.47,162.023 
  1167.54,160.385 1176.62,151.122 1185.69,159.194 1194.77,199.625 1203.85,177.353 1212.92,135.384 1222,190.516 1231.08,181.743 1240.15,184.872 1249.23,196.476 
  1258.3,196.053 1267.38,151.238 1276.46,193.661 1285.53,151.985 1294.61,153.893 1303.68,180.718 1312.76,139.942 1321.84,181.674 1330.91,190.996 1339.99,174.53 
  1349.06,191.935 1358.14,155.992 1367.22,229.167 1376.29,169.008 1385.37,172.238 1394.44,179.372 1403.52,185.64 1412.6,173.304 1421.67,162.675 1430.75,179.806 
  1439.82,145.092 1448.9,208.082 1457.98,173.011 1467.05,208.229 1476.13,211.479 1485.21,212.276 1494.28,159.349 1503.36,160.032 1512.43,182.029 1521.51,175.923 
  1530.59,202.609 1539.66,176.641 1548.74,178.076 1557.81,142.678 1566.89,182.315 1575.97,150.205 1585.04,193.837 1594.12,128.898 1603.19,167.294 1612.27,198.64 
  1621.35,126.966 1630.42,149.91 1639.5,197.499 1648.57,163.569 1657.65,171.376 1666.73,193.093 1675.8,155.997 1684.88,205.793 1693.95,206.915 1703.03,192.575 
  1712.11,172.767 1721.18,202.672 1730.26,142.403 1739.34,166.687 1748.41,157.795 1757.49,161.677 1766.56,205.294 1775.64,191.058 1784.72,159.832 1793.79,137.696 
  1802.87,188.97 1811.94,157.368 1821.02,165.913 1830.1,137.678 1839.17,168.998 1848.25,200.974 1857.32,127.156 1866.4,114.6 1875.48,206.56 1884.55,203.224 
  1893.63,214.492 1902.7,225.042 1911.78,198.701 1920.86,216.97 1929.93,214.346 1939.01,191.168 1948.08,177.286 1957.16,211.349 1966.24,205.996 1975.31,207.576 
  1984.39,192.211 1993.47,154.152 2002.54,212.136 2011.62,179.735 2020.69,191.972 2029.77,130.329 2038.85,203.135 2047.92,201.26 2057,207.338 2066.07,164.118 
  2075.15,110.236 2084.23,196.71 2093.3,194.99 2102.38,214.098 2111.45,196.581 2120.53,203.556 2129.61,203.505 2138.68,208.883 2147.76,165.109 2156.83,205.825 
  2165.91,192.969 2174.99,193.057 2184.06,202.443 2193.14,208.564 2202.21,205.248 2211.29,205.544 2220.37,186.957 2229.44,177.705 2238.52,134.196 2247.6,191.398 
  2256.67,148.688 2265.75,204.947 2274.82,144.616 2283.9,169.161 2292.98,217.682 2302.05,201.946 2311.13,205.713 2320.2,192.721 2329.28,125.825 2338.36,198.708 
  2347.43,197.359 2356.51,192.696 2365.58,128.59 2374.66,153.738 2383.74,210.783 2392.81,232.328 2401.89,186.147 2410.96,164.766 2420.04,175.856 2429.12,144.652 
  2438.19,133.802 2447.27,186.733 2456.34,125.025 2465.42,148.555 2474.5,193.089 2483.57,206.26 2492.65,179.231 2501.73,162.259 2510.8,217.915 2519.88,183.946 
  2528.95,196.351 2538.03,152.38 2547.11,137.892 2556.18,194.653 2565.26,187.842 2574.33,205.242 2583.41,171.293 2592.49,163.187 2601.56,159.628 2610.64,232.089 
  2619.71,171.057 2628.79,203.126 2637.87,146.935 2646.94,198.133 2656.02,208.046 2665.09,220.095 2674.17,177.36 2683.25,169.098 2692.32,143.547 2701.4,145.15 
  2710.47,175.197 2719.55,178.987 2728.63,188.332 2737.7,161.219 2746.78,172.114 2755.86,182.363 2764.93,167.87 2774.01,203.895 2783.08,137.386 2792.16,206.266 
  2801.24,122.016 2810.31,211.837 2819.39,126.807 2828.46,164.232 2837.54,175.295 2846.62,191.365 2855.69,136.162 2864.77,178.336 2873.84,216.208 2882.92,202.494 
  2892,209.355 2901.07,187.984 2910.15,168.916 2919.22,164.09 2928.3,140.2 2937.38,225.786 2946.45,207.917 2955.53,165.458 2964.6,134.465 2973.68,181.845 
  2982.76,190.482 2991.83,151.432 3000.91,159.182 3009.99,189.471 
  "/>
</svg>
