<?xml version="1.0" encoding="utf-8"?>
<svg xmlns="http://www.w3.org/2000/svg" xmlns:xlink="http://www.w3.org/1999/xlink" width="800" height="300" viewBox="0 0 3200 1200">
<defs>
  <clipPath id="clip710">
    <rect x="0" y="0" width="3200" height="1200"/>
  </clipPath>
</defs>
<path clip-path="url(#clip710)" d="
M0 1200 L3200 1200 L3200 0 L0 0  Z
  " fill="#ffffff" fill-rule="evenodd" fill-opacity="1"/>
<defs>
  <clipPath id="clip711">
    <rect x="640" y="0" width="2241" height="1200"/>
  </clipPath>
</defs>
<path clip-path="url(#clip710)" d="
M270.918 1000.1 L3089.76 1000.1 L3089.76 110.236 L270.918 110.236  Z
  " fill="#ffffff" fill-rule="evenodd" fill-opacity="1"/>
<defs>
  <clipPath id="clip712">
    <rect x="270" y="110" width="2820" height="891"/>
  </clipPath>
</defs>
<polyline clip-path="url(#clip712)" style="stroke:#000000; stroke-linecap:round; stroke-linejoin:round; stroke-width:2; stroke-opacity:0.1; fill:none" points="
  340.389,1000.1 340.389,110.236 
  "/>
<polyline clip-path="url(#clip712)" style="stroke:#000000; stroke-linecap:round; stroke-linejoin:round; stroke-width:2; stroke-opacity:0.1; fill:none" points="
  855.755,1000.1 855.755,110.236 
  "/>
<polyline clip-path="url(#clip712)" style="stroke:#000000; stroke-linecap:round; stroke-linejoin:round; stroke-width:2; stroke-opacity:0.1; fill:none" points="
  1371.12,1000.1 1371.12,110.236 
  "/>
<polyline clip-path="url(#clip712)" style="stroke:#000000; stroke-linecap:round; stroke-linejoin:round; stroke-width:2; stroke-opacity:0.1; fill:none" points="
  1886.49,1000.1 1886.49,110.236 
  "/>
<polyline clip-path="url(#clip712)" style="stroke:#000000; stroke-linecap:round; stroke-linejoin:round; stroke-width:2; stroke-opacity:0.1; fill:none" points="
  2401.85,1000.1 2401.85,110.236 
  "/>
<polyline clip-path="url(#clip712)" style="stroke:#000000; stroke-linecap:round; stroke-linejoin:round; stroke-width:2; stroke-opacity:0.1; fill:none" points="
  2917.22,1000.1 2917.22,110.236 
  "/>
<polyline clip-path="url(#clip710)" style="stroke:#000000; stroke-linecap:round; stroke-linejoin:round; stroke-width:4; stroke-opacity:1; fill:none" points="
  270.918,1000.1 3089.76,1000.1 
  "/>
<polyline clip-path="url(#clip710)" style="stroke:#000000; stroke-linecap:round; stroke-linejoin:round; stroke-width:4; stroke-opacity:1; fill:none" points="
  340.389,1000.1 340.389,981.2 
  "/>
<polyline clip-path="url(#clip710)" style="stroke:#000000; stroke-linecap:round; stroke-linejoin:round; stroke-width:4; stroke-opacity:1; fill:none" points="
  855.755,1000.1 855.755,981.2 
  "/>
<polyline clip-path="url(#clip710)" style="stroke:#000000; stroke-linecap:round; stroke-linejoin:round; stroke-width:4; stroke-opacity:1; fill:none" points="
  1371.12,1000.1 1371.12,981.2 
  "/>
<polyline clip-path="url(#clip710)" style="stroke:#000000; stroke-linecap:round; stroke-linejoin:round; stroke-width:4; stroke-opacity:1; fill:none" points="
  1886.49,1000.1 1886.49,981.2 
  "/>
<polyline clip-path="url(#clip710)" style="stroke:#000000; stroke-linecap:round; stroke-linejoin:round; stroke-width:4; stroke-opacity:1; fill:none" points="
  2401.85,1000.1 2401.85,981.2 
  "/>
<polyline clip-path="url(#clip710)" style="stroke:#000000; stroke-linecap:round; stroke-linejoin:round; stroke-width:4; stroke-opacity:1; fill:none" points="
  2917.22,1000.1 2917.22,981.2 
  "/>
<path clip-path="url(#clip710)" d="M340.389 1037.42 Q336.778 1037.42 334.949 1040.98 Q333.144 1044.52 333.144 1051.65 Q333.144 1058.76 334.949 1062.32 Q336.778 1065.87 340.389 1065.87 Q344.023 1065.87 345.829 1062.32 Q347.657 1058.76 347.657 1051.65 Q347.657 1044.52 345.829 1040.98 Q344.023 1037.42 340.389 1037.42 M340.389 1033.71 Q346.199 1033.71 349.255 1038.32 Q352.333 1042.9 352.333 1051.65 Q352.333 1060.38 349.255 1064.99 Q346.199 1069.57 340.389 1069.57 Q334.579 1069.57 331.5 1064.99 Q328.445 1060.38 328.445 1051.65 Q328.445 1042.9 331.5 1038.32 Q334.579 1033.71 340.389 1033.71 Z" fill="#000000" fill-rule="evenodd" fill-opacity="1" /><path clip-path="url(#clip710)" d="M830.454 1034.34 L848.811 1034.34 L848.811 1038.27 L834.737 1038.27 L834.737 1046.75 Q835.755 1046.4 836.774 1046.24 Q837.792 1046.05 838.811 1046.05 Q844.598 1046.05 847.977 1049.22 Q851.357 1052.39 851.357 1057.81 Q851.357 1063.39 847.885 1066.49 Q844.412 1069.57 838.093 1069.57 Q835.917 1069.57 833.649 1069.2 Q831.403 1068.83 828.996 1068.09 L828.996 1063.39 Q831.079 1064.52 833.301 1065.08 Q835.524 1065.63 838 1065.63 Q842.005 1065.63 844.343 1063.53 Q846.681 1061.42 846.681 1057.81 Q846.681 1054.2 844.343 1052.09 Q842.005 1049.99 838 1049.99 Q836.126 1049.99 834.251 1050.4 Q832.399 1050.82 830.454 1051.7 L830.454 1034.34 Z" fill="#000000" fill-rule="evenodd" fill-opacity="1" /><path clip-path="url(#clip710)" d="M870.57 1037.42 Q866.959 1037.42 865.13 1040.98 Q863.324 1044.52 863.324 1051.65 Q863.324 1058.76 865.13 1062.32 Q866.959 1065.87 870.57 1065.87 Q874.204 1065.87 876.01 1062.32 Q877.838 1058.76 877.838 1051.65 Q877.838 1044.52 876.01 1040.98 Q874.204 1037.42 870.57 1037.42 M870.57 1033.71 Q876.38 1033.71 879.435 1038.32 Q882.514 1042.9 882.514 1051.65 Q882.514 1060.38 879.435 1064.99 Q876.38 1069.57 870.57 1069.57 Q864.76 1069.57 861.681 1064.99 Q858.625 1060.38 858.625 1051.65 Q858.625 1042.9 861.681 1038.32 Q864.76 1033.71 870.57 1033.71 Z" fill="#000000" fill-rule="evenodd" fill-opacity="1" /><path clip-path="url(#clip710)" d="M1330.73 1064.96 L1338.37 1064.96 L1338.37 1038.6 L1330.06 1040.26 L1330.06 1036 L1338.32 1034.34 L1343 1034.34 L1343 1064.96 L1350.64 1064.96 L1350.64 1068.9 L1330.73 1068.9 L1330.73 1064.96 Z" fill="#000000" fill-rule="evenodd" fill-opacity="1" /><path clip-path="url(#clip710)" d="M1370.08 1037.42 Q1366.47 1037.42 1364.64 1040.98 Q1362.83 1044.52 1362.83 1051.65 Q1362.83 1058.76 1364.64 1062.32 Q1366.47 1065.87 1370.08 1065.87 Q1373.71 1065.87 1375.52 1062.32 Q1377.35 1058.76 1377.35 1051.65 Q1377.35 1044.52 1375.52 1040.98 Q1373.71 1037.42 1370.08 1037.42 M1370.08 1033.71 Q1375.89 1033.71 1378.95 1038.32 Q1382.02 1042.9 1382.02 1051.65 Q1382.02 1060.38 1378.95 1064.99 Q1375.89 1069.57 1370.08 1069.57 Q1364.27 1069.57 1361.19 1064.99 Q1358.14 1060.38 1358.14 1051.65 Q1358.14 1042.9 1361.19 1038.32 Q1364.27 1033.71 1370.08 1033.71 Z" fill="#000000" fill-rule="evenodd" fill-opacity="1" /><path clip-path="url(#clip710)" d="M1400.24 1037.42 Q1396.63 1037.42 1394.8 1040.98 Q1393 1044.52 1393 1051.65 Q1393 1058.76 1394.8 1062.32 Q1396.63 1065.87 1400.24 1065.87 Q1403.88 1065.87 1405.68 1062.32 Q1407.51 1058.76 1407.51 1051.65 Q1407.51 1044.52 1405.68 1040.98 Q1403.88 1037.42 1400.24 1037.42 M1400.24 1033.71 Q1406.05 1033.71 1409.11 1038.32 Q1412.19 1042.9 1412.19 1051.65 Q1412.19 1060.38 1409.11 1064.99 Q1406.05 1069.57 1400.24 1069.57 Q1394.43 1069.57 1391.35 1064.99 Q1388.3 1060.38 1388.3 1051.65 Q1388.3 1042.9 1391.35 1038.32 Q1394.43 1033.71 1400.24 1033.71 Z" fill="#000000" fill-rule="evenodd" fill-opacity="1" /><path clip-path="url(#clip710)" d="M1846.09 1064.96 L1853.73 1064.96 L1853.73 1038.6 L1845.42 1040.26 L1845.42 1036 L1853.69 1034.34 L1858.36 1034.34 L1858.36 1064.96 L1866 1064.96 L1866 1068.9 L1846.09 1068.9 L1846.09 1064.96 Z" fill="#000000" fill-rule="evenodd" fill-opacity="1" /><path clip-path="url(#clip710)" d="M1875.49 1034.34 L1893.85 1034.34 L1893.85 1038.27 L1879.77 1038.27 L1879.77 1046.75 Q1880.79 1046.4 1881.81 1046.24 Q1882.83 1046.05 1883.85 1046.05 Q1889.64 1046.05 1893.01 1049.22 Q1896.39 1052.39 1896.39 1057.81 Q1896.39 1063.39 1892.92 1066.49 Q1889.45 1069.57 1883.13 1069.57 Q1880.95 1069.57 1878.69 1069.2 Q1876.44 1068.83 1874.03 1068.09 L1874.03 1063.39 Q1876.12 1064.52 1878.34 1065.08 Q1880.56 1065.63 1883.04 1065.63 Q1887.04 1065.63 1889.38 1063.53 Q1891.72 1061.42 1891.72 1057.81 Q1891.72 1054.2 1889.38 1052.09 Q1887.04 1049.99 1883.04 1049.99 Q1881.16 1049.99 1879.29 1050.4 Q1877.44 1050.82 1875.49 1051.7 L1875.49 1034.34 Z" fill="#000000" fill-rule="evenodd" fill-opacity="1" /><path clip-path="url(#clip710)" d="M1915.61 1037.42 Q1912 1037.42 1910.17 1040.98 Q1908.36 1044.52 1908.36 1051.65 Q1908.36 1058.76 1910.17 1062.32 Q1912 1065.87 1915.61 1065.87 Q1919.24 1065.87 1921.05 1062.32 Q1922.88 1058.76 1922.88 1051.65 Q1922.88 1044.52 1921.05 1040.98 Q1919.24 1037.42 1915.61 1037.42 M1915.61 1033.71 Q1921.42 1033.71 1924.47 1038.32 Q1927.55 1042.9 1927.55 1051.65 Q1927.55 1060.38 1924.47 1064.99 Q1921.42 1069.57 1915.61 1069.57 Q1909.8 1069.57 1906.72 1064.99 Q1903.66 1060.38 1903.66 1051.65 Q1903.66 1042.9 1906.72 1038.32 Q1909.8 1033.71 1915.61 1033.71 Z" fill="#000000" fill-rule="evenodd" fill-opacity="1" /><path clip-path="url(#clip710)" d="M2365.55 1064.96 L2381.86 1064.96 L2381.86 1068.9 L2359.92 1068.9 L2359.92 1064.96 Q2362.58 1062.21 2367.17 1057.58 Q2371.77 1052.93 2372.95 1051.58 Q2375.2 1049.06 2376.08 1047.32 Q2376.98 1045.56 2376.98 1043.87 Q2376.98 1041.12 2375.04 1039.38 Q2373.11 1037.65 2370.01 1037.65 Q2367.81 1037.65 2365.36 1038.41 Q2362.93 1039.18 2360.15 1040.73 L2360.15 1036 Q2362.98 1034.87 2365.43 1034.29 Q2367.88 1033.71 2369.92 1033.71 Q2375.29 1033.71 2378.49 1036.4 Q2381.68 1039.08 2381.68 1043.57 Q2381.68 1045.7 2380.87 1047.62 Q2380.08 1049.52 2377.98 1052.12 Q2377.4 1052.79 2374.3 1056 Q2371.19 1059.2 2365.55 1064.96 Z" fill="#000000" fill-rule="evenodd" fill-opacity="1" /><path clip-path="url(#clip710)" d="M2401.68 1037.42 Q2398.07 1037.42 2396.24 1040.98 Q2394.43 1044.52 2394.43 1051.65 Q2394.43 1058.76 2396.24 1062.32 Q2398.07 1065.87 2401.68 1065.87 Q2405.31 1065.87 2407.12 1062.32 Q2408.95 1058.76 2408.95 1051.65 Q2408.95 1044.52 2407.12 1040.98 Q2405.31 1037.42 2401.68 1037.42 M2401.68 1033.71 Q2407.49 1033.71 2410.55 1038.32 Q2413.62 1042.9 2413.62 1051.65 Q2413.62 1060.38 2410.55 1064.99 Q2407.49 1069.57 2401.68 1069.57 Q2395.87 1069.57 2392.79 1064.99 Q2389.74 1060.38 2389.74 1051.65 Q2389.74 1042.9 2392.79 1038.32 Q2395.87 1033.71 2401.68 1033.71 Z" fill="#000000" fill-rule="evenodd" fill-opacity="1" /><path clip-path="url(#clip710)" d="M2431.84 1037.42 Q2428.23 1037.42 2426.4 1040.98 Q2424.6 1044.52 2424.6 1051.65 Q2424.6 1058.76 2426.4 1062.32 Q2428.23 1065.87 2431.84 1065.87 Q2435.48 1065.87 2437.28 1062.32 Q2439.11 1058.76 2439.11 1051.65 Q2439.11 1044.52 2437.28 1040.98 Q2435.48 1037.42 2431.84 1037.42 M2431.84 1033.71 Q2437.65 1033.71 2440.71 1038.32 Q2443.79 1042.9 2443.79 1051.65 Q2443.79 1060.38 2440.71 1064.99 Q2437.65 1069.57 2431.84 1069.57 Q2426.03 1069.57 2422.95 1064.99 Q2419.9 1060.38 2419.9 1051.65 Q2419.9 1042.9 2422.95 1038.32 Q2426.03 1033.71 2431.84 1033.71 Z" fill="#000000" fill-rule="evenodd" fill-opacity="1" /><path clip-path="url(#clip710)" d="M2880.91 1064.96 L2897.23 1064.96 L2897.23 1068.9 L2875.29 1068.9 L2875.29 1064.96 Q2877.95 1062.21 2882.53 1057.58 Q2887.14 1052.93 2888.32 1051.58 Q2890.56 1049.06 2891.44 1047.32 Q2892.35 1045.56 2892.35 1043.87 Q2892.35 1041.12 2890.4 1039.38 Q2888.48 1037.65 2885.38 1037.65 Q2883.18 1037.65 2880.73 1038.41 Q2878.3 1039.18 2875.52 1040.73 L2875.52 1036 Q2878.34 1034.87 2880.8 1034.29 Q2883.25 1033.71 2885.29 1033.71 Q2890.66 1033.71 2893.85 1036.4 Q2897.05 1039.08 2897.05 1043.57 Q2897.05 1045.7 2896.24 1047.62 Q2895.45 1049.52 2893.34 1052.12 Q2892.76 1052.79 2889.66 1056 Q2886.56 1059.2 2880.91 1064.96 Z" fill="#000000" fill-rule="evenodd" fill-opacity="1" /><path clip-path="url(#clip710)" d="M2907.09 1034.34 L2925.45 1034.34 L2925.45 1038.27 L2911.37 1038.27 L2911.37 1046.75 Q2912.39 1046.4 2913.41 1046.24 Q2914.43 1046.05 2915.45 1046.05 Q2921.24 1046.05 2924.62 1049.22 Q2927.99 1052.39 2927.99 1057.81 Q2927.99 1063.39 2924.52 1066.49 Q2921.05 1069.57 2914.73 1069.57 Q2912.55 1069.57 2910.29 1069.2 Q2908.04 1068.83 2905.63 1068.09 L2905.63 1063.39 Q2907.72 1064.52 2909.94 1065.08 Q2912.16 1065.63 2914.64 1065.63 Q2918.64 1065.63 2920.98 1063.53 Q2923.32 1061.42 2923.32 1057.81 Q2923.32 1054.2 2920.98 1052.09 Q2918.64 1049.99 2914.64 1049.99 Q2912.76 1049.99 2910.89 1050.4 Q2909.04 1050.82 2907.09 1051.7 L2907.09 1034.34 Z" fill="#000000" fill-rule="evenodd" fill-opacity="1" /><path clip-path="url(#clip710)" d="M2947.21 1037.42 Q2943.6 1037.42 2941.77 1040.98 Q2939.96 1044.52 2939.96 1051.65 Q2939.96 1058.76 2941.77 1062.32 Q2943.6 1065.87 2947.21 1065.87 Q2950.84 1065.87 2952.65 1062.32 Q2954.48 1058.76 2954.48 1051.65 Q2954.48 1044.52 2952.65 1040.98 Q2950.84 1037.42 2947.21 1037.42 M2947.21 1033.71 Q2953.02 1033.71 2956.07 1038.32 Q2959.15 1042.9 2959.15 1051.65 Q2959.15 1060.38 2956.07 1064.99 Q2953.02 1069.57 2947.21 1069.57 Q2941.4 1069.57 2938.32 1064.99 Q2935.26 1060.38 2935.26 1051.65 Q2935.26 1042.9 2938.32 1038.32 Q2941.4 1033.71 2947.21 1033.71 Z" fill="#000000" fill-rule="evenodd" fill-opacity="1" /><path clip-path="url(#clip710)" d="M1556.64 1109.44 L1563.07 1109.44 L1563.07 1151.55 L1586.21 1151.55 L1586.21 1156.96 L1556.64 1156.96 L1556.64 1109.44 Z" fill="#000000" fill-rule="evenodd" fill-opacity="1" /><path clip-path="url(#clip710)" d="M1592.7 1121.31 L1598.56 1121.31 L1598.56 1156.96 L1592.7 1156.96 L1592.7 1121.31 M1592.7 1107.44 L1598.56 1107.44 L1598.56 1114.85 L1592.7 1114.85 L1592.7 1107.44 Z" fill="#000000" fill-rule="evenodd" fill-opacity="1" /><path clip-path="url(#clip710)" d="M1640.44 1135.45 L1640.44 1156.96 L1634.59 1156.96 L1634.59 1135.64 Q1634.59 1130.58 1632.61 1128.06 Q1630.64 1125.55 1626.69 1125.55 Q1621.95 1125.55 1619.21 1128.57 Q1616.48 1131.59 1616.48 1136.81 L1616.48 1156.96 L1610.59 1156.96 L1610.59 1121.31 L1616.48 1121.31 L1616.48 1126.85 Q1618.58 1123.64 1621.41 1122.05 Q1624.27 1120.45 1628 1120.45 Q1634.14 1120.45 1637.29 1124.27 Q1640.44 1128.06 1640.44 1135.45 Z" fill="#000000" fill-rule="evenodd" fill-opacity="1" /><path clip-path="url(#clip710)" d="M1682.62 1137.67 L1682.62 1140.54 L1655.69 1140.54 Q1656.07 1146.59 1659.32 1149.77 Q1662.6 1152.92 1668.42 1152.92 Q1671.79 1152.92 1674.95 1152.09 Q1678.13 1151.26 1681.25 1149.61 L1681.25 1155.15 Q1678.1 1156.48 1674.79 1157.18 Q1671.48 1157.88 1668.07 1157.88 Q1659.54 1157.88 1654.54 1152.92 Q1649.58 1147.95 1649.58 1139.49 Q1649.58 1130.74 1654.29 1125.61 Q1659.03 1120.45 1667.05 1120.45 Q1674.25 1120.45 1678.42 1125.1 Q1682.62 1129.72 1682.62 1137.67 M1676.76 1135.95 Q1676.7 1131.15 1674.05 1128.28 Q1671.44 1125.42 1667.12 1125.42 Q1662.21 1125.42 1659.25 1128.19 Q1656.33 1130.96 1655.88 1135.99 L1676.76 1135.95 Z" fill="#000000" fill-rule="evenodd" fill-opacity="1" /><path clip-path="url(#clip710)" d="M1708.43 1139.04 Q1701.33 1139.04 1698.59 1140.67 Q1695.86 1142.29 1695.86 1146.2 Q1695.86 1149.32 1697.89 1151.17 Q1699.96 1152.98 1703.5 1152.98 Q1708.37 1152.98 1711.29 1149.55 Q1714.25 1146.08 1714.25 1140.35 L1714.25 1139.04 L1708.43 1139.04 M1720.11 1136.62 L1720.11 1156.96 L1714.25 1156.96 L1714.25 1151.55 Q1712.25 1154.8 1709.26 1156.36 Q1706.27 1157.88 1701.94 1157.88 Q1696.46 1157.88 1693.22 1154.83 Q1690 1151.74 1690 1146.59 Q1690 1140.57 1694.01 1137.51 Q1698.05 1134.46 1706.04 1134.46 L1714.25 1134.46 L1714.25 1133.89 Q1714.25 1129.84 1711.58 1127.65 Q1708.94 1125.42 1704.13 1125.42 Q1701.08 1125.42 1698.18 1126.15 Q1695.28 1126.88 1692.61 1128.35 L1692.61 1122.94 Q1695.83 1121.7 1698.85 1121.09 Q1701.87 1120.45 1704.74 1120.45 Q1712.47 1120.45 1716.29 1124.46 Q1720.11 1128.48 1720.11 1136.62 Z" fill="#000000" fill-rule="evenodd" fill-opacity="1" /><path clip-path="url(#clip710)" d="M1755.63 1138.72 Q1755.63 1132.36 1752.99 1128.86 Q1750.38 1125.36 1745.64 1125.36 Q1740.93 1125.36 1738.28 1128.86 Q1735.67 1132.36 1735.67 1138.72 Q1735.67 1145.06 1738.28 1148.56 Q1740.93 1152.06 1745.64 1152.06 Q1750.38 1152.06 1752.99 1148.56 Q1755.63 1145.06 1755.63 1138.72 M1761.49 1152.54 Q1761.49 1161.64 1757.45 1166.06 Q1753.4 1170.52 1745.06 1170.52 Q1741.98 1170.52 1739.24 1170.04 Q1736.5 1169.6 1733.92 1168.64 L1733.92 1162.95 Q1736.5 1164.35 1739.02 1165.01 Q1741.53 1165.68 1744.14 1165.68 Q1749.9 1165.68 1752.77 1162.66 Q1755.63 1159.67 1755.63 1153.59 L1755.63 1150.69 Q1753.82 1153.84 1750.98 1155.4 Q1748.15 1156.96 1744.2 1156.96 Q1737.65 1156.96 1733.64 1151.96 Q1729.63 1146.97 1729.63 1138.72 Q1729.63 1130.45 1733.64 1125.45 Q1737.65 1120.45 1744.2 1120.45 Q1748.15 1120.45 1750.98 1122.01 Q1753.82 1123.57 1755.63 1126.72 L1755.63 1121.31 L1761.49 1121.31 L1761.49 1152.54 Z" fill="#000000" fill-rule="evenodd" fill-opacity="1" /><path clip-path="url(#clip710)" d="M1804.04 1137.67 L1804.04 1140.54 L1777.12 1140.54 Q1777.5 1146.59 1780.74 1149.77 Q1784.02 1152.92 1789.85 1152.92 Q1793.22 1152.92 1796.37 1152.09 Q1799.55 1151.26 1802.67 1149.61 L1802.67 1155.15 Q1799.52 1156.48 1796.21 1157.18 Q1792.9 1157.88 1789.5 1157.88 Q1780.97 1157.88 1775.97 1152.92 Q1771 1147.95 1771 1139.49 Q1771 1130.74 1775.71 1125.61 Q1780.46 1120.45 1788.48 1120.45 Q1795.67 1120.45 1799.84 1125.1 Q1804.04 1129.72 1804.04 1137.67 M1798.19 1135.95 Q1798.12 1131.15 1795.48 1128.28 Q1792.87 1125.42 1788.54 1125.42 Q1783.64 1125.42 1780.68 1128.19 Q1777.75 1130.96 1777.31 1135.99 L1798.19 1135.95 Z" fill="#000000" fill-rule="evenodd" fill-opacity="1" /><polyline clip-path="url(#clip712)" style="stroke:#000000; stroke-linecap:round; stroke-linejoin:round; stroke-width:2; stroke-opacity:0.1; fill:none" points="
  270.918,1000.1 3089.76,1000.1 
  "/>
<polyline clip-path="url(#clip712)" style="stroke:#000000; stroke-linecap:round; stroke-linejoin:round; stroke-width:2; stroke-opacity:0.1; fill:none" points="
  270.918,674.712 3089.76,674.712 
  "/>
<polyline clip-path="url(#clip712)" style="stroke:#000000; stroke-linecap:round; stroke-linejoin:round; stroke-width:2; stroke-opacity:0.1; fill:none" points="
  270.918,349.325 3089.76,349.325 
  "/>
<polyline clip-path="url(#clip710)" style="stroke:#000000; stroke-linecap:round; stroke-linejoin:round; stroke-width:4; stroke-opacity:1; fill:none" points="
  270.918,1000.1 270.918,110.236 
  "/>
<polyline clip-path="url(#clip710)" style="stroke:#000000; stroke-linecap:round; stroke-linejoin:round; stroke-width:4; stroke-opacity:1; fill:none" points="
  270.918,1000.1 289.815,1000.1 
  "/>
<polyline clip-path="url(#clip710)" style="stroke:#000000; stroke-linecap:round; stroke-linejoin:round; stroke-width:4; stroke-opacity:1; fill:none" points="
  270.918,674.712 289.815,674.712 
  "/>
<polyline clip-path="url(#clip710)" style="stroke:#000000; stroke-linecap:round; stroke-linejoin:round; stroke-width:4; stroke-opacity:1; fill:none" points="
  270.918,349.325 289.815,349.325 
  "/>
<path clip-path="url(#clip710)" d="M154.902 1019.89 L162.54 1019.89 L162.54 993.525 L154.23 995.191 L154.23 990.932 L162.494 989.265 L167.17 989.265 L167.17 1019.89 L174.809 1019.89 L174.809 1023.83 L154.902 1023.83 L154.902 1019.89 Z" fill="#000000" fill-rule="evenodd" fill-opacity="1" /><path clip-path="url(#clip710)" d="M194.253 992.344 Q190.642 992.344 188.813 995.909 Q187.008 999.45 187.008 1006.58 Q187.008 1013.69 188.813 1017.25 Q190.642 1020.79 194.253 1020.79 Q197.887 1020.79 199.693 1017.25 Q201.522 1013.69 201.522 1006.58 Q201.522 999.45 199.693 995.909 Q197.887 992.344 194.253 992.344 M194.253 988.64 Q200.063 988.64 203.119 993.247 Q206.198 997.83 206.198 1006.58 Q206.198 1015.31 203.119 1019.91 Q200.063 1024.5 194.253 1024.5 Q188.443 1024.5 185.364 1019.91 Q182.309 1015.31 182.309 1006.58 Q182.309 997.83 185.364 993.247 Q188.443 988.64 194.253 988.64 Z" fill="#000000" fill-rule="evenodd" fill-opacity="1" /><path clip-path="url(#clip710)" d="M206.743 993.218 L212.95 993.218 L212.95 971.796 L206.198 973.15 L206.198 969.689 L212.912 968.335 L216.711 968.335 L216.711 993.218 L222.918 993.218 L222.918 996.415 L206.743 996.415 L206.743 993.218 Z" fill="#000000" fill-rule="evenodd" fill-opacity="1" /><path clip-path="url(#clip710)" d="M153.792 694.504 L161.431 694.504 L161.431 668.138 L153.121 669.805 L153.121 665.546 L161.384 663.879 L166.06 663.879 L166.06 694.504 L173.699 694.504 L173.699 698.439 L153.792 698.439 L153.792 694.504 Z" fill="#000000" fill-rule="evenodd" fill-opacity="1" /><path clip-path="url(#clip710)" d="M193.143 666.958 Q189.532 666.958 187.704 670.523 Q185.898 674.064 185.898 681.194 Q185.898 688.3 187.704 691.865 Q189.532 695.407 193.143 695.407 Q196.778 695.407 198.583 691.865 Q200.412 688.3 200.412 681.194 Q200.412 674.064 198.583 670.523 Q196.778 666.958 193.143 666.958 M193.143 663.254 Q198.954 663.254 202.009 667.861 Q205.088 672.444 205.088 681.194 Q205.088 689.921 202.009 694.527 Q198.954 699.11 193.143 699.11 Q187.333 699.11 184.255 694.527 Q181.199 689.921 181.199 681.194 Q181.199 672.444 184.255 667.861 Q187.333 663.254 193.143 663.254 Z" fill="#000000" fill-rule="evenodd" fill-opacity="1" /><path clip-path="url(#clip710)" d="M209.658 667.831 L222.918 667.831 L222.918 671.029 L205.088 671.029 L205.088 667.831 Q207.251 665.593 210.975 661.832 Q214.717 658.051 215.677 656.961 Q217.501 654.91 218.216 653.5 Q218.949 652.07 218.949 650.698 Q218.949 648.459 217.369 647.049 Q215.808 645.638 213.288 645.638 Q211.501 645.638 209.508 646.259 Q207.533 646.88 205.276 648.14 L205.276 644.303 Q207.57 643.381 209.564 642.911 Q211.558 642.441 213.213 642.441 Q217.576 642.441 220.172 644.623 Q222.767 646.804 222.767 650.453 Q222.767 652.183 222.109 653.744 Q221.469 655.287 219.758 657.393 Q219.288 657.939 216.767 660.553 Q214.247 663.148 209.658 667.831 Z" fill="#000000" fill-rule="evenodd" fill-opacity="1" /><path clip-path="url(#clip710)" d="M153.134 369.118 L160.772 369.118 L160.772 342.752 L152.462 344.419 L152.462 340.16 L160.726 338.493 L165.402 338.493 L165.402 369.118 L173.041 369.118 L173.041 373.053 L153.134 373.053 L153.134 369.118 Z" fill="#000000" fill-rule="evenodd" fill-opacity="1" /><path clip-path="url(#clip710)" d="M192.485 341.572 Q188.874 341.572 187.045 345.136 Q185.24 348.678 185.24 355.808 Q185.24 362.914 187.045 366.479 Q188.874 370.021 192.485 370.021 Q196.119 370.021 197.925 366.479 Q199.754 362.914 199.754 355.808 Q199.754 348.678 197.925 345.136 Q196.119 341.572 192.485 341.572 M192.485 337.868 Q198.295 337.868 201.351 342.474 Q204.43 347.058 204.43 355.808 Q204.43 364.534 201.351 369.141 Q198.295 373.724 192.485 373.724 Q186.675 373.724 183.596 369.141 Q180.541 364.534 180.541 355.808 Q180.541 347.058 183.596 342.474 Q186.675 337.868 192.485 337.868 Z" fill="#000000" fill-rule="evenodd" fill-opacity="1" /><path clip-path="url(#clip710)" d="M217.125 330.502 Q219.852 331.085 221.375 332.928 Q222.918 334.772 222.918 337.48 Q222.918 341.636 220.059 343.912 Q217.2 346.188 211.934 346.188 Q210.166 346.188 208.285 345.831 Q206.423 345.492 204.43 344.796 L204.43 341.129 Q206.009 342.05 207.89 342.52 Q209.771 342.991 211.821 342.991 Q215.395 342.991 217.256 341.58 Q219.137 340.169 219.137 337.48 Q219.137 334.997 217.388 333.606 Q215.658 332.195 212.555 332.195 L209.282 332.195 L209.282 329.073 L212.705 329.073 Q215.507 329.073 216.993 327.963 Q218.479 326.835 218.479 324.728 Q218.479 322.565 216.937 321.418 Q215.413 320.252 212.555 320.252 Q210.994 320.252 209.207 320.591 Q207.42 320.929 205.276 321.644 L205.276 318.258 Q207.439 317.657 209.32 317.356 Q211.219 317.055 212.893 317.055 Q217.219 317.055 219.739 319.03 Q222.259 320.986 222.259 324.333 Q222.259 326.665 220.924 328.283 Q219.589 329.882 217.125 330.502 Z" fill="#000000" fill-rule="evenodd" fill-opacity="1" /><path clip-path="url(#clip710)" d="M42.6863 912.235 L42.6863 882.189 L48.0971 882.189 L48.0971 905.806 L62.1653 905.806 L62.1653 883.176 L67.5762 883.176 L67.5762 905.806 L84.7954 905.806 L84.7954 881.616 L90.2063 881.616 L90.2063 912.235 L42.6863 912.235 Z" fill="#000000" fill-rule="evenodd" fill-opacity="1" /><path clip-path="url(#clip710)" d="M44.2459 842.563 L50.5161 842.563 Q48.7655 846.223 47.9062 849.47 Q47.0468 852.716 47.0468 855.74 Q47.0468 860.991 49.0838 863.856 Q51.1208 866.689 54.8766 866.689 Q58.0276 866.689 59.6509 864.811 Q61.2423 862.901 62.229 857.618 L63.0247 853.735 Q64.3933 846.541 67.8627 843.136 Q71.3001 839.698 77.0929 839.698 Q83.9997 839.698 87.5645 844.345 Q91.1293 848.96 91.1293 857.904 Q91.1293 861.278 90.3654 865.097 Q89.6015 868.885 88.1056 872.959 L81.4853 872.959 Q83.6814 869.044 84.7954 865.288 Q85.9094 861.533 85.9094 857.904 Q85.9094 852.398 83.7451 849.406 Q81.5808 846.414 77.5704 846.414 Q74.0692 846.414 72.0958 848.578 Q70.1225 850.711 69.1358 855.612 L68.3719 859.527 Q66.9396 866.721 63.8841 869.935 Q60.8285 873.15 55.3859 873.15 Q49.0838 873.15 45.4554 868.726 Q41.8269 864.27 41.8269 856.472 Q41.8269 853.13 42.4317 849.66 Q43.0364 846.191 44.2459 842.563 Z" fill="#000000" fill-rule="evenodd" fill-opacity="1" /><path clip-path="url(#clip710)" d="M44.2459 801.186 L50.5161 801.186 Q48.7655 804.846 47.9062 808.092 Q47.0468 811.339 47.0468 814.363 Q47.0468 819.614 49.0838 822.479 Q51.1208 825.312 54.8766 825.312 Q58.0276 825.312 59.6509 823.434 Q61.2423 821.524 62.229 816.241 L63.0247 812.357 Q64.3933 805.164 67.8627 801.759 Q71.3001 798.321 77.0929 798.321 Q83.9997 798.321 87.5645 802.968 Q91.1293 807.583 91.1293 816.527 Q91.1293 819.901 90.3654 823.72 Q89.6015 827.508 88.1056 831.582 L81.4853 831.582 Q83.6814 827.667 84.7954 823.911 Q85.9094 820.155 85.9094 816.527 Q85.9094 811.021 83.7451 808.029 Q81.5808 805.037 77.5704 805.037 Q74.0692 805.037 72.0958 807.201 Q70.1225 809.334 69.1358 814.235 L68.3719 818.15 Q66.9396 825.343 63.8841 828.558 Q60.8285 831.773 55.3859 831.773 Q49.0838 831.773 45.4554 827.349 Q41.8269 822.893 41.8269 815.095 Q41.8269 811.753 42.4317 808.283 Q43.0364 804.814 44.2459 801.186 Z" fill="#000000" fill-rule="evenodd" fill-opacity="1" /><path clip-path="url(#clip710)" d="M82.1218 787.054 L82.1218 780.338 L90.2063 780.338 L90.2063 787.054 L82.1218 787.054 M56.4999 787.054 L56.4999 780.338 L64.5843 780.338 L64.5843 787.054 L56.4999 787.054 Z" fill="#000000" fill-rule="evenodd" fill-opacity="1" /><path clip-path="url(#clip710)" d="M42.6863 745.613 L42.6863 715.567 L48.0971 715.567 L48.0971 739.184 L62.1653 739.184 L62.1653 716.554 L67.5762 716.554 L67.5762 739.184 L84.7954 739.184 L84.7954 714.994 L90.2063 714.994 L90.2063 745.613 L42.6863 745.613 Z" fill="#000000" fill-rule="evenodd" fill-opacity="1" /><path clip-path="url(#clip710)" d="M68.6902 675.049 L90.2063 675.049 L90.2063 680.906 L68.8812 680.906 Q63.8204 680.906 61.306 682.879 Q58.7915 684.852 58.7915 688.799 Q58.7915 693.542 61.8152 696.279 Q64.8389 699.016 70.0588 699.016 L90.2063 699.016 L90.2063 704.904 L54.5583 704.904 L54.5583 699.016 L60.0965 699.016 Q56.8818 696.915 55.2904 694.083 Q53.699 691.218 53.699 687.494 Q53.699 681.351 57.5184 678.2 Q61.306 675.049 68.6902 675.049 Z" fill="#000000" fill-rule="evenodd" fill-opacity="1" /><path clip-path="url(#clip710)" d="M71.9685 639.91 Q65.6028 639.91 62.1017 642.552 Q58.6006 645.162 58.6006 649.905 Q58.6006 654.615 62.1017 657.257 Q65.6028 659.867 71.9685 659.867 Q78.3024 659.867 81.8036 657.257 Q85.3047 654.615 85.3047 649.905 Q85.3047 645.162 81.8036 642.552 Q78.3024 639.91 71.9685 639.91 M85.7821 634.054 Q94.8851 634.054 99.3092 638.096 Q103.765 642.138 103.765 650.478 Q103.765 653.565 103.288 656.302 Q102.842 659.039 101.887 661.617 L96.19 661.617 Q97.5905 659.039 98.2589 656.525 Q98.9273 654.01 98.9273 651.401 Q98.9273 645.64 95.9036 642.775 Q92.9117 639.91 86.8325 639.91 L83.9361 639.91 Q87.0871 641.725 88.6467 644.557 Q90.2063 647.39 90.2063 651.337 Q90.2063 657.894 85.2092 661.904 Q80.2121 665.914 71.9685 665.914 Q63.6931 665.914 58.696 661.904 Q53.699 657.894 53.699 651.337 Q53.699 647.39 55.2586 644.557 Q56.8182 641.725 59.9692 639.91 L54.5583 639.91 L54.5583 634.054 L85.7821 634.054 Z" fill="#000000" fill-rule="evenodd" fill-opacity="1" /><path clip-path="url(#clip710)" d="M40.6811 621.991 L40.6811 616.135 L90.2063 616.135 L90.2063 621.991 L40.6811 621.991 Z" fill="#000000" fill-rule="evenodd" fill-opacity="1" /><path clip-path="url(#clip710)" d="M72.2868 587.68 Q72.2868 594.778 73.9101 597.515 Q75.5333 600.252 79.4482 600.252 Q82.5674 600.252 84.4135 598.215 Q86.2277 596.146 86.2277 592.613 Q86.2277 587.743 82.7902 584.815 Q79.3209 581.855 73.5918 581.855 L72.2868 581.855 L72.2868 587.68 M69.8679 575.999 L90.2063 575.999 L90.2063 581.855 L84.7954 581.855 Q88.0419 583.86 89.6015 586.852 Q91.1293 589.844 91.1293 594.173 Q91.1293 599.647 88.0738 602.894 Q84.9864 606.109 79.8302 606.109 Q73.8146 606.109 70.759 602.098 Q67.7035 598.056 67.7035 590.067 L67.7035 581.855 L67.1306 581.855 Q63.0884 581.855 60.8922 584.529 Q58.6642 587.171 58.6642 591.977 Q58.6642 595.032 59.3963 597.929 Q60.1283 600.825 61.5924 603.499 L56.1816 603.499 Q54.9403 600.284 54.3355 597.26 Q53.699 594.236 53.699 591.372 Q53.699 583.638 57.7094 579.818 Q61.7197 575.999 69.8679 575.999 Z" fill="#000000" fill-rule="evenodd" fill-opacity="1" /><path clip-path="url(#clip710)" d="M68.6902 534.303 L90.2063 534.303 L90.2063 540.16 L68.8812 540.16 Q63.8204 540.16 61.306 542.133 Q58.7915 544.107 58.7915 548.053 Q58.7915 552.796 61.8152 555.533 Q64.8389 558.27 70.0588 558.27 L90.2063 558.27 L90.2063 564.159 L54.5583 564.159 L54.5583 558.27 L60.0965 558.27 Q56.8818 556.17 55.2904 553.337 Q53.699 550.472 53.699 546.748 Q53.699 540.605 57.5184 537.454 Q61.306 534.303 68.6902 534.303 Z" fill="#000000" fill-rule="evenodd" fill-opacity="1" /><path clip-path="url(#clip710)" d="M59.9692 499.165 L40.6811 499.165 L40.6811 493.308 L90.2063 493.308 L90.2063 499.165 L84.8591 499.165 Q88.0419 501.011 89.6015 503.843 Q91.1293 506.644 91.1293 510.591 Q91.1293 517.052 85.9731 521.126 Q80.8169 525.169 72.4141 525.169 Q64.0114 525.169 58.8552 521.126 Q53.699 517.052 53.699 510.591 Q53.699 506.644 55.2586 503.843 Q56.7863 501.011 59.9692 499.165 M72.4141 519.121 Q78.8753 519.121 82.5674 516.479 Q86.2277 513.806 86.2277 509.159 Q86.2277 504.512 82.5674 501.838 Q78.8753 499.165 72.4141 499.165 Q65.9529 499.165 62.2927 501.838 Q58.6006 504.512 58.6006 509.159 Q58.6006 513.806 62.2927 516.479 Q65.9529 519.121 72.4141 519.121 Z" fill="#000000" fill-rule="evenodd" fill-opacity="1" /><path clip-path="url(#clip710)" d="M82.1218 479.749 L82.1218 473.033 L87.5963 473.033 L97.7815 478.253 L97.7815 482.359 L87.5963 479.749 L82.1218 479.749 Z" fill="#000000" fill-rule="evenodd" fill-opacity="1" /><path clip-path="url(#clip710)" d="M44.4369 434.012 L54.5583 434.012 L54.5583 421.949 L59.1098 421.949 L59.1098 434.012 L78.4616 434.012 Q82.8221 434.012 84.0634 432.834 Q85.3047 431.625 85.3047 427.964 L85.3047 421.949 L90.2063 421.949 L90.2063 427.964 Q90.2063 434.744 87.6918 437.322 Q85.1455 439.9 78.4616 439.9 L59.1098 439.9 L59.1098 444.197 L54.5583 444.197 L54.5583 439.9 L44.4369 439.9 L44.4369 434.012 Z" fill="#000000" fill-rule="evenodd" fill-opacity="1" /><path clip-path="url(#clip710)" d="M54.5583 414.246 L54.5583 408.39 L90.2063 408.39 L90.2063 414.246 L54.5583 414.246 M40.6811 414.246 L40.6811 408.39 L48.0971 408.39 L48.0971 414.246 L40.6811 414.246 Z" fill="#000000" fill-rule="evenodd" fill-opacity="1" /><path clip-path="url(#clip710)" d="M61.4015 368.381 Q57.4547 366.185 55.5768 363.13 Q53.699 360.074 53.699 355.936 Q53.699 350.366 57.6139 347.343 Q61.4969 344.319 68.6902 344.319 L90.2063 344.319 L90.2063 350.207 L68.8812 350.207 Q63.7568 350.207 61.2741 352.021 Q58.7915 353.836 58.7915 357.56 Q58.7915 362.111 61.8152 364.753 Q64.8389 367.395 70.0588 367.395 L90.2063 367.395 L90.2063 373.283 L68.8812 373.283 Q63.7249 373.283 61.2741 375.097 Q58.7915 376.911 58.7915 380.699 Q58.7915 385.187 61.8471 387.828 Q64.8708 390.47 70.0588 390.47 L90.2063 390.47 L90.2063 396.359 L54.5583 396.359 L54.5583 390.47 L60.0965 390.47 Q56.8182 388.465 55.2586 385.664 Q53.699 382.863 53.699 379.012 Q53.699 375.129 55.6723 372.423 Q57.6457 369.686 61.4015 368.381 Z" fill="#000000" fill-rule="evenodd" fill-opacity="1" /><path clip-path="url(#clip710)" d="M70.9182 302.146 L73.7828 302.146 L73.7828 329.073 Q79.8302 328.691 83.013 325.445 Q86.1641 322.166 86.1641 316.342 Q86.1641 312.968 85.3365 309.817 Q84.509 306.634 82.8539 303.515 L88.3921 303.515 Q89.7289 306.666 90.4291 309.976 Q91.1293 313.286 91.1293 316.692 Q91.1293 325.222 86.1641 330.219 Q81.1988 335.184 72.7324 335.184 Q63.9796 335.184 58.8552 330.473 Q53.699 325.731 53.699 317.71 Q53.699 310.517 58.3459 306.347 Q62.9611 302.146 70.9182 302.146 M69.1995 308.002 Q64.3933 308.066 61.5288 310.708 Q58.6642 313.318 58.6642 317.647 Q58.6642 322.548 61.4333 325.508 Q64.2024 328.436 69.2313 328.882 L69.1995 308.002 Z" fill="#000000" fill-rule="evenodd" fill-opacity="1" /><path clip-path="url(#clip710)" d="M82.1218 291.038 L82.1218 284.322 L90.2063 284.322 L90.2063 291.038 L82.1218 291.038 M56.4999 291.038 L56.4999 284.322 L64.5843 284.322 L64.5843 291.038 L56.4999 291.038 Z" fill="#000000" fill-rule="evenodd" fill-opacity="1" /><path clip-path="url(#clip710)" d="M42.6863 269.681 L42.6863 244.441 L48.0971 244.441 L48.0971 263.793 L59.7464 263.793 Q59.2689 262.392 59.0461 260.992 Q58.7915 259.591 58.7915 258.191 Q58.7915 250.234 63.152 245.587 Q67.5125 240.94 74.9604 240.94 Q82.6311 240.94 86.8961 245.714 Q91.1293 250.488 91.1293 259.178 Q91.1293 262.169 90.6201 265.289 Q90.1108 268.376 89.0923 271.686 L82.6311 271.686 Q84.1907 268.822 84.9546 265.766 Q85.7185 262.71 85.7185 259.305 Q85.7185 253.799 82.8221 250.584 Q79.9257 247.369 74.9604 247.369 Q69.9952 247.369 67.0988 250.584 Q64.2024 253.799 64.2024 259.305 Q64.2024 261.883 64.7753 264.461 Q65.3482 267.007 66.5577 269.681 L42.6863 269.681 Z" fill="#000000" fill-rule="evenodd" fill-opacity="1" /><path clip-path="url(#clip710)" d="M46.9195 214.522 Q46.9195 219.487 51.8211 222.002 Q56.6908 224.484 66.494 224.484 Q76.2654 224.484 81.167 222.002 Q86.0367 219.487 86.0367 214.522 Q86.0367 209.525 81.167 207.042 Q76.2654 204.528 66.494 204.528 Q56.6908 204.528 51.8211 207.042 Q46.9195 209.525 46.9195 214.522 M41.8269 214.522 Q41.8269 206.533 48.1608 202.332 Q54.4628 198.099 66.494 198.099 Q78.4934 198.099 84.8273 202.332 Q91.1293 206.533 91.1293 214.522 Q91.1293 222.511 84.8273 226.744 Q78.4934 230.946 66.494 230.946 Q54.4628 230.946 48.1608 226.744 Q41.8269 222.511 41.8269 214.522 Z" fill="#000000" fill-rule="evenodd" fill-opacity="1" /><polyline clip-path="url(#clip712)" style="stroke:#009af9; stroke-linecap:round; stroke-linejoin:round; stroke-width:4; stroke-opacity:1; fill:none" points="
  350.696,517.115 361.004,226.161 371.311,226.007 381.618,221.032 391.926,129.898 402.233,187.272 412.54,218.59 422.848,208.357 433.155,185.747 443.462,216.196 
  453.77,165.434 464.077,184.148 474.384,164.454 484.691,201.498 494.999,239.549 505.306,177.025 515.613,165.563 525.921,197.101 536.228,208.882 546.535,150.913 
  556.843,139.131 567.15,182.421 577.457,169.05 587.765,185.382 598.072,178.486 608.379,179.845 618.687,209.904 628.994,208.287 639.301,120.321 649.609,160.166 
  659.916,198.068 670.223,202.016 680.531,181.739 690.838,220.986 701.145,223.338 711.453,173.846 721.76,174.597 732.067,205.465 742.374,228.411 752.682,224.402 
  762.989,163.389 773.296,211.992 783.604,187.499 793.911,229.562 804.218,145.817 814.526,170.331 824.833,128.76 835.14,180.999 845.448,153.482 855.755,197.37 
  866.062,110.236 876.37,203.66 886.677,187.221 896.984,196.08 907.292,194.669 917.599,220.517 927.906,184.562 938.214,173.491 948.521,146.303 958.828,191.162 
  969.136,219.322 979.443,163.529 989.75,221.367 1000.06,163.143 1010.36,179.656 1020.67,194.764 1030.98,214.903 1041.29,206.13 1051.59,213.882 1061.9,233.668 
  1072.21,137.783 1082.52,223.085 1092.82,144.79 1103.13,190.339 1113.44,208.763 1123.75,164.738 1134.05,177.435 1144.36,229.172 1154.67,217.028 1164.97,215.541 
  1175.28,177.14 1185.59,187.582 1195.9,177.996 1206.2,236.777 1216.51,185.841 1226.82,223.666 1237.13,146.699 1247.43,207.908 1257.74,177.134 1268.05,146.474 
  1278.36,208.716 1288.66,213.196 1298.97,232.834 1309.28,181.382 1319.58,163.701 1329.89,188.572 1340.2,237.755 1350.51,210.218 1360.81,127.195 1371.12,232.953 
  1381.43,162.989 1391.74,211.267 1402.04,189.002 1412.35,180.559 1422.66,190.806 1432.97,154.19 1443.27,186.516 1453.58,172.396 1463.89,230.895 1474.19,170.127 
  1484.5,129.334 1494.81,203.217 1505.12,161.99 1515.42,192.942 1525.73,193.195 1536.04,224.494 1546.35,190.531 1556.65,221.65 1566.96,221.329 1577.27,209.973 
  1587.57,197.737 1597.88,157.21 1608.19,186.065 1618.5,198.358 1628.8,182.619 1639.11,224.513 1649.42,140.97 1659.73,202.748 1670.03,219.453 1680.34,190.488 
  1690.65,197.674 1700.96,175.903 1711.26,211.377 1721.57,220.19 1731.88,218.528 1742.18,178.878 1752.49,166.241 1762.8,187.022 1773.11,207.575 1783.41,172.091 
  1793.72,176.609 1804.03,187.467 1814.34,202.429 1824.64,146.93 1834.95,163.452 1845.26,191.85 1855.57,216.18 1865.87,169.685 1876.18,206.788 1886.49,152.393 
  1896.79,139.324 1907.1,112.25 1917.41,217.69 1927.72,224.691 1938.02,179.369 1948.33,122.251 1958.64,185.854 1968.95,181.425 1979.25,161.651 1989.56,225.213 
  1999.87,187.121 2010.17,217.631 2020.48,166.816 2030.79,159.547 2041.1,196.693 2051.4,214.584 2061.71,172.719 2072.02,204.885 2082.33,197.138 2092.63,209.503 
  2102.94,197.352 2113.25,201.631 2123.56,148.014 2133.86,158.675 2144.17,234.005 2154.48,137.35 2164.78,149.875 2175.09,165.398 2185.4,170.602 2195.71,144.611 
  2206.01,185.427 2216.32,162.866 2226.63,146.784 2236.94,177.978 2247.24,161.057 2257.55,182.314 2267.86,166.892 2278.17,171.426 2288.47,175.513 2298.78,162.347 
  2309.09,187.292 2319.39,185.436 2329.7,171.677 2340.01,156.141 2350.32,175.079 2360.62,168.633 2370.93,189.446 2381.24,140.44 2391.55,171.991 2401.85,161.019 
  2412.16,242.958 2422.47,167.443 2432.78,150.531 2443.08,176.111 2453.39,185.719 2463.7,178.722 2474,212.818 2484.31,174.429 2494.62,182.749 2504.93,180.116 
  2515.23,212.707 2525.54,140.018 2535.85,187.02 2546.16,205.152 2556.46,158.055 2566.77,206.611 2577.08,165.492 2587.38,175.965 2597.69,178.701 2608,197.628 
  2618.31,156.277 2628.61,171.701 2638.92,198.495 2649.23,185.817 2659.54,172.91 2669.84,171.614 2680.15,207.932 2690.46,155.607 2700.77,141.152 2711.07,185.836 
  2721.38,221.246 2731.69,174.996 2741.99,186.767 2752.3,211.988 2762.61,175.315 2772.92,203.649 2783.22,219.357 2793.53,175.552 2803.84,165.261 2814.15,181.481 
  2824.45,207.078 2834.76,183.606 2845.07,183.727 2855.38,190.372 2865.68,177.694 2875.99,185.329 2886.3,177.872 2896.6,208.528 2906.91,198.21 2917.22,156.293 
  2927.53,142.449 2937.83,123.736 2948.14,171.395 2958.45,203.082 2968.76,199.92 2979.06,214.809 2989.37,204.359 2999.68,175.621 3009.99,165.125 
  "/>
</svg>
