<?xml version="1.0" encoding="utf-8"?>
<svg xmlns="http://www.w3.org/2000/svg" xmlns:xlink="http://www.w3.org/1999/xlink" width="800" height="300" viewBox="0 0 3200 1200">
<defs>
  <clipPath id="clip130">
    <rect x="0" y="0" width="3200" height="1200"/>
  </clipPath>
</defs>
<path clip-path="url(#clip130)" d="
M0 1200 L3200 1200 L3200 0 L0 0  Z
  " fill="#ffffff" fill-rule="evenodd" fill-opacity="1"/>
<defs>
  <clipPath id="clip131">
    <rect x="640" y="0" width="2241" height="1200"/>
  </clipPath>
</defs>
<path clip-path="url(#clip130)" d="
M270.918 1000.1 L3089.76 1000.1 L3089.76 110.236 L270.918 110.236  Z
  " fill="#ffffff" fill-rule="evenodd" fill-opacity="1"/>
<defs>
  <clipPath id="clip132">
    <rect x="270" y="110" width="2820" height="891"/>
  </clipPath>
</defs>
<polyline clip-path="url(#clip132)" style="stroke:#000000; stroke-linecap:round; stroke-linejoin:round; stroke-width:2; stroke-opacity:0.1; fill:none" points="
  340.546,1000.1 340.546,110.236 
  "/>
<polyline clip-path="url(#clip132)" style="stroke:#000000; stroke-linecap:round; stroke-linejoin:round; stroke-width:2; stroke-opacity:0.1; fill:none" points="
  848.044,1000.1 848.044,110.236 
  "/>
<polyline clip-path="url(#clip132)" style="stroke:#000000; stroke-linecap:round; stroke-linejoin:round; stroke-width:2; stroke-opacity:0.1; fill:none" points="
  1355.54,1000.1 1355.54,110.236 
  "/>
<polyline clip-path="url(#clip132)" style="stroke:#000000; stroke-linecap:round; stroke-linejoin:round; stroke-width:2; stroke-opacity:0.1; fill:none" points="
  1863.04,1000.1 1863.04,110.236 
  "/>
<polyline clip-path="url(#clip132)" style="stroke:#000000; stroke-linecap:round; stroke-linejoin:round; stroke-width:2; stroke-opacity:0.1; fill:none" points="
  2370.54,1000.1 2370.54,110.236 
  "/>
<polyline clip-path="url(#clip132)" style="stroke:#000000; stroke-linecap:round; stroke-linejoin:round; stroke-width:2; stroke-opacity:0.1; fill:none" points="
  2878.04,1000.1 2878.04,110.236 
  "/>
<polyline clip-path="url(#clip130)" style="stroke:#000000; stroke-linecap:round; stroke-linejoin:round; stroke-width:4; stroke-opacity:1; fill:none" points="
  270.918,1000.1 3089.76,1000.1 
  "/>
<polyline clip-path="url(#clip130)" style="stroke:#000000; stroke-linecap:round; stroke-linejoin:round; stroke-width:4; stroke-opacity:1; fill:none" points="
  340.546,1000.1 340.546,981.2 
  "/>
<polyline clip-path="url(#clip130)" style="stroke:#000000; stroke-linecap:round; stroke-linejoin:round; stroke-width:4; stroke-opacity:1; fill:none" points="
  848.044,1000.1 848.044,981.2 
  "/>
<polyline clip-path="url(#clip130)" style="stroke:#000000; stroke-linecap:round; stroke-linejoin:round; stroke-width:4; stroke-opacity:1; fill:none" points="
  1355.54,1000.1 1355.54,981.2 
  "/>
<polyline clip-path="url(#clip130)" style="stroke:#000000; stroke-linecap:round; stroke-linejoin:round; stroke-width:4; stroke-opacity:1; fill:none" points="
  1863.04,1000.1 1863.04,981.2 
  "/>
<polyline clip-path="url(#clip130)" style="stroke:#000000; stroke-linecap:round; stroke-linejoin:round; stroke-width:4; stroke-opacity:1; fill:none" points="
  2370.54,1000.1 2370.54,981.2 
  "/>
<polyline clip-path="url(#clip130)" style="stroke:#000000; stroke-linecap:round; stroke-linejoin:round; stroke-width:4; stroke-opacity:1; fill:none" points="
  2878.04,1000.1 2878.04,981.2 
  "/>
<path clip-path="url(#clip130)" d="M340.546 1037.42 Q336.935 1037.42 335.107 1040.98 Q333.301 1044.52 333.301 1051.65 Q333.301 1058.76 335.107 1062.32 Q336.935 1065.87 340.546 1065.87 Q344.181 1065.87 345.986 1062.32 Q347.815 1058.76 347.815 1051.65 Q347.815 1044.52 345.986 1040.98 Q344.181 1037.42 340.546 1037.42 M340.546 1033.71 Q346.356 1033.71 349.412 1038.32 Q352.491 1042.9 352.491 1051.65 Q352.491 1060.38 349.412 1064.99 Q346.356 1069.57 340.546 1069.57 Q334.736 1069.57 331.658 1064.99 Q328.602 1060.38 328.602 1051.65 Q328.602 1042.9 331.658 1038.32 Q334.736 1033.71 340.546 1033.71 Z" fill="#000000" fill-rule="evenodd" fill-opacity="1" /><path clip-path="url(#clip130)" d="M822.743 1034.34 L841.1 1034.34 L841.1 1038.27 L827.026 1038.27 L827.026 1046.75 Q828.044 1046.4 829.063 1046.24 Q830.081 1046.05 831.1 1046.05 Q836.887 1046.05 840.266 1049.22 Q843.646 1052.39 843.646 1057.81 Q843.646 1063.39 840.174 1066.49 Q836.702 1069.57 830.382 1069.57 Q828.206 1069.57 825.938 1069.2 Q823.692 1068.83 821.285 1068.09 L821.285 1063.39 Q823.368 1064.52 825.591 1065.08 Q827.813 1065.63 830.29 1065.63 Q834.294 1065.63 836.632 1063.53 Q838.97 1061.42 838.97 1057.81 Q838.97 1054.2 836.632 1052.09 Q834.294 1049.99 830.29 1049.99 Q828.415 1049.99 826.54 1050.4 Q824.688 1050.82 822.743 1051.7 L822.743 1034.34 Z" fill="#000000" fill-rule="evenodd" fill-opacity="1" /><path clip-path="url(#clip130)" d="M862.859 1037.42 Q859.248 1037.42 857.419 1040.98 Q855.614 1044.52 855.614 1051.65 Q855.614 1058.76 857.419 1062.32 Q859.248 1065.87 862.859 1065.87 Q866.493 1065.87 868.299 1062.32 Q870.127 1058.76 870.127 1051.65 Q870.127 1044.52 868.299 1040.98 Q866.493 1037.42 862.859 1037.42 M862.859 1033.71 Q868.669 1033.71 871.725 1038.32 Q874.803 1042.9 874.803 1051.65 Q874.803 1060.38 871.725 1064.99 Q868.669 1069.57 862.859 1069.57 Q857.049 1069.57 853.97 1064.99 Q850.915 1060.38 850.915 1051.65 Q850.915 1042.9 853.97 1038.32 Q857.049 1033.71 862.859 1033.71 Z" fill="#000000" fill-rule="evenodd" fill-opacity="1" /><path clip-path="url(#clip130)" d="M1315.15 1064.96 L1322.79 1064.96 L1322.79 1038.6 L1314.48 1040.26 L1314.48 1036 L1322.74 1034.34 L1327.42 1034.34 L1327.42 1064.96 L1335.06 1064.96 L1335.06 1068.9 L1315.15 1068.9 L1315.15 1064.96 Z" fill="#000000" fill-rule="evenodd" fill-opacity="1" /><path clip-path="url(#clip130)" d="M1354.5 1037.42 Q1350.89 1037.42 1349.06 1040.98 Q1347.26 1044.52 1347.26 1051.65 Q1347.26 1058.76 1349.06 1062.32 Q1350.89 1065.87 1354.5 1065.87 Q1358.13 1065.87 1359.94 1062.32 Q1361.77 1058.76 1361.77 1051.65 Q1361.77 1044.52 1359.94 1040.98 Q1358.13 1037.42 1354.5 1037.42 M1354.5 1033.71 Q1360.31 1033.71 1363.37 1038.32 Q1366.44 1042.9 1366.44 1051.65 Q1366.44 1060.38 1363.37 1064.99 Q1360.31 1069.57 1354.5 1069.57 Q1348.69 1069.57 1345.61 1064.99 Q1342.56 1060.38 1342.56 1051.65 Q1342.56 1042.9 1345.61 1038.32 Q1348.69 1033.71 1354.5 1033.71 Z" fill="#000000" fill-rule="evenodd" fill-opacity="1" /><path clip-path="url(#clip130)" d="M1384.66 1037.42 Q1381.05 1037.42 1379.22 1040.98 Q1377.42 1044.52 1377.42 1051.65 Q1377.42 1058.76 1379.22 1062.32 Q1381.05 1065.87 1384.66 1065.87 Q1388.3 1065.87 1390.1 1062.32 Q1391.93 1058.76 1391.93 1051.65 Q1391.93 1044.52 1390.1 1040.98 Q1388.3 1037.42 1384.66 1037.42 M1384.66 1033.71 Q1390.47 1033.71 1393.53 1038.32 Q1396.61 1042.9 1396.61 1051.65 Q1396.61 1060.38 1393.53 1064.99 Q1390.47 1069.57 1384.66 1069.57 Q1378.85 1069.57 1375.77 1064.99 Q1372.72 1060.38 1372.72 1051.65 Q1372.72 1042.9 1375.77 1038.32 Q1378.85 1033.71 1384.66 1033.71 Z" fill="#000000" fill-rule="evenodd" fill-opacity="1" /><path clip-path="url(#clip130)" d="M1822.65 1064.96 L1830.29 1064.96 L1830.29 1038.6 L1821.98 1040.26 L1821.98 1036 L1830.24 1034.34 L1834.92 1034.34 L1834.92 1064.96 L1842.55 1064.96 L1842.55 1068.9 L1822.65 1068.9 L1822.65 1064.96 Z" fill="#000000" fill-rule="evenodd" fill-opacity="1" /><path clip-path="url(#clip130)" d="M1852.04 1034.34 L1870.4 1034.34 L1870.4 1038.27 L1856.33 1038.27 L1856.33 1046.75 Q1857.35 1046.4 1858.36 1046.24 Q1859.38 1046.05 1860.4 1046.05 Q1866.19 1046.05 1869.57 1049.22 Q1872.95 1052.39 1872.95 1057.81 Q1872.95 1063.39 1869.48 1066.49 Q1866 1069.57 1859.68 1069.57 Q1857.51 1069.57 1855.24 1069.2 Q1852.99 1068.83 1850.59 1068.09 L1850.59 1063.39 Q1852.67 1064.52 1854.89 1065.08 Q1857.11 1065.63 1859.59 1065.63 Q1863.6 1065.63 1865.93 1063.53 Q1868.27 1061.42 1868.27 1057.81 Q1868.27 1054.2 1865.93 1052.09 Q1863.6 1049.99 1859.59 1049.99 Q1857.72 1049.99 1855.84 1050.4 Q1853.99 1050.82 1852.04 1051.7 L1852.04 1034.34 Z" fill="#000000" fill-rule="evenodd" fill-opacity="1" /><path clip-path="url(#clip130)" d="M1892.16 1037.42 Q1888.55 1037.42 1886.72 1040.98 Q1884.91 1044.52 1884.91 1051.65 Q1884.91 1058.76 1886.72 1062.32 Q1888.55 1065.87 1892.16 1065.87 Q1895.79 1065.87 1897.6 1062.32 Q1899.43 1058.76 1899.43 1051.65 Q1899.43 1044.52 1897.6 1040.98 Q1895.79 1037.42 1892.16 1037.42 M1892.16 1033.71 Q1897.97 1033.71 1901.03 1038.32 Q1904.1 1042.9 1904.1 1051.65 Q1904.1 1060.38 1901.03 1064.99 Q1897.97 1069.57 1892.16 1069.57 Q1886.35 1069.57 1883.27 1064.99 Q1880.22 1060.38 1880.22 1051.65 Q1880.22 1042.9 1883.27 1038.32 Q1886.35 1033.71 1892.16 1033.71 Z" fill="#000000" fill-rule="evenodd" fill-opacity="1" /><path clip-path="url(#clip130)" d="M2334.23 1064.96 L2350.55 1064.96 L2350.55 1068.9 L2328.61 1068.9 L2328.61 1064.96 Q2331.27 1062.21 2335.85 1057.58 Q2340.46 1052.93 2341.64 1051.58 Q2343.88 1049.06 2344.76 1047.32 Q2345.67 1045.56 2345.67 1043.87 Q2345.67 1041.12 2343.72 1039.38 Q2341.8 1037.65 2338.7 1037.65 Q2336.5 1037.65 2334.04 1038.41 Q2331.61 1039.18 2328.84 1040.73 L2328.84 1036 Q2331.66 1034.87 2334.11 1034.29 Q2336.57 1033.71 2338.61 1033.71 Q2343.98 1033.71 2347.17 1036.4 Q2350.36 1039.08 2350.36 1043.57 Q2350.36 1045.7 2349.55 1047.62 Q2348.77 1049.52 2346.66 1052.12 Q2346.08 1052.79 2342.98 1056 Q2339.88 1059.2 2334.23 1064.96 Z" fill="#000000" fill-rule="evenodd" fill-opacity="1" /><path clip-path="url(#clip130)" d="M2370.36 1037.42 Q2366.75 1037.42 2364.92 1040.98 Q2363.12 1044.52 2363.12 1051.65 Q2363.12 1058.76 2364.92 1062.32 Q2366.75 1065.87 2370.36 1065.87 Q2374 1065.87 2375.8 1062.32 Q2377.63 1058.76 2377.63 1051.65 Q2377.63 1044.52 2375.8 1040.98 Q2374 1037.42 2370.36 1037.42 M2370.36 1033.71 Q2376.17 1033.71 2379.23 1038.32 Q2382.31 1042.9 2382.31 1051.65 Q2382.31 1060.38 2379.23 1064.99 Q2376.17 1069.57 2370.36 1069.57 Q2364.55 1069.57 2361.48 1064.99 Q2358.42 1060.38 2358.42 1051.65 Q2358.42 1042.9 2361.48 1038.32 Q2364.55 1033.71 2370.36 1033.71 Z" fill="#000000" fill-rule="evenodd" fill-opacity="1" /><path clip-path="url(#clip130)" d="M2400.53 1037.42 Q2396.91 1037.42 2395.09 1040.98 Q2393.28 1044.52 2393.28 1051.65 Q2393.28 1058.76 2395.09 1062.32 Q2396.91 1065.87 2400.53 1065.87 Q2404.16 1065.87 2405.97 1062.32 Q2407.79 1058.76 2407.79 1051.65 Q2407.79 1044.52 2405.97 1040.98 Q2404.16 1037.42 2400.53 1037.42 M2400.53 1033.71 Q2406.34 1033.71 2409.39 1038.32 Q2412.47 1042.9 2412.47 1051.65 Q2412.47 1060.38 2409.39 1064.99 Q2406.34 1069.57 2400.53 1069.57 Q2394.72 1069.57 2391.64 1064.99 Q2388.58 1060.38 2388.58 1051.65 Q2388.58 1042.9 2391.64 1038.32 Q2394.72 1033.71 2400.53 1033.71 Z" fill="#000000" fill-rule="evenodd" fill-opacity="1" /><path clip-path="url(#clip130)" d="M2841.73 1064.96 L2858.05 1064.96 L2858.05 1068.9 L2836.1 1068.9 L2836.1 1064.96 Q2838.77 1062.21 2843.35 1057.58 Q2847.95 1052.93 2849.14 1051.58 Q2851.38 1049.06 2852.26 1047.32 Q2853.16 1045.56 2853.16 1043.87 Q2853.16 1041.12 2851.22 1039.38 Q2849.3 1037.65 2846.2 1037.65 Q2844 1037.65 2841.54 1038.41 Q2839.11 1039.18 2836.33 1040.73 L2836.33 1036 Q2839.16 1034.87 2841.61 1034.29 Q2844.07 1033.71 2846.1 1033.71 Q2851.47 1033.71 2854.67 1036.4 Q2857.86 1039.08 2857.86 1043.57 Q2857.86 1045.7 2857.05 1047.62 Q2856.26 1049.52 2854.16 1052.12 Q2853.58 1052.79 2850.48 1056 Q2847.38 1059.2 2841.73 1064.96 Z" fill="#000000" fill-rule="evenodd" fill-opacity="1" /><path clip-path="url(#clip130)" d="M2867.91 1034.34 L2886.26 1034.34 L2886.26 1038.27 L2872.19 1038.27 L2872.19 1046.75 Q2873.21 1046.4 2874.23 1046.24 Q2875.25 1046.05 2876.26 1046.05 Q2882.05 1046.05 2885.43 1049.22 Q2888.81 1052.39 2888.81 1057.81 Q2888.81 1063.39 2885.34 1066.49 Q2881.87 1069.57 2875.55 1069.57 Q2873.37 1069.57 2871.1 1069.2 Q2868.86 1068.83 2866.45 1068.09 L2866.45 1063.39 Q2868.53 1064.52 2870.76 1065.08 Q2872.98 1065.63 2875.45 1065.63 Q2879.46 1065.63 2881.8 1063.53 Q2884.14 1061.42 2884.14 1057.81 Q2884.14 1054.2 2881.8 1052.09 Q2879.46 1049.99 2875.45 1049.99 Q2873.58 1049.99 2871.7 1050.4 Q2869.85 1050.82 2867.91 1051.7 L2867.91 1034.34 Z" fill="#000000" fill-rule="evenodd" fill-opacity="1" /><path clip-path="url(#clip130)" d="M2908.02 1037.42 Q2904.41 1037.42 2902.58 1040.98 Q2900.78 1044.52 2900.78 1051.65 Q2900.78 1058.76 2902.58 1062.32 Q2904.41 1065.87 2908.02 1065.87 Q2911.66 1065.87 2913.46 1062.32 Q2915.29 1058.76 2915.29 1051.65 Q2915.29 1044.52 2913.46 1040.98 Q2911.66 1037.42 2908.02 1037.42 M2908.02 1033.71 Q2913.83 1033.71 2916.89 1038.32 Q2919.97 1042.9 2919.97 1051.65 Q2919.97 1060.38 2916.89 1064.99 Q2913.83 1069.57 2908.02 1069.57 Q2902.21 1069.57 2899.14 1064.99 Q2896.08 1060.38 2896.08 1051.65 Q2896.08 1042.9 2899.14 1038.32 Q2902.21 1033.71 2908.02 1033.71 Z" fill="#000000" fill-rule="evenodd" fill-opacity="1" /><path clip-path="url(#clip130)" d="M1556.64 1109.44 L1563.07 1109.44 L1563.07 1151.55 L1586.21 1151.55 L1586.21 1156.96 L1556.64 1156.96 L1556.64 1109.44 Z" fill="#000000" fill-rule="evenodd" fill-opacity="1" /><path clip-path="url(#clip130)" d="M1592.7 1121.31 L1598.56 1121.31 L1598.56 1156.96 L1592.7 1156.96 L1592.7 1121.31 M1592.7 1107.44 L1598.56 1107.44 L1598.56 1114.85 L1592.7 1114.85 L1592.7 1107.44 Z" fill="#000000" fill-rule="evenodd" fill-opacity="1" /><path clip-path="url(#clip130)" d="M1640.44 1135.45 L1640.44 1156.96 L1634.59 1156.96 L1634.59 1135.64 Q1634.59 1130.58 1632.61 1128.06 Q1630.64 1125.55 1626.69 1125.55 Q1621.95 1125.55 1619.21 1128.57 Q1616.48 1131.59 1616.48 1136.81 L1616.48 1156.96 L1610.59 1156.96 L1610.59 1121.31 L1616.48 1121.31 L1616.48 1126.85 Q1618.58 1123.64 1621.41 1122.05 Q1624.27 1120.45 1628 1120.45 Q1634.14 1120.45 1637.29 1124.27 Q1640.44 1128.06 1640.44 1135.45 Z" fill="#000000" fill-rule="evenodd" fill-opacity="1" /><path clip-path="url(#clip130)" d="M1682.62 1137.67 L1682.62 1140.54 L1655.69 1140.54 Q1656.07 1146.59 1659.32 1149.77 Q1662.6 1152.92 1668.42 1152.92 Q1671.79 1152.92 1674.95 1152.09 Q1678.13 1151.26 1681.25 1149.61 L1681.25 1155.15 Q1678.1 1156.48 1674.79 1157.18 Q1671.48 1157.88 1668.07 1157.88 Q1659.54 1157.88 1654.54 1152.92 Q1649.58 1147.95 1649.58 1139.49 Q1649.58 1130.74 1654.29 1125.61 Q1659.03 1120.45 1667.05 1120.45 Q1674.25 1120.45 1678.42 1125.1 Q1682.62 1129.72 1682.62 1137.67 M1676.76 1135.95 Q1676.7 1131.15 1674.05 1128.28 Q1671.44 1125.42 1667.12 1125.42 Q1662.21 1125.42 1659.25 1128.19 Q1656.33 1130.96 1655.88 1135.99 L1676.76 1135.95 Z" fill="#000000" fill-rule="evenodd" fill-opacity="1" /><path clip-path="url(#clip130)" d="M1708.43 1139.04 Q1701.33 1139.04 1698.59 1140.67 Q1695.86 1142.29 1695.86 1146.2 Q1695.86 1149.32 1697.89 1151.17 Q1699.96 1152.98 1703.5 1152.98 Q1708.37 1152.98 1711.29 1149.55 Q1714.25 1146.08 1714.25 1140.35 L1714.25 1139.04 L1708.43 1139.04 M1720.11 1136.62 L1720.11 1156.96 L1714.25 1156.96 L1714.25 1151.55 Q1712.25 1154.8 1709.26 1156.36 Q1706.27 1157.88 1701.94 1157.88 Q1696.46 1157.88 1693.22 1154.83 Q1690 1151.74 1690 1146.59 Q1690 1140.57 1694.01 1137.51 Q1698.05 1134.46 1706.04 1134.46 L1714.25 1134.46 L1714.25 1133.89 Q1714.25 1129.84 1711.58 1127.65 Q1708.94 1125.42 1704.13 1125.42 Q1701.08 1125.42 1698.18 1126.15 Q1695.28 1126.88 1692.61 1128.35 L1692.61 1122.94 Q1695.83 1121.7 1698.85 1121.09 Q1701.87 1120.45 1704.74 1120.45 Q1712.47 1120.45 1716.29 1124.46 Q1720.11 1128.48 1720.11 1136.62 Z" fill="#000000" fill-rule="evenodd" fill-opacity="1" /><path clip-path="url(#clip130)" d="M1755.63 1138.72 Q1755.63 1132.36 1752.99 1128.86 Q1750.38 1125.36 1745.64 1125.36 Q1740.93 1125.36 1738.28 1128.86 Q1735.67 1132.36 1735.67 1138.72 Q1735.67 1145.06 1738.28 1148.56 Q1740.93 1152.06 1745.64 1152.06 Q1750.38 1152.06 1752.99 1148.56 Q1755.63 1145.06 1755.63 1138.72 M1761.49 1152.54 Q1761.49 1161.64 1757.45 1166.06 Q1753.4 1170.52 1745.06 1170.52 Q1741.98 1170.52 1739.24 1170.04 Q1736.5 1169.6 1733.92 1168.64 L1733.92 1162.95 Q1736.5 1164.35 1739.02 1165.01 Q1741.53 1165.68 1744.14 1165.68 Q1749.9 1165.68 1752.77 1162.66 Q1755.63 1159.67 1755.63 1153.59 L1755.63 1150.69 Q1753.82 1153.84 1750.98 1155.4 Q1748.15 1156.96 1744.2 1156.96 Q1737.65 1156.96 1733.64 1151.96 Q1729.63 1146.97 1729.63 1138.72 Q1729.63 1130.45 1733.64 1125.45 Q1737.65 1120.45 1744.2 1120.45 Q1748.15 1120.45 1750.98 1122.01 Q1753.82 1123.57 1755.63 1126.72 L1755.63 1121.31 L1761.49 1121.31 L1761.49 1152.54 Z" fill="#000000" fill-rule="evenodd" fill-opacity="1" /><path clip-path="url(#clip130)" d="M1804.04 1137.67 L1804.04 1140.54 L1777.12 1140.54 Q1777.5 1146.59 1780.74 1149.77 Q1784.02 1152.92 1789.85 1152.92 Q1793.22 1152.92 1796.37 1152.09 Q1799.55 1151.26 1802.67 1149.61 L1802.67 1155.15 Q1799.52 1156.48 1796.21 1157.18 Q1792.9 1157.88 1789.5 1157.88 Q1780.97 1157.88 1775.97 1152.92 Q1771 1147.95 1771 1139.49 Q1771 1130.74 1775.71 1125.61 Q1780.46 1120.45 1788.48 1120.45 Q1795.67 1120.45 1799.84 1125.1 Q1804.04 1129.72 1804.04 1137.67 M1798.19 1135.95 Q1798.12 1131.15 1795.48 1128.28 Q1792.87 1125.42 1788.54 1125.42 Q1783.64 1125.42 1780.68 1128.19 Q1777.75 1130.96 1777.31 1135.99 L1798.19 1135.95 Z" fill="#000000" fill-rule="evenodd" fill-opacity="1" /><polyline clip-path="url(#clip132)" style="stroke:#000000; stroke-linecap:round; stroke-linejoin:round; stroke-width:2; stroke-opacity:0.1; fill:none" points="
  270.918,1000.1 3089.76,1000.1 
  "/>
<polyline clip-path="url(#clip132)" style="stroke:#000000; stroke-linecap:round; stroke-linejoin:round; stroke-width:2; stroke-opacity:0.1; fill:none" points="
  270.918,673.526 3089.76,673.526 
  "/>
<polyline clip-path="url(#clip132)" style="stroke:#000000; stroke-linecap:round; stroke-linejoin:round; stroke-width:2; stroke-opacity:0.1; fill:none" points="
  270.918,346.954 3089.76,346.954 
  "/>
<polyline clip-path="url(#clip130)" style="stroke:#000000; stroke-linecap:round; stroke-linejoin:round; stroke-width:4; stroke-opacity:1; fill:none" points="
  270.918,1000.1 270.918,110.236 
  "/>
<polyline clip-path="url(#clip130)" style="stroke:#000000; stroke-linecap:round; stroke-linejoin:round; stroke-width:4; stroke-opacity:1; fill:none" points="
  270.918,1000.1 289.815,1000.1 
  "/>
<polyline clip-path="url(#clip130)" style="stroke:#000000; stroke-linecap:round; stroke-linejoin:round; stroke-width:4; stroke-opacity:1; fill:none" points="
  270.918,673.526 289.815,673.526 
  "/>
<polyline clip-path="url(#clip130)" style="stroke:#000000; stroke-linecap:round; stroke-linejoin:round; stroke-width:4; stroke-opacity:1; fill:none" points="
  270.918,346.954 289.815,346.954 
  "/>
<path clip-path="url(#clip130)" d="M154.902 1019.89 L162.54 1019.89 L162.54 993.525 L154.23 995.191 L154.23 990.932 L162.494 989.265 L167.17 989.265 L167.17 1019.89 L174.809 1019.89 L174.809 1023.83 L154.902 1023.83 L154.902 1019.89 Z" fill="#000000" fill-rule="evenodd" fill-opacity="1" /><path clip-path="url(#clip130)" d="M194.253 992.344 Q190.642 992.344 188.813 995.909 Q187.008 999.45 187.008 1006.58 Q187.008 1013.69 188.813 1017.25 Q190.642 1020.79 194.253 1020.79 Q197.887 1020.79 199.693 1017.25 Q201.522 1013.69 201.522 1006.58 Q201.522 999.45 199.693 995.909 Q197.887 992.344 194.253 992.344 M194.253 988.64 Q200.063 988.64 203.119 993.247 Q206.198 997.83 206.198 1006.58 Q206.198 1015.31 203.119 1019.91 Q200.063 1024.5 194.253 1024.5 Q188.443 1024.5 185.364 1019.91 Q182.309 1015.31 182.309 1006.58 Q182.309 997.83 185.364 993.247 Q188.443 988.64 194.253 988.64 Z" fill="#000000" fill-rule="evenodd" fill-opacity="1" /><path clip-path="url(#clip130)" d="M206.743 993.218 L212.95 993.218 L212.95 971.796 L206.198 973.15 L206.198 969.689 L212.912 968.335 L216.711 968.335 L216.711 993.218 L222.918 993.218 L222.918 996.415 L206.743 996.415 L206.743 993.218 Z" fill="#000000" fill-rule="evenodd" fill-opacity="1" /><path clip-path="url(#clip130)" d="M153.792 693.318 L161.431 693.318 L161.431 666.952 L153.121 668.619 L153.121 664.36 L161.384 662.693 L166.06 662.693 L166.06 693.318 L173.699 693.318 L173.699 697.253 L153.792 697.253 L153.792 693.318 Z" fill="#000000" fill-rule="evenodd" fill-opacity="1" /><path clip-path="url(#clip130)" d="M193.143 665.772 Q189.532 665.772 187.704 669.337 Q185.898 672.878 185.898 680.008 Q185.898 687.114 187.704 690.679 Q189.532 694.221 193.143 694.221 Q196.778 694.221 198.583 690.679 Q200.412 687.114 200.412 680.008 Q200.412 672.878 198.583 669.337 Q196.778 665.772 193.143 665.772 M193.143 662.068 Q198.954 662.068 202.009 666.675 Q205.088 671.258 205.088 680.008 Q205.088 688.735 202.009 693.341 Q198.954 697.925 193.143 697.925 Q187.333 697.925 184.255 693.341 Q181.199 688.735 181.199 680.008 Q181.199 671.258 184.255 666.675 Q187.333 662.068 193.143 662.068 Z" fill="#000000" fill-rule="evenodd" fill-opacity="1" /><path clip-path="url(#clip130)" d="M209.658 666.646 L222.918 666.646 L222.918 669.843 L205.088 669.843 L205.088 666.646 Q207.251 664.407 210.975 660.646 Q214.717 656.865 215.677 655.775 Q217.501 653.725 218.216 652.314 Q218.949 650.885 218.949 649.512 Q218.949 647.274 217.369 645.863 Q215.808 644.452 213.288 644.452 Q211.501 644.452 209.508 645.073 Q207.533 645.694 205.276 646.954 L205.276 643.117 Q207.57 642.195 209.564 641.725 Q211.558 641.255 213.213 641.255 Q217.576 641.255 220.172 643.437 Q222.767 645.618 222.767 649.267 Q222.767 650.997 222.109 652.559 Q221.469 654.101 219.758 656.207 Q219.288 656.753 216.767 659.367 Q214.247 661.962 209.658 666.646 Z" fill="#000000" fill-rule="evenodd" fill-opacity="1" /><path clip-path="url(#clip130)" d="M153.134 366.746 L160.772 366.746 L160.772 340.38 L152.462 342.047 L152.462 337.788 L160.726 336.121 L165.402 336.121 L165.402 366.746 L173.041 366.746 L173.041 370.681 L153.134 370.681 L153.134 366.746 Z" fill="#000000" fill-rule="evenodd" fill-opacity="1" /><path clip-path="url(#clip130)" d="M192.485 339.2 Q188.874 339.2 187.045 342.765 Q185.24 346.306 185.24 353.436 Q185.24 360.542 187.045 364.107 Q188.874 367.649 192.485 367.649 Q196.119 367.649 197.925 364.107 Q199.754 360.542 199.754 353.436 Q199.754 346.306 197.925 342.765 Q196.119 339.2 192.485 339.2 M192.485 335.496 Q198.295 335.496 201.351 340.103 Q204.43 344.686 204.43 353.436 Q204.43 362.163 201.351 366.769 Q198.295 371.352 192.485 371.352 Q186.675 371.352 183.596 366.769 Q180.541 362.163 180.541 353.436 Q180.541 344.686 183.596 340.103 Q186.675 335.496 192.485 335.496 Z" fill="#000000" fill-rule="evenodd" fill-opacity="1" /><path clip-path="url(#clip130)" d="M217.125 328.131 Q219.852 328.714 221.375 330.557 Q222.918 332.4 222.918 335.108 Q222.918 339.265 220.059 341.54 Q217.2 343.816 211.934 343.816 Q210.166 343.816 208.285 343.459 Q206.423 343.12 204.43 342.424 L204.43 338.757 Q206.009 339.679 207.89 340.149 Q209.771 340.619 211.821 340.619 Q215.395 340.619 217.256 339.208 Q219.137 337.798 219.137 335.108 Q219.137 332.626 217.388 331.234 Q215.658 329.823 212.555 329.823 L209.282 329.823 L209.282 326.701 L212.705 326.701 Q215.507 326.701 216.993 325.592 Q218.479 324.463 218.479 322.357 Q218.479 320.194 216.937 319.046 Q215.413 317.88 212.555 317.88 Q210.994 317.88 209.207 318.219 Q207.42 318.557 205.276 319.272 L205.276 315.887 Q207.439 315.285 209.32 314.984 Q211.219 314.683 212.893 314.683 Q217.219 314.683 219.739 316.658 Q222.259 318.614 222.259 321.962 Q222.259 324.294 220.924 325.911 Q219.589 327.51 217.125 328.131 Z" fill="#000000" fill-rule="evenodd" fill-opacity="1" /><path clip-path="url(#clip130)" d="M42.6863 929.725 L42.6863 899.679 L48.0971 899.679 L48.0971 923.296 L62.1653 923.296 L62.1653 900.666 L67.5762 900.666 L67.5762 923.296 L84.7954 923.296 L84.7954 899.106 L90.2063 899.106 L90.2063 929.725 L42.6863 929.725 Z" fill="#000000" fill-rule="evenodd" fill-opacity="1" /><path clip-path="url(#clip130)" d="M44.2459 860.052 L50.5161 860.052 Q48.7655 863.713 47.9062 866.959 Q47.0468 870.206 47.0468 873.23 Q47.0468 878.481 49.0838 881.346 Q51.1208 884.179 54.8766 884.179 Q58.0276 884.179 59.6509 882.301 Q61.2423 880.391 62.229 875.107 L63.0247 871.224 Q64.3933 864.031 67.8627 860.625 Q71.3001 857.188 77.0929 857.188 Q83.9997 857.188 87.5645 861.835 Q91.1293 866.45 91.1293 875.394 Q91.1293 878.768 90.3654 882.587 Q89.6015 886.375 88.1056 890.449 L81.4853 890.449 Q83.6814 886.534 84.7954 882.778 Q85.9094 879.022 85.9094 875.394 Q85.9094 869.888 83.7451 866.896 Q81.5808 863.904 77.5704 863.904 Q74.0692 863.904 72.0958 866.068 Q70.1225 868.201 69.1358 873.102 L68.3719 877.017 Q66.9396 884.21 63.8841 887.425 Q60.8285 890.64 55.3859 890.64 Q49.0838 890.64 45.4554 886.216 Q41.8269 881.76 41.8269 873.962 Q41.8269 870.62 42.4317 867.15 Q43.0364 863.681 44.2459 860.052 Z" fill="#000000" fill-rule="evenodd" fill-opacity="1" /><path clip-path="url(#clip130)" d="M44.2459 818.675 L50.5161 818.675 Q48.7655 822.336 47.9062 825.582 Q47.0468 828.829 47.0468 831.852 Q47.0468 837.104 49.0838 839.969 Q51.1208 842.801 54.8766 842.801 Q58.0276 842.801 59.6509 840.924 Q61.2423 839.014 62.229 833.73 L63.0247 829.847 Q64.3933 822.654 67.8627 819.248 Q71.3001 815.811 77.0929 815.811 Q83.9997 815.811 87.5645 820.458 Q91.1293 825.073 91.1293 834.017 Q91.1293 837.391 90.3654 841.21 Q89.6015 844.998 88.1056 849.072 L81.4853 849.072 Q83.6814 845.157 84.7954 841.401 Q85.9094 837.645 85.9094 834.017 Q85.9094 828.51 83.7451 825.519 Q81.5808 822.527 77.5704 822.527 Q74.0692 822.527 72.0958 824.691 Q70.1225 826.823 69.1358 831.725 L68.3719 835.64 Q66.9396 842.833 63.8841 846.048 Q60.8285 849.263 55.3859 849.263 Q49.0838 849.263 45.4554 844.838 Q41.8269 840.382 41.8269 832.584 Q41.8269 829.242 42.4317 825.773 Q43.0364 822.304 44.2459 818.675 Z" fill="#000000" fill-rule="evenodd" fill-opacity="1" /><path clip-path="url(#clip130)" d="M82.1218 804.544 L82.1218 797.828 L90.2063 797.828 L90.2063 804.544 L82.1218 804.544 M56.4999 804.544 L56.4999 797.828 L64.5843 797.828 L64.5843 804.544 L56.4999 804.544 Z" fill="#000000" fill-rule="evenodd" fill-opacity="1" /><path clip-path="url(#clip130)" d="M47.9698 756.673 L84.9227 756.673 L84.9227 748.907 Q84.9227 739.072 80.4668 734.521 Q76.0108 729.937 66.3985 729.937 Q56.85 729.937 52.4258 734.521 Q47.9698 739.072 47.9698 748.907 L47.9698 756.673 M42.6863 763.103 L42.6863 749.894 Q42.6863 736.08 48.4472 729.619 Q54.1764 723.158 66.3985 723.158 Q78.6844 723.158 84.4453 729.651 Q90.2063 736.144 90.2063 749.894 L90.2063 763.103 L42.6863 763.103 Z" fill="#000000" fill-rule="evenodd" fill-opacity="1" /><path clip-path="url(#clip130)" d="M70.9182 682.672 L73.7828 682.672 L73.7828 709.599 Q79.8302 709.217 83.013 705.971 Q86.1641 702.692 86.1641 696.868 Q86.1641 693.494 85.3365 690.343 Q84.509 687.16 82.8539 684.041 L88.3921 684.041 Q89.7289 687.192 90.4291 690.502 Q91.1293 693.812 91.1293 697.218 Q91.1293 705.748 86.1641 710.745 Q81.1988 715.71 72.7324 715.71 Q63.9796 715.71 58.8552 710.999 Q53.699 706.257 53.699 698.236 Q53.699 691.043 58.3459 686.873 Q62.9611 682.672 70.9182 682.672 M69.1995 688.529 Q64.3933 688.592 61.5288 691.234 Q58.6642 693.844 58.6642 698.173 Q58.6642 703.074 61.4333 706.034 Q64.2024 708.962 69.2313 709.408 L69.1995 688.529 Z" fill="#000000" fill-rule="evenodd" fill-opacity="1" /><path clip-path="url(#clip130)" d="M68.6902 643.427 L90.2063 643.427 L90.2063 649.284 L68.8812 649.284 Q63.8204 649.284 61.306 651.257 Q58.7915 653.231 58.7915 657.177 Q58.7915 661.92 61.8152 664.657 Q64.8389 667.394 70.0588 667.394 L90.2063 667.394 L90.2063 673.283 L54.5583 673.283 L54.5583 667.394 L60.0965 667.394 Q56.8818 665.294 55.2904 662.461 Q53.699 659.596 53.699 655.872 Q53.699 649.73 57.5184 646.579 Q61.306 643.427 68.6902 643.427 Z" fill="#000000" fill-rule="evenodd" fill-opacity="1" /><path clip-path="url(#clip130)" d="M61.4015 603.992 Q57.4547 601.796 55.5768 598.74 Q53.699 595.685 53.699 591.547 Q53.699 585.977 57.6139 582.953 Q61.4969 579.93 68.6902 579.93 L90.2063 579.93 L90.2063 585.818 L68.8812 585.818 Q63.7568 585.818 61.2741 587.632 Q58.7915 589.446 58.7915 593.17 Q58.7915 597.722 61.8152 600.363 Q64.8389 603.005 70.0588 603.005 L90.2063 603.005 L90.2063 608.894 L68.8812 608.894 Q63.7249 608.894 61.2741 610.708 Q58.7915 612.522 58.7915 616.31 Q58.7915 620.797 61.8471 623.439 Q64.8708 626.081 70.0588 626.081 L90.2063 626.081 L90.2063 631.969 L54.5583 631.969 L54.5583 626.081 L60.0965 626.081 Q56.8182 624.076 55.2586 621.275 Q53.699 618.474 53.699 614.623 Q53.699 610.74 55.6723 608.034 Q57.6457 605.297 61.4015 603.992 Z" fill="#000000" fill-rule="evenodd" fill-opacity="1" /><path clip-path="url(#clip130)" d="M72.2868 552.048 Q72.2868 559.146 73.9101 561.883 Q75.5333 564.62 79.4482 564.62 Q82.5674 564.62 84.4135 562.583 Q86.2277 560.514 86.2277 556.981 Q86.2277 552.111 82.7902 549.183 Q79.3209 546.223 73.5918 546.223 L72.2868 546.223 L72.2868 552.048 M69.8679 540.367 L90.2063 540.367 L90.2063 546.223 L84.7954 546.223 Q88.0419 548.228 89.6015 551.22 Q91.1293 554.212 91.1293 558.541 Q91.1293 564.015 88.0738 567.262 Q84.9864 570.476 79.8302 570.476 Q73.8146 570.476 70.759 566.466 Q67.7035 562.424 67.7035 554.435 L67.7035 546.223 L67.1306 546.223 Q63.0884 546.223 60.8922 548.897 Q58.6642 551.539 58.6642 556.345 Q58.6642 559.4 59.3963 562.297 Q60.1283 565.193 61.5924 567.867 L56.1816 567.867 Q54.9403 564.652 54.3355 561.628 Q53.699 558.604 53.699 555.74 Q53.699 548.006 57.7094 544.186 Q61.7197 540.367 69.8679 540.367 Z" fill="#000000" fill-rule="evenodd" fill-opacity="1" /><path clip-path="url(#clip130)" d="M60.0328 507.647 Q59.4599 508.634 59.2053 509.811 Q58.9188 510.957 58.9188 512.358 Q58.9188 517.323 62.1653 519.996 Q65.38 522.638 71.4274 522.638 L90.2063 522.638 L90.2063 528.526 L54.5583 528.526 L54.5583 522.638 L60.0965 522.638 Q56.85 520.792 55.2904 517.832 Q53.699 514.872 53.699 510.639 Q53.699 510.034 53.7944 509.302 Q53.8581 508.57 54.0172 507.679 L60.0328 507.647 Z" fill="#000000" fill-rule="evenodd" fill-opacity="1" /><path clip-path="url(#clip130)" d="M40.6811 501.727 L40.6811 495.839 L69.9315 495.839 L54.5583 478.365 L54.5583 470.885 L71.2365 489.791 L90.2063 470.089 L90.2063 477.728 L72.7961 495.839 L90.2063 495.839 L90.2063 501.727 L40.6811 501.727 Z" fill="#000000" fill-rule="evenodd" fill-opacity="1" /><path clip-path="url(#clip130)" d="M82.1218 462.259 L82.1218 455.544 L87.5963 455.544 L97.7815 460.764 L97.7815 464.869 L87.5963 462.259 L82.1218 462.259 Z" fill="#000000" fill-rule="evenodd" fill-opacity="1" /><path clip-path="url(#clip130)" d="M44.4369 416.522 L54.5583 416.522 L54.5583 404.459 L59.1098 404.459 L59.1098 416.522 L78.4616 416.522 Q82.8221 416.522 84.0634 415.344 Q85.3047 414.135 85.3047 410.474 L85.3047 404.459 L90.2063 404.459 L90.2063 410.474 Q90.2063 417.254 87.6918 419.832 Q85.1455 422.41 78.4616 422.41 L59.1098 422.41 L59.1098 426.707 L54.5583 426.707 L54.5583 422.41 L44.4369 422.41 L44.4369 416.522 Z" fill="#000000" fill-rule="evenodd" fill-opacity="1" /><path clip-path="url(#clip130)" d="M54.5583 396.756 L54.5583 390.9 L90.2063 390.9 L90.2063 396.756 L54.5583 396.756 M40.6811 396.756 L40.6811 390.9 L48.0971 390.9 L48.0971 396.756 L40.6811 396.756 Z" fill="#000000" fill-rule="evenodd" fill-opacity="1" /><path clip-path="url(#clip130)" d="M61.4015 350.891 Q57.4547 348.695 55.5768 345.64 Q53.699 342.584 53.699 338.446 Q53.699 332.876 57.6139 329.853 Q61.4969 326.829 68.6902 326.829 L90.2063 326.829 L90.2063 332.717 L68.8812 332.717 Q63.7568 332.717 61.2741 334.532 Q58.7915 336.346 58.7915 340.07 Q58.7915 344.621 61.8152 347.263 Q64.8389 349.905 70.0588 349.905 L90.2063 349.905 L90.2063 355.793 L68.8812 355.793 Q63.7249 355.793 61.2741 357.607 Q58.7915 359.421 58.7915 363.209 Q58.7915 367.697 61.8471 370.339 Q64.8708 372.98 70.0588 372.98 L90.2063 372.98 L90.2063 378.869 L54.5583 378.869 L54.5583 372.98 L60.0965 372.98 Q56.8182 370.975 55.2586 368.174 Q53.699 365.373 53.699 361.522 Q53.699 357.639 55.6723 354.934 Q57.6457 352.196 61.4015 350.891 Z" fill="#000000" fill-rule="evenodd" fill-opacity="1" /><path clip-path="url(#clip130)" d="M70.9182 284.656 L73.7828 284.656 L73.7828 311.583 Q79.8302 311.201 83.013 307.955 Q86.1641 304.676 86.1641 298.852 Q86.1641 295.478 85.3365 292.327 Q84.509 289.144 82.8539 286.025 L88.3921 286.025 Q89.7289 289.176 90.4291 292.486 Q91.1293 295.796 91.1293 299.202 Q91.1293 307.732 86.1641 312.729 Q81.1988 317.694 72.7324 317.694 Q63.9796 317.694 58.8552 312.984 Q53.699 308.241 53.699 300.22 Q53.699 293.027 58.3459 288.858 Q62.9611 284.656 70.9182 284.656 M69.1995 290.513 Q64.3933 290.576 61.5288 293.218 Q58.6642 295.828 58.6642 300.157 Q58.6642 305.058 61.4333 308.018 Q64.2024 310.947 69.2313 311.392 L69.1995 290.513 Z" fill="#000000" fill-rule="evenodd" fill-opacity="1" /><path clip-path="url(#clip130)" d="M82.1218 273.548 L82.1218 266.832 L90.2063 266.832 L90.2063 273.548 L82.1218 273.548 M56.4999 273.548 L56.4999 266.832 L64.5843 266.832 L64.5843 273.548 L56.4999 273.548 Z" fill="#000000" fill-rule="evenodd" fill-opacity="1" /><path clip-path="url(#clip130)" d="M42.6863 252.191 L42.6863 226.951 L48.0971 226.951 L48.0971 246.303 L59.7464 246.303 Q59.2689 244.902 59.0461 243.502 Q58.7915 242.102 58.7915 240.701 Q58.7915 232.744 63.152 228.097 Q67.5125 223.45 74.9604 223.45 Q82.6311 223.45 86.8961 228.224 Q91.1293 232.999 91.1293 241.688 Q91.1293 244.68 90.6201 247.799 Q90.1108 250.886 89.0923 254.196 L82.6311 254.196 Q84.1907 251.332 84.9546 248.276 Q85.7185 245.221 85.7185 241.815 Q85.7185 236.309 82.8221 233.094 Q79.9257 229.879 74.9604 229.879 Q69.9952 229.879 67.0988 233.094 Q64.2024 236.309 64.2024 241.815 Q64.2024 244.393 64.7753 246.971 Q65.3482 249.518 66.5577 252.191 L42.6863 252.191 Z" fill="#000000" fill-rule="evenodd" fill-opacity="1" /><path clip-path="url(#clip130)" d="M46.9195 197.032 Q46.9195 201.998 51.8211 204.512 Q56.6908 206.995 66.494 206.995 Q76.2654 206.995 81.167 204.512 Q86.0367 201.998 86.0367 197.032 Q86.0367 192.035 81.167 189.553 Q76.2654 187.038 66.494 187.038 Q56.6908 187.038 51.8211 189.553 Q46.9195 192.035 46.9195 197.032 M41.8269 197.032 Q41.8269 189.043 48.1608 184.842 Q54.4628 180.609 66.494 180.609 Q78.4934 180.609 84.8273 184.842 Q91.1293 189.043 91.1293 197.032 Q91.1293 205.021 84.8273 209.254 Q78.4934 213.456 66.494 213.456 Q54.4628 213.456 48.1608 209.254 Q41.8269 205.021 41.8269 197.032 Z" fill="#000000" fill-rule="evenodd" fill-opacity="1" /><polyline clip-path="url(#clip132)" style="stroke:#009af9; stroke-linecap:round; stroke-linejoin:round; stroke-width:4; stroke-opacity:1; fill:none" points="
  350.696,505.779 360.846,209.335 370.996,193.288 381.146,197.442 391.296,197.389 401.446,207.003 411.596,242.938 421.746,143.171 431.896,169.382 442.046,213.088 
  452.196,223.276 462.346,224.718 472.496,178.249 482.646,155.852 492.796,143.896 502.946,235.403 513.096,208.424 523.246,188.698 533.396,125.473 543.545,155.172 
  553.695,139.585 563.845,159.083 573.995,161.424 584.145,205.844 594.295,185.406 604.445,161.185 614.595,203.451 624.745,226.929 634.895,122.752 645.045,169.019 
  655.195,213.145 665.345,167.728 675.495,196.86 685.645,133.03 695.795,140.608 705.945,172.105 716.095,207.758 726.245,153.8 736.395,194.341 746.545,221.037 
  756.695,189.096 766.845,197.025 776.995,161.776 787.144,182.981 797.294,210.587 807.444,216.48 817.594,185.368 827.744,209.464 837.894,194.967 848.044,200.837 
  858.194,129.9 868.344,171.897 878.494,190.671 888.644,186.297 898.794,167.738 908.944,191.777 919.094,169.269 929.244,186.112 939.394,217.673 949.544,209.86 
  959.694,193.541 969.844,151.5 979.994,153.741 990.144,211.347 1000.29,175.483 1010.44,206.819 1020.59,201.244 1030.74,213.679 1040.89,199.806 1051.04,163.977 
  1061.19,139.654 1071.34,177.218 1081.49,179.761 1091.64,131.547 1101.79,212.767 1111.94,224.791 1122.09,168.16 1132.24,110.236 1142.39,167.612 1152.54,167.953 
  1162.69,160.858 1172.84,213.051 1182.99,140.822 1193.14,187.342 1203.29,213.598 1213.44,224.07 1223.59,207.473 1233.74,173.86 1243.89,255.423 1254.04,209.335 
  1264.19,221.286 1274.34,179.829 1284.49,214.17 1294.64,220.559 1304.79,195.809 1314.94,170.024 1325.09,143.847 1335.24,190.042 1345.39,156.923 1355.54,186.814 
  1365.69,183.61 1375.84,138.346 1385.99,138.74 1396.14,182.526 1406.29,151.807 1416.44,225.505 1426.59,166.974 1436.74,220.452 1446.89,233.178 1457.04,206.436 
  1467.19,194.493 1477.34,223.967 1487.49,185.347 1497.64,154.22 1507.79,167.29 1517.94,183.542 1528.09,190.984 1538.24,155.894 1548.39,158.132 1558.54,167.985 
  1568.69,151.241 1578.84,175.158 1588.99,165.014 1599.14,229.156 1609.29,204.573 1619.44,234.173 1629.59,224.348 1639.74,212.946 1649.89,138.877 1660.04,153.756 
  1670.19,173.208 1680.34,176.585 1690.49,156.456 1700.64,177.958 1710.79,162.93 1720.94,211.423 1731.09,133.155 1741.24,179.245 1751.39,159.501 1761.54,133.079 
  1771.69,216.036 1781.84,202.854 1791.99,140.999 1802.14,209.273 1812.29,132.993 1822.44,150.231 1832.59,178.928 1842.74,205.039 1852.89,165.301 1863.04,158.284 
  1873.19,185.421 1883.34,158.321 1893.49,191.166 1903.64,168.117 1913.79,178.047 1923.94,172.646 1934.09,181.556 1944.24,176.273 1954.39,162.669 1964.54,153.006 
  1974.69,154.921 1984.84,201.096 1994.99,227.213 2005.14,179.026 2015.29,226.191 2025.44,165.297 2035.59,171.437 2045.74,184.83 2055.89,232.916 2066.04,217.456 
  2076.19,216.976 2086.34,214.5 2096.49,154.745 2106.64,161.034 2116.79,175.544 2126.94,225.191 2137.09,179.447 2147.24,176.732 2157.39,223.061 2167.54,190.493 
  2177.69,147.766 2187.84,149.321 2197.99,192.85 2208.14,142.708 2218.29,229.121 2228.44,188.66 2238.59,161.343 2248.74,170.806 2258.89,182.893 2269.04,186.781 
  2279.19,176.774 2289.34,193.2 2299.49,145.886 2309.64,181.299 2319.79,175.448 2329.94,208.233 2340.09,160.049 2350.24,193.966 2360.39,195.69 2370.54,189.555 
  2380.69,178.759 2390.84,192.284 2400.99,184.559 2411.14,147.085 2421.29,149.943 2431.44,157.896 2441.59,199.609 2451.74,192.706 2461.89,206.702 2472.04,215.018 
  2482.19,185.595 2492.34,189.892 2502.49,176.824 2512.64,181.939 2522.79,184.792 2532.94,205.144 2543.09,175.086 2553.24,177.507 2563.39,189.094 2573.54,175.985 
  2583.69,164.711 2593.84,177.746 2603.99,208.204 2614.14,187.012 2624.29,203.91 2634.44,187.248 2644.59,212.631 2654.74,216.094 2664.89,205.881 2675.04,235.476 
  2685.19,158.835 2695.34,217.682 2705.49,172.526 2715.64,167.03 2725.79,201.403 2735.94,162.068 2746.09,173.003 2756.24,222.729 2766.39,173.932 2776.54,157.574 
  2786.69,181.071 2796.84,168.745 2806.99,208.195 2817.14,164.06 2827.29,220.507 2837.44,197.853 2847.59,210.208 2857.74,179.431 2867.89,191.058 2878.04,189.647 
  2888.19,153.948 2898.34,152.401 2908.49,176.139 2918.64,156.458 2928.79,201.714 2938.94,167.497 2949.09,252.596 2959.24,190.213 2969.39,216.009 2979.54,217.051 
  2989.69,180.543 2999.84,205.183 3009.99,171.133 
  "/>
</svg>
