<?xml version="1.0" encoding="utf-8"?>
<svg xmlns="http://www.w3.org/2000/svg" xmlns:xlink="http://www.w3.org/1999/xlink" width="800" height="300" viewBox="0 0 3200 1200">
<defs>
  <clipPath id="clip150">
    <rect x="0" y="0" width="3200" height="1200"/>
  </clipPath>
</defs>
<path clip-path="url(#clip150)" d="M0 1200 L3200 1200 L3200 0 L0 0  Z" fill="#ffffff" fill-rule="evenodd" fill-opacity="1"/>
<defs>
  <clipPath id="clip151">
    <rect x="640" y="0" width="2241" height="1200"/>
  </clipPath>
</defs>
<path clip-path="url(#clip150)" d="M270.918 1000.1 L3089.76 1000.1 L3089.76 110.236 L270.918 110.236  Z" fill="#ffffff" fill-rule="evenodd" fill-opacity="1"/>
<defs>
  <clipPath id="clip152">
    <rect x="270" y="110" width="2820" height="891"/>
  </clipPath>
</defs>
<polyline clip-path="url(#clip152)" style="stroke:#000000; stroke-linecap:round; stroke-linejoin:round; stroke-width:2; stroke-opacity:0.1; fill:none" points="328.16,1000.1 328.16,110.236 "/>
<polyline clip-path="url(#clip152)" style="stroke:#000000; stroke-linecap:round; stroke-linejoin:round; stroke-width:2; stroke-opacity:0.1; fill:none" points="891.569,1000.1 891.569,110.236 "/>
<polyline clip-path="url(#clip152)" style="stroke:#000000; stroke-linecap:round; stroke-linejoin:round; stroke-width:2; stroke-opacity:0.1; fill:none" points="1454.98,1000.1 1454.98,110.236 "/>
<polyline clip-path="url(#clip152)" style="stroke:#000000; stroke-linecap:round; stroke-linejoin:round; stroke-width:2; stroke-opacity:0.1; fill:none" points="2018.39,1000.1 2018.39,110.236 "/>
<polyline clip-path="url(#clip152)" style="stroke:#000000; stroke-linecap:round; stroke-linejoin:round; stroke-width:2; stroke-opacity:0.1; fill:none" points="2581.79,1000.1 2581.79,110.236 "/>
<polyline clip-path="url(#clip150)" style="stroke:#000000; stroke-linecap:round; stroke-linejoin:round; stroke-width:4; stroke-opacity:1; fill:none" points="270.918,1000.1 3089.76,1000.1 "/>
<polyline clip-path="url(#clip150)" style="stroke:#000000; stroke-linecap:round; stroke-linejoin:round; stroke-width:4; stroke-opacity:1; fill:none" points="328.16,1000.1 328.16,981.2 "/>
<polyline clip-path="url(#clip150)" style="stroke:#000000; stroke-linecap:round; stroke-linejoin:round; stroke-width:4; stroke-opacity:1; fill:none" points="891.569,1000.1 891.569,981.2 "/>
<polyline clip-path="url(#clip150)" style="stroke:#000000; stroke-linecap:round; stroke-linejoin:round; stroke-width:4; stroke-opacity:1; fill:none" points="1454.98,1000.1 1454.98,981.2 "/>
<polyline clip-path="url(#clip150)" style="stroke:#000000; stroke-linecap:round; stroke-linejoin:round; stroke-width:4; stroke-opacity:1; fill:none" points="2018.39,1000.1 2018.39,981.2 "/>
<polyline clip-path="url(#clip150)" style="stroke:#000000; stroke-linecap:round; stroke-linejoin:round; stroke-width:4; stroke-opacity:1; fill:none" points="2581.79,1000.1 2581.79,981.2 "/>
<path clip-path="url(#clip150)" d="M328.16 1037.42 Q324.549 1037.42 322.72 1040.98 Q320.915 1044.52 320.915 1051.65 Q320.915 1058.76 322.72 1062.32 Q324.549 1065.87 328.16 1065.87 Q331.794 1065.87 333.6 1062.32 Q335.428 1058.76 335.428 1051.65 Q335.428 1044.52 333.6 1040.98 Q331.794 1037.42 328.16 1037.42 M328.16 1033.71 Q333.97 1033.71 337.026 1038.32 Q340.104 1042.9 340.104 1051.65 Q340.104 1060.38 337.026 1064.99 Q333.97 1069.57 328.16 1069.57 Q322.35 1069.57 319.271 1064.99 Q316.216 1060.38 316.216 1051.65 Q316.216 1042.9 319.271 1038.32 Q322.35 1033.71 328.16 1033.71 Z" fill="#000000" fill-rule="nonzero" fill-opacity="1" /><path clip-path="url(#clip150)" d="M870.84 1064.96 L887.159 1064.96 L887.159 1068.9 L865.215 1068.9 L865.215 1064.96 Q867.877 1062.21 872.46 1057.58 Q877.066 1052.93 878.247 1051.58 Q880.492 1049.06 881.372 1047.32 Q882.275 1045.56 882.275 1043.87 Q882.275 1041.12 880.33 1039.38 Q878.409 1037.65 875.307 1037.65 Q873.108 1037.65 870.654 1038.41 Q868.224 1039.18 865.446 1040.73 L865.446 1036 Q868.27 1034.87 870.724 1034.29 Q873.177 1033.71 875.215 1033.71 Q880.585 1033.71 883.779 1036.4 Q886.974 1039.08 886.974 1043.57 Q886.974 1045.7 886.164 1047.62 Q885.377 1049.52 883.27 1052.12 Q882.691 1052.79 879.589 1056 Q876.488 1059.2 870.84 1064.96 Z" fill="#000000" fill-rule="nonzero" fill-opacity="1" /><path clip-path="url(#clip150)" d="M897.02 1034.34 L915.376 1034.34 L915.376 1038.27 L901.302 1038.27 L901.302 1046.75 Q902.321 1046.4 903.339 1046.24 Q904.358 1046.05 905.376 1046.05 Q911.163 1046.05 914.543 1049.22 Q917.923 1052.39 917.923 1057.81 Q917.923 1063.39 914.45 1066.49 Q910.978 1069.57 904.659 1069.57 Q902.483 1069.57 900.214 1069.2 Q897.969 1068.83 895.562 1068.09 L895.562 1063.39 Q897.645 1064.52 899.867 1065.08 Q902.089 1065.63 904.566 1065.63 Q908.571 1065.63 910.909 1063.53 Q913.247 1061.42 913.247 1057.81 Q913.247 1054.2 910.909 1052.09 Q908.571 1049.99 904.566 1049.99 Q902.691 1049.99 900.816 1050.4 Q898.964 1050.82 897.02 1051.7 L897.02 1034.34 Z" fill="#000000" fill-rule="nonzero" fill-opacity="1" /><path clip-path="url(#clip150)" d="M1429.68 1034.34 L1448.03 1034.34 L1448.03 1038.27 L1433.96 1038.27 L1433.96 1046.75 Q1434.98 1046.4 1436 1046.24 Q1437.01 1046.05 1438.03 1046.05 Q1443.82 1046.05 1447.2 1049.22 Q1450.58 1052.39 1450.58 1057.81 Q1450.58 1063.39 1447.11 1066.49 Q1443.63 1069.57 1437.32 1069.57 Q1435.14 1069.57 1432.87 1069.2 Q1430.63 1068.83 1428.22 1068.09 L1428.22 1063.39 Q1430.3 1064.52 1432.52 1065.08 Q1434.75 1065.63 1437.22 1065.63 Q1441.23 1065.63 1443.57 1063.53 Q1445.9 1061.42 1445.9 1057.81 Q1445.9 1054.2 1443.57 1052.09 Q1441.23 1049.99 1437.22 1049.99 Q1435.35 1049.99 1433.47 1050.4 Q1431.62 1050.82 1429.68 1051.7 L1429.68 1034.34 Z" fill="#000000" fill-rule="nonzero" fill-opacity="1" /><path clip-path="url(#clip150)" d="M1469.79 1037.42 Q1466.18 1037.42 1464.35 1040.98 Q1462.55 1044.52 1462.55 1051.65 Q1462.55 1058.76 1464.35 1062.32 Q1466.18 1065.87 1469.79 1065.87 Q1473.43 1065.87 1475.23 1062.32 Q1477.06 1058.76 1477.06 1051.65 Q1477.06 1044.52 1475.23 1040.98 Q1473.43 1037.42 1469.79 1037.42 M1469.79 1033.71 Q1475.6 1033.71 1478.66 1038.32 Q1481.74 1042.9 1481.74 1051.65 Q1481.74 1060.38 1478.66 1064.99 Q1475.6 1069.57 1469.79 1069.57 Q1463.98 1069.57 1460.9 1064.99 Q1457.85 1060.38 1457.85 1051.65 Q1457.85 1042.9 1460.9 1038.32 Q1463.98 1033.71 1469.79 1033.71 Z" fill="#000000" fill-rule="nonzero" fill-opacity="1" /><path clip-path="url(#clip150)" d="M1992.24 1034.34 L2014.46 1034.34 L2014.46 1036.33 L2001.92 1068.9 L1997.03 1068.9 L2008.84 1038.27 L1992.24 1038.27 L1992.24 1034.34 Z" fill="#000000" fill-rule="nonzero" fill-opacity="1" /><path clip-path="url(#clip150)" d="M2023.63 1034.34 L2041.99 1034.34 L2041.99 1038.27 L2027.91 1038.27 L2027.91 1046.75 Q2028.93 1046.4 2029.95 1046.24 Q2030.97 1046.05 2031.99 1046.05 Q2037.77 1046.05 2041.15 1049.22 Q2044.53 1052.39 2044.53 1057.81 Q2044.53 1063.39 2041.06 1066.49 Q2037.59 1069.57 2031.27 1069.57 Q2029.09 1069.57 2026.82 1069.2 Q2024.58 1068.83 2022.17 1068.09 L2022.17 1063.39 Q2024.25 1064.52 2026.48 1065.08 Q2028.7 1065.63 2031.18 1065.63 Q2035.18 1065.63 2037.52 1063.53 Q2039.86 1061.42 2039.86 1057.81 Q2039.86 1054.2 2037.52 1052.09 Q2035.18 1049.99 2031.18 1049.99 Q2029.3 1049.99 2027.43 1050.4 Q2025.57 1050.82 2023.63 1051.7 L2023.63 1034.34 Z" fill="#000000" fill-rule="nonzero" fill-opacity="1" /><path clip-path="url(#clip150)" d="M2541.4 1064.96 L2549.04 1064.96 L2549.04 1038.6 L2540.73 1040.26 L2540.73 1036 L2548.99 1034.34 L2553.67 1034.34 L2553.67 1064.96 L2561.31 1064.96 L2561.31 1068.9 L2541.4 1068.9 L2541.4 1064.96 Z" fill="#000000" fill-rule="nonzero" fill-opacity="1" /><path clip-path="url(#clip150)" d="M2580.75 1037.42 Q2577.14 1037.42 2575.31 1040.98 Q2573.51 1044.52 2573.51 1051.65 Q2573.51 1058.76 2575.31 1062.32 Q2577.14 1065.87 2580.75 1065.87 Q2584.39 1065.87 2586.19 1062.32 Q2588.02 1058.76 2588.02 1051.65 Q2588.02 1044.52 2586.19 1040.98 Q2584.39 1037.42 2580.75 1037.42 M2580.75 1033.71 Q2586.56 1033.71 2589.62 1038.32 Q2592.7 1042.9 2592.7 1051.65 Q2592.7 1060.38 2589.62 1064.99 Q2586.56 1069.57 2580.75 1069.57 Q2574.94 1069.57 2571.86 1064.99 Q2568.81 1060.38 2568.81 1051.65 Q2568.81 1042.9 2571.86 1038.32 Q2574.94 1033.71 2580.75 1033.71 Z" fill="#000000" fill-rule="nonzero" fill-opacity="1" /><path clip-path="url(#clip150)" d="M2610.91 1037.42 Q2607.3 1037.42 2605.47 1040.98 Q2603.67 1044.52 2603.67 1051.65 Q2603.67 1058.76 2605.47 1062.32 Q2607.3 1065.87 2610.91 1065.87 Q2614.55 1065.87 2616.35 1062.32 Q2618.18 1058.76 2618.18 1051.65 Q2618.18 1044.52 2616.35 1040.98 Q2614.55 1037.42 2610.91 1037.42 M2610.91 1033.71 Q2616.72 1033.71 2619.78 1038.32 Q2622.86 1042.9 2622.86 1051.65 Q2622.86 1060.38 2619.78 1064.99 Q2616.72 1069.57 2610.91 1069.57 Q2605.1 1069.57 2602.03 1064.99 Q2598.97 1060.38 2598.97 1051.65 Q2598.97 1042.9 2602.03 1038.32 Q2605.1 1033.71 2610.91 1033.71 Z" fill="#000000" fill-rule="nonzero" fill-opacity="1" /><path clip-path="url(#clip150)" d="M1556.64 1109.44 L1563.07 1109.44 L1563.07 1151.55 L1586.21 1151.55 L1586.21 1156.96 L1556.64 1156.96 L1556.64 1109.44 Z" fill="#000000" fill-rule="nonzero" fill-opacity="1" /><path clip-path="url(#clip150)" d="M1592.7 1121.31 L1598.56 1121.31 L1598.56 1156.96 L1592.7 1156.96 L1592.7 1121.31 M1592.7 1107.44 L1598.56 1107.44 L1598.56 1114.85 L1592.7 1114.85 L1592.7 1107.44 Z" fill="#000000" fill-rule="nonzero" fill-opacity="1" /><path clip-path="url(#clip150)" d="M1640.44 1135.45 L1640.44 1156.96 L1634.59 1156.96 L1634.59 1135.64 Q1634.59 1130.58 1632.61 1128.06 Q1630.64 1125.55 1626.69 1125.55 Q1621.95 1125.55 1619.21 1128.57 Q1616.48 1131.59 1616.48 1136.81 L1616.48 1156.96 L1610.59 1156.96 L1610.59 1121.31 L1616.48 1121.31 L1616.48 1126.85 Q1618.58 1123.64 1621.41 1122.05 Q1624.27 1120.45 1628 1120.45 Q1634.14 1120.45 1637.29 1124.27 Q1640.44 1128.06 1640.44 1135.45 Z" fill="#000000" fill-rule="nonzero" fill-opacity="1" /><path clip-path="url(#clip150)" d="M1682.62 1137.67 L1682.62 1140.54 L1655.69 1140.54 Q1656.07 1146.59 1659.32 1149.77 Q1662.6 1152.92 1668.42 1152.92 Q1671.79 1152.92 1674.95 1152.09 Q1678.13 1151.26 1681.25 1149.61 L1681.25 1155.15 Q1678.1 1156.48 1674.79 1157.18 Q1671.48 1157.88 1668.07 1157.88 Q1659.54 1157.88 1654.54 1152.92 Q1649.58 1147.95 1649.58 1139.49 Q1649.58 1130.74 1654.29 1125.61 Q1659.03 1120.45 1667.05 1120.45 Q1674.25 1120.45 1678.42 1125.1 Q1682.62 1129.72 1682.62 1137.67 M1676.76 1135.95 Q1676.7 1131.15 1674.05 1128.28 Q1671.44 1125.42 1667.12 1125.42 Q1662.21 1125.42 1659.25 1128.19 Q1656.33 1130.96 1655.88 1135.99 L1676.76 1135.95 Z" fill="#000000" fill-rule="nonzero" fill-opacity="1" /><path clip-path="url(#clip150)" d="M1708.43 1139.04 Q1701.33 1139.04 1698.59 1140.67 Q1695.86 1142.29 1695.86 1146.2 Q1695.86 1149.32 1697.89 1151.17 Q1699.96 1152.98 1703.5 1152.98 Q1708.37 1152.98 1711.29 1149.55 Q1714.25 1146.08 1714.25 1140.35 L1714.25 1139.04 L1708.43 1139.04 M1720.11 1136.62 L1720.11 1156.96 L1714.25 1156.96 L1714.25 1151.55 Q1712.25 1154.8 1709.26 1156.36 Q1706.27 1157.88 1701.94 1157.88 Q1696.46 1157.88 1693.22 1154.83 Q1690 1151.74 1690 1146.59 Q1690 1140.57 1694.01 1137.51 Q1698.05 1134.46 1706.04 1134.46 L1714.25 1134.46 L1714.25 1133.89 Q1714.25 1129.84 1711.58 1127.65 Q1708.94 1125.42 1704.13 1125.42 Q1701.08 1125.42 1698.18 1126.15 Q1695.28 1126.88 1692.61 1128.35 L1692.61 1122.94 Q1695.83 1121.7 1698.85 1121.09 Q1701.87 1120.45 1704.74 1120.45 Q1712.47 1120.45 1716.29 1124.46 Q1720.11 1128.48 1720.11 1136.62 Z" fill="#000000" fill-rule="nonzero" fill-opacity="1" /><path clip-path="url(#clip150)" d="M1755.63 1138.72 Q1755.63 1132.36 1752.99 1128.86 Q1750.38 1125.36 1745.64 1125.36 Q1740.93 1125.36 1738.28 1128.86 Q1735.67 1132.36 1735.67 1138.72 Q1735.67 1145.06 1738.28 1148.56 Q1740.93 1152.06 1745.64 1152.06 Q1750.38 1152.06 1752.99 1148.56 Q1755.63 1145.06 1755.63 1138.72 M1761.49 1152.54 Q1761.49 1161.64 1757.45 1166.06 Q1753.4 1170.52 1745.06 1170.52 Q1741.98 1170.52 1739.24 1170.04 Q1736.5 1169.6 1733.92 1168.64 L1733.92 1162.95 Q1736.5 1164.35 1739.02 1165.01 Q1741.53 1165.68 1744.14 1165.68 Q1749.9 1165.68 1752.77 1162.66 Q1755.63 1159.67 1755.63 1153.59 L1755.63 1150.69 Q1753.82 1153.84 1750.98 1155.4 Q1748.15 1156.96 1744.2 1156.96 Q1737.65 1156.96 1733.64 1151.96 Q1729.63 1146.97 1729.63 1138.72 Q1729.63 1130.45 1733.64 1125.45 Q1737.65 1120.45 1744.2 1120.45 Q1748.15 1120.45 1750.98 1122.01 Q1753.82 1123.57 1755.63 1126.72 L1755.63 1121.31 L1761.49 1121.31 L1761.49 1152.54 Z" fill="#000000" fill-rule="nonzero" fill-opacity="1" /><path clip-path="url(#clip150)" d="M1804.04 1137.67 L1804.04 1140.54 L1777.12 1140.54 Q1777.5 1146.59 1780.74 1149.77 Q1784.02 1152.92 1789.85 1152.92 Q1793.22 1152.92 1796.37 1152.09 Q1799.55 1151.26 1802.67 1149.61 L1802.67 1155.15 Q1799.52 1156.48 1796.21 1157.18 Q1792.9 1157.88 1789.5 1157.88 Q1780.97 1157.88 1775.97 1152.92 Q1771 1147.95 1771 1139.49 Q1771 1130.74 1775.71 1125.61 Q1780.46 1120.45 1788.48 1120.45 Q1795.67 1120.45 1799.84 1125.1 Q1804.04 1129.72 1804.04 1137.67 M1798.19 1135.95 Q1798.12 1131.15 1795.48 1128.28 Q1792.87 1125.42 1788.54 1125.42 Q1783.64 1125.42 1780.68 1128.19 Q1777.75 1130.96 1777.31 1135.99 L1798.19 1135.95 Z" fill="#000000" fill-rule="nonzero" fill-opacity="1" /><polyline clip-path="url(#clip152)" style="stroke:#000000; stroke-linecap:round; stroke-linejoin:round; stroke-width:2; stroke-opacity:0.1; fill:none" points="270.918,1000.1 3089.76,1000.1 "/>
<polyline clip-path="url(#clip152)" style="stroke:#000000; stroke-linecap:round; stroke-linejoin:round; stroke-width:2; stroke-opacity:0.1; fill:none" points="270.918,664.5 3089.76,664.5 "/>
<polyline clip-path="url(#clip152)" style="stroke:#000000; stroke-linecap:round; stroke-linejoin:round; stroke-width:2; stroke-opacity:0.1; fill:none" points="270.918,328.902 3089.76,328.902 "/>
<polyline clip-path="url(#clip150)" style="stroke:#000000; stroke-linecap:round; stroke-linejoin:round; stroke-width:4; stroke-opacity:1; fill:none" points="270.918,1000.1 270.918,110.236 "/>
<polyline clip-path="url(#clip150)" style="stroke:#000000; stroke-linecap:round; stroke-linejoin:round; stroke-width:4; stroke-opacity:1; fill:none" points="270.918,1000.1 289.815,1000.1 "/>
<polyline clip-path="url(#clip150)" style="stroke:#000000; stroke-linecap:round; stroke-linejoin:round; stroke-width:4; stroke-opacity:1; fill:none" points="270.918,664.5 289.815,664.5 "/>
<polyline clip-path="url(#clip150)" style="stroke:#000000; stroke-linecap:round; stroke-linejoin:round; stroke-width:4; stroke-opacity:1; fill:none" points="270.918,328.902 289.815,328.902 "/>
<path clip-path="url(#clip150)" d="M154.902 1019.89 L162.54 1019.89 L162.54 993.525 L154.23 995.191 L154.23 990.932 L162.494 989.265 L167.17 989.265 L167.17 1019.89 L174.809 1019.89 L174.809 1023.83 L154.902 1023.83 L154.902 1019.89 Z" fill="#000000" fill-rule="nonzero" fill-opacity="1" /><path clip-path="url(#clip150)" d="M194.253 992.344 Q190.642 992.344 188.813 995.909 Q187.008 999.45 187.008 1006.58 Q187.008 1013.69 188.813 1017.25 Q190.642 1020.79 194.253 1020.79 Q197.887 1020.79 199.693 1017.25 Q201.522 1013.69 201.522 1006.58 Q201.522 999.45 199.693 995.909 Q197.887 992.344 194.253 992.344 M194.253 988.64 Q200.063 988.64 203.119 993.247 Q206.198 997.83 206.198 1006.58 Q206.198 1015.31 203.119 1019.91 Q200.063 1024.5 194.253 1024.5 Q188.443 1024.5 185.364 1019.91 Q182.309 1015.31 182.309 1006.58 Q182.309 997.83 185.364 993.247 Q188.443 988.64 194.253 988.64 Z" fill="#000000" fill-rule="nonzero" fill-opacity="1" /><path clip-path="url(#clip150)" d="M206.743 993.218 L212.95 993.218 L212.95 971.796 L206.198 973.15 L206.198 969.689 L212.912 968.335 L216.711 968.335 L216.711 993.218 L222.918 993.218 L222.918 996.415 L206.743 996.415 L206.743 993.218 Z" fill="#000000" fill-rule="nonzero" fill-opacity="1" /><path clip-path="url(#clip150)" d="M153.792 684.292 L161.431 684.292 L161.431 657.927 L153.121 659.593 L153.121 655.334 L161.384 653.668 L166.06 653.668 L166.06 684.292 L173.699 684.292 L173.699 688.228 L153.792 688.228 L153.792 684.292 Z" fill="#000000" fill-rule="nonzero" fill-opacity="1" /><path clip-path="url(#clip150)" d="M193.143 656.746 Q189.532 656.746 187.704 660.311 Q185.898 663.853 185.898 670.982 Q185.898 678.089 187.704 681.653 Q189.532 685.195 193.143 685.195 Q196.778 685.195 198.583 681.653 Q200.412 678.089 200.412 670.982 Q200.412 663.853 198.583 660.311 Q196.778 656.746 193.143 656.746 M193.143 653.043 Q198.954 653.043 202.009 657.649 Q205.088 662.232 205.088 670.982 Q205.088 679.709 202.009 684.315 Q198.954 688.899 193.143 688.899 Q187.333 688.899 184.255 684.315 Q181.199 679.709 181.199 670.982 Q181.199 662.232 184.255 657.649 Q187.333 653.043 193.143 653.043 Z" fill="#000000" fill-rule="nonzero" fill-opacity="1" /><path clip-path="url(#clip150)" d="M209.658 657.62 L222.918 657.62 L222.918 660.817 L205.088 660.817 L205.088 657.62 Q207.251 655.382 210.975 651.62 Q214.717 647.84 215.677 646.749 Q217.501 644.699 218.216 643.288 Q218.949 641.859 218.949 640.486 Q218.949 638.248 217.369 636.837 Q215.808 635.427 213.288 635.427 Q211.501 635.427 209.508 636.047 Q207.533 636.668 205.276 637.928 L205.276 634.091 Q207.57 633.17 209.564 632.699 Q211.558 632.229 213.213 632.229 Q217.576 632.229 220.172 634.411 Q222.767 636.593 222.767 640.241 Q222.767 641.972 222.109 643.533 Q221.469 645.075 219.758 647.181 Q219.288 647.727 216.767 650.341 Q214.247 652.937 209.658 657.62 Z" fill="#000000" fill-rule="nonzero" fill-opacity="1" /><path clip-path="url(#clip150)" d="M153.134 348.695 L160.772 348.695 L160.772 322.329 L152.462 323.996 L152.462 319.736 L160.726 318.07 L165.402 318.07 L165.402 348.695 L173.041 348.695 L173.041 352.63 L153.134 352.63 L153.134 348.695 Z" fill="#000000" fill-rule="nonzero" fill-opacity="1" /><path clip-path="url(#clip150)" d="M192.485 321.148 Q188.874 321.148 187.045 324.713 Q185.24 328.255 185.24 335.384 Q185.24 342.491 187.045 346.056 Q188.874 349.597 192.485 349.597 Q196.119 349.597 197.925 346.056 Q199.754 342.491 199.754 335.384 Q199.754 328.255 197.925 324.713 Q196.119 321.148 192.485 321.148 M192.485 317.445 Q198.295 317.445 201.351 322.051 Q204.43 326.634 204.43 335.384 Q204.43 344.111 201.351 348.718 Q198.295 353.301 192.485 353.301 Q186.675 353.301 183.596 348.718 Q180.541 344.111 180.541 335.384 Q180.541 326.634 183.596 322.051 Q186.675 317.445 192.485 317.445 Z" fill="#000000" fill-rule="nonzero" fill-opacity="1" /><path clip-path="url(#clip150)" d="M217.125 310.079 Q219.852 310.662 221.375 312.505 Q222.918 314.348 222.918 317.057 Q222.918 321.213 220.059 323.489 Q217.2 325.765 211.934 325.765 Q210.166 325.765 208.285 325.407 Q206.423 325.069 204.43 324.373 L204.43 320.705 Q206.009 321.627 207.89 322.097 Q209.771 322.567 211.821 322.567 Q215.395 322.567 217.256 321.157 Q219.137 319.746 219.137 317.057 Q219.137 314.574 217.388 313.182 Q215.658 311.772 212.555 311.772 L209.282 311.772 L209.282 308.65 L212.705 308.65 Q215.507 308.65 216.993 307.54 Q218.479 306.412 218.479 304.305 Q218.479 302.142 216.937 300.995 Q215.413 299.829 212.555 299.829 Q210.994 299.829 209.207 300.167 Q207.42 300.506 205.276 301.221 L205.276 297.835 Q207.439 297.233 209.32 296.932 Q211.219 296.631 212.893 296.631 Q217.219 296.631 219.739 298.606 Q222.259 300.562 222.259 303.91 Q222.259 306.242 220.924 307.86 Q219.589 309.458 217.125 310.079 Z" fill="#000000" fill-rule="nonzero" fill-opacity="1" /><path clip-path="url(#clip150)" d="M42.6863 912.235 L42.6863 882.189 L48.0971 882.189 L48.0971 905.806 L62.1653 905.806 L62.1653 883.176 L67.5762 883.176 L67.5762 905.806 L84.7954 905.806 L84.7954 881.616 L90.2063 881.616 L90.2063 912.235 L42.6863 912.235 Z" fill="#000000" fill-rule="nonzero" fill-opacity="1" /><path clip-path="url(#clip150)" d="M44.2459 842.563 L50.5161 842.563 Q48.7655 846.223 47.9062 849.47 Q47.0468 852.716 47.0468 855.74 Q47.0468 860.991 49.0838 863.856 Q51.1208 866.689 54.8766 866.689 Q58.0276 866.689 59.6509 864.811 Q61.2423 862.901 62.229 857.618 L63.0247 853.735 Q64.3933 846.541 67.8627 843.136 Q71.3001 839.698 77.0929 839.698 Q83.9997 839.698 87.5645 844.345 Q91.1293 848.96 91.1293 857.904 Q91.1293 861.278 90.3654 865.097 Q89.6015 868.885 88.1056 872.959 L81.4853 872.959 Q83.6814 869.044 84.7954 865.288 Q85.9094 861.533 85.9094 857.904 Q85.9094 852.398 83.7451 849.406 Q81.5808 846.414 77.5704 846.414 Q74.0692 846.414 72.0958 848.578 Q70.1225 850.711 69.1358 855.612 L68.3719 859.527 Q66.9396 866.721 63.8841 869.935 Q60.8285 873.15 55.3859 873.15 Q49.0838 873.15 45.4554 868.726 Q41.8269 864.27 41.8269 856.472 Q41.8269 853.13 42.4317 849.66 Q43.0364 846.191 44.2459 842.563 Z" fill="#000000" fill-rule="nonzero" fill-opacity="1" /><path clip-path="url(#clip150)" d="M44.2459 801.186 L50.5161 801.186 Q48.7655 804.846 47.9062 808.092 Q47.0468 811.339 47.0468 814.363 Q47.0468 819.614 49.0838 822.479 Q51.1208 825.312 54.8766 825.312 Q58.0276 825.312 59.6509 823.434 Q61.2423 821.524 62.229 816.241 L63.0247 812.357 Q64.3933 805.164 67.8627 801.759 Q71.3001 798.321 77.0929 798.321 Q83.9997 798.321 87.5645 802.968 Q91.1293 807.583 91.1293 816.527 Q91.1293 819.901 90.3654 823.72 Q89.6015 827.508 88.1056 831.582 L81.4853 831.582 Q83.6814 827.667 84.7954 823.911 Q85.9094 820.155 85.9094 816.527 Q85.9094 811.021 83.7451 808.029 Q81.5808 805.037 77.5704 805.037 Q74.0692 805.037 72.0958 807.201 Q70.1225 809.334 69.1358 814.235 L68.3719 818.15 Q66.9396 825.343 63.8841 828.558 Q60.8285 831.773 55.3859 831.773 Q49.0838 831.773 45.4554 827.349 Q41.8269 822.893 41.8269 815.095 Q41.8269 811.753 42.4317 808.283 Q43.0364 804.814 44.2459 801.186 Z" fill="#000000" fill-rule="nonzero" fill-opacity="1" /><path clip-path="url(#clip150)" d="M82.1218 787.054 L82.1218 780.338 L90.2063 780.338 L90.2063 787.054 L82.1218 787.054 M56.4999 787.054 L56.4999 780.338 L64.5843 780.338 L64.5843 787.054 L56.4999 787.054 Z" fill="#000000" fill-rule="nonzero" fill-opacity="1" /><path clip-path="url(#clip150)" d="M42.6863 745.613 L42.6863 715.567 L48.0971 715.567 L48.0971 739.184 L62.1653 739.184 L62.1653 716.554 L67.5762 716.554 L67.5762 739.184 L84.7954 739.184 L84.7954 714.994 L90.2063 714.994 L90.2063 745.613 L42.6863 745.613 Z" fill="#000000" fill-rule="nonzero" fill-opacity="1" /><path clip-path="url(#clip150)" d="M68.6902 675.049 L90.2063 675.049 L90.2063 680.906 L68.8812 680.906 Q63.8204 680.906 61.306 682.879 Q58.7915 684.852 58.7915 688.799 Q58.7915 693.542 61.8152 696.279 Q64.8389 699.016 70.0588 699.016 L90.2063 699.016 L90.2063 704.904 L54.5583 704.904 L54.5583 699.016 L60.0965 699.016 Q56.8818 696.915 55.2904 694.083 Q53.699 691.218 53.699 687.494 Q53.699 681.351 57.5184 678.2 Q61.306 675.049 68.6902 675.049 Z" fill="#000000" fill-rule="nonzero" fill-opacity="1" /><path clip-path="url(#clip150)" d="M71.9685 639.91 Q65.6028 639.91 62.1017 642.552 Q58.6006 645.162 58.6006 649.905 Q58.6006 654.615 62.1017 657.257 Q65.6028 659.867 71.9685 659.867 Q78.3024 659.867 81.8036 657.257 Q85.3047 654.615 85.3047 649.905 Q85.3047 645.162 81.8036 642.552 Q78.3024 639.91 71.9685 639.91 M85.7821 634.054 Q94.8851 634.054 99.3092 638.096 Q103.765 642.138 103.765 650.478 Q103.765 653.565 103.288 656.302 Q102.842 659.039 101.887 661.617 L96.19 661.617 Q97.5905 659.039 98.2589 656.525 Q98.9273 654.01 98.9273 651.401 Q98.9273 645.64 95.9036 642.775 Q92.9117 639.91 86.8325 639.91 L83.9361 639.91 Q87.0871 641.725 88.6467 644.557 Q90.2063 647.39 90.2063 651.337 Q90.2063 657.894 85.2092 661.904 Q80.2121 665.914 71.9685 665.914 Q63.6931 665.914 58.696 661.904 Q53.699 657.894 53.699 651.337 Q53.699 647.39 55.2586 644.557 Q56.8182 641.725 59.9692 639.91 L54.5583 639.91 L54.5583 634.054 L85.7821 634.054 Z" fill="#000000" fill-rule="nonzero" fill-opacity="1" /><path clip-path="url(#clip150)" d="M40.6811 621.991 L40.6811 616.135 L90.2063 616.135 L90.2063 621.991 L40.6811 621.991 Z" fill="#000000" fill-rule="nonzero" fill-opacity="1" /><path clip-path="url(#clip150)" d="M72.2868 587.68 Q72.2868 594.778 73.9101 597.515 Q75.5333 600.252 79.4482 600.252 Q82.5674 600.252 84.4135 598.215 Q86.2277 596.146 86.2277 592.613 Q86.2277 587.743 82.7902 584.815 Q79.3209 581.855 73.5918 581.855 L72.2868 581.855 L72.2868 587.68 M69.8679 575.999 L90.2063 575.999 L90.2063 581.855 L84.7954 581.855 Q88.0419 583.86 89.6015 586.852 Q91.1293 589.844 91.1293 594.173 Q91.1293 599.647 88.0738 602.894 Q84.9864 606.109 79.8302 606.109 Q73.8146 606.109 70.759 602.098 Q67.7035 598.056 67.7035 590.067 L67.7035 581.855 L67.1306 581.855 Q63.0884 581.855 60.8922 584.529 Q58.6642 587.171 58.6642 591.977 Q58.6642 595.032 59.3963 597.929 Q60.1283 600.825 61.5924 603.499 L56.1816 603.499 Q54.9403 600.284 54.3355 597.26 Q53.699 594.236 53.699 591.372 Q53.699 583.638 57.7094 579.818 Q61.7197 575.999 69.8679 575.999 Z" fill="#000000" fill-rule="nonzero" fill-opacity="1" /><path clip-path="url(#clip150)" d="M68.6902 534.303 L90.2063 534.303 L90.2063 540.16 L68.8812 540.16 Q63.8204 540.16 61.306 542.133 Q58.7915 544.107 58.7915 548.053 Q58.7915 552.796 61.8152 555.533 Q64.8389 558.27 70.0588 558.27 L90.2063 558.27 L90.2063 564.159 L54.5583 564.159 L54.5583 558.27 L60.0965 558.27 Q56.8818 556.17 55.2904 553.337 Q53.699 550.472 53.699 546.748 Q53.699 540.605 57.5184 537.454 Q61.306 534.303 68.6902 534.303 Z" fill="#000000" fill-rule="nonzero" fill-opacity="1" /><path clip-path="url(#clip150)" d="M59.9692 499.165 L40.6811 499.165 L40.6811 493.308 L90.2063 493.308 L90.2063 499.165 L84.8591 499.165 Q88.0419 501.011 89.6015 503.843 Q91.1293 506.644 91.1293 510.591 Q91.1293 517.052 85.9731 521.126 Q80.8169 525.169 72.4141 525.169 Q64.0114 525.169 58.8552 521.126 Q53.699 517.052 53.699 510.591 Q53.699 506.644 55.2586 503.843 Q56.7863 501.011 59.9692 499.165 M72.4141 519.121 Q78.8753 519.121 82.5674 516.479 Q86.2277 513.806 86.2277 509.159 Q86.2277 504.512 82.5674 501.838 Q78.8753 499.165 72.4141 499.165 Q65.9529 499.165 62.2927 501.838 Q58.6006 504.512 58.6006 509.159 Q58.6006 513.806 62.2927 516.479 Q65.9529 519.121 72.4141 519.121 Z" fill="#000000" fill-rule="nonzero" fill-opacity="1" /><path clip-path="url(#clip150)" d="M82.1218 479.749 L82.1218 473.033 L87.5963 473.033 L97.7815 478.253 L97.7815 482.359 L87.5963 479.749 L82.1218 479.749 Z" fill="#000000" fill-rule="nonzero" fill-opacity="1" /><path clip-path="url(#clip150)" d="M44.4369 434.012 L54.5583 434.012 L54.5583 421.949 L59.1098 421.949 L59.1098 434.012 L78.4616 434.012 Q82.8221 434.012 84.0634 432.834 Q85.3047 431.625 85.3047 427.964 L85.3047 421.949 L90.2063 421.949 L90.2063 427.964 Q90.2063 434.744 87.6918 437.322 Q85.1455 439.9 78.4616 439.9 L59.1098 439.9 L59.1098 444.197 L54.5583 444.197 L54.5583 439.9 L44.4369 439.9 L44.4369 434.012 Z" fill="#000000" fill-rule="nonzero" fill-opacity="1" /><path clip-path="url(#clip150)" d="M54.5583 414.246 L54.5583 408.39 L90.2063 408.39 L90.2063 414.246 L54.5583 414.246 M40.6811 414.246 L40.6811 408.39 L48.0971 408.39 L48.0971 414.246 L40.6811 414.246 Z" fill="#000000" fill-rule="nonzero" fill-opacity="1" /><path clip-path="url(#clip150)" d="M61.4015 368.381 Q57.4547 366.185 55.5768 363.13 Q53.699 360.074 53.699 355.936 Q53.699 350.366 57.6139 347.343 Q61.4969 344.319 68.6902 344.319 L90.2063 344.319 L90.2063 350.207 L68.8812 350.207 Q63.7568 350.207 61.2741 352.021 Q58.7915 353.836 58.7915 357.56 Q58.7915 362.111 61.8152 364.753 Q64.8389 367.395 70.0588 367.395 L90.2063 367.395 L90.2063 373.283 L68.8812 373.283 Q63.7249 373.283 61.2741 375.097 Q58.7915 376.911 58.7915 380.699 Q58.7915 385.187 61.8471 387.828 Q64.8708 390.47 70.0588 390.47 L90.2063 390.47 L90.2063 396.359 L54.5583 396.359 L54.5583 390.47 L60.0965 390.47 Q56.8182 388.465 55.2586 385.664 Q53.699 382.863 53.699 379.012 Q53.699 375.129 55.6723 372.423 Q57.6457 369.686 61.4015 368.381 Z" fill="#000000" fill-rule="nonzero" fill-opacity="1" /><path clip-path="url(#clip150)" d="M70.9182 302.146 L73.7828 302.146 L73.7828 329.073 Q79.8302 328.691 83.013 325.445 Q86.1641 322.166 86.1641 316.342 Q86.1641 312.968 85.3365 309.817 Q84.509 306.634 82.8539 303.515 L88.3921 303.515 Q89.7289 306.666 90.4291 309.976 Q91.1293 313.286 91.1293 316.692 Q91.1293 325.222 86.1641 330.219 Q81.1988 335.184 72.7324 335.184 Q63.9796 335.184 58.8552 330.473 Q53.699 325.731 53.699 317.71 Q53.699 310.517 58.3459 306.347 Q62.9611 302.146 70.9182 302.146 M69.1995 308.002 Q64.3933 308.066 61.5288 310.708 Q58.6642 313.318 58.6642 317.647 Q58.6642 322.548 61.4333 325.508 Q64.2024 328.436 69.2313 328.882 L69.1995 308.002 Z" fill="#000000" fill-rule="nonzero" fill-opacity="1" /><path clip-path="url(#clip150)" d="M82.1218 291.038 L82.1218 284.322 L90.2063 284.322 L90.2063 291.038 L82.1218 291.038 M56.4999 291.038 L56.4999 284.322 L64.5843 284.322 L64.5843 291.038 L56.4999 291.038 Z" fill="#000000" fill-rule="nonzero" fill-opacity="1" /><path clip-path="url(#clip150)" d="M42.6863 269.681 L42.6863 244.441 L48.0971 244.441 L48.0971 263.793 L59.7464 263.793 Q59.2689 262.392 59.0461 260.992 Q58.7915 259.591 58.7915 258.191 Q58.7915 250.234 63.152 245.587 Q67.5125 240.94 74.9604 240.94 Q82.6311 240.94 86.8961 245.714 Q91.1293 250.488 91.1293 259.178 Q91.1293 262.169 90.6201 265.289 Q90.1108 268.376 89.0923 271.686 L82.6311 271.686 Q84.1907 268.822 84.9546 265.766 Q85.7185 262.71 85.7185 259.305 Q85.7185 253.799 82.8221 250.584 Q79.9257 247.369 74.9604 247.369 Q69.9952 247.369 67.0988 250.584 Q64.2024 253.799 64.2024 259.305 Q64.2024 261.883 64.7753 264.461 Q65.3482 267.007 66.5577 269.681 L42.6863 269.681 Z" fill="#000000" fill-rule="nonzero" fill-opacity="1" /><path clip-path="url(#clip150)" d="M46.9195 214.522 Q46.9195 219.487 51.8211 222.002 Q56.6908 224.484 66.494 224.484 Q76.2654 224.484 81.167 222.002 Q86.0367 219.487 86.0367 214.522 Q86.0367 209.525 81.167 207.042 Q76.2654 204.528 66.494 204.528 Q56.6908 204.528 51.8211 207.042 Q46.9195 209.525 46.9195 214.522 M41.8269 214.522 Q41.8269 206.533 48.1608 202.332 Q54.4628 198.099 66.494 198.099 Q78.4934 198.099 84.8273 202.332 Q91.1293 206.533 91.1293 214.522 Q91.1293 222.511 84.8273 226.744 Q78.4934 230.946 66.494 230.946 Q54.4628 230.946 48.1608 226.744 Q41.8269 222.511 41.8269 214.522 Z" fill="#000000" fill-rule="nonzero" fill-opacity="1" /><polyline clip-path="url(#clip152)" style="stroke:#009af9; stroke-linecap:round; stroke-linejoin:round; stroke-width:4; stroke-opacity:1; fill:none" points="350.696,434.611 373.233,168.35 395.769,140.008 418.305,145.556 440.842,155.481 463.378,154.096 485.914,117.626 508.451,141.49 530.987,152.684 553.523,157.593 576.06,138.292 598.596,160.52 621.132,149.789 643.669,131.368 666.205,136.452 688.741,136.021 711.278,130.644 733.814,129.558 756.351,127.586 778.887,155.204 801.423,148.941 823.96,165.771 846.496,160.345 869.032,136.535 891.569,141.421 914.105,158.768 936.641,147.702 959.178,125.628 981.714,162.253 1004.25,133.479 1026.79,147.793 1049.32,148.409 1071.86,164.981 1094.4,152.8 1116.93,140.83 1139.47,139.645 1162,166.734 1184.54,167.946 1207.08,114.566 1229.61,132.821 1252.15,149.616 1274.69,115.391 1297.22,167.464 1319.76,122.372 1342.3,174.815 1364.83,176.243 1387.37,161.089 1409.9,120.206 1432.44,136.765 1454.98,157.807 1477.51,119.246 1500.05,163.438 1522.59,159.811 1545.12,130.214 1567.66,145.955 1590.2,179.859 1612.73,171.702 1635.27,156.094 1657.8,156.358 1680.34,130.378 1702.88,149.795 1725.41,153.348 1747.95,154.951 1770.49,146.69 1793.02,117.695 1815.56,152.368 1838.1,128.054 1860.63,161.928 1883.17,177.085 1905.7,150.119 1928.24,142.149 1950.78,145.955 1973.31,167.369 1995.85,176.778 2018.39,143.515 2040.92,123.241 2063.46,123.639 2085.99,142.16 2108.53,150.841 2131.07,136.459 2153.6,181.986 2176.14,154.925 2198.68,116.697 2221.21,170.091 2243.75,144.313 2266.29,185.614 2288.82,158.908 2311.36,143.895 2333.89,156.18 2356.43,154.665 2378.97,170.869 2401.5,150.366 2424.04,134.995 2446.58,141.218 2469.11,162.269 2491.65,150.781 2514.19,142.571 2536.72,137.238 2559.26,133.127 2581.79,128.339 2604.33,180.189 2626.87,162.825 2649.4,146.696 2671.94,156.653 2694.48,148.981 2717.01,152.825 2739.55,175.896 2762.09,159.167 2784.62,151.308 2807.16,150.046 2829.69,131.476 2852.23,157.658 2874.77,181.589 2897.3,142.83 2919.84,123.875 2942.38,145.721 2964.91,154.314 2987.45,110.236 3009.99,146.579 "/>
</svg>
