<?xml version="1.0" encoding="utf-8"?>
<svg xmlns="http://www.w3.org/2000/svg" xmlns:xlink="http://www.w3.org/1999/xlink" width="800" height="300" viewBox="0 0 3200 1200">
<defs>
  <clipPath id="clip750">
    <rect x="0" y="0" width="3200" height="1200"/>
  </clipPath>
</defs>
<path clip-path="url(#clip750)" d="M0 1200 L3200 1200 L3200 0 L0 0  Z" fill="#ffffff" fill-rule="evenodd" fill-opacity="1"/>
<defs>
  <clipPath id="clip751">
    <rect x="640" y="0" width="2241" height="1200"/>
  </clipPath>
</defs>
<path clip-path="url(#clip750)" d="M270.918 1000.1 L3089.76 1000.1 L3089.76 110.236 L270.918 110.236  Z" fill="#ffffff" fill-rule="evenodd" fill-opacity="1"/>
<defs>
  <clipPath id="clip752">
    <rect x="270" y="110" width="2820" height="891"/>
  </clipPath>
</defs>
<polyline clip-path="url(#clip752)" style="stroke:#000000; stroke-linecap:round; stroke-linejoin:round; stroke-width:2; stroke-opacity:0.1; fill:none" points="318.657,1000.1 318.657,110.236 "/>
<polyline clip-path="url(#clip752)" style="stroke:#000000; stroke-linecap:round; stroke-linejoin:round; stroke-width:2; stroke-opacity:0.1; fill:none" points="959.449,1000.1 959.449,110.236 "/>
<polyline clip-path="url(#clip752)" style="stroke:#000000; stroke-linecap:round; stroke-linejoin:round; stroke-width:2; stroke-opacity:0.1; fill:none" points="1600.24,1000.1 1600.24,110.236 "/>
<polyline clip-path="url(#clip752)" style="stroke:#000000; stroke-linecap:round; stroke-linejoin:round; stroke-width:2; stroke-opacity:0.1; fill:none" points="2241.03,1000.1 2241.03,110.236 "/>
<polyline clip-path="url(#clip752)" style="stroke:#000000; stroke-linecap:round; stroke-linejoin:round; stroke-width:2; stroke-opacity:0.1; fill:none" points="2881.83,1000.1 2881.83,110.236 "/>
<polyline clip-path="url(#clip750)" style="stroke:#000000; stroke-linecap:round; stroke-linejoin:round; stroke-width:4; stroke-opacity:1; fill:none" points="270.918,1000.1 3089.76,1000.1 "/>
<polyline clip-path="url(#clip750)" style="stroke:#000000; stroke-linecap:round; stroke-linejoin:round; stroke-width:4; stroke-opacity:1; fill:none" points="318.657,1000.1 318.657,981.2 "/>
<polyline clip-path="url(#clip750)" style="stroke:#000000; stroke-linecap:round; stroke-linejoin:round; stroke-width:4; stroke-opacity:1; fill:none" points="959.449,1000.1 959.449,981.2 "/>
<polyline clip-path="url(#clip750)" style="stroke:#000000; stroke-linecap:round; stroke-linejoin:round; stroke-width:4; stroke-opacity:1; fill:none" points="1600.24,1000.1 1600.24,981.2 "/>
<polyline clip-path="url(#clip750)" style="stroke:#000000; stroke-linecap:round; stroke-linejoin:round; stroke-width:4; stroke-opacity:1; fill:none" points="2241.03,1000.1 2241.03,981.2 "/>
<polyline clip-path="url(#clip750)" style="stroke:#000000; stroke-linecap:round; stroke-linejoin:round; stroke-width:4; stroke-opacity:1; fill:none" points="2881.83,1000.1 2881.83,981.2 "/>
<path clip-path="url(#clip750)" d="M318.657 1037.42 Q315.046 1037.42 313.217 1040.98 Q311.411 1044.52 311.411 1051.65 Q311.411 1058.76 313.217 1062.32 Q315.046 1065.87 318.657 1065.87 Q322.291 1065.87 324.096 1062.32 Q325.925 1058.76 325.925 1051.65 Q325.925 1044.52 324.096 1040.98 Q322.291 1037.42 318.657 1037.42 M318.657 1033.71 Q324.467 1033.71 327.522 1038.32 Q330.601 1042.9 330.601 1051.65 Q330.601 1060.38 327.522 1064.99 Q324.467 1069.57 318.657 1069.57 Q312.847 1069.57 309.768 1064.99 Q306.712 1060.38 306.712 1051.65 Q306.712 1042.9 309.768 1038.32 Q312.847 1033.71 318.657 1033.71 Z" fill="#000000" fill-rule="nonzero" fill-opacity="1" /><path clip-path="url(#clip750)" d="M938.222 1064.96 L954.542 1064.96 L954.542 1068.9 L932.597 1068.9 L932.597 1064.96 Q935.259 1062.21 939.843 1057.58 Q944.449 1052.93 945.63 1051.58 Q947.875 1049.06 948.755 1047.32 Q949.658 1045.56 949.658 1043.87 Q949.658 1041.12 947.713 1039.38 Q945.792 1037.65 942.69 1037.65 Q940.491 1037.65 938.037 1038.41 Q935.607 1039.18 932.829 1040.73 L932.829 1036 Q935.653 1034.87 938.107 1034.29 Q940.56 1033.71 942.597 1033.71 Q947.968 1033.71 951.162 1036.4 Q954.357 1039.08 954.357 1043.57 Q954.357 1045.7 953.546 1047.62 Q952.759 1049.52 950.653 1052.12 Q950.074 1052.79 946.972 1056 Q943.871 1059.2 938.222 1064.96 Z" fill="#000000" fill-rule="nonzero" fill-opacity="1" /><path clip-path="url(#clip750)" d="M974.356 1037.42 Q970.745 1037.42 968.917 1040.98 Q967.111 1044.52 967.111 1051.65 Q967.111 1058.76 968.917 1062.32 Q970.745 1065.87 974.356 1065.87 Q977.991 1065.87 979.796 1062.32 Q981.625 1058.76 981.625 1051.65 Q981.625 1044.52 979.796 1040.98 Q977.991 1037.42 974.356 1037.42 M974.356 1033.71 Q980.167 1033.71 983.222 1038.32 Q986.301 1042.9 986.301 1051.65 Q986.301 1060.38 983.222 1064.99 Q980.167 1069.57 974.356 1069.57 Q968.546 1069.57 965.468 1064.99 Q962.412 1060.38 962.412 1051.65 Q962.412 1042.9 965.468 1038.32 Q968.546 1033.71 974.356 1033.71 Z" fill="#000000" fill-rule="nonzero" fill-opacity="1" /><path clip-path="url(#clip750)" d="M1588.41 1038.41 L1576.61 1056.86 L1588.41 1056.86 L1588.41 1038.41 M1587.19 1034.34 L1593.07 1034.34 L1593.07 1056.86 L1598 1056.86 L1598 1060.75 L1593.07 1060.75 L1593.07 1068.9 L1588.41 1068.9 L1588.41 1060.75 L1572.81 1060.75 L1572.81 1056.24 L1587.19 1034.34 Z" fill="#000000" fill-rule="nonzero" fill-opacity="1" /><path clip-path="url(#clip750)" d="M1615.73 1037.42 Q1612.12 1037.42 1610.29 1040.98 Q1608.48 1044.52 1608.48 1051.65 Q1608.48 1058.76 1610.29 1062.32 Q1612.12 1065.87 1615.73 1065.87 Q1619.36 1065.87 1621.17 1062.32 Q1623 1058.76 1623 1051.65 Q1623 1044.52 1621.17 1040.98 Q1619.36 1037.42 1615.73 1037.42 M1615.73 1033.71 Q1621.54 1033.71 1624.59 1038.32 Q1627.67 1042.9 1627.67 1051.65 Q1627.67 1060.38 1624.59 1064.99 Q1621.54 1069.57 1615.73 1069.57 Q1609.92 1069.57 1606.84 1064.99 Q1603.78 1060.38 1603.78 1051.65 Q1603.78 1042.9 1606.84 1038.32 Q1609.92 1033.71 1615.73 1033.71 Z" fill="#000000" fill-rule="nonzero" fill-opacity="1" /><path clip-path="url(#clip750)" d="M2226.44 1049.75 Q2223.29 1049.75 2221.44 1051.91 Q2219.61 1054.06 2219.61 1057.81 Q2219.61 1061.54 2221.44 1063.71 Q2223.29 1065.87 2226.44 1065.87 Q2229.59 1065.87 2231.42 1063.71 Q2233.27 1061.54 2233.27 1057.81 Q2233.27 1054.06 2231.42 1051.91 Q2229.59 1049.75 2226.44 1049.75 M2235.72 1035.1 L2235.72 1039.36 Q2233.96 1038.53 2232.16 1038.09 Q2230.37 1037.65 2228.62 1037.65 Q2223.99 1037.65 2221.53 1040.77 Q2219.1 1043.9 2218.75 1050.22 Q2220.12 1048.2 2222.18 1047.14 Q2224.24 1046.05 2226.72 1046.05 Q2231.93 1046.05 2234.93 1049.22 Q2237.97 1052.37 2237.97 1057.81 Q2237.97 1063.13 2234.82 1066.35 Q2231.67 1069.57 2226.44 1069.57 Q2220.44 1069.57 2217.27 1064.99 Q2214.1 1060.38 2214.1 1051.65 Q2214.1 1043.46 2217.99 1038.6 Q2221.88 1033.71 2228.43 1033.71 Q2230.19 1033.71 2231.97 1034.06 Q2233.78 1034.41 2235.72 1035.1 Z" fill="#000000" fill-rule="nonzero" fill-opacity="1" /><path clip-path="url(#clip750)" d="M2256.02 1037.42 Q2252.41 1037.42 2250.58 1040.98 Q2248.78 1044.52 2248.78 1051.65 Q2248.78 1058.76 2250.58 1062.32 Q2252.41 1065.87 2256.02 1065.87 Q2259.66 1065.87 2261.46 1062.32 Q2263.29 1058.76 2263.29 1051.65 Q2263.29 1044.52 2261.46 1040.98 Q2259.66 1037.42 2256.02 1037.42 M2256.02 1033.71 Q2261.83 1033.71 2264.89 1038.32 Q2267.97 1042.9 2267.97 1051.65 Q2267.97 1060.38 2264.89 1064.99 Q2261.83 1069.57 2256.02 1069.57 Q2250.21 1069.57 2247.13 1064.99 Q2244.08 1060.38 2244.08 1051.65 Q2244.08 1042.9 2247.13 1038.32 Q2250.21 1033.71 2256.02 1033.71 Z" fill="#000000" fill-rule="nonzero" fill-opacity="1" /><path clip-path="url(#clip750)" d="M2866.7 1052.49 Q2863.37 1052.49 2861.44 1054.27 Q2859.55 1056.05 2859.55 1059.18 Q2859.55 1062.3 2861.44 1064.08 Q2863.37 1065.87 2866.7 1065.87 Q2870.03 1065.87 2871.95 1064.08 Q2873.88 1062.28 2873.88 1059.18 Q2873.88 1056.05 2871.95 1054.27 Q2870.06 1052.49 2866.7 1052.49 M2862.02 1050.5 Q2859.01 1049.75 2857.32 1047.69 Q2855.66 1045.63 2855.66 1042.67 Q2855.66 1038.53 2858.6 1036.12 Q2861.56 1033.71 2866.7 1033.71 Q2871.86 1033.71 2874.8 1036.12 Q2877.74 1038.53 2877.74 1042.67 Q2877.74 1045.63 2876.05 1047.69 Q2874.38 1049.75 2871.4 1050.5 Q2874.78 1051.28 2876.65 1053.57 Q2878.55 1055.87 2878.55 1059.18 Q2878.55 1064.2 2875.47 1066.88 Q2872.42 1069.57 2866.7 1069.57 Q2860.98 1069.57 2857.9 1066.88 Q2854.85 1064.2 2854.85 1059.18 Q2854.85 1055.87 2856.75 1053.57 Q2858.64 1051.28 2862.02 1050.5 M2860.31 1043.11 Q2860.31 1045.8 2861.98 1047.3 Q2863.67 1048.81 2866.7 1048.81 Q2869.71 1048.81 2871.4 1047.3 Q2873.11 1045.8 2873.11 1043.11 Q2873.11 1040.43 2871.4 1038.92 Q2869.71 1037.42 2866.7 1037.42 Q2863.67 1037.42 2861.98 1038.92 Q2860.31 1040.43 2860.31 1043.11 Z" fill="#000000" fill-rule="nonzero" fill-opacity="1" /><path clip-path="url(#clip750)" d="M2896.86 1037.42 Q2893.25 1037.42 2891.42 1040.98 Q2889.62 1044.52 2889.62 1051.65 Q2889.62 1058.76 2891.42 1062.32 Q2893.25 1065.87 2896.86 1065.87 Q2900.5 1065.87 2902.3 1062.32 Q2904.13 1058.76 2904.13 1051.65 Q2904.13 1044.52 2902.3 1040.98 Q2900.5 1037.42 2896.86 1037.42 M2896.86 1033.71 Q2902.67 1033.71 2905.73 1038.32 Q2908.81 1042.9 2908.81 1051.65 Q2908.81 1060.38 2905.73 1064.99 Q2902.67 1069.57 2896.86 1069.57 Q2891.05 1069.57 2887.97 1064.99 Q2884.92 1060.38 2884.92 1051.65 Q2884.92 1042.9 2887.97 1038.32 Q2891.05 1033.71 2896.86 1033.71 Z" fill="#000000" fill-rule="nonzero" fill-opacity="1" /><path clip-path="url(#clip750)" d="M1556.64 1109.44 L1563.07 1109.44 L1563.07 1151.55 L1586.21 1151.55 L1586.21 1156.96 L1556.64 1156.96 L1556.64 1109.44 Z" fill="#000000" fill-rule="nonzero" fill-opacity="1" /><path clip-path="url(#clip750)" d="M1592.7 1121.31 L1598.56 1121.31 L1598.56 1156.96 L1592.7 1156.96 L1592.7 1121.31 M1592.7 1107.44 L1598.56 1107.44 L1598.56 1114.85 L1592.7 1114.85 L1592.7 1107.44 Z" fill="#000000" fill-rule="nonzero" fill-opacity="1" /><path clip-path="url(#clip750)" d="M1640.44 1135.45 L1640.44 1156.96 L1634.59 1156.96 L1634.59 1135.64 Q1634.59 1130.58 1632.61 1128.06 Q1630.64 1125.55 1626.69 1125.55 Q1621.95 1125.55 1619.21 1128.57 Q1616.48 1131.59 1616.48 1136.81 L1616.48 1156.96 L1610.59 1156.96 L1610.59 1121.31 L1616.48 1121.31 L1616.48 1126.85 Q1618.58 1123.64 1621.41 1122.05 Q1624.27 1120.45 1628 1120.45 Q1634.14 1120.45 1637.29 1124.27 Q1640.44 1128.06 1640.44 1135.45 Z" fill="#000000" fill-rule="nonzero" fill-opacity="1" /><path clip-path="url(#clip750)" d="M1682.62 1137.67 L1682.62 1140.54 L1655.69 1140.54 Q1656.07 1146.59 1659.32 1149.77 Q1662.6 1152.92 1668.42 1152.92 Q1671.79 1152.92 1674.95 1152.09 Q1678.13 1151.26 1681.25 1149.61 L1681.25 1155.15 Q1678.1 1156.48 1674.79 1157.18 Q1671.48 1157.88 1668.07 1157.88 Q1659.54 1157.88 1654.54 1152.92 Q1649.58 1147.95 1649.58 1139.49 Q1649.58 1130.74 1654.29 1125.61 Q1659.03 1120.45 1667.05 1120.45 Q1674.25 1120.45 1678.42 1125.1 Q1682.62 1129.72 1682.62 1137.67 M1676.76 1135.95 Q1676.7 1131.15 1674.05 1128.28 Q1671.44 1125.42 1667.12 1125.42 Q1662.21 1125.42 1659.25 1128.19 Q1656.33 1130.96 1655.88 1135.99 L1676.76 1135.95 Z" fill="#000000" fill-rule="nonzero" fill-opacity="1" /><path clip-path="url(#clip750)" d="M1708.43 1139.04 Q1701.33 1139.04 1698.59 1140.67 Q1695.86 1142.29 1695.86 1146.2 Q1695.86 1149.32 1697.89 1151.17 Q1699.96 1152.98 1703.5 1152.98 Q1708.37 1152.98 1711.29 1149.55 Q1714.25 1146.08 1714.25 1140.35 L1714.25 1139.04 L1708.43 1139.04 M1720.11 1136.62 L1720.11 1156.96 L1714.25 1156.96 L1714.25 1151.55 Q1712.25 1154.8 1709.26 1156.36 Q1706.27 1157.88 1701.94 1157.88 Q1696.46 1157.88 1693.22 1154.83 Q1690 1151.74 1690 1146.59 Q1690 1140.57 1694.01 1137.51 Q1698.05 1134.46 1706.04 1134.46 L1714.25 1134.46 L1714.25 1133.89 Q1714.25 1129.84 1711.58 1127.65 Q1708.94 1125.42 1704.13 1125.42 Q1701.08 1125.42 1698.18 1126.15 Q1695.28 1126.88 1692.61 1128.35 L1692.61 1122.94 Q1695.83 1121.7 1698.85 1121.09 Q1701.87 1120.45 1704.74 1120.45 Q1712.47 1120.45 1716.29 1124.46 Q1720.11 1128.48 1720.11 1136.62 Z" fill="#000000" fill-rule="nonzero" fill-opacity="1" /><path clip-path="url(#clip750)" d="M1755.63 1138.72 Q1755.63 1132.36 1752.99 1128.86 Q1750.38 1125.36 1745.64 1125.36 Q1740.93 1125.36 1738.28 1128.86 Q1735.67 1132.36 1735.67 1138.72 Q1735.67 1145.06 1738.28 1148.56 Q1740.93 1152.06 1745.64 1152.06 Q1750.38 1152.06 1752.99 1148.56 Q1755.63 1145.06 1755.63 1138.72 M1761.49 1152.54 Q1761.49 1161.64 1757.45 1166.06 Q1753.4 1170.52 1745.06 1170.52 Q1741.98 1170.52 1739.24 1170.04 Q1736.5 1169.6 1733.92 1168.64 L1733.92 1162.95 Q1736.5 1164.35 1739.02 1165.01 Q1741.53 1165.68 1744.14 1165.68 Q1749.9 1165.68 1752.77 1162.66 Q1755.63 1159.67 1755.63 1153.59 L1755.63 1150.69 Q1753.82 1153.84 1750.98 1155.4 Q1748.15 1156.96 1744.2 1156.96 Q1737.65 1156.96 1733.64 1151.96 Q1729.63 1146.97 1729.63 1138.72 Q1729.63 1130.45 1733.64 1125.45 Q1737.65 1120.45 1744.2 1120.45 Q1748.15 1120.45 1750.98 1122.01 Q1753.82 1123.57 1755.63 1126.72 L1755.63 1121.31 L1761.49 1121.31 L1761.49 1152.54 Z" fill="#000000" fill-rule="nonzero" fill-opacity="1" /><path clip-path="url(#clip750)" d="M1804.04 1137.67 L1804.04 1140.54 L1777.12 1140.54 Q1777.5 1146.59 1780.74 1149.77 Q1784.02 1152.92 1789.85 1152.92 Q1793.22 1152.92 1796.37 1152.09 Q1799.55 1151.26 1802.67 1149.61 L1802.67 1155.15 Q1799.52 1156.48 1796.21 1157.18 Q1792.9 1157.88 1789.5 1157.88 Q1780.97 1157.88 1775.97 1152.92 Q1771 1147.95 1771 1139.49 Q1771 1130.74 1775.71 1125.61 Q1780.46 1120.45 1788.48 1120.45 Q1795.67 1120.45 1799.84 1125.1 Q1804.04 1129.72 1804.04 1137.67 M1798.19 1135.95 Q1798.12 1131.15 1795.48 1128.28 Q1792.87 1125.42 1788.54 1125.42 Q1783.64 1125.42 1780.68 1128.19 Q1777.75 1130.96 1777.31 1135.99 L1798.19 1135.95 Z" fill="#000000" fill-rule="nonzero" fill-opacity="1" /><polyline clip-path="url(#clip752)" style="stroke:#000000; stroke-linecap:round; stroke-linejoin:round; stroke-width:2; stroke-opacity:0.1; fill:none" points="270.918,1000.1 3089.76,1000.1 "/>
<polyline clip-path="url(#clip752)" style="stroke:#000000; stroke-linecap:round; stroke-linejoin:round; stroke-width:2; stroke-opacity:0.1; fill:none" points="270.918,672.989 3089.76,672.989 "/>
<polyline clip-path="url(#clip752)" style="stroke:#000000; stroke-linecap:round; stroke-linejoin:round; stroke-width:2; stroke-opacity:0.1; fill:none" points="270.918,345.881 3089.76,345.881 "/>
<polyline clip-path="url(#clip750)" style="stroke:#000000; stroke-linecap:round; stroke-linejoin:round; stroke-width:4; stroke-opacity:1; fill:none" points="270.918,1000.1 270.918,110.236 "/>
<polyline clip-path="url(#clip750)" style="stroke:#000000; stroke-linecap:round; stroke-linejoin:round; stroke-width:4; stroke-opacity:1; fill:none" points="270.918,1000.1 289.815,1000.1 "/>
<polyline clip-path="url(#clip750)" style="stroke:#000000; stroke-linecap:round; stroke-linejoin:round; stroke-width:4; stroke-opacity:1; fill:none" points="270.918,672.989 289.815,672.989 "/>
<polyline clip-path="url(#clip750)" style="stroke:#000000; stroke-linecap:round; stroke-linejoin:round; stroke-width:4; stroke-opacity:1; fill:none" points="270.918,345.881 289.815,345.881 "/>
<path clip-path="url(#clip750)" d="M154.902 1019.89 L162.54 1019.89 L162.54 993.525 L154.23 995.191 L154.23 990.932 L162.494 989.265 L167.17 989.265 L167.17 1019.89 L174.809 1019.89 L174.809 1023.83 L154.902 1023.83 L154.902 1019.89 Z" fill="#000000" fill-rule="nonzero" fill-opacity="1" /><path clip-path="url(#clip750)" d="M194.253 992.344 Q190.642 992.344 188.813 995.909 Q187.008 999.45 187.008 1006.58 Q187.008 1013.69 188.813 1017.25 Q190.642 1020.79 194.253 1020.79 Q197.887 1020.79 199.693 1017.25 Q201.522 1013.69 201.522 1006.58 Q201.522 999.45 199.693 995.909 Q197.887 992.344 194.253 992.344 M194.253 988.64 Q200.063 988.64 203.119 993.247 Q206.198 997.83 206.198 1006.58 Q206.198 1015.31 203.119 1019.91 Q200.063 1024.5 194.253 1024.5 Q188.443 1024.5 185.364 1019.91 Q182.309 1015.31 182.309 1006.58 Q182.309 997.83 185.364 993.247 Q188.443 988.64 194.253 988.64 Z" fill="#000000" fill-rule="nonzero" fill-opacity="1" /><path clip-path="url(#clip750)" d="M206.743 993.218 L212.95 993.218 L212.95 971.796 L206.198 973.15 L206.198 969.689 L212.912 968.335 L216.711 968.335 L216.711 993.218 L222.918 993.218 L222.918 996.415 L206.743 996.415 L206.743 993.218 Z" fill="#000000" fill-rule="nonzero" fill-opacity="1" /><path clip-path="url(#clip750)" d="M153.792 692.782 L161.431 692.782 L161.431 666.416 L153.121 668.083 L153.121 663.824 L161.384 662.157 L166.06 662.157 L166.06 692.782 L173.699 692.782 L173.699 696.717 L153.792 696.717 L153.792 692.782 Z" fill="#000000" fill-rule="nonzero" fill-opacity="1" /><path clip-path="url(#clip750)" d="M193.143 665.236 Q189.532 665.236 187.704 668.801 Q185.898 672.342 185.898 679.472 Q185.898 686.578 187.704 690.143 Q189.532 693.685 193.143 693.685 Q196.778 693.685 198.583 690.143 Q200.412 686.578 200.412 679.472 Q200.412 672.342 198.583 668.801 Q196.778 665.236 193.143 665.236 M193.143 661.532 Q198.954 661.532 202.009 666.139 Q205.088 670.722 205.088 679.472 Q205.088 688.199 202.009 692.805 Q198.954 697.388 193.143 697.388 Q187.333 697.388 184.255 692.805 Q181.199 688.199 181.199 679.472 Q181.199 670.722 184.255 666.139 Q187.333 661.532 193.143 661.532 Z" fill="#000000" fill-rule="nonzero" fill-opacity="1" /><path clip-path="url(#clip750)" d="M209.658 666.109 L222.918 666.109 L222.918 669.307 L205.088 669.307 L205.088 666.109 Q207.251 663.871 210.975 660.11 Q214.717 656.329 215.677 655.238 Q217.501 653.188 218.216 651.778 Q218.949 650.348 218.949 648.975 Q218.949 646.737 217.369 645.327 Q215.808 643.916 213.288 643.916 Q211.501 643.916 209.508 644.537 Q207.533 645.157 205.276 646.418 L205.276 642.581 Q207.57 641.659 209.564 641.189 Q211.558 640.719 213.213 640.719 Q217.576 640.719 220.172 642.901 Q222.767 645.082 222.767 648.731 Q222.767 650.461 222.109 652.022 Q221.469 653.565 219.758 655.671 Q219.288 656.216 216.767 658.831 Q214.247 661.426 209.658 666.109 Z" fill="#000000" fill-rule="nonzero" fill-opacity="1" /><path clip-path="url(#clip750)" d="M153.134 365.674 L160.772 365.674 L160.772 339.308 L152.462 340.975 L152.462 336.715 L160.726 335.049 L165.402 335.049 L165.402 365.674 L173.041 365.674 L173.041 369.609 L153.134 369.609 L153.134 365.674 Z" fill="#000000" fill-rule="nonzero" fill-opacity="1" /><path clip-path="url(#clip750)" d="M192.485 338.127 Q188.874 338.127 187.045 341.692 Q185.24 345.234 185.24 352.364 Q185.24 359.47 187.045 363.035 Q188.874 366.576 192.485 366.576 Q196.119 366.576 197.925 363.035 Q199.754 359.47 199.754 352.364 Q199.754 345.234 197.925 341.692 Q196.119 338.127 192.485 338.127 M192.485 334.424 Q198.295 334.424 201.351 339.03 Q204.43 343.614 204.43 352.364 Q204.43 361.09 201.351 365.697 Q198.295 370.28 192.485 370.28 Q186.675 370.28 183.596 365.697 Q180.541 361.09 180.541 352.364 Q180.541 343.614 183.596 339.03 Q186.675 334.424 192.485 334.424 Z" fill="#000000" fill-rule="nonzero" fill-opacity="1" /><path clip-path="url(#clip750)" d="M217.125 327.058 Q219.852 327.641 221.375 329.484 Q222.918 331.327 222.918 334.036 Q222.918 338.192 220.059 340.468 Q217.2 342.744 211.934 342.744 Q210.166 342.744 208.285 342.386 Q206.423 342.048 204.43 341.352 L204.43 337.685 Q206.009 338.606 207.89 339.076 Q209.771 339.546 211.821 339.546 Q215.395 339.546 217.256 338.136 Q219.137 336.725 219.137 334.036 Q219.137 331.553 217.388 330.161 Q215.658 328.751 212.555 328.751 L209.282 328.751 L209.282 325.629 L212.705 325.629 Q215.507 325.629 216.993 324.519 Q218.479 323.391 218.479 321.284 Q218.479 319.121 216.937 317.974 Q215.413 316.808 212.555 316.808 Q210.994 316.808 209.207 317.146 Q207.42 317.485 205.276 318.2 L205.276 314.814 Q207.439 314.212 209.32 313.911 Q211.219 313.611 212.893 313.611 Q217.219 313.611 219.739 315.585 Q222.259 317.541 222.259 320.889 Q222.259 323.221 220.924 324.839 Q219.589 326.437 217.125 327.058 Z" fill="#000000" fill-rule="nonzero" fill-opacity="1" /><path clip-path="url(#clip750)" d="M42.6863 890.656 L42.6863 860.609 L48.0971 860.609 L48.0971 884.226 L62.1653 884.226 L62.1653 861.596 L67.5762 861.596 L67.5762 884.226 L84.7954 884.226 L84.7954 860.037 L90.2063 860.037 L90.2063 890.656 L42.6863 890.656 Z" fill="#000000" fill-rule="nonzero" fill-opacity="1" /><path clip-path="url(#clip750)" d="M44.2459 820.983 L50.5161 820.983 Q48.7655 824.643 47.9062 827.89 Q47.0468 831.136 47.0468 834.16 Q47.0468 839.412 49.0838 842.276 Q51.1208 845.109 54.8766 845.109 Q58.0276 845.109 59.6509 843.231 Q61.2423 841.321 62.229 836.038 L63.0247 832.155 Q64.3933 824.962 67.8627 821.556 Q71.3001 818.118 77.0929 818.118 Q83.9997 818.118 87.5645 822.765 Q91.1293 827.38 91.1293 836.324 Q91.1293 839.698 90.3654 843.518 Q89.6015 847.305 88.1056 851.379 L81.4853 851.379 Q83.6814 847.464 84.7954 843.709 Q85.9094 839.953 85.9094 836.324 Q85.9094 830.818 83.7451 827.826 Q81.5808 824.834 77.5704 824.834 Q74.0692 824.834 72.0958 826.999 Q70.1225 829.131 69.1358 834.033 L68.3719 837.948 Q66.9396 845.141 63.8841 848.356 Q60.8285 851.57 55.3859 851.57 Q49.0838 851.57 45.4554 847.146 Q41.8269 842.69 41.8269 834.892 Q41.8269 831.55 42.4317 828.081 Q43.0364 824.611 44.2459 820.983 Z" fill="#000000" fill-rule="nonzero" fill-opacity="1" /><path clip-path="url(#clip750)" d="M44.2459 779.606 L50.5161 779.606 Q48.7655 783.266 47.9062 786.513 Q47.0468 789.759 47.0468 792.783 Q47.0468 798.035 49.0838 800.899 Q51.1208 803.732 54.8766 803.732 Q58.0276 803.732 59.6509 801.854 Q61.2423 799.944 62.229 794.661 L63.0247 790.778 Q64.3933 783.584 67.8627 780.179 Q71.3001 776.741 77.0929 776.741 Q83.9997 776.741 87.5645 781.388 Q91.1293 786.003 91.1293 794.947 Q91.1293 798.321 90.3654 802.14 Q89.6015 805.928 88.1056 810.002 L81.4853 810.002 Q83.6814 806.087 84.7954 802.331 Q85.9094 798.576 85.9094 794.947 Q85.9094 789.441 83.7451 786.449 Q81.5808 783.457 77.5704 783.457 Q74.0692 783.457 72.0958 785.621 Q70.1225 787.754 69.1358 792.656 L68.3719 796.57 Q66.9396 803.764 63.8841 806.978 Q60.8285 810.193 55.3859 810.193 Q49.0838 810.193 45.4554 805.769 Q41.8269 801.313 41.8269 793.515 Q41.8269 790.173 42.4317 786.704 Q43.0364 783.234 44.2459 779.606 Z" fill="#000000" fill-rule="nonzero" fill-opacity="1" /><path clip-path="url(#clip750)" d="M82.1218 765.474 L82.1218 758.758 L90.2063 758.758 L90.2063 765.474 L82.1218 765.474 M56.4999 765.474 L56.4999 758.758 L64.5843 758.758 L64.5843 765.474 L56.4999 765.474 Z" fill="#000000" fill-rule="nonzero" fill-opacity="1" /><path clip-path="url(#clip750)" d="M42.6863 724.033 L42.6863 693.987 L48.0971 693.987 L48.0971 717.604 L62.1653 717.604 L62.1653 694.974 L67.5762 694.974 L67.5762 717.604 L84.7954 717.604 L84.7954 693.414 L90.2063 693.414 L90.2063 724.033 L42.6863 724.033 Z" fill="#000000" fill-rule="nonzero" fill-opacity="1" /><path clip-path="url(#clip750)" d="M68.6902 653.469 L90.2063 653.469 L90.2063 659.326 L68.8812 659.326 Q63.8204 659.326 61.306 661.299 Q58.7915 663.273 58.7915 667.219 Q58.7915 671.962 61.8152 674.699 Q64.8389 677.436 70.0588 677.436 L90.2063 677.436 L90.2063 683.325 L54.5583 683.325 L54.5583 677.436 L60.0965 677.436 Q56.8818 675.336 55.2904 672.503 Q53.699 669.638 53.699 665.914 Q53.699 659.771 57.5184 656.62 Q61.306 653.469 68.6902 653.469 Z" fill="#000000" fill-rule="nonzero" fill-opacity="1" /><path clip-path="url(#clip750)" d="M71.9685 618.331 Q65.6028 618.331 62.1017 620.972 Q58.6006 623.582 58.6006 628.325 Q58.6006 633.035 62.1017 635.677 Q65.6028 638.287 71.9685 638.287 Q78.3024 638.287 81.8036 635.677 Q85.3047 633.035 85.3047 628.325 Q85.3047 623.582 81.8036 620.972 Q78.3024 618.331 71.9685 618.331 M85.7821 612.474 Q94.8851 612.474 99.3092 616.516 Q103.765 620.559 103.765 628.898 Q103.765 631.985 103.288 634.722 Q102.842 637.46 101.887 640.038 L96.19 640.038 Q97.5905 637.46 98.2589 634.945 Q98.9273 632.431 98.9273 629.821 Q98.9273 624.06 95.9036 621.195 Q92.9117 618.331 86.8325 618.331 L83.9361 618.331 Q87.0871 620.145 88.6467 622.978 Q90.2063 625.81 90.2063 629.757 Q90.2063 636.314 85.2092 640.324 Q80.2121 644.335 71.9685 644.335 Q63.6931 644.335 58.696 640.324 Q53.699 636.314 53.699 629.757 Q53.699 625.81 55.2586 622.978 Q56.8182 620.145 59.9692 618.331 L54.5583 618.331 L54.5583 612.474 L85.7821 612.474 Z" fill="#000000" fill-rule="nonzero" fill-opacity="1" /><path clip-path="url(#clip750)" d="M40.6811 600.411 L40.6811 594.555 L90.2063 594.555 L90.2063 600.411 L40.6811 600.411 Z" fill="#000000" fill-rule="nonzero" fill-opacity="1" /><path clip-path="url(#clip750)" d="M72.2868 566.1 Q72.2868 573.198 73.9101 575.935 Q75.5333 578.672 79.4482 578.672 Q82.5674 578.672 84.4135 576.635 Q86.2277 574.566 86.2277 571.033 Q86.2277 566.164 82.7902 563.236 Q79.3209 560.275 73.5918 560.275 L72.2868 560.275 L72.2868 566.1 M69.8679 554.419 L90.2063 554.419 L90.2063 560.275 L84.7954 560.275 Q88.0419 562.281 89.6015 565.273 Q91.1293 568.264 91.1293 572.593 Q91.1293 578.068 88.0738 581.314 Q84.9864 584.529 79.8302 584.529 Q73.8146 584.529 70.759 580.518 Q67.7035 576.476 67.7035 568.487 L67.7035 560.275 L67.1306 560.275 Q63.0884 560.275 60.8922 562.949 Q58.6642 565.591 58.6642 570.397 Q58.6642 573.452 59.3963 576.349 Q60.1283 579.245 61.5924 581.919 L56.1816 581.919 Q54.9403 578.704 54.3355 575.68 Q53.699 572.657 53.699 569.792 Q53.699 562.058 57.7094 558.238 Q61.7197 554.419 69.8679 554.419 Z" fill="#000000" fill-rule="nonzero" fill-opacity="1" /><path clip-path="url(#clip750)" d="M68.6902 512.724 L90.2063 512.724 L90.2063 518.58 L68.8812 518.58 Q63.8204 518.58 61.306 520.553 Q58.7915 522.527 58.7915 526.474 Q58.7915 531.216 61.8152 533.953 Q64.8389 536.691 70.0588 536.691 L90.2063 536.691 L90.2063 542.579 L54.5583 542.579 L54.5583 536.691 L60.0965 536.691 Q56.8818 534.59 55.2904 531.757 Q53.699 528.893 53.699 525.169 Q53.699 519.026 57.5184 515.875 Q61.306 512.724 68.6902 512.724 Z" fill="#000000" fill-rule="nonzero" fill-opacity="1" /><path clip-path="url(#clip750)" d="M59.9692 477.585 L40.6811 477.585 L40.6811 471.728 L90.2063 471.728 L90.2063 477.585 L84.8591 477.585 Q88.0419 479.431 89.6015 482.264 Q91.1293 485.065 91.1293 489.011 Q91.1293 495.473 85.9731 499.547 Q80.8169 503.589 72.4141 503.589 Q64.0114 503.589 58.8552 499.547 Q53.699 495.473 53.699 489.011 Q53.699 485.065 55.2586 482.264 Q56.7863 479.431 59.9692 477.585 M72.4141 497.541 Q78.8753 497.541 82.5674 494.9 Q86.2277 492.226 86.2277 487.579 Q86.2277 482.932 82.5674 480.259 Q78.8753 477.585 72.4141 477.585 Q65.9529 477.585 62.2927 480.259 Q58.6006 482.932 58.6006 487.579 Q58.6006 492.226 62.2927 494.9 Q65.9529 497.541 72.4141 497.541 Z" fill="#000000" fill-rule="nonzero" fill-opacity="1" /><path clip-path="url(#clip750)" d="M82.1218 458.17 L82.1218 451.454 L87.5963 451.454 L97.7815 456.674 L97.7815 460.779 L87.5963 458.17 L82.1218 458.17 Z" fill="#000000" fill-rule="nonzero" fill-opacity="1" /><path clip-path="url(#clip750)" d="M44.4369 412.432 L54.5583 412.432 L54.5583 400.369 L59.1098 400.369 L59.1098 412.432 L78.4616 412.432 Q82.8221 412.432 84.0634 411.254 Q85.3047 410.045 85.3047 406.384 L85.3047 400.369 L90.2063 400.369 L90.2063 406.384 Q90.2063 413.164 87.6918 415.742 Q85.1455 418.32 78.4616 418.32 L59.1098 418.32 L59.1098 422.617 L54.5583 422.617 L54.5583 418.32 L44.4369 418.32 L44.4369 412.432 Z" fill="#000000" fill-rule="nonzero" fill-opacity="1" /><path clip-path="url(#clip750)" d="M54.5583 392.666 L54.5583 386.81 L90.2063 386.81 L90.2063 392.666 L54.5583 392.666 M40.6811 392.666 L40.6811 386.81 L48.0971 386.81 L48.0971 392.666 L40.6811 392.666 Z" fill="#000000" fill-rule="nonzero" fill-opacity="1" /><path clip-path="url(#clip750)" d="M61.4015 346.801 Q57.4547 344.605 55.5768 341.55 Q53.699 338.494 53.699 334.357 Q53.699 328.787 57.6139 325.763 Q61.4969 322.739 68.6902 322.739 L90.2063 322.739 L90.2063 328.627 L68.8812 328.627 Q63.7568 328.627 61.2741 330.442 Q58.7915 332.256 58.7915 335.98 Q58.7915 340.531 61.8152 343.173 Q64.8389 345.815 70.0588 345.815 L90.2063 345.815 L90.2063 351.703 L68.8812 351.703 Q63.7249 351.703 61.2741 353.517 Q58.7915 355.332 58.7915 359.119 Q58.7915 363.607 61.8471 366.249 Q64.8708 368.89 70.0588 368.89 L90.2063 368.89 L90.2063 374.779 L54.5583 374.779 L54.5583 368.89 L60.0965 368.89 Q56.8182 366.885 55.2586 364.084 Q53.699 361.283 53.699 357.432 Q53.699 353.549 55.6723 350.844 Q57.6457 348.106 61.4015 346.801 Z" fill="#000000" fill-rule="nonzero" fill-opacity="1" /><path clip-path="url(#clip750)" d="M70.9182 280.566 L73.7828 280.566 L73.7828 307.493 Q79.8302 307.111 83.013 303.865 Q86.1641 300.586 86.1641 294.762 Q86.1641 291.388 85.3365 288.237 Q84.509 285.054 82.8539 281.935 L88.3921 281.935 Q89.7289 285.086 90.4291 288.396 Q91.1293 291.706 91.1293 295.112 Q91.1293 303.642 86.1641 308.639 Q81.1988 313.604 72.7324 313.604 Q63.9796 313.604 58.8552 308.894 Q53.699 304.151 53.699 296.13 Q53.699 288.937 58.3459 284.768 Q62.9611 280.566 70.9182 280.566 M69.1995 286.423 Q64.3933 286.486 61.5288 289.128 Q58.6642 291.738 58.6642 296.067 Q58.6642 300.968 61.4333 303.928 Q64.2024 306.857 69.2313 307.302 L69.1995 286.423 Z" fill="#000000" fill-rule="nonzero" fill-opacity="1" /><path clip-path="url(#clip750)" d="M82.1218 269.458 L82.1218 262.742 L90.2063 262.742 L90.2063 269.458 L82.1218 269.458 M56.4999 269.458 L56.4999 262.742 L64.5843 262.742 L64.5843 269.458 L56.4999 269.458 Z" fill="#000000" fill-rule="nonzero" fill-opacity="1" /><path clip-path="url(#clip750)" d="M84.7954 247.051 L84.7954 236.547 L48.5427 236.547 L50.8344 247.974 L44.9779 247.974 L42.6863 236.611 L42.6863 230.182 L84.7954 230.182 L84.7954 219.678 L90.2063 219.678 L90.2063 247.051 L84.7954 247.051 Z" fill="#000000" fill-rule="nonzero" fill-opacity="1" /><polyline clip-path="url(#clip752)" style="stroke:#009af9; stroke-linecap:round; stroke-linejoin:round; stroke-width:4; stroke-opacity:1; fill:none" points="350.696,296.332 382.736,131.3 414.776,132.21 446.815,136.807 478.855,141.054 510.894,155.506 542.934,134.794 574.974,181.483 607.013,194.695 639.053,145.39 671.093,145.239 703.132,123.201 735.172,167.951 767.211,141.337 799.251,121.075 831.291,141.416 863.33,141.939 895.37,172.925 927.41,148.346 959.449,158.536 991.489,131.601 1023.53,205.447 1055.57,148.871 1087.61,124.708 1119.65,132.714 1151.69,146.451 1183.73,172.874 1215.77,158.224 1247.81,151.267 1279.85,140.941 1311.89,161.809 1343.92,141.399 1375.96,153.135 1408,178.448 1440.04,210.326 1472.08,145.832 1504.12,124.181 1536.16,139.466 1568.2,157.415 1600.24,227.678 1632.28,228.346 1664.32,155.21 1696.36,157.482 1728.4,125.737 1760.44,139.23 1792.48,205.42 1824.52,144.927 1856.56,132.031 1888.6,171.811 1920.64,110.236 1952.68,160.848 1984.72,178.219 2016.76,146.291 2048.8,137.789 2080.84,114.645 2112.88,130.558 2144.92,155.455 2176.95,211.05 2208.99,190.566 2241.03,143.525 2273.07,136.06 2305.11,152.882 2337.15,179.939 2369.19,129.205 2401.23,145.345 2433.27,138.806 2465.31,137.336 2497.35,133.321 2529.39,177.965 2561.43,161.836 2593.47,154.414 2625.51,157.496 2657.55,193.373 2689.59,138.103 2721.63,174.204 2753.67,142.429 2785.71,147.513 2817.75,122.761 2849.79,153.253 2881.83,136.476 2913.87,130.908 2945.91,174.296 2977.95,175.593 3009.99,141.553 "/>
</svg>
