<?xml version="1.0" encoding="utf-8"?>
<svg xmlns="http://www.w3.org/2000/svg" xmlns:xlink="http://www.w3.org/1999/xlink" width="800" height="300" viewBox="0 0 3200 1200">
<defs>
  <clipPath id="clip510">
    <rect x="0" y="0" width="3200" height="1200"/>
  </clipPath>
</defs>
<path clip-path="url(#clip510)" d="M0 1200 L3200 1200 L3200 0 L0 0  Z" fill="#ffffff" fill-rule="evenodd" fill-opacity="1"/>
<defs>
  <clipPath id="clip511">
    <rect x="640" y="0" width="2241" height="1200"/>
  </clipPath>
</defs>
<path clip-path="url(#clip510)" d="M270.918 1000.1 L3089.76 1000.1 L3089.76 110.236 L270.918 110.236  Z" fill="#ffffff" fill-rule="evenodd" fill-opacity="1"/>
<defs>
  <clipPath id="clip512">
    <rect x="270" y="110" width="2820" height="891"/>
  </clipPath>
</defs>
<polyline clip-path="url(#clip512)" style="stroke:#000000; stroke-linecap:round; stroke-linejoin:round; stroke-width:2; stroke-opacity:0.1; fill:none" points="327.163,1000.1 327.163,110.236 "/>
<polyline clip-path="url(#clip512)" style="stroke:#000000; stroke-linecap:round; stroke-linejoin:round; stroke-width:2; stroke-opacity:0.1; fill:none" points="915.501,1000.1 915.501,110.236 "/>
<polyline clip-path="url(#clip512)" style="stroke:#000000; stroke-linecap:round; stroke-linejoin:round; stroke-width:2; stroke-opacity:0.1; fill:none" points="1503.84,1000.1 1503.84,110.236 "/>
<polyline clip-path="url(#clip512)" style="stroke:#000000; stroke-linecap:round; stroke-linejoin:round; stroke-width:2; stroke-opacity:0.1; fill:none" points="2092.18,1000.1 2092.18,110.236 "/>
<polyline clip-path="url(#clip512)" style="stroke:#000000; stroke-linecap:round; stroke-linejoin:round; stroke-width:2; stroke-opacity:0.1; fill:none" points="2680.52,1000.1 2680.52,110.236 "/>
<polyline clip-path="url(#clip510)" style="stroke:#000000; stroke-linecap:round; stroke-linejoin:round; stroke-width:4; stroke-opacity:1; fill:none" points="270.918,1000.1 3089.76,1000.1 "/>
<polyline clip-path="url(#clip510)" style="stroke:#000000; stroke-linecap:round; stroke-linejoin:round; stroke-width:4; stroke-opacity:1; fill:none" points="327.163,1000.1 327.163,981.2 "/>
<polyline clip-path="url(#clip510)" style="stroke:#000000; stroke-linecap:round; stroke-linejoin:round; stroke-width:4; stroke-opacity:1; fill:none" points="915.501,1000.1 915.501,981.2 "/>
<polyline clip-path="url(#clip510)" style="stroke:#000000; stroke-linecap:round; stroke-linejoin:round; stroke-width:4; stroke-opacity:1; fill:none" points="1503.84,1000.1 1503.84,981.2 "/>
<polyline clip-path="url(#clip510)" style="stroke:#000000; stroke-linecap:round; stroke-linejoin:round; stroke-width:4; stroke-opacity:1; fill:none" points="2092.18,1000.1 2092.18,981.2 "/>
<polyline clip-path="url(#clip510)" style="stroke:#000000; stroke-linecap:round; stroke-linejoin:round; stroke-width:4; stroke-opacity:1; fill:none" points="2680.52,1000.1 2680.52,981.2 "/>
<path clip-path="url(#clip510)" d="M327.163 1037.42 Q323.552 1037.42 321.723 1040.98 Q319.917 1044.52 319.917 1051.65 Q319.917 1058.76 321.723 1062.32 Q323.552 1065.87 327.163 1065.87 Q330.797 1065.87 332.603 1062.32 Q334.431 1058.76 334.431 1051.65 Q334.431 1044.52 332.603 1040.98 Q330.797 1037.42 327.163 1037.42 M327.163 1033.71 Q332.973 1033.71 336.028 1038.32 Q339.107 1042.9 339.107 1051.65 Q339.107 1060.38 336.028 1064.99 Q332.973 1069.57 327.163 1069.57 Q321.353 1069.57 318.274 1064.99 Q315.218 1060.38 315.218 1051.65 Q315.218 1042.9 318.274 1038.32 Q321.353 1033.71 327.163 1033.71 Z" fill="#000000" fill-rule="nonzero" fill-opacity="1" /><path clip-path="url(#clip510)" d="M894.772 1064.96 L911.091 1064.96 L911.091 1068.9 L889.147 1068.9 L889.147 1064.96 Q891.809 1062.21 896.392 1057.58 Q900.999 1052.93 902.179 1051.58 Q904.425 1049.06 905.304 1047.32 Q906.207 1045.56 906.207 1043.87 Q906.207 1041.12 904.263 1039.38 Q902.341 1037.65 899.24 1037.65 Q897.04 1037.65 894.587 1038.41 Q892.156 1039.18 889.378 1040.73 L889.378 1036 Q892.203 1034.87 894.656 1034.29 Q897.11 1033.71 899.147 1033.71 Q904.517 1033.71 907.712 1036.4 Q910.906 1039.08 910.906 1043.57 Q910.906 1045.7 910.096 1047.62 Q909.309 1049.52 907.202 1052.12 Q906.624 1052.79 903.522 1056 Q900.42 1059.2 894.772 1064.96 Z" fill="#000000" fill-rule="nonzero" fill-opacity="1" /><path clip-path="url(#clip510)" d="M920.952 1034.34 L939.309 1034.34 L939.309 1038.27 L925.235 1038.27 L925.235 1046.75 Q926.253 1046.4 927.272 1046.24 Q928.29 1046.05 929.309 1046.05 Q935.096 1046.05 938.475 1049.22 Q941.855 1052.39 941.855 1057.81 Q941.855 1063.39 938.383 1066.49 Q934.911 1069.57 928.591 1069.57 Q926.415 1069.57 924.147 1069.2 Q921.901 1068.83 919.494 1068.09 L919.494 1063.39 Q921.577 1064.52 923.8 1065.08 Q926.022 1065.63 928.499 1065.63 Q932.503 1065.63 934.841 1063.53 Q937.179 1061.42 937.179 1057.81 Q937.179 1054.2 934.841 1052.09 Q932.503 1049.99 928.499 1049.99 Q926.624 1049.99 924.749 1050.4 Q922.897 1050.82 920.952 1051.7 L920.952 1034.34 Z" fill="#000000" fill-rule="nonzero" fill-opacity="1" /><path clip-path="url(#clip510)" d="M1478.54 1034.34 L1496.89 1034.34 L1496.89 1038.27 L1482.82 1038.27 L1482.82 1046.75 Q1483.84 1046.4 1484.86 1046.24 Q1485.88 1046.05 1486.89 1046.05 Q1492.68 1046.05 1496.06 1049.22 Q1499.44 1052.39 1499.44 1057.81 Q1499.44 1063.39 1495.97 1066.49 Q1492.5 1069.57 1486.18 1069.57 Q1484 1069.57 1481.73 1069.2 Q1479.49 1068.83 1477.08 1068.09 L1477.08 1063.39 Q1479.16 1064.52 1481.39 1065.08 Q1483.61 1065.63 1486.08 1065.63 Q1490.09 1065.63 1492.43 1063.53 Q1494.77 1061.42 1494.77 1057.81 Q1494.77 1054.2 1492.43 1052.09 Q1490.09 1049.99 1486.08 1049.99 Q1484.21 1049.99 1482.33 1050.4 Q1480.48 1050.82 1478.54 1051.7 L1478.54 1034.34 Z" fill="#000000" fill-rule="nonzero" fill-opacity="1" /><path clip-path="url(#clip510)" d="M1518.65 1037.42 Q1515.04 1037.42 1513.21 1040.98 Q1511.41 1044.52 1511.41 1051.65 Q1511.41 1058.76 1513.21 1062.32 Q1515.04 1065.87 1518.65 1065.87 Q1522.29 1065.87 1524.09 1062.32 Q1525.92 1058.76 1525.92 1051.65 Q1525.92 1044.52 1524.09 1040.98 Q1522.29 1037.42 1518.65 1037.42 M1518.65 1033.71 Q1524.46 1033.71 1527.52 1038.32 Q1530.6 1042.9 1530.6 1051.65 Q1530.6 1060.38 1527.52 1064.99 Q1524.46 1069.57 1518.65 1069.57 Q1512.84 1069.57 1509.77 1064.99 Q1506.71 1060.38 1506.71 1051.65 Q1506.71 1042.9 1509.77 1038.32 Q1512.84 1033.71 1518.65 1033.71 Z" fill="#000000" fill-rule="nonzero" fill-opacity="1" /><path clip-path="url(#clip510)" d="M2066.03 1034.34 L2088.25 1034.34 L2088.25 1036.33 L2075.71 1068.9 L2070.82 1068.9 L2082.63 1038.27 L2066.03 1038.27 L2066.03 1034.34 Z" fill="#000000" fill-rule="nonzero" fill-opacity="1" /><path clip-path="url(#clip510)" d="M2097.42 1034.34 L2115.78 1034.34 L2115.78 1038.27 L2101.7 1038.27 L2101.7 1046.75 Q2102.72 1046.4 2103.74 1046.24 Q2104.76 1046.05 2105.78 1046.05 Q2111.56 1046.05 2114.94 1049.22 Q2118.32 1052.39 2118.32 1057.81 Q2118.32 1063.39 2114.85 1066.49 Q2111.38 1069.57 2105.06 1069.57 Q2102.88 1069.57 2100.61 1069.2 Q2098.37 1068.83 2095.96 1068.09 L2095.96 1063.39 Q2098.05 1064.52 2100.27 1065.08 Q2102.49 1065.63 2104.97 1065.63 Q2108.97 1065.63 2111.31 1063.53 Q2113.65 1061.42 2113.65 1057.81 Q2113.65 1054.2 2111.31 1052.09 Q2108.97 1049.99 2104.97 1049.99 Q2103.09 1049.99 2101.22 1050.4 Q2099.36 1050.82 2097.42 1051.7 L2097.42 1034.34 Z" fill="#000000" fill-rule="nonzero" fill-opacity="1" /><path clip-path="url(#clip510)" d="M2640.12 1064.96 L2647.76 1064.96 L2647.76 1038.6 L2639.45 1040.26 L2639.45 1036 L2647.71 1034.34 L2652.39 1034.34 L2652.39 1064.96 L2660.03 1064.96 L2660.03 1068.9 L2640.12 1068.9 L2640.12 1064.96 Z" fill="#000000" fill-rule="nonzero" fill-opacity="1" /><path clip-path="url(#clip510)" d="M2679.47 1037.42 Q2675.86 1037.42 2674.03 1040.98 Q2672.23 1044.52 2672.23 1051.65 Q2672.23 1058.76 2674.03 1062.32 Q2675.86 1065.87 2679.47 1065.87 Q2683.11 1065.87 2684.91 1062.32 Q2686.74 1058.76 2686.74 1051.65 Q2686.74 1044.52 2684.91 1040.98 Q2683.11 1037.42 2679.47 1037.42 M2679.47 1033.71 Q2685.28 1033.71 2688.34 1038.32 Q2691.42 1042.9 2691.42 1051.65 Q2691.42 1060.38 2688.34 1064.99 Q2685.28 1069.57 2679.47 1069.57 Q2673.66 1069.57 2670.59 1064.99 Q2667.53 1060.38 2667.53 1051.65 Q2667.53 1042.9 2670.59 1038.32 Q2673.66 1033.71 2679.47 1033.71 Z" fill="#000000" fill-rule="nonzero" fill-opacity="1" /><path clip-path="url(#clip510)" d="M2709.64 1037.42 Q2706.02 1037.42 2704.2 1040.98 Q2702.39 1044.52 2702.39 1051.65 Q2702.39 1058.76 2704.2 1062.32 Q2706.02 1065.87 2709.64 1065.87 Q2713.27 1065.87 2715.08 1062.32 Q2716.9 1058.76 2716.9 1051.65 Q2716.9 1044.52 2715.08 1040.98 Q2713.27 1037.42 2709.64 1037.42 M2709.64 1033.71 Q2715.45 1033.71 2718.5 1038.32 Q2721.58 1042.9 2721.58 1051.65 Q2721.58 1060.38 2718.5 1064.99 Q2715.45 1069.57 2709.64 1069.57 Q2703.83 1069.57 2700.75 1064.99 Q2697.69 1060.38 2697.69 1051.65 Q2697.69 1042.9 2700.75 1038.32 Q2703.83 1033.71 2709.64 1033.71 Z" fill="#000000" fill-rule="nonzero" fill-opacity="1" /><path clip-path="url(#clip510)" d="M1556.64 1109.44 L1563.07 1109.44 L1563.07 1151.55 L1586.21 1151.55 L1586.21 1156.96 L1556.64 1156.96 L1556.64 1109.44 Z" fill="#000000" fill-rule="nonzero" fill-opacity="1" /><path clip-path="url(#clip510)" d="M1592.7 1121.31 L1598.56 1121.31 L1598.56 1156.96 L1592.7 1156.96 L1592.7 1121.31 M1592.7 1107.44 L1598.56 1107.44 L1598.56 1114.85 L1592.7 1114.85 L1592.7 1107.44 Z" fill="#000000" fill-rule="nonzero" fill-opacity="1" /><path clip-path="url(#clip510)" d="M1640.44 1135.45 L1640.44 1156.96 L1634.59 1156.96 L1634.59 1135.64 Q1634.59 1130.58 1632.61 1128.06 Q1630.64 1125.55 1626.69 1125.55 Q1621.95 1125.55 1619.21 1128.57 Q1616.48 1131.59 1616.48 1136.81 L1616.48 1156.96 L1610.59 1156.96 L1610.59 1121.31 L1616.48 1121.31 L1616.48 1126.85 Q1618.58 1123.64 1621.41 1122.05 Q1624.27 1120.45 1628 1120.45 Q1634.14 1120.45 1637.29 1124.27 Q1640.44 1128.06 1640.44 1135.45 Z" fill="#000000" fill-rule="nonzero" fill-opacity="1" /><path clip-path="url(#clip510)" d="M1682.62 1137.67 L1682.62 1140.54 L1655.69 1140.54 Q1656.07 1146.59 1659.32 1149.77 Q1662.6 1152.92 1668.42 1152.92 Q1671.79 1152.92 1674.95 1152.09 Q1678.13 1151.26 1681.25 1149.61 L1681.25 1155.15 Q1678.1 1156.48 1674.79 1157.18 Q1671.48 1157.88 1668.07 1157.88 Q1659.54 1157.88 1654.54 1152.92 Q1649.58 1147.95 1649.58 1139.49 Q1649.58 1130.74 1654.29 1125.61 Q1659.03 1120.45 1667.05 1120.45 Q1674.25 1120.45 1678.42 1125.1 Q1682.62 1129.72 1682.62 1137.67 M1676.76 1135.95 Q1676.7 1131.15 1674.05 1128.28 Q1671.44 1125.42 1667.12 1125.42 Q1662.21 1125.42 1659.25 1128.19 Q1656.33 1130.96 1655.88 1135.99 L1676.76 1135.95 Z" fill="#000000" fill-rule="nonzero" fill-opacity="1" /><path clip-path="url(#clip510)" d="M1708.43 1139.04 Q1701.33 1139.04 1698.59 1140.67 Q1695.86 1142.29 1695.86 1146.2 Q1695.86 1149.32 1697.89 1151.17 Q1699.96 1152.98 1703.5 1152.98 Q1708.37 1152.98 1711.29 1149.55 Q1714.25 1146.08 1714.25 1140.35 L1714.25 1139.04 L1708.43 1139.04 M1720.11 1136.62 L1720.11 1156.96 L1714.25 1156.96 L1714.25 1151.55 Q1712.25 1154.8 1709.26 1156.36 Q1706.27 1157.88 1701.94 1157.88 Q1696.46 1157.88 1693.22 1154.83 Q1690 1151.74 1690 1146.59 Q1690 1140.57 1694.01 1137.51 Q1698.05 1134.46 1706.04 1134.46 L1714.25 1134.46 L1714.25 1133.89 Q1714.25 1129.84 1711.58 1127.65 Q1708.94 1125.42 1704.13 1125.42 Q1701.08 1125.42 1698.18 1126.15 Q1695.28 1126.88 1692.61 1128.35 L1692.61 1122.94 Q1695.83 1121.7 1698.85 1121.09 Q1701.87 1120.45 1704.74 1120.45 Q1712.47 1120.45 1716.29 1124.46 Q1720.11 1128.48 1720.11 1136.62 Z" fill="#000000" fill-rule="nonzero" fill-opacity="1" /><path clip-path="url(#clip510)" d="M1755.63 1138.72 Q1755.63 1132.36 1752.99 1128.86 Q1750.38 1125.36 1745.64 1125.36 Q1740.93 1125.36 1738.28 1128.86 Q1735.67 1132.36 1735.67 1138.72 Q1735.67 1145.06 1738.28 1148.56 Q1740.93 1152.06 1745.64 1152.06 Q1750.38 1152.06 1752.99 1148.56 Q1755.63 1145.06 1755.63 1138.72 M1761.49 1152.54 Q1761.49 1161.64 1757.45 1166.06 Q1753.4 1170.52 1745.06 1170.52 Q1741.98 1170.52 1739.24 1170.04 Q1736.5 1169.6 1733.92 1168.64 L1733.92 1162.95 Q1736.5 1164.35 1739.02 1165.01 Q1741.53 1165.68 1744.14 1165.68 Q1749.9 1165.68 1752.77 1162.66 Q1755.63 1159.67 1755.63 1153.59 L1755.63 1150.69 Q1753.82 1153.84 1750.98 1155.4 Q1748.15 1156.96 1744.2 1156.96 Q1737.65 1156.96 1733.64 1151.96 Q1729.63 1146.97 1729.63 1138.72 Q1729.63 1130.45 1733.64 1125.45 Q1737.65 1120.45 1744.2 1120.45 Q1748.15 1120.45 1750.98 1122.01 Q1753.82 1123.57 1755.63 1126.72 L1755.63 1121.31 L1761.49 1121.31 L1761.49 1152.54 Z" fill="#000000" fill-rule="nonzero" fill-opacity="1" /><path clip-path="url(#clip510)" d="M1804.04 1137.67 L1804.04 1140.54 L1777.12 1140.54 Q1777.5 1146.59 1780.74 1149.77 Q1784.02 1152.92 1789.85 1152.92 Q1793.22 1152.92 1796.37 1152.09 Q1799.55 1151.26 1802.67 1149.61 L1802.67 1155.15 Q1799.52 1156.48 1796.21 1157.18 Q1792.9 1157.88 1789.5 1157.88 Q1780.97 1157.88 1775.97 1152.92 Q1771 1147.95 1771 1139.49 Q1771 1130.74 1775.71 1125.61 Q1780.46 1120.45 1788.48 1120.45 Q1795.67 1120.45 1799.84 1125.1 Q1804.04 1129.72 1804.04 1137.67 M1798.19 1135.95 Q1798.12 1131.15 1795.48 1128.28 Q1792.87 1125.42 1788.54 1125.42 Q1783.64 1125.42 1780.68 1128.19 Q1777.75 1130.96 1777.31 1135.99 L1798.19 1135.95 Z" fill="#000000" fill-rule="nonzero" fill-opacity="1" /><polyline clip-path="url(#clip512)" style="stroke:#000000; stroke-linecap:round; stroke-linejoin:round; stroke-width:2; stroke-opacity:0.1; fill:none" points="270.918,1000.1 3089.76,1000.1 "/>
<polyline clip-path="url(#clip512)" style="stroke:#000000; stroke-linecap:round; stroke-linejoin:round; stroke-width:2; stroke-opacity:0.1; fill:none" points="270.918,678.72 3089.76,678.72 "/>
<polyline clip-path="url(#clip512)" style="stroke:#000000; stroke-linecap:round; stroke-linejoin:round; stroke-width:2; stroke-opacity:0.1; fill:none" points="270.918,357.342 3089.76,357.342 "/>
<polyline clip-path="url(#clip510)" style="stroke:#000000; stroke-linecap:round; stroke-linejoin:round; stroke-width:4; stroke-opacity:1; fill:none" points="270.918,1000.1 270.918,110.236 "/>
<polyline clip-path="url(#clip510)" style="stroke:#000000; stroke-linecap:round; stroke-linejoin:round; stroke-width:4; stroke-opacity:1; fill:none" points="270.918,1000.1 289.815,1000.1 "/>
<polyline clip-path="url(#clip510)" style="stroke:#000000; stroke-linecap:round; stroke-linejoin:round; stroke-width:4; stroke-opacity:1; fill:none" points="270.918,678.72 289.815,678.72 "/>
<polyline clip-path="url(#clip510)" style="stroke:#000000; stroke-linecap:round; stroke-linejoin:round; stroke-width:4; stroke-opacity:1; fill:none" points="270.918,357.342 289.815,357.342 "/>
<path clip-path="url(#clip510)" d="M154.902 1019.89 L162.54 1019.89 L162.54 993.525 L154.23 995.191 L154.23 990.932 L162.494 989.265 L167.17 989.265 L167.17 1019.89 L174.809 1019.89 L174.809 1023.83 L154.902 1023.83 L154.902 1019.89 Z" fill="#000000" fill-rule="nonzero" fill-opacity="1" /><path clip-path="url(#clip510)" d="M194.253 992.344 Q190.642 992.344 188.813 995.909 Q187.008 999.45 187.008 1006.58 Q187.008 1013.69 188.813 1017.25 Q190.642 1020.79 194.253 1020.79 Q197.887 1020.79 199.693 1017.25 Q201.522 1013.69 201.522 1006.58 Q201.522 999.45 199.693 995.909 Q197.887 992.344 194.253 992.344 M194.253 988.64 Q200.063 988.64 203.119 993.247 Q206.198 997.83 206.198 1006.58 Q206.198 1015.31 203.119 1019.91 Q200.063 1024.5 194.253 1024.5 Q188.443 1024.5 185.364 1019.91 Q182.309 1015.31 182.309 1006.58 Q182.309 997.83 185.364 993.247 Q188.443 988.64 194.253 988.64 Z" fill="#000000" fill-rule="nonzero" fill-opacity="1" /><path clip-path="url(#clip510)" d="M206.743 993.218 L212.95 993.218 L212.95 971.796 L206.198 973.15 L206.198 969.689 L212.912 968.335 L216.711 968.335 L216.711 993.218 L222.918 993.218 L222.918 996.415 L206.743 996.415 L206.743 993.218 Z" fill="#000000" fill-rule="nonzero" fill-opacity="1" /><path clip-path="url(#clip510)" d="M153.792 698.512 L161.431 698.512 L161.431 672.147 L153.121 673.813 L153.121 669.554 L161.384 667.887 L166.06 667.887 L166.06 698.512 L173.699 698.512 L173.699 702.447 L153.792 702.447 L153.792 698.512 Z" fill="#000000" fill-rule="nonzero" fill-opacity="1" /><path clip-path="url(#clip510)" d="M193.143 670.966 Q189.532 670.966 187.704 674.531 Q185.898 678.073 185.898 685.202 Q185.898 692.309 187.704 695.873 Q189.532 699.415 193.143 699.415 Q196.778 699.415 198.583 695.873 Q200.412 692.309 200.412 685.202 Q200.412 678.073 198.583 674.531 Q196.778 670.966 193.143 670.966 M193.143 667.262 Q198.954 667.262 202.009 671.869 Q205.088 676.452 205.088 685.202 Q205.088 693.929 202.009 698.535 Q198.954 703.119 193.143 703.119 Q187.333 703.119 184.255 698.535 Q181.199 693.929 181.199 685.202 Q181.199 676.452 184.255 671.869 Q187.333 667.262 193.143 667.262 Z" fill="#000000" fill-rule="nonzero" fill-opacity="1" /><path clip-path="url(#clip510)" d="M209.658 671.84 L222.918 671.84 L222.918 675.037 L205.088 675.037 L205.088 671.84 Q207.251 669.602 210.975 665.84 Q214.717 662.06 215.677 660.969 Q217.501 658.919 218.216 657.508 Q218.949 656.079 218.949 654.706 Q218.949 652.468 217.369 651.057 Q215.808 649.646 213.288 649.646 Q211.501 649.646 209.508 650.267 Q207.533 650.888 205.276 652.148 L205.276 648.311 Q207.57 647.39 209.564 646.919 Q211.558 646.449 213.213 646.449 Q217.576 646.449 220.172 648.631 Q222.767 650.813 222.767 654.461 Q222.767 656.192 222.109 657.753 Q221.469 659.295 219.758 661.401 Q219.288 661.947 216.767 664.561 Q214.247 667.157 209.658 671.84 Z" fill="#000000" fill-rule="nonzero" fill-opacity="1" /><path clip-path="url(#clip510)" d="M153.134 377.134 L160.772 377.134 L160.772 350.769 L152.462 352.435 L152.462 348.176 L160.726 346.509 L165.402 346.509 L165.402 377.134 L173.041 377.134 L173.041 381.069 L153.134 381.069 L153.134 377.134 Z" fill="#000000" fill-rule="nonzero" fill-opacity="1" /><path clip-path="url(#clip510)" d="M192.485 349.588 Q188.874 349.588 187.045 353.153 Q185.24 356.695 185.24 363.824 Q185.24 370.931 187.045 374.495 Q188.874 378.037 192.485 378.037 Q196.119 378.037 197.925 374.495 Q199.754 370.931 199.754 363.824 Q199.754 356.695 197.925 353.153 Q196.119 349.588 192.485 349.588 M192.485 345.884 Q198.295 345.884 201.351 350.491 Q204.43 355.074 204.43 363.824 Q204.43 372.551 201.351 377.157 Q198.295 381.741 192.485 381.741 Q186.675 381.741 183.596 377.157 Q180.541 372.551 180.541 363.824 Q180.541 355.074 183.596 350.491 Q186.675 345.884 192.485 345.884 Z" fill="#000000" fill-rule="nonzero" fill-opacity="1" /><path clip-path="url(#clip510)" d="M217.125 338.519 Q219.852 339.102 221.375 340.945 Q222.918 342.788 222.918 345.496 Q222.918 349.653 220.059 351.929 Q217.2 354.204 211.934 354.204 Q210.166 354.204 208.285 353.847 Q206.423 353.509 204.43 352.813 L204.43 349.145 Q206.009 350.067 207.89 350.537 Q209.771 351.007 211.821 351.007 Q215.395 351.007 217.256 349.597 Q219.137 348.186 219.137 345.496 Q219.137 343.014 217.388 341.622 Q215.658 340.211 212.555 340.211 L209.282 340.211 L209.282 337.089 L212.705 337.089 Q215.507 337.089 216.993 335.98 Q218.479 334.851 218.479 332.745 Q218.479 330.582 216.937 329.435 Q215.413 328.269 212.555 328.269 Q210.994 328.269 209.207 328.607 Q207.42 328.946 205.276 329.66 L205.276 326.275 Q207.439 325.673 209.32 325.372 Q211.219 325.071 212.893 325.071 Q217.219 325.071 219.739 327.046 Q222.259 329.002 222.259 332.35 Q222.259 334.682 220.924 336.299 Q219.589 337.898 217.125 338.519 Z" fill="#000000" fill-rule="nonzero" fill-opacity="1" /><path clip-path="url(#clip510)" d="M42.6863 887.139 L42.6863 857.092 L48.0971 857.092 L48.0971 880.709 L62.1653 880.709 L62.1653 858.079 L67.5762 858.079 L67.5762 880.709 L84.7954 880.709 L84.7954 856.52 L90.2063 856.52 L90.2063 887.139 L42.6863 887.139 Z" fill="#000000" fill-rule="nonzero" fill-opacity="1" /><path clip-path="url(#clip510)" d="M44.2459 817.466 L50.5161 817.466 Q48.7655 821.126 47.9062 824.373 Q47.0468 827.619 47.0468 830.643 Q47.0468 835.895 49.0838 838.759 Q51.1208 841.592 54.8766 841.592 Q58.0276 841.592 59.6509 839.714 Q61.2423 837.804 62.229 832.521 L63.0247 828.638 Q64.3933 821.444 67.8627 818.039 Q71.3001 814.601 77.0929 814.601 Q83.9997 814.601 87.5645 819.248 Q91.1293 823.863 91.1293 832.807 Q91.1293 836.181 90.3654 840.001 Q89.6015 843.788 88.1056 847.862 L81.4853 847.862 Q83.6814 843.947 84.7954 840.191 Q85.9094 836.436 85.9094 832.807 Q85.9094 827.301 83.7451 824.309 Q81.5808 821.317 77.5704 821.317 Q74.0692 821.317 72.0958 823.482 Q70.1225 825.614 69.1358 830.516 L68.3719 834.431 Q66.9396 841.624 63.8841 844.838 Q60.8285 848.053 55.3859 848.053 Q49.0838 848.053 45.4554 843.629 Q41.8269 839.173 41.8269 831.375 Q41.8269 828.033 42.4317 824.564 Q43.0364 821.094 44.2459 817.466 Z" fill="#000000" fill-rule="nonzero" fill-opacity="1" /><path clip-path="url(#clip510)" d="M44.2459 776.089 L50.5161 776.089 Q48.7655 779.749 47.9062 782.996 Q47.0468 786.242 47.0468 789.266 Q47.0468 794.518 49.0838 797.382 Q51.1208 800.215 54.8766 800.215 Q58.0276 800.215 59.6509 798.337 Q61.2423 796.427 62.229 791.144 L63.0247 787.261 Q64.3933 780.067 67.8627 776.662 Q71.3001 773.224 77.0929 773.224 Q83.9997 773.224 87.5645 777.871 Q91.1293 782.486 91.1293 791.43 Q91.1293 794.804 90.3654 798.623 Q89.6015 802.411 88.1056 806.485 L81.4853 806.485 Q83.6814 802.57 84.7954 798.814 Q85.9094 795.059 85.9094 791.43 Q85.9094 785.924 83.7451 782.932 Q81.5808 779.94 77.5704 779.94 Q74.0692 779.94 72.0958 782.104 Q70.1225 784.237 69.1358 789.139 L68.3719 793.053 Q66.9396 800.247 63.8841 803.461 Q60.8285 806.676 55.3859 806.676 Q49.0838 806.676 45.4554 802.252 Q41.8269 797.796 41.8269 789.998 Q41.8269 786.656 42.4317 783.187 Q43.0364 779.717 44.2459 776.089 Z" fill="#000000" fill-rule="nonzero" fill-opacity="1" /><path clip-path="url(#clip510)" d="M82.1218 761.957 L82.1218 755.241 L90.2063 755.241 L90.2063 761.957 L82.1218 761.957 M56.4999 761.957 L56.4999 755.241 L64.5843 755.241 L64.5843 761.957 L56.4999 761.957 Z" fill="#000000" fill-rule="nonzero" fill-opacity="1" /><path clip-path="url(#clip510)" d="M44.2459 692.03 L50.5161 692.03 Q48.7655 695.69 47.9062 698.936 Q47.0468 702.183 47.0468 705.207 Q47.0468 710.458 49.0838 713.323 Q51.1208 716.156 54.8766 716.156 Q58.0276 716.156 59.6509 714.278 Q61.2423 712.368 62.229 707.085 L63.0247 703.201 Q64.3933 696.008 67.8627 692.603 Q71.3001 689.165 77.0929 689.165 Q83.9997 689.165 87.5645 693.812 Q91.1293 698.427 91.1293 707.371 Q91.1293 710.745 90.3654 714.564 Q89.6015 718.352 88.1056 722.426 L81.4853 722.426 Q83.6814 718.511 84.7954 714.755 Q85.9094 710.999 85.9094 707.371 Q85.9094 701.865 83.7451 698.873 Q81.5808 695.881 77.5704 695.881 Q74.0692 695.881 72.0958 698.045 Q70.1225 700.178 69.1358 705.079 L68.3719 708.994 Q66.9396 716.188 63.8841 719.402 Q60.8285 722.617 55.3859 722.617 Q49.0838 722.617 45.4554 718.193 Q41.8269 713.737 41.8269 705.939 Q41.8269 702.597 42.4317 699.127 Q43.0364 695.658 44.2459 692.03 Z" fill="#000000" fill-rule="nonzero" fill-opacity="1" /><path clip-path="url(#clip510)" d="M54.5583 682.799 L54.5583 676.943 L82.3765 669.622 L54.5583 662.334 L54.5583 655.427 L82.3765 648.106 L54.5583 640.818 L54.5583 634.961 L90.2063 644.287 L90.2063 651.194 L60.9877 658.864 L90.2063 666.567 L90.2063 673.474 L54.5583 682.799 Z" fill="#000000" fill-rule="nonzero" fill-opacity="1" /><path clip-path="url(#clip510)" d="M70.9182 595.589 L73.7828 595.589 L73.7828 622.516 Q79.8302 622.134 83.013 618.888 Q86.1641 615.609 86.1641 609.785 Q86.1641 606.411 85.3365 603.26 Q84.509 600.077 82.8539 596.958 L88.3921 596.958 Q89.7289 600.109 90.4291 603.419 Q91.1293 606.729 91.1293 610.135 Q91.1293 618.665 86.1641 623.662 Q81.1988 628.627 72.7324 628.627 Q63.9796 628.627 58.8552 623.917 Q53.699 619.174 53.699 611.153 Q53.699 603.96 58.3459 599.791 Q62.9611 595.589 70.9182 595.589 M69.1995 601.446 Q64.3933 601.509 61.5288 604.151 Q58.6642 606.761 58.6642 611.09 Q58.6642 615.991 61.4333 618.951 Q64.2024 621.88 69.2313 622.325 L69.1995 601.446 Z" fill="#000000" fill-rule="nonzero" fill-opacity="1" /><path clip-path="url(#clip510)" d="M59.9692 562.519 L40.6811 562.519 L40.6811 556.663 L90.2063 556.663 L90.2063 562.519 L84.8591 562.519 Q88.0419 564.365 89.6015 567.198 Q91.1293 569.999 91.1293 573.946 Q91.1293 580.407 85.9731 584.481 Q80.8169 588.523 72.4141 588.523 Q64.0114 588.523 58.8552 584.481 Q53.699 580.407 53.699 573.946 Q53.699 569.999 55.2586 567.198 Q56.7863 564.365 59.9692 562.519 M72.4141 582.476 Q78.8753 582.476 82.5674 579.834 Q86.2277 577.16 86.2277 572.514 Q86.2277 567.867 82.5674 565.193 Q78.8753 562.519 72.4141 562.519 Q65.9529 562.519 62.2927 565.193 Q58.6006 567.867 58.6006 572.514 Q58.6006 577.16 62.2927 579.834 Q65.9529 582.476 72.4141 582.476 Z" fill="#000000" fill-rule="nonzero" fill-opacity="1" /><path clip-path="url(#clip510)" d="M70.9182 514.108 L73.7828 514.108 L73.7828 541.035 Q79.8302 540.653 83.013 537.407 Q86.1641 534.128 86.1641 528.304 Q86.1641 524.93 85.3365 521.779 Q84.509 518.596 82.8539 515.477 L88.3921 515.477 Q89.7289 518.628 90.4291 521.938 Q91.1293 525.248 91.1293 528.654 Q91.1293 537.184 86.1641 542.181 Q81.1988 547.146 72.7324 547.146 Q63.9796 547.146 58.8552 542.436 Q53.699 537.693 53.699 529.672 Q53.699 522.479 58.3459 518.31 Q62.9611 514.108 70.9182 514.108 M69.1995 519.965 Q64.3933 520.028 61.5288 522.67 Q58.6642 525.28 58.6642 529.609 Q58.6642 534.51 61.4333 537.47 Q64.2024 540.399 69.2313 540.844 L69.1995 519.965 Z" fill="#000000" fill-rule="nonzero" fill-opacity="1" /><path clip-path="url(#clip510)" d="M68.6902 474.864 L90.2063 474.864 L90.2063 480.72 L68.8812 480.72 Q63.8204 480.72 61.306 482.693 Q58.7915 484.667 58.7915 488.614 Q58.7915 493.356 61.8152 496.093 Q64.8389 498.83 70.0588 498.83 L90.2063 498.83 L90.2063 504.719 L54.5583 504.719 L54.5583 498.83 L60.0965 498.83 Q56.8818 496.73 55.2904 493.897 Q53.699 491.032 53.699 487.309 Q53.699 481.166 57.5184 478.015 Q61.306 474.864 68.6902 474.864 Z" fill="#000000" fill-rule="nonzero" fill-opacity="1" /><path clip-path="url(#clip510)" d="M82.1218 461.687 L82.1218 454.971 L87.5963 454.971 L97.7815 460.191 L97.7815 464.297 L87.5963 461.687 L82.1218 461.687 Z" fill="#000000" fill-rule="nonzero" fill-opacity="1" /><path clip-path="url(#clip510)" d="M44.4369 415.949 L54.5583 415.949 L54.5583 403.886 L59.1098 403.886 L59.1098 415.949 L78.4616 415.949 Q82.8221 415.949 84.0634 414.771 Q85.3047 413.562 85.3047 409.902 L85.3047 403.886 L90.2063 403.886 L90.2063 409.902 Q90.2063 416.681 87.6918 419.259 Q85.1455 421.837 78.4616 421.837 L59.1098 421.837 L59.1098 426.134 L54.5583 426.134 L54.5583 421.837 L44.4369 421.837 L44.4369 415.949 Z" fill="#000000" fill-rule="nonzero" fill-opacity="1" /><path clip-path="url(#clip510)" d="M54.5583 396.183 L54.5583 390.327 L90.2063 390.327 L90.2063 396.183 L54.5583 396.183 M40.6811 396.183 L40.6811 390.327 L48.0971 390.327 L48.0971 396.183 L40.6811 396.183 Z" fill="#000000" fill-rule="nonzero" fill-opacity="1" /><path clip-path="url(#clip510)" d="M61.4015 350.319 Q57.4547 348.122 55.5768 345.067 Q53.699 342.011 53.699 337.874 Q53.699 332.304 57.6139 329.28 Q61.4969 326.256 68.6902 326.256 L90.2063 326.256 L90.2063 332.144 L68.8812 332.144 Q63.7568 332.144 61.2741 333.959 Q58.7915 335.773 58.7915 339.497 Q58.7915 344.048 61.8152 346.69 Q64.8389 349.332 70.0588 349.332 L90.2063 349.332 L90.2063 355.22 L68.8812 355.22 Q63.7249 355.22 61.2741 357.034 Q58.7915 358.849 58.7915 362.636 Q58.7915 367.124 61.8471 369.766 Q64.8708 372.408 70.0588 372.408 L90.2063 372.408 L90.2063 378.296 L54.5583 378.296 L54.5583 372.408 L60.0965 372.408 Q56.8182 370.402 55.2586 367.601 Q53.699 364.801 53.699 360.949 Q53.699 357.066 55.6723 354.361 Q57.6457 351.623 61.4015 350.319 Z" fill="#000000" fill-rule="nonzero" fill-opacity="1" /><path clip-path="url(#clip510)" d="M70.9182 284.083 L73.7828 284.083 L73.7828 311.01 Q79.8302 310.628 83.013 307.382 Q86.1641 304.103 86.1641 298.279 Q86.1641 294.905 85.3365 291.754 Q84.509 288.571 82.8539 285.452 L88.3921 285.452 Q89.7289 288.603 90.4291 291.913 Q91.1293 295.223 91.1293 298.629 Q91.1293 307.159 86.1641 312.156 Q81.1988 317.121 72.7324 317.121 Q63.9796 317.121 58.8552 312.411 Q53.699 307.668 53.699 299.648 Q53.699 292.454 58.3459 288.285 Q62.9611 284.083 70.9182 284.083 M69.1995 289.94 Q64.3933 290.003 61.5288 292.645 Q58.6642 295.255 58.6642 299.584 Q58.6642 304.485 61.4333 307.445 Q64.2024 310.374 69.2313 310.819 L69.1995 289.94 Z" fill="#000000" fill-rule="nonzero" fill-opacity="1" /><path clip-path="url(#clip510)" d="M82.1218 272.975 L82.1218 266.259 L90.2063 266.259 L90.2063 272.975 L82.1218 272.975 M56.4999 272.975 L56.4999 266.259 L64.5843 266.259 L64.5843 272.975 L56.4999 272.975 Z" fill="#000000" fill-rule="nonzero" fill-opacity="1" /><path clip-path="url(#clip510)" d="M84.7954 250.568 L84.7954 240.064 L48.5427 240.064 L50.8344 251.491 L44.9779 251.491 L42.6863 240.128 L42.6863 233.699 L84.7954 233.699 L84.7954 223.195 L90.2063 223.195 L90.2063 250.568 L84.7954 250.568 Z" fill="#000000" fill-rule="nonzero" fill-opacity="1" /><polyline clip-path="url(#clip512)" style="stroke:#009af9; stroke-linecap:round; stroke-linejoin:round; stroke-width:4; stroke-opacity:1; fill:none" points="350.696,323.45 374.23,196.323 397.763,157.093 421.297,213.076 444.83,143.887 468.364,212.556 491.897,206.594 515.431,180.69 538.965,151.969 562.498,204.871 586.032,140.758 609.565,217.356 633.099,168.925 656.632,214.516 680.166,132.639 703.699,157.355 727.233,222.032 750.766,162.027 774.3,155.905 797.833,236.629 821.367,155.78 844.9,148.001 868.434,167.727 891.967,162.672 915.501,166.876 939.035,143.387 962.568,155.792 986.102,133.19 1009.64,173.132 1033.17,185.098 1056.7,222.133 1080.24,142.763 1103.77,156.633 1127.3,143.94 1150.84,222.161 1174.37,144.943 1197.9,160.585 1221.44,191.377 1244.97,219.387 1268.5,226.805 1292.04,244.915 1315.57,157.087 1339.1,145.899 1362.64,229.066 1386.17,208.356 1409.71,197.206 1433.24,216.81 1456.77,209.825 1480.31,151.452 1503.84,131.368 1527.37,138.311 1550.91,153.52 1574.44,158.919 1597.97,158.785 1621.51,207.853 1645.04,141.877 1668.57,160.076 1692.11,159.502 1715.64,157.283 1739.17,146.113 1762.71,152.889 1786.24,140.254 1809.78,180.445 1833.31,212.622 1856.84,124.334 1880.38,160.903 1903.91,142.486 1927.44,161.309 1950.98,222.831 1974.51,222.002 1998.04,149.351 2021.58,136.975 2045.11,142.208 2068.64,193.731 2092.18,135.997 2115.71,156.325 2139.24,165.123 2162.78,203.54 2186.31,212.017 2209.85,110.236 2233.38,152.641 2256.91,153.513 2280.45,172.168 2303.98,167.53 2327.51,154.631 2351.05,207.449 2374.58,201.109 2398.11,149.437 2421.65,217.1 2445.18,131.719 2468.71,140.085 2492.25,157.671 2515.78,137.664 2539.31,181.466 2562.85,145.009 2586.38,202.491 2609.92,156.593 2633.45,143.58 2656.98,144.222 2680.52,134.612 2704.05,178.283 2727.58,174.317 2751.12,218.114 2774.65,227.894 2798.18,151.872 2821.72,168.016 2845.25,145.524 2868.78,146.765 2892.32,144.183 2915.85,167.693 2939.38,152.263 2962.92,173.015 2986.45,183.422 3009.99,167.826 "/>
</svg>
