<?xml version="1.0" encoding="utf-8"?>
<svg xmlns="http://www.w3.org/2000/svg" xmlns:xlink="http://www.w3.org/1999/xlink" width="800" height="300" viewBox="0 0 3200 1200">
<defs>
  <clipPath id="clip740">
    <rect x="0" y="0" width="3200" height="1200"/>
  </clipPath>
</defs>
<path clip-path="url(#clip740)" d="M0 1200 L3200 1200 L3200 0 L0 0  Z" fill="#ffffff" fill-rule="evenodd" fill-opacity="1"/>
<defs>
  <clipPath id="clip741">
    <rect x="640" y="0" width="2241" height="1200"/>
  </clipPath>
</defs>
<path clip-path="url(#clip740)" d="M270.918 1000.1 L3089.76 1000.1 L3089.76 110.236 L270.918 110.236  Z" fill="#ffffff" fill-rule="evenodd" fill-opacity="1"/>
<defs>
  <clipPath id="clip742">
    <rect x="270" y="110" width="2820" height="891"/>
  </clipPath>
</defs>
<polyline clip-path="url(#clip742)" style="stroke:#000000; stroke-linecap:round; stroke-linejoin:round; stroke-width:2; stroke-opacity:0.1; fill:none" points="325.609,1000.1 325.609,110.236 "/>
<polyline clip-path="url(#clip742)" style="stroke:#000000; stroke-linecap:round; stroke-linejoin:round; stroke-width:2; stroke-opacity:0.1; fill:none" points="952.799,1000.1 952.799,110.236 "/>
<polyline clip-path="url(#clip742)" style="stroke:#000000; stroke-linecap:round; stroke-linejoin:round; stroke-width:2; stroke-opacity:0.1; fill:none" points="1579.99,1000.1 1579.99,110.236 "/>
<polyline clip-path="url(#clip742)" style="stroke:#000000; stroke-linecap:round; stroke-linejoin:round; stroke-width:2; stroke-opacity:0.1; fill:none" points="2207.18,1000.1 2207.18,110.236 "/>
<polyline clip-path="url(#clip742)" style="stroke:#000000; stroke-linecap:round; stroke-linejoin:round; stroke-width:2; stroke-opacity:0.1; fill:none" points="2834.37,1000.1 2834.37,110.236 "/>
<polyline clip-path="url(#clip740)" style="stroke:#000000; stroke-linecap:round; stroke-linejoin:round; stroke-width:4; stroke-opacity:1; fill:none" points="270.918,1000.1 3089.76,1000.1 "/>
<polyline clip-path="url(#clip740)" style="stroke:#000000; stroke-linecap:round; stroke-linejoin:round; stroke-width:4; stroke-opacity:1; fill:none" points="325.609,1000.1 325.609,981.2 "/>
<polyline clip-path="url(#clip740)" style="stroke:#000000; stroke-linecap:round; stroke-linejoin:round; stroke-width:4; stroke-opacity:1; fill:none" points="952.799,1000.1 952.799,981.2 "/>
<polyline clip-path="url(#clip740)" style="stroke:#000000; stroke-linecap:round; stroke-linejoin:round; stroke-width:4; stroke-opacity:1; fill:none" points="1579.99,1000.1 1579.99,981.2 "/>
<polyline clip-path="url(#clip740)" style="stroke:#000000; stroke-linecap:round; stroke-linejoin:round; stroke-width:4; stroke-opacity:1; fill:none" points="2207.18,1000.1 2207.18,981.2 "/>
<polyline clip-path="url(#clip740)" style="stroke:#000000; stroke-linecap:round; stroke-linejoin:round; stroke-width:4; stroke-opacity:1; fill:none" points="2834.37,1000.1 2834.37,981.2 "/>
<path clip-path="url(#clip740)" d="M325.609 1037.42 Q321.998 1037.42 320.169 1040.98 Q318.363 1044.52 318.363 1051.65 Q318.363 1058.76 320.169 1062.32 Q321.998 1065.87 325.609 1065.87 Q329.243 1065.87 331.048 1062.32 Q332.877 1058.76 332.877 1051.65 Q332.877 1044.52 331.048 1040.98 Q329.243 1037.42 325.609 1037.42 M325.609 1033.71 Q331.419 1033.71 334.474 1038.32 Q337.553 1042.9 337.553 1051.65 Q337.553 1060.38 334.474 1064.99 Q331.419 1069.57 325.609 1069.57 Q319.799 1069.57 316.72 1064.99 Q313.664 1060.38 313.664 1051.65 Q313.664 1042.9 316.72 1038.32 Q319.799 1033.71 325.609 1033.71 Z" fill="#000000" fill-rule="nonzero" fill-opacity="1" /><path clip-path="url(#clip740)" d="M932.07 1064.96 L948.39 1064.96 L948.39 1068.9 L926.445 1068.9 L926.445 1064.96 Q929.107 1062.21 933.691 1057.58 Q938.297 1052.93 939.478 1051.58 Q941.723 1049.06 942.603 1047.32 Q943.505 1045.56 943.505 1043.87 Q943.505 1041.12 941.561 1039.38 Q939.64 1037.65 936.538 1037.65 Q934.339 1037.65 931.885 1038.41 Q929.455 1039.18 926.677 1040.73 L926.677 1036 Q929.501 1034.87 931.955 1034.29 Q934.408 1033.71 936.445 1033.71 Q941.816 1033.71 945.01 1036.4 Q948.205 1039.08 948.205 1043.57 Q948.205 1045.7 947.394 1047.62 Q946.607 1049.52 944.501 1052.12 Q943.922 1052.79 940.82 1056 Q937.718 1059.2 932.07 1064.96 Z" fill="#000000" fill-rule="nonzero" fill-opacity="1" /><path clip-path="url(#clip740)" d="M958.251 1034.34 L976.607 1034.34 L976.607 1038.27 L962.533 1038.27 L962.533 1046.75 Q963.552 1046.4 964.57 1046.24 Q965.589 1046.05 966.607 1046.05 Q972.394 1046.05 975.774 1049.22 Q979.153 1052.39 979.153 1057.81 Q979.153 1063.39 975.681 1066.49 Q972.209 1069.57 965.89 1069.57 Q963.714 1069.57 961.445 1069.2 Q959.2 1068.83 956.792 1068.09 L956.792 1063.39 Q958.876 1064.52 961.098 1065.08 Q963.32 1065.63 965.797 1065.63 Q969.802 1065.63 972.14 1063.53 Q974.478 1061.42 974.478 1057.81 Q974.478 1054.2 972.14 1052.09 Q969.802 1049.99 965.797 1049.99 Q963.922 1049.99 962.047 1050.4 Q960.195 1050.82 958.251 1051.7 L958.251 1034.34 Z" fill="#000000" fill-rule="nonzero" fill-opacity="1" /><path clip-path="url(#clip740)" d="M1554.69 1034.34 L1573.05 1034.34 L1573.05 1038.27 L1558.97 1038.27 L1558.97 1046.75 Q1559.99 1046.4 1561.01 1046.24 Q1562.03 1046.05 1563.05 1046.05 Q1568.83 1046.05 1572.21 1049.22 Q1575.59 1052.39 1575.59 1057.81 Q1575.59 1063.39 1572.12 1066.49 Q1568.65 1069.57 1562.33 1069.57 Q1560.15 1069.57 1557.88 1069.2 Q1555.64 1068.83 1553.23 1068.09 L1553.23 1063.39 Q1555.31 1064.52 1557.54 1065.08 Q1559.76 1065.63 1562.24 1065.63 Q1566.24 1065.63 1568.58 1063.53 Q1570.92 1061.42 1570.92 1057.81 Q1570.92 1054.2 1568.58 1052.09 Q1566.24 1049.99 1562.24 1049.99 Q1560.36 1049.99 1558.49 1050.4 Q1556.63 1050.82 1554.69 1051.7 L1554.69 1034.34 Z" fill="#000000" fill-rule="nonzero" fill-opacity="1" /><path clip-path="url(#clip740)" d="M1594.8 1037.42 Q1591.19 1037.42 1589.37 1040.98 Q1587.56 1044.52 1587.56 1051.65 Q1587.56 1058.76 1589.37 1062.32 Q1591.19 1065.87 1594.8 1065.87 Q1598.44 1065.87 1600.24 1062.32 Q1602.07 1058.76 1602.07 1051.65 Q1602.07 1044.52 1600.24 1040.98 Q1598.44 1037.42 1594.8 1037.42 M1594.8 1033.71 Q1600.62 1033.71 1603.67 1038.32 Q1606.75 1042.9 1606.75 1051.65 Q1606.75 1060.38 1603.67 1064.99 Q1600.62 1069.57 1594.8 1069.57 Q1588.99 1069.57 1585.92 1064.99 Q1582.86 1060.38 1582.86 1051.65 Q1582.86 1042.9 1585.92 1038.32 Q1588.99 1033.71 1594.8 1033.71 Z" fill="#000000" fill-rule="nonzero" fill-opacity="1" /><path clip-path="url(#clip740)" d="M2181.04 1034.34 L2203.26 1034.34 L2203.26 1036.33 L2190.71 1068.9 L2185.83 1068.9 L2197.63 1038.27 L2181.04 1038.27 L2181.04 1034.34 Z" fill="#000000" fill-rule="nonzero" fill-opacity="1" /><path clip-path="url(#clip740)" d="M2212.42 1034.34 L2230.78 1034.34 L2230.78 1038.27 L2216.71 1038.27 L2216.71 1046.75 Q2217.72 1046.4 2218.74 1046.24 Q2219.76 1046.05 2220.78 1046.05 Q2226.57 1046.05 2229.95 1049.22 Q2233.33 1052.39 2233.33 1057.81 Q2233.33 1063.39 2229.85 1066.49 Q2226.38 1069.57 2220.06 1069.57 Q2217.89 1069.57 2215.62 1069.2 Q2213.37 1068.83 2210.97 1068.09 L2210.97 1063.39 Q2213.05 1064.52 2215.27 1065.08 Q2217.49 1065.63 2219.97 1065.63 Q2223.97 1065.63 2226.31 1063.53 Q2228.65 1061.42 2228.65 1057.81 Q2228.65 1054.2 2226.31 1052.09 Q2223.97 1049.99 2219.97 1049.99 Q2218.1 1049.99 2216.22 1050.4 Q2214.37 1050.82 2212.42 1051.7 L2212.42 1034.34 Z" fill="#000000" fill-rule="nonzero" fill-opacity="1" /><path clip-path="url(#clip740)" d="M2793.98 1064.96 L2801.62 1064.96 L2801.62 1038.6 L2793.31 1040.26 L2793.31 1036 L2801.57 1034.34 L2806.25 1034.34 L2806.25 1064.96 L2813.89 1064.96 L2813.89 1068.9 L2793.98 1068.9 L2793.98 1064.96 Z" fill="#000000" fill-rule="nonzero" fill-opacity="1" /><path clip-path="url(#clip740)" d="M2833.33 1037.42 Q2829.72 1037.42 2827.89 1040.98 Q2826.08 1044.52 2826.08 1051.65 Q2826.08 1058.76 2827.89 1062.32 Q2829.72 1065.87 2833.33 1065.87 Q2836.96 1065.87 2838.77 1062.32 Q2840.6 1058.76 2840.6 1051.65 Q2840.6 1044.52 2838.77 1040.98 Q2836.96 1037.42 2833.33 1037.42 M2833.33 1033.71 Q2839.14 1033.71 2842.2 1038.32 Q2845.27 1042.9 2845.27 1051.65 Q2845.27 1060.38 2842.2 1064.99 Q2839.14 1069.57 2833.33 1069.57 Q2827.52 1069.57 2824.44 1064.99 Q2821.39 1060.38 2821.39 1051.65 Q2821.39 1042.9 2824.44 1038.32 Q2827.52 1033.71 2833.33 1033.71 Z" fill="#000000" fill-rule="nonzero" fill-opacity="1" /><path clip-path="url(#clip740)" d="M2863.49 1037.42 Q2859.88 1037.42 2858.05 1040.98 Q2856.25 1044.52 2856.25 1051.65 Q2856.25 1058.76 2858.05 1062.32 Q2859.88 1065.87 2863.49 1065.87 Q2867.13 1065.87 2868.93 1062.32 Q2870.76 1058.76 2870.76 1051.65 Q2870.76 1044.52 2868.93 1040.98 Q2867.13 1037.42 2863.49 1037.42 M2863.49 1033.71 Q2869.3 1033.71 2872.36 1038.32 Q2875.44 1042.9 2875.44 1051.65 Q2875.44 1060.38 2872.36 1064.99 Q2869.3 1069.57 2863.49 1069.57 Q2857.68 1069.57 2854.6 1064.99 Q2851.55 1060.38 2851.55 1051.65 Q2851.55 1042.9 2854.6 1038.32 Q2857.68 1033.71 2863.49 1033.71 Z" fill="#000000" fill-rule="nonzero" fill-opacity="1" /><path clip-path="url(#clip740)" d="M1556.64 1109.44 L1563.07 1109.44 L1563.07 1151.55 L1586.21 1151.55 L1586.21 1156.96 L1556.64 1156.96 L1556.64 1109.44 Z" fill="#000000" fill-rule="nonzero" fill-opacity="1" /><path clip-path="url(#clip740)" d="M1592.7 1121.31 L1598.56 1121.31 L1598.56 1156.96 L1592.7 1156.96 L1592.7 1121.31 M1592.7 1107.44 L1598.56 1107.44 L1598.56 1114.85 L1592.7 1114.85 L1592.7 1107.44 Z" fill="#000000" fill-rule="nonzero" fill-opacity="1" /><path clip-path="url(#clip740)" d="M1640.44 1135.45 L1640.44 1156.96 L1634.59 1156.96 L1634.59 1135.64 Q1634.59 1130.58 1632.61 1128.06 Q1630.64 1125.55 1626.69 1125.55 Q1621.95 1125.55 1619.21 1128.57 Q1616.48 1131.59 1616.48 1136.81 L1616.48 1156.96 L1610.59 1156.96 L1610.59 1121.31 L1616.48 1121.31 L1616.48 1126.85 Q1618.58 1123.64 1621.41 1122.05 Q1624.27 1120.45 1628 1120.45 Q1634.14 1120.45 1637.29 1124.27 Q1640.44 1128.06 1640.44 1135.45 Z" fill="#000000" fill-rule="nonzero" fill-opacity="1" /><path clip-path="url(#clip740)" d="M1682.62 1137.67 L1682.62 1140.54 L1655.69 1140.54 Q1656.07 1146.59 1659.32 1149.77 Q1662.6 1152.92 1668.42 1152.92 Q1671.79 1152.92 1674.95 1152.09 Q1678.13 1151.26 1681.25 1149.61 L1681.25 1155.15 Q1678.1 1156.48 1674.79 1157.18 Q1671.48 1157.88 1668.07 1157.88 Q1659.54 1157.88 1654.54 1152.92 Q1649.58 1147.95 1649.58 1139.49 Q1649.58 1130.74 1654.29 1125.61 Q1659.03 1120.45 1667.05 1120.45 Q1674.25 1120.45 1678.42 1125.1 Q1682.62 1129.72 1682.62 1137.67 M1676.76 1135.95 Q1676.7 1131.15 1674.05 1128.28 Q1671.44 1125.42 1667.12 1125.42 Q1662.21 1125.42 1659.25 1128.19 Q1656.33 1130.96 1655.88 1135.99 L1676.76 1135.95 Z" fill="#000000" fill-rule="nonzero" fill-opacity="1" /><path clip-path="url(#clip740)" d="M1708.43 1139.04 Q1701.33 1139.04 1698.59 1140.67 Q1695.86 1142.29 1695.86 1146.2 Q1695.86 1149.32 1697.89 1151.17 Q1699.96 1152.98 1703.5 1152.98 Q1708.37 1152.98 1711.29 1149.55 Q1714.25 1146.08 1714.25 1140.35 L1714.25 1139.04 L1708.43 1139.04 M1720.11 1136.62 L1720.11 1156.96 L1714.25 1156.96 L1714.25 1151.55 Q1712.25 1154.8 1709.26 1156.36 Q1706.27 1157.88 1701.94 1157.88 Q1696.46 1157.88 1693.22 1154.83 Q1690 1151.74 1690 1146.59 Q1690 1140.57 1694.01 1137.51 Q1698.05 1134.46 1706.04 1134.46 L1714.25 1134.46 L1714.25 1133.89 Q1714.25 1129.84 1711.58 1127.65 Q1708.94 1125.42 1704.13 1125.42 Q1701.08 1125.42 1698.18 1126.15 Q1695.28 1126.88 1692.61 1128.35 L1692.61 1122.94 Q1695.83 1121.7 1698.85 1121.09 Q1701.87 1120.45 1704.74 1120.45 Q1712.47 1120.45 1716.29 1124.46 Q1720.11 1128.48 1720.11 1136.62 Z" fill="#000000" fill-rule="nonzero" fill-opacity="1" /><path clip-path="url(#clip740)" d="M1755.63 1138.72 Q1755.63 1132.36 1752.99 1128.86 Q1750.38 1125.36 1745.64 1125.36 Q1740.93 1125.36 1738.28 1128.86 Q1735.67 1132.36 1735.67 1138.72 Q1735.67 1145.06 1738.28 1148.56 Q1740.93 1152.06 1745.64 1152.06 Q1750.38 1152.06 1752.99 1148.56 Q1755.63 1145.06 1755.63 1138.72 M1761.49 1152.54 Q1761.49 1161.64 1757.45 1166.06 Q1753.4 1170.52 1745.06 1170.52 Q1741.98 1170.52 1739.24 1170.04 Q1736.5 1169.6 1733.92 1168.64 L1733.92 1162.95 Q1736.5 1164.35 1739.02 1165.01 Q1741.53 1165.68 1744.14 1165.68 Q1749.9 1165.68 1752.77 1162.66 Q1755.63 1159.67 1755.63 1153.59 L1755.63 1150.69 Q1753.82 1153.84 1750.98 1155.4 Q1748.15 1156.96 1744.2 1156.96 Q1737.65 1156.96 1733.64 1151.96 Q1729.63 1146.97 1729.63 1138.72 Q1729.63 1130.45 1733.64 1125.45 Q1737.65 1120.45 1744.2 1120.45 Q1748.15 1120.45 1750.98 1122.01 Q1753.82 1123.57 1755.63 1126.72 L1755.63 1121.31 L1761.49 1121.31 L1761.49 1152.54 Z" fill="#000000" fill-rule="nonzero" fill-opacity="1" /><path clip-path="url(#clip740)" d="M1804.04 1137.67 L1804.04 1140.54 L1777.12 1140.54 Q1777.5 1146.59 1780.74 1149.77 Q1784.02 1152.92 1789.85 1152.92 Q1793.22 1152.92 1796.37 1152.09 Q1799.55 1151.26 1802.67 1149.61 L1802.67 1155.15 Q1799.52 1156.48 1796.21 1157.18 Q1792.9 1157.88 1789.5 1157.88 Q1780.97 1157.88 1775.97 1152.92 Q1771 1147.95 1771 1139.49 Q1771 1130.74 1775.71 1125.61 Q1780.46 1120.45 1788.48 1120.45 Q1795.67 1120.45 1799.84 1125.1 Q1804.04 1129.72 1804.04 1137.67 M1798.19 1135.95 Q1798.12 1131.15 1795.48 1128.28 Q1792.87 1125.42 1788.54 1125.42 Q1783.64 1125.42 1780.68 1128.19 Q1777.75 1130.96 1777.31 1135.99 L1798.19 1135.95 Z" fill="#000000" fill-rule="nonzero" fill-opacity="1" /><polyline clip-path="url(#clip742)" style="stroke:#000000; stroke-linecap:round; stroke-linejoin:round; stroke-width:2; stroke-opacity:0.1; fill:none" points="270.918,1000.1 3089.76,1000.1 "/>
<polyline clip-path="url(#clip742)" style="stroke:#000000; stroke-linecap:round; stroke-linejoin:round; stroke-width:2; stroke-opacity:0.1; fill:none" points="270.918,676.056 3089.76,676.056 "/>
<polyline clip-path="url(#clip742)" style="stroke:#000000; stroke-linecap:round; stroke-linejoin:round; stroke-width:2; stroke-opacity:0.1; fill:none" points="270.918,352.013 3089.76,352.013 "/>
<polyline clip-path="url(#clip740)" style="stroke:#000000; stroke-linecap:round; stroke-linejoin:round; stroke-width:4; stroke-opacity:1; fill:none" points="270.918,1000.1 270.918,110.236 "/>
<polyline clip-path="url(#clip740)" style="stroke:#000000; stroke-linecap:round; stroke-linejoin:round; stroke-width:4; stroke-opacity:1; fill:none" points="270.918,1000.1 289.815,1000.1 "/>
<polyline clip-path="url(#clip740)" style="stroke:#000000; stroke-linecap:round; stroke-linejoin:round; stroke-width:4; stroke-opacity:1; fill:none" points="270.918,676.056 289.815,676.056 "/>
<polyline clip-path="url(#clip740)" style="stroke:#000000; stroke-linecap:round; stroke-linejoin:round; stroke-width:4; stroke-opacity:1; fill:none" points="270.918,352.013 289.815,352.013 "/>
<path clip-path="url(#clip740)" d="M154.902 1019.89 L162.54 1019.89 L162.54 993.525 L154.23 995.191 L154.23 990.932 L162.494 989.265 L167.17 989.265 L167.17 1019.89 L174.809 1019.89 L174.809 1023.83 L154.902 1023.83 L154.902 1019.89 Z" fill="#000000" fill-rule="nonzero" fill-opacity="1" /><path clip-path="url(#clip740)" d="M194.253 992.344 Q190.642 992.344 188.813 995.909 Q187.008 999.45 187.008 1006.58 Q187.008 1013.69 188.813 1017.25 Q190.642 1020.79 194.253 1020.79 Q197.887 1020.79 199.693 1017.25 Q201.522 1013.69 201.522 1006.58 Q201.522 999.45 199.693 995.909 Q197.887 992.344 194.253 992.344 M194.253 988.64 Q200.063 988.64 203.119 993.247 Q206.198 997.83 206.198 1006.58 Q206.198 1015.31 203.119 1019.91 Q200.063 1024.5 194.253 1024.5 Q188.443 1024.5 185.364 1019.91 Q182.309 1015.31 182.309 1006.58 Q182.309 997.83 185.364 993.247 Q188.443 988.64 194.253 988.64 Z" fill="#000000" fill-rule="nonzero" fill-opacity="1" /><path clip-path="url(#clip740)" d="M206.743 993.218 L212.95 993.218 L212.95 971.796 L206.198 973.15 L206.198 969.689 L212.912 968.335 L216.711 968.335 L216.711 993.218 L222.918 993.218 L222.918 996.415 L206.743 996.415 L206.743 993.218 Z" fill="#000000" fill-rule="nonzero" fill-opacity="1" /><path clip-path="url(#clip740)" d="M153.792 695.848 L161.431 695.848 L161.431 669.482 L153.121 671.149 L153.121 666.89 L161.384 665.223 L166.06 665.223 L166.06 695.848 L173.699 695.848 L173.699 699.783 L153.792 699.783 L153.792 695.848 Z" fill="#000000" fill-rule="nonzero" fill-opacity="1" /><path clip-path="url(#clip740)" d="M193.143 668.302 Q189.532 668.302 187.704 671.867 Q185.898 675.408 185.898 682.538 Q185.898 689.644 187.704 693.209 Q189.532 696.751 193.143 696.751 Q196.778 696.751 198.583 693.209 Q200.412 689.644 200.412 682.538 Q200.412 675.408 198.583 671.867 Q196.778 668.302 193.143 668.302 M193.143 664.598 Q198.954 664.598 202.009 669.205 Q205.088 673.788 205.088 682.538 Q205.088 691.265 202.009 695.871 Q198.954 700.454 193.143 700.454 Q187.333 700.454 184.255 695.871 Q181.199 691.265 181.199 682.538 Q181.199 673.788 184.255 669.205 Q187.333 664.598 193.143 664.598 Z" fill="#000000" fill-rule="nonzero" fill-opacity="1" /><path clip-path="url(#clip740)" d="M209.658 669.175 L222.918 669.175 L222.918 672.373 L205.088 672.373 L205.088 669.175 Q207.251 666.937 210.975 663.176 Q214.717 659.395 215.677 658.305 Q217.501 656.254 218.216 654.844 Q218.949 653.414 218.949 652.042 Q218.949 649.803 217.369 648.393 Q215.808 646.982 213.288 646.982 Q211.501 646.982 209.508 647.603 Q207.533 648.224 205.276 649.484 L205.276 645.647 Q207.57 644.725 209.564 644.255 Q211.558 643.785 213.213 643.785 Q217.576 643.785 220.172 645.967 Q222.767 648.148 222.767 651.797 Q222.767 653.527 222.109 655.088 Q221.469 656.631 219.758 658.737 Q219.288 659.283 216.767 661.897 Q214.247 664.492 209.658 669.175 Z" fill="#000000" fill-rule="nonzero" fill-opacity="1" /><path clip-path="url(#clip740)" d="M153.134 371.806 L160.772 371.806 L160.772 345.44 L152.462 347.107 L152.462 342.848 L160.726 341.181 L165.402 341.181 L165.402 371.806 L173.041 371.806 L173.041 375.741 L153.134 375.741 L153.134 371.806 Z" fill="#000000" fill-rule="nonzero" fill-opacity="1" /><path clip-path="url(#clip740)" d="M192.485 344.26 Q188.874 344.26 187.045 347.824 Q185.24 351.366 185.24 358.496 Q185.24 365.602 187.045 369.167 Q188.874 372.709 192.485 372.709 Q196.119 372.709 197.925 369.167 Q199.754 365.602 199.754 358.496 Q199.754 351.366 197.925 347.824 Q196.119 344.26 192.485 344.26 M192.485 340.556 Q198.295 340.556 201.351 345.162 Q204.43 349.746 204.43 358.496 Q204.43 367.222 201.351 371.829 Q198.295 376.412 192.485 376.412 Q186.675 376.412 183.596 371.829 Q180.541 367.222 180.541 358.496 Q180.541 349.746 183.596 345.162 Q186.675 340.556 192.485 340.556 Z" fill="#000000" fill-rule="nonzero" fill-opacity="1" /><path clip-path="url(#clip740)" d="M217.125 333.19 Q219.852 333.773 221.375 335.616 Q222.918 337.46 222.918 340.168 Q222.918 344.324 220.059 346.6 Q217.2 348.876 211.934 348.876 Q210.166 348.876 208.285 348.519 Q206.423 348.18 204.43 347.484 L204.43 343.817 Q206.009 344.738 207.89 345.208 Q209.771 345.679 211.821 345.679 Q215.395 345.679 217.256 344.268 Q219.137 342.857 219.137 340.168 Q219.137 337.685 217.388 336.294 Q215.658 334.883 212.555 334.883 L209.282 334.883 L209.282 331.761 L212.705 331.761 Q215.507 331.761 216.993 330.651 Q218.479 329.523 218.479 327.416 Q218.479 325.253 216.937 324.106 Q215.413 322.94 212.555 322.94 Q210.994 322.94 209.207 323.279 Q207.42 323.617 205.276 324.332 L205.276 320.946 Q207.439 320.345 209.32 320.044 Q211.219 319.743 212.893 319.743 Q217.219 319.743 219.739 321.718 Q222.259 323.674 222.259 327.021 Q222.259 329.353 220.924 330.971 Q219.589 332.57 217.125 333.19 Z" fill="#000000" fill-rule="nonzero" fill-opacity="1" /><path clip-path="url(#clip740)" d="M42.6863 908.718 L42.6863 878.672 L48.0971 878.672 L48.0971 902.289 L62.1653 902.289 L62.1653 879.659 L67.5762 879.659 L67.5762 902.289 L84.7954 902.289 L84.7954 878.099 L90.2063 878.099 L90.2063 908.718 L42.6863 908.718 Z" fill="#000000" fill-rule="nonzero" fill-opacity="1" /><path clip-path="url(#clip740)" d="M44.2459 839.046 L50.5161 839.046 Q48.7655 842.706 47.9062 845.952 Q47.0468 849.199 47.0468 852.223 Q47.0468 857.474 49.0838 860.339 Q51.1208 863.172 54.8766 863.172 Q58.0276 863.172 59.6509 861.294 Q61.2423 859.384 62.229 854.101 L63.0247 850.217 Q64.3933 843.024 67.8627 839.619 Q71.3001 836.181 77.0929 836.181 Q83.9997 836.181 87.5645 840.828 Q91.1293 845.443 91.1293 854.387 Q91.1293 857.761 90.3654 861.58 Q89.6015 865.368 88.1056 869.442 L81.4853 869.442 Q83.6814 865.527 84.7954 861.771 Q85.9094 858.015 85.9094 854.387 Q85.9094 848.881 83.7451 845.889 Q81.5808 842.897 77.5704 842.897 Q74.0692 842.897 72.0958 845.061 Q70.1225 847.194 69.1358 852.095 L68.3719 856.01 Q66.9396 863.204 63.8841 866.418 Q60.8285 869.633 55.3859 869.633 Q49.0838 869.633 45.4554 865.209 Q41.8269 860.753 41.8269 852.955 Q41.8269 849.613 42.4317 846.143 Q43.0364 842.674 44.2459 839.046 Z" fill="#000000" fill-rule="nonzero" fill-opacity="1" /><path clip-path="url(#clip740)" d="M44.2459 797.669 L50.5161 797.669 Q48.7655 801.329 47.9062 804.575 Q47.0468 807.822 47.0468 810.846 Q47.0468 816.097 49.0838 818.962 Q51.1208 821.795 54.8766 821.795 Q58.0276 821.795 59.6509 819.917 Q61.2423 818.007 62.229 812.723 L63.0247 808.84 Q64.3933 801.647 67.8627 798.241 Q71.3001 794.804 77.0929 794.804 Q83.9997 794.804 87.5645 799.451 Q91.1293 804.066 91.1293 813.01 Q91.1293 816.384 90.3654 820.203 Q89.6015 823.991 88.1056 828.065 L81.4853 828.065 Q83.6814 824.15 84.7954 820.394 Q85.9094 816.638 85.9094 813.01 Q85.9094 807.504 83.7451 804.512 Q81.5808 801.52 77.5704 801.52 Q74.0692 801.52 72.0958 803.684 Q70.1225 805.817 69.1358 810.718 L68.3719 814.633 Q66.9396 821.826 63.8841 825.041 Q60.8285 828.256 55.3859 828.256 Q49.0838 828.256 45.4554 823.832 Q41.8269 819.376 41.8269 811.578 Q41.8269 808.236 42.4317 804.766 Q43.0364 801.297 44.2459 797.669 Z" fill="#000000" fill-rule="nonzero" fill-opacity="1" /><path clip-path="url(#clip740)" d="M82.1218 783.537 L82.1218 776.821 L90.2063 776.821 L90.2063 783.537 L82.1218 783.537 M56.4999 783.537 L56.4999 776.821 L64.5843 776.821 L64.5843 783.537 L56.4999 783.537 Z" fill="#000000" fill-rule="nonzero" fill-opacity="1" /><path clip-path="url(#clip740)" d="M44.2459 713.609 L50.5161 713.609 Q48.7655 717.27 47.9062 720.516 Q47.0468 723.763 47.0468 726.786 Q47.0468 732.038 49.0838 734.903 Q51.1208 737.735 54.8766 737.735 Q58.0276 737.735 59.6509 735.858 Q61.2423 733.948 62.229 728.664 L63.0247 724.781 Q64.3933 717.588 67.8627 714.182 Q71.3001 710.745 77.0929 710.745 Q83.9997 710.745 87.5645 715.392 Q91.1293 720.007 91.1293 728.951 Q91.1293 732.325 90.3654 736.144 Q89.6015 739.932 88.1056 744.006 L81.4853 744.006 Q83.6814 740.091 84.7954 736.335 Q85.9094 732.579 85.9094 728.951 Q85.9094 723.444 83.7451 720.453 Q81.5808 717.461 77.5704 717.461 Q74.0692 717.461 72.0958 719.625 Q70.1225 721.758 69.1358 726.659 L68.3719 730.574 Q66.9396 737.767 63.8841 740.982 Q60.8285 744.197 55.3859 744.197 Q49.0838 744.197 45.4554 739.772 Q41.8269 735.316 41.8269 727.518 Q41.8269 724.176 42.4317 720.707 Q43.0364 717.238 44.2459 713.609 Z" fill="#000000" fill-rule="nonzero" fill-opacity="1" /><path clip-path="url(#clip740)" d="M54.5583 704.379 L54.5583 698.523 L82.3765 691.202 L54.5583 683.913 L54.5583 677.007 L82.3765 669.686 L54.5583 662.397 L54.5583 656.541 L90.2063 665.867 L90.2063 672.773 L60.9877 680.444 L90.2063 688.147 L90.2063 695.053 L54.5583 704.379 Z" fill="#000000" fill-rule="nonzero" fill-opacity="1" /><path clip-path="url(#clip740)" d="M70.9182 617.169 L73.7828 617.169 L73.7828 644.096 Q79.8302 643.714 83.013 640.467 Q86.1641 637.189 86.1641 631.364 Q86.1641 627.991 85.3365 624.84 Q84.509 621.657 82.8539 618.538 L88.3921 618.538 Q89.7289 621.689 90.4291 624.999 Q91.1293 628.309 91.1293 631.715 Q91.1293 640.245 86.1641 645.242 Q81.1988 650.207 72.7324 650.207 Q63.9796 650.207 58.8552 645.496 Q53.699 640.754 53.699 632.733 Q53.699 625.54 58.3459 621.37 Q62.9611 617.169 70.9182 617.169 M69.1995 623.025 Q64.3933 623.089 61.5288 625.731 Q58.6642 628.341 58.6642 632.669 Q58.6642 637.571 61.4333 640.531 Q64.2024 643.459 69.2313 643.905 L69.1995 623.025 Z" fill="#000000" fill-rule="nonzero" fill-opacity="1" /><path clip-path="url(#clip740)" d="M59.9692 584.099 L40.6811 584.099 L40.6811 578.243 L90.2063 578.243 L90.2063 584.099 L84.8591 584.099 Q88.0419 585.945 89.6015 588.778 Q91.1293 591.579 91.1293 595.526 Q91.1293 601.987 85.9731 606.061 Q80.8169 610.103 72.4141 610.103 Q64.0114 610.103 58.8552 606.061 Q53.699 601.987 53.699 595.526 Q53.699 591.579 55.2586 588.778 Q56.7863 585.945 59.9692 584.099 M72.4141 604.056 Q78.8753 604.056 82.5674 601.414 Q86.2277 598.74 86.2277 594.093 Q86.2277 589.446 82.5674 586.773 Q78.8753 584.099 72.4141 584.099 Q65.9529 584.099 62.2927 586.773 Q58.6006 589.446 58.6006 594.093 Q58.6006 598.74 62.2927 601.414 Q65.9529 604.056 72.4141 604.056 Z" fill="#000000" fill-rule="nonzero" fill-opacity="1" /><path clip-path="url(#clip740)" d="M70.9182 535.688 L73.7828 535.688 L73.7828 562.615 Q79.8302 562.233 83.013 558.986 Q86.1641 555.708 86.1641 549.883 Q86.1641 546.51 85.3365 543.359 Q84.509 540.176 82.8539 537.057 L88.3921 537.057 Q89.7289 540.208 90.4291 543.518 Q91.1293 546.828 91.1293 550.234 Q91.1293 558.764 86.1641 563.761 Q81.1988 568.726 72.7324 568.726 Q63.9796 568.726 58.8552 564.015 Q53.699 559.273 53.699 551.252 Q53.699 544.059 58.3459 539.889 Q62.9611 535.688 70.9182 535.688 M69.1995 541.544 Q64.3933 541.608 61.5288 544.25 Q58.6642 546.86 58.6642 551.188 Q58.6642 556.09 61.4333 559.05 Q64.2024 561.978 69.2313 562.424 L69.1995 541.544 Z" fill="#000000" fill-rule="nonzero" fill-opacity="1" /><path clip-path="url(#clip740)" d="M68.6902 496.443 L90.2063 496.443 L90.2063 502.3 L68.8812 502.3 Q63.8204 502.3 61.306 504.273 Q58.7915 506.247 58.7915 510.193 Q58.7915 514.936 61.8152 517.673 Q64.8389 520.41 70.0588 520.41 L90.2063 520.41 L90.2063 526.298 L54.5583 526.298 L54.5583 520.41 L60.0965 520.41 Q56.8818 518.31 55.2904 515.477 Q53.699 512.612 53.699 508.888 Q53.699 502.745 57.5184 499.594 Q61.306 496.443 68.6902 496.443 Z" fill="#000000" fill-rule="nonzero" fill-opacity="1" /><path clip-path="url(#clip740)" d="M82.1218 483.266 L82.1218 476.55 L87.5963 476.55 L97.7815 481.77 L97.7815 485.876 L87.5963 483.266 L82.1218 483.266 Z" fill="#000000" fill-rule="nonzero" fill-opacity="1" /><path clip-path="url(#clip740)" d="M44.4369 437.529 L54.5583 437.529 L54.5583 425.466 L59.1098 425.466 L59.1098 437.529 L78.4616 437.529 Q82.8221 437.529 84.0634 436.351 Q85.3047 435.142 85.3047 431.481 L85.3047 425.466 L90.2063 425.466 L90.2063 431.481 Q90.2063 438.261 87.6918 440.839 Q85.1455 443.417 78.4616 443.417 L59.1098 443.417 L59.1098 447.714 L54.5583 447.714 L54.5583 443.417 L44.4369 443.417 L44.4369 437.529 Z" fill="#000000" fill-rule="nonzero" fill-opacity="1" /><path clip-path="url(#clip740)" d="M54.5583 417.763 L54.5583 411.907 L90.2063 411.907 L90.2063 417.763 L54.5583 417.763 M40.6811 417.763 L40.6811 411.907 L48.0971 411.907 L48.0971 417.763 L40.6811 417.763 Z" fill="#000000" fill-rule="nonzero" fill-opacity="1" /><path clip-path="url(#clip740)" d="M61.4015 371.898 Q57.4547 369.702 55.5768 366.647 Q53.699 363.591 53.699 359.453 Q53.699 353.883 57.6139 350.86 Q61.4969 347.836 68.6902 347.836 L90.2063 347.836 L90.2063 353.724 L68.8812 353.724 Q63.7568 353.724 61.2741 355.538 Q58.7915 357.353 58.7915 361.077 Q58.7915 365.628 61.8152 368.27 Q64.8389 370.912 70.0588 370.912 L90.2063 370.912 L90.2063 376.8 L68.8812 376.8 Q63.7249 376.8 61.2741 378.614 Q58.7915 380.428 58.7915 384.216 Q58.7915 388.704 61.8471 391.346 Q64.8708 393.987 70.0588 393.987 L90.2063 393.987 L90.2063 399.876 L54.5583 399.876 L54.5583 393.987 L60.0965 393.987 Q56.8182 391.982 55.2586 389.181 Q53.699 386.38 53.699 382.529 Q53.699 378.646 55.6723 375.94 Q57.6457 373.203 61.4015 371.898 Z" fill="#000000" fill-rule="nonzero" fill-opacity="1" /><path clip-path="url(#clip740)" d="M70.9182 305.663 L73.7828 305.663 L73.7828 332.59 Q79.8302 332.208 83.013 328.962 Q86.1641 325.683 86.1641 319.859 Q86.1641 316.485 85.3365 313.334 Q84.509 310.151 82.8539 307.032 L88.3921 307.032 Q89.7289 310.183 90.4291 313.493 Q91.1293 316.803 91.1293 320.209 Q91.1293 328.739 86.1641 333.736 Q81.1988 338.701 72.7324 338.701 Q63.9796 338.701 58.8552 333.99 Q53.699 329.248 53.699 321.227 Q53.699 314.034 58.3459 309.864 Q62.9611 305.663 70.9182 305.663 M69.1995 311.52 Q64.3933 311.583 61.5288 314.225 Q58.6642 316.835 58.6642 321.164 Q58.6642 326.065 61.4333 329.025 Q64.2024 331.953 69.2313 332.399 L69.1995 311.52 Z" fill="#000000" fill-rule="nonzero" fill-opacity="1" /><path clip-path="url(#clip740)" d="M82.1218 294.555 L82.1218 287.839 L90.2063 287.839 L90.2063 294.555 L82.1218 294.555 M56.4999 294.555 L56.4999 287.839 L64.5843 287.839 L64.5843 294.555 L56.4999 294.555 Z" fill="#000000" fill-rule="nonzero" fill-opacity="1" /><path clip-path="url(#clip740)" d="M42.6863 273.198 L42.6863 247.958 L48.0971 247.958 L48.0971 267.31 L59.7464 267.31 Q59.2689 265.909 59.0461 264.509 Q58.7915 263.108 58.7915 261.708 Q58.7915 253.751 63.152 249.104 Q67.5125 244.457 74.9604 244.457 Q82.6311 244.457 86.8961 249.231 Q91.1293 254.005 91.1293 262.695 Q91.1293 265.686 90.6201 268.806 Q90.1108 271.893 89.0923 275.203 L82.6311 275.203 Q84.1907 272.339 84.9546 269.283 Q85.7185 266.228 85.7185 262.822 Q85.7185 257.316 82.8221 254.101 Q79.9257 250.886 74.9604 250.886 Q69.9952 250.886 67.0988 254.101 Q64.2024 257.316 64.2024 262.822 Q64.2024 265.4 64.7753 267.978 Q65.3482 270.524 66.5577 273.198 L42.6863 273.198 Z" fill="#000000" fill-rule="nonzero" fill-opacity="1" /><path clip-path="url(#clip740)" d="M46.9195 218.039 Q46.9195 223.004 51.8211 225.519 Q56.6908 228.001 66.494 228.001 Q76.2654 228.001 81.167 225.519 Q86.0367 223.004 86.0367 218.039 Q86.0367 213.042 81.167 210.559 Q76.2654 208.045 66.494 208.045 Q56.6908 208.045 51.8211 210.559 Q46.9195 213.042 46.9195 218.039 M41.8269 218.039 Q41.8269 210.05 48.1608 205.849 Q54.4628 201.616 66.494 201.616 Q78.4934 201.616 84.8273 205.849 Q91.1293 210.05 91.1293 218.039 Q91.1293 226.028 84.8273 230.261 Q78.4934 234.463 66.494 234.463 Q54.4628 234.463 48.1608 230.261 Q41.8269 226.028 41.8269 218.039 Z" fill="#000000" fill-rule="nonzero" fill-opacity="1" /><polyline clip-path="url(#clip742)" style="stroke:#009af9; stroke-linecap:round; stroke-linejoin:round; stroke-width:4; stroke-opacity:1; fill:none" points="350.696,312.518 375.784,142.388 400.872,172.287 425.959,193.905 451.047,157.111 476.134,175.518 501.222,162.71 526.31,135.232 551.397,154.946 576.485,159.368 601.573,149.41 626.66,151.342 651.748,165.643 676.835,182.105 701.923,153.904 727.011,156.651 752.098,145.778 777.186,149.318 802.274,153.655 827.361,157.588 852.449,153.428 877.537,149.266 902.624,146.661 927.712,189.461 952.799,134.571 977.887,113.871 1002.97,160.465 1028.06,159.286 1053.15,132.66 1078.24,154.312 1103.33,129.087 1128.41,161.169 1153.5,151.83 1178.59,137.248 1203.68,160.604 1228.76,137.386 1253.85,168.35 1278.94,163.831 1304.03,119.112 1329.11,156.522 1354.2,143.716 1379.29,119.936 1404.38,156.919 1429.46,156.081 1454.55,126.626 1479.64,167.304 1504.73,148.995 1529.81,152.1 1554.9,137.575 1579.99,155.033 1605.08,144.064 1630.17,159.661 1655.25,147.352 1680.34,139.211 1705.43,144.119 1730.52,193.593 1755.6,151.385 1780.69,148.592 1805.78,110.236 1830.87,149.763 1855.95,171.187 1881.04,167.649 1906.13,136.35 1931.22,157.01 1956.3,132.276 1981.39,137.239 2006.48,138.006 2031.57,148.31 2056.66,153.888 2081.74,116.228 2106.83,163.047 2131.92,127.829 2157.01,157.398 2182.09,179.447 2207.18,136.064 2232.27,156.531 2257.36,146.942 2282.44,153.258 2307.53,122.719 2332.62,147.203 2357.71,150.27 2382.79,155.621 2407.88,133.022 2432.97,131.824 2458.06,149.911 2483.14,146.704 2508.23,152.522 2533.32,147.603 2558.41,156.41 2583.5,131.262 2608.58,156.717 2633.67,136.762 2658.76,164.733 2683.85,213.197 2708.93,129.799 2734.02,150.09 2759.11,130.115 2784.2,113.582 2809.28,123.801 2834.37,141.438 2859.46,149.061 2884.55,123.688 2909.63,133.889 2934.72,134.553 2959.81,148.281 2984.9,149.598 3009.99,126.802 "/>
</svg>
