<?xml version="1.0" encoding="utf-8"?>
<svg xmlns="http://www.w3.org/2000/svg" xmlns:xlink="http://www.w3.org/1999/xlink" width="800" height="300" viewBox="0 0 3200 1200">
<defs>
  <clipPath id="clip680">
    <rect x="0" y="0" width="3200" height="1200"/>
  </clipPath>
</defs>
<path clip-path="url(#clip680)" d="M0 1200 L3200 1200 L3200 0 L0 0  Z" fill="#ffffff" fill-rule="evenodd" fill-opacity="1"/>
<defs>
  <clipPath id="clip681">
    <rect x="640" y="0" width="2241" height="1200"/>
  </clipPath>
</defs>
<path clip-path="url(#clip680)" d="M270.918 1000.1 L3089.76 1000.1 L3089.76 110.236 L270.918 110.236  Z" fill="#ffffff" fill-rule="evenodd" fill-opacity="1"/>
<defs>
  <clipPath id="clip682">
    <rect x="270" y="110" width="2820" height="891"/>
  </clipPath>
</defs>
<polyline clip-path="url(#clip682)" style="stroke:#000000; stroke-linecap:round; stroke-linejoin:round; stroke-width:2; stroke-opacity:0.1; fill:none" points="330.702,1000.1 330.702,110.236 "/>
<polyline clip-path="url(#clip682)" style="stroke:#000000; stroke-linecap:round; stroke-linejoin:round; stroke-width:2; stroke-opacity:0.1; fill:none" points="730.595,1000.1 730.595,110.236 "/>
<polyline clip-path="url(#clip682)" style="stroke:#000000; stroke-linecap:round; stroke-linejoin:round; stroke-width:2; stroke-opacity:0.1; fill:none" points="1130.49,1000.1 1130.49,110.236 "/>
<polyline clip-path="url(#clip682)" style="stroke:#000000; stroke-linecap:round; stroke-linejoin:round; stroke-width:2; stroke-opacity:0.1; fill:none" points="1530.38,1000.1 1530.38,110.236 "/>
<polyline clip-path="url(#clip682)" style="stroke:#000000; stroke-linecap:round; stroke-linejoin:round; stroke-width:2; stroke-opacity:0.1; fill:none" points="1930.27,1000.1 1930.27,110.236 "/>
<polyline clip-path="url(#clip682)" style="stroke:#000000; stroke-linecap:round; stroke-linejoin:round; stroke-width:2; stroke-opacity:0.1; fill:none" points="2330.17,1000.1 2330.17,110.236 "/>
<polyline clip-path="url(#clip682)" style="stroke:#000000; stroke-linecap:round; stroke-linejoin:round; stroke-width:2; stroke-opacity:0.1; fill:none" points="2730.06,1000.1 2730.06,110.236 "/>
<polyline clip-path="url(#clip680)" style="stroke:#000000; stroke-linecap:round; stroke-linejoin:round; stroke-width:4; stroke-opacity:1; fill:none" points="270.918,1000.1 3089.76,1000.1 "/>
<polyline clip-path="url(#clip680)" style="stroke:#000000; stroke-linecap:round; stroke-linejoin:round; stroke-width:4; stroke-opacity:1; fill:none" points="330.702,1000.1 330.702,981.2 "/>
<polyline clip-path="url(#clip680)" style="stroke:#000000; stroke-linecap:round; stroke-linejoin:round; stroke-width:4; stroke-opacity:1; fill:none" points="730.595,1000.1 730.595,981.2 "/>
<polyline clip-path="url(#clip680)" style="stroke:#000000; stroke-linecap:round; stroke-linejoin:round; stroke-width:4; stroke-opacity:1; fill:none" points="1130.49,1000.1 1130.49,981.2 "/>
<polyline clip-path="url(#clip680)" style="stroke:#000000; stroke-linecap:round; stroke-linejoin:round; stroke-width:4; stroke-opacity:1; fill:none" points="1530.38,1000.1 1530.38,981.2 "/>
<polyline clip-path="url(#clip680)" style="stroke:#000000; stroke-linecap:round; stroke-linejoin:round; stroke-width:4; stroke-opacity:1; fill:none" points="1930.27,1000.1 1930.27,981.2 "/>
<polyline clip-path="url(#clip680)" style="stroke:#000000; stroke-linecap:round; stroke-linejoin:round; stroke-width:4; stroke-opacity:1; fill:none" points="2330.17,1000.1 2330.17,981.2 "/>
<polyline clip-path="url(#clip680)" style="stroke:#000000; stroke-linecap:round; stroke-linejoin:round; stroke-width:4; stroke-opacity:1; fill:none" points="2730.06,1000.1 2730.06,981.2 "/>
<path clip-path="url(#clip680)" d="M330.702 1037.42 Q327.091 1037.42 325.262 1040.98 Q323.456 1044.52 323.456 1051.65 Q323.456 1058.76 325.262 1062.32 Q327.091 1065.87 330.702 1065.87 Q334.336 1065.87 336.141 1062.32 Q337.97 1058.76 337.97 1051.65 Q337.97 1044.52 336.141 1040.98 Q334.336 1037.42 330.702 1037.42 M330.702 1033.71 Q336.512 1033.71 339.567 1038.32 Q342.646 1042.9 342.646 1051.65 Q342.646 1060.38 339.567 1064.99 Q336.512 1069.57 330.702 1069.57 Q324.891 1069.57 321.813 1064.99 Q318.757 1060.38 318.757 1051.65 Q318.757 1042.9 321.813 1038.32 Q324.891 1033.71 330.702 1033.71 Z" fill="#000000" fill-rule="nonzero" fill-opacity="1" /><path clip-path="url(#clip680)" d="M709.368 1064.96 L725.687 1064.96 L725.687 1068.9 L703.743 1068.9 L703.743 1064.96 Q706.405 1062.21 710.988 1057.58 Q715.595 1052.93 716.775 1051.58 Q719.021 1049.06 719.9 1047.32 Q720.803 1045.56 720.803 1043.87 Q720.803 1041.12 718.859 1039.38 Q716.937 1037.65 713.836 1037.65 Q711.636 1037.65 709.183 1038.41 Q706.752 1039.18 703.974 1040.73 L703.974 1036 Q706.799 1034.87 709.252 1034.29 Q711.706 1033.71 713.743 1033.71 Q719.113 1033.71 722.308 1036.4 Q725.502 1039.08 725.502 1043.57 Q725.502 1045.7 724.692 1047.62 Q723.905 1049.52 721.798 1052.12 Q721.22 1052.79 718.118 1056 Q715.016 1059.2 709.368 1064.96 Z" fill="#000000" fill-rule="nonzero" fill-opacity="1" /><path clip-path="url(#clip680)" d="M745.502 1037.42 Q741.891 1037.42 740.062 1040.98 Q738.257 1044.52 738.257 1051.65 Q738.257 1058.76 740.062 1062.32 Q741.891 1065.87 745.502 1065.87 Q749.136 1065.87 750.942 1062.32 Q752.771 1058.76 752.771 1051.65 Q752.771 1044.52 750.942 1040.98 Q749.136 1037.42 745.502 1037.42 M745.502 1033.71 Q751.312 1033.71 754.368 1038.32 Q757.446 1042.9 757.446 1051.65 Q757.446 1060.38 754.368 1064.99 Q751.312 1069.57 745.502 1069.57 Q739.692 1069.57 736.613 1064.99 Q733.558 1060.38 733.558 1051.65 Q733.558 1042.9 736.613 1038.32 Q739.692 1033.71 745.502 1033.71 Z" fill="#000000" fill-rule="nonzero" fill-opacity="1" /><path clip-path="url(#clip680)" d="M1118.66 1038.41 L1106.85 1056.86 L1118.66 1056.86 L1118.66 1038.41 M1117.43 1034.34 L1123.31 1034.34 L1123.31 1056.86 L1128.24 1056.86 L1128.24 1060.75 L1123.31 1060.75 L1123.31 1068.9 L1118.66 1068.9 L1118.66 1060.75 L1103.06 1060.75 L1103.06 1056.24 L1117.43 1034.34 Z" fill="#000000" fill-rule="nonzero" fill-opacity="1" /><path clip-path="url(#clip680)" d="M1145.97 1037.42 Q1142.36 1037.42 1140.53 1040.98 Q1138.73 1044.52 1138.73 1051.65 Q1138.73 1058.76 1140.53 1062.32 Q1142.36 1065.87 1145.97 1065.87 Q1149.61 1065.87 1151.41 1062.32 Q1153.24 1058.76 1153.24 1051.65 Q1153.24 1044.52 1151.41 1040.98 Q1149.61 1037.42 1145.97 1037.42 M1145.97 1033.71 Q1151.78 1033.71 1154.84 1038.32 Q1157.92 1042.9 1157.92 1051.65 Q1157.92 1060.38 1154.84 1064.99 Q1151.78 1069.57 1145.97 1069.57 Q1140.16 1069.57 1137.08 1064.99 Q1134.03 1060.38 1134.03 1051.65 Q1134.03 1042.9 1137.08 1038.32 Q1140.16 1033.71 1145.97 1033.71 Z" fill="#000000" fill-rule="nonzero" fill-opacity="1" /><path clip-path="url(#clip680)" d="M1515.79 1049.75 Q1512.64 1049.75 1510.79 1051.91 Q1508.96 1054.06 1508.96 1057.81 Q1508.96 1061.54 1510.79 1063.71 Q1512.64 1065.87 1515.79 1065.87 Q1518.93 1065.87 1520.76 1063.71 Q1522.61 1061.54 1522.61 1057.81 Q1522.61 1054.06 1520.76 1051.91 Q1518.93 1049.75 1515.79 1049.75 M1525.07 1035.1 L1525.07 1039.36 Q1523.31 1038.53 1521.5 1038.09 Q1519.72 1037.65 1517.96 1037.65 Q1513.33 1037.65 1510.88 1040.77 Q1508.45 1043.9 1508.1 1050.22 Q1509.47 1048.2 1511.53 1047.14 Q1513.59 1046.05 1516.06 1046.05 Q1521.27 1046.05 1524.28 1049.22 Q1527.31 1052.37 1527.31 1057.81 Q1527.31 1063.13 1524.17 1066.35 Q1521.02 1069.57 1515.79 1069.57 Q1509.79 1069.57 1506.62 1064.99 Q1503.45 1060.38 1503.45 1051.65 Q1503.45 1043.46 1507.34 1038.6 Q1511.23 1033.71 1517.78 1033.71 Q1519.54 1033.71 1521.32 1034.06 Q1523.12 1034.41 1525.07 1035.1 Z" fill="#000000" fill-rule="nonzero" fill-opacity="1" /><path clip-path="url(#clip680)" d="M1545.37 1037.42 Q1541.76 1037.42 1539.93 1040.98 Q1538.12 1044.52 1538.12 1051.65 Q1538.12 1058.76 1539.93 1062.32 Q1541.76 1065.87 1545.37 1065.87 Q1549 1065.87 1550.81 1062.32 Q1552.64 1058.76 1552.64 1051.65 Q1552.64 1044.52 1550.81 1040.98 Q1549 1037.42 1545.37 1037.42 M1545.37 1033.71 Q1551.18 1033.71 1554.23 1038.32 Q1557.31 1042.9 1557.31 1051.65 Q1557.31 1060.38 1554.23 1064.99 Q1551.18 1069.57 1545.37 1069.57 Q1539.56 1069.57 1536.48 1064.99 Q1533.42 1060.38 1533.42 1051.65 Q1533.42 1042.9 1536.48 1038.32 Q1539.56 1033.71 1545.37 1033.71 Z" fill="#000000" fill-rule="nonzero" fill-opacity="1" /><path clip-path="url(#clip680)" d="M1915.15 1052.49 Q1911.81 1052.49 1909.89 1054.27 Q1907.99 1056.05 1907.99 1059.18 Q1907.99 1062.3 1909.89 1064.08 Q1911.81 1065.87 1915.15 1065.87 Q1918.48 1065.87 1920.4 1064.08 Q1922.32 1062.28 1922.32 1059.18 Q1922.32 1056.05 1920.4 1054.27 Q1918.5 1052.49 1915.15 1052.49 M1910.47 1050.5 Q1907.46 1049.75 1905.77 1047.69 Q1904.11 1045.63 1904.11 1042.67 Q1904.11 1038.53 1907.04 1036.12 Q1910.01 1033.71 1915.15 1033.71 Q1920.31 1033.71 1923.25 1036.12 Q1926.19 1038.53 1926.19 1042.67 Q1926.19 1045.63 1924.5 1047.69 Q1922.83 1049.75 1919.85 1050.5 Q1923.23 1051.28 1925.1 1053.57 Q1927 1055.87 1927 1059.18 Q1927 1064.2 1923.92 1066.88 Q1920.86 1069.57 1915.15 1069.57 Q1909.43 1069.57 1906.35 1066.88 Q1903.29 1064.2 1903.29 1059.18 Q1903.29 1055.87 1905.19 1053.57 Q1907.09 1051.28 1910.47 1050.5 M1908.76 1043.11 Q1908.76 1045.8 1910.42 1047.3 Q1912.11 1048.81 1915.15 1048.81 Q1918.16 1048.81 1919.85 1047.3 Q1921.56 1045.8 1921.56 1043.11 Q1921.56 1040.43 1919.85 1038.92 Q1918.16 1037.42 1915.15 1037.42 Q1912.11 1037.42 1910.42 1038.92 Q1908.76 1040.43 1908.76 1043.11 Z" fill="#000000" fill-rule="nonzero" fill-opacity="1" /><path clip-path="url(#clip680)" d="M1945.31 1037.42 Q1941.7 1037.42 1939.87 1040.98 Q1938.06 1044.52 1938.06 1051.65 Q1938.06 1058.76 1939.87 1062.32 Q1941.7 1065.87 1945.31 1065.87 Q1948.94 1065.87 1950.75 1062.32 Q1952.58 1058.76 1952.58 1051.65 Q1952.58 1044.52 1950.75 1040.98 Q1948.94 1037.42 1945.31 1037.42 M1945.31 1033.71 Q1951.12 1033.71 1954.17 1038.32 Q1957.25 1042.9 1957.25 1051.65 Q1957.25 1060.38 1954.17 1064.99 Q1951.12 1069.57 1945.31 1069.57 Q1939.5 1069.57 1936.42 1064.99 Q1933.36 1060.38 1933.36 1051.65 Q1933.36 1042.9 1936.42 1038.32 Q1939.5 1033.71 1945.31 1033.71 Z" fill="#000000" fill-rule="nonzero" fill-opacity="1" /><path clip-path="url(#clip680)" d="M2289.77 1064.96 L2297.41 1064.96 L2297.41 1038.6 L2289.1 1040.26 L2289.1 1036 L2297.37 1034.34 L2302.04 1034.34 L2302.04 1064.96 L2309.68 1064.96 L2309.68 1068.9 L2289.77 1068.9 L2289.77 1064.96 Z" fill="#000000" fill-rule="nonzero" fill-opacity="1" /><path clip-path="url(#clip680)" d="M2329.13 1037.42 Q2325.51 1037.42 2323.69 1040.98 Q2321.88 1044.52 2321.88 1051.65 Q2321.88 1058.76 2323.69 1062.32 Q2325.51 1065.87 2329.13 1065.87 Q2332.76 1065.87 2334.57 1062.32 Q2336.39 1058.76 2336.39 1051.65 Q2336.39 1044.52 2334.57 1040.98 Q2332.76 1037.42 2329.13 1037.42 M2329.13 1033.71 Q2334.94 1033.71 2337.99 1038.32 Q2341.07 1042.9 2341.07 1051.65 Q2341.07 1060.38 2337.99 1064.99 Q2334.94 1069.57 2329.13 1069.57 Q2323.32 1069.57 2320.24 1064.99 Q2317.18 1060.38 2317.18 1051.65 Q2317.18 1042.9 2320.24 1038.32 Q2323.32 1033.71 2329.13 1033.71 Z" fill="#000000" fill-rule="nonzero" fill-opacity="1" /><path clip-path="url(#clip680)" d="M2359.29 1037.42 Q2355.68 1037.42 2353.85 1040.98 Q2352.04 1044.52 2352.04 1051.65 Q2352.04 1058.76 2353.85 1062.32 Q2355.68 1065.87 2359.29 1065.87 Q2362.92 1065.87 2364.73 1062.32 Q2366.56 1058.76 2366.56 1051.65 Q2366.56 1044.52 2364.73 1040.98 Q2362.92 1037.42 2359.29 1037.42 M2359.29 1033.71 Q2365.1 1033.71 2368.15 1038.32 Q2371.23 1042.9 2371.23 1051.65 Q2371.23 1060.38 2368.15 1064.99 Q2365.1 1069.57 2359.29 1069.57 Q2353.48 1069.57 2350.4 1064.99 Q2347.34 1060.38 2347.34 1051.65 Q2347.34 1042.9 2350.4 1038.32 Q2353.48 1033.71 2359.29 1033.71 Z" fill="#000000" fill-rule="nonzero" fill-opacity="1" /><path clip-path="url(#clip680)" d="M2689.67 1064.96 L2697.31 1064.96 L2697.31 1038.6 L2689 1040.26 L2689 1036 L2697.26 1034.34 L2701.94 1034.34 L2701.94 1064.96 L2709.57 1064.96 L2709.57 1068.9 L2689.67 1068.9 L2689.67 1064.96 Z" fill="#000000" fill-rule="nonzero" fill-opacity="1" /><path clip-path="url(#clip680)" d="M2723.05 1064.96 L2739.37 1064.96 L2739.37 1068.9 L2717.42 1068.9 L2717.42 1064.96 Q2720.08 1062.21 2724.67 1057.58 Q2729.27 1052.93 2730.45 1051.58 Q2732.7 1049.06 2733.58 1047.32 Q2734.48 1045.56 2734.48 1043.87 Q2734.48 1041.12 2732.54 1039.38 Q2730.62 1037.65 2727.51 1037.65 Q2725.31 1037.65 2722.86 1038.41 Q2720.43 1039.18 2717.65 1040.73 L2717.65 1036 Q2720.48 1034.87 2722.93 1034.29 Q2725.38 1033.71 2727.42 1033.71 Q2732.79 1033.71 2735.99 1036.4 Q2739.18 1039.08 2739.18 1043.57 Q2739.18 1045.7 2738.37 1047.62 Q2737.58 1049.52 2735.48 1052.12 Q2734.9 1052.79 2731.8 1056 Q2728.69 1059.2 2723.05 1064.96 Z" fill="#000000" fill-rule="nonzero" fill-opacity="1" /><path clip-path="url(#clip680)" d="M2759.18 1037.42 Q2755.57 1037.42 2753.74 1040.98 Q2751.93 1044.52 2751.93 1051.65 Q2751.93 1058.76 2753.74 1062.32 Q2755.57 1065.87 2759.18 1065.87 Q2762.81 1065.87 2764.62 1062.32 Q2766.45 1058.76 2766.45 1051.65 Q2766.45 1044.52 2764.62 1040.98 Q2762.81 1037.42 2759.18 1037.42 M2759.18 1033.71 Q2764.99 1033.71 2768.05 1038.32 Q2771.12 1042.9 2771.12 1051.65 Q2771.12 1060.38 2768.05 1064.99 Q2764.99 1069.57 2759.18 1069.57 Q2753.37 1069.57 2750.29 1064.99 Q2747.24 1060.38 2747.24 1051.65 Q2747.24 1042.9 2750.29 1038.32 Q2753.37 1033.71 2759.18 1033.71 Z" fill="#000000" fill-rule="nonzero" fill-opacity="1" /><path clip-path="url(#clip680)" d="M1556.64 1109.44 L1563.07 1109.44 L1563.07 1151.55 L1586.21 1151.55 L1586.21 1156.96 L1556.64 1156.96 L1556.64 1109.44 Z" fill="#000000" fill-rule="nonzero" fill-opacity="1" /><path clip-path="url(#clip680)" d="M1592.7 1121.31 L1598.56 1121.31 L1598.56 1156.96 L1592.7 1156.96 L1592.7 1121.31 M1592.7 1107.44 L1598.56 1107.44 L1598.56 1114.85 L1592.7 1114.85 L1592.7 1107.44 Z" fill="#000000" fill-rule="nonzero" fill-opacity="1" /><path clip-path="url(#clip680)" d="M1640.44 1135.45 L1640.44 1156.96 L1634.59 1156.96 L1634.59 1135.64 Q1634.59 1130.58 1632.61 1128.06 Q1630.64 1125.55 1626.69 1125.55 Q1621.95 1125.55 1619.21 1128.57 Q1616.48 1131.59 1616.48 1136.81 L1616.48 1156.96 L1610.59 1156.96 L1610.59 1121.31 L1616.48 1121.31 L1616.48 1126.85 Q1618.58 1123.64 1621.41 1122.05 Q1624.27 1120.45 1628 1120.45 Q1634.14 1120.45 1637.29 1124.27 Q1640.44 1128.06 1640.44 1135.45 Z" fill="#000000" fill-rule="nonzero" fill-opacity="1" /><path clip-path="url(#clip680)" d="M1682.62 1137.67 L1682.62 1140.54 L1655.69 1140.54 Q1656.07 1146.59 1659.32 1149.77 Q1662.6 1152.92 1668.42 1152.92 Q1671.79 1152.92 1674.95 1152.09 Q1678.13 1151.26 1681.25 1149.61 L1681.25 1155.15 Q1678.1 1156.48 1674.79 1157.18 Q1671.48 1157.88 1668.07 1157.88 Q1659.54 1157.88 1654.54 1152.92 Q1649.58 1147.95 1649.58 1139.49 Q1649.58 1130.74 1654.29 1125.61 Q1659.03 1120.45 1667.05 1120.45 Q1674.25 1120.45 1678.42 1125.1 Q1682.62 1129.72 1682.62 1137.67 M1676.76 1135.95 Q1676.7 1131.15 1674.05 1128.28 Q1671.44 1125.42 1667.12 1125.42 Q1662.21 1125.42 1659.25 1128.19 Q1656.33 1130.96 1655.88 1135.99 L1676.76 1135.95 Z" fill="#000000" fill-rule="nonzero" fill-opacity="1" /><path clip-path="url(#clip680)" d="M1708.43 1139.04 Q1701.33 1139.04 1698.59 1140.67 Q1695.86 1142.29 1695.86 1146.2 Q1695.86 1149.32 1697.89 1151.17 Q1699.96 1152.98 1703.5 1152.98 Q1708.37 1152.98 1711.29 1149.55 Q1714.25 1146.08 1714.25 1140.35 L1714.25 1139.04 L1708.43 1139.04 M1720.11 1136.62 L1720.11 1156.96 L1714.25 1156.96 L1714.25 1151.55 Q1712.25 1154.8 1709.26 1156.36 Q1706.27 1157.88 1701.94 1157.88 Q1696.46 1157.88 1693.22 1154.83 Q1690 1151.74 1690 1146.59 Q1690 1140.57 1694.01 1137.51 Q1698.05 1134.46 1706.04 1134.46 L1714.25 1134.46 L1714.25 1133.89 Q1714.25 1129.84 1711.58 1127.65 Q1708.94 1125.42 1704.13 1125.42 Q1701.08 1125.42 1698.18 1126.15 Q1695.28 1126.88 1692.61 1128.35 L1692.61 1122.94 Q1695.83 1121.7 1698.85 1121.09 Q1701.87 1120.45 1704.74 1120.45 Q1712.47 1120.45 1716.29 1124.46 Q1720.11 1128.48 1720.11 1136.62 Z" fill="#000000" fill-rule="nonzero" fill-opacity="1" /><path clip-path="url(#clip680)" d="M1755.63 1138.72 Q1755.63 1132.36 1752.99 1128.86 Q1750.38 1125.36 1745.64 1125.36 Q1740.93 1125.36 1738.28 1128.86 Q1735.67 1132.36 1735.67 1138.72 Q1735.67 1145.06 1738.28 1148.56 Q1740.93 1152.06 1745.64 1152.06 Q1750.38 1152.06 1752.99 1148.56 Q1755.63 1145.06 1755.63 1138.72 M1761.49 1152.54 Q1761.49 1161.64 1757.45 1166.06 Q1753.4 1170.52 1745.06 1170.52 Q1741.98 1170.52 1739.24 1170.04 Q1736.5 1169.6 1733.92 1168.64 L1733.92 1162.95 Q1736.5 1164.35 1739.02 1165.01 Q1741.53 1165.68 1744.14 1165.68 Q1749.9 1165.68 1752.77 1162.66 Q1755.63 1159.67 1755.63 1153.59 L1755.63 1150.69 Q1753.82 1153.84 1750.98 1155.4 Q1748.15 1156.96 1744.2 1156.96 Q1737.65 1156.96 1733.64 1151.96 Q1729.63 1146.97 1729.63 1138.72 Q1729.63 1130.45 1733.64 1125.45 Q1737.65 1120.45 1744.2 1120.45 Q1748.15 1120.45 1750.98 1122.01 Q1753.82 1123.57 1755.63 1126.72 L1755.63 1121.31 L1761.49 1121.31 L1761.49 1152.54 Z" fill="#000000" fill-rule="nonzero" fill-opacity="1" /><path clip-path="url(#clip680)" d="M1804.04 1137.67 L1804.04 1140.54 L1777.12 1140.54 Q1777.5 1146.59 1780.74 1149.77 Q1784.02 1152.92 1789.85 1152.92 Q1793.22 1152.92 1796.37 1152.09 Q1799.55 1151.26 1802.67 1149.61 L1802.67 1155.15 Q1799.52 1156.48 1796.21 1157.18 Q1792.9 1157.88 1789.5 1157.88 Q1780.97 1157.88 1775.97 1152.92 Q1771 1147.95 1771 1139.49 Q1771 1130.74 1775.71 1125.61 Q1780.46 1120.45 1788.48 1120.45 Q1795.67 1120.45 1799.84 1125.1 Q1804.04 1129.72 1804.04 1137.67 M1798.19 1135.95 Q1798.12 1131.15 1795.48 1128.28 Q1792.87 1125.42 1788.54 1125.42 Q1783.64 1125.42 1780.68 1128.19 Q1777.75 1130.96 1777.31 1135.99 L1798.19 1135.95 Z" fill="#000000" fill-rule="nonzero" fill-opacity="1" /><polyline clip-path="url(#clip682)" style="stroke:#000000; stroke-linecap:round; stroke-linejoin:round; stroke-width:2; stroke-opacity:0.1; fill:none" points="270.918,1000.1 3089.76,1000.1 "/>
<polyline clip-path="url(#clip682)" style="stroke:#000000; stroke-linecap:round; stroke-linejoin:round; stroke-width:2; stroke-opacity:0.1; fill:none" points="270.918,667.678 3089.76,667.678 "/>
<polyline clip-path="url(#clip682)" style="stroke:#000000; stroke-linecap:round; stroke-linejoin:round; stroke-width:2; stroke-opacity:0.1; fill:none" points="270.918,335.258 3089.76,335.258 "/>
<polyline clip-path="url(#clip680)" style="stroke:#000000; stroke-linecap:round; stroke-linejoin:round; stroke-width:4; stroke-opacity:1; fill:none" points="270.918,1000.1 270.918,110.236 "/>
<polyline clip-path="url(#clip680)" style="stroke:#000000; stroke-linecap:round; stroke-linejoin:round; stroke-width:4; stroke-opacity:1; fill:none" points="270.918,1000.1 289.815,1000.1 "/>
<polyline clip-path="url(#clip680)" style="stroke:#000000; stroke-linecap:round; stroke-linejoin:round; stroke-width:4; stroke-opacity:1; fill:none" points="270.918,667.678 289.815,667.678 "/>
<polyline clip-path="url(#clip680)" style="stroke:#000000; stroke-linecap:round; stroke-linejoin:round; stroke-width:4; stroke-opacity:1; fill:none" points="270.918,335.258 289.815,335.258 "/>
<path clip-path="url(#clip680)" d="M154.902 1019.89 L162.54 1019.89 L162.54 993.525 L154.23 995.191 L154.23 990.932 L162.494 989.265 L167.17 989.265 L167.17 1019.89 L174.809 1019.89 L174.809 1023.83 L154.902 1023.83 L154.902 1019.89 Z" fill="#000000" fill-rule="nonzero" fill-opacity="1" /><path clip-path="url(#clip680)" d="M194.253 992.344 Q190.642 992.344 188.813 995.909 Q187.008 999.45 187.008 1006.58 Q187.008 1013.69 188.813 1017.25 Q190.642 1020.79 194.253 1020.79 Q197.887 1020.79 199.693 1017.25 Q201.522 1013.69 201.522 1006.58 Q201.522 999.45 199.693 995.909 Q197.887 992.344 194.253 992.344 M194.253 988.64 Q200.063 988.64 203.119 993.247 Q206.198 997.83 206.198 1006.58 Q206.198 1015.31 203.119 1019.91 Q200.063 1024.5 194.253 1024.5 Q188.443 1024.5 185.364 1019.91 Q182.309 1015.31 182.309 1006.58 Q182.309 997.83 185.364 993.247 Q188.443 988.64 194.253 988.64 Z" fill="#000000" fill-rule="nonzero" fill-opacity="1" /><path clip-path="url(#clip680)" d="M206.743 993.218 L212.95 993.218 L212.95 971.796 L206.198 973.15 L206.198 969.689 L212.912 968.335 L216.711 968.335 L216.711 993.218 L222.918 993.218 L222.918 996.415 L206.743 996.415 L206.743 993.218 Z" fill="#000000" fill-rule="nonzero" fill-opacity="1" /><path clip-path="url(#clip680)" d="M153.792 687.47 L161.431 687.47 L161.431 661.105 L153.121 662.771 L153.121 658.512 L161.384 656.845 L166.06 656.845 L166.06 687.47 L173.699 687.47 L173.699 691.405 L153.792 691.405 L153.792 687.47 Z" fill="#000000" fill-rule="nonzero" fill-opacity="1" /><path clip-path="url(#clip680)" d="M193.143 659.924 Q189.532 659.924 187.704 663.489 Q185.898 667.031 185.898 674.16 Q185.898 681.267 187.704 684.831 Q189.532 688.373 193.143 688.373 Q196.778 688.373 198.583 684.831 Q200.412 681.267 200.412 674.16 Q200.412 667.031 198.583 663.489 Q196.778 659.924 193.143 659.924 M193.143 656.22 Q198.954 656.22 202.009 660.827 Q205.088 665.41 205.088 674.16 Q205.088 682.887 202.009 687.493 Q198.954 692.077 193.143 692.077 Q187.333 692.077 184.255 687.493 Q181.199 682.887 181.199 674.16 Q181.199 665.41 184.255 660.827 Q187.333 656.22 193.143 656.22 Z" fill="#000000" fill-rule="nonzero" fill-opacity="1" /><path clip-path="url(#clip680)" d="M209.658 660.798 L222.918 660.798 L222.918 663.995 L205.088 663.995 L205.088 660.798 Q207.251 658.56 210.975 654.798 Q214.717 651.018 215.677 649.927 Q217.501 647.877 218.216 646.466 Q218.949 645.037 218.949 643.664 Q218.949 641.426 217.369 640.015 Q215.808 638.605 213.288 638.605 Q211.501 638.605 209.508 639.225 Q207.533 639.846 205.276 641.106 L205.276 637.269 Q207.57 636.348 209.564 635.877 Q211.558 635.407 213.213 635.407 Q217.576 635.407 220.172 637.589 Q222.767 639.771 222.767 643.419 Q222.767 645.15 222.109 646.711 Q221.469 648.253 219.758 650.359 Q219.288 650.905 216.767 653.519 Q214.247 656.115 209.658 660.798 Z" fill="#000000" fill-rule="nonzero" fill-opacity="1" /><path clip-path="url(#clip680)" d="M153.134 355.05 L160.772 355.05 L160.772 328.685 L152.462 330.351 L152.462 326.092 L160.726 324.425 L165.402 324.425 L165.402 355.05 L173.041 355.05 L173.041 358.985 L153.134 358.985 L153.134 355.05 Z" fill="#000000" fill-rule="nonzero" fill-opacity="1" /><path clip-path="url(#clip680)" d="M192.485 327.504 Q188.874 327.504 187.045 331.069 Q185.24 334.611 185.24 341.74 Q185.24 348.847 187.045 352.411 Q188.874 355.953 192.485 355.953 Q196.119 355.953 197.925 352.411 Q199.754 348.847 199.754 341.74 Q199.754 334.611 197.925 331.069 Q196.119 327.504 192.485 327.504 M192.485 323.8 Q198.295 323.8 201.351 328.407 Q204.43 332.99 204.43 341.74 Q204.43 350.467 201.351 355.073 Q198.295 359.657 192.485 359.657 Q186.675 359.657 183.596 355.073 Q180.541 350.467 180.541 341.74 Q180.541 332.99 183.596 328.407 Q186.675 323.8 192.485 323.8 Z" fill="#000000" fill-rule="nonzero" fill-opacity="1" /><path clip-path="url(#clip680)" d="M217.125 316.435 Q219.852 317.018 221.375 318.861 Q222.918 320.704 222.918 323.413 Q222.918 327.569 220.059 329.845 Q217.2 332.121 211.934 332.121 Q210.166 332.121 208.285 331.763 Q206.423 331.425 204.43 330.729 L204.43 327.061 Q206.009 327.983 207.89 328.453 Q209.771 328.923 211.821 328.923 Q215.395 328.923 217.256 327.513 Q219.137 326.102 219.137 323.413 Q219.137 320.93 217.388 319.538 Q215.658 318.128 212.555 318.128 L209.282 318.128 L209.282 315.005 L212.705 315.005 Q215.507 315.005 216.993 313.896 Q218.479 312.767 218.479 310.661 Q218.479 308.498 216.937 307.351 Q215.413 306.185 212.555 306.185 Q210.994 306.185 209.207 306.523 Q207.42 306.862 205.276 307.576 L205.276 304.191 Q207.439 303.589 209.32 303.288 Q211.219 302.987 212.893 302.987 Q217.219 302.987 219.739 304.962 Q222.259 306.918 222.259 310.266 Q222.259 312.598 220.924 314.216 Q219.589 315.814 217.125 316.435 Z" fill="#000000" fill-rule="nonzero" fill-opacity="1" /><path clip-path="url(#clip680)" d="M42.6863 825.789 L42.6863 795.743 L48.0971 795.743 L48.0971 819.36 L62.1653 819.36 L62.1653 796.73 L67.5762 796.73 L67.5762 819.36 L84.7954 819.36 L84.7954 795.17 L90.2063 795.17 L90.2063 825.789 L42.6863 825.789 Z" fill="#000000" fill-rule="nonzero" fill-opacity="1" /><path clip-path="url(#clip680)" d="M44.2459 756.116 L50.5161 756.116 Q48.7655 759.777 47.9062 763.023 Q47.0468 766.27 47.0468 769.293 Q47.0468 774.545 49.0838 777.41 Q51.1208 780.242 54.8766 780.242 Q58.0276 780.242 59.6509 778.365 Q61.2423 776.455 62.229 771.171 L63.0247 767.288 Q64.3933 760.095 67.8627 756.689 Q71.3001 753.252 77.0929 753.252 Q83.9997 753.252 87.5645 757.899 Q91.1293 762.514 91.1293 771.458 Q91.1293 774.832 90.3654 778.651 Q89.6015 782.439 88.1056 786.513 L81.4853 786.513 Q83.6814 782.598 84.7954 778.842 Q85.9094 775.086 85.9094 771.458 Q85.9094 765.951 83.7451 762.96 Q81.5808 759.968 77.5704 759.968 Q74.0692 759.968 72.0958 762.132 Q70.1225 764.265 69.1358 769.166 L68.3719 773.081 Q66.9396 780.274 63.8841 783.489 Q60.8285 786.704 55.3859 786.704 Q49.0838 786.704 45.4554 782.279 Q41.8269 777.823 41.8269 770.025 Q41.8269 766.683 42.4317 763.214 Q43.0364 759.745 44.2459 756.116 Z" fill="#000000" fill-rule="nonzero" fill-opacity="1" /><path clip-path="url(#clip680)" d="M44.2459 714.739 L50.5161 714.739 Q48.7655 718.4 47.9062 721.646 Q47.0468 724.893 47.0468 727.916 Q47.0468 733.168 49.0838 736.033 Q51.1208 738.865 54.8766 738.865 Q58.0276 738.865 59.6509 736.987 Q61.2423 735.078 62.229 729.794 L63.0247 725.911 Q64.3933 718.718 67.8627 715.312 Q71.3001 711.875 77.0929 711.875 Q83.9997 711.875 87.5645 716.522 Q91.1293 721.137 91.1293 730.081 Q91.1293 733.454 90.3654 737.274 Q89.6015 741.062 88.1056 745.136 L81.4853 745.136 Q83.6814 741.221 84.7954 737.465 Q85.9094 733.709 85.9094 730.081 Q85.9094 724.574 83.7451 721.582 Q81.5808 718.591 77.5704 718.591 Q74.0692 718.591 72.0958 720.755 Q70.1225 722.887 69.1358 727.789 L68.3719 731.704 Q66.9396 738.897 63.8841 742.112 Q60.8285 745.327 55.3859 745.327 Q49.0838 745.327 45.4554 740.902 Q41.8269 736.446 41.8269 728.648 Q41.8269 725.306 42.4317 721.837 Q43.0364 718.368 44.2459 714.739 Z" fill="#000000" fill-rule="nonzero" fill-opacity="1" /><path clip-path="url(#clip680)" d="M82.1218 700.607 L82.1218 693.892 L90.2063 693.892 L90.2063 700.607 L82.1218 700.607 M56.4999 700.607 L56.4999 693.892 L64.5843 693.892 L64.5843 700.607 L56.4999 700.607 Z" fill="#000000" fill-rule="nonzero" fill-opacity="1" /><path clip-path="url(#clip680)" d="M42.6863 659.899 L42.6863 653.438 L71.5548 653.438 Q79.1936 653.438 82.5674 650.668 Q85.9094 647.899 85.9094 641.693 Q85.9094 635.518 82.5674 632.749 Q79.1936 629.98 71.5548 629.98 L42.6863 629.98 L42.6863 623.519 L72.3505 623.519 Q81.6444 623.519 86.3869 628.134 Q91.1293 632.717 91.1293 641.693 Q91.1293 650.7 86.3869 655.315 Q81.6444 659.899 72.3505 659.899 L42.6863 659.899 Z" fill="#000000" fill-rule="nonzero" fill-opacity="1" /><path clip-path="url(#clip680)" d="M44.2459 582.969 L50.5161 582.969 Q48.7655 586.629 47.9062 589.876 Q47.0468 593.122 47.0468 596.146 Q47.0468 601.398 49.0838 604.262 Q51.1208 607.095 54.8766 607.095 Q58.0276 607.095 59.6509 605.217 Q61.2423 603.308 62.229 598.024 L63.0247 594.141 Q64.3933 586.948 67.8627 583.542 Q71.3001 580.105 77.0929 580.105 Q83.9997 580.105 87.5645 584.752 Q91.1293 589.367 91.1293 598.311 Q91.1293 601.684 90.3654 605.504 Q89.6015 609.291 88.1056 613.365 L81.4853 613.365 Q83.6814 609.451 84.7954 605.695 Q85.9094 601.939 85.9094 598.311 Q85.9094 592.804 83.7451 589.812 Q81.5808 586.82 77.5704 586.82 Q74.0692 586.82 72.0958 588.985 Q70.1225 591.117 69.1358 596.019 L68.3719 599.934 Q66.9396 607.127 63.8841 610.342 Q60.8285 613.556 55.3859 613.556 Q49.0838 613.556 45.4554 609.132 Q41.8269 604.676 41.8269 596.878 Q41.8269 593.536 42.4317 590.067 Q43.0364 586.598 44.2459 582.969 Z" fill="#000000" fill-rule="nonzero" fill-opacity="1" /><path clip-path="url(#clip680)" d="M49.0202 552.987 L72.6688 561.708 L72.6688 544.234 L49.0202 552.987 M42.6863 556.615 L42.6863 549.326 L90.2063 531.216 L90.2063 537.9 L78.016 542.229 L78.016 563.649 L90.2063 567.978 L90.2063 574.757 L42.6863 556.615 Z" fill="#000000" fill-rule="nonzero" fill-opacity="1" /><path clip-path="url(#clip680)" d="M82.1218 523.036 L82.1218 516.32 L87.5963 516.32 L97.7815 521.54 L97.7815 525.646 L87.5963 523.036 L82.1218 523.036 Z" fill="#000000" fill-rule="nonzero" fill-opacity="1" /><path clip-path="url(#clip680)" d="M44.4369 477.298 L54.5583 477.298 L54.5583 465.235 L59.1098 465.235 L59.1098 477.298 L78.4616 477.298 Q82.8221 477.298 84.0634 476.121 Q85.3047 474.911 85.3047 471.251 L85.3047 465.235 L90.2063 465.235 L90.2063 471.251 Q90.2063 478.031 87.6918 480.609 Q85.1455 483.187 78.4616 483.187 L59.1098 483.187 L59.1098 487.484 L54.5583 487.484 L54.5583 483.187 L44.4369 483.187 L44.4369 477.298 Z" fill="#000000" fill-rule="nonzero" fill-opacity="1" /><path clip-path="url(#clip680)" d="M54.5583 457.533 L54.5583 451.676 L90.2063 451.676 L90.2063 457.533 L54.5583 457.533 M40.6811 457.533 L40.6811 451.676 L48.0971 451.676 L48.0971 457.533 L40.6811 457.533 Z" fill="#000000" fill-rule="nonzero" fill-opacity="1" /><path clip-path="url(#clip680)" d="M61.4015 411.668 Q57.4547 409.472 55.5768 406.416 Q53.699 403.361 53.699 399.223 Q53.699 393.653 57.6139 390.629 Q61.4969 387.606 68.6902 387.606 L90.2063 387.606 L90.2063 393.494 L68.8812 393.494 Q63.7568 393.494 61.2741 395.308 Q58.7915 397.122 58.7915 400.846 Q58.7915 405.398 61.8152 408.04 Q64.8389 410.681 70.0588 410.681 L90.2063 410.681 L90.2063 416.57 L68.8812 416.57 Q63.7249 416.57 61.2741 418.384 Q58.7915 420.198 58.7915 423.986 Q58.7915 428.473 61.8471 431.115 Q64.8708 433.757 70.0588 433.757 L90.2063 433.757 L90.2063 439.645 L54.5583 439.645 L54.5583 433.757 L60.0965 433.757 Q56.8182 431.752 55.2586 428.951 Q53.699 426.15 53.699 422.299 Q53.699 418.416 55.6723 415.71 Q57.6457 412.973 61.4015 411.668 Z" fill="#000000" fill-rule="nonzero" fill-opacity="1" /><path clip-path="url(#clip680)" d="M70.9182 345.433 L73.7828 345.433 L73.7828 372.36 Q79.8302 371.978 83.013 368.731 Q86.1641 365.453 86.1641 359.628 Q86.1641 356.255 85.3365 353.104 Q84.509 349.921 82.8539 346.801 L88.3921 346.801 Q89.7289 349.953 90.4291 353.263 Q91.1293 356.573 91.1293 359.978 Q91.1293 368.509 86.1641 373.506 Q81.1988 378.471 72.7324 378.471 Q63.9796 378.471 58.8552 373.76 Q53.699 369.018 53.699 360.997 Q53.699 353.804 58.3459 349.634 Q62.9611 345.433 70.9182 345.433 M69.1995 351.289 Q64.3933 351.353 61.5288 353.995 Q58.6642 356.605 58.6642 360.933 Q58.6642 365.835 61.4333 368.795 Q64.2024 371.723 69.2313 372.169 L69.1995 351.289 Z" fill="#000000" fill-rule="nonzero" fill-opacity="1" /><path clip-path="url(#clip680)" d="M82.1218 334.325 L82.1218 327.609 L90.2063 327.609 L90.2063 334.325 L82.1218 334.325 M56.4999 334.325 L56.4999 327.609 L64.5843 327.609 L64.5843 334.325 L56.4999 334.325 Z" fill="#000000" fill-rule="nonzero" fill-opacity="1" /><path clip-path="url(#clip680)" d="M84.7954 311.917 L84.7954 301.414 L48.5427 301.414 L50.8344 312.84 L44.9779 312.84 L42.6863 301.478 L42.6863 295.048 L84.7954 295.048 L84.7954 284.545 L90.2063 284.545 L90.2063 311.917 L84.7954 311.917 Z" fill="#000000" fill-rule="nonzero" fill-opacity="1" /><polyline clip-path="url(#clip682)" style="stroke:#009af9; stroke-linecap:round; stroke-linejoin:round; stroke-width:4; stroke-opacity:1; fill:none" points="350.696,256.739 370.691,206.317 390.686,169.525 410.68,187.093 430.675,186.333 450.67,185.359 470.664,201.164 490.659,206.209 510.654,140.905 530.648,167.874 550.643,211.93 570.637,166.688 590.632,165.45 610.627,186.591 630.621,137.708 650.616,181.912 670.611,164.152 690.605,173.711 710.6,181.077 730.595,182.612 750.589,203.008 770.584,192.027 790.579,181.547 810.573,178.955 830.568,187.476 850.563,186.564 870.557,174.456 890.552,164.093 910.547,168.963 930.541,192.766 950.536,177.382 970.531,188.185 990.525,167.197 1010.52,198.122 1030.51,244.965 1050.51,204.331 1070.5,192.232 1090.5,175.593 1110.49,163.336 1130.49,214.573 1150.48,205.756 1170.48,192.563 1190.47,207.192 1210.47,190.937 1230.46,187.849 1250.46,163.305 1270.45,184.613 1290.44,193.418 1310.44,186.054 1330.43,155.751 1350.43,149.036 1370.42,160.307 1390.42,171.066 1410.41,183.358 1430.41,203.007 1450.4,195.53 1470.4,182.912 1490.39,183.976 1510.39,194.39 1530.38,166.788 1550.38,175.355 1570.37,137.304 1590.36,201.463 1610.36,159.6 1630.35,201.726 1650.35,208.745 1670.34,175.237 1690.34,162.959 1710.33,147.632 1730.33,150.931 1750.32,166.234 1770.32,189.027 1790.31,168.331 1810.31,176.182 1830.3,176.535 1850.3,172.933 1870.29,163.526 1890.28,161.811 1910.28,212.91 1930.27,155.876 1950.27,155.994 1970.26,151.731 1990.26,141.46 2010.25,180.742 2030.25,164.296 2050.24,172.306 2070.24,139.628 2090.23,126.74 2110.23,151.561 2130.22,179.551 2150.22,110.236 2170.21,127.824 2190.2,122.09 2210.2,151.01 2230.19,173.7 2250.19,163.515 2270.18,159.794 2290.18,169.366 2310.17,163.681 2330.17,212.304 2350.16,169.682 2370.16,168.389 2390.15,138.631 2410.15,184.05 2430.14,201.757 2450.13,140.456 2470.13,162.883 2490.12,156.987 2510.12,136.517 2530.11,196.567 2550.11,133.959 2570.1,146.147 2590.1,224.199 2610.09,207.078 2630.09,178.8 2650.08,158.467 2670.08,140.755 2690.07,204.798 2710.07,151.444 2730.06,155.875 2750.05,168.404 2770.05,182.366 2790.04,170.788 2810.04,146.565 2830.03,142.584 2850.03,168.325 2870.02,144.79 2890.02,212.085 2910.01,225.118 2930.01,189.406 2950,160.422 2970,146.322 2989.99,144.516 3009.99,173.114 "/>
</svg>
