<?xml version="1.0" encoding="utf-8"?>
<svg xmlns="http://www.w3.org/2000/svg" xmlns:xlink="http://www.w3.org/1999/xlink" width="800" height="300" viewBox="0 0 3200 1200">
<defs>
  <clipPath id="clip210">
    <rect x="0" y="0" width="3200" height="1200"/>
  </clipPath>
</defs>
<path clip-path="url(#clip210)" d="M0 1200 L3200 1200 L3200 0 L0 0  Z" fill="#ffffff" fill-rule="evenodd" fill-opacity="1"/>
<defs>
  <clipPath id="clip211">
    <rect x="640" y="0" width="2241" height="1200"/>
  </clipPath>
</defs>
<path clip-path="url(#clip210)" d="M270.918 1000.1 L3089.76 1000.1 L3089.76 110.236 L270.918 110.236  Z" fill="#ffffff" fill-rule="evenodd" fill-opacity="1"/>
<defs>
  <clipPath id="clip212">
    <rect x="270" y="110" width="2820" height="891"/>
  </clipPath>
</defs>
<polyline clip-path="url(#clip212)" style="stroke:#000000; stroke-linecap:round; stroke-linejoin:round; stroke-width:2; stroke-opacity:0.1; fill:none" points="330.55,1000.1 330.55,110.236 "/>
<polyline clip-path="url(#clip212)" style="stroke:#000000; stroke-linecap:round; stroke-linejoin:round; stroke-width:2; stroke-opacity:0.1; fill:none" points="733.473,1000.1 733.473,110.236 "/>
<polyline clip-path="url(#clip212)" style="stroke:#000000; stroke-linecap:round; stroke-linejoin:round; stroke-width:2; stroke-opacity:0.1; fill:none" points="1136.4,1000.1 1136.4,110.236 "/>
<polyline clip-path="url(#clip212)" style="stroke:#000000; stroke-linecap:round; stroke-linejoin:round; stroke-width:2; stroke-opacity:0.1; fill:none" points="1539.32,1000.1 1539.32,110.236 "/>
<polyline clip-path="url(#clip212)" style="stroke:#000000; stroke-linecap:round; stroke-linejoin:round; stroke-width:2; stroke-opacity:0.1; fill:none" points="1942.24,1000.1 1942.24,110.236 "/>
<polyline clip-path="url(#clip212)" style="stroke:#000000; stroke-linecap:round; stroke-linejoin:round; stroke-width:2; stroke-opacity:0.1; fill:none" points="2345.16,1000.1 2345.16,110.236 "/>
<polyline clip-path="url(#clip212)" style="stroke:#000000; stroke-linecap:round; stroke-linejoin:round; stroke-width:2; stroke-opacity:0.1; fill:none" points="2748.09,1000.1 2748.09,110.236 "/>
<polyline clip-path="url(#clip210)" style="stroke:#000000; stroke-linecap:round; stroke-linejoin:round; stroke-width:4; stroke-opacity:1; fill:none" points="270.918,1000.1 3089.76,1000.1 "/>
<polyline clip-path="url(#clip210)" style="stroke:#000000; stroke-linecap:round; stroke-linejoin:round; stroke-width:4; stroke-opacity:1; fill:none" points="330.55,1000.1 330.55,981.2 "/>
<polyline clip-path="url(#clip210)" style="stroke:#000000; stroke-linecap:round; stroke-linejoin:round; stroke-width:4; stroke-opacity:1; fill:none" points="733.473,1000.1 733.473,981.2 "/>
<polyline clip-path="url(#clip210)" style="stroke:#000000; stroke-linecap:round; stroke-linejoin:round; stroke-width:4; stroke-opacity:1; fill:none" points="1136.4,1000.1 1136.4,981.2 "/>
<polyline clip-path="url(#clip210)" style="stroke:#000000; stroke-linecap:round; stroke-linejoin:round; stroke-width:4; stroke-opacity:1; fill:none" points="1539.32,1000.1 1539.32,981.2 "/>
<polyline clip-path="url(#clip210)" style="stroke:#000000; stroke-linecap:round; stroke-linejoin:round; stroke-width:4; stroke-opacity:1; fill:none" points="1942.24,1000.1 1942.24,981.2 "/>
<polyline clip-path="url(#clip210)" style="stroke:#000000; stroke-linecap:round; stroke-linejoin:round; stroke-width:4; stroke-opacity:1; fill:none" points="2345.16,1000.1 2345.16,981.2 "/>
<polyline clip-path="url(#clip210)" style="stroke:#000000; stroke-linecap:round; stroke-linejoin:round; stroke-width:4; stroke-opacity:1; fill:none" points="2748.09,1000.1 2748.09,981.2 "/>
<path clip-path="url(#clip210)" d="M330.55 1037.42 Q326.939 1037.42 325.11 1040.98 Q323.305 1044.52 323.305 1051.65 Q323.305 1058.76 325.11 1062.32 Q326.939 1065.87 330.55 1065.87 Q334.184 1065.87 335.99 1062.32 Q337.819 1058.76 337.819 1051.65 Q337.819 1044.52 335.99 1040.98 Q334.184 1037.42 330.55 1037.42 M330.55 1033.71 Q336.36 1033.71 339.416 1038.32 Q342.495 1042.9 342.495 1051.65 Q342.495 1060.38 339.416 1064.99 Q336.36 1069.57 330.55 1069.57 Q324.74 1069.57 321.661 1064.99 Q318.606 1060.38 318.606 1051.65 Q318.606 1042.9 321.661 1038.32 Q324.74 1033.71 330.55 1033.71 Z" fill="#000000" fill-rule="nonzero" fill-opacity="1" /><path clip-path="url(#clip210)" d="M712.246 1064.96 L728.565 1064.96 L728.565 1068.9 L706.621 1068.9 L706.621 1064.96 Q709.283 1062.21 713.866 1057.58 Q718.473 1052.93 719.653 1051.58 Q721.899 1049.06 722.778 1047.32 Q723.681 1045.56 723.681 1043.87 Q723.681 1041.12 721.737 1039.38 Q719.815 1037.65 716.714 1037.65 Q714.514 1037.65 712.061 1038.41 Q709.63 1039.18 706.852 1040.73 L706.852 1036 Q709.677 1034.87 712.13 1034.29 Q714.584 1033.71 716.621 1033.71 Q721.991 1033.71 725.186 1036.4 Q728.38 1039.08 728.38 1043.57 Q728.38 1045.7 727.57 1047.62 Q726.783 1049.52 724.676 1052.12 Q724.098 1052.79 720.996 1056 Q717.894 1059.2 712.246 1064.96 Z" fill="#000000" fill-rule="nonzero" fill-opacity="1" /><path clip-path="url(#clip210)" d="M748.38 1037.42 Q744.769 1037.42 742.94 1040.98 Q741.135 1044.52 741.135 1051.65 Q741.135 1058.76 742.94 1062.32 Q744.769 1065.87 748.38 1065.87 Q752.014 1065.87 753.82 1062.32 Q755.649 1058.76 755.649 1051.65 Q755.649 1044.52 753.82 1040.98 Q752.014 1037.42 748.38 1037.42 M748.38 1033.71 Q754.19 1033.71 757.246 1038.32 Q760.324 1042.9 760.324 1051.65 Q760.324 1060.38 757.246 1064.99 Q754.19 1069.57 748.38 1069.57 Q742.57 1069.57 739.491 1064.99 Q736.436 1060.38 736.436 1051.65 Q736.436 1042.9 739.491 1038.32 Q742.57 1033.71 748.38 1033.71 Z" fill="#000000" fill-rule="nonzero" fill-opacity="1" /><path clip-path="url(#clip210)" d="M1124.57 1038.41 L1112.76 1056.86 L1124.57 1056.86 L1124.57 1038.41 M1123.34 1034.34 L1129.22 1034.34 L1129.22 1056.86 L1134.15 1056.86 L1134.15 1060.75 L1129.22 1060.75 L1129.22 1068.9 L1124.57 1068.9 L1124.57 1060.75 L1108.96 1060.75 L1108.96 1056.24 L1123.34 1034.34 Z" fill="#000000" fill-rule="nonzero" fill-opacity="1" /><path clip-path="url(#clip210)" d="M1151.88 1037.42 Q1148.27 1037.42 1146.44 1040.98 Q1144.64 1044.52 1144.64 1051.65 Q1144.64 1058.76 1146.44 1062.32 Q1148.27 1065.87 1151.88 1065.87 Q1155.52 1065.87 1157.32 1062.32 Q1159.15 1058.76 1159.15 1051.65 Q1159.15 1044.52 1157.32 1040.98 Q1155.52 1037.42 1151.88 1037.42 M1151.88 1033.71 Q1157.69 1033.71 1160.75 1038.32 Q1163.83 1042.9 1163.83 1051.65 Q1163.83 1060.38 1160.75 1064.99 Q1157.69 1069.57 1151.88 1069.57 Q1146.07 1069.57 1142.99 1064.99 Q1139.94 1060.38 1139.94 1051.65 Q1139.94 1042.9 1142.99 1038.32 Q1146.07 1033.71 1151.88 1033.71 Z" fill="#000000" fill-rule="nonzero" fill-opacity="1" /><path clip-path="url(#clip210)" d="M1524.72 1049.75 Q1521.57 1049.75 1519.72 1051.91 Q1517.89 1054.06 1517.89 1057.81 Q1517.89 1061.54 1519.72 1063.71 Q1521.57 1065.87 1524.72 1065.87 Q1527.87 1065.87 1529.7 1063.71 Q1531.55 1061.54 1531.55 1057.81 Q1531.55 1054.06 1529.7 1051.91 Q1527.87 1049.75 1524.72 1049.75 M1534.01 1035.1 L1534.01 1039.36 Q1532.25 1038.53 1530.44 1038.09 Q1528.66 1037.65 1526.9 1037.65 Q1522.27 1037.65 1519.82 1040.77 Q1517.39 1043.9 1517.04 1050.22 Q1518.4 1048.2 1520.46 1047.14 Q1522.52 1046.05 1525 1046.05 Q1530.21 1046.05 1533.22 1049.22 Q1536.25 1052.37 1536.25 1057.81 Q1536.25 1063.13 1533.1 1066.35 Q1529.95 1069.57 1524.72 1069.57 Q1518.73 1069.57 1515.56 1064.99 Q1512.39 1060.38 1512.39 1051.65 Q1512.39 1043.46 1516.27 1038.6 Q1520.16 1033.71 1526.71 1033.71 Q1528.47 1033.71 1530.26 1034.06 Q1532.06 1034.41 1534.01 1035.1 Z" fill="#000000" fill-rule="nonzero" fill-opacity="1" /><path clip-path="url(#clip210)" d="M1554.31 1037.42 Q1550.7 1037.42 1548.87 1040.98 Q1547.06 1044.52 1547.06 1051.65 Q1547.06 1058.76 1548.87 1062.32 Q1550.7 1065.87 1554.31 1065.87 Q1557.94 1065.87 1559.75 1062.32 Q1561.57 1058.76 1561.57 1051.65 Q1561.57 1044.52 1559.75 1040.98 Q1557.94 1037.42 1554.31 1037.42 M1554.31 1033.71 Q1560.12 1033.71 1563.17 1038.32 Q1566.25 1042.9 1566.25 1051.65 Q1566.25 1060.38 1563.17 1064.99 Q1560.12 1069.57 1554.31 1069.57 Q1548.5 1069.57 1545.42 1064.99 Q1542.36 1060.38 1542.36 1051.65 Q1542.36 1042.9 1545.42 1038.32 Q1548.5 1033.71 1554.31 1033.71 Z" fill="#000000" fill-rule="nonzero" fill-opacity="1" /><path clip-path="url(#clip210)" d="M1927.11 1052.49 Q1923.78 1052.49 1921.86 1054.27 Q1919.96 1056.05 1919.96 1059.18 Q1919.96 1062.3 1921.86 1064.08 Q1923.78 1065.87 1927.11 1065.87 Q1930.45 1065.87 1932.37 1064.08 Q1934.29 1062.28 1934.29 1059.18 Q1934.29 1056.05 1932.37 1054.27 Q1930.47 1052.49 1927.11 1052.49 M1922.44 1050.5 Q1919.43 1049.75 1917.74 1047.69 Q1916.07 1045.63 1916.07 1042.67 Q1916.07 1038.53 1919.01 1036.12 Q1921.97 1033.71 1927.11 1033.71 Q1932.28 1033.71 1935.21 1036.12 Q1938.15 1038.53 1938.15 1042.67 Q1938.15 1045.63 1936.46 1047.69 Q1934.8 1049.75 1931.81 1050.5 Q1935.19 1051.28 1937.07 1053.57 Q1938.96 1055.87 1938.96 1059.18 Q1938.96 1064.2 1935.89 1066.88 Q1932.83 1069.57 1927.11 1069.57 Q1921.4 1069.57 1918.32 1066.88 Q1915.26 1064.2 1915.26 1059.18 Q1915.26 1055.87 1917.16 1053.57 Q1919.06 1051.28 1922.44 1050.5 M1920.72 1043.11 Q1920.72 1045.8 1922.39 1047.3 Q1924.08 1048.81 1927.11 1048.81 Q1930.12 1048.81 1931.81 1047.3 Q1933.53 1045.8 1933.53 1043.11 Q1933.53 1040.43 1931.81 1038.92 Q1930.12 1037.42 1927.11 1037.42 Q1924.08 1037.42 1922.39 1038.92 Q1920.72 1040.43 1920.72 1043.11 Z" fill="#000000" fill-rule="nonzero" fill-opacity="1" /><path clip-path="url(#clip210)" d="M1957.28 1037.42 Q1953.66 1037.42 1951.84 1040.98 Q1950.03 1044.52 1950.03 1051.65 Q1950.03 1058.76 1951.84 1062.32 Q1953.66 1065.87 1957.28 1065.87 Q1960.91 1065.87 1962.71 1062.32 Q1964.54 1058.76 1964.54 1051.65 Q1964.54 1044.52 1962.71 1040.98 Q1960.91 1037.42 1957.28 1037.42 M1957.28 1033.71 Q1963.09 1033.71 1966.14 1038.32 Q1969.22 1042.9 1969.22 1051.65 Q1969.22 1060.38 1966.14 1064.99 Q1963.09 1069.57 1957.28 1069.57 Q1951.46 1069.57 1948.39 1064.99 Q1945.33 1060.38 1945.33 1051.65 Q1945.33 1042.9 1948.39 1038.32 Q1951.46 1033.71 1957.28 1033.71 Z" fill="#000000" fill-rule="nonzero" fill-opacity="1" /><path clip-path="url(#clip210)" d="M2304.77 1064.96 L2312.41 1064.96 L2312.41 1038.6 L2304.1 1040.26 L2304.1 1036 L2312.36 1034.34 L2317.04 1034.34 L2317.04 1064.96 L2324.68 1064.96 L2324.68 1068.9 L2304.77 1068.9 L2304.77 1064.96 Z" fill="#000000" fill-rule="nonzero" fill-opacity="1" /><path clip-path="url(#clip210)" d="M2344.12 1037.42 Q2340.51 1037.42 2338.68 1040.98 Q2336.88 1044.52 2336.88 1051.65 Q2336.88 1058.76 2338.68 1062.32 Q2340.51 1065.87 2344.12 1065.87 Q2347.76 1065.87 2349.56 1062.32 Q2351.39 1058.76 2351.39 1051.65 Q2351.39 1044.52 2349.56 1040.98 Q2347.76 1037.42 2344.12 1037.42 M2344.12 1033.71 Q2349.93 1033.71 2352.99 1038.32 Q2356.07 1042.9 2356.07 1051.65 Q2356.07 1060.38 2352.99 1064.99 Q2349.93 1069.57 2344.12 1069.57 Q2338.31 1069.57 2335.23 1064.99 Q2332.18 1060.38 2332.18 1051.65 Q2332.18 1042.9 2335.23 1038.32 Q2338.31 1033.71 2344.12 1033.71 Z" fill="#000000" fill-rule="nonzero" fill-opacity="1" /><path clip-path="url(#clip210)" d="M2374.28 1037.42 Q2370.67 1037.42 2368.84 1040.98 Q2367.04 1044.52 2367.04 1051.65 Q2367.04 1058.76 2368.84 1062.32 Q2370.67 1065.87 2374.28 1065.87 Q2377.92 1065.87 2379.72 1062.32 Q2381.55 1058.76 2381.55 1051.65 Q2381.55 1044.52 2379.72 1040.98 Q2377.92 1037.42 2374.28 1037.42 M2374.28 1033.71 Q2380.09 1033.71 2383.15 1038.32 Q2386.23 1042.9 2386.23 1051.65 Q2386.23 1060.38 2383.15 1064.99 Q2380.09 1069.57 2374.28 1069.57 Q2368.47 1069.57 2365.39 1064.99 Q2362.34 1060.38 2362.34 1051.65 Q2362.34 1042.9 2365.39 1038.32 Q2368.47 1033.71 2374.28 1033.71 Z" fill="#000000" fill-rule="nonzero" fill-opacity="1" /><path clip-path="url(#clip210)" d="M2707.69 1064.96 L2715.33 1064.96 L2715.33 1038.6 L2707.02 1040.26 L2707.02 1036 L2715.28 1034.34 L2719.96 1034.34 L2719.96 1064.96 L2727.6 1064.96 L2727.6 1068.9 L2707.69 1068.9 L2707.69 1064.96 Z" fill="#000000" fill-rule="nonzero" fill-opacity="1" /><path clip-path="url(#clip210)" d="M2741.07 1064.96 L2757.39 1064.96 L2757.39 1068.9 L2735.45 1068.9 L2735.45 1064.96 Q2738.11 1062.21 2742.69 1057.58 Q2747.3 1052.93 2748.48 1051.58 Q2750.72 1049.06 2751.6 1047.32 Q2752.51 1045.56 2752.51 1043.87 Q2752.51 1041.12 2750.56 1039.38 Q2748.64 1037.65 2745.54 1037.65 Q2743.34 1037.65 2740.89 1038.41 Q2738.46 1039.18 2735.68 1040.73 L2735.68 1036 Q2738.5 1034.87 2740.96 1034.29 Q2743.41 1033.71 2745.45 1033.71 Q2750.82 1033.71 2754.01 1036.4 Q2757.21 1039.08 2757.21 1043.57 Q2757.21 1045.7 2756.4 1047.62 Q2755.61 1049.52 2753.5 1052.12 Q2752.92 1052.79 2749.82 1056 Q2746.72 1059.2 2741.07 1064.96 Z" fill="#000000" fill-rule="nonzero" fill-opacity="1" /><path clip-path="url(#clip210)" d="M2777.21 1037.42 Q2773.59 1037.42 2771.77 1040.98 Q2769.96 1044.52 2769.96 1051.65 Q2769.96 1058.76 2771.77 1062.32 Q2773.59 1065.87 2777.21 1065.87 Q2780.84 1065.87 2782.65 1062.32 Q2784.47 1058.76 2784.47 1051.65 Q2784.47 1044.52 2782.65 1040.98 Q2780.84 1037.42 2777.21 1037.42 M2777.21 1033.71 Q2783.02 1033.71 2786.07 1038.32 Q2789.15 1042.9 2789.15 1051.65 Q2789.15 1060.38 2786.07 1064.99 Q2783.02 1069.57 2777.21 1069.57 Q2771.4 1069.57 2768.32 1064.99 Q2765.26 1060.38 2765.26 1051.65 Q2765.26 1042.9 2768.32 1038.32 Q2771.4 1033.71 2777.21 1033.71 Z" fill="#000000" fill-rule="nonzero" fill-opacity="1" /><path clip-path="url(#clip210)" d="M1556.64 1109.44 L1563.07 1109.44 L1563.07 1151.55 L1586.21 1151.55 L1586.21 1156.96 L1556.64 1156.96 L1556.64 1109.44 Z" fill="#000000" fill-rule="nonzero" fill-opacity="1" /><path clip-path="url(#clip210)" d="M1592.7 1121.31 L1598.56 1121.31 L1598.56 1156.96 L1592.7 1156.96 L1592.7 1121.31 M1592.7 1107.44 L1598.56 1107.44 L1598.56 1114.85 L1592.7 1114.85 L1592.7 1107.44 Z" fill="#000000" fill-rule="nonzero" fill-opacity="1" /><path clip-path="url(#clip210)" d="M1640.44 1135.45 L1640.44 1156.96 L1634.59 1156.96 L1634.59 1135.64 Q1634.59 1130.58 1632.61 1128.06 Q1630.64 1125.55 1626.69 1125.55 Q1621.95 1125.55 1619.21 1128.57 Q1616.48 1131.59 1616.48 1136.81 L1616.48 1156.96 L1610.59 1156.96 L1610.59 1121.31 L1616.48 1121.31 L1616.48 1126.85 Q1618.58 1123.64 1621.41 1122.05 Q1624.27 1120.45 1628 1120.45 Q1634.14 1120.45 1637.29 1124.27 Q1640.44 1128.06 1640.44 1135.45 Z" fill="#000000" fill-rule="nonzero" fill-opacity="1" /><path clip-path="url(#clip210)" d="M1682.62 1137.67 L1682.62 1140.54 L1655.69 1140.54 Q1656.07 1146.59 1659.32 1149.77 Q1662.6 1152.92 1668.42 1152.92 Q1671.79 1152.92 1674.95 1152.09 Q1678.13 1151.26 1681.25 1149.61 L1681.25 1155.15 Q1678.1 1156.48 1674.79 1157.18 Q1671.48 1157.88 1668.07 1157.88 Q1659.54 1157.88 1654.54 1152.92 Q1649.58 1147.95 1649.58 1139.49 Q1649.58 1130.74 1654.29 1125.61 Q1659.03 1120.45 1667.05 1120.45 Q1674.25 1120.45 1678.42 1125.1 Q1682.62 1129.72 1682.62 1137.67 M1676.76 1135.95 Q1676.7 1131.15 1674.05 1128.28 Q1671.44 1125.42 1667.12 1125.42 Q1662.21 1125.42 1659.25 1128.19 Q1656.33 1130.96 1655.88 1135.99 L1676.76 1135.95 Z" fill="#000000" fill-rule="nonzero" fill-opacity="1" /><path clip-path="url(#clip210)" d="M1708.43 1139.04 Q1701.33 1139.04 1698.59 1140.67 Q1695.86 1142.29 1695.86 1146.2 Q1695.86 1149.32 1697.89 1151.17 Q1699.96 1152.98 1703.5 1152.98 Q1708.37 1152.98 1711.29 1149.55 Q1714.25 1146.08 1714.25 1140.35 L1714.25 1139.04 L1708.43 1139.04 M1720.11 1136.62 L1720.11 1156.96 L1714.25 1156.96 L1714.25 1151.55 Q1712.25 1154.8 1709.26 1156.36 Q1706.27 1157.88 1701.94 1157.88 Q1696.46 1157.88 1693.22 1154.83 Q1690 1151.74 1690 1146.59 Q1690 1140.57 1694.01 1137.51 Q1698.05 1134.46 1706.04 1134.46 L1714.25 1134.46 L1714.25 1133.89 Q1714.25 1129.84 1711.58 1127.65 Q1708.94 1125.42 1704.13 1125.42 Q1701.08 1125.42 1698.18 1126.15 Q1695.28 1126.88 1692.61 1128.35 L1692.61 1122.94 Q1695.83 1121.7 1698.85 1121.09 Q1701.87 1120.45 1704.74 1120.45 Q1712.47 1120.45 1716.29 1124.46 Q1720.11 1128.48 1720.11 1136.62 Z" fill="#000000" fill-rule="nonzero" fill-opacity="1" /><path clip-path="url(#clip210)" d="M1755.63 1138.72 Q1755.63 1132.36 1752.99 1128.86 Q1750.38 1125.36 1745.64 1125.36 Q1740.93 1125.36 1738.28 1128.86 Q1735.67 1132.36 1735.67 1138.72 Q1735.67 1145.06 1738.28 1148.56 Q1740.93 1152.06 1745.64 1152.06 Q1750.38 1152.06 1752.99 1148.56 Q1755.63 1145.06 1755.63 1138.72 M1761.49 1152.54 Q1761.49 1161.64 1757.45 1166.06 Q1753.4 1170.52 1745.06 1170.52 Q1741.98 1170.52 1739.24 1170.04 Q1736.5 1169.6 1733.92 1168.64 L1733.92 1162.95 Q1736.5 1164.35 1739.02 1165.01 Q1741.53 1165.68 1744.14 1165.68 Q1749.9 1165.68 1752.77 1162.66 Q1755.63 1159.67 1755.63 1153.59 L1755.63 1150.69 Q1753.82 1153.84 1750.98 1155.4 Q1748.15 1156.96 1744.2 1156.96 Q1737.65 1156.96 1733.64 1151.96 Q1729.63 1146.97 1729.63 1138.72 Q1729.63 1130.45 1733.64 1125.45 Q1737.65 1120.45 1744.2 1120.45 Q1748.15 1120.45 1750.98 1122.01 Q1753.82 1123.57 1755.63 1126.72 L1755.63 1121.31 L1761.49 1121.31 L1761.49 1152.54 Z" fill="#000000" fill-rule="nonzero" fill-opacity="1" /><path clip-path="url(#clip210)" d="M1804.04 1137.67 L1804.04 1140.54 L1777.12 1140.54 Q1777.5 1146.59 1780.74 1149.77 Q1784.02 1152.92 1789.85 1152.92 Q1793.22 1152.92 1796.37 1152.09 Q1799.55 1151.26 1802.67 1149.61 L1802.67 1155.15 Q1799.52 1156.48 1796.21 1157.18 Q1792.9 1157.88 1789.5 1157.88 Q1780.97 1157.88 1775.97 1152.92 Q1771 1147.95 1771 1139.49 Q1771 1130.74 1775.71 1125.61 Q1780.46 1120.45 1788.48 1120.45 Q1795.67 1120.45 1799.84 1125.1 Q1804.04 1129.72 1804.04 1137.67 M1798.19 1135.95 Q1798.12 1131.15 1795.48 1128.28 Q1792.87 1125.42 1788.54 1125.42 Q1783.64 1125.42 1780.68 1128.19 Q1777.75 1130.96 1777.31 1135.99 L1798.19 1135.95 Z" fill="#000000" fill-rule="nonzero" fill-opacity="1" /><polyline clip-path="url(#clip212)" style="stroke:#000000; stroke-linecap:round; stroke-linejoin:round; stroke-width:2; stroke-opacity:0.1; fill:none" points="270.918,1000.1 3089.76,1000.1 "/>
<polyline clip-path="url(#clip212)" style="stroke:#000000; stroke-linecap:round; stroke-linejoin:round; stroke-width:2; stroke-opacity:0.1; fill:none" points="270.918,662.972 3089.76,662.972 "/>
<polyline clip-path="url(#clip212)" style="stroke:#000000; stroke-linecap:round; stroke-linejoin:round; stroke-width:2; stroke-opacity:0.1; fill:none" points="270.918,325.847 3089.76,325.847 "/>
<polyline clip-path="url(#clip210)" style="stroke:#000000; stroke-linecap:round; stroke-linejoin:round; stroke-width:4; stroke-opacity:1; fill:none" points="270.918,1000.1 270.918,110.236 "/>
<polyline clip-path="url(#clip210)" style="stroke:#000000; stroke-linecap:round; stroke-linejoin:round; stroke-width:4; stroke-opacity:1; fill:none" points="270.918,1000.1 289.815,1000.1 "/>
<polyline clip-path="url(#clip210)" style="stroke:#000000; stroke-linecap:round; stroke-linejoin:round; stroke-width:4; stroke-opacity:1; fill:none" points="270.918,662.972 289.815,662.972 "/>
<polyline clip-path="url(#clip210)" style="stroke:#000000; stroke-linecap:round; stroke-linejoin:round; stroke-width:4; stroke-opacity:1; fill:none" points="270.918,325.847 289.815,325.847 "/>
<path clip-path="url(#clip210)" d="M154.902 1019.89 L162.54 1019.89 L162.54 993.525 L154.23 995.191 L154.23 990.932 L162.494 989.265 L167.17 989.265 L167.17 1019.89 L174.809 1019.89 L174.809 1023.83 L154.902 1023.83 L154.902 1019.89 Z" fill="#000000" fill-rule="nonzero" fill-opacity="1" /><path clip-path="url(#clip210)" d="M194.253 992.344 Q190.642 992.344 188.813 995.909 Q187.008 999.45 187.008 1006.58 Q187.008 1013.69 188.813 1017.25 Q190.642 1020.79 194.253 1020.79 Q197.887 1020.79 199.693 1017.25 Q201.522 1013.69 201.522 1006.58 Q201.522 999.45 199.693 995.909 Q197.887 992.344 194.253 992.344 M194.253 988.64 Q200.063 988.64 203.119 993.247 Q206.198 997.83 206.198 1006.58 Q206.198 1015.31 203.119 1019.91 Q200.063 1024.5 194.253 1024.5 Q188.443 1024.5 185.364 1019.91 Q182.309 1015.31 182.309 1006.58 Q182.309 997.83 185.364 993.247 Q188.443 988.64 194.253 988.64 Z" fill="#000000" fill-rule="nonzero" fill-opacity="1" /><path clip-path="url(#clip210)" d="M206.743 993.218 L212.95 993.218 L212.95 971.796 L206.198 973.15 L206.198 969.689 L212.912 968.335 L216.711 968.335 L216.711 993.218 L222.918 993.218 L222.918 996.415 L206.743 996.415 L206.743 993.218 Z" fill="#000000" fill-rule="nonzero" fill-opacity="1" /><path clip-path="url(#clip210)" d="M153.792 682.765 L161.431 682.765 L161.431 656.399 L153.121 658.066 L153.121 653.807 L161.384 652.14 L166.06 652.14 L166.06 682.765 L173.699 682.765 L173.699 686.7 L153.792 686.7 L153.792 682.765 Z" fill="#000000" fill-rule="nonzero" fill-opacity="1" /><path clip-path="url(#clip210)" d="M193.143 655.219 Q189.532 655.219 187.704 658.783 Q185.898 662.325 185.898 669.455 Q185.898 676.561 187.704 680.126 Q189.532 683.668 193.143 683.668 Q196.778 683.668 198.583 680.126 Q200.412 676.561 200.412 669.455 Q200.412 662.325 198.583 658.783 Q196.778 655.219 193.143 655.219 M193.143 651.515 Q198.954 651.515 202.009 656.121 Q205.088 660.705 205.088 669.455 Q205.088 678.181 202.009 682.788 Q198.954 687.371 193.143 687.371 Q187.333 687.371 184.255 682.788 Q181.199 678.181 181.199 669.455 Q181.199 660.705 184.255 656.121 Q187.333 651.515 193.143 651.515 Z" fill="#000000" fill-rule="nonzero" fill-opacity="1" /><path clip-path="url(#clip210)" d="M209.658 656.092 L222.918 656.092 L222.918 659.29 L205.088 659.29 L205.088 656.092 Q207.251 653.854 210.975 650.093 Q214.717 646.312 215.677 645.221 Q217.501 643.171 218.216 641.761 Q218.949 640.331 218.949 638.958 Q218.949 636.72 217.369 635.31 Q215.808 633.899 213.288 633.899 Q211.501 633.899 209.508 634.52 Q207.533 635.14 205.276 636.4 L205.276 632.564 Q207.57 631.642 209.564 631.172 Q211.558 630.702 213.213 630.702 Q217.576 630.702 220.172 632.883 Q222.767 635.065 222.767 638.714 Q222.767 640.444 222.109 642.005 Q221.469 643.547 219.758 645.654 Q219.288 646.199 216.767 648.814 Q214.247 651.409 209.658 656.092 Z" fill="#000000" fill-rule="nonzero" fill-opacity="1" /><path clip-path="url(#clip210)" d="M153.134 345.639 L160.772 345.639 L160.772 319.274 L152.462 320.94 L152.462 316.681 L160.726 315.015 L165.402 315.015 L165.402 345.639 L173.041 345.639 L173.041 349.575 L153.134 349.575 L153.134 345.639 Z" fill="#000000" fill-rule="nonzero" fill-opacity="1" /><path clip-path="url(#clip210)" d="M192.485 318.093 Q188.874 318.093 187.045 321.658 Q185.24 325.2 185.24 332.329 Q185.24 339.436 187.045 343 Q188.874 346.542 192.485 346.542 Q196.119 346.542 197.925 343 Q199.754 339.436 199.754 332.329 Q199.754 325.2 197.925 321.658 Q196.119 318.093 192.485 318.093 M192.485 314.39 Q198.295 314.39 201.351 318.996 Q204.43 323.579 204.43 332.329 Q204.43 341.056 201.351 345.662 Q198.295 350.246 192.485 350.246 Q186.675 350.246 183.596 345.662 Q180.541 341.056 180.541 332.329 Q180.541 323.579 183.596 318.996 Q186.675 314.39 192.485 314.39 Z" fill="#000000" fill-rule="nonzero" fill-opacity="1" /><path clip-path="url(#clip210)" d="M217.125 307.024 Q219.852 307.607 221.375 309.45 Q222.918 311.293 222.918 314.002 Q222.918 318.158 220.059 320.434 Q217.2 322.71 211.934 322.71 Q210.166 322.71 208.285 322.352 Q206.423 322.014 204.43 321.318 L204.43 317.65 Q206.009 318.572 207.89 319.042 Q209.771 319.512 211.821 319.512 Q215.395 319.512 217.256 318.102 Q219.137 316.691 219.137 314.002 Q219.137 311.519 217.388 310.127 Q215.658 308.717 212.555 308.717 L209.282 308.717 L209.282 305.594 L212.705 305.594 Q215.507 305.594 216.993 304.485 Q218.479 303.356 218.479 301.25 Q218.479 299.087 216.937 297.94 Q215.413 296.774 212.555 296.774 Q210.994 296.774 209.207 297.112 Q207.42 297.451 205.276 298.165 L205.276 294.78 Q207.439 294.178 209.32 293.877 Q211.219 293.576 212.893 293.576 Q217.219 293.576 219.739 295.551 Q222.259 297.507 222.259 300.855 Q222.259 303.187 220.924 304.805 Q219.589 306.403 217.125 307.024 Z" fill="#000000" fill-rule="nonzero" fill-opacity="1" /><path clip-path="url(#clip210)" d="M42.6863 908.718 L42.6863 878.672 L48.0971 878.672 L48.0971 902.289 L62.1653 902.289 L62.1653 879.659 L67.5762 879.659 L67.5762 902.289 L84.7954 902.289 L84.7954 878.099 L90.2063 878.099 L90.2063 908.718 L42.6863 908.718 Z" fill="#000000" fill-rule="nonzero" fill-opacity="1" /><path clip-path="url(#clip210)" d="M44.2459 839.046 L50.5161 839.046 Q48.7655 842.706 47.9062 845.952 Q47.0468 849.199 47.0468 852.223 Q47.0468 857.474 49.0838 860.339 Q51.1208 863.172 54.8766 863.172 Q58.0276 863.172 59.6509 861.294 Q61.2423 859.384 62.229 854.101 L63.0247 850.217 Q64.3933 843.024 67.8627 839.619 Q71.3001 836.181 77.0929 836.181 Q83.9997 836.181 87.5645 840.828 Q91.1293 845.443 91.1293 854.387 Q91.1293 857.761 90.3654 861.58 Q89.6015 865.368 88.1056 869.442 L81.4853 869.442 Q83.6814 865.527 84.7954 861.771 Q85.9094 858.015 85.9094 854.387 Q85.9094 848.881 83.7451 845.889 Q81.5808 842.897 77.5704 842.897 Q74.0692 842.897 72.0958 845.061 Q70.1225 847.194 69.1358 852.095 L68.3719 856.01 Q66.9396 863.204 63.8841 866.418 Q60.8285 869.633 55.3859 869.633 Q49.0838 869.633 45.4554 865.209 Q41.8269 860.753 41.8269 852.955 Q41.8269 849.613 42.4317 846.143 Q43.0364 842.674 44.2459 839.046 Z" fill="#000000" fill-rule="nonzero" fill-opacity="1" /><path clip-path="url(#clip210)" d="M44.2459 797.669 L50.5161 797.669 Q48.7655 801.329 47.9062 804.575 Q47.0468 807.822 47.0468 810.846 Q47.0468 816.097 49.0838 818.962 Q51.1208 821.795 54.8766 821.795 Q58.0276 821.795 59.6509 819.917 Q61.2423 818.007 62.229 812.723 L63.0247 808.84 Q64.3933 801.647 67.8627 798.241 Q71.3001 794.804 77.0929 794.804 Q83.9997 794.804 87.5645 799.451 Q91.1293 804.066 91.1293 813.01 Q91.1293 816.384 90.3654 820.203 Q89.6015 823.991 88.1056 828.065 L81.4853 828.065 Q83.6814 824.15 84.7954 820.394 Q85.9094 816.638 85.9094 813.01 Q85.9094 807.504 83.7451 804.512 Q81.5808 801.52 77.5704 801.52 Q74.0692 801.52 72.0958 803.684 Q70.1225 805.817 69.1358 810.718 L68.3719 814.633 Q66.9396 821.826 63.8841 825.041 Q60.8285 828.256 55.3859 828.256 Q49.0838 828.256 45.4554 823.832 Q41.8269 819.376 41.8269 811.578 Q41.8269 808.236 42.4317 804.766 Q43.0364 801.297 44.2459 797.669 Z" fill="#000000" fill-rule="nonzero" fill-opacity="1" /><path clip-path="url(#clip210)" d="M82.1218 783.537 L82.1218 776.821 L90.2063 776.821 L90.2063 783.537 L82.1218 783.537 M56.4999 783.537 L56.4999 776.821 L64.5843 776.821 L64.5843 783.537 L56.4999 783.537 Z" fill="#000000" fill-rule="nonzero" fill-opacity="1" /><path clip-path="url(#clip210)" d="M44.2459 713.609 L50.5161 713.609 Q48.7655 717.27 47.9062 720.516 Q47.0468 723.763 47.0468 726.786 Q47.0468 732.038 49.0838 734.903 Q51.1208 737.735 54.8766 737.735 Q58.0276 737.735 59.6509 735.858 Q61.2423 733.948 62.229 728.664 L63.0247 724.781 Q64.3933 717.588 67.8627 714.182 Q71.3001 710.745 77.0929 710.745 Q83.9997 710.745 87.5645 715.392 Q91.1293 720.007 91.1293 728.951 Q91.1293 732.325 90.3654 736.144 Q89.6015 739.932 88.1056 744.006 L81.4853 744.006 Q83.6814 740.091 84.7954 736.335 Q85.9094 732.579 85.9094 728.951 Q85.9094 723.444 83.7451 720.453 Q81.5808 717.461 77.5704 717.461 Q74.0692 717.461 72.0958 719.625 Q70.1225 721.758 69.1358 726.659 L68.3719 730.574 Q66.9396 737.767 63.8841 740.982 Q60.8285 744.197 55.3859 744.197 Q49.0838 744.197 45.4554 739.772 Q41.8269 735.316 41.8269 727.518 Q41.8269 724.176 42.4317 720.707 Q43.0364 717.238 44.2459 713.609 Z" fill="#000000" fill-rule="nonzero" fill-opacity="1" /><path clip-path="url(#clip210)" d="M54.5583 704.379 L54.5583 698.523 L82.3765 691.202 L54.5583 683.913 L54.5583 677.007 L82.3765 669.686 L54.5583 662.397 L54.5583 656.541 L90.2063 665.867 L90.2063 672.773 L60.9877 680.444 L90.2063 688.147 L90.2063 695.053 L54.5583 704.379 Z" fill="#000000" fill-rule="nonzero" fill-opacity="1" /><path clip-path="url(#clip210)" d="M70.9182 617.169 L73.7828 617.169 L73.7828 644.096 Q79.8302 643.714 83.013 640.467 Q86.1641 637.189 86.1641 631.364 Q86.1641 627.991 85.3365 624.84 Q84.509 621.657 82.8539 618.538 L88.3921 618.538 Q89.7289 621.689 90.4291 624.999 Q91.1293 628.309 91.1293 631.715 Q91.1293 640.245 86.1641 645.242 Q81.1988 650.207 72.7324 650.207 Q63.9796 650.207 58.8552 645.496 Q53.699 640.754 53.699 632.733 Q53.699 625.54 58.3459 621.37 Q62.9611 617.169 70.9182 617.169 M69.1995 623.025 Q64.3933 623.089 61.5288 625.731 Q58.6642 628.341 58.6642 632.669 Q58.6642 637.571 61.4333 640.531 Q64.2024 643.459 69.2313 643.905 L69.1995 623.025 Z" fill="#000000" fill-rule="nonzero" fill-opacity="1" /><path clip-path="url(#clip210)" d="M59.9692 584.099 L40.6811 584.099 L40.6811 578.243 L90.2063 578.243 L90.2063 584.099 L84.8591 584.099 Q88.0419 585.945 89.6015 588.778 Q91.1293 591.579 91.1293 595.526 Q91.1293 601.987 85.9731 606.061 Q80.8169 610.103 72.4141 610.103 Q64.0114 610.103 58.8552 606.061 Q53.699 601.987 53.699 595.526 Q53.699 591.579 55.2586 588.778 Q56.7863 585.945 59.9692 584.099 M72.4141 604.056 Q78.8753 604.056 82.5674 601.414 Q86.2277 598.74 86.2277 594.093 Q86.2277 589.446 82.5674 586.773 Q78.8753 584.099 72.4141 584.099 Q65.9529 584.099 62.2927 586.773 Q58.6006 589.446 58.6006 594.093 Q58.6006 598.74 62.2927 601.414 Q65.9529 604.056 72.4141 604.056 Z" fill="#000000" fill-rule="nonzero" fill-opacity="1" /><path clip-path="url(#clip210)" d="M70.9182 535.688 L73.7828 535.688 L73.7828 562.615 Q79.8302 562.233 83.013 558.986 Q86.1641 555.708 86.1641 549.883 Q86.1641 546.51 85.3365 543.359 Q84.509 540.176 82.8539 537.057 L88.3921 537.057 Q89.7289 540.208 90.4291 543.518 Q91.1293 546.828 91.1293 550.234 Q91.1293 558.764 86.1641 563.761 Q81.1988 568.726 72.7324 568.726 Q63.9796 568.726 58.8552 564.015 Q53.699 559.273 53.699 551.252 Q53.699 544.059 58.3459 539.889 Q62.9611 535.688 70.9182 535.688 M69.1995 541.544 Q64.3933 541.608 61.5288 544.25 Q58.6642 546.86 58.6642 551.188 Q58.6642 556.09 61.4333 559.05 Q64.2024 561.978 69.2313 562.424 L69.1995 541.544 Z" fill="#000000" fill-rule="nonzero" fill-opacity="1" /><path clip-path="url(#clip210)" d="M68.6902 496.443 L90.2063 496.443 L90.2063 502.3 L68.8812 502.3 Q63.8204 502.3 61.306 504.273 Q58.7915 506.247 58.7915 510.193 Q58.7915 514.936 61.8152 517.673 Q64.8389 520.41 70.0588 520.41 L90.2063 520.41 L90.2063 526.298 L54.5583 526.298 L54.5583 520.41 L60.0965 520.41 Q56.8818 518.31 55.2904 515.477 Q53.699 512.612 53.699 508.888 Q53.699 502.745 57.5184 499.594 Q61.306 496.443 68.6902 496.443 Z" fill="#000000" fill-rule="nonzero" fill-opacity="1" /><path clip-path="url(#clip210)" d="M82.1218 483.266 L82.1218 476.55 L87.5963 476.55 L97.7815 481.77 L97.7815 485.876 L87.5963 483.266 L82.1218 483.266 Z" fill="#000000" fill-rule="nonzero" fill-opacity="1" /><path clip-path="url(#clip210)" d="M44.4369 437.529 L54.5583 437.529 L54.5583 425.466 L59.1098 425.466 L59.1098 437.529 L78.4616 437.529 Q82.8221 437.529 84.0634 436.351 Q85.3047 435.142 85.3047 431.481 L85.3047 425.466 L90.2063 425.466 L90.2063 431.481 Q90.2063 438.261 87.6918 440.839 Q85.1455 443.417 78.4616 443.417 L59.1098 443.417 L59.1098 447.714 L54.5583 447.714 L54.5583 443.417 L44.4369 443.417 L44.4369 437.529 Z" fill="#000000" fill-rule="nonzero" fill-opacity="1" /><path clip-path="url(#clip210)" d="M54.5583 417.763 L54.5583 411.907 L90.2063 411.907 L90.2063 417.763 L54.5583 417.763 M40.6811 417.763 L40.6811 411.907 L48.0971 411.907 L48.0971 417.763 L40.6811 417.763 Z" fill="#000000" fill-rule="nonzero" fill-opacity="1" /><path clip-path="url(#clip210)" d="M61.4015 371.898 Q57.4547 369.702 55.5768 366.647 Q53.699 363.591 53.699 359.453 Q53.699 353.883 57.6139 350.86 Q61.4969 347.836 68.6902 347.836 L90.2063 347.836 L90.2063 353.724 L68.8812 353.724 Q63.7568 353.724 61.2741 355.538 Q58.7915 357.353 58.7915 361.077 Q58.7915 365.628 61.8152 368.27 Q64.8389 370.912 70.0588 370.912 L90.2063 370.912 L90.2063 376.8 L68.8812 376.8 Q63.7249 376.8 61.2741 378.614 Q58.7915 380.428 58.7915 384.216 Q58.7915 388.704 61.8471 391.346 Q64.8708 393.987 70.0588 393.987 L90.2063 393.987 L90.2063 399.876 L54.5583 399.876 L54.5583 393.987 L60.0965 393.987 Q56.8182 391.982 55.2586 389.181 Q53.699 386.38 53.699 382.529 Q53.699 378.646 55.6723 375.94 Q57.6457 373.203 61.4015 371.898 Z" fill="#000000" fill-rule="nonzero" fill-opacity="1" /><path clip-path="url(#clip210)" d="M70.9182 305.663 L73.7828 305.663 L73.7828 332.59 Q79.8302 332.208 83.013 328.962 Q86.1641 325.683 86.1641 319.859 Q86.1641 316.485 85.3365 313.334 Q84.509 310.151 82.8539 307.032 L88.3921 307.032 Q89.7289 310.183 90.4291 313.493 Q91.1293 316.803 91.1293 320.209 Q91.1293 328.739 86.1641 333.736 Q81.1988 338.701 72.7324 338.701 Q63.9796 338.701 58.8552 333.99 Q53.699 329.248 53.699 321.227 Q53.699 314.034 58.3459 309.864 Q62.9611 305.663 70.9182 305.663 M69.1995 311.52 Q64.3933 311.583 61.5288 314.225 Q58.6642 316.835 58.6642 321.164 Q58.6642 326.065 61.4333 329.025 Q64.2024 331.953 69.2313 332.399 L69.1995 311.52 Z" fill="#000000" fill-rule="nonzero" fill-opacity="1" /><path clip-path="url(#clip210)" d="M82.1218 294.555 L82.1218 287.839 L90.2063 287.839 L90.2063 294.555 L82.1218 294.555 M56.4999 294.555 L56.4999 287.839 L64.5843 287.839 L64.5843 294.555 L56.4999 294.555 Z" fill="#000000" fill-rule="nonzero" fill-opacity="1" /><path clip-path="url(#clip210)" d="M42.6863 273.198 L42.6863 247.958 L48.0971 247.958 L48.0971 267.31 L59.7464 267.31 Q59.2689 265.909 59.0461 264.509 Q58.7915 263.108 58.7915 261.708 Q58.7915 253.751 63.152 249.104 Q67.5125 244.457 74.9604 244.457 Q82.6311 244.457 86.8961 249.231 Q91.1293 254.005 91.1293 262.695 Q91.1293 265.686 90.6201 268.806 Q90.1108 271.893 89.0923 275.203 L82.6311 275.203 Q84.1907 272.339 84.9546 269.283 Q85.7185 266.228 85.7185 262.822 Q85.7185 257.316 82.8221 254.101 Q79.9257 250.886 74.9604 250.886 Q69.9952 250.886 67.0988 254.101 Q64.2024 257.316 64.2024 262.822 Q64.2024 265.4 64.7753 267.978 Q65.3482 270.524 66.5577 273.198 L42.6863 273.198 Z" fill="#000000" fill-rule="nonzero" fill-opacity="1" /><path clip-path="url(#clip210)" d="M46.9195 218.039 Q46.9195 223.004 51.8211 225.519 Q56.6908 228.001 66.494 228.001 Q76.2654 228.001 81.167 225.519 Q86.0367 223.004 86.0367 218.039 Q86.0367 213.042 81.167 210.559 Q76.2654 208.045 66.494 208.045 Q56.6908 208.045 51.8211 210.559 Q46.9195 213.042 46.9195 218.039 M41.8269 218.039 Q41.8269 210.05 48.1608 205.849 Q54.4628 201.616 66.494 201.616 Q78.4934 201.616 84.8273 205.849 Q91.1293 210.05 91.1293 218.039 Q91.1293 226.028 84.8273 230.261 Q78.4934 234.463 66.494 234.463 Q54.4628 234.463 48.1608 230.261 Q41.8269 226.028 41.8269 218.039 Z" fill="#000000" fill-rule="nonzero" fill-opacity="1" /><polyline clip-path="url(#clip212)" style="stroke:#009af9; stroke-linecap:round; stroke-linejoin:round; stroke-width:4; stroke-opacity:1; fill:none" points="350.696,571.683 370.842,167.947 390.989,185.035 411.135,179.549 431.281,193.156 451.427,163.147 471.573,188.282 491.719,168.165 511.865,167.771 532.011,162.582 552.158,166.327 572.304,173.21 592.45,197.056 612.596,158.345 632.742,168.696 652.888,184.23 673.034,179.422 693.18,223.985 713.327,187.284 733.473,182.096 753.619,226.272 773.765,208.38 793.911,208.272 814.057,197.969 834.203,162.536 854.349,182.852 874.496,177.793 894.642,195.05 914.788,165.66 934.934,193.55 955.08,173.427 975.226,179.868 995.372,210.735 1015.52,175.49 1035.66,167.432 1055.81,117.171 1075.96,151.087 1096.1,189.339 1116.25,172.644 1136.4,171.244 1156.54,188.772 1176.69,155.936 1196.83,176.91 1216.98,171.011 1237.13,157.044 1257.27,189.022 1277.42,124.916 1297.56,151.138 1317.71,155.283 1337.86,118.376 1358,160.812 1378.15,168.169 1398.29,167.32 1418.44,185.953 1438.59,178.804 1458.73,225.18 1478.88,157.757 1499.03,168.476 1519.17,173.704 1539.32,181.747 1559.46,152.316 1579.61,181.131 1599.76,166.428 1619.9,173.145 1640.05,170.629 1660.19,146.334 1680.34,172.445 1700.49,174.09 1720.63,175.914 1740.78,164.708 1760.93,162.797 1781.07,159.229 1801.22,153.507 1821.36,157.236 1841.51,168.832 1861.66,165.986 1881.8,157.327 1901.95,132.153 1922.09,166.333 1942.24,158.532 1962.39,160.237 1982.53,165.687 2002.68,161.743 2022.82,178.533 2042.97,182.257 2063.12,161.449 2083.26,143.527 2103.41,158.591 2123.56,145.799 2143.7,113.848 2163.85,176.024 2183.99,171.662 2204.14,192.579 2224.29,152.772 2244.43,161.371 2264.58,179.698 2284.72,186.14 2304.87,180.095 2325.02,159.042 2345.16,146.706 2365.31,198.3 2385.46,189.748 2405.6,169.684 2425.75,188.735 2445.89,153.608 2466.04,219.53 2486.19,187.685 2506.33,198.682 2526.48,210.937 2546.62,165.595 2566.77,114.744 2586.92,141.12 2607.06,169.85 2627.21,155.462 2647.35,162.877 2667.5,191.919 2687.65,138.905 2707.79,164.793 2727.94,194.473 2748.09,185.146 2768.23,194.936 2788.38,165.021 2808.52,178.386 2828.67,110.236 2848.82,130.453 2868.96,174.37 2889.11,175.441 2909.25,153.406 2929.4,170.187 2949.55,166.619 2969.69,171.026 2989.84,145.302 3009.99,129.689 "/>
</svg>
