<?xml version="1.0" encoding="utf-8"?>
<svg xmlns="http://www.w3.org/2000/svg" xmlns:xlink="http://www.w3.org/1999/xlink" width="800" height="300" viewBox="0 0 3200 1200">
<defs>
  <clipPath id="clip040">
    <rect x="0" y="0" width="3200" height="1200"/>
  </clipPath>
</defs>
<path clip-path="url(#clip040)" d="
M0 1200 L3200 1200 L3200 0 L0 0  Z
  " fill="#ffffff" fill-rule="evenodd" fill-opacity="1"/>
<defs>
  <clipPath id="clip041">
    <rect x="640" y="0" width="2241" height="1200"/>
  </clipPath>
</defs>
<path clip-path="url(#clip040)" d="
M270.918 1000.1 L3089.76 1000.1 L3089.76 110.236 L270.918 110.236  Z
  " fill="#ffffff" fill-rule="evenodd" fill-opacity="1"/>
<defs>
  <clipPath id="clip042">
    <rect x="270" y="110" width="2820" height="891"/>
  </clipPath>
</defs>
<polyline clip-path="url(#clip042)" style="stroke:#000000; stroke-linecap:round; stroke-linejoin:round; stroke-width:2; stroke-opacity:0.1; fill:none" points="
  340.699,1000.1 340.699,110.236 
  "/>
<polyline clip-path="url(#clip042)" style="stroke:#000000; stroke-linecap:round; stroke-linejoin:round; stroke-width:2; stroke-opacity:0.1; fill:none" points="
  840.565,1000.1 840.565,110.236 
  "/>
<polyline clip-path="url(#clip042)" style="stroke:#000000; stroke-linecap:round; stroke-linejoin:round; stroke-width:2; stroke-opacity:0.1; fill:none" points="
  1340.43,1000.1 1340.43,110.236 
  "/>
<polyline clip-path="url(#clip042)" style="stroke:#000000; stroke-linecap:round; stroke-linejoin:round; stroke-width:2; stroke-opacity:0.1; fill:none" points="
  1840.3,1000.1 1840.3,110.236 
  "/>
<polyline clip-path="url(#clip042)" style="stroke:#000000; stroke-linecap:round; stroke-linejoin:round; stroke-width:2; stroke-opacity:0.1; fill:none" points="
  2340.16,1000.1 2340.16,110.236 
  "/>
<polyline clip-path="url(#clip042)" style="stroke:#000000; stroke-linecap:round; stroke-linejoin:round; stroke-width:2; stroke-opacity:0.1; fill:none" points="
  2840.03,1000.1 2840.03,110.236 
  "/>
<polyline clip-path="url(#clip040)" style="stroke:#000000; stroke-linecap:round; stroke-linejoin:round; stroke-width:4; stroke-opacity:1; fill:none" points="
  270.918,1000.1 3089.76,1000.1 
  "/>
<polyline clip-path="url(#clip040)" style="stroke:#000000; stroke-linecap:round; stroke-linejoin:round; stroke-width:4; stroke-opacity:1; fill:none" points="
  340.699,1000.1 340.699,981.2 
  "/>
<polyline clip-path="url(#clip040)" style="stroke:#000000; stroke-linecap:round; stroke-linejoin:round; stroke-width:4; stroke-opacity:1; fill:none" points="
  840.565,1000.1 840.565,981.2 
  "/>
<polyline clip-path="url(#clip040)" style="stroke:#000000; stroke-linecap:round; stroke-linejoin:round; stroke-width:4; stroke-opacity:1; fill:none" points="
  1340.43,1000.1 1340.43,981.2 
  "/>
<polyline clip-path="url(#clip040)" style="stroke:#000000; stroke-linecap:round; stroke-linejoin:round; stroke-width:4; stroke-opacity:1; fill:none" points="
  1840.3,1000.1 1840.3,981.2 
  "/>
<polyline clip-path="url(#clip040)" style="stroke:#000000; stroke-linecap:round; stroke-linejoin:round; stroke-width:4; stroke-opacity:1; fill:none" points="
  2340.16,1000.1 2340.16,981.2 
  "/>
<polyline clip-path="url(#clip040)" style="stroke:#000000; stroke-linecap:round; stroke-linejoin:round; stroke-width:4; stroke-opacity:1; fill:none" points="
  2840.03,1000.1 2840.03,981.2 
  "/>
<path clip-path="url(#clip040)" d="M340.699 1037.42 Q337.088 1037.42 335.259 1040.98 Q333.454 1044.52 333.454 1051.65 Q333.454 1058.76 335.259 1062.32 Q337.088 1065.87 340.699 1065.87 Q344.333 1065.87 346.139 1062.32 Q347.967 1058.76 347.967 1051.65 Q347.967 1044.52 346.139 1040.98 Q344.333 1037.42 340.699 1037.42 M340.699 1033.71 Q346.509 1033.71 349.565 1038.32 Q352.643 1042.9 352.643 1051.65 Q352.643 1060.38 349.565 1064.99 Q346.509 1069.57 340.699 1069.57 Q334.889 1069.57 331.81 1064.99 Q328.755 1060.38 328.755 1051.65 Q328.755 1042.9 331.81 1038.32 Q334.889 1033.71 340.699 1033.71 Z" fill="#000000" fill-rule="evenodd" fill-opacity="1" /><path clip-path="url(#clip040)" d="M815.265 1034.34 L833.621 1034.34 L833.621 1038.27 L819.547 1038.27 L819.547 1046.75 Q820.565 1046.4 821.584 1046.24 Q822.602 1046.05 823.621 1046.05 Q829.408 1046.05 832.788 1049.22 Q836.167 1052.39 836.167 1057.81 Q836.167 1063.39 832.695 1066.49 Q829.223 1069.57 822.903 1069.57 Q820.727 1069.57 818.459 1069.2 Q816.214 1068.83 813.806 1068.09 L813.806 1063.39 Q815.889 1064.52 818.112 1065.08 Q820.334 1065.63 822.811 1065.63 Q826.815 1065.63 829.153 1063.53 Q831.491 1061.42 831.491 1057.81 Q831.491 1054.2 829.153 1052.09 Q826.815 1049.99 822.811 1049.99 Q820.936 1049.99 819.061 1050.4 Q817.209 1050.82 815.265 1051.7 L815.265 1034.34 Z" fill="#000000" fill-rule="evenodd" fill-opacity="1" /><path clip-path="url(#clip040)" d="M855.38 1037.42 Q851.769 1037.42 849.94 1040.98 Q848.135 1044.52 848.135 1051.65 Q848.135 1058.76 849.94 1062.32 Q851.769 1065.87 855.38 1065.87 Q859.014 1065.87 860.82 1062.32 Q862.649 1058.76 862.649 1051.65 Q862.649 1044.52 860.82 1040.98 Q859.014 1037.42 855.38 1037.42 M855.38 1033.71 Q861.19 1033.71 864.246 1038.32 Q867.324 1042.9 867.324 1051.65 Q867.324 1060.38 864.246 1064.99 Q861.19 1069.57 855.38 1069.57 Q849.57 1069.57 846.491 1064.99 Q843.436 1060.38 843.436 1051.65 Q843.436 1042.9 846.491 1038.32 Q849.57 1033.71 855.38 1033.71 Z" fill="#000000" fill-rule="evenodd" fill-opacity="1" /><path clip-path="url(#clip040)" d="M1300.04 1064.96 L1307.68 1064.96 L1307.68 1038.6 L1299.37 1040.26 L1299.37 1036 L1307.63 1034.34 L1312.31 1034.34 L1312.31 1064.96 L1319.95 1064.96 L1319.95 1068.9 L1300.04 1068.9 L1300.04 1064.96 Z" fill="#000000" fill-rule="evenodd" fill-opacity="1" /><path clip-path="url(#clip040)" d="M1339.39 1037.42 Q1335.78 1037.42 1333.95 1040.98 Q1332.14 1044.52 1332.14 1051.65 Q1332.14 1058.76 1333.95 1062.32 Q1335.78 1065.87 1339.39 1065.87 Q1343.02 1065.87 1344.83 1062.32 Q1346.66 1058.76 1346.66 1051.65 Q1346.66 1044.52 1344.83 1040.98 Q1343.02 1037.42 1339.39 1037.42 M1339.39 1033.71 Q1345.2 1033.71 1348.26 1038.32 Q1351.33 1042.9 1351.33 1051.65 Q1351.33 1060.38 1348.26 1064.99 Q1345.2 1069.57 1339.39 1069.57 Q1333.58 1069.57 1330.5 1064.99 Q1327.45 1060.38 1327.45 1051.65 Q1327.45 1042.9 1330.5 1038.32 Q1333.58 1033.71 1339.39 1033.71 Z" fill="#000000" fill-rule="evenodd" fill-opacity="1" /><path clip-path="url(#clip040)" d="M1369.55 1037.42 Q1365.94 1037.42 1364.11 1040.98 Q1362.31 1044.52 1362.31 1051.65 Q1362.31 1058.76 1364.11 1062.32 Q1365.94 1065.87 1369.55 1065.87 Q1373.19 1065.87 1374.99 1062.32 Q1376.82 1058.76 1376.82 1051.65 Q1376.82 1044.52 1374.99 1040.98 Q1373.19 1037.42 1369.55 1037.42 M1369.55 1033.71 Q1375.36 1033.71 1378.42 1038.32 Q1381.5 1042.9 1381.5 1051.65 Q1381.5 1060.38 1378.42 1064.99 Q1375.36 1069.57 1369.55 1069.57 Q1363.74 1069.57 1360.66 1064.99 Q1357.61 1060.38 1357.61 1051.65 Q1357.61 1042.9 1360.66 1038.32 Q1363.74 1033.71 1369.55 1033.71 Z" fill="#000000" fill-rule="evenodd" fill-opacity="1" /><path clip-path="url(#clip040)" d="M1799.9 1064.96 L1807.54 1064.96 L1807.54 1038.6 L1799.23 1040.26 L1799.23 1036 L1807.5 1034.34 L1812.17 1034.34 L1812.17 1064.96 L1819.81 1064.96 L1819.81 1068.9 L1799.9 1068.9 L1799.9 1064.96 Z" fill="#000000" fill-rule="evenodd" fill-opacity="1" /><path clip-path="url(#clip040)" d="M1829.3 1034.34 L1847.66 1034.34 L1847.66 1038.27 L1833.59 1038.27 L1833.59 1046.75 Q1834.6 1046.4 1835.62 1046.24 Q1836.64 1046.05 1837.66 1046.05 Q1843.45 1046.05 1846.83 1049.22 Q1850.21 1052.39 1850.21 1057.81 Q1850.21 1063.39 1846.73 1066.49 Q1843.26 1069.57 1836.94 1069.57 Q1834.77 1069.57 1832.5 1069.2 Q1830.25 1068.83 1827.84 1068.09 L1827.84 1063.39 Q1829.93 1064.52 1832.15 1065.08 Q1834.37 1065.63 1836.85 1065.63 Q1840.85 1065.63 1843.19 1063.53 Q1845.53 1061.42 1845.53 1057.81 Q1845.53 1054.2 1843.19 1052.09 Q1840.85 1049.99 1836.85 1049.99 Q1834.97 1049.99 1833.1 1050.4 Q1831.25 1050.82 1829.3 1051.7 L1829.3 1034.34 Z" fill="#000000" fill-rule="evenodd" fill-opacity="1" /><path clip-path="url(#clip040)" d="M1869.42 1037.42 Q1865.81 1037.42 1863.98 1040.98 Q1862.17 1044.52 1862.17 1051.65 Q1862.17 1058.76 1863.98 1062.32 Q1865.81 1065.87 1869.42 1065.87 Q1873.05 1065.87 1874.86 1062.32 Q1876.69 1058.76 1876.69 1051.65 Q1876.69 1044.52 1874.86 1040.98 Q1873.05 1037.42 1869.42 1037.42 M1869.42 1033.71 Q1875.23 1033.71 1878.28 1038.32 Q1881.36 1042.9 1881.36 1051.65 Q1881.36 1060.38 1878.28 1064.99 Q1875.23 1069.57 1869.42 1069.57 Q1863.61 1069.57 1860.53 1064.99 Q1857.47 1060.38 1857.47 1051.65 Q1857.47 1042.9 1860.53 1038.32 Q1863.61 1033.71 1869.42 1033.71 Z" fill="#000000" fill-rule="evenodd" fill-opacity="1" /><path clip-path="url(#clip040)" d="M2303.86 1064.96 L2320.18 1064.96 L2320.18 1068.9 L2298.23 1068.9 L2298.23 1064.96 Q2300.89 1062.21 2305.48 1057.58 Q2310.08 1052.93 2311.26 1051.58 Q2313.51 1049.06 2314.39 1047.32 Q2315.29 1045.56 2315.29 1043.87 Q2315.29 1041.12 2313.35 1039.38 Q2311.43 1037.65 2308.32 1037.65 Q2306.13 1037.65 2303.67 1038.41 Q2301.24 1039.18 2298.46 1040.73 L2298.46 1036 Q2301.29 1034.87 2303.74 1034.29 Q2306.19 1033.71 2308.23 1033.71 Q2313.6 1033.71 2316.8 1036.4 Q2319.99 1039.08 2319.99 1043.57 Q2319.99 1045.7 2319.18 1047.62 Q2318.39 1049.52 2316.29 1052.12 Q2315.71 1052.79 2312.61 1056 Q2309.5 1059.2 2303.86 1064.96 Z" fill="#000000" fill-rule="evenodd" fill-opacity="1" /><path clip-path="url(#clip040)" d="M2339.99 1037.42 Q2336.38 1037.42 2334.55 1040.98 Q2332.75 1044.52 2332.75 1051.65 Q2332.75 1058.76 2334.55 1062.32 Q2336.38 1065.87 2339.99 1065.87 Q2343.62 1065.87 2345.43 1062.32 Q2347.26 1058.76 2347.26 1051.65 Q2347.26 1044.52 2345.43 1040.98 Q2343.62 1037.42 2339.99 1037.42 M2339.99 1033.71 Q2345.8 1033.71 2348.86 1038.32 Q2351.94 1042.9 2351.94 1051.65 Q2351.94 1060.38 2348.86 1064.99 Q2345.8 1069.57 2339.99 1069.57 Q2334.18 1069.57 2331.1 1064.99 Q2328.05 1060.38 2328.05 1051.65 Q2328.05 1042.9 2331.1 1038.32 Q2334.18 1033.71 2339.99 1033.71 Z" fill="#000000" fill-rule="evenodd" fill-opacity="1" /><path clip-path="url(#clip040)" d="M2370.15 1037.42 Q2366.54 1037.42 2364.71 1040.98 Q2362.91 1044.52 2362.91 1051.65 Q2362.91 1058.76 2364.71 1062.32 Q2366.54 1065.87 2370.15 1065.87 Q2373.79 1065.87 2375.59 1062.32 Q2377.42 1058.76 2377.42 1051.65 Q2377.42 1044.52 2375.59 1040.98 Q2373.79 1037.42 2370.15 1037.42 M2370.15 1033.71 Q2375.96 1033.71 2379.02 1038.32 Q2382.1 1042.9 2382.1 1051.65 Q2382.1 1060.38 2379.02 1064.99 Q2375.96 1069.57 2370.15 1069.57 Q2364.34 1069.57 2361.26 1064.99 Q2358.21 1060.38 2358.21 1051.65 Q2358.21 1042.9 2361.26 1038.32 Q2364.34 1033.71 2370.15 1033.71 Z" fill="#000000" fill-rule="evenodd" fill-opacity="1" /><path clip-path="url(#clip040)" d="M2803.72 1064.96 L2820.04 1064.96 L2820.04 1068.9 L2798.1 1068.9 L2798.1 1064.96 Q2800.76 1062.21 2805.34 1057.58 Q2809.95 1052.93 2811.13 1051.58 Q2813.38 1049.06 2814.26 1047.32 Q2815.16 1045.56 2815.16 1043.87 Q2815.16 1041.12 2813.21 1039.38 Q2811.29 1037.65 2808.19 1037.65 Q2805.99 1037.65 2803.54 1038.41 Q2801.11 1039.18 2798.33 1040.73 L2798.33 1036 Q2801.15 1034.87 2803.61 1034.29 Q2806.06 1033.71 2808.1 1033.71 Q2813.47 1033.71 2816.66 1036.4 Q2819.86 1039.08 2819.86 1043.57 Q2819.86 1045.7 2819.05 1047.62 Q2818.26 1049.52 2816.15 1052.12 Q2815.57 1052.79 2812.47 1056 Q2809.37 1059.2 2803.72 1064.96 Z" fill="#000000" fill-rule="evenodd" fill-opacity="1" /><path clip-path="url(#clip040)" d="M2829.9 1034.34 L2848.26 1034.34 L2848.26 1038.27 L2834.19 1038.27 L2834.19 1046.75 Q2835.2 1046.4 2836.22 1046.24 Q2837.24 1046.05 2838.26 1046.05 Q2844.05 1046.05 2847.43 1049.22 Q2850.81 1052.39 2850.81 1057.81 Q2850.81 1063.39 2847.33 1066.49 Q2843.86 1069.57 2837.54 1069.57 Q2835.37 1069.57 2833.1 1069.2 Q2830.85 1068.83 2828.44 1068.09 L2828.44 1063.39 Q2830.53 1064.52 2832.75 1065.08 Q2834.97 1065.63 2837.45 1065.63 Q2841.45 1065.63 2843.79 1063.53 Q2846.13 1061.42 2846.13 1057.81 Q2846.13 1054.2 2843.79 1052.09 Q2841.45 1049.99 2837.45 1049.99 Q2835.57 1049.99 2833.7 1050.4 Q2831.85 1050.82 2829.9 1051.7 L2829.9 1034.34 Z" fill="#000000" fill-rule="evenodd" fill-opacity="1" /><path clip-path="url(#clip040)" d="M2870.02 1037.42 Q2866.41 1037.42 2864.58 1040.98 Q2862.77 1044.52 2862.77 1051.65 Q2862.77 1058.76 2864.58 1062.32 Q2866.41 1065.87 2870.02 1065.87 Q2873.65 1065.87 2875.46 1062.32 Q2877.29 1058.76 2877.29 1051.65 Q2877.29 1044.52 2875.46 1040.98 Q2873.65 1037.42 2870.02 1037.42 M2870.02 1033.71 Q2875.83 1033.71 2878.88 1038.32 Q2881.96 1042.9 2881.96 1051.65 Q2881.96 1060.38 2878.88 1064.99 Q2875.83 1069.57 2870.02 1069.57 Q2864.21 1069.57 2861.13 1064.99 Q2858.07 1060.38 2858.07 1051.65 Q2858.07 1042.9 2861.13 1038.32 Q2864.21 1033.71 2870.02 1033.71 Z" fill="#000000" fill-rule="evenodd" fill-opacity="1" /><path clip-path="url(#clip040)" d="M1556.64 1109.44 L1563.07 1109.44 L1563.07 1151.55 L1586.21 1151.55 L1586.21 1156.96 L1556.64 1156.96 L1556.64 1109.44 Z" fill="#000000" fill-rule="evenodd" fill-opacity="1" /><path clip-path="url(#clip040)" d="M1592.7 1121.31 L1598.56 1121.31 L1598.56 1156.96 L1592.7 1156.96 L1592.7 1121.31 M1592.7 1107.44 L1598.56 1107.44 L1598.56 1114.85 L1592.7 1114.85 L1592.7 1107.44 Z" fill="#000000" fill-rule="evenodd" fill-opacity="1" /><path clip-path="url(#clip040)" d="M1640.44 1135.45 L1640.44 1156.96 L1634.59 1156.96 L1634.59 1135.64 Q1634.59 1130.58 1632.61 1128.06 Q1630.64 1125.55 1626.69 1125.55 Q1621.95 1125.55 1619.21 1128.57 Q1616.48 1131.59 1616.48 1136.81 L1616.48 1156.96 L1610.59 1156.96 L1610.59 1121.31 L1616.48 1121.31 L1616.48 1126.85 Q1618.58 1123.64 1621.41 1122.05 Q1624.27 1120.45 1628 1120.45 Q1634.14 1120.45 1637.29 1124.27 Q1640.44 1128.06 1640.44 1135.45 Z" fill="#000000" fill-rule="evenodd" fill-opacity="1" /><path clip-path="url(#clip040)" d="M1682.62 1137.67 L1682.62 1140.54 L1655.69 1140.54 Q1656.07 1146.59 1659.32 1149.77 Q1662.6 1152.92 1668.42 1152.92 Q1671.79 1152.92 1674.95 1152.09 Q1678.13 1151.26 1681.25 1149.61 L1681.25 1155.15 Q1678.1 1156.48 1674.79 1157.18 Q1671.48 1157.88 1668.07 1157.88 Q1659.54 1157.88 1654.54 1152.92 Q1649.58 1147.95 1649.58 1139.49 Q1649.58 1130.74 1654.29 1125.61 Q1659.03 1120.45 1667.05 1120.45 Q1674.25 1120.45 1678.42 1125.1 Q1682.62 1129.72 1682.62 1137.67 M1676.76 1135.95 Q1676.7 1131.15 1674.05 1128.28 Q1671.44 1125.42 1667.12 1125.42 Q1662.21 1125.42 1659.25 1128.19 Q1656.33 1130.96 1655.88 1135.99 L1676.76 1135.95 Z" fill="#000000" fill-rule="evenodd" fill-opacity="1" /><path clip-path="url(#clip040)" d="M1708.43 1139.04 Q1701.33 1139.04 1698.59 1140.67 Q1695.86 1142.29 1695.86 1146.2 Q1695.86 1149.32 1697.89 1151.17 Q1699.96 1152.98 1703.5 1152.98 Q1708.37 1152.98 1711.29 1149.55 Q1714.25 1146.08 1714.25 1140.35 L1714.25 1139.04 L1708.43 1139.04 M1720.11 1136.62 L1720.11 1156.96 L1714.25 1156.96 L1714.25 1151.55 Q1712.25 1154.8 1709.26 1156.36 Q1706.27 1157.88 1701.94 1157.88 Q1696.46 1157.88 1693.22 1154.83 Q1690 1151.74 1690 1146.59 Q1690 1140.57 1694.01 1137.51 Q1698.05 1134.46 1706.04 1134.46 L1714.25 1134.46 L1714.25 1133.89 Q1714.25 1129.84 1711.58 1127.65 Q1708.94 1125.42 1704.13 1125.42 Q1701.08 1125.42 1698.18 1126.15 Q1695.28 1126.88 1692.61 1128.35 L1692.61 1122.94 Q1695.83 1121.7 1698.85 1121.09 Q1701.87 1120.45 1704.74 1120.45 Q1712.47 1120.45 1716.29 1124.46 Q1720.11 1128.48 1720.11 1136.62 Z" fill="#000000" fill-rule="evenodd" fill-opacity="1" /><path clip-path="url(#clip040)" d="M1755.63 1138.72 Q1755.63 1132.36 1752.99 1128.86 Q1750.38 1125.36 1745.64 1125.36 Q1740.93 1125.36 1738.28 1128.86 Q1735.67 1132.36 1735.67 1138.72 Q1735.67 1145.06 1738.28 1148.56 Q1740.93 1152.06 1745.64 1152.06 Q1750.38 1152.06 1752.99 1148.56 Q1755.63 1145.06 1755.63 1138.72 M1761.49 1152.54 Q1761.49 1161.64 1757.45 1166.06 Q1753.4 1170.52 1745.06 1170.52 Q1741.98 1170.52 1739.24 1170.04 Q1736.5 1169.6 1733.92 1168.64 L1733.92 1162.95 Q1736.5 1164.35 1739.02 1165.01 Q1741.53 1165.68 1744.14 1165.68 Q1749.9 1165.68 1752.77 1162.66 Q1755.63 1159.67 1755.63 1153.59 L1755.63 1150.69 Q1753.82 1153.84 1750.98 1155.4 Q1748.15 1156.96 1744.2 1156.96 Q1737.65 1156.96 1733.64 1151.96 Q1729.63 1146.97 1729.63 1138.72 Q1729.63 1130.45 1733.64 1125.45 Q1737.65 1120.45 1744.2 1120.45 Q1748.15 1120.45 1750.98 1122.01 Q1753.82 1123.57 1755.63 1126.72 L1755.63 1121.31 L1761.49 1121.31 L1761.49 1152.54 Z" fill="#000000" fill-rule="evenodd" fill-opacity="1" /><path clip-path="url(#clip040)" d="M1804.04 1137.67 L1804.04 1140.54 L1777.12 1140.54 Q1777.5 1146.59 1780.74 1149.77 Q1784.02 1152.92 1789.85 1152.92 Q1793.22 1152.92 1796.37 1152.09 Q1799.55 1151.26 1802.67 1149.61 L1802.67 1155.15 Q1799.52 1156.48 1796.21 1157.18 Q1792.9 1157.88 1789.5 1157.88 Q1780.97 1157.88 1775.97 1152.92 Q1771 1147.95 1771 1139.49 Q1771 1130.74 1775.71 1125.61 Q1780.46 1120.45 1788.48 1120.45 Q1795.67 1120.45 1799.84 1125.1 Q1804.04 1129.72 1804.04 1137.67 M1798.19 1135.95 Q1798.12 1131.15 1795.48 1128.28 Q1792.87 1125.42 1788.54 1125.42 Q1783.64 1125.42 1780.68 1128.19 Q1777.75 1130.96 1777.31 1135.99 L1798.19 1135.95 Z" fill="#000000" fill-rule="evenodd" fill-opacity="1" /><polyline clip-path="url(#clip042)" style="stroke:#000000; stroke-linecap:round; stroke-linejoin:round; stroke-width:2; stroke-opacity:0.1; fill:none" points="
  270.918,1000.1 3089.76,1000.1 
  "/>
<polyline clip-path="url(#clip042)" style="stroke:#000000; stroke-linecap:round; stroke-linejoin:round; stroke-width:2; stroke-opacity:0.1; fill:none" points="
  270.918,657.63 3089.76,657.63 
  "/>
<polyline clip-path="url(#clip042)" style="stroke:#000000; stroke-linecap:round; stroke-linejoin:round; stroke-width:2; stroke-opacity:0.1; fill:none" points="
  270.918,315.161 3089.76,315.161 
  "/>
<polyline clip-path="url(#clip040)" style="stroke:#000000; stroke-linecap:round; stroke-linejoin:round; stroke-width:4; stroke-opacity:1; fill:none" points="
  270.918,1000.1 270.918,110.236 
  "/>
<polyline clip-path="url(#clip040)" style="stroke:#000000; stroke-linecap:round; stroke-linejoin:round; stroke-width:4; stroke-opacity:1; fill:none" points="
  270.918,1000.1 289.815,1000.1 
  "/>
<polyline clip-path="url(#clip040)" style="stroke:#000000; stroke-linecap:round; stroke-linejoin:round; stroke-width:4; stroke-opacity:1; fill:none" points="
  270.918,657.63 289.815,657.63 
  "/>
<polyline clip-path="url(#clip040)" style="stroke:#000000; stroke-linecap:round; stroke-linejoin:round; stroke-width:4; stroke-opacity:1; fill:none" points="
  270.918,315.161 289.815,315.161 
  "/>
<path clip-path="url(#clip040)" d="M154.902 1019.89 L162.54 1019.89 L162.54 993.525 L154.23 995.191 L154.23 990.932 L162.494 989.265 L167.17 989.265 L167.17 1019.89 L174.809 1019.89 L174.809 1023.83 L154.902 1023.83 L154.902 1019.89 Z" fill="#000000" fill-rule="evenodd" fill-opacity="1" /><path clip-path="url(#clip040)" d="M194.253 992.344 Q190.642 992.344 188.813 995.909 Q187.008 999.45 187.008 1006.58 Q187.008 1013.69 188.813 1017.25 Q190.642 1020.79 194.253 1020.79 Q197.887 1020.79 199.693 1017.25 Q201.522 1013.69 201.522 1006.58 Q201.522 999.45 199.693 995.909 Q197.887 992.344 194.253 992.344 M194.253 988.64 Q200.063 988.64 203.119 993.247 Q206.198 997.83 206.198 1006.58 Q206.198 1015.31 203.119 1019.91 Q200.063 1024.5 194.253 1024.5 Q188.443 1024.5 185.364 1019.91 Q182.309 1015.31 182.309 1006.58 Q182.309 997.83 185.364 993.247 Q188.443 988.64 194.253 988.64 Z" fill="#000000" fill-rule="evenodd" fill-opacity="1" /><path clip-path="url(#clip040)" d="M206.743 993.218 L212.95 993.218 L212.95 971.796 L206.198 973.15 L206.198 969.689 L212.912 968.335 L216.711 968.335 L216.711 993.218 L222.918 993.218 L222.918 996.415 L206.743 996.415 L206.743 993.218 Z" fill="#000000" fill-rule="evenodd" fill-opacity="1" /><path clip-path="url(#clip040)" d="M153.792 677.422 L161.431 677.422 L161.431 651.056 L153.121 652.723 L153.121 648.464 L161.384 646.797 L166.06 646.797 L166.06 677.422 L173.699 677.422 L173.699 681.357 L153.792 681.357 L153.792 677.422 Z" fill="#000000" fill-rule="evenodd" fill-opacity="1" /><path clip-path="url(#clip040)" d="M193.143 649.876 Q189.532 649.876 187.704 653.441 Q185.898 656.982 185.898 664.112 Q185.898 671.218 187.704 674.783 Q189.532 678.325 193.143 678.325 Q196.778 678.325 198.583 674.783 Q200.412 671.218 200.412 664.112 Q200.412 656.982 198.583 653.441 Q196.778 649.876 193.143 649.876 M193.143 646.172 Q198.954 646.172 202.009 650.779 Q205.088 655.362 205.088 664.112 Q205.088 672.839 202.009 677.445 Q198.954 682.028 193.143 682.028 Q187.333 682.028 184.255 677.445 Q181.199 672.839 181.199 664.112 Q181.199 655.362 184.255 650.779 Q187.333 646.172 193.143 646.172 Z" fill="#000000" fill-rule="evenodd" fill-opacity="1" /><path clip-path="url(#clip040)" d="M209.658 650.749 L222.918 650.749 L222.918 653.947 L205.088 653.947 L205.088 650.749 Q207.251 648.511 210.975 644.75 Q214.717 640.969 215.677 639.878 Q217.501 637.828 218.216 636.418 Q218.949 634.988 218.949 633.616 Q218.949 631.377 217.369 629.967 Q215.808 628.556 213.288 628.556 Q211.501 628.556 209.508 629.177 Q207.533 629.798 205.276 631.058 L205.276 627.221 Q207.57 626.299 209.564 625.829 Q211.558 625.359 213.213 625.359 Q217.576 625.359 220.172 627.541 Q222.767 629.722 222.767 633.371 Q222.767 635.101 222.109 636.662 Q221.469 638.205 219.758 640.311 Q219.288 640.857 216.767 643.471 Q214.247 646.066 209.658 650.749 Z" fill="#000000" fill-rule="evenodd" fill-opacity="1" /><path clip-path="url(#clip040)" d="M153.134 334.954 L160.772 334.954 L160.772 308.588 L152.462 310.255 L152.462 305.996 L160.726 304.329 L165.402 304.329 L165.402 334.954 L173.041 334.954 L173.041 338.889 L153.134 338.889 L153.134 334.954 Z" fill="#000000" fill-rule="evenodd" fill-opacity="1" /><path clip-path="url(#clip040)" d="M192.485 307.408 Q188.874 307.408 187.045 310.972 Q185.24 314.514 185.24 321.644 Q185.24 328.75 187.045 332.315 Q188.874 335.857 192.485 335.857 Q196.119 335.857 197.925 332.315 Q199.754 328.75 199.754 321.644 Q199.754 314.514 197.925 310.972 Q196.119 307.408 192.485 307.408 M192.485 303.704 Q198.295 303.704 201.351 308.31 Q204.43 312.894 204.43 321.644 Q204.43 330.37 201.351 334.977 Q198.295 339.56 192.485 339.56 Q186.675 339.56 183.596 334.977 Q180.541 330.37 180.541 321.644 Q180.541 312.894 183.596 308.31 Q186.675 303.704 192.485 303.704 Z" fill="#000000" fill-rule="evenodd" fill-opacity="1" /><path clip-path="url(#clip040)" d="M217.125 296.338 Q219.852 296.921 221.375 298.764 Q222.918 300.608 222.918 303.316 Q222.918 307.472 220.059 309.748 Q217.2 312.024 211.934 312.024 Q210.166 312.024 208.285 311.667 Q206.423 311.328 204.43 310.632 L204.43 306.965 Q206.009 307.886 207.89 308.356 Q209.771 308.827 211.821 308.827 Q215.395 308.827 217.256 307.416 Q219.137 306.005 219.137 303.316 Q219.137 300.833 217.388 299.442 Q215.658 298.031 212.555 298.031 L209.282 298.031 L209.282 294.909 L212.705 294.909 Q215.507 294.909 216.993 293.799 Q218.479 292.671 218.479 290.564 Q218.479 288.401 216.937 287.254 Q215.413 286.088 212.555 286.088 Q210.994 286.088 209.207 286.427 Q207.42 286.765 205.276 287.48 L205.276 284.094 Q207.439 283.493 209.32 283.192 Q211.219 282.891 212.893 282.891 Q217.219 282.891 219.739 284.866 Q222.259 286.822 222.259 290.169 Q222.259 292.501 220.924 294.119 Q219.589 295.718 217.125 296.338 Z" fill="#000000" fill-rule="evenodd" fill-opacity="1" /><path clip-path="url(#clip040)" d="M42.6863 887.139 L42.6863 857.092 L48.0971 857.092 L48.0971 880.709 L62.1653 880.709 L62.1653 858.079 L67.5762 858.079 L67.5762 880.709 L84.7954 880.709 L84.7954 856.52 L90.2063 856.52 L90.2063 887.139 L42.6863 887.139 Z" fill="#000000" fill-rule="evenodd" fill-opacity="1" /><path clip-path="url(#clip040)" d="M44.2459 817.466 L50.5161 817.466 Q48.7655 821.126 47.9062 824.373 Q47.0468 827.619 47.0468 830.643 Q47.0468 835.895 49.0838 838.759 Q51.1208 841.592 54.8766 841.592 Q58.0276 841.592 59.6509 839.714 Q61.2423 837.804 62.229 832.521 L63.0247 828.638 Q64.3933 821.444 67.8627 818.039 Q71.3001 814.601 77.0929 814.601 Q83.9997 814.601 87.5645 819.248 Q91.1293 823.863 91.1293 832.807 Q91.1293 836.181 90.3654 840.001 Q89.6015 843.788 88.1056 847.862 L81.4853 847.862 Q83.6814 843.947 84.7954 840.191 Q85.9094 836.436 85.9094 832.807 Q85.9094 827.301 83.7451 824.309 Q81.5808 821.317 77.5704 821.317 Q74.0692 821.317 72.0958 823.482 Q70.1225 825.614 69.1358 830.516 L68.3719 834.431 Q66.9396 841.624 63.8841 844.838 Q60.8285 848.053 55.3859 848.053 Q49.0838 848.053 45.4554 843.629 Q41.8269 839.173 41.8269 831.375 Q41.8269 828.033 42.4317 824.564 Q43.0364 821.094 44.2459 817.466 Z" fill="#000000" fill-rule="evenodd" fill-opacity="1" /><path clip-path="url(#clip040)" d="M44.2459 776.089 L50.5161 776.089 Q48.7655 779.749 47.9062 782.996 Q47.0468 786.242 47.0468 789.266 Q47.0468 794.518 49.0838 797.382 Q51.1208 800.215 54.8766 800.215 Q58.0276 800.215 59.6509 798.337 Q61.2423 796.427 62.229 791.144 L63.0247 787.261 Q64.3933 780.067 67.8627 776.662 Q71.3001 773.224 77.0929 773.224 Q83.9997 773.224 87.5645 777.871 Q91.1293 782.486 91.1293 791.43 Q91.1293 794.804 90.3654 798.623 Q89.6015 802.411 88.1056 806.485 L81.4853 806.485 Q83.6814 802.57 84.7954 798.814 Q85.9094 795.059 85.9094 791.43 Q85.9094 785.924 83.7451 782.932 Q81.5808 779.94 77.5704 779.94 Q74.0692 779.94 72.0958 782.104 Q70.1225 784.237 69.1358 789.139 L68.3719 793.053 Q66.9396 800.247 63.8841 803.461 Q60.8285 806.676 55.3859 806.676 Q49.0838 806.676 45.4554 802.252 Q41.8269 797.796 41.8269 789.998 Q41.8269 786.656 42.4317 783.187 Q43.0364 779.717 44.2459 776.089 Z" fill="#000000" fill-rule="evenodd" fill-opacity="1" /><path clip-path="url(#clip040)" d="M82.1218 761.957 L82.1218 755.241 L90.2063 755.241 L90.2063 761.957 L82.1218 761.957 M56.4999 761.957 L56.4999 755.241 L64.5843 755.241 L64.5843 761.957 L56.4999 761.957 Z" fill="#000000" fill-rule="evenodd" fill-opacity="1" /><path clip-path="url(#clip040)" d="M44.2459 692.03 L50.5161 692.03 Q48.7655 695.69 47.9062 698.936 Q47.0468 702.183 47.0468 705.207 Q47.0468 710.458 49.0838 713.323 Q51.1208 716.156 54.8766 716.156 Q58.0276 716.156 59.6509 714.278 Q61.2423 712.368 62.229 707.085 L63.0247 703.201 Q64.3933 696.008 67.8627 692.603 Q71.3001 689.165 77.0929 689.165 Q83.9997 689.165 87.5645 693.812 Q91.1293 698.427 91.1293 707.371 Q91.1293 710.745 90.3654 714.564 Q89.6015 718.352 88.1056 722.426 L81.4853 722.426 Q83.6814 718.511 84.7954 714.755 Q85.9094 710.999 85.9094 707.371 Q85.9094 701.865 83.7451 698.873 Q81.5808 695.881 77.5704 695.881 Q74.0692 695.881 72.0958 698.045 Q70.1225 700.178 69.1358 705.079 L68.3719 708.994 Q66.9396 716.188 63.8841 719.402 Q60.8285 722.617 55.3859 722.617 Q49.0838 722.617 45.4554 718.193 Q41.8269 713.737 41.8269 705.939 Q41.8269 702.597 42.4317 699.127 Q43.0364 695.658 44.2459 692.03 Z" fill="#000000" fill-rule="evenodd" fill-opacity="1" /><path clip-path="url(#clip040)" d="M54.5583 682.799 L54.5583 676.943 L82.3765 669.622 L54.5583 662.334 L54.5583 655.427 L82.3765 648.106 L54.5583 640.818 L54.5583 634.961 L90.2063 644.287 L90.2063 651.194 L60.9877 658.864 L90.2063 666.567 L90.2063 673.474 L54.5583 682.799 Z" fill="#000000" fill-rule="evenodd" fill-opacity="1" /><path clip-path="url(#clip040)" d="M70.9182 595.589 L73.7828 595.589 L73.7828 622.516 Q79.8302 622.134 83.013 618.888 Q86.1641 615.609 86.1641 609.785 Q86.1641 606.411 85.3365 603.26 Q84.509 600.077 82.8539 596.958 L88.3921 596.958 Q89.7289 600.109 90.4291 603.419 Q91.1293 606.729 91.1293 610.135 Q91.1293 618.665 86.1641 623.662 Q81.1988 628.627 72.7324 628.627 Q63.9796 628.627 58.8552 623.917 Q53.699 619.174 53.699 611.153 Q53.699 603.96 58.3459 599.791 Q62.9611 595.589 70.9182 595.589 M69.1995 601.446 Q64.3933 601.509 61.5288 604.151 Q58.6642 606.761 58.6642 611.09 Q58.6642 615.991 61.4333 618.951 Q64.2024 621.88 69.2313 622.325 L69.1995 601.446 Z" fill="#000000" fill-rule="evenodd" fill-opacity="1" /><path clip-path="url(#clip040)" d="M59.9692 562.519 L40.6811 562.519 L40.6811 556.663 L90.2063 556.663 L90.2063 562.519 L84.8591 562.519 Q88.0419 564.365 89.6015 567.198 Q91.1293 569.999 91.1293 573.946 Q91.1293 580.407 85.9731 584.481 Q80.8169 588.523 72.4141 588.523 Q64.0114 588.523 58.8552 584.481 Q53.699 580.407 53.699 573.946 Q53.699 569.999 55.2586 567.198 Q56.7863 564.365 59.9692 562.519 M72.4141 582.476 Q78.8753 582.476 82.5674 579.834 Q86.2277 577.16 86.2277 572.514 Q86.2277 567.867 82.5674 565.193 Q78.8753 562.519 72.4141 562.519 Q65.9529 562.519 62.2927 565.193 Q58.6006 567.867 58.6006 572.514 Q58.6006 577.16 62.2927 579.834 Q65.9529 582.476 72.4141 582.476 Z" fill="#000000" fill-rule="evenodd" fill-opacity="1" /><path clip-path="url(#clip040)" d="M70.9182 514.108 L73.7828 514.108 L73.7828 541.035 Q79.8302 540.653 83.013 537.407 Q86.1641 534.128 86.1641 528.304 Q86.1641 524.93 85.3365 521.779 Q84.509 518.596 82.8539 515.477 L88.3921 515.477 Q89.7289 518.628 90.4291 521.938 Q91.1293 525.248 91.1293 528.654 Q91.1293 537.184 86.1641 542.181 Q81.1988 547.146 72.7324 547.146 Q63.9796 547.146 58.8552 542.436 Q53.699 537.693 53.699 529.672 Q53.699 522.479 58.3459 518.31 Q62.9611 514.108 70.9182 514.108 M69.1995 519.965 Q64.3933 520.028 61.5288 522.67 Q58.6642 525.28 58.6642 529.609 Q58.6642 534.51 61.4333 537.47 Q64.2024 540.399 69.2313 540.844 L69.1995 519.965 Z" fill="#000000" fill-rule="evenodd" fill-opacity="1" /><path clip-path="url(#clip040)" d="M68.6902 474.864 L90.2063 474.864 L90.2063 480.72 L68.8812 480.72 Q63.8204 480.72 61.306 482.693 Q58.7915 484.667 58.7915 488.614 Q58.7915 493.356 61.8152 496.093 Q64.8389 498.83 70.0588 498.83 L90.2063 498.83 L90.2063 504.719 L54.5583 504.719 L54.5583 498.83 L60.0965 498.83 Q56.8818 496.73 55.2904 493.897 Q53.699 491.032 53.699 487.309 Q53.699 481.166 57.5184 478.015 Q61.306 474.864 68.6902 474.864 Z" fill="#000000" fill-rule="evenodd" fill-opacity="1" /><path clip-path="url(#clip040)" d="M82.1218 461.687 L82.1218 454.971 L87.5963 454.971 L97.7815 460.191 L97.7815 464.297 L87.5963 461.687 L82.1218 461.687 Z" fill="#000000" fill-rule="evenodd" fill-opacity="1" /><path clip-path="url(#clip040)" d="M44.4369 415.949 L54.5583 415.949 L54.5583 403.886 L59.1098 403.886 L59.1098 415.949 L78.4616 415.949 Q82.8221 415.949 84.0634 414.771 Q85.3047 413.562 85.3047 409.902 L85.3047 403.886 L90.2063 403.886 L90.2063 409.902 Q90.2063 416.681 87.6918 419.259 Q85.1455 421.837 78.4616 421.837 L59.1098 421.837 L59.1098 426.134 L54.5583 426.134 L54.5583 421.837 L44.4369 421.837 L44.4369 415.949 Z" fill="#000000" fill-rule="evenodd" fill-opacity="1" /><path clip-path="url(#clip040)" d="M54.5583 396.183 L54.5583 390.327 L90.2063 390.327 L90.2063 396.183 L54.5583 396.183 M40.6811 396.183 L40.6811 390.327 L48.0971 390.327 L48.0971 396.183 L40.6811 396.183 Z" fill="#000000" fill-rule="evenodd" fill-opacity="1" /><path clip-path="url(#clip040)" d="M61.4015 350.319 Q57.4547 348.122 55.5768 345.067 Q53.699 342.011 53.699 337.874 Q53.699 332.304 57.6139 329.28 Q61.4969 326.256 68.6902 326.256 L90.2063 326.256 L90.2063 332.144 L68.8812 332.144 Q63.7568 332.144 61.2741 333.959 Q58.7915 335.773 58.7915 339.497 Q58.7915 344.048 61.8152 346.69 Q64.8389 349.332 70.0588 349.332 L90.2063 349.332 L90.2063 355.22 L68.8812 355.22 Q63.7249 355.22 61.2741 357.034 Q58.7915 358.849 58.7915 362.636 Q58.7915 367.124 61.8471 369.766 Q64.8708 372.408 70.0588 372.408 L90.2063 372.408 L90.2063 378.296 L54.5583 378.296 L54.5583 372.408 L60.0965 372.408 Q56.8182 370.402 55.2586 367.601 Q53.699 364.801 53.699 360.949 Q53.699 357.066 55.6723 354.361 Q57.6457 351.623 61.4015 350.319 Z" fill="#000000" fill-rule="evenodd" fill-opacity="1" /><path clip-path="url(#clip040)" d="M70.9182 284.083 L73.7828 284.083 L73.7828 311.01 Q79.8302 310.628 83.013 307.382 Q86.1641 304.103 86.1641 298.279 Q86.1641 294.905 85.3365 291.754 Q84.509 288.571 82.8539 285.452 L88.3921 285.452 Q89.7289 288.603 90.4291 291.913 Q91.1293 295.223 91.1293 298.629 Q91.1293 307.159 86.1641 312.156 Q81.1988 317.121 72.7324 317.121 Q63.9796 317.121 58.8552 312.411 Q53.699 307.668 53.699 299.648 Q53.699 292.454 58.3459 288.285 Q62.9611 284.083 70.9182 284.083 M69.1995 289.94 Q64.3933 290.003 61.5288 292.645 Q58.6642 295.255 58.6642 299.584 Q58.6642 304.485 61.4333 307.445 Q64.2024 310.374 69.2313 310.819 L69.1995 289.94 Z" fill="#000000" fill-rule="evenodd" fill-opacity="1" /><path clip-path="url(#clip040)" d="M82.1218 272.975 L82.1218 266.259 L90.2063 266.259 L90.2063 272.975 L82.1218 272.975 M56.4999 272.975 L56.4999 266.259 L64.5843 266.259 L64.5843 272.975 L56.4999 272.975 Z" fill="#000000" fill-rule="evenodd" fill-opacity="1" /><path clip-path="url(#clip040)" d="M84.7954 250.568 L84.7954 240.064 L48.5427 240.064 L50.8344 251.491 L44.9779 251.491 L42.6863 240.128 L42.6863 233.699 L84.7954 233.699 L84.7954 223.195 L90.2063 223.195 L90.2063 250.568 L84.7954 250.568 Z" fill="#000000" fill-rule="evenodd" fill-opacity="1" /><polyline clip-path="url(#clip042)" style="stroke:#009af9; stroke-linecap:round; stroke-linejoin:round; stroke-width:4; stroke-opacity:1; fill:none" points="
  350.696,382.956 360.694,161.171 370.691,197.027 380.688,145.979 390.686,195.63 400.683,225.872 410.68,167.779 420.678,170.455 430.675,190.023 440.672,191.207 
  450.67,180.017 460.667,159.449 470.664,162.718 480.662,208.835 490.659,180.855 500.656,152.152 510.654,232.902 520.651,182.156 530.648,155.234 540.646,177.411 
  550.643,154.03 560.64,170.786 570.637,138.236 580.635,144.722 590.632,151.193 600.629,154.516 610.627,194.238 620.624,180.144 630.621,164.068 640.619,143.865 
  650.616,147.996 660.613,150.169 670.611,228.934 680.608,147.183 690.605,203.747 700.603,162.786 710.6,187.795 720.597,140.817 730.595,200.184 740.592,171.288 
  750.589,171.97 760.587,209.245 770.584,222.587 780.581,177.418 790.579,185.88 800.576,191.415 810.573,140.565 820.571,157.741 830.568,166.158 840.565,179.817 
  850.563,162.66 860.56,143.467 870.557,138.636 880.555,164.426 890.552,124.456 900.549,120.799 910.547,159.44 920.544,165.389 930.541,198.426 940.539,180.525 
  950.536,204.987 960.533,172.842 970.531,203.322 980.528,223.29 990.525,199.311 1000.52,164.006 1010.52,167.569 1020.52,138.365 1030.51,142.048 1040.51,205.532 
  1050.51,169.301 1060.51,179.835 1070.5,157.322 1080.5,248.207 1090.5,204.487 1100.5,170.46 1110.49,175.224 1120.49,193.388 1130.49,116.549 1140.49,191.003 
  1150.48,120.301 1160.48,130.283 1170.48,158.367 1180.47,197.802 1190.47,178.449 1200.47,113.098 1210.47,202.729 1220.46,168.724 1230.46,236.743 1240.46,191.781 
  1250.46,168.659 1260.45,169.174 1270.45,185.99 1280.45,141.133 1290.44,209.274 1300.44,125.049 1310.44,134.964 1320.44,151.78 1330.43,182.796 1340.43,168.99 
  1350.43,192.419 1360.43,238.1 1370.42,204.146 1380.42,157.444 1390.42,215.977 1400.42,136.045 1410.41,170.162 1420.41,177.23 1430.41,218.215 1440.4,194.092 
  1450.4,253.337 1460.4,184.884 1470.4,188.336 1480.39,178.791 1490.39,166.575 1500.39,128.834 1510.39,213.725 1520.38,140.084 1530.38,246.962 1540.38,159.014 
  1550.38,124.909 1560.37,129.082 1570.37,234.712 1580.37,156.429 1590.36,125.188 1600.36,147.746 1610.36,175.165 1620.36,265.566 1630.35,126.862 1640.35,132.991 
  1650.35,196.731 1660.35,143.656 1670.34,118.485 1680.34,178.695 1690.34,242.898 1700.34,210.487 1710.33,165.237 1720.33,216.696 1730.33,159.005 1740.32,168.279 
  1750.32,203.977 1760.32,192.605 1770.32,143.358 1780.31,201.509 1790.31,259.677 1800.31,227.455 1810.31,135.681 1820.3,191.261 1830.3,210.858 1840.3,170.641 
  1850.3,170.454 1860.29,135.208 1870.29,253.813 1880.29,116.232 1890.28,116.147 1900.28,172.807 1910.28,207.237 1920.28,137.107 1930.27,201.932 1940.27,123.856 
  1950.27,139.157 1960.27,173.171 1970.26,138.857 1980.26,131.361 1990.26,146.251 2000.26,132.754 2010.25,205.016 2020.25,217.683 2030.25,131.15 2040.24,138.745 
  2050.24,197.983 2060.24,177.095 2070.24,141.444 2080.23,178.344 2090.23,177 2100.23,144.683 2110.23,167.797 2120.22,146.521 2130.22,113.887 2140.22,122.02 
  2150.22,176.541 2160.21,143.288 2170.21,200.518 2180.21,178.216 2190.2,120.569 2200.2,152.285 2210.2,205.53 2220.2,150.602 2230.19,151.94 2240.19,138.892 
  2250.19,158.288 2260.19,160.051 2270.18,161.172 2280.18,188.187 2290.18,193.271 2300.17,157.738 2310.17,170.91 2320.17,125.51 2330.17,221.71 2340.16,182.876 
  2350.16,133.333 2360.16,140.639 2370.16,120.57 2380.15,200.829 2390.15,116.65 2400.15,208.436 2410.15,215.763 2420.14,172.362 2430.14,148.639 2440.14,212.707 
  2450.13,184.439 2460.13,175.791 2470.13,165.025 2480.13,166.72 2490.12,166.689 2500.12,139 2510.12,198.021 2520.12,115.216 2530.11,152.276 2540.11,230.618 
  2550.11,208.992 2560.11,143.707 2570.1,123.497 2580.1,192.995 2590.1,145.912 2600.09,122.577 2610.09,169.989 2620.09,135.59 2630.09,209.471 2640.08,135.697 
  2650.08,161.147 2660.08,135.45 2670.08,187.947 2680.07,194.797 2690.07,110.236 2700.07,137.829 2710.07,191.246 2720.06,140.398 2730.06,126.815 2740.06,140.39 
  2750.05,134.067 2760.05,132.877 2770.05,128.094 2780.05,190.547 2790.04,172.32 2800.04,199.015 2810.04,232.799 2820.04,186.155 2830.03,221.325 2840.03,155.864 
  2850.03,169.119 2860.03,160.216 2870.02,206.345 2880.02,201.907 2890.02,184.509 2900.01,203.217 2910.01,193.614 2920.01,208.184 2930.01,144.315 2940,136.64 
  2950,256.406 2960,145.158 2970,159.884 2979.99,135.387 2989.99,147.636 2999.99,173.077 3009.99,184.394 
  "/>
</svg>
