<?xml version="1.0" encoding="utf-8"?>
<svg xmlns="http://www.w3.org/2000/svg" xmlns:xlink="http://www.w3.org/1999/xlink" width="800" height="300" viewBox="0 0 3200 1200">
<defs>
  <clipPath id="clip930">
    <rect x="0" y="0" width="3200" height="1200"/>
  </clipPath>
</defs>
<path clip-path="url(#clip930)" d="
M0 1200 L3200 1200 L3200 0 L0 0  Z
  " fill="#ffffff" fill-rule="evenodd" fill-opacity="1"/>
<defs>
  <clipPath id="clip931">
    <rect x="640" y="0" width="2241" height="1200"/>
  </clipPath>
</defs>
<path clip-path="url(#clip930)" d="
M270.918 1000.1 L3089.76 1000.1 L3089.76 110.236 L270.918 110.236  Z
  " fill="#ffffff" fill-rule="evenodd" fill-opacity="1"/>
<defs>
  <clipPath id="clip932">
    <rect x="270" y="110" width="2820" height="891"/>
  </clipPath>
</defs>
<polyline clip-path="url(#clip932)" style="stroke:#000000; stroke-linecap:round; stroke-linejoin:round; stroke-width:2; stroke-opacity:0.1; fill:none" points="
  341.333,1000.1 341.333,110.236 
  "/>
<polyline clip-path="url(#clip932)" style="stroke:#000000; stroke-linecap:round; stroke-linejoin:round; stroke-width:2; stroke-opacity:0.1; fill:none" points="
  809.517,1000.1 809.517,110.236 
  "/>
<polyline clip-path="url(#clip932)" style="stroke:#000000; stroke-linecap:round; stroke-linejoin:round; stroke-width:2; stroke-opacity:0.1; fill:none" points="
  1277.7,1000.1 1277.7,110.236 
  "/>
<polyline clip-path="url(#clip932)" style="stroke:#000000; stroke-linecap:round; stroke-linejoin:round; stroke-width:2; stroke-opacity:0.1; fill:none" points="
  1745.89,1000.1 1745.89,110.236 
  "/>
<polyline clip-path="url(#clip932)" style="stroke:#000000; stroke-linecap:round; stroke-linejoin:round; stroke-width:2; stroke-opacity:0.1; fill:none" points="
  2214.07,1000.1 2214.07,110.236 
  "/>
<polyline clip-path="url(#clip932)" style="stroke:#000000; stroke-linecap:round; stroke-linejoin:round; stroke-width:2; stroke-opacity:0.1; fill:none" points="
  2682.26,1000.1 2682.26,110.236 
  "/>
<polyline clip-path="url(#clip930)" style="stroke:#000000; stroke-linecap:round; stroke-linejoin:round; stroke-width:4; stroke-opacity:1; fill:none" points="
  270.918,1000.1 3089.76,1000.1 
  "/>
<polyline clip-path="url(#clip930)" style="stroke:#000000; stroke-linecap:round; stroke-linejoin:round; stroke-width:4; stroke-opacity:1; fill:none" points="
  341.333,1000.1 341.333,981.2 
  "/>
<polyline clip-path="url(#clip930)" style="stroke:#000000; stroke-linecap:round; stroke-linejoin:round; stroke-width:4; stroke-opacity:1; fill:none" points="
  809.517,1000.1 809.517,981.2 
  "/>
<polyline clip-path="url(#clip930)" style="stroke:#000000; stroke-linecap:round; stroke-linejoin:round; stroke-width:4; stroke-opacity:1; fill:none" points="
  1277.7,1000.1 1277.7,981.2 
  "/>
<polyline clip-path="url(#clip930)" style="stroke:#000000; stroke-linecap:round; stroke-linejoin:round; stroke-width:4; stroke-opacity:1; fill:none" points="
  1745.89,1000.1 1745.89,981.2 
  "/>
<polyline clip-path="url(#clip930)" style="stroke:#000000; stroke-linecap:round; stroke-linejoin:round; stroke-width:4; stroke-opacity:1; fill:none" points="
  2214.07,1000.1 2214.07,981.2 
  "/>
<polyline clip-path="url(#clip930)" style="stroke:#000000; stroke-linecap:round; stroke-linejoin:round; stroke-width:4; stroke-opacity:1; fill:none" points="
  2682.26,1000.1 2682.26,981.2 
  "/>
<path clip-path="url(#clip930)" d="M341.333 1037.42 Q337.722 1037.42 335.893 1040.98 Q334.087 1044.52 334.087 1051.65 Q334.087 1058.76 335.893 1062.32 Q337.722 1065.87 341.333 1065.87 Q344.967 1065.87 346.772 1062.32 Q348.601 1058.76 348.601 1051.65 Q348.601 1044.52 346.772 1040.98 Q344.967 1037.42 341.333 1037.42 M341.333 1033.71 Q347.143 1033.71 350.198 1038.32 Q353.277 1042.9 353.277 1051.65 Q353.277 1060.38 350.198 1064.99 Q347.143 1069.57 341.333 1069.57 Q335.522 1069.57 332.444 1064.99 Q329.388 1060.38 329.388 1051.65 Q329.388 1042.9 332.444 1038.32 Q335.522 1033.71 341.333 1033.71 Z" fill="#000000" fill-rule="evenodd" fill-opacity="1" /><path clip-path="url(#clip930)" d="M784.216 1034.34 L802.573 1034.34 L802.573 1038.27 L788.499 1038.27 L788.499 1046.75 Q789.517 1046.4 790.536 1046.24 Q791.554 1046.05 792.573 1046.05 Q798.36 1046.05 801.74 1049.22 Q805.119 1052.39 805.119 1057.81 Q805.119 1063.39 801.647 1066.49 Q798.175 1069.57 791.855 1069.57 Q789.679 1069.57 787.411 1069.2 Q785.166 1068.83 782.758 1068.09 L782.758 1063.39 Q784.841 1064.52 787.064 1065.08 Q789.286 1065.63 791.763 1065.63 Q795.767 1065.63 798.105 1063.53 Q800.443 1061.42 800.443 1057.81 Q800.443 1054.2 798.105 1052.09 Q795.767 1049.99 791.763 1049.99 Q789.888 1049.99 788.013 1050.4 Q786.161 1050.82 784.216 1051.7 L784.216 1034.34 Z" fill="#000000" fill-rule="evenodd" fill-opacity="1" /><path clip-path="url(#clip930)" d="M824.332 1037.42 Q820.721 1037.42 818.892 1040.98 Q817.087 1044.52 817.087 1051.65 Q817.087 1058.76 818.892 1062.32 Q820.721 1065.87 824.332 1065.87 Q827.966 1065.87 829.772 1062.32 Q831.6 1058.76 831.6 1051.65 Q831.6 1044.52 829.772 1040.98 Q827.966 1037.42 824.332 1037.42 M824.332 1033.71 Q830.142 1033.71 833.198 1038.32 Q836.276 1042.9 836.276 1051.65 Q836.276 1060.38 833.198 1064.99 Q830.142 1069.57 824.332 1069.57 Q818.522 1069.57 815.443 1064.99 Q812.388 1060.38 812.388 1051.65 Q812.388 1042.9 815.443 1038.32 Q818.522 1033.71 824.332 1033.71 Z" fill="#000000" fill-rule="evenodd" fill-opacity="1" /><path clip-path="url(#clip930)" d="M1237.31 1064.96 L1244.95 1064.96 L1244.95 1038.6 L1236.64 1040.26 L1236.64 1036 L1244.9 1034.34 L1249.58 1034.34 L1249.58 1064.96 L1257.22 1064.96 L1257.22 1068.9 L1237.31 1068.9 L1237.31 1064.96 Z" fill="#000000" fill-rule="evenodd" fill-opacity="1" /><path clip-path="url(#clip930)" d="M1276.66 1037.42 Q1273.05 1037.42 1271.22 1040.98 Q1269.41 1044.52 1269.41 1051.65 Q1269.41 1058.76 1271.22 1062.32 Q1273.05 1065.87 1276.66 1065.87 Q1280.29 1065.87 1282.1 1062.32 Q1283.93 1058.76 1283.93 1051.65 Q1283.93 1044.52 1282.1 1040.98 Q1280.29 1037.42 1276.66 1037.42 M1276.66 1033.71 Q1282.47 1033.71 1285.53 1038.32 Q1288.6 1042.9 1288.6 1051.65 Q1288.6 1060.38 1285.53 1064.99 Q1282.47 1069.57 1276.66 1069.57 Q1270.85 1069.57 1267.77 1064.99 Q1264.72 1060.38 1264.72 1051.65 Q1264.72 1042.9 1267.77 1038.32 Q1270.85 1033.71 1276.66 1033.71 Z" fill="#000000" fill-rule="evenodd" fill-opacity="1" /><path clip-path="url(#clip930)" d="M1306.82 1037.42 Q1303.21 1037.42 1301.38 1040.98 Q1299.58 1044.52 1299.58 1051.65 Q1299.58 1058.76 1301.38 1062.32 Q1303.21 1065.87 1306.82 1065.87 Q1310.46 1065.87 1312.26 1062.32 Q1314.09 1058.76 1314.09 1051.65 Q1314.09 1044.52 1312.26 1040.98 Q1310.46 1037.42 1306.82 1037.42 M1306.82 1033.71 Q1312.63 1033.71 1315.69 1038.32 Q1318.77 1042.9 1318.77 1051.65 Q1318.77 1060.38 1315.69 1064.99 Q1312.63 1069.57 1306.82 1069.57 Q1301.01 1069.57 1297.93 1064.99 Q1294.88 1060.38 1294.88 1051.65 Q1294.88 1042.9 1297.93 1038.32 Q1301.01 1033.71 1306.82 1033.71 Z" fill="#000000" fill-rule="evenodd" fill-opacity="1" /><path clip-path="url(#clip930)" d="M1705.49 1064.96 L1713.13 1064.96 L1713.13 1038.6 L1704.82 1040.26 L1704.82 1036 L1713.09 1034.34 L1717.76 1034.34 L1717.76 1064.96 L1725.4 1064.96 L1725.4 1068.9 L1705.49 1068.9 L1705.49 1064.96 Z" fill="#000000" fill-rule="evenodd" fill-opacity="1" /><path clip-path="url(#clip930)" d="M1734.89 1034.34 L1753.25 1034.34 L1753.25 1038.27 L1739.17 1038.27 L1739.17 1046.75 Q1740.19 1046.4 1741.21 1046.24 Q1742.23 1046.05 1743.25 1046.05 Q1749.03 1046.05 1752.41 1049.22 Q1755.79 1052.39 1755.79 1057.81 Q1755.79 1063.39 1752.32 1066.49 Q1748.85 1069.57 1742.53 1069.57 Q1740.35 1069.57 1738.09 1069.2 Q1735.84 1068.83 1733.43 1068.09 L1733.43 1063.39 Q1735.52 1064.52 1737.74 1065.08 Q1739.96 1065.63 1742.44 1065.63 Q1746.44 1065.63 1748.78 1063.53 Q1751.12 1061.42 1751.12 1057.81 Q1751.12 1054.2 1748.78 1052.09 Q1746.44 1049.99 1742.44 1049.99 Q1740.56 1049.99 1738.69 1050.4 Q1736.84 1050.82 1734.89 1051.7 L1734.89 1034.34 Z" fill="#000000" fill-rule="evenodd" fill-opacity="1" /><path clip-path="url(#clip930)" d="M1775.01 1037.42 Q1771.4 1037.42 1769.57 1040.98 Q1767.76 1044.52 1767.76 1051.65 Q1767.76 1058.76 1769.57 1062.32 Q1771.4 1065.87 1775.01 1065.87 Q1778.64 1065.87 1780.45 1062.32 Q1782.28 1058.76 1782.28 1051.65 Q1782.28 1044.52 1780.45 1040.98 Q1778.64 1037.42 1775.01 1037.42 M1775.01 1033.71 Q1780.82 1033.71 1783.87 1038.32 Q1786.95 1042.9 1786.95 1051.65 Q1786.95 1060.38 1783.87 1064.99 Q1780.82 1069.57 1775.01 1069.57 Q1769.2 1069.57 1766.12 1064.99 Q1763.06 1060.38 1763.06 1051.65 Q1763.06 1042.9 1766.12 1038.32 Q1769.2 1033.71 1775.01 1033.71 Z" fill="#000000" fill-rule="evenodd" fill-opacity="1" /><path clip-path="url(#clip930)" d="M2177.76 1064.96 L2194.08 1064.96 L2194.08 1068.9 L2172.14 1068.9 L2172.14 1064.96 Q2174.8 1062.21 2179.38 1057.58 Q2183.99 1052.93 2185.17 1051.58 Q2187.42 1049.06 2188.3 1047.32 Q2189.2 1045.56 2189.2 1043.87 Q2189.2 1041.12 2187.25 1039.38 Q2185.33 1037.65 2182.23 1037.65 Q2180.03 1037.65 2177.58 1038.41 Q2175.15 1039.18 2172.37 1040.73 L2172.37 1036 Q2175.19 1034.87 2177.65 1034.29 Q2180.1 1033.71 2182.14 1033.71 Q2187.51 1033.71 2190.7 1036.4 Q2193.9 1039.08 2193.9 1043.57 Q2193.9 1045.7 2193.09 1047.62 Q2192.3 1049.52 2190.19 1052.12 Q2189.62 1052.79 2186.51 1056 Q2183.41 1059.2 2177.76 1064.96 Z" fill="#000000" fill-rule="evenodd" fill-opacity="1" /><path clip-path="url(#clip930)" d="M2213.9 1037.42 Q2210.29 1037.42 2208.46 1040.98 Q2206.65 1044.52 2206.65 1051.65 Q2206.65 1058.76 2208.46 1062.32 Q2210.29 1065.87 2213.9 1065.87 Q2217.53 1065.87 2219.34 1062.32 Q2221.17 1058.76 2221.17 1051.65 Q2221.17 1044.52 2219.34 1040.98 Q2217.53 1037.42 2213.9 1037.42 M2213.9 1033.71 Q2219.71 1033.71 2222.76 1038.32 Q2225.84 1042.9 2225.84 1051.65 Q2225.84 1060.38 2222.76 1064.99 Q2219.71 1069.57 2213.9 1069.57 Q2208.09 1069.57 2205.01 1064.99 Q2201.95 1060.38 2201.95 1051.65 Q2201.95 1042.9 2205.01 1038.32 Q2208.09 1033.71 2213.9 1033.71 Z" fill="#000000" fill-rule="evenodd" fill-opacity="1" /><path clip-path="url(#clip930)" d="M2244.06 1037.42 Q2240.45 1037.42 2238.62 1040.98 Q2236.81 1044.52 2236.81 1051.65 Q2236.81 1058.76 2238.62 1062.32 Q2240.45 1065.87 2244.06 1065.87 Q2247.69 1065.87 2249.5 1062.32 Q2251.33 1058.76 2251.33 1051.65 Q2251.33 1044.52 2249.5 1040.98 Q2247.69 1037.42 2244.06 1037.42 M2244.06 1033.71 Q2249.87 1033.71 2252.93 1038.32 Q2256 1042.9 2256 1051.65 Q2256 1060.38 2252.93 1064.99 Q2249.87 1069.57 2244.06 1069.57 Q2238.25 1069.57 2235.17 1064.99 Q2232.12 1060.38 2232.12 1051.65 Q2232.12 1042.9 2235.17 1038.32 Q2238.25 1033.71 2244.06 1033.71 Z" fill="#000000" fill-rule="evenodd" fill-opacity="1" /><path clip-path="url(#clip930)" d="M2645.95 1064.96 L2662.27 1064.96 L2662.27 1068.9 L2640.32 1068.9 L2640.32 1064.96 Q2642.99 1062.21 2647.57 1057.58 Q2652.18 1052.93 2653.36 1051.58 Q2655.6 1049.06 2656.48 1047.32 Q2657.38 1045.56 2657.38 1043.87 Q2657.38 1041.12 2655.44 1039.38 Q2653.52 1037.65 2650.42 1037.65 Q2648.22 1037.65 2645.76 1038.41 Q2643.33 1039.18 2640.55 1040.73 L2640.55 1036 Q2643.38 1034.87 2645.83 1034.29 Q2648.29 1033.71 2650.32 1033.71 Q2655.69 1033.71 2658.89 1036.4 Q2662.08 1039.08 2662.08 1043.57 Q2662.08 1045.7 2661.27 1047.62 Q2660.49 1049.52 2658.38 1052.12 Q2657.8 1052.79 2654.7 1056 Q2651.6 1059.2 2645.95 1064.96 Z" fill="#000000" fill-rule="evenodd" fill-opacity="1" /><path clip-path="url(#clip930)" d="M2672.13 1034.34 L2690.48 1034.34 L2690.48 1038.27 L2676.41 1038.27 L2676.41 1046.75 Q2677.43 1046.4 2678.45 1046.24 Q2679.47 1046.05 2680.49 1046.05 Q2686.27 1046.05 2689.65 1049.22 Q2693.03 1052.39 2693.03 1057.81 Q2693.03 1063.39 2689.56 1066.49 Q2686.09 1069.57 2679.77 1069.57 Q2677.59 1069.57 2675.32 1069.2 Q2673.08 1068.83 2670.67 1068.09 L2670.67 1063.39 Q2672.75 1064.52 2674.98 1065.08 Q2677.2 1065.63 2679.67 1065.63 Q2683.68 1065.63 2686.02 1063.53 Q2688.36 1061.42 2688.36 1057.81 Q2688.36 1054.2 2686.02 1052.09 Q2683.68 1049.99 2679.67 1049.99 Q2677.8 1049.99 2675.92 1050.4 Q2674.07 1050.82 2672.13 1051.7 L2672.13 1034.34 Z" fill="#000000" fill-rule="evenodd" fill-opacity="1" /><path clip-path="url(#clip930)" d="M2712.24 1037.42 Q2708.63 1037.42 2706.8 1040.98 Q2705 1044.52 2705 1051.65 Q2705 1058.76 2706.8 1062.32 Q2708.63 1065.87 2712.24 1065.87 Q2715.88 1065.87 2717.68 1062.32 Q2719.51 1058.76 2719.51 1051.65 Q2719.51 1044.52 2717.68 1040.98 Q2715.88 1037.42 2712.24 1037.42 M2712.24 1033.71 Q2718.05 1033.71 2721.11 1038.32 Q2724.19 1042.9 2724.19 1051.65 Q2724.19 1060.38 2721.11 1064.99 Q2718.05 1069.57 2712.24 1069.57 Q2706.43 1069.57 2703.36 1064.99 Q2700.3 1060.38 2700.3 1051.65 Q2700.3 1042.9 2703.36 1038.32 Q2706.43 1033.71 2712.24 1033.71 Z" fill="#000000" fill-rule="evenodd" fill-opacity="1" /><path clip-path="url(#clip930)" d="M1556.64 1109.44 L1563.07 1109.44 L1563.07 1151.55 L1586.21 1151.55 L1586.21 1156.96 L1556.64 1156.96 L1556.64 1109.44 Z" fill="#000000" fill-rule="evenodd" fill-opacity="1" /><path clip-path="url(#clip930)" d="M1592.7 1121.31 L1598.56 1121.31 L1598.56 1156.96 L1592.7 1156.96 L1592.7 1121.31 M1592.7 1107.44 L1598.56 1107.44 L1598.56 1114.85 L1592.7 1114.85 L1592.7 1107.44 Z" fill="#000000" fill-rule="evenodd" fill-opacity="1" /><path clip-path="url(#clip930)" d="M1640.44 1135.45 L1640.44 1156.96 L1634.59 1156.96 L1634.59 1135.64 Q1634.59 1130.58 1632.61 1128.06 Q1630.64 1125.55 1626.69 1125.55 Q1621.95 1125.55 1619.21 1128.57 Q1616.48 1131.59 1616.48 1136.81 L1616.48 1156.96 L1610.59 1156.96 L1610.59 1121.31 L1616.48 1121.31 L1616.48 1126.85 Q1618.58 1123.64 1621.41 1122.05 Q1624.27 1120.45 1628 1120.45 Q1634.14 1120.45 1637.29 1124.27 Q1640.44 1128.06 1640.44 1135.45 Z" fill="#000000" fill-rule="evenodd" fill-opacity="1" /><path clip-path="url(#clip930)" d="M1682.62 1137.67 L1682.62 1140.54 L1655.69 1140.54 Q1656.07 1146.59 1659.32 1149.77 Q1662.6 1152.92 1668.42 1152.92 Q1671.79 1152.92 1674.95 1152.09 Q1678.13 1151.26 1681.25 1149.61 L1681.25 1155.15 Q1678.1 1156.48 1674.79 1157.18 Q1671.48 1157.88 1668.07 1157.88 Q1659.54 1157.88 1654.54 1152.92 Q1649.58 1147.95 1649.58 1139.49 Q1649.58 1130.74 1654.29 1125.61 Q1659.03 1120.45 1667.05 1120.45 Q1674.25 1120.45 1678.42 1125.1 Q1682.62 1129.72 1682.62 1137.67 M1676.76 1135.95 Q1676.7 1131.15 1674.05 1128.28 Q1671.44 1125.42 1667.12 1125.42 Q1662.21 1125.42 1659.25 1128.19 Q1656.33 1130.96 1655.88 1135.99 L1676.76 1135.95 Z" fill="#000000" fill-rule="evenodd" fill-opacity="1" /><path clip-path="url(#clip930)" d="M1708.43 1139.04 Q1701.33 1139.04 1698.59 1140.67 Q1695.86 1142.29 1695.86 1146.2 Q1695.86 1149.32 1697.89 1151.17 Q1699.96 1152.98 1703.5 1152.98 Q1708.37 1152.98 1711.29 1149.55 Q1714.25 1146.08 1714.25 1140.35 L1714.25 1139.04 L1708.43 1139.04 M1720.11 1136.62 L1720.11 1156.96 L1714.25 1156.96 L1714.25 1151.55 Q1712.25 1154.8 1709.26 1156.36 Q1706.27 1157.88 1701.94 1157.88 Q1696.46 1157.88 1693.22 1154.83 Q1690 1151.74 1690 1146.59 Q1690 1140.57 1694.01 1137.51 Q1698.05 1134.46 1706.04 1134.46 L1714.25 1134.46 L1714.25 1133.89 Q1714.25 1129.84 1711.58 1127.65 Q1708.94 1125.42 1704.13 1125.42 Q1701.08 1125.42 1698.18 1126.15 Q1695.28 1126.88 1692.61 1128.35 L1692.61 1122.94 Q1695.83 1121.7 1698.85 1121.09 Q1701.87 1120.45 1704.74 1120.45 Q1712.47 1120.45 1716.29 1124.46 Q1720.11 1128.48 1720.11 1136.62 Z" fill="#000000" fill-rule="evenodd" fill-opacity="1" /><path clip-path="url(#clip930)" d="M1755.63 1138.72 Q1755.63 1132.36 1752.99 1128.86 Q1750.38 1125.36 1745.64 1125.36 Q1740.93 1125.36 1738.28 1128.86 Q1735.67 1132.36 1735.67 1138.72 Q1735.67 1145.06 1738.28 1148.56 Q1740.93 1152.06 1745.64 1152.06 Q1750.38 1152.06 1752.99 1148.56 Q1755.63 1145.06 1755.63 1138.72 M1761.49 1152.54 Q1761.49 1161.64 1757.45 1166.06 Q1753.4 1170.52 1745.06 1170.52 Q1741.98 1170.52 1739.24 1170.04 Q1736.5 1169.6 1733.92 1168.64 L1733.92 1162.95 Q1736.5 1164.35 1739.02 1165.01 Q1741.53 1165.68 1744.14 1165.68 Q1749.9 1165.68 1752.77 1162.66 Q1755.63 1159.67 1755.63 1153.59 L1755.63 1150.69 Q1753.82 1153.84 1750.98 1155.4 Q1748.15 1156.96 1744.2 1156.96 Q1737.65 1156.96 1733.64 1151.96 Q1729.63 1146.97 1729.63 1138.72 Q1729.63 1130.45 1733.64 1125.45 Q1737.65 1120.45 1744.2 1120.45 Q1748.15 1120.45 1750.98 1122.01 Q1753.82 1123.57 1755.63 1126.72 L1755.63 1121.31 L1761.49 1121.31 L1761.49 1152.54 Z" fill="#000000" fill-rule="evenodd" fill-opacity="1" /><path clip-path="url(#clip930)" d="M1804.04 1137.67 L1804.04 1140.54 L1777.12 1140.54 Q1777.5 1146.59 1780.74 1149.77 Q1784.02 1152.92 1789.85 1152.92 Q1793.22 1152.92 1796.37 1152.09 Q1799.55 1151.26 1802.67 1149.61 L1802.67 1155.15 Q1799.52 1156.48 1796.21 1157.18 Q1792.9 1157.88 1789.5 1157.88 Q1780.97 1157.88 1775.97 1152.92 Q1771 1147.95 1771 1139.49 Q1771 1130.74 1775.71 1125.61 Q1780.46 1120.45 1788.48 1120.45 Q1795.67 1120.45 1799.84 1125.1 Q1804.04 1129.72 1804.04 1137.67 M1798.19 1135.95 Q1798.12 1131.15 1795.48 1128.28 Q1792.87 1125.42 1788.54 1125.42 Q1783.64 1125.42 1780.68 1128.19 Q1777.75 1130.96 1777.31 1135.99 L1798.19 1135.95 Z" fill="#000000" fill-rule="evenodd" fill-opacity="1" /><polyline clip-path="url(#clip932)" style="stroke:#000000; stroke-linecap:round; stroke-linejoin:round; stroke-width:2; stroke-opacity:0.1; fill:none" points="
  270.918,1000.1 3089.76,1000.1 
  "/>
<polyline clip-path="url(#clip932)" style="stroke:#000000; stroke-linecap:round; stroke-linejoin:round; stroke-width:2; stroke-opacity:0.1; fill:none" points="
  270.918,666.941 3089.76,666.941 
  "/>
<polyline clip-path="url(#clip932)" style="stroke:#000000; stroke-linecap:round; stroke-linejoin:round; stroke-width:2; stroke-opacity:0.1; fill:none" points="
  270.918,333.783 3089.76,333.783 
  "/>
<polyline clip-path="url(#clip930)" style="stroke:#000000; stroke-linecap:round; stroke-linejoin:round; stroke-width:4; stroke-opacity:1; fill:none" points="
  270.918,1000.1 270.918,110.236 
  "/>
<polyline clip-path="url(#clip930)" style="stroke:#000000; stroke-linecap:round; stroke-linejoin:round; stroke-width:4; stroke-opacity:1; fill:none" points="
  270.918,1000.1 289.815,1000.1 
  "/>
<polyline clip-path="url(#clip930)" style="stroke:#000000; stroke-linecap:round; stroke-linejoin:round; stroke-width:4; stroke-opacity:1; fill:none" points="
  270.918,666.941 289.815,666.941 
  "/>
<polyline clip-path="url(#clip930)" style="stroke:#000000; stroke-linecap:round; stroke-linejoin:round; stroke-width:4; stroke-opacity:1; fill:none" points="
  270.918,333.783 289.815,333.783 
  "/>
<path clip-path="url(#clip930)" d="M154.902 1019.89 L162.54 1019.89 L162.54 993.525 L154.23 995.191 L154.23 990.932 L162.494 989.265 L167.17 989.265 L167.17 1019.89 L174.809 1019.89 L174.809 1023.83 L154.902 1023.83 L154.902 1019.89 Z" fill="#000000" fill-rule="evenodd" fill-opacity="1" /><path clip-path="url(#clip930)" d="M194.253 992.344 Q190.642 992.344 188.813 995.909 Q187.008 999.45 187.008 1006.58 Q187.008 1013.69 188.813 1017.25 Q190.642 1020.79 194.253 1020.79 Q197.887 1020.79 199.693 1017.25 Q201.522 1013.69 201.522 1006.58 Q201.522 999.45 199.693 995.909 Q197.887 992.344 194.253 992.344 M194.253 988.64 Q200.063 988.64 203.119 993.247 Q206.198 997.83 206.198 1006.58 Q206.198 1015.31 203.119 1019.91 Q200.063 1024.5 194.253 1024.5 Q188.443 1024.5 185.364 1019.91 Q182.309 1015.31 182.309 1006.58 Q182.309 997.83 185.364 993.247 Q188.443 988.64 194.253 988.64 Z" fill="#000000" fill-rule="evenodd" fill-opacity="1" /><path clip-path="url(#clip930)" d="M206.743 993.218 L212.95 993.218 L212.95 971.796 L206.198 973.15 L206.198 969.689 L212.912 968.335 L216.711 968.335 L216.711 993.218 L222.918 993.218 L222.918 996.415 L206.743 996.415 L206.743 993.218 Z" fill="#000000" fill-rule="evenodd" fill-opacity="1" /><path clip-path="url(#clip930)" d="M153.792 686.733 L161.431 686.733 L161.431 660.367 L153.121 662.034 L153.121 657.775 L161.384 656.108 L166.06 656.108 L166.06 686.733 L173.699 686.733 L173.699 690.668 L153.792 690.668 L153.792 686.733 Z" fill="#000000" fill-rule="evenodd" fill-opacity="1" /><path clip-path="url(#clip930)" d="M193.143 659.187 Q189.532 659.187 187.704 662.752 Q185.898 666.293 185.898 673.423 Q185.898 680.529 187.704 684.094 Q189.532 687.636 193.143 687.636 Q196.778 687.636 198.583 684.094 Q200.412 680.529 200.412 673.423 Q200.412 666.293 198.583 662.752 Q196.778 659.187 193.143 659.187 M193.143 655.483 Q198.954 655.483 202.009 660.09 Q205.088 664.673 205.088 673.423 Q205.088 682.15 202.009 686.756 Q198.954 691.339 193.143 691.339 Q187.333 691.339 184.255 686.756 Q181.199 682.15 181.199 673.423 Q181.199 664.673 184.255 660.09 Q187.333 655.483 193.143 655.483 Z" fill="#000000" fill-rule="evenodd" fill-opacity="1" /><path clip-path="url(#clip930)" d="M209.658 660.06 L222.918 660.06 L222.918 663.258 L205.088 663.258 L205.088 660.06 Q207.251 657.822 210.975 654.061 Q214.717 650.28 215.677 649.189 Q217.501 647.139 218.216 645.729 Q218.949 644.299 218.949 642.927 Q218.949 640.688 217.369 639.278 Q215.808 637.867 213.288 637.867 Q211.501 637.867 209.508 638.488 Q207.533 639.109 205.276 640.369 L205.276 636.532 Q207.57 635.61 209.564 635.14 Q211.558 634.67 213.213 634.67 Q217.576 634.67 220.172 636.852 Q222.767 639.033 222.767 642.682 Q222.767 644.412 222.109 645.973 Q221.469 647.516 219.758 649.622 Q219.288 650.167 216.767 652.782 Q214.247 655.377 209.658 660.06 Z" fill="#000000" fill-rule="evenodd" fill-opacity="1" /><path clip-path="url(#clip930)" d="M153.134 353.576 L160.772 353.576 L160.772 327.21 L152.462 328.877 L152.462 324.618 L160.726 322.951 L165.402 322.951 L165.402 353.576 L173.041 353.576 L173.041 357.511 L153.134 357.511 L153.134 353.576 Z" fill="#000000" fill-rule="evenodd" fill-opacity="1" /><path clip-path="url(#clip930)" d="M192.485 326.03 Q188.874 326.03 187.045 329.594 Q185.24 333.136 185.24 340.266 Q185.24 347.372 187.045 350.937 Q188.874 354.479 192.485 354.479 Q196.119 354.479 197.925 350.937 Q199.754 347.372 199.754 340.266 Q199.754 333.136 197.925 329.594 Q196.119 326.03 192.485 326.03 M192.485 322.326 Q198.295 322.326 201.351 326.932 Q204.43 331.516 204.43 340.266 Q204.43 348.992 201.351 353.599 Q198.295 358.182 192.485 358.182 Q186.675 358.182 183.596 353.599 Q180.541 348.992 180.541 340.266 Q180.541 331.516 183.596 326.932 Q186.675 322.326 192.485 322.326 Z" fill="#000000" fill-rule="evenodd" fill-opacity="1" /><path clip-path="url(#clip930)" d="M217.125 314.96 Q219.852 315.543 221.375 317.386 Q222.918 319.23 222.918 321.938 Q222.918 326.094 220.059 328.37 Q217.2 330.646 211.934 330.646 Q210.166 330.646 208.285 330.289 Q206.423 329.95 204.43 329.254 L204.43 325.587 Q206.009 326.508 207.89 326.978 Q209.771 327.449 211.821 327.449 Q215.395 327.449 217.256 326.038 Q219.137 324.627 219.137 321.938 Q219.137 319.455 217.388 318.064 Q215.658 316.653 212.555 316.653 L209.282 316.653 L209.282 313.531 L212.705 313.531 Q215.507 313.531 216.993 312.421 Q218.479 311.293 218.479 309.186 Q218.479 307.023 216.937 305.876 Q215.413 304.71 212.555 304.71 Q210.994 304.71 209.207 305.049 Q207.42 305.387 205.276 306.102 L205.276 302.716 Q207.439 302.115 209.32 301.814 Q211.219 301.513 212.893 301.513 Q217.219 301.513 219.739 303.488 Q222.259 305.444 222.259 308.791 Q222.259 311.123 220.924 312.741 Q219.589 314.34 217.125 314.96 Z" fill="#000000" fill-rule="evenodd" fill-opacity="1" /><path clip-path="url(#clip930)" d="M42.6863 912.235 L42.6863 882.189 L48.0971 882.189 L48.0971 905.806 L62.1653 905.806 L62.1653 883.176 L67.5762 883.176 L67.5762 905.806 L84.7954 905.806 L84.7954 881.616 L90.2063 881.616 L90.2063 912.235 L42.6863 912.235 Z" fill="#000000" fill-rule="evenodd" fill-opacity="1" /><path clip-path="url(#clip930)" d="M44.2459 842.563 L50.5161 842.563 Q48.7655 846.223 47.9062 849.47 Q47.0468 852.716 47.0468 855.74 Q47.0468 860.991 49.0838 863.856 Q51.1208 866.689 54.8766 866.689 Q58.0276 866.689 59.6509 864.811 Q61.2423 862.901 62.229 857.618 L63.0247 853.735 Q64.3933 846.541 67.8627 843.136 Q71.3001 839.698 77.0929 839.698 Q83.9997 839.698 87.5645 844.345 Q91.1293 848.96 91.1293 857.904 Q91.1293 861.278 90.3654 865.097 Q89.6015 868.885 88.1056 872.959 L81.4853 872.959 Q83.6814 869.044 84.7954 865.288 Q85.9094 861.533 85.9094 857.904 Q85.9094 852.398 83.7451 849.406 Q81.5808 846.414 77.5704 846.414 Q74.0692 846.414 72.0958 848.578 Q70.1225 850.711 69.1358 855.612 L68.3719 859.527 Q66.9396 866.721 63.8841 869.935 Q60.8285 873.15 55.3859 873.15 Q49.0838 873.15 45.4554 868.726 Q41.8269 864.27 41.8269 856.472 Q41.8269 853.13 42.4317 849.66 Q43.0364 846.191 44.2459 842.563 Z" fill="#000000" fill-rule="evenodd" fill-opacity="1" /><path clip-path="url(#clip930)" d="M44.2459 801.186 L50.5161 801.186 Q48.7655 804.846 47.9062 808.092 Q47.0468 811.339 47.0468 814.363 Q47.0468 819.614 49.0838 822.479 Q51.1208 825.312 54.8766 825.312 Q58.0276 825.312 59.6509 823.434 Q61.2423 821.524 62.229 816.241 L63.0247 812.357 Q64.3933 805.164 67.8627 801.759 Q71.3001 798.321 77.0929 798.321 Q83.9997 798.321 87.5645 802.968 Q91.1293 807.583 91.1293 816.527 Q91.1293 819.901 90.3654 823.72 Q89.6015 827.508 88.1056 831.582 L81.4853 831.582 Q83.6814 827.667 84.7954 823.911 Q85.9094 820.155 85.9094 816.527 Q85.9094 811.021 83.7451 808.029 Q81.5808 805.037 77.5704 805.037 Q74.0692 805.037 72.0958 807.201 Q70.1225 809.334 69.1358 814.235 L68.3719 818.15 Q66.9396 825.343 63.8841 828.558 Q60.8285 831.773 55.3859 831.773 Q49.0838 831.773 45.4554 827.349 Q41.8269 822.893 41.8269 815.095 Q41.8269 811.753 42.4317 808.283 Q43.0364 804.814 44.2459 801.186 Z" fill="#000000" fill-rule="evenodd" fill-opacity="1" /><path clip-path="url(#clip930)" d="M82.1218 787.054 L82.1218 780.338 L90.2063 780.338 L90.2063 787.054 L82.1218 787.054 M56.4999 787.054 L56.4999 780.338 L64.5843 780.338 L64.5843 787.054 L56.4999 787.054 Z" fill="#000000" fill-rule="evenodd" fill-opacity="1" /><path clip-path="url(#clip930)" d="M42.6863 745.613 L42.6863 715.567 L48.0971 715.567 L48.0971 739.184 L62.1653 739.184 L62.1653 716.554 L67.5762 716.554 L67.5762 739.184 L84.7954 739.184 L84.7954 714.994 L90.2063 714.994 L90.2063 745.613 L42.6863 745.613 Z" fill="#000000" fill-rule="evenodd" fill-opacity="1" /><path clip-path="url(#clip930)" d="M68.6902 675.049 L90.2063 675.049 L90.2063 680.906 L68.8812 680.906 Q63.8204 680.906 61.306 682.879 Q58.7915 684.852 58.7915 688.799 Q58.7915 693.542 61.8152 696.279 Q64.8389 699.016 70.0588 699.016 L90.2063 699.016 L90.2063 704.904 L54.5583 704.904 L54.5583 699.016 L60.0965 699.016 Q56.8818 696.915 55.2904 694.083 Q53.699 691.218 53.699 687.494 Q53.699 681.351 57.5184 678.2 Q61.306 675.049 68.6902 675.049 Z" fill="#000000" fill-rule="evenodd" fill-opacity="1" /><path clip-path="url(#clip930)" d="M71.9685 639.91 Q65.6028 639.91 62.1017 642.552 Q58.6006 645.162 58.6006 649.905 Q58.6006 654.615 62.1017 657.257 Q65.6028 659.867 71.9685 659.867 Q78.3024 659.867 81.8036 657.257 Q85.3047 654.615 85.3047 649.905 Q85.3047 645.162 81.8036 642.552 Q78.3024 639.91 71.9685 639.91 M85.7821 634.054 Q94.8851 634.054 99.3092 638.096 Q103.765 642.138 103.765 650.478 Q103.765 653.565 103.288 656.302 Q102.842 659.039 101.887 661.617 L96.19 661.617 Q97.5905 659.039 98.2589 656.525 Q98.9273 654.01 98.9273 651.401 Q98.9273 645.64 95.9036 642.775 Q92.9117 639.91 86.8325 639.91 L83.9361 639.91 Q87.0871 641.725 88.6467 644.557 Q90.2063 647.39 90.2063 651.337 Q90.2063 657.894 85.2092 661.904 Q80.2121 665.914 71.9685 665.914 Q63.6931 665.914 58.696 661.904 Q53.699 657.894 53.699 651.337 Q53.699 647.39 55.2586 644.557 Q56.8182 641.725 59.9692 639.91 L54.5583 639.91 L54.5583 634.054 L85.7821 634.054 Z" fill="#000000" fill-rule="evenodd" fill-opacity="1" /><path clip-path="url(#clip930)" d="M40.6811 621.991 L40.6811 616.135 L90.2063 616.135 L90.2063 621.991 L40.6811 621.991 Z" fill="#000000" fill-rule="evenodd" fill-opacity="1" /><path clip-path="url(#clip930)" d="M72.2868 587.68 Q72.2868 594.778 73.9101 597.515 Q75.5333 600.252 79.4482 600.252 Q82.5674 600.252 84.4135 598.215 Q86.2277 596.146 86.2277 592.613 Q86.2277 587.743 82.7902 584.815 Q79.3209 581.855 73.5918 581.855 L72.2868 581.855 L72.2868 587.68 M69.8679 575.999 L90.2063 575.999 L90.2063 581.855 L84.7954 581.855 Q88.0419 583.86 89.6015 586.852 Q91.1293 589.844 91.1293 594.173 Q91.1293 599.647 88.0738 602.894 Q84.9864 606.109 79.8302 606.109 Q73.8146 606.109 70.759 602.098 Q67.7035 598.056 67.7035 590.067 L67.7035 581.855 L67.1306 581.855 Q63.0884 581.855 60.8922 584.529 Q58.6642 587.171 58.6642 591.977 Q58.6642 595.032 59.3963 597.929 Q60.1283 600.825 61.5924 603.499 L56.1816 603.499 Q54.9403 600.284 54.3355 597.26 Q53.699 594.236 53.699 591.372 Q53.699 583.638 57.7094 579.818 Q61.7197 575.999 69.8679 575.999 Z" fill="#000000" fill-rule="evenodd" fill-opacity="1" /><path clip-path="url(#clip930)" d="M68.6902 534.303 L90.2063 534.303 L90.2063 540.16 L68.8812 540.16 Q63.8204 540.16 61.306 542.133 Q58.7915 544.107 58.7915 548.053 Q58.7915 552.796 61.8152 555.533 Q64.8389 558.27 70.0588 558.27 L90.2063 558.27 L90.2063 564.159 L54.5583 564.159 L54.5583 558.27 L60.0965 558.27 Q56.8818 556.17 55.2904 553.337 Q53.699 550.472 53.699 546.748 Q53.699 540.605 57.5184 537.454 Q61.306 534.303 68.6902 534.303 Z" fill="#000000" fill-rule="evenodd" fill-opacity="1" /><path clip-path="url(#clip930)" d="M59.9692 499.165 L40.6811 499.165 L40.6811 493.308 L90.2063 493.308 L90.2063 499.165 L84.8591 499.165 Q88.0419 501.011 89.6015 503.843 Q91.1293 506.644 91.1293 510.591 Q91.1293 517.052 85.9731 521.126 Q80.8169 525.169 72.4141 525.169 Q64.0114 525.169 58.8552 521.126 Q53.699 517.052 53.699 510.591 Q53.699 506.644 55.2586 503.843 Q56.7863 501.011 59.9692 499.165 M72.4141 519.121 Q78.8753 519.121 82.5674 516.479 Q86.2277 513.806 86.2277 509.159 Q86.2277 504.512 82.5674 501.838 Q78.8753 499.165 72.4141 499.165 Q65.9529 499.165 62.2927 501.838 Q58.6006 504.512 58.6006 509.159 Q58.6006 513.806 62.2927 516.479 Q65.9529 519.121 72.4141 519.121 Z" fill="#000000" fill-rule="evenodd" fill-opacity="1" /><path clip-path="url(#clip930)" d="M82.1218 479.749 L82.1218 473.033 L87.5963 473.033 L97.7815 478.253 L97.7815 482.359 L87.5963 479.749 L82.1218 479.749 Z" fill="#000000" fill-rule="evenodd" fill-opacity="1" /><path clip-path="url(#clip930)" d="M44.4369 434.012 L54.5583 434.012 L54.5583 421.949 L59.1098 421.949 L59.1098 434.012 L78.4616 434.012 Q82.8221 434.012 84.0634 432.834 Q85.3047 431.625 85.3047 427.964 L85.3047 421.949 L90.2063 421.949 L90.2063 427.964 Q90.2063 434.744 87.6918 437.322 Q85.1455 439.9 78.4616 439.9 L59.1098 439.9 L59.1098 444.197 L54.5583 444.197 L54.5583 439.9 L44.4369 439.9 L44.4369 434.012 Z" fill="#000000" fill-rule="evenodd" fill-opacity="1" /><path clip-path="url(#clip930)" d="M54.5583 414.246 L54.5583 408.39 L90.2063 408.39 L90.2063 414.246 L54.5583 414.246 M40.6811 414.246 L40.6811 408.39 L48.0971 408.39 L48.0971 414.246 L40.6811 414.246 Z" fill="#000000" fill-rule="evenodd" fill-opacity="1" /><path clip-path="url(#clip930)" d="M61.4015 368.381 Q57.4547 366.185 55.5768 363.13 Q53.699 360.074 53.699 355.936 Q53.699 350.366 57.6139 347.343 Q61.4969 344.319 68.6902 344.319 L90.2063 344.319 L90.2063 350.207 L68.8812 350.207 Q63.7568 350.207 61.2741 352.021 Q58.7915 353.836 58.7915 357.56 Q58.7915 362.111 61.8152 364.753 Q64.8389 367.395 70.0588 367.395 L90.2063 367.395 L90.2063 373.283 L68.8812 373.283 Q63.7249 373.283 61.2741 375.097 Q58.7915 376.911 58.7915 380.699 Q58.7915 385.187 61.8471 387.828 Q64.8708 390.47 70.0588 390.47 L90.2063 390.47 L90.2063 396.359 L54.5583 396.359 L54.5583 390.47 L60.0965 390.47 Q56.8182 388.465 55.2586 385.664 Q53.699 382.863 53.699 379.012 Q53.699 375.129 55.6723 372.423 Q57.6457 369.686 61.4015 368.381 Z" fill="#000000" fill-rule="evenodd" fill-opacity="1" /><path clip-path="url(#clip930)" d="M70.9182 302.146 L73.7828 302.146 L73.7828 329.073 Q79.8302 328.691 83.013 325.445 Q86.1641 322.166 86.1641 316.342 Q86.1641 312.968 85.3365 309.817 Q84.509 306.634 82.8539 303.515 L88.3921 303.515 Q89.7289 306.666 90.4291 309.976 Q91.1293 313.286 91.1293 316.692 Q91.1293 325.222 86.1641 330.219 Q81.1988 335.184 72.7324 335.184 Q63.9796 335.184 58.8552 330.473 Q53.699 325.731 53.699 317.71 Q53.699 310.517 58.3459 306.347 Q62.9611 302.146 70.9182 302.146 M69.1995 308.002 Q64.3933 308.066 61.5288 310.708 Q58.6642 313.318 58.6642 317.647 Q58.6642 322.548 61.4333 325.508 Q64.2024 328.436 69.2313 328.882 L69.1995 308.002 Z" fill="#000000" fill-rule="evenodd" fill-opacity="1" /><path clip-path="url(#clip930)" d="M82.1218 291.038 L82.1218 284.322 L90.2063 284.322 L90.2063 291.038 L82.1218 291.038 M56.4999 291.038 L56.4999 284.322 L64.5843 284.322 L64.5843 291.038 L56.4999 291.038 Z" fill="#000000" fill-rule="evenodd" fill-opacity="1" /><path clip-path="url(#clip930)" d="M42.6863 269.681 L42.6863 244.441 L48.0971 244.441 L48.0971 263.793 L59.7464 263.793 Q59.2689 262.392 59.0461 260.992 Q58.7915 259.591 58.7915 258.191 Q58.7915 250.234 63.152 245.587 Q67.5125 240.94 74.9604 240.94 Q82.6311 240.94 86.8961 245.714 Q91.1293 250.488 91.1293 259.178 Q91.1293 262.169 90.6201 265.289 Q90.1108 268.376 89.0923 271.686 L82.6311 271.686 Q84.1907 268.822 84.9546 265.766 Q85.7185 262.71 85.7185 259.305 Q85.7185 253.799 82.8221 250.584 Q79.9257 247.369 74.9604 247.369 Q69.9952 247.369 67.0988 250.584 Q64.2024 253.799 64.2024 259.305 Q64.2024 261.883 64.7753 264.461 Q65.3482 267.007 66.5577 269.681 L42.6863 269.681 Z" fill="#000000" fill-rule="evenodd" fill-opacity="1" /><path clip-path="url(#clip930)" d="M46.9195 214.522 Q46.9195 219.487 51.8211 222.002 Q56.6908 224.484 66.494 224.484 Q76.2654 224.484 81.167 222.002 Q86.0367 219.487 86.0367 214.522 Q86.0367 209.525 81.167 207.042 Q76.2654 204.528 66.494 204.528 Q56.6908 204.528 51.8211 207.042 Q46.9195 209.525 46.9195 214.522 M41.8269 214.522 Q41.8269 206.533 48.1608 202.332 Q54.4628 198.099 66.494 198.099 Q78.4934 198.099 84.8273 202.332 Q91.1293 206.533 91.1293 214.522 Q91.1293 222.511 84.8273 226.744 Q78.4934 230.946 66.494 230.946 Q54.4628 230.946 48.1608 226.744 Q41.8269 222.511 41.8269 214.522 Z" fill="#000000" fill-rule="evenodd" fill-opacity="1" /><polyline clip-path="url(#clip932)" style="stroke:#009af9; stroke-linecap:round; stroke-linejoin:round; stroke-width:4; stroke-opacity:1; fill:none" points="
  350.696,504.534 360.06,169.106 369.424,189.526 378.787,181.275 388.151,146.555 397.515,167.115 406.878,177.276 416.242,191.665 425.606,202.283 434.97,212.422 
  444.333,172.964 453.697,167.565 463.061,146.741 472.424,176.565 481.788,195.704 491.152,195.341 500.515,176.595 509.879,197.833 519.243,176.162 528.606,171.255 
  537.97,163.748 547.334,166.942 556.698,196.453 566.061,158.79 575.425,177.587 584.789,166.009 594.152,182.336 603.516,205.817 612.88,171.282 622.243,152.865 
  631.607,202.877 640.971,168.437 650.334,181.218 659.698,167.605 669.062,156.724 678.426,170.387 687.789,167.823 697.153,166.823 706.517,160.041 715.88,152.887 
  725.244,175.74 734.608,155.185 743.971,202.331 753.335,185.341 762.699,158.192 772.062,178.021 781.426,191.335 790.79,189.428 800.154,207.693 809.517,176.109 
  818.881,169.423 828.245,209.309 837.608,148.476 846.972,177.238 856.336,162.113 865.699,171.211 875.063,144.793 884.427,171.387 893.79,216.775 903.154,155.976 
  912.518,170.272 921.882,193.898 931.245,195.852 940.609,203.033 949.973,169.736 959.336,179.876 968.7,219.707 978.064,212.59 987.427,163.905 996.791,177.183 
  1006.15,148.822 1015.52,201.617 1024.88,158.469 1034.25,178.177 1043.61,140.469 1052.97,143.649 1062.34,181.168 1071.7,205.443 1081.06,174.553 1090.43,184.611 
  1099.79,184.756 1109.16,180.361 1118.52,172.074 1127.88,164.14 1137.25,166.644 1146.61,160.426 1155.97,192.999 1165.34,139.083 1174.7,168.289 1184.06,182.042 
  1193.43,170.846 1202.79,178.477 1212.16,171.853 1221.52,173.615 1230.88,178.875 1240.25,191.927 1249.61,173.221 1258.97,184.763 1268.34,202.579 1277.7,159.705 
  1287.07,168.308 1296.43,193.942 1305.79,148.765 1315.16,179.686 1324.52,190.04 1333.88,174.698 1343.25,157.048 1352.61,150.996 1361.98,205.638 1371.34,180.683 
  1380.7,172.652 1390.07,149.634 1399.43,166.588 1408.79,180.863 1418.16,169.446 1427.52,167.663 1436.88,190.892 1446.25,163.093 1455.61,190.56 1464.98,191.294 
  1474.34,147.562 1483.7,148.482 1493.07,193.53 1502.43,171.249 1511.79,172.613 1521.16,173.64 1530.52,156.949 1539.89,194.158 1549.25,144.083 1558.61,201.466 
  1567.98,146.826 1577.34,187.788 1586.7,209.265 1596.07,166.303 1605.43,148.109 1614.79,175.966 1624.16,169.891 1633.52,156.398 1642.89,203.208 1652.25,147.748 
  1661.61,214.786 1670.98,154.928 1680.34,172.958 1689.7,159.674 1699.07,183.568 1708.43,159.082 1717.8,138.827 1727.16,151.608 1736.52,171.121 1745.89,178.585 
  1755.25,195.488 1764.61,161.093 1773.98,162.82 1783.34,185.975 1792.71,164.624 1802.07,137.764 1811.43,153.806 1820.8,154.01 1830.16,203.254 1839.52,187.735 
  1848.89,163.251 1858.25,218.882 1867.61,208.322 1876.98,216.289 1886.34,206.112 1895.71,202.801 1905.07,205.248 1914.43,215.947 1923.8,207.447 1933.16,196.982 
  1942.52,202.257 1951.89,200.201 1961.25,194.692 1970.62,135.347 1979.98,206.389 1989.34,197.588 1998.71,197.143 2008.07,158.953 2017.43,223.589 2026.8,204.517 
  2036.16,211.103 2045.52,136.667 2054.89,141.271 2064.25,190.912 2073.62,199.459 2082.98,215.396 2092.34,203.029 2101.71,206.753 2111.07,217.776 2120.43,205.16 
  2129.8,191.069 2139.16,207.397 2148.53,183.352 2157.89,201.708 2167.25,171.478 2176.62,202.658 2185.98,197.353 2195.34,201.826 2204.71,200.809 2214.07,185.539 
  2223.43,137.12 2232.8,196.584 2242.16,110.236 2251.53,196.315 2260.89,143.895 2270.25,210.854 2279.62,202.49 2288.98,199.123 2298.34,174.291 2307.71,179.983 
  2317.07,151.171 2326.44,177.171 2335.8,151.338 2345.16,189.451 2354.53,180.482 2363.89,140.536 2373.25,213.679 2382.62,218.561 2391.98,198.782 2401.35,171.695 
  2410.71,147.15 2420.07,166.042 2429.44,146.771 2438.8,168.481 2448.16,132.378 2457.53,148.259 2466.89,168.7 2476.25,205.313 2485.62,176.241 2494.98,168.943 
  2504.35,207.548 2513.71,192.238 2523.07,162 2532.44,152.103 2541.8,206.584 2551.16,186.226 2560.53,148.521 2569.89,170.994 2579.26,184.557 2588.62,194.312 
  2597.98,208.379 2607.35,180.004 2616.71,200.859 2626.07,195.824 2635.44,186.303 2644.8,204.235 2654.16,207.285 2663.53,162.384 2672.89,164.524 2682.26,143.291 
  2691.62,173.102 2700.98,184.222 2710.35,184.397 2719.71,175.492 2729.07,163.5 2738.44,142.854 2747.8,175.537 2757.17,202.741 2766.53,155.778 2775.89,177.119 
  2785.26,149.917 2794.62,210.128 2803.98,153.842 2813.35,153.6 2822.71,178.646 2832.07,192.508 2841.44,133.304 2850.8,139.61 2860.17,127.744 2869.53,159.245 
  2878.89,199.484 2888.26,203.519 2897.62,199.864 2906.98,155.47 2916.35,150.407 2925.71,159.387 2935.08,214.807 2944.44,211.015 2953.8,170.643 2963.17,153.186 
  2972.53,196.634 2981.89,162.538 2991.26,146.384 3000.62,165.634 3009.99,162.429 
  "/>
</svg>
