<?xml version="1.0" encoding="utf-8"?>
<svg xmlns="http://www.w3.org/2000/svg" xmlns:xlink="http://www.w3.org/1999/xlink" width="800" height="300" viewBox="0 0 3200 1200">
<defs>
  <clipPath id="clip860">
    <rect x="0" y="0" width="3200" height="1200"/>
  </clipPath>
</defs>
<path clip-path="url(#clip860)" d="M0 1200 L3200 1200 L3200 0 L0 0  Z" fill="#ffffff" fill-rule="evenodd" fill-opacity="1"/>
<defs>
  <clipPath id="clip861">
    <rect x="640" y="0" width="2241" height="1200"/>
  </clipPath>
</defs>
<path clip-path="url(#clip860)" d="M270.918 1000.1 L3089.76 1000.1 L3089.76 110.236 L270.918 110.236  Z" fill="#ffffff" fill-rule="evenodd" fill-opacity="1"/>
<defs>
  <clipPath id="clip862">
    <rect x="270" y="110" width="2820" height="891"/>
  </clipPath>
</defs>
<polyline clip-path="url(#clip862)" style="stroke:#000000; stroke-linecap:round; stroke-linejoin:round; stroke-width:2; stroke-opacity:0.1; fill:none" points="342.988,1000.1 342.988,110.236 "/>
<polyline clip-path="url(#clip862)" style="stroke:#000000; stroke-linecap:round; stroke-linejoin:round; stroke-width:2; stroke-opacity:0.1; fill:none" points="1113.8,1000.1 1113.8,110.236 "/>
<polyline clip-path="url(#clip862)" style="stroke:#000000; stroke-linecap:round; stroke-linejoin:round; stroke-width:2; stroke-opacity:0.1; fill:none" points="1884.6,1000.1 1884.6,110.236 "/>
<polyline clip-path="url(#clip862)" style="stroke:#000000; stroke-linecap:round; stroke-linejoin:round; stroke-width:2; stroke-opacity:0.1; fill:none" points="2655.41,1000.1 2655.41,110.236 "/>
<polyline clip-path="url(#clip860)" style="stroke:#000000; stroke-linecap:round; stroke-linejoin:round; stroke-width:4; stroke-opacity:1; fill:none" points="270.918,1000.1 3089.76,1000.1 "/>
<polyline clip-path="url(#clip860)" style="stroke:#000000; stroke-linecap:round; stroke-linejoin:round; stroke-width:4; stroke-opacity:1; fill:none" points="342.988,1000.1 342.988,981.2 "/>
<polyline clip-path="url(#clip860)" style="stroke:#000000; stroke-linecap:round; stroke-linejoin:round; stroke-width:4; stroke-opacity:1; fill:none" points="1113.8,1000.1 1113.8,981.2 "/>
<polyline clip-path="url(#clip860)" style="stroke:#000000; stroke-linecap:round; stroke-linejoin:round; stroke-width:4; stroke-opacity:1; fill:none" points="1884.6,1000.1 1884.6,981.2 "/>
<polyline clip-path="url(#clip860)" style="stroke:#000000; stroke-linecap:round; stroke-linejoin:round; stroke-width:4; stroke-opacity:1; fill:none" points="2655.41,1000.1 2655.41,981.2 "/>
<path clip-path="url(#clip860)" d="M342.988 1037.42 Q339.377 1037.42 337.548 1040.98 Q335.743 1044.52 335.743 1051.65 Q335.743 1058.76 337.548 1062.32 Q339.377 1065.87 342.988 1065.87 Q346.622 1065.87 348.428 1062.32 Q350.257 1058.76 350.257 1051.65 Q350.257 1044.52 348.428 1040.98 Q346.622 1037.42 342.988 1037.42 M342.988 1033.71 Q348.798 1033.71 351.854 1038.32 Q354.933 1042.9 354.933 1051.65 Q354.933 1060.38 351.854 1064.99 Q348.798 1069.57 342.988 1069.57 Q337.178 1069.57 334.099 1064.99 Q331.044 1060.38 331.044 1051.65 Q331.044 1042.9 334.099 1038.32 Q337.178 1033.71 342.988 1033.71 Z" fill="#000000" fill-rule="nonzero" fill-opacity="1" /><path clip-path="url(#clip860)" d="M1073.4 1064.96 L1081.04 1064.96 L1081.04 1038.6 L1072.73 1040.26 L1072.73 1036 L1081 1034.34 L1085.67 1034.34 L1085.67 1064.96 L1093.31 1064.96 L1093.31 1068.9 L1073.4 1068.9 L1073.4 1064.96 Z" fill="#000000" fill-rule="nonzero" fill-opacity="1" /><path clip-path="url(#clip860)" d="M1112.75 1037.42 Q1109.14 1037.42 1107.32 1040.98 Q1105.51 1044.52 1105.51 1051.65 Q1105.51 1058.76 1107.32 1062.32 Q1109.14 1065.87 1112.75 1065.87 Q1116.39 1065.87 1118.19 1062.32 Q1120.02 1058.76 1120.02 1051.65 Q1120.02 1044.52 1118.19 1040.98 Q1116.39 1037.42 1112.75 1037.42 M1112.75 1033.71 Q1118.57 1033.71 1121.62 1038.32 Q1124.7 1042.9 1124.7 1051.65 Q1124.7 1060.38 1121.62 1064.99 Q1118.57 1069.57 1112.75 1069.57 Q1106.94 1069.57 1103.87 1064.99 Q1100.81 1060.38 1100.81 1051.65 Q1100.81 1042.9 1103.87 1038.32 Q1106.94 1033.71 1112.75 1033.71 Z" fill="#000000" fill-rule="nonzero" fill-opacity="1" /><path clip-path="url(#clip860)" d="M1142.92 1037.42 Q1139.31 1037.42 1137.48 1040.98 Q1135.67 1044.52 1135.67 1051.65 Q1135.67 1058.76 1137.48 1062.32 Q1139.31 1065.87 1142.92 1065.87 Q1146.55 1065.87 1148.36 1062.32 Q1150.19 1058.76 1150.19 1051.65 Q1150.19 1044.52 1148.36 1040.98 Q1146.55 1037.42 1142.92 1037.42 M1142.92 1033.71 Q1148.73 1033.71 1151.78 1038.32 Q1154.86 1042.9 1154.86 1051.65 Q1154.86 1060.38 1151.78 1064.99 Q1148.73 1069.57 1142.92 1069.57 Q1137.11 1069.57 1134.03 1064.99 Q1130.97 1060.38 1130.97 1051.65 Q1130.97 1042.9 1134.03 1038.32 Q1137.11 1033.71 1142.92 1033.71 Z" fill="#000000" fill-rule="nonzero" fill-opacity="1" /><path clip-path="url(#clip860)" d="M1848.3 1064.96 L1864.62 1064.96 L1864.62 1068.9 L1842.67 1068.9 L1842.67 1064.96 Q1845.33 1062.21 1849.92 1057.58 Q1854.52 1052.93 1855.7 1051.58 Q1857.95 1049.06 1858.83 1047.32 Q1859.73 1045.56 1859.73 1043.87 Q1859.73 1041.12 1857.79 1039.38 Q1855.87 1037.65 1852.76 1037.65 Q1850.57 1037.65 1848.11 1038.41 Q1845.68 1039.18 1842.9 1040.73 L1842.9 1036 Q1845.73 1034.87 1848.18 1034.29 Q1850.64 1033.71 1852.67 1033.71 Q1858.04 1033.71 1861.24 1036.4 Q1864.43 1039.08 1864.43 1043.57 Q1864.43 1045.7 1863.62 1047.62 Q1862.83 1049.52 1860.73 1052.12 Q1860.15 1052.79 1857.05 1056 Q1853.95 1059.2 1848.3 1064.96 Z" fill="#000000" fill-rule="nonzero" fill-opacity="1" /><path clip-path="url(#clip860)" d="M1884.43 1037.42 Q1880.82 1037.42 1878.99 1040.98 Q1877.19 1044.52 1877.19 1051.65 Q1877.19 1058.76 1878.99 1062.32 Q1880.82 1065.87 1884.43 1065.87 Q1888.07 1065.87 1889.87 1062.32 Q1891.7 1058.76 1891.7 1051.65 Q1891.7 1044.52 1889.87 1040.98 Q1888.07 1037.42 1884.43 1037.42 M1884.43 1033.71 Q1890.24 1033.71 1893.3 1038.32 Q1896.38 1042.9 1896.38 1051.65 Q1896.38 1060.38 1893.3 1064.99 Q1890.24 1069.57 1884.43 1069.57 Q1878.62 1069.57 1875.54 1064.99 Q1872.49 1060.38 1872.49 1051.65 Q1872.49 1042.9 1875.54 1038.32 Q1878.62 1033.71 1884.43 1033.71 Z" fill="#000000" fill-rule="nonzero" fill-opacity="1" /><path clip-path="url(#clip860)" d="M1914.59 1037.42 Q1910.98 1037.42 1909.15 1040.98 Q1907.35 1044.52 1907.35 1051.65 Q1907.35 1058.76 1909.15 1062.32 Q1910.98 1065.87 1914.59 1065.87 Q1918.23 1065.87 1920.03 1062.32 Q1921.86 1058.76 1921.86 1051.65 Q1921.86 1044.52 1920.03 1040.98 Q1918.23 1037.42 1914.59 1037.42 M1914.59 1033.71 Q1920.4 1033.71 1923.46 1038.32 Q1926.54 1042.9 1926.54 1051.65 Q1926.54 1060.38 1923.46 1064.99 Q1920.4 1069.57 1914.59 1069.57 Q1908.78 1069.57 1905.7 1064.99 Q1902.65 1060.38 1902.65 1051.65 Q1902.65 1042.9 1905.7 1038.32 Q1908.78 1033.71 1914.59 1033.71 Z" fill="#000000" fill-rule="nonzero" fill-opacity="1" /><path clip-path="url(#clip860)" d="M2629.17 1050.26 Q2632.53 1050.98 2634.41 1053.25 Q2636.3 1055.52 2636.3 1058.85 Q2636.3 1063.97 2632.79 1066.77 Q2629.27 1069.57 2622.79 1069.57 Q2620.61 1069.57 2618.3 1069.13 Q2616 1068.71 2613.55 1067.86 L2613.55 1063.34 Q2615.49 1064.48 2617.81 1065.06 Q2620.12 1065.63 2622.65 1065.63 Q2627.05 1065.63 2629.34 1063.9 Q2631.65 1062.16 2631.65 1058.85 Q2631.65 1055.8 2629.5 1054.08 Q2627.37 1052.35 2623.55 1052.35 L2619.52 1052.35 L2619.52 1048.5 L2623.74 1048.5 Q2627.18 1048.5 2629.01 1047.14 Q2630.84 1045.75 2630.84 1043.16 Q2630.84 1040.5 2628.94 1039.08 Q2627.07 1037.65 2623.55 1037.65 Q2621.63 1037.65 2619.43 1038.06 Q2617.23 1038.48 2614.59 1039.36 L2614.59 1035.19 Q2617.25 1034.45 2619.57 1034.08 Q2621.91 1033.71 2623.97 1033.71 Q2629.29 1033.71 2632.39 1036.14 Q2635.49 1038.55 2635.49 1042.67 Q2635.49 1045.54 2633.85 1047.53 Q2632.21 1049.5 2629.17 1050.26 Z" fill="#000000" fill-rule="nonzero" fill-opacity="1" /><path clip-path="url(#clip860)" d="M2655.17 1037.42 Q2651.56 1037.42 2649.73 1040.98 Q2647.92 1044.52 2647.92 1051.65 Q2647.92 1058.76 2649.73 1062.32 Q2651.56 1065.87 2655.17 1065.87 Q2658.8 1065.87 2660.61 1062.32 Q2662.44 1058.76 2662.44 1051.65 Q2662.44 1044.52 2660.61 1040.98 Q2658.8 1037.42 2655.17 1037.42 M2655.17 1033.71 Q2660.98 1033.71 2664.04 1038.32 Q2667.11 1042.9 2667.11 1051.65 Q2667.11 1060.38 2664.04 1064.99 Q2660.98 1069.57 2655.17 1069.57 Q2649.36 1069.57 2646.28 1064.99 Q2643.23 1060.38 2643.23 1051.65 Q2643.23 1042.9 2646.28 1038.32 Q2649.36 1033.71 2655.17 1033.71 Z" fill="#000000" fill-rule="nonzero" fill-opacity="1" /><path clip-path="url(#clip860)" d="M2685.33 1037.42 Q2681.72 1037.42 2679.89 1040.98 Q2678.09 1044.52 2678.09 1051.65 Q2678.09 1058.76 2679.89 1062.32 Q2681.72 1065.87 2685.33 1065.87 Q2688.97 1065.87 2690.77 1062.32 Q2692.6 1058.76 2692.6 1051.65 Q2692.6 1044.52 2690.77 1040.98 Q2688.97 1037.42 2685.33 1037.42 M2685.33 1033.71 Q2691.14 1033.71 2694.2 1038.32 Q2697.28 1042.9 2697.28 1051.65 Q2697.28 1060.38 2694.2 1064.99 Q2691.14 1069.57 2685.33 1069.57 Q2679.52 1069.57 2676.44 1064.99 Q2673.39 1060.38 2673.39 1051.65 Q2673.39 1042.9 2676.44 1038.32 Q2679.52 1033.71 2685.33 1033.71 Z" fill="#000000" fill-rule="nonzero" fill-opacity="1" /><path clip-path="url(#clip860)" d="M1556.64 1109.44 L1563.07 1109.44 L1563.07 1151.55 L1586.21 1151.55 L1586.21 1156.96 L1556.64 1156.96 L1556.64 1109.44 Z" fill="#000000" fill-rule="nonzero" fill-opacity="1" /><path clip-path="url(#clip860)" d="M1592.7 1121.31 L1598.56 1121.31 L1598.56 1156.96 L1592.7 1156.96 L1592.7 1121.31 M1592.7 1107.44 L1598.56 1107.44 L1598.56 1114.85 L1592.7 1114.85 L1592.7 1107.44 Z" fill="#000000" fill-rule="nonzero" fill-opacity="1" /><path clip-path="url(#clip860)" d="M1640.44 1135.45 L1640.44 1156.96 L1634.59 1156.96 L1634.59 1135.64 Q1634.59 1130.58 1632.61 1128.06 Q1630.64 1125.55 1626.69 1125.55 Q1621.95 1125.55 1619.21 1128.57 Q1616.48 1131.59 1616.48 1136.81 L1616.48 1156.96 L1610.59 1156.96 L1610.59 1121.31 L1616.48 1121.31 L1616.48 1126.85 Q1618.58 1123.64 1621.41 1122.05 Q1624.27 1120.45 1628 1120.45 Q1634.14 1120.45 1637.29 1124.27 Q1640.44 1128.06 1640.44 1135.45 Z" fill="#000000" fill-rule="nonzero" fill-opacity="1" /><path clip-path="url(#clip860)" d="M1682.62 1137.67 L1682.62 1140.54 L1655.69 1140.54 Q1656.07 1146.59 1659.32 1149.77 Q1662.6 1152.92 1668.42 1152.92 Q1671.79 1152.92 1674.95 1152.09 Q1678.13 1151.26 1681.25 1149.61 L1681.25 1155.15 Q1678.1 1156.48 1674.79 1157.18 Q1671.48 1157.88 1668.07 1157.88 Q1659.54 1157.88 1654.54 1152.92 Q1649.58 1147.95 1649.58 1139.49 Q1649.58 1130.74 1654.29 1125.61 Q1659.03 1120.45 1667.05 1120.45 Q1674.25 1120.45 1678.42 1125.1 Q1682.62 1129.72 1682.62 1137.67 M1676.76 1135.95 Q1676.7 1131.15 1674.05 1128.28 Q1671.44 1125.42 1667.12 1125.42 Q1662.21 1125.42 1659.25 1128.19 Q1656.33 1130.96 1655.88 1135.99 L1676.76 1135.95 Z" fill="#000000" fill-rule="nonzero" fill-opacity="1" /><path clip-path="url(#clip860)" d="M1708.43 1139.04 Q1701.33 1139.04 1698.59 1140.67 Q1695.86 1142.29 1695.86 1146.2 Q1695.86 1149.32 1697.89 1151.17 Q1699.96 1152.98 1703.5 1152.98 Q1708.37 1152.98 1711.29 1149.55 Q1714.25 1146.08 1714.25 1140.35 L1714.25 1139.04 L1708.43 1139.04 M1720.11 1136.62 L1720.11 1156.96 L1714.25 1156.96 L1714.25 1151.55 Q1712.25 1154.8 1709.26 1156.36 Q1706.27 1157.88 1701.94 1157.88 Q1696.46 1157.88 1693.22 1154.83 Q1690 1151.74 1690 1146.59 Q1690 1140.57 1694.01 1137.51 Q1698.05 1134.46 1706.04 1134.46 L1714.25 1134.46 L1714.25 1133.89 Q1714.25 1129.84 1711.58 1127.65 Q1708.94 1125.42 1704.13 1125.42 Q1701.08 1125.42 1698.18 1126.15 Q1695.28 1126.88 1692.61 1128.35 L1692.61 1122.94 Q1695.83 1121.7 1698.85 1121.09 Q1701.87 1120.45 1704.74 1120.45 Q1712.47 1120.45 1716.29 1124.46 Q1720.11 1128.48 1720.11 1136.62 Z" fill="#000000" fill-rule="nonzero" fill-opacity="1" /><path clip-path="url(#clip860)" d="M1755.63 1138.72 Q1755.63 1132.36 1752.99 1128.86 Q1750.38 1125.36 1745.64 1125.36 Q1740.93 1125.36 1738.28 1128.86 Q1735.67 1132.36 1735.67 1138.72 Q1735.67 1145.06 1738.28 1148.56 Q1740.93 1152.06 1745.64 1152.06 Q1750.38 1152.06 1752.99 1148.56 Q1755.63 1145.06 1755.63 1138.72 M1761.49 1152.54 Q1761.49 1161.64 1757.45 1166.06 Q1753.4 1170.52 1745.06 1170.52 Q1741.98 1170.52 1739.24 1170.04 Q1736.5 1169.6 1733.92 1168.64 L1733.92 1162.95 Q1736.5 1164.35 1739.02 1165.01 Q1741.53 1165.68 1744.14 1165.68 Q1749.9 1165.68 1752.77 1162.66 Q1755.63 1159.67 1755.63 1153.59 L1755.63 1150.69 Q1753.82 1153.84 1750.98 1155.4 Q1748.15 1156.96 1744.2 1156.96 Q1737.65 1156.96 1733.64 1151.96 Q1729.63 1146.97 1729.63 1138.72 Q1729.63 1130.45 1733.64 1125.45 Q1737.65 1120.45 1744.2 1120.45 Q1748.15 1120.45 1750.98 1122.01 Q1753.82 1123.57 1755.63 1126.72 L1755.63 1121.31 L1761.49 1121.31 L1761.49 1152.54 Z" fill="#000000" fill-rule="nonzero" fill-opacity="1" /><path clip-path="url(#clip860)" d="M1804.04 1137.67 L1804.04 1140.54 L1777.12 1140.54 Q1777.5 1146.59 1780.74 1149.77 Q1784.02 1152.92 1789.85 1152.92 Q1793.22 1152.92 1796.37 1152.09 Q1799.55 1151.26 1802.67 1149.61 L1802.67 1155.15 Q1799.52 1156.48 1796.21 1157.18 Q1792.9 1157.88 1789.5 1157.88 Q1780.97 1157.88 1775.97 1152.92 Q1771 1147.95 1771 1139.49 Q1771 1130.74 1775.71 1125.61 Q1780.46 1120.45 1788.48 1120.45 Q1795.67 1120.45 1799.84 1125.1 Q1804.04 1129.72 1804.04 1137.67 M1798.19 1135.95 Q1798.12 1131.15 1795.48 1128.28 Q1792.87 1125.42 1788.54 1125.42 Q1783.64 1125.42 1780.68 1128.19 Q1777.75 1130.96 1777.31 1135.99 L1798.19 1135.95 Z" fill="#000000" fill-rule="nonzero" fill-opacity="1" /><polyline clip-path="url(#clip862)" style="stroke:#000000; stroke-linecap:round; stroke-linejoin:round; stroke-width:2; stroke-opacity:0.1; fill:none" points="270.918,1000.1 3089.76,1000.1 "/>
<polyline clip-path="url(#clip862)" style="stroke:#000000; stroke-linecap:round; stroke-linejoin:round; stroke-width:2; stroke-opacity:0.1; fill:none" points="270.918,678.66 3089.76,678.66 "/>
<polyline clip-path="url(#clip862)" style="stroke:#000000; stroke-linecap:round; stroke-linejoin:round; stroke-width:2; stroke-opacity:0.1; fill:none" points="270.918,357.222 3089.76,357.222 "/>
<polyline clip-path="url(#clip860)" style="stroke:#000000; stroke-linecap:round; stroke-linejoin:round; stroke-width:4; stroke-opacity:1; fill:none" points="270.918,1000.1 270.918,110.236 "/>
<polyline clip-path="url(#clip860)" style="stroke:#000000; stroke-linecap:round; stroke-linejoin:round; stroke-width:4; stroke-opacity:1; fill:none" points="270.918,1000.1 289.815,1000.1 "/>
<polyline clip-path="url(#clip860)" style="stroke:#000000; stroke-linecap:round; stroke-linejoin:round; stroke-width:4; stroke-opacity:1; fill:none" points="270.918,678.66 289.815,678.66 "/>
<polyline clip-path="url(#clip860)" style="stroke:#000000; stroke-linecap:round; stroke-linejoin:round; stroke-width:4; stroke-opacity:1; fill:none" points="270.918,357.222 289.815,357.222 "/>
<path clip-path="url(#clip860)" d="M154.902 1019.89 L162.54 1019.89 L162.54 993.525 L154.23 995.191 L154.23 990.932 L162.494 989.265 L167.17 989.265 L167.17 1019.89 L174.809 1019.89 L174.809 1023.83 L154.902 1023.83 L154.902 1019.89 Z" fill="#000000" fill-rule="nonzero" fill-opacity="1" /><path clip-path="url(#clip860)" d="M194.253 992.344 Q190.642 992.344 188.813 995.909 Q187.008 999.45 187.008 1006.58 Q187.008 1013.69 188.813 1017.25 Q190.642 1020.79 194.253 1020.79 Q197.887 1020.79 199.693 1017.25 Q201.522 1013.69 201.522 1006.58 Q201.522 999.45 199.693 995.909 Q197.887 992.344 194.253 992.344 M194.253 988.64 Q200.063 988.64 203.119 993.247 Q206.198 997.83 206.198 1006.58 Q206.198 1015.31 203.119 1019.91 Q200.063 1024.5 194.253 1024.5 Q188.443 1024.5 185.364 1019.91 Q182.309 1015.31 182.309 1006.58 Q182.309 997.83 185.364 993.247 Q188.443 988.64 194.253 988.64 Z" fill="#000000" fill-rule="nonzero" fill-opacity="1" /><path clip-path="url(#clip860)" d="M206.743 993.218 L212.95 993.218 L212.95 971.796 L206.198 973.15 L206.198 969.689 L212.912 968.335 L216.711 968.335 L216.711 993.218 L222.918 993.218 L222.918 996.415 L206.743 996.415 L206.743 993.218 Z" fill="#000000" fill-rule="nonzero" fill-opacity="1" /><path clip-path="url(#clip860)" d="M153.792 698.452 L161.431 698.452 L161.431 672.087 L153.121 673.753 L153.121 669.494 L161.384 667.828 L166.06 667.828 L166.06 698.452 L173.699 698.452 L173.699 702.388 L153.792 702.388 L153.792 698.452 Z" fill="#000000" fill-rule="nonzero" fill-opacity="1" /><path clip-path="url(#clip860)" d="M193.143 670.906 Q189.532 670.906 187.704 674.471 Q185.898 678.013 185.898 685.142 Q185.898 692.249 187.704 695.814 Q189.532 699.355 193.143 699.355 Q196.778 699.355 198.583 695.814 Q200.412 692.249 200.412 685.142 Q200.412 678.013 198.583 674.471 Q196.778 670.906 193.143 670.906 M193.143 667.203 Q198.954 667.203 202.009 671.809 Q205.088 676.392 205.088 685.142 Q205.088 693.869 202.009 698.476 Q198.954 703.059 193.143 703.059 Q187.333 703.059 184.255 698.476 Q181.199 693.869 181.199 685.142 Q181.199 676.392 184.255 671.809 Q187.333 667.203 193.143 667.203 Z" fill="#000000" fill-rule="nonzero" fill-opacity="1" /><path clip-path="url(#clip860)" d="M209.658 671.78 L222.918 671.78 L222.918 674.977 L205.088 674.977 L205.088 671.78 Q207.251 669.542 210.975 665.78 Q214.717 662 215.677 660.909 Q217.501 658.859 218.216 657.448 Q218.949 656.019 218.949 654.646 Q218.949 652.408 217.369 650.997 Q215.808 649.587 213.288 649.587 Q211.501 649.587 209.508 650.207 Q207.533 650.828 205.276 652.088 L205.276 648.251 Q207.57 647.33 209.564 646.86 Q211.558 646.389 213.213 646.389 Q217.576 646.389 220.172 648.571 Q222.767 650.753 222.767 654.401 Q222.767 656.132 222.109 657.693 Q221.469 659.235 219.758 661.342 Q219.288 661.887 216.767 664.501 Q214.247 667.097 209.658 671.78 Z" fill="#000000" fill-rule="nonzero" fill-opacity="1" /><path clip-path="url(#clip860)" d="M153.134 377.015 L160.772 377.015 L160.772 350.649 L152.462 352.316 L152.462 348.057 L160.726 346.39 L165.402 346.39 L165.402 377.015 L173.041 377.015 L173.041 380.95 L153.134 380.95 L153.134 377.015 Z" fill="#000000" fill-rule="nonzero" fill-opacity="1" /><path clip-path="url(#clip860)" d="M192.485 349.469 Q188.874 349.469 187.045 353.033 Q185.24 356.575 185.24 363.705 Q185.24 370.811 187.045 374.376 Q188.874 377.917 192.485 377.917 Q196.119 377.917 197.925 374.376 Q199.754 370.811 199.754 363.705 Q199.754 356.575 197.925 353.033 Q196.119 349.469 192.485 349.469 M192.485 345.765 Q198.295 345.765 201.351 350.371 Q204.43 354.955 204.43 363.705 Q204.43 372.431 201.351 377.038 Q198.295 381.621 192.485 381.621 Q186.675 381.621 183.596 377.038 Q180.541 372.431 180.541 363.705 Q180.541 354.955 183.596 350.371 Q186.675 345.765 192.485 345.765 Z" fill="#000000" fill-rule="nonzero" fill-opacity="1" /><path clip-path="url(#clip860)" d="M217.125 338.399 Q219.852 338.982 221.375 340.825 Q222.918 342.669 222.918 345.377 Q222.918 349.533 220.059 351.809 Q217.2 354.085 211.934 354.085 Q210.166 354.085 208.285 353.728 Q206.423 353.389 204.43 352.693 L204.43 349.026 Q206.009 349.947 207.89 350.417 Q209.771 350.888 211.821 350.888 Q215.395 350.888 217.256 349.477 Q219.137 348.066 219.137 345.377 Q219.137 342.894 217.388 341.502 Q215.658 340.092 212.555 340.092 L209.282 340.092 L209.282 336.97 L212.705 336.97 Q215.507 336.97 216.993 335.86 Q218.479 334.732 218.479 332.625 Q218.479 330.462 216.937 329.315 Q215.413 328.149 212.555 328.149 Q210.994 328.149 209.207 328.488 Q207.42 328.826 205.276 329.541 L205.276 326.155 Q207.439 325.553 209.32 325.253 Q211.219 324.952 212.893 324.952 Q217.219 324.952 219.739 326.926 Q222.259 328.882 222.259 332.23 Q222.259 334.562 220.924 336.18 Q219.589 337.779 217.125 338.399 Z" fill="#000000" fill-rule="nonzero" fill-opacity="1" /><path clip-path="url(#clip860)" d="M42.6863 932.972 L42.6863 902.926 L48.0971 902.926 L48.0971 926.542 L62.1653 926.542 L62.1653 903.912 L67.5762 903.912 L67.5762 926.542 L84.7954 926.542 L84.7954 902.353 L90.2063 902.353 L90.2063 932.972 L42.6863 932.972 Z" fill="#000000" fill-rule="nonzero" fill-opacity="1" /><path clip-path="url(#clip860)" d="M44.2459 863.299 L50.5161 863.299 Q48.7655 866.959 47.9062 870.206 Q47.0468 873.452 47.0468 876.476 Q47.0468 881.728 49.0838 884.592 Q51.1208 887.425 54.8766 887.425 Q58.0276 887.425 59.6509 885.547 Q61.2423 883.637 62.229 878.354 L63.0247 874.471 Q64.3933 867.278 67.8627 863.872 Q71.3001 860.434 77.0929 860.434 Q83.9997 860.434 87.5645 865.081 Q91.1293 869.697 91.1293 878.64 Q91.1293 882.014 90.3654 885.834 Q89.6015 889.621 88.1056 893.695 L81.4853 893.695 Q83.6814 889.78 84.7954 886.025 Q85.9094 882.269 85.9094 878.64 Q85.9094 873.134 83.7451 870.142 Q81.5808 867.15 77.5704 867.15 Q74.0692 867.15 72.0958 869.315 Q70.1225 871.447 69.1358 876.349 L68.3719 880.264 Q66.9396 887.457 63.8841 890.672 Q60.8285 893.886 55.3859 893.886 Q49.0838 893.886 45.4554 889.462 Q41.8269 885.006 41.8269 877.208 Q41.8269 873.866 42.4317 870.397 Q43.0364 866.927 44.2459 863.299 Z" fill="#000000" fill-rule="nonzero" fill-opacity="1" /><path clip-path="url(#clip860)" d="M44.2459 821.922 L50.5161 821.922 Q48.7655 825.582 47.9062 828.829 Q47.0468 832.075 47.0468 835.099 Q47.0468 840.351 49.0838 843.215 Q51.1208 846.048 54.8766 846.048 Q58.0276 846.048 59.6509 844.17 Q61.2423 842.26 62.229 836.977 L63.0247 833.094 Q64.3933 825.9 67.8627 822.495 Q71.3001 819.057 77.0929 819.057 Q83.9997 819.057 87.5645 823.704 Q91.1293 828.319 91.1293 837.263 Q91.1293 840.637 90.3654 844.457 Q89.6015 848.244 88.1056 852.318 L81.4853 852.318 Q83.6814 848.403 84.7954 844.647 Q85.9094 840.892 85.9094 837.263 Q85.9094 831.757 83.7451 828.765 Q81.5808 825.773 77.5704 825.773 Q74.0692 825.773 72.0958 827.937 Q70.1225 830.07 69.1358 834.972 L68.3719 838.887 Q66.9396 846.08 63.8841 849.294 Q60.8285 852.509 55.3859 852.509 Q49.0838 852.509 45.4554 848.085 Q41.8269 843.629 41.8269 835.831 Q41.8269 832.489 42.4317 829.02 Q43.0364 825.55 44.2459 821.922 Z" fill="#000000" fill-rule="nonzero" fill-opacity="1" /><path clip-path="url(#clip860)" d="M82.1218 807.79 L82.1218 801.074 L90.2063 801.074 L90.2063 807.79 L82.1218 807.79 M56.4999 807.79 L56.4999 801.074 L64.5843 801.074 L64.5843 807.79 L56.4999 807.79 Z" fill="#000000" fill-rule="nonzero" fill-opacity="1" /><path clip-path="url(#clip860)" d="M42.6863 766.349 L42.6863 736.303 L48.0971 736.303 L48.0971 759.92 L62.1653 759.92 L62.1653 737.29 L67.5762 737.29 L67.5762 759.92 L84.7954 759.92 L84.7954 735.73 L90.2063 735.73 L90.2063 766.349 L42.6863 766.349 Z" fill="#000000" fill-rule="nonzero" fill-opacity="1" /><path clip-path="url(#clip860)" d="M68.6902 695.785 L90.2063 695.785 L90.2063 701.642 L68.8812 701.642 Q63.8204 701.642 61.306 703.615 Q58.7915 705.589 58.7915 709.535 Q58.7915 714.278 61.8152 717.015 Q64.8389 719.752 70.0588 719.752 L90.2063 719.752 L90.2063 725.641 L54.5583 725.641 L54.5583 719.752 L60.0965 719.752 Q56.8818 717.652 55.2904 714.819 Q53.699 711.954 53.699 708.23 Q53.699 702.087 57.5184 698.936 Q61.306 695.785 68.6902 695.785 Z" fill="#000000" fill-rule="nonzero" fill-opacity="1" /><path clip-path="url(#clip860)" d="M71.9685 660.647 Q65.6028 660.647 62.1017 663.288 Q58.6006 665.898 58.6006 670.641 Q58.6006 675.352 62.1017 677.993 Q65.6028 680.603 71.9685 680.603 Q78.3024 680.603 81.8036 677.993 Q85.3047 675.352 85.3047 670.641 Q85.3047 665.898 81.8036 663.288 Q78.3024 660.647 71.9685 660.647 M85.7821 654.79 Q94.8851 654.79 99.3092 658.833 Q103.765 662.875 103.765 671.214 Q103.765 674.301 103.288 677.038 Q102.842 679.776 101.887 682.354 L96.19 682.354 Q97.5905 679.776 98.2589 677.261 Q98.9273 674.747 98.9273 672.137 Q98.9273 666.376 95.9036 663.511 Q92.9117 660.647 86.8325 660.647 L83.9361 660.647 Q87.0871 662.461 88.6467 665.294 Q90.2063 668.126 90.2063 672.073 Q90.2063 678.63 85.2092 682.64 Q80.2121 686.651 71.9685 686.651 Q63.6931 686.651 58.696 682.64 Q53.699 678.63 53.699 672.073 Q53.699 668.126 55.2586 665.294 Q56.8182 662.461 59.9692 660.647 L54.5583 660.647 L54.5583 654.79 L85.7821 654.79 Z" fill="#000000" fill-rule="nonzero" fill-opacity="1" /><path clip-path="url(#clip860)" d="M40.6811 642.727 L40.6811 636.871 L90.2063 636.871 L90.2063 642.727 L40.6811 642.727 Z" fill="#000000" fill-rule="nonzero" fill-opacity="1" /><path clip-path="url(#clip860)" d="M72.2868 608.416 Q72.2868 615.514 73.9101 618.251 Q75.5333 620.988 79.4482 620.988 Q82.5674 620.988 84.4135 618.951 Q86.2277 616.882 86.2277 613.35 Q86.2277 608.48 82.7902 605.552 Q79.3209 602.591 73.5918 602.591 L72.2868 602.591 L72.2868 608.416 M69.8679 596.735 L90.2063 596.735 L90.2063 602.591 L84.7954 602.591 Q88.0419 604.597 89.6015 607.589 Q91.1293 610.58 91.1293 614.909 Q91.1293 620.384 88.0738 623.63 Q84.9864 626.845 79.8302 626.845 Q73.8146 626.845 70.759 622.834 Q67.7035 618.792 67.7035 610.803 L67.7035 602.591 L67.1306 602.591 Q63.0884 602.591 60.8922 605.265 Q58.6642 607.907 58.6642 612.713 Q58.6642 615.768 59.3963 618.665 Q60.1283 621.561 61.5924 624.235 L56.1816 624.235 Q54.9403 621.02 54.3355 617.996 Q53.699 614.973 53.699 612.108 Q53.699 604.374 57.7094 600.554 Q61.7197 596.735 69.8679 596.735 Z" fill="#000000" fill-rule="nonzero" fill-opacity="1" /><path clip-path="url(#clip860)" d="M68.6902 555.04 L90.2063 555.04 L90.2063 560.896 L68.8812 560.896 Q63.8204 560.896 61.306 562.869 Q58.7915 564.843 58.7915 568.79 Q58.7915 573.532 61.8152 576.269 Q64.8389 579.007 70.0588 579.007 L90.2063 579.007 L90.2063 584.895 L54.5583 584.895 L54.5583 579.007 L60.0965 579.007 Q56.8818 576.906 55.2904 574.073 Q53.699 571.209 53.699 567.485 Q53.699 561.342 57.5184 558.191 Q61.306 555.04 68.6902 555.04 Z" fill="#000000" fill-rule="nonzero" fill-opacity="1" /><path clip-path="url(#clip860)" d="M59.9692 519.901 L40.6811 519.901 L40.6811 514.045 L90.2063 514.045 L90.2063 519.901 L84.8591 519.901 Q88.0419 521.747 89.6015 524.58 Q91.1293 527.381 91.1293 531.327 Q91.1293 537.789 85.9731 541.863 Q80.8169 545.905 72.4141 545.905 Q64.0114 545.905 58.8552 541.863 Q53.699 537.789 53.699 531.327 Q53.699 527.381 55.2586 524.58 Q56.7863 521.747 59.9692 519.901 M72.4141 539.857 Q78.8753 539.857 82.5674 537.216 Q86.2277 534.542 86.2277 529.895 Q86.2277 525.248 82.5674 522.575 Q78.8753 519.901 72.4141 519.901 Q65.9529 519.901 62.2927 522.575 Q58.6006 525.248 58.6006 529.895 Q58.6006 534.542 62.2927 537.216 Q65.9529 539.857 72.4141 539.857 Z" fill="#000000" fill-rule="nonzero" fill-opacity="1" /><path clip-path="url(#clip860)" d="M82.1218 500.486 L82.1218 493.77 L87.5963 493.77 L97.7815 498.99 L97.7815 503.095 L87.5963 500.486 L82.1218 500.486 Z" fill="#000000" fill-rule="nonzero" fill-opacity="1" /><path clip-path="url(#clip860)" d="M44.4369 454.748 L54.5583 454.748 L54.5583 442.685 L59.1098 442.685 L59.1098 454.748 L78.4616 454.748 Q82.8221 454.748 84.0634 453.57 Q85.3047 452.361 85.3047 448.701 L85.3047 442.685 L90.2063 442.685 L90.2063 448.701 Q90.2063 455.48 87.6918 458.058 Q85.1455 460.636 78.4616 460.636 L59.1098 460.636 L59.1098 464.933 L54.5583 464.933 L54.5583 460.636 L44.4369 460.636 L44.4369 454.748 Z" fill="#000000" fill-rule="nonzero" fill-opacity="1" /><path clip-path="url(#clip860)" d="M54.5583 434.982 L54.5583 429.126 L90.2063 429.126 L90.2063 434.982 L54.5583 434.982 M40.6811 434.982 L40.6811 429.126 L48.0971 429.126 L48.0971 434.982 L40.6811 434.982 Z" fill="#000000" fill-rule="nonzero" fill-opacity="1" /><path clip-path="url(#clip860)" d="M61.4015 389.118 Q57.4547 386.921 55.5768 383.866 Q53.699 380.81 53.699 376.673 Q53.699 371.103 57.6139 368.079 Q61.4969 365.055 68.6902 365.055 L90.2063 365.055 L90.2063 370.943 L68.8812 370.943 Q63.7568 370.943 61.2741 372.758 Q58.7915 374.572 58.7915 378.296 Q58.7915 382.847 61.8152 385.489 Q64.8389 388.131 70.0588 388.131 L90.2063 388.131 L90.2063 394.019 L68.8812 394.019 Q63.7249 394.019 61.2741 395.833 Q58.7915 397.648 58.7915 401.435 Q58.7915 405.923 61.8471 408.565 Q64.8708 411.207 70.0588 411.207 L90.2063 411.207 L90.2063 417.095 L54.5583 417.095 L54.5583 411.207 L60.0965 411.207 Q56.8182 409.201 55.2586 406.4 Q53.699 403.599 53.699 399.748 Q53.699 395.865 55.6723 393.16 Q57.6457 390.422 61.4015 389.118 Z" fill="#000000" fill-rule="nonzero" fill-opacity="1" /><path clip-path="url(#clip860)" d="M70.9182 322.882 L73.7828 322.882 L73.7828 349.809 Q79.8302 349.427 83.013 346.181 Q86.1641 342.902 86.1641 337.078 Q86.1641 333.704 85.3365 330.553 Q84.509 327.37 82.8539 324.251 L88.3921 324.251 Q89.7289 327.402 90.4291 330.712 Q91.1293 334.022 91.1293 337.428 Q91.1293 345.958 86.1641 350.955 Q81.1988 355.92 72.7324 355.92 Q63.9796 355.92 58.8552 351.21 Q53.699 346.467 53.699 338.446 Q53.699 331.253 58.3459 327.084 Q62.9611 322.882 70.9182 322.882 M69.1995 328.739 Q64.3933 328.802 61.5288 331.444 Q58.6642 334.054 58.6642 338.383 Q58.6642 343.284 61.4333 346.244 Q64.2024 349.173 69.2313 349.618 L69.1995 328.739 Z" fill="#000000" fill-rule="nonzero" fill-opacity="1" /><path clip-path="url(#clip860)" d="M82.1218 311.774 L82.1218 305.058 L90.2063 305.058 L90.2063 311.774 L82.1218 311.774 M56.4999 311.774 L56.4999 305.058 L64.5843 305.058 L64.5843 311.774 L56.4999 311.774 Z" fill="#000000" fill-rule="nonzero" fill-opacity="1" /><path clip-path="url(#clip860)" d="M84.7954 289.367 L84.7954 278.863 L48.5427 278.863 L50.8344 290.29 L44.9779 290.29 L42.6863 278.927 L42.6863 272.498 L84.7954 272.498 L84.7954 261.994 L90.2063 261.994 L90.2063 289.367 L84.7954 289.367 Z" fill="#000000" fill-rule="nonzero" fill-opacity="1" /><path clip-path="url(#clip860)" d="M46.9195 235.258 Q46.9195 240.224 51.8211 242.738 Q56.6908 245.221 66.494 245.221 Q76.2654 245.221 81.167 242.738 Q86.0367 240.224 86.0367 235.258 Q86.0367 230.261 81.167 227.779 Q76.2654 225.264 66.494 225.264 Q56.6908 225.264 51.8211 227.779 Q46.9195 230.261 46.9195 235.258 M41.8269 235.258 Q41.8269 227.269 48.1608 223.068 Q54.4628 218.835 66.494 218.835 Q78.4934 218.835 84.8273 223.068 Q91.1293 227.269 91.1293 235.258 Q91.1293 243.247 84.8273 247.481 Q78.4934 251.682 66.494 251.682 Q54.4628 251.682 48.1608 247.481 Q41.8269 243.247 41.8269 235.258 Z" fill="#000000" fill-rule="nonzero" fill-opacity="1" /><path clip-path="url(#clip860)" d="M46.9195 193.786 Q46.9195 198.751 51.8211 201.266 Q56.6908 203.748 66.494 203.748 Q76.2654 203.748 81.167 201.266 Q86.0367 198.751 86.0367 193.786 Q86.0367 188.789 81.167 186.306 Q76.2654 183.792 66.494 183.792 Q56.6908 183.792 51.8211 186.306 Q46.9195 188.789 46.9195 193.786 M41.8269 193.786 Q41.8269 185.797 48.1608 181.595 Q54.4628 177.362 66.494 177.362 Q78.4934 177.362 84.8273 181.595 Q91.1293 185.797 91.1293 193.786 Q91.1293 201.775 84.8273 206.008 Q78.4934 210.209 66.494 210.209 Q54.4628 210.209 48.1608 206.008 Q41.8269 201.775 41.8269 193.786 Z" fill="#000000" fill-rule="nonzero" fill-opacity="1" /><polyline clip-path="url(#clip862)" style="stroke:#009af9; stroke-linecap:round; stroke-linejoin:round; stroke-width:4; stroke-opacity:1; fill:none" points="350.696,475.292 358.404,189.821 366.112,197.651 373.821,187.185 381.529,185.161 389.237,200.376 396.945,164.322 404.653,184.865 412.361,198.282 420.069,167.199 427.777,158.771 435.485,180.476 443.193,188.24 450.901,179.967 458.609,179.896 466.318,174.14 474.026,189.914 481.734,217.466 489.442,200.484 497.15,178.357 504.858,193.715 512.566,185.846 520.274,164.756 527.982,158.739 535.69,191.039 543.398,169.879 551.106,170.54 558.815,195.655 566.523,204.009 574.231,168.204 581.939,181.187 589.647,173.526 597.355,220.506 605.063,181.764 612.771,157.379 620.479,150.252 628.187,166.393 635.895,160.293 643.603,231.808 651.312,187.993 659.02,192.034 666.728,212.759 674.436,189.891 682.144,181.23 689.852,196.275 697.56,173.447 705.268,177.996 712.976,186.494 720.684,192.316 728.392,199.669 736.1,173.419 743.809,190.533 751.517,204.562 759.225,186.637 766.933,177.995 774.641,192.11 782.349,193.145 790.057,162.611 797.765,203.945 805.473,182.948 813.181,190.72 820.889,190.254 828.597,200.061 836.306,184.951 844.014,181.158 851.722,202.892 859.43,214.189 867.138,180.559 874.846,187.784 882.554,167.026 890.262,180.447 897.97,209.761 905.678,110.236 913.386,152.165 921.094,179.338 928.803,202.176 936.511,169.723 944.219,167.429 951.927,225.274 959.635,198.84 967.343,166.039 975.051,180.103 982.759,188.749 990.467,172.768 998.175,201.908 1005.88,196.503 1013.59,151.836 1021.3,194.709 1029.01,193.141 1036.72,181.083 1044.42,189.948 1052.13,219.572 1059.84,200.439 1067.55,225.555 1075.26,182.951 1082.96,191.948 1090.67,197.831 1098.38,186.377 1106.09,194.863 1113.8,194.01 1121.5,179.57 1129.21,200.394 1136.92,184.991 1144.63,189.882 1152.34,182.844 1160.05,160.183 1167.75,201.878 1175.46,192.022 1183.17,202.503 1190.88,179.513 1198.59,181.555 1206.29,177.363 1214,161.723 1221.71,153.132 1229.42,235.987 1237.13,181.381 1244.83,174.172 1252.54,139.16 1260.25,183.789 1267.96,204.275 1275.67,180.713 1283.37,193.379 1291.08,176.95 1298.79,192.598 1306.5,177.251 1314.21,204.503 1321.91,190.193 1329.62,183.612 1337.33,150.644 1345.04,174.363 1352.75,183.447 1360.46,142.172 1368.16,167.696 1375.87,167.953 1383.58,185.916 1391.29,168.793 1399,174.088 1406.7,168.511 1414.41,170.021 1422.12,163.311 1429.83,185.306 1437.54,166.77 1445.24,162.947 1452.95,143.193 1460.66,187.001 1468.37,148.152 1476.08,156.954 1483.78,183.444 1491.49,213.04 1499.2,211.317 1506.91,167.382 1514.62,175.337 1522.32,151.566 1530.03,172.234 1537.74,157.68 1545.45,162.784 1553.16,199.06 1560.87,173.638 1568.57,192.729 1576.28,173.065 1583.99,168.36 1591.7,203.649 1599.41,180.642 1607.11,171.937 1614.82,160.378 1622.53,192.558 1630.24,157.173 1637.95,209.697 1645.65,172.948 1653.36,161.225 1661.07,191.277 1668.78,178.238 1676.49,152.596 1684.19,156.48 1691.9,193.169 1699.61,196.695 1707.32,180.522 1715.03,199.275 1722.74,187.552 1730.44,197.003 1738.15,193.949 1745.86,166.658 1753.57,213.089 1761.28,175.313 1768.98,183.553 1776.69,167.082 1784.4,165.459 1792.11,173.149 1799.82,151.486 1807.52,188.226 1815.23,191.197 1822.94,196.625 1830.65,192.096 1838.36,162.063 1846.06,174.414 1853.77,180.266 1861.48,191.465 1869.19,166.454 1876.9,220.173 1884.6,188.683 1892.31,164.964 1900.02,174.991 1907.73,171.154 1915.44,195.954 1923.15,211.996 1930.85,187.491 1938.56,161.931 1946.27,135.906 1953.98,162.456 1961.69,201.59 1969.39,167.699 1977.1,182.433 1984.81,197.324 1992.52,191.878 2000.23,142.248 2007.93,202.221 2015.64,139.332 2023.35,169.096 2031.06,199.433 2038.77,205.635 2046.47,198.81 2054.18,209.311 2061.89,177.211 2069.6,177.363 2077.31,192.298 2085.02,172.796 2092.72,188.215 2100.43,171.021 2108.14,185.443 2115.85,173.565 2123.56,211.171 2131.26,149.348 2138.97,182.774 2146.68,194.937 2154.39,179.191 2162.1,201.846 2169.8,180.73 2177.51,162.248 2185.22,173.305 2192.93,200.375 2200.64,207.748 2208.34,196.574 2216.05,180.529 2223.76,201.054 2231.47,168.595 2239.18,178.112 2246.88,189.312 2254.59,179.806 2262.3,174.069 2270.01,192.259 2277.72,193.047 2285.43,164.137 2293.13,147.406 2300.84,168.397 2308.55,201.92 2316.26,179.704 2323.97,162.143 2331.67,201.626 2339.38,161.028 2347.09,184.9 2354.8,169.966 2362.51,187.891 2370.21,202.349 2377.92,207.424 2385.63,174.68 2393.34,156.581 2401.05,193.894 2408.75,169.417 2416.46,191.556 2424.17,186.829 2431.88,194.841 2439.59,175.867 2447.3,180.166 2455,174.872 2462.71,204.209 2470.42,187.899 2478.13,191.708 2485.84,137.922 2493.54,198.523 2501.25,175.656 2508.96,152.346 2516.67,190.588 2524.38,171.045 2532.08,179.321 2539.79,181.052 2547.5,172.366 2555.21,190.016 2562.92,170.447 2570.62,164.743 2578.33,182.924 2586.04,188.991 2593.75,211.987 2601.46,214.945 2609.16,161.029 2616.87,169.332 2624.58,190.276 2632.29,189.377 2640,168.699 2647.71,191.751 2655.41,214.793 2663.12,159.228 2670.83,186.888 2678.54,194.685 2686.25,185.12 2693.95,205.438 2701.66,160.35 2709.37,180.563 2717.08,183.074 2724.79,182.577 2732.49,204.913 2740.2,170.258 2747.91,184.071 2755.62,193.995 2763.33,164.425 2771.03,157.085 2778.74,217.678 2786.45,172.574 2794.16,168.135 2801.87,179.569 2809.57,195.739 2817.28,152.913 2824.99,204.349 2832.7,178.77 2840.41,190.721 2848.12,157.826 2855.82,199.694 2863.53,191.889 2871.24,199.322 2878.95,218.045 2886.66,196.733 2894.36,203.45 2902.07,153.997 2909.78,153.789 2917.49,193.282 2925.2,193.841 2932.9,174.096 2940.61,181.886 2948.32,193.563 2956.03,188.545 2963.74,162.55 2971.44,174.497 2979.15,186.321 2986.86,198.103 2994.57,171.653 3002.28,191.57 3009.99,194.179 "/>
</svg>
