<?xml version="1.0" encoding="utf-8"?>
<svg xmlns="http://www.w3.org/2000/svg" xmlns:xlink="http://www.w3.org/1999/xlink" width="800" height="300" viewBox="0 0 3200 1200">
<defs>
  <clipPath id="clip150">
    <rect x="0" y="0" width="3200" height="1200"/>
  </clipPath>
</defs>
<path clip-path="url(#clip150)" d="M0 1200 L3200 1200 L3200 0 L0 0  Z" fill="#ffffff" fill-rule="evenodd" fill-opacity="1"/>
<defs>
  <clipPath id="clip151">
    <rect x="640" y="0" width="2241" height="1200"/>
  </clipPath>
</defs>
<path clip-path="url(#clip150)" d="M270.918 1000.1 L3089.76 1000.1 L3089.76 110.236 L270.918 110.236  Z" fill="#ffffff" fill-rule="evenodd" fill-opacity="1"/>
<defs>
  <clipPath id="clip152">
    <rect x="270" y="110" width="2820" height="891"/>
  </clipPath>
</defs>
<polyline clip-path="url(#clip152)" style="stroke:#000000; stroke-linecap:round; stroke-linejoin:round; stroke-width:2; stroke-opacity:0.1; fill:none" points="330.082,1000.1 330.082,110.236 "/>
<polyline clip-path="url(#clip152)" style="stroke:#000000; stroke-linecap:round; stroke-linejoin:round; stroke-width:2; stroke-opacity:0.1; fill:none" points="742.374,1000.1 742.374,110.236 "/>
<polyline clip-path="url(#clip152)" style="stroke:#000000; stroke-linecap:round; stroke-linejoin:round; stroke-width:2; stroke-opacity:0.1; fill:none" points="1154.67,1000.1 1154.67,110.236 "/>
<polyline clip-path="url(#clip152)" style="stroke:#000000; stroke-linecap:round; stroke-linejoin:round; stroke-width:2; stroke-opacity:0.1; fill:none" points="1566.96,1000.1 1566.96,110.236 "/>
<polyline clip-path="url(#clip152)" style="stroke:#000000; stroke-linecap:round; stroke-linejoin:round; stroke-width:2; stroke-opacity:0.1; fill:none" points="1979.25,1000.1 1979.25,110.236 "/>
<polyline clip-path="url(#clip152)" style="stroke:#000000; stroke-linecap:round; stroke-linejoin:round; stroke-width:2; stroke-opacity:0.1; fill:none" points="2391.55,1000.1 2391.55,110.236 "/>
<polyline clip-path="url(#clip152)" style="stroke:#000000; stroke-linecap:round; stroke-linejoin:round; stroke-width:2; stroke-opacity:0.1; fill:none" points="2803.84,1000.1 2803.84,110.236 "/>
<polyline clip-path="url(#clip150)" style="stroke:#000000; stroke-linecap:round; stroke-linejoin:round; stroke-width:4; stroke-opacity:1; fill:none" points="270.918,1000.1 3089.76,1000.1 "/>
<polyline clip-path="url(#clip150)" style="stroke:#000000; stroke-linecap:round; stroke-linejoin:round; stroke-width:4; stroke-opacity:1; fill:none" points="330.082,1000.1 330.082,981.2 "/>
<polyline clip-path="url(#clip150)" style="stroke:#000000; stroke-linecap:round; stroke-linejoin:round; stroke-width:4; stroke-opacity:1; fill:none" points="742.374,1000.1 742.374,981.2 "/>
<polyline clip-path="url(#clip150)" style="stroke:#000000; stroke-linecap:round; stroke-linejoin:round; stroke-width:4; stroke-opacity:1; fill:none" points="1154.67,1000.1 1154.67,981.2 "/>
<polyline clip-path="url(#clip150)" style="stroke:#000000; stroke-linecap:round; stroke-linejoin:round; stroke-width:4; stroke-opacity:1; fill:none" points="1566.96,1000.1 1566.96,981.2 "/>
<polyline clip-path="url(#clip150)" style="stroke:#000000; stroke-linecap:round; stroke-linejoin:round; stroke-width:4; stroke-opacity:1; fill:none" points="1979.25,1000.1 1979.25,981.2 "/>
<polyline clip-path="url(#clip150)" style="stroke:#000000; stroke-linecap:round; stroke-linejoin:round; stroke-width:4; stroke-opacity:1; fill:none" points="2391.55,1000.1 2391.55,981.2 "/>
<polyline clip-path="url(#clip150)" style="stroke:#000000; stroke-linecap:round; stroke-linejoin:round; stroke-width:4; stroke-opacity:1; fill:none" points="2803.84,1000.1 2803.84,981.2 "/>
<path clip-path="url(#clip150)" d="M330.082 1037.42 Q326.471 1037.42 324.642 1040.98 Q322.836 1044.52 322.836 1051.65 Q322.836 1058.76 324.642 1062.32 Q326.471 1065.87 330.082 1065.87 Q333.716 1065.87 335.521 1062.32 Q337.35 1058.76 337.35 1051.65 Q337.35 1044.52 335.521 1040.98 Q333.716 1037.42 330.082 1037.42 M330.082 1033.71 Q335.892 1033.71 338.947 1038.32 Q342.026 1042.9 342.026 1051.65 Q342.026 1060.38 338.947 1064.99 Q335.892 1069.57 330.082 1069.57 Q324.272 1069.57 321.193 1064.99 Q318.137 1060.38 318.137 1051.65 Q318.137 1042.9 321.193 1038.32 Q324.272 1033.71 330.082 1033.71 Z" fill="#000000" fill-rule="nonzero" fill-opacity="1" /><path clip-path="url(#clip150)" d="M721.148 1064.96 L737.467 1064.96 L737.467 1068.9 L715.523 1068.9 L715.523 1064.96 Q718.185 1062.21 722.768 1057.58 Q727.375 1052.93 728.555 1051.58 Q730.8 1049.06 731.68 1047.32 Q732.583 1045.56 732.583 1043.87 Q732.583 1041.12 730.638 1039.38 Q728.717 1037.65 725.615 1037.65 Q723.416 1037.65 720.963 1038.41 Q718.532 1039.18 715.754 1040.73 L715.754 1036 Q718.578 1034.87 721.032 1034.29 Q723.486 1033.71 725.523 1033.71 Q730.893 1033.71 734.088 1036.4 Q737.282 1039.08 737.282 1043.57 Q737.282 1045.7 736.472 1047.62 Q735.685 1049.52 733.578 1052.12 Q733 1052.79 729.898 1056 Q726.796 1059.2 721.148 1064.96 Z" fill="#000000" fill-rule="nonzero" fill-opacity="1" /><path clip-path="url(#clip150)" d="M757.282 1037.42 Q753.671 1037.42 751.842 1040.98 Q750.036 1044.52 750.036 1051.65 Q750.036 1058.76 751.842 1062.32 Q753.671 1065.87 757.282 1065.87 Q760.916 1065.87 762.722 1062.32 Q764.55 1058.76 764.55 1051.65 Q764.55 1044.52 762.722 1040.98 Q760.916 1037.42 757.282 1037.42 M757.282 1033.71 Q763.092 1033.71 766.148 1038.32 Q769.226 1042.9 769.226 1051.65 Q769.226 1060.38 766.148 1064.99 Q763.092 1069.57 757.282 1069.57 Q751.472 1069.57 748.393 1064.99 Q745.337 1060.38 745.337 1051.65 Q745.337 1042.9 748.393 1038.32 Q751.472 1033.71 757.282 1033.71 Z" fill="#000000" fill-rule="nonzero" fill-opacity="1" /><path clip-path="url(#clip150)" d="M1142.84 1038.41 L1131.03 1056.86 L1142.84 1056.86 L1142.84 1038.41 M1141.61 1034.34 L1147.49 1034.34 L1147.49 1056.86 L1152.42 1056.86 L1152.42 1060.75 L1147.49 1060.75 L1147.49 1068.9 L1142.84 1068.9 L1142.84 1060.75 L1127.24 1060.75 L1127.24 1056.24 L1141.61 1034.34 Z" fill="#000000" fill-rule="nonzero" fill-opacity="1" /><path clip-path="url(#clip150)" d="M1170.15 1037.42 Q1166.54 1037.42 1164.71 1040.98 Q1162.91 1044.52 1162.91 1051.65 Q1162.91 1058.76 1164.71 1062.32 Q1166.54 1065.87 1170.15 1065.87 Q1173.79 1065.87 1175.59 1062.32 Q1177.42 1058.76 1177.42 1051.65 Q1177.42 1044.52 1175.59 1040.98 Q1173.79 1037.42 1170.15 1037.42 M1170.15 1033.71 Q1175.96 1033.71 1179.02 1038.32 Q1182.1 1042.9 1182.1 1051.65 Q1182.1 1060.38 1179.02 1064.99 Q1175.96 1069.57 1170.15 1069.57 Q1164.34 1069.57 1161.26 1064.99 Q1158.21 1060.38 1158.21 1051.65 Q1158.21 1042.9 1161.26 1038.32 Q1164.34 1033.71 1170.15 1033.71 Z" fill="#000000" fill-rule="nonzero" fill-opacity="1" /><path clip-path="url(#clip150)" d="M1552.37 1049.75 Q1549.22 1049.75 1547.37 1051.91 Q1545.54 1054.06 1545.54 1057.81 Q1545.54 1061.54 1547.37 1063.71 Q1549.22 1065.87 1552.37 1065.87 Q1555.51 1065.87 1557.34 1063.71 Q1559.19 1061.54 1559.19 1057.81 Q1559.19 1054.06 1557.34 1051.91 Q1555.51 1049.75 1552.37 1049.75 M1561.65 1035.1 L1561.65 1039.36 Q1559.89 1038.53 1558.08 1038.09 Q1556.3 1037.65 1554.54 1037.65 Q1549.91 1037.65 1547.46 1040.77 Q1545.03 1043.9 1544.68 1050.22 Q1546.05 1048.2 1548.11 1047.14 Q1550.17 1046.05 1552.64 1046.05 Q1557.85 1046.05 1560.86 1049.22 Q1563.89 1052.37 1563.89 1057.81 Q1563.89 1063.13 1560.74 1066.35 Q1557.6 1069.57 1552.37 1069.57 Q1546.37 1069.57 1543.2 1064.99 Q1540.03 1060.38 1540.03 1051.65 Q1540.03 1043.46 1543.92 1038.6 Q1547.81 1033.71 1554.36 1033.71 Q1556.12 1033.71 1557.9 1034.06 Q1559.7 1034.41 1561.65 1035.1 Z" fill="#000000" fill-rule="nonzero" fill-opacity="1" /><path clip-path="url(#clip150)" d="M1581.95 1037.42 Q1578.34 1037.42 1576.51 1040.98 Q1574.7 1044.52 1574.7 1051.65 Q1574.7 1058.76 1576.51 1062.32 Q1578.34 1065.87 1581.95 1065.87 Q1585.58 1065.87 1587.39 1062.32 Q1589.22 1058.76 1589.22 1051.65 Q1589.22 1044.52 1587.39 1040.98 Q1585.58 1037.42 1581.95 1037.42 M1581.95 1033.71 Q1587.76 1033.71 1590.81 1038.32 Q1593.89 1042.9 1593.89 1051.65 Q1593.89 1060.38 1590.81 1064.99 Q1587.76 1069.57 1581.95 1069.57 Q1576.14 1069.57 1573.06 1064.99 Q1570 1060.38 1570 1051.65 Q1570 1042.9 1573.06 1038.32 Q1576.14 1033.71 1581.95 1033.71 Z" fill="#000000" fill-rule="nonzero" fill-opacity="1" /><path clip-path="url(#clip150)" d="M1964.13 1052.49 Q1960.79 1052.49 1958.87 1054.27 Q1956.97 1056.05 1956.97 1059.18 Q1956.97 1062.3 1958.87 1064.08 Q1960.79 1065.87 1964.13 1065.87 Q1967.46 1065.87 1969.38 1064.08 Q1971.3 1062.28 1971.3 1059.18 Q1971.3 1056.05 1969.38 1054.27 Q1967.48 1052.49 1964.13 1052.49 M1959.45 1050.5 Q1956.44 1049.75 1954.75 1047.69 Q1953.08 1045.63 1953.08 1042.67 Q1953.08 1038.53 1956.02 1036.12 Q1958.99 1033.71 1964.13 1033.71 Q1969.29 1033.71 1972.23 1036.12 Q1975.17 1038.53 1975.17 1042.67 Q1975.17 1045.63 1973.48 1047.69 Q1971.81 1049.75 1968.82 1050.5 Q1972.2 1051.28 1974.08 1053.57 Q1975.98 1055.87 1975.98 1059.18 Q1975.98 1064.2 1972.9 1066.88 Q1969.84 1069.57 1964.13 1069.57 Q1958.41 1069.57 1955.33 1066.88 Q1952.27 1064.2 1952.27 1059.18 Q1952.27 1055.87 1954.17 1053.57 Q1956.07 1051.28 1959.45 1050.5 M1957.74 1043.11 Q1957.74 1045.8 1959.4 1047.3 Q1961.09 1048.81 1964.13 1048.81 Q1967.14 1048.81 1968.82 1047.3 Q1970.54 1045.8 1970.54 1043.11 Q1970.54 1040.43 1968.82 1038.92 Q1967.14 1037.42 1964.13 1037.42 Q1961.09 1037.42 1959.4 1038.92 Q1957.74 1040.43 1957.74 1043.11 Z" fill="#000000" fill-rule="nonzero" fill-opacity="1" /><path clip-path="url(#clip150)" d="M1994.29 1037.42 Q1990.68 1037.42 1988.85 1040.98 Q1987.04 1044.52 1987.04 1051.65 Q1987.04 1058.76 1988.85 1062.32 Q1990.68 1065.87 1994.29 1065.87 Q1997.92 1065.87 1999.73 1062.32 Q2001.56 1058.76 2001.56 1051.65 Q2001.56 1044.52 1999.73 1040.98 Q1997.92 1037.42 1994.29 1037.42 M1994.29 1033.71 Q2000.1 1033.71 2003.15 1038.32 Q2006.23 1042.9 2006.23 1051.65 Q2006.23 1060.38 2003.15 1064.99 Q2000.1 1069.57 1994.29 1069.57 Q1988.48 1069.57 1985.4 1064.99 Q1982.34 1060.38 1982.34 1051.65 Q1982.34 1042.9 1985.4 1038.32 Q1988.48 1033.71 1994.29 1033.71 Z" fill="#000000" fill-rule="nonzero" fill-opacity="1" /><path clip-path="url(#clip150)" d="M2351.15 1064.96 L2358.79 1064.96 L2358.79 1038.6 L2350.48 1040.26 L2350.48 1036 L2358.75 1034.34 L2363.42 1034.34 L2363.42 1064.96 L2371.06 1064.96 L2371.06 1068.9 L2351.15 1068.9 L2351.15 1064.96 Z" fill="#000000" fill-rule="nonzero" fill-opacity="1" /><path clip-path="url(#clip150)" d="M2390.5 1037.42 Q2386.89 1037.42 2385.06 1040.98 Q2383.26 1044.52 2383.26 1051.65 Q2383.26 1058.76 2385.06 1062.32 Q2386.89 1065.87 2390.5 1065.87 Q2394.14 1065.87 2395.94 1062.32 Q2397.77 1058.76 2397.77 1051.65 Q2397.77 1044.52 2395.94 1040.98 Q2394.14 1037.42 2390.5 1037.42 M2390.5 1033.71 Q2396.31 1033.71 2399.37 1038.32 Q2402.45 1042.9 2402.45 1051.65 Q2402.45 1060.38 2399.37 1064.99 Q2396.31 1069.57 2390.5 1069.57 Q2384.69 1069.57 2381.62 1064.99 Q2378.56 1060.38 2378.56 1051.65 Q2378.56 1042.9 2381.62 1038.32 Q2384.69 1033.71 2390.5 1033.71 Z" fill="#000000" fill-rule="nonzero" fill-opacity="1" /><path clip-path="url(#clip150)" d="M2420.67 1037.42 Q2417.05 1037.42 2415.23 1040.98 Q2413.42 1044.52 2413.42 1051.65 Q2413.42 1058.76 2415.23 1062.32 Q2417.05 1065.87 2420.67 1065.87 Q2424.3 1065.87 2426.11 1062.32 Q2427.93 1058.76 2427.93 1051.65 Q2427.93 1044.52 2426.11 1040.98 Q2424.3 1037.42 2420.67 1037.42 M2420.67 1033.71 Q2426.48 1033.71 2429.53 1038.32 Q2432.61 1042.9 2432.61 1051.65 Q2432.61 1060.38 2429.53 1064.99 Q2426.48 1069.57 2420.67 1069.57 Q2414.86 1069.57 2411.78 1064.99 Q2408.72 1060.38 2408.72 1051.65 Q2408.72 1042.9 2411.78 1038.32 Q2414.86 1033.71 2420.67 1033.71 Z" fill="#000000" fill-rule="nonzero" fill-opacity="1" /><path clip-path="url(#clip150)" d="M2763.45 1064.96 L2771.08 1064.96 L2771.08 1038.6 L2762.77 1040.26 L2762.77 1036 L2771.04 1034.34 L2775.71 1034.34 L2775.71 1064.96 L2783.35 1064.96 L2783.35 1068.9 L2763.45 1068.9 L2763.45 1064.96 Z" fill="#000000" fill-rule="nonzero" fill-opacity="1" /><path clip-path="url(#clip150)" d="M2796.82 1064.96 L2813.14 1064.96 L2813.14 1068.9 L2791.2 1068.9 L2791.2 1064.96 Q2793.86 1062.21 2798.45 1057.58 Q2803.05 1052.93 2804.23 1051.58 Q2806.48 1049.06 2807.36 1047.32 Q2808.26 1045.56 2808.26 1043.87 Q2808.26 1041.12 2806.32 1039.38 Q2804.39 1037.65 2801.29 1037.65 Q2799.09 1037.65 2796.64 1038.41 Q2794.21 1039.18 2791.43 1040.73 L2791.43 1036 Q2794.26 1034.87 2796.71 1034.29 Q2799.16 1033.71 2801.2 1033.71 Q2806.57 1033.71 2809.76 1036.4 Q2812.96 1039.08 2812.96 1043.57 Q2812.96 1045.7 2812.15 1047.62 Q2811.36 1049.52 2809.26 1052.12 Q2808.68 1052.79 2805.57 1056 Q2802.47 1059.2 2796.82 1064.96 Z" fill="#000000" fill-rule="nonzero" fill-opacity="1" /><path clip-path="url(#clip150)" d="M2832.96 1037.42 Q2829.35 1037.42 2827.52 1040.98 Q2825.71 1044.52 2825.71 1051.65 Q2825.71 1058.76 2827.52 1062.32 Q2829.35 1065.87 2832.96 1065.87 Q2836.59 1065.87 2838.4 1062.32 Q2840.23 1058.76 2840.23 1051.65 Q2840.23 1044.52 2838.4 1040.98 Q2836.59 1037.42 2832.96 1037.42 M2832.96 1033.71 Q2838.77 1033.71 2841.82 1038.32 Q2844.9 1042.9 2844.9 1051.65 Q2844.9 1060.38 2841.82 1064.99 Q2838.77 1069.57 2832.96 1069.57 Q2827.15 1069.57 2824.07 1064.99 Q2821.01 1060.38 2821.01 1051.65 Q2821.01 1042.9 2824.07 1038.32 Q2827.15 1033.71 2832.96 1033.71 Z" fill="#000000" fill-rule="nonzero" fill-opacity="1" /><path clip-path="url(#clip150)" d="M1556.64 1109.44 L1563.07 1109.44 L1563.07 1151.55 L1586.21 1151.55 L1586.21 1156.96 L1556.64 1156.96 L1556.64 1109.44 Z" fill="#000000" fill-rule="nonzero" fill-opacity="1" /><path clip-path="url(#clip150)" d="M1592.7 1121.31 L1598.56 1121.31 L1598.56 1156.96 L1592.7 1156.96 L1592.7 1121.31 M1592.7 1107.44 L1598.56 1107.44 L1598.56 1114.85 L1592.7 1114.85 L1592.7 1107.44 Z" fill="#000000" fill-rule="nonzero" fill-opacity="1" /><path clip-path="url(#clip150)" d="M1640.44 1135.45 L1640.44 1156.96 L1634.59 1156.96 L1634.59 1135.64 Q1634.59 1130.58 1632.61 1128.06 Q1630.64 1125.55 1626.69 1125.55 Q1621.95 1125.55 1619.21 1128.57 Q1616.48 1131.59 1616.48 1136.81 L1616.48 1156.96 L1610.59 1156.96 L1610.59 1121.31 L1616.48 1121.31 L1616.48 1126.85 Q1618.58 1123.64 1621.41 1122.05 Q1624.27 1120.45 1628 1120.45 Q1634.14 1120.45 1637.29 1124.27 Q1640.44 1128.06 1640.44 1135.45 Z" fill="#000000" fill-rule="nonzero" fill-opacity="1" /><path clip-path="url(#clip150)" d="M1682.62 1137.67 L1682.62 1140.54 L1655.69 1140.54 Q1656.07 1146.59 1659.32 1149.77 Q1662.6 1152.92 1668.42 1152.92 Q1671.79 1152.92 1674.95 1152.09 Q1678.13 1151.26 1681.25 1149.61 L1681.25 1155.15 Q1678.1 1156.48 1674.79 1157.18 Q1671.48 1157.88 1668.07 1157.88 Q1659.54 1157.88 1654.54 1152.92 Q1649.58 1147.95 1649.58 1139.49 Q1649.58 1130.74 1654.29 1125.61 Q1659.03 1120.45 1667.05 1120.45 Q1674.25 1120.45 1678.42 1125.1 Q1682.62 1129.72 1682.62 1137.67 M1676.76 1135.95 Q1676.7 1131.15 1674.05 1128.28 Q1671.44 1125.42 1667.12 1125.42 Q1662.21 1125.42 1659.25 1128.19 Q1656.33 1130.96 1655.88 1135.99 L1676.76 1135.95 Z" fill="#000000" fill-rule="nonzero" fill-opacity="1" /><path clip-path="url(#clip150)" d="M1708.43 1139.04 Q1701.33 1139.04 1698.59 1140.67 Q1695.86 1142.29 1695.86 1146.2 Q1695.86 1149.32 1697.89 1151.17 Q1699.96 1152.98 1703.5 1152.98 Q1708.37 1152.98 1711.29 1149.55 Q1714.25 1146.08 1714.25 1140.35 L1714.25 1139.04 L1708.43 1139.04 M1720.11 1136.62 L1720.11 1156.96 L1714.25 1156.96 L1714.25 1151.55 Q1712.25 1154.8 1709.26 1156.36 Q1706.27 1157.88 1701.94 1157.88 Q1696.46 1157.88 1693.22 1154.83 Q1690 1151.74 1690 1146.59 Q1690 1140.57 1694.01 1137.51 Q1698.05 1134.46 1706.04 1134.46 L1714.25 1134.46 L1714.25 1133.89 Q1714.25 1129.84 1711.58 1127.65 Q1708.94 1125.42 1704.13 1125.42 Q1701.08 1125.42 1698.18 1126.15 Q1695.28 1126.88 1692.61 1128.35 L1692.61 1122.94 Q1695.83 1121.7 1698.85 1121.09 Q1701.87 1120.45 1704.74 1120.45 Q1712.47 1120.45 1716.29 1124.46 Q1720.11 1128.48 1720.11 1136.62 Z" fill="#000000" fill-rule="nonzero" fill-opacity="1" /><path clip-path="url(#clip150)" d="M1755.63 1138.72 Q1755.63 1132.36 1752.99 1128.86 Q1750.38 1125.36 1745.64 1125.36 Q1740.93 1125.36 1738.28 1128.86 Q1735.67 1132.36 1735.67 1138.72 Q1735.67 1145.06 1738.28 1148.56 Q1740.93 1152.06 1745.64 1152.06 Q1750.38 1152.06 1752.99 1148.56 Q1755.63 1145.06 1755.63 1138.72 M1761.49 1152.54 Q1761.49 1161.64 1757.45 1166.06 Q1753.4 1170.52 1745.06 1170.52 Q1741.98 1170.52 1739.24 1170.04 Q1736.5 1169.6 1733.92 1168.64 L1733.92 1162.95 Q1736.5 1164.35 1739.02 1165.01 Q1741.53 1165.68 1744.14 1165.68 Q1749.9 1165.68 1752.77 1162.66 Q1755.63 1159.67 1755.63 1153.59 L1755.63 1150.69 Q1753.82 1153.84 1750.98 1155.4 Q1748.15 1156.96 1744.2 1156.96 Q1737.65 1156.96 1733.64 1151.96 Q1729.63 1146.97 1729.63 1138.72 Q1729.63 1130.45 1733.64 1125.45 Q1737.65 1120.45 1744.2 1120.45 Q1748.15 1120.45 1750.98 1122.01 Q1753.82 1123.57 1755.63 1126.72 L1755.63 1121.31 L1761.49 1121.31 L1761.49 1152.54 Z" fill="#000000" fill-rule="nonzero" fill-opacity="1" /><path clip-path="url(#clip150)" d="M1804.04 1137.67 L1804.04 1140.54 L1777.12 1140.54 Q1777.5 1146.59 1780.74 1149.77 Q1784.02 1152.92 1789.85 1152.92 Q1793.22 1152.92 1796.37 1152.09 Q1799.55 1151.26 1802.67 1149.61 L1802.67 1155.15 Q1799.52 1156.48 1796.21 1157.18 Q1792.9 1157.88 1789.5 1157.88 Q1780.97 1157.88 1775.97 1152.92 Q1771 1147.95 1771 1139.49 Q1771 1130.74 1775.71 1125.61 Q1780.46 1120.45 1788.48 1120.45 Q1795.67 1120.45 1799.84 1125.1 Q1804.04 1129.72 1804.04 1137.67 M1798.19 1135.95 Q1798.12 1131.15 1795.48 1128.28 Q1792.87 1125.42 1788.54 1125.42 Q1783.64 1125.42 1780.68 1128.19 Q1777.75 1130.96 1777.31 1135.99 L1798.19 1135.95 Z" fill="#000000" fill-rule="nonzero" fill-opacity="1" /><polyline clip-path="url(#clip152)" style="stroke:#000000; stroke-linecap:round; stroke-linejoin:round; stroke-width:2; stroke-opacity:0.1; fill:none" points="270.918,1000.1 3089.76,1000.1 "/>
<polyline clip-path="url(#clip152)" style="stroke:#000000; stroke-linecap:round; stroke-linejoin:round; stroke-width:2; stroke-opacity:0.1; fill:none" points="270.918,666.972 3089.76,666.972 "/>
<polyline clip-path="url(#clip152)" style="stroke:#000000; stroke-linecap:round; stroke-linejoin:round; stroke-width:2; stroke-opacity:0.1; fill:none" points="270.918,333.846 3089.76,333.846 "/>
<polyline clip-path="url(#clip150)" style="stroke:#000000; stroke-linecap:round; stroke-linejoin:round; stroke-width:4; stroke-opacity:1; fill:none" points="270.918,1000.1 270.918,110.236 "/>
<polyline clip-path="url(#clip150)" style="stroke:#000000; stroke-linecap:round; stroke-linejoin:round; stroke-width:4; stroke-opacity:1; fill:none" points="270.918,1000.1 289.815,1000.1 "/>
<polyline clip-path="url(#clip150)" style="stroke:#000000; stroke-linecap:round; stroke-linejoin:round; stroke-width:4; stroke-opacity:1; fill:none" points="270.918,666.972 289.815,666.972 "/>
<polyline clip-path="url(#clip150)" style="stroke:#000000; stroke-linecap:round; stroke-linejoin:round; stroke-width:4; stroke-opacity:1; fill:none" points="270.918,333.846 289.815,333.846 "/>
<path clip-path="url(#clip150)" d="M154.902 1019.89 L162.54 1019.89 L162.54 993.525 L154.23 995.191 L154.23 990.932 L162.494 989.265 L167.17 989.265 L167.17 1019.89 L174.809 1019.89 L174.809 1023.83 L154.902 1023.83 L154.902 1019.89 Z" fill="#000000" fill-rule="nonzero" fill-opacity="1" /><path clip-path="url(#clip150)" d="M194.253 992.344 Q190.642 992.344 188.813 995.909 Q187.008 999.45 187.008 1006.58 Q187.008 1013.69 188.813 1017.25 Q190.642 1020.79 194.253 1020.79 Q197.887 1020.79 199.693 1017.25 Q201.522 1013.69 201.522 1006.58 Q201.522 999.45 199.693 995.909 Q197.887 992.344 194.253 992.344 M194.253 988.64 Q200.063 988.64 203.119 993.247 Q206.198 997.83 206.198 1006.58 Q206.198 1015.31 203.119 1019.91 Q200.063 1024.5 194.253 1024.5 Q188.443 1024.5 185.364 1019.91 Q182.309 1015.31 182.309 1006.58 Q182.309 997.83 185.364 993.247 Q188.443 988.64 194.253 988.64 Z" fill="#000000" fill-rule="nonzero" fill-opacity="1" /><path clip-path="url(#clip150)" d="M206.743 993.218 L212.95 993.218 L212.95 971.796 L206.198 973.15 L206.198 969.689 L212.912 968.335 L216.711 968.335 L216.711 993.218 L222.918 993.218 L222.918 996.415 L206.743 996.415 L206.743 993.218 Z" fill="#000000" fill-rule="nonzero" fill-opacity="1" /><path clip-path="url(#clip150)" d="M153.792 686.765 L161.431 686.765 L161.431 660.399 L153.121 662.066 L153.121 657.806 L161.384 656.14 L166.06 656.14 L166.06 686.765 L173.699 686.765 L173.699 690.7 L153.792 690.7 L153.792 686.765 Z" fill="#000000" fill-rule="nonzero" fill-opacity="1" /><path clip-path="url(#clip150)" d="M193.143 659.218 Q189.532 659.218 187.704 662.783 Q185.898 666.325 185.898 673.454 Q185.898 680.561 187.704 684.126 Q189.532 687.667 193.143 687.667 Q196.778 687.667 198.583 684.126 Q200.412 680.561 200.412 673.454 Q200.412 666.325 198.583 662.783 Q196.778 659.218 193.143 659.218 M193.143 655.515 Q198.954 655.515 202.009 660.121 Q205.088 664.704 205.088 673.454 Q205.088 682.181 202.009 686.788 Q198.954 691.371 193.143 691.371 Q187.333 691.371 184.255 686.788 Q181.199 682.181 181.199 673.454 Q181.199 664.704 184.255 660.121 Q187.333 655.515 193.143 655.515 Z" fill="#000000" fill-rule="nonzero" fill-opacity="1" /><path clip-path="url(#clip150)" d="M209.658 660.092 L222.918 660.092 L222.918 663.289 L205.088 663.289 L205.088 660.092 Q207.251 657.854 210.975 654.092 Q214.717 650.312 215.677 649.221 Q217.501 647.171 218.216 645.76 Q218.949 644.331 218.949 642.958 Q218.949 640.72 217.369 639.309 Q215.808 637.899 213.288 637.899 Q211.501 637.899 209.508 638.519 Q207.533 639.14 205.276 640.4 L205.276 636.563 Q207.57 635.642 209.564 635.172 Q211.558 634.701 213.213 634.701 Q217.576 634.701 220.172 636.883 Q222.767 639.065 222.767 642.714 Q222.767 644.444 222.109 646.005 Q221.469 647.547 219.758 649.654 Q219.288 650.199 216.767 652.813 Q214.247 655.409 209.658 660.092 Z" fill="#000000" fill-rule="nonzero" fill-opacity="1" /><path clip-path="url(#clip150)" d="M153.134 353.639 L160.772 353.639 L160.772 327.273 L152.462 328.94 L152.462 324.681 L160.726 323.014 L165.402 323.014 L165.402 353.639 L173.041 353.639 L173.041 357.574 L153.134 357.574 L153.134 353.639 Z" fill="#000000" fill-rule="nonzero" fill-opacity="1" /><path clip-path="url(#clip150)" d="M192.485 326.093 Q188.874 326.093 187.045 329.658 Q185.24 333.199 185.24 340.329 Q185.24 347.435 187.045 351 Q188.874 354.542 192.485 354.542 Q196.119 354.542 197.925 351 Q199.754 347.435 199.754 340.329 Q199.754 333.199 197.925 329.658 Q196.119 326.093 192.485 326.093 M192.485 322.389 Q198.295 322.389 201.351 326.995 Q204.43 331.579 204.43 340.329 Q204.43 349.056 201.351 353.662 Q198.295 358.245 192.485 358.245 Q186.675 358.245 183.596 353.662 Q180.541 349.056 180.541 340.329 Q180.541 331.579 183.596 326.995 Q186.675 322.389 192.485 322.389 Z" fill="#000000" fill-rule="nonzero" fill-opacity="1" /><path clip-path="url(#clip150)" d="M217.125 315.023 Q219.852 315.606 221.375 317.45 Q222.918 319.293 222.918 322.001 Q222.918 326.158 220.059 328.433 Q217.2 330.709 211.934 330.709 Q210.166 330.709 208.285 330.352 Q206.423 330.013 204.43 329.317 L204.43 325.65 Q206.009 326.571 207.89 327.042 Q209.771 327.512 211.821 327.512 Q215.395 327.512 217.256 326.101 Q219.137 324.691 219.137 322.001 Q219.137 319.518 217.388 318.127 Q215.658 316.716 212.555 316.716 L209.282 316.716 L209.282 313.594 L212.705 313.594 Q215.507 313.594 216.993 312.484 Q218.479 311.356 218.479 309.249 Q218.479 307.086 216.937 305.939 Q215.413 304.773 212.555 304.773 Q210.994 304.773 209.207 305.112 Q207.42 305.45 205.276 306.165 L205.276 302.78 Q207.439 302.178 209.32 301.877 Q211.219 301.576 212.893 301.576 Q217.219 301.576 219.739 303.551 Q222.259 305.507 222.259 308.854 Q222.259 311.187 220.924 312.804 Q219.589 314.403 217.125 315.023 Z" fill="#000000" fill-rule="nonzero" fill-opacity="1" /><path clip-path="url(#clip150)" d="M42.6863 847.369 L42.6863 817.323 L48.0971 817.323 L48.0971 840.939 L62.1653 840.939 L62.1653 818.309 L67.5762 818.309 L67.5762 840.939 L84.7954 840.939 L84.7954 816.75 L90.2063 816.75 L90.2063 847.369 L42.6863 847.369 Z" fill="#000000" fill-rule="nonzero" fill-opacity="1" /><path clip-path="url(#clip150)" d="M44.2459 777.696 L50.5161 777.696 Q48.7655 781.356 47.9062 784.603 Q47.0468 787.849 47.0468 790.873 Q47.0468 796.125 49.0838 798.989 Q51.1208 801.822 54.8766 801.822 Q58.0276 801.822 59.6509 799.944 Q61.2423 798.035 62.229 792.751 L63.0247 788.868 Q64.3933 781.675 67.8627 778.269 Q71.3001 774.832 77.0929 774.832 Q83.9997 774.832 87.5645 779.479 Q91.1293 784.094 91.1293 793.038 Q91.1293 796.411 90.3654 800.231 Q89.6015 804.018 88.1056 808.092 L81.4853 808.092 Q83.6814 804.177 84.7954 800.422 Q85.9094 796.666 85.9094 793.038 Q85.9094 787.531 83.7451 784.539 Q81.5808 781.547 77.5704 781.547 Q74.0692 781.547 72.0958 783.712 Q70.1225 785.844 69.1358 790.746 L68.3719 794.661 Q66.9396 801.854 63.8841 805.069 Q60.8285 808.283 55.3859 808.283 Q49.0838 808.283 45.4554 803.859 Q41.8269 799.403 41.8269 791.605 Q41.8269 788.263 42.4317 784.794 Q43.0364 781.325 44.2459 777.696 Z" fill="#000000" fill-rule="nonzero" fill-opacity="1" /><path clip-path="url(#clip150)" d="M44.2459 736.319 L50.5161 736.319 Q48.7655 739.979 47.9062 743.226 Q47.0468 746.472 47.0468 749.496 Q47.0468 754.748 49.0838 757.612 Q51.1208 760.445 54.8766 760.445 Q58.0276 760.445 59.6509 758.567 Q61.2423 756.657 62.229 751.374 L63.0247 747.491 Q64.3933 740.298 67.8627 736.892 Q71.3001 733.454 77.0929 733.454 Q83.9997 733.454 87.5645 738.101 Q91.1293 742.717 91.1293 751.66 Q91.1293 755.034 90.3654 758.854 Q89.6015 762.641 88.1056 766.715 L81.4853 766.715 Q83.6814 762.8 84.7954 759.045 Q85.9094 755.289 85.9094 751.66 Q85.9094 746.154 83.7451 743.162 Q81.5808 740.17 77.5704 740.17 Q74.0692 740.17 72.0958 742.335 Q70.1225 744.467 69.1358 749.369 L68.3719 753.284 Q66.9396 760.477 63.8841 763.692 Q60.8285 766.906 55.3859 766.906 Q49.0838 766.906 45.4554 762.482 Q41.8269 758.026 41.8269 750.228 Q41.8269 746.886 42.4317 743.417 Q43.0364 739.948 44.2459 736.319 Z" fill="#000000" fill-rule="nonzero" fill-opacity="1" /><path clip-path="url(#clip150)" d="M82.1218 722.187 L82.1218 715.471 L90.2063 715.471 L90.2063 722.187 L82.1218 722.187 M56.4999 722.187 L56.4999 715.471 L64.5843 715.471 L64.5843 722.187 L56.4999 722.187 Z" fill="#000000" fill-rule="nonzero" fill-opacity="1" /><path clip-path="url(#clip150)" d="M42.6863 681.479 L42.6863 675.017 L71.5548 675.017 Q79.1936 675.017 82.5674 672.248 Q85.9094 669.479 85.9094 663.273 Q85.9094 657.098 82.5674 654.329 Q79.1936 651.56 71.5548 651.56 L42.6863 651.56 L42.6863 645.098 L72.3505 645.098 Q81.6444 645.098 86.3869 649.714 Q91.1293 654.297 91.1293 663.273 Q91.1293 672.28 86.3869 676.895 Q81.6444 681.479 72.3505 681.479 L42.6863 681.479 Z" fill="#000000" fill-rule="nonzero" fill-opacity="1" /><path clip-path="url(#clip150)" d="M44.2459 604.549 L50.5161 604.549 Q48.7655 608.209 47.9062 611.456 Q47.0468 614.702 47.0468 617.726 Q47.0468 622.978 49.0838 625.842 Q51.1208 628.675 54.8766 628.675 Q58.0276 628.675 59.6509 626.797 Q61.2423 624.887 62.229 619.604 L63.0247 615.721 Q64.3933 608.528 67.8627 605.122 Q71.3001 601.684 77.0929 601.684 Q83.9997 601.684 87.5645 606.331 Q91.1293 610.946 91.1293 619.89 Q91.1293 623.264 90.3654 627.084 Q89.6015 630.871 88.1056 634.945 L81.4853 634.945 Q83.6814 631.03 84.7954 627.275 Q85.9094 623.519 85.9094 619.89 Q85.9094 614.384 83.7451 611.392 Q81.5808 608.4 77.5704 608.4 Q74.0692 608.4 72.0958 610.565 Q70.1225 612.697 69.1358 617.599 L68.3719 621.514 Q66.9396 628.707 63.8841 631.921 Q60.8285 635.136 55.3859 635.136 Q49.0838 635.136 45.4554 630.712 Q41.8269 626.256 41.8269 618.458 Q41.8269 615.116 42.4317 611.647 Q43.0364 608.177 44.2459 604.549 Z" fill="#000000" fill-rule="nonzero" fill-opacity="1" /><path clip-path="url(#clip150)" d="M49.0202 574.566 L72.6688 583.287 L72.6688 565.814 L49.0202 574.566 M42.6863 578.195 L42.6863 570.906 L90.2063 552.796 L90.2063 559.48 L78.016 563.808 L78.016 585.229 L90.2063 589.558 L90.2063 596.337 L42.6863 578.195 Z" fill="#000000" fill-rule="nonzero" fill-opacity="1" /><path clip-path="url(#clip150)" d="M82.1218 544.616 L82.1218 537.9 L87.5963 537.9 L97.7815 543.12 L97.7815 547.226 L87.5963 544.616 L82.1218 544.616 Z" fill="#000000" fill-rule="nonzero" fill-opacity="1" /><path clip-path="url(#clip150)" d="M44.4369 498.878 L54.5583 498.878 L54.5583 486.815 L59.1098 486.815 L59.1098 498.878 L78.4616 498.878 Q82.8221 498.878 84.0634 497.701 Q85.3047 496.491 85.3047 492.831 L85.3047 486.815 L90.2063 486.815 L90.2063 492.831 Q90.2063 499.61 87.6918 502.188 Q85.1455 504.766 78.4616 504.766 L59.1098 504.766 L59.1098 509.063 L54.5583 509.063 L54.5583 504.766 L44.4369 504.766 L44.4369 498.878 Z" fill="#000000" fill-rule="nonzero" fill-opacity="1" /><path clip-path="url(#clip150)" d="M54.5583 479.113 L54.5583 473.256 L90.2063 473.256 L90.2063 479.113 L54.5583 479.113 M40.6811 479.113 L40.6811 473.256 L48.0971 473.256 L48.0971 479.113 L40.6811 479.113 Z" fill="#000000" fill-rule="nonzero" fill-opacity="1" /><path clip-path="url(#clip150)" d="M61.4015 433.248 Q57.4547 431.052 55.5768 427.996 Q53.699 424.941 53.699 420.803 Q53.699 415.233 57.6139 412.209 Q61.4969 409.185 68.6902 409.185 L90.2063 409.185 L90.2063 415.074 L68.8812 415.074 Q63.7568 415.074 61.2741 416.888 Q58.7915 418.702 58.7915 422.426 Q58.7915 426.978 61.8152 429.619 Q64.8389 432.261 70.0588 432.261 L90.2063 432.261 L90.2063 438.149 L68.8812 438.149 Q63.7249 438.149 61.2741 439.964 Q58.7915 441.778 58.7915 445.565 Q58.7915 450.053 61.8471 452.695 Q64.8708 455.337 70.0588 455.337 L90.2063 455.337 L90.2063 461.225 L54.5583 461.225 L54.5583 455.337 L60.0965 455.337 Q56.8182 453.332 55.2586 450.531 Q53.699 447.73 53.699 443.879 Q53.699 439.995 55.6723 437.29 Q57.6457 434.553 61.4015 433.248 Z" fill="#000000" fill-rule="nonzero" fill-opacity="1" /><path clip-path="url(#clip150)" d="M70.9182 367.013 L73.7828 367.013 L73.7828 393.94 Q79.8302 393.558 83.013 390.311 Q86.1641 387.033 86.1641 381.208 Q86.1641 377.834 85.3365 374.683 Q84.509 371.5 82.8539 368.381 L88.3921 368.381 Q89.7289 371.532 90.4291 374.842 Q91.1293 378.153 91.1293 381.558 Q91.1293 390.088 86.1641 395.085 Q81.1988 400.051 72.7324 400.051 Q63.9796 400.051 58.8552 395.34 Q53.699 390.598 53.699 382.577 Q53.699 375.383 58.3459 371.214 Q62.9611 367.013 70.9182 367.013 M69.1995 372.869 Q64.3933 372.933 61.5288 375.574 Q58.6642 378.184 58.6642 382.513 Q58.6642 387.415 61.4333 390.375 Q64.2024 393.303 69.2313 393.749 L69.1995 372.869 Z" fill="#000000" fill-rule="nonzero" fill-opacity="1" /><path clip-path="url(#clip150)" d="M82.1218 355.904 L82.1218 349.189 L90.2063 349.189 L90.2063 355.904 L82.1218 355.904 M56.4999 355.904 L56.4999 349.189 L64.5843 349.189 L64.5843 355.904 L56.4999 355.904 Z" fill="#000000" fill-rule="nonzero" fill-opacity="1" /><path clip-path="url(#clip150)" d="M42.6863 334.547 L42.6863 309.307 L48.0971 309.307 L48.0971 328.659 L59.7464 328.659 Q59.2689 327.259 59.0461 325.858 Q58.7915 324.458 58.7915 323.057 Q58.7915 315.1 63.152 310.453 Q67.5125 305.806 74.9604 305.806 Q82.6311 305.806 86.8961 310.581 Q91.1293 315.355 91.1293 324.044 Q91.1293 327.036 90.6201 330.155 Q90.1108 333.243 89.0923 336.553 L82.6311 336.553 Q84.1907 333.688 84.9546 330.633 Q85.7185 327.577 85.7185 324.171 Q85.7185 318.665 82.8221 315.45 Q79.9257 312.236 74.9604 312.236 Q69.9952 312.236 67.0988 315.45 Q64.2024 318.665 64.2024 324.171 Q64.2024 326.75 64.7753 329.328 Q65.3482 331.874 66.5577 334.547 L42.6863 334.547 Z" fill="#000000" fill-rule="nonzero" fill-opacity="1" /><path clip-path="url(#clip150)" d="M46.9195 279.389 Q46.9195 284.354 51.8211 286.868 Q56.6908 289.351 66.494 289.351 Q76.2654 289.351 81.167 286.868 Q86.0367 284.354 86.0367 279.389 Q86.0367 274.392 81.167 271.909 Q76.2654 269.394 66.494 269.394 Q56.6908 269.394 51.8211 271.909 Q46.9195 274.392 46.9195 279.389 M41.8269 279.389 Q41.8269 271.4 48.1608 267.198 Q54.4628 262.965 66.494 262.965 Q78.4934 262.965 84.8273 267.198 Q91.1293 271.4 91.1293 279.389 Q91.1293 287.378 84.8273 291.611 Q78.4934 295.812 66.494 295.812 Q54.4628 295.812 48.1608 291.611 Q41.8269 287.378 41.8269 279.389 Z" fill="#000000" fill-rule="nonzero" fill-opacity="1" /><polyline clip-path="url(#clip152)" style="stroke:#009af9; stroke-linecap:round; stroke-linejoin:round; stroke-width:4; stroke-opacity:1; fill:none" points="350.696,337.347 371.311,182.928 391.926,169.033 412.54,184.179 433.155,173.179 453.77,147.972 474.384,168.395 494.999,156.983 515.613,200.006 536.228,181.456 556.843,159.065 577.457,163.444 598.072,185.611 618.687,176.533 639.301,149.513 659.916,204.666 680.531,168.326 701.145,195.618 721.76,132.545 742.374,172.26 762.989,207.456 783.604,172.905 804.218,206.15 824.833,157.178 845.448,151.226 866.062,127.218 886.677,152.08 907.292,132.3 927.906,164.68 948.521,159.873 969.136,145.963 989.75,151.974 1010.36,152.244 1030.98,165.831 1051.59,153.633 1072.21,174.796 1092.82,163.818 1113.44,164.367 1134.05,156.536 1154.67,150.652 1175.28,182.639 1195.9,172.744 1216.51,145.319 1237.13,140.073 1257.74,179.606 1278.36,146.906 1298.97,163.654 1319.58,145.573 1340.2,187.25 1360.81,172.94 1381.43,146.648 1402.04,159.952 1422.66,185.536 1443.27,139.729 1463.89,142.5 1484.5,162.675 1505.12,189.878 1525.73,164.283 1546.35,132.594 1566.96,182.855 1587.57,184.15 1608.19,202.201 1628.8,124.361 1649.42,169.313 1670.03,131.686 1690.65,189.364 1711.26,179.214 1731.88,168.606 1752.49,143.147 1773.11,152.708 1793.72,177.993 1814.34,206.417 1834.95,175.091 1855.57,168.585 1876.18,190.113 1896.79,185.131 1917.41,194.174 1938.02,140.375 1958.64,187.74 1979.25,199.516 1999.87,175.178 2020.48,185.456 2041.1,203.44 2061.71,149.896 2082.33,158.463 2102.94,190.444 2123.56,170.959 2144.17,147.692 2164.78,192.394 2185.4,163.123 2206.01,149.997 2226.63,171.059 2247.24,134.222 2267.86,144.771 2288.47,149.611 2309.09,179.273 2329.7,169.309 2350.32,158.845 2370.93,170.139 2391.55,201.23 2412.16,160.226 2432.78,138.916 2453.39,142.633 2474,162.952 2494.62,185.283 2515.23,173.897 2535.85,195.435 2556.46,176.699 2577.08,120.122 2597.69,151.901 2618.31,136.345 2638.92,216.911 2659.54,145.092 2680.15,150.621 2700.77,190.312 2721.38,168.352 2741.99,185.269 2762.61,149.54 2783.22,150.194 2803.84,172.461 2824.45,218.195 2845.07,167.912 2865.68,202.242 2886.3,110.236 2906.91,127.292 2927.53,156.19 2948.14,194.188 2968.76,127.761 2989.37,188.232 3009.99,190.811 "/>
</svg>
