<?xml version="1.0" encoding="utf-8"?>
<svg xmlns="http://www.w3.org/2000/svg" xmlns:xlink="http://www.w3.org/1999/xlink" width="800" height="300" viewBox="0 0 3200 1200">
<defs>
  <clipPath id="clip110">
    <rect x="0" y="0" width="3200" height="1200"/>
  </clipPath>
</defs>
<path clip-path="url(#clip110)" d="M0 1200 L3200 1200 L3200 0 L0 0  Z" fill="#ffffff" fill-rule="evenodd" fill-opacity="1"/>
<defs>
  <clipPath id="clip111">
    <rect x="640" y="0" width="2241" height="1200"/>
  </clipPath>
</defs>
<path clip-path="url(#clip110)" d="M270.918 1000.1 L3089.76 1000.1 L3089.76 110.236 L270.918 110.236  Z" fill="#ffffff" fill-rule="evenodd" fill-opacity="1"/>
<defs>
  <clipPath id="clip112">
    <rect x="270" y="110" width="2820" height="891"/>
  </clipPath>
</defs>
<polyline clip-path="url(#clip112)" style="stroke:#000000; stroke-linecap:round; stroke-linejoin:round; stroke-width:2; stroke-opacity:0.1; fill:none" points="330.55,1000.1 330.55,110.236 "/>
<polyline clip-path="url(#clip112)" style="stroke:#000000; stroke-linecap:round; stroke-linejoin:round; stroke-width:2; stroke-opacity:0.1; fill:none" points="733.473,1000.1 733.473,110.236 "/>
<polyline clip-path="url(#clip112)" style="stroke:#000000; stroke-linecap:round; stroke-linejoin:round; stroke-width:2; stroke-opacity:0.1; fill:none" points="1136.4,1000.1 1136.4,110.236 "/>
<polyline clip-path="url(#clip112)" style="stroke:#000000; stroke-linecap:round; stroke-linejoin:round; stroke-width:2; stroke-opacity:0.1; fill:none" points="1539.32,1000.1 1539.32,110.236 "/>
<polyline clip-path="url(#clip112)" style="stroke:#000000; stroke-linecap:round; stroke-linejoin:round; stroke-width:2; stroke-opacity:0.1; fill:none" points="1942.24,1000.1 1942.24,110.236 "/>
<polyline clip-path="url(#clip112)" style="stroke:#000000; stroke-linecap:round; stroke-linejoin:round; stroke-width:2; stroke-opacity:0.1; fill:none" points="2345.16,1000.1 2345.16,110.236 "/>
<polyline clip-path="url(#clip112)" style="stroke:#000000; stroke-linecap:round; stroke-linejoin:round; stroke-width:2; stroke-opacity:0.1; fill:none" points="2748.09,1000.1 2748.09,110.236 "/>
<polyline clip-path="url(#clip110)" style="stroke:#000000; stroke-linecap:round; stroke-linejoin:round; stroke-width:4; stroke-opacity:1; fill:none" points="270.918,1000.1 3089.76,1000.1 "/>
<polyline clip-path="url(#clip110)" style="stroke:#000000; stroke-linecap:round; stroke-linejoin:round; stroke-width:4; stroke-opacity:1; fill:none" points="330.55,1000.1 330.55,981.2 "/>
<polyline clip-path="url(#clip110)" style="stroke:#000000; stroke-linecap:round; stroke-linejoin:round; stroke-width:4; stroke-opacity:1; fill:none" points="733.473,1000.1 733.473,981.2 "/>
<polyline clip-path="url(#clip110)" style="stroke:#000000; stroke-linecap:round; stroke-linejoin:round; stroke-width:4; stroke-opacity:1; fill:none" points="1136.4,1000.1 1136.4,981.2 "/>
<polyline clip-path="url(#clip110)" style="stroke:#000000; stroke-linecap:round; stroke-linejoin:round; stroke-width:4; stroke-opacity:1; fill:none" points="1539.32,1000.1 1539.32,981.2 "/>
<polyline clip-path="url(#clip110)" style="stroke:#000000; stroke-linecap:round; stroke-linejoin:round; stroke-width:4; stroke-opacity:1; fill:none" points="1942.24,1000.1 1942.24,981.2 "/>
<polyline clip-path="url(#clip110)" style="stroke:#000000; stroke-linecap:round; stroke-linejoin:round; stroke-width:4; stroke-opacity:1; fill:none" points="2345.16,1000.1 2345.16,981.2 "/>
<polyline clip-path="url(#clip110)" style="stroke:#000000; stroke-linecap:round; stroke-linejoin:round; stroke-width:4; stroke-opacity:1; fill:none" points="2748.09,1000.1 2748.09,981.2 "/>
<path clip-path="url(#clip110)" d="M330.55 1037.42 Q326.939 1037.42 325.11 1040.98 Q323.305 1044.52 323.305 1051.65 Q323.305 1058.76 325.11 1062.32 Q326.939 1065.87 330.55 1065.87 Q334.184 1065.87 335.99 1062.32 Q337.819 1058.76 337.819 1051.65 Q337.819 1044.52 335.99 1040.98 Q334.184 1037.42 330.55 1037.42 M330.55 1033.71 Q336.36 1033.71 339.416 1038.32 Q342.495 1042.9 342.495 1051.65 Q342.495 1060.38 339.416 1064.99 Q336.36 1069.57 330.55 1069.57 Q324.74 1069.57 321.661 1064.99 Q318.606 1060.38 318.606 1051.65 Q318.606 1042.9 321.661 1038.32 Q324.74 1033.71 330.55 1033.71 Z" fill="#000000" fill-rule="nonzero" fill-opacity="1" /><path clip-path="url(#clip110)" d="M712.246 1064.96 L728.565 1064.96 L728.565 1068.9 L706.621 1068.9 L706.621 1064.96 Q709.283 1062.21 713.866 1057.58 Q718.473 1052.93 719.653 1051.58 Q721.899 1049.06 722.778 1047.32 Q723.681 1045.56 723.681 1043.87 Q723.681 1041.12 721.737 1039.38 Q719.815 1037.65 716.714 1037.65 Q714.514 1037.65 712.061 1038.41 Q709.63 1039.18 706.852 1040.73 L706.852 1036 Q709.677 1034.87 712.13 1034.29 Q714.584 1033.71 716.621 1033.71 Q721.991 1033.71 725.186 1036.4 Q728.38 1039.08 728.38 1043.57 Q728.38 1045.7 727.57 1047.62 Q726.783 1049.52 724.676 1052.12 Q724.098 1052.79 720.996 1056 Q717.894 1059.2 712.246 1064.96 Z" fill="#000000" fill-rule="nonzero" fill-opacity="1" /><path clip-path="url(#clip110)" d="M748.38 1037.42 Q744.769 1037.42 742.94 1040.98 Q741.135 1044.52 741.135 1051.65 Q741.135 1058.76 742.94 1062.32 Q744.769 1065.87 748.38 1065.87 Q752.014 1065.87 753.82 1062.32 Q755.649 1058.76 755.649 1051.65 Q755.649 1044.52 753.82 1040.98 Q752.014 1037.42 748.38 1037.42 M748.38 1033.71 Q754.19 1033.71 757.246 1038.32 Q760.324 1042.9 760.324 1051.65 Q760.324 1060.38 757.246 1064.99 Q754.19 1069.57 748.38 1069.57 Q742.57 1069.57 739.491 1064.99 Q736.436 1060.38 736.436 1051.65 Q736.436 1042.9 739.491 1038.32 Q742.57 1033.71 748.38 1033.71 Z" fill="#000000" fill-rule="nonzero" fill-opacity="1" /><path clip-path="url(#clip110)" d="M1124.57 1038.41 L1112.76 1056.86 L1124.57 1056.86 L1124.57 1038.41 M1123.34 1034.34 L1129.22 1034.34 L1129.22 1056.86 L1134.15 1056.86 L1134.15 1060.75 L1129.22 1060.75 L1129.22 1068.9 L1124.57 1068.9 L1124.57 1060.75 L1108.96 1060.75 L1108.96 1056.24 L1123.34 1034.34 Z" fill="#000000" fill-rule="nonzero" fill-opacity="1" /><path clip-path="url(#clip110)" d="M1151.88 1037.42 Q1148.27 1037.42 1146.44 1040.98 Q1144.64 1044.52 1144.64 1051.65 Q1144.64 1058.76 1146.44 1062.32 Q1148.27 1065.87 1151.88 1065.87 Q1155.52 1065.87 1157.32 1062.32 Q1159.15 1058.76 1159.15 1051.65 Q1159.15 1044.52 1157.32 1040.98 Q1155.52 1037.42 1151.88 1037.42 M1151.88 1033.71 Q1157.69 1033.71 1160.75 1038.32 Q1163.83 1042.9 1163.83 1051.65 Q1163.83 1060.38 1160.75 1064.99 Q1157.69 1069.57 1151.88 1069.57 Q1146.07 1069.57 1142.99 1064.99 Q1139.94 1060.38 1139.94 1051.65 Q1139.94 1042.9 1142.99 1038.32 Q1146.07 1033.71 1151.88 1033.71 Z" fill="#000000" fill-rule="nonzero" fill-opacity="1" /><path clip-path="url(#clip110)" d="M1524.72 1049.75 Q1521.57 1049.75 1519.72 1051.91 Q1517.89 1054.06 1517.89 1057.81 Q1517.89 1061.54 1519.72 1063.71 Q1521.57 1065.87 1524.72 1065.87 Q1527.87 1065.87 1529.7 1063.71 Q1531.55 1061.54 1531.55 1057.81 Q1531.55 1054.06 1529.7 1051.91 Q1527.87 1049.75 1524.72 1049.75 M1534.01 1035.1 L1534.01 1039.36 Q1532.25 1038.53 1530.44 1038.09 Q1528.66 1037.65 1526.9 1037.65 Q1522.27 1037.65 1519.82 1040.77 Q1517.39 1043.9 1517.04 1050.22 Q1518.4 1048.2 1520.46 1047.14 Q1522.52 1046.05 1525 1046.05 Q1530.21 1046.05 1533.22 1049.22 Q1536.25 1052.37 1536.25 1057.81 Q1536.25 1063.13 1533.1 1066.35 Q1529.95 1069.57 1524.72 1069.57 Q1518.73 1069.57 1515.56 1064.99 Q1512.39 1060.38 1512.39 1051.65 Q1512.39 1043.46 1516.27 1038.6 Q1520.16 1033.71 1526.71 1033.71 Q1528.47 1033.71 1530.26 1034.06 Q1532.06 1034.41 1534.01 1035.1 Z" fill="#000000" fill-rule="nonzero" fill-opacity="1" /><path clip-path="url(#clip110)" d="M1554.31 1037.42 Q1550.7 1037.42 1548.87 1040.98 Q1547.06 1044.52 1547.06 1051.65 Q1547.06 1058.76 1548.87 1062.32 Q1550.7 1065.87 1554.31 1065.87 Q1557.94 1065.87 1559.75 1062.32 Q1561.57 1058.76 1561.57 1051.65 Q1561.57 1044.52 1559.75 1040.98 Q1557.94 1037.42 1554.31 1037.42 M1554.31 1033.71 Q1560.12 1033.71 1563.17 1038.32 Q1566.25 1042.9 1566.25 1051.65 Q1566.25 1060.38 1563.17 1064.99 Q1560.12 1069.57 1554.31 1069.57 Q1548.5 1069.57 1545.42 1064.99 Q1542.36 1060.38 1542.36 1051.65 Q1542.36 1042.9 1545.42 1038.32 Q1548.5 1033.71 1554.31 1033.71 Z" fill="#000000" fill-rule="nonzero" fill-opacity="1" /><path clip-path="url(#clip110)" d="M1927.11 1052.49 Q1923.78 1052.49 1921.86 1054.27 Q1919.96 1056.05 1919.96 1059.18 Q1919.96 1062.3 1921.86 1064.08 Q1923.78 1065.87 1927.11 1065.87 Q1930.45 1065.87 1932.37 1064.08 Q1934.29 1062.28 1934.29 1059.18 Q1934.29 1056.05 1932.37 1054.27 Q1930.47 1052.49 1927.11 1052.49 M1922.44 1050.5 Q1919.43 1049.75 1917.74 1047.69 Q1916.07 1045.63 1916.07 1042.67 Q1916.07 1038.53 1919.01 1036.12 Q1921.97 1033.71 1927.11 1033.71 Q1932.28 1033.71 1935.21 1036.12 Q1938.15 1038.53 1938.15 1042.67 Q1938.15 1045.63 1936.46 1047.69 Q1934.8 1049.75 1931.81 1050.5 Q1935.19 1051.28 1937.07 1053.57 Q1938.96 1055.87 1938.96 1059.18 Q1938.96 1064.2 1935.89 1066.88 Q1932.83 1069.57 1927.11 1069.57 Q1921.4 1069.57 1918.32 1066.88 Q1915.26 1064.2 1915.26 1059.18 Q1915.26 1055.87 1917.16 1053.57 Q1919.06 1051.28 1922.44 1050.5 M1920.72 1043.11 Q1920.72 1045.8 1922.39 1047.3 Q1924.08 1048.81 1927.11 1048.81 Q1930.12 1048.81 1931.81 1047.3 Q1933.53 1045.8 1933.53 1043.11 Q1933.53 1040.43 1931.81 1038.92 Q1930.12 1037.42 1927.11 1037.42 Q1924.08 1037.42 1922.39 1038.92 Q1920.72 1040.43 1920.72 1043.11 Z" fill="#000000" fill-rule="nonzero" fill-opacity="1" /><path clip-path="url(#clip110)" d="M1957.28 1037.42 Q1953.66 1037.42 1951.84 1040.98 Q1950.03 1044.52 1950.03 1051.65 Q1950.03 1058.76 1951.84 1062.32 Q1953.66 1065.87 1957.28 1065.87 Q1960.91 1065.87 1962.71 1062.32 Q1964.54 1058.76 1964.54 1051.65 Q1964.54 1044.52 1962.71 1040.98 Q1960.91 1037.42 1957.28 1037.42 M1957.28 1033.71 Q1963.09 1033.71 1966.14 1038.32 Q1969.22 1042.9 1969.22 1051.65 Q1969.22 1060.38 1966.14 1064.99 Q1963.09 1069.57 1957.28 1069.57 Q1951.46 1069.57 1948.39 1064.99 Q1945.33 1060.38 1945.33 1051.65 Q1945.33 1042.9 1948.39 1038.32 Q1951.46 1033.71 1957.28 1033.71 Z" fill="#000000" fill-rule="nonzero" fill-opacity="1" /><path clip-path="url(#clip110)" d="M2304.77 1064.96 L2312.41 1064.96 L2312.41 1038.6 L2304.1 1040.26 L2304.1 1036 L2312.36 1034.34 L2317.04 1034.34 L2317.04 1064.96 L2324.68 1064.96 L2324.68 1068.9 L2304.77 1068.9 L2304.77 1064.96 Z" fill="#000000" fill-rule="nonzero" fill-opacity="1" /><path clip-path="url(#clip110)" d="M2344.12 1037.42 Q2340.51 1037.42 2338.68 1040.98 Q2336.88 1044.52 2336.88 1051.65 Q2336.88 1058.76 2338.68 1062.32 Q2340.51 1065.87 2344.12 1065.87 Q2347.76 1065.87 2349.56 1062.32 Q2351.39 1058.76 2351.39 1051.65 Q2351.39 1044.52 2349.56 1040.98 Q2347.76 1037.42 2344.12 1037.42 M2344.12 1033.71 Q2349.93 1033.71 2352.99 1038.32 Q2356.07 1042.9 2356.07 1051.65 Q2356.07 1060.38 2352.99 1064.99 Q2349.93 1069.57 2344.12 1069.57 Q2338.31 1069.57 2335.23 1064.99 Q2332.18 1060.38 2332.18 1051.65 Q2332.18 1042.9 2335.23 1038.32 Q2338.31 1033.71 2344.12 1033.71 Z" fill="#000000" fill-rule="nonzero" fill-opacity="1" /><path clip-path="url(#clip110)" d="M2374.28 1037.42 Q2370.67 1037.42 2368.84 1040.98 Q2367.04 1044.52 2367.04 1051.65 Q2367.04 1058.76 2368.84 1062.32 Q2370.67 1065.87 2374.28 1065.87 Q2377.92 1065.87 2379.72 1062.32 Q2381.55 1058.76 2381.55 1051.65 Q2381.55 1044.52 2379.72 1040.98 Q2377.92 1037.42 2374.28 1037.42 M2374.28 1033.71 Q2380.09 1033.71 2383.15 1038.32 Q2386.23 1042.9 2386.23 1051.65 Q2386.23 1060.38 2383.15 1064.99 Q2380.09 1069.57 2374.28 1069.57 Q2368.47 1069.57 2365.39 1064.99 Q2362.34 1060.38 2362.34 1051.65 Q2362.34 1042.9 2365.39 1038.32 Q2368.47 1033.71 2374.28 1033.71 Z" fill="#000000" fill-rule="nonzero" fill-opacity="1" /><path clip-path="url(#clip110)" d="M2707.69 1064.96 L2715.33 1064.96 L2715.33 1038.6 L2707.02 1040.26 L2707.02 1036 L2715.28 1034.34 L2719.96 1034.34 L2719.96 1064.96 L2727.6 1064.96 L2727.6 1068.9 L2707.69 1068.9 L2707.69 1064.96 Z" fill="#000000" fill-rule="nonzero" fill-opacity="1" /><path clip-path="url(#clip110)" d="M2741.07 1064.96 L2757.39 1064.96 L2757.39 1068.9 L2735.45 1068.9 L2735.45 1064.96 Q2738.11 1062.21 2742.69 1057.58 Q2747.3 1052.93 2748.48 1051.58 Q2750.72 1049.06 2751.6 1047.32 Q2752.51 1045.56 2752.51 1043.87 Q2752.51 1041.12 2750.56 1039.38 Q2748.64 1037.65 2745.54 1037.65 Q2743.34 1037.65 2740.89 1038.41 Q2738.46 1039.18 2735.68 1040.73 L2735.68 1036 Q2738.5 1034.87 2740.96 1034.29 Q2743.41 1033.71 2745.45 1033.71 Q2750.82 1033.71 2754.01 1036.4 Q2757.21 1039.08 2757.21 1043.57 Q2757.21 1045.7 2756.4 1047.62 Q2755.61 1049.52 2753.5 1052.12 Q2752.92 1052.79 2749.82 1056 Q2746.72 1059.2 2741.07 1064.96 Z" fill="#000000" fill-rule="nonzero" fill-opacity="1" /><path clip-path="url(#clip110)" d="M2777.21 1037.42 Q2773.59 1037.42 2771.77 1040.98 Q2769.96 1044.52 2769.96 1051.65 Q2769.96 1058.76 2771.77 1062.32 Q2773.59 1065.87 2777.21 1065.87 Q2780.84 1065.87 2782.65 1062.32 Q2784.47 1058.76 2784.47 1051.65 Q2784.47 1044.52 2782.65 1040.98 Q2780.84 1037.42 2777.21 1037.42 M2777.21 1033.71 Q2783.02 1033.71 2786.07 1038.32 Q2789.15 1042.9 2789.15 1051.65 Q2789.15 1060.38 2786.07 1064.99 Q2783.02 1069.57 2777.21 1069.57 Q2771.4 1069.57 2768.32 1064.99 Q2765.26 1060.38 2765.26 1051.65 Q2765.26 1042.9 2768.32 1038.32 Q2771.4 1033.71 2777.21 1033.71 Z" fill="#000000" fill-rule="nonzero" fill-opacity="1" /><path clip-path="url(#clip110)" d="M1556.64 1109.44 L1563.07 1109.44 L1563.07 1151.55 L1586.21 1151.55 L1586.21 1156.96 L1556.64 1156.96 L1556.64 1109.44 Z" fill="#000000" fill-rule="nonzero" fill-opacity="1" /><path clip-path="url(#clip110)" d="M1592.7 1121.31 L1598.56 1121.31 L1598.56 1156.96 L1592.7 1156.96 L1592.7 1121.31 M1592.7 1107.44 L1598.56 1107.44 L1598.56 1114.85 L1592.7 1114.85 L1592.7 1107.44 Z" fill="#000000" fill-rule="nonzero" fill-opacity="1" /><path clip-path="url(#clip110)" d="M1640.44 1135.45 L1640.44 1156.96 L1634.59 1156.96 L1634.59 1135.64 Q1634.59 1130.58 1632.61 1128.06 Q1630.64 1125.55 1626.69 1125.55 Q1621.95 1125.55 1619.21 1128.57 Q1616.48 1131.59 1616.48 1136.81 L1616.48 1156.96 L1610.59 1156.96 L1610.59 1121.31 L1616.48 1121.31 L1616.48 1126.85 Q1618.58 1123.64 1621.41 1122.05 Q1624.27 1120.45 1628 1120.45 Q1634.14 1120.45 1637.29 1124.27 Q1640.44 1128.06 1640.44 1135.45 Z" fill="#000000" fill-rule="nonzero" fill-opacity="1" /><path clip-path="url(#clip110)" d="M1682.62 1137.67 L1682.62 1140.54 L1655.69 1140.54 Q1656.07 1146.59 1659.32 1149.77 Q1662.6 1152.92 1668.42 1152.92 Q1671.79 1152.92 1674.95 1152.09 Q1678.13 1151.26 1681.25 1149.61 L1681.25 1155.15 Q1678.1 1156.48 1674.79 1157.18 Q1671.48 1157.88 1668.07 1157.88 Q1659.54 1157.88 1654.54 1152.92 Q1649.58 1147.95 1649.58 1139.49 Q1649.58 1130.74 1654.29 1125.61 Q1659.03 1120.45 1667.05 1120.45 Q1674.25 1120.45 1678.42 1125.1 Q1682.62 1129.72 1682.62 1137.67 M1676.76 1135.95 Q1676.7 1131.15 1674.05 1128.28 Q1671.44 1125.42 1667.12 1125.42 Q1662.21 1125.42 1659.25 1128.19 Q1656.33 1130.96 1655.88 1135.99 L1676.76 1135.95 Z" fill="#000000" fill-rule="nonzero" fill-opacity="1" /><path clip-path="url(#clip110)" d="M1708.43 1139.04 Q1701.33 1139.04 1698.59 1140.67 Q1695.86 1142.29 1695.86 1146.2 Q1695.86 1149.32 1697.89 1151.17 Q1699.96 1152.98 1703.5 1152.98 Q1708.37 1152.98 1711.29 1149.55 Q1714.25 1146.08 1714.25 1140.35 L1714.25 1139.04 L1708.43 1139.04 M1720.11 1136.62 L1720.11 1156.96 L1714.25 1156.96 L1714.25 1151.55 Q1712.25 1154.8 1709.26 1156.36 Q1706.27 1157.88 1701.94 1157.88 Q1696.46 1157.88 1693.22 1154.83 Q1690 1151.74 1690 1146.59 Q1690 1140.57 1694.01 1137.51 Q1698.05 1134.46 1706.04 1134.46 L1714.25 1134.46 L1714.25 1133.89 Q1714.25 1129.84 1711.58 1127.65 Q1708.94 1125.42 1704.13 1125.42 Q1701.08 1125.42 1698.18 1126.15 Q1695.28 1126.88 1692.61 1128.35 L1692.61 1122.94 Q1695.83 1121.7 1698.85 1121.09 Q1701.87 1120.45 1704.74 1120.45 Q1712.47 1120.45 1716.29 1124.46 Q1720.11 1128.48 1720.11 1136.62 Z" fill="#000000" fill-rule="nonzero" fill-opacity="1" /><path clip-path="url(#clip110)" d="M1755.63 1138.72 Q1755.63 1132.36 1752.99 1128.86 Q1750.38 1125.36 1745.64 1125.36 Q1740.93 1125.36 1738.28 1128.86 Q1735.67 1132.36 1735.67 1138.72 Q1735.67 1145.06 1738.28 1148.56 Q1740.93 1152.06 1745.64 1152.06 Q1750.38 1152.06 1752.99 1148.56 Q1755.63 1145.06 1755.63 1138.72 M1761.49 1152.54 Q1761.49 1161.64 1757.45 1166.06 Q1753.4 1170.52 1745.06 1170.52 Q1741.98 1170.52 1739.24 1170.04 Q1736.5 1169.6 1733.92 1168.64 L1733.92 1162.95 Q1736.5 1164.35 1739.02 1165.01 Q1741.53 1165.68 1744.14 1165.68 Q1749.9 1165.68 1752.77 1162.66 Q1755.63 1159.67 1755.63 1153.59 L1755.63 1150.69 Q1753.82 1153.84 1750.98 1155.4 Q1748.15 1156.96 1744.2 1156.96 Q1737.65 1156.96 1733.64 1151.96 Q1729.63 1146.97 1729.63 1138.72 Q1729.63 1130.45 1733.64 1125.45 Q1737.65 1120.45 1744.2 1120.45 Q1748.15 1120.45 1750.98 1122.01 Q1753.82 1123.57 1755.63 1126.72 L1755.63 1121.31 L1761.49 1121.31 L1761.49 1152.54 Z" fill="#000000" fill-rule="nonzero" fill-opacity="1" /><path clip-path="url(#clip110)" d="M1804.04 1137.67 L1804.04 1140.54 L1777.12 1140.54 Q1777.5 1146.59 1780.74 1149.77 Q1784.02 1152.92 1789.85 1152.92 Q1793.22 1152.92 1796.37 1152.09 Q1799.55 1151.26 1802.67 1149.61 L1802.67 1155.15 Q1799.52 1156.48 1796.21 1157.18 Q1792.9 1157.88 1789.5 1157.88 Q1780.97 1157.88 1775.97 1152.92 Q1771 1147.95 1771 1139.49 Q1771 1130.74 1775.71 1125.61 Q1780.46 1120.45 1788.48 1120.45 Q1795.67 1120.45 1799.84 1125.1 Q1804.04 1129.72 1804.04 1137.67 M1798.19 1135.95 Q1798.12 1131.15 1795.48 1128.28 Q1792.87 1125.42 1788.54 1125.42 Q1783.64 1125.42 1780.68 1128.19 Q1777.75 1130.96 1777.31 1135.99 L1798.19 1135.95 Z" fill="#000000" fill-rule="nonzero" fill-opacity="1" /><polyline clip-path="url(#clip112)" style="stroke:#000000; stroke-linecap:round; stroke-linejoin:round; stroke-width:2; stroke-opacity:0.1; fill:none" points="270.918,1000.1 3089.76,1000.1 "/>
<polyline clip-path="url(#clip112)" style="stroke:#000000; stroke-linecap:round; stroke-linejoin:round; stroke-width:2; stroke-opacity:0.1; fill:none" points="270.918,666.774 3089.76,666.774 "/>
<polyline clip-path="url(#clip112)" style="stroke:#000000; stroke-linecap:round; stroke-linejoin:round; stroke-width:2; stroke-opacity:0.1; fill:none" points="270.918,333.451 3089.76,333.451 "/>
<polyline clip-path="url(#clip110)" style="stroke:#000000; stroke-linecap:round; stroke-linejoin:round; stroke-width:4; stroke-opacity:1; fill:none" points="270.918,1000.1 270.918,110.236 "/>
<polyline clip-path="url(#clip110)" style="stroke:#000000; stroke-linecap:round; stroke-linejoin:round; stroke-width:4; stroke-opacity:1; fill:none" points="270.918,1000.1 289.815,1000.1 "/>
<polyline clip-path="url(#clip110)" style="stroke:#000000; stroke-linecap:round; stroke-linejoin:round; stroke-width:4; stroke-opacity:1; fill:none" points="270.918,666.774 289.815,666.774 "/>
<polyline clip-path="url(#clip110)" style="stroke:#000000; stroke-linecap:round; stroke-linejoin:round; stroke-width:4; stroke-opacity:1; fill:none" points="270.918,333.451 289.815,333.451 "/>
<path clip-path="url(#clip110)" d="M154.902 1019.89 L162.54 1019.89 L162.54 993.525 L154.23 995.191 L154.23 990.932 L162.494 989.265 L167.17 989.265 L167.17 1019.89 L174.809 1019.89 L174.809 1023.83 L154.902 1023.83 L154.902 1019.89 Z" fill="#000000" fill-rule="nonzero" fill-opacity="1" /><path clip-path="url(#clip110)" d="M194.253 992.344 Q190.642 992.344 188.813 995.909 Q187.008 999.45 187.008 1006.58 Q187.008 1013.69 188.813 1017.25 Q190.642 1020.79 194.253 1020.79 Q197.887 1020.79 199.693 1017.25 Q201.522 1013.69 201.522 1006.58 Q201.522 999.45 199.693 995.909 Q197.887 992.344 194.253 992.344 M194.253 988.64 Q200.063 988.64 203.119 993.247 Q206.198 997.83 206.198 1006.58 Q206.198 1015.31 203.119 1019.91 Q200.063 1024.5 194.253 1024.5 Q188.443 1024.5 185.364 1019.91 Q182.309 1015.31 182.309 1006.58 Q182.309 997.83 185.364 993.247 Q188.443 988.64 194.253 988.64 Z" fill="#000000" fill-rule="nonzero" fill-opacity="1" /><path clip-path="url(#clip110)" d="M206.743 993.218 L212.95 993.218 L212.95 971.796 L206.198 973.15 L206.198 969.689 L212.912 968.335 L216.711 968.335 L216.711 993.218 L222.918 993.218 L222.918 996.415 L206.743 996.415 L206.743 993.218 Z" fill="#000000" fill-rule="nonzero" fill-opacity="1" /><path clip-path="url(#clip110)" d="M153.792 686.567 L161.431 686.567 L161.431 660.201 L153.121 661.868 L153.121 657.609 L161.384 655.942 L166.06 655.942 L166.06 686.567 L173.699 686.567 L173.699 690.502 L153.792 690.502 L153.792 686.567 Z" fill="#000000" fill-rule="nonzero" fill-opacity="1" /><path clip-path="url(#clip110)" d="M193.143 659.021 Q189.532 659.021 187.704 662.586 Q185.898 666.127 185.898 673.257 Q185.898 680.363 187.704 683.928 Q189.532 687.47 193.143 687.47 Q196.778 687.47 198.583 683.928 Q200.412 680.363 200.412 673.257 Q200.412 666.127 198.583 662.586 Q196.778 659.021 193.143 659.021 M193.143 655.317 Q198.954 655.317 202.009 659.924 Q205.088 664.507 205.088 673.257 Q205.088 681.984 202.009 686.59 Q198.954 691.173 193.143 691.173 Q187.333 691.173 184.255 686.59 Q181.199 681.984 181.199 673.257 Q181.199 664.507 184.255 659.924 Q187.333 655.317 193.143 655.317 Z" fill="#000000" fill-rule="nonzero" fill-opacity="1" /><path clip-path="url(#clip110)" d="M209.658 659.894 L222.918 659.894 L222.918 663.092 L205.088 663.092 L205.088 659.894 Q207.251 657.656 210.975 653.895 Q214.717 650.114 215.677 649.023 Q217.501 646.973 218.216 645.563 Q218.949 644.133 218.949 642.76 Q218.949 640.522 217.369 639.112 Q215.808 637.701 213.288 637.701 Q211.501 637.701 209.508 638.322 Q207.533 638.942 205.276 640.203 L205.276 636.366 Q207.57 635.444 209.564 634.974 Q211.558 634.504 213.213 634.504 Q217.576 634.504 220.172 636.686 Q222.767 638.867 222.767 642.516 Q222.767 644.246 222.109 645.807 Q221.469 647.35 219.758 649.456 Q219.288 650.001 216.767 652.616 Q214.247 655.211 209.658 659.894 Z" fill="#000000" fill-rule="nonzero" fill-opacity="1" /><path clip-path="url(#clip110)" d="M153.134 353.244 L160.772 353.244 L160.772 326.878 L152.462 328.545 L152.462 324.285 L160.726 322.619 L165.402 322.619 L165.402 353.244 L173.041 353.244 L173.041 357.179 L153.134 357.179 L153.134 353.244 Z" fill="#000000" fill-rule="nonzero" fill-opacity="1" /><path clip-path="url(#clip110)" d="M192.485 325.697 Q188.874 325.697 187.045 329.262 Q185.24 332.804 185.24 339.934 Q185.24 347.04 187.045 350.605 Q188.874 354.146 192.485 354.146 Q196.119 354.146 197.925 350.605 Q199.754 347.04 199.754 339.934 Q199.754 332.804 197.925 329.262 Q196.119 325.697 192.485 325.697 M192.485 321.994 Q198.295 321.994 201.351 326.6 Q204.43 331.184 204.43 339.934 Q204.43 348.66 201.351 353.267 Q198.295 357.85 192.485 357.85 Q186.675 357.85 183.596 353.267 Q180.541 348.66 180.541 339.934 Q180.541 331.184 183.596 326.6 Q186.675 321.994 192.485 321.994 Z" fill="#000000" fill-rule="nonzero" fill-opacity="1" /><path clip-path="url(#clip110)" d="M217.125 314.628 Q219.852 315.211 221.375 317.054 Q222.918 318.897 222.918 321.606 Q222.918 325.762 220.059 328.038 Q217.2 330.314 211.934 330.314 Q210.166 330.314 208.285 329.956 Q206.423 329.618 204.43 328.922 L204.43 325.255 Q206.009 326.176 207.89 326.646 Q209.771 327.116 211.821 327.116 Q215.395 327.116 217.256 325.706 Q219.137 324.295 219.137 321.606 Q219.137 319.123 217.388 317.731 Q215.658 316.321 212.555 316.321 L209.282 316.321 L209.282 313.199 L212.705 313.199 Q215.507 313.199 216.993 312.089 Q218.479 310.961 218.479 308.854 Q218.479 306.691 216.937 305.544 Q215.413 304.378 212.555 304.378 Q210.994 304.378 209.207 304.716 Q207.42 305.055 205.276 305.77 L205.276 302.384 Q207.439 301.782 209.32 301.481 Q211.219 301.181 212.893 301.181 Q217.219 301.181 219.739 303.155 Q222.259 305.111 222.259 308.459 Q222.259 310.791 220.924 312.409 Q219.589 314.007 217.125 314.628 Z" fill="#000000" fill-rule="nonzero" fill-opacity="1" /><path clip-path="url(#clip110)" d="M42.6863 868.105 L42.6863 838.059 L48.0971 838.059 L48.0971 861.676 L62.1653 861.676 L62.1653 839.046 L67.5762 839.046 L67.5762 861.676 L84.7954 861.676 L84.7954 837.486 L90.2063 837.486 L90.2063 868.105 L42.6863 868.105 Z" fill="#000000" fill-rule="nonzero" fill-opacity="1" /><path clip-path="url(#clip110)" d="M44.2459 798.432 L50.5161 798.432 Q48.7655 802.093 47.9062 805.339 Q47.0468 808.586 47.0468 811.609 Q47.0468 816.861 49.0838 819.726 Q51.1208 822.558 54.8766 822.558 Q58.0276 822.558 59.6509 820.681 Q61.2423 818.771 62.229 813.487 L63.0247 809.604 Q64.3933 802.411 67.8627 799.005 Q71.3001 795.568 77.0929 795.568 Q83.9997 795.568 87.5645 800.215 Q91.1293 804.83 91.1293 813.774 Q91.1293 817.148 90.3654 820.967 Q89.6015 824.755 88.1056 828.829 L81.4853 828.829 Q83.6814 824.914 84.7954 821.158 Q85.9094 817.402 85.9094 813.774 Q85.9094 808.267 83.7451 805.276 Q81.5808 802.284 77.5704 802.284 Q74.0692 802.284 72.0958 804.448 Q70.1225 806.581 69.1358 811.482 L68.3719 815.397 Q66.9396 822.59 63.8841 825.805 Q60.8285 829.02 55.3859 829.02 Q49.0838 829.02 45.4554 824.596 Q41.8269 820.14 41.8269 812.342 Q41.8269 809 42.4317 805.53 Q43.0364 802.061 44.2459 798.432 Z" fill="#000000" fill-rule="nonzero" fill-opacity="1" /><path clip-path="url(#clip110)" d="M44.2459 757.055 L50.5161 757.055 Q48.7655 760.716 47.9062 763.962 Q47.0468 767.209 47.0468 770.232 Q47.0468 775.484 49.0838 778.349 Q51.1208 781.181 54.8766 781.181 Q58.0276 781.181 59.6509 779.303 Q61.2423 777.394 62.229 772.11 L63.0247 768.227 Q64.3933 761.034 67.8627 757.628 Q71.3001 754.191 77.0929 754.191 Q83.9997 754.191 87.5645 758.838 Q91.1293 763.453 91.1293 772.397 Q91.1293 775.771 90.3654 779.59 Q89.6015 783.378 88.1056 787.452 L81.4853 787.452 Q83.6814 783.537 84.7954 779.781 Q85.9094 776.025 85.9094 772.397 Q85.9094 766.89 83.7451 763.898 Q81.5808 760.907 77.5704 760.907 Q74.0692 760.907 72.0958 763.071 Q70.1225 765.203 69.1358 770.105 L68.3719 774.02 Q66.9396 781.213 63.8841 784.428 Q60.8285 787.643 55.3859 787.643 Q49.0838 787.643 45.4554 783.218 Q41.8269 778.762 41.8269 770.964 Q41.8269 767.622 42.4317 764.153 Q43.0364 760.684 44.2459 757.055 Z" fill="#000000" fill-rule="nonzero" fill-opacity="1" /><path clip-path="url(#clip110)" d="M82.1218 742.923 L82.1218 736.208 L90.2063 736.208 L90.2063 742.923 L82.1218 742.923 M56.4999 742.923 L56.4999 736.208 L64.5843 736.208 L64.5843 742.923 L56.4999 742.923 Z" fill="#000000" fill-rule="nonzero" fill-opacity="1" /><path clip-path="url(#clip110)" d="M42.6863 702.215 L42.6863 695.754 L71.5548 695.754 Q79.1936 695.754 82.5674 692.985 Q85.9094 690.215 85.9094 684.009 Q85.9094 677.834 82.5674 675.065 Q79.1936 672.296 71.5548 672.296 L42.6863 672.296 L42.6863 665.835 L72.3505 665.835 Q81.6444 665.835 86.3869 670.45 Q91.1293 675.033 91.1293 684.009 Q91.1293 693.016 86.3869 697.631 Q81.6444 702.215 72.3505 702.215 L42.6863 702.215 Z" fill="#000000" fill-rule="nonzero" fill-opacity="1" /><path clip-path="url(#clip110)" d="M44.2459 625.285 L50.5161 625.285 Q48.7655 628.946 47.9062 632.192 Q47.0468 635.439 47.0468 638.462 Q47.0468 643.714 49.0838 646.579 Q51.1208 649.411 54.8766 649.411 Q58.0276 649.411 59.6509 647.533 Q61.2423 645.624 62.229 640.34 L63.0247 636.457 Q64.3933 629.264 67.8627 625.858 Q71.3001 622.421 77.0929 622.421 Q83.9997 622.421 87.5645 627.068 Q91.1293 631.683 91.1293 640.627 Q91.1293 644 90.3654 647.82 Q89.6015 651.607 88.1056 655.681 L81.4853 655.681 Q83.6814 651.767 84.7954 648.011 Q85.9094 644.255 85.9094 640.627 Q85.9094 635.12 83.7451 632.128 Q81.5808 629.136 77.5704 629.136 Q74.0692 629.136 72.0958 631.301 Q70.1225 633.433 69.1358 638.335 L68.3719 642.25 Q66.9396 649.443 63.8841 652.658 Q60.8285 655.872 55.3859 655.872 Q49.0838 655.872 45.4554 651.448 Q41.8269 646.992 41.8269 639.194 Q41.8269 635.852 42.4317 632.383 Q43.0364 628.914 44.2459 625.285 Z" fill="#000000" fill-rule="nonzero" fill-opacity="1" /><path clip-path="url(#clip110)" d="M49.0202 595.303 L72.6688 604.024 L72.6688 586.55 L49.0202 595.303 M42.6863 598.931 L42.6863 591.642 L90.2063 573.532 L90.2063 580.216 L78.016 584.545 L78.016 605.965 L90.2063 610.294 L90.2063 617.073 L42.6863 598.931 Z" fill="#000000" fill-rule="nonzero" fill-opacity="1" /><path clip-path="url(#clip110)" d="M82.1218 565.352 L82.1218 558.636 L87.5963 558.636 L97.7815 563.856 L97.7815 567.962 L87.5963 565.352 L82.1218 565.352 Z" fill="#000000" fill-rule="nonzero" fill-opacity="1" /><path clip-path="url(#clip110)" d="M44.4369 519.614 L54.5583 519.614 L54.5583 507.551 L59.1098 507.551 L59.1098 519.614 L78.4616 519.614 Q82.8221 519.614 84.0634 518.437 Q85.3047 517.227 85.3047 513.567 L85.3047 507.551 L90.2063 507.551 L90.2063 513.567 Q90.2063 520.347 87.6918 522.925 Q85.1455 525.503 78.4616 525.503 L59.1098 525.503 L59.1098 529.8 L54.5583 529.8 L54.5583 525.503 L44.4369 525.503 L44.4369 519.614 Z" fill="#000000" fill-rule="nonzero" fill-opacity="1" /><path clip-path="url(#clip110)" d="M54.5583 499.849 L54.5583 493.993 L90.2063 493.993 L90.2063 499.849 L54.5583 499.849 M40.6811 499.849 L40.6811 493.993 L48.0971 493.993 L48.0971 499.849 L40.6811 499.849 Z" fill="#000000" fill-rule="nonzero" fill-opacity="1" /><path clip-path="url(#clip110)" d="M61.4015 453.984 Q57.4547 451.788 55.5768 448.732 Q53.699 445.677 53.699 441.539 Q53.699 435.969 57.6139 432.945 Q61.4969 429.922 68.6902 429.922 L90.2063 429.922 L90.2063 435.81 L68.8812 435.81 Q63.7568 435.81 61.2741 437.624 Q58.7915 439.438 58.7915 443.162 Q58.7915 447.714 61.8152 450.356 Q64.8389 452.997 70.0588 452.997 L90.2063 452.997 L90.2063 458.886 L68.8812 458.886 Q63.7249 458.886 61.2741 460.7 Q58.7915 462.514 58.7915 466.302 Q58.7915 470.79 61.8471 473.431 Q64.8708 476.073 70.0588 476.073 L90.2063 476.073 L90.2063 481.961 L54.5583 481.961 L54.5583 476.073 L60.0965 476.073 Q56.8182 474.068 55.2586 471.267 Q53.699 468.466 53.699 464.615 Q53.699 460.732 55.6723 458.026 Q57.6457 455.289 61.4015 453.984 Z" fill="#000000" fill-rule="nonzero" fill-opacity="1" /><path clip-path="url(#clip110)" d="M70.9182 387.749 L73.7828 387.749 L73.7828 414.676 Q79.8302 414.294 83.013 411.047 Q86.1641 407.769 86.1641 401.944 Q86.1641 398.571 85.3365 395.42 Q84.509 392.237 82.8539 389.118 L88.3921 389.118 Q89.7289 392.269 90.4291 395.579 Q91.1293 398.889 91.1293 402.295 Q91.1293 410.825 86.1641 415.822 Q81.1988 420.787 72.7324 420.787 Q63.9796 420.787 58.8552 416.076 Q53.699 411.334 53.699 403.313 Q53.699 396.12 58.3459 391.95 Q62.9611 387.749 70.9182 387.749 M69.1995 393.605 Q64.3933 393.669 61.5288 396.311 Q58.6642 398.921 58.6642 403.249 Q58.6642 408.151 61.4333 411.111 Q64.2024 414.039 69.2313 414.485 L69.1995 393.605 Z" fill="#000000" fill-rule="nonzero" fill-opacity="1" /><path clip-path="url(#clip110)" d="M82.1218 376.641 L82.1218 369.925 L90.2063 369.925 L90.2063 376.641 L82.1218 376.641 M56.4999 376.641 L56.4999 369.925 L64.5843 369.925 L64.5843 376.641 L56.4999 376.641 Z" fill="#000000" fill-rule="nonzero" fill-opacity="1" /><path clip-path="url(#clip110)" d="M84.7954 354.233 L84.7954 343.73 L48.5427 343.73 L50.8344 355.156 L44.9779 355.156 L42.6863 343.794 L42.6863 337.364 L84.7954 337.364 L84.7954 326.861 L90.2063 326.861 L90.2063 354.233 L84.7954 354.233 Z" fill="#000000" fill-rule="nonzero" fill-opacity="1" /><path clip-path="url(#clip110)" d="M46.9195 300.125 Q46.9195 305.09 51.8211 307.605 Q56.6908 310.087 66.494 310.087 Q76.2654 310.087 81.167 307.605 Q86.0367 305.09 86.0367 300.125 Q86.0367 295.128 81.167 292.645 Q76.2654 290.131 66.494 290.131 Q56.6908 290.131 51.8211 292.645 Q46.9195 295.128 46.9195 300.125 M41.8269 300.125 Q41.8269 292.136 48.1608 287.935 Q54.4628 283.701 66.494 283.701 Q78.4934 283.701 84.8273 287.935 Q91.1293 292.136 91.1293 300.125 Q91.1293 308.114 84.8273 312.347 Q78.4934 316.548 66.494 316.548 Q54.4628 316.548 48.1608 312.347 Q41.8269 308.114 41.8269 300.125 Z" fill="#000000" fill-rule="nonzero" fill-opacity="1" /><path clip-path="url(#clip110)" d="M46.9195 258.652 Q46.9195 263.618 51.8211 266.132 Q56.6908 268.615 66.494 268.615 Q76.2654 268.615 81.167 266.132 Q86.0367 263.618 86.0367 258.652 Q86.0367 253.655 81.167 251.173 Q76.2654 248.658 66.494 248.658 Q56.6908 248.658 51.8211 251.173 Q46.9195 253.655 46.9195 258.652 M41.8269 258.652 Q41.8269 250.663 48.1608 246.462 Q54.4628 242.229 66.494 242.229 Q78.4934 242.229 84.8273 246.462 Q91.1293 250.663 91.1293 258.652 Q91.1293 266.641 84.8273 270.875 Q78.4934 275.076 66.494 275.076 Q54.4628 275.076 48.1608 270.875 Q41.8269 266.641 41.8269 258.652 Z" fill="#000000" fill-rule="nonzero" fill-opacity="1" /><polyline clip-path="url(#clip112)" style="stroke:#009af9; stroke-linecap:round; stroke-linejoin:round; stroke-width:4; stroke-opacity:1; fill:none" points="350.696,514.138 370.842,179.031 390.989,147.817 411.135,168.376 431.281,168.362 451.427,152.113 471.573,147.844 491.719,167.363 511.865,142.357 532.011,148.109 552.158,155.415 572.304,213.954 592.45,172.606 612.596,179.651 632.742,147.75 652.888,171.756 673.034,162.2 693.18,135.877 713.327,179.463 733.473,201.253 753.619,184.555 773.765,172.854 793.911,206.477 814.057,191.852 834.203,193.643 854.349,169.526 874.496,186.112 894.642,128.401 914.788,188.467 934.934,158.58 955.08,123.908 975.226,134.982 995.372,177.272 1015.52,119.836 1035.66,174.519 1055.81,201.898 1075.96,198.546 1096.1,158.806 1116.25,157.851 1136.4,197.291 1156.54,151.522 1176.69,155.028 1196.83,168.707 1216.98,212.098 1237.13,189.231 1257.27,163.841 1277.42,152.098 1297.56,203.688 1317.71,195.994 1337.86,188.689 1358,150.163 1378.15,187.68 1398.29,200.875 1418.44,138.59 1438.59,140.921 1458.73,196.605 1478.88,145.914 1499.03,209.822 1519.17,139.445 1539.32,169.69 1559.46,141.668 1579.61,138.168 1599.76,164.78 1619.9,190.811 1640.05,194.27 1660.19,159.655 1680.34,131.169 1700.49,171.05 1720.63,137.249 1740.78,162.485 1760.93,210.121 1781.07,206.982 1801.22,196.604 1821.36,145.046 1841.51,213.085 1861.66,229.121 1881.8,199.475 1901.95,160.737 1922.09,176.698 1942.24,210.014 1962.39,201.588 1982.53,147.045 2002.68,191.862 2022.82,208.005 2042.97,177.861 2063.12,210.767 2083.26,154.099 2103.41,196.913 2123.56,171.787 2143.7,202.156 2163.85,171.941 2183.99,195.163 2204.14,199.142 2224.29,212.521 2244.43,167.232 2264.58,220.44 2284.72,150.828 2304.87,170.074 2325.02,198.418 2345.16,187.433 2365.31,156.126 2385.46,190.491 2405.6,153.659 2425.75,168.108 2445.89,153.892 2466.04,139.642 2486.19,138.046 2506.33,173.156 2526.48,205.629 2546.62,200.109 2566.77,180.126 2586.92,165.938 2607.06,197.267 2627.21,153.002 2647.35,204.781 2667.5,200.701 2687.65,110.236 2707.79,153.384 2727.94,139.245 2748.09,156.101 2768.23,169.098 2788.38,194.306 2808.52,191.637 2828.67,135.531 2848.82,132.32 2868.96,230.943 2889.11,192.291 2909.25,193.348 2929.4,202.816 2949.55,149.578 2969.69,141.619 2989.84,146.107 3009.99,156.41 "/>
</svg>
