<?xml version="1.0" encoding="utf-8"?>
<svg xmlns="http://www.w3.org/2000/svg" xmlns:xlink="http://www.w3.org/1999/xlink" width="800" height="300" viewBox="0 0 3200 1200">
<defs>
  <clipPath id="clip910">
    <rect x="0" y="0" width="3200" height="1200"/>
  </clipPath>
</defs>
<path clip-path="url(#clip910)" d="
M0 1200 L3200 1200 L3200 0 L0 0  Z
  " fill="#ffffff" fill-rule="evenodd" fill-opacity="1"/>
<defs>
  <clipPath id="clip911">
    <rect x="640" y="0" width="2241" height="1200"/>
  </clipPath>
</defs>
<path clip-path="url(#clip910)" d="
M270.918 1000.1 L3089.76 1000.1 L3089.76 110.236 L270.918 110.236  Z
  " fill="#ffffff" fill-rule="evenodd" fill-opacity="1"/>
<defs>
  <clipPath id="clip912">
    <rect x="270" y="110" width="2820" height="891"/>
  </clipPath>
</defs>
<polyline clip-path="url(#clip912)" style="stroke:#000000; stroke-linecap:round; stroke-linejoin:round; stroke-width:2; stroke-opacity:0.1; fill:none" points="
  343.142,1000.1 343.142,110.236 
  "/>
<polyline clip-path="url(#clip912)" style="stroke:#000000; stroke-linecap:round; stroke-linejoin:round; stroke-width:2; stroke-opacity:0.1; fill:none" points="
  1098.62,1000.1 1098.62,110.236 
  "/>
<polyline clip-path="url(#clip912)" style="stroke:#000000; stroke-linecap:round; stroke-linejoin:round; stroke-width:2; stroke-opacity:0.1; fill:none" points="
  1854.1,1000.1 1854.1,110.236 
  "/>
<polyline clip-path="url(#clip912)" style="stroke:#000000; stroke-linecap:round; stroke-linejoin:round; stroke-width:2; stroke-opacity:0.1; fill:none" points="
  2609.58,1000.1 2609.58,110.236 
  "/>
<polyline clip-path="url(#clip910)" style="stroke:#000000; stroke-linecap:round; stroke-linejoin:round; stroke-width:4; stroke-opacity:1; fill:none" points="
  270.918,1000.1 3089.76,1000.1 
  "/>
<polyline clip-path="url(#clip910)" style="stroke:#000000; stroke-linecap:round; stroke-linejoin:round; stroke-width:4; stroke-opacity:1; fill:none" points="
  343.142,1000.1 343.142,981.2 
  "/>
<polyline clip-path="url(#clip910)" style="stroke:#000000; stroke-linecap:round; stroke-linejoin:round; stroke-width:4; stroke-opacity:1; fill:none" points="
  1098.62,1000.1 1098.62,981.2 
  "/>
<polyline clip-path="url(#clip910)" style="stroke:#000000; stroke-linecap:round; stroke-linejoin:round; stroke-width:4; stroke-opacity:1; fill:none" points="
  1854.1,1000.1 1854.1,981.2 
  "/>
<polyline clip-path="url(#clip910)" style="stroke:#000000; stroke-linecap:round; stroke-linejoin:round; stroke-width:4; stroke-opacity:1; fill:none" points="
  2609.58,1000.1 2609.58,981.2 
  "/>
<path clip-path="url(#clip910)" d="M343.142 1037.42 Q339.53 1037.42 337.702 1040.98 Q335.896 1044.52 335.896 1051.65 Q335.896 1058.76 337.702 1062.32 Q339.53 1065.87 343.142 1065.87 Q346.776 1065.87 348.581 1062.32 Q350.41 1058.76 350.41 1051.65 Q350.41 1044.52 348.581 1040.98 Q346.776 1037.42 343.142 1037.42 M343.142 1033.71 Q348.952 1033.71 352.007 1038.32 Q355.086 1042.9 355.086 1051.65 Q355.086 1060.38 352.007 1064.99 Q348.952 1069.57 343.142 1069.57 Q337.331 1069.57 334.253 1064.99 Q331.197 1060.38 331.197 1051.65 Q331.197 1042.9 334.253 1038.32 Q337.331 1033.71 343.142 1033.71 Z" fill="#000000" fill-rule="evenodd" fill-opacity="1" /><path clip-path="url(#clip910)" d="M1058.23 1064.96 L1065.87 1064.96 L1065.87 1038.6 L1057.56 1040.26 L1057.56 1036 L1065.82 1034.34 L1070.5 1034.34 L1070.5 1064.96 L1078.14 1064.96 L1078.14 1068.9 L1058.23 1068.9 L1058.23 1064.96 Z" fill="#000000" fill-rule="evenodd" fill-opacity="1" /><path clip-path="url(#clip910)" d="M1097.58 1037.42 Q1093.97 1037.42 1092.14 1040.98 Q1090.33 1044.52 1090.33 1051.65 Q1090.33 1058.76 1092.14 1062.32 Q1093.97 1065.87 1097.58 1065.87 Q1101.21 1065.87 1103.02 1062.32 Q1104.85 1058.76 1104.85 1051.65 Q1104.85 1044.52 1103.02 1040.98 Q1101.21 1037.42 1097.58 1037.42 M1097.58 1033.71 Q1103.39 1033.71 1106.45 1038.32 Q1109.52 1042.9 1109.52 1051.65 Q1109.52 1060.38 1106.45 1064.99 Q1103.39 1069.57 1097.58 1069.57 Q1091.77 1069.57 1088.69 1064.99 Q1085.64 1060.38 1085.64 1051.65 Q1085.64 1042.9 1088.69 1038.32 Q1091.77 1033.71 1097.58 1033.71 Z" fill="#000000" fill-rule="evenodd" fill-opacity="1" /><path clip-path="url(#clip910)" d="M1127.74 1037.42 Q1124.13 1037.42 1122.3 1040.98 Q1120.5 1044.52 1120.5 1051.65 Q1120.5 1058.76 1122.3 1062.32 Q1124.13 1065.87 1127.74 1065.87 Q1131.38 1065.87 1133.18 1062.32 Q1135.01 1058.76 1135.01 1051.65 Q1135.01 1044.52 1133.18 1040.98 Q1131.38 1037.42 1127.74 1037.42 M1127.74 1033.71 Q1133.55 1033.71 1136.61 1038.32 Q1139.69 1042.9 1139.69 1051.65 Q1139.69 1060.38 1136.61 1064.99 Q1133.55 1069.57 1127.74 1069.57 Q1121.93 1069.57 1118.85 1064.99 Q1115.8 1060.38 1115.8 1051.65 Q1115.8 1042.9 1118.85 1038.32 Q1121.93 1033.71 1127.74 1033.71 Z" fill="#000000" fill-rule="evenodd" fill-opacity="1" /><path clip-path="url(#clip910)" d="M1817.79 1064.96 L1834.11 1064.96 L1834.11 1068.9 L1812.17 1068.9 L1812.17 1064.96 Q1814.83 1062.21 1819.41 1057.58 Q1824.02 1052.93 1825.2 1051.58 Q1827.45 1049.06 1828.33 1047.32 Q1829.23 1045.56 1829.23 1043.87 Q1829.23 1041.12 1827.28 1039.38 Q1825.36 1037.65 1822.26 1037.65 Q1820.06 1037.65 1817.61 1038.41 Q1815.18 1039.18 1812.4 1040.73 L1812.4 1036 Q1815.22 1034.87 1817.68 1034.29 Q1820.13 1033.71 1822.17 1033.71 Q1827.54 1033.71 1830.73 1036.4 Q1833.93 1039.08 1833.93 1043.57 Q1833.93 1045.7 1833.12 1047.62 Q1832.33 1049.52 1830.22 1052.12 Q1829.65 1052.79 1826.54 1056 Q1823.44 1059.2 1817.79 1064.96 Z" fill="#000000" fill-rule="evenodd" fill-opacity="1" /><path clip-path="url(#clip910)" d="M1853.93 1037.42 Q1850.32 1037.42 1848.49 1040.98 Q1846.68 1044.52 1846.68 1051.65 Q1846.68 1058.76 1848.49 1062.32 Q1850.32 1065.87 1853.93 1065.87 Q1857.56 1065.87 1859.37 1062.32 Q1861.2 1058.76 1861.2 1051.65 Q1861.2 1044.52 1859.37 1040.98 Q1857.56 1037.42 1853.93 1037.42 M1853.93 1033.71 Q1859.74 1033.71 1862.79 1038.32 Q1865.87 1042.9 1865.87 1051.65 Q1865.87 1060.38 1862.79 1064.99 Q1859.74 1069.57 1853.93 1069.57 Q1848.12 1069.57 1845.04 1064.99 Q1841.98 1060.38 1841.98 1051.65 Q1841.98 1042.9 1845.04 1038.32 Q1848.12 1033.71 1853.93 1033.71 Z" fill="#000000" fill-rule="evenodd" fill-opacity="1" /><path clip-path="url(#clip910)" d="M1884.09 1037.42 Q1880.48 1037.42 1878.65 1040.98 Q1876.84 1044.52 1876.84 1051.65 Q1876.84 1058.76 1878.65 1062.32 Q1880.48 1065.87 1884.09 1065.87 Q1887.72 1065.87 1889.53 1062.32 Q1891.36 1058.76 1891.36 1051.65 Q1891.36 1044.52 1889.53 1040.98 Q1887.72 1037.42 1884.09 1037.42 M1884.09 1033.71 Q1889.9 1033.71 1892.96 1038.32 Q1896.03 1042.9 1896.03 1051.65 Q1896.03 1060.38 1892.96 1064.99 Q1889.9 1069.57 1884.09 1069.57 Q1878.28 1069.57 1875.2 1064.99 Q1872.14 1060.38 1872.14 1051.65 Q1872.14 1042.9 1875.2 1038.32 Q1878.28 1033.71 1884.09 1033.71 Z" fill="#000000" fill-rule="evenodd" fill-opacity="1" /><path clip-path="url(#clip910)" d="M2583.34 1050.26 Q2586.7 1050.98 2588.57 1053.25 Q2590.47 1055.52 2590.47 1058.85 Q2590.47 1063.97 2586.95 1066.77 Q2583.44 1069.57 2576.95 1069.57 Q2574.78 1069.57 2572.46 1069.13 Q2570.17 1068.71 2567.72 1067.86 L2567.72 1063.34 Q2569.66 1064.48 2571.98 1065.06 Q2574.29 1065.63 2576.81 1065.63 Q2581.21 1065.63 2583.5 1063.9 Q2585.82 1062.16 2585.82 1058.85 Q2585.82 1055.8 2583.67 1054.08 Q2581.54 1052.35 2577.72 1052.35 L2573.69 1052.35 L2573.69 1048.5 L2577.9 1048.5 Q2581.35 1048.5 2583.18 1047.14 Q2585.01 1045.75 2585.01 1043.16 Q2585.01 1040.5 2583.11 1039.08 Q2581.24 1037.65 2577.72 1037.65 Q2575.8 1037.65 2573.6 1038.06 Q2571.4 1038.48 2568.76 1039.36 L2568.76 1035.19 Q2571.42 1034.45 2573.74 1034.08 Q2576.07 1033.71 2578.13 1033.71 Q2583.46 1033.71 2586.56 1036.14 Q2589.66 1038.55 2589.66 1042.67 Q2589.66 1045.54 2588.02 1047.53 Q2586.37 1049.5 2583.34 1050.26 Z" fill="#000000" fill-rule="evenodd" fill-opacity="1" /><path clip-path="url(#clip910)" d="M2609.34 1037.42 Q2605.73 1037.42 2603.9 1040.98 Q2602.09 1044.52 2602.09 1051.65 Q2602.09 1058.76 2603.9 1062.32 Q2605.73 1065.87 2609.34 1065.87 Q2612.97 1065.87 2614.78 1062.32 Q2616.61 1058.76 2616.61 1051.65 Q2616.61 1044.52 2614.78 1040.98 Q2612.97 1037.42 2609.34 1037.42 M2609.34 1033.71 Q2615.15 1033.71 2618.2 1038.32 Q2621.28 1042.9 2621.28 1051.65 Q2621.28 1060.38 2618.2 1064.99 Q2615.15 1069.57 2609.34 1069.57 Q2603.53 1069.57 2600.45 1064.99 Q2597.39 1060.38 2597.39 1051.65 Q2597.39 1042.9 2600.45 1038.32 Q2603.53 1033.71 2609.34 1033.71 Z" fill="#000000" fill-rule="evenodd" fill-opacity="1" /><path clip-path="url(#clip910)" d="M2639.5 1037.42 Q2635.89 1037.42 2634.06 1040.98 Q2632.25 1044.52 2632.25 1051.65 Q2632.25 1058.76 2634.06 1062.32 Q2635.89 1065.87 2639.5 1065.87 Q2643.13 1065.87 2644.94 1062.32 Q2646.77 1058.76 2646.77 1051.65 Q2646.77 1044.52 2644.94 1040.98 Q2643.13 1037.42 2639.5 1037.42 M2639.5 1033.71 Q2645.31 1033.71 2648.37 1038.32 Q2651.44 1042.9 2651.44 1051.65 Q2651.44 1060.38 2648.37 1064.99 Q2645.31 1069.57 2639.5 1069.57 Q2633.69 1069.57 2630.61 1064.99 Q2627.56 1060.38 2627.56 1051.65 Q2627.56 1042.9 2630.61 1038.32 Q2633.69 1033.71 2639.5 1033.71 Z" fill="#000000" fill-rule="evenodd" fill-opacity="1" /><path clip-path="url(#clip910)" d="M1556.64 1109.44 L1563.07 1109.44 L1563.07 1151.55 L1586.21 1151.55 L1586.21 1156.96 L1556.64 1156.96 L1556.64 1109.44 Z" fill="#000000" fill-rule="evenodd" fill-opacity="1" /><path clip-path="url(#clip910)" d="M1592.7 1121.31 L1598.56 1121.31 L1598.56 1156.96 L1592.7 1156.96 L1592.7 1121.31 M1592.7 1107.44 L1598.56 1107.44 L1598.56 1114.85 L1592.7 1114.85 L1592.7 1107.44 Z" fill="#000000" fill-rule="evenodd" fill-opacity="1" /><path clip-path="url(#clip910)" d="M1640.44 1135.45 L1640.44 1156.96 L1634.59 1156.96 L1634.59 1135.64 Q1634.59 1130.58 1632.61 1128.06 Q1630.64 1125.55 1626.69 1125.55 Q1621.95 1125.55 1619.21 1128.57 Q1616.48 1131.59 1616.48 1136.81 L1616.48 1156.96 L1610.59 1156.96 L1610.59 1121.31 L1616.48 1121.31 L1616.48 1126.85 Q1618.58 1123.64 1621.41 1122.05 Q1624.27 1120.45 1628 1120.45 Q1634.14 1120.45 1637.29 1124.27 Q1640.44 1128.06 1640.44 1135.45 Z" fill="#000000" fill-rule="evenodd" fill-opacity="1" /><path clip-path="url(#clip910)" d="M1682.62 1137.67 L1682.62 1140.54 L1655.69 1140.54 Q1656.07 1146.59 1659.32 1149.77 Q1662.6 1152.92 1668.42 1152.92 Q1671.79 1152.92 1674.95 1152.09 Q1678.13 1151.26 1681.25 1149.61 L1681.25 1155.15 Q1678.1 1156.48 1674.79 1157.18 Q1671.48 1157.88 1668.07 1157.88 Q1659.54 1157.88 1654.54 1152.92 Q1649.58 1147.95 1649.58 1139.49 Q1649.58 1130.74 1654.29 1125.61 Q1659.03 1120.45 1667.05 1120.45 Q1674.25 1120.45 1678.42 1125.1 Q1682.62 1129.72 1682.62 1137.67 M1676.76 1135.95 Q1676.7 1131.15 1674.05 1128.28 Q1671.44 1125.42 1667.12 1125.42 Q1662.21 1125.42 1659.25 1128.19 Q1656.33 1130.96 1655.88 1135.99 L1676.76 1135.95 Z" fill="#000000" fill-rule="evenodd" fill-opacity="1" /><path clip-path="url(#clip910)" d="M1708.43 1139.04 Q1701.33 1139.04 1698.59 1140.67 Q1695.86 1142.29 1695.86 1146.2 Q1695.86 1149.32 1697.89 1151.17 Q1699.96 1152.98 1703.5 1152.98 Q1708.37 1152.98 1711.29 1149.55 Q1714.25 1146.08 1714.25 1140.35 L1714.25 1139.04 L1708.43 1139.04 M1720.11 1136.62 L1720.11 1156.96 L1714.25 1156.96 L1714.25 1151.55 Q1712.25 1154.8 1709.26 1156.36 Q1706.27 1157.88 1701.94 1157.88 Q1696.46 1157.88 1693.22 1154.83 Q1690 1151.74 1690 1146.59 Q1690 1140.57 1694.01 1137.51 Q1698.05 1134.46 1706.04 1134.46 L1714.25 1134.46 L1714.25 1133.89 Q1714.25 1129.84 1711.58 1127.65 Q1708.94 1125.42 1704.13 1125.42 Q1701.08 1125.42 1698.18 1126.15 Q1695.28 1126.88 1692.61 1128.35 L1692.61 1122.94 Q1695.83 1121.7 1698.85 1121.09 Q1701.87 1120.45 1704.74 1120.45 Q1712.47 1120.45 1716.29 1124.46 Q1720.11 1128.48 1720.11 1136.62 Z" fill="#000000" fill-rule="evenodd" fill-opacity="1" /><path clip-path="url(#clip910)" d="M1755.63 1138.72 Q1755.63 1132.36 1752.99 1128.86 Q1750.38 1125.36 1745.64 1125.36 Q1740.93 1125.36 1738.28 1128.86 Q1735.67 1132.36 1735.67 1138.72 Q1735.67 1145.06 1738.28 1148.56 Q1740.93 1152.06 1745.64 1152.06 Q1750.38 1152.06 1752.99 1148.56 Q1755.63 1145.06 1755.63 1138.72 M1761.49 1152.54 Q1761.49 1161.64 1757.45 1166.06 Q1753.4 1170.52 1745.06 1170.52 Q1741.98 1170.52 1739.24 1170.04 Q1736.5 1169.6 1733.92 1168.64 L1733.92 1162.95 Q1736.5 1164.35 1739.02 1165.01 Q1741.53 1165.68 1744.14 1165.68 Q1749.9 1165.68 1752.77 1162.66 Q1755.63 1159.67 1755.63 1153.59 L1755.63 1150.69 Q1753.82 1153.84 1750.98 1155.4 Q1748.15 1156.96 1744.2 1156.96 Q1737.65 1156.96 1733.64 1151.96 Q1729.63 1146.97 1729.63 1138.72 Q1729.63 1130.45 1733.64 1125.45 Q1737.65 1120.45 1744.2 1120.45 Q1748.15 1120.45 1750.98 1122.01 Q1753.82 1123.57 1755.63 1126.72 L1755.63 1121.31 L1761.49 1121.31 L1761.49 1152.54 Z" fill="#000000" fill-rule="evenodd" fill-opacity="1" /><path clip-path="url(#clip910)" d="M1804.04 1137.67 L1804.04 1140.54 L1777.12 1140.54 Q1777.5 1146.59 1780.74 1149.77 Q1784.02 1152.92 1789.85 1152.92 Q1793.22 1152.92 1796.37 1152.09 Q1799.55 1151.26 1802.67 1149.61 L1802.67 1155.15 Q1799.52 1156.48 1796.21 1157.18 Q1792.9 1157.88 1789.5 1157.88 Q1780.97 1157.88 1775.97 1152.92 Q1771 1147.95 1771 1139.49 Q1771 1130.74 1775.71 1125.61 Q1780.46 1120.45 1788.48 1120.45 Q1795.67 1120.45 1799.84 1125.1 Q1804.04 1129.72 1804.04 1137.67 M1798.19 1135.95 Q1798.12 1131.15 1795.48 1128.28 Q1792.87 1125.42 1788.54 1125.42 Q1783.64 1125.42 1780.68 1128.19 Q1777.75 1130.96 1777.31 1135.99 L1798.19 1135.95 Z" fill="#000000" fill-rule="evenodd" fill-opacity="1" /><polyline clip-path="url(#clip912)" style="stroke:#000000; stroke-linecap:round; stroke-linejoin:round; stroke-width:2; stroke-opacity:0.1; fill:none" points="
  270.918,1000.1 3089.76,1000.1 
  "/>
<polyline clip-path="url(#clip912)" style="stroke:#000000; stroke-linecap:round; stroke-linejoin:round; stroke-width:2; stroke-opacity:0.1; fill:none" points="
  270.918,657.135 3089.76,657.135 
  "/>
<polyline clip-path="url(#clip912)" style="stroke:#000000; stroke-linecap:round; stroke-linejoin:round; stroke-width:2; stroke-opacity:0.1; fill:none" points="
  270.918,314.173 3089.76,314.173 
  "/>
<polyline clip-path="url(#clip910)" style="stroke:#000000; stroke-linecap:round; stroke-linejoin:round; stroke-width:4; stroke-opacity:1; fill:none" points="
  270.918,1000.1 270.918,110.236 
  "/>
<polyline clip-path="url(#clip910)" style="stroke:#000000; stroke-linecap:round; stroke-linejoin:round; stroke-width:4; stroke-opacity:1; fill:none" points="
  270.918,1000.1 289.815,1000.1 
  "/>
<polyline clip-path="url(#clip910)" style="stroke:#000000; stroke-linecap:round; stroke-linejoin:round; stroke-width:4; stroke-opacity:1; fill:none" points="
  270.918,657.135 289.815,657.135 
  "/>
<polyline clip-path="url(#clip910)" style="stroke:#000000; stroke-linecap:round; stroke-linejoin:round; stroke-width:4; stroke-opacity:1; fill:none" points="
  270.918,314.173 289.815,314.173 
  "/>
<path clip-path="url(#clip910)" d="M154.902 1019.89 L162.54 1019.89 L162.54 993.525 L154.23 995.191 L154.23 990.932 L162.494 989.265 L167.17 989.265 L167.17 1019.89 L174.809 1019.89 L174.809 1023.83 L154.902 1023.83 L154.902 1019.89 Z" fill="#000000" fill-rule="evenodd" fill-opacity="1" /><path clip-path="url(#clip910)" d="M194.253 992.344 Q190.642 992.344 188.813 995.909 Q187.008 999.45 187.008 1006.58 Q187.008 1013.69 188.813 1017.25 Q190.642 1020.79 194.253 1020.79 Q197.887 1020.79 199.693 1017.25 Q201.522 1013.69 201.522 1006.58 Q201.522 999.45 199.693 995.909 Q197.887 992.344 194.253 992.344 M194.253 988.64 Q200.063 988.64 203.119 993.247 Q206.198 997.83 206.198 1006.58 Q206.198 1015.31 203.119 1019.91 Q200.063 1024.5 194.253 1024.5 Q188.443 1024.5 185.364 1019.91 Q182.309 1015.31 182.309 1006.58 Q182.309 997.83 185.364 993.247 Q188.443 988.64 194.253 988.64 Z" fill="#000000" fill-rule="evenodd" fill-opacity="1" /><path clip-path="url(#clip910)" d="M206.743 993.218 L212.95 993.218 L212.95 971.796 L206.198 973.15 L206.198 969.689 L212.912 968.335 L216.711 968.335 L216.711 993.218 L222.918 993.218 L222.918 996.415 L206.743 996.415 L206.743 993.218 Z" fill="#000000" fill-rule="evenodd" fill-opacity="1" /><path clip-path="url(#clip910)" d="M153.792 676.928 L161.431 676.928 L161.431 650.562 L153.121 652.229 L153.121 647.97 L161.384 646.303 L166.06 646.303 L166.06 676.928 L173.699 676.928 L173.699 680.863 L153.792 680.863 L153.792 676.928 Z" fill="#000000" fill-rule="evenodd" fill-opacity="1" /><path clip-path="url(#clip910)" d="M193.143 649.382 Q189.532 649.382 187.704 652.947 Q185.898 656.488 185.898 663.618 Q185.898 670.724 187.704 674.289 Q189.532 677.831 193.143 677.831 Q196.778 677.831 198.583 674.289 Q200.412 670.724 200.412 663.618 Q200.412 656.488 198.583 652.947 Q196.778 649.382 193.143 649.382 M193.143 645.678 Q198.954 645.678 202.009 650.285 Q205.088 654.868 205.088 663.618 Q205.088 672.345 202.009 676.951 Q198.954 681.534 193.143 681.534 Q187.333 681.534 184.255 676.951 Q181.199 672.345 181.199 663.618 Q181.199 654.868 184.255 650.285 Q187.333 645.678 193.143 645.678 Z" fill="#000000" fill-rule="evenodd" fill-opacity="1" /><path clip-path="url(#clip910)" d="M209.658 650.255 L222.918 650.255 L222.918 653.453 L205.088 653.453 L205.088 650.255 Q207.251 648.017 210.975 644.256 Q214.717 640.475 215.677 639.384 Q217.501 637.334 218.216 635.924 Q218.949 634.494 218.949 633.121 Q218.949 630.883 217.369 629.473 Q215.808 628.062 213.288 628.062 Q211.501 628.062 209.508 628.683 Q207.533 629.304 205.276 630.564 L205.276 626.727 Q207.57 625.805 209.564 625.335 Q211.558 624.865 213.213 624.865 Q217.576 624.865 220.172 627.047 Q222.767 629.228 222.767 632.877 Q222.767 634.607 222.109 636.168 Q221.469 637.711 219.758 639.817 Q219.288 640.362 216.767 642.977 Q214.247 645.572 209.658 650.255 Z" fill="#000000" fill-rule="evenodd" fill-opacity="1" /><path clip-path="url(#clip910)" d="M153.134 333.966 L160.772 333.966 L160.772 307.6 L152.462 309.267 L152.462 305.007 L160.726 303.341 L165.402 303.341 L165.402 333.966 L173.041 333.966 L173.041 337.901 L153.134 337.901 L153.134 333.966 Z" fill="#000000" fill-rule="evenodd" fill-opacity="1" /><path clip-path="url(#clip910)" d="M192.485 306.42 Q188.874 306.42 187.045 309.984 Q185.24 313.526 185.24 320.656 Q185.24 327.762 187.045 331.327 Q188.874 334.868 192.485 334.868 Q196.119 334.868 197.925 331.327 Q199.754 327.762 199.754 320.656 Q199.754 313.526 197.925 309.984 Q196.119 306.42 192.485 306.42 M192.485 302.716 Q198.295 302.716 201.351 307.322 Q204.43 311.906 204.43 320.656 Q204.43 329.382 201.351 333.989 Q198.295 338.572 192.485 338.572 Q186.675 338.572 183.596 333.989 Q180.541 329.382 180.541 320.656 Q180.541 311.906 183.596 307.322 Q186.675 302.716 192.485 302.716 Z" fill="#000000" fill-rule="evenodd" fill-opacity="1" /><path clip-path="url(#clip910)" d="M217.125 295.35 Q219.852 295.933 221.375 297.776 Q222.918 299.62 222.918 302.328 Q222.918 306.484 220.059 308.76 Q217.2 311.036 211.934 311.036 Q210.166 311.036 208.285 310.679 Q206.423 310.34 204.43 309.644 L204.43 305.977 Q206.009 306.898 207.89 307.368 Q209.771 307.839 211.821 307.839 Q215.395 307.839 217.256 306.428 Q219.137 305.017 219.137 302.328 Q219.137 299.845 217.388 298.453 Q215.658 297.043 212.555 297.043 L209.282 297.043 L209.282 293.921 L212.705 293.921 Q215.507 293.921 216.993 292.811 Q218.479 291.683 218.479 289.576 Q218.479 287.413 216.937 286.266 Q215.413 285.1 212.555 285.1 Q210.994 285.1 209.207 285.438 Q207.42 285.777 205.276 286.492 L205.276 283.106 Q207.439 282.504 209.32 282.204 Q211.219 281.903 212.893 281.903 Q217.219 281.903 219.739 283.877 Q222.259 285.833 222.259 289.181 Q222.259 291.513 220.924 293.131 Q219.589 294.73 217.125 295.35 Z" fill="#000000" fill-rule="evenodd" fill-opacity="1" /><path clip-path="url(#clip910)" d="M42.6863 950.461 L42.6863 920.415 L48.0971 920.415 L48.0971 944.032 L62.1653 944.032 L62.1653 921.402 L67.5762 921.402 L67.5762 944.032 L84.7954 944.032 L84.7954 919.842 L90.2063 919.842 L90.2063 950.461 L42.6863 950.461 Z" fill="#000000" fill-rule="evenodd" fill-opacity="1" /><path clip-path="url(#clip910)" d="M44.2459 880.789 L50.5161 880.789 Q48.7655 884.449 47.9062 887.696 Q47.0468 890.942 47.0468 893.966 Q47.0468 899.217 49.0838 902.082 Q51.1208 904.915 54.8766 904.915 Q58.0276 904.915 59.6509 903.037 Q61.2423 901.127 62.229 895.844 L63.0247 891.961 Q64.3933 884.767 67.8627 881.362 Q71.3001 877.924 77.0929 877.924 Q83.9997 877.924 87.5645 882.571 Q91.1293 887.186 91.1293 896.13 Q91.1293 899.504 90.3654 903.323 Q89.6015 907.111 88.1056 911.185 L81.4853 911.185 Q83.6814 907.27 84.7954 903.514 Q85.9094 899.759 85.9094 896.13 Q85.9094 890.624 83.7451 887.632 Q81.5808 884.64 77.5704 884.64 Q74.0692 884.64 72.0958 886.804 Q70.1225 888.937 69.1358 893.838 L68.3719 897.753 Q66.9396 904.947 63.8841 908.161 Q60.8285 911.376 55.3859 911.376 Q49.0838 911.376 45.4554 906.952 Q41.8269 902.496 41.8269 894.698 Q41.8269 891.356 42.4317 887.887 Q43.0364 884.417 44.2459 880.789 Z" fill="#000000" fill-rule="evenodd" fill-opacity="1" /><path clip-path="url(#clip910)" d="M44.2459 839.412 L50.5161 839.412 Q48.7655 843.072 47.9062 846.318 Q47.0468 849.565 47.0468 852.589 Q47.0468 857.84 49.0838 860.705 Q51.1208 863.538 54.8766 863.538 Q58.0276 863.538 59.6509 861.66 Q61.2423 859.75 62.229 854.467 L63.0247 850.583 Q64.3933 843.39 67.8627 839.985 Q71.3001 836.547 77.0929 836.547 Q83.9997 836.547 87.5645 841.194 Q91.1293 845.809 91.1293 854.753 Q91.1293 858.127 90.3654 861.946 Q89.6015 865.734 88.1056 869.808 L81.4853 869.808 Q83.6814 865.893 84.7954 862.137 Q85.9094 858.381 85.9094 854.753 Q85.9094 849.247 83.7451 846.255 Q81.5808 843.263 77.5704 843.263 Q74.0692 843.263 72.0958 845.427 Q70.1225 847.56 69.1358 852.461 L68.3719 856.376 Q66.9396 863.57 63.8841 866.784 Q60.8285 869.999 55.3859 869.999 Q49.0838 869.999 45.4554 865.575 Q41.8269 861.119 41.8269 853.321 Q41.8269 849.979 42.4317 846.509 Q43.0364 843.04 44.2459 839.412 Z" fill="#000000" fill-rule="evenodd" fill-opacity="1" /><path clip-path="url(#clip910)" d="M82.1218 825.28 L82.1218 818.564 L90.2063 818.564 L90.2063 825.28 L82.1218 825.28 M56.4999 825.28 L56.4999 818.564 L64.5843 818.564 L64.5843 825.28 L56.4999 825.28 Z" fill="#000000" fill-rule="evenodd" fill-opacity="1" /><path clip-path="url(#clip910)" d="M47.9698 777.41 L84.9227 777.41 L84.9227 769.644 Q84.9227 759.809 80.4668 755.257 Q76.0108 750.674 66.3985 750.674 Q56.85 750.674 52.4258 755.257 Q47.9698 759.809 47.9698 769.644 L47.9698 777.41 M42.6863 783.839 L42.6863 770.63 Q42.6863 756.817 48.4472 750.355 Q54.1764 743.894 66.3985 743.894 Q78.6844 743.894 84.4453 750.387 Q90.2063 756.88 90.2063 770.63 L90.2063 783.839 L42.6863 783.839 Z" fill="#000000" fill-rule="evenodd" fill-opacity="1" /><path clip-path="url(#clip910)" d="M70.9182 703.408 L73.7828 703.408 L73.7828 730.335 Q79.8302 729.953 83.013 726.707 Q86.1641 723.429 86.1641 717.604 Q86.1641 714.23 85.3365 711.079 Q84.509 707.896 82.8539 704.777 L88.3921 704.777 Q89.7289 707.928 90.4291 711.238 Q91.1293 714.548 91.1293 717.954 Q91.1293 726.484 86.1641 731.481 Q81.1988 736.446 72.7324 736.446 Q63.9796 736.446 58.8552 731.736 Q53.699 726.993 53.699 718.973 Q53.699 711.779 58.3459 707.61 Q62.9611 703.408 70.9182 703.408 M69.1995 709.265 Q64.3933 709.328 61.5288 711.97 Q58.6642 714.58 58.6642 718.909 Q58.6642 723.81 61.4333 726.771 Q64.2024 729.699 69.2313 730.144 L69.1995 709.265 Z" fill="#000000" fill-rule="evenodd" fill-opacity="1" /><path clip-path="url(#clip910)" d="M68.6902 664.164 L90.2063 664.164 L90.2063 670.02 L68.8812 670.02 Q63.8204 670.02 61.306 671.994 Q58.7915 673.967 58.7915 677.914 Q58.7915 682.656 61.8152 685.393 Q64.8389 688.131 70.0588 688.131 L90.2063 688.131 L90.2063 694.019 L54.5583 694.019 L54.5583 688.131 L60.0965 688.131 Q56.8818 686.03 55.2904 683.197 Q53.699 680.333 53.699 676.609 Q53.699 670.466 57.5184 667.315 Q61.306 664.164 68.6902 664.164 Z" fill="#000000" fill-rule="evenodd" fill-opacity="1" /><path clip-path="url(#clip910)" d="M61.4015 624.728 Q57.4547 622.532 55.5768 619.477 Q53.699 616.421 53.699 612.283 Q53.699 606.713 57.6139 603.69 Q61.4969 600.666 68.6902 600.666 L90.2063 600.666 L90.2063 606.554 L68.8812 606.554 Q63.7568 606.554 61.2741 608.368 Q58.7915 610.183 58.7915 613.907 Q58.7915 618.458 61.8152 621.1 Q64.8389 623.742 70.0588 623.742 L90.2063 623.742 L90.2063 629.63 L68.8812 629.63 Q63.7249 629.63 61.2741 631.444 Q58.7915 633.258 58.7915 637.046 Q58.7915 641.534 61.8471 644.175 Q64.8708 646.817 70.0588 646.817 L90.2063 646.817 L90.2063 652.706 L54.5583 652.706 L54.5583 646.817 L60.0965 646.817 Q56.8182 644.812 55.2586 642.011 Q53.699 639.21 53.699 635.359 Q53.699 631.476 55.6723 628.77 Q57.6457 626.033 61.4015 624.728 Z" fill="#000000" fill-rule="evenodd" fill-opacity="1" /><path clip-path="url(#clip910)" d="M72.2868 572.784 Q72.2868 579.882 73.9101 582.619 Q75.5333 585.356 79.4482 585.356 Q82.5674 585.356 84.4135 583.319 Q86.2277 581.25 86.2277 577.717 Q86.2277 572.848 82.7902 569.919 Q79.3209 566.959 73.5918 566.959 L72.2868 566.959 L72.2868 572.784 M69.8679 561.103 L90.2063 561.103 L90.2063 566.959 L84.7954 566.959 Q88.0419 568.965 89.6015 571.957 Q91.1293 574.948 91.1293 579.277 Q91.1293 584.752 88.0738 587.998 Q84.9864 591.213 79.8302 591.213 Q73.8146 591.213 70.759 587.202 Q67.7035 583.16 67.7035 575.171 L67.7035 566.959 L67.1306 566.959 Q63.0884 566.959 60.8922 569.633 Q58.6642 572.275 58.6642 577.081 Q58.6642 580.136 59.3963 583.033 Q60.1283 585.929 61.5924 588.603 L56.1816 588.603 Q54.9403 585.388 54.3355 582.364 Q53.699 579.341 53.699 576.476 Q53.699 568.742 57.7094 564.922 Q61.7197 561.103 69.8679 561.103 Z" fill="#000000" fill-rule="evenodd" fill-opacity="1" /><path clip-path="url(#clip910)" d="M60.0328 528.383 Q59.4599 529.37 59.2053 530.548 Q58.9188 531.693 58.9188 533.094 Q58.9188 538.059 62.1653 540.733 Q65.38 543.374 71.4274 543.374 L90.2063 543.374 L90.2063 549.263 L54.5583 549.263 L54.5583 543.374 L60.0965 543.374 Q56.85 541.528 55.2904 538.568 Q53.699 535.608 53.699 531.375 Q53.699 530.77 53.7944 530.038 Q53.8581 529.306 54.0172 528.415 L60.0328 528.383 Z" fill="#000000" fill-rule="evenodd" fill-opacity="1" /><path clip-path="url(#clip910)" d="M40.6811 522.463 L40.6811 516.575 L69.9315 516.575 L54.5583 499.101 L54.5583 491.621 L71.2365 510.527 L90.2063 490.826 L90.2063 498.464 L72.7961 516.575 L90.2063 516.575 L90.2063 522.463 L40.6811 522.463 Z" fill="#000000" fill-rule="evenodd" fill-opacity="1" /><path clip-path="url(#clip910)" d="M82.1218 482.996 L82.1218 476.28 L87.5963 476.28 L97.7815 481.5 L97.7815 485.606 L87.5963 482.996 L82.1218 482.996 Z" fill="#000000" fill-rule="evenodd" fill-opacity="1" /><path clip-path="url(#clip910)" d="M44.4369 437.258 L54.5583 437.258 L54.5583 425.195 L59.1098 425.195 L59.1098 437.258 L78.4616 437.258 Q82.8221 437.258 84.0634 436.081 Q85.3047 434.871 85.3047 431.211 L85.3047 425.195 L90.2063 425.195 L90.2063 431.211 Q90.2063 437.99 87.6918 440.568 Q85.1455 443.146 78.4616 443.146 L59.1098 443.146 L59.1098 447.443 L54.5583 447.443 L54.5583 443.146 L44.4369 443.146 L44.4369 437.258 Z" fill="#000000" fill-rule="evenodd" fill-opacity="1" /><path clip-path="url(#clip910)" d="M54.5583 417.493 L54.5583 411.636 L90.2063 411.636 L90.2063 417.493 L54.5583 417.493 M40.6811 417.493 L40.6811 411.636 L48.0971 411.636 L48.0971 417.493 L40.6811 417.493 Z" fill="#000000" fill-rule="evenodd" fill-opacity="1" /><path clip-path="url(#clip910)" d="M61.4015 371.628 Q57.4547 369.432 55.5768 366.376 Q53.699 363.32 53.699 359.183 Q53.699 353.613 57.6139 350.589 Q61.4969 347.565 68.6902 347.565 L90.2063 347.565 L90.2063 353.454 L68.8812 353.454 Q63.7568 353.454 61.2741 355.268 Q58.7915 357.082 58.7915 360.806 Q58.7915 365.358 61.8152 367.999 Q64.8389 370.641 70.0588 370.641 L90.2063 370.641 L90.2063 376.529 L68.8812 376.529 Q63.7249 376.529 61.2741 378.344 Q58.7915 380.158 58.7915 383.945 Q58.7915 388.433 61.8471 391.075 Q64.8708 393.717 70.0588 393.717 L90.2063 393.717 L90.2063 399.605 L54.5583 399.605 L54.5583 393.717 L60.0965 393.717 Q56.8182 391.712 55.2586 388.911 Q53.699 386.11 53.699 382.258 Q53.699 378.375 55.6723 375.67 Q57.6457 372.933 61.4015 371.628 Z" fill="#000000" fill-rule="evenodd" fill-opacity="1" /><path clip-path="url(#clip910)" d="M70.9182 305.393 L73.7828 305.393 L73.7828 332.319 Q79.8302 331.938 83.013 328.691 Q86.1641 325.413 86.1641 319.588 Q86.1641 316.214 85.3365 313.063 Q84.509 309.88 82.8539 306.761 L88.3921 306.761 Q89.7289 309.912 90.4291 313.222 Q91.1293 316.533 91.1293 319.938 Q91.1293 328.468 86.1641 333.465 Q81.1988 338.431 72.7324 338.431 Q63.9796 338.431 58.8552 333.72 Q53.699 328.977 53.699 320.957 Q53.699 313.763 58.3459 309.594 Q62.9611 305.393 70.9182 305.393 M69.1995 311.249 Q64.3933 311.313 61.5288 313.954 Q58.6642 316.564 58.6642 320.893 Q58.6642 325.795 61.4333 328.755 Q64.2024 331.683 69.2313 332.129 L69.1995 311.249 Z" fill="#000000" fill-rule="evenodd" fill-opacity="1" /><path clip-path="url(#clip910)" d="M82.1218 294.284 L82.1218 287.569 L90.2063 287.569 L90.2063 294.284 L82.1218 294.284 M56.4999 294.284 L56.4999 287.569 L64.5843 287.569 L64.5843 294.284 L56.4999 294.284 Z" fill="#000000" fill-rule="evenodd" fill-opacity="1" /><path clip-path="url(#clip910)" d="M84.7954 271.877 L84.7954 261.374 L48.5427 261.374 L50.8344 272.8 L44.9779 272.8 L42.6863 261.437 L42.6863 255.008 L84.7954 255.008 L84.7954 244.505 L90.2063 244.505 L90.2063 271.877 L84.7954 271.877 Z" fill="#000000" fill-rule="evenodd" fill-opacity="1" /><path clip-path="url(#clip910)" d="M46.9195 217.769 Q46.9195 222.734 51.8211 225.248 Q56.6908 227.731 66.494 227.731 Q76.2654 227.731 81.167 225.248 Q86.0367 222.734 86.0367 217.769 Q86.0367 212.772 81.167 210.289 Q76.2654 207.774 66.494 207.774 Q56.6908 207.774 51.8211 210.289 Q46.9195 212.772 46.9195 217.769 M41.8269 217.769 Q41.8269 209.78 48.1608 205.578 Q54.4628 201.345 66.494 201.345 Q78.4934 201.345 84.8273 205.578 Q91.1293 209.78 91.1293 217.769 Q91.1293 225.758 84.8273 229.991 Q78.4934 234.192 66.494 234.192 Q54.4628 234.192 48.1608 229.991 Q41.8269 225.758 41.8269 217.769 Z" fill="#000000" fill-rule="evenodd" fill-opacity="1" /><path clip-path="url(#clip910)" d="M46.9195 176.296 Q46.9195 181.261 51.8211 183.776 Q56.6908 186.258 66.494 186.258 Q76.2654 186.258 81.167 183.776 Q86.0367 181.261 86.0367 176.296 Q86.0367 171.299 81.167 168.816 Q76.2654 166.302 66.494 166.302 Q56.6908 166.302 51.8211 168.816 Q46.9195 171.299 46.9195 176.296 M41.8269 176.296 Q41.8269 168.307 48.1608 164.106 Q54.4628 159.873 66.494 159.873 Q78.4934 159.873 84.8273 164.106 Q91.1293 168.307 91.1293 176.296 Q91.1293 184.285 84.8273 188.518 Q78.4934 192.72 66.494 192.72 Q54.4628 192.72 48.1608 188.518 Q41.8269 184.285 41.8269 176.296 Z" fill="#000000" fill-rule="evenodd" fill-opacity="1" /><polyline clip-path="url(#clip912)" style="stroke:#009af9; stroke-linecap:round; stroke-linejoin:round; stroke-width:4; stroke-opacity:1; fill:none" points="
  350.696,435.531 358.251,175.824 365.806,190.155 373.361,184.513 380.915,201.5 388.47,270.506 396.025,217.567 403.58,228.496 411.135,207.864 418.689,220.585 
  426.244,188.255 433.799,176.536 441.354,186.368 448.909,205.373 456.463,211.16 464.018,253.904 471.573,236.432 479.128,254.367 486.683,224.408 494.237,252.357 
  501.792,186.862 509.347,205.427 516.902,227.187 524.457,254.613 532.011,231.463 539.566,193.529 547.121,216.134 554.676,226.521 562.231,197.787 569.785,214.062 
  577.34,219.077 584.895,207.613 592.45,235.224 600.005,226.757 607.559,152.649 615.114,195.29 622.669,229.984 630.224,243.639 637.779,227.382 645.333,192.54 
  652.888,213.081 660.443,186.973 667.998,185.786 675.553,193.175 683.107,232.942 690.662,259.781 698.217,190.839 705.772,204.409 713.327,262.333 720.881,210.792 
  728.436,205.704 735.991,194.679 743.546,217.106 751.101,241.457 758.655,207.356 766.21,186.904 773.765,249.304 781.32,220.796 788.875,211.626 796.429,213.83 
  803.984,262.993 811.539,225.021 819.094,227.125 826.649,216.263 834.203,232.16 841.758,189.92 849.313,230.433 856.868,231.92 864.423,177.853 871.977,264.039 
  879.532,241.987 887.087,206.912 894.642,222.432 902.197,207.355 909.751,217.763 917.306,195.023 924.861,220.916 932.416,207.733 939.971,207.651 947.525,211.168 
  955.08,215.678 962.635,224.201 970.19,195.828 977.745,223.912 985.299,191.234 992.854,199.417 1000.41,190.18 1007.96,206.714 1015.52,225.273 1023.07,194.362 
  1030.63,227.448 1038.18,212.826 1045.74,182.994 1053.29,202.079 1060.85,196.392 1068.4,220.459 1075.96,198.838 1083.51,208.197 1091.07,205.65 1098.62,218.607 
  1106.18,178.057 1113.73,201.423 1121.29,117.964 1128.84,186.321 1136.4,215.261 1143.95,184.699 1151.5,172.834 1159.06,211.973 1166.61,179.897 1174.17,179.537 
  1181.72,220.401 1189.28,233.763 1196.83,224.238 1204.39,153.308 1211.94,168.608 1219.5,208.067 1227.05,237.307 1234.61,240.329 1242.16,241.623 1249.72,145.646 
  1257.27,195.586 1264.83,203.064 1272.38,202.102 1279.94,191.094 1287.49,234.599 1295.05,212.966 1302.6,179.602 1310.16,192.659 1317.71,212.857 1325.27,187.277 
  1332.82,185.495 1340.37,249.237 1347.93,249.272 1355.48,211.557 1363.04,215.5 1370.59,214.089 1378.15,223.601 1385.7,209.655 1393.26,260.25 1400.81,167.629 
  1408.37,219.637 1415.92,230.956 1423.48,216.498 1431.03,222.832 1438.59,217.184 1446.14,210.15 1453.7,252.889 1461.25,238.902 1468.81,221.543 1476.36,266.923 
  1483.92,213.722 1491.47,187.138 1499.03,216.512 1506.58,220.452 1514.14,224.669 1521.69,156.308 1529.24,194.82 1536.8,141.345 1544.35,146.691 1551.91,187.444 
  1559.46,170.851 1567.02,174.074 1574.57,158.953 1582.13,173.077 1589.68,197.601 1597.24,195.288 1604.79,207.101 1612.35,243.965 1619.9,176.708 1627.46,219.491 
  1635.01,220.494 1642.57,186.527 1650.12,254.07 1657.68,292.887 1665.23,184.422 1672.79,178.193 1680.34,156.978 1687.9,181.957 1695.45,240.766 1703.01,198.918 
  1710.56,212.599 1718.11,226.865 1725.67,199.168 1733.22,255.375 1740.78,195.274 1748.33,193.622 1755.89,166.332 1763.44,220.728 1771,211.044 1778.55,169.477 
  1786.11,197.94 1793.66,188.228 1801.22,196.707 1808.77,129.238 1816.33,183.112 1823.88,204.272 1831.44,241.236 1838.99,160.698 1846.55,200.578 1854.1,191.969 
  1861.66,154.131 1869.21,211.176 1876.77,204.501 1884.32,188.402 1891.88,165.463 1899.43,224.504 1906.98,206.562 1914.54,177.455 1922.09,156.111 1929.65,140.228 
  1937.2,218.586 1944.76,220.954 1952.31,165.913 1959.87,202.692 1967.42,192.542 1974.98,182.632 1982.53,207.158 1990.09,151.11 1997.64,181.572 2005.2,245.059 
  2012.75,189.822 2020.31,210 2027.86,206.121 2035.42,181.935 2042.97,235.761 2050.53,177.036 2058.08,201.34 2065.64,242.414 2073.19,199.366 2080.74,252.465 
  2088.3,185.13 2095.85,206.377 2103.41,184.981 2110.96,198.443 2118.52,194.298 2126.07,183.954 2133.63,300.155 2141.18,114.833 2148.74,182.481 2156.29,117.979 
  2163.85,218.874 2171.4,194.125 2178.96,205.091 2186.51,188.733 2194.07,167.198 2201.62,202.427 2209.18,220.729 2216.73,169.125 2224.29,173.183 2231.84,148.303 
  2239.4,202.838 2246.95,213.144 2254.51,165.992 2262.06,193.11 2269.61,174.27 2277.17,198.366 2284.72,197.349 2292.28,203.833 2299.83,153.416 2307.39,127.081 
  2314.94,201.634 2322.5,180.776 2330.05,145.097 2337.61,208.042 2345.16,173.327 2352.72,195.936 2360.27,206.521 2367.83,156.683 2375.38,199.336 2382.94,229.825 
  2390.49,167.488 2398.05,111.101 2405.6,212.095 2413.16,191.964 2420.71,218.397 2428.27,188.453 2435.82,214.658 2443.38,190.785 2450.93,157.758 2458.48,233.426 
  2466.04,189.63 2473.59,218.406 2481.15,124.635 2488.7,194.105 2496.26,247.685 2503.81,174.03 2511.37,213.812 2518.92,176.446 2526.48,243.126 2534.03,272.546 
  2541.59,227.913 2549.14,222.481 2556.7,192.732 2564.25,198.308 2571.81,142.434 2579.36,165.907 2586.92,155.628 2594.47,214.584 2602.03,181.11 2609.58,207.04 
  2617.14,198.632 2624.69,211.303 2632.25,205.471 2639.8,245.357 2647.35,200.664 2654.91,194.719 2662.46,209.11 2670.02,179.88 2677.57,188.299 2685.13,215.988 
  2692.68,218.443 2700.24,217.342 2707.79,136.519 2715.35,190.307 2722.9,231.565 2730.46,253.446 2738.01,250.857 2745.57,151.181 2753.12,185.72 2760.68,222.525 
  2768.23,172.436 2775.79,112.343 2783.34,110.236 2790.9,202.115 2798.45,135.02 2806.01,207.785 2813.56,228.425 2821.12,189.031 2828.67,163.853 2836.22,183.417 
  2843.78,193.56 2851.33,189.592 2858.89,194.006 2866.44,203.674 2874,263.367 2881.55,207.576 2889.11,198.279 2896.66,222.701 2904.22,192.861 2911.77,242.381 
  2919.33,212.717 2926.88,189.787 2934.44,170.626 2941.99,195.472 2949.55,212.665 2957.1,224.191 2964.66,238.4 2972.21,193.903 2979.77,215.472 2987.32,169.067 
  2994.88,207.664 3002.43,219.693 3009.99,199.57 
  "/>
</svg>
