<?xml version="1.0" encoding="utf-8"?>
<svg xmlns="http://www.w3.org/2000/svg" xmlns:xlink="http://www.w3.org/1999/xlink" width="800" height="300" viewBox="0 0 3200 1200">
<defs>
  <clipPath id="clip080">
    <rect x="0" y="0" width="3200" height="1200"/>
  </clipPath>
</defs>
<path clip-path="url(#clip080)" d="
M0 1200 L3200 1200 L3200 0 L0 0  Z
  " fill="#ffffff" fill-rule="evenodd" fill-opacity="1"/>
<defs>
  <clipPath id="clip081">
    <rect x="640" y="0" width="2241" height="1200"/>
  </clipPath>
</defs>
<path clip-path="url(#clip080)" d="
M270.918 1000.1 L3089.76 1000.1 L3089.76 110.236 L270.918 110.236  Z
  " fill="#ffffff" fill-rule="evenodd" fill-opacity="1"/>
<defs>
  <clipPath id="clip082">
    <rect x="270" y="110" width="2820" height="891"/>
  </clipPath>
</defs>
<polyline clip-path="url(#clip082)" style="stroke:#000000; stroke-linecap:round; stroke-linejoin:round; stroke-width:2; stroke-opacity:0.1; fill:none" points="
  341.62,1000.1 341.62,110.236 
  "/>
<polyline clip-path="url(#clip082)" style="stroke:#000000; stroke-linecap:round; stroke-linejoin:round; stroke-width:2; stroke-opacity:0.1; fill:none" points="
  1249.23,1000.1 1249.23,110.236 
  "/>
<polyline clip-path="url(#clip082)" style="stroke:#000000; stroke-linecap:round; stroke-linejoin:round; stroke-width:2; stroke-opacity:0.1; fill:none" points="
  2156.83,1000.1 2156.83,110.236 
  "/>
<polyline clip-path="url(#clip082)" style="stroke:#000000; stroke-linecap:round; stroke-linejoin:round; stroke-width:2; stroke-opacity:0.1; fill:none" points="
  3064.44,1000.1 3064.44,110.236 
  "/>
<polyline clip-path="url(#clip080)" style="stroke:#000000; stroke-linecap:round; stroke-linejoin:round; stroke-width:4; stroke-opacity:1; fill:none" points="
  270.918,1000.1 3089.76,1000.1 
  "/>
<polyline clip-path="url(#clip080)" style="stroke:#000000; stroke-linecap:round; stroke-linejoin:round; stroke-width:4; stroke-opacity:1; fill:none" points="
  341.62,1000.1 341.62,981.2 
  "/>
<polyline clip-path="url(#clip080)" style="stroke:#000000; stroke-linecap:round; stroke-linejoin:round; stroke-width:4; stroke-opacity:1; fill:none" points="
  1249.23,1000.1 1249.23,981.2 
  "/>
<polyline clip-path="url(#clip080)" style="stroke:#000000; stroke-linecap:round; stroke-linejoin:round; stroke-width:4; stroke-opacity:1; fill:none" points="
  2156.83,1000.1 2156.83,981.2 
  "/>
<polyline clip-path="url(#clip080)" style="stroke:#000000; stroke-linecap:round; stroke-linejoin:round; stroke-width:4; stroke-opacity:1; fill:none" points="
  3064.44,1000.1 3064.44,981.2 
  "/>
<path clip-path="url(#clip080)" d="M341.62 1037.42 Q338.009 1037.42 336.18 1040.98 Q334.375 1044.52 334.375 1051.65 Q334.375 1058.76 336.18 1062.32 Q338.009 1065.87 341.62 1065.87 Q345.254 1065.87 347.06 1062.32 Q348.889 1058.76 348.889 1051.65 Q348.889 1044.52 347.06 1040.98 Q345.254 1037.42 341.62 1037.42 M341.62 1033.71 Q347.43 1033.71 350.486 1038.32 Q353.565 1042.9 353.565 1051.65 Q353.565 1060.38 350.486 1064.99 Q347.43 1069.57 341.62 1069.57 Q335.81 1069.57 332.731 1064.99 Q329.676 1060.38 329.676 1051.65 Q329.676 1042.9 332.731 1038.32 Q335.81 1033.71 341.62 1033.71 Z" fill="#000000" fill-rule="evenodd" fill-opacity="1" /><path clip-path="url(#clip080)" d="M1208.83 1064.96 L1216.47 1064.96 L1216.47 1038.6 L1208.16 1040.26 L1208.16 1036 L1216.43 1034.34 L1221.1 1034.34 L1221.1 1064.96 L1228.74 1064.96 L1228.74 1068.9 L1208.83 1068.9 L1208.83 1064.96 Z" fill="#000000" fill-rule="evenodd" fill-opacity="1" /><path clip-path="url(#clip080)" d="M1248.19 1037.42 Q1244.57 1037.42 1242.75 1040.98 Q1240.94 1044.52 1240.94 1051.65 Q1240.94 1058.76 1242.75 1062.32 Q1244.57 1065.87 1248.19 1065.87 Q1251.82 1065.87 1253.63 1062.32 Q1255.45 1058.76 1255.45 1051.65 Q1255.45 1044.52 1253.63 1040.98 Q1251.82 1037.42 1248.19 1037.42 M1248.19 1033.71 Q1254 1033.71 1257.05 1038.32 Q1260.13 1042.9 1260.13 1051.65 Q1260.13 1060.38 1257.05 1064.99 Q1254 1069.57 1248.19 1069.57 Q1242.38 1069.57 1239.3 1064.99 Q1236.24 1060.38 1236.24 1051.65 Q1236.24 1042.9 1239.3 1038.32 Q1242.38 1033.71 1248.19 1033.71 Z" fill="#000000" fill-rule="evenodd" fill-opacity="1" /><path clip-path="url(#clip080)" d="M1278.35 1037.42 Q1274.74 1037.42 1272.91 1040.98 Q1271.1 1044.52 1271.1 1051.65 Q1271.1 1058.76 1272.91 1062.32 Q1274.74 1065.87 1278.35 1065.87 Q1281.98 1065.87 1283.79 1062.32 Q1285.62 1058.76 1285.62 1051.65 Q1285.62 1044.52 1283.79 1040.98 Q1281.98 1037.42 1278.35 1037.42 M1278.35 1033.71 Q1284.16 1033.71 1287.21 1038.32 Q1290.29 1042.9 1290.29 1051.65 Q1290.29 1060.38 1287.21 1064.99 Q1284.16 1069.57 1278.35 1069.57 Q1272.54 1069.57 1269.46 1064.99 Q1266.4 1060.38 1266.4 1051.65 Q1266.4 1042.9 1269.46 1038.32 Q1272.54 1033.71 1278.35 1033.71 Z" fill="#000000" fill-rule="evenodd" fill-opacity="1" /><path clip-path="url(#clip080)" d="M2120.53 1064.96 L2136.85 1064.96 L2136.85 1068.9 L2114.9 1068.9 L2114.9 1064.96 Q2117.56 1062.21 2122.15 1057.58 Q2126.75 1052.93 2127.93 1051.58 Q2130.18 1049.06 2131.06 1047.32 Q2131.96 1045.56 2131.96 1043.87 Q2131.96 1041.12 2130.02 1039.38 Q2128.1 1037.65 2124.99 1037.65 Q2122.8 1037.65 2120.34 1038.41 Q2117.91 1039.18 2115.13 1040.73 L2115.13 1036 Q2117.96 1034.87 2120.41 1034.29 Q2122.86 1033.71 2124.9 1033.71 Q2130.27 1033.71 2133.47 1036.4 Q2136.66 1039.08 2136.66 1043.57 Q2136.66 1045.7 2135.85 1047.62 Q2135.06 1049.52 2132.96 1052.12 Q2132.38 1052.79 2129.28 1056 Q2126.17 1059.2 2120.53 1064.96 Z" fill="#000000" fill-rule="evenodd" fill-opacity="1" /><path clip-path="url(#clip080)" d="M2156.66 1037.42 Q2153.05 1037.42 2151.22 1040.98 Q2149.42 1044.52 2149.42 1051.65 Q2149.42 1058.76 2151.22 1062.32 Q2153.05 1065.87 2156.66 1065.87 Q2160.3 1065.87 2162.1 1062.32 Q2163.93 1058.76 2163.93 1051.65 Q2163.93 1044.52 2162.1 1040.98 Q2160.3 1037.42 2156.66 1037.42 M2156.66 1033.71 Q2162.47 1033.71 2165.53 1038.32 Q2168.61 1042.9 2168.61 1051.65 Q2168.61 1060.38 2165.53 1064.99 Q2162.47 1069.57 2156.66 1069.57 Q2150.85 1069.57 2147.77 1064.99 Q2144.72 1060.38 2144.72 1051.65 Q2144.72 1042.9 2147.77 1038.32 Q2150.85 1033.71 2156.66 1033.71 Z" fill="#000000" fill-rule="evenodd" fill-opacity="1" /><path clip-path="url(#clip080)" d="M2186.82 1037.42 Q2183.21 1037.42 2181.38 1040.98 Q2179.58 1044.52 2179.58 1051.65 Q2179.58 1058.76 2181.38 1062.32 Q2183.21 1065.87 2186.82 1065.87 Q2190.46 1065.87 2192.26 1062.32 Q2194.09 1058.76 2194.09 1051.65 Q2194.09 1044.52 2192.26 1040.98 Q2190.46 1037.42 2186.82 1037.42 M2186.82 1033.71 Q2192.63 1033.71 2195.69 1038.32 Q2198.77 1042.9 2198.77 1051.65 Q2198.77 1060.38 2195.69 1064.99 Q2192.63 1069.57 2186.82 1069.57 Q2181.01 1069.57 2177.93 1064.99 Q2174.88 1060.38 2174.88 1051.65 Q2174.88 1042.9 2177.93 1038.32 Q2181.01 1033.71 2186.82 1033.71 Z" fill="#000000" fill-rule="evenodd" fill-opacity="1" /><path clip-path="url(#clip080)" d="M3038.2 1050.26 Q3041.56 1050.98 3043.43 1053.25 Q3045.33 1055.52 3045.33 1058.85 Q3045.33 1063.97 3041.81 1066.77 Q3038.3 1069.57 3031.81 1069.57 Q3029.64 1069.57 3027.32 1069.13 Q3025.03 1068.71 3022.58 1067.86 L3022.58 1063.34 Q3024.52 1064.48 3026.84 1065.06 Q3029.15 1065.63 3031.68 1065.63 Q3036.07 1065.63 3038.37 1063.9 Q3040.68 1062.16 3040.68 1058.85 Q3040.68 1055.8 3038.53 1054.08 Q3036.4 1052.35 3032.58 1052.35 L3028.55 1052.35 L3028.55 1048.5 L3032.76 1048.5 Q3036.21 1048.5 3038.04 1047.14 Q3039.87 1045.75 3039.87 1043.16 Q3039.87 1040.5 3037.97 1039.08 Q3036.1 1037.65 3032.58 1037.65 Q3030.66 1037.65 3028.46 1038.06 Q3026.26 1038.48 3023.62 1039.36 L3023.62 1035.19 Q3026.28 1034.45 3028.6 1034.08 Q3030.93 1033.71 3032.99 1033.71 Q3038.32 1033.71 3041.42 1036.14 Q3044.52 1038.55 3044.52 1042.67 Q3044.52 1045.54 3042.88 1047.53 Q3041.24 1049.5 3038.2 1050.26 Z" fill="#000000" fill-rule="evenodd" fill-opacity="1" /><path clip-path="url(#clip080)" d="M3064.2 1037.42 Q3060.59 1037.42 3058.76 1040.98 Q3056.95 1044.52 3056.95 1051.65 Q3056.95 1058.76 3058.76 1062.32 Q3060.59 1065.87 3064.2 1065.87 Q3067.83 1065.87 3069.64 1062.32 Q3071.47 1058.76 3071.47 1051.65 Q3071.47 1044.52 3069.64 1040.98 Q3067.83 1037.42 3064.2 1037.42 M3064.2 1033.71 Q3070.01 1033.71 3073.06 1038.32 Q3076.14 1042.9 3076.14 1051.65 Q3076.14 1060.38 3073.06 1064.99 Q3070.01 1069.57 3064.2 1069.57 Q3058.39 1069.57 3055.31 1064.99 Q3052.25 1060.38 3052.25 1051.65 Q3052.25 1042.9 3055.31 1038.32 Q3058.39 1033.71 3064.2 1033.71 Z" fill="#000000" fill-rule="evenodd" fill-opacity="1" /><path clip-path="url(#clip080)" d="M3094.36 1037.42 Q3090.75 1037.42 3088.92 1040.98 Q3087.12 1044.52 3087.12 1051.65 Q3087.12 1058.76 3088.92 1062.32 Q3090.75 1065.87 3094.36 1065.87 Q3097.99 1065.87 3099.8 1062.32 Q3101.63 1058.76 3101.63 1051.65 Q3101.63 1044.52 3099.8 1040.98 Q3097.99 1037.42 3094.36 1037.42 M3094.36 1033.71 Q3100.17 1033.71 3103.23 1038.32 Q3106.3 1042.9 3106.3 1051.65 Q3106.3 1060.38 3103.23 1064.99 Q3100.17 1069.57 3094.36 1069.57 Q3088.55 1069.57 3085.47 1064.99 Q3082.42 1060.38 3082.42 1051.65 Q3082.42 1042.9 3085.47 1038.32 Q3088.55 1033.71 3094.36 1033.71 Z" fill="#000000" fill-rule="evenodd" fill-opacity="1" /><path clip-path="url(#clip080)" d="M1556.64 1109.44 L1563.07 1109.44 L1563.07 1151.55 L1586.21 1151.55 L1586.21 1156.96 L1556.64 1156.96 L1556.64 1109.44 Z" fill="#000000" fill-rule="evenodd" fill-opacity="1" /><path clip-path="url(#clip080)" d="M1592.7 1121.31 L1598.56 1121.31 L1598.56 1156.96 L1592.7 1156.96 L1592.7 1121.31 M1592.7 1107.44 L1598.56 1107.44 L1598.56 1114.85 L1592.7 1114.85 L1592.7 1107.44 Z" fill="#000000" fill-rule="evenodd" fill-opacity="1" /><path clip-path="url(#clip080)" d="M1640.44 1135.45 L1640.44 1156.96 L1634.59 1156.96 L1634.59 1135.64 Q1634.59 1130.58 1632.61 1128.06 Q1630.64 1125.55 1626.69 1125.55 Q1621.95 1125.55 1619.21 1128.57 Q1616.48 1131.59 1616.48 1136.81 L1616.48 1156.96 L1610.59 1156.96 L1610.59 1121.31 L1616.48 1121.31 L1616.48 1126.85 Q1618.58 1123.64 1621.41 1122.05 Q1624.27 1120.45 1628 1120.45 Q1634.14 1120.45 1637.29 1124.27 Q1640.44 1128.06 1640.44 1135.45 Z" fill="#000000" fill-rule="evenodd" fill-opacity="1" /><path clip-path="url(#clip080)" d="M1682.62 1137.67 L1682.62 1140.54 L1655.69 1140.54 Q1656.07 1146.59 1659.32 1149.77 Q1662.6 1152.92 1668.42 1152.92 Q1671.79 1152.92 1674.95 1152.09 Q1678.13 1151.26 1681.25 1149.61 L1681.25 1155.15 Q1678.1 1156.48 1674.79 1157.18 Q1671.48 1157.88 1668.07 1157.88 Q1659.54 1157.88 1654.54 1152.92 Q1649.58 1147.95 1649.58 1139.49 Q1649.58 1130.74 1654.29 1125.61 Q1659.03 1120.45 1667.05 1120.45 Q1674.25 1120.45 1678.42 1125.1 Q1682.62 1129.72 1682.62 1137.67 M1676.76 1135.95 Q1676.7 1131.15 1674.05 1128.28 Q1671.44 1125.42 1667.12 1125.42 Q1662.21 1125.42 1659.25 1128.19 Q1656.33 1130.96 1655.88 1135.99 L1676.76 1135.95 Z" fill="#000000" fill-rule="evenodd" fill-opacity="1" /><path clip-path="url(#clip080)" d="M1708.43 1139.04 Q1701.33 1139.04 1698.59 1140.67 Q1695.86 1142.29 1695.86 1146.2 Q1695.86 1149.32 1697.89 1151.17 Q1699.96 1152.98 1703.5 1152.98 Q1708.37 1152.98 1711.29 1149.55 Q1714.25 1146.08 1714.25 1140.35 L1714.25 1139.04 L1708.43 1139.04 M1720.11 1136.62 L1720.11 1156.96 L1714.25 1156.96 L1714.25 1151.55 Q1712.25 1154.8 1709.26 1156.36 Q1706.27 1157.88 1701.94 1157.88 Q1696.46 1157.88 1693.22 1154.83 Q1690 1151.74 1690 1146.59 Q1690 1140.57 1694.01 1137.51 Q1698.05 1134.46 1706.04 1134.46 L1714.25 1134.46 L1714.25 1133.89 Q1714.25 1129.84 1711.58 1127.65 Q1708.94 1125.42 1704.13 1125.42 Q1701.08 1125.42 1698.18 1126.15 Q1695.28 1126.88 1692.61 1128.35 L1692.61 1122.94 Q1695.83 1121.7 1698.85 1121.09 Q1701.87 1120.45 1704.74 1120.45 Q1712.47 1120.45 1716.29 1124.46 Q1720.11 1128.48 1720.11 1136.62 Z" fill="#000000" fill-rule="evenodd" fill-opacity="1" /><path clip-path="url(#clip080)" d="M1755.63 1138.72 Q1755.63 1132.36 1752.99 1128.86 Q1750.38 1125.36 1745.64 1125.36 Q1740.93 1125.36 1738.28 1128.86 Q1735.67 1132.36 1735.67 1138.72 Q1735.67 1145.06 1738.28 1148.56 Q1740.93 1152.06 1745.64 1152.06 Q1750.38 1152.06 1752.99 1148.56 Q1755.63 1145.06 1755.63 1138.72 M1761.49 1152.54 Q1761.49 1161.64 1757.45 1166.06 Q1753.4 1170.52 1745.06 1170.52 Q1741.98 1170.52 1739.24 1170.04 Q1736.5 1169.6 1733.92 1168.64 L1733.92 1162.95 Q1736.5 1164.35 1739.02 1165.01 Q1741.53 1165.68 1744.14 1165.68 Q1749.9 1165.68 1752.77 1162.66 Q1755.63 1159.67 1755.63 1153.59 L1755.63 1150.69 Q1753.82 1153.84 1750.98 1155.4 Q1748.15 1156.96 1744.2 1156.96 Q1737.65 1156.96 1733.64 1151.96 Q1729.63 1146.97 1729.63 1138.72 Q1729.63 1130.45 1733.64 1125.45 Q1737.65 1120.45 1744.2 1120.45 Q1748.15 1120.45 1750.98 1122.01 Q1753.82 1123.57 1755.63 1126.72 L1755.63 1121.31 L1761.49 1121.31 L1761.49 1152.54 Z" fill="#000000" fill-rule="evenodd" fill-opacity="1" /><path clip-path="url(#clip080)" d="M1804.04 1137.67 L1804.04 1140.54 L1777.12 1140.54 Q1777.5 1146.59 1780.74 1149.77 Q1784.02 1152.92 1789.85 1152.92 Q1793.22 1152.92 1796.37 1152.09 Q1799.55 1151.26 1802.67 1149.61 L1802.67 1155.15 Q1799.52 1156.48 1796.21 1157.18 Q1792.9 1157.88 1789.5 1157.88 Q1780.97 1157.88 1775.97 1152.92 Q1771 1147.95 1771 1139.49 Q1771 1130.74 1775.71 1125.61 Q1780.46 1120.45 1788.48 1120.45 Q1795.67 1120.45 1799.84 1125.1 Q1804.04 1129.72 1804.04 1137.67 M1798.19 1135.95 Q1798.12 1131.15 1795.48 1128.28 Q1792.87 1125.42 1788.54 1125.42 Q1783.64 1125.42 1780.68 1128.19 Q1777.75 1130.96 1777.31 1135.99 L1798.19 1135.95 Z" fill="#000000" fill-rule="evenodd" fill-opacity="1" /><polyline clip-path="url(#clip082)" style="stroke:#000000; stroke-linecap:round; stroke-linejoin:round; stroke-width:2; stroke-opacity:0.1; fill:none" points="
  270.918,1000.1 3089.76,1000.1 
  "/>
<polyline clip-path="url(#clip082)" style="stroke:#000000; stroke-linecap:round; stroke-linejoin:round; stroke-width:2; stroke-opacity:0.1; fill:none" points="
  270.918,665.47 3089.76,665.47 
  "/>
<polyline clip-path="url(#clip082)" style="stroke:#000000; stroke-linecap:round; stroke-linejoin:round; stroke-width:2; stroke-opacity:0.1; fill:none" points="
  270.918,330.841 3089.76,330.841 
  "/>
<polyline clip-path="url(#clip080)" style="stroke:#000000; stroke-linecap:round; stroke-linejoin:round; stroke-width:4; stroke-opacity:1; fill:none" points="
  270.918,1000.1 270.918,110.236 
  "/>
<polyline clip-path="url(#clip080)" style="stroke:#000000; stroke-linecap:round; stroke-linejoin:round; stroke-width:4; stroke-opacity:1; fill:none" points="
  270.918,1000.1 289.815,1000.1 
  "/>
<polyline clip-path="url(#clip080)" style="stroke:#000000; stroke-linecap:round; stroke-linejoin:round; stroke-width:4; stroke-opacity:1; fill:none" points="
  270.918,665.47 289.815,665.47 
  "/>
<polyline clip-path="url(#clip080)" style="stroke:#000000; stroke-linecap:round; stroke-linejoin:round; stroke-width:4; stroke-opacity:1; fill:none" points="
  270.918,330.841 289.815,330.841 
  "/>
<path clip-path="url(#clip080)" d="M154.902 1019.89 L162.54 1019.89 L162.54 993.525 L154.23 995.191 L154.23 990.932 L162.494 989.265 L167.17 989.265 L167.17 1019.89 L174.809 1019.89 L174.809 1023.83 L154.902 1023.83 L154.902 1019.89 Z" fill="#000000" fill-rule="evenodd" fill-opacity="1" /><path clip-path="url(#clip080)" d="M194.253 992.344 Q190.642 992.344 188.813 995.909 Q187.008 999.45 187.008 1006.58 Q187.008 1013.69 188.813 1017.25 Q190.642 1020.79 194.253 1020.79 Q197.887 1020.79 199.693 1017.25 Q201.522 1013.69 201.522 1006.58 Q201.522 999.45 199.693 995.909 Q197.887 992.344 194.253 992.344 M194.253 988.64 Q200.063 988.64 203.119 993.247 Q206.198 997.83 206.198 1006.58 Q206.198 1015.31 203.119 1019.91 Q200.063 1024.5 194.253 1024.5 Q188.443 1024.5 185.364 1019.91 Q182.309 1015.31 182.309 1006.58 Q182.309 997.83 185.364 993.247 Q188.443 988.64 194.253 988.64 Z" fill="#000000" fill-rule="evenodd" fill-opacity="1" /><path clip-path="url(#clip080)" d="M206.743 993.218 L212.95 993.218 L212.95 971.796 L206.198 973.15 L206.198 969.689 L212.912 968.335 L216.711 968.335 L216.711 993.218 L222.918 993.218 L222.918 996.415 L206.743 996.415 L206.743 993.218 Z" fill="#000000" fill-rule="evenodd" fill-opacity="1" /><path clip-path="url(#clip080)" d="M153.792 685.262 L161.431 685.262 L161.431 658.896 L153.121 660.563 L153.121 656.304 L161.384 654.637 L166.06 654.637 L166.06 685.262 L173.699 685.262 L173.699 689.197 L153.792 689.197 L153.792 685.262 Z" fill="#000000" fill-rule="evenodd" fill-opacity="1" /><path clip-path="url(#clip080)" d="M193.143 657.716 Q189.532 657.716 187.704 661.281 Q185.898 664.822 185.898 671.952 Q185.898 679.058 187.704 682.623 Q189.532 686.165 193.143 686.165 Q196.778 686.165 198.583 682.623 Q200.412 679.058 200.412 671.952 Q200.412 664.822 198.583 661.281 Q196.778 657.716 193.143 657.716 M193.143 654.012 Q198.954 654.012 202.009 658.619 Q205.088 663.202 205.088 671.952 Q205.088 680.679 202.009 685.285 Q198.954 689.868 193.143 689.868 Q187.333 689.868 184.255 685.285 Q181.199 680.679 181.199 671.952 Q181.199 663.202 184.255 658.619 Q187.333 654.012 193.143 654.012 Z" fill="#000000" fill-rule="evenodd" fill-opacity="1" /><path clip-path="url(#clip080)" d="M209.658 658.589 L222.918 658.589 L222.918 661.787 L205.088 661.787 L205.088 658.589 Q207.251 656.351 210.975 652.59 Q214.717 648.809 215.677 647.719 Q217.501 645.669 218.216 644.258 Q218.949 642.829 218.949 641.456 Q218.949 639.217 217.369 637.807 Q215.808 636.396 213.288 636.396 Q211.501 636.396 209.508 637.017 Q207.533 637.638 205.276 638.898 L205.276 635.061 Q207.57 634.139 209.564 633.669 Q211.558 633.199 213.213 633.199 Q217.576 633.199 220.172 635.381 Q222.767 637.562 222.767 641.211 Q222.767 642.941 222.109 644.502 Q221.469 646.045 219.758 648.151 Q219.288 648.697 216.767 651.311 Q214.247 653.906 209.658 658.589 Z" fill="#000000" fill-rule="evenodd" fill-opacity="1" /><path clip-path="url(#clip080)" d="M153.134 350.634 L160.772 350.634 L160.772 324.268 L152.462 325.935 L152.462 321.676 L160.726 320.009 L165.402 320.009 L165.402 350.634 L173.041 350.634 L173.041 354.569 L153.134 354.569 L153.134 350.634 Z" fill="#000000" fill-rule="evenodd" fill-opacity="1" /><path clip-path="url(#clip080)" d="M192.485 323.088 Q188.874 323.088 187.045 326.652 Q185.24 330.194 185.24 337.324 Q185.24 344.43 187.045 347.995 Q188.874 351.537 192.485 351.537 Q196.119 351.537 197.925 347.995 Q199.754 344.43 199.754 337.324 Q199.754 330.194 197.925 326.652 Q196.119 323.088 192.485 323.088 M192.485 319.384 Q198.295 319.384 201.351 323.99 Q204.43 328.574 204.43 337.324 Q204.43 346.051 201.351 350.657 Q198.295 355.24 192.485 355.24 Q186.675 355.24 183.596 350.657 Q180.541 346.051 180.541 337.324 Q180.541 328.574 183.596 323.99 Q186.675 319.384 192.485 319.384 Z" fill="#000000" fill-rule="evenodd" fill-opacity="1" /><path clip-path="url(#clip080)" d="M217.125 312.018 Q219.852 312.601 221.375 314.445 Q222.918 316.288 222.918 318.996 Q222.918 323.153 220.059 325.428 Q217.2 327.704 211.934 327.704 Q210.166 327.704 208.285 327.347 Q206.423 327.008 204.43 326.312 L204.43 322.645 Q206.009 323.566 207.89 324.037 Q209.771 324.507 211.821 324.507 Q215.395 324.507 217.256 323.096 Q219.137 321.686 219.137 318.996 Q219.137 316.513 217.388 315.122 Q215.658 313.711 212.555 313.711 L209.282 313.711 L209.282 310.589 L212.705 310.589 Q215.507 310.589 216.993 309.479 Q218.479 308.351 218.479 306.244 Q218.479 304.081 216.937 302.934 Q215.413 301.768 212.555 301.768 Q210.994 301.768 209.207 302.107 Q207.42 302.445 205.276 303.16 L205.276 299.774 Q207.439 299.173 209.32 298.872 Q211.219 298.571 212.893 298.571 Q217.219 298.571 219.739 300.546 Q222.259 302.502 222.259 305.849 Q222.259 308.182 220.924 309.799 Q219.589 311.398 217.125 312.018 Z" fill="#000000" fill-rule="evenodd" fill-opacity="1" /><path clip-path="url(#clip080)" d="M42.6863 890.656 L42.6863 860.609 L48.0971 860.609 L48.0971 884.226 L62.1653 884.226 L62.1653 861.596 L67.5762 861.596 L67.5762 884.226 L84.7954 884.226 L84.7954 860.037 L90.2063 860.037 L90.2063 890.656 L42.6863 890.656 Z" fill="#000000" fill-rule="evenodd" fill-opacity="1" /><path clip-path="url(#clip080)" d="M44.2459 820.983 L50.5161 820.983 Q48.7655 824.643 47.9062 827.89 Q47.0468 831.136 47.0468 834.16 Q47.0468 839.412 49.0838 842.276 Q51.1208 845.109 54.8766 845.109 Q58.0276 845.109 59.6509 843.231 Q61.2423 841.321 62.229 836.038 L63.0247 832.155 Q64.3933 824.962 67.8627 821.556 Q71.3001 818.118 77.0929 818.118 Q83.9997 818.118 87.5645 822.765 Q91.1293 827.38 91.1293 836.324 Q91.1293 839.698 90.3654 843.518 Q89.6015 847.305 88.1056 851.379 L81.4853 851.379 Q83.6814 847.464 84.7954 843.709 Q85.9094 839.953 85.9094 836.324 Q85.9094 830.818 83.7451 827.826 Q81.5808 824.834 77.5704 824.834 Q74.0692 824.834 72.0958 826.999 Q70.1225 829.131 69.1358 834.033 L68.3719 837.948 Q66.9396 845.141 63.8841 848.356 Q60.8285 851.57 55.3859 851.57 Q49.0838 851.57 45.4554 847.146 Q41.8269 842.69 41.8269 834.892 Q41.8269 831.55 42.4317 828.081 Q43.0364 824.611 44.2459 820.983 Z" fill="#000000" fill-rule="evenodd" fill-opacity="1" /><path clip-path="url(#clip080)" d="M44.2459 779.606 L50.5161 779.606 Q48.7655 783.266 47.9062 786.513 Q47.0468 789.759 47.0468 792.783 Q47.0468 798.035 49.0838 800.899 Q51.1208 803.732 54.8766 803.732 Q58.0276 803.732 59.6509 801.854 Q61.2423 799.944 62.229 794.661 L63.0247 790.778 Q64.3933 783.584 67.8627 780.179 Q71.3001 776.741 77.0929 776.741 Q83.9997 776.741 87.5645 781.388 Q91.1293 786.003 91.1293 794.947 Q91.1293 798.321 90.3654 802.14 Q89.6015 805.928 88.1056 810.002 L81.4853 810.002 Q83.6814 806.087 84.7954 802.331 Q85.9094 798.576 85.9094 794.947 Q85.9094 789.441 83.7451 786.449 Q81.5808 783.457 77.5704 783.457 Q74.0692 783.457 72.0958 785.621 Q70.1225 787.754 69.1358 792.656 L68.3719 796.57 Q66.9396 803.764 63.8841 806.978 Q60.8285 810.193 55.3859 810.193 Q49.0838 810.193 45.4554 805.769 Q41.8269 801.313 41.8269 793.515 Q41.8269 790.173 42.4317 786.704 Q43.0364 783.234 44.2459 779.606 Z" fill="#000000" fill-rule="evenodd" fill-opacity="1" /><path clip-path="url(#clip080)" d="M82.1218 765.474 L82.1218 758.758 L90.2063 758.758 L90.2063 765.474 L82.1218 765.474 M56.4999 765.474 L56.4999 758.758 L64.5843 758.758 L64.5843 765.474 L56.4999 765.474 Z" fill="#000000" fill-rule="evenodd" fill-opacity="1" /><path clip-path="url(#clip080)" d="M42.6863 724.033 L42.6863 693.987 L48.0971 693.987 L48.0971 717.604 L62.1653 717.604 L62.1653 694.974 L67.5762 694.974 L67.5762 717.604 L84.7954 717.604 L84.7954 693.414 L90.2063 693.414 L90.2063 724.033 L42.6863 724.033 Z" fill="#000000" fill-rule="evenodd" fill-opacity="1" /><path clip-path="url(#clip080)" d="M68.6902 653.469 L90.2063 653.469 L90.2063 659.326 L68.8812 659.326 Q63.8204 659.326 61.306 661.299 Q58.7915 663.273 58.7915 667.219 Q58.7915 671.962 61.8152 674.699 Q64.8389 677.436 70.0588 677.436 L90.2063 677.436 L90.2063 683.325 L54.5583 683.325 L54.5583 677.436 L60.0965 677.436 Q56.8818 675.336 55.2904 672.503 Q53.699 669.638 53.699 665.914 Q53.699 659.771 57.5184 656.62 Q61.306 653.469 68.6902 653.469 Z" fill="#000000" fill-rule="evenodd" fill-opacity="1" /><path clip-path="url(#clip080)" d="M71.9685 618.331 Q65.6028 618.331 62.1017 620.972 Q58.6006 623.582 58.6006 628.325 Q58.6006 633.035 62.1017 635.677 Q65.6028 638.287 71.9685 638.287 Q78.3024 638.287 81.8036 635.677 Q85.3047 633.035 85.3047 628.325 Q85.3047 623.582 81.8036 620.972 Q78.3024 618.331 71.9685 618.331 M85.7821 612.474 Q94.8851 612.474 99.3092 616.516 Q103.765 620.559 103.765 628.898 Q103.765 631.985 103.288 634.722 Q102.842 637.46 101.887 640.038 L96.19 640.038 Q97.5905 637.46 98.2589 634.945 Q98.9273 632.431 98.9273 629.821 Q98.9273 624.06 95.9036 621.195 Q92.9117 618.331 86.8325 618.331 L83.9361 618.331 Q87.0871 620.145 88.6467 622.978 Q90.2063 625.81 90.2063 629.757 Q90.2063 636.314 85.2092 640.324 Q80.2121 644.335 71.9685 644.335 Q63.6931 644.335 58.696 640.324 Q53.699 636.314 53.699 629.757 Q53.699 625.81 55.2586 622.978 Q56.8182 620.145 59.9692 618.331 L54.5583 618.331 L54.5583 612.474 L85.7821 612.474 Z" fill="#000000" fill-rule="evenodd" fill-opacity="1" /><path clip-path="url(#clip080)" d="M40.6811 600.411 L40.6811 594.555 L90.2063 594.555 L90.2063 600.411 L40.6811 600.411 Z" fill="#000000" fill-rule="evenodd" fill-opacity="1" /><path clip-path="url(#clip080)" d="M72.2868 566.1 Q72.2868 573.198 73.9101 575.935 Q75.5333 578.672 79.4482 578.672 Q82.5674 578.672 84.4135 576.635 Q86.2277 574.566 86.2277 571.033 Q86.2277 566.164 82.7902 563.236 Q79.3209 560.275 73.5918 560.275 L72.2868 560.275 L72.2868 566.1 M69.8679 554.419 L90.2063 554.419 L90.2063 560.275 L84.7954 560.275 Q88.0419 562.281 89.6015 565.273 Q91.1293 568.264 91.1293 572.593 Q91.1293 578.068 88.0738 581.314 Q84.9864 584.529 79.8302 584.529 Q73.8146 584.529 70.759 580.518 Q67.7035 576.476 67.7035 568.487 L67.7035 560.275 L67.1306 560.275 Q63.0884 560.275 60.8922 562.949 Q58.6642 565.591 58.6642 570.397 Q58.6642 573.452 59.3963 576.349 Q60.1283 579.245 61.5924 581.919 L56.1816 581.919 Q54.9403 578.704 54.3355 575.68 Q53.699 572.657 53.699 569.792 Q53.699 562.058 57.7094 558.238 Q61.7197 554.419 69.8679 554.419 Z" fill="#000000" fill-rule="evenodd" fill-opacity="1" /><path clip-path="url(#clip080)" d="M68.6902 512.724 L90.2063 512.724 L90.2063 518.58 L68.8812 518.58 Q63.8204 518.58 61.306 520.553 Q58.7915 522.527 58.7915 526.474 Q58.7915 531.216 61.8152 533.953 Q64.8389 536.691 70.0588 536.691 L90.2063 536.691 L90.2063 542.579 L54.5583 542.579 L54.5583 536.691 L60.0965 536.691 Q56.8818 534.59 55.2904 531.757 Q53.699 528.893 53.699 525.169 Q53.699 519.026 57.5184 515.875 Q61.306 512.724 68.6902 512.724 Z" fill="#000000" fill-rule="evenodd" fill-opacity="1" /><path clip-path="url(#clip080)" d="M59.9692 477.585 L40.6811 477.585 L40.6811 471.728 L90.2063 471.728 L90.2063 477.585 L84.8591 477.585 Q88.0419 479.431 89.6015 482.264 Q91.1293 485.065 91.1293 489.011 Q91.1293 495.473 85.9731 499.547 Q80.8169 503.589 72.4141 503.589 Q64.0114 503.589 58.8552 499.547 Q53.699 495.473 53.699 489.011 Q53.699 485.065 55.2586 482.264 Q56.7863 479.431 59.9692 477.585 M72.4141 497.541 Q78.8753 497.541 82.5674 494.9 Q86.2277 492.226 86.2277 487.579 Q86.2277 482.932 82.5674 480.259 Q78.8753 477.585 72.4141 477.585 Q65.9529 477.585 62.2927 480.259 Q58.6006 482.932 58.6006 487.579 Q58.6006 492.226 62.2927 494.9 Q65.9529 497.541 72.4141 497.541 Z" fill="#000000" fill-rule="evenodd" fill-opacity="1" /><path clip-path="url(#clip080)" d="M82.1218 458.17 L82.1218 451.454 L87.5963 451.454 L97.7815 456.674 L97.7815 460.779 L87.5963 458.17 L82.1218 458.17 Z" fill="#000000" fill-rule="evenodd" fill-opacity="1" /><path clip-path="url(#clip080)" d="M44.4369 412.432 L54.5583 412.432 L54.5583 400.369 L59.1098 400.369 L59.1098 412.432 L78.4616 412.432 Q82.8221 412.432 84.0634 411.254 Q85.3047 410.045 85.3047 406.384 L85.3047 400.369 L90.2063 400.369 L90.2063 406.384 Q90.2063 413.164 87.6918 415.742 Q85.1455 418.32 78.4616 418.32 L59.1098 418.32 L59.1098 422.617 L54.5583 422.617 L54.5583 418.32 L44.4369 418.32 L44.4369 412.432 Z" fill="#000000" fill-rule="evenodd" fill-opacity="1" /><path clip-path="url(#clip080)" d="M54.5583 392.666 L54.5583 386.81 L90.2063 386.81 L90.2063 392.666 L54.5583 392.666 M40.6811 392.666 L40.6811 386.81 L48.0971 386.81 L48.0971 392.666 L40.6811 392.666 Z" fill="#000000" fill-rule="evenodd" fill-opacity="1" /><path clip-path="url(#clip080)" d="M61.4015 346.801 Q57.4547 344.605 55.5768 341.55 Q53.699 338.494 53.699 334.357 Q53.699 328.787 57.6139 325.763 Q61.4969 322.739 68.6902 322.739 L90.2063 322.739 L90.2063 328.627 L68.8812 328.627 Q63.7568 328.627 61.2741 330.442 Q58.7915 332.256 58.7915 335.98 Q58.7915 340.531 61.8152 343.173 Q64.8389 345.815 70.0588 345.815 L90.2063 345.815 L90.2063 351.703 L68.8812 351.703 Q63.7249 351.703 61.2741 353.517 Q58.7915 355.332 58.7915 359.119 Q58.7915 363.607 61.8471 366.249 Q64.8708 368.89 70.0588 368.89 L90.2063 368.89 L90.2063 374.779 L54.5583 374.779 L54.5583 368.89 L60.0965 368.89 Q56.8182 366.885 55.2586 364.084 Q53.699 361.283 53.699 357.432 Q53.699 353.549 55.6723 350.844 Q57.6457 348.106 61.4015 346.801 Z" fill="#000000" fill-rule="evenodd" fill-opacity="1" /><path clip-path="url(#clip080)" d="M70.9182 280.566 L73.7828 280.566 L73.7828 307.493 Q79.8302 307.111 83.013 303.865 Q86.1641 300.586 86.1641 294.762 Q86.1641 291.388 85.3365 288.237 Q84.509 285.054 82.8539 281.935 L88.3921 281.935 Q89.7289 285.086 90.4291 288.396 Q91.1293 291.706 91.1293 295.112 Q91.1293 303.642 86.1641 308.639 Q81.1988 313.604 72.7324 313.604 Q63.9796 313.604 58.8552 308.894 Q53.699 304.151 53.699 296.13 Q53.699 288.937 58.3459 284.768 Q62.9611 280.566 70.9182 280.566 M69.1995 286.423 Q64.3933 286.486 61.5288 289.128 Q58.6642 291.738 58.6642 296.067 Q58.6642 300.968 61.4333 303.928 Q64.2024 306.857 69.2313 307.302 L69.1995 286.423 Z" fill="#000000" fill-rule="evenodd" fill-opacity="1" /><path clip-path="url(#clip080)" d="M82.1218 269.458 L82.1218 262.742 L90.2063 262.742 L90.2063 269.458 L82.1218 269.458 M56.4999 269.458 L56.4999 262.742 L64.5843 262.742 L64.5843 269.458 L56.4999 269.458 Z" fill="#000000" fill-rule="evenodd" fill-opacity="1" /><path clip-path="url(#clip080)" d="M84.7954 247.051 L84.7954 236.547 L48.5427 236.547 L50.8344 247.974 L44.9779 247.974 L42.6863 236.611 L42.6863 230.182 L84.7954 230.182 L84.7954 219.678 L90.2063 219.678 L90.2063 247.051 L84.7954 247.051 Z" fill="#000000" fill-rule="evenodd" fill-opacity="1" /><polyline clip-path="url(#clip082)" style="stroke:#009af9; stroke-linecap:round; stroke-linejoin:round; stroke-width:4; stroke-opacity:1; fill:none" points="
  350.696,367.464 359.772,183.673 368.848,211.29 377.925,187.366 387.001,157.38 396.077,162.285 405.153,174.857 414.229,211.12 423.305,222.998 432.381,162.609 
  441.457,192.259 450.533,154.484 459.609,168.804 468.685,199.105 477.761,130.859 486.837,185.725 495.913,184.654 504.99,189.141 514.066,180.906 523.142,186.807 
  532.218,171.644 541.294,241.389 550.37,175.122 559.446,179.136 568.522,195.893 577.598,188.272 586.674,163.753 595.75,198.626 604.826,130.684 613.902,187.298 
  622.978,200.213 632.055,187.349 641.131,201.428 650.207,191.714 659.283,155.897 668.359,140.396 677.435,195.472 686.511,178.547 695.587,178.077 704.663,168.994 
  713.739,153.6 722.815,186.242 731.891,189.238 740.967,139.37 750.043,199.329 759.119,187.267 768.196,172.799 777.272,228.424 786.348,172.115 795.424,185.941 
  804.5,190.631 813.576,153.261 822.652,167.242 831.728,181.733 840.804,192.991 849.88,193.938 858.956,213.047 868.032,206.992 877.108,141.361 886.184,208.843 
  895.261,151.211 904.337,150.191 913.413,202.538 922.489,213.064 931.565,158.613 940.641,135.896 949.717,185.581 958.793,175.422 967.869,174.385 976.945,197.045 
  986.021,179.234 995.097,189.351 1004.17,161.243 1013.25,170.285 1022.33,189.849 1031.4,145.729 1040.48,229.087 1049.55,196.556 1058.63,180.406 1067.71,186.18 
  1076.78,196.222 1085.86,173.014 1094.93,188.808 1104.01,203.7 1113.09,181.598 1122.16,183.672 1131.24,183.951 1140.31,188.372 1149.39,149.509 1158.47,171.83 
  1167.54,174.995 1176.62,216.12 1185.69,200.95 1194.77,199.928 1203.85,215.039 1212.92,156.812 1222,152.283 1231.08,178.673 1240.15,161.693 1249.23,135.891 
  1258.3,195.866 1267.38,155.847 1276.46,174.677 1285.53,158.207 1294.61,129.658 1303.68,140.682 1312.76,164.181 1321.84,145.957 1330.91,218.983 1339.99,181.078 
  1349.06,194.745 1358.14,170.497 1367.22,171.908 1376.29,161.723 1385.37,178.107 1394.44,174.078 1403.52,146.681 1412.6,190.779 1421.67,179.006 1430.75,170.109 
  1439.82,147.922 1448.9,183.555 1457.98,205.85 1467.05,167.738 1476.13,192.613 1485.21,164.839 1494.28,156.285 1503.36,176.181 1512.43,196.454 1521.51,182.693 
  1530.59,151.528 1539.66,203.087 1548.74,170.142 1557.81,148.833 1566.89,192.996 1575.97,148.351 1585.04,155.002 1594.12,182.039 1603.19,171.79 1612.27,207.61 
  1621.35,129.787 1630.42,145.934 1639.5,126.221 1648.57,214.883 1657.65,180.9 1666.73,181.333 1675.8,181.612 1684.88,172.384 1693.95,145.443 1703.03,166.803 
  1712.11,183.369 1721.18,222.088 1730.26,178.47 1739.34,164.236 1748.41,166.588 1757.49,110.236 1766.56,167.556 1775.64,201.274 1784.72,149.131 1793.79,189.52 
  1802.87,182.716 1811.94,165.513 1821.02,159.364 1830.1,176.567 1839.17,171.719 1848.25,158.421 1857.32,164.369 1866.4,180.41 1875.48,159.317 1884.55,179.82 
  1893.63,154.001 1902.7,196.724 1911.78,129.713 1920.86,206.019 1929.93,187.716 1939.01,123.546 1948.08,177.091 1957.16,196.004 1966.24,194.573 1975.31,185.549 
  1984.39,156.851 1993.47,155.739 2002.54,170.541 2011.62,115.542 2020.69,154.806 2029.77,178.642 2038.85,154.879 2047.92,197.617 2057,198.717 2066.07,200.473 
  2075.15,156.389 2084.23,165.961 2093.3,151.132 2102.38,210.112 2111.45,161.409 2120.53,164.958 2129.61,169.644 2138.68,199.077 2147.76,136.022 2156.83,190.149 
  2165.91,158.277 2174.99,144.565 2184.06,191.586 2193.14,161.623 2202.21,142.496 2211.29,149.116 2220.37,167.653 2229.44,169.379 2238.52,157.664 2247.6,150.656 
  2256.67,183.224 2265.75,203.429 2274.82,138.946 2283.9,133.097 2292.98,127.526 2302.05,141.463 2311.13,157.559 2320.2,134.58 2329.28,178.827 2338.36,155.398 
  2347.43,192.952 2356.51,169.073 2365.58,151.102 2374.66,150.304 2383.74,200.253 2392.81,187.204 2401.89,220.195 2410.96,185.71 2420.04,185.496 2429.12,172.995 
  2438.19,221.694 2447.27,160.443 2456.34,148.797 2465.42,150.53 2474.5,154.505 2483.57,172.635 2492.65,197.738 2501.73,136.495 2510.8,152.629 2519.88,157.458 
  2528.95,198.83 2538.03,175.389 2547.11,175.743 2556.18,160.146 2565.26,196.995 2574.33,187.305 2583.41,190.079 2592.49,171.961 2601.56,142.632 2610.64,237.073 
  2619.71,131.751 2628.79,131.218 2637.87,149.193 2646.94,154.951 2656.02,174.644 2665.09,118.527 2674.17,189.923 2683.25,162.441 2692.32,204.727 2701.4,172.514 
  2710.47,144.302 2719.55,147.343 2728.63,200.176 2737.7,207.283 2746.78,158.858 2755.86,149.559 2764.93,190.089 2774.01,187.399 2783.08,167.389 2792.16,153.245 
  2801.24,154.947 2810.31,157.086 2819.39,204.196 2828.46,154.964 2837.54,224.842 2846.62,160.27 2855.69,179.097 2864.77,204.052 2873.84,152.567 2882.92,191.961 
  2892,172.888 2901.07,156.851 2910.15,172.608 2919.22,154.293 2928.3,146.744 2937.38,159.526 2946.45,138.536 2955.53,180.955 2964.6,129.101 2973.68,165.496 
  2982.76,144.596 2991.83,177.525 3000.91,149.553 3009.99,221.553 
  "/>
</svg>
