<?xml version="1.0" encoding="utf-8"?>
<svg xmlns="http://www.w3.org/2000/svg" xmlns:xlink="http://www.w3.org/1999/xlink" width="800" height="300" viewBox="0 0 3200 1200">
<defs>
  <clipPath id="clip510">
    <rect x="0" y="0" width="3200" height="1200"/>
  </clipPath>
</defs>
<path clip-path="url(#clip510)" d="M0 1200 L3200 1200 L3200 0 L0 0  Z" fill="#ffffff" fill-rule="evenodd" fill-opacity="1"/>
<defs>
  <clipPath id="clip511">
    <rect x="640" y="0" width="2241" height="1200"/>
  </clipPath>
</defs>
<path clip-path="url(#clip510)" d="M270.918 1000.1 L3089.76 1000.1 L3089.76 110.236 L270.918 110.236  Z" fill="#ffffff" fill-rule="evenodd" fill-opacity="1"/>
<defs>
  <clipPath id="clip512">
    <rect x="270" y="110" width="2820" height="891"/>
  </clipPath>
</defs>
<polyline clip-path="url(#clip512)" style="stroke:#000000; stroke-linecap:round; stroke-linejoin:round; stroke-width:2; stroke-opacity:0.1; fill:none" points="326.073,1000.1 326.073,110.236 "/>
<polyline clip-path="url(#clip512)" style="stroke:#000000; stroke-linecap:round; stroke-linejoin:round; stroke-width:2; stroke-opacity:0.1; fill:none" points="941.649,1000.1 941.649,110.236 "/>
<polyline clip-path="url(#clip512)" style="stroke:#000000; stroke-linecap:round; stroke-linejoin:round; stroke-width:2; stroke-opacity:0.1; fill:none" points="1557.23,1000.1 1557.23,110.236 "/>
<polyline clip-path="url(#clip512)" style="stroke:#000000; stroke-linecap:round; stroke-linejoin:round; stroke-width:2; stroke-opacity:0.1; fill:none" points="2172.8,1000.1 2172.8,110.236 "/>
<polyline clip-path="url(#clip512)" style="stroke:#000000; stroke-linecap:round; stroke-linejoin:round; stroke-width:2; stroke-opacity:0.1; fill:none" points="2788.38,1000.1 2788.38,110.236 "/>
<polyline clip-path="url(#clip510)" style="stroke:#000000; stroke-linecap:round; stroke-linejoin:round; stroke-width:4; stroke-opacity:1; fill:none" points="270.918,1000.1 3089.76,1000.1 "/>
<polyline clip-path="url(#clip510)" style="stroke:#000000; stroke-linecap:round; stroke-linejoin:round; stroke-width:4; stroke-opacity:1; fill:none" points="326.073,1000.1 326.073,981.2 "/>
<polyline clip-path="url(#clip510)" style="stroke:#000000; stroke-linecap:round; stroke-linejoin:round; stroke-width:4; stroke-opacity:1; fill:none" points="941.649,1000.1 941.649,981.2 "/>
<polyline clip-path="url(#clip510)" style="stroke:#000000; stroke-linecap:round; stroke-linejoin:round; stroke-width:4; stroke-opacity:1; fill:none" points="1557.23,1000.1 1557.23,981.2 "/>
<polyline clip-path="url(#clip510)" style="stroke:#000000; stroke-linecap:round; stroke-linejoin:round; stroke-width:4; stroke-opacity:1; fill:none" points="2172.8,1000.1 2172.8,981.2 "/>
<polyline clip-path="url(#clip510)" style="stroke:#000000; stroke-linecap:round; stroke-linejoin:round; stroke-width:4; stroke-opacity:1; fill:none" points="2788.38,1000.1 2788.38,981.2 "/>
<path clip-path="url(#clip510)" d="M326.073 1037.42 Q322.462 1037.42 320.633 1040.98 Q318.828 1044.52 318.828 1051.65 Q318.828 1058.76 320.633 1062.32 Q322.462 1065.87 326.073 1065.87 Q329.707 1065.87 331.513 1062.32 Q333.342 1058.76 333.342 1051.65 Q333.342 1044.52 331.513 1040.98 Q329.707 1037.42 326.073 1037.42 M326.073 1033.71 Q331.883 1033.71 334.939 1038.32 Q338.018 1042.9 338.018 1051.65 Q338.018 1060.38 334.939 1064.99 Q331.883 1069.57 326.073 1069.57 Q320.263 1069.57 317.184 1064.99 Q314.129 1060.38 314.129 1051.65 Q314.129 1042.9 317.184 1038.32 Q320.263 1033.71 326.073 1033.71 Z" fill="#000000" fill-rule="nonzero" fill-opacity="1" /><path clip-path="url(#clip510)" d="M920.92 1064.96 L937.24 1064.96 L937.24 1068.9 L915.295 1068.9 L915.295 1064.96 Q917.957 1062.21 922.541 1057.58 Q927.147 1052.93 928.328 1051.58 Q930.573 1049.06 931.453 1047.32 Q932.355 1045.56 932.355 1043.87 Q932.355 1041.12 930.411 1039.38 Q928.49 1037.65 925.388 1037.65 Q923.189 1037.65 920.735 1038.41 Q918.305 1039.18 915.527 1040.73 L915.527 1036 Q918.351 1034.87 920.805 1034.29 Q923.258 1033.71 925.295 1033.71 Q930.666 1033.71 933.86 1036.4 Q937.054 1039.08 937.054 1043.57 Q937.054 1045.7 936.244 1047.62 Q935.457 1049.52 933.351 1052.12 Q932.772 1052.79 929.67 1056 Q926.568 1059.2 920.92 1064.96 Z" fill="#000000" fill-rule="nonzero" fill-opacity="1" /><path clip-path="url(#clip510)" d="M947.101 1034.34 L965.457 1034.34 L965.457 1038.27 L951.383 1038.27 L951.383 1046.75 Q952.402 1046.4 953.42 1046.24 Q954.439 1046.05 955.457 1046.05 Q961.244 1046.05 964.624 1049.22 Q968.003 1052.39 968.003 1057.81 Q968.003 1063.39 964.531 1066.49 Q961.059 1069.57 954.74 1069.57 Q952.564 1069.57 950.295 1069.2 Q948.05 1068.83 945.642 1068.09 L945.642 1063.39 Q947.726 1064.52 949.948 1065.08 Q952.17 1065.63 954.647 1065.63 Q958.652 1065.63 960.99 1063.53 Q963.327 1061.42 963.327 1057.81 Q963.327 1054.2 960.99 1052.09 Q958.652 1049.99 954.647 1049.99 Q952.772 1049.99 950.897 1050.4 Q949.045 1050.82 947.101 1051.7 L947.101 1034.34 Z" fill="#000000" fill-rule="nonzero" fill-opacity="1" /><path clip-path="url(#clip510)" d="M1531.92 1034.34 L1550.28 1034.34 L1550.28 1038.27 L1536.21 1038.27 L1536.21 1046.75 Q1537.23 1046.4 1538.24 1046.24 Q1539.26 1046.05 1540.28 1046.05 Q1546.07 1046.05 1549.45 1049.22 Q1552.83 1052.39 1552.83 1057.81 Q1552.83 1063.39 1549.36 1066.49 Q1545.88 1069.57 1539.56 1069.57 Q1537.39 1069.57 1535.12 1069.2 Q1532.87 1068.83 1530.47 1068.09 L1530.47 1063.39 Q1532.55 1064.52 1534.77 1065.08 Q1536.99 1065.63 1539.47 1065.63 Q1543.48 1065.63 1545.81 1063.53 Q1548.15 1061.42 1548.15 1057.81 Q1548.15 1054.2 1545.81 1052.09 Q1543.48 1049.99 1539.47 1049.99 Q1537.6 1049.99 1535.72 1050.4 Q1533.87 1050.82 1531.92 1051.7 L1531.92 1034.34 Z" fill="#000000" fill-rule="nonzero" fill-opacity="1" /><path clip-path="url(#clip510)" d="M1572.04 1037.42 Q1568.43 1037.42 1566.6 1040.98 Q1564.79 1044.52 1564.79 1051.65 Q1564.79 1058.76 1566.6 1062.32 Q1568.43 1065.87 1572.04 1065.87 Q1575.67 1065.87 1577.48 1062.32 Q1579.31 1058.76 1579.31 1051.65 Q1579.31 1044.52 1577.48 1040.98 Q1575.67 1037.42 1572.04 1037.42 M1572.04 1033.71 Q1577.85 1033.71 1580.91 1038.32 Q1583.98 1042.9 1583.98 1051.65 Q1583.98 1060.38 1580.91 1064.99 Q1577.85 1069.57 1572.04 1069.57 Q1566.23 1069.57 1563.15 1064.99 Q1560.1 1060.38 1560.1 1051.65 Q1560.1 1042.9 1563.15 1038.32 Q1566.23 1033.71 1572.04 1033.71 Z" fill="#000000" fill-rule="nonzero" fill-opacity="1" /><path clip-path="url(#clip510)" d="M2146.66 1034.34 L2168.88 1034.34 L2168.88 1036.33 L2156.33 1068.9 L2151.45 1068.9 L2163.25 1038.27 L2146.66 1038.27 L2146.66 1034.34 Z" fill="#000000" fill-rule="nonzero" fill-opacity="1" /><path clip-path="url(#clip510)" d="M2178.04 1034.34 L2196.4 1034.34 L2196.4 1038.27 L2182.33 1038.27 L2182.33 1046.75 Q2183.35 1046.4 2184.36 1046.24 Q2185.38 1046.05 2186.4 1046.05 Q2192.19 1046.05 2195.57 1049.22 Q2198.95 1052.39 2198.95 1057.81 Q2198.95 1063.39 2195.48 1066.49 Q2192 1069.57 2185.68 1069.57 Q2183.51 1069.57 2181.24 1069.2 Q2178.99 1068.83 2176.59 1068.09 L2176.59 1063.39 Q2178.67 1064.52 2180.89 1065.08 Q2183.11 1065.63 2185.59 1065.63 Q2189.6 1065.63 2191.93 1063.53 Q2194.27 1061.42 2194.27 1057.81 Q2194.27 1054.2 2191.93 1052.09 Q2189.6 1049.99 2185.59 1049.99 Q2183.72 1049.99 2181.84 1050.4 Q2179.99 1050.82 2178.04 1051.7 L2178.04 1034.34 Z" fill="#000000" fill-rule="nonzero" fill-opacity="1" /><path clip-path="url(#clip510)" d="M2747.98 1064.96 L2755.62 1064.96 L2755.62 1038.6 L2747.31 1040.26 L2747.31 1036 L2755.58 1034.34 L2760.25 1034.34 L2760.25 1064.96 L2767.89 1064.96 L2767.89 1068.9 L2747.98 1068.9 L2747.98 1064.96 Z" fill="#000000" fill-rule="nonzero" fill-opacity="1" /><path clip-path="url(#clip510)" d="M2787.34 1037.42 Q2783.72 1037.42 2781.9 1040.98 Q2780.09 1044.52 2780.09 1051.65 Q2780.09 1058.76 2781.9 1062.32 Q2783.72 1065.87 2787.34 1065.87 Q2790.97 1065.87 2792.78 1062.32 Q2794.6 1058.76 2794.6 1051.65 Q2794.6 1044.52 2792.78 1040.98 Q2790.97 1037.42 2787.34 1037.42 M2787.34 1033.71 Q2793.15 1033.71 2796.2 1038.32 Q2799.28 1042.9 2799.28 1051.65 Q2799.28 1060.38 2796.2 1064.99 Q2793.15 1069.57 2787.34 1069.57 Q2781.53 1069.57 2778.45 1064.99 Q2775.39 1060.38 2775.39 1051.65 Q2775.39 1042.9 2778.45 1038.32 Q2781.53 1033.71 2787.34 1033.71 Z" fill="#000000" fill-rule="nonzero" fill-opacity="1" /><path clip-path="url(#clip510)" d="M2817.5 1037.42 Q2813.89 1037.42 2812.06 1040.98 Q2810.25 1044.52 2810.25 1051.65 Q2810.25 1058.76 2812.06 1062.32 Q2813.89 1065.87 2817.5 1065.87 Q2821.13 1065.87 2822.94 1062.32 Q2824.77 1058.76 2824.77 1051.65 Q2824.77 1044.52 2822.94 1040.98 Q2821.13 1037.42 2817.5 1037.42 M2817.5 1033.71 Q2823.31 1033.71 2826.36 1038.32 Q2829.44 1042.9 2829.44 1051.65 Q2829.44 1060.38 2826.36 1064.99 Q2823.31 1069.57 2817.5 1069.57 Q2811.69 1069.57 2808.61 1064.99 Q2805.55 1060.38 2805.55 1051.65 Q2805.55 1042.9 2808.61 1038.32 Q2811.69 1033.71 2817.5 1033.71 Z" fill="#000000" fill-rule="nonzero" fill-opacity="1" /><path clip-path="url(#clip510)" d="M1556.64 1109.44 L1563.07 1109.44 L1563.07 1151.55 L1586.21 1151.55 L1586.21 1156.96 L1556.64 1156.96 L1556.64 1109.44 Z" fill="#000000" fill-rule="nonzero" fill-opacity="1" /><path clip-path="url(#clip510)" d="M1592.7 1121.31 L1598.56 1121.31 L1598.56 1156.96 L1592.7 1156.96 L1592.7 1121.31 M1592.7 1107.44 L1598.56 1107.44 L1598.56 1114.85 L1592.7 1114.85 L1592.7 1107.44 Z" fill="#000000" fill-rule="nonzero" fill-opacity="1" /><path clip-path="url(#clip510)" d="M1640.44 1135.45 L1640.44 1156.96 L1634.59 1156.96 L1634.59 1135.64 Q1634.59 1130.58 1632.61 1128.06 Q1630.64 1125.55 1626.69 1125.55 Q1621.95 1125.55 1619.21 1128.57 Q1616.48 1131.59 1616.48 1136.81 L1616.48 1156.96 L1610.59 1156.96 L1610.59 1121.31 L1616.48 1121.31 L1616.48 1126.85 Q1618.58 1123.64 1621.41 1122.05 Q1624.27 1120.45 1628 1120.45 Q1634.14 1120.45 1637.29 1124.27 Q1640.44 1128.06 1640.44 1135.45 Z" fill="#000000" fill-rule="nonzero" fill-opacity="1" /><path clip-path="url(#clip510)" d="M1682.62 1137.67 L1682.62 1140.54 L1655.69 1140.54 Q1656.07 1146.59 1659.32 1149.77 Q1662.6 1152.92 1668.42 1152.92 Q1671.79 1152.92 1674.95 1152.09 Q1678.13 1151.26 1681.25 1149.61 L1681.25 1155.15 Q1678.1 1156.48 1674.79 1157.18 Q1671.48 1157.88 1668.07 1157.88 Q1659.54 1157.88 1654.54 1152.92 Q1649.58 1147.95 1649.58 1139.49 Q1649.58 1130.74 1654.29 1125.61 Q1659.03 1120.45 1667.05 1120.45 Q1674.25 1120.45 1678.42 1125.1 Q1682.62 1129.72 1682.62 1137.67 M1676.76 1135.95 Q1676.7 1131.15 1674.05 1128.28 Q1671.44 1125.42 1667.12 1125.42 Q1662.21 1125.42 1659.25 1128.19 Q1656.33 1130.96 1655.88 1135.99 L1676.76 1135.95 Z" fill="#000000" fill-rule="nonzero" fill-opacity="1" /><path clip-path="url(#clip510)" d="M1708.43 1139.04 Q1701.33 1139.04 1698.59 1140.67 Q1695.86 1142.29 1695.86 1146.2 Q1695.86 1149.32 1697.89 1151.17 Q1699.96 1152.98 1703.5 1152.98 Q1708.37 1152.98 1711.29 1149.55 Q1714.25 1146.08 1714.25 1140.35 L1714.25 1139.04 L1708.43 1139.04 M1720.11 1136.62 L1720.11 1156.96 L1714.25 1156.96 L1714.25 1151.55 Q1712.25 1154.8 1709.26 1156.36 Q1706.27 1157.88 1701.94 1157.88 Q1696.46 1157.88 1693.22 1154.83 Q1690 1151.74 1690 1146.59 Q1690 1140.57 1694.01 1137.51 Q1698.05 1134.46 1706.04 1134.46 L1714.25 1134.46 L1714.25 1133.89 Q1714.25 1129.84 1711.58 1127.65 Q1708.94 1125.42 1704.13 1125.42 Q1701.08 1125.42 1698.18 1126.15 Q1695.28 1126.88 1692.61 1128.35 L1692.61 1122.94 Q1695.83 1121.7 1698.85 1121.09 Q1701.87 1120.45 1704.74 1120.45 Q1712.47 1120.45 1716.29 1124.46 Q1720.11 1128.48 1720.11 1136.62 Z" fill="#000000" fill-rule="nonzero" fill-opacity="1" /><path clip-path="url(#clip510)" d="M1755.63 1138.72 Q1755.63 1132.36 1752.99 1128.86 Q1750.38 1125.36 1745.64 1125.36 Q1740.93 1125.36 1738.28 1128.86 Q1735.67 1132.36 1735.67 1138.72 Q1735.67 1145.06 1738.28 1148.56 Q1740.93 1152.06 1745.64 1152.06 Q1750.38 1152.06 1752.99 1148.56 Q1755.63 1145.06 1755.63 1138.72 M1761.49 1152.54 Q1761.49 1161.64 1757.45 1166.06 Q1753.4 1170.52 1745.06 1170.52 Q1741.98 1170.52 1739.24 1170.04 Q1736.5 1169.6 1733.92 1168.64 L1733.92 1162.95 Q1736.5 1164.35 1739.02 1165.01 Q1741.53 1165.68 1744.14 1165.68 Q1749.9 1165.68 1752.77 1162.66 Q1755.63 1159.67 1755.63 1153.59 L1755.63 1150.69 Q1753.82 1153.84 1750.98 1155.4 Q1748.15 1156.96 1744.2 1156.96 Q1737.65 1156.96 1733.64 1151.96 Q1729.63 1146.97 1729.63 1138.72 Q1729.63 1130.45 1733.64 1125.45 Q1737.65 1120.45 1744.2 1120.45 Q1748.15 1120.45 1750.98 1122.01 Q1753.82 1123.57 1755.63 1126.72 L1755.63 1121.31 L1761.49 1121.31 L1761.49 1152.54 Z" fill="#000000" fill-rule="nonzero" fill-opacity="1" /><path clip-path="url(#clip510)" d="M1804.04 1137.67 L1804.04 1140.54 L1777.12 1140.54 Q1777.5 1146.59 1780.74 1149.77 Q1784.02 1152.92 1789.85 1152.92 Q1793.22 1152.92 1796.37 1152.09 Q1799.55 1151.26 1802.67 1149.61 L1802.67 1155.15 Q1799.52 1156.48 1796.21 1157.18 Q1792.9 1157.88 1789.5 1157.88 Q1780.97 1157.88 1775.97 1152.92 Q1771 1147.95 1771 1139.49 Q1771 1130.74 1775.71 1125.61 Q1780.46 1120.45 1788.48 1120.45 Q1795.67 1120.45 1799.84 1125.1 Q1804.04 1129.72 1804.04 1137.67 M1798.19 1135.95 Q1798.12 1131.15 1795.48 1128.28 Q1792.87 1125.42 1788.54 1125.42 Q1783.64 1125.42 1780.68 1128.19 Q1777.75 1130.96 1777.31 1135.99 L1798.19 1135.95 Z" fill="#000000" fill-rule="nonzero" fill-opacity="1" /><polyline clip-path="url(#clip512)" style="stroke:#000000; stroke-linecap:round; stroke-linejoin:round; stroke-width:2; stroke-opacity:0.1; fill:none" points="270.918,1000.1 3089.76,1000.1 "/>
<polyline clip-path="url(#clip512)" style="stroke:#000000; stroke-linecap:round; stroke-linejoin:round; stroke-width:2; stroke-opacity:0.1; fill:none" points="270.918,670.445 3089.76,670.445 "/>
<polyline clip-path="url(#clip512)" style="stroke:#000000; stroke-linecap:round; stroke-linejoin:round; stroke-width:2; stroke-opacity:0.1; fill:none" points="270.918,340.792 3089.76,340.792 "/>
<polyline clip-path="url(#clip510)" style="stroke:#000000; stroke-linecap:round; stroke-linejoin:round; stroke-width:4; stroke-opacity:1; fill:none" points="270.918,1000.1 270.918,110.236 "/>
<polyline clip-path="url(#clip510)" style="stroke:#000000; stroke-linecap:round; stroke-linejoin:round; stroke-width:4; stroke-opacity:1; fill:none" points="270.918,1000.1 289.815,1000.1 "/>
<polyline clip-path="url(#clip510)" style="stroke:#000000; stroke-linecap:round; stroke-linejoin:round; stroke-width:4; stroke-opacity:1; fill:none" points="270.918,670.445 289.815,670.445 "/>
<polyline clip-path="url(#clip510)" style="stroke:#000000; stroke-linecap:round; stroke-linejoin:round; stroke-width:4; stroke-opacity:1; fill:none" points="270.918,340.792 289.815,340.792 "/>
<path clip-path="url(#clip510)" d="M154.902 1019.89 L162.54 1019.89 L162.54 993.525 L154.23 995.191 L154.23 990.932 L162.494 989.265 L167.17 989.265 L167.17 1019.89 L174.809 1019.89 L174.809 1023.83 L154.902 1023.83 L154.902 1019.89 Z" fill="#000000" fill-rule="nonzero" fill-opacity="1" /><path clip-path="url(#clip510)" d="M194.253 992.344 Q190.642 992.344 188.813 995.909 Q187.008 999.45 187.008 1006.58 Q187.008 1013.69 188.813 1017.25 Q190.642 1020.79 194.253 1020.79 Q197.887 1020.79 199.693 1017.25 Q201.522 1013.69 201.522 1006.58 Q201.522 999.45 199.693 995.909 Q197.887 992.344 194.253 992.344 M194.253 988.64 Q200.063 988.64 203.119 993.247 Q206.198 997.83 206.198 1006.58 Q206.198 1015.31 203.119 1019.91 Q200.063 1024.5 194.253 1024.5 Q188.443 1024.5 185.364 1019.91 Q182.309 1015.31 182.309 1006.58 Q182.309 997.83 185.364 993.247 Q188.443 988.64 194.253 988.64 Z" fill="#000000" fill-rule="nonzero" fill-opacity="1" /><path clip-path="url(#clip510)" d="M206.743 993.218 L212.95 993.218 L212.95 971.796 L206.198 973.15 L206.198 969.689 L212.912 968.335 L216.711 968.335 L216.711 993.218 L222.918 993.218 L222.918 996.415 L206.743 996.415 L206.743 993.218 Z" fill="#000000" fill-rule="nonzero" fill-opacity="1" /><path clip-path="url(#clip510)" d="M153.792 690.237 L161.431 690.237 L161.431 663.872 L153.121 665.539 L153.121 661.279 L161.384 659.613 L166.06 659.613 L166.06 690.237 L173.699 690.237 L173.699 694.173 L153.792 694.173 L153.792 690.237 Z" fill="#000000" fill-rule="nonzero" fill-opacity="1" /><path clip-path="url(#clip510)" d="M193.143 662.691 Q189.532 662.691 187.704 666.256 Q185.898 669.798 185.898 676.927 Q185.898 684.034 187.704 687.599 Q189.532 691.14 193.143 691.14 Q196.778 691.14 198.583 687.599 Q200.412 684.034 200.412 676.927 Q200.412 669.798 198.583 666.256 Q196.778 662.691 193.143 662.691 M193.143 658.988 Q198.954 658.988 202.009 663.594 Q205.088 668.177 205.088 676.927 Q205.088 685.654 202.009 690.261 Q198.954 694.844 193.143 694.844 Q187.333 694.844 184.255 690.261 Q181.199 685.654 181.199 676.927 Q181.199 668.177 184.255 663.594 Q187.333 658.988 193.143 658.988 Z" fill="#000000" fill-rule="nonzero" fill-opacity="1" /><path clip-path="url(#clip510)" d="M209.658 663.565 L222.918 663.565 L222.918 666.762 L205.088 666.762 L205.088 663.565 Q207.251 661.327 210.975 657.565 Q214.717 653.785 215.677 652.694 Q217.501 650.644 218.216 649.233 Q218.949 647.804 218.949 646.431 Q218.949 644.193 217.369 642.782 Q215.808 641.372 213.288 641.372 Q211.501 641.372 209.508 641.992 Q207.533 642.613 205.276 643.873 L205.276 640.036 Q207.57 639.115 209.564 638.645 Q211.558 638.174 213.213 638.174 Q217.576 638.174 220.172 640.356 Q222.767 642.538 222.767 646.187 Q222.767 647.917 222.109 649.478 Q221.469 651.02 219.758 653.127 Q219.288 653.672 216.767 656.286 Q214.247 658.882 209.658 663.565 Z" fill="#000000" fill-rule="nonzero" fill-opacity="1" /><path clip-path="url(#clip510)" d="M153.134 360.585 L160.772 360.585 L160.772 334.219 L152.462 335.886 L152.462 331.627 L160.726 329.96 L165.402 329.96 L165.402 360.585 L173.041 360.585 L173.041 364.52 L153.134 364.52 L153.134 360.585 Z" fill="#000000" fill-rule="nonzero" fill-opacity="1" /><path clip-path="url(#clip510)" d="M192.485 333.039 Q188.874 333.039 187.045 336.603 Q185.24 340.145 185.24 347.275 Q185.24 354.381 187.045 357.946 Q188.874 361.488 192.485 361.488 Q196.119 361.488 197.925 357.946 Q199.754 354.381 199.754 347.275 Q199.754 340.145 197.925 336.603 Q196.119 333.039 192.485 333.039 M192.485 329.335 Q198.295 329.335 201.351 333.941 Q204.43 338.525 204.43 347.275 Q204.43 356.001 201.351 360.608 Q198.295 365.191 192.485 365.191 Q186.675 365.191 183.596 360.608 Q180.541 356.001 180.541 347.275 Q180.541 338.525 183.596 333.941 Q186.675 329.335 192.485 329.335 Z" fill="#000000" fill-rule="nonzero" fill-opacity="1" /><path clip-path="url(#clip510)" d="M217.125 321.969 Q219.852 322.552 221.375 324.396 Q222.918 326.239 222.918 328.947 Q222.918 333.104 220.059 335.379 Q217.2 337.655 211.934 337.655 Q210.166 337.655 208.285 337.298 Q206.423 336.959 204.43 336.263 L204.43 332.596 Q206.009 333.517 207.89 333.987 Q209.771 334.458 211.821 334.458 Q215.395 334.458 217.256 333.047 Q219.137 331.636 219.137 328.947 Q219.137 326.464 217.388 325.073 Q215.658 323.662 212.555 323.662 L209.282 323.662 L209.282 320.54 L212.705 320.54 Q215.507 320.54 216.993 319.43 Q218.479 318.302 218.479 316.195 Q218.479 314.032 216.937 312.885 Q215.413 311.719 212.555 311.719 Q210.994 311.719 209.207 312.058 Q207.42 312.396 205.276 313.111 L205.276 309.725 Q207.439 309.124 209.32 308.823 Q211.219 308.522 212.893 308.522 Q217.219 308.522 219.739 310.497 Q222.259 312.453 222.259 315.8 Q222.259 318.133 220.924 319.75 Q219.589 321.349 217.125 321.969 Z" fill="#000000" fill-rule="nonzero" fill-opacity="1" /><path clip-path="url(#clip510)" d="M42.6863 908.145 L42.6863 878.099 L48.0971 878.099 L48.0971 901.716 L62.1653 901.716 L62.1653 879.086 L67.5762 879.086 L67.5762 901.716 L84.7954 901.716 L84.7954 877.526 L90.2063 877.526 L90.2063 908.145 L42.6863 908.145 Z" fill="#000000" fill-rule="nonzero" fill-opacity="1" /><path clip-path="url(#clip510)" d="M44.2459 838.473 L50.5161 838.473 Q48.7655 842.133 47.9062 845.38 Q47.0468 848.626 47.0468 851.65 Q47.0468 856.901 49.0838 859.766 Q51.1208 862.599 54.8766 862.599 Q58.0276 862.599 59.6509 860.721 Q61.2423 858.811 62.229 853.528 L63.0247 849.645 Q64.3933 842.451 67.8627 839.046 Q71.3001 835.608 77.0929 835.608 Q83.9997 835.608 87.5645 840.255 Q91.1293 844.87 91.1293 853.814 Q91.1293 857.188 90.3654 861.007 Q89.6015 864.795 88.1056 868.869 L81.4853 868.869 Q83.6814 864.954 84.7954 861.198 Q85.9094 857.443 85.9094 853.814 Q85.9094 848.308 83.7451 845.316 Q81.5808 842.324 77.5704 842.324 Q74.0692 842.324 72.0958 844.488 Q70.1225 846.621 69.1358 851.522 L68.3719 855.437 Q66.9396 862.631 63.8841 865.845 Q60.8285 869.06 55.3859 869.06 Q49.0838 869.06 45.4554 864.636 Q41.8269 860.18 41.8269 852.382 Q41.8269 849.04 42.4317 845.571 Q43.0364 842.101 44.2459 838.473 Z" fill="#000000" fill-rule="nonzero" fill-opacity="1" /><path clip-path="url(#clip510)" d="M44.2459 797.096 L50.5161 797.096 Q48.7655 800.756 47.9062 804.002 Q47.0468 807.249 47.0468 810.273 Q47.0468 815.524 49.0838 818.389 Q51.1208 821.222 54.8766 821.222 Q58.0276 821.222 59.6509 819.344 Q61.2423 817.434 62.229 812.151 L63.0247 808.267 Q64.3933 801.074 67.8627 797.669 Q71.3001 794.231 77.0929 794.231 Q83.9997 794.231 87.5645 798.878 Q91.1293 803.493 91.1293 812.437 Q91.1293 815.811 90.3654 819.63 Q89.6015 823.418 88.1056 827.492 L81.4853 827.492 Q83.6814 823.577 84.7954 819.821 Q85.9094 816.065 85.9094 812.437 Q85.9094 806.931 83.7451 803.939 Q81.5808 800.947 77.5704 800.947 Q74.0692 800.947 72.0958 803.111 Q70.1225 805.244 69.1358 810.145 L68.3719 814.06 Q66.9396 821.254 63.8841 824.468 Q60.8285 827.683 55.3859 827.683 Q49.0838 827.683 45.4554 823.259 Q41.8269 818.803 41.8269 811.005 Q41.8269 807.663 42.4317 804.193 Q43.0364 800.724 44.2459 797.096 Z" fill="#000000" fill-rule="nonzero" fill-opacity="1" /><path clip-path="url(#clip510)" d="M82.1218 782.964 L82.1218 776.248 L90.2063 776.248 L90.2063 782.964 L82.1218 782.964 M56.4999 782.964 L56.4999 776.248 L64.5843 776.248 L64.5843 782.964 L56.4999 782.964 Z" fill="#000000" fill-rule="nonzero" fill-opacity="1" /><path clip-path="url(#clip510)" d="M47.9698 735.094 L84.9227 735.094 L84.9227 727.328 Q84.9227 717.492 80.4668 712.941 Q76.0108 708.358 66.3985 708.358 Q56.85 708.358 52.4258 712.941 Q47.9698 717.492 47.9698 727.328 L47.9698 735.094 M42.6863 741.523 L42.6863 728.314 Q42.6863 714.501 48.4472 708.039 Q54.1764 701.578 66.3985 701.578 Q78.6844 701.578 84.4453 708.071 Q90.2063 714.564 90.2063 728.314 L90.2063 741.523 L42.6863 741.523 Z" fill="#000000" fill-rule="nonzero" fill-opacity="1" /><path clip-path="url(#clip510)" d="M70.9182 661.092 L73.7828 661.092 L73.7828 688.019 Q79.8302 687.637 83.013 684.391 Q86.1641 681.112 86.1641 675.288 Q86.1641 671.914 85.3365 668.763 Q84.509 665.58 82.8539 662.461 L88.3921 662.461 Q89.7289 665.612 90.4291 668.922 Q91.1293 672.232 91.1293 675.638 Q91.1293 684.168 86.1641 689.165 Q81.1988 694.13 72.7324 694.13 Q63.9796 694.13 58.8552 689.42 Q53.699 684.677 53.699 676.656 Q53.699 669.463 58.3459 665.294 Q62.9611 661.092 70.9182 661.092 M69.1995 666.949 Q64.3933 667.012 61.5288 669.654 Q58.6642 672.264 58.6642 676.593 Q58.6642 681.494 61.4333 684.454 Q64.2024 687.383 69.2313 687.828 L69.1995 666.949 Z" fill="#000000" fill-rule="nonzero" fill-opacity="1" /><path clip-path="url(#clip510)" d="M68.6902 621.848 L90.2063 621.848 L90.2063 627.704 L68.8812 627.704 Q63.8204 627.704 61.306 629.678 Q58.7915 631.651 58.7915 635.598 Q58.7915 640.34 61.8152 643.077 Q64.8389 645.815 70.0588 645.815 L90.2063 645.815 L90.2063 651.703 L54.5583 651.703 L54.5583 645.815 L60.0965 645.815 Q56.8818 643.714 55.2904 640.881 Q53.699 638.017 53.699 634.293 Q53.699 628.15 57.5184 624.999 Q61.306 621.848 68.6902 621.848 Z" fill="#000000" fill-rule="nonzero" fill-opacity="1" /><path clip-path="url(#clip510)" d="M61.4015 582.412 Q57.4547 580.216 55.5768 577.16 Q53.699 574.105 53.699 569.967 Q53.699 564.397 57.6139 561.374 Q61.4969 558.35 68.6902 558.35 L90.2063 558.35 L90.2063 564.238 L68.8812 564.238 Q63.7568 564.238 61.2741 566.052 Q58.7915 567.867 58.7915 571.59 Q58.7915 576.142 61.8152 578.784 Q64.8389 581.426 70.0588 581.426 L90.2063 581.426 L90.2063 587.314 L68.8812 587.314 Q63.7249 587.314 61.2741 589.128 Q58.7915 590.942 58.7915 594.73 Q58.7915 599.218 61.8471 601.859 Q64.8708 604.501 70.0588 604.501 L90.2063 604.501 L90.2063 610.389 L54.5583 610.389 L54.5583 604.501 L60.0965 604.501 Q56.8182 602.496 55.2586 599.695 Q53.699 596.894 53.699 593.043 Q53.699 589.16 55.6723 586.454 Q57.6457 583.717 61.4015 582.412 Z" fill="#000000" fill-rule="nonzero" fill-opacity="1" /><path clip-path="url(#clip510)" d="M72.2868 530.468 Q72.2868 537.566 73.9101 540.303 Q75.5333 543.04 79.4482 543.04 Q82.5674 543.04 84.4135 541.003 Q86.2277 538.934 86.2277 535.401 Q86.2277 530.532 82.7902 527.603 Q79.3209 524.643 73.5918 524.643 L72.2868 524.643 L72.2868 530.468 M69.8679 518.787 L90.2063 518.787 L90.2063 524.643 L84.7954 524.643 Q88.0419 526.649 89.6015 529.64 Q91.1293 532.632 91.1293 536.961 Q91.1293 542.436 88.0738 545.682 Q84.9864 548.897 79.8302 548.897 Q73.8146 548.897 70.759 544.886 Q67.7035 540.844 67.7035 532.855 L67.7035 524.643 L67.1306 524.643 Q63.0884 524.643 60.8922 527.317 Q58.6642 529.959 58.6642 534.765 Q58.6642 537.82 59.3963 540.717 Q60.1283 543.613 61.5924 546.287 L56.1816 546.287 Q54.9403 543.072 54.3355 540.048 Q53.699 537.025 53.699 534.16 Q53.699 526.426 57.7094 522.606 Q61.7197 518.787 69.8679 518.787 Z" fill="#000000" fill-rule="nonzero" fill-opacity="1" /><path clip-path="url(#clip510)" d="M60.0328 486.067 Q59.4599 487.054 59.2053 488.232 Q58.9188 489.377 58.9188 490.778 Q58.9188 495.743 62.1653 498.417 Q65.38 501.058 71.4274 501.058 L90.2063 501.058 L90.2063 506.947 L54.5583 506.947 L54.5583 501.058 L60.0965 501.058 Q56.85 499.212 55.2904 496.252 Q53.699 493.292 53.699 489.059 Q53.699 488.454 53.7944 487.722 Q53.8581 486.99 54.0172 486.099 L60.0328 486.067 Z" fill="#000000" fill-rule="nonzero" fill-opacity="1" /><path clip-path="url(#clip510)" d="M40.6811 480.147 L40.6811 474.259 L69.9315 474.259 L54.5583 456.785 L54.5583 449.305 L71.2365 468.211 L90.2063 448.51 L90.2063 456.148 L72.7961 474.259 L90.2063 474.259 L90.2063 480.147 L40.6811 480.147 Z" fill="#000000" fill-rule="nonzero" fill-opacity="1" /><path clip-path="url(#clip510)" d="M82.1218 440.68 L82.1218 433.964 L87.5963 433.964 L97.7815 439.184 L97.7815 443.29 L87.5963 440.68 L82.1218 440.68 Z" fill="#000000" fill-rule="nonzero" fill-opacity="1" /><path clip-path="url(#clip510)" d="M44.4369 394.942 L54.5583 394.942 L54.5583 382.879 L59.1098 382.879 L59.1098 394.942 L78.4616 394.942 Q82.8221 394.942 84.0634 393.764 Q85.3047 392.555 85.3047 388.895 L85.3047 382.879 L90.2063 382.879 L90.2063 388.895 Q90.2063 395.674 87.6918 398.252 Q85.1455 400.83 78.4616 400.83 L59.1098 400.83 L59.1098 405.127 L54.5583 405.127 L54.5583 400.83 L44.4369 400.83 L44.4369 394.942 Z" fill="#000000" fill-rule="nonzero" fill-opacity="1" /><path clip-path="url(#clip510)" d="M54.5583 375.177 L54.5583 369.32 L90.2063 369.32 L90.2063 375.177 L54.5583 375.177 M40.6811 375.177 L40.6811 369.32 L48.0971 369.32 L48.0971 375.177 L40.6811 375.177 Z" fill="#000000" fill-rule="nonzero" fill-opacity="1" /><path clip-path="url(#clip510)" d="M61.4015 329.312 Q57.4547 327.116 55.5768 324.06 Q53.699 321.004 53.699 316.867 Q53.699 311.297 57.6139 308.273 Q61.4969 305.249 68.6902 305.249 L90.2063 305.249 L90.2063 311.138 L68.8812 311.138 Q63.7568 311.138 61.2741 312.952 Q58.7915 314.766 58.7915 318.49 Q58.7915 323.041 61.8152 325.683 Q64.8389 328.325 70.0588 328.325 L90.2063 328.325 L90.2063 334.213 L68.8812 334.213 Q63.7249 334.213 61.2741 336.028 Q58.7915 337.842 58.7915 341.629 Q58.7915 346.117 61.8471 348.759 Q64.8708 351.401 70.0588 351.401 L90.2063 351.401 L90.2063 357.289 L54.5583 357.289 L54.5583 351.401 L60.0965 351.401 Q56.8182 349.396 55.2586 346.595 Q53.699 343.794 53.699 339.942 Q53.699 336.059 55.6723 333.354 Q57.6457 330.617 61.4015 329.312 Z" fill="#000000" fill-rule="nonzero" fill-opacity="1" /><path clip-path="url(#clip510)" d="M70.9182 263.077 L73.7828 263.077 L73.7828 290.003 Q79.8302 289.622 83.013 286.375 Q86.1641 283.097 86.1641 277.272 Q86.1641 273.898 85.3365 270.747 Q84.509 267.564 82.8539 264.445 L88.3921 264.445 Q89.7289 267.596 90.4291 270.906 Q91.1293 274.217 91.1293 277.622 Q91.1293 286.152 86.1641 291.149 Q81.1988 296.115 72.7324 296.115 Q63.9796 296.115 58.8552 291.404 Q53.699 286.661 53.699 278.641 Q53.699 271.447 58.3459 267.278 Q62.9611 263.077 70.9182 263.077 M69.1995 268.933 Q64.3933 268.997 61.5288 271.638 Q58.6642 274.248 58.6642 278.577 Q58.6642 283.479 61.4333 286.439 Q64.2024 289.367 69.2313 289.812 L69.1995 268.933 Z" fill="#000000" fill-rule="nonzero" fill-opacity="1" /><path clip-path="url(#clip510)" d="M82.1218 251.968 L82.1218 245.253 L90.2063 245.253 L90.2063 251.968 L82.1218 251.968 M56.4999 251.968 L56.4999 245.253 L64.5843 245.253 L64.5843 251.968 L56.4999 251.968 Z" fill="#000000" fill-rule="nonzero" fill-opacity="1" /><path clip-path="url(#clip510)" d="M84.7954 229.561 L84.7954 219.058 L48.5427 219.058 L50.8344 230.484 L44.9779 230.484 L42.6863 219.121 L42.6863 212.692 L84.7954 212.692 L84.7954 202.189 L90.2063 202.189 L90.2063 229.561 L84.7954 229.561 Z" fill="#000000" fill-rule="nonzero" fill-opacity="1" /><polyline clip-path="url(#clip512)" style="stroke:#009af9; stroke-linecap:round; stroke-linejoin:round; stroke-width:4; stroke-opacity:1; fill:none" points="350.696,264.417 375.319,206.844 399.942,147.964 424.565,149.426 449.188,211.533 473.812,129.854 498.435,160.3 523.058,140.057 547.681,165.734 572.304,185.375 596.927,166.18 621.55,152.385 646.173,204.028 670.796,162.111 695.419,126.761 720.042,133.562 744.665,133.985 769.288,146.866 793.911,156.381 818.534,137.77 843.157,136.587 867.78,149.862 892.403,143.823 917.026,167.582 941.649,158.866 966.272,161.219 990.895,144.456 1015.52,174.515 1040.14,143.118 1064.76,179.72 1089.39,125.663 1114.01,126.355 1138.63,134.481 1163.26,164.977 1187.88,156.126 1212.5,196.404 1237.13,120.734 1261.75,114.39 1286.37,123.474 1311,135.185 1335.62,205.758 1360.24,183.308 1384.86,165.303 1409.49,186.178 1434.11,207.35 1458.73,111.979 1483.36,131.356 1507.98,148.299 1532.6,148.88 1557.23,200.224 1581.85,136.303 1606.47,132.126 1631.09,180.274 1655.72,202.313 1680.34,130.533 1704.96,126.257 1729.59,168.523 1754.21,146.048 1778.83,155.051 1803.46,177.881 1828.08,176.425 1852.7,127.457 1877.33,126.973 1901.95,149.852 1926.57,185.008 1951.19,140.194 1975.82,141.786 2000.44,162.494 2025.06,153.006 2049.69,174.603 2074.31,172.299 2098.93,150.848 2123.56,139.325 2148.18,158.347 2172.8,110.236 2197.42,119.094 2222.05,152.031 2246.67,158.188 2271.29,145.585 2295.92,151.359 2320.54,159.879 2345.16,177.119 2369.79,178.296 2394.41,132.281 2419.03,151.902 2443.66,132.599 2468.28,171.435 2492.9,165.65 2517.52,145.88 2542.15,144.177 2566.77,168.907 2591.39,201.471 2616.02,151.374 2640.64,113.271 2665.26,146.155 2689.89,161.564 2714.51,164.867 2739.13,193.144 2763.75,161.589 2788.38,139.559 2813,196.226 2837.62,133.25 2862.25,160.424 2886.87,139.241 2911.49,163.433 2936.12,150.281 2960.74,158.836 2985.36,169.134 3009.99,128.95 "/>
</svg>
