<?xml version="1.0" encoding="utf-8"?>
<svg xmlns="http://www.w3.org/2000/svg" xmlns:xlink="http://www.w3.org/1999/xlink" width="800" height="300" viewBox="0 0 3200 1200">
<defs>
  <clipPath id="clip520">
    <rect x="0" y="0" width="3200" height="1200"/>
  </clipPath>
</defs>
<path clip-path="url(#clip520)" d="
M0 1200 L3200 1200 L3200 0 L0 0  Z
  " fill="#ffffff" fill-rule="evenodd" fill-opacity="1"/>
<defs>
  <clipPath id="clip521">
    <rect x="640" y="0" width="2241" height="1200"/>
  </clipPath>
</defs>
<path clip-path="url(#clip520)" d="
M270.918 1000.1 L3089.76 1000.1 L3089.76 110.236 L270.918 110.236  Z
  " fill="#ffffff" fill-rule="evenodd" fill-opacity="1"/>
<defs>
  <clipPath id="clip522">
    <rect x="270" y="110" width="2820" height="891"/>
  </clipPath>
</defs>
<polyline clip-path="url(#clip522)" style="stroke:#000000; stroke-linecap:round; stroke-linejoin:round; stroke-width:2; stroke-opacity:0.1; fill:none" points="
  342.006,1000.1 342.006,110.236 
  "/>
<polyline clip-path="url(#clip522)" style="stroke:#000000; stroke-linecap:round; stroke-linejoin:round; stroke-width:2; stroke-opacity:0.1; fill:none" points="
  1211.05,1000.1 1211.05,110.236 
  "/>
<polyline clip-path="url(#clip522)" style="stroke:#000000; stroke-linecap:round; stroke-linejoin:round; stroke-width:2; stroke-opacity:0.1; fill:none" points="
  2080.1,1000.1 2080.1,110.236 
  "/>
<polyline clip-path="url(#clip522)" style="stroke:#000000; stroke-linecap:round; stroke-linejoin:round; stroke-width:2; stroke-opacity:0.1; fill:none" points="
  2949.15,1000.1 2949.15,110.236 
  "/>
<polyline clip-path="url(#clip520)" style="stroke:#000000; stroke-linecap:round; stroke-linejoin:round; stroke-width:4; stroke-opacity:1; fill:none" points="
  270.918,1000.1 3089.76,1000.1 
  "/>
<polyline clip-path="url(#clip520)" style="stroke:#000000; stroke-linecap:round; stroke-linejoin:round; stroke-width:4; stroke-opacity:1; fill:none" points="
  342.006,1000.1 342.006,981.2 
  "/>
<polyline clip-path="url(#clip520)" style="stroke:#000000; stroke-linecap:round; stroke-linejoin:round; stroke-width:4; stroke-opacity:1; fill:none" points="
  1211.05,1000.1 1211.05,981.2 
  "/>
<polyline clip-path="url(#clip520)" style="stroke:#000000; stroke-linecap:round; stroke-linejoin:round; stroke-width:4; stroke-opacity:1; fill:none" points="
  2080.1,1000.1 2080.1,981.2 
  "/>
<polyline clip-path="url(#clip520)" style="stroke:#000000; stroke-linecap:round; stroke-linejoin:round; stroke-width:4; stroke-opacity:1; fill:none" points="
  2949.15,1000.1 2949.15,981.2 
  "/>
<path clip-path="url(#clip520)" d="M342.006 1037.42 Q338.395 1037.42 336.566 1040.98 Q334.76 1044.52 334.76 1051.65 Q334.76 1058.76 336.566 1062.32 Q338.395 1065.87 342.006 1065.87 Q345.64 1065.87 347.446 1062.32 Q349.274 1058.76 349.274 1051.65 Q349.274 1044.52 347.446 1040.98 Q345.64 1037.42 342.006 1037.42 M342.006 1033.71 Q347.816 1033.71 350.872 1038.32 Q353.95 1042.9 353.95 1051.65 Q353.95 1060.38 350.872 1064.99 Q347.816 1069.57 342.006 1069.57 Q336.196 1069.57 333.117 1064.99 Q330.061 1060.38 330.061 1051.65 Q330.061 1042.9 333.117 1038.32 Q336.196 1033.71 342.006 1033.71 Z" fill="#000000" fill-rule="evenodd" fill-opacity="1" /><path clip-path="url(#clip520)" d="M1170.66 1064.96 L1178.3 1064.96 L1178.3 1038.6 L1169.99 1040.26 L1169.99 1036 L1178.25 1034.34 L1182.93 1034.34 L1182.93 1064.96 L1190.57 1064.96 L1190.57 1068.9 L1170.66 1068.9 L1170.66 1064.96 Z" fill="#000000" fill-rule="evenodd" fill-opacity="1" /><path clip-path="url(#clip520)" d="M1210.01 1037.42 Q1206.4 1037.42 1204.57 1040.98 Q1202.77 1044.52 1202.77 1051.65 Q1202.77 1058.76 1204.57 1062.32 Q1206.4 1065.87 1210.01 1065.87 Q1213.65 1065.87 1215.45 1062.32 Q1217.28 1058.76 1217.28 1051.65 Q1217.28 1044.52 1215.45 1040.98 Q1213.65 1037.42 1210.01 1037.42 M1210.01 1033.71 Q1215.82 1033.71 1218.88 1038.32 Q1221.96 1042.9 1221.96 1051.65 Q1221.96 1060.38 1218.88 1064.99 Q1215.82 1069.57 1210.01 1069.57 Q1204.2 1069.57 1201.12 1064.99 Q1198.07 1060.38 1198.07 1051.65 Q1198.07 1042.9 1201.12 1038.32 Q1204.2 1033.71 1210.01 1033.71 Z" fill="#000000" fill-rule="evenodd" fill-opacity="1" /><path clip-path="url(#clip520)" d="M1240.17 1037.42 Q1236.56 1037.42 1234.73 1040.98 Q1232.93 1044.52 1232.93 1051.65 Q1232.93 1058.76 1234.73 1062.32 Q1236.56 1065.87 1240.17 1065.87 Q1243.81 1065.87 1245.61 1062.32 Q1247.44 1058.76 1247.44 1051.65 Q1247.44 1044.52 1245.61 1040.98 Q1243.81 1037.42 1240.17 1037.42 M1240.17 1033.71 Q1245.98 1033.71 1249.04 1038.32 Q1252.12 1042.9 1252.12 1051.65 Q1252.12 1060.38 1249.04 1064.99 Q1245.98 1069.57 1240.17 1069.57 Q1234.36 1069.57 1231.29 1064.99 Q1228.23 1060.38 1228.23 1051.65 Q1228.23 1042.9 1231.29 1038.32 Q1234.36 1033.71 1240.17 1033.71 Z" fill="#000000" fill-rule="evenodd" fill-opacity="1" /><path clip-path="url(#clip520)" d="M2043.8 1064.96 L2060.11 1064.96 L2060.11 1068.9 L2038.17 1068.9 L2038.17 1064.96 Q2040.83 1062.21 2045.42 1057.58 Q2050.02 1052.93 2051.2 1051.58 Q2053.45 1049.06 2054.33 1047.32 Q2055.23 1045.56 2055.23 1043.87 Q2055.23 1041.12 2053.29 1039.38 Q2051.36 1037.65 2048.26 1037.65 Q2046.06 1037.65 2043.61 1038.41 Q2041.18 1039.18 2038.4 1040.73 L2038.4 1036 Q2041.23 1034.87 2043.68 1034.29 Q2046.13 1033.71 2048.17 1033.71 Q2053.54 1033.71 2056.74 1036.4 Q2059.93 1039.08 2059.93 1043.57 Q2059.93 1045.7 2059.12 1047.62 Q2058.33 1049.52 2056.23 1052.12 Q2055.65 1052.79 2052.55 1056 Q2049.44 1059.2 2043.8 1064.96 Z" fill="#000000" fill-rule="evenodd" fill-opacity="1" /><path clip-path="url(#clip520)" d="M2079.93 1037.42 Q2076.32 1037.42 2074.49 1040.98 Q2072.68 1044.52 2072.68 1051.65 Q2072.68 1058.76 2074.49 1062.32 Q2076.32 1065.87 2079.93 1065.87 Q2083.56 1065.87 2085.37 1062.32 Q2087.2 1058.76 2087.2 1051.65 Q2087.2 1044.52 2085.37 1040.98 Q2083.56 1037.42 2079.93 1037.42 M2079.93 1033.71 Q2085.74 1033.71 2088.8 1038.32 Q2091.87 1042.9 2091.87 1051.65 Q2091.87 1060.38 2088.8 1064.99 Q2085.74 1069.57 2079.93 1069.57 Q2074.12 1069.57 2071.04 1064.99 Q2067.99 1060.38 2067.99 1051.65 Q2067.99 1042.9 2071.04 1038.32 Q2074.12 1033.71 2079.93 1033.71 Z" fill="#000000" fill-rule="evenodd" fill-opacity="1" /><path clip-path="url(#clip520)" d="M2110.09 1037.42 Q2106.48 1037.42 2104.65 1040.98 Q2102.85 1044.52 2102.85 1051.65 Q2102.85 1058.76 2104.65 1062.32 Q2106.48 1065.87 2110.09 1065.87 Q2113.73 1065.87 2115.53 1062.32 Q2117.36 1058.76 2117.36 1051.65 Q2117.36 1044.52 2115.53 1040.98 Q2113.73 1037.42 2110.09 1037.42 M2110.09 1033.71 Q2115.9 1033.71 2118.96 1038.32 Q2122.04 1042.9 2122.04 1051.65 Q2122.04 1060.38 2118.96 1064.99 Q2115.9 1069.57 2110.09 1069.57 Q2104.28 1069.57 2101.2 1064.99 Q2098.15 1060.38 2098.15 1051.65 Q2098.15 1042.9 2101.2 1038.32 Q2104.28 1033.71 2110.09 1033.71 Z" fill="#000000" fill-rule="evenodd" fill-opacity="1" /><path clip-path="url(#clip520)" d="M2922.91 1050.26 Q2926.27 1050.98 2928.14 1053.25 Q2930.04 1055.52 2930.04 1058.85 Q2930.04 1063.97 2926.52 1066.77 Q2923.01 1069.57 2916.52 1069.57 Q2914.35 1069.57 2912.03 1069.13 Q2909.74 1068.71 2907.29 1067.86 L2907.29 1063.34 Q2909.23 1064.48 2911.55 1065.06 Q2913.86 1065.63 2916.39 1065.63 Q2920.78 1065.63 2923.08 1063.9 Q2925.39 1062.16 2925.39 1058.85 Q2925.39 1055.8 2923.24 1054.08 Q2921.11 1052.35 2917.29 1052.35 L2913.26 1052.35 L2913.26 1048.5 L2917.47 1048.5 Q2920.92 1048.5 2922.75 1047.14 Q2924.58 1045.75 2924.58 1043.16 Q2924.58 1040.5 2922.68 1039.08 Q2920.81 1037.65 2917.29 1037.65 Q2915.37 1037.65 2913.17 1038.06 Q2910.97 1038.48 2908.33 1039.36 L2908.33 1035.19 Q2910.99 1034.45 2913.31 1034.08 Q2915.64 1033.71 2917.71 1033.71 Q2923.03 1033.71 2926.13 1036.14 Q2929.23 1038.55 2929.23 1042.67 Q2929.23 1045.54 2927.59 1047.53 Q2925.95 1049.5 2922.91 1050.26 Z" fill="#000000" fill-rule="evenodd" fill-opacity="1" /><path clip-path="url(#clip520)" d="M2948.91 1037.42 Q2945.3 1037.42 2943.47 1040.98 Q2941.66 1044.52 2941.66 1051.65 Q2941.66 1058.76 2943.47 1062.32 Q2945.3 1065.87 2948.91 1065.87 Q2952.54 1065.87 2954.35 1062.32 Q2956.18 1058.76 2956.18 1051.65 Q2956.18 1044.52 2954.35 1040.98 Q2952.54 1037.42 2948.91 1037.42 M2948.91 1033.71 Q2954.72 1033.71 2957.77 1038.32 Q2960.85 1042.9 2960.85 1051.65 Q2960.85 1060.38 2957.77 1064.99 Q2954.72 1069.57 2948.91 1069.57 Q2943.1 1069.57 2940.02 1064.99 Q2936.96 1060.38 2936.96 1051.65 Q2936.96 1042.9 2940.02 1038.32 Q2943.1 1033.71 2948.91 1033.71 Z" fill="#000000" fill-rule="evenodd" fill-opacity="1" /><path clip-path="url(#clip520)" d="M2979.07 1037.42 Q2975.46 1037.42 2973.63 1040.98 Q2971.83 1044.52 2971.83 1051.65 Q2971.83 1058.76 2973.63 1062.32 Q2975.46 1065.87 2979.07 1065.87 Q2982.7 1065.87 2984.51 1062.32 Q2986.34 1058.76 2986.34 1051.65 Q2986.34 1044.52 2984.51 1040.98 Q2982.7 1037.42 2979.07 1037.42 M2979.07 1033.71 Q2984.88 1033.71 2987.94 1038.32 Q2991.01 1042.9 2991.01 1051.65 Q2991.01 1060.38 2987.94 1064.99 Q2984.88 1069.57 2979.07 1069.57 Q2973.26 1069.57 2970.18 1064.99 Q2967.13 1060.38 2967.13 1051.65 Q2967.13 1042.9 2970.18 1038.32 Q2973.26 1033.71 2979.07 1033.71 Z" fill="#000000" fill-rule="evenodd" fill-opacity="1" /><path clip-path="url(#clip520)" d="M1556.64 1109.44 L1563.07 1109.44 L1563.07 1151.55 L1586.21 1151.55 L1586.21 1156.96 L1556.64 1156.96 L1556.64 1109.44 Z" fill="#000000" fill-rule="evenodd" fill-opacity="1" /><path clip-path="url(#clip520)" d="M1592.7 1121.31 L1598.56 1121.31 L1598.56 1156.96 L1592.7 1156.96 L1592.7 1121.31 M1592.7 1107.44 L1598.56 1107.44 L1598.56 1114.85 L1592.7 1114.85 L1592.7 1107.44 Z" fill="#000000" fill-rule="evenodd" fill-opacity="1" /><path clip-path="url(#clip520)" d="M1640.44 1135.45 L1640.44 1156.96 L1634.59 1156.96 L1634.59 1135.64 Q1634.59 1130.58 1632.61 1128.06 Q1630.64 1125.55 1626.69 1125.55 Q1621.95 1125.55 1619.21 1128.57 Q1616.48 1131.59 1616.48 1136.81 L1616.48 1156.96 L1610.59 1156.96 L1610.59 1121.31 L1616.48 1121.31 L1616.48 1126.85 Q1618.58 1123.64 1621.41 1122.05 Q1624.27 1120.45 1628 1120.45 Q1634.14 1120.45 1637.29 1124.27 Q1640.44 1128.06 1640.44 1135.45 Z" fill="#000000" fill-rule="evenodd" fill-opacity="1" /><path clip-path="url(#clip520)" d="M1682.62 1137.67 L1682.62 1140.54 L1655.69 1140.54 Q1656.07 1146.59 1659.32 1149.77 Q1662.6 1152.92 1668.42 1152.92 Q1671.79 1152.92 1674.95 1152.09 Q1678.13 1151.26 1681.25 1149.61 L1681.25 1155.15 Q1678.1 1156.48 1674.79 1157.18 Q1671.48 1157.88 1668.07 1157.88 Q1659.54 1157.88 1654.54 1152.92 Q1649.58 1147.95 1649.58 1139.49 Q1649.58 1130.74 1654.29 1125.61 Q1659.03 1120.45 1667.05 1120.45 Q1674.25 1120.45 1678.42 1125.1 Q1682.62 1129.72 1682.62 1137.67 M1676.76 1135.95 Q1676.7 1131.15 1674.05 1128.28 Q1671.44 1125.42 1667.12 1125.42 Q1662.21 1125.42 1659.25 1128.19 Q1656.33 1130.96 1655.88 1135.99 L1676.76 1135.95 Z" fill="#000000" fill-rule="evenodd" fill-opacity="1" /><path clip-path="url(#clip520)" d="M1708.43 1139.04 Q1701.33 1139.04 1698.59 1140.67 Q1695.86 1142.29 1695.86 1146.2 Q1695.86 1149.32 1697.89 1151.17 Q1699.96 1152.98 1703.5 1152.98 Q1708.37 1152.98 1711.29 1149.55 Q1714.25 1146.08 1714.25 1140.35 L1714.25 1139.04 L1708.43 1139.04 M1720.11 1136.62 L1720.11 1156.96 L1714.25 1156.96 L1714.25 1151.55 Q1712.25 1154.8 1709.26 1156.36 Q1706.27 1157.88 1701.94 1157.88 Q1696.46 1157.88 1693.22 1154.83 Q1690 1151.74 1690 1146.59 Q1690 1140.57 1694.01 1137.51 Q1698.05 1134.46 1706.04 1134.46 L1714.25 1134.46 L1714.25 1133.89 Q1714.25 1129.84 1711.58 1127.65 Q1708.94 1125.42 1704.13 1125.42 Q1701.08 1125.42 1698.18 1126.15 Q1695.28 1126.88 1692.61 1128.35 L1692.61 1122.94 Q1695.83 1121.7 1698.85 1121.09 Q1701.87 1120.45 1704.74 1120.45 Q1712.47 1120.45 1716.29 1124.46 Q1720.11 1128.48 1720.11 1136.62 Z" fill="#000000" fill-rule="evenodd" fill-opacity="1" /><path clip-path="url(#clip520)" d="M1755.63 1138.72 Q1755.63 1132.36 1752.99 1128.86 Q1750.38 1125.36 1745.64 1125.36 Q1740.93 1125.36 1738.28 1128.86 Q1735.67 1132.36 1735.67 1138.72 Q1735.67 1145.06 1738.28 1148.56 Q1740.93 1152.06 1745.64 1152.06 Q1750.38 1152.06 1752.99 1148.56 Q1755.63 1145.06 1755.63 1138.72 M1761.49 1152.54 Q1761.49 1161.64 1757.45 1166.06 Q1753.4 1170.52 1745.06 1170.52 Q1741.98 1170.52 1739.24 1170.04 Q1736.5 1169.6 1733.92 1168.64 L1733.92 1162.95 Q1736.5 1164.35 1739.02 1165.01 Q1741.53 1165.68 1744.14 1165.68 Q1749.9 1165.68 1752.77 1162.66 Q1755.63 1159.67 1755.63 1153.59 L1755.63 1150.69 Q1753.82 1153.84 1750.98 1155.4 Q1748.15 1156.96 1744.2 1156.96 Q1737.65 1156.96 1733.64 1151.96 Q1729.63 1146.97 1729.63 1138.72 Q1729.63 1130.45 1733.64 1125.45 Q1737.65 1120.45 1744.2 1120.45 Q1748.15 1120.45 1750.98 1122.01 Q1753.82 1123.57 1755.63 1126.72 L1755.63 1121.31 L1761.49 1121.31 L1761.49 1152.54 Z" fill="#000000" fill-rule="evenodd" fill-opacity="1" /><path clip-path="url(#clip520)" d="M1804.04 1137.67 L1804.04 1140.54 L1777.12 1140.54 Q1777.5 1146.59 1780.74 1149.77 Q1784.02 1152.92 1789.85 1152.92 Q1793.22 1152.92 1796.37 1152.09 Q1799.55 1151.26 1802.67 1149.61 L1802.67 1155.15 Q1799.52 1156.48 1796.21 1157.18 Q1792.9 1157.88 1789.5 1157.88 Q1780.97 1157.88 1775.97 1152.92 Q1771 1147.95 1771 1139.49 Q1771 1130.74 1775.71 1125.61 Q1780.46 1120.45 1788.48 1120.45 Q1795.67 1120.45 1799.84 1125.1 Q1804.04 1129.72 1804.04 1137.67 M1798.19 1135.95 Q1798.12 1131.15 1795.48 1128.28 Q1792.87 1125.42 1788.54 1125.42 Q1783.64 1125.42 1780.68 1128.19 Q1777.75 1130.96 1777.31 1135.99 L1798.19 1135.95 Z" fill="#000000" fill-rule="evenodd" fill-opacity="1" /><polyline clip-path="url(#clip522)" style="stroke:#000000; stroke-linecap:round; stroke-linejoin:round; stroke-width:2; stroke-opacity:0.1; fill:none" points="
  270.918,1000.1 3089.76,1000.1 
  "/>
<polyline clip-path="url(#clip522)" style="stroke:#000000; stroke-linecap:round; stroke-linejoin:round; stroke-width:2; stroke-opacity:0.1; fill:none" points="
  270.918,670.805 3089.76,670.805 
  "/>
<polyline clip-path="url(#clip522)" style="stroke:#000000; stroke-linecap:round; stroke-linejoin:round; stroke-width:2; stroke-opacity:0.1; fill:none" points="
  270.918,341.512 3089.76,341.512 
  "/>
<polyline clip-path="url(#clip520)" style="stroke:#000000; stroke-linecap:round; stroke-linejoin:round; stroke-width:4; stroke-opacity:1; fill:none" points="
  270.918,1000.1 270.918,110.236 
  "/>
<polyline clip-path="url(#clip520)" style="stroke:#000000; stroke-linecap:round; stroke-linejoin:round; stroke-width:4; stroke-opacity:1; fill:none" points="
  270.918,1000.1 289.815,1000.1 
  "/>
<polyline clip-path="url(#clip520)" style="stroke:#000000; stroke-linecap:round; stroke-linejoin:round; stroke-width:4; stroke-opacity:1; fill:none" points="
  270.918,670.805 289.815,670.805 
  "/>
<polyline clip-path="url(#clip520)" style="stroke:#000000; stroke-linecap:round; stroke-linejoin:round; stroke-width:4; stroke-opacity:1; fill:none" points="
  270.918,341.512 289.815,341.512 
  "/>
<path clip-path="url(#clip520)" d="M154.902 1019.89 L162.54 1019.89 L162.54 993.525 L154.23 995.191 L154.23 990.932 L162.494 989.265 L167.17 989.265 L167.17 1019.89 L174.809 1019.89 L174.809 1023.83 L154.902 1023.83 L154.902 1019.89 Z" fill="#000000" fill-rule="evenodd" fill-opacity="1" /><path clip-path="url(#clip520)" d="M194.253 992.344 Q190.642 992.344 188.813 995.909 Q187.008 999.45 187.008 1006.58 Q187.008 1013.69 188.813 1017.25 Q190.642 1020.79 194.253 1020.79 Q197.887 1020.79 199.693 1017.25 Q201.522 1013.69 201.522 1006.58 Q201.522 999.45 199.693 995.909 Q197.887 992.344 194.253 992.344 M194.253 988.64 Q200.063 988.64 203.119 993.247 Q206.198 997.83 206.198 1006.58 Q206.198 1015.31 203.119 1019.91 Q200.063 1024.5 194.253 1024.5 Q188.443 1024.5 185.364 1019.91 Q182.309 1015.31 182.309 1006.58 Q182.309 997.83 185.364 993.247 Q188.443 988.64 194.253 988.64 Z" fill="#000000" fill-rule="evenodd" fill-opacity="1" /><path clip-path="url(#clip520)" d="M206.743 993.218 L212.95 993.218 L212.95 971.796 L206.198 973.15 L206.198 969.689 L212.912 968.335 L216.711 968.335 L216.711 993.218 L222.918 993.218 L222.918 996.415 L206.743 996.415 L206.743 993.218 Z" fill="#000000" fill-rule="evenodd" fill-opacity="1" /><path clip-path="url(#clip520)" d="M153.792 690.597 L161.431 690.597 L161.431 664.232 L153.121 665.898 L153.121 661.639 L161.384 659.972 L166.06 659.972 L166.06 690.597 L173.699 690.597 L173.699 694.532 L153.792 694.532 L153.792 690.597 Z" fill="#000000" fill-rule="evenodd" fill-opacity="1" /><path clip-path="url(#clip520)" d="M193.143 663.051 Q189.532 663.051 187.704 666.616 Q185.898 670.158 185.898 677.287 Q185.898 684.394 187.704 687.958 Q189.532 691.5 193.143 691.5 Q196.778 691.5 198.583 687.958 Q200.412 684.394 200.412 677.287 Q200.412 670.158 198.583 666.616 Q196.778 663.051 193.143 663.051 M193.143 659.347 Q198.954 659.347 202.009 663.954 Q205.088 668.537 205.088 677.287 Q205.088 686.014 202.009 690.62 Q198.954 695.204 193.143 695.204 Q187.333 695.204 184.255 690.62 Q181.199 686.014 181.199 677.287 Q181.199 668.537 184.255 663.954 Q187.333 659.347 193.143 659.347 Z" fill="#000000" fill-rule="evenodd" fill-opacity="1" /><path clip-path="url(#clip520)" d="M209.658 663.925 L222.918 663.925 L222.918 667.122 L205.088 667.122 L205.088 663.925 Q207.251 661.687 210.975 657.925 Q214.717 654.145 215.677 653.054 Q217.501 651.004 218.216 649.593 Q218.949 648.164 218.949 646.791 Q218.949 644.553 217.369 643.142 Q215.808 641.732 213.288 641.732 Q211.501 641.732 209.508 642.352 Q207.533 642.973 205.276 644.233 L205.276 640.396 Q207.57 639.475 209.564 639.004 Q211.558 638.534 213.213 638.534 Q217.576 638.534 220.172 640.716 Q222.767 642.898 222.767 646.546 Q222.767 648.277 222.109 649.838 Q221.469 651.38 219.758 653.486 Q219.288 654.032 216.767 656.646 Q214.247 659.242 209.658 663.925 Z" fill="#000000" fill-rule="evenodd" fill-opacity="1" /><path clip-path="url(#clip520)" d="M153.134 361.304 L160.772 361.304 L160.772 334.939 L152.462 336.605 L152.462 332.346 L160.726 330.68 L165.402 330.68 L165.402 361.304 L173.041 361.304 L173.041 365.24 L153.134 365.24 L153.134 361.304 Z" fill="#000000" fill-rule="evenodd" fill-opacity="1" /><path clip-path="url(#clip520)" d="M192.485 333.758 Q188.874 333.758 187.045 337.323 Q185.24 340.865 185.24 347.994 Q185.24 355.101 187.045 358.665 Q188.874 362.207 192.485 362.207 Q196.119 362.207 197.925 358.665 Q199.754 355.101 199.754 347.994 Q199.754 340.865 197.925 337.323 Q196.119 333.758 192.485 333.758 M192.485 330.055 Q198.295 330.055 201.351 334.661 Q204.43 339.244 204.43 347.994 Q204.43 356.721 201.351 361.327 Q198.295 365.911 192.485 365.911 Q186.675 365.911 183.596 361.327 Q180.541 356.721 180.541 347.994 Q180.541 339.244 183.596 334.661 Q186.675 330.055 192.485 330.055 Z" fill="#000000" fill-rule="evenodd" fill-opacity="1" /><path clip-path="url(#clip520)" d="M217.125 322.689 Q219.852 323.272 221.375 325.115 Q222.918 326.958 222.918 329.667 Q222.918 333.823 220.059 336.099 Q217.2 338.375 211.934 338.375 Q210.166 338.375 208.285 338.017 Q206.423 337.679 204.43 336.983 L204.43 333.315 Q206.009 334.237 207.89 334.707 Q209.771 335.177 211.821 335.177 Q215.395 335.177 217.256 333.767 Q219.137 332.356 219.137 329.667 Q219.137 327.184 217.388 325.792 Q215.658 324.382 212.555 324.382 L209.282 324.382 L209.282 321.259 L212.705 321.259 Q215.507 321.259 216.993 320.15 Q218.479 319.021 218.479 316.915 Q218.479 314.752 216.937 313.605 Q215.413 312.439 212.555 312.439 Q210.994 312.439 209.207 312.777 Q207.42 313.116 205.276 313.83 L205.276 310.445 Q207.439 309.843 209.32 309.542 Q211.219 309.241 212.893 309.241 Q217.219 309.241 219.739 311.216 Q222.259 313.172 222.259 316.52 Q222.259 318.852 220.924 320.47 Q219.589 322.068 217.125 322.689 Z" fill="#000000" fill-rule="evenodd" fill-opacity="1" /><path clip-path="url(#clip520)" d="M42.6863 847.369 L42.6863 817.323 L48.0971 817.323 L48.0971 840.939 L62.1653 840.939 L62.1653 818.309 L67.5762 818.309 L67.5762 840.939 L84.7954 840.939 L84.7954 816.75 L90.2063 816.75 L90.2063 847.369 L42.6863 847.369 Z" fill="#000000" fill-rule="evenodd" fill-opacity="1" /><path clip-path="url(#clip520)" d="M44.2459 777.696 L50.5161 777.696 Q48.7655 781.356 47.9062 784.603 Q47.0468 787.849 47.0468 790.873 Q47.0468 796.125 49.0838 798.989 Q51.1208 801.822 54.8766 801.822 Q58.0276 801.822 59.6509 799.944 Q61.2423 798.035 62.229 792.751 L63.0247 788.868 Q64.3933 781.675 67.8627 778.269 Q71.3001 774.832 77.0929 774.832 Q83.9997 774.832 87.5645 779.479 Q91.1293 784.094 91.1293 793.038 Q91.1293 796.411 90.3654 800.231 Q89.6015 804.018 88.1056 808.092 L81.4853 808.092 Q83.6814 804.177 84.7954 800.422 Q85.9094 796.666 85.9094 793.038 Q85.9094 787.531 83.7451 784.539 Q81.5808 781.547 77.5704 781.547 Q74.0692 781.547 72.0958 783.712 Q70.1225 785.844 69.1358 790.746 L68.3719 794.661 Q66.9396 801.854 63.8841 805.069 Q60.8285 808.283 55.3859 808.283 Q49.0838 808.283 45.4554 803.859 Q41.8269 799.403 41.8269 791.605 Q41.8269 788.263 42.4317 784.794 Q43.0364 781.325 44.2459 777.696 Z" fill="#000000" fill-rule="evenodd" fill-opacity="1" /><path clip-path="url(#clip520)" d="M44.2459 736.319 L50.5161 736.319 Q48.7655 739.979 47.9062 743.226 Q47.0468 746.472 47.0468 749.496 Q47.0468 754.748 49.0838 757.612 Q51.1208 760.445 54.8766 760.445 Q58.0276 760.445 59.6509 758.567 Q61.2423 756.657 62.229 751.374 L63.0247 747.491 Q64.3933 740.298 67.8627 736.892 Q71.3001 733.454 77.0929 733.454 Q83.9997 733.454 87.5645 738.101 Q91.1293 742.717 91.1293 751.66 Q91.1293 755.034 90.3654 758.854 Q89.6015 762.641 88.1056 766.715 L81.4853 766.715 Q83.6814 762.8 84.7954 759.045 Q85.9094 755.289 85.9094 751.66 Q85.9094 746.154 83.7451 743.162 Q81.5808 740.17 77.5704 740.17 Q74.0692 740.17 72.0958 742.335 Q70.1225 744.467 69.1358 749.369 L68.3719 753.284 Q66.9396 760.477 63.8841 763.692 Q60.8285 766.906 55.3859 766.906 Q49.0838 766.906 45.4554 762.482 Q41.8269 758.026 41.8269 750.228 Q41.8269 746.886 42.4317 743.417 Q43.0364 739.948 44.2459 736.319 Z" fill="#000000" fill-rule="evenodd" fill-opacity="1" /><path clip-path="url(#clip520)" d="M82.1218 722.187 L82.1218 715.471 L90.2063 715.471 L90.2063 722.187 L82.1218 722.187 M56.4999 722.187 L56.4999 715.471 L64.5843 715.471 L64.5843 722.187 L56.4999 722.187 Z" fill="#000000" fill-rule="evenodd" fill-opacity="1" /><path clip-path="url(#clip520)" d="M42.6863 681.479 L42.6863 675.017 L71.5548 675.017 Q79.1936 675.017 82.5674 672.248 Q85.9094 669.479 85.9094 663.273 Q85.9094 657.098 82.5674 654.329 Q79.1936 651.56 71.5548 651.56 L42.6863 651.56 L42.6863 645.098 L72.3505 645.098 Q81.6444 645.098 86.3869 649.714 Q91.1293 654.297 91.1293 663.273 Q91.1293 672.28 86.3869 676.895 Q81.6444 681.479 72.3505 681.479 L42.6863 681.479 Z" fill="#000000" fill-rule="evenodd" fill-opacity="1" /><path clip-path="url(#clip520)" d="M44.2459 604.549 L50.5161 604.549 Q48.7655 608.209 47.9062 611.456 Q47.0468 614.702 47.0468 617.726 Q47.0468 622.978 49.0838 625.842 Q51.1208 628.675 54.8766 628.675 Q58.0276 628.675 59.6509 626.797 Q61.2423 624.887 62.229 619.604 L63.0247 615.721 Q64.3933 608.528 67.8627 605.122 Q71.3001 601.684 77.0929 601.684 Q83.9997 601.684 87.5645 606.331 Q91.1293 610.946 91.1293 619.89 Q91.1293 623.264 90.3654 627.084 Q89.6015 630.871 88.1056 634.945 L81.4853 634.945 Q83.6814 631.03 84.7954 627.275 Q85.9094 623.519 85.9094 619.89 Q85.9094 614.384 83.7451 611.392 Q81.5808 608.4 77.5704 608.4 Q74.0692 608.4 72.0958 610.565 Q70.1225 612.697 69.1358 617.599 L68.3719 621.514 Q66.9396 628.707 63.8841 631.921 Q60.8285 635.136 55.3859 635.136 Q49.0838 635.136 45.4554 630.712 Q41.8269 626.256 41.8269 618.458 Q41.8269 615.116 42.4317 611.647 Q43.0364 608.177 44.2459 604.549 Z" fill="#000000" fill-rule="evenodd" fill-opacity="1" /><path clip-path="url(#clip520)" d="M49.0202 574.566 L72.6688 583.287 L72.6688 565.814 L49.0202 574.566 M42.6863 578.195 L42.6863 570.906 L90.2063 552.796 L90.2063 559.48 L78.016 563.808 L78.016 585.229 L90.2063 589.558 L90.2063 596.337 L42.6863 578.195 Z" fill="#000000" fill-rule="evenodd" fill-opacity="1" /><path clip-path="url(#clip520)" d="M82.1218 544.616 L82.1218 537.9 L87.5963 537.9 L97.7815 543.12 L97.7815 547.226 L87.5963 544.616 L82.1218 544.616 Z" fill="#000000" fill-rule="evenodd" fill-opacity="1" /><path clip-path="url(#clip520)" d="M44.4369 498.878 L54.5583 498.878 L54.5583 486.815 L59.1098 486.815 L59.1098 498.878 L78.4616 498.878 Q82.8221 498.878 84.0634 497.701 Q85.3047 496.491 85.3047 492.831 L85.3047 486.815 L90.2063 486.815 L90.2063 492.831 Q90.2063 499.61 87.6918 502.188 Q85.1455 504.766 78.4616 504.766 L59.1098 504.766 L59.1098 509.063 L54.5583 509.063 L54.5583 504.766 L44.4369 504.766 L44.4369 498.878 Z" fill="#000000" fill-rule="evenodd" fill-opacity="1" /><path clip-path="url(#clip520)" d="M54.5583 479.113 L54.5583 473.256 L90.2063 473.256 L90.2063 479.113 L54.5583 479.113 M40.6811 479.113 L40.6811 473.256 L48.0971 473.256 L48.0971 479.113 L40.6811 479.113 Z" fill="#000000" fill-rule="evenodd" fill-opacity="1" /><path clip-path="url(#clip520)" d="M61.4015 433.248 Q57.4547 431.052 55.5768 427.996 Q53.699 424.941 53.699 420.803 Q53.699 415.233 57.6139 412.209 Q61.4969 409.185 68.6902 409.185 L90.2063 409.185 L90.2063 415.074 L68.8812 415.074 Q63.7568 415.074 61.2741 416.888 Q58.7915 418.702 58.7915 422.426 Q58.7915 426.978 61.8152 429.619 Q64.8389 432.261 70.0588 432.261 L90.2063 432.261 L90.2063 438.149 L68.8812 438.149 Q63.7249 438.149 61.2741 439.964 Q58.7915 441.778 58.7915 445.565 Q58.7915 450.053 61.8471 452.695 Q64.8708 455.337 70.0588 455.337 L90.2063 455.337 L90.2063 461.225 L54.5583 461.225 L54.5583 455.337 L60.0965 455.337 Q56.8182 453.332 55.2586 450.531 Q53.699 447.73 53.699 443.879 Q53.699 439.995 55.6723 437.29 Q57.6457 434.553 61.4015 433.248 Z" fill="#000000" fill-rule="evenodd" fill-opacity="1" /><path clip-path="url(#clip520)" d="M70.9182 367.013 L73.7828 367.013 L73.7828 393.94 Q79.8302 393.558 83.013 390.311 Q86.1641 387.033 86.1641 381.208 Q86.1641 377.834 85.3365 374.683 Q84.509 371.5 82.8539 368.381 L88.3921 368.381 Q89.7289 371.532 90.4291 374.842 Q91.1293 378.153 91.1293 381.558 Q91.1293 390.088 86.1641 395.085 Q81.1988 400.051 72.7324 400.051 Q63.9796 400.051 58.8552 395.34 Q53.699 390.598 53.699 382.577 Q53.699 375.383 58.3459 371.214 Q62.9611 367.013 70.9182 367.013 M69.1995 372.869 Q64.3933 372.933 61.5288 375.574 Q58.6642 378.184 58.6642 382.513 Q58.6642 387.415 61.4333 390.375 Q64.2024 393.303 69.2313 393.749 L69.1995 372.869 Z" fill="#000000" fill-rule="evenodd" fill-opacity="1" /><path clip-path="url(#clip520)" d="M82.1218 355.904 L82.1218 349.189 L90.2063 349.189 L90.2063 355.904 L82.1218 355.904 M56.4999 355.904 L56.4999 349.189 L64.5843 349.189 L64.5843 355.904 L56.4999 355.904 Z" fill="#000000" fill-rule="evenodd" fill-opacity="1" /><path clip-path="url(#clip520)" d="M42.6863 334.547 L42.6863 309.307 L48.0971 309.307 L48.0971 328.659 L59.7464 328.659 Q59.2689 327.259 59.0461 325.858 Q58.7915 324.458 58.7915 323.057 Q58.7915 315.1 63.152 310.453 Q67.5125 305.806 74.9604 305.806 Q82.6311 305.806 86.8961 310.581 Q91.1293 315.355 91.1293 324.044 Q91.1293 327.036 90.6201 330.155 Q90.1108 333.243 89.0923 336.553 L82.6311 336.553 Q84.1907 333.688 84.9546 330.633 Q85.7185 327.577 85.7185 324.171 Q85.7185 318.665 82.8221 315.45 Q79.9257 312.236 74.9604 312.236 Q69.9952 312.236 67.0988 315.45 Q64.2024 318.665 64.2024 324.171 Q64.2024 326.75 64.7753 329.328 Q65.3482 331.874 66.5577 334.547 L42.6863 334.547 Z" fill="#000000" fill-rule="evenodd" fill-opacity="1" /><path clip-path="url(#clip520)" d="M46.9195 279.389 Q46.9195 284.354 51.8211 286.868 Q56.6908 289.351 66.494 289.351 Q76.2654 289.351 81.167 286.868 Q86.0367 284.354 86.0367 279.389 Q86.0367 274.392 81.167 271.909 Q76.2654 269.394 66.494 269.394 Q56.6908 269.394 51.8211 271.909 Q46.9195 274.392 46.9195 279.389 M41.8269 279.389 Q41.8269 271.4 48.1608 267.198 Q54.4628 262.965 66.494 262.965 Q78.4934 262.965 84.8273 267.198 Q91.1293 271.4 91.1293 279.389 Q91.1293 287.378 84.8273 291.611 Q78.4934 295.812 66.494 295.812 Q54.4628 295.812 48.1608 291.611 Q41.8269 287.378 41.8269 279.389 Z" fill="#000000" fill-rule="evenodd" fill-opacity="1" /><polyline clip-path="url(#clip522)" style="stroke:#009af9; stroke-linecap:round; stroke-linejoin:round; stroke-width:4; stroke-opacity:1; fill:none" points="
  350.696,496.433 359.387,205.435 368.077,236.143 376.768,183.418 385.458,139.915 394.149,188.723 402.839,173.628 411.53,166.758 420.22,189.165 428.911,158 
  437.601,184.303 446.292,153.569 454.982,187.976 463.673,113.673 472.363,145.763 481.054,166.145 489.744,190.868 498.435,202.795 507.125,199.638 515.816,151.645 
  524.506,223.72 533.197,148.724 541.887,204.849 550.577,175.313 559.268,206.498 567.958,177.876 576.649,198.617 585.339,206.648 594.03,183.715 602.72,208.726 
  611.411,219.06 620.101,214.89 628.792,200.928 637.482,213.661 646.173,152.254 654.863,159.922 663.554,205.357 672.244,226.708 680.935,157.482 689.625,209.172 
  698.316,171.141 707.006,205.015 715.697,218.228 724.387,221.274 733.078,134.633 741.768,218.718 750.459,110.236 759.149,213.976 767.84,177.675 776.53,200.634 
  785.221,211.857 793.911,169.496 802.602,227.313 811.292,226.603 819.983,230.696 828.673,210.61 837.364,153.379 846.054,190.226 854.745,146.673 863.435,211.684 
  872.125,236.324 880.816,178.076 889.506,220.57 898.197,222.847 906.887,160.611 915.578,215.301 924.268,214.652 932.959,112.779 941.649,220.605 950.34,225.078 
  959.03,211.425 967.721,223.277 976.411,190.499 985.102,218.346 993.792,198.302 1002.48,229.602 1011.17,206.808 1019.86,118.082 1028.55,184.183 1037.24,146.139 
  1045.94,195.991 1054.63,211.684 1063.32,153.209 1072.01,208.729 1080.7,169.937 1089.39,199.653 1098.08,177.082 1106.77,168.377 1115.46,200.362 1124.15,171.225 
  1132.84,160.871 1141.53,219.082 1150.22,206.498 1158.91,180.538 1167.6,212.745 1176.29,182.446 1184.98,184.541 1193.67,159.559 1202.36,218.405 1211.05,201.44 
  1219.74,182.08 1228.44,238.404 1237.13,221.306 1245.82,191.717 1254.51,214.84 1263.2,174.209 1271.89,164.781 1280.58,140.407 1289.27,197.923 1297.96,227.927 
  1306.65,208.24 1315.34,221.567 1324.03,202.122 1332.72,161.148 1341.41,206.662 1350.1,207 1358.79,143.86 1367.48,193.357 1376.17,213.861 1384.86,219.428 
  1393.55,213.167 1402.25,221.896 1410.94,205.452 1419.63,220.194 1428.32,122.095 1437.01,209.405 1445.7,121.049 1454.39,130.15 1463.08,145.965 1471.77,175.743 
  1480.46,216.68 1489.15,206.705 1497.84,201.25 1506.53,190.57 1515.22,177.244 1523.91,172.29 1532.6,163.792 1541.29,161.844 1549.98,233.762 1558.67,202.606 
  1567.36,170.294 1576.05,205.807 1584.75,120.668 1593.44,194.181 1602.13,153.094 1610.82,215.246 1619.51,157.678 1628.2,228.408 1636.89,219.971 1645.58,223.907 
  1654.27,213.866 1662.96,206.868 1671.65,168.817 1680.34,182.596 1689.03,144.251 1697.72,155.89 1706.41,140.767 1715.1,221.333 1723.79,119.937 1732.48,192.81 
  1741.17,213.895 1749.86,181.133 1758.56,206.792 1767.25,117.766 1775.94,145.688 1784.63,160.789 1793.32,189.357 1802.01,156.992 1810.7,144.001 1819.39,210.153 
  1828.08,213.84 1836.77,165.538 1845.46,202.735 1854.15,134.862 1862.84,224.548 1871.53,222.093 1880.22,172.106 1888.91,181.442 1897.6,202.814 1906.29,195.165 
  1914.98,223.988 1923.67,225.563 1932.36,206.447 1941.06,206.981 1949.75,168.05 1958.44,209.676 1967.13,208.865 1975.82,170.824 1984.51,151.642 1993.2,153.714 
  2001.89,159.589 2010.58,161.808 2019.27,181.579 2027.96,172.455 2036.65,156.608 2045.34,141.54 2054.03,179.36 2062.72,190.059 2071.41,208.905 2080.1,221.077 
  2088.79,177.113 2097.48,149.55 2106.17,167.008 2114.87,150.902 2123.56,205.021 2132.25,146.058 2140.94,158.008 2149.63,157.103 2158.32,148.918 2167.01,207.345 
  2175.7,194.303 2184.39,163.288 2193.08,188.869 2201.77,184.727 2210.46,189.812 2219.15,190.85 2227.84,119.198 2236.53,158.321 2245.22,157.947 2253.91,171.542 
  2262.6,203.986 2271.29,202.135 2279.98,196.342 2288.67,203.506 2297.37,201.005 2306.06,198.284 2314.75,175.178 2323.44,144.271 2332.13,185.398 2340.82,122.536 
  2349.51,221.451 2358.2,191.242 2366.89,152.196 2375.58,155.014 2384.27,201.936 2392.96,191.944 2401.65,166.634 2410.34,192.892 2419.03,202.155 2427.72,190.839 
  2436.41,156.528 2445.1,155.127 2453.79,230.582 2462.48,214.653 2471.17,208.766 2479.87,152.391 2488.56,152.813 2497.25,140.288 2505.94,153.514 2514.63,213.093 
  2523.32,215.36 2532.01,190.97 2540.7,171.149 2549.39,125.252 2558.08,130.212 2566.77,203.765 2575.46,161.977 2584.15,176.63 2592.84,210.504 2601.53,203.483 
  2610.22,217.296 2618.91,172.954 2627.6,187.668 2636.29,129.045 2644.98,214.544 2653.68,222.156 2662.37,213.893 2671.06,138.864 2679.75,177.626 2688.44,157.559 
  2697.13,198.134 2705.82,198.614 2714.51,179.269 2723.2,176.591 2731.89,163.783 2740.58,121.641 2749.27,207.36 2757.96,206.153 2766.65,200.214 2775.34,220.126 
  2784.03,226.013 2792.72,167.722 2801.41,158.715 2810.1,167.082 2818.79,191.127 2827.48,150.876 2836.18,190.506 2844.87,140.591 2853.56,227.986 2862.25,174.225 
  2870.94,141.78 2879.63,158.54 2888.32,156.867 2897.01,210.119 2905.7,168.927 2914.39,157.641 2923.08,169.368 2931.77,181.14 2940.46,177.739 2949.15,175.79 
  2957.84,201.378 2966.53,149.908 2975.22,184.425 2983.91,185.153 2992.6,205.319 3001.29,180.609 3009.99,140.698 
  "/>
</svg>
