<?xml version="1.0" encoding="utf-8"?>
<svg xmlns="http://www.w3.org/2000/svg" xmlns:xlink="http://www.w3.org/1999/xlink" width="800" height="300" viewBox="0 0 3200 1200">
<defs>
  <clipPath id="clip000">
    <rect x="0" y="0" width="3200" height="1200"/>
  </clipPath>
</defs>
<path clip-path="url(#clip000)" d="M0 1200 L3200 1200 L3200 0 L0 0  Z" fill="#ffffff" fill-rule="evenodd" fill-opacity="1"/>
<defs>
  <clipPath id="clip001">
    <rect x="640" y="0" width="2241" height="1200"/>
  </clipPath>
</defs>
<path clip-path="url(#clip000)" d="M270.918 1000.1 L3089.76 1000.1 L3089.76 110.236 L270.918 110.236  Z" fill="#ffffff" fill-rule="evenodd" fill-opacity="1"/>
<defs>
  <clipPath id="clip002">
    <rect x="270" y="110" width="2820" height="891"/>
  </clipPath>
</defs>
<polyline clip-path="url(#clip002)" style="stroke:#000000; stroke-linecap:round; stroke-linejoin:round; stroke-width:2; stroke-opacity:0.1; fill:none" points="329.422,1000.1 329.422,110.236 "/>
<polyline clip-path="url(#clip002)" style="stroke:#000000; stroke-linecap:round; stroke-linejoin:round; stroke-width:2; stroke-opacity:0.1; fill:none" points="754.908,1000.1 754.908,110.236 "/>
<polyline clip-path="url(#clip002)" style="stroke:#000000; stroke-linecap:round; stroke-linejoin:round; stroke-width:2; stroke-opacity:0.1; fill:none" points="1180.39,1000.1 1180.39,110.236 "/>
<polyline clip-path="url(#clip002)" style="stroke:#000000; stroke-linecap:round; stroke-linejoin:round; stroke-width:2; stroke-opacity:0.1; fill:none" points="1605.88,1000.1 1605.88,110.236 "/>
<polyline clip-path="url(#clip002)" style="stroke:#000000; stroke-linecap:round; stroke-linejoin:round; stroke-width:2; stroke-opacity:0.1; fill:none" points="2031.37,1000.1 2031.37,110.236 "/>
<polyline clip-path="url(#clip002)" style="stroke:#000000; stroke-linecap:round; stroke-linejoin:round; stroke-width:2; stroke-opacity:0.1; fill:none" points="2456.85,1000.1 2456.85,110.236 "/>
<polyline clip-path="url(#clip002)" style="stroke:#000000; stroke-linecap:round; stroke-linejoin:round; stroke-width:2; stroke-opacity:0.1; fill:none" points="2882.34,1000.1 2882.34,110.236 "/>
<polyline clip-path="url(#clip000)" style="stroke:#000000; stroke-linecap:round; stroke-linejoin:round; stroke-width:4; stroke-opacity:1; fill:none" points="270.918,1000.1 3089.76,1000.1 "/>
<polyline clip-path="url(#clip000)" style="stroke:#000000; stroke-linecap:round; stroke-linejoin:round; stroke-width:4; stroke-opacity:1; fill:none" points="329.422,1000.1 329.422,981.2 "/>
<polyline clip-path="url(#clip000)" style="stroke:#000000; stroke-linecap:round; stroke-linejoin:round; stroke-width:4; stroke-opacity:1; fill:none" points="754.908,1000.1 754.908,981.2 "/>
<polyline clip-path="url(#clip000)" style="stroke:#000000; stroke-linecap:round; stroke-linejoin:round; stroke-width:4; stroke-opacity:1; fill:none" points="1180.39,1000.1 1180.39,981.2 "/>
<polyline clip-path="url(#clip000)" style="stroke:#000000; stroke-linecap:round; stroke-linejoin:round; stroke-width:4; stroke-opacity:1; fill:none" points="1605.88,1000.1 1605.88,981.2 "/>
<polyline clip-path="url(#clip000)" style="stroke:#000000; stroke-linecap:round; stroke-linejoin:round; stroke-width:4; stroke-opacity:1; fill:none" points="2031.37,1000.1 2031.37,981.2 "/>
<polyline clip-path="url(#clip000)" style="stroke:#000000; stroke-linecap:round; stroke-linejoin:round; stroke-width:4; stroke-opacity:1; fill:none" points="2456.85,1000.1 2456.85,981.2 "/>
<polyline clip-path="url(#clip000)" style="stroke:#000000; stroke-linecap:round; stroke-linejoin:round; stroke-width:4; stroke-opacity:1; fill:none" points="2882.34,1000.1 2882.34,981.2 "/>
<path clip-path="url(#clip000)" d="M329.422 1037.42 Q325.811 1037.42 323.982 1040.98 Q322.177 1044.52 322.177 1051.65 Q322.177 1058.76 323.982 1062.32 Q325.811 1065.87 329.422 1065.87 Q333.056 1065.87 334.862 1062.32 Q336.69 1058.76 336.69 1051.65 Q336.69 1044.52 334.862 1040.98 Q333.056 1037.42 329.422 1037.42 M329.422 1033.71 Q335.232 1033.71 338.288 1038.32 Q341.366 1042.9 341.366 1051.65 Q341.366 1060.38 338.288 1064.99 Q335.232 1069.57 329.422 1069.57 Q323.612 1069.57 320.533 1064.99 Q317.478 1060.38 317.478 1051.65 Q317.478 1042.9 320.533 1038.32 Q323.612 1033.71 329.422 1033.71 Z" fill="#000000" fill-rule="nonzero" fill-opacity="1" /><path clip-path="url(#clip000)" d="M733.681 1064.96 L750.001 1064.96 L750.001 1068.9 L728.056 1068.9 L728.056 1064.96 Q730.719 1062.21 735.302 1057.58 Q739.908 1052.93 741.089 1051.58 Q743.334 1049.06 744.214 1047.32 Q745.117 1045.56 745.117 1043.87 Q745.117 1041.12 743.172 1039.38 Q741.251 1037.65 738.149 1037.65 Q735.95 1037.65 733.496 1038.41 Q731.066 1039.18 728.288 1040.73 L728.288 1036 Q731.112 1034.87 733.566 1034.29 Q736.019 1033.71 738.056 1033.71 Q743.427 1033.71 746.621 1036.4 Q749.816 1039.08 749.816 1043.57 Q749.816 1045.7 749.005 1047.62 Q748.218 1049.52 746.112 1052.12 Q745.533 1052.79 742.431 1056 Q739.33 1059.2 733.681 1064.96 Z" fill="#000000" fill-rule="nonzero" fill-opacity="1" /><path clip-path="url(#clip000)" d="M769.816 1037.42 Q766.204 1037.42 764.376 1040.98 Q762.57 1044.52 762.57 1051.65 Q762.57 1058.76 764.376 1062.32 Q766.204 1065.87 769.816 1065.87 Q773.45 1065.87 775.255 1062.32 Q777.084 1058.76 777.084 1051.65 Q777.084 1044.52 775.255 1040.98 Q773.45 1037.42 769.816 1037.42 M769.816 1033.71 Q775.626 1033.71 778.681 1038.32 Q781.76 1042.9 781.76 1051.65 Q781.76 1060.38 778.681 1064.99 Q775.626 1069.57 769.816 1069.57 Q764.005 1069.57 760.927 1064.99 Q757.871 1060.38 757.871 1051.65 Q757.871 1042.9 760.927 1038.32 Q764.005 1033.71 769.816 1033.71 Z" fill="#000000" fill-rule="nonzero" fill-opacity="1" /><path clip-path="url(#clip000)" d="M1168.57 1038.41 L1156.76 1056.86 L1168.57 1056.86 L1168.57 1038.41 M1167.34 1034.34 L1173.22 1034.34 L1173.22 1056.86 L1178.15 1056.86 L1178.15 1060.75 L1173.22 1060.75 L1173.22 1068.9 L1168.57 1068.9 L1168.57 1060.75 L1152.96 1060.75 L1152.96 1056.24 L1167.34 1034.34 Z" fill="#000000" fill-rule="nonzero" fill-opacity="1" /><path clip-path="url(#clip000)" d="M1195.88 1037.42 Q1192.27 1037.42 1190.44 1040.98 Q1188.64 1044.52 1188.64 1051.65 Q1188.64 1058.76 1190.44 1062.32 Q1192.27 1065.87 1195.88 1065.87 Q1199.51 1065.87 1201.32 1062.32 Q1203.15 1058.76 1203.15 1051.65 Q1203.15 1044.52 1201.32 1040.98 Q1199.51 1037.42 1195.88 1037.42 M1195.88 1033.71 Q1201.69 1033.71 1204.75 1038.32 Q1207.82 1042.9 1207.82 1051.65 Q1207.82 1060.38 1204.75 1064.99 Q1201.69 1069.57 1195.88 1069.57 Q1190.07 1069.57 1186.99 1064.99 Q1183.94 1060.38 1183.94 1051.65 Q1183.94 1042.9 1186.99 1038.32 Q1190.07 1033.71 1195.88 1033.71 Z" fill="#000000" fill-rule="nonzero" fill-opacity="1" /><path clip-path="url(#clip000)" d="M1591.29 1049.75 Q1588.14 1049.75 1586.29 1051.91 Q1584.46 1054.06 1584.46 1057.81 Q1584.46 1061.54 1586.29 1063.71 Q1588.14 1065.87 1591.29 1065.87 Q1594.43 1065.87 1596.26 1063.71 Q1598.11 1061.54 1598.11 1057.81 Q1598.11 1054.06 1596.26 1051.91 Q1594.43 1049.75 1591.29 1049.75 M1600.57 1035.1 L1600.57 1039.36 Q1598.81 1038.53 1597 1038.09 Q1595.22 1037.65 1593.46 1037.65 Q1588.83 1037.65 1586.38 1040.77 Q1583.95 1043.9 1583.6 1050.22 Q1584.97 1048.2 1587.03 1047.14 Q1589.09 1046.05 1591.56 1046.05 Q1596.77 1046.05 1599.78 1049.22 Q1602.81 1052.37 1602.81 1057.81 Q1602.81 1063.13 1599.67 1066.35 Q1596.52 1069.57 1591.29 1069.57 Q1585.29 1069.57 1582.12 1064.99 Q1578.95 1060.38 1578.95 1051.65 Q1578.95 1043.46 1582.84 1038.6 Q1586.73 1033.71 1593.28 1033.71 Q1595.04 1033.71 1596.82 1034.06 Q1598.62 1034.41 1600.57 1035.1 Z" fill="#000000" fill-rule="nonzero" fill-opacity="1" /><path clip-path="url(#clip000)" d="M1620.87 1037.42 Q1617.26 1037.42 1615.43 1040.98 Q1613.62 1044.52 1613.62 1051.65 Q1613.62 1058.76 1615.43 1062.32 Q1617.26 1065.87 1620.87 1065.87 Q1624.5 1065.87 1626.31 1062.32 Q1628.14 1058.76 1628.14 1051.65 Q1628.14 1044.52 1626.31 1040.98 Q1624.5 1037.42 1620.87 1037.42 M1620.87 1033.71 Q1626.68 1033.71 1629.73 1038.32 Q1632.81 1042.9 1632.81 1051.65 Q1632.81 1060.38 1629.73 1064.99 Q1626.68 1069.57 1620.87 1069.57 Q1615.06 1069.57 1611.98 1064.99 Q1608.92 1060.38 1608.92 1051.65 Q1608.92 1042.9 1611.98 1038.32 Q1615.06 1033.71 1620.87 1033.71 Z" fill="#000000" fill-rule="nonzero" fill-opacity="1" /><path clip-path="url(#clip000)" d="M2016.24 1052.49 Q2012.91 1052.49 2010.98 1054.27 Q2009.09 1056.05 2009.09 1059.18 Q2009.09 1062.3 2010.98 1064.08 Q2012.91 1065.87 2016.24 1065.87 Q2019.57 1065.87 2021.49 1064.08 Q2023.42 1062.28 2023.42 1059.18 Q2023.42 1056.05 2021.49 1054.27 Q2019.6 1052.49 2016.24 1052.49 M2011.56 1050.5 Q2008.55 1049.75 2006.86 1047.69 Q2005.2 1045.63 2005.2 1042.67 Q2005.2 1038.53 2008.14 1036.12 Q2011.1 1033.71 2016.24 1033.71 Q2021.4 1033.71 2024.34 1036.12 Q2027.28 1038.53 2027.28 1042.67 Q2027.28 1045.63 2025.59 1047.69 Q2023.92 1049.75 2020.94 1050.5 Q2024.32 1051.28 2026.19 1053.57 Q2028.09 1055.87 2028.09 1059.18 Q2028.09 1064.2 2025.01 1066.88 Q2021.96 1069.57 2016.24 1069.57 Q2010.52 1069.57 2007.44 1066.88 Q2004.39 1064.2 2004.39 1059.18 Q2004.39 1055.87 2006.29 1053.57 Q2008.18 1051.28 2011.56 1050.5 M2009.85 1043.11 Q2009.85 1045.8 2011.52 1047.3 Q2013.21 1048.81 2016.24 1048.81 Q2019.25 1048.81 2020.94 1047.3 Q2022.65 1045.8 2022.65 1043.11 Q2022.65 1040.43 2020.94 1038.92 Q2019.25 1037.42 2016.24 1037.42 Q2013.21 1037.42 2011.52 1038.92 Q2009.85 1040.43 2009.85 1043.11 Z" fill="#000000" fill-rule="nonzero" fill-opacity="1" /><path clip-path="url(#clip000)" d="M2046.4 1037.42 Q2042.79 1037.42 2040.96 1040.98 Q2039.16 1044.52 2039.16 1051.65 Q2039.16 1058.76 2040.96 1062.32 Q2042.79 1065.87 2046.4 1065.87 Q2050.04 1065.87 2051.84 1062.32 Q2053.67 1058.76 2053.67 1051.65 Q2053.67 1044.52 2051.84 1040.98 Q2050.04 1037.42 2046.4 1037.42 M2046.4 1033.71 Q2052.21 1033.71 2055.27 1038.32 Q2058.35 1042.9 2058.35 1051.65 Q2058.35 1060.38 2055.27 1064.99 Q2052.21 1069.57 2046.4 1069.57 Q2040.59 1069.57 2037.51 1064.99 Q2034.46 1060.38 2034.46 1051.65 Q2034.46 1042.9 2037.51 1038.32 Q2040.59 1033.71 2046.4 1033.71 Z" fill="#000000" fill-rule="nonzero" fill-opacity="1" /><path clip-path="url(#clip000)" d="M2416.46 1064.96 L2424.1 1064.96 L2424.1 1038.6 L2415.79 1040.26 L2415.79 1036 L2424.05 1034.34 L2428.73 1034.34 L2428.73 1064.96 L2436.37 1064.96 L2436.37 1068.9 L2416.46 1068.9 L2416.46 1064.96 Z" fill="#000000" fill-rule="nonzero" fill-opacity="1" /><path clip-path="url(#clip000)" d="M2455.81 1037.42 Q2452.2 1037.42 2450.37 1040.98 Q2448.57 1044.52 2448.57 1051.65 Q2448.57 1058.76 2450.37 1062.32 Q2452.2 1065.87 2455.81 1065.87 Q2459.45 1065.87 2461.25 1062.32 Q2463.08 1058.76 2463.08 1051.65 Q2463.08 1044.52 2461.25 1040.98 Q2459.45 1037.42 2455.81 1037.42 M2455.81 1033.71 Q2461.62 1033.71 2464.68 1038.32 Q2467.76 1042.9 2467.76 1051.65 Q2467.76 1060.38 2464.68 1064.99 Q2461.62 1069.57 2455.81 1069.57 Q2450 1069.57 2446.92 1064.99 Q2443.87 1060.38 2443.87 1051.65 Q2443.87 1042.9 2446.92 1038.32 Q2450 1033.71 2455.81 1033.71 Z" fill="#000000" fill-rule="nonzero" fill-opacity="1" /><path clip-path="url(#clip000)" d="M2485.97 1037.42 Q2482.36 1037.42 2480.53 1040.98 Q2478.73 1044.52 2478.73 1051.65 Q2478.73 1058.76 2480.53 1062.32 Q2482.36 1065.87 2485.97 1065.87 Q2489.61 1065.87 2491.41 1062.32 Q2493.24 1058.76 2493.24 1051.65 Q2493.24 1044.52 2491.41 1040.98 Q2489.61 1037.42 2485.97 1037.42 M2485.97 1033.71 Q2491.78 1033.71 2494.84 1038.32 Q2497.92 1042.9 2497.92 1051.65 Q2497.92 1060.38 2494.84 1064.99 Q2491.78 1069.57 2485.97 1069.57 Q2480.16 1069.57 2477.08 1064.99 Q2474.03 1060.38 2474.03 1051.65 Q2474.03 1042.9 2477.08 1038.32 Q2480.16 1033.71 2485.97 1033.71 Z" fill="#000000" fill-rule="nonzero" fill-opacity="1" /><path clip-path="url(#clip000)" d="M2841.95 1064.96 L2849.58 1064.96 L2849.58 1038.6 L2841.27 1040.26 L2841.27 1036 L2849.54 1034.34 L2854.21 1034.34 L2854.21 1064.96 L2861.85 1064.96 L2861.85 1068.9 L2841.95 1068.9 L2841.95 1064.96 Z" fill="#000000" fill-rule="nonzero" fill-opacity="1" /><path clip-path="url(#clip000)" d="M2875.33 1064.96 L2891.64 1064.96 L2891.64 1068.9 L2869.7 1068.9 L2869.7 1064.96 Q2872.36 1062.21 2876.95 1057.58 Q2881.55 1052.93 2882.73 1051.58 Q2884.98 1049.06 2885.86 1047.32 Q2886.76 1045.56 2886.76 1043.87 Q2886.76 1041.12 2884.82 1039.38 Q2882.89 1037.65 2879.79 1037.65 Q2877.59 1037.65 2875.14 1038.41 Q2872.71 1039.18 2869.93 1040.73 L2869.93 1036 Q2872.76 1034.87 2875.21 1034.29 Q2877.66 1033.71 2879.7 1033.71 Q2885.07 1033.71 2888.27 1036.4 Q2891.46 1039.08 2891.46 1043.57 Q2891.46 1045.7 2890.65 1047.62 Q2889.86 1049.52 2887.76 1052.12 Q2887.18 1052.79 2884.08 1056 Q2880.97 1059.2 2875.33 1064.96 Z" fill="#000000" fill-rule="nonzero" fill-opacity="1" /><path clip-path="url(#clip000)" d="M2911.46 1037.42 Q2907.85 1037.42 2906.02 1040.98 Q2904.21 1044.52 2904.21 1051.65 Q2904.21 1058.76 2906.02 1062.32 Q2907.85 1065.87 2911.46 1065.87 Q2915.09 1065.87 2916.9 1062.32 Q2918.73 1058.76 2918.73 1051.65 Q2918.73 1044.52 2916.9 1040.98 Q2915.09 1037.42 2911.46 1037.42 M2911.46 1033.71 Q2917.27 1033.71 2920.33 1038.32 Q2923.4 1042.9 2923.4 1051.65 Q2923.4 1060.38 2920.33 1064.99 Q2917.27 1069.57 2911.46 1069.57 Q2905.65 1069.57 2902.57 1064.99 Q2899.52 1060.38 2899.52 1051.65 Q2899.52 1042.9 2902.57 1038.32 Q2905.65 1033.71 2911.46 1033.71 Z" fill="#000000" fill-rule="nonzero" fill-opacity="1" /><path clip-path="url(#clip000)" d="M1556.64 1109.44 L1563.07 1109.44 L1563.07 1151.55 L1586.21 1151.55 L1586.21 1156.96 L1556.64 1156.96 L1556.64 1109.44 Z" fill="#000000" fill-rule="nonzero" fill-opacity="1" /><path clip-path="url(#clip000)" d="M1592.7 1121.31 L1598.56 1121.31 L1598.56 1156.96 L1592.7 1156.96 L1592.7 1121.31 M1592.7 1107.44 L1598.56 1107.44 L1598.56 1114.85 L1592.7 1114.85 L1592.7 1107.44 Z" fill="#000000" fill-rule="nonzero" fill-opacity="1" /><path clip-path="url(#clip000)" d="M1640.44 1135.45 L1640.44 1156.96 L1634.59 1156.96 L1634.59 1135.64 Q1634.59 1130.58 1632.61 1128.06 Q1630.64 1125.55 1626.69 1125.55 Q1621.95 1125.55 1619.21 1128.57 Q1616.48 1131.59 1616.48 1136.81 L1616.48 1156.96 L1610.59 1156.96 L1610.59 1121.31 L1616.48 1121.31 L1616.48 1126.85 Q1618.58 1123.64 1621.41 1122.05 Q1624.27 1120.45 1628 1120.45 Q1634.14 1120.45 1637.29 1124.27 Q1640.44 1128.06 1640.44 1135.45 Z" fill="#000000" fill-rule="nonzero" fill-opacity="1" /><path clip-path="url(#clip000)" d="M1682.62 1137.67 L1682.62 1140.54 L1655.69 1140.54 Q1656.07 1146.59 1659.32 1149.77 Q1662.6 1152.92 1668.42 1152.92 Q1671.79 1152.92 1674.95 1152.09 Q1678.13 1151.26 1681.25 1149.61 L1681.25 1155.15 Q1678.1 1156.48 1674.79 1157.18 Q1671.48 1157.88 1668.07 1157.88 Q1659.54 1157.88 1654.54 1152.92 Q1649.58 1147.95 1649.58 1139.49 Q1649.58 1130.74 1654.29 1125.61 Q1659.03 1120.45 1667.05 1120.45 Q1674.25 1120.45 1678.42 1125.1 Q1682.62 1129.72 1682.62 1137.67 M1676.76 1135.95 Q1676.7 1131.15 1674.05 1128.28 Q1671.44 1125.42 1667.12 1125.42 Q1662.21 1125.42 1659.25 1128.19 Q1656.33 1130.96 1655.88 1135.99 L1676.76 1135.95 Z" fill="#000000" fill-rule="nonzero" fill-opacity="1" /><path clip-path="url(#clip000)" d="M1708.43 1139.04 Q1701.33 1139.04 1698.59 1140.67 Q1695.86 1142.29 1695.86 1146.2 Q1695.86 1149.32 1697.89 1151.17 Q1699.96 1152.98 1703.5 1152.98 Q1708.37 1152.98 1711.29 1149.55 Q1714.25 1146.08 1714.25 1140.35 L1714.25 1139.04 L1708.43 1139.04 M1720.11 1136.62 L1720.11 1156.96 L1714.25 1156.96 L1714.25 1151.55 Q1712.25 1154.8 1709.26 1156.36 Q1706.27 1157.88 1701.94 1157.88 Q1696.46 1157.88 1693.22 1154.83 Q1690 1151.74 1690 1146.59 Q1690 1140.57 1694.01 1137.51 Q1698.05 1134.46 1706.04 1134.46 L1714.25 1134.46 L1714.25 1133.89 Q1714.25 1129.84 1711.58 1127.65 Q1708.94 1125.42 1704.13 1125.42 Q1701.08 1125.42 1698.18 1126.15 Q1695.28 1126.88 1692.61 1128.35 L1692.61 1122.94 Q1695.83 1121.7 1698.85 1121.09 Q1701.87 1120.45 1704.74 1120.45 Q1712.47 1120.45 1716.29 1124.46 Q1720.11 1128.48 1720.11 1136.62 Z" fill="#000000" fill-rule="nonzero" fill-opacity="1" /><path clip-path="url(#clip000)" d="M1755.63 1138.72 Q1755.63 1132.36 1752.99 1128.86 Q1750.38 1125.36 1745.64 1125.36 Q1740.93 1125.36 1738.28 1128.86 Q1735.67 1132.36 1735.67 1138.72 Q1735.67 1145.06 1738.28 1148.56 Q1740.93 1152.06 1745.64 1152.06 Q1750.38 1152.06 1752.99 1148.56 Q1755.63 1145.06 1755.63 1138.72 M1761.49 1152.54 Q1761.49 1161.64 1757.45 1166.06 Q1753.4 1170.52 1745.06 1170.52 Q1741.98 1170.52 1739.24 1170.04 Q1736.5 1169.6 1733.92 1168.64 L1733.92 1162.95 Q1736.5 1164.35 1739.02 1165.01 Q1741.53 1165.68 1744.14 1165.68 Q1749.9 1165.68 1752.77 1162.66 Q1755.63 1159.67 1755.63 1153.59 L1755.63 1150.69 Q1753.82 1153.84 1750.98 1155.4 Q1748.15 1156.96 1744.2 1156.96 Q1737.65 1156.96 1733.64 1151.96 Q1729.63 1146.97 1729.63 1138.72 Q1729.63 1130.45 1733.64 1125.45 Q1737.65 1120.45 1744.2 1120.45 Q1748.15 1120.45 1750.98 1122.01 Q1753.82 1123.57 1755.63 1126.72 L1755.63 1121.31 L1761.49 1121.31 L1761.49 1152.54 Z" fill="#000000" fill-rule="nonzero" fill-opacity="1" /><path clip-path="url(#clip000)" d="M1804.04 1137.67 L1804.04 1140.54 L1777.12 1140.54 Q1777.5 1146.59 1780.74 1149.77 Q1784.02 1152.92 1789.85 1152.92 Q1793.22 1152.92 1796.37 1152.09 Q1799.55 1151.26 1802.67 1149.61 L1802.67 1155.15 Q1799.52 1156.48 1796.21 1157.18 Q1792.9 1157.88 1789.5 1157.88 Q1780.97 1157.88 1775.97 1152.92 Q1771 1147.95 1771 1139.49 Q1771 1130.74 1775.71 1125.61 Q1780.46 1120.45 1788.48 1120.45 Q1795.67 1120.45 1799.84 1125.1 Q1804.04 1129.72 1804.04 1137.67 M1798.19 1135.95 Q1798.12 1131.15 1795.48 1128.28 Q1792.87 1125.42 1788.54 1125.42 Q1783.64 1125.42 1780.68 1128.19 Q1777.75 1130.96 1777.31 1135.99 L1798.19 1135.95 Z" fill="#000000" fill-rule="nonzero" fill-opacity="1" /><polyline clip-path="url(#clip002)" style="stroke:#000000; stroke-linecap:round; stroke-linejoin:round; stroke-width:2; stroke-opacity:0.1; fill:none" points="270.918,1000.1 3089.76,1000.1 "/>
<polyline clip-path="url(#clip002)" style="stroke:#000000; stroke-linecap:round; stroke-linejoin:round; stroke-width:2; stroke-opacity:0.1; fill:none" points="270.918,675.041 3089.76,675.041 "/>
<polyline clip-path="url(#clip002)" style="stroke:#000000; stroke-linecap:round; stroke-linejoin:round; stroke-width:2; stroke-opacity:0.1; fill:none" points="270.918,349.984 3089.76,349.984 "/>
<polyline clip-path="url(#clip000)" style="stroke:#000000; stroke-linecap:round; stroke-linejoin:round; stroke-width:4; stroke-opacity:1; fill:none" points="270.918,1000.1 270.918,110.236 "/>
<polyline clip-path="url(#clip000)" style="stroke:#000000; stroke-linecap:round; stroke-linejoin:round; stroke-width:4; stroke-opacity:1; fill:none" points="270.918,1000.1 289.815,1000.1 "/>
<polyline clip-path="url(#clip000)" style="stroke:#000000; stroke-linecap:round; stroke-linejoin:round; stroke-width:4; stroke-opacity:1; fill:none" points="270.918,675.041 289.815,675.041 "/>
<polyline clip-path="url(#clip000)" style="stroke:#000000; stroke-linecap:round; stroke-linejoin:round; stroke-width:4; stroke-opacity:1; fill:none" points="270.918,349.984 289.815,349.984 "/>
<path clip-path="url(#clip000)" d="M154.902 1019.89 L162.54 1019.89 L162.54 993.525 L154.23 995.191 L154.23 990.932 L162.494 989.265 L167.17 989.265 L167.17 1019.89 L174.809 1019.89 L174.809 1023.83 L154.902 1023.83 L154.902 1019.89 Z" fill="#000000" fill-rule="nonzero" fill-opacity="1" /><path clip-path="url(#clip000)" d="M194.253 992.344 Q190.642 992.344 188.813 995.909 Q187.008 999.45 187.008 1006.58 Q187.008 1013.69 188.813 1017.25 Q190.642 1020.79 194.253 1020.79 Q197.887 1020.79 199.693 1017.25 Q201.522 1013.69 201.522 1006.58 Q201.522 999.45 199.693 995.909 Q197.887 992.344 194.253 992.344 M194.253 988.64 Q200.063 988.64 203.119 993.247 Q206.198 997.83 206.198 1006.58 Q206.198 1015.31 203.119 1019.91 Q200.063 1024.5 194.253 1024.5 Q188.443 1024.5 185.364 1019.91 Q182.309 1015.31 182.309 1006.58 Q182.309 997.83 185.364 993.247 Q188.443 988.64 194.253 988.64 Z" fill="#000000" fill-rule="nonzero" fill-opacity="1" /><path clip-path="url(#clip000)" d="M206.743 993.218 L212.95 993.218 L212.95 971.796 L206.198 973.15 L206.198 969.689 L212.912 968.335 L216.711 968.335 L216.711 993.218 L222.918 993.218 L222.918 996.415 L206.743 996.415 L206.743 993.218 Z" fill="#000000" fill-rule="nonzero" fill-opacity="1" /><path clip-path="url(#clip000)" d="M153.792 694.833 L161.431 694.833 L161.431 668.468 L153.121 670.134 L153.121 665.875 L161.384 664.208 L166.06 664.208 L166.06 694.833 L173.699 694.833 L173.699 698.768 L153.792 698.768 L153.792 694.833 Z" fill="#000000" fill-rule="nonzero" fill-opacity="1" /><path clip-path="url(#clip000)" d="M193.143 667.287 Q189.532 667.287 187.704 670.852 Q185.898 674.393 185.898 681.523 Q185.898 688.629 187.704 692.194 Q189.532 695.736 193.143 695.736 Q196.778 695.736 198.583 692.194 Q200.412 688.629 200.412 681.523 Q200.412 674.393 198.583 670.852 Q196.778 667.287 193.143 667.287 M193.143 663.583 Q198.954 663.583 202.009 668.19 Q205.088 672.773 205.088 681.523 Q205.088 690.25 202.009 694.856 Q198.954 699.44 193.143 699.44 Q187.333 699.44 184.255 694.856 Q181.199 690.25 181.199 681.523 Q181.199 672.773 184.255 668.19 Q187.333 663.583 193.143 663.583 Z" fill="#000000" fill-rule="nonzero" fill-opacity="1" /><path clip-path="url(#clip000)" d="M209.658 668.161 L222.918 668.161 L222.918 671.358 L205.088 671.358 L205.088 668.161 Q207.251 665.922 210.975 662.161 Q214.717 658.381 215.677 657.29 Q217.501 655.24 218.216 653.829 Q218.949 652.4 218.949 651.027 Q218.949 648.789 217.369 647.378 Q215.808 645.967 213.288 645.967 Q211.501 645.967 209.508 646.588 Q207.533 647.209 205.276 648.469 L205.276 644.632 Q207.57 643.71 209.564 643.24 Q211.558 642.77 213.213 642.77 Q217.576 642.77 220.172 644.952 Q222.767 647.133 222.767 650.782 Q222.767 652.512 222.109 654.074 Q221.469 655.616 219.758 657.722 Q219.288 658.268 216.767 660.882 Q214.247 663.477 209.658 668.161 Z" fill="#000000" fill-rule="nonzero" fill-opacity="1" /><path clip-path="url(#clip000)" d="M153.134 369.776 L160.772 369.776 L160.772 343.41 L152.462 345.077 L152.462 340.818 L160.726 339.151 L165.402 339.151 L165.402 369.776 L173.041 369.776 L173.041 373.711 L153.134 373.711 L153.134 369.776 Z" fill="#000000" fill-rule="nonzero" fill-opacity="1" /><path clip-path="url(#clip000)" d="M192.485 342.23 Q188.874 342.23 187.045 345.795 Q185.24 349.336 185.24 356.466 Q185.24 363.572 187.045 367.137 Q188.874 370.679 192.485 370.679 Q196.119 370.679 197.925 367.137 Q199.754 363.572 199.754 356.466 Q199.754 349.336 197.925 345.795 Q196.119 342.23 192.485 342.23 M192.485 338.526 Q198.295 338.526 201.351 343.133 Q204.43 347.716 204.43 356.466 Q204.43 365.193 201.351 369.799 Q198.295 374.383 192.485 374.383 Q186.675 374.383 183.596 369.799 Q180.541 365.193 180.541 356.466 Q180.541 347.716 183.596 343.133 Q186.675 338.526 192.485 338.526 Z" fill="#000000" fill-rule="nonzero" fill-opacity="1" /><path clip-path="url(#clip000)" d="M217.125 331.161 Q219.852 331.744 221.375 333.587 Q222.918 335.43 222.918 338.138 Q222.918 342.295 220.059 344.571 Q217.2 346.846 211.934 346.846 Q210.166 346.846 208.285 346.489 Q206.423 346.15 204.43 345.454 L204.43 341.787 Q206.009 342.709 207.89 343.179 Q209.771 343.649 211.821 343.649 Q215.395 343.649 217.256 342.238 Q219.137 340.828 219.137 338.138 Q219.137 335.656 217.388 334.264 Q215.658 332.853 212.555 332.853 L209.282 332.853 L209.282 329.731 L212.705 329.731 Q215.507 329.731 216.993 328.622 Q218.479 327.493 218.479 325.387 Q218.479 323.224 216.937 322.076 Q215.413 320.91 212.555 320.91 Q210.994 320.91 209.207 321.249 Q207.42 321.587 205.276 322.302 L205.276 318.917 Q207.439 318.315 209.32 318.014 Q211.219 317.713 212.893 317.713 Q217.219 317.713 219.739 319.688 Q222.259 321.644 222.259 324.992 Q222.259 327.324 220.924 328.941 Q219.589 330.54 217.125 331.161 Z" fill="#000000" fill-rule="nonzero" fill-opacity="1" /><path clip-path="url(#clip000)" d="M42.6863 847.369 L42.6863 817.323 L48.0971 817.323 L48.0971 840.939 L62.1653 840.939 L62.1653 818.309 L67.5762 818.309 L67.5762 840.939 L84.7954 840.939 L84.7954 816.75 L90.2063 816.75 L90.2063 847.369 L42.6863 847.369 Z" fill="#000000" fill-rule="nonzero" fill-opacity="1" /><path clip-path="url(#clip000)" d="M44.2459 777.696 L50.5161 777.696 Q48.7655 781.356 47.9062 784.603 Q47.0468 787.849 47.0468 790.873 Q47.0468 796.125 49.0838 798.989 Q51.1208 801.822 54.8766 801.822 Q58.0276 801.822 59.6509 799.944 Q61.2423 798.035 62.229 792.751 L63.0247 788.868 Q64.3933 781.675 67.8627 778.269 Q71.3001 774.832 77.0929 774.832 Q83.9997 774.832 87.5645 779.479 Q91.1293 784.094 91.1293 793.038 Q91.1293 796.411 90.3654 800.231 Q89.6015 804.018 88.1056 808.092 L81.4853 808.092 Q83.6814 804.177 84.7954 800.422 Q85.9094 796.666 85.9094 793.038 Q85.9094 787.531 83.7451 784.539 Q81.5808 781.547 77.5704 781.547 Q74.0692 781.547 72.0958 783.712 Q70.1225 785.844 69.1358 790.746 L68.3719 794.661 Q66.9396 801.854 63.8841 805.069 Q60.8285 808.283 55.3859 808.283 Q49.0838 808.283 45.4554 803.859 Q41.8269 799.403 41.8269 791.605 Q41.8269 788.263 42.4317 784.794 Q43.0364 781.325 44.2459 777.696 Z" fill="#000000" fill-rule="nonzero" fill-opacity="1" /><path clip-path="url(#clip000)" d="M44.2459 736.319 L50.5161 736.319 Q48.7655 739.979 47.9062 743.226 Q47.0468 746.472 47.0468 749.496 Q47.0468 754.748 49.0838 757.612 Q51.1208 760.445 54.8766 760.445 Q58.0276 760.445 59.6509 758.567 Q61.2423 756.657 62.229 751.374 L63.0247 747.491 Q64.3933 740.298 67.8627 736.892 Q71.3001 733.454 77.0929 733.454 Q83.9997 733.454 87.5645 738.101 Q91.1293 742.717 91.1293 751.66 Q91.1293 755.034 90.3654 758.854 Q89.6015 762.641 88.1056 766.715 L81.4853 766.715 Q83.6814 762.8 84.7954 759.045 Q85.9094 755.289 85.9094 751.66 Q85.9094 746.154 83.7451 743.162 Q81.5808 740.17 77.5704 740.17 Q74.0692 740.17 72.0958 742.335 Q70.1225 744.467 69.1358 749.369 L68.3719 753.284 Q66.9396 760.477 63.8841 763.692 Q60.8285 766.906 55.3859 766.906 Q49.0838 766.906 45.4554 762.482 Q41.8269 758.026 41.8269 750.228 Q41.8269 746.886 42.4317 743.417 Q43.0364 739.948 44.2459 736.319 Z" fill="#000000" fill-rule="nonzero" fill-opacity="1" /><path clip-path="url(#clip000)" d="M82.1218 722.187 L82.1218 715.471 L90.2063 715.471 L90.2063 722.187 L82.1218 722.187 M56.4999 722.187 L56.4999 715.471 L64.5843 715.471 L64.5843 722.187 L56.4999 722.187 Z" fill="#000000" fill-rule="nonzero" fill-opacity="1" /><path clip-path="url(#clip000)" d="M42.6863 681.479 L42.6863 675.017 L71.5548 675.017 Q79.1936 675.017 82.5674 672.248 Q85.9094 669.479 85.9094 663.273 Q85.9094 657.098 82.5674 654.329 Q79.1936 651.56 71.5548 651.56 L42.6863 651.56 L42.6863 645.098 L72.3505 645.098 Q81.6444 645.098 86.3869 649.714 Q91.1293 654.297 91.1293 663.273 Q91.1293 672.28 86.3869 676.895 Q81.6444 681.479 72.3505 681.479 L42.6863 681.479 Z" fill="#000000" fill-rule="nonzero" fill-opacity="1" /><path clip-path="url(#clip000)" d="M44.2459 604.549 L50.5161 604.549 Q48.7655 608.209 47.9062 611.456 Q47.0468 614.702 47.0468 617.726 Q47.0468 622.978 49.0838 625.842 Q51.1208 628.675 54.8766 628.675 Q58.0276 628.675 59.6509 626.797 Q61.2423 624.887 62.229 619.604 L63.0247 615.721 Q64.3933 608.528 67.8627 605.122 Q71.3001 601.684 77.0929 601.684 Q83.9997 601.684 87.5645 606.331 Q91.1293 610.946 91.1293 619.89 Q91.1293 623.264 90.3654 627.084 Q89.6015 630.871 88.1056 634.945 L81.4853 634.945 Q83.6814 631.03 84.7954 627.275 Q85.9094 623.519 85.9094 619.89 Q85.9094 614.384 83.7451 611.392 Q81.5808 608.4 77.5704 608.4 Q74.0692 608.4 72.0958 610.565 Q70.1225 612.697 69.1358 617.599 L68.3719 621.514 Q66.9396 628.707 63.8841 631.921 Q60.8285 635.136 55.3859 635.136 Q49.0838 635.136 45.4554 630.712 Q41.8269 626.256 41.8269 618.458 Q41.8269 615.116 42.4317 611.647 Q43.0364 608.177 44.2459 604.549 Z" fill="#000000" fill-rule="nonzero" fill-opacity="1" /><path clip-path="url(#clip000)" d="M49.0202 574.566 L72.6688 583.287 L72.6688 565.814 L49.0202 574.566 M42.6863 578.195 L42.6863 570.906 L90.2063 552.796 L90.2063 559.48 L78.016 563.808 L78.016 585.229 L90.2063 589.558 L90.2063 596.337 L42.6863 578.195 Z" fill="#000000" fill-rule="nonzero" fill-opacity="1" /><path clip-path="url(#clip000)" d="M82.1218 544.616 L82.1218 537.9 L87.5963 537.9 L97.7815 543.12 L97.7815 547.226 L87.5963 544.616 L82.1218 544.616 Z" fill="#000000" fill-rule="nonzero" fill-opacity="1" /><path clip-path="url(#clip000)" d="M44.4369 498.878 L54.5583 498.878 L54.5583 486.815 L59.1098 486.815 L59.1098 498.878 L78.4616 498.878 Q82.8221 498.878 84.0634 497.701 Q85.3047 496.491 85.3047 492.831 L85.3047 486.815 L90.2063 486.815 L90.2063 492.831 Q90.2063 499.61 87.6918 502.188 Q85.1455 504.766 78.4616 504.766 L59.1098 504.766 L59.1098 509.063 L54.5583 509.063 L54.5583 504.766 L44.4369 504.766 L44.4369 498.878 Z" fill="#000000" fill-rule="nonzero" fill-opacity="1" /><path clip-path="url(#clip000)" d="M54.5583 479.113 L54.5583 473.256 L90.2063 473.256 L90.2063 479.113 L54.5583 479.113 M40.6811 479.113 L40.6811 473.256 L48.0971 473.256 L48.0971 479.113 L40.6811 479.113 Z" fill="#000000" fill-rule="nonzero" fill-opacity="1" /><path clip-path="url(#clip000)" d="M61.4015 433.248 Q57.4547 431.052 55.5768 427.996 Q53.699 424.941 53.699 420.803 Q53.699 415.233 57.6139 412.209 Q61.4969 409.185 68.6902 409.185 L90.2063 409.185 L90.2063 415.074 L68.8812 415.074 Q63.7568 415.074 61.2741 416.888 Q58.7915 418.702 58.7915 422.426 Q58.7915 426.978 61.8152 429.619 Q64.8389 432.261 70.0588 432.261 L90.2063 432.261 L90.2063 438.149 L68.8812 438.149 Q63.7249 438.149 61.2741 439.964 Q58.7915 441.778 58.7915 445.565 Q58.7915 450.053 61.8471 452.695 Q64.8708 455.337 70.0588 455.337 L90.2063 455.337 L90.2063 461.225 L54.5583 461.225 L54.5583 455.337 L60.0965 455.337 Q56.8182 453.332 55.2586 450.531 Q53.699 447.73 53.699 443.879 Q53.699 439.995 55.6723 437.29 Q57.6457 434.553 61.4015 433.248 Z" fill="#000000" fill-rule="nonzero" fill-opacity="1" /><path clip-path="url(#clip000)" d="M70.9182 367.013 L73.7828 367.013 L73.7828 393.94 Q79.8302 393.558 83.013 390.311 Q86.1641 387.033 86.1641 381.208 Q86.1641 377.834 85.3365 374.683 Q84.509 371.5 82.8539 368.381 L88.3921 368.381 Q89.7289 371.532 90.4291 374.842 Q91.1293 378.153 91.1293 381.558 Q91.1293 390.088 86.1641 395.085 Q81.1988 400.051 72.7324 400.051 Q63.9796 400.051 58.8552 395.34 Q53.699 390.598 53.699 382.577 Q53.699 375.383 58.3459 371.214 Q62.9611 367.013 70.9182 367.013 M69.1995 372.869 Q64.3933 372.933 61.5288 375.574 Q58.6642 378.184 58.6642 382.513 Q58.6642 387.415 61.4333 390.375 Q64.2024 393.303 69.2313 393.749 L69.1995 372.869 Z" fill="#000000" fill-rule="nonzero" fill-opacity="1" /><path clip-path="url(#clip000)" d="M82.1218 355.904 L82.1218 349.189 L90.2063 349.189 L90.2063 355.904 L82.1218 355.904 M56.4999 355.904 L56.4999 349.189 L64.5843 349.189 L64.5843 355.904 L56.4999 355.904 Z" fill="#000000" fill-rule="nonzero" fill-opacity="1" /><path clip-path="url(#clip000)" d="M42.6863 334.547 L42.6863 309.307 L48.0971 309.307 L48.0971 328.659 L59.7464 328.659 Q59.2689 327.259 59.0461 325.858 Q58.7915 324.458 58.7915 323.057 Q58.7915 315.1 63.152 310.453 Q67.5125 305.806 74.9604 305.806 Q82.6311 305.806 86.8961 310.581 Q91.1293 315.355 91.1293 324.044 Q91.1293 327.036 90.6201 330.155 Q90.1108 333.243 89.0923 336.553 L82.6311 336.553 Q84.1907 333.688 84.9546 330.633 Q85.7185 327.577 85.7185 324.171 Q85.7185 318.665 82.8221 315.45 Q79.9257 312.236 74.9604 312.236 Q69.9952 312.236 67.0988 315.45 Q64.2024 318.665 64.2024 324.171 Q64.2024 326.75 64.7753 329.328 Q65.3482 331.874 66.5577 334.547 L42.6863 334.547 Z" fill="#000000" fill-rule="nonzero" fill-opacity="1" /><path clip-path="url(#clip000)" d="M46.9195 279.389 Q46.9195 284.354 51.8211 286.868 Q56.6908 289.351 66.494 289.351 Q76.2654 289.351 81.167 286.868 Q86.0367 284.354 86.0367 279.389 Q86.0367 274.392 81.167 271.909 Q76.2654 269.394 66.494 269.394 Q56.6908 269.394 51.8211 271.909 Q46.9195 274.392 46.9195 279.389 M41.8269 279.389 Q41.8269 271.4 48.1608 267.198 Q54.4628 262.965 66.494 262.965 Q78.4934 262.965 84.8273 267.198 Q91.1293 271.4 91.1293 279.389 Q91.1293 287.378 84.8273 291.611 Q78.4934 295.812 66.494 295.812 Q54.4628 295.812 48.1608 291.611 Q41.8269 287.378 41.8269 279.389 Z" fill="#000000" fill-rule="nonzero" fill-opacity="1" /><polyline clip-path="url(#clip002)" style="stroke:#009af9; stroke-linecap:round; stroke-linejoin:round; stroke-width:4; stroke-opacity:1; fill:none" points="350.696,273.47 371.971,217.112 393.245,195.065 414.519,176.773 435.794,110.236 457.068,182.659 478.342,182.682 499.616,183.103 520.891,220.195 542.165,222.81 563.439,197.796 584.714,221.064 605.988,221.362 627.262,218.427 648.537,203.542 669.811,206.125 691.085,211.985 712.36,229.32 733.634,224.235 754.908,220.623 776.183,163.509 797.457,184.013 818.731,199.84 840.005,208.918 861.28,210.728 882.554,200.245 903.828,185.849 925.103,229.446 946.377,168.454 967.651,143.206 988.926,202.772 1010.2,165.889 1031.47,189.598 1052.75,184.301 1074.02,170.106 1095.3,150.435 1116.57,227.349 1137.85,164.817 1159.12,167.931 1180.39,214.766 1201.67,216.46 1222.94,208.059 1244.22,171.263 1265.49,172.431 1286.77,160.013 1308.04,209.203 1329.31,173.964 1350.59,205.687 1371.86,208.572 1393.14,189.856 1414.41,203.425 1435.69,191.781 1456.96,217.305 1478.23,163.924 1499.51,183.491 1520.78,222.879 1542.06,181.867 1563.33,220.214 1584.61,217.3 1605.88,220.093 1627.15,182.129 1648.43,219.071 1669.7,197.415 1690.98,242.78 1712.25,244.047 1733.53,199.684 1754.8,178.303 1776.08,216.76 1797.35,172.81 1818.62,203.098 1839.9,197.645 1861.17,200.37 1882.45,210.421 1903.72,211.771 1925,215.971 1946.27,208.555 1967.54,200.73 1988.82,174.316 2010.09,211.501 2031.37,209.938 2052.64,220.424 2073.92,188.279 2095.19,143.271 2116.46,155.087 2137.74,191.186 2159.01,186.983 2180.29,208.584 2201.56,229.577 2222.84,216.869 2244.11,217.636 2265.38,175.94 2286.66,224.152 2307.93,204.892 2329.21,225.514 2350.48,183.626 2371.76,209.069 2393.03,204.69 2414.3,218.777 2435.58,214.942 2456.85,210.671 2478.13,210.228 2499.4,203.367 2520.68,222.639 2541.95,196.81 2563.22,185.582 2584.5,192.101 2605.77,186.372 2627.05,175.123 2648.32,175.695 2669.6,175.847 2690.87,233.882 2712.14,219.554 2733.42,250.133 2754.69,143.61 2775.97,193.986 2797.24,145.195 2818.52,137.728 2839.79,155.612 2861.06,211.877 2882.34,216.961 2903.61,156.102 2924.89,239.327 2946.16,157.355 2967.44,191.258 2988.71,168.303 3009.99,173.116 "/>
</svg>
