<?xml version="1.0" encoding="utf-8"?>
<svg xmlns="http://www.w3.org/2000/svg" xmlns:xlink="http://www.w3.org/1999/xlink" width="800" height="300" viewBox="0 0 3200 1200">
<defs>
  <clipPath id="clip430">
    <rect x="0" y="0" width="3200" height="1200"/>
  </clipPath>
</defs>
<path clip-path="url(#clip430)" d="
M0 1200 L3200 1200 L3200 0 L0 0  Z
  " fill="#ffffff" fill-rule="evenodd" fill-opacity="1"/>
<defs>
  <clipPath id="clip431">
    <rect x="640" y="0" width="2241" height="1200"/>
  </clipPath>
</defs>
<path clip-path="url(#clip430)" d="
M270.918 1000.1 L3089.76 1000.1 L3089.76 110.236 L270.918 110.236  Z
  " fill="#ffffff" fill-rule="evenodd" fill-opacity="1"/>
<defs>
  <clipPath id="clip432">
    <rect x="270" y="110" width="2820" height="891"/>
  </clipPath>
</defs>
<polyline clip-path="url(#clip432)" style="stroke:#000000; stroke-linecap:round; stroke-linejoin:round; stroke-width:2; stroke-opacity:0.1; fill:none" points="
  340.389,1000.1 340.389,110.236 
  "/>
<polyline clip-path="url(#clip432)" style="stroke:#000000; stroke-linecap:round; stroke-linejoin:round; stroke-width:2; stroke-opacity:0.1; fill:none" points="
  855.755,1000.1 855.755,110.236 
  "/>
<polyline clip-path="url(#clip432)" style="stroke:#000000; stroke-linecap:round; stroke-linejoin:round; stroke-width:2; stroke-opacity:0.1; fill:none" points="
  1371.12,1000.1 1371.12,110.236 
  "/>
<polyline clip-path="url(#clip432)" style="stroke:#000000; stroke-linecap:round; stroke-linejoin:round; stroke-width:2; stroke-opacity:0.1; fill:none" points="
  1886.49,1000.1 1886.49,110.236 
  "/>
<polyline clip-path="url(#clip432)" style="stroke:#000000; stroke-linecap:round; stroke-linejoin:round; stroke-width:2; stroke-opacity:0.1; fill:none" points="
  2401.85,1000.1 2401.85,110.236 
  "/>
<polyline clip-path="url(#clip432)" style="stroke:#000000; stroke-linecap:round; stroke-linejoin:round; stroke-width:2; stroke-opacity:0.1; fill:none" points="
  2917.22,1000.1 2917.22,110.236 
  "/>
<polyline clip-path="url(#clip430)" style="stroke:#000000; stroke-linecap:round; stroke-linejoin:round; stroke-width:4; stroke-opacity:1; fill:none" points="
  270.918,1000.1 3089.76,1000.1 
  "/>
<polyline clip-path="url(#clip430)" style="stroke:#000000; stroke-linecap:round; stroke-linejoin:round; stroke-width:4; stroke-opacity:1; fill:none" points="
  340.389,1000.1 340.389,981.2 
  "/>
<polyline clip-path="url(#clip430)" style="stroke:#000000; stroke-linecap:round; stroke-linejoin:round; stroke-width:4; stroke-opacity:1; fill:none" points="
  855.755,1000.1 855.755,981.2 
  "/>
<polyline clip-path="url(#clip430)" style="stroke:#000000; stroke-linecap:round; stroke-linejoin:round; stroke-width:4; stroke-opacity:1; fill:none" points="
  1371.12,1000.1 1371.12,981.2 
  "/>
<polyline clip-path="url(#clip430)" style="stroke:#000000; stroke-linecap:round; stroke-linejoin:round; stroke-width:4; stroke-opacity:1; fill:none" points="
  1886.49,1000.1 1886.49,981.2 
  "/>
<polyline clip-path="url(#clip430)" style="stroke:#000000; stroke-linecap:round; stroke-linejoin:round; stroke-width:4; stroke-opacity:1; fill:none" points="
  2401.85,1000.1 2401.85,981.2 
  "/>
<polyline clip-path="url(#clip430)" style="stroke:#000000; stroke-linecap:round; stroke-linejoin:round; stroke-width:4; stroke-opacity:1; fill:none" points="
  2917.22,1000.1 2917.22,981.2 
  "/>
<path clip-path="url(#clip430)" d="M340.389 1037.42 Q336.778 1037.42 334.949 1040.98 Q333.144 1044.52 333.144 1051.65 Q333.144 1058.76 334.949 1062.32 Q336.778 1065.87 340.389 1065.87 Q344.023 1065.87 345.829 1062.32 Q347.657 1058.76 347.657 1051.65 Q347.657 1044.52 345.829 1040.98 Q344.023 1037.42 340.389 1037.42 M340.389 1033.71 Q346.199 1033.71 349.255 1038.32 Q352.333 1042.9 352.333 1051.65 Q352.333 1060.38 349.255 1064.99 Q346.199 1069.57 340.389 1069.57 Q334.579 1069.57 331.5 1064.99 Q328.445 1060.38 328.445 1051.65 Q328.445 1042.9 331.5 1038.32 Q334.579 1033.71 340.389 1033.71 Z" fill="#000000" fill-rule="evenodd" fill-opacity="1" /><path clip-path="url(#clip430)" d="M830.454 1034.34 L848.811 1034.34 L848.811 1038.27 L834.737 1038.27 L834.737 1046.75 Q835.755 1046.4 836.774 1046.24 Q837.792 1046.05 838.811 1046.05 Q844.598 1046.05 847.977 1049.22 Q851.357 1052.39 851.357 1057.81 Q851.357 1063.39 847.885 1066.49 Q844.412 1069.57 838.093 1069.57 Q835.917 1069.57 833.649 1069.2 Q831.403 1068.83 828.996 1068.09 L828.996 1063.39 Q831.079 1064.52 833.301 1065.08 Q835.524 1065.63 838 1065.63 Q842.005 1065.63 844.343 1063.53 Q846.681 1061.42 846.681 1057.81 Q846.681 1054.2 844.343 1052.09 Q842.005 1049.99 838 1049.99 Q836.126 1049.99 834.251 1050.4 Q832.399 1050.82 830.454 1051.7 L830.454 1034.34 Z" fill="#000000" fill-rule="evenodd" fill-opacity="1" /><path clip-path="url(#clip430)" d="M870.57 1037.42 Q866.959 1037.42 865.13 1040.98 Q863.324 1044.52 863.324 1051.65 Q863.324 1058.76 865.13 1062.32 Q866.959 1065.87 870.57 1065.87 Q874.204 1065.87 876.01 1062.32 Q877.838 1058.76 877.838 1051.65 Q877.838 1044.52 876.01 1040.98 Q874.204 1037.42 870.57 1037.42 M870.57 1033.71 Q876.38 1033.71 879.435 1038.32 Q882.514 1042.9 882.514 1051.65 Q882.514 1060.38 879.435 1064.99 Q876.38 1069.57 870.57 1069.57 Q864.76 1069.57 861.681 1064.99 Q858.625 1060.38 858.625 1051.65 Q858.625 1042.9 861.681 1038.32 Q864.76 1033.71 870.57 1033.71 Z" fill="#000000" fill-rule="evenodd" fill-opacity="1" /><path clip-path="url(#clip430)" d="M1330.73 1064.96 L1338.37 1064.96 L1338.37 1038.6 L1330.06 1040.26 L1330.06 1036 L1338.32 1034.34 L1343 1034.34 L1343 1064.96 L1350.64 1064.96 L1350.64 1068.9 L1330.73 1068.9 L1330.73 1064.96 Z" fill="#000000" fill-rule="evenodd" fill-opacity="1" /><path clip-path="url(#clip430)" d="M1370.08 1037.42 Q1366.47 1037.42 1364.64 1040.98 Q1362.83 1044.52 1362.83 1051.65 Q1362.83 1058.76 1364.64 1062.32 Q1366.47 1065.87 1370.08 1065.87 Q1373.71 1065.87 1375.52 1062.32 Q1377.35 1058.76 1377.35 1051.65 Q1377.35 1044.52 1375.52 1040.98 Q1373.71 1037.42 1370.08 1037.42 M1370.08 1033.71 Q1375.89 1033.71 1378.95 1038.32 Q1382.02 1042.9 1382.02 1051.65 Q1382.02 1060.38 1378.95 1064.99 Q1375.89 1069.57 1370.08 1069.57 Q1364.27 1069.57 1361.19 1064.99 Q1358.14 1060.38 1358.14 1051.65 Q1358.14 1042.9 1361.19 1038.32 Q1364.27 1033.71 1370.08 1033.71 Z" fill="#000000" fill-rule="evenodd" fill-opacity="1" /><path clip-path="url(#clip430)" d="M1400.24 1037.42 Q1396.63 1037.42 1394.8 1040.98 Q1393 1044.52 1393 1051.65 Q1393 1058.76 1394.8 1062.32 Q1396.63 1065.87 1400.24 1065.87 Q1403.88 1065.87 1405.68 1062.32 Q1407.51 1058.76 1407.51 1051.65 Q1407.51 1044.52 1405.68 1040.98 Q1403.88 1037.42 1400.24 1037.42 M1400.24 1033.71 Q1406.05 1033.71 1409.11 1038.32 Q1412.19 1042.9 1412.19 1051.65 Q1412.19 1060.38 1409.11 1064.99 Q1406.05 1069.57 1400.24 1069.57 Q1394.43 1069.57 1391.35 1064.99 Q1388.3 1060.38 1388.3 1051.65 Q1388.3 1042.9 1391.35 1038.32 Q1394.43 1033.71 1400.24 1033.71 Z" fill="#000000" fill-rule="evenodd" fill-opacity="1" /><path clip-path="url(#clip430)" d="M1846.09 1064.96 L1853.73 1064.96 L1853.73 1038.6 L1845.42 1040.26 L1845.42 1036 L1853.69 1034.34 L1858.36 1034.34 L1858.36 1064.96 L1866 1064.96 L1866 1068.9 L1846.09 1068.9 L1846.09 1064.96 Z" fill="#000000" fill-rule="evenodd" fill-opacity="1" /><path clip-path="url(#clip430)" d="M1875.49 1034.34 L1893.85 1034.34 L1893.85 1038.27 L1879.77 1038.27 L1879.77 1046.75 Q1880.79 1046.4 1881.81 1046.24 Q1882.83 1046.05 1883.85 1046.05 Q1889.64 1046.05 1893.01 1049.22 Q1896.39 1052.39 1896.39 1057.81 Q1896.39 1063.39 1892.92 1066.49 Q1889.45 1069.57 1883.13 1069.57 Q1880.95 1069.57 1878.69 1069.2 Q1876.44 1068.83 1874.03 1068.09 L1874.03 1063.39 Q1876.12 1064.52 1878.34 1065.08 Q1880.56 1065.63 1883.04 1065.63 Q1887.04 1065.63 1889.38 1063.53 Q1891.72 1061.42 1891.72 1057.81 Q1891.72 1054.2 1889.38 1052.09 Q1887.04 1049.99 1883.04 1049.99 Q1881.16 1049.99 1879.29 1050.4 Q1877.44 1050.82 1875.49 1051.7 L1875.49 1034.34 Z" fill="#000000" fill-rule="evenodd" fill-opacity="1" /><path clip-path="url(#clip430)" d="M1915.61 1037.42 Q1912 1037.42 1910.17 1040.98 Q1908.36 1044.52 1908.36 1051.65 Q1908.36 1058.76 1910.17 1062.32 Q1912 1065.87 1915.61 1065.87 Q1919.24 1065.87 1921.05 1062.32 Q1922.88 1058.76 1922.88 1051.65 Q1922.88 1044.52 1921.05 1040.98 Q1919.24 1037.42 1915.61 1037.42 M1915.61 1033.71 Q1921.42 1033.71 1924.47 1038.32 Q1927.55 1042.9 1927.55 1051.65 Q1927.55 1060.38 1924.47 1064.99 Q1921.42 1069.57 1915.61 1069.57 Q1909.8 1069.57 1906.72 1064.99 Q1903.66 1060.38 1903.66 1051.65 Q1903.66 1042.9 1906.72 1038.32 Q1909.8 1033.71 1915.61 1033.71 Z" fill="#000000" fill-rule="evenodd" fill-opacity="1" /><path clip-path="url(#clip430)" d="M2365.55 1064.96 L2381.86 1064.96 L2381.86 1068.9 L2359.92 1068.9 L2359.92 1064.96 Q2362.58 1062.21 2367.17 1057.58 Q2371.77 1052.93 2372.95 1051.58 Q2375.2 1049.06 2376.08 1047.32 Q2376.98 1045.56 2376.98 1043.87 Q2376.98 1041.12 2375.04 1039.38 Q2373.11 1037.65 2370.01 1037.65 Q2367.81 1037.65 2365.36 1038.41 Q2362.93 1039.18 2360.15 1040.73 L2360.15 1036 Q2362.98 1034.87 2365.43 1034.29 Q2367.88 1033.71 2369.92 1033.71 Q2375.29 1033.71 2378.49 1036.4 Q2381.68 1039.08 2381.68 1043.57 Q2381.68 1045.7 2380.87 1047.62 Q2380.08 1049.52 2377.98 1052.12 Q2377.4 1052.79 2374.3 1056 Q2371.19 1059.2 2365.55 1064.96 Z" fill="#000000" fill-rule="evenodd" fill-opacity="1" /><path clip-path="url(#clip430)" d="M2401.68 1037.42 Q2398.07 1037.42 2396.24 1040.98 Q2394.43 1044.52 2394.43 1051.65 Q2394.43 1058.76 2396.24 1062.32 Q2398.07 1065.87 2401.68 1065.87 Q2405.31 1065.87 2407.12 1062.32 Q2408.95 1058.76 2408.95 1051.65 Q2408.95 1044.52 2407.12 1040.98 Q2405.31 1037.42 2401.68 1037.42 M2401.68 1033.71 Q2407.49 1033.71 2410.55 1038.32 Q2413.62 1042.9 2413.62 1051.65 Q2413.62 1060.38 2410.55 1064.99 Q2407.49 1069.57 2401.68 1069.57 Q2395.87 1069.57 2392.79 1064.99 Q2389.74 1060.38 2389.74 1051.65 Q2389.74 1042.9 2392.79 1038.32 Q2395.87 1033.71 2401.68 1033.71 Z" fill="#000000" fill-rule="evenodd" fill-opacity="1" /><path clip-path="url(#clip430)" d="M2431.84 1037.42 Q2428.23 1037.42 2426.4 1040.98 Q2424.6 1044.52 2424.6 1051.65 Q2424.6 1058.76 2426.4 1062.32 Q2428.23 1065.87 2431.84 1065.87 Q2435.48 1065.87 2437.28 1062.32 Q2439.11 1058.76 2439.11 1051.65 Q2439.11 1044.52 2437.28 1040.98 Q2435.48 1037.42 2431.84 1037.42 M2431.84 1033.71 Q2437.65 1033.71 2440.71 1038.32 Q2443.79 1042.9 2443.79 1051.65 Q2443.79 1060.38 2440.71 1064.99 Q2437.65 1069.57 2431.84 1069.57 Q2426.03 1069.57 2422.95 1064.99 Q2419.9 1060.38 2419.9 1051.65 Q2419.9 1042.9 2422.95 1038.32 Q2426.03 1033.71 2431.84 1033.71 Z" fill="#000000" fill-rule="evenodd" fill-opacity="1" /><path clip-path="url(#clip430)" d="M2880.91 1064.96 L2897.23 1064.96 L2897.23 1068.9 L2875.29 1068.9 L2875.29 1064.96 Q2877.95 1062.21 2882.53 1057.58 Q2887.14 1052.93 2888.32 1051.58 Q2890.56 1049.06 2891.44 1047.32 Q2892.35 1045.56 2892.35 1043.87 Q2892.35 1041.12 2890.4 1039.38 Q2888.48 1037.65 2885.38 1037.65 Q2883.18 1037.65 2880.73 1038.41 Q2878.3 1039.18 2875.52 1040.73 L2875.52 1036 Q2878.34 1034.87 2880.8 1034.29 Q2883.25 1033.71 2885.29 1033.71 Q2890.66 1033.71 2893.85 1036.4 Q2897.05 1039.08 2897.05 1043.57 Q2897.05 1045.7 2896.24 1047.62 Q2895.45 1049.52 2893.34 1052.12 Q2892.76 1052.79 2889.66 1056 Q2886.56 1059.2 2880.91 1064.96 Z" fill="#000000" fill-rule="evenodd" fill-opacity="1" /><path clip-path="url(#clip430)" d="M2907.09 1034.34 L2925.45 1034.34 L2925.45 1038.27 L2911.37 1038.27 L2911.37 1046.75 Q2912.39 1046.4 2913.41 1046.24 Q2914.43 1046.05 2915.45 1046.05 Q2921.24 1046.05 2924.62 1049.22 Q2927.99 1052.39 2927.99 1057.81 Q2927.99 1063.39 2924.52 1066.49 Q2921.05 1069.57 2914.73 1069.57 Q2912.55 1069.57 2910.29 1069.2 Q2908.04 1068.83 2905.63 1068.09 L2905.63 1063.39 Q2907.72 1064.52 2909.94 1065.08 Q2912.16 1065.63 2914.64 1065.63 Q2918.64 1065.63 2920.98 1063.53 Q2923.32 1061.42 2923.32 1057.81 Q2923.32 1054.2 2920.98 1052.09 Q2918.64 1049.99 2914.64 1049.99 Q2912.76 1049.99 2910.89 1050.4 Q2909.04 1050.82 2907.09 1051.7 L2907.09 1034.34 Z" fill="#000000" fill-rule="evenodd" fill-opacity="1" /><path clip-path="url(#clip430)" d="M2947.21 1037.42 Q2943.6 1037.42 2941.77 1040.98 Q2939.96 1044.52 2939.96 1051.65 Q2939.96 1058.76 2941.77 1062.32 Q2943.6 1065.87 2947.21 1065.87 Q2950.84 1065.87 2952.65 1062.32 Q2954.48 1058.76 2954.48 1051.65 Q2954.48 1044.52 2952.65 1040.98 Q2950.84 1037.42 2947.21 1037.42 M2947.21 1033.71 Q2953.02 1033.71 2956.07 1038.32 Q2959.15 1042.9 2959.15 1051.65 Q2959.15 1060.38 2956.07 1064.99 Q2953.02 1069.57 2947.21 1069.57 Q2941.4 1069.57 2938.32 1064.99 Q2935.26 1060.38 2935.26 1051.65 Q2935.26 1042.9 2938.32 1038.32 Q2941.4 1033.71 2947.21 1033.71 Z" fill="#000000" fill-rule="evenodd" fill-opacity="1" /><path clip-path="url(#clip430)" d="M1556.64 1109.44 L1563.07 1109.44 L1563.07 1151.55 L1586.21 1151.55 L1586.21 1156.96 L1556.64 1156.96 L1556.64 1109.44 Z" fill="#000000" fill-rule="evenodd" fill-opacity="1" /><path clip-path="url(#clip430)" d="M1592.7 1121.31 L1598.56 1121.31 L1598.56 1156.96 L1592.7 1156.96 L1592.7 1121.31 M1592.7 1107.44 L1598.56 1107.44 L1598.56 1114.85 L1592.7 1114.85 L1592.7 1107.44 Z" fill="#000000" fill-rule="evenodd" fill-opacity="1" /><path clip-path="url(#clip430)" d="M1640.44 1135.45 L1640.44 1156.96 L1634.59 1156.96 L1634.59 1135.64 Q1634.59 1130.58 1632.61 1128.06 Q1630.64 1125.55 1626.69 1125.55 Q1621.95 1125.55 1619.21 1128.57 Q1616.48 1131.59 1616.48 1136.81 L1616.48 1156.96 L1610.59 1156.96 L1610.59 1121.31 L1616.48 1121.31 L1616.48 1126.85 Q1618.58 1123.64 1621.41 1122.05 Q1624.27 1120.45 1628 1120.45 Q1634.14 1120.45 1637.29 1124.27 Q1640.44 1128.06 1640.44 1135.45 Z" fill="#000000" fill-rule="evenodd" fill-opacity="1" /><path clip-path="url(#clip430)" d="M1682.62 1137.67 L1682.62 1140.54 L1655.69 1140.54 Q1656.07 1146.59 1659.32 1149.77 Q1662.6 1152.92 1668.42 1152.92 Q1671.79 1152.92 1674.95 1152.09 Q1678.13 1151.26 1681.25 1149.61 L1681.25 1155.15 Q1678.1 1156.48 1674.79 1157.18 Q1671.48 1157.88 1668.07 1157.88 Q1659.54 1157.88 1654.54 1152.92 Q1649.58 1147.95 1649.58 1139.49 Q1649.58 1130.74 1654.29 1125.61 Q1659.03 1120.45 1667.05 1120.45 Q1674.25 1120.45 1678.42 1125.1 Q1682.62 1129.72 1682.62 1137.67 M1676.76 1135.95 Q1676.7 1131.15 1674.05 1128.28 Q1671.44 1125.42 1667.12 1125.42 Q1662.21 1125.42 1659.25 1128.19 Q1656.33 1130.96 1655.88 1135.99 L1676.76 1135.95 Z" fill="#000000" fill-rule="evenodd" fill-opacity="1" /><path clip-path="url(#clip430)" d="M1708.43 1139.04 Q1701.33 1139.04 1698.59 1140.67 Q1695.86 1142.29 1695.86 1146.2 Q1695.86 1149.32 1697.89 1151.17 Q1699.96 1152.98 1703.5 1152.98 Q1708.37 1152.98 1711.29 1149.55 Q1714.25 1146.08 1714.25 1140.35 L1714.25 1139.04 L1708.43 1139.04 M1720.11 1136.62 L1720.11 1156.96 L1714.25 1156.96 L1714.25 1151.55 Q1712.25 1154.8 1709.26 1156.36 Q1706.27 1157.88 1701.94 1157.88 Q1696.46 1157.88 1693.22 1154.83 Q1690 1151.74 1690 1146.59 Q1690 1140.57 1694.01 1137.51 Q1698.05 1134.46 1706.04 1134.46 L1714.25 1134.46 L1714.25 1133.89 Q1714.25 1129.84 1711.58 1127.65 Q1708.94 1125.42 1704.13 1125.42 Q1701.08 1125.42 1698.18 1126.15 Q1695.28 1126.88 1692.61 1128.35 L1692.61 1122.94 Q1695.83 1121.7 1698.85 1121.09 Q1701.87 1120.45 1704.74 1120.45 Q1712.47 1120.45 1716.29 1124.46 Q1720.11 1128.48 1720.11 1136.62 Z" fill="#000000" fill-rule="evenodd" fill-opacity="1" /><path clip-path="url(#clip430)" d="M1755.63 1138.72 Q1755.63 1132.36 1752.99 1128.86 Q1750.38 1125.36 1745.64 1125.36 Q1740.93 1125.36 1738.28 1128.86 Q1735.67 1132.36 1735.67 1138.72 Q1735.67 1145.06 1738.28 1148.56 Q1740.93 1152.06 1745.64 1152.06 Q1750.38 1152.06 1752.99 1148.56 Q1755.63 1145.06 1755.63 1138.72 M1761.49 1152.54 Q1761.49 1161.64 1757.45 1166.06 Q1753.4 1170.52 1745.06 1170.52 Q1741.98 1170.52 1739.24 1170.04 Q1736.5 1169.6 1733.92 1168.64 L1733.92 1162.95 Q1736.5 1164.35 1739.02 1165.01 Q1741.53 1165.68 1744.14 1165.68 Q1749.9 1165.68 1752.77 1162.66 Q1755.63 1159.67 1755.63 1153.59 L1755.63 1150.69 Q1753.82 1153.84 1750.98 1155.4 Q1748.15 1156.96 1744.2 1156.96 Q1737.65 1156.96 1733.64 1151.96 Q1729.63 1146.97 1729.63 1138.72 Q1729.63 1130.45 1733.64 1125.45 Q1737.65 1120.45 1744.2 1120.45 Q1748.15 1120.45 1750.98 1122.01 Q1753.82 1123.57 1755.63 1126.72 L1755.63 1121.31 L1761.49 1121.31 L1761.49 1152.54 Z" fill="#000000" fill-rule="evenodd" fill-opacity="1" /><path clip-path="url(#clip430)" d="M1804.04 1137.67 L1804.04 1140.54 L1777.12 1140.54 Q1777.5 1146.59 1780.74 1149.77 Q1784.02 1152.92 1789.85 1152.92 Q1793.22 1152.92 1796.37 1152.09 Q1799.55 1151.26 1802.67 1149.61 L1802.67 1155.15 Q1799.52 1156.48 1796.21 1157.18 Q1792.9 1157.88 1789.5 1157.88 Q1780.97 1157.88 1775.97 1152.92 Q1771 1147.95 1771 1139.49 Q1771 1130.74 1775.71 1125.61 Q1780.46 1120.45 1788.48 1120.45 Q1795.67 1120.45 1799.84 1125.1 Q1804.04 1129.72 1804.04 1137.67 M1798.19 1135.95 Q1798.12 1131.15 1795.48 1128.28 Q1792.87 1125.42 1788.54 1125.42 Q1783.64 1125.42 1780.68 1128.19 Q1777.75 1130.96 1777.31 1135.99 L1798.19 1135.95 Z" fill="#000000" fill-rule="evenodd" fill-opacity="1" /><polyline clip-path="url(#clip432)" style="stroke:#000000; stroke-linecap:round; stroke-linejoin:round; stroke-width:2; stroke-opacity:0.1; fill:none" points="
  270.918,1000.1 3089.76,1000.1 
  "/>
<polyline clip-path="url(#clip432)" style="stroke:#000000; stroke-linecap:round; stroke-linejoin:round; stroke-width:2; stroke-opacity:0.1; fill:none" points="
  270.918,667.306 3089.76,667.306 
  "/>
<polyline clip-path="url(#clip432)" style="stroke:#000000; stroke-linecap:round; stroke-linejoin:round; stroke-width:2; stroke-opacity:0.1; fill:none" points="
  270.918,334.514 3089.76,334.514 
  "/>
<polyline clip-path="url(#clip430)" style="stroke:#000000; stroke-linecap:round; stroke-linejoin:round; stroke-width:4; stroke-opacity:1; fill:none" points="
  270.918,1000.1 270.918,110.236 
  "/>
<polyline clip-path="url(#clip430)" style="stroke:#000000; stroke-linecap:round; stroke-linejoin:round; stroke-width:4; stroke-opacity:1; fill:none" points="
  270.918,1000.1 289.815,1000.1 
  "/>
<polyline clip-path="url(#clip430)" style="stroke:#000000; stroke-linecap:round; stroke-linejoin:round; stroke-width:4; stroke-opacity:1; fill:none" points="
  270.918,667.306 289.815,667.306 
  "/>
<polyline clip-path="url(#clip430)" style="stroke:#000000; stroke-linecap:round; stroke-linejoin:round; stroke-width:4; stroke-opacity:1; fill:none" points="
  270.918,334.514 289.815,334.514 
  "/>
<path clip-path="url(#clip430)" d="M154.902 1019.89 L162.54 1019.89 L162.54 993.525 L154.23 995.191 L154.23 990.932 L162.494 989.265 L167.17 989.265 L167.17 1019.89 L174.809 1019.89 L174.809 1023.83 L154.902 1023.83 L154.902 1019.89 Z" fill="#000000" fill-rule="evenodd" fill-opacity="1" /><path clip-path="url(#clip430)" d="M194.253 992.344 Q190.642 992.344 188.813 995.909 Q187.008 999.45 187.008 1006.58 Q187.008 1013.69 188.813 1017.25 Q190.642 1020.79 194.253 1020.79 Q197.887 1020.79 199.693 1017.25 Q201.522 1013.69 201.522 1006.58 Q201.522 999.45 199.693 995.909 Q197.887 992.344 194.253 992.344 M194.253 988.64 Q200.063 988.64 203.119 993.247 Q206.198 997.83 206.198 1006.58 Q206.198 1015.31 203.119 1019.91 Q200.063 1024.5 194.253 1024.5 Q188.443 1024.5 185.364 1019.91 Q182.309 1015.31 182.309 1006.58 Q182.309 997.83 185.364 993.247 Q188.443 988.64 194.253 988.64 Z" fill="#000000" fill-rule="evenodd" fill-opacity="1" /><path clip-path="url(#clip430)" d="M206.743 993.218 L212.95 993.218 L212.95 971.796 L206.198 973.15 L206.198 969.689 L212.912 968.335 L216.711 968.335 L216.711 993.218 L222.918 993.218 L222.918 996.415 L206.743 996.415 L206.743 993.218 Z" fill="#000000" fill-rule="evenodd" fill-opacity="1" /><path clip-path="url(#clip430)" d="M153.792 687.098 L161.431 687.098 L161.431 660.733 L153.121 662.399 L153.121 658.14 L161.384 656.473 L166.06 656.473 L166.06 687.098 L173.699 687.098 L173.699 691.033 L153.792 691.033 L153.792 687.098 Z" fill="#000000" fill-rule="evenodd" fill-opacity="1" /><path clip-path="url(#clip430)" d="M193.143 659.552 Q189.532 659.552 187.704 663.117 Q185.898 666.659 185.898 673.788 Q185.898 680.895 187.704 684.459 Q189.532 688.001 193.143 688.001 Q196.778 688.001 198.583 684.459 Q200.412 680.895 200.412 673.788 Q200.412 666.659 198.583 663.117 Q196.778 659.552 193.143 659.552 M193.143 655.848 Q198.954 655.848 202.009 660.455 Q205.088 665.038 205.088 673.788 Q205.088 682.515 202.009 687.121 Q198.954 691.705 193.143 691.705 Q187.333 691.705 184.255 687.121 Q181.199 682.515 181.199 673.788 Q181.199 665.038 184.255 660.455 Q187.333 655.848 193.143 655.848 Z" fill="#000000" fill-rule="evenodd" fill-opacity="1" /><path clip-path="url(#clip430)" d="M209.658 660.426 L222.918 660.426 L222.918 663.623 L205.088 663.623 L205.088 660.426 Q207.251 658.188 210.975 654.426 Q214.717 650.646 215.677 649.555 Q217.501 647.505 218.216 646.094 Q218.949 644.665 218.949 643.292 Q218.949 641.054 217.369 639.643 Q215.808 638.233 213.288 638.233 Q211.501 638.233 209.508 638.853 Q207.533 639.474 205.276 640.734 L205.276 636.897 Q207.57 635.976 209.564 635.505 Q211.558 635.035 213.213 635.035 Q217.576 635.035 220.172 637.217 Q222.767 639.399 222.767 643.047 Q222.767 644.778 222.109 646.339 Q221.469 647.881 219.758 649.987 Q219.288 650.533 216.767 653.147 Q214.247 655.743 209.658 660.426 Z" fill="#000000" fill-rule="evenodd" fill-opacity="1" /><path clip-path="url(#clip430)" d="M153.134 354.306 L160.772 354.306 L160.772 327.941 L152.462 329.607 L152.462 325.348 L160.726 323.681 L165.402 323.681 L165.402 354.306 L173.041 354.306 L173.041 358.241 L153.134 358.241 L153.134 354.306 Z" fill="#000000" fill-rule="evenodd" fill-opacity="1" /><path clip-path="url(#clip430)" d="M192.485 326.76 Q188.874 326.76 187.045 330.325 Q185.24 333.867 185.24 340.996 Q185.24 348.103 187.045 351.667 Q188.874 355.209 192.485 355.209 Q196.119 355.209 197.925 351.667 Q199.754 348.103 199.754 340.996 Q199.754 333.867 197.925 330.325 Q196.119 326.76 192.485 326.76 M192.485 323.056 Q198.295 323.056 201.351 327.663 Q204.43 332.246 204.43 340.996 Q204.43 349.723 201.351 354.329 Q198.295 358.913 192.485 358.913 Q186.675 358.913 183.596 354.329 Q180.541 349.723 180.541 340.996 Q180.541 332.246 183.596 327.663 Q186.675 323.056 192.485 323.056 Z" fill="#000000" fill-rule="evenodd" fill-opacity="1" /><path clip-path="url(#clip430)" d="M217.125 315.691 Q219.852 316.274 221.375 318.117 Q222.918 319.96 222.918 322.669 Q222.918 326.825 220.059 329.101 Q217.2 331.377 211.934 331.377 Q210.166 331.377 208.285 331.019 Q206.423 330.681 204.43 329.985 L204.43 326.317 Q206.009 327.239 207.89 327.709 Q209.771 328.179 211.821 328.179 Q215.395 328.179 217.256 326.769 Q219.137 325.358 219.137 322.669 Q219.137 320.186 217.388 318.794 Q215.658 317.384 212.555 317.384 L209.282 317.384 L209.282 314.261 L212.705 314.261 Q215.507 314.261 216.993 313.152 Q218.479 312.023 218.479 309.917 Q218.479 307.754 216.937 306.607 Q215.413 305.441 212.555 305.441 Q210.994 305.441 209.207 305.779 Q207.42 306.118 205.276 306.832 L205.276 303.447 Q207.439 302.845 209.32 302.544 Q211.219 302.243 212.893 302.243 Q217.219 302.243 219.739 304.218 Q222.259 306.174 222.259 309.522 Q222.259 311.854 220.924 313.472 Q219.589 315.07 217.125 315.691 Z" fill="#000000" fill-rule="evenodd" fill-opacity="1" /><path clip-path="url(#clip430)" d="M42.6863 868.105 L42.6863 838.059 L48.0971 838.059 L48.0971 861.676 L62.1653 861.676 L62.1653 839.046 L67.5762 839.046 L67.5762 861.676 L84.7954 861.676 L84.7954 837.486 L90.2063 837.486 L90.2063 868.105 L42.6863 868.105 Z" fill="#000000" fill-rule="evenodd" fill-opacity="1" /><path clip-path="url(#clip430)" d="M44.2459 798.432 L50.5161 798.432 Q48.7655 802.093 47.9062 805.339 Q47.0468 808.586 47.0468 811.609 Q47.0468 816.861 49.0838 819.726 Q51.1208 822.558 54.8766 822.558 Q58.0276 822.558 59.6509 820.681 Q61.2423 818.771 62.229 813.487 L63.0247 809.604 Q64.3933 802.411 67.8627 799.005 Q71.3001 795.568 77.0929 795.568 Q83.9997 795.568 87.5645 800.215 Q91.1293 804.83 91.1293 813.774 Q91.1293 817.148 90.3654 820.967 Q89.6015 824.755 88.1056 828.829 L81.4853 828.829 Q83.6814 824.914 84.7954 821.158 Q85.9094 817.402 85.9094 813.774 Q85.9094 808.267 83.7451 805.276 Q81.5808 802.284 77.5704 802.284 Q74.0692 802.284 72.0958 804.448 Q70.1225 806.581 69.1358 811.482 L68.3719 815.397 Q66.9396 822.59 63.8841 825.805 Q60.8285 829.02 55.3859 829.02 Q49.0838 829.02 45.4554 824.596 Q41.8269 820.14 41.8269 812.342 Q41.8269 809 42.4317 805.53 Q43.0364 802.061 44.2459 798.432 Z" fill="#000000" fill-rule="evenodd" fill-opacity="1" /><path clip-path="url(#clip430)" d="M44.2459 757.055 L50.5161 757.055 Q48.7655 760.716 47.9062 763.962 Q47.0468 767.209 47.0468 770.232 Q47.0468 775.484 49.0838 778.349 Q51.1208 781.181 54.8766 781.181 Q58.0276 781.181 59.6509 779.303 Q61.2423 777.394 62.229 772.11 L63.0247 768.227 Q64.3933 761.034 67.8627 757.628 Q71.3001 754.191 77.0929 754.191 Q83.9997 754.191 87.5645 758.838 Q91.1293 763.453 91.1293 772.397 Q91.1293 775.771 90.3654 779.59 Q89.6015 783.378 88.1056 787.452 L81.4853 787.452 Q83.6814 783.537 84.7954 779.781 Q85.9094 776.025 85.9094 772.397 Q85.9094 766.89 83.7451 763.898 Q81.5808 760.907 77.5704 760.907 Q74.0692 760.907 72.0958 763.071 Q70.1225 765.203 69.1358 770.105 L68.3719 774.02 Q66.9396 781.213 63.8841 784.428 Q60.8285 787.643 55.3859 787.643 Q49.0838 787.643 45.4554 783.218 Q41.8269 778.762 41.8269 770.964 Q41.8269 767.622 42.4317 764.153 Q43.0364 760.684 44.2459 757.055 Z" fill="#000000" fill-rule="evenodd" fill-opacity="1" /><path clip-path="url(#clip430)" d="M82.1218 742.923 L82.1218 736.208 L90.2063 736.208 L90.2063 742.923 L82.1218 742.923 M56.4999 742.923 L56.4999 736.208 L64.5843 736.208 L64.5843 742.923 L56.4999 742.923 Z" fill="#000000" fill-rule="evenodd" fill-opacity="1" /><path clip-path="url(#clip430)" d="M42.6863 702.215 L42.6863 695.754 L71.5548 695.754 Q79.1936 695.754 82.5674 692.985 Q85.9094 690.215 85.9094 684.009 Q85.9094 677.834 82.5674 675.065 Q79.1936 672.296 71.5548 672.296 L42.6863 672.296 L42.6863 665.835 L72.3505 665.835 Q81.6444 665.835 86.3869 670.45 Q91.1293 675.033 91.1293 684.009 Q91.1293 693.016 86.3869 697.631 Q81.6444 702.215 72.3505 702.215 L42.6863 702.215 Z" fill="#000000" fill-rule="evenodd" fill-opacity="1" /><path clip-path="url(#clip430)" d="M44.2459 625.285 L50.5161 625.285 Q48.7655 628.946 47.9062 632.192 Q47.0468 635.439 47.0468 638.462 Q47.0468 643.714 49.0838 646.579 Q51.1208 649.411 54.8766 649.411 Q58.0276 649.411 59.6509 647.533 Q61.2423 645.624 62.229 640.34 L63.0247 636.457 Q64.3933 629.264 67.8627 625.858 Q71.3001 622.421 77.0929 622.421 Q83.9997 622.421 87.5645 627.068 Q91.1293 631.683 91.1293 640.627 Q91.1293 644 90.3654 647.82 Q89.6015 651.607 88.1056 655.681 L81.4853 655.681 Q83.6814 651.767 84.7954 648.011 Q85.9094 644.255 85.9094 640.627 Q85.9094 635.12 83.7451 632.128 Q81.5808 629.136 77.5704 629.136 Q74.0692 629.136 72.0958 631.301 Q70.1225 633.433 69.1358 638.335 L68.3719 642.25 Q66.9396 649.443 63.8841 652.658 Q60.8285 655.872 55.3859 655.872 Q49.0838 655.872 45.4554 651.448 Q41.8269 646.992 41.8269 639.194 Q41.8269 635.852 42.4317 632.383 Q43.0364 628.914 44.2459 625.285 Z" fill="#000000" fill-rule="evenodd" fill-opacity="1" /><path clip-path="url(#clip430)" d="M49.0202 595.303 L72.6688 604.024 L72.6688 586.55 L49.0202 595.303 M42.6863 598.931 L42.6863 591.642 L90.2063 573.532 L90.2063 580.216 L78.016 584.545 L78.016 605.965 L90.2063 610.294 L90.2063 617.073 L42.6863 598.931 Z" fill="#000000" fill-rule="evenodd" fill-opacity="1" /><path clip-path="url(#clip430)" d="M82.1218 565.352 L82.1218 558.636 L87.5963 558.636 L97.7815 563.856 L97.7815 567.962 L87.5963 565.352 L82.1218 565.352 Z" fill="#000000" fill-rule="evenodd" fill-opacity="1" /><path clip-path="url(#clip430)" d="M44.4369 519.614 L54.5583 519.614 L54.5583 507.551 L59.1098 507.551 L59.1098 519.614 L78.4616 519.614 Q82.8221 519.614 84.0634 518.437 Q85.3047 517.227 85.3047 513.567 L85.3047 507.551 L90.2063 507.551 L90.2063 513.567 Q90.2063 520.347 87.6918 522.925 Q85.1455 525.503 78.4616 525.503 L59.1098 525.503 L59.1098 529.8 L54.5583 529.8 L54.5583 525.503 L44.4369 525.503 L44.4369 519.614 Z" fill="#000000" fill-rule="evenodd" fill-opacity="1" /><path clip-path="url(#clip430)" d="M54.5583 499.849 L54.5583 493.993 L90.2063 493.993 L90.2063 499.849 L54.5583 499.849 M40.6811 499.849 L40.6811 493.993 L48.0971 493.993 L48.0971 499.849 L40.6811 499.849 Z" fill="#000000" fill-rule="evenodd" fill-opacity="1" /><path clip-path="url(#clip430)" d="M61.4015 453.984 Q57.4547 451.788 55.5768 448.732 Q53.699 445.677 53.699 441.539 Q53.699 435.969 57.6139 432.945 Q61.4969 429.922 68.6902 429.922 L90.2063 429.922 L90.2063 435.81 L68.8812 435.81 Q63.7568 435.81 61.2741 437.624 Q58.7915 439.438 58.7915 443.162 Q58.7915 447.714 61.8152 450.356 Q64.8389 452.997 70.0588 452.997 L90.2063 452.997 L90.2063 458.886 L68.8812 458.886 Q63.7249 458.886 61.2741 460.7 Q58.7915 462.514 58.7915 466.302 Q58.7915 470.79 61.8471 473.431 Q64.8708 476.073 70.0588 476.073 L90.2063 476.073 L90.2063 481.961 L54.5583 481.961 L54.5583 476.073 L60.0965 476.073 Q56.8182 474.068 55.2586 471.267 Q53.699 468.466 53.699 464.615 Q53.699 460.732 55.6723 458.026 Q57.6457 455.289 61.4015 453.984 Z" fill="#000000" fill-rule="evenodd" fill-opacity="1" /><path clip-path="url(#clip430)" d="M70.9182 387.749 L73.7828 387.749 L73.7828 414.676 Q79.8302 414.294 83.013 411.047 Q86.1641 407.769 86.1641 401.944 Q86.1641 398.571 85.3365 395.42 Q84.509 392.237 82.8539 389.118 L88.3921 389.118 Q89.7289 392.269 90.4291 395.579 Q91.1293 398.889 91.1293 402.295 Q91.1293 410.825 86.1641 415.822 Q81.1988 420.787 72.7324 420.787 Q63.9796 420.787 58.8552 416.076 Q53.699 411.334 53.699 403.313 Q53.699 396.12 58.3459 391.95 Q62.9611 387.749 70.9182 387.749 M69.1995 393.605 Q64.3933 393.669 61.5288 396.311 Q58.6642 398.921 58.6642 403.249 Q58.6642 408.151 61.4333 411.111 Q64.2024 414.039 69.2313 414.485 L69.1995 393.605 Z" fill="#000000" fill-rule="evenodd" fill-opacity="1" /><path clip-path="url(#clip430)" d="M82.1218 376.641 L82.1218 369.925 L90.2063 369.925 L90.2063 376.641 L82.1218 376.641 M56.4999 376.641 L56.4999 369.925 L64.5843 369.925 L64.5843 376.641 L56.4999 376.641 Z" fill="#000000" fill-rule="evenodd" fill-opacity="1" /><path clip-path="url(#clip430)" d="M84.7954 354.233 L84.7954 343.73 L48.5427 343.73 L50.8344 355.156 L44.9779 355.156 L42.6863 343.794 L42.6863 337.364 L84.7954 337.364 L84.7954 326.861 L90.2063 326.861 L90.2063 354.233 L84.7954 354.233 Z" fill="#000000" fill-rule="evenodd" fill-opacity="1" /><path clip-path="url(#clip430)" d="M46.9195 300.125 Q46.9195 305.09 51.8211 307.605 Q56.6908 310.087 66.494 310.087 Q76.2654 310.087 81.167 307.605 Q86.0367 305.09 86.0367 300.125 Q86.0367 295.128 81.167 292.645 Q76.2654 290.131 66.494 290.131 Q56.6908 290.131 51.8211 292.645 Q46.9195 295.128 46.9195 300.125 M41.8269 300.125 Q41.8269 292.136 48.1608 287.935 Q54.4628 283.701 66.494 283.701 Q78.4934 283.701 84.8273 287.935 Q91.1293 292.136 91.1293 300.125 Q91.1293 308.114 84.8273 312.347 Q78.4934 316.548 66.494 316.548 Q54.4628 316.548 48.1608 312.347 Q41.8269 308.114 41.8269 300.125 Z" fill="#000000" fill-rule="evenodd" fill-opacity="1" /><path clip-path="url(#clip430)" d="M46.9195 258.652 Q46.9195 263.618 51.8211 266.132 Q56.6908 268.615 66.494 268.615 Q76.2654 268.615 81.167 266.132 Q86.0367 263.618 86.0367 258.652 Q86.0367 253.655 81.167 251.173 Q76.2654 248.658 66.494 248.658 Q56.6908 248.658 51.8211 251.173 Q46.9195 253.655 46.9195 258.652 M41.8269 258.652 Q41.8269 250.663 48.1608 246.462 Q54.4628 242.229 66.494 242.229 Q78.4934 242.229 84.8273 246.462 Q91.1293 250.663 91.1293 258.652 Q91.1293 266.641 84.8273 270.875 Q78.4934 275.076 66.494 275.076 Q54.4628 275.076 48.1608 270.875 Q41.8269 266.641 41.8269 258.652 Z" fill="#000000" fill-rule="evenodd" fill-opacity="1" /><polyline clip-path="url(#clip432)" style="stroke:#009af9; stroke-linecap:round; stroke-linejoin:round; stroke-width:4; stroke-opacity:1; fill:none" points="
  350.696,494.775 361.004,162.986 371.311,209.933 381.618,251.448 391.926,188.736 402.233,167.709 412.54,210.873 422.848,153.236 433.155,150.396 443.462,203.076 
  453.77,163.633 464.077,135.636 474.384,155.17 484.691,170.86 494.999,171.721 505.306,218.931 515.613,197.939 525.921,221.687 536.228,149.368 546.535,163.05 
  556.843,213.128 567.15,177.643 577.457,191.513 587.765,208.025 598.072,186.082 608.379,191.091 618.687,196.731 628.994,218.344 639.301,192.59 649.609,152.883 
  659.916,209.374 670.223,167.828 680.531,159.062 690.838,166.985 701.145,202.512 711.453,201.319 721.76,185.39 732.067,201.741 742.374,264.514 752.682,173.486 
  762.989,140.789 773.296,179.376 783.604,143.47 793.911,199.485 804.218,149.296 814.526,195.764 824.833,166.512 835.14,159.332 845.448,203.181 855.755,206.057 
  866.062,143.635 876.37,202.689 886.677,158.659 896.984,193.345 907.292,139.258 917.599,191.941 927.906,193.324 938.214,144.532 948.521,224.688 958.828,185.52 
  969.136,195.328 979.443,137.668 989.75,186.334 1000.06,170.843 1010.36,179.654 1020.67,175.071 1030.98,170.088 1041.29,110.545 1051.59,137.294 1061.9,200.157 
  1072.21,169.953 1082.52,135.482 1092.82,198.515 1103.13,115.93 1113.44,192.193 1123.75,207.158 1134.05,202.835 1144.36,195.962 1154.67,148.613 1164.97,146.642 
  1175.28,139.958 1185.59,191.826 1195.9,201.504 1206.2,204.871 1216.51,164.965 1226.82,156.371 1237.13,213.191 1247.43,145.921 1257.74,204.483 1268.05,169.805 
  1278.36,170.526 1288.66,183.62 1298.97,150.68 1309.28,188.402 1319.58,149.031 1329.89,151.812 1340.2,203.479 1350.51,139.62 1360.81,121.433 1371.12,226.505 
  1381.43,158.745 1391.74,199.758 1402.04,201.885 1412.35,193.754 1422.66,196.461 1432.97,191.604 1443.27,178.151 1453.58,204.678 1463.89,122.779 1474.19,176.213 
  1484.5,187.077 1494.81,155.899 1505.12,138.066 1515.42,203.742 1525.73,201.95 1536.04,181.673 1546.35,152.854 1556.65,187.632 1566.96,172.385 1577.27,172.177 
  1587.57,207.341 1597.88,203.307 1608.19,203.012 1618.5,210.997 1628.8,205.1 1639.11,199.878 1649.42,177.445 1659.73,182.05 1670.03,184.827 1680.34,157.255 
  1690.65,203.828 1700.96,190.985 1711.26,113.334 1721.57,189.841 1731.88,168.371 1742.18,177.327 1752.49,162.206 1762.8,180.792 1773.11,224.135 1783.41,152.269 
  1793.72,139.541 1804.03,208.262 1814.34,197.936 1824.64,211.405 1834.95,158.862 1845.26,197.661 1855.57,187.809 1865.87,153.123 1876.18,199.957 1886.49,226.657 
  1896.79,196.759 1907.1,200.938 1917.41,177.417 1927.72,136.665 1938.02,170.264 1948.33,180.212 1958.64,169.44 1968.95,196.991 1979.25,110.236 1989.56,197.863 
  1999.87,187.763 2010.17,155.673 2020.48,185.083 2030.79,206.606 2041.1,158.026 2051.4,185.58 2061.71,200.173 2072.02,156.159 2082.33,155.849 2092.63,158.847 
  2102.94,193.729 2113.25,193.727 2123.56,160.422 2133.86,180.324 2144.17,221.632 2154.48,139.052 2164.78,178.387 2175.09,172.933 2185.4,185.137 2195.71,153.743 
  2206.01,165.966 2216.32,175.07 2226.63,178.073 2236.94,183.399 2247.24,164.3 2257.55,171.903 2267.86,168.945 2278.17,201.178 2288.47,164.568 2298.78,143.688 
  2309.09,205.759 2319.39,178.27 2329.7,160.876 2340.01,160.942 2350.32,195.455 2360.62,144.587 2370.93,158.428 2381.24,168.805 2391.55,171.955 2401.85,184.2 
  2412.16,158.016 2422.47,194.162 2432.78,205.07 2443.08,191.88 2453.39,183.109 2463.7,167.321 2474,174.44 2484.31,163.035 2494.62,192.497 2504.93,191.924 
  2515.23,184.687 2525.54,186.762 2535.85,169.545 2546.16,214.377 2556.46,166.99 2566.77,168.453 2577.08,206.535 2587.38,185.1 2597.69,223.658 2608,162.476 
  2618.31,189.87 2628.61,193.137 2638.92,180.031 2649.23,185.648 2659.54,193.866 2669.84,203.279 2680.15,194.461 2690.46,171.433 2700.77,154.422 2711.07,178.653 
  2721.38,169.752 2731.69,205.565 2741.99,199.986 2752.3,168.531 2762.61,158.203 2772.92,177.059 2783.22,205.407 2793.53,174.014 2803.84,196.443 2814.15,151.503 
  2824.45,206.506 2834.76,170.123 2845.07,188.332 2855.38,167.589 2865.68,163.499 2875.99,181.263 2886.3,165.033 2896.6,160.033 2906.91,184.292 2917.22,177.524 
  2927.53,177.496 2937.83,201.92 2948.14,131.357 2958.45,179.777 2968.76,163.24 2979.06,185.58 2989.37,170.339 2999.68,199.736 3009.99,179.219 
  "/>
</svg>
