<?xml version="1.0" encoding="utf-8"?>
<svg xmlns="http://www.w3.org/2000/svg" xmlns:xlink="http://www.w3.org/1999/xlink" width="800" height="300" viewBox="0 0 3200 1200">
<defs>
  <clipPath id="clip200">
    <rect x="0" y="0" width="3200" height="1200"/>
  </clipPath>
</defs>
<path clip-path="url(#clip200)" d="M0 1200 L3200 1200 L3200 0 L0 0  Z" fill="#ffffff" fill-rule="evenodd" fill-opacity="1"/>
<defs>
  <clipPath id="clip201">
    <rect x="640" y="0" width="2241" height="1200"/>
  </clipPath>
</defs>
<path clip-path="url(#clip200)" d="M270.918 1000.1 L3089.76 1000.1 L3089.76 110.236 L270.918 110.236  Z" fill="#ffffff" fill-rule="evenodd" fill-opacity="1"/>
<defs>
  <clipPath id="clip202">
    <rect x="270" y="110" width="2820" height="891"/>
  </clipPath>
</defs>
<polyline clip-path="url(#clip202)" style="stroke:#000000; stroke-linecap:round; stroke-linejoin:round; stroke-width:2; stroke-opacity:0.1; fill:none" points="314.76,1000.1 314.76,110.236 "/>
<polyline clip-path="url(#clip202)" style="stroke:#000000; stroke-linecap:round; stroke-linejoin:round; stroke-width:2; stroke-opacity:0.1; fill:none" points="1033.49,1000.1 1033.49,110.236 "/>
<polyline clip-path="url(#clip202)" style="stroke:#000000; stroke-linecap:round; stroke-linejoin:round; stroke-width:2; stroke-opacity:0.1; fill:none" points="1752.21,1000.1 1752.21,110.236 "/>
<polyline clip-path="url(#clip202)" style="stroke:#000000; stroke-linecap:round; stroke-linejoin:round; stroke-width:2; stroke-opacity:0.1; fill:none" points="2470.94,1000.1 2470.94,110.236 "/>
<polyline clip-path="url(#clip200)" style="stroke:#000000; stroke-linecap:round; stroke-linejoin:round; stroke-width:4; stroke-opacity:1; fill:none" points="270.918,1000.1 3089.76,1000.1 "/>
<polyline clip-path="url(#clip200)" style="stroke:#000000; stroke-linecap:round; stroke-linejoin:round; stroke-width:4; stroke-opacity:1; fill:none" points="314.76,1000.1 314.76,981.2 "/>
<polyline clip-path="url(#clip200)" style="stroke:#000000; stroke-linecap:round; stroke-linejoin:round; stroke-width:4; stroke-opacity:1; fill:none" points="1033.49,1000.1 1033.49,981.2 "/>
<polyline clip-path="url(#clip200)" style="stroke:#000000; stroke-linecap:round; stroke-linejoin:round; stroke-width:4; stroke-opacity:1; fill:none" points="1752.21,1000.1 1752.21,981.2 "/>
<polyline clip-path="url(#clip200)" style="stroke:#000000; stroke-linecap:round; stroke-linejoin:round; stroke-width:4; stroke-opacity:1; fill:none" points="2470.94,1000.1 2470.94,981.2 "/>
<path clip-path="url(#clip200)" d="M314.76 1037.42 Q311.149 1037.42 309.32 1040.98 Q307.515 1044.52 307.515 1051.65 Q307.515 1058.76 309.32 1062.32 Q311.149 1065.87 314.76 1065.87 Q318.394 1065.87 320.2 1062.32 Q322.028 1058.76 322.028 1051.65 Q322.028 1044.52 320.2 1040.98 Q318.394 1037.42 314.76 1037.42 M314.76 1033.71 Q320.57 1033.71 323.626 1038.32 Q326.704 1042.9 326.704 1051.65 Q326.704 1060.38 323.626 1064.99 Q320.57 1069.57 314.76 1069.57 Q308.95 1069.57 305.871 1064.99 Q302.816 1060.38 302.816 1051.65 Q302.816 1042.9 305.871 1038.32 Q308.95 1033.71 314.76 1033.71 Z" fill="#000000" fill-rule="nonzero" fill-opacity="1" /><path clip-path="url(#clip200)" d="M1012.26 1064.96 L1028.58 1064.96 L1028.58 1068.9 L1006.63 1068.9 L1006.63 1064.96 Q1009.3 1062.21 1013.88 1057.58 Q1018.49 1052.93 1019.67 1051.58 Q1021.91 1049.06 1022.79 1047.32 Q1023.7 1045.56 1023.7 1043.87 Q1023.7 1041.12 1021.75 1039.38 Q1019.83 1037.65 1016.73 1037.65 Q1014.53 1037.65 1012.07 1038.41 Q1009.64 1039.18 1006.87 1040.73 L1006.87 1036 Q1009.69 1034.87 1012.14 1034.29 Q1014.6 1033.71 1016.63 1033.71 Q1022.01 1033.71 1025.2 1036.4 Q1028.39 1039.08 1028.39 1043.57 Q1028.39 1045.7 1027.58 1047.62 Q1026.8 1049.52 1024.69 1052.12 Q1024.11 1052.79 1021.01 1056 Q1017.91 1059.2 1012.26 1064.96 Z" fill="#000000" fill-rule="nonzero" fill-opacity="1" /><path clip-path="url(#clip200)" d="M1048.39 1037.42 Q1044.78 1037.42 1042.95 1040.98 Q1041.15 1044.52 1041.15 1051.65 Q1041.15 1058.76 1042.95 1062.32 Q1044.78 1065.87 1048.39 1065.87 Q1052.03 1065.87 1053.83 1062.32 Q1055.66 1058.76 1055.66 1051.65 Q1055.66 1044.52 1053.83 1040.98 Q1052.03 1037.42 1048.39 1037.42 M1048.39 1033.71 Q1054.2 1033.71 1057.26 1038.32 Q1060.34 1042.9 1060.34 1051.65 Q1060.34 1060.38 1057.26 1064.99 Q1054.2 1069.57 1048.39 1069.57 Q1042.58 1069.57 1039.51 1064.99 Q1036.45 1060.38 1036.45 1051.65 Q1036.45 1042.9 1039.51 1038.32 Q1042.58 1033.71 1048.39 1033.71 Z" fill="#000000" fill-rule="nonzero" fill-opacity="1" /><path clip-path="url(#clip200)" d="M1740.38 1038.41 L1728.58 1056.86 L1740.38 1056.86 L1740.38 1038.41 M1739.16 1034.34 L1745.04 1034.34 L1745.04 1056.86 L1749.97 1056.86 L1749.97 1060.75 L1745.04 1060.75 L1745.04 1068.9 L1740.38 1068.9 L1740.38 1060.75 L1724.78 1060.75 L1724.78 1056.24 L1739.16 1034.34 Z" fill="#000000" fill-rule="nonzero" fill-opacity="1" /><path clip-path="url(#clip200)" d="M1767.7 1037.42 Q1764.09 1037.42 1762.26 1040.98 Q1760.45 1044.52 1760.45 1051.65 Q1760.45 1058.76 1762.26 1062.32 Q1764.09 1065.87 1767.7 1065.87 Q1771.33 1065.87 1773.14 1062.32 Q1774.97 1058.76 1774.97 1051.65 Q1774.97 1044.52 1773.14 1040.98 Q1771.33 1037.42 1767.7 1037.42 M1767.7 1033.71 Q1773.51 1033.71 1776.57 1038.32 Q1779.64 1042.9 1779.64 1051.65 Q1779.64 1060.38 1776.57 1064.99 Q1773.51 1069.57 1767.7 1069.57 Q1761.89 1069.57 1758.81 1064.99 Q1755.76 1060.38 1755.76 1051.65 Q1755.76 1042.9 1758.81 1038.32 Q1761.89 1033.71 1767.7 1033.71 Z" fill="#000000" fill-rule="nonzero" fill-opacity="1" /><path clip-path="url(#clip200)" d="M2456.35 1049.75 Q2453.2 1049.75 2451.35 1051.91 Q2449.52 1054.06 2449.52 1057.81 Q2449.52 1061.54 2451.35 1063.71 Q2453.2 1065.87 2456.35 1065.87 Q2459.49 1065.87 2461.32 1063.71 Q2463.17 1061.54 2463.17 1057.81 Q2463.17 1054.06 2461.32 1051.91 Q2459.49 1049.75 2456.35 1049.75 M2465.63 1035.1 L2465.63 1039.36 Q2463.87 1038.53 2462.06 1038.09 Q2460.28 1037.65 2458.52 1037.65 Q2453.89 1037.65 2451.44 1040.77 Q2449.01 1043.9 2448.66 1050.22 Q2450.03 1048.2 2452.09 1047.14 Q2454.15 1046.05 2456.62 1046.05 Q2461.83 1046.05 2464.84 1049.22 Q2467.87 1052.37 2467.87 1057.81 Q2467.87 1063.13 2464.72 1066.35 Q2461.58 1069.57 2456.35 1069.57 Q2450.35 1069.57 2447.18 1064.99 Q2444.01 1060.38 2444.01 1051.65 Q2444.01 1043.46 2447.9 1038.6 Q2451.79 1033.71 2458.34 1033.71 Q2460.1 1033.71 2461.88 1034.06 Q2463.68 1034.41 2465.63 1035.1 Z" fill="#000000" fill-rule="nonzero" fill-opacity="1" /><path clip-path="url(#clip200)" d="M2485.93 1037.42 Q2482.32 1037.42 2480.49 1040.98 Q2478.68 1044.52 2478.68 1051.65 Q2478.68 1058.76 2480.49 1062.32 Q2482.32 1065.87 2485.93 1065.87 Q2489.56 1065.87 2491.37 1062.32 Q2493.2 1058.76 2493.2 1051.65 Q2493.2 1044.52 2491.37 1040.98 Q2489.56 1037.42 2485.93 1037.42 M2485.93 1033.71 Q2491.74 1033.71 2494.79 1038.32 Q2497.87 1042.9 2497.87 1051.65 Q2497.87 1060.38 2494.79 1064.99 Q2491.74 1069.57 2485.93 1069.57 Q2480.12 1069.57 2477.04 1064.99 Q2473.98 1060.38 2473.98 1051.65 Q2473.98 1042.9 2477.04 1038.32 Q2480.12 1033.71 2485.93 1033.71 Z" fill="#000000" fill-rule="nonzero" fill-opacity="1" /><path clip-path="url(#clip200)" d="M1556.64 1109.44 L1563.07 1109.44 L1563.07 1151.55 L1586.21 1151.55 L1586.21 1156.96 L1556.64 1156.96 L1556.64 1109.44 Z" fill="#000000" fill-rule="nonzero" fill-opacity="1" /><path clip-path="url(#clip200)" d="M1592.7 1121.31 L1598.56 1121.31 L1598.56 1156.96 L1592.7 1156.96 L1592.7 1121.31 M1592.7 1107.44 L1598.56 1107.44 L1598.56 1114.85 L1592.7 1114.85 L1592.7 1107.44 Z" fill="#000000" fill-rule="nonzero" fill-opacity="1" /><path clip-path="url(#clip200)" d="M1640.44 1135.45 L1640.44 1156.96 L1634.59 1156.96 L1634.59 1135.64 Q1634.59 1130.58 1632.61 1128.06 Q1630.64 1125.55 1626.69 1125.55 Q1621.95 1125.55 1619.21 1128.57 Q1616.48 1131.59 1616.48 1136.81 L1616.48 1156.96 L1610.59 1156.96 L1610.59 1121.31 L1616.48 1121.31 L1616.48 1126.85 Q1618.58 1123.64 1621.41 1122.05 Q1624.27 1120.45 1628 1120.45 Q1634.14 1120.45 1637.29 1124.27 Q1640.44 1128.06 1640.44 1135.45 Z" fill="#000000" fill-rule="nonzero" fill-opacity="1" /><path clip-path="url(#clip200)" d="M1682.62 1137.67 L1682.62 1140.54 L1655.69 1140.54 Q1656.07 1146.59 1659.32 1149.77 Q1662.6 1152.92 1668.42 1152.92 Q1671.79 1152.92 1674.95 1152.09 Q1678.13 1151.26 1681.25 1149.61 L1681.25 1155.15 Q1678.1 1156.48 1674.79 1157.18 Q1671.48 1157.88 1668.07 1157.88 Q1659.54 1157.88 1654.54 1152.92 Q1649.58 1147.95 1649.58 1139.49 Q1649.58 1130.74 1654.29 1125.61 Q1659.03 1120.45 1667.05 1120.45 Q1674.25 1120.45 1678.42 1125.1 Q1682.62 1129.72 1682.62 1137.67 M1676.76 1135.95 Q1676.7 1131.15 1674.05 1128.28 Q1671.44 1125.42 1667.12 1125.42 Q1662.21 1125.42 1659.25 1128.19 Q1656.33 1130.96 1655.88 1135.99 L1676.76 1135.95 Z" fill="#000000" fill-rule="nonzero" fill-opacity="1" /><path clip-path="url(#clip200)" d="M1708.43 1139.04 Q1701.33 1139.04 1698.59 1140.67 Q1695.86 1142.29 1695.86 1146.2 Q1695.86 1149.32 1697.89 1151.17 Q1699.96 1152.98 1703.5 1152.98 Q1708.37 1152.98 1711.29 1149.55 Q1714.25 1146.08 1714.25 1140.35 L1714.25 1139.04 L1708.43 1139.04 M1720.11 1136.62 L1720.11 1156.96 L1714.25 1156.96 L1714.25 1151.55 Q1712.25 1154.8 1709.26 1156.36 Q1706.27 1157.88 1701.94 1157.88 Q1696.46 1157.88 1693.22 1154.83 Q1690 1151.74 1690 1146.59 Q1690 1140.57 1694.01 1137.51 Q1698.05 1134.46 1706.04 1134.46 L1714.25 1134.46 L1714.25 1133.89 Q1714.25 1129.84 1711.58 1127.65 Q1708.94 1125.42 1704.13 1125.42 Q1701.08 1125.42 1698.18 1126.15 Q1695.28 1126.88 1692.61 1128.35 L1692.61 1122.94 Q1695.83 1121.7 1698.85 1121.09 Q1701.87 1120.45 1704.74 1120.45 Q1712.47 1120.45 1716.29 1124.46 Q1720.11 1128.48 1720.11 1136.62 Z" fill="#000000" fill-rule="nonzero" fill-opacity="1" /><path clip-path="url(#clip200)" d="M1755.63 1138.72 Q1755.63 1132.36 1752.99 1128.86 Q1750.38 1125.36 1745.64 1125.36 Q1740.93 1125.36 1738.28 1128.86 Q1735.67 1132.36 1735.67 1138.72 Q1735.67 1145.06 1738.28 1148.56 Q1740.93 1152.06 1745.64 1152.06 Q1750.38 1152.06 1752.99 1148.56 Q1755.63 1145.06 1755.63 1138.72 M1761.49 1152.54 Q1761.49 1161.64 1757.45 1166.06 Q1753.4 1170.52 1745.06 1170.52 Q1741.98 1170.52 1739.24 1170.04 Q1736.5 1169.6 1733.92 1168.64 L1733.92 1162.95 Q1736.5 1164.35 1739.02 1165.01 Q1741.53 1165.68 1744.14 1165.68 Q1749.9 1165.68 1752.77 1162.66 Q1755.63 1159.67 1755.63 1153.59 L1755.63 1150.69 Q1753.82 1153.84 1750.98 1155.4 Q1748.15 1156.96 1744.2 1156.96 Q1737.65 1156.96 1733.64 1151.96 Q1729.63 1146.97 1729.63 1138.72 Q1729.63 1130.45 1733.64 1125.45 Q1737.65 1120.45 1744.2 1120.45 Q1748.15 1120.45 1750.98 1122.01 Q1753.82 1123.57 1755.63 1126.72 L1755.63 1121.31 L1761.49 1121.31 L1761.49 1152.54 Z" fill="#000000" fill-rule="nonzero" fill-opacity="1" /><path clip-path="url(#clip200)" d="M1804.04 1137.67 L1804.04 1140.54 L1777.12 1140.54 Q1777.5 1146.59 1780.74 1149.77 Q1784.02 1152.92 1789.85 1152.92 Q1793.22 1152.92 1796.37 1152.09 Q1799.55 1151.26 1802.67 1149.61 L1802.67 1155.15 Q1799.52 1156.48 1796.21 1157.18 Q1792.9 1157.88 1789.5 1157.88 Q1780.97 1157.88 1775.97 1152.92 Q1771 1147.95 1771 1139.49 Q1771 1130.74 1775.71 1125.61 Q1780.46 1120.45 1788.48 1120.45 Q1795.67 1120.45 1799.84 1125.1 Q1804.04 1129.72 1804.04 1137.67 M1798.19 1135.95 Q1798.12 1131.15 1795.48 1128.28 Q1792.87 1125.42 1788.54 1125.42 Q1783.64 1125.42 1780.68 1128.19 Q1777.75 1130.96 1777.31 1135.99 L1798.19 1135.95 Z" fill="#000000" fill-rule="nonzero" fill-opacity="1" /><polyline clip-path="url(#clip202)" style="stroke:#000000; stroke-linecap:round; stroke-linejoin:round; stroke-width:2; stroke-opacity:0.1; fill:none" points="270.918,1000.1 3089.76,1000.1 "/>
<polyline clip-path="url(#clip202)" style="stroke:#000000; stroke-linecap:round; stroke-linejoin:round; stroke-width:2; stroke-opacity:0.1; fill:none" points="270.918,659.029 3089.76,659.029 "/>
<polyline clip-path="url(#clip202)" style="stroke:#000000; stroke-linecap:round; stroke-linejoin:round; stroke-width:2; stroke-opacity:0.1; fill:none" points="270.918,317.961 3089.76,317.961 "/>
<polyline clip-path="url(#clip200)" style="stroke:#000000; stroke-linecap:round; stroke-linejoin:round; stroke-width:4; stroke-opacity:1; fill:none" points="270.918,1000.1 270.918,110.236 "/>
<polyline clip-path="url(#clip200)" style="stroke:#000000; stroke-linecap:round; stroke-linejoin:round; stroke-width:4; stroke-opacity:1; fill:none" points="270.918,1000.1 289.815,1000.1 "/>
<polyline clip-path="url(#clip200)" style="stroke:#000000; stroke-linecap:round; stroke-linejoin:round; stroke-width:4; stroke-opacity:1; fill:none" points="270.918,659.029 289.815,659.029 "/>
<polyline clip-path="url(#clip200)" style="stroke:#000000; stroke-linecap:round; stroke-linejoin:round; stroke-width:4; stroke-opacity:1; fill:none" points="270.918,317.961 289.815,317.961 "/>
<path clip-path="url(#clip200)" d="M154.902 1019.89 L162.54 1019.89 L162.54 993.525 L154.23 995.191 L154.23 990.932 L162.494 989.265 L167.17 989.265 L167.17 1019.89 L174.809 1019.89 L174.809 1023.83 L154.902 1023.83 L154.902 1019.89 Z" fill="#000000" fill-rule="nonzero" fill-opacity="1" /><path clip-path="url(#clip200)" d="M194.253 992.344 Q190.642 992.344 188.813 995.909 Q187.008 999.45 187.008 1006.58 Q187.008 1013.69 188.813 1017.25 Q190.642 1020.79 194.253 1020.79 Q197.887 1020.79 199.693 1017.25 Q201.522 1013.69 201.522 1006.58 Q201.522 999.45 199.693 995.909 Q197.887 992.344 194.253 992.344 M194.253 988.64 Q200.063 988.64 203.119 993.247 Q206.198 997.83 206.198 1006.58 Q206.198 1015.31 203.119 1019.91 Q200.063 1024.5 194.253 1024.5 Q188.443 1024.5 185.364 1019.91 Q182.309 1015.31 182.309 1006.58 Q182.309 997.83 185.364 993.247 Q188.443 988.64 194.253 988.64 Z" fill="#000000" fill-rule="nonzero" fill-opacity="1" /><path clip-path="url(#clip200)" d="M206.743 993.218 L212.95 993.218 L212.95 971.796 L206.198 973.15 L206.198 969.689 L212.912 968.335 L216.711 968.335 L216.711 993.218 L222.918 993.218 L222.918 996.415 L206.743 996.415 L206.743 993.218 Z" fill="#000000" fill-rule="nonzero" fill-opacity="1" /><path clip-path="url(#clip200)" d="M153.792 678.822 L161.431 678.822 L161.431 652.456 L153.121 654.123 L153.121 649.863 L161.384 648.197 L166.06 648.197 L166.06 678.822 L173.699 678.822 L173.699 682.757 L153.792 682.757 L153.792 678.822 Z" fill="#000000" fill-rule="nonzero" fill-opacity="1" /><path clip-path="url(#clip200)" d="M193.143 651.275 Q189.532 651.275 187.704 654.84 Q185.898 658.382 185.898 665.512 Q185.898 672.618 187.704 676.183 Q189.532 679.724 193.143 679.724 Q196.778 679.724 198.583 676.183 Q200.412 672.618 200.412 665.512 Q200.412 658.382 198.583 654.84 Q196.778 651.275 193.143 651.275 M193.143 647.572 Q198.954 647.572 202.009 652.178 Q205.088 656.762 205.088 665.512 Q205.088 674.238 202.009 678.845 Q198.954 683.428 193.143 683.428 Q187.333 683.428 184.255 678.845 Q181.199 674.238 181.199 665.512 Q181.199 656.762 184.255 652.178 Q187.333 647.572 193.143 647.572 Z" fill="#000000" fill-rule="nonzero" fill-opacity="1" /><path clip-path="url(#clip200)" d="M209.658 652.149 L222.918 652.149 L222.918 655.346 L205.088 655.346 L205.088 652.149 Q207.251 649.911 210.975 646.149 Q214.717 642.369 215.677 641.278 Q217.501 639.228 218.216 637.818 Q218.949 636.388 218.949 635.015 Q218.949 632.777 217.369 631.366 Q215.808 629.956 213.288 629.956 Q211.501 629.956 209.508 630.577 Q207.533 631.197 205.276 632.457 L205.276 628.621 Q207.57 627.699 209.564 627.229 Q211.558 626.759 213.213 626.759 Q217.576 626.759 220.172 628.94 Q222.767 631.122 222.767 634.771 Q222.767 636.501 222.109 638.062 Q221.469 639.604 219.758 641.711 Q219.288 642.256 216.767 644.87 Q214.247 647.466 209.658 652.149 Z" fill="#000000" fill-rule="nonzero" fill-opacity="1" /><path clip-path="url(#clip200)" d="M153.134 337.753 L160.772 337.753 L160.772 311.388 L152.462 313.054 L152.462 308.795 L160.726 307.128 L165.402 307.128 L165.402 337.753 L173.041 337.753 L173.041 341.688 L153.134 341.688 L153.134 337.753 Z" fill="#000000" fill-rule="nonzero" fill-opacity="1" /><path clip-path="url(#clip200)" d="M192.485 310.207 Q188.874 310.207 187.045 313.772 Q185.24 317.313 185.24 324.443 Q185.24 331.549 187.045 335.114 Q188.874 338.656 192.485 338.656 Q196.119 338.656 197.925 335.114 Q199.754 331.549 199.754 324.443 Q199.754 317.313 197.925 313.772 Q196.119 310.207 192.485 310.207 M192.485 306.503 Q198.295 306.503 201.351 311.11 Q204.43 315.693 204.43 324.443 Q204.43 333.17 201.351 337.776 Q198.295 342.36 192.485 342.36 Q186.675 342.36 183.596 337.776 Q180.541 333.17 180.541 324.443 Q180.541 315.693 183.596 311.11 Q186.675 306.503 192.485 306.503 Z" fill="#000000" fill-rule="nonzero" fill-opacity="1" /><path clip-path="url(#clip200)" d="M217.125 299.138 Q219.852 299.721 221.375 301.564 Q222.918 303.407 222.918 306.115 Q222.918 310.272 220.059 312.548 Q217.2 314.823 211.934 314.823 Q210.166 314.823 208.285 314.466 Q206.423 314.127 204.43 313.432 L204.43 309.764 Q206.009 310.686 207.89 311.156 Q209.771 311.626 211.821 311.626 Q215.395 311.626 217.256 310.215 Q219.137 308.805 219.137 306.115 Q219.137 303.633 217.388 302.241 Q215.658 300.83 212.555 300.83 L209.282 300.83 L209.282 297.708 L212.705 297.708 Q215.507 297.708 216.993 296.599 Q218.479 295.47 218.479 293.364 Q218.479 291.201 216.937 290.053 Q215.413 288.887 212.555 288.887 Q210.994 288.887 209.207 289.226 Q207.42 289.564 205.276 290.279 L205.276 286.894 Q207.439 286.292 209.32 285.991 Q211.219 285.69 212.893 285.69 Q217.219 285.69 219.739 287.665 Q222.259 289.621 222.259 292.969 Q222.259 295.301 220.924 296.918 Q219.589 298.517 217.125 299.138 Z" fill="#000000" fill-rule="nonzero" fill-opacity="1" /><path clip-path="url(#clip200)" d="M42.6863 825.789 L42.6863 795.743 L48.0971 795.743 L48.0971 819.36 L62.1653 819.36 L62.1653 796.73 L67.5762 796.73 L67.5762 819.36 L84.7954 819.36 L84.7954 795.17 L90.2063 795.17 L90.2063 825.789 L42.6863 825.789 Z" fill="#000000" fill-rule="nonzero" fill-opacity="1" /><path clip-path="url(#clip200)" d="M44.2459 756.116 L50.5161 756.116 Q48.7655 759.777 47.9062 763.023 Q47.0468 766.27 47.0468 769.293 Q47.0468 774.545 49.0838 777.41 Q51.1208 780.242 54.8766 780.242 Q58.0276 780.242 59.6509 778.365 Q61.2423 776.455 62.229 771.171 L63.0247 767.288 Q64.3933 760.095 67.8627 756.689 Q71.3001 753.252 77.0929 753.252 Q83.9997 753.252 87.5645 757.899 Q91.1293 762.514 91.1293 771.458 Q91.1293 774.832 90.3654 778.651 Q89.6015 782.439 88.1056 786.513 L81.4853 786.513 Q83.6814 782.598 84.7954 778.842 Q85.9094 775.086 85.9094 771.458 Q85.9094 765.951 83.7451 762.96 Q81.5808 759.968 77.5704 759.968 Q74.0692 759.968 72.0958 762.132 Q70.1225 764.265 69.1358 769.166 L68.3719 773.081 Q66.9396 780.274 63.8841 783.489 Q60.8285 786.704 55.3859 786.704 Q49.0838 786.704 45.4554 782.279 Q41.8269 777.823 41.8269 770.025 Q41.8269 766.683 42.4317 763.214 Q43.0364 759.745 44.2459 756.116 Z" fill="#000000" fill-rule="nonzero" fill-opacity="1" /><path clip-path="url(#clip200)" d="M44.2459 714.739 L50.5161 714.739 Q48.7655 718.4 47.9062 721.646 Q47.0468 724.893 47.0468 727.916 Q47.0468 733.168 49.0838 736.033 Q51.1208 738.865 54.8766 738.865 Q58.0276 738.865 59.6509 736.987 Q61.2423 735.078 62.229 729.794 L63.0247 725.911 Q64.3933 718.718 67.8627 715.312 Q71.3001 711.875 77.0929 711.875 Q83.9997 711.875 87.5645 716.522 Q91.1293 721.137 91.1293 730.081 Q91.1293 733.454 90.3654 737.274 Q89.6015 741.062 88.1056 745.136 L81.4853 745.136 Q83.6814 741.221 84.7954 737.465 Q85.9094 733.709 85.9094 730.081 Q85.9094 724.574 83.7451 721.582 Q81.5808 718.591 77.5704 718.591 Q74.0692 718.591 72.0958 720.755 Q70.1225 722.887 69.1358 727.789 L68.3719 731.704 Q66.9396 738.897 63.8841 742.112 Q60.8285 745.327 55.3859 745.327 Q49.0838 745.327 45.4554 740.902 Q41.8269 736.446 41.8269 728.648 Q41.8269 725.306 42.4317 721.837 Q43.0364 718.368 44.2459 714.739 Z" fill="#000000" fill-rule="nonzero" fill-opacity="1" /><path clip-path="url(#clip200)" d="M82.1218 700.607 L82.1218 693.892 L90.2063 693.892 L90.2063 700.607 L82.1218 700.607 M56.4999 700.607 L56.4999 693.892 L64.5843 693.892 L64.5843 700.607 L56.4999 700.607 Z" fill="#000000" fill-rule="nonzero" fill-opacity="1" /><path clip-path="url(#clip200)" d="M42.6863 659.899 L42.6863 653.438 L71.5548 653.438 Q79.1936 653.438 82.5674 650.668 Q85.9094 647.899 85.9094 641.693 Q85.9094 635.518 82.5674 632.749 Q79.1936 629.98 71.5548 629.98 L42.6863 629.98 L42.6863 623.519 L72.3505 623.519 Q81.6444 623.519 86.3869 628.134 Q91.1293 632.717 91.1293 641.693 Q91.1293 650.7 86.3869 655.315 Q81.6444 659.899 72.3505 659.899 L42.6863 659.899 Z" fill="#000000" fill-rule="nonzero" fill-opacity="1" /><path clip-path="url(#clip200)" d="M44.2459 582.969 L50.5161 582.969 Q48.7655 586.629 47.9062 589.876 Q47.0468 593.122 47.0468 596.146 Q47.0468 601.398 49.0838 604.262 Q51.1208 607.095 54.8766 607.095 Q58.0276 607.095 59.6509 605.217 Q61.2423 603.308 62.229 598.024 L63.0247 594.141 Q64.3933 586.948 67.8627 583.542 Q71.3001 580.105 77.0929 580.105 Q83.9997 580.105 87.5645 584.752 Q91.1293 589.367 91.1293 598.311 Q91.1293 601.684 90.3654 605.504 Q89.6015 609.291 88.1056 613.365 L81.4853 613.365 Q83.6814 609.451 84.7954 605.695 Q85.9094 601.939 85.9094 598.311 Q85.9094 592.804 83.7451 589.812 Q81.5808 586.82 77.5704 586.82 Q74.0692 586.82 72.0958 588.985 Q70.1225 591.117 69.1358 596.019 L68.3719 599.934 Q66.9396 607.127 63.8841 610.342 Q60.8285 613.556 55.3859 613.556 Q49.0838 613.556 45.4554 609.132 Q41.8269 604.676 41.8269 596.878 Q41.8269 593.536 42.4317 590.067 Q43.0364 586.598 44.2459 582.969 Z" fill="#000000" fill-rule="nonzero" fill-opacity="1" /><path clip-path="url(#clip200)" d="M49.0202 552.987 L72.6688 561.708 L72.6688 544.234 L49.0202 552.987 M42.6863 556.615 L42.6863 549.326 L90.2063 531.216 L90.2063 537.9 L78.016 542.229 L78.016 563.649 L90.2063 567.978 L90.2063 574.757 L42.6863 556.615 Z" fill="#000000" fill-rule="nonzero" fill-opacity="1" /><path clip-path="url(#clip200)" d="M82.1218 523.036 L82.1218 516.32 L87.5963 516.32 L97.7815 521.54 L97.7815 525.646 L87.5963 523.036 L82.1218 523.036 Z" fill="#000000" fill-rule="nonzero" fill-opacity="1" /><path clip-path="url(#clip200)" d="M44.4369 477.298 L54.5583 477.298 L54.5583 465.235 L59.1098 465.235 L59.1098 477.298 L78.4616 477.298 Q82.8221 477.298 84.0634 476.121 Q85.3047 474.911 85.3047 471.251 L85.3047 465.235 L90.2063 465.235 L90.2063 471.251 Q90.2063 478.031 87.6918 480.609 Q85.1455 483.187 78.4616 483.187 L59.1098 483.187 L59.1098 487.484 L54.5583 487.484 L54.5583 483.187 L44.4369 483.187 L44.4369 477.298 Z" fill="#000000" fill-rule="nonzero" fill-opacity="1" /><path clip-path="url(#clip200)" d="M54.5583 457.533 L54.5583 451.676 L90.2063 451.676 L90.2063 457.533 L54.5583 457.533 M40.6811 457.533 L40.6811 451.676 L48.0971 451.676 L48.0971 457.533 L40.6811 457.533 Z" fill="#000000" fill-rule="nonzero" fill-opacity="1" /><path clip-path="url(#clip200)" d="M61.4015 411.668 Q57.4547 409.472 55.5768 406.416 Q53.699 403.361 53.699 399.223 Q53.699 393.653 57.6139 390.629 Q61.4969 387.606 68.6902 387.606 L90.2063 387.606 L90.2063 393.494 L68.8812 393.494 Q63.7568 393.494 61.2741 395.308 Q58.7915 397.122 58.7915 400.846 Q58.7915 405.398 61.8152 408.04 Q64.8389 410.681 70.0588 410.681 L90.2063 410.681 L90.2063 416.57 L68.8812 416.57 Q63.7249 416.57 61.2741 418.384 Q58.7915 420.198 58.7915 423.986 Q58.7915 428.473 61.8471 431.115 Q64.8708 433.757 70.0588 433.757 L90.2063 433.757 L90.2063 439.645 L54.5583 439.645 L54.5583 433.757 L60.0965 433.757 Q56.8182 431.752 55.2586 428.951 Q53.699 426.15 53.699 422.299 Q53.699 418.416 55.6723 415.71 Q57.6457 412.973 61.4015 411.668 Z" fill="#000000" fill-rule="nonzero" fill-opacity="1" /><path clip-path="url(#clip200)" d="M70.9182 345.433 L73.7828 345.433 L73.7828 372.36 Q79.8302 371.978 83.013 368.731 Q86.1641 365.453 86.1641 359.628 Q86.1641 356.255 85.3365 353.104 Q84.509 349.921 82.8539 346.801 L88.3921 346.801 Q89.7289 349.953 90.4291 353.263 Q91.1293 356.573 91.1293 359.978 Q91.1293 368.509 86.1641 373.506 Q81.1988 378.471 72.7324 378.471 Q63.9796 378.471 58.8552 373.76 Q53.699 369.018 53.699 360.997 Q53.699 353.804 58.3459 349.634 Q62.9611 345.433 70.9182 345.433 M69.1995 351.289 Q64.3933 351.353 61.5288 353.995 Q58.6642 356.605 58.6642 360.933 Q58.6642 365.835 61.4333 368.795 Q64.2024 371.723 69.2313 372.169 L69.1995 351.289 Z" fill="#000000" fill-rule="nonzero" fill-opacity="1" /><path clip-path="url(#clip200)" d="M82.1218 334.325 L82.1218 327.609 L90.2063 327.609 L90.2063 334.325 L82.1218 334.325 M56.4999 334.325 L56.4999 327.609 L64.5843 327.609 L64.5843 334.325 L56.4999 334.325 Z" fill="#000000" fill-rule="nonzero" fill-opacity="1" /><path clip-path="url(#clip200)" d="M84.7954 311.917 L84.7954 301.414 L48.5427 301.414 L50.8344 312.84 L44.9779 312.84 L42.6863 301.478 L42.6863 295.048 L84.7954 295.048 L84.7954 284.545 L90.2063 284.545 L90.2063 311.917 L84.7954 311.917 Z" fill="#000000" fill-rule="nonzero" fill-opacity="1" /><polyline clip-path="url(#clip202)" style="stroke:#009af9; stroke-linecap:round; stroke-linejoin:round; stroke-width:4; stroke-opacity:1; fill:none" points="350.696,182.114 386.633,167.239 422.569,174.699 458.505,181.664 494.442,165.028 530.378,177.341 566.314,116.289 602.251,186.355 638.187,189.978 674.123,144.153 710.06,178.514 745.996,194.139 781.932,169.538 817.869,187.938 853.805,164.611 889.741,189.155 925.678,156.937 961.614,193.507 997.55,193.149 1033.49,177.128 1069.42,157.731 1105.36,169.89 1141.3,185.008 1177.23,189.841 1213.17,158.392 1249.1,196.423 1285.04,150.599 1320.98,200.706 1356.91,169.793 1392.85,159.643 1428.79,188.283 1464.72,172.201 1500.66,152.931 1536.6,202.294 1572.53,168.19 1608.47,167.73 1644.4,168.356 1680.34,158.587 1716.28,144.577 1752.21,162.175 1788.15,110.236 1824.09,192.85 1860.02,182.027 1895.96,153.466 1931.9,190.464 1967.83,189.446 2003.77,156.617 2039.7,178.812 2075.64,147.658 2111.58,139.058 2147.51,135.919 2183.45,172.73 2219.39,192.633 2255.32,162.101 2291.26,164.513 2327.19,164.752 2363.13,177.956 2399.07,157.439 2435,160.608 2470.94,174.978 2506.88,141.238 2542.81,152.396 2578.75,185.827 2614.69,161.605 2650.62,139.684 2686.56,184.989 2722.49,173.236 2758.43,171.039 2794.37,189.588 2830.3,165.121 2866.24,168.19 2902.18,183.851 2938.11,169.128 2974.05,173.555 3009.99,162.532 "/>
</svg>
