<?xml version="1.0" encoding="utf-8"?>
<svg xmlns="http://www.w3.org/2000/svg" xmlns:xlink="http://www.w3.org/1999/xlink" width="800" height="300" viewBox="0 0 3200 1200">
<defs>
  <clipPath id="clip830">
    <rect x="0" y="0" width="3200" height="1200"/>
  </clipPath>
</defs>
<path clip-path="url(#clip830)" d="
M0 1200 L3200 1200 L3200 0 L0 0  Z
  " fill="#ffffff" fill-rule="evenodd" fill-opacity="1"/>
<defs>
  <clipPath id="clip831">
    <rect x="640" y="0" width="2241" height="1200"/>
  </clipPath>
</defs>
<path clip-path="url(#clip830)" d="
M270.918 1000.1 L3089.76 1000.1 L3089.76 110.236 L270.918 110.236  Z
  " fill="#ffffff" fill-rule="evenodd" fill-opacity="1"/>
<defs>
  <clipPath id="clip832">
    <rect x="270" y="110" width="2820" height="891"/>
  </clipPath>
</defs>
<polyline clip-path="url(#clip832)" style="stroke:#000000; stroke-linecap:round; stroke-linejoin:round; stroke-width:2; stroke-opacity:0.1; fill:none" points="
  341.333,1000.1 341.333,110.236 
  "/>
<polyline clip-path="url(#clip832)" style="stroke:#000000; stroke-linecap:round; stroke-linejoin:round; stroke-width:2; stroke-opacity:0.1; fill:none" points="
  809.517,1000.1 809.517,110.236 
  "/>
<polyline clip-path="url(#clip832)" style="stroke:#000000; stroke-linecap:round; stroke-linejoin:round; stroke-width:2; stroke-opacity:0.1; fill:none" points="
  1277.7,1000.1 1277.7,110.236 
  "/>
<polyline clip-path="url(#clip832)" style="stroke:#000000; stroke-linecap:round; stroke-linejoin:round; stroke-width:2; stroke-opacity:0.1; fill:none" points="
  1745.89,1000.1 1745.89,110.236 
  "/>
<polyline clip-path="url(#clip832)" style="stroke:#000000; stroke-linecap:round; stroke-linejoin:round; stroke-width:2; stroke-opacity:0.1; fill:none" points="
  2214.07,1000.1 2214.07,110.236 
  "/>
<polyline clip-path="url(#clip832)" style="stroke:#000000; stroke-linecap:round; stroke-linejoin:round; stroke-width:2; stroke-opacity:0.1; fill:none" points="
  2682.26,1000.1 2682.26,110.236 
  "/>
<polyline clip-path="url(#clip830)" style="stroke:#000000; stroke-linecap:round; stroke-linejoin:round; stroke-width:4; stroke-opacity:1; fill:none" points="
  270.918,1000.1 3089.76,1000.1 
  "/>
<polyline clip-path="url(#clip830)" style="stroke:#000000; stroke-linecap:round; stroke-linejoin:round; stroke-width:4; stroke-opacity:1; fill:none" points="
  341.333,1000.1 341.333,981.2 
  "/>
<polyline clip-path="url(#clip830)" style="stroke:#000000; stroke-linecap:round; stroke-linejoin:round; stroke-width:4; stroke-opacity:1; fill:none" points="
  809.517,1000.1 809.517,981.2 
  "/>
<polyline clip-path="url(#clip830)" style="stroke:#000000; stroke-linecap:round; stroke-linejoin:round; stroke-width:4; stroke-opacity:1; fill:none" points="
  1277.7,1000.1 1277.7,981.2 
  "/>
<polyline clip-path="url(#clip830)" style="stroke:#000000; stroke-linecap:round; stroke-linejoin:round; stroke-width:4; stroke-opacity:1; fill:none" points="
  1745.89,1000.1 1745.89,981.2 
  "/>
<polyline clip-path="url(#clip830)" style="stroke:#000000; stroke-linecap:round; stroke-linejoin:round; stroke-width:4; stroke-opacity:1; fill:none" points="
  2214.07,1000.1 2214.07,981.2 
  "/>
<polyline clip-path="url(#clip830)" style="stroke:#000000; stroke-linecap:round; stroke-linejoin:round; stroke-width:4; stroke-opacity:1; fill:none" points="
  2682.26,1000.1 2682.26,981.2 
  "/>
<path clip-path="url(#clip830)" d="M341.333 1037.42 Q337.722 1037.42 335.893 1040.98 Q334.087 1044.52 334.087 1051.65 Q334.087 1058.76 335.893 1062.32 Q337.722 1065.87 341.333 1065.87 Q344.967 1065.87 346.772 1062.32 Q348.601 1058.76 348.601 1051.65 Q348.601 1044.52 346.772 1040.98 Q344.967 1037.42 341.333 1037.42 M341.333 1033.71 Q347.143 1033.71 350.198 1038.32 Q353.277 1042.9 353.277 1051.65 Q353.277 1060.38 350.198 1064.99 Q347.143 1069.57 341.333 1069.57 Q335.522 1069.57 332.444 1064.99 Q329.388 1060.38 329.388 1051.65 Q329.388 1042.9 332.444 1038.32 Q335.522 1033.71 341.333 1033.71 Z" fill="#000000" fill-rule="evenodd" fill-opacity="1" /><path clip-path="url(#clip830)" d="M784.216 1034.34 L802.573 1034.34 L802.573 1038.27 L788.499 1038.27 L788.499 1046.75 Q789.517 1046.4 790.536 1046.24 Q791.554 1046.05 792.573 1046.05 Q798.36 1046.05 801.74 1049.22 Q805.119 1052.39 805.119 1057.81 Q805.119 1063.39 801.647 1066.49 Q798.175 1069.57 791.855 1069.57 Q789.679 1069.57 787.411 1069.2 Q785.166 1068.83 782.758 1068.09 L782.758 1063.39 Q784.841 1064.52 787.064 1065.08 Q789.286 1065.63 791.763 1065.63 Q795.767 1065.63 798.105 1063.53 Q800.443 1061.42 800.443 1057.81 Q800.443 1054.2 798.105 1052.09 Q795.767 1049.99 791.763 1049.99 Q789.888 1049.99 788.013 1050.4 Q786.161 1050.82 784.216 1051.7 L784.216 1034.34 Z" fill="#000000" fill-rule="evenodd" fill-opacity="1" /><path clip-path="url(#clip830)" d="M824.332 1037.42 Q820.721 1037.42 818.892 1040.98 Q817.087 1044.52 817.087 1051.65 Q817.087 1058.76 818.892 1062.32 Q820.721 1065.87 824.332 1065.87 Q827.966 1065.87 829.772 1062.32 Q831.6 1058.76 831.6 1051.65 Q831.6 1044.52 829.772 1040.98 Q827.966 1037.42 824.332 1037.42 M824.332 1033.71 Q830.142 1033.71 833.198 1038.32 Q836.276 1042.9 836.276 1051.65 Q836.276 1060.38 833.198 1064.99 Q830.142 1069.57 824.332 1069.57 Q818.522 1069.57 815.443 1064.99 Q812.388 1060.38 812.388 1051.65 Q812.388 1042.9 815.443 1038.32 Q818.522 1033.71 824.332 1033.71 Z" fill="#000000" fill-rule="evenodd" fill-opacity="1" /><path clip-path="url(#clip830)" d="M1237.31 1064.96 L1244.95 1064.96 L1244.95 1038.6 L1236.64 1040.26 L1236.64 1036 L1244.9 1034.34 L1249.58 1034.34 L1249.58 1064.96 L1257.22 1064.96 L1257.22 1068.9 L1237.31 1068.9 L1237.31 1064.96 Z" fill="#000000" fill-rule="evenodd" fill-opacity="1" /><path clip-path="url(#clip830)" d="M1276.66 1037.42 Q1273.05 1037.42 1271.22 1040.98 Q1269.41 1044.52 1269.41 1051.65 Q1269.41 1058.76 1271.22 1062.32 Q1273.05 1065.87 1276.66 1065.87 Q1280.29 1065.87 1282.1 1062.32 Q1283.93 1058.76 1283.93 1051.65 Q1283.93 1044.52 1282.1 1040.98 Q1280.29 1037.42 1276.66 1037.42 M1276.66 1033.71 Q1282.47 1033.71 1285.53 1038.32 Q1288.6 1042.9 1288.6 1051.65 Q1288.6 1060.38 1285.53 1064.99 Q1282.47 1069.57 1276.66 1069.57 Q1270.85 1069.57 1267.77 1064.99 Q1264.72 1060.38 1264.72 1051.65 Q1264.72 1042.9 1267.77 1038.32 Q1270.85 1033.71 1276.66 1033.71 Z" fill="#000000" fill-rule="evenodd" fill-opacity="1" /><path clip-path="url(#clip830)" d="M1306.82 1037.42 Q1303.21 1037.42 1301.38 1040.98 Q1299.58 1044.52 1299.58 1051.65 Q1299.58 1058.76 1301.38 1062.32 Q1303.21 1065.87 1306.82 1065.87 Q1310.46 1065.87 1312.26 1062.32 Q1314.09 1058.76 1314.09 1051.65 Q1314.09 1044.52 1312.26 1040.98 Q1310.46 1037.42 1306.82 1037.42 M1306.82 1033.71 Q1312.63 1033.71 1315.69 1038.32 Q1318.77 1042.9 1318.77 1051.65 Q1318.77 1060.38 1315.69 1064.99 Q1312.63 1069.57 1306.82 1069.57 Q1301.01 1069.57 1297.93 1064.99 Q1294.88 1060.38 1294.88 1051.65 Q1294.88 1042.9 1297.93 1038.32 Q1301.01 1033.71 1306.82 1033.71 Z" fill="#000000" fill-rule="evenodd" fill-opacity="1" /><path clip-path="url(#clip830)" d="M1705.49 1064.96 L1713.13 1064.96 L1713.13 1038.6 L1704.82 1040.26 L1704.82 1036 L1713.09 1034.34 L1717.76 1034.34 L1717.76 1064.96 L1725.4 1064.96 L1725.4 1068.9 L1705.49 1068.9 L1705.49 1064.96 Z" fill="#000000" fill-rule="evenodd" fill-opacity="1" /><path clip-path="url(#clip830)" d="M1734.89 1034.34 L1753.25 1034.34 L1753.25 1038.27 L1739.17 1038.27 L1739.17 1046.75 Q1740.19 1046.4 1741.21 1046.24 Q1742.23 1046.05 1743.25 1046.05 Q1749.03 1046.05 1752.41 1049.22 Q1755.79 1052.39 1755.79 1057.81 Q1755.79 1063.39 1752.32 1066.49 Q1748.85 1069.57 1742.53 1069.57 Q1740.35 1069.57 1738.09 1069.2 Q1735.84 1068.83 1733.43 1068.09 L1733.43 1063.39 Q1735.52 1064.52 1737.74 1065.08 Q1739.96 1065.63 1742.44 1065.63 Q1746.44 1065.63 1748.78 1063.53 Q1751.12 1061.42 1751.12 1057.81 Q1751.12 1054.2 1748.78 1052.09 Q1746.44 1049.99 1742.44 1049.99 Q1740.56 1049.99 1738.69 1050.4 Q1736.84 1050.82 1734.89 1051.7 L1734.89 1034.34 Z" fill="#000000" fill-rule="evenodd" fill-opacity="1" /><path clip-path="url(#clip830)" d="M1775.01 1037.42 Q1771.4 1037.42 1769.57 1040.98 Q1767.76 1044.52 1767.76 1051.65 Q1767.76 1058.76 1769.57 1062.32 Q1771.4 1065.87 1775.01 1065.87 Q1778.64 1065.87 1780.45 1062.32 Q1782.28 1058.76 1782.28 1051.65 Q1782.28 1044.52 1780.45 1040.98 Q1778.64 1037.42 1775.01 1037.42 M1775.01 1033.71 Q1780.82 1033.71 1783.87 1038.32 Q1786.95 1042.9 1786.95 1051.65 Q1786.95 1060.38 1783.87 1064.99 Q1780.82 1069.57 1775.01 1069.57 Q1769.2 1069.57 1766.12 1064.99 Q1763.06 1060.38 1763.06 1051.65 Q1763.06 1042.9 1766.12 1038.32 Q1769.2 1033.71 1775.01 1033.71 Z" fill="#000000" fill-rule="evenodd" fill-opacity="1" /><path clip-path="url(#clip830)" d="M2177.76 1064.96 L2194.08 1064.96 L2194.08 1068.9 L2172.14 1068.9 L2172.14 1064.96 Q2174.8 1062.21 2179.38 1057.58 Q2183.99 1052.93 2185.17 1051.58 Q2187.42 1049.06 2188.3 1047.32 Q2189.2 1045.56 2189.2 1043.87 Q2189.2 1041.12 2187.25 1039.38 Q2185.33 1037.65 2182.23 1037.65 Q2180.03 1037.65 2177.58 1038.41 Q2175.15 1039.18 2172.37 1040.73 L2172.37 1036 Q2175.19 1034.87 2177.65 1034.29 Q2180.1 1033.71 2182.14 1033.71 Q2187.51 1033.71 2190.7 1036.4 Q2193.9 1039.08 2193.9 1043.57 Q2193.9 1045.7 2193.09 1047.62 Q2192.3 1049.52 2190.19 1052.12 Q2189.62 1052.79 2186.51 1056 Q2183.41 1059.2 2177.76 1064.96 Z" fill="#000000" fill-rule="evenodd" fill-opacity="1" /><path clip-path="url(#clip830)" d="M2213.9 1037.42 Q2210.29 1037.42 2208.46 1040.98 Q2206.65 1044.52 2206.65 1051.65 Q2206.65 1058.76 2208.46 1062.32 Q2210.29 1065.87 2213.9 1065.87 Q2217.53 1065.87 2219.34 1062.32 Q2221.17 1058.76 2221.17 1051.65 Q2221.17 1044.52 2219.34 1040.98 Q2217.53 1037.42 2213.9 1037.42 M2213.9 1033.71 Q2219.71 1033.71 2222.76 1038.32 Q2225.84 1042.9 2225.84 1051.65 Q2225.84 1060.38 2222.76 1064.99 Q2219.71 1069.57 2213.9 1069.57 Q2208.09 1069.57 2205.01 1064.99 Q2201.95 1060.38 2201.95 1051.65 Q2201.95 1042.9 2205.01 1038.32 Q2208.09 1033.71 2213.9 1033.71 Z" fill="#000000" fill-rule="evenodd" fill-opacity="1" /><path clip-path="url(#clip830)" d="M2244.06 1037.42 Q2240.45 1037.42 2238.62 1040.98 Q2236.81 1044.52 2236.81 1051.65 Q2236.81 1058.76 2238.62 1062.32 Q2240.45 1065.87 2244.06 1065.87 Q2247.69 1065.87 2249.5 1062.32 Q2251.33 1058.76 2251.33 1051.65 Q2251.33 1044.52 2249.5 1040.98 Q2247.69 1037.42 2244.06 1037.42 M2244.06 1033.71 Q2249.87 1033.71 2252.93 1038.32 Q2256 1042.9 2256 1051.65 Q2256 1060.38 2252.93 1064.99 Q2249.87 1069.57 2244.06 1069.57 Q2238.25 1069.57 2235.17 1064.99 Q2232.12 1060.38 2232.12 1051.65 Q2232.12 1042.9 2235.17 1038.32 Q2238.25 1033.71 2244.06 1033.71 Z" fill="#000000" fill-rule="evenodd" fill-opacity="1" /><path clip-path="url(#clip830)" d="M2645.95 1064.96 L2662.27 1064.96 L2662.27 1068.9 L2640.32 1068.9 L2640.32 1064.96 Q2642.99 1062.21 2647.57 1057.58 Q2652.18 1052.93 2653.36 1051.58 Q2655.6 1049.06 2656.48 1047.32 Q2657.38 1045.56 2657.38 1043.87 Q2657.38 1041.12 2655.44 1039.38 Q2653.52 1037.65 2650.42 1037.65 Q2648.22 1037.65 2645.76 1038.41 Q2643.33 1039.18 2640.55 1040.73 L2640.55 1036 Q2643.38 1034.87 2645.83 1034.29 Q2648.29 1033.71 2650.32 1033.71 Q2655.69 1033.71 2658.89 1036.4 Q2662.08 1039.08 2662.08 1043.57 Q2662.08 1045.7 2661.27 1047.62 Q2660.49 1049.52 2658.38 1052.12 Q2657.8 1052.79 2654.7 1056 Q2651.6 1059.2 2645.95 1064.96 Z" fill="#000000" fill-rule="evenodd" fill-opacity="1" /><path clip-path="url(#clip830)" d="M2672.13 1034.34 L2690.48 1034.34 L2690.48 1038.27 L2676.41 1038.27 L2676.41 1046.75 Q2677.43 1046.4 2678.45 1046.24 Q2679.47 1046.05 2680.49 1046.05 Q2686.27 1046.05 2689.65 1049.22 Q2693.03 1052.39 2693.03 1057.81 Q2693.03 1063.39 2689.56 1066.49 Q2686.09 1069.57 2679.77 1069.57 Q2677.59 1069.57 2675.32 1069.2 Q2673.08 1068.83 2670.67 1068.09 L2670.67 1063.39 Q2672.75 1064.52 2674.98 1065.08 Q2677.2 1065.63 2679.67 1065.63 Q2683.68 1065.63 2686.02 1063.53 Q2688.36 1061.42 2688.36 1057.81 Q2688.36 1054.2 2686.02 1052.09 Q2683.68 1049.99 2679.67 1049.99 Q2677.8 1049.99 2675.92 1050.4 Q2674.07 1050.82 2672.13 1051.7 L2672.13 1034.34 Z" fill="#000000" fill-rule="evenodd" fill-opacity="1" /><path clip-path="url(#clip830)" d="M2712.24 1037.42 Q2708.63 1037.42 2706.8 1040.98 Q2705 1044.52 2705 1051.65 Q2705 1058.76 2706.8 1062.32 Q2708.63 1065.87 2712.24 1065.87 Q2715.88 1065.87 2717.68 1062.32 Q2719.51 1058.76 2719.51 1051.65 Q2719.51 1044.52 2717.68 1040.98 Q2715.88 1037.42 2712.24 1037.42 M2712.24 1033.71 Q2718.05 1033.71 2721.11 1038.32 Q2724.19 1042.9 2724.19 1051.65 Q2724.19 1060.38 2721.11 1064.99 Q2718.05 1069.57 2712.24 1069.57 Q2706.43 1069.57 2703.36 1064.99 Q2700.3 1060.38 2700.3 1051.65 Q2700.3 1042.9 2703.36 1038.32 Q2706.43 1033.71 2712.24 1033.71 Z" fill="#000000" fill-rule="evenodd" fill-opacity="1" /><path clip-path="url(#clip830)" d="M1556.64 1109.44 L1563.07 1109.44 L1563.07 1151.55 L1586.21 1151.55 L1586.21 1156.96 L1556.64 1156.96 L1556.64 1109.44 Z" fill="#000000" fill-rule="evenodd" fill-opacity="1" /><path clip-path="url(#clip830)" d="M1592.7 1121.31 L1598.56 1121.31 L1598.56 1156.96 L1592.7 1156.96 L1592.7 1121.31 M1592.7 1107.44 L1598.56 1107.44 L1598.56 1114.85 L1592.7 1114.85 L1592.7 1107.44 Z" fill="#000000" fill-rule="evenodd" fill-opacity="1" /><path clip-path="url(#clip830)" d="M1640.44 1135.45 L1640.44 1156.96 L1634.59 1156.96 L1634.59 1135.64 Q1634.59 1130.58 1632.61 1128.06 Q1630.64 1125.55 1626.69 1125.55 Q1621.95 1125.55 1619.21 1128.57 Q1616.48 1131.59 1616.48 1136.81 L1616.48 1156.96 L1610.59 1156.96 L1610.59 1121.31 L1616.48 1121.31 L1616.48 1126.85 Q1618.58 1123.64 1621.41 1122.05 Q1624.27 1120.45 1628 1120.45 Q1634.14 1120.45 1637.29 1124.27 Q1640.44 1128.06 1640.44 1135.45 Z" fill="#000000" fill-rule="evenodd" fill-opacity="1" /><path clip-path="url(#clip830)" d="M1682.62 1137.67 L1682.62 1140.54 L1655.69 1140.54 Q1656.07 1146.59 1659.32 1149.77 Q1662.6 1152.92 1668.42 1152.92 Q1671.79 1152.92 1674.95 1152.09 Q1678.13 1151.26 1681.25 1149.61 L1681.25 1155.15 Q1678.1 1156.48 1674.79 1157.18 Q1671.48 1157.88 1668.07 1157.88 Q1659.54 1157.88 1654.54 1152.92 Q1649.58 1147.95 1649.58 1139.49 Q1649.58 1130.74 1654.29 1125.61 Q1659.03 1120.45 1667.05 1120.45 Q1674.25 1120.45 1678.42 1125.1 Q1682.62 1129.72 1682.62 1137.67 M1676.76 1135.95 Q1676.7 1131.15 1674.05 1128.28 Q1671.44 1125.42 1667.12 1125.42 Q1662.21 1125.42 1659.25 1128.19 Q1656.33 1130.96 1655.88 1135.99 L1676.76 1135.95 Z" fill="#000000" fill-rule="evenodd" fill-opacity="1" /><path clip-path="url(#clip830)" d="M1708.43 1139.04 Q1701.33 1139.04 1698.59 1140.67 Q1695.86 1142.29 1695.86 1146.2 Q1695.86 1149.32 1697.89 1151.17 Q1699.96 1152.98 1703.5 1152.98 Q1708.37 1152.98 1711.29 1149.55 Q1714.25 1146.08 1714.25 1140.35 L1714.25 1139.04 L1708.43 1139.04 M1720.11 1136.62 L1720.11 1156.96 L1714.25 1156.96 L1714.25 1151.55 Q1712.25 1154.8 1709.26 1156.36 Q1706.27 1157.88 1701.94 1157.88 Q1696.46 1157.88 1693.22 1154.83 Q1690 1151.74 1690 1146.59 Q1690 1140.57 1694.01 1137.51 Q1698.05 1134.46 1706.04 1134.46 L1714.25 1134.46 L1714.25 1133.89 Q1714.25 1129.84 1711.58 1127.65 Q1708.94 1125.42 1704.13 1125.42 Q1701.08 1125.42 1698.18 1126.15 Q1695.28 1126.88 1692.61 1128.35 L1692.61 1122.94 Q1695.83 1121.7 1698.85 1121.09 Q1701.87 1120.45 1704.74 1120.45 Q1712.47 1120.45 1716.29 1124.46 Q1720.11 1128.48 1720.11 1136.62 Z" fill="#000000" fill-rule="evenodd" fill-opacity="1" /><path clip-path="url(#clip830)" d="M1755.63 1138.72 Q1755.63 1132.36 1752.99 1128.86 Q1750.38 1125.36 1745.64 1125.36 Q1740.93 1125.36 1738.28 1128.86 Q1735.67 1132.36 1735.67 1138.72 Q1735.67 1145.06 1738.28 1148.56 Q1740.93 1152.06 1745.64 1152.06 Q1750.38 1152.06 1752.99 1148.56 Q1755.63 1145.06 1755.63 1138.72 M1761.49 1152.54 Q1761.49 1161.64 1757.45 1166.06 Q1753.4 1170.52 1745.06 1170.52 Q1741.98 1170.52 1739.24 1170.04 Q1736.5 1169.6 1733.92 1168.64 L1733.92 1162.95 Q1736.5 1164.35 1739.02 1165.01 Q1741.53 1165.68 1744.14 1165.68 Q1749.9 1165.68 1752.77 1162.66 Q1755.63 1159.67 1755.63 1153.59 L1755.63 1150.69 Q1753.82 1153.84 1750.98 1155.4 Q1748.15 1156.96 1744.2 1156.96 Q1737.65 1156.96 1733.64 1151.96 Q1729.63 1146.97 1729.63 1138.72 Q1729.63 1130.45 1733.64 1125.45 Q1737.65 1120.45 1744.2 1120.45 Q1748.15 1120.45 1750.98 1122.01 Q1753.82 1123.57 1755.63 1126.72 L1755.63 1121.31 L1761.49 1121.31 L1761.49 1152.54 Z" fill="#000000" fill-rule="evenodd" fill-opacity="1" /><path clip-path="url(#clip830)" d="M1804.04 1137.67 L1804.04 1140.54 L1777.12 1140.54 Q1777.5 1146.59 1780.74 1149.77 Q1784.02 1152.92 1789.85 1152.92 Q1793.22 1152.92 1796.37 1152.09 Q1799.55 1151.26 1802.67 1149.61 L1802.67 1155.15 Q1799.52 1156.48 1796.21 1157.18 Q1792.9 1157.88 1789.5 1157.88 Q1780.97 1157.88 1775.97 1152.92 Q1771 1147.95 1771 1139.49 Q1771 1130.74 1775.71 1125.61 Q1780.46 1120.45 1788.48 1120.45 Q1795.67 1120.45 1799.84 1125.1 Q1804.04 1129.72 1804.04 1137.67 M1798.19 1135.95 Q1798.12 1131.15 1795.48 1128.28 Q1792.87 1125.42 1788.54 1125.42 Q1783.64 1125.42 1780.68 1128.19 Q1777.75 1130.96 1777.31 1135.99 L1798.19 1135.95 Z" fill="#000000" fill-rule="evenodd" fill-opacity="1" /><polyline clip-path="url(#clip832)" style="stroke:#000000; stroke-linecap:round; stroke-linejoin:round; stroke-width:2; stroke-opacity:0.1; fill:none" points="
  270.918,1000.1 3089.76,1000.1 
  "/>
<polyline clip-path="url(#clip832)" style="stroke:#000000; stroke-linecap:round; stroke-linejoin:round; stroke-width:2; stroke-opacity:0.1; fill:none" points="
  270.918,659.035 3089.76,659.035 
  "/>
<polyline clip-path="url(#clip832)" style="stroke:#000000; stroke-linecap:round; stroke-linejoin:round; stroke-width:2; stroke-opacity:0.1; fill:none" points="
  270.918,317.971 3089.76,317.971 
  "/>
<polyline clip-path="url(#clip830)" style="stroke:#000000; stroke-linecap:round; stroke-linejoin:round; stroke-width:4; stroke-opacity:1; fill:none" points="
  270.918,1000.1 270.918,110.236 
  "/>
<polyline clip-path="url(#clip830)" style="stroke:#000000; stroke-linecap:round; stroke-linejoin:round; stroke-width:4; stroke-opacity:1; fill:none" points="
  270.918,1000.1 289.815,1000.1 
  "/>
<polyline clip-path="url(#clip830)" style="stroke:#000000; stroke-linecap:round; stroke-linejoin:round; stroke-width:4; stroke-opacity:1; fill:none" points="
  270.918,659.035 289.815,659.035 
  "/>
<polyline clip-path="url(#clip830)" style="stroke:#000000; stroke-linecap:round; stroke-linejoin:round; stroke-width:4; stroke-opacity:1; fill:none" points="
  270.918,317.971 289.815,317.971 
  "/>
<path clip-path="url(#clip830)" d="M154.902 1019.89 L162.54 1019.89 L162.54 993.525 L154.23 995.191 L154.23 990.932 L162.494 989.265 L167.17 989.265 L167.17 1019.89 L174.809 1019.89 L174.809 1023.83 L154.902 1023.83 L154.902 1019.89 Z" fill="#000000" fill-rule="evenodd" fill-opacity="1" /><path clip-path="url(#clip830)" d="M194.253 992.344 Q190.642 992.344 188.813 995.909 Q187.008 999.45 187.008 1006.58 Q187.008 1013.69 188.813 1017.25 Q190.642 1020.79 194.253 1020.79 Q197.887 1020.79 199.693 1017.25 Q201.522 1013.69 201.522 1006.58 Q201.522 999.45 199.693 995.909 Q197.887 992.344 194.253 992.344 M194.253 988.64 Q200.063 988.64 203.119 993.247 Q206.198 997.83 206.198 1006.58 Q206.198 1015.31 203.119 1019.91 Q200.063 1024.5 194.253 1024.5 Q188.443 1024.5 185.364 1019.91 Q182.309 1015.31 182.309 1006.58 Q182.309 997.83 185.364 993.247 Q188.443 988.64 194.253 988.64 Z" fill="#000000" fill-rule="evenodd" fill-opacity="1" /><path clip-path="url(#clip830)" d="M206.743 993.218 L212.95 993.218 L212.95 971.796 L206.198 973.15 L206.198 969.689 L212.912 968.335 L216.711 968.335 L216.711 993.218 L222.918 993.218 L222.918 996.415 L206.743 996.415 L206.743 993.218 Z" fill="#000000" fill-rule="evenodd" fill-opacity="1" /><path clip-path="url(#clip830)" d="M153.792 678.827 L161.431 678.827 L161.431 652.461 L153.121 654.128 L153.121 649.869 L161.384 648.202 L166.06 648.202 L166.06 678.827 L173.699 678.827 L173.699 682.762 L153.792 682.762 L153.792 678.827 Z" fill="#000000" fill-rule="evenodd" fill-opacity="1" /><path clip-path="url(#clip830)" d="M193.143 651.281 Q189.532 651.281 187.704 654.846 Q185.898 658.387 185.898 665.517 Q185.898 672.623 187.704 676.188 Q189.532 679.73 193.143 679.73 Q196.778 679.73 198.583 676.188 Q200.412 672.623 200.412 665.517 Q200.412 658.387 198.583 654.846 Q196.778 651.281 193.143 651.281 M193.143 647.577 Q198.954 647.577 202.009 652.184 Q205.088 656.767 205.088 665.517 Q205.088 674.244 202.009 678.85 Q198.954 683.433 193.143 683.433 Q187.333 683.433 184.255 678.85 Q181.199 674.244 181.199 665.517 Q181.199 656.767 184.255 652.184 Q187.333 647.577 193.143 647.577 Z" fill="#000000" fill-rule="evenodd" fill-opacity="1" /><path clip-path="url(#clip830)" d="M209.658 652.154 L222.918 652.154 L222.918 655.352 L205.088 655.352 L205.088 652.154 Q207.251 649.916 210.975 646.155 Q214.717 642.374 215.677 641.284 Q217.501 639.234 218.216 637.823 Q218.949 636.394 218.949 635.021 Q218.949 632.782 217.369 631.372 Q215.808 629.961 213.288 629.961 Q211.501 629.961 209.508 630.582 Q207.533 631.203 205.276 632.463 L205.276 628.626 Q207.57 627.704 209.564 627.234 Q211.558 626.764 213.213 626.764 Q217.576 626.764 220.172 628.946 Q222.767 631.127 222.767 634.776 Q222.767 636.506 222.109 638.067 Q221.469 639.61 219.758 641.716 Q219.288 642.262 216.767 644.876 Q214.247 647.471 209.658 652.154 Z" fill="#000000" fill-rule="evenodd" fill-opacity="1" /><path clip-path="url(#clip830)" d="M153.134 337.764 L160.772 337.764 L160.772 311.398 L152.462 313.065 L152.462 308.806 L160.726 307.139 L165.402 307.139 L165.402 337.764 L173.041 337.764 L173.041 341.699 L153.134 341.699 L153.134 337.764 Z" fill="#000000" fill-rule="evenodd" fill-opacity="1" /><path clip-path="url(#clip830)" d="M192.485 310.218 Q188.874 310.218 187.045 313.783 Q185.24 317.324 185.24 324.454 Q185.24 331.56 187.045 335.125 Q188.874 338.667 192.485 338.667 Q196.119 338.667 197.925 335.125 Q199.754 331.56 199.754 324.454 Q199.754 317.324 197.925 313.783 Q196.119 310.218 192.485 310.218 M192.485 306.514 Q198.295 306.514 201.351 311.121 Q204.43 315.704 204.43 324.454 Q204.43 333.181 201.351 337.787 Q198.295 342.37 192.485 342.37 Q186.675 342.37 183.596 337.787 Q180.541 333.181 180.541 324.454 Q180.541 315.704 183.596 311.121 Q186.675 306.514 192.485 306.514 Z" fill="#000000" fill-rule="evenodd" fill-opacity="1" /><path clip-path="url(#clip830)" d="M217.125 299.148 Q219.852 299.731 221.375 301.575 Q222.918 303.418 222.918 306.126 Q222.918 310.283 220.059 312.558 Q217.2 314.834 211.934 314.834 Q210.166 314.834 208.285 314.477 Q206.423 314.138 204.43 313.442 L204.43 309.775 Q206.009 310.696 207.89 311.167 Q209.771 311.637 211.821 311.637 Q215.395 311.637 217.256 310.226 Q219.137 308.816 219.137 306.126 Q219.137 303.643 217.388 302.252 Q215.658 300.841 212.555 300.841 L209.282 300.841 L209.282 297.719 L212.705 297.719 Q215.507 297.719 216.993 296.609 Q218.479 295.481 218.479 293.374 Q218.479 291.212 216.937 290.064 Q215.413 288.898 212.555 288.898 Q210.994 288.898 209.207 289.237 Q207.42 289.575 205.276 290.29 L205.276 286.905 Q207.439 286.303 209.32 286.002 Q211.219 285.701 212.893 285.701 Q217.219 285.701 219.739 287.676 Q222.259 289.632 222.259 292.979 Q222.259 295.312 220.924 296.929 Q219.589 298.528 217.125 299.148 Z" fill="#000000" fill-rule="evenodd" fill-opacity="1" /><path clip-path="url(#clip830)" d="M42.6863 929.455 L42.6863 899.408 L48.0971 899.408 L48.0971 923.025 L62.1653 923.025 L62.1653 900.395 L67.5762 900.395 L67.5762 923.025 L84.7954 923.025 L84.7954 898.836 L90.2063 898.836 L90.2063 929.455 L42.6863 929.455 Z" fill="#000000" fill-rule="evenodd" fill-opacity="1" /><path clip-path="url(#clip830)" d="M44.2459 859.782 L50.5161 859.782 Q48.7655 863.442 47.9062 866.689 Q47.0468 869.935 47.0468 872.959 Q47.0468 878.211 49.0838 881.075 Q51.1208 883.908 54.8766 883.908 Q58.0276 883.908 59.6509 882.03 Q61.2423 880.12 62.229 874.837 L63.0247 870.954 Q64.3933 863.761 67.8627 860.355 Q71.3001 856.917 77.0929 856.917 Q83.9997 856.917 87.5645 861.564 Q91.1293 866.179 91.1293 875.123 Q91.1293 878.497 90.3654 882.317 Q89.6015 886.104 88.1056 890.178 L81.4853 890.178 Q83.6814 886.263 84.7954 882.508 Q85.9094 878.752 85.9094 875.123 Q85.9094 869.617 83.7451 866.625 Q81.5808 863.633 77.5704 863.633 Q74.0692 863.633 72.0958 865.798 Q70.1225 867.93 69.1358 872.832 L68.3719 876.747 Q66.9396 883.94 63.8841 887.154 Q60.8285 890.369 55.3859 890.369 Q49.0838 890.369 45.4554 885.945 Q41.8269 881.489 41.8269 873.691 Q41.8269 870.349 42.4317 866.88 Q43.0364 863.41 44.2459 859.782 Z" fill="#000000" fill-rule="evenodd" fill-opacity="1" /><path clip-path="url(#clip830)" d="M44.2459 818.405 L50.5161 818.405 Q48.7655 822.065 47.9062 825.312 Q47.0468 828.558 47.0468 831.582 Q47.0468 836.834 49.0838 839.698 Q51.1208 842.531 54.8766 842.531 Q58.0276 842.531 59.6509 840.653 Q61.2423 838.743 62.229 833.46 L63.0247 829.577 Q64.3933 822.383 67.8627 818.978 Q71.3001 815.54 77.0929 815.54 Q83.9997 815.54 87.5645 820.187 Q91.1293 824.802 91.1293 833.746 Q91.1293 837.12 90.3654 840.939 Q89.6015 844.727 88.1056 848.801 L81.4853 848.801 Q83.6814 844.886 84.7954 841.13 Q85.9094 837.375 85.9094 833.746 Q85.9094 828.24 83.7451 825.248 Q81.5808 822.256 77.5704 822.256 Q74.0692 822.256 72.0958 824.42 Q70.1225 826.553 69.1358 831.455 L68.3719 835.369 Q66.9396 842.563 63.8841 845.777 Q60.8285 848.992 55.3859 848.992 Q49.0838 848.992 45.4554 844.568 Q41.8269 840.112 41.8269 832.314 Q41.8269 828.972 42.4317 825.503 Q43.0364 822.033 44.2459 818.405 Z" fill="#000000" fill-rule="evenodd" fill-opacity="1" /><path clip-path="url(#clip830)" d="M82.1218 804.273 L82.1218 797.557 L90.2063 797.557 L90.2063 804.273 L82.1218 804.273 M56.4999 804.273 L56.4999 797.557 L64.5843 797.557 L64.5843 804.273 L56.4999 804.273 Z" fill="#000000" fill-rule="evenodd" fill-opacity="1" /><path clip-path="url(#clip830)" d="M44.2459 734.346 L50.5161 734.346 Q48.7655 738.006 47.9062 741.252 Q47.0468 744.499 47.0468 747.523 Q47.0468 752.774 49.0838 755.639 Q51.1208 758.472 54.8766 758.472 Q58.0276 758.472 59.6509 756.594 Q61.2423 754.684 62.229 749.401 L63.0247 745.518 Q64.3933 738.324 67.8627 734.919 Q71.3001 731.481 77.0929 731.481 Q83.9997 731.481 87.5645 736.128 Q91.1293 740.743 91.1293 749.687 Q91.1293 753.061 90.3654 756.88 Q89.6015 760.668 88.1056 764.742 L81.4853 764.742 Q83.6814 760.827 84.7954 757.071 Q85.9094 753.316 85.9094 749.687 Q85.9094 744.181 83.7451 741.189 Q81.5808 738.197 77.5704 738.197 Q74.0692 738.197 72.0958 740.361 Q70.1225 742.494 69.1358 747.395 L68.3719 751.31 Q66.9396 758.504 63.8841 761.718 Q60.8285 764.933 55.3859 764.933 Q49.0838 764.933 45.4554 760.509 Q41.8269 756.053 41.8269 748.255 Q41.8269 744.913 42.4317 741.443 Q43.0364 737.974 44.2459 734.346 Z" fill="#000000" fill-rule="evenodd" fill-opacity="1" /><path clip-path="url(#clip830)" d="M54.5583 725.115 L54.5583 719.259 L82.3765 711.938 L54.5583 704.65 L54.5583 697.743 L82.3765 690.422 L54.5583 683.134 L54.5583 677.277 L90.2063 686.603 L90.2063 693.51 L60.9877 701.18 L90.2063 708.883 L90.2063 715.79 L54.5583 725.115 Z" fill="#000000" fill-rule="evenodd" fill-opacity="1" /><path clip-path="url(#clip830)" d="M70.9182 637.905 L73.7828 637.905 L73.7828 664.832 Q79.8302 664.45 83.013 661.204 Q86.1641 657.925 86.1641 652.101 Q86.1641 648.727 85.3365 645.576 Q84.509 642.393 82.8539 639.274 L88.3921 639.274 Q89.7289 642.425 90.4291 645.735 Q91.1293 649.045 91.1293 652.451 Q91.1293 660.981 86.1641 665.978 Q81.1988 670.943 72.7324 670.943 Q63.9796 670.943 58.8552 666.233 Q53.699 661.49 53.699 653.469 Q53.699 646.276 58.3459 642.107 Q62.9611 637.905 70.9182 637.905 M69.1995 643.762 Q64.3933 643.825 61.5288 646.467 Q58.6642 649.077 58.6642 653.406 Q58.6642 658.307 61.4333 661.267 Q64.2024 664.196 69.2313 664.641 L69.1995 643.762 Z" fill="#000000" fill-rule="evenodd" fill-opacity="1" /><path clip-path="url(#clip830)" d="M59.9692 604.835 L40.6811 604.835 L40.6811 598.979 L90.2063 598.979 L90.2063 604.835 L84.8591 604.835 Q88.0419 606.681 89.6015 609.514 Q91.1293 612.315 91.1293 616.262 Q91.1293 622.723 85.9731 626.797 Q80.8169 630.839 72.4141 630.839 Q64.0114 630.839 58.8552 626.797 Q53.699 622.723 53.699 616.262 Q53.699 612.315 55.2586 609.514 Q56.7863 606.681 59.9692 604.835 M72.4141 624.792 Q78.8753 624.792 82.5674 622.15 Q86.2277 619.477 86.2277 614.83 Q86.2277 610.183 82.5674 607.509 Q78.8753 604.835 72.4141 604.835 Q65.9529 604.835 62.2927 607.509 Q58.6006 610.183 58.6006 614.83 Q58.6006 619.477 62.2927 622.15 Q65.9529 624.792 72.4141 624.792 Z" fill="#000000" fill-rule="evenodd" fill-opacity="1" /><path clip-path="url(#clip830)" d="M70.9182 556.424 L73.7828 556.424 L73.7828 583.351 Q79.8302 582.969 83.013 579.723 Q86.1641 576.444 86.1641 570.62 Q86.1641 567.246 85.3365 564.095 Q84.509 560.912 82.8539 557.793 L88.3921 557.793 Q89.7289 560.944 90.4291 564.254 Q91.1293 567.564 91.1293 570.97 Q91.1293 579.5 86.1641 584.497 Q81.1988 589.462 72.7324 589.462 Q63.9796 589.462 58.8552 584.752 Q53.699 580.009 53.699 571.988 Q53.699 564.795 58.3459 560.626 Q62.9611 556.424 70.9182 556.424 M69.1995 562.281 Q64.3933 562.344 61.5288 564.986 Q58.6642 567.596 58.6642 571.925 Q58.6642 576.826 61.4333 579.786 Q64.2024 582.715 69.2313 583.16 L69.1995 562.281 Z" fill="#000000" fill-rule="evenodd" fill-opacity="1" /><path clip-path="url(#clip830)" d="M68.6902 517.18 L90.2063 517.18 L90.2063 523.036 L68.8812 523.036 Q63.8204 523.036 61.306 525.009 Q58.7915 526.983 58.7915 530.93 Q58.7915 535.672 61.8152 538.409 Q64.8389 541.146 70.0588 541.146 L90.2063 541.146 L90.2063 547.035 L54.5583 547.035 L54.5583 541.146 L60.0965 541.146 Q56.8818 539.046 55.2904 536.213 Q53.699 533.349 53.699 529.625 Q53.699 523.482 57.5184 520.331 Q61.306 517.18 68.6902 517.18 Z" fill="#000000" fill-rule="evenodd" fill-opacity="1" /><path clip-path="url(#clip830)" d="M82.1218 504.003 L82.1218 497.287 L87.5963 497.287 L97.7815 502.507 L97.7815 506.613 L87.5963 504.003 L82.1218 504.003 Z" fill="#000000" fill-rule="evenodd" fill-opacity="1" /><path clip-path="url(#clip830)" d="M44.4369 458.265 L54.5583 458.265 L54.5583 446.202 L59.1098 446.202 L59.1098 458.265 L78.4616 458.265 Q82.8221 458.265 84.0634 457.087 Q85.3047 455.878 85.3047 452.218 L85.3047 446.202 L90.2063 446.202 L90.2063 452.218 Q90.2063 458.997 87.6918 461.575 Q85.1455 464.153 78.4616 464.153 L59.1098 464.153 L59.1098 468.45 L54.5583 468.45 L54.5583 464.153 L44.4369 464.153 L44.4369 458.265 Z" fill="#000000" fill-rule="evenodd" fill-opacity="1" /><path clip-path="url(#clip830)" d="M54.5583 438.499 L54.5583 432.643 L90.2063 432.643 L90.2063 438.499 L54.5583 438.499 M40.6811 438.499 L40.6811 432.643 L48.0971 432.643 L48.0971 438.499 L40.6811 438.499 Z" fill="#000000" fill-rule="evenodd" fill-opacity="1" /><path clip-path="url(#clip830)" d="M61.4015 392.635 Q57.4547 390.438 55.5768 387.383 Q53.699 384.327 53.699 380.19 Q53.699 374.62 57.6139 371.596 Q61.4969 368.572 68.6902 368.572 L90.2063 368.572 L90.2063 374.46 L68.8812 374.46 Q63.7568 374.46 61.2741 376.275 Q58.7915 378.089 58.7915 381.813 Q58.7915 386.364 61.8152 389.006 Q64.8389 391.648 70.0588 391.648 L90.2063 391.648 L90.2063 397.536 L68.8812 397.536 Q63.7249 397.536 61.2741 399.35 Q58.7915 401.165 58.7915 404.952 Q58.7915 409.44 61.8471 412.082 Q64.8708 414.724 70.0588 414.724 L90.2063 414.724 L90.2063 420.612 L54.5583 420.612 L54.5583 414.724 L60.0965 414.724 Q56.8182 412.718 55.2586 409.917 Q53.699 407.117 53.699 403.265 Q53.699 399.382 55.6723 396.677 Q57.6457 393.94 61.4015 392.635 Z" fill="#000000" fill-rule="evenodd" fill-opacity="1" /><path clip-path="url(#clip830)" d="M70.9182 326.399 L73.7828 326.399 L73.7828 353.326 Q79.8302 352.944 83.013 349.698 Q86.1641 346.42 86.1641 340.595 Q86.1641 337.221 85.3365 334.07 Q84.509 330.887 82.8539 327.768 L88.3921 327.768 Q89.7289 330.919 90.4291 334.229 Q91.1293 337.539 91.1293 340.945 Q91.1293 349.475 86.1641 354.472 Q81.1988 359.437 72.7324 359.437 Q63.9796 359.437 58.8552 354.727 Q53.699 349.984 53.699 341.964 Q53.699 334.77 58.3459 330.601 Q62.9611 326.399 70.9182 326.399 M69.1995 332.256 Q64.3933 332.319 61.5288 334.961 Q58.6642 337.571 58.6642 341.9 Q58.6642 346.801 61.4333 349.762 Q64.2024 352.69 69.2313 353.135 L69.1995 332.256 Z" fill="#000000" fill-rule="evenodd" fill-opacity="1" /><path clip-path="url(#clip830)" d="M82.1218 315.291 L82.1218 308.575 L90.2063 308.575 L90.2063 315.291 L82.1218 315.291 M56.4999 315.291 L56.4999 308.575 L64.5843 308.575 L64.5843 315.291 L56.4999 315.291 Z" fill="#000000" fill-rule="evenodd" fill-opacity="1" /><path clip-path="url(#clip830)" d="M84.7954 292.884 L84.7954 282.381 L48.5427 282.381 L50.8344 293.807 L44.9779 293.807 L42.6863 282.444 L42.6863 276.015 L84.7954 276.015 L84.7954 265.511 L90.2063 265.511 L90.2063 292.884 L84.7954 292.884 Z" fill="#000000" fill-rule="evenodd" fill-opacity="1" /><path clip-path="url(#clip830)" d="M46.9195 238.775 Q46.9195 243.741 51.8211 246.255 Q56.6908 248.738 66.494 248.738 Q76.2654 248.738 81.167 246.255 Q86.0367 243.741 86.0367 238.775 Q86.0367 233.778 81.167 231.296 Q76.2654 228.781 66.494 228.781 Q56.6908 228.781 51.8211 231.296 Q46.9195 233.778 46.9195 238.775 M41.8269 238.775 Q41.8269 230.786 48.1608 226.585 Q54.4628 222.352 66.494 222.352 Q78.4934 222.352 84.8273 226.585 Q91.1293 230.786 91.1293 238.775 Q91.1293 246.764 84.8273 250.998 Q78.4934 255.199 66.494 255.199 Q54.4628 255.199 48.1608 250.998 Q41.8269 246.764 41.8269 238.775 Z" fill="#000000" fill-rule="evenodd" fill-opacity="1" /><path clip-path="url(#clip830)" d="M46.9195 197.303 Q46.9195 202.268 51.8211 204.783 Q56.6908 207.265 66.494 207.265 Q76.2654 207.265 81.167 204.783 Q86.0367 202.268 86.0367 197.303 Q86.0367 192.306 81.167 189.823 Q76.2654 187.309 66.494 187.309 Q56.6908 187.309 51.8211 189.823 Q46.9195 192.306 46.9195 197.303 M41.8269 197.303 Q41.8269 189.314 48.1608 185.113 Q54.4628 180.879 66.494 180.879 Q78.4934 180.879 84.8273 185.113 Q91.1293 189.314 91.1293 197.303 Q91.1293 205.292 84.8273 209.525 Q78.4934 213.726 66.494 213.726 Q54.4628 213.726 48.1608 209.525 Q41.8269 205.292 41.8269 197.303 Z" fill="#000000" fill-rule="evenodd" fill-opacity="1" /><polyline clip-path="url(#clip832)" style="stroke:#009af9; stroke-linecap:round; stroke-linejoin:round; stroke-width:4; stroke-opacity:1; fill:none" points="
  350.696,441.819 360.06,197.557 369.424,221.901 378.787,188.821 388.151,200.198 397.515,164.13 406.878,230.459 416.242,157.593 425.606,215.302 434.97,214.511 
  444.333,210.11 453.697,176.24 463.061,143.776 472.424,190.525 481.788,205.407 491.152,169.822 500.515,183.964 509.879,268.45 519.243,231.159 528.606,158.037 
  537.97,110.746 547.334,192.75 556.698,186.536 566.061,207.906 575.425,191.693 584.789,201.761 594.152,265.87 603.516,190.068 612.88,169.656 622.243,175.568 
  631.607,215.733 640.971,168.382 650.334,143.623 659.698,198.86 669.062,177.568 678.426,231.563 687.789,195.161 697.153,140.001 706.517,205.918 715.88,197.948 
  725.244,188.799 734.608,180.054 743.971,149.748 753.335,151.046 762.699,143.781 772.062,263.777 781.426,190.591 790.79,171.942 800.154,236.163 809.517,207.356 
  818.881,200.574 828.245,190.241 837.608,148.668 846.972,216.995 856.336,213.655 865.699,156.292 875.063,173.245 884.427,206.683 893.79,209.785 903.154,234.999 
  912.518,171.069 921.882,194.679 931.245,198.5 940.609,226.138 949.973,205.883 959.336,195.338 968.7,171.113 978.064,142.019 987.427,149.502 996.791,276.425 
  1006.15,217.39 1015.52,147.652 1024.88,189.082 1034.25,216.169 1043.61,170.783 1052.97,191.322 1062.34,211.723 1071.7,185.238 1081.06,291.902 1090.43,170.819 
  1099.79,221.573 1109.16,178.903 1118.52,194.75 1127.88,227.191 1137.25,202.507 1146.61,152.28 1155.97,181.798 1165.34,152.431 1174.7,210.745 1184.06,199.983 
  1193.43,240.926 1202.79,153.406 1212.16,187.662 1221.52,236.777 1230.88,204.388 1240.25,170.074 1249.61,254.862 1258.97,202.221 1268.34,147.495 1277.7,208.705 
  1287.07,230.281 1296.43,110.236 1305.79,187.273 1315.16,151.14 1324.52,207.56 1333.88,210.353 1343.25,142.519 1352.61,169.424 1361.98,118.036 1371.34,205.322 
  1380.7,214.8 1390.07,207.373 1399.43,192.834 1408.79,161.706 1418.16,209.111 1427.52,176.739 1436.88,209.592 1446.25,248.673 1455.61,199.433 1464.98,200.847 
  1474.34,215.313 1483.7,175.209 1493.07,247.272 1502.43,182.147 1511.79,208.518 1521.16,221.427 1530.52,167.962 1539.89,211.954 1549.25,254.576 1558.61,205.743 
  1567.98,138.751 1577.34,212.63 1586.7,138.808 1596.07,154.206 1605.43,205.916 1614.79,232.834 1624.16,221.27 1633.52,210.378 1642.89,213.538 1652.25,229.02 
  1661.61,155.36 1670.98,190.83 1680.34,161.438 1689.7,130.296 1699.07,171.025 1708.43,174.614 1717.8,218.689 1727.16,225.536 1736.52,210.736 1745.89,221.465 
  1755.25,243.128 1764.61,273.594 1773.98,162.015 1783.34,225.246 1792.71,201.511 1802.07,178.316 1811.43,209.499 1820.8,206.085 1830.16,123.72 1839.52,173.415 
  1848.89,198.756 1858.25,126.275 1867.61,150.924 1876.98,116.625 1886.34,128.091 1895.71,168.051 1905.07,170.287 1914.43,165.043 1923.8,193.269 1933.16,154.238 
  1942.52,155.722 1951.89,119.105 1961.25,155.728 1970.62,197.462 1979.98,150.266 1989.34,151.051 1998.71,218.437 2008.07,161.562 2017.43,146.729 2026.8,162.157 
  2036.16,128.889 2045.52,130.761 2054.89,218.457 2064.25,131.036 2073.62,150.423 2082.98,116.689 2092.34,156.036 2101.71,170.024 2111.07,127.016 2120.43,207.683 
  2129.8,139.963 2139.16,121.399 2148.53,112.567 2157.89,152.007 2167.25,138.368 2176.62,173.276 2185.98,141.736 2195.34,166.491 2204.71,152.954 2214.07,214.419 
  2223.43,203.55 2232.8,146.805 2242.16,241.758 2251.53,128.928 2260.89,230.271 2270.25,164.518 2279.62,165.722 2288.98,117.121 2298.34,199.437 2307.71,150.672 
  2317.07,192.249 2326.44,135.856 2335.8,208.655 2345.16,138.117 2354.53,231.024 2363.89,223.957 2373.25,148.954 2382.62,140.819 2391.98,228.887 2401.35,241.684 
  2410.71,221.316 2420.07,213.999 2429.44,219.305 2438.8,176.834 2448.16,207.681 2457.53,226.996 2466.89,210.926 2476.25,190.107 2485.62,181.79 2494.98,176.668 
  2504.35,125.376 2513.71,225.14 2523.07,205.846 2532.44,210.742 2541.8,184.694 2551.16,182.991 2560.53,245.562 2569.89,232.339 2579.26,195.94 2588.62,172.288 
  2597.98,147.191 2607.35,139.519 2616.71,169.539 2626.07,191.13 2635.44,118.344 2644.8,180.411 2654.16,157.963 2663.53,170.906 2672.89,201.887 2682.26,219.129 
  2691.62,216.043 2700.98,186.835 2710.35,210.279 2719.71,199.414 2729.07,201.841 2738.44,181.147 2747.8,132.692 2757.17,160.222 2766.53,203.915 2775.89,272.259 
  2785.26,219.222 2794.62,192.78 2803.98,174.998 2813.35,153.702 2822.71,201.765 2832.07,175.728 2841.44,197.169 2850.8,202.362 2860.17,176.801 2869.53,208.806 
  2878.89,155.883 2888.26,132.671 2897.62,171.11 2906.98,152.7 2916.35,188.431 2925.71,158.977 2935.08,162.518 2944.44,160.5 2953.8,189.135 2963.17,216.607 
  2972.53,218.173 2981.89,226.146 2991.26,200.45 3000.62,141.058 3009.99,199.918 
  "/>
</svg>
