<?xml version="1.0" encoding="utf-8"?>
<svg xmlns="http://www.w3.org/2000/svg" xmlns:xlink="http://www.w3.org/1999/xlink" width="800" height="300" viewBox="0 0 3200 1200">
<defs>
  <clipPath id="clip550">
    <rect x="0" y="0" width="3200" height="1200"/>
  </clipPath>
</defs>
<path clip-path="url(#clip550)" d="M0 1200 L3200 1200 L3200 0 L0 0  Z" fill="#ffffff" fill-rule="evenodd" fill-opacity="1"/>
<defs>
  <clipPath id="clip551">
    <rect x="640" y="0" width="2241" height="1200"/>
  </clipPath>
</defs>
<path clip-path="url(#clip550)" d="M270.918 1000.1 L3089.76 1000.1 L3089.76 110.236 L270.918 110.236  Z" fill="#ffffff" fill-rule="evenodd" fill-opacity="1"/>
<defs>
  <clipPath id="clip552">
    <rect x="270" y="110" width="2820" height="891"/>
  </clipPath>
</defs>
<polyline clip-path="url(#clip552)" style="stroke:#000000; stroke-linecap:round; stroke-linejoin:round; stroke-width:2; stroke-opacity:0.1; fill:none" points="329.422,1000.1 329.422,110.236 "/>
<polyline clip-path="url(#clip552)" style="stroke:#000000; stroke-linecap:round; stroke-linejoin:round; stroke-width:2; stroke-opacity:0.1; fill:none" points="754.908,1000.1 754.908,110.236 "/>
<polyline clip-path="url(#clip552)" style="stroke:#000000; stroke-linecap:round; stroke-linejoin:round; stroke-width:2; stroke-opacity:0.1; fill:none" points="1180.39,1000.1 1180.39,110.236 "/>
<polyline clip-path="url(#clip552)" style="stroke:#000000; stroke-linecap:round; stroke-linejoin:round; stroke-width:2; stroke-opacity:0.1; fill:none" points="1605.88,1000.1 1605.88,110.236 "/>
<polyline clip-path="url(#clip552)" style="stroke:#000000; stroke-linecap:round; stroke-linejoin:round; stroke-width:2; stroke-opacity:0.1; fill:none" points="2031.37,1000.1 2031.37,110.236 "/>
<polyline clip-path="url(#clip552)" style="stroke:#000000; stroke-linecap:round; stroke-linejoin:round; stroke-width:2; stroke-opacity:0.1; fill:none" points="2456.85,1000.1 2456.85,110.236 "/>
<polyline clip-path="url(#clip552)" style="stroke:#000000; stroke-linecap:round; stroke-linejoin:round; stroke-width:2; stroke-opacity:0.1; fill:none" points="2882.34,1000.1 2882.34,110.236 "/>
<polyline clip-path="url(#clip550)" style="stroke:#000000; stroke-linecap:round; stroke-linejoin:round; stroke-width:4; stroke-opacity:1; fill:none" points="270.918,1000.1 3089.76,1000.1 "/>
<polyline clip-path="url(#clip550)" style="stroke:#000000; stroke-linecap:round; stroke-linejoin:round; stroke-width:4; stroke-opacity:1; fill:none" points="329.422,1000.1 329.422,981.2 "/>
<polyline clip-path="url(#clip550)" style="stroke:#000000; stroke-linecap:round; stroke-linejoin:round; stroke-width:4; stroke-opacity:1; fill:none" points="754.908,1000.1 754.908,981.2 "/>
<polyline clip-path="url(#clip550)" style="stroke:#000000; stroke-linecap:round; stroke-linejoin:round; stroke-width:4; stroke-opacity:1; fill:none" points="1180.39,1000.1 1180.39,981.2 "/>
<polyline clip-path="url(#clip550)" style="stroke:#000000; stroke-linecap:round; stroke-linejoin:round; stroke-width:4; stroke-opacity:1; fill:none" points="1605.88,1000.1 1605.88,981.2 "/>
<polyline clip-path="url(#clip550)" style="stroke:#000000; stroke-linecap:round; stroke-linejoin:round; stroke-width:4; stroke-opacity:1; fill:none" points="2031.37,1000.1 2031.37,981.2 "/>
<polyline clip-path="url(#clip550)" style="stroke:#000000; stroke-linecap:round; stroke-linejoin:round; stroke-width:4; stroke-opacity:1; fill:none" points="2456.85,1000.1 2456.85,981.2 "/>
<polyline clip-path="url(#clip550)" style="stroke:#000000; stroke-linecap:round; stroke-linejoin:round; stroke-width:4; stroke-opacity:1; fill:none" points="2882.34,1000.1 2882.34,981.2 "/>
<path clip-path="url(#clip550)" d="M329.422 1037.42 Q325.811 1037.42 323.982 1040.98 Q322.177 1044.52 322.177 1051.65 Q322.177 1058.76 323.982 1062.32 Q325.811 1065.87 329.422 1065.87 Q333.056 1065.87 334.862 1062.32 Q336.69 1058.76 336.69 1051.65 Q336.69 1044.52 334.862 1040.98 Q333.056 1037.42 329.422 1037.42 M329.422 1033.71 Q335.232 1033.71 338.288 1038.32 Q341.366 1042.9 341.366 1051.65 Q341.366 1060.38 338.288 1064.99 Q335.232 1069.57 329.422 1069.57 Q323.612 1069.57 320.533 1064.99 Q317.478 1060.38 317.478 1051.65 Q317.478 1042.9 320.533 1038.32 Q323.612 1033.71 329.422 1033.71 Z" fill="#000000" fill-rule="nonzero" fill-opacity="1" /><path clip-path="url(#clip550)" d="M733.681 1064.96 L750.001 1064.96 L750.001 1068.9 L728.056 1068.9 L728.056 1064.96 Q730.719 1062.21 735.302 1057.58 Q739.908 1052.93 741.089 1051.58 Q743.334 1049.06 744.214 1047.32 Q745.117 1045.56 745.117 1043.87 Q745.117 1041.12 743.172 1039.38 Q741.251 1037.65 738.149 1037.65 Q735.95 1037.65 733.496 1038.41 Q731.066 1039.18 728.288 1040.73 L728.288 1036 Q731.112 1034.87 733.566 1034.29 Q736.019 1033.71 738.056 1033.71 Q743.427 1033.71 746.621 1036.4 Q749.816 1039.08 749.816 1043.57 Q749.816 1045.7 749.005 1047.62 Q748.218 1049.52 746.112 1052.12 Q745.533 1052.79 742.431 1056 Q739.33 1059.2 733.681 1064.96 Z" fill="#000000" fill-rule="nonzero" fill-opacity="1" /><path clip-path="url(#clip550)" d="M769.816 1037.42 Q766.204 1037.42 764.376 1040.98 Q762.57 1044.52 762.57 1051.65 Q762.57 1058.76 764.376 1062.32 Q766.204 1065.87 769.816 1065.87 Q773.45 1065.87 775.255 1062.32 Q777.084 1058.76 777.084 1051.65 Q777.084 1044.52 775.255 1040.98 Q773.45 1037.42 769.816 1037.42 M769.816 1033.71 Q775.626 1033.71 778.681 1038.32 Q781.76 1042.9 781.76 1051.65 Q781.76 1060.38 778.681 1064.99 Q775.626 1069.57 769.816 1069.57 Q764.005 1069.57 760.927 1064.99 Q757.871 1060.38 757.871 1051.65 Q757.871 1042.9 760.927 1038.32 Q764.005 1033.71 769.816 1033.71 Z" fill="#000000" fill-rule="nonzero" fill-opacity="1" /><path clip-path="url(#clip550)" d="M1168.57 1038.41 L1156.76 1056.86 L1168.57 1056.86 L1168.57 1038.41 M1167.34 1034.34 L1173.22 1034.34 L1173.22 1056.86 L1178.15 1056.86 L1178.15 1060.75 L1173.22 1060.75 L1173.22 1068.9 L1168.57 1068.9 L1168.57 1060.75 L1152.96 1060.75 L1152.96 1056.24 L1167.34 1034.34 Z" fill="#000000" fill-rule="nonzero" fill-opacity="1" /><path clip-path="url(#clip550)" d="M1195.88 1037.42 Q1192.27 1037.42 1190.44 1040.98 Q1188.64 1044.52 1188.64 1051.65 Q1188.64 1058.76 1190.44 1062.32 Q1192.27 1065.87 1195.88 1065.87 Q1199.51 1065.87 1201.32 1062.32 Q1203.15 1058.76 1203.15 1051.65 Q1203.15 1044.52 1201.32 1040.98 Q1199.51 1037.42 1195.88 1037.42 M1195.88 1033.71 Q1201.69 1033.71 1204.75 1038.32 Q1207.82 1042.9 1207.82 1051.65 Q1207.82 1060.38 1204.75 1064.99 Q1201.69 1069.57 1195.88 1069.57 Q1190.07 1069.57 1186.99 1064.99 Q1183.94 1060.38 1183.94 1051.65 Q1183.94 1042.9 1186.99 1038.32 Q1190.07 1033.71 1195.88 1033.71 Z" fill="#000000" fill-rule="nonzero" fill-opacity="1" /><path clip-path="url(#clip550)" d="M1591.29 1049.75 Q1588.14 1049.75 1586.29 1051.91 Q1584.46 1054.06 1584.46 1057.81 Q1584.46 1061.54 1586.29 1063.71 Q1588.14 1065.87 1591.29 1065.87 Q1594.43 1065.87 1596.26 1063.71 Q1598.11 1061.54 1598.11 1057.81 Q1598.11 1054.06 1596.26 1051.91 Q1594.43 1049.75 1591.29 1049.75 M1600.57 1035.1 L1600.57 1039.36 Q1598.81 1038.53 1597 1038.09 Q1595.22 1037.65 1593.46 1037.65 Q1588.83 1037.65 1586.38 1040.77 Q1583.95 1043.9 1583.6 1050.22 Q1584.97 1048.2 1587.03 1047.14 Q1589.09 1046.05 1591.56 1046.05 Q1596.77 1046.05 1599.78 1049.22 Q1602.81 1052.37 1602.81 1057.81 Q1602.81 1063.13 1599.67 1066.35 Q1596.52 1069.57 1591.29 1069.57 Q1585.29 1069.57 1582.12 1064.99 Q1578.95 1060.38 1578.95 1051.65 Q1578.95 1043.46 1582.84 1038.6 Q1586.73 1033.71 1593.28 1033.71 Q1595.04 1033.71 1596.82 1034.06 Q1598.62 1034.41 1600.57 1035.1 Z" fill="#000000" fill-rule="nonzero" fill-opacity="1" /><path clip-path="url(#clip550)" d="M1620.87 1037.42 Q1617.26 1037.42 1615.43 1040.98 Q1613.62 1044.52 1613.62 1051.65 Q1613.62 1058.76 1615.43 1062.32 Q1617.26 1065.87 1620.87 1065.87 Q1624.5 1065.87 1626.31 1062.32 Q1628.14 1058.76 1628.14 1051.65 Q1628.14 1044.52 1626.31 1040.98 Q1624.5 1037.42 1620.87 1037.42 M1620.87 1033.71 Q1626.68 1033.71 1629.73 1038.32 Q1632.81 1042.9 1632.81 1051.65 Q1632.81 1060.38 1629.73 1064.99 Q1626.68 1069.57 1620.87 1069.57 Q1615.06 1069.57 1611.98 1064.99 Q1608.92 1060.38 1608.92 1051.65 Q1608.92 1042.9 1611.98 1038.32 Q1615.06 1033.71 1620.87 1033.71 Z" fill="#000000" fill-rule="nonzero" fill-opacity="1" /><path clip-path="url(#clip550)" d="M2016.24 1052.49 Q2012.91 1052.49 2010.98 1054.27 Q2009.09 1056.05 2009.09 1059.18 Q2009.09 1062.3 2010.98 1064.08 Q2012.91 1065.87 2016.24 1065.87 Q2019.57 1065.87 2021.49 1064.08 Q2023.42 1062.28 2023.42 1059.18 Q2023.42 1056.05 2021.49 1054.27 Q2019.6 1052.49 2016.24 1052.49 M2011.56 1050.5 Q2008.55 1049.75 2006.86 1047.69 Q2005.2 1045.63 2005.2 1042.67 Q2005.2 1038.53 2008.14 1036.12 Q2011.1 1033.71 2016.24 1033.71 Q2021.4 1033.71 2024.34 1036.12 Q2027.28 1038.53 2027.28 1042.67 Q2027.28 1045.63 2025.59 1047.69 Q2023.92 1049.75 2020.94 1050.5 Q2024.32 1051.28 2026.19 1053.57 Q2028.09 1055.87 2028.09 1059.18 Q2028.09 1064.2 2025.01 1066.88 Q2021.96 1069.57 2016.24 1069.57 Q2010.52 1069.57 2007.44 1066.88 Q2004.39 1064.2 2004.39 1059.18 Q2004.39 1055.87 2006.29 1053.57 Q2008.18 1051.28 2011.56 1050.5 M2009.85 1043.11 Q2009.85 1045.8 2011.52 1047.3 Q2013.21 1048.81 2016.24 1048.81 Q2019.25 1048.81 2020.94 1047.3 Q2022.65 1045.8 2022.65 1043.11 Q2022.65 1040.43 2020.94 1038.92 Q2019.25 1037.42 2016.24 1037.42 Q2013.21 1037.42 2011.52 1038.92 Q2009.85 1040.43 2009.85 1043.11 Z" fill="#000000" fill-rule="nonzero" fill-opacity="1" /><path clip-path="url(#clip550)" d="M2046.4 1037.42 Q2042.79 1037.42 2040.96 1040.98 Q2039.16 1044.52 2039.16 1051.65 Q2039.16 1058.76 2040.96 1062.32 Q2042.79 1065.87 2046.4 1065.87 Q2050.04 1065.87 2051.84 1062.32 Q2053.67 1058.76 2053.67 1051.65 Q2053.67 1044.52 2051.84 1040.98 Q2050.04 1037.42 2046.4 1037.42 M2046.4 1033.71 Q2052.21 1033.71 2055.27 1038.32 Q2058.35 1042.9 2058.35 1051.65 Q2058.35 1060.38 2055.27 1064.99 Q2052.21 1069.57 2046.4 1069.57 Q2040.59 1069.57 2037.51 1064.99 Q2034.46 1060.38 2034.46 1051.65 Q2034.46 1042.9 2037.51 1038.32 Q2040.59 1033.71 2046.4 1033.71 Z" fill="#000000" fill-rule="nonzero" fill-opacity="1" /><path clip-path="url(#clip550)" d="M2416.46 1064.96 L2424.1 1064.96 L2424.1 1038.6 L2415.79 1040.26 L2415.79 1036 L2424.05 1034.34 L2428.73 1034.34 L2428.73 1064.96 L2436.37 1064.96 L2436.37 1068.9 L2416.46 1068.9 L2416.46 1064.96 Z" fill="#000000" fill-rule="nonzero" fill-opacity="1" /><path clip-path="url(#clip550)" d="M2455.81 1037.42 Q2452.2 1037.42 2450.37 1040.98 Q2448.57 1044.52 2448.57 1051.65 Q2448.57 1058.76 2450.37 1062.32 Q2452.2 1065.87 2455.81 1065.87 Q2459.45 1065.87 2461.25 1062.32 Q2463.08 1058.76 2463.08 1051.65 Q2463.08 1044.52 2461.25 1040.98 Q2459.45 1037.42 2455.81 1037.42 M2455.81 1033.71 Q2461.62 1033.71 2464.68 1038.32 Q2467.76 1042.9 2467.76 1051.65 Q2467.76 1060.38 2464.68 1064.99 Q2461.62 1069.57 2455.81 1069.57 Q2450 1069.57 2446.92 1064.99 Q2443.87 1060.38 2443.87 1051.65 Q2443.87 1042.9 2446.92 1038.32 Q2450 1033.71 2455.81 1033.71 Z" fill="#000000" fill-rule="nonzero" fill-opacity="1" /><path clip-path="url(#clip550)" d="M2485.97 1037.42 Q2482.36 1037.42 2480.53 1040.98 Q2478.73 1044.52 2478.73 1051.65 Q2478.73 1058.76 2480.53 1062.32 Q2482.36 1065.87 2485.97 1065.87 Q2489.61 1065.87 2491.41 1062.32 Q2493.24 1058.76 2493.24 1051.65 Q2493.24 1044.52 2491.41 1040.98 Q2489.61 1037.42 2485.97 1037.42 M2485.97 1033.71 Q2491.78 1033.71 2494.84 1038.32 Q2497.92 1042.9 2497.92 1051.65 Q2497.92 1060.38 2494.84 1064.99 Q2491.78 1069.57 2485.97 1069.57 Q2480.16 1069.57 2477.08 1064.99 Q2474.03 1060.38 2474.03 1051.65 Q2474.03 1042.9 2477.08 1038.32 Q2480.16 1033.71 2485.97 1033.71 Z" fill="#000000" fill-rule="nonzero" fill-opacity="1" /><path clip-path="url(#clip550)" d="M2841.95 1064.96 L2849.58 1064.96 L2849.58 1038.6 L2841.27 1040.26 L2841.27 1036 L2849.54 1034.34 L2854.21 1034.34 L2854.21 1064.96 L2861.85 1064.96 L2861.85 1068.9 L2841.95 1068.9 L2841.95 1064.96 Z" fill="#000000" fill-rule="nonzero" fill-opacity="1" /><path clip-path="url(#clip550)" d="M2875.33 1064.96 L2891.64 1064.96 L2891.64 1068.9 L2869.7 1068.9 L2869.7 1064.96 Q2872.36 1062.21 2876.95 1057.58 Q2881.55 1052.93 2882.73 1051.58 Q2884.98 1049.06 2885.86 1047.32 Q2886.76 1045.56 2886.76 1043.87 Q2886.76 1041.12 2884.82 1039.38 Q2882.89 1037.65 2879.79 1037.65 Q2877.59 1037.65 2875.14 1038.41 Q2872.71 1039.18 2869.93 1040.73 L2869.93 1036 Q2872.76 1034.87 2875.21 1034.29 Q2877.66 1033.71 2879.7 1033.71 Q2885.07 1033.71 2888.27 1036.4 Q2891.46 1039.08 2891.46 1043.57 Q2891.46 1045.7 2890.65 1047.62 Q2889.86 1049.52 2887.76 1052.12 Q2887.18 1052.79 2884.08 1056 Q2880.97 1059.2 2875.33 1064.96 Z" fill="#000000" fill-rule="nonzero" fill-opacity="1" /><path clip-path="url(#clip550)" d="M2911.46 1037.42 Q2907.85 1037.42 2906.02 1040.98 Q2904.21 1044.52 2904.21 1051.65 Q2904.21 1058.76 2906.02 1062.32 Q2907.85 1065.87 2911.46 1065.87 Q2915.09 1065.87 2916.9 1062.32 Q2918.73 1058.76 2918.73 1051.65 Q2918.73 1044.52 2916.9 1040.98 Q2915.09 1037.42 2911.46 1037.42 M2911.46 1033.71 Q2917.27 1033.71 2920.33 1038.32 Q2923.4 1042.9 2923.4 1051.65 Q2923.4 1060.38 2920.33 1064.99 Q2917.27 1069.57 2911.46 1069.57 Q2905.65 1069.57 2902.57 1064.99 Q2899.52 1060.38 2899.52 1051.65 Q2899.52 1042.9 2902.57 1038.32 Q2905.65 1033.71 2911.46 1033.71 Z" fill="#000000" fill-rule="nonzero" fill-opacity="1" /><path clip-path="url(#clip550)" d="M1556.64 1109.44 L1563.07 1109.44 L1563.07 1151.55 L1586.21 1151.55 L1586.21 1156.96 L1556.64 1156.96 L1556.64 1109.44 Z" fill="#000000" fill-rule="nonzero" fill-opacity="1" /><path clip-path="url(#clip550)" d="M1592.7 1121.31 L1598.56 1121.31 L1598.56 1156.96 L1592.7 1156.96 L1592.7 1121.31 M1592.7 1107.44 L1598.56 1107.44 L1598.56 1114.85 L1592.7 1114.85 L1592.7 1107.44 Z" fill="#000000" fill-rule="nonzero" fill-opacity="1" /><path clip-path="url(#clip550)" d="M1640.44 1135.45 L1640.44 1156.96 L1634.59 1156.96 L1634.59 1135.64 Q1634.59 1130.58 1632.61 1128.06 Q1630.64 1125.55 1626.69 1125.55 Q1621.95 1125.55 1619.21 1128.57 Q1616.48 1131.59 1616.48 1136.81 L1616.48 1156.96 L1610.59 1156.96 L1610.59 1121.31 L1616.48 1121.31 L1616.48 1126.85 Q1618.58 1123.64 1621.41 1122.05 Q1624.27 1120.45 1628 1120.45 Q1634.14 1120.45 1637.29 1124.27 Q1640.44 1128.06 1640.44 1135.45 Z" fill="#000000" fill-rule="nonzero" fill-opacity="1" /><path clip-path="url(#clip550)" d="M1682.62 1137.67 L1682.62 1140.54 L1655.69 1140.54 Q1656.07 1146.59 1659.32 1149.77 Q1662.6 1152.92 1668.42 1152.92 Q1671.79 1152.92 1674.95 1152.09 Q1678.13 1151.26 1681.25 1149.61 L1681.25 1155.15 Q1678.1 1156.48 1674.79 1157.18 Q1671.48 1157.88 1668.07 1157.88 Q1659.54 1157.88 1654.54 1152.92 Q1649.58 1147.95 1649.58 1139.49 Q1649.58 1130.74 1654.29 1125.61 Q1659.03 1120.45 1667.05 1120.45 Q1674.25 1120.45 1678.42 1125.1 Q1682.62 1129.72 1682.62 1137.67 M1676.76 1135.95 Q1676.7 1131.15 1674.05 1128.28 Q1671.44 1125.42 1667.12 1125.42 Q1662.21 1125.42 1659.25 1128.19 Q1656.33 1130.96 1655.88 1135.99 L1676.76 1135.95 Z" fill="#000000" fill-rule="nonzero" fill-opacity="1" /><path clip-path="url(#clip550)" d="M1708.43 1139.04 Q1701.33 1139.04 1698.59 1140.67 Q1695.86 1142.29 1695.86 1146.2 Q1695.86 1149.32 1697.89 1151.17 Q1699.96 1152.98 1703.5 1152.98 Q1708.37 1152.98 1711.29 1149.55 Q1714.25 1146.08 1714.25 1140.35 L1714.25 1139.04 L1708.43 1139.04 M1720.11 1136.62 L1720.11 1156.96 L1714.25 1156.96 L1714.25 1151.55 Q1712.25 1154.8 1709.26 1156.36 Q1706.27 1157.88 1701.94 1157.88 Q1696.46 1157.88 1693.22 1154.83 Q1690 1151.74 1690 1146.59 Q1690 1140.57 1694.01 1137.51 Q1698.05 1134.46 1706.04 1134.46 L1714.25 1134.46 L1714.25 1133.89 Q1714.25 1129.84 1711.58 1127.65 Q1708.94 1125.42 1704.13 1125.42 Q1701.08 1125.42 1698.18 1126.15 Q1695.28 1126.88 1692.61 1128.35 L1692.61 1122.94 Q1695.83 1121.7 1698.85 1121.09 Q1701.87 1120.45 1704.74 1120.45 Q1712.47 1120.45 1716.29 1124.46 Q1720.11 1128.48 1720.11 1136.62 Z" fill="#000000" fill-rule="nonzero" fill-opacity="1" /><path clip-path="url(#clip550)" d="M1755.63 1138.72 Q1755.63 1132.36 1752.99 1128.86 Q1750.38 1125.36 1745.64 1125.36 Q1740.93 1125.36 1738.28 1128.86 Q1735.67 1132.36 1735.67 1138.72 Q1735.67 1145.06 1738.28 1148.56 Q1740.93 1152.06 1745.64 1152.06 Q1750.38 1152.06 1752.99 1148.56 Q1755.63 1145.06 1755.63 1138.72 M1761.49 1152.54 Q1761.49 1161.64 1757.45 1166.06 Q1753.4 1170.52 1745.06 1170.52 Q1741.98 1170.52 1739.24 1170.04 Q1736.5 1169.6 1733.92 1168.64 L1733.92 1162.95 Q1736.5 1164.35 1739.02 1165.01 Q1741.53 1165.68 1744.14 1165.68 Q1749.9 1165.68 1752.77 1162.66 Q1755.63 1159.67 1755.63 1153.59 L1755.63 1150.69 Q1753.82 1153.84 1750.98 1155.4 Q1748.15 1156.96 1744.2 1156.96 Q1737.65 1156.96 1733.64 1151.96 Q1729.63 1146.97 1729.63 1138.72 Q1729.63 1130.45 1733.64 1125.45 Q1737.65 1120.45 1744.2 1120.45 Q1748.15 1120.45 1750.98 1122.01 Q1753.82 1123.57 1755.63 1126.72 L1755.63 1121.31 L1761.49 1121.31 L1761.49 1152.54 Z" fill="#000000" fill-rule="nonzero" fill-opacity="1" /><path clip-path="url(#clip550)" d="M1804.04 1137.67 L1804.04 1140.54 L1777.12 1140.54 Q1777.5 1146.59 1780.74 1149.77 Q1784.02 1152.92 1789.85 1152.92 Q1793.22 1152.92 1796.37 1152.09 Q1799.55 1151.26 1802.67 1149.61 L1802.67 1155.15 Q1799.52 1156.48 1796.21 1157.18 Q1792.9 1157.88 1789.5 1157.88 Q1780.97 1157.88 1775.97 1152.92 Q1771 1147.95 1771 1139.49 Q1771 1130.74 1775.71 1125.61 Q1780.46 1120.45 1788.48 1120.45 Q1795.67 1120.45 1799.84 1125.1 Q1804.04 1129.72 1804.04 1137.67 M1798.19 1135.95 Q1798.12 1131.15 1795.48 1128.28 Q1792.87 1125.42 1788.54 1125.42 Q1783.64 1125.42 1780.68 1128.19 Q1777.75 1130.96 1777.31 1135.99 L1798.19 1135.95 Z" fill="#000000" fill-rule="nonzero" fill-opacity="1" /><polyline clip-path="url(#clip552)" style="stroke:#000000; stroke-linecap:round; stroke-linejoin:round; stroke-width:2; stroke-opacity:0.1; fill:none" points="270.918,1000.1 3089.76,1000.1 "/>
<polyline clip-path="url(#clip552)" style="stroke:#000000; stroke-linecap:round; stroke-linejoin:round; stroke-width:2; stroke-opacity:0.1; fill:none" points="270.918,678.077 3089.76,678.077 "/>
<polyline clip-path="url(#clip552)" style="stroke:#000000; stroke-linecap:round; stroke-linejoin:round; stroke-width:2; stroke-opacity:0.1; fill:none" points="270.918,356.056 3089.76,356.056 "/>
<polyline clip-path="url(#clip550)" style="stroke:#000000; stroke-linecap:round; stroke-linejoin:round; stroke-width:4; stroke-opacity:1; fill:none" points="270.918,1000.1 270.918,110.236 "/>
<polyline clip-path="url(#clip550)" style="stroke:#000000; stroke-linecap:round; stroke-linejoin:round; stroke-width:4; stroke-opacity:1; fill:none" points="270.918,1000.1 289.815,1000.1 "/>
<polyline clip-path="url(#clip550)" style="stroke:#000000; stroke-linecap:round; stroke-linejoin:round; stroke-width:4; stroke-opacity:1; fill:none" points="270.918,678.077 289.815,678.077 "/>
<polyline clip-path="url(#clip550)" style="stroke:#000000; stroke-linecap:round; stroke-linejoin:round; stroke-width:4; stroke-opacity:1; fill:none" points="270.918,356.056 289.815,356.056 "/>
<path clip-path="url(#clip550)" d="M154.902 1019.89 L162.54 1019.89 L162.54 993.525 L154.23 995.191 L154.23 990.932 L162.494 989.265 L167.17 989.265 L167.17 1019.89 L174.809 1019.89 L174.809 1023.83 L154.902 1023.83 L154.902 1019.89 Z" fill="#000000" fill-rule="nonzero" fill-opacity="1" /><path clip-path="url(#clip550)" d="M194.253 992.344 Q190.642 992.344 188.813 995.909 Q187.008 999.45 187.008 1006.58 Q187.008 1013.69 188.813 1017.25 Q190.642 1020.79 194.253 1020.79 Q197.887 1020.79 199.693 1017.25 Q201.522 1013.69 201.522 1006.58 Q201.522 999.45 199.693 995.909 Q197.887 992.344 194.253 992.344 M194.253 988.64 Q200.063 988.64 203.119 993.247 Q206.198 997.83 206.198 1006.58 Q206.198 1015.31 203.119 1019.91 Q200.063 1024.5 194.253 1024.5 Q188.443 1024.5 185.364 1019.91 Q182.309 1015.31 182.309 1006.58 Q182.309 997.83 185.364 993.247 Q188.443 988.64 194.253 988.64 Z" fill="#000000" fill-rule="nonzero" fill-opacity="1" /><path clip-path="url(#clip550)" d="M206.743 993.218 L212.95 993.218 L212.95 971.796 L206.198 973.15 L206.198 969.689 L212.912 968.335 L216.711 968.335 L216.711 993.218 L222.918 993.218 L222.918 996.415 L206.743 996.415 L206.743 993.218 Z" fill="#000000" fill-rule="nonzero" fill-opacity="1" /><path clip-path="url(#clip550)" d="M153.792 697.869 L161.431 697.869 L161.431 671.504 L153.121 673.17 L153.121 668.911 L161.384 667.244 L166.06 667.244 L166.06 697.869 L173.699 697.869 L173.699 701.804 L153.792 701.804 L153.792 697.869 Z" fill="#000000" fill-rule="nonzero" fill-opacity="1" /><path clip-path="url(#clip550)" d="M193.143 670.323 Q189.532 670.323 187.704 673.888 Q185.898 677.429 185.898 684.559 Q185.898 691.666 187.704 695.23 Q189.532 698.772 193.143 698.772 Q196.778 698.772 198.583 695.23 Q200.412 691.666 200.412 684.559 Q200.412 677.429 198.583 673.888 Q196.778 670.323 193.143 670.323 M193.143 666.619 Q198.954 666.619 202.009 671.226 Q205.088 675.809 205.088 684.559 Q205.088 693.286 202.009 697.892 Q198.954 702.476 193.143 702.476 Q187.333 702.476 184.255 697.892 Q181.199 693.286 181.199 684.559 Q181.199 675.809 184.255 671.226 Q187.333 666.619 193.143 666.619 Z" fill="#000000" fill-rule="nonzero" fill-opacity="1" /><path clip-path="url(#clip550)" d="M209.658 671.197 L222.918 671.197 L222.918 674.394 L205.088 674.394 L205.088 671.197 Q207.251 668.958 210.975 665.197 Q214.717 661.417 215.677 660.326 Q217.501 658.276 218.216 656.865 Q218.949 655.436 218.949 654.063 Q218.949 651.825 217.369 650.414 Q215.808 649.003 213.288 649.003 Q211.501 649.003 209.508 649.624 Q207.533 650.245 205.276 651.505 L205.276 647.668 Q207.57 646.747 209.564 646.276 Q211.558 645.806 213.213 645.806 Q217.576 645.806 220.172 647.988 Q222.767 650.17 222.767 653.818 Q222.767 655.549 222.109 657.11 Q221.469 658.652 219.758 660.758 Q219.288 661.304 216.767 663.918 Q214.247 666.513 209.658 671.197 Z" fill="#000000" fill-rule="nonzero" fill-opacity="1" /><path clip-path="url(#clip550)" d="M153.134 375.848 L160.772 375.848 L160.772 349.483 L152.462 351.149 L152.462 346.89 L160.726 345.223 L165.402 345.223 L165.402 375.848 L173.041 375.848 L173.041 379.783 L153.134 379.783 L153.134 375.848 Z" fill="#000000" fill-rule="nonzero" fill-opacity="1" /><path clip-path="url(#clip550)" d="M192.485 348.302 Q188.874 348.302 187.045 351.867 Q185.24 355.408 185.24 362.538 Q185.24 369.645 187.045 373.209 Q188.874 376.751 192.485 376.751 Q196.119 376.751 197.925 373.209 Q199.754 369.645 199.754 362.538 Q199.754 355.408 197.925 351.867 Q196.119 348.302 192.485 348.302 M192.485 344.598 Q198.295 344.598 201.351 349.205 Q204.43 353.788 204.43 362.538 Q204.43 371.265 201.351 375.871 Q198.295 380.455 192.485 380.455 Q186.675 380.455 183.596 375.871 Q180.541 371.265 180.541 362.538 Q180.541 353.788 183.596 349.205 Q186.675 344.598 192.485 344.598 Z" fill="#000000" fill-rule="nonzero" fill-opacity="1" /><path clip-path="url(#clip550)" d="M217.125 337.233 Q219.852 337.816 221.375 339.659 Q222.918 341.502 222.918 344.21 Q222.918 348.367 220.059 350.643 Q217.2 352.918 211.934 352.918 Q210.166 352.918 208.285 352.561 Q206.423 352.223 204.43 351.527 L204.43 347.859 Q206.009 348.781 207.89 349.251 Q209.771 349.721 211.821 349.721 Q215.395 349.721 217.256 348.31 Q219.137 346.9 219.137 344.21 Q219.137 341.728 217.388 340.336 Q215.658 338.925 212.555 338.925 L209.282 338.925 L209.282 335.803 L212.705 335.803 Q215.507 335.803 216.993 334.694 Q218.479 333.565 218.479 331.459 Q218.479 329.296 216.937 328.149 Q215.413 326.982 212.555 326.982 Q210.994 326.982 209.207 327.321 Q207.42 327.66 205.276 328.374 L205.276 324.989 Q207.439 324.387 209.32 324.086 Q211.219 323.785 212.893 323.785 Q217.219 323.785 219.739 325.76 Q222.259 327.716 222.259 331.064 Q222.259 333.396 220.924 335.013 Q219.589 336.612 217.125 337.233 Z" fill="#000000" fill-rule="nonzero" fill-opacity="1" /><path clip-path="url(#clip550)" d="M42.6863 912.235 L42.6863 882.189 L48.0971 882.189 L48.0971 905.806 L62.1653 905.806 L62.1653 883.176 L67.5762 883.176 L67.5762 905.806 L84.7954 905.806 L84.7954 881.616 L90.2063 881.616 L90.2063 912.235 L42.6863 912.235 Z" fill="#000000" fill-rule="nonzero" fill-opacity="1" /><path clip-path="url(#clip550)" d="M44.2459 842.563 L50.5161 842.563 Q48.7655 846.223 47.9062 849.47 Q47.0468 852.716 47.0468 855.74 Q47.0468 860.991 49.0838 863.856 Q51.1208 866.689 54.8766 866.689 Q58.0276 866.689 59.6509 864.811 Q61.2423 862.901 62.229 857.618 L63.0247 853.735 Q64.3933 846.541 67.8627 843.136 Q71.3001 839.698 77.0929 839.698 Q83.9997 839.698 87.5645 844.345 Q91.1293 848.96 91.1293 857.904 Q91.1293 861.278 90.3654 865.097 Q89.6015 868.885 88.1056 872.959 L81.4853 872.959 Q83.6814 869.044 84.7954 865.288 Q85.9094 861.533 85.9094 857.904 Q85.9094 852.398 83.7451 849.406 Q81.5808 846.414 77.5704 846.414 Q74.0692 846.414 72.0958 848.578 Q70.1225 850.711 69.1358 855.612 L68.3719 859.527 Q66.9396 866.721 63.8841 869.935 Q60.8285 873.15 55.3859 873.15 Q49.0838 873.15 45.4554 868.726 Q41.8269 864.27 41.8269 856.472 Q41.8269 853.13 42.4317 849.66 Q43.0364 846.191 44.2459 842.563 Z" fill="#000000" fill-rule="nonzero" fill-opacity="1" /><path clip-path="url(#clip550)" d="M44.2459 801.186 L50.5161 801.186 Q48.7655 804.846 47.9062 808.092 Q47.0468 811.339 47.0468 814.363 Q47.0468 819.614 49.0838 822.479 Q51.1208 825.312 54.8766 825.312 Q58.0276 825.312 59.6509 823.434 Q61.2423 821.524 62.229 816.241 L63.0247 812.357 Q64.3933 805.164 67.8627 801.759 Q71.3001 798.321 77.0929 798.321 Q83.9997 798.321 87.5645 802.968 Q91.1293 807.583 91.1293 816.527 Q91.1293 819.901 90.3654 823.72 Q89.6015 827.508 88.1056 831.582 L81.4853 831.582 Q83.6814 827.667 84.7954 823.911 Q85.9094 820.155 85.9094 816.527 Q85.9094 811.021 83.7451 808.029 Q81.5808 805.037 77.5704 805.037 Q74.0692 805.037 72.0958 807.201 Q70.1225 809.334 69.1358 814.235 L68.3719 818.15 Q66.9396 825.343 63.8841 828.558 Q60.8285 831.773 55.3859 831.773 Q49.0838 831.773 45.4554 827.349 Q41.8269 822.893 41.8269 815.095 Q41.8269 811.753 42.4317 808.283 Q43.0364 804.814 44.2459 801.186 Z" fill="#000000" fill-rule="nonzero" fill-opacity="1" /><path clip-path="url(#clip550)" d="M82.1218 787.054 L82.1218 780.338 L90.2063 780.338 L90.2063 787.054 L82.1218 787.054 M56.4999 787.054 L56.4999 780.338 L64.5843 780.338 L64.5843 787.054 L56.4999 787.054 Z" fill="#000000" fill-rule="nonzero" fill-opacity="1" /><path clip-path="url(#clip550)" d="M42.6863 745.613 L42.6863 715.567 L48.0971 715.567 L48.0971 739.184 L62.1653 739.184 L62.1653 716.554 L67.5762 716.554 L67.5762 739.184 L84.7954 739.184 L84.7954 714.994 L90.2063 714.994 L90.2063 745.613 L42.6863 745.613 Z" fill="#000000" fill-rule="nonzero" fill-opacity="1" /><path clip-path="url(#clip550)" d="M68.6902 675.049 L90.2063 675.049 L90.2063 680.906 L68.8812 680.906 Q63.8204 680.906 61.306 682.879 Q58.7915 684.852 58.7915 688.799 Q58.7915 693.542 61.8152 696.279 Q64.8389 699.016 70.0588 699.016 L90.2063 699.016 L90.2063 704.904 L54.5583 704.904 L54.5583 699.016 L60.0965 699.016 Q56.8818 696.915 55.2904 694.083 Q53.699 691.218 53.699 687.494 Q53.699 681.351 57.5184 678.2 Q61.306 675.049 68.6902 675.049 Z" fill="#000000" fill-rule="nonzero" fill-opacity="1" /><path clip-path="url(#clip550)" d="M71.9685 639.91 Q65.6028 639.91 62.1017 642.552 Q58.6006 645.162 58.6006 649.905 Q58.6006 654.615 62.1017 657.257 Q65.6028 659.867 71.9685 659.867 Q78.3024 659.867 81.8036 657.257 Q85.3047 654.615 85.3047 649.905 Q85.3047 645.162 81.8036 642.552 Q78.3024 639.91 71.9685 639.91 M85.7821 634.054 Q94.8851 634.054 99.3092 638.096 Q103.765 642.138 103.765 650.478 Q103.765 653.565 103.288 656.302 Q102.842 659.039 101.887 661.617 L96.19 661.617 Q97.5905 659.039 98.2589 656.525 Q98.9273 654.01 98.9273 651.401 Q98.9273 645.64 95.9036 642.775 Q92.9117 639.91 86.8325 639.91 L83.9361 639.91 Q87.0871 641.725 88.6467 644.557 Q90.2063 647.39 90.2063 651.337 Q90.2063 657.894 85.2092 661.904 Q80.2121 665.914 71.9685 665.914 Q63.6931 665.914 58.696 661.904 Q53.699 657.894 53.699 651.337 Q53.699 647.39 55.2586 644.557 Q56.8182 641.725 59.9692 639.91 L54.5583 639.91 L54.5583 634.054 L85.7821 634.054 Z" fill="#000000" fill-rule="nonzero" fill-opacity="1" /><path clip-path="url(#clip550)" d="M40.6811 621.991 L40.6811 616.135 L90.2063 616.135 L90.2063 621.991 L40.6811 621.991 Z" fill="#000000" fill-rule="nonzero" fill-opacity="1" /><path clip-path="url(#clip550)" d="M72.2868 587.68 Q72.2868 594.778 73.9101 597.515 Q75.5333 600.252 79.4482 600.252 Q82.5674 600.252 84.4135 598.215 Q86.2277 596.146 86.2277 592.613 Q86.2277 587.743 82.7902 584.815 Q79.3209 581.855 73.5918 581.855 L72.2868 581.855 L72.2868 587.68 M69.8679 575.999 L90.2063 575.999 L90.2063 581.855 L84.7954 581.855 Q88.0419 583.86 89.6015 586.852 Q91.1293 589.844 91.1293 594.173 Q91.1293 599.647 88.0738 602.894 Q84.9864 606.109 79.8302 606.109 Q73.8146 606.109 70.759 602.098 Q67.7035 598.056 67.7035 590.067 L67.7035 581.855 L67.1306 581.855 Q63.0884 581.855 60.8922 584.529 Q58.6642 587.171 58.6642 591.977 Q58.6642 595.032 59.3963 597.929 Q60.1283 600.825 61.5924 603.499 L56.1816 603.499 Q54.9403 600.284 54.3355 597.26 Q53.699 594.236 53.699 591.372 Q53.699 583.638 57.7094 579.818 Q61.7197 575.999 69.8679 575.999 Z" fill="#000000" fill-rule="nonzero" fill-opacity="1" /><path clip-path="url(#clip550)" d="M68.6902 534.303 L90.2063 534.303 L90.2063 540.16 L68.8812 540.16 Q63.8204 540.16 61.306 542.133 Q58.7915 544.107 58.7915 548.053 Q58.7915 552.796 61.8152 555.533 Q64.8389 558.27 70.0588 558.27 L90.2063 558.27 L90.2063 564.159 L54.5583 564.159 L54.5583 558.27 L60.0965 558.27 Q56.8818 556.17 55.2904 553.337 Q53.699 550.472 53.699 546.748 Q53.699 540.605 57.5184 537.454 Q61.306 534.303 68.6902 534.303 Z" fill="#000000" fill-rule="nonzero" fill-opacity="1" /><path clip-path="url(#clip550)" d="M59.9692 499.165 L40.6811 499.165 L40.6811 493.308 L90.2063 493.308 L90.2063 499.165 L84.8591 499.165 Q88.0419 501.011 89.6015 503.843 Q91.1293 506.644 91.1293 510.591 Q91.1293 517.052 85.9731 521.126 Q80.8169 525.169 72.4141 525.169 Q64.0114 525.169 58.8552 521.126 Q53.699 517.052 53.699 510.591 Q53.699 506.644 55.2586 503.843 Q56.7863 501.011 59.9692 499.165 M72.4141 519.121 Q78.8753 519.121 82.5674 516.479 Q86.2277 513.806 86.2277 509.159 Q86.2277 504.512 82.5674 501.838 Q78.8753 499.165 72.4141 499.165 Q65.9529 499.165 62.2927 501.838 Q58.6006 504.512 58.6006 509.159 Q58.6006 513.806 62.2927 516.479 Q65.9529 519.121 72.4141 519.121 Z" fill="#000000" fill-rule="nonzero" fill-opacity="1" /><path clip-path="url(#clip550)" d="M82.1218 479.749 L82.1218 473.033 L87.5963 473.033 L97.7815 478.253 L97.7815 482.359 L87.5963 479.749 L82.1218 479.749 Z" fill="#000000" fill-rule="nonzero" fill-opacity="1" /><path clip-path="url(#clip550)" d="M44.4369 434.012 L54.5583 434.012 L54.5583 421.949 L59.1098 421.949 L59.1098 434.012 L78.4616 434.012 Q82.8221 434.012 84.0634 432.834 Q85.3047 431.625 85.3047 427.964 L85.3047 421.949 L90.2063 421.949 L90.2063 427.964 Q90.2063 434.744 87.6918 437.322 Q85.1455 439.9 78.4616 439.9 L59.1098 439.9 L59.1098 444.197 L54.5583 444.197 L54.5583 439.9 L44.4369 439.9 L44.4369 434.012 Z" fill="#000000" fill-rule="nonzero" fill-opacity="1" /><path clip-path="url(#clip550)" d="M54.5583 414.246 L54.5583 408.39 L90.2063 408.39 L90.2063 414.246 L54.5583 414.246 M40.6811 414.246 L40.6811 408.39 L48.0971 408.39 L48.0971 414.246 L40.6811 414.246 Z" fill="#000000" fill-rule="nonzero" fill-opacity="1" /><path clip-path="url(#clip550)" d="M61.4015 368.381 Q57.4547 366.185 55.5768 363.13 Q53.699 360.074 53.699 355.936 Q53.699 350.366 57.6139 347.343 Q61.4969 344.319 68.6902 344.319 L90.2063 344.319 L90.2063 350.207 L68.8812 350.207 Q63.7568 350.207 61.2741 352.021 Q58.7915 353.836 58.7915 357.56 Q58.7915 362.111 61.8152 364.753 Q64.8389 367.395 70.0588 367.395 L90.2063 367.395 L90.2063 373.283 L68.8812 373.283 Q63.7249 373.283 61.2741 375.097 Q58.7915 376.911 58.7915 380.699 Q58.7915 385.187 61.8471 387.828 Q64.8708 390.47 70.0588 390.47 L90.2063 390.47 L90.2063 396.359 L54.5583 396.359 L54.5583 390.47 L60.0965 390.47 Q56.8182 388.465 55.2586 385.664 Q53.699 382.863 53.699 379.012 Q53.699 375.129 55.6723 372.423 Q57.6457 369.686 61.4015 368.381 Z" fill="#000000" fill-rule="nonzero" fill-opacity="1" /><path clip-path="url(#clip550)" d="M70.9182 302.146 L73.7828 302.146 L73.7828 329.073 Q79.8302 328.691 83.013 325.445 Q86.1641 322.166 86.1641 316.342 Q86.1641 312.968 85.3365 309.817 Q84.509 306.634 82.8539 303.515 L88.3921 303.515 Q89.7289 306.666 90.4291 309.976 Q91.1293 313.286 91.1293 316.692 Q91.1293 325.222 86.1641 330.219 Q81.1988 335.184 72.7324 335.184 Q63.9796 335.184 58.8552 330.473 Q53.699 325.731 53.699 317.71 Q53.699 310.517 58.3459 306.347 Q62.9611 302.146 70.9182 302.146 M69.1995 308.002 Q64.3933 308.066 61.5288 310.708 Q58.6642 313.318 58.6642 317.647 Q58.6642 322.548 61.4333 325.508 Q64.2024 328.436 69.2313 328.882 L69.1995 308.002 Z" fill="#000000" fill-rule="nonzero" fill-opacity="1" /><path clip-path="url(#clip550)" d="M82.1218 291.038 L82.1218 284.322 L90.2063 284.322 L90.2063 291.038 L82.1218 291.038 M56.4999 291.038 L56.4999 284.322 L64.5843 284.322 L64.5843 291.038 L56.4999 291.038 Z" fill="#000000" fill-rule="nonzero" fill-opacity="1" /><path clip-path="url(#clip550)" d="M42.6863 269.681 L42.6863 244.441 L48.0971 244.441 L48.0971 263.793 L59.7464 263.793 Q59.2689 262.392 59.0461 260.992 Q58.7915 259.591 58.7915 258.191 Q58.7915 250.234 63.152 245.587 Q67.5125 240.94 74.9604 240.94 Q82.6311 240.94 86.8961 245.714 Q91.1293 250.488 91.1293 259.178 Q91.1293 262.169 90.6201 265.289 Q90.1108 268.376 89.0923 271.686 L82.6311 271.686 Q84.1907 268.822 84.9546 265.766 Q85.7185 262.71 85.7185 259.305 Q85.7185 253.799 82.8221 250.584 Q79.9257 247.369 74.9604 247.369 Q69.9952 247.369 67.0988 250.584 Q64.2024 253.799 64.2024 259.305 Q64.2024 261.883 64.7753 264.461 Q65.3482 267.007 66.5577 269.681 L42.6863 269.681 Z" fill="#000000" fill-rule="nonzero" fill-opacity="1" /><path clip-path="url(#clip550)" d="M46.9195 214.522 Q46.9195 219.487 51.8211 222.002 Q56.6908 224.484 66.494 224.484 Q76.2654 224.484 81.167 222.002 Q86.0367 219.487 86.0367 214.522 Q86.0367 209.525 81.167 207.042 Q76.2654 204.528 66.494 204.528 Q56.6908 204.528 51.8211 207.042 Q46.9195 209.525 46.9195 214.522 M41.8269 214.522 Q41.8269 206.533 48.1608 202.332 Q54.4628 198.099 66.494 198.099 Q78.4934 198.099 84.8273 202.332 Q91.1293 206.533 91.1293 214.522 Q91.1293 222.511 84.8273 226.744 Q78.4934 230.946 66.494 230.946 Q54.4628 230.946 48.1608 226.744 Q41.8269 222.511 41.8269 214.522 Z" fill="#000000" fill-rule="nonzero" fill-opacity="1" /><polyline clip-path="url(#clip552)" style="stroke:#009af9; stroke-linecap:round; stroke-linejoin:round; stroke-width:4; stroke-opacity:1; fill:none" points="350.696,378.54 371.971,173.363 393.245,146.573 414.519,141.054 435.794,155.46 457.068,215.074 478.342,149.385 499.616,118.984 520.891,152.006 542.165,170.344 563.439,168.596 584.714,160.299 605.988,142.842 627.262,155.168 648.537,164.427 669.811,178.774 691.085,170.615 712.36,202.723 733.634,132.662 754.908,110.236 776.183,179.474 797.457,126.07 818.731,142.16 840.005,138.535 861.28,164.252 882.554,170.612 903.828,142.089 925.103,222.868 946.377,159.183 967.651,173.147 988.926,155.418 1010.2,183.248 1031.47,132.725 1052.75,183.493 1074.02,163.194 1095.3,172.83 1116.57,173.33 1137.85,206.436 1159.12,146.193 1180.39,205.29 1201.67,142.245 1222.94,191.506 1244.22,147.539 1265.49,160.493 1286.77,158.422 1308.04,172.172 1329.31,142.673 1350.59,154.103 1371.86,157.191 1393.14,167.157 1414.41,185.785 1435.69,171.11 1456.96,138.314 1478.23,173.742 1499.51,137.652 1520.78,121.17 1542.06,183.942 1563.33,145.055 1584.61,165.943 1605.88,137.483 1627.15,119.94 1648.43,165.543 1669.7,144.829 1690.98,188.592 1712.25,157.621 1733.53,155.355 1754.8,145.642 1776.08,161.346 1797.35,152.349 1818.62,163.589 1839.9,166.133 1861.17,148.042 1882.45,155.117 1903.72,159.334 1925,149.952 1946.27,141.731 1967.54,143.914 1988.82,214.064 2010.09,152.247 2031.37,174.121 2052.64,149.631 2073.92,141.756 2095.19,144.688 2116.46,166.103 2137.74,143.266 2159.01,165.732 2180.29,151.8 2201.56,204.807 2222.84,119.554 2244.11,181.792 2265.38,153.548 2286.66,219.995 2307.93,152.933 2329.21,126.215 2350.48,130.617 2371.76,219.528 2393.03,132.88 2414.3,130.434 2435.58,122.768 2456.85,135.193 2478.13,145.546 2499.4,159.361 2520.68,169.144 2541.95,165.217 2563.22,148.315 2584.5,136.62 2605.77,155.015 2627.05,150.289 2648.32,180.578 2669.6,141.633 2690.87,155.998 2712.14,151.389 2733.42,159.955 2754.69,170.172 2775.97,160.666 2797.24,161.832 2818.52,151.111 2839.79,145.343 2861.06,138.926 2882.34,209.827 2903.61,143.38 2924.89,194.667 2946.16,154.563 2967.44,118.51 2988.71,167.61 3009.99,199.905 "/>
</svg>
