<?xml version="1.0" encoding="utf-8"?>
<svg xmlns="http://www.w3.org/2000/svg" xmlns:xlink="http://www.w3.org/1999/xlink" width="800" height="300" viewBox="0 0 3200 1200">
<defs>
  <clipPath id="clip980">
    <rect x="0" y="0" width="3200" height="1200"/>
  </clipPath>
</defs>
<path clip-path="url(#clip980)" d="
M0 1200 L3200 1200 L3200 0 L0 0  Z
  " fill="#ffffff" fill-rule="evenodd" fill-opacity="1"/>
<defs>
  <clipPath id="clip981">
    <rect x="640" y="0" width="2241" height="1200"/>
  </clipPath>
</defs>
<path clip-path="url(#clip980)" d="
M270.918 1000.1 L3089.76 1000.1 L3089.76 110.236 L270.918 110.236  Z
  " fill="#ffffff" fill-rule="evenodd" fill-opacity="1"/>
<defs>
  <clipPath id="clip982">
    <rect x="270" y="110" width="2820" height="891"/>
  </clipPath>
</defs>
<polyline clip-path="url(#clip982)" style="stroke:#000000; stroke-linecap:round; stroke-linejoin:round; stroke-width:2; stroke-opacity:0.1; fill:none" points="
  341.333,1000.1 341.333,110.236 
  "/>
<polyline clip-path="url(#clip982)" style="stroke:#000000; stroke-linecap:round; stroke-linejoin:round; stroke-width:2; stroke-opacity:0.1; fill:none" points="
  809.517,1000.1 809.517,110.236 
  "/>
<polyline clip-path="url(#clip982)" style="stroke:#000000; stroke-linecap:round; stroke-linejoin:round; stroke-width:2; stroke-opacity:0.1; fill:none" points="
  1277.7,1000.1 1277.7,110.236 
  "/>
<polyline clip-path="url(#clip982)" style="stroke:#000000; stroke-linecap:round; stroke-linejoin:round; stroke-width:2; stroke-opacity:0.1; fill:none" points="
  1745.89,1000.1 1745.89,110.236 
  "/>
<polyline clip-path="url(#clip982)" style="stroke:#000000; stroke-linecap:round; stroke-linejoin:round; stroke-width:2; stroke-opacity:0.1; fill:none" points="
  2214.07,1000.1 2214.07,110.236 
  "/>
<polyline clip-path="url(#clip982)" style="stroke:#000000; stroke-linecap:round; stroke-linejoin:round; stroke-width:2; stroke-opacity:0.1; fill:none" points="
  2682.26,1000.1 2682.26,110.236 
  "/>
<polyline clip-path="url(#clip980)" style="stroke:#000000; stroke-linecap:round; stroke-linejoin:round; stroke-width:4; stroke-opacity:1; fill:none" points="
  270.918,1000.1 3089.76,1000.1 
  "/>
<polyline clip-path="url(#clip980)" style="stroke:#000000; stroke-linecap:round; stroke-linejoin:round; stroke-width:4; stroke-opacity:1; fill:none" points="
  341.333,1000.1 341.333,981.2 
  "/>
<polyline clip-path="url(#clip980)" style="stroke:#000000; stroke-linecap:round; stroke-linejoin:round; stroke-width:4; stroke-opacity:1; fill:none" points="
  809.517,1000.1 809.517,981.2 
  "/>
<polyline clip-path="url(#clip980)" style="stroke:#000000; stroke-linecap:round; stroke-linejoin:round; stroke-width:4; stroke-opacity:1; fill:none" points="
  1277.7,1000.1 1277.7,981.2 
  "/>
<polyline clip-path="url(#clip980)" style="stroke:#000000; stroke-linecap:round; stroke-linejoin:round; stroke-width:4; stroke-opacity:1; fill:none" points="
  1745.89,1000.1 1745.89,981.2 
  "/>
<polyline clip-path="url(#clip980)" style="stroke:#000000; stroke-linecap:round; stroke-linejoin:round; stroke-width:4; stroke-opacity:1; fill:none" points="
  2214.07,1000.1 2214.07,981.2 
  "/>
<polyline clip-path="url(#clip980)" style="stroke:#000000; stroke-linecap:round; stroke-linejoin:round; stroke-width:4; stroke-opacity:1; fill:none" points="
  2682.26,1000.1 2682.26,981.2 
  "/>
<path clip-path="url(#clip980)" d="M341.333 1037.42 Q337.722 1037.42 335.893 1040.98 Q334.087 1044.52 334.087 1051.65 Q334.087 1058.76 335.893 1062.32 Q337.722 1065.87 341.333 1065.87 Q344.967 1065.87 346.772 1062.32 Q348.601 1058.76 348.601 1051.65 Q348.601 1044.52 346.772 1040.98 Q344.967 1037.42 341.333 1037.42 M341.333 1033.71 Q347.143 1033.71 350.198 1038.32 Q353.277 1042.9 353.277 1051.65 Q353.277 1060.38 350.198 1064.99 Q347.143 1069.57 341.333 1069.57 Q335.522 1069.57 332.444 1064.99 Q329.388 1060.38 329.388 1051.65 Q329.388 1042.9 332.444 1038.32 Q335.522 1033.71 341.333 1033.71 Z" fill="#000000" fill-rule="evenodd" fill-opacity="1" /><path clip-path="url(#clip980)" d="M784.216 1034.34 L802.573 1034.34 L802.573 1038.27 L788.499 1038.27 L788.499 1046.75 Q789.517 1046.4 790.536 1046.24 Q791.554 1046.05 792.573 1046.05 Q798.36 1046.05 801.74 1049.22 Q805.119 1052.39 805.119 1057.81 Q805.119 1063.39 801.647 1066.49 Q798.175 1069.57 791.855 1069.57 Q789.679 1069.57 787.411 1069.2 Q785.166 1068.83 782.758 1068.09 L782.758 1063.39 Q784.841 1064.52 787.064 1065.08 Q789.286 1065.63 791.763 1065.63 Q795.767 1065.63 798.105 1063.53 Q800.443 1061.42 800.443 1057.81 Q800.443 1054.2 798.105 1052.09 Q795.767 1049.99 791.763 1049.99 Q789.888 1049.99 788.013 1050.4 Q786.161 1050.82 784.216 1051.7 L784.216 1034.34 Z" fill="#000000" fill-rule="evenodd" fill-opacity="1" /><path clip-path="url(#clip980)" d="M824.332 1037.42 Q820.721 1037.42 818.892 1040.98 Q817.087 1044.52 817.087 1051.65 Q817.087 1058.76 818.892 1062.32 Q820.721 1065.87 824.332 1065.87 Q827.966 1065.87 829.772 1062.32 Q831.6 1058.76 831.6 1051.65 Q831.6 1044.52 829.772 1040.98 Q827.966 1037.42 824.332 1037.42 M824.332 1033.71 Q830.142 1033.71 833.198 1038.32 Q836.276 1042.9 836.276 1051.65 Q836.276 1060.38 833.198 1064.99 Q830.142 1069.57 824.332 1069.57 Q818.522 1069.57 815.443 1064.99 Q812.388 1060.38 812.388 1051.65 Q812.388 1042.9 815.443 1038.32 Q818.522 1033.71 824.332 1033.71 Z" fill="#000000" fill-rule="evenodd" fill-opacity="1" /><path clip-path="url(#clip980)" d="M1237.31 1064.96 L1244.95 1064.96 L1244.95 1038.6 L1236.64 1040.26 L1236.64 1036 L1244.9 1034.34 L1249.58 1034.34 L1249.58 1064.96 L1257.22 1064.96 L1257.22 1068.9 L1237.31 1068.9 L1237.31 1064.96 Z" fill="#000000" fill-rule="evenodd" fill-opacity="1" /><path clip-path="url(#clip980)" d="M1276.66 1037.42 Q1273.05 1037.42 1271.22 1040.98 Q1269.41 1044.52 1269.41 1051.65 Q1269.41 1058.76 1271.22 1062.32 Q1273.05 1065.87 1276.66 1065.87 Q1280.29 1065.87 1282.1 1062.32 Q1283.93 1058.76 1283.93 1051.65 Q1283.93 1044.52 1282.1 1040.98 Q1280.29 1037.42 1276.66 1037.42 M1276.66 1033.71 Q1282.47 1033.71 1285.53 1038.32 Q1288.6 1042.9 1288.6 1051.65 Q1288.6 1060.38 1285.53 1064.99 Q1282.47 1069.57 1276.66 1069.57 Q1270.85 1069.57 1267.77 1064.99 Q1264.72 1060.38 1264.72 1051.65 Q1264.72 1042.9 1267.77 1038.32 Q1270.85 1033.71 1276.66 1033.71 Z" fill="#000000" fill-rule="evenodd" fill-opacity="1" /><path clip-path="url(#clip980)" d="M1306.82 1037.42 Q1303.21 1037.42 1301.38 1040.98 Q1299.58 1044.52 1299.58 1051.65 Q1299.58 1058.76 1301.38 1062.32 Q1303.21 1065.87 1306.82 1065.87 Q1310.46 1065.87 1312.26 1062.32 Q1314.09 1058.76 1314.09 1051.65 Q1314.09 1044.52 1312.26 1040.98 Q1310.46 1037.42 1306.82 1037.42 M1306.82 1033.71 Q1312.63 1033.71 1315.69 1038.32 Q1318.77 1042.9 1318.77 1051.65 Q1318.77 1060.38 1315.69 1064.99 Q1312.63 1069.57 1306.82 1069.57 Q1301.01 1069.57 1297.93 1064.99 Q1294.88 1060.38 1294.88 1051.65 Q1294.88 1042.9 1297.93 1038.32 Q1301.01 1033.71 1306.82 1033.71 Z" fill="#000000" fill-rule="evenodd" fill-opacity="1" /><path clip-path="url(#clip980)" d="M1705.49 1064.96 L1713.13 1064.96 L1713.13 1038.6 L1704.82 1040.26 L1704.82 1036 L1713.09 1034.34 L1717.76 1034.34 L1717.76 1064.96 L1725.4 1064.96 L1725.4 1068.9 L1705.49 1068.9 L1705.49 1064.96 Z" fill="#000000" fill-rule="evenodd" fill-opacity="1" /><path clip-path="url(#clip980)" d="M1734.89 1034.34 L1753.25 1034.34 L1753.25 1038.27 L1739.17 1038.27 L1739.17 1046.75 Q1740.19 1046.4 1741.21 1046.24 Q1742.23 1046.05 1743.25 1046.05 Q1749.03 1046.05 1752.41 1049.22 Q1755.79 1052.39 1755.79 1057.81 Q1755.79 1063.39 1752.32 1066.49 Q1748.85 1069.57 1742.53 1069.57 Q1740.35 1069.57 1738.09 1069.2 Q1735.84 1068.83 1733.43 1068.09 L1733.43 1063.39 Q1735.52 1064.52 1737.74 1065.08 Q1739.96 1065.63 1742.44 1065.63 Q1746.44 1065.63 1748.78 1063.53 Q1751.12 1061.42 1751.12 1057.81 Q1751.12 1054.2 1748.78 1052.09 Q1746.44 1049.99 1742.44 1049.99 Q1740.56 1049.99 1738.69 1050.4 Q1736.84 1050.82 1734.89 1051.7 L1734.89 1034.34 Z" fill="#000000" fill-rule="evenodd" fill-opacity="1" /><path clip-path="url(#clip980)" d="M1775.01 1037.42 Q1771.4 1037.42 1769.57 1040.98 Q1767.76 1044.52 1767.76 1051.65 Q1767.76 1058.76 1769.57 1062.32 Q1771.4 1065.87 1775.01 1065.87 Q1778.64 1065.87 1780.45 1062.32 Q1782.28 1058.76 1782.28 1051.65 Q1782.28 1044.52 1780.45 1040.98 Q1778.64 1037.42 1775.01 1037.42 M1775.01 1033.71 Q1780.82 1033.71 1783.87 1038.32 Q1786.95 1042.9 1786.95 1051.65 Q1786.95 1060.38 1783.87 1064.99 Q1780.82 1069.57 1775.01 1069.57 Q1769.2 1069.57 1766.12 1064.99 Q1763.06 1060.38 1763.06 1051.65 Q1763.06 1042.9 1766.12 1038.32 Q1769.2 1033.71 1775.01 1033.71 Z" fill="#000000" fill-rule="evenodd" fill-opacity="1" /><path clip-path="url(#clip980)" d="M2177.76 1064.96 L2194.08 1064.96 L2194.08 1068.9 L2172.14 1068.9 L2172.14 1064.96 Q2174.8 1062.21 2179.38 1057.58 Q2183.99 1052.93 2185.17 1051.58 Q2187.42 1049.06 2188.3 1047.32 Q2189.2 1045.56 2189.2 1043.87 Q2189.2 1041.12 2187.25 1039.38 Q2185.33 1037.65 2182.23 1037.65 Q2180.03 1037.65 2177.58 1038.41 Q2175.15 1039.18 2172.37 1040.73 L2172.37 1036 Q2175.19 1034.87 2177.65 1034.29 Q2180.1 1033.71 2182.14 1033.71 Q2187.51 1033.71 2190.7 1036.4 Q2193.9 1039.08 2193.9 1043.57 Q2193.9 1045.7 2193.09 1047.62 Q2192.3 1049.52 2190.19 1052.12 Q2189.62 1052.79 2186.51 1056 Q2183.41 1059.2 2177.76 1064.96 Z" fill="#000000" fill-rule="evenodd" fill-opacity="1" /><path clip-path="url(#clip980)" d="M2213.9 1037.42 Q2210.29 1037.42 2208.46 1040.98 Q2206.65 1044.52 2206.65 1051.65 Q2206.65 1058.76 2208.46 1062.32 Q2210.29 1065.87 2213.9 1065.87 Q2217.53 1065.87 2219.34 1062.32 Q2221.17 1058.76 2221.17 1051.65 Q2221.17 1044.52 2219.34 1040.98 Q2217.53 1037.42 2213.9 1037.42 M2213.9 1033.71 Q2219.71 1033.71 2222.76 1038.32 Q2225.84 1042.9 2225.84 1051.65 Q2225.84 1060.38 2222.76 1064.99 Q2219.71 1069.57 2213.9 1069.57 Q2208.09 1069.57 2205.01 1064.99 Q2201.95 1060.38 2201.95 1051.65 Q2201.95 1042.9 2205.01 1038.32 Q2208.09 1033.71 2213.9 1033.71 Z" fill="#000000" fill-rule="evenodd" fill-opacity="1" /><path clip-path="url(#clip980)" d="M2244.06 1037.42 Q2240.45 1037.42 2238.62 1040.98 Q2236.81 1044.52 2236.81 1051.65 Q2236.81 1058.76 2238.62 1062.32 Q2240.45 1065.87 2244.06 1065.87 Q2247.69 1065.87 2249.5 1062.32 Q2251.33 1058.76 2251.33 1051.65 Q2251.33 1044.52 2249.5 1040.98 Q2247.69 1037.42 2244.06 1037.42 M2244.06 1033.71 Q2249.87 1033.71 2252.93 1038.32 Q2256 1042.9 2256 1051.65 Q2256 1060.38 2252.93 1064.99 Q2249.87 1069.57 2244.06 1069.57 Q2238.25 1069.57 2235.17 1064.99 Q2232.12 1060.38 2232.12 1051.65 Q2232.12 1042.9 2235.17 1038.32 Q2238.25 1033.71 2244.06 1033.71 Z" fill="#000000" fill-rule="evenodd" fill-opacity="1" /><path clip-path="url(#clip980)" d="M2645.95 1064.96 L2662.27 1064.96 L2662.27 1068.9 L2640.32 1068.9 L2640.32 1064.96 Q2642.99 1062.21 2647.57 1057.58 Q2652.18 1052.93 2653.36 1051.58 Q2655.6 1049.06 2656.48 1047.32 Q2657.38 1045.56 2657.38 1043.87 Q2657.38 1041.12 2655.44 1039.38 Q2653.52 1037.65 2650.42 1037.65 Q2648.22 1037.65 2645.76 1038.41 Q2643.33 1039.18 2640.55 1040.73 L2640.55 1036 Q2643.38 1034.87 2645.83 1034.29 Q2648.29 1033.71 2650.32 1033.71 Q2655.69 1033.71 2658.89 1036.4 Q2662.08 1039.08 2662.08 1043.57 Q2662.08 1045.7 2661.27 1047.62 Q2660.49 1049.52 2658.38 1052.12 Q2657.8 1052.79 2654.7 1056 Q2651.6 1059.2 2645.95 1064.96 Z" fill="#000000" fill-rule="evenodd" fill-opacity="1" /><path clip-path="url(#clip980)" d="M2672.13 1034.34 L2690.48 1034.34 L2690.48 1038.27 L2676.41 1038.27 L2676.41 1046.75 Q2677.43 1046.4 2678.45 1046.24 Q2679.47 1046.05 2680.49 1046.05 Q2686.27 1046.05 2689.65 1049.22 Q2693.03 1052.39 2693.03 1057.81 Q2693.03 1063.39 2689.56 1066.49 Q2686.09 1069.57 2679.77 1069.57 Q2677.59 1069.57 2675.32 1069.2 Q2673.08 1068.83 2670.67 1068.09 L2670.67 1063.39 Q2672.75 1064.52 2674.98 1065.08 Q2677.2 1065.63 2679.67 1065.63 Q2683.68 1065.63 2686.02 1063.53 Q2688.36 1061.42 2688.36 1057.81 Q2688.36 1054.2 2686.02 1052.09 Q2683.68 1049.99 2679.67 1049.99 Q2677.8 1049.99 2675.92 1050.4 Q2674.07 1050.82 2672.13 1051.7 L2672.13 1034.34 Z" fill="#000000" fill-rule="evenodd" fill-opacity="1" /><path clip-path="url(#clip980)" d="M2712.24 1037.42 Q2708.63 1037.42 2706.8 1040.98 Q2705 1044.52 2705 1051.65 Q2705 1058.76 2706.8 1062.32 Q2708.63 1065.87 2712.24 1065.87 Q2715.88 1065.87 2717.68 1062.32 Q2719.51 1058.76 2719.51 1051.65 Q2719.51 1044.52 2717.68 1040.98 Q2715.88 1037.42 2712.24 1037.42 M2712.24 1033.71 Q2718.05 1033.71 2721.11 1038.32 Q2724.19 1042.9 2724.19 1051.65 Q2724.19 1060.38 2721.11 1064.99 Q2718.05 1069.57 2712.24 1069.57 Q2706.43 1069.57 2703.36 1064.99 Q2700.3 1060.38 2700.3 1051.65 Q2700.3 1042.9 2703.36 1038.32 Q2706.43 1033.71 2712.24 1033.71 Z" fill="#000000" fill-rule="evenodd" fill-opacity="1" /><path clip-path="url(#clip980)" d="M1556.64 1109.44 L1563.07 1109.44 L1563.07 1151.55 L1586.21 1151.55 L1586.21 1156.96 L1556.64 1156.96 L1556.64 1109.44 Z" fill="#000000" fill-rule="evenodd" fill-opacity="1" /><path clip-path="url(#clip980)" d="M1592.7 1121.31 L1598.56 1121.31 L1598.56 1156.96 L1592.7 1156.96 L1592.7 1121.31 M1592.7 1107.44 L1598.56 1107.44 L1598.56 1114.85 L1592.7 1114.85 L1592.7 1107.44 Z" fill="#000000" fill-rule="evenodd" fill-opacity="1" /><path clip-path="url(#clip980)" d="M1640.44 1135.45 L1640.44 1156.96 L1634.59 1156.96 L1634.59 1135.64 Q1634.59 1130.58 1632.61 1128.06 Q1630.64 1125.55 1626.69 1125.55 Q1621.95 1125.55 1619.21 1128.57 Q1616.48 1131.59 1616.48 1136.81 L1616.48 1156.96 L1610.59 1156.96 L1610.59 1121.31 L1616.48 1121.31 L1616.48 1126.85 Q1618.58 1123.64 1621.41 1122.05 Q1624.27 1120.45 1628 1120.45 Q1634.14 1120.45 1637.29 1124.27 Q1640.44 1128.06 1640.44 1135.45 Z" fill="#000000" fill-rule="evenodd" fill-opacity="1" /><path clip-path="url(#clip980)" d="M1682.62 1137.67 L1682.62 1140.54 L1655.69 1140.54 Q1656.07 1146.59 1659.32 1149.77 Q1662.6 1152.92 1668.42 1152.92 Q1671.79 1152.92 1674.95 1152.09 Q1678.13 1151.26 1681.25 1149.61 L1681.25 1155.15 Q1678.1 1156.48 1674.79 1157.18 Q1671.48 1157.88 1668.07 1157.88 Q1659.54 1157.88 1654.54 1152.92 Q1649.58 1147.95 1649.58 1139.49 Q1649.58 1130.74 1654.29 1125.61 Q1659.03 1120.45 1667.05 1120.45 Q1674.25 1120.45 1678.42 1125.1 Q1682.62 1129.72 1682.62 1137.67 M1676.76 1135.95 Q1676.7 1131.15 1674.05 1128.28 Q1671.44 1125.42 1667.12 1125.42 Q1662.21 1125.42 1659.25 1128.19 Q1656.33 1130.96 1655.88 1135.99 L1676.76 1135.95 Z" fill="#000000" fill-rule="evenodd" fill-opacity="1" /><path clip-path="url(#clip980)" d="M1708.43 1139.04 Q1701.33 1139.04 1698.59 1140.67 Q1695.86 1142.29 1695.86 1146.2 Q1695.86 1149.32 1697.89 1151.17 Q1699.96 1152.98 1703.5 1152.98 Q1708.37 1152.98 1711.29 1149.55 Q1714.25 1146.08 1714.25 1140.35 L1714.25 1139.04 L1708.43 1139.04 M1720.11 1136.62 L1720.11 1156.96 L1714.25 1156.96 L1714.25 1151.55 Q1712.25 1154.8 1709.26 1156.36 Q1706.27 1157.88 1701.94 1157.88 Q1696.46 1157.88 1693.22 1154.83 Q1690 1151.74 1690 1146.59 Q1690 1140.57 1694.01 1137.51 Q1698.05 1134.46 1706.04 1134.46 L1714.25 1134.46 L1714.25 1133.89 Q1714.25 1129.84 1711.58 1127.65 Q1708.94 1125.42 1704.13 1125.42 Q1701.08 1125.42 1698.18 1126.15 Q1695.28 1126.88 1692.61 1128.35 L1692.61 1122.94 Q1695.83 1121.7 1698.85 1121.09 Q1701.87 1120.45 1704.74 1120.45 Q1712.47 1120.45 1716.29 1124.46 Q1720.11 1128.48 1720.11 1136.62 Z" fill="#000000" fill-rule="evenodd" fill-opacity="1" /><path clip-path="url(#clip980)" d="M1755.63 1138.72 Q1755.63 1132.36 1752.99 1128.86 Q1750.38 1125.36 1745.64 1125.36 Q1740.93 1125.36 1738.28 1128.86 Q1735.67 1132.36 1735.67 1138.72 Q1735.67 1145.06 1738.28 1148.56 Q1740.93 1152.06 1745.64 1152.06 Q1750.38 1152.06 1752.99 1148.56 Q1755.63 1145.06 1755.63 1138.72 M1761.49 1152.54 Q1761.49 1161.64 1757.45 1166.06 Q1753.4 1170.52 1745.06 1170.52 Q1741.98 1170.52 1739.24 1170.04 Q1736.5 1169.6 1733.92 1168.64 L1733.92 1162.95 Q1736.5 1164.35 1739.02 1165.01 Q1741.53 1165.68 1744.14 1165.68 Q1749.9 1165.68 1752.77 1162.66 Q1755.63 1159.67 1755.63 1153.59 L1755.63 1150.69 Q1753.82 1153.84 1750.98 1155.4 Q1748.15 1156.96 1744.2 1156.96 Q1737.65 1156.96 1733.64 1151.96 Q1729.63 1146.97 1729.63 1138.72 Q1729.63 1130.45 1733.64 1125.45 Q1737.65 1120.45 1744.2 1120.45 Q1748.15 1120.45 1750.98 1122.01 Q1753.82 1123.57 1755.63 1126.72 L1755.63 1121.31 L1761.49 1121.31 L1761.49 1152.54 Z" fill="#000000" fill-rule="evenodd" fill-opacity="1" /><path clip-path="url(#clip980)" d="M1804.04 1137.67 L1804.04 1140.54 L1777.12 1140.54 Q1777.5 1146.59 1780.74 1149.77 Q1784.02 1152.92 1789.85 1152.92 Q1793.22 1152.92 1796.37 1152.09 Q1799.55 1151.26 1802.67 1149.61 L1802.67 1155.15 Q1799.52 1156.48 1796.21 1157.18 Q1792.9 1157.88 1789.5 1157.88 Q1780.97 1157.88 1775.97 1152.92 Q1771 1147.95 1771 1139.49 Q1771 1130.74 1775.71 1125.61 Q1780.46 1120.45 1788.48 1120.45 Q1795.67 1120.45 1799.84 1125.1 Q1804.04 1129.72 1804.04 1137.67 M1798.19 1135.95 Q1798.12 1131.15 1795.48 1128.28 Q1792.87 1125.42 1788.54 1125.42 Q1783.64 1125.42 1780.68 1128.19 Q1777.75 1130.96 1777.31 1135.99 L1798.19 1135.95 Z" fill="#000000" fill-rule="evenodd" fill-opacity="1" /><polyline clip-path="url(#clip982)" style="stroke:#000000; stroke-linecap:round; stroke-linejoin:round; stroke-width:2; stroke-opacity:0.1; fill:none" points="
  270.918,1000.1 3089.76,1000.1 
  "/>
<polyline clip-path="url(#clip982)" style="stroke:#000000; stroke-linecap:round; stroke-linejoin:round; stroke-width:2; stroke-opacity:0.1; fill:none" points="
  270.918,663.181 3089.76,663.181 
  "/>
<polyline clip-path="url(#clip982)" style="stroke:#000000; stroke-linecap:round; stroke-linejoin:round; stroke-width:2; stroke-opacity:0.1; fill:none" points="
  270.918,326.265 3089.76,326.265 
  "/>
<polyline clip-path="url(#clip980)" style="stroke:#000000; stroke-linecap:round; stroke-linejoin:round; stroke-width:4; stroke-opacity:1; fill:none" points="
  270.918,1000.1 270.918,110.236 
  "/>
<polyline clip-path="url(#clip980)" style="stroke:#000000; stroke-linecap:round; stroke-linejoin:round; stroke-width:4; stroke-opacity:1; fill:none" points="
  270.918,1000.1 289.815,1000.1 
  "/>
<polyline clip-path="url(#clip980)" style="stroke:#000000; stroke-linecap:round; stroke-linejoin:round; stroke-width:4; stroke-opacity:1; fill:none" points="
  270.918,663.181 289.815,663.181 
  "/>
<polyline clip-path="url(#clip980)" style="stroke:#000000; stroke-linecap:round; stroke-linejoin:round; stroke-width:4; stroke-opacity:1; fill:none" points="
  270.918,326.265 289.815,326.265 
  "/>
<path clip-path="url(#clip980)" d="M154.902 1019.89 L162.54 1019.89 L162.54 993.525 L154.23 995.191 L154.23 990.932 L162.494 989.265 L167.17 989.265 L167.17 1019.89 L174.809 1019.89 L174.809 1023.83 L154.902 1023.83 L154.902 1019.89 Z" fill="#000000" fill-rule="evenodd" fill-opacity="1" /><path clip-path="url(#clip980)" d="M194.253 992.344 Q190.642 992.344 188.813 995.909 Q187.008 999.45 187.008 1006.58 Q187.008 1013.69 188.813 1017.25 Q190.642 1020.79 194.253 1020.79 Q197.887 1020.79 199.693 1017.25 Q201.522 1013.69 201.522 1006.58 Q201.522 999.45 199.693 995.909 Q197.887 992.344 194.253 992.344 M194.253 988.64 Q200.063 988.64 203.119 993.247 Q206.198 997.83 206.198 1006.58 Q206.198 1015.31 203.119 1019.91 Q200.063 1024.5 194.253 1024.5 Q188.443 1024.5 185.364 1019.91 Q182.309 1015.31 182.309 1006.58 Q182.309 997.83 185.364 993.247 Q188.443 988.64 194.253 988.64 Z" fill="#000000" fill-rule="evenodd" fill-opacity="1" /><path clip-path="url(#clip980)" d="M206.743 993.218 L212.95 993.218 L212.95 971.796 L206.198 973.15 L206.198 969.689 L212.912 968.335 L216.711 968.335 L216.711 993.218 L222.918 993.218 L222.918 996.415 L206.743 996.415 L206.743 993.218 Z" fill="#000000" fill-rule="evenodd" fill-opacity="1" /><path clip-path="url(#clip980)" d="M153.792 682.974 L161.431 682.974 L161.431 656.608 L153.121 658.275 L153.121 654.015 L161.384 652.349 L166.06 652.349 L166.06 682.974 L173.699 682.974 L173.699 686.909 L153.792 686.909 L153.792 682.974 Z" fill="#000000" fill-rule="evenodd" fill-opacity="1" /><path clip-path="url(#clip980)" d="M193.143 655.427 Q189.532 655.427 187.704 658.992 Q185.898 662.534 185.898 669.664 Q185.898 676.77 187.704 680.335 Q189.532 683.876 193.143 683.876 Q196.778 683.876 198.583 680.335 Q200.412 676.77 200.412 669.664 Q200.412 662.534 198.583 658.992 Q196.778 655.427 193.143 655.427 M193.143 651.724 Q198.954 651.724 202.009 656.33 Q205.088 660.914 205.088 669.664 Q205.088 678.39 202.009 682.997 Q198.954 687.58 193.143 687.58 Q187.333 687.58 184.255 682.997 Q181.199 678.39 181.199 669.664 Q181.199 660.914 184.255 656.33 Q187.333 651.724 193.143 651.724 Z" fill="#000000" fill-rule="evenodd" fill-opacity="1" /><path clip-path="url(#clip980)" d="M209.658 656.301 L222.918 656.301 L222.918 659.498 L205.088 659.498 L205.088 656.301 Q207.251 654.063 210.975 650.301 Q214.717 646.521 215.677 645.43 Q217.501 643.38 218.216 641.97 Q218.949 640.54 218.949 639.167 Q218.949 636.929 217.369 635.518 Q215.808 634.108 213.288 634.108 Q211.501 634.108 209.508 634.729 Q207.533 635.349 205.276 636.609 L205.276 632.773 Q207.57 631.851 209.564 631.381 Q211.558 630.911 213.213 630.911 Q217.576 630.911 220.172 633.092 Q222.767 635.274 222.767 638.923 Q222.767 640.653 222.109 642.214 Q221.469 643.756 219.758 645.863 Q219.288 646.408 216.767 649.022 Q214.247 651.618 209.658 656.301 Z" fill="#000000" fill-rule="evenodd" fill-opacity="1" /><path clip-path="url(#clip980)" d="M153.134 346.057 L160.772 346.057 L160.772 319.692 L152.462 321.358 L152.462 317.099 L160.726 315.432 L165.402 315.432 L165.402 346.057 L173.041 346.057 L173.041 349.992 L153.134 349.992 L153.134 346.057 Z" fill="#000000" fill-rule="evenodd" fill-opacity="1" /><path clip-path="url(#clip980)" d="M192.485 318.511 Q188.874 318.511 187.045 322.076 Q185.24 325.617 185.24 332.747 Q185.24 339.853 187.045 343.418 Q188.874 346.96 192.485 346.96 Q196.119 346.96 197.925 343.418 Q199.754 339.853 199.754 332.747 Q199.754 325.617 197.925 322.076 Q196.119 318.511 192.485 318.511 M192.485 314.807 Q198.295 314.807 201.351 319.414 Q204.43 323.997 204.43 332.747 Q204.43 341.474 201.351 346.08 Q198.295 350.664 192.485 350.664 Q186.675 350.664 183.596 346.08 Q180.541 341.474 180.541 332.747 Q180.541 323.997 183.596 319.414 Q186.675 314.807 192.485 314.807 Z" fill="#000000" fill-rule="evenodd" fill-opacity="1" /><path clip-path="url(#clip980)" d="M217.125 307.442 Q219.852 308.025 221.375 309.868 Q222.918 311.711 222.918 314.419 Q222.918 318.576 220.059 320.852 Q217.2 323.127 211.934 323.127 Q210.166 323.127 208.285 322.77 Q206.423 322.431 204.43 321.736 L204.43 318.068 Q206.009 318.99 207.89 319.46 Q209.771 319.93 211.821 319.93 Q215.395 319.93 217.256 318.519 Q219.137 317.109 219.137 314.419 Q219.137 311.937 217.388 310.545 Q215.658 309.134 212.555 309.134 L209.282 309.134 L209.282 306.012 L212.705 306.012 Q215.507 306.012 216.993 304.903 Q218.479 303.774 218.479 301.668 Q218.479 299.505 216.937 298.357 Q215.413 297.191 212.555 297.191 Q210.994 297.191 209.207 297.53 Q207.42 297.868 205.276 298.583 L205.276 295.198 Q207.439 294.596 209.32 294.295 Q211.219 293.994 212.893 293.994 Q217.219 293.994 219.739 295.969 Q222.259 297.925 222.259 301.273 Q222.259 303.605 220.924 305.222 Q219.589 306.821 217.125 307.442 Z" fill="#000000" fill-rule="evenodd" fill-opacity="1" /><path clip-path="url(#clip980)" d="M42.6863 932.972 L42.6863 902.926 L48.0971 902.926 L48.0971 926.542 L62.1653 926.542 L62.1653 903.912 L67.5762 903.912 L67.5762 926.542 L84.7954 926.542 L84.7954 902.353 L90.2063 902.353 L90.2063 932.972 L42.6863 932.972 Z" fill="#000000" fill-rule="evenodd" fill-opacity="1" /><path clip-path="url(#clip980)" d="M44.2459 863.299 L50.5161 863.299 Q48.7655 866.959 47.9062 870.206 Q47.0468 873.452 47.0468 876.476 Q47.0468 881.728 49.0838 884.592 Q51.1208 887.425 54.8766 887.425 Q58.0276 887.425 59.6509 885.547 Q61.2423 883.637 62.229 878.354 L63.0247 874.471 Q64.3933 867.278 67.8627 863.872 Q71.3001 860.434 77.0929 860.434 Q83.9997 860.434 87.5645 865.081 Q91.1293 869.697 91.1293 878.64 Q91.1293 882.014 90.3654 885.834 Q89.6015 889.621 88.1056 893.695 L81.4853 893.695 Q83.6814 889.78 84.7954 886.025 Q85.9094 882.269 85.9094 878.64 Q85.9094 873.134 83.7451 870.142 Q81.5808 867.15 77.5704 867.15 Q74.0692 867.15 72.0958 869.315 Q70.1225 871.447 69.1358 876.349 L68.3719 880.264 Q66.9396 887.457 63.8841 890.672 Q60.8285 893.886 55.3859 893.886 Q49.0838 893.886 45.4554 889.462 Q41.8269 885.006 41.8269 877.208 Q41.8269 873.866 42.4317 870.397 Q43.0364 866.927 44.2459 863.299 Z" fill="#000000" fill-rule="evenodd" fill-opacity="1" /><path clip-path="url(#clip980)" d="M44.2459 821.922 L50.5161 821.922 Q48.7655 825.582 47.9062 828.829 Q47.0468 832.075 47.0468 835.099 Q47.0468 840.351 49.0838 843.215 Q51.1208 846.048 54.8766 846.048 Q58.0276 846.048 59.6509 844.17 Q61.2423 842.26 62.229 836.977 L63.0247 833.094 Q64.3933 825.9 67.8627 822.495 Q71.3001 819.057 77.0929 819.057 Q83.9997 819.057 87.5645 823.704 Q91.1293 828.319 91.1293 837.263 Q91.1293 840.637 90.3654 844.457 Q89.6015 848.244 88.1056 852.318 L81.4853 852.318 Q83.6814 848.403 84.7954 844.647 Q85.9094 840.892 85.9094 837.263 Q85.9094 831.757 83.7451 828.765 Q81.5808 825.773 77.5704 825.773 Q74.0692 825.773 72.0958 827.937 Q70.1225 830.07 69.1358 834.972 L68.3719 838.887 Q66.9396 846.08 63.8841 849.294 Q60.8285 852.509 55.3859 852.509 Q49.0838 852.509 45.4554 848.085 Q41.8269 843.629 41.8269 835.831 Q41.8269 832.489 42.4317 829.02 Q43.0364 825.55 44.2459 821.922 Z" fill="#000000" fill-rule="evenodd" fill-opacity="1" /><path clip-path="url(#clip980)" d="M82.1218 807.79 L82.1218 801.074 L90.2063 801.074 L90.2063 807.79 L82.1218 807.79 M56.4999 807.79 L56.4999 801.074 L64.5843 801.074 L64.5843 807.79 L56.4999 807.79 Z" fill="#000000" fill-rule="evenodd" fill-opacity="1" /><path clip-path="url(#clip980)" d="M42.6863 766.349 L42.6863 736.303 L48.0971 736.303 L48.0971 759.92 L62.1653 759.92 L62.1653 737.29 L67.5762 737.29 L67.5762 759.92 L84.7954 759.92 L84.7954 735.73 L90.2063 735.73 L90.2063 766.349 L42.6863 766.349 Z" fill="#000000" fill-rule="evenodd" fill-opacity="1" /><path clip-path="url(#clip980)" d="M68.6902 695.785 L90.2063 695.785 L90.2063 701.642 L68.8812 701.642 Q63.8204 701.642 61.306 703.615 Q58.7915 705.589 58.7915 709.535 Q58.7915 714.278 61.8152 717.015 Q64.8389 719.752 70.0588 719.752 L90.2063 719.752 L90.2063 725.641 L54.5583 725.641 L54.5583 719.752 L60.0965 719.752 Q56.8818 717.652 55.2904 714.819 Q53.699 711.954 53.699 708.23 Q53.699 702.087 57.5184 698.936 Q61.306 695.785 68.6902 695.785 Z" fill="#000000" fill-rule="evenodd" fill-opacity="1" /><path clip-path="url(#clip980)" d="M71.9685 660.647 Q65.6028 660.647 62.1017 663.288 Q58.6006 665.898 58.6006 670.641 Q58.6006 675.352 62.1017 677.993 Q65.6028 680.603 71.9685 680.603 Q78.3024 680.603 81.8036 677.993 Q85.3047 675.352 85.3047 670.641 Q85.3047 665.898 81.8036 663.288 Q78.3024 660.647 71.9685 660.647 M85.7821 654.79 Q94.8851 654.79 99.3092 658.833 Q103.765 662.875 103.765 671.214 Q103.765 674.301 103.288 677.038 Q102.842 679.776 101.887 682.354 L96.19 682.354 Q97.5905 679.776 98.2589 677.261 Q98.9273 674.747 98.9273 672.137 Q98.9273 666.376 95.9036 663.511 Q92.9117 660.647 86.8325 660.647 L83.9361 660.647 Q87.0871 662.461 88.6467 665.294 Q90.2063 668.126 90.2063 672.073 Q90.2063 678.63 85.2092 682.64 Q80.2121 686.651 71.9685 686.651 Q63.6931 686.651 58.696 682.64 Q53.699 678.63 53.699 672.073 Q53.699 668.126 55.2586 665.294 Q56.8182 662.461 59.9692 660.647 L54.5583 660.647 L54.5583 654.79 L85.7821 654.79 Z" fill="#000000" fill-rule="evenodd" fill-opacity="1" /><path clip-path="url(#clip980)" d="M40.6811 642.727 L40.6811 636.871 L90.2063 636.871 L90.2063 642.727 L40.6811 642.727 Z" fill="#000000" fill-rule="evenodd" fill-opacity="1" /><path clip-path="url(#clip980)" d="M72.2868 608.416 Q72.2868 615.514 73.9101 618.251 Q75.5333 620.988 79.4482 620.988 Q82.5674 620.988 84.4135 618.951 Q86.2277 616.882 86.2277 613.35 Q86.2277 608.48 82.7902 605.552 Q79.3209 602.591 73.5918 602.591 L72.2868 602.591 L72.2868 608.416 M69.8679 596.735 L90.2063 596.735 L90.2063 602.591 L84.7954 602.591 Q88.0419 604.597 89.6015 607.589 Q91.1293 610.58 91.1293 614.909 Q91.1293 620.384 88.0738 623.63 Q84.9864 626.845 79.8302 626.845 Q73.8146 626.845 70.759 622.834 Q67.7035 618.792 67.7035 610.803 L67.7035 602.591 L67.1306 602.591 Q63.0884 602.591 60.8922 605.265 Q58.6642 607.907 58.6642 612.713 Q58.6642 615.768 59.3963 618.665 Q60.1283 621.561 61.5924 624.235 L56.1816 624.235 Q54.9403 621.02 54.3355 617.996 Q53.699 614.973 53.699 612.108 Q53.699 604.374 57.7094 600.554 Q61.7197 596.735 69.8679 596.735 Z" fill="#000000" fill-rule="evenodd" fill-opacity="1" /><path clip-path="url(#clip980)" d="M68.6902 555.04 L90.2063 555.04 L90.2063 560.896 L68.8812 560.896 Q63.8204 560.896 61.306 562.869 Q58.7915 564.843 58.7915 568.79 Q58.7915 573.532 61.8152 576.269 Q64.8389 579.007 70.0588 579.007 L90.2063 579.007 L90.2063 584.895 L54.5583 584.895 L54.5583 579.007 L60.0965 579.007 Q56.8818 576.906 55.2904 574.073 Q53.699 571.209 53.699 567.485 Q53.699 561.342 57.5184 558.191 Q61.306 555.04 68.6902 555.04 Z" fill="#000000" fill-rule="evenodd" fill-opacity="1" /><path clip-path="url(#clip980)" d="M59.9692 519.901 L40.6811 519.901 L40.6811 514.045 L90.2063 514.045 L90.2063 519.901 L84.8591 519.901 Q88.0419 521.747 89.6015 524.58 Q91.1293 527.381 91.1293 531.327 Q91.1293 537.789 85.9731 541.863 Q80.8169 545.905 72.4141 545.905 Q64.0114 545.905 58.8552 541.863 Q53.699 537.789 53.699 531.327 Q53.699 527.381 55.2586 524.58 Q56.7863 521.747 59.9692 519.901 M72.4141 539.857 Q78.8753 539.857 82.5674 537.216 Q86.2277 534.542 86.2277 529.895 Q86.2277 525.248 82.5674 522.575 Q78.8753 519.901 72.4141 519.901 Q65.9529 519.901 62.2927 522.575 Q58.6006 525.248 58.6006 529.895 Q58.6006 534.542 62.2927 537.216 Q65.9529 539.857 72.4141 539.857 Z" fill="#000000" fill-rule="evenodd" fill-opacity="1" /><path clip-path="url(#clip980)" d="M82.1218 500.486 L82.1218 493.77 L87.5963 493.77 L97.7815 498.99 L97.7815 503.095 L87.5963 500.486 L82.1218 500.486 Z" fill="#000000" fill-rule="evenodd" fill-opacity="1" /><path clip-path="url(#clip980)" d="M44.4369 454.748 L54.5583 454.748 L54.5583 442.685 L59.1098 442.685 L59.1098 454.748 L78.4616 454.748 Q82.8221 454.748 84.0634 453.57 Q85.3047 452.361 85.3047 448.701 L85.3047 442.685 L90.2063 442.685 L90.2063 448.701 Q90.2063 455.48 87.6918 458.058 Q85.1455 460.636 78.4616 460.636 L59.1098 460.636 L59.1098 464.933 L54.5583 464.933 L54.5583 460.636 L44.4369 460.636 L44.4369 454.748 Z" fill="#000000" fill-rule="evenodd" fill-opacity="1" /><path clip-path="url(#clip980)" d="M54.5583 434.982 L54.5583 429.126 L90.2063 429.126 L90.2063 434.982 L54.5583 434.982 M40.6811 434.982 L40.6811 429.126 L48.0971 429.126 L48.0971 434.982 L40.6811 434.982 Z" fill="#000000" fill-rule="evenodd" fill-opacity="1" /><path clip-path="url(#clip980)" d="M61.4015 389.118 Q57.4547 386.921 55.5768 383.866 Q53.699 380.81 53.699 376.673 Q53.699 371.103 57.6139 368.079 Q61.4969 365.055 68.6902 365.055 L90.2063 365.055 L90.2063 370.943 L68.8812 370.943 Q63.7568 370.943 61.2741 372.758 Q58.7915 374.572 58.7915 378.296 Q58.7915 382.847 61.8152 385.489 Q64.8389 388.131 70.0588 388.131 L90.2063 388.131 L90.2063 394.019 L68.8812 394.019 Q63.7249 394.019 61.2741 395.833 Q58.7915 397.648 58.7915 401.435 Q58.7915 405.923 61.8471 408.565 Q64.8708 411.207 70.0588 411.207 L90.2063 411.207 L90.2063 417.095 L54.5583 417.095 L54.5583 411.207 L60.0965 411.207 Q56.8182 409.201 55.2586 406.4 Q53.699 403.599 53.699 399.748 Q53.699 395.865 55.6723 393.16 Q57.6457 390.422 61.4015 389.118 Z" fill="#000000" fill-rule="evenodd" fill-opacity="1" /><path clip-path="url(#clip980)" d="M70.9182 322.882 L73.7828 322.882 L73.7828 349.809 Q79.8302 349.427 83.013 346.181 Q86.1641 342.902 86.1641 337.078 Q86.1641 333.704 85.3365 330.553 Q84.509 327.37 82.8539 324.251 L88.3921 324.251 Q89.7289 327.402 90.4291 330.712 Q91.1293 334.022 91.1293 337.428 Q91.1293 345.958 86.1641 350.955 Q81.1988 355.92 72.7324 355.92 Q63.9796 355.92 58.8552 351.21 Q53.699 346.467 53.699 338.446 Q53.699 331.253 58.3459 327.084 Q62.9611 322.882 70.9182 322.882 M69.1995 328.739 Q64.3933 328.802 61.5288 331.444 Q58.6642 334.054 58.6642 338.383 Q58.6642 343.284 61.4333 346.244 Q64.2024 349.173 69.2313 349.618 L69.1995 328.739 Z" fill="#000000" fill-rule="evenodd" fill-opacity="1" /><path clip-path="url(#clip980)" d="M82.1218 311.774 L82.1218 305.058 L90.2063 305.058 L90.2063 311.774 L82.1218 311.774 M56.4999 311.774 L56.4999 305.058 L64.5843 305.058 L64.5843 311.774 L56.4999 311.774 Z" fill="#000000" fill-rule="evenodd" fill-opacity="1" /><path clip-path="url(#clip980)" d="M84.7954 289.367 L84.7954 278.863 L48.5427 278.863 L50.8344 290.29 L44.9779 290.29 L42.6863 278.927 L42.6863 272.498 L84.7954 272.498 L84.7954 261.994 L90.2063 261.994 L90.2063 289.367 L84.7954 289.367 Z" fill="#000000" fill-rule="evenodd" fill-opacity="1" /><path clip-path="url(#clip980)" d="M46.9195 235.258 Q46.9195 240.224 51.8211 242.738 Q56.6908 245.221 66.494 245.221 Q76.2654 245.221 81.167 242.738 Q86.0367 240.224 86.0367 235.258 Q86.0367 230.261 81.167 227.779 Q76.2654 225.264 66.494 225.264 Q56.6908 225.264 51.8211 227.779 Q46.9195 230.261 46.9195 235.258 M41.8269 235.258 Q41.8269 227.269 48.1608 223.068 Q54.4628 218.835 66.494 218.835 Q78.4934 218.835 84.8273 223.068 Q91.1293 227.269 91.1293 235.258 Q91.1293 243.247 84.8273 247.481 Q78.4934 251.682 66.494 251.682 Q54.4628 251.682 48.1608 247.481 Q41.8269 243.247 41.8269 235.258 Z" fill="#000000" fill-rule="evenodd" fill-opacity="1" /><path clip-path="url(#clip980)" d="M46.9195 193.786 Q46.9195 198.751 51.8211 201.266 Q56.6908 203.748 66.494 203.748 Q76.2654 203.748 81.167 201.266 Q86.0367 198.751 86.0367 193.786 Q86.0367 188.789 81.167 186.306 Q76.2654 183.792 66.494 183.792 Q56.6908 183.792 51.8211 186.306 Q46.9195 188.789 46.9195 193.786 M41.8269 193.786 Q41.8269 185.797 48.1608 181.595 Q54.4628 177.362 66.494 177.362 Q78.4934 177.362 84.8273 181.595 Q91.1293 185.797 91.1293 193.786 Q91.1293 201.775 84.8273 206.008 Q78.4934 210.209 66.494 210.209 Q54.4628 210.209 48.1608 206.008 Q41.8269 201.775 41.8269 193.786 Z" fill="#000000" fill-rule="evenodd" fill-opacity="1" /><polyline clip-path="url(#clip982)" style="stroke:#009af9; stroke-linecap:round; stroke-linejoin:round; stroke-width:4; stroke-opacity:1; fill:none" points="
  350.696,450.582 360.06,146.212 369.424,233.912 378.787,161.183 388.151,170.543 397.515,151.775 406.878,197.976 416.242,207.08 425.606,231.223 434.97,249.827 
  444.333,189.567 453.697,180.727 463.061,142.433 472.424,154.071 481.788,225.369 491.152,172.281 500.515,226.115 509.879,176.713 519.243,208.72 528.606,164.284 
  537.97,142.988 547.334,198.667 556.698,213.051 566.061,162.251 575.425,217.807 584.789,189.205 594.152,191.146 603.516,235.625 612.88,163.636 622.243,168.877 
  631.607,182.625 640.971,193.904 650.334,191.803 659.698,137.47 669.062,193.197 678.426,203.045 687.789,152.074 697.153,137.038 706.517,192.932 715.88,202.942 
  725.244,206.581 734.608,200.906 743.971,160.372 753.335,170.374 762.699,151.635 772.062,228.314 781.426,175.809 790.79,248.026 800.154,251.448 809.517,194.688 
  818.881,219.316 828.245,232.086 837.608,144.115 846.972,188.944 856.336,186.108 865.699,196.261 875.063,195.072 884.427,163.369 893.79,250.795 903.154,188.481 
  912.518,143.139 921.882,190.342 931.245,275.758 940.609,197.224 949.973,238.686 959.336,213.331 968.7,170.409 978.064,165.811 987.427,156.924 996.791,198.087 
  1006.15,193.988 1015.52,137.135 1024.88,155.686 1034.25,167.39 1043.61,182.706 1052.97,165.477 1062.34,147.064 1071.7,177.402 1081.06,202.267 1090.43,195.147 
  1099.79,200.632 1109.16,230.985 1118.52,186.527 1127.88,209.793 1137.25,203.354 1146.61,168.946 1155.97,208.003 1165.34,183.213 1174.7,166.019 1184.06,261.55 
  1193.43,154.104 1202.79,174.925 1212.16,197.104 1221.52,215.355 1230.88,215.211 1240.25,207.694 1249.61,197.834 1258.97,182.638 1268.34,175.143 1277.7,199.84 
  1287.07,178.433 1296.43,167.707 1305.79,191.643 1315.16,154.6 1324.52,214.19 1333.88,183.027 1343.25,132.494 1352.61,152.278 1361.98,155.824 1371.34,184.01 
  1380.7,200.509 1390.07,163.962 1399.43,185.928 1408.79,132.048 1418.16,211.505 1427.52,216.148 1436.88,190.79 1446.25,223.957 1455.61,229.187 1464.98,209.449 
  1474.34,193.603 1483.7,144.909 1493.07,199.861 1502.43,210.326 1511.79,200.524 1521.16,192.359 1530.52,170.132 1539.89,225.375 1549.25,159.108 1558.61,199.592 
  1567.98,139.544 1577.34,179.111 1586.7,187.418 1596.07,234.752 1605.43,170.695 1614.79,159.096 1624.16,223.738 1633.52,183.952 1642.89,211.754 1652.25,186.325 
  1661.61,115.419 1670.98,152.941 1680.34,169.553 1689.7,139.576 1699.07,220.199 1708.43,118.376 1717.8,136.051 1727.16,190.356 1736.52,199.306 1745.89,231.447 
  1755.25,237.692 1764.61,206.121 1773.98,177.453 1783.34,224.329 1792.71,193.966 1802.07,128.848 1811.43,180.677 1820.8,166.237 1830.16,158.507 1839.52,164.513 
  1848.89,199.543 1858.25,145.587 1867.61,169.946 1876.98,143.408 1886.34,179.34 1895.71,157.632 1905.07,178.475 1914.43,181.561 1923.8,146.301 1933.16,193.024 
  1942.52,183.874 1951.89,174.569 1961.25,157.883 1970.62,184.92 1979.98,185.462 1989.34,146.754 1998.71,162.166 2008.07,145.37 2017.43,152.738 2026.8,213.876 
  2036.16,226.901 2045.52,157.551 2054.89,191.393 2064.25,176.065 2073.62,134.849 2082.98,181.959 2092.34,156.551 2101.71,139.315 2111.07,188.985 2120.43,179.041 
  2129.8,137.802 2139.16,168.781 2148.53,163.199 2157.89,154.347 2167.25,152.061 2176.62,145.149 2185.98,140.724 2195.34,151.109 2204.71,159.209 2214.07,176.446 
  2223.43,176.805 2232.8,164.005 2242.16,178.399 2251.53,182.29 2260.89,175.709 2270.25,146.287 2279.62,170.491 2288.98,155.709 2298.34,171.04 2307.71,137.841 
  2317.07,158.199 2326.44,145.606 2335.8,158.727 2345.16,160.684 2354.53,207.657 2363.89,166.514 2373.25,198.844 2382.62,182.98 2391.98,213.49 2401.35,174.778 
  2410.71,163.907 2420.07,151.881 2429.44,199.837 2438.8,130.482 2448.16,191.072 2457.53,206.074 2466.89,212.337 2476.25,167.053 2485.62,203.554 2494.98,170.575 
  2504.35,151.377 2513.71,194.398 2523.07,189.361 2532.44,211.271 2541.8,169.182 2551.16,193.965 2560.53,219.178 2569.89,186.302 2579.26,179.291 2588.62,174.181 
  2597.98,189.416 2607.35,168.28 2616.71,149.956 2626.07,186.492 2635.44,160.6 2644.8,167.882 2654.16,159.266 2663.53,145.749 2672.89,215.107 2682.26,205.984 
  2691.62,226.578 2700.98,191.143 2710.35,127.924 2719.71,182.386 2729.07,184.165 2738.44,200.484 2747.8,153.961 2757.17,164.563 2766.53,185.223 2775.89,120.261 
  2785.26,206.183 2794.62,158.083 2803.98,201.497 2813.35,180.785 2822.71,232.796 2832.07,119.874 2841.44,197.947 2850.8,167.606 2860.17,207.236 2869.53,209.425 
  2878.89,176.731 2888.26,193.51 2897.62,110.236 2906.98,165.116 2916.35,139.579 2925.71,180.188 2935.08,187.8 2944.44,171.895 2953.8,176.076 2963.17,160.031 
  2972.53,152.371 2981.89,158.982 2991.26,163.742 3000.62,163.138 3009.99,162.886 
  "/>
</svg>
