<?xml version="1.0" encoding="utf-8"?>
<svg xmlns="http://www.w3.org/2000/svg" xmlns:xlink="http://www.w3.org/1999/xlink" width="800" height="300" viewBox="0 0 3200 1200">
<defs>
  <clipPath id="clip050">
    <rect x="0" y="0" width="3200" height="1200"/>
  </clipPath>
</defs>
<path clip-path="url(#clip050)" d="M0 1200 L3200 1200 L3200 0 L0 0  Z" fill="#ffffff" fill-rule="evenodd" fill-opacity="1"/>
<defs>
  <clipPath id="clip051">
    <rect x="640" y="0" width="2241" height="1200"/>
  </clipPath>
</defs>
<path clip-path="url(#clip050)" d="M270.918 1000.1 L3089.76 1000.1 L3089.76 110.236 L270.918 110.236  Z" fill="#ffffff" fill-rule="evenodd" fill-opacity="1"/>
<defs>
  <clipPath id="clip052">
    <rect x="270" y="110" width="2820" height="891"/>
  </clipPath>
</defs>
<polyline clip-path="url(#clip052)" style="stroke:#000000; stroke-linecap:round; stroke-linejoin:round; stroke-width:2; stroke-opacity:0.1; fill:none" points="326.073,1000.1 326.073,110.236 "/>
<polyline clip-path="url(#clip052)" style="stroke:#000000; stroke-linecap:round; stroke-linejoin:round; stroke-width:2; stroke-opacity:0.1; fill:none" points="941.649,1000.1 941.649,110.236 "/>
<polyline clip-path="url(#clip052)" style="stroke:#000000; stroke-linecap:round; stroke-linejoin:round; stroke-width:2; stroke-opacity:0.1; fill:none" points="1557.23,1000.1 1557.23,110.236 "/>
<polyline clip-path="url(#clip052)" style="stroke:#000000; stroke-linecap:round; stroke-linejoin:round; stroke-width:2; stroke-opacity:0.1; fill:none" points="2172.8,1000.1 2172.8,110.236 "/>
<polyline clip-path="url(#clip052)" style="stroke:#000000; stroke-linecap:round; stroke-linejoin:round; stroke-width:2; stroke-opacity:0.1; fill:none" points="2788.38,1000.1 2788.38,110.236 "/>
<polyline clip-path="url(#clip050)" style="stroke:#000000; stroke-linecap:round; stroke-linejoin:round; stroke-width:4; stroke-opacity:1; fill:none" points="270.918,1000.1 3089.76,1000.1 "/>
<polyline clip-path="url(#clip050)" style="stroke:#000000; stroke-linecap:round; stroke-linejoin:round; stroke-width:4; stroke-opacity:1; fill:none" points="326.073,1000.1 326.073,981.2 "/>
<polyline clip-path="url(#clip050)" style="stroke:#000000; stroke-linecap:round; stroke-linejoin:round; stroke-width:4; stroke-opacity:1; fill:none" points="941.649,1000.1 941.649,981.2 "/>
<polyline clip-path="url(#clip050)" style="stroke:#000000; stroke-linecap:round; stroke-linejoin:round; stroke-width:4; stroke-opacity:1; fill:none" points="1557.23,1000.1 1557.23,981.2 "/>
<polyline clip-path="url(#clip050)" style="stroke:#000000; stroke-linecap:round; stroke-linejoin:round; stroke-width:4; stroke-opacity:1; fill:none" points="2172.8,1000.1 2172.8,981.2 "/>
<polyline clip-path="url(#clip050)" style="stroke:#000000; stroke-linecap:round; stroke-linejoin:round; stroke-width:4; stroke-opacity:1; fill:none" points="2788.38,1000.1 2788.38,981.2 "/>
<path clip-path="url(#clip050)" d="M326.073 1037.42 Q322.462 1037.42 320.633 1040.98 Q318.828 1044.52 318.828 1051.65 Q318.828 1058.76 320.633 1062.32 Q322.462 1065.87 326.073 1065.87 Q329.707 1065.87 331.513 1062.32 Q333.342 1058.76 333.342 1051.65 Q333.342 1044.52 331.513 1040.98 Q329.707 1037.42 326.073 1037.42 M326.073 1033.71 Q331.883 1033.71 334.939 1038.32 Q338.018 1042.9 338.018 1051.65 Q338.018 1060.38 334.939 1064.99 Q331.883 1069.57 326.073 1069.57 Q320.263 1069.57 317.184 1064.99 Q314.129 1060.38 314.129 1051.65 Q314.129 1042.9 317.184 1038.32 Q320.263 1033.71 326.073 1033.71 Z" fill="#000000" fill-rule="nonzero" fill-opacity="1" /><path clip-path="url(#clip050)" d="M920.92 1064.96 L937.24 1064.96 L937.24 1068.9 L915.295 1068.9 L915.295 1064.96 Q917.957 1062.21 922.541 1057.58 Q927.147 1052.93 928.328 1051.58 Q930.573 1049.06 931.453 1047.32 Q932.355 1045.56 932.355 1043.87 Q932.355 1041.12 930.411 1039.38 Q928.49 1037.65 925.388 1037.65 Q923.189 1037.65 920.735 1038.41 Q918.305 1039.18 915.527 1040.73 L915.527 1036 Q918.351 1034.87 920.805 1034.29 Q923.258 1033.71 925.295 1033.71 Q930.666 1033.71 933.86 1036.4 Q937.054 1039.08 937.054 1043.57 Q937.054 1045.7 936.244 1047.62 Q935.457 1049.52 933.351 1052.12 Q932.772 1052.79 929.67 1056 Q926.568 1059.2 920.92 1064.96 Z" fill="#000000" fill-rule="nonzero" fill-opacity="1" /><path clip-path="url(#clip050)" d="M947.101 1034.34 L965.457 1034.34 L965.457 1038.27 L951.383 1038.27 L951.383 1046.75 Q952.402 1046.4 953.42 1046.24 Q954.439 1046.05 955.457 1046.05 Q961.244 1046.05 964.624 1049.22 Q968.003 1052.39 968.003 1057.81 Q968.003 1063.39 964.531 1066.49 Q961.059 1069.57 954.74 1069.57 Q952.564 1069.57 950.295 1069.2 Q948.05 1068.83 945.642 1068.09 L945.642 1063.39 Q947.726 1064.52 949.948 1065.08 Q952.17 1065.63 954.647 1065.63 Q958.652 1065.63 960.99 1063.53 Q963.327 1061.42 963.327 1057.81 Q963.327 1054.2 960.99 1052.09 Q958.652 1049.99 954.647 1049.99 Q952.772 1049.99 950.897 1050.4 Q949.045 1050.82 947.101 1051.7 L947.101 1034.34 Z" fill="#000000" fill-rule="nonzero" fill-opacity="1" /><path clip-path="url(#clip050)" d="M1531.92 1034.34 L1550.28 1034.34 L1550.28 1038.27 L1536.21 1038.27 L1536.21 1046.75 Q1537.23 1046.4 1538.24 1046.24 Q1539.26 1046.05 1540.28 1046.05 Q1546.07 1046.05 1549.45 1049.22 Q1552.83 1052.39 1552.83 1057.81 Q1552.83 1063.39 1549.36 1066.49 Q1545.88 1069.57 1539.56 1069.57 Q1537.39 1069.57 1535.12 1069.2 Q1532.87 1068.83 1530.47 1068.09 L1530.47 1063.39 Q1532.55 1064.52 1534.77 1065.08 Q1536.99 1065.63 1539.47 1065.63 Q1543.48 1065.63 1545.81 1063.53 Q1548.15 1061.42 1548.15 1057.81 Q1548.15 1054.2 1545.81 1052.09 Q1543.48 1049.99 1539.47 1049.99 Q1537.6 1049.99 1535.72 1050.4 Q1533.87 1050.82 1531.92 1051.7 L1531.92 1034.34 Z" fill="#000000" fill-rule="nonzero" fill-opacity="1" /><path clip-path="url(#clip050)" d="M1572.04 1037.42 Q1568.43 1037.42 1566.6 1040.98 Q1564.79 1044.52 1564.79 1051.65 Q1564.79 1058.76 1566.6 1062.32 Q1568.43 1065.87 1572.04 1065.87 Q1575.67 1065.87 1577.48 1062.32 Q1579.31 1058.76 1579.31 1051.65 Q1579.31 1044.52 1577.48 1040.98 Q1575.67 1037.42 1572.04 1037.42 M1572.04 1033.71 Q1577.85 1033.71 1580.91 1038.32 Q1583.98 1042.9 1583.98 1051.65 Q1583.98 1060.38 1580.91 1064.99 Q1577.85 1069.57 1572.04 1069.57 Q1566.23 1069.57 1563.15 1064.99 Q1560.1 1060.38 1560.1 1051.65 Q1560.1 1042.9 1563.15 1038.32 Q1566.23 1033.71 1572.04 1033.71 Z" fill="#000000" fill-rule="nonzero" fill-opacity="1" /><path clip-path="url(#clip050)" d="M2146.66 1034.34 L2168.88 1034.34 L2168.88 1036.33 L2156.33 1068.9 L2151.45 1068.9 L2163.25 1038.27 L2146.66 1038.27 L2146.66 1034.34 Z" fill="#000000" fill-rule="nonzero" fill-opacity="1" /><path clip-path="url(#clip050)" d="M2178.04 1034.34 L2196.4 1034.34 L2196.4 1038.27 L2182.33 1038.27 L2182.33 1046.75 Q2183.35 1046.4 2184.36 1046.24 Q2185.38 1046.05 2186.4 1046.05 Q2192.19 1046.05 2195.57 1049.22 Q2198.95 1052.39 2198.95 1057.81 Q2198.95 1063.39 2195.48 1066.49 Q2192 1069.57 2185.68 1069.57 Q2183.51 1069.57 2181.24 1069.2 Q2178.99 1068.83 2176.59 1068.09 L2176.59 1063.39 Q2178.67 1064.52 2180.89 1065.08 Q2183.11 1065.63 2185.59 1065.63 Q2189.6 1065.63 2191.93 1063.53 Q2194.27 1061.42 2194.27 1057.81 Q2194.27 1054.2 2191.93 1052.09 Q2189.6 1049.99 2185.59 1049.99 Q2183.72 1049.99 2181.84 1050.4 Q2179.99 1050.82 2178.04 1051.7 L2178.04 1034.34 Z" fill="#000000" fill-rule="nonzero" fill-opacity="1" /><path clip-path="url(#clip050)" d="M2747.98 1064.96 L2755.62 1064.96 L2755.62 1038.6 L2747.31 1040.26 L2747.31 1036 L2755.58 1034.34 L2760.25 1034.34 L2760.25 1064.96 L2767.89 1064.96 L2767.89 1068.9 L2747.98 1068.9 L2747.98 1064.96 Z" fill="#000000" fill-rule="nonzero" fill-opacity="1" /><path clip-path="url(#clip050)" d="M2787.34 1037.42 Q2783.72 1037.42 2781.9 1040.98 Q2780.09 1044.52 2780.09 1051.65 Q2780.09 1058.76 2781.9 1062.32 Q2783.72 1065.87 2787.34 1065.87 Q2790.97 1065.87 2792.78 1062.32 Q2794.6 1058.76 2794.6 1051.65 Q2794.6 1044.52 2792.78 1040.98 Q2790.97 1037.42 2787.34 1037.42 M2787.34 1033.71 Q2793.15 1033.71 2796.2 1038.32 Q2799.28 1042.9 2799.28 1051.65 Q2799.28 1060.38 2796.2 1064.99 Q2793.15 1069.57 2787.34 1069.57 Q2781.53 1069.57 2778.45 1064.99 Q2775.39 1060.38 2775.39 1051.65 Q2775.39 1042.9 2778.45 1038.32 Q2781.53 1033.71 2787.34 1033.71 Z" fill="#000000" fill-rule="nonzero" fill-opacity="1" /><path clip-path="url(#clip050)" d="M2817.5 1037.42 Q2813.89 1037.42 2812.06 1040.98 Q2810.25 1044.52 2810.25 1051.65 Q2810.25 1058.76 2812.06 1062.32 Q2813.89 1065.87 2817.5 1065.87 Q2821.13 1065.87 2822.94 1062.32 Q2824.77 1058.76 2824.77 1051.65 Q2824.77 1044.52 2822.94 1040.98 Q2821.13 1037.42 2817.5 1037.42 M2817.5 1033.71 Q2823.31 1033.71 2826.36 1038.32 Q2829.44 1042.9 2829.44 1051.65 Q2829.44 1060.38 2826.36 1064.99 Q2823.31 1069.57 2817.5 1069.57 Q2811.69 1069.57 2808.61 1064.99 Q2805.55 1060.38 2805.55 1051.65 Q2805.55 1042.9 2808.61 1038.32 Q2811.69 1033.71 2817.5 1033.71 Z" fill="#000000" fill-rule="nonzero" fill-opacity="1" /><path clip-path="url(#clip050)" d="M1556.64 1109.44 L1563.07 1109.44 L1563.07 1151.55 L1586.21 1151.55 L1586.21 1156.96 L1556.64 1156.96 L1556.64 1109.44 Z" fill="#000000" fill-rule="nonzero" fill-opacity="1" /><path clip-path="url(#clip050)" d="M1592.7 1121.31 L1598.56 1121.31 L1598.56 1156.96 L1592.7 1156.96 L1592.7 1121.31 M1592.7 1107.44 L1598.56 1107.44 L1598.56 1114.85 L1592.7 1114.85 L1592.7 1107.44 Z" fill="#000000" fill-rule="nonzero" fill-opacity="1" /><path clip-path="url(#clip050)" d="M1640.44 1135.45 L1640.44 1156.96 L1634.59 1156.96 L1634.59 1135.64 Q1634.59 1130.58 1632.61 1128.06 Q1630.64 1125.55 1626.69 1125.55 Q1621.95 1125.55 1619.21 1128.57 Q1616.48 1131.59 1616.48 1136.81 L1616.48 1156.96 L1610.59 1156.96 L1610.59 1121.31 L1616.48 1121.31 L1616.48 1126.85 Q1618.58 1123.64 1621.41 1122.05 Q1624.27 1120.45 1628 1120.45 Q1634.14 1120.45 1637.29 1124.27 Q1640.44 1128.06 1640.44 1135.45 Z" fill="#000000" fill-rule="nonzero" fill-opacity="1" /><path clip-path="url(#clip050)" d="M1682.62 1137.67 L1682.62 1140.54 L1655.69 1140.54 Q1656.07 1146.59 1659.32 1149.77 Q1662.6 1152.92 1668.42 1152.92 Q1671.79 1152.92 1674.95 1152.09 Q1678.13 1151.26 1681.25 1149.61 L1681.25 1155.15 Q1678.1 1156.48 1674.79 1157.18 Q1671.48 1157.88 1668.07 1157.88 Q1659.54 1157.88 1654.54 1152.92 Q1649.58 1147.95 1649.58 1139.49 Q1649.58 1130.74 1654.29 1125.61 Q1659.03 1120.45 1667.05 1120.45 Q1674.25 1120.45 1678.42 1125.1 Q1682.62 1129.72 1682.62 1137.67 M1676.76 1135.95 Q1676.7 1131.15 1674.05 1128.28 Q1671.44 1125.42 1667.12 1125.42 Q1662.21 1125.42 1659.25 1128.19 Q1656.33 1130.96 1655.88 1135.99 L1676.76 1135.95 Z" fill="#000000" fill-rule="nonzero" fill-opacity="1" /><path clip-path="url(#clip050)" d="M1708.43 1139.04 Q1701.33 1139.04 1698.59 1140.67 Q1695.86 1142.29 1695.86 1146.2 Q1695.86 1149.32 1697.89 1151.17 Q1699.96 1152.98 1703.5 1152.98 Q1708.37 1152.98 1711.29 1149.55 Q1714.25 1146.08 1714.25 1140.35 L1714.25 1139.04 L1708.43 1139.04 M1720.11 1136.62 L1720.11 1156.96 L1714.25 1156.96 L1714.25 1151.55 Q1712.25 1154.8 1709.26 1156.36 Q1706.27 1157.88 1701.94 1157.88 Q1696.46 1157.88 1693.22 1154.83 Q1690 1151.74 1690 1146.59 Q1690 1140.57 1694.01 1137.51 Q1698.05 1134.46 1706.04 1134.46 L1714.25 1134.46 L1714.25 1133.89 Q1714.25 1129.84 1711.58 1127.65 Q1708.94 1125.42 1704.13 1125.42 Q1701.08 1125.42 1698.18 1126.15 Q1695.28 1126.88 1692.61 1128.35 L1692.61 1122.94 Q1695.83 1121.7 1698.85 1121.09 Q1701.87 1120.45 1704.74 1120.45 Q1712.47 1120.45 1716.29 1124.46 Q1720.11 1128.48 1720.11 1136.62 Z" fill="#000000" fill-rule="nonzero" fill-opacity="1" /><path clip-path="url(#clip050)" d="M1755.63 1138.72 Q1755.63 1132.36 1752.99 1128.86 Q1750.38 1125.36 1745.64 1125.36 Q1740.93 1125.36 1738.28 1128.86 Q1735.67 1132.36 1735.67 1138.72 Q1735.67 1145.06 1738.28 1148.56 Q1740.93 1152.06 1745.64 1152.06 Q1750.38 1152.06 1752.99 1148.56 Q1755.63 1145.06 1755.63 1138.72 M1761.49 1152.54 Q1761.49 1161.64 1757.45 1166.06 Q1753.4 1170.52 1745.06 1170.52 Q1741.98 1170.52 1739.24 1170.04 Q1736.5 1169.6 1733.92 1168.64 L1733.92 1162.95 Q1736.5 1164.35 1739.02 1165.01 Q1741.53 1165.68 1744.14 1165.68 Q1749.9 1165.68 1752.77 1162.66 Q1755.63 1159.67 1755.63 1153.59 L1755.63 1150.69 Q1753.82 1153.84 1750.98 1155.4 Q1748.15 1156.96 1744.2 1156.96 Q1737.65 1156.96 1733.64 1151.96 Q1729.63 1146.97 1729.63 1138.72 Q1729.63 1130.45 1733.64 1125.45 Q1737.65 1120.45 1744.2 1120.45 Q1748.15 1120.45 1750.98 1122.01 Q1753.82 1123.57 1755.63 1126.72 L1755.63 1121.31 L1761.49 1121.31 L1761.49 1152.54 Z" fill="#000000" fill-rule="nonzero" fill-opacity="1" /><path clip-path="url(#clip050)" d="M1804.04 1137.67 L1804.04 1140.54 L1777.12 1140.54 Q1777.5 1146.59 1780.74 1149.77 Q1784.02 1152.92 1789.85 1152.92 Q1793.22 1152.92 1796.37 1152.09 Q1799.55 1151.26 1802.67 1149.61 L1802.67 1155.15 Q1799.52 1156.48 1796.21 1157.18 Q1792.9 1157.88 1789.5 1157.88 Q1780.97 1157.88 1775.97 1152.92 Q1771 1147.95 1771 1139.49 Q1771 1130.74 1775.71 1125.61 Q1780.46 1120.45 1788.48 1120.45 Q1795.67 1120.45 1799.84 1125.1 Q1804.04 1129.72 1804.04 1137.67 M1798.19 1135.95 Q1798.12 1131.15 1795.48 1128.28 Q1792.87 1125.42 1788.54 1125.42 Q1783.64 1125.42 1780.68 1128.19 Q1777.75 1130.96 1777.31 1135.99 L1798.19 1135.95 Z" fill="#000000" fill-rule="nonzero" fill-opacity="1" /><polyline clip-path="url(#clip052)" style="stroke:#000000; stroke-linecap:round; stroke-linejoin:round; stroke-width:2; stroke-opacity:0.1; fill:none" points="270.918,1000.1 3089.76,1000.1 "/>
<polyline clip-path="url(#clip052)" style="stroke:#000000; stroke-linecap:round; stroke-linejoin:round; stroke-width:2; stroke-opacity:0.1; fill:none" points="270.918,653.148 3089.76,653.148 "/>
<polyline clip-path="url(#clip052)" style="stroke:#000000; stroke-linecap:round; stroke-linejoin:round; stroke-width:2; stroke-opacity:0.1; fill:none" points="270.918,306.197 3089.76,306.197 "/>
<polyline clip-path="url(#clip050)" style="stroke:#000000; stroke-linecap:round; stroke-linejoin:round; stroke-width:4; stroke-opacity:1; fill:none" points="270.918,1000.1 270.918,110.236 "/>
<polyline clip-path="url(#clip050)" style="stroke:#000000; stroke-linecap:round; stroke-linejoin:round; stroke-width:4; stroke-opacity:1; fill:none" points="270.918,1000.1 289.815,1000.1 "/>
<polyline clip-path="url(#clip050)" style="stroke:#000000; stroke-linecap:round; stroke-linejoin:round; stroke-width:4; stroke-opacity:1; fill:none" points="270.918,653.148 289.815,653.148 "/>
<polyline clip-path="url(#clip050)" style="stroke:#000000; stroke-linecap:round; stroke-linejoin:round; stroke-width:4; stroke-opacity:1; fill:none" points="270.918,306.197 289.815,306.197 "/>
<path clip-path="url(#clip050)" d="M154.902 1019.89 L162.54 1019.89 L162.54 993.525 L154.23 995.191 L154.23 990.932 L162.494 989.265 L167.17 989.265 L167.17 1019.89 L174.809 1019.89 L174.809 1023.83 L154.902 1023.83 L154.902 1019.89 Z" fill="#000000" fill-rule="nonzero" fill-opacity="1" /><path clip-path="url(#clip050)" d="M194.253 992.344 Q190.642 992.344 188.813 995.909 Q187.008 999.45 187.008 1006.58 Q187.008 1013.69 188.813 1017.25 Q190.642 1020.79 194.253 1020.79 Q197.887 1020.79 199.693 1017.25 Q201.522 1013.69 201.522 1006.58 Q201.522 999.45 199.693 995.909 Q197.887 992.344 194.253 992.344 M194.253 988.64 Q200.063 988.64 203.119 993.247 Q206.198 997.83 206.198 1006.58 Q206.198 1015.31 203.119 1019.91 Q200.063 1024.5 194.253 1024.5 Q188.443 1024.5 185.364 1019.91 Q182.309 1015.31 182.309 1006.58 Q182.309 997.83 185.364 993.247 Q188.443 988.64 194.253 988.64 Z" fill="#000000" fill-rule="nonzero" fill-opacity="1" /><path clip-path="url(#clip050)" d="M206.743 993.218 L212.95 993.218 L212.95 971.796 L206.198 973.15 L206.198 969.689 L212.912 968.335 L216.711 968.335 L216.711 993.218 L222.918 993.218 L222.918 996.415 L206.743 996.415 L206.743 993.218 Z" fill="#000000" fill-rule="nonzero" fill-opacity="1" /><path clip-path="url(#clip050)" d="M153.792 672.94 L161.431 672.94 L161.431 646.574 L153.121 648.241 L153.121 643.982 L161.384 642.315 L166.06 642.315 L166.06 672.94 L173.699 672.94 L173.699 676.875 L153.792 676.875 L153.792 672.94 Z" fill="#000000" fill-rule="nonzero" fill-opacity="1" /><path clip-path="url(#clip050)" d="M193.143 645.394 Q189.532 645.394 187.704 648.959 Q185.898 652.5 185.898 659.63 Q185.898 666.736 187.704 670.301 Q189.532 673.843 193.143 673.843 Q196.778 673.843 198.583 670.301 Q200.412 666.736 200.412 659.63 Q200.412 652.5 198.583 648.959 Q196.778 645.394 193.143 645.394 M193.143 641.69 Q198.954 641.69 202.009 646.297 Q205.088 650.88 205.088 659.63 Q205.088 668.357 202.009 672.963 Q198.954 677.546 193.143 677.546 Q187.333 677.546 184.255 672.963 Q181.199 668.357 181.199 659.63 Q181.199 650.88 184.255 646.297 Q187.333 641.69 193.143 641.69 Z" fill="#000000" fill-rule="nonzero" fill-opacity="1" /><path clip-path="url(#clip050)" d="M209.658 646.267 L222.918 646.267 L222.918 649.465 L205.088 649.465 L205.088 646.267 Q207.251 644.029 210.975 640.268 Q214.717 636.487 215.677 635.397 Q217.501 633.346 218.216 631.936 Q218.949 630.507 218.949 629.134 Q218.949 626.895 217.369 625.485 Q215.808 624.074 213.288 624.074 Q211.501 624.074 209.508 624.695 Q207.533 625.316 205.276 626.576 L205.276 622.739 Q207.57 621.817 209.564 621.347 Q211.558 620.877 213.213 620.877 Q217.576 620.877 220.172 623.059 Q222.767 625.24 222.767 628.889 Q222.767 630.619 222.109 632.18 Q221.469 633.723 219.758 635.829 Q219.288 636.375 216.767 638.989 Q214.247 641.584 209.658 646.267 Z" fill="#000000" fill-rule="nonzero" fill-opacity="1" /><path clip-path="url(#clip050)" d="M153.134 325.99 L160.772 325.99 L160.772 299.624 L152.462 301.291 L152.462 297.032 L160.726 295.365 L165.402 295.365 L165.402 325.99 L173.041 325.99 L173.041 329.925 L153.134 329.925 L153.134 325.99 Z" fill="#000000" fill-rule="nonzero" fill-opacity="1" /><path clip-path="url(#clip050)" d="M192.485 298.444 Q188.874 298.444 187.045 302.008 Q185.24 305.55 185.24 312.68 Q185.24 319.786 187.045 323.351 Q188.874 326.893 192.485 326.893 Q196.119 326.893 197.925 323.351 Q199.754 319.786 199.754 312.68 Q199.754 305.55 197.925 302.008 Q196.119 298.444 192.485 298.444 M192.485 294.74 Q198.295 294.74 201.351 299.346 Q204.43 303.93 204.43 312.68 Q204.43 321.407 201.351 326.013 Q198.295 330.596 192.485 330.596 Q186.675 330.596 183.596 326.013 Q180.541 321.407 180.541 312.68 Q180.541 303.93 183.596 299.346 Q186.675 294.74 192.485 294.74 Z" fill="#000000" fill-rule="nonzero" fill-opacity="1" /><path clip-path="url(#clip050)" d="M217.125 287.374 Q219.852 287.957 221.375 289.801 Q222.918 291.644 222.918 294.352 Q222.918 298.509 220.059 300.784 Q217.2 303.06 211.934 303.06 Q210.166 303.06 208.285 302.703 Q206.423 302.364 204.43 301.668 L204.43 298.001 Q206.009 298.922 207.89 299.392 Q209.771 299.863 211.821 299.863 Q215.395 299.863 217.256 298.452 Q219.137 297.042 219.137 294.352 Q219.137 291.869 217.388 290.478 Q215.658 289.067 212.555 289.067 L209.282 289.067 L209.282 285.945 L212.705 285.945 Q215.507 285.945 216.993 284.835 Q218.479 283.707 218.479 281.6 Q218.479 279.437 216.937 278.29 Q215.413 277.124 212.555 277.124 Q210.994 277.124 209.207 277.463 Q207.42 277.801 205.276 278.516 L205.276 275.13 Q207.439 274.529 209.32 274.228 Q211.219 273.927 212.893 273.927 Q217.219 273.927 219.739 275.902 Q222.259 277.858 222.259 281.205 Q222.259 283.538 220.924 285.155 Q219.589 286.754 217.125 287.374 Z" fill="#000000" fill-rule="nonzero" fill-opacity="1" /><path clip-path="url(#clip050)" d="M42.6863 825.789 L42.6863 795.743 L48.0971 795.743 L48.0971 819.36 L62.1653 819.36 L62.1653 796.73 L67.5762 796.73 L67.5762 819.36 L84.7954 819.36 L84.7954 795.17 L90.2063 795.17 L90.2063 825.789 L42.6863 825.789 Z" fill="#000000" fill-rule="nonzero" fill-opacity="1" /><path clip-path="url(#clip050)" d="M44.2459 756.116 L50.5161 756.116 Q48.7655 759.777 47.9062 763.023 Q47.0468 766.27 47.0468 769.293 Q47.0468 774.545 49.0838 777.41 Q51.1208 780.242 54.8766 780.242 Q58.0276 780.242 59.6509 778.365 Q61.2423 776.455 62.229 771.171 L63.0247 767.288 Q64.3933 760.095 67.8627 756.689 Q71.3001 753.252 77.0929 753.252 Q83.9997 753.252 87.5645 757.899 Q91.1293 762.514 91.1293 771.458 Q91.1293 774.832 90.3654 778.651 Q89.6015 782.439 88.1056 786.513 L81.4853 786.513 Q83.6814 782.598 84.7954 778.842 Q85.9094 775.086 85.9094 771.458 Q85.9094 765.951 83.7451 762.96 Q81.5808 759.968 77.5704 759.968 Q74.0692 759.968 72.0958 762.132 Q70.1225 764.265 69.1358 769.166 L68.3719 773.081 Q66.9396 780.274 63.8841 783.489 Q60.8285 786.704 55.3859 786.704 Q49.0838 786.704 45.4554 782.279 Q41.8269 777.823 41.8269 770.025 Q41.8269 766.683 42.4317 763.214 Q43.0364 759.745 44.2459 756.116 Z" fill="#000000" fill-rule="nonzero" fill-opacity="1" /><path clip-path="url(#clip050)" d="M44.2459 714.739 L50.5161 714.739 Q48.7655 718.4 47.9062 721.646 Q47.0468 724.893 47.0468 727.916 Q47.0468 733.168 49.0838 736.033 Q51.1208 738.865 54.8766 738.865 Q58.0276 738.865 59.6509 736.987 Q61.2423 735.078 62.229 729.794 L63.0247 725.911 Q64.3933 718.718 67.8627 715.312 Q71.3001 711.875 77.0929 711.875 Q83.9997 711.875 87.5645 716.522 Q91.1293 721.137 91.1293 730.081 Q91.1293 733.454 90.3654 737.274 Q89.6015 741.062 88.1056 745.136 L81.4853 745.136 Q83.6814 741.221 84.7954 737.465 Q85.9094 733.709 85.9094 730.081 Q85.9094 724.574 83.7451 721.582 Q81.5808 718.591 77.5704 718.591 Q74.0692 718.591 72.0958 720.755 Q70.1225 722.887 69.1358 727.789 L68.3719 731.704 Q66.9396 738.897 63.8841 742.112 Q60.8285 745.327 55.3859 745.327 Q49.0838 745.327 45.4554 740.902 Q41.8269 736.446 41.8269 728.648 Q41.8269 725.306 42.4317 721.837 Q43.0364 718.368 44.2459 714.739 Z" fill="#000000" fill-rule="nonzero" fill-opacity="1" /><path clip-path="url(#clip050)" d="M82.1218 700.607 L82.1218 693.892 L90.2063 693.892 L90.2063 700.607 L82.1218 700.607 M56.4999 700.607 L56.4999 693.892 L64.5843 693.892 L64.5843 700.607 L56.4999 700.607 Z" fill="#000000" fill-rule="nonzero" fill-opacity="1" /><path clip-path="url(#clip050)" d="M42.6863 659.899 L42.6863 653.438 L71.5548 653.438 Q79.1936 653.438 82.5674 650.668 Q85.9094 647.899 85.9094 641.693 Q85.9094 635.518 82.5674 632.749 Q79.1936 629.98 71.5548 629.98 L42.6863 629.98 L42.6863 623.519 L72.3505 623.519 Q81.6444 623.519 86.3869 628.134 Q91.1293 632.717 91.1293 641.693 Q91.1293 650.7 86.3869 655.315 Q81.6444 659.899 72.3505 659.899 L42.6863 659.899 Z" fill="#000000" fill-rule="nonzero" fill-opacity="1" /><path clip-path="url(#clip050)" d="M44.2459 582.969 L50.5161 582.969 Q48.7655 586.629 47.9062 589.876 Q47.0468 593.122 47.0468 596.146 Q47.0468 601.398 49.0838 604.262 Q51.1208 607.095 54.8766 607.095 Q58.0276 607.095 59.6509 605.217 Q61.2423 603.308 62.229 598.024 L63.0247 594.141 Q64.3933 586.948 67.8627 583.542 Q71.3001 580.105 77.0929 580.105 Q83.9997 580.105 87.5645 584.752 Q91.1293 589.367 91.1293 598.311 Q91.1293 601.684 90.3654 605.504 Q89.6015 609.291 88.1056 613.365 L81.4853 613.365 Q83.6814 609.451 84.7954 605.695 Q85.9094 601.939 85.9094 598.311 Q85.9094 592.804 83.7451 589.812 Q81.5808 586.82 77.5704 586.82 Q74.0692 586.82 72.0958 588.985 Q70.1225 591.117 69.1358 596.019 L68.3719 599.934 Q66.9396 607.127 63.8841 610.342 Q60.8285 613.556 55.3859 613.556 Q49.0838 613.556 45.4554 609.132 Q41.8269 604.676 41.8269 596.878 Q41.8269 593.536 42.4317 590.067 Q43.0364 586.598 44.2459 582.969 Z" fill="#000000" fill-rule="nonzero" fill-opacity="1" /><path clip-path="url(#clip050)" d="M49.0202 552.987 L72.6688 561.708 L72.6688 544.234 L49.0202 552.987 M42.6863 556.615 L42.6863 549.326 L90.2063 531.216 L90.2063 537.9 L78.016 542.229 L78.016 563.649 L90.2063 567.978 L90.2063 574.757 L42.6863 556.615 Z" fill="#000000" fill-rule="nonzero" fill-opacity="1" /><path clip-path="url(#clip050)" d="M82.1218 523.036 L82.1218 516.32 L87.5963 516.32 L97.7815 521.54 L97.7815 525.646 L87.5963 523.036 L82.1218 523.036 Z" fill="#000000" fill-rule="nonzero" fill-opacity="1" /><path clip-path="url(#clip050)" d="M44.4369 477.298 L54.5583 477.298 L54.5583 465.235 L59.1098 465.235 L59.1098 477.298 L78.4616 477.298 Q82.8221 477.298 84.0634 476.121 Q85.3047 474.911 85.3047 471.251 L85.3047 465.235 L90.2063 465.235 L90.2063 471.251 Q90.2063 478.031 87.6918 480.609 Q85.1455 483.187 78.4616 483.187 L59.1098 483.187 L59.1098 487.484 L54.5583 487.484 L54.5583 483.187 L44.4369 483.187 L44.4369 477.298 Z" fill="#000000" fill-rule="nonzero" fill-opacity="1" /><path clip-path="url(#clip050)" d="M54.5583 457.533 L54.5583 451.676 L90.2063 451.676 L90.2063 457.533 L54.5583 457.533 M40.6811 457.533 L40.6811 451.676 L48.0971 451.676 L48.0971 457.533 L40.6811 457.533 Z" fill="#000000" fill-rule="nonzero" fill-opacity="1" /><path clip-path="url(#clip050)" d="M61.4015 411.668 Q57.4547 409.472 55.5768 406.416 Q53.699 403.361 53.699 399.223 Q53.699 393.653 57.6139 390.629 Q61.4969 387.606 68.6902 387.606 L90.2063 387.606 L90.2063 393.494 L68.8812 393.494 Q63.7568 393.494 61.2741 395.308 Q58.7915 397.122 58.7915 400.846 Q58.7915 405.398 61.8152 408.04 Q64.8389 410.681 70.0588 410.681 L90.2063 410.681 L90.2063 416.57 L68.8812 416.57 Q63.7249 416.57 61.2741 418.384 Q58.7915 420.198 58.7915 423.986 Q58.7915 428.473 61.8471 431.115 Q64.8708 433.757 70.0588 433.757 L90.2063 433.757 L90.2063 439.645 L54.5583 439.645 L54.5583 433.757 L60.0965 433.757 Q56.8182 431.752 55.2586 428.951 Q53.699 426.15 53.699 422.299 Q53.699 418.416 55.6723 415.71 Q57.6457 412.973 61.4015 411.668 Z" fill="#000000" fill-rule="nonzero" fill-opacity="1" /><path clip-path="url(#clip050)" d="M70.9182 345.433 L73.7828 345.433 L73.7828 372.36 Q79.8302 371.978 83.013 368.731 Q86.1641 365.453 86.1641 359.628 Q86.1641 356.255 85.3365 353.104 Q84.509 349.921 82.8539 346.801 L88.3921 346.801 Q89.7289 349.953 90.4291 353.263 Q91.1293 356.573 91.1293 359.978 Q91.1293 368.509 86.1641 373.506 Q81.1988 378.471 72.7324 378.471 Q63.9796 378.471 58.8552 373.76 Q53.699 369.018 53.699 360.997 Q53.699 353.804 58.3459 349.634 Q62.9611 345.433 70.9182 345.433 M69.1995 351.289 Q64.3933 351.353 61.5288 353.995 Q58.6642 356.605 58.6642 360.933 Q58.6642 365.835 61.4333 368.795 Q64.2024 371.723 69.2313 372.169 L69.1995 351.289 Z" fill="#000000" fill-rule="nonzero" fill-opacity="1" /><path clip-path="url(#clip050)" d="M82.1218 334.325 L82.1218 327.609 L90.2063 327.609 L90.2063 334.325 L82.1218 334.325 M56.4999 334.325 L56.4999 327.609 L64.5843 327.609 L64.5843 334.325 L56.4999 334.325 Z" fill="#000000" fill-rule="nonzero" fill-opacity="1" /><path clip-path="url(#clip050)" d="M84.7954 311.917 L84.7954 301.414 L48.5427 301.414 L50.8344 312.84 L44.9779 312.84 L42.6863 301.478 L42.6863 295.048 L84.7954 295.048 L84.7954 284.545 L90.2063 284.545 L90.2063 311.917 L84.7954 311.917 Z" fill="#000000" fill-rule="nonzero" fill-opacity="1" /><polyline clip-path="url(#clip052)" style="stroke:#009af9; stroke-linecap:round; stroke-linejoin:round; stroke-width:4; stroke-opacity:1; fill:none" points="350.696,193.207 375.319,150.356 399.942,159.482 424.565,162.021 449.188,182.297 473.812,169.581 498.435,138.794 523.058,149.823 547.681,168.895 572.304,153.647 596.927,147.16 621.55,196.034 646.173,150.091 670.796,154.083 695.419,150.873 720.042,136.498 744.665,176.976 769.288,157.489 793.911,170.577 818.534,161.418 843.157,159.077 867.78,153.786 892.403,204.402 917.026,156.7 941.649,152.219 966.272,185.304 990.895,169.225 1015.52,168.611 1040.14,152.265 1064.76,135.356 1089.39,156.913 1114.01,159.528 1138.63,137.831 1163.26,155.032 1187.88,174.773 1212.5,178.871 1237.13,161.767 1261.75,147.882 1286.37,139.276 1311,131.906 1335.62,161.548 1360.24,168.004 1384.86,143.421 1409.49,158.76 1434.11,163.264 1458.73,149.087 1483.36,149.285 1507.98,151.787 1532.6,157.462 1557.23,174.255 1581.85,168.045 1606.47,141.708 1631.09,166.422 1655.72,178.28 1680.34,149.277 1704.96,172.276 1729.59,154.541 1754.21,151.491 1778.83,172.464 1803.46,161.385 1828.08,153.853 1852.7,163.464 1877.33,166.504 1901.95,123.587 1926.57,169.998 1951.19,144.326 1975.82,186.787 2000.44,157.732 2025.06,167.738 2049.69,130.923 2074.31,168.811 2098.93,156.641 2123.56,181.155 2148.18,163.919 2172.8,172.323 2197.42,142.378 2222.05,153.261 2246.67,126.188 2271.29,158.329 2295.92,172.898 2320.54,158.584 2345.16,169.176 2369.79,161.242 2394.41,147.219 2419.03,123.995 2443.66,165.144 2468.28,163.073 2492.9,129.354 2517.52,182.653 2542.15,166.51 2566.77,148.464 2591.39,193.421 2616.02,137.265 2640.64,178.601 2665.26,121.277 2689.89,132.302 2714.51,168.438 2739.13,174.474 2763.75,165.366 2788.38,138.315 2813,127.049 2837.62,110.236 2862.25,164.152 2886.87,166.6 2911.49,181.844 2936.12,140.809 2960.74,123.628 2985.36,153.714 3009.99,121.313 "/>
</svg>
