<?xml version="1.0" encoding="utf-8"?>
<svg xmlns="http://www.w3.org/2000/svg" xmlns:xlink="http://www.w3.org/1999/xlink" width="800" height="300" viewBox="0 0 3200 1200">
<defs>
  <clipPath id="clip660">
    <rect x="0" y="0" width="3200" height="1200"/>
  </clipPath>
</defs>
<path clip-path="url(#clip660)" d="M0 1200 L3200 1200 L3200 0 L0 0  Z" fill="#ffffff" fill-rule="evenodd" fill-opacity="1"/>
<defs>
  <clipPath id="clip661">
    <rect x="640" y="0" width="2241" height="1200"/>
  </clipPath>
</defs>
<path clip-path="url(#clip660)" d="M270.918 1000.1 L3089.76 1000.1 L3089.76 110.236 L270.918 110.236  Z" fill="#ffffff" fill-rule="evenodd" fill-opacity="1"/>
<defs>
  <clipPath id="clip662">
    <rect x="270" y="110" width="2820" height="891"/>
  </clipPath>
</defs>
<polyline clip-path="url(#clip662)" style="stroke:#000000; stroke-linecap:round; stroke-linejoin:round; stroke-width:2; stroke-opacity:0.1; fill:none" points="327.163,1000.1 327.163,110.236 "/>
<polyline clip-path="url(#clip662)" style="stroke:#000000; stroke-linecap:round; stroke-linejoin:round; stroke-width:2; stroke-opacity:0.1; fill:none" points="915.501,1000.1 915.501,110.236 "/>
<polyline clip-path="url(#clip662)" style="stroke:#000000; stroke-linecap:round; stroke-linejoin:round; stroke-width:2; stroke-opacity:0.1; fill:none" points="1503.84,1000.1 1503.84,110.236 "/>
<polyline clip-path="url(#clip662)" style="stroke:#000000; stroke-linecap:round; stroke-linejoin:round; stroke-width:2; stroke-opacity:0.1; fill:none" points="2092.18,1000.1 2092.18,110.236 "/>
<polyline clip-path="url(#clip662)" style="stroke:#000000; stroke-linecap:round; stroke-linejoin:round; stroke-width:2; stroke-opacity:0.1; fill:none" points="2680.52,1000.1 2680.52,110.236 "/>
<polyline clip-path="url(#clip660)" style="stroke:#000000; stroke-linecap:round; stroke-linejoin:round; stroke-width:4; stroke-opacity:1; fill:none" points="270.918,1000.1 3089.76,1000.1 "/>
<polyline clip-path="url(#clip660)" style="stroke:#000000; stroke-linecap:round; stroke-linejoin:round; stroke-width:4; stroke-opacity:1; fill:none" points="327.163,1000.1 327.163,981.2 "/>
<polyline clip-path="url(#clip660)" style="stroke:#000000; stroke-linecap:round; stroke-linejoin:round; stroke-width:4; stroke-opacity:1; fill:none" points="915.501,1000.1 915.501,981.2 "/>
<polyline clip-path="url(#clip660)" style="stroke:#000000; stroke-linecap:round; stroke-linejoin:round; stroke-width:4; stroke-opacity:1; fill:none" points="1503.84,1000.1 1503.84,981.2 "/>
<polyline clip-path="url(#clip660)" style="stroke:#000000; stroke-linecap:round; stroke-linejoin:round; stroke-width:4; stroke-opacity:1; fill:none" points="2092.18,1000.1 2092.18,981.2 "/>
<polyline clip-path="url(#clip660)" style="stroke:#000000; stroke-linecap:round; stroke-linejoin:round; stroke-width:4; stroke-opacity:1; fill:none" points="2680.52,1000.1 2680.52,981.2 "/>
<path clip-path="url(#clip660)" d="M327.163 1037.42 Q323.552 1037.42 321.723 1040.98 Q319.917 1044.52 319.917 1051.65 Q319.917 1058.76 321.723 1062.32 Q323.552 1065.87 327.163 1065.87 Q330.797 1065.87 332.603 1062.32 Q334.431 1058.76 334.431 1051.65 Q334.431 1044.52 332.603 1040.98 Q330.797 1037.42 327.163 1037.42 M327.163 1033.71 Q332.973 1033.71 336.028 1038.32 Q339.107 1042.9 339.107 1051.65 Q339.107 1060.38 336.028 1064.99 Q332.973 1069.57 327.163 1069.57 Q321.353 1069.57 318.274 1064.99 Q315.218 1060.38 315.218 1051.65 Q315.218 1042.9 318.274 1038.32 Q321.353 1033.71 327.163 1033.71 Z" fill="#000000" fill-rule="nonzero" fill-opacity="1" /><path clip-path="url(#clip660)" d="M894.772 1064.96 L911.091 1064.96 L911.091 1068.9 L889.147 1068.9 L889.147 1064.96 Q891.809 1062.21 896.392 1057.58 Q900.999 1052.93 902.179 1051.58 Q904.425 1049.06 905.304 1047.32 Q906.207 1045.56 906.207 1043.87 Q906.207 1041.12 904.263 1039.38 Q902.341 1037.65 899.24 1037.65 Q897.04 1037.65 894.587 1038.41 Q892.156 1039.18 889.378 1040.73 L889.378 1036 Q892.203 1034.87 894.656 1034.29 Q897.11 1033.71 899.147 1033.71 Q904.517 1033.71 907.712 1036.4 Q910.906 1039.08 910.906 1043.57 Q910.906 1045.7 910.096 1047.62 Q909.309 1049.52 907.202 1052.12 Q906.624 1052.79 903.522 1056 Q900.42 1059.2 894.772 1064.96 Z" fill="#000000" fill-rule="nonzero" fill-opacity="1" /><path clip-path="url(#clip660)" d="M920.952 1034.34 L939.309 1034.34 L939.309 1038.27 L925.235 1038.27 L925.235 1046.75 Q926.253 1046.4 927.272 1046.24 Q928.29 1046.05 929.309 1046.05 Q935.096 1046.05 938.475 1049.22 Q941.855 1052.39 941.855 1057.81 Q941.855 1063.39 938.383 1066.49 Q934.911 1069.57 928.591 1069.57 Q926.415 1069.57 924.147 1069.2 Q921.901 1068.83 919.494 1068.09 L919.494 1063.39 Q921.577 1064.52 923.8 1065.08 Q926.022 1065.63 928.499 1065.63 Q932.503 1065.63 934.841 1063.53 Q937.179 1061.42 937.179 1057.81 Q937.179 1054.2 934.841 1052.09 Q932.503 1049.99 928.499 1049.99 Q926.624 1049.99 924.749 1050.4 Q922.897 1050.82 920.952 1051.7 L920.952 1034.34 Z" fill="#000000" fill-rule="nonzero" fill-opacity="1" /><path clip-path="url(#clip660)" d="M1478.54 1034.34 L1496.89 1034.34 L1496.89 1038.27 L1482.82 1038.27 L1482.82 1046.75 Q1483.84 1046.4 1484.86 1046.24 Q1485.88 1046.05 1486.89 1046.05 Q1492.68 1046.05 1496.06 1049.22 Q1499.44 1052.39 1499.44 1057.81 Q1499.44 1063.39 1495.97 1066.49 Q1492.5 1069.57 1486.18 1069.57 Q1484 1069.57 1481.73 1069.2 Q1479.49 1068.83 1477.08 1068.09 L1477.08 1063.39 Q1479.16 1064.52 1481.39 1065.08 Q1483.61 1065.63 1486.08 1065.63 Q1490.09 1065.63 1492.43 1063.53 Q1494.77 1061.42 1494.77 1057.81 Q1494.77 1054.2 1492.43 1052.09 Q1490.09 1049.99 1486.08 1049.99 Q1484.21 1049.99 1482.33 1050.4 Q1480.48 1050.82 1478.54 1051.7 L1478.54 1034.34 Z" fill="#000000" fill-rule="nonzero" fill-opacity="1" /><path clip-path="url(#clip660)" d="M1518.65 1037.42 Q1515.04 1037.42 1513.21 1040.98 Q1511.41 1044.52 1511.41 1051.65 Q1511.41 1058.76 1513.21 1062.32 Q1515.04 1065.87 1518.65 1065.87 Q1522.29 1065.87 1524.09 1062.32 Q1525.92 1058.76 1525.92 1051.65 Q1525.92 1044.52 1524.09 1040.98 Q1522.29 1037.42 1518.65 1037.42 M1518.65 1033.71 Q1524.46 1033.71 1527.52 1038.32 Q1530.6 1042.9 1530.6 1051.65 Q1530.6 1060.38 1527.52 1064.99 Q1524.46 1069.57 1518.65 1069.57 Q1512.84 1069.57 1509.77 1064.99 Q1506.71 1060.38 1506.71 1051.65 Q1506.71 1042.9 1509.77 1038.32 Q1512.84 1033.71 1518.65 1033.71 Z" fill="#000000" fill-rule="nonzero" fill-opacity="1" /><path clip-path="url(#clip660)" d="M2066.03 1034.34 L2088.25 1034.34 L2088.25 1036.33 L2075.71 1068.9 L2070.82 1068.9 L2082.63 1038.27 L2066.03 1038.27 L2066.03 1034.34 Z" fill="#000000" fill-rule="nonzero" fill-opacity="1" /><path clip-path="url(#clip660)" d="M2097.42 1034.34 L2115.78 1034.34 L2115.78 1038.27 L2101.7 1038.27 L2101.7 1046.75 Q2102.72 1046.4 2103.74 1046.24 Q2104.76 1046.05 2105.78 1046.05 Q2111.56 1046.05 2114.94 1049.22 Q2118.32 1052.39 2118.32 1057.81 Q2118.32 1063.39 2114.85 1066.49 Q2111.38 1069.57 2105.06 1069.57 Q2102.88 1069.57 2100.61 1069.2 Q2098.37 1068.83 2095.96 1068.09 L2095.96 1063.39 Q2098.05 1064.52 2100.27 1065.08 Q2102.49 1065.63 2104.97 1065.63 Q2108.97 1065.63 2111.31 1063.53 Q2113.65 1061.42 2113.65 1057.81 Q2113.65 1054.2 2111.31 1052.09 Q2108.97 1049.99 2104.97 1049.99 Q2103.09 1049.99 2101.22 1050.4 Q2099.36 1050.82 2097.42 1051.7 L2097.42 1034.34 Z" fill="#000000" fill-rule="nonzero" fill-opacity="1" /><path clip-path="url(#clip660)" d="M2640.12 1064.96 L2647.76 1064.96 L2647.76 1038.6 L2639.45 1040.26 L2639.45 1036 L2647.71 1034.34 L2652.39 1034.34 L2652.39 1064.96 L2660.03 1064.96 L2660.03 1068.9 L2640.12 1068.9 L2640.12 1064.96 Z" fill="#000000" fill-rule="nonzero" fill-opacity="1" /><path clip-path="url(#clip660)" d="M2679.47 1037.42 Q2675.86 1037.42 2674.03 1040.98 Q2672.23 1044.52 2672.23 1051.65 Q2672.23 1058.76 2674.03 1062.32 Q2675.86 1065.87 2679.47 1065.87 Q2683.11 1065.87 2684.91 1062.32 Q2686.74 1058.76 2686.74 1051.65 Q2686.74 1044.52 2684.91 1040.98 Q2683.11 1037.42 2679.47 1037.42 M2679.47 1033.71 Q2685.28 1033.71 2688.34 1038.32 Q2691.42 1042.9 2691.42 1051.65 Q2691.42 1060.38 2688.34 1064.99 Q2685.28 1069.57 2679.47 1069.57 Q2673.66 1069.57 2670.59 1064.99 Q2667.53 1060.38 2667.53 1051.65 Q2667.53 1042.9 2670.59 1038.32 Q2673.66 1033.71 2679.47 1033.71 Z" fill="#000000" fill-rule="nonzero" fill-opacity="1" /><path clip-path="url(#clip660)" d="M2709.64 1037.42 Q2706.02 1037.42 2704.2 1040.98 Q2702.39 1044.52 2702.39 1051.65 Q2702.39 1058.76 2704.2 1062.32 Q2706.02 1065.87 2709.64 1065.87 Q2713.27 1065.87 2715.08 1062.32 Q2716.9 1058.76 2716.9 1051.65 Q2716.9 1044.52 2715.08 1040.98 Q2713.27 1037.42 2709.64 1037.42 M2709.64 1033.71 Q2715.45 1033.71 2718.5 1038.32 Q2721.58 1042.9 2721.58 1051.65 Q2721.58 1060.38 2718.5 1064.99 Q2715.45 1069.57 2709.64 1069.57 Q2703.83 1069.57 2700.75 1064.99 Q2697.69 1060.38 2697.69 1051.65 Q2697.69 1042.9 2700.75 1038.32 Q2703.83 1033.71 2709.64 1033.71 Z" fill="#000000" fill-rule="nonzero" fill-opacity="1" /><path clip-path="url(#clip660)" d="M1556.64 1109.44 L1563.07 1109.44 L1563.07 1151.55 L1586.21 1151.55 L1586.21 1156.96 L1556.64 1156.96 L1556.64 1109.44 Z" fill="#000000" fill-rule="nonzero" fill-opacity="1" /><path clip-path="url(#clip660)" d="M1592.7 1121.31 L1598.56 1121.31 L1598.56 1156.96 L1592.7 1156.96 L1592.7 1121.31 M1592.7 1107.44 L1598.56 1107.44 L1598.56 1114.85 L1592.7 1114.85 L1592.7 1107.44 Z" fill="#000000" fill-rule="nonzero" fill-opacity="1" /><path clip-path="url(#clip660)" d="M1640.44 1135.45 L1640.44 1156.96 L1634.59 1156.96 L1634.59 1135.64 Q1634.59 1130.58 1632.61 1128.06 Q1630.64 1125.55 1626.69 1125.55 Q1621.95 1125.55 1619.21 1128.57 Q1616.48 1131.59 1616.48 1136.81 L1616.48 1156.96 L1610.59 1156.96 L1610.59 1121.31 L1616.48 1121.31 L1616.48 1126.85 Q1618.58 1123.64 1621.41 1122.05 Q1624.27 1120.45 1628 1120.45 Q1634.14 1120.45 1637.29 1124.27 Q1640.44 1128.06 1640.44 1135.45 Z" fill="#000000" fill-rule="nonzero" fill-opacity="1" /><path clip-path="url(#clip660)" d="M1682.62 1137.67 L1682.62 1140.54 L1655.69 1140.54 Q1656.07 1146.59 1659.32 1149.77 Q1662.6 1152.92 1668.42 1152.92 Q1671.79 1152.92 1674.95 1152.09 Q1678.13 1151.26 1681.25 1149.61 L1681.25 1155.15 Q1678.1 1156.48 1674.79 1157.18 Q1671.48 1157.88 1668.07 1157.88 Q1659.54 1157.88 1654.54 1152.92 Q1649.58 1147.95 1649.58 1139.49 Q1649.58 1130.74 1654.29 1125.61 Q1659.03 1120.45 1667.05 1120.45 Q1674.25 1120.45 1678.42 1125.1 Q1682.62 1129.72 1682.62 1137.67 M1676.76 1135.95 Q1676.7 1131.15 1674.05 1128.28 Q1671.44 1125.42 1667.12 1125.42 Q1662.21 1125.42 1659.25 1128.19 Q1656.33 1130.96 1655.88 1135.99 L1676.76 1135.95 Z" fill="#000000" fill-rule="nonzero" fill-opacity="1" /><path clip-path="url(#clip660)" d="M1708.43 1139.04 Q1701.33 1139.04 1698.59 1140.67 Q1695.86 1142.29 1695.86 1146.2 Q1695.86 1149.32 1697.89 1151.17 Q1699.96 1152.98 1703.5 1152.98 Q1708.37 1152.98 1711.29 1149.55 Q1714.25 1146.08 1714.25 1140.35 L1714.25 1139.04 L1708.43 1139.04 M1720.11 1136.62 L1720.11 1156.96 L1714.25 1156.96 L1714.25 1151.55 Q1712.25 1154.8 1709.26 1156.36 Q1706.27 1157.88 1701.94 1157.88 Q1696.46 1157.88 1693.22 1154.83 Q1690 1151.74 1690 1146.59 Q1690 1140.57 1694.01 1137.51 Q1698.05 1134.46 1706.04 1134.46 L1714.25 1134.46 L1714.25 1133.89 Q1714.25 1129.84 1711.58 1127.65 Q1708.94 1125.42 1704.13 1125.42 Q1701.08 1125.42 1698.18 1126.15 Q1695.28 1126.88 1692.61 1128.35 L1692.61 1122.94 Q1695.83 1121.7 1698.85 1121.09 Q1701.87 1120.45 1704.74 1120.45 Q1712.47 1120.45 1716.29 1124.46 Q1720.11 1128.48 1720.11 1136.62 Z" fill="#000000" fill-rule="nonzero" fill-opacity="1" /><path clip-path="url(#clip660)" d="M1755.63 1138.72 Q1755.63 1132.36 1752.99 1128.86 Q1750.38 1125.36 1745.64 1125.36 Q1740.93 1125.36 1738.28 1128.86 Q1735.67 1132.36 1735.67 1138.72 Q1735.67 1145.06 1738.28 1148.56 Q1740.93 1152.06 1745.64 1152.06 Q1750.38 1152.06 1752.99 1148.56 Q1755.63 1145.06 1755.63 1138.72 M1761.49 1152.54 Q1761.49 1161.64 1757.45 1166.06 Q1753.4 1170.52 1745.06 1170.52 Q1741.98 1170.52 1739.24 1170.04 Q1736.5 1169.6 1733.92 1168.64 L1733.92 1162.95 Q1736.5 1164.35 1739.02 1165.01 Q1741.53 1165.68 1744.14 1165.68 Q1749.9 1165.68 1752.77 1162.66 Q1755.63 1159.67 1755.63 1153.59 L1755.63 1150.69 Q1753.82 1153.84 1750.98 1155.4 Q1748.15 1156.96 1744.2 1156.96 Q1737.65 1156.96 1733.64 1151.96 Q1729.63 1146.97 1729.63 1138.72 Q1729.63 1130.45 1733.64 1125.45 Q1737.65 1120.45 1744.2 1120.45 Q1748.15 1120.45 1750.98 1122.01 Q1753.82 1123.57 1755.63 1126.72 L1755.63 1121.31 L1761.49 1121.31 L1761.49 1152.54 Z" fill="#000000" fill-rule="nonzero" fill-opacity="1" /><path clip-path="url(#clip660)" d="M1804.04 1137.67 L1804.04 1140.54 L1777.12 1140.54 Q1777.5 1146.59 1780.74 1149.77 Q1784.02 1152.92 1789.85 1152.92 Q1793.22 1152.92 1796.37 1152.09 Q1799.55 1151.26 1802.67 1149.61 L1802.67 1155.15 Q1799.52 1156.48 1796.21 1157.18 Q1792.9 1157.88 1789.5 1157.88 Q1780.97 1157.88 1775.97 1152.92 Q1771 1147.95 1771 1139.49 Q1771 1130.74 1775.71 1125.61 Q1780.46 1120.45 1788.48 1120.45 Q1795.67 1120.45 1799.84 1125.1 Q1804.04 1129.72 1804.04 1137.67 M1798.19 1135.95 Q1798.12 1131.15 1795.48 1128.28 Q1792.87 1125.42 1788.54 1125.42 Q1783.64 1125.42 1780.68 1128.19 Q1777.75 1130.96 1777.31 1135.99 L1798.19 1135.95 Z" fill="#000000" fill-rule="nonzero" fill-opacity="1" /><polyline clip-path="url(#clip662)" style="stroke:#000000; stroke-linecap:round; stroke-linejoin:round; stroke-width:2; stroke-opacity:0.1; fill:none" points="270.918,1000.1 3089.76,1000.1 "/>
<polyline clip-path="url(#clip662)" style="stroke:#000000; stroke-linecap:round; stroke-linejoin:round; stroke-width:2; stroke-opacity:0.1; fill:none" points="270.918,668.928 3089.76,668.928 "/>
<polyline clip-path="url(#clip662)" style="stroke:#000000; stroke-linecap:round; stroke-linejoin:round; stroke-width:2; stroke-opacity:0.1; fill:none" points="270.918,337.758 3089.76,337.758 "/>
<polyline clip-path="url(#clip660)" style="stroke:#000000; stroke-linecap:round; stroke-linejoin:round; stroke-width:4; stroke-opacity:1; fill:none" points="270.918,1000.1 270.918,110.236 "/>
<polyline clip-path="url(#clip660)" style="stroke:#000000; stroke-linecap:round; stroke-linejoin:round; stroke-width:4; stroke-opacity:1; fill:none" points="270.918,1000.1 289.815,1000.1 "/>
<polyline clip-path="url(#clip660)" style="stroke:#000000; stroke-linecap:round; stroke-linejoin:round; stroke-width:4; stroke-opacity:1; fill:none" points="270.918,668.928 289.815,668.928 "/>
<polyline clip-path="url(#clip660)" style="stroke:#000000; stroke-linecap:round; stroke-linejoin:round; stroke-width:4; stroke-opacity:1; fill:none" points="270.918,337.758 289.815,337.758 "/>
<path clip-path="url(#clip660)" d="M154.902 1019.89 L162.54 1019.89 L162.54 993.525 L154.23 995.191 L154.23 990.932 L162.494 989.265 L167.17 989.265 L167.17 1019.89 L174.809 1019.89 L174.809 1023.83 L154.902 1023.83 L154.902 1019.89 Z" fill="#000000" fill-rule="nonzero" fill-opacity="1" /><path clip-path="url(#clip660)" d="M194.253 992.344 Q190.642 992.344 188.813 995.909 Q187.008 999.45 187.008 1006.58 Q187.008 1013.69 188.813 1017.25 Q190.642 1020.79 194.253 1020.79 Q197.887 1020.79 199.693 1017.25 Q201.522 1013.69 201.522 1006.58 Q201.522 999.45 199.693 995.909 Q197.887 992.344 194.253 992.344 M194.253 988.64 Q200.063 988.64 203.119 993.247 Q206.198 997.83 206.198 1006.58 Q206.198 1015.31 203.119 1019.91 Q200.063 1024.5 194.253 1024.5 Q188.443 1024.5 185.364 1019.91 Q182.309 1015.31 182.309 1006.58 Q182.309 997.83 185.364 993.247 Q188.443 988.64 194.253 988.64 Z" fill="#000000" fill-rule="nonzero" fill-opacity="1" /><path clip-path="url(#clip660)" d="M206.743 993.218 L212.95 993.218 L212.95 971.796 L206.198 973.15 L206.198 969.689 L212.912 968.335 L216.711 968.335 L216.711 993.218 L222.918 993.218 L222.918 996.415 L206.743 996.415 L206.743 993.218 Z" fill="#000000" fill-rule="nonzero" fill-opacity="1" /><path clip-path="url(#clip660)" d="M153.792 688.72 L161.431 688.72 L161.431 662.355 L153.121 664.021 L153.121 659.762 L161.384 658.095 L166.06 658.095 L166.06 688.72 L173.699 688.72 L173.699 692.655 L153.792 692.655 L153.792 688.72 Z" fill="#000000" fill-rule="nonzero" fill-opacity="1" /><path clip-path="url(#clip660)" d="M193.143 661.174 Q189.532 661.174 187.704 664.739 Q185.898 668.28 185.898 675.41 Q185.898 682.516 187.704 686.081 Q189.532 689.623 193.143 689.623 Q196.778 689.623 198.583 686.081 Q200.412 682.516 200.412 675.41 Q200.412 668.28 198.583 664.739 Q196.778 661.174 193.143 661.174 M193.143 657.47 Q198.954 657.47 202.009 662.077 Q205.088 666.66 205.088 675.41 Q205.088 684.137 202.009 688.743 Q198.954 693.327 193.143 693.327 Q187.333 693.327 184.255 688.743 Q181.199 684.137 181.199 675.41 Q181.199 666.66 184.255 662.077 Q187.333 657.47 193.143 657.47 Z" fill="#000000" fill-rule="nonzero" fill-opacity="1" /><path clip-path="url(#clip660)" d="M209.658 662.048 L222.918 662.048 L222.918 665.245 L205.088 665.245 L205.088 662.048 Q207.251 659.809 210.975 656.048 Q214.717 652.268 215.677 651.177 Q217.501 649.127 218.216 647.716 Q218.949 646.287 218.949 644.914 Q218.949 642.676 217.369 641.265 Q215.808 639.854 213.288 639.854 Q211.501 639.854 209.508 640.475 Q207.533 641.096 205.276 642.356 L205.276 638.519 Q207.57 637.598 209.564 637.127 Q211.558 636.657 213.213 636.657 Q217.576 636.657 220.172 638.839 Q222.767 641.021 222.767 644.669 Q222.767 646.4 222.109 647.961 Q221.469 649.503 219.758 651.609 Q219.288 652.155 216.767 654.769 Q214.247 657.364 209.658 662.048 Z" fill="#000000" fill-rule="nonzero" fill-opacity="1" /><path clip-path="url(#clip660)" d="M153.134 357.55 L160.772 357.55 L160.772 331.185 L152.462 332.851 L152.462 328.592 L160.726 326.925 L165.402 326.925 L165.402 357.55 L173.041 357.55 L173.041 361.485 L153.134 361.485 L153.134 357.55 Z" fill="#000000" fill-rule="nonzero" fill-opacity="1" /><path clip-path="url(#clip660)" d="M192.485 330.004 Q188.874 330.004 187.045 333.569 Q185.24 337.11 185.24 344.24 Q185.24 351.347 187.045 354.911 Q188.874 358.453 192.485 358.453 Q196.119 358.453 197.925 354.911 Q199.754 351.347 199.754 344.24 Q199.754 337.11 197.925 333.569 Q196.119 330.004 192.485 330.004 M192.485 326.3 Q198.295 326.3 201.351 330.907 Q204.43 335.49 204.43 344.24 Q204.43 352.967 201.351 357.573 Q198.295 362.157 192.485 362.157 Q186.675 362.157 183.596 357.573 Q180.541 352.967 180.541 344.24 Q180.541 335.49 183.596 330.907 Q186.675 326.3 192.485 326.3 Z" fill="#000000" fill-rule="nonzero" fill-opacity="1" /><path clip-path="url(#clip660)" d="M217.125 318.935 Q219.852 319.518 221.375 321.361 Q222.918 323.204 222.918 325.912 Q222.918 330.069 220.059 332.345 Q217.2 334.62 211.934 334.62 Q210.166 334.62 208.285 334.263 Q206.423 333.924 204.43 333.229 L204.43 329.561 Q206.009 330.483 207.89 330.953 Q209.771 331.423 211.821 331.423 Q215.395 331.423 217.256 330.012 Q219.137 328.602 219.137 325.912 Q219.137 323.43 217.388 322.038 Q215.658 320.627 212.555 320.627 L209.282 320.627 L209.282 317.505 L212.705 317.505 Q215.507 317.505 216.993 316.396 Q218.479 315.267 218.479 313.161 Q218.479 310.998 216.937 309.851 Q215.413 308.684 212.555 308.684 Q210.994 308.684 209.207 309.023 Q207.42 309.362 205.276 310.076 L205.276 306.691 Q207.439 306.089 209.32 305.788 Q211.219 305.487 212.893 305.487 Q217.219 305.487 219.739 307.462 Q222.259 309.418 222.259 312.766 Q222.259 315.098 220.924 316.715 Q219.589 318.314 217.125 318.935 Z" fill="#000000" fill-rule="nonzero" fill-opacity="1" /><path clip-path="url(#clip660)" d="M42.6863 825.789 L42.6863 795.743 L48.0971 795.743 L48.0971 819.36 L62.1653 819.36 L62.1653 796.73 L67.5762 796.73 L67.5762 819.36 L84.7954 819.36 L84.7954 795.17 L90.2063 795.17 L90.2063 825.789 L42.6863 825.789 Z" fill="#000000" fill-rule="nonzero" fill-opacity="1" /><path clip-path="url(#clip660)" d="M44.2459 756.116 L50.5161 756.116 Q48.7655 759.777 47.9062 763.023 Q47.0468 766.27 47.0468 769.293 Q47.0468 774.545 49.0838 777.41 Q51.1208 780.242 54.8766 780.242 Q58.0276 780.242 59.6509 778.365 Q61.2423 776.455 62.229 771.171 L63.0247 767.288 Q64.3933 760.095 67.8627 756.689 Q71.3001 753.252 77.0929 753.252 Q83.9997 753.252 87.5645 757.899 Q91.1293 762.514 91.1293 771.458 Q91.1293 774.832 90.3654 778.651 Q89.6015 782.439 88.1056 786.513 L81.4853 786.513 Q83.6814 782.598 84.7954 778.842 Q85.9094 775.086 85.9094 771.458 Q85.9094 765.951 83.7451 762.96 Q81.5808 759.968 77.5704 759.968 Q74.0692 759.968 72.0958 762.132 Q70.1225 764.265 69.1358 769.166 L68.3719 773.081 Q66.9396 780.274 63.8841 783.489 Q60.8285 786.704 55.3859 786.704 Q49.0838 786.704 45.4554 782.279 Q41.8269 777.823 41.8269 770.025 Q41.8269 766.683 42.4317 763.214 Q43.0364 759.745 44.2459 756.116 Z" fill="#000000" fill-rule="nonzero" fill-opacity="1" /><path clip-path="url(#clip660)" d="M44.2459 714.739 L50.5161 714.739 Q48.7655 718.4 47.9062 721.646 Q47.0468 724.893 47.0468 727.916 Q47.0468 733.168 49.0838 736.033 Q51.1208 738.865 54.8766 738.865 Q58.0276 738.865 59.6509 736.987 Q61.2423 735.078 62.229 729.794 L63.0247 725.911 Q64.3933 718.718 67.8627 715.312 Q71.3001 711.875 77.0929 711.875 Q83.9997 711.875 87.5645 716.522 Q91.1293 721.137 91.1293 730.081 Q91.1293 733.454 90.3654 737.274 Q89.6015 741.062 88.1056 745.136 L81.4853 745.136 Q83.6814 741.221 84.7954 737.465 Q85.9094 733.709 85.9094 730.081 Q85.9094 724.574 83.7451 721.582 Q81.5808 718.591 77.5704 718.591 Q74.0692 718.591 72.0958 720.755 Q70.1225 722.887 69.1358 727.789 L68.3719 731.704 Q66.9396 738.897 63.8841 742.112 Q60.8285 745.327 55.3859 745.327 Q49.0838 745.327 45.4554 740.902 Q41.8269 736.446 41.8269 728.648 Q41.8269 725.306 42.4317 721.837 Q43.0364 718.368 44.2459 714.739 Z" fill="#000000" fill-rule="nonzero" fill-opacity="1" /><path clip-path="url(#clip660)" d="M82.1218 700.607 L82.1218 693.892 L90.2063 693.892 L90.2063 700.607 L82.1218 700.607 M56.4999 700.607 L56.4999 693.892 L64.5843 693.892 L64.5843 700.607 L56.4999 700.607 Z" fill="#000000" fill-rule="nonzero" fill-opacity="1" /><path clip-path="url(#clip660)" d="M42.6863 659.899 L42.6863 653.438 L71.5548 653.438 Q79.1936 653.438 82.5674 650.668 Q85.9094 647.899 85.9094 641.693 Q85.9094 635.518 82.5674 632.749 Q79.1936 629.98 71.5548 629.98 L42.6863 629.98 L42.6863 623.519 L72.3505 623.519 Q81.6444 623.519 86.3869 628.134 Q91.1293 632.717 91.1293 641.693 Q91.1293 650.7 86.3869 655.315 Q81.6444 659.899 72.3505 659.899 L42.6863 659.899 Z" fill="#000000" fill-rule="nonzero" fill-opacity="1" /><path clip-path="url(#clip660)" d="M44.2459 582.969 L50.5161 582.969 Q48.7655 586.629 47.9062 589.876 Q47.0468 593.122 47.0468 596.146 Q47.0468 601.398 49.0838 604.262 Q51.1208 607.095 54.8766 607.095 Q58.0276 607.095 59.6509 605.217 Q61.2423 603.308 62.229 598.024 L63.0247 594.141 Q64.3933 586.948 67.8627 583.542 Q71.3001 580.105 77.0929 580.105 Q83.9997 580.105 87.5645 584.752 Q91.1293 589.367 91.1293 598.311 Q91.1293 601.684 90.3654 605.504 Q89.6015 609.291 88.1056 613.365 L81.4853 613.365 Q83.6814 609.451 84.7954 605.695 Q85.9094 601.939 85.9094 598.311 Q85.9094 592.804 83.7451 589.812 Q81.5808 586.82 77.5704 586.82 Q74.0692 586.82 72.0958 588.985 Q70.1225 591.117 69.1358 596.019 L68.3719 599.934 Q66.9396 607.127 63.8841 610.342 Q60.8285 613.556 55.3859 613.556 Q49.0838 613.556 45.4554 609.132 Q41.8269 604.676 41.8269 596.878 Q41.8269 593.536 42.4317 590.067 Q43.0364 586.598 44.2459 582.969 Z" fill="#000000" fill-rule="nonzero" fill-opacity="1" /><path clip-path="url(#clip660)" d="M49.0202 552.987 L72.6688 561.708 L72.6688 544.234 L49.0202 552.987 M42.6863 556.615 L42.6863 549.326 L90.2063 531.216 L90.2063 537.9 L78.016 542.229 L78.016 563.649 L90.2063 567.978 L90.2063 574.757 L42.6863 556.615 Z" fill="#000000" fill-rule="nonzero" fill-opacity="1" /><path clip-path="url(#clip660)" d="M82.1218 523.036 L82.1218 516.32 L87.5963 516.32 L97.7815 521.54 L97.7815 525.646 L87.5963 523.036 L82.1218 523.036 Z" fill="#000000" fill-rule="nonzero" fill-opacity="1" /><path clip-path="url(#clip660)" d="M44.4369 477.298 L54.5583 477.298 L54.5583 465.235 L59.1098 465.235 L59.1098 477.298 L78.4616 477.298 Q82.8221 477.298 84.0634 476.121 Q85.3047 474.911 85.3047 471.251 L85.3047 465.235 L90.2063 465.235 L90.2063 471.251 Q90.2063 478.031 87.6918 480.609 Q85.1455 483.187 78.4616 483.187 L59.1098 483.187 L59.1098 487.484 L54.5583 487.484 L54.5583 483.187 L44.4369 483.187 L44.4369 477.298 Z" fill="#000000" fill-rule="nonzero" fill-opacity="1" /><path clip-path="url(#clip660)" d="M54.5583 457.533 L54.5583 451.676 L90.2063 451.676 L90.2063 457.533 L54.5583 457.533 M40.6811 457.533 L40.6811 451.676 L48.0971 451.676 L48.0971 457.533 L40.6811 457.533 Z" fill="#000000" fill-rule="nonzero" fill-opacity="1" /><path clip-path="url(#clip660)" d="M61.4015 411.668 Q57.4547 409.472 55.5768 406.416 Q53.699 403.361 53.699 399.223 Q53.699 393.653 57.6139 390.629 Q61.4969 387.606 68.6902 387.606 L90.2063 387.606 L90.2063 393.494 L68.8812 393.494 Q63.7568 393.494 61.2741 395.308 Q58.7915 397.122 58.7915 400.846 Q58.7915 405.398 61.8152 408.04 Q64.8389 410.681 70.0588 410.681 L90.2063 410.681 L90.2063 416.57 L68.8812 416.57 Q63.7249 416.57 61.2741 418.384 Q58.7915 420.198 58.7915 423.986 Q58.7915 428.473 61.8471 431.115 Q64.8708 433.757 70.0588 433.757 L90.2063 433.757 L90.2063 439.645 L54.5583 439.645 L54.5583 433.757 L60.0965 433.757 Q56.8182 431.752 55.2586 428.951 Q53.699 426.15 53.699 422.299 Q53.699 418.416 55.6723 415.71 Q57.6457 412.973 61.4015 411.668 Z" fill="#000000" fill-rule="nonzero" fill-opacity="1" /><path clip-path="url(#clip660)" d="M70.9182 345.433 L73.7828 345.433 L73.7828 372.36 Q79.8302 371.978 83.013 368.731 Q86.1641 365.453 86.1641 359.628 Q86.1641 356.255 85.3365 353.104 Q84.509 349.921 82.8539 346.801 L88.3921 346.801 Q89.7289 349.953 90.4291 353.263 Q91.1293 356.573 91.1293 359.978 Q91.1293 368.509 86.1641 373.506 Q81.1988 378.471 72.7324 378.471 Q63.9796 378.471 58.8552 373.76 Q53.699 369.018 53.699 360.997 Q53.699 353.804 58.3459 349.634 Q62.9611 345.433 70.9182 345.433 M69.1995 351.289 Q64.3933 351.353 61.5288 353.995 Q58.6642 356.605 58.6642 360.933 Q58.6642 365.835 61.4333 368.795 Q64.2024 371.723 69.2313 372.169 L69.1995 351.289 Z" fill="#000000" fill-rule="nonzero" fill-opacity="1" /><path clip-path="url(#clip660)" d="M82.1218 334.325 L82.1218 327.609 L90.2063 327.609 L90.2063 334.325 L82.1218 334.325 M56.4999 334.325 L56.4999 327.609 L64.5843 327.609 L64.5843 334.325 L56.4999 334.325 Z" fill="#000000" fill-rule="nonzero" fill-opacity="1" /><path clip-path="url(#clip660)" d="M84.7954 311.917 L84.7954 301.414 L48.5427 301.414 L50.8344 312.84 L44.9779 312.84 L42.6863 301.478 L42.6863 295.048 L84.7954 295.048 L84.7954 284.545 L90.2063 284.545 L90.2063 311.917 L84.7954 311.917 Z" fill="#000000" fill-rule="nonzero" fill-opacity="1" /><polyline clip-path="url(#clip662)" style="stroke:#009af9; stroke-linecap:round; stroke-linejoin:round; stroke-width:4; stroke-opacity:1; fill:none" points="350.696,273.456 374.23,193.967 397.763,197.448 421.297,196.719 444.83,209.005 468.364,192.073 491.897,189.96 515.431,200.728 538.965,206.51 562.498,194.593 586.032,206.76 609.565,196.313 633.099,202.415 656.632,197.746 680.166,167.339 703.699,198.71 727.233,196.794 750.766,200.328 774.3,187.835 797.833,203.949 821.367,182.473 844.9,206.524 868.434,186.314 891.967,191.227 915.501,190.337 939.035,190.531 962.568,176.976 986.102,220.233 1009.64,204.882 1033.17,168.369 1056.7,192.892 1080.24,166.436 1103.77,173.47 1127.3,172.776 1150.84,193.137 1174.37,179.745 1197.9,209.646 1221.44,181.683 1244.97,190.083 1268.5,189.977 1292.04,187.198 1315.57,189.381 1339.1,182.203 1362.64,191.548 1386.17,182.485 1409.71,197.572 1433.24,199.488 1456.77,185.134 1480.31,206.191 1503.84,153.436 1527.37,120.472 1550.91,164.754 1574.44,138.298 1597.97,191.711 1621.51,187.439 1645.04,185.17 1668.57,182.682 1692.11,198.083 1715.64,132.833 1739.17,207.015 1762.71,185.276 1786.24,195.958 1809.78,178.22 1833.31,187.34 1856.84,203.812 1880.38,224.216 1903.91,201.097 1927.44,126.926 1950.98,195.206 1974.51,189.595 1998.04,206.189 2021.58,191.529 2045.11,191.515 2068.64,190.211 2092.18,168.865 2115.71,178.916 2139.24,184.789 2162.78,203.599 2186.31,206.829 2209.85,173.233 2233.38,174.321 2256.91,119.419 2280.45,197.124 2303.98,212.93 2327.51,201.712 2351.05,186.762 2374.58,165.008 2398.11,197.96 2421.65,175.268 2445.18,200.399 2468.71,189.963 2492.25,188.21 2515.78,223.856 2539.31,177.046 2562.85,146.794 2586.38,110.236 2609.92,196.842 2633.45,188.067 2656.98,171.116 2680.52,203.798 2704.05,139.44 2727.58,181.702 2751.12,174.705 2774.65,216.482 2798.18,156.786 2821.72,178.689 2845.25,159.001 2868.78,134.25 2892.32,111.869 2915.85,121.787 2939.38,211.639 2962.92,166.625 2986.45,137.353 3009.99,156.547 "/>
</svg>
