<?xml version="1.0" encoding="utf-8"?>
<svg xmlns="http://www.w3.org/2000/svg" xmlns:xlink="http://www.w3.org/1999/xlink" width="800" height="300" viewBox="0 0 3200 1200">
<defs>
  <clipPath id="clip090">
    <rect x="0" y="0" width="3200" height="1200"/>
  </clipPath>
</defs>
<path clip-path="url(#clip090)" d="
M0 1200 L3200 1200 L3200 0 L0 0  Z
  " fill="#ffffff" fill-rule="evenodd" fill-opacity="1"/>
<defs>
  <clipPath id="clip091">
    <rect x="640" y="0" width="2241" height="1200"/>
  </clipPath>
</defs>
<path clip-path="url(#clip090)" d="
M270.918 1000.1 L3089.76 1000.1 L3089.76 110.236 L270.918 110.236  Z
  " fill="#ffffff" fill-rule="evenodd" fill-opacity="1"/>
<defs>
  <clipPath id="clip092">
    <rect x="270" y="110" width="2820" height="891"/>
  </clipPath>
</defs>
<polyline clip-path="url(#clip092)" style="stroke:#000000; stroke-linecap:round; stroke-linejoin:round; stroke-width:2; stroke-opacity:0.1; fill:none" points="
  339.93,1000.1 339.93,110.236 
  "/>
<polyline clip-path="url(#clip092)" style="stroke:#000000; stroke-linecap:round; stroke-linejoin:round; stroke-width:2; stroke-opacity:0.1; fill:none" points="
  878.248,1000.1 878.248,110.236 
  "/>
<polyline clip-path="url(#clip092)" style="stroke:#000000; stroke-linecap:round; stroke-linejoin:round; stroke-width:2; stroke-opacity:0.1; fill:none" points="
  1416.57,1000.1 1416.57,110.236 
  "/>
<polyline clip-path="url(#clip092)" style="stroke:#000000; stroke-linecap:round; stroke-linejoin:round; stroke-width:2; stroke-opacity:0.1; fill:none" points="
  1954.88,1000.1 1954.88,110.236 
  "/>
<polyline clip-path="url(#clip092)" style="stroke:#000000; stroke-linecap:round; stroke-linejoin:round; stroke-width:2; stroke-opacity:0.1; fill:none" points="
  2493.2,1000.1 2493.2,110.236 
  "/>
<polyline clip-path="url(#clip092)" style="stroke:#000000; stroke-linecap:round; stroke-linejoin:round; stroke-width:2; stroke-opacity:0.1; fill:none" points="
  3031.52,1000.1 3031.52,110.236 
  "/>
<polyline clip-path="url(#clip090)" style="stroke:#000000; stroke-linecap:round; stroke-linejoin:round; stroke-width:4; stroke-opacity:1; fill:none" points="
  270.918,1000.1 3089.76,1000.1 
  "/>
<polyline clip-path="url(#clip090)" style="stroke:#000000; stroke-linecap:round; stroke-linejoin:round; stroke-width:4; stroke-opacity:1; fill:none" points="
  339.93,1000.1 339.93,981.2 
  "/>
<polyline clip-path="url(#clip090)" style="stroke:#000000; stroke-linecap:round; stroke-linejoin:round; stroke-width:4; stroke-opacity:1; fill:none" points="
  878.248,1000.1 878.248,981.2 
  "/>
<polyline clip-path="url(#clip090)" style="stroke:#000000; stroke-linecap:round; stroke-linejoin:round; stroke-width:4; stroke-opacity:1; fill:none" points="
  1416.57,1000.1 1416.57,981.2 
  "/>
<polyline clip-path="url(#clip090)" style="stroke:#000000; stroke-linecap:round; stroke-linejoin:round; stroke-width:4; stroke-opacity:1; fill:none" points="
  1954.88,1000.1 1954.88,981.2 
  "/>
<polyline clip-path="url(#clip090)" style="stroke:#000000; stroke-linecap:round; stroke-linejoin:round; stroke-width:4; stroke-opacity:1; fill:none" points="
  2493.2,1000.1 2493.2,981.2 
  "/>
<polyline clip-path="url(#clip090)" style="stroke:#000000; stroke-linecap:round; stroke-linejoin:round; stroke-width:4; stroke-opacity:1; fill:none" points="
  3031.52,1000.1 3031.52,981.2 
  "/>
<path clip-path="url(#clip090)" d="M339.93 1037.42 Q336.319 1037.42 334.49 1040.98 Q332.685 1044.52 332.685 1051.65 Q332.685 1058.76 334.49 1062.32 Q336.319 1065.87 339.93 1065.87 Q343.564 1065.87 345.37 1062.32 Q347.198 1058.76 347.198 1051.65 Q347.198 1044.52 345.37 1040.98 Q343.564 1037.42 339.93 1037.42 M339.93 1033.71 Q345.74 1033.71 348.796 1038.32 Q351.874 1042.9 351.874 1051.65 Q351.874 1060.38 348.796 1064.99 Q345.74 1069.57 339.93 1069.57 Q334.12 1069.57 331.041 1064.99 Q327.986 1060.38 327.986 1051.65 Q327.986 1042.9 331.041 1038.32 Q334.12 1033.71 339.93 1033.71 Z" fill="#000000" fill-rule="evenodd" fill-opacity="1" /><path clip-path="url(#clip090)" d="M852.947 1034.34 L871.303 1034.34 L871.303 1038.27 L857.229 1038.27 L857.229 1046.75 Q858.248 1046.4 859.266 1046.24 Q860.285 1046.05 861.303 1046.05 Q867.09 1046.05 870.47 1049.22 Q873.849 1052.39 873.849 1057.81 Q873.849 1063.39 870.377 1066.49 Q866.905 1069.57 860.586 1069.57 Q858.41 1069.57 856.141 1069.2 Q853.896 1068.83 851.488 1068.09 L851.488 1063.39 Q853.572 1064.52 855.794 1065.08 Q858.016 1065.63 860.493 1065.63 Q864.498 1065.63 866.836 1063.53 Q869.173 1061.42 869.173 1057.81 Q869.173 1054.2 866.836 1052.09 Q864.498 1049.99 860.493 1049.99 Q858.618 1049.99 856.743 1050.4 Q854.891 1050.82 852.947 1051.7 L852.947 1034.34 Z" fill="#000000" fill-rule="evenodd" fill-opacity="1" /><path clip-path="url(#clip090)" d="M893.062 1037.42 Q889.451 1037.42 887.622 1040.98 Q885.817 1044.52 885.817 1051.65 Q885.817 1058.76 887.622 1062.32 Q889.451 1065.87 893.062 1065.87 Q896.696 1065.87 898.502 1062.32 Q900.331 1058.76 900.331 1051.65 Q900.331 1044.52 898.502 1040.98 Q896.696 1037.42 893.062 1037.42 M893.062 1033.71 Q898.872 1033.71 901.928 1038.32 Q905.007 1042.9 905.007 1051.65 Q905.007 1060.38 901.928 1064.99 Q898.872 1069.57 893.062 1069.57 Q887.252 1069.57 884.173 1064.99 Q881.118 1060.38 881.118 1051.65 Q881.118 1042.9 884.173 1038.32 Q887.252 1033.71 893.062 1033.71 Z" fill="#000000" fill-rule="evenodd" fill-opacity="1" /><path clip-path="url(#clip090)" d="M1376.17 1064.96 L1383.81 1064.96 L1383.81 1038.6 L1375.5 1040.26 L1375.5 1036 L1383.76 1034.34 L1388.44 1034.34 L1388.44 1064.96 L1396.08 1064.96 L1396.08 1068.9 L1376.17 1068.9 L1376.17 1064.96 Z" fill="#000000" fill-rule="evenodd" fill-opacity="1" /><path clip-path="url(#clip090)" d="M1415.52 1037.42 Q1411.91 1037.42 1410.08 1040.98 Q1408.28 1044.52 1408.28 1051.65 Q1408.28 1058.76 1410.08 1062.32 Q1411.91 1065.87 1415.52 1065.87 Q1419.16 1065.87 1420.96 1062.32 Q1422.79 1058.76 1422.79 1051.65 Q1422.79 1044.52 1420.96 1040.98 Q1419.16 1037.42 1415.52 1037.42 M1415.52 1033.71 Q1421.33 1033.71 1424.39 1038.32 Q1427.47 1042.9 1427.47 1051.65 Q1427.47 1060.38 1424.39 1064.99 Q1421.33 1069.57 1415.52 1069.57 Q1409.71 1069.57 1406.63 1064.99 Q1403.58 1060.38 1403.58 1051.65 Q1403.58 1042.9 1406.63 1038.32 Q1409.71 1033.71 1415.52 1033.71 Z" fill="#000000" fill-rule="evenodd" fill-opacity="1" /><path clip-path="url(#clip090)" d="M1445.69 1037.42 Q1442.07 1037.42 1440.25 1040.98 Q1438.44 1044.52 1438.44 1051.65 Q1438.44 1058.76 1440.25 1062.32 Q1442.07 1065.87 1445.69 1065.87 Q1449.32 1065.87 1451.13 1062.32 Q1452.95 1058.76 1452.95 1051.65 Q1452.95 1044.52 1451.13 1040.98 Q1449.32 1037.42 1445.69 1037.42 M1445.69 1033.71 Q1451.5 1033.71 1454.55 1038.32 Q1457.63 1042.9 1457.63 1051.65 Q1457.63 1060.38 1454.55 1064.99 Q1451.5 1069.57 1445.69 1069.57 Q1439.88 1069.57 1436.8 1064.99 Q1433.74 1060.38 1433.74 1051.65 Q1433.74 1042.9 1436.8 1038.32 Q1439.88 1033.71 1445.69 1033.71 Z" fill="#000000" fill-rule="evenodd" fill-opacity="1" /><path clip-path="url(#clip090)" d="M1914.49 1064.96 L1922.13 1064.96 L1922.13 1038.6 L1913.82 1040.26 L1913.82 1036 L1922.08 1034.34 L1926.76 1034.34 L1926.76 1064.96 L1934.4 1064.96 L1934.4 1068.9 L1914.49 1068.9 L1914.49 1064.96 Z" fill="#000000" fill-rule="evenodd" fill-opacity="1" /><path clip-path="url(#clip090)" d="M1943.89 1034.34 L1962.24 1034.34 L1962.24 1038.27 L1948.17 1038.27 L1948.17 1046.75 Q1949.19 1046.4 1950.21 1046.24 Q1951.23 1046.05 1952.24 1046.05 Q1958.03 1046.05 1961.41 1049.22 Q1964.79 1052.39 1964.79 1057.81 Q1964.79 1063.39 1961.32 1066.49 Q1957.85 1069.57 1951.53 1069.57 Q1949.35 1069.57 1947.08 1069.2 Q1944.84 1068.83 1942.43 1068.09 L1942.43 1063.39 Q1944.51 1064.52 1946.73 1065.08 Q1948.96 1065.63 1951.43 1065.63 Q1955.44 1065.63 1957.78 1063.53 Q1960.11 1061.42 1960.11 1057.81 Q1960.11 1054.2 1957.78 1052.09 Q1955.44 1049.99 1951.43 1049.99 Q1949.56 1049.99 1947.68 1050.4 Q1945.83 1050.82 1943.89 1051.7 L1943.89 1034.34 Z" fill="#000000" fill-rule="evenodd" fill-opacity="1" /><path clip-path="url(#clip090)" d="M1984 1037.42 Q1980.39 1037.42 1978.56 1040.98 Q1976.76 1044.52 1976.76 1051.65 Q1976.76 1058.76 1978.56 1062.32 Q1980.39 1065.87 1984 1065.87 Q1987.64 1065.87 1989.44 1062.32 Q1991.27 1058.76 1991.27 1051.65 Q1991.27 1044.52 1989.44 1040.98 Q1987.64 1037.42 1984 1037.42 M1984 1033.71 Q1989.81 1033.71 1992.87 1038.32 Q1995.95 1042.9 1995.95 1051.65 Q1995.95 1060.38 1992.87 1064.99 Q1989.81 1069.57 1984 1069.57 Q1978.19 1069.57 1975.11 1064.99 Q1972.06 1060.38 1972.06 1051.65 Q1972.06 1042.9 1975.11 1038.32 Q1978.19 1033.71 1984 1033.71 Z" fill="#000000" fill-rule="evenodd" fill-opacity="1" /><path clip-path="url(#clip090)" d="M2456.89 1064.96 L2473.21 1064.96 L2473.21 1068.9 L2451.27 1068.9 L2451.27 1064.96 Q2453.93 1062.21 2458.51 1057.58 Q2463.12 1052.93 2464.3 1051.58 Q2466.55 1049.06 2467.42 1047.32 Q2468.33 1045.56 2468.33 1043.87 Q2468.33 1041.12 2466.38 1039.38 Q2464.46 1037.65 2461.36 1037.65 Q2459.16 1037.65 2456.71 1038.41 Q2454.28 1039.18 2451.5 1040.73 L2451.5 1036 Q2454.32 1034.87 2456.78 1034.29 Q2459.23 1033.71 2461.27 1033.71 Q2466.64 1033.71 2469.83 1036.4 Q2473.03 1039.08 2473.03 1043.57 Q2473.03 1045.7 2472.22 1047.62 Q2471.43 1049.52 2469.32 1052.12 Q2468.74 1052.79 2465.64 1056 Q2462.54 1059.2 2456.89 1064.96 Z" fill="#000000" fill-rule="evenodd" fill-opacity="1" /><path clip-path="url(#clip090)" d="M2493.03 1037.42 Q2489.42 1037.42 2487.59 1040.98 Q2485.78 1044.52 2485.78 1051.65 Q2485.78 1058.76 2487.59 1062.32 Q2489.42 1065.87 2493.03 1065.87 Q2496.66 1065.87 2498.47 1062.32 Q2500.3 1058.76 2500.3 1051.65 Q2500.3 1044.52 2498.47 1040.98 Q2496.66 1037.42 2493.03 1037.42 M2493.03 1033.71 Q2498.84 1033.71 2501.89 1038.32 Q2504.97 1042.9 2504.97 1051.65 Q2504.97 1060.38 2501.89 1064.99 Q2498.84 1069.57 2493.03 1069.57 Q2487.22 1069.57 2484.14 1064.99 Q2481.08 1060.38 2481.08 1051.65 Q2481.08 1042.9 2484.14 1038.32 Q2487.22 1033.71 2493.03 1033.71 Z" fill="#000000" fill-rule="evenodd" fill-opacity="1" /><path clip-path="url(#clip090)" d="M2523.19 1037.42 Q2519.58 1037.42 2517.75 1040.98 Q2515.94 1044.52 2515.94 1051.65 Q2515.94 1058.76 2517.75 1062.32 Q2519.58 1065.87 2523.19 1065.87 Q2526.82 1065.87 2528.63 1062.32 Q2530.46 1058.76 2530.46 1051.65 Q2530.46 1044.52 2528.63 1040.98 Q2526.82 1037.42 2523.19 1037.42 M2523.19 1033.71 Q2529 1033.71 2532.05 1038.32 Q2535.13 1042.9 2535.13 1051.65 Q2535.13 1060.38 2532.05 1064.99 Q2529 1069.57 2523.19 1069.57 Q2517.38 1069.57 2514.3 1064.99 Q2511.24 1060.38 2511.24 1051.65 Q2511.24 1042.9 2514.3 1038.32 Q2517.38 1033.71 2523.19 1033.71 Z" fill="#000000" fill-rule="evenodd" fill-opacity="1" /><path clip-path="url(#clip090)" d="M2995.21 1064.96 L3011.53 1064.96 L3011.53 1068.9 L2989.59 1068.9 L2989.59 1064.96 Q2992.25 1062.21 2996.83 1057.58 Q3001.44 1052.93 3002.62 1051.58 Q3004.86 1049.06 3005.74 1047.32 Q3006.65 1045.56 3006.65 1043.87 Q3006.65 1041.12 3004.7 1039.38 Q3002.78 1037.65 2999.68 1037.65 Q2997.48 1037.65 2995.02 1038.41 Q2992.59 1039.18 2989.82 1040.73 L2989.82 1036 Q2992.64 1034.87 2995.09 1034.29 Q2997.55 1033.71 2999.59 1033.71 Q3004.96 1033.71 3008.15 1036.4 Q3011.34 1039.08 3011.34 1043.57 Q3011.34 1045.7 3010.53 1047.62 Q3009.75 1049.52 3007.64 1052.12 Q3007.06 1052.79 3003.96 1056 Q3000.86 1059.2 2995.21 1064.96 Z" fill="#000000" fill-rule="evenodd" fill-opacity="1" /><path clip-path="url(#clip090)" d="M3021.39 1034.34 L3039.75 1034.34 L3039.75 1038.27 L3025.67 1038.27 L3025.67 1046.75 Q3026.69 1046.4 3027.71 1046.24 Q3028.73 1046.05 3029.75 1046.05 Q3035.53 1046.05 3038.91 1049.22 Q3042.29 1052.39 3042.29 1057.81 Q3042.29 1063.39 3038.82 1066.49 Q3035.35 1069.57 3029.03 1069.57 Q3026.85 1069.57 3024.58 1069.2 Q3022.34 1068.83 3019.93 1068.09 L3019.93 1063.39 Q3022.02 1064.52 3024.24 1065.08 Q3026.46 1065.63 3028.94 1065.63 Q3032.94 1065.63 3035.28 1063.53 Q3037.62 1061.42 3037.62 1057.81 Q3037.62 1054.2 3035.28 1052.09 Q3032.94 1049.99 3028.94 1049.99 Q3027.06 1049.99 3025.19 1050.4 Q3023.33 1050.82 3021.39 1051.7 L3021.39 1034.34 Z" fill="#000000" fill-rule="evenodd" fill-opacity="1" /><path clip-path="url(#clip090)" d="M3061.51 1037.42 Q3057.89 1037.42 3056.07 1040.98 Q3054.26 1044.52 3054.26 1051.65 Q3054.26 1058.76 3056.07 1062.32 Q3057.89 1065.87 3061.51 1065.87 Q3065.14 1065.87 3066.95 1062.32 Q3068.77 1058.76 3068.77 1051.65 Q3068.77 1044.52 3066.95 1040.98 Q3065.14 1037.42 3061.51 1037.42 M3061.51 1033.71 Q3067.32 1033.71 3070.37 1038.32 Q3073.45 1042.9 3073.45 1051.65 Q3073.45 1060.38 3070.37 1064.99 Q3067.32 1069.57 3061.51 1069.57 Q3055.7 1069.57 3052.62 1064.99 Q3049.56 1060.38 3049.56 1051.65 Q3049.56 1042.9 3052.62 1038.32 Q3055.7 1033.71 3061.51 1033.71 Z" fill="#000000" fill-rule="evenodd" fill-opacity="1" /><path clip-path="url(#clip090)" d="M1556.64 1109.44 L1563.07 1109.44 L1563.07 1151.55 L1586.21 1151.55 L1586.21 1156.96 L1556.64 1156.96 L1556.64 1109.44 Z" fill="#000000" fill-rule="evenodd" fill-opacity="1" /><path clip-path="url(#clip090)" d="M1592.7 1121.31 L1598.56 1121.31 L1598.56 1156.96 L1592.7 1156.96 L1592.7 1121.31 M1592.7 1107.44 L1598.56 1107.44 L1598.56 1114.85 L1592.7 1114.85 L1592.7 1107.44 Z" fill="#000000" fill-rule="evenodd" fill-opacity="1" /><path clip-path="url(#clip090)" d="M1640.44 1135.45 L1640.44 1156.96 L1634.59 1156.96 L1634.59 1135.64 Q1634.59 1130.58 1632.61 1128.06 Q1630.64 1125.55 1626.69 1125.55 Q1621.95 1125.55 1619.21 1128.57 Q1616.48 1131.59 1616.48 1136.81 L1616.48 1156.96 L1610.59 1156.96 L1610.59 1121.31 L1616.48 1121.31 L1616.48 1126.85 Q1618.58 1123.64 1621.41 1122.05 Q1624.27 1120.45 1628 1120.45 Q1634.14 1120.45 1637.29 1124.27 Q1640.44 1128.06 1640.44 1135.45 Z" fill="#000000" fill-rule="evenodd" fill-opacity="1" /><path clip-path="url(#clip090)" d="M1682.62 1137.67 L1682.62 1140.54 L1655.69 1140.54 Q1656.07 1146.59 1659.32 1149.77 Q1662.6 1152.92 1668.42 1152.92 Q1671.79 1152.92 1674.95 1152.09 Q1678.13 1151.26 1681.25 1149.61 L1681.25 1155.15 Q1678.1 1156.48 1674.79 1157.18 Q1671.48 1157.88 1668.07 1157.88 Q1659.54 1157.88 1654.54 1152.92 Q1649.58 1147.95 1649.58 1139.49 Q1649.58 1130.74 1654.29 1125.61 Q1659.03 1120.45 1667.05 1120.45 Q1674.25 1120.45 1678.42 1125.1 Q1682.62 1129.72 1682.62 1137.67 M1676.76 1135.95 Q1676.7 1131.15 1674.05 1128.28 Q1671.44 1125.42 1667.12 1125.42 Q1662.21 1125.42 1659.25 1128.19 Q1656.33 1130.96 1655.88 1135.99 L1676.76 1135.95 Z" fill="#000000" fill-rule="evenodd" fill-opacity="1" /><path clip-path="url(#clip090)" d="M1708.43 1139.04 Q1701.33 1139.04 1698.59 1140.67 Q1695.86 1142.29 1695.86 1146.2 Q1695.86 1149.32 1697.89 1151.17 Q1699.96 1152.98 1703.5 1152.98 Q1708.37 1152.98 1711.29 1149.55 Q1714.25 1146.08 1714.25 1140.35 L1714.25 1139.04 L1708.43 1139.04 M1720.11 1136.62 L1720.11 1156.96 L1714.25 1156.96 L1714.25 1151.55 Q1712.25 1154.8 1709.26 1156.36 Q1706.27 1157.88 1701.94 1157.88 Q1696.46 1157.88 1693.22 1154.83 Q1690 1151.74 1690 1146.59 Q1690 1140.57 1694.01 1137.51 Q1698.05 1134.46 1706.04 1134.46 L1714.25 1134.46 L1714.25 1133.89 Q1714.25 1129.84 1711.58 1127.65 Q1708.94 1125.42 1704.13 1125.42 Q1701.08 1125.42 1698.18 1126.15 Q1695.28 1126.88 1692.61 1128.35 L1692.61 1122.94 Q1695.83 1121.7 1698.85 1121.09 Q1701.87 1120.45 1704.74 1120.45 Q1712.47 1120.45 1716.29 1124.46 Q1720.11 1128.48 1720.11 1136.62 Z" fill="#000000" fill-rule="evenodd" fill-opacity="1" /><path clip-path="url(#clip090)" d="M1755.63 1138.72 Q1755.63 1132.36 1752.99 1128.86 Q1750.38 1125.36 1745.64 1125.36 Q1740.93 1125.36 1738.28 1128.86 Q1735.67 1132.36 1735.67 1138.72 Q1735.67 1145.06 1738.28 1148.56 Q1740.93 1152.06 1745.64 1152.06 Q1750.38 1152.06 1752.99 1148.56 Q1755.63 1145.06 1755.63 1138.72 M1761.49 1152.54 Q1761.49 1161.64 1757.45 1166.06 Q1753.4 1170.52 1745.06 1170.52 Q1741.98 1170.52 1739.24 1170.04 Q1736.5 1169.6 1733.92 1168.64 L1733.92 1162.95 Q1736.5 1164.35 1739.02 1165.01 Q1741.53 1165.68 1744.14 1165.68 Q1749.9 1165.68 1752.77 1162.66 Q1755.63 1159.67 1755.63 1153.59 L1755.63 1150.69 Q1753.82 1153.84 1750.98 1155.4 Q1748.15 1156.96 1744.2 1156.96 Q1737.65 1156.96 1733.64 1151.96 Q1729.63 1146.97 1729.63 1138.72 Q1729.63 1130.45 1733.64 1125.45 Q1737.65 1120.45 1744.2 1120.45 Q1748.15 1120.45 1750.98 1122.01 Q1753.82 1123.57 1755.63 1126.72 L1755.63 1121.31 L1761.49 1121.31 L1761.49 1152.54 Z" fill="#000000" fill-rule="evenodd" fill-opacity="1" /><path clip-path="url(#clip090)" d="M1804.04 1137.67 L1804.04 1140.54 L1777.12 1140.54 Q1777.5 1146.59 1780.74 1149.77 Q1784.02 1152.92 1789.85 1152.92 Q1793.22 1152.92 1796.37 1152.09 Q1799.55 1151.26 1802.67 1149.61 L1802.67 1155.15 Q1799.52 1156.48 1796.21 1157.18 Q1792.9 1157.88 1789.5 1157.88 Q1780.97 1157.88 1775.97 1152.92 Q1771 1147.95 1771 1139.49 Q1771 1130.74 1775.71 1125.61 Q1780.46 1120.45 1788.48 1120.45 Q1795.67 1120.45 1799.84 1125.1 Q1804.04 1129.72 1804.04 1137.67 M1798.19 1135.95 Q1798.12 1131.15 1795.48 1128.28 Q1792.87 1125.42 1788.54 1125.42 Q1783.64 1125.42 1780.68 1128.19 Q1777.75 1130.96 1777.31 1135.99 L1798.19 1135.95 Z" fill="#000000" fill-rule="evenodd" fill-opacity="1" /><polyline clip-path="url(#clip092)" style="stroke:#000000; stroke-linecap:round; stroke-linejoin:round; stroke-width:2; stroke-opacity:0.1; fill:none" points="
  270.918,1000.1 3089.76,1000.1 
  "/>
<polyline clip-path="url(#clip092)" style="stroke:#000000; stroke-linecap:round; stroke-linejoin:round; stroke-width:2; stroke-opacity:0.1; fill:none" points="
  270.918,661.537 3089.76,661.537 
  "/>
<polyline clip-path="url(#clip092)" style="stroke:#000000; stroke-linecap:round; stroke-linejoin:round; stroke-width:2; stroke-opacity:0.1; fill:none" points="
  270.918,322.977 3089.76,322.977 
  "/>
<polyline clip-path="url(#clip090)" style="stroke:#000000; stroke-linecap:round; stroke-linejoin:round; stroke-width:4; stroke-opacity:1; fill:none" points="
  270.918,1000.1 270.918,110.236 
  "/>
<polyline clip-path="url(#clip090)" style="stroke:#000000; stroke-linecap:round; stroke-linejoin:round; stroke-width:4; stroke-opacity:1; fill:none" points="
  270.918,1000.1 289.815,1000.1 
  "/>
<polyline clip-path="url(#clip090)" style="stroke:#000000; stroke-linecap:round; stroke-linejoin:round; stroke-width:4; stroke-opacity:1; fill:none" points="
  270.918,661.537 289.815,661.537 
  "/>
<polyline clip-path="url(#clip090)" style="stroke:#000000; stroke-linecap:round; stroke-linejoin:round; stroke-width:4; stroke-opacity:1; fill:none" points="
  270.918,322.977 289.815,322.977 
  "/>
<path clip-path="url(#clip090)" d="M154.902 1019.89 L162.54 1019.89 L162.54 993.525 L154.23 995.191 L154.23 990.932 L162.494 989.265 L167.17 989.265 L167.17 1019.89 L174.809 1019.89 L174.809 1023.83 L154.902 1023.83 L154.902 1019.89 Z" fill="#000000" fill-rule="evenodd" fill-opacity="1" /><path clip-path="url(#clip090)" d="M194.253 992.344 Q190.642 992.344 188.813 995.909 Q187.008 999.45 187.008 1006.58 Q187.008 1013.69 188.813 1017.25 Q190.642 1020.79 194.253 1020.79 Q197.887 1020.79 199.693 1017.25 Q201.522 1013.69 201.522 1006.58 Q201.522 999.45 199.693 995.909 Q197.887 992.344 194.253 992.344 M194.253 988.64 Q200.063 988.64 203.119 993.247 Q206.198 997.83 206.198 1006.58 Q206.198 1015.31 203.119 1019.91 Q200.063 1024.5 194.253 1024.5 Q188.443 1024.5 185.364 1019.91 Q182.309 1015.31 182.309 1006.58 Q182.309 997.83 185.364 993.247 Q188.443 988.64 194.253 988.64 Z" fill="#000000" fill-rule="evenodd" fill-opacity="1" /><path clip-path="url(#clip090)" d="M206.743 993.218 L212.95 993.218 L212.95 971.796 L206.198 973.15 L206.198 969.689 L212.912 968.335 L216.711 968.335 L216.711 993.218 L222.918 993.218 L222.918 996.415 L206.743 996.415 L206.743 993.218 Z" fill="#000000" fill-rule="evenodd" fill-opacity="1" /><path clip-path="url(#clip090)" d="M153.792 681.33 L161.431 681.33 L161.431 654.964 L153.121 656.631 L153.121 652.371 L161.384 650.705 L166.06 650.705 L166.06 681.33 L173.699 681.33 L173.699 685.265 L153.792 685.265 L153.792 681.33 Z" fill="#000000" fill-rule="evenodd" fill-opacity="1" /><path clip-path="url(#clip090)" d="M193.143 653.783 Q189.532 653.783 187.704 657.348 Q185.898 660.89 185.898 668.02 Q185.898 675.126 187.704 678.691 Q189.532 682.232 193.143 682.232 Q196.778 682.232 198.583 678.691 Q200.412 675.126 200.412 668.02 Q200.412 660.89 198.583 657.348 Q196.778 653.783 193.143 653.783 M193.143 650.08 Q198.954 650.08 202.009 654.686 Q205.088 659.27 205.088 668.02 Q205.088 676.746 202.009 681.353 Q198.954 685.936 193.143 685.936 Q187.333 685.936 184.255 681.353 Q181.199 676.746 181.199 668.02 Q181.199 659.27 184.255 654.686 Q187.333 650.08 193.143 650.08 Z" fill="#000000" fill-rule="evenodd" fill-opacity="1" /><path clip-path="url(#clip090)" d="M209.658 654.657 L222.918 654.657 L222.918 657.854 L205.088 657.854 L205.088 654.657 Q207.251 652.419 210.975 648.657 Q214.717 644.877 215.677 643.786 Q217.501 641.736 218.216 640.326 Q218.949 638.896 218.949 637.523 Q218.949 635.285 217.369 633.874 Q215.808 632.464 213.288 632.464 Q211.501 632.464 209.508 633.085 Q207.533 633.705 205.276 634.965 L205.276 631.129 Q207.57 630.207 209.564 629.737 Q211.558 629.267 213.213 629.267 Q217.576 629.267 220.172 631.448 Q222.767 633.63 222.767 637.279 Q222.767 639.009 222.109 640.57 Q221.469 642.112 219.758 644.219 Q219.288 644.764 216.767 647.378 Q214.247 649.974 209.658 654.657 Z" fill="#000000" fill-rule="evenodd" fill-opacity="1" /><path clip-path="url(#clip090)" d="M153.134 342.769 L160.772 342.769 L160.772 316.403 L152.462 318.07 L152.462 313.811 L160.726 312.144 L165.402 312.144 L165.402 342.769 L173.041 342.769 L173.041 346.704 L153.134 346.704 L153.134 342.769 Z" fill="#000000" fill-rule="evenodd" fill-opacity="1" /><path clip-path="url(#clip090)" d="M192.485 315.223 Q188.874 315.223 187.045 318.788 Q185.24 322.329 185.24 329.459 Q185.24 336.565 187.045 340.13 Q188.874 343.672 192.485 343.672 Q196.119 343.672 197.925 340.13 Q199.754 336.565 199.754 329.459 Q199.754 322.329 197.925 318.788 Q196.119 315.223 192.485 315.223 M192.485 311.519 Q198.295 311.519 201.351 316.126 Q204.43 320.709 204.43 329.459 Q204.43 338.186 201.351 342.792 Q198.295 347.376 192.485 347.376 Q186.675 347.376 183.596 342.792 Q180.541 338.186 180.541 329.459 Q180.541 320.709 183.596 316.126 Q186.675 311.519 192.485 311.519 Z" fill="#000000" fill-rule="evenodd" fill-opacity="1" /><path clip-path="url(#clip090)" d="M217.125 304.154 Q219.852 304.737 221.375 306.58 Q222.918 308.423 222.918 311.131 Q222.918 315.288 220.059 317.564 Q217.2 319.839 211.934 319.839 Q210.166 319.839 208.285 319.482 Q206.423 319.143 204.43 318.448 L204.43 314.78 Q206.009 315.702 207.89 316.172 Q209.771 316.642 211.821 316.642 Q215.395 316.642 217.256 315.231 Q219.137 313.821 219.137 311.131 Q219.137 308.649 217.388 307.257 Q215.658 305.846 212.555 305.846 L209.282 305.846 L209.282 302.724 L212.705 302.724 Q215.507 302.724 216.993 301.615 Q218.479 300.486 218.479 298.38 Q218.479 296.217 216.937 295.069 Q215.413 293.903 212.555 293.903 Q210.994 293.903 209.207 294.242 Q207.42 294.58 205.276 295.295 L205.276 291.91 Q207.439 291.308 209.32 291.007 Q211.219 290.706 212.893 290.706 Q217.219 290.706 219.739 292.681 Q222.259 294.637 222.259 297.985 Q222.259 300.317 220.924 301.934 Q219.589 303.533 217.125 304.154 Z" fill="#000000" fill-rule="evenodd" fill-opacity="1" /><path clip-path="url(#clip090)" d="M42.6863 890.656 L42.6863 860.609 L48.0971 860.609 L48.0971 884.226 L62.1653 884.226 L62.1653 861.596 L67.5762 861.596 L67.5762 884.226 L84.7954 884.226 L84.7954 860.037 L90.2063 860.037 L90.2063 890.656 L42.6863 890.656 Z" fill="#000000" fill-rule="evenodd" fill-opacity="1" /><path clip-path="url(#clip090)" d="M44.2459 820.983 L50.5161 820.983 Q48.7655 824.643 47.9062 827.89 Q47.0468 831.136 47.0468 834.16 Q47.0468 839.412 49.0838 842.276 Q51.1208 845.109 54.8766 845.109 Q58.0276 845.109 59.6509 843.231 Q61.2423 841.321 62.229 836.038 L63.0247 832.155 Q64.3933 824.962 67.8627 821.556 Q71.3001 818.118 77.0929 818.118 Q83.9997 818.118 87.5645 822.765 Q91.1293 827.38 91.1293 836.324 Q91.1293 839.698 90.3654 843.518 Q89.6015 847.305 88.1056 851.379 L81.4853 851.379 Q83.6814 847.464 84.7954 843.709 Q85.9094 839.953 85.9094 836.324 Q85.9094 830.818 83.7451 827.826 Q81.5808 824.834 77.5704 824.834 Q74.0692 824.834 72.0958 826.999 Q70.1225 829.131 69.1358 834.033 L68.3719 837.948 Q66.9396 845.141 63.8841 848.356 Q60.8285 851.57 55.3859 851.57 Q49.0838 851.57 45.4554 847.146 Q41.8269 842.69 41.8269 834.892 Q41.8269 831.55 42.4317 828.081 Q43.0364 824.611 44.2459 820.983 Z" fill="#000000" fill-rule="evenodd" fill-opacity="1" /><path clip-path="url(#clip090)" d="M44.2459 779.606 L50.5161 779.606 Q48.7655 783.266 47.9062 786.513 Q47.0468 789.759 47.0468 792.783 Q47.0468 798.035 49.0838 800.899 Q51.1208 803.732 54.8766 803.732 Q58.0276 803.732 59.6509 801.854 Q61.2423 799.944 62.229 794.661 L63.0247 790.778 Q64.3933 783.584 67.8627 780.179 Q71.3001 776.741 77.0929 776.741 Q83.9997 776.741 87.5645 781.388 Q91.1293 786.003 91.1293 794.947 Q91.1293 798.321 90.3654 802.14 Q89.6015 805.928 88.1056 810.002 L81.4853 810.002 Q83.6814 806.087 84.7954 802.331 Q85.9094 798.576 85.9094 794.947 Q85.9094 789.441 83.7451 786.449 Q81.5808 783.457 77.5704 783.457 Q74.0692 783.457 72.0958 785.621 Q70.1225 787.754 69.1358 792.656 L68.3719 796.57 Q66.9396 803.764 63.8841 806.978 Q60.8285 810.193 55.3859 810.193 Q49.0838 810.193 45.4554 805.769 Q41.8269 801.313 41.8269 793.515 Q41.8269 790.173 42.4317 786.704 Q43.0364 783.234 44.2459 779.606 Z" fill="#000000" fill-rule="evenodd" fill-opacity="1" /><path clip-path="url(#clip090)" d="M82.1218 765.474 L82.1218 758.758 L90.2063 758.758 L90.2063 765.474 L82.1218 765.474 M56.4999 765.474 L56.4999 758.758 L64.5843 758.758 L64.5843 765.474 L56.4999 765.474 Z" fill="#000000" fill-rule="evenodd" fill-opacity="1" /><path clip-path="url(#clip090)" d="M42.6863 724.033 L42.6863 693.987 L48.0971 693.987 L48.0971 717.604 L62.1653 717.604 L62.1653 694.974 L67.5762 694.974 L67.5762 717.604 L84.7954 717.604 L84.7954 693.414 L90.2063 693.414 L90.2063 724.033 L42.6863 724.033 Z" fill="#000000" fill-rule="evenodd" fill-opacity="1" /><path clip-path="url(#clip090)" d="M68.6902 653.469 L90.2063 653.469 L90.2063 659.326 L68.8812 659.326 Q63.8204 659.326 61.306 661.299 Q58.7915 663.273 58.7915 667.219 Q58.7915 671.962 61.8152 674.699 Q64.8389 677.436 70.0588 677.436 L90.2063 677.436 L90.2063 683.325 L54.5583 683.325 L54.5583 677.436 L60.0965 677.436 Q56.8818 675.336 55.2904 672.503 Q53.699 669.638 53.699 665.914 Q53.699 659.771 57.5184 656.62 Q61.306 653.469 68.6902 653.469 Z" fill="#000000" fill-rule="evenodd" fill-opacity="1" /><path clip-path="url(#clip090)" d="M71.9685 618.331 Q65.6028 618.331 62.1017 620.972 Q58.6006 623.582 58.6006 628.325 Q58.6006 633.035 62.1017 635.677 Q65.6028 638.287 71.9685 638.287 Q78.3024 638.287 81.8036 635.677 Q85.3047 633.035 85.3047 628.325 Q85.3047 623.582 81.8036 620.972 Q78.3024 618.331 71.9685 618.331 M85.7821 612.474 Q94.8851 612.474 99.3092 616.516 Q103.765 620.559 103.765 628.898 Q103.765 631.985 103.288 634.722 Q102.842 637.46 101.887 640.038 L96.19 640.038 Q97.5905 637.46 98.2589 634.945 Q98.9273 632.431 98.9273 629.821 Q98.9273 624.06 95.9036 621.195 Q92.9117 618.331 86.8325 618.331 L83.9361 618.331 Q87.0871 620.145 88.6467 622.978 Q90.2063 625.81 90.2063 629.757 Q90.2063 636.314 85.2092 640.324 Q80.2121 644.335 71.9685 644.335 Q63.6931 644.335 58.696 640.324 Q53.699 636.314 53.699 629.757 Q53.699 625.81 55.2586 622.978 Q56.8182 620.145 59.9692 618.331 L54.5583 618.331 L54.5583 612.474 L85.7821 612.474 Z" fill="#000000" fill-rule="evenodd" fill-opacity="1" /><path clip-path="url(#clip090)" d="M40.6811 600.411 L40.6811 594.555 L90.2063 594.555 L90.2063 600.411 L40.6811 600.411 Z" fill="#000000" fill-rule="evenodd" fill-opacity="1" /><path clip-path="url(#clip090)" d="M72.2868 566.1 Q72.2868 573.198 73.9101 575.935 Q75.5333 578.672 79.4482 578.672 Q82.5674 578.672 84.4135 576.635 Q86.2277 574.566 86.2277 571.033 Q86.2277 566.164 82.7902 563.236 Q79.3209 560.275 73.5918 560.275 L72.2868 560.275 L72.2868 566.1 M69.8679 554.419 L90.2063 554.419 L90.2063 560.275 L84.7954 560.275 Q88.0419 562.281 89.6015 565.273 Q91.1293 568.264 91.1293 572.593 Q91.1293 578.068 88.0738 581.314 Q84.9864 584.529 79.8302 584.529 Q73.8146 584.529 70.759 580.518 Q67.7035 576.476 67.7035 568.487 L67.7035 560.275 L67.1306 560.275 Q63.0884 560.275 60.8922 562.949 Q58.6642 565.591 58.6642 570.397 Q58.6642 573.452 59.3963 576.349 Q60.1283 579.245 61.5924 581.919 L56.1816 581.919 Q54.9403 578.704 54.3355 575.68 Q53.699 572.657 53.699 569.792 Q53.699 562.058 57.7094 558.238 Q61.7197 554.419 69.8679 554.419 Z" fill="#000000" fill-rule="evenodd" fill-opacity="1" /><path clip-path="url(#clip090)" d="M68.6902 512.724 L90.2063 512.724 L90.2063 518.58 L68.8812 518.58 Q63.8204 518.58 61.306 520.553 Q58.7915 522.527 58.7915 526.474 Q58.7915 531.216 61.8152 533.953 Q64.8389 536.691 70.0588 536.691 L90.2063 536.691 L90.2063 542.579 L54.5583 542.579 L54.5583 536.691 L60.0965 536.691 Q56.8818 534.59 55.2904 531.757 Q53.699 528.893 53.699 525.169 Q53.699 519.026 57.5184 515.875 Q61.306 512.724 68.6902 512.724 Z" fill="#000000" fill-rule="evenodd" fill-opacity="1" /><path clip-path="url(#clip090)" d="M59.9692 477.585 L40.6811 477.585 L40.6811 471.728 L90.2063 471.728 L90.2063 477.585 L84.8591 477.585 Q88.0419 479.431 89.6015 482.264 Q91.1293 485.065 91.1293 489.011 Q91.1293 495.473 85.9731 499.547 Q80.8169 503.589 72.4141 503.589 Q64.0114 503.589 58.8552 499.547 Q53.699 495.473 53.699 489.011 Q53.699 485.065 55.2586 482.264 Q56.7863 479.431 59.9692 477.585 M72.4141 497.541 Q78.8753 497.541 82.5674 494.9 Q86.2277 492.226 86.2277 487.579 Q86.2277 482.932 82.5674 480.259 Q78.8753 477.585 72.4141 477.585 Q65.9529 477.585 62.2927 480.259 Q58.6006 482.932 58.6006 487.579 Q58.6006 492.226 62.2927 494.9 Q65.9529 497.541 72.4141 497.541 Z" fill="#000000" fill-rule="evenodd" fill-opacity="1" /><path clip-path="url(#clip090)" d="M82.1218 458.17 L82.1218 451.454 L87.5963 451.454 L97.7815 456.674 L97.7815 460.779 L87.5963 458.17 L82.1218 458.17 Z" fill="#000000" fill-rule="evenodd" fill-opacity="1" /><path clip-path="url(#clip090)" d="M44.4369 412.432 L54.5583 412.432 L54.5583 400.369 L59.1098 400.369 L59.1098 412.432 L78.4616 412.432 Q82.8221 412.432 84.0634 411.254 Q85.3047 410.045 85.3047 406.384 L85.3047 400.369 L90.2063 400.369 L90.2063 406.384 Q90.2063 413.164 87.6918 415.742 Q85.1455 418.32 78.4616 418.32 L59.1098 418.32 L59.1098 422.617 L54.5583 422.617 L54.5583 418.32 L44.4369 418.32 L44.4369 412.432 Z" fill="#000000" fill-rule="evenodd" fill-opacity="1" /><path clip-path="url(#clip090)" d="M54.5583 392.666 L54.5583 386.81 L90.2063 386.81 L90.2063 392.666 L54.5583 392.666 M40.6811 392.666 L40.6811 386.81 L48.0971 386.81 L48.0971 392.666 L40.6811 392.666 Z" fill="#000000" fill-rule="evenodd" fill-opacity="1" /><path clip-path="url(#clip090)" d="M61.4015 346.801 Q57.4547 344.605 55.5768 341.55 Q53.699 338.494 53.699 334.357 Q53.699 328.787 57.6139 325.763 Q61.4969 322.739 68.6902 322.739 L90.2063 322.739 L90.2063 328.627 L68.8812 328.627 Q63.7568 328.627 61.2741 330.442 Q58.7915 332.256 58.7915 335.98 Q58.7915 340.531 61.8152 343.173 Q64.8389 345.815 70.0588 345.815 L90.2063 345.815 L90.2063 351.703 L68.8812 351.703 Q63.7249 351.703 61.2741 353.517 Q58.7915 355.332 58.7915 359.119 Q58.7915 363.607 61.8471 366.249 Q64.8708 368.89 70.0588 368.89 L90.2063 368.89 L90.2063 374.779 L54.5583 374.779 L54.5583 368.89 L60.0965 368.89 Q56.8182 366.885 55.2586 364.084 Q53.699 361.283 53.699 357.432 Q53.699 353.549 55.6723 350.844 Q57.6457 348.106 61.4015 346.801 Z" fill="#000000" fill-rule="evenodd" fill-opacity="1" /><path clip-path="url(#clip090)" d="M70.9182 280.566 L73.7828 280.566 L73.7828 307.493 Q79.8302 307.111 83.013 303.865 Q86.1641 300.586 86.1641 294.762 Q86.1641 291.388 85.3365 288.237 Q84.509 285.054 82.8539 281.935 L88.3921 281.935 Q89.7289 285.086 90.4291 288.396 Q91.1293 291.706 91.1293 295.112 Q91.1293 303.642 86.1641 308.639 Q81.1988 313.604 72.7324 313.604 Q63.9796 313.604 58.8552 308.894 Q53.699 304.151 53.699 296.13 Q53.699 288.937 58.3459 284.768 Q62.9611 280.566 70.9182 280.566 M69.1995 286.423 Q64.3933 286.486 61.5288 289.128 Q58.6642 291.738 58.6642 296.067 Q58.6642 300.968 61.4333 303.928 Q64.2024 306.857 69.2313 307.302 L69.1995 286.423 Z" fill="#000000" fill-rule="evenodd" fill-opacity="1" /><path clip-path="url(#clip090)" d="M82.1218 269.458 L82.1218 262.742 L90.2063 262.742 L90.2063 269.458 L82.1218 269.458 M56.4999 269.458 L56.4999 262.742 L64.5843 262.742 L64.5843 269.458 L56.4999 269.458 Z" fill="#000000" fill-rule="evenodd" fill-opacity="1" /><path clip-path="url(#clip090)" d="M84.7954 247.051 L84.7954 236.547 L48.5427 236.547 L50.8344 247.974 L44.9779 247.974 L42.6863 236.611 L42.6863 230.182 L84.7954 230.182 L84.7954 219.678 L90.2063 219.678 L90.2063 247.051 L84.7954 247.051 Z" fill="#000000" fill-rule="evenodd" fill-opacity="1" /><polyline clip-path="url(#clip092)" style="stroke:#009af9; stroke-linecap:round; stroke-linejoin:round; stroke-width:4; stroke-opacity:1; fill:none" points="
  350.696,292.246 361.463,177.986 372.229,216.058 382.995,173.098 393.762,170.837 404.528,158.757 415.294,158.405 426.061,214.715 436.827,201.603 447.593,185.542 
  458.36,149.334 469.126,235.909 479.893,228.749 490.659,156.129 501.425,173.5 512.192,247.392 522.958,175.714 533.724,170.007 544.491,156.843 555.257,149.556 
  566.023,155.516 576.79,176.633 587.556,206.048 598.322,228.149 609.089,168.823 619.855,115.446 630.621,125.996 641.388,122.106 652.154,110.236 662.92,166.78 
  673.687,161.458 684.453,146.674 695.22,179.447 705.986,181.929 716.752,185.437 727.519,145.804 738.285,184.521 749.051,208.033 759.818,187.704 770.584,172.822 
  781.35,150.738 792.117,161.197 802.883,173.262 813.649,156.043 824.416,177.943 835.182,160.644 845.948,143.223 856.715,151.725 867.481,187.739 878.248,194.354 
  889.014,191.57 899.78,195.507 910.547,178.911 921.313,179.691 932.079,219.701 942.846,191.652 953.612,187.103 964.378,183.834 975.145,160.496 985.911,161.401 
  996.677,184.893 1007.44,164.226 1018.21,172.309 1028.98,138.392 1039.74,131.932 1050.51,151.858 1061.28,181.63 1072.04,174.066 1082.81,127.809 1093.57,192.071 
  1104.34,186.326 1115.11,170.437 1125.87,204.039 1136.64,171.986 1147.41,136.367 1158.17,200.925 1168.94,125.378 1179.71,175.966 1190.47,174.067 1201.24,170.914 
  1212,138.012 1222.77,130.353 1233.54,175.234 1244.3,187.652 1255.07,147.502 1265.84,188.632 1276.6,199.556 1287.37,136.018 1298.14,188.174 1308.9,161.24 
  1319.67,152.359 1330.43,170.358 1341.2,170.749 1351.97,190.702 1362.73,177.4 1373.5,149.162 1384.27,147.934 1395.03,200.563 1405.8,142.609 1416.57,143.216 
  1427.33,169.831 1438.1,135.213 1448.86,172.336 1459.63,178.888 1470.4,205.013 1481.16,156.57 1491.93,173.55 1502.7,176.99 1513.46,192.34 1524.23,170.81 
  1534.99,167.817 1545.76,159.411 1556.53,163.105 1567.29,178.725 1578.06,129.538 1588.83,131.257 1599.59,163.901 1610.36,172.102 1621.13,167.343 1631.89,158.722 
  1642.66,159.612 1653.42,178.527 1664.19,168.509 1674.96,191.471 1685.72,146.64 1696.49,161.225 1707.26,139.293 1718.02,162.622 1728.79,140.926 1739.56,158.507 
  1750.32,149.69 1761.09,149.374 1771.85,155.214 1782.62,160.474 1793.39,173.733 1804.15,203.061 1814.92,171.339 1825.69,161.082 1836.45,136.26 1847.22,203.106 
  1857.99,177.091 1868.75,146.216 1879.52,188.634 1890.28,186.121 1901.05,190.874 1911.82,139.82 1922.58,169.21 1933.35,175.397 1944.12,175.439 1954.88,176.062 
  1965.65,163.016 1976.42,173.838 1987.18,190.076 1997.95,203.661 2008.71,175.606 2019.48,137.414 2030.25,149.546 2041.01,119.569 2051.78,177.752 2062.55,145.118 
  2073.31,133.025 2084.08,217.105 2094.85,149.944 2105.61,138.964 2116.38,170.811 2127.14,168.489 2137.91,188.193 2148.68,175.886 2159.44,174.997 2170.21,149.679 
  2180.98,190.357 2191.74,149.213 2202.51,155.382 2213.28,181.59 2224.04,155.463 2234.81,168.72 2245.57,148.084 2256.34,159.932 2267.11,177.768 2277.87,185.715 
  2288.64,196.404 2299.41,198.294 2310.17,236.576 2320.94,136.029 2331.7,162.453 2342.47,133.071 2353.24,166.367 2364,222.347 2374.77,145.467 2385.54,157.305 
  2396.3,167.594 2407.07,157.326 2417.84,168.041 2428.6,179.363 2439.37,144.03 2450.13,146.836 2460.9,157.172 2471.67,174.498 2482.43,156.844 2493.2,201.014 
  2503.97,195.573 2514.73,185.501 2525.5,155.361 2536.27,194.205 2547.03,149.462 2557.8,204.878 2568.56,236.253 2579.33,192.411 2590.1,131.64 2600.86,129.416 
  2611.63,129.063 2622.4,211.853 2633.16,198.286 2643.93,167.474 2654.7,181.436 2665.46,199.023 2676.23,234.63 2686.99,207.451 2697.76,200.93 2708.53,196.909 
  2719.29,208.029 2730.06,185.074 2740.83,246.349 2751.59,184.117 2762.36,172.223 2773.13,163.05 2783.89,166.138 2794.66,209.918 2805.42,173.885 2816.19,184.784 
  2826.96,152.515 2837.72,157.127 2848.49,193.695 2859.26,232.407 2870.02,161.945 2880.79,239.26 2891.56,195.16 2902.32,207.893 2913.09,149.011 2923.85,192.232 
  2934.62,206.231 2945.39,193.386 2956.15,186.98 2966.92,149.612 2977.69,207.221 2988.45,187.845 2999.22,203.424 3009.99,219.443 
  "/>
</svg>
