<?xml version="1.0" encoding="utf-8"?>
<svg xmlns="http://www.w3.org/2000/svg" xmlns:xlink="http://www.w3.org/1999/xlink" width="800" height="300" viewBox="0 0 3200 1200">
<defs>
  <clipPath id="clip800">
    <rect x="0" y="0" width="3200" height="1200"/>
  </clipPath>
</defs>
<path clip-path="url(#clip800)" d="M0 1200 L3200 1200 L3200 0 L0 0  Z" fill="#ffffff" fill-rule="evenodd" fill-opacity="1"/>
<defs>
  <clipPath id="clip801">
    <rect x="640" y="0" width="2241" height="1200"/>
  </clipPath>
</defs>
<path clip-path="url(#clip800)" d="M270.918 1000.1 L3089.76 1000.1 L3089.76 110.236 L270.918 110.236  Z" fill="#ffffff" fill-rule="evenodd" fill-opacity="1"/>
<defs>
  <clipPath id="clip802">
    <rect x="270" y="110" width="2820" height="891"/>
  </clipPath>
</defs>
<polyline clip-path="url(#clip802)" style="stroke:#000000; stroke-linecap:round; stroke-linejoin:round; stroke-width:2; stroke-opacity:0.1; fill:none" points="327.967,1000.1 327.967,110.236 "/>
<polyline clip-path="url(#clip802)" style="stroke:#000000; stroke-linecap:round; stroke-linejoin:round; stroke-width:2; stroke-opacity:0.1; fill:none" points="896.191,1000.1 896.191,110.236 "/>
<polyline clip-path="url(#clip802)" style="stroke:#000000; stroke-linecap:round; stroke-linejoin:round; stroke-width:2; stroke-opacity:0.1; fill:none" points="1464.42,1000.1 1464.42,110.236 "/>
<polyline clip-path="url(#clip802)" style="stroke:#000000; stroke-linecap:round; stroke-linejoin:round; stroke-width:2; stroke-opacity:0.1; fill:none" points="2032.64,1000.1 2032.64,110.236 "/>
<polyline clip-path="url(#clip802)" style="stroke:#000000; stroke-linecap:round; stroke-linejoin:round; stroke-width:2; stroke-opacity:0.1; fill:none" points="2600.86,1000.1 2600.86,110.236 "/>
<polyline clip-path="url(#clip800)" style="stroke:#000000; stroke-linecap:round; stroke-linejoin:round; stroke-width:4; stroke-opacity:1; fill:none" points="270.918,1000.1 3089.76,1000.1 "/>
<polyline clip-path="url(#clip800)" style="stroke:#000000; stroke-linecap:round; stroke-linejoin:round; stroke-width:4; stroke-opacity:1; fill:none" points="327.967,1000.1 327.967,981.2 "/>
<polyline clip-path="url(#clip800)" style="stroke:#000000; stroke-linecap:round; stroke-linejoin:round; stroke-width:4; stroke-opacity:1; fill:none" points="896.191,1000.1 896.191,981.2 "/>
<polyline clip-path="url(#clip800)" style="stroke:#000000; stroke-linecap:round; stroke-linejoin:round; stroke-width:4; stroke-opacity:1; fill:none" points="1464.42,1000.1 1464.42,981.2 "/>
<polyline clip-path="url(#clip800)" style="stroke:#000000; stroke-linecap:round; stroke-linejoin:round; stroke-width:4; stroke-opacity:1; fill:none" points="2032.64,1000.1 2032.64,981.2 "/>
<polyline clip-path="url(#clip800)" style="stroke:#000000; stroke-linecap:round; stroke-linejoin:round; stroke-width:4; stroke-opacity:1; fill:none" points="2600.86,1000.1 2600.86,981.2 "/>
<path clip-path="url(#clip800)" d="M327.967 1037.42 Q324.356 1037.42 322.528 1040.98 Q320.722 1044.52 320.722 1051.65 Q320.722 1058.76 322.528 1062.32 Q324.356 1065.87 327.967 1065.87 Q331.602 1065.87 333.407 1062.32 Q335.236 1058.76 335.236 1051.65 Q335.236 1044.52 333.407 1040.98 Q331.602 1037.42 327.967 1037.42 M327.967 1033.71 Q333.777 1033.71 336.833 1038.32 Q339.912 1042.9 339.912 1051.65 Q339.912 1060.38 336.833 1064.99 Q333.777 1069.57 327.967 1069.57 Q322.157 1069.57 319.078 1064.99 Q316.023 1060.38 316.023 1051.65 Q316.023 1042.9 319.078 1038.32 Q322.157 1033.71 327.967 1033.71 Z" fill="#000000" fill-rule="nonzero" fill-opacity="1" /><path clip-path="url(#clip800)" d="M875.462 1064.96 L891.782 1064.96 L891.782 1068.9 L869.837 1068.9 L869.837 1064.96 Q872.499 1062.21 877.083 1057.58 Q881.689 1052.93 882.87 1051.58 Q885.115 1049.06 885.995 1047.32 Q886.898 1045.56 886.898 1043.87 Q886.898 1041.12 884.953 1039.38 Q883.032 1037.65 879.93 1037.65 Q877.731 1037.65 875.277 1038.41 Q872.847 1039.18 870.069 1040.73 L870.069 1036 Q872.893 1034.87 875.347 1034.29 Q877.8 1033.71 879.837 1033.71 Q885.208 1033.71 888.402 1036.4 Q891.597 1039.08 891.597 1043.57 Q891.597 1045.7 890.786 1047.62 Q889.999 1049.52 887.893 1052.12 Q887.314 1052.79 884.212 1056 Q881.111 1059.2 875.462 1064.96 Z" fill="#000000" fill-rule="nonzero" fill-opacity="1" /><path clip-path="url(#clip800)" d="M901.643 1034.34 L919.999 1034.34 L919.999 1038.27 L905.925 1038.27 L905.925 1046.75 Q906.944 1046.4 907.962 1046.24 Q908.981 1046.05 909.999 1046.05 Q915.786 1046.05 919.166 1049.22 Q922.545 1052.39 922.545 1057.81 Q922.545 1063.39 919.073 1066.49 Q915.601 1069.57 909.282 1069.57 Q907.106 1069.57 904.837 1069.2 Q902.592 1068.83 900.184 1068.09 L900.184 1063.39 Q902.268 1064.52 904.49 1065.08 Q906.712 1065.63 909.189 1065.63 Q913.194 1065.63 915.532 1063.53 Q917.87 1061.42 917.87 1057.81 Q917.87 1054.2 915.532 1052.09 Q913.194 1049.99 909.189 1049.99 Q907.314 1049.99 905.439 1050.4 Q903.587 1050.82 901.643 1051.7 L901.643 1034.34 Z" fill="#000000" fill-rule="nonzero" fill-opacity="1" /><path clip-path="url(#clip800)" d="M1439.11 1034.34 L1457.47 1034.34 L1457.47 1038.27 L1443.4 1038.27 L1443.4 1046.75 Q1444.42 1046.4 1445.43 1046.24 Q1446.45 1046.05 1447.47 1046.05 Q1453.26 1046.05 1456.64 1049.22 Q1460.02 1052.39 1460.02 1057.81 Q1460.02 1063.39 1456.55 1066.49 Q1453.07 1069.57 1446.75 1069.57 Q1444.58 1069.57 1442.31 1069.2 Q1440.06 1068.83 1437.66 1068.09 L1437.66 1063.39 Q1439.74 1064.52 1441.96 1065.08 Q1444.18 1065.63 1446.66 1065.63 Q1450.67 1065.63 1453 1063.53 Q1455.34 1061.42 1455.34 1057.81 Q1455.34 1054.2 1453 1052.09 Q1450.67 1049.99 1446.66 1049.99 Q1444.79 1049.99 1442.91 1050.4 Q1441.06 1050.82 1439.11 1051.7 L1439.11 1034.34 Z" fill="#000000" fill-rule="nonzero" fill-opacity="1" /><path clip-path="url(#clip800)" d="M1479.23 1037.42 Q1475.62 1037.42 1473.79 1040.98 Q1471.98 1044.52 1471.98 1051.65 Q1471.98 1058.76 1473.79 1062.32 Q1475.62 1065.87 1479.23 1065.87 Q1482.86 1065.87 1484.67 1062.32 Q1486.5 1058.76 1486.5 1051.65 Q1486.5 1044.52 1484.67 1040.98 Q1482.86 1037.42 1479.23 1037.42 M1479.23 1033.71 Q1485.04 1033.71 1488.1 1038.32 Q1491.17 1042.9 1491.17 1051.65 Q1491.17 1060.38 1488.1 1064.99 Q1485.04 1069.57 1479.23 1069.57 Q1473.42 1069.57 1470.34 1064.99 Q1467.29 1060.38 1467.29 1051.65 Q1467.29 1042.9 1470.34 1038.32 Q1473.42 1033.71 1479.23 1033.71 Z" fill="#000000" fill-rule="nonzero" fill-opacity="1" /><path clip-path="url(#clip800)" d="M2006.49 1034.34 L2028.72 1034.34 L2028.72 1036.33 L2016.17 1068.9 L2011.29 1068.9 L2023.09 1038.27 L2006.49 1038.27 L2006.49 1034.34 Z" fill="#000000" fill-rule="nonzero" fill-opacity="1" /><path clip-path="url(#clip800)" d="M2037.88 1034.34 L2056.24 1034.34 L2056.24 1038.27 L2042.17 1038.27 L2042.17 1046.75 Q2043.18 1046.4 2044.2 1046.24 Q2045.22 1046.05 2046.24 1046.05 Q2052.03 1046.05 2055.41 1049.22 Q2058.79 1052.39 2058.79 1057.81 Q2058.79 1063.39 2055.31 1066.49 Q2051.84 1069.57 2045.52 1069.57 Q2043.35 1069.57 2041.08 1069.2 Q2038.83 1068.83 2036.42 1068.09 L2036.42 1063.39 Q2038.51 1064.52 2040.73 1065.08 Q2042.95 1065.63 2045.43 1065.63 Q2049.43 1065.63 2051.77 1063.53 Q2054.11 1061.42 2054.11 1057.81 Q2054.11 1054.2 2051.77 1052.09 Q2049.43 1049.99 2045.43 1049.99 Q2043.55 1049.99 2041.68 1050.4 Q2039.83 1050.82 2037.88 1051.7 L2037.88 1034.34 Z" fill="#000000" fill-rule="nonzero" fill-opacity="1" /><path clip-path="url(#clip800)" d="M2560.47 1064.96 L2568.11 1064.96 L2568.11 1038.6 L2559.8 1040.26 L2559.8 1036 L2568.06 1034.34 L2572.74 1034.34 L2572.74 1064.96 L2580.38 1064.96 L2580.38 1068.9 L2560.47 1068.9 L2560.47 1064.96 Z" fill="#000000" fill-rule="nonzero" fill-opacity="1" /><path clip-path="url(#clip800)" d="M2599.82 1037.42 Q2596.21 1037.42 2594.38 1040.98 Q2592.58 1044.52 2592.58 1051.65 Q2592.58 1058.76 2594.38 1062.32 Q2596.21 1065.87 2599.82 1065.87 Q2603.46 1065.87 2605.26 1062.32 Q2607.09 1058.76 2607.09 1051.65 Q2607.09 1044.52 2605.26 1040.98 Q2603.46 1037.42 2599.82 1037.42 M2599.82 1033.71 Q2605.63 1033.71 2608.69 1038.32 Q2611.77 1042.9 2611.77 1051.65 Q2611.77 1060.38 2608.69 1064.99 Q2605.63 1069.57 2599.82 1069.57 Q2594.01 1069.57 2590.93 1064.99 Q2587.88 1060.38 2587.88 1051.65 Q2587.88 1042.9 2590.93 1038.32 Q2594.01 1033.71 2599.82 1033.71 Z" fill="#000000" fill-rule="nonzero" fill-opacity="1" /><path clip-path="url(#clip800)" d="M2629.98 1037.42 Q2626.37 1037.42 2624.54 1040.98 Q2622.74 1044.52 2622.74 1051.65 Q2622.74 1058.76 2624.54 1062.32 Q2626.37 1065.87 2629.98 1065.87 Q2633.62 1065.87 2635.42 1062.32 Q2637.25 1058.76 2637.25 1051.65 Q2637.25 1044.52 2635.42 1040.98 Q2633.62 1037.42 2629.98 1037.42 M2629.98 1033.71 Q2635.79 1033.71 2638.85 1038.32 Q2641.93 1042.9 2641.93 1051.65 Q2641.93 1060.38 2638.85 1064.99 Q2635.79 1069.57 2629.98 1069.57 Q2624.17 1069.57 2621.1 1064.99 Q2618.04 1060.38 2618.04 1051.65 Q2618.04 1042.9 2621.1 1038.32 Q2624.17 1033.71 2629.98 1033.71 Z" fill="#000000" fill-rule="nonzero" fill-opacity="1" /><path clip-path="url(#clip800)" d="M1556.64 1109.44 L1563.07 1109.44 L1563.07 1151.55 L1586.21 1151.55 L1586.21 1156.96 L1556.64 1156.96 L1556.64 1109.44 Z" fill="#000000" fill-rule="nonzero" fill-opacity="1" /><path clip-path="url(#clip800)" d="M1592.7 1121.31 L1598.56 1121.31 L1598.56 1156.96 L1592.7 1156.96 L1592.7 1121.31 M1592.7 1107.44 L1598.56 1107.44 L1598.56 1114.85 L1592.7 1114.85 L1592.7 1107.44 Z" fill="#000000" fill-rule="nonzero" fill-opacity="1" /><path clip-path="url(#clip800)" d="M1640.44 1135.45 L1640.44 1156.96 L1634.59 1156.96 L1634.59 1135.64 Q1634.59 1130.58 1632.61 1128.06 Q1630.64 1125.55 1626.69 1125.55 Q1621.95 1125.55 1619.21 1128.57 Q1616.48 1131.59 1616.48 1136.81 L1616.48 1156.96 L1610.59 1156.96 L1610.59 1121.31 L1616.48 1121.31 L1616.48 1126.85 Q1618.58 1123.64 1621.41 1122.05 Q1624.27 1120.45 1628 1120.45 Q1634.14 1120.45 1637.29 1124.27 Q1640.44 1128.06 1640.44 1135.45 Z" fill="#000000" fill-rule="nonzero" fill-opacity="1" /><path clip-path="url(#clip800)" d="M1682.62 1137.67 L1682.62 1140.54 L1655.69 1140.54 Q1656.07 1146.59 1659.32 1149.77 Q1662.6 1152.92 1668.42 1152.92 Q1671.79 1152.92 1674.95 1152.09 Q1678.13 1151.26 1681.25 1149.61 L1681.25 1155.15 Q1678.1 1156.48 1674.79 1157.18 Q1671.48 1157.88 1668.07 1157.88 Q1659.54 1157.88 1654.54 1152.92 Q1649.58 1147.95 1649.58 1139.49 Q1649.58 1130.74 1654.29 1125.61 Q1659.03 1120.45 1667.05 1120.45 Q1674.25 1120.45 1678.42 1125.1 Q1682.62 1129.72 1682.62 1137.67 M1676.76 1135.95 Q1676.7 1131.15 1674.05 1128.28 Q1671.44 1125.42 1667.12 1125.42 Q1662.21 1125.42 1659.25 1128.19 Q1656.33 1130.96 1655.88 1135.99 L1676.76 1135.95 Z" fill="#000000" fill-rule="nonzero" fill-opacity="1" /><path clip-path="url(#clip800)" d="M1708.43 1139.04 Q1701.33 1139.04 1698.59 1140.67 Q1695.86 1142.29 1695.86 1146.2 Q1695.86 1149.32 1697.89 1151.17 Q1699.96 1152.98 1703.5 1152.98 Q1708.37 1152.98 1711.29 1149.55 Q1714.25 1146.08 1714.25 1140.35 L1714.25 1139.04 L1708.43 1139.04 M1720.11 1136.62 L1720.11 1156.96 L1714.25 1156.96 L1714.25 1151.55 Q1712.25 1154.8 1709.26 1156.36 Q1706.27 1157.88 1701.94 1157.88 Q1696.46 1157.88 1693.22 1154.83 Q1690 1151.74 1690 1146.59 Q1690 1140.57 1694.01 1137.51 Q1698.05 1134.46 1706.04 1134.46 L1714.25 1134.46 L1714.25 1133.89 Q1714.25 1129.84 1711.58 1127.65 Q1708.94 1125.42 1704.13 1125.42 Q1701.08 1125.42 1698.18 1126.15 Q1695.28 1126.88 1692.61 1128.35 L1692.61 1122.94 Q1695.83 1121.7 1698.85 1121.09 Q1701.87 1120.45 1704.74 1120.45 Q1712.47 1120.45 1716.29 1124.46 Q1720.11 1128.48 1720.11 1136.62 Z" fill="#000000" fill-rule="nonzero" fill-opacity="1" /><path clip-path="url(#clip800)" d="M1755.63 1138.72 Q1755.63 1132.36 1752.99 1128.86 Q1750.38 1125.36 1745.64 1125.36 Q1740.93 1125.36 1738.28 1128.86 Q1735.67 1132.36 1735.67 1138.72 Q1735.67 1145.06 1738.28 1148.56 Q1740.93 1152.06 1745.64 1152.06 Q1750.38 1152.06 1752.99 1148.56 Q1755.63 1145.06 1755.63 1138.72 M1761.49 1152.54 Q1761.49 1161.64 1757.45 1166.06 Q1753.4 1170.52 1745.06 1170.52 Q1741.98 1170.52 1739.24 1170.04 Q1736.5 1169.6 1733.92 1168.64 L1733.92 1162.95 Q1736.5 1164.35 1739.02 1165.01 Q1741.53 1165.68 1744.14 1165.68 Q1749.9 1165.68 1752.77 1162.66 Q1755.63 1159.67 1755.63 1153.59 L1755.63 1150.69 Q1753.82 1153.84 1750.98 1155.4 Q1748.15 1156.96 1744.2 1156.96 Q1737.65 1156.96 1733.64 1151.96 Q1729.63 1146.97 1729.63 1138.72 Q1729.63 1130.45 1733.64 1125.45 Q1737.65 1120.45 1744.2 1120.45 Q1748.15 1120.45 1750.98 1122.01 Q1753.82 1123.57 1755.63 1126.72 L1755.63 1121.31 L1761.49 1121.31 L1761.49 1152.54 Z" fill="#000000" fill-rule="nonzero" fill-opacity="1" /><path clip-path="url(#clip800)" d="M1804.04 1137.67 L1804.04 1140.54 L1777.12 1140.54 Q1777.5 1146.59 1780.74 1149.77 Q1784.02 1152.92 1789.85 1152.92 Q1793.22 1152.92 1796.37 1152.09 Q1799.55 1151.26 1802.67 1149.61 L1802.67 1155.15 Q1799.52 1156.48 1796.21 1157.18 Q1792.9 1157.88 1789.5 1157.88 Q1780.97 1157.88 1775.97 1152.92 Q1771 1147.95 1771 1139.49 Q1771 1130.74 1775.71 1125.61 Q1780.46 1120.45 1788.48 1120.45 Q1795.67 1120.45 1799.84 1125.1 Q1804.04 1129.72 1804.04 1137.67 M1798.19 1135.95 Q1798.12 1131.15 1795.48 1128.28 Q1792.87 1125.42 1788.54 1125.42 Q1783.64 1125.42 1780.68 1128.19 Q1777.75 1130.96 1777.31 1135.99 L1798.19 1135.95 Z" fill="#000000" fill-rule="nonzero" fill-opacity="1" /><polyline clip-path="url(#clip802)" style="stroke:#000000; stroke-linecap:round; stroke-linejoin:round; stroke-width:2; stroke-opacity:0.1; fill:none" points="270.918,1000.1 3089.76,1000.1 "/>
<polyline clip-path="url(#clip802)" style="stroke:#000000; stroke-linecap:round; stroke-linejoin:round; stroke-width:2; stroke-opacity:0.1; fill:none" points="270.918,676.206 3089.76,676.206 "/>
<polyline clip-path="url(#clip802)" style="stroke:#000000; stroke-linecap:round; stroke-linejoin:round; stroke-width:2; stroke-opacity:0.1; fill:none" points="270.918,352.314 3089.76,352.314 "/>
<polyline clip-path="url(#clip800)" style="stroke:#000000; stroke-linecap:round; stroke-linejoin:round; stroke-width:4; stroke-opacity:1; fill:none" points="270.918,1000.1 270.918,110.236 "/>
<polyline clip-path="url(#clip800)" style="stroke:#000000; stroke-linecap:round; stroke-linejoin:round; stroke-width:4; stroke-opacity:1; fill:none" points="270.918,1000.1 289.815,1000.1 "/>
<polyline clip-path="url(#clip800)" style="stroke:#000000; stroke-linecap:round; stroke-linejoin:round; stroke-width:4; stroke-opacity:1; fill:none" points="270.918,676.206 289.815,676.206 "/>
<polyline clip-path="url(#clip800)" style="stroke:#000000; stroke-linecap:round; stroke-linejoin:round; stroke-width:4; stroke-opacity:1; fill:none" points="270.918,352.314 289.815,352.314 "/>
<path clip-path="url(#clip800)" d="M154.902 1019.89 L162.54 1019.89 L162.54 993.525 L154.23 995.191 L154.23 990.932 L162.494 989.265 L167.17 989.265 L167.17 1019.89 L174.809 1019.89 L174.809 1023.83 L154.902 1023.83 L154.902 1019.89 Z" fill="#000000" fill-rule="nonzero" fill-opacity="1" /><path clip-path="url(#clip800)" d="M194.253 992.344 Q190.642 992.344 188.813 995.909 Q187.008 999.45 187.008 1006.58 Q187.008 1013.69 188.813 1017.25 Q190.642 1020.79 194.253 1020.79 Q197.887 1020.79 199.693 1017.25 Q201.522 1013.69 201.522 1006.58 Q201.522 999.45 199.693 995.909 Q197.887 992.344 194.253 992.344 M194.253 988.64 Q200.063 988.64 203.119 993.247 Q206.198 997.83 206.198 1006.58 Q206.198 1015.31 203.119 1019.91 Q200.063 1024.5 194.253 1024.5 Q188.443 1024.5 185.364 1019.91 Q182.309 1015.31 182.309 1006.58 Q182.309 997.83 185.364 993.247 Q188.443 988.64 194.253 988.64 Z" fill="#000000" fill-rule="nonzero" fill-opacity="1" /><path clip-path="url(#clip800)" d="M206.743 993.218 L212.95 993.218 L212.95 971.796 L206.198 973.15 L206.198 969.689 L212.912 968.335 L216.711 968.335 L216.711 993.218 L222.918 993.218 L222.918 996.415 L206.743 996.415 L206.743 993.218 Z" fill="#000000" fill-rule="nonzero" fill-opacity="1" /><path clip-path="url(#clip800)" d="M153.792 695.998 L161.431 695.998 L161.431 669.633 L153.121 671.299 L153.121 667.04 L161.384 665.373 L166.06 665.373 L166.06 695.998 L173.699 695.998 L173.699 699.933 L153.792 699.933 L153.792 695.998 Z" fill="#000000" fill-rule="nonzero" fill-opacity="1" /><path clip-path="url(#clip800)" d="M193.143 668.452 Q189.532 668.452 187.704 672.017 Q185.898 675.559 185.898 682.688 Q185.898 689.795 187.704 693.359 Q189.532 696.901 193.143 696.901 Q196.778 696.901 198.583 693.359 Q200.412 689.795 200.412 682.688 Q200.412 675.559 198.583 672.017 Q196.778 668.452 193.143 668.452 M193.143 664.748 Q198.954 664.748 202.009 669.355 Q205.088 673.938 205.088 682.688 Q205.088 691.415 202.009 696.021 Q198.954 700.605 193.143 700.605 Q187.333 700.605 184.255 696.021 Q181.199 691.415 181.199 682.688 Q181.199 673.938 184.255 669.355 Q187.333 664.748 193.143 664.748 Z" fill="#000000" fill-rule="nonzero" fill-opacity="1" /><path clip-path="url(#clip800)" d="M209.658 669.326 L222.918 669.326 L222.918 672.523 L205.088 672.523 L205.088 669.326 Q207.251 667.088 210.975 663.326 Q214.717 659.546 215.677 658.455 Q217.501 656.405 218.216 654.994 Q218.949 653.565 218.949 652.192 Q218.949 649.954 217.369 648.543 Q215.808 647.132 213.288 647.132 Q211.501 647.132 209.508 647.753 Q207.533 648.374 205.276 649.634 L205.276 645.797 Q207.57 644.876 209.564 644.405 Q211.558 643.935 213.213 643.935 Q217.576 643.935 220.172 646.117 Q222.767 648.299 222.767 651.947 Q222.767 653.678 222.109 655.239 Q221.469 656.781 219.758 658.887 Q219.288 659.433 216.767 662.047 Q214.247 664.643 209.658 669.326 Z" fill="#000000" fill-rule="nonzero" fill-opacity="1" /><path clip-path="url(#clip800)" d="M153.134 372.106 L160.772 372.106 L160.772 345.741 L152.462 347.407 L152.462 343.148 L160.726 341.481 L165.402 341.481 L165.402 372.106 L173.041 372.106 L173.041 376.041 L153.134 376.041 L153.134 372.106 Z" fill="#000000" fill-rule="nonzero" fill-opacity="1" /><path clip-path="url(#clip800)" d="M192.485 344.56 Q188.874 344.56 187.045 348.125 Q185.24 351.667 185.24 358.796 Q185.24 365.903 187.045 369.467 Q188.874 373.009 192.485 373.009 Q196.119 373.009 197.925 369.467 Q199.754 365.903 199.754 358.796 Q199.754 351.667 197.925 348.125 Q196.119 344.56 192.485 344.56 M192.485 340.856 Q198.295 340.856 201.351 345.463 Q204.43 350.046 204.43 358.796 Q204.43 367.523 201.351 372.129 Q198.295 376.713 192.485 376.713 Q186.675 376.713 183.596 372.129 Q180.541 367.523 180.541 358.796 Q180.541 350.046 183.596 345.463 Q186.675 340.856 192.485 340.856 Z" fill="#000000" fill-rule="nonzero" fill-opacity="1" /><path clip-path="url(#clip800)" d="M217.125 333.491 Q219.852 334.074 221.375 335.917 Q222.918 337.76 222.918 340.468 Q222.918 344.625 220.059 346.901 Q217.2 349.176 211.934 349.176 Q210.166 349.176 208.285 348.819 Q206.423 348.481 204.43 347.785 L204.43 344.117 Q206.009 345.039 207.89 345.509 Q209.771 345.979 211.821 345.979 Q215.395 345.979 217.256 344.569 Q219.137 343.158 219.137 340.468 Q219.137 337.986 217.388 336.594 Q215.658 335.183 212.555 335.183 L209.282 335.183 L209.282 332.061 L212.705 332.061 Q215.507 332.061 216.993 330.952 Q218.479 329.823 218.479 327.717 Q218.479 325.554 216.937 324.407 Q215.413 323.241 212.555 323.241 Q210.994 323.241 209.207 323.579 Q207.42 323.918 205.276 324.632 L205.276 321.247 Q207.439 320.645 209.32 320.344 Q211.219 320.043 212.893 320.043 Q217.219 320.043 219.739 322.018 Q222.259 323.974 222.259 327.322 Q222.259 329.654 220.924 331.271 Q219.589 332.87 217.125 333.491 Z" fill="#000000" fill-rule="nonzero" fill-opacity="1" /><path clip-path="url(#clip800)" d="M42.6863 908.145 L42.6863 878.099 L48.0971 878.099 L48.0971 901.716 L62.1653 901.716 L62.1653 879.086 L67.5762 879.086 L67.5762 901.716 L84.7954 901.716 L84.7954 877.526 L90.2063 877.526 L90.2063 908.145 L42.6863 908.145 Z" fill="#000000" fill-rule="nonzero" fill-opacity="1" /><path clip-path="url(#clip800)" d="M44.2459 838.473 L50.5161 838.473 Q48.7655 842.133 47.9062 845.38 Q47.0468 848.626 47.0468 851.65 Q47.0468 856.901 49.0838 859.766 Q51.1208 862.599 54.8766 862.599 Q58.0276 862.599 59.6509 860.721 Q61.2423 858.811 62.229 853.528 L63.0247 849.645 Q64.3933 842.451 67.8627 839.046 Q71.3001 835.608 77.0929 835.608 Q83.9997 835.608 87.5645 840.255 Q91.1293 844.87 91.1293 853.814 Q91.1293 857.188 90.3654 861.007 Q89.6015 864.795 88.1056 868.869 L81.4853 868.869 Q83.6814 864.954 84.7954 861.198 Q85.9094 857.443 85.9094 853.814 Q85.9094 848.308 83.7451 845.316 Q81.5808 842.324 77.5704 842.324 Q74.0692 842.324 72.0958 844.488 Q70.1225 846.621 69.1358 851.522 L68.3719 855.437 Q66.9396 862.631 63.8841 865.845 Q60.8285 869.06 55.3859 869.06 Q49.0838 869.06 45.4554 864.636 Q41.8269 860.18 41.8269 852.382 Q41.8269 849.04 42.4317 845.571 Q43.0364 842.101 44.2459 838.473 Z" fill="#000000" fill-rule="nonzero" fill-opacity="1" /><path clip-path="url(#clip800)" d="M44.2459 797.096 L50.5161 797.096 Q48.7655 800.756 47.9062 804.002 Q47.0468 807.249 47.0468 810.273 Q47.0468 815.524 49.0838 818.389 Q51.1208 821.222 54.8766 821.222 Q58.0276 821.222 59.6509 819.344 Q61.2423 817.434 62.229 812.151 L63.0247 808.267 Q64.3933 801.074 67.8627 797.669 Q71.3001 794.231 77.0929 794.231 Q83.9997 794.231 87.5645 798.878 Q91.1293 803.493 91.1293 812.437 Q91.1293 815.811 90.3654 819.63 Q89.6015 823.418 88.1056 827.492 L81.4853 827.492 Q83.6814 823.577 84.7954 819.821 Q85.9094 816.065 85.9094 812.437 Q85.9094 806.931 83.7451 803.939 Q81.5808 800.947 77.5704 800.947 Q74.0692 800.947 72.0958 803.111 Q70.1225 805.244 69.1358 810.145 L68.3719 814.06 Q66.9396 821.254 63.8841 824.468 Q60.8285 827.683 55.3859 827.683 Q49.0838 827.683 45.4554 823.259 Q41.8269 818.803 41.8269 811.005 Q41.8269 807.663 42.4317 804.193 Q43.0364 800.724 44.2459 797.096 Z" fill="#000000" fill-rule="nonzero" fill-opacity="1" /><path clip-path="url(#clip800)" d="M82.1218 782.964 L82.1218 776.248 L90.2063 776.248 L90.2063 782.964 L82.1218 782.964 M56.4999 782.964 L56.4999 776.248 L64.5843 776.248 L64.5843 782.964 L56.4999 782.964 Z" fill="#000000" fill-rule="nonzero" fill-opacity="1" /><path clip-path="url(#clip800)" d="M47.9698 735.094 L84.9227 735.094 L84.9227 727.328 Q84.9227 717.492 80.4668 712.941 Q76.0108 708.358 66.3985 708.358 Q56.85 708.358 52.4258 712.941 Q47.9698 717.492 47.9698 727.328 L47.9698 735.094 M42.6863 741.523 L42.6863 728.314 Q42.6863 714.501 48.4472 708.039 Q54.1764 701.578 66.3985 701.578 Q78.6844 701.578 84.4453 708.071 Q90.2063 714.564 90.2063 728.314 L90.2063 741.523 L42.6863 741.523 Z" fill="#000000" fill-rule="nonzero" fill-opacity="1" /><path clip-path="url(#clip800)" d="M70.9182 661.092 L73.7828 661.092 L73.7828 688.019 Q79.8302 687.637 83.013 684.391 Q86.1641 681.112 86.1641 675.288 Q86.1641 671.914 85.3365 668.763 Q84.509 665.58 82.8539 662.461 L88.3921 662.461 Q89.7289 665.612 90.4291 668.922 Q91.1293 672.232 91.1293 675.638 Q91.1293 684.168 86.1641 689.165 Q81.1988 694.13 72.7324 694.13 Q63.9796 694.13 58.8552 689.42 Q53.699 684.677 53.699 676.656 Q53.699 669.463 58.3459 665.294 Q62.9611 661.092 70.9182 661.092 M69.1995 666.949 Q64.3933 667.012 61.5288 669.654 Q58.6642 672.264 58.6642 676.593 Q58.6642 681.494 61.4333 684.454 Q64.2024 687.383 69.2313 687.828 L69.1995 666.949 Z" fill="#000000" fill-rule="nonzero" fill-opacity="1" /><path clip-path="url(#clip800)" d="M68.6902 621.848 L90.2063 621.848 L90.2063 627.704 L68.8812 627.704 Q63.8204 627.704 61.306 629.678 Q58.7915 631.651 58.7915 635.598 Q58.7915 640.34 61.8152 643.077 Q64.8389 645.815 70.0588 645.815 L90.2063 645.815 L90.2063 651.703 L54.5583 651.703 L54.5583 645.815 L60.0965 645.815 Q56.8818 643.714 55.2904 640.881 Q53.699 638.017 53.699 634.293 Q53.699 628.15 57.5184 624.999 Q61.306 621.848 68.6902 621.848 Z" fill="#000000" fill-rule="nonzero" fill-opacity="1" /><path clip-path="url(#clip800)" d="M61.4015 582.412 Q57.4547 580.216 55.5768 577.16 Q53.699 574.105 53.699 569.967 Q53.699 564.397 57.6139 561.374 Q61.4969 558.35 68.6902 558.35 L90.2063 558.35 L90.2063 564.238 L68.8812 564.238 Q63.7568 564.238 61.2741 566.052 Q58.7915 567.867 58.7915 571.59 Q58.7915 576.142 61.8152 578.784 Q64.8389 581.426 70.0588 581.426 L90.2063 581.426 L90.2063 587.314 L68.8812 587.314 Q63.7249 587.314 61.2741 589.128 Q58.7915 590.942 58.7915 594.73 Q58.7915 599.218 61.8471 601.859 Q64.8708 604.501 70.0588 604.501 L90.2063 604.501 L90.2063 610.389 L54.5583 610.389 L54.5583 604.501 L60.0965 604.501 Q56.8182 602.496 55.2586 599.695 Q53.699 596.894 53.699 593.043 Q53.699 589.16 55.6723 586.454 Q57.6457 583.717 61.4015 582.412 Z" fill="#000000" fill-rule="nonzero" fill-opacity="1" /><path clip-path="url(#clip800)" d="M72.2868 530.468 Q72.2868 537.566 73.9101 540.303 Q75.5333 543.04 79.4482 543.04 Q82.5674 543.04 84.4135 541.003 Q86.2277 538.934 86.2277 535.401 Q86.2277 530.532 82.7902 527.603 Q79.3209 524.643 73.5918 524.643 L72.2868 524.643 L72.2868 530.468 M69.8679 518.787 L90.2063 518.787 L90.2063 524.643 L84.7954 524.643 Q88.0419 526.649 89.6015 529.64 Q91.1293 532.632 91.1293 536.961 Q91.1293 542.436 88.0738 545.682 Q84.9864 548.897 79.8302 548.897 Q73.8146 548.897 70.759 544.886 Q67.7035 540.844 67.7035 532.855 L67.7035 524.643 L67.1306 524.643 Q63.0884 524.643 60.8922 527.317 Q58.6642 529.959 58.6642 534.765 Q58.6642 537.82 59.3963 540.717 Q60.1283 543.613 61.5924 546.287 L56.1816 546.287 Q54.9403 543.072 54.3355 540.048 Q53.699 537.025 53.699 534.16 Q53.699 526.426 57.7094 522.606 Q61.7197 518.787 69.8679 518.787 Z" fill="#000000" fill-rule="nonzero" fill-opacity="1" /><path clip-path="url(#clip800)" d="M60.0328 486.067 Q59.4599 487.054 59.2053 488.232 Q58.9188 489.377 58.9188 490.778 Q58.9188 495.743 62.1653 498.417 Q65.38 501.058 71.4274 501.058 L90.2063 501.058 L90.2063 506.947 L54.5583 506.947 L54.5583 501.058 L60.0965 501.058 Q56.85 499.212 55.2904 496.252 Q53.699 493.292 53.699 489.059 Q53.699 488.454 53.7944 487.722 Q53.8581 486.99 54.0172 486.099 L60.0328 486.067 Z" fill="#000000" fill-rule="nonzero" fill-opacity="1" /><path clip-path="url(#clip800)" d="M40.6811 480.147 L40.6811 474.259 L69.9315 474.259 L54.5583 456.785 L54.5583 449.305 L71.2365 468.211 L90.2063 448.51 L90.2063 456.148 L72.7961 474.259 L90.2063 474.259 L90.2063 480.147 L40.6811 480.147 Z" fill="#000000" fill-rule="nonzero" fill-opacity="1" /><path clip-path="url(#clip800)" d="M82.1218 440.68 L82.1218 433.964 L87.5963 433.964 L97.7815 439.184 L97.7815 443.29 L87.5963 440.68 L82.1218 440.68 Z" fill="#000000" fill-rule="nonzero" fill-opacity="1" /><path clip-path="url(#clip800)" d="M44.4369 394.942 L54.5583 394.942 L54.5583 382.879 L59.1098 382.879 L59.1098 394.942 L78.4616 394.942 Q82.8221 394.942 84.0634 393.764 Q85.3047 392.555 85.3047 388.895 L85.3047 382.879 L90.2063 382.879 L90.2063 388.895 Q90.2063 395.674 87.6918 398.252 Q85.1455 400.83 78.4616 400.83 L59.1098 400.83 L59.1098 405.127 L54.5583 405.127 L54.5583 400.83 L44.4369 400.83 L44.4369 394.942 Z" fill="#000000" fill-rule="nonzero" fill-opacity="1" /><path clip-path="url(#clip800)" d="M54.5583 375.177 L54.5583 369.32 L90.2063 369.32 L90.2063 375.177 L54.5583 375.177 M40.6811 375.177 L40.6811 369.32 L48.0971 369.32 L48.0971 375.177 L40.6811 375.177 Z" fill="#000000" fill-rule="nonzero" fill-opacity="1" /><path clip-path="url(#clip800)" d="M61.4015 329.312 Q57.4547 327.116 55.5768 324.06 Q53.699 321.004 53.699 316.867 Q53.699 311.297 57.6139 308.273 Q61.4969 305.249 68.6902 305.249 L90.2063 305.249 L90.2063 311.138 L68.8812 311.138 Q63.7568 311.138 61.2741 312.952 Q58.7915 314.766 58.7915 318.49 Q58.7915 323.041 61.8152 325.683 Q64.8389 328.325 70.0588 328.325 L90.2063 328.325 L90.2063 334.213 L68.8812 334.213 Q63.7249 334.213 61.2741 336.028 Q58.7915 337.842 58.7915 341.629 Q58.7915 346.117 61.8471 348.759 Q64.8708 351.401 70.0588 351.401 L90.2063 351.401 L90.2063 357.289 L54.5583 357.289 L54.5583 351.401 L60.0965 351.401 Q56.8182 349.396 55.2586 346.595 Q53.699 343.794 53.699 339.942 Q53.699 336.059 55.6723 333.354 Q57.6457 330.617 61.4015 329.312 Z" fill="#000000" fill-rule="nonzero" fill-opacity="1" /><path clip-path="url(#clip800)" d="M70.9182 263.077 L73.7828 263.077 L73.7828 290.003 Q79.8302 289.622 83.013 286.375 Q86.1641 283.097 86.1641 277.272 Q86.1641 273.898 85.3365 270.747 Q84.509 267.564 82.8539 264.445 L88.3921 264.445 Q89.7289 267.596 90.4291 270.906 Q91.1293 274.217 91.1293 277.622 Q91.1293 286.152 86.1641 291.149 Q81.1988 296.115 72.7324 296.115 Q63.9796 296.115 58.8552 291.404 Q53.699 286.661 53.699 278.641 Q53.699 271.447 58.3459 267.278 Q62.9611 263.077 70.9182 263.077 M69.1995 268.933 Q64.3933 268.997 61.5288 271.638 Q58.6642 274.248 58.6642 278.577 Q58.6642 283.479 61.4333 286.439 Q64.2024 289.367 69.2313 289.812 L69.1995 268.933 Z" fill="#000000" fill-rule="nonzero" fill-opacity="1" /><path clip-path="url(#clip800)" d="M82.1218 251.968 L82.1218 245.253 L90.2063 245.253 L90.2063 251.968 L82.1218 251.968 M56.4999 251.968 L56.4999 245.253 L64.5843 245.253 L64.5843 251.968 L56.4999 251.968 Z" fill="#000000" fill-rule="nonzero" fill-opacity="1" /><path clip-path="url(#clip800)" d="M84.7954 229.561 L84.7954 219.058 L48.5427 219.058 L50.8344 230.484 L44.9779 230.484 L42.6863 219.121 L42.6863 212.692 L84.7954 212.692 L84.7954 202.189 L90.2063 202.189 L90.2063 229.561 L84.7954 229.561 Z" fill="#000000" fill-rule="nonzero" fill-opacity="1" /><polyline clip-path="url(#clip802)" style="stroke:#009af9; stroke-linecap:round; stroke-linejoin:round; stroke-width:4; stroke-opacity:1; fill:none" points="350.696,290.303 373.425,147.248 396.154,154.665 418.883,153.757 441.612,152.794 464.341,127.929 487.07,134.972 509.799,145.841 532.528,163.999 555.257,147.867 577.986,147.863 600.715,148.506 623.444,166.958 646.173,151.035 668.902,160.855 691.631,166.416 714.36,168.415 737.089,123.053 759.818,135.233 782.547,146.802 805.276,110.236 828.005,191.648 850.734,130.035 873.462,140.359 896.191,139.201 918.92,151.775 941.649,170.744 964.378,193.854 987.107,170.573 1009.84,150.832 1032.57,201.989 1055.29,170.508 1078.02,145.246 1100.75,128.419 1123.48,166.755 1146.21,126.557 1168.94,154.297 1191.67,149.751 1214.4,164.505 1237.13,178.724 1259.85,142.19 1282.58,159.997 1305.31,146.991 1328.04,172.508 1350.77,176.268 1373.5,194.368 1396.23,199.505 1418.96,145.678 1441.69,156.831 1464.42,149.846 1487.14,139.036 1509.87,191.259 1532.6,157.207 1555.33,143.499 1578.06,225.025 1600.79,176.273 1623.52,141.741 1646.25,176.137 1668.98,169.783 1691.71,189.85 1714.43,151.561 1737.16,146.568 1759.89,161.802 1782.62,162.451 1805.35,210.865 1828.08,159.378 1850.81,164.98 1873.54,135.208 1896.27,154.02 1918.99,215.039 1941.72,140.509 1964.45,124.824 1987.18,126.756 2009.91,177.66 2032.64,164.657 2055.37,174.759 2078.1,156.316 2100.83,152.404 2123.56,165.359 2146.28,134.468 2169.01,147.063 2191.74,198.739 2214.47,147.263 2237.2,119.56 2259.93,159.425 2282.66,183.843 2305.39,182.036 2328.12,156.299 2350.85,200.373 2373.57,146.519 2396.3,184.567 2419.03,192.552 2441.76,170.768 2464.49,164.824 2487.22,163.242 2509.95,146.444 2532.68,182.439 2555.41,158.939 2578.13,141.907 2600.86,184.14 2623.59,151.157 2646.32,150.322 2669.05,132.952 2691.78,155.866 2714.51,124.002 2737.24,185.218 2759.97,175.021 2782.7,145.535 2805.42,185.166 2828.15,163.288 2850.88,149.13 2873.61,111.678 2896.34,163.797 2919.07,148.733 2941.8,138.957 2964.53,160.507 2987.26,150.508 3009.99,160.213 "/>
</svg>
