<?xml version="1.0" encoding="utf-8"?>
<svg xmlns="http://www.w3.org/2000/svg" xmlns:xlink="http://www.w3.org/1999/xlink" width="800" height="300" viewBox="0 0 3200 1200">
<defs>
  <clipPath id="clip810">
    <rect x="0" y="0" width="3200" height="1200"/>
  </clipPath>
</defs>
<path clip-path="url(#clip810)" d="M0 1200 L3200 1200 L3200 0 L0 0  Z" fill="#ffffff" fill-rule="evenodd" fill-opacity="1"/>
<defs>
  <clipPath id="clip811">
    <rect x="640" y="0" width="2241" height="1200"/>
  </clipPath>
</defs>
<path clip-path="url(#clip810)" d="M270.918 1000.1 L3089.76 1000.1 L3089.76 110.236 L270.918 110.236  Z" fill="#ffffff" fill-rule="evenodd" fill-opacity="1"/>
<defs>
  <clipPath id="clip812">
    <rect x="270" y="110" width="2820" height="891"/>
  </clipPath>
</defs>
<polyline clip-path="url(#clip812)" style="stroke:#000000; stroke-linecap:round; stroke-linejoin:round; stroke-width:2; stroke-opacity:0.1; fill:none" points="342.988,1000.1 342.988,110.236 "/>
<polyline clip-path="url(#clip812)" style="stroke:#000000; stroke-linecap:round; stroke-linejoin:round; stroke-width:2; stroke-opacity:0.1; fill:none" points="1113.8,1000.1 1113.8,110.236 "/>
<polyline clip-path="url(#clip812)" style="stroke:#000000; stroke-linecap:round; stroke-linejoin:round; stroke-width:2; stroke-opacity:0.1; fill:none" points="1884.6,1000.1 1884.6,110.236 "/>
<polyline clip-path="url(#clip812)" style="stroke:#000000; stroke-linecap:round; stroke-linejoin:round; stroke-width:2; stroke-opacity:0.1; fill:none" points="2655.41,1000.1 2655.41,110.236 "/>
<polyline clip-path="url(#clip810)" style="stroke:#000000; stroke-linecap:round; stroke-linejoin:round; stroke-width:4; stroke-opacity:1; fill:none" points="270.918,1000.1 3089.76,1000.1 "/>
<polyline clip-path="url(#clip810)" style="stroke:#000000; stroke-linecap:round; stroke-linejoin:round; stroke-width:4; stroke-opacity:1; fill:none" points="342.988,1000.1 342.988,981.2 "/>
<polyline clip-path="url(#clip810)" style="stroke:#000000; stroke-linecap:round; stroke-linejoin:round; stroke-width:4; stroke-opacity:1; fill:none" points="1113.8,1000.1 1113.8,981.2 "/>
<polyline clip-path="url(#clip810)" style="stroke:#000000; stroke-linecap:round; stroke-linejoin:round; stroke-width:4; stroke-opacity:1; fill:none" points="1884.6,1000.1 1884.6,981.2 "/>
<polyline clip-path="url(#clip810)" style="stroke:#000000; stroke-linecap:round; stroke-linejoin:round; stroke-width:4; stroke-opacity:1; fill:none" points="2655.41,1000.1 2655.41,981.2 "/>
<path clip-path="url(#clip810)" d="M342.988 1037.42 Q339.377 1037.42 337.548 1040.98 Q335.743 1044.52 335.743 1051.65 Q335.743 1058.76 337.548 1062.32 Q339.377 1065.87 342.988 1065.87 Q346.622 1065.87 348.428 1062.32 Q350.257 1058.76 350.257 1051.65 Q350.257 1044.52 348.428 1040.98 Q346.622 1037.42 342.988 1037.42 M342.988 1033.71 Q348.798 1033.71 351.854 1038.32 Q354.933 1042.9 354.933 1051.65 Q354.933 1060.38 351.854 1064.99 Q348.798 1069.57 342.988 1069.57 Q337.178 1069.57 334.099 1064.99 Q331.044 1060.38 331.044 1051.65 Q331.044 1042.9 334.099 1038.32 Q337.178 1033.71 342.988 1033.71 Z" fill="#000000" fill-rule="nonzero" fill-opacity="1" /><path clip-path="url(#clip810)" d="M1073.4 1064.96 L1081.04 1064.96 L1081.04 1038.6 L1072.73 1040.26 L1072.73 1036 L1081 1034.34 L1085.67 1034.34 L1085.67 1064.96 L1093.31 1064.96 L1093.31 1068.9 L1073.4 1068.9 L1073.4 1064.96 Z" fill="#000000" fill-rule="nonzero" fill-opacity="1" /><path clip-path="url(#clip810)" d="M1112.75 1037.42 Q1109.14 1037.42 1107.32 1040.98 Q1105.51 1044.52 1105.51 1051.65 Q1105.51 1058.76 1107.32 1062.32 Q1109.14 1065.87 1112.75 1065.87 Q1116.39 1065.87 1118.19 1062.32 Q1120.02 1058.76 1120.02 1051.65 Q1120.02 1044.52 1118.19 1040.98 Q1116.39 1037.42 1112.75 1037.42 M1112.75 1033.71 Q1118.57 1033.71 1121.62 1038.32 Q1124.7 1042.9 1124.7 1051.65 Q1124.7 1060.38 1121.62 1064.99 Q1118.57 1069.57 1112.75 1069.57 Q1106.94 1069.57 1103.87 1064.99 Q1100.81 1060.38 1100.81 1051.65 Q1100.81 1042.9 1103.87 1038.32 Q1106.94 1033.71 1112.75 1033.71 Z" fill="#000000" fill-rule="nonzero" fill-opacity="1" /><path clip-path="url(#clip810)" d="M1142.92 1037.42 Q1139.31 1037.42 1137.48 1040.98 Q1135.67 1044.52 1135.67 1051.65 Q1135.67 1058.76 1137.48 1062.32 Q1139.31 1065.87 1142.92 1065.87 Q1146.55 1065.87 1148.36 1062.32 Q1150.19 1058.76 1150.19 1051.65 Q1150.19 1044.52 1148.36 1040.98 Q1146.55 1037.42 1142.92 1037.42 M1142.92 1033.71 Q1148.73 1033.71 1151.78 1038.32 Q1154.86 1042.9 1154.86 1051.65 Q1154.86 1060.38 1151.78 1064.99 Q1148.73 1069.57 1142.92 1069.57 Q1137.11 1069.57 1134.03 1064.99 Q1130.97 1060.38 1130.97 1051.65 Q1130.97 1042.9 1134.03 1038.32 Q1137.11 1033.71 1142.92 1033.71 Z" fill="#000000" fill-rule="nonzero" fill-opacity="1" /><path clip-path="url(#clip810)" d="M1848.3 1064.96 L1864.62 1064.96 L1864.62 1068.9 L1842.67 1068.9 L1842.67 1064.96 Q1845.33 1062.21 1849.92 1057.58 Q1854.52 1052.93 1855.7 1051.58 Q1857.95 1049.06 1858.83 1047.32 Q1859.73 1045.56 1859.73 1043.87 Q1859.73 1041.12 1857.79 1039.38 Q1855.87 1037.65 1852.76 1037.65 Q1850.57 1037.65 1848.11 1038.41 Q1845.68 1039.18 1842.9 1040.73 L1842.9 1036 Q1845.73 1034.87 1848.18 1034.29 Q1850.64 1033.71 1852.67 1033.71 Q1858.04 1033.71 1861.24 1036.4 Q1864.43 1039.08 1864.43 1043.57 Q1864.43 1045.7 1863.62 1047.62 Q1862.83 1049.52 1860.73 1052.12 Q1860.15 1052.79 1857.05 1056 Q1853.95 1059.2 1848.3 1064.96 Z" fill="#000000" fill-rule="nonzero" fill-opacity="1" /><path clip-path="url(#clip810)" d="M1884.43 1037.42 Q1880.82 1037.42 1878.99 1040.98 Q1877.19 1044.52 1877.19 1051.65 Q1877.19 1058.76 1878.99 1062.32 Q1880.82 1065.87 1884.43 1065.87 Q1888.07 1065.87 1889.87 1062.32 Q1891.7 1058.76 1891.7 1051.65 Q1891.7 1044.52 1889.87 1040.98 Q1888.07 1037.42 1884.43 1037.42 M1884.43 1033.71 Q1890.24 1033.71 1893.3 1038.32 Q1896.38 1042.9 1896.38 1051.65 Q1896.38 1060.38 1893.3 1064.99 Q1890.24 1069.57 1884.43 1069.57 Q1878.62 1069.57 1875.54 1064.99 Q1872.49 1060.38 1872.49 1051.65 Q1872.49 1042.9 1875.54 1038.32 Q1878.62 1033.71 1884.43 1033.71 Z" fill="#000000" fill-rule="nonzero" fill-opacity="1" /><path clip-path="url(#clip810)" d="M1914.59 1037.42 Q1910.98 1037.42 1909.15 1040.98 Q1907.35 1044.52 1907.35 1051.65 Q1907.35 1058.76 1909.15 1062.32 Q1910.98 1065.87 1914.59 1065.87 Q1918.23 1065.87 1920.03 1062.32 Q1921.86 1058.76 1921.86 1051.65 Q1921.86 1044.52 1920.03 1040.98 Q1918.23 1037.42 1914.59 1037.42 M1914.59 1033.71 Q1920.4 1033.71 1923.46 1038.32 Q1926.54 1042.9 1926.54 1051.65 Q1926.54 1060.38 1923.46 1064.99 Q1920.4 1069.57 1914.59 1069.57 Q1908.78 1069.57 1905.7 1064.99 Q1902.65 1060.38 1902.65 1051.65 Q1902.65 1042.9 1905.7 1038.32 Q1908.78 1033.71 1914.59 1033.71 Z" fill="#000000" fill-rule="nonzero" fill-opacity="1" /><path clip-path="url(#clip810)" d="M2629.17 1050.26 Q2632.53 1050.98 2634.41 1053.25 Q2636.3 1055.52 2636.3 1058.85 Q2636.3 1063.97 2632.79 1066.77 Q2629.27 1069.57 2622.79 1069.57 Q2620.61 1069.57 2618.3 1069.13 Q2616 1068.71 2613.55 1067.86 L2613.55 1063.34 Q2615.49 1064.48 2617.81 1065.06 Q2620.12 1065.63 2622.65 1065.63 Q2627.05 1065.63 2629.34 1063.9 Q2631.65 1062.16 2631.65 1058.85 Q2631.65 1055.8 2629.5 1054.08 Q2627.37 1052.35 2623.55 1052.35 L2619.52 1052.35 L2619.52 1048.5 L2623.74 1048.5 Q2627.18 1048.5 2629.01 1047.14 Q2630.84 1045.75 2630.84 1043.16 Q2630.84 1040.5 2628.94 1039.08 Q2627.07 1037.65 2623.55 1037.65 Q2621.63 1037.65 2619.43 1038.06 Q2617.23 1038.48 2614.59 1039.36 L2614.59 1035.19 Q2617.25 1034.45 2619.57 1034.08 Q2621.91 1033.71 2623.97 1033.71 Q2629.29 1033.71 2632.39 1036.14 Q2635.49 1038.55 2635.49 1042.67 Q2635.49 1045.54 2633.85 1047.53 Q2632.21 1049.5 2629.17 1050.26 Z" fill="#000000" fill-rule="nonzero" fill-opacity="1" /><path clip-path="url(#clip810)" d="M2655.17 1037.42 Q2651.56 1037.42 2649.73 1040.98 Q2647.92 1044.52 2647.92 1051.65 Q2647.92 1058.76 2649.73 1062.32 Q2651.56 1065.87 2655.17 1065.87 Q2658.8 1065.87 2660.61 1062.32 Q2662.44 1058.76 2662.44 1051.65 Q2662.44 1044.52 2660.61 1040.98 Q2658.8 1037.42 2655.17 1037.42 M2655.17 1033.71 Q2660.98 1033.71 2664.04 1038.32 Q2667.11 1042.9 2667.11 1051.65 Q2667.11 1060.38 2664.04 1064.99 Q2660.98 1069.57 2655.17 1069.57 Q2649.36 1069.57 2646.28 1064.99 Q2643.23 1060.38 2643.23 1051.65 Q2643.23 1042.9 2646.28 1038.32 Q2649.36 1033.71 2655.17 1033.71 Z" fill="#000000" fill-rule="nonzero" fill-opacity="1" /><path clip-path="url(#clip810)" d="M2685.33 1037.42 Q2681.72 1037.42 2679.89 1040.98 Q2678.09 1044.52 2678.09 1051.65 Q2678.09 1058.76 2679.89 1062.32 Q2681.72 1065.87 2685.33 1065.87 Q2688.97 1065.87 2690.77 1062.32 Q2692.6 1058.76 2692.6 1051.65 Q2692.6 1044.52 2690.77 1040.98 Q2688.97 1037.42 2685.33 1037.42 M2685.33 1033.71 Q2691.14 1033.71 2694.2 1038.32 Q2697.28 1042.9 2697.28 1051.65 Q2697.28 1060.38 2694.2 1064.99 Q2691.14 1069.57 2685.33 1069.57 Q2679.52 1069.57 2676.44 1064.99 Q2673.39 1060.38 2673.39 1051.65 Q2673.39 1042.9 2676.44 1038.32 Q2679.52 1033.71 2685.33 1033.71 Z" fill="#000000" fill-rule="nonzero" fill-opacity="1" /><path clip-path="url(#clip810)" d="M1556.64 1109.44 L1563.07 1109.44 L1563.07 1151.55 L1586.21 1151.55 L1586.21 1156.96 L1556.64 1156.96 L1556.64 1109.44 Z" fill="#000000" fill-rule="nonzero" fill-opacity="1" /><path clip-path="url(#clip810)" d="M1592.7 1121.31 L1598.56 1121.31 L1598.56 1156.96 L1592.7 1156.96 L1592.7 1121.31 M1592.7 1107.44 L1598.56 1107.44 L1598.56 1114.85 L1592.7 1114.85 L1592.7 1107.44 Z" fill="#000000" fill-rule="nonzero" fill-opacity="1" /><path clip-path="url(#clip810)" d="M1640.44 1135.45 L1640.44 1156.96 L1634.59 1156.96 L1634.59 1135.64 Q1634.59 1130.58 1632.61 1128.06 Q1630.64 1125.55 1626.69 1125.55 Q1621.95 1125.55 1619.21 1128.57 Q1616.48 1131.59 1616.48 1136.81 L1616.48 1156.96 L1610.59 1156.96 L1610.59 1121.31 L1616.48 1121.31 L1616.48 1126.85 Q1618.58 1123.64 1621.41 1122.05 Q1624.27 1120.45 1628 1120.45 Q1634.14 1120.45 1637.29 1124.27 Q1640.44 1128.06 1640.44 1135.45 Z" fill="#000000" fill-rule="nonzero" fill-opacity="1" /><path clip-path="url(#clip810)" d="M1682.62 1137.67 L1682.62 1140.54 L1655.69 1140.54 Q1656.07 1146.59 1659.32 1149.77 Q1662.6 1152.92 1668.42 1152.92 Q1671.79 1152.92 1674.95 1152.09 Q1678.13 1151.26 1681.25 1149.61 L1681.25 1155.15 Q1678.1 1156.48 1674.79 1157.18 Q1671.48 1157.88 1668.07 1157.88 Q1659.54 1157.88 1654.54 1152.92 Q1649.58 1147.95 1649.58 1139.49 Q1649.58 1130.74 1654.29 1125.61 Q1659.03 1120.45 1667.05 1120.45 Q1674.25 1120.45 1678.42 1125.1 Q1682.62 1129.72 1682.62 1137.67 M1676.76 1135.95 Q1676.7 1131.15 1674.05 1128.28 Q1671.44 1125.42 1667.12 1125.42 Q1662.21 1125.42 1659.25 1128.19 Q1656.33 1130.96 1655.88 1135.99 L1676.76 1135.95 Z" fill="#000000" fill-rule="nonzero" fill-opacity="1" /><path clip-path="url(#clip810)" d="M1708.43 1139.04 Q1701.33 1139.04 1698.59 1140.67 Q1695.86 1142.29 1695.86 1146.2 Q1695.86 1149.32 1697.89 1151.17 Q1699.96 1152.98 1703.5 1152.98 Q1708.37 1152.98 1711.29 1149.55 Q1714.25 1146.08 1714.25 1140.35 L1714.25 1139.04 L1708.43 1139.04 M1720.11 1136.62 L1720.11 1156.96 L1714.25 1156.96 L1714.25 1151.55 Q1712.25 1154.8 1709.26 1156.36 Q1706.27 1157.88 1701.94 1157.88 Q1696.46 1157.88 1693.22 1154.83 Q1690 1151.74 1690 1146.59 Q1690 1140.57 1694.01 1137.51 Q1698.05 1134.46 1706.04 1134.46 L1714.25 1134.46 L1714.25 1133.89 Q1714.25 1129.84 1711.58 1127.65 Q1708.94 1125.42 1704.13 1125.42 Q1701.08 1125.42 1698.18 1126.15 Q1695.28 1126.88 1692.61 1128.35 L1692.61 1122.94 Q1695.83 1121.7 1698.85 1121.09 Q1701.87 1120.45 1704.74 1120.45 Q1712.47 1120.45 1716.29 1124.46 Q1720.11 1128.48 1720.11 1136.62 Z" fill="#000000" fill-rule="nonzero" fill-opacity="1" /><path clip-path="url(#clip810)" d="M1755.63 1138.72 Q1755.63 1132.36 1752.99 1128.86 Q1750.38 1125.36 1745.64 1125.36 Q1740.93 1125.36 1738.28 1128.86 Q1735.67 1132.36 1735.67 1138.72 Q1735.67 1145.06 1738.28 1148.56 Q1740.93 1152.06 1745.64 1152.06 Q1750.38 1152.06 1752.99 1148.56 Q1755.63 1145.06 1755.63 1138.72 M1761.49 1152.54 Q1761.49 1161.64 1757.45 1166.06 Q1753.4 1170.52 1745.06 1170.52 Q1741.98 1170.52 1739.24 1170.04 Q1736.5 1169.6 1733.92 1168.64 L1733.92 1162.95 Q1736.5 1164.35 1739.02 1165.01 Q1741.53 1165.68 1744.14 1165.68 Q1749.9 1165.68 1752.77 1162.66 Q1755.63 1159.67 1755.63 1153.59 L1755.63 1150.69 Q1753.82 1153.84 1750.98 1155.4 Q1748.15 1156.96 1744.2 1156.96 Q1737.65 1156.96 1733.64 1151.96 Q1729.63 1146.97 1729.63 1138.72 Q1729.63 1130.45 1733.64 1125.45 Q1737.65 1120.45 1744.2 1120.45 Q1748.15 1120.45 1750.98 1122.01 Q1753.82 1123.57 1755.63 1126.72 L1755.63 1121.31 L1761.49 1121.31 L1761.49 1152.54 Z" fill="#000000" fill-rule="nonzero" fill-opacity="1" /><path clip-path="url(#clip810)" d="M1804.04 1137.67 L1804.04 1140.54 L1777.12 1140.54 Q1777.5 1146.59 1780.74 1149.77 Q1784.02 1152.92 1789.85 1152.92 Q1793.22 1152.92 1796.37 1152.09 Q1799.55 1151.26 1802.67 1149.61 L1802.67 1155.15 Q1799.52 1156.48 1796.21 1157.18 Q1792.9 1157.88 1789.5 1157.88 Q1780.97 1157.88 1775.97 1152.92 Q1771 1147.95 1771 1139.49 Q1771 1130.74 1775.71 1125.61 Q1780.46 1120.45 1788.48 1120.45 Q1795.67 1120.45 1799.84 1125.1 Q1804.04 1129.72 1804.04 1137.67 M1798.19 1135.95 Q1798.12 1131.15 1795.48 1128.28 Q1792.87 1125.42 1788.54 1125.42 Q1783.64 1125.42 1780.68 1128.19 Q1777.75 1130.96 1777.31 1135.99 L1798.19 1135.95 Z" fill="#000000" fill-rule="nonzero" fill-opacity="1" /><polyline clip-path="url(#clip812)" style="stroke:#000000; stroke-linecap:round; stroke-linejoin:round; stroke-width:2; stroke-opacity:0.1; fill:none" points="270.918,1000.1 3089.76,1000.1 "/>
<polyline clip-path="url(#clip812)" style="stroke:#000000; stroke-linecap:round; stroke-linejoin:round; stroke-width:2; stroke-opacity:0.1; fill:none" points="270.918,667.583 3089.76,667.583 "/>
<polyline clip-path="url(#clip812)" style="stroke:#000000; stroke-linecap:round; stroke-linejoin:round; stroke-width:2; stroke-opacity:0.1; fill:none" points="270.918,335.068 3089.76,335.068 "/>
<polyline clip-path="url(#clip810)" style="stroke:#000000; stroke-linecap:round; stroke-linejoin:round; stroke-width:4; stroke-opacity:1; fill:none" points="270.918,1000.1 270.918,110.236 "/>
<polyline clip-path="url(#clip810)" style="stroke:#000000; stroke-linecap:round; stroke-linejoin:round; stroke-width:4; stroke-opacity:1; fill:none" points="270.918,1000.1 289.815,1000.1 "/>
<polyline clip-path="url(#clip810)" style="stroke:#000000; stroke-linecap:round; stroke-linejoin:round; stroke-width:4; stroke-opacity:1; fill:none" points="270.918,667.583 289.815,667.583 "/>
<polyline clip-path="url(#clip810)" style="stroke:#000000; stroke-linecap:round; stroke-linejoin:round; stroke-width:4; stroke-opacity:1; fill:none" points="270.918,335.068 289.815,335.068 "/>
<path clip-path="url(#clip810)" d="M154.902 1019.89 L162.54 1019.89 L162.54 993.525 L154.23 995.191 L154.23 990.932 L162.494 989.265 L167.17 989.265 L167.17 1019.89 L174.809 1019.89 L174.809 1023.83 L154.902 1023.83 L154.902 1019.89 Z" fill="#000000" fill-rule="nonzero" fill-opacity="1" /><path clip-path="url(#clip810)" d="M194.253 992.344 Q190.642 992.344 188.813 995.909 Q187.008 999.45 187.008 1006.58 Q187.008 1013.69 188.813 1017.25 Q190.642 1020.79 194.253 1020.79 Q197.887 1020.79 199.693 1017.25 Q201.522 1013.69 201.522 1006.58 Q201.522 999.45 199.693 995.909 Q197.887 992.344 194.253 992.344 M194.253 988.64 Q200.063 988.64 203.119 993.247 Q206.198 997.83 206.198 1006.58 Q206.198 1015.31 203.119 1019.91 Q200.063 1024.5 194.253 1024.5 Q188.443 1024.5 185.364 1019.91 Q182.309 1015.31 182.309 1006.58 Q182.309 997.83 185.364 993.247 Q188.443 988.64 194.253 988.64 Z" fill="#000000" fill-rule="nonzero" fill-opacity="1" /><path clip-path="url(#clip810)" d="M206.743 993.218 L212.95 993.218 L212.95 971.796 L206.198 973.15 L206.198 969.689 L212.912 968.335 L216.711 968.335 L216.711 993.218 L222.918 993.218 L222.918 996.415 L206.743 996.415 L206.743 993.218 Z" fill="#000000" fill-rule="nonzero" fill-opacity="1" /><path clip-path="url(#clip810)" d="M153.792 687.375 L161.431 687.375 L161.431 661.01 L153.121 662.676 L153.121 658.417 L161.384 656.75 L166.06 656.75 L166.06 687.375 L173.699 687.375 L173.699 691.31 L153.792 691.31 L153.792 687.375 Z" fill="#000000" fill-rule="nonzero" fill-opacity="1" /><path clip-path="url(#clip810)" d="M193.143 659.829 Q189.532 659.829 187.704 663.394 Q185.898 666.935 185.898 674.065 Q185.898 681.172 187.704 684.736 Q189.532 688.278 193.143 688.278 Q196.778 688.278 198.583 684.736 Q200.412 681.172 200.412 674.065 Q200.412 666.935 198.583 663.394 Q196.778 659.829 193.143 659.829 M193.143 656.125 Q198.954 656.125 202.009 660.732 Q205.088 665.315 205.088 674.065 Q205.088 682.792 202.009 687.398 Q198.954 691.982 193.143 691.982 Q187.333 691.982 184.255 687.398 Q181.199 682.792 181.199 674.065 Q181.199 665.315 184.255 660.732 Q187.333 656.125 193.143 656.125 Z" fill="#000000" fill-rule="nonzero" fill-opacity="1" /><path clip-path="url(#clip810)" d="M209.658 660.703 L222.918 660.703 L222.918 663.9 L205.088 663.9 L205.088 660.703 Q207.251 658.465 210.975 654.703 Q214.717 650.923 215.677 649.832 Q217.501 647.782 218.216 646.371 Q218.949 644.942 218.949 643.569 Q218.949 641.331 217.369 639.92 Q215.808 638.509 213.288 638.509 Q211.501 638.509 209.508 639.13 Q207.533 639.751 205.276 641.011 L205.276 637.174 Q207.57 636.253 209.564 635.782 Q211.558 635.312 213.213 635.312 Q217.576 635.312 220.172 637.494 Q222.767 639.676 222.767 643.324 Q222.767 645.055 222.109 646.616 Q221.469 648.158 219.758 650.264 Q219.288 650.81 216.767 653.424 Q214.247 656.02 209.658 660.703 Z" fill="#000000" fill-rule="nonzero" fill-opacity="1" /><path clip-path="url(#clip810)" d="M153.134 354.86 L160.772 354.86 L160.772 328.495 L152.462 330.161 L152.462 325.902 L160.726 324.235 L165.402 324.235 L165.402 354.86 L173.041 354.86 L173.041 358.795 L153.134 358.795 L153.134 354.86 Z" fill="#000000" fill-rule="nonzero" fill-opacity="1" /><path clip-path="url(#clip810)" d="M192.485 327.314 Q188.874 327.314 187.045 330.879 Q185.24 334.421 185.24 341.55 Q185.24 348.657 187.045 352.221 Q188.874 355.763 192.485 355.763 Q196.119 355.763 197.925 352.221 Q199.754 348.657 199.754 341.55 Q199.754 334.421 197.925 330.879 Q196.119 327.314 192.485 327.314 M192.485 323.61 Q198.295 323.61 201.351 328.217 Q204.43 332.8 204.43 341.55 Q204.43 350.277 201.351 354.883 Q198.295 359.467 192.485 359.467 Q186.675 359.467 183.596 354.883 Q180.541 350.277 180.541 341.55 Q180.541 332.8 183.596 328.217 Q186.675 323.61 192.485 323.61 Z" fill="#000000" fill-rule="nonzero" fill-opacity="1" /><path clip-path="url(#clip810)" d="M217.125 316.245 Q219.852 316.828 221.375 318.671 Q222.918 320.514 222.918 323.222 Q222.918 327.379 220.059 329.655 Q217.2 331.93 211.934 331.93 Q210.166 331.93 208.285 331.573 Q206.423 331.235 204.43 330.539 L204.43 326.871 Q206.009 327.793 207.89 328.263 Q209.771 328.733 211.821 328.733 Q215.395 328.733 217.256 327.323 Q219.137 325.912 219.137 323.222 Q219.137 320.74 217.388 319.348 Q215.658 317.937 212.555 317.937 L209.282 317.937 L209.282 314.815 L212.705 314.815 Q215.507 314.815 216.993 313.706 Q218.479 312.577 218.479 310.471 Q218.479 308.308 216.937 307.161 Q215.413 305.995 212.555 305.995 Q210.994 305.995 209.207 306.333 Q207.42 306.672 205.276 307.386 L205.276 304.001 Q207.439 303.399 209.32 303.098 Q211.219 302.797 212.893 302.797 Q217.219 302.797 219.739 304.772 Q222.259 306.728 222.259 310.076 Q222.259 312.408 220.924 314.025 Q219.589 315.624 217.125 316.245 Z" fill="#000000" fill-rule="nonzero" fill-opacity="1" /><path clip-path="url(#clip810)" d="M42.6863 912.235 L42.6863 882.189 L48.0971 882.189 L48.0971 905.806 L62.1653 905.806 L62.1653 883.176 L67.5762 883.176 L67.5762 905.806 L84.7954 905.806 L84.7954 881.616 L90.2063 881.616 L90.2063 912.235 L42.6863 912.235 Z" fill="#000000" fill-rule="nonzero" fill-opacity="1" /><path clip-path="url(#clip810)" d="M44.2459 842.563 L50.5161 842.563 Q48.7655 846.223 47.9062 849.47 Q47.0468 852.716 47.0468 855.74 Q47.0468 860.991 49.0838 863.856 Q51.1208 866.689 54.8766 866.689 Q58.0276 866.689 59.6509 864.811 Q61.2423 862.901 62.229 857.618 L63.0247 853.735 Q64.3933 846.541 67.8627 843.136 Q71.3001 839.698 77.0929 839.698 Q83.9997 839.698 87.5645 844.345 Q91.1293 848.96 91.1293 857.904 Q91.1293 861.278 90.3654 865.097 Q89.6015 868.885 88.1056 872.959 L81.4853 872.959 Q83.6814 869.044 84.7954 865.288 Q85.9094 861.533 85.9094 857.904 Q85.9094 852.398 83.7451 849.406 Q81.5808 846.414 77.5704 846.414 Q74.0692 846.414 72.0958 848.578 Q70.1225 850.711 69.1358 855.612 L68.3719 859.527 Q66.9396 866.721 63.8841 869.935 Q60.8285 873.15 55.3859 873.15 Q49.0838 873.15 45.4554 868.726 Q41.8269 864.27 41.8269 856.472 Q41.8269 853.13 42.4317 849.66 Q43.0364 846.191 44.2459 842.563 Z" fill="#000000" fill-rule="nonzero" fill-opacity="1" /><path clip-path="url(#clip810)" d="M44.2459 801.186 L50.5161 801.186 Q48.7655 804.846 47.9062 808.092 Q47.0468 811.339 47.0468 814.363 Q47.0468 819.614 49.0838 822.479 Q51.1208 825.312 54.8766 825.312 Q58.0276 825.312 59.6509 823.434 Q61.2423 821.524 62.229 816.241 L63.0247 812.357 Q64.3933 805.164 67.8627 801.759 Q71.3001 798.321 77.0929 798.321 Q83.9997 798.321 87.5645 802.968 Q91.1293 807.583 91.1293 816.527 Q91.1293 819.901 90.3654 823.72 Q89.6015 827.508 88.1056 831.582 L81.4853 831.582 Q83.6814 827.667 84.7954 823.911 Q85.9094 820.155 85.9094 816.527 Q85.9094 811.021 83.7451 808.029 Q81.5808 805.037 77.5704 805.037 Q74.0692 805.037 72.0958 807.201 Q70.1225 809.334 69.1358 814.235 L68.3719 818.15 Q66.9396 825.343 63.8841 828.558 Q60.8285 831.773 55.3859 831.773 Q49.0838 831.773 45.4554 827.349 Q41.8269 822.893 41.8269 815.095 Q41.8269 811.753 42.4317 808.283 Q43.0364 804.814 44.2459 801.186 Z" fill="#000000" fill-rule="nonzero" fill-opacity="1" /><path clip-path="url(#clip810)" d="M82.1218 787.054 L82.1218 780.338 L90.2063 780.338 L90.2063 787.054 L82.1218 787.054 M56.4999 787.054 L56.4999 780.338 L64.5843 780.338 L64.5843 787.054 L56.4999 787.054 Z" fill="#000000" fill-rule="nonzero" fill-opacity="1" /><path clip-path="url(#clip810)" d="M42.6863 745.613 L42.6863 715.567 L48.0971 715.567 L48.0971 739.184 L62.1653 739.184 L62.1653 716.554 L67.5762 716.554 L67.5762 739.184 L84.7954 739.184 L84.7954 714.994 L90.2063 714.994 L90.2063 745.613 L42.6863 745.613 Z" fill="#000000" fill-rule="nonzero" fill-opacity="1" /><path clip-path="url(#clip810)" d="M68.6902 675.049 L90.2063 675.049 L90.2063 680.906 L68.8812 680.906 Q63.8204 680.906 61.306 682.879 Q58.7915 684.852 58.7915 688.799 Q58.7915 693.542 61.8152 696.279 Q64.8389 699.016 70.0588 699.016 L90.2063 699.016 L90.2063 704.904 L54.5583 704.904 L54.5583 699.016 L60.0965 699.016 Q56.8818 696.915 55.2904 694.083 Q53.699 691.218 53.699 687.494 Q53.699 681.351 57.5184 678.2 Q61.306 675.049 68.6902 675.049 Z" fill="#000000" fill-rule="nonzero" fill-opacity="1" /><path clip-path="url(#clip810)" d="M71.9685 639.91 Q65.6028 639.91 62.1017 642.552 Q58.6006 645.162 58.6006 649.905 Q58.6006 654.615 62.1017 657.257 Q65.6028 659.867 71.9685 659.867 Q78.3024 659.867 81.8036 657.257 Q85.3047 654.615 85.3047 649.905 Q85.3047 645.162 81.8036 642.552 Q78.3024 639.91 71.9685 639.91 M85.7821 634.054 Q94.8851 634.054 99.3092 638.096 Q103.765 642.138 103.765 650.478 Q103.765 653.565 103.288 656.302 Q102.842 659.039 101.887 661.617 L96.19 661.617 Q97.5905 659.039 98.2589 656.525 Q98.9273 654.01 98.9273 651.401 Q98.9273 645.64 95.9036 642.775 Q92.9117 639.91 86.8325 639.91 L83.9361 639.91 Q87.0871 641.725 88.6467 644.557 Q90.2063 647.39 90.2063 651.337 Q90.2063 657.894 85.2092 661.904 Q80.2121 665.914 71.9685 665.914 Q63.6931 665.914 58.696 661.904 Q53.699 657.894 53.699 651.337 Q53.699 647.39 55.2586 644.557 Q56.8182 641.725 59.9692 639.91 L54.5583 639.91 L54.5583 634.054 L85.7821 634.054 Z" fill="#000000" fill-rule="nonzero" fill-opacity="1" /><path clip-path="url(#clip810)" d="M40.6811 621.991 L40.6811 616.135 L90.2063 616.135 L90.2063 621.991 L40.6811 621.991 Z" fill="#000000" fill-rule="nonzero" fill-opacity="1" /><path clip-path="url(#clip810)" d="M72.2868 587.68 Q72.2868 594.778 73.9101 597.515 Q75.5333 600.252 79.4482 600.252 Q82.5674 600.252 84.4135 598.215 Q86.2277 596.146 86.2277 592.613 Q86.2277 587.743 82.7902 584.815 Q79.3209 581.855 73.5918 581.855 L72.2868 581.855 L72.2868 587.68 M69.8679 575.999 L90.2063 575.999 L90.2063 581.855 L84.7954 581.855 Q88.0419 583.86 89.6015 586.852 Q91.1293 589.844 91.1293 594.173 Q91.1293 599.647 88.0738 602.894 Q84.9864 606.109 79.8302 606.109 Q73.8146 606.109 70.759 602.098 Q67.7035 598.056 67.7035 590.067 L67.7035 581.855 L67.1306 581.855 Q63.0884 581.855 60.8922 584.529 Q58.6642 587.171 58.6642 591.977 Q58.6642 595.032 59.3963 597.929 Q60.1283 600.825 61.5924 603.499 L56.1816 603.499 Q54.9403 600.284 54.3355 597.26 Q53.699 594.236 53.699 591.372 Q53.699 583.638 57.7094 579.818 Q61.7197 575.999 69.8679 575.999 Z" fill="#000000" fill-rule="nonzero" fill-opacity="1" /><path clip-path="url(#clip810)" d="M68.6902 534.303 L90.2063 534.303 L90.2063 540.16 L68.8812 540.16 Q63.8204 540.16 61.306 542.133 Q58.7915 544.107 58.7915 548.053 Q58.7915 552.796 61.8152 555.533 Q64.8389 558.27 70.0588 558.27 L90.2063 558.27 L90.2063 564.159 L54.5583 564.159 L54.5583 558.27 L60.0965 558.27 Q56.8818 556.17 55.2904 553.337 Q53.699 550.472 53.699 546.748 Q53.699 540.605 57.5184 537.454 Q61.306 534.303 68.6902 534.303 Z" fill="#000000" fill-rule="nonzero" fill-opacity="1" /><path clip-path="url(#clip810)" d="M59.9692 499.165 L40.6811 499.165 L40.6811 493.308 L90.2063 493.308 L90.2063 499.165 L84.8591 499.165 Q88.0419 501.011 89.6015 503.843 Q91.1293 506.644 91.1293 510.591 Q91.1293 517.052 85.9731 521.126 Q80.8169 525.169 72.4141 525.169 Q64.0114 525.169 58.8552 521.126 Q53.699 517.052 53.699 510.591 Q53.699 506.644 55.2586 503.843 Q56.7863 501.011 59.9692 499.165 M72.4141 519.121 Q78.8753 519.121 82.5674 516.479 Q86.2277 513.806 86.2277 509.159 Q86.2277 504.512 82.5674 501.838 Q78.8753 499.165 72.4141 499.165 Q65.9529 499.165 62.2927 501.838 Q58.6006 504.512 58.6006 509.159 Q58.6006 513.806 62.2927 516.479 Q65.9529 519.121 72.4141 519.121 Z" fill="#000000" fill-rule="nonzero" fill-opacity="1" /><path clip-path="url(#clip810)" d="M82.1218 479.749 L82.1218 473.033 L87.5963 473.033 L97.7815 478.253 L97.7815 482.359 L87.5963 479.749 L82.1218 479.749 Z" fill="#000000" fill-rule="nonzero" fill-opacity="1" /><path clip-path="url(#clip810)" d="M44.4369 434.012 L54.5583 434.012 L54.5583 421.949 L59.1098 421.949 L59.1098 434.012 L78.4616 434.012 Q82.8221 434.012 84.0634 432.834 Q85.3047 431.625 85.3047 427.964 L85.3047 421.949 L90.2063 421.949 L90.2063 427.964 Q90.2063 434.744 87.6918 437.322 Q85.1455 439.9 78.4616 439.9 L59.1098 439.9 L59.1098 444.197 L54.5583 444.197 L54.5583 439.9 L44.4369 439.9 L44.4369 434.012 Z" fill="#000000" fill-rule="nonzero" fill-opacity="1" /><path clip-path="url(#clip810)" d="M54.5583 414.246 L54.5583 408.39 L90.2063 408.39 L90.2063 414.246 L54.5583 414.246 M40.6811 414.246 L40.6811 408.39 L48.0971 408.39 L48.0971 414.246 L40.6811 414.246 Z" fill="#000000" fill-rule="nonzero" fill-opacity="1" /><path clip-path="url(#clip810)" d="M61.4015 368.381 Q57.4547 366.185 55.5768 363.13 Q53.699 360.074 53.699 355.936 Q53.699 350.366 57.6139 347.343 Q61.4969 344.319 68.6902 344.319 L90.2063 344.319 L90.2063 350.207 L68.8812 350.207 Q63.7568 350.207 61.2741 352.021 Q58.7915 353.836 58.7915 357.56 Q58.7915 362.111 61.8152 364.753 Q64.8389 367.395 70.0588 367.395 L90.2063 367.395 L90.2063 373.283 L68.8812 373.283 Q63.7249 373.283 61.2741 375.097 Q58.7915 376.911 58.7915 380.699 Q58.7915 385.187 61.8471 387.828 Q64.8708 390.47 70.0588 390.47 L90.2063 390.47 L90.2063 396.359 L54.5583 396.359 L54.5583 390.47 L60.0965 390.47 Q56.8182 388.465 55.2586 385.664 Q53.699 382.863 53.699 379.012 Q53.699 375.129 55.6723 372.423 Q57.6457 369.686 61.4015 368.381 Z" fill="#000000" fill-rule="nonzero" fill-opacity="1" /><path clip-path="url(#clip810)" d="M70.9182 302.146 L73.7828 302.146 L73.7828 329.073 Q79.8302 328.691 83.013 325.445 Q86.1641 322.166 86.1641 316.342 Q86.1641 312.968 85.3365 309.817 Q84.509 306.634 82.8539 303.515 L88.3921 303.515 Q89.7289 306.666 90.4291 309.976 Q91.1293 313.286 91.1293 316.692 Q91.1293 325.222 86.1641 330.219 Q81.1988 335.184 72.7324 335.184 Q63.9796 335.184 58.8552 330.473 Q53.699 325.731 53.699 317.71 Q53.699 310.517 58.3459 306.347 Q62.9611 302.146 70.9182 302.146 M69.1995 308.002 Q64.3933 308.066 61.5288 310.708 Q58.6642 313.318 58.6642 317.647 Q58.6642 322.548 61.4333 325.508 Q64.2024 328.436 69.2313 328.882 L69.1995 308.002 Z" fill="#000000" fill-rule="nonzero" fill-opacity="1" /><path clip-path="url(#clip810)" d="M82.1218 291.038 L82.1218 284.322 L90.2063 284.322 L90.2063 291.038 L82.1218 291.038 M56.4999 291.038 L56.4999 284.322 L64.5843 284.322 L64.5843 291.038 L56.4999 291.038 Z" fill="#000000" fill-rule="nonzero" fill-opacity="1" /><path clip-path="url(#clip810)" d="M42.6863 269.681 L42.6863 244.441 L48.0971 244.441 L48.0971 263.793 L59.7464 263.793 Q59.2689 262.392 59.0461 260.992 Q58.7915 259.591 58.7915 258.191 Q58.7915 250.234 63.152 245.587 Q67.5125 240.94 74.9604 240.94 Q82.6311 240.94 86.8961 245.714 Q91.1293 250.488 91.1293 259.178 Q91.1293 262.169 90.6201 265.289 Q90.1108 268.376 89.0923 271.686 L82.6311 271.686 Q84.1907 268.822 84.9546 265.766 Q85.7185 262.71 85.7185 259.305 Q85.7185 253.799 82.8221 250.584 Q79.9257 247.369 74.9604 247.369 Q69.9952 247.369 67.0988 250.584 Q64.2024 253.799 64.2024 259.305 Q64.2024 261.883 64.7753 264.461 Q65.3482 267.007 66.5577 269.681 L42.6863 269.681 Z" fill="#000000" fill-rule="nonzero" fill-opacity="1" /><path clip-path="url(#clip810)" d="M46.9195 214.522 Q46.9195 219.487 51.8211 222.002 Q56.6908 224.484 66.494 224.484 Q76.2654 224.484 81.167 222.002 Q86.0367 219.487 86.0367 214.522 Q86.0367 209.525 81.167 207.042 Q76.2654 204.528 66.494 204.528 Q56.6908 204.528 51.8211 207.042 Q46.9195 209.525 46.9195 214.522 M41.8269 214.522 Q41.8269 206.533 48.1608 202.332 Q54.4628 198.099 66.494 198.099 Q78.4934 198.099 84.8273 202.332 Q91.1293 206.533 91.1293 214.522 Q91.1293 222.511 84.8273 226.744 Q78.4934 230.946 66.494 230.946 Q54.4628 230.946 48.1608 226.744 Q41.8269 222.511 41.8269 214.522 Z" fill="#000000" fill-rule="nonzero" fill-opacity="1" /><polyline clip-path="url(#clip812)" style="stroke:#009af9; stroke-linecap:round; stroke-linejoin:round; stroke-width:4; stroke-opacity:1; fill:none" points="350.696,531.831 358.404,180.844 366.112,210.031 373.821,168.422 381.529,158.964 389.237,155.01 396.945,185.413 404.653,152.658 412.361,208.684 420.069,161.765 427.777,180.683 435.485,164.645 443.193,164.074 450.901,167.43 458.609,179.802 466.318,147.431 474.026,143.115 481.734,165.035 489.442,165.411 497.15,140.802 504.858,223.278 512.566,202.432 520.274,159.73 527.982,133.782 535.69,196.003 543.398,184.057 551.106,170.22 558.815,213.765 566.523,181.113 574.231,188.125 581.939,168.134 589.647,141.883 597.355,190.184 605.063,152.559 612.771,148.564 620.479,135.341 628.187,138.955 635.895,169.985 643.603,158.988 651.312,189.178 659.02,186.906 666.728,186.453 674.436,141.003 682.144,152.045 689.852,152.854 697.56,166.029 705.268,149.254 712.976,164.741 720.684,141.011 728.392,180.587 736.1,160.815 743.809,168.851 751.517,208.996 759.225,215.549 766.933,137.963 774.641,149.876 782.349,133.291 790.057,134.598 797.765,175.004 805.473,148.275 813.181,187.243 820.889,138.356 828.597,149.057 836.306,147.803 844.014,149.373 851.722,184.037 859.43,175.772 867.138,159.034 874.846,156.072 882.554,175.842 890.262,117.167 897.97,174.826 905.678,157.392 913.386,148.026 921.094,166.128 928.803,187.588 936.511,164.437 944.219,150.508 951.927,191.611 959.635,151.444 967.343,168.39 975.051,170.11 982.759,155.385 990.467,163.172 998.175,165.85 1005.88,176.749 1013.59,167.09 1021.3,194.785 1029.01,185.277 1036.72,146.849 1044.42,163.83 1052.13,190.936 1059.84,168.276 1067.55,189.189 1075.26,158.16 1082.96,168.272 1090.67,182.661 1098.38,138.979 1106.09,165.398 1113.8,169.886 1121.5,138.972 1129.21,183.469 1136.92,162.168 1144.63,164.129 1152.34,161.161 1160.05,183.941 1167.75,209.174 1175.46,156.823 1183.17,177.646 1190.88,195.456 1198.59,198.823 1206.29,187.781 1214,170.279 1221.71,172.366 1229.42,220.559 1237.13,146.421 1244.83,157.534 1252.54,188.991 1260.25,138.174 1267.96,160.294 1275.67,143.529 1283.37,162.124 1291.08,172.908 1298.79,166.83 1306.5,143.556 1314.21,175.962 1321.91,158.825 1329.62,181.224 1337.33,165.476 1345.04,190.705 1352.75,129.918 1360.46,110.236 1368.16,135.454 1375.87,135.963 1383.58,164.068 1391.29,159.545 1399,137.58 1406.7,154.809 1414.41,183.198 1422.12,137.168 1429.83,161.217 1437.54,146.473 1445.24,119.74 1452.95,138.214 1460.66,135.542 1468.37,164.271 1476.08,149.247 1483.78,152.774 1491.49,187.371 1499.2,167.791 1506.91,160.063 1514.62,178.858 1522.32,188.806 1530.03,184.381 1537.74,170.58 1545.45,135.698 1553.16,178.733 1560.87,141.985 1568.57,171.812 1576.28,147.161 1583.99,142.46 1591.7,199.685 1599.41,149.513 1607.11,163.295 1614.82,176.463 1622.53,168.346 1630.24,156.061 1637.95,182.887 1645.65,165.331 1653.36,145.676 1661.07,159.212 1668.78,125.832 1676.49,198.921 1684.19,133.636 1691.9,136.891 1699.61,157.1 1707.32,154.736 1715.03,160.651 1722.74,169.385 1730.44,165.924 1738.15,164.51 1745.86,129.638 1753.57,160.345 1761.28,191.192 1768.98,139.483 1776.69,120.006 1784.4,171.942 1792.11,121.298 1799.82,168.448 1807.52,148.417 1815.23,147.323 1822.94,170.404 1830.65,143.267 1838.36,112.783 1846.06,128.328 1853.77,132.889 1861.48,202.962 1869.19,154.466 1876.9,144.385 1884.6,155.105 1892.31,180.801 1900.02,162.942 1907.73,135.293 1915.44,128.505 1923.15,168.935 1930.85,195.153 1938.56,138.111 1946.27,126.823 1953.98,161.036 1961.69,161.821 1969.39,155.535 1977.1,147.13 1984.81,161.539 1992.52,151.489 2000.23,178.124 2007.93,140.003 2015.64,174.1 2023.35,144.788 2031.06,145.446 2038.77,181.365 2046.47,167.724 2054.18,149.625 2061.89,170.453 2069.6,208.045 2077.31,162.686 2085.02,152.692 2092.72,186.277 2100.43,148.099 2108.14,170.369 2115.85,136.68 2123.56,193.631 2131.26,130.028 2138.97,167.625 2146.68,173.794 2154.39,155.242 2162.1,145.536 2169.8,140.254 2177.51,173.185 2185.22,137.183 2192.93,191.377 2200.64,156.171 2208.34,152.266 2216.05,172.339 2223.76,166.796 2231.47,130 2239.18,145.006 2246.88,198.969 2254.59,156.83 2262.3,151.997 2270.01,164.737 2277.72,168.843 2285.43,232.701 2293.13,169.149 2300.84,126.069 2308.55,166.146 2316.26,197.97 2323.97,178.685 2331.67,161.867 2339.38,199.137 2347.09,157.579 2354.8,146.455 2362.51,168.808 2370.21,164.376 2377.92,169.086 2385.63,141.583 2393.34,139.305 2401.05,148.527 2408.75,209.321 2416.46,150.395 2424.17,175.372 2431.88,148.285 2439.59,161.906 2447.3,165.057 2455,169.532 2462.71,202.509 2470.42,166.852 2478.13,157.961 2485.84,137.524 2493.54,198.936 2501.25,181.051 2508.96,177.203 2516.67,150.441 2524.38,170.039 2532.08,182.968 2539.79,143.96 2547.5,172.8 2555.21,132.79 2562.92,144.294 2570.62,155.564 2578.33,156.317 2586.04,184.278 2593.75,163.255 2601.46,200.972 2609.16,157.88 2616.87,138.114 2624.58,159.888 2632.29,203.909 2640,115.504 2647.71,147.719 2655.41,169.678 2663.12,154.871 2670.83,149.345 2678.54,177.376 2686.25,149.325 2693.95,179.972 2701.66,155.026 2709.37,155.399 2717.08,158.826 2724.79,149.321 2732.49,183.387 2740.2,164.941 2747.91,150.61 2755.62,177.441 2763.33,146.87 2771.03,139.853 2778.74,161.845 2786.45,158.453 2794.16,149.344 2801.87,168.134 2809.57,168.953 2817.28,144.719 2824.99,173.394 2832.7,155.206 2840.41,143.49 2848.12,189.659 2855.82,156.9 2863.53,170.022 2871.24,176.993 2878.95,152.264 2886.66,162.371 2894.36,182.41 2902.07,133.907 2909.78,191.239 2917.49,148.569 2925.2,156.228 2932.9,165.316 2940.61,174.341 2948.32,163.616 2956.03,161.838 2963.74,159.374 2971.44,146.663 2979.15,179.899 2986.86,158.5 2994.57,139.878 3002.28,157.383 3009.99,168.005 "/>
</svg>
