<?xml version="1.0" encoding="utf-8"?>
<svg xmlns="http://www.w3.org/2000/svg" xmlns:xlink="http://www.w3.org/1999/xlink" width="800" height="300" viewBox="0 0 3200 1200">
<defs>
  <clipPath id="clip830">
    <rect x="0" y="0" width="3200" height="1200"/>
  </clipPath>
</defs>
<path clip-path="url(#clip830)" d="M0 1200 L3200 1200 L3200 0 L0 0  Z" fill="#ffffff" fill-rule="evenodd" fill-opacity="1"/>
<defs>
  <clipPath id="clip831">
    <rect x="640" y="0" width="2241" height="1200"/>
  </clipPath>
</defs>
<path clip-path="url(#clip830)" d="M270.918 1000.1 L3089.76 1000.1 L3089.76 110.236 L270.918 110.236  Z" fill="#ffffff" fill-rule="evenodd" fill-opacity="1"/>
<defs>
  <clipPath id="clip832">
    <rect x="270" y="110" width="2820" height="891"/>
  </clipPath>
</defs>
<polyline clip-path="url(#clip832)" style="stroke:#000000; stroke-linecap:round; stroke-linejoin:round; stroke-width:2; stroke-opacity:0.1; fill:none" points="330.702,1000.1 330.702,110.236 "/>
<polyline clip-path="url(#clip832)" style="stroke:#000000; stroke-linecap:round; stroke-linejoin:round; stroke-width:2; stroke-opacity:0.1; fill:none" points="730.595,1000.1 730.595,110.236 "/>
<polyline clip-path="url(#clip832)" style="stroke:#000000; stroke-linecap:round; stroke-linejoin:round; stroke-width:2; stroke-opacity:0.1; fill:none" points="1130.49,1000.1 1130.49,110.236 "/>
<polyline clip-path="url(#clip832)" style="stroke:#000000; stroke-linecap:round; stroke-linejoin:round; stroke-width:2; stroke-opacity:0.1; fill:none" points="1530.38,1000.1 1530.38,110.236 "/>
<polyline clip-path="url(#clip832)" style="stroke:#000000; stroke-linecap:round; stroke-linejoin:round; stroke-width:2; stroke-opacity:0.1; fill:none" points="1930.27,1000.1 1930.27,110.236 "/>
<polyline clip-path="url(#clip832)" style="stroke:#000000; stroke-linecap:round; stroke-linejoin:round; stroke-width:2; stroke-opacity:0.1; fill:none" points="2330.17,1000.1 2330.17,110.236 "/>
<polyline clip-path="url(#clip832)" style="stroke:#000000; stroke-linecap:round; stroke-linejoin:round; stroke-width:2; stroke-opacity:0.1; fill:none" points="2730.06,1000.1 2730.06,110.236 "/>
<polyline clip-path="url(#clip830)" style="stroke:#000000; stroke-linecap:round; stroke-linejoin:round; stroke-width:4; stroke-opacity:1; fill:none" points="270.918,1000.1 3089.76,1000.1 "/>
<polyline clip-path="url(#clip830)" style="stroke:#000000; stroke-linecap:round; stroke-linejoin:round; stroke-width:4; stroke-opacity:1; fill:none" points="330.702,1000.1 330.702,981.2 "/>
<polyline clip-path="url(#clip830)" style="stroke:#000000; stroke-linecap:round; stroke-linejoin:round; stroke-width:4; stroke-opacity:1; fill:none" points="730.595,1000.1 730.595,981.2 "/>
<polyline clip-path="url(#clip830)" style="stroke:#000000; stroke-linecap:round; stroke-linejoin:round; stroke-width:4; stroke-opacity:1; fill:none" points="1130.49,1000.1 1130.49,981.2 "/>
<polyline clip-path="url(#clip830)" style="stroke:#000000; stroke-linecap:round; stroke-linejoin:round; stroke-width:4; stroke-opacity:1; fill:none" points="1530.38,1000.1 1530.38,981.2 "/>
<polyline clip-path="url(#clip830)" style="stroke:#000000; stroke-linecap:round; stroke-linejoin:round; stroke-width:4; stroke-opacity:1; fill:none" points="1930.27,1000.1 1930.27,981.2 "/>
<polyline clip-path="url(#clip830)" style="stroke:#000000; stroke-linecap:round; stroke-linejoin:round; stroke-width:4; stroke-opacity:1; fill:none" points="2330.17,1000.1 2330.17,981.2 "/>
<polyline clip-path="url(#clip830)" style="stroke:#000000; stroke-linecap:round; stroke-linejoin:round; stroke-width:4; stroke-opacity:1; fill:none" points="2730.06,1000.1 2730.06,981.2 "/>
<path clip-path="url(#clip830)" d="M330.702 1037.42 Q327.091 1037.42 325.262 1040.98 Q323.456 1044.52 323.456 1051.65 Q323.456 1058.76 325.262 1062.32 Q327.091 1065.87 330.702 1065.87 Q334.336 1065.87 336.141 1062.32 Q337.97 1058.76 337.97 1051.65 Q337.97 1044.52 336.141 1040.98 Q334.336 1037.42 330.702 1037.42 M330.702 1033.71 Q336.512 1033.71 339.567 1038.32 Q342.646 1042.9 342.646 1051.65 Q342.646 1060.38 339.567 1064.99 Q336.512 1069.57 330.702 1069.57 Q324.891 1069.57 321.813 1064.99 Q318.757 1060.38 318.757 1051.65 Q318.757 1042.9 321.813 1038.32 Q324.891 1033.71 330.702 1033.71 Z" fill="#000000" fill-rule="nonzero" fill-opacity="1" /><path clip-path="url(#clip830)" d="M709.368 1064.96 L725.687 1064.96 L725.687 1068.9 L703.743 1068.9 L703.743 1064.96 Q706.405 1062.21 710.988 1057.58 Q715.595 1052.93 716.775 1051.58 Q719.021 1049.06 719.9 1047.32 Q720.803 1045.56 720.803 1043.87 Q720.803 1041.12 718.859 1039.38 Q716.937 1037.65 713.836 1037.65 Q711.636 1037.65 709.183 1038.41 Q706.752 1039.18 703.974 1040.73 L703.974 1036 Q706.799 1034.87 709.252 1034.29 Q711.706 1033.71 713.743 1033.71 Q719.113 1033.71 722.308 1036.4 Q725.502 1039.08 725.502 1043.57 Q725.502 1045.7 724.692 1047.62 Q723.905 1049.52 721.798 1052.12 Q721.22 1052.79 718.118 1056 Q715.016 1059.2 709.368 1064.96 Z" fill="#000000" fill-rule="nonzero" fill-opacity="1" /><path clip-path="url(#clip830)" d="M745.502 1037.42 Q741.891 1037.42 740.062 1040.98 Q738.257 1044.52 738.257 1051.65 Q738.257 1058.76 740.062 1062.32 Q741.891 1065.87 745.502 1065.87 Q749.136 1065.87 750.942 1062.32 Q752.771 1058.76 752.771 1051.65 Q752.771 1044.52 750.942 1040.98 Q749.136 1037.42 745.502 1037.42 M745.502 1033.71 Q751.312 1033.71 754.368 1038.32 Q757.446 1042.9 757.446 1051.65 Q757.446 1060.38 754.368 1064.99 Q751.312 1069.57 745.502 1069.57 Q739.692 1069.57 736.613 1064.99 Q733.558 1060.38 733.558 1051.65 Q733.558 1042.9 736.613 1038.32 Q739.692 1033.71 745.502 1033.71 Z" fill="#000000" fill-rule="nonzero" fill-opacity="1" /><path clip-path="url(#clip830)" d="M1118.66 1038.41 L1106.85 1056.86 L1118.66 1056.86 L1118.66 1038.41 M1117.43 1034.34 L1123.31 1034.34 L1123.31 1056.86 L1128.24 1056.86 L1128.24 1060.75 L1123.31 1060.75 L1123.31 1068.9 L1118.66 1068.9 L1118.66 1060.75 L1103.06 1060.75 L1103.06 1056.24 L1117.43 1034.34 Z" fill="#000000" fill-rule="nonzero" fill-opacity="1" /><path clip-path="url(#clip830)" d="M1145.97 1037.42 Q1142.36 1037.42 1140.53 1040.98 Q1138.73 1044.52 1138.73 1051.65 Q1138.73 1058.76 1140.53 1062.32 Q1142.36 1065.87 1145.97 1065.87 Q1149.61 1065.87 1151.41 1062.32 Q1153.24 1058.76 1153.24 1051.65 Q1153.24 1044.52 1151.41 1040.98 Q1149.61 1037.42 1145.97 1037.42 M1145.97 1033.71 Q1151.78 1033.71 1154.84 1038.32 Q1157.92 1042.9 1157.92 1051.65 Q1157.92 1060.38 1154.84 1064.99 Q1151.78 1069.57 1145.97 1069.57 Q1140.16 1069.57 1137.08 1064.99 Q1134.03 1060.38 1134.03 1051.65 Q1134.03 1042.9 1137.08 1038.32 Q1140.16 1033.71 1145.97 1033.71 Z" fill="#000000" fill-rule="nonzero" fill-opacity="1" /><path clip-path="url(#clip830)" d="M1515.79 1049.75 Q1512.64 1049.75 1510.79 1051.91 Q1508.96 1054.06 1508.96 1057.81 Q1508.96 1061.54 1510.79 1063.71 Q1512.64 1065.87 1515.79 1065.87 Q1518.93 1065.87 1520.76 1063.71 Q1522.61 1061.54 1522.61 1057.81 Q1522.61 1054.06 1520.76 1051.91 Q1518.93 1049.75 1515.79 1049.75 M1525.07 1035.1 L1525.07 1039.36 Q1523.31 1038.53 1521.5 1038.09 Q1519.72 1037.65 1517.96 1037.65 Q1513.33 1037.65 1510.88 1040.77 Q1508.45 1043.9 1508.1 1050.22 Q1509.47 1048.2 1511.53 1047.14 Q1513.59 1046.05 1516.06 1046.05 Q1521.27 1046.05 1524.28 1049.22 Q1527.31 1052.37 1527.31 1057.81 Q1527.31 1063.13 1524.17 1066.35 Q1521.02 1069.57 1515.79 1069.57 Q1509.79 1069.57 1506.62 1064.99 Q1503.45 1060.38 1503.45 1051.65 Q1503.45 1043.46 1507.34 1038.6 Q1511.23 1033.71 1517.78 1033.71 Q1519.54 1033.71 1521.32 1034.06 Q1523.12 1034.41 1525.07 1035.1 Z" fill="#000000" fill-rule="nonzero" fill-opacity="1" /><path clip-path="url(#clip830)" d="M1545.37 1037.42 Q1541.76 1037.42 1539.93 1040.98 Q1538.12 1044.52 1538.12 1051.65 Q1538.12 1058.76 1539.93 1062.32 Q1541.76 1065.87 1545.37 1065.87 Q1549 1065.87 1550.81 1062.32 Q1552.64 1058.76 1552.64 1051.65 Q1552.64 1044.52 1550.81 1040.98 Q1549 1037.42 1545.37 1037.42 M1545.37 1033.71 Q1551.18 1033.71 1554.23 1038.32 Q1557.31 1042.9 1557.31 1051.65 Q1557.31 1060.38 1554.23 1064.99 Q1551.18 1069.57 1545.37 1069.57 Q1539.56 1069.57 1536.48 1064.99 Q1533.42 1060.38 1533.42 1051.65 Q1533.42 1042.9 1536.48 1038.32 Q1539.56 1033.71 1545.37 1033.71 Z" fill="#000000" fill-rule="nonzero" fill-opacity="1" /><path clip-path="url(#clip830)" d="M1915.15 1052.49 Q1911.81 1052.49 1909.89 1054.27 Q1907.99 1056.05 1907.99 1059.18 Q1907.99 1062.3 1909.89 1064.08 Q1911.81 1065.87 1915.15 1065.87 Q1918.48 1065.87 1920.4 1064.08 Q1922.32 1062.28 1922.32 1059.18 Q1922.32 1056.05 1920.4 1054.27 Q1918.5 1052.49 1915.15 1052.49 M1910.47 1050.5 Q1907.46 1049.75 1905.77 1047.69 Q1904.11 1045.63 1904.11 1042.67 Q1904.11 1038.53 1907.04 1036.12 Q1910.01 1033.71 1915.15 1033.71 Q1920.31 1033.71 1923.25 1036.12 Q1926.19 1038.53 1926.19 1042.67 Q1926.19 1045.63 1924.5 1047.69 Q1922.83 1049.75 1919.85 1050.5 Q1923.23 1051.28 1925.1 1053.57 Q1927 1055.87 1927 1059.18 Q1927 1064.2 1923.92 1066.88 Q1920.86 1069.57 1915.15 1069.57 Q1909.43 1069.57 1906.35 1066.88 Q1903.29 1064.2 1903.29 1059.18 Q1903.29 1055.87 1905.19 1053.57 Q1907.09 1051.28 1910.47 1050.5 M1908.76 1043.11 Q1908.76 1045.8 1910.42 1047.3 Q1912.11 1048.81 1915.15 1048.81 Q1918.16 1048.81 1919.85 1047.3 Q1921.56 1045.8 1921.56 1043.11 Q1921.56 1040.43 1919.85 1038.92 Q1918.16 1037.42 1915.15 1037.42 Q1912.11 1037.42 1910.42 1038.92 Q1908.76 1040.43 1908.76 1043.11 Z" fill="#000000" fill-rule="nonzero" fill-opacity="1" /><path clip-path="url(#clip830)" d="M1945.31 1037.42 Q1941.7 1037.42 1939.87 1040.98 Q1938.06 1044.52 1938.06 1051.65 Q1938.06 1058.76 1939.87 1062.32 Q1941.7 1065.87 1945.31 1065.87 Q1948.94 1065.87 1950.75 1062.32 Q1952.58 1058.76 1952.58 1051.65 Q1952.58 1044.52 1950.75 1040.98 Q1948.94 1037.42 1945.31 1037.42 M1945.31 1033.71 Q1951.12 1033.71 1954.17 1038.32 Q1957.25 1042.9 1957.25 1051.65 Q1957.25 1060.38 1954.17 1064.99 Q1951.12 1069.57 1945.31 1069.57 Q1939.5 1069.57 1936.42 1064.99 Q1933.36 1060.38 1933.36 1051.65 Q1933.36 1042.9 1936.42 1038.32 Q1939.5 1033.71 1945.31 1033.71 Z" fill="#000000" fill-rule="nonzero" fill-opacity="1" /><path clip-path="url(#clip830)" d="M2289.77 1064.96 L2297.41 1064.96 L2297.41 1038.6 L2289.1 1040.26 L2289.1 1036 L2297.37 1034.34 L2302.04 1034.34 L2302.04 1064.96 L2309.68 1064.96 L2309.68 1068.9 L2289.77 1068.9 L2289.77 1064.96 Z" fill="#000000" fill-rule="nonzero" fill-opacity="1" /><path clip-path="url(#clip830)" d="M2329.13 1037.42 Q2325.51 1037.42 2323.69 1040.98 Q2321.88 1044.52 2321.88 1051.65 Q2321.88 1058.76 2323.69 1062.32 Q2325.51 1065.87 2329.13 1065.87 Q2332.76 1065.87 2334.57 1062.32 Q2336.39 1058.76 2336.39 1051.65 Q2336.39 1044.52 2334.57 1040.98 Q2332.76 1037.42 2329.13 1037.42 M2329.13 1033.71 Q2334.94 1033.71 2337.99 1038.32 Q2341.07 1042.9 2341.07 1051.65 Q2341.07 1060.38 2337.99 1064.99 Q2334.94 1069.57 2329.13 1069.57 Q2323.32 1069.57 2320.24 1064.99 Q2317.18 1060.38 2317.18 1051.65 Q2317.18 1042.9 2320.24 1038.32 Q2323.32 1033.71 2329.13 1033.71 Z" fill="#000000" fill-rule="nonzero" fill-opacity="1" /><path clip-path="url(#clip830)" d="M2359.29 1037.42 Q2355.68 1037.42 2353.85 1040.98 Q2352.04 1044.52 2352.04 1051.65 Q2352.04 1058.76 2353.85 1062.32 Q2355.68 1065.87 2359.29 1065.87 Q2362.92 1065.87 2364.73 1062.32 Q2366.56 1058.76 2366.56 1051.65 Q2366.56 1044.52 2364.73 1040.98 Q2362.92 1037.42 2359.29 1037.42 M2359.29 1033.71 Q2365.1 1033.71 2368.15 1038.32 Q2371.23 1042.9 2371.23 1051.65 Q2371.23 1060.38 2368.15 1064.99 Q2365.1 1069.57 2359.29 1069.57 Q2353.48 1069.57 2350.4 1064.99 Q2347.34 1060.38 2347.34 1051.65 Q2347.34 1042.9 2350.4 1038.32 Q2353.48 1033.71 2359.29 1033.71 Z" fill="#000000" fill-rule="nonzero" fill-opacity="1" /><path clip-path="url(#clip830)" d="M2689.67 1064.96 L2697.31 1064.96 L2697.31 1038.6 L2689 1040.26 L2689 1036 L2697.26 1034.34 L2701.94 1034.34 L2701.94 1064.96 L2709.57 1064.96 L2709.57 1068.9 L2689.67 1068.9 L2689.67 1064.96 Z" fill="#000000" fill-rule="nonzero" fill-opacity="1" /><path clip-path="url(#clip830)" d="M2723.05 1064.96 L2739.37 1064.96 L2739.37 1068.9 L2717.42 1068.9 L2717.42 1064.96 Q2720.08 1062.21 2724.67 1057.58 Q2729.27 1052.93 2730.45 1051.58 Q2732.7 1049.06 2733.58 1047.32 Q2734.48 1045.56 2734.48 1043.87 Q2734.48 1041.12 2732.54 1039.38 Q2730.62 1037.65 2727.51 1037.65 Q2725.31 1037.65 2722.86 1038.41 Q2720.43 1039.18 2717.65 1040.73 L2717.65 1036 Q2720.48 1034.87 2722.93 1034.29 Q2725.38 1033.71 2727.42 1033.71 Q2732.79 1033.71 2735.99 1036.4 Q2739.18 1039.08 2739.18 1043.57 Q2739.18 1045.7 2738.37 1047.62 Q2737.58 1049.52 2735.48 1052.12 Q2734.9 1052.79 2731.8 1056 Q2728.69 1059.2 2723.05 1064.96 Z" fill="#000000" fill-rule="nonzero" fill-opacity="1" /><path clip-path="url(#clip830)" d="M2759.18 1037.42 Q2755.57 1037.42 2753.74 1040.98 Q2751.93 1044.52 2751.93 1051.65 Q2751.93 1058.76 2753.74 1062.32 Q2755.57 1065.87 2759.18 1065.87 Q2762.81 1065.87 2764.62 1062.32 Q2766.45 1058.76 2766.45 1051.65 Q2766.45 1044.52 2764.62 1040.98 Q2762.81 1037.42 2759.18 1037.42 M2759.18 1033.71 Q2764.99 1033.71 2768.05 1038.32 Q2771.12 1042.9 2771.12 1051.65 Q2771.12 1060.38 2768.05 1064.99 Q2764.99 1069.57 2759.18 1069.57 Q2753.37 1069.57 2750.29 1064.99 Q2747.24 1060.38 2747.24 1051.65 Q2747.24 1042.9 2750.29 1038.32 Q2753.37 1033.71 2759.18 1033.71 Z" fill="#000000" fill-rule="nonzero" fill-opacity="1" /><path clip-path="url(#clip830)" d="M1556.64 1109.44 L1563.07 1109.44 L1563.07 1151.55 L1586.21 1151.55 L1586.21 1156.96 L1556.64 1156.96 L1556.64 1109.44 Z" fill="#000000" fill-rule="nonzero" fill-opacity="1" /><path clip-path="url(#clip830)" d="M1592.7 1121.31 L1598.56 1121.31 L1598.56 1156.96 L1592.7 1156.96 L1592.7 1121.31 M1592.7 1107.44 L1598.56 1107.44 L1598.56 1114.85 L1592.7 1114.85 L1592.7 1107.44 Z" fill="#000000" fill-rule="nonzero" fill-opacity="1" /><path clip-path="url(#clip830)" d="M1640.44 1135.45 L1640.44 1156.96 L1634.59 1156.96 L1634.59 1135.64 Q1634.59 1130.58 1632.61 1128.06 Q1630.64 1125.55 1626.69 1125.55 Q1621.95 1125.55 1619.21 1128.57 Q1616.48 1131.59 1616.48 1136.81 L1616.48 1156.96 L1610.59 1156.96 L1610.59 1121.31 L1616.48 1121.31 L1616.48 1126.85 Q1618.58 1123.64 1621.41 1122.05 Q1624.27 1120.45 1628 1120.45 Q1634.14 1120.45 1637.29 1124.27 Q1640.44 1128.06 1640.44 1135.45 Z" fill="#000000" fill-rule="nonzero" fill-opacity="1" /><path clip-path="url(#clip830)" d="M1682.62 1137.67 L1682.62 1140.54 L1655.69 1140.54 Q1656.07 1146.59 1659.32 1149.77 Q1662.6 1152.92 1668.42 1152.92 Q1671.79 1152.92 1674.95 1152.09 Q1678.13 1151.26 1681.25 1149.61 L1681.25 1155.15 Q1678.1 1156.48 1674.79 1157.18 Q1671.48 1157.88 1668.07 1157.88 Q1659.54 1157.88 1654.54 1152.92 Q1649.58 1147.95 1649.58 1139.49 Q1649.58 1130.74 1654.29 1125.61 Q1659.03 1120.45 1667.05 1120.45 Q1674.25 1120.45 1678.42 1125.1 Q1682.62 1129.72 1682.62 1137.67 M1676.76 1135.95 Q1676.7 1131.15 1674.05 1128.28 Q1671.44 1125.42 1667.12 1125.42 Q1662.21 1125.42 1659.25 1128.19 Q1656.33 1130.96 1655.88 1135.99 L1676.76 1135.95 Z" fill="#000000" fill-rule="nonzero" fill-opacity="1" /><path clip-path="url(#clip830)" d="M1708.43 1139.04 Q1701.33 1139.04 1698.59 1140.67 Q1695.86 1142.29 1695.86 1146.2 Q1695.86 1149.32 1697.89 1151.17 Q1699.96 1152.98 1703.5 1152.98 Q1708.37 1152.98 1711.29 1149.55 Q1714.25 1146.08 1714.25 1140.35 L1714.25 1139.04 L1708.43 1139.04 M1720.11 1136.62 L1720.11 1156.96 L1714.25 1156.96 L1714.25 1151.55 Q1712.25 1154.8 1709.26 1156.36 Q1706.27 1157.88 1701.94 1157.88 Q1696.46 1157.88 1693.22 1154.83 Q1690 1151.74 1690 1146.59 Q1690 1140.57 1694.01 1137.51 Q1698.05 1134.46 1706.04 1134.46 L1714.25 1134.46 L1714.25 1133.89 Q1714.25 1129.84 1711.58 1127.65 Q1708.94 1125.42 1704.13 1125.42 Q1701.08 1125.42 1698.18 1126.15 Q1695.28 1126.88 1692.61 1128.35 L1692.61 1122.94 Q1695.83 1121.7 1698.85 1121.09 Q1701.87 1120.45 1704.74 1120.45 Q1712.47 1120.45 1716.29 1124.46 Q1720.11 1128.48 1720.11 1136.62 Z" fill="#000000" fill-rule="nonzero" fill-opacity="1" /><path clip-path="url(#clip830)" d="M1755.63 1138.72 Q1755.63 1132.36 1752.99 1128.86 Q1750.38 1125.36 1745.64 1125.36 Q1740.93 1125.36 1738.28 1128.86 Q1735.67 1132.36 1735.67 1138.72 Q1735.67 1145.06 1738.28 1148.56 Q1740.93 1152.06 1745.64 1152.06 Q1750.38 1152.06 1752.99 1148.56 Q1755.63 1145.06 1755.63 1138.72 M1761.49 1152.54 Q1761.49 1161.64 1757.45 1166.06 Q1753.4 1170.52 1745.06 1170.52 Q1741.98 1170.52 1739.24 1170.04 Q1736.5 1169.6 1733.92 1168.64 L1733.92 1162.95 Q1736.5 1164.35 1739.02 1165.01 Q1741.53 1165.68 1744.14 1165.68 Q1749.9 1165.68 1752.77 1162.66 Q1755.63 1159.67 1755.63 1153.59 L1755.63 1150.69 Q1753.82 1153.84 1750.98 1155.4 Q1748.15 1156.96 1744.2 1156.96 Q1737.65 1156.96 1733.64 1151.96 Q1729.63 1146.97 1729.63 1138.72 Q1729.63 1130.45 1733.64 1125.45 Q1737.65 1120.45 1744.2 1120.45 Q1748.15 1120.45 1750.98 1122.01 Q1753.82 1123.57 1755.63 1126.72 L1755.63 1121.31 L1761.49 1121.31 L1761.49 1152.54 Z" fill="#000000" fill-rule="nonzero" fill-opacity="1" /><path clip-path="url(#clip830)" d="M1804.04 1137.67 L1804.04 1140.54 L1777.12 1140.54 Q1777.5 1146.59 1780.74 1149.77 Q1784.02 1152.92 1789.85 1152.92 Q1793.22 1152.92 1796.37 1152.09 Q1799.55 1151.26 1802.67 1149.61 L1802.67 1155.15 Q1799.52 1156.48 1796.21 1157.18 Q1792.9 1157.88 1789.5 1157.88 Q1780.97 1157.88 1775.97 1152.92 Q1771 1147.95 1771 1139.49 Q1771 1130.74 1775.71 1125.61 Q1780.46 1120.45 1788.48 1120.45 Q1795.67 1120.45 1799.84 1125.1 Q1804.04 1129.72 1804.04 1137.67 M1798.19 1135.95 Q1798.12 1131.15 1795.48 1128.28 Q1792.87 1125.42 1788.54 1125.42 Q1783.64 1125.42 1780.68 1128.19 Q1777.75 1130.96 1777.31 1135.99 L1798.19 1135.95 Z" fill="#000000" fill-rule="nonzero" fill-opacity="1" /><polyline clip-path="url(#clip832)" style="stroke:#000000; stroke-linecap:round; stroke-linejoin:round; stroke-width:2; stroke-opacity:0.1; fill:none" points="270.918,1000.1 3089.76,1000.1 "/>
<polyline clip-path="url(#clip832)" style="stroke:#000000; stroke-linecap:round; stroke-linejoin:round; stroke-width:2; stroke-opacity:0.1; fill:none" points="270.918,668.585 3089.76,668.585 "/>
<polyline clip-path="url(#clip832)" style="stroke:#000000; stroke-linecap:round; stroke-linejoin:round; stroke-width:2; stroke-opacity:0.1; fill:none" points="270.918,337.072 3089.76,337.072 "/>
<polyline clip-path="url(#clip830)" style="stroke:#000000; stroke-linecap:round; stroke-linejoin:round; stroke-width:4; stroke-opacity:1; fill:none" points="270.918,1000.1 270.918,110.236 "/>
<polyline clip-path="url(#clip830)" style="stroke:#000000; stroke-linecap:round; stroke-linejoin:round; stroke-width:4; stroke-opacity:1; fill:none" points="270.918,1000.1 289.815,1000.1 "/>
<polyline clip-path="url(#clip830)" style="stroke:#000000; stroke-linecap:round; stroke-linejoin:round; stroke-width:4; stroke-opacity:1; fill:none" points="270.918,668.585 289.815,668.585 "/>
<polyline clip-path="url(#clip830)" style="stroke:#000000; stroke-linecap:round; stroke-linejoin:round; stroke-width:4; stroke-opacity:1; fill:none" points="270.918,337.072 289.815,337.072 "/>
<path clip-path="url(#clip830)" d="M154.902 1019.89 L162.54 1019.89 L162.54 993.525 L154.23 995.191 L154.23 990.932 L162.494 989.265 L167.17 989.265 L167.17 1019.89 L174.809 1019.89 L174.809 1023.83 L154.902 1023.83 L154.902 1019.89 Z" fill="#000000" fill-rule="nonzero" fill-opacity="1" /><path clip-path="url(#clip830)" d="M194.253 992.344 Q190.642 992.344 188.813 995.909 Q187.008 999.45 187.008 1006.58 Q187.008 1013.69 188.813 1017.25 Q190.642 1020.79 194.253 1020.79 Q197.887 1020.79 199.693 1017.25 Q201.522 1013.69 201.522 1006.58 Q201.522 999.45 199.693 995.909 Q197.887 992.344 194.253 992.344 M194.253 988.64 Q200.063 988.64 203.119 993.247 Q206.198 997.83 206.198 1006.58 Q206.198 1015.31 203.119 1019.91 Q200.063 1024.5 194.253 1024.5 Q188.443 1024.5 185.364 1019.91 Q182.309 1015.31 182.309 1006.58 Q182.309 997.83 185.364 993.247 Q188.443 988.64 194.253 988.64 Z" fill="#000000" fill-rule="nonzero" fill-opacity="1" /><path clip-path="url(#clip830)" d="M206.743 993.218 L212.95 993.218 L212.95 971.796 L206.198 973.15 L206.198 969.689 L212.912 968.335 L216.711 968.335 L216.711 993.218 L222.918 993.218 L222.918 996.415 L206.743 996.415 L206.743 993.218 Z" fill="#000000" fill-rule="nonzero" fill-opacity="1" /><path clip-path="url(#clip830)" d="M153.792 688.377 L161.431 688.377 L161.431 662.012 L153.121 663.678 L153.121 659.419 L161.384 657.753 L166.06 657.753 L166.06 688.377 L173.699 688.377 L173.699 692.313 L153.792 692.313 L153.792 688.377 Z" fill="#000000" fill-rule="nonzero" fill-opacity="1" /><path clip-path="url(#clip830)" d="M193.143 660.831 Q189.532 660.831 187.704 664.396 Q185.898 667.938 185.898 675.067 Q185.898 682.174 187.704 685.738 Q189.532 689.28 193.143 689.28 Q196.778 689.28 198.583 685.738 Q200.412 682.174 200.412 675.067 Q200.412 667.938 198.583 664.396 Q196.778 660.831 193.143 660.831 M193.143 657.128 Q198.954 657.128 202.009 661.734 Q205.088 666.317 205.088 675.067 Q205.088 683.794 202.009 688.4 Q198.954 692.984 193.143 692.984 Q187.333 692.984 184.255 688.4 Q181.199 683.794 181.199 675.067 Q181.199 666.317 184.255 661.734 Q187.333 657.128 193.143 657.128 Z" fill="#000000" fill-rule="nonzero" fill-opacity="1" /><path clip-path="url(#clip830)" d="M209.658 661.705 L222.918 661.705 L222.918 664.902 L205.088 664.902 L205.088 661.705 Q207.251 659.467 210.975 655.705 Q214.717 651.925 215.677 650.834 Q217.501 648.784 218.216 647.373 Q218.949 645.944 218.949 644.571 Q218.949 642.333 217.369 640.922 Q215.808 639.512 213.288 639.512 Q211.501 639.512 209.508 640.132 Q207.533 640.753 205.276 642.013 L205.276 638.176 Q207.57 637.255 209.564 636.784 Q211.558 636.314 213.213 636.314 Q217.576 636.314 220.172 638.496 Q222.767 640.678 222.767 644.326 Q222.767 646.057 222.109 647.618 Q221.469 649.16 219.758 651.266 Q219.288 651.812 216.767 654.426 Q214.247 657.022 209.658 661.705 Z" fill="#000000" fill-rule="nonzero" fill-opacity="1" /><path clip-path="url(#clip830)" d="M153.134 356.865 L160.772 356.865 L160.772 330.499 L152.462 332.166 L152.462 327.906 L160.726 326.24 L165.402 326.24 L165.402 356.865 L173.041 356.865 L173.041 360.8 L153.134 360.8 L153.134 356.865 Z" fill="#000000" fill-rule="nonzero" fill-opacity="1" /><path clip-path="url(#clip830)" d="M192.485 329.318 Q188.874 329.318 187.045 332.883 Q185.24 336.425 185.24 343.554 Q185.24 350.661 187.045 354.226 Q188.874 357.767 192.485 357.767 Q196.119 357.767 197.925 354.226 Q199.754 350.661 199.754 343.554 Q199.754 336.425 197.925 332.883 Q196.119 329.318 192.485 329.318 M192.485 325.615 Q198.295 325.615 201.351 330.221 Q204.43 334.804 204.43 343.554 Q204.43 352.281 201.351 356.888 Q198.295 361.471 192.485 361.471 Q186.675 361.471 183.596 356.888 Q180.541 352.281 180.541 343.554 Q180.541 334.804 183.596 330.221 Q186.675 325.615 192.485 325.615 Z" fill="#000000" fill-rule="nonzero" fill-opacity="1" /><path clip-path="url(#clip830)" d="M217.125 318.249 Q219.852 318.832 221.375 320.675 Q222.918 322.518 222.918 325.227 Q222.918 329.383 220.059 331.659 Q217.2 333.935 211.934 333.935 Q210.166 333.935 208.285 333.577 Q206.423 333.239 204.43 332.543 L204.43 328.875 Q206.009 329.797 207.89 330.267 Q209.771 330.737 211.821 330.737 Q215.395 330.737 217.256 329.327 Q219.137 327.916 219.137 325.227 Q219.137 322.744 217.388 321.352 Q215.658 319.942 212.555 319.942 L209.282 319.942 L209.282 316.82 L212.705 316.82 Q215.507 316.82 216.993 315.71 Q218.479 314.582 218.479 312.475 Q218.479 310.312 216.937 309.165 Q215.413 307.999 212.555 307.999 Q210.994 307.999 209.207 308.337 Q207.42 308.676 205.276 309.391 L205.276 306.005 Q207.439 305.403 209.32 305.102 Q211.219 304.801 212.893 304.801 Q217.219 304.801 219.739 306.776 Q222.259 308.732 222.259 312.08 Q222.259 314.412 220.924 316.03 Q219.589 317.628 217.125 318.249 Z" fill="#000000" fill-rule="nonzero" fill-opacity="1" /><path clip-path="url(#clip830)" d="M42.6863 887.139 L42.6863 857.092 L48.0971 857.092 L48.0971 880.709 L62.1653 880.709 L62.1653 858.079 L67.5762 858.079 L67.5762 880.709 L84.7954 880.709 L84.7954 856.52 L90.2063 856.52 L90.2063 887.139 L42.6863 887.139 Z" fill="#000000" fill-rule="nonzero" fill-opacity="1" /><path clip-path="url(#clip830)" d="M44.2459 817.466 L50.5161 817.466 Q48.7655 821.126 47.9062 824.373 Q47.0468 827.619 47.0468 830.643 Q47.0468 835.895 49.0838 838.759 Q51.1208 841.592 54.8766 841.592 Q58.0276 841.592 59.6509 839.714 Q61.2423 837.804 62.229 832.521 L63.0247 828.638 Q64.3933 821.444 67.8627 818.039 Q71.3001 814.601 77.0929 814.601 Q83.9997 814.601 87.5645 819.248 Q91.1293 823.863 91.1293 832.807 Q91.1293 836.181 90.3654 840.001 Q89.6015 843.788 88.1056 847.862 L81.4853 847.862 Q83.6814 843.947 84.7954 840.191 Q85.9094 836.436 85.9094 832.807 Q85.9094 827.301 83.7451 824.309 Q81.5808 821.317 77.5704 821.317 Q74.0692 821.317 72.0958 823.482 Q70.1225 825.614 69.1358 830.516 L68.3719 834.431 Q66.9396 841.624 63.8841 844.838 Q60.8285 848.053 55.3859 848.053 Q49.0838 848.053 45.4554 843.629 Q41.8269 839.173 41.8269 831.375 Q41.8269 828.033 42.4317 824.564 Q43.0364 821.094 44.2459 817.466 Z" fill="#000000" fill-rule="nonzero" fill-opacity="1" /><path clip-path="url(#clip830)" d="M44.2459 776.089 L50.5161 776.089 Q48.7655 779.749 47.9062 782.996 Q47.0468 786.242 47.0468 789.266 Q47.0468 794.518 49.0838 797.382 Q51.1208 800.215 54.8766 800.215 Q58.0276 800.215 59.6509 798.337 Q61.2423 796.427 62.229 791.144 L63.0247 787.261 Q64.3933 780.067 67.8627 776.662 Q71.3001 773.224 77.0929 773.224 Q83.9997 773.224 87.5645 777.871 Q91.1293 782.486 91.1293 791.43 Q91.1293 794.804 90.3654 798.623 Q89.6015 802.411 88.1056 806.485 L81.4853 806.485 Q83.6814 802.57 84.7954 798.814 Q85.9094 795.059 85.9094 791.43 Q85.9094 785.924 83.7451 782.932 Q81.5808 779.94 77.5704 779.94 Q74.0692 779.94 72.0958 782.104 Q70.1225 784.237 69.1358 789.139 L68.3719 793.053 Q66.9396 800.247 63.8841 803.461 Q60.8285 806.676 55.3859 806.676 Q49.0838 806.676 45.4554 802.252 Q41.8269 797.796 41.8269 789.998 Q41.8269 786.656 42.4317 783.187 Q43.0364 779.717 44.2459 776.089 Z" fill="#000000" fill-rule="nonzero" fill-opacity="1" /><path clip-path="url(#clip830)" d="M82.1218 761.957 L82.1218 755.241 L90.2063 755.241 L90.2063 761.957 L82.1218 761.957 M56.4999 761.957 L56.4999 755.241 L64.5843 755.241 L64.5843 761.957 L56.4999 761.957 Z" fill="#000000" fill-rule="nonzero" fill-opacity="1" /><path clip-path="url(#clip830)" d="M44.2459 692.03 L50.5161 692.03 Q48.7655 695.69 47.9062 698.936 Q47.0468 702.183 47.0468 705.207 Q47.0468 710.458 49.0838 713.323 Q51.1208 716.156 54.8766 716.156 Q58.0276 716.156 59.6509 714.278 Q61.2423 712.368 62.229 707.085 L63.0247 703.201 Q64.3933 696.008 67.8627 692.603 Q71.3001 689.165 77.0929 689.165 Q83.9997 689.165 87.5645 693.812 Q91.1293 698.427 91.1293 707.371 Q91.1293 710.745 90.3654 714.564 Q89.6015 718.352 88.1056 722.426 L81.4853 722.426 Q83.6814 718.511 84.7954 714.755 Q85.9094 710.999 85.9094 707.371 Q85.9094 701.865 83.7451 698.873 Q81.5808 695.881 77.5704 695.881 Q74.0692 695.881 72.0958 698.045 Q70.1225 700.178 69.1358 705.079 L68.3719 708.994 Q66.9396 716.188 63.8841 719.402 Q60.8285 722.617 55.3859 722.617 Q49.0838 722.617 45.4554 718.193 Q41.8269 713.737 41.8269 705.939 Q41.8269 702.597 42.4317 699.127 Q43.0364 695.658 44.2459 692.03 Z" fill="#000000" fill-rule="nonzero" fill-opacity="1" /><path clip-path="url(#clip830)" d="M54.5583 682.799 L54.5583 676.943 L82.3765 669.622 L54.5583 662.334 L54.5583 655.427 L82.3765 648.106 L54.5583 640.818 L54.5583 634.961 L90.2063 644.287 L90.2063 651.194 L60.9877 658.864 L90.2063 666.567 L90.2063 673.474 L54.5583 682.799 Z" fill="#000000" fill-rule="nonzero" fill-opacity="1" /><path clip-path="url(#clip830)" d="M70.9182 595.589 L73.7828 595.589 L73.7828 622.516 Q79.8302 622.134 83.013 618.888 Q86.1641 615.609 86.1641 609.785 Q86.1641 606.411 85.3365 603.26 Q84.509 600.077 82.8539 596.958 L88.3921 596.958 Q89.7289 600.109 90.4291 603.419 Q91.1293 606.729 91.1293 610.135 Q91.1293 618.665 86.1641 623.662 Q81.1988 628.627 72.7324 628.627 Q63.9796 628.627 58.8552 623.917 Q53.699 619.174 53.699 611.153 Q53.699 603.96 58.3459 599.791 Q62.9611 595.589 70.9182 595.589 M69.1995 601.446 Q64.3933 601.509 61.5288 604.151 Q58.6642 606.761 58.6642 611.09 Q58.6642 615.991 61.4333 618.951 Q64.2024 621.88 69.2313 622.325 L69.1995 601.446 Z" fill="#000000" fill-rule="nonzero" fill-opacity="1" /><path clip-path="url(#clip830)" d="M59.9692 562.519 L40.6811 562.519 L40.6811 556.663 L90.2063 556.663 L90.2063 562.519 L84.8591 562.519 Q88.0419 564.365 89.6015 567.198 Q91.1293 569.999 91.1293 573.946 Q91.1293 580.407 85.9731 584.481 Q80.8169 588.523 72.4141 588.523 Q64.0114 588.523 58.8552 584.481 Q53.699 580.407 53.699 573.946 Q53.699 569.999 55.2586 567.198 Q56.7863 564.365 59.9692 562.519 M72.4141 582.476 Q78.8753 582.476 82.5674 579.834 Q86.2277 577.16 86.2277 572.514 Q86.2277 567.867 82.5674 565.193 Q78.8753 562.519 72.4141 562.519 Q65.9529 562.519 62.2927 565.193 Q58.6006 567.867 58.6006 572.514 Q58.6006 577.16 62.2927 579.834 Q65.9529 582.476 72.4141 582.476 Z" fill="#000000" fill-rule="nonzero" fill-opacity="1" /><path clip-path="url(#clip830)" d="M70.9182 514.108 L73.7828 514.108 L73.7828 541.035 Q79.8302 540.653 83.013 537.407 Q86.1641 534.128 86.1641 528.304 Q86.1641 524.93 85.3365 521.779 Q84.509 518.596 82.8539 515.477 L88.3921 515.477 Q89.7289 518.628 90.4291 521.938 Q91.1293 525.248 91.1293 528.654 Q91.1293 537.184 86.1641 542.181 Q81.1988 547.146 72.7324 547.146 Q63.9796 547.146 58.8552 542.436 Q53.699 537.693 53.699 529.672 Q53.699 522.479 58.3459 518.31 Q62.9611 514.108 70.9182 514.108 M69.1995 519.965 Q64.3933 520.028 61.5288 522.67 Q58.6642 525.28 58.6642 529.609 Q58.6642 534.51 61.4333 537.47 Q64.2024 540.399 69.2313 540.844 L69.1995 519.965 Z" fill="#000000" fill-rule="nonzero" fill-opacity="1" /><path clip-path="url(#clip830)" d="M68.6902 474.864 L90.2063 474.864 L90.2063 480.72 L68.8812 480.72 Q63.8204 480.72 61.306 482.693 Q58.7915 484.667 58.7915 488.614 Q58.7915 493.356 61.8152 496.093 Q64.8389 498.83 70.0588 498.83 L90.2063 498.83 L90.2063 504.719 L54.5583 504.719 L54.5583 498.83 L60.0965 498.83 Q56.8818 496.73 55.2904 493.897 Q53.699 491.032 53.699 487.309 Q53.699 481.166 57.5184 478.015 Q61.306 474.864 68.6902 474.864 Z" fill="#000000" fill-rule="nonzero" fill-opacity="1" /><path clip-path="url(#clip830)" d="M82.1218 461.687 L82.1218 454.971 L87.5963 454.971 L97.7815 460.191 L97.7815 464.297 L87.5963 461.687 L82.1218 461.687 Z" fill="#000000" fill-rule="nonzero" fill-opacity="1" /><path clip-path="url(#clip830)" d="M44.4369 415.949 L54.5583 415.949 L54.5583 403.886 L59.1098 403.886 L59.1098 415.949 L78.4616 415.949 Q82.8221 415.949 84.0634 414.771 Q85.3047 413.562 85.3047 409.902 L85.3047 403.886 L90.2063 403.886 L90.2063 409.902 Q90.2063 416.681 87.6918 419.259 Q85.1455 421.837 78.4616 421.837 L59.1098 421.837 L59.1098 426.134 L54.5583 426.134 L54.5583 421.837 L44.4369 421.837 L44.4369 415.949 Z" fill="#000000" fill-rule="nonzero" fill-opacity="1" /><path clip-path="url(#clip830)" d="M54.5583 396.183 L54.5583 390.327 L90.2063 390.327 L90.2063 396.183 L54.5583 396.183 M40.6811 396.183 L40.6811 390.327 L48.0971 390.327 L48.0971 396.183 L40.6811 396.183 Z" fill="#000000" fill-rule="nonzero" fill-opacity="1" /><path clip-path="url(#clip830)" d="M61.4015 350.319 Q57.4547 348.122 55.5768 345.067 Q53.699 342.011 53.699 337.874 Q53.699 332.304 57.6139 329.28 Q61.4969 326.256 68.6902 326.256 L90.2063 326.256 L90.2063 332.144 L68.8812 332.144 Q63.7568 332.144 61.2741 333.959 Q58.7915 335.773 58.7915 339.497 Q58.7915 344.048 61.8152 346.69 Q64.8389 349.332 70.0588 349.332 L90.2063 349.332 L90.2063 355.22 L68.8812 355.22 Q63.7249 355.22 61.2741 357.034 Q58.7915 358.849 58.7915 362.636 Q58.7915 367.124 61.8471 369.766 Q64.8708 372.408 70.0588 372.408 L90.2063 372.408 L90.2063 378.296 L54.5583 378.296 L54.5583 372.408 L60.0965 372.408 Q56.8182 370.402 55.2586 367.601 Q53.699 364.801 53.699 360.949 Q53.699 357.066 55.6723 354.361 Q57.6457 351.623 61.4015 350.319 Z" fill="#000000" fill-rule="nonzero" fill-opacity="1" /><path clip-path="url(#clip830)" d="M70.9182 284.083 L73.7828 284.083 L73.7828 311.01 Q79.8302 310.628 83.013 307.382 Q86.1641 304.103 86.1641 298.279 Q86.1641 294.905 85.3365 291.754 Q84.509 288.571 82.8539 285.452 L88.3921 285.452 Q89.7289 288.603 90.4291 291.913 Q91.1293 295.223 91.1293 298.629 Q91.1293 307.159 86.1641 312.156 Q81.1988 317.121 72.7324 317.121 Q63.9796 317.121 58.8552 312.411 Q53.699 307.668 53.699 299.648 Q53.699 292.454 58.3459 288.285 Q62.9611 284.083 70.9182 284.083 M69.1995 289.94 Q64.3933 290.003 61.5288 292.645 Q58.6642 295.255 58.6642 299.584 Q58.6642 304.485 61.4333 307.445 Q64.2024 310.374 69.2313 310.819 L69.1995 289.94 Z" fill="#000000" fill-rule="nonzero" fill-opacity="1" /><path clip-path="url(#clip830)" d="M82.1218 272.975 L82.1218 266.259 L90.2063 266.259 L90.2063 272.975 L82.1218 272.975 M56.4999 272.975 L56.4999 266.259 L64.5843 266.259 L64.5843 272.975 L56.4999 272.975 Z" fill="#000000" fill-rule="nonzero" fill-opacity="1" /><path clip-path="url(#clip830)" d="M84.7954 250.568 L84.7954 240.064 L48.5427 240.064 L50.8344 251.491 L44.9779 251.491 L42.6863 240.128 L42.6863 233.699 L84.7954 233.699 L84.7954 223.195 L90.2063 223.195 L90.2063 250.568 L84.7954 250.568 Z" fill="#000000" fill-rule="nonzero" fill-opacity="1" /><polyline clip-path="url(#clip832)" style="stroke:#009af9; stroke-linecap:round; stroke-linejoin:round; stroke-width:4; stroke-opacity:1; fill:none" points="350.696,262.059 370.691,110.236 390.686,173.683 410.68,139.878 430.675,157.925 450.67,224.128 470.664,191.081 490.659,137.089 510.654,154.447 530.648,164.819 550.643,125.729 570.637,177.482 590.632,129.492 610.627,153.443 630.621,156.591 650.616,159.97 670.611,162.08 690.605,164.363 710.6,168.431 730.595,136.747 750.589,131.071 770.584,164.156 790.579,158.816 810.573,164.366 830.568,149.511 850.563,165.982 870.557,123.993 890.552,152.832 910.547,136.668 930.541,150.915 950.536,170.748 970.531,141.742 990.525,165.396 1010.52,140.98 1030.51,173.855 1050.51,138.485 1070.5,166.505 1090.5,165.402 1110.49,164.07 1130.49,158.888 1150.48,155.277 1170.48,149.228 1190.47,120.014 1210.47,144.405 1230.46,138.513 1250.46,167.724 1270.45,172.297 1290.44,180.413 1310.44,158.127 1330.43,148.66 1350.43,158.001 1370.42,147.796 1390.42,139.791 1410.41,171.552 1430.41,153.124 1450.4,154.15 1470.4,155.198 1490.39,142.878 1510.39,139.973 1530.38,144.093 1550.38,181.209 1570.37,150.188 1590.36,153.487 1610.36,164.379 1630.35,157.847 1650.35,166.361 1670.34,150 1690.34,159.276 1710.33,163.875 1730.33,174.934 1750.32,142.774 1770.32,144.226 1790.31,145.071 1810.31,142.686 1830.3,156.585 1850.3,141.692 1870.29,153.355 1890.28,164.248 1910.28,141.739 1930.27,153.948 1950.27,162.14 1970.26,154.989 1990.26,173.408 2010.25,149.364 2030.25,178.905 2050.24,141.564 2070.24,167.206 2090.23,174.879 2110.23,160.252 2130.22,171.957 2150.22,184.73 2170.21,203.696 2190.2,145.158 2210.2,172.848 2230.19,199.538 2250.19,168.206 2270.18,166.198 2290.18,129.774 2310.17,172.62 2330.17,173.962 2350.16,152.778 2370.16,126.499 2390.15,164.599 2410.15,168.456 2430.14,148.869 2450.13,163.315 2470.13,147.205 2490.12,158.34 2510.12,166.303 2530.11,153.687 2550.11,145.574 2570.1,168.354 2590.1,156.941 2610.09,176.634 2630.09,153.95 2650.08,157.373 2670.08,134.459 2690.07,159.022 2710.07,183.389 2730.06,148.606 2750.05,173.245 2770.05,132.849 2790.04,211.623 2810.04,137.577 2830.03,159.629 2850.03,160.32 2870.02,143.896 2890.02,152.773 2910.01,160.566 2930.01,152.417 2950,166.695 2970,144.65 2989.99,161.033 3009.99,157.943 "/>
</svg>
