<?xml version="1.0" encoding="utf-8"?>
<svg xmlns="http://www.w3.org/2000/svg" xmlns:xlink="http://www.w3.org/1999/xlink" width="800" height="300" viewBox="0 0 3200 1200">
<defs>
  <clipPath id="clip660">
    <rect x="0" y="0" width="3200" height="1200"/>
  </clipPath>
</defs>
<path clip-path="url(#clip660)" d="M0 1200 L3200 1200 L3200 0 L0 0  Z" fill="#ffffff" fill-rule="evenodd" fill-opacity="1"/>
<defs>
  <clipPath id="clip661">
    <rect x="640" y="0" width="2241" height="1200"/>
  </clipPath>
</defs>
<path clip-path="url(#clip660)" d="M270.918 1000.1 L3089.76 1000.1 L3089.76 110.236 L270.918 110.236  Z" fill="#ffffff" fill-rule="evenodd" fill-opacity="1"/>
<defs>
  <clipPath id="clip662">
    <rect x="270" y="110" width="2820" height="891"/>
  </clipPath>
</defs>
<polyline clip-path="url(#clip662)" style="stroke:#000000; stroke-linecap:round; stroke-linejoin:round; stroke-width:2; stroke-opacity:0.1; fill:none" points="331.565,1000.1 331.565,110.236 "/>
<polyline clip-path="url(#clip662)" style="stroke:#000000; stroke-linecap:round; stroke-linejoin:round; stroke-width:2; stroke-opacity:0.1; fill:none" points="809.854,1000.1 809.854,110.236 "/>
<polyline clip-path="url(#clip662)" style="stroke:#000000; stroke-linecap:round; stroke-linejoin:round; stroke-width:2; stroke-opacity:0.1; fill:none" points="1288.14,1000.1 1288.14,110.236 "/>
<polyline clip-path="url(#clip662)" style="stroke:#000000; stroke-linecap:round; stroke-linejoin:round; stroke-width:2; stroke-opacity:0.1; fill:none" points="1766.43,1000.1 1766.43,110.236 "/>
<polyline clip-path="url(#clip662)" style="stroke:#000000; stroke-linecap:round; stroke-linejoin:round; stroke-width:2; stroke-opacity:0.1; fill:none" points="2244.72,1000.1 2244.72,110.236 "/>
<polyline clip-path="url(#clip662)" style="stroke:#000000; stroke-linecap:round; stroke-linejoin:round; stroke-width:2; stroke-opacity:0.1; fill:none" points="2723.01,1000.1 2723.01,110.236 "/>
<polyline clip-path="url(#clip660)" style="stroke:#000000; stroke-linecap:round; stroke-linejoin:round; stroke-width:4; stroke-opacity:1; fill:none" points="270.918,1000.1 3089.76,1000.1 "/>
<polyline clip-path="url(#clip660)" style="stroke:#000000; stroke-linecap:round; stroke-linejoin:round; stroke-width:4; stroke-opacity:1; fill:none" points="331.565,1000.1 331.565,981.2 "/>
<polyline clip-path="url(#clip660)" style="stroke:#000000; stroke-linecap:round; stroke-linejoin:round; stroke-width:4; stroke-opacity:1; fill:none" points="809.854,1000.1 809.854,981.2 "/>
<polyline clip-path="url(#clip660)" style="stroke:#000000; stroke-linecap:round; stroke-linejoin:round; stroke-width:4; stroke-opacity:1; fill:none" points="1288.14,1000.1 1288.14,981.2 "/>
<polyline clip-path="url(#clip660)" style="stroke:#000000; stroke-linecap:round; stroke-linejoin:round; stroke-width:4; stroke-opacity:1; fill:none" points="1766.43,1000.1 1766.43,981.2 "/>
<polyline clip-path="url(#clip660)" style="stroke:#000000; stroke-linecap:round; stroke-linejoin:round; stroke-width:4; stroke-opacity:1; fill:none" points="2244.72,1000.1 2244.72,981.2 "/>
<polyline clip-path="url(#clip660)" style="stroke:#000000; stroke-linecap:round; stroke-linejoin:round; stroke-width:4; stroke-opacity:1; fill:none" points="2723.01,1000.1 2723.01,981.2 "/>
<path clip-path="url(#clip660)" d="M331.565 1037.42 Q327.954 1037.42 326.125 1040.98 Q324.319 1044.52 324.319 1051.65 Q324.319 1058.76 326.125 1062.32 Q327.954 1065.87 331.565 1065.87 Q335.199 1065.87 337.005 1062.32 Q338.833 1058.76 338.833 1051.65 Q338.833 1044.52 337.005 1040.98 Q335.199 1037.42 331.565 1037.42 M331.565 1033.71 Q337.375 1033.71 340.43 1038.32 Q343.509 1042.9 343.509 1051.65 Q343.509 1060.38 340.43 1064.99 Q337.375 1069.57 331.565 1069.57 Q325.755 1069.57 322.676 1064.99 Q319.62 1060.38 319.62 1051.65 Q319.62 1042.9 322.676 1038.32 Q325.755 1033.71 331.565 1033.71 Z" fill="#000000" fill-rule="nonzero" fill-opacity="1" /><path clip-path="url(#clip660)" d="M789.125 1064.96 L805.444 1064.96 L805.444 1068.9 L783.5 1068.9 L783.5 1064.96 Q786.162 1062.21 790.745 1057.58 Q795.352 1052.93 796.532 1051.58 Q798.778 1049.06 799.657 1047.32 Q800.56 1045.56 800.56 1043.87 Q800.56 1041.12 798.616 1039.38 Q796.694 1037.65 793.593 1037.65 Q791.394 1037.65 788.94 1038.41 Q786.509 1039.18 783.732 1040.73 L783.732 1036 Q786.556 1034.87 789.009 1034.29 Q791.463 1033.71 793.5 1033.71 Q798.87 1033.71 802.065 1036.4 Q805.259 1039.08 805.259 1043.57 Q805.259 1045.7 804.449 1047.62 Q803.662 1049.52 801.556 1052.12 Q800.977 1052.79 797.875 1056 Q794.773 1059.2 789.125 1064.96 Z" fill="#000000" fill-rule="nonzero" fill-opacity="1" /><path clip-path="url(#clip660)" d="M815.305 1034.34 L833.662 1034.34 L833.662 1038.27 L819.588 1038.27 L819.588 1046.75 Q820.606 1046.4 821.625 1046.24 Q822.643 1046.05 823.662 1046.05 Q829.449 1046.05 832.828 1049.22 Q836.208 1052.39 836.208 1057.81 Q836.208 1063.39 832.736 1066.49 Q829.264 1069.57 822.944 1069.57 Q820.768 1069.57 818.5 1069.2 Q816.255 1068.83 813.847 1068.09 L813.847 1063.39 Q815.93 1064.52 818.153 1065.08 Q820.375 1065.63 822.852 1065.63 Q826.856 1065.63 829.194 1063.53 Q831.532 1061.42 831.532 1057.81 Q831.532 1054.2 829.194 1052.09 Q826.856 1049.99 822.852 1049.99 Q820.977 1049.99 819.102 1050.4 Q817.25 1050.82 815.305 1051.7 L815.305 1034.34 Z" fill="#000000" fill-rule="nonzero" fill-opacity="1" /><path clip-path="url(#clip660)" d="M1262.84 1034.34 L1281.2 1034.34 L1281.2 1038.27 L1267.13 1038.27 L1267.13 1046.75 Q1268.14 1046.4 1269.16 1046.24 Q1270.18 1046.05 1271.2 1046.05 Q1276.99 1046.05 1280.37 1049.22 Q1283.75 1052.39 1283.75 1057.81 Q1283.75 1063.39 1280.27 1066.49 Q1276.8 1069.57 1270.48 1069.57 Q1268.31 1069.57 1266.04 1069.2 Q1263.79 1068.83 1261.38 1068.09 L1261.38 1063.39 Q1263.47 1064.52 1265.69 1065.08 Q1267.91 1065.63 1270.39 1065.63 Q1274.39 1065.63 1276.73 1063.53 Q1279.07 1061.42 1279.07 1057.81 Q1279.07 1054.2 1276.73 1052.09 Q1274.39 1049.99 1270.39 1049.99 Q1268.51 1049.99 1266.64 1050.4 Q1264.79 1050.82 1262.84 1051.7 L1262.84 1034.34 Z" fill="#000000" fill-rule="nonzero" fill-opacity="1" /><path clip-path="url(#clip660)" d="M1302.96 1037.42 Q1299.35 1037.42 1297.52 1040.98 Q1295.71 1044.52 1295.71 1051.65 Q1295.71 1058.76 1297.52 1062.32 Q1299.35 1065.87 1302.96 1065.87 Q1306.59 1065.87 1308.4 1062.32 Q1310.23 1058.76 1310.23 1051.65 Q1310.23 1044.52 1308.4 1040.98 Q1306.59 1037.42 1302.96 1037.42 M1302.96 1033.71 Q1308.77 1033.71 1311.82 1038.32 Q1314.9 1042.9 1314.9 1051.65 Q1314.9 1060.38 1311.82 1064.99 Q1308.77 1069.57 1302.96 1069.57 Q1297.15 1069.57 1294.07 1064.99 Q1291.01 1060.38 1291.01 1051.65 Q1291.01 1042.9 1294.07 1038.32 Q1297.15 1033.71 1302.96 1033.71 Z" fill="#000000" fill-rule="nonzero" fill-opacity="1" /><path clip-path="url(#clip660)" d="M1740.29 1034.34 L1762.51 1034.34 L1762.51 1036.33 L1749.96 1068.9 L1745.08 1068.9 L1756.88 1038.27 L1740.29 1038.27 L1740.29 1034.34 Z" fill="#000000" fill-rule="nonzero" fill-opacity="1" /><path clip-path="url(#clip660)" d="M1771.68 1034.34 L1790.03 1034.34 L1790.03 1038.27 L1775.96 1038.27 L1775.96 1046.75 Q1776.98 1046.4 1778 1046.24 Q1779.01 1046.05 1780.03 1046.05 Q1785.82 1046.05 1789.2 1049.22 Q1792.58 1052.39 1792.58 1057.81 Q1792.58 1063.39 1789.11 1066.49 Q1785.63 1069.57 1779.31 1069.57 Q1777.14 1069.57 1774.87 1069.2 Q1772.62 1068.83 1770.22 1068.09 L1770.22 1063.39 Q1772.3 1064.52 1774.52 1065.08 Q1776.75 1065.63 1779.22 1065.63 Q1783.23 1065.63 1785.56 1063.53 Q1787.9 1061.42 1787.9 1057.81 Q1787.9 1054.2 1785.56 1052.09 Q1783.23 1049.99 1779.22 1049.99 Q1777.35 1049.99 1775.47 1050.4 Q1773.62 1050.82 1771.68 1051.7 L1771.68 1034.34 Z" fill="#000000" fill-rule="nonzero" fill-opacity="1" /><path clip-path="url(#clip660)" d="M2204.33 1064.96 L2211.97 1064.96 L2211.97 1038.6 L2203.66 1040.26 L2203.66 1036 L2211.92 1034.34 L2216.6 1034.34 L2216.6 1064.96 L2224.24 1064.96 L2224.24 1068.9 L2204.33 1068.9 L2204.33 1064.96 Z" fill="#000000" fill-rule="nonzero" fill-opacity="1" /><path clip-path="url(#clip660)" d="M2243.68 1037.42 Q2240.07 1037.42 2238.24 1040.98 Q2236.44 1044.52 2236.44 1051.65 Q2236.44 1058.76 2238.24 1062.32 Q2240.07 1065.87 2243.68 1065.87 Q2247.31 1065.87 2249.12 1062.32 Q2250.95 1058.76 2250.95 1051.65 Q2250.95 1044.52 2249.12 1040.98 Q2247.31 1037.42 2243.68 1037.42 M2243.68 1033.71 Q2249.49 1033.71 2252.55 1038.32 Q2255.62 1042.9 2255.62 1051.65 Q2255.62 1060.38 2252.55 1064.99 Q2249.49 1069.57 2243.68 1069.57 Q2237.87 1069.57 2234.79 1064.99 Q2231.74 1060.38 2231.74 1051.65 Q2231.74 1042.9 2234.79 1038.32 Q2237.87 1033.71 2243.68 1033.71 Z" fill="#000000" fill-rule="nonzero" fill-opacity="1" /><path clip-path="url(#clip660)" d="M2273.84 1037.42 Q2270.23 1037.42 2268.4 1040.98 Q2266.6 1044.52 2266.6 1051.65 Q2266.6 1058.76 2268.4 1062.32 Q2270.23 1065.87 2273.84 1065.87 Q2277.48 1065.87 2279.28 1062.32 Q2281.11 1058.76 2281.11 1051.65 Q2281.11 1044.52 2279.28 1040.98 Q2277.48 1037.42 2273.84 1037.42 M2273.84 1033.71 Q2279.65 1033.71 2282.71 1038.32 Q2285.79 1042.9 2285.79 1051.65 Q2285.79 1060.38 2282.71 1064.99 Q2279.65 1069.57 2273.84 1069.57 Q2268.03 1069.57 2264.95 1064.99 Q2261.9 1060.38 2261.9 1051.65 Q2261.9 1042.9 2264.95 1038.32 Q2268.03 1033.71 2273.84 1033.71 Z" fill="#000000" fill-rule="nonzero" fill-opacity="1" /><path clip-path="url(#clip660)" d="M2683.12 1064.96 L2690.75 1064.96 L2690.75 1038.6 L2682.44 1040.26 L2682.44 1036 L2690.71 1034.34 L2695.38 1034.34 L2695.38 1064.96 L2703.02 1064.96 L2703.02 1068.9 L2683.12 1068.9 L2683.12 1064.96 Z" fill="#000000" fill-rule="nonzero" fill-opacity="1" /><path clip-path="url(#clip660)" d="M2716.5 1064.96 L2732.81 1064.96 L2732.81 1068.9 L2710.87 1068.9 L2710.87 1064.96 Q2713.53 1062.21 2718.12 1057.58 Q2722.72 1052.93 2723.9 1051.58 Q2726.15 1049.06 2727.03 1047.32 Q2727.93 1045.56 2727.93 1043.87 Q2727.93 1041.12 2725.99 1039.38 Q2724.06 1037.65 2720.96 1037.65 Q2718.76 1037.65 2716.31 1038.41 Q2713.88 1039.18 2711.1 1040.73 L2711.1 1036 Q2713.93 1034.87 2716.38 1034.29 Q2718.83 1033.71 2720.87 1033.71 Q2726.24 1033.71 2729.44 1036.4 Q2732.63 1039.08 2732.63 1043.57 Q2732.63 1045.7 2731.82 1047.62 Q2731.03 1049.52 2728.93 1052.12 Q2728.35 1052.79 2725.25 1056 Q2722.14 1059.2 2716.5 1064.96 Z" fill="#000000" fill-rule="nonzero" fill-opacity="1" /><path clip-path="url(#clip660)" d="M2742.68 1034.34 L2761.03 1034.34 L2761.03 1038.27 L2746.96 1038.27 L2746.96 1046.75 Q2747.98 1046.4 2749 1046.24 Q2750.01 1046.05 2751.03 1046.05 Q2756.82 1046.05 2760.2 1049.22 Q2763.58 1052.39 2763.58 1057.81 Q2763.58 1063.39 2760.11 1066.49 Q2756.63 1069.57 2750.31 1069.57 Q2748.14 1069.57 2745.87 1069.2 Q2743.62 1068.83 2741.22 1068.09 L2741.22 1063.39 Q2743.3 1064.52 2745.52 1065.08 Q2747.75 1065.63 2750.22 1065.63 Q2754.23 1065.63 2756.56 1063.53 Q2758.9 1061.42 2758.9 1057.81 Q2758.9 1054.2 2756.56 1052.09 Q2754.23 1049.99 2750.22 1049.99 Q2748.35 1049.99 2746.47 1050.4 Q2744.62 1050.82 2742.68 1051.7 L2742.68 1034.34 Z" fill="#000000" fill-rule="nonzero" fill-opacity="1" /><path clip-path="url(#clip660)" d="M1556.64 1109.44 L1563.07 1109.44 L1563.07 1151.55 L1586.21 1151.55 L1586.21 1156.96 L1556.64 1156.96 L1556.64 1109.44 Z" fill="#000000" fill-rule="nonzero" fill-opacity="1" /><path clip-path="url(#clip660)" d="M1592.7 1121.31 L1598.56 1121.31 L1598.56 1156.96 L1592.7 1156.96 L1592.7 1121.31 M1592.7 1107.44 L1598.56 1107.44 L1598.56 1114.85 L1592.7 1114.85 L1592.7 1107.44 Z" fill="#000000" fill-rule="nonzero" fill-opacity="1" /><path clip-path="url(#clip660)" d="M1640.44 1135.45 L1640.44 1156.96 L1634.59 1156.96 L1634.59 1135.64 Q1634.59 1130.58 1632.61 1128.06 Q1630.64 1125.55 1626.69 1125.55 Q1621.95 1125.55 1619.21 1128.57 Q1616.48 1131.59 1616.48 1136.81 L1616.48 1156.96 L1610.59 1156.96 L1610.59 1121.31 L1616.48 1121.31 L1616.48 1126.85 Q1618.58 1123.64 1621.41 1122.05 Q1624.27 1120.45 1628 1120.45 Q1634.14 1120.45 1637.29 1124.27 Q1640.44 1128.06 1640.44 1135.45 Z" fill="#000000" fill-rule="nonzero" fill-opacity="1" /><path clip-path="url(#clip660)" d="M1682.62 1137.67 L1682.62 1140.54 L1655.69 1140.54 Q1656.07 1146.59 1659.32 1149.77 Q1662.6 1152.92 1668.42 1152.92 Q1671.79 1152.92 1674.95 1152.09 Q1678.13 1151.26 1681.25 1149.61 L1681.25 1155.15 Q1678.1 1156.48 1674.79 1157.18 Q1671.48 1157.88 1668.07 1157.88 Q1659.54 1157.88 1654.54 1152.92 Q1649.58 1147.95 1649.58 1139.49 Q1649.58 1130.74 1654.29 1125.61 Q1659.03 1120.45 1667.05 1120.45 Q1674.25 1120.45 1678.42 1125.1 Q1682.62 1129.72 1682.62 1137.67 M1676.76 1135.95 Q1676.7 1131.15 1674.05 1128.28 Q1671.44 1125.42 1667.12 1125.42 Q1662.21 1125.42 1659.25 1128.19 Q1656.33 1130.96 1655.88 1135.99 L1676.76 1135.95 Z" fill="#000000" fill-rule="nonzero" fill-opacity="1" /><path clip-path="url(#clip660)" d="M1708.43 1139.04 Q1701.33 1139.04 1698.59 1140.67 Q1695.86 1142.29 1695.86 1146.2 Q1695.86 1149.32 1697.89 1151.17 Q1699.96 1152.98 1703.5 1152.98 Q1708.37 1152.98 1711.29 1149.55 Q1714.25 1146.08 1714.25 1140.35 L1714.25 1139.04 L1708.43 1139.04 M1720.11 1136.62 L1720.11 1156.96 L1714.25 1156.96 L1714.25 1151.55 Q1712.25 1154.8 1709.26 1156.36 Q1706.27 1157.88 1701.94 1157.88 Q1696.46 1157.88 1693.22 1154.83 Q1690 1151.74 1690 1146.59 Q1690 1140.57 1694.01 1137.51 Q1698.05 1134.46 1706.04 1134.46 L1714.25 1134.46 L1714.25 1133.89 Q1714.25 1129.84 1711.58 1127.65 Q1708.94 1125.42 1704.13 1125.42 Q1701.08 1125.42 1698.18 1126.15 Q1695.28 1126.88 1692.61 1128.35 L1692.61 1122.94 Q1695.83 1121.7 1698.85 1121.09 Q1701.87 1120.45 1704.74 1120.45 Q1712.47 1120.45 1716.29 1124.46 Q1720.11 1128.48 1720.11 1136.62 Z" fill="#000000" fill-rule="nonzero" fill-opacity="1" /><path clip-path="url(#clip660)" d="M1755.63 1138.72 Q1755.63 1132.36 1752.99 1128.86 Q1750.38 1125.36 1745.64 1125.36 Q1740.93 1125.36 1738.28 1128.86 Q1735.67 1132.36 1735.67 1138.72 Q1735.67 1145.06 1738.28 1148.56 Q1740.93 1152.06 1745.64 1152.06 Q1750.38 1152.06 1752.99 1148.56 Q1755.63 1145.06 1755.63 1138.72 M1761.49 1152.54 Q1761.49 1161.64 1757.45 1166.06 Q1753.4 1170.52 1745.06 1170.52 Q1741.98 1170.52 1739.24 1170.04 Q1736.5 1169.6 1733.92 1168.64 L1733.92 1162.95 Q1736.5 1164.35 1739.02 1165.01 Q1741.53 1165.68 1744.14 1165.68 Q1749.9 1165.68 1752.77 1162.66 Q1755.63 1159.67 1755.63 1153.59 L1755.63 1150.69 Q1753.82 1153.84 1750.98 1155.4 Q1748.15 1156.96 1744.2 1156.96 Q1737.65 1156.96 1733.64 1151.96 Q1729.63 1146.97 1729.63 1138.72 Q1729.63 1130.45 1733.64 1125.45 Q1737.65 1120.45 1744.2 1120.45 Q1748.15 1120.45 1750.98 1122.01 Q1753.82 1123.57 1755.63 1126.72 L1755.63 1121.31 L1761.49 1121.31 L1761.49 1152.54 Z" fill="#000000" fill-rule="nonzero" fill-opacity="1" /><path clip-path="url(#clip660)" d="M1804.04 1137.67 L1804.04 1140.54 L1777.12 1140.54 Q1777.5 1146.59 1780.74 1149.77 Q1784.02 1152.92 1789.85 1152.92 Q1793.22 1152.92 1796.37 1152.09 Q1799.55 1151.26 1802.67 1149.61 L1802.67 1155.15 Q1799.52 1156.48 1796.21 1157.18 Q1792.9 1157.88 1789.5 1157.88 Q1780.97 1157.88 1775.97 1152.92 Q1771 1147.95 1771 1139.49 Q1771 1130.74 1775.71 1125.61 Q1780.46 1120.45 1788.48 1120.45 Q1795.67 1120.45 1799.84 1125.1 Q1804.04 1129.72 1804.04 1137.67 M1798.19 1135.95 Q1798.12 1131.15 1795.48 1128.28 Q1792.87 1125.42 1788.54 1125.42 Q1783.64 1125.42 1780.68 1128.19 Q1777.75 1130.96 1777.31 1135.99 L1798.19 1135.95 Z" fill="#000000" fill-rule="nonzero" fill-opacity="1" /><polyline clip-path="url(#clip662)" style="stroke:#000000; stroke-linecap:round; stroke-linejoin:round; stroke-width:2; stroke-opacity:0.1; fill:none" points="270.918,1000.1 3089.76,1000.1 "/>
<polyline clip-path="url(#clip662)" style="stroke:#000000; stroke-linecap:round; stroke-linejoin:round; stroke-width:2; stroke-opacity:0.1; fill:none" points="270.918,677.359 3089.76,677.359 "/>
<polyline clip-path="url(#clip662)" style="stroke:#000000; stroke-linecap:round; stroke-linejoin:round; stroke-width:2; stroke-opacity:0.1; fill:none" points="270.918,354.621 3089.76,354.621 "/>
<polyline clip-path="url(#clip660)" style="stroke:#000000; stroke-linecap:round; stroke-linejoin:round; stroke-width:4; stroke-opacity:1; fill:none" points="270.918,1000.1 270.918,110.236 "/>
<polyline clip-path="url(#clip660)" style="stroke:#000000; stroke-linecap:round; stroke-linejoin:round; stroke-width:4; stroke-opacity:1; fill:none" points="270.918,1000.1 289.815,1000.1 "/>
<polyline clip-path="url(#clip660)" style="stroke:#000000; stroke-linecap:round; stroke-linejoin:round; stroke-width:4; stroke-opacity:1; fill:none" points="270.918,677.359 289.815,677.359 "/>
<polyline clip-path="url(#clip660)" style="stroke:#000000; stroke-linecap:round; stroke-linejoin:round; stroke-width:4; stroke-opacity:1; fill:none" points="270.918,354.621 289.815,354.621 "/>
<path clip-path="url(#clip660)" d="M154.902 1019.89 L162.54 1019.89 L162.54 993.525 L154.23 995.191 L154.23 990.932 L162.494 989.265 L167.17 989.265 L167.17 1019.89 L174.809 1019.89 L174.809 1023.83 L154.902 1023.83 L154.902 1019.89 Z" fill="#000000" fill-rule="nonzero" fill-opacity="1" /><path clip-path="url(#clip660)" d="M194.253 992.344 Q190.642 992.344 188.813 995.909 Q187.008 999.45 187.008 1006.58 Q187.008 1013.69 188.813 1017.25 Q190.642 1020.79 194.253 1020.79 Q197.887 1020.79 199.693 1017.25 Q201.522 1013.69 201.522 1006.58 Q201.522 999.45 199.693 995.909 Q197.887 992.344 194.253 992.344 M194.253 988.64 Q200.063 988.64 203.119 993.247 Q206.198 997.83 206.198 1006.58 Q206.198 1015.31 203.119 1019.91 Q200.063 1024.5 194.253 1024.5 Q188.443 1024.5 185.364 1019.91 Q182.309 1015.31 182.309 1006.58 Q182.309 997.83 185.364 993.247 Q188.443 988.64 194.253 988.64 Z" fill="#000000" fill-rule="nonzero" fill-opacity="1" /><path clip-path="url(#clip660)" d="M206.743 993.218 L212.95 993.218 L212.95 971.796 L206.198 973.15 L206.198 969.689 L212.912 968.335 L216.711 968.335 L216.711 993.218 L222.918 993.218 L222.918 996.415 L206.743 996.415 L206.743 993.218 Z" fill="#000000" fill-rule="nonzero" fill-opacity="1" /><path clip-path="url(#clip660)" d="M153.792 697.152 L161.431 697.152 L161.431 670.786 L153.121 672.453 L153.121 668.194 L161.384 666.527 L166.06 666.527 L166.06 697.152 L173.699 697.152 L173.699 701.087 L153.792 701.087 L153.792 697.152 Z" fill="#000000" fill-rule="nonzero" fill-opacity="1" /><path clip-path="url(#clip660)" d="M193.143 669.606 Q189.532 669.606 187.704 673.171 Q185.898 676.712 185.898 683.842 Q185.898 690.948 187.704 694.513 Q189.532 698.055 193.143 698.055 Q196.778 698.055 198.583 694.513 Q200.412 690.948 200.412 683.842 Q200.412 676.712 198.583 673.171 Q196.778 669.606 193.143 669.606 M193.143 665.902 Q198.954 665.902 202.009 670.509 Q205.088 675.092 205.088 683.842 Q205.088 692.569 202.009 697.175 Q198.954 701.758 193.143 701.758 Q187.333 701.758 184.255 697.175 Q181.199 692.569 181.199 683.842 Q181.199 675.092 184.255 670.509 Q187.333 665.902 193.143 665.902 Z" fill="#000000" fill-rule="nonzero" fill-opacity="1" /><path clip-path="url(#clip660)" d="M209.658 670.479 L222.918 670.479 L222.918 673.677 L205.088 673.677 L205.088 670.479 Q207.251 668.241 210.975 664.48 Q214.717 660.699 215.677 659.608 Q217.501 657.558 218.216 656.148 Q218.949 654.718 218.949 653.345 Q218.949 651.107 217.369 649.697 Q215.808 648.286 213.288 648.286 Q211.501 648.286 209.508 648.907 Q207.533 649.527 205.276 650.788 L205.276 646.951 Q207.57 646.029 209.564 645.559 Q211.558 645.089 213.213 645.089 Q217.576 645.089 220.172 647.271 Q222.767 649.452 222.767 653.101 Q222.767 654.831 222.109 656.392 Q221.469 657.935 219.758 660.041 Q219.288 660.586 216.767 663.201 Q214.247 665.796 209.658 670.479 Z" fill="#000000" fill-rule="nonzero" fill-opacity="1" /><path clip-path="url(#clip660)" d="M153.134 374.414 L160.772 374.414 L160.772 348.048 L152.462 349.715 L152.462 345.455 L160.726 343.789 L165.402 343.789 L165.402 374.414 L173.041 374.414 L173.041 378.349 L153.134 378.349 L153.134 374.414 Z" fill="#000000" fill-rule="nonzero" fill-opacity="1" /><path clip-path="url(#clip660)" d="M192.485 346.867 Q188.874 346.867 187.045 350.432 Q185.24 353.974 185.24 361.103 Q185.24 368.21 187.045 371.775 Q188.874 375.316 192.485 375.316 Q196.119 375.316 197.925 371.775 Q199.754 368.21 199.754 361.103 Q199.754 353.974 197.925 350.432 Q196.119 346.867 192.485 346.867 M192.485 343.164 Q198.295 343.164 201.351 347.77 Q204.43 352.354 204.43 361.103 Q204.43 369.83 201.351 374.437 Q198.295 379.02 192.485 379.02 Q186.675 379.02 183.596 374.437 Q180.541 369.83 180.541 361.103 Q180.541 352.354 183.596 347.77 Q186.675 343.164 192.485 343.164 Z" fill="#000000" fill-rule="nonzero" fill-opacity="1" /><path clip-path="url(#clip660)" d="M217.125 335.798 Q219.852 336.381 221.375 338.224 Q222.918 340.067 222.918 342.776 Q222.918 346.932 220.059 349.208 Q217.2 351.484 211.934 351.484 Q210.166 351.484 208.285 351.126 Q206.423 350.788 204.43 350.092 L204.43 346.425 Q206.009 347.346 207.89 347.816 Q209.771 348.286 211.821 348.286 Q215.395 348.286 217.256 346.876 Q219.137 345.465 219.137 342.776 Q219.137 340.293 217.388 338.901 Q215.658 337.491 212.555 337.491 L209.282 337.491 L209.282 334.369 L212.705 334.369 Q215.507 334.369 216.993 333.259 Q218.479 332.131 218.479 330.024 Q218.479 327.861 216.937 326.714 Q215.413 325.548 212.555 325.548 Q210.994 325.548 209.207 325.886 Q207.42 326.225 205.276 326.94 L205.276 323.554 Q207.439 322.952 209.32 322.651 Q211.219 322.351 212.893 322.351 Q217.219 322.351 219.739 324.325 Q222.259 326.281 222.259 329.629 Q222.259 331.961 220.924 333.579 Q219.589 335.177 217.125 335.798 Z" fill="#000000" fill-rule="nonzero" fill-opacity="1" /><path clip-path="url(#clip660)" d="M42.6863 950.461 L42.6863 920.415 L48.0971 920.415 L48.0971 944.032 L62.1653 944.032 L62.1653 921.402 L67.5762 921.402 L67.5762 944.032 L84.7954 944.032 L84.7954 919.842 L90.2063 919.842 L90.2063 950.461 L42.6863 950.461 Z" fill="#000000" fill-rule="nonzero" fill-opacity="1" /><path clip-path="url(#clip660)" d="M44.2459 880.789 L50.5161 880.789 Q48.7655 884.449 47.9062 887.696 Q47.0468 890.942 47.0468 893.966 Q47.0468 899.217 49.0838 902.082 Q51.1208 904.915 54.8766 904.915 Q58.0276 904.915 59.6509 903.037 Q61.2423 901.127 62.229 895.844 L63.0247 891.961 Q64.3933 884.767 67.8627 881.362 Q71.3001 877.924 77.0929 877.924 Q83.9997 877.924 87.5645 882.571 Q91.1293 887.186 91.1293 896.13 Q91.1293 899.504 90.3654 903.323 Q89.6015 907.111 88.1056 911.185 L81.4853 911.185 Q83.6814 907.27 84.7954 903.514 Q85.9094 899.759 85.9094 896.13 Q85.9094 890.624 83.7451 887.632 Q81.5808 884.64 77.5704 884.64 Q74.0692 884.64 72.0958 886.804 Q70.1225 888.937 69.1358 893.838 L68.3719 897.753 Q66.9396 904.947 63.8841 908.161 Q60.8285 911.376 55.3859 911.376 Q49.0838 911.376 45.4554 906.952 Q41.8269 902.496 41.8269 894.698 Q41.8269 891.356 42.4317 887.887 Q43.0364 884.417 44.2459 880.789 Z" fill="#000000" fill-rule="nonzero" fill-opacity="1" /><path clip-path="url(#clip660)" d="M44.2459 839.412 L50.5161 839.412 Q48.7655 843.072 47.9062 846.318 Q47.0468 849.565 47.0468 852.589 Q47.0468 857.84 49.0838 860.705 Q51.1208 863.538 54.8766 863.538 Q58.0276 863.538 59.6509 861.66 Q61.2423 859.75 62.229 854.467 L63.0247 850.583 Q64.3933 843.39 67.8627 839.985 Q71.3001 836.547 77.0929 836.547 Q83.9997 836.547 87.5645 841.194 Q91.1293 845.809 91.1293 854.753 Q91.1293 858.127 90.3654 861.946 Q89.6015 865.734 88.1056 869.808 L81.4853 869.808 Q83.6814 865.893 84.7954 862.137 Q85.9094 858.381 85.9094 854.753 Q85.9094 849.247 83.7451 846.255 Q81.5808 843.263 77.5704 843.263 Q74.0692 843.263 72.0958 845.427 Q70.1225 847.56 69.1358 852.461 L68.3719 856.376 Q66.9396 863.57 63.8841 866.784 Q60.8285 869.999 55.3859 869.999 Q49.0838 869.999 45.4554 865.575 Q41.8269 861.119 41.8269 853.321 Q41.8269 849.979 42.4317 846.509 Q43.0364 843.04 44.2459 839.412 Z" fill="#000000" fill-rule="nonzero" fill-opacity="1" /><path clip-path="url(#clip660)" d="M82.1218 825.28 L82.1218 818.564 L90.2063 818.564 L90.2063 825.28 L82.1218 825.28 M56.4999 825.28 L56.4999 818.564 L64.5843 818.564 L64.5843 825.28 L56.4999 825.28 Z" fill="#000000" fill-rule="nonzero" fill-opacity="1" /><path clip-path="url(#clip660)" d="M47.9698 777.41 L84.9227 777.41 L84.9227 769.644 Q84.9227 759.809 80.4668 755.257 Q76.0108 750.674 66.3985 750.674 Q56.85 750.674 52.4258 755.257 Q47.9698 759.809 47.9698 769.644 L47.9698 777.41 M42.6863 783.839 L42.6863 770.63 Q42.6863 756.817 48.4472 750.355 Q54.1764 743.894 66.3985 743.894 Q78.6844 743.894 84.4453 750.387 Q90.2063 756.88 90.2063 770.63 L90.2063 783.839 L42.6863 783.839 Z" fill="#000000" fill-rule="nonzero" fill-opacity="1" /><path clip-path="url(#clip660)" d="M70.9182 703.408 L73.7828 703.408 L73.7828 730.335 Q79.8302 729.953 83.013 726.707 Q86.1641 723.429 86.1641 717.604 Q86.1641 714.23 85.3365 711.079 Q84.509 707.896 82.8539 704.777 L88.3921 704.777 Q89.7289 707.928 90.4291 711.238 Q91.1293 714.548 91.1293 717.954 Q91.1293 726.484 86.1641 731.481 Q81.1988 736.446 72.7324 736.446 Q63.9796 736.446 58.8552 731.736 Q53.699 726.993 53.699 718.973 Q53.699 711.779 58.3459 707.61 Q62.9611 703.408 70.9182 703.408 M69.1995 709.265 Q64.3933 709.328 61.5288 711.97 Q58.6642 714.58 58.6642 718.909 Q58.6642 723.81 61.4333 726.771 Q64.2024 729.699 69.2313 730.144 L69.1995 709.265 Z" fill="#000000" fill-rule="nonzero" fill-opacity="1" /><path clip-path="url(#clip660)" d="M68.6902 664.164 L90.2063 664.164 L90.2063 670.02 L68.8812 670.02 Q63.8204 670.02 61.306 671.994 Q58.7915 673.967 58.7915 677.914 Q58.7915 682.656 61.8152 685.393 Q64.8389 688.131 70.0588 688.131 L90.2063 688.131 L90.2063 694.019 L54.5583 694.019 L54.5583 688.131 L60.0965 688.131 Q56.8818 686.03 55.2904 683.197 Q53.699 680.333 53.699 676.609 Q53.699 670.466 57.5184 667.315 Q61.306 664.164 68.6902 664.164 Z" fill="#000000" fill-rule="nonzero" fill-opacity="1" /><path clip-path="url(#clip660)" d="M61.4015 624.728 Q57.4547 622.532 55.5768 619.477 Q53.699 616.421 53.699 612.283 Q53.699 606.713 57.6139 603.69 Q61.4969 600.666 68.6902 600.666 L90.2063 600.666 L90.2063 606.554 L68.8812 606.554 Q63.7568 606.554 61.2741 608.368 Q58.7915 610.183 58.7915 613.907 Q58.7915 618.458 61.8152 621.1 Q64.8389 623.742 70.0588 623.742 L90.2063 623.742 L90.2063 629.63 L68.8812 629.63 Q63.7249 629.63 61.2741 631.444 Q58.7915 633.258 58.7915 637.046 Q58.7915 641.534 61.8471 644.175 Q64.8708 646.817 70.0588 646.817 L90.2063 646.817 L90.2063 652.706 L54.5583 652.706 L54.5583 646.817 L60.0965 646.817 Q56.8182 644.812 55.2586 642.011 Q53.699 639.21 53.699 635.359 Q53.699 631.476 55.6723 628.77 Q57.6457 626.033 61.4015 624.728 Z" fill="#000000" fill-rule="nonzero" fill-opacity="1" /><path clip-path="url(#clip660)" d="M72.2868 572.784 Q72.2868 579.882 73.9101 582.619 Q75.5333 585.356 79.4482 585.356 Q82.5674 585.356 84.4135 583.319 Q86.2277 581.25 86.2277 577.717 Q86.2277 572.848 82.7902 569.919 Q79.3209 566.959 73.5918 566.959 L72.2868 566.959 L72.2868 572.784 M69.8679 561.103 L90.2063 561.103 L90.2063 566.959 L84.7954 566.959 Q88.0419 568.965 89.6015 571.957 Q91.1293 574.948 91.1293 579.277 Q91.1293 584.752 88.0738 587.998 Q84.9864 591.213 79.8302 591.213 Q73.8146 591.213 70.759 587.202 Q67.7035 583.16 67.7035 575.171 L67.7035 566.959 L67.1306 566.959 Q63.0884 566.959 60.8922 569.633 Q58.6642 572.275 58.6642 577.081 Q58.6642 580.136 59.3963 583.033 Q60.1283 585.929 61.5924 588.603 L56.1816 588.603 Q54.9403 585.388 54.3355 582.364 Q53.699 579.341 53.699 576.476 Q53.699 568.742 57.7094 564.922 Q61.7197 561.103 69.8679 561.103 Z" fill="#000000" fill-rule="nonzero" fill-opacity="1" /><path clip-path="url(#clip660)" d="M60.0328 528.383 Q59.4599 529.37 59.2053 530.548 Q58.9188 531.693 58.9188 533.094 Q58.9188 538.059 62.1653 540.733 Q65.38 543.374 71.4274 543.374 L90.2063 543.374 L90.2063 549.263 L54.5583 549.263 L54.5583 543.374 L60.0965 543.374 Q56.85 541.528 55.2904 538.568 Q53.699 535.608 53.699 531.375 Q53.699 530.77 53.7944 530.038 Q53.8581 529.306 54.0172 528.415 L60.0328 528.383 Z" fill="#000000" fill-rule="nonzero" fill-opacity="1" /><path clip-path="url(#clip660)" d="M40.6811 522.463 L40.6811 516.575 L69.9315 516.575 L54.5583 499.101 L54.5583 491.621 L71.2365 510.527 L90.2063 490.826 L90.2063 498.464 L72.7961 516.575 L90.2063 516.575 L90.2063 522.463 L40.6811 522.463 Z" fill="#000000" fill-rule="nonzero" fill-opacity="1" /><path clip-path="url(#clip660)" d="M82.1218 482.996 L82.1218 476.28 L87.5963 476.28 L97.7815 481.5 L97.7815 485.606 L87.5963 482.996 L82.1218 482.996 Z" fill="#000000" fill-rule="nonzero" fill-opacity="1" /><path clip-path="url(#clip660)" d="M44.4369 437.258 L54.5583 437.258 L54.5583 425.195 L59.1098 425.195 L59.1098 437.258 L78.4616 437.258 Q82.8221 437.258 84.0634 436.081 Q85.3047 434.871 85.3047 431.211 L85.3047 425.195 L90.2063 425.195 L90.2063 431.211 Q90.2063 437.99 87.6918 440.568 Q85.1455 443.146 78.4616 443.146 L59.1098 443.146 L59.1098 447.443 L54.5583 447.443 L54.5583 443.146 L44.4369 443.146 L44.4369 437.258 Z" fill="#000000" fill-rule="nonzero" fill-opacity="1" /><path clip-path="url(#clip660)" d="M54.5583 417.493 L54.5583 411.636 L90.2063 411.636 L90.2063 417.493 L54.5583 417.493 M40.6811 417.493 L40.6811 411.636 L48.0971 411.636 L48.0971 417.493 L40.6811 417.493 Z" fill="#000000" fill-rule="nonzero" fill-opacity="1" /><path clip-path="url(#clip660)" d="M61.4015 371.628 Q57.4547 369.432 55.5768 366.376 Q53.699 363.32 53.699 359.183 Q53.699 353.613 57.6139 350.589 Q61.4969 347.565 68.6902 347.565 L90.2063 347.565 L90.2063 353.454 L68.8812 353.454 Q63.7568 353.454 61.2741 355.268 Q58.7915 357.082 58.7915 360.806 Q58.7915 365.358 61.8152 367.999 Q64.8389 370.641 70.0588 370.641 L90.2063 370.641 L90.2063 376.529 L68.8812 376.529 Q63.7249 376.529 61.2741 378.344 Q58.7915 380.158 58.7915 383.945 Q58.7915 388.433 61.8471 391.075 Q64.8708 393.717 70.0588 393.717 L90.2063 393.717 L90.2063 399.605 L54.5583 399.605 L54.5583 393.717 L60.0965 393.717 Q56.8182 391.712 55.2586 388.911 Q53.699 386.11 53.699 382.258 Q53.699 378.375 55.6723 375.67 Q57.6457 372.933 61.4015 371.628 Z" fill="#000000" fill-rule="nonzero" fill-opacity="1" /><path clip-path="url(#clip660)" d="M70.9182 305.393 L73.7828 305.393 L73.7828 332.319 Q79.8302 331.938 83.013 328.691 Q86.1641 325.413 86.1641 319.588 Q86.1641 316.214 85.3365 313.063 Q84.509 309.88 82.8539 306.761 L88.3921 306.761 Q89.7289 309.912 90.4291 313.222 Q91.1293 316.533 91.1293 319.938 Q91.1293 328.468 86.1641 333.465 Q81.1988 338.431 72.7324 338.431 Q63.9796 338.431 58.8552 333.72 Q53.699 328.977 53.699 320.957 Q53.699 313.763 58.3459 309.594 Q62.9611 305.393 70.9182 305.393 M69.1995 311.249 Q64.3933 311.313 61.5288 313.954 Q58.6642 316.564 58.6642 320.893 Q58.6642 325.795 61.4333 328.755 Q64.2024 331.683 69.2313 332.129 L69.1995 311.249 Z" fill="#000000" fill-rule="nonzero" fill-opacity="1" /><path clip-path="url(#clip660)" d="M82.1218 294.284 L82.1218 287.569 L90.2063 287.569 L90.2063 294.284 L82.1218 294.284 M56.4999 294.284 L56.4999 287.569 L64.5843 287.569 L64.5843 294.284 L56.4999 294.284 Z" fill="#000000" fill-rule="nonzero" fill-opacity="1" /><path clip-path="url(#clip660)" d="M84.7954 271.877 L84.7954 261.374 L48.5427 261.374 L50.8344 272.8 L44.9779 272.8 L42.6863 261.437 L42.6863 255.008 L84.7954 255.008 L84.7954 244.505 L90.2063 244.505 L90.2063 271.877 L84.7954 271.877 Z" fill="#000000" fill-rule="nonzero" fill-opacity="1" /><path clip-path="url(#clip660)" d="M46.9195 217.769 Q46.9195 222.734 51.8211 225.248 Q56.6908 227.731 66.494 227.731 Q76.2654 227.731 81.167 225.248 Q86.0367 222.734 86.0367 217.769 Q86.0367 212.772 81.167 210.289 Q76.2654 207.774 66.494 207.774 Q56.6908 207.774 51.8211 210.289 Q46.9195 212.772 46.9195 217.769 M41.8269 217.769 Q41.8269 209.78 48.1608 205.578 Q54.4628 201.345 66.494 201.345 Q78.4934 201.345 84.8273 205.578 Q91.1293 209.78 91.1293 217.769 Q91.1293 225.758 84.8273 229.991 Q78.4934 234.192 66.494 234.192 Q54.4628 234.192 48.1608 229.991 Q41.8269 225.758 41.8269 217.769 Z" fill="#000000" fill-rule="nonzero" fill-opacity="1" /><path clip-path="url(#clip660)" d="M46.9195 176.296 Q46.9195 181.261 51.8211 183.776 Q56.6908 186.258 66.494 186.258 Q76.2654 186.258 81.167 183.776 Q86.0367 181.261 86.0367 176.296 Q86.0367 171.299 81.167 168.816 Q76.2654 166.302 66.494 166.302 Q56.6908 166.302 51.8211 168.816 Q46.9195 171.299 46.9195 176.296 M41.8269 176.296 Q41.8269 168.307 48.1608 164.106 Q54.4628 159.873 66.494 159.873 Q78.4934 159.873 84.8273 164.106 Q91.1293 168.307 91.1293 176.296 Q91.1293 184.285 84.8273 188.518 Q78.4934 192.72 66.494 192.72 Q54.4628 192.72 48.1608 188.518 Q41.8269 184.285 41.8269 176.296 Z" fill="#000000" fill-rule="nonzero" fill-opacity="1" /><polyline clip-path="url(#clip662)" style="stroke:#009af9; stroke-linecap:round; stroke-linejoin:round; stroke-width:4; stroke-opacity:1; fill:none" points="350.696,374.979 369.828,183.521 388.959,148.245 408.091,171.956 427.223,176.275 446.354,156.061 465.486,172.418 484.617,164.78 503.749,171.945 522.88,151.666 542.012,149.036 561.144,178.314 580.275,188.58 599.407,183.448 618.538,153.162 637.67,174.032 656.801,183.745 675.933,143.858 695.065,162.792 714.196,163.297 733.328,150.194 752.459,166.753 771.591,168.281 790.723,155.431 809.854,160.621 828.986,133.431 848.117,125.948 867.249,122.429 886.38,162.777 905.512,158.971 924.644,142.351 943.775,165.473 962.907,156.277 982.038,177.564 1001.17,142.066 1020.3,132.801 1039.43,165.918 1058.56,139.065 1077.7,149.619 1096.83,154.362 1115.96,143.778 1135.09,148.731 1154.22,156.213 1173.35,166.473 1192.49,160.759 1211.62,159.053 1230.75,157.47 1249.88,170.93 1269.01,187.454 1288.14,135.236 1307.28,141.777 1326.41,182.689 1345.54,161.949 1364.67,150.138 1383.8,172.002 1402.93,167.572 1422.06,180.62 1441.2,139.194 1460.33,169.288 1479.46,159.846 1498.59,170.028 1517.72,177.657 1536.85,159.625 1555.99,148.263 1575.12,164.328 1594.25,138.248 1613.38,200.517 1632.51,158.78 1651.64,159.661 1670.77,135.869 1689.91,184.303 1709.04,164.837 1728.17,135.766 1747.3,165.957 1766.43,140.13 1785.56,120.324 1804.7,149.031 1823.83,172.386 1842.96,154.134 1862.09,201.545 1881.22,175.804 1900.35,191.653 1919.49,139.345 1938.62,193.554 1957.75,166.912 1976.88,169.705 1996.01,162.991 2015.14,139.045 2034.27,160.023 2053.41,153.93 2072.54,144.128 2091.67,162.503 2110.8,147.148 2129.93,187.144 2149.06,183.899 2168.2,177.167 2187.33,128.706 2206.46,147.708 2225.59,143.601 2244.72,166.362 2263.85,133.99 2282.99,162.31 2302.12,134.638 2321.25,130.97 2340.38,124.776 2359.51,136.805 2378.64,162.031 2397.77,136.396 2416.91,178.062 2436.04,150.637 2455.17,136.401 2474.3,136.29 2493.43,159.733 2512.56,177.397 2531.7,173.251 2550.83,124.857 2569.96,144.775 2589.09,139.265 2608.22,148.999 2627.35,110.236 2646.49,176.488 2665.62,166.532 2684.75,146.837 2703.88,162.825 2723.01,148.154 2742.14,162.315 2761.27,138.661 2780.41,146.159 2799.54,163.376 2818.67,156.072 2837.8,163.978 2856.93,153.012 2876.06,150.708 2895.2,175.584 2914.33,153.739 2933.46,126.926 2952.59,200.929 2971.72,138.109 2990.85,145.286 3009.99,183.718 "/>
</svg>
