<?xml version="1.0" encoding="utf-8"?>
<svg xmlns="http://www.w3.org/2000/svg" xmlns:xlink="http://www.w3.org/1999/xlink" width="800" height="300" viewBox="0 0 3200 1200">
<defs>
  <clipPath id="clip410">
    <rect x="0" y="0" width="3200" height="1200"/>
  </clipPath>
</defs>
<path clip-path="url(#clip410)" d="M0 1200 L3200 1200 L3200 0 L0 0  Z" fill="#ffffff" fill-rule="evenodd" fill-opacity="1"/>
<defs>
  <clipPath id="clip411">
    <rect x="640" y="0" width="2241" height="1200"/>
  </clipPath>
</defs>
<path clip-path="url(#clip410)" d="M270.918 1000.1 L3089.76 1000.1 L3089.76 110.236 L270.918 110.236  Z" fill="#ffffff" fill-rule="evenodd" fill-opacity="1"/>
<defs>
  <clipPath id="clip412">
    <rect x="270" y="110" width="2820" height="891"/>
  </clipPath>
</defs>
<polyline clip-path="url(#clip412)" style="stroke:#000000; stroke-linecap:round; stroke-linejoin:round; stroke-width:2; stroke-opacity:0.1; fill:none" points="319.774,1000.1 319.774,110.236 "/>
<polyline clip-path="url(#clip412)" style="stroke:#000000; stroke-linecap:round; stroke-linejoin:round; stroke-width:2; stroke-opacity:0.1; fill:none" points="938.214,1000.1 938.214,110.236 "/>
<polyline clip-path="url(#clip412)" style="stroke:#000000; stroke-linecap:round; stroke-linejoin:round; stroke-width:2; stroke-opacity:0.1; fill:none" points="1556.65,1000.1 1556.65,110.236 "/>
<polyline clip-path="url(#clip412)" style="stroke:#000000; stroke-linecap:round; stroke-linejoin:round; stroke-width:2; stroke-opacity:0.1; fill:none" points="2175.09,1000.1 2175.09,110.236 "/>
<polyline clip-path="url(#clip412)" style="stroke:#000000; stroke-linecap:round; stroke-linejoin:round; stroke-width:2; stroke-opacity:0.1; fill:none" points="2793.53,1000.1 2793.53,110.236 "/>
<polyline clip-path="url(#clip410)" style="stroke:#000000; stroke-linecap:round; stroke-linejoin:round; stroke-width:4; stroke-opacity:1; fill:none" points="270.918,1000.1 3089.76,1000.1 "/>
<polyline clip-path="url(#clip410)" style="stroke:#000000; stroke-linecap:round; stroke-linejoin:round; stroke-width:4; stroke-opacity:1; fill:none" points="319.774,1000.1 319.774,981.2 "/>
<polyline clip-path="url(#clip410)" style="stroke:#000000; stroke-linecap:round; stroke-linejoin:round; stroke-width:4; stroke-opacity:1; fill:none" points="938.214,1000.1 938.214,981.2 "/>
<polyline clip-path="url(#clip410)" style="stroke:#000000; stroke-linecap:round; stroke-linejoin:round; stroke-width:4; stroke-opacity:1; fill:none" points="1556.65,1000.1 1556.65,981.2 "/>
<polyline clip-path="url(#clip410)" style="stroke:#000000; stroke-linecap:round; stroke-linejoin:round; stroke-width:4; stroke-opacity:1; fill:none" points="2175.09,1000.1 2175.09,981.2 "/>
<polyline clip-path="url(#clip410)" style="stroke:#000000; stroke-linecap:round; stroke-linejoin:round; stroke-width:4; stroke-opacity:1; fill:none" points="2793.53,1000.1 2793.53,981.2 "/>
<path clip-path="url(#clip410)" d="M319.774 1037.42 Q316.163 1037.42 314.335 1040.98 Q312.529 1044.52 312.529 1051.65 Q312.529 1058.76 314.335 1062.32 Q316.163 1065.87 319.774 1065.87 Q323.409 1065.87 325.214 1062.32 Q327.043 1058.76 327.043 1051.65 Q327.043 1044.52 325.214 1040.98 Q323.409 1037.42 319.774 1037.42 M319.774 1033.71 Q325.584 1033.71 328.64 1038.32 Q331.719 1042.9 331.719 1051.65 Q331.719 1060.38 328.64 1064.99 Q325.584 1069.57 319.774 1069.57 Q313.964 1069.57 310.885 1064.99 Q307.83 1060.38 307.83 1051.65 Q307.83 1042.9 310.885 1038.32 Q313.964 1033.71 319.774 1033.71 Z" fill="#000000" fill-rule="nonzero" fill-opacity="1" /><path clip-path="url(#clip410)" d="M916.987 1064.96 L933.306 1064.96 L933.306 1068.9 L911.362 1068.9 L911.362 1064.96 Q914.024 1062.21 918.607 1057.58 Q923.214 1052.93 924.394 1051.58 Q926.64 1049.06 927.519 1047.32 Q928.422 1045.56 928.422 1043.87 Q928.422 1041.12 926.478 1039.38 Q924.556 1037.65 921.454 1037.65 Q919.255 1037.65 916.802 1038.41 Q914.371 1039.18 911.593 1040.73 L911.593 1036 Q914.417 1034.87 916.871 1034.29 Q919.325 1033.71 921.362 1033.71 Q926.732 1033.71 929.927 1036.4 Q933.121 1039.08 933.121 1043.57 Q933.121 1045.7 932.311 1047.62 Q931.524 1049.52 929.417 1052.12 Q928.839 1052.79 925.737 1056 Q922.635 1059.2 916.987 1064.96 Z" fill="#000000" fill-rule="nonzero" fill-opacity="1" /><path clip-path="url(#clip410)" d="M953.121 1037.42 Q949.51 1037.42 947.681 1040.98 Q945.876 1044.52 945.876 1051.65 Q945.876 1058.76 947.681 1062.32 Q949.51 1065.87 953.121 1065.87 Q956.755 1065.87 958.561 1062.32 Q960.389 1058.76 960.389 1051.65 Q960.389 1044.52 958.561 1040.98 Q956.755 1037.42 953.121 1037.42 M953.121 1033.71 Q958.931 1033.71 961.987 1038.32 Q965.065 1042.9 965.065 1051.65 Q965.065 1060.38 961.987 1064.99 Q958.931 1069.57 953.121 1069.57 Q947.311 1069.57 944.232 1064.99 Q941.177 1060.38 941.177 1051.65 Q941.177 1042.9 944.232 1038.32 Q947.311 1033.71 953.121 1033.71 Z" fill="#000000" fill-rule="nonzero" fill-opacity="1" /><path clip-path="url(#clip410)" d="M1544.82 1038.41 L1533.02 1056.86 L1544.82 1056.86 L1544.82 1038.41 M1543.6 1034.34 L1549.48 1034.34 L1549.48 1056.86 L1554.41 1056.86 L1554.41 1060.75 L1549.48 1060.75 L1549.48 1068.9 L1544.82 1068.9 L1544.82 1060.75 L1529.22 1060.75 L1529.22 1056.24 L1543.6 1034.34 Z" fill="#000000" fill-rule="nonzero" fill-opacity="1" /><path clip-path="url(#clip410)" d="M1572.14 1037.42 Q1568.53 1037.42 1566.7 1040.98 Q1564.89 1044.52 1564.89 1051.65 Q1564.89 1058.76 1566.7 1062.32 Q1568.53 1065.87 1572.14 1065.87 Q1575.77 1065.87 1577.58 1062.32 Q1579.41 1058.76 1579.41 1051.65 Q1579.41 1044.52 1577.58 1040.98 Q1575.77 1037.42 1572.14 1037.42 M1572.14 1033.71 Q1577.95 1033.71 1581 1038.32 Q1584.08 1042.9 1584.08 1051.65 Q1584.08 1060.38 1581 1064.99 Q1577.95 1069.57 1572.14 1069.57 Q1566.33 1069.57 1563.25 1064.99 Q1560.19 1060.38 1560.19 1051.65 Q1560.19 1042.9 1563.25 1038.32 Q1566.33 1033.71 1572.14 1033.71 Z" fill="#000000" fill-rule="nonzero" fill-opacity="1" /><path clip-path="url(#clip410)" d="M2160.5 1049.75 Q2157.35 1049.75 2155.5 1051.91 Q2153.67 1054.06 2153.67 1057.81 Q2153.67 1061.54 2155.5 1063.71 Q2157.35 1065.87 2160.5 1065.87 Q2163.65 1065.87 2165.47 1063.71 Q2167.33 1061.54 2167.33 1057.81 Q2167.33 1054.06 2165.47 1051.91 Q2163.65 1049.75 2160.5 1049.75 M2169.78 1035.1 L2169.78 1039.36 Q2168.02 1038.53 2166.21 1038.09 Q2164.43 1037.65 2162.67 1037.65 Q2158.04 1037.65 2155.59 1040.77 Q2153.16 1043.9 2152.81 1050.22 Q2154.18 1048.2 2156.24 1047.14 Q2158.3 1046.05 2160.78 1046.05 Q2165.98 1046.05 2168.99 1049.22 Q2172.03 1052.37 2172.03 1057.81 Q2172.03 1063.13 2168.88 1066.35 Q2165.73 1069.57 2160.5 1069.57 Q2154.5 1069.57 2151.33 1064.99 Q2148.16 1060.38 2148.16 1051.65 Q2148.16 1043.46 2152.05 1038.6 Q2155.94 1033.71 2162.49 1033.71 Q2164.25 1033.71 2166.03 1034.06 Q2167.84 1034.41 2169.78 1035.1 Z" fill="#000000" fill-rule="nonzero" fill-opacity="1" /><path clip-path="url(#clip410)" d="M2190.08 1037.42 Q2186.47 1037.42 2184.64 1040.98 Q2182.84 1044.52 2182.84 1051.65 Q2182.84 1058.76 2184.64 1062.32 Q2186.47 1065.87 2190.08 1065.87 Q2193.71 1065.87 2195.52 1062.32 Q2197.35 1058.76 2197.35 1051.65 Q2197.35 1044.52 2195.52 1040.98 Q2193.71 1037.42 2190.08 1037.42 M2190.08 1033.71 Q2195.89 1033.71 2198.95 1038.32 Q2202.02 1042.9 2202.02 1051.65 Q2202.02 1060.38 2198.95 1064.99 Q2195.89 1069.57 2190.08 1069.57 Q2184.27 1069.57 2181.19 1064.99 Q2178.14 1060.38 2178.14 1051.65 Q2178.14 1042.9 2181.19 1038.32 Q2184.27 1033.71 2190.08 1033.71 Z" fill="#000000" fill-rule="nonzero" fill-opacity="1" /><path clip-path="url(#clip410)" d="M2778.4 1052.49 Q2775.07 1052.49 2773.15 1054.27 Q2771.25 1056.05 2771.25 1059.18 Q2771.25 1062.3 2773.15 1064.08 Q2775.07 1065.87 2778.4 1065.87 Q2781.74 1065.87 2783.66 1064.08 Q2785.58 1062.28 2785.58 1059.18 Q2785.58 1056.05 2783.66 1054.27 Q2781.76 1052.49 2778.4 1052.49 M2773.73 1050.5 Q2770.72 1049.75 2769.03 1047.69 Q2767.36 1045.63 2767.36 1042.67 Q2767.36 1038.53 2770.3 1036.12 Q2773.27 1033.71 2778.4 1033.71 Q2783.57 1033.71 2786.51 1036.12 Q2789.45 1038.53 2789.45 1042.67 Q2789.45 1045.63 2787.76 1047.69 Q2786.09 1049.75 2783.1 1050.5 Q2786.48 1051.28 2788.36 1053.57 Q2790.26 1055.87 2790.26 1059.18 Q2790.26 1064.2 2787.18 1066.88 Q2784.12 1069.57 2778.4 1069.57 Q2772.69 1069.57 2769.61 1066.88 Q2766.55 1064.2 2766.55 1059.18 Q2766.55 1055.87 2768.45 1053.57 Q2770.35 1051.28 2773.73 1050.5 M2772.02 1043.11 Q2772.02 1045.8 2773.68 1047.3 Q2775.37 1048.81 2778.4 1048.81 Q2781.41 1048.81 2783.1 1047.3 Q2784.82 1045.8 2784.82 1043.11 Q2784.82 1040.43 2783.1 1038.92 Q2781.41 1037.42 2778.4 1037.42 Q2775.37 1037.42 2773.68 1038.92 Q2772.02 1040.43 2772.02 1043.11 Z" fill="#000000" fill-rule="nonzero" fill-opacity="1" /><path clip-path="url(#clip410)" d="M2808.57 1037.42 Q2804.95 1037.42 2803.13 1040.98 Q2801.32 1044.52 2801.32 1051.65 Q2801.32 1058.76 2803.13 1062.32 Q2804.95 1065.87 2808.57 1065.87 Q2812.2 1065.87 2814.01 1062.32 Q2815.83 1058.76 2815.83 1051.65 Q2815.83 1044.52 2814.01 1040.98 Q2812.2 1037.42 2808.57 1037.42 M2808.57 1033.71 Q2814.38 1033.71 2817.43 1038.32 Q2820.51 1042.9 2820.51 1051.65 Q2820.51 1060.38 2817.43 1064.99 Q2814.38 1069.57 2808.57 1069.57 Q2802.76 1069.57 2799.68 1064.99 Q2796.62 1060.38 2796.62 1051.65 Q2796.62 1042.9 2799.68 1038.32 Q2802.76 1033.71 2808.57 1033.71 Z" fill="#000000" fill-rule="nonzero" fill-opacity="1" /><path clip-path="url(#clip410)" d="M1556.64 1109.44 L1563.07 1109.44 L1563.07 1151.55 L1586.21 1151.55 L1586.21 1156.96 L1556.64 1156.96 L1556.64 1109.44 Z" fill="#000000" fill-rule="nonzero" fill-opacity="1" /><path clip-path="url(#clip410)" d="M1592.7 1121.31 L1598.56 1121.31 L1598.56 1156.96 L1592.7 1156.96 L1592.7 1121.31 M1592.7 1107.44 L1598.56 1107.44 L1598.56 1114.85 L1592.7 1114.85 L1592.7 1107.44 Z" fill="#000000" fill-rule="nonzero" fill-opacity="1" /><path clip-path="url(#clip410)" d="M1640.44 1135.45 L1640.44 1156.96 L1634.59 1156.96 L1634.59 1135.64 Q1634.59 1130.58 1632.61 1128.06 Q1630.64 1125.55 1626.69 1125.55 Q1621.95 1125.55 1619.21 1128.57 Q1616.48 1131.59 1616.48 1136.81 L1616.48 1156.96 L1610.59 1156.96 L1610.59 1121.31 L1616.48 1121.31 L1616.48 1126.85 Q1618.58 1123.64 1621.41 1122.05 Q1624.27 1120.45 1628 1120.45 Q1634.14 1120.45 1637.29 1124.27 Q1640.44 1128.06 1640.44 1135.45 Z" fill="#000000" fill-rule="nonzero" fill-opacity="1" /><path clip-path="url(#clip410)" d="M1682.62 1137.67 L1682.62 1140.54 L1655.69 1140.54 Q1656.07 1146.59 1659.32 1149.77 Q1662.6 1152.92 1668.42 1152.92 Q1671.79 1152.92 1674.95 1152.09 Q1678.13 1151.26 1681.25 1149.61 L1681.25 1155.15 Q1678.1 1156.48 1674.79 1157.18 Q1671.48 1157.88 1668.07 1157.88 Q1659.54 1157.88 1654.54 1152.92 Q1649.58 1147.95 1649.58 1139.49 Q1649.58 1130.74 1654.29 1125.61 Q1659.03 1120.45 1667.05 1120.45 Q1674.25 1120.45 1678.42 1125.1 Q1682.62 1129.72 1682.62 1137.67 M1676.76 1135.95 Q1676.7 1131.15 1674.05 1128.28 Q1671.44 1125.42 1667.12 1125.42 Q1662.21 1125.42 1659.25 1128.19 Q1656.33 1130.96 1655.88 1135.99 L1676.76 1135.95 Z" fill="#000000" fill-rule="nonzero" fill-opacity="1" /><path clip-path="url(#clip410)" d="M1708.43 1139.04 Q1701.33 1139.04 1698.59 1140.67 Q1695.86 1142.29 1695.86 1146.2 Q1695.86 1149.32 1697.89 1151.17 Q1699.96 1152.98 1703.5 1152.98 Q1708.37 1152.98 1711.29 1149.55 Q1714.25 1146.08 1714.25 1140.35 L1714.25 1139.04 L1708.43 1139.04 M1720.11 1136.62 L1720.11 1156.96 L1714.25 1156.96 L1714.25 1151.55 Q1712.25 1154.8 1709.26 1156.36 Q1706.27 1157.88 1701.94 1157.88 Q1696.46 1157.88 1693.22 1154.83 Q1690 1151.74 1690 1146.59 Q1690 1140.57 1694.01 1137.51 Q1698.05 1134.46 1706.04 1134.46 L1714.25 1134.46 L1714.25 1133.89 Q1714.25 1129.84 1711.58 1127.65 Q1708.94 1125.42 1704.13 1125.42 Q1701.08 1125.42 1698.18 1126.15 Q1695.28 1126.88 1692.61 1128.35 L1692.61 1122.94 Q1695.83 1121.7 1698.85 1121.09 Q1701.87 1120.45 1704.74 1120.45 Q1712.47 1120.45 1716.29 1124.46 Q1720.11 1128.48 1720.11 1136.62 Z" fill="#000000" fill-rule="nonzero" fill-opacity="1" /><path clip-path="url(#clip410)" d="M1755.63 1138.72 Q1755.63 1132.36 1752.99 1128.86 Q1750.38 1125.36 1745.64 1125.36 Q1740.93 1125.36 1738.28 1128.86 Q1735.67 1132.36 1735.67 1138.72 Q1735.67 1145.06 1738.28 1148.56 Q1740.93 1152.06 1745.64 1152.06 Q1750.38 1152.06 1752.99 1148.56 Q1755.63 1145.06 1755.63 1138.72 M1761.49 1152.54 Q1761.49 1161.64 1757.45 1166.06 Q1753.4 1170.52 1745.06 1170.52 Q1741.98 1170.52 1739.24 1170.04 Q1736.5 1169.6 1733.92 1168.64 L1733.92 1162.95 Q1736.5 1164.35 1739.02 1165.01 Q1741.53 1165.68 1744.14 1165.68 Q1749.9 1165.68 1752.77 1162.66 Q1755.63 1159.67 1755.63 1153.59 L1755.63 1150.69 Q1753.82 1153.84 1750.98 1155.4 Q1748.15 1156.96 1744.2 1156.96 Q1737.65 1156.96 1733.64 1151.96 Q1729.63 1146.97 1729.63 1138.72 Q1729.63 1130.45 1733.64 1125.45 Q1737.65 1120.45 1744.2 1120.45 Q1748.15 1120.45 1750.98 1122.01 Q1753.82 1123.57 1755.63 1126.72 L1755.63 1121.31 L1761.49 1121.31 L1761.49 1152.54 Z" fill="#000000" fill-rule="nonzero" fill-opacity="1" /><path clip-path="url(#clip410)" d="M1804.04 1137.67 L1804.04 1140.54 L1777.12 1140.54 Q1777.5 1146.59 1780.74 1149.77 Q1784.02 1152.92 1789.85 1152.92 Q1793.22 1152.92 1796.37 1152.09 Q1799.55 1151.26 1802.67 1149.61 L1802.67 1155.15 Q1799.52 1156.48 1796.21 1157.18 Q1792.9 1157.88 1789.5 1157.88 Q1780.97 1157.88 1775.97 1152.92 Q1771 1147.95 1771 1139.49 Q1771 1130.74 1775.71 1125.61 Q1780.46 1120.45 1788.48 1120.45 Q1795.67 1120.45 1799.84 1125.1 Q1804.04 1129.72 1804.04 1137.67 M1798.19 1135.95 Q1798.12 1131.15 1795.48 1128.28 Q1792.87 1125.42 1788.54 1125.42 Q1783.64 1125.42 1780.68 1128.19 Q1777.75 1130.96 1777.31 1135.99 L1798.19 1135.95 Z" fill="#000000" fill-rule="nonzero" fill-opacity="1" /><polyline clip-path="url(#clip412)" style="stroke:#000000; stroke-linecap:round; stroke-linejoin:round; stroke-width:2; stroke-opacity:0.1; fill:none" points="270.918,1000.1 3089.76,1000.1 "/>
<polyline clip-path="url(#clip412)" style="stroke:#000000; stroke-linecap:round; stroke-linejoin:round; stroke-width:2; stroke-opacity:0.1; fill:none" points="270.918,659.7 3089.76,659.7 "/>
<polyline clip-path="url(#clip412)" style="stroke:#000000; stroke-linecap:round; stroke-linejoin:round; stroke-width:2; stroke-opacity:0.1; fill:none" points="270.918,319.303 3089.76,319.303 "/>
<polyline clip-path="url(#clip410)" style="stroke:#000000; stroke-linecap:round; stroke-linejoin:round; stroke-width:4; stroke-opacity:1; fill:none" points="270.918,1000.1 270.918,110.236 "/>
<polyline clip-path="url(#clip410)" style="stroke:#000000; stroke-linecap:round; stroke-linejoin:round; stroke-width:4; stroke-opacity:1; fill:none" points="270.918,1000.1 289.815,1000.1 "/>
<polyline clip-path="url(#clip410)" style="stroke:#000000; stroke-linecap:round; stroke-linejoin:round; stroke-width:4; stroke-opacity:1; fill:none" points="270.918,659.7 289.815,659.7 "/>
<polyline clip-path="url(#clip410)" style="stroke:#000000; stroke-linecap:round; stroke-linejoin:round; stroke-width:4; stroke-opacity:1; fill:none" points="270.918,319.303 289.815,319.303 "/>
<path clip-path="url(#clip410)" d="M154.902 1019.89 L162.54 1019.89 L162.54 993.525 L154.23 995.191 L154.23 990.932 L162.494 989.265 L167.17 989.265 L167.17 1019.89 L174.809 1019.89 L174.809 1023.83 L154.902 1023.83 L154.902 1019.89 Z" fill="#000000" fill-rule="nonzero" fill-opacity="1" /><path clip-path="url(#clip410)" d="M194.253 992.344 Q190.642 992.344 188.813 995.909 Q187.008 999.45 187.008 1006.58 Q187.008 1013.69 188.813 1017.25 Q190.642 1020.79 194.253 1020.79 Q197.887 1020.79 199.693 1017.25 Q201.522 1013.69 201.522 1006.58 Q201.522 999.45 199.693 995.909 Q197.887 992.344 194.253 992.344 M194.253 988.64 Q200.063 988.64 203.119 993.247 Q206.198 997.83 206.198 1006.58 Q206.198 1015.31 203.119 1019.91 Q200.063 1024.5 194.253 1024.5 Q188.443 1024.5 185.364 1019.91 Q182.309 1015.31 182.309 1006.58 Q182.309 997.83 185.364 993.247 Q188.443 988.64 194.253 988.64 Z" fill="#000000" fill-rule="nonzero" fill-opacity="1" /><path clip-path="url(#clip410)" d="M206.743 993.218 L212.95 993.218 L212.95 971.796 L206.198 973.15 L206.198 969.689 L212.912 968.335 L216.711 968.335 L216.711 993.218 L222.918 993.218 L222.918 996.415 L206.743 996.415 L206.743 993.218 Z" fill="#000000" fill-rule="nonzero" fill-opacity="1" /><path clip-path="url(#clip410)" d="M153.792 679.493 L161.431 679.493 L161.431 653.127 L153.121 654.794 L153.121 650.535 L161.384 648.868 L166.06 648.868 L166.06 679.493 L173.699 679.493 L173.699 683.428 L153.792 683.428 L153.792 679.493 Z" fill="#000000" fill-rule="nonzero" fill-opacity="1" /><path clip-path="url(#clip410)" d="M193.143 651.947 Q189.532 651.947 187.704 655.512 Q185.898 659.053 185.898 666.183 Q185.898 673.289 187.704 676.854 Q189.532 680.396 193.143 680.396 Q196.778 680.396 198.583 676.854 Q200.412 673.289 200.412 666.183 Q200.412 659.053 198.583 655.512 Q196.778 651.947 193.143 651.947 M193.143 648.243 Q198.954 648.243 202.009 652.85 Q205.088 657.433 205.088 666.183 Q205.088 674.91 202.009 679.516 Q198.954 684.099 193.143 684.099 Q187.333 684.099 184.255 679.516 Q181.199 674.91 181.199 666.183 Q181.199 657.433 184.255 652.85 Q187.333 648.243 193.143 648.243 Z" fill="#000000" fill-rule="nonzero" fill-opacity="1" /><path clip-path="url(#clip410)" d="M209.658 652.82 L222.918 652.82 L222.918 656.018 L205.088 656.018 L205.088 652.82 Q207.251 650.582 210.975 646.821 Q214.717 643.04 215.677 641.949 Q217.501 639.899 218.216 638.489 Q218.949 637.059 218.949 635.686 Q218.949 633.448 217.369 632.038 Q215.808 630.627 213.288 630.627 Q211.501 630.627 209.508 631.248 Q207.533 631.868 205.276 633.129 L205.276 629.292 Q207.57 628.37 209.564 627.9 Q211.558 627.43 213.213 627.43 Q217.576 627.43 220.172 629.612 Q222.767 631.793 222.767 635.442 Q222.767 637.172 222.109 638.733 Q221.469 640.276 219.758 642.382 Q219.288 642.927 216.767 645.542 Q214.247 648.137 209.658 652.82 Z" fill="#000000" fill-rule="nonzero" fill-opacity="1" /><path clip-path="url(#clip410)" d="M153.134 339.096 L160.772 339.096 L160.772 312.73 L152.462 314.397 L152.462 310.137 L160.726 308.471 L165.402 308.471 L165.402 339.096 L173.041 339.096 L173.041 343.031 L153.134 343.031 L153.134 339.096 Z" fill="#000000" fill-rule="nonzero" fill-opacity="1" /><path clip-path="url(#clip410)" d="M192.485 311.55 Q188.874 311.55 187.045 315.114 Q185.24 318.656 185.24 325.786 Q185.24 332.892 187.045 336.457 Q188.874 339.998 192.485 339.998 Q196.119 339.998 197.925 336.457 Q199.754 332.892 199.754 325.786 Q199.754 318.656 197.925 315.114 Q196.119 311.55 192.485 311.55 M192.485 307.846 Q198.295 307.846 201.351 312.452 Q204.43 317.036 204.43 325.786 Q204.43 334.512 201.351 339.119 Q198.295 343.702 192.485 343.702 Q186.675 343.702 183.596 339.119 Q180.541 334.512 180.541 325.786 Q180.541 317.036 183.596 312.452 Q186.675 307.846 192.485 307.846 Z" fill="#000000" fill-rule="nonzero" fill-opacity="1" /><path clip-path="url(#clip410)" d="M217.125 300.48 Q219.852 301.063 221.375 302.906 Q222.918 304.75 222.918 307.458 Q222.918 311.614 220.059 313.89 Q217.2 316.166 211.934 316.166 Q210.166 316.166 208.285 315.809 Q206.423 315.47 204.43 314.774 L204.43 311.107 Q206.009 312.028 207.89 312.498 Q209.771 312.969 211.821 312.969 Q215.395 312.969 217.256 311.558 Q219.137 310.147 219.137 307.458 Q219.137 304.975 217.388 303.583 Q215.658 302.173 212.555 302.173 L209.282 302.173 L209.282 299.051 L212.705 299.051 Q215.507 299.051 216.993 297.941 Q218.479 296.813 218.479 294.706 Q218.479 292.543 216.937 291.396 Q215.413 290.23 212.555 290.23 Q210.994 290.23 209.207 290.568 Q207.42 290.907 205.276 291.622 L205.276 288.236 Q207.439 287.634 209.32 287.334 Q211.219 287.033 212.893 287.033 Q217.219 287.033 219.739 289.007 Q222.259 290.963 222.259 294.311 Q222.259 296.643 220.924 298.261 Q219.589 299.86 217.125 300.48 Z" fill="#000000" fill-rule="nonzero" fill-opacity="1" /><path clip-path="url(#clip410)" d="M42.6863 825.789 L42.6863 795.743 L48.0971 795.743 L48.0971 819.36 L62.1653 819.36 L62.1653 796.73 L67.5762 796.73 L67.5762 819.36 L84.7954 819.36 L84.7954 795.17 L90.2063 795.17 L90.2063 825.789 L42.6863 825.789 Z" fill="#000000" fill-rule="nonzero" fill-opacity="1" /><path clip-path="url(#clip410)" d="M44.2459 756.116 L50.5161 756.116 Q48.7655 759.777 47.9062 763.023 Q47.0468 766.27 47.0468 769.293 Q47.0468 774.545 49.0838 777.41 Q51.1208 780.242 54.8766 780.242 Q58.0276 780.242 59.6509 778.365 Q61.2423 776.455 62.229 771.171 L63.0247 767.288 Q64.3933 760.095 67.8627 756.689 Q71.3001 753.252 77.0929 753.252 Q83.9997 753.252 87.5645 757.899 Q91.1293 762.514 91.1293 771.458 Q91.1293 774.832 90.3654 778.651 Q89.6015 782.439 88.1056 786.513 L81.4853 786.513 Q83.6814 782.598 84.7954 778.842 Q85.9094 775.086 85.9094 771.458 Q85.9094 765.951 83.7451 762.96 Q81.5808 759.968 77.5704 759.968 Q74.0692 759.968 72.0958 762.132 Q70.1225 764.265 69.1358 769.166 L68.3719 773.081 Q66.9396 780.274 63.8841 783.489 Q60.8285 786.704 55.3859 786.704 Q49.0838 786.704 45.4554 782.279 Q41.8269 777.823 41.8269 770.025 Q41.8269 766.683 42.4317 763.214 Q43.0364 759.745 44.2459 756.116 Z" fill="#000000" fill-rule="nonzero" fill-opacity="1" /><path clip-path="url(#clip410)" d="M44.2459 714.739 L50.5161 714.739 Q48.7655 718.4 47.9062 721.646 Q47.0468 724.893 47.0468 727.916 Q47.0468 733.168 49.0838 736.033 Q51.1208 738.865 54.8766 738.865 Q58.0276 738.865 59.6509 736.987 Q61.2423 735.078 62.229 729.794 L63.0247 725.911 Q64.3933 718.718 67.8627 715.312 Q71.3001 711.875 77.0929 711.875 Q83.9997 711.875 87.5645 716.522 Q91.1293 721.137 91.1293 730.081 Q91.1293 733.454 90.3654 737.274 Q89.6015 741.062 88.1056 745.136 L81.4853 745.136 Q83.6814 741.221 84.7954 737.465 Q85.9094 733.709 85.9094 730.081 Q85.9094 724.574 83.7451 721.582 Q81.5808 718.591 77.5704 718.591 Q74.0692 718.591 72.0958 720.755 Q70.1225 722.887 69.1358 727.789 L68.3719 731.704 Q66.9396 738.897 63.8841 742.112 Q60.8285 745.327 55.3859 745.327 Q49.0838 745.327 45.4554 740.902 Q41.8269 736.446 41.8269 728.648 Q41.8269 725.306 42.4317 721.837 Q43.0364 718.368 44.2459 714.739 Z" fill="#000000" fill-rule="nonzero" fill-opacity="1" /><path clip-path="url(#clip410)" d="M82.1218 700.607 L82.1218 693.892 L90.2063 693.892 L90.2063 700.607 L82.1218 700.607 M56.4999 700.607 L56.4999 693.892 L64.5843 693.892 L64.5843 700.607 L56.4999 700.607 Z" fill="#000000" fill-rule="nonzero" fill-opacity="1" /><path clip-path="url(#clip410)" d="M42.6863 659.899 L42.6863 653.438 L71.5548 653.438 Q79.1936 653.438 82.5674 650.668 Q85.9094 647.899 85.9094 641.693 Q85.9094 635.518 82.5674 632.749 Q79.1936 629.98 71.5548 629.98 L42.6863 629.98 L42.6863 623.519 L72.3505 623.519 Q81.6444 623.519 86.3869 628.134 Q91.1293 632.717 91.1293 641.693 Q91.1293 650.7 86.3869 655.315 Q81.6444 659.899 72.3505 659.899 L42.6863 659.899 Z" fill="#000000" fill-rule="nonzero" fill-opacity="1" /><path clip-path="url(#clip410)" d="M44.2459 582.969 L50.5161 582.969 Q48.7655 586.629 47.9062 589.876 Q47.0468 593.122 47.0468 596.146 Q47.0468 601.398 49.0838 604.262 Q51.1208 607.095 54.8766 607.095 Q58.0276 607.095 59.6509 605.217 Q61.2423 603.308 62.229 598.024 L63.0247 594.141 Q64.3933 586.948 67.8627 583.542 Q71.3001 580.105 77.0929 580.105 Q83.9997 580.105 87.5645 584.752 Q91.1293 589.367 91.1293 598.311 Q91.1293 601.684 90.3654 605.504 Q89.6015 609.291 88.1056 613.365 L81.4853 613.365 Q83.6814 609.451 84.7954 605.695 Q85.9094 601.939 85.9094 598.311 Q85.9094 592.804 83.7451 589.812 Q81.5808 586.82 77.5704 586.82 Q74.0692 586.82 72.0958 588.985 Q70.1225 591.117 69.1358 596.019 L68.3719 599.934 Q66.9396 607.127 63.8841 610.342 Q60.8285 613.556 55.3859 613.556 Q49.0838 613.556 45.4554 609.132 Q41.8269 604.676 41.8269 596.878 Q41.8269 593.536 42.4317 590.067 Q43.0364 586.598 44.2459 582.969 Z" fill="#000000" fill-rule="nonzero" fill-opacity="1" /><path clip-path="url(#clip410)" d="M49.0202 552.987 L72.6688 561.708 L72.6688 544.234 L49.0202 552.987 M42.6863 556.615 L42.6863 549.326 L90.2063 531.216 L90.2063 537.9 L78.016 542.229 L78.016 563.649 L90.2063 567.978 L90.2063 574.757 L42.6863 556.615 Z" fill="#000000" fill-rule="nonzero" fill-opacity="1" /><path clip-path="url(#clip410)" d="M82.1218 523.036 L82.1218 516.32 L87.5963 516.32 L97.7815 521.54 L97.7815 525.646 L87.5963 523.036 L82.1218 523.036 Z" fill="#000000" fill-rule="nonzero" fill-opacity="1" /><path clip-path="url(#clip410)" d="M44.4369 477.298 L54.5583 477.298 L54.5583 465.235 L59.1098 465.235 L59.1098 477.298 L78.4616 477.298 Q82.8221 477.298 84.0634 476.121 Q85.3047 474.911 85.3047 471.251 L85.3047 465.235 L90.2063 465.235 L90.2063 471.251 Q90.2063 478.031 87.6918 480.609 Q85.1455 483.187 78.4616 483.187 L59.1098 483.187 L59.1098 487.484 L54.5583 487.484 L54.5583 483.187 L44.4369 483.187 L44.4369 477.298 Z" fill="#000000" fill-rule="nonzero" fill-opacity="1" /><path clip-path="url(#clip410)" d="M54.5583 457.533 L54.5583 451.676 L90.2063 451.676 L90.2063 457.533 L54.5583 457.533 M40.6811 457.533 L40.6811 451.676 L48.0971 451.676 L48.0971 457.533 L40.6811 457.533 Z" fill="#000000" fill-rule="nonzero" fill-opacity="1" /><path clip-path="url(#clip410)" d="M61.4015 411.668 Q57.4547 409.472 55.5768 406.416 Q53.699 403.361 53.699 399.223 Q53.699 393.653 57.6139 390.629 Q61.4969 387.606 68.6902 387.606 L90.2063 387.606 L90.2063 393.494 L68.8812 393.494 Q63.7568 393.494 61.2741 395.308 Q58.7915 397.122 58.7915 400.846 Q58.7915 405.398 61.8152 408.04 Q64.8389 410.681 70.0588 410.681 L90.2063 410.681 L90.2063 416.57 L68.8812 416.57 Q63.7249 416.57 61.2741 418.384 Q58.7915 420.198 58.7915 423.986 Q58.7915 428.473 61.8471 431.115 Q64.8708 433.757 70.0588 433.757 L90.2063 433.757 L90.2063 439.645 L54.5583 439.645 L54.5583 433.757 L60.0965 433.757 Q56.8182 431.752 55.2586 428.951 Q53.699 426.15 53.699 422.299 Q53.699 418.416 55.6723 415.71 Q57.6457 412.973 61.4015 411.668 Z" fill="#000000" fill-rule="nonzero" fill-opacity="1" /><path clip-path="url(#clip410)" d="M70.9182 345.433 L73.7828 345.433 L73.7828 372.36 Q79.8302 371.978 83.013 368.731 Q86.1641 365.453 86.1641 359.628 Q86.1641 356.255 85.3365 353.104 Q84.509 349.921 82.8539 346.801 L88.3921 346.801 Q89.7289 349.953 90.4291 353.263 Q91.1293 356.573 91.1293 359.978 Q91.1293 368.509 86.1641 373.506 Q81.1988 378.471 72.7324 378.471 Q63.9796 378.471 58.8552 373.76 Q53.699 369.018 53.699 360.997 Q53.699 353.804 58.3459 349.634 Q62.9611 345.433 70.9182 345.433 M69.1995 351.289 Q64.3933 351.353 61.5288 353.995 Q58.6642 356.605 58.6642 360.933 Q58.6642 365.835 61.4333 368.795 Q64.2024 371.723 69.2313 372.169 L69.1995 351.289 Z" fill="#000000" fill-rule="nonzero" fill-opacity="1" /><path clip-path="url(#clip410)" d="M82.1218 334.325 L82.1218 327.609 L90.2063 327.609 L90.2063 334.325 L82.1218 334.325 M56.4999 334.325 L56.4999 327.609 L64.5843 327.609 L64.5843 334.325 L56.4999 334.325 Z" fill="#000000" fill-rule="nonzero" fill-opacity="1" /><path clip-path="url(#clip410)" d="M84.7954 311.917 L84.7954 301.414 L48.5427 301.414 L50.8344 312.84 L44.9779 312.84 L42.6863 301.478 L42.6863 295.048 L84.7954 295.048 L84.7954 284.545 L90.2063 284.545 L90.2063 311.917 L84.7954 311.917 Z" fill="#000000" fill-rule="nonzero" fill-opacity="1" /><polyline clip-path="url(#clip412)" style="stroke:#009af9; stroke-linecap:round; stroke-linejoin:round; stroke-width:4; stroke-opacity:1; fill:none" points="350.696,224.324 381.618,179.893 412.54,193.799 443.462,200.161 474.384,184.107 505.306,188.215 536.228,175.07 567.15,203.018 598.072,185.319 628.994,171.484 659.916,160.741 690.838,173.892 721.76,159.756 752.682,178.184 783.604,178.954 814.526,183.433 845.448,179.251 876.37,148.538 907.292,159.612 938.214,164.962 969.136,166.768 1000.06,149.293 1030.98,187.644 1061.9,171.48 1092.82,181.582 1123.75,167.036 1154.67,174.821 1185.59,169.473 1216.51,156.943 1247.43,162.442 1278.36,181.244 1309.28,181.446 1340.2,179.53 1371.12,169.98 1402.04,176.344 1432.97,189.493 1463.89,196.509 1494.81,202.237 1525.73,172.934 1556.65,163.983 1587.57,175.374 1618.5,171.986 1649.42,158.745 1680.34,185.202 1711.26,177.388 1742.18,194.642 1773.11,159.211 1804.03,164.513 1834.95,157.406 1865.87,178.048 1896.79,176.581 1927.72,213.797 1958.64,153.199 1989.56,174.109 2020.48,173.814 2051.4,189.35 2082.33,158.15 2113.25,173.718 2144.17,146.712 2175.09,110.236 2206.01,132.054 2236.94,170.606 2267.86,187.149 2298.78,177.905 2329.7,145.046 2360.62,125.591 2391.55,192.488 2422.47,145.362 2453.39,186.376 2484.31,151.434 2515.23,185.694 2546.16,145.611 2577.08,166.998 2608,150.846 2638.92,186.28 2669.84,159.323 2700.77,127.679 2731.69,179.957 2762.61,134.57 2793.53,130.046 2824.45,180.066 2855.38,195.73 2886.3,158.861 2917.22,127.628 2948.14,171.526 2979.06,140.062 3009.99,207.038 "/>
</svg>
