<?xml version="1.0" encoding="utf-8"?>
<svg xmlns="http://www.w3.org/2000/svg" xmlns:xlink="http://www.w3.org/1999/xlink" width="800" height="300" viewBox="0 0 3200 1200">
<defs>
  <clipPath id="clip400">
    <rect x="0" y="0" width="3200" height="1200"/>
  </clipPath>
</defs>
<path clip-path="url(#clip400)" d="M0 1200 L3200 1200 L3200 0 L0 0  Z" fill="#ffffff" fill-rule="evenodd" fill-opacity="1"/>
<defs>
  <clipPath id="clip401">
    <rect x="640" y="0" width="2241" height="1200"/>
  </clipPath>
</defs>
<path clip-path="url(#clip400)" d="M270.918 1000.1 L3089.76 1000.1 L3089.76 110.236 L270.918 110.236  Z" fill="#ffffff" fill-rule="evenodd" fill-opacity="1"/>
<defs>
  <clipPath id="clip402">
    <rect x="270" y="110" width="2820" height="891"/>
  </clipPath>
</defs>
<polyline clip-path="url(#clip402)" style="stroke:#000000; stroke-linecap:round; stroke-linejoin:round; stroke-width:2; stroke-opacity:0.1; fill:none" points="331.836,1000.1 331.836,110.236 "/>
<polyline clip-path="url(#clip402)" style="stroke:#000000; stroke-linecap:round; stroke-linejoin:round; stroke-width:2; stroke-opacity:0.1; fill:none" points="803.341,1000.1 803.341,110.236 "/>
<polyline clip-path="url(#clip402)" style="stroke:#000000; stroke-linecap:round; stroke-linejoin:round; stroke-width:2; stroke-opacity:0.1; fill:none" points="1274.85,1000.1 1274.85,110.236 "/>
<polyline clip-path="url(#clip402)" style="stroke:#000000; stroke-linecap:round; stroke-linejoin:round; stroke-width:2; stroke-opacity:0.1; fill:none" points="1746.35,1000.1 1746.35,110.236 "/>
<polyline clip-path="url(#clip402)" style="stroke:#000000; stroke-linecap:round; stroke-linejoin:round; stroke-width:2; stroke-opacity:0.1; fill:none" points="2217.86,1000.1 2217.86,110.236 "/>
<polyline clip-path="url(#clip402)" style="stroke:#000000; stroke-linecap:round; stroke-linejoin:round; stroke-width:2; stroke-opacity:0.1; fill:none" points="2689.36,1000.1 2689.36,110.236 "/>
<polyline clip-path="url(#clip400)" style="stroke:#000000; stroke-linecap:round; stroke-linejoin:round; stroke-width:4; stroke-opacity:1; fill:none" points="270.918,1000.1 3089.76,1000.1 "/>
<polyline clip-path="url(#clip400)" style="stroke:#000000; stroke-linecap:round; stroke-linejoin:round; stroke-width:4; stroke-opacity:1; fill:none" points="331.836,1000.1 331.836,981.2 "/>
<polyline clip-path="url(#clip400)" style="stroke:#000000; stroke-linecap:round; stroke-linejoin:round; stroke-width:4; stroke-opacity:1; fill:none" points="803.341,1000.1 803.341,981.2 "/>
<polyline clip-path="url(#clip400)" style="stroke:#000000; stroke-linecap:round; stroke-linejoin:round; stroke-width:4; stroke-opacity:1; fill:none" points="1274.85,1000.1 1274.85,981.2 "/>
<polyline clip-path="url(#clip400)" style="stroke:#000000; stroke-linecap:round; stroke-linejoin:round; stroke-width:4; stroke-opacity:1; fill:none" points="1746.35,1000.1 1746.35,981.2 "/>
<polyline clip-path="url(#clip400)" style="stroke:#000000; stroke-linecap:round; stroke-linejoin:round; stroke-width:4; stroke-opacity:1; fill:none" points="2217.86,1000.1 2217.86,981.2 "/>
<polyline clip-path="url(#clip400)" style="stroke:#000000; stroke-linecap:round; stroke-linejoin:round; stroke-width:4; stroke-opacity:1; fill:none" points="2689.36,1000.1 2689.36,981.2 "/>
<path clip-path="url(#clip400)" d="M331.836 1037.42 Q328.225 1037.42 326.396 1040.98 Q324.591 1044.52 324.591 1051.65 Q324.591 1058.76 326.396 1062.32 Q328.225 1065.87 331.836 1065.87 Q335.47 1065.87 337.276 1062.32 Q339.105 1058.76 339.105 1051.65 Q339.105 1044.52 337.276 1040.98 Q335.47 1037.42 331.836 1037.42 M331.836 1033.71 Q337.646 1033.71 340.702 1038.32 Q343.78 1042.9 343.78 1051.65 Q343.78 1060.38 340.702 1064.99 Q337.646 1069.57 331.836 1069.57 Q326.026 1069.57 322.947 1064.99 Q319.892 1060.38 319.892 1051.65 Q319.892 1042.9 322.947 1038.32 Q326.026 1033.71 331.836 1033.71 Z" fill="#000000" fill-rule="nonzero" fill-opacity="1" /><path clip-path="url(#clip400)" d="M782.612 1064.96 L798.932 1064.96 L798.932 1068.9 L776.987 1068.9 L776.987 1064.96 Q779.649 1062.21 784.233 1057.58 Q788.839 1052.93 790.02 1051.58 Q792.265 1049.06 793.144 1047.32 Q794.047 1045.56 794.047 1043.87 Q794.047 1041.12 792.103 1039.38 Q790.182 1037.65 787.08 1037.65 Q784.881 1037.65 782.427 1038.41 Q779.996 1039.18 777.219 1040.73 L777.219 1036 Q780.043 1034.87 782.496 1034.29 Q784.95 1033.71 786.987 1033.71 Q792.357 1033.71 795.552 1036.4 Q798.746 1039.08 798.746 1043.57 Q798.746 1045.7 797.936 1047.62 Q797.149 1049.52 795.043 1052.12 Q794.464 1052.79 791.362 1056 Q788.26 1059.2 782.612 1064.96 Z" fill="#000000" fill-rule="nonzero" fill-opacity="1" /><path clip-path="url(#clip400)" d="M808.793 1034.34 L827.149 1034.34 L827.149 1038.27 L813.075 1038.27 L813.075 1046.75 Q814.093 1046.4 815.112 1046.24 Q816.13 1046.05 817.149 1046.05 Q822.936 1046.05 826.316 1049.22 Q829.695 1052.39 829.695 1057.81 Q829.695 1063.39 826.223 1066.49 Q822.751 1069.57 816.431 1069.57 Q814.255 1069.57 811.987 1069.2 Q809.742 1068.83 807.334 1068.09 L807.334 1063.39 Q809.418 1064.52 811.64 1065.08 Q813.862 1065.63 816.339 1065.63 Q820.343 1065.63 822.681 1063.53 Q825.019 1061.42 825.019 1057.81 Q825.019 1054.2 822.681 1052.09 Q820.343 1049.99 816.339 1049.99 Q814.464 1049.99 812.589 1050.4 Q810.737 1050.82 808.793 1051.7 L808.793 1034.34 Z" fill="#000000" fill-rule="nonzero" fill-opacity="1" /><path clip-path="url(#clip400)" d="M1249.55 1034.34 L1267.9 1034.34 L1267.9 1038.27 L1253.83 1038.27 L1253.83 1046.75 Q1254.85 1046.4 1255.86 1046.24 Q1256.88 1046.05 1257.9 1046.05 Q1263.69 1046.05 1267.07 1049.22 Q1270.45 1052.39 1270.45 1057.81 Q1270.45 1063.39 1266.98 1066.49 Q1263.5 1069.57 1257.18 1069.57 Q1255.01 1069.57 1252.74 1069.2 Q1250.49 1068.83 1248.09 1068.09 L1248.09 1063.39 Q1250.17 1064.52 1252.39 1065.08 Q1254.61 1065.63 1257.09 1065.63 Q1261.1 1065.63 1263.43 1063.53 Q1265.77 1061.42 1265.77 1057.81 Q1265.77 1054.2 1263.43 1052.09 Q1261.1 1049.99 1257.09 1049.99 Q1255.22 1049.99 1253.34 1050.4 Q1251.49 1050.82 1249.55 1051.7 L1249.55 1034.34 Z" fill="#000000" fill-rule="nonzero" fill-opacity="1" /><path clip-path="url(#clip400)" d="M1289.66 1037.42 Q1286.05 1037.42 1284.22 1040.98 Q1282.42 1044.52 1282.42 1051.65 Q1282.42 1058.76 1284.22 1062.32 Q1286.05 1065.87 1289.66 1065.87 Q1293.3 1065.87 1295.1 1062.32 Q1296.93 1058.76 1296.93 1051.65 Q1296.93 1044.52 1295.1 1040.98 Q1293.3 1037.42 1289.66 1037.42 M1289.66 1033.71 Q1295.47 1033.71 1298.53 1038.32 Q1301.61 1042.9 1301.61 1051.65 Q1301.61 1060.38 1298.53 1064.99 Q1295.47 1069.57 1289.66 1069.57 Q1283.85 1069.57 1280.77 1064.99 Q1277.72 1060.38 1277.72 1051.65 Q1277.72 1042.9 1280.77 1038.32 Q1283.85 1033.71 1289.66 1033.71 Z" fill="#000000" fill-rule="nonzero" fill-opacity="1" /><path clip-path="url(#clip400)" d="M1720.21 1034.34 L1742.43 1034.34 L1742.43 1036.33 L1729.88 1068.9 L1725 1068.9 L1736.8 1038.27 L1720.21 1038.27 L1720.21 1034.34 Z" fill="#000000" fill-rule="nonzero" fill-opacity="1" /><path clip-path="url(#clip400)" d="M1751.59 1034.34 L1769.95 1034.34 L1769.95 1038.27 L1755.88 1038.27 L1755.88 1046.75 Q1756.9 1046.4 1757.91 1046.24 Q1758.93 1046.05 1759.95 1046.05 Q1765.74 1046.05 1769.12 1049.22 Q1772.5 1052.39 1772.5 1057.81 Q1772.5 1063.39 1769.02 1066.49 Q1765.55 1069.57 1759.23 1069.57 Q1757.06 1069.57 1754.79 1069.2 Q1752.54 1068.83 1750.14 1068.09 L1750.14 1063.39 Q1752.22 1064.52 1754.44 1065.08 Q1756.66 1065.63 1759.14 1065.63 Q1763.15 1065.63 1765.48 1063.53 Q1767.82 1061.42 1767.82 1057.81 Q1767.82 1054.2 1765.48 1052.09 Q1763.15 1049.99 1759.14 1049.99 Q1757.27 1049.99 1755.39 1050.4 Q1753.54 1050.82 1751.59 1051.7 L1751.59 1034.34 Z" fill="#000000" fill-rule="nonzero" fill-opacity="1" /><path clip-path="url(#clip400)" d="M2177.46 1064.96 L2185.1 1064.96 L2185.1 1038.6 L2176.79 1040.26 L2176.79 1036 L2185.06 1034.34 L2189.73 1034.34 L2189.73 1064.96 L2197.37 1064.96 L2197.37 1068.9 L2177.46 1068.9 L2177.46 1064.96 Z" fill="#000000" fill-rule="nonzero" fill-opacity="1" /><path clip-path="url(#clip400)" d="M2216.81 1037.42 Q2213.2 1037.42 2211.38 1040.98 Q2209.57 1044.52 2209.57 1051.65 Q2209.57 1058.76 2211.38 1062.32 Q2213.2 1065.87 2216.81 1065.87 Q2220.45 1065.87 2222.25 1062.32 Q2224.08 1058.76 2224.08 1051.65 Q2224.08 1044.52 2222.25 1040.98 Q2220.45 1037.42 2216.81 1037.42 M2216.81 1033.71 Q2222.63 1033.71 2225.68 1038.32 Q2228.76 1042.9 2228.76 1051.65 Q2228.76 1060.38 2225.68 1064.99 Q2222.63 1069.57 2216.81 1069.57 Q2211 1069.57 2207.93 1064.99 Q2204.87 1060.38 2204.87 1051.65 Q2204.87 1042.9 2207.93 1038.32 Q2211 1033.71 2216.81 1033.71 Z" fill="#000000" fill-rule="nonzero" fill-opacity="1" /><path clip-path="url(#clip400)" d="M2246.98 1037.42 Q2243.37 1037.42 2241.54 1040.98 Q2239.73 1044.52 2239.73 1051.65 Q2239.73 1058.76 2241.54 1062.32 Q2243.37 1065.87 2246.98 1065.87 Q2250.61 1065.87 2252.42 1062.32 Q2254.25 1058.76 2254.25 1051.65 Q2254.25 1044.52 2252.42 1040.98 Q2250.61 1037.42 2246.98 1037.42 M2246.98 1033.71 Q2252.79 1033.71 2255.84 1038.32 Q2258.92 1042.9 2258.92 1051.65 Q2258.92 1060.38 2255.84 1064.99 Q2252.79 1069.57 2246.98 1069.57 Q2241.17 1069.57 2238.09 1064.99 Q2235.03 1060.38 2235.03 1051.65 Q2235.03 1042.9 2238.09 1038.32 Q2241.17 1033.71 2246.98 1033.71 Z" fill="#000000" fill-rule="nonzero" fill-opacity="1" /><path clip-path="url(#clip400)" d="M2649.47 1064.96 L2657.1 1064.96 L2657.1 1038.6 L2648.79 1040.26 L2648.79 1036 L2657.06 1034.34 L2661.73 1034.34 L2661.73 1064.96 L2669.37 1064.96 L2669.37 1068.9 L2649.47 1068.9 L2649.47 1064.96 Z" fill="#000000" fill-rule="nonzero" fill-opacity="1" /><path clip-path="url(#clip400)" d="M2682.85 1064.96 L2699.16 1064.96 L2699.16 1068.9 L2677.22 1068.9 L2677.22 1064.96 Q2679.88 1062.21 2684.47 1057.58 Q2689.07 1052.93 2690.25 1051.58 Q2692.5 1049.06 2693.38 1047.32 Q2694.28 1045.56 2694.28 1043.87 Q2694.28 1041.12 2692.34 1039.38 Q2690.41 1037.65 2687.31 1037.65 Q2685.11 1037.65 2682.66 1038.41 Q2680.23 1039.18 2677.45 1040.73 L2677.45 1036 Q2680.28 1034.87 2682.73 1034.29 Q2685.18 1033.71 2687.22 1033.71 Q2692.59 1033.71 2695.79 1036.4 Q2698.98 1039.08 2698.98 1043.57 Q2698.98 1045.7 2698.17 1047.62 Q2697.38 1049.52 2695.28 1052.12 Q2694.7 1052.79 2691.6 1056 Q2688.49 1059.2 2682.85 1064.96 Z" fill="#000000" fill-rule="nonzero" fill-opacity="1" /><path clip-path="url(#clip400)" d="M2709.03 1034.34 L2727.38 1034.34 L2727.38 1038.27 L2713.31 1038.27 L2713.31 1046.75 Q2714.33 1046.4 2715.35 1046.24 Q2716.36 1046.05 2717.38 1046.05 Q2723.17 1046.05 2726.55 1049.22 Q2729.93 1052.39 2729.93 1057.81 Q2729.93 1063.39 2726.46 1066.49 Q2722.98 1069.57 2716.66 1069.57 Q2714.49 1069.57 2712.22 1069.2 Q2709.97 1068.83 2707.57 1068.09 L2707.57 1063.39 Q2709.65 1064.52 2711.87 1065.08 Q2714.1 1065.63 2716.57 1065.63 Q2720.58 1065.63 2722.91 1063.53 Q2725.25 1061.42 2725.25 1057.81 Q2725.25 1054.2 2722.91 1052.09 Q2720.58 1049.99 2716.57 1049.99 Q2714.7 1049.99 2712.82 1050.4 Q2710.97 1050.82 2709.03 1051.7 L2709.03 1034.34 Z" fill="#000000" fill-rule="nonzero" fill-opacity="1" /><path clip-path="url(#clip400)" d="M1556.64 1109.44 L1563.07 1109.44 L1563.07 1151.55 L1586.21 1151.55 L1586.21 1156.96 L1556.64 1156.96 L1556.64 1109.44 Z" fill="#000000" fill-rule="nonzero" fill-opacity="1" /><path clip-path="url(#clip400)" d="M1592.7 1121.31 L1598.56 1121.31 L1598.56 1156.96 L1592.7 1156.96 L1592.7 1121.31 M1592.7 1107.44 L1598.56 1107.44 L1598.56 1114.85 L1592.7 1114.85 L1592.7 1107.44 Z" fill="#000000" fill-rule="nonzero" fill-opacity="1" /><path clip-path="url(#clip400)" d="M1640.44 1135.45 L1640.44 1156.96 L1634.59 1156.96 L1634.59 1135.64 Q1634.59 1130.58 1632.61 1128.06 Q1630.64 1125.55 1626.69 1125.55 Q1621.95 1125.55 1619.21 1128.57 Q1616.48 1131.59 1616.48 1136.81 L1616.48 1156.96 L1610.59 1156.96 L1610.59 1121.31 L1616.48 1121.31 L1616.48 1126.85 Q1618.58 1123.64 1621.41 1122.05 Q1624.27 1120.45 1628 1120.45 Q1634.14 1120.45 1637.29 1124.27 Q1640.44 1128.06 1640.44 1135.45 Z" fill="#000000" fill-rule="nonzero" fill-opacity="1" /><path clip-path="url(#clip400)" d="M1682.62 1137.67 L1682.62 1140.54 L1655.69 1140.54 Q1656.07 1146.59 1659.32 1149.77 Q1662.6 1152.92 1668.42 1152.92 Q1671.79 1152.92 1674.95 1152.09 Q1678.13 1151.26 1681.25 1149.61 L1681.25 1155.15 Q1678.1 1156.48 1674.79 1157.18 Q1671.48 1157.88 1668.07 1157.88 Q1659.54 1157.88 1654.54 1152.92 Q1649.58 1147.95 1649.58 1139.49 Q1649.58 1130.74 1654.29 1125.61 Q1659.03 1120.45 1667.05 1120.45 Q1674.25 1120.45 1678.42 1125.1 Q1682.62 1129.72 1682.62 1137.67 M1676.76 1135.95 Q1676.7 1131.15 1674.05 1128.28 Q1671.44 1125.42 1667.12 1125.42 Q1662.21 1125.42 1659.25 1128.19 Q1656.33 1130.96 1655.88 1135.99 L1676.76 1135.95 Z" fill="#000000" fill-rule="nonzero" fill-opacity="1" /><path clip-path="url(#clip400)" d="M1708.43 1139.04 Q1701.33 1139.04 1698.59 1140.67 Q1695.86 1142.29 1695.86 1146.2 Q1695.86 1149.32 1697.89 1151.17 Q1699.96 1152.98 1703.5 1152.98 Q1708.37 1152.98 1711.29 1149.55 Q1714.25 1146.08 1714.25 1140.35 L1714.25 1139.04 L1708.43 1139.04 M1720.11 1136.62 L1720.11 1156.96 L1714.25 1156.96 L1714.25 1151.55 Q1712.25 1154.8 1709.26 1156.36 Q1706.27 1157.88 1701.94 1157.88 Q1696.46 1157.88 1693.22 1154.83 Q1690 1151.74 1690 1146.59 Q1690 1140.57 1694.01 1137.51 Q1698.05 1134.46 1706.04 1134.46 L1714.25 1134.46 L1714.25 1133.89 Q1714.25 1129.84 1711.58 1127.65 Q1708.94 1125.42 1704.13 1125.42 Q1701.08 1125.42 1698.18 1126.15 Q1695.28 1126.88 1692.61 1128.35 L1692.61 1122.94 Q1695.83 1121.7 1698.85 1121.09 Q1701.87 1120.45 1704.74 1120.45 Q1712.47 1120.45 1716.29 1124.46 Q1720.11 1128.48 1720.11 1136.62 Z" fill="#000000" fill-rule="nonzero" fill-opacity="1" /><path clip-path="url(#clip400)" d="M1755.63 1138.72 Q1755.63 1132.36 1752.99 1128.86 Q1750.38 1125.36 1745.64 1125.36 Q1740.93 1125.36 1738.28 1128.86 Q1735.67 1132.36 1735.67 1138.72 Q1735.67 1145.06 1738.28 1148.56 Q1740.93 1152.06 1745.64 1152.06 Q1750.38 1152.06 1752.99 1148.56 Q1755.63 1145.06 1755.63 1138.72 M1761.49 1152.54 Q1761.49 1161.64 1757.45 1166.06 Q1753.4 1170.52 1745.06 1170.52 Q1741.98 1170.52 1739.24 1170.04 Q1736.5 1169.6 1733.92 1168.64 L1733.92 1162.95 Q1736.5 1164.35 1739.02 1165.01 Q1741.53 1165.68 1744.14 1165.68 Q1749.9 1165.68 1752.77 1162.66 Q1755.63 1159.67 1755.63 1153.59 L1755.63 1150.69 Q1753.82 1153.84 1750.98 1155.4 Q1748.15 1156.96 1744.2 1156.96 Q1737.65 1156.96 1733.64 1151.96 Q1729.63 1146.97 1729.63 1138.72 Q1729.63 1130.45 1733.64 1125.45 Q1737.65 1120.45 1744.2 1120.45 Q1748.15 1120.45 1750.98 1122.01 Q1753.82 1123.57 1755.63 1126.72 L1755.63 1121.31 L1761.49 1121.31 L1761.49 1152.54 Z" fill="#000000" fill-rule="nonzero" fill-opacity="1" /><path clip-path="url(#clip400)" d="M1804.04 1137.67 L1804.04 1140.54 L1777.12 1140.54 Q1777.5 1146.59 1780.74 1149.77 Q1784.02 1152.92 1789.85 1152.92 Q1793.22 1152.92 1796.37 1152.09 Q1799.55 1151.26 1802.67 1149.61 L1802.67 1155.15 Q1799.52 1156.48 1796.21 1157.18 Q1792.9 1157.88 1789.5 1157.88 Q1780.97 1157.88 1775.97 1152.92 Q1771 1147.95 1771 1139.49 Q1771 1130.74 1775.71 1125.61 Q1780.46 1120.45 1788.48 1120.45 Q1795.67 1120.45 1799.84 1125.1 Q1804.04 1129.72 1804.04 1137.67 M1798.19 1135.95 Q1798.12 1131.15 1795.48 1128.28 Q1792.87 1125.42 1788.54 1125.42 Q1783.64 1125.42 1780.68 1128.19 Q1777.75 1130.96 1777.31 1135.99 L1798.19 1135.95 Z" fill="#000000" fill-rule="nonzero" fill-opacity="1" /><polyline clip-path="url(#clip402)" style="stroke:#000000; stroke-linecap:round; stroke-linejoin:round; stroke-width:2; stroke-opacity:0.1; fill:none" points="270.918,1000.1 3089.76,1000.1 "/>
<polyline clip-path="url(#clip402)" style="stroke:#000000; stroke-linecap:round; stroke-linejoin:round; stroke-width:2; stroke-opacity:0.1; fill:none" points="270.918,652.4 3089.76,652.4 "/>
<polyline clip-path="url(#clip402)" style="stroke:#000000; stroke-linecap:round; stroke-linejoin:round; stroke-width:2; stroke-opacity:0.1; fill:none" points="270.918,304.703 3089.76,304.703 "/>
<polyline clip-path="url(#clip400)" style="stroke:#000000; stroke-linecap:round; stroke-linejoin:round; stroke-width:4; stroke-opacity:1; fill:none" points="270.918,1000.1 270.918,110.236 "/>
<polyline clip-path="url(#clip400)" style="stroke:#000000; stroke-linecap:round; stroke-linejoin:round; stroke-width:4; stroke-opacity:1; fill:none" points="270.918,1000.1 289.815,1000.1 "/>
<polyline clip-path="url(#clip400)" style="stroke:#000000; stroke-linecap:round; stroke-linejoin:round; stroke-width:4; stroke-opacity:1; fill:none" points="270.918,652.4 289.815,652.4 "/>
<polyline clip-path="url(#clip400)" style="stroke:#000000; stroke-linecap:round; stroke-linejoin:round; stroke-width:4; stroke-opacity:1; fill:none" points="270.918,304.703 289.815,304.703 "/>
<path clip-path="url(#clip400)" d="M154.902 1019.89 L162.54 1019.89 L162.54 993.525 L154.23 995.191 L154.23 990.932 L162.494 989.265 L167.17 989.265 L167.17 1019.89 L174.809 1019.89 L174.809 1023.83 L154.902 1023.83 L154.902 1019.89 Z" fill="#000000" fill-rule="nonzero" fill-opacity="1" /><path clip-path="url(#clip400)" d="M194.253 992.344 Q190.642 992.344 188.813 995.909 Q187.008 999.45 187.008 1006.58 Q187.008 1013.69 188.813 1017.25 Q190.642 1020.79 194.253 1020.79 Q197.887 1020.79 199.693 1017.25 Q201.522 1013.69 201.522 1006.58 Q201.522 999.45 199.693 995.909 Q197.887 992.344 194.253 992.344 M194.253 988.64 Q200.063 988.64 203.119 993.247 Q206.198 997.83 206.198 1006.58 Q206.198 1015.31 203.119 1019.91 Q200.063 1024.5 194.253 1024.5 Q188.443 1024.5 185.364 1019.91 Q182.309 1015.31 182.309 1006.58 Q182.309 997.83 185.364 993.247 Q188.443 988.64 194.253 988.64 Z" fill="#000000" fill-rule="nonzero" fill-opacity="1" /><path clip-path="url(#clip400)" d="M206.743 993.218 L212.95 993.218 L212.95 971.796 L206.198 973.15 L206.198 969.689 L212.912 968.335 L216.711 968.335 L216.711 993.218 L222.918 993.218 L222.918 996.415 L206.743 996.415 L206.743 993.218 Z" fill="#000000" fill-rule="nonzero" fill-opacity="1" /><path clip-path="url(#clip400)" d="M153.792 672.193 L161.431 672.193 L161.431 645.827 L153.121 647.494 L153.121 643.235 L161.384 641.568 L166.06 641.568 L166.06 672.193 L173.699 672.193 L173.699 676.128 L153.792 676.128 L153.792 672.193 Z" fill="#000000" fill-rule="nonzero" fill-opacity="1" /><path clip-path="url(#clip400)" d="M193.143 644.647 Q189.532 644.647 187.704 648.211 Q185.898 651.753 185.898 658.883 Q185.898 665.989 187.704 669.554 Q189.532 673.096 193.143 673.096 Q196.778 673.096 198.583 669.554 Q200.412 665.989 200.412 658.883 Q200.412 651.753 198.583 648.211 Q196.778 644.647 193.143 644.647 M193.143 640.943 Q198.954 640.943 202.009 645.549 Q205.088 650.133 205.088 658.883 Q205.088 667.609 202.009 672.216 Q198.954 676.799 193.143 676.799 Q187.333 676.799 184.255 672.216 Q181.199 667.609 181.199 658.883 Q181.199 650.133 184.255 645.549 Q187.333 640.943 193.143 640.943 Z" fill="#000000" fill-rule="nonzero" fill-opacity="1" /><path clip-path="url(#clip400)" d="M209.658 645.52 L222.918 645.52 L222.918 648.718 L205.088 648.718 L205.088 645.52 Q207.251 643.282 210.975 639.521 Q214.717 635.74 215.677 634.649 Q217.501 632.599 218.216 631.189 Q218.949 629.759 218.949 628.386 Q218.949 626.148 217.369 624.738 Q215.808 623.327 213.288 623.327 Q211.501 623.327 209.508 623.948 Q207.533 624.568 205.276 625.828 L205.276 621.992 Q207.57 621.07 209.564 620.6 Q211.558 620.13 213.213 620.13 Q217.576 620.13 220.172 622.311 Q222.767 624.493 222.767 628.142 Q222.767 629.872 222.109 631.433 Q221.469 632.975 219.758 635.082 Q219.288 635.627 216.767 638.242 Q214.247 640.837 209.658 645.52 Z" fill="#000000" fill-rule="nonzero" fill-opacity="1" /><path clip-path="url(#clip400)" d="M153.134 324.495 L160.772 324.495 L160.772 298.13 L152.462 299.796 L152.462 295.537 L160.726 293.87 L165.402 293.87 L165.402 324.495 L173.041 324.495 L173.041 328.43 L153.134 328.43 L153.134 324.495 Z" fill="#000000" fill-rule="nonzero" fill-opacity="1" /><path clip-path="url(#clip400)" d="M192.485 296.949 Q188.874 296.949 187.045 300.514 Q185.24 304.056 185.24 311.185 Q185.24 318.292 187.045 321.856 Q188.874 325.398 192.485 325.398 Q196.119 325.398 197.925 321.856 Q199.754 318.292 199.754 311.185 Q199.754 304.056 197.925 300.514 Q196.119 296.949 192.485 296.949 M192.485 293.245 Q198.295 293.245 201.351 297.852 Q204.43 302.435 204.43 311.185 Q204.43 319.912 201.351 324.518 Q198.295 329.102 192.485 329.102 Q186.675 329.102 183.596 324.518 Q180.541 319.912 180.541 311.185 Q180.541 302.435 183.596 297.852 Q186.675 293.245 192.485 293.245 Z" fill="#000000" fill-rule="nonzero" fill-opacity="1" /><path clip-path="url(#clip400)" d="M217.125 285.88 Q219.852 286.463 221.375 288.306 Q222.918 290.149 222.918 292.858 Q222.918 297.014 220.059 299.29 Q217.2 301.566 211.934 301.566 Q210.166 301.566 208.285 301.208 Q206.423 300.87 204.43 300.174 L204.43 296.506 Q206.009 297.428 207.89 297.898 Q209.771 298.368 211.821 298.368 Q215.395 298.368 217.256 296.958 Q219.137 295.547 219.137 292.858 Q219.137 290.375 217.388 288.983 Q215.658 287.573 212.555 287.573 L209.282 287.573 L209.282 284.45 L212.705 284.45 Q215.507 284.45 216.993 283.341 Q218.479 282.212 218.479 280.106 Q218.479 277.943 216.937 276.796 Q215.413 275.63 212.555 275.63 Q210.994 275.63 209.207 275.968 Q207.42 276.307 205.276 277.021 L205.276 273.636 Q207.439 273.034 209.32 272.733 Q211.219 272.432 212.893 272.432 Q217.219 272.432 219.739 274.407 Q222.259 276.363 222.259 279.711 Q222.259 282.043 220.924 283.661 Q219.589 285.259 217.125 285.88 Z" fill="#000000" fill-rule="nonzero" fill-opacity="1" /><path clip-path="url(#clip400)" d="M42.6863 929.455 L42.6863 899.408 L48.0971 899.408 L48.0971 923.025 L62.1653 923.025 L62.1653 900.395 L67.5762 900.395 L67.5762 923.025 L84.7954 923.025 L84.7954 898.836 L90.2063 898.836 L90.2063 929.455 L42.6863 929.455 Z" fill="#000000" fill-rule="nonzero" fill-opacity="1" /><path clip-path="url(#clip400)" d="M44.2459 859.782 L50.5161 859.782 Q48.7655 863.442 47.9062 866.689 Q47.0468 869.935 47.0468 872.959 Q47.0468 878.211 49.0838 881.075 Q51.1208 883.908 54.8766 883.908 Q58.0276 883.908 59.6509 882.03 Q61.2423 880.12 62.229 874.837 L63.0247 870.954 Q64.3933 863.761 67.8627 860.355 Q71.3001 856.917 77.0929 856.917 Q83.9997 856.917 87.5645 861.564 Q91.1293 866.179 91.1293 875.123 Q91.1293 878.497 90.3654 882.317 Q89.6015 886.104 88.1056 890.178 L81.4853 890.178 Q83.6814 886.263 84.7954 882.508 Q85.9094 878.752 85.9094 875.123 Q85.9094 869.617 83.7451 866.625 Q81.5808 863.633 77.5704 863.633 Q74.0692 863.633 72.0958 865.798 Q70.1225 867.93 69.1358 872.832 L68.3719 876.747 Q66.9396 883.94 63.8841 887.154 Q60.8285 890.369 55.3859 890.369 Q49.0838 890.369 45.4554 885.945 Q41.8269 881.489 41.8269 873.691 Q41.8269 870.349 42.4317 866.88 Q43.0364 863.41 44.2459 859.782 Z" fill="#000000" fill-rule="nonzero" fill-opacity="1" /><path clip-path="url(#clip400)" d="M44.2459 818.405 L50.5161 818.405 Q48.7655 822.065 47.9062 825.312 Q47.0468 828.558 47.0468 831.582 Q47.0468 836.834 49.0838 839.698 Q51.1208 842.531 54.8766 842.531 Q58.0276 842.531 59.6509 840.653 Q61.2423 838.743 62.229 833.46 L63.0247 829.577 Q64.3933 822.383 67.8627 818.978 Q71.3001 815.54 77.0929 815.54 Q83.9997 815.54 87.5645 820.187 Q91.1293 824.802 91.1293 833.746 Q91.1293 837.12 90.3654 840.939 Q89.6015 844.727 88.1056 848.801 L81.4853 848.801 Q83.6814 844.886 84.7954 841.13 Q85.9094 837.375 85.9094 833.746 Q85.9094 828.24 83.7451 825.248 Q81.5808 822.256 77.5704 822.256 Q74.0692 822.256 72.0958 824.42 Q70.1225 826.553 69.1358 831.455 L68.3719 835.369 Q66.9396 842.563 63.8841 845.777 Q60.8285 848.992 55.3859 848.992 Q49.0838 848.992 45.4554 844.568 Q41.8269 840.112 41.8269 832.314 Q41.8269 828.972 42.4317 825.503 Q43.0364 822.033 44.2459 818.405 Z" fill="#000000" fill-rule="nonzero" fill-opacity="1" /><path clip-path="url(#clip400)" d="M82.1218 804.273 L82.1218 797.557 L90.2063 797.557 L90.2063 804.273 L82.1218 804.273 M56.4999 804.273 L56.4999 797.557 L64.5843 797.557 L64.5843 804.273 L56.4999 804.273 Z" fill="#000000" fill-rule="nonzero" fill-opacity="1" /><path clip-path="url(#clip400)" d="M44.2459 734.346 L50.5161 734.346 Q48.7655 738.006 47.9062 741.252 Q47.0468 744.499 47.0468 747.523 Q47.0468 752.774 49.0838 755.639 Q51.1208 758.472 54.8766 758.472 Q58.0276 758.472 59.6509 756.594 Q61.2423 754.684 62.229 749.401 L63.0247 745.518 Q64.3933 738.324 67.8627 734.919 Q71.3001 731.481 77.0929 731.481 Q83.9997 731.481 87.5645 736.128 Q91.1293 740.743 91.1293 749.687 Q91.1293 753.061 90.3654 756.88 Q89.6015 760.668 88.1056 764.742 L81.4853 764.742 Q83.6814 760.827 84.7954 757.071 Q85.9094 753.316 85.9094 749.687 Q85.9094 744.181 83.7451 741.189 Q81.5808 738.197 77.5704 738.197 Q74.0692 738.197 72.0958 740.361 Q70.1225 742.494 69.1358 747.395 L68.3719 751.31 Q66.9396 758.504 63.8841 761.718 Q60.8285 764.933 55.3859 764.933 Q49.0838 764.933 45.4554 760.509 Q41.8269 756.053 41.8269 748.255 Q41.8269 744.913 42.4317 741.443 Q43.0364 737.974 44.2459 734.346 Z" fill="#000000" fill-rule="nonzero" fill-opacity="1" /><path clip-path="url(#clip400)" d="M54.5583 725.115 L54.5583 719.259 L82.3765 711.938 L54.5583 704.65 L54.5583 697.743 L82.3765 690.422 L54.5583 683.134 L54.5583 677.277 L90.2063 686.603 L90.2063 693.51 L60.9877 701.18 L90.2063 708.883 L90.2063 715.79 L54.5583 725.115 Z" fill="#000000" fill-rule="nonzero" fill-opacity="1" /><path clip-path="url(#clip400)" d="M70.9182 637.905 L73.7828 637.905 L73.7828 664.832 Q79.8302 664.45 83.013 661.204 Q86.1641 657.925 86.1641 652.101 Q86.1641 648.727 85.3365 645.576 Q84.509 642.393 82.8539 639.274 L88.3921 639.274 Q89.7289 642.425 90.4291 645.735 Q91.1293 649.045 91.1293 652.451 Q91.1293 660.981 86.1641 665.978 Q81.1988 670.943 72.7324 670.943 Q63.9796 670.943 58.8552 666.233 Q53.699 661.49 53.699 653.469 Q53.699 646.276 58.3459 642.107 Q62.9611 637.905 70.9182 637.905 M69.1995 643.762 Q64.3933 643.825 61.5288 646.467 Q58.6642 649.077 58.6642 653.406 Q58.6642 658.307 61.4333 661.267 Q64.2024 664.196 69.2313 664.641 L69.1995 643.762 Z" fill="#000000" fill-rule="nonzero" fill-opacity="1" /><path clip-path="url(#clip400)" d="M59.9692 604.835 L40.6811 604.835 L40.6811 598.979 L90.2063 598.979 L90.2063 604.835 L84.8591 604.835 Q88.0419 606.681 89.6015 609.514 Q91.1293 612.315 91.1293 616.262 Q91.1293 622.723 85.9731 626.797 Q80.8169 630.839 72.4141 630.839 Q64.0114 630.839 58.8552 626.797 Q53.699 622.723 53.699 616.262 Q53.699 612.315 55.2586 609.514 Q56.7863 606.681 59.9692 604.835 M72.4141 624.792 Q78.8753 624.792 82.5674 622.15 Q86.2277 619.477 86.2277 614.83 Q86.2277 610.183 82.5674 607.509 Q78.8753 604.835 72.4141 604.835 Q65.9529 604.835 62.2927 607.509 Q58.6006 610.183 58.6006 614.83 Q58.6006 619.477 62.2927 622.15 Q65.9529 624.792 72.4141 624.792 Z" fill="#000000" fill-rule="nonzero" fill-opacity="1" /><path clip-path="url(#clip400)" d="M70.9182 556.424 L73.7828 556.424 L73.7828 583.351 Q79.8302 582.969 83.013 579.723 Q86.1641 576.444 86.1641 570.62 Q86.1641 567.246 85.3365 564.095 Q84.509 560.912 82.8539 557.793 L88.3921 557.793 Q89.7289 560.944 90.4291 564.254 Q91.1293 567.564 91.1293 570.97 Q91.1293 579.5 86.1641 584.497 Q81.1988 589.462 72.7324 589.462 Q63.9796 589.462 58.8552 584.752 Q53.699 580.009 53.699 571.988 Q53.699 564.795 58.3459 560.626 Q62.9611 556.424 70.9182 556.424 M69.1995 562.281 Q64.3933 562.344 61.5288 564.986 Q58.6642 567.596 58.6642 571.925 Q58.6642 576.826 61.4333 579.786 Q64.2024 582.715 69.2313 583.16 L69.1995 562.281 Z" fill="#000000" fill-rule="nonzero" fill-opacity="1" /><path clip-path="url(#clip400)" d="M68.6902 517.18 L90.2063 517.18 L90.2063 523.036 L68.8812 523.036 Q63.8204 523.036 61.306 525.009 Q58.7915 526.983 58.7915 530.93 Q58.7915 535.672 61.8152 538.409 Q64.8389 541.146 70.0588 541.146 L90.2063 541.146 L90.2063 547.035 L54.5583 547.035 L54.5583 541.146 L60.0965 541.146 Q56.8818 539.046 55.2904 536.213 Q53.699 533.349 53.699 529.625 Q53.699 523.482 57.5184 520.331 Q61.306 517.18 68.6902 517.18 Z" fill="#000000" fill-rule="nonzero" fill-opacity="1" /><path clip-path="url(#clip400)" d="M82.1218 504.003 L82.1218 497.287 L87.5963 497.287 L97.7815 502.507 L97.7815 506.613 L87.5963 504.003 L82.1218 504.003 Z" fill="#000000" fill-rule="nonzero" fill-opacity="1" /><path clip-path="url(#clip400)" d="M44.4369 458.265 L54.5583 458.265 L54.5583 446.202 L59.1098 446.202 L59.1098 458.265 L78.4616 458.265 Q82.8221 458.265 84.0634 457.087 Q85.3047 455.878 85.3047 452.218 L85.3047 446.202 L90.2063 446.202 L90.2063 452.218 Q90.2063 458.997 87.6918 461.575 Q85.1455 464.153 78.4616 464.153 L59.1098 464.153 L59.1098 468.45 L54.5583 468.45 L54.5583 464.153 L44.4369 464.153 L44.4369 458.265 Z" fill="#000000" fill-rule="nonzero" fill-opacity="1" /><path clip-path="url(#clip400)" d="M54.5583 438.499 L54.5583 432.643 L90.2063 432.643 L90.2063 438.499 L54.5583 438.499 M40.6811 438.499 L40.6811 432.643 L48.0971 432.643 L48.0971 438.499 L40.6811 438.499 Z" fill="#000000" fill-rule="nonzero" fill-opacity="1" /><path clip-path="url(#clip400)" d="M61.4015 392.635 Q57.4547 390.438 55.5768 387.383 Q53.699 384.327 53.699 380.19 Q53.699 374.62 57.6139 371.596 Q61.4969 368.572 68.6902 368.572 L90.2063 368.572 L90.2063 374.46 L68.8812 374.46 Q63.7568 374.46 61.2741 376.275 Q58.7915 378.089 58.7915 381.813 Q58.7915 386.364 61.8152 389.006 Q64.8389 391.648 70.0588 391.648 L90.2063 391.648 L90.2063 397.536 L68.8812 397.536 Q63.7249 397.536 61.2741 399.35 Q58.7915 401.165 58.7915 404.952 Q58.7915 409.44 61.8471 412.082 Q64.8708 414.724 70.0588 414.724 L90.2063 414.724 L90.2063 420.612 L54.5583 420.612 L54.5583 414.724 L60.0965 414.724 Q56.8182 412.718 55.2586 409.917 Q53.699 407.117 53.699 403.265 Q53.699 399.382 55.6723 396.677 Q57.6457 393.94 61.4015 392.635 Z" fill="#000000" fill-rule="nonzero" fill-opacity="1" /><path clip-path="url(#clip400)" d="M70.9182 326.399 L73.7828 326.399 L73.7828 353.326 Q79.8302 352.944 83.013 349.698 Q86.1641 346.42 86.1641 340.595 Q86.1641 337.221 85.3365 334.07 Q84.509 330.887 82.8539 327.768 L88.3921 327.768 Q89.7289 330.919 90.4291 334.229 Q91.1293 337.539 91.1293 340.945 Q91.1293 349.475 86.1641 354.472 Q81.1988 359.437 72.7324 359.437 Q63.9796 359.437 58.8552 354.727 Q53.699 349.984 53.699 341.964 Q53.699 334.77 58.3459 330.601 Q62.9611 326.399 70.9182 326.399 M69.1995 332.256 Q64.3933 332.319 61.5288 334.961 Q58.6642 337.571 58.6642 341.9 Q58.6642 346.801 61.4333 349.762 Q64.2024 352.69 69.2313 353.135 L69.1995 332.256 Z" fill="#000000" fill-rule="nonzero" fill-opacity="1" /><path clip-path="url(#clip400)" d="M82.1218 315.291 L82.1218 308.575 L90.2063 308.575 L90.2063 315.291 L82.1218 315.291 M56.4999 315.291 L56.4999 308.575 L64.5843 308.575 L64.5843 315.291 L56.4999 315.291 Z" fill="#000000" fill-rule="nonzero" fill-opacity="1" /><path clip-path="url(#clip400)" d="M84.7954 292.884 L84.7954 282.381 L48.5427 282.381 L50.8344 293.807 L44.9779 293.807 L42.6863 282.444 L42.6863 276.015 L84.7954 276.015 L84.7954 265.511 L90.2063 265.511 L90.2063 292.884 L84.7954 292.884 Z" fill="#000000" fill-rule="nonzero" fill-opacity="1" /><path clip-path="url(#clip400)" d="M46.9195 238.775 Q46.9195 243.741 51.8211 246.255 Q56.6908 248.738 66.494 248.738 Q76.2654 248.738 81.167 246.255 Q86.0367 243.741 86.0367 238.775 Q86.0367 233.778 81.167 231.296 Q76.2654 228.781 66.494 228.781 Q56.6908 228.781 51.8211 231.296 Q46.9195 233.778 46.9195 238.775 M41.8269 238.775 Q41.8269 230.786 48.1608 226.585 Q54.4628 222.352 66.494 222.352 Q78.4934 222.352 84.8273 226.585 Q91.1293 230.786 91.1293 238.775 Q91.1293 246.764 84.8273 250.998 Q78.4934 255.199 66.494 255.199 Q54.4628 255.199 48.1608 250.998 Q41.8269 246.764 41.8269 238.775 Z" fill="#000000" fill-rule="nonzero" fill-opacity="1" /><path clip-path="url(#clip400)" d="M46.9195 197.303 Q46.9195 202.268 51.8211 204.783 Q56.6908 207.265 66.494 207.265 Q76.2654 207.265 81.167 204.783 Q86.0367 202.268 86.0367 197.303 Q86.0367 192.306 81.167 189.823 Q76.2654 187.309 66.494 187.309 Q56.6908 187.309 51.8211 189.823 Q46.9195 192.306 46.9195 197.303 M41.8269 197.303 Q41.8269 189.314 48.1608 185.113 Q54.4628 180.879 66.494 180.879 Q78.4934 180.879 84.8273 185.113 Q91.1293 189.314 91.1293 197.303 Q91.1293 205.292 84.8273 209.525 Q78.4934 213.726 66.494 213.726 Q54.4628 213.726 48.1608 209.525 Q41.8269 205.292 41.8269 197.303 Z" fill="#000000" fill-rule="nonzero" fill-opacity="1" /><polyline clip-path="url(#clip402)" style="stroke:#009af9; stroke-linecap:round; stroke-linejoin:round; stroke-width:4; stroke-opacity:1; fill:none" points="350.696,376.633 369.557,152.284 388.417,176.542 407.277,171.246 426.137,167.623 444.997,160.107 463.858,160.724 482.718,174.075 501.578,166.762 520.438,157.751 539.298,150.035 558.159,199.842 577.019,180.197 595.879,165.957 614.739,179.261 633.599,148.499 652.46,151.8 671.32,161.106 690.18,162.627 709.04,160.416 727.9,172.744 746.761,172.725 765.621,185.2 784.481,165.8 803.341,159.278 822.201,173.58 841.062,190.711 859.922,166.095 878.782,163.735 897.642,178.617 916.502,174.17 935.363,189.721 954.223,152.247 973.083,176.765 991.943,177.548 1010.8,153.928 1029.66,152.369 1048.52,148.825 1067.38,208.718 1086.24,178.32 1105.1,142.373 1123.96,167.51 1142.82,186.421 1161.69,140.111 1180.55,156.405 1199.41,185.641 1218.27,141.413 1237.13,145.948 1255.99,130.279 1274.85,134.394 1293.71,143.097 1312.57,137.506 1331.43,160.481 1350.29,160.97 1369.15,155.918 1388.01,193.837 1406.87,181.967 1425.73,155.098 1444.59,195.221 1463.45,148.935 1482.31,144.322 1501.17,153.205 1520.03,164.88 1538.89,149.429 1557.75,153.656 1576.61,149.293 1595.47,138.007 1614.33,125.463 1633.19,181.034 1652.05,147.79 1670.91,160.065 1689.77,166.696 1708.63,154.272 1727.49,138.95 1746.35,160.443 1765.21,124.565 1784.07,137.283 1802.93,151.826 1821.79,142.298 1840.65,150.457 1859.51,128.571 1878.37,127.24 1897.23,121.961 1916.09,178.76 1934.95,162.955 1953.81,131.448 1972.67,128.816 1991.53,160.772 2010.39,183.751 2029.25,150.778 2048.11,180.365 2066.97,155.961 2085.84,177.231 2104.7,144.486 2123.56,134.28 2142.42,156.961 2161.28,143.293 2180.14,136.456 2199,138.462 2217.86,123.198 2236.72,191.849 2255.58,165.947 2274.44,174.279 2293.3,165.539 2312.16,160.296 2331.02,157.811 2349.88,144.921 2368.74,123.473 2387.6,153.872 2406.46,150.389 2425.32,151.722 2444.18,174.788 2463.04,159.03 2481.9,179.699 2500.76,150.323 2519.62,163.263 2538.48,130.026 2557.34,158.825 2576.2,146.059 2595.06,131.62 2613.92,163.687 2632.78,138.333 2651.64,162.979 2670.5,125.111 2689.36,179.062 2708.22,183.764 2727.08,150.671 2745.94,160.462 2764.8,174.049 2783.66,212.133 2802.52,173.138 2821.38,152.143 2840.24,157.898 2859.1,125.281 2877.96,150.564 2896.82,180.142 2915.68,172.171 2934.54,158.937 2953.4,157.35 2972.26,152.302 2991.12,137.288 3009.99,110.236 "/>
</svg>
