<?xml version="1.0" encoding="utf-8"?>
<svg xmlns="http://www.w3.org/2000/svg" xmlns:xlink="http://www.w3.org/1999/xlink" width="800" height="300" viewBox="0 0 3200 1200">
<defs>
  <clipPath id="clip560">
    <rect x="0" y="0" width="3200" height="1200"/>
  </clipPath>
</defs>
<path clip-path="url(#clip560)" d="M0 1200 L3200 1200 L3200 0 L0 0  Z" fill="#ffffff" fill-rule="evenodd" fill-opacity="1"/>
<defs>
  <clipPath id="clip561">
    <rect x="640" y="0" width="2241" height="1200"/>
  </clipPath>
</defs>
<path clip-path="url(#clip560)" d="M270.918 1000.1 L3089.76 1000.1 L3089.76 110.236 L270.918 110.236  Z" fill="#ffffff" fill-rule="evenodd" fill-opacity="1"/>
<defs>
  <clipPath id="clip562">
    <rect x="270" y="110" width="2820" height="891"/>
  </clipPath>
</defs>
<polyline clip-path="url(#clip562)" style="stroke:#000000; stroke-linecap:round; stroke-linejoin:round; stroke-width:2; stroke-opacity:0.1; fill:none" points="342.988,1000.1 342.988,110.236 "/>
<polyline clip-path="url(#clip562)" style="stroke:#000000; stroke-linecap:round; stroke-linejoin:round; stroke-width:2; stroke-opacity:0.1; fill:none" points="1113.8,1000.1 1113.8,110.236 "/>
<polyline clip-path="url(#clip562)" style="stroke:#000000; stroke-linecap:round; stroke-linejoin:round; stroke-width:2; stroke-opacity:0.1; fill:none" points="1884.6,1000.1 1884.6,110.236 "/>
<polyline clip-path="url(#clip562)" style="stroke:#000000; stroke-linecap:round; stroke-linejoin:round; stroke-width:2; stroke-opacity:0.1; fill:none" points="2655.41,1000.1 2655.41,110.236 "/>
<polyline clip-path="url(#clip560)" style="stroke:#000000; stroke-linecap:round; stroke-linejoin:round; stroke-width:4; stroke-opacity:1; fill:none" points="270.918,1000.1 3089.76,1000.1 "/>
<polyline clip-path="url(#clip560)" style="stroke:#000000; stroke-linecap:round; stroke-linejoin:round; stroke-width:4; stroke-opacity:1; fill:none" points="342.988,1000.1 342.988,981.2 "/>
<polyline clip-path="url(#clip560)" style="stroke:#000000; stroke-linecap:round; stroke-linejoin:round; stroke-width:4; stroke-opacity:1; fill:none" points="1113.8,1000.1 1113.8,981.2 "/>
<polyline clip-path="url(#clip560)" style="stroke:#000000; stroke-linecap:round; stroke-linejoin:round; stroke-width:4; stroke-opacity:1; fill:none" points="1884.6,1000.1 1884.6,981.2 "/>
<polyline clip-path="url(#clip560)" style="stroke:#000000; stroke-linecap:round; stroke-linejoin:round; stroke-width:4; stroke-opacity:1; fill:none" points="2655.41,1000.1 2655.41,981.2 "/>
<path clip-path="url(#clip560)" d="M342.988 1037.42 Q339.377 1037.42 337.548 1040.98 Q335.743 1044.52 335.743 1051.65 Q335.743 1058.76 337.548 1062.32 Q339.377 1065.87 342.988 1065.87 Q346.622 1065.87 348.428 1062.32 Q350.257 1058.76 350.257 1051.65 Q350.257 1044.52 348.428 1040.98 Q346.622 1037.42 342.988 1037.42 M342.988 1033.71 Q348.798 1033.71 351.854 1038.32 Q354.933 1042.9 354.933 1051.65 Q354.933 1060.38 351.854 1064.99 Q348.798 1069.57 342.988 1069.57 Q337.178 1069.57 334.099 1064.99 Q331.044 1060.38 331.044 1051.65 Q331.044 1042.9 334.099 1038.32 Q337.178 1033.71 342.988 1033.71 Z" fill="#000000" fill-rule="nonzero" fill-opacity="1" /><path clip-path="url(#clip560)" d="M1073.4 1064.96 L1081.04 1064.96 L1081.04 1038.6 L1072.73 1040.26 L1072.73 1036 L1081 1034.34 L1085.67 1034.34 L1085.67 1064.96 L1093.31 1064.96 L1093.31 1068.9 L1073.4 1068.9 L1073.4 1064.96 Z" fill="#000000" fill-rule="nonzero" fill-opacity="1" /><path clip-path="url(#clip560)" d="M1112.75 1037.42 Q1109.14 1037.42 1107.32 1040.98 Q1105.51 1044.52 1105.51 1051.65 Q1105.51 1058.76 1107.32 1062.32 Q1109.14 1065.87 1112.75 1065.87 Q1116.39 1065.87 1118.19 1062.32 Q1120.02 1058.76 1120.02 1051.65 Q1120.02 1044.52 1118.19 1040.98 Q1116.39 1037.42 1112.75 1037.42 M1112.75 1033.71 Q1118.57 1033.71 1121.62 1038.32 Q1124.7 1042.9 1124.7 1051.65 Q1124.7 1060.38 1121.62 1064.99 Q1118.57 1069.57 1112.75 1069.57 Q1106.94 1069.57 1103.87 1064.99 Q1100.81 1060.38 1100.81 1051.65 Q1100.81 1042.9 1103.87 1038.32 Q1106.94 1033.71 1112.75 1033.71 Z" fill="#000000" fill-rule="nonzero" fill-opacity="1" /><path clip-path="url(#clip560)" d="M1142.92 1037.42 Q1139.31 1037.42 1137.48 1040.98 Q1135.67 1044.52 1135.67 1051.65 Q1135.67 1058.76 1137.48 1062.32 Q1139.31 1065.87 1142.92 1065.87 Q1146.55 1065.87 1148.36 1062.32 Q1150.19 1058.76 1150.19 1051.65 Q1150.19 1044.52 1148.36 1040.98 Q1146.55 1037.42 1142.92 1037.42 M1142.92 1033.71 Q1148.73 1033.71 1151.78 1038.32 Q1154.86 1042.9 1154.86 1051.65 Q1154.86 1060.38 1151.78 1064.99 Q1148.73 1069.57 1142.92 1069.57 Q1137.11 1069.57 1134.03 1064.99 Q1130.97 1060.38 1130.97 1051.65 Q1130.97 1042.9 1134.03 1038.32 Q1137.11 1033.71 1142.92 1033.71 Z" fill="#000000" fill-rule="nonzero" fill-opacity="1" /><path clip-path="url(#clip560)" d="M1848.3 1064.96 L1864.62 1064.96 L1864.62 1068.9 L1842.67 1068.9 L1842.67 1064.96 Q1845.33 1062.21 1849.92 1057.58 Q1854.52 1052.93 1855.7 1051.58 Q1857.95 1049.06 1858.83 1047.32 Q1859.73 1045.56 1859.73 1043.87 Q1859.73 1041.12 1857.79 1039.38 Q1855.87 1037.65 1852.76 1037.65 Q1850.57 1037.65 1848.11 1038.41 Q1845.68 1039.18 1842.9 1040.73 L1842.9 1036 Q1845.73 1034.87 1848.18 1034.29 Q1850.64 1033.71 1852.67 1033.71 Q1858.04 1033.71 1861.24 1036.4 Q1864.43 1039.08 1864.43 1043.57 Q1864.43 1045.7 1863.62 1047.62 Q1862.83 1049.52 1860.73 1052.12 Q1860.15 1052.79 1857.05 1056 Q1853.95 1059.2 1848.3 1064.96 Z" fill="#000000" fill-rule="nonzero" fill-opacity="1" /><path clip-path="url(#clip560)" d="M1884.43 1037.42 Q1880.82 1037.42 1878.99 1040.98 Q1877.19 1044.52 1877.19 1051.65 Q1877.19 1058.76 1878.99 1062.32 Q1880.82 1065.87 1884.43 1065.87 Q1888.07 1065.87 1889.87 1062.32 Q1891.7 1058.76 1891.7 1051.65 Q1891.7 1044.52 1889.87 1040.98 Q1888.07 1037.42 1884.43 1037.42 M1884.43 1033.71 Q1890.24 1033.71 1893.3 1038.32 Q1896.38 1042.9 1896.38 1051.65 Q1896.38 1060.38 1893.3 1064.99 Q1890.24 1069.57 1884.43 1069.57 Q1878.62 1069.57 1875.54 1064.99 Q1872.49 1060.38 1872.49 1051.65 Q1872.49 1042.9 1875.54 1038.32 Q1878.62 1033.71 1884.43 1033.71 Z" fill="#000000" fill-rule="nonzero" fill-opacity="1" /><path clip-path="url(#clip560)" d="M1914.59 1037.42 Q1910.98 1037.42 1909.15 1040.98 Q1907.35 1044.52 1907.35 1051.65 Q1907.35 1058.76 1909.15 1062.32 Q1910.98 1065.87 1914.59 1065.87 Q1918.23 1065.87 1920.03 1062.32 Q1921.86 1058.76 1921.86 1051.65 Q1921.86 1044.52 1920.03 1040.98 Q1918.23 1037.42 1914.59 1037.42 M1914.59 1033.71 Q1920.4 1033.71 1923.46 1038.32 Q1926.54 1042.9 1926.54 1051.65 Q1926.54 1060.38 1923.46 1064.99 Q1920.4 1069.57 1914.59 1069.57 Q1908.78 1069.57 1905.7 1064.99 Q1902.65 1060.38 1902.65 1051.65 Q1902.65 1042.9 1905.7 1038.32 Q1908.78 1033.71 1914.59 1033.71 Z" fill="#000000" fill-rule="nonzero" fill-opacity="1" /><path clip-path="url(#clip560)" d="M2629.17 1050.26 Q2632.53 1050.98 2634.41 1053.25 Q2636.3 1055.52 2636.3 1058.85 Q2636.3 1063.97 2632.79 1066.77 Q2629.27 1069.57 2622.79 1069.57 Q2620.61 1069.57 2618.3 1069.13 Q2616 1068.71 2613.55 1067.86 L2613.55 1063.34 Q2615.49 1064.48 2617.81 1065.06 Q2620.12 1065.63 2622.65 1065.63 Q2627.05 1065.63 2629.34 1063.9 Q2631.65 1062.16 2631.65 1058.85 Q2631.65 1055.8 2629.5 1054.08 Q2627.37 1052.35 2623.55 1052.35 L2619.52 1052.35 L2619.52 1048.5 L2623.74 1048.5 Q2627.18 1048.5 2629.01 1047.14 Q2630.84 1045.75 2630.84 1043.16 Q2630.84 1040.5 2628.94 1039.08 Q2627.07 1037.65 2623.55 1037.65 Q2621.63 1037.65 2619.43 1038.06 Q2617.23 1038.48 2614.59 1039.36 L2614.59 1035.19 Q2617.25 1034.45 2619.57 1034.08 Q2621.91 1033.71 2623.97 1033.71 Q2629.29 1033.71 2632.39 1036.14 Q2635.49 1038.55 2635.49 1042.67 Q2635.49 1045.54 2633.85 1047.53 Q2632.21 1049.5 2629.17 1050.26 Z" fill="#000000" fill-rule="nonzero" fill-opacity="1" /><path clip-path="url(#clip560)" d="M2655.17 1037.42 Q2651.56 1037.42 2649.73 1040.98 Q2647.92 1044.52 2647.92 1051.65 Q2647.92 1058.76 2649.73 1062.32 Q2651.56 1065.87 2655.17 1065.87 Q2658.8 1065.87 2660.61 1062.32 Q2662.44 1058.76 2662.44 1051.65 Q2662.44 1044.52 2660.61 1040.98 Q2658.8 1037.42 2655.17 1037.42 M2655.17 1033.71 Q2660.98 1033.71 2664.04 1038.32 Q2667.11 1042.9 2667.11 1051.65 Q2667.11 1060.38 2664.04 1064.99 Q2660.98 1069.57 2655.17 1069.57 Q2649.36 1069.57 2646.28 1064.99 Q2643.23 1060.38 2643.23 1051.65 Q2643.23 1042.9 2646.28 1038.32 Q2649.36 1033.71 2655.17 1033.71 Z" fill="#000000" fill-rule="nonzero" fill-opacity="1" /><path clip-path="url(#clip560)" d="M2685.33 1037.42 Q2681.72 1037.42 2679.89 1040.98 Q2678.09 1044.52 2678.09 1051.65 Q2678.09 1058.76 2679.89 1062.32 Q2681.72 1065.87 2685.33 1065.87 Q2688.97 1065.87 2690.77 1062.32 Q2692.6 1058.76 2692.6 1051.65 Q2692.6 1044.52 2690.77 1040.98 Q2688.97 1037.42 2685.33 1037.42 M2685.33 1033.71 Q2691.14 1033.71 2694.2 1038.32 Q2697.28 1042.9 2697.28 1051.65 Q2697.28 1060.38 2694.2 1064.99 Q2691.14 1069.57 2685.33 1069.57 Q2679.52 1069.57 2676.44 1064.99 Q2673.39 1060.38 2673.39 1051.65 Q2673.39 1042.9 2676.44 1038.32 Q2679.52 1033.71 2685.33 1033.71 Z" fill="#000000" fill-rule="nonzero" fill-opacity="1" /><path clip-path="url(#clip560)" d="M1556.64 1109.44 L1563.07 1109.44 L1563.07 1151.55 L1586.21 1151.55 L1586.21 1156.96 L1556.64 1156.96 L1556.64 1109.44 Z" fill="#000000" fill-rule="nonzero" fill-opacity="1" /><path clip-path="url(#clip560)" d="M1592.7 1121.31 L1598.56 1121.31 L1598.56 1156.96 L1592.7 1156.96 L1592.7 1121.31 M1592.7 1107.44 L1598.56 1107.44 L1598.56 1114.85 L1592.7 1114.85 L1592.7 1107.44 Z" fill="#000000" fill-rule="nonzero" fill-opacity="1" /><path clip-path="url(#clip560)" d="M1640.44 1135.45 L1640.44 1156.96 L1634.59 1156.96 L1634.59 1135.64 Q1634.59 1130.58 1632.61 1128.06 Q1630.64 1125.55 1626.69 1125.55 Q1621.95 1125.55 1619.21 1128.57 Q1616.48 1131.59 1616.48 1136.81 L1616.48 1156.96 L1610.59 1156.96 L1610.59 1121.31 L1616.48 1121.31 L1616.48 1126.85 Q1618.58 1123.64 1621.41 1122.05 Q1624.27 1120.45 1628 1120.45 Q1634.14 1120.45 1637.29 1124.27 Q1640.44 1128.06 1640.44 1135.45 Z" fill="#000000" fill-rule="nonzero" fill-opacity="1" /><path clip-path="url(#clip560)" d="M1682.62 1137.67 L1682.62 1140.54 L1655.69 1140.54 Q1656.07 1146.59 1659.32 1149.77 Q1662.6 1152.92 1668.42 1152.92 Q1671.79 1152.92 1674.95 1152.09 Q1678.13 1151.26 1681.25 1149.61 L1681.25 1155.15 Q1678.1 1156.48 1674.79 1157.18 Q1671.48 1157.88 1668.07 1157.88 Q1659.54 1157.88 1654.54 1152.92 Q1649.58 1147.95 1649.58 1139.49 Q1649.58 1130.74 1654.29 1125.61 Q1659.03 1120.45 1667.05 1120.45 Q1674.25 1120.45 1678.42 1125.1 Q1682.62 1129.72 1682.62 1137.67 M1676.76 1135.95 Q1676.7 1131.15 1674.05 1128.28 Q1671.44 1125.42 1667.12 1125.42 Q1662.21 1125.42 1659.25 1128.19 Q1656.33 1130.96 1655.88 1135.99 L1676.76 1135.95 Z" fill="#000000" fill-rule="nonzero" fill-opacity="1" /><path clip-path="url(#clip560)" d="M1708.43 1139.04 Q1701.33 1139.04 1698.59 1140.67 Q1695.86 1142.29 1695.86 1146.2 Q1695.86 1149.32 1697.89 1151.17 Q1699.96 1152.98 1703.5 1152.98 Q1708.37 1152.98 1711.29 1149.55 Q1714.25 1146.08 1714.25 1140.35 L1714.25 1139.04 L1708.43 1139.04 M1720.11 1136.62 L1720.11 1156.96 L1714.25 1156.96 L1714.25 1151.55 Q1712.25 1154.8 1709.26 1156.36 Q1706.27 1157.88 1701.94 1157.88 Q1696.46 1157.88 1693.22 1154.83 Q1690 1151.74 1690 1146.59 Q1690 1140.57 1694.01 1137.51 Q1698.05 1134.46 1706.04 1134.46 L1714.25 1134.46 L1714.25 1133.89 Q1714.25 1129.84 1711.58 1127.65 Q1708.94 1125.42 1704.13 1125.42 Q1701.08 1125.42 1698.18 1126.15 Q1695.28 1126.88 1692.61 1128.35 L1692.61 1122.94 Q1695.83 1121.7 1698.85 1121.09 Q1701.87 1120.45 1704.74 1120.45 Q1712.47 1120.45 1716.29 1124.46 Q1720.11 1128.48 1720.11 1136.62 Z" fill="#000000" fill-rule="nonzero" fill-opacity="1" /><path clip-path="url(#clip560)" d="M1755.63 1138.72 Q1755.63 1132.36 1752.99 1128.86 Q1750.38 1125.36 1745.64 1125.36 Q1740.93 1125.36 1738.28 1128.86 Q1735.67 1132.36 1735.67 1138.72 Q1735.67 1145.06 1738.28 1148.56 Q1740.93 1152.06 1745.64 1152.06 Q1750.38 1152.06 1752.99 1148.56 Q1755.63 1145.06 1755.63 1138.72 M1761.49 1152.54 Q1761.49 1161.64 1757.45 1166.06 Q1753.4 1170.52 1745.06 1170.52 Q1741.98 1170.52 1739.24 1170.04 Q1736.5 1169.6 1733.92 1168.64 L1733.92 1162.95 Q1736.5 1164.35 1739.02 1165.01 Q1741.53 1165.68 1744.14 1165.68 Q1749.9 1165.68 1752.77 1162.66 Q1755.63 1159.67 1755.63 1153.59 L1755.63 1150.69 Q1753.82 1153.84 1750.98 1155.4 Q1748.15 1156.96 1744.2 1156.96 Q1737.65 1156.96 1733.64 1151.96 Q1729.63 1146.97 1729.63 1138.72 Q1729.63 1130.45 1733.64 1125.45 Q1737.65 1120.45 1744.2 1120.45 Q1748.15 1120.45 1750.98 1122.01 Q1753.82 1123.57 1755.63 1126.72 L1755.63 1121.31 L1761.49 1121.31 L1761.49 1152.54 Z" fill="#000000" fill-rule="nonzero" fill-opacity="1" /><path clip-path="url(#clip560)" d="M1804.04 1137.67 L1804.04 1140.54 L1777.12 1140.54 Q1777.5 1146.59 1780.74 1149.77 Q1784.02 1152.92 1789.85 1152.92 Q1793.22 1152.92 1796.37 1152.09 Q1799.55 1151.26 1802.67 1149.61 L1802.67 1155.15 Q1799.52 1156.48 1796.21 1157.18 Q1792.9 1157.88 1789.5 1157.88 Q1780.97 1157.88 1775.97 1152.92 Q1771 1147.95 1771 1139.49 Q1771 1130.74 1775.71 1125.61 Q1780.46 1120.45 1788.48 1120.45 Q1795.67 1120.45 1799.84 1125.1 Q1804.04 1129.72 1804.04 1137.67 M1798.19 1135.95 Q1798.12 1131.15 1795.48 1128.28 Q1792.87 1125.42 1788.54 1125.42 Q1783.64 1125.42 1780.68 1128.19 Q1777.75 1130.96 1777.31 1135.99 L1798.19 1135.95 Z" fill="#000000" fill-rule="nonzero" fill-opacity="1" /><polyline clip-path="url(#clip562)" style="stroke:#000000; stroke-linecap:round; stroke-linejoin:round; stroke-width:2; stroke-opacity:0.1; fill:none" points="270.918,1000.1 3089.76,1000.1 "/>
<polyline clip-path="url(#clip562)" style="stroke:#000000; stroke-linecap:round; stroke-linejoin:round; stroke-width:2; stroke-opacity:0.1; fill:none" points="270.918,670.588 3089.76,670.588 "/>
<polyline clip-path="url(#clip562)" style="stroke:#000000; stroke-linecap:round; stroke-linejoin:round; stroke-width:2; stroke-opacity:0.1; fill:none" points="270.918,341.079 3089.76,341.079 "/>
<polyline clip-path="url(#clip560)" style="stroke:#000000; stroke-linecap:round; stroke-linejoin:round; stroke-width:4; stroke-opacity:1; fill:none" points="270.918,1000.1 270.918,110.236 "/>
<polyline clip-path="url(#clip560)" style="stroke:#000000; stroke-linecap:round; stroke-linejoin:round; stroke-width:4; stroke-opacity:1; fill:none" points="270.918,1000.1 289.815,1000.1 "/>
<polyline clip-path="url(#clip560)" style="stroke:#000000; stroke-linecap:round; stroke-linejoin:round; stroke-width:4; stroke-opacity:1; fill:none" points="270.918,670.588 289.815,670.588 "/>
<polyline clip-path="url(#clip560)" style="stroke:#000000; stroke-linecap:round; stroke-linejoin:round; stroke-width:4; stroke-opacity:1; fill:none" points="270.918,341.079 289.815,341.079 "/>
<path clip-path="url(#clip560)" d="M154.902 1019.89 L162.54 1019.89 L162.54 993.525 L154.23 995.191 L154.23 990.932 L162.494 989.265 L167.17 989.265 L167.17 1019.89 L174.809 1019.89 L174.809 1023.83 L154.902 1023.83 L154.902 1019.89 Z" fill="#000000" fill-rule="nonzero" fill-opacity="1" /><path clip-path="url(#clip560)" d="M194.253 992.344 Q190.642 992.344 188.813 995.909 Q187.008 999.45 187.008 1006.58 Q187.008 1013.69 188.813 1017.25 Q190.642 1020.79 194.253 1020.79 Q197.887 1020.79 199.693 1017.25 Q201.522 1013.69 201.522 1006.58 Q201.522 999.45 199.693 995.909 Q197.887 992.344 194.253 992.344 M194.253 988.64 Q200.063 988.64 203.119 993.247 Q206.198 997.83 206.198 1006.58 Q206.198 1015.31 203.119 1019.91 Q200.063 1024.5 194.253 1024.5 Q188.443 1024.5 185.364 1019.91 Q182.309 1015.31 182.309 1006.58 Q182.309 997.83 185.364 993.247 Q188.443 988.64 194.253 988.64 Z" fill="#000000" fill-rule="nonzero" fill-opacity="1" /><path clip-path="url(#clip560)" d="M206.743 993.218 L212.95 993.218 L212.95 971.796 L206.198 973.15 L206.198 969.689 L212.912 968.335 L216.711 968.335 L216.711 993.218 L222.918 993.218 L222.918 996.415 L206.743 996.415 L206.743 993.218 Z" fill="#000000" fill-rule="nonzero" fill-opacity="1" /><path clip-path="url(#clip560)" d="M153.792 690.381 L161.431 690.381 L161.431 664.015 L153.121 665.682 L153.121 661.423 L161.384 659.756 L166.06 659.756 L166.06 690.381 L173.699 690.381 L173.699 694.316 L153.792 694.316 L153.792 690.381 Z" fill="#000000" fill-rule="nonzero" fill-opacity="1" /><path clip-path="url(#clip560)" d="M193.143 662.835 Q189.532 662.835 187.704 666.399 Q185.898 669.941 185.898 677.071 Q185.898 684.177 187.704 687.742 Q189.532 691.284 193.143 691.284 Q196.778 691.284 198.583 687.742 Q200.412 684.177 200.412 677.071 Q200.412 669.941 198.583 666.399 Q196.778 662.835 193.143 662.835 M193.143 659.131 Q198.954 659.131 202.009 663.737 Q205.088 668.321 205.088 677.071 Q205.088 685.798 202.009 690.404 Q198.954 694.987 193.143 694.987 Q187.333 694.987 184.255 690.404 Q181.199 685.798 181.199 677.071 Q181.199 668.321 184.255 663.737 Q187.333 659.131 193.143 659.131 Z" fill="#000000" fill-rule="nonzero" fill-opacity="1" /><path clip-path="url(#clip560)" d="M209.658 663.708 L222.918 663.708 L222.918 666.906 L205.088 666.906 L205.088 663.708 Q207.251 661.47 210.975 657.709 Q214.717 653.928 215.677 652.837 Q217.501 650.787 218.216 649.377 Q218.949 647.947 218.949 646.574 Q218.949 644.336 217.369 642.926 Q215.808 641.515 213.288 641.515 Q211.501 641.515 209.508 642.136 Q207.533 642.756 205.276 644.017 L205.276 640.18 Q207.57 639.258 209.564 638.788 Q211.558 638.318 213.213 638.318 Q217.576 638.318 220.172 640.499 Q222.767 642.681 222.767 646.33 Q222.767 648.06 222.109 649.621 Q221.469 651.163 219.758 653.27 Q219.288 653.815 216.767 656.43 Q214.247 659.025 209.658 663.708 Z" fill="#000000" fill-rule="nonzero" fill-opacity="1" /><path clip-path="url(#clip560)" d="M153.134 360.871 L160.772 360.871 L160.772 334.506 L152.462 336.173 L152.462 331.913 L160.726 330.247 L165.402 330.247 L165.402 360.871 L173.041 360.871 L173.041 364.807 L153.134 364.807 L153.134 360.871 Z" fill="#000000" fill-rule="nonzero" fill-opacity="1" /><path clip-path="url(#clip560)" d="M192.485 333.325 Q188.874 333.325 187.045 336.89 Q185.24 340.432 185.24 347.561 Q185.24 354.668 187.045 358.233 Q188.874 361.774 192.485 361.774 Q196.119 361.774 197.925 358.233 Q199.754 354.668 199.754 347.561 Q199.754 340.432 197.925 336.89 Q196.119 333.325 192.485 333.325 M192.485 329.622 Q198.295 329.622 201.351 334.228 Q204.43 338.811 204.43 347.561 Q204.43 356.288 201.351 360.895 Q198.295 365.478 192.485 365.478 Q186.675 365.478 183.596 360.895 Q180.541 356.288 180.541 347.561 Q180.541 338.811 183.596 334.228 Q186.675 329.622 192.485 329.622 Z" fill="#000000" fill-rule="nonzero" fill-opacity="1" /><path clip-path="url(#clip560)" d="M217.125 322.256 Q219.852 322.839 221.375 324.682 Q222.918 326.525 222.918 329.234 Q222.918 333.39 220.059 335.666 Q217.2 337.942 211.934 337.942 Q210.166 337.942 208.285 337.584 Q206.423 337.246 204.43 336.55 L204.43 332.882 Q206.009 333.804 207.89 334.274 Q209.771 334.744 211.821 334.744 Q215.395 334.744 217.256 333.334 Q219.137 331.923 219.137 329.234 Q219.137 326.751 217.388 325.359 Q215.658 323.949 212.555 323.949 L209.282 323.949 L209.282 320.827 L212.705 320.827 Q215.507 320.827 216.993 319.717 Q218.479 318.588 218.479 316.482 Q218.479 314.319 216.937 313.172 Q215.413 312.006 212.555 312.006 Q210.994 312.006 209.207 312.344 Q207.42 312.683 205.276 313.398 L205.276 310.012 Q207.439 309.41 209.32 309.109 Q211.219 308.808 212.893 308.808 Q217.219 308.808 219.739 310.783 Q222.259 312.739 222.259 316.087 Q222.259 318.419 220.924 320.037 Q219.589 321.635 217.125 322.256 Z" fill="#000000" fill-rule="nonzero" fill-opacity="1" /><path clip-path="url(#clip560)" d="M42.6863 950.461 L42.6863 920.415 L48.0971 920.415 L48.0971 944.032 L62.1653 944.032 L62.1653 921.402 L67.5762 921.402 L67.5762 944.032 L84.7954 944.032 L84.7954 919.842 L90.2063 919.842 L90.2063 950.461 L42.6863 950.461 Z" fill="#000000" fill-rule="nonzero" fill-opacity="1" /><path clip-path="url(#clip560)" d="M44.2459 880.789 L50.5161 880.789 Q48.7655 884.449 47.9062 887.696 Q47.0468 890.942 47.0468 893.966 Q47.0468 899.217 49.0838 902.082 Q51.1208 904.915 54.8766 904.915 Q58.0276 904.915 59.6509 903.037 Q61.2423 901.127 62.229 895.844 L63.0247 891.961 Q64.3933 884.767 67.8627 881.362 Q71.3001 877.924 77.0929 877.924 Q83.9997 877.924 87.5645 882.571 Q91.1293 887.186 91.1293 896.13 Q91.1293 899.504 90.3654 903.323 Q89.6015 907.111 88.1056 911.185 L81.4853 911.185 Q83.6814 907.27 84.7954 903.514 Q85.9094 899.759 85.9094 896.13 Q85.9094 890.624 83.7451 887.632 Q81.5808 884.64 77.5704 884.64 Q74.0692 884.64 72.0958 886.804 Q70.1225 888.937 69.1358 893.838 L68.3719 897.753 Q66.9396 904.947 63.8841 908.161 Q60.8285 911.376 55.3859 911.376 Q49.0838 911.376 45.4554 906.952 Q41.8269 902.496 41.8269 894.698 Q41.8269 891.356 42.4317 887.887 Q43.0364 884.417 44.2459 880.789 Z" fill="#000000" fill-rule="nonzero" fill-opacity="1" /><path clip-path="url(#clip560)" d="M44.2459 839.412 L50.5161 839.412 Q48.7655 843.072 47.9062 846.318 Q47.0468 849.565 47.0468 852.589 Q47.0468 857.84 49.0838 860.705 Q51.1208 863.538 54.8766 863.538 Q58.0276 863.538 59.6509 861.66 Q61.2423 859.75 62.229 854.467 L63.0247 850.583 Q64.3933 843.39 67.8627 839.985 Q71.3001 836.547 77.0929 836.547 Q83.9997 836.547 87.5645 841.194 Q91.1293 845.809 91.1293 854.753 Q91.1293 858.127 90.3654 861.946 Q89.6015 865.734 88.1056 869.808 L81.4853 869.808 Q83.6814 865.893 84.7954 862.137 Q85.9094 858.381 85.9094 854.753 Q85.9094 849.247 83.7451 846.255 Q81.5808 843.263 77.5704 843.263 Q74.0692 843.263 72.0958 845.427 Q70.1225 847.56 69.1358 852.461 L68.3719 856.376 Q66.9396 863.57 63.8841 866.784 Q60.8285 869.999 55.3859 869.999 Q49.0838 869.999 45.4554 865.575 Q41.8269 861.119 41.8269 853.321 Q41.8269 849.979 42.4317 846.509 Q43.0364 843.04 44.2459 839.412 Z" fill="#000000" fill-rule="nonzero" fill-opacity="1" /><path clip-path="url(#clip560)" d="M82.1218 825.28 L82.1218 818.564 L90.2063 818.564 L90.2063 825.28 L82.1218 825.28 M56.4999 825.28 L56.4999 818.564 L64.5843 818.564 L64.5843 825.28 L56.4999 825.28 Z" fill="#000000" fill-rule="nonzero" fill-opacity="1" /><path clip-path="url(#clip560)" d="M47.9698 777.41 L84.9227 777.41 L84.9227 769.644 Q84.9227 759.809 80.4668 755.257 Q76.0108 750.674 66.3985 750.674 Q56.85 750.674 52.4258 755.257 Q47.9698 759.809 47.9698 769.644 L47.9698 777.41 M42.6863 783.839 L42.6863 770.63 Q42.6863 756.817 48.4472 750.355 Q54.1764 743.894 66.3985 743.894 Q78.6844 743.894 84.4453 750.387 Q90.2063 756.88 90.2063 770.63 L90.2063 783.839 L42.6863 783.839 Z" fill="#000000" fill-rule="nonzero" fill-opacity="1" /><path clip-path="url(#clip560)" d="M70.9182 703.408 L73.7828 703.408 L73.7828 730.335 Q79.8302 729.953 83.013 726.707 Q86.1641 723.429 86.1641 717.604 Q86.1641 714.23 85.3365 711.079 Q84.509 707.896 82.8539 704.777 L88.3921 704.777 Q89.7289 707.928 90.4291 711.238 Q91.1293 714.548 91.1293 717.954 Q91.1293 726.484 86.1641 731.481 Q81.1988 736.446 72.7324 736.446 Q63.9796 736.446 58.8552 731.736 Q53.699 726.993 53.699 718.973 Q53.699 711.779 58.3459 707.61 Q62.9611 703.408 70.9182 703.408 M69.1995 709.265 Q64.3933 709.328 61.5288 711.97 Q58.6642 714.58 58.6642 718.909 Q58.6642 723.81 61.4333 726.771 Q64.2024 729.699 69.2313 730.144 L69.1995 709.265 Z" fill="#000000" fill-rule="nonzero" fill-opacity="1" /><path clip-path="url(#clip560)" d="M68.6902 664.164 L90.2063 664.164 L90.2063 670.02 L68.8812 670.02 Q63.8204 670.02 61.306 671.994 Q58.7915 673.967 58.7915 677.914 Q58.7915 682.656 61.8152 685.393 Q64.8389 688.131 70.0588 688.131 L90.2063 688.131 L90.2063 694.019 L54.5583 694.019 L54.5583 688.131 L60.0965 688.131 Q56.8818 686.03 55.2904 683.197 Q53.699 680.333 53.699 676.609 Q53.699 670.466 57.5184 667.315 Q61.306 664.164 68.6902 664.164 Z" fill="#000000" fill-rule="nonzero" fill-opacity="1" /><path clip-path="url(#clip560)" d="M61.4015 624.728 Q57.4547 622.532 55.5768 619.477 Q53.699 616.421 53.699 612.283 Q53.699 606.713 57.6139 603.69 Q61.4969 600.666 68.6902 600.666 L90.2063 600.666 L90.2063 606.554 L68.8812 606.554 Q63.7568 606.554 61.2741 608.368 Q58.7915 610.183 58.7915 613.907 Q58.7915 618.458 61.8152 621.1 Q64.8389 623.742 70.0588 623.742 L90.2063 623.742 L90.2063 629.63 L68.8812 629.63 Q63.7249 629.63 61.2741 631.444 Q58.7915 633.258 58.7915 637.046 Q58.7915 641.534 61.8471 644.175 Q64.8708 646.817 70.0588 646.817 L90.2063 646.817 L90.2063 652.706 L54.5583 652.706 L54.5583 646.817 L60.0965 646.817 Q56.8182 644.812 55.2586 642.011 Q53.699 639.21 53.699 635.359 Q53.699 631.476 55.6723 628.77 Q57.6457 626.033 61.4015 624.728 Z" fill="#000000" fill-rule="nonzero" fill-opacity="1" /><path clip-path="url(#clip560)" d="M72.2868 572.784 Q72.2868 579.882 73.9101 582.619 Q75.5333 585.356 79.4482 585.356 Q82.5674 585.356 84.4135 583.319 Q86.2277 581.25 86.2277 577.717 Q86.2277 572.848 82.7902 569.919 Q79.3209 566.959 73.5918 566.959 L72.2868 566.959 L72.2868 572.784 M69.8679 561.103 L90.2063 561.103 L90.2063 566.959 L84.7954 566.959 Q88.0419 568.965 89.6015 571.957 Q91.1293 574.948 91.1293 579.277 Q91.1293 584.752 88.0738 587.998 Q84.9864 591.213 79.8302 591.213 Q73.8146 591.213 70.759 587.202 Q67.7035 583.16 67.7035 575.171 L67.7035 566.959 L67.1306 566.959 Q63.0884 566.959 60.8922 569.633 Q58.6642 572.275 58.6642 577.081 Q58.6642 580.136 59.3963 583.033 Q60.1283 585.929 61.5924 588.603 L56.1816 588.603 Q54.9403 585.388 54.3355 582.364 Q53.699 579.341 53.699 576.476 Q53.699 568.742 57.7094 564.922 Q61.7197 561.103 69.8679 561.103 Z" fill="#000000" fill-rule="nonzero" fill-opacity="1" /><path clip-path="url(#clip560)" d="M60.0328 528.383 Q59.4599 529.37 59.2053 530.548 Q58.9188 531.693 58.9188 533.094 Q58.9188 538.059 62.1653 540.733 Q65.38 543.374 71.4274 543.374 L90.2063 543.374 L90.2063 549.263 L54.5583 549.263 L54.5583 543.374 L60.0965 543.374 Q56.85 541.528 55.2904 538.568 Q53.699 535.608 53.699 531.375 Q53.699 530.77 53.7944 530.038 Q53.8581 529.306 54.0172 528.415 L60.0328 528.383 Z" fill="#000000" fill-rule="nonzero" fill-opacity="1" /><path clip-path="url(#clip560)" d="M40.6811 522.463 L40.6811 516.575 L69.9315 516.575 L54.5583 499.101 L54.5583 491.621 L71.2365 510.527 L90.2063 490.826 L90.2063 498.464 L72.7961 516.575 L90.2063 516.575 L90.2063 522.463 L40.6811 522.463 Z" fill="#000000" fill-rule="nonzero" fill-opacity="1" /><path clip-path="url(#clip560)" d="M82.1218 482.996 L82.1218 476.28 L87.5963 476.28 L97.7815 481.5 L97.7815 485.606 L87.5963 482.996 L82.1218 482.996 Z" fill="#000000" fill-rule="nonzero" fill-opacity="1" /><path clip-path="url(#clip560)" d="M44.4369 437.258 L54.5583 437.258 L54.5583 425.195 L59.1098 425.195 L59.1098 437.258 L78.4616 437.258 Q82.8221 437.258 84.0634 436.081 Q85.3047 434.871 85.3047 431.211 L85.3047 425.195 L90.2063 425.195 L90.2063 431.211 Q90.2063 437.99 87.6918 440.568 Q85.1455 443.146 78.4616 443.146 L59.1098 443.146 L59.1098 447.443 L54.5583 447.443 L54.5583 443.146 L44.4369 443.146 L44.4369 437.258 Z" fill="#000000" fill-rule="nonzero" fill-opacity="1" /><path clip-path="url(#clip560)" d="M54.5583 417.493 L54.5583 411.636 L90.2063 411.636 L90.2063 417.493 L54.5583 417.493 M40.6811 417.493 L40.6811 411.636 L48.0971 411.636 L48.0971 417.493 L40.6811 417.493 Z" fill="#000000" fill-rule="nonzero" fill-opacity="1" /><path clip-path="url(#clip560)" d="M61.4015 371.628 Q57.4547 369.432 55.5768 366.376 Q53.699 363.32 53.699 359.183 Q53.699 353.613 57.6139 350.589 Q61.4969 347.565 68.6902 347.565 L90.2063 347.565 L90.2063 353.454 L68.8812 353.454 Q63.7568 353.454 61.2741 355.268 Q58.7915 357.082 58.7915 360.806 Q58.7915 365.358 61.8152 367.999 Q64.8389 370.641 70.0588 370.641 L90.2063 370.641 L90.2063 376.529 L68.8812 376.529 Q63.7249 376.529 61.2741 378.344 Q58.7915 380.158 58.7915 383.945 Q58.7915 388.433 61.8471 391.075 Q64.8708 393.717 70.0588 393.717 L90.2063 393.717 L90.2063 399.605 L54.5583 399.605 L54.5583 393.717 L60.0965 393.717 Q56.8182 391.712 55.2586 388.911 Q53.699 386.11 53.699 382.258 Q53.699 378.375 55.6723 375.67 Q57.6457 372.933 61.4015 371.628 Z" fill="#000000" fill-rule="nonzero" fill-opacity="1" /><path clip-path="url(#clip560)" d="M70.9182 305.393 L73.7828 305.393 L73.7828 332.319 Q79.8302 331.938 83.013 328.691 Q86.1641 325.413 86.1641 319.588 Q86.1641 316.214 85.3365 313.063 Q84.509 309.88 82.8539 306.761 L88.3921 306.761 Q89.7289 309.912 90.4291 313.222 Q91.1293 316.533 91.1293 319.938 Q91.1293 328.468 86.1641 333.465 Q81.1988 338.431 72.7324 338.431 Q63.9796 338.431 58.8552 333.72 Q53.699 328.977 53.699 320.957 Q53.699 313.763 58.3459 309.594 Q62.9611 305.393 70.9182 305.393 M69.1995 311.249 Q64.3933 311.313 61.5288 313.954 Q58.6642 316.564 58.6642 320.893 Q58.6642 325.795 61.4333 328.755 Q64.2024 331.683 69.2313 332.129 L69.1995 311.249 Z" fill="#000000" fill-rule="nonzero" fill-opacity="1" /><path clip-path="url(#clip560)" d="M82.1218 294.284 L82.1218 287.569 L90.2063 287.569 L90.2063 294.284 L82.1218 294.284 M56.4999 294.284 L56.4999 287.569 L64.5843 287.569 L64.5843 294.284 L56.4999 294.284 Z" fill="#000000" fill-rule="nonzero" fill-opacity="1" /><path clip-path="url(#clip560)" d="M84.7954 271.877 L84.7954 261.374 L48.5427 261.374 L50.8344 272.8 L44.9779 272.8 L42.6863 261.437 L42.6863 255.008 L84.7954 255.008 L84.7954 244.505 L90.2063 244.505 L90.2063 271.877 L84.7954 271.877 Z" fill="#000000" fill-rule="nonzero" fill-opacity="1" /><path clip-path="url(#clip560)" d="M46.9195 217.769 Q46.9195 222.734 51.8211 225.248 Q56.6908 227.731 66.494 227.731 Q76.2654 227.731 81.167 225.248 Q86.0367 222.734 86.0367 217.769 Q86.0367 212.772 81.167 210.289 Q76.2654 207.774 66.494 207.774 Q56.6908 207.774 51.8211 210.289 Q46.9195 212.772 46.9195 217.769 M41.8269 217.769 Q41.8269 209.78 48.1608 205.578 Q54.4628 201.345 66.494 201.345 Q78.4934 201.345 84.8273 205.578 Q91.1293 209.78 91.1293 217.769 Q91.1293 225.758 84.8273 229.991 Q78.4934 234.192 66.494 234.192 Q54.4628 234.192 48.1608 229.991 Q41.8269 225.758 41.8269 217.769 Z" fill="#000000" fill-rule="nonzero" fill-opacity="1" /><path clip-path="url(#clip560)" d="M46.9195 176.296 Q46.9195 181.261 51.8211 183.776 Q56.6908 186.258 66.494 186.258 Q76.2654 186.258 81.167 183.776 Q86.0367 181.261 86.0367 176.296 Q86.0367 171.299 81.167 168.816 Q76.2654 166.302 66.494 166.302 Q56.6908 166.302 51.8211 168.816 Q46.9195 171.299 46.9195 176.296 M41.8269 176.296 Q41.8269 168.307 48.1608 164.106 Q54.4628 159.873 66.494 159.873 Q78.4934 159.873 84.8273 164.106 Q91.1293 168.307 91.1293 176.296 Q91.1293 184.285 84.8273 188.518 Q78.4934 192.72 66.494 192.72 Q54.4628 192.72 48.1608 188.518 Q41.8269 184.285 41.8269 176.296 Z" fill="#000000" fill-rule="nonzero" fill-opacity="1" /><polyline clip-path="url(#clip562)" style="stroke:#009af9; stroke-linecap:round; stroke-linejoin:round; stroke-width:4; stroke-opacity:1; fill:none" points="350.696,436.152 358.404,164.433 366.112,176.089 373.821,166.158 381.529,148.466 389.237,169.367 396.945,139.237 404.653,172.71 412.361,173.911 420.069,155.194 427.777,161.708 435.485,152.496 443.193,184.795 450.901,180.762 458.609,147.676 466.318,175.085 474.026,158.82 481.734,171.034 489.442,176.081 497.15,178.989 504.858,140.192 512.566,179.529 520.274,159.355 527.982,150.599 535.69,178.098 543.398,132.719 551.106,169.523 558.815,117.6 566.523,149.397 574.231,152.952 581.939,172.954 589.647,162.929 597.355,204.091 605.063,175.067 612.771,116.666 620.479,154.419 628.187,142.569 635.895,188.164 643.603,150.815 651.312,176.753 659.02,181.03 666.728,173.637 674.436,141.981 682.144,183.745 689.852,172.261 697.56,154.028 705.268,192.047 712.976,183.828 720.684,160.296 728.392,165.848 736.1,153.829 743.809,161.898 751.517,151.019 759.225,144.695 766.933,168.955 774.641,167.543 782.349,159.65 790.057,186.282 797.765,150.662 805.473,131.798 813.181,167.51 820.889,157.337 828.597,168.671 836.306,174.438 844.014,148 851.722,178.403 859.43,189.914 867.138,188.145 874.846,145.758 882.554,152.69 890.262,125.283 897.97,173.493 905.678,143.351 913.386,147.87 921.094,202.537 928.803,195.34 936.511,157.625 944.219,173.548 951.927,186.269 959.635,176.913 967.343,176.663 975.051,181.574 982.759,173.504 990.467,161.034 998.175,167.051 1005.88,153.449 1013.59,194.765 1021.3,194.511 1029.01,146.429 1036.72,178.557 1044.42,183.627 1052.13,171.642 1059.84,186.644 1067.55,175.698 1075.26,185.728 1082.96,166.561 1090.67,196.63 1098.38,174.171 1106.09,180.288 1113.8,174.715 1121.5,165.232 1129.21,137.834 1136.92,179.334 1144.63,185.478 1152.34,161.808 1160.05,164.468 1167.75,161.222 1175.46,157.382 1183.17,176.505 1190.88,143.234 1198.59,141.132 1206.29,153.887 1214,185.382 1221.71,166.808 1229.42,155.34 1237.13,160.762 1244.83,163.572 1252.54,177.88 1260.25,180.837 1267.96,188.951 1275.67,170.596 1283.37,179.334 1291.08,147.164 1298.79,164.608 1306.5,181.89 1314.21,177.496 1321.91,159.224 1329.62,163.653 1337.33,136.579 1345.04,114.834 1352.75,118.17 1360.46,162.072 1368.16,153.074 1375.87,181.21 1383.58,159.335 1391.29,157.717 1399,135.982 1406.7,162.549 1414.41,138.037 1422.12,176.704 1429.83,157.261 1437.54,175.053 1445.24,156.771 1452.95,157.062 1460.66,181.912 1468.37,171.387 1476.08,161.345 1483.78,186.577 1491.49,183.006 1499.2,185.705 1506.91,151.103 1514.62,153.473 1522.32,135.411 1530.03,132.702 1537.74,137.972 1545.45,171.877 1553.16,166.245 1560.87,176.426 1568.57,166.146 1576.28,168.102 1583.99,187.772 1591.7,166.946 1599.41,172.08 1607.11,157.703 1614.82,130.907 1622.53,155.002 1630.24,195.074 1637.95,192.819 1645.65,210.769 1653.36,153.656 1661.07,162.161 1668.78,176.342 1676.49,170.663 1684.19,180.926 1691.9,154.811 1699.61,160.907 1707.32,180.349 1715.03,222.857 1722.74,192.735 1730.44,174.934 1738.15,164.879 1745.86,172.569 1753.57,160.658 1761.28,165.546 1768.98,163.313 1776.69,145.552 1784.4,187.209 1792.11,158.404 1799.82,113.81 1807.52,165.406 1815.23,178.554 1822.94,187.065 1830.65,146.182 1838.36,150.424 1846.06,135.685 1853.77,149.434 1861.48,168.152 1869.19,147.774 1876.9,159.306 1884.6,171.745 1892.31,153.594 1900.02,153.84 1907.73,163.995 1915.44,157.165 1923.15,162.926 1930.85,110.236 1938.56,160.886 1946.27,138.205 1953.98,192.55 1961.69,154.779 1969.39,171.799 1977.1,136.864 1984.81,180.992 1992.52,163.937 2000.23,151.688 2007.93,156.243 2015.64,130.787 2023.35,172.859 2031.06,140.292 2038.77,194.625 2046.47,171.958 2054.18,178.911 2061.89,171.412 2069.6,156.991 2077.31,143.202 2085.02,175.542 2092.72,142.706 2100.43,136.418 2108.14,178.169 2115.85,157.973 2123.56,200.406 2131.26,185.095 2138.97,159.273 2146.68,187.018 2154.39,176.837 2162.1,172.614 2169.8,156.542 2177.51,156.585 2185.22,146.934 2192.93,163.862 2200.64,137.244 2208.34,178.991 2216.05,169.451 2223.76,152.111 2231.47,131.918 2239.18,178.347 2246.88,164.956 2254.59,176.801 2262.3,146.234 2270.01,161.041 2277.72,157.747 2285.43,177.266 2293.13,147.158 2300.84,132.543 2308.55,196.942 2316.26,165.53 2323.97,136.675 2331.67,186.88 2339.38,193.148 2347.09,185.103 2354.8,180.074 2362.51,176.721 2370.21,178.521 2377.92,186.382 2385.63,168 2393.34,162.895 2401.05,161.641 2408.75,165.948 2416.46,173.72 2424.17,158.283 2431.88,150.655 2439.59,149.188 2447.3,137.499 2455,170.33 2462.71,135.519 2470.42,177.609 2478.13,178.432 2485.84,169.23 2493.54,145.663 2501.25,153.412 2508.96,134.868 2516.67,177.254 2524.38,172.822 2532.08,180.866 2539.79,190.612 2547.5,197.625 2555.21,173.016 2562.92,139.679 2570.62,189.193 2578.33,161.424 2586.04,141.102 2593.75,187.992 2601.46,174.155 2609.16,178.361 2616.87,188.591 2624.58,161.445 2632.29,176.079 2640,175.21 2647.71,172.709 2655.41,161.695 2663.12,115.752 2670.83,180.427 2678.54,176.016 2686.25,176.957 2693.95,164.306 2701.66,173.875 2709.37,176.922 2717.08,192.079 2724.79,172.234 2732.49,170.893 2740.2,159.74 2747.91,176.638 2755.62,163.311 2763.33,183.49 2771.03,144.838 2778.74,182.215 2786.45,145.925 2794.16,208.173 2801.87,193.724 2809.57,209.379 2817.28,168.081 2824.99,162.433 2832.7,154.581 2840.41,155.922 2848.12,141.775 2855.82,162.431 2863.53,161.624 2871.24,161.167 2878.95,161.208 2886.66,171.544 2894.36,148.725 2902.07,143.645 2909.78,132.419 2917.49,156.802 2925.2,156.797 2932.9,148.52 2940.61,133.164 2948.32,160.69 2956.03,177.083 2963.74,199.193 2971.44,177.644 2979.15,180.643 2986.86,156.67 2994.57,155.187 3002.28,163.165 3009.99,164.941 "/>
</svg>
