<?xml version="1.0" encoding="utf-8"?>
<svg xmlns="http://www.w3.org/2000/svg" xmlns:xlink="http://www.w3.org/1999/xlink" width="800" height="300" viewBox="0 0 3200 1200">
<defs>
  <clipPath id="clip060">
    <rect x="0" y="0" width="3200" height="1200"/>
  </clipPath>
</defs>
<path clip-path="url(#clip060)" d="
M0 1200 L3200 1200 L3200 0 L0 0  Z
  " fill="#ffffff" fill-rule="evenodd" fill-opacity="1"/>
<defs>
  <clipPath id="clip061">
    <rect x="640" y="0" width="2241" height="1200"/>
  </clipPath>
</defs>
<path clip-path="url(#clip060)" d="
M270.918 1000.1 L3089.76 1000.1 L3089.76 110.236 L270.918 110.236  Z
  " fill="#ffffff" fill-rule="evenodd" fill-opacity="1"/>
<defs>
  <clipPath id="clip062">
    <rect x="270" y="110" width="2820" height="891"/>
  </clipPath>
</defs>
<polyline clip-path="url(#clip062)" style="stroke:#000000; stroke-linecap:round; stroke-linejoin:round; stroke-width:2; stroke-opacity:0.1; fill:none" points="
  340.389,1000.1 340.389,110.236 
  "/>
<polyline clip-path="url(#clip062)" style="stroke:#000000; stroke-linecap:round; stroke-linejoin:round; stroke-width:2; stroke-opacity:0.1; fill:none" points="
  855.755,1000.1 855.755,110.236 
  "/>
<polyline clip-path="url(#clip062)" style="stroke:#000000; stroke-linecap:round; stroke-linejoin:round; stroke-width:2; stroke-opacity:0.1; fill:none" points="
  1371.12,1000.1 1371.12,110.236 
  "/>
<polyline clip-path="url(#clip062)" style="stroke:#000000; stroke-linecap:round; stroke-linejoin:round; stroke-width:2; stroke-opacity:0.1; fill:none" points="
  1886.49,1000.1 1886.49,110.236 
  "/>
<polyline clip-path="url(#clip062)" style="stroke:#000000; stroke-linecap:round; stroke-linejoin:round; stroke-width:2; stroke-opacity:0.1; fill:none" points="
  2401.85,1000.1 2401.85,110.236 
  "/>
<polyline clip-path="url(#clip062)" style="stroke:#000000; stroke-linecap:round; stroke-linejoin:round; stroke-width:2; stroke-opacity:0.1; fill:none" points="
  2917.22,1000.1 2917.22,110.236 
  "/>
<polyline clip-path="url(#clip060)" style="stroke:#000000; stroke-linecap:round; stroke-linejoin:round; stroke-width:4; stroke-opacity:1; fill:none" points="
  270.918,1000.1 3089.76,1000.1 
  "/>
<polyline clip-path="url(#clip060)" style="stroke:#000000; stroke-linecap:round; stroke-linejoin:round; stroke-width:4; stroke-opacity:1; fill:none" points="
  340.389,1000.1 340.389,981.2 
  "/>
<polyline clip-path="url(#clip060)" style="stroke:#000000; stroke-linecap:round; stroke-linejoin:round; stroke-width:4; stroke-opacity:1; fill:none" points="
  855.755,1000.1 855.755,981.2 
  "/>
<polyline clip-path="url(#clip060)" style="stroke:#000000; stroke-linecap:round; stroke-linejoin:round; stroke-width:4; stroke-opacity:1; fill:none" points="
  1371.12,1000.1 1371.12,981.2 
  "/>
<polyline clip-path="url(#clip060)" style="stroke:#000000; stroke-linecap:round; stroke-linejoin:round; stroke-width:4; stroke-opacity:1; fill:none" points="
  1886.49,1000.1 1886.49,981.2 
  "/>
<polyline clip-path="url(#clip060)" style="stroke:#000000; stroke-linecap:round; stroke-linejoin:round; stroke-width:4; stroke-opacity:1; fill:none" points="
  2401.85,1000.1 2401.85,981.2 
  "/>
<polyline clip-path="url(#clip060)" style="stroke:#000000; stroke-linecap:round; stroke-linejoin:round; stroke-width:4; stroke-opacity:1; fill:none" points="
  2917.22,1000.1 2917.22,981.2 
  "/>
<path clip-path="url(#clip060)" d="M340.389 1037.42 Q336.778 1037.42 334.949 1040.98 Q333.144 1044.52 333.144 1051.65 Q333.144 1058.76 334.949 1062.32 Q336.778 1065.87 340.389 1065.87 Q344.023 1065.87 345.829 1062.32 Q347.657 1058.76 347.657 1051.65 Q347.657 1044.52 345.829 1040.98 Q344.023 1037.42 340.389 1037.42 M340.389 1033.71 Q346.199 1033.71 349.255 1038.32 Q352.333 1042.9 352.333 1051.65 Q352.333 1060.38 349.255 1064.99 Q346.199 1069.57 340.389 1069.57 Q334.579 1069.57 331.5 1064.99 Q328.445 1060.38 328.445 1051.65 Q328.445 1042.9 331.5 1038.32 Q334.579 1033.71 340.389 1033.71 Z" fill="#000000" fill-rule="evenodd" fill-opacity="1" /><path clip-path="url(#clip060)" d="M830.454 1034.34 L848.811 1034.34 L848.811 1038.27 L834.737 1038.27 L834.737 1046.75 Q835.755 1046.4 836.774 1046.24 Q837.792 1046.05 838.811 1046.05 Q844.598 1046.05 847.977 1049.22 Q851.357 1052.39 851.357 1057.81 Q851.357 1063.39 847.885 1066.49 Q844.412 1069.57 838.093 1069.57 Q835.917 1069.57 833.649 1069.2 Q831.403 1068.83 828.996 1068.09 L828.996 1063.39 Q831.079 1064.52 833.301 1065.08 Q835.524 1065.63 838 1065.63 Q842.005 1065.63 844.343 1063.53 Q846.681 1061.42 846.681 1057.81 Q846.681 1054.2 844.343 1052.09 Q842.005 1049.99 838 1049.99 Q836.126 1049.99 834.251 1050.4 Q832.399 1050.82 830.454 1051.7 L830.454 1034.34 Z" fill="#000000" fill-rule="evenodd" fill-opacity="1" /><path clip-path="url(#clip060)" d="M870.57 1037.42 Q866.959 1037.42 865.13 1040.98 Q863.324 1044.52 863.324 1051.65 Q863.324 1058.76 865.13 1062.32 Q866.959 1065.87 870.57 1065.87 Q874.204 1065.87 876.01 1062.32 Q877.838 1058.76 877.838 1051.65 Q877.838 1044.52 876.01 1040.98 Q874.204 1037.42 870.57 1037.42 M870.57 1033.71 Q876.38 1033.71 879.435 1038.32 Q882.514 1042.9 882.514 1051.65 Q882.514 1060.38 879.435 1064.99 Q876.38 1069.57 870.57 1069.57 Q864.76 1069.57 861.681 1064.99 Q858.625 1060.38 858.625 1051.65 Q858.625 1042.9 861.681 1038.32 Q864.76 1033.71 870.57 1033.71 Z" fill="#000000" fill-rule="evenodd" fill-opacity="1" /><path clip-path="url(#clip060)" d="M1330.73 1064.96 L1338.37 1064.96 L1338.37 1038.6 L1330.06 1040.26 L1330.06 1036 L1338.32 1034.34 L1343 1034.34 L1343 1064.96 L1350.64 1064.96 L1350.64 1068.9 L1330.73 1068.9 L1330.73 1064.96 Z" fill="#000000" fill-rule="evenodd" fill-opacity="1" /><path clip-path="url(#clip060)" d="M1370.08 1037.42 Q1366.47 1037.42 1364.64 1040.98 Q1362.83 1044.52 1362.83 1051.65 Q1362.83 1058.76 1364.64 1062.32 Q1366.47 1065.87 1370.08 1065.87 Q1373.71 1065.87 1375.52 1062.32 Q1377.35 1058.76 1377.35 1051.65 Q1377.35 1044.52 1375.52 1040.98 Q1373.71 1037.42 1370.08 1037.42 M1370.08 1033.71 Q1375.89 1033.71 1378.95 1038.32 Q1382.02 1042.9 1382.02 1051.65 Q1382.02 1060.38 1378.95 1064.99 Q1375.89 1069.57 1370.08 1069.57 Q1364.27 1069.57 1361.19 1064.99 Q1358.14 1060.38 1358.14 1051.65 Q1358.14 1042.9 1361.19 1038.32 Q1364.27 1033.71 1370.08 1033.71 Z" fill="#000000" fill-rule="evenodd" fill-opacity="1" /><path clip-path="url(#clip060)" d="M1400.24 1037.42 Q1396.63 1037.42 1394.8 1040.98 Q1393 1044.52 1393 1051.65 Q1393 1058.76 1394.8 1062.32 Q1396.63 1065.87 1400.24 1065.87 Q1403.88 1065.87 1405.68 1062.32 Q1407.51 1058.76 1407.51 1051.65 Q1407.51 1044.52 1405.68 1040.98 Q1403.88 1037.42 1400.24 1037.42 M1400.24 1033.71 Q1406.05 1033.71 1409.11 1038.32 Q1412.19 1042.9 1412.19 1051.65 Q1412.19 1060.38 1409.11 1064.99 Q1406.05 1069.57 1400.24 1069.57 Q1394.43 1069.57 1391.35 1064.99 Q1388.3 1060.38 1388.3 1051.65 Q1388.3 1042.9 1391.35 1038.32 Q1394.43 1033.71 1400.24 1033.71 Z" fill="#000000" fill-rule="evenodd" fill-opacity="1" /><path clip-path="url(#clip060)" d="M1846.09 1064.96 L1853.73 1064.96 L1853.73 1038.6 L1845.42 1040.26 L1845.42 1036 L1853.69 1034.34 L1858.36 1034.34 L1858.36 1064.96 L1866 1064.96 L1866 1068.9 L1846.09 1068.9 L1846.09 1064.96 Z" fill="#000000" fill-rule="evenodd" fill-opacity="1" /><path clip-path="url(#clip060)" d="M1875.49 1034.34 L1893.85 1034.34 L1893.85 1038.27 L1879.77 1038.27 L1879.77 1046.75 Q1880.79 1046.4 1881.81 1046.24 Q1882.83 1046.05 1883.85 1046.05 Q1889.64 1046.05 1893.01 1049.22 Q1896.39 1052.39 1896.39 1057.81 Q1896.39 1063.39 1892.92 1066.49 Q1889.45 1069.57 1883.13 1069.57 Q1880.95 1069.57 1878.69 1069.2 Q1876.44 1068.83 1874.03 1068.09 L1874.03 1063.39 Q1876.12 1064.52 1878.34 1065.08 Q1880.56 1065.63 1883.04 1065.63 Q1887.04 1065.63 1889.38 1063.53 Q1891.72 1061.42 1891.72 1057.81 Q1891.72 1054.2 1889.38 1052.09 Q1887.04 1049.99 1883.04 1049.99 Q1881.16 1049.99 1879.29 1050.4 Q1877.44 1050.82 1875.49 1051.7 L1875.49 1034.34 Z" fill="#000000" fill-rule="evenodd" fill-opacity="1" /><path clip-path="url(#clip060)" d="M1915.61 1037.42 Q1912 1037.42 1910.17 1040.98 Q1908.36 1044.52 1908.36 1051.65 Q1908.36 1058.76 1910.17 1062.32 Q1912 1065.87 1915.61 1065.87 Q1919.24 1065.87 1921.05 1062.32 Q1922.88 1058.76 1922.88 1051.65 Q1922.88 1044.52 1921.05 1040.98 Q1919.24 1037.42 1915.61 1037.42 M1915.61 1033.71 Q1921.42 1033.71 1924.47 1038.32 Q1927.55 1042.9 1927.55 1051.65 Q1927.55 1060.38 1924.47 1064.99 Q1921.42 1069.57 1915.61 1069.57 Q1909.8 1069.57 1906.72 1064.99 Q1903.66 1060.38 1903.66 1051.65 Q1903.66 1042.9 1906.72 1038.32 Q1909.8 1033.71 1915.61 1033.71 Z" fill="#000000" fill-rule="evenodd" fill-opacity="1" /><path clip-path="url(#clip060)" d="M2365.55 1064.96 L2381.86 1064.96 L2381.86 1068.9 L2359.92 1068.9 L2359.92 1064.96 Q2362.58 1062.21 2367.17 1057.58 Q2371.77 1052.93 2372.95 1051.58 Q2375.2 1049.06 2376.08 1047.32 Q2376.98 1045.56 2376.98 1043.87 Q2376.98 1041.12 2375.04 1039.38 Q2373.11 1037.65 2370.01 1037.65 Q2367.81 1037.65 2365.36 1038.41 Q2362.93 1039.18 2360.15 1040.73 L2360.15 1036 Q2362.98 1034.87 2365.43 1034.29 Q2367.88 1033.71 2369.92 1033.71 Q2375.29 1033.71 2378.49 1036.4 Q2381.68 1039.08 2381.68 1043.57 Q2381.68 1045.7 2380.87 1047.62 Q2380.08 1049.52 2377.98 1052.12 Q2377.4 1052.79 2374.3 1056 Q2371.19 1059.2 2365.55 1064.96 Z" fill="#000000" fill-rule="evenodd" fill-opacity="1" /><path clip-path="url(#clip060)" d="M2401.68 1037.42 Q2398.07 1037.42 2396.24 1040.98 Q2394.43 1044.52 2394.43 1051.65 Q2394.43 1058.76 2396.24 1062.32 Q2398.07 1065.87 2401.68 1065.87 Q2405.31 1065.87 2407.12 1062.32 Q2408.95 1058.76 2408.95 1051.65 Q2408.95 1044.52 2407.12 1040.98 Q2405.31 1037.42 2401.68 1037.42 M2401.68 1033.71 Q2407.49 1033.71 2410.55 1038.32 Q2413.62 1042.9 2413.62 1051.65 Q2413.62 1060.38 2410.55 1064.99 Q2407.49 1069.57 2401.68 1069.57 Q2395.87 1069.57 2392.79 1064.99 Q2389.74 1060.38 2389.74 1051.65 Q2389.74 1042.9 2392.79 1038.32 Q2395.87 1033.71 2401.68 1033.71 Z" fill="#000000" fill-rule="evenodd" fill-opacity="1" /><path clip-path="url(#clip060)" d="M2431.84 1037.42 Q2428.23 1037.42 2426.4 1040.98 Q2424.6 1044.52 2424.6 1051.65 Q2424.6 1058.76 2426.4 1062.32 Q2428.23 1065.87 2431.84 1065.87 Q2435.48 1065.87 2437.28 1062.32 Q2439.11 1058.76 2439.11 1051.65 Q2439.11 1044.52 2437.28 1040.98 Q2435.48 1037.42 2431.84 1037.42 M2431.84 1033.71 Q2437.65 1033.71 2440.71 1038.32 Q2443.79 1042.9 2443.79 1051.65 Q2443.79 1060.38 2440.71 1064.99 Q2437.65 1069.57 2431.84 1069.57 Q2426.03 1069.57 2422.95 1064.99 Q2419.9 1060.38 2419.9 1051.65 Q2419.9 1042.9 2422.95 1038.32 Q2426.03 1033.71 2431.84 1033.71 Z" fill="#000000" fill-rule="evenodd" fill-opacity="1" /><path clip-path="url(#clip060)" d="M2880.91 1064.96 L2897.23 1064.96 L2897.23 1068.9 L2875.29 1068.9 L2875.29 1064.96 Q2877.95 1062.21 2882.53 1057.58 Q2887.14 1052.93 2888.32 1051.58 Q2890.56 1049.06 2891.44 1047.32 Q2892.35 1045.56 2892.35 1043.87 Q2892.35 1041.12 2890.4 1039.38 Q2888.48 1037.65 2885.38 1037.65 Q2883.18 1037.65 2880.73 1038.41 Q2878.3 1039.18 2875.52 1040.73 L2875.52 1036 Q2878.34 1034.87 2880.8 1034.29 Q2883.25 1033.71 2885.29 1033.71 Q2890.66 1033.71 2893.85 1036.4 Q2897.05 1039.08 2897.05 1043.57 Q2897.05 1045.7 2896.24 1047.62 Q2895.45 1049.52 2893.34 1052.12 Q2892.76 1052.79 2889.66 1056 Q2886.56 1059.2 2880.91 1064.96 Z" fill="#000000" fill-rule="evenodd" fill-opacity="1" /><path clip-path="url(#clip060)" d="M2907.09 1034.34 L2925.45 1034.34 L2925.45 1038.27 L2911.37 1038.27 L2911.37 1046.75 Q2912.39 1046.4 2913.41 1046.24 Q2914.43 1046.05 2915.45 1046.05 Q2921.24 1046.05 2924.62 1049.22 Q2927.99 1052.39 2927.99 1057.81 Q2927.99 1063.39 2924.52 1066.49 Q2921.05 1069.57 2914.73 1069.57 Q2912.55 1069.57 2910.29 1069.2 Q2908.04 1068.83 2905.63 1068.09 L2905.63 1063.39 Q2907.72 1064.52 2909.94 1065.08 Q2912.16 1065.63 2914.64 1065.63 Q2918.64 1065.63 2920.98 1063.53 Q2923.32 1061.42 2923.32 1057.81 Q2923.32 1054.2 2920.98 1052.09 Q2918.64 1049.99 2914.64 1049.99 Q2912.76 1049.99 2910.89 1050.4 Q2909.04 1050.82 2907.09 1051.7 L2907.09 1034.34 Z" fill="#000000" fill-rule="evenodd" fill-opacity="1" /><path clip-path="url(#clip060)" d="M2947.21 1037.42 Q2943.6 1037.42 2941.77 1040.98 Q2939.96 1044.52 2939.96 1051.65 Q2939.96 1058.76 2941.77 1062.32 Q2943.6 1065.87 2947.21 1065.87 Q2950.84 1065.87 2952.65 1062.32 Q2954.48 1058.76 2954.48 1051.65 Q2954.48 1044.52 2952.65 1040.98 Q2950.84 1037.42 2947.21 1037.42 M2947.21 1033.71 Q2953.02 1033.71 2956.07 1038.32 Q2959.15 1042.9 2959.15 1051.65 Q2959.15 1060.38 2956.07 1064.99 Q2953.02 1069.57 2947.21 1069.57 Q2941.4 1069.57 2938.32 1064.99 Q2935.26 1060.38 2935.26 1051.65 Q2935.26 1042.9 2938.32 1038.32 Q2941.4 1033.71 2947.21 1033.71 Z" fill="#000000" fill-rule="evenodd" fill-opacity="1" /><path clip-path="url(#clip060)" d="M1556.64 1109.44 L1563.07 1109.44 L1563.07 1151.55 L1586.21 1151.55 L1586.21 1156.96 L1556.64 1156.96 L1556.64 1109.44 Z" fill="#000000" fill-rule="evenodd" fill-opacity="1" /><path clip-path="url(#clip060)" d="M1592.7 1121.31 L1598.56 1121.31 L1598.56 1156.96 L1592.7 1156.96 L1592.7 1121.31 M1592.7 1107.44 L1598.56 1107.44 L1598.56 1114.85 L1592.7 1114.85 L1592.7 1107.44 Z" fill="#000000" fill-rule="evenodd" fill-opacity="1" /><path clip-path="url(#clip060)" d="M1640.44 1135.45 L1640.44 1156.96 L1634.59 1156.96 L1634.59 1135.64 Q1634.59 1130.58 1632.61 1128.06 Q1630.64 1125.55 1626.69 1125.55 Q1621.95 1125.55 1619.21 1128.57 Q1616.48 1131.59 1616.48 1136.81 L1616.48 1156.96 L1610.59 1156.96 L1610.59 1121.31 L1616.48 1121.31 L1616.48 1126.85 Q1618.58 1123.64 1621.41 1122.05 Q1624.27 1120.45 1628 1120.45 Q1634.14 1120.45 1637.29 1124.27 Q1640.44 1128.06 1640.44 1135.45 Z" fill="#000000" fill-rule="evenodd" fill-opacity="1" /><path clip-path="url(#clip060)" d="M1682.62 1137.67 L1682.62 1140.54 L1655.69 1140.54 Q1656.07 1146.59 1659.32 1149.77 Q1662.6 1152.92 1668.42 1152.92 Q1671.79 1152.92 1674.95 1152.09 Q1678.13 1151.26 1681.25 1149.61 L1681.25 1155.15 Q1678.1 1156.48 1674.79 1157.18 Q1671.48 1157.88 1668.07 1157.88 Q1659.54 1157.88 1654.54 1152.92 Q1649.58 1147.95 1649.58 1139.49 Q1649.58 1130.74 1654.29 1125.61 Q1659.03 1120.45 1667.05 1120.45 Q1674.25 1120.45 1678.42 1125.1 Q1682.62 1129.72 1682.62 1137.67 M1676.76 1135.95 Q1676.7 1131.15 1674.05 1128.28 Q1671.44 1125.42 1667.12 1125.42 Q1662.21 1125.42 1659.25 1128.19 Q1656.33 1130.96 1655.88 1135.99 L1676.76 1135.95 Z" fill="#000000" fill-rule="evenodd" fill-opacity="1" /><path clip-path="url(#clip060)" d="M1708.43 1139.04 Q1701.33 1139.04 1698.59 1140.67 Q1695.86 1142.29 1695.86 1146.2 Q1695.86 1149.32 1697.89 1151.17 Q1699.96 1152.98 1703.5 1152.98 Q1708.37 1152.98 1711.29 1149.55 Q1714.25 1146.08 1714.25 1140.35 L1714.25 1139.04 L1708.43 1139.04 M1720.11 1136.62 L1720.11 1156.96 L1714.25 1156.96 L1714.25 1151.55 Q1712.25 1154.8 1709.26 1156.36 Q1706.27 1157.88 1701.94 1157.88 Q1696.46 1157.88 1693.22 1154.83 Q1690 1151.74 1690 1146.59 Q1690 1140.57 1694.01 1137.51 Q1698.05 1134.46 1706.04 1134.46 L1714.25 1134.46 L1714.25 1133.89 Q1714.25 1129.84 1711.58 1127.65 Q1708.94 1125.42 1704.13 1125.42 Q1701.08 1125.42 1698.18 1126.15 Q1695.28 1126.88 1692.61 1128.35 L1692.61 1122.94 Q1695.83 1121.7 1698.85 1121.09 Q1701.87 1120.45 1704.74 1120.45 Q1712.47 1120.45 1716.29 1124.46 Q1720.11 1128.48 1720.11 1136.62 Z" fill="#000000" fill-rule="evenodd" fill-opacity="1" /><path clip-path="url(#clip060)" d="M1755.63 1138.72 Q1755.63 1132.36 1752.99 1128.86 Q1750.38 1125.36 1745.64 1125.36 Q1740.93 1125.36 1738.28 1128.86 Q1735.67 1132.36 1735.67 1138.72 Q1735.67 1145.06 1738.28 1148.56 Q1740.93 1152.06 1745.64 1152.06 Q1750.38 1152.06 1752.99 1148.56 Q1755.63 1145.06 1755.63 1138.72 M1761.49 1152.54 Q1761.49 1161.64 1757.45 1166.06 Q1753.4 1170.52 1745.06 1170.52 Q1741.98 1170.52 1739.24 1170.04 Q1736.5 1169.6 1733.92 1168.64 L1733.92 1162.95 Q1736.5 1164.35 1739.02 1165.01 Q1741.53 1165.68 1744.14 1165.68 Q1749.9 1165.68 1752.77 1162.66 Q1755.63 1159.67 1755.63 1153.59 L1755.63 1150.69 Q1753.82 1153.84 1750.98 1155.4 Q1748.15 1156.96 1744.2 1156.96 Q1737.65 1156.96 1733.64 1151.96 Q1729.63 1146.97 1729.63 1138.72 Q1729.63 1130.45 1733.64 1125.45 Q1737.65 1120.45 1744.2 1120.45 Q1748.15 1120.45 1750.98 1122.01 Q1753.82 1123.57 1755.63 1126.72 L1755.63 1121.31 L1761.49 1121.31 L1761.49 1152.54 Z" fill="#000000" fill-rule="evenodd" fill-opacity="1" /><path clip-path="url(#clip060)" d="M1804.04 1137.67 L1804.04 1140.54 L1777.12 1140.54 Q1777.5 1146.59 1780.74 1149.77 Q1784.02 1152.92 1789.85 1152.92 Q1793.22 1152.92 1796.37 1152.09 Q1799.55 1151.26 1802.67 1149.61 L1802.67 1155.15 Q1799.52 1156.48 1796.21 1157.18 Q1792.9 1157.88 1789.5 1157.88 Q1780.97 1157.88 1775.97 1152.92 Q1771 1147.95 1771 1139.49 Q1771 1130.74 1775.71 1125.61 Q1780.46 1120.45 1788.48 1120.45 Q1795.67 1120.45 1799.84 1125.1 Q1804.04 1129.72 1804.04 1137.67 M1798.19 1135.95 Q1798.12 1131.15 1795.48 1128.28 Q1792.87 1125.42 1788.54 1125.42 Q1783.64 1125.42 1780.68 1128.19 Q1777.75 1130.96 1777.31 1135.99 L1798.19 1135.95 Z" fill="#000000" fill-rule="evenodd" fill-opacity="1" /><polyline clip-path="url(#clip062)" style="stroke:#000000; stroke-linecap:round; stroke-linejoin:round; stroke-width:2; stroke-opacity:0.1; fill:none" points="
  270.918,1000.1 3089.76,1000.1 
  "/>
<polyline clip-path="url(#clip062)" style="stroke:#000000; stroke-linecap:round; stroke-linejoin:round; stroke-width:2; stroke-opacity:0.1; fill:none" points="
  270.918,665.527 3089.76,665.527 
  "/>
<polyline clip-path="url(#clip062)" style="stroke:#000000; stroke-linecap:round; stroke-linejoin:round; stroke-width:2; stroke-opacity:0.1; fill:none" points="
  270.918,330.955 3089.76,330.955 
  "/>
<polyline clip-path="url(#clip060)" style="stroke:#000000; stroke-linecap:round; stroke-linejoin:round; stroke-width:4; stroke-opacity:1; fill:none" points="
  270.918,1000.1 270.918,110.236 
  "/>
<polyline clip-path="url(#clip060)" style="stroke:#000000; stroke-linecap:round; stroke-linejoin:round; stroke-width:4; stroke-opacity:1; fill:none" points="
  270.918,1000.1 289.815,1000.1 
  "/>
<polyline clip-path="url(#clip060)" style="stroke:#000000; stroke-linecap:round; stroke-linejoin:round; stroke-width:4; stroke-opacity:1; fill:none" points="
  270.918,665.527 289.815,665.527 
  "/>
<polyline clip-path="url(#clip060)" style="stroke:#000000; stroke-linecap:round; stroke-linejoin:round; stroke-width:4; stroke-opacity:1; fill:none" points="
  270.918,330.955 289.815,330.955 
  "/>
<path clip-path="url(#clip060)" d="M154.902 1019.89 L162.54 1019.89 L162.54 993.525 L154.23 995.191 L154.23 990.932 L162.494 989.265 L167.17 989.265 L167.17 1019.89 L174.809 1019.89 L174.809 1023.83 L154.902 1023.83 L154.902 1019.89 Z" fill="#000000" fill-rule="evenodd" fill-opacity="1" /><path clip-path="url(#clip060)" d="M194.253 992.344 Q190.642 992.344 188.813 995.909 Q187.008 999.45 187.008 1006.58 Q187.008 1013.69 188.813 1017.25 Q190.642 1020.79 194.253 1020.79 Q197.887 1020.79 199.693 1017.25 Q201.522 1013.69 201.522 1006.58 Q201.522 999.45 199.693 995.909 Q197.887 992.344 194.253 992.344 M194.253 988.64 Q200.063 988.64 203.119 993.247 Q206.198 997.83 206.198 1006.58 Q206.198 1015.31 203.119 1019.91 Q200.063 1024.5 194.253 1024.5 Q188.443 1024.5 185.364 1019.91 Q182.309 1015.31 182.309 1006.58 Q182.309 997.83 185.364 993.247 Q188.443 988.64 194.253 988.64 Z" fill="#000000" fill-rule="evenodd" fill-opacity="1" /><path clip-path="url(#clip060)" d="M206.743 993.218 L212.95 993.218 L212.95 971.796 L206.198 973.15 L206.198 969.689 L212.912 968.335 L216.711 968.335 L216.711 993.218 L222.918 993.218 L222.918 996.415 L206.743 996.415 L206.743 993.218 Z" fill="#000000" fill-rule="evenodd" fill-opacity="1" /><path clip-path="url(#clip060)" d="M153.792 685.319 L161.431 685.319 L161.431 658.953 L153.121 660.62 L153.121 656.361 L161.384 654.694 L166.06 654.694 L166.06 685.319 L173.699 685.319 L173.699 689.254 L153.792 689.254 L153.792 685.319 Z" fill="#000000" fill-rule="evenodd" fill-opacity="1" /><path clip-path="url(#clip060)" d="M193.143 657.773 Q189.532 657.773 187.704 661.338 Q185.898 664.879 185.898 672.009 Q185.898 679.115 187.704 682.68 Q189.532 686.222 193.143 686.222 Q196.778 686.222 198.583 682.68 Q200.412 679.115 200.412 672.009 Q200.412 664.879 198.583 661.338 Q196.778 657.773 193.143 657.773 M193.143 654.069 Q198.954 654.069 202.009 658.676 Q205.088 663.259 205.088 672.009 Q205.088 680.736 202.009 685.342 Q198.954 689.925 193.143 689.925 Q187.333 689.925 184.255 685.342 Q181.199 680.736 181.199 672.009 Q181.199 663.259 184.255 658.676 Q187.333 654.069 193.143 654.069 Z" fill="#000000" fill-rule="evenodd" fill-opacity="1" /><path clip-path="url(#clip060)" d="M209.658 658.646 L222.918 658.646 L222.918 661.844 L205.088 661.844 L205.088 658.646 Q207.251 656.408 210.975 652.647 Q214.717 648.866 215.677 647.776 Q217.501 645.725 218.216 644.315 Q218.949 642.885 218.949 641.513 Q218.949 639.274 217.369 637.864 Q215.808 636.453 213.288 636.453 Q211.501 636.453 209.508 637.074 Q207.533 637.695 205.276 638.955 L205.276 635.118 Q207.57 634.196 209.564 633.726 Q211.558 633.256 213.213 633.256 Q217.576 633.256 220.172 635.438 Q222.767 637.619 222.767 641.268 Q222.767 642.998 222.109 644.559 Q221.469 646.102 219.758 648.208 Q219.288 648.754 216.767 651.368 Q214.247 653.963 209.658 658.646 Z" fill="#000000" fill-rule="evenodd" fill-opacity="1" /><path clip-path="url(#clip060)" d="M153.134 350.748 L160.772 350.748 L160.772 324.382 L152.462 326.049 L152.462 321.79 L160.726 320.123 L165.402 320.123 L165.402 350.748 L173.041 350.748 L173.041 354.683 L153.134 354.683 L153.134 350.748 Z" fill="#000000" fill-rule="evenodd" fill-opacity="1" /><path clip-path="url(#clip060)" d="M192.485 323.202 Q188.874 323.202 187.045 326.766 Q185.24 330.308 185.24 337.438 Q185.24 344.544 187.045 348.109 Q188.874 351.651 192.485 351.651 Q196.119 351.651 197.925 348.109 Q199.754 344.544 199.754 337.438 Q199.754 330.308 197.925 326.766 Q196.119 323.202 192.485 323.202 M192.485 319.498 Q198.295 319.498 201.351 324.104 Q204.43 328.688 204.43 337.438 Q204.43 346.164 201.351 350.771 Q198.295 355.354 192.485 355.354 Q186.675 355.354 183.596 350.771 Q180.541 346.164 180.541 337.438 Q180.541 328.688 183.596 324.104 Q186.675 319.498 192.485 319.498 Z" fill="#000000" fill-rule="evenodd" fill-opacity="1" /><path clip-path="url(#clip060)" d="M217.125 312.132 Q219.852 312.715 221.375 314.558 Q222.918 316.402 222.918 319.11 Q222.918 323.266 220.059 325.542 Q217.2 327.818 211.934 327.818 Q210.166 327.818 208.285 327.461 Q206.423 327.122 204.43 326.426 L204.43 322.759 Q206.009 323.68 207.89 324.15 Q209.771 324.621 211.821 324.621 Q215.395 324.621 217.256 323.21 Q219.137 321.799 219.137 319.11 Q219.137 316.627 217.388 315.236 Q215.658 313.825 212.555 313.825 L209.282 313.825 L209.282 310.703 L212.705 310.703 Q215.507 310.703 216.993 309.593 Q218.479 308.465 218.479 306.358 Q218.479 304.195 216.937 303.048 Q215.413 301.882 212.555 301.882 Q210.994 301.882 209.207 302.221 Q207.42 302.559 205.276 303.274 L205.276 299.888 Q207.439 299.287 209.32 298.986 Q211.219 298.685 212.893 298.685 Q217.219 298.685 219.739 300.66 Q222.259 302.616 222.259 305.963 Q222.259 308.295 220.924 309.913 Q219.589 311.512 217.125 312.132 Z" fill="#000000" fill-rule="evenodd" fill-opacity="1" /><path clip-path="url(#clip060)" d="M42.6863 908.145 L42.6863 878.099 L48.0971 878.099 L48.0971 901.716 L62.1653 901.716 L62.1653 879.086 L67.5762 879.086 L67.5762 901.716 L84.7954 901.716 L84.7954 877.526 L90.2063 877.526 L90.2063 908.145 L42.6863 908.145 Z" fill="#000000" fill-rule="evenodd" fill-opacity="1" /><path clip-path="url(#clip060)" d="M44.2459 838.473 L50.5161 838.473 Q48.7655 842.133 47.9062 845.38 Q47.0468 848.626 47.0468 851.65 Q47.0468 856.901 49.0838 859.766 Q51.1208 862.599 54.8766 862.599 Q58.0276 862.599 59.6509 860.721 Q61.2423 858.811 62.229 853.528 L63.0247 849.645 Q64.3933 842.451 67.8627 839.046 Q71.3001 835.608 77.0929 835.608 Q83.9997 835.608 87.5645 840.255 Q91.1293 844.87 91.1293 853.814 Q91.1293 857.188 90.3654 861.007 Q89.6015 864.795 88.1056 868.869 L81.4853 868.869 Q83.6814 864.954 84.7954 861.198 Q85.9094 857.443 85.9094 853.814 Q85.9094 848.308 83.7451 845.316 Q81.5808 842.324 77.5704 842.324 Q74.0692 842.324 72.0958 844.488 Q70.1225 846.621 69.1358 851.522 L68.3719 855.437 Q66.9396 862.631 63.8841 865.845 Q60.8285 869.06 55.3859 869.06 Q49.0838 869.06 45.4554 864.636 Q41.8269 860.18 41.8269 852.382 Q41.8269 849.04 42.4317 845.571 Q43.0364 842.101 44.2459 838.473 Z" fill="#000000" fill-rule="evenodd" fill-opacity="1" /><path clip-path="url(#clip060)" d="M44.2459 797.096 L50.5161 797.096 Q48.7655 800.756 47.9062 804.002 Q47.0468 807.249 47.0468 810.273 Q47.0468 815.524 49.0838 818.389 Q51.1208 821.222 54.8766 821.222 Q58.0276 821.222 59.6509 819.344 Q61.2423 817.434 62.229 812.151 L63.0247 808.267 Q64.3933 801.074 67.8627 797.669 Q71.3001 794.231 77.0929 794.231 Q83.9997 794.231 87.5645 798.878 Q91.1293 803.493 91.1293 812.437 Q91.1293 815.811 90.3654 819.63 Q89.6015 823.418 88.1056 827.492 L81.4853 827.492 Q83.6814 823.577 84.7954 819.821 Q85.9094 816.065 85.9094 812.437 Q85.9094 806.931 83.7451 803.939 Q81.5808 800.947 77.5704 800.947 Q74.0692 800.947 72.0958 803.111 Q70.1225 805.244 69.1358 810.145 L68.3719 814.06 Q66.9396 821.254 63.8841 824.468 Q60.8285 827.683 55.3859 827.683 Q49.0838 827.683 45.4554 823.259 Q41.8269 818.803 41.8269 811.005 Q41.8269 807.663 42.4317 804.193 Q43.0364 800.724 44.2459 797.096 Z" fill="#000000" fill-rule="evenodd" fill-opacity="1" /><path clip-path="url(#clip060)" d="M82.1218 782.964 L82.1218 776.248 L90.2063 776.248 L90.2063 782.964 L82.1218 782.964 M56.4999 782.964 L56.4999 776.248 L64.5843 776.248 L64.5843 782.964 L56.4999 782.964 Z" fill="#000000" fill-rule="evenodd" fill-opacity="1" /><path clip-path="url(#clip060)" d="M47.9698 735.094 L84.9227 735.094 L84.9227 727.328 Q84.9227 717.492 80.4668 712.941 Q76.0108 708.358 66.3985 708.358 Q56.85 708.358 52.4258 712.941 Q47.9698 717.492 47.9698 727.328 L47.9698 735.094 M42.6863 741.523 L42.6863 728.314 Q42.6863 714.501 48.4472 708.039 Q54.1764 701.578 66.3985 701.578 Q78.6844 701.578 84.4453 708.071 Q90.2063 714.564 90.2063 728.314 L90.2063 741.523 L42.6863 741.523 Z" fill="#000000" fill-rule="evenodd" fill-opacity="1" /><path clip-path="url(#clip060)" d="M70.9182 661.092 L73.7828 661.092 L73.7828 688.019 Q79.8302 687.637 83.013 684.391 Q86.1641 681.112 86.1641 675.288 Q86.1641 671.914 85.3365 668.763 Q84.509 665.58 82.8539 662.461 L88.3921 662.461 Q89.7289 665.612 90.4291 668.922 Q91.1293 672.232 91.1293 675.638 Q91.1293 684.168 86.1641 689.165 Q81.1988 694.13 72.7324 694.13 Q63.9796 694.13 58.8552 689.42 Q53.699 684.677 53.699 676.656 Q53.699 669.463 58.3459 665.294 Q62.9611 661.092 70.9182 661.092 M69.1995 666.949 Q64.3933 667.012 61.5288 669.654 Q58.6642 672.264 58.6642 676.593 Q58.6642 681.494 61.4333 684.454 Q64.2024 687.383 69.2313 687.828 L69.1995 666.949 Z" fill="#000000" fill-rule="evenodd" fill-opacity="1" /><path clip-path="url(#clip060)" d="M68.6902 621.848 L90.2063 621.848 L90.2063 627.704 L68.8812 627.704 Q63.8204 627.704 61.306 629.678 Q58.7915 631.651 58.7915 635.598 Q58.7915 640.34 61.8152 643.077 Q64.8389 645.815 70.0588 645.815 L90.2063 645.815 L90.2063 651.703 L54.5583 651.703 L54.5583 645.815 L60.0965 645.815 Q56.8818 643.714 55.2904 640.881 Q53.699 638.017 53.699 634.293 Q53.699 628.15 57.5184 624.999 Q61.306 621.848 68.6902 621.848 Z" fill="#000000" fill-rule="evenodd" fill-opacity="1" /><path clip-path="url(#clip060)" d="M61.4015 582.412 Q57.4547 580.216 55.5768 577.16 Q53.699 574.105 53.699 569.967 Q53.699 564.397 57.6139 561.374 Q61.4969 558.35 68.6902 558.35 L90.2063 558.35 L90.2063 564.238 L68.8812 564.238 Q63.7568 564.238 61.2741 566.052 Q58.7915 567.867 58.7915 571.59 Q58.7915 576.142 61.8152 578.784 Q64.8389 581.426 70.0588 581.426 L90.2063 581.426 L90.2063 587.314 L68.8812 587.314 Q63.7249 587.314 61.2741 589.128 Q58.7915 590.942 58.7915 594.73 Q58.7915 599.218 61.8471 601.859 Q64.8708 604.501 70.0588 604.501 L90.2063 604.501 L90.2063 610.389 L54.5583 610.389 L54.5583 604.501 L60.0965 604.501 Q56.8182 602.496 55.2586 599.695 Q53.699 596.894 53.699 593.043 Q53.699 589.16 55.6723 586.454 Q57.6457 583.717 61.4015 582.412 Z" fill="#000000" fill-rule="evenodd" fill-opacity="1" /><path clip-path="url(#clip060)" d="M72.2868 530.468 Q72.2868 537.566 73.9101 540.303 Q75.5333 543.04 79.4482 543.04 Q82.5674 543.04 84.4135 541.003 Q86.2277 538.934 86.2277 535.401 Q86.2277 530.532 82.7902 527.603 Q79.3209 524.643 73.5918 524.643 L72.2868 524.643 L72.2868 530.468 M69.8679 518.787 L90.2063 518.787 L90.2063 524.643 L84.7954 524.643 Q88.0419 526.649 89.6015 529.64 Q91.1293 532.632 91.1293 536.961 Q91.1293 542.436 88.0738 545.682 Q84.9864 548.897 79.8302 548.897 Q73.8146 548.897 70.759 544.886 Q67.7035 540.844 67.7035 532.855 L67.7035 524.643 L67.1306 524.643 Q63.0884 524.643 60.8922 527.317 Q58.6642 529.959 58.6642 534.765 Q58.6642 537.82 59.3963 540.717 Q60.1283 543.613 61.5924 546.287 L56.1816 546.287 Q54.9403 543.072 54.3355 540.048 Q53.699 537.025 53.699 534.16 Q53.699 526.426 57.7094 522.606 Q61.7197 518.787 69.8679 518.787 Z" fill="#000000" fill-rule="evenodd" fill-opacity="1" /><path clip-path="url(#clip060)" d="M60.0328 486.067 Q59.4599 487.054 59.2053 488.232 Q58.9188 489.377 58.9188 490.778 Q58.9188 495.743 62.1653 498.417 Q65.38 501.058 71.4274 501.058 L90.2063 501.058 L90.2063 506.947 L54.5583 506.947 L54.5583 501.058 L60.0965 501.058 Q56.85 499.212 55.2904 496.252 Q53.699 493.292 53.699 489.059 Q53.699 488.454 53.7944 487.722 Q53.8581 486.99 54.0172 486.099 L60.0328 486.067 Z" fill="#000000" fill-rule="evenodd" fill-opacity="1" /><path clip-path="url(#clip060)" d="M40.6811 480.147 L40.6811 474.259 L69.9315 474.259 L54.5583 456.785 L54.5583 449.305 L71.2365 468.211 L90.2063 448.51 L90.2063 456.148 L72.7961 474.259 L90.2063 474.259 L90.2063 480.147 L40.6811 480.147 Z" fill="#000000" fill-rule="evenodd" fill-opacity="1" /><path clip-path="url(#clip060)" d="M82.1218 440.68 L82.1218 433.964 L87.5963 433.964 L97.7815 439.184 L97.7815 443.29 L87.5963 440.68 L82.1218 440.68 Z" fill="#000000" fill-rule="evenodd" fill-opacity="1" /><path clip-path="url(#clip060)" d="M44.4369 394.942 L54.5583 394.942 L54.5583 382.879 L59.1098 382.879 L59.1098 394.942 L78.4616 394.942 Q82.8221 394.942 84.0634 393.764 Q85.3047 392.555 85.3047 388.895 L85.3047 382.879 L90.2063 382.879 L90.2063 388.895 Q90.2063 395.674 87.6918 398.252 Q85.1455 400.83 78.4616 400.83 L59.1098 400.83 L59.1098 405.127 L54.5583 405.127 L54.5583 400.83 L44.4369 400.83 L44.4369 394.942 Z" fill="#000000" fill-rule="evenodd" fill-opacity="1" /><path clip-path="url(#clip060)" d="M54.5583 375.177 L54.5583 369.32 L90.2063 369.32 L90.2063 375.177 L54.5583 375.177 M40.6811 375.177 L40.6811 369.32 L48.0971 369.32 L48.0971 375.177 L40.6811 375.177 Z" fill="#000000" fill-rule="evenodd" fill-opacity="1" /><path clip-path="url(#clip060)" d="M61.4015 329.312 Q57.4547 327.116 55.5768 324.06 Q53.699 321.004 53.699 316.867 Q53.699 311.297 57.6139 308.273 Q61.4969 305.249 68.6902 305.249 L90.2063 305.249 L90.2063 311.138 L68.8812 311.138 Q63.7568 311.138 61.2741 312.952 Q58.7915 314.766 58.7915 318.49 Q58.7915 323.041 61.8152 325.683 Q64.8389 328.325 70.0588 328.325 L90.2063 328.325 L90.2063 334.213 L68.8812 334.213 Q63.7249 334.213 61.2741 336.028 Q58.7915 337.842 58.7915 341.629 Q58.7915 346.117 61.8471 348.759 Q64.8708 351.401 70.0588 351.401 L90.2063 351.401 L90.2063 357.289 L54.5583 357.289 L54.5583 351.401 L60.0965 351.401 Q56.8182 349.396 55.2586 346.595 Q53.699 343.794 53.699 339.942 Q53.699 336.059 55.6723 333.354 Q57.6457 330.617 61.4015 329.312 Z" fill="#000000" fill-rule="evenodd" fill-opacity="1" /><path clip-path="url(#clip060)" d="M70.9182 263.077 L73.7828 263.077 L73.7828 290.003 Q79.8302 289.622 83.013 286.375 Q86.1641 283.097 86.1641 277.272 Q86.1641 273.898 85.3365 270.747 Q84.509 267.564 82.8539 264.445 L88.3921 264.445 Q89.7289 267.596 90.4291 270.906 Q91.1293 274.217 91.1293 277.622 Q91.1293 286.152 86.1641 291.149 Q81.1988 296.115 72.7324 296.115 Q63.9796 296.115 58.8552 291.404 Q53.699 286.661 53.699 278.641 Q53.699 271.447 58.3459 267.278 Q62.9611 263.077 70.9182 263.077 M69.1995 268.933 Q64.3933 268.997 61.5288 271.638 Q58.6642 274.248 58.6642 278.577 Q58.6642 283.479 61.4333 286.439 Q64.2024 289.367 69.2313 289.812 L69.1995 268.933 Z" fill="#000000" fill-rule="evenodd" fill-opacity="1" /><path clip-path="url(#clip060)" d="M82.1218 251.968 L82.1218 245.253 L90.2063 245.253 L90.2063 251.968 L82.1218 251.968 M56.4999 251.968 L56.4999 245.253 L64.5843 245.253 L64.5843 251.968 L56.4999 251.968 Z" fill="#000000" fill-rule="evenodd" fill-opacity="1" /><path clip-path="url(#clip060)" d="M84.7954 229.561 L84.7954 219.058 L48.5427 219.058 L50.8344 230.484 L44.9779 230.484 L42.6863 219.121 L42.6863 212.692 L84.7954 212.692 L84.7954 202.189 L90.2063 202.189 L90.2063 229.561 L84.7954 229.561 Z" fill="#000000" fill-rule="evenodd" fill-opacity="1" /><polyline clip-path="url(#clip062)" style="stroke:#009af9; stroke-linecap:round; stroke-linejoin:round; stroke-width:4; stroke-opacity:1; fill:none" points="
  350.696,371.583 361.004,212.341 371.311,180.196 381.618,136.519 391.926,148.222 402.233,156.173 412.54,164.557 422.848,157.544 433.155,118.776 443.462,133.295 
  453.77,176.178 464.077,132.071 474.384,209.462 484.691,198.606 494.999,162.452 505.306,167.633 515.613,131.362 525.921,116.59 536.228,150.072 546.535,120.56 
  556.843,168.255 567.15,163.936 577.457,176.339 587.765,143.123 598.072,193.046 608.379,193.45 618.687,129.026 628.994,218.739 639.301,186.365 649.609,176.523 
  659.916,174.16 670.223,176.81 680.531,204.316 690.838,159.138 701.145,167.388 711.453,168.54 721.76,134.376 732.067,195.863 742.374,187.103 752.682,147.602 
  762.989,163.427 773.296,159.729 783.604,178.197 793.911,209.228 804.218,133.762 814.526,167.13 824.833,157.254 835.14,181.645 845.448,171.607 855.755,193.388 
  866.062,247.49 876.37,177.56 886.677,193.137 896.984,162.354 907.292,159.166 917.599,154.263 927.906,151.754 938.214,129.626 948.521,171.768 958.828,132.63 
  969.136,164.904 979.443,234.1 989.75,207.374 1000.06,177.233 1010.36,170.67 1020.67,129.211 1030.98,151.425 1041.29,149.192 1051.59,141.345 1061.9,152.065 
  1072.21,176.614 1082.52,199.113 1092.82,130.335 1103.13,164.966 1113.44,197.148 1123.75,140.871 1134.05,157.065 1144.36,161.235 1154.67,155.3 1164.97,164.886 
  1175.28,213.32 1185.59,192.912 1195.9,162.834 1206.2,171.069 1216.51,118.238 1226.82,147.85 1237.13,123.925 1247.43,204.62 1257.74,171.14 1268.05,167.966 
  1278.36,136.496 1288.66,110.835 1298.97,133.896 1309.28,184.171 1319.58,188.813 1329.89,143.753 1340.2,148.047 1350.51,179.291 1360.81,155.956 1371.12,144.157 
  1381.43,149.151 1391.74,175.697 1402.04,161.924 1412.35,175.298 1422.66,161.395 1432.97,201.74 1443.27,181.546 1453.58,183.523 1463.89,189.5 1474.19,124.597 
  1484.5,148.103 1494.81,209.213 1505.12,160.831 1515.42,177.647 1525.73,129.823 1536.04,211.219 1546.35,116.103 1556.65,147.99 1566.96,172.812 1577.27,222.94 
  1587.57,166.541 1597.88,178.681 1608.19,138.874 1618.5,225.065 1628.8,223.996 1639.11,146.789 1649.42,187.387 1659.73,142.429 1670.03,134.672 1680.34,138.932 
  1690.65,159.505 1700.96,154.13 1711.26,145.429 1721.57,195.975 1731.88,193.725 1742.18,168.171 1752.49,110.236 1762.8,156.999 1773.11,147.764 1783.41,200.503 
  1793.72,151.945 1804.03,180.562 1814.34,167.493 1824.64,187.591 1834.95,152.097 1845.26,168.049 1855.57,185.098 1865.87,144.314 1876.18,160.111 1886.49,171.365 
  1896.79,214.972 1907.1,118.851 1917.41,192.953 1927.72,121.863 1938.02,210.178 1948.33,207.561 1958.64,200.823 1968.95,220.927 1979.25,177.069 1989.56,186.742 
  1999.87,200.675 2010.17,219.154 2020.48,153.297 2030.79,184.571 2041.1,139.571 2051.4,191.074 2061.71,155.768 2072.02,141.903 2082.33,155.635 2092.63,168.26 
  2102.94,156.419 2113.25,132.723 2123.56,161.531 2133.86,176.878 2144.17,189.041 2154.48,181.72 2164.78,164.885 2175.09,153.769 2185.4,192.084 2195.71,216.69 
  2206.01,218.97 2216.32,140.422 2226.63,161.562 2236.94,282.807 2247.24,231.74 2257.55,178.553 2267.86,165.547 2278.17,127.07 2288.47,163.396 2298.78,176.976 
  2309.09,209.623 2319.39,218.926 2329.7,210.138 2340.01,199.196 2350.32,204.716 2360.62,201.921 2370.93,228.989 2381.24,140.234 2391.55,235.129 2401.85,154.859 
  2412.16,153.972 2422.47,194.736 2432.78,226.723 2443.08,216.604 2453.39,244.636 2463.7,144.799 2474,225.23 2484.31,156.767 2494.62,151.964 2504.93,185.007 
  2515.23,201.952 2525.54,168.473 2535.85,172.236 2546.16,126.02 2556.46,237.539 2566.77,202.481 2577.08,210.793 2587.38,219.243 2597.69,164.074 2608,215.976 
  2618.31,210.4 2628.61,120.541 2638.92,235.624 2649.23,212.049 2659.54,204.391 2669.84,164.121 2680.15,205.228 2690.46,186.614 2700.77,192.744 2711.07,204.967 
  2721.38,189.909 2731.69,268.365 2741.99,170.553 2752.3,218.68 2762.61,202.236 2772.92,179.864 2783.22,207.43 2793.53,137.733 2803.84,207.883 2814.15,214.918 
  2824.45,186.628 2834.76,186.564 2845.07,183.464 2855.38,132.212 2865.68,218.986 2875.99,177.638 2886.3,156.498 2896.6,190.05 2906.91,157.026 2917.22,147.404 
  2927.53,234.492 2937.83,214.961 2948.14,153.307 2958.45,210.178 2968.76,186.578 2979.06,195.746 2989.37,190.614 2999.68,214.776 3009.99,181.388 
  "/>
</svg>
