<?xml version="1.0" encoding="utf-8"?>
<svg xmlns="http://www.w3.org/2000/svg" xmlns:xlink="http://www.w3.org/1999/xlink" width="800" height="300" viewBox="0 0 3200 1200">
<defs>
  <clipPath id="clip370">
    <rect x="0" y="0" width="3200" height="1200"/>
  </clipPath>
</defs>
<path clip-path="url(#clip370)" d="M0 1200 L3200 1200 L3200 0 L0 0  Z" fill="#ffffff" fill-rule="evenodd" fill-opacity="1"/>
<defs>
  <clipPath id="clip371">
    <rect x="640" y="0" width="2241" height="1200"/>
  </clipPath>
</defs>
<path clip-path="url(#clip370)" d="M270.918 1000.1 L3089.76 1000.1 L3089.76 110.236 L270.918 110.236  Z" fill="#ffffff" fill-rule="evenodd" fill-opacity="1"/>
<defs>
  <clipPath id="clip372">
    <rect x="270" y="110" width="2820" height="891"/>
  </clipPath>
</defs>
<polyline clip-path="url(#clip372)" style="stroke:#000000; stroke-linecap:round; stroke-linejoin:round; stroke-width:2; stroke-opacity:0.1; fill:none" points="333.971,1000.1 333.971,110.236 "/>
<polyline clip-path="url(#clip372)" style="stroke:#000000; stroke-linecap:round; stroke-linejoin:round; stroke-width:2; stroke-opacity:0.1; fill:none" points="1170.23,1000.1 1170.23,110.236 "/>
<polyline clip-path="url(#clip372)" style="stroke:#000000; stroke-linecap:round; stroke-linejoin:round; stroke-width:2; stroke-opacity:0.1; fill:none" points="2006.48,1000.1 2006.48,110.236 "/>
<polyline clip-path="url(#clip372)" style="stroke:#000000; stroke-linecap:round; stroke-linejoin:round; stroke-width:2; stroke-opacity:0.1; fill:none" points="2842.73,1000.1 2842.73,110.236 "/>
<polyline clip-path="url(#clip370)" style="stroke:#000000; stroke-linecap:round; stroke-linejoin:round; stroke-width:4; stroke-opacity:1; fill:none" points="270.918,1000.1 3089.76,1000.1 "/>
<polyline clip-path="url(#clip370)" style="stroke:#000000; stroke-linecap:round; stroke-linejoin:round; stroke-width:4; stroke-opacity:1; fill:none" points="333.971,1000.1 333.971,981.2 "/>
<polyline clip-path="url(#clip370)" style="stroke:#000000; stroke-linecap:round; stroke-linejoin:round; stroke-width:4; stroke-opacity:1; fill:none" points="1170.23,1000.1 1170.23,981.2 "/>
<polyline clip-path="url(#clip370)" style="stroke:#000000; stroke-linecap:round; stroke-linejoin:round; stroke-width:4; stroke-opacity:1; fill:none" points="2006.48,1000.1 2006.48,981.2 "/>
<polyline clip-path="url(#clip370)" style="stroke:#000000; stroke-linecap:round; stroke-linejoin:round; stroke-width:4; stroke-opacity:1; fill:none" points="2842.73,1000.1 2842.73,981.2 "/>
<path clip-path="url(#clip370)" d="M333.971 1037.42 Q330.36 1037.42 328.531 1040.98 Q326.726 1044.52 326.726 1051.65 Q326.726 1058.76 328.531 1062.32 Q330.36 1065.87 333.971 1065.87 Q337.605 1065.87 339.411 1062.32 Q341.24 1058.76 341.24 1051.65 Q341.24 1044.52 339.411 1040.98 Q337.605 1037.42 333.971 1037.42 M333.971 1033.71 Q339.781 1033.71 342.837 1038.32 Q345.916 1042.9 345.916 1051.65 Q345.916 1060.38 342.837 1064.99 Q339.781 1069.57 333.971 1069.57 Q328.161 1069.57 325.082 1064.99 Q322.027 1060.38 322.027 1051.65 Q322.027 1042.9 325.082 1038.32 Q328.161 1033.71 333.971 1033.71 Z" fill="#000000" fill-rule="nonzero" fill-opacity="1" /><path clip-path="url(#clip370)" d="M1144.92 1034.34 L1163.28 1034.34 L1163.28 1038.27 L1149.21 1038.27 L1149.21 1046.75 Q1150.23 1046.4 1151.24 1046.24 Q1152.26 1046.05 1153.28 1046.05 Q1159.07 1046.05 1162.45 1049.22 Q1165.83 1052.39 1165.83 1057.81 Q1165.83 1063.39 1162.36 1066.49 Q1158.88 1069.57 1152.56 1069.57 Q1150.39 1069.57 1148.12 1069.2 Q1145.87 1068.83 1143.47 1068.09 L1143.47 1063.39 Q1145.55 1064.52 1147.77 1065.08 Q1149.99 1065.63 1152.47 1065.63 Q1156.48 1065.63 1158.81 1063.53 Q1161.15 1061.42 1161.15 1057.81 Q1161.15 1054.2 1158.81 1052.09 Q1156.48 1049.99 1152.47 1049.99 Q1150.6 1049.99 1148.72 1050.4 Q1146.87 1050.82 1144.92 1051.7 L1144.92 1034.34 Z" fill="#000000" fill-rule="nonzero" fill-opacity="1" /><path clip-path="url(#clip370)" d="M1185.04 1037.42 Q1181.43 1037.42 1179.6 1040.98 Q1177.79 1044.52 1177.79 1051.65 Q1177.79 1058.76 1179.6 1062.32 Q1181.43 1065.87 1185.04 1065.87 Q1188.67 1065.87 1190.48 1062.32 Q1192.31 1058.76 1192.31 1051.65 Q1192.31 1044.52 1190.48 1040.98 Q1188.67 1037.42 1185.04 1037.42 M1185.04 1033.71 Q1190.85 1033.71 1193.91 1038.32 Q1196.98 1042.9 1196.98 1051.65 Q1196.98 1060.38 1193.91 1064.99 Q1190.85 1069.57 1185.04 1069.57 Q1179.23 1069.57 1176.15 1064.99 Q1173.1 1060.38 1173.1 1051.65 Q1173.1 1042.9 1176.15 1038.32 Q1179.23 1033.71 1185.04 1033.71 Z" fill="#000000" fill-rule="nonzero" fill-opacity="1" /><path clip-path="url(#clip370)" d="M1966.09 1064.96 L1973.73 1064.96 L1973.73 1038.6 L1965.42 1040.26 L1965.42 1036 L1973.68 1034.34 L1978.36 1034.34 L1978.36 1064.96 L1985.99 1064.96 L1985.99 1068.9 L1966.09 1068.9 L1966.09 1064.96 Z" fill="#000000" fill-rule="nonzero" fill-opacity="1" /><path clip-path="url(#clip370)" d="M2005.44 1037.42 Q2001.83 1037.42 2000 1040.98 Q1998.19 1044.52 1998.19 1051.65 Q1998.19 1058.76 2000 1062.32 Q2001.83 1065.87 2005.44 1065.87 Q2009.07 1065.87 2010.88 1062.32 Q2012.71 1058.76 2012.71 1051.65 Q2012.71 1044.52 2010.88 1040.98 Q2009.07 1037.42 2005.44 1037.42 M2005.44 1033.71 Q2011.25 1033.71 2014.3 1038.32 Q2017.38 1042.9 2017.38 1051.65 Q2017.38 1060.38 2014.3 1064.99 Q2011.25 1069.57 2005.44 1069.57 Q1999.63 1069.57 1996.55 1064.99 Q1993.49 1060.38 1993.49 1051.65 Q1993.49 1042.9 1996.55 1038.32 Q1999.63 1033.71 2005.44 1033.71 Z" fill="#000000" fill-rule="nonzero" fill-opacity="1" /><path clip-path="url(#clip370)" d="M2035.6 1037.42 Q2031.99 1037.42 2030.16 1040.98 Q2028.35 1044.52 2028.35 1051.65 Q2028.35 1058.76 2030.16 1062.32 Q2031.99 1065.87 2035.6 1065.87 Q2039.23 1065.87 2041.04 1062.32 Q2042.87 1058.76 2042.87 1051.65 Q2042.87 1044.52 2041.04 1040.98 Q2039.23 1037.42 2035.6 1037.42 M2035.6 1033.71 Q2041.41 1033.71 2044.47 1038.32 Q2047.54 1042.9 2047.54 1051.65 Q2047.54 1060.38 2044.47 1064.99 Q2041.41 1069.57 2035.6 1069.57 Q2029.79 1069.57 2026.71 1064.99 Q2023.66 1060.38 2023.66 1051.65 Q2023.66 1042.9 2026.71 1038.32 Q2029.79 1033.71 2035.6 1033.71 Z" fill="#000000" fill-rule="nonzero" fill-opacity="1" /><path clip-path="url(#clip370)" d="M2802.34 1064.96 L2809.98 1064.96 L2809.98 1038.6 L2801.67 1040.26 L2801.67 1036 L2809.93 1034.34 L2814.61 1034.34 L2814.61 1064.96 L2822.25 1064.96 L2822.25 1068.9 L2802.34 1068.9 L2802.34 1064.96 Z" fill="#000000" fill-rule="nonzero" fill-opacity="1" /><path clip-path="url(#clip370)" d="M2831.74 1034.34 L2850.1 1034.34 L2850.1 1038.27 L2836.02 1038.27 L2836.02 1046.75 Q2837.04 1046.4 2838.06 1046.24 Q2839.08 1046.05 2840.1 1046.05 Q2845.88 1046.05 2849.26 1049.22 Q2852.64 1052.39 2852.64 1057.81 Q2852.64 1063.39 2849.17 1066.49 Q2845.7 1069.57 2839.38 1069.57 Q2837.2 1069.57 2834.93 1069.2 Q2832.69 1068.83 2830.28 1068.09 L2830.28 1063.39 Q2832.36 1064.52 2834.59 1065.08 Q2836.81 1065.63 2839.29 1065.63 Q2843.29 1065.63 2845.63 1063.53 Q2847.97 1061.42 2847.97 1057.81 Q2847.97 1054.2 2845.63 1052.09 Q2843.29 1049.99 2839.29 1049.99 Q2837.41 1049.99 2835.54 1050.4 Q2833.68 1050.82 2831.74 1051.7 L2831.74 1034.34 Z" fill="#000000" fill-rule="nonzero" fill-opacity="1" /><path clip-path="url(#clip370)" d="M2871.85 1037.42 Q2868.24 1037.42 2866.41 1040.98 Q2864.61 1044.52 2864.61 1051.65 Q2864.61 1058.76 2866.41 1062.32 Q2868.24 1065.87 2871.85 1065.87 Q2875.49 1065.87 2877.29 1062.32 Q2879.12 1058.76 2879.12 1051.65 Q2879.12 1044.52 2877.29 1040.98 Q2875.49 1037.42 2871.85 1037.42 M2871.85 1033.71 Q2877.66 1033.71 2880.72 1038.32 Q2883.8 1042.9 2883.8 1051.65 Q2883.8 1060.38 2880.72 1064.99 Q2877.66 1069.57 2871.85 1069.57 Q2866.04 1069.57 2862.97 1064.99 Q2859.91 1060.38 2859.91 1051.65 Q2859.91 1042.9 2862.97 1038.32 Q2866.04 1033.71 2871.85 1033.71 Z" fill="#000000" fill-rule="nonzero" fill-opacity="1" /><path clip-path="url(#clip370)" d="M1556.64 1109.44 L1563.07 1109.44 L1563.07 1151.55 L1586.21 1151.55 L1586.21 1156.96 L1556.64 1156.96 L1556.64 1109.44 Z" fill="#000000" fill-rule="nonzero" fill-opacity="1" /><path clip-path="url(#clip370)" d="M1592.7 1121.31 L1598.56 1121.31 L1598.56 1156.96 L1592.7 1156.96 L1592.7 1121.31 M1592.7 1107.44 L1598.56 1107.44 L1598.56 1114.85 L1592.7 1114.85 L1592.7 1107.44 Z" fill="#000000" fill-rule="nonzero" fill-opacity="1" /><path clip-path="url(#clip370)" d="M1640.44 1135.45 L1640.44 1156.96 L1634.59 1156.96 L1634.59 1135.64 Q1634.59 1130.58 1632.61 1128.06 Q1630.64 1125.55 1626.69 1125.55 Q1621.95 1125.55 1619.21 1128.57 Q1616.48 1131.59 1616.48 1136.81 L1616.48 1156.96 L1610.59 1156.96 L1610.59 1121.31 L1616.48 1121.31 L1616.48 1126.85 Q1618.58 1123.64 1621.41 1122.05 Q1624.27 1120.45 1628 1120.45 Q1634.14 1120.45 1637.29 1124.27 Q1640.44 1128.06 1640.44 1135.45 Z" fill="#000000" fill-rule="nonzero" fill-opacity="1" /><path clip-path="url(#clip370)" d="M1682.62 1137.67 L1682.62 1140.54 L1655.69 1140.54 Q1656.07 1146.59 1659.32 1149.77 Q1662.6 1152.92 1668.42 1152.92 Q1671.79 1152.92 1674.95 1152.09 Q1678.13 1151.26 1681.25 1149.61 L1681.25 1155.15 Q1678.1 1156.48 1674.79 1157.18 Q1671.48 1157.88 1668.07 1157.88 Q1659.54 1157.88 1654.54 1152.92 Q1649.58 1147.95 1649.58 1139.49 Q1649.58 1130.74 1654.29 1125.61 Q1659.03 1120.45 1667.05 1120.45 Q1674.25 1120.45 1678.42 1125.1 Q1682.62 1129.72 1682.62 1137.67 M1676.76 1135.95 Q1676.7 1131.15 1674.05 1128.28 Q1671.44 1125.42 1667.12 1125.42 Q1662.21 1125.42 1659.25 1128.19 Q1656.33 1130.96 1655.88 1135.99 L1676.76 1135.95 Z" fill="#000000" fill-rule="nonzero" fill-opacity="1" /><path clip-path="url(#clip370)" d="M1708.43 1139.04 Q1701.33 1139.04 1698.59 1140.67 Q1695.86 1142.29 1695.86 1146.2 Q1695.86 1149.32 1697.89 1151.17 Q1699.96 1152.98 1703.5 1152.98 Q1708.37 1152.98 1711.29 1149.55 Q1714.25 1146.08 1714.25 1140.35 L1714.25 1139.04 L1708.43 1139.04 M1720.11 1136.62 L1720.11 1156.96 L1714.25 1156.96 L1714.25 1151.55 Q1712.25 1154.8 1709.26 1156.36 Q1706.27 1157.88 1701.94 1157.88 Q1696.46 1157.88 1693.22 1154.83 Q1690 1151.74 1690 1146.59 Q1690 1140.57 1694.01 1137.51 Q1698.05 1134.46 1706.04 1134.46 L1714.25 1134.46 L1714.25 1133.89 Q1714.25 1129.84 1711.58 1127.65 Q1708.94 1125.42 1704.13 1125.42 Q1701.08 1125.42 1698.18 1126.15 Q1695.28 1126.88 1692.61 1128.35 L1692.61 1122.94 Q1695.83 1121.7 1698.85 1121.09 Q1701.87 1120.45 1704.74 1120.45 Q1712.47 1120.45 1716.29 1124.46 Q1720.11 1128.48 1720.11 1136.62 Z" fill="#000000" fill-rule="nonzero" fill-opacity="1" /><path clip-path="url(#clip370)" d="M1755.63 1138.72 Q1755.63 1132.36 1752.99 1128.86 Q1750.38 1125.36 1745.64 1125.36 Q1740.93 1125.36 1738.28 1128.86 Q1735.67 1132.36 1735.67 1138.72 Q1735.67 1145.06 1738.28 1148.56 Q1740.93 1152.06 1745.64 1152.06 Q1750.38 1152.06 1752.99 1148.56 Q1755.63 1145.06 1755.63 1138.72 M1761.49 1152.54 Q1761.49 1161.64 1757.45 1166.06 Q1753.4 1170.52 1745.06 1170.52 Q1741.98 1170.52 1739.24 1170.04 Q1736.5 1169.6 1733.92 1168.64 L1733.92 1162.95 Q1736.5 1164.35 1739.02 1165.01 Q1741.53 1165.68 1744.14 1165.68 Q1749.9 1165.68 1752.77 1162.66 Q1755.63 1159.67 1755.63 1153.59 L1755.63 1150.69 Q1753.82 1153.84 1750.98 1155.4 Q1748.15 1156.96 1744.2 1156.96 Q1737.65 1156.96 1733.64 1151.96 Q1729.63 1146.97 1729.63 1138.72 Q1729.63 1130.45 1733.64 1125.45 Q1737.65 1120.45 1744.2 1120.45 Q1748.15 1120.45 1750.98 1122.01 Q1753.82 1123.57 1755.63 1126.72 L1755.63 1121.31 L1761.49 1121.31 L1761.49 1152.54 Z" fill="#000000" fill-rule="nonzero" fill-opacity="1" /><path clip-path="url(#clip370)" d="M1804.04 1137.67 L1804.04 1140.54 L1777.12 1140.54 Q1777.5 1146.59 1780.74 1149.77 Q1784.02 1152.92 1789.85 1152.92 Q1793.22 1152.92 1796.37 1152.09 Q1799.55 1151.26 1802.67 1149.61 L1802.67 1155.15 Q1799.52 1156.48 1796.21 1157.18 Q1792.9 1157.88 1789.5 1157.88 Q1780.97 1157.88 1775.97 1152.92 Q1771 1147.95 1771 1139.49 Q1771 1130.74 1775.71 1125.61 Q1780.46 1120.45 1788.48 1120.45 Q1795.67 1120.45 1799.84 1125.1 Q1804.04 1129.72 1804.04 1137.67 M1798.19 1135.95 Q1798.12 1131.15 1795.48 1128.28 Q1792.87 1125.42 1788.54 1125.42 Q1783.64 1125.42 1780.68 1128.19 Q1777.75 1130.96 1777.31 1135.99 L1798.19 1135.95 Z" fill="#000000" fill-rule="nonzero" fill-opacity="1" /><polyline clip-path="url(#clip372)" style="stroke:#000000; stroke-linecap:round; stroke-linejoin:round; stroke-width:2; stroke-opacity:0.1; fill:none" points="270.918,1000.1 3089.76,1000.1 "/>
<polyline clip-path="url(#clip372)" style="stroke:#000000; stroke-linecap:round; stroke-linejoin:round; stroke-width:2; stroke-opacity:0.1; fill:none" points="270.918,673.288 3089.76,673.288 "/>
<polyline clip-path="url(#clip372)" style="stroke:#000000; stroke-linecap:round; stroke-linejoin:round; stroke-width:2; stroke-opacity:0.1; fill:none" points="270.918,346.477 3089.76,346.477 "/>
<polyline clip-path="url(#clip370)" style="stroke:#000000; stroke-linecap:round; stroke-linejoin:round; stroke-width:4; stroke-opacity:1; fill:none" points="270.918,1000.1 270.918,110.236 "/>
<polyline clip-path="url(#clip370)" style="stroke:#000000; stroke-linecap:round; stroke-linejoin:round; stroke-width:4; stroke-opacity:1; fill:none" points="270.918,1000.1 289.815,1000.1 "/>
<polyline clip-path="url(#clip370)" style="stroke:#000000; stroke-linecap:round; stroke-linejoin:round; stroke-width:4; stroke-opacity:1; fill:none" points="270.918,673.288 289.815,673.288 "/>
<polyline clip-path="url(#clip370)" style="stroke:#000000; stroke-linecap:round; stroke-linejoin:round; stroke-width:4; stroke-opacity:1; fill:none" points="270.918,346.477 289.815,346.477 "/>
<path clip-path="url(#clip370)" d="M154.902 1019.89 L162.54 1019.89 L162.54 993.525 L154.23 995.191 L154.23 990.932 L162.494 989.265 L167.17 989.265 L167.17 1019.89 L174.809 1019.89 L174.809 1023.83 L154.902 1023.83 L154.902 1019.89 Z" fill="#000000" fill-rule="nonzero" fill-opacity="1" /><path clip-path="url(#clip370)" d="M194.253 992.344 Q190.642 992.344 188.813 995.909 Q187.008 999.45 187.008 1006.58 Q187.008 1013.69 188.813 1017.25 Q190.642 1020.79 194.253 1020.79 Q197.887 1020.79 199.693 1017.25 Q201.522 1013.69 201.522 1006.58 Q201.522 999.45 199.693 995.909 Q197.887 992.344 194.253 992.344 M194.253 988.64 Q200.063 988.64 203.119 993.247 Q206.198 997.83 206.198 1006.58 Q206.198 1015.31 203.119 1019.91 Q200.063 1024.5 194.253 1024.5 Q188.443 1024.5 185.364 1019.91 Q182.309 1015.31 182.309 1006.58 Q182.309 997.83 185.364 993.247 Q188.443 988.64 194.253 988.64 Z" fill="#000000" fill-rule="nonzero" fill-opacity="1" /><path clip-path="url(#clip370)" d="M206.743 993.218 L212.95 993.218 L212.95 971.796 L206.198 973.15 L206.198 969.689 L212.912 968.335 L216.711 968.335 L216.711 993.218 L222.918 993.218 L222.918 996.415 L206.743 996.415 L206.743 993.218 Z" fill="#000000" fill-rule="nonzero" fill-opacity="1" /><path clip-path="url(#clip370)" d="M153.792 693.08 L161.431 693.08 L161.431 666.714 L153.121 668.381 L153.121 664.122 L161.384 662.455 L166.06 662.455 L166.06 693.08 L173.699 693.08 L173.699 697.015 L153.792 697.015 L153.792 693.08 Z" fill="#000000" fill-rule="nonzero" fill-opacity="1" /><path clip-path="url(#clip370)" d="M193.143 665.534 Q189.532 665.534 187.704 669.099 Q185.898 672.64 185.898 679.77 Q185.898 686.876 187.704 690.441 Q189.532 693.983 193.143 693.983 Q196.778 693.983 198.583 690.441 Q200.412 686.876 200.412 679.77 Q200.412 672.64 198.583 669.099 Q196.778 665.534 193.143 665.534 M193.143 661.83 Q198.954 661.83 202.009 666.437 Q205.088 671.02 205.088 679.77 Q205.088 688.497 202.009 693.103 Q198.954 697.686 193.143 697.686 Q187.333 697.686 184.255 693.103 Q181.199 688.497 181.199 679.77 Q181.199 671.02 184.255 666.437 Q187.333 661.83 193.143 661.83 Z" fill="#000000" fill-rule="nonzero" fill-opacity="1" /><path clip-path="url(#clip370)" d="M209.658 666.407 L222.918 666.407 L222.918 669.605 L205.088 669.605 L205.088 666.407 Q207.251 664.169 210.975 660.408 Q214.717 656.627 215.677 655.537 Q217.501 653.486 218.216 652.076 Q218.949 650.646 218.949 649.274 Q218.949 647.035 217.369 645.625 Q215.808 644.214 213.288 644.214 Q211.501 644.214 209.508 644.835 Q207.533 645.456 205.276 646.716 L205.276 642.879 Q207.57 641.957 209.564 641.487 Q211.558 641.017 213.213 641.017 Q217.576 641.017 220.172 643.199 Q222.767 645.38 222.767 649.029 Q222.767 650.759 222.109 652.32 Q221.469 653.863 219.758 655.969 Q219.288 656.515 216.767 659.129 Q214.247 661.724 209.658 666.407 Z" fill="#000000" fill-rule="nonzero" fill-opacity="1" /><path clip-path="url(#clip370)" d="M153.134 366.27 L160.772 366.27 L160.772 339.904 L152.462 341.571 L152.462 337.312 L160.726 335.645 L165.402 335.645 L165.402 366.27 L173.041 366.27 L173.041 370.205 L153.134 370.205 L153.134 366.27 Z" fill="#000000" fill-rule="nonzero" fill-opacity="1" /><path clip-path="url(#clip370)" d="M192.485 338.724 Q188.874 338.724 187.045 342.288 Q185.24 345.83 185.24 352.96 Q185.24 360.066 187.045 363.631 Q188.874 367.173 192.485 367.173 Q196.119 367.173 197.925 363.631 Q199.754 360.066 199.754 352.96 Q199.754 345.83 197.925 342.288 Q196.119 338.724 192.485 338.724 M192.485 335.02 Q198.295 335.02 201.351 339.626 Q204.43 344.21 204.43 352.96 Q204.43 361.686 201.351 366.293 Q198.295 370.876 192.485 370.876 Q186.675 370.876 183.596 366.293 Q180.541 361.686 180.541 352.96 Q180.541 344.21 183.596 339.626 Q186.675 335.02 192.485 335.02 Z" fill="#000000" fill-rule="nonzero" fill-opacity="1" /><path clip-path="url(#clip370)" d="M217.125 327.654 Q219.852 328.237 221.375 330.08 Q222.918 331.924 222.918 334.632 Q222.918 338.788 220.059 341.064 Q217.2 343.34 211.934 343.34 Q210.166 343.34 208.285 342.983 Q206.423 342.644 204.43 341.948 L204.43 338.281 Q206.009 339.202 207.89 339.672 Q209.771 340.143 211.821 340.143 Q215.395 340.143 217.256 338.732 Q219.137 337.321 219.137 334.632 Q219.137 332.149 217.388 330.758 Q215.658 329.347 212.555 329.347 L209.282 329.347 L209.282 326.225 L212.705 326.225 Q215.507 326.225 216.993 325.115 Q218.479 323.987 218.479 321.88 Q218.479 319.717 216.937 318.57 Q215.413 317.404 212.555 317.404 Q210.994 317.404 209.207 317.743 Q207.42 318.081 205.276 318.796 L205.276 315.41 Q207.439 314.809 209.32 314.508 Q211.219 314.207 212.893 314.207 Q217.219 314.207 219.739 316.182 Q222.259 318.138 222.259 321.485 Q222.259 323.817 220.924 325.435 Q219.589 327.034 217.125 327.654 Z" fill="#000000" fill-rule="nonzero" fill-opacity="1" /><path clip-path="url(#clip370)" d="M42.6863 950.461 L42.6863 920.415 L48.0971 920.415 L48.0971 944.032 L62.1653 944.032 L62.1653 921.402 L67.5762 921.402 L67.5762 944.032 L84.7954 944.032 L84.7954 919.842 L90.2063 919.842 L90.2063 950.461 L42.6863 950.461 Z" fill="#000000" fill-rule="nonzero" fill-opacity="1" /><path clip-path="url(#clip370)" d="M44.2459 880.789 L50.5161 880.789 Q48.7655 884.449 47.9062 887.696 Q47.0468 890.942 47.0468 893.966 Q47.0468 899.217 49.0838 902.082 Q51.1208 904.915 54.8766 904.915 Q58.0276 904.915 59.6509 903.037 Q61.2423 901.127 62.229 895.844 L63.0247 891.961 Q64.3933 884.767 67.8627 881.362 Q71.3001 877.924 77.0929 877.924 Q83.9997 877.924 87.5645 882.571 Q91.1293 887.186 91.1293 896.13 Q91.1293 899.504 90.3654 903.323 Q89.6015 907.111 88.1056 911.185 L81.4853 911.185 Q83.6814 907.27 84.7954 903.514 Q85.9094 899.759 85.9094 896.13 Q85.9094 890.624 83.7451 887.632 Q81.5808 884.64 77.5704 884.64 Q74.0692 884.64 72.0958 886.804 Q70.1225 888.937 69.1358 893.838 L68.3719 897.753 Q66.9396 904.947 63.8841 908.161 Q60.8285 911.376 55.3859 911.376 Q49.0838 911.376 45.4554 906.952 Q41.8269 902.496 41.8269 894.698 Q41.8269 891.356 42.4317 887.887 Q43.0364 884.417 44.2459 880.789 Z" fill="#000000" fill-rule="nonzero" fill-opacity="1" /><path clip-path="url(#clip370)" d="M44.2459 839.412 L50.5161 839.412 Q48.7655 843.072 47.9062 846.318 Q47.0468 849.565 47.0468 852.589 Q47.0468 857.84 49.0838 860.705 Q51.1208 863.538 54.8766 863.538 Q58.0276 863.538 59.6509 861.66 Q61.2423 859.75 62.229 854.467 L63.0247 850.583 Q64.3933 843.39 67.8627 839.985 Q71.3001 836.547 77.0929 836.547 Q83.9997 836.547 87.5645 841.194 Q91.1293 845.809 91.1293 854.753 Q91.1293 858.127 90.3654 861.946 Q89.6015 865.734 88.1056 869.808 L81.4853 869.808 Q83.6814 865.893 84.7954 862.137 Q85.9094 858.381 85.9094 854.753 Q85.9094 849.247 83.7451 846.255 Q81.5808 843.263 77.5704 843.263 Q74.0692 843.263 72.0958 845.427 Q70.1225 847.56 69.1358 852.461 L68.3719 856.376 Q66.9396 863.57 63.8841 866.784 Q60.8285 869.999 55.3859 869.999 Q49.0838 869.999 45.4554 865.575 Q41.8269 861.119 41.8269 853.321 Q41.8269 849.979 42.4317 846.509 Q43.0364 843.04 44.2459 839.412 Z" fill="#000000" fill-rule="nonzero" fill-opacity="1" /><path clip-path="url(#clip370)" d="M82.1218 825.28 L82.1218 818.564 L90.2063 818.564 L90.2063 825.28 L82.1218 825.28 M56.4999 825.28 L56.4999 818.564 L64.5843 818.564 L64.5843 825.28 L56.4999 825.28 Z" fill="#000000" fill-rule="nonzero" fill-opacity="1" /><path clip-path="url(#clip370)" d="M47.9698 777.41 L84.9227 777.41 L84.9227 769.644 Q84.9227 759.809 80.4668 755.257 Q76.0108 750.674 66.3985 750.674 Q56.85 750.674 52.4258 755.257 Q47.9698 759.809 47.9698 769.644 L47.9698 777.41 M42.6863 783.839 L42.6863 770.63 Q42.6863 756.817 48.4472 750.355 Q54.1764 743.894 66.3985 743.894 Q78.6844 743.894 84.4453 750.387 Q90.2063 756.88 90.2063 770.63 L90.2063 783.839 L42.6863 783.839 Z" fill="#000000" fill-rule="nonzero" fill-opacity="1" /><path clip-path="url(#clip370)" d="M70.9182 703.408 L73.7828 703.408 L73.7828 730.335 Q79.8302 729.953 83.013 726.707 Q86.1641 723.429 86.1641 717.604 Q86.1641 714.23 85.3365 711.079 Q84.509 707.896 82.8539 704.777 L88.3921 704.777 Q89.7289 707.928 90.4291 711.238 Q91.1293 714.548 91.1293 717.954 Q91.1293 726.484 86.1641 731.481 Q81.1988 736.446 72.7324 736.446 Q63.9796 736.446 58.8552 731.736 Q53.699 726.993 53.699 718.973 Q53.699 711.779 58.3459 707.61 Q62.9611 703.408 70.9182 703.408 M69.1995 709.265 Q64.3933 709.328 61.5288 711.97 Q58.6642 714.58 58.6642 718.909 Q58.6642 723.81 61.4333 726.771 Q64.2024 729.699 69.2313 730.144 L69.1995 709.265 Z" fill="#000000" fill-rule="nonzero" fill-opacity="1" /><path clip-path="url(#clip370)" d="M68.6902 664.164 L90.2063 664.164 L90.2063 670.02 L68.8812 670.02 Q63.8204 670.02 61.306 671.994 Q58.7915 673.967 58.7915 677.914 Q58.7915 682.656 61.8152 685.393 Q64.8389 688.131 70.0588 688.131 L90.2063 688.131 L90.2063 694.019 L54.5583 694.019 L54.5583 688.131 L60.0965 688.131 Q56.8818 686.03 55.2904 683.197 Q53.699 680.333 53.699 676.609 Q53.699 670.466 57.5184 667.315 Q61.306 664.164 68.6902 664.164 Z" fill="#000000" fill-rule="nonzero" fill-opacity="1" /><path clip-path="url(#clip370)" d="M61.4015 624.728 Q57.4547 622.532 55.5768 619.477 Q53.699 616.421 53.699 612.283 Q53.699 606.713 57.6139 603.69 Q61.4969 600.666 68.6902 600.666 L90.2063 600.666 L90.2063 606.554 L68.8812 606.554 Q63.7568 606.554 61.2741 608.368 Q58.7915 610.183 58.7915 613.907 Q58.7915 618.458 61.8152 621.1 Q64.8389 623.742 70.0588 623.742 L90.2063 623.742 L90.2063 629.63 L68.8812 629.63 Q63.7249 629.63 61.2741 631.444 Q58.7915 633.258 58.7915 637.046 Q58.7915 641.534 61.8471 644.175 Q64.8708 646.817 70.0588 646.817 L90.2063 646.817 L90.2063 652.706 L54.5583 652.706 L54.5583 646.817 L60.0965 646.817 Q56.8182 644.812 55.2586 642.011 Q53.699 639.21 53.699 635.359 Q53.699 631.476 55.6723 628.77 Q57.6457 626.033 61.4015 624.728 Z" fill="#000000" fill-rule="nonzero" fill-opacity="1" /><path clip-path="url(#clip370)" d="M72.2868 572.784 Q72.2868 579.882 73.9101 582.619 Q75.5333 585.356 79.4482 585.356 Q82.5674 585.356 84.4135 583.319 Q86.2277 581.25 86.2277 577.717 Q86.2277 572.848 82.7902 569.919 Q79.3209 566.959 73.5918 566.959 L72.2868 566.959 L72.2868 572.784 M69.8679 561.103 L90.2063 561.103 L90.2063 566.959 L84.7954 566.959 Q88.0419 568.965 89.6015 571.957 Q91.1293 574.948 91.1293 579.277 Q91.1293 584.752 88.0738 587.998 Q84.9864 591.213 79.8302 591.213 Q73.8146 591.213 70.759 587.202 Q67.7035 583.16 67.7035 575.171 L67.7035 566.959 L67.1306 566.959 Q63.0884 566.959 60.8922 569.633 Q58.6642 572.275 58.6642 577.081 Q58.6642 580.136 59.3963 583.033 Q60.1283 585.929 61.5924 588.603 L56.1816 588.603 Q54.9403 585.388 54.3355 582.364 Q53.699 579.341 53.699 576.476 Q53.699 568.742 57.7094 564.922 Q61.7197 561.103 69.8679 561.103 Z" fill="#000000" fill-rule="nonzero" fill-opacity="1" /><path clip-path="url(#clip370)" d="M60.0328 528.383 Q59.4599 529.37 59.2053 530.548 Q58.9188 531.693 58.9188 533.094 Q58.9188 538.059 62.1653 540.733 Q65.38 543.374 71.4274 543.374 L90.2063 543.374 L90.2063 549.263 L54.5583 549.263 L54.5583 543.374 L60.0965 543.374 Q56.85 541.528 55.2904 538.568 Q53.699 535.608 53.699 531.375 Q53.699 530.77 53.7944 530.038 Q53.8581 529.306 54.0172 528.415 L60.0328 528.383 Z" fill="#000000" fill-rule="nonzero" fill-opacity="1" /><path clip-path="url(#clip370)" d="M40.6811 522.463 L40.6811 516.575 L69.9315 516.575 L54.5583 499.101 L54.5583 491.621 L71.2365 510.527 L90.2063 490.826 L90.2063 498.464 L72.7961 516.575 L90.2063 516.575 L90.2063 522.463 L40.6811 522.463 Z" fill="#000000" fill-rule="nonzero" fill-opacity="1" /><path clip-path="url(#clip370)" d="M82.1218 482.996 L82.1218 476.28 L87.5963 476.28 L97.7815 481.5 L97.7815 485.606 L87.5963 482.996 L82.1218 482.996 Z" fill="#000000" fill-rule="nonzero" fill-opacity="1" /><path clip-path="url(#clip370)" d="M44.4369 437.258 L54.5583 437.258 L54.5583 425.195 L59.1098 425.195 L59.1098 437.258 L78.4616 437.258 Q82.8221 437.258 84.0634 436.081 Q85.3047 434.871 85.3047 431.211 L85.3047 425.195 L90.2063 425.195 L90.2063 431.211 Q90.2063 437.99 87.6918 440.568 Q85.1455 443.146 78.4616 443.146 L59.1098 443.146 L59.1098 447.443 L54.5583 447.443 L54.5583 443.146 L44.4369 443.146 L44.4369 437.258 Z" fill="#000000" fill-rule="nonzero" fill-opacity="1" /><path clip-path="url(#clip370)" d="M54.5583 417.493 L54.5583 411.636 L90.2063 411.636 L90.2063 417.493 L54.5583 417.493 M40.6811 417.493 L40.6811 411.636 L48.0971 411.636 L48.0971 417.493 L40.6811 417.493 Z" fill="#000000" fill-rule="nonzero" fill-opacity="1" /><path clip-path="url(#clip370)" d="M61.4015 371.628 Q57.4547 369.432 55.5768 366.376 Q53.699 363.32 53.699 359.183 Q53.699 353.613 57.6139 350.589 Q61.4969 347.565 68.6902 347.565 L90.2063 347.565 L90.2063 353.454 L68.8812 353.454 Q63.7568 353.454 61.2741 355.268 Q58.7915 357.082 58.7915 360.806 Q58.7915 365.358 61.8152 367.999 Q64.8389 370.641 70.0588 370.641 L90.2063 370.641 L90.2063 376.529 L68.8812 376.529 Q63.7249 376.529 61.2741 378.344 Q58.7915 380.158 58.7915 383.945 Q58.7915 388.433 61.8471 391.075 Q64.8708 393.717 70.0588 393.717 L90.2063 393.717 L90.2063 399.605 L54.5583 399.605 L54.5583 393.717 L60.0965 393.717 Q56.8182 391.712 55.2586 388.911 Q53.699 386.11 53.699 382.258 Q53.699 378.375 55.6723 375.67 Q57.6457 372.933 61.4015 371.628 Z" fill="#000000" fill-rule="nonzero" fill-opacity="1" /><path clip-path="url(#clip370)" d="M70.9182 305.393 L73.7828 305.393 L73.7828 332.319 Q79.8302 331.938 83.013 328.691 Q86.1641 325.413 86.1641 319.588 Q86.1641 316.214 85.3365 313.063 Q84.509 309.88 82.8539 306.761 L88.3921 306.761 Q89.7289 309.912 90.4291 313.222 Q91.1293 316.533 91.1293 319.938 Q91.1293 328.468 86.1641 333.465 Q81.1988 338.431 72.7324 338.431 Q63.9796 338.431 58.8552 333.72 Q53.699 328.977 53.699 320.957 Q53.699 313.763 58.3459 309.594 Q62.9611 305.393 70.9182 305.393 M69.1995 311.249 Q64.3933 311.313 61.5288 313.954 Q58.6642 316.564 58.6642 320.893 Q58.6642 325.795 61.4333 328.755 Q64.2024 331.683 69.2313 332.129 L69.1995 311.249 Z" fill="#000000" fill-rule="nonzero" fill-opacity="1" /><path clip-path="url(#clip370)" d="M82.1218 294.284 L82.1218 287.569 L90.2063 287.569 L90.2063 294.284 L82.1218 294.284 M56.4999 294.284 L56.4999 287.569 L64.5843 287.569 L64.5843 294.284 L56.4999 294.284 Z" fill="#000000" fill-rule="nonzero" fill-opacity="1" /><path clip-path="url(#clip370)" d="M84.7954 271.877 L84.7954 261.374 L48.5427 261.374 L50.8344 272.8 L44.9779 272.8 L42.6863 261.437 L42.6863 255.008 L84.7954 255.008 L84.7954 244.505 L90.2063 244.505 L90.2063 271.877 L84.7954 271.877 Z" fill="#000000" fill-rule="nonzero" fill-opacity="1" /><path clip-path="url(#clip370)" d="M46.9195 217.769 Q46.9195 222.734 51.8211 225.248 Q56.6908 227.731 66.494 227.731 Q76.2654 227.731 81.167 225.248 Q86.0367 222.734 86.0367 217.769 Q86.0367 212.772 81.167 210.289 Q76.2654 207.774 66.494 207.774 Q56.6908 207.774 51.8211 210.289 Q46.9195 212.772 46.9195 217.769 M41.8269 217.769 Q41.8269 209.78 48.1608 205.578 Q54.4628 201.345 66.494 201.345 Q78.4934 201.345 84.8273 205.578 Q91.1293 209.78 91.1293 217.769 Q91.1293 225.758 84.8273 229.991 Q78.4934 234.192 66.494 234.192 Q54.4628 234.192 48.1608 229.991 Q41.8269 225.758 41.8269 217.769 Z" fill="#000000" fill-rule="nonzero" fill-opacity="1" /><path clip-path="url(#clip370)" d="M46.9195 176.296 Q46.9195 181.261 51.8211 183.776 Q56.6908 186.258 66.494 186.258 Q76.2654 186.258 81.167 183.776 Q86.0367 181.261 86.0367 176.296 Q86.0367 171.299 81.167 168.816 Q76.2654 166.302 66.494 166.302 Q56.6908 166.302 51.8211 168.816 Q46.9195 171.299 46.9195 176.296 M41.8269 176.296 Q41.8269 168.307 48.1608 164.106 Q54.4628 159.873 66.494 159.873 Q78.4934 159.873 84.8273 164.106 Q91.1293 168.307 91.1293 176.296 Q91.1293 184.285 84.8273 188.518 Q78.4934 192.72 66.494 192.72 Q54.4628 192.72 48.1608 188.518 Q41.8269 184.285 41.8269 176.296 Z" fill="#000000" fill-rule="nonzero" fill-opacity="1" /><polyline clip-path="url(#clip372)" style="stroke:#009af9; stroke-linecap:round; stroke-linejoin:round; stroke-width:4; stroke-opacity:1; fill:none" points="350.696,340.483 367.421,141.528 384.146,151.854 400.872,127.337 417.597,164.518 434.322,131.322 451.047,144.661 467.772,140.144 484.497,164.208 501.222,152.592 517.947,146.926 534.672,160.57 551.397,177.687 568.122,157.452 584.848,150.572 601.573,164.114 618.298,172.17 635.023,153.812 651.748,145.586 668.473,180.94 685.198,165.5 701.923,174.794 718.648,138.411 735.373,174.098 752.098,178.653 768.823,169.258 785.549,160.953 802.274,190.327 818.999,140.522 835.724,148.336 852.449,133.255 869.174,173.78 885.899,162.82 902.624,150.184 919.349,145.114 936.074,155.57 952.799,168.958 969.525,188.564 986.25,148.485 1002.97,165.641 1019.7,119.962 1036.42,142.275 1053.15,145.003 1069.88,110.236 1086.6,146.197 1103.33,139.252 1120.05,153.428 1136.78,148.092 1153.5,140.288 1170.23,167.747 1186.95,126.065 1203.68,157.147 1220.4,179.702 1237.13,169.61 1253.85,126.671 1270.58,156.191 1287.3,165.551 1304.03,166.423 1320.75,157.588 1337.48,137.107 1354.2,161.923 1370.93,110.419 1387.65,204.936 1404.38,174.965 1421.1,154.611 1437.83,143.735 1454.55,127.536 1471.28,134.329 1488,148.074 1504.73,129.845 1521.45,137.184 1538.18,162.757 1554.9,148.681 1571.63,166.328 1588.35,144.872 1605.08,148.717 1621.8,140.563 1638.53,170.12 1655.25,160.616 1671.98,154.272 1688.7,156.389 1705.43,177.646 1722.15,160.798 1738.88,152.463 1755.6,143.286 1772.33,167.039 1789.05,163.294 1805.78,133.85 1822.5,152.974 1839.23,150.79 1855.95,137.994 1872.68,166.513 1889.4,147.408 1906.13,134.734 1922.85,162.468 1939.58,149.154 1956.3,159.546 1973.03,158.248 1989.75,134.903 2006.48,146.323 2023.2,156.276 2039.93,152.386 2056.66,159.327 2073.38,181.05 2090.11,153.314 2106.83,162.57 2123.56,138.737 2140.28,160.691 2157.01,177.44 2173.73,189.479 2190.46,161.245 2207.18,166.032 2223.91,192.209 2240.63,147.37 2257.36,139.43 2274.08,168.814 2290.81,136.007 2307.53,150.529 2324.26,168.016 2340.98,149.657 2357.71,148.272 2374.43,136.109 2391.16,135.773 2407.88,167.287 2424.61,142.504 2441.33,125.655 2458.06,136.566 2474.78,153.719 2491.51,120.583 2508.23,138.879 2524.96,138.782 2541.68,139.062 2558.41,143.779 2575.13,168.118 2591.86,164.038 2608.58,137.368 2625.31,130.659 2642.03,145.445 2658.76,166.041 2675.48,137.979 2692.21,156.902 2708.93,144.225 2725.66,149.111 2742.38,168.466 2759.11,154.213 2775.83,158.492 2792.56,129.973 2809.28,144.085 2826.01,138.008 2842.73,147.577 2859.46,154.644 2876.18,172.008 2892.91,161.929 2909.63,172.194 2926.36,132.561 2943.08,180.982 2959.81,156.248 2976.53,134.846 2993.26,172.334 3009.99,176.22 "/>
</svg>
