<?xml version="1.0" encoding="utf-8"?>
<svg xmlns="http://www.w3.org/2000/svg" xmlns:xlink="http://www.w3.org/1999/xlink" width="800" height="300" viewBox="0 0 3200 1200">
<defs>
  <clipPath id="clip740">
    <rect x="0" y="0" width="3200" height="1200"/>
  </clipPath>
</defs>
<path clip-path="url(#clip740)" d="
M0 1200 L3200 1200 L3200 0 L0 0  Z
  " fill="#ffffff" fill-rule="evenodd" fill-opacity="1"/>
<defs>
  <clipPath id="clip741">
    <rect x="640" y="0" width="2241" height="1200"/>
  </clipPath>
</defs>
<path clip-path="url(#clip740)" d="
M270.918 1000.1 L3089.76 1000.1 L3089.76 110.236 L270.918 110.236  Z
  " fill="#ffffff" fill-rule="evenodd" fill-opacity="1"/>
<defs>
  <clipPath id="clip742">
    <rect x="270" y="110" width="2820" height="891"/>
  </clipPath>
</defs>
<polyline clip-path="url(#clip742)" style="stroke:#000000; stroke-linecap:round; stroke-linejoin:round; stroke-width:2; stroke-opacity:0.1; fill:none" points="
  342.254,1000.1 342.254,110.236 
  "/>
<polyline clip-path="url(#clip742)" style="stroke:#000000; stroke-linecap:round; stroke-linejoin:round; stroke-width:2; stroke-opacity:0.1; fill:none" points="
  1186.47,1000.1 1186.47,110.236 
  "/>
<polyline clip-path="url(#clip742)" style="stroke:#000000; stroke-linecap:round; stroke-linejoin:round; stroke-width:2; stroke-opacity:0.1; fill:none" points="
  2030.69,1000.1 2030.69,110.236 
  "/>
<polyline clip-path="url(#clip742)" style="stroke:#000000; stroke-linecap:round; stroke-linejoin:round; stroke-width:2; stroke-opacity:0.1; fill:none" points="
  2874.91,1000.1 2874.91,110.236 
  "/>
<polyline clip-path="url(#clip740)" style="stroke:#000000; stroke-linecap:round; stroke-linejoin:round; stroke-width:4; stroke-opacity:1; fill:none" points="
  270.918,1000.1 3089.76,1000.1 
  "/>
<polyline clip-path="url(#clip740)" style="stroke:#000000; stroke-linecap:round; stroke-linejoin:round; stroke-width:4; stroke-opacity:1; fill:none" points="
  342.254,1000.1 342.254,981.2 
  "/>
<polyline clip-path="url(#clip740)" style="stroke:#000000; stroke-linecap:round; stroke-linejoin:round; stroke-width:4; stroke-opacity:1; fill:none" points="
  1186.47,1000.1 1186.47,981.2 
  "/>
<polyline clip-path="url(#clip740)" style="stroke:#000000; stroke-linecap:round; stroke-linejoin:round; stroke-width:4; stroke-opacity:1; fill:none" points="
  2030.69,1000.1 2030.69,981.2 
  "/>
<polyline clip-path="url(#clip740)" style="stroke:#000000; stroke-linecap:round; stroke-linejoin:round; stroke-width:4; stroke-opacity:1; fill:none" points="
  2874.91,1000.1 2874.91,981.2 
  "/>
<path clip-path="url(#clip740)" d="M342.254 1037.42 Q338.643 1037.42 336.814 1040.98 Q335.009 1044.52 335.009 1051.65 Q335.009 1058.76 336.814 1062.32 Q338.643 1065.87 342.254 1065.87 Q345.888 1065.87 347.694 1062.32 Q349.523 1058.76 349.523 1051.65 Q349.523 1044.52 347.694 1040.98 Q345.888 1037.42 342.254 1037.42 M342.254 1033.71 Q348.064 1033.71 351.12 1038.32 Q354.198 1042.9 354.198 1051.65 Q354.198 1060.38 351.12 1064.99 Q348.064 1069.57 342.254 1069.57 Q336.444 1069.57 333.365 1064.99 Q330.31 1060.38 330.31 1051.65 Q330.31 1042.9 333.365 1038.32 Q336.444 1033.71 342.254 1033.71 Z" fill="#000000" fill-rule="evenodd" fill-opacity="1" /><path clip-path="url(#clip740)" d="M1146.08 1064.96 L1153.72 1064.96 L1153.72 1038.6 L1145.41 1040.26 L1145.41 1036 L1153.67 1034.34 L1158.35 1034.34 L1158.35 1064.96 L1165.99 1064.96 L1165.99 1068.9 L1146.08 1068.9 L1146.08 1064.96 Z" fill="#000000" fill-rule="evenodd" fill-opacity="1" /><path clip-path="url(#clip740)" d="M1185.43 1037.42 Q1181.82 1037.42 1179.99 1040.98 Q1178.19 1044.52 1178.19 1051.65 Q1178.19 1058.76 1179.99 1062.32 Q1181.82 1065.87 1185.43 1065.87 Q1189.07 1065.87 1190.87 1062.32 Q1192.7 1058.76 1192.7 1051.65 Q1192.7 1044.52 1190.87 1040.98 Q1189.07 1037.42 1185.43 1037.42 M1185.43 1033.71 Q1191.24 1033.71 1194.3 1038.32 Q1197.38 1042.9 1197.38 1051.65 Q1197.38 1060.38 1194.3 1064.99 Q1191.24 1069.57 1185.43 1069.57 Q1179.62 1069.57 1176.54 1064.99 Q1173.49 1060.38 1173.49 1051.65 Q1173.49 1042.9 1176.54 1038.32 Q1179.62 1033.71 1185.43 1033.71 Z" fill="#000000" fill-rule="evenodd" fill-opacity="1" /><path clip-path="url(#clip740)" d="M1215.59 1037.42 Q1211.98 1037.42 1210.15 1040.98 Q1208.35 1044.52 1208.35 1051.65 Q1208.35 1058.76 1210.15 1062.32 Q1211.98 1065.87 1215.59 1065.87 Q1219.23 1065.87 1221.03 1062.32 Q1222.86 1058.76 1222.86 1051.65 Q1222.86 1044.52 1221.03 1040.98 Q1219.23 1037.42 1215.59 1037.42 M1215.59 1033.71 Q1221.4 1033.71 1224.46 1038.32 Q1227.54 1042.9 1227.54 1051.65 Q1227.54 1060.38 1224.46 1064.99 Q1221.4 1069.57 1215.59 1069.57 Q1209.78 1069.57 1206.7 1064.99 Q1203.65 1060.38 1203.65 1051.65 Q1203.65 1042.9 1206.7 1038.32 Q1209.78 1033.71 1215.59 1033.71 Z" fill="#000000" fill-rule="evenodd" fill-opacity="1" /><path clip-path="url(#clip740)" d="M1994.38 1064.96 L2010.7 1064.96 L2010.7 1068.9 L1988.76 1068.9 L1988.76 1064.96 Q1991.42 1062.21 1996 1057.58 Q2000.61 1052.93 2001.79 1051.58 Q2004.04 1049.06 2004.92 1047.32 Q2005.82 1045.56 2005.82 1043.87 Q2005.82 1041.12 2003.87 1039.38 Q2001.95 1037.65 1998.85 1037.65 Q1996.65 1037.65 1994.2 1038.41 Q1991.77 1039.18 1988.99 1040.73 L1988.99 1036 Q1991.81 1034.87 1994.27 1034.29 Q1996.72 1033.71 1998.76 1033.71 Q2004.13 1033.71 2007.32 1036.4 Q2010.52 1039.08 2010.52 1043.57 Q2010.52 1045.7 2009.71 1047.62 Q2008.92 1049.52 2006.81 1052.12 Q2006.24 1052.79 2003.13 1056 Q2000.03 1059.2 1994.38 1064.96 Z" fill="#000000" fill-rule="evenodd" fill-opacity="1" /><path clip-path="url(#clip740)" d="M2030.52 1037.42 Q2026.91 1037.42 2025.08 1040.98 Q2023.27 1044.52 2023.27 1051.65 Q2023.27 1058.76 2025.08 1062.32 Q2026.91 1065.87 2030.52 1065.87 Q2034.15 1065.87 2035.96 1062.32 Q2037.79 1058.76 2037.79 1051.65 Q2037.79 1044.52 2035.96 1040.98 Q2034.15 1037.42 2030.52 1037.42 M2030.52 1033.71 Q2036.33 1033.71 2039.38 1038.32 Q2042.46 1042.9 2042.46 1051.65 Q2042.46 1060.38 2039.38 1064.99 Q2036.33 1069.57 2030.52 1069.57 Q2024.71 1069.57 2021.63 1064.99 Q2018.57 1060.38 2018.57 1051.65 Q2018.57 1042.9 2021.63 1038.32 Q2024.71 1033.71 2030.52 1033.71 Z" fill="#000000" fill-rule="evenodd" fill-opacity="1" /><path clip-path="url(#clip740)" d="M2060.68 1037.42 Q2057.07 1037.42 2055.24 1040.98 Q2053.43 1044.52 2053.43 1051.65 Q2053.43 1058.76 2055.24 1062.32 Q2057.07 1065.87 2060.68 1065.87 Q2064.31 1065.87 2066.12 1062.32 Q2067.95 1058.76 2067.95 1051.65 Q2067.95 1044.52 2066.12 1040.98 Q2064.31 1037.42 2060.68 1037.42 M2060.68 1033.71 Q2066.49 1033.71 2069.55 1038.32 Q2072.62 1042.9 2072.62 1051.65 Q2072.62 1060.38 2069.55 1064.99 Q2066.49 1069.57 2060.68 1069.57 Q2054.87 1069.57 2051.79 1064.99 Q2048.74 1060.38 2048.74 1051.65 Q2048.74 1042.9 2051.79 1038.32 Q2054.87 1033.71 2060.68 1033.71 Z" fill="#000000" fill-rule="evenodd" fill-opacity="1" /><path clip-path="url(#clip740)" d="M2848.67 1050.26 Q2852.03 1050.98 2853.9 1053.25 Q2855.8 1055.52 2855.8 1058.85 Q2855.8 1063.97 2852.28 1066.77 Q2848.76 1069.57 2842.28 1069.57 Q2840.11 1069.57 2837.79 1069.13 Q2835.5 1068.71 2833.05 1067.86 L2833.05 1063.34 Q2834.99 1064.48 2837.31 1065.06 Q2839.62 1065.63 2842.14 1065.63 Q2846.54 1065.63 2848.83 1063.9 Q2851.15 1062.16 2851.15 1058.85 Q2851.15 1055.8 2849 1054.08 Q2846.87 1052.35 2843.05 1052.35 L2839.02 1052.35 L2839.02 1048.5 L2843.23 1048.5 Q2846.68 1048.5 2848.51 1047.14 Q2850.34 1045.75 2850.34 1043.16 Q2850.34 1040.5 2848.44 1039.08 Q2846.57 1037.65 2843.05 1037.65 Q2841.13 1037.65 2838.93 1038.06 Q2836.73 1038.48 2834.09 1039.36 L2834.09 1035.19 Q2836.75 1034.45 2839.07 1034.08 Q2841.4 1033.71 2843.46 1033.71 Q2848.79 1033.71 2851.89 1036.14 Q2854.99 1038.55 2854.99 1042.67 Q2854.99 1045.54 2853.35 1047.53 Q2851.7 1049.5 2848.67 1050.26 Z" fill="#000000" fill-rule="evenodd" fill-opacity="1" /><path clip-path="url(#clip740)" d="M2874.67 1037.42 Q2871.06 1037.42 2869.23 1040.98 Q2867.42 1044.52 2867.42 1051.65 Q2867.42 1058.76 2869.23 1062.32 Q2871.06 1065.87 2874.67 1065.87 Q2878.3 1065.87 2880.11 1062.32 Q2881.94 1058.76 2881.94 1051.65 Q2881.94 1044.52 2880.11 1040.98 Q2878.3 1037.42 2874.67 1037.42 M2874.67 1033.71 Q2880.48 1033.71 2883.53 1038.32 Q2886.61 1042.9 2886.61 1051.65 Q2886.61 1060.38 2883.53 1064.99 Q2880.48 1069.57 2874.67 1069.57 Q2868.86 1069.57 2865.78 1064.99 Q2862.72 1060.38 2862.72 1051.65 Q2862.72 1042.9 2865.78 1038.32 Q2868.86 1033.71 2874.67 1033.71 Z" fill="#000000" fill-rule="evenodd" fill-opacity="1" /><path clip-path="url(#clip740)" d="M2904.83 1037.42 Q2901.22 1037.42 2899.39 1040.98 Q2897.58 1044.52 2897.58 1051.65 Q2897.58 1058.76 2899.39 1062.32 Q2901.22 1065.87 2904.83 1065.87 Q2908.46 1065.87 2910.27 1062.32 Q2912.1 1058.76 2912.1 1051.65 Q2912.1 1044.52 2910.27 1040.98 Q2908.46 1037.42 2904.83 1037.42 M2904.83 1033.71 Q2910.64 1033.71 2913.69 1038.32 Q2916.77 1042.9 2916.77 1051.65 Q2916.77 1060.38 2913.69 1064.99 Q2910.64 1069.57 2904.83 1069.57 Q2899.02 1069.57 2895.94 1064.99 Q2892.88 1060.38 2892.88 1051.65 Q2892.88 1042.9 2895.94 1038.32 Q2899.02 1033.71 2904.83 1033.71 Z" fill="#000000" fill-rule="evenodd" fill-opacity="1" /><path clip-path="url(#clip740)" d="M1556.64 1109.44 L1563.07 1109.44 L1563.07 1151.55 L1586.21 1151.55 L1586.21 1156.96 L1556.64 1156.96 L1556.64 1109.44 Z" fill="#000000" fill-rule="evenodd" fill-opacity="1" /><path clip-path="url(#clip740)" d="M1592.7 1121.31 L1598.56 1121.31 L1598.56 1156.96 L1592.7 1156.96 L1592.7 1121.31 M1592.7 1107.44 L1598.56 1107.44 L1598.56 1114.85 L1592.7 1114.85 L1592.7 1107.44 Z" fill="#000000" fill-rule="evenodd" fill-opacity="1" /><path clip-path="url(#clip740)" d="M1640.44 1135.45 L1640.44 1156.96 L1634.59 1156.96 L1634.59 1135.64 Q1634.59 1130.58 1632.61 1128.06 Q1630.64 1125.55 1626.69 1125.55 Q1621.95 1125.55 1619.21 1128.57 Q1616.48 1131.59 1616.48 1136.81 L1616.48 1156.96 L1610.59 1156.96 L1610.59 1121.31 L1616.48 1121.31 L1616.48 1126.85 Q1618.58 1123.64 1621.41 1122.05 Q1624.27 1120.45 1628 1120.45 Q1634.14 1120.45 1637.29 1124.27 Q1640.44 1128.06 1640.44 1135.45 Z" fill="#000000" fill-rule="evenodd" fill-opacity="1" /><path clip-path="url(#clip740)" d="M1682.62 1137.67 L1682.62 1140.54 L1655.69 1140.54 Q1656.07 1146.59 1659.32 1149.77 Q1662.6 1152.92 1668.42 1152.92 Q1671.79 1152.92 1674.95 1152.09 Q1678.13 1151.26 1681.25 1149.61 L1681.25 1155.15 Q1678.1 1156.48 1674.79 1157.18 Q1671.48 1157.88 1668.07 1157.88 Q1659.54 1157.88 1654.54 1152.92 Q1649.58 1147.95 1649.58 1139.49 Q1649.58 1130.74 1654.29 1125.61 Q1659.03 1120.45 1667.05 1120.45 Q1674.25 1120.45 1678.42 1125.1 Q1682.62 1129.72 1682.62 1137.67 M1676.76 1135.95 Q1676.7 1131.15 1674.05 1128.28 Q1671.44 1125.42 1667.12 1125.42 Q1662.21 1125.42 1659.25 1128.19 Q1656.33 1130.96 1655.88 1135.99 L1676.76 1135.95 Z" fill="#000000" fill-rule="evenodd" fill-opacity="1" /><path clip-path="url(#clip740)" d="M1708.43 1139.04 Q1701.33 1139.04 1698.59 1140.67 Q1695.86 1142.29 1695.86 1146.2 Q1695.86 1149.32 1697.89 1151.17 Q1699.96 1152.98 1703.5 1152.98 Q1708.37 1152.98 1711.29 1149.55 Q1714.25 1146.08 1714.25 1140.35 L1714.25 1139.04 L1708.43 1139.04 M1720.11 1136.62 L1720.11 1156.96 L1714.25 1156.96 L1714.25 1151.55 Q1712.25 1154.8 1709.26 1156.36 Q1706.27 1157.88 1701.94 1157.88 Q1696.46 1157.88 1693.22 1154.83 Q1690 1151.74 1690 1146.59 Q1690 1140.57 1694.01 1137.51 Q1698.05 1134.46 1706.04 1134.46 L1714.25 1134.46 L1714.25 1133.89 Q1714.25 1129.84 1711.58 1127.65 Q1708.94 1125.42 1704.13 1125.42 Q1701.08 1125.42 1698.18 1126.15 Q1695.28 1126.88 1692.61 1128.35 L1692.61 1122.94 Q1695.83 1121.7 1698.85 1121.09 Q1701.87 1120.45 1704.74 1120.45 Q1712.47 1120.45 1716.29 1124.46 Q1720.11 1128.48 1720.11 1136.62 Z" fill="#000000" fill-rule="evenodd" fill-opacity="1" /><path clip-path="url(#clip740)" d="M1755.63 1138.72 Q1755.63 1132.36 1752.99 1128.86 Q1750.38 1125.36 1745.64 1125.36 Q1740.93 1125.36 1738.28 1128.86 Q1735.67 1132.36 1735.67 1138.72 Q1735.67 1145.06 1738.28 1148.56 Q1740.93 1152.06 1745.64 1152.06 Q1750.38 1152.06 1752.99 1148.56 Q1755.63 1145.06 1755.63 1138.72 M1761.49 1152.54 Q1761.49 1161.64 1757.45 1166.06 Q1753.4 1170.52 1745.06 1170.52 Q1741.98 1170.52 1739.24 1170.04 Q1736.5 1169.6 1733.92 1168.64 L1733.92 1162.95 Q1736.5 1164.35 1739.02 1165.01 Q1741.53 1165.68 1744.14 1165.68 Q1749.9 1165.68 1752.77 1162.66 Q1755.63 1159.67 1755.63 1153.59 L1755.63 1150.69 Q1753.82 1153.84 1750.98 1155.4 Q1748.15 1156.96 1744.2 1156.96 Q1737.65 1156.96 1733.64 1151.96 Q1729.63 1146.97 1729.63 1138.72 Q1729.63 1130.45 1733.64 1125.45 Q1737.65 1120.45 1744.2 1120.45 Q1748.15 1120.45 1750.98 1122.01 Q1753.82 1123.57 1755.63 1126.72 L1755.63 1121.31 L1761.49 1121.31 L1761.49 1152.54 Z" fill="#000000" fill-rule="evenodd" fill-opacity="1" /><path clip-path="url(#clip740)" d="M1804.04 1137.67 L1804.04 1140.54 L1777.12 1140.54 Q1777.5 1146.59 1780.74 1149.77 Q1784.02 1152.92 1789.85 1152.92 Q1793.22 1152.92 1796.37 1152.09 Q1799.55 1151.26 1802.67 1149.61 L1802.67 1155.15 Q1799.52 1156.48 1796.21 1157.18 Q1792.9 1157.88 1789.5 1157.88 Q1780.97 1157.88 1775.97 1152.92 Q1771 1147.95 1771 1139.49 Q1771 1130.74 1775.71 1125.61 Q1780.46 1120.45 1788.48 1120.45 Q1795.67 1120.45 1799.84 1125.1 Q1804.04 1129.72 1804.04 1137.67 M1798.19 1135.95 Q1798.12 1131.15 1795.48 1128.28 Q1792.87 1125.42 1788.54 1125.42 Q1783.64 1125.42 1780.68 1128.19 Q1777.75 1130.96 1777.31 1135.99 L1798.19 1135.95 Z" fill="#000000" fill-rule="evenodd" fill-opacity="1" /><polyline clip-path="url(#clip742)" style="stroke:#000000; stroke-linecap:round; stroke-linejoin:round; stroke-width:2; stroke-opacity:0.1; fill:none" points="
  270.918,1000.1 3089.76,1000.1 
  "/>
<polyline clip-path="url(#clip742)" style="stroke:#000000; stroke-linecap:round; stroke-linejoin:round; stroke-width:2; stroke-opacity:0.1; fill:none" points="
  270.918,669.792 3089.76,669.792 
  "/>
<polyline clip-path="url(#clip742)" style="stroke:#000000; stroke-linecap:round; stroke-linejoin:round; stroke-width:2; stroke-opacity:0.1; fill:none" points="
  270.918,339.487 3089.76,339.487 
  "/>
<polyline clip-path="url(#clip740)" style="stroke:#000000; stroke-linecap:round; stroke-linejoin:round; stroke-width:4; stroke-opacity:1; fill:none" points="
  270.918,1000.1 270.918,110.236 
  "/>
<polyline clip-path="url(#clip740)" style="stroke:#000000; stroke-linecap:round; stroke-linejoin:round; stroke-width:4; stroke-opacity:1; fill:none" points="
  270.918,1000.1 289.815,1000.1 
  "/>
<polyline clip-path="url(#clip740)" style="stroke:#000000; stroke-linecap:round; stroke-linejoin:round; stroke-width:4; stroke-opacity:1; fill:none" points="
  270.918,669.792 289.815,669.792 
  "/>
<polyline clip-path="url(#clip740)" style="stroke:#000000; stroke-linecap:round; stroke-linejoin:round; stroke-width:4; stroke-opacity:1; fill:none" points="
  270.918,339.487 289.815,339.487 
  "/>
<path clip-path="url(#clip740)" d="M154.902 1019.89 L162.54 1019.89 L162.54 993.525 L154.23 995.191 L154.23 990.932 L162.494 989.265 L167.17 989.265 L167.17 1019.89 L174.809 1019.89 L174.809 1023.83 L154.902 1023.83 L154.902 1019.89 Z" fill="#000000" fill-rule="evenodd" fill-opacity="1" /><path clip-path="url(#clip740)" d="M194.253 992.344 Q190.642 992.344 188.813 995.909 Q187.008 999.45 187.008 1006.58 Q187.008 1013.69 188.813 1017.25 Q190.642 1020.79 194.253 1020.79 Q197.887 1020.79 199.693 1017.25 Q201.522 1013.69 201.522 1006.58 Q201.522 999.45 199.693 995.909 Q197.887 992.344 194.253 992.344 M194.253 988.64 Q200.063 988.64 203.119 993.247 Q206.198 997.83 206.198 1006.58 Q206.198 1015.31 203.119 1019.91 Q200.063 1024.5 194.253 1024.5 Q188.443 1024.5 185.364 1019.91 Q182.309 1015.31 182.309 1006.58 Q182.309 997.83 185.364 993.247 Q188.443 988.64 194.253 988.64 Z" fill="#000000" fill-rule="evenodd" fill-opacity="1" /><path clip-path="url(#clip740)" d="M206.743 993.218 L212.95 993.218 L212.95 971.796 L206.198 973.15 L206.198 969.689 L212.912 968.335 L216.711 968.335 L216.711 993.218 L222.918 993.218 L222.918 996.415 L206.743 996.415 L206.743 993.218 Z" fill="#000000" fill-rule="evenodd" fill-opacity="1" /><path clip-path="url(#clip740)" d="M153.792 689.585 L161.431 689.585 L161.431 663.219 L153.121 664.886 L153.121 660.627 L161.384 658.96 L166.06 658.96 L166.06 689.585 L173.699 689.585 L173.699 693.52 L153.792 693.52 L153.792 689.585 Z" fill="#000000" fill-rule="evenodd" fill-opacity="1" /><path clip-path="url(#clip740)" d="M193.143 662.039 Q189.532 662.039 187.704 665.603 Q185.898 669.145 185.898 676.275 Q185.898 683.381 187.704 686.946 Q189.532 690.487 193.143 690.487 Q196.778 690.487 198.583 686.946 Q200.412 683.381 200.412 676.275 Q200.412 669.145 198.583 665.603 Q196.778 662.039 193.143 662.039 M193.143 658.335 Q198.954 658.335 202.009 662.941 Q205.088 667.525 205.088 676.275 Q205.088 685.001 202.009 689.608 Q198.954 694.191 193.143 694.191 Q187.333 694.191 184.255 689.608 Q181.199 685.001 181.199 676.275 Q181.199 667.525 184.255 662.941 Q187.333 658.335 193.143 658.335 Z" fill="#000000" fill-rule="evenodd" fill-opacity="1" /><path clip-path="url(#clip740)" d="M209.658 662.912 L222.918 662.912 L222.918 666.109 L205.088 666.109 L205.088 662.912 Q207.251 660.674 210.975 656.912 Q214.717 653.132 215.677 652.041 Q217.501 649.991 218.216 648.581 Q218.949 647.151 218.949 645.778 Q218.949 643.54 217.369 642.13 Q215.808 640.719 213.288 640.719 Q211.501 640.719 209.508 641.34 Q207.533 641.96 205.276 643.22 L205.276 639.384 Q207.57 638.462 209.564 637.992 Q211.558 637.522 213.213 637.522 Q217.576 637.522 220.172 639.703 Q222.767 641.885 222.767 645.534 Q222.767 647.264 222.109 648.825 Q221.469 650.367 219.758 652.474 Q219.288 653.019 216.767 655.634 Q214.247 658.229 209.658 662.912 Z" fill="#000000" fill-rule="evenodd" fill-opacity="1" /><path clip-path="url(#clip740)" d="M153.134 359.279 L160.772 359.279 L160.772 332.914 L152.462 334.58 L152.462 330.321 L160.726 328.654 L165.402 328.654 L165.402 359.279 L173.041 359.279 L173.041 363.214 L153.134 363.214 L153.134 359.279 Z" fill="#000000" fill-rule="evenodd" fill-opacity="1" /><path clip-path="url(#clip740)" d="M192.485 331.733 Q188.874 331.733 187.045 335.298 Q185.24 338.84 185.24 345.969 Q185.24 353.076 187.045 356.64 Q188.874 360.182 192.485 360.182 Q196.119 360.182 197.925 356.64 Q199.754 353.076 199.754 345.969 Q199.754 338.84 197.925 335.298 Q196.119 331.733 192.485 331.733 M192.485 328.029 Q198.295 328.029 201.351 332.636 Q204.43 337.219 204.43 345.969 Q204.43 354.696 201.351 359.302 Q198.295 363.886 192.485 363.886 Q186.675 363.886 183.596 359.302 Q180.541 354.696 180.541 345.969 Q180.541 337.219 183.596 332.636 Q186.675 328.029 192.485 328.029 Z" fill="#000000" fill-rule="evenodd" fill-opacity="1" /><path clip-path="url(#clip740)" d="M217.125 320.664 Q219.852 321.247 221.375 323.09 Q222.918 324.933 222.918 327.641 Q222.918 331.798 220.059 334.074 Q217.2 336.349 211.934 336.349 Q210.166 336.349 208.285 335.992 Q206.423 335.654 204.43 334.958 L204.43 331.29 Q206.009 332.212 207.89 332.682 Q209.771 333.152 211.821 333.152 Q215.395 333.152 217.256 331.742 Q219.137 330.331 219.137 327.641 Q219.137 325.159 217.388 323.767 Q215.658 322.356 212.555 322.356 L209.282 322.356 L209.282 319.234 L212.705 319.234 Q215.507 319.234 216.993 318.125 Q218.479 316.996 218.479 314.89 Q218.479 312.727 216.937 311.58 Q215.413 310.414 212.555 310.414 Q210.994 310.414 209.207 310.752 Q207.42 311.091 205.276 311.805 L205.276 308.42 Q207.439 307.818 209.32 307.517 Q211.219 307.216 212.893 307.216 Q217.219 307.216 219.739 309.191 Q222.259 311.147 222.259 314.495 Q222.259 316.827 220.924 318.444 Q219.589 320.043 217.125 320.664 Z" fill="#000000" fill-rule="evenodd" fill-opacity="1" /><path clip-path="url(#clip740)" d="M42.6863 825.789 L42.6863 795.743 L48.0971 795.743 L48.0971 819.36 L62.1653 819.36 L62.1653 796.73 L67.5762 796.73 L67.5762 819.36 L84.7954 819.36 L84.7954 795.17 L90.2063 795.17 L90.2063 825.789 L42.6863 825.789 Z" fill="#000000" fill-rule="evenodd" fill-opacity="1" /><path clip-path="url(#clip740)" d="M44.2459 756.116 L50.5161 756.116 Q48.7655 759.777 47.9062 763.023 Q47.0468 766.27 47.0468 769.293 Q47.0468 774.545 49.0838 777.41 Q51.1208 780.242 54.8766 780.242 Q58.0276 780.242 59.6509 778.365 Q61.2423 776.455 62.229 771.171 L63.0247 767.288 Q64.3933 760.095 67.8627 756.689 Q71.3001 753.252 77.0929 753.252 Q83.9997 753.252 87.5645 757.899 Q91.1293 762.514 91.1293 771.458 Q91.1293 774.832 90.3654 778.651 Q89.6015 782.439 88.1056 786.513 L81.4853 786.513 Q83.6814 782.598 84.7954 778.842 Q85.9094 775.086 85.9094 771.458 Q85.9094 765.951 83.7451 762.96 Q81.5808 759.968 77.5704 759.968 Q74.0692 759.968 72.0958 762.132 Q70.1225 764.265 69.1358 769.166 L68.3719 773.081 Q66.9396 780.274 63.8841 783.489 Q60.8285 786.704 55.3859 786.704 Q49.0838 786.704 45.4554 782.279 Q41.8269 777.823 41.8269 770.025 Q41.8269 766.683 42.4317 763.214 Q43.0364 759.745 44.2459 756.116 Z" fill="#000000" fill-rule="evenodd" fill-opacity="1" /><path clip-path="url(#clip740)" d="M44.2459 714.739 L50.5161 714.739 Q48.7655 718.4 47.9062 721.646 Q47.0468 724.893 47.0468 727.916 Q47.0468 733.168 49.0838 736.033 Q51.1208 738.865 54.8766 738.865 Q58.0276 738.865 59.6509 736.987 Q61.2423 735.078 62.229 729.794 L63.0247 725.911 Q64.3933 718.718 67.8627 715.312 Q71.3001 711.875 77.0929 711.875 Q83.9997 711.875 87.5645 716.522 Q91.1293 721.137 91.1293 730.081 Q91.1293 733.454 90.3654 737.274 Q89.6015 741.062 88.1056 745.136 L81.4853 745.136 Q83.6814 741.221 84.7954 737.465 Q85.9094 733.709 85.9094 730.081 Q85.9094 724.574 83.7451 721.582 Q81.5808 718.591 77.5704 718.591 Q74.0692 718.591 72.0958 720.755 Q70.1225 722.887 69.1358 727.789 L68.3719 731.704 Q66.9396 738.897 63.8841 742.112 Q60.8285 745.327 55.3859 745.327 Q49.0838 745.327 45.4554 740.902 Q41.8269 736.446 41.8269 728.648 Q41.8269 725.306 42.4317 721.837 Q43.0364 718.368 44.2459 714.739 Z" fill="#000000" fill-rule="evenodd" fill-opacity="1" /><path clip-path="url(#clip740)" d="M82.1218 700.607 L82.1218 693.892 L90.2063 693.892 L90.2063 700.607 L82.1218 700.607 M56.4999 700.607 L56.4999 693.892 L64.5843 693.892 L64.5843 700.607 L56.4999 700.607 Z" fill="#000000" fill-rule="evenodd" fill-opacity="1" /><path clip-path="url(#clip740)" d="M42.6863 659.899 L42.6863 653.438 L71.5548 653.438 Q79.1936 653.438 82.5674 650.668 Q85.9094 647.899 85.9094 641.693 Q85.9094 635.518 82.5674 632.749 Q79.1936 629.98 71.5548 629.98 L42.6863 629.98 L42.6863 623.519 L72.3505 623.519 Q81.6444 623.519 86.3869 628.134 Q91.1293 632.717 91.1293 641.693 Q91.1293 650.7 86.3869 655.315 Q81.6444 659.899 72.3505 659.899 L42.6863 659.899 Z" fill="#000000" fill-rule="evenodd" fill-opacity="1" /><path clip-path="url(#clip740)" d="M44.2459 582.969 L50.5161 582.969 Q48.7655 586.629 47.9062 589.876 Q47.0468 593.122 47.0468 596.146 Q47.0468 601.398 49.0838 604.262 Q51.1208 607.095 54.8766 607.095 Q58.0276 607.095 59.6509 605.217 Q61.2423 603.308 62.229 598.024 L63.0247 594.141 Q64.3933 586.948 67.8627 583.542 Q71.3001 580.105 77.0929 580.105 Q83.9997 580.105 87.5645 584.752 Q91.1293 589.367 91.1293 598.311 Q91.1293 601.684 90.3654 605.504 Q89.6015 609.291 88.1056 613.365 L81.4853 613.365 Q83.6814 609.451 84.7954 605.695 Q85.9094 601.939 85.9094 598.311 Q85.9094 592.804 83.7451 589.812 Q81.5808 586.82 77.5704 586.82 Q74.0692 586.82 72.0958 588.985 Q70.1225 591.117 69.1358 596.019 L68.3719 599.934 Q66.9396 607.127 63.8841 610.342 Q60.8285 613.556 55.3859 613.556 Q49.0838 613.556 45.4554 609.132 Q41.8269 604.676 41.8269 596.878 Q41.8269 593.536 42.4317 590.067 Q43.0364 586.598 44.2459 582.969 Z" fill="#000000" fill-rule="evenodd" fill-opacity="1" /><path clip-path="url(#clip740)" d="M49.0202 552.987 L72.6688 561.708 L72.6688 544.234 L49.0202 552.987 M42.6863 556.615 L42.6863 549.326 L90.2063 531.216 L90.2063 537.9 L78.016 542.229 L78.016 563.649 L90.2063 567.978 L90.2063 574.757 L42.6863 556.615 Z" fill="#000000" fill-rule="evenodd" fill-opacity="1" /><path clip-path="url(#clip740)" d="M82.1218 523.036 L82.1218 516.32 L87.5963 516.32 L97.7815 521.54 L97.7815 525.646 L87.5963 523.036 L82.1218 523.036 Z" fill="#000000" fill-rule="evenodd" fill-opacity="1" /><path clip-path="url(#clip740)" d="M44.4369 477.298 L54.5583 477.298 L54.5583 465.235 L59.1098 465.235 L59.1098 477.298 L78.4616 477.298 Q82.8221 477.298 84.0634 476.121 Q85.3047 474.911 85.3047 471.251 L85.3047 465.235 L90.2063 465.235 L90.2063 471.251 Q90.2063 478.031 87.6918 480.609 Q85.1455 483.187 78.4616 483.187 L59.1098 483.187 L59.1098 487.484 L54.5583 487.484 L54.5583 483.187 L44.4369 483.187 L44.4369 477.298 Z" fill="#000000" fill-rule="evenodd" fill-opacity="1" /><path clip-path="url(#clip740)" d="M54.5583 457.533 L54.5583 451.676 L90.2063 451.676 L90.2063 457.533 L54.5583 457.533 M40.6811 457.533 L40.6811 451.676 L48.0971 451.676 L48.0971 457.533 L40.6811 457.533 Z" fill="#000000" fill-rule="evenodd" fill-opacity="1" /><path clip-path="url(#clip740)" d="M61.4015 411.668 Q57.4547 409.472 55.5768 406.416 Q53.699 403.361 53.699 399.223 Q53.699 393.653 57.6139 390.629 Q61.4969 387.606 68.6902 387.606 L90.2063 387.606 L90.2063 393.494 L68.8812 393.494 Q63.7568 393.494 61.2741 395.308 Q58.7915 397.122 58.7915 400.846 Q58.7915 405.398 61.8152 408.04 Q64.8389 410.681 70.0588 410.681 L90.2063 410.681 L90.2063 416.57 L68.8812 416.57 Q63.7249 416.57 61.2741 418.384 Q58.7915 420.198 58.7915 423.986 Q58.7915 428.473 61.8471 431.115 Q64.8708 433.757 70.0588 433.757 L90.2063 433.757 L90.2063 439.645 L54.5583 439.645 L54.5583 433.757 L60.0965 433.757 Q56.8182 431.752 55.2586 428.951 Q53.699 426.15 53.699 422.299 Q53.699 418.416 55.6723 415.71 Q57.6457 412.973 61.4015 411.668 Z" fill="#000000" fill-rule="evenodd" fill-opacity="1" /><path clip-path="url(#clip740)" d="M70.9182 345.433 L73.7828 345.433 L73.7828 372.36 Q79.8302 371.978 83.013 368.731 Q86.1641 365.453 86.1641 359.628 Q86.1641 356.255 85.3365 353.104 Q84.509 349.921 82.8539 346.801 L88.3921 346.801 Q89.7289 349.953 90.4291 353.263 Q91.1293 356.573 91.1293 359.978 Q91.1293 368.509 86.1641 373.506 Q81.1988 378.471 72.7324 378.471 Q63.9796 378.471 58.8552 373.76 Q53.699 369.018 53.699 360.997 Q53.699 353.804 58.3459 349.634 Q62.9611 345.433 70.9182 345.433 M69.1995 351.289 Q64.3933 351.353 61.5288 353.995 Q58.6642 356.605 58.6642 360.933 Q58.6642 365.835 61.4333 368.795 Q64.2024 371.723 69.2313 372.169 L69.1995 351.289 Z" fill="#000000" fill-rule="evenodd" fill-opacity="1" /><path clip-path="url(#clip740)" d="M82.1218 334.325 L82.1218 327.609 L90.2063 327.609 L90.2063 334.325 L82.1218 334.325 M56.4999 334.325 L56.4999 327.609 L64.5843 327.609 L64.5843 334.325 L56.4999 334.325 Z" fill="#000000" fill-rule="evenodd" fill-opacity="1" /><path clip-path="url(#clip740)" d="M84.7954 311.917 L84.7954 301.414 L48.5427 301.414 L50.8344 312.84 L44.9779 312.84 L42.6863 301.478 L42.6863 295.048 L84.7954 295.048 L84.7954 284.545 L90.2063 284.545 L90.2063 311.917 L84.7954 311.917 Z" fill="#000000" fill-rule="evenodd" fill-opacity="1" /><polyline clip-path="url(#clip742)" style="stroke:#009af9; stroke-linecap:round; stroke-linejoin:round; stroke-width:4; stroke-opacity:1; fill:none" points="
  350.696,339.527 359.138,202.753 367.581,207.765 376.023,184.212 384.465,191.747 392.907,188.656 401.349,179.391 409.792,197.774 418.234,185.131 426.676,188.926 
  435.118,196.766 443.56,219.042 452.003,206.447 460.445,200.289 468.887,200.085 477.329,226.171 485.771,180.897 494.213,206.218 502.656,141.423 511.098,196.295 
  519.54,209.852 527.982,188.818 536.424,209.148 544.867,209.612 553.309,200.243 561.751,212.131 570.193,180.063 578.635,193.714 587.078,202.763 595.52,187.267 
  603.962,192.508 612.404,182.217 620.846,182.359 629.288,227.304 637.731,215.137 646.173,204.024 654.615,200.216 663.057,139.358 671.499,220.563 679.942,158.276 
  688.384,187.737 696.826,208.447 705.268,192.313 713.71,207.083 722.153,207.627 730.595,204.308 739.037,190.99 747.479,134.331 755.921,171.074 764.363,156.434 
  772.806,210.762 781.248,202.379 789.69,185.51 798.132,201.817 806.574,201.139 815.017,207.726 823.459,164.639 831.901,189.492 840.343,182.874 848.785,200.141 
  857.228,212.337 865.67,186.686 874.112,196.143 882.554,169.11 890.996,194.861 899.438,156.366 907.881,182.418 916.323,183.37 924.765,152.167 933.207,206.396 
  941.649,188.274 950.092,207.068 958.534,159.044 966.976,163.673 975.418,215.465 983.86,208.127 992.302,183.608 1000.74,204.535 1009.19,202.673 1017.63,179.8 
  1026.07,189.176 1034.51,217.965 1042.96,179.262 1051.4,205.42 1059.84,222.794 1068.28,193.859 1076.72,158.065 1085.17,167.836 1093.61,177.618 1102.05,203.677 
  1110.49,217.362 1118.94,185.593 1127.38,192.997 1135.82,215.229 1144.26,200.074 1152.7,210.858 1161.15,177.65 1169.59,188.966 1178.03,174.57 1186.47,208.627 
  1194.91,188.912 1203.36,191.91 1211.8,202.66 1220.24,191.944 1228.68,181.217 1237.13,209.422 1245.57,217.124 1254.01,152.831 1262.45,189.236 1270.89,198.862 
  1279.34,215.287 1287.78,210.598 1296.22,230.582 1304.66,185.975 1313.11,180.202 1321.55,156.234 1329.99,208.306 1338.43,144.397 1346.87,176.373 1355.32,171.454 
  1363.76,200.923 1372.2,231.589 1380.64,207.141 1389.09,171.862 1397.53,126.772 1405.97,169.084 1414.41,159.479 1422.85,153.516 1431.3,217.918 1439.74,204.387 
  1448.18,207.932 1456.62,199.874 1465.06,208.703 1473.51,183.603 1481.95,180.688 1490.39,190.923 1498.83,216.452 1507.28,217.781 1515.72,202.141 1524.16,195.876 
  1532.6,223.531 1541.04,202.111 1549.49,185.313 1557.93,181.997 1566.37,198.05 1574.81,161.08 1583.26,170.732 1591.7,163.349 1600.14,203.969 1608.58,147.07 
  1617.02,211.613 1625.47,208.449 1633.91,199.617 1642.35,206.254 1650.79,160.818 1659.24,139.632 1667.68,183.901 1676.12,170.294 1684.56,196.381 1693,218.914 
  1701.45,158.875 1709.89,217.757 1718.33,217.046 1726.77,153.603 1735.21,172.98 1743.66,165.023 1752.1,173.906 1760.54,202.778 1768.98,155.996 1777.43,177.259 
  1785.87,179.231 1794.31,209.889 1802.75,216.794 1811.19,172.261 1819.64,191.534 1828.08,208.655 1836.52,173.579 1844.96,188.163 1853.41,158.734 1861.85,209.568 
  1870.29,224.012 1878.73,157.006 1887.17,185.766 1895.62,133.33 1904.06,191.199 1912.5,198.501 1920.94,175.067 1929.39,157.672 1937.83,172.165 1946.27,170.194 
  1954.71,158.1 1963.15,188.508 1971.6,203.41 1980.04,212.759 1988.48,208.044 1996.92,179.191 2005.36,160.561 2013.81,153.31 2022.25,152.231 2030.69,121.26 
  2039.13,149.199 2047.58,191.816 2056.02,158.408 2064.46,154.02 2072.9,247.47 2081.34,202.168 2089.79,167.802 2098.23,150.609 2106.67,150.094 2115.11,206.902 
  2123.56,200.55 2132,203.377 2140.44,157.449 2148.88,171.851 2157.32,131.745 2165.77,196.616 2174.21,190.315 2182.65,212.468 2191.09,215.526 2199.54,213.48 
  2207.98,223.706 2216.42,191.433 2224.86,144.676 2233.3,162.243 2241.75,126.204 2250.19,158.378 2258.63,209.429 2267.07,165.522 2275.51,196.693 2283.96,206.338 
  2292.4,173.182 2300.84,189.612 2309.28,166.233 2317.73,218.865 2326.17,158.342 2334.61,191.006 2343.05,203.247 2351.49,206.002 2359.94,166.321 2368.38,191.848 
  2376.82,199.139 2385.26,201.331 2393.71,169.877 2402.15,192.698 2410.59,180.566 2419.03,110.236 2427.47,188.887 2435.92,240.587 2444.36,160.575 2452.8,197.261 
  2461.24,172.471 2469.69,147.765 2478.13,141.809 2486.57,180.567 2495.01,169.343 2503.45,185.946 2511.9,214.442 2520.34,202.377 2528.78,212.981 2537.22,210.714 
  2545.66,156.416 2554.11,160.807 2562.55,147.29 2570.99,218.914 2579.43,176.944 2587.88,212.902 2596.32,139.249 2604.76,173.184 2613.2,180.04 2621.64,206.356 
  2630.09,144.763 2638.53,172.359 2646.97,126.639 2655.41,195.828 2663.86,166.323 2672.3,192.582 2680.74,213.646 2689.18,199.874 2697.62,157.37 2706.07,183.68 
  2714.51,179.523 2722.95,196.609 2731.39,137.747 2739.84,150.001 2748.28,147.524 2756.72,197.667 2765.16,135.922 2773.6,204.127 2782.05,158.74 2790.49,166.395 
  2798.93,156.871 2807.37,171.049 2815.81,154.038 2824.26,213.53 2832.7,170.049 2841.14,154.902 2849.58,163.109 2858.03,169.856 2866.47,210.711 2874.91,207.33 
  2883.35,182.718 2891.79,171.757 2900.24,209.701 2908.68,159.461 2917.12,191.546 2925.56,207.677 2934.01,218.389 2942.45,200.809 2950.89,161.312 2959.33,156.533 
  2967.77,141.535 2976.22,167.182 2984.66,163.606 2993.1,194.249 3001.54,165.751 3009.99,178.102 
  "/>
</svg>
