<?xml version="1.0" encoding="utf-8"?>
<svg xmlns="http://www.w3.org/2000/svg" xmlns:xlink="http://www.w3.org/1999/xlink" width="800" height="300" viewBox="0 0 3200 1200">
<defs>
  <clipPath id="clip960">
    <rect x="0" y="0" width="3200" height="1200"/>
  </clipPath>
</defs>
<path clip-path="url(#clip960)" d="M0 1200 L3200 1200 L3200 0 L0 0  Z" fill="#ffffff" fill-rule="evenodd" fill-opacity="1"/>
<defs>
  <clipPath id="clip961">
    <rect x="640" y="0" width="2241" height="1200"/>
  </clipPath>
</defs>
<path clip-path="url(#clip960)" d="M270.918 1000.1 L3089.76 1000.1 L3089.76 110.236 L270.918 110.236  Z" fill="#ffffff" fill-rule="evenodd" fill-opacity="1"/>
<defs>
  <clipPath id="clip962">
    <rect x="270" y="110" width="2820" height="891"/>
  </clipPath>
</defs>
<polyline clip-path="url(#clip962)" style="stroke:#000000; stroke-linecap:round; stroke-linejoin:round; stroke-width:2; stroke-opacity:0.1; fill:none" points="328.899,1000.1 328.899,110.236 "/>
<polyline clip-path="url(#clip962)" style="stroke:#000000; stroke-linecap:round; stroke-linejoin:round; stroke-width:2; stroke-opacity:0.1; fill:none" points="764.848,1000.1 764.848,110.236 "/>
<polyline clip-path="url(#clip962)" style="stroke:#000000; stroke-linecap:round; stroke-linejoin:round; stroke-width:2; stroke-opacity:0.1; fill:none" points="1200.8,1000.1 1200.8,110.236 "/>
<polyline clip-path="url(#clip962)" style="stroke:#000000; stroke-linecap:round; stroke-linejoin:round; stroke-width:2; stroke-opacity:0.1; fill:none" points="1636.75,1000.1 1636.75,110.236 "/>
<polyline clip-path="url(#clip962)" style="stroke:#000000; stroke-linecap:round; stroke-linejoin:round; stroke-width:2; stroke-opacity:0.1; fill:none" points="2072.69,1000.1 2072.69,110.236 "/>
<polyline clip-path="url(#clip962)" style="stroke:#000000; stroke-linecap:round; stroke-linejoin:round; stroke-width:2; stroke-opacity:0.1; fill:none" points="2508.64,1000.1 2508.64,110.236 "/>
<polyline clip-path="url(#clip962)" style="stroke:#000000; stroke-linecap:round; stroke-linejoin:round; stroke-width:2; stroke-opacity:0.1; fill:none" points="2944.59,1000.1 2944.59,110.236 "/>
<polyline clip-path="url(#clip960)" style="stroke:#000000; stroke-linecap:round; stroke-linejoin:round; stroke-width:4; stroke-opacity:1; fill:none" points="270.918,1000.1 3089.76,1000.1 "/>
<polyline clip-path="url(#clip960)" style="stroke:#000000; stroke-linecap:round; stroke-linejoin:round; stroke-width:4; stroke-opacity:1; fill:none" points="328.899,1000.1 328.899,981.2 "/>
<polyline clip-path="url(#clip960)" style="stroke:#000000; stroke-linecap:round; stroke-linejoin:round; stroke-width:4; stroke-opacity:1; fill:none" points="764.848,1000.1 764.848,981.2 "/>
<polyline clip-path="url(#clip960)" style="stroke:#000000; stroke-linecap:round; stroke-linejoin:round; stroke-width:4; stroke-opacity:1; fill:none" points="1200.8,1000.1 1200.8,981.2 "/>
<polyline clip-path="url(#clip960)" style="stroke:#000000; stroke-linecap:round; stroke-linejoin:round; stroke-width:4; stroke-opacity:1; fill:none" points="1636.75,1000.1 1636.75,981.2 "/>
<polyline clip-path="url(#clip960)" style="stroke:#000000; stroke-linecap:round; stroke-linejoin:round; stroke-width:4; stroke-opacity:1; fill:none" points="2072.69,1000.1 2072.69,981.2 "/>
<polyline clip-path="url(#clip960)" style="stroke:#000000; stroke-linecap:round; stroke-linejoin:round; stroke-width:4; stroke-opacity:1; fill:none" points="2508.64,1000.1 2508.64,981.2 "/>
<polyline clip-path="url(#clip960)" style="stroke:#000000; stroke-linecap:round; stroke-linejoin:round; stroke-width:4; stroke-opacity:1; fill:none" points="2944.59,1000.1 2944.59,981.2 "/>
<path clip-path="url(#clip960)" d="M328.899 1037.42 Q325.288 1037.42 323.459 1040.98 Q321.654 1044.52 321.654 1051.65 Q321.654 1058.76 323.459 1062.32 Q325.288 1065.87 328.899 1065.87 Q332.533 1065.87 334.339 1062.32 Q336.167 1058.76 336.167 1051.65 Q336.167 1044.52 334.339 1040.98 Q332.533 1037.42 328.899 1037.42 M328.899 1033.71 Q334.709 1033.71 337.765 1038.32 Q340.843 1042.9 340.843 1051.65 Q340.843 1060.38 337.765 1064.99 Q334.709 1069.57 328.899 1069.57 Q323.089 1069.57 320.01 1064.99 Q316.954 1060.38 316.954 1051.65 Q316.954 1042.9 320.01 1038.32 Q323.089 1033.71 328.899 1033.71 Z" fill="#000000" fill-rule="nonzero" fill-opacity="1" /><path clip-path="url(#clip960)" d="M743.621 1064.96 L759.94 1064.96 L759.94 1068.9 L737.996 1068.9 L737.996 1064.96 Q740.658 1062.21 745.241 1057.58 Q749.848 1052.93 751.028 1051.58 Q753.274 1049.06 754.153 1047.32 Q755.056 1045.56 755.056 1043.87 Q755.056 1041.12 753.112 1039.38 Q751.191 1037.65 748.089 1037.65 Q745.89 1037.65 743.436 1038.41 Q741.005 1039.18 738.228 1040.73 L738.228 1036 Q741.052 1034.87 743.505 1034.29 Q745.959 1033.71 747.996 1033.71 Q753.366 1033.71 756.561 1036.4 Q759.755 1039.08 759.755 1043.57 Q759.755 1045.7 758.945 1047.62 Q758.158 1049.52 756.052 1052.12 Q755.473 1052.79 752.371 1056 Q749.269 1059.2 743.621 1064.96 Z" fill="#000000" fill-rule="nonzero" fill-opacity="1" /><path clip-path="url(#clip960)" d="M779.755 1037.42 Q776.144 1037.42 774.315 1040.98 Q772.51 1044.52 772.51 1051.65 Q772.51 1058.76 774.315 1062.32 Q776.144 1065.87 779.755 1065.87 Q783.389 1065.87 785.195 1062.32 Q787.024 1058.76 787.024 1051.65 Q787.024 1044.52 785.195 1040.98 Q783.389 1037.42 779.755 1037.42 M779.755 1033.71 Q785.565 1033.71 788.621 1038.32 Q791.7 1042.9 791.7 1051.65 Q791.7 1060.38 788.621 1064.99 Q785.565 1069.57 779.755 1069.57 Q773.945 1069.57 770.866 1064.99 Q767.811 1060.38 767.811 1051.65 Q767.811 1042.9 770.866 1038.32 Q773.945 1033.71 779.755 1033.71 Z" fill="#000000" fill-rule="nonzero" fill-opacity="1" /><path clip-path="url(#clip960)" d="M1188.97 1038.41 L1177.16 1056.86 L1188.97 1056.86 L1188.97 1038.41 M1187.74 1034.34 L1193.62 1034.34 L1193.62 1056.86 L1198.55 1056.86 L1198.55 1060.75 L1193.62 1060.75 L1193.62 1068.9 L1188.97 1068.9 L1188.97 1060.75 L1173.37 1060.75 L1173.37 1056.24 L1187.74 1034.34 Z" fill="#000000" fill-rule="nonzero" fill-opacity="1" /><path clip-path="url(#clip960)" d="M1216.28 1037.42 Q1212.67 1037.42 1210.84 1040.98 Q1209.04 1044.52 1209.04 1051.65 Q1209.04 1058.76 1210.84 1062.32 Q1212.67 1065.87 1216.28 1065.87 Q1219.92 1065.87 1221.72 1062.32 Q1223.55 1058.76 1223.55 1051.65 Q1223.55 1044.52 1221.72 1040.98 Q1219.92 1037.42 1216.28 1037.42 M1216.28 1033.71 Q1222.09 1033.71 1225.15 1038.32 Q1228.23 1042.9 1228.23 1051.65 Q1228.23 1060.38 1225.15 1064.99 Q1222.09 1069.57 1216.28 1069.57 Q1210.47 1069.57 1207.39 1064.99 Q1204.34 1060.38 1204.34 1051.65 Q1204.34 1042.9 1207.39 1038.32 Q1210.47 1033.71 1216.28 1033.71 Z" fill="#000000" fill-rule="nonzero" fill-opacity="1" /><path clip-path="url(#clip960)" d="M1622.15 1049.75 Q1619 1049.75 1617.15 1051.91 Q1615.32 1054.06 1615.32 1057.81 Q1615.32 1061.54 1617.15 1063.71 Q1619 1065.87 1622.15 1065.87 Q1625.3 1065.87 1627.13 1063.71 Q1628.98 1061.54 1628.98 1057.81 Q1628.98 1054.06 1627.13 1051.91 Q1625.3 1049.75 1622.15 1049.75 M1631.43 1035.1 L1631.43 1039.36 Q1629.67 1038.53 1627.87 1038.09 Q1626.09 1037.65 1624.33 1037.65 Q1619.7 1037.65 1617.24 1040.77 Q1614.81 1043.9 1614.47 1050.22 Q1615.83 1048.2 1617.89 1047.14 Q1619.95 1046.05 1622.43 1046.05 Q1627.64 1046.05 1630.65 1049.22 Q1633.68 1052.37 1633.68 1057.81 Q1633.68 1063.13 1630.53 1066.35 Q1627.38 1069.57 1622.15 1069.57 Q1616.16 1069.57 1612.98 1064.99 Q1609.81 1060.38 1609.81 1051.65 Q1609.81 1043.46 1613.7 1038.6 Q1617.59 1033.71 1624.14 1033.71 Q1625.9 1033.71 1627.68 1034.06 Q1629.49 1034.41 1631.43 1035.1 Z" fill="#000000" fill-rule="nonzero" fill-opacity="1" /><path clip-path="url(#clip960)" d="M1651.73 1037.42 Q1648.12 1037.42 1646.29 1040.98 Q1644.49 1044.52 1644.49 1051.65 Q1644.49 1058.76 1646.29 1062.32 Q1648.12 1065.87 1651.73 1065.87 Q1655.37 1065.87 1657.17 1062.32 Q1659 1058.76 1659 1051.65 Q1659 1044.52 1657.17 1040.98 Q1655.37 1037.42 1651.73 1037.42 M1651.73 1033.71 Q1657.54 1033.71 1660.6 1038.32 Q1663.68 1042.9 1663.68 1051.65 Q1663.68 1060.38 1660.6 1064.99 Q1657.54 1069.57 1651.73 1069.57 Q1645.92 1069.57 1642.85 1064.99 Q1639.79 1060.38 1639.79 1051.65 Q1639.79 1042.9 1642.85 1038.32 Q1645.92 1033.71 1651.73 1033.71 Z" fill="#000000" fill-rule="nonzero" fill-opacity="1" /><path clip-path="url(#clip960)" d="M2057.57 1052.49 Q2054.23 1052.49 2052.31 1054.27 Q2050.41 1056.05 2050.41 1059.18 Q2050.41 1062.3 2052.31 1064.08 Q2054.23 1065.87 2057.57 1065.87 Q2060.9 1065.87 2062.82 1064.08 Q2064.74 1062.28 2064.74 1059.18 Q2064.74 1056.05 2062.82 1054.27 Q2060.92 1052.49 2057.57 1052.49 M2052.89 1050.5 Q2049.88 1049.75 2048.19 1047.69 Q2046.53 1045.63 2046.53 1042.67 Q2046.53 1038.53 2049.47 1036.12 Q2052.43 1033.71 2057.57 1033.71 Q2062.73 1033.71 2065.67 1036.12 Q2068.61 1038.53 2068.61 1042.67 Q2068.61 1045.63 2066.92 1047.69 Q2065.25 1049.75 2062.27 1050.5 Q2065.65 1051.28 2067.52 1053.57 Q2069.42 1055.87 2069.42 1059.18 Q2069.42 1064.2 2066.34 1066.88 Q2063.29 1069.57 2057.57 1069.57 Q2051.85 1069.57 2048.77 1066.88 Q2045.72 1064.2 2045.72 1059.18 Q2045.72 1055.87 2047.61 1053.57 Q2049.51 1051.28 2052.89 1050.5 M2051.18 1043.11 Q2051.18 1045.8 2052.85 1047.3 Q2054.54 1048.81 2057.57 1048.81 Q2060.58 1048.81 2062.27 1047.3 Q2063.98 1045.8 2063.98 1043.11 Q2063.98 1040.43 2062.27 1038.92 Q2060.58 1037.42 2057.57 1037.42 Q2054.54 1037.42 2052.85 1038.92 Q2051.18 1040.43 2051.18 1043.11 Z" fill="#000000" fill-rule="nonzero" fill-opacity="1" /><path clip-path="url(#clip960)" d="M2087.73 1037.42 Q2084.12 1037.42 2082.29 1040.98 Q2080.48 1044.52 2080.48 1051.65 Q2080.48 1058.76 2082.29 1062.32 Q2084.12 1065.87 2087.73 1065.87 Q2091.36 1065.87 2093.17 1062.32 Q2095 1058.76 2095 1051.65 Q2095 1044.52 2093.17 1040.98 Q2091.36 1037.42 2087.73 1037.42 M2087.73 1033.71 Q2093.54 1033.71 2096.6 1038.32 Q2099.67 1042.9 2099.67 1051.65 Q2099.67 1060.38 2096.6 1064.99 Q2093.54 1069.57 2087.73 1069.57 Q2081.92 1069.57 2078.84 1064.99 Q2075.79 1060.38 2075.79 1051.65 Q2075.79 1042.9 2078.84 1038.32 Q2081.92 1033.71 2087.73 1033.71 Z" fill="#000000" fill-rule="nonzero" fill-opacity="1" /><path clip-path="url(#clip960)" d="M2468.25 1064.96 L2475.89 1064.96 L2475.89 1038.6 L2467.58 1040.26 L2467.58 1036 L2475.84 1034.34 L2480.52 1034.34 L2480.52 1064.96 L2488.16 1064.96 L2488.16 1068.9 L2468.25 1068.9 L2468.25 1064.96 Z" fill="#000000" fill-rule="nonzero" fill-opacity="1" /><path clip-path="url(#clip960)" d="M2507.6 1037.42 Q2503.99 1037.42 2502.16 1040.98 Q2500.36 1044.52 2500.36 1051.65 Q2500.36 1058.76 2502.16 1062.32 Q2503.99 1065.87 2507.6 1065.87 Q2511.24 1065.87 2513.04 1062.32 Q2514.87 1058.76 2514.87 1051.65 Q2514.87 1044.52 2513.04 1040.98 Q2511.24 1037.42 2507.6 1037.42 M2507.6 1033.71 Q2513.41 1033.71 2516.47 1038.32 Q2519.55 1042.9 2519.55 1051.65 Q2519.55 1060.38 2516.47 1064.99 Q2513.41 1069.57 2507.6 1069.57 Q2501.79 1069.57 2498.71 1064.99 Q2495.66 1060.38 2495.66 1051.65 Q2495.66 1042.9 2498.71 1038.32 Q2501.79 1033.71 2507.6 1033.71 Z" fill="#000000" fill-rule="nonzero" fill-opacity="1" /><path clip-path="url(#clip960)" d="M2537.76 1037.42 Q2534.15 1037.42 2532.32 1040.98 Q2530.52 1044.52 2530.52 1051.65 Q2530.52 1058.76 2532.32 1062.32 Q2534.15 1065.87 2537.76 1065.87 Q2541.4 1065.87 2543.2 1062.32 Q2545.03 1058.76 2545.03 1051.65 Q2545.03 1044.52 2543.2 1040.98 Q2541.4 1037.42 2537.76 1037.42 M2537.76 1033.71 Q2543.57 1033.71 2546.63 1038.32 Q2549.71 1042.9 2549.71 1051.65 Q2549.71 1060.38 2546.63 1064.99 Q2543.57 1069.57 2537.76 1069.57 Q2531.95 1069.57 2528.88 1064.99 Q2525.82 1060.38 2525.82 1051.65 Q2525.82 1042.9 2528.88 1038.32 Q2531.95 1033.71 2537.76 1033.71 Z" fill="#000000" fill-rule="nonzero" fill-opacity="1" /><path clip-path="url(#clip960)" d="M2904.2 1064.96 L2911.84 1064.96 L2911.84 1038.6 L2903.53 1040.26 L2903.53 1036 L2911.79 1034.34 L2916.47 1034.34 L2916.47 1064.96 L2924.11 1064.96 L2924.11 1068.9 L2904.2 1068.9 L2904.2 1064.96 Z" fill="#000000" fill-rule="nonzero" fill-opacity="1" /><path clip-path="url(#clip960)" d="M2937.58 1064.96 L2953.9 1064.96 L2953.9 1068.9 L2931.95 1068.9 L2931.95 1064.96 Q2934.62 1062.21 2939.2 1057.58 Q2943.81 1052.93 2944.99 1051.58 Q2947.23 1049.06 2948.11 1047.32 Q2949.01 1045.56 2949.01 1043.87 Q2949.01 1041.12 2947.07 1039.38 Q2945.15 1037.65 2942.05 1037.65 Q2939.85 1037.65 2937.39 1038.41 Q2934.96 1039.18 2932.19 1040.73 L2932.19 1036 Q2935.01 1034.87 2937.46 1034.29 Q2939.92 1033.71 2941.95 1033.71 Q2947.32 1033.71 2950.52 1036.4 Q2953.71 1039.08 2953.71 1043.57 Q2953.71 1045.7 2952.9 1047.62 Q2952.12 1049.52 2950.01 1052.12 Q2949.43 1052.79 2946.33 1056 Q2943.23 1059.2 2937.58 1064.96 Z" fill="#000000" fill-rule="nonzero" fill-opacity="1" /><path clip-path="url(#clip960)" d="M2973.71 1037.42 Q2970.1 1037.42 2968.27 1040.98 Q2966.47 1044.52 2966.47 1051.65 Q2966.47 1058.76 2968.27 1062.32 Q2970.1 1065.87 2973.71 1065.87 Q2977.35 1065.87 2979.15 1062.32 Q2980.98 1058.76 2980.98 1051.65 Q2980.98 1044.52 2979.15 1040.98 Q2977.35 1037.42 2973.71 1037.42 M2973.71 1033.71 Q2979.52 1033.71 2982.58 1038.32 Q2985.66 1042.9 2985.66 1051.65 Q2985.66 1060.38 2982.58 1064.99 Q2979.52 1069.57 2973.71 1069.57 Q2967.9 1069.57 2964.82 1064.99 Q2961.77 1060.38 2961.77 1051.65 Q2961.77 1042.9 2964.82 1038.32 Q2967.9 1033.71 2973.71 1033.71 Z" fill="#000000" fill-rule="nonzero" fill-opacity="1" /><path clip-path="url(#clip960)" d="M1556.64 1109.44 L1563.07 1109.44 L1563.07 1151.55 L1586.21 1151.55 L1586.21 1156.96 L1556.64 1156.96 L1556.64 1109.44 Z" fill="#000000" fill-rule="nonzero" fill-opacity="1" /><path clip-path="url(#clip960)" d="M1592.7 1121.31 L1598.56 1121.31 L1598.56 1156.96 L1592.7 1156.96 L1592.7 1121.31 M1592.7 1107.44 L1598.56 1107.44 L1598.56 1114.85 L1592.7 1114.85 L1592.7 1107.44 Z" fill="#000000" fill-rule="nonzero" fill-opacity="1" /><path clip-path="url(#clip960)" d="M1640.44 1135.45 L1640.44 1156.96 L1634.59 1156.96 L1634.59 1135.64 Q1634.59 1130.58 1632.61 1128.06 Q1630.64 1125.55 1626.69 1125.55 Q1621.95 1125.55 1619.21 1128.57 Q1616.48 1131.59 1616.48 1136.81 L1616.48 1156.96 L1610.59 1156.96 L1610.59 1121.31 L1616.48 1121.31 L1616.48 1126.85 Q1618.58 1123.64 1621.41 1122.05 Q1624.27 1120.45 1628 1120.45 Q1634.14 1120.45 1637.29 1124.27 Q1640.44 1128.06 1640.44 1135.45 Z" fill="#000000" fill-rule="nonzero" fill-opacity="1" /><path clip-path="url(#clip960)" d="M1682.62 1137.67 L1682.62 1140.54 L1655.69 1140.54 Q1656.07 1146.59 1659.32 1149.77 Q1662.6 1152.92 1668.42 1152.92 Q1671.79 1152.92 1674.95 1152.09 Q1678.13 1151.26 1681.25 1149.61 L1681.25 1155.15 Q1678.1 1156.48 1674.79 1157.18 Q1671.48 1157.88 1668.07 1157.88 Q1659.54 1157.88 1654.54 1152.92 Q1649.58 1147.95 1649.58 1139.49 Q1649.58 1130.74 1654.29 1125.61 Q1659.03 1120.45 1667.05 1120.45 Q1674.25 1120.45 1678.42 1125.1 Q1682.62 1129.72 1682.62 1137.67 M1676.76 1135.95 Q1676.7 1131.15 1674.05 1128.28 Q1671.44 1125.42 1667.12 1125.42 Q1662.21 1125.42 1659.25 1128.19 Q1656.33 1130.96 1655.88 1135.99 L1676.76 1135.95 Z" fill="#000000" fill-rule="nonzero" fill-opacity="1" /><path clip-path="url(#clip960)" d="M1708.43 1139.04 Q1701.33 1139.04 1698.59 1140.67 Q1695.86 1142.29 1695.86 1146.2 Q1695.86 1149.32 1697.89 1151.17 Q1699.96 1152.98 1703.5 1152.98 Q1708.37 1152.98 1711.29 1149.55 Q1714.25 1146.08 1714.25 1140.35 L1714.25 1139.04 L1708.43 1139.04 M1720.11 1136.62 L1720.11 1156.96 L1714.25 1156.96 L1714.25 1151.55 Q1712.25 1154.8 1709.26 1156.36 Q1706.27 1157.88 1701.94 1157.88 Q1696.46 1157.88 1693.22 1154.83 Q1690 1151.74 1690 1146.59 Q1690 1140.57 1694.01 1137.51 Q1698.05 1134.46 1706.04 1134.46 L1714.25 1134.46 L1714.25 1133.89 Q1714.25 1129.84 1711.58 1127.65 Q1708.94 1125.42 1704.13 1125.42 Q1701.08 1125.42 1698.18 1126.15 Q1695.28 1126.88 1692.61 1128.35 L1692.61 1122.94 Q1695.83 1121.7 1698.85 1121.09 Q1701.87 1120.45 1704.74 1120.45 Q1712.47 1120.45 1716.29 1124.46 Q1720.11 1128.48 1720.11 1136.62 Z" fill="#000000" fill-rule="nonzero" fill-opacity="1" /><path clip-path="url(#clip960)" d="M1755.63 1138.72 Q1755.63 1132.36 1752.99 1128.86 Q1750.38 1125.36 1745.64 1125.36 Q1740.93 1125.36 1738.28 1128.86 Q1735.67 1132.36 1735.67 1138.72 Q1735.67 1145.06 1738.28 1148.56 Q1740.93 1152.06 1745.64 1152.06 Q1750.38 1152.06 1752.99 1148.56 Q1755.63 1145.06 1755.63 1138.72 M1761.49 1152.54 Q1761.49 1161.64 1757.45 1166.06 Q1753.4 1170.52 1745.06 1170.52 Q1741.98 1170.52 1739.24 1170.04 Q1736.5 1169.6 1733.92 1168.64 L1733.92 1162.95 Q1736.5 1164.35 1739.02 1165.01 Q1741.53 1165.68 1744.14 1165.68 Q1749.9 1165.68 1752.77 1162.66 Q1755.63 1159.67 1755.63 1153.59 L1755.63 1150.69 Q1753.82 1153.84 1750.98 1155.4 Q1748.15 1156.96 1744.2 1156.96 Q1737.65 1156.96 1733.64 1151.96 Q1729.63 1146.97 1729.63 1138.72 Q1729.63 1130.45 1733.64 1125.45 Q1737.65 1120.45 1744.2 1120.45 Q1748.15 1120.45 1750.98 1122.01 Q1753.82 1123.57 1755.63 1126.72 L1755.63 1121.31 L1761.49 1121.31 L1761.49 1152.54 Z" fill="#000000" fill-rule="nonzero" fill-opacity="1" /><path clip-path="url(#clip960)" d="M1804.04 1137.67 L1804.04 1140.54 L1777.12 1140.54 Q1777.5 1146.59 1780.74 1149.77 Q1784.02 1152.92 1789.85 1152.92 Q1793.22 1152.92 1796.37 1152.09 Q1799.55 1151.26 1802.67 1149.61 L1802.67 1155.15 Q1799.52 1156.48 1796.21 1157.18 Q1792.9 1157.88 1789.5 1157.88 Q1780.97 1157.88 1775.97 1152.92 Q1771 1147.95 1771 1139.49 Q1771 1130.74 1775.71 1125.61 Q1780.46 1120.45 1788.48 1120.45 Q1795.67 1120.45 1799.84 1125.1 Q1804.04 1129.72 1804.04 1137.67 M1798.19 1135.95 Q1798.12 1131.15 1795.48 1128.28 Q1792.87 1125.42 1788.54 1125.42 Q1783.64 1125.42 1780.68 1128.19 Q1777.75 1130.96 1777.31 1135.99 L1798.19 1135.95 Z" fill="#000000" fill-rule="nonzero" fill-opacity="1" /><polyline clip-path="url(#clip962)" style="stroke:#000000; stroke-linecap:round; stroke-linejoin:round; stroke-width:2; stroke-opacity:0.1; fill:none" points="270.918,1000.1 3089.76,1000.1 "/>
<polyline clip-path="url(#clip962)" style="stroke:#000000; stroke-linecap:round; stroke-linejoin:round; stroke-width:2; stroke-opacity:0.1; fill:none" points="270.918,665.841 3089.76,665.841 "/>
<polyline clip-path="url(#clip962)" style="stroke:#000000; stroke-linecap:round; stroke-linejoin:round; stroke-width:2; stroke-opacity:0.1; fill:none" points="270.918,331.585 3089.76,331.585 "/>
<polyline clip-path="url(#clip960)" style="stroke:#000000; stroke-linecap:round; stroke-linejoin:round; stroke-width:4; stroke-opacity:1; fill:none" points="270.918,1000.1 270.918,110.236 "/>
<polyline clip-path="url(#clip960)" style="stroke:#000000; stroke-linecap:round; stroke-linejoin:round; stroke-width:4; stroke-opacity:1; fill:none" points="270.918,1000.1 289.815,1000.1 "/>
<polyline clip-path="url(#clip960)" style="stroke:#000000; stroke-linecap:round; stroke-linejoin:round; stroke-width:4; stroke-opacity:1; fill:none" points="270.918,665.841 289.815,665.841 "/>
<polyline clip-path="url(#clip960)" style="stroke:#000000; stroke-linecap:round; stroke-linejoin:round; stroke-width:4; stroke-opacity:1; fill:none" points="270.918,331.585 289.815,331.585 "/>
<path clip-path="url(#clip960)" d="M154.902 1019.89 L162.54 1019.89 L162.54 993.525 L154.23 995.191 L154.23 990.932 L162.494 989.265 L167.17 989.265 L167.17 1019.89 L174.809 1019.89 L174.809 1023.83 L154.902 1023.83 L154.902 1019.89 Z" fill="#000000" fill-rule="nonzero" fill-opacity="1" /><path clip-path="url(#clip960)" d="M194.253 992.344 Q190.642 992.344 188.813 995.909 Q187.008 999.45 187.008 1006.58 Q187.008 1013.69 188.813 1017.25 Q190.642 1020.79 194.253 1020.79 Q197.887 1020.79 199.693 1017.25 Q201.522 1013.69 201.522 1006.58 Q201.522 999.45 199.693 995.909 Q197.887 992.344 194.253 992.344 M194.253 988.64 Q200.063 988.64 203.119 993.247 Q206.198 997.83 206.198 1006.58 Q206.198 1015.31 203.119 1019.91 Q200.063 1024.5 194.253 1024.5 Q188.443 1024.5 185.364 1019.91 Q182.309 1015.31 182.309 1006.58 Q182.309 997.83 185.364 993.247 Q188.443 988.64 194.253 988.64 Z" fill="#000000" fill-rule="nonzero" fill-opacity="1" /><path clip-path="url(#clip960)" d="M206.743 993.218 L212.95 993.218 L212.95 971.796 L206.198 973.15 L206.198 969.689 L212.912 968.335 L216.711 968.335 L216.711 993.218 L222.918 993.218 L222.918 996.415 L206.743 996.415 L206.743 993.218 Z" fill="#000000" fill-rule="nonzero" fill-opacity="1" /><path clip-path="url(#clip960)" d="M153.792 685.634 L161.431 685.634 L161.431 659.268 L153.121 660.935 L153.121 656.676 L161.384 655.009 L166.06 655.009 L166.06 685.634 L173.699 685.634 L173.699 689.569 L153.792 689.569 L153.792 685.634 Z" fill="#000000" fill-rule="nonzero" fill-opacity="1" /><path clip-path="url(#clip960)" d="M193.143 658.088 Q189.532 658.088 187.704 661.653 Q185.898 665.194 185.898 672.324 Q185.898 679.43 187.704 682.995 Q189.532 686.537 193.143 686.537 Q196.778 686.537 198.583 682.995 Q200.412 679.43 200.412 672.324 Q200.412 665.194 198.583 661.653 Q196.778 658.088 193.143 658.088 M193.143 654.384 Q198.954 654.384 202.009 658.99 Q205.088 663.574 205.088 672.324 Q205.088 681.051 202.009 685.657 Q198.954 690.24 193.143 690.24 Q187.333 690.24 184.255 685.657 Q181.199 681.051 181.199 672.324 Q181.199 663.574 184.255 658.99 Q187.333 654.384 193.143 654.384 Z" fill="#000000" fill-rule="nonzero" fill-opacity="1" /><path clip-path="url(#clip960)" d="M209.658 658.961 L222.918 658.961 L222.918 662.159 L205.088 662.159 L205.088 658.961 Q207.251 656.723 210.975 652.962 Q214.717 649.181 215.677 648.09 Q217.501 646.04 218.216 644.63 Q218.949 643.2 218.949 641.827 Q218.949 639.589 217.369 638.179 Q215.808 636.768 213.288 636.768 Q211.501 636.768 209.508 637.389 Q207.533 638.009 205.276 639.27 L205.276 635.433 Q207.57 634.511 209.564 634.041 Q211.558 633.571 213.213 633.571 Q217.576 633.571 220.172 635.753 Q222.767 637.934 222.767 641.583 Q222.767 643.313 222.109 644.874 Q221.469 646.417 219.758 648.523 Q219.288 649.068 216.767 651.683 Q214.247 654.278 209.658 658.961 Z" fill="#000000" fill-rule="nonzero" fill-opacity="1" /><path clip-path="url(#clip960)" d="M153.134 351.378 L160.772 351.378 L160.772 325.012 L152.462 326.679 L152.462 322.419 L160.726 320.753 L165.402 320.753 L165.402 351.378 L173.041 351.378 L173.041 355.313 L153.134 355.313 L153.134 351.378 Z" fill="#000000" fill-rule="nonzero" fill-opacity="1" /><path clip-path="url(#clip960)" d="M192.485 323.831 Q188.874 323.831 187.045 327.396 Q185.24 330.938 185.24 338.067 Q185.24 345.174 187.045 348.739 Q188.874 352.28 192.485 352.28 Q196.119 352.28 197.925 348.739 Q199.754 345.174 199.754 338.067 Q199.754 330.938 197.925 327.396 Q196.119 323.831 192.485 323.831 M192.485 320.128 Q198.295 320.128 201.351 324.734 Q204.43 329.318 204.43 338.067 Q204.43 346.794 201.351 351.401 Q198.295 355.984 192.485 355.984 Q186.675 355.984 183.596 351.401 Q180.541 346.794 180.541 338.067 Q180.541 329.318 183.596 324.734 Q186.675 320.128 192.485 320.128 Z" fill="#000000" fill-rule="nonzero" fill-opacity="1" /><path clip-path="url(#clip960)" d="M217.125 312.762 Q219.852 313.345 221.375 315.188 Q222.918 317.031 222.918 319.74 Q222.918 323.896 220.059 326.172 Q217.2 328.448 211.934 328.448 Q210.166 328.448 208.285 328.09 Q206.423 327.752 204.43 327.056 L204.43 323.388 Q206.009 324.31 207.89 324.78 Q209.771 325.25 211.821 325.25 Q215.395 325.25 217.256 323.84 Q219.137 322.429 219.137 319.74 Q219.137 317.257 217.388 315.865 Q215.658 314.455 212.555 314.455 L209.282 314.455 L209.282 311.333 L212.705 311.333 Q215.507 311.333 216.993 310.223 Q218.479 309.095 218.479 306.988 Q218.479 304.825 216.937 303.678 Q215.413 302.512 212.555 302.512 Q210.994 302.512 209.207 302.85 Q207.42 303.189 205.276 303.904 L205.276 300.518 Q207.439 299.916 209.32 299.615 Q211.219 299.315 212.893 299.315 Q217.219 299.315 219.739 301.289 Q222.259 303.245 222.259 306.593 Q222.259 308.925 220.924 310.543 Q219.589 312.141 217.125 312.762 Z" fill="#000000" fill-rule="nonzero" fill-opacity="1" /><path clip-path="url(#clip960)" d="M42.6863 890.656 L42.6863 860.609 L48.0971 860.609 L48.0971 884.226 L62.1653 884.226 L62.1653 861.596 L67.5762 861.596 L67.5762 884.226 L84.7954 884.226 L84.7954 860.037 L90.2063 860.037 L90.2063 890.656 L42.6863 890.656 Z" fill="#000000" fill-rule="nonzero" fill-opacity="1" /><path clip-path="url(#clip960)" d="M44.2459 820.983 L50.5161 820.983 Q48.7655 824.643 47.9062 827.89 Q47.0468 831.136 47.0468 834.16 Q47.0468 839.412 49.0838 842.276 Q51.1208 845.109 54.8766 845.109 Q58.0276 845.109 59.6509 843.231 Q61.2423 841.321 62.229 836.038 L63.0247 832.155 Q64.3933 824.962 67.8627 821.556 Q71.3001 818.118 77.0929 818.118 Q83.9997 818.118 87.5645 822.765 Q91.1293 827.38 91.1293 836.324 Q91.1293 839.698 90.3654 843.518 Q89.6015 847.305 88.1056 851.379 L81.4853 851.379 Q83.6814 847.464 84.7954 843.709 Q85.9094 839.953 85.9094 836.324 Q85.9094 830.818 83.7451 827.826 Q81.5808 824.834 77.5704 824.834 Q74.0692 824.834 72.0958 826.999 Q70.1225 829.131 69.1358 834.033 L68.3719 837.948 Q66.9396 845.141 63.8841 848.356 Q60.8285 851.57 55.3859 851.57 Q49.0838 851.57 45.4554 847.146 Q41.8269 842.69 41.8269 834.892 Q41.8269 831.55 42.4317 828.081 Q43.0364 824.611 44.2459 820.983 Z" fill="#000000" fill-rule="nonzero" fill-opacity="1" /><path clip-path="url(#clip960)" d="M44.2459 779.606 L50.5161 779.606 Q48.7655 783.266 47.9062 786.513 Q47.0468 789.759 47.0468 792.783 Q47.0468 798.035 49.0838 800.899 Q51.1208 803.732 54.8766 803.732 Q58.0276 803.732 59.6509 801.854 Q61.2423 799.944 62.229 794.661 L63.0247 790.778 Q64.3933 783.584 67.8627 780.179 Q71.3001 776.741 77.0929 776.741 Q83.9997 776.741 87.5645 781.388 Q91.1293 786.003 91.1293 794.947 Q91.1293 798.321 90.3654 802.14 Q89.6015 805.928 88.1056 810.002 L81.4853 810.002 Q83.6814 806.087 84.7954 802.331 Q85.9094 798.576 85.9094 794.947 Q85.9094 789.441 83.7451 786.449 Q81.5808 783.457 77.5704 783.457 Q74.0692 783.457 72.0958 785.621 Q70.1225 787.754 69.1358 792.656 L68.3719 796.57 Q66.9396 803.764 63.8841 806.978 Q60.8285 810.193 55.3859 810.193 Q49.0838 810.193 45.4554 805.769 Q41.8269 801.313 41.8269 793.515 Q41.8269 790.173 42.4317 786.704 Q43.0364 783.234 44.2459 779.606 Z" fill="#000000" fill-rule="nonzero" fill-opacity="1" /><path clip-path="url(#clip960)" d="M82.1218 765.474 L82.1218 758.758 L90.2063 758.758 L90.2063 765.474 L82.1218 765.474 M56.4999 765.474 L56.4999 758.758 L64.5843 758.758 L64.5843 765.474 L56.4999 765.474 Z" fill="#000000" fill-rule="nonzero" fill-opacity="1" /><path clip-path="url(#clip960)" d="M42.6863 724.033 L42.6863 693.987 L48.0971 693.987 L48.0971 717.604 L62.1653 717.604 L62.1653 694.974 L67.5762 694.974 L67.5762 717.604 L84.7954 717.604 L84.7954 693.414 L90.2063 693.414 L90.2063 724.033 L42.6863 724.033 Z" fill="#000000" fill-rule="nonzero" fill-opacity="1" /><path clip-path="url(#clip960)" d="M68.6902 653.469 L90.2063 653.469 L90.2063 659.326 L68.8812 659.326 Q63.8204 659.326 61.306 661.299 Q58.7915 663.273 58.7915 667.219 Q58.7915 671.962 61.8152 674.699 Q64.8389 677.436 70.0588 677.436 L90.2063 677.436 L90.2063 683.325 L54.5583 683.325 L54.5583 677.436 L60.0965 677.436 Q56.8818 675.336 55.2904 672.503 Q53.699 669.638 53.699 665.914 Q53.699 659.771 57.5184 656.62 Q61.306 653.469 68.6902 653.469 Z" fill="#000000" fill-rule="nonzero" fill-opacity="1" /><path clip-path="url(#clip960)" d="M71.9685 618.331 Q65.6028 618.331 62.1017 620.972 Q58.6006 623.582 58.6006 628.325 Q58.6006 633.035 62.1017 635.677 Q65.6028 638.287 71.9685 638.287 Q78.3024 638.287 81.8036 635.677 Q85.3047 633.035 85.3047 628.325 Q85.3047 623.582 81.8036 620.972 Q78.3024 618.331 71.9685 618.331 M85.7821 612.474 Q94.8851 612.474 99.3092 616.516 Q103.765 620.559 103.765 628.898 Q103.765 631.985 103.288 634.722 Q102.842 637.46 101.887 640.038 L96.19 640.038 Q97.5905 637.46 98.2589 634.945 Q98.9273 632.431 98.9273 629.821 Q98.9273 624.06 95.9036 621.195 Q92.9117 618.331 86.8325 618.331 L83.9361 618.331 Q87.0871 620.145 88.6467 622.978 Q90.2063 625.81 90.2063 629.757 Q90.2063 636.314 85.2092 640.324 Q80.2121 644.335 71.9685 644.335 Q63.6931 644.335 58.696 640.324 Q53.699 636.314 53.699 629.757 Q53.699 625.81 55.2586 622.978 Q56.8182 620.145 59.9692 618.331 L54.5583 618.331 L54.5583 612.474 L85.7821 612.474 Z" fill="#000000" fill-rule="nonzero" fill-opacity="1" /><path clip-path="url(#clip960)" d="M40.6811 600.411 L40.6811 594.555 L90.2063 594.555 L90.2063 600.411 L40.6811 600.411 Z" fill="#000000" fill-rule="nonzero" fill-opacity="1" /><path clip-path="url(#clip960)" d="M72.2868 566.1 Q72.2868 573.198 73.9101 575.935 Q75.5333 578.672 79.4482 578.672 Q82.5674 578.672 84.4135 576.635 Q86.2277 574.566 86.2277 571.033 Q86.2277 566.164 82.7902 563.236 Q79.3209 560.275 73.5918 560.275 L72.2868 560.275 L72.2868 566.1 M69.8679 554.419 L90.2063 554.419 L90.2063 560.275 L84.7954 560.275 Q88.0419 562.281 89.6015 565.273 Q91.1293 568.264 91.1293 572.593 Q91.1293 578.068 88.0738 581.314 Q84.9864 584.529 79.8302 584.529 Q73.8146 584.529 70.759 580.518 Q67.7035 576.476 67.7035 568.487 L67.7035 560.275 L67.1306 560.275 Q63.0884 560.275 60.8922 562.949 Q58.6642 565.591 58.6642 570.397 Q58.6642 573.452 59.3963 576.349 Q60.1283 579.245 61.5924 581.919 L56.1816 581.919 Q54.9403 578.704 54.3355 575.68 Q53.699 572.657 53.699 569.792 Q53.699 562.058 57.7094 558.238 Q61.7197 554.419 69.8679 554.419 Z" fill="#000000" fill-rule="nonzero" fill-opacity="1" /><path clip-path="url(#clip960)" d="M68.6902 512.724 L90.2063 512.724 L90.2063 518.58 L68.8812 518.58 Q63.8204 518.58 61.306 520.553 Q58.7915 522.527 58.7915 526.474 Q58.7915 531.216 61.8152 533.953 Q64.8389 536.691 70.0588 536.691 L90.2063 536.691 L90.2063 542.579 L54.5583 542.579 L54.5583 536.691 L60.0965 536.691 Q56.8818 534.59 55.2904 531.757 Q53.699 528.893 53.699 525.169 Q53.699 519.026 57.5184 515.875 Q61.306 512.724 68.6902 512.724 Z" fill="#000000" fill-rule="nonzero" fill-opacity="1" /><path clip-path="url(#clip960)" d="M59.9692 477.585 L40.6811 477.585 L40.6811 471.728 L90.2063 471.728 L90.2063 477.585 L84.8591 477.585 Q88.0419 479.431 89.6015 482.264 Q91.1293 485.065 91.1293 489.011 Q91.1293 495.473 85.9731 499.547 Q80.8169 503.589 72.4141 503.589 Q64.0114 503.589 58.8552 499.547 Q53.699 495.473 53.699 489.011 Q53.699 485.065 55.2586 482.264 Q56.7863 479.431 59.9692 477.585 M72.4141 497.541 Q78.8753 497.541 82.5674 494.9 Q86.2277 492.226 86.2277 487.579 Q86.2277 482.932 82.5674 480.259 Q78.8753 477.585 72.4141 477.585 Q65.9529 477.585 62.2927 480.259 Q58.6006 482.932 58.6006 487.579 Q58.6006 492.226 62.2927 494.9 Q65.9529 497.541 72.4141 497.541 Z" fill="#000000" fill-rule="nonzero" fill-opacity="1" /><path clip-path="url(#clip960)" d="M82.1218 458.17 L82.1218 451.454 L87.5963 451.454 L97.7815 456.674 L97.7815 460.779 L87.5963 458.17 L82.1218 458.17 Z" fill="#000000" fill-rule="nonzero" fill-opacity="1" /><path clip-path="url(#clip960)" d="M44.4369 412.432 L54.5583 412.432 L54.5583 400.369 L59.1098 400.369 L59.1098 412.432 L78.4616 412.432 Q82.8221 412.432 84.0634 411.254 Q85.3047 410.045 85.3047 406.384 L85.3047 400.369 L90.2063 400.369 L90.2063 406.384 Q90.2063 413.164 87.6918 415.742 Q85.1455 418.32 78.4616 418.32 L59.1098 418.32 L59.1098 422.617 L54.5583 422.617 L54.5583 418.32 L44.4369 418.32 L44.4369 412.432 Z" fill="#000000" fill-rule="nonzero" fill-opacity="1" /><path clip-path="url(#clip960)" d="M54.5583 392.666 L54.5583 386.81 L90.2063 386.81 L90.2063 392.666 L54.5583 392.666 M40.6811 392.666 L40.6811 386.81 L48.0971 386.81 L48.0971 392.666 L40.6811 392.666 Z" fill="#000000" fill-rule="nonzero" fill-opacity="1" /><path clip-path="url(#clip960)" d="M61.4015 346.801 Q57.4547 344.605 55.5768 341.55 Q53.699 338.494 53.699 334.357 Q53.699 328.787 57.6139 325.763 Q61.4969 322.739 68.6902 322.739 L90.2063 322.739 L90.2063 328.627 L68.8812 328.627 Q63.7568 328.627 61.2741 330.442 Q58.7915 332.256 58.7915 335.98 Q58.7915 340.531 61.8152 343.173 Q64.8389 345.815 70.0588 345.815 L90.2063 345.815 L90.2063 351.703 L68.8812 351.703 Q63.7249 351.703 61.2741 353.517 Q58.7915 355.332 58.7915 359.119 Q58.7915 363.607 61.8471 366.249 Q64.8708 368.89 70.0588 368.89 L90.2063 368.89 L90.2063 374.779 L54.5583 374.779 L54.5583 368.89 L60.0965 368.89 Q56.8182 366.885 55.2586 364.084 Q53.699 361.283 53.699 357.432 Q53.699 353.549 55.6723 350.844 Q57.6457 348.106 61.4015 346.801 Z" fill="#000000" fill-rule="nonzero" fill-opacity="1" /><path clip-path="url(#clip960)" d="M70.9182 280.566 L73.7828 280.566 L73.7828 307.493 Q79.8302 307.111 83.013 303.865 Q86.1641 300.586 86.1641 294.762 Q86.1641 291.388 85.3365 288.237 Q84.509 285.054 82.8539 281.935 L88.3921 281.935 Q89.7289 285.086 90.4291 288.396 Q91.1293 291.706 91.1293 295.112 Q91.1293 303.642 86.1641 308.639 Q81.1988 313.604 72.7324 313.604 Q63.9796 313.604 58.8552 308.894 Q53.699 304.151 53.699 296.13 Q53.699 288.937 58.3459 284.768 Q62.9611 280.566 70.9182 280.566 M69.1995 286.423 Q64.3933 286.486 61.5288 289.128 Q58.6642 291.738 58.6642 296.067 Q58.6642 300.968 61.4333 303.928 Q64.2024 306.857 69.2313 307.302 L69.1995 286.423 Z" fill="#000000" fill-rule="nonzero" fill-opacity="1" /><path clip-path="url(#clip960)" d="M82.1218 269.458 L82.1218 262.742 L90.2063 262.742 L90.2063 269.458 L82.1218 269.458 M56.4999 269.458 L56.4999 262.742 L64.5843 262.742 L64.5843 269.458 L56.4999 269.458 Z" fill="#000000" fill-rule="nonzero" fill-opacity="1" /><path clip-path="url(#clip960)" d="M84.7954 247.051 L84.7954 236.547 L48.5427 236.547 L50.8344 247.974 L44.9779 247.974 L42.6863 236.611 L42.6863 230.182 L84.7954 230.182 L84.7954 219.678 L90.2063 219.678 L90.2063 247.051 L84.7954 247.051 Z" fill="#000000" fill-rule="nonzero" fill-opacity="1" /><polyline clip-path="url(#clip962)" style="stroke:#009af9; stroke-linecap:round; stroke-linejoin:round; stroke-width:4; stroke-opacity:1; fill:none" points="350.696,290.386 372.494,196.934 394.291,171.234 416.089,214.161 437.886,134.807 459.684,152.936 481.481,146.847 503.278,138.319 525.076,155.342 546.873,145.541 568.671,215.407 590.468,186.348 612.266,162.451 634.063,156.514 655.861,153.424 677.658,206.523 699.455,211.199 721.253,136.559 743.05,205.211 764.848,201.36 786.645,167.921 808.443,184.672 830.24,199.041 852.038,151.535 873.835,150.113 895.633,201.98 917.43,181.529 939.227,195.659 961.025,143.521 982.822,160.394 1004.62,143.224 1026.42,170.806 1048.21,154.296 1070.01,124.119 1091.81,160.827 1113.61,156.172 1135.4,132.996 1157.2,140.91 1179,175.816 1200.8,176.024 1222.59,208.429 1244.39,194.776 1266.19,146.577 1287.99,180.784 1309.78,186.864 1331.58,130.678 1353.38,138.792 1375.18,127.843 1396.97,164.15 1418.77,181.696 1440.57,110.236 1462.37,135.662 1484.16,150.289 1505.96,214.11 1527.76,179.367 1549.56,164.794 1571.35,179.054 1593.15,154.914 1614.95,209.327 1636.75,204.603 1658.54,177.076 1680.34,201.887 1702.14,171.861 1723.94,164.317 1745.73,153.517 1767.53,140.743 1789.33,180.5 1811.13,150.121 1832.92,168.316 1854.72,146.737 1876.52,155.699 1898.32,124.035 1920.11,180.769 1941.91,183.419 1963.71,171.327 1985.5,166.113 2007.3,153.194 2029.1,122.95 2050.9,179.361 2072.69,205.589 2094.49,216.888 2116.29,163.93 2138.09,184.049 2159.88,172.541 2181.68,191.692 2203.48,174.138 2225.28,184.036 2247.07,185.554 2268.87,139.61 2290.67,149.149 2312.47,204.981 2334.26,169.17 2356.06,204.679 2377.86,205.771 2399.66,201.771 2421.45,143.075 2443.25,178.202 2465.05,165.669 2486.85,187.924 2508.64,136.629 2530.44,167.505 2552.24,140.055 2574.04,155.859 2595.83,168.993 2617.63,217.295 2639.43,158.725 2661.23,158.604 2683.02,172.847 2704.82,147.948 2726.62,158.687 2748.42,195.926 2770.21,143.808 2792.01,167.253 2813.81,183.778 2835.61,153.281 2857.4,152.371 2879.2,203.581 2901,143.234 2922.8,139.935 2944.59,191.536 2966.39,146.685 2988.19,145.664 3009.99,179.325 "/>
</svg>
