<?xml version="1.0" encoding="utf-8"?>
<svg xmlns="http://www.w3.org/2000/svg" xmlns:xlink="http://www.w3.org/1999/xlink" width="800" height="300" viewBox="0 0 3200 1200">
<defs>
  <clipPath id="clip770">
    <rect x="0" y="0" width="3200" height="1200"/>
  </clipPath>
</defs>
<path clip-path="url(#clip770)" d="
M0 1200 L3200 1200 L3200 0 L0 0  Z
  " fill="#ffffff" fill-rule="evenodd" fill-opacity="1"/>
<defs>
  <clipPath id="clip771">
    <rect x="640" y="0" width="2241" height="1200"/>
  </clipPath>
</defs>
<path clip-path="url(#clip770)" d="
M270.918 1000.1 L3089.76 1000.1 L3089.76 110.236 L270.918 110.236  Z
  " fill="#ffffff" fill-rule="evenodd" fill-opacity="1"/>
<defs>
  <clipPath id="clip772">
    <rect x="270" y="110" width="2820" height="891"/>
  </clipPath>
</defs>
<polyline clip-path="url(#clip772)" style="stroke:#000000; stroke-linecap:round; stroke-linejoin:round; stroke-width:2; stroke-opacity:0.1; fill:none" points="
  340.546,1000.1 340.546,110.236 
  "/>
<polyline clip-path="url(#clip772)" style="stroke:#000000; stroke-linecap:round; stroke-linejoin:round; stroke-width:2; stroke-opacity:0.1; fill:none" points="
  848.044,1000.1 848.044,110.236 
  "/>
<polyline clip-path="url(#clip772)" style="stroke:#000000; stroke-linecap:round; stroke-linejoin:round; stroke-width:2; stroke-opacity:0.1; fill:none" points="
  1355.54,1000.1 1355.54,110.236 
  "/>
<polyline clip-path="url(#clip772)" style="stroke:#000000; stroke-linecap:round; stroke-linejoin:round; stroke-width:2; stroke-opacity:0.1; fill:none" points="
  1863.04,1000.1 1863.04,110.236 
  "/>
<polyline clip-path="url(#clip772)" style="stroke:#000000; stroke-linecap:round; stroke-linejoin:round; stroke-width:2; stroke-opacity:0.1; fill:none" points="
  2370.54,1000.1 2370.54,110.236 
  "/>
<polyline clip-path="url(#clip772)" style="stroke:#000000; stroke-linecap:round; stroke-linejoin:round; stroke-width:2; stroke-opacity:0.1; fill:none" points="
  2878.04,1000.1 2878.04,110.236 
  "/>
<polyline clip-path="url(#clip770)" style="stroke:#000000; stroke-linecap:round; stroke-linejoin:round; stroke-width:4; stroke-opacity:1; fill:none" points="
  270.918,1000.1 3089.76,1000.1 
  "/>
<polyline clip-path="url(#clip770)" style="stroke:#000000; stroke-linecap:round; stroke-linejoin:round; stroke-width:4; stroke-opacity:1; fill:none" points="
  340.546,1000.1 340.546,981.2 
  "/>
<polyline clip-path="url(#clip770)" style="stroke:#000000; stroke-linecap:round; stroke-linejoin:round; stroke-width:4; stroke-opacity:1; fill:none" points="
  848.044,1000.1 848.044,981.2 
  "/>
<polyline clip-path="url(#clip770)" style="stroke:#000000; stroke-linecap:round; stroke-linejoin:round; stroke-width:4; stroke-opacity:1; fill:none" points="
  1355.54,1000.1 1355.54,981.2 
  "/>
<polyline clip-path="url(#clip770)" style="stroke:#000000; stroke-linecap:round; stroke-linejoin:round; stroke-width:4; stroke-opacity:1; fill:none" points="
  1863.04,1000.1 1863.04,981.2 
  "/>
<polyline clip-path="url(#clip770)" style="stroke:#000000; stroke-linecap:round; stroke-linejoin:round; stroke-width:4; stroke-opacity:1; fill:none" points="
  2370.54,1000.1 2370.54,981.2 
  "/>
<polyline clip-path="url(#clip770)" style="stroke:#000000; stroke-linecap:round; stroke-linejoin:round; stroke-width:4; stroke-opacity:1; fill:none" points="
  2878.04,1000.1 2878.04,981.2 
  "/>
<path clip-path="url(#clip770)" d="M340.546 1037.42 Q336.935 1037.42 335.107 1040.98 Q333.301 1044.52 333.301 1051.65 Q333.301 1058.76 335.107 1062.32 Q336.935 1065.87 340.546 1065.87 Q344.181 1065.87 345.986 1062.32 Q347.815 1058.76 347.815 1051.65 Q347.815 1044.52 345.986 1040.98 Q344.181 1037.42 340.546 1037.42 M340.546 1033.71 Q346.356 1033.71 349.412 1038.32 Q352.491 1042.9 352.491 1051.65 Q352.491 1060.38 349.412 1064.99 Q346.356 1069.57 340.546 1069.57 Q334.736 1069.57 331.658 1064.99 Q328.602 1060.38 328.602 1051.65 Q328.602 1042.9 331.658 1038.32 Q334.736 1033.71 340.546 1033.71 Z" fill="#000000" fill-rule="evenodd" fill-opacity="1" /><path clip-path="url(#clip770)" d="M822.743 1034.34 L841.1 1034.34 L841.1 1038.27 L827.026 1038.27 L827.026 1046.75 Q828.044 1046.4 829.063 1046.24 Q830.081 1046.05 831.1 1046.05 Q836.887 1046.05 840.266 1049.22 Q843.646 1052.39 843.646 1057.81 Q843.646 1063.39 840.174 1066.49 Q836.702 1069.57 830.382 1069.57 Q828.206 1069.57 825.938 1069.2 Q823.692 1068.83 821.285 1068.09 L821.285 1063.39 Q823.368 1064.52 825.591 1065.08 Q827.813 1065.63 830.29 1065.63 Q834.294 1065.63 836.632 1063.53 Q838.97 1061.42 838.97 1057.81 Q838.97 1054.2 836.632 1052.09 Q834.294 1049.99 830.29 1049.99 Q828.415 1049.99 826.54 1050.4 Q824.688 1050.82 822.743 1051.7 L822.743 1034.34 Z" fill="#000000" fill-rule="evenodd" fill-opacity="1" /><path clip-path="url(#clip770)" d="M862.859 1037.42 Q859.248 1037.42 857.419 1040.98 Q855.614 1044.52 855.614 1051.65 Q855.614 1058.76 857.419 1062.32 Q859.248 1065.87 862.859 1065.87 Q866.493 1065.87 868.299 1062.32 Q870.127 1058.76 870.127 1051.65 Q870.127 1044.52 868.299 1040.98 Q866.493 1037.42 862.859 1037.42 M862.859 1033.71 Q868.669 1033.71 871.725 1038.32 Q874.803 1042.9 874.803 1051.65 Q874.803 1060.38 871.725 1064.99 Q868.669 1069.57 862.859 1069.57 Q857.049 1069.57 853.97 1064.99 Q850.915 1060.38 850.915 1051.65 Q850.915 1042.9 853.97 1038.32 Q857.049 1033.71 862.859 1033.71 Z" fill="#000000" fill-rule="evenodd" fill-opacity="1" /><path clip-path="url(#clip770)" d="M1315.15 1064.96 L1322.79 1064.96 L1322.79 1038.6 L1314.48 1040.26 L1314.48 1036 L1322.74 1034.34 L1327.42 1034.34 L1327.42 1064.96 L1335.06 1064.96 L1335.06 1068.9 L1315.15 1068.9 L1315.15 1064.96 Z" fill="#000000" fill-rule="evenodd" fill-opacity="1" /><path clip-path="url(#clip770)" d="M1354.5 1037.42 Q1350.89 1037.42 1349.06 1040.98 Q1347.26 1044.52 1347.26 1051.65 Q1347.26 1058.76 1349.06 1062.32 Q1350.89 1065.87 1354.5 1065.87 Q1358.13 1065.87 1359.94 1062.32 Q1361.77 1058.76 1361.77 1051.65 Q1361.77 1044.52 1359.94 1040.98 Q1358.13 1037.42 1354.5 1037.42 M1354.5 1033.71 Q1360.31 1033.71 1363.37 1038.32 Q1366.44 1042.9 1366.44 1051.65 Q1366.44 1060.38 1363.37 1064.99 Q1360.31 1069.57 1354.5 1069.57 Q1348.69 1069.57 1345.61 1064.99 Q1342.56 1060.38 1342.56 1051.65 Q1342.56 1042.9 1345.61 1038.32 Q1348.69 1033.71 1354.5 1033.71 Z" fill="#000000" fill-rule="evenodd" fill-opacity="1" /><path clip-path="url(#clip770)" d="M1384.66 1037.42 Q1381.05 1037.42 1379.22 1040.98 Q1377.42 1044.52 1377.42 1051.65 Q1377.42 1058.76 1379.22 1062.32 Q1381.05 1065.87 1384.66 1065.87 Q1388.3 1065.87 1390.1 1062.32 Q1391.93 1058.76 1391.93 1051.65 Q1391.93 1044.52 1390.1 1040.98 Q1388.3 1037.42 1384.66 1037.42 M1384.66 1033.71 Q1390.47 1033.71 1393.53 1038.32 Q1396.61 1042.9 1396.61 1051.65 Q1396.61 1060.38 1393.53 1064.99 Q1390.47 1069.57 1384.66 1069.57 Q1378.85 1069.57 1375.77 1064.99 Q1372.72 1060.38 1372.72 1051.65 Q1372.72 1042.9 1375.77 1038.32 Q1378.85 1033.71 1384.66 1033.71 Z" fill="#000000" fill-rule="evenodd" fill-opacity="1" /><path clip-path="url(#clip770)" d="M1822.65 1064.96 L1830.29 1064.96 L1830.29 1038.6 L1821.98 1040.26 L1821.98 1036 L1830.24 1034.34 L1834.92 1034.34 L1834.92 1064.96 L1842.55 1064.96 L1842.55 1068.9 L1822.65 1068.9 L1822.65 1064.96 Z" fill="#000000" fill-rule="evenodd" fill-opacity="1" /><path clip-path="url(#clip770)" d="M1852.04 1034.34 L1870.4 1034.34 L1870.4 1038.27 L1856.33 1038.27 L1856.33 1046.75 Q1857.35 1046.4 1858.36 1046.24 Q1859.38 1046.05 1860.4 1046.05 Q1866.19 1046.05 1869.57 1049.22 Q1872.95 1052.39 1872.95 1057.81 Q1872.95 1063.39 1869.48 1066.49 Q1866 1069.57 1859.68 1069.57 Q1857.51 1069.57 1855.24 1069.2 Q1852.99 1068.83 1850.59 1068.09 L1850.59 1063.39 Q1852.67 1064.52 1854.89 1065.08 Q1857.11 1065.63 1859.59 1065.63 Q1863.6 1065.63 1865.93 1063.53 Q1868.27 1061.42 1868.27 1057.81 Q1868.27 1054.2 1865.93 1052.09 Q1863.6 1049.99 1859.59 1049.99 Q1857.72 1049.99 1855.84 1050.4 Q1853.99 1050.82 1852.04 1051.7 L1852.04 1034.34 Z" fill="#000000" fill-rule="evenodd" fill-opacity="1" /><path clip-path="url(#clip770)" d="M1892.16 1037.42 Q1888.55 1037.42 1886.72 1040.98 Q1884.91 1044.52 1884.91 1051.65 Q1884.91 1058.76 1886.72 1062.32 Q1888.55 1065.87 1892.16 1065.87 Q1895.79 1065.87 1897.6 1062.32 Q1899.43 1058.76 1899.43 1051.65 Q1899.43 1044.52 1897.6 1040.98 Q1895.79 1037.42 1892.16 1037.42 M1892.16 1033.71 Q1897.97 1033.71 1901.03 1038.32 Q1904.1 1042.9 1904.1 1051.65 Q1904.1 1060.38 1901.03 1064.99 Q1897.97 1069.57 1892.16 1069.57 Q1886.35 1069.57 1883.27 1064.99 Q1880.22 1060.38 1880.22 1051.65 Q1880.22 1042.9 1883.27 1038.32 Q1886.35 1033.71 1892.16 1033.71 Z" fill="#000000" fill-rule="evenodd" fill-opacity="1" /><path clip-path="url(#clip770)" d="M2334.23 1064.96 L2350.55 1064.96 L2350.55 1068.9 L2328.61 1068.9 L2328.61 1064.96 Q2331.27 1062.21 2335.85 1057.58 Q2340.46 1052.93 2341.64 1051.58 Q2343.88 1049.06 2344.76 1047.32 Q2345.67 1045.56 2345.67 1043.87 Q2345.67 1041.12 2343.72 1039.38 Q2341.8 1037.65 2338.7 1037.65 Q2336.5 1037.65 2334.04 1038.41 Q2331.61 1039.18 2328.84 1040.73 L2328.84 1036 Q2331.66 1034.87 2334.11 1034.29 Q2336.57 1033.71 2338.61 1033.71 Q2343.98 1033.71 2347.17 1036.4 Q2350.36 1039.08 2350.36 1043.57 Q2350.36 1045.7 2349.55 1047.62 Q2348.77 1049.52 2346.66 1052.12 Q2346.08 1052.79 2342.98 1056 Q2339.88 1059.2 2334.23 1064.96 Z" fill="#000000" fill-rule="evenodd" fill-opacity="1" /><path clip-path="url(#clip770)" d="M2370.36 1037.42 Q2366.75 1037.42 2364.92 1040.98 Q2363.12 1044.52 2363.12 1051.65 Q2363.12 1058.76 2364.92 1062.32 Q2366.75 1065.87 2370.36 1065.87 Q2374 1065.87 2375.8 1062.32 Q2377.63 1058.76 2377.63 1051.65 Q2377.63 1044.52 2375.8 1040.98 Q2374 1037.42 2370.36 1037.42 M2370.36 1033.71 Q2376.17 1033.71 2379.23 1038.32 Q2382.31 1042.9 2382.31 1051.65 Q2382.31 1060.38 2379.23 1064.99 Q2376.17 1069.57 2370.36 1069.57 Q2364.55 1069.57 2361.48 1064.99 Q2358.42 1060.38 2358.42 1051.65 Q2358.42 1042.9 2361.48 1038.32 Q2364.55 1033.71 2370.36 1033.71 Z" fill="#000000" fill-rule="evenodd" fill-opacity="1" /><path clip-path="url(#clip770)" d="M2400.53 1037.42 Q2396.91 1037.42 2395.09 1040.98 Q2393.28 1044.52 2393.28 1051.65 Q2393.28 1058.76 2395.09 1062.32 Q2396.91 1065.87 2400.53 1065.87 Q2404.16 1065.87 2405.97 1062.32 Q2407.79 1058.76 2407.79 1051.65 Q2407.79 1044.52 2405.97 1040.98 Q2404.16 1037.42 2400.53 1037.42 M2400.53 1033.71 Q2406.34 1033.71 2409.39 1038.32 Q2412.47 1042.9 2412.47 1051.65 Q2412.47 1060.38 2409.39 1064.99 Q2406.34 1069.57 2400.53 1069.57 Q2394.72 1069.57 2391.64 1064.99 Q2388.58 1060.38 2388.58 1051.65 Q2388.58 1042.9 2391.64 1038.32 Q2394.72 1033.71 2400.53 1033.71 Z" fill="#000000" fill-rule="evenodd" fill-opacity="1" /><path clip-path="url(#clip770)" d="M2841.73 1064.96 L2858.05 1064.96 L2858.05 1068.9 L2836.1 1068.9 L2836.1 1064.96 Q2838.77 1062.21 2843.35 1057.58 Q2847.95 1052.93 2849.14 1051.58 Q2851.38 1049.06 2852.26 1047.32 Q2853.16 1045.56 2853.16 1043.87 Q2853.16 1041.12 2851.22 1039.38 Q2849.3 1037.65 2846.2 1037.65 Q2844 1037.65 2841.54 1038.41 Q2839.11 1039.18 2836.33 1040.73 L2836.33 1036 Q2839.16 1034.87 2841.61 1034.29 Q2844.07 1033.71 2846.1 1033.71 Q2851.47 1033.71 2854.67 1036.4 Q2857.86 1039.08 2857.86 1043.57 Q2857.86 1045.7 2857.05 1047.62 Q2856.26 1049.52 2854.16 1052.12 Q2853.58 1052.79 2850.48 1056 Q2847.38 1059.2 2841.73 1064.96 Z" fill="#000000" fill-rule="evenodd" fill-opacity="1" /><path clip-path="url(#clip770)" d="M2867.91 1034.34 L2886.26 1034.34 L2886.26 1038.27 L2872.19 1038.27 L2872.19 1046.75 Q2873.21 1046.4 2874.23 1046.24 Q2875.25 1046.05 2876.26 1046.05 Q2882.05 1046.05 2885.43 1049.22 Q2888.81 1052.39 2888.81 1057.81 Q2888.81 1063.39 2885.34 1066.49 Q2881.87 1069.57 2875.55 1069.57 Q2873.37 1069.57 2871.1 1069.2 Q2868.86 1068.83 2866.45 1068.09 L2866.45 1063.39 Q2868.53 1064.52 2870.76 1065.08 Q2872.98 1065.63 2875.45 1065.63 Q2879.46 1065.63 2881.8 1063.53 Q2884.14 1061.42 2884.14 1057.81 Q2884.14 1054.2 2881.8 1052.09 Q2879.46 1049.99 2875.45 1049.99 Q2873.58 1049.99 2871.7 1050.4 Q2869.85 1050.82 2867.91 1051.7 L2867.91 1034.34 Z" fill="#000000" fill-rule="evenodd" fill-opacity="1" /><path clip-path="url(#clip770)" d="M2908.02 1037.42 Q2904.41 1037.42 2902.58 1040.98 Q2900.78 1044.52 2900.78 1051.65 Q2900.78 1058.76 2902.58 1062.32 Q2904.41 1065.87 2908.02 1065.87 Q2911.66 1065.87 2913.46 1062.32 Q2915.29 1058.76 2915.29 1051.65 Q2915.29 1044.52 2913.46 1040.98 Q2911.66 1037.42 2908.02 1037.42 M2908.02 1033.71 Q2913.83 1033.71 2916.89 1038.32 Q2919.97 1042.9 2919.97 1051.65 Q2919.97 1060.38 2916.89 1064.99 Q2913.83 1069.57 2908.02 1069.57 Q2902.21 1069.57 2899.14 1064.99 Q2896.08 1060.38 2896.08 1051.65 Q2896.08 1042.9 2899.14 1038.32 Q2902.21 1033.71 2908.02 1033.71 Z" fill="#000000" fill-rule="evenodd" fill-opacity="1" /><path clip-path="url(#clip770)" d="M1556.64 1109.44 L1563.07 1109.44 L1563.07 1151.55 L1586.21 1151.55 L1586.21 1156.96 L1556.64 1156.96 L1556.64 1109.44 Z" fill="#000000" fill-rule="evenodd" fill-opacity="1" /><path clip-path="url(#clip770)" d="M1592.7 1121.31 L1598.56 1121.31 L1598.56 1156.96 L1592.7 1156.96 L1592.7 1121.31 M1592.7 1107.44 L1598.56 1107.44 L1598.56 1114.85 L1592.7 1114.85 L1592.7 1107.44 Z" fill="#000000" fill-rule="evenodd" fill-opacity="1" /><path clip-path="url(#clip770)" d="M1640.44 1135.45 L1640.44 1156.96 L1634.59 1156.96 L1634.59 1135.64 Q1634.59 1130.58 1632.61 1128.06 Q1630.64 1125.55 1626.69 1125.55 Q1621.95 1125.55 1619.21 1128.57 Q1616.48 1131.59 1616.48 1136.81 L1616.48 1156.96 L1610.59 1156.96 L1610.59 1121.31 L1616.48 1121.31 L1616.48 1126.85 Q1618.58 1123.64 1621.41 1122.05 Q1624.27 1120.45 1628 1120.45 Q1634.14 1120.45 1637.29 1124.27 Q1640.44 1128.06 1640.44 1135.45 Z" fill="#000000" fill-rule="evenodd" fill-opacity="1" /><path clip-path="url(#clip770)" d="M1682.62 1137.67 L1682.62 1140.54 L1655.69 1140.54 Q1656.07 1146.59 1659.32 1149.77 Q1662.6 1152.92 1668.42 1152.92 Q1671.79 1152.92 1674.95 1152.09 Q1678.13 1151.26 1681.25 1149.61 L1681.25 1155.15 Q1678.1 1156.48 1674.79 1157.18 Q1671.48 1157.88 1668.07 1157.88 Q1659.54 1157.88 1654.54 1152.92 Q1649.58 1147.95 1649.58 1139.49 Q1649.58 1130.74 1654.29 1125.61 Q1659.03 1120.45 1667.05 1120.45 Q1674.25 1120.45 1678.42 1125.1 Q1682.62 1129.72 1682.62 1137.67 M1676.76 1135.95 Q1676.7 1131.15 1674.05 1128.28 Q1671.44 1125.42 1667.12 1125.42 Q1662.21 1125.42 1659.25 1128.19 Q1656.33 1130.96 1655.88 1135.99 L1676.76 1135.95 Z" fill="#000000" fill-rule="evenodd" fill-opacity="1" /><path clip-path="url(#clip770)" d="M1708.43 1139.04 Q1701.33 1139.04 1698.59 1140.67 Q1695.86 1142.29 1695.86 1146.2 Q1695.86 1149.32 1697.89 1151.17 Q1699.96 1152.98 1703.5 1152.98 Q1708.37 1152.98 1711.29 1149.55 Q1714.25 1146.08 1714.25 1140.35 L1714.25 1139.04 L1708.43 1139.04 M1720.11 1136.62 L1720.11 1156.96 L1714.25 1156.96 L1714.25 1151.55 Q1712.25 1154.8 1709.26 1156.36 Q1706.27 1157.88 1701.94 1157.88 Q1696.46 1157.88 1693.22 1154.83 Q1690 1151.74 1690 1146.59 Q1690 1140.57 1694.01 1137.51 Q1698.05 1134.46 1706.04 1134.46 L1714.25 1134.46 L1714.25 1133.89 Q1714.25 1129.84 1711.58 1127.65 Q1708.94 1125.42 1704.13 1125.42 Q1701.08 1125.42 1698.18 1126.15 Q1695.28 1126.88 1692.61 1128.35 L1692.61 1122.94 Q1695.83 1121.7 1698.85 1121.09 Q1701.87 1120.45 1704.74 1120.45 Q1712.47 1120.45 1716.29 1124.46 Q1720.11 1128.48 1720.11 1136.62 Z" fill="#000000" fill-rule="evenodd" fill-opacity="1" /><path clip-path="url(#clip770)" d="M1755.63 1138.72 Q1755.63 1132.36 1752.99 1128.86 Q1750.38 1125.36 1745.64 1125.36 Q1740.93 1125.36 1738.28 1128.86 Q1735.67 1132.36 1735.67 1138.72 Q1735.67 1145.06 1738.28 1148.56 Q1740.93 1152.06 1745.64 1152.06 Q1750.38 1152.06 1752.99 1148.56 Q1755.63 1145.06 1755.63 1138.72 M1761.49 1152.54 Q1761.49 1161.64 1757.45 1166.06 Q1753.4 1170.52 1745.06 1170.52 Q1741.98 1170.52 1739.24 1170.04 Q1736.5 1169.6 1733.92 1168.64 L1733.92 1162.95 Q1736.5 1164.35 1739.02 1165.01 Q1741.53 1165.68 1744.14 1165.68 Q1749.9 1165.68 1752.77 1162.66 Q1755.63 1159.67 1755.63 1153.59 L1755.63 1150.69 Q1753.82 1153.84 1750.98 1155.4 Q1748.15 1156.96 1744.2 1156.96 Q1737.65 1156.96 1733.64 1151.96 Q1729.63 1146.97 1729.63 1138.72 Q1729.63 1130.45 1733.64 1125.45 Q1737.65 1120.45 1744.2 1120.45 Q1748.15 1120.45 1750.98 1122.01 Q1753.82 1123.57 1755.63 1126.72 L1755.63 1121.31 L1761.49 1121.31 L1761.49 1152.54 Z" fill="#000000" fill-rule="evenodd" fill-opacity="1" /><path clip-path="url(#clip770)" d="M1804.04 1137.67 L1804.04 1140.54 L1777.12 1140.54 Q1777.5 1146.59 1780.74 1149.77 Q1784.02 1152.92 1789.85 1152.92 Q1793.22 1152.92 1796.37 1152.09 Q1799.55 1151.26 1802.67 1149.61 L1802.67 1155.15 Q1799.52 1156.48 1796.21 1157.18 Q1792.9 1157.88 1789.5 1157.88 Q1780.97 1157.88 1775.97 1152.92 Q1771 1147.95 1771 1139.49 Q1771 1130.74 1775.71 1125.61 Q1780.46 1120.45 1788.48 1120.45 Q1795.67 1120.45 1799.84 1125.1 Q1804.04 1129.72 1804.04 1137.67 M1798.19 1135.95 Q1798.12 1131.15 1795.48 1128.28 Q1792.87 1125.42 1788.54 1125.42 Q1783.64 1125.42 1780.68 1128.19 Q1777.75 1130.96 1777.31 1135.99 L1798.19 1135.95 Z" fill="#000000" fill-rule="evenodd" fill-opacity="1" /><polyline clip-path="url(#clip772)" style="stroke:#000000; stroke-linecap:round; stroke-linejoin:round; stroke-width:2; stroke-opacity:0.1; fill:none" points="
  270.918,1000.1 3089.76,1000.1 
  "/>
<polyline clip-path="url(#clip772)" style="stroke:#000000; stroke-linecap:round; stroke-linejoin:round; stroke-width:2; stroke-opacity:0.1; fill:none" points="
  270.918,678.327 3089.76,678.327 
  "/>
<polyline clip-path="url(#clip772)" style="stroke:#000000; stroke-linecap:round; stroke-linejoin:round; stroke-width:2; stroke-opacity:0.1; fill:none" points="
  270.918,356.556 3089.76,356.556 
  "/>
<polyline clip-path="url(#clip770)" style="stroke:#000000; stroke-linecap:round; stroke-linejoin:round; stroke-width:4; stroke-opacity:1; fill:none" points="
  270.918,1000.1 270.918,110.236 
  "/>
<polyline clip-path="url(#clip770)" style="stroke:#000000; stroke-linecap:round; stroke-linejoin:round; stroke-width:4; stroke-opacity:1; fill:none" points="
  270.918,1000.1 289.815,1000.1 
  "/>
<polyline clip-path="url(#clip770)" style="stroke:#000000; stroke-linecap:round; stroke-linejoin:round; stroke-width:4; stroke-opacity:1; fill:none" points="
  270.918,678.327 289.815,678.327 
  "/>
<polyline clip-path="url(#clip770)" style="stroke:#000000; stroke-linecap:round; stroke-linejoin:round; stroke-width:4; stroke-opacity:1; fill:none" points="
  270.918,356.556 289.815,356.556 
  "/>
<path clip-path="url(#clip770)" d="M154.902 1019.89 L162.54 1019.89 L162.54 993.525 L154.23 995.191 L154.23 990.932 L162.494 989.265 L167.17 989.265 L167.17 1019.89 L174.809 1019.89 L174.809 1023.83 L154.902 1023.83 L154.902 1019.89 Z" fill="#000000" fill-rule="evenodd" fill-opacity="1" /><path clip-path="url(#clip770)" d="M194.253 992.344 Q190.642 992.344 188.813 995.909 Q187.008 999.45 187.008 1006.58 Q187.008 1013.69 188.813 1017.25 Q190.642 1020.79 194.253 1020.79 Q197.887 1020.79 199.693 1017.25 Q201.522 1013.69 201.522 1006.58 Q201.522 999.45 199.693 995.909 Q197.887 992.344 194.253 992.344 M194.253 988.64 Q200.063 988.64 203.119 993.247 Q206.198 997.83 206.198 1006.58 Q206.198 1015.31 203.119 1019.91 Q200.063 1024.5 194.253 1024.5 Q188.443 1024.5 185.364 1019.91 Q182.309 1015.31 182.309 1006.58 Q182.309 997.83 185.364 993.247 Q188.443 988.64 194.253 988.64 Z" fill="#000000" fill-rule="evenodd" fill-opacity="1" /><path clip-path="url(#clip770)" d="M206.743 993.218 L212.95 993.218 L212.95 971.796 L206.198 973.15 L206.198 969.689 L212.912 968.335 L216.711 968.335 L216.711 993.218 L222.918 993.218 L222.918 996.415 L206.743 996.415 L206.743 993.218 Z" fill="#000000" fill-rule="evenodd" fill-opacity="1" /><path clip-path="url(#clip770)" d="M153.792 698.119 L161.431 698.119 L161.431 671.753 L153.121 673.42 L153.121 669.161 L161.384 667.494 L166.06 667.494 L166.06 698.119 L173.699 698.119 L173.699 702.054 L153.792 702.054 L153.792 698.119 Z" fill="#000000" fill-rule="evenodd" fill-opacity="1" /><path clip-path="url(#clip770)" d="M193.143 670.573 Q189.532 670.573 187.704 674.138 Q185.898 677.679 185.898 684.809 Q185.898 691.915 187.704 695.48 Q189.532 699.022 193.143 699.022 Q196.778 699.022 198.583 695.48 Q200.412 691.915 200.412 684.809 Q200.412 677.679 198.583 674.138 Q196.778 670.573 193.143 670.573 M193.143 666.869 Q198.954 666.869 202.009 671.476 Q205.088 676.059 205.088 684.809 Q205.088 693.536 202.009 698.142 Q198.954 702.726 193.143 702.726 Q187.333 702.726 184.255 698.142 Q181.199 693.536 181.199 684.809 Q181.199 676.059 184.255 671.476 Q187.333 666.869 193.143 666.869 Z" fill="#000000" fill-rule="evenodd" fill-opacity="1" /><path clip-path="url(#clip770)" d="M209.658 671.447 L222.918 671.447 L222.918 674.644 L205.088 674.644 L205.088 671.447 Q207.251 669.208 210.975 665.447 Q214.717 661.666 215.677 660.576 Q217.501 658.526 218.216 657.115 Q218.949 655.686 218.949 654.313 Q218.949 652.075 217.369 650.664 Q215.808 649.253 213.288 649.253 Q211.501 649.253 209.508 649.874 Q207.533 650.495 205.276 651.755 L205.276 647.918 Q207.57 646.996 209.564 646.526 Q211.558 646.056 213.213 646.056 Q217.576 646.056 220.172 648.238 Q222.767 650.419 222.767 654.068 Q222.767 655.798 222.109 657.36 Q221.469 658.902 219.758 661.008 Q219.288 661.554 216.767 664.168 Q214.247 666.763 209.658 671.447 Z" fill="#000000" fill-rule="evenodd" fill-opacity="1" /><path clip-path="url(#clip770)" d="M153.134 376.348 L160.772 376.348 L160.772 349.982 L152.462 351.649 L152.462 347.39 L160.726 345.723 L165.402 345.723 L165.402 376.348 L173.041 376.348 L173.041 380.283 L153.134 380.283 L153.134 376.348 Z" fill="#000000" fill-rule="evenodd" fill-opacity="1" /><path clip-path="url(#clip770)" d="M192.485 348.802 Q188.874 348.802 187.045 352.367 Q185.24 355.908 185.24 363.038 Q185.24 370.144 187.045 373.709 Q188.874 377.251 192.485 377.251 Q196.119 377.251 197.925 373.709 Q199.754 370.144 199.754 363.038 Q199.754 355.908 197.925 352.367 Q196.119 348.802 192.485 348.802 M192.485 345.098 Q198.295 345.098 201.351 349.705 Q204.43 354.288 204.43 363.038 Q204.43 371.765 201.351 376.371 Q198.295 380.954 192.485 380.954 Q186.675 380.954 183.596 376.371 Q180.541 371.765 180.541 363.038 Q180.541 354.288 183.596 349.705 Q186.675 345.098 192.485 345.098 Z" fill="#000000" fill-rule="evenodd" fill-opacity="1" /><path clip-path="url(#clip770)" d="M217.125 337.733 Q219.852 338.316 221.375 340.159 Q222.918 342.002 222.918 344.71 Q222.918 348.867 220.059 351.142 Q217.2 353.418 211.934 353.418 Q210.166 353.418 208.285 353.061 Q206.423 352.722 204.43 352.026 L204.43 348.359 Q206.009 349.28 207.89 349.751 Q209.771 350.221 211.821 350.221 Q215.395 350.221 217.256 348.81 Q219.137 347.4 219.137 344.71 Q219.137 342.228 217.388 340.836 Q215.658 339.425 212.555 339.425 L209.282 339.425 L209.282 336.303 L212.705 336.303 Q215.507 336.303 216.993 335.193 Q218.479 334.065 218.479 331.959 Q218.479 329.796 216.937 328.648 Q215.413 327.482 212.555 327.482 Q210.994 327.482 209.207 327.821 Q207.42 328.159 205.276 328.874 L205.276 325.489 Q207.439 324.887 209.32 324.586 Q211.219 324.285 212.893 324.285 Q217.219 324.285 219.739 326.26 Q222.259 328.216 222.259 331.564 Q222.259 333.896 220.924 335.513 Q219.589 337.112 217.125 337.733 Z" fill="#000000" fill-rule="evenodd" fill-opacity="1" /><path clip-path="url(#clip770)" d="M42.6863 908.718 L42.6863 878.672 L48.0971 878.672 L48.0971 902.289 L62.1653 902.289 L62.1653 879.659 L67.5762 879.659 L67.5762 902.289 L84.7954 902.289 L84.7954 878.099 L90.2063 878.099 L90.2063 908.718 L42.6863 908.718 Z" fill="#000000" fill-rule="evenodd" fill-opacity="1" /><path clip-path="url(#clip770)" d="M44.2459 839.046 L50.5161 839.046 Q48.7655 842.706 47.9062 845.952 Q47.0468 849.199 47.0468 852.223 Q47.0468 857.474 49.0838 860.339 Q51.1208 863.172 54.8766 863.172 Q58.0276 863.172 59.6509 861.294 Q61.2423 859.384 62.229 854.101 L63.0247 850.217 Q64.3933 843.024 67.8627 839.619 Q71.3001 836.181 77.0929 836.181 Q83.9997 836.181 87.5645 840.828 Q91.1293 845.443 91.1293 854.387 Q91.1293 857.761 90.3654 861.58 Q89.6015 865.368 88.1056 869.442 L81.4853 869.442 Q83.6814 865.527 84.7954 861.771 Q85.9094 858.015 85.9094 854.387 Q85.9094 848.881 83.7451 845.889 Q81.5808 842.897 77.5704 842.897 Q74.0692 842.897 72.0958 845.061 Q70.1225 847.194 69.1358 852.095 L68.3719 856.01 Q66.9396 863.204 63.8841 866.418 Q60.8285 869.633 55.3859 869.633 Q49.0838 869.633 45.4554 865.209 Q41.8269 860.753 41.8269 852.955 Q41.8269 849.613 42.4317 846.143 Q43.0364 842.674 44.2459 839.046 Z" fill="#000000" fill-rule="evenodd" fill-opacity="1" /><path clip-path="url(#clip770)" d="M44.2459 797.669 L50.5161 797.669 Q48.7655 801.329 47.9062 804.575 Q47.0468 807.822 47.0468 810.846 Q47.0468 816.097 49.0838 818.962 Q51.1208 821.795 54.8766 821.795 Q58.0276 821.795 59.6509 819.917 Q61.2423 818.007 62.229 812.723 L63.0247 808.84 Q64.3933 801.647 67.8627 798.241 Q71.3001 794.804 77.0929 794.804 Q83.9997 794.804 87.5645 799.451 Q91.1293 804.066 91.1293 813.01 Q91.1293 816.384 90.3654 820.203 Q89.6015 823.991 88.1056 828.065 L81.4853 828.065 Q83.6814 824.15 84.7954 820.394 Q85.9094 816.638 85.9094 813.01 Q85.9094 807.504 83.7451 804.512 Q81.5808 801.52 77.5704 801.52 Q74.0692 801.52 72.0958 803.684 Q70.1225 805.817 69.1358 810.718 L68.3719 814.633 Q66.9396 821.826 63.8841 825.041 Q60.8285 828.256 55.3859 828.256 Q49.0838 828.256 45.4554 823.832 Q41.8269 819.376 41.8269 811.578 Q41.8269 808.236 42.4317 804.766 Q43.0364 801.297 44.2459 797.669 Z" fill="#000000" fill-rule="evenodd" fill-opacity="1" /><path clip-path="url(#clip770)" d="M82.1218 783.537 L82.1218 776.821 L90.2063 776.821 L90.2063 783.537 L82.1218 783.537 M56.4999 783.537 L56.4999 776.821 L64.5843 776.821 L64.5843 783.537 L56.4999 783.537 Z" fill="#000000" fill-rule="evenodd" fill-opacity="1" /><path clip-path="url(#clip770)" d="M44.2459 713.609 L50.5161 713.609 Q48.7655 717.27 47.9062 720.516 Q47.0468 723.763 47.0468 726.786 Q47.0468 732.038 49.0838 734.903 Q51.1208 737.735 54.8766 737.735 Q58.0276 737.735 59.6509 735.858 Q61.2423 733.948 62.229 728.664 L63.0247 724.781 Q64.3933 717.588 67.8627 714.182 Q71.3001 710.745 77.0929 710.745 Q83.9997 710.745 87.5645 715.392 Q91.1293 720.007 91.1293 728.951 Q91.1293 732.325 90.3654 736.144 Q89.6015 739.932 88.1056 744.006 L81.4853 744.006 Q83.6814 740.091 84.7954 736.335 Q85.9094 732.579 85.9094 728.951 Q85.9094 723.444 83.7451 720.453 Q81.5808 717.461 77.5704 717.461 Q74.0692 717.461 72.0958 719.625 Q70.1225 721.758 69.1358 726.659 L68.3719 730.574 Q66.9396 737.767 63.8841 740.982 Q60.8285 744.197 55.3859 744.197 Q49.0838 744.197 45.4554 739.772 Q41.8269 735.316 41.8269 727.518 Q41.8269 724.176 42.4317 720.707 Q43.0364 717.238 44.2459 713.609 Z" fill="#000000" fill-rule="evenodd" fill-opacity="1" /><path clip-path="url(#clip770)" d="M54.5583 704.379 L54.5583 698.523 L82.3765 691.202 L54.5583 683.913 L54.5583 677.007 L82.3765 669.686 L54.5583 662.397 L54.5583 656.541 L90.2063 665.867 L90.2063 672.773 L60.9877 680.444 L90.2063 688.147 L90.2063 695.053 L54.5583 704.379 Z" fill="#000000" fill-rule="evenodd" fill-opacity="1" /><path clip-path="url(#clip770)" d="M70.9182 617.169 L73.7828 617.169 L73.7828 644.096 Q79.8302 643.714 83.013 640.467 Q86.1641 637.189 86.1641 631.364 Q86.1641 627.991 85.3365 624.84 Q84.509 621.657 82.8539 618.538 L88.3921 618.538 Q89.7289 621.689 90.4291 624.999 Q91.1293 628.309 91.1293 631.715 Q91.1293 640.245 86.1641 645.242 Q81.1988 650.207 72.7324 650.207 Q63.9796 650.207 58.8552 645.496 Q53.699 640.754 53.699 632.733 Q53.699 625.54 58.3459 621.37 Q62.9611 617.169 70.9182 617.169 M69.1995 623.025 Q64.3933 623.089 61.5288 625.731 Q58.6642 628.341 58.6642 632.669 Q58.6642 637.571 61.4333 640.531 Q64.2024 643.459 69.2313 643.905 L69.1995 623.025 Z" fill="#000000" fill-rule="evenodd" fill-opacity="1" /><path clip-path="url(#clip770)" d="M59.9692 584.099 L40.6811 584.099 L40.6811 578.243 L90.2063 578.243 L90.2063 584.099 L84.8591 584.099 Q88.0419 585.945 89.6015 588.778 Q91.1293 591.579 91.1293 595.526 Q91.1293 601.987 85.9731 606.061 Q80.8169 610.103 72.4141 610.103 Q64.0114 610.103 58.8552 606.061 Q53.699 601.987 53.699 595.526 Q53.699 591.579 55.2586 588.778 Q56.7863 585.945 59.9692 584.099 M72.4141 604.056 Q78.8753 604.056 82.5674 601.414 Q86.2277 598.74 86.2277 594.093 Q86.2277 589.446 82.5674 586.773 Q78.8753 584.099 72.4141 584.099 Q65.9529 584.099 62.2927 586.773 Q58.6006 589.446 58.6006 594.093 Q58.6006 598.74 62.2927 601.414 Q65.9529 604.056 72.4141 604.056 Z" fill="#000000" fill-rule="evenodd" fill-opacity="1" /><path clip-path="url(#clip770)" d="M70.9182 535.688 L73.7828 535.688 L73.7828 562.615 Q79.8302 562.233 83.013 558.986 Q86.1641 555.708 86.1641 549.883 Q86.1641 546.51 85.3365 543.359 Q84.509 540.176 82.8539 537.057 L88.3921 537.057 Q89.7289 540.208 90.4291 543.518 Q91.1293 546.828 91.1293 550.234 Q91.1293 558.764 86.1641 563.761 Q81.1988 568.726 72.7324 568.726 Q63.9796 568.726 58.8552 564.015 Q53.699 559.273 53.699 551.252 Q53.699 544.059 58.3459 539.889 Q62.9611 535.688 70.9182 535.688 M69.1995 541.544 Q64.3933 541.608 61.5288 544.25 Q58.6642 546.86 58.6642 551.188 Q58.6642 556.09 61.4333 559.05 Q64.2024 561.978 69.2313 562.424 L69.1995 541.544 Z" fill="#000000" fill-rule="evenodd" fill-opacity="1" /><path clip-path="url(#clip770)" d="M68.6902 496.443 L90.2063 496.443 L90.2063 502.3 L68.8812 502.3 Q63.8204 502.3 61.306 504.273 Q58.7915 506.247 58.7915 510.193 Q58.7915 514.936 61.8152 517.673 Q64.8389 520.41 70.0588 520.41 L90.2063 520.41 L90.2063 526.298 L54.5583 526.298 L54.5583 520.41 L60.0965 520.41 Q56.8818 518.31 55.2904 515.477 Q53.699 512.612 53.699 508.888 Q53.699 502.745 57.5184 499.594 Q61.306 496.443 68.6902 496.443 Z" fill="#000000" fill-rule="evenodd" fill-opacity="1" /><path clip-path="url(#clip770)" d="M82.1218 483.266 L82.1218 476.55 L87.5963 476.55 L97.7815 481.77 L97.7815 485.876 L87.5963 483.266 L82.1218 483.266 Z" fill="#000000" fill-rule="evenodd" fill-opacity="1" /><path clip-path="url(#clip770)" d="M44.4369 437.529 L54.5583 437.529 L54.5583 425.466 L59.1098 425.466 L59.1098 437.529 L78.4616 437.529 Q82.8221 437.529 84.0634 436.351 Q85.3047 435.142 85.3047 431.481 L85.3047 425.466 L90.2063 425.466 L90.2063 431.481 Q90.2063 438.261 87.6918 440.839 Q85.1455 443.417 78.4616 443.417 L59.1098 443.417 L59.1098 447.714 L54.5583 447.714 L54.5583 443.417 L44.4369 443.417 L44.4369 437.529 Z" fill="#000000" fill-rule="evenodd" fill-opacity="1" /><path clip-path="url(#clip770)" d="M54.5583 417.763 L54.5583 411.907 L90.2063 411.907 L90.2063 417.763 L54.5583 417.763 M40.6811 417.763 L40.6811 411.907 L48.0971 411.907 L48.0971 417.763 L40.6811 417.763 Z" fill="#000000" fill-rule="evenodd" fill-opacity="1" /><path clip-path="url(#clip770)" d="M61.4015 371.898 Q57.4547 369.702 55.5768 366.647 Q53.699 363.591 53.699 359.453 Q53.699 353.883 57.6139 350.86 Q61.4969 347.836 68.6902 347.836 L90.2063 347.836 L90.2063 353.724 L68.8812 353.724 Q63.7568 353.724 61.2741 355.538 Q58.7915 357.353 58.7915 361.077 Q58.7915 365.628 61.8152 368.27 Q64.8389 370.912 70.0588 370.912 L90.2063 370.912 L90.2063 376.8 L68.8812 376.8 Q63.7249 376.8 61.2741 378.614 Q58.7915 380.428 58.7915 384.216 Q58.7915 388.704 61.8471 391.346 Q64.8708 393.987 70.0588 393.987 L90.2063 393.987 L90.2063 399.876 L54.5583 399.876 L54.5583 393.987 L60.0965 393.987 Q56.8182 391.982 55.2586 389.181 Q53.699 386.38 53.699 382.529 Q53.699 378.646 55.6723 375.94 Q57.6457 373.203 61.4015 371.898 Z" fill="#000000" fill-rule="evenodd" fill-opacity="1" /><path clip-path="url(#clip770)" d="M70.9182 305.663 L73.7828 305.663 L73.7828 332.59 Q79.8302 332.208 83.013 328.962 Q86.1641 325.683 86.1641 319.859 Q86.1641 316.485 85.3365 313.334 Q84.509 310.151 82.8539 307.032 L88.3921 307.032 Q89.7289 310.183 90.4291 313.493 Q91.1293 316.803 91.1293 320.209 Q91.1293 328.739 86.1641 333.736 Q81.1988 338.701 72.7324 338.701 Q63.9796 338.701 58.8552 333.99 Q53.699 329.248 53.699 321.227 Q53.699 314.034 58.3459 309.864 Q62.9611 305.663 70.9182 305.663 M69.1995 311.52 Q64.3933 311.583 61.5288 314.225 Q58.6642 316.835 58.6642 321.164 Q58.6642 326.065 61.4333 329.025 Q64.2024 331.953 69.2313 332.399 L69.1995 311.52 Z" fill="#000000" fill-rule="evenodd" fill-opacity="1" /><path clip-path="url(#clip770)" d="M82.1218 294.555 L82.1218 287.839 L90.2063 287.839 L90.2063 294.555 L82.1218 294.555 M56.4999 294.555 L56.4999 287.839 L64.5843 287.839 L64.5843 294.555 L56.4999 294.555 Z" fill="#000000" fill-rule="evenodd" fill-opacity="1" /><path clip-path="url(#clip770)" d="M42.6863 273.198 L42.6863 247.958 L48.0971 247.958 L48.0971 267.31 L59.7464 267.31 Q59.2689 265.909 59.0461 264.509 Q58.7915 263.108 58.7915 261.708 Q58.7915 253.751 63.152 249.104 Q67.5125 244.457 74.9604 244.457 Q82.6311 244.457 86.8961 249.231 Q91.1293 254.005 91.1293 262.695 Q91.1293 265.686 90.6201 268.806 Q90.1108 271.893 89.0923 275.203 L82.6311 275.203 Q84.1907 272.339 84.9546 269.283 Q85.7185 266.228 85.7185 262.822 Q85.7185 257.316 82.8221 254.101 Q79.9257 250.886 74.9604 250.886 Q69.9952 250.886 67.0988 254.101 Q64.2024 257.316 64.2024 262.822 Q64.2024 265.4 64.7753 267.978 Q65.3482 270.524 66.5577 273.198 L42.6863 273.198 Z" fill="#000000" fill-rule="evenodd" fill-opacity="1" /><path clip-path="url(#clip770)" d="M46.9195 218.039 Q46.9195 223.004 51.8211 225.519 Q56.6908 228.001 66.494 228.001 Q76.2654 228.001 81.167 225.519 Q86.0367 223.004 86.0367 218.039 Q86.0367 213.042 81.167 210.559 Q76.2654 208.045 66.494 208.045 Q56.6908 208.045 51.8211 210.559 Q46.9195 213.042 46.9195 218.039 M41.8269 218.039 Q41.8269 210.05 48.1608 205.849 Q54.4628 201.616 66.494 201.616 Q78.4934 201.616 84.8273 205.849 Q91.1293 210.05 91.1293 218.039 Q91.1293 226.028 84.8273 230.261 Q78.4934 234.463 66.494 234.463 Q54.4628 234.463 48.1608 230.261 Q41.8269 226.028 41.8269 218.039 Z" fill="#000000" fill-rule="evenodd" fill-opacity="1" /><polyline clip-path="url(#clip772)" style="stroke:#009af9; stroke-linecap:round; stroke-linejoin:round; stroke-width:4; stroke-opacity:1; fill:none" points="
  350.696,518.068 360.846,224.493 370.996,237.79 381.146,226.083 391.296,242.332 401.446,228.078 411.596,248.692 421.746,207.465 431.896,159.932 442.046,202.326 
  452.196,214.257 462.346,256.216 472.496,219.488 482.646,235.806 492.796,204.859 502.946,144.98 513.096,233.154 523.246,166.86 533.396,203.583 543.545,189.912 
  553.695,157.197 563.845,223.353 573.995,190.34 584.145,220.099 594.295,227.811 604.445,182.948 614.595,205.834 624.745,181.773 634.895,174.199 645.045,237.485 
  655.195,186.978 665.345,222.063 675.495,215.069 685.645,165.965 695.795,146.065 705.945,226.473 716.095,213.515 726.245,202.471 736.395,208.593 746.545,217.138 
  756.695,210.107 766.845,219.561 776.995,204.735 787.144,232.866 797.294,195.226 807.444,240.503 817.594,175.302 827.744,228.422 837.894,185.091 848.044,145.321 
  858.194,215.739 868.344,206.318 878.494,165.754 888.644,142.678 898.794,146.097 908.944,194.411 919.094,192.336 929.244,193.94 939.394,230.642 949.544,196.909 
  959.694,175.223 969.844,176.831 979.994,210.418 990.144,206.539 1000.29,200.088 1010.44,206.623 1020.59,187.156 1030.74,215.974 1040.89,208.585 1051.04,197.569 
  1061.19,160.466 1071.34,170.904 1081.49,200.449 1091.64,165.078 1101.79,235.254 1111.94,220.778 1122.09,191.391 1132.24,163.809 1142.39,187.319 1152.54,167.64 
  1162.69,162.329 1172.84,244.352 1182.99,167.32 1193.14,213.593 1203.29,226.031 1213.44,212.096 1223.59,216.58 1233.74,209.307 1243.89,211.804 1254.04,169.81 
  1264.19,153.642 1274.34,208.185 1284.49,130.785 1294.64,245.646 1304.79,204.129 1314.94,202.038 1325.09,209.552 1335.24,196.311 1345.39,156.448 1355.54,179.499 
  1365.69,202.157 1375.84,181.653 1385.99,212.388 1396.14,168.499 1406.29,210.731 1416.44,171.821 1426.59,190.819 1436.74,195.189 1446.89,201.358 1457.04,151.265 
  1467.19,195.997 1477.34,225.648 1487.49,206.879 1497.64,183.104 1507.79,187.157 1517.94,220.584 1528.09,213.696 1538.24,180.057 1548.39,193.03 1558.54,209.734 
  1568.69,199.441 1578.84,230.052 1588.99,184.302 1599.14,224.712 1609.29,163.796 1619.44,234.749 1629.59,146.668 1639.74,180.163 1649.89,162.194 1660.04,178.747 
  1670.19,220.833 1680.34,154.392 1690.49,178.57 1700.64,240.314 1710.79,201.96 1720.94,187.52 1731.09,176.369 1741.24,224.941 1751.39,217.71 1761.54,192.51 
  1771.69,209.536 1781.84,239.191 1791.99,198.338 1802.14,230.811 1812.29,226.444 1822.44,167.656 1832.59,207.743 1842.74,167.688 1852.89,188.561 1863.04,145.402 
  1873.19,153.964 1883.34,218.987 1893.49,207.884 1903.64,192.784 1913.79,178.582 1923.94,167.95 1934.09,189.508 1944.24,242.286 1954.39,247.96 1964.54,220.035 
  1974.69,182.84 1984.84,182.492 1994.99,169.375 2005.14,238.201 2015.29,169.636 2025.44,224.285 2035.59,255.836 2045.74,244.904 2055.89,157.063 2066.04,205.477 
  2076.19,183.497 2086.34,231.556 2096.49,170.484 2106.64,208.886 2116.79,190.336 2126.94,225.539 2137.09,218.774 2147.24,238.264 2157.39,214.811 2167.54,216.324 
  2177.69,203.638 2187.84,164.213 2197.99,190.156 2208.14,203.035 2218.29,241.232 2228.44,221.078 2238.59,192.198 2248.74,178.534 2258.89,173.959 2269.04,177.621 
  2279.19,198.54 2289.34,230.046 2299.49,191.816 2309.64,202.017 2319.79,197.792 2329.94,167.316 2340.09,177.477 2350.24,179.824 2360.39,215.123 2370.54,200.448 
  2380.69,192.009 2390.84,207.653 2400.99,221.928 2411.14,148.888 2421.29,209.74 2431.44,244.645 2441.59,214.117 2451.74,205.887 2461.89,178.661 2472.04,186.688 
  2482.19,244.475 2492.34,206.223 2502.49,224.82 2512.64,204.697 2522.79,218.908 2532.94,175.078 2543.09,189.667 2553.24,179.222 2563.39,217.269 2573.54,207.43 
  2583.69,177.797 2593.84,203.237 2603.99,196.482 2614.14,178.092 2624.29,203.062 2634.44,249.663 2644.59,212.272 2654.74,227.635 2664.89,230.969 2675.04,251.062 
  2685.19,187.386 2695.34,183.877 2705.49,217.475 2715.64,231.986 2725.79,171.132 2735.94,179.441 2746.09,165.852 2756.24,230.454 2766.39,222.987 2776.54,200.612 
  2786.69,244.941 2796.84,164.764 2806.99,246.134 2817.14,184.244 2827.29,224.401 2837.44,110.236 2847.59,189.949 2857.74,206.074 2867.89,215.241 2878.04,221.412 
  2888.19,198.412 2898.34,188.903 2908.49,180.927 2918.64,218.067 2928.79,208.547 2938.94,205.078 2949.09,189.938 2959.24,193.933 2969.39,181.321 2979.54,221.141 
  2989.69,204.779 2999.84,242.165 3009.99,204.038 
  "/>
</svg>
