<?xml version="1.0" encoding="utf-8"?>
<svg xmlns="http://www.w3.org/2000/svg" xmlns:xlink="http://www.w3.org/1999/xlink" width="800" height="300" viewBox="0 0 3200 1200">
<defs>
  <clipPath id="clip430">
    <rect x="0" y="0" width="3200" height="1200"/>
  </clipPath>
</defs>
<path clip-path="url(#clip430)" d="
M0 1200 L3200 1200 L3200 0 L0 0  Z
  " fill="#ffffff" fill-rule="evenodd" fill-opacity="1"/>
<defs>
  <clipPath id="clip431">
    <rect x="640" y="0" width="2241" height="1200"/>
  </clipPath>
</defs>
<path clip-path="url(#clip430)" d="
M271.839 1042.58 L3089.76 1042.58 L3089.76 110.236 L271.839 110.236  Z
  " fill="#ffffff" fill-rule="evenodd" fill-opacity="1"/>
<defs>
  <clipPath id="clip432">
    <rect x="271" y="110" width="2819" height="933"/>
  </clipPath>
</defs>
<polyline clip-path="url(#clip432)" style="stroke:#000000; stroke-linecap:round; stroke-linejoin:round; stroke-width:2; stroke-opacity:0.1; fill:none" points="
  722.707,1042.58 722.707,110.236 
  "/>
<polyline clip-path="url(#clip432)" style="stroke:#000000; stroke-linecap:round; stroke-linejoin:round; stroke-width:2; stroke-opacity:0.1; fill:none" points="
  1596.26,1042.58 1596.26,110.236 
  "/>
<polyline clip-path="url(#clip432)" style="stroke:#000000; stroke-linecap:round; stroke-linejoin:round; stroke-width:2; stroke-opacity:0.1; fill:none" points="
  2469.82,1042.58 2469.82,110.236 
  "/>
<polyline clip-path="url(#clip430)" style="stroke:#000000; stroke-linecap:round; stroke-linejoin:round; stroke-width:4; stroke-opacity:1; fill:none" points="
  271.839,1042.58 3089.76,1042.58 
  "/>
<polyline clip-path="url(#clip430)" style="stroke:#000000; stroke-linecap:round; stroke-linejoin:round; stroke-width:4; stroke-opacity:1; fill:none" points="
  722.707,1042.58 722.707,1023.68 
  "/>
<polyline clip-path="url(#clip430)" style="stroke:#000000; stroke-linecap:round; stroke-linejoin:round; stroke-width:4; stroke-opacity:1; fill:none" points="
  1596.26,1042.58 1596.26,1023.68 
  "/>
<polyline clip-path="url(#clip430)" style="stroke:#000000; stroke-linecap:round; stroke-linejoin:round; stroke-width:4; stroke-opacity:1; fill:none" points="
  2469.82,1042.58 2469.82,1023.68 
  "/>
<path clip-path="url(#clip430)" d="M594.502 1107.44 L610.821 1107.44 L610.821 1111.38 L588.877 1111.38 L588.877 1107.44 Q591.539 1104.69 596.122 1100.06 Q600.729 1095.4 601.909 1094.06 Q604.155 1091.54 605.034 1089.8 Q605.937 1088.04 605.937 1086.35 Q605.937 1083.6 603.993 1081.86 Q602.071 1080.13 598.969 1080.13 Q596.77 1080.13 594.317 1080.89 Q591.886 1081.65 589.108 1083.2 L589.108 1078.48 Q591.932 1077.35 594.386 1076.77 Q596.84 1076.19 598.877 1076.19 Q604.247 1076.19 607.442 1078.88 Q610.636 1081.56 610.636 1086.05 Q610.636 1088.18 609.826 1090.1 Q609.039 1092 606.932 1094.59 Q606.354 1095.26 603.252 1098.48 Q600.15 1101.68 594.502 1107.44 Z" fill="#000000" fill-rule="evenodd" fill-opacity="1" /><path clip-path="url(#clip430)" d="M630.636 1079.89 Q627.025 1079.89 625.196 1083.46 Q623.391 1087 623.391 1094.13 Q623.391 1101.24 625.196 1104.8 Q627.025 1108.34 630.636 1108.34 Q634.27 1108.34 636.076 1104.8 Q637.904 1101.24 637.904 1094.13 Q637.904 1087 636.076 1083.46 Q634.27 1079.89 630.636 1079.89 M630.636 1076.19 Q636.446 1076.19 639.502 1080.8 Q642.58 1085.38 642.58 1094.13 Q642.58 1102.86 639.502 1107.46 Q636.446 1112.05 630.636 1112.05 Q624.826 1112.05 621.747 1107.46 Q618.691 1102.86 618.691 1094.13 Q618.691 1085.38 621.747 1080.8 Q624.826 1076.19 630.636 1076.19 Z" fill="#000000" fill-rule="evenodd" fill-opacity="1" /><path clip-path="url(#clip430)" d="M654.826 1107.44 L671.145 1107.44 L671.145 1111.38 L649.201 1111.38 L649.201 1107.44 Q651.863 1104.69 656.446 1100.06 Q661.052 1095.4 662.233 1094.06 Q664.478 1091.54 665.358 1089.8 Q666.261 1088.04 666.261 1086.35 Q666.261 1083.6 664.316 1081.86 Q662.395 1080.13 659.293 1080.13 Q657.094 1080.13 654.64 1080.89 Q652.21 1081.65 649.432 1083.2 L649.432 1078.48 Q652.256 1077.35 654.71 1076.77 Q657.164 1076.19 659.201 1076.19 Q664.571 1076.19 667.765 1078.88 Q670.96 1081.56 670.96 1086.05 Q670.96 1088.18 670.15 1090.1 Q669.363 1092 667.256 1094.59 Q666.677 1095.26 663.576 1098.48 Q660.474 1101.68 654.826 1107.44 Z" fill="#000000" fill-rule="evenodd" fill-opacity="1" /><path clip-path="url(#clip430)" d="M695.126 1092.74 Q698.483 1093.46 700.358 1095.73 Q702.256 1098 702.256 1101.33 Q702.256 1106.45 698.737 1109.25 Q695.219 1112.05 688.737 1112.05 Q686.562 1112.05 684.247 1111.61 Q681.955 1111.19 679.501 1110.33 L679.501 1105.82 Q681.446 1106.95 683.761 1107.53 Q686.075 1108.11 688.599 1108.11 Q692.997 1108.11 695.288 1106.38 Q697.603 1104.64 697.603 1101.33 Q697.603 1098.27 695.45 1096.56 Q693.321 1094.82 689.501 1094.82 L685.474 1094.82 L685.474 1090.98 L689.686 1090.98 Q693.136 1090.98 694.964 1089.62 Q696.793 1088.23 696.793 1085.64 Q696.793 1082.97 694.895 1081.56 Q693.02 1080.13 689.501 1080.13 Q687.58 1080.13 685.381 1080.54 Q683.182 1080.96 680.543 1081.84 L680.543 1077.67 Q683.205 1076.93 685.52 1076.56 Q687.858 1076.19 689.918 1076.19 Q695.242 1076.19 698.344 1078.62 Q701.446 1081.03 701.446 1085.15 Q701.446 1088.02 699.802 1090.01 Q698.159 1091.98 695.126 1092.74 Z" fill="#000000" fill-rule="evenodd" fill-opacity="1" /><path clip-path="url(#clip430)" d="M708.367 1096.49 L720.844 1096.49 L720.844 1100.29 L708.367 1100.29 L708.367 1096.49 Z" fill="#000000" fill-rule="evenodd" fill-opacity="1" /><path clip-path="url(#clip430)" d="M738.228 1079.89 Q734.617 1079.89 732.788 1083.46 Q730.983 1087 730.983 1094.13 Q730.983 1101.24 732.788 1104.8 Q734.617 1108.34 738.228 1108.34 Q741.862 1108.34 743.668 1104.8 Q745.496 1101.24 745.496 1094.13 Q745.496 1087 743.668 1083.46 Q741.862 1079.89 738.228 1079.89 M738.228 1076.19 Q744.038 1076.19 747.094 1080.8 Q750.172 1085.38 750.172 1094.13 Q750.172 1102.86 747.094 1107.46 Q744.038 1112.05 738.228 1112.05 Q732.418 1112.05 729.339 1107.46 Q726.284 1102.86 726.284 1094.13 Q726.284 1085.38 729.339 1080.8 Q732.418 1076.19 738.228 1076.19 Z" fill="#000000" fill-rule="evenodd" fill-opacity="1" /><path clip-path="url(#clip430)" d="M757.209 1076.82 L779.431 1076.82 L779.431 1078.81 L766.885 1111.38 L762.001 1111.38 L773.806 1080.75 L757.209 1080.75 L757.209 1076.82 Z" fill="#000000" fill-rule="evenodd" fill-opacity="1" /><path clip-path="url(#clip430)" d="M785.797 1096.49 L798.274 1096.49 L798.274 1100.29 L785.797 1100.29 L785.797 1096.49 Z" fill="#000000" fill-rule="evenodd" fill-opacity="1" /><path clip-path="url(#clip430)" d="M815.658 1079.89 Q812.047 1079.89 810.218 1083.46 Q808.413 1087 808.413 1094.13 Q808.413 1101.24 810.218 1104.8 Q812.047 1108.34 815.658 1108.34 Q819.292 1108.34 821.098 1104.8 Q822.927 1101.24 822.927 1094.13 Q822.927 1087 821.098 1083.46 Q819.292 1079.89 815.658 1079.89 M815.658 1076.19 Q821.468 1076.19 824.524 1080.8 Q827.602 1085.38 827.602 1094.13 Q827.602 1102.86 824.524 1107.46 Q821.468 1112.05 815.658 1112.05 Q809.848 1112.05 806.769 1107.46 Q803.714 1102.86 803.714 1094.13 Q803.714 1085.38 806.769 1080.8 Q809.848 1076.19 815.658 1076.19 Z" fill="#000000" fill-rule="evenodd" fill-opacity="1" /><path clip-path="url(#clip430)" d="M836.63 1107.44 L844.269 1107.44 L844.269 1081.07 L835.959 1082.74 L835.959 1078.48 L844.223 1076.82 L848.899 1076.82 L848.899 1107.44 L856.537 1107.44 L856.537 1111.38 L836.63 1111.38 L836.63 1107.44 Z" fill="#000000" fill-rule="evenodd" fill-opacity="1" /><path clip-path="url(#clip430)" d="M1468.06 1107.44 L1484.38 1107.44 L1484.38 1111.38 L1462.43 1111.38 L1462.43 1107.44 Q1465.1 1104.69 1469.68 1100.06 Q1474.29 1095.4 1475.47 1094.06 Q1477.71 1091.54 1478.59 1089.8 Q1479.49 1088.04 1479.49 1086.35 Q1479.49 1083.6 1477.55 1081.86 Q1475.63 1080.13 1472.53 1080.13 Q1470.33 1080.13 1467.87 1080.89 Q1465.44 1081.65 1462.66 1083.2 L1462.66 1078.48 Q1465.49 1077.35 1467.94 1076.77 Q1470.4 1076.19 1472.43 1076.19 Q1477.8 1076.19 1481 1078.88 Q1484.19 1081.56 1484.19 1086.05 Q1484.19 1088.18 1483.38 1090.1 Q1482.6 1092 1480.49 1094.59 Q1479.91 1095.26 1476.81 1098.48 Q1473.71 1101.68 1468.06 1107.44 Z" fill="#000000" fill-rule="evenodd" fill-opacity="1" /><path clip-path="url(#clip430)" d="M1504.19 1079.89 Q1500.58 1079.89 1498.75 1083.46 Q1496.95 1087 1496.95 1094.13 Q1496.95 1101.24 1498.75 1104.8 Q1500.58 1108.34 1504.19 1108.34 Q1507.83 1108.34 1509.63 1104.8 Q1511.46 1101.24 1511.46 1094.13 Q1511.46 1087 1509.63 1083.46 Q1507.83 1079.89 1504.19 1079.89 M1504.19 1076.19 Q1510 1076.19 1513.06 1080.8 Q1516.14 1085.38 1516.14 1094.13 Q1516.14 1102.86 1513.06 1107.46 Q1510 1112.05 1504.19 1112.05 Q1498.38 1112.05 1495.3 1107.46 Q1492.25 1102.86 1492.25 1094.13 Q1492.25 1085.38 1495.3 1080.8 Q1498.38 1076.19 1504.19 1076.19 Z" fill="#000000" fill-rule="evenodd" fill-opacity="1" /><path clip-path="url(#clip430)" d="M1528.38 1107.44 L1544.7 1107.44 L1544.7 1111.38 L1522.76 1111.38 L1522.76 1107.44 Q1525.42 1104.69 1530 1100.06 Q1534.61 1095.4 1535.79 1094.06 Q1538.03 1091.54 1538.91 1089.8 Q1539.82 1088.04 1539.82 1086.35 Q1539.82 1083.6 1537.87 1081.86 Q1535.95 1080.13 1532.85 1080.13 Q1530.65 1080.13 1528.2 1080.89 Q1525.77 1081.65 1522.99 1083.2 L1522.99 1078.48 Q1525.81 1077.35 1528.27 1076.77 Q1530.72 1076.19 1532.76 1076.19 Q1538.13 1076.19 1541.32 1078.88 Q1544.52 1081.56 1544.52 1086.05 Q1544.52 1088.18 1543.71 1090.1 Q1542.92 1092 1540.81 1094.59 Q1540.23 1095.26 1537.13 1098.48 Q1534.03 1101.68 1528.38 1107.44 Z" fill="#000000" fill-rule="evenodd" fill-opacity="1" /><path clip-path="url(#clip430)" d="M1568.68 1092.74 Q1572.04 1093.46 1573.91 1095.73 Q1575.81 1098 1575.81 1101.33 Q1575.81 1106.45 1572.29 1109.25 Q1568.78 1112.05 1562.29 1112.05 Q1560.12 1112.05 1557.8 1111.61 Q1555.51 1111.19 1553.06 1110.33 L1553.06 1105.82 Q1555 1106.95 1557.32 1107.53 Q1559.63 1108.11 1562.16 1108.11 Q1566.55 1108.11 1568.84 1106.38 Q1571.16 1104.64 1571.16 1101.33 Q1571.16 1098.27 1569.01 1096.56 Q1566.88 1094.82 1563.06 1094.82 L1559.03 1094.82 L1559.03 1090.98 L1563.24 1090.98 Q1566.69 1090.98 1568.52 1089.62 Q1570.35 1088.23 1570.35 1085.64 Q1570.35 1082.97 1568.45 1081.56 Q1566.58 1080.13 1563.06 1080.13 Q1561.14 1080.13 1558.94 1080.54 Q1556.74 1080.96 1554.1 1081.84 L1554.1 1077.67 Q1556.76 1076.93 1559.08 1076.56 Q1561.41 1076.19 1563.47 1076.19 Q1568.8 1076.19 1571.9 1078.62 Q1575 1081.03 1575 1085.15 Q1575 1088.02 1573.36 1090.01 Q1571.72 1091.98 1568.68 1092.74 Z" fill="#000000" fill-rule="evenodd" fill-opacity="1" /><path clip-path="url(#clip430)" d="M1581.92 1096.49 L1594.4 1096.49 L1594.4 1100.29 L1581.92 1100.29 L1581.92 1096.49 Z" fill="#000000" fill-rule="evenodd" fill-opacity="1" /><path clip-path="url(#clip430)" d="M1611.78 1079.89 Q1608.17 1079.89 1606.34 1083.46 Q1604.54 1087 1604.54 1094.13 Q1604.54 1101.24 1606.34 1104.8 Q1608.17 1108.34 1611.78 1108.34 Q1615.42 1108.34 1617.22 1104.8 Q1619.05 1101.24 1619.05 1094.13 Q1619.05 1087 1617.22 1083.46 Q1615.42 1079.89 1611.78 1079.89 M1611.78 1076.19 Q1617.59 1076.19 1620.65 1080.8 Q1623.73 1085.38 1623.73 1094.13 Q1623.73 1102.86 1620.65 1107.46 Q1617.59 1112.05 1611.78 1112.05 Q1605.97 1112.05 1602.9 1107.46 Q1599.84 1102.86 1599.84 1094.13 Q1599.84 1085.38 1602.9 1080.8 Q1605.97 1076.19 1611.78 1076.19 Z" fill="#000000" fill-rule="evenodd" fill-opacity="1" /><path clip-path="url(#clip430)" d="M1641.95 1094.96 Q1638.61 1094.96 1636.69 1096.75 Q1634.79 1098.53 1634.79 1101.65 Q1634.79 1104.78 1636.69 1106.56 Q1638.61 1108.34 1641.95 1108.34 Q1645.28 1108.34 1647.2 1106.56 Q1649.12 1104.76 1649.12 1101.65 Q1649.12 1098.53 1647.2 1096.75 Q1645.3 1094.96 1641.95 1094.96 M1637.27 1092.97 Q1634.26 1092.23 1632.57 1090.17 Q1630.9 1088.11 1630.9 1085.15 Q1630.9 1081.01 1633.84 1078.6 Q1636.81 1076.19 1641.95 1076.19 Q1647.11 1076.19 1650.05 1078.6 Q1652.99 1081.01 1652.99 1085.15 Q1652.99 1088.11 1651.3 1090.17 Q1649.63 1092.23 1646.65 1092.97 Q1650.03 1093.76 1651.9 1096.05 Q1653.8 1098.34 1653.8 1101.65 Q1653.8 1106.68 1650.72 1109.36 Q1647.66 1112.05 1641.95 1112.05 Q1636.23 1112.05 1633.15 1109.36 Q1630.09 1106.68 1630.09 1101.65 Q1630.09 1098.34 1631.99 1096.05 Q1633.89 1093.76 1637.27 1092.97 M1635.56 1085.59 Q1635.56 1088.27 1637.22 1089.78 Q1638.91 1091.28 1641.95 1091.28 Q1644.96 1091.28 1646.65 1089.78 Q1648.36 1088.27 1648.36 1085.59 Q1648.36 1082.9 1646.65 1081.4 Q1644.96 1079.89 1641.95 1079.89 Q1638.91 1079.89 1637.22 1081.4 Q1635.56 1082.9 1635.56 1085.59 Z" fill="#000000" fill-rule="evenodd" fill-opacity="1" /><path clip-path="url(#clip430)" d="M1659.35 1096.49 L1671.83 1096.49 L1671.83 1100.29 L1659.35 1100.29 L1659.35 1096.49 Z" fill="#000000" fill-rule="evenodd" fill-opacity="1" /><path clip-path="url(#clip430)" d="M1689.21 1079.89 Q1685.6 1079.89 1683.77 1083.46 Q1681.97 1087 1681.97 1094.13 Q1681.97 1101.24 1683.77 1104.8 Q1685.6 1108.34 1689.21 1108.34 Q1692.85 1108.34 1694.65 1104.8 Q1696.48 1101.24 1696.48 1094.13 Q1696.48 1087 1694.65 1083.46 Q1692.85 1079.89 1689.21 1079.89 M1689.21 1076.19 Q1695.02 1076.19 1698.08 1080.8 Q1701.16 1085.38 1701.16 1094.13 Q1701.16 1102.86 1698.08 1107.46 Q1695.02 1112.05 1689.21 1112.05 Q1683.4 1112.05 1680.33 1107.46 Q1677.27 1102.86 1677.27 1094.13 Q1677.27 1085.38 1680.33 1080.8 Q1683.4 1076.19 1689.21 1076.19 Z" fill="#000000" fill-rule="evenodd" fill-opacity="1" /><path clip-path="url(#clip430)" d="M1710.19 1107.44 L1717.83 1107.44 L1717.83 1081.07 L1709.52 1082.74 L1709.52 1078.48 L1717.78 1076.82 L1722.46 1076.82 L1722.46 1107.44 L1730.09 1107.44 L1730.09 1111.38 L1710.19 1111.38 L1710.19 1107.44 Z" fill="#000000" fill-rule="evenodd" fill-opacity="1" /><path clip-path="url(#clip430)" d="M2341.62 1107.44 L2357.93 1107.44 L2357.93 1111.38 L2335.99 1111.38 L2335.99 1107.44 Q2338.65 1104.69 2343.24 1100.06 Q2347.84 1095.4 2349.02 1094.06 Q2351.27 1091.54 2352.15 1089.8 Q2353.05 1088.04 2353.05 1086.35 Q2353.05 1083.6 2351.11 1081.86 Q2349.18 1080.13 2346.08 1080.13 Q2343.88 1080.13 2341.43 1080.89 Q2339 1081.65 2336.22 1083.2 L2336.22 1078.48 Q2339.05 1077.35 2341.5 1076.77 Q2343.95 1076.19 2345.99 1076.19 Q2351.36 1076.19 2354.55 1078.88 Q2357.75 1081.56 2357.75 1086.05 Q2357.75 1088.18 2356.94 1090.1 Q2356.15 1092 2354.05 1094.59 Q2353.47 1095.26 2350.36 1098.48 Q2347.26 1101.68 2341.62 1107.44 Z" fill="#000000" fill-rule="evenodd" fill-opacity="1" /><path clip-path="url(#clip430)" d="M2377.75 1079.89 Q2374.14 1079.89 2372.31 1083.46 Q2370.5 1087 2370.5 1094.13 Q2370.5 1101.24 2372.31 1104.8 Q2374.14 1108.34 2377.75 1108.34 Q2381.38 1108.34 2383.19 1104.8 Q2385.02 1101.24 2385.02 1094.13 Q2385.02 1087 2383.19 1083.46 Q2381.38 1079.89 2377.75 1079.89 M2377.75 1076.19 Q2383.56 1076.19 2386.61 1080.8 Q2389.69 1085.38 2389.69 1094.13 Q2389.69 1102.86 2386.61 1107.46 Q2383.56 1112.05 2377.75 1112.05 Q2371.94 1112.05 2368.86 1107.46 Q2365.8 1102.86 2365.8 1094.13 Q2365.8 1085.38 2368.86 1080.8 Q2371.94 1076.19 2377.75 1076.19 Z" fill="#000000" fill-rule="evenodd" fill-opacity="1" /><path clip-path="url(#clip430)" d="M2401.94 1107.44 L2418.26 1107.44 L2418.26 1111.38 L2396.31 1111.38 L2396.31 1107.44 Q2398.98 1104.69 2403.56 1100.06 Q2408.17 1095.4 2409.35 1094.06 Q2411.59 1091.54 2412.47 1089.8 Q2413.37 1088.04 2413.37 1086.35 Q2413.37 1083.6 2411.43 1081.86 Q2409.51 1080.13 2406.41 1080.13 Q2404.21 1080.13 2401.75 1080.89 Q2399.32 1081.65 2396.55 1083.2 L2396.55 1078.48 Q2399.37 1077.35 2401.82 1076.77 Q2404.28 1076.19 2406.31 1076.19 Q2411.68 1076.19 2414.88 1078.88 Q2418.07 1081.56 2418.07 1086.05 Q2418.07 1088.18 2417.26 1090.1 Q2416.48 1092 2414.37 1094.59 Q2413.79 1095.26 2410.69 1098.48 Q2407.59 1101.68 2401.94 1107.44 Z" fill="#000000" fill-rule="evenodd" fill-opacity="1" /><path clip-path="url(#clip430)" d="M2442.24 1092.74 Q2445.6 1093.46 2447.47 1095.73 Q2449.37 1098 2449.37 1101.33 Q2449.37 1106.45 2445.85 1109.25 Q2442.33 1112.05 2435.85 1112.05 Q2433.67 1112.05 2431.36 1111.61 Q2429.07 1111.19 2426.61 1110.33 L2426.61 1105.82 Q2428.56 1106.95 2430.87 1107.53 Q2433.19 1108.11 2435.71 1108.11 Q2440.11 1108.11 2442.4 1106.38 Q2444.72 1104.64 2444.72 1101.33 Q2444.72 1098.27 2442.56 1096.56 Q2440.43 1094.82 2436.61 1094.82 L2432.59 1094.82 L2432.59 1090.98 L2436.8 1090.98 Q2440.25 1090.98 2442.08 1089.62 Q2443.91 1088.23 2443.91 1085.64 Q2443.91 1082.97 2442.01 1081.56 Q2440.13 1080.13 2436.61 1080.13 Q2434.69 1080.13 2432.49 1080.54 Q2430.3 1080.96 2427.66 1081.84 L2427.66 1077.67 Q2430.32 1076.93 2432.63 1076.56 Q2434.97 1076.19 2437.03 1076.19 Q2442.36 1076.19 2445.46 1078.62 Q2448.56 1081.03 2448.56 1085.15 Q2448.56 1088.02 2446.92 1090.01 Q2445.27 1091.98 2442.24 1092.74 Z" fill="#000000" fill-rule="evenodd" fill-opacity="1" /><path clip-path="url(#clip430)" d="M2455.48 1096.49 L2467.96 1096.49 L2467.96 1100.29 L2455.48 1100.29 L2455.48 1096.49 Z" fill="#000000" fill-rule="evenodd" fill-opacity="1" /><path clip-path="url(#clip430)" d="M2485.34 1079.89 Q2481.73 1079.89 2479.9 1083.46 Q2478.1 1087 2478.1 1094.13 Q2478.1 1101.24 2479.9 1104.8 Q2481.73 1108.34 2485.34 1108.34 Q2488.98 1108.34 2490.78 1104.8 Q2492.61 1101.24 2492.61 1094.13 Q2492.61 1087 2490.78 1083.46 Q2488.98 1079.89 2485.34 1079.89 M2485.34 1076.19 Q2491.15 1076.19 2494.21 1080.8 Q2497.29 1085.38 2497.29 1094.13 Q2497.29 1102.86 2494.21 1107.46 Q2491.15 1112.05 2485.34 1112.05 Q2479.53 1112.05 2476.45 1107.46 Q2473.4 1102.86 2473.4 1094.13 Q2473.4 1085.38 2476.45 1080.8 Q2479.53 1076.19 2485.34 1076.19 Z" fill="#000000" fill-rule="evenodd" fill-opacity="1" /><path clip-path="url(#clip430)" d="M2505.64 1110.66 L2505.64 1106.4 Q2507.4 1107.23 2509.21 1107.67 Q2511.01 1108.11 2512.75 1108.11 Q2517.38 1108.11 2519.81 1105.01 Q2522.26 1101.89 2522.61 1095.54 Q2521.27 1097.53 2519.21 1098.6 Q2517.15 1099.66 2514.65 1099.66 Q2509.46 1099.66 2506.43 1096.54 Q2503.42 1093.39 2503.42 1087.95 Q2503.42 1082.63 2506.57 1079.41 Q2509.72 1076.19 2514.95 1076.19 Q2520.94 1076.19 2524.09 1080.8 Q2527.26 1085.38 2527.26 1094.13 Q2527.26 1102.3 2523.37 1107.19 Q2519.51 1112.05 2512.96 1112.05 Q2511.2 1112.05 2509.39 1111.7 Q2507.59 1111.35 2505.64 1110.66 M2514.95 1096.01 Q2518.1 1096.01 2519.92 1093.85 Q2521.78 1091.7 2521.78 1087.95 Q2521.78 1084.22 2519.92 1082.07 Q2518.1 1079.89 2514.95 1079.89 Q2511.8 1079.89 2509.95 1082.07 Q2508.12 1084.22 2508.12 1087.95 Q2508.12 1091.7 2509.95 1093.85 Q2511.8 1096.01 2514.95 1096.01 Z" fill="#000000" fill-rule="evenodd" fill-opacity="1" /><path clip-path="url(#clip430)" d="M2532.91 1096.49 L2545.39 1096.49 L2545.39 1100.29 L2532.91 1100.29 L2532.91 1096.49 Z" fill="#000000" fill-rule="evenodd" fill-opacity="1" /><path clip-path="url(#clip430)" d="M2562.77 1079.89 Q2559.16 1079.89 2557.33 1083.46 Q2555.53 1087 2555.53 1094.13 Q2555.53 1101.24 2557.33 1104.8 Q2559.16 1108.34 2562.77 1108.34 Q2566.41 1108.34 2568.21 1104.8 Q2570.04 1101.24 2570.04 1094.13 Q2570.04 1087 2568.21 1083.46 Q2566.41 1079.89 2562.77 1079.89 M2562.77 1076.19 Q2568.58 1076.19 2571.64 1080.8 Q2574.72 1085.38 2574.72 1094.13 Q2574.72 1102.86 2571.64 1107.46 Q2568.58 1112.05 2562.77 1112.05 Q2556.96 1112.05 2553.88 1107.46 Q2550.83 1102.86 2550.83 1094.13 Q2550.83 1085.38 2553.88 1080.8 Q2556.96 1076.19 2562.77 1076.19 Z" fill="#000000" fill-rule="evenodd" fill-opacity="1" /><path clip-path="url(#clip430)" d="M2583.74 1107.44 L2591.38 1107.44 L2591.38 1081.07 L2583.07 1082.74 L2583.07 1078.48 L2591.34 1076.82 L2596.01 1076.82 L2596.01 1107.44 L2603.65 1107.44 L2603.65 1111.38 L2583.74 1111.38 L2583.74 1107.44 Z" fill="#000000" fill-rule="evenodd" fill-opacity="1" /><polyline clip-path="url(#clip432)" style="stroke:#000000; stroke-linecap:round; stroke-linejoin:round; stroke-width:2; stroke-opacity:0.1; fill:none" points="
  271.839,1042.58 3089.76,1042.58 
  "/>
<polyline clip-path="url(#clip432)" style="stroke:#000000; stroke-linecap:round; stroke-linejoin:round; stroke-width:2; stroke-opacity:0.1; fill:none" points="
  271.839,682.592 3089.76,682.592 
  "/>
<polyline clip-path="url(#clip432)" style="stroke:#000000; stroke-linecap:round; stroke-linejoin:round; stroke-width:2; stroke-opacity:0.1; fill:none" points="
  271.839,322.608 3089.76,322.608 
  "/>
<polyline clip-path="url(#clip430)" style="stroke:#000000; stroke-linecap:round; stroke-linejoin:round; stroke-width:4; stroke-opacity:1; fill:none" points="
  271.839,1042.58 271.839,110.236 
  "/>
<polyline clip-path="url(#clip430)" style="stroke:#000000; stroke-linecap:round; stroke-linejoin:round; stroke-width:4; stroke-opacity:1; fill:none" points="
  271.839,1042.58 290.737,1042.58 
  "/>
<polyline clip-path="url(#clip430)" style="stroke:#000000; stroke-linecap:round; stroke-linejoin:round; stroke-width:4; stroke-opacity:1; fill:none" points="
  271.839,682.592 290.737,682.592 
  "/>
<polyline clip-path="url(#clip430)" style="stroke:#000000; stroke-linecap:round; stroke-linejoin:round; stroke-width:4; stroke-opacity:1; fill:none" points="
  271.839,322.608 290.737,322.608 
  "/>
<path clip-path="url(#clip430)" d="M153.134 1062.37 L160.772 1062.37 L160.772 1036 L152.462 1037.67 L152.462 1033.41 L160.726 1031.74 L165.402 1031.74 L165.402 1062.37 L173.041 1062.37 L173.041 1066.3 L153.134 1066.3 L153.134 1062.37 Z" fill="#000000" fill-rule="evenodd" fill-opacity="1" /><path clip-path="url(#clip430)" d="M192.485 1034.82 Q188.874 1034.82 187.045 1038.39 Q185.24 1041.93 185.24 1049.06 Q185.24 1056.16 187.045 1059.73 Q188.874 1063.27 192.485 1063.27 Q196.119 1063.27 197.925 1059.73 Q199.754 1056.16 199.754 1049.06 Q199.754 1041.93 197.925 1038.39 Q196.119 1034.82 192.485 1034.82 M192.485 1031.12 Q198.295 1031.12 201.351 1035.72 Q204.43 1040.31 204.43 1049.06 Q204.43 1057.78 201.351 1062.39 Q198.295 1066.97 192.485 1066.97 Q186.675 1066.97 183.596 1062.39 Q180.541 1057.78 180.541 1049.06 Q180.541 1040.31 183.596 1035.72 Q186.675 1031.12 192.485 1031.12 Z" fill="#000000" fill-rule="evenodd" fill-opacity="1" /><path clip-path="url(#clip430)" d="M214.134 1013.31 Q211.2 1013.31 209.715 1016.21 Q208.248 1019.09 208.248 1024.88 Q208.248 1030.66 209.715 1033.55 Q211.2 1036.43 214.134 1036.43 Q217.087 1036.43 218.554 1033.55 Q220.04 1030.66 220.04 1024.88 Q220.04 1019.09 218.554 1016.21 Q217.087 1013.31 214.134 1013.31 M214.134 1010.31 Q218.855 1010.31 221.338 1014.05 Q223.839 1017.77 223.839 1024.88 Q223.839 1031.97 221.338 1035.71 Q218.855 1039.44 214.134 1039.44 Q209.414 1039.44 206.912 1035.71 Q204.43 1031.97 204.43 1024.88 Q204.43 1017.77 206.912 1014.05 Q209.414 1010.31 214.134 1010.31 Z" fill="#000000" fill-rule="evenodd" fill-opacity="1" /><path clip-path="url(#clip430)" d="M155.823 702.385 L163.462 702.385 L163.462 676.019 L155.152 677.686 L155.152 673.426 L163.416 671.76 L168.092 671.76 L168.092 702.385 L175.73 702.385 L175.73 706.32 L155.823 706.32 L155.823 702.385 Z" fill="#000000" fill-rule="evenodd" fill-opacity="1" /><path clip-path="url(#clip430)" d="M195.175 674.838 Q191.564 674.838 189.735 678.403 Q187.929 681.945 187.929 689.074 Q187.929 696.181 189.735 699.746 Q191.564 703.287 195.175 703.287 Q198.809 703.287 200.615 699.746 Q202.443 696.181 202.443 689.074 Q202.443 681.945 200.615 678.403 Q198.809 674.838 195.175 674.838 M195.175 671.135 Q200.985 671.135 204.04 675.741 Q207.119 680.324 207.119 689.074 Q207.119 697.801 204.04 702.408 Q200.985 706.991 195.175 706.991 Q189.365 706.991 186.286 702.408 Q183.23 697.801 183.23 689.074 Q183.23 680.324 186.286 675.741 Q189.365 671.135 195.175 671.135 Z" fill="#000000" fill-rule="evenodd" fill-opacity="1" /><path clip-path="url(#clip430)" d="M207.665 675.712 L213.871 675.712 L213.871 654.29 L207.119 655.644 L207.119 652.183 L213.833 650.829 L217.633 650.829 L217.633 675.712 L223.839 675.712 L223.839 678.909 L207.665 678.909 L207.665 675.712 Z" fill="#000000" fill-rule="evenodd" fill-opacity="1" /><path clip-path="url(#clip430)" d="M154.713 342.401 L162.352 342.401 L162.352 316.035 L154.042 317.702 L154.042 313.443 L162.306 311.776 L166.982 311.776 L166.982 342.401 L174.621 342.401 L174.621 346.336 L154.713 346.336 L154.713 342.401 Z" fill="#000000" fill-rule="evenodd" fill-opacity="1" /><path clip-path="url(#clip430)" d="M194.065 314.855 Q190.454 314.855 188.625 318.42 Q186.82 321.961 186.82 329.091 Q186.82 336.197 188.625 339.762 Q190.454 343.304 194.065 343.304 Q197.699 343.304 199.505 339.762 Q201.334 336.197 201.334 329.091 Q201.334 321.961 199.505 318.42 Q197.699 314.855 194.065 314.855 M194.065 311.151 Q199.875 311.151 202.931 315.757 Q206.009 320.341 206.009 329.091 Q206.009 337.818 202.931 342.424 Q199.875 347.007 194.065 347.007 Q188.255 347.007 185.176 342.424 Q182.121 337.818 182.121 329.091 Q182.121 320.341 185.176 315.757 Q188.255 311.151 194.065 311.151 Z" fill="#000000" fill-rule="evenodd" fill-opacity="1" /><path clip-path="url(#clip430)" d="M210.58 315.728 L223.839 315.728 L223.839 318.926 L206.009 318.926 L206.009 315.728 Q208.172 313.49 211.896 309.729 Q215.639 305.948 216.598 304.857 Q218.423 302.807 219.137 301.397 Q219.871 299.967 219.871 298.594 Q219.871 296.356 218.291 294.946 Q216.73 293.535 214.21 293.535 Q212.423 293.535 210.429 294.156 Q208.454 294.776 206.198 296.037 L206.198 292.2 Q208.492 291.278 210.486 290.808 Q212.479 290.338 214.134 290.338 Q218.498 290.338 221.093 292.52 Q223.689 294.701 223.689 298.35 Q223.689 300.08 223.03 301.641 Q222.391 303.184 220.68 305.29 Q220.209 305.835 217.689 308.45 Q215.169 311.045 210.58 315.728 Z" fill="#000000" fill-rule="evenodd" fill-opacity="1" /><path clip-path="url(#clip430)" d="M83.4268 893.355 L70.6636 893.355 L70.6636 903.858 L65.38 903.858 L65.38 886.989 L85.7821 886.989 Q88.4239 890.713 89.7925 895.201 Q91.1293 899.688 91.1293 904.781 Q91.1293 915.921 84.6363 922.223 Q78.1114 928.493 66.494 928.493 Q54.8448 928.493 48.3518 922.223 Q41.8269 915.921 41.8269 904.781 Q41.8269 900.134 42.9727 895.964 Q44.1186 891.763 46.3466 888.23 L53.1897 888.23 Q50.166 891.795 48.6382 895.805 Q47.1104 899.816 47.1104 904.24 Q47.1104 912.961 51.9802 917.353 Q56.85 921.714 66.494 921.714 Q76.1062 921.714 80.976 917.353 Q85.8458 912.961 85.8458 904.24 Q85.8458 900.834 85.2729 898.161 Q84.6681 895.487 83.4268 893.355 Z" fill="#000000" fill-rule="evenodd" fill-opacity="1" /><path clip-path="url(#clip430)" d="M70.9182 845.007 L73.7828 845.007 L73.7828 871.934 Q79.8302 871.552 83.013 868.305 Q86.1641 865.027 86.1641 859.203 Q86.1641 855.829 85.3365 852.678 Q84.509 849.495 82.8539 846.376 L88.3921 846.376 Q89.7289 849.527 90.4291 852.837 Q91.1293 856.147 91.1293 859.553 Q91.1293 868.083 86.1641 873.08 Q81.1988 878.045 72.7324 878.045 Q63.9796 878.045 58.8552 873.334 Q53.699 868.592 53.699 860.571 Q53.699 853.378 58.3459 849.208 Q62.9611 845.007 70.9182 845.007 M69.1995 850.863 Q64.3933 850.927 61.5288 853.569 Q58.6642 856.179 58.6642 860.507 Q58.6642 865.409 61.4333 868.369 Q64.2024 871.297 69.2313 871.743 L69.1995 850.863 Z" fill="#000000" fill-rule="evenodd" fill-opacity="1" /><path clip-path="url(#clip430)" d="M68.6902 805.762 L90.2063 805.762 L90.2063 811.619 L68.8812 811.619 Q63.8204 811.619 61.306 813.592 Q58.7915 815.566 58.7915 819.512 Q58.7915 824.255 61.8152 826.992 Q64.8389 829.729 70.0588 829.729 L90.2063 829.729 L90.2063 835.618 L54.5583 835.618 L54.5583 829.729 L60.0965 829.729 Q56.8818 827.629 55.2904 824.796 Q53.699 821.931 53.699 818.207 Q53.699 812.064 57.5184 808.913 Q61.306 805.762 68.6902 805.762 Z" fill="#000000" fill-rule="evenodd" fill-opacity="1" /><path clip-path="url(#clip430)" d="M58.6642 780.268 Q58.6642 784.978 62.3563 787.716 Q66.0166 790.453 72.4141 790.453 Q78.8117 790.453 82.5038 787.747 Q86.1641 785.01 86.1641 780.268 Q86.1641 775.589 82.4719 772.852 Q78.7798 770.114 72.4141 770.114 Q66.0803 770.114 62.3881 772.852 Q58.6642 775.589 58.6642 780.268 M53.699 780.268 Q53.699 772.629 58.6642 768.268 Q63.6295 763.908 72.4141 763.908 Q81.167 763.908 86.1641 768.268 Q91.1293 772.629 91.1293 780.268 Q91.1293 787.938 86.1641 792.299 Q81.167 796.628 72.4141 796.628 Q63.6295 796.628 58.6642 792.299 Q53.699 787.938 53.699 780.268 Z" fill="#000000" fill-rule="evenodd" fill-opacity="1" /><path clip-path="url(#clip430)" d="M61.4015 726.446 Q57.4547 724.25 55.5768 721.194 Q53.699 718.138 53.699 714.001 Q53.699 708.431 57.6139 705.407 Q61.4969 702.383 68.6902 702.383 L90.2063 702.383 L90.2063 708.272 L68.8812 708.272 Q63.7568 708.272 61.2741 710.086 Q58.7915 711.9 58.7915 715.624 Q58.7915 720.175 61.8152 722.817 Q64.8389 725.459 70.0588 725.459 L90.2063 725.459 L90.2063 731.347 L68.8812 731.347 Q63.7249 731.347 61.2741 733.162 Q58.7915 734.976 58.7915 738.763 Q58.7915 743.251 61.8471 745.893 Q64.8708 748.535 70.0588 748.535 L90.2063 748.535 L90.2063 754.423 L54.5583 754.423 L54.5583 748.535 L60.0965 748.535 Q56.8182 746.529 55.2586 743.729 Q53.699 740.928 53.699 737.076 Q53.699 733.193 55.6723 730.488 Q57.6457 727.751 61.4015 726.446 Z" fill="#000000" fill-rule="evenodd" fill-opacity="1" /><path clip-path="url(#clip430)" d="M70.9182 660.211 L73.7828 660.211 L73.7828 687.137 Q79.8302 686.756 83.013 683.509 Q86.1641 680.231 86.1641 674.406 Q86.1641 671.032 85.3365 667.881 Q84.509 664.698 82.8539 661.579 L88.3921 661.579 Q89.7289 664.73 90.4291 668.04 Q91.1293 671.35 91.1293 674.756 Q91.1293 683.286 86.1641 688.283 Q81.1988 693.249 72.7324 693.249 Q63.9796 693.249 58.8552 688.538 Q53.699 683.795 53.699 675.775 Q53.699 668.581 58.3459 664.412 Q62.9611 660.211 70.9182 660.211 M69.1995 666.067 Q64.3933 666.131 61.5288 668.772 Q58.6642 671.382 58.6642 675.711 Q58.6642 680.613 61.4333 683.573 Q64.2024 686.501 69.2313 686.946 L69.1995 666.067 Z" fill="#000000" fill-rule="evenodd" fill-opacity="1" /><path clip-path="url(#clip430)" d="M55.6087 627.873 L61.1468 627.873 Q59.8737 630.355 59.2371 633.029 Q58.6006 635.703 58.6006 638.567 Q58.6006 642.928 59.9373 645.124 Q61.2741 647.288 63.9477 647.288 Q65.9848 647.288 67.1624 645.729 Q68.3083 644.169 69.3586 639.458 L69.8042 637.453 Q71.141 631.215 73.5918 628.605 Q76.0108 625.963 80.3713 625.963 Q85.3365 625.963 88.2329 629.91 Q91.1293 633.825 91.1293 640.7 Q91.1293 643.564 90.5564 646.683 Q90.0153 649.771 88.9013 653.208 L82.8539 653.208 Q84.5408 649.962 85.4002 646.811 Q86.2277 643.66 86.2277 640.572 Q86.2277 636.435 84.8273 634.207 Q83.395 631.979 80.8169 631.979 Q78.4297 631.979 77.1566 633.602 Q75.8834 635.193 74.7058 640.636 L74.2284 642.673 Q73.0825 648.116 70.7272 650.535 Q68.3401 652.954 64.2024 652.954 Q59.1735 652.954 56.4362 649.389 Q53.699 645.824 53.699 639.267 Q53.699 636.021 54.1764 633.156 Q54.6538 630.292 55.6087 627.873 Z" fill="#000000" fill-rule="evenodd" fill-opacity="1" /><path clip-path="url(#clip430)" d="M42.6863 606.229 L42.6863 600.818 L96.2537 617.369 L96.2537 622.78 L42.6863 606.229 Z" fill="#000000" fill-rule="evenodd" fill-opacity="1" /><path clip-path="url(#clip430)" d="M47.9698 587.992 L84.9227 587.992 L84.9227 580.225 Q84.9227 570.39 80.4668 565.839 Q76.0108 561.256 66.3985 561.256 Q56.85 561.256 52.4258 565.839 Q47.9698 570.39 47.9698 580.225 L47.9698 587.992 M42.6863 594.421 L42.6863 581.212 Q42.6863 567.399 48.4472 560.937 Q54.1764 554.476 66.3985 554.476 Q78.6844 554.476 84.4453 560.969 Q90.2063 567.462 90.2063 581.212 L90.2063 594.421 L42.6863 594.421 Z" fill="#000000" fill-rule="evenodd" fill-opacity="1" /><path clip-path="url(#clip430)" d="M72.2868 528.281 Q72.2868 535.379 73.9101 538.116 Q75.5333 540.854 79.4482 540.854 Q82.5674 540.854 84.4135 538.816 Q86.2277 536.748 86.2277 533.215 Q86.2277 528.345 82.7902 525.417 Q79.3209 522.457 73.5918 522.457 L72.2868 522.457 L72.2868 528.281 M69.8679 516.6 L90.2063 516.6 L90.2063 522.457 L84.7954 522.457 Q88.0419 524.462 89.6015 527.454 Q91.1293 530.446 91.1293 534.774 Q91.1293 540.249 88.0738 543.495 Q84.9864 546.71 79.8302 546.71 Q73.8146 546.71 70.759 542.7 Q67.7035 538.657 67.7035 530.668 L67.7035 522.457 L67.1306 522.457 Q63.0884 522.457 60.8922 525.13 Q58.6642 527.772 58.6642 532.578 Q58.6642 535.634 59.3963 538.53 Q60.1283 541.426 61.5924 544.1 L56.1816 544.1 Q54.9403 540.885 54.3355 537.862 Q53.699 534.838 53.699 531.973 Q53.699 524.239 57.7094 520.42 Q61.7197 516.6 69.8679 516.6 Z" fill="#000000" fill-rule="evenodd" fill-opacity="1" /><path clip-path="url(#clip430)" d="M93.5165 489.705 Q99.8822 492.188 101.824 494.543 Q103.765 496.898 103.765 500.845 L103.765 505.524 L98.8636 505.524 L98.8636 502.086 Q98.8636 499.667 97.7178 498.331 Q96.572 496.994 92.307 495.371 L89.6334 494.32 L54.5583 508.739 L54.5583 502.532 L82.4401 491.392 L54.5583 480.252 L54.5583 474.045 L93.5165 489.705 Z" fill="#000000" fill-rule="evenodd" fill-opacity="1" /><path clip-path="url(#clip430)" d="M40.7447 431.172 Q48.0653 435.437 55.2267 437.506 Q62.3881 439.575 69.7405 439.575 Q77.0929 439.575 84.318 437.506 Q91.5113 435.406 98.8 431.172 L98.8 436.265 Q91.3203 441.039 84.0952 443.426 Q76.8701 445.782 69.7405 445.782 Q62.6428 445.782 55.4495 443.426 Q48.2563 441.071 40.7447 436.265 L40.7447 431.172 Z" fill="#000000" fill-rule="evenodd" fill-opacity="1" /><path clip-path="url(#clip430)" d="M42.6863 419.555 L42.6863 413.126 L86.8961 413.126 Q95.4898 413.126 99.3729 416.404 Q103.256 419.65 103.256 426.876 L103.256 429.326 L97.8451 429.326 L97.8451 427.321 Q97.8451 423.056 95.458 421.306 Q93.0709 419.555 86.8961 419.555 L42.6863 419.555 Z" fill="#000000" fill-rule="evenodd" fill-opacity="1" /><path clip-path="url(#clip430)" d="M72.2868 384.384 Q72.2868 391.482 73.9101 394.219 Q75.5333 396.957 79.4482 396.957 Q82.5674 396.957 84.4135 394.92 Q86.2277 392.851 86.2277 389.318 Q86.2277 384.448 82.7902 381.52 Q79.3209 378.56 73.5918 378.56 L72.2868 378.56 L72.2868 384.384 M69.8679 372.703 L90.2063 372.703 L90.2063 378.56 L84.7954 378.56 Q88.0419 380.565 89.6015 383.557 Q91.1293 386.549 91.1293 390.877 Q91.1293 396.352 88.0738 399.598 Q84.9864 402.813 79.8302 402.813 Q73.8146 402.813 70.759 398.803 Q67.7035 394.761 67.7035 386.772 L67.7035 378.56 L67.1306 378.56 Q63.0884 378.56 60.8922 381.233 Q58.6642 383.875 58.6642 388.681 Q58.6642 391.737 59.3963 394.633 Q60.1283 397.53 61.5924 400.203 L56.1816 400.203 Q54.9403 396.989 54.3355 393.965 Q53.699 390.941 53.699 388.077 Q53.699 380.342 57.7094 376.523 Q61.7197 372.703 69.8679 372.703 Z" fill="#000000" fill-rule="evenodd" fill-opacity="1" /><path clip-path="url(#clip430)" d="M84.8591 354.975 L103.765 354.975 L103.765 360.863 L54.5583 360.863 L54.5583 354.975 L59.9692 354.975 Q56.7863 353.129 55.2586 350.328 Q53.699 347.495 53.699 343.58 Q53.699 337.087 58.8552 333.045 Q64.0114 328.971 72.4141 328.971 Q80.8169 328.971 85.9731 333.045 Q91.1293 337.087 91.1293 343.58 Q91.1293 347.495 89.6015 350.328 Q88.0419 353.129 84.8591 354.975 M72.4141 335.05 Q65.9529 335.05 62.2927 337.724 Q58.6006 340.366 58.6006 345.013 Q58.6006 349.66 62.2927 352.333 Q65.9529 354.975 72.4141 354.975 Q78.8753 354.975 82.5674 352.333 Q86.2277 349.66 86.2277 345.013 Q86.2277 340.366 82.5674 337.724 Q78.8753 335.05 72.4141 335.05 Z" fill="#000000" fill-rule="evenodd" fill-opacity="1" /><path clip-path="url(#clip430)" d="M72.2868 303.063 Q72.2868 310.16 73.9101 312.898 Q75.5333 315.635 79.4482 315.635 Q82.5674 315.635 84.4135 313.598 Q86.2277 311.529 86.2277 307.996 Q86.2277 303.126 82.7902 300.198 Q79.3209 297.238 73.5918 297.238 L72.2868 297.238 L72.2868 303.063 M69.8679 291.381 L90.2063 291.381 L90.2063 297.238 L84.7954 297.238 Q88.0419 299.243 89.6015 302.235 Q91.1293 305.227 91.1293 309.556 Q91.1293 315.03 88.0738 318.277 Q84.9864 321.491 79.8302 321.491 Q73.8146 321.491 70.759 317.481 Q67.7035 313.439 67.7035 305.45 L67.7035 297.238 L67.1306 297.238 Q63.0884 297.238 60.8922 299.912 Q58.6642 302.553 58.6642 307.359 Q58.6642 310.415 59.3963 313.311 Q60.1283 316.208 61.5924 318.881 L56.1816 318.881 Q54.9403 315.667 54.3355 312.643 Q53.699 309.619 53.699 306.755 Q53.699 299.02 57.7094 295.201 Q61.7197 291.381 69.8679 291.381 Z" fill="#000000" fill-rule="evenodd" fill-opacity="1" /><path clip-path="url(#clip430)" d="M68.6902 249.686 L90.2063 249.686 L90.2063 255.543 L68.8812 255.543 Q63.8204 255.543 61.306 257.516 Q58.7915 259.489 58.7915 263.436 Q58.7915 268.178 61.8152 270.916 Q64.8389 273.653 70.0588 273.653 L90.2063 273.653 L90.2063 279.541 L54.5583 279.541 L54.5583 273.653 L60.0965 273.653 Q56.8818 271.552 55.2904 268.72 Q53.699 265.855 53.699 262.131 Q53.699 255.988 57.5184 252.837 Q61.306 249.686 68.6902 249.686 Z" fill="#000000" fill-rule="evenodd" fill-opacity="1" /><path clip-path="url(#clip430)" d="M40.7447 238.928 L40.7447 233.835 Q48.2563 229.061 55.4495 226.706 Q62.6428 224.319 69.7405 224.319 Q76.8701 224.319 84.0952 226.706 Q91.3203 229.061 98.8 233.835 L98.8 238.928 Q91.5113 234.695 84.318 232.626 Q77.0929 230.525 69.7405 230.525 Q62.3881 230.525 55.2267 232.626 Q48.0653 234.695 40.7447 238.928 Z" fill="#000000" fill-rule="evenodd" fill-opacity="1" /><path clip-path="url(#clip432)" d="
M288.747 241.501 L288.747 1042.58 L311.29 1042.58 L311.29 241.501 L288.747 241.501 L288.747 241.501  Z
  " fill="#009af9" fill-rule="evenodd" fill-opacity="0.5"/>
<polyline clip-path="url(#clip432)" style="stroke:#000000; stroke-linecap:round; stroke-linejoin:round; stroke-width:4; stroke-opacity:0.5; fill:none" points="
  288.747,241.501 288.747,1042.58 311.29,1042.58 311.29,241.501 288.747,241.501 
  "/>
<path clip-path="url(#clip432)" d="
M316.926 353.634 L316.926 1042.58 L339.469 1042.58 L339.469 353.634 L316.926 353.634 L316.926 353.634  Z
  " fill="#009af9" fill-rule="evenodd" fill-opacity="0.5"/>
<polyline clip-path="url(#clip432)" style="stroke:#000000; stroke-linecap:round; stroke-linejoin:round; stroke-width:4; stroke-opacity:0.5; fill:none" points="
  316.926,353.634 316.926,1042.58 339.469,1042.58 339.469,353.634 316.926,353.634 
  "/>
<path clip-path="url(#clip432)" d="
M345.105 392.38 L345.105 1042.58 L367.649 1042.58 L367.649 392.38 L345.105 392.38 L345.105 392.38  Z
  " fill="#009af9" fill-rule="evenodd" fill-opacity="0.5"/>
<polyline clip-path="url(#clip432)" style="stroke:#000000; stroke-linecap:round; stroke-linejoin:round; stroke-width:4; stroke-opacity:0.5; fill:none" points="
  345.105,392.38 345.105,1042.58 367.649,1042.58 367.649,392.38 345.105,392.38 
  "/>
<path clip-path="url(#clip432)" d="
M373.285 183.796 L373.285 1042.58 L395.828 1042.58 L395.828 183.796 L373.285 183.796 L373.285 183.796  Z
  " fill="#009af9" fill-rule="evenodd" fill-opacity="0.5"/>
<polyline clip-path="url(#clip432)" style="stroke:#000000; stroke-linecap:round; stroke-linejoin:round; stroke-width:4; stroke-opacity:0.5; fill:none" points="
  373.285,183.796 373.285,1042.58 395.828,1042.58 395.828,183.796 373.285,183.796 
  "/>
<path clip-path="url(#clip432)" d="
M401.464 215.026 L401.464 1042.58 L424.007 1042.58 L424.007 215.026 L401.464 215.026 L401.464 215.026  Z
  " fill="#009af9" fill-rule="evenodd" fill-opacity="0.5"/>
<polyline clip-path="url(#clip432)" style="stroke:#000000; stroke-linecap:round; stroke-linejoin:round; stroke-width:4; stroke-opacity:0.5; fill:none" points="
  401.464,215.026 401.464,1042.58 424.007,1042.58 424.007,215.026 401.464,215.026 
  "/>
<path clip-path="url(#clip432)" d="
M429.643 211.915 L429.643 1042.58 L452.186 1042.58 L452.186 211.915 L429.643 211.915 L429.643 211.915  Z
  " fill="#009af9" fill-rule="evenodd" fill-opacity="0.5"/>
<polyline clip-path="url(#clip432)" style="stroke:#000000; stroke-linecap:round; stroke-linejoin:round; stroke-width:4; stroke-opacity:0.5; fill:none" points="
  429.643,211.915 429.643,1042.58 452.186,1042.58 452.186,211.915 429.643,211.915 
  "/>
<path clip-path="url(#clip432)" d="
M457.822 205.872 L457.822 1042.58 L480.366 1042.58 L480.366 205.872 L457.822 205.872 L457.822 205.872  Z
  " fill="#009af9" fill-rule="evenodd" fill-opacity="0.5"/>
<polyline clip-path="url(#clip432)" style="stroke:#000000; stroke-linecap:round; stroke-linejoin:round; stroke-width:4; stroke-opacity:0.5; fill:none" points="
  457.822,205.872 457.822,1042.58 480.366,1042.58 480.366,205.872 457.822,205.872 
  "/>
<path clip-path="url(#clip432)" d="
M486.001 213.463 L486.001 1042.58 L508.545 1042.58 L508.545 213.463 L486.001 213.463 L486.001 213.463  Z
  " fill="#009af9" fill-rule="evenodd" fill-opacity="0.5"/>
<polyline clip-path="url(#clip432)" style="stroke:#000000; stroke-linecap:round; stroke-linejoin:round; stroke-width:4; stroke-opacity:0.5; fill:none" points="
  486.001,213.463 486.001,1042.58 508.545,1042.58 508.545,213.463 486.001,213.463 
  "/>
<path clip-path="url(#clip432)" d="
M514.181 296.732 L514.181 1042.58 L536.724 1042.58 L536.724 296.732 L514.181 296.732 L514.181 296.732  Z
  " fill="#009af9" fill-rule="evenodd" fill-opacity="0.5"/>
<polyline clip-path="url(#clip432)" style="stroke:#000000; stroke-linecap:round; stroke-linejoin:round; stroke-width:4; stroke-opacity:0.5; fill:none" points="
  514.181,296.732 514.181,1042.58 536.724,1042.58 536.724,296.732 514.181,296.732 
  "/>
<path clip-path="url(#clip432)" d="
M542.36 424.843 L542.36 1042.58 L564.903 1042.58 L564.903 424.843 L542.36 424.843 L542.36 424.843  Z
  " fill="#009af9" fill-rule="evenodd" fill-opacity="0.5"/>
<polyline clip-path="url(#clip432)" style="stroke:#000000; stroke-linecap:round; stroke-linejoin:round; stroke-width:4; stroke-opacity:0.5; fill:none" points="
  542.36,424.843 542.36,1042.58 564.903,1042.58 564.903,424.843 542.36,424.843 
  "/>
<path clip-path="url(#clip432)" d="
M570.539 150.332 L570.539 1042.58 L593.083 1042.58 L593.083 150.332 L570.539 150.332 L570.539 150.332  Z
  " fill="#009af9" fill-rule="evenodd" fill-opacity="0.5"/>
<polyline clip-path="url(#clip432)" style="stroke:#000000; stroke-linecap:round; stroke-linejoin:round; stroke-width:4; stroke-opacity:0.5; fill:none" points="
  570.539,150.332 570.539,1042.58 593.083,1042.58 593.083,150.332 570.539,150.332 
  "/>
<path clip-path="url(#clip432)" d="
M598.718 192.392 L598.718 1042.58 L621.262 1042.58 L621.262 192.392 L598.718 192.392 L598.718 192.392  Z
  " fill="#009af9" fill-rule="evenodd" fill-opacity="0.5"/>
<polyline clip-path="url(#clip432)" style="stroke:#000000; stroke-linecap:round; stroke-linejoin:round; stroke-width:4; stroke-opacity:0.5; fill:none" points="
  598.718,192.392 598.718,1042.58 621.262,1042.58 621.262,192.392 598.718,192.392 
  "/>
<path clip-path="url(#clip432)" d="
M626.898 208.864 L626.898 1042.58 L649.441 1042.58 L649.441 208.864 L626.898 208.864 L626.898 208.864  Z
  " fill="#009af9" fill-rule="evenodd" fill-opacity="0.5"/>
<polyline clip-path="url(#clip432)" style="stroke:#000000; stroke-linecap:round; stroke-linejoin:round; stroke-width:4; stroke-opacity:0.5; fill:none" points="
  626.898,208.864 626.898,1042.58 649.441,1042.58 649.441,208.864 626.898,208.864 
  "/>
<path clip-path="url(#clip432)" d="
M655.077 230.715 L655.077 1042.58 L677.62 1042.58 L677.62 230.715 L655.077 230.715 L655.077 230.715  Z
  " fill="#009af9" fill-rule="evenodd" fill-opacity="0.5"/>
<polyline clip-path="url(#clip432)" style="stroke:#000000; stroke-linecap:round; stroke-linejoin:round; stroke-width:4; stroke-opacity:0.5; fill:none" points="
  655.077,230.715 655.077,1042.58 677.62,1042.58 677.62,230.715 655.077,230.715 
  "/>
<path clip-path="url(#clip432)" d="
M683.256 213.463 L683.256 1042.58 L705.8 1042.58 L705.8 213.463 L683.256 213.463 L683.256 213.463  Z
  " fill="#009af9" fill-rule="evenodd" fill-opacity="0.5"/>
<polyline clip-path="url(#clip432)" style="stroke:#000000; stroke-linecap:round; stroke-linejoin:round; stroke-width:4; stroke-opacity:0.5; fill:none" points="
  683.256,213.463 683.256,1042.58 705.8,1042.58 705.8,213.463 683.256,213.463 
  "/>
<path clip-path="url(#clip432)" d="
M711.435 316.477 L711.435 1042.58 L733.979 1042.58 L733.979 316.477 L711.435 316.477 L711.435 316.477  Z
  " fill="#009af9" fill-rule="evenodd" fill-opacity="0.5"/>
<polyline clip-path="url(#clip432)" style="stroke:#000000; stroke-linecap:round; stroke-linejoin:round; stroke-width:4; stroke-opacity:0.5; fill:none" points="
  711.435,316.477 711.435,1042.58 733.979,1042.58 733.979,316.477 711.435,316.477 
  "/>
<path clip-path="url(#clip432)" d="
M739.615 407.77 L739.615 1042.58 L762.158 1042.58 L762.158 407.77 L739.615 407.77 L739.615 407.77  Z
  " fill="#009af9" fill-rule="evenodd" fill-opacity="0.5"/>
<polyline clip-path="url(#clip432)" style="stroke:#000000; stroke-linecap:round; stroke-linejoin:round; stroke-width:4; stroke-opacity:0.5; fill:none" points="
  739.615,407.77 739.615,1042.58 762.158,1042.58 762.158,407.77 739.615,407.77 
  "/>
<path clip-path="url(#clip432)" d="
M767.794 162.198 L767.794 1042.58 L790.337 1042.58 L790.337 162.198 L767.794 162.198 L767.794 162.198  Z
  " fill="#009af9" fill-rule="evenodd" fill-opacity="0.5"/>
<polyline clip-path="url(#clip432)" style="stroke:#000000; stroke-linecap:round; stroke-linejoin:round; stroke-width:4; stroke-opacity:0.5; fill:none" points="
  767.794,162.198 767.794,1042.58 790.337,1042.58 790.337,162.198 767.794,162.198 
  "/>
<path clip-path="url(#clip432)" d="
M795.973 230.715 L795.973 1042.58 L818.517 1042.58 L818.517 230.715 L795.973 230.715 L795.973 230.715  Z
  " fill="#009af9" fill-rule="evenodd" fill-opacity="0.5"/>
<polyline clip-path="url(#clip432)" style="stroke:#000000; stroke-linecap:round; stroke-linejoin:round; stroke-width:4; stroke-opacity:0.5; fill:none" points="
  795.973,230.715 795.973,1042.58 818.517,1042.58 818.517,230.715 795.973,230.715 
  "/>
<path clip-path="url(#clip432)" d="
M824.152 234.228 L824.152 1042.58 L846.696 1042.58 L846.696 234.228 L824.152 234.228 L824.152 234.228  Z
  " fill="#009af9" fill-rule="evenodd" fill-opacity="0.5"/>
<polyline clip-path="url(#clip432)" style="stroke:#000000; stroke-linecap:round; stroke-linejoin:round; stroke-width:4; stroke-opacity:0.5; fill:none" points="
  824.152,234.228 824.152,1042.58 846.696,1042.58 846.696,234.228 824.152,234.228 
  "/>
<path clip-path="url(#clip432)" d="
M852.332 235.119 L852.332 1042.58 L874.875 1042.58 L874.875 235.119 L852.332 235.119 L852.332 235.119  Z
  " fill="#009af9" fill-rule="evenodd" fill-opacity="0.5"/>
<polyline clip-path="url(#clip432)" style="stroke:#000000; stroke-linecap:round; stroke-linejoin:round; stroke-width:4; stroke-opacity:0.5; fill:none" points="
  852.332,235.119 852.332,1042.58 874.875,1042.58 874.875,235.119 852.332,235.119 
  "/>
<path clip-path="url(#clip432)" d="
M880.511 243.373 L880.511 1042.58 L903.054 1042.58 L903.054 243.373 L880.511 243.373 L880.511 243.373  Z
  " fill="#009af9" fill-rule="evenodd" fill-opacity="0.5"/>
<polyline clip-path="url(#clip432)" style="stroke:#000000; stroke-linecap:round; stroke-linejoin:round; stroke-width:4; stroke-opacity:0.5; fill:none" points="
  880.511,243.373 880.511,1042.58 903.054,1042.58 903.054,243.373 880.511,243.373 
  "/>
<path clip-path="url(#clip432)" d="
M908.69 265.601 L908.69 1042.58 L931.234 1042.58 L931.234 265.601 L908.69 265.601 L908.69 265.601  Z
  " fill="#009af9" fill-rule="evenodd" fill-opacity="0.5"/>
<polyline clip-path="url(#clip432)" style="stroke:#000000; stroke-linecap:round; stroke-linejoin:round; stroke-width:4; stroke-opacity:0.5; fill:none" points="
  908.69,265.601 908.69,1042.58 931.234,1042.58 931.234,265.601 908.69,265.601 
  "/>
<path clip-path="url(#clip432)" d="
M936.869 516.136 L936.869 1042.58 L959.413 1042.58 L959.413 516.136 L936.869 516.136 L936.869 516.136  Z
  " fill="#009af9" fill-rule="evenodd" fill-opacity="0.5"/>
<polyline clip-path="url(#clip432)" style="stroke:#000000; stroke-linecap:round; stroke-linejoin:round; stroke-width:4; stroke-opacity:0.5; fill:none" points="
  936.869,516.136 936.869,1042.58 959.413,1042.58 959.413,516.136 936.869,516.136 
  "/>
<path clip-path="url(#clip432)" d="
M965.049 158.872 L965.049 1042.58 L987.592 1042.58 L987.592 158.872 L965.049 158.872 L965.049 158.872  Z
  " fill="#009af9" fill-rule="evenodd" fill-opacity="0.5"/>
<polyline clip-path="url(#clip432)" style="stroke:#000000; stroke-linecap:round; stroke-linejoin:round; stroke-width:4; stroke-opacity:0.5; fill:none" points="
  965.049,158.872 965.049,1042.58 987.592,1042.58 987.592,158.872 965.049,158.872 
  "/>
<path clip-path="url(#clip432)" d="
M993.228 183.796 L993.228 1042.58 L1015.77 1042.58 L1015.77 183.796 L993.228 183.796 L993.228 183.796  Z
  " fill="#009af9" fill-rule="evenodd" fill-opacity="0.5"/>
<polyline clip-path="url(#clip432)" style="stroke:#000000; stroke-linecap:round; stroke-linejoin:round; stroke-width:4; stroke-opacity:0.5; fill:none" points="
  993.228,183.796 993.228,1042.58 1015.77,1042.58 1015.77,183.796 993.228,183.796 
  "/>
<path clip-path="url(#clip432)" d="
M1021.41 175.039 L1021.41 1042.58 L1043.95 1042.58 L1043.95 175.039 L1021.41 175.039 L1021.41 175.039  Z
  " fill="#009af9" fill-rule="evenodd" fill-opacity="0.5"/>
<polyline clip-path="url(#clip432)" style="stroke:#000000; stroke-linecap:round; stroke-linejoin:round; stroke-width:4; stroke-opacity:0.5; fill:none" points="
  1021.41,175.039 1021.41,1042.58 1043.95,1042.58 1043.95,175.039 1021.41,175.039 
  "/>
<path clip-path="url(#clip432)" d="
M1049.59 205.133 L1049.59 1042.58 L1072.13 1042.58 L1072.13 205.133 L1049.59 205.133 L1049.59 205.133  Z
  " fill="#009af9" fill-rule="evenodd" fill-opacity="0.5"/>
<polyline clip-path="url(#clip432)" style="stroke:#000000; stroke-linecap:round; stroke-linejoin:round; stroke-width:4; stroke-opacity:0.5; fill:none" points="
  1049.59,205.133 1049.59,1042.58 1072.13,1042.58 1072.13,205.133 1049.59,205.133 
  "/>
<path clip-path="url(#clip432)" d="
M1077.77 182.515 L1077.77 1042.58 L1100.31 1042.58 L1100.31 182.515 L1077.77 182.515 L1077.77 182.515  Z
  " fill="#009af9" fill-rule="evenodd" fill-opacity="0.5"/>
<polyline clip-path="url(#clip432)" style="stroke:#000000; stroke-linecap:round; stroke-linejoin:round; stroke-width:4; stroke-opacity:0.5; fill:none" points="
  1077.77,182.515 1077.77,1042.58 1100.31,1042.58 1100.31,182.515 1077.77,182.515 
  "/>
<path clip-path="url(#clip432)" d="
M1105.94 325.767 L1105.94 1042.58 L1128.49 1042.58 L1128.49 325.767 L1105.94 325.767 L1105.94 325.767  Z
  " fill="#009af9" fill-rule="evenodd" fill-opacity="0.5"/>
<polyline clip-path="url(#clip432)" style="stroke:#000000; stroke-linecap:round; stroke-linejoin:round; stroke-width:4; stroke-opacity:0.5; fill:none" points="
  1105.94,325.767 1105.94,1042.58 1128.49,1042.58 1128.49,325.767 1105.94,325.767 
  "/>
<path clip-path="url(#clip432)" d="
M1134.12 421.865 L1134.12 1042.58 L1156.67 1042.58 L1156.67 421.865 L1134.12 421.865 L1134.12 421.865  Z
  " fill="#009af9" fill-rule="evenodd" fill-opacity="0.5"/>
<polyline clip-path="url(#clip432)" style="stroke:#000000; stroke-linecap:round; stroke-linejoin:round; stroke-width:4; stroke-opacity:0.5; fill:none" points="
  1134.12,421.865 1134.12,1042.58 1156.67,1042.58 1156.67,421.865 1134.12,421.865 
  "/>
<path clip-path="url(#clip432)" d="
M1162.3 351.739 L1162.3 1042.58 L1184.85 1042.58 L1184.85 351.739 L1162.3 351.739 L1162.3 351.739  Z
  " fill="#009af9" fill-rule="evenodd" fill-opacity="0.5"/>
<polyline clip-path="url(#clip432)" style="stroke:#000000; stroke-linecap:round; stroke-linejoin:round; stroke-width:4; stroke-opacity:0.5; fill:none" points="
  1162.3,351.739 1162.3,1042.58 1184.85,1042.58 1184.85,351.739 1162.3,351.739 
  "/>
<path clip-path="url(#clip432)" d="
M1190.48 124.976 L1190.48 1042.58 L1213.03 1042.58 L1213.03 124.976 L1190.48 124.976 L1190.48 124.976  Z
  " fill="#009af9" fill-rule="evenodd" fill-opacity="0.5"/>
<polyline clip-path="url(#clip432)" style="stroke:#000000; stroke-linecap:round; stroke-linejoin:round; stroke-width:4; stroke-opacity:0.5; fill:none" points="
  1190.48,124.976 1190.48,1042.58 1213.03,1042.58 1213.03,124.976 1190.48,124.976 
  "/>
<path clip-path="url(#clip432)" d="
M1218.66 146.738 L1218.66 1042.58 L1241.21 1042.58 L1241.21 146.738 L1218.66 146.738 L1218.66 146.738  Z
  " fill="#009af9" fill-rule="evenodd" fill-opacity="0.5"/>
<polyline clip-path="url(#clip432)" style="stroke:#000000; stroke-linecap:round; stroke-linejoin:round; stroke-width:4; stroke-opacity:0.5; fill:none" points="
  1218.66,146.738 1218.66,1042.58 1241.21,1042.58 1241.21,146.738 1218.66,146.738 
  "/>
<path clip-path="url(#clip432)" d="
M1246.84 156.693 L1246.84 1042.58 L1269.38 1042.58 L1269.38 156.693 L1246.84 156.693 L1246.84 156.693  Z
  " fill="#009af9" fill-rule="evenodd" fill-opacity="0.5"/>
<polyline clip-path="url(#clip432)" style="stroke:#000000; stroke-linecap:round; stroke-linejoin:round; stroke-width:4; stroke-opacity:0.5; fill:none" points="
  1246.84,156.693 1246.84,1042.58 1269.38,1042.58 1269.38,156.693 1246.84,156.693 
  "/>
<path clip-path="url(#clip432)" d="
M1275.02 166.171 L1275.02 1042.58 L1297.56 1042.58 L1297.56 166.171 L1275.02 166.171 L1275.02 166.171  Z
  " fill="#009af9" fill-rule="evenodd" fill-opacity="0.5"/>
<polyline clip-path="url(#clip432)" style="stroke:#000000; stroke-linecap:round; stroke-linejoin:round; stroke-width:4; stroke-opacity:0.5; fill:none" points="
  1275.02,166.171 1275.02,1042.58 1297.56,1042.58 1297.56,166.171 1275.02,166.171 
  "/>
<path clip-path="url(#clip432)" d="
M1303.2 291.52 L1303.2 1042.58 L1325.74 1042.58 L1325.74 291.52 L1303.2 291.52 L1303.2 291.52  Z
  " fill="#009af9" fill-rule="evenodd" fill-opacity="0.5"/>
<polyline clip-path="url(#clip432)" style="stroke:#000000; stroke-linecap:round; stroke-linejoin:round; stroke-width:4; stroke-opacity:0.5; fill:none" points="
  1303.2,291.52 1303.2,1042.58 1325.74,1042.58 1325.74,291.52 1303.2,291.52 
  "/>
<path clip-path="url(#clip432)" d="
M1331.38 444.01 L1331.38 1042.58 L1353.92 1042.58 L1353.92 444.01 L1331.38 444.01 L1331.38 444.01  Z
  " fill="#009af9" fill-rule="evenodd" fill-opacity="0.5"/>
<polyline clip-path="url(#clip432)" style="stroke:#000000; stroke-linecap:round; stroke-linejoin:round; stroke-width:4; stroke-opacity:0.5; fill:none" points="
  1331.38,444.01 1331.38,1042.58 1353.92,1042.58 1353.92,444.01 1331.38,444.01 
  "/>
<path clip-path="url(#clip432)" d="
M1359.56 140.763 L1359.56 1042.58 L1382.1 1042.58 L1382.1 140.763 L1359.56 140.763 L1359.56 140.763  Z
  " fill="#009af9" fill-rule="evenodd" fill-opacity="0.5"/>
<polyline clip-path="url(#clip432)" style="stroke:#000000; stroke-linecap:round; stroke-linejoin:round; stroke-width:4; stroke-opacity:0.5; fill:none" points="
  1359.56,140.763 1359.56,1042.58 1382.1,1042.58 1382.1,140.763 1359.56,140.763 
  "/>
<path clip-path="url(#clip432)" d="
M1387.74 187.705 L1387.74 1042.58 L1410.28 1042.58 L1410.28 187.705 L1387.74 187.705 L1387.74 187.705  Z
  " fill="#009af9" fill-rule="evenodd" fill-opacity="0.5"/>
<polyline clip-path="url(#clip432)" style="stroke:#000000; stroke-linecap:round; stroke-linejoin:round; stroke-width:4; stroke-opacity:0.5; fill:none" points="
  1387.74,187.705 1387.74,1042.58 1410.28,1042.58 1410.28,187.705 1387.74,187.705 
  "/>
<path clip-path="url(#clip432)" d="
M1415.92 191.039 L1415.92 1042.58 L1438.46 1042.58 L1438.46 191.039 L1415.92 191.039 L1415.92 191.039  Z
  " fill="#009af9" fill-rule="evenodd" fill-opacity="0.5"/>
<polyline clip-path="url(#clip432)" style="stroke:#000000; stroke-linecap:round; stroke-linejoin:round; stroke-width:4; stroke-opacity:0.5; fill:none" points="
  1415.92,191.039 1415.92,1042.58 1438.46,1042.58 1438.46,191.039 1415.92,191.039 
  "/>
<path clip-path="url(#clip432)" d="
M1444.1 189.697 L1444.1 1042.58 L1466.64 1042.58 L1466.64 189.697 L1444.1 189.697 L1444.1 189.697  Z
  " fill="#009af9" fill-rule="evenodd" fill-opacity="0.5"/>
<polyline clip-path="url(#clip432)" style="stroke:#000000; stroke-linecap:round; stroke-linejoin:round; stroke-width:4; stroke-opacity:0.5; fill:none" points="
  1444.1,189.697 1444.1,1042.58 1466.64,1042.58 1466.64,189.697 1444.1,189.697 
  "/>
<path clip-path="url(#clip432)" d="
M1472.28 205.872 L1472.28 1042.58 L1494.82 1042.58 L1494.82 205.872 L1472.28 205.872 L1472.28 205.872  Z
  " fill="#009af9" fill-rule="evenodd" fill-opacity="0.5"/>
<polyline clip-path="url(#clip432)" style="stroke:#000000; stroke-linecap:round; stroke-linejoin:round; stroke-width:4; stroke-opacity:0.5; fill:none" points="
  1472.28,205.872 1472.28,1042.58 1494.82,1042.58 1494.82,205.872 1472.28,205.872 
  "/>
<path clip-path="url(#clip432)" d="
M1500.45 285.241 L1500.45 1042.58 L1523 1042.58 L1523 285.241 L1500.45 285.241 L1500.45 285.241  Z
  " fill="#009af9" fill-rule="evenodd" fill-opacity="0.5"/>
<polyline clip-path="url(#clip432)" style="stroke:#000000; stroke-linecap:round; stroke-linejoin:round; stroke-width:4; stroke-opacity:0.5; fill:none" points="
  1500.45,285.241 1500.45,1042.58 1523,1042.58 1523,285.241 1500.45,285.241 
  "/>
<path clip-path="url(#clip432)" d="
M1528.63 421.865 L1528.63 1042.58 L1551.18 1042.58 L1551.18 421.865 L1528.63 421.865 L1528.63 421.865  Z
  " fill="#009af9" fill-rule="evenodd" fill-opacity="0.5"/>
<polyline clip-path="url(#clip432)" style="stroke:#000000; stroke-linecap:round; stroke-linejoin:round; stroke-width:4; stroke-opacity:0.5; fill:none" points="
  1528.63,421.865 1528.63,1042.58 1551.18,1042.58 1551.18,421.865 1528.63,421.865 
  "/>
<path clip-path="url(#clip432)" d="
M1556.81 110.236 L1556.81 1042.58 L1579.36 1042.58 L1579.36 110.236 L1556.81 110.236 L1556.81 110.236  Z
  " fill="#009af9" fill-rule="evenodd" fill-opacity="0.5"/>
<polyline clip-path="url(#clip432)" style="stroke:#000000; stroke-linecap:round; stroke-linejoin:round; stroke-width:4; stroke-opacity:0.5; fill:none" points="
  1556.81,110.236 1556.81,1042.58 1579.36,1042.58 1579.36,110.236 1556.81,110.236 
  "/>
<path clip-path="url(#clip432)" d="
M1584.99 158.872 L1584.99 1042.58 L1607.54 1042.58 L1607.54 158.872 L1584.99 158.872 L1584.99 158.872  Z
  " fill="#009af9" fill-rule="evenodd" fill-opacity="0.5"/>
<polyline clip-path="url(#clip432)" style="stroke:#000000; stroke-linecap:round; stroke-linejoin:round; stroke-width:4; stroke-opacity:0.5; fill:none" points="
  1584.99,158.872 1584.99,1042.58 1607.54,1042.58 1607.54,158.872 1584.99,158.872 
  "/>
<path clip-path="url(#clip432)" d="
M1613.17 176.261 L1613.17 1042.58 L1635.71 1042.58 L1635.71 176.261 L1613.17 176.261 L1613.17 176.261  Z
  " fill="#009af9" fill-rule="evenodd" fill-opacity="0.5"/>
<polyline clip-path="url(#clip432)" style="stroke:#000000; stroke-linecap:round; stroke-linejoin:round; stroke-width:4; stroke-opacity:0.5; fill:none" points="
  1613.17,176.261 1613.17,1042.58 1635.71,1042.58 1635.71,176.261 1613.17,176.261 
  "/>
<path clip-path="url(#clip432)" d="
M1641.35 187.047 L1641.35 1042.58 L1663.89 1042.58 L1663.89 187.047 L1641.35 187.047 L1641.35 187.047  Z
  " fill="#009af9" fill-rule="evenodd" fill-opacity="0.5"/>
<polyline clip-path="url(#clip432)" style="stroke:#000000; stroke-linecap:round; stroke-linejoin:round; stroke-width:4; stroke-opacity:0.5; fill:none" points="
  1641.35,187.047 1641.35,1042.58 1663.89,1042.58 1663.89,187.047 1641.35,187.047 
  "/>
<path clip-path="url(#clip432)" d="
M1669.53 163.323 L1669.53 1042.58 L1692.07 1042.58 L1692.07 163.323 L1669.53 163.323 L1669.53 163.323  Z
  " fill="#009af9" fill-rule="evenodd" fill-opacity="0.5"/>
<polyline clip-path="url(#clip432)" style="stroke:#000000; stroke-linecap:round; stroke-linejoin:round; stroke-width:4; stroke-opacity:0.5; fill:none" points="
  1669.53,163.323 1669.53,1042.58 1692.07,1042.58 1692.07,163.323 1669.53,163.323 
  "/>
<path clip-path="url(#clip432)" d="
M1697.71 291.52 L1697.71 1042.58 L1720.25 1042.58 L1720.25 291.52 L1697.71 291.52 L1697.71 291.52  Z
  " fill="#009af9" fill-rule="evenodd" fill-opacity="0.5"/>
<polyline clip-path="url(#clip432)" style="stroke:#000000; stroke-linecap:round; stroke-linejoin:round; stroke-width:4; stroke-opacity:0.5; fill:none" points="
  1697.71,291.52 1697.71,1042.58 1720.25,1042.58 1720.25,291.52 1697.71,291.52 
  "/>
<path clip-path="url(#clip432)" d="
M1725.89 454.554 L1725.89 1042.58 L1748.43 1042.58 L1748.43 454.554 L1725.89 454.554 L1725.89 454.554  Z
  " fill="#009af9" fill-rule="evenodd" fill-opacity="0.5"/>
<polyline clip-path="url(#clip432)" style="stroke:#000000; stroke-linecap:round; stroke-linejoin:round; stroke-width:4; stroke-opacity:0.5; fill:none" points="
  1725.89,454.554 1725.89,1042.58 1748.43,1042.58 1748.43,454.554 1725.89,454.554 
  "/>
<path clip-path="url(#clip432)" d="
M1754.07 132.67 L1754.07 1042.58 L1776.61 1042.58 L1776.61 132.67 L1754.07 132.67 L1754.07 132.67  Z
  " fill="#009af9" fill-rule="evenodd" fill-opacity="0.5"/>
<polyline clip-path="url(#clip432)" style="stroke:#000000; stroke-linecap:round; stroke-linejoin:round; stroke-width:4; stroke-opacity:0.5; fill:none" points="
  1754.07,132.67 1754.07,1042.58 1776.61,1042.58 1776.61,132.67 1754.07,132.67 
  "/>
<path clip-path="url(#clip432)" d="
M1782.25 185.089 L1782.25 1042.58 L1804.79 1042.58 L1804.79 185.089 L1782.25 185.089 L1782.25 185.089  Z
  " fill="#009af9" fill-rule="evenodd" fill-opacity="0.5"/>
<polyline clip-path="url(#clip432)" style="stroke:#000000; stroke-linecap:round; stroke-linejoin:round; stroke-width:4; stroke-opacity:0.5; fill:none" points="
  1782.25,185.089 1782.25,1042.58 1804.79,1042.58 1804.79,185.089 1782.25,185.089 
  "/>
<path clip-path="url(#clip432)" d="
M1810.43 201.488 L1810.43 1042.58 L1832.97 1042.58 L1832.97 201.488 L1810.43 201.488 L1810.43 201.488  Z
  " fill="#009af9" fill-rule="evenodd" fill-opacity="0.5"/>
<polyline clip-path="url(#clip432)" style="stroke:#000000; stroke-linecap:round; stroke-linejoin:round; stroke-width:4; stroke-opacity:0.5; fill:none" points="
  1810.43,201.488 1810.43,1042.58 1832.97,1042.58 1832.97,201.488 1810.43,201.488 
  "/>
<path clip-path="url(#clip432)" d="
M1838.61 190.366 L1838.61 1042.58 L1861.15 1042.58 L1861.15 190.366 L1838.61 190.366 L1838.61 190.366  Z
  " fill="#009af9" fill-rule="evenodd" fill-opacity="0.5"/>
<polyline clip-path="url(#clip432)" style="stroke:#000000; stroke-linecap:round; stroke-linejoin:round; stroke-width:4; stroke-opacity:0.5; fill:none" points="
  1838.61,190.366 1838.61,1042.58 1861.15,1042.58 1861.15,190.366 1838.61,190.366 
  "/>
<path clip-path="url(#clip432)" d="
M1866.78 367.584 L1866.78 1042.58 L1889.33 1042.58 L1889.33 367.584 L1866.78 367.584 L1866.78 367.584  Z
  " fill="#009af9" fill-rule="evenodd" fill-opacity="0.5"/>
<polyline clip-path="url(#clip432)" style="stroke:#000000; stroke-linecap:round; stroke-linejoin:round; stroke-width:4; stroke-opacity:0.5; fill:none" points="
  1866.78,367.584 1866.78,1042.58 1889.33,1042.58 1889.33,367.584 1866.78,367.584 
  "/>
<path clip-path="url(#clip432)" d="
M1894.96 248.154 L1894.96 1042.58 L1917.51 1042.58 L1917.51 248.154 L1894.96 248.154 L1894.96 248.154  Z
  " fill="#009af9" fill-rule="evenodd" fill-opacity="0.5"/>
<polyline clip-path="url(#clip432)" style="stroke:#000000; stroke-linecap:round; stroke-linejoin:round; stroke-width:4; stroke-opacity:0.5; fill:none" points="
  1894.96,248.154 1894.96,1042.58 1917.51,1042.58 1917.51,248.154 1894.96,248.154 
  "/>
<path clip-path="url(#clip432)" d="
M1923.14 469.818 L1923.14 1042.58 L1945.69 1042.58 L1945.69 469.818 L1923.14 469.818 L1923.14 469.818  Z
  " fill="#009af9" fill-rule="evenodd" fill-opacity="0.5"/>
<polyline clip-path="url(#clip432)" style="stroke:#000000; stroke-linecap:round; stroke-linejoin:round; stroke-width:4; stroke-opacity:0.5; fill:none" points="
  1923.14,469.818 1923.14,1042.58 1945.69,1042.58 1945.69,469.818 1923.14,469.818 
  "/>
<path clip-path="url(#clip432)" d="
M1951.32 142.235 L1951.32 1042.58 L1973.87 1042.58 L1973.87 142.235 L1951.32 142.235 L1951.32 142.235  Z
  " fill="#009af9" fill-rule="evenodd" fill-opacity="0.5"/>
<polyline clip-path="url(#clip432)" style="stroke:#000000; stroke-linecap:round; stroke-linejoin:round; stroke-width:4; stroke-opacity:0.5; fill:none" points="
  1951.32,142.235 1951.32,1042.58 1973.87,1042.58 1973.87,142.235 1951.32,142.235 
  "/>
<path clip-path="url(#clip432)" d="
M1979.5 206.615 L1979.5 1042.58 L2002.04 1042.58 L2002.04 206.615 L1979.5 206.615 L1979.5 206.615  Z
  " fill="#009af9" fill-rule="evenodd" fill-opacity="0.5"/>
<polyline clip-path="url(#clip432)" style="stroke:#000000; stroke-linecap:round; stroke-linejoin:round; stroke-width:4; stroke-opacity:0.5; fill:none" points="
  1979.5,206.615 1979.5,1042.58 2002.04,1042.58 2002.04,206.615 1979.5,206.615 
  "/>
<path clip-path="url(#clip432)" d="
M2007.68 184.441 L2007.68 1042.58 L2030.22 1042.58 L2030.22 184.441 L2007.68 184.441 L2007.68 184.441  Z
  " fill="#009af9" fill-rule="evenodd" fill-opacity="0.5"/>
<polyline clip-path="url(#clip432)" style="stroke:#000000; stroke-linecap:round; stroke-linejoin:round; stroke-width:4; stroke-opacity:0.5; fill:none" points="
  2007.68,184.441 2007.68,1042.58 2030.22,1042.58 2030.22,184.441 2007.68,184.441 
  "/>
<path clip-path="url(#clip432)" d="
M2035.86 176.261 L2035.86 1042.58 L2058.4 1042.58 L2058.4 176.261 L2035.86 176.261 L2035.86 176.261  Z
  " fill="#009af9" fill-rule="evenodd" fill-opacity="0.5"/>
<polyline clip-path="url(#clip432)" style="stroke:#000000; stroke-linecap:round; stroke-linejoin:round; stroke-width:4; stroke-opacity:0.5; fill:none" points="
  2035.86,176.261 2035.86,1042.58 2058.4,1042.58 2058.4,176.261 2035.86,176.261 
  "/>
<path clip-path="url(#clip432)" d="
M2064.04 165.025 L2064.04 1042.58 L2086.58 1042.58 L2086.58 165.025 L2064.04 165.025 L2064.04 165.025  Z
  " fill="#009af9" fill-rule="evenodd" fill-opacity="0.5"/>
<polyline clip-path="url(#clip432)" style="stroke:#000000; stroke-linecap:round; stroke-linejoin:round; stroke-width:4; stroke-opacity:0.5; fill:none" points="
  2064.04,165.025 2064.04,1042.58 2086.58,1042.58 2086.58,165.025 2064.04,165.025 
  "/>
<path clip-path="url(#clip432)" d="
M2092.22 286.477 L2092.22 1042.58 L2114.76 1042.58 L2114.76 286.477 L2092.22 286.477 L2092.22 286.477  Z
  " fill="#009af9" fill-rule="evenodd" fill-opacity="0.5"/>
<polyline clip-path="url(#clip432)" style="stroke:#000000; stroke-linecap:round; stroke-linejoin:round; stroke-width:4; stroke-opacity:0.5; fill:none" points="
  2092.22,286.477 2092.22,1042.58 2114.76,1042.58 2114.76,286.477 2092.22,286.477 
  "/>
<path clip-path="url(#clip432)" d="
M2120.4 465.86 L2120.4 1042.58 L2142.94 1042.58 L2142.94 465.86 L2120.4 465.86 L2120.4 465.86  Z
  " fill="#009af9" fill-rule="evenodd" fill-opacity="0.5"/>
<polyline clip-path="url(#clip432)" style="stroke:#000000; stroke-linecap:round; stroke-linejoin:round; stroke-width:4; stroke-opacity:0.5; fill:none" points="
  2120.4,465.86 2120.4,1042.58 2142.94,1042.58 2142.94,465.86 2120.4,465.86 
  "/>
<path clip-path="url(#clip432)" d="
M2148.58 181.244 L2148.58 1042.58 L2171.12 1042.58 L2171.12 181.244 L2148.58 181.244 L2148.58 181.244  Z
  " fill="#009af9" fill-rule="evenodd" fill-opacity="0.5"/>
<polyline clip-path="url(#clip432)" style="stroke:#000000; stroke-linecap:round; stroke-linejoin:round; stroke-width:4; stroke-opacity:0.5; fill:none" points="
  2148.58,181.244 2148.58,1042.58 2171.12,1042.58 2171.12,181.244 2148.58,181.244 
  "/>
<path clip-path="url(#clip432)" d="
M2176.76 199.342 L2176.76 1042.58 L2199.3 1042.58 L2199.3 199.342 L2176.76 199.342 L2176.76 199.342  Z
  " fill="#009af9" fill-rule="evenodd" fill-opacity="0.5"/>
<polyline clip-path="url(#clip432)" style="stroke:#000000; stroke-linecap:round; stroke-linejoin:round; stroke-width:4; stroke-opacity:0.5; fill:none" points="
  2176.76,199.342 2176.76,1042.58 2199.3,1042.58 2199.3,199.342 2176.76,199.342 
  "/>
<path clip-path="url(#clip432)" d="
M2204.94 236.916 L2204.94 1042.58 L2227.48 1042.58 L2227.48 236.916 L2204.94 236.916 L2204.94 236.916  Z
  " fill="#009af9" fill-rule="evenodd" fill-opacity="0.5"/>
<polyline clip-path="url(#clip432)" style="stroke:#000000; stroke-linecap:round; stroke-linejoin:round; stroke-width:4; stroke-opacity:0.5; fill:none" points="
  2204.94,236.916 2204.94,1042.58 2227.48,1042.58 2227.48,236.916 2204.94,236.916 
  "/>
<path clip-path="url(#clip432)" d="
M2233.11 270.005 L2233.11 1042.58 L2255.66 1042.58 L2255.66 270.005 L2233.11 270.005 L2233.11 270.005  Z
  " fill="#009af9" fill-rule="evenodd" fill-opacity="0.5"/>
<polyline clip-path="url(#clip432)" style="stroke:#000000; stroke-linecap:round; stroke-linejoin:round; stroke-width:4; stroke-opacity:0.5; fill:none" points="
  2233.11,270.005 2233.11,1042.58 2255.66,1042.58 2255.66,270.005 2233.11,270.005 
  "/>
<path clip-path="url(#clip432)" d="
M2261.29 228.987 L2261.29 1042.58 L2283.84 1042.58 L2283.84 228.987 L2261.29 228.987 L2261.29 228.987  Z
  " fill="#009af9" fill-rule="evenodd" fill-opacity="0.5"/>
<polyline clip-path="url(#clip432)" style="stroke:#000000; stroke-linecap:round; stroke-linejoin:round; stroke-width:4; stroke-opacity:0.5; fill:none" points="
  2261.29,228.987 2261.29,1042.58 2283.84,1042.58 2283.84,228.987 2261.29,228.987 
  "/>
<path clip-path="url(#clip432)" d="
M2289.47 314.981 L2289.47 1042.58 L2312.02 1042.58 L2312.02 314.981 L2289.47 314.981 L2289.47 314.981  Z
  " fill="#009af9" fill-rule="evenodd" fill-opacity="0.5"/>
<polyline clip-path="url(#clip432)" style="stroke:#000000; stroke-linecap:round; stroke-linejoin:round; stroke-width:4; stroke-opacity:0.5; fill:none" points="
  2289.47,314.981 2289.47,1042.58 2312.02,1042.58 2312.02,314.981 2289.47,314.981 
  "/>
<path clip-path="url(#clip432)" d="
M2317.65 599.634 L2317.65 1042.58 L2340.2 1042.58 L2340.2 599.634 L2317.65 599.634 L2317.65 599.634  Z
  " fill="#009af9" fill-rule="evenodd" fill-opacity="0.5"/>
<polyline clip-path="url(#clip432)" style="stroke:#000000; stroke-linecap:round; stroke-linejoin:round; stroke-width:4; stroke-opacity:0.5; fill:none" points="
  2317.65,599.634 2317.65,1042.58 2340.2,1042.58 2340.2,599.634 2317.65,599.634 
  "/>
<path clip-path="url(#clip432)" d="
M2345.83 214.243 L2345.83 1042.58 L2368.38 1042.58 L2368.38 214.243 L2345.83 214.243 L2345.83 214.243  Z
  " fill="#009af9" fill-rule="evenodd" fill-opacity="0.5"/>
<polyline clip-path="url(#clip432)" style="stroke:#000000; stroke-linecap:round; stroke-linejoin:round; stroke-width:4; stroke-opacity:0.5; fill:none" points="
  2345.83,214.243 2345.83,1042.58 2368.38,1042.58 2368.38,214.243 2345.83,214.243 
  "/>
<path clip-path="url(#clip432)" d="
M2374.01 286.477 L2374.01 1042.58 L2396.55 1042.58 L2396.55 286.477 L2374.01 286.477 L2374.01 286.477  Z
  " fill="#009af9" fill-rule="evenodd" fill-opacity="0.5"/>
<polyline clip-path="url(#clip432)" style="stroke:#000000; stroke-linecap:round; stroke-linejoin:round; stroke-width:4; stroke-opacity:0.5; fill:none" points="
  2374.01,286.477 2374.01,1042.58 2396.55,1042.58 2396.55,286.477 2374.01,286.477 
  "/>
<path clip-path="url(#clip432)" d="
M2402.19 313.499 L2402.19 1042.58 L2424.73 1042.58 L2424.73 313.499 L2402.19 313.499 L2402.19 313.499  Z
  " fill="#009af9" fill-rule="evenodd" fill-opacity="0.5"/>
<polyline clip-path="url(#clip432)" style="stroke:#000000; stroke-linecap:round; stroke-linejoin:round; stroke-width:4; stroke-opacity:0.5; fill:none" points="
  2402.19,313.499 2402.19,1042.58 2424.73,1042.58 2424.73,313.499 2402.19,313.499 
  "/>
<path clip-path="url(#clip432)" d="
M2430.37 267.787 L2430.37 1042.58 L2452.91 1042.58 L2452.91 267.787 L2430.37 267.787 L2430.37 267.787  Z
  " fill="#009af9" fill-rule="evenodd" fill-opacity="0.5"/>
<polyline clip-path="url(#clip432)" style="stroke:#000000; stroke-linecap:round; stroke-linejoin:round; stroke-width:4; stroke-opacity:0.5; fill:none" points="
  2430.37,267.787 2430.37,1042.58 2452.91,1042.58 2452.91,267.787 2430.37,267.787 
  "/>
<path clip-path="url(#clip432)" d="
M2458.55 351.739 L2458.55 1042.58 L2481.09 1042.58 L2481.09 351.739 L2458.55 351.739 L2458.55 351.739  Z
  " fill="#009af9" fill-rule="evenodd" fill-opacity="0.5"/>
<polyline clip-path="url(#clip432)" style="stroke:#000000; stroke-linecap:round; stroke-linejoin:round; stroke-width:4; stroke-opacity:0.5; fill:none" points="
  2458.55,351.739 2458.55,1042.58 2481.09,1042.58 2481.09,351.739 2458.55,351.739 
  "/>
<path clip-path="url(#clip432)" d="
M2486.73 465.86 L2486.73 1042.58 L2509.27 1042.58 L2509.27 465.86 L2486.73 465.86 L2486.73 465.86  Z
  " fill="#009af9" fill-rule="evenodd" fill-opacity="0.5"/>
<polyline clip-path="url(#clip432)" style="stroke:#000000; stroke-linecap:round; stroke-linejoin:round; stroke-width:4; stroke-opacity:0.5; fill:none" points="
  2486.73,465.86 2486.73,1042.58 2509.27,1042.58 2509.27,465.86 2486.73,465.86 
  "/>
<path clip-path="url(#clip432)" d="
M2514.91 641.574 L2514.91 1042.58 L2537.45 1042.58 L2537.45 641.574 L2514.91 641.574 L2514.91 641.574  Z
  " fill="#009af9" fill-rule="evenodd" fill-opacity="0.5"/>
<polyline clip-path="url(#clip432)" style="stroke:#000000; stroke-linecap:round; stroke-linejoin:round; stroke-width:4; stroke-opacity:0.5; fill:none" points="
  2514.91,641.574 2514.91,1042.58 2537.45,1042.58 2537.45,641.574 2514.91,641.574 
  "/>
<path clip-path="url(#clip432)" d="
M2543.09 394.843 L2543.09 1042.58 L2565.63 1042.58 L2565.63 394.843 L2543.09 394.843 L2543.09 394.843  Z
  " fill="#009af9" fill-rule="evenodd" fill-opacity="0.5"/>
<polyline clip-path="url(#clip432)" style="stroke:#000000; stroke-linecap:round; stroke-linejoin:round; stroke-width:4; stroke-opacity:0.5; fill:none" points="
  2543.09,394.843 2543.09,1042.58 2565.63,1042.58 2565.63,394.843 2543.09,394.843 
  "/>
<path clip-path="url(#clip432)" d="
M2571.27 516.136 L2571.27 1042.58 L2593.81 1042.58 L2593.81 516.136 L2571.27 516.136 L2571.27 516.136  Z
  " fill="#009af9" fill-rule="evenodd" fill-opacity="0.5"/>
<polyline clip-path="url(#clip432)" style="stroke:#000000; stroke-linecap:round; stroke-linejoin:round; stroke-width:4; stroke-opacity:0.5; fill:none" points="
  2571.27,516.136 2571.27,1042.58 2593.81,1042.58 2593.81,516.136 2571.27,516.136 
  "/>
<path clip-path="url(#clip432)" d="
M2599.44 545.722 L2599.44 1042.58 L2621.99 1042.58 L2621.99 545.722 L2599.44 545.722 L2599.44 545.722  Z
  " fill="#009af9" fill-rule="evenodd" fill-opacity="0.5"/>
<polyline clip-path="url(#clip432)" style="stroke:#000000; stroke-linecap:round; stroke-linejoin:round; stroke-width:4; stroke-opacity:0.5; fill:none" points="
  2599.44,545.722 2599.44,1042.58 2621.99,1042.58 2621.99,545.722 2599.44,545.722 
  "/>
<path clip-path="url(#clip432)" d="
M2627.62 699.064 L2627.62 1042.58 L2650.17 1042.58 L2650.17 699.064 L2627.62 699.064 L2627.62 699.064  Z
  " fill="#009af9" fill-rule="evenodd" fill-opacity="0.5"/>
<polyline clip-path="url(#clip432)" style="stroke:#000000; stroke-linecap:round; stroke-linejoin:round; stroke-width:4; stroke-opacity:0.5; fill:none" points="
  2627.62,699.064 2627.62,1042.58 2650.17,1042.58 2650.17,699.064 2627.62,699.064 
  "/>
<path clip-path="url(#clip432)" d="
M2655.8 609.112 L2655.8 1042.58 L2678.35 1042.58 L2678.35 609.112 L2655.8 609.112 L2655.8 609.112  Z
  " fill="#009af9" fill-rule="evenodd" fill-opacity="0.5"/>
<polyline clip-path="url(#clip432)" style="stroke:#000000; stroke-linecap:round; stroke-linejoin:round; stroke-width:4; stroke-opacity:0.5; fill:none" points="
  2655.8,609.112 2655.8,1042.58 2678.35,1042.58 2678.35,609.112 2655.8,609.112 
  "/>
<path clip-path="url(#clip432)" d="
M2683.98 699.064 L2683.98 1042.58 L2706.53 1042.58 L2706.53 699.064 L2683.98 699.064 L2683.98 699.064  Z
  " fill="#009af9" fill-rule="evenodd" fill-opacity="0.5"/>
<polyline clip-path="url(#clip432)" style="stroke:#000000; stroke-linecap:round; stroke-linejoin:round; stroke-width:4; stroke-opacity:0.5; fill:none" points="
  2683.98,699.064 2683.98,1042.58 2706.53,1042.58 2706.53,699.064 2683.98,699.064 
  "/>
<path clip-path="url(#clip432)" d="
M2712.16 682.592 L2712.16 1042.58 L2734.71 1042.58 L2734.71 682.592 L2712.16 682.592 L2712.16 682.592  Z
  " fill="#009af9" fill-rule="evenodd" fill-opacity="0.5"/>
<polyline clip-path="url(#clip432)" style="stroke:#000000; stroke-linecap:round; stroke-linejoin:round; stroke-width:4; stroke-opacity:0.5; fill:none" points="
  2712.16,682.592 2712.16,1042.58 2734.71,1042.58 2734.71,682.592 2712.16,682.592 
  "/>
<path clip-path="url(#clip432)" d="
M2740.34 699.064 L2740.34 1042.58 L2762.88 1042.58 L2762.88 699.064 L2740.34 699.064 L2740.34 699.064  Z
  " fill="#009af9" fill-rule="evenodd" fill-opacity="0.5"/>
<polyline clip-path="url(#clip432)" style="stroke:#000000; stroke-linecap:round; stroke-linejoin:round; stroke-width:4; stroke-opacity:0.5; fill:none" points="
  2740.34,699.064 2740.34,1042.58 2762.88,1042.58 2762.88,699.064 2740.34,699.064 
  "/>
<path clip-path="url(#clip432)" d="
M2768.52 762.454 L2768.52 1042.58 L2791.06 1042.58 L2791.06 762.454 L2768.52 762.454 L2768.52 762.454  Z
  " fill="#009af9" fill-rule="evenodd" fill-opacity="0.5"/>
<polyline clip-path="url(#clip432)" style="stroke:#000000; stroke-linecap:round; stroke-linejoin:round; stroke-width:4; stroke-opacity:0.5; fill:none" points="
  2768.52,762.454 2768.52,1042.58 2791.06,1042.58 2791.06,762.454 2768.52,762.454 
  "/>
<circle clip-path="url(#clip432)" style="fill:#009af9; stroke:none; fill-opacity:0" cx="300.018" cy="241.501" r="2"/>
<circle clip-path="url(#clip432)" style="fill:#009af9; stroke:none; fill-opacity:0" cx="328.198" cy="353.634" r="2"/>
<circle clip-path="url(#clip432)" style="fill:#009af9; stroke:none; fill-opacity:0" cx="356.377" cy="392.38" r="2"/>
<circle clip-path="url(#clip432)" style="fill:#009af9; stroke:none; fill-opacity:0" cx="384.556" cy="183.796" r="2"/>
<circle clip-path="url(#clip432)" style="fill:#009af9; stroke:none; fill-opacity:0" cx="412.735" cy="215.026" r="2"/>
<circle clip-path="url(#clip432)" style="fill:#009af9; stroke:none; fill-opacity:0" cx="440.915" cy="211.915" r="2"/>
<circle clip-path="url(#clip432)" style="fill:#009af9; stroke:none; fill-opacity:0" cx="469.094" cy="205.872" r="2"/>
<circle clip-path="url(#clip432)" style="fill:#009af9; stroke:none; fill-opacity:0" cx="497.273" cy="213.463" r="2"/>
<circle clip-path="url(#clip432)" style="fill:#009af9; stroke:none; fill-opacity:0" cx="525.452" cy="296.732" r="2"/>
<circle clip-path="url(#clip432)" style="fill:#009af9; stroke:none; fill-opacity:0" cx="553.632" cy="424.843" r="2"/>
<circle clip-path="url(#clip432)" style="fill:#009af9; stroke:none; fill-opacity:0" cx="581.811" cy="150.332" r="2"/>
<circle clip-path="url(#clip432)" style="fill:#009af9; stroke:none; fill-opacity:0" cx="609.99" cy="192.392" r="2"/>
<circle clip-path="url(#clip432)" style="fill:#009af9; stroke:none; fill-opacity:0" cx="638.169" cy="208.864" r="2"/>
<circle clip-path="url(#clip432)" style="fill:#009af9; stroke:none; fill-opacity:0" cx="666.349" cy="230.715" r="2"/>
<circle clip-path="url(#clip432)" style="fill:#009af9; stroke:none; fill-opacity:0" cx="694.528" cy="213.463" r="2"/>
<circle clip-path="url(#clip432)" style="fill:#009af9; stroke:none; fill-opacity:0" cx="722.707" cy="316.477" r="2"/>
<circle clip-path="url(#clip432)" style="fill:#009af9; stroke:none; fill-opacity:0" cx="750.886" cy="407.77" r="2"/>
<circle clip-path="url(#clip432)" style="fill:#009af9; stroke:none; fill-opacity:0" cx="779.066" cy="162.198" r="2"/>
<circle clip-path="url(#clip432)" style="fill:#009af9; stroke:none; fill-opacity:0" cx="807.245" cy="230.715" r="2"/>
<circle clip-path="url(#clip432)" style="fill:#009af9; stroke:none; fill-opacity:0" cx="835.424" cy="234.228" r="2"/>
<circle clip-path="url(#clip432)" style="fill:#009af9; stroke:none; fill-opacity:0" cx="863.603" cy="235.119" r="2"/>
<circle clip-path="url(#clip432)" style="fill:#009af9; stroke:none; fill-opacity:0" cx="891.783" cy="243.373" r="2"/>
<circle clip-path="url(#clip432)" style="fill:#009af9; stroke:none; fill-opacity:0" cx="919.962" cy="265.601" r="2"/>
<circle clip-path="url(#clip432)" style="fill:#009af9; stroke:none; fill-opacity:0" cx="948.141" cy="516.136" r="2"/>
<circle clip-path="url(#clip432)" style="fill:#009af9; stroke:none; fill-opacity:0" cx="976.32" cy="158.872" r="2"/>
<circle clip-path="url(#clip432)" style="fill:#009af9; stroke:none; fill-opacity:0" cx="1004.5" cy="183.796" r="2"/>
<circle clip-path="url(#clip432)" style="fill:#009af9; stroke:none; fill-opacity:0" cx="1032.68" cy="175.039" r="2"/>
<circle clip-path="url(#clip432)" style="fill:#009af9; stroke:none; fill-opacity:0" cx="1060.86" cy="205.133" r="2"/>
<circle clip-path="url(#clip432)" style="fill:#009af9; stroke:none; fill-opacity:0" cx="1089.04" cy="182.515" r="2"/>
<circle clip-path="url(#clip432)" style="fill:#009af9; stroke:none; fill-opacity:0" cx="1117.22" cy="325.767" r="2"/>
<circle clip-path="url(#clip432)" style="fill:#009af9; stroke:none; fill-opacity:0" cx="1145.4" cy="421.865" r="2"/>
<circle clip-path="url(#clip432)" style="fill:#009af9; stroke:none; fill-opacity:0" cx="1173.58" cy="351.739" r="2"/>
<circle clip-path="url(#clip432)" style="fill:#009af9; stroke:none; fill-opacity:0" cx="1201.75" cy="124.976" r="2"/>
<circle clip-path="url(#clip432)" style="fill:#009af9; stroke:none; fill-opacity:0" cx="1229.93" cy="146.738" r="2"/>
<circle clip-path="url(#clip432)" style="fill:#009af9; stroke:none; fill-opacity:0" cx="1258.11" cy="156.693" r="2"/>
<circle clip-path="url(#clip432)" style="fill:#009af9; stroke:none; fill-opacity:0" cx="1286.29" cy="166.171" r="2"/>
<circle clip-path="url(#clip432)" style="fill:#009af9; stroke:none; fill-opacity:0" cx="1314.47" cy="291.52" r="2"/>
<circle clip-path="url(#clip432)" style="fill:#009af9; stroke:none; fill-opacity:0" cx="1342.65" cy="444.01" r="2"/>
<circle clip-path="url(#clip432)" style="fill:#009af9; stroke:none; fill-opacity:0" cx="1370.83" cy="140.763" r="2"/>
<circle clip-path="url(#clip432)" style="fill:#009af9; stroke:none; fill-opacity:0" cx="1399.01" cy="187.705" r="2"/>
<circle clip-path="url(#clip432)" style="fill:#009af9; stroke:none; fill-opacity:0" cx="1427.19" cy="191.039" r="2"/>
<circle clip-path="url(#clip432)" style="fill:#009af9; stroke:none; fill-opacity:0" cx="1455.37" cy="189.697" r="2"/>
<circle clip-path="url(#clip432)" style="fill:#009af9; stroke:none; fill-opacity:0" cx="1483.55" cy="205.872" r="2"/>
<circle clip-path="url(#clip432)" style="fill:#009af9; stroke:none; fill-opacity:0" cx="1511.73" cy="285.241" r="2"/>
<circle clip-path="url(#clip432)" style="fill:#009af9; stroke:none; fill-opacity:0" cx="1539.91" cy="421.865" r="2"/>
<circle clip-path="url(#clip432)" style="fill:#009af9; stroke:none; fill-opacity:0" cx="1596.26" cy="158.872" r="2"/>
<circle clip-path="url(#clip432)" style="fill:#009af9; stroke:none; fill-opacity:0" cx="1624.44" cy="176.261" r="2"/>
<circle clip-path="url(#clip432)" style="fill:#009af9; stroke:none; fill-opacity:0" cx="1652.62" cy="187.047" r="2"/>
<circle clip-path="url(#clip432)" style="fill:#009af9; stroke:none; fill-opacity:0" cx="1680.8" cy="163.323" r="2"/>
<circle clip-path="url(#clip432)" style="fill:#009af9; stroke:none; fill-opacity:0" cx="1708.98" cy="291.52" r="2"/>
<circle clip-path="url(#clip432)" style="fill:#009af9; stroke:none; fill-opacity:0" cx="1737.16" cy="454.554" r="2"/>
<circle clip-path="url(#clip432)" style="fill:#009af9; stroke:none; fill-opacity:0" cx="1765.34" cy="132.67" r="2"/>
<circle clip-path="url(#clip432)" style="fill:#009af9; stroke:none; fill-opacity:0" cx="1793.52" cy="185.089" r="2"/>
<circle clip-path="url(#clip432)" style="fill:#009af9; stroke:none; fill-opacity:0" cx="1821.7" cy="201.488" r="2"/>
<circle clip-path="url(#clip432)" style="fill:#009af9; stroke:none; fill-opacity:0" cx="1849.88" cy="190.366" r="2"/>
<circle clip-path="url(#clip432)" style="fill:#009af9; stroke:none; fill-opacity:0" cx="1878.06" cy="367.584" r="2"/>
<circle clip-path="url(#clip432)" style="fill:#009af9; stroke:none; fill-opacity:0" cx="1906.24" cy="248.154" r="2"/>
<circle clip-path="url(#clip432)" style="fill:#009af9; stroke:none; fill-opacity:0" cx="1934.41" cy="469.818" r="2"/>
<circle clip-path="url(#clip432)" style="fill:#009af9; stroke:none; fill-opacity:0" cx="1962.59" cy="142.235" r="2"/>
<circle clip-path="url(#clip432)" style="fill:#009af9; stroke:none; fill-opacity:0" cx="1990.77" cy="206.615" r="2"/>
<circle clip-path="url(#clip432)" style="fill:#009af9; stroke:none; fill-opacity:0" cx="2018.95" cy="184.441" r="2"/>
<circle clip-path="url(#clip432)" style="fill:#009af9; stroke:none; fill-opacity:0" cx="2047.13" cy="176.261" r="2"/>
<circle clip-path="url(#clip432)" style="fill:#009af9; stroke:none; fill-opacity:0" cx="2075.31" cy="165.025" r="2"/>
<circle clip-path="url(#clip432)" style="fill:#009af9; stroke:none; fill-opacity:0" cx="2103.49" cy="286.477" r="2"/>
<circle clip-path="url(#clip432)" style="fill:#009af9; stroke:none; fill-opacity:0" cx="2131.67" cy="465.86" r="2"/>
<circle clip-path="url(#clip432)" style="fill:#009af9; stroke:none; fill-opacity:0" cx="2159.85" cy="181.244" r="2"/>
<circle clip-path="url(#clip432)" style="fill:#009af9; stroke:none; fill-opacity:0" cx="2188.03" cy="199.342" r="2"/>
<circle clip-path="url(#clip432)" style="fill:#009af9; stroke:none; fill-opacity:0" cx="2216.21" cy="236.916" r="2"/>
<circle clip-path="url(#clip432)" style="fill:#009af9; stroke:none; fill-opacity:0" cx="2244.39" cy="270.005" r="2"/>
<circle clip-path="url(#clip432)" style="fill:#009af9; stroke:none; fill-opacity:0" cx="2272.57" cy="228.987" r="2"/>
<circle clip-path="url(#clip432)" style="fill:#009af9; stroke:none; fill-opacity:0" cx="2300.74" cy="314.981" r="2"/>
<circle clip-path="url(#clip432)" style="fill:#009af9; stroke:none; fill-opacity:0" cx="2328.92" cy="599.634" r="2"/>
<circle clip-path="url(#clip432)" style="fill:#009af9; stroke:none; fill-opacity:0" cx="2357.1" cy="214.243" r="2"/>
<circle clip-path="url(#clip432)" style="fill:#009af9; stroke:none; fill-opacity:0" cx="2385.28" cy="286.477" r="2"/>
<circle clip-path="url(#clip432)" style="fill:#009af9; stroke:none; fill-opacity:0" cx="2413.46" cy="313.499" r="2"/>
<circle clip-path="url(#clip432)" style="fill:#009af9; stroke:none; fill-opacity:0" cx="2441.64" cy="267.787" r="2"/>
<circle clip-path="url(#clip432)" style="fill:#009af9; stroke:none; fill-opacity:0" cx="2469.82" cy="351.739" r="2"/>
<circle clip-path="url(#clip432)" style="fill:#009af9; stroke:none; fill-opacity:0" cx="2498" cy="465.86" r="2"/>
<circle clip-path="url(#clip432)" style="fill:#009af9; stroke:none; fill-opacity:0" cx="2526.18" cy="641.574" r="2"/>
<circle clip-path="url(#clip432)" style="fill:#009af9; stroke:none; fill-opacity:0" cx="2554.36" cy="394.843" r="2"/>
<circle clip-path="url(#clip432)" style="fill:#009af9; stroke:none; fill-opacity:0" cx="2582.54" cy="516.136" r="2"/>
<circle clip-path="url(#clip432)" style="fill:#009af9; stroke:none; fill-opacity:0" cx="2610.72" cy="545.722" r="2"/>
<circle clip-path="url(#clip432)" style="fill:#009af9; stroke:none; fill-opacity:0" cx="2638.9" cy="699.064" r="2"/>
<circle clip-path="url(#clip432)" style="fill:#009af9; stroke:none; fill-opacity:0" cx="2667.08" cy="609.112" r="2"/>
<circle clip-path="url(#clip432)" style="fill:#009af9; stroke:none; fill-opacity:0" cx="2695.25" cy="699.064" r="2"/>
<circle clip-path="url(#clip432)" style="fill:#009af9; stroke:none; fill-opacity:0" cx="2723.43" cy="682.592" r="2"/>
<circle clip-path="url(#clip432)" style="fill:#009af9; stroke:none; fill-opacity:0" cx="2751.61" cy="699.064" r="2"/>
<circle clip-path="url(#clip432)" style="fill:#009af9; stroke:none; fill-opacity:0" cx="2779.79" cy="762.454" r="2"/>
</svg>
