<?xml version="1.0" encoding="utf-8"?>
<svg xmlns="http://www.w3.org/2000/svg" xmlns:xlink="http://www.w3.org/1999/xlink" width="800" height="300" viewBox="0 0 3200 1200">
<defs>
  <clipPath id="clip480">
    <rect x="0" y="0" width="3200" height="1200"/>
  </clipPath>
</defs>
<path clip-path="url(#clip480)" d="M0 1200 L3200 1200 L3200 0 L0 0  Z" fill="#ffffff" fill-rule="evenodd" fill-opacity="1"/>
<defs>
  <clipPath id="clip481">
    <rect x="640" y="0" width="2241" height="1200"/>
  </clipPath>
</defs>
<path clip-path="url(#clip480)" d="M271.839 1042.58 L3089.76 1042.58 L3089.76 110.236 L271.839 110.236  Z" fill="#ffffff" fill-rule="evenodd" fill-opacity="1"/>
<defs>
  <clipPath id="clip482">
    <rect x="271" y="110" width="2819" height="933"/>
  </clipPath>
</defs>
<polyline clip-path="url(#clip482)" style="stroke:#000000; stroke-linecap:round; stroke-linejoin:round; stroke-width:2; stroke-opacity:0.1; fill:none" points="919.962,1042.58 919.962,110.236 "/>
<polyline clip-path="url(#clip482)" style="stroke:#000000; stroke-linecap:round; stroke-linejoin:round; stroke-width:2; stroke-opacity:0.1; fill:none" points="1793.52,1042.58 1793.52,110.236 "/>
<polyline clip-path="url(#clip482)" style="stroke:#000000; stroke-linecap:round; stroke-linejoin:round; stroke-width:2; stroke-opacity:0.1; fill:none" points="2667.08,1042.58 2667.08,110.236 "/>
<polyline clip-path="url(#clip480)" style="stroke:#000000; stroke-linecap:round; stroke-linejoin:round; stroke-width:4; stroke-opacity:1; fill:none" points="271.839,1042.58 3089.76,1042.58 "/>
<polyline clip-path="url(#clip480)" style="stroke:#000000; stroke-linecap:round; stroke-linejoin:round; stroke-width:4; stroke-opacity:1; fill:none" points="919.962,1042.58 919.962,1023.68 "/>
<polyline clip-path="url(#clip480)" style="stroke:#000000; stroke-linecap:round; stroke-linejoin:round; stroke-width:4; stroke-opacity:1; fill:none" points="1793.52,1042.58 1793.52,1023.68 "/>
<polyline clip-path="url(#clip480)" style="stroke:#000000; stroke-linecap:round; stroke-linejoin:round; stroke-width:4; stroke-opacity:1; fill:none" points="2667.08,1042.58 2667.08,1023.68 "/>
<path clip-path="url(#clip480)" d="M791.757 1107.44 L808.076 1107.44 L808.076 1111.38 L786.132 1111.38 L786.132 1107.44 Q788.794 1104.69 793.377 1100.06 Q797.983 1095.4 799.164 1094.06 Q801.409 1091.54 802.289 1089.8 Q803.192 1088.04 803.192 1086.35 Q803.192 1083.6 801.247 1081.86 Q799.326 1080.13 796.224 1080.13 Q794.025 1080.13 791.571 1080.89 Q789.141 1081.65 786.363 1083.2 L786.363 1078.48 Q789.187 1077.35 791.641 1076.77 Q794.094 1076.19 796.132 1076.19 Q801.502 1076.19 804.696 1078.88 Q807.891 1081.56 807.891 1086.05 Q807.891 1088.18 807.081 1090.1 Q806.293 1092 804.187 1094.59 Q803.608 1095.26 800.506 1098.48 Q797.405 1101.68 791.757 1107.44 Z" fill="#000000" fill-rule="nonzero" fill-opacity="1" /><path clip-path="url(#clip480)" d="M827.891 1079.89 Q824.28 1079.89 822.451 1083.46 Q820.645 1087 820.645 1094.13 Q820.645 1101.24 822.451 1104.8 Q824.28 1108.34 827.891 1108.34 Q831.525 1108.34 833.33 1104.8 Q835.159 1101.24 835.159 1094.13 Q835.159 1087 833.33 1083.46 Q831.525 1079.89 827.891 1079.89 M827.891 1076.19 Q833.701 1076.19 836.756 1080.8 Q839.835 1085.38 839.835 1094.13 Q839.835 1102.86 836.756 1107.46 Q833.701 1112.05 827.891 1112.05 Q822.08 1112.05 819.002 1107.46 Q815.946 1102.86 815.946 1094.13 Q815.946 1085.38 819.002 1080.8 Q822.08 1076.19 827.891 1076.19 Z" fill="#000000" fill-rule="nonzero" fill-opacity="1" /><path clip-path="url(#clip480)" d="M852.08 1107.44 L868.4 1107.44 L868.4 1111.38 L846.455 1111.38 L846.455 1107.44 Q849.117 1104.69 853.701 1100.06 Q858.307 1095.4 859.488 1094.06 Q861.733 1091.54 862.613 1089.8 Q863.515 1088.04 863.515 1086.35 Q863.515 1083.6 861.571 1081.86 Q859.65 1080.13 856.548 1080.13 Q854.349 1080.13 851.895 1080.89 Q849.465 1081.65 846.687 1083.2 L846.687 1078.48 Q849.511 1077.35 851.965 1076.77 Q854.418 1076.19 856.455 1076.19 Q861.826 1076.19 865.02 1078.88 Q868.214 1081.56 868.214 1086.05 Q868.214 1088.18 867.404 1090.1 Q866.617 1092 864.511 1094.59 Q863.932 1095.26 860.83 1098.48 Q857.728 1101.68 852.08 1107.44 Z" fill="#000000" fill-rule="nonzero" fill-opacity="1" /><path clip-path="url(#clip480)" d="M891.062 1080.89 L879.256 1099.34 L891.062 1099.34 L891.062 1080.89 M889.835 1076.82 L895.714 1076.82 L895.714 1099.34 L900.645 1099.34 L900.645 1103.23 L895.714 1103.23 L895.714 1111.38 L891.062 1111.38 L891.062 1103.23 L875.46 1103.23 L875.46 1098.71 L889.835 1076.82 Z" fill="#000000" fill-rule="nonzero" fill-opacity="1" /><path clip-path="url(#clip480)" d="M905.622 1096.49 L918.098 1096.49 L918.098 1100.29 L905.622 1100.29 L905.622 1096.49 Z" fill="#000000" fill-rule="nonzero" fill-opacity="1" /><path clip-path="url(#clip480)" d="M935.483 1079.89 Q931.872 1079.89 930.043 1083.46 Q928.237 1087 928.237 1094.13 Q928.237 1101.24 930.043 1104.8 Q931.872 1108.34 935.483 1108.34 Q939.117 1108.34 940.922 1104.8 Q942.751 1101.24 942.751 1094.13 Q942.751 1087 940.922 1083.46 Q939.117 1079.89 935.483 1079.89 M935.483 1076.19 Q941.293 1076.19 944.348 1080.8 Q947.427 1085.38 947.427 1094.13 Q947.427 1102.86 944.348 1107.46 Q941.293 1112.05 935.483 1112.05 Q929.672 1112.05 926.594 1107.46 Q923.538 1102.86 923.538 1094.13 Q923.538 1085.38 926.594 1080.8 Q929.672 1076.19 935.483 1076.19 Z" fill="#000000" fill-rule="nonzero" fill-opacity="1" /><path clip-path="url(#clip480)" d="M954.464 1076.82 L976.686 1076.82 L976.686 1078.81 L964.14 1111.38 L959.256 1111.38 L971.061 1080.75 L954.464 1080.75 L954.464 1076.82 Z" fill="#000000" fill-rule="nonzero" fill-opacity="1" /><path clip-path="url(#clip480)" d="M983.052 1096.49 L995.529 1096.49 L995.529 1100.29 L983.052 1100.29 L983.052 1096.49 Z" fill="#000000" fill-rule="nonzero" fill-opacity="1" /><path clip-path="url(#clip480)" d="M1012.91 1079.89 Q1009.3 1079.89 1007.47 1083.46 Q1005.67 1087 1005.67 1094.13 Q1005.67 1101.24 1007.47 1104.8 Q1009.3 1108.34 1012.91 1108.34 Q1016.55 1108.34 1018.35 1104.8 Q1020.18 1101.24 1020.18 1094.13 Q1020.18 1087 1018.35 1083.46 Q1016.55 1079.89 1012.91 1079.89 M1012.91 1076.19 Q1018.72 1076.19 1021.78 1080.8 Q1024.86 1085.38 1024.86 1094.13 Q1024.86 1102.86 1021.78 1107.46 Q1018.72 1112.05 1012.91 1112.05 Q1007.1 1112.05 1004.02 1107.46 Q1000.97 1102.86 1000.97 1094.13 Q1000.97 1085.38 1004.02 1080.8 Q1007.1 1076.19 1012.91 1076.19 Z" fill="#000000" fill-rule="nonzero" fill-opacity="1" /><path clip-path="url(#clip480)" d="M1033.88 1107.44 L1041.52 1107.44 L1041.52 1081.07 L1033.21 1082.74 L1033.21 1078.48 L1041.48 1076.82 L1046.15 1076.82 L1046.15 1107.44 L1053.79 1107.44 L1053.79 1111.38 L1033.88 1111.38 L1033.88 1107.44 Z" fill="#000000" fill-rule="nonzero" fill-opacity="1" /><path clip-path="url(#clip480)" d="M1665.31 1107.44 L1681.63 1107.44 L1681.63 1111.38 L1659.69 1111.38 L1659.69 1107.44 Q1662.35 1104.69 1666.93 1100.06 Q1671.54 1095.4 1672.72 1094.06 Q1674.97 1091.54 1675.85 1089.8 Q1676.75 1088.04 1676.75 1086.35 Q1676.75 1083.6 1674.8 1081.86 Q1672.88 1080.13 1669.78 1080.13 Q1667.58 1080.13 1665.13 1080.89 Q1662.7 1081.65 1659.92 1083.2 L1659.92 1078.48 Q1662.74 1077.35 1665.2 1076.77 Q1667.65 1076.19 1669.69 1076.19 Q1675.06 1076.19 1678.25 1078.88 Q1681.45 1081.56 1681.45 1086.05 Q1681.45 1088.18 1680.64 1090.1 Q1679.85 1092 1677.74 1094.59 Q1677.16 1095.26 1674.06 1098.48 Q1670.96 1101.68 1665.31 1107.44 Z" fill="#000000" fill-rule="nonzero" fill-opacity="1" /><path clip-path="url(#clip480)" d="M1701.45 1079.89 Q1697.84 1079.89 1696.01 1083.46 Q1694.2 1087 1694.2 1094.13 Q1694.2 1101.24 1696.01 1104.8 Q1697.84 1108.34 1701.45 1108.34 Q1705.08 1108.34 1706.89 1104.8 Q1708.72 1101.24 1708.72 1094.13 Q1708.72 1087 1706.89 1083.46 Q1705.08 1079.89 1701.45 1079.89 M1701.45 1076.19 Q1707.26 1076.19 1710.31 1080.8 Q1713.39 1085.38 1713.39 1094.13 Q1713.39 1102.86 1710.31 1107.46 Q1707.26 1112.05 1701.45 1112.05 Q1695.64 1112.05 1692.56 1107.46 Q1689.5 1102.86 1689.5 1094.13 Q1689.5 1085.38 1692.56 1080.8 Q1695.64 1076.19 1701.45 1076.19 Z" fill="#000000" fill-rule="nonzero" fill-opacity="1" /><path clip-path="url(#clip480)" d="M1725.64 1107.44 L1741.96 1107.44 L1741.96 1111.38 L1720.01 1111.38 L1720.01 1107.44 Q1722.67 1104.69 1727.26 1100.06 Q1731.86 1095.4 1733.04 1094.06 Q1735.29 1091.54 1736.17 1089.8 Q1737.07 1088.04 1737.07 1086.35 Q1737.07 1083.6 1735.13 1081.86 Q1733.21 1080.13 1730.1 1080.13 Q1727.91 1080.13 1725.45 1080.89 Q1723.02 1081.65 1720.24 1083.2 L1720.24 1078.48 Q1723.07 1077.35 1725.52 1076.77 Q1727.97 1076.19 1730.01 1076.19 Q1735.38 1076.19 1738.58 1078.88 Q1741.77 1081.56 1741.77 1086.05 Q1741.77 1088.18 1740.96 1090.1 Q1740.17 1092 1738.07 1094.59 Q1737.49 1095.26 1734.39 1098.48 Q1731.29 1101.68 1725.64 1107.44 Z" fill="#000000" fill-rule="nonzero" fill-opacity="1" /><path clip-path="url(#clip480)" d="M1764.62 1080.89 L1752.81 1099.34 L1764.62 1099.34 L1764.62 1080.89 M1763.39 1076.82 L1769.27 1076.82 L1769.27 1099.34 L1774.2 1099.34 L1774.2 1103.23 L1769.27 1103.23 L1769.27 1111.38 L1764.62 1111.38 L1764.62 1103.23 L1749.02 1103.23 L1749.02 1098.71 L1763.39 1076.82 Z" fill="#000000" fill-rule="nonzero" fill-opacity="1" /><path clip-path="url(#clip480)" d="M1779.18 1096.49 L1791.66 1096.49 L1791.66 1100.29 L1779.18 1100.29 L1779.18 1096.49 Z" fill="#000000" fill-rule="nonzero" fill-opacity="1" /><path clip-path="url(#clip480)" d="M1809.04 1079.89 Q1805.43 1079.89 1803.6 1083.46 Q1801.79 1087 1801.79 1094.13 Q1801.79 1101.24 1803.6 1104.8 Q1805.43 1108.34 1809.04 1108.34 Q1812.67 1108.34 1814.48 1104.8 Q1816.31 1101.24 1816.31 1094.13 Q1816.31 1087 1814.48 1083.46 Q1812.67 1079.89 1809.04 1079.89 M1809.04 1076.19 Q1814.85 1076.19 1817.9 1080.8 Q1820.98 1085.38 1820.98 1094.13 Q1820.98 1102.86 1817.9 1107.46 Q1814.85 1112.05 1809.04 1112.05 Q1803.23 1112.05 1800.15 1107.46 Q1797.09 1102.86 1797.09 1094.13 Q1797.09 1085.38 1800.15 1080.8 Q1803.23 1076.19 1809.04 1076.19 Z" fill="#000000" fill-rule="nonzero" fill-opacity="1" /><path clip-path="url(#clip480)" d="M1839.2 1094.96 Q1835.87 1094.96 1833.95 1096.75 Q1832.05 1098.53 1832.05 1101.65 Q1832.05 1104.78 1833.95 1106.56 Q1835.87 1108.34 1839.2 1108.34 Q1842.53 1108.34 1844.46 1106.56 Q1846.38 1104.76 1846.38 1101.65 Q1846.38 1098.53 1844.46 1096.75 Q1842.56 1094.96 1839.2 1094.96 M1834.53 1092.97 Q1831.52 1092.23 1829.83 1090.17 Q1828.16 1088.11 1828.16 1085.15 Q1828.16 1081.01 1831.1 1078.6 Q1834.06 1076.19 1839.2 1076.19 Q1844.36 1076.19 1847.3 1078.6 Q1850.24 1081.01 1850.24 1085.15 Q1850.24 1088.11 1848.55 1090.17 Q1846.89 1092.23 1843.9 1092.97 Q1847.28 1093.76 1849.15 1096.05 Q1851.05 1098.34 1851.05 1101.65 Q1851.05 1106.68 1847.97 1109.36 Q1844.92 1112.05 1839.2 1112.05 Q1833.48 1112.05 1830.4 1109.36 Q1827.35 1106.68 1827.35 1101.65 Q1827.35 1098.34 1829.25 1096.05 Q1831.15 1093.76 1834.53 1092.97 M1832.81 1085.59 Q1832.81 1088.27 1834.48 1089.78 Q1836.17 1091.28 1839.2 1091.28 Q1842.21 1091.28 1843.9 1089.78 Q1845.61 1088.27 1845.61 1085.59 Q1845.61 1082.9 1843.9 1081.4 Q1842.21 1079.89 1839.2 1079.89 Q1836.17 1079.89 1834.48 1081.4 Q1832.81 1082.9 1832.81 1085.59 Z" fill="#000000" fill-rule="nonzero" fill-opacity="1" /><path clip-path="url(#clip480)" d="M1856.61 1096.49 L1869.09 1096.49 L1869.09 1100.29 L1856.61 1100.29 L1856.61 1096.49 Z" fill="#000000" fill-rule="nonzero" fill-opacity="1" /><path clip-path="url(#clip480)" d="M1886.47 1079.89 Q1882.86 1079.89 1881.03 1083.46 Q1879.22 1087 1879.22 1094.13 Q1879.22 1101.24 1881.03 1104.8 Q1882.86 1108.34 1886.47 1108.34 Q1890.1 1108.34 1891.91 1104.8 Q1893.74 1101.24 1893.74 1094.13 Q1893.74 1087 1891.91 1083.46 Q1890.1 1079.89 1886.47 1079.89 M1886.47 1076.19 Q1892.28 1076.19 1895.34 1080.8 Q1898.41 1085.38 1898.41 1094.13 Q1898.41 1102.86 1895.34 1107.46 Q1892.28 1112.05 1886.47 1112.05 Q1880.66 1112.05 1877.58 1107.46 Q1874.52 1102.86 1874.52 1094.13 Q1874.52 1085.38 1877.58 1080.8 Q1880.66 1076.19 1886.47 1076.19 Z" fill="#000000" fill-rule="nonzero" fill-opacity="1" /><path clip-path="url(#clip480)" d="M1907.44 1107.44 L1915.08 1107.44 L1915.08 1081.07 L1906.77 1082.74 L1906.77 1078.48 L1915.03 1076.82 L1919.71 1076.82 L1919.71 1107.44 L1927.35 1107.44 L1927.35 1111.38 L1907.44 1111.38 L1907.44 1107.44 Z" fill="#000000" fill-rule="nonzero" fill-opacity="1" /><path clip-path="url(#clip480)" d="M2538.87 1107.44 L2555.19 1107.44 L2555.19 1111.38 L2533.24 1111.38 L2533.24 1107.44 Q2535.91 1104.69 2540.49 1100.06 Q2545.1 1095.4 2546.28 1094.06 Q2548.52 1091.54 2549.4 1089.8 Q2550.3 1088.04 2550.3 1086.35 Q2550.3 1083.6 2548.36 1081.86 Q2546.44 1080.13 2543.34 1080.13 Q2541.14 1080.13 2538.68 1080.89 Q2536.25 1081.65 2533.48 1083.2 L2533.48 1078.48 Q2536.3 1077.35 2538.75 1076.77 Q2541.21 1076.19 2543.24 1076.19 Q2548.62 1076.19 2551.81 1078.88 Q2555 1081.56 2555 1086.05 Q2555 1088.18 2554.19 1090.1 Q2553.41 1092 2551.3 1094.59 Q2550.72 1095.26 2547.62 1098.48 Q2544.52 1101.68 2538.87 1107.44 Z" fill="#000000" fill-rule="nonzero" fill-opacity="1" /><path clip-path="url(#clip480)" d="M2575 1079.89 Q2571.39 1079.89 2569.56 1083.46 Q2567.76 1087 2567.76 1094.13 Q2567.76 1101.24 2569.56 1104.8 Q2571.39 1108.34 2575 1108.34 Q2578.64 1108.34 2580.44 1104.8 Q2582.27 1101.24 2582.27 1094.13 Q2582.27 1087 2580.44 1083.46 Q2578.64 1079.89 2575 1079.89 M2575 1076.19 Q2580.81 1076.19 2583.87 1080.8 Q2586.95 1085.38 2586.95 1094.13 Q2586.95 1102.86 2583.87 1107.46 Q2580.81 1112.05 2575 1112.05 Q2569.19 1112.05 2566.11 1107.46 Q2563.06 1102.86 2563.06 1094.13 Q2563.06 1085.38 2566.11 1080.8 Q2569.19 1076.19 2575 1076.19 Z" fill="#000000" fill-rule="nonzero" fill-opacity="1" /><path clip-path="url(#clip480)" d="M2599.19 1107.44 L2615.51 1107.44 L2615.51 1111.38 L2593.57 1111.38 L2593.57 1107.44 Q2596.23 1104.69 2600.81 1100.06 Q2605.42 1095.4 2606.6 1094.06 Q2608.85 1091.54 2609.73 1089.8 Q2610.63 1088.04 2610.63 1086.35 Q2610.63 1083.6 2608.68 1081.86 Q2606.76 1080.13 2603.66 1080.13 Q2601.46 1080.13 2599.01 1080.89 Q2596.58 1081.65 2593.8 1083.2 L2593.8 1078.48 Q2596.62 1077.35 2599.08 1076.77 Q2601.53 1076.19 2603.57 1076.19 Q2608.94 1076.19 2612.13 1078.88 Q2615.33 1081.56 2615.33 1086.05 Q2615.33 1088.18 2614.52 1090.1 Q2613.73 1092 2611.62 1094.59 Q2611.05 1095.26 2607.94 1098.48 Q2604.84 1101.68 2599.19 1107.44 Z" fill="#000000" fill-rule="nonzero" fill-opacity="1" /><path clip-path="url(#clip480)" d="M2638.17 1080.89 L2626.37 1099.34 L2638.17 1099.34 L2638.17 1080.89 M2636.95 1076.82 L2642.83 1076.82 L2642.83 1099.34 L2647.76 1099.34 L2647.76 1103.23 L2642.83 1103.23 L2642.83 1111.38 L2638.17 1111.38 L2638.17 1103.23 L2622.57 1103.23 L2622.57 1098.71 L2636.95 1076.82 Z" fill="#000000" fill-rule="nonzero" fill-opacity="1" /><path clip-path="url(#clip480)" d="M2652.73 1096.49 L2665.21 1096.49 L2665.21 1100.29 L2652.73 1100.29 L2652.73 1096.49 Z" fill="#000000" fill-rule="nonzero" fill-opacity="1" /><path clip-path="url(#clip480)" d="M2682.6 1079.89 Q2678.98 1079.89 2677.16 1083.46 Q2675.35 1087 2675.35 1094.13 Q2675.35 1101.24 2677.16 1104.8 Q2678.98 1108.34 2682.6 1108.34 Q2686.23 1108.34 2688.04 1104.8 Q2689.86 1101.24 2689.86 1094.13 Q2689.86 1087 2688.04 1083.46 Q2686.23 1079.89 2682.6 1079.89 M2682.6 1076.19 Q2688.41 1076.19 2691.46 1080.8 Q2694.54 1085.38 2694.54 1094.13 Q2694.54 1102.86 2691.46 1107.46 Q2688.41 1112.05 2682.6 1112.05 Q2676.79 1112.05 2673.71 1107.46 Q2670.65 1102.86 2670.65 1094.13 Q2670.65 1085.38 2673.71 1080.8 Q2676.79 1076.19 2682.6 1076.19 Z" fill="#000000" fill-rule="nonzero" fill-opacity="1" /><path clip-path="url(#clip480)" d="M2702.9 1110.66 L2702.9 1106.4 Q2704.66 1107.23 2706.46 1107.67 Q2708.27 1108.11 2710 1108.11 Q2714.63 1108.11 2717.06 1105.01 Q2719.52 1101.89 2719.86 1095.54 Q2718.52 1097.53 2716.46 1098.6 Q2714.4 1099.66 2711.9 1099.66 Q2706.72 1099.66 2703.68 1096.54 Q2700.67 1093.39 2700.67 1087.95 Q2700.67 1082.63 2703.82 1079.41 Q2706.97 1076.19 2712.2 1076.19 Q2718.2 1076.19 2721.35 1080.8 Q2724.52 1085.38 2724.52 1094.13 Q2724.52 1102.3 2720.63 1107.19 Q2716.76 1112.05 2710.21 1112.05 Q2708.45 1112.05 2706.65 1111.7 Q2704.84 1111.35 2702.9 1110.66 M2712.2 1096.01 Q2715.35 1096.01 2717.18 1093.85 Q2719.03 1091.7 2719.03 1087.95 Q2719.03 1084.22 2717.18 1082.07 Q2715.35 1079.89 2712.2 1079.89 Q2709.05 1079.89 2707.2 1082.07 Q2705.37 1084.22 2705.37 1087.95 Q2705.37 1091.7 2707.2 1093.85 Q2709.05 1096.01 2712.2 1096.01 Z" fill="#000000" fill-rule="nonzero" fill-opacity="1" /><path clip-path="url(#clip480)" d="M2730.17 1096.49 L2742.64 1096.49 L2742.64 1100.29 L2730.17 1100.29 L2730.17 1096.49 Z" fill="#000000" fill-rule="nonzero" fill-opacity="1" /><path clip-path="url(#clip480)" d="M2760.03 1079.89 Q2756.41 1079.89 2754.59 1083.46 Q2752.78 1087 2752.78 1094.13 Q2752.78 1101.24 2754.59 1104.8 Q2756.41 1108.34 2760.03 1108.34 Q2763.66 1108.34 2765.47 1104.8 Q2767.29 1101.24 2767.29 1094.13 Q2767.29 1087 2765.47 1083.46 Q2763.66 1079.89 2760.03 1079.89 M2760.03 1076.19 Q2765.84 1076.19 2768.89 1080.8 Q2771.97 1085.38 2771.97 1094.13 Q2771.97 1102.86 2768.89 1107.46 Q2765.84 1112.05 2760.03 1112.05 Q2754.22 1112.05 2751.14 1107.46 Q2748.08 1102.86 2748.08 1094.13 Q2748.08 1085.38 2751.14 1080.8 Q2754.22 1076.19 2760.03 1076.19 Z" fill="#000000" fill-rule="nonzero" fill-opacity="1" /><path clip-path="url(#clip480)" d="M2781 1107.44 L2788.64 1107.44 L2788.64 1081.07 L2780.33 1082.74 L2780.33 1078.48 L2788.59 1076.82 L2793.27 1076.82 L2793.27 1107.44 L2800.91 1107.44 L2800.91 1111.38 L2781 1111.38 L2781 1107.44 Z" fill="#000000" fill-rule="nonzero" fill-opacity="1" /><polyline clip-path="url(#clip482)" style="stroke:#000000; stroke-linecap:round; stroke-linejoin:round; stroke-width:2; stroke-opacity:0.1; fill:none" points="271.839,1042.58 3089.76,1042.58 "/>
<polyline clip-path="url(#clip482)" style="stroke:#000000; stroke-linecap:round; stroke-linejoin:round; stroke-width:2; stroke-opacity:0.1; fill:none" points="271.839,532.005 3089.76,532.005 "/>
<polyline clip-path="url(#clip480)" style="stroke:#000000; stroke-linecap:round; stroke-linejoin:round; stroke-width:4; stroke-opacity:1; fill:none" points="271.839,1042.58 271.839,110.236 "/>
<polyline clip-path="url(#clip480)" style="stroke:#000000; stroke-linecap:round; stroke-linejoin:round; stroke-width:4; stroke-opacity:1; fill:none" points="271.839,1042.58 290.737,1042.58 "/>
<polyline clip-path="url(#clip480)" style="stroke:#000000; stroke-linecap:round; stroke-linejoin:round; stroke-width:4; stroke-opacity:1; fill:none" points="271.839,532.005 290.737,532.005 "/>
<path clip-path="url(#clip480)" d="M153.134 1062.37 L160.772 1062.37 L160.772 1036 L152.462 1037.67 L152.462 1033.41 L160.726 1031.74 L165.402 1031.74 L165.402 1062.37 L173.041 1062.37 L173.041 1066.3 L153.134 1066.3 L153.134 1062.37 Z" fill="#000000" fill-rule="nonzero" fill-opacity="1" /><path clip-path="url(#clip480)" d="M192.485 1034.82 Q188.874 1034.82 187.045 1038.39 Q185.24 1041.93 185.24 1049.06 Q185.24 1056.16 187.045 1059.73 Q188.874 1063.27 192.485 1063.27 Q196.119 1063.27 197.925 1059.73 Q199.754 1056.16 199.754 1049.06 Q199.754 1041.93 197.925 1038.39 Q196.119 1034.82 192.485 1034.82 M192.485 1031.12 Q198.295 1031.12 201.351 1035.72 Q204.43 1040.31 204.43 1049.06 Q204.43 1057.78 201.351 1062.39 Q198.295 1066.97 192.485 1066.97 Q186.675 1066.97 183.596 1062.39 Q180.541 1057.78 180.541 1049.06 Q180.541 1040.31 183.596 1035.72 Q186.675 1031.12 192.485 1031.12 Z" fill="#000000" fill-rule="nonzero" fill-opacity="1" /><path clip-path="url(#clip480)" d="M214.134 1013.31 Q211.2 1013.31 209.715 1016.21 Q208.248 1019.09 208.248 1024.88 Q208.248 1030.66 209.715 1033.55 Q211.2 1036.43 214.134 1036.43 Q217.087 1036.43 218.554 1033.55 Q220.04 1030.66 220.04 1024.88 Q220.04 1019.09 218.554 1016.21 Q217.087 1013.31 214.134 1013.31 M214.134 1010.31 Q218.855 1010.31 221.338 1014.05 Q223.839 1017.77 223.839 1024.88 Q223.839 1031.97 221.338 1035.71 Q218.855 1039.44 214.134 1039.44 Q209.414 1039.44 206.912 1035.71 Q204.43 1031.97 204.43 1024.88 Q204.43 1017.77 206.912 1014.05 Q209.414 1010.31 214.134 1010.31 Z" fill="#000000" fill-rule="nonzero" fill-opacity="1" /><path clip-path="url(#clip480)" d="M155.823 551.798 L163.462 551.798 L163.462 525.432 L155.152 527.099 L155.152 522.84 L163.416 521.173 L168.092 521.173 L168.092 551.798 L175.73 551.798 L175.73 555.733 L155.823 555.733 L155.823 551.798 Z" fill="#000000" fill-rule="nonzero" fill-opacity="1" /><path clip-path="url(#clip480)" d="M195.175 524.252 Q191.564 524.252 189.735 527.817 Q187.929 531.358 187.929 538.488 Q187.929 545.594 189.735 549.159 Q191.564 552.701 195.175 552.701 Q198.809 552.701 200.615 549.159 Q202.443 545.594 202.443 538.488 Q202.443 531.358 200.615 527.817 Q198.809 524.252 195.175 524.252 M195.175 520.548 Q200.985 520.548 204.04 525.155 Q207.119 529.738 207.119 538.488 Q207.119 547.215 204.04 551.821 Q200.985 556.404 195.175 556.404 Q189.365 556.404 186.286 551.821 Q183.23 547.215 183.23 538.488 Q183.23 529.738 186.286 525.155 Q189.365 520.548 195.175 520.548 Z" fill="#000000" fill-rule="nonzero" fill-opacity="1" /><path clip-path="url(#clip480)" d="M207.665 525.125 L213.871 525.125 L213.871 503.703 L207.119 505.057 L207.119 501.597 L213.833 500.243 L217.633 500.243 L217.633 525.125 L223.839 525.125 L223.839 528.323 L207.665 528.323 L207.665 525.125 Z" fill="#000000" fill-rule="nonzero" fill-opacity="1" /><path clip-path="url(#clip480)" d="M83.4268 946.62 L70.6636 946.62 L70.6636 957.123 L65.38 957.123 L65.38 940.254 L85.7821 940.254 Q88.4239 943.978 89.7925 948.466 Q91.1293 952.953 91.1293 958.046 Q91.1293 969.186 84.6363 975.488 Q78.1114 981.758 66.494 981.758 Q54.8448 981.758 48.3518 975.488 Q41.8269 969.186 41.8269 958.046 Q41.8269 953.399 42.9727 949.23 Q44.1186 945.028 46.3466 941.495 L53.1897 941.495 Q50.166 945.06 48.6382 949.07 Q47.1104 953.081 47.1104 957.505 Q47.1104 966.226 51.9802 970.618 Q56.85 974.979 66.494 974.979 Q76.1062 974.979 80.976 970.618 Q85.8458 966.226 85.8458 957.505 Q85.8458 954.099 85.2729 951.426 Q84.6681 948.752 83.4268 946.62 Z" fill="#000000" fill-rule="nonzero" fill-opacity="1" /><path clip-path="url(#clip480)" d="M70.9182 898.272 L73.7828 898.272 L73.7828 925.199 Q79.8302 924.817 83.013 921.571 Q86.1641 918.292 86.1641 912.468 Q86.1641 909.094 85.3365 905.943 Q84.509 902.76 82.8539 899.641 L88.3921 899.641 Q89.7289 902.792 90.4291 906.102 Q91.1293 909.412 91.1293 912.818 Q91.1293 921.348 86.1641 926.345 Q81.1988 931.31 72.7324 931.31 Q63.9796 931.31 58.8552 926.599 Q53.699 921.857 53.699 913.836 Q53.699 906.643 58.3459 902.473 Q62.9611 898.272 70.9182 898.272 M69.1995 904.128 Q64.3933 904.192 61.5288 906.834 Q58.6642 909.444 58.6642 913.773 Q58.6642 918.674 61.4333 921.634 Q64.2024 924.562 69.2313 925.008 L69.1995 904.128 Z" fill="#000000" fill-rule="nonzero" fill-opacity="1" /><path clip-path="url(#clip480)" d="M68.6902 859.027 L90.2063 859.027 L90.2063 864.884 L68.8812 864.884 Q63.8204 864.884 61.306 866.857 Q58.7915 868.831 58.7915 872.777 Q58.7915 877.52 61.8152 880.257 Q64.8389 882.994 70.0588 882.994 L90.2063 882.994 L90.2063 888.883 L54.5583 888.883 L54.5583 882.994 L60.0965 882.994 Q56.8818 880.894 55.2904 878.061 Q53.699 875.196 53.699 871.472 Q53.699 865.329 57.5184 862.178 Q61.306 859.027 68.6902 859.027 Z" fill="#000000" fill-rule="nonzero" fill-opacity="1" /><path clip-path="url(#clip480)" d="M58.6642 833.533 Q58.6642 838.243 62.3563 840.981 Q66.0166 843.718 72.4141 843.718 Q78.8117 843.718 82.5038 841.012 Q86.1641 838.275 86.1641 833.533 Q86.1641 828.854 82.4719 826.117 Q78.7798 823.379 72.4141 823.379 Q66.0803 823.379 62.3881 826.117 Q58.6642 828.854 58.6642 833.533 M53.699 833.533 Q53.699 825.894 58.6642 821.533 Q63.6295 817.173 72.4141 817.173 Q81.167 817.173 86.1641 821.533 Q91.1293 825.894 91.1293 833.533 Q91.1293 841.203 86.1641 845.564 Q81.167 849.893 72.4141 849.893 Q63.6295 849.893 58.6642 845.564 Q53.699 841.203 53.699 833.533 Z" fill="#000000" fill-rule="nonzero" fill-opacity="1" /><path clip-path="url(#clip480)" d="M61.4015 779.711 Q57.4547 777.515 55.5768 774.459 Q53.699 771.403 53.699 767.266 Q53.699 761.696 57.6139 758.672 Q61.4969 755.648 68.6902 755.648 L90.2063 755.648 L90.2063 761.537 L68.8812 761.537 Q63.7568 761.537 61.2741 763.351 Q58.7915 765.165 58.7915 768.889 Q58.7915 773.441 61.8152 776.082 Q64.8389 778.724 70.0588 778.724 L90.2063 778.724 L90.2063 784.612 L68.8812 784.612 Q63.7249 784.612 61.2741 786.427 Q58.7915 788.241 58.7915 792.028 Q58.7915 796.516 61.8471 799.158 Q64.8708 801.8 70.0588 801.8 L90.2063 801.8 L90.2063 807.688 L54.5583 807.688 L54.5583 801.8 L60.0965 801.8 Q56.8182 799.795 55.2586 796.994 Q53.699 794.193 53.699 790.341 Q53.699 786.458 55.6723 783.753 Q57.6457 781.016 61.4015 779.711 Z" fill="#000000" fill-rule="nonzero" fill-opacity="1" /><path clip-path="url(#clip480)" d="M70.9182 713.476 L73.7828 713.476 L73.7828 740.403 Q79.8302 740.021 83.013 736.774 Q86.1641 733.496 86.1641 727.671 Q86.1641 724.297 85.3365 721.146 Q84.509 717.963 82.8539 714.844 L88.3921 714.844 Q89.7289 717.995 90.4291 721.305 Q91.1293 724.616 91.1293 728.021 Q91.1293 736.551 86.1641 741.548 Q81.1988 746.514 72.7324 746.514 Q63.9796 746.514 58.8552 741.803 Q53.699 737.061 53.699 729.04 Q53.699 721.846 58.3459 717.677 Q62.9611 713.476 70.9182 713.476 M69.1995 719.332 Q64.3933 719.396 61.5288 722.037 Q58.6642 724.647 58.6642 728.976 Q58.6642 733.878 61.4333 736.838 Q64.2024 739.766 69.2313 740.212 L69.1995 719.332 Z" fill="#000000" fill-rule="nonzero" fill-opacity="1" /><path clip-path="url(#clip480)" d="M55.6087 681.138 L61.1468 681.138 Q59.8737 683.62 59.2371 686.294 Q58.6006 688.968 58.6006 691.832 Q58.6006 696.193 59.9373 698.389 Q61.2741 700.553 63.9477 700.553 Q65.9848 700.553 67.1624 698.994 Q68.3083 697.434 69.3586 692.723 L69.8042 690.718 Q71.141 684.48 73.5918 681.87 Q76.0108 679.228 80.3713 679.228 Q85.3365 679.228 88.2329 683.175 Q91.1293 687.09 91.1293 693.965 Q91.1293 696.829 90.5564 699.948 Q90.0153 703.036 88.9013 706.473 L82.8539 706.473 Q84.5408 703.227 85.4002 700.076 Q86.2277 696.925 86.2277 693.837 Q86.2277 689.7 84.8273 687.472 Q83.395 685.244 80.8169 685.244 Q78.4297 685.244 77.1566 686.867 Q75.8834 688.458 74.7058 693.901 L74.2284 695.938 Q73.0825 701.381 70.7272 703.8 Q68.3401 706.219 64.2024 706.219 Q59.1735 706.219 56.4362 702.654 Q53.699 699.089 53.699 692.532 Q53.699 689.286 54.1764 686.421 Q54.6538 683.557 55.6087 681.138 Z" fill="#000000" fill-rule="nonzero" fill-opacity="1" /><path clip-path="url(#clip480)" d="M42.6863 659.494 L42.6863 654.084 L96.2537 670.634 L96.2537 676.045 L42.6863 659.494 Z" fill="#000000" fill-rule="nonzero" fill-opacity="1" /><path clip-path="url(#clip480)" d="M47.9698 641.257 L84.9227 641.257 L84.9227 633.49 Q84.9227 623.655 80.4668 619.104 Q76.0108 614.521 66.3985 614.521 Q56.85 614.521 52.4258 619.104 Q47.9698 623.655 47.9698 633.49 L47.9698 641.257 M42.6863 647.686 L42.6863 634.477 Q42.6863 620.664 48.4472 614.202 Q54.1764 607.741 66.3985 607.741 Q78.6844 607.741 84.4453 614.234 Q90.2063 620.727 90.2063 634.477 L90.2063 647.686 L42.6863 647.686 Z" fill="#000000" fill-rule="nonzero" fill-opacity="1" /><path clip-path="url(#clip480)" d="M72.2868 581.546 Q72.2868 588.644 73.9101 591.381 Q75.5333 594.119 79.4482 594.119 Q82.5674 594.119 84.4135 592.082 Q86.2277 590.013 86.2277 586.48 Q86.2277 581.61 82.7902 578.682 Q79.3209 575.722 73.5918 575.722 L72.2868 575.722 L72.2868 581.546 M69.8679 569.865 L90.2063 569.865 L90.2063 575.722 L84.7954 575.722 Q88.0419 577.727 89.6015 580.719 Q91.1293 583.711 91.1293 588.039 Q91.1293 593.514 88.0738 596.76 Q84.9864 599.975 79.8302 599.975 Q73.8146 599.975 70.759 595.965 Q67.7035 591.922 67.7035 583.933 L67.7035 575.722 L67.1306 575.722 Q63.0884 575.722 60.8922 578.395 Q58.6642 581.037 58.6642 585.843 Q58.6642 588.899 59.3963 591.795 Q60.1283 594.691 61.5924 597.365 L56.1816 597.365 Q54.9403 594.15 54.3355 591.127 Q53.699 588.103 53.699 585.238 Q53.699 577.504 57.7094 573.685 Q61.7197 569.865 69.8679 569.865 Z" fill="#000000" fill-rule="nonzero" fill-opacity="1" /><path clip-path="url(#clip480)" d="M93.5165 542.97 Q99.8822 545.453 101.824 547.808 Q103.765 550.163 103.765 554.11 L103.765 558.789 L98.8636 558.789 L98.8636 555.351 Q98.8636 552.932 97.7178 551.596 Q96.572 550.259 92.307 548.636 L89.6334 547.585 L54.5583 562.004 L54.5583 555.797 L82.4401 544.657 L54.5583 533.517 L54.5583 527.31 L93.5165 542.97 Z" fill="#000000" fill-rule="nonzero" fill-opacity="1" /><path clip-path="url(#clip480)" d="M40.7447 484.437 Q48.0653 488.702 55.2267 490.771 Q62.3881 492.84 69.7405 492.84 Q77.0929 492.84 84.318 490.771 Q91.5113 488.671 98.8 484.437 L98.8 489.53 Q91.3203 494.304 84.0952 496.691 Q76.8701 499.047 69.7405 499.047 Q62.6428 499.047 55.4495 496.691 Q48.2563 494.336 40.7447 489.53 L40.7447 484.437 Z" fill="#000000" fill-rule="nonzero" fill-opacity="1" /><path clip-path="url(#clip480)" d="M49.0202 456.938 L72.6688 465.659 L72.6688 448.185 L49.0202 456.938 M42.6863 460.566 L42.6863 453.277 L90.2063 435.167 L90.2063 441.851 L78.016 446.18 L78.016 467.6 L90.2063 471.929 L90.2063 478.708 L42.6863 460.566 Z" fill="#000000" fill-rule="nonzero" fill-opacity="1" /><path clip-path="url(#clip480)" d="M76.1381 429.088 L54.5583 429.088 L54.5583 423.231 L75.9153 423.231 Q80.976 423.231 83.5223 421.258 Q86.0367 419.284 86.0367 415.338 Q86.0367 410.595 83.013 407.858 Q79.9893 405.089 74.7694 405.089 L54.5583 405.089 L54.5583 399.232 L90.2063 399.232 L90.2063 405.089 L84.7318 405.089 Q87.9783 407.221 89.5697 410.054 Q91.1293 412.855 91.1293 416.579 Q91.1293 422.722 87.3099 425.905 Q83.4905 429.088 76.1381 429.088 M53.699 414.351 L53.699 414.351 Z" fill="#000000" fill-rule="nonzero" fill-opacity="1" /><path clip-path="url(#clip480)" d="M55.6087 364.444 L61.1468 364.444 Q59.8737 366.926 59.2371 369.6 Q58.6006 372.274 58.6006 375.138 Q58.6006 379.499 59.9373 381.695 Q61.2741 383.859 63.9477 383.859 Q65.9848 383.859 67.1624 382.3 Q68.3083 380.74 69.3586 376.029 L69.8042 374.024 Q71.141 367.786 73.5918 365.176 Q76.0108 362.534 80.3713 362.534 Q85.3365 362.534 88.2329 366.481 Q91.1293 370.396 91.1293 377.271 Q91.1293 380.135 90.5564 383.255 Q90.0153 386.342 88.9013 389.779 L82.8539 389.779 Q84.5408 386.533 85.4002 383.382 Q86.2277 380.231 86.2277 377.143 Q86.2277 373.006 84.8273 370.778 Q83.395 368.55 80.8169 368.55 Q78.4297 368.55 77.1566 370.173 Q75.8834 371.764 74.7058 377.207 L74.2284 379.244 Q73.0825 384.687 70.7272 387.106 Q68.3401 389.525 64.2024 389.525 Q59.1735 389.525 56.4362 385.96 Q53.699 382.395 53.699 375.838 Q53.699 372.592 54.1764 369.727 Q54.6538 366.863 55.6087 364.444 Z" fill="#000000" fill-rule="nonzero" fill-opacity="1" /><path clip-path="url(#clip480)" d="M44.4369 347.416 L54.5583 347.416 L54.5583 335.353 L59.1098 335.353 L59.1098 347.416 L78.4616 347.416 Q82.8221 347.416 84.0634 346.238 Q85.3047 345.028 85.3047 341.368 L85.3047 335.353 L90.2063 335.353 L90.2063 341.368 Q90.2063 348.148 87.6918 350.726 Q85.1455 353.304 78.4616 353.304 L59.1098 353.304 L59.1098 357.601 L54.5583 357.601 L54.5583 353.304 L44.4369 353.304 L44.4369 347.416 Z" fill="#000000" fill-rule="nonzero" fill-opacity="1" /><path clip-path="url(#clip480)" d="M60.0328 306.993 Q59.4599 307.98 59.2053 309.158 Q58.9188 310.304 58.9188 311.704 Q58.9188 316.669 62.1653 319.343 Q65.38 321.985 71.4274 321.985 L90.2063 321.985 L90.2063 327.873 L54.5583 327.873 L54.5583 321.985 L60.0965 321.985 Q56.85 320.139 55.2904 317.178 Q53.699 314.218 53.699 309.985 Q53.699 309.381 53.7944 308.648 Q53.8581 307.916 54.0172 307.025 L60.0328 306.993 Z" fill="#000000" fill-rule="nonzero" fill-opacity="1" /><path clip-path="url(#clip480)" d="M72.2868 284.65 Q72.2868 291.747 73.9101 294.485 Q75.5333 297.222 79.4482 297.222 Q82.5674 297.222 84.4135 295.185 Q86.2277 293.116 86.2277 289.583 Q86.2277 284.713 82.7902 281.785 Q79.3209 278.825 73.5918 278.825 L72.2868 278.825 L72.2868 284.65 M69.8679 272.969 L90.2063 272.969 L90.2063 278.825 L84.7954 278.825 Q88.0419 280.83 89.6015 283.822 Q91.1293 286.814 91.1293 291.143 Q91.1293 296.617 88.0738 299.864 Q84.9864 303.078 79.8302 303.078 Q73.8146 303.078 70.759 299.068 Q67.7035 295.026 67.7035 287.037 L67.7035 278.825 L67.1306 278.825 Q63.0884 278.825 60.8922 281.499 Q58.6642 284.14 58.6642 288.947 Q58.6642 292.002 59.3963 294.899 Q60.1283 297.795 61.5924 300.469 L56.1816 300.469 Q54.9403 297.254 54.3355 294.23 Q53.699 291.206 53.699 288.342 Q53.699 280.608 57.7094 276.788 Q61.7197 272.969 69.8679 272.969 Z" fill="#000000" fill-rule="nonzero" fill-opacity="1" /><path clip-path="url(#clip480)" d="M40.6811 260.906 L40.6811 255.049 L90.2063 255.049 L90.2063 260.906 L40.6811 260.906 Z" fill="#000000" fill-rule="nonzero" fill-opacity="1" /><path clip-path="url(#clip480)" d="M54.5583 242.795 L54.5583 236.939 L90.2063 236.939 L90.2063 242.795 L54.5583 242.795 M40.6811 242.795 L40.6811 236.939 L48.0971 236.939 L48.0971 242.795 L40.6811 242.795 Z" fill="#000000" fill-rule="nonzero" fill-opacity="1" /><path clip-path="url(#clip480)" d="M72.2868 208.484 Q72.2868 215.582 73.9101 218.319 Q75.5333 221.056 79.4482 221.056 Q82.5674 221.056 84.4135 219.019 Q86.2277 216.95 86.2277 213.417 Q86.2277 208.548 82.7902 205.619 Q79.3209 202.659 73.5918 202.659 L72.2868 202.659 L72.2868 208.484 M69.8679 196.803 L90.2063 196.803 L90.2063 202.659 L84.7954 202.659 Q88.0419 204.665 89.6015 207.657 Q91.1293 210.648 91.1293 214.977 Q91.1293 220.452 88.0738 223.698 Q84.9864 226.913 79.8302 226.913 Q73.8146 226.913 70.759 222.902 Q67.7035 218.86 67.7035 210.871 L67.7035 202.659 L67.1306 202.659 Q63.0884 202.659 60.8922 205.333 Q58.6642 207.975 58.6642 212.781 Q58.6642 215.836 59.3963 218.733 Q60.1283 221.629 61.5924 224.303 L56.1816 224.303 Q54.9403 221.088 54.3355 218.064 Q53.699 215.041 53.699 212.176 Q53.699 204.442 57.7094 200.622 Q61.7197 196.803 69.8679 196.803 Z" fill="#000000" fill-rule="nonzero" fill-opacity="1" /><path clip-path="url(#clip480)" d="M40.7447 185.663 L40.7447 180.57 Q48.2563 175.796 55.4495 173.441 Q62.6428 171.054 69.7405 171.054 Q76.8701 171.054 84.0952 173.441 Q91.3203 175.796 98.8 180.57 L98.8 185.663 Q91.5113 181.43 84.318 179.361 Q77.0929 177.26 69.7405 177.26 Q62.3881 177.26 55.2267 179.361 Q48.0653 181.43 40.7447 185.663 Z" fill="#000000" fill-rule="nonzero" fill-opacity="1" /><path clip-path="url(#clip482)" d="M288.747 184.184 L288.747 1042.58 L311.29 1042.58 L311.29 184.184 L288.747 184.184 L288.747 184.184  Z" fill="#009af9" fill-rule="evenodd" fill-opacity="0.5"/>
<polyline clip-path="url(#clip482)" style="stroke:#000000; stroke-linecap:round; stroke-linejoin:round; stroke-width:4; stroke-opacity:0.5; fill:none" points="288.747,184.184 288.747,1042.58 311.29,1042.58 311.29,184.184 288.747,184.184 "/>
<path clip-path="url(#clip482)" d="M316.926 281.131 L316.926 1042.58 L339.469 1042.58 L339.469 281.131 L316.926 281.131 L316.926 281.131  Z" fill="#009af9" fill-rule="evenodd" fill-opacity="0.5"/>
<polyline clip-path="url(#clip482)" style="stroke:#000000; stroke-linecap:round; stroke-linejoin:round; stroke-width:4; stroke-opacity:0.5; fill:none" points="316.926,281.131 316.926,1042.58 339.469,1042.58 339.469,281.131 316.926,281.131 "/>
<path clip-path="url(#clip482)" d="M345.105 193.621 L345.105 1042.58 L367.649 1042.58 L367.649 193.621 L345.105 193.621 L345.105 193.621  Z" fill="#009af9" fill-rule="evenodd" fill-opacity="0.5"/>
<polyline clip-path="url(#clip482)" style="stroke:#000000; stroke-linecap:round; stroke-linejoin:round; stroke-width:4; stroke-opacity:0.5; fill:none" points="345.105,193.621 345.105,1042.58 367.649,1042.58 367.649,193.621 345.105,193.621 "/>
<path clip-path="url(#clip482)" d="M373.285 230.225 L373.285 1042.58 L395.828 1042.58 L395.828 230.225 L373.285 230.225 L373.285 230.225  Z" fill="#009af9" fill-rule="evenodd" fill-opacity="0.5"/>
<polyline clip-path="url(#clip482)" style="stroke:#000000; stroke-linecap:round; stroke-linejoin:round; stroke-width:4; stroke-opacity:0.5; fill:none" points="373.285,230.225 373.285,1042.58 395.828,1042.58 395.828,230.225 373.285,230.225 "/>
<path clip-path="url(#clip482)" d="M401.464 166.435 L401.464 1042.58 L424.007 1042.58 L424.007 166.435 L401.464 166.435 L401.464 166.435  Z" fill="#009af9" fill-rule="evenodd" fill-opacity="0.5"/>
<polyline clip-path="url(#clip482)" style="stroke:#000000; stroke-linecap:round; stroke-linejoin:round; stroke-width:4; stroke-opacity:0.5; fill:none" points="401.464,166.435 401.464,1042.58 424.007,1042.58 424.007,166.435 401.464,166.435 "/>
<path clip-path="url(#clip482)" d="M429.643 260.648 L429.643 1042.58 L452.186 1042.58 L452.186 260.648 L429.643 260.648 L429.643 260.648  Z" fill="#009af9" fill-rule="evenodd" fill-opacity="0.5"/>
<polyline clip-path="url(#clip482)" style="stroke:#000000; stroke-linecap:round; stroke-linejoin:round; stroke-width:4; stroke-opacity:0.5; fill:none" points="429.643,260.648 429.643,1042.58 452.186,1042.58 452.186,260.648 429.643,260.648 "/>
<path clip-path="url(#clip482)" d="M457.822 203.478 L457.822 1042.58 L480.366 1042.58 L480.366 203.478 L457.822 203.478 L457.822 203.478  Z" fill="#009af9" fill-rule="evenodd" fill-opacity="0.5"/>
<polyline clip-path="url(#clip482)" style="stroke:#000000; stroke-linecap:round; stroke-linejoin:round; stroke-width:4; stroke-opacity:0.5; fill:none" points="457.822,203.478 457.822,1042.58 480.366,1042.58 480.366,203.478 457.822,203.478 "/>
<path clip-path="url(#clip482)" d="M486.001 166.435 L486.001 1042.58 L508.545 1042.58 L508.545 166.435 L486.001 166.435 L486.001 166.435  Z" fill="#009af9" fill-rule="evenodd" fill-opacity="0.5"/>
<polyline clip-path="url(#clip482)" style="stroke:#000000; stroke-linecap:round; stroke-linejoin:round; stroke-width:4; stroke-opacity:0.5; fill:none" points="486.001,166.435 486.001,1042.58 508.545,1042.58 508.545,166.435 486.001,166.435 "/>
<path clip-path="url(#clip482)" d="M514.181 134.705 L514.181 1042.58 L536.724 1042.58 L536.724 134.705 L514.181 134.705 L514.181 134.705  Z" fill="#009af9" fill-rule="evenodd" fill-opacity="0.5"/>
<polyline clip-path="url(#clip482)" style="stroke:#000000; stroke-linecap:round; stroke-linejoin:round; stroke-width:4; stroke-opacity:0.5; fill:none" points="514.181,134.705 514.181,1042.58 536.724,1042.58 536.724,134.705 514.181,134.705 "/>
<path clip-path="url(#clip482)" d="M542.36 110.236 L542.36 1042.58 L564.903 1042.58 L564.903 110.236 L542.36 110.236 L542.36 110.236  Z" fill="#009af9" fill-rule="evenodd" fill-opacity="0.5"/>
<polyline clip-path="url(#clip482)" style="stroke:#000000; stroke-linecap:round; stroke-linejoin:round; stroke-width:4; stroke-opacity:0.5; fill:none" points="542.36,110.236 542.36,1042.58 564.903,1042.58 564.903,110.236 542.36,110.236 "/>
<path clip-path="url(#clip482)" d="M570.539 134.705 L570.539 1042.58 L593.083 1042.58 L593.083 134.705 L570.539 134.705 L570.539 134.705  Z" fill="#009af9" fill-rule="evenodd" fill-opacity="0.5"/>
<polyline clip-path="url(#clip482)" style="stroke:#000000; stroke-linecap:round; stroke-linejoin:round; stroke-width:4; stroke-opacity:0.5; fill:none" points="570.539,134.705 570.539,1042.58 593.083,1042.58 593.083,134.705 570.539,134.705 "/>
<path clip-path="url(#clip482)" d="M598.718 188.852 L598.718 1042.58 L621.262 1042.58 L621.262 188.852 L598.718 188.852 L598.718 188.852  Z" fill="#009af9" fill-rule="evenodd" fill-opacity="0.5"/>
<polyline clip-path="url(#clip482)" style="stroke:#000000; stroke-linecap:round; stroke-linejoin:round; stroke-width:4; stroke-opacity:0.5; fill:none" points="598.718,188.852 598.718,1042.58 621.262,1042.58 621.262,188.852 598.718,188.852 "/>
<path clip-path="url(#clip482)" d="M626.898 170.741 L626.898 1042.58 L649.441 1042.58 L649.441 170.741 L626.898 170.741 L626.898 170.741  Z" fill="#009af9" fill-rule="evenodd" fill-opacity="0.5"/>
<polyline clip-path="url(#clip482)" style="stroke:#000000; stroke-linecap:round; stroke-linejoin:round; stroke-width:4; stroke-opacity:0.5; fill:none" points="626.898,170.741 626.898,1042.58 649.441,1042.58 649.441,170.741 626.898,170.741 "/>
<path clip-path="url(#clip482)" d="M655.077 254.22 L655.077 1042.58 L677.62 1042.58 L677.62 254.22 L655.077 254.22 L655.077 254.22  Z" fill="#009af9" fill-rule="evenodd" fill-opacity="0.5"/>
<polyline clip-path="url(#clip482)" style="stroke:#000000; stroke-linecap:round; stroke-linejoin:round; stroke-width:4; stroke-opacity:0.5; fill:none" points="655.077,254.22 655.077,1042.58 677.62,1042.58 677.62,254.22 655.077,254.22 "/>
<path clip-path="url(#clip482)" d="M683.256 219.136 L683.256 1042.58 L705.8 1042.58 L705.8 219.136 L683.256 219.136 L683.256 219.136  Z" fill="#009af9" fill-rule="evenodd" fill-opacity="0.5"/>
<polyline clip-path="url(#clip482)" style="stroke:#000000; stroke-linecap:round; stroke-linejoin:round; stroke-width:4; stroke-opacity:0.5; fill:none" points="683.256,219.136 683.256,1042.58 705.8,1042.58 705.8,219.136 683.256,219.136 "/>
<path clip-path="url(#clip482)" d="M711.435 235.985 L711.435 1042.58 L733.979 1042.58 L733.979 235.985 L711.435 235.985 L711.435 235.985  Z" fill="#009af9" fill-rule="evenodd" fill-opacity="0.5"/>
<polyline clip-path="url(#clip482)" style="stroke:#000000; stroke-linecap:round; stroke-linejoin:round; stroke-width:4; stroke-opacity:0.5; fill:none" points="711.435,235.985 711.435,1042.58 733.979,1042.58 733.979,235.985 711.435,235.985 "/>
<path clip-path="url(#clip482)" d="M739.615 224.612 L739.615 1042.58 L762.158 1042.58 L762.158 224.612 L739.615 224.612 L739.615 224.612  Z" fill="#009af9" fill-rule="evenodd" fill-opacity="0.5"/>
<polyline clip-path="url(#clip482)" style="stroke:#000000; stroke-linecap:round; stroke-linejoin:round; stroke-width:4; stroke-opacity:0.5; fill:none" points="739.615,224.612 739.615,1042.58 762.158,1042.58 762.158,224.612 739.615,224.612 "/>
<path clip-path="url(#clip482)" d="M767.794 153.998 L767.794 1042.58 L790.337 1042.58 L790.337 153.998 L767.794 153.998 L767.794 153.998  Z" fill="#009af9" fill-rule="evenodd" fill-opacity="0.5"/>
<polyline clip-path="url(#clip482)" style="stroke:#000000; stroke-linecap:round; stroke-linejoin:round; stroke-width:4; stroke-opacity:0.5; fill:none" points="767.794,153.998 767.794,1042.58 790.337,1042.58 790.337,153.998 767.794,153.998 "/>
<path clip-path="url(#clip482)" d="M795.973 170.741 L795.973 1042.58 L818.517 1042.58 L818.517 170.741 L795.973 170.741 L795.973 170.741  Z" fill="#009af9" fill-rule="evenodd" fill-opacity="0.5"/>
<polyline clip-path="url(#clip482)" style="stroke:#000000; stroke-linecap:round; stroke-linejoin:round; stroke-width:4; stroke-opacity:0.5; fill:none" points="795.973,170.741 795.973,1042.58 818.517,1042.58 818.517,170.741 795.973,170.741 "/>
<path clip-path="url(#clip482)" d="M824.152 213.793 L824.152 1042.58 L846.696 1042.58 L846.696 213.793 L824.152 213.793 L824.152 213.793  Z" fill="#009af9" fill-rule="evenodd" fill-opacity="0.5"/>
<polyline clip-path="url(#clip482)" style="stroke:#000000; stroke-linecap:round; stroke-linejoin:round; stroke-width:4; stroke-opacity:0.5; fill:none" points="824.152,213.793 824.152,1042.58 846.696,1042.58 846.696,213.793 824.152,213.793 "/>
<path clip-path="url(#clip482)" d="M852.332 281.131 L852.332 1042.58 L874.875 1042.58 L874.875 281.131 L852.332 281.131 L852.332 281.131  Z" fill="#009af9" fill-rule="evenodd" fill-opacity="0.5"/>
<polyline clip-path="url(#clip482)" style="stroke:#000000; stroke-linecap:round; stroke-linejoin:round; stroke-width:4; stroke-opacity:0.5; fill:none" points="852.332,281.131 852.332,1042.58 874.875,1042.58 874.875,281.131 852.332,281.131 "/>
<path clip-path="url(#clip482)" d="M880.511 274.091 L880.511 1042.58 L903.054 1042.58 L903.054 274.091 L880.511 274.091 L880.511 274.091  Z" fill="#009af9" fill-rule="evenodd" fill-opacity="0.5"/>
<polyline clip-path="url(#clip482)" style="stroke:#000000; stroke-linecap:round; stroke-linejoin:round; stroke-width:4; stroke-opacity:0.5; fill:none" points="880.511,274.091 880.511,1042.58 903.054,1042.58 903.054,274.091 880.511,274.091 "/>
<path clip-path="url(#clip482)" d="M908.69 134.705 L908.69 1042.58 L931.234 1042.58 L931.234 134.705 L908.69 134.705 L908.69 134.705  Z" fill="#009af9" fill-rule="evenodd" fill-opacity="0.5"/>
<polyline clip-path="url(#clip482)" style="stroke:#000000; stroke-linecap:round; stroke-linejoin:round; stroke-width:4; stroke-opacity:0.5; fill:none" points="908.69,134.705 908.69,1042.58 931.234,1042.58 931.234,134.705 908.69,134.705 "/>
<path clip-path="url(#clip482)" d="M936.869 110.236 L936.869 1042.58 L959.413 1042.58 L959.413 110.236 L936.869 110.236 L936.869 110.236  Z" fill="#009af9" fill-rule="evenodd" fill-opacity="0.5"/>
<polyline clip-path="url(#clip482)" style="stroke:#000000; stroke-linecap:round; stroke-linejoin:round; stroke-width:4; stroke-opacity:0.5; fill:none" points="936.869,110.236 936.869,1042.58 959.413,1042.58 959.413,110.236 936.869,110.236 "/>
<path clip-path="url(#clip482)" d="M965.049 142.222 L965.049 1042.58 L987.592 1042.58 L987.592 142.222 L965.049 142.222 L965.049 142.222  Z" fill="#009af9" fill-rule="evenodd" fill-opacity="0.5"/>
<polyline clip-path="url(#clip482)" style="stroke:#000000; stroke-linecap:round; stroke-linejoin:round; stroke-width:4; stroke-opacity:0.5; fill:none" points="965.049,142.222 965.049,1042.58 987.592,1042.58 987.592,142.222 965.049,142.222 "/>
<path clip-path="url(#clip482)" d="M993.228 198.495 L993.228 1042.58 L1015.77 1042.58 L1015.77 198.495 L993.228 198.495 L993.228 198.495  Z" fill="#009af9" fill-rule="evenodd" fill-opacity="0.5"/>
<polyline clip-path="url(#clip482)" style="stroke:#000000; stroke-linecap:round; stroke-linejoin:round; stroke-width:4; stroke-opacity:0.5; fill:none" points="993.228,198.495 993.228,1042.58 1015.77,1042.58 1015.77,198.495 993.228,198.495 "/>
<path clip-path="url(#clip482)" d="M1021.41 213.793 L1021.41 1042.58 L1043.95 1042.58 L1043.95 213.793 L1021.41 213.793 L1021.41 213.793  Z" fill="#009af9" fill-rule="evenodd" fill-opacity="0.5"/>
<polyline clip-path="url(#clip482)" style="stroke:#000000; stroke-linecap:round; stroke-linejoin:round; stroke-width:4; stroke-opacity:0.5; fill:none" points="1021.41,213.793 1021.41,1042.58 1043.95,1042.58 1043.95,213.793 1021.41,213.793 "/>
<path clip-path="url(#clip482)" d="M1049.59 208.575 L1049.59 1042.58 L1072.13 1042.58 L1072.13 208.575 L1049.59 208.575 L1049.59 208.575  Z" fill="#009af9" fill-rule="evenodd" fill-opacity="0.5"/>
<polyline clip-path="url(#clip482)" style="stroke:#000000; stroke-linecap:round; stroke-linejoin:round; stroke-width:4; stroke-opacity:0.5; fill:none" points="1049.59,208.575 1049.59,1042.58 1072.13,1042.58 1072.13,208.575 1049.59,208.575 "/>
<path clip-path="url(#clip482)" d="M1077.77 274.091 L1077.77 1042.58 L1100.31 1042.58 L1100.31 274.091 L1077.77 274.091 L1077.77 274.091  Z" fill="#009af9" fill-rule="evenodd" fill-opacity="0.5"/>
<polyline clip-path="url(#clip482)" style="stroke:#000000; stroke-linecap:round; stroke-linejoin:round; stroke-width:4; stroke-opacity:0.5; fill:none" points="1077.77,274.091 1077.77,1042.58 1100.31,1042.58 1100.31,274.091 1077.77,274.091 "/>
<path clip-path="url(#clip482)" d="M1105.94 303.7 L1105.94 1042.58 L1128.49 1042.58 L1128.49 303.7 L1105.94 303.7 L1105.94 303.7  Z" fill="#009af9" fill-rule="evenodd" fill-opacity="0.5"/>
<polyline clip-path="url(#clip482)" style="stroke:#000000; stroke-linecap:round; stroke-linejoin:round; stroke-width:4; stroke-opacity:0.5; fill:none" points="1105.94,303.7 1105.94,1042.58 1128.49,1042.58 1128.49,303.7 1105.94,303.7 "/>
<path clip-path="url(#clip482)" d="M1134.12 235.985 L1134.12 1042.58 L1156.67 1042.58 L1156.67 235.985 L1134.12 235.985 L1134.12 235.985  Z" fill="#009af9" fill-rule="evenodd" fill-opacity="0.5"/>
<polyline clip-path="url(#clip482)" style="stroke:#000000; stroke-linecap:round; stroke-linejoin:round; stroke-width:4; stroke-opacity:0.5; fill:none" points="1134.12,235.985 1134.12,1042.58 1156.67,1042.58 1156.67,235.985 1134.12,235.985 "/>
<path clip-path="url(#clip482)" d="M1162.3 162.212 L1162.3 1042.58 L1184.85 1042.58 L1184.85 162.212 L1162.3 162.212 L1162.3 162.212  Z" fill="#009af9" fill-rule="evenodd" fill-opacity="0.5"/>
<polyline clip-path="url(#clip482)" style="stroke:#000000; stroke-linecap:round; stroke-linejoin:round; stroke-width:4; stroke-opacity:0.5; fill:none" points="1162.3,162.212 1162.3,1042.58 1184.85,1042.58 1184.85,162.212 1162.3,162.212 "/>
<path clip-path="url(#clip482)" d="M1190.48 235.985 L1190.48 1042.58 L1213.03 1042.58 L1213.03 235.985 L1190.48 235.985 L1190.48 235.985  Z" fill="#009af9" fill-rule="evenodd" fill-opacity="0.5"/>
<polyline clip-path="url(#clip482)" style="stroke:#000000; stroke-linecap:round; stroke-linejoin:round; stroke-width:4; stroke-opacity:0.5; fill:none" points="1190.48,235.985 1190.48,1042.58 1213.03,1042.58 1213.03,235.985 1190.48,235.985 "/>
<path clip-path="url(#clip482)" d="M1218.66 241.899 L1218.66 1042.58 L1241.21 1042.58 L1241.21 241.899 L1218.66 241.899 L1218.66 241.899  Z" fill="#009af9" fill-rule="evenodd" fill-opacity="0.5"/>
<polyline clip-path="url(#clip482)" style="stroke:#000000; stroke-linecap:round; stroke-linejoin:round; stroke-width:4; stroke-opacity:0.5; fill:none" points="1218.66,241.899 1218.66,1042.58 1241.21,1042.58 1241.21,241.899 1218.66,241.899 "/>
<path clip-path="url(#clip482)" d="M1246.84 219.136 L1246.84 1042.58 L1269.38 1042.58 L1269.38 219.136 L1246.84 219.136 L1246.84 219.136  Z" fill="#009af9" fill-rule="evenodd" fill-opacity="0.5"/>
<polyline clip-path="url(#clip482)" style="stroke:#000000; stroke-linecap:round; stroke-linejoin:round; stroke-width:4; stroke-opacity:0.5; fill:none" points="1246.84,219.136 1246.84,1042.58 1269.38,1042.58 1269.38,219.136 1246.84,219.136 "/>
<path clip-path="url(#clip482)" d="M1275.02 414.345 L1275.02 1042.58 L1297.56 1042.58 L1297.56 414.345 L1275.02 414.345 L1275.02 414.345  Z" fill="#009af9" fill-rule="evenodd" fill-opacity="0.5"/>
<polyline clip-path="url(#clip482)" style="stroke:#000000; stroke-linecap:round; stroke-linejoin:round; stroke-width:4; stroke-opacity:0.5; fill:none" points="1275.02,414.345 1275.02,1042.58 1297.56,1042.58 1297.56,414.345 1275.02,414.345 "/>
<path clip-path="url(#clip482)" d="M1303.2 357.175 L1303.2 1042.58 L1325.74 1042.58 L1325.74 357.175 L1303.2 357.175 L1303.2 357.175  Z" fill="#009af9" fill-rule="evenodd" fill-opacity="0.5"/>
<polyline clip-path="url(#clip482)" style="stroke:#000000; stroke-linecap:round; stroke-linejoin:round; stroke-width:4; stroke-opacity:0.5; fill:none" points="1303.2,357.175 1303.2,1042.58 1325.74,1042.58 1325.74,357.175 1303.2,357.175 "/>
<path clip-path="url(#clip482)" d="M1331.38 427.788 L1331.38 1042.58 L1353.92 1042.58 L1353.92 427.788 L1331.38 427.788 L1331.38 427.788  Z" fill="#009af9" fill-rule="evenodd" fill-opacity="0.5"/>
<polyline clip-path="url(#clip482)" style="stroke:#000000; stroke-linecap:round; stroke-linejoin:round; stroke-width:4; stroke-opacity:0.5; fill:none" points="1331.38,427.788 1331.38,1042.58 1353.92,1042.58 1353.92,427.788 1331.38,427.788 "/>
<path clip-path="url(#clip482)" d="M1359.56 337.881 L1359.56 1042.58 L1382.1 1042.58 L1382.1 337.881 L1359.56 337.881 L1359.56 337.881  Z" fill="#009af9" fill-rule="evenodd" fill-opacity="0.5"/>
<polyline clip-path="url(#clip482)" style="stroke:#000000; stroke-linecap:round; stroke-linejoin:round; stroke-width:4; stroke-opacity:0.5; fill:none" points="1359.56,337.881 1359.56,1042.58 1382.1,1042.58 1382.1,337.881 1359.56,337.881 "/>
<path clip-path="url(#clip482)" d="M1387.74 337.881 L1387.74 1042.58 L1410.28 1042.58 L1410.28 337.881 L1387.74 337.881 L1387.74 337.881  Z" fill="#009af9" fill-rule="evenodd" fill-opacity="0.5"/>
<polyline clip-path="url(#clip482)" style="stroke:#000000; stroke-linecap:round; stroke-linejoin:round; stroke-width:4; stroke-opacity:0.5; fill:none" points="1387.74,337.881 1387.74,1042.58 1410.28,1042.58 1410.28,337.881 1387.74,337.881 "/>
<path clip-path="url(#clip482)" d="M1415.92 357.175 L1415.92 1042.58 L1438.46 1042.58 L1438.46 357.175 L1415.92 357.175 L1415.92 357.175  Z" fill="#009af9" fill-rule="evenodd" fill-opacity="0.5"/>
<polyline clip-path="url(#clip482)" style="stroke:#000000; stroke-linecap:round; stroke-linejoin:round; stroke-width:4; stroke-opacity:0.5; fill:none" points="1415.92,357.175 1415.92,1042.58 1438.46,1042.58 1438.46,357.175 1415.92,357.175 "/>
<path clip-path="url(#clip482)" d="M1444.1 337.881 L1444.1 1042.58 L1466.64 1042.58 L1466.64 337.881 L1444.1 337.881 L1444.1 337.881  Z" fill="#009af9" fill-rule="evenodd" fill-opacity="0.5"/>
<polyline clip-path="url(#clip482)" style="stroke:#000000; stroke-linecap:round; stroke-linejoin:round; stroke-width:4; stroke-opacity:0.5; fill:none" points="1444.1,337.881 1444.1,1042.58 1466.64,1042.58 1466.64,337.881 1444.1,337.881 "/>
<path clip-path="url(#clip482)" d="M1472.28 389.682 L1472.28 1042.58 L1494.82 1042.58 L1494.82 389.682 L1472.28 389.682 L1472.28 389.682  Z" fill="#009af9" fill-rule="evenodd" fill-opacity="0.5"/>
<polyline clip-path="url(#clip482)" style="stroke:#000000; stroke-linecap:round; stroke-linejoin:round; stroke-width:4; stroke-opacity:0.5; fill:none" points="1472.28,389.682 1472.28,1042.58 1494.82,1042.58 1494.82,389.682 1472.28,389.682 "/>
<path clip-path="url(#clip482)" d="M1500.45 442.099 L1500.45 1042.58 L1523 1042.58 L1523 442.099 L1500.45 442.099 L1500.45 442.099  Z" fill="#009af9" fill-rule="evenodd" fill-opacity="0.5"/>
<polyline clip-path="url(#clip482)" style="stroke:#000000; stroke-linecap:round; stroke-linejoin:round; stroke-width:4; stroke-opacity:0.5; fill:none" points="1500.45,442.099 1500.45,1042.58 1523,1042.58 1523,442.099 1500.45,442.099 "/>
<path clip-path="url(#clip482)" d="M1528.63 295.919 L1528.63 1042.58 L1551.18 1042.58 L1551.18 295.919 L1528.63 295.919 L1528.63 295.919  Z" fill="#009af9" fill-rule="evenodd" fill-opacity="0.5"/>
<polyline clip-path="url(#clip482)" style="stroke:#000000; stroke-linecap:round; stroke-linejoin:round; stroke-width:4; stroke-opacity:0.5; fill:none" points="1528.63,295.919 1528.63,1042.58 1551.18,1042.58 1551.18,295.919 1528.63,295.919 "/>
<path clip-path="url(#clip482)" d="M1556.81 254.22 L1556.81 1042.58 L1579.36 1042.58 L1579.36 254.22 L1556.81 254.22 L1556.81 254.22  Z" fill="#009af9" fill-rule="evenodd" fill-opacity="0.5"/>
<polyline clip-path="url(#clip482)" style="stroke:#000000; stroke-linecap:round; stroke-linejoin:round; stroke-width:4; stroke-opacity:0.5; fill:none" points="1556.81,254.22 1556.81,1042.58 1579.36,1042.58 1579.36,254.22 1556.81,254.22 "/>
<path clip-path="url(#clip482)" d="M1584.99 311.764 L1584.99 1042.58 L1607.54 1042.58 L1607.54 311.764 L1584.99 311.764 L1584.99 311.764  Z" fill="#009af9" fill-rule="evenodd" fill-opacity="0.5"/>
<polyline clip-path="url(#clip482)" style="stroke:#000000; stroke-linecap:round; stroke-linejoin:round; stroke-width:4; stroke-opacity:0.5; fill:none" points="1584.99,311.764 1584.99,1042.58 1607.54,1042.58 1607.54,311.764 1584.99,311.764 "/>
<path clip-path="url(#clip482)" d="M1613.17 235.985 L1613.17 1042.58 L1635.71 1042.58 L1635.71 235.985 L1613.17 235.985 L1613.17 235.985  Z" fill="#009af9" fill-rule="evenodd" fill-opacity="0.5"/>
<polyline clip-path="url(#clip482)" style="stroke:#000000; stroke-linecap:round; stroke-linejoin:round; stroke-width:4; stroke-opacity:0.5; fill:none" points="1613.17,235.985 1613.17,1042.58 1635.71,1042.58 1635.71,235.985 1613.17,235.985 "/>
<path clip-path="url(#clip482)" d="M1641.35 320.132 L1641.35 1042.58 L1663.89 1042.58 L1663.89 320.132 L1641.35 320.132 L1641.35 320.132  Z" fill="#009af9" fill-rule="evenodd" fill-opacity="0.5"/>
<polyline clip-path="url(#clip482)" style="stroke:#000000; stroke-linecap:round; stroke-linejoin:round; stroke-width:4; stroke-opacity:0.5; fill:none" points="1641.35,320.132 1641.35,1042.58 1663.89,1042.58 1663.89,320.132 1641.35,320.132 "/>
<path clip-path="url(#clip482)" d="M1669.53 260.648 L1669.53 1042.58 L1692.07 1042.58 L1692.07 260.648 L1669.53 260.648 L1669.53 260.648  Z" fill="#009af9" fill-rule="evenodd" fill-opacity="0.5"/>
<polyline clip-path="url(#clip482)" style="stroke:#000000; stroke-linecap:round; stroke-linejoin:round; stroke-width:4; stroke-opacity:0.5; fill:none" points="1669.53,260.648 1669.53,1042.58 1692.07,1042.58 1692.07,260.648 1669.53,260.648 "/>
<path clip-path="url(#clip482)" d="M1697.71 347.318 L1697.71 1042.58 L1720.25 1042.58 L1720.25 347.318 L1697.71 347.318 L1697.71 347.318  Z" fill="#009af9" fill-rule="evenodd" fill-opacity="0.5"/>
<polyline clip-path="url(#clip482)" style="stroke:#000000; stroke-linecap:round; stroke-linejoin:round; stroke-width:4; stroke-opacity:0.5; fill:none" points="1697.71,347.318 1697.71,1042.58 1720.25,1042.58 1720.25,347.318 1697.71,347.318 "/>
<path clip-path="url(#clip482)" d="M1725.89 267.268 L1725.89 1042.58 L1748.43 1042.58 L1748.43 267.268 L1725.89 267.268 L1725.89 267.268  Z" fill="#009af9" fill-rule="evenodd" fill-opacity="0.5"/>
<polyline clip-path="url(#clip482)" style="stroke:#000000; stroke-linecap:round; stroke-linejoin:round; stroke-width:4; stroke-opacity:0.5; fill:none" points="1725.89,267.268 1725.89,1042.58 1748.43,1042.58 1748.43,267.268 1725.89,267.268 "/>
<path clip-path="url(#clip482)" d="M1754.07 267.268 L1754.07 1042.58 L1776.61 1042.58 L1776.61 267.268 L1754.07 267.268 L1754.07 267.268  Z" fill="#009af9" fill-rule="evenodd" fill-opacity="0.5"/>
<polyline clip-path="url(#clip482)" style="stroke:#000000; stroke-linecap:round; stroke-linejoin:round; stroke-width:4; stroke-opacity:0.5; fill:none" points="1754.07,267.268 1754.07,1042.58 1776.61,1042.58 1776.61,267.268 1754.07,267.268 "/>
<path clip-path="url(#clip482)" d="M1782.25 303.7 L1782.25 1042.58 L1804.79 1042.58 L1804.79 303.7 L1782.25 303.7 L1782.25 303.7  Z" fill="#009af9" fill-rule="evenodd" fill-opacity="0.5"/>
<polyline clip-path="url(#clip482)" style="stroke:#000000; stroke-linecap:round; stroke-linejoin:round; stroke-width:4; stroke-opacity:0.5; fill:none" points="1782.25,303.7 1782.25,1042.58 1804.79,1042.58 1804.79,303.7 1782.25,303.7 "/>
<path clip-path="url(#clip482)" d="M1810.43 337.881 L1810.43 1042.58 L1832.97 1042.58 L1832.97 337.881 L1810.43 337.881 L1810.43 337.881  Z" fill="#009af9" fill-rule="evenodd" fill-opacity="0.5"/>
<polyline clip-path="url(#clip482)" style="stroke:#000000; stroke-linecap:round; stroke-linejoin:round; stroke-width:4; stroke-opacity:0.5; fill:none" points="1810.43,337.881 1810.43,1042.58 1832.97,1042.58 1832.97,337.881 1810.43,337.881 "/>
<path clip-path="url(#clip482)" d="M1838.61 303.7 L1838.61 1042.58 L1861.15 1042.58 L1861.15 303.7 L1838.61 303.7 L1838.61 303.7  Z" fill="#009af9" fill-rule="evenodd" fill-opacity="0.5"/>
<polyline clip-path="url(#clip482)" style="stroke:#000000; stroke-linecap:round; stroke-linejoin:round; stroke-width:4; stroke-opacity:0.5; fill:none" points="1838.61,303.7 1838.61,1042.58 1861.15,1042.58 1861.15,303.7 1838.61,303.7 "/>
<path clip-path="url(#clip482)" d="M1866.78 378.308 L1866.78 1042.58 L1889.33 1042.58 L1889.33 378.308 L1866.78 378.308 L1866.78 378.308  Z" fill="#009af9" fill-rule="evenodd" fill-opacity="0.5"/>
<polyline clip-path="url(#clip482)" style="stroke:#000000; stroke-linecap:round; stroke-linejoin:round; stroke-width:4; stroke-opacity:0.5; fill:none" points="1866.78,378.308 1866.78,1042.58 1889.33,1042.58 1889.33,378.308 1866.78,378.308 "/>
<path clip-path="url(#clip482)" d="M1894.96 347.318 L1894.96 1042.58 L1917.51 1042.58 L1917.51 347.318 L1894.96 347.318 L1894.96 347.318  Z" fill="#009af9" fill-rule="evenodd" fill-opacity="0.5"/>
<polyline clip-path="url(#clip482)" style="stroke:#000000; stroke-linecap:round; stroke-linejoin:round; stroke-width:4; stroke-opacity:0.5; fill:none" points="1894.96,347.318 1894.96,1042.58 1917.51,1042.58 1917.51,347.318 1894.96,347.318 "/>
<path clip-path="url(#clip482)" d="M1923.14 389.682 L1923.14 1042.58 L1945.69 1042.58 L1945.69 389.682 L1923.14 389.682 L1923.14 389.682  Z" fill="#009af9" fill-rule="evenodd" fill-opacity="0.5"/>
<polyline clip-path="url(#clip482)" style="stroke:#000000; stroke-linecap:round; stroke-linejoin:round; stroke-width:4; stroke-opacity:0.5; fill:none" points="1923.14,389.682 1923.14,1042.58 1945.69,1042.58 1945.69,389.682 1923.14,389.682 "/>
<path clip-path="url(#clip482)" d="M1951.32 213.793 L1951.32 1042.58 L1973.87 1042.58 L1973.87 213.793 L1951.32 213.793 L1951.32 213.793  Z" fill="#009af9" fill-rule="evenodd" fill-opacity="0.5"/>
<polyline clip-path="url(#clip482)" style="stroke:#000000; stroke-linecap:round; stroke-linejoin:round; stroke-width:4; stroke-opacity:0.5; fill:none" points="1951.32,213.793 1951.32,1042.58 1973.87,1042.58 1973.87,213.793 1951.32,213.793 "/>
<path clip-path="url(#clip482)" d="M1979.5 320.132 L1979.5 1042.58 L2002.04 1042.58 L2002.04 320.132 L1979.5 320.132 L1979.5 320.132  Z" fill="#009af9" fill-rule="evenodd" fill-opacity="0.5"/>
<polyline clip-path="url(#clip482)" style="stroke:#000000; stroke-linecap:round; stroke-linejoin:round; stroke-width:4; stroke-opacity:0.5; fill:none" points="1979.5,320.132 1979.5,1042.58 2002.04,1042.58 2002.04,320.132 1979.5,320.132 "/>
<path clip-path="url(#clip482)" d="M2007.68 219.136 L2007.68 1042.58 L2030.22 1042.58 L2030.22 219.136 L2007.68 219.136 L2007.68 219.136  Z" fill="#009af9" fill-rule="evenodd" fill-opacity="0.5"/>
<polyline clip-path="url(#clip482)" style="stroke:#000000; stroke-linecap:round; stroke-linejoin:round; stroke-width:4; stroke-opacity:0.5; fill:none" points="2007.68,219.136 2007.68,1042.58 2030.22,1042.58 2030.22,219.136 2007.68,219.136 "/>
<path clip-path="url(#clip482)" d="M2035.86 347.318 L2035.86 1042.58 L2058.4 1042.58 L2058.4 347.318 L2035.86 347.318 L2035.86 347.318  Z" fill="#009af9" fill-rule="evenodd" fill-opacity="0.5"/>
<polyline clip-path="url(#clip482)" style="stroke:#000000; stroke-linecap:round; stroke-linejoin:round; stroke-width:4; stroke-opacity:0.5; fill:none" points="2035.86,347.318 2035.86,1042.58 2058.4,1042.58 2058.4,347.318 2035.86,347.318 "/>
<path clip-path="url(#clip482)" d="M2064.04 357.175 L2064.04 1042.58 L2086.58 1042.58 L2086.58 357.175 L2064.04 357.175 L2064.04 357.175  Z" fill="#009af9" fill-rule="evenodd" fill-opacity="0.5"/>
<polyline clip-path="url(#clip482)" style="stroke:#000000; stroke-linecap:round; stroke-linejoin:round; stroke-width:4; stroke-opacity:0.5; fill:none" points="2064.04,357.175 2064.04,1042.58 2086.58,1042.58 2086.58,357.175 2064.04,357.175 "/>
<path clip-path="url(#clip482)" d="M2092.22 320.132 L2092.22 1042.58 L2114.76 1042.58 L2114.76 320.132 L2092.22 320.132 L2092.22 320.132  Z" fill="#009af9" fill-rule="evenodd" fill-opacity="0.5"/>
<polyline clip-path="url(#clip482)" style="stroke:#000000; stroke-linecap:round; stroke-linejoin:round; stroke-width:4; stroke-opacity:0.5; fill:none" points="2092.22,320.132 2092.22,1042.58 2114.76,1042.58 2114.76,320.132 2092.22,320.132 "/>
<path clip-path="url(#clip482)" d="M2120.4 235.985 L2120.4 1042.58 L2142.94 1042.58 L2142.94 235.985 L2120.4 235.985 L2120.4 235.985  Z" fill="#009af9" fill-rule="evenodd" fill-opacity="0.5"/>
<polyline clip-path="url(#clip482)" style="stroke:#000000; stroke-linecap:round; stroke-linejoin:round; stroke-width:4; stroke-opacity:0.5; fill:none" points="2120.4,235.985 2120.4,1042.58 2142.94,1042.58 2142.94,235.985 2120.4,235.985 "/>
<path clip-path="url(#clip482)" d="M2148.58 320.132 L2148.58 1042.58 L2171.12 1042.58 L2171.12 320.132 L2148.58 320.132 L2148.58 320.132  Z" fill="#009af9" fill-rule="evenodd" fill-opacity="0.5"/>
<polyline clip-path="url(#clip482)" style="stroke:#000000; stroke-linecap:round; stroke-linejoin:round; stroke-width:4; stroke-opacity:0.5; fill:none" points="2148.58,320.132 2148.58,1042.58 2171.12,1042.58 2171.12,320.132 2148.58,320.132 "/>
<path clip-path="url(#clip482)" d="M2176.76 347.318 L2176.76 1042.58 L2199.3 1042.58 L2199.3 347.318 L2176.76 347.318 L2176.76 347.318  Z" fill="#009af9" fill-rule="evenodd" fill-opacity="0.5"/>
<polyline clip-path="url(#clip482)" style="stroke:#000000; stroke-linecap:round; stroke-linejoin:round; stroke-width:4; stroke-opacity:0.5; fill:none" points="2176.76,347.318 2176.76,1042.58 2199.3,1042.58 2199.3,347.318 2176.76,347.318 "/>
<path clip-path="url(#clip482)" d="M2204.94 367.49 L2204.94 1042.58 L2227.48 1042.58 L2227.48 367.49 L2204.94 367.49 L2204.94 367.49  Z" fill="#009af9" fill-rule="evenodd" fill-opacity="0.5"/>
<polyline clip-path="url(#clip482)" style="stroke:#000000; stroke-linecap:round; stroke-linejoin:round; stroke-width:4; stroke-opacity:0.5; fill:none" points="2204.94,367.49 2204.94,1042.58 2227.48,1042.58 2227.48,367.49 2204.94,367.49 "/>
<path clip-path="url(#clip482)" d="M2233.11 320.132 L2233.11 1042.58 L2255.66 1042.58 L2255.66 320.132 L2233.11 320.132 L2233.11 320.132  Z" fill="#009af9" fill-rule="evenodd" fill-opacity="0.5"/>
<polyline clip-path="url(#clip482)" style="stroke:#000000; stroke-linecap:round; stroke-linejoin:round; stroke-width:4; stroke-opacity:0.5; fill:none" points="2233.11,320.132 2233.11,1042.58 2255.66,1042.58 2255.66,320.132 2233.11,320.132 "/>
<path clip-path="url(#clip482)" d="M2261.29 457.397 L2261.29 1042.58 L2283.84 1042.58 L2283.84 457.397 L2261.29 457.397 L2261.29 457.397  Z" fill="#009af9" fill-rule="evenodd" fill-opacity="0.5"/>
<polyline clip-path="url(#clip482)" style="stroke:#000000; stroke-linecap:round; stroke-linejoin:round; stroke-width:4; stroke-opacity:0.5; fill:none" points="2261.29,457.397 2261.29,1042.58 2283.84,1042.58 2283.84,457.397 2261.29,457.397 "/>
<path clip-path="url(#clip482)" d="M2289.47 491.578 L2289.47 1042.58 L2312.02 1042.58 L2312.02 491.578 L2289.47 491.578 L2289.47 491.578  Z" fill="#009af9" fill-rule="evenodd" fill-opacity="0.5"/>
<polyline clip-path="url(#clip482)" style="stroke:#000000; stroke-linecap:round; stroke-linejoin:round; stroke-width:4; stroke-opacity:0.5; fill:none" points="2289.47,491.578 2289.47,1042.58 2312.02,1042.58 2312.02,491.578 2289.47,491.578 "/>
<path clip-path="url(#clip482)" d="M2317.65 457.397 L2317.65 1042.58 L2340.2 1042.58 L2340.2 457.397 L2317.65 457.397 L2317.65 457.397  Z" fill="#009af9" fill-rule="evenodd" fill-opacity="0.5"/>
<polyline clip-path="url(#clip482)" style="stroke:#000000; stroke-linecap:round; stroke-linejoin:round; stroke-width:4; stroke-opacity:0.5; fill:none" points="2317.65,457.397 2317.65,1042.58 2340.2,1042.58 2340.2,457.397 2317.65,457.397 "/>
<path clip-path="url(#clip482)" d="M2345.83 510.872 L2345.83 1042.58 L2368.38 1042.58 L2368.38 510.872 L2345.83 510.872 L2345.83 510.872  Z" fill="#009af9" fill-rule="evenodd" fill-opacity="0.5"/>
<polyline clip-path="url(#clip482)" style="stroke:#000000; stroke-linecap:round; stroke-linejoin:round; stroke-width:4; stroke-opacity:0.5; fill:none" points="2345.83,510.872 2345.83,1042.58 2368.38,1042.58 2368.38,510.872 2345.83,510.872 "/>
<path clip-path="url(#clip482)" d="M2374.01 645.275 L2374.01 1042.58 L2396.55 1042.58 L2396.55 645.275 L2374.01 645.275 L2374.01 645.275  Z" fill="#009af9" fill-rule="evenodd" fill-opacity="0.5"/>
<polyline clip-path="url(#clip482)" style="stroke:#000000; stroke-linecap:round; stroke-linejoin:round; stroke-width:4; stroke-opacity:0.5; fill:none" points="2374.01,645.275 2374.01,1042.58 2396.55,1042.58 2396.55,645.275 2374.01,645.275 "/>
<path clip-path="url(#clip482)" d="M2402.19 427.788 L2402.19 1042.58 L2424.73 1042.58 L2424.73 427.788 L2402.19 427.788 L2402.19 427.788  Z" fill="#009af9" fill-rule="evenodd" fill-opacity="0.5"/>
<polyline clip-path="url(#clip482)" style="stroke:#000000; stroke-linecap:round; stroke-linejoin:round; stroke-width:4; stroke-opacity:0.5; fill:none" points="2402.19,427.788 2402.19,1042.58 2424.73,1042.58 2424.73,427.788 2402.19,427.788 "/>
<path clip-path="url(#clip482)" d="M2430.37 611.094 L2430.37 1042.58 L2452.91 1042.58 L2452.91 611.094 L2430.37 611.094 L2430.37 611.094  Z" fill="#009af9" fill-rule="evenodd" fill-opacity="0.5"/>
<polyline clip-path="url(#clip482)" style="stroke:#000000; stroke-linecap:round; stroke-linejoin:round; stroke-width:4; stroke-opacity:0.5; fill:none" points="2430.37,611.094 2430.37,1042.58 2452.91,1042.58 2452.91,611.094 2430.37,611.094 "/>
<path clip-path="url(#clip482)" d="M2458.55 735.182 L2458.55 1042.58 L2481.09 1042.58 L2481.09 735.182 L2458.55 735.182 L2458.55 735.182  Z" fill="#009af9" fill-rule="evenodd" fill-opacity="0.5"/>
<polyline clip-path="url(#clip482)" style="stroke:#000000; stroke-linecap:round; stroke-linejoin:round; stroke-width:4; stroke-opacity:0.5; fill:none" points="2458.55,735.182 2458.55,1042.58 2481.09,1042.58 2481.09,735.182 2458.55,735.182 "/>
<path clip-path="url(#clip482)" d="M2486.73 1042.58 L2486.73 1042.58 L2509.27 1042.58 L2509.27 1042.58 L2486.73 1042.58 L2486.73 1042.58  Z" fill="#009af9" fill-rule="evenodd" fill-opacity="0.5"/>
<polyline clip-path="url(#clip482)" style="stroke:#000000; stroke-linecap:round; stroke-linejoin:round; stroke-width:4; stroke-opacity:0.5; fill:none" points="2486.73,1042.58 2486.73,1042.58 2509.27,1042.58 2486.73,1042.58 "/>
<path clip-path="url(#clip482)" d="M2543.09 888.879 L2543.09 1042.58 L2565.63 1042.58 L2565.63 888.879 L2543.09 888.879 L2543.09 888.879  Z" fill="#009af9" fill-rule="evenodd" fill-opacity="0.5"/>
<polyline clip-path="url(#clip482)" style="stroke:#000000; stroke-linecap:round; stroke-linejoin:round; stroke-width:4; stroke-opacity:0.5; fill:none" points="2543.09,888.879 2543.09,1042.58 2565.63,1042.58 2565.63,888.879 2543.09,888.879 "/>
<path clip-path="url(#clip482)" d="M2571.27 1042.58 L2571.27 1042.58 L2593.81 1042.58 L2593.81 1042.58 L2571.27 1042.58 L2571.27 1042.58  Z" fill="#009af9" fill-rule="evenodd" fill-opacity="0.5"/>
<polyline clip-path="url(#clip482)" style="stroke:#000000; stroke-linecap:round; stroke-linejoin:round; stroke-width:4; stroke-opacity:0.5; fill:none" points="2571.27,1042.58 2571.27,1042.58 2593.81,1042.58 2571.27,1042.58 "/>
<path clip-path="url(#clip482)" d="M2599.44 1042.58 L2599.44 1042.58 L2621.99 1042.58 L2621.99 1042.58 L2599.44 1042.58 L2599.44 1042.58  Z" fill="#009af9" fill-rule="evenodd" fill-opacity="0.5"/>
<polyline clip-path="url(#clip482)" style="stroke:#000000; stroke-linecap:round; stroke-linejoin:round; stroke-width:4; stroke-opacity:0.5; fill:none" points="2599.44,1042.58 2599.44,1042.58 2621.99,1042.58 2599.44,1042.58 "/>
<path clip-path="url(#clip482)" d="M2655.8 1042.58 L2655.8 1042.58 L2678.35 1042.58 L2678.35 1042.58 L2655.8 1042.58 L2655.8 1042.58  Z" fill="#009af9" fill-rule="evenodd" fill-opacity="0.5"/>
<polyline clip-path="url(#clip482)" style="stroke:#000000; stroke-linecap:round; stroke-linejoin:round; stroke-width:4; stroke-opacity:0.5; fill:none" points="2655.8,1042.58 2655.8,1042.58 2678.35,1042.58 2655.8,1042.58 "/>
<path clip-path="url(#clip482)" d="M2683.98 888.879 L2683.98 1042.58 L2706.53 1042.58 L2706.53 888.879 L2683.98 888.879 L2683.98 888.879  Z" fill="#009af9" fill-rule="evenodd" fill-opacity="0.5"/>
<polyline clip-path="url(#clip482)" style="stroke:#000000; stroke-linecap:round; stroke-linejoin:round; stroke-width:4; stroke-opacity:0.5; fill:none" points="2683.98,888.879 2683.98,1042.58 2706.53,1042.58 2706.53,888.879 2683.98,888.879 "/>
<path clip-path="url(#clip482)" d="M2712.16 1042.58 L2712.16 1042.58 L2734.71 1042.58 L2734.71 1042.58 L2712.16 1042.58 L2712.16 1042.58  Z" fill="#009af9" fill-rule="evenodd" fill-opacity="0.5"/>
<polyline clip-path="url(#clip482)" style="stroke:#000000; stroke-linecap:round; stroke-linejoin:round; stroke-width:4; stroke-opacity:0.5; fill:none" points="2712.16,1042.58 2712.16,1042.58 2734.71,1042.58 2712.16,1042.58 "/>
<circle clip-path="url(#clip482)" style="fill:#009af9; stroke:none; fill-opacity:0" cx="300.018" cy="184.184" r="2"/>
<circle clip-path="url(#clip482)" style="fill:#009af9; stroke:none; fill-opacity:0" cx="328.198" cy="281.131" r="2"/>
<circle clip-path="url(#clip482)" style="fill:#009af9; stroke:none; fill-opacity:0" cx="356.377" cy="193.621" r="2"/>
<circle clip-path="url(#clip482)" style="fill:#009af9; stroke:none; fill-opacity:0" cx="384.556" cy="230.225" r="2"/>
<circle clip-path="url(#clip482)" style="fill:#009af9; stroke:none; fill-opacity:0" cx="412.735" cy="166.435" r="2"/>
<circle clip-path="url(#clip482)" style="fill:#009af9; stroke:none; fill-opacity:0" cx="440.915" cy="260.648" r="2"/>
<circle clip-path="url(#clip482)" style="fill:#009af9; stroke:none; fill-opacity:0" cx="469.094" cy="203.478" r="2"/>
<circle clip-path="url(#clip482)" style="fill:#009af9; stroke:none; fill-opacity:0" cx="497.273" cy="166.435" r="2"/>
<circle clip-path="url(#clip482)" style="fill:#009af9; stroke:none; fill-opacity:0" cx="525.452" cy="134.705" r="2"/>
<circle clip-path="url(#clip482)" style="fill:#009af9; stroke:none; fill-opacity:0" cx="553.632" cy="110.236" r="2"/>
<circle clip-path="url(#clip482)" style="fill:#009af9; stroke:none; fill-opacity:0" cx="581.811" cy="134.705" r="2"/>
<circle clip-path="url(#clip482)" style="fill:#009af9; stroke:none; fill-opacity:0" cx="609.99" cy="188.852" r="2"/>
<circle clip-path="url(#clip482)" style="fill:#009af9; stroke:none; fill-opacity:0" cx="638.169" cy="170.741" r="2"/>
<circle clip-path="url(#clip482)" style="fill:#009af9; stroke:none; fill-opacity:0" cx="666.349" cy="254.22" r="2"/>
<circle clip-path="url(#clip482)" style="fill:#009af9; stroke:none; fill-opacity:0" cx="694.528" cy="219.136" r="2"/>
<circle clip-path="url(#clip482)" style="fill:#009af9; stroke:none; fill-opacity:0" cx="722.707" cy="235.985" r="2"/>
<circle clip-path="url(#clip482)" style="fill:#009af9; stroke:none; fill-opacity:0" cx="750.886" cy="224.612" r="2"/>
<circle clip-path="url(#clip482)" style="fill:#009af9; stroke:none; fill-opacity:0" cx="779.066" cy="153.998" r="2"/>
<circle clip-path="url(#clip482)" style="fill:#009af9; stroke:none; fill-opacity:0" cx="807.245" cy="170.741" r="2"/>
<circle clip-path="url(#clip482)" style="fill:#009af9; stroke:none; fill-opacity:0" cx="835.424" cy="213.793" r="2"/>
<circle clip-path="url(#clip482)" style="fill:#009af9; stroke:none; fill-opacity:0" cx="863.603" cy="281.131" r="2"/>
<circle clip-path="url(#clip482)" style="fill:#009af9; stroke:none; fill-opacity:0" cx="891.783" cy="274.091" r="2"/>
<circle clip-path="url(#clip482)" style="fill:#009af9; stroke:none; fill-opacity:0" cx="919.962" cy="134.705" r="2"/>
<circle clip-path="url(#clip482)" style="fill:#009af9; stroke:none; fill-opacity:0" cx="948.141" cy="110.236" r="2"/>
<circle clip-path="url(#clip482)" style="fill:#009af9; stroke:none; fill-opacity:0" cx="976.32" cy="142.222" r="2"/>
<circle clip-path="url(#clip482)" style="fill:#009af9; stroke:none; fill-opacity:0" cx="1004.5" cy="198.495" r="2"/>
<circle clip-path="url(#clip482)" style="fill:#009af9; stroke:none; fill-opacity:0" cx="1032.68" cy="213.793" r="2"/>
<circle clip-path="url(#clip482)" style="fill:#009af9; stroke:none; fill-opacity:0" cx="1060.86" cy="208.575" r="2"/>
<circle clip-path="url(#clip482)" style="fill:#009af9; stroke:none; fill-opacity:0" cx="1089.04" cy="274.091" r="2"/>
<circle clip-path="url(#clip482)" style="fill:#009af9; stroke:none; fill-opacity:0" cx="1117.22" cy="303.7" r="2"/>
<circle clip-path="url(#clip482)" style="fill:#009af9; stroke:none; fill-opacity:0" cx="1145.4" cy="235.985" r="2"/>
<circle clip-path="url(#clip482)" style="fill:#009af9; stroke:none; fill-opacity:0" cx="1173.58" cy="162.212" r="2"/>
<circle clip-path="url(#clip482)" style="fill:#009af9; stroke:none; fill-opacity:0" cx="1201.75" cy="235.985" r="2"/>
<circle clip-path="url(#clip482)" style="fill:#009af9; stroke:none; fill-opacity:0" cx="1229.93" cy="241.899" r="2"/>
<circle clip-path="url(#clip482)" style="fill:#009af9; stroke:none; fill-opacity:0" cx="1258.11" cy="219.136" r="2"/>
<circle clip-path="url(#clip482)" style="fill:#009af9; stroke:none; fill-opacity:0" cx="1286.29" cy="414.345" r="2"/>
<circle clip-path="url(#clip482)" style="fill:#009af9; stroke:none; fill-opacity:0" cx="1314.47" cy="357.175" r="2"/>
<circle clip-path="url(#clip482)" style="fill:#009af9; stroke:none; fill-opacity:0" cx="1342.65" cy="427.788" r="2"/>
<circle clip-path="url(#clip482)" style="fill:#009af9; stroke:none; fill-opacity:0" cx="1370.83" cy="337.881" r="2"/>
<circle clip-path="url(#clip482)" style="fill:#009af9; stroke:none; fill-opacity:0" cx="1399.01" cy="337.881" r="2"/>
<circle clip-path="url(#clip482)" style="fill:#009af9; stroke:none; fill-opacity:0" cx="1427.19" cy="357.175" r="2"/>
<circle clip-path="url(#clip482)" style="fill:#009af9; stroke:none; fill-opacity:0" cx="1455.37" cy="337.881" r="2"/>
<circle clip-path="url(#clip482)" style="fill:#009af9; stroke:none; fill-opacity:0" cx="1483.55" cy="389.682" r="2"/>
<circle clip-path="url(#clip482)" style="fill:#009af9; stroke:none; fill-opacity:0" cx="1511.73" cy="442.099" r="2"/>
<circle clip-path="url(#clip482)" style="fill:#009af9; stroke:none; fill-opacity:0" cx="1539.91" cy="295.919" r="2"/>
<circle clip-path="url(#clip482)" style="fill:#009af9; stroke:none; fill-opacity:0" cx="1568.08" cy="254.22" r="2"/>
<circle clip-path="url(#clip482)" style="fill:#009af9; stroke:none; fill-opacity:0" cx="1596.26" cy="311.764" r="2"/>
<circle clip-path="url(#clip482)" style="fill:#009af9; stroke:none; fill-opacity:0" cx="1624.44" cy="235.985" r="2"/>
<circle clip-path="url(#clip482)" style="fill:#009af9; stroke:none; fill-opacity:0" cx="1652.62" cy="320.132" r="2"/>
<circle clip-path="url(#clip482)" style="fill:#009af9; stroke:none; fill-opacity:0" cx="1680.8" cy="260.648" r="2"/>
<circle clip-path="url(#clip482)" style="fill:#009af9; stroke:none; fill-opacity:0" cx="1708.98" cy="347.318" r="2"/>
<circle clip-path="url(#clip482)" style="fill:#009af9; stroke:none; fill-opacity:0" cx="1737.16" cy="267.268" r="2"/>
<circle clip-path="url(#clip482)" style="fill:#009af9; stroke:none; fill-opacity:0" cx="1765.34" cy="267.268" r="2"/>
<circle clip-path="url(#clip482)" style="fill:#009af9; stroke:none; fill-opacity:0" cx="1793.52" cy="303.7" r="2"/>
<circle clip-path="url(#clip482)" style="fill:#009af9; stroke:none; fill-opacity:0" cx="1821.7" cy="337.881" r="2"/>
<circle clip-path="url(#clip482)" style="fill:#009af9; stroke:none; fill-opacity:0" cx="1849.88" cy="303.7" r="2"/>
<circle clip-path="url(#clip482)" style="fill:#009af9; stroke:none; fill-opacity:0" cx="1878.06" cy="378.308" r="2"/>
<circle clip-path="url(#clip482)" style="fill:#009af9; stroke:none; fill-opacity:0" cx="1906.24" cy="347.318" r="2"/>
<circle clip-path="url(#clip482)" style="fill:#009af9; stroke:none; fill-opacity:0" cx="1934.41" cy="389.682" r="2"/>
<circle clip-path="url(#clip482)" style="fill:#009af9; stroke:none; fill-opacity:0" cx="1962.59" cy="213.793" r="2"/>
<circle clip-path="url(#clip482)" style="fill:#009af9; stroke:none; fill-opacity:0" cx="1990.77" cy="320.132" r="2"/>
<circle clip-path="url(#clip482)" style="fill:#009af9; stroke:none; fill-opacity:0" cx="2018.95" cy="219.136" r="2"/>
<circle clip-path="url(#clip482)" style="fill:#009af9; stroke:none; fill-opacity:0" cx="2047.13" cy="347.318" r="2"/>
<circle clip-path="url(#clip482)" style="fill:#009af9; stroke:none; fill-opacity:0" cx="2075.31" cy="357.175" r="2"/>
<circle clip-path="url(#clip482)" style="fill:#009af9; stroke:none; fill-opacity:0" cx="2103.49" cy="320.132" r="2"/>
<circle clip-path="url(#clip482)" style="fill:#009af9; stroke:none; fill-opacity:0" cx="2131.67" cy="235.985" r="2"/>
<circle clip-path="url(#clip482)" style="fill:#009af9; stroke:none; fill-opacity:0" cx="2159.85" cy="320.132" r="2"/>
<circle clip-path="url(#clip482)" style="fill:#009af9; stroke:none; fill-opacity:0" cx="2188.03" cy="347.318" r="2"/>
<circle clip-path="url(#clip482)" style="fill:#009af9; stroke:none; fill-opacity:0" cx="2216.21" cy="367.49" r="2"/>
<circle clip-path="url(#clip482)" style="fill:#009af9; stroke:none; fill-opacity:0" cx="2244.39" cy="320.132" r="2"/>
<circle clip-path="url(#clip482)" style="fill:#009af9; stroke:none; fill-opacity:0" cx="2272.57" cy="457.397" r="2"/>
<circle clip-path="url(#clip482)" style="fill:#009af9; stroke:none; fill-opacity:0" cx="2300.74" cy="491.578" r="2"/>
<circle clip-path="url(#clip482)" style="fill:#009af9; stroke:none; fill-opacity:0" cx="2328.92" cy="457.397" r="2"/>
<circle clip-path="url(#clip482)" style="fill:#009af9; stroke:none; fill-opacity:0" cx="2357.1" cy="510.872" r="2"/>
<circle clip-path="url(#clip482)" style="fill:#009af9; stroke:none; fill-opacity:0" cx="2385.28" cy="645.275" r="2"/>
<circle clip-path="url(#clip482)" style="fill:#009af9; stroke:none; fill-opacity:0" cx="2413.46" cy="427.788" r="2"/>
<circle clip-path="url(#clip482)" style="fill:#009af9; stroke:none; fill-opacity:0" cx="2441.64" cy="611.094" r="2"/>
<circle clip-path="url(#clip482)" style="fill:#009af9; stroke:none; fill-opacity:0" cx="2469.82" cy="735.182" r="2"/>
<circle clip-path="url(#clip482)" style="fill:#009af9; stroke:none; fill-opacity:0" cx="2498" cy="1042.58" r="2"/>
<circle clip-path="url(#clip482)" style="fill:#009af9; stroke:none; fill-opacity:0" cx="2554.36" cy="888.879" r="2"/>
<circle clip-path="url(#clip482)" style="fill:#009af9; stroke:none; fill-opacity:0" cx="2582.54" cy="1042.58" r="2"/>
<circle clip-path="url(#clip482)" style="fill:#009af9; stroke:none; fill-opacity:0" cx="2610.72" cy="1042.58" r="2"/>
<circle clip-path="url(#clip482)" style="fill:#009af9; stroke:none; fill-opacity:0" cx="2667.08" cy="1042.58" r="2"/>
<circle clip-path="url(#clip482)" style="fill:#009af9; stroke:none; fill-opacity:0" cx="2695.25" cy="888.879" r="2"/>
<circle clip-path="url(#clip482)" style="fill:#009af9; stroke:none; fill-opacity:0" cx="2723.43" cy="1042.58" r="2"/>
</svg>
