<?xml version="1.0" encoding="utf-8"?>
<svg xmlns="http://www.w3.org/2000/svg" xmlns:xlink="http://www.w3.org/1999/xlink" width="800" height="300" viewBox="0 0 3200 1200">
<defs>
  <clipPath id="clip290">
    <rect x="0" y="0" width="3200" height="1200"/>
  </clipPath>
</defs>
<path clip-path="url(#clip290)" d="M0 1200 L3200 1200 L3200 0 L0 0  Z" fill="#ffffff" fill-rule="evenodd" fill-opacity="1"/>
<defs>
  <clipPath id="clip291">
    <rect x="640" y="0" width="2241" height="1200"/>
  </clipPath>
</defs>
<path clip-path="url(#clip290)" d="M271.839 1042.58 L3089.76 1042.58 L3089.76 110.236 L271.839 110.236  Z" fill="#ffffff" fill-rule="evenodd" fill-opacity="1"/>
<defs>
  <clipPath id="clip292">
    <rect x="271" y="110" width="2819" height="933"/>
  </clipPath>
</defs>
<polyline clip-path="url(#clip292)" style="stroke:#000000; stroke-linecap:round; stroke-linejoin:round; stroke-width:2; stroke-opacity:0.1; fill:none" points="863.603,1042.58 863.603,110.236 "/>
<polyline clip-path="url(#clip292)" style="stroke:#000000; stroke-linecap:round; stroke-linejoin:round; stroke-width:2; stroke-opacity:0.1; fill:none" points="1737.16,1042.58 1737.16,110.236 "/>
<polyline clip-path="url(#clip292)" style="stroke:#000000; stroke-linecap:round; stroke-linejoin:round; stroke-width:2; stroke-opacity:0.1; fill:none" points="2582.54,1042.58 2582.54,110.236 "/>
<polyline clip-path="url(#clip290)" style="stroke:#000000; stroke-linecap:round; stroke-linejoin:round; stroke-width:4; stroke-opacity:1; fill:none" points="271.839,1042.58 3089.76,1042.58 "/>
<polyline clip-path="url(#clip290)" style="stroke:#000000; stroke-linecap:round; stroke-linejoin:round; stroke-width:4; stroke-opacity:1; fill:none" points="863.603,1042.58 863.603,1023.68 "/>
<polyline clip-path="url(#clip290)" style="stroke:#000000; stroke-linecap:round; stroke-linejoin:round; stroke-width:4; stroke-opacity:1; fill:none" points="1737.16,1042.58 1737.16,1023.68 "/>
<polyline clip-path="url(#clip290)" style="stroke:#000000; stroke-linecap:round; stroke-linejoin:round; stroke-width:4; stroke-opacity:1; fill:none" points="2582.54,1042.58 2582.54,1023.68 "/>
<path clip-path="url(#clip290)" d="M735.398 1107.44 L751.717 1107.44 L751.717 1111.38 L729.773 1111.38 L729.773 1107.44 Q732.435 1104.69 737.018 1100.06 Q741.625 1095.4 742.805 1094.06 Q745.051 1091.54 745.93 1089.8 Q746.833 1088.04 746.833 1086.35 Q746.833 1083.6 744.889 1081.86 Q742.967 1080.13 739.866 1080.13 Q737.667 1080.13 735.213 1080.89 Q732.782 1081.65 730.005 1083.2 L730.005 1078.48 Q732.829 1077.35 735.282 1076.77 Q737.736 1076.19 739.773 1076.19 Q745.143 1076.19 748.338 1078.88 Q751.532 1081.56 751.532 1086.05 Q751.532 1088.18 750.722 1090.1 Q749.935 1092 747.829 1094.59 Q747.25 1095.26 744.148 1098.48 Q741.046 1101.68 735.398 1107.44 Z" fill="#000000" fill-rule="nonzero" fill-opacity="1" /><path clip-path="url(#clip290)" d="M771.532 1079.89 Q767.921 1079.89 766.092 1083.46 Q764.287 1087 764.287 1094.13 Q764.287 1101.24 766.092 1104.8 Q767.921 1108.34 771.532 1108.34 Q775.166 1108.34 776.972 1104.8 Q778.801 1101.24 778.801 1094.13 Q778.801 1087 776.972 1083.46 Q775.166 1079.89 771.532 1079.89 M771.532 1076.19 Q777.342 1076.19 780.398 1080.8 Q783.476 1085.38 783.476 1094.13 Q783.476 1102.86 780.398 1107.46 Q777.342 1112.05 771.532 1112.05 Q765.722 1112.05 762.643 1107.46 Q759.588 1102.86 759.588 1094.13 Q759.588 1085.38 762.643 1080.8 Q765.722 1076.19 771.532 1076.19 Z" fill="#000000" fill-rule="nonzero" fill-opacity="1" /><path clip-path="url(#clip290)" d="M795.722 1107.44 L812.041 1107.44 L812.041 1111.38 L790.097 1111.38 L790.097 1107.44 Q792.759 1104.69 797.342 1100.06 Q801.949 1095.4 803.129 1094.06 Q805.375 1091.54 806.254 1089.8 Q807.157 1088.04 807.157 1086.35 Q807.157 1083.6 805.212 1081.86 Q803.291 1080.13 800.189 1080.13 Q797.99 1080.13 795.537 1080.89 Q793.106 1081.65 790.328 1083.2 L790.328 1078.48 Q793.152 1077.35 795.606 1076.77 Q798.06 1076.19 800.097 1076.19 Q805.467 1076.19 808.662 1078.88 Q811.856 1081.56 811.856 1086.05 Q811.856 1088.18 811.046 1090.1 Q810.259 1092 808.152 1094.59 Q807.574 1095.26 804.472 1098.48 Q801.37 1101.68 795.722 1107.44 Z" fill="#000000" fill-rule="nonzero" fill-opacity="1" /><path clip-path="url(#clip290)" d="M834.703 1080.89 L822.898 1099.34 L834.703 1099.34 L834.703 1080.89 M833.476 1076.82 L839.356 1076.82 L839.356 1099.34 L844.286 1099.34 L844.286 1103.23 L839.356 1103.23 L839.356 1111.38 L834.703 1111.38 L834.703 1103.23 L819.101 1103.23 L819.101 1098.71 L833.476 1076.82 Z" fill="#000000" fill-rule="nonzero" fill-opacity="1" /><path clip-path="url(#clip290)" d="M849.263 1096.49 L861.74 1096.49 L861.74 1100.29 L849.263 1100.29 L849.263 1096.49 Z" fill="#000000" fill-rule="nonzero" fill-opacity="1" /><path clip-path="url(#clip290)" d="M879.124 1079.89 Q875.513 1079.89 873.684 1083.46 Q871.879 1087 871.879 1094.13 Q871.879 1101.24 873.684 1104.8 Q875.513 1108.34 879.124 1108.34 Q882.758 1108.34 884.564 1104.8 Q886.393 1101.24 886.393 1094.13 Q886.393 1087 884.564 1083.46 Q882.758 1079.89 879.124 1079.89 M879.124 1076.19 Q884.934 1076.19 887.99 1080.8 Q891.069 1085.38 891.069 1094.13 Q891.069 1102.86 887.99 1107.46 Q884.934 1112.05 879.124 1112.05 Q873.314 1112.05 870.235 1107.46 Q867.18 1102.86 867.18 1094.13 Q867.18 1085.38 870.235 1080.8 Q873.314 1076.19 879.124 1076.19 Z" fill="#000000" fill-rule="nonzero" fill-opacity="1" /><path clip-path="url(#clip290)" d="M909.286 1094.96 Q905.953 1094.96 904.031 1096.75 Q902.133 1098.53 902.133 1101.65 Q902.133 1104.78 904.031 1106.56 Q905.953 1108.34 909.286 1108.34 Q912.619 1108.34 914.541 1106.56 Q916.462 1104.76 916.462 1101.65 Q916.462 1098.53 914.541 1096.75 Q912.642 1094.96 909.286 1094.96 M904.61 1092.97 Q901.601 1092.23 899.911 1090.17 Q898.244 1088.11 898.244 1085.15 Q898.244 1081.01 901.184 1078.6 Q904.147 1076.19 909.286 1076.19 Q914.448 1076.19 917.388 1078.6 Q920.328 1081.01 920.328 1085.15 Q920.328 1088.11 918.638 1090.17 Q916.971 1092.23 913.985 1092.97 Q917.365 1093.76 919.24 1096.05 Q921.138 1098.34 921.138 1101.65 Q921.138 1106.68 918.059 1109.36 Q915.004 1112.05 909.286 1112.05 Q903.568 1112.05 900.49 1109.36 Q897.434 1106.68 897.434 1101.65 Q897.434 1098.34 899.332 1096.05 Q901.23 1093.76 904.61 1092.97 M902.897 1085.59 Q902.897 1088.27 904.564 1089.78 Q906.254 1091.28 909.286 1091.28 Q912.295 1091.28 913.985 1089.78 Q915.698 1088.27 915.698 1085.59 Q915.698 1082.9 913.985 1081.4 Q912.295 1079.89 909.286 1079.89 Q906.254 1079.89 904.564 1081.4 Q902.897 1082.9 902.897 1085.59 Z" fill="#000000" fill-rule="nonzero" fill-opacity="1" /><path clip-path="url(#clip290)" d="M926.693 1096.49 L939.17 1096.49 L939.17 1100.29 L926.693 1100.29 L926.693 1096.49 Z" fill="#000000" fill-rule="nonzero" fill-opacity="1" /><path clip-path="url(#clip290)" d="M956.554 1079.89 Q952.943 1079.89 951.114 1083.46 Q949.309 1087 949.309 1094.13 Q949.309 1101.24 951.114 1104.8 Q952.943 1108.34 956.554 1108.34 Q960.189 1108.34 961.994 1104.8 Q963.823 1101.24 963.823 1094.13 Q963.823 1087 961.994 1083.46 Q960.189 1079.89 956.554 1079.89 M956.554 1076.19 Q962.364 1076.19 965.42 1080.8 Q968.499 1085.38 968.499 1094.13 Q968.499 1102.86 965.42 1107.46 Q962.364 1112.05 956.554 1112.05 Q950.744 1112.05 947.665 1107.46 Q944.61 1102.86 944.61 1094.13 Q944.61 1085.38 947.665 1080.8 Q950.744 1076.19 956.554 1076.19 Z" fill="#000000" fill-rule="nonzero" fill-opacity="1" /><path clip-path="url(#clip290)" d="M977.526 1107.44 L985.165 1107.44 L985.165 1081.07 L976.855 1082.74 L976.855 1078.48 L985.119 1076.82 L989.795 1076.82 L989.795 1107.44 L997.434 1107.44 L997.434 1111.38 L977.526 1111.38 L977.526 1107.44 Z" fill="#000000" fill-rule="nonzero" fill-opacity="1" /><path clip-path="url(#clip290)" d="M1608.95 1107.44 L1625.27 1107.44 L1625.27 1111.38 L1603.33 1111.38 L1603.33 1107.44 Q1605.99 1104.69 1610.58 1100.06 Q1615.18 1095.4 1616.36 1094.06 Q1618.61 1091.54 1619.49 1089.8 Q1620.39 1088.04 1620.39 1086.35 Q1620.39 1083.6 1618.45 1081.86 Q1616.52 1080.13 1613.42 1080.13 Q1611.22 1080.13 1608.77 1080.89 Q1606.34 1081.65 1603.56 1083.2 L1603.56 1078.48 Q1606.39 1077.35 1608.84 1076.77 Q1611.29 1076.19 1613.33 1076.19 Q1618.7 1076.19 1621.89 1078.88 Q1625.09 1081.56 1625.09 1086.05 Q1625.09 1088.18 1624.28 1090.1 Q1623.49 1092 1621.39 1094.59 Q1620.81 1095.26 1617.7 1098.48 Q1614.6 1101.68 1608.95 1107.44 Z" fill="#000000" fill-rule="nonzero" fill-opacity="1" /><path clip-path="url(#clip290)" d="M1645.09 1079.89 Q1641.48 1079.89 1639.65 1083.46 Q1637.84 1087 1637.84 1094.13 Q1637.84 1101.24 1639.65 1104.8 Q1641.48 1108.34 1645.09 1108.34 Q1648.72 1108.34 1650.53 1104.8 Q1652.36 1101.24 1652.36 1094.13 Q1652.36 1087 1650.53 1083.46 Q1648.72 1079.89 1645.09 1079.89 M1645.09 1076.19 Q1650.9 1076.19 1653.95 1080.8 Q1657.03 1085.38 1657.03 1094.13 Q1657.03 1102.86 1653.95 1107.46 Q1650.9 1112.05 1645.09 1112.05 Q1639.28 1112.05 1636.2 1107.46 Q1633.14 1102.86 1633.14 1094.13 Q1633.14 1085.38 1636.2 1080.8 Q1639.28 1076.19 1645.09 1076.19 Z" fill="#000000" fill-rule="nonzero" fill-opacity="1" /><path clip-path="url(#clip290)" d="M1669.28 1107.44 L1685.6 1107.44 L1685.6 1111.38 L1663.65 1111.38 L1663.65 1107.44 Q1666.32 1104.69 1670.9 1100.06 Q1675.51 1095.4 1676.69 1094.06 Q1678.93 1091.54 1679.81 1089.8 Q1680.71 1088.04 1680.71 1086.35 Q1680.71 1083.6 1678.77 1081.86 Q1676.85 1080.13 1673.75 1080.13 Q1671.55 1080.13 1669.09 1080.89 Q1666.66 1081.65 1663.88 1083.2 L1663.88 1078.48 Q1666.71 1077.35 1669.16 1076.77 Q1671.62 1076.19 1673.65 1076.19 Q1679.02 1076.19 1682.22 1078.88 Q1685.41 1081.56 1685.41 1086.05 Q1685.41 1088.18 1684.6 1090.1 Q1683.82 1092 1681.71 1094.59 Q1681.13 1095.26 1678.03 1098.48 Q1674.93 1101.68 1669.28 1107.44 Z" fill="#000000" fill-rule="nonzero" fill-opacity="1" /><path clip-path="url(#clip290)" d="M1708.26 1080.89 L1696.45 1099.34 L1708.26 1099.34 L1708.26 1080.89 M1707.03 1076.82 L1712.91 1076.82 L1712.91 1099.34 L1717.84 1099.34 L1717.84 1103.23 L1712.91 1103.23 L1712.91 1111.38 L1708.26 1111.38 L1708.26 1103.23 L1692.66 1103.23 L1692.66 1098.71 L1707.03 1076.82 Z" fill="#000000" fill-rule="nonzero" fill-opacity="1" /><path clip-path="url(#clip290)" d="M1722.82 1096.49 L1735.3 1096.49 L1735.3 1100.29 L1722.82 1100.29 L1722.82 1096.49 Z" fill="#000000" fill-rule="nonzero" fill-opacity="1" /><path clip-path="url(#clip290)" d="M1752.68 1079.89 Q1749.07 1079.89 1747.24 1083.46 Q1745.44 1087 1745.44 1094.13 Q1745.44 1101.24 1747.24 1104.8 Q1749.07 1108.34 1752.68 1108.34 Q1756.31 1108.34 1758.12 1104.8 Q1759.95 1101.24 1759.95 1094.13 Q1759.95 1087 1758.12 1083.46 Q1756.31 1079.89 1752.68 1079.89 M1752.68 1076.19 Q1758.49 1076.19 1761.55 1080.8 Q1764.63 1085.38 1764.63 1094.13 Q1764.63 1102.86 1761.55 1107.46 Q1758.49 1112.05 1752.68 1112.05 Q1746.87 1112.05 1743.79 1107.46 Q1740.74 1102.86 1740.74 1094.13 Q1740.74 1085.38 1743.79 1080.8 Q1746.87 1076.19 1752.68 1076.19 Z" fill="#000000" fill-rule="nonzero" fill-opacity="1" /><path clip-path="url(#clip290)" d="M1772.98 1110.66 L1772.98 1106.4 Q1774.74 1107.23 1776.55 1107.67 Q1778.35 1108.11 1780.09 1108.11 Q1784.72 1108.11 1787.15 1105.01 Q1789.6 1101.89 1789.95 1095.54 Q1788.61 1097.53 1786.55 1098.6 Q1784.49 1099.66 1781.99 1099.66 Q1776.8 1099.66 1773.77 1096.54 Q1770.76 1093.39 1770.76 1087.95 Q1770.76 1082.63 1773.91 1079.41 Q1777.06 1076.19 1782.29 1076.19 Q1788.28 1076.19 1791.43 1080.8 Q1794.6 1085.38 1794.6 1094.13 Q1794.6 1102.3 1790.71 1107.19 Q1786.85 1112.05 1780.3 1112.05 Q1778.54 1112.05 1776.73 1111.7 Q1774.93 1111.35 1772.98 1110.66 M1782.29 1096.01 Q1785.44 1096.01 1787.26 1093.85 Q1789.12 1091.7 1789.12 1087.95 Q1789.12 1084.22 1787.26 1082.07 Q1785.44 1079.89 1782.29 1079.89 Q1779.14 1079.89 1777.29 1082.07 Q1775.46 1084.22 1775.46 1087.95 Q1775.46 1091.7 1777.29 1093.85 Q1779.14 1096.01 1782.29 1096.01 Z" fill="#000000" fill-rule="nonzero" fill-opacity="1" /><path clip-path="url(#clip290)" d="M1800.25 1096.49 L1812.73 1096.49 L1812.73 1100.29 L1800.25 1100.29 L1800.25 1096.49 Z" fill="#000000" fill-rule="nonzero" fill-opacity="1" /><path clip-path="url(#clip290)" d="M1830.11 1079.89 Q1826.5 1079.89 1824.67 1083.46 Q1822.87 1087 1822.87 1094.13 Q1822.87 1101.24 1824.67 1104.8 Q1826.5 1108.34 1830.11 1108.34 Q1833.75 1108.34 1835.55 1104.8 Q1837.38 1101.24 1837.38 1094.13 Q1837.38 1087 1835.55 1083.46 Q1833.75 1079.89 1830.11 1079.89 M1830.11 1076.19 Q1835.92 1076.19 1838.98 1080.8 Q1842.06 1085.38 1842.06 1094.13 Q1842.06 1102.86 1838.98 1107.46 Q1835.92 1112.05 1830.11 1112.05 Q1824.3 1112.05 1821.22 1107.46 Q1818.17 1102.86 1818.17 1094.13 Q1818.17 1085.38 1821.22 1080.8 Q1824.3 1076.19 1830.11 1076.19 Z" fill="#000000" fill-rule="nonzero" fill-opacity="1" /><path clip-path="url(#clip290)" d="M1851.08 1107.44 L1858.72 1107.44 L1858.72 1081.07 L1850.41 1082.74 L1850.41 1078.48 L1858.68 1076.82 L1863.35 1076.82 L1863.35 1107.44 L1870.99 1107.44 L1870.99 1111.38 L1851.08 1111.38 L1851.08 1107.44 Z" fill="#000000" fill-rule="nonzero" fill-opacity="1" /><path clip-path="url(#clip290)" d="M2454.33 1107.44 L2470.65 1107.44 L2470.65 1111.38 L2448.71 1111.38 L2448.71 1107.44 Q2451.37 1104.69 2455.95 1100.06 Q2460.56 1095.4 2461.74 1094.06 Q2463.98 1091.54 2464.86 1089.8 Q2465.77 1088.04 2465.77 1086.35 Q2465.77 1083.6 2463.82 1081.86 Q2461.9 1080.13 2458.8 1080.13 Q2456.6 1080.13 2454.15 1080.89 Q2451.72 1081.65 2448.94 1083.2 L2448.94 1078.48 Q2451.76 1077.35 2454.22 1076.77 Q2456.67 1076.19 2458.71 1076.19 Q2464.08 1076.19 2467.27 1078.88 Q2470.47 1081.56 2470.47 1086.05 Q2470.47 1088.18 2469.66 1090.1 Q2468.87 1092 2466.76 1094.59 Q2466.18 1095.26 2463.08 1098.48 Q2459.98 1101.68 2454.33 1107.44 Z" fill="#000000" fill-rule="nonzero" fill-opacity="1" /><path clip-path="url(#clip290)" d="M2490.47 1079.89 Q2486.86 1079.89 2485.03 1083.46 Q2483.22 1087 2483.22 1094.13 Q2483.22 1101.24 2485.03 1104.8 Q2486.86 1108.34 2490.47 1108.34 Q2494.1 1108.34 2495.91 1104.8 Q2497.73 1101.24 2497.73 1094.13 Q2497.73 1087 2495.91 1083.46 Q2494.1 1079.89 2490.47 1079.89 M2490.47 1076.19 Q2496.28 1076.19 2499.33 1080.8 Q2502.41 1085.38 2502.41 1094.13 Q2502.41 1102.86 2499.33 1107.46 Q2496.28 1112.05 2490.47 1112.05 Q2484.66 1112.05 2481.58 1107.46 Q2478.52 1102.86 2478.52 1094.13 Q2478.52 1085.38 2481.58 1080.8 Q2484.66 1076.19 2490.47 1076.19 Z" fill="#000000" fill-rule="nonzero" fill-opacity="1" /><path clip-path="url(#clip290)" d="M2514.66 1107.44 L2530.98 1107.44 L2530.98 1111.38 L2509.03 1111.38 L2509.03 1107.44 Q2511.69 1104.69 2516.28 1100.06 Q2520.88 1095.4 2522.06 1094.06 Q2524.31 1091.54 2525.19 1089.8 Q2526.09 1088.04 2526.09 1086.35 Q2526.09 1083.6 2524.15 1081.86 Q2522.23 1080.13 2519.12 1080.13 Q2516.92 1080.13 2514.47 1080.89 Q2512.04 1081.65 2509.26 1083.2 L2509.26 1078.48 Q2512.09 1077.35 2514.54 1076.77 Q2516.99 1076.19 2519.03 1076.19 Q2524.4 1076.19 2527.6 1078.88 Q2530.79 1081.56 2530.79 1086.05 Q2530.79 1088.18 2529.98 1090.1 Q2529.19 1092 2527.09 1094.59 Q2526.51 1095.26 2523.41 1098.48 Q2520.3 1101.68 2514.66 1107.44 Z" fill="#000000" fill-rule="nonzero" fill-opacity="1" /><path clip-path="url(#clip290)" d="M2553.64 1080.89 L2541.83 1099.34 L2553.64 1099.34 L2553.64 1080.89 M2552.41 1076.82 L2558.29 1076.82 L2558.29 1099.34 L2563.22 1099.34 L2563.22 1103.23 L2558.29 1103.23 L2558.29 1111.38 L2553.64 1111.38 L2553.64 1103.23 L2538.04 1103.23 L2538.04 1098.71 L2552.41 1076.82 Z" fill="#000000" fill-rule="nonzero" fill-opacity="1" /><path clip-path="url(#clip290)" d="M2568.2 1096.49 L2580.67 1096.49 L2580.67 1100.29 L2568.2 1100.29 L2568.2 1096.49 Z" fill="#000000" fill-rule="nonzero" fill-opacity="1" /><path clip-path="url(#clip290)" d="M2588.87 1107.44 L2596.51 1107.44 L2596.51 1081.07 L2588.2 1082.74 L2588.2 1078.48 L2596.46 1076.82 L2601.14 1076.82 L2601.14 1107.44 L2608.78 1107.44 L2608.78 1111.38 L2588.87 1111.38 L2588.87 1107.44 Z" fill="#000000" fill-rule="nonzero" fill-opacity="1" /><path clip-path="url(#clip290)" d="M2628.22 1079.89 Q2624.61 1079.89 2622.78 1083.46 Q2620.97 1087 2620.97 1094.13 Q2620.97 1101.24 2622.78 1104.8 Q2624.61 1108.34 2628.22 1108.34 Q2631.85 1108.34 2633.66 1104.8 Q2635.49 1101.24 2635.49 1094.13 Q2635.49 1087 2633.66 1083.46 Q2631.85 1079.89 2628.22 1079.89 M2628.22 1076.19 Q2634.03 1076.19 2637.09 1080.8 Q2640.16 1085.38 2640.16 1094.13 Q2640.16 1102.86 2637.09 1107.46 Q2634.03 1112.05 2628.22 1112.05 Q2622.41 1112.05 2619.33 1107.46 Q2616.28 1102.86 2616.28 1094.13 Q2616.28 1085.38 2619.33 1080.8 Q2622.41 1076.19 2628.22 1076.19 Z" fill="#000000" fill-rule="nonzero" fill-opacity="1" /><path clip-path="url(#clip290)" d="M2645.63 1096.49 L2658.1 1096.49 L2658.1 1100.29 L2645.63 1100.29 L2645.63 1096.49 Z" fill="#000000" fill-rule="nonzero" fill-opacity="1" /><path clip-path="url(#clip290)" d="M2675.49 1079.89 Q2671.88 1079.89 2670.05 1083.46 Q2668.24 1087 2668.24 1094.13 Q2668.24 1101.24 2670.05 1104.8 Q2671.88 1108.34 2675.49 1108.34 Q2679.12 1108.34 2680.93 1104.8 Q2682.76 1101.24 2682.76 1094.13 Q2682.76 1087 2680.93 1083.46 Q2679.12 1079.89 2675.49 1079.89 M2675.49 1076.19 Q2681.3 1076.19 2684.35 1080.8 Q2687.43 1085.38 2687.43 1094.13 Q2687.43 1102.86 2684.35 1107.46 Q2681.3 1112.05 2675.49 1112.05 Q2669.68 1112.05 2666.6 1107.46 Q2663.54 1102.86 2663.54 1094.13 Q2663.54 1085.38 2666.6 1080.8 Q2669.68 1076.19 2675.49 1076.19 Z" fill="#000000" fill-rule="nonzero" fill-opacity="1" /><path clip-path="url(#clip290)" d="M2696.46 1107.44 L2704.1 1107.44 L2704.1 1081.07 L2695.79 1082.74 L2695.79 1078.48 L2704.05 1076.82 L2708.73 1076.82 L2708.73 1107.44 L2716.37 1107.44 L2716.37 1111.38 L2696.46 1111.38 L2696.46 1107.44 Z" fill="#000000" fill-rule="nonzero" fill-opacity="1" /><polyline clip-path="url(#clip292)" style="stroke:#000000; stroke-linecap:round; stroke-linejoin:round; stroke-width:2; stroke-opacity:0.1; fill:none" points="271.839,1042.58 3089.76,1042.58 "/>
<polyline clip-path="url(#clip292)" style="stroke:#000000; stroke-linecap:round; stroke-linejoin:round; stroke-width:2; stroke-opacity:0.1; fill:none" points="271.839,674.648 3089.76,674.648 "/>
<polyline clip-path="url(#clip292)" style="stroke:#000000; stroke-linecap:round; stroke-linejoin:round; stroke-width:2; stroke-opacity:0.1; fill:none" points="271.839,306.719 3089.76,306.719 "/>
<polyline clip-path="url(#clip290)" style="stroke:#000000; stroke-linecap:round; stroke-linejoin:round; stroke-width:4; stroke-opacity:1; fill:none" points="271.839,1042.58 271.839,110.236 "/>
<polyline clip-path="url(#clip290)" style="stroke:#000000; stroke-linecap:round; stroke-linejoin:round; stroke-width:4; stroke-opacity:1; fill:none" points="271.839,1042.58 290.737,1042.58 "/>
<polyline clip-path="url(#clip290)" style="stroke:#000000; stroke-linecap:round; stroke-linejoin:round; stroke-width:4; stroke-opacity:1; fill:none" points="271.839,674.648 290.737,674.648 "/>
<polyline clip-path="url(#clip290)" style="stroke:#000000; stroke-linecap:round; stroke-linejoin:round; stroke-width:4; stroke-opacity:1; fill:none" points="271.839,306.719 290.737,306.719 "/>
<path clip-path="url(#clip290)" d="M153.134 1062.37 L160.772 1062.37 L160.772 1036 L152.462 1037.67 L152.462 1033.41 L160.726 1031.74 L165.402 1031.74 L165.402 1062.37 L173.041 1062.37 L173.041 1066.3 L153.134 1066.3 L153.134 1062.37 Z" fill="#000000" fill-rule="nonzero" fill-opacity="1" /><path clip-path="url(#clip290)" d="M192.485 1034.82 Q188.874 1034.82 187.045 1038.39 Q185.24 1041.93 185.24 1049.06 Q185.24 1056.16 187.045 1059.73 Q188.874 1063.27 192.485 1063.27 Q196.119 1063.27 197.925 1059.73 Q199.754 1056.16 199.754 1049.06 Q199.754 1041.93 197.925 1038.39 Q196.119 1034.82 192.485 1034.82 M192.485 1031.12 Q198.295 1031.12 201.351 1035.72 Q204.43 1040.31 204.43 1049.06 Q204.43 1057.78 201.351 1062.39 Q198.295 1066.97 192.485 1066.97 Q186.675 1066.97 183.596 1062.39 Q180.541 1057.78 180.541 1049.06 Q180.541 1040.31 183.596 1035.72 Q186.675 1031.12 192.485 1031.12 Z" fill="#000000" fill-rule="nonzero" fill-opacity="1" /><path clip-path="url(#clip290)" d="M214.134 1013.31 Q211.2 1013.31 209.715 1016.21 Q208.248 1019.09 208.248 1024.88 Q208.248 1030.66 209.715 1033.55 Q211.2 1036.43 214.134 1036.43 Q217.087 1036.43 218.554 1033.55 Q220.04 1030.66 220.04 1024.88 Q220.04 1019.09 218.554 1016.21 Q217.087 1013.31 214.134 1013.31 M214.134 1010.31 Q218.855 1010.31 221.338 1014.05 Q223.839 1017.77 223.839 1024.88 Q223.839 1031.97 221.338 1035.71 Q218.855 1039.44 214.134 1039.44 Q209.414 1039.44 206.912 1035.71 Q204.43 1031.97 204.43 1024.88 Q204.43 1017.77 206.912 1014.05 Q209.414 1010.31 214.134 1010.31 Z" fill="#000000" fill-rule="nonzero" fill-opacity="1" /><path clip-path="url(#clip290)" d="M155.823 694.44 L163.462 694.44 L163.462 668.074 L155.152 669.741 L155.152 665.482 L163.416 663.815 L168.092 663.815 L168.092 694.44 L175.73 694.44 L175.73 698.375 L155.823 698.375 L155.823 694.44 Z" fill="#000000" fill-rule="nonzero" fill-opacity="1" /><path clip-path="url(#clip290)" d="M195.175 666.894 Q191.564 666.894 189.735 670.459 Q187.929 674 187.929 681.13 Q187.929 688.236 189.735 691.801 Q191.564 695.343 195.175 695.343 Q198.809 695.343 200.615 691.801 Q202.443 688.236 202.443 681.13 Q202.443 674 200.615 670.459 Q198.809 666.894 195.175 666.894 M195.175 663.19 Q200.985 663.19 204.04 667.797 Q207.119 672.38 207.119 681.13 Q207.119 689.857 204.04 694.463 Q200.985 699.046 195.175 699.046 Q189.365 699.046 186.286 694.463 Q183.23 689.857 183.23 681.13 Q183.23 672.38 186.286 667.797 Q189.365 663.19 195.175 663.19 Z" fill="#000000" fill-rule="nonzero" fill-opacity="1" /><path clip-path="url(#clip290)" d="M207.665 667.767 L213.871 667.767 L213.871 646.345 L207.119 647.7 L207.119 644.239 L213.833 642.885 L217.633 642.885 L217.633 667.767 L223.839 667.767 L223.839 670.965 L207.665 670.965 L207.665 667.767 Z" fill="#000000" fill-rule="nonzero" fill-opacity="1" /><path clip-path="url(#clip290)" d="M154.713 326.512 L162.352 326.512 L162.352 300.146 L154.042 301.813 L154.042 297.554 L162.306 295.887 L166.982 295.887 L166.982 326.512 L174.621 326.512 L174.621 330.447 L154.713 330.447 L154.713 326.512 Z" fill="#000000" fill-rule="nonzero" fill-opacity="1" /><path clip-path="url(#clip290)" d="M194.065 298.966 Q190.454 298.966 188.625 302.531 Q186.82 306.072 186.82 313.202 Q186.82 320.308 188.625 323.873 Q190.454 327.415 194.065 327.415 Q197.699 327.415 199.505 323.873 Q201.334 320.308 201.334 313.202 Q201.334 306.072 199.505 302.531 Q197.699 298.966 194.065 298.966 M194.065 295.262 Q199.875 295.262 202.931 299.869 Q206.009 304.452 206.009 313.202 Q206.009 321.929 202.931 326.535 Q199.875 331.118 194.065 331.118 Q188.255 331.118 185.176 326.535 Q182.121 321.929 182.121 313.202 Q182.121 304.452 185.176 299.869 Q188.255 295.262 194.065 295.262 Z" fill="#000000" fill-rule="nonzero" fill-opacity="1" /><path clip-path="url(#clip290)" d="M210.58 299.839 L223.839 299.839 L223.839 303.037 L206.009 303.037 L206.009 299.839 Q208.172 297.601 211.896 293.84 Q215.639 290.059 216.598 288.968 Q218.423 286.918 219.137 285.508 Q219.871 284.078 219.871 282.705 Q219.871 280.467 218.291 279.057 Q216.73 277.646 214.21 277.646 Q212.423 277.646 210.429 278.267 Q208.454 278.887 206.198 280.148 L206.198 276.311 Q208.492 275.389 210.486 274.919 Q212.479 274.449 214.134 274.449 Q218.498 274.449 221.093 276.631 Q223.689 278.812 223.689 282.461 Q223.689 284.191 223.03 285.752 Q222.391 287.295 220.68 289.401 Q220.209 289.946 217.689 292.561 Q215.169 295.156 210.58 299.839 Z" fill="#000000" fill-rule="nonzero" fill-opacity="1" /><path clip-path="url(#clip290)" d="M83.4268 910.828 L70.6636 910.828 L70.6636 921.332 L65.38 921.332 L65.38 904.463 L85.7821 904.463 Q88.4239 908.187 89.7925 912.674 Q91.1293 917.162 91.1293 922.255 Q91.1293 933.395 84.6363 939.697 Q78.1114 945.967 66.494 945.967 Q54.8448 945.967 48.3518 939.697 Q41.8269 933.395 41.8269 922.255 Q41.8269 917.608 42.9727 913.438 Q44.1186 909.237 46.3466 905.704 L53.1897 905.704 Q50.166 909.269 48.6382 913.279 Q47.1104 917.29 47.1104 921.714 Q47.1104 930.435 51.9802 934.827 Q56.85 939.188 66.494 939.188 Q76.1062 939.188 80.976 934.827 Q85.8458 930.435 85.8458 921.714 Q85.8458 918.308 85.2729 915.634 Q84.6681 912.961 83.4268 910.828 Z" fill="#000000" fill-rule="nonzero" fill-opacity="1" /><path clip-path="url(#clip290)" d="M70.9182 862.481 L73.7828 862.481 L73.7828 889.408 Q79.8302 889.026 83.013 885.779 Q86.1641 882.501 86.1641 876.676 Q86.1641 873.303 85.3365 870.152 Q84.509 866.969 82.8539 863.849 L88.3921 863.849 Q89.7289 867 90.4291 870.311 Q91.1293 873.621 91.1293 877.026 Q91.1293 885.557 86.1641 890.554 Q81.1988 895.519 72.7324 895.519 Q63.9796 895.519 58.8552 890.808 Q53.699 886.066 53.699 878.045 Q53.699 870.852 58.3459 866.682 Q62.9611 862.481 70.9182 862.481 M69.1995 868.337 Q64.3933 868.401 61.5288 871.043 Q58.6642 873.653 58.6642 877.981 Q58.6642 882.883 61.4333 885.843 Q64.2024 888.771 69.2313 889.217 L69.1995 868.337 Z" fill="#000000" fill-rule="nonzero" fill-opacity="1" /><path clip-path="url(#clip290)" d="M68.6902 823.236 L90.2063 823.236 L90.2063 829.093 L68.8812 829.093 Q63.8204 829.093 61.306 831.066 Q58.7915 833.039 58.7915 836.986 Q58.7915 841.729 61.8152 844.466 Q64.8389 847.203 70.0588 847.203 L90.2063 847.203 L90.2063 853.091 L54.5583 853.091 L54.5583 847.203 L60.0965 847.203 Q56.8818 845.102 55.2904 842.27 Q53.699 839.405 53.699 835.681 Q53.699 829.538 57.5184 826.387 Q61.306 823.236 68.6902 823.236 Z" fill="#000000" fill-rule="nonzero" fill-opacity="1" /><path clip-path="url(#clip290)" d="M58.6642 797.742 Q58.6642 802.452 62.3563 805.189 Q66.0166 807.927 72.4141 807.927 Q78.8117 807.927 82.5038 805.221 Q86.1641 802.484 86.1641 797.742 Q86.1641 793.063 82.4719 790.326 Q78.7798 787.588 72.4141 787.588 Q66.0803 787.588 62.3881 790.326 Q58.6642 793.063 58.6642 797.742 M53.699 797.742 Q53.699 790.103 58.6642 785.742 Q63.6295 781.382 72.4141 781.382 Q81.167 781.382 86.1641 785.742 Q91.1293 790.103 91.1293 797.742 Q91.1293 805.412 86.1641 809.773 Q81.167 814.101 72.4141 814.101 Q63.6295 814.101 58.6642 809.773 Q53.699 805.412 53.699 797.742 Z" fill="#000000" fill-rule="nonzero" fill-opacity="1" /><path clip-path="url(#clip290)" d="M61.4015 743.92 Q57.4547 741.723 55.5768 738.668 Q53.699 735.612 53.699 731.475 Q53.699 725.905 57.6139 722.881 Q61.4969 719.857 68.6902 719.857 L90.2063 719.857 L90.2063 725.745 L68.8812 725.745 Q63.7568 725.745 61.2741 727.56 Q58.7915 729.374 58.7915 733.098 Q58.7915 737.649 61.8152 740.291 Q64.8389 742.933 70.0588 742.933 L90.2063 742.933 L90.2063 748.821 L68.8812 748.821 Q63.7249 748.821 61.2741 750.635 Q58.7915 752.45 58.7915 756.237 Q58.7915 760.725 61.8471 763.367 Q64.8708 766.009 70.0588 766.009 L90.2063 766.009 L90.2063 771.897 L54.5583 771.897 L54.5583 766.009 L60.0965 766.009 Q56.8182 764.003 55.2586 761.202 Q53.699 758.402 53.699 754.55 Q53.699 750.667 55.6723 747.962 Q57.6457 745.225 61.4015 743.92 Z" fill="#000000" fill-rule="nonzero" fill-opacity="1" /><path clip-path="url(#clip290)" d="M70.9182 677.684 L73.7828 677.684 L73.7828 704.611 Q79.8302 704.229 83.013 700.983 Q86.1641 697.705 86.1641 691.88 Q86.1641 688.506 85.3365 685.355 Q84.509 682.172 82.8539 679.053 L88.3921 679.053 Q89.7289 682.204 90.4291 685.514 Q91.1293 688.824 91.1293 692.23 Q91.1293 700.76 86.1641 705.757 Q81.1988 710.722 72.7324 710.722 Q63.9796 710.722 58.8552 706.012 Q53.699 701.269 53.699 693.249 Q53.699 686.055 58.3459 681.886 Q62.9611 677.684 70.9182 677.684 M69.1995 683.541 Q64.3933 683.604 61.5288 686.246 Q58.6642 688.856 58.6642 693.185 Q58.6642 698.086 61.4333 701.047 Q64.2024 703.975 69.2313 704.42 L69.1995 683.541 Z" fill="#000000" fill-rule="nonzero" fill-opacity="1" /><path clip-path="url(#clip290)" d="M55.6087 645.347 L61.1468 645.347 Q59.8737 647.829 59.2371 650.503 Q58.6006 653.176 58.6006 656.041 Q58.6006 660.401 59.9373 662.598 Q61.2741 664.762 63.9477 664.762 Q65.9848 664.762 67.1624 663.202 Q68.3083 661.643 69.3586 656.932 L69.8042 654.927 Q71.141 648.689 73.5918 646.079 Q76.0108 643.437 80.3713 643.437 Q85.3365 643.437 88.2329 647.384 Q91.1293 651.299 91.1293 658.173 Q91.1293 661.038 90.5564 664.157 Q90.0153 667.245 88.9013 670.682 L82.8539 670.682 Q84.5408 667.436 85.4002 664.285 Q86.2277 661.134 86.2277 658.046 Q86.2277 653.908 84.8273 651.68 Q83.395 649.452 80.8169 649.452 Q78.4297 649.452 77.1566 651.076 Q75.8834 652.667 74.7058 658.11 L74.2284 660.147 Q73.0825 665.59 70.7272 668.009 Q68.3401 670.427 64.2024 670.427 Q59.1735 670.427 56.4362 666.863 Q53.699 663.298 53.699 656.741 Q53.699 653.495 54.1764 650.63 Q54.6538 647.766 55.6087 645.347 Z" fill="#000000" fill-rule="nonzero" fill-opacity="1" /><path clip-path="url(#clip290)" d="M42.6863 623.703 L42.6863 618.292 L96.2537 634.843 L96.2537 640.254 L42.6863 623.703 Z" fill="#000000" fill-rule="nonzero" fill-opacity="1" /><path clip-path="url(#clip290)" d="M47.9698 605.465 L84.9227 605.465 L84.9227 597.699 Q84.9227 587.864 80.4668 583.313 Q76.0108 578.729 66.3985 578.729 Q56.85 578.729 52.4258 583.313 Q47.9698 587.864 47.9698 597.699 L47.9698 605.465 M42.6863 611.895 L42.6863 598.686 Q42.6863 584.872 48.4472 578.411 Q54.1764 571.95 66.3985 571.95 Q78.6844 571.95 84.4453 578.443 Q90.2063 584.936 90.2063 598.686 L90.2063 611.895 L42.6863 611.895 Z" fill="#000000" fill-rule="nonzero" fill-opacity="1" /><path clip-path="url(#clip290)" d="M72.2868 545.755 Q72.2868 552.853 73.9101 555.59 Q75.5333 558.327 79.4482 558.327 Q82.5674 558.327 84.4135 556.29 Q86.2277 554.221 86.2277 550.689 Q86.2277 545.819 82.7902 542.891 Q79.3209 539.93 73.5918 539.93 L72.2868 539.93 L72.2868 545.755 M69.8679 534.074 L90.2063 534.074 L90.2063 539.93 L84.7954 539.93 Q88.0419 541.936 89.6015 544.928 Q91.1293 547.919 91.1293 552.248 Q91.1293 557.723 88.0738 560.969 Q84.9864 564.184 79.8302 564.184 Q73.8146 564.184 70.759 560.173 Q67.7035 556.131 67.7035 548.142 L67.7035 539.93 L67.1306 539.93 Q63.0884 539.93 60.8922 542.604 Q58.6642 545.246 58.6642 550.052 Q58.6642 553.107 59.3963 556.004 Q60.1283 558.9 61.5924 561.574 L56.1816 561.574 Q54.9403 558.359 54.3355 555.335 Q53.699 552.312 53.699 549.447 Q53.699 541.713 57.7094 537.893 Q61.7197 534.074 69.8679 534.074 Z" fill="#000000" fill-rule="nonzero" fill-opacity="1" /><path clip-path="url(#clip290)" d="M93.5165 507.179 Q99.8822 509.662 101.824 512.017 Q103.765 514.372 103.765 518.319 L103.765 522.998 L98.8636 522.998 L98.8636 519.56 Q98.8636 517.141 97.7178 515.804 Q96.572 514.468 92.307 512.844 L89.6334 511.794 L54.5583 526.212 L54.5583 520.006 L82.4401 508.866 L54.5583 497.726 L54.5583 491.519 L93.5165 507.179 Z" fill="#000000" fill-rule="nonzero" fill-opacity="1" /><path clip-path="url(#clip290)" d="M40.7447 448.646 Q48.0653 452.911 55.2267 454.98 Q62.3881 457.049 69.7405 457.049 Q77.0929 457.049 84.318 454.98 Q91.5113 452.879 98.8 448.646 L98.8 453.739 Q91.3203 458.513 84.0952 460.9 Q76.8701 463.256 69.7405 463.256 Q62.6428 463.256 55.4495 460.9 Q48.2563 458.545 40.7447 453.739 L40.7447 448.646 Z" fill="#000000" fill-rule="nonzero" fill-opacity="1" /><path clip-path="url(#clip290)" d="M42.6863 437.029 L42.6863 409.72 L48.0971 409.72 L48.0971 430.599 L62.1017 430.599 L62.1017 411.757 L67.5125 411.757 L67.5125 430.599 L90.2063 430.599 L90.2063 437.029 L42.6863 437.029 Z" fill="#000000" fill-rule="nonzero" fill-opacity="1" /><path clip-path="url(#clip290)" d="M60.0328 383.875 Q59.4599 384.862 59.2053 386.04 Q58.9188 387.185 58.9188 388.586 Q58.9188 393.551 62.1653 396.225 Q65.38 398.866 71.4274 398.866 L90.2063 398.866 L90.2063 404.755 L54.5583 404.755 L54.5583 398.866 L60.0965 398.866 Q56.85 397.02 55.2904 394.06 Q53.699 391.1 53.699 386.867 Q53.699 386.262 53.7944 385.53 Q53.8581 384.798 54.0172 383.907 L60.0328 383.875 Z" fill="#000000" fill-rule="nonzero" fill-opacity="1" /><path clip-path="url(#clip290)" d="M72.2868 361.532 Q72.2868 368.629 73.9101 371.367 Q75.5333 374.104 79.4482 374.104 Q82.5674 374.104 84.4135 372.067 Q86.2277 369.998 86.2277 366.465 Q86.2277 361.595 82.7902 358.667 Q79.3209 355.707 73.5918 355.707 L72.2868 355.707 L72.2868 361.532 M69.8679 349.85 L90.2063 349.85 L90.2063 355.707 L84.7954 355.707 Q88.0419 357.712 89.6015 360.704 Q91.1293 363.696 91.1293 368.025 Q91.1293 373.499 88.0738 376.746 Q84.9864 379.96 79.8302 379.96 Q73.8146 379.96 70.759 375.95 Q67.7035 371.908 67.7035 363.919 L67.7035 355.707 L67.1306 355.707 Q63.0884 355.707 60.8922 358.381 Q58.6642 361.022 58.6642 365.828 Q58.6642 368.884 59.3963 371.78 Q60.1283 374.677 61.5924 377.35 L56.1816 377.35 Q54.9403 374.136 54.3355 371.112 Q53.699 368.088 53.699 365.224 Q53.699 357.489 57.7094 353.67 Q61.7197 349.85 69.8679 349.85 Z" fill="#000000" fill-rule="nonzero" fill-opacity="1" /><path clip-path="url(#clip290)" d="M68.6902 308.155 L90.2063 308.155 L90.2063 314.012 L68.8812 314.012 Q63.8204 314.012 61.306 315.985 Q58.7915 317.958 58.7915 321.905 Q58.7915 326.647 61.8152 329.385 Q64.8389 332.122 70.0588 332.122 L90.2063 332.122 L90.2063 338.01 L54.5583 338.01 L54.5583 332.122 L60.0965 332.122 Q56.8818 330.021 55.2904 327.189 Q53.699 324.324 53.699 320.6 Q53.699 314.457 57.5184 311.306 Q61.306 308.155 68.6902 308.155 Z" fill="#000000" fill-rule="nonzero" fill-opacity="1" /><path clip-path="url(#clip290)" d="M55.927 270.82 L61.4015 270.82 Q60.0328 273.303 59.3644 275.817 Q58.6642 278.3 58.6642 280.846 Q58.6642 286.544 62.2927 289.695 Q65.8893 292.846 72.4141 292.846 Q78.939 292.846 82.5674 289.695 Q86.1641 286.544 86.1641 280.846 Q86.1641 278.3 85.4957 275.817 Q84.7954 273.303 83.4268 270.82 L88.8377 270.82 Q89.9835 273.271 90.5564 275.913 Q91.1293 278.523 91.1293 281.483 Q91.1293 289.535 86.0686 294.278 Q81.0078 299.02 72.4141 299.02 Q63.6931 299.02 58.696 294.246 Q53.699 289.44 53.699 281.101 Q53.699 278.395 54.2719 275.817 Q54.813 273.239 55.927 270.82 Z" fill="#000000" fill-rule="nonzero" fill-opacity="1" /><path clip-path="url(#clip290)" d="M70.9182 230.143 L73.7828 230.143 L73.7828 257.07 Q79.8302 256.688 83.013 253.442 Q86.1641 250.164 86.1641 244.339 Q86.1641 240.965 85.3365 237.814 Q84.509 234.631 82.8539 231.512 L88.3921 231.512 Q89.7289 234.663 90.4291 237.973 Q91.1293 241.283 91.1293 244.689 Q91.1293 253.219 86.1641 258.216 Q81.1988 263.181 72.7324 263.181 Q63.9796 263.181 58.8552 258.471 Q53.699 253.728 53.699 245.708 Q53.699 238.514 58.3459 234.345 Q62.9611 230.143 70.9182 230.143 M69.1995 236 Q64.3933 236.063 61.5288 238.705 Q58.6642 241.315 58.6642 245.644 Q58.6642 250.545 61.4333 253.506 Q64.2024 256.434 69.2313 256.879 L69.1995 236 Z" fill="#000000" fill-rule="nonzero" fill-opacity="1" /><path clip-path="url(#clip290)" d="M40.7447 221.454 L40.7447 216.362 Q48.2563 211.587 55.4495 209.232 Q62.6428 206.845 69.7405 206.845 Q76.8701 206.845 84.0952 209.232 Q91.3203 211.587 98.8 216.362 L98.8 221.454 Q91.5113 217.221 84.318 215.152 Q77.0929 213.051 69.7405 213.051 Q62.3881 213.051 55.2267 215.152 Q48.0653 217.221 40.7447 221.454 Z" fill="#000000" fill-rule="nonzero" fill-opacity="1" /><path clip-path="url(#clip292)" d="M288.747 474.47 L288.747 1042.58 L311.29 1042.58 L311.29 474.47 L288.747 474.47 L288.747 474.47  Z" fill="#009af9" fill-rule="evenodd" fill-opacity="0.5"/>
<polyline clip-path="url(#clip292)" style="stroke:#000000; stroke-linecap:round; stroke-linejoin:round; stroke-width:4; stroke-opacity:0.5; fill:none" points="288.747,474.47 288.747,1042.58 311.29,1042.58 311.29,474.47 288.747,474.47 "/>
<path clip-path="url(#clip292)" d="M316.926 499.101 L316.926 1042.58 L339.469 1042.58 L339.469 499.101 L316.926 499.101 L316.926 499.101  Z" fill="#009af9" fill-rule="evenodd" fill-opacity="0.5"/>
<polyline clip-path="url(#clip292)" style="stroke:#000000; stroke-linecap:round; stroke-linejoin:round; stroke-width:4; stroke-opacity:0.5; fill:none" points="316.926,499.101 316.926,1042.58 339.469,1042.58 339.469,499.101 316.926,499.101 "/>
<path clip-path="url(#clip292)" d="M345.105 563.89 L345.105 1042.58 L367.649 1042.58 L367.649 563.89 L345.105 563.89 L345.105 563.89  Z" fill="#009af9" fill-rule="evenodd" fill-opacity="0.5"/>
<polyline clip-path="url(#clip292)" style="stroke:#000000; stroke-linecap:round; stroke-linejoin:round; stroke-width:4; stroke-opacity:0.5; fill:none" points="345.105,563.89 345.105,1042.58 367.649,1042.58 367.649,563.89 345.105,563.89 "/>
<path clip-path="url(#clip292)" d="M373.285 110.236 L373.285 1042.58 L395.828 1042.58 L395.828 110.236 L373.285 110.236 L373.285 110.236  Z" fill="#009af9" fill-rule="evenodd" fill-opacity="0.5"/>
<polyline clip-path="url(#clip292)" style="stroke:#000000; stroke-linecap:round; stroke-linejoin:round; stroke-width:4; stroke-opacity:0.5; fill:none" points="373.285,110.236 373.285,1042.58 395.828,1042.58 395.828,110.236 373.285,110.236 "/>
<path clip-path="url(#clip292)" d="M401.464 420.705 L401.464 1042.58 L424.007 1042.58 L424.007 420.705 L401.464 420.705 L401.464 420.705  Z" fill="#009af9" fill-rule="evenodd" fill-opacity="0.5"/>
<polyline clip-path="url(#clip292)" style="stroke:#000000; stroke-linecap:round; stroke-linejoin:round; stroke-width:4; stroke-opacity:0.5; fill:none" points="401.464,420.705 401.464,1042.58 424.007,1042.58 424.007,420.705 401.464,420.705 "/>
<path clip-path="url(#clip292)" d="M429.643 541.558 L429.643 1042.58 L452.186 1042.58 L452.186 541.558 L429.643 541.558 L429.643 541.558  Z" fill="#009af9" fill-rule="evenodd" fill-opacity="0.5"/>
<polyline clip-path="url(#clip292)" style="stroke:#000000; stroke-linecap:round; stroke-linejoin:round; stroke-width:4; stroke-opacity:0.5; fill:none" points="429.643,541.558 429.643,1042.58 452.186,1042.58 452.186,541.558 429.643,541.558 "/>
<path clip-path="url(#clip292)" d="M457.822 572.086 L457.822 1042.58 L480.366 1042.58 L480.366 572.086 L457.822 572.086 L457.822 572.086  Z" fill="#009af9" fill-rule="evenodd" fill-opacity="0.5"/>
<polyline clip-path="url(#clip292)" style="stroke:#000000; stroke-linecap:round; stroke-linejoin:round; stroke-width:4; stroke-opacity:0.5; fill:none" points="457.822,572.086 457.822,1042.58 480.366,1042.58 480.366,572.086 457.822,572.086 "/>
<path clip-path="url(#clip292)" d="M486.001 437.903 L486.001 1042.58 L508.545 1042.58 L508.545 437.903 L486.001 437.903 L486.001 437.903  Z" fill="#009af9" fill-rule="evenodd" fill-opacity="0.5"/>
<polyline clip-path="url(#clip292)" style="stroke:#000000; stroke-linecap:round; stroke-linejoin:round; stroke-width:4; stroke-opacity:0.5; fill:none" points="486.001,437.903 486.001,1042.58 508.545,1042.58 508.545,437.903 486.001,437.903 "/>
<path clip-path="url(#clip292)" d="M514.181 504.518 L514.181 1042.58 L536.724 1042.58 L536.724 504.518 L514.181 504.518 L514.181 504.518  Z" fill="#009af9" fill-rule="evenodd" fill-opacity="0.5"/>
<polyline clip-path="url(#clip292)" style="stroke:#000000; stroke-linecap:round; stroke-linejoin:round; stroke-width:4; stroke-opacity:0.5; fill:none" points="514.181,504.518 514.181,1042.58 536.724,1042.58 536.724,504.518 514.181,504.518 "/>
<path clip-path="url(#clip292)" d="M542.36 510.126 L542.36 1042.58 L564.903 1042.58 L564.903 510.126 L542.36 510.126 L542.36 510.126  Z" fill="#009af9" fill-rule="evenodd" fill-opacity="0.5"/>
<polyline clip-path="url(#clip292)" style="stroke:#000000; stroke-linecap:round; stroke-linejoin:round; stroke-width:4; stroke-opacity:0.5; fill:none" points="542.36,510.126 542.36,1042.58 564.903,1042.58 564.903,510.126 542.36,510.126 "/>
<path clip-path="url(#clip292)" d="M570.539 167.496 L570.539 1042.58 L593.083 1042.58 L593.083 167.496 L570.539 167.496 L570.539 167.496  Z" fill="#009af9" fill-rule="evenodd" fill-opacity="0.5"/>
<polyline clip-path="url(#clip292)" style="stroke:#000000; stroke-linecap:round; stroke-linejoin:round; stroke-width:4; stroke-opacity:0.5; fill:none" points="570.539,167.496 570.539,1042.58 593.083,1042.58 593.083,167.496 570.539,167.496 "/>
<path clip-path="url(#clip292)" d="M598.718 457.178 L598.718 1042.58 L621.262 1042.58 L621.262 457.178 L598.718 457.178 L598.718 457.178  Z" fill="#009af9" fill-rule="evenodd" fill-opacity="0.5"/>
<polyline clip-path="url(#clip292)" style="stroke:#000000; stroke-linecap:round; stroke-linejoin:round; stroke-width:4; stroke-opacity:0.5; fill:none" points="598.718,457.178 598.718,1042.58 621.262,1042.58 621.262,457.178 598.718,457.178 "/>
<path clip-path="url(#clip292)" d="M626.898 474.47 L626.898 1042.58 L649.441 1042.58 L649.441 474.47 L626.898 474.47 L626.898 474.47  Z" fill="#009af9" fill-rule="evenodd" fill-opacity="0.5"/>
<polyline clip-path="url(#clip292)" style="stroke:#000000; stroke-linecap:round; stroke-linejoin:round; stroke-width:4; stroke-opacity:0.5; fill:none" points="626.898,474.47 626.898,1042.58 649.441,1042.58 649.441,474.47 626.898,474.47 "/>
<path clip-path="url(#clip292)" d="M655.077 474.47 L655.077 1042.58 L677.62 1042.58 L677.62 474.47 L655.077 474.47 L655.077 474.47  Z" fill="#009af9" fill-rule="evenodd" fill-opacity="0.5"/>
<polyline clip-path="url(#clip292)" style="stroke:#000000; stroke-linecap:round; stroke-linejoin:round; stroke-width:4; stroke-opacity:0.5; fill:none" points="655.077,474.47 655.077,1042.58 677.62,1042.58 677.62,474.47 655.077,474.47 "/>
<path clip-path="url(#clip292)" d="M683.256 515.937 L683.256 1042.58 L705.8 1042.58 L705.8 515.937 L683.256 515.937 L683.256 515.937  Z" fill="#009af9" fill-rule="evenodd" fill-opacity="0.5"/>
<polyline clip-path="url(#clip292)" style="stroke:#000000; stroke-linecap:round; stroke-linejoin:round; stroke-width:4; stroke-opacity:0.5; fill:none" points="683.256,515.937 683.256,1042.58 705.8,1042.58 705.8,515.937 683.256,515.937 "/>
<path clip-path="url(#clip292)" d="M711.435 474.47 L711.435 1042.58 L733.979 1042.58 L733.979 474.47 L711.435 474.47 L711.435 474.47  Z" fill="#009af9" fill-rule="evenodd" fill-opacity="0.5"/>
<polyline clip-path="url(#clip292)" style="stroke:#000000; stroke-linecap:round; stroke-linejoin:round; stroke-width:4; stroke-opacity:0.5; fill:none" points="711.435,474.47 711.435,1042.58 733.979,1042.58 733.979,474.47 711.435,474.47 "/>
<path clip-path="url(#clip292)" d="M739.615 645.515 L739.615 1042.58 L762.158 1042.58 L762.158 645.515 L739.615 645.515 L739.615 645.515  Z" fill="#009af9" fill-rule="evenodd" fill-opacity="0.5"/>
<polyline clip-path="url(#clip292)" style="stroke:#000000; stroke-linecap:round; stroke-linejoin:round; stroke-width:4; stroke-opacity:0.5; fill:none" points="739.615,645.515 739.615,1042.58 762.158,1042.58 762.158,645.515 739.615,645.515 "/>
<path clip-path="url(#clip292)" d="M767.794 186.651 L767.794 1042.58 L790.337 1042.58 L790.337 186.651 L767.794 186.651 L767.794 186.651  Z" fill="#009af9" fill-rule="evenodd" fill-opacity="0.5"/>
<polyline clip-path="url(#clip292)" style="stroke:#000000; stroke-linecap:round; stroke-linejoin:round; stroke-width:4; stroke-opacity:0.5; fill:none" points="767.794,186.651 767.794,1042.58 790.337,1042.58 790.337,186.651 767.794,186.651 "/>
<path clip-path="url(#clip292)" d="M795.973 434.312 L795.973 1042.58 L818.517 1042.58 L818.517 434.312 L795.973 434.312 L795.973 434.312  Z" fill="#009af9" fill-rule="evenodd" fill-opacity="0.5"/>
<polyline clip-path="url(#clip292)" style="stroke:#000000; stroke-linecap:round; stroke-linejoin:round; stroke-width:4; stroke-opacity:0.5; fill:none" points="795.973,434.312 795.973,1042.58 818.517,1042.58 818.517,434.312 795.973,434.312 "/>
<path clip-path="url(#clip292)" d="M824.152 434.312 L824.152 1042.58 L846.696 1042.58 L846.696 434.312 L824.152 434.312 L824.152 434.312  Z" fill="#009af9" fill-rule="evenodd" fill-opacity="0.5"/>
<polyline clip-path="url(#clip292)" style="stroke:#000000; stroke-linecap:round; stroke-linejoin:round; stroke-width:4; stroke-opacity:0.5; fill:none" points="824.152,434.312 824.152,1042.58 846.696,1042.58 846.696,434.312 824.152,434.312 "/>
<path clip-path="url(#clip292)" d="M852.332 461.329 L852.332 1042.58 L874.875 1042.58 L874.875 461.329 L852.332 461.329 L852.332 461.329  Z" fill="#009af9" fill-rule="evenodd" fill-opacity="0.5"/>
<polyline clip-path="url(#clip292)" style="stroke:#000000; stroke-linecap:round; stroke-linejoin:round; stroke-width:4; stroke-opacity:0.5; fill:none" points="852.332,461.329 852.332,1042.58 874.875,1042.58 874.875,461.329 852.332,461.329 "/>
<path clip-path="url(#clip292)" d="M880.511 434.312 L880.511 1042.58 L903.054 1042.58 L903.054 434.312 L880.511 434.312 L880.511 434.312  Z" fill="#009af9" fill-rule="evenodd" fill-opacity="0.5"/>
<polyline clip-path="url(#clip292)" style="stroke:#000000; stroke-linecap:round; stroke-linejoin:round; stroke-width:4; stroke-opacity:0.5; fill:none" points="880.511,434.312 880.511,1042.58 903.054,1042.58 903.054,434.312 880.511,434.312 "/>
<path clip-path="url(#clip292)" d="M908.69 534.757 L908.69 1042.58 L931.234 1042.58 L931.234 534.757 L908.69 534.757 L908.69 534.757  Z" fill="#009af9" fill-rule="evenodd" fill-opacity="0.5"/>
<polyline clip-path="url(#clip292)" style="stroke:#000000; stroke-linecap:round; stroke-linejoin:round; stroke-width:4; stroke-opacity:0.5; fill:none" points="908.69,534.757 908.69,1042.58 931.234,1042.58 931.234,534.757 908.69,534.757 "/>
<path clip-path="url(#clip292)" d="M936.869 572.086 L936.869 1042.58 L959.413 1042.58 L959.413 572.086 L936.869 572.086 L936.869 572.086  Z" fill="#009af9" fill-rule="evenodd" fill-opacity="0.5"/>
<polyline clip-path="url(#clip292)" style="stroke:#000000; stroke-linecap:round; stroke-linejoin:round; stroke-width:4; stroke-opacity:0.5; fill:none" points="936.869,572.086 936.869,1042.58 959.413,1042.58 959.413,572.086 936.869,572.086 "/>
<path clip-path="url(#clip292)" d="M965.049 174.326 L965.049 1042.58 L987.592 1042.58 L987.592 174.326 L965.049 174.326 L965.049 174.326  Z" fill="#009af9" fill-rule="evenodd" fill-opacity="0.5"/>
<polyline clip-path="url(#clip292)" style="stroke:#000000; stroke-linecap:round; stroke-linejoin:round; stroke-width:4; stroke-opacity:0.5; fill:none" points="965.049,174.326 965.049,1042.58 987.592,1042.58 987.592,174.326 965.049,174.326 "/>
<path clip-path="url(#clip292)" d="M993.228 424 L993.228 1042.58 L1015.77 1042.58 L1015.77 424 L993.228 424 L993.228 424  Z" fill="#009af9" fill-rule="evenodd" fill-opacity="0.5"/>
<polyline clip-path="url(#clip292)" style="stroke:#000000; stroke-linecap:round; stroke-linejoin:round; stroke-width:4; stroke-opacity:0.5; fill:none" points="993.228,424 993.228,1042.58 1015.77,1042.58 1015.77,424 993.228,424 "/>
<path clip-path="url(#clip292)" d="M1021.41 474.47 L1021.41 1042.58 L1043.95 1042.58 L1043.95 474.47 L1021.41 474.47 L1021.41 474.47  Z" fill="#009af9" fill-rule="evenodd" fill-opacity="0.5"/>
<polyline clip-path="url(#clip292)" style="stroke:#000000; stroke-linecap:round; stroke-linejoin:round; stroke-width:4; stroke-opacity:0.5; fill:none" points="1021.41,474.47 1021.41,1042.58 1043.95,1042.58 1043.95,474.47 1021.41,474.47 "/>
<path clip-path="url(#clip292)" d="M1049.59 405.179 L1049.59 1042.58 L1072.13 1042.58 L1072.13 405.179 L1049.59 405.179 L1049.59 405.179  Z" fill="#009af9" fill-rule="evenodd" fill-opacity="0.5"/>
<polyline clip-path="url(#clip292)" style="stroke:#000000; stroke-linecap:round; stroke-linejoin:round; stroke-width:4; stroke-opacity:0.5; fill:none" points="1049.59,405.179 1049.59,1042.58 1072.13,1042.58 1072.13,405.179 1049.59,405.179 "/>
<path clip-path="url(#clip292)" d="M1077.77 479.102 L1077.77 1042.58 L1100.31 1042.58 L1100.31 479.102 L1077.77 479.102 L1077.77 479.102  Z" fill="#009af9" fill-rule="evenodd" fill-opacity="0.5"/>
<polyline clip-path="url(#clip292)" style="stroke:#000000; stroke-linecap:round; stroke-linejoin:round; stroke-width:4; stroke-opacity:0.5; fill:none" points="1077.77,479.102 1077.77,1042.58 1100.31,1042.58 1100.31,479.102 1077.77,479.102 "/>
<path clip-path="url(#clip292)" d="M1105.94 534.757 L1105.94 1042.58 L1128.49 1042.58 L1128.49 534.757 L1105.94 534.757 L1105.94 534.757  Z" fill="#009af9" fill-rule="evenodd" fill-opacity="0.5"/>
<polyline clip-path="url(#clip292)" style="stroke:#000000; stroke-linecap:round; stroke-linejoin:round; stroke-width:4; stroke-opacity:0.5; fill:none" points="1105.94,534.757 1105.94,1042.58 1128.49,1042.58 1128.49,534.757 1105.94,534.757 "/>
<path clip-path="url(#clip292)" d="M1134.12 572.086 L1134.12 1042.58 L1156.67 1042.58 L1156.67 572.086 L1134.12 572.086 L1134.12 572.086  Z" fill="#009af9" fill-rule="evenodd" fill-opacity="0.5"/>
<polyline clip-path="url(#clip292)" style="stroke:#000000; stroke-linecap:round; stroke-linejoin:round; stroke-width:4; stroke-opacity:0.5; fill:none" points="1134.12,572.086 1134.12,1042.58 1156.67,1042.58 1156.67,572.086 1134.12,572.086 "/>
<path clip-path="url(#clip292)" d="M1162.3 198.377 L1162.3 1042.58 L1184.85 1042.58 L1184.85 198.377 L1162.3 198.377 L1162.3 198.377  Z" fill="#009af9" fill-rule="evenodd" fill-opacity="0.5"/>
<polyline clip-path="url(#clip292)" style="stroke:#000000; stroke-linecap:round; stroke-linejoin:round; stroke-width:4; stroke-opacity:0.5; fill:none" points="1162.3,198.377 1162.3,1042.58 1184.85,1042.58 1184.85,198.377 1162.3,198.377 "/>
<path clip-path="url(#clip292)" d="M1190.48 430.8 L1190.48 1042.58 L1213.03 1042.58 L1213.03 430.8 L1190.48 430.8 L1190.48 430.8  Z" fill="#009af9" fill-rule="evenodd" fill-opacity="0.5"/>
<polyline clip-path="url(#clip292)" style="stroke:#000000; stroke-linecap:round; stroke-linejoin:round; stroke-width:4; stroke-opacity:0.5; fill:none" points="1190.48,430.8 1190.48,1042.58 1213.03,1042.58 1213.03,430.8 1190.48,430.8 "/>
<path clip-path="url(#clip292)" d="M1218.66 393.761 L1218.66 1042.58 L1241.21 1042.58 L1241.21 393.761 L1218.66 393.761 L1218.66 393.761  Z" fill="#009af9" fill-rule="evenodd" fill-opacity="0.5"/>
<polyline clip-path="url(#clip292)" style="stroke:#000000; stroke-linecap:round; stroke-linejoin:round; stroke-width:4; stroke-opacity:0.5; fill:none" points="1218.66,393.761 1218.66,1042.58 1241.21,1042.58 1241.21,393.761 1218.66,393.761 "/>
<path clip-path="url(#clip292)" d="M1246.84 659.418 L1246.84 1042.58 L1269.38 1042.58 L1269.38 659.418 L1246.84 659.418 L1246.84 659.418  Z" fill="#009af9" fill-rule="evenodd" fill-opacity="0.5"/>
<polyline clip-path="url(#clip292)" style="stroke:#000000; stroke-linecap:round; stroke-linejoin:round; stroke-width:4; stroke-opacity:0.5; fill:none" points="1246.84,659.418 1246.84,1042.58 1269.38,1042.58 1269.38,659.418 1246.84,659.418 "/>
<path clip-path="url(#clip292)" d="M1275.02 408.166 L1275.02 1042.58 L1297.56 1042.58 L1297.56 408.166 L1275.02 408.166 L1275.02 408.166  Z" fill="#009af9" fill-rule="evenodd" fill-opacity="0.5"/>
<polyline clip-path="url(#clip292)" style="stroke:#000000; stroke-linecap:round; stroke-linejoin:round; stroke-width:4; stroke-opacity:0.5; fill:none" points="1275.02,408.166 1275.02,1042.58 1297.56,1042.58 1297.56,408.166 1275.02,408.166 "/>
<path clip-path="url(#clip292)" d="M1303.2 563.89 L1303.2 1042.58 L1325.74 1042.58 L1325.74 563.89 L1303.2 563.89 L1303.2 563.89  Z" fill="#009af9" fill-rule="evenodd" fill-opacity="0.5"/>
<polyline clip-path="url(#clip292)" style="stroke:#000000; stroke-linecap:round; stroke-linejoin:round; stroke-width:4; stroke-opacity:0.5; fill:none" points="1303.2,563.89 1303.2,1042.58 1325.74,1042.58 1325.74,563.89 1303.2,563.89 "/>
<path clip-path="url(#clip292)" d="M1331.38 674.648 L1331.38 1042.58 L1353.92 1042.58 L1353.92 674.648 L1331.38 674.648 L1331.38 674.648  Z" fill="#009af9" fill-rule="evenodd" fill-opacity="0.5"/>
<polyline clip-path="url(#clip292)" style="stroke:#000000; stroke-linecap:round; stroke-linejoin:round; stroke-width:4; stroke-opacity:0.5; fill:none" points="1331.38,674.648 1331.38,1042.58 1353.92,1042.58 1353.92,674.648 1331.38,674.648 "/>
<path clip-path="url(#clip292)" d="M1359.56 211.032 L1359.56 1042.58 L1382.1 1042.58 L1382.1 211.032 L1359.56 211.032 L1359.56 211.032  Z" fill="#009af9" fill-rule="evenodd" fill-opacity="0.5"/>
<polyline clip-path="url(#clip292)" style="stroke:#000000; stroke-linecap:round; stroke-linejoin:round; stroke-width:4; stroke-opacity:0.5; fill:none" points="1359.56,211.032 1359.56,1042.58 1382.1,1042.58 1382.1,211.032 1359.56,211.032 "/>
<path clip-path="url(#clip292)" d="M1387.74 461.329 L1387.74 1042.58 L1410.28 1042.58 L1410.28 461.329 L1387.74 461.329 L1387.74 461.329  Z" fill="#009af9" fill-rule="evenodd" fill-opacity="0.5"/>
<polyline clip-path="url(#clip292)" style="stroke:#000000; stroke-linecap:round; stroke-linejoin:round; stroke-width:4; stroke-opacity:0.5; fill:none" points="1387.74,461.329 1387.74,1042.58 1410.28,1042.58 1410.28,461.329 1387.74,461.329 "/>
<path clip-path="url(#clip292)" d="M1415.92 424 L1415.92 1042.58 L1438.46 1042.58 L1438.46 424 L1415.92 424 L1415.92 424  Z" fill="#009af9" fill-rule="evenodd" fill-opacity="0.5"/>
<polyline clip-path="url(#clip292)" style="stroke:#000000; stroke-linecap:round; stroke-linejoin:round; stroke-width:4; stroke-opacity:0.5; fill:none" points="1415.92,424 1415.92,1042.58 1438.46,1042.58 1438.46,424 1415.92,424 "/>
<path clip-path="url(#clip292)" d="M1444.1 499.101 L1444.1 1042.58 L1466.64 1042.58 L1466.64 499.101 L1444.1 499.101 L1444.1 499.101  Z" fill="#009af9" fill-rule="evenodd" fill-opacity="0.5"/>
<polyline clip-path="url(#clip292)" style="stroke:#000000; stroke-linecap:round; stroke-linejoin:round; stroke-width:4; stroke-opacity:0.5; fill:none" points="1444.1,499.101 1444.1,1042.58 1466.64,1042.58 1466.64,499.101 1444.1,499.101 "/>
<path clip-path="url(#clip292)" d="M1472.28 441.577 L1472.28 1042.58 L1494.82 1042.58 L1494.82 441.577 L1472.28 441.577 L1472.28 441.577  Z" fill="#009af9" fill-rule="evenodd" fill-opacity="0.5"/>
<polyline clip-path="url(#clip292)" style="stroke:#000000; stroke-linecap:round; stroke-linejoin:round; stroke-width:4; stroke-opacity:0.5; fill:none" points="1472.28,441.577 1472.28,1042.58 1494.82,1042.58 1494.82,441.577 1472.28,441.577 "/>
<path clip-path="url(#clip292)" d="M1500.45 521.967 L1500.45 1042.58 L1523 1042.58 L1523 521.967 L1500.45 521.967 L1500.45 521.967  Z" fill="#009af9" fill-rule="evenodd" fill-opacity="0.5"/>
<polyline clip-path="url(#clip292)" style="stroke:#000000; stroke-linecap:round; stroke-linejoin:round; stroke-width:4; stroke-opacity:0.5; fill:none" points="1500.45,521.967 1500.45,1042.58 1523,1042.58 1523,521.967 1500.45,521.967 "/>
<path clip-path="url(#clip292)" d="M1528.63 534.757 L1528.63 1042.58 L1551.18 1042.58 L1551.18 534.757 L1528.63 534.757 L1528.63 534.757  Z" fill="#009af9" fill-rule="evenodd" fill-opacity="0.5"/>
<polyline clip-path="url(#clip292)" style="stroke:#000000; stroke-linecap:round; stroke-linejoin:round; stroke-width:4; stroke-opacity:0.5; fill:none" points="1528.63,534.757 1528.63,1042.58 1551.18,1042.58 1551.18,534.757 1528.63,534.757 "/>
<path clip-path="url(#clip292)" d="M1556.81 198.377 L1556.81 1042.58 L1579.36 1042.58 L1579.36 198.377 L1556.81 198.377 L1556.81 198.377  Z" fill="#009af9" fill-rule="evenodd" fill-opacity="0.5"/>
<polyline clip-path="url(#clip292)" style="stroke:#000000; stroke-linecap:round; stroke-linejoin:round; stroke-width:4; stroke-opacity:0.5; fill:none" points="1556.81,198.377 1556.81,1042.58 1579.36,1042.58 1579.36,198.377 1556.81,198.377 "/>
<path clip-path="url(#clip292)" d="M1584.99 396.54 L1584.99 1042.58 L1607.54 1042.58 L1607.54 396.54 L1584.99 396.54 L1584.99 396.54  Z" fill="#009af9" fill-rule="evenodd" fill-opacity="0.5"/>
<polyline clip-path="url(#clip292)" style="stroke:#000000; stroke-linecap:round; stroke-linejoin:round; stroke-width:4; stroke-opacity:0.5; fill:none" points="1584.99,396.54 1584.99,1042.58 1607.54,1042.58 1607.54,396.54 1584.99,396.54 "/>
<path clip-path="url(#clip292)" d="M1613.17 493.862 L1613.17 1042.58 L1635.71 1042.58 L1635.71 493.862 L1613.17 493.862 L1613.17 493.862  Z" fill="#009af9" fill-rule="evenodd" fill-opacity="0.5"/>
<polyline clip-path="url(#clip292)" style="stroke:#000000; stroke-linecap:round; stroke-linejoin:round; stroke-width:4; stroke-opacity:0.5; fill:none" points="1613.17,493.862 1613.17,1042.58 1635.71,1042.58 1635.71,493.862 1613.17,493.862 "/>
<path clip-path="url(#clip292)" d="M1641.35 474.47 L1641.35 1042.58 L1663.89 1042.58 L1663.89 474.47 L1641.35 474.47 L1641.35 474.47  Z" fill="#009af9" fill-rule="evenodd" fill-opacity="0.5"/>
<polyline clip-path="url(#clip292)" style="stroke:#000000; stroke-linecap:round; stroke-linejoin:round; stroke-width:4; stroke-opacity:0.5; fill:none" points="1641.35,474.47 1641.35,1042.58 1663.89,1042.58 1663.89,474.47 1641.35,474.47 "/>
<path clip-path="url(#clip292)" d="M1669.53 465.59 L1669.53 1042.58 L1692.07 1042.58 L1692.07 465.59 L1669.53 465.59 L1669.53 465.59  Z" fill="#009af9" fill-rule="evenodd" fill-opacity="0.5"/>
<polyline clip-path="url(#clip292)" style="stroke:#000000; stroke-linecap:round; stroke-linejoin:round; stroke-width:4; stroke-opacity:0.5; fill:none" points="1669.53,465.59 1669.53,1042.58 1692.07,1042.58 1692.07,465.59 1669.53,465.59 "/>
<path clip-path="url(#clip292)" d="M1697.71 609.859 L1697.71 1042.58 L1720.25 1042.58 L1720.25 609.859 L1697.71 609.859 L1697.71 609.859  Z" fill="#009af9" fill-rule="evenodd" fill-opacity="0.5"/>
<polyline clip-path="url(#clip292)" style="stroke:#000000; stroke-linecap:round; stroke-linejoin:round; stroke-width:4; stroke-opacity:0.5; fill:none" points="1697.71,609.859 1697.71,1042.58 1720.25,1042.58 1720.25,609.859 1697.71,609.859 "/>
<path clip-path="url(#clip292)" d="M1725.89 499.101 L1725.89 1042.58 L1748.43 1042.58 L1748.43 499.101 L1725.89 499.101 L1725.89 499.101  Z" fill="#009af9" fill-rule="evenodd" fill-opacity="0.5"/>
<polyline clip-path="url(#clip292)" style="stroke:#000000; stroke-linecap:round; stroke-linejoin:round; stroke-width:4; stroke-opacity:0.5; fill:none" points="1725.89,499.101 1725.89,1042.58 1748.43,1042.58 1748.43,499.101 1725.89,499.101 "/>
<path clip-path="url(#clip292)" d="M1754.07 176.433 L1754.07 1042.58 L1776.61 1042.58 L1776.61 176.433 L1754.07 176.433 L1754.07 176.433  Z" fill="#009af9" fill-rule="evenodd" fill-opacity="0.5"/>
<polyline clip-path="url(#clip292)" style="stroke:#000000; stroke-linecap:round; stroke-linejoin:round; stroke-width:4; stroke-opacity:0.5; fill:none" points="1754.07,176.433 1754.07,1042.58 1776.61,1042.58 1776.61,176.433 1754.07,176.433 "/>
<path clip-path="url(#clip292)" d="M1782.25 445.337 L1782.25 1042.58 L1804.79 1042.58 L1804.79 445.337 L1782.25 445.337 L1782.25 445.337  Z" fill="#009af9" fill-rule="evenodd" fill-opacity="0.5"/>
<polyline clip-path="url(#clip292)" style="stroke:#000000; stroke-linecap:round; stroke-linejoin:round; stroke-width:4; stroke-opacity:0.5; fill:none" points="1782.25,445.337 1782.25,1042.58 1804.79,1042.58 1804.79,445.337 1782.25,445.337 "/>
<path clip-path="url(#clip292)" d="M1810.43 479.102 L1810.43 1042.58 L1832.97 1042.58 L1832.97 479.102 L1810.43 479.102 L1810.43 479.102  Z" fill="#009af9" fill-rule="evenodd" fill-opacity="0.5"/>
<polyline clip-path="url(#clip292)" style="stroke:#000000; stroke-linecap:round; stroke-linejoin:round; stroke-width:4; stroke-opacity:0.5; fill:none" points="1810.43,479.102 1810.43,1042.58 1832.97,1042.58 1832.97,479.102 1810.43,479.102 "/>
<path clip-path="url(#clip292)" d="M1838.61 461.329 L1838.61 1042.58 L1861.15 1042.58 L1861.15 461.329 L1838.61 461.329 L1838.61 461.329  Z" fill="#009af9" fill-rule="evenodd" fill-opacity="0.5"/>
<polyline clip-path="url(#clip292)" style="stroke:#000000; stroke-linecap:round; stroke-linejoin:round; stroke-width:4; stroke-opacity:0.5; fill:none" points="1838.61,461.329 1838.61,1042.58 1861.15,1042.58 1861.15,461.329 1838.61,461.329 "/>
<path clip-path="url(#clip292)" d="M1866.78 420.705 L1866.78 1042.58 L1889.33 1042.58 L1889.33 420.705 L1866.78 420.705 L1866.78 420.705  Z" fill="#009af9" fill-rule="evenodd" fill-opacity="0.5"/>
<polyline clip-path="url(#clip292)" style="stroke:#000000; stroke-linecap:round; stroke-linejoin:round; stroke-width:4; stroke-opacity:0.5; fill:none" points="1866.78,420.705 1866.78,1042.58 1889.33,1042.58 1889.33,420.705 1866.78,420.705 "/>
<path clip-path="url(#clip292)" d="M1894.96 479.102 L1894.96 1042.58 L1917.51 1042.58 L1917.51 479.102 L1894.96 479.102 L1894.96 479.102  Z" fill="#009af9" fill-rule="evenodd" fill-opacity="0.5"/>
<polyline clip-path="url(#clip292)" style="stroke:#000000; stroke-linecap:round; stroke-linejoin:round; stroke-width:4; stroke-opacity:0.5; fill:none" points="1894.96,479.102 1894.96,1042.58 1917.51,1042.58 1917.51,479.102 1894.96,479.102 "/>
<path clip-path="url(#clip292)" d="M1923.14 521.967 L1923.14 1042.58 L1945.69 1042.58 L1945.69 521.967 L1923.14 521.967 L1923.14 521.967  Z" fill="#009af9" fill-rule="evenodd" fill-opacity="0.5"/>
<polyline clip-path="url(#clip292)" style="stroke:#000000; stroke-linecap:round; stroke-linejoin:round; stroke-width:4; stroke-opacity:0.5; fill:none" points="1923.14,521.967 1923.14,1042.58 1945.69,1042.58 1945.69,521.967 1923.14,521.967 "/>
<path clip-path="url(#clip292)" d="M1951.32 182.926 L1951.32 1042.58 L1973.87 1042.58 L1973.87 182.926 L1951.32 182.926 L1951.32 182.926  Z" fill="#009af9" fill-rule="evenodd" fill-opacity="0.5"/>
<polyline clip-path="url(#clip292)" style="stroke:#000000; stroke-linecap:round; stroke-linejoin:round; stroke-width:4; stroke-opacity:0.5; fill:none" points="1951.32,182.926 1951.32,1042.58 1973.87,1042.58 1973.87,182.926 1951.32,182.926 "/>
<path clip-path="url(#clip292)" d="M1979.5 580.726 L1979.5 1042.58 L2002.04 1042.58 L2002.04 580.726 L1979.5 580.726 L1979.5 580.726  Z" fill="#009af9" fill-rule="evenodd" fill-opacity="0.5"/>
<polyline clip-path="url(#clip292)" style="stroke:#000000; stroke-linecap:round; stroke-linejoin:round; stroke-width:4; stroke-opacity:0.5; fill:none" points="1979.5,580.726 1979.5,1042.58 2002.04,1042.58 2002.04,580.726 1979.5,580.726 "/>
<path clip-path="url(#clip292)" d="M2007.68 528.234 L2007.68 1042.58 L2030.22 1042.58 L2030.22 528.234 L2007.68 528.234 L2007.68 528.234  Z" fill="#009af9" fill-rule="evenodd" fill-opacity="0.5"/>
<polyline clip-path="url(#clip292)" style="stroke:#000000; stroke-linecap:round; stroke-linejoin:round; stroke-width:4; stroke-opacity:0.5; fill:none" points="2007.68,528.234 2007.68,1042.58 2030.22,1042.58 2030.22,528.234 2007.68,528.234 "/>
<path clip-path="url(#clip292)" d="M2035.86 620.883 L2035.86 1042.58 L2058.4 1042.58 L2058.4 620.883 L2035.86 620.883 L2035.86 620.883  Z" fill="#009af9" fill-rule="evenodd" fill-opacity="0.5"/>
<polyline clip-path="url(#clip292)" style="stroke:#000000; stroke-linecap:round; stroke-linejoin:round; stroke-width:4; stroke-opacity:0.5; fill:none" points="2035.86,620.883 2035.86,1042.58 2058.4,1042.58 2058.4,620.883 2035.86,620.883 "/>
<path clip-path="url(#clip292)" d="M2064.04 580.726 L2064.04 1042.58 L2086.58 1042.58 L2086.58 580.726 L2064.04 580.726 L2064.04 580.726  Z" fill="#009af9" fill-rule="evenodd" fill-opacity="0.5"/>
<polyline clip-path="url(#clip292)" style="stroke:#000000; stroke-linecap:round; stroke-linejoin:round; stroke-width:4; stroke-opacity:0.5; fill:none" points="2064.04,580.726 2064.04,1042.58 2086.58,1042.58 2086.58,580.726 2064.04,580.726 "/>
<path clip-path="url(#clip292)" d="M2092.22 599.546 L2092.22 1042.58 L2114.76 1042.58 L2114.76 599.546 L2092.22 599.546 L2092.22 599.546  Z" fill="#009af9" fill-rule="evenodd" fill-opacity="0.5"/>
<polyline clip-path="url(#clip292)" style="stroke:#000000; stroke-linecap:round; stroke-linejoin:round; stroke-width:4; stroke-opacity:0.5; fill:none" points="2092.22,599.546 2092.22,1042.58 2114.76,1042.58 2114.76,599.546 2092.22,599.546 "/>
<path clip-path="url(#clip292)" d="M2120.4 620.883 L2120.4 1042.58 L2142.94 1042.58 L2142.94 620.883 L2120.4 620.883 L2120.4 620.883  Z" fill="#009af9" fill-rule="evenodd" fill-opacity="0.5"/>
<polyline clip-path="url(#clip292)" style="stroke:#000000; stroke-linecap:round; stroke-linejoin:round; stroke-width:4; stroke-opacity:0.5; fill:none" points="2120.4,620.883 2120.4,1042.58 2142.94,1042.58 2142.94,620.883 2120.4,620.883 "/>
<path clip-path="url(#clip292)" d="M2148.58 168.839 L2148.58 1042.58 L2171.12 1042.58 L2171.12 168.839 L2148.58 168.839 L2148.58 168.839  Z" fill="#009af9" fill-rule="evenodd" fill-opacity="0.5"/>
<polyline clip-path="url(#clip292)" style="stroke:#000000; stroke-linecap:round; stroke-linejoin:round; stroke-width:4; stroke-opacity:0.5; fill:none" points="2148.58,168.839 2148.58,1042.58 2171.12,1042.58 2171.12,168.839 2148.58,168.839 "/>
<path clip-path="url(#clip292)" d="M2176.76 465.59 L2176.76 1042.58 L2199.3 1042.58 L2199.3 465.59 L2176.76 465.59 L2176.76 465.59  Z" fill="#009af9" fill-rule="evenodd" fill-opacity="0.5"/>
<polyline clip-path="url(#clip292)" style="stroke:#000000; stroke-linecap:round; stroke-linejoin:round; stroke-width:4; stroke-opacity:0.5; fill:none" points="2176.76,465.59 2176.76,1042.58 2199.3,1042.58 2199.3,465.59 2176.76,465.59 "/>
<path clip-path="url(#clip292)" d="M2204.94 437.903 L2204.94 1042.58 L2227.48 1042.58 L2227.48 437.903 L2204.94 437.903 L2204.94 437.903  Z" fill="#009af9" fill-rule="evenodd" fill-opacity="0.5"/>
<polyline clip-path="url(#clip292)" style="stroke:#000000; stroke-linecap:round; stroke-linejoin:round; stroke-width:4; stroke-opacity:0.5; fill:none" points="2204.94,437.903 2204.94,1042.58 2227.48,1042.58 2227.48,437.903 2204.94,437.903 "/>
<path clip-path="url(#clip292)" d="M2233.11 457.178 L2233.11 1042.58 L2255.66 1042.58 L2255.66 457.178 L2233.11 457.178 L2233.11 457.178  Z" fill="#009af9" fill-rule="evenodd" fill-opacity="0.5"/>
<polyline clip-path="url(#clip292)" style="stroke:#000000; stroke-linecap:round; stroke-linejoin:round; stroke-width:4; stroke-opacity:0.5; fill:none" points="2233.11,457.178 2233.11,1042.58 2255.66,1042.58 2255.66,457.178 2233.11,457.178 "/>
<path clip-path="url(#clip292)" d="M2261.29 731.64 L2261.29 1042.58 L2283.84 1042.58 L2283.84 731.64 L2261.29 731.64 L2261.29 731.64  Z" fill="#009af9" fill-rule="evenodd" fill-opacity="0.5"/>
<polyline clip-path="url(#clip292)" style="stroke:#000000; stroke-linecap:round; stroke-linejoin:round; stroke-width:4; stroke-opacity:0.5; fill:none" points="2261.29,731.64 2261.29,1042.58 2283.84,1042.58 2283.84,731.64 2261.29,731.64 "/>
<path clip-path="url(#clip292)" d="M2289.47 691.483 L2289.47 1042.58 L2312.02 1042.58 L2312.02 691.483 L2289.47 691.483 L2289.47 691.483  Z" fill="#009af9" fill-rule="evenodd" fill-opacity="0.5"/>
<polyline clip-path="url(#clip292)" style="stroke:#000000; stroke-linecap:round; stroke-linejoin:round; stroke-width:4; stroke-opacity:0.5; fill:none" points="2289.47,691.483 2289.47,1042.58 2312.02,1042.58 2312.02,691.483 2289.47,691.483 "/>
<path clip-path="url(#clip292)" d="M2317.65 620.883 L2317.65 1042.58 L2340.2 1042.58 L2340.2 620.883 L2317.65 620.883 L2317.65 620.883  Z" fill="#009af9" fill-rule="evenodd" fill-opacity="0.5"/>
<polyline clip-path="url(#clip292)" style="stroke:#000000; stroke-linecap:round; stroke-linejoin:round; stroke-width:4; stroke-opacity:0.5; fill:none" points="2317.65,620.883 2317.65,1042.58 2340.2,1042.58 2340.2,620.883 2317.65,620.883 "/>
<path clip-path="url(#clip292)" d="M2345.83 290.044 L2345.83 1042.58 L2368.38 1042.58 L2368.38 290.044 L2345.83 290.044 L2345.83 290.044  Z" fill="#009af9" fill-rule="evenodd" fill-opacity="0.5"/>
<polyline clip-path="url(#clip292)" style="stroke:#000000; stroke-linecap:round; stroke-linejoin:round; stroke-width:4; stroke-opacity:0.5; fill:none" points="2345.83,290.044 2345.83,1042.58 2368.38,1042.58 2368.38,290.044 2345.83,290.044 "/>
<path clip-path="url(#clip292)" d="M2374.01 931.818 L2374.01 1042.58 L2396.55 1042.58 L2396.55 931.818 L2374.01 931.818 L2374.01 931.818  Z" fill="#009af9" fill-rule="evenodd" fill-opacity="0.5"/>
<polyline clip-path="url(#clip292)" style="stroke:#000000; stroke-linecap:round; stroke-linejoin:round; stroke-width:4; stroke-opacity:0.5; fill:none" points="2374.01,931.818 2374.01,1042.58 2396.55,1042.58 2396.55,931.818 2374.01,931.818 "/>
<path clip-path="url(#clip292)" d="M2402.19 580.726 L2402.19 1042.58 L2424.73 1042.58 L2424.73 580.726 L2402.19 580.726 L2402.19 580.726  Z" fill="#009af9" fill-rule="evenodd" fill-opacity="0.5"/>
<polyline clip-path="url(#clip292)" style="stroke:#000000; stroke-linecap:round; stroke-linejoin:round; stroke-width:4; stroke-opacity:0.5; fill:none" points="2402.19,580.726 2402.19,1042.58 2424.73,1042.58 2424.73,580.726 2402.19,580.726 "/>
<path clip-path="url(#clip292)" d="M2430.37 521.967 L2430.37 1042.58 L2452.91 1042.58 L2452.91 521.967 L2430.37 521.967 L2430.37 521.967  Z" fill="#009af9" fill-rule="evenodd" fill-opacity="0.5"/>
<polyline clip-path="url(#clip292)" style="stroke:#000000; stroke-linecap:round; stroke-linejoin:round; stroke-width:4; stroke-opacity:0.5; fill:none" points="2430.37,521.967 2430.37,1042.58 2452.91,1042.58 2452.91,521.967 2430.37,521.967 "/>
<path clip-path="url(#clip292)" d="M2458.55 572.086 L2458.55 1042.58 L2481.09 1042.58 L2481.09 572.086 L2458.55 572.086 L2458.55 572.086  Z" fill="#009af9" fill-rule="evenodd" fill-opacity="0.5"/>
<polyline clip-path="url(#clip292)" style="stroke:#000000; stroke-linecap:round; stroke-linejoin:round; stroke-width:4; stroke-opacity:0.5; fill:none" points="2458.55,572.086 2458.55,1042.58 2481.09,1042.58 2481.09,572.086 2458.55,572.086 "/>
<path clip-path="url(#clip292)" d="M2486.73 645.515 L2486.73 1042.58 L2509.27 1042.58 L2509.27 645.515 L2486.73 645.515 L2486.73 645.515  Z" fill="#009af9" fill-rule="evenodd" fill-opacity="0.5"/>
<polyline clip-path="url(#clip292)" style="stroke:#000000; stroke-linecap:round; stroke-linejoin:round; stroke-width:4; stroke-opacity:0.5; fill:none" points="2486.73,645.515 2486.73,1042.58 2509.27,1042.58 2509.27,645.515 2486.73,645.515 "/>
<path clip-path="url(#clip292)" d="M2514.91 632.725 L2514.91 1042.58 L2537.45 1042.58 L2537.45 632.725 L2514.91 632.725 L2514.91 632.725  Z" fill="#009af9" fill-rule="evenodd" fill-opacity="0.5"/>
<polyline clip-path="url(#clip292)" style="stroke:#000000; stroke-linecap:round; stroke-linejoin:round; stroke-width:4; stroke-opacity:0.5; fill:none" points="2514.91,632.725 2514.91,1042.58 2537.45,1042.58 2537.45,632.725 2514.91,632.725 "/>
<path clip-path="url(#clip292)" d="M2543.09 515.937 L2543.09 1042.58 L2565.63 1042.58 L2565.63 515.937 L2543.09 515.937 L2543.09 515.937  Z" fill="#009af9" fill-rule="evenodd" fill-opacity="0.5"/>
<polyline clip-path="url(#clip292)" style="stroke:#000000; stroke-linecap:round; stroke-linejoin:round; stroke-width:4; stroke-opacity:0.5; fill:none" points="2543.09,515.937 2543.09,1042.58 2565.63,1042.58 2565.63,515.937 2543.09,515.937 "/>
<path clip-path="url(#clip292)" d="M2571.27 931.818 L2571.27 1042.58 L2593.81 1042.58 L2593.81 931.818 L2571.27 931.818 L2571.27 931.818  Z" fill="#009af9" fill-rule="evenodd" fill-opacity="0.5"/>
<polyline clip-path="url(#clip292)" style="stroke:#000000; stroke-linecap:round; stroke-linejoin:round; stroke-width:4; stroke-opacity:0.5; fill:none" points="2571.27,931.818 2571.27,1042.58 2593.81,1042.58 2593.81,931.818 2571.27,931.818 "/>
<circle clip-path="url(#clip292)" style="fill:#009af9; stroke:none; fill-opacity:0" cx="300.018" cy="474.47" r="2"/>
<circle clip-path="url(#clip292)" style="fill:#009af9; stroke:none; fill-opacity:0" cx="328.198" cy="499.101" r="2"/>
<circle clip-path="url(#clip292)" style="fill:#009af9; stroke:none; fill-opacity:0" cx="356.377" cy="563.89" r="2"/>
<circle clip-path="url(#clip292)" style="fill:#009af9; stroke:none; fill-opacity:0" cx="412.735" cy="420.705" r="2"/>
<circle clip-path="url(#clip292)" style="fill:#009af9; stroke:none; fill-opacity:0" cx="440.915" cy="541.558" r="2"/>
<circle clip-path="url(#clip292)" style="fill:#009af9; stroke:none; fill-opacity:0" cx="469.094" cy="572.086" r="2"/>
<circle clip-path="url(#clip292)" style="fill:#009af9; stroke:none; fill-opacity:0" cx="497.273" cy="437.903" r="2"/>
<circle clip-path="url(#clip292)" style="fill:#009af9; stroke:none; fill-opacity:0" cx="525.452" cy="504.518" r="2"/>
<circle clip-path="url(#clip292)" style="fill:#009af9; stroke:none; fill-opacity:0" cx="553.632" cy="510.126" r="2"/>
<circle clip-path="url(#clip292)" style="fill:#009af9; stroke:none; fill-opacity:0" cx="581.811" cy="167.496" r="2"/>
<circle clip-path="url(#clip292)" style="fill:#009af9; stroke:none; fill-opacity:0" cx="609.99" cy="457.178" r="2"/>
<circle clip-path="url(#clip292)" style="fill:#009af9; stroke:none; fill-opacity:0" cx="638.169" cy="474.47" r="2"/>
<circle clip-path="url(#clip292)" style="fill:#009af9; stroke:none; fill-opacity:0" cx="666.349" cy="474.47" r="2"/>
<circle clip-path="url(#clip292)" style="fill:#009af9; stroke:none; fill-opacity:0" cx="694.528" cy="515.937" r="2"/>
<circle clip-path="url(#clip292)" style="fill:#009af9; stroke:none; fill-opacity:0" cx="722.707" cy="474.47" r="2"/>
<circle clip-path="url(#clip292)" style="fill:#009af9; stroke:none; fill-opacity:0" cx="750.886" cy="645.515" r="2"/>
<circle clip-path="url(#clip292)" style="fill:#009af9; stroke:none; fill-opacity:0" cx="779.066" cy="186.651" r="2"/>
<circle clip-path="url(#clip292)" style="fill:#009af9; stroke:none; fill-opacity:0" cx="807.245" cy="434.312" r="2"/>
<circle clip-path="url(#clip292)" style="fill:#009af9; stroke:none; fill-opacity:0" cx="835.424" cy="434.312" r="2"/>
<circle clip-path="url(#clip292)" style="fill:#009af9; stroke:none; fill-opacity:0" cx="863.603" cy="461.329" r="2"/>
<circle clip-path="url(#clip292)" style="fill:#009af9; stroke:none; fill-opacity:0" cx="891.783" cy="434.312" r="2"/>
<circle clip-path="url(#clip292)" style="fill:#009af9; stroke:none; fill-opacity:0" cx="919.962" cy="534.757" r="2"/>
<circle clip-path="url(#clip292)" style="fill:#009af9; stroke:none; fill-opacity:0" cx="948.141" cy="572.086" r="2"/>
<circle clip-path="url(#clip292)" style="fill:#009af9; stroke:none; fill-opacity:0" cx="976.32" cy="174.326" r="2"/>
<circle clip-path="url(#clip292)" style="fill:#009af9; stroke:none; fill-opacity:0" cx="1004.5" cy="424" r="2"/>
<circle clip-path="url(#clip292)" style="fill:#009af9; stroke:none; fill-opacity:0" cx="1032.68" cy="474.47" r="2"/>
<circle clip-path="url(#clip292)" style="fill:#009af9; stroke:none; fill-opacity:0" cx="1060.86" cy="405.179" r="2"/>
<circle clip-path="url(#clip292)" style="fill:#009af9; stroke:none; fill-opacity:0" cx="1089.04" cy="479.102" r="2"/>
<circle clip-path="url(#clip292)" style="fill:#009af9; stroke:none; fill-opacity:0" cx="1117.22" cy="534.757" r="2"/>
<circle clip-path="url(#clip292)" style="fill:#009af9; stroke:none; fill-opacity:0" cx="1145.4" cy="572.086" r="2"/>
<circle clip-path="url(#clip292)" style="fill:#009af9; stroke:none; fill-opacity:0" cx="1173.58" cy="198.377" r="2"/>
<circle clip-path="url(#clip292)" style="fill:#009af9; stroke:none; fill-opacity:0" cx="1201.75" cy="430.8" r="2"/>
<circle clip-path="url(#clip292)" style="fill:#009af9; stroke:none; fill-opacity:0" cx="1229.93" cy="393.761" r="2"/>
<circle clip-path="url(#clip292)" style="fill:#009af9; stroke:none; fill-opacity:0" cx="1258.11" cy="659.418" r="2"/>
<circle clip-path="url(#clip292)" style="fill:#009af9; stroke:none; fill-opacity:0" cx="1286.29" cy="408.166" r="2"/>
<circle clip-path="url(#clip292)" style="fill:#009af9; stroke:none; fill-opacity:0" cx="1314.47" cy="563.89" r="2"/>
<circle clip-path="url(#clip292)" style="fill:#009af9; stroke:none; fill-opacity:0" cx="1342.65" cy="674.648" r="2"/>
<circle clip-path="url(#clip292)" style="fill:#009af9; stroke:none; fill-opacity:0" cx="1370.83" cy="211.032" r="2"/>
<circle clip-path="url(#clip292)" style="fill:#009af9; stroke:none; fill-opacity:0" cx="1399.01" cy="461.329" r="2"/>
<circle clip-path="url(#clip292)" style="fill:#009af9; stroke:none; fill-opacity:0" cx="1427.19" cy="424" r="2"/>
<circle clip-path="url(#clip292)" style="fill:#009af9; stroke:none; fill-opacity:0" cx="1455.37" cy="499.101" r="2"/>
<circle clip-path="url(#clip292)" style="fill:#009af9; stroke:none; fill-opacity:0" cx="1483.55" cy="441.577" r="2"/>
<circle clip-path="url(#clip292)" style="fill:#009af9; stroke:none; fill-opacity:0" cx="1511.73" cy="521.967" r="2"/>
<circle clip-path="url(#clip292)" style="fill:#009af9; stroke:none; fill-opacity:0" cx="1539.91" cy="534.757" r="2"/>
<circle clip-path="url(#clip292)" style="fill:#009af9; stroke:none; fill-opacity:0" cx="1568.08" cy="198.377" r="2"/>
<circle clip-path="url(#clip292)" style="fill:#009af9; stroke:none; fill-opacity:0" cx="1596.26" cy="396.54" r="2"/>
<circle clip-path="url(#clip292)" style="fill:#009af9; stroke:none; fill-opacity:0" cx="1624.44" cy="493.862" r="2"/>
<circle clip-path="url(#clip292)" style="fill:#009af9; stroke:none; fill-opacity:0" cx="1652.62" cy="474.47" r="2"/>
<circle clip-path="url(#clip292)" style="fill:#009af9; stroke:none; fill-opacity:0" cx="1680.8" cy="465.59" r="2"/>
<circle clip-path="url(#clip292)" style="fill:#009af9; stroke:none; fill-opacity:0" cx="1708.98" cy="609.859" r="2"/>
<circle clip-path="url(#clip292)" style="fill:#009af9; stroke:none; fill-opacity:0" cx="1737.16" cy="499.101" r="2"/>
<circle clip-path="url(#clip292)" style="fill:#009af9; stroke:none; fill-opacity:0" cx="1765.34" cy="176.433" r="2"/>
<circle clip-path="url(#clip292)" style="fill:#009af9; stroke:none; fill-opacity:0" cx="1793.52" cy="445.337" r="2"/>
<circle clip-path="url(#clip292)" style="fill:#009af9; stroke:none; fill-opacity:0" cx="1821.7" cy="479.102" r="2"/>
<circle clip-path="url(#clip292)" style="fill:#009af9; stroke:none; fill-opacity:0" cx="1849.88" cy="461.329" r="2"/>
<circle clip-path="url(#clip292)" style="fill:#009af9; stroke:none; fill-opacity:0" cx="1878.06" cy="420.705" r="2"/>
<circle clip-path="url(#clip292)" style="fill:#009af9; stroke:none; fill-opacity:0" cx="1906.24" cy="479.102" r="2"/>
<circle clip-path="url(#clip292)" style="fill:#009af9; stroke:none; fill-opacity:0" cx="1934.41" cy="521.967" r="2"/>
<circle clip-path="url(#clip292)" style="fill:#009af9; stroke:none; fill-opacity:0" cx="1962.59" cy="182.926" r="2"/>
<circle clip-path="url(#clip292)" style="fill:#009af9; stroke:none; fill-opacity:0" cx="1990.77" cy="580.726" r="2"/>
<circle clip-path="url(#clip292)" style="fill:#009af9; stroke:none; fill-opacity:0" cx="2018.95" cy="528.234" r="2"/>
<circle clip-path="url(#clip292)" style="fill:#009af9; stroke:none; fill-opacity:0" cx="2047.13" cy="620.883" r="2"/>
<circle clip-path="url(#clip292)" style="fill:#009af9; stroke:none; fill-opacity:0" cx="2075.31" cy="580.726" r="2"/>
<circle clip-path="url(#clip292)" style="fill:#009af9; stroke:none; fill-opacity:0" cx="2103.49" cy="599.546" r="2"/>
<circle clip-path="url(#clip292)" style="fill:#009af9; stroke:none; fill-opacity:0" cx="2131.67" cy="620.883" r="2"/>
<circle clip-path="url(#clip292)" style="fill:#009af9; stroke:none; fill-opacity:0" cx="2159.85" cy="168.839" r="2"/>
<circle clip-path="url(#clip292)" style="fill:#009af9; stroke:none; fill-opacity:0" cx="2188.03" cy="465.59" r="2"/>
<circle clip-path="url(#clip292)" style="fill:#009af9; stroke:none; fill-opacity:0" cx="2216.21" cy="437.903" r="2"/>
<circle clip-path="url(#clip292)" style="fill:#009af9; stroke:none; fill-opacity:0" cx="2244.39" cy="457.178" r="2"/>
<circle clip-path="url(#clip292)" style="fill:#009af9; stroke:none; fill-opacity:0" cx="2272.57" cy="731.64" r="2"/>
<circle clip-path="url(#clip292)" style="fill:#009af9; stroke:none; fill-opacity:0" cx="2300.74" cy="691.483" r="2"/>
<circle clip-path="url(#clip292)" style="fill:#009af9; stroke:none; fill-opacity:0" cx="2328.92" cy="620.883" r="2"/>
<circle clip-path="url(#clip292)" style="fill:#009af9; stroke:none; fill-opacity:0" cx="2357.1" cy="290.044" r="2"/>
<circle clip-path="url(#clip292)" style="fill:#009af9; stroke:none; fill-opacity:0" cx="2385.28" cy="931.818" r="2"/>
<circle clip-path="url(#clip292)" style="fill:#009af9; stroke:none; fill-opacity:0" cx="2413.46" cy="580.726" r="2"/>
<circle clip-path="url(#clip292)" style="fill:#009af9; stroke:none; fill-opacity:0" cx="2441.64" cy="521.967" r="2"/>
<circle clip-path="url(#clip292)" style="fill:#009af9; stroke:none; fill-opacity:0" cx="2469.82" cy="572.086" r="2"/>
<circle clip-path="url(#clip292)" style="fill:#009af9; stroke:none; fill-opacity:0" cx="2498" cy="645.515" r="2"/>
<circle clip-path="url(#clip292)" style="fill:#009af9; stroke:none; fill-opacity:0" cx="2526.18" cy="632.725" r="2"/>
<circle clip-path="url(#clip292)" style="fill:#009af9; stroke:none; fill-opacity:0" cx="2554.36" cy="515.937" r="2"/>
<circle clip-path="url(#clip292)" style="fill:#009af9; stroke:none; fill-opacity:0" cx="2582.54" cy="931.818" r="2"/>
</svg>
