<?xml version="1.0" encoding="utf-8"?>
<svg xmlns="http://www.w3.org/2000/svg" xmlns:xlink="http://www.w3.org/1999/xlink" width="800" height="300" viewBox="0 0 3200 1200">
<defs>
  <clipPath id="clip310">
    <rect x="0" y="0" width="3200" height="1200"/>
  </clipPath>
</defs>
<path clip-path="url(#clip310)" d="M0 1200 L3200 1200 L3200 0 L0 0  Z" fill="#ffffff" fill-rule="evenodd" fill-opacity="1"/>
<defs>
  <clipPath id="clip311">
    <rect x="640" y="0" width="2241" height="1200"/>
  </clipPath>
</defs>
<path clip-path="url(#clip310)" d="M271.839 1042.58 L3089.76 1042.58 L3089.76 110.236 L271.839 110.236  Z" fill="#ffffff" fill-rule="evenodd" fill-opacity="1"/>
<defs>
  <clipPath id="clip312">
    <rect x="271" y="110" width="2819" height="933"/>
  </clipPath>
</defs>
<polyline clip-path="url(#clip312)" style="stroke:#000000; stroke-linecap:round; stroke-linejoin:round; stroke-width:2; stroke-opacity:0.1; fill:none" points="779.066,1042.58 779.066,110.236 "/>
<polyline clip-path="url(#clip312)" style="stroke:#000000; stroke-linecap:round; stroke-linejoin:round; stroke-width:2; stroke-opacity:0.1; fill:none" points="1652.62,1042.58 1652.62,110.236 "/>
<polyline clip-path="url(#clip312)" style="stroke:#000000; stroke-linecap:round; stroke-linejoin:round; stroke-width:2; stroke-opacity:0.1; fill:none" points="2526.18,1042.58 2526.18,110.236 "/>
<polyline clip-path="url(#clip310)" style="stroke:#000000; stroke-linecap:round; stroke-linejoin:round; stroke-width:4; stroke-opacity:1; fill:none" points="271.839,1042.58 3089.76,1042.58 "/>
<polyline clip-path="url(#clip310)" style="stroke:#000000; stroke-linecap:round; stroke-linejoin:round; stroke-width:4; stroke-opacity:1; fill:none" points="779.066,1042.58 779.066,1023.68 "/>
<polyline clip-path="url(#clip310)" style="stroke:#000000; stroke-linecap:round; stroke-linejoin:round; stroke-width:4; stroke-opacity:1; fill:none" points="1652.62,1042.58 1652.62,1023.68 "/>
<polyline clip-path="url(#clip310)" style="stroke:#000000; stroke-linecap:round; stroke-linejoin:round; stroke-width:4; stroke-opacity:1; fill:none" points="2526.18,1042.58 2526.18,1023.68 "/>
<path clip-path="url(#clip310)" d="M650.86 1107.44 L667.18 1107.44 L667.18 1111.38 L645.235 1111.38 L645.235 1107.44 Q647.897 1104.69 652.481 1100.06 Q657.087 1095.4 658.268 1094.06 Q660.513 1091.54 661.393 1089.8 Q662.295 1088.04 662.295 1086.35 Q662.295 1083.6 660.351 1081.86 Q658.43 1080.13 655.328 1080.13 Q653.129 1080.13 650.675 1080.89 Q648.245 1081.65 645.467 1083.2 L645.467 1078.48 Q648.291 1077.35 650.745 1076.77 Q653.198 1076.19 655.235 1076.19 Q660.606 1076.19 663.8 1078.88 Q666.994 1081.56 666.994 1086.05 Q666.994 1088.18 666.184 1090.1 Q665.397 1092 663.291 1094.59 Q662.712 1095.26 659.61 1098.48 Q656.508 1101.68 650.86 1107.44 Z" fill="#000000" fill-rule="nonzero" fill-opacity="1" /><path clip-path="url(#clip310)" d="M686.994 1079.89 Q683.383 1079.89 681.555 1083.46 Q679.749 1087 679.749 1094.13 Q679.749 1101.24 681.555 1104.8 Q683.383 1108.34 686.994 1108.34 Q690.629 1108.34 692.434 1104.8 Q694.263 1101.24 694.263 1094.13 Q694.263 1087 692.434 1083.46 Q690.629 1079.89 686.994 1079.89 M686.994 1076.19 Q692.805 1076.19 695.86 1080.8 Q698.939 1085.38 698.939 1094.13 Q698.939 1102.86 695.86 1107.46 Q692.805 1112.05 686.994 1112.05 Q681.184 1112.05 678.106 1107.46 Q675.05 1102.86 675.05 1094.13 Q675.05 1085.38 678.106 1080.8 Q681.184 1076.19 686.994 1076.19 Z" fill="#000000" fill-rule="nonzero" fill-opacity="1" /><path clip-path="url(#clip310)" d="M711.184 1107.44 L727.503 1107.44 L727.503 1111.38 L705.559 1111.38 L705.559 1107.44 Q708.221 1104.69 712.804 1100.06 Q717.411 1095.4 718.591 1094.06 Q720.837 1091.54 721.716 1089.8 Q722.619 1088.04 722.619 1086.35 Q722.619 1083.6 720.675 1081.86 Q718.753 1080.13 715.652 1080.13 Q713.453 1080.13 710.999 1080.89 Q708.568 1081.65 705.791 1083.2 L705.791 1078.48 Q708.615 1077.35 711.068 1076.77 Q713.522 1076.19 715.559 1076.19 Q720.929 1076.19 724.124 1078.88 Q727.318 1081.56 727.318 1086.05 Q727.318 1088.18 726.508 1090.1 Q725.721 1092 723.615 1094.59 Q723.036 1095.26 719.934 1098.48 Q716.832 1101.68 711.184 1107.44 Z" fill="#000000" fill-rule="nonzero" fill-opacity="1" /><path clip-path="url(#clip310)" d="M737.364 1076.82 L755.721 1076.82 L755.721 1080.75 L741.647 1080.75 L741.647 1089.22 Q742.665 1088.88 743.684 1088.71 Q744.702 1088.53 745.721 1088.53 Q751.508 1088.53 754.888 1091.7 Q758.267 1094.87 758.267 1100.29 Q758.267 1105.87 754.795 1108.97 Q751.323 1112.05 745.003 1112.05 Q742.827 1112.05 740.559 1111.68 Q738.314 1111.31 735.906 1110.57 L735.906 1105.87 Q737.989 1107 740.212 1107.56 Q742.434 1108.11 744.911 1108.11 Q748.915 1108.11 751.253 1106.01 Q753.591 1103.9 753.591 1100.29 Q753.591 1096.68 751.253 1094.57 Q748.915 1092.46 744.911 1092.46 Q743.036 1092.46 741.161 1092.88 Q739.309 1093.3 737.364 1094.18 L737.364 1076.82 Z" fill="#000000" fill-rule="nonzero" fill-opacity="1" /><path clip-path="url(#clip310)" d="M764.725 1096.49 L777.202 1096.49 L777.202 1100.29 L764.725 1100.29 L764.725 1096.49 Z" fill="#000000" fill-rule="nonzero" fill-opacity="1" /><path clip-path="url(#clip310)" d="M794.586 1079.89 Q790.975 1079.89 789.147 1083.46 Q787.341 1087 787.341 1094.13 Q787.341 1101.24 789.147 1104.8 Q790.975 1108.34 794.586 1108.34 Q798.221 1108.34 800.026 1104.8 Q801.855 1101.24 801.855 1094.13 Q801.855 1087 800.026 1083.46 Q798.221 1079.89 794.586 1079.89 M794.586 1076.19 Q800.397 1076.19 803.452 1080.8 Q806.531 1085.38 806.531 1094.13 Q806.531 1102.86 803.452 1107.46 Q800.397 1112.05 794.586 1112.05 Q788.776 1112.05 785.698 1107.46 Q782.642 1102.86 782.642 1094.13 Q782.642 1085.38 785.698 1080.8 Q788.776 1076.19 794.586 1076.19 Z" fill="#000000" fill-rule="nonzero" fill-opacity="1" /><path clip-path="url(#clip310)" d="M813.568 1076.82 L835.79 1076.82 L835.79 1078.81 L823.244 1111.38 L818.359 1111.38 L830.165 1080.75 L813.568 1080.75 L813.568 1076.82 Z" fill="#000000" fill-rule="nonzero" fill-opacity="1" /><path clip-path="url(#clip310)" d="M842.156 1096.49 L854.632 1096.49 L854.632 1100.29 L842.156 1100.29 L842.156 1096.49 Z" fill="#000000" fill-rule="nonzero" fill-opacity="1" /><path clip-path="url(#clip310)" d="M872.017 1079.89 Q868.405 1079.89 866.577 1083.46 Q864.771 1087 864.771 1094.13 Q864.771 1101.24 866.577 1104.8 Q868.405 1108.34 872.017 1108.34 Q875.651 1108.34 877.456 1104.8 Q879.285 1101.24 879.285 1094.13 Q879.285 1087 877.456 1083.46 Q875.651 1079.89 872.017 1079.89 M872.017 1076.19 Q877.827 1076.19 880.882 1080.8 Q883.961 1085.38 883.961 1094.13 Q883.961 1102.86 880.882 1107.46 Q877.827 1112.05 872.017 1112.05 Q866.206 1112.05 863.128 1107.46 Q860.072 1102.86 860.072 1094.13 Q860.072 1085.38 863.128 1080.8 Q866.206 1076.19 872.017 1076.19 Z" fill="#000000" fill-rule="nonzero" fill-opacity="1" /><path clip-path="url(#clip310)" d="M892.989 1107.44 L900.627 1107.44 L900.627 1081.07 L892.317 1082.74 L892.317 1078.48 L900.581 1076.82 L905.257 1076.82 L905.257 1107.44 L912.896 1107.44 L912.896 1111.38 L892.989 1111.38 L892.989 1107.44 Z" fill="#000000" fill-rule="nonzero" fill-opacity="1" /><path clip-path="url(#clip310)" d="M1524.42 1107.44 L1540.74 1107.44 L1540.74 1111.38 L1518.79 1111.38 L1518.79 1107.44 Q1521.45 1104.69 1526.04 1100.06 Q1530.64 1095.4 1531.82 1094.06 Q1534.07 1091.54 1534.95 1089.8 Q1535.85 1088.04 1535.85 1086.35 Q1535.85 1083.6 1533.91 1081.86 Q1531.99 1080.13 1528.88 1080.13 Q1526.69 1080.13 1524.23 1080.89 Q1521.8 1081.65 1519.02 1083.2 L1519.02 1078.48 Q1521.85 1077.35 1524.3 1076.77 Q1526.75 1076.19 1528.79 1076.19 Q1534.16 1076.19 1537.36 1078.88 Q1540.55 1081.56 1540.55 1086.05 Q1540.55 1088.18 1539.74 1090.1 Q1538.95 1092 1536.85 1094.59 Q1536.27 1095.26 1533.17 1098.48 Q1530.07 1101.68 1524.42 1107.44 Z" fill="#000000" fill-rule="nonzero" fill-opacity="1" /><path clip-path="url(#clip310)" d="M1560.55 1079.89 Q1556.94 1079.89 1555.11 1083.46 Q1553.31 1087 1553.31 1094.13 Q1553.31 1101.24 1555.11 1104.8 Q1556.94 1108.34 1560.55 1108.34 Q1564.19 1108.34 1565.99 1104.8 Q1567.82 1101.24 1567.82 1094.13 Q1567.82 1087 1565.99 1083.46 Q1564.19 1079.89 1560.55 1079.89 M1560.55 1076.19 Q1566.36 1076.19 1569.42 1080.8 Q1572.5 1085.38 1572.5 1094.13 Q1572.5 1102.86 1569.42 1107.46 Q1566.36 1112.05 1560.55 1112.05 Q1554.74 1112.05 1551.66 1107.46 Q1548.61 1102.86 1548.61 1094.13 Q1548.61 1085.38 1551.66 1080.8 Q1554.74 1076.19 1560.55 1076.19 Z" fill="#000000" fill-rule="nonzero" fill-opacity="1" /><path clip-path="url(#clip310)" d="M1584.74 1107.44 L1601.06 1107.44 L1601.06 1111.38 L1579.12 1111.38 L1579.12 1107.44 Q1581.78 1104.69 1586.36 1100.06 Q1590.97 1095.4 1592.15 1094.06 Q1594.39 1091.54 1595.27 1089.8 Q1596.18 1088.04 1596.18 1086.35 Q1596.18 1083.6 1594.23 1081.86 Q1592.31 1080.13 1589.21 1080.13 Q1587.01 1080.13 1584.56 1080.89 Q1582.12 1081.65 1579.35 1083.2 L1579.35 1078.48 Q1582.17 1077.35 1584.62 1076.77 Q1587.08 1076.19 1589.12 1076.19 Q1594.49 1076.19 1597.68 1078.88 Q1600.87 1081.56 1600.87 1086.05 Q1600.87 1088.18 1600.06 1090.1 Q1599.28 1092 1597.17 1094.59 Q1596.59 1095.26 1593.49 1098.48 Q1590.39 1101.68 1584.74 1107.44 Z" fill="#000000" fill-rule="nonzero" fill-opacity="1" /><path clip-path="url(#clip310)" d="M1610.92 1076.82 L1629.28 1076.82 L1629.28 1080.75 L1615.2 1080.75 L1615.2 1089.22 Q1616.22 1088.88 1617.24 1088.71 Q1618.26 1088.53 1619.28 1088.53 Q1625.06 1088.53 1628.44 1091.7 Q1631.82 1094.87 1631.82 1100.29 Q1631.82 1105.87 1628.35 1108.97 Q1624.88 1112.05 1618.56 1112.05 Q1616.38 1112.05 1614.12 1111.68 Q1611.87 1111.31 1609.46 1110.57 L1609.46 1105.87 Q1611.55 1107 1613.77 1107.56 Q1615.99 1108.11 1618.47 1108.11 Q1622.47 1108.11 1624.81 1106.01 Q1627.15 1103.9 1627.15 1100.29 Q1627.15 1096.68 1624.81 1094.57 Q1622.47 1092.46 1618.47 1092.46 Q1616.59 1092.46 1614.72 1092.88 Q1612.87 1093.3 1610.92 1094.18 L1610.92 1076.82 Z" fill="#000000" fill-rule="nonzero" fill-opacity="1" /><path clip-path="url(#clip310)" d="M1638.28 1096.49 L1650.76 1096.49 L1650.76 1100.29 L1638.28 1100.29 L1638.28 1096.49 Z" fill="#000000" fill-rule="nonzero" fill-opacity="1" /><path clip-path="url(#clip310)" d="M1668.14 1079.89 Q1664.53 1079.89 1662.7 1083.46 Q1660.9 1087 1660.9 1094.13 Q1660.9 1101.24 1662.7 1104.8 Q1664.53 1108.34 1668.14 1108.34 Q1671.78 1108.34 1673.58 1104.8 Q1675.41 1101.24 1675.41 1094.13 Q1675.41 1087 1673.58 1083.46 Q1671.78 1079.89 1668.14 1079.89 M1668.14 1076.19 Q1673.95 1076.19 1677.01 1080.8 Q1680.09 1085.38 1680.09 1094.13 Q1680.09 1102.86 1677.01 1107.46 Q1673.95 1112.05 1668.14 1112.05 Q1662.33 1112.05 1659.25 1107.46 Q1656.2 1102.86 1656.2 1094.13 Q1656.2 1085.38 1659.25 1080.8 Q1662.33 1076.19 1668.14 1076.19 Z" fill="#000000" fill-rule="nonzero" fill-opacity="1" /><path clip-path="url(#clip310)" d="M1698.3 1094.96 Q1694.97 1094.96 1693.05 1096.75 Q1691.15 1098.53 1691.15 1101.65 Q1691.15 1104.78 1693.05 1106.56 Q1694.97 1108.34 1698.3 1108.34 Q1701.64 1108.34 1703.56 1106.56 Q1705.48 1104.76 1705.48 1101.65 Q1705.48 1098.53 1703.56 1096.75 Q1701.66 1094.96 1698.3 1094.96 M1693.63 1092.97 Q1690.62 1092.23 1688.93 1090.17 Q1687.26 1088.11 1687.26 1085.15 Q1687.26 1081.01 1690.2 1078.6 Q1693.17 1076.19 1698.3 1076.19 Q1703.47 1076.19 1706.41 1078.6 Q1709.35 1081.01 1709.35 1085.15 Q1709.35 1088.11 1707.66 1090.17 Q1705.99 1092.23 1703 1092.97 Q1706.38 1093.76 1708.26 1096.05 Q1710.16 1098.34 1710.16 1101.65 Q1710.16 1106.68 1707.08 1109.36 Q1704.02 1112.05 1698.3 1112.05 Q1692.59 1112.05 1689.51 1109.36 Q1686.45 1106.68 1686.45 1101.65 Q1686.45 1098.34 1688.35 1096.05 Q1690.25 1093.76 1693.63 1092.97 M1691.92 1085.59 Q1691.92 1088.27 1693.58 1089.78 Q1695.27 1091.28 1698.3 1091.28 Q1701.31 1091.28 1703 1089.78 Q1704.72 1088.27 1704.72 1085.59 Q1704.72 1082.9 1703 1081.4 Q1701.31 1079.89 1698.3 1079.89 Q1695.27 1079.89 1693.58 1081.4 Q1691.92 1082.9 1691.92 1085.59 Z" fill="#000000" fill-rule="nonzero" fill-opacity="1" /><path clip-path="url(#clip310)" d="M1715.71 1096.49 L1728.19 1096.49 L1728.19 1100.29 L1715.71 1100.29 L1715.71 1096.49 Z" fill="#000000" fill-rule="nonzero" fill-opacity="1" /><path clip-path="url(#clip310)" d="M1745.57 1079.89 Q1741.96 1079.89 1740.13 1083.46 Q1738.33 1087 1738.33 1094.13 Q1738.33 1101.24 1740.13 1104.8 Q1741.96 1108.34 1745.57 1108.34 Q1749.21 1108.34 1751.01 1104.8 Q1752.84 1101.24 1752.84 1094.13 Q1752.84 1087 1751.01 1083.46 Q1749.21 1079.89 1745.57 1079.89 M1745.57 1076.19 Q1751.38 1076.19 1754.44 1080.8 Q1757.52 1085.38 1757.52 1094.13 Q1757.52 1102.86 1754.44 1107.46 Q1751.38 1112.05 1745.57 1112.05 Q1739.76 1112.05 1736.68 1107.46 Q1733.63 1102.86 1733.63 1094.13 Q1733.63 1085.38 1736.68 1080.8 Q1739.76 1076.19 1745.57 1076.19 Z" fill="#000000" fill-rule="nonzero" fill-opacity="1" /><path clip-path="url(#clip310)" d="M1766.55 1107.44 L1774.18 1107.44 L1774.18 1081.07 L1765.87 1082.74 L1765.87 1078.48 L1774.14 1076.82 L1778.81 1076.82 L1778.81 1107.44 L1786.45 1107.44 L1786.45 1111.38 L1766.55 1111.38 L1766.55 1107.44 Z" fill="#000000" fill-rule="nonzero" fill-opacity="1" /><path clip-path="url(#clip310)" d="M2397.97 1107.44 L2414.29 1107.44 L2414.29 1111.38 L2392.35 1111.38 L2392.35 1107.44 Q2395.01 1104.69 2399.59 1100.06 Q2404.2 1095.4 2405.38 1094.06 Q2407.63 1091.54 2408.51 1089.8 Q2409.41 1088.04 2409.41 1086.35 Q2409.41 1083.6 2407.46 1081.86 Q2405.54 1080.13 2402.44 1080.13 Q2400.24 1080.13 2397.79 1080.89 Q2395.36 1081.65 2392.58 1083.2 L2392.58 1078.48 Q2395.4 1077.35 2397.86 1076.77 Q2400.31 1076.19 2402.35 1076.19 Q2407.72 1076.19 2410.91 1078.88 Q2414.11 1081.56 2414.11 1086.05 Q2414.11 1088.18 2413.3 1090.1 Q2412.51 1092 2410.4 1094.59 Q2409.83 1095.26 2406.72 1098.48 Q2403.62 1101.68 2397.97 1107.44 Z" fill="#000000" fill-rule="nonzero" fill-opacity="1" /><path clip-path="url(#clip310)" d="M2434.11 1079.89 Q2430.5 1079.89 2428.67 1083.46 Q2426.86 1087 2426.86 1094.13 Q2426.86 1101.24 2428.67 1104.8 Q2430.5 1108.34 2434.11 1108.34 Q2437.74 1108.34 2439.55 1104.8 Q2441.38 1101.24 2441.38 1094.13 Q2441.38 1087 2439.55 1083.46 Q2437.74 1079.89 2434.11 1079.89 M2434.11 1076.19 Q2439.92 1076.19 2442.97 1080.8 Q2446.05 1085.38 2446.05 1094.13 Q2446.05 1102.86 2442.97 1107.46 Q2439.92 1112.05 2434.11 1112.05 Q2428.3 1112.05 2425.22 1107.46 Q2422.16 1102.86 2422.16 1094.13 Q2422.16 1085.38 2425.22 1080.8 Q2428.3 1076.19 2434.11 1076.19 Z" fill="#000000" fill-rule="nonzero" fill-opacity="1" /><path clip-path="url(#clip310)" d="M2458.3 1107.44 L2474.62 1107.44 L2474.62 1111.38 L2452.67 1111.38 L2452.67 1107.44 Q2455.33 1104.69 2459.92 1100.06 Q2464.52 1095.4 2465.7 1094.06 Q2467.95 1091.54 2468.83 1089.8 Q2469.73 1088.04 2469.73 1086.35 Q2469.73 1083.6 2467.79 1081.86 Q2465.87 1080.13 2462.76 1080.13 Q2460.57 1080.13 2458.11 1080.89 Q2455.68 1081.65 2452.9 1083.2 L2452.9 1078.48 Q2455.73 1077.35 2458.18 1076.77 Q2460.64 1076.19 2462.67 1076.19 Q2468.04 1076.19 2471.24 1078.88 Q2474.43 1081.56 2474.43 1086.05 Q2474.43 1088.18 2473.62 1090.1 Q2472.83 1092 2470.73 1094.59 Q2470.15 1095.26 2467.05 1098.48 Q2463.95 1101.68 2458.3 1107.44 Z" fill="#000000" fill-rule="nonzero" fill-opacity="1" /><path clip-path="url(#clip310)" d="M2484.48 1076.82 L2502.83 1076.82 L2502.83 1080.75 L2488.76 1080.75 L2488.76 1089.22 Q2489.78 1088.88 2490.8 1088.71 Q2491.82 1088.53 2492.83 1088.53 Q2498.62 1088.53 2502 1091.7 Q2505.38 1094.87 2505.38 1100.29 Q2505.38 1105.87 2501.91 1108.97 Q2498.44 1112.05 2492.12 1112.05 Q2489.94 1112.05 2487.67 1111.68 Q2485.43 1111.31 2483.02 1110.57 L2483.02 1105.87 Q2485.1 1107 2487.32 1107.56 Q2489.55 1108.11 2492.02 1108.11 Q2496.03 1108.11 2498.37 1106.01 Q2500.7 1103.9 2500.7 1100.29 Q2500.7 1096.68 2498.37 1094.57 Q2496.03 1092.46 2492.02 1092.46 Q2490.15 1092.46 2488.27 1092.88 Q2486.42 1093.3 2484.48 1094.18 L2484.48 1076.82 Z" fill="#000000" fill-rule="nonzero" fill-opacity="1" /><path clip-path="url(#clip310)" d="M2511.84 1096.49 L2524.32 1096.49 L2524.32 1100.29 L2511.84 1100.29 L2511.84 1096.49 Z" fill="#000000" fill-rule="nonzero" fill-opacity="1" /><path clip-path="url(#clip310)" d="M2541.7 1079.89 Q2538.09 1079.89 2536.26 1083.46 Q2534.45 1087 2534.45 1094.13 Q2534.45 1101.24 2536.26 1104.8 Q2538.09 1108.34 2541.7 1108.34 Q2545.33 1108.34 2547.14 1104.8 Q2548.97 1101.24 2548.97 1094.13 Q2548.97 1087 2547.14 1083.46 Q2545.33 1079.89 2541.7 1079.89 M2541.7 1076.19 Q2547.51 1076.19 2550.57 1080.8 Q2553.64 1085.38 2553.64 1094.13 Q2553.64 1102.86 2550.57 1107.46 Q2547.51 1112.05 2541.7 1112.05 Q2535.89 1112.05 2532.81 1107.46 Q2529.76 1102.86 2529.76 1094.13 Q2529.76 1085.38 2532.81 1080.8 Q2535.89 1076.19 2541.7 1076.19 Z" fill="#000000" fill-rule="nonzero" fill-opacity="1" /><path clip-path="url(#clip310)" d="M2562 1110.66 L2562 1106.4 Q2563.76 1107.23 2565.57 1107.67 Q2567.37 1108.11 2569.11 1108.11 Q2573.74 1108.11 2576.17 1105.01 Q2578.62 1101.89 2578.97 1095.54 Q2577.63 1097.53 2575.57 1098.6 Q2573.51 1099.66 2571.01 1099.66 Q2565.82 1099.66 2562.79 1096.54 Q2559.78 1093.39 2559.78 1087.95 Q2559.78 1082.63 2562.93 1079.41 Q2566.07 1076.19 2571.31 1076.19 Q2577.3 1076.19 2580.45 1080.8 Q2583.62 1085.38 2583.62 1094.13 Q2583.62 1102.3 2579.73 1107.19 Q2575.87 1112.05 2569.32 1112.05 Q2567.56 1112.05 2565.75 1111.7 Q2563.94 1111.35 2562 1110.66 M2571.31 1096.01 Q2574.45 1096.01 2576.28 1093.85 Q2578.13 1091.7 2578.13 1087.95 Q2578.13 1084.22 2576.28 1082.07 Q2574.45 1079.89 2571.31 1079.89 Q2568.16 1079.89 2566.31 1082.07 Q2564.48 1084.22 2564.48 1087.95 Q2564.48 1091.7 2566.31 1093.85 Q2568.16 1096.01 2571.31 1096.01 Z" fill="#000000" fill-rule="nonzero" fill-opacity="1" /><path clip-path="url(#clip310)" d="M2589.27 1096.49 L2601.75 1096.49 L2601.75 1100.29 L2589.27 1100.29 L2589.27 1096.49 Z" fill="#000000" fill-rule="nonzero" fill-opacity="1" /><path clip-path="url(#clip310)" d="M2619.13 1079.89 Q2615.52 1079.89 2613.69 1083.46 Q2611.88 1087 2611.88 1094.13 Q2611.88 1101.24 2613.69 1104.8 Q2615.52 1108.34 2619.13 1108.34 Q2622.76 1108.34 2624.57 1104.8 Q2626.4 1101.24 2626.4 1094.13 Q2626.4 1087 2624.57 1083.46 Q2622.76 1079.89 2619.13 1079.89 M2619.13 1076.19 Q2624.94 1076.19 2628 1080.8 Q2631.07 1085.38 2631.07 1094.13 Q2631.07 1102.86 2628 1107.46 Q2624.94 1112.05 2619.13 1112.05 Q2613.32 1112.05 2610.24 1107.46 Q2607.19 1102.86 2607.19 1094.13 Q2607.19 1085.38 2610.24 1080.8 Q2613.32 1076.19 2619.13 1076.19 Z" fill="#000000" fill-rule="nonzero" fill-opacity="1" /><path clip-path="url(#clip310)" d="M2640.1 1107.44 L2647.74 1107.44 L2647.74 1081.07 L2639.43 1082.74 L2639.43 1078.48 L2647.69 1076.82 L2652.37 1076.82 L2652.37 1107.44 L2660.01 1107.44 L2660.01 1111.38 L2640.1 1111.38 L2640.1 1107.44 Z" fill="#000000" fill-rule="nonzero" fill-opacity="1" /><polyline clip-path="url(#clip312)" style="stroke:#000000; stroke-linecap:round; stroke-linejoin:round; stroke-width:2; stroke-opacity:0.1; fill:none" points="271.839,1042.58 3089.76,1042.58 "/>
<polyline clip-path="url(#clip312)" style="stroke:#000000; stroke-linecap:round; stroke-linejoin:round; stroke-width:2; stroke-opacity:0.1; fill:none" points="271.839,460.613 3089.76,460.613 "/>
<polyline clip-path="url(#clip310)" style="stroke:#000000; stroke-linecap:round; stroke-linejoin:round; stroke-width:4; stroke-opacity:1; fill:none" points="271.839,1042.58 271.839,110.236 "/>
<polyline clip-path="url(#clip310)" style="stroke:#000000; stroke-linecap:round; stroke-linejoin:round; stroke-width:4; stroke-opacity:1; fill:none" points="271.839,1042.58 290.737,1042.58 "/>
<polyline clip-path="url(#clip310)" style="stroke:#000000; stroke-linecap:round; stroke-linejoin:round; stroke-width:4; stroke-opacity:1; fill:none" points="271.839,460.613 290.737,460.613 "/>
<path clip-path="url(#clip310)" d="M153.134 1062.37 L160.772 1062.37 L160.772 1036 L152.462 1037.67 L152.462 1033.41 L160.726 1031.74 L165.402 1031.74 L165.402 1062.37 L173.041 1062.37 L173.041 1066.3 L153.134 1066.3 L153.134 1062.37 Z" fill="#000000" fill-rule="nonzero" fill-opacity="1" /><path clip-path="url(#clip310)" d="M192.485 1034.82 Q188.874 1034.82 187.045 1038.39 Q185.24 1041.93 185.24 1049.06 Q185.24 1056.16 187.045 1059.73 Q188.874 1063.27 192.485 1063.27 Q196.119 1063.27 197.925 1059.73 Q199.754 1056.16 199.754 1049.06 Q199.754 1041.93 197.925 1038.39 Q196.119 1034.82 192.485 1034.82 M192.485 1031.12 Q198.295 1031.12 201.351 1035.72 Q204.43 1040.31 204.43 1049.06 Q204.43 1057.78 201.351 1062.39 Q198.295 1066.97 192.485 1066.97 Q186.675 1066.97 183.596 1062.39 Q180.541 1057.78 180.541 1049.06 Q180.541 1040.31 183.596 1035.72 Q186.675 1031.12 192.485 1031.12 Z" fill="#000000" fill-rule="nonzero" fill-opacity="1" /><path clip-path="url(#clip310)" d="M214.134 1013.31 Q211.2 1013.31 209.715 1016.21 Q208.248 1019.09 208.248 1024.88 Q208.248 1030.66 209.715 1033.55 Q211.2 1036.43 214.134 1036.43 Q217.087 1036.43 218.554 1033.55 Q220.04 1030.66 220.04 1024.88 Q220.04 1019.09 218.554 1016.21 Q217.087 1013.31 214.134 1013.31 M214.134 1010.31 Q218.855 1010.31 221.338 1014.05 Q223.839 1017.77 223.839 1024.88 Q223.839 1031.97 221.338 1035.71 Q218.855 1039.44 214.134 1039.44 Q209.414 1039.44 206.912 1035.71 Q204.43 1031.97 204.43 1024.88 Q204.43 1017.77 206.912 1014.05 Q209.414 1010.31 214.134 1010.31 Z" fill="#000000" fill-rule="nonzero" fill-opacity="1" /><path clip-path="url(#clip310)" d="M155.823 480.405 L163.462 480.405 L163.462 454.04 L155.152 455.706 L155.152 451.447 L163.416 449.78 L168.092 449.78 L168.092 480.405 L175.73 480.405 L175.73 484.34 L155.823 484.34 L155.823 480.405 Z" fill="#000000" fill-rule="nonzero" fill-opacity="1" /><path clip-path="url(#clip310)" d="M195.175 452.859 Q191.564 452.859 189.735 456.424 Q187.929 459.966 187.929 467.095 Q187.929 474.202 189.735 477.766 Q191.564 481.308 195.175 481.308 Q198.809 481.308 200.615 477.766 Q202.443 474.202 202.443 467.095 Q202.443 459.966 200.615 456.424 Q198.809 452.859 195.175 452.859 M195.175 449.155 Q200.985 449.155 204.04 453.762 Q207.119 458.345 207.119 467.095 Q207.119 475.822 204.04 480.428 Q200.985 485.012 195.175 485.012 Q189.365 485.012 186.286 480.428 Q183.23 475.822 183.23 467.095 Q183.23 458.345 186.286 453.762 Q189.365 449.155 195.175 449.155 Z" fill="#000000" fill-rule="nonzero" fill-opacity="1" /><path clip-path="url(#clip310)" d="M207.665 453.733 L213.871 453.733 L213.871 432.311 L207.119 433.665 L207.119 430.204 L213.833 428.85 L217.633 428.85 L217.633 453.733 L223.839 453.733 L223.839 456.93 L207.665 456.93 L207.665 453.733 Z" fill="#000000" fill-rule="nonzero" fill-opacity="1" /><path clip-path="url(#clip310)" d="M83.4268 944.153 L70.6636 944.153 L70.6636 954.656 L65.38 954.656 L65.38 937.787 L85.7821 937.787 Q88.4239 941.511 89.7925 945.999 Q91.1293 950.487 91.1293 955.579 Q91.1293 966.719 84.6363 973.021 Q78.1114 979.292 66.494 979.292 Q54.8448 979.292 48.3518 973.021 Q41.8269 966.719 41.8269 955.579 Q41.8269 950.932 42.9727 946.763 Q44.1186 942.561 46.3466 939.028 L53.1897 939.028 Q50.166 942.593 48.6382 946.604 Q47.1104 950.614 47.1104 955.038 Q47.1104 963.759 51.9802 968.152 Q56.85 972.512 66.494 972.512 Q76.1062 972.512 80.976 968.152 Q85.8458 963.759 85.8458 955.038 Q85.8458 951.633 85.2729 948.959 Q84.6681 946.285 83.4268 944.153 Z" fill="#000000" fill-rule="nonzero" fill-opacity="1" /><path clip-path="url(#clip310)" d="M70.9182 895.805 L73.7828 895.805 L73.7828 922.732 Q79.8302 922.35 83.013 919.104 Q86.1641 915.825 86.1641 910.001 Q86.1641 906.627 85.3365 903.476 Q84.509 900.293 82.8539 897.174 L88.3921 897.174 Q89.7289 900.325 90.4291 903.635 Q91.1293 906.945 91.1293 910.351 Q91.1293 918.881 86.1641 923.878 Q81.1988 928.843 72.7324 928.843 Q63.9796 928.843 58.8552 924.133 Q53.699 919.39 53.699 911.369 Q53.699 904.176 58.3459 900.007 Q62.9611 895.805 70.9182 895.805 M69.1995 901.662 Q64.3933 901.725 61.5288 904.367 Q58.6642 906.977 58.6642 911.306 Q58.6642 916.207 61.4333 919.167 Q64.2024 922.096 69.2313 922.541 L69.1995 901.662 Z" fill="#000000" fill-rule="nonzero" fill-opacity="1" /><path clip-path="url(#clip310)" d="M68.6902 856.561 L90.2063 856.561 L90.2063 862.417 L68.8812 862.417 Q63.8204 862.417 61.306 864.391 Q58.7915 866.364 58.7915 870.311 Q58.7915 875.053 61.8152 877.79 Q64.8389 880.528 70.0588 880.528 L90.2063 880.528 L90.2063 886.416 L54.5583 886.416 L54.5583 880.528 L60.0965 880.528 Q56.8818 878.427 55.2904 875.594 Q53.699 872.73 53.699 869.006 Q53.699 862.863 57.5184 859.712 Q61.306 856.561 68.6902 856.561 Z" fill="#000000" fill-rule="nonzero" fill-opacity="1" /><path clip-path="url(#clip310)" d="M58.6642 831.066 Q58.6642 835.777 62.3563 838.514 Q66.0166 841.251 72.4141 841.251 Q78.8117 841.251 82.5038 838.546 Q86.1641 835.809 86.1641 831.066 Q86.1641 826.387 82.4719 823.65 Q78.7798 820.913 72.4141 820.913 Q66.0803 820.913 62.3881 823.65 Q58.6642 826.387 58.6642 831.066 M53.699 831.066 Q53.699 823.427 58.6642 819.067 Q63.6295 814.706 72.4141 814.706 Q81.167 814.706 86.1641 819.067 Q91.1293 823.427 91.1293 831.066 Q91.1293 838.737 86.1641 843.097 Q81.167 847.426 72.4141 847.426 Q63.6295 847.426 58.6642 843.097 Q53.699 838.737 53.699 831.066 Z" fill="#000000" fill-rule="nonzero" fill-opacity="1" /><path clip-path="url(#clip310)" d="M61.4015 777.244 Q57.4547 775.048 55.5768 771.992 Q53.699 768.937 53.699 764.799 Q53.699 759.229 57.6139 756.205 Q61.4969 753.182 68.6902 753.182 L90.2063 753.182 L90.2063 759.07 L68.8812 759.07 Q63.7568 759.07 61.2741 760.884 Q58.7915 762.698 58.7915 766.422 Q58.7915 770.974 61.8152 773.616 Q64.8389 776.257 70.0588 776.257 L90.2063 776.257 L90.2063 782.146 L68.8812 782.146 Q63.7249 782.146 61.2741 783.96 Q58.7915 785.774 58.7915 789.562 Q58.7915 794.049 61.8471 796.691 Q64.8708 799.333 70.0588 799.333 L90.2063 799.333 L90.2063 805.221 L54.5583 805.221 L54.5583 799.333 L60.0965 799.333 Q56.8182 797.328 55.2586 794.527 Q53.699 791.726 53.699 787.875 Q53.699 783.992 55.6723 781.286 Q57.6457 778.549 61.4015 777.244 Z" fill="#000000" fill-rule="nonzero" fill-opacity="1" /><path clip-path="url(#clip310)" d="M70.9182 711.009 L73.7828 711.009 L73.7828 737.936 Q79.8302 737.554 83.013 734.307 Q86.1641 731.029 86.1641 725.204 Q86.1641 721.831 85.3365 718.68 Q84.509 715.497 82.8539 712.377 L88.3921 712.377 Q89.7289 715.529 90.4291 718.839 Q91.1293 722.149 91.1293 725.554 Q91.1293 734.085 86.1641 739.082 Q81.1988 744.047 72.7324 744.047 Q63.9796 744.047 58.8552 739.336 Q53.699 734.594 53.699 726.573 Q53.699 719.38 58.3459 715.21 Q62.9611 711.009 70.9182 711.009 M69.1995 716.865 Q64.3933 716.929 61.5288 719.571 Q58.6642 722.181 58.6642 726.509 Q58.6642 731.411 61.4333 734.371 Q64.2024 737.299 69.2313 737.745 L69.1995 716.865 Z" fill="#000000" fill-rule="nonzero" fill-opacity="1" /><path clip-path="url(#clip310)" d="M55.6087 678.671 L61.1468 678.671 Q59.8737 681.154 59.2371 683.827 Q58.6006 686.501 58.6006 689.365 Q58.6006 693.726 59.9373 695.922 Q61.2741 698.086 63.9477 698.086 Q65.9848 698.086 67.1624 696.527 Q68.3083 694.967 69.3586 690.257 L69.8042 688.251 Q71.141 682.013 73.5918 679.403 Q76.0108 676.761 80.3713 676.761 Q85.3365 676.761 88.2329 680.708 Q91.1293 684.623 91.1293 691.498 Q91.1293 694.363 90.5564 697.482 Q90.0153 700.569 88.9013 704.007 L82.8539 704.007 Q84.5408 700.76 85.4002 697.609 Q86.2277 694.458 86.2277 691.371 Q86.2277 687.233 84.8273 685.005 Q83.395 682.777 80.8169 682.777 Q78.4297 682.777 77.1566 684.4 Q75.8834 685.992 74.7058 691.434 L74.2284 693.471 Q73.0825 698.914 70.7272 701.333 Q68.3401 703.752 64.2024 703.752 Q59.1735 703.752 56.4362 700.187 Q53.699 696.622 53.699 690.066 Q53.699 686.819 54.1764 683.955 Q54.6538 681.09 55.6087 678.671 Z" fill="#000000" fill-rule="nonzero" fill-opacity="1" /><path clip-path="url(#clip310)" d="M42.6863 657.028 L42.6863 651.617 L96.2537 668.168 L96.2537 673.578 L42.6863 657.028 Z" fill="#000000" fill-rule="nonzero" fill-opacity="1" /><path clip-path="url(#clip310)" d="M47.9698 638.79 L84.9227 638.79 L84.9227 631.024 Q84.9227 621.189 80.4668 616.637 Q76.0108 612.054 66.3985 612.054 Q56.85 612.054 52.4258 616.637 Q47.9698 621.189 47.9698 631.024 L47.9698 638.79 M42.6863 645.219 L42.6863 632.01 Q42.6863 618.197 48.4472 611.736 Q54.1764 605.274 66.3985 605.274 Q78.6844 605.274 84.4453 611.767 Q90.2063 618.261 90.2063 632.01 L90.2063 645.219 L42.6863 645.219 Z" fill="#000000" fill-rule="nonzero" fill-opacity="1" /><path clip-path="url(#clip310)" d="M72.2868 579.08 Q72.2868 586.177 73.9101 588.915 Q75.5333 591.652 79.4482 591.652 Q82.5674 591.652 84.4135 589.615 Q86.2277 587.546 86.2277 584.013 Q86.2277 579.143 82.7902 576.215 Q79.3209 573.255 73.5918 573.255 L72.2868 573.255 L72.2868 579.08 M69.8679 567.399 L90.2063 567.399 L90.2063 573.255 L84.7954 573.255 Q88.0419 575.26 89.6015 578.252 Q91.1293 581.244 91.1293 585.573 Q91.1293 591.047 88.0738 594.294 Q84.9864 597.508 79.8302 597.508 Q73.8146 597.508 70.759 593.498 Q67.7035 589.456 67.7035 581.467 L67.7035 573.255 L67.1306 573.255 Q63.0884 573.255 60.8922 575.929 Q58.6642 578.57 58.6642 583.376 Q58.6642 586.432 59.3963 589.328 Q60.1283 592.225 61.5924 594.898 L56.1816 594.898 Q54.9403 591.684 54.3355 588.66 Q53.699 585.636 53.699 582.772 Q53.699 575.037 57.7094 571.218 Q61.7197 567.399 69.8679 567.399 Z" fill="#000000" fill-rule="nonzero" fill-opacity="1" /><path clip-path="url(#clip310)" d="M93.5165 540.503 Q99.8822 542.986 101.824 545.341 Q103.765 547.697 103.765 551.643 L103.765 556.322 L98.8636 556.322 L98.8636 552.885 Q98.8636 550.466 97.7178 549.129 Q96.572 547.792 92.307 546.169 L89.6334 545.119 L54.5583 559.537 L54.5583 553.33 L82.4401 542.19 L54.5583 531.05 L54.5583 524.844 L93.5165 540.503 Z" fill="#000000" fill-rule="nonzero" fill-opacity="1" /><path clip-path="url(#clip310)" d="M40.7447 481.971 Q48.0653 486.236 55.2267 488.305 Q62.3881 490.373 69.7405 490.373 Q77.0929 490.373 84.318 488.305 Q91.5113 486.204 98.8 481.971 L98.8 487.063 Q91.3203 491.838 84.0952 494.225 Q76.8701 496.58 69.7405 496.58 Q62.6428 496.58 55.4495 494.225 Q48.2563 491.869 40.7447 487.063 L40.7447 481.971 Z" fill="#000000" fill-rule="nonzero" fill-opacity="1" /><path clip-path="url(#clip310)" d="M44.2459 441.867 L50.5161 441.867 Q48.7655 445.527 47.9062 448.774 Q47.0468 452.02 47.0468 455.044 Q47.0468 460.295 49.0838 463.16 Q51.1208 465.993 54.8766 465.993 Q58.0276 465.993 59.6509 464.115 Q61.2423 462.205 62.229 456.922 L63.0247 453.039 Q64.3933 445.845 67.8627 442.44 Q71.3001 439.002 77.0929 439.002 Q83.9997 439.002 87.5645 443.649 Q91.1293 448.264 91.1293 457.208 Q91.1293 460.582 90.3654 464.401 Q89.6015 468.189 88.1056 472.263 L81.4853 472.263 Q83.6814 468.348 84.7954 464.592 Q85.9094 460.837 85.9094 457.208 Q85.9094 451.702 83.7451 448.71 Q81.5808 445.718 77.5704 445.718 Q74.0692 445.718 72.0958 447.882 Q70.1225 450.015 69.1358 454.916 L68.3719 458.831 Q66.9396 466.025 63.8841 469.239 Q60.8285 472.454 55.3859 472.454 Q49.0838 472.454 45.4554 468.03 Q41.8269 463.574 41.8269 455.776 Q41.8269 452.434 42.4317 448.965 Q43.0364 445.495 44.2459 441.867 Z" fill="#000000" fill-rule="nonzero" fill-opacity="1" /><path clip-path="url(#clip310)" d="M55.927 403.577 L61.4015 403.577 Q60.0328 406.06 59.3644 408.574 Q58.6642 411.057 58.6642 413.603 Q58.6642 419.3 62.2927 422.451 Q65.8893 425.602 72.4141 425.602 Q78.939 425.602 82.5674 422.451 Q86.1641 419.3 86.1641 413.603 Q86.1641 411.057 85.4957 408.574 Q84.7954 406.06 83.4268 403.577 L88.8377 403.577 Q89.9835 406.028 90.5564 408.67 Q91.1293 411.28 91.1293 414.24 Q91.1293 422.292 86.0686 427.035 Q81.0078 431.777 72.4141 431.777 Q63.6931 431.777 58.696 427.003 Q53.699 422.197 53.699 413.858 Q53.699 411.152 54.2719 408.574 Q54.813 405.996 55.927 403.577 Z" fill="#000000" fill-rule="nonzero" fill-opacity="1" /><path clip-path="url(#clip310)" d="M58.6642 379.578 Q58.6642 384.289 62.3563 387.026 Q66.0166 389.763 72.4141 389.763 Q78.8117 389.763 82.5038 387.058 Q86.1641 384.321 86.1641 379.578 Q86.1641 374.9 82.4719 372.162 Q78.7798 369.425 72.4141 369.425 Q66.0803 369.425 62.3881 372.162 Q58.6642 374.9 58.6642 379.578 M53.699 379.578 Q53.699 371.939 58.6642 367.579 Q63.6295 363.218 72.4141 363.218 Q81.167 363.218 86.1641 367.579 Q91.1293 371.939 91.1293 379.578 Q91.1293 387.249 86.1641 391.61 Q81.167 395.938 72.4141 395.938 Q63.6295 395.938 58.6642 391.61 Q53.699 387.249 53.699 379.578 Z" fill="#000000" fill-rule="nonzero" fill-opacity="1" /><path clip-path="url(#clip310)" d="M44.4369 347.718 L54.5583 347.718 L54.5583 335.655 L59.1098 335.655 L59.1098 347.718 L78.4616 347.718 Q82.8221 347.718 84.0634 346.54 Q85.3047 345.331 85.3047 341.671 L85.3047 335.655 L90.2063 335.655 L90.2063 341.671 Q90.2063 348.45 87.6918 351.028 Q85.1455 353.606 78.4616 353.606 L59.1098 353.606 L59.1098 357.903 L54.5583 357.903 L54.5583 353.606 L44.4369 353.606 L44.4369 347.718 Z" fill="#000000" fill-rule="nonzero" fill-opacity="1" /><path clip-path="url(#clip310)" d="M40.6811 327.952 L40.6811 322.096 L90.2063 322.096 L90.2063 327.952 L40.6811 327.952 Z" fill="#000000" fill-rule="nonzero" fill-opacity="1" /><path clip-path="url(#clip310)" d="M72.2868 293.641 Q72.2868 300.739 73.9101 303.476 Q75.5333 306.214 79.4482 306.214 Q82.5674 306.214 84.4135 304.177 Q86.2277 302.108 86.2277 298.575 Q86.2277 293.705 82.7902 290.777 Q79.3209 287.817 73.5918 287.817 L72.2868 287.817 L72.2868 293.641 M69.8679 281.96 L90.2063 281.96 L90.2063 287.817 L84.7954 287.817 Q88.0419 289.822 89.6015 292.814 Q91.1293 295.806 91.1293 300.134 Q91.1293 305.609 88.0738 308.855 Q84.9864 312.07 79.8302 312.07 Q73.8146 312.07 70.759 308.06 Q67.7035 304.017 67.7035 296.028 L67.7035 287.817 L67.1306 287.817 Q63.0884 287.817 60.8922 290.49 Q58.6642 293.132 58.6642 297.938 Q58.6642 300.994 59.3963 303.89 Q60.1283 306.786 61.5924 309.46 L56.1816 309.46 Q54.9403 306.245 54.3355 303.222 Q53.699 300.198 53.699 297.333 Q53.699 289.599 57.7094 285.78 Q61.7197 281.96 69.8679 281.96 Z" fill="#000000" fill-rule="nonzero" fill-opacity="1" /><path clip-path="url(#clip310)" d="M68.6902 240.265 L90.2063 240.265 L90.2063 246.121 L68.8812 246.121 Q63.8204 246.121 61.306 248.095 Q58.7915 250.068 58.7915 254.015 Q58.7915 258.757 61.8152 261.494 Q64.8389 264.232 70.0588 264.232 L90.2063 264.232 L90.2063 270.12 L54.5583 270.12 L54.5583 264.232 L60.0965 264.232 Q56.8818 262.131 55.2904 259.298 Q53.699 256.434 53.699 252.71 Q53.699 246.567 57.5184 243.416 Q61.306 240.265 68.6902 240.265 Z" fill="#000000" fill-rule="nonzero" fill-opacity="1" /><path clip-path="url(#clip310)" d="M59.9692 205.126 L40.6811 205.126 L40.6811 199.27 L90.2063 199.27 L90.2063 205.126 L84.8591 205.126 Q88.0419 206.972 89.6015 209.805 Q91.1293 212.606 91.1293 216.553 Q91.1293 223.014 85.9731 227.088 Q80.8169 231.13 72.4141 231.13 Q64.0114 231.13 58.8552 227.088 Q53.699 223.014 53.699 216.553 Q53.699 212.606 55.2586 209.805 Q56.7863 206.972 59.9692 205.126 M72.4141 225.083 Q78.8753 225.083 82.5674 222.441 Q86.2277 219.767 86.2277 215.12 Q86.2277 210.473 82.5674 207.8 Q78.8753 205.126 72.4141 205.126 Q65.9529 205.126 62.2927 207.8 Q58.6006 210.473 58.6006 215.12 Q58.6006 219.767 62.2927 222.441 Q65.9529 225.083 72.4141 225.083 Z" fill="#000000" fill-rule="nonzero" fill-opacity="1" /><path clip-path="url(#clip310)" d="M40.7447 188.13 L40.7447 183.037 Q48.2563 178.263 55.4495 175.908 Q62.6428 173.52 69.7405 173.52 Q76.8701 173.52 84.0952 175.908 Q91.3203 178.263 98.8 183.037 L98.8 188.13 Q91.5113 183.897 84.318 181.828 Q77.0929 179.727 69.7405 179.727 Q62.3881 179.727 55.2267 181.828 Q48.0653 183.897 40.7447 188.13 Z" fill="#000000" fill-rule="nonzero" fill-opacity="1" /><path clip-path="url(#clip312)" d="M288.747 436.524 L288.747 1042.58 L311.29 1042.58 L311.29 436.524 L288.747 436.524 L288.747 436.524  Z" fill="#009af9" fill-rule="evenodd" fill-opacity="0.5"/>
<polyline clip-path="url(#clip312)" style="stroke:#000000; stroke-linecap:round; stroke-linejoin:round; stroke-width:4; stroke-opacity:0.5; fill:none" points="288.747,436.524 288.747,1042.58 311.29,1042.58 311.29,436.524 288.747,436.524 "/>
<path clip-path="url(#clip312)" d="M316.926 358.134 L316.926 1042.58 L339.469 1042.58 L339.469 358.134 L316.926 358.134 L316.926 358.134  Z" fill="#009af9" fill-rule="evenodd" fill-opacity="0.5"/>
<polyline clip-path="url(#clip312)" style="stroke:#000000; stroke-linecap:round; stroke-linejoin:round; stroke-width:4; stroke-opacity:0.5; fill:none" points="316.926,358.134 316.926,1042.58 339.469,1042.58 339.469,358.134 316.926,358.134 "/>
<path clip-path="url(#clip312)" d="M345.105 182.946 L345.105 1042.58 L367.649 1042.58 L367.649 182.946 L345.105 182.946 L345.105 182.946  Z" fill="#009af9" fill-rule="evenodd" fill-opacity="0.5"/>
<polyline clip-path="url(#clip312)" style="stroke:#000000; stroke-linecap:round; stroke-linejoin:round; stroke-width:4; stroke-opacity:0.5; fill:none" points="345.105,182.946 345.105,1042.58 367.649,1042.58 367.649,182.946 345.105,182.946 "/>
<path clip-path="url(#clip312)" d="M373.285 151.312 L373.285 1042.58 L395.828 1042.58 L395.828 151.312 L373.285 151.312 L373.285 151.312  Z" fill="#009af9" fill-rule="evenodd" fill-opacity="0.5"/>
<polyline clip-path="url(#clip312)" style="stroke:#000000; stroke-linecap:round; stroke-linejoin:round; stroke-width:4; stroke-opacity:0.5; fill:none" points="373.285,151.312 373.285,1042.58 395.828,1042.58 395.828,151.312 373.285,151.312 "/>
<path clip-path="url(#clip312)" d="M401.464 209.575 L401.464 1042.58 L424.007 1042.58 L424.007 209.575 L401.464 209.575 L401.464 209.575  Z" fill="#009af9" fill-rule="evenodd" fill-opacity="0.5"/>
<polyline clip-path="url(#clip312)" style="stroke:#000000; stroke-linecap:round; stroke-linejoin:round; stroke-width:4; stroke-opacity:0.5; fill:none" points="401.464,209.575 401.464,1042.58 424.007,1042.58 424.007,209.575 401.464,209.575 "/>
<path clip-path="url(#clip312)" d="M429.643 158.857 L429.643 1042.58 L452.186 1042.58 L452.186 158.857 L429.643 158.857 L429.643 158.857  Z" fill="#009af9" fill-rule="evenodd" fill-opacity="0.5"/>
<polyline clip-path="url(#clip312)" style="stroke:#000000; stroke-linecap:round; stroke-linejoin:round; stroke-width:4; stroke-opacity:0.5; fill:none" points="429.643,158.857 429.643,1042.58 452.186,1042.58 452.186,158.857 429.643,158.857 "/>
<path clip-path="url(#clip312)" d="M457.822 166.634 L457.822 1042.58 L480.366 1042.58 L480.366 166.634 L457.822 166.634 L457.822 166.634  Z" fill="#009af9" fill-rule="evenodd" fill-opacity="0.5"/>
<polyline clip-path="url(#clip312)" style="stroke:#000000; stroke-linecap:round; stroke-linejoin:round; stroke-width:4; stroke-opacity:0.5; fill:none" points="457.822,166.634 457.822,1042.58 480.366,1042.58 480.366,166.634 457.822,166.634 "/>
<path clip-path="url(#clip312)" d="M486.001 550.76 L486.001 1042.58 L508.545 1042.58 L508.545 550.76 L486.001 550.76 L486.001 550.76  Z" fill="#009af9" fill-rule="evenodd" fill-opacity="0.5"/>
<polyline clip-path="url(#clip312)" style="stroke:#000000; stroke-linecap:round; stroke-linejoin:round; stroke-width:4; stroke-opacity:0.5; fill:none" points="486.001,550.76 486.001,1042.58 508.545,1042.58 508.545,550.76 486.001,550.76 "/>
<path clip-path="url(#clip312)" d="M514.181 487.242 L514.181 1042.58 L536.724 1042.58 L536.724 487.242 L514.181 487.242 L514.181 487.242  Z" fill="#009af9" fill-rule="evenodd" fill-opacity="0.5"/>
<polyline clip-path="url(#clip312)" style="stroke:#000000; stroke-linecap:round; stroke-linejoin:round; stroke-width:4; stroke-opacity:0.5; fill:none" points="514.181,487.242 514.181,1042.58 536.724,1042.58 536.724,487.242 514.181,487.242 "/>
<path clip-path="url(#clip312)" d="M542.36 182.946 L542.36 1042.58 L564.903 1042.58 L564.903 182.946 L542.36 182.946 L542.36 182.946  Z" fill="#009af9" fill-rule="evenodd" fill-opacity="0.5"/>
<polyline clip-path="url(#clip312)" style="stroke:#000000; stroke-linecap:round; stroke-linejoin:round; stroke-width:4; stroke-opacity:0.5; fill:none" points="542.36,182.946 542.36,1042.58 564.903,1042.58 564.903,182.946 542.36,182.946 "/>
<path clip-path="url(#clip312)" d="M570.539 239.344 L570.539 1042.58 L593.083 1042.58 L593.083 239.344 L570.539 239.344 L570.539 239.344  Z" fill="#009af9" fill-rule="evenodd" fill-opacity="0.5"/>
<polyline clip-path="url(#clip312)" style="stroke:#000000; stroke-linecap:round; stroke-linejoin:round; stroke-width:4; stroke-opacity:0.5; fill:none" points="570.539,239.344 570.539,1042.58 593.083,1042.58 593.083,239.344 570.539,239.344 "/>
<path clip-path="url(#clip312)" d="M598.718 298.389 L598.718 1042.58 L621.262 1042.58 L621.262 298.389 L598.718 298.389 L598.718 298.389  Z" fill="#009af9" fill-rule="evenodd" fill-opacity="0.5"/>
<polyline clip-path="url(#clip312)" style="stroke:#000000; stroke-linecap:round; stroke-linejoin:round; stroke-width:4; stroke-opacity:0.5; fill:none" points="598.718,298.389 598.718,1042.58 621.262,1042.58 621.262,298.389 598.718,298.389 "/>
<path clip-path="url(#clip312)" d="M626.898 487.242 L626.898 1042.58 L649.441 1042.58 L649.441 487.242 L626.898 487.242 L626.898 487.242  Z" fill="#009af9" fill-rule="evenodd" fill-opacity="0.5"/>
<polyline clip-path="url(#clip312)" style="stroke:#000000; stroke-linecap:round; stroke-linejoin:round; stroke-width:4; stroke-opacity:0.5; fill:none" points="626.898,487.242 626.898,1042.58 649.441,1042.58 649.441,487.242 626.898,487.242 "/>
<path clip-path="url(#clip312)" d="M655.077 487.242 L655.077 1042.58 L677.62 1042.58 L677.62 487.242 L655.077 487.242 L655.077 487.242  Z" fill="#009af9" fill-rule="evenodd" fill-opacity="0.5"/>
<polyline clip-path="url(#clip312)" style="stroke:#000000; stroke-linecap:round; stroke-linejoin:round; stroke-width:4; stroke-opacity:0.5; fill:none" points="655.077,487.242 655.077,1042.58 677.62,1042.58 677.62,487.242 655.077,487.242 "/>
<path clip-path="url(#clip312)" d="M683.256 635.801 L683.256 1042.58 L705.8 1042.58 L705.8 635.801 L683.256 635.801 L683.256 635.801  Z" fill="#009af9" fill-rule="evenodd" fill-opacity="0.5"/>
<polyline clip-path="url(#clip312)" style="stroke:#000000; stroke-linecap:round; stroke-linejoin:round; stroke-width:4; stroke-opacity:0.5; fill:none" points="683.256,635.801 683.256,1042.58 705.8,1042.58 705.8,635.801 683.256,635.801 "/>
<path clip-path="url(#clip312)" d="M711.435 487.242 L711.435 1042.58 L733.979 1042.58 L733.979 487.242 L711.435 487.242 L711.435 487.242  Z" fill="#009af9" fill-rule="evenodd" fill-opacity="0.5"/>
<polyline clip-path="url(#clip312)" style="stroke:#000000; stroke-linecap:round; stroke-linejoin:round; stroke-width:4; stroke-opacity:0.5; fill:none" points="711.435,487.242 711.435,1042.58 733.979,1042.58 733.979,487.242 711.435,487.242 "/>
<path clip-path="url(#clip312)" d="M739.615 394.302 L739.615 1042.58 L762.158 1042.58 L762.158 394.302 L739.615 394.302 L739.615 394.302  Z" fill="#009af9" fill-rule="evenodd" fill-opacity="0.5"/>
<polyline clip-path="url(#clip312)" style="stroke:#000000; stroke-linecap:round; stroke-linejoin:round; stroke-width:4; stroke-opacity:0.5; fill:none" points="739.615,394.302 739.615,1042.58 762.158,1042.58 762.158,394.302 739.615,394.302 "/>
<path clip-path="url(#clip312)" d="M767.794 375.572 L767.794 1042.58 L790.337 1042.58 L790.337 375.572 L767.794 375.572 L767.794 375.572  Z" fill="#009af9" fill-rule="evenodd" fill-opacity="0.5"/>
<polyline clip-path="url(#clip312)" style="stroke:#000000; stroke-linecap:round; stroke-linejoin:round; stroke-width:4; stroke-opacity:0.5; fill:none" points="767.794,375.572 767.794,1042.58 790.337,1042.58 790.337,375.572 767.794,375.572 "/>
<path clip-path="url(#clip312)" d="M795.973 358.134 L795.973 1042.58 L818.517 1042.58 L818.517 358.134 L795.973 358.134 L795.973 358.134  Z" fill="#009af9" fill-rule="evenodd" fill-opacity="0.5"/>
<polyline clip-path="url(#clip312)" style="stroke:#000000; stroke-linecap:round; stroke-linejoin:round; stroke-width:4; stroke-opacity:0.5; fill:none" points="795.973,358.134 795.973,1042.58 818.517,1042.58 818.517,358.134 795.973,358.134 "/>
<path clip-path="url(#clip312)" d="M824.152 414.532 L824.152 1042.58 L846.696 1042.58 L846.696 414.532 L824.152 414.532 L824.152 414.532  Z" fill="#009af9" fill-rule="evenodd" fill-opacity="0.5"/>
<polyline clip-path="url(#clip312)" style="stroke:#000000; stroke-linecap:round; stroke-linejoin:round; stroke-width:4; stroke-opacity:0.5; fill:none" points="824.152,414.532 824.152,1042.58 846.696,1042.58 846.696,414.532 824.152,414.532 "/>
<path clip-path="url(#clip312)" d="M852.332 375.572 L852.332 1042.58 L874.875 1042.58 L874.875 375.572 L852.332 375.572 L852.332 375.572  Z" fill="#009af9" fill-rule="evenodd" fill-opacity="0.5"/>
<polyline clip-path="url(#clip312)" style="stroke:#000000; stroke-linecap:round; stroke-linejoin:round; stroke-width:4; stroke-opacity:0.5; fill:none" points="852.332,375.572 852.332,1042.58 874.875,1042.58 874.875,375.572 852.332,375.572 "/>
<path clip-path="url(#clip312)" d="M880.511 867.387 L880.511 1042.58 L903.054 1042.58 L903.054 867.387 L880.511 867.387 L880.511 867.387  Z" fill="#009af9" fill-rule="evenodd" fill-opacity="0.5"/>
<polyline clip-path="url(#clip312)" style="stroke:#000000; stroke-linecap:round; stroke-linejoin:round; stroke-width:4; stroke-opacity:0.5; fill:none" points="880.511,867.387 880.511,1042.58 903.054,1042.58 903.054,867.387 880.511,867.387 "/>
<path clip-path="url(#clip312)" d="M908.69 589.721 L908.69 1042.58 L931.234 1042.58 L931.234 589.721 L908.69 589.721 L908.69 589.721  Z" fill="#009af9" fill-rule="evenodd" fill-opacity="0.5"/>
<polyline clip-path="url(#clip312)" style="stroke:#000000; stroke-linecap:round; stroke-linejoin:round; stroke-width:4; stroke-opacity:0.5; fill:none" points="908.69,589.721 908.69,1042.58 931.234,1042.58 931.234,589.721 908.69,589.721 "/>
<path clip-path="url(#clip312)" d="M936.869 285.425 L936.869 1042.58 L959.413 1042.58 L959.413 285.425 L936.869 285.425 L936.869 285.425  Z" fill="#009af9" fill-rule="evenodd" fill-opacity="0.5"/>
<polyline clip-path="url(#clip312)" style="stroke:#000000; stroke-linecap:round; stroke-linejoin:round; stroke-width:4; stroke-opacity:0.5; fill:none" points="936.869,285.425 936.869,1042.58 959.413,1042.58 959.413,285.425 936.869,285.425 "/>
<path clip-path="url(#clip312)" d="M965.049 375.572 L965.049 1042.58 L987.592 1042.58 L987.592 375.572 L965.049 375.572 L965.049 375.572  Z" fill="#009af9" fill-rule="evenodd" fill-opacity="0.5"/>
<polyline clip-path="url(#clip312)" style="stroke:#000000; stroke-linecap:round; stroke-linejoin:round; stroke-width:4; stroke-opacity:0.5; fill:none" points="965.049,375.572 965.049,1042.58 987.592,1042.58 987.592,375.572 965.049,375.572 "/>
<path clip-path="url(#clip312)" d="M993.228 358.134 L993.228 1042.58 L1015.77 1042.58 L1015.77 358.134 L993.228 358.134 L993.228 358.134  Z" fill="#009af9" fill-rule="evenodd" fill-opacity="0.5"/>
<polyline clip-path="url(#clip312)" style="stroke:#000000; stroke-linecap:round; stroke-linejoin:round; stroke-width:4; stroke-opacity:0.5; fill:none" points="993.228,358.134 993.228,1042.58 1015.77,1042.58 1015.77,358.134 993.228,358.134 "/>
<path clip-path="url(#clip312)" d="M1021.41 394.302 L1021.41 1042.58 L1043.95 1042.58 L1043.95 394.302 L1021.41 394.302 L1021.41 394.302  Z" fill="#009af9" fill-rule="evenodd" fill-opacity="0.5"/>
<polyline clip-path="url(#clip312)" style="stroke:#000000; stroke-linecap:round; stroke-linejoin:round; stroke-width:4; stroke-opacity:0.5; fill:none" points="1021.41,394.302 1021.41,1042.58 1043.95,1042.58 1043.95,394.302 1021.41,394.302 "/>
<path clip-path="url(#clip312)" d="M1049.59 219.114 L1049.59 1042.58 L1072.13 1042.58 L1072.13 219.114 L1049.59 219.114 L1049.59 219.114  Z" fill="#009af9" fill-rule="evenodd" fill-opacity="0.5"/>
<polyline clip-path="url(#clip312)" style="stroke:#000000; stroke-linecap:round; stroke-linejoin:round; stroke-width:4; stroke-opacity:0.5; fill:none" points="1049.59,219.114 1049.59,1042.58 1072.13,1042.58 1072.13,219.114 1049.59,219.114 "/>
<path clip-path="url(#clip312)" d="M1077.77 589.721 L1077.77 1042.58 L1100.31 1042.58 L1100.31 589.721 L1077.77 589.721 L1077.77 589.721  Z" fill="#009af9" fill-rule="evenodd" fill-opacity="0.5"/>
<polyline clip-path="url(#clip312)" style="stroke:#000000; stroke-linecap:round; stroke-linejoin:round; stroke-width:4; stroke-opacity:0.5; fill:none" points="1077.77,589.721 1077.77,1042.58 1100.31,1042.58 1100.31,589.721 1077.77,589.721 "/>
<path clip-path="url(#clip312)" d="M1105.94 550.76 L1105.94 1042.58 L1128.49 1042.58 L1128.49 550.76 L1105.94 550.76 L1105.94 550.76  Z" fill="#009af9" fill-rule="evenodd" fill-opacity="0.5"/>
<polyline clip-path="url(#clip312)" style="stroke:#000000; stroke-linecap:round; stroke-linejoin:round; stroke-width:4; stroke-opacity:0.5; fill:none" points="1105.94,550.76 1105.94,1042.58 1128.49,1042.58 1128.49,550.76 1105.94,550.76 "/>
<path clip-path="url(#clip312)" d="M1134.12 326.5 L1134.12 1042.58 L1156.67 1042.58 L1156.67 326.5 L1134.12 326.5 L1134.12 326.5  Z" fill="#009af9" fill-rule="evenodd" fill-opacity="0.5"/>
<polyline clip-path="url(#clip312)" style="stroke:#000000; stroke-linecap:round; stroke-linejoin:round; stroke-width:4; stroke-opacity:0.5; fill:none" points="1134.12,326.5 1134.12,1042.58 1156.67,1042.58 1156.67,326.5 1134.12,326.5 "/>
<path clip-path="url(#clip312)" d="M1162.3 341.823 L1162.3 1042.58 L1184.85 1042.58 L1184.85 341.823 L1162.3 341.823 L1162.3 341.823  Z" fill="#009af9" fill-rule="evenodd" fill-opacity="0.5"/>
<polyline clip-path="url(#clip312)" style="stroke:#000000; stroke-linecap:round; stroke-linejoin:round; stroke-width:4; stroke-opacity:0.5; fill:none" points="1162.3,341.823 1162.3,1042.58 1184.85,1042.58 1184.85,341.823 1162.3,341.823 "/>
<path clip-path="url(#clip312)" d="M1190.48 312.054 L1190.48 1042.58 L1213.03 1042.58 L1213.03 312.054 L1190.48 312.054 L1190.48 312.054  Z" fill="#009af9" fill-rule="evenodd" fill-opacity="0.5"/>
<polyline clip-path="url(#clip312)" style="stroke:#000000; stroke-linecap:round; stroke-linejoin:round; stroke-width:4; stroke-opacity:0.5; fill:none" points="1190.48,312.054 1190.48,1042.58 1213.03,1042.58 1213.03,312.054 1190.48,312.054 "/>
<path clip-path="url(#clip312)" d="M1218.66 273.093 L1218.66 1042.58 L1241.21 1042.58 L1241.21 273.093 L1218.66 273.093 L1218.66 273.093  Z" fill="#009af9" fill-rule="evenodd" fill-opacity="0.5"/>
<polyline clip-path="url(#clip312)" style="stroke:#000000; stroke-linecap:round; stroke-linejoin:round; stroke-width:4; stroke-opacity:0.5; fill:none" points="1218.66,273.093 1218.66,1042.58 1241.21,1042.58 1241.21,273.093 1218.66,273.093 "/>
<path clip-path="url(#clip312)" d="M1246.84 394.302 L1246.84 1042.58 L1269.38 1042.58 L1269.38 394.302 L1246.84 394.302 L1246.84 394.302  Z" fill="#009af9" fill-rule="evenodd" fill-opacity="0.5"/>
<polyline clip-path="url(#clip312)" style="stroke:#000000; stroke-linecap:round; stroke-linejoin:round; stroke-width:4; stroke-opacity:0.5; fill:none" points="1246.84,394.302 1246.84,1042.58 1269.38,1042.58 1269.38,394.302 1246.84,394.302 "/>
<path clip-path="url(#clip312)" d="M1275.02 550.76 L1275.02 1042.58 L1297.56 1042.58 L1297.56 550.76 L1275.02 550.76 L1275.02 550.76  Z" fill="#009af9" fill-rule="evenodd" fill-opacity="0.5"/>
<polyline clip-path="url(#clip312)" style="stroke:#000000; stroke-linecap:round; stroke-linejoin:round; stroke-width:4; stroke-opacity:0.5; fill:none" points="1275.02,550.76 1275.02,1042.58 1297.56,1042.58 1297.56,550.76 1275.02,550.76 "/>
<path clip-path="url(#clip312)" d="M1303.2 273.093 L1303.2 1042.58 L1325.74 1042.58 L1325.74 273.093 L1303.2 273.093 L1303.2 273.093  Z" fill="#009af9" fill-rule="evenodd" fill-opacity="0.5"/>
<polyline clip-path="url(#clip312)" style="stroke:#000000; stroke-linecap:round; stroke-linejoin:round; stroke-width:4; stroke-opacity:0.5; fill:none" points="1303.2,273.093 1303.2,1042.58 1325.74,1042.58 1325.74,273.093 1303.2,273.093 "/>
<path clip-path="url(#clip312)" d="M1331.38 358.134 L1331.38 1042.58 L1353.92 1042.58 L1353.92 358.134 L1331.38 358.134 L1331.38 358.134  Z" fill="#009af9" fill-rule="evenodd" fill-opacity="0.5"/>
<polyline clip-path="url(#clip312)" style="stroke:#000000; stroke-linecap:round; stroke-linejoin:round; stroke-width:4; stroke-opacity:0.5; fill:none" points="1331.38,358.134 1331.38,1042.58 1353.92,1042.58 1353.92,358.134 1331.38,358.134 "/>
<path clip-path="url(#clip312)" d="M1359.56 312.054 L1359.56 1042.58 L1382.1 1042.58 L1382.1 312.054 L1359.56 312.054 L1359.56 312.054  Z" fill="#009af9" fill-rule="evenodd" fill-opacity="0.5"/>
<polyline clip-path="url(#clip312)" style="stroke:#000000; stroke-linecap:round; stroke-linejoin:round; stroke-width:4; stroke-opacity:0.5; fill:none" points="1359.56,312.054 1359.56,1042.58 1382.1,1042.58 1382.1,312.054 1359.56,312.054 "/>
<path clip-path="url(#clip312)" d="M1387.74 273.093 L1387.74 1042.58 L1410.28 1042.58 L1410.28 273.093 L1387.74 273.093 L1387.74 273.093  Z" fill="#009af9" fill-rule="evenodd" fill-opacity="0.5"/>
<polyline clip-path="url(#clip312)" style="stroke:#000000; stroke-linecap:round; stroke-linejoin:round; stroke-width:4; stroke-opacity:0.5; fill:none" points="1387.74,273.093 1387.74,1042.58 1410.28,1042.58 1410.28,273.093 1387.74,273.093 "/>
<path clip-path="url(#clip312)" d="M1415.92 436.524 L1415.92 1042.58 L1438.46 1042.58 L1438.46 436.524 L1415.92 436.524 L1415.92 436.524  Z" fill="#009af9" fill-rule="evenodd" fill-opacity="0.5"/>
<polyline clip-path="url(#clip312)" style="stroke:#000000; stroke-linecap:round; stroke-linejoin:round; stroke-width:4; stroke-opacity:0.5; fill:none" points="1415.92,436.524 1415.92,1042.58 1438.46,1042.58 1438.46,436.524 1415.92,436.524 "/>
<path clip-path="url(#clip312)" d="M1444.1 460.613 L1444.1 1042.58 L1466.64 1042.58 L1466.64 460.613 L1444.1 460.613 L1444.1 460.613  Z" fill="#009af9" fill-rule="evenodd" fill-opacity="0.5"/>
<polyline clip-path="url(#clip312)" style="stroke:#000000; stroke-linecap:round; stroke-linejoin:round; stroke-width:4; stroke-opacity:0.5; fill:none" points="1444.1,460.613 1444.1,1042.58 1466.64,1042.58 1466.64,460.613 1444.1,460.613 "/>
<path clip-path="url(#clip312)" d="M1472.28 517.011 L1472.28 1042.58 L1494.82 1042.58 L1494.82 517.011 L1472.28 517.011 L1472.28 517.011  Z" fill="#009af9" fill-rule="evenodd" fill-opacity="0.5"/>
<polyline clip-path="url(#clip312)" style="stroke:#000000; stroke-linecap:round; stroke-linejoin:round; stroke-width:4; stroke-opacity:0.5; fill:none" points="1472.28,517.011 1472.28,1042.58 1494.82,1042.58 1494.82,517.011 1472.28,517.011 "/>
<path clip-path="url(#clip312)" d="M1500.45 375.572 L1500.45 1042.58 L1523 1042.58 L1523 375.572 L1500.45 375.572 L1500.45 375.572  Z" fill="#009af9" fill-rule="evenodd" fill-opacity="0.5"/>
<polyline clip-path="url(#clip312)" style="stroke:#000000; stroke-linecap:round; stroke-linejoin:round; stroke-width:4; stroke-opacity:0.5; fill:none" points="1500.45,375.572 1500.45,1042.58 1523,1042.58 1523,375.572 1500.45,375.572 "/>
<path clip-path="url(#clip312)" d="M1528.63 174.659 L1528.63 1042.58 L1551.18 1042.58 L1551.18 174.659 L1528.63 174.659 L1528.63 174.659  Z" fill="#009af9" fill-rule="evenodd" fill-opacity="0.5"/>
<polyline clip-path="url(#clip312)" style="stroke:#000000; stroke-linecap:round; stroke-linejoin:round; stroke-width:4; stroke-opacity:0.5; fill:none" points="1528.63,174.659 1528.63,1042.58 1551.18,1042.58 1551.18,174.659 1528.63,174.659 "/>
<path clip-path="url(#clip312)" d="M1556.81 460.613 L1556.81 1042.58 L1579.36 1042.58 L1579.36 460.613 L1556.81 460.613 L1556.81 460.613  Z" fill="#009af9" fill-rule="evenodd" fill-opacity="0.5"/>
<polyline clip-path="url(#clip312)" style="stroke:#000000; stroke-linecap:round; stroke-linejoin:round; stroke-width:4; stroke-opacity:0.5; fill:none" points="1556.81,460.613 1556.81,1042.58 1579.36,1042.58 1579.36,460.613 1556.81,460.613 "/>
<path clip-path="url(#clip312)" d="M1584.99 273.093 L1584.99 1042.58 L1607.54 1042.58 L1607.54 273.093 L1584.99 273.093 L1584.99 273.093  Z" fill="#009af9" fill-rule="evenodd" fill-opacity="0.5"/>
<polyline clip-path="url(#clip312)" style="stroke:#000000; stroke-linecap:round; stroke-linejoin:round; stroke-width:4; stroke-opacity:0.5; fill:none" points="1584.99,273.093 1584.99,1042.58 1607.54,1042.58 1607.54,273.093 1584.99,273.093 "/>
<path clip-path="url(#clip312)" d="M1613.17 460.613 L1613.17 1042.58 L1635.71 1042.58 L1635.71 460.613 L1613.17 460.613 L1613.17 460.613  Z" fill="#009af9" fill-rule="evenodd" fill-opacity="0.5"/>
<polyline clip-path="url(#clip312)" style="stroke:#000000; stroke-linecap:round; stroke-linejoin:round; stroke-width:4; stroke-opacity:0.5; fill:none" points="1613.17,460.613 1613.17,1042.58 1635.71,1042.58 1635.71,460.613 1613.17,460.613 "/>
<path clip-path="url(#clip312)" d="M1641.35 312.054 L1641.35 1042.58 L1663.89 1042.58 L1663.89 312.054 L1641.35 312.054 L1641.35 312.054  Z" fill="#009af9" fill-rule="evenodd" fill-opacity="0.5"/>
<polyline clip-path="url(#clip312)" style="stroke:#000000; stroke-linecap:round; stroke-linejoin:round; stroke-width:4; stroke-opacity:0.5; fill:none" points="1641.35,312.054 1641.35,1042.58 1663.89,1042.58 1663.89,312.054 1641.35,312.054 "/>
<path clip-path="url(#clip312)" d="M1669.53 414.532 L1669.53 1042.58 L1692.07 1042.58 L1692.07 414.532 L1669.53 414.532 L1669.53 414.532  Z" fill="#009af9" fill-rule="evenodd" fill-opacity="0.5"/>
<polyline clip-path="url(#clip312)" style="stroke:#000000; stroke-linecap:round; stroke-linejoin:round; stroke-width:4; stroke-opacity:0.5; fill:none" points="1669.53,414.532 1669.53,1042.58 1692.07,1042.58 1692.07,414.532 1669.53,414.532 "/>
<path clip-path="url(#clip312)" d="M1697.71 358.134 L1697.71 1042.58 L1720.25 1042.58 L1720.25 358.134 L1697.71 358.134 L1697.71 358.134  Z" fill="#009af9" fill-rule="evenodd" fill-opacity="0.5"/>
<polyline clip-path="url(#clip312)" style="stroke:#000000; stroke-linecap:round; stroke-linejoin:round; stroke-width:4; stroke-opacity:0.5; fill:none" points="1697.71,358.134 1697.71,1042.58 1720.25,1042.58 1720.25,358.134 1697.71,358.134 "/>
<path clip-path="url(#clip312)" d="M1725.89 312.054 L1725.89 1042.58 L1748.43 1042.58 L1748.43 312.054 L1725.89 312.054 L1725.89 312.054  Z" fill="#009af9" fill-rule="evenodd" fill-opacity="0.5"/>
<polyline clip-path="url(#clip312)" style="stroke:#000000; stroke-linecap:round; stroke-linejoin:round; stroke-width:4; stroke-opacity:0.5; fill:none" points="1725.89,312.054 1725.89,1042.58 1748.43,1042.58 1748.43,312.054 1725.89,312.054 "/>
<path clip-path="url(#clip312)" d="M1754.07 250.101 L1754.07 1042.58 L1776.61 1042.58 L1776.61 250.101 L1754.07 250.101 L1754.07 250.101  Z" fill="#009af9" fill-rule="evenodd" fill-opacity="0.5"/>
<polyline clip-path="url(#clip312)" style="stroke:#000000; stroke-linecap:round; stroke-linejoin:round; stroke-width:4; stroke-opacity:0.5; fill:none" points="1754.07,250.101 1754.07,1042.58 1776.61,1042.58 1776.61,250.101 1754.07,250.101 "/>
<path clip-path="url(#clip312)" d="M1782.25 273.093 L1782.25 1042.58 L1804.79 1042.58 L1804.79 273.093 L1782.25 273.093 L1782.25 273.093  Z" fill="#009af9" fill-rule="evenodd" fill-opacity="0.5"/>
<polyline clip-path="url(#clip312)" style="stroke:#000000; stroke-linecap:round; stroke-linejoin:round; stroke-width:4; stroke-opacity:0.5; fill:none" points="1782.25,273.093 1782.25,1042.58 1804.79,1042.58 1804.79,273.093 1782.25,273.093 "/>
<path clip-path="url(#clip312)" d="M1810.43 358.134 L1810.43 1042.58 L1832.97 1042.58 L1832.97 358.134 L1810.43 358.134 L1810.43 358.134  Z" fill="#009af9" fill-rule="evenodd" fill-opacity="0.5"/>
<polyline clip-path="url(#clip312)" style="stroke:#000000; stroke-linecap:round; stroke-linejoin:round; stroke-width:4; stroke-opacity:0.5; fill:none" points="1810.43,358.134 1810.43,1042.58 1832.97,1042.58 1832.97,358.134 1810.43,358.134 "/>
<path clip-path="url(#clip312)" d="M1838.61 273.093 L1838.61 1042.58 L1861.15 1042.58 L1861.15 273.093 L1838.61 273.093 L1838.61 273.093  Z" fill="#009af9" fill-rule="evenodd" fill-opacity="0.5"/>
<polyline clip-path="url(#clip312)" style="stroke:#000000; stroke-linecap:round; stroke-linejoin:round; stroke-width:4; stroke-opacity:0.5; fill:none" points="1838.61,273.093 1838.61,1042.58 1861.15,1042.58 1861.15,273.093 1838.61,273.093 "/>
<path clip-path="url(#clip312)" d="M1866.78 298.389 L1866.78 1042.58 L1889.33 1042.58 L1889.33 298.389 L1866.78 298.389 L1866.78 298.389  Z" fill="#009af9" fill-rule="evenodd" fill-opacity="0.5"/>
<polyline clip-path="url(#clip312)" style="stroke:#000000; stroke-linecap:round; stroke-linejoin:round; stroke-width:4; stroke-opacity:0.5; fill:none" points="1866.78,298.389 1866.78,1042.58 1889.33,1042.58 1889.33,298.389 1866.78,298.389 "/>
<path clip-path="url(#clip312)" d="M1894.96 326.5 L1894.96 1042.58 L1917.51 1042.58 L1917.51 326.5 L1894.96 326.5 L1894.96 326.5  Z" fill="#009af9" fill-rule="evenodd" fill-opacity="0.5"/>
<polyline clip-path="url(#clip312)" style="stroke:#000000; stroke-linecap:round; stroke-linejoin:round; stroke-width:4; stroke-opacity:0.5; fill:none" points="1894.96,326.5 1894.96,1042.58 1917.51,1042.58 1917.51,326.5 1894.96,326.5 "/>
<path clip-path="url(#clip312)" d="M1923.14 182.946 L1923.14 1042.58 L1945.69 1042.58 L1945.69 182.946 L1923.14 182.946 L1923.14 182.946  Z" fill="#009af9" fill-rule="evenodd" fill-opacity="0.5"/>
<polyline clip-path="url(#clip312)" style="stroke:#000000; stroke-linecap:round; stroke-linejoin:round; stroke-width:4; stroke-opacity:0.5; fill:none" points="1923.14,182.946 1923.14,1042.58 1945.69,1042.58 1945.69,182.946 1923.14,182.946 "/>
<path clip-path="url(#clip312)" d="M1951.32 250.101 L1951.32 1042.58 L1973.87 1042.58 L1973.87 250.101 L1951.32 250.101 L1951.32 250.101  Z" fill="#009af9" fill-rule="evenodd" fill-opacity="0.5"/>
<polyline clip-path="url(#clip312)" style="stroke:#000000; stroke-linecap:round; stroke-linejoin:round; stroke-width:4; stroke-opacity:0.5; fill:none" points="1951.32,250.101 1951.32,1042.58 1973.87,1042.58 1973.87,250.101 1951.32,250.101 "/>
<path clip-path="url(#clip312)" d="M1979.5 110.236 L1979.5 1042.58 L2002.04 1042.58 L2002.04 110.236 L1979.5 110.236 L1979.5 110.236  Z" fill="#009af9" fill-rule="evenodd" fill-opacity="0.5"/>
<polyline clip-path="url(#clip312)" style="stroke:#000000; stroke-linecap:round; stroke-linejoin:round; stroke-width:4; stroke-opacity:0.5; fill:none" points="1979.5,110.236 1979.5,1042.58 2002.04,1042.58 2002.04,110.236 1979.5,110.236 "/>
<path clip-path="url(#clip312)" d="M2007.68 341.823 L2007.68 1042.58 L2030.22 1042.58 L2030.22 341.823 L2007.68 341.823 L2007.68 341.823  Z" fill="#009af9" fill-rule="evenodd" fill-opacity="0.5"/>
<polyline clip-path="url(#clip312)" style="stroke:#000000; stroke-linecap:round; stroke-linejoin:round; stroke-width:4; stroke-opacity:0.5; fill:none" points="2007.68,341.823 2007.68,1042.58 2030.22,1042.58 2030.22,341.823 2007.68,341.823 "/>
<path clip-path="url(#clip312)" d="M2035.86 273.093 L2035.86 1042.58 L2058.4 1042.58 L2058.4 273.093 L2035.86 273.093 L2035.86 273.093  Z" fill="#009af9" fill-rule="evenodd" fill-opacity="0.5"/>
<polyline clip-path="url(#clip312)" style="stroke:#000000; stroke-linecap:round; stroke-linejoin:round; stroke-width:4; stroke-opacity:0.5; fill:none" points="2035.86,273.093 2035.86,1042.58 2058.4,1042.58 2058.4,273.093 2035.86,273.093 "/>
<path clip-path="url(#clip312)" d="M2064.04 358.134 L2064.04 1042.58 L2086.58 1042.58 L2086.58 358.134 L2064.04 358.134 L2064.04 358.134  Z" fill="#009af9" fill-rule="evenodd" fill-opacity="0.5"/>
<polyline clip-path="url(#clip312)" style="stroke:#000000; stroke-linecap:round; stroke-linejoin:round; stroke-width:4; stroke-opacity:0.5; fill:none" points="2064.04,358.134 2064.04,1042.58 2086.58,1042.58 2086.58,358.134 2064.04,358.134 "/>
<path clip-path="url(#clip312)" d="M2092.22 341.823 L2092.22 1042.58 L2114.76 1042.58 L2114.76 341.823 L2092.22 341.823 L2092.22 341.823  Z" fill="#009af9" fill-rule="evenodd" fill-opacity="0.5"/>
<polyline clip-path="url(#clip312)" style="stroke:#000000; stroke-linecap:round; stroke-linejoin:round; stroke-width:4; stroke-opacity:0.5; fill:none" points="2092.22,341.823 2092.22,1042.58 2114.76,1042.58 2114.76,341.823 2092.22,341.823 "/>
<path clip-path="url(#clip312)" d="M2120.4 229.026 L2120.4 1042.58 L2142.94 1042.58 L2142.94 229.026 L2120.4 229.026 L2120.4 229.026  Z" fill="#009af9" fill-rule="evenodd" fill-opacity="0.5"/>
<polyline clip-path="url(#clip312)" style="stroke:#000000; stroke-linecap:round; stroke-linejoin:round; stroke-width:4; stroke-opacity:0.5; fill:none" points="2120.4,229.026 2120.4,1042.58 2142.94,1042.58 2142.94,229.026 2120.4,229.026 "/>
<path clip-path="url(#clip312)" d="M2148.58 191.514 L2148.58 1042.58 L2171.12 1042.58 L2171.12 191.514 L2148.58 191.514 L2148.58 191.514  Z" fill="#009af9" fill-rule="evenodd" fill-opacity="0.5"/>
<polyline clip-path="url(#clip312)" style="stroke:#000000; stroke-linecap:round; stroke-linejoin:round; stroke-width:4; stroke-opacity:0.5; fill:none" points="2148.58,191.514 2148.58,1042.58 2171.12,1042.58 2171.12,191.514 2148.58,191.514 "/>
<path clip-path="url(#clip312)" d="M2176.76 285.425 L2176.76 1042.58 L2199.3 1042.58 L2199.3 285.425 L2176.76 285.425 L2176.76 285.425  Z" fill="#009af9" fill-rule="evenodd" fill-opacity="0.5"/>
<polyline clip-path="url(#clip312)" style="stroke:#000000; stroke-linecap:round; stroke-linejoin:round; stroke-width:4; stroke-opacity:0.5; fill:none" points="2176.76,285.425 2176.76,1042.58 2199.3,1042.58 2199.3,285.425 2176.76,285.425 "/>
<path clip-path="url(#clip312)" d="M2204.94 229.026 L2204.94 1042.58 L2227.48 1042.58 L2227.48 229.026 L2204.94 229.026 L2204.94 229.026  Z" fill="#009af9" fill-rule="evenodd" fill-opacity="0.5"/>
<polyline clip-path="url(#clip312)" style="stroke:#000000; stroke-linecap:round; stroke-linejoin:round; stroke-width:4; stroke-opacity:0.5; fill:none" points="2204.94,229.026 2204.94,1042.58 2227.48,1042.58 2227.48,229.026 2204.94,229.026 "/>
<path clip-path="url(#clip312)" d="M2233.11 273.093 L2233.11 1042.58 L2255.66 1042.58 L2255.66 273.093 L2233.11 273.093 L2233.11 273.093  Z" fill="#009af9" fill-rule="evenodd" fill-opacity="0.5"/>
<polyline clip-path="url(#clip312)" style="stroke:#000000; stroke-linecap:round; stroke-linejoin:round; stroke-width:4; stroke-opacity:0.5; fill:none" points="2233.11,273.093 2233.11,1042.58 2255.66,1042.58 2255.66,273.093 2233.11,273.093 "/>
<path clip-path="url(#clip312)" d="M2261.29 394.302 L2261.29 1042.58 L2283.84 1042.58 L2283.84 394.302 L2261.29 394.302 L2261.29 394.302  Z" fill="#009af9" fill-rule="evenodd" fill-opacity="0.5"/>
<polyline clip-path="url(#clip312)" style="stroke:#000000; stroke-linecap:round; stroke-linejoin:round; stroke-width:4; stroke-opacity:0.5; fill:none" points="2261.29,394.302 2261.29,1042.58 2283.84,1042.58 2283.84,394.302 2261.29,394.302 "/>
<path clip-path="url(#clip312)" d="M2289.47 394.302 L2289.47 1042.58 L2312.02 1042.58 L2312.02 394.302 L2289.47 394.302 L2289.47 394.302  Z" fill="#009af9" fill-rule="evenodd" fill-opacity="0.5"/>
<polyline clip-path="url(#clip312)" style="stroke:#000000; stroke-linecap:round; stroke-linejoin:round; stroke-width:4; stroke-opacity:0.5; fill:none" points="2289.47,394.302 2289.47,1042.58 2312.02,1042.58 2312.02,394.302 2289.47,394.302 "/>
<path clip-path="url(#clip312)" d="M2317.65 460.613 L2317.65 1042.58 L2340.2 1042.58 L2340.2 460.613 L2317.65 460.613 L2317.65 460.613  Z" fill="#009af9" fill-rule="evenodd" fill-opacity="0.5"/>
<polyline clip-path="url(#clip312)" style="stroke:#000000; stroke-linecap:round; stroke-linejoin:round; stroke-width:4; stroke-opacity:0.5; fill:none" points="2317.65,460.613 2317.65,1042.58 2340.2,1042.58 2340.2,460.613 2317.65,460.613 "/>
<path clip-path="url(#clip312)" d="M2345.83 550.76 L2345.83 1042.58 L2368.38 1042.58 L2368.38 550.76 L2345.83 550.76 L2345.83 550.76  Z" fill="#009af9" fill-rule="evenodd" fill-opacity="0.5"/>
<polyline clip-path="url(#clip312)" style="stroke:#000000; stroke-linecap:round; stroke-linejoin:round; stroke-width:4; stroke-opacity:0.5; fill:none" points="2345.83,550.76 2345.83,1042.58 2368.38,1042.58 2368.38,550.76 2345.83,550.76 "/>
<path clip-path="url(#clip312)" d="M2374.01 436.524 L2374.01 1042.58 L2396.55 1042.58 L2396.55 436.524 L2374.01 436.524 L2374.01 436.524  Z" fill="#009af9" fill-rule="evenodd" fill-opacity="0.5"/>
<polyline clip-path="url(#clip312)" style="stroke:#000000; stroke-linecap:round; stroke-linejoin:round; stroke-width:4; stroke-opacity:0.5; fill:none" points="2374.01,436.524 2374.01,1042.58 2396.55,1042.58 2396.55,436.524 2374.01,436.524 "/>
<path clip-path="url(#clip312)" d="M2402.19 589.721 L2402.19 1042.58 L2424.73 1042.58 L2424.73 589.721 L2402.19 589.721 L2402.19 589.721  Z" fill="#009af9" fill-rule="evenodd" fill-opacity="0.5"/>
<polyline clip-path="url(#clip312)" style="stroke:#000000; stroke-linecap:round; stroke-linejoin:round; stroke-width:4; stroke-opacity:0.5; fill:none" points="2402.19,589.721 2402.19,1042.58 2424.73,1042.58 2424.73,589.721 2402.19,589.721 "/>
<path clip-path="url(#clip312)" d="M2430.37 550.76 L2430.37 1042.58 L2452.91 1042.58 L2452.91 550.76 L2430.37 550.76 L2430.37 550.76  Z" fill="#009af9" fill-rule="evenodd" fill-opacity="0.5"/>
<polyline clip-path="url(#clip312)" style="stroke:#000000; stroke-linecap:round; stroke-linejoin:round; stroke-width:4; stroke-opacity:0.5; fill:none" points="2430.37,550.76 2430.37,1042.58 2452.91,1042.58 2452.91,550.76 2430.37,550.76 "/>
<path clip-path="url(#clip312)" d="M2458.55 550.76 L2458.55 1042.58 L2481.09 1042.58 L2481.09 550.76 L2458.55 550.76 L2458.55 550.76  Z" fill="#009af9" fill-rule="evenodd" fill-opacity="0.5"/>
<polyline clip-path="url(#clip312)" style="stroke:#000000; stroke-linecap:round; stroke-linejoin:round; stroke-width:4; stroke-opacity:0.5; fill:none" points="2458.55,550.76 2458.55,1042.58 2481.09,1042.58 2481.09,550.76 2458.55,550.76 "/>
<path clip-path="url(#clip312)" d="M2486.73 550.76 L2486.73 1042.58 L2509.27 1042.58 L2509.27 550.76 L2486.73 550.76 L2486.73 550.76  Z" fill="#009af9" fill-rule="evenodd" fill-opacity="0.5"/>
<polyline clip-path="url(#clip312)" style="stroke:#000000; stroke-linecap:round; stroke-linejoin:round; stroke-width:4; stroke-opacity:0.5; fill:none" points="2486.73,550.76 2486.73,1042.58 2509.27,1042.58 2509.27,550.76 2486.73,550.76 "/>
<path clip-path="url(#clip312)" d="M2514.91 460.613 L2514.91 1042.58 L2537.45 1042.58 L2537.45 460.613 L2514.91 460.613 L2514.91 460.613  Z" fill="#009af9" fill-rule="evenodd" fill-opacity="0.5"/>
<polyline clip-path="url(#clip312)" style="stroke:#000000; stroke-linecap:round; stroke-linejoin:round; stroke-width:4; stroke-opacity:0.5; fill:none" points="2514.91,460.613 2514.91,1042.58 2537.45,1042.58 2537.45,460.613 2514.91,460.613 "/>
<path clip-path="url(#clip312)" d="M2543.09 414.532 L2543.09 1042.58 L2565.63 1042.58 L2565.63 414.532 L2543.09 414.532 L2543.09 414.532  Z" fill="#009af9" fill-rule="evenodd" fill-opacity="0.5"/>
<polyline clip-path="url(#clip312)" style="stroke:#000000; stroke-linecap:round; stroke-linejoin:round; stroke-width:4; stroke-opacity:0.5; fill:none" points="2543.09,414.532 2543.09,1042.58 2565.63,1042.58 2565.63,414.532 2543.09,414.532 "/>
<path clip-path="url(#clip312)" d="M2571.27 1042.58 L2571.27 1042.58 L2593.81 1042.58 L2593.81 1042.58 L2571.27 1042.58 L2571.27 1042.58  Z" fill="#009af9" fill-rule="evenodd" fill-opacity="0.5"/>
<polyline clip-path="url(#clip312)" style="stroke:#000000; stroke-linecap:round; stroke-linejoin:round; stroke-width:4; stroke-opacity:0.5; fill:none" points="2571.27,1042.58 2571.27,1042.58 2593.81,1042.58 2571.27,1042.58 "/>
<circle clip-path="url(#clip312)" style="fill:#009af9; stroke:none; fill-opacity:0" cx="300.018" cy="436.524" r="2"/>
<circle clip-path="url(#clip312)" style="fill:#009af9; stroke:none; fill-opacity:0" cx="328.198" cy="358.134" r="2"/>
<circle clip-path="url(#clip312)" style="fill:#009af9; stroke:none; fill-opacity:0" cx="356.377" cy="182.946" r="2"/>
<circle clip-path="url(#clip312)" style="fill:#009af9; stroke:none; fill-opacity:0" cx="384.556" cy="151.312" r="2"/>
<circle clip-path="url(#clip312)" style="fill:#009af9; stroke:none; fill-opacity:0" cx="412.735" cy="209.575" r="2"/>
<circle clip-path="url(#clip312)" style="fill:#009af9; stroke:none; fill-opacity:0" cx="440.915" cy="158.857" r="2"/>
<circle clip-path="url(#clip312)" style="fill:#009af9; stroke:none; fill-opacity:0" cx="469.094" cy="166.634" r="2"/>
<circle clip-path="url(#clip312)" style="fill:#009af9; stroke:none; fill-opacity:0" cx="497.273" cy="550.76" r="2"/>
<circle clip-path="url(#clip312)" style="fill:#009af9; stroke:none; fill-opacity:0" cx="525.452" cy="487.242" r="2"/>
<circle clip-path="url(#clip312)" style="fill:#009af9; stroke:none; fill-opacity:0" cx="553.632" cy="182.946" r="2"/>
<circle clip-path="url(#clip312)" style="fill:#009af9; stroke:none; fill-opacity:0" cx="581.811" cy="239.344" r="2"/>
<circle clip-path="url(#clip312)" style="fill:#009af9; stroke:none; fill-opacity:0" cx="609.99" cy="298.389" r="2"/>
<circle clip-path="url(#clip312)" style="fill:#009af9; stroke:none; fill-opacity:0" cx="638.169" cy="487.242" r="2"/>
<circle clip-path="url(#clip312)" style="fill:#009af9; stroke:none; fill-opacity:0" cx="666.349" cy="487.242" r="2"/>
<circle clip-path="url(#clip312)" style="fill:#009af9; stroke:none; fill-opacity:0" cx="694.528" cy="635.801" r="2"/>
<circle clip-path="url(#clip312)" style="fill:#009af9; stroke:none; fill-opacity:0" cx="722.707" cy="487.242" r="2"/>
<circle clip-path="url(#clip312)" style="fill:#009af9; stroke:none; fill-opacity:0" cx="750.886" cy="394.302" r="2"/>
<circle clip-path="url(#clip312)" style="fill:#009af9; stroke:none; fill-opacity:0" cx="779.066" cy="375.572" r="2"/>
<circle clip-path="url(#clip312)" style="fill:#009af9; stroke:none; fill-opacity:0" cx="807.245" cy="358.134" r="2"/>
<circle clip-path="url(#clip312)" style="fill:#009af9; stroke:none; fill-opacity:0" cx="835.424" cy="414.532" r="2"/>
<circle clip-path="url(#clip312)" style="fill:#009af9; stroke:none; fill-opacity:0" cx="863.603" cy="375.572" r="2"/>
<circle clip-path="url(#clip312)" style="fill:#009af9; stroke:none; fill-opacity:0" cx="891.783" cy="867.387" r="2"/>
<circle clip-path="url(#clip312)" style="fill:#009af9; stroke:none; fill-opacity:0" cx="919.962" cy="589.721" r="2"/>
<circle clip-path="url(#clip312)" style="fill:#009af9; stroke:none; fill-opacity:0" cx="948.141" cy="285.425" r="2"/>
<circle clip-path="url(#clip312)" style="fill:#009af9; stroke:none; fill-opacity:0" cx="976.32" cy="375.572" r="2"/>
<circle clip-path="url(#clip312)" style="fill:#009af9; stroke:none; fill-opacity:0" cx="1004.5" cy="358.134" r="2"/>
<circle clip-path="url(#clip312)" style="fill:#009af9; stroke:none; fill-opacity:0" cx="1032.68" cy="394.302" r="2"/>
<circle clip-path="url(#clip312)" style="fill:#009af9; stroke:none; fill-opacity:0" cx="1060.86" cy="219.114" r="2"/>
<circle clip-path="url(#clip312)" style="fill:#009af9; stroke:none; fill-opacity:0" cx="1089.04" cy="589.721" r="2"/>
<circle clip-path="url(#clip312)" style="fill:#009af9; stroke:none; fill-opacity:0" cx="1117.22" cy="550.76" r="2"/>
<circle clip-path="url(#clip312)" style="fill:#009af9; stroke:none; fill-opacity:0" cx="1145.4" cy="326.5" r="2"/>
<circle clip-path="url(#clip312)" style="fill:#009af9; stroke:none; fill-opacity:0" cx="1173.58" cy="341.823" r="2"/>
<circle clip-path="url(#clip312)" style="fill:#009af9; stroke:none; fill-opacity:0" cx="1201.75" cy="312.054" r="2"/>
<circle clip-path="url(#clip312)" style="fill:#009af9; stroke:none; fill-opacity:0" cx="1229.93" cy="273.093" r="2"/>
<circle clip-path="url(#clip312)" style="fill:#009af9; stroke:none; fill-opacity:0" cx="1258.11" cy="394.302" r="2"/>
<circle clip-path="url(#clip312)" style="fill:#009af9; stroke:none; fill-opacity:0" cx="1286.29" cy="550.76" r="2"/>
<circle clip-path="url(#clip312)" style="fill:#009af9; stroke:none; fill-opacity:0" cx="1314.47" cy="273.093" r="2"/>
<circle clip-path="url(#clip312)" style="fill:#009af9; stroke:none; fill-opacity:0" cx="1342.65" cy="358.134" r="2"/>
<circle clip-path="url(#clip312)" style="fill:#009af9; stroke:none; fill-opacity:0" cx="1370.83" cy="312.054" r="2"/>
<circle clip-path="url(#clip312)" style="fill:#009af9; stroke:none; fill-opacity:0" cx="1399.01" cy="273.093" r="2"/>
<circle clip-path="url(#clip312)" style="fill:#009af9; stroke:none; fill-opacity:0" cx="1427.19" cy="436.524" r="2"/>
<circle clip-path="url(#clip312)" style="fill:#009af9; stroke:none; fill-opacity:0" cx="1455.37" cy="460.613" r="2"/>
<circle clip-path="url(#clip312)" style="fill:#009af9; stroke:none; fill-opacity:0" cx="1483.55" cy="517.011" r="2"/>
<circle clip-path="url(#clip312)" style="fill:#009af9; stroke:none; fill-opacity:0" cx="1511.73" cy="375.572" r="2"/>
<circle clip-path="url(#clip312)" style="fill:#009af9; stroke:none; fill-opacity:0" cx="1539.91" cy="174.659" r="2"/>
<circle clip-path="url(#clip312)" style="fill:#009af9; stroke:none; fill-opacity:0" cx="1568.08" cy="460.613" r="2"/>
<circle clip-path="url(#clip312)" style="fill:#009af9; stroke:none; fill-opacity:0" cx="1596.26" cy="273.093" r="2"/>
<circle clip-path="url(#clip312)" style="fill:#009af9; stroke:none; fill-opacity:0" cx="1624.44" cy="460.613" r="2"/>
<circle clip-path="url(#clip312)" style="fill:#009af9; stroke:none; fill-opacity:0" cx="1652.62" cy="312.054" r="2"/>
<circle clip-path="url(#clip312)" style="fill:#009af9; stroke:none; fill-opacity:0" cx="1680.8" cy="414.532" r="2"/>
<circle clip-path="url(#clip312)" style="fill:#009af9; stroke:none; fill-opacity:0" cx="1708.98" cy="358.134" r="2"/>
<circle clip-path="url(#clip312)" style="fill:#009af9; stroke:none; fill-opacity:0" cx="1737.16" cy="312.054" r="2"/>
<circle clip-path="url(#clip312)" style="fill:#009af9; stroke:none; fill-opacity:0" cx="1765.34" cy="250.101" r="2"/>
<circle clip-path="url(#clip312)" style="fill:#009af9; stroke:none; fill-opacity:0" cx="1793.52" cy="273.093" r="2"/>
<circle clip-path="url(#clip312)" style="fill:#009af9; stroke:none; fill-opacity:0" cx="1821.7" cy="358.134" r="2"/>
<circle clip-path="url(#clip312)" style="fill:#009af9; stroke:none; fill-opacity:0" cx="1849.88" cy="273.093" r="2"/>
<circle clip-path="url(#clip312)" style="fill:#009af9; stroke:none; fill-opacity:0" cx="1878.06" cy="298.389" r="2"/>
<circle clip-path="url(#clip312)" style="fill:#009af9; stroke:none; fill-opacity:0" cx="1906.24" cy="326.5" r="2"/>
<circle clip-path="url(#clip312)" style="fill:#009af9; stroke:none; fill-opacity:0" cx="1934.41" cy="182.946" r="2"/>
<circle clip-path="url(#clip312)" style="fill:#009af9; stroke:none; fill-opacity:0" cx="1962.59" cy="250.101" r="2"/>
<circle clip-path="url(#clip312)" style="fill:#009af9; stroke:none; fill-opacity:0" cx="1990.77" cy="110.236" r="2"/>
<circle clip-path="url(#clip312)" style="fill:#009af9; stroke:none; fill-opacity:0" cx="2018.95" cy="341.823" r="2"/>
<circle clip-path="url(#clip312)" style="fill:#009af9; stroke:none; fill-opacity:0" cx="2047.13" cy="273.093" r="2"/>
<circle clip-path="url(#clip312)" style="fill:#009af9; stroke:none; fill-opacity:0" cx="2075.31" cy="358.134" r="2"/>
<circle clip-path="url(#clip312)" style="fill:#009af9; stroke:none; fill-opacity:0" cx="2103.49" cy="341.823" r="2"/>
<circle clip-path="url(#clip312)" style="fill:#009af9; stroke:none; fill-opacity:0" cx="2131.67" cy="229.026" r="2"/>
<circle clip-path="url(#clip312)" style="fill:#009af9; stroke:none; fill-opacity:0" cx="2159.85" cy="191.514" r="2"/>
<circle clip-path="url(#clip312)" style="fill:#009af9; stroke:none; fill-opacity:0" cx="2188.03" cy="285.425" r="2"/>
<circle clip-path="url(#clip312)" style="fill:#009af9; stroke:none; fill-opacity:0" cx="2216.21" cy="229.026" r="2"/>
<circle clip-path="url(#clip312)" style="fill:#009af9; stroke:none; fill-opacity:0" cx="2244.39" cy="273.093" r="2"/>
<circle clip-path="url(#clip312)" style="fill:#009af9; stroke:none; fill-opacity:0" cx="2272.57" cy="394.302" r="2"/>
<circle clip-path="url(#clip312)" style="fill:#009af9; stroke:none; fill-opacity:0" cx="2300.74" cy="394.302" r="2"/>
<circle clip-path="url(#clip312)" style="fill:#009af9; stroke:none; fill-opacity:0" cx="2328.92" cy="460.613" r="2"/>
<circle clip-path="url(#clip312)" style="fill:#009af9; stroke:none; fill-opacity:0" cx="2357.1" cy="550.76" r="2"/>
<circle clip-path="url(#clip312)" style="fill:#009af9; stroke:none; fill-opacity:0" cx="2385.28" cy="436.524" r="2"/>
<circle clip-path="url(#clip312)" style="fill:#009af9; stroke:none; fill-opacity:0" cx="2413.46" cy="589.721" r="2"/>
<circle clip-path="url(#clip312)" style="fill:#009af9; stroke:none; fill-opacity:0" cx="2441.64" cy="550.76" r="2"/>
<circle clip-path="url(#clip312)" style="fill:#009af9; stroke:none; fill-opacity:0" cx="2469.82" cy="550.76" r="2"/>
<circle clip-path="url(#clip312)" style="fill:#009af9; stroke:none; fill-opacity:0" cx="2498" cy="550.76" r="2"/>
<circle clip-path="url(#clip312)" style="fill:#009af9; stroke:none; fill-opacity:0" cx="2526.18" cy="460.613" r="2"/>
<circle clip-path="url(#clip312)" style="fill:#009af9; stroke:none; fill-opacity:0" cx="2554.36" cy="414.532" r="2"/>
<circle clip-path="url(#clip312)" style="fill:#009af9; stroke:none; fill-opacity:0" cx="2582.54" cy="1042.58" r="2"/>
</svg>
