<?xml version="1.0" encoding="utf-8"?>
<svg xmlns="http://www.w3.org/2000/svg" xmlns:xlink="http://www.w3.org/1999/xlink" width="800" height="300" viewBox="0 0 3200 1200">
<defs>
  <clipPath id="clip880">
    <rect x="0" y="0" width="3200" height="1200"/>
  </clipPath>
</defs>
<path clip-path="url(#clip880)" d="M0 1200 L3200 1200 L3200 0 L0 0  Z" fill="#ffffff" fill-rule="evenodd" fill-opacity="1"/>
<defs>
  <clipPath id="clip881">
    <rect x="640" y="0" width="2241" height="1200"/>
  </clipPath>
</defs>
<path clip-path="url(#clip880)" d="M271.839 1042.58 L3089.76 1042.58 L3089.76 110.236 L271.839 110.236  Z" fill="#ffffff" fill-rule="evenodd" fill-opacity="1"/>
<defs>
  <clipPath id="clip882">
    <rect x="271" y="110" width="2819" height="933"/>
  </clipPath>
</defs>
<polyline clip-path="url(#clip882)" style="stroke:#000000; stroke-linecap:round; stroke-linejoin:round; stroke-width:2; stroke-opacity:0.1; fill:none" points="722.707,1042.58 722.707,110.236 "/>
<polyline clip-path="url(#clip882)" style="stroke:#000000; stroke-linecap:round; stroke-linejoin:round; stroke-width:2; stroke-opacity:0.1; fill:none" points="1568.08,1042.58 1568.08,110.236 "/>
<polyline clip-path="url(#clip882)" style="stroke:#000000; stroke-linecap:round; stroke-linejoin:round; stroke-width:2; stroke-opacity:0.1; fill:none" points="2441.64,1042.58 2441.64,110.236 "/>
<polyline clip-path="url(#clip880)" style="stroke:#000000; stroke-linecap:round; stroke-linejoin:round; stroke-width:4; stroke-opacity:1; fill:none" points="271.839,1042.58 3089.76,1042.58 "/>
<polyline clip-path="url(#clip880)" style="stroke:#000000; stroke-linecap:round; stroke-linejoin:round; stroke-width:4; stroke-opacity:1; fill:none" points="722.707,1042.58 722.707,1023.68 "/>
<polyline clip-path="url(#clip880)" style="stroke:#000000; stroke-linecap:round; stroke-linejoin:round; stroke-width:4; stroke-opacity:1; fill:none" points="1568.08,1042.58 1568.08,1023.68 "/>
<polyline clip-path="url(#clip880)" style="stroke:#000000; stroke-linecap:round; stroke-linejoin:round; stroke-width:4; stroke-opacity:1; fill:none" points="2441.64,1042.58 2441.64,1023.68 "/>
<path clip-path="url(#clip880)" d="M594.502 1107.44 L610.821 1107.44 L610.821 1111.38 L588.877 1111.38 L588.877 1107.44 Q591.539 1104.69 596.122 1100.06 Q600.729 1095.4 601.909 1094.06 Q604.155 1091.54 605.034 1089.8 Q605.937 1088.04 605.937 1086.35 Q605.937 1083.6 603.993 1081.86 Q602.071 1080.13 598.969 1080.13 Q596.77 1080.13 594.317 1080.89 Q591.886 1081.65 589.108 1083.2 L589.108 1078.48 Q591.932 1077.35 594.386 1076.77 Q596.84 1076.19 598.877 1076.19 Q604.247 1076.19 607.442 1078.88 Q610.636 1081.56 610.636 1086.05 Q610.636 1088.18 609.826 1090.1 Q609.039 1092 606.932 1094.59 Q606.354 1095.26 603.252 1098.48 Q600.15 1101.68 594.502 1107.44 Z" fill="#000000" fill-rule="nonzero" fill-opacity="1" /><path clip-path="url(#clip880)" d="M630.636 1079.89 Q627.025 1079.89 625.196 1083.46 Q623.391 1087 623.391 1094.13 Q623.391 1101.24 625.196 1104.8 Q627.025 1108.34 630.636 1108.34 Q634.27 1108.34 636.076 1104.8 Q637.904 1101.24 637.904 1094.13 Q637.904 1087 636.076 1083.46 Q634.27 1079.89 630.636 1079.89 M630.636 1076.19 Q636.446 1076.19 639.502 1080.8 Q642.58 1085.38 642.58 1094.13 Q642.58 1102.86 639.502 1107.46 Q636.446 1112.05 630.636 1112.05 Q624.826 1112.05 621.747 1107.46 Q618.691 1102.86 618.691 1094.13 Q618.691 1085.38 621.747 1080.8 Q624.826 1076.19 630.636 1076.19 Z" fill="#000000" fill-rule="nonzero" fill-opacity="1" /><path clip-path="url(#clip880)" d="M654.826 1107.44 L671.145 1107.44 L671.145 1111.38 L649.201 1111.38 L649.201 1107.44 Q651.863 1104.69 656.446 1100.06 Q661.052 1095.4 662.233 1094.06 Q664.478 1091.54 665.358 1089.8 Q666.261 1088.04 666.261 1086.35 Q666.261 1083.6 664.316 1081.86 Q662.395 1080.13 659.293 1080.13 Q657.094 1080.13 654.64 1080.89 Q652.21 1081.65 649.432 1083.2 L649.432 1078.48 Q652.256 1077.35 654.71 1076.77 Q657.164 1076.19 659.201 1076.19 Q664.571 1076.19 667.765 1078.88 Q670.96 1081.56 670.96 1086.05 Q670.96 1088.18 670.15 1090.1 Q669.363 1092 667.256 1094.59 Q666.677 1095.26 663.576 1098.48 Q660.474 1101.68 654.826 1107.44 Z" fill="#000000" fill-rule="nonzero" fill-opacity="1" /><path clip-path="url(#clip880)" d="M693.807 1080.89 L682.001 1099.34 L693.807 1099.34 L693.807 1080.89 M692.58 1076.82 L698.46 1076.82 L698.46 1099.34 L703.39 1099.34 L703.39 1103.23 L698.46 1103.23 L698.46 1111.38 L693.807 1111.38 L693.807 1103.23 L678.205 1103.23 L678.205 1098.71 L692.58 1076.82 Z" fill="#000000" fill-rule="nonzero" fill-opacity="1" /><path clip-path="url(#clip880)" d="M708.367 1096.49 L720.844 1096.49 L720.844 1100.29 L708.367 1100.29 L708.367 1096.49 Z" fill="#000000" fill-rule="nonzero" fill-opacity="1" /><path clip-path="url(#clip880)" d="M738.228 1079.89 Q734.617 1079.89 732.788 1083.46 Q730.983 1087 730.983 1094.13 Q730.983 1101.24 732.788 1104.8 Q734.617 1108.34 738.228 1108.34 Q741.862 1108.34 743.668 1104.8 Q745.496 1101.24 745.496 1094.13 Q745.496 1087 743.668 1083.46 Q741.862 1079.89 738.228 1079.89 M738.228 1076.19 Q744.038 1076.19 747.094 1080.8 Q750.172 1085.38 750.172 1094.13 Q750.172 1102.86 747.094 1107.46 Q744.038 1112.05 738.228 1112.05 Q732.418 1112.05 729.339 1107.46 Q726.284 1102.86 726.284 1094.13 Q726.284 1085.38 729.339 1080.8 Q732.418 1076.19 738.228 1076.19 Z" fill="#000000" fill-rule="nonzero" fill-opacity="1" /><path clip-path="url(#clip880)" d="M768.968 1092.23 Q765.82 1092.23 763.968 1094.39 Q762.14 1096.54 762.14 1100.29 Q762.14 1104.01 763.968 1106.19 Q765.82 1108.34 768.968 1108.34 Q772.117 1108.34 773.945 1106.19 Q775.797 1104.01 775.797 1100.29 Q775.797 1096.54 773.945 1094.39 Q772.117 1092.23 768.968 1092.23 M778.251 1077.58 L778.251 1081.84 Q776.492 1081.01 774.686 1080.57 Q772.904 1080.13 771.144 1080.13 Q766.515 1080.13 764.061 1083.25 Q761.631 1086.38 761.283 1092.7 Q762.649 1090.68 764.709 1089.62 Q766.769 1088.53 769.246 1088.53 Q774.455 1088.53 777.464 1091.7 Q780.496 1094.85 780.496 1100.29 Q780.496 1105.61 777.348 1108.83 Q774.2 1112.05 768.968 1112.05 Q762.973 1112.05 759.802 1107.46 Q756.631 1102.86 756.631 1094.13 Q756.631 1085.94 760.519 1081.07 Q764.408 1076.19 770.959 1076.19 Q772.718 1076.19 774.501 1076.54 Q776.306 1076.89 778.251 1077.58 Z" fill="#000000" fill-rule="nonzero" fill-opacity="1" /><path clip-path="url(#clip880)" d="M785.797 1096.49 L798.274 1096.49 L798.274 1100.29 L785.797 1100.29 L785.797 1096.49 Z" fill="#000000" fill-rule="nonzero" fill-opacity="1" /><path clip-path="url(#clip880)" d="M815.658 1079.89 Q812.047 1079.89 810.218 1083.46 Q808.413 1087 808.413 1094.13 Q808.413 1101.24 810.218 1104.8 Q812.047 1108.34 815.658 1108.34 Q819.292 1108.34 821.098 1104.8 Q822.927 1101.24 822.927 1094.13 Q822.927 1087 821.098 1083.46 Q819.292 1079.89 815.658 1079.89 M815.658 1076.19 Q821.468 1076.19 824.524 1080.8 Q827.602 1085.38 827.602 1094.13 Q827.602 1102.86 824.524 1107.46 Q821.468 1112.05 815.658 1112.05 Q809.848 1112.05 806.769 1107.46 Q803.714 1102.86 803.714 1094.13 Q803.714 1085.38 806.769 1080.8 Q809.848 1076.19 815.658 1076.19 Z" fill="#000000" fill-rule="nonzero" fill-opacity="1" /><path clip-path="url(#clip880)" d="M836.63 1107.44 L844.269 1107.44 L844.269 1081.07 L835.959 1082.74 L835.959 1078.48 L844.223 1076.82 L848.899 1076.82 L848.899 1107.44 L856.537 1107.44 L856.537 1111.38 L836.63 1111.38 L836.63 1107.44 Z" fill="#000000" fill-rule="nonzero" fill-opacity="1" /><path clip-path="url(#clip880)" d="M1439.88 1107.44 L1456.2 1107.44 L1456.2 1111.38 L1434.25 1111.38 L1434.25 1107.44 Q1436.92 1104.69 1441.5 1100.06 Q1446.11 1095.4 1447.29 1094.06 Q1449.53 1091.54 1450.41 1089.8 Q1451.31 1088.04 1451.31 1086.35 Q1451.31 1083.6 1449.37 1081.86 Q1447.45 1080.13 1444.35 1080.13 Q1442.15 1080.13 1439.69 1080.89 Q1437.26 1081.65 1434.49 1083.2 L1434.49 1078.48 Q1437.31 1077.35 1439.76 1076.77 Q1442.22 1076.19 1444.25 1076.19 Q1449.62 1076.19 1452.82 1078.88 Q1456.01 1081.56 1456.01 1086.05 Q1456.01 1088.18 1455.2 1090.1 Q1454.42 1092 1452.31 1094.59 Q1451.73 1095.26 1448.63 1098.48 Q1445.53 1101.68 1439.88 1107.44 Z" fill="#000000" fill-rule="nonzero" fill-opacity="1" /><path clip-path="url(#clip880)" d="M1476.01 1079.89 Q1472.4 1079.89 1470.57 1083.46 Q1468.77 1087 1468.77 1094.13 Q1468.77 1101.24 1470.57 1104.8 Q1472.4 1108.34 1476.01 1108.34 Q1479.65 1108.34 1481.45 1104.8 Q1483.28 1101.24 1483.28 1094.13 Q1483.28 1087 1481.45 1083.46 Q1479.65 1079.89 1476.01 1079.89 M1476.01 1076.19 Q1481.82 1076.19 1484.88 1080.8 Q1487.96 1085.38 1487.96 1094.13 Q1487.96 1102.86 1484.88 1107.46 Q1481.82 1112.05 1476.01 1112.05 Q1470.2 1112.05 1467.12 1107.46 Q1464.07 1102.86 1464.07 1094.13 Q1464.07 1085.38 1467.12 1080.8 Q1470.2 1076.19 1476.01 1076.19 Z" fill="#000000" fill-rule="nonzero" fill-opacity="1" /><path clip-path="url(#clip880)" d="M1500.2 1107.44 L1516.52 1107.44 L1516.52 1111.38 L1494.58 1111.38 L1494.58 1107.44 Q1497.24 1104.69 1501.82 1100.06 Q1506.43 1095.4 1507.61 1094.06 Q1509.86 1091.54 1510.74 1089.8 Q1511.64 1088.04 1511.64 1086.35 Q1511.64 1083.6 1509.69 1081.86 Q1507.77 1080.13 1504.67 1080.13 Q1502.47 1080.13 1500.02 1080.89 Q1497.59 1081.65 1494.81 1083.2 L1494.81 1078.48 Q1497.63 1077.35 1500.09 1076.77 Q1502.54 1076.19 1504.58 1076.19 Q1509.95 1076.19 1513.14 1078.88 Q1516.34 1081.56 1516.34 1086.05 Q1516.34 1088.18 1515.53 1090.1 Q1514.74 1092 1512.63 1094.59 Q1512.05 1095.26 1508.95 1098.48 Q1505.85 1101.68 1500.2 1107.44 Z" fill="#000000" fill-rule="nonzero" fill-opacity="1" /><path clip-path="url(#clip880)" d="M1539.18 1080.89 L1527.38 1099.34 L1539.18 1099.34 L1539.18 1080.89 M1537.96 1076.82 L1543.84 1076.82 L1543.84 1099.34 L1548.77 1099.34 L1548.77 1103.23 L1543.84 1103.23 L1543.84 1111.38 L1539.18 1111.38 L1539.18 1103.23 L1523.58 1103.23 L1523.58 1098.71 L1537.96 1076.82 Z" fill="#000000" fill-rule="nonzero" fill-opacity="1" /><path clip-path="url(#clip880)" d="M1553.74 1096.49 L1566.22 1096.49 L1566.22 1100.29 L1553.74 1100.29 L1553.74 1096.49 Z" fill="#000000" fill-rule="nonzero" fill-opacity="1" /><path clip-path="url(#clip880)" d="M1583.61 1079.89 Q1579.99 1079.89 1578.17 1083.46 Q1576.36 1087 1576.36 1094.13 Q1576.36 1101.24 1578.17 1104.8 Q1579.99 1108.34 1583.61 1108.34 Q1587.24 1108.34 1589.05 1104.8 Q1590.87 1101.24 1590.87 1094.13 Q1590.87 1087 1589.05 1083.46 Q1587.24 1079.89 1583.61 1079.89 M1583.61 1076.19 Q1589.42 1076.19 1592.47 1080.8 Q1595.55 1085.38 1595.55 1094.13 Q1595.55 1102.86 1592.47 1107.46 Q1589.42 1112.05 1583.61 1112.05 Q1577.8 1112.05 1574.72 1107.46 Q1571.66 1102.86 1571.66 1094.13 Q1571.66 1085.38 1574.72 1080.8 Q1577.8 1076.19 1583.61 1076.19 Z" fill="#000000" fill-rule="nonzero" fill-opacity="1" /><path clip-path="url(#clip880)" d="M1602.59 1076.82 L1624.81 1076.82 L1624.81 1078.81 L1612.26 1111.38 L1607.38 1111.38 L1619.18 1080.75 L1602.59 1080.75 L1602.59 1076.82 Z" fill="#000000" fill-rule="nonzero" fill-opacity="1" /><path clip-path="url(#clip880)" d="M1631.17 1096.49 L1643.65 1096.49 L1643.65 1100.29 L1631.17 1100.29 L1631.17 1096.49 Z" fill="#000000" fill-rule="nonzero" fill-opacity="1" /><path clip-path="url(#clip880)" d="M1661.04 1079.89 Q1657.42 1079.89 1655.6 1083.46 Q1653.79 1087 1653.79 1094.13 Q1653.79 1101.24 1655.6 1104.8 Q1657.42 1108.34 1661.04 1108.34 Q1664.67 1108.34 1666.48 1104.8 Q1668.3 1101.24 1668.3 1094.13 Q1668.3 1087 1666.48 1083.46 Q1664.67 1079.89 1661.04 1079.89 M1661.04 1076.19 Q1666.85 1076.19 1669.9 1080.8 Q1672.98 1085.38 1672.98 1094.13 Q1672.98 1102.86 1669.9 1107.46 Q1666.85 1112.05 1661.04 1112.05 Q1655.23 1112.05 1652.15 1107.46 Q1649.09 1102.86 1649.09 1094.13 Q1649.09 1085.38 1652.15 1080.8 Q1655.23 1076.19 1661.04 1076.19 Z" fill="#000000" fill-rule="nonzero" fill-opacity="1" /><path clip-path="url(#clip880)" d="M1682.01 1107.44 L1689.65 1107.44 L1689.65 1081.07 L1681.34 1082.74 L1681.34 1078.48 L1689.6 1076.82 L1694.28 1076.82 L1694.28 1107.44 L1701.91 1107.44 L1701.91 1111.38 L1682.01 1111.38 L1682.01 1107.44 Z" fill="#000000" fill-rule="nonzero" fill-opacity="1" /><path clip-path="url(#clip880)" d="M2313.44 1107.44 L2329.76 1107.44 L2329.76 1111.38 L2307.81 1111.38 L2307.81 1107.44 Q2310.47 1104.69 2315.06 1100.06 Q2319.66 1095.4 2320.84 1094.06 Q2323.09 1091.54 2323.97 1089.8 Q2324.87 1088.04 2324.87 1086.35 Q2324.87 1083.6 2322.93 1081.86 Q2321.01 1080.13 2317.9 1080.13 Q2315.7 1080.13 2313.25 1080.89 Q2310.82 1081.65 2308.04 1083.2 L2308.04 1078.48 Q2310.87 1077.35 2313.32 1076.77 Q2315.77 1076.19 2317.81 1076.19 Q2323.18 1076.19 2326.38 1078.88 Q2329.57 1081.56 2329.57 1086.05 Q2329.57 1088.18 2328.76 1090.1 Q2327.97 1092 2325.87 1094.59 Q2325.29 1095.26 2322.19 1098.48 Q2319.08 1101.68 2313.44 1107.44 Z" fill="#000000" fill-rule="nonzero" fill-opacity="1" /><path clip-path="url(#clip880)" d="M2349.57 1079.89 Q2345.96 1079.89 2344.13 1083.46 Q2342.32 1087 2342.32 1094.13 Q2342.32 1101.24 2344.13 1104.8 Q2345.96 1108.34 2349.57 1108.34 Q2353.2 1108.34 2355.01 1104.8 Q2356.84 1101.24 2356.84 1094.13 Q2356.84 1087 2355.01 1083.46 Q2353.2 1079.89 2349.57 1079.89 M2349.57 1076.19 Q2355.38 1076.19 2358.44 1080.8 Q2361.51 1085.38 2361.51 1094.13 Q2361.51 1102.86 2358.44 1107.46 Q2355.38 1112.05 2349.57 1112.05 Q2343.76 1112.05 2340.68 1107.46 Q2337.63 1102.86 2337.63 1094.13 Q2337.63 1085.38 2340.68 1080.8 Q2343.76 1076.19 2349.57 1076.19 Z" fill="#000000" fill-rule="nonzero" fill-opacity="1" /><path clip-path="url(#clip880)" d="M2373.76 1107.44 L2390.08 1107.44 L2390.08 1111.38 L2368.13 1111.38 L2368.13 1107.44 Q2370.8 1104.69 2375.38 1100.06 Q2379.99 1095.4 2381.17 1094.06 Q2383.41 1091.54 2384.29 1089.8 Q2385.19 1088.04 2385.19 1086.35 Q2385.19 1083.6 2383.25 1081.86 Q2381.33 1080.13 2378.23 1080.13 Q2376.03 1080.13 2373.57 1080.89 Q2371.14 1081.65 2368.37 1083.2 L2368.37 1078.48 Q2371.19 1077.35 2373.64 1076.77 Q2376.1 1076.19 2378.13 1076.19 Q2383.5 1076.19 2386.7 1078.88 Q2389.89 1081.56 2389.89 1086.05 Q2389.89 1088.18 2389.08 1090.1 Q2388.3 1092 2386.19 1094.59 Q2385.61 1095.26 2382.51 1098.48 Q2379.41 1101.68 2373.76 1107.44 Z" fill="#000000" fill-rule="nonzero" fill-opacity="1" /><path clip-path="url(#clip880)" d="M2412.74 1080.89 L2400.94 1099.34 L2412.74 1099.34 L2412.74 1080.89 M2411.51 1076.82 L2417.39 1076.82 L2417.39 1099.34 L2422.32 1099.34 L2422.32 1103.23 L2417.39 1103.23 L2417.39 1111.38 L2412.74 1111.38 L2412.74 1103.23 L2397.14 1103.23 L2397.14 1098.71 L2411.51 1076.82 Z" fill="#000000" fill-rule="nonzero" fill-opacity="1" /><path clip-path="url(#clip880)" d="M2427.3 1096.49 L2439.78 1096.49 L2439.78 1100.29 L2427.3 1100.29 L2427.3 1096.49 Z" fill="#000000" fill-rule="nonzero" fill-opacity="1" /><path clip-path="url(#clip880)" d="M2457.16 1079.89 Q2453.55 1079.89 2451.72 1083.46 Q2449.92 1087 2449.92 1094.13 Q2449.92 1101.24 2451.72 1104.8 Q2453.55 1108.34 2457.16 1108.34 Q2460.8 1108.34 2462.6 1104.8 Q2464.43 1101.24 2464.43 1094.13 Q2464.43 1087 2462.6 1083.46 Q2460.8 1079.89 2457.16 1079.89 M2457.16 1076.19 Q2462.97 1076.19 2466.03 1080.8 Q2469.11 1085.38 2469.11 1094.13 Q2469.11 1102.86 2466.03 1107.46 Q2462.97 1112.05 2457.16 1112.05 Q2451.35 1112.05 2448.27 1107.46 Q2445.22 1102.86 2445.22 1094.13 Q2445.22 1085.38 2448.27 1080.8 Q2451.35 1076.19 2457.16 1076.19 Z" fill="#000000" fill-rule="nonzero" fill-opacity="1" /><path clip-path="url(#clip880)" d="M2487.32 1094.96 Q2483.99 1094.96 2482.07 1096.75 Q2480.17 1098.53 2480.17 1101.65 Q2480.17 1104.78 2482.07 1106.56 Q2483.99 1108.34 2487.32 1108.34 Q2490.66 1108.34 2492.58 1106.56 Q2494.5 1104.76 2494.5 1101.65 Q2494.5 1098.53 2492.58 1096.75 Q2490.68 1094.96 2487.32 1094.96 M2482.65 1092.97 Q2479.64 1092.23 2477.95 1090.17 Q2476.28 1088.11 2476.28 1085.15 Q2476.28 1081.01 2479.22 1078.6 Q2482.18 1076.19 2487.32 1076.19 Q2492.49 1076.19 2495.43 1078.6 Q2498.37 1081.01 2498.37 1085.15 Q2498.37 1088.11 2496.68 1090.17 Q2495.01 1092.23 2492.02 1092.97 Q2495.4 1093.76 2497.28 1096.05 Q2499.18 1098.34 2499.18 1101.65 Q2499.18 1106.68 2496.1 1109.36 Q2493.04 1112.05 2487.32 1112.05 Q2481.61 1112.05 2478.53 1109.36 Q2475.47 1106.68 2475.47 1101.65 Q2475.47 1098.34 2477.37 1096.05 Q2479.27 1093.76 2482.65 1092.97 M2480.93 1085.59 Q2480.93 1088.27 2482.6 1089.78 Q2484.29 1091.28 2487.32 1091.28 Q2490.33 1091.28 2492.02 1089.78 Q2493.74 1088.27 2493.74 1085.59 Q2493.74 1082.9 2492.02 1081.4 Q2490.33 1079.89 2487.32 1079.89 Q2484.29 1079.89 2482.6 1081.4 Q2480.93 1082.9 2480.93 1085.59 Z" fill="#000000" fill-rule="nonzero" fill-opacity="1" /><path clip-path="url(#clip880)" d="M2504.73 1096.49 L2517.21 1096.49 L2517.21 1100.29 L2504.73 1100.29 L2504.73 1096.49 Z" fill="#000000" fill-rule="nonzero" fill-opacity="1" /><path clip-path="url(#clip880)" d="M2534.59 1079.89 Q2530.98 1079.89 2529.15 1083.46 Q2527.35 1087 2527.35 1094.13 Q2527.35 1101.24 2529.15 1104.8 Q2530.98 1108.34 2534.59 1108.34 Q2538.23 1108.34 2540.03 1104.8 Q2541.86 1101.24 2541.86 1094.13 Q2541.86 1087 2540.03 1083.46 Q2538.23 1079.89 2534.59 1079.89 M2534.59 1076.19 Q2540.4 1076.19 2543.46 1080.8 Q2546.54 1085.38 2546.54 1094.13 Q2546.54 1102.86 2543.46 1107.46 Q2540.4 1112.05 2534.59 1112.05 Q2528.78 1112.05 2525.7 1107.46 Q2522.65 1102.86 2522.65 1094.13 Q2522.65 1085.38 2525.7 1080.8 Q2528.78 1076.19 2534.59 1076.19 Z" fill="#000000" fill-rule="nonzero" fill-opacity="1" /><path clip-path="url(#clip880)" d="M2555.56 1107.44 L2563.2 1107.44 L2563.2 1081.07 L2554.89 1082.74 L2554.89 1078.48 L2563.16 1076.82 L2567.83 1076.82 L2567.83 1107.44 L2575.47 1107.44 L2575.47 1111.38 L2555.56 1111.38 L2555.56 1107.44 Z" fill="#000000" fill-rule="nonzero" fill-opacity="1" /><polyline clip-path="url(#clip882)" style="stroke:#000000; stroke-linecap:round; stroke-linejoin:round; stroke-width:2; stroke-opacity:0.1; fill:none" points="271.839,1042.58 3089.76,1042.58 "/>
<polyline clip-path="url(#clip882)" style="stroke:#000000; stroke-linecap:round; stroke-linejoin:round; stroke-width:2; stroke-opacity:0.1; fill:none" points="271.839,594.159 3089.76,594.159 "/>
<polyline clip-path="url(#clip882)" style="stroke:#000000; stroke-linecap:round; stroke-linejoin:round; stroke-width:2; stroke-opacity:0.1; fill:none" points="271.839,145.742 3089.76,145.742 "/>
<polyline clip-path="url(#clip880)" style="stroke:#000000; stroke-linecap:round; stroke-linejoin:round; stroke-width:4; stroke-opacity:1; fill:none" points="271.839,1042.58 271.839,110.236 "/>
<polyline clip-path="url(#clip880)" style="stroke:#000000; stroke-linecap:round; stroke-linejoin:round; stroke-width:4; stroke-opacity:1; fill:none" points="271.839,1042.58 290.737,1042.58 "/>
<polyline clip-path="url(#clip880)" style="stroke:#000000; stroke-linecap:round; stroke-linejoin:round; stroke-width:4; stroke-opacity:1; fill:none" points="271.839,594.159 290.737,594.159 "/>
<polyline clip-path="url(#clip880)" style="stroke:#000000; stroke-linecap:round; stroke-linejoin:round; stroke-width:4; stroke-opacity:1; fill:none" points="271.839,145.742 290.737,145.742 "/>
<path clip-path="url(#clip880)" d="M153.134 1062.37 L160.772 1062.37 L160.772 1036 L152.462 1037.67 L152.462 1033.41 L160.726 1031.74 L165.402 1031.74 L165.402 1062.37 L173.041 1062.37 L173.041 1066.3 L153.134 1066.3 L153.134 1062.37 Z" fill="#000000" fill-rule="nonzero" fill-opacity="1" /><path clip-path="url(#clip880)" d="M192.485 1034.82 Q188.874 1034.82 187.045 1038.39 Q185.24 1041.93 185.24 1049.06 Q185.24 1056.16 187.045 1059.73 Q188.874 1063.27 192.485 1063.27 Q196.119 1063.27 197.925 1059.73 Q199.754 1056.16 199.754 1049.06 Q199.754 1041.93 197.925 1038.39 Q196.119 1034.82 192.485 1034.82 M192.485 1031.12 Q198.295 1031.12 201.351 1035.72 Q204.43 1040.31 204.43 1049.06 Q204.43 1057.78 201.351 1062.39 Q198.295 1066.97 192.485 1066.97 Q186.675 1066.97 183.596 1062.39 Q180.541 1057.78 180.541 1049.06 Q180.541 1040.31 183.596 1035.72 Q186.675 1031.12 192.485 1031.12 Z" fill="#000000" fill-rule="nonzero" fill-opacity="1" /><path clip-path="url(#clip880)" d="M214.134 1013.31 Q211.2 1013.31 209.715 1016.21 Q208.248 1019.09 208.248 1024.88 Q208.248 1030.66 209.715 1033.55 Q211.2 1036.43 214.134 1036.43 Q217.087 1036.43 218.554 1033.55 Q220.04 1030.66 220.04 1024.88 Q220.04 1019.09 218.554 1016.21 Q217.087 1013.31 214.134 1013.31 M214.134 1010.31 Q218.855 1010.31 221.338 1014.05 Q223.839 1017.77 223.839 1024.88 Q223.839 1031.97 221.338 1035.71 Q218.855 1039.44 214.134 1039.44 Q209.414 1039.44 206.912 1035.71 Q204.43 1031.97 204.43 1024.88 Q204.43 1017.77 206.912 1014.05 Q209.414 1010.31 214.134 1010.31 Z" fill="#000000" fill-rule="nonzero" fill-opacity="1" /><path clip-path="url(#clip880)" d="M155.823 613.952 L163.462 613.952 L163.462 587.586 L155.152 589.253 L155.152 584.993 L163.416 583.327 L168.092 583.327 L168.092 613.952 L175.73 613.952 L175.73 617.887 L155.823 617.887 L155.823 613.952 Z" fill="#000000" fill-rule="nonzero" fill-opacity="1" /><path clip-path="url(#clip880)" d="M195.175 586.405 Q191.564 586.405 189.735 589.97 Q187.929 593.512 187.929 600.641 Q187.929 607.748 189.735 611.313 Q191.564 614.854 195.175 614.854 Q198.809 614.854 200.615 611.313 Q202.443 607.748 202.443 600.641 Q202.443 593.512 200.615 589.97 Q198.809 586.405 195.175 586.405 M195.175 582.702 Q200.985 582.702 204.04 587.308 Q207.119 591.891 207.119 600.641 Q207.119 609.368 204.04 613.975 Q200.985 618.558 195.175 618.558 Q189.365 618.558 186.286 613.975 Q183.23 609.368 183.23 600.641 Q183.23 591.891 186.286 587.308 Q189.365 582.702 195.175 582.702 Z" fill="#000000" fill-rule="nonzero" fill-opacity="1" /><path clip-path="url(#clip880)" d="M207.665 587.279 L213.871 587.279 L213.871 565.857 L207.119 567.211 L207.119 563.75 L213.833 562.396 L217.633 562.396 L217.633 587.279 L223.839 587.279 L223.839 590.476 L207.665 590.476 L207.665 587.279 Z" fill="#000000" fill-rule="nonzero" fill-opacity="1" /><path clip-path="url(#clip880)" d="M154.713 165.535 L162.352 165.535 L162.352 139.169 L154.042 140.836 L154.042 136.577 L162.306 134.91 L166.982 134.91 L166.982 165.535 L174.621 165.535 L174.621 169.47 L154.713 169.47 L154.713 165.535 Z" fill="#000000" fill-rule="nonzero" fill-opacity="1" /><path clip-path="url(#clip880)" d="M194.065 137.989 Q190.454 137.989 188.625 141.553 Q186.82 145.095 186.82 152.225 Q186.82 159.331 188.625 162.896 Q190.454 166.438 194.065 166.438 Q197.699 166.438 199.505 162.896 Q201.334 159.331 201.334 152.225 Q201.334 145.095 199.505 141.553 Q197.699 137.989 194.065 137.989 M194.065 134.285 Q199.875 134.285 202.931 138.891 Q206.009 143.475 206.009 152.225 Q206.009 160.952 202.931 165.558 Q199.875 170.141 194.065 170.141 Q188.255 170.141 185.176 165.558 Q182.121 160.952 182.121 152.225 Q182.121 143.475 185.176 138.891 Q188.255 134.285 194.065 134.285 Z" fill="#000000" fill-rule="nonzero" fill-opacity="1" /><path clip-path="url(#clip880)" d="M210.58 138.862 L223.839 138.862 L223.839 142.06 L206.009 142.06 L206.009 138.862 Q208.172 136.624 211.896 132.863 Q215.639 129.082 216.598 127.991 Q218.423 125.941 219.137 124.531 Q219.871 123.101 219.871 121.728 Q219.871 119.49 218.291 118.08 Q216.73 116.669 214.21 116.669 Q212.423 116.669 210.429 117.29 Q208.454 117.91 206.198 119.171 L206.198 115.334 Q208.492 114.412 210.486 113.942 Q212.479 113.472 214.134 113.472 Q218.498 113.472 221.093 115.654 Q223.689 117.835 223.689 121.484 Q223.689 123.214 223.03 124.775 Q222.391 126.318 220.68 128.424 Q220.209 128.969 217.689 131.584 Q215.169 134.179 210.58 138.862 Z" fill="#000000" fill-rule="nonzero" fill-opacity="1" /><path clip-path="url(#clip880)" d="M83.4268 934.763 L70.6636 934.763 L70.6636 945.267 L65.38 945.267 L65.38 928.398 L85.7821 928.398 Q88.4239 932.122 89.7925 936.609 Q91.1293 941.097 91.1293 946.19 Q91.1293 957.33 84.6363 963.632 Q78.1114 969.902 66.494 969.902 Q54.8448 969.902 48.3518 963.632 Q41.8269 957.33 41.8269 946.19 Q41.8269 941.543 42.9727 937.373 Q44.1186 933.172 46.3466 929.639 L53.1897 929.639 Q50.166 933.204 48.6382 937.214 Q47.1104 941.225 47.1104 945.649 Q47.1104 954.37 51.9802 958.762 Q56.85 963.123 66.494 963.123 Q76.1062 963.123 80.976 958.762 Q85.8458 954.37 85.8458 945.649 Q85.8458 942.243 85.2729 939.57 Q84.6681 936.896 83.4268 934.763 Z" fill="#000000" fill-rule="nonzero" fill-opacity="1" /><path clip-path="url(#clip880)" d="M70.9182 886.416 L73.7828 886.416 L73.7828 913.343 Q79.8302 912.961 83.013 909.714 Q86.1641 906.436 86.1641 900.611 Q86.1641 897.238 85.3365 894.087 Q84.509 890.904 82.8539 887.785 L88.3921 887.785 Q89.7289 890.936 90.4291 894.246 Q91.1293 897.556 91.1293 900.962 Q91.1293 909.492 86.1641 914.489 Q81.1988 919.454 72.7324 919.454 Q63.9796 919.454 58.8552 914.743 Q53.699 910.001 53.699 901.98 Q53.699 894.787 58.3459 890.617 Q62.9611 886.416 70.9182 886.416 M69.1995 892.272 Q64.3933 892.336 61.5288 894.978 Q58.6642 897.588 58.6642 901.916 Q58.6642 906.818 61.4333 909.778 Q64.2024 912.706 69.2313 913.152 L69.1995 892.272 Z" fill="#000000" fill-rule="nonzero" fill-opacity="1" /><path clip-path="url(#clip880)" d="M68.6902 847.171 L90.2063 847.171 L90.2063 853.028 L68.8812 853.028 Q63.8204 853.028 61.306 855.001 Q58.7915 856.975 58.7915 860.921 Q58.7915 865.664 61.8152 868.401 Q64.8389 871.138 70.0588 871.138 L90.2063 871.138 L90.2063 877.026 L54.5583 877.026 L54.5583 871.138 L60.0965 871.138 Q56.8818 869.038 55.2904 866.205 Q53.699 863.34 53.699 859.616 Q53.699 853.473 57.5184 850.322 Q61.306 847.171 68.6902 847.171 Z" fill="#000000" fill-rule="nonzero" fill-opacity="1" /><path clip-path="url(#clip880)" d="M58.6642 821.677 Q58.6642 826.387 62.3563 829.125 Q66.0166 831.862 72.4141 831.862 Q78.8117 831.862 82.5038 829.156 Q86.1641 826.419 86.1641 821.677 Q86.1641 816.998 82.4719 814.261 Q78.7798 811.523 72.4141 811.523 Q66.0803 811.523 62.3881 814.261 Q58.6642 816.998 58.6642 821.677 M53.699 821.677 Q53.699 814.038 58.6642 809.677 Q63.6295 805.317 72.4141 805.317 Q81.167 805.317 86.1641 809.677 Q91.1293 814.038 91.1293 821.677 Q91.1293 829.347 86.1641 833.708 Q81.167 838.037 72.4141 838.037 Q63.6295 838.037 58.6642 833.708 Q53.699 829.347 53.699 821.677 Z" fill="#000000" fill-rule="nonzero" fill-opacity="1" /><path clip-path="url(#clip880)" d="M61.4015 767.855 Q57.4547 765.658 55.5768 762.603 Q53.699 759.547 53.699 755.41 Q53.699 749.84 57.6139 746.816 Q61.4969 743.792 68.6902 743.792 L90.2063 743.792 L90.2063 749.681 L68.8812 749.681 Q63.7568 749.681 61.2741 751.495 Q58.7915 753.309 58.7915 757.033 Q58.7915 761.584 61.8152 764.226 Q64.8389 766.868 70.0588 766.868 L90.2063 766.868 L90.2063 772.756 L68.8812 772.756 Q63.7249 772.756 61.2741 774.57 Q58.7915 776.385 58.7915 780.172 Q58.7915 784.66 61.8471 787.302 Q64.8708 789.944 70.0588 789.944 L90.2063 789.944 L90.2063 795.832 L54.5583 795.832 L54.5583 789.944 L60.0965 789.944 Q56.8182 787.938 55.2586 785.138 Q53.699 782.337 53.699 778.485 Q53.699 774.602 55.6723 771.897 Q57.6457 769.16 61.4015 767.855 Z" fill="#000000" fill-rule="nonzero" fill-opacity="1" /><path clip-path="url(#clip880)" d="M70.9182 701.619 L73.7828 701.619 L73.7828 728.546 Q79.8302 728.164 83.013 724.918 Q86.1641 721.64 86.1641 715.815 Q86.1641 712.441 85.3365 709.29 Q84.509 706.107 82.8539 702.988 L88.3921 702.988 Q89.7289 706.139 90.4291 709.449 Q91.1293 712.759 91.1293 716.165 Q91.1293 724.695 86.1641 729.692 Q81.1988 734.657 72.7324 734.657 Q63.9796 734.657 58.8552 729.947 Q53.699 725.204 53.699 717.184 Q53.699 709.99 58.3459 705.821 Q62.9611 701.619 70.9182 701.619 M69.1995 707.476 Q64.3933 707.54 61.5288 710.181 Q58.6642 712.791 58.6642 717.12 Q58.6642 722.022 61.4333 724.982 Q64.2024 727.91 69.2313 728.355 L69.1995 707.476 Z" fill="#000000" fill-rule="nonzero" fill-opacity="1" /><path clip-path="url(#clip880)" d="M55.6087 669.282 L61.1468 669.282 Q59.8737 671.764 59.2371 674.438 Q58.6006 677.111 58.6006 679.976 Q58.6006 684.337 59.9373 686.533 Q61.2741 688.697 63.9477 688.697 Q65.9848 688.697 67.1624 687.137 Q68.3083 685.578 69.3586 680.867 L69.8042 678.862 Q71.141 672.624 73.5918 670.014 Q76.0108 667.372 80.3713 667.372 Q85.3365 667.372 88.2329 671.319 Q91.1293 675.234 91.1293 682.109 Q91.1293 684.973 90.5564 688.092 Q90.0153 691.18 88.9013 694.617 L82.8539 694.617 Q84.5408 691.371 85.4002 688.22 Q86.2277 685.069 86.2277 681.981 Q86.2277 677.844 84.8273 675.616 Q83.395 673.388 80.8169 673.388 Q78.4297 673.388 77.1566 675.011 Q75.8834 676.602 74.7058 682.045 L74.2284 684.082 Q73.0825 689.525 70.7272 691.944 Q68.3401 694.363 64.2024 694.363 Q59.1735 694.363 56.4362 690.798 Q53.699 687.233 53.699 680.676 Q53.699 677.43 54.1764 674.565 Q54.6538 671.701 55.6087 669.282 Z" fill="#000000" fill-rule="nonzero" fill-opacity="1" /><path clip-path="url(#clip880)" d="M42.6863 647.638 L42.6863 642.227 L96.2537 658.778 L96.2537 664.189 L42.6863 647.638 Z" fill="#000000" fill-rule="nonzero" fill-opacity="1" /><path clip-path="url(#clip880)" d="M47.9698 629.4 L84.9227 629.4 L84.9227 621.634 Q84.9227 611.799 80.4668 607.248 Q76.0108 602.665 66.3985 602.665 Q56.85 602.665 52.4258 607.248 Q47.9698 611.799 47.9698 621.634 L47.9698 629.4 M42.6863 635.83 L42.6863 622.621 Q42.6863 608.807 48.4472 602.346 Q54.1764 595.885 66.3985 595.885 Q78.6844 595.885 84.4453 602.378 Q90.2063 608.871 90.2063 622.621 L90.2063 635.83 L42.6863 635.83 Z" fill="#000000" fill-rule="nonzero" fill-opacity="1" /><path clip-path="url(#clip880)" d="M72.2868 569.69 Q72.2868 576.788 73.9101 579.525 Q75.5333 582.262 79.4482 582.262 Q82.5674 582.262 84.4135 580.225 Q86.2277 578.157 86.2277 574.624 Q86.2277 569.754 82.7902 566.826 Q79.3209 563.866 73.5918 563.866 L72.2868 563.866 L72.2868 569.69 M69.8679 558.009 L90.2063 558.009 L90.2063 563.866 L84.7954 563.866 Q88.0419 565.871 89.6015 568.863 Q91.1293 571.855 91.1293 576.183 Q91.1293 581.658 88.0738 584.904 Q84.9864 588.119 79.8302 588.119 Q73.8146 588.119 70.759 584.108 Q67.7035 580.066 67.7035 572.077 L67.7035 563.866 L67.1306 563.866 Q63.0884 563.866 60.8922 566.539 Q58.6642 569.181 58.6642 573.987 Q58.6642 577.043 59.3963 579.939 Q60.1283 582.835 61.5924 585.509 L56.1816 585.509 Q54.9403 582.294 54.3355 579.271 Q53.699 576.247 53.699 573.382 Q53.699 565.648 57.7094 561.829 Q61.7197 558.009 69.8679 558.009 Z" fill="#000000" fill-rule="nonzero" fill-opacity="1" /><path clip-path="url(#clip880)" d="M93.5165 531.114 Q99.8822 533.597 101.824 535.952 Q103.765 538.307 103.765 542.254 L103.765 546.933 L98.8636 546.933 L98.8636 543.495 Q98.8636 541.076 97.7178 539.74 Q96.572 538.403 92.307 536.779 L89.6334 535.729 L54.5583 550.147 L54.5583 543.941 L82.4401 532.801 L54.5583 521.661 L54.5583 515.454 L93.5165 531.114 Z" fill="#000000" fill-rule="nonzero" fill-opacity="1" /><path clip-path="url(#clip880)" d="M40.7447 472.581 Q48.0653 476.846 55.2267 478.915 Q62.3881 480.984 69.7405 480.984 Q77.0929 480.984 84.318 478.915 Q91.5113 476.815 98.8 472.581 L98.8 477.674 Q91.3203 482.448 84.0952 484.835 Q76.8701 487.191 69.7405 487.191 Q62.6428 487.191 55.4495 484.835 Q48.2563 482.48 40.7447 477.674 L40.7447 472.581 Z" fill="#000000" fill-rule="nonzero" fill-opacity="1" /><path clip-path="url(#clip880)" d="M42.6863 460.964 L42.6863 430.918 L48.0971 430.918 L48.0971 454.535 L62.1653 454.535 L62.1653 431.904 L67.5762 431.904 L67.5762 454.535 L84.7954 454.535 L84.7954 430.345 L90.2063 430.345 L90.2063 460.964 L42.6863 460.964 Z" fill="#000000" fill-rule="nonzero" fill-opacity="1" /><path clip-path="url(#clip880)" d="M68.6902 390.4 L90.2063 390.4 L90.2063 396.256 L68.8812 396.256 Q63.8204 396.256 61.306 398.23 Q58.7915 400.203 58.7915 404.15 Q58.7915 408.892 61.8152 411.63 Q64.8389 414.367 70.0588 414.367 L90.2063 414.367 L90.2063 420.255 L54.5583 420.255 L54.5583 414.367 L60.0965 414.367 Q56.8818 412.266 55.2904 409.433 Q53.699 406.569 53.699 402.845 Q53.699 396.702 57.5184 393.551 Q61.306 390.4 68.6902 390.4 Z" fill="#000000" fill-rule="nonzero" fill-opacity="1" /><path clip-path="url(#clip880)" d="M71.9685 355.261 Q65.6028 355.261 62.1017 357.903 Q58.6006 360.513 58.6006 365.255 Q58.6006 369.966 62.1017 372.608 Q65.6028 375.218 71.9685 375.218 Q78.3024 375.218 81.8036 372.608 Q85.3047 369.966 85.3047 365.255 Q85.3047 360.513 81.8036 357.903 Q78.3024 355.261 71.9685 355.261 M85.7821 349.405 Q94.8851 349.405 99.3092 353.447 Q103.765 357.489 103.765 365.828 Q103.765 368.916 103.288 371.653 Q102.842 374.39 101.887 376.968 L96.19 376.968 Q97.5905 374.39 98.2589 371.876 Q98.9273 369.361 98.9273 366.751 Q98.9273 360.99 95.9036 358.126 Q92.9117 355.261 86.8325 355.261 L83.9361 355.261 Q87.0871 357.076 88.6467 359.908 Q90.2063 362.741 90.2063 366.688 Q90.2063 373.244 85.2092 377.255 Q80.2121 381.265 71.9685 381.265 Q63.6931 381.265 58.696 377.255 Q53.699 373.244 53.699 366.688 Q53.699 362.741 55.2586 359.908 Q56.8182 357.076 59.9692 355.261 L54.5583 355.261 L54.5583 349.405 L85.7821 349.405 Z" fill="#000000" fill-rule="nonzero" fill-opacity="1" /><path clip-path="url(#clip880)" d="M40.6811 337.342 L40.6811 331.485 L90.2063 331.485 L90.2063 337.342 L40.6811 337.342 Z" fill="#000000" fill-rule="nonzero" fill-opacity="1" /><path clip-path="url(#clip880)" d="M72.2868 303.031 Q72.2868 310.128 73.9101 312.866 Q75.5333 315.603 79.4482 315.603 Q82.5674 315.603 84.4135 313.566 Q86.2277 311.497 86.2277 307.964 Q86.2277 303.094 82.7902 300.166 Q79.3209 297.206 73.5918 297.206 L72.2868 297.206 L72.2868 303.031 M69.8679 291.35 L90.2063 291.35 L90.2063 297.206 L84.7954 297.206 Q88.0419 299.211 89.6015 302.203 Q91.1293 305.195 91.1293 309.524 Q91.1293 314.998 88.0738 318.245 Q84.9864 321.459 79.8302 321.459 Q73.8146 321.459 70.759 317.449 Q67.7035 313.407 67.7035 305.418 L67.7035 297.206 L67.1306 297.206 Q63.0884 297.206 60.8922 299.88 Q58.6642 302.521 58.6642 307.328 Q58.6642 310.383 59.3963 313.28 Q60.1283 316.176 61.5924 318.849 L56.1816 318.849 Q54.9403 315.635 54.3355 312.611 Q53.699 309.587 53.699 306.723 Q53.699 298.988 57.7094 295.169 Q61.7197 291.35 69.8679 291.35 Z" fill="#000000" fill-rule="nonzero" fill-opacity="1" /><path clip-path="url(#clip880)" d="M68.6902 249.654 L90.2063 249.654 L90.2063 255.511 L68.8812 255.511 Q63.8204 255.511 61.306 257.484 Q58.7915 259.457 58.7915 263.404 Q58.7915 268.147 61.8152 270.884 Q64.8389 273.621 70.0588 273.621 L90.2063 273.621 L90.2063 279.509 L54.5583 279.509 L54.5583 273.621 L60.0965 273.621 Q56.8818 271.52 55.2904 268.688 Q53.699 265.823 53.699 262.099 Q53.699 255.956 57.5184 252.805 Q61.306 249.654 68.6902 249.654 Z" fill="#000000" fill-rule="nonzero" fill-opacity="1" /><path clip-path="url(#clip880)" d="M59.9692 214.516 L40.6811 214.516 L40.6811 208.659 L90.2063 208.659 L90.2063 214.516 L84.8591 214.516 Q88.0419 216.362 89.6015 219.194 Q91.1293 221.995 91.1293 225.942 Q91.1293 232.403 85.9731 236.477 Q80.8169 240.519 72.4141 240.519 Q64.0114 240.519 58.8552 236.477 Q53.699 232.403 53.699 225.942 Q53.699 221.995 55.2586 219.194 Q56.7863 216.362 59.9692 214.516 M72.4141 234.472 Q78.8753 234.472 82.5674 231.83 Q86.2277 229.157 86.2277 224.51 Q86.2277 219.863 82.5674 217.189 Q78.8753 214.516 72.4141 214.516 Q65.9529 214.516 62.2927 217.189 Q58.6006 219.863 58.6006 224.51 Q58.6006 229.157 62.2927 231.83 Q65.9529 234.472 72.4141 234.472 Z" fill="#000000" fill-rule="nonzero" fill-opacity="1" /><path clip-path="url(#clip880)" d="M40.7447 197.519 L40.7447 192.427 Q48.2563 187.652 55.4495 185.297 Q62.6428 182.91 69.7405 182.91 Q76.8701 182.91 84.0952 185.297 Q91.3203 187.652 98.8 192.427 L98.8 197.519 Q91.5113 193.286 84.318 191.217 Q77.0929 189.116 69.7405 189.116 Q62.3881 189.116 55.2267 191.217 Q48.0653 193.286 40.7447 197.519 Z" fill="#000000" fill-rule="nonzero" fill-opacity="1" /><path clip-path="url(#clip882)" d="M288.747 226.662 L288.747 1042.58 L311.29 1042.58 L311.29 226.662 L288.747 226.662 L288.747 226.662  Z" fill="#009af9" fill-rule="evenodd" fill-opacity="0.5"/>
<polyline clip-path="url(#clip882)" style="stroke:#000000; stroke-linecap:round; stroke-linejoin:round; stroke-width:4; stroke-opacity:0.5; fill:none" points="288.747,226.662 288.747,1042.58 311.29,1042.58 311.29,226.662 288.747,226.662 "/>
<path clip-path="url(#clip882)" d="M316.926 329.116 L316.926 1042.58 L339.469 1042.58 L339.469 329.116 L316.926 329.116 L316.926 329.116  Z" fill="#009af9" fill-rule="evenodd" fill-opacity="0.5"/>
<polyline clip-path="url(#clip882)" style="stroke:#000000; stroke-linecap:round; stroke-linejoin:round; stroke-width:4; stroke-opacity:0.5; fill:none" points="316.926,329.116 316.926,1042.58 339.469,1042.58 339.469,329.116 316.926,329.116 "/>
<path clip-path="url(#clip882)" d="M345.105 292.779 L345.105 1042.58 L367.649 1042.58 L367.649 292.779 L345.105 292.779 L345.105 292.779  Z" fill="#009af9" fill-rule="evenodd" fill-opacity="0.5"/>
<polyline clip-path="url(#clip882)" style="stroke:#000000; stroke-linecap:round; stroke-linejoin:round; stroke-width:4; stroke-opacity:0.5; fill:none" points="345.105,292.779 345.105,1042.58 367.649,1042.58 367.649,292.779 345.105,292.779 "/>
<path clip-path="url(#clip882)" d="M373.285 212.441 L373.285 1042.58 L395.828 1042.58 L395.828 212.441 L373.285 212.441 L373.285 212.441  Z" fill="#009af9" fill-rule="evenodd" fill-opacity="0.5"/>
<polyline clip-path="url(#clip882)" style="stroke:#000000; stroke-linecap:round; stroke-linejoin:round; stroke-width:4; stroke-opacity:0.5; fill:none" points="373.285,212.441 373.285,1042.58 395.828,1042.58 395.828,212.441 373.285,212.441 "/>
<path clip-path="url(#clip882)" d="M401.464 255.212 L401.464 1042.58 L424.007 1042.58 L424.007 255.212 L401.464 255.212 L401.464 255.212  Z" fill="#009af9" fill-rule="evenodd" fill-opacity="0.5"/>
<polyline clip-path="url(#clip882)" style="stroke:#000000; stroke-linecap:round; stroke-linejoin:round; stroke-width:4; stroke-opacity:0.5; fill:none" points="401.464,255.212 401.464,1042.58 424.007,1042.58 424.007,255.212 401.464,255.212 "/>
<path clip-path="url(#clip882)" d="M429.643 248.496 L429.643 1042.58 L452.186 1042.58 L452.186 248.496 L429.643 248.496 L429.643 248.496  Z" fill="#009af9" fill-rule="evenodd" fill-opacity="0.5"/>
<polyline clip-path="url(#clip882)" style="stroke:#000000; stroke-linecap:round; stroke-linejoin:round; stroke-width:4; stroke-opacity:0.5; fill:none" points="429.643,248.496 429.643,1042.58 452.186,1042.58 452.186,248.496 429.643,248.496 "/>
<path clip-path="url(#clip882)" d="M457.822 292.779 L457.822 1042.58 L480.366 1042.58 L480.366 292.779 L457.822 292.779 L457.822 292.779  Z" fill="#009af9" fill-rule="evenodd" fill-opacity="0.5"/>
<polyline clip-path="url(#clip882)" style="stroke:#000000; stroke-linecap:round; stroke-linejoin:round; stroke-width:4; stroke-opacity:0.5; fill:none" points="457.822,292.779 457.822,1042.58 480.366,1042.58 480.366,292.779 457.822,292.779 "/>
<path clip-path="url(#clip882)" d="M486.001 296.967 L486.001 1042.58 L508.545 1042.58 L508.545 296.967 L486.001 296.967 L486.001 296.967  Z" fill="#009af9" fill-rule="evenodd" fill-opacity="0.5"/>
<polyline clip-path="url(#clip882)" style="stroke:#000000; stroke-linecap:round; stroke-linejoin:round; stroke-width:4; stroke-opacity:0.5; fill:none" points="486.001,296.967 486.001,1042.58 508.545,1042.58 508.545,296.967 486.001,296.967 "/>
<path clip-path="url(#clip882)" d="M514.181 408.078 L514.181 1042.58 L536.724 1042.58 L536.724 408.078 L514.181 408.078 L514.181 408.078  Z" fill="#009af9" fill-rule="evenodd" fill-opacity="0.5"/>
<polyline clip-path="url(#clip882)" style="stroke:#000000; stroke-linecap:round; stroke-linejoin:round; stroke-width:4; stroke-opacity:0.5; fill:none" points="514.181,408.078 514.181,1042.58 536.724,1042.58 536.724,408.078 514.181,408.078 "/>
<path clip-path="url(#clip882)" d="M542.36 373.824 L542.36 1042.58 L564.903 1042.58 L564.903 373.824 L542.36 373.824 L542.36 373.824  Z" fill="#009af9" fill-rule="evenodd" fill-opacity="0.5"/>
<polyline clip-path="url(#clip882)" style="stroke:#000000; stroke-linecap:round; stroke-linejoin:round; stroke-width:4; stroke-opacity:0.5; fill:none" points="542.36,373.824 542.36,1042.58 564.903,1042.58 564.903,373.824 542.36,373.824 "/>
<path clip-path="url(#clip882)" d="M570.539 380.21 L570.539 1042.58 L593.083 1042.58 L593.083 380.21 L570.539 380.21 L570.539 380.21  Z" fill="#009af9" fill-rule="evenodd" fill-opacity="0.5"/>
<polyline clip-path="url(#clip882)" style="stroke:#000000; stroke-linecap:round; stroke-linejoin:round; stroke-width:4; stroke-opacity:0.5; fill:none" points="570.539,380.21 570.539,1042.58 593.083,1042.58 593.083,380.21 570.539,380.21 "/>
<path clip-path="url(#clip882)" d="M598.718 196.642 L598.718 1042.58 L621.262 1042.58 L621.262 196.642 L598.718 196.642 L598.718 196.642  Z" fill="#009af9" fill-rule="evenodd" fill-opacity="0.5"/>
<polyline clip-path="url(#clip882)" style="stroke:#000000; stroke-linecap:round; stroke-linejoin:round; stroke-width:4; stroke-opacity:0.5; fill:none" points="598.718,196.642 598.718,1042.58 621.262,1042.58 621.262,196.642 598.718,196.642 "/>
<path clip-path="url(#clip882)" d="M626.898 235.721 L626.898 1042.58 L649.441 1042.58 L649.441 235.721 L626.898 235.721 L626.898 235.721  Z" fill="#009af9" fill-rule="evenodd" fill-opacity="0.5"/>
<polyline clip-path="url(#clip882)" style="stroke:#000000; stroke-linecap:round; stroke-linejoin:round; stroke-width:4; stroke-opacity:0.5; fill:none" points="626.898,235.721 626.898,1042.58 649.441,1042.58 649.441,235.721 626.898,235.721 "/>
<path clip-path="url(#clip882)" d="M655.077 184.39 L655.077 1042.58 L677.62 1042.58 L677.62 184.39 L655.077 184.39 L655.077 184.39  Z" fill="#009af9" fill-rule="evenodd" fill-opacity="0.5"/>
<polyline clip-path="url(#clip882)" style="stroke:#000000; stroke-linecap:round; stroke-linejoin:round; stroke-width:4; stroke-opacity:0.5; fill:none" points="655.077,184.39 655.077,1042.58 677.62,1042.58 677.62,184.39 655.077,184.39 "/>
<path clip-path="url(#clip882)" d="M683.256 201.767 L683.256 1042.58 L705.8 1042.58 L705.8 201.767 L683.256 201.767 L683.256 201.767  Z" fill="#009af9" fill-rule="evenodd" fill-opacity="0.5"/>
<polyline clip-path="url(#clip882)" style="stroke:#000000; stroke-linecap:round; stroke-linejoin:round; stroke-width:4; stroke-opacity:0.5; fill:none" points="683.256,201.767 683.256,1042.58 705.8,1042.58 705.8,201.767 683.256,201.767 "/>
<path clip-path="url(#clip882)" d="M711.435 284.664 L711.435 1042.58 L733.979 1042.58 L733.979 284.664 L711.435 284.664 L711.435 284.664  Z" fill="#009af9" fill-rule="evenodd" fill-opacity="0.5"/>
<polyline clip-path="url(#clip882)" style="stroke:#000000; stroke-linecap:round; stroke-linejoin:round; stroke-width:4; stroke-opacity:0.5; fill:none" points="711.435,284.664 711.435,1042.58 733.979,1042.58 733.979,284.664 711.435,284.664 "/>
<path clip-path="url(#clip882)" d="M739.615 220.848 L739.615 1042.58 L762.158 1042.58 L762.158 220.848 L739.615 220.848 L739.615 220.848  Z" fill="#009af9" fill-rule="evenodd" fill-opacity="0.5"/>
<polyline clip-path="url(#clip882)" style="stroke:#000000; stroke-linecap:round; stroke-linejoin:round; stroke-width:4; stroke-opacity:0.5; fill:none" points="739.615,220.848 739.615,1042.58 762.158,1042.58 762.158,220.848 739.615,220.848 "/>
<path clip-path="url(#clip882)" d="M767.794 157.792 L767.794 1042.58 L790.337 1042.58 L790.337 157.792 L767.794 157.792 L767.794 157.792  Z" fill="#009af9" fill-rule="evenodd" fill-opacity="0.5"/>
<polyline clip-path="url(#clip882)" style="stroke:#000000; stroke-linecap:round; stroke-linejoin:round; stroke-width:4; stroke-opacity:0.5; fill:none" points="767.794,157.792 767.794,1042.58 790.337,1042.58 790.337,157.792 767.794,157.792 "/>
<path clip-path="url(#clip882)" d="M795.973 194.129 L795.973 1042.58 L818.517 1042.58 L818.517 194.129 L795.973 194.129 L795.973 194.129  Z" fill="#009af9" fill-rule="evenodd" fill-opacity="0.5"/>
<polyline clip-path="url(#clip882)" style="stroke:#000000; stroke-linecap:round; stroke-linejoin:round; stroke-width:4; stroke-opacity:0.5; fill:none" points="795.973,194.129 795.973,1042.58 818.517,1042.58 818.517,194.129 795.973,194.129 "/>
<path clip-path="url(#clip882)" d="M824.152 179.697 L824.152 1042.58 L846.696 1042.58 L846.696 179.697 L824.152 179.697 L824.152 179.697  Z" fill="#009af9" fill-rule="evenodd" fill-opacity="0.5"/>
<polyline clip-path="url(#clip882)" style="stroke:#000000; stroke-linecap:round; stroke-linejoin:round; stroke-width:4; stroke-opacity:0.5; fill:none" points="824.152,179.697 824.152,1042.58 846.696,1042.58 846.696,179.697 824.152,179.697 "/>
<path clip-path="url(#clip882)" d="M852.332 196.642 L852.332 1042.58 L874.875 1042.58 L874.875 196.642 L852.332 196.642 L852.332 196.642  Z" fill="#009af9" fill-rule="evenodd" fill-opacity="0.5"/>
<polyline clip-path="url(#clip882)" style="stroke:#000000; stroke-linecap:round; stroke-linejoin:round; stroke-width:4; stroke-opacity:0.5; fill:none" points="852.332,196.642 852.332,1042.58 874.875,1042.58 874.875,196.642 852.332,196.642 "/>
<path clip-path="url(#clip882)" d="M880.511 223.733 L880.511 1042.58 L903.054 1042.58 L903.054 223.733 L880.511 223.733 L880.511 223.733  Z" fill="#009af9" fill-rule="evenodd" fill-opacity="0.5"/>
<polyline clip-path="url(#clip882)" style="stroke:#000000; stroke-linecap:round; stroke-linejoin:round; stroke-width:4; stroke-opacity:0.5; fill:none" points="880.511,223.733 880.511,1042.58 903.054,1042.58 903.054,223.733 880.511,223.733 "/>
<path clip-path="url(#clip882)" d="M908.69 314.684 L908.69 1042.58 L931.234 1042.58 L931.234 314.684 L908.69 314.684 L908.69 314.684  Z" fill="#009af9" fill-rule="evenodd" fill-opacity="0.5"/>
<polyline clip-path="url(#clip882)" style="stroke:#000000; stroke-linecap:round; stroke-linejoin:round; stroke-width:4; stroke-opacity:0.5; fill:none" points="908.69,314.684 908.69,1042.58 931.234,1042.58 931.234,314.684 908.69,314.684 "/>
<path clip-path="url(#clip882)" d="M936.869 251.825 L936.869 1042.58 L959.413 1042.58 L959.413 251.825 L936.869 251.825 L936.869 251.825  Z" fill="#009af9" fill-rule="evenodd" fill-opacity="0.5"/>
<polyline clip-path="url(#clip882)" style="stroke:#000000; stroke-linecap:round; stroke-linejoin:round; stroke-width:4; stroke-opacity:0.5; fill:none" points="936.869,251.825 936.869,1042.58 959.413,1042.58 959.413,251.825 936.869,251.825 "/>
<path clip-path="url(#clip882)" d="M965.049 164.109 L965.049 1042.58 L987.592 1042.58 L987.592 164.109 L965.049 164.109 L965.049 164.109  Z" fill="#009af9" fill-rule="evenodd" fill-opacity="0.5"/>
<polyline clip-path="url(#clip882)" style="stroke:#000000; stroke-linecap:round; stroke-linejoin:round; stroke-width:4; stroke-opacity:0.5; fill:none" points="965.049,164.109 965.049,1042.58 987.592,1042.58 987.592,164.109 965.049,164.109 "/>
<path clip-path="url(#clip882)" d="M993.228 218.005 L993.228 1042.58 L1015.77 1042.58 L1015.77 218.005 L993.228 218.005 L993.228 218.005  Z" fill="#009af9" fill-rule="evenodd" fill-opacity="0.5"/>
<polyline clip-path="url(#clip882)" style="stroke:#000000; stroke-linecap:round; stroke-linejoin:round; stroke-width:4; stroke-opacity:0.5; fill:none" points="993.228,218.005 993.228,1042.58 1015.77,1042.58 1015.77,218.005 993.228,218.005 "/>
<path clip-path="url(#clip882)" d="M1021.41 242.004 L1021.41 1042.58 L1043.95 1042.58 L1043.95 242.004 L1021.41 242.004 L1021.41 242.004  Z" fill="#009af9" fill-rule="evenodd" fill-opacity="0.5"/>
<polyline clip-path="url(#clip882)" style="stroke:#000000; stroke-linecap:round; stroke-linejoin:round; stroke-width:4; stroke-opacity:0.5; fill:none" points="1021.41,242.004 1021.41,1042.58 1043.95,1042.58 1043.95,242.004 1021.41,242.004 "/>
<path clip-path="url(#clip882)" d="M1049.59 189.198 L1049.59 1042.58 L1072.13 1042.58 L1072.13 189.198 L1049.59 189.198 L1049.59 189.198  Z" fill="#009af9" fill-rule="evenodd" fill-opacity="0.5"/>
<polyline clip-path="url(#clip882)" style="stroke:#000000; stroke-linecap:round; stroke-linejoin:round; stroke-width:4; stroke-opacity:0.5; fill:none" points="1049.59,189.198 1049.59,1042.58 1072.13,1042.58 1072.13,189.198 1049.59,189.198 "/>
<path clip-path="url(#clip882)" d="M1077.77 164.109 L1077.77 1042.58 L1100.31 1042.58 L1100.31 164.109 L1077.77 164.109 L1077.77 164.109  Z" fill="#009af9" fill-rule="evenodd" fill-opacity="0.5"/>
<polyline clip-path="url(#clip882)" style="stroke:#000000; stroke-linecap:round; stroke-linejoin:round; stroke-width:4; stroke-opacity:0.5; fill:none" points="1077.77,164.109 1077.77,1042.58 1100.31,1042.58 1100.31,164.109 1077.77,164.109 "/>
<path clip-path="url(#clip882)" d="M1105.94 238.837 L1105.94 1042.58 L1128.49 1042.58 L1128.49 238.837 L1105.94 238.837 L1105.94 238.837  Z" fill="#009af9" fill-rule="evenodd" fill-opacity="0.5"/>
<polyline clip-path="url(#clip882)" style="stroke:#000000; stroke-linecap:round; stroke-linejoin:round; stroke-width:4; stroke-opacity:0.5; fill:none" points="1105.94,238.837 1105.94,1042.58 1128.49,1042.58 1128.49,238.837 1105.94,238.837 "/>
<path clip-path="url(#clip882)" d="M1134.12 212.441 L1134.12 1042.58 L1156.67 1042.58 L1156.67 212.441 L1134.12 212.441 L1134.12 212.441  Z" fill="#009af9" fill-rule="evenodd" fill-opacity="0.5"/>
<polyline clip-path="url(#clip882)" style="stroke:#000000; stroke-linecap:round; stroke-linejoin:round; stroke-width:4; stroke-opacity:0.5; fill:none" points="1134.12,212.441 1134.12,1042.58 1156.67,1042.58 1156.67,212.441 1134.12,212.441 "/>
<path clip-path="url(#clip882)" d="M1162.3 116.838 L1162.3 1042.58 L1184.85 1042.58 L1184.85 116.838 L1162.3 116.838 L1162.3 116.838  Z" fill="#009af9" fill-rule="evenodd" fill-opacity="0.5"/>
<polyline clip-path="url(#clip882)" style="stroke:#000000; stroke-linecap:round; stroke-linejoin:round; stroke-width:4; stroke-opacity:0.5; fill:none" points="1162.3,116.838 1162.3,1042.58 1184.85,1042.58 1184.85,116.838 1162.3,116.838 "/>
<path clip-path="url(#clip882)" d="M1190.48 132.566 L1190.48 1042.58 L1213.03 1042.58 L1213.03 132.566 L1190.48 132.566 L1190.48 132.566  Z" fill="#009af9" fill-rule="evenodd" fill-opacity="0.5"/>
<polyline clip-path="url(#clip882)" style="stroke:#000000; stroke-linecap:round; stroke-linejoin:round; stroke-width:4; stroke-opacity:0.5; fill:none" points="1190.48,132.566 1190.48,1042.58 1213.03,1042.58 1213.03,132.566 1190.48,132.566 "/>
<path clip-path="url(#clip882)" d="M1218.66 110.236 L1218.66 1042.58 L1241.21 1042.58 L1241.21 110.236 L1218.66 110.236 L1218.66 110.236  Z" fill="#009af9" fill-rule="evenodd" fill-opacity="0.5"/>
<polyline clip-path="url(#clip882)" style="stroke:#000000; stroke-linecap:round; stroke-linejoin:round; stroke-width:4; stroke-opacity:0.5; fill:none" points="1218.66,110.236 1218.66,1042.58 1241.21,1042.58 1241.21,110.236 1218.66,110.236 "/>
<path clip-path="url(#clip882)" d="M1246.84 151.674 L1246.84 1042.58 L1269.38 1042.58 L1269.38 151.674 L1246.84 151.674 L1246.84 151.674  Z" fill="#009af9" fill-rule="evenodd" fill-opacity="0.5"/>
<polyline clip-path="url(#clip882)" style="stroke:#000000; stroke-linecap:round; stroke-linejoin:round; stroke-width:4; stroke-opacity:0.5; fill:none" points="1246.84,151.674 1246.84,1042.58 1269.38,1042.58 1269.38,151.674 1246.84,151.674 "/>
<path clip-path="url(#clip882)" d="M1275.02 159.875 L1275.02 1042.58 L1297.56 1042.58 L1297.56 159.875 L1275.02 159.875 L1275.02 159.875  Z" fill="#009af9" fill-rule="evenodd" fill-opacity="0.5"/>
<polyline clip-path="url(#clip882)" style="stroke:#000000; stroke-linecap:round; stroke-linejoin:round; stroke-width:4; stroke-opacity:0.5; fill:none" points="1275.02,159.875 1275.02,1042.58 1297.56,1042.58 1297.56,159.875 1275.02,159.875 "/>
<path clip-path="url(#clip882)" d="M1303.2 191.648 L1303.2 1042.58 L1325.74 1042.58 L1325.74 191.648 L1303.2 191.648 L1303.2 191.648  Z" fill="#009af9" fill-rule="evenodd" fill-opacity="0.5"/>
<polyline clip-path="url(#clip882)" style="stroke:#000000; stroke-linecap:round; stroke-linejoin:round; stroke-width:4; stroke-opacity:0.5; fill:none" points="1303.2,191.648 1303.2,1042.58 1325.74,1042.58 1325.74,191.648 1303.2,191.648 "/>
<path clip-path="url(#clip882)" d="M1331.38 288.679 L1331.38 1042.58 L1353.92 1042.58 L1353.92 288.679 L1331.38 288.679 L1331.38 288.679  Z" fill="#009af9" fill-rule="evenodd" fill-opacity="0.5"/>
<polyline clip-path="url(#clip882)" style="stroke:#000000; stroke-linecap:round; stroke-linejoin:round; stroke-width:4; stroke-opacity:0.5; fill:none" points="1331.38,288.679 1331.38,1042.58 1353.92,1042.58 1353.92,288.679 1331.38,288.679 "/>
<path clip-path="url(#clip882)" d="M1359.56 153.692 L1359.56 1042.58 L1382.1 1042.58 L1382.1 153.692 L1359.56 153.692 L1359.56 153.692  Z" fill="#009af9" fill-rule="evenodd" fill-opacity="0.5"/>
<polyline clip-path="url(#clip882)" style="stroke:#000000; stroke-linecap:round; stroke-linejoin:round; stroke-width:4; stroke-opacity:0.5; fill:none" points="1359.56,153.692 1359.56,1042.58 1382.1,1042.58 1382.1,153.692 1359.56,153.692 "/>
<path clip-path="url(#clip882)" d="M1387.74 223.733 L1387.74 1042.58 L1410.28 1042.58 L1410.28 223.733 L1387.74 223.733 L1387.74 223.733  Z" fill="#009af9" fill-rule="evenodd" fill-opacity="0.5"/>
<polyline clip-path="url(#clip882)" style="stroke:#000000; stroke-linecap:round; stroke-linejoin:round; stroke-width:4; stroke-opacity:0.5; fill:none" points="1387.74,223.733 1387.74,1042.58 1410.28,1042.58 1410.28,223.733 1387.74,223.733 "/>
<path clip-path="url(#clip882)" d="M1415.92 269.382 L1415.92 1042.58 L1438.46 1042.58 L1438.46 269.382 L1415.92 269.382 L1415.92 269.382  Z" fill="#009af9" fill-rule="evenodd" fill-opacity="0.5"/>
<polyline clip-path="url(#clip882)" style="stroke:#000000; stroke-linecap:round; stroke-linejoin:round; stroke-width:4; stroke-opacity:0.5; fill:none" points="1415.92,269.382 1415.92,1042.58 1438.46,1042.58 1438.46,269.382 1415.92,269.382 "/>
<path clip-path="url(#clip882)" d="M1444.1 209.717 L1444.1 1042.58 L1466.64 1042.58 L1466.64 209.717 L1444.1 209.717 L1444.1 209.717  Z" fill="#009af9" fill-rule="evenodd" fill-opacity="0.5"/>
<polyline clip-path="url(#clip882)" style="stroke:#000000; stroke-linecap:round; stroke-linejoin:round; stroke-width:4; stroke-opacity:0.5; fill:none" points="1444.1,209.717 1444.1,1042.58 1466.64,1042.58 1466.64,209.717 1444.1,209.717 "/>
<path clip-path="url(#clip882)" d="M1472.28 305.624 L1472.28 1042.58 L1494.82 1042.58 L1494.82 305.624 L1472.28 305.624 L1472.28 305.624  Z" fill="#009af9" fill-rule="evenodd" fill-opacity="0.5"/>
<polyline clip-path="url(#clip882)" style="stroke:#000000; stroke-linecap:round; stroke-linejoin:round; stroke-width:4; stroke-opacity:0.5; fill:none" points="1472.28,305.624 1472.28,1042.58 1494.82,1042.58 1494.82,305.624 1472.28,305.624 "/>
<path clip-path="url(#clip882)" d="M1500.45 408.078 L1500.45 1042.58 L1523 1042.58 L1523 408.078 L1500.45 408.078 L1500.45 408.078  Z" fill="#009af9" fill-rule="evenodd" fill-opacity="0.5"/>
<polyline clip-path="url(#clip882)" style="stroke:#000000; stroke-linecap:round; stroke-linejoin:round; stroke-width:4; stroke-opacity:0.5; fill:none" points="1500.45,408.078 1500.45,1042.58 1523,1042.58 1523,408.078 1500.45,408.078 "/>
<path clip-path="url(#clip882)" d="M1528.63 380.21 L1528.63 1042.58 L1551.18 1042.58 L1551.18 380.21 L1528.63 380.21 L1528.63 380.21  Z" fill="#009af9" fill-rule="evenodd" fill-opacity="0.5"/>
<polyline clip-path="url(#clip882)" style="stroke:#000000; stroke-linecap:round; stroke-linejoin:round; stroke-width:4; stroke-opacity:0.5; fill:none" points="1528.63,380.21 1528.63,1042.58 1551.18,1042.58 1551.18,380.21 1528.63,380.21 "/>
<path clip-path="url(#clip882)" d="M1556.81 229.635 L1556.81 1042.58 L1579.36 1042.58 L1579.36 229.635 L1556.81 229.635 L1556.81 229.635  Z" fill="#009af9" fill-rule="evenodd" fill-opacity="0.5"/>
<polyline clip-path="url(#clip882)" style="stroke:#000000; stroke-linecap:round; stroke-linejoin:round; stroke-width:4; stroke-opacity:0.5; fill:none" points="1556.81,229.635 1556.81,1042.58 1579.36,1042.58 1579.36,229.635 1556.81,229.635 "/>
<path clip-path="url(#clip882)" d="M1584.99 329.116 L1584.99 1042.58 L1607.54 1042.58 L1607.54 329.116 L1584.99 329.116 L1584.99 329.116  Z" fill="#009af9" fill-rule="evenodd" fill-opacity="0.5"/>
<polyline clip-path="url(#clip882)" style="stroke:#000000; stroke-linecap:round; stroke-linejoin:round; stroke-width:4; stroke-opacity:0.5; fill:none" points="1584.99,329.116 1584.99,1042.58 1607.54,1042.58 1607.54,329.116 1584.99,329.116 "/>
<path clip-path="url(#clip882)" d="M1613.17 296.967 L1613.17 1042.58 L1635.71 1042.58 L1635.71 296.967 L1613.17 296.967 L1613.17 296.967  Z" fill="#009af9" fill-rule="evenodd" fill-opacity="0.5"/>
<polyline clip-path="url(#clip882)" style="stroke:#000000; stroke-linecap:round; stroke-linejoin:round; stroke-width:4; stroke-opacity:0.5; fill:none" points="1613.17,296.967 1613.17,1042.58 1635.71,1042.58 1635.71,296.967 1613.17,296.967 "/>
<path clip-path="url(#clip882)" d="M1641.35 367.641 L1641.35 1042.58 L1663.89 1042.58 L1663.89 367.641 L1641.35 367.641 L1641.35 367.641  Z" fill="#009af9" fill-rule="evenodd" fill-opacity="0.5"/>
<polyline clip-path="url(#clip882)" style="stroke:#000000; stroke-linecap:round; stroke-linejoin:round; stroke-width:4; stroke-opacity:0.5; fill:none" points="1641.35,367.641 1641.35,1042.58 1663.89,1042.58 1663.89,367.641 1641.35,367.641 "/>
<path clip-path="url(#clip882)" d="M1669.53 367.641 L1669.53 1042.58 L1692.07 1042.58 L1692.07 367.641 L1669.53 367.641 L1669.53 367.641  Z" fill="#009af9" fill-rule="evenodd" fill-opacity="0.5"/>
<polyline clip-path="url(#clip882)" style="stroke:#000000; stroke-linecap:round; stroke-linejoin:round; stroke-width:4; stroke-opacity:0.5; fill:none" points="1669.53,367.641 1669.53,1042.58 1692.07,1042.58 1692.07,367.641 1669.53,367.641 "/>
<path clip-path="url(#clip882)" d="M1697.71 490.822 L1697.71 1042.58 L1720.25 1042.58 L1720.25 490.822 L1697.71 490.822 L1697.71 490.822  Z" fill="#009af9" fill-rule="evenodd" fill-opacity="0.5"/>
<polyline clip-path="url(#clip882)" style="stroke:#000000; stroke-linecap:round; stroke-linejoin:round; stroke-width:4; stroke-opacity:0.5; fill:none" points="1697.71,490.822 1697.71,1042.58 1720.25,1042.58 1720.25,490.822 1697.71,490.822 "/>
<path clip-path="url(#clip882)" d="M1725.89 469.161 L1725.89 1042.58 L1748.43 1042.58 L1748.43 469.161 L1725.89 469.161 L1725.89 469.161  Z" fill="#009af9" fill-rule="evenodd" fill-opacity="0.5"/>
<polyline clip-path="url(#clip882)" style="stroke:#000000; stroke-linecap:round; stroke-linejoin:round; stroke-width:4; stroke-opacity:0.5; fill:none" points="1725.89,469.161 1725.89,1042.58 1748.43,1042.58 1748.43,469.161 1725.89,469.161 "/>
<path clip-path="url(#clip882)" d="M1754.07 490.822 L1754.07 1042.58 L1776.61 1042.58 L1776.61 490.822 L1754.07 490.822 L1754.07 490.822  Z" fill="#009af9" fill-rule="evenodd" fill-opacity="0.5"/>
<polyline clip-path="url(#clip882)" style="stroke:#000000; stroke-linecap:round; stroke-linejoin:round; stroke-width:4; stroke-opacity:0.5; fill:none" points="1754.07,490.822 1754.07,1042.58 1776.61,1042.58 1776.61,490.822 1754.07,490.822 "/>
<path clip-path="url(#clip882)" d="M1782.25 334.174 L1782.25 1042.58 L1804.79 1042.58 L1804.79 334.174 L1782.25 334.174 L1782.25 334.174  Z" fill="#009af9" fill-rule="evenodd" fill-opacity="0.5"/>
<polyline clip-path="url(#clip882)" style="stroke:#000000; stroke-linecap:round; stroke-linejoin:round; stroke-width:4; stroke-opacity:0.5; fill:none" points="1782.25,334.174 1782.25,1042.58 1804.79,1042.58 1804.79,334.174 1782.25,334.174 "/>
<path clip-path="url(#clip882)" d="M1810.43 415.716 L1810.43 1042.58 L1832.97 1042.58 L1832.97 415.716 L1810.43 415.716 L1810.43 415.716  Z" fill="#009af9" fill-rule="evenodd" fill-opacity="0.5"/>
<polyline clip-path="url(#clip882)" style="stroke:#000000; stroke-linecap:round; stroke-linejoin:round; stroke-width:4; stroke-opacity:0.5; fill:none" points="1810.43,415.716 1810.43,1042.58 1832.97,1042.58 1832.97,415.716 1810.43,415.716 "/>
<path clip-path="url(#clip882)" d="M1838.61 373.824 L1838.61 1042.58 L1861.15 1042.58 L1861.15 373.824 L1838.61 373.824 L1838.61 373.824  Z" fill="#009af9" fill-rule="evenodd" fill-opacity="0.5"/>
<polyline clip-path="url(#clip882)" style="stroke:#000000; stroke-linecap:round; stroke-linejoin:round; stroke-width:4; stroke-opacity:0.5; fill:none" points="1838.61,373.824 1838.61,1042.58 1861.15,1042.58 1861.15,373.824 1838.61,373.824 "/>
<path clip-path="url(#clip882)" d="M1866.78 459.172 L1866.78 1042.58 L1889.33 1042.58 L1889.33 459.172 L1866.78 459.172 L1866.78 459.172  Z" fill="#009af9" fill-rule="evenodd" fill-opacity="0.5"/>
<polyline clip-path="url(#clip882)" style="stroke:#000000; stroke-linecap:round; stroke-linejoin:round; stroke-width:4; stroke-opacity:0.5; fill:none" points="1866.78,459.172 1866.78,1042.58 1889.33,1042.58 1889.33,459.172 1866.78,459.172 "/>
<path clip-path="url(#clip882)" d="M1894.96 528.633 L1894.96 1042.58 L1917.51 1042.58 L1917.51 528.633 L1894.96 528.633 L1894.96 528.633  Z" fill="#009af9" fill-rule="evenodd" fill-opacity="0.5"/>
<polyline clip-path="url(#clip882)" style="stroke:#000000; stroke-linecap:round; stroke-linejoin:round; stroke-width:4; stroke-opacity:0.5; fill:none" points="1894.96,528.633 1894.96,1042.58 1917.51,1042.58 1917.51,528.633 1894.96,528.633 "/>
<path clip-path="url(#clip882)" d="M1923.14 594.159 L1923.14 1042.58 L1945.69 1042.58 L1945.69 594.159 L1923.14 594.159 L1923.14 594.159  Z" fill="#009af9" fill-rule="evenodd" fill-opacity="0.5"/>
<polyline clip-path="url(#clip882)" style="stroke:#000000; stroke-linecap:round; stroke-linejoin:round; stroke-width:4; stroke-opacity:0.5; fill:none" points="1923.14,594.159 1923.14,1042.58 1945.69,1042.58 1945.69,594.159 1923.14,594.159 "/>
<path clip-path="url(#clip882)" d="M1951.32 459.172 L1951.32 1042.58 L1973.87 1042.58 L1973.87 459.172 L1951.32 459.172 L1951.32 459.172  Z" fill="#009af9" fill-rule="evenodd" fill-opacity="0.5"/>
<polyline clip-path="url(#clip882)" style="stroke:#000000; stroke-linecap:round; stroke-linejoin:round; stroke-width:4; stroke-opacity:0.5; fill:none" points="1951.32,459.172 1951.32,1042.58 1973.87,1042.58 1973.87,459.172 1951.32,459.172 "/>
<path clip-path="url(#clip882)" d="M1979.5 373.824 L1979.5 1042.58 L2002.04 1042.58 L2002.04 373.824 L1979.5 373.824 L1979.5 373.824  Z" fill="#009af9" fill-rule="evenodd" fill-opacity="0.5"/>
<polyline clip-path="url(#clip882)" style="stroke:#000000; stroke-linecap:round; stroke-linejoin:round; stroke-width:4; stroke-opacity:0.5; fill:none" points="1979.5,373.824 1979.5,1042.58 2002.04,1042.58 2002.04,373.824 1979.5,373.824 "/>
<path clip-path="url(#clip882)" d="M2007.68 528.633 L2007.68 1042.58 L2030.22 1042.58 L2030.22 528.633 L2007.68 528.633 L2007.68 528.633  Z" fill="#009af9" fill-rule="evenodd" fill-opacity="0.5"/>
<polyline clip-path="url(#clip882)" style="stroke:#000000; stroke-linecap:round; stroke-linejoin:round; stroke-width:4; stroke-opacity:0.5; fill:none" points="2007.68,528.633 2007.68,1042.58 2030.22,1042.58 2030.22,528.633 2007.68,528.633 "/>
<path clip-path="url(#clip882)" d="M2035.86 479.691 L2035.86 1042.58 L2058.4 1042.58 L2058.4 479.691 L2035.86 479.691 L2035.86 479.691  Z" fill="#009af9" fill-rule="evenodd" fill-opacity="0.5"/>
<polyline clip-path="url(#clip882)" style="stroke:#000000; stroke-linecap:round; stroke-linejoin:round; stroke-width:4; stroke-opacity:0.5; fill:none" points="2035.86,479.691 2035.86,1042.58 2058.4,1042.58 2058.4,479.691 2035.86,479.691 "/>
<path clip-path="url(#clip882)" d="M2064.04 415.716 L2064.04 1042.58 L2086.58 1042.58 L2086.58 415.716 L2064.04 415.716 L2064.04 415.716  Z" fill="#009af9" fill-rule="evenodd" fill-opacity="0.5"/>
<polyline clip-path="url(#clip882)" style="stroke:#000000; stroke-linecap:round; stroke-linejoin:round; stroke-width:4; stroke-opacity:0.5; fill:none" points="2064.04,415.716 2064.04,1042.58 2086.58,1042.58 2086.58,415.716 2064.04,415.716 "/>
<path clip-path="url(#clip882)" d="M2092.22 528.633 L2092.22 1042.58 L2114.76 1042.58 L2114.76 528.633 L2092.22 528.633 L2092.22 528.633  Z" fill="#009af9" fill-rule="evenodd" fill-opacity="0.5"/>
<polyline clip-path="url(#clip882)" style="stroke:#000000; stroke-linecap:round; stroke-linejoin:round; stroke-width:4; stroke-opacity:0.5; fill:none" points="2092.22,528.633 2092.22,1042.58 2114.76,1042.58 2114.76,528.633 2092.22,528.633 "/>
<path clip-path="url(#clip882)" d="M2120.4 528.633 L2120.4 1042.58 L2142.94 1042.58 L2142.94 528.633 L2120.4 528.633 L2120.4 528.633  Z" fill="#009af9" fill-rule="evenodd" fill-opacity="0.5"/>
<polyline clip-path="url(#clip882)" style="stroke:#000000; stroke-linecap:round; stroke-linejoin:round; stroke-width:4; stroke-opacity:0.5; fill:none" points="2120.4,528.633 2120.4,1042.58 2142.94,1042.58 2142.94,528.633 2120.4,528.633 "/>
<path clip-path="url(#clip882)" d="M2148.58 408.078 L2148.58 1042.58 L2171.12 1042.58 L2171.12 408.078 L2148.58 408.078 L2148.58 408.078  Z" fill="#009af9" fill-rule="evenodd" fill-opacity="0.5"/>
<polyline clip-path="url(#clip882)" style="stroke:#000000; stroke-linecap:round; stroke-linejoin:round; stroke-width:4; stroke-opacity:0.5; fill:none" points="2148.58,408.078 2148.58,1042.58 2171.12,1042.58 2171.12,408.078 2148.58,408.078 "/>
<path clip-path="url(#clip882)" d="M2176.76 408.078 L2176.76 1042.58 L2199.3 1042.58 L2199.3 408.078 L2176.76 408.078 L2176.76 408.078  Z" fill="#009af9" fill-rule="evenodd" fill-opacity="0.5"/>
<polyline clip-path="url(#clip882)" style="stroke:#000000; stroke-linecap:round; stroke-linejoin:round; stroke-width:4; stroke-opacity:0.5; fill:none" points="2176.76,408.078 2176.76,1042.58 2199.3,1042.58 2199.3,408.078 2176.76,408.078 "/>
<path clip-path="url(#clip882)" d="M2204.94 543.065 L2204.94 1042.58 L2227.48 1042.58 L2227.48 543.065 L2204.94 543.065 L2204.94 543.065  Z" fill="#009af9" fill-rule="evenodd" fill-opacity="0.5"/>
<polyline clip-path="url(#clip882)" style="stroke:#000000; stroke-linecap:round; stroke-linejoin:round; stroke-width:4; stroke-opacity:0.5; fill:none" points="2204.94,543.065 2204.94,1042.58 2227.48,1042.58 2227.48,543.065 2204.94,543.065 "/>
<path clip-path="url(#clip882)" d="M2233.11 614.678 L2233.11 1042.58 L2255.66 1042.58 L2255.66 614.678 L2233.11 614.678 L2233.11 614.678  Z" fill="#009af9" fill-rule="evenodd" fill-opacity="0.5"/>
<polyline clip-path="url(#clip882)" style="stroke:#000000; stroke-linecap:round; stroke-linejoin:round; stroke-width:4; stroke-opacity:0.5; fill:none" points="2233.11,614.678 2233.11,1042.58 2255.66,1042.58 2255.66,614.678 2233.11,614.678 "/>
<path clip-path="url(#clip882)" d="M2261.29 614.678 L2261.29 1042.58 L2283.84 1042.58 L2283.84 614.678 L2261.29 614.678 L2261.29 614.678  Z" fill="#009af9" fill-rule="evenodd" fill-opacity="0.5"/>
<polyline clip-path="url(#clip882)" style="stroke:#000000; stroke-linecap:round; stroke-linejoin:round; stroke-width:4; stroke-opacity:0.5; fill:none" points="2261.29,614.678 2261.29,1042.58 2283.84,1042.58 2283.84,614.678 2261.29,614.678 "/>
<path clip-path="url(#clip882)" d="M2289.47 490.822 L2289.47 1042.58 L2312.02 1042.58 L2312.02 490.822 L2289.47 490.822 L2289.47 490.822  Z" fill="#009af9" fill-rule="evenodd" fill-opacity="0.5"/>
<polyline clip-path="url(#clip882)" style="stroke:#000000; stroke-linecap:round; stroke-linejoin:round; stroke-width:4; stroke-opacity:0.5; fill:none" points="2289.47,490.822 2289.47,1042.58 2312.02,1042.58 2312.02,490.822 2289.47,490.822 "/>
<path clip-path="url(#clip882)" d="M2317.65 543.065 L2317.65 1042.58 L2340.2 1042.58 L2340.2 543.065 L2317.65 543.065 L2317.65 543.065  Z" fill="#009af9" fill-rule="evenodd" fill-opacity="0.5"/>
<polyline clip-path="url(#clip882)" style="stroke:#000000; stroke-linecap:round; stroke-linejoin:round; stroke-width:4; stroke-opacity:0.5; fill:none" points="2317.65,543.065 2317.65,1042.58 2340.2,1042.58 2340.2,543.065 2317.65,543.065 "/>
<path clip-path="url(#clip882)" d="M2345.83 528.633 L2345.83 1042.58 L2368.38 1042.58 L2368.38 528.633 L2345.83 528.633 L2345.83 528.633  Z" fill="#009af9" fill-rule="evenodd" fill-opacity="0.5"/>
<polyline clip-path="url(#clip882)" style="stroke:#000000; stroke-linecap:round; stroke-linejoin:round; stroke-width:4; stroke-opacity:0.5; fill:none" points="2345.83,528.633 2345.83,1042.58 2368.38,1042.58 2368.38,528.633 2345.83,528.633 "/>
<path clip-path="url(#clip882)" d="M2374.01 431.954 L2374.01 1042.58 L2396.55 1042.58 L2396.55 431.954 L2374.01 431.954 L2374.01 431.954  Z" fill="#009af9" fill-rule="evenodd" fill-opacity="0.5"/>
<polyline clip-path="url(#clip882)" style="stroke:#000000; stroke-linecap:round; stroke-linejoin:round; stroke-width:4; stroke-opacity:0.5; fill:none" points="2374.01,431.954 2374.01,1042.58 2396.55,1042.58 2396.55,431.954 2374.01,431.954 "/>
<path clip-path="url(#clip882)" d="M2402.19 459.172 L2402.19 1042.58 L2424.73 1042.58 L2424.73 459.172 L2402.19 459.172 L2402.19 459.172  Z" fill="#009af9" fill-rule="evenodd" fill-opacity="0.5"/>
<polyline clip-path="url(#clip882)" style="stroke:#000000; stroke-linecap:round; stroke-linejoin:round; stroke-width:4; stroke-opacity:0.5; fill:none" points="2402.19,459.172 2402.19,1042.58 2424.73,1042.58 2424.73,459.172 2402.19,459.172 "/>
<path clip-path="url(#clip882)" d="M2430.37 614.678 L2430.37 1042.58 L2452.91 1042.58 L2452.91 614.678 L2430.37 614.678 L2430.37 614.678  Z" fill="#009af9" fill-rule="evenodd" fill-opacity="0.5"/>
<polyline clip-path="url(#clip882)" style="stroke:#000000; stroke-linecap:round; stroke-linejoin:round; stroke-width:4; stroke-opacity:0.5; fill:none" points="2430.37,614.678 2430.37,1042.58 2452.91,1042.58 2452.91,614.678 2430.37,614.678 "/>
<path clip-path="url(#clip882)" d="M2458.55 515.197 L2458.55 1042.58 L2481.09 1042.58 L2481.09 515.197 L2458.55 515.197 L2458.55 515.197  Z" fill="#009af9" fill-rule="evenodd" fill-opacity="0.5"/>
<polyline clip-path="url(#clip882)" style="stroke:#000000; stroke-linecap:round; stroke-linejoin:round; stroke-width:4; stroke-opacity:0.5; fill:none" points="2458.55,515.197 2458.55,1042.58 2481.09,1042.58 2481.09,515.197 2458.55,515.197 "/>
<path clip-path="url(#clip882)" d="M2486.73 502.628 L2486.73 1042.58 L2509.27 1042.58 L2509.27 502.628 L2486.73 502.628 L2486.73 502.628  Z" fill="#009af9" fill-rule="evenodd" fill-opacity="0.5"/>
<polyline clip-path="url(#clip882)" style="stroke:#000000; stroke-linecap:round; stroke-linejoin:round; stroke-width:4; stroke-opacity:0.5; fill:none" points="2486.73,502.628 2486.73,1042.58 2509.27,1042.58 2509.27,502.628 2486.73,502.628 "/>
<path clip-path="url(#clip882)" d="M2514.91 594.159 L2514.91 1042.58 L2537.45 1042.58 L2537.45 594.159 L2514.91 594.159 L2514.91 594.159  Z" fill="#009af9" fill-rule="evenodd" fill-opacity="0.5"/>
<polyline clip-path="url(#clip882)" style="stroke:#000000; stroke-linecap:round; stroke-linejoin:round; stroke-width:4; stroke-opacity:0.5; fill:none" points="2514.91,594.159 2514.91,1042.58 2537.45,1042.58 2537.45,594.159 2514.91,594.159 "/>
<path clip-path="url(#clip882)" d="M2543.09 502.628 L2543.09 1042.58 L2565.63 1042.58 L2565.63 502.628 L2543.09 502.628 L2543.09 502.628  Z" fill="#009af9" fill-rule="evenodd" fill-opacity="0.5"/>
<polyline clip-path="url(#clip882)" style="stroke:#000000; stroke-linecap:round; stroke-linejoin:round; stroke-width:4; stroke-opacity:0.5; fill:none" points="2543.09,502.628 2543.09,1042.58 2565.63,1042.58 2565.63,502.628 2543.09,502.628 "/>
<path clip-path="url(#clip882)" d="M2571.27 614.678 L2571.27 1042.58 L2593.81 1042.58 L2593.81 614.678 L2571.27 614.678 L2571.27 614.678  Z" fill="#009af9" fill-rule="evenodd" fill-opacity="0.5"/>
<polyline clip-path="url(#clip882)" style="stroke:#000000; stroke-linecap:round; stroke-linejoin:round; stroke-width:4; stroke-opacity:0.5; fill:none" points="2571.27,614.678 2571.27,1042.58 2593.81,1042.58 2593.81,614.678 2571.27,614.678 "/>
<path clip-path="url(#clip882)" d="M2599.44 637.615 L2599.44 1042.58 L2621.99 1042.58 L2621.99 637.615 L2599.44 637.615 L2599.44 637.615  Z" fill="#009af9" fill-rule="evenodd" fill-opacity="0.5"/>
<polyline clip-path="url(#clip882)" style="stroke:#000000; stroke-linecap:round; stroke-linejoin:round; stroke-width:4; stroke-opacity:0.5; fill:none" points="2599.44,637.615 2599.44,1042.58 2621.99,1042.58 2621.99,637.615 2599.44,637.615 "/>
<path clip-path="url(#clip882)" d="M2627.62 663.62 L2627.62 1042.58 L2650.17 1042.58 L2650.17 663.62 L2627.62 663.62 L2627.62 663.62  Z" fill="#009af9" fill-rule="evenodd" fill-opacity="0.5"/>
<polyline clip-path="url(#clip882)" style="stroke:#000000; stroke-linecap:round; stroke-linejoin:round; stroke-width:4; stroke-opacity:0.5; fill:none" points="2627.62,663.62 2627.62,1042.58 2650.17,1042.58 2650.17,663.62 2627.62,663.62 "/>
<path clip-path="url(#clip882)" d="M2655.8 663.62 L2655.8 1042.58 L2678.35 1042.58 L2678.35 663.62 L2655.8 663.62 L2655.8 663.62  Z" fill="#009af9" fill-rule="evenodd" fill-opacity="0.5"/>
<polyline clip-path="url(#clip882)" style="stroke:#000000; stroke-linecap:round; stroke-linejoin:round; stroke-width:4; stroke-opacity:0.5; fill:none" points="2655.8,663.62 2655.8,1042.58 2678.35,1042.58 2678.35,663.62 2655.8,663.62 "/>
<path clip-path="url(#clip882)" d="M2683.98 663.62 L2683.98 1042.58 L2706.53 1042.58 L2706.53 663.62 L2683.98 663.62 L2683.98 663.62  Z" fill="#009af9" fill-rule="evenodd" fill-opacity="0.5"/>
<polyline clip-path="url(#clip882)" style="stroke:#000000; stroke-linecap:round; stroke-linejoin:round; stroke-width:4; stroke-opacity:0.5; fill:none" points="2683.98,663.62 2683.98,1042.58 2706.53,1042.58 2706.53,663.62 2683.98,663.62 "/>
<path clip-path="url(#clip882)" d="M2712.16 828.627 L2712.16 1042.58 L2734.71 1042.58 L2734.71 828.627 L2712.16 828.627 L2712.16 828.627  Z" fill="#009af9" fill-rule="evenodd" fill-opacity="0.5"/>
<polyline clip-path="url(#clip882)" style="stroke:#000000; stroke-linecap:round; stroke-linejoin:round; stroke-width:4; stroke-opacity:0.5; fill:none" points="2712.16,828.627 2712.16,1042.58 2734.71,1042.58 2734.71,828.627 2712.16,828.627 "/>
<path clip-path="url(#clip882)" d="M2740.34 663.62 L2740.34 1042.58 L2762.88 1042.58 L2762.88 663.62 L2740.34 663.62 L2740.34 663.62  Z" fill="#009af9" fill-rule="evenodd" fill-opacity="0.5"/>
<polyline clip-path="url(#clip882)" style="stroke:#000000; stroke-linecap:round; stroke-linejoin:round; stroke-width:4; stroke-opacity:0.5; fill:none" points="2740.34,663.62 2740.34,1042.58 2762.88,1042.58 2762.88,663.62 2740.34,663.62 "/>
<path clip-path="url(#clip882)" d="M2768.52 1042.58 L2768.52 1042.58 L2791.06 1042.58 L2791.06 1042.58 L2768.52 1042.58 L2768.52 1042.58  Z" fill="#009af9" fill-rule="evenodd" fill-opacity="0.5"/>
<polyline clip-path="url(#clip882)" style="stroke:#000000; stroke-linecap:round; stroke-linejoin:round; stroke-width:4; stroke-opacity:0.5; fill:none" points="2768.52,1042.58 2768.52,1042.58 2791.06,1042.58 2768.52,1042.58 "/>
<circle clip-path="url(#clip882)" style="fill:#009af9; stroke:none; fill-opacity:0" cx="300.018" cy="226.662" r="2"/>
<circle clip-path="url(#clip882)" style="fill:#009af9; stroke:none; fill-opacity:0" cx="328.198" cy="329.116" r="2"/>
<circle clip-path="url(#clip882)" style="fill:#009af9; stroke:none; fill-opacity:0" cx="356.377" cy="292.779" r="2"/>
<circle clip-path="url(#clip882)" style="fill:#009af9; stroke:none; fill-opacity:0" cx="384.556" cy="212.441" r="2"/>
<circle clip-path="url(#clip882)" style="fill:#009af9; stroke:none; fill-opacity:0" cx="412.735" cy="255.212" r="2"/>
<circle clip-path="url(#clip882)" style="fill:#009af9; stroke:none; fill-opacity:0" cx="440.915" cy="248.496" r="2"/>
<circle clip-path="url(#clip882)" style="fill:#009af9; stroke:none; fill-opacity:0" cx="469.094" cy="292.779" r="2"/>
<circle clip-path="url(#clip882)" style="fill:#009af9; stroke:none; fill-opacity:0" cx="497.273" cy="296.967" r="2"/>
<circle clip-path="url(#clip882)" style="fill:#009af9; stroke:none; fill-opacity:0" cx="525.452" cy="408.078" r="2"/>
<circle clip-path="url(#clip882)" style="fill:#009af9; stroke:none; fill-opacity:0" cx="553.632" cy="373.824" r="2"/>
<circle clip-path="url(#clip882)" style="fill:#009af9; stroke:none; fill-opacity:0" cx="581.811" cy="380.21" r="2"/>
<circle clip-path="url(#clip882)" style="fill:#009af9; stroke:none; fill-opacity:0" cx="609.99" cy="196.642" r="2"/>
<circle clip-path="url(#clip882)" style="fill:#009af9; stroke:none; fill-opacity:0" cx="638.169" cy="235.721" r="2"/>
<circle clip-path="url(#clip882)" style="fill:#009af9; stroke:none; fill-opacity:0" cx="666.349" cy="184.39" r="2"/>
<circle clip-path="url(#clip882)" style="fill:#009af9; stroke:none; fill-opacity:0" cx="694.528" cy="201.767" r="2"/>
<circle clip-path="url(#clip882)" style="fill:#009af9; stroke:none; fill-opacity:0" cx="722.707" cy="284.664" r="2"/>
<circle clip-path="url(#clip882)" style="fill:#009af9; stroke:none; fill-opacity:0" cx="750.886" cy="220.848" r="2"/>
<circle clip-path="url(#clip882)" style="fill:#009af9; stroke:none; fill-opacity:0" cx="779.066" cy="157.792" r="2"/>
<circle clip-path="url(#clip882)" style="fill:#009af9; stroke:none; fill-opacity:0" cx="807.245" cy="194.129" r="2"/>
<circle clip-path="url(#clip882)" style="fill:#009af9; stroke:none; fill-opacity:0" cx="835.424" cy="179.697" r="2"/>
<circle clip-path="url(#clip882)" style="fill:#009af9; stroke:none; fill-opacity:0" cx="863.603" cy="196.642" r="2"/>
<circle clip-path="url(#clip882)" style="fill:#009af9; stroke:none; fill-opacity:0" cx="891.783" cy="223.733" r="2"/>
<circle clip-path="url(#clip882)" style="fill:#009af9; stroke:none; fill-opacity:0" cx="919.962" cy="314.684" r="2"/>
<circle clip-path="url(#clip882)" style="fill:#009af9; stroke:none; fill-opacity:0" cx="948.141" cy="251.825" r="2"/>
<circle clip-path="url(#clip882)" style="fill:#009af9; stroke:none; fill-opacity:0" cx="976.32" cy="164.109" r="2"/>
<circle clip-path="url(#clip882)" style="fill:#009af9; stroke:none; fill-opacity:0" cx="1004.5" cy="218.005" r="2"/>
<circle clip-path="url(#clip882)" style="fill:#009af9; stroke:none; fill-opacity:0" cx="1032.68" cy="242.004" r="2"/>
<circle clip-path="url(#clip882)" style="fill:#009af9; stroke:none; fill-opacity:0" cx="1060.86" cy="189.198" r="2"/>
<circle clip-path="url(#clip882)" style="fill:#009af9; stroke:none; fill-opacity:0" cx="1089.04" cy="164.109" r="2"/>
<circle clip-path="url(#clip882)" style="fill:#009af9; stroke:none; fill-opacity:0" cx="1117.22" cy="238.837" r="2"/>
<circle clip-path="url(#clip882)" style="fill:#009af9; stroke:none; fill-opacity:0" cx="1145.4" cy="212.441" r="2"/>
<circle clip-path="url(#clip882)" style="fill:#009af9; stroke:none; fill-opacity:0" cx="1173.58" cy="116.838" r="2"/>
<circle clip-path="url(#clip882)" style="fill:#009af9; stroke:none; fill-opacity:0" cx="1201.75" cy="132.566" r="2"/>
<circle clip-path="url(#clip882)" style="fill:#009af9; stroke:none; fill-opacity:0" cx="1229.93" cy="110.236" r="2"/>
<circle clip-path="url(#clip882)" style="fill:#009af9; stroke:none; fill-opacity:0" cx="1258.11" cy="151.674" r="2"/>
<circle clip-path="url(#clip882)" style="fill:#009af9; stroke:none; fill-opacity:0" cx="1286.29" cy="159.875" r="2"/>
<circle clip-path="url(#clip882)" style="fill:#009af9; stroke:none; fill-opacity:0" cx="1314.47" cy="191.648" r="2"/>
<circle clip-path="url(#clip882)" style="fill:#009af9; stroke:none; fill-opacity:0" cx="1342.65" cy="288.679" r="2"/>
<circle clip-path="url(#clip882)" style="fill:#009af9; stroke:none; fill-opacity:0" cx="1370.83" cy="153.692" r="2"/>
<circle clip-path="url(#clip882)" style="fill:#009af9; stroke:none; fill-opacity:0" cx="1399.01" cy="223.733" r="2"/>
<circle clip-path="url(#clip882)" style="fill:#009af9; stroke:none; fill-opacity:0" cx="1427.19" cy="269.382" r="2"/>
<circle clip-path="url(#clip882)" style="fill:#009af9; stroke:none; fill-opacity:0" cx="1455.37" cy="209.717" r="2"/>
<circle clip-path="url(#clip882)" style="fill:#009af9; stroke:none; fill-opacity:0" cx="1483.55" cy="305.624" r="2"/>
<circle clip-path="url(#clip882)" style="fill:#009af9; stroke:none; fill-opacity:0" cx="1511.73" cy="408.078" r="2"/>
<circle clip-path="url(#clip882)" style="fill:#009af9; stroke:none; fill-opacity:0" cx="1539.91" cy="380.21" r="2"/>
<circle clip-path="url(#clip882)" style="fill:#009af9; stroke:none; fill-opacity:0" cx="1568.08" cy="229.635" r="2"/>
<circle clip-path="url(#clip882)" style="fill:#009af9; stroke:none; fill-opacity:0" cx="1596.26" cy="329.116" r="2"/>
<circle clip-path="url(#clip882)" style="fill:#009af9; stroke:none; fill-opacity:0" cx="1624.44" cy="296.967" r="2"/>
<circle clip-path="url(#clip882)" style="fill:#009af9; stroke:none; fill-opacity:0" cx="1652.62" cy="367.641" r="2"/>
<circle clip-path="url(#clip882)" style="fill:#009af9; stroke:none; fill-opacity:0" cx="1680.8" cy="367.641" r="2"/>
<circle clip-path="url(#clip882)" style="fill:#009af9; stroke:none; fill-opacity:0" cx="1708.98" cy="490.822" r="2"/>
<circle clip-path="url(#clip882)" style="fill:#009af9; stroke:none; fill-opacity:0" cx="1737.16" cy="469.161" r="2"/>
<circle clip-path="url(#clip882)" style="fill:#009af9; stroke:none; fill-opacity:0" cx="1765.34" cy="490.822" r="2"/>
<circle clip-path="url(#clip882)" style="fill:#009af9; stroke:none; fill-opacity:0" cx="1793.52" cy="334.174" r="2"/>
<circle clip-path="url(#clip882)" style="fill:#009af9; stroke:none; fill-opacity:0" cx="1821.7" cy="415.716" r="2"/>
<circle clip-path="url(#clip882)" style="fill:#009af9; stroke:none; fill-opacity:0" cx="1849.88" cy="373.824" r="2"/>
<circle clip-path="url(#clip882)" style="fill:#009af9; stroke:none; fill-opacity:0" cx="1878.06" cy="459.172" r="2"/>
<circle clip-path="url(#clip882)" style="fill:#009af9; stroke:none; fill-opacity:0" cx="1906.24" cy="528.633" r="2"/>
<circle clip-path="url(#clip882)" style="fill:#009af9; stroke:none; fill-opacity:0" cx="1934.41" cy="594.159" r="2"/>
<circle clip-path="url(#clip882)" style="fill:#009af9; stroke:none; fill-opacity:0" cx="1962.59" cy="459.172" r="2"/>
<circle clip-path="url(#clip882)" style="fill:#009af9; stroke:none; fill-opacity:0" cx="1990.77" cy="373.824" r="2"/>
<circle clip-path="url(#clip882)" style="fill:#009af9; stroke:none; fill-opacity:0" cx="2018.95" cy="528.633" r="2"/>
<circle clip-path="url(#clip882)" style="fill:#009af9; stroke:none; fill-opacity:0" cx="2047.13" cy="479.691" r="2"/>
<circle clip-path="url(#clip882)" style="fill:#009af9; stroke:none; fill-opacity:0" cx="2075.31" cy="415.716" r="2"/>
<circle clip-path="url(#clip882)" style="fill:#009af9; stroke:none; fill-opacity:0" cx="2103.49" cy="528.633" r="2"/>
<circle clip-path="url(#clip882)" style="fill:#009af9; stroke:none; fill-opacity:0" cx="2131.67" cy="528.633" r="2"/>
<circle clip-path="url(#clip882)" style="fill:#009af9; stroke:none; fill-opacity:0" cx="2159.85" cy="408.078" r="2"/>
<circle clip-path="url(#clip882)" style="fill:#009af9; stroke:none; fill-opacity:0" cx="2188.03" cy="408.078" r="2"/>
<circle clip-path="url(#clip882)" style="fill:#009af9; stroke:none; fill-opacity:0" cx="2216.21" cy="543.065" r="2"/>
<circle clip-path="url(#clip882)" style="fill:#009af9; stroke:none; fill-opacity:0" cx="2244.39" cy="614.678" r="2"/>
<circle clip-path="url(#clip882)" style="fill:#009af9; stroke:none; fill-opacity:0" cx="2272.57" cy="614.678" r="2"/>
<circle clip-path="url(#clip882)" style="fill:#009af9; stroke:none; fill-opacity:0" cx="2300.74" cy="490.822" r="2"/>
<circle clip-path="url(#clip882)" style="fill:#009af9; stroke:none; fill-opacity:0" cx="2328.92" cy="543.065" r="2"/>
<circle clip-path="url(#clip882)" style="fill:#009af9; stroke:none; fill-opacity:0" cx="2357.1" cy="528.633" r="2"/>
<circle clip-path="url(#clip882)" style="fill:#009af9; stroke:none; fill-opacity:0" cx="2385.28" cy="431.954" r="2"/>
<circle clip-path="url(#clip882)" style="fill:#009af9; stroke:none; fill-opacity:0" cx="2413.46" cy="459.172" r="2"/>
<circle clip-path="url(#clip882)" style="fill:#009af9; stroke:none; fill-opacity:0" cx="2441.64" cy="614.678" r="2"/>
<circle clip-path="url(#clip882)" style="fill:#009af9; stroke:none; fill-opacity:0" cx="2469.82" cy="515.197" r="2"/>
<circle clip-path="url(#clip882)" style="fill:#009af9; stroke:none; fill-opacity:0" cx="2498" cy="502.628" r="2"/>
<circle clip-path="url(#clip882)" style="fill:#009af9; stroke:none; fill-opacity:0" cx="2526.18" cy="594.159" r="2"/>
<circle clip-path="url(#clip882)" style="fill:#009af9; stroke:none; fill-opacity:0" cx="2554.36" cy="502.628" r="2"/>
<circle clip-path="url(#clip882)" style="fill:#009af9; stroke:none; fill-opacity:0" cx="2582.54" cy="614.678" r="2"/>
<circle clip-path="url(#clip882)" style="fill:#009af9; stroke:none; fill-opacity:0" cx="2610.72" cy="637.615" r="2"/>
<circle clip-path="url(#clip882)" style="fill:#009af9; stroke:none; fill-opacity:0" cx="2638.9" cy="663.62" r="2"/>
<circle clip-path="url(#clip882)" style="fill:#009af9; stroke:none; fill-opacity:0" cx="2667.08" cy="663.62" r="2"/>
<circle clip-path="url(#clip882)" style="fill:#009af9; stroke:none; fill-opacity:0" cx="2695.25" cy="663.62" r="2"/>
<circle clip-path="url(#clip882)" style="fill:#009af9; stroke:none; fill-opacity:0" cx="2723.43" cy="828.627" r="2"/>
<circle clip-path="url(#clip882)" style="fill:#009af9; stroke:none; fill-opacity:0" cx="2751.61" cy="663.62" r="2"/>
<circle clip-path="url(#clip882)" style="fill:#009af9; stroke:none; fill-opacity:0" cx="2779.79" cy="1042.58" r="2"/>
</svg>
