<?xml version="1.0" encoding="utf-8"?>
<svg xmlns="http://www.w3.org/2000/svg" xmlns:xlink="http://www.w3.org/1999/xlink" width="800" height="300" viewBox="0 0 3200 1200">
<defs>
  <clipPath id="clip130">
    <rect x="0" y="0" width="3200" height="1200"/>
  </clipPath>
</defs>
<path clip-path="url(#clip130)" d="M0 1200 L3200 1200 L3200 0 L0 0  Z" fill="#ffffff" fill-rule="evenodd" fill-opacity="1"/>
<defs>
  <clipPath id="clip131">
    <rect x="640" y="0" width="2241" height="1200"/>
  </clipPath>
</defs>
<path clip-path="url(#clip130)" d="M271.839 1042.58 L3089.76 1042.58 L3089.76 110.236 L271.839 110.236  Z" fill="#ffffff" fill-rule="evenodd" fill-opacity="1"/>
<defs>
  <clipPath id="clip132">
    <rect x="271" y="110" width="2819" height="933"/>
  </clipPath>
</defs>
<polyline clip-path="url(#clip132)" style="stroke:#000000; stroke-linecap:round; stroke-linejoin:round; stroke-width:2; stroke-opacity:0.1; fill:none" points="863.603,1042.58 863.603,110.236 "/>
<polyline clip-path="url(#clip132)" style="stroke:#000000; stroke-linecap:round; stroke-linejoin:round; stroke-width:2; stroke-opacity:0.1; fill:none" points="1737.16,1042.58 1737.16,110.236 "/>
<polyline clip-path="url(#clip132)" style="stroke:#000000; stroke-linecap:round; stroke-linejoin:round; stroke-width:2; stroke-opacity:0.1; fill:none" points="2582.54,1042.58 2582.54,110.236 "/>
<polyline clip-path="url(#clip130)" style="stroke:#000000; stroke-linecap:round; stroke-linejoin:round; stroke-width:4; stroke-opacity:1; fill:none" points="271.839,1042.58 3089.76,1042.58 "/>
<polyline clip-path="url(#clip130)" style="stroke:#000000; stroke-linecap:round; stroke-linejoin:round; stroke-width:4; stroke-opacity:1; fill:none" points="863.603,1042.58 863.603,1023.68 "/>
<polyline clip-path="url(#clip130)" style="stroke:#000000; stroke-linecap:round; stroke-linejoin:round; stroke-width:4; stroke-opacity:1; fill:none" points="1737.16,1042.58 1737.16,1023.68 "/>
<polyline clip-path="url(#clip130)" style="stroke:#000000; stroke-linecap:round; stroke-linejoin:round; stroke-width:4; stroke-opacity:1; fill:none" points="2582.54,1042.58 2582.54,1023.68 "/>
<path clip-path="url(#clip130)" d="M735.398 1107.44 L751.717 1107.44 L751.717 1111.38 L729.773 1111.38 L729.773 1107.44 Q732.435 1104.69 737.018 1100.06 Q741.625 1095.4 742.805 1094.06 Q745.051 1091.54 745.93 1089.8 Q746.833 1088.04 746.833 1086.35 Q746.833 1083.6 744.889 1081.86 Q742.967 1080.13 739.866 1080.13 Q737.667 1080.13 735.213 1080.89 Q732.782 1081.65 730.005 1083.2 L730.005 1078.48 Q732.829 1077.35 735.282 1076.77 Q737.736 1076.19 739.773 1076.19 Q745.143 1076.19 748.338 1078.88 Q751.532 1081.56 751.532 1086.05 Q751.532 1088.18 750.722 1090.1 Q749.935 1092 747.829 1094.59 Q747.25 1095.26 744.148 1098.48 Q741.046 1101.68 735.398 1107.44 Z" fill="#000000" fill-rule="nonzero" fill-opacity="1" /><path clip-path="url(#clip130)" d="M771.532 1079.89 Q767.921 1079.89 766.092 1083.46 Q764.287 1087 764.287 1094.13 Q764.287 1101.24 766.092 1104.8 Q767.921 1108.34 771.532 1108.34 Q775.166 1108.34 776.972 1104.8 Q778.801 1101.24 778.801 1094.13 Q778.801 1087 776.972 1083.46 Q775.166 1079.89 771.532 1079.89 M771.532 1076.19 Q777.342 1076.19 780.398 1080.8 Q783.476 1085.38 783.476 1094.13 Q783.476 1102.86 780.398 1107.46 Q777.342 1112.05 771.532 1112.05 Q765.722 1112.05 762.643 1107.46 Q759.588 1102.86 759.588 1094.13 Q759.588 1085.38 762.643 1080.8 Q765.722 1076.19 771.532 1076.19 Z" fill="#000000" fill-rule="nonzero" fill-opacity="1" /><path clip-path="url(#clip130)" d="M795.722 1107.44 L812.041 1107.44 L812.041 1111.38 L790.097 1111.38 L790.097 1107.44 Q792.759 1104.69 797.342 1100.06 Q801.949 1095.4 803.129 1094.06 Q805.375 1091.54 806.254 1089.8 Q807.157 1088.04 807.157 1086.35 Q807.157 1083.6 805.212 1081.86 Q803.291 1080.13 800.189 1080.13 Q797.99 1080.13 795.537 1080.89 Q793.106 1081.65 790.328 1083.2 L790.328 1078.48 Q793.152 1077.35 795.606 1076.77 Q798.06 1076.19 800.097 1076.19 Q805.467 1076.19 808.662 1078.88 Q811.856 1081.56 811.856 1086.05 Q811.856 1088.18 811.046 1090.1 Q810.259 1092 808.152 1094.59 Q807.574 1095.26 804.472 1098.48 Q801.37 1101.68 795.722 1107.44 Z" fill="#000000" fill-rule="nonzero" fill-opacity="1" /><path clip-path="url(#clip130)" d="M834.703 1080.89 L822.898 1099.34 L834.703 1099.34 L834.703 1080.89 M833.476 1076.82 L839.356 1076.82 L839.356 1099.34 L844.286 1099.34 L844.286 1103.23 L839.356 1103.23 L839.356 1111.38 L834.703 1111.38 L834.703 1103.23 L819.101 1103.23 L819.101 1098.71 L833.476 1076.82 Z" fill="#000000" fill-rule="nonzero" fill-opacity="1" /><path clip-path="url(#clip130)" d="M849.263 1096.49 L861.74 1096.49 L861.74 1100.29 L849.263 1100.29 L849.263 1096.49 Z" fill="#000000" fill-rule="nonzero" fill-opacity="1" /><path clip-path="url(#clip130)" d="M879.124 1079.89 Q875.513 1079.89 873.684 1083.46 Q871.879 1087 871.879 1094.13 Q871.879 1101.24 873.684 1104.8 Q875.513 1108.34 879.124 1108.34 Q882.758 1108.34 884.564 1104.8 Q886.393 1101.24 886.393 1094.13 Q886.393 1087 884.564 1083.46 Q882.758 1079.89 879.124 1079.89 M879.124 1076.19 Q884.934 1076.19 887.99 1080.8 Q891.069 1085.38 891.069 1094.13 Q891.069 1102.86 887.99 1107.46 Q884.934 1112.05 879.124 1112.05 Q873.314 1112.05 870.235 1107.46 Q867.18 1102.86 867.18 1094.13 Q867.18 1085.38 870.235 1080.8 Q873.314 1076.19 879.124 1076.19 Z" fill="#000000" fill-rule="nonzero" fill-opacity="1" /><path clip-path="url(#clip130)" d="M909.286 1094.96 Q905.953 1094.96 904.031 1096.75 Q902.133 1098.53 902.133 1101.65 Q902.133 1104.78 904.031 1106.56 Q905.953 1108.34 909.286 1108.34 Q912.619 1108.34 914.541 1106.56 Q916.462 1104.76 916.462 1101.65 Q916.462 1098.53 914.541 1096.75 Q912.642 1094.96 909.286 1094.96 M904.61 1092.97 Q901.601 1092.23 899.911 1090.17 Q898.244 1088.11 898.244 1085.15 Q898.244 1081.01 901.184 1078.6 Q904.147 1076.19 909.286 1076.19 Q914.448 1076.19 917.388 1078.6 Q920.328 1081.01 920.328 1085.15 Q920.328 1088.11 918.638 1090.17 Q916.971 1092.23 913.985 1092.97 Q917.365 1093.76 919.24 1096.05 Q921.138 1098.34 921.138 1101.65 Q921.138 1106.68 918.059 1109.36 Q915.004 1112.05 909.286 1112.05 Q903.568 1112.05 900.49 1109.36 Q897.434 1106.68 897.434 1101.65 Q897.434 1098.34 899.332 1096.05 Q901.23 1093.76 904.61 1092.97 M902.897 1085.59 Q902.897 1088.27 904.564 1089.78 Q906.254 1091.28 909.286 1091.28 Q912.295 1091.28 913.985 1089.78 Q915.698 1088.27 915.698 1085.59 Q915.698 1082.9 913.985 1081.4 Q912.295 1079.89 909.286 1079.89 Q906.254 1079.89 904.564 1081.4 Q902.897 1082.9 902.897 1085.59 Z" fill="#000000" fill-rule="nonzero" fill-opacity="1" /><path clip-path="url(#clip130)" d="M926.693 1096.49 L939.17 1096.49 L939.17 1100.29 L926.693 1100.29 L926.693 1096.49 Z" fill="#000000" fill-rule="nonzero" fill-opacity="1" /><path clip-path="url(#clip130)" d="M956.554 1079.89 Q952.943 1079.89 951.114 1083.46 Q949.309 1087 949.309 1094.13 Q949.309 1101.24 951.114 1104.8 Q952.943 1108.34 956.554 1108.34 Q960.189 1108.34 961.994 1104.8 Q963.823 1101.24 963.823 1094.13 Q963.823 1087 961.994 1083.46 Q960.189 1079.89 956.554 1079.89 M956.554 1076.19 Q962.364 1076.19 965.42 1080.8 Q968.499 1085.38 968.499 1094.13 Q968.499 1102.86 965.42 1107.46 Q962.364 1112.05 956.554 1112.05 Q950.744 1112.05 947.665 1107.46 Q944.61 1102.86 944.61 1094.13 Q944.61 1085.38 947.665 1080.8 Q950.744 1076.19 956.554 1076.19 Z" fill="#000000" fill-rule="nonzero" fill-opacity="1" /><path clip-path="url(#clip130)" d="M977.526 1107.44 L985.165 1107.44 L985.165 1081.07 L976.855 1082.74 L976.855 1078.48 L985.119 1076.82 L989.795 1076.82 L989.795 1107.44 L997.434 1107.44 L997.434 1111.38 L977.526 1111.38 L977.526 1107.44 Z" fill="#000000" fill-rule="nonzero" fill-opacity="1" /><path clip-path="url(#clip130)" d="M1608.95 1107.44 L1625.27 1107.44 L1625.27 1111.38 L1603.33 1111.38 L1603.33 1107.44 Q1605.99 1104.69 1610.58 1100.06 Q1615.18 1095.4 1616.36 1094.06 Q1618.61 1091.54 1619.49 1089.8 Q1620.39 1088.04 1620.39 1086.35 Q1620.39 1083.6 1618.45 1081.86 Q1616.52 1080.13 1613.42 1080.13 Q1611.22 1080.13 1608.77 1080.89 Q1606.34 1081.65 1603.56 1083.2 L1603.56 1078.48 Q1606.39 1077.35 1608.84 1076.77 Q1611.29 1076.19 1613.33 1076.19 Q1618.7 1076.19 1621.89 1078.88 Q1625.09 1081.56 1625.09 1086.05 Q1625.09 1088.18 1624.28 1090.1 Q1623.49 1092 1621.39 1094.59 Q1620.81 1095.26 1617.7 1098.48 Q1614.6 1101.68 1608.95 1107.44 Z" fill="#000000" fill-rule="nonzero" fill-opacity="1" /><path clip-path="url(#clip130)" d="M1645.09 1079.89 Q1641.48 1079.89 1639.65 1083.46 Q1637.84 1087 1637.84 1094.13 Q1637.84 1101.24 1639.65 1104.8 Q1641.48 1108.34 1645.09 1108.34 Q1648.72 1108.34 1650.53 1104.8 Q1652.36 1101.24 1652.36 1094.13 Q1652.36 1087 1650.53 1083.46 Q1648.72 1079.89 1645.09 1079.89 M1645.09 1076.19 Q1650.9 1076.19 1653.95 1080.8 Q1657.03 1085.38 1657.03 1094.13 Q1657.03 1102.86 1653.95 1107.46 Q1650.9 1112.05 1645.09 1112.05 Q1639.28 1112.05 1636.2 1107.46 Q1633.14 1102.86 1633.14 1094.13 Q1633.14 1085.38 1636.2 1080.8 Q1639.28 1076.19 1645.09 1076.19 Z" fill="#000000" fill-rule="nonzero" fill-opacity="1" /><path clip-path="url(#clip130)" d="M1669.28 1107.44 L1685.6 1107.44 L1685.6 1111.38 L1663.65 1111.38 L1663.65 1107.44 Q1666.32 1104.69 1670.9 1100.06 Q1675.51 1095.4 1676.69 1094.06 Q1678.93 1091.54 1679.81 1089.8 Q1680.71 1088.04 1680.71 1086.35 Q1680.71 1083.6 1678.77 1081.86 Q1676.85 1080.13 1673.75 1080.13 Q1671.55 1080.13 1669.09 1080.89 Q1666.66 1081.65 1663.88 1083.2 L1663.88 1078.48 Q1666.71 1077.35 1669.16 1076.77 Q1671.62 1076.19 1673.65 1076.19 Q1679.02 1076.19 1682.22 1078.88 Q1685.41 1081.56 1685.41 1086.05 Q1685.41 1088.18 1684.6 1090.1 Q1683.82 1092 1681.71 1094.59 Q1681.13 1095.26 1678.03 1098.48 Q1674.93 1101.68 1669.28 1107.44 Z" fill="#000000" fill-rule="nonzero" fill-opacity="1" /><path clip-path="url(#clip130)" d="M1708.26 1080.89 L1696.45 1099.34 L1708.26 1099.34 L1708.26 1080.89 M1707.03 1076.82 L1712.91 1076.82 L1712.91 1099.34 L1717.84 1099.34 L1717.84 1103.23 L1712.91 1103.23 L1712.91 1111.38 L1708.26 1111.38 L1708.26 1103.23 L1692.66 1103.23 L1692.66 1098.71 L1707.03 1076.82 Z" fill="#000000" fill-rule="nonzero" fill-opacity="1" /><path clip-path="url(#clip130)" d="M1722.82 1096.49 L1735.3 1096.49 L1735.3 1100.29 L1722.82 1100.29 L1722.82 1096.49 Z" fill="#000000" fill-rule="nonzero" fill-opacity="1" /><path clip-path="url(#clip130)" d="M1752.68 1079.89 Q1749.07 1079.89 1747.24 1083.46 Q1745.44 1087 1745.44 1094.13 Q1745.44 1101.24 1747.24 1104.8 Q1749.07 1108.34 1752.68 1108.34 Q1756.31 1108.34 1758.12 1104.8 Q1759.95 1101.24 1759.95 1094.13 Q1759.95 1087 1758.12 1083.46 Q1756.31 1079.89 1752.68 1079.89 M1752.68 1076.19 Q1758.49 1076.19 1761.55 1080.8 Q1764.63 1085.38 1764.63 1094.13 Q1764.63 1102.86 1761.55 1107.46 Q1758.49 1112.05 1752.68 1112.05 Q1746.87 1112.05 1743.79 1107.46 Q1740.74 1102.86 1740.74 1094.13 Q1740.74 1085.38 1743.79 1080.8 Q1746.87 1076.19 1752.68 1076.19 Z" fill="#000000" fill-rule="nonzero" fill-opacity="1" /><path clip-path="url(#clip130)" d="M1772.98 1110.66 L1772.98 1106.4 Q1774.74 1107.23 1776.55 1107.67 Q1778.35 1108.11 1780.09 1108.11 Q1784.72 1108.11 1787.15 1105.01 Q1789.6 1101.89 1789.95 1095.54 Q1788.61 1097.53 1786.55 1098.6 Q1784.49 1099.66 1781.99 1099.66 Q1776.8 1099.66 1773.77 1096.54 Q1770.76 1093.39 1770.76 1087.95 Q1770.76 1082.63 1773.91 1079.41 Q1777.06 1076.19 1782.29 1076.19 Q1788.28 1076.19 1791.43 1080.8 Q1794.6 1085.38 1794.6 1094.13 Q1794.6 1102.3 1790.71 1107.19 Q1786.85 1112.05 1780.3 1112.05 Q1778.54 1112.05 1776.73 1111.7 Q1774.93 1111.35 1772.98 1110.66 M1782.29 1096.01 Q1785.44 1096.01 1787.26 1093.85 Q1789.12 1091.7 1789.12 1087.95 Q1789.12 1084.22 1787.26 1082.07 Q1785.44 1079.89 1782.29 1079.89 Q1779.14 1079.89 1777.29 1082.07 Q1775.46 1084.22 1775.46 1087.95 Q1775.46 1091.7 1777.29 1093.85 Q1779.14 1096.01 1782.29 1096.01 Z" fill="#000000" fill-rule="nonzero" fill-opacity="1" /><path clip-path="url(#clip130)" d="M1800.25 1096.49 L1812.73 1096.49 L1812.73 1100.29 L1800.25 1100.29 L1800.25 1096.49 Z" fill="#000000" fill-rule="nonzero" fill-opacity="1" /><path clip-path="url(#clip130)" d="M1830.11 1079.89 Q1826.5 1079.89 1824.67 1083.46 Q1822.87 1087 1822.87 1094.13 Q1822.87 1101.24 1824.67 1104.8 Q1826.5 1108.34 1830.11 1108.34 Q1833.75 1108.34 1835.55 1104.8 Q1837.38 1101.24 1837.38 1094.13 Q1837.38 1087 1835.55 1083.46 Q1833.75 1079.89 1830.11 1079.89 M1830.11 1076.19 Q1835.92 1076.19 1838.98 1080.8 Q1842.06 1085.38 1842.06 1094.13 Q1842.06 1102.86 1838.98 1107.46 Q1835.92 1112.05 1830.11 1112.05 Q1824.3 1112.05 1821.22 1107.46 Q1818.17 1102.86 1818.17 1094.13 Q1818.17 1085.38 1821.22 1080.8 Q1824.3 1076.19 1830.11 1076.19 Z" fill="#000000" fill-rule="nonzero" fill-opacity="1" /><path clip-path="url(#clip130)" d="M1851.08 1107.44 L1858.72 1107.44 L1858.72 1081.07 L1850.41 1082.74 L1850.41 1078.48 L1858.68 1076.82 L1863.35 1076.82 L1863.35 1107.44 L1870.99 1107.44 L1870.99 1111.38 L1851.08 1111.38 L1851.08 1107.44 Z" fill="#000000" fill-rule="nonzero" fill-opacity="1" /><path clip-path="url(#clip130)" d="M2454.33 1107.44 L2470.65 1107.44 L2470.65 1111.38 L2448.71 1111.38 L2448.71 1107.44 Q2451.37 1104.69 2455.95 1100.06 Q2460.56 1095.4 2461.74 1094.06 Q2463.98 1091.54 2464.86 1089.8 Q2465.77 1088.04 2465.77 1086.35 Q2465.77 1083.6 2463.82 1081.86 Q2461.9 1080.13 2458.8 1080.13 Q2456.6 1080.13 2454.15 1080.89 Q2451.72 1081.65 2448.94 1083.2 L2448.94 1078.48 Q2451.76 1077.35 2454.22 1076.77 Q2456.67 1076.19 2458.71 1076.19 Q2464.08 1076.19 2467.27 1078.88 Q2470.47 1081.56 2470.47 1086.05 Q2470.47 1088.18 2469.66 1090.1 Q2468.87 1092 2466.76 1094.59 Q2466.18 1095.26 2463.08 1098.48 Q2459.98 1101.68 2454.33 1107.44 Z" fill="#000000" fill-rule="nonzero" fill-opacity="1" /><path clip-path="url(#clip130)" d="M2490.47 1079.89 Q2486.86 1079.89 2485.03 1083.46 Q2483.22 1087 2483.22 1094.13 Q2483.22 1101.24 2485.03 1104.8 Q2486.86 1108.34 2490.47 1108.34 Q2494.1 1108.34 2495.91 1104.8 Q2497.73 1101.24 2497.73 1094.13 Q2497.73 1087 2495.91 1083.46 Q2494.1 1079.89 2490.47 1079.89 M2490.47 1076.19 Q2496.28 1076.19 2499.33 1080.8 Q2502.41 1085.38 2502.41 1094.13 Q2502.41 1102.86 2499.33 1107.46 Q2496.28 1112.05 2490.47 1112.05 Q2484.66 1112.05 2481.58 1107.46 Q2478.52 1102.86 2478.52 1094.13 Q2478.52 1085.38 2481.58 1080.8 Q2484.66 1076.19 2490.47 1076.19 Z" fill="#000000" fill-rule="nonzero" fill-opacity="1" /><path clip-path="url(#clip130)" d="M2514.66 1107.44 L2530.98 1107.44 L2530.98 1111.38 L2509.03 1111.38 L2509.03 1107.44 Q2511.69 1104.69 2516.28 1100.06 Q2520.88 1095.4 2522.06 1094.06 Q2524.31 1091.54 2525.19 1089.8 Q2526.09 1088.04 2526.09 1086.35 Q2526.09 1083.6 2524.15 1081.86 Q2522.23 1080.13 2519.12 1080.13 Q2516.92 1080.13 2514.47 1080.89 Q2512.04 1081.65 2509.26 1083.2 L2509.26 1078.48 Q2512.09 1077.35 2514.54 1076.77 Q2516.99 1076.19 2519.03 1076.19 Q2524.4 1076.19 2527.6 1078.88 Q2530.79 1081.56 2530.79 1086.05 Q2530.79 1088.18 2529.98 1090.1 Q2529.19 1092 2527.09 1094.59 Q2526.51 1095.26 2523.41 1098.48 Q2520.3 1101.68 2514.66 1107.44 Z" fill="#000000" fill-rule="nonzero" fill-opacity="1" /><path clip-path="url(#clip130)" d="M2553.64 1080.89 L2541.83 1099.34 L2553.64 1099.34 L2553.64 1080.89 M2552.41 1076.82 L2558.29 1076.82 L2558.29 1099.34 L2563.22 1099.34 L2563.22 1103.23 L2558.29 1103.23 L2558.29 1111.38 L2553.64 1111.38 L2553.64 1103.23 L2538.04 1103.23 L2538.04 1098.71 L2552.41 1076.82 Z" fill="#000000" fill-rule="nonzero" fill-opacity="1" /><path clip-path="url(#clip130)" d="M2568.2 1096.49 L2580.67 1096.49 L2580.67 1100.29 L2568.2 1100.29 L2568.2 1096.49 Z" fill="#000000" fill-rule="nonzero" fill-opacity="1" /><path clip-path="url(#clip130)" d="M2588.87 1107.44 L2596.51 1107.44 L2596.51 1081.07 L2588.2 1082.74 L2588.2 1078.48 L2596.46 1076.82 L2601.14 1076.82 L2601.14 1107.44 L2608.78 1107.44 L2608.78 1111.38 L2588.87 1111.38 L2588.87 1107.44 Z" fill="#000000" fill-rule="nonzero" fill-opacity="1" /><path clip-path="url(#clip130)" d="M2628.22 1079.89 Q2624.61 1079.89 2622.78 1083.46 Q2620.97 1087 2620.97 1094.13 Q2620.97 1101.24 2622.78 1104.8 Q2624.61 1108.34 2628.22 1108.34 Q2631.85 1108.34 2633.66 1104.8 Q2635.49 1101.24 2635.49 1094.13 Q2635.49 1087 2633.66 1083.46 Q2631.85 1079.89 2628.22 1079.89 M2628.22 1076.19 Q2634.03 1076.19 2637.09 1080.8 Q2640.16 1085.38 2640.16 1094.13 Q2640.16 1102.86 2637.09 1107.46 Q2634.03 1112.05 2628.22 1112.05 Q2622.41 1112.05 2619.33 1107.46 Q2616.28 1102.86 2616.28 1094.13 Q2616.28 1085.38 2619.33 1080.8 Q2622.41 1076.19 2628.22 1076.19 Z" fill="#000000" fill-rule="nonzero" fill-opacity="1" /><path clip-path="url(#clip130)" d="M2645.63 1096.49 L2658.1 1096.49 L2658.1 1100.29 L2645.63 1100.29 L2645.63 1096.49 Z" fill="#000000" fill-rule="nonzero" fill-opacity="1" /><path clip-path="url(#clip130)" d="M2675.49 1079.89 Q2671.88 1079.89 2670.05 1083.46 Q2668.24 1087 2668.24 1094.13 Q2668.24 1101.24 2670.05 1104.8 Q2671.88 1108.34 2675.49 1108.34 Q2679.12 1108.34 2680.93 1104.8 Q2682.76 1101.24 2682.76 1094.13 Q2682.76 1087 2680.93 1083.46 Q2679.12 1079.89 2675.49 1079.89 M2675.49 1076.19 Q2681.3 1076.19 2684.35 1080.8 Q2687.43 1085.38 2687.43 1094.13 Q2687.43 1102.86 2684.35 1107.46 Q2681.3 1112.05 2675.49 1112.05 Q2669.68 1112.05 2666.6 1107.46 Q2663.54 1102.86 2663.54 1094.13 Q2663.54 1085.38 2666.6 1080.8 Q2669.68 1076.19 2675.49 1076.19 Z" fill="#000000" fill-rule="nonzero" fill-opacity="1" /><path clip-path="url(#clip130)" d="M2696.46 1107.44 L2704.1 1107.44 L2704.1 1081.07 L2695.79 1082.74 L2695.79 1078.48 L2704.05 1076.82 L2708.73 1076.82 L2708.73 1107.44 L2716.37 1107.44 L2716.37 1111.38 L2696.46 1111.38 L2696.46 1107.44 Z" fill="#000000" fill-rule="nonzero" fill-opacity="1" /><polyline clip-path="url(#clip132)" style="stroke:#000000; stroke-linecap:round; stroke-linejoin:round; stroke-width:2; stroke-opacity:0.1; fill:none" points="271.839,1042.58 3089.76,1042.58 "/>
<polyline clip-path="url(#clip132)" style="stroke:#000000; stroke-linecap:round; stroke-linejoin:round; stroke-width:2; stroke-opacity:0.1; fill:none" points="271.839,504.396 3089.76,504.396 "/>
<polyline clip-path="url(#clip130)" style="stroke:#000000; stroke-linecap:round; stroke-linejoin:round; stroke-width:4; stroke-opacity:1; fill:none" points="271.839,1042.58 271.839,110.236 "/>
<polyline clip-path="url(#clip130)" style="stroke:#000000; stroke-linecap:round; stroke-linejoin:round; stroke-width:4; stroke-opacity:1; fill:none" points="271.839,1042.58 290.737,1042.58 "/>
<polyline clip-path="url(#clip130)" style="stroke:#000000; stroke-linecap:round; stroke-linejoin:round; stroke-width:4; stroke-opacity:1; fill:none" points="271.839,504.396 290.737,504.396 "/>
<path clip-path="url(#clip130)" d="M153.134 1062.37 L160.772 1062.37 L160.772 1036 L152.462 1037.67 L152.462 1033.41 L160.726 1031.74 L165.402 1031.74 L165.402 1062.37 L173.041 1062.37 L173.041 1066.3 L153.134 1066.3 L153.134 1062.37 Z" fill="#000000" fill-rule="nonzero" fill-opacity="1" /><path clip-path="url(#clip130)" d="M192.485 1034.82 Q188.874 1034.82 187.045 1038.39 Q185.24 1041.93 185.24 1049.06 Q185.24 1056.16 187.045 1059.73 Q188.874 1063.27 192.485 1063.27 Q196.119 1063.27 197.925 1059.73 Q199.754 1056.16 199.754 1049.06 Q199.754 1041.93 197.925 1038.39 Q196.119 1034.82 192.485 1034.82 M192.485 1031.12 Q198.295 1031.12 201.351 1035.72 Q204.43 1040.31 204.43 1049.06 Q204.43 1057.78 201.351 1062.39 Q198.295 1066.97 192.485 1066.97 Q186.675 1066.97 183.596 1062.39 Q180.541 1057.78 180.541 1049.06 Q180.541 1040.31 183.596 1035.72 Q186.675 1031.12 192.485 1031.12 Z" fill="#000000" fill-rule="nonzero" fill-opacity="1" /><path clip-path="url(#clip130)" d="M214.134 1013.31 Q211.2 1013.31 209.715 1016.21 Q208.248 1019.09 208.248 1024.88 Q208.248 1030.66 209.715 1033.55 Q211.2 1036.43 214.134 1036.43 Q217.087 1036.43 218.554 1033.55 Q220.04 1030.66 220.04 1024.88 Q220.04 1019.09 218.554 1016.21 Q217.087 1013.31 214.134 1013.31 M214.134 1010.31 Q218.855 1010.31 221.338 1014.05 Q223.839 1017.77 223.839 1024.88 Q223.839 1031.97 221.338 1035.71 Q218.855 1039.44 214.134 1039.44 Q209.414 1039.44 206.912 1035.71 Q204.43 1031.97 204.43 1024.88 Q204.43 1017.77 206.912 1014.05 Q209.414 1010.31 214.134 1010.31 Z" fill="#000000" fill-rule="nonzero" fill-opacity="1" /><path clip-path="url(#clip130)" d="M155.823 524.188 L163.462 524.188 L163.462 497.823 L155.152 499.489 L155.152 495.23 L163.416 493.563 L168.092 493.563 L168.092 524.188 L175.73 524.188 L175.73 528.123 L155.823 528.123 L155.823 524.188 Z" fill="#000000" fill-rule="nonzero" fill-opacity="1" /><path clip-path="url(#clip130)" d="M195.175 496.642 Q191.564 496.642 189.735 500.207 Q187.929 503.749 187.929 510.878 Q187.929 517.985 189.735 521.549 Q191.564 525.091 195.175 525.091 Q198.809 525.091 200.615 521.549 Q202.443 517.985 202.443 510.878 Q202.443 503.749 200.615 500.207 Q198.809 496.642 195.175 496.642 M195.175 492.938 Q200.985 492.938 204.04 497.545 Q207.119 502.128 207.119 510.878 Q207.119 519.605 204.04 524.211 Q200.985 528.795 195.175 528.795 Q189.365 528.795 186.286 524.211 Q183.23 519.605 183.23 510.878 Q183.23 502.128 186.286 497.545 Q189.365 492.938 195.175 492.938 Z" fill="#000000" fill-rule="nonzero" fill-opacity="1" /><path clip-path="url(#clip130)" d="M207.665 497.516 L213.871 497.516 L213.871 476.094 L207.119 477.448 L207.119 473.987 L213.833 472.633 L217.633 472.633 L217.633 497.516 L223.839 497.516 L223.839 500.713 L207.665 500.713 L207.665 497.516 Z" fill="#000000" fill-rule="nonzero" fill-opacity="1" /><path clip-path="url(#clip130)" d="M83.4268 931.246 L70.6636 931.246 L70.6636 941.75 L65.38 941.75 L65.38 924.881 L85.7821 924.881 Q88.4239 928.605 89.7925 933.092 Q91.1293 937.58 91.1293 942.673 Q91.1293 953.813 84.6363 960.115 Q78.1114 966.385 66.494 966.385 Q54.8448 966.385 48.3518 960.115 Q41.8269 953.813 41.8269 942.673 Q41.8269 938.026 42.9727 933.856 Q44.1186 929.655 46.3466 926.122 L53.1897 926.122 Q50.166 929.687 48.6382 933.697 Q47.1104 937.708 47.1104 942.132 Q47.1104 950.853 51.9802 955.245 Q56.85 959.606 66.494 959.606 Q76.1062 959.606 80.976 955.245 Q85.8458 950.853 85.8458 942.132 Q85.8458 938.726 85.2729 936.052 Q84.6681 933.379 83.4268 931.246 Z" fill="#000000" fill-rule="nonzero" fill-opacity="1" /><path clip-path="url(#clip130)" d="M70.9182 882.899 L73.7828 882.899 L73.7828 909.826 Q79.8302 909.444 83.013 906.197 Q86.1641 902.919 86.1641 897.094 Q86.1641 893.721 85.3365 890.57 Q84.509 887.387 82.8539 884.267 L88.3921 884.267 Q89.7289 887.418 90.4291 890.729 Q91.1293 894.039 91.1293 897.444 Q91.1293 905.975 86.1641 910.972 Q81.1988 915.937 72.7324 915.937 Q63.9796 915.937 58.8552 911.226 Q53.699 906.484 53.699 898.463 Q53.699 891.27 58.3459 887.1 Q62.9611 882.899 70.9182 882.899 M69.1995 888.755 Q64.3933 888.819 61.5288 891.461 Q58.6642 894.071 58.6642 898.399 Q58.6642 903.301 61.4333 906.261 Q64.2024 909.189 69.2313 909.635 L69.1995 888.755 Z" fill="#000000" fill-rule="nonzero" fill-opacity="1" /><path clip-path="url(#clip130)" d="M68.6902 843.654 L90.2063 843.654 L90.2063 849.511 L68.8812 849.511 Q63.8204 849.511 61.306 851.484 Q58.7915 853.457 58.7915 857.404 Q58.7915 862.147 61.8152 864.884 Q64.8389 867.621 70.0588 867.621 L90.2063 867.621 L90.2063 873.509 L54.5583 873.509 L54.5583 867.621 L60.0965 867.621 Q56.8818 865.52 55.2904 862.688 Q53.699 859.823 53.699 856.099 Q53.699 849.956 57.5184 846.805 Q61.306 843.654 68.6902 843.654 Z" fill="#000000" fill-rule="nonzero" fill-opacity="1" /><path clip-path="url(#clip130)" d="M58.6642 818.16 Q58.6642 822.87 62.3563 825.607 Q66.0166 828.345 72.4141 828.345 Q78.8117 828.345 82.5038 825.639 Q86.1641 822.902 86.1641 818.16 Q86.1641 813.481 82.4719 810.744 Q78.7798 808.006 72.4141 808.006 Q66.0803 808.006 62.3881 810.744 Q58.6642 813.481 58.6642 818.16 M53.699 818.16 Q53.699 810.521 58.6642 806.16 Q63.6295 801.8 72.4141 801.8 Q81.167 801.8 86.1641 806.16 Q91.1293 810.521 91.1293 818.16 Q91.1293 825.83 86.1641 830.191 Q81.167 834.519 72.4141 834.519 Q63.6295 834.519 58.6642 830.191 Q53.699 825.83 53.699 818.16 Z" fill="#000000" fill-rule="nonzero" fill-opacity="1" /><path clip-path="url(#clip130)" d="M61.4015 764.338 Q57.4547 762.141 55.5768 759.086 Q53.699 756.03 53.699 751.893 Q53.699 746.323 57.6139 743.299 Q61.4969 740.275 68.6902 740.275 L90.2063 740.275 L90.2063 746.163 L68.8812 746.163 Q63.7568 746.163 61.2741 747.978 Q58.7915 749.792 58.7915 753.516 Q58.7915 758.067 61.8152 760.709 Q64.8389 763.351 70.0588 763.351 L90.2063 763.351 L90.2063 769.239 L68.8812 769.239 Q63.7249 769.239 61.2741 771.053 Q58.7915 772.868 58.7915 776.655 Q58.7915 781.143 61.8471 783.785 Q64.8708 786.427 70.0588 786.427 L90.2063 786.427 L90.2063 792.315 L54.5583 792.315 L54.5583 786.427 L60.0965 786.427 Q56.8182 784.421 55.2586 781.62 Q53.699 778.82 53.699 774.968 Q53.699 771.085 55.6723 768.38 Q57.6457 765.643 61.4015 764.338 Z" fill="#000000" fill-rule="nonzero" fill-opacity="1" /><path clip-path="url(#clip130)" d="M70.9182 698.102 L73.7828 698.102 L73.7828 725.029 Q79.8302 724.647 83.013 721.401 Q86.1641 718.123 86.1641 712.298 Q86.1641 708.924 85.3365 705.773 Q84.509 702.59 82.8539 699.471 L88.3921 699.471 Q89.7289 702.622 90.4291 705.932 Q91.1293 709.242 91.1293 712.648 Q91.1293 721.178 86.1641 726.175 Q81.1988 731.14 72.7324 731.14 Q63.9796 731.14 58.8552 726.43 Q53.699 721.687 53.699 713.667 Q53.699 706.473 58.3459 702.304 Q62.9611 698.102 70.9182 698.102 M69.1995 703.959 Q64.3933 704.022 61.5288 706.664 Q58.6642 709.274 58.6642 713.603 Q58.6642 718.504 61.4333 721.465 Q64.2024 724.393 69.2313 724.838 L69.1995 703.959 Z" fill="#000000" fill-rule="nonzero" fill-opacity="1" /><path clip-path="url(#clip130)" d="M55.6087 665.765 L61.1468 665.765 Q59.8737 668.247 59.2371 670.921 Q58.6006 673.594 58.6006 676.459 Q58.6006 680.819 59.9373 683.016 Q61.2741 685.18 63.9477 685.18 Q65.9848 685.18 67.1624 683.62 Q68.3083 682.061 69.3586 677.35 L69.8042 675.345 Q71.141 669.107 73.5918 666.497 Q76.0108 663.855 80.3713 663.855 Q85.3365 663.855 88.2329 667.802 Q91.1293 671.717 91.1293 678.591 Q91.1293 681.456 90.5564 684.575 Q90.0153 687.663 88.9013 691.1 L82.8539 691.1 Q84.5408 687.854 85.4002 684.703 Q86.2277 681.552 86.2277 678.464 Q86.2277 674.326 84.8273 672.098 Q83.395 669.87 80.8169 669.87 Q78.4297 669.87 77.1566 671.494 Q75.8834 673.085 74.7058 678.528 L74.2284 680.565 Q73.0825 686.008 70.7272 688.427 Q68.3401 690.845 64.2024 690.845 Q59.1735 690.845 56.4362 687.281 Q53.699 683.716 53.699 677.159 Q53.699 673.913 54.1764 671.048 Q54.6538 668.184 55.6087 665.765 Z" fill="#000000" fill-rule="nonzero" fill-opacity="1" /><path clip-path="url(#clip130)" d="M42.6863 644.121 L42.6863 638.71 L96.2537 655.261 L96.2537 660.672 L42.6863 644.121 Z" fill="#000000" fill-rule="nonzero" fill-opacity="1" /><path clip-path="url(#clip130)" d="M47.9698 625.883 L84.9227 625.883 L84.9227 618.117 Q84.9227 608.282 80.4668 603.731 Q76.0108 599.147 66.3985 599.147 Q56.85 599.147 52.4258 603.731 Q47.9698 608.282 47.9698 618.117 L47.9698 625.883 M42.6863 632.313 L42.6863 619.104 Q42.6863 605.29 48.4472 598.829 Q54.1764 592.368 66.3985 592.368 Q78.6844 592.368 84.4453 598.861 Q90.2063 605.354 90.2063 619.104 L90.2063 632.313 L42.6863 632.313 Z" fill="#000000" fill-rule="nonzero" fill-opacity="1" /><path clip-path="url(#clip130)" d="M72.2868 566.173 Q72.2868 573.271 73.9101 576.008 Q75.5333 578.745 79.4482 578.745 Q82.5674 578.745 84.4135 576.708 Q86.2277 574.64 86.2277 571.107 Q86.2277 566.237 82.7902 563.309 Q79.3209 560.348 73.5918 560.348 L72.2868 560.348 L72.2868 566.173 M69.8679 554.492 L90.2063 554.492 L90.2063 560.348 L84.7954 560.348 Q88.0419 562.354 89.6015 565.346 Q91.1293 568.337 91.1293 572.666 Q91.1293 578.141 88.0738 581.387 Q84.9864 584.602 79.8302 584.602 Q73.8146 584.602 70.759 580.591 Q67.7035 576.549 67.7035 568.56 L67.7035 560.348 L67.1306 560.348 Q63.0884 560.348 60.8922 563.022 Q58.6642 565.664 58.6642 570.47 Q58.6642 573.526 59.3963 576.422 Q60.1283 579.318 61.5924 581.992 L56.1816 581.992 Q54.9403 578.777 54.3355 575.753 Q53.699 572.73 53.699 569.865 Q53.699 562.131 57.7094 558.311 Q61.7197 554.492 69.8679 554.492 Z" fill="#000000" fill-rule="nonzero" fill-opacity="1" /><path clip-path="url(#clip130)" d="M93.5165 527.597 Q99.8822 530.08 101.824 532.435 Q103.765 534.79 103.765 538.737 L103.765 543.416 L98.8636 543.416 L98.8636 539.978 Q98.8636 537.559 97.7178 536.222 Q96.572 534.886 92.307 533.262 L89.6334 532.212 L54.5583 546.63 L54.5583 540.424 L82.4401 529.284 L54.5583 518.144 L54.5583 511.937 L93.5165 527.597 Z" fill="#000000" fill-rule="nonzero" fill-opacity="1" /><path clip-path="url(#clip130)" d="M40.7447 469.064 Q48.0653 473.329 55.2267 475.398 Q62.3881 477.467 69.7405 477.467 Q77.0929 477.467 84.318 475.398 Q91.5113 473.297 98.8 469.064 L98.8 474.157 Q91.3203 478.931 84.0952 481.318 Q76.8701 483.674 69.7405 483.674 Q62.6428 483.674 55.4495 481.318 Q48.2563 478.963 40.7447 474.157 L40.7447 469.064 Z" fill="#000000" fill-rule="nonzero" fill-opacity="1" /><path clip-path="url(#clip130)" d="M44.2459 428.96 L50.5161 428.96 Q48.7655 432.621 47.9062 435.867 Q47.0468 439.114 47.0468 442.137 Q47.0468 447.389 49.0838 450.254 Q51.1208 453.086 54.8766 453.086 Q58.0276 453.086 59.6509 451.208 Q61.2423 449.299 62.229 444.015 L63.0247 440.132 Q64.3933 432.939 67.8627 429.533 Q71.3001 426.096 77.0929 426.096 Q83.9997 426.096 87.5645 430.743 Q91.1293 435.358 91.1293 444.302 Q91.1293 447.675 90.3654 451.495 Q89.6015 455.283 88.1056 459.357 L81.4853 459.357 Q83.6814 455.442 84.7954 451.686 Q85.9094 447.93 85.9094 444.302 Q85.9094 438.795 83.7451 435.803 Q81.5808 432.812 77.5704 432.812 Q74.0692 432.812 72.0958 434.976 Q70.1225 437.108 69.1358 442.01 L68.3719 445.925 Q66.9396 453.118 63.8841 456.333 Q60.8285 459.548 55.3859 459.548 Q49.0838 459.548 45.4554 455.123 Q41.8269 450.667 41.8269 442.869 Q41.8269 439.527 42.4317 436.058 Q43.0364 432.589 44.2459 428.96 Z" fill="#000000" fill-rule="nonzero" fill-opacity="1" /><path clip-path="url(#clip130)" d="M54.5583 419.73 L54.5583 413.874 L82.3765 406.553 L54.5583 399.264 L54.5583 392.357 L82.3765 385.037 L54.5583 377.748 L54.5583 371.892 L90.2063 381.218 L90.2063 388.124 L60.9877 395.795 L90.2063 403.497 L90.2063 410.404 L54.5583 419.73 Z" fill="#000000" fill-rule="nonzero" fill-opacity="1" /><path clip-path="url(#clip130)" d="M70.9182 332.52 L73.7828 332.52 L73.7828 359.447 Q79.8302 359.065 83.013 355.818 Q86.1641 352.54 86.1641 346.715 Q86.1641 343.342 85.3365 340.191 Q84.509 337.008 82.8539 333.888 L88.3921 333.888 Q89.7289 337.04 90.4291 340.35 Q91.1293 343.66 91.1293 347.065 Q91.1293 355.596 86.1641 360.593 Q81.1988 365.558 72.7324 365.558 Q63.9796 365.558 58.8552 360.847 Q53.699 356.105 53.699 348.084 Q53.699 340.891 58.3459 336.721 Q62.9611 332.52 70.9182 332.52 M69.1995 338.376 Q64.3933 338.44 61.5288 341.082 Q58.6642 343.692 58.6642 348.02 Q58.6642 352.922 61.4333 355.882 Q64.2024 358.81 69.2313 359.256 L69.1995 338.376 Z" fill="#000000" fill-rule="nonzero" fill-opacity="1" /><path clip-path="url(#clip130)" d="M59.9692 299.45 L40.6811 299.45 L40.6811 293.594 L90.2063 293.594 L90.2063 299.45 L84.8591 299.45 Q88.0419 301.296 89.6015 304.129 Q91.1293 306.93 91.1293 310.876 Q91.1293 317.338 85.9731 321.412 Q80.8169 325.454 72.4141 325.454 Q64.0114 325.454 58.8552 321.412 Q53.699 317.338 53.699 310.876 Q53.699 306.93 55.2586 304.129 Q56.7863 301.296 59.9692 299.45 M72.4141 319.406 Q78.8753 319.406 82.5674 316.765 Q86.2277 314.091 86.2277 309.444 Q86.2277 304.797 82.5674 302.124 Q78.8753 299.45 72.4141 299.45 Q65.9529 299.45 62.2927 302.124 Q58.6006 304.797 58.6006 309.444 Q58.6006 314.091 62.2927 316.765 Q65.9529 319.406 72.4141 319.406 Z" fill="#000000" fill-rule="nonzero" fill-opacity="1" /><path clip-path="url(#clip130)" d="M70.9182 251.039 L73.7828 251.039 L73.7828 277.966 Q79.8302 277.584 83.013 274.337 Q86.1641 271.059 86.1641 265.234 Q86.1641 261.861 85.3365 258.709 Q84.509 255.527 82.8539 252.407 L88.3921 252.407 Q89.7289 255.558 90.4291 258.869 Q91.1293 262.179 91.1293 265.584 Q91.1293 274.114 86.1641 279.112 Q81.1988 284.077 72.7324 284.077 Q63.9796 284.077 58.8552 279.366 Q53.699 274.624 53.699 266.603 Q53.699 259.41 58.3459 255.24 Q62.9611 251.039 70.9182 251.039 M69.1995 256.895 Q64.3933 256.959 61.5288 259.601 Q58.6642 262.211 58.6642 266.539 Q58.6642 271.441 61.4333 274.401 Q64.2024 277.329 69.2313 277.775 L69.1995 256.895 Z" fill="#000000" fill-rule="nonzero" fill-opacity="1" /><path clip-path="url(#clip130)" d="M68.6902 211.794 L90.2063 211.794 L90.2063 217.651 L68.8812 217.651 Q63.8204 217.651 61.306 219.624 Q58.7915 221.597 58.7915 225.544 Q58.7915 230.287 61.8152 233.024 Q64.8389 235.761 70.0588 235.761 L90.2063 235.761 L90.2063 241.649 L54.5583 241.649 L54.5583 235.761 L60.0965 235.761 Q56.8818 233.66 55.2904 230.828 Q53.699 227.963 53.699 224.239 Q53.699 218.096 57.5184 214.945 Q61.306 211.794 68.6902 211.794 Z" fill="#000000" fill-rule="nonzero" fill-opacity="1" /><path clip-path="url(#clip130)" d="M40.7447 201.036 L40.7447 195.944 Q48.2563 191.169 55.4495 188.814 Q62.6428 186.427 69.7405 186.427 Q76.8701 186.427 84.0952 188.814 Q91.3203 191.169 98.8 195.944 L98.8 201.036 Q91.5113 196.803 84.318 194.734 Q77.0929 192.633 69.7405 192.633 Q62.3881 192.633 55.2267 194.734 Q48.0653 196.803 40.7447 201.036 Z" fill="#000000" fill-rule="nonzero" fill-opacity="1" /><path clip-path="url(#clip132)" d="M288.747 504.396 L288.747 1042.58 L311.29 1042.58 L311.29 504.396 L288.747 504.396 L288.747 504.396  Z" fill="#009af9" fill-rule="evenodd" fill-opacity="0.5"/>
<polyline clip-path="url(#clip132)" style="stroke:#000000; stroke-linecap:round; stroke-linejoin:round; stroke-width:4; stroke-opacity:0.5; fill:none" points="288.747,504.396 288.747,1042.58 311.29,1042.58 311.29,504.396 288.747,504.396 "/>
<path clip-path="url(#clip132)" d="M316.926 482.119 L316.926 1042.58 L339.469 1042.58 L339.469 482.119 L316.926 482.119 L316.926 482.119  Z" fill="#009af9" fill-rule="evenodd" fill-opacity="0.5"/>
<polyline clip-path="url(#clip132)" style="stroke:#000000; stroke-linecap:round; stroke-linejoin:round; stroke-width:4; stroke-opacity:0.5; fill:none" points="316.926,482.119 316.926,1042.58 339.469,1042.58 339.469,482.119 316.926,482.119 "/>
<path clip-path="url(#clip132)" d="M345.105 443.074 L345.105 1042.58 L367.649 1042.58 L367.649 443.074 L345.105 443.074 L345.105 443.074  Z" fill="#009af9" fill-rule="evenodd" fill-opacity="0.5"/>
<polyline clip-path="url(#clip132)" style="stroke:#000000; stroke-linecap:round; stroke-linejoin:round; stroke-width:4; stroke-opacity:0.5; fill:none" points="345.105,443.074 345.105,1042.58 367.649,1042.58 367.649,443.074 345.105,443.074 "/>
<path clip-path="url(#clip132)" d="M373.285 425.753 L373.285 1042.58 L395.828 1042.58 L395.828 425.753 L373.285 425.753 L373.285 425.753  Z" fill="#009af9" fill-rule="evenodd" fill-opacity="0.5"/>
<polyline clip-path="url(#clip132)" style="stroke:#000000; stroke-linecap:round; stroke-linejoin:round; stroke-width:4; stroke-opacity:0.5; fill:none" points="373.285,425.753 373.285,1042.58 395.828,1042.58 395.828,425.753 373.285,425.753 "/>
<path clip-path="url(#clip132)" d="M401.464 409.627 L401.464 1042.58 L424.007 1042.58 L424.007 409.627 L401.464 409.627 L401.464 409.627  Z" fill="#009af9" fill-rule="evenodd" fill-opacity="0.5"/>
<polyline clip-path="url(#clip132)" style="stroke:#000000; stroke-linecap:round; stroke-linejoin:round; stroke-width:4; stroke-opacity:0.5; fill:none" points="401.464,409.627 401.464,1042.58 424.007,1042.58 424.007,409.627 401.464,409.627 "/>
<path clip-path="url(#clip132)" d="M429.643 443.074 L429.643 1042.58 L452.186 1042.58 L452.186 443.074 L429.643 443.074 L429.643 443.074  Z" fill="#009af9" fill-rule="evenodd" fill-opacity="0.5"/>
<polyline clip-path="url(#clip132)" style="stroke:#000000; stroke-linecap:round; stroke-linejoin:round; stroke-width:4; stroke-opacity:0.5; fill:none" points="429.643,443.074 429.643,1042.58 452.186,1042.58 452.186,443.074 429.643,443.074 "/>
<path clip-path="url(#clip132)" d="M457.822 380.373 L457.822 1042.58 L480.366 1042.58 L480.366 380.373 L457.822 380.373 L457.822 380.373  Z" fill="#009af9" fill-rule="evenodd" fill-opacity="0.5"/>
<polyline clip-path="url(#clip132)" style="stroke:#000000; stroke-linecap:round; stroke-linejoin:round; stroke-width:4; stroke-opacity:0.5; fill:none" points="457.822,380.373 457.822,1042.58 480.366,1042.58 480.366,380.373 457.822,380.373 "/>
<path clip-path="url(#clip132)" d="M486.001 425.753 L486.001 1042.58 L508.545 1042.58 L508.545 425.753 L486.001 425.753 L486.001 425.753  Z" fill="#009af9" fill-rule="evenodd" fill-opacity="0.5"/>
<polyline clip-path="url(#clip132)" style="stroke:#000000; stroke-linecap:round; stroke-linejoin:round; stroke-width:4; stroke-opacity:0.5; fill:none" points="486.001,425.753 486.001,1042.58 508.545,1042.58 508.545,425.753 486.001,425.753 "/>
<path clip-path="url(#clip132)" d="M514.181 367.013 L514.181 1042.58 L536.724 1042.58 L536.724 367.013 L514.181 367.013 L514.181 367.013  Z" fill="#009af9" fill-rule="evenodd" fill-opacity="0.5"/>
<polyline clip-path="url(#clip132)" style="stroke:#000000; stroke-linecap:round; stroke-linejoin:round; stroke-width:4; stroke-opacity:0.5; fill:none" points="514.181,367.013 514.181,1042.58 536.724,1042.58 536.724,367.013 514.181,367.013 "/>
<path clip-path="url(#clip132)" d="M542.36 281.066 L542.36 1042.58 L564.903 1042.58 L564.903 281.066 L542.36 281.066 L542.36 281.066  Z" fill="#009af9" fill-rule="evenodd" fill-opacity="0.5"/>
<polyline clip-path="url(#clip132)" style="stroke:#000000; stroke-linecap:round; stroke-linejoin:round; stroke-width:4; stroke-opacity:0.5; fill:none" points="542.36,281.066 542.36,1042.58 564.903,1042.58 564.903,281.066 542.36,281.066 "/>
<path clip-path="url(#clip132)" d="M570.539 186.297 L570.539 1042.58 L593.083 1042.58 L593.083 186.297 L570.539 186.297 L570.539 186.297  Z" fill="#009af9" fill-rule="evenodd" fill-opacity="0.5"/>
<polyline clip-path="url(#clip132)" style="stroke:#000000; stroke-linecap:round; stroke-linejoin:round; stroke-width:4; stroke-opacity:0.5; fill:none" points="570.539,186.297 570.539,1042.58 593.083,1042.58 593.083,186.297 570.539,186.297 "/>
<path clip-path="url(#clip132)" d="M598.718 180.379 L598.718 1042.58 L621.262 1042.58 L621.262 180.379 L598.718 180.379 L598.718 180.379  Z" fill="#009af9" fill-rule="evenodd" fill-opacity="0.5"/>
<polyline clip-path="url(#clip132)" style="stroke:#000000; stroke-linecap:round; stroke-linejoin:round; stroke-width:4; stroke-opacity:0.5; fill:none" points="598.718,180.379 598.718,1042.58 621.262,1042.58 621.262,180.379 598.718,180.379 "/>
<path clip-path="url(#clip132)" d="M626.898 205.005 L626.898 1042.58 L649.441 1042.58 L649.441 205.005 L626.898 205.005 L626.898 205.005  Z" fill="#009af9" fill-rule="evenodd" fill-opacity="0.5"/>
<polyline clip-path="url(#clip132)" style="stroke:#000000; stroke-linecap:round; stroke-linejoin:round; stroke-width:4; stroke-opacity:0.5; fill:none" points="626.898,205.005 626.898,1042.58 649.441,1042.58 649.441,205.005 626.898,205.005 "/>
<path clip-path="url(#clip132)" d="M655.077 330.984 L655.077 1042.58 L677.62 1042.58 L677.62 330.984 L655.077 330.984 L655.077 330.984  Z" fill="#009af9" fill-rule="evenodd" fill-opacity="0.5"/>
<polyline clip-path="url(#clip132)" style="stroke:#000000; stroke-linecap:round; stroke-linejoin:round; stroke-width:4; stroke-opacity:0.5; fill:none" points="655.077,330.984 655.077,1042.58 677.62,1042.58 677.62,330.984 655.077,330.984 "/>
<path clip-path="url(#clip132)" d="M683.256 255.543 L683.256 1042.58 L705.8 1042.58 L705.8 255.543 L683.256 255.543 L683.256 255.543  Z" fill="#009af9" fill-rule="evenodd" fill-opacity="0.5"/>
<polyline clip-path="url(#clip132)" style="stroke:#000000; stroke-linecap:round; stroke-linejoin:round; stroke-width:4; stroke-opacity:0.5; fill:none" points="683.256,255.543 683.256,1042.58 705.8,1042.58 705.8,255.543 683.256,255.543 "/>
<path clip-path="url(#clip132)" d="M711.435 309.721 L711.435 1042.58 L733.979 1042.58 L733.979 309.721 L711.435 309.721 L711.435 309.721  Z" fill="#009af9" fill-rule="evenodd" fill-opacity="0.5"/>
<polyline clip-path="url(#clip132)" style="stroke:#000000; stroke-linecap:round; stroke-linejoin:round; stroke-width:4; stroke-opacity:0.5; fill:none" points="711.435,309.721 711.435,1042.58 733.979,1042.58 733.979,309.721 711.435,309.721 "/>
<path clip-path="url(#clip132)" d="M739.615 380.373 L739.615 1042.58 L762.158 1042.58 L762.158 380.373 L739.615 380.373 L739.615 380.373  Z" fill="#009af9" fill-rule="evenodd" fill-opacity="0.5"/>
<polyline clip-path="url(#clip132)" style="stroke:#000000; stroke-linecap:round; stroke-linejoin:round; stroke-width:4; stroke-opacity:0.5; fill:none" points="739.615,380.373 739.615,1042.58 762.158,1042.58 762.158,380.373 739.615,380.373 "/>
<path clip-path="url(#clip132)" d="M767.794 290.233 L767.794 1042.58 L790.337 1042.58 L790.337 290.233 L767.794 290.233 L767.794 290.233  Z" fill="#009af9" fill-rule="evenodd" fill-opacity="0.5"/>
<polyline clip-path="url(#clip132)" style="stroke:#000000; stroke-linecap:round; stroke-linejoin:round; stroke-width:4; stroke-opacity:0.5; fill:none" points="767.794,290.233 767.794,1042.58 790.337,1042.58 790.337,290.233 767.794,290.233 "/>
<path clip-path="url(#clip132)" d="M795.973 255.543 L795.973 1042.58 L818.517 1042.58 L818.517 255.543 L795.973 255.543 L795.973 255.543  Z" fill="#009af9" fill-rule="evenodd" fill-opacity="0.5"/>
<polyline clip-path="url(#clip132)" style="stroke:#000000; stroke-linecap:round; stroke-linejoin:round; stroke-width:4; stroke-opacity:0.5; fill:none" points="795.973,255.543 795.973,1042.58 818.517,1042.58 818.517,255.543 795.973,255.543 "/>
<path clip-path="url(#clip132)" d="M824.152 255.543 L824.152 1042.58 L846.696 1042.58 L846.696 255.543 L824.152 255.543 L824.152 255.543  Z" fill="#009af9" fill-rule="evenodd" fill-opacity="0.5"/>
<polyline clip-path="url(#clip132)" style="stroke:#000000; stroke-linecap:round; stroke-linejoin:round; stroke-width:4; stroke-opacity:0.5; fill:none" points="824.152,255.543 824.152,1042.58 846.696,1042.58 846.696,255.543 824.152,255.543 "/>
<path clip-path="url(#clip132)" d="M852.332 180.379 L852.332 1042.58 L874.875 1042.58 L874.875 180.379 L852.332 180.379 L852.332 180.379  Z" fill="#009af9" fill-rule="evenodd" fill-opacity="0.5"/>
<polyline clip-path="url(#clip132)" style="stroke:#000000; stroke-linecap:round; stroke-linejoin:round; stroke-width:4; stroke-opacity:0.5; fill:none" points="852.332,180.379 852.332,1042.58 874.875,1042.58 874.875,180.379 852.332,180.379 "/>
<path clip-path="url(#clip132)" d="M880.511 247.619 L880.511 1042.58 L903.054 1042.58 L903.054 247.619 L880.511 247.619 L880.511 247.619  Z" fill="#009af9" fill-rule="evenodd" fill-opacity="0.5"/>
<polyline clip-path="url(#clip132)" style="stroke:#000000; stroke-linecap:round; stroke-linejoin:round; stroke-width:4; stroke-opacity:0.5; fill:none" points="880.511,247.619 880.511,1042.58 903.054,1042.58 903.054,247.619 880.511,247.619 "/>
<path clip-path="url(#clip132)" d="M908.69 281.066 L908.69 1042.58 L931.234 1042.58 L931.234 281.066 L908.69 281.066 L908.69 281.066  Z" fill="#009af9" fill-rule="evenodd" fill-opacity="0.5"/>
<polyline clip-path="url(#clip132)" style="stroke:#000000; stroke-linecap:round; stroke-linejoin:round; stroke-width:4; stroke-opacity:0.5; fill:none" points="908.69,281.066 908.69,1042.58 931.234,1042.58 931.234,281.066 908.69,281.066 "/>
<path clip-path="url(#clip132)" d="M936.869 330.984 L936.869 1042.58 L959.413 1042.58 L959.413 330.984 L936.869 330.984 L936.869 330.984  Z" fill="#009af9" fill-rule="evenodd" fill-opacity="0.5"/>
<polyline clip-path="url(#clip132)" style="stroke:#000000; stroke-linecap:round; stroke-linejoin:round; stroke-width:4; stroke-opacity:0.5; fill:none" points="936.869,330.984 936.869,1042.58 959.413,1042.58 959.413,330.984 936.869,330.984 "/>
<path clip-path="url(#clip132)" d="M965.049 192.368 L965.049 1042.58 L987.592 1042.58 L987.592 192.368 L965.049 192.368 L965.049 192.368  Z" fill="#009af9" fill-rule="evenodd" fill-opacity="0.5"/>
<polyline clip-path="url(#clip132)" style="stroke:#000000; stroke-linecap:round; stroke-linejoin:round; stroke-width:4; stroke-opacity:0.5; fill:none" points="965.049,192.368 965.049,1042.58 987.592,1042.58 987.592,192.368 965.049,192.368 "/>
<path clip-path="url(#clip132)" d="M993.228 137.765 L993.228 1042.58 L1015.77 1042.58 L1015.77 137.765 L993.228 137.765 L993.228 137.765  Z" fill="#009af9" fill-rule="evenodd" fill-opacity="0.5"/>
<polyline clip-path="url(#clip132)" style="stroke:#000000; stroke-linecap:round; stroke-linejoin:round; stroke-width:4; stroke-opacity:0.5; fill:none" points="993.228,137.765 993.228,1042.58 1015.77,1042.58 1015.77,137.765 993.228,137.765 "/>
<path clip-path="url(#clip132)" d="M1021.41 309.721 L1021.41 1042.58 L1043.95 1042.58 L1043.95 309.721 L1021.41 309.721 L1021.41 309.721  Z" fill="#009af9" fill-rule="evenodd" fill-opacity="0.5"/>
<polyline clip-path="url(#clip132)" style="stroke:#000000; stroke-linecap:round; stroke-linejoin:round; stroke-width:4; stroke-opacity:0.5; fill:none" points="1021.41,309.721 1021.41,1042.58 1043.95,1042.58 1043.95,309.721 1021.41,309.721 "/>
<path clip-path="url(#clip132)" d="M1049.59 192.368 L1049.59 1042.58 L1072.13 1042.58 L1072.13 192.368 L1049.59 192.368 L1049.59 192.368  Z" fill="#009af9" fill-rule="evenodd" fill-opacity="0.5"/>
<polyline clip-path="url(#clip132)" style="stroke:#000000; stroke-linecap:round; stroke-linejoin:round; stroke-width:4; stroke-opacity:0.5; fill:none" points="1049.59,192.368 1049.59,1042.58 1072.13,1042.58 1072.13,192.368 1049.59,192.368 "/>
<path clip-path="url(#clip132)" d="M1077.77 218.365 L1077.77 1042.58 L1100.31 1042.58 L1100.31 218.365 L1077.77 218.365 L1077.77 218.365  Z" fill="#009af9" fill-rule="evenodd" fill-opacity="0.5"/>
<polyline clip-path="url(#clip132)" style="stroke:#000000; stroke-linecap:round; stroke-linejoin:round; stroke-width:4; stroke-opacity:0.5; fill:none" points="1077.77,218.365 1077.77,1042.58 1100.31,1042.58 1100.31,218.365 1077.77,218.365 "/>
<path clip-path="url(#clip132)" d="M1105.94 320.111 L1105.94 1042.58 L1128.49 1042.58 L1128.49 320.111 L1105.94 320.111 L1105.94 320.111  Z" fill="#009af9" fill-rule="evenodd" fill-opacity="0.5"/>
<polyline clip-path="url(#clip132)" style="stroke:#000000; stroke-linecap:round; stroke-linejoin:round; stroke-width:4; stroke-opacity:0.5; fill:none" points="1105.94,320.111 1105.94,1042.58 1128.49,1042.58 1128.49,320.111 1105.94,320.111 "/>
<path clip-path="url(#clip132)" d="M1134.12 299.774 L1134.12 1042.58 L1156.67 1042.58 L1156.67 299.774 L1134.12 299.774 L1134.12 299.774  Z" fill="#009af9" fill-rule="evenodd" fill-opacity="0.5"/>
<polyline clip-path="url(#clip132)" style="stroke:#000000; stroke-linecap:round; stroke-linejoin:round; stroke-width:4; stroke-opacity:0.5; fill:none" points="1134.12,299.774 1134.12,1042.58 1156.67,1042.58 1156.67,299.774 1134.12,299.774 "/>
<path clip-path="url(#clip132)" d="M1162.3 186.297 L1162.3 1042.58 L1184.85 1042.58 L1184.85 186.297 L1162.3 186.297 L1162.3 186.297  Z" fill="#009af9" fill-rule="evenodd" fill-opacity="0.5"/>
<polyline clip-path="url(#clip132)" style="stroke:#000000; stroke-linecap:round; stroke-linejoin:round; stroke-width:4; stroke-opacity:0.5; fill:none" points="1162.3,186.297 1162.3,1042.58 1184.85,1042.58 1184.85,186.297 1162.3,186.297 "/>
<path clip-path="url(#clip132)" d="M1190.48 272.245 L1190.48 1042.58 L1213.03 1042.58 L1213.03 272.245 L1190.48 272.245 L1190.48 272.245  Z" fill="#009af9" fill-rule="evenodd" fill-opacity="0.5"/>
<polyline clip-path="url(#clip132)" style="stroke:#000000; stroke-linecap:round; stroke-linejoin:round; stroke-width:4; stroke-opacity:0.5; fill:none" points="1190.48,272.245 1190.48,1042.58 1213.03,1042.58 1213.03,272.245 1190.48,272.245 "/>
<path clip-path="url(#clip132)" d="M1218.66 211.589 L1218.66 1042.58 L1241.21 1042.58 L1241.21 211.589 L1218.66 211.589 L1218.66 211.589  Z" fill="#009af9" fill-rule="evenodd" fill-opacity="0.5"/>
<polyline clip-path="url(#clip132)" style="stroke:#000000; stroke-linecap:round; stroke-linejoin:round; stroke-width:4; stroke-opacity:0.5; fill:none" points="1218.66,211.589 1218.66,1042.58 1241.21,1042.58 1241.21,211.589 1218.66,211.589 "/>
<path clip-path="url(#clip132)" d="M1246.84 198.601 L1246.84 1042.58 L1269.38 1042.58 L1269.38 198.601 L1246.84 198.601 L1246.84 198.601  Z" fill="#009af9" fill-rule="evenodd" fill-opacity="0.5"/>
<polyline clip-path="url(#clip132)" style="stroke:#000000; stroke-linecap:round; stroke-linejoin:round; stroke-width:4; stroke-opacity:0.5; fill:none" points="1246.84,198.601 1246.84,1042.58 1269.38,1042.58 1269.38,198.601 1246.84,198.601 "/>
<path clip-path="url(#clip132)" d="M1275.02 180.379 L1275.02 1042.58 L1297.56 1042.58 L1297.56 180.379 L1275.02 180.379 L1275.02 180.379  Z" fill="#009af9" fill-rule="evenodd" fill-opacity="0.5"/>
<polyline clip-path="url(#clip132)" style="stroke:#000000; stroke-linecap:round; stroke-linejoin:round; stroke-width:4; stroke-opacity:0.5; fill:none" points="1275.02,180.379 1275.02,1042.58 1297.56,1042.58 1297.56,180.379 1275.02,180.379 "/>
<path clip-path="url(#clip132)" d="M1303.2 281.066 L1303.2 1042.58 L1325.74 1042.58 L1325.74 281.066 L1303.2 281.066 L1303.2 281.066  Z" fill="#009af9" fill-rule="evenodd" fill-opacity="0.5"/>
<polyline clip-path="url(#clip132)" style="stroke:#000000; stroke-linecap:round; stroke-linejoin:round; stroke-width:4; stroke-opacity:0.5; fill:none" points="1303.2,281.066 1303.2,1042.58 1325.74,1042.58 1325.74,281.066 1303.2,281.066 "/>
<path clip-path="url(#clip132)" d="M1331.38 299.774 L1331.38 1042.58 L1353.92 1042.58 L1353.92 299.774 L1331.38 299.774 L1331.38 299.774  Z" fill="#009af9" fill-rule="evenodd" fill-opacity="0.5"/>
<polyline clip-path="url(#clip132)" style="stroke:#000000; stroke-linecap:round; stroke-linejoin:round; stroke-width:4; stroke-opacity:0.5; fill:none" points="1331.38,299.774 1331.38,1042.58 1353.92,1042.58 1353.92,299.774 1331.38,299.774 "/>
<path clip-path="url(#clip132)" d="M1359.56 158.103 L1359.56 1042.58 L1382.1 1042.58 L1382.1 158.103 L1359.56 158.103 L1359.56 158.103  Z" fill="#009af9" fill-rule="evenodd" fill-opacity="0.5"/>
<polyline clip-path="url(#clip132)" style="stroke:#000000; stroke-linecap:round; stroke-linejoin:round; stroke-width:4; stroke-opacity:0.5; fill:none" points="1359.56,158.103 1359.56,1042.58 1382.1,1042.58 1382.1,158.103 1359.56,158.103 "/>
<path clip-path="url(#clip132)" d="M1387.74 263.744 L1387.74 1042.58 L1410.28 1042.58 L1410.28 263.744 L1387.74 263.744 L1387.74 263.744  Z" fill="#009af9" fill-rule="evenodd" fill-opacity="0.5"/>
<polyline clip-path="url(#clip132)" style="stroke:#000000; stroke-linecap:round; stroke-linejoin:round; stroke-width:4; stroke-opacity:0.5; fill:none" points="1387.74,263.744 1387.74,1042.58 1410.28,1042.58 1410.28,263.744 1387.74,263.744 "/>
<path clip-path="url(#clip132)" d="M1415.92 163.476 L1415.92 1042.58 L1438.46 1042.58 L1438.46 163.476 L1415.92 163.476 L1415.92 163.476  Z" fill="#009af9" fill-rule="evenodd" fill-opacity="0.5"/>
<polyline clip-path="url(#clip132)" style="stroke:#000000; stroke-linecap:round; stroke-linejoin:round; stroke-width:4; stroke-opacity:0.5; fill:none" points="1415.92,163.476 1415.92,1042.58 1438.46,1042.58 1438.46,163.476 1415.92,163.476 "/>
<path clip-path="url(#clip132)" d="M1444.1 272.245 L1444.1 1042.58 L1466.64 1042.58 L1466.64 272.245 L1444.1 272.245 L1444.1 272.245  Z" fill="#009af9" fill-rule="evenodd" fill-opacity="0.5"/>
<polyline clip-path="url(#clip132)" style="stroke:#000000; stroke-linecap:round; stroke-linejoin:round; stroke-width:4; stroke-opacity:0.5; fill:none" points="1444.1,272.245 1444.1,1042.58 1466.64,1042.58 1466.64,272.245 1444.1,272.245 "/>
<path clip-path="url(#clip132)" d="M1472.28 114.605 L1472.28 1042.58 L1494.82 1042.58 L1494.82 114.605 L1472.28 114.605 L1472.28 114.605  Z" fill="#009af9" fill-rule="evenodd" fill-opacity="0.5"/>
<polyline clip-path="url(#clip132)" style="stroke:#000000; stroke-linecap:round; stroke-linejoin:round; stroke-width:4; stroke-opacity:0.5; fill:none" points="1472.28,114.605 1472.28,1042.58 1494.82,1042.58 1494.82,114.605 1472.28,114.605 "/>
<path clip-path="url(#clip132)" d="M1500.45 354.376 L1500.45 1042.58 L1523 1042.58 L1523 354.376 L1500.45 354.376 L1500.45 354.376  Z" fill="#009af9" fill-rule="evenodd" fill-opacity="0.5"/>
<polyline clip-path="url(#clip132)" style="stroke:#000000; stroke-linecap:round; stroke-linejoin:round; stroke-width:4; stroke-opacity:0.5; fill:none" points="1500.45,354.376 1500.45,1042.58 1523,1042.58 1523,354.376 1500.45,354.376 "/>
<path clip-path="url(#clip132)" d="M1528.63 330.984 L1528.63 1042.58 L1551.18 1042.58 L1551.18 330.984 L1528.63 330.984 L1528.63 330.984  Z" fill="#009af9" fill-rule="evenodd" fill-opacity="0.5"/>
<polyline clip-path="url(#clip132)" style="stroke:#000000; stroke-linecap:round; stroke-linejoin:round; stroke-width:4; stroke-opacity:0.5; fill:none" points="1528.63,330.984 1528.63,1042.58 1551.18,1042.58 1551.18,330.984 1528.63,330.984 "/>
<path clip-path="url(#clip132)" d="M1556.81 142.686 L1556.81 1042.58 L1579.36 1042.58 L1579.36 142.686 L1556.81 142.686 L1556.81 142.686  Z" fill="#009af9" fill-rule="evenodd" fill-opacity="0.5"/>
<polyline clip-path="url(#clip132)" style="stroke:#000000; stroke-linecap:round; stroke-linejoin:round; stroke-width:4; stroke-opacity:0.5; fill:none" points="1556.81,142.686 1556.81,1042.58 1579.36,1042.58 1579.36,142.686 1556.81,142.686 "/>
<path clip-path="url(#clip132)" d="M1584.99 281.066 L1584.99 1042.58 L1607.54 1042.58 L1607.54 281.066 L1584.99 281.066 L1584.99 281.066  Z" fill="#009af9" fill-rule="evenodd" fill-opacity="0.5"/>
<polyline clip-path="url(#clip132)" style="stroke:#000000; stroke-linecap:round; stroke-linejoin:round; stroke-width:4; stroke-opacity:0.5; fill:none" points="1584.99,281.066 1584.99,1042.58 1607.54,1042.58 1607.54,281.066 1584.99,281.066 "/>
<path clip-path="url(#clip132)" d="M1613.17 119.057 L1613.17 1042.58 L1635.71 1042.58 L1635.71 119.057 L1613.17 119.057 L1613.17 119.057  Z" fill="#009af9" fill-rule="evenodd" fill-opacity="0.5"/>
<polyline clip-path="url(#clip132)" style="stroke:#000000; stroke-linecap:round; stroke-linejoin:round; stroke-width:4; stroke-opacity:0.5; fill:none" points="1613.17,119.057 1613.17,1042.58 1635.71,1042.58 1635.71,119.057 1613.17,119.057 "/>
<path clip-path="url(#clip132)" d="M1641.35 168.976 L1641.35 1042.58 L1663.89 1042.58 L1663.89 168.976 L1641.35 168.976 L1641.35 168.976  Z" fill="#009af9" fill-rule="evenodd" fill-opacity="0.5"/>
<polyline clip-path="url(#clip132)" style="stroke:#000000; stroke-linecap:round; stroke-linejoin:round; stroke-width:4; stroke-opacity:0.5; fill:none" points="1641.35,168.976 1641.35,1042.58 1663.89,1042.58 1663.89,168.976 1641.35,168.976 "/>
<path clip-path="url(#clip132)" d="M1669.53 211.589 L1669.53 1042.58 L1692.07 1042.58 L1692.07 211.589 L1669.53 211.589 L1669.53 211.589  Z" fill="#009af9" fill-rule="evenodd" fill-opacity="0.5"/>
<polyline clip-path="url(#clip132)" style="stroke:#000000; stroke-linecap:round; stroke-linejoin:round; stroke-width:4; stroke-opacity:0.5; fill:none" points="1669.53,211.589 1669.53,1042.58 1692.07,1042.58 1692.07,211.589 1669.53,211.589 "/>
<path clip-path="url(#clip132)" d="M1697.71 394.543 L1697.71 1042.58 L1720.25 1042.58 L1720.25 394.543 L1697.71 394.543 L1697.71 394.543  Z" fill="#009af9" fill-rule="evenodd" fill-opacity="0.5"/>
<polyline clip-path="url(#clip132)" style="stroke:#000000; stroke-linecap:round; stroke-linejoin:round; stroke-width:4; stroke-opacity:0.5; fill:none" points="1697.71,394.543 1697.71,1042.58 1720.25,1042.58 1720.25,394.543 1697.71,394.543 "/>
<path clip-path="url(#clip132)" d="M1725.89 309.721 L1725.89 1042.58 L1748.43 1042.58 L1748.43 309.721 L1725.89 309.721 L1725.89 309.721  Z" fill="#009af9" fill-rule="evenodd" fill-opacity="0.5"/>
<polyline clip-path="url(#clip132)" style="stroke:#000000; stroke-linecap:round; stroke-linejoin:round; stroke-width:4; stroke-opacity:0.5; fill:none" points="1725.89,309.721 1725.89,1042.58 1748.43,1042.58 1748.43,309.721 1725.89,309.721 "/>
<path clip-path="url(#clip132)" d="M1754.07 123.596 L1754.07 1042.58 L1776.61 1042.58 L1776.61 123.596 L1754.07 123.596 L1754.07 123.596  Z" fill="#009af9" fill-rule="evenodd" fill-opacity="0.5"/>
<polyline clip-path="url(#clip132)" style="stroke:#000000; stroke-linecap:round; stroke-linejoin:round; stroke-width:4; stroke-opacity:0.5; fill:none" points="1754.07,123.596 1754.07,1042.58 1776.61,1042.58 1776.61,123.596 1754.07,123.596 "/>
<path clip-path="url(#clip132)" d="M1782.25 225.342 L1782.25 1042.58 L1804.79 1042.58 L1804.79 225.342 L1782.25 225.342 L1782.25 225.342  Z" fill="#009af9" fill-rule="evenodd" fill-opacity="0.5"/>
<polyline clip-path="url(#clip132)" style="stroke:#000000; stroke-linecap:round; stroke-linejoin:round; stroke-width:4; stroke-opacity:0.5; fill:none" points="1782.25,225.342 1782.25,1042.58 1804.79,1042.58 1804.79,225.342 1782.25,225.342 "/>
<path clip-path="url(#clip132)" d="M1810.43 128.224 L1810.43 1042.58 L1832.97 1042.58 L1832.97 128.224 L1810.43 128.224 L1810.43 128.224  Z" fill="#009af9" fill-rule="evenodd" fill-opacity="0.5"/>
<polyline clip-path="url(#clip132)" style="stroke:#000000; stroke-linecap:round; stroke-linejoin:round; stroke-width:4; stroke-opacity:0.5; fill:none" points="1810.43,128.224 1810.43,1042.58 1832.97,1042.58 1832.97,128.224 1810.43,128.224 "/>
<path clip-path="url(#clip132)" d="M1838.61 110.236 L1838.61 1042.58 L1861.15 1042.58 L1861.15 110.236 L1838.61 110.236 L1838.61 110.236  Z" fill="#009af9" fill-rule="evenodd" fill-opacity="0.5"/>
<polyline clip-path="url(#clip132)" style="stroke:#000000; stroke-linecap:round; stroke-linejoin:round; stroke-width:4; stroke-opacity:0.5; fill:none" points="1838.61,110.236 1838.61,1042.58 1861.15,1042.58 1861.15,110.236 1838.61,110.236 "/>
<path clip-path="url(#clip132)" d="M1866.78 142.686 L1866.78 1042.58 L1889.33 1042.58 L1889.33 142.686 L1866.78 142.686 L1866.78 142.686  Z" fill="#009af9" fill-rule="evenodd" fill-opacity="0.5"/>
<polyline clip-path="url(#clip132)" style="stroke:#000000; stroke-linecap:round; stroke-linejoin:round; stroke-width:4; stroke-opacity:0.5; fill:none" points="1866.78,142.686 1866.78,1042.58 1889.33,1042.58 1889.33,142.686 1866.78,142.686 "/>
<path clip-path="url(#clip132)" d="M1894.96 174.608 L1894.96 1042.58 L1917.51 1042.58 L1917.51 174.608 L1894.96 174.608 L1894.96 174.608  Z" fill="#009af9" fill-rule="evenodd" fill-opacity="0.5"/>
<polyline clip-path="url(#clip132)" style="stroke:#000000; stroke-linecap:round; stroke-linejoin:round; stroke-width:4; stroke-opacity:0.5; fill:none" points="1894.96,174.608 1894.96,1042.58 1917.51,1042.58 1917.51,174.608 1894.96,174.608 "/>
<path clip-path="url(#clip132)" d="M1923.14 205.005 L1923.14 1042.58 L1945.69 1042.58 L1945.69 205.005 L1923.14 205.005 L1923.14 205.005  Z" fill="#009af9" fill-rule="evenodd" fill-opacity="0.5"/>
<polyline clip-path="url(#clip132)" style="stroke:#000000; stroke-linecap:round; stroke-linejoin:round; stroke-width:4; stroke-opacity:0.5; fill:none" points="1923.14,205.005 1923.14,1042.58 1945.69,1042.58 1945.69,205.005 1923.14,205.005 "/>
<path clip-path="url(#clip132)" d="M1951.32 205.005 L1951.32 1042.58 L1973.87 1042.58 L1973.87 205.005 L1951.32 205.005 L1951.32 205.005  Z" fill="#009af9" fill-rule="evenodd" fill-opacity="0.5"/>
<polyline clip-path="url(#clip132)" style="stroke:#000000; stroke-linecap:round; stroke-linejoin:round; stroke-width:4; stroke-opacity:0.5; fill:none" points="1951.32,205.005 1951.32,1042.58 1973.87,1042.58 1973.87,205.005 1951.32,205.005 "/>
<path clip-path="url(#clip132)" d="M1979.5 218.365 L1979.5 1042.58 L2002.04 1042.58 L2002.04 218.365 L1979.5 218.365 L1979.5 218.365  Z" fill="#009af9" fill-rule="evenodd" fill-opacity="0.5"/>
<polyline clip-path="url(#clip132)" style="stroke:#000000; stroke-linecap:round; stroke-linejoin:round; stroke-width:4; stroke-opacity:0.5; fill:none" points="1979.5,218.365 1979.5,1042.58 2002.04,1042.58 2002.04,218.365 1979.5,218.365 "/>
<path clip-path="url(#clip132)" d="M2007.68 205.005 L2007.68 1042.58 L2030.22 1042.58 L2030.22 205.005 L2007.68 205.005 L2007.68 205.005  Z" fill="#009af9" fill-rule="evenodd" fill-opacity="0.5"/>
<polyline clip-path="url(#clip132)" style="stroke:#000000; stroke-linecap:round; stroke-linejoin:round; stroke-width:4; stroke-opacity:0.5; fill:none" points="2007.68,205.005 2007.68,1042.58 2030.22,1042.58 2030.22,205.005 2007.68,205.005 "/>
<path clip-path="url(#clip132)" d="M2035.86 186.297 L2035.86 1042.58 L2058.4 1042.58 L2058.4 186.297 L2035.86 186.297 L2035.86 186.297  Z" fill="#009af9" fill-rule="evenodd" fill-opacity="0.5"/>
<polyline clip-path="url(#clip132)" style="stroke:#000000; stroke-linecap:round; stroke-linejoin:round; stroke-width:4; stroke-opacity:0.5; fill:none" points="2035.86,186.297 2035.86,1042.58 2058.4,1042.58 2058.4,186.297 2035.86,186.297 "/>
<path clip-path="url(#clip132)" d="M2064.04 192.368 L2064.04 1042.58 L2086.58 1042.58 L2086.58 192.368 L2064.04 192.368 L2064.04 192.368  Z" fill="#009af9" fill-rule="evenodd" fill-opacity="0.5"/>
<polyline clip-path="url(#clip132)" style="stroke:#000000; stroke-linecap:round; stroke-linejoin:round; stroke-width:4; stroke-opacity:0.5; fill:none" points="2064.04,192.368 2064.04,1042.58 2086.58,1042.58 2086.58,192.368 2064.04,192.368 "/>
<path clip-path="url(#clip132)" d="M2092.22 320.111 L2092.22 1042.58 L2114.76 1042.58 L2114.76 320.111 L2092.22 320.111 L2092.22 320.111  Z" fill="#009af9" fill-rule="evenodd" fill-opacity="0.5"/>
<polyline clip-path="url(#clip132)" style="stroke:#000000; stroke-linecap:round; stroke-linejoin:round; stroke-width:4; stroke-opacity:0.5; fill:none" points="2092.22,320.111 2092.22,1042.58 2114.76,1042.58 2114.76,320.111 2092.22,320.111 "/>
<path clip-path="url(#clip132)" d="M2120.4 290.233 L2120.4 1042.58 L2142.94 1042.58 L2142.94 290.233 L2120.4 290.233 L2120.4 290.233  Z" fill="#009af9" fill-rule="evenodd" fill-opacity="0.5"/>
<polyline clip-path="url(#clip132)" style="stroke:#000000; stroke-linecap:round; stroke-linejoin:round; stroke-width:4; stroke-opacity:0.5; fill:none" points="2120.4,290.233 2120.4,1042.58 2142.94,1042.58 2142.94,290.233 2120.4,290.233 "/>
<path clip-path="url(#clip132)" d="M2148.58 225.342 L2148.58 1042.58 L2171.12 1042.58 L2171.12 225.342 L2148.58 225.342 L2148.58 225.342  Z" fill="#009af9" fill-rule="evenodd" fill-opacity="0.5"/>
<polyline clip-path="url(#clip132)" style="stroke:#000000; stroke-linecap:round; stroke-linejoin:round; stroke-width:4; stroke-opacity:0.5; fill:none" points="2148.58,225.342 2148.58,1042.58 2171.12,1042.58 2171.12,225.342 2148.58,225.342 "/>
<path clip-path="url(#clip132)" d="M2176.76 272.245 L2176.76 1042.58 L2199.3 1042.58 L2199.3 272.245 L2176.76 272.245 L2176.76 272.245  Z" fill="#009af9" fill-rule="evenodd" fill-opacity="0.5"/>
<polyline clip-path="url(#clip132)" style="stroke:#000000; stroke-linecap:round; stroke-linejoin:round; stroke-width:4; stroke-opacity:0.5; fill:none" points="2176.76,272.245 2176.76,1042.58 2199.3,1042.58 2199.3,272.245 2176.76,272.245 "/>
<path clip-path="url(#clip132)" d="M2204.94 247.619 L2204.94 1042.58 L2227.48 1042.58 L2227.48 247.619 L2204.94 247.619 L2204.94 247.619  Z" fill="#009af9" fill-rule="evenodd" fill-opacity="0.5"/>
<polyline clip-path="url(#clip132)" style="stroke:#000000; stroke-linecap:round; stroke-linejoin:round; stroke-width:4; stroke-opacity:0.5; fill:none" points="2204.94,247.619 2204.94,1042.58 2227.48,1042.58 2227.48,247.619 2204.94,247.619 "/>
<path clip-path="url(#clip132)" d="M2233.11 309.721 L2233.11 1042.58 L2255.66 1042.58 L2255.66 309.721 L2233.11 309.721 L2233.11 309.721  Z" fill="#009af9" fill-rule="evenodd" fill-opacity="0.5"/>
<polyline clip-path="url(#clip132)" style="stroke:#000000; stroke-linecap:round; stroke-linejoin:round; stroke-width:4; stroke-opacity:0.5; fill:none" points="2233.11,309.721 2233.11,1042.58 2255.66,1042.58 2255.66,309.721 2233.11,309.721 "/>
<path clip-path="url(#clip132)" d="M2261.29 290.233 L2261.29 1042.58 L2283.84 1042.58 L2283.84 290.233 L2261.29 290.233 L2261.29 290.233  Z" fill="#009af9" fill-rule="evenodd" fill-opacity="0.5"/>
<polyline clip-path="url(#clip132)" style="stroke:#000000; stroke-linecap:round; stroke-linejoin:round; stroke-width:4; stroke-opacity:0.5; fill:none" points="2261.29,290.233 2261.29,1042.58 2283.84,1042.58 2283.84,290.233 2261.29,290.233 "/>
<path clip-path="url(#clip132)" d="M2289.47 443.074 L2289.47 1042.58 L2312.02 1042.58 L2312.02 443.074 L2289.47 443.074 L2289.47 443.074  Z" fill="#009af9" fill-rule="evenodd" fill-opacity="0.5"/>
<polyline clip-path="url(#clip132)" style="stroke:#000000; stroke-linecap:round; stroke-linejoin:round; stroke-width:4; stroke-opacity:0.5; fill:none" points="2289.47,443.074 2289.47,1042.58 2312.02,1042.58 2312.02,443.074 2289.47,443.074 "/>
<path clip-path="url(#clip132)" d="M2317.65 380.373 L2317.65 1042.58 L2340.2 1042.58 L2340.2 380.373 L2317.65 380.373 L2317.65 380.373  Z" fill="#009af9" fill-rule="evenodd" fill-opacity="0.5"/>
<polyline clip-path="url(#clip132)" style="stroke:#000000; stroke-linecap:round; stroke-linejoin:round; stroke-width:4; stroke-opacity:0.5; fill:none" points="2317.65,380.373 2317.65,1042.58 2340.2,1042.58 2340.2,380.373 2317.65,380.373 "/>
<path clip-path="url(#clip132)" d="M2345.83 239.955 L2345.83 1042.58 L2368.38 1042.58 L2368.38 239.955 L2345.83 239.955 L2345.83 239.955  Z" fill="#009af9" fill-rule="evenodd" fill-opacity="0.5"/>
<polyline clip-path="url(#clip132)" style="stroke:#000000; stroke-linecap:round; stroke-linejoin:round; stroke-width:4; stroke-opacity:0.5; fill:none" points="2345.83,239.955 2345.83,1042.58 2368.38,1042.58 2368.38,239.955 2345.83,239.955 "/>
<path clip-path="url(#clip132)" d="M2374.01 299.774 L2374.01 1042.58 L2396.55 1042.58 L2396.55 299.774 L2374.01 299.774 L2374.01 299.774  Z" fill="#009af9" fill-rule="evenodd" fill-opacity="0.5"/>
<polyline clip-path="url(#clip132)" style="stroke:#000000; stroke-linecap:round; stroke-linejoin:round; stroke-width:4; stroke-opacity:0.5; fill:none" points="2374.01,299.774 2374.01,1042.58 2396.55,1042.58 2396.55,299.774 2374.01,299.774 "/>
<path clip-path="url(#clip132)" d="M2402.19 281.066 L2402.19 1042.58 L2424.73 1042.58 L2424.73 281.066 L2402.19 281.066 L2402.19 281.066  Z" fill="#009af9" fill-rule="evenodd" fill-opacity="0.5"/>
<polyline clip-path="url(#clip132)" style="stroke:#000000; stroke-linecap:round; stroke-linejoin:round; stroke-width:4; stroke-opacity:0.5; fill:none" points="2402.19,281.066 2402.19,1042.58 2424.73,1042.58 2424.73,281.066 2402.19,281.066 "/>
<path clip-path="url(#clip132)" d="M2430.37 290.233 L2430.37 1042.58 L2452.91 1042.58 L2452.91 290.233 L2430.37 290.233 L2430.37 290.233  Z" fill="#009af9" fill-rule="evenodd" fill-opacity="0.5"/>
<polyline clip-path="url(#clip132)" style="stroke:#000000; stroke-linecap:round; stroke-linejoin:round; stroke-width:4; stroke-opacity:0.5; fill:none" points="2430.37,290.233 2430.37,1042.58 2452.91,1042.58 2452.91,290.233 2430.37,290.233 "/>
<path clip-path="url(#clip132)" d="M2458.55 342.388 L2458.55 1042.58 L2481.09 1042.58 L2481.09 342.388 L2458.55 342.388 L2458.55 342.388  Z" fill="#009af9" fill-rule="evenodd" fill-opacity="0.5"/>
<polyline clip-path="url(#clip132)" style="stroke:#000000; stroke-linecap:round; stroke-linejoin:round; stroke-width:4; stroke-opacity:0.5; fill:none" points="2458.55,342.388 2458.55,1042.58 2481.09,1042.58 2481.09,342.388 2458.55,342.388 "/>
<path clip-path="url(#clip132)" d="M2486.73 529.022 L2486.73 1042.58 L2509.27 1042.58 L2509.27 529.022 L2486.73 529.022 L2486.73 529.022  Z" fill="#009af9" fill-rule="evenodd" fill-opacity="0.5"/>
<polyline clip-path="url(#clip132)" style="stroke:#000000; stroke-linecap:round; stroke-linejoin:round; stroke-width:4; stroke-opacity:0.5; fill:none" points="2486.73,529.022 2486.73,1042.58 2509.27,1042.58 2509.27,529.022 2486.73,529.022 "/>
<path clip-path="url(#clip132)" d="M2514.91 409.627 L2514.91 1042.58 L2537.45 1042.58 L2537.45 409.627 L2514.91 409.627 L2514.91 409.627  Z" fill="#009af9" fill-rule="evenodd" fill-opacity="0.5"/>
<polyline clip-path="url(#clip132)" style="stroke:#000000; stroke-linecap:round; stroke-linejoin:round; stroke-width:4; stroke-opacity:0.5; fill:none" points="2514.91,409.627 2514.91,1042.58 2537.45,1042.58 2537.45,409.627 2514.91,409.627 "/>
<path clip-path="url(#clip132)" d="M2543.09 367.013 L2543.09 1042.58 L2565.63 1042.58 L2565.63 367.013 L2543.09 367.013 L2543.09 367.013  Z" fill="#009af9" fill-rule="evenodd" fill-opacity="0.5"/>
<polyline clip-path="url(#clip132)" style="stroke:#000000; stroke-linecap:round; stroke-linejoin:round; stroke-width:4; stroke-opacity:0.5; fill:none" points="2543.09,367.013 2543.09,1042.58 2565.63,1042.58 2565.63,367.013 2543.09,367.013 "/>
<path clip-path="url(#clip132)" d="M2571.27 239.955 L2571.27 1042.58 L2593.81 1042.58 L2593.81 239.955 L2571.27 239.955 L2571.27 239.955  Z" fill="#009af9" fill-rule="evenodd" fill-opacity="0.5"/>
<polyline clip-path="url(#clip132)" style="stroke:#000000; stroke-linecap:round; stroke-linejoin:round; stroke-width:4; stroke-opacity:0.5; fill:none" points="2571.27,239.955 2571.27,1042.58 2593.81,1042.58 2593.81,239.955 2571.27,239.955 "/>
<path clip-path="url(#clip132)" d="M2599.44 342.388 L2599.44 1042.58 L2621.99 1042.58 L2621.99 342.388 L2599.44 342.388 L2599.44 342.388  Z" fill="#009af9" fill-rule="evenodd" fill-opacity="0.5"/>
<polyline clip-path="url(#clip132)" style="stroke:#000000; stroke-linecap:round; stroke-linejoin:round; stroke-width:4; stroke-opacity:0.5; fill:none" points="2599.44,342.388 2599.44,1042.58 2621.99,1042.58 2621.99,342.388 2599.44,342.388 "/>
<path clip-path="url(#clip132)" d="M2627.62 330.984 L2627.62 1042.58 L2650.17 1042.58 L2650.17 330.984 L2627.62 330.984 L2627.62 330.984  Z" fill="#009af9" fill-rule="evenodd" fill-opacity="0.5"/>
<polyline clip-path="url(#clip132)" style="stroke:#000000; stroke-linecap:round; stroke-linejoin:round; stroke-width:4; stroke-opacity:0.5; fill:none" points="2627.62,330.984 2627.62,1042.58 2650.17,1042.58 2650.17,330.984 2627.62,330.984 "/>
<path clip-path="url(#clip132)" d="M2655.8 482.119 L2655.8 1042.58 L2678.35 1042.58 L2678.35 482.119 L2655.8 482.119 L2655.8 482.119  Z" fill="#009af9" fill-rule="evenodd" fill-opacity="0.5"/>
<polyline clip-path="url(#clip132)" style="stroke:#000000; stroke-linecap:round; stroke-linejoin:round; stroke-width:4; stroke-opacity:0.5; fill:none" points="2655.8,482.119 2655.8,1042.58 2678.35,1042.58 2678.35,482.119 2655.8,482.119 "/>
<path clip-path="url(#clip132)" d="M2683.98 461.782 L2683.98 1042.58 L2706.53 1042.58 L2706.53 461.782 L2683.98 461.782 L2683.98 461.782  Z" fill="#009af9" fill-rule="evenodd" fill-opacity="0.5"/>
<polyline clip-path="url(#clip132)" style="stroke:#000000; stroke-linecap:round; stroke-linejoin:round; stroke-width:4; stroke-opacity:0.5; fill:none" points="2683.98,461.782 2683.98,1042.58 2706.53,1042.58 2706.53,461.782 2683.98,461.782 "/>
<path clip-path="url(#clip132)" d="M2712.16 666.404 L2712.16 1042.58 L2734.71 1042.58 L2734.71 666.404 L2712.16 666.404 L2712.16 666.404  Z" fill="#009af9" fill-rule="evenodd" fill-opacity="0.5"/>
<polyline clip-path="url(#clip132)" style="stroke:#000000; stroke-linecap:round; stroke-linejoin:round; stroke-width:4; stroke-opacity:0.5; fill:none" points="2712.16,666.404 2712.16,1042.58 2734.71,1042.58 2734.71,666.404 2712.16,666.404 "/>
<path clip-path="url(#clip132)" d="M2740.34 666.404 L2740.34 1042.58 L2762.88 1042.58 L2762.88 666.404 L2740.34 666.404 L2740.34 666.404  Z" fill="#009af9" fill-rule="evenodd" fill-opacity="0.5"/>
<polyline clip-path="url(#clip132)" style="stroke:#000000; stroke-linecap:round; stroke-linejoin:round; stroke-width:4; stroke-opacity:0.5; fill:none" points="2740.34,666.404 2740.34,1042.58 2762.88,1042.58 2762.88,666.404 2740.34,666.404 "/>
<path clip-path="url(#clip132)" d="M2768.52 1042.58 L2768.52 1042.58 L2791.06 1042.58 L2791.06 1042.58 L2768.52 1042.58 L2768.52 1042.58  Z" fill="#009af9" fill-rule="evenodd" fill-opacity="0.5"/>
<polyline clip-path="url(#clip132)" style="stroke:#000000; stroke-linecap:round; stroke-linejoin:round; stroke-width:4; stroke-opacity:0.5; fill:none" points="2768.52,1042.58 2768.52,1042.58 2791.06,1042.58 2768.52,1042.58 "/>
<path clip-path="url(#clip132)" d="M2796.7 1042.58 L2796.7 1042.58 L2819.24 1042.58 L2819.24 1042.58 L2796.7 1042.58 L2796.7 1042.58  Z" fill="#009af9" fill-rule="evenodd" fill-opacity="0.5"/>
<polyline clip-path="url(#clip132)" style="stroke:#000000; stroke-linecap:round; stroke-linejoin:round; stroke-width:4; stroke-opacity:0.5; fill:none" points="2796.7,1042.58 2796.7,1042.58 2819.24,1042.58 2796.7,1042.58 "/>
<circle clip-path="url(#clip132)" style="fill:#009af9; stroke:none; fill-opacity:0" cx="300.018" cy="504.396" r="2"/>
<circle clip-path="url(#clip132)" style="fill:#009af9; stroke:none; fill-opacity:0" cx="328.198" cy="482.119" r="2"/>
<circle clip-path="url(#clip132)" style="fill:#009af9; stroke:none; fill-opacity:0" cx="356.377" cy="443.074" r="2"/>
<circle clip-path="url(#clip132)" style="fill:#009af9; stroke:none; fill-opacity:0" cx="384.556" cy="425.753" r="2"/>
<circle clip-path="url(#clip132)" style="fill:#009af9; stroke:none; fill-opacity:0" cx="412.735" cy="409.627" r="2"/>
<circle clip-path="url(#clip132)" style="fill:#009af9; stroke:none; fill-opacity:0" cx="440.915" cy="443.074" r="2"/>
<circle clip-path="url(#clip132)" style="fill:#009af9; stroke:none; fill-opacity:0" cx="469.094" cy="380.373" r="2"/>
<circle clip-path="url(#clip132)" style="fill:#009af9; stroke:none; fill-opacity:0" cx="497.273" cy="425.753" r="2"/>
<circle clip-path="url(#clip132)" style="fill:#009af9; stroke:none; fill-opacity:0" cx="525.452" cy="367.013" r="2"/>
<circle clip-path="url(#clip132)" style="fill:#009af9; stroke:none; fill-opacity:0" cx="553.632" cy="281.066" r="2"/>
<circle clip-path="url(#clip132)" style="fill:#009af9; stroke:none; fill-opacity:0" cx="581.811" cy="186.297" r="2"/>
<circle clip-path="url(#clip132)" style="fill:#009af9; stroke:none; fill-opacity:0" cx="609.99" cy="180.379" r="2"/>
<circle clip-path="url(#clip132)" style="fill:#009af9; stroke:none; fill-opacity:0" cx="638.169" cy="205.005" r="2"/>
<circle clip-path="url(#clip132)" style="fill:#009af9; stroke:none; fill-opacity:0" cx="666.349" cy="330.984" r="2"/>
<circle clip-path="url(#clip132)" style="fill:#009af9; stroke:none; fill-opacity:0" cx="694.528" cy="255.543" r="2"/>
<circle clip-path="url(#clip132)" style="fill:#009af9; stroke:none; fill-opacity:0" cx="722.707" cy="309.721" r="2"/>
<circle clip-path="url(#clip132)" style="fill:#009af9; stroke:none; fill-opacity:0" cx="750.886" cy="380.373" r="2"/>
<circle clip-path="url(#clip132)" style="fill:#009af9; stroke:none; fill-opacity:0" cx="779.066" cy="290.233" r="2"/>
<circle clip-path="url(#clip132)" style="fill:#009af9; stroke:none; fill-opacity:0" cx="807.245" cy="255.543" r="2"/>
<circle clip-path="url(#clip132)" style="fill:#009af9; stroke:none; fill-opacity:0" cx="835.424" cy="255.543" r="2"/>
<circle clip-path="url(#clip132)" style="fill:#009af9; stroke:none; fill-opacity:0" cx="863.603" cy="180.379" r="2"/>
<circle clip-path="url(#clip132)" style="fill:#009af9; stroke:none; fill-opacity:0" cx="891.783" cy="247.619" r="2"/>
<circle clip-path="url(#clip132)" style="fill:#009af9; stroke:none; fill-opacity:0" cx="919.962" cy="281.066" r="2"/>
<circle clip-path="url(#clip132)" style="fill:#009af9; stroke:none; fill-opacity:0" cx="948.141" cy="330.984" r="2"/>
<circle clip-path="url(#clip132)" style="fill:#009af9; stroke:none; fill-opacity:0" cx="976.32" cy="192.368" r="2"/>
<circle clip-path="url(#clip132)" style="fill:#009af9; stroke:none; fill-opacity:0" cx="1004.5" cy="137.765" r="2"/>
<circle clip-path="url(#clip132)" style="fill:#009af9; stroke:none; fill-opacity:0" cx="1032.68" cy="309.721" r="2"/>
<circle clip-path="url(#clip132)" style="fill:#009af9; stroke:none; fill-opacity:0" cx="1060.86" cy="192.368" r="2"/>
<circle clip-path="url(#clip132)" style="fill:#009af9; stroke:none; fill-opacity:0" cx="1089.04" cy="218.365" r="2"/>
<circle clip-path="url(#clip132)" style="fill:#009af9; stroke:none; fill-opacity:0" cx="1117.22" cy="320.111" r="2"/>
<circle clip-path="url(#clip132)" style="fill:#009af9; stroke:none; fill-opacity:0" cx="1145.4" cy="299.774" r="2"/>
<circle clip-path="url(#clip132)" style="fill:#009af9; stroke:none; fill-opacity:0" cx="1173.58" cy="186.297" r="2"/>
<circle clip-path="url(#clip132)" style="fill:#009af9; stroke:none; fill-opacity:0" cx="1201.75" cy="272.245" r="2"/>
<circle clip-path="url(#clip132)" style="fill:#009af9; stroke:none; fill-opacity:0" cx="1229.93" cy="211.589" r="2"/>
<circle clip-path="url(#clip132)" style="fill:#009af9; stroke:none; fill-opacity:0" cx="1258.11" cy="198.601" r="2"/>
<circle clip-path="url(#clip132)" style="fill:#009af9; stroke:none; fill-opacity:0" cx="1286.29" cy="180.379" r="2"/>
<circle clip-path="url(#clip132)" style="fill:#009af9; stroke:none; fill-opacity:0" cx="1314.47" cy="281.066" r="2"/>
<circle clip-path="url(#clip132)" style="fill:#009af9; stroke:none; fill-opacity:0" cx="1342.65" cy="299.774" r="2"/>
<circle clip-path="url(#clip132)" style="fill:#009af9; stroke:none; fill-opacity:0" cx="1370.83" cy="158.103" r="2"/>
<circle clip-path="url(#clip132)" style="fill:#009af9; stroke:none; fill-opacity:0" cx="1399.01" cy="263.744" r="2"/>
<circle clip-path="url(#clip132)" style="fill:#009af9; stroke:none; fill-opacity:0" cx="1427.19" cy="163.476" r="2"/>
<circle clip-path="url(#clip132)" style="fill:#009af9; stroke:none; fill-opacity:0" cx="1455.37" cy="272.245" r="2"/>
<circle clip-path="url(#clip132)" style="fill:#009af9; stroke:none; fill-opacity:0" cx="1483.55" cy="114.605" r="2"/>
<circle clip-path="url(#clip132)" style="fill:#009af9; stroke:none; fill-opacity:0" cx="1511.73" cy="354.376" r="2"/>
<circle clip-path="url(#clip132)" style="fill:#009af9; stroke:none; fill-opacity:0" cx="1539.91" cy="330.984" r="2"/>
<circle clip-path="url(#clip132)" style="fill:#009af9; stroke:none; fill-opacity:0" cx="1568.08" cy="142.686" r="2"/>
<circle clip-path="url(#clip132)" style="fill:#009af9; stroke:none; fill-opacity:0" cx="1596.26" cy="281.066" r="2"/>
<circle clip-path="url(#clip132)" style="fill:#009af9; stroke:none; fill-opacity:0" cx="1624.44" cy="119.057" r="2"/>
<circle clip-path="url(#clip132)" style="fill:#009af9; stroke:none; fill-opacity:0" cx="1652.62" cy="168.976" r="2"/>
<circle clip-path="url(#clip132)" style="fill:#009af9; stroke:none; fill-opacity:0" cx="1680.8" cy="211.589" r="2"/>
<circle clip-path="url(#clip132)" style="fill:#009af9; stroke:none; fill-opacity:0" cx="1708.98" cy="394.543" r="2"/>
<circle clip-path="url(#clip132)" style="fill:#009af9; stroke:none; fill-opacity:0" cx="1737.16" cy="309.721" r="2"/>
<circle clip-path="url(#clip132)" style="fill:#009af9; stroke:none; fill-opacity:0" cx="1765.34" cy="123.596" r="2"/>
<circle clip-path="url(#clip132)" style="fill:#009af9; stroke:none; fill-opacity:0" cx="1793.52" cy="225.342" r="2"/>
<circle clip-path="url(#clip132)" style="fill:#009af9; stroke:none; fill-opacity:0" cx="1821.7" cy="128.224" r="2"/>
<circle clip-path="url(#clip132)" style="fill:#009af9; stroke:none; fill-opacity:0" cx="1849.88" cy="110.236" r="2"/>
<circle clip-path="url(#clip132)" style="fill:#009af9; stroke:none; fill-opacity:0" cx="1878.06" cy="142.686" r="2"/>
<circle clip-path="url(#clip132)" style="fill:#009af9; stroke:none; fill-opacity:0" cx="1906.24" cy="174.608" r="2"/>
<circle clip-path="url(#clip132)" style="fill:#009af9; stroke:none; fill-opacity:0" cx="1934.41" cy="205.005" r="2"/>
<circle clip-path="url(#clip132)" style="fill:#009af9; stroke:none; fill-opacity:0" cx="1962.59" cy="205.005" r="2"/>
<circle clip-path="url(#clip132)" style="fill:#009af9; stroke:none; fill-opacity:0" cx="1990.77" cy="218.365" r="2"/>
<circle clip-path="url(#clip132)" style="fill:#009af9; stroke:none; fill-opacity:0" cx="2018.95" cy="205.005" r="2"/>
<circle clip-path="url(#clip132)" style="fill:#009af9; stroke:none; fill-opacity:0" cx="2047.13" cy="186.297" r="2"/>
<circle clip-path="url(#clip132)" style="fill:#009af9; stroke:none; fill-opacity:0" cx="2075.31" cy="192.368" r="2"/>
<circle clip-path="url(#clip132)" style="fill:#009af9; stroke:none; fill-opacity:0" cx="2103.49" cy="320.111" r="2"/>
<circle clip-path="url(#clip132)" style="fill:#009af9; stroke:none; fill-opacity:0" cx="2131.67" cy="290.233" r="2"/>
<circle clip-path="url(#clip132)" style="fill:#009af9; stroke:none; fill-opacity:0" cx="2159.85" cy="225.342" r="2"/>
<circle clip-path="url(#clip132)" style="fill:#009af9; stroke:none; fill-opacity:0" cx="2188.03" cy="272.245" r="2"/>
<circle clip-path="url(#clip132)" style="fill:#009af9; stroke:none; fill-opacity:0" cx="2216.21" cy="247.619" r="2"/>
<circle clip-path="url(#clip132)" style="fill:#009af9; stroke:none; fill-opacity:0" cx="2244.39" cy="309.721" r="2"/>
<circle clip-path="url(#clip132)" style="fill:#009af9; stroke:none; fill-opacity:0" cx="2272.57" cy="290.233" r="2"/>
<circle clip-path="url(#clip132)" style="fill:#009af9; stroke:none; fill-opacity:0" cx="2300.74" cy="443.074" r="2"/>
<circle clip-path="url(#clip132)" style="fill:#009af9; stroke:none; fill-opacity:0" cx="2328.92" cy="380.373" r="2"/>
<circle clip-path="url(#clip132)" style="fill:#009af9; stroke:none; fill-opacity:0" cx="2357.1" cy="239.955" r="2"/>
<circle clip-path="url(#clip132)" style="fill:#009af9; stroke:none; fill-opacity:0" cx="2385.28" cy="299.774" r="2"/>
<circle clip-path="url(#clip132)" style="fill:#009af9; stroke:none; fill-opacity:0" cx="2413.46" cy="281.066" r="2"/>
<circle clip-path="url(#clip132)" style="fill:#009af9; stroke:none; fill-opacity:0" cx="2441.64" cy="290.233" r="2"/>
<circle clip-path="url(#clip132)" style="fill:#009af9; stroke:none; fill-opacity:0" cx="2469.82" cy="342.388" r="2"/>
<circle clip-path="url(#clip132)" style="fill:#009af9; stroke:none; fill-opacity:0" cx="2498" cy="529.022" r="2"/>
<circle clip-path="url(#clip132)" style="fill:#009af9; stroke:none; fill-opacity:0" cx="2526.18" cy="409.627" r="2"/>
<circle clip-path="url(#clip132)" style="fill:#009af9; stroke:none; fill-opacity:0" cx="2554.36" cy="367.013" r="2"/>
<circle clip-path="url(#clip132)" style="fill:#009af9; stroke:none; fill-opacity:0" cx="2582.54" cy="239.955" r="2"/>
<circle clip-path="url(#clip132)" style="fill:#009af9; stroke:none; fill-opacity:0" cx="2610.72" cy="342.388" r="2"/>
<circle clip-path="url(#clip132)" style="fill:#009af9; stroke:none; fill-opacity:0" cx="2638.9" cy="330.984" r="2"/>
<circle clip-path="url(#clip132)" style="fill:#009af9; stroke:none; fill-opacity:0" cx="2667.08" cy="482.119" r="2"/>
<circle clip-path="url(#clip132)" style="fill:#009af9; stroke:none; fill-opacity:0" cx="2695.25" cy="461.782" r="2"/>
<circle clip-path="url(#clip132)" style="fill:#009af9; stroke:none; fill-opacity:0" cx="2723.43" cy="666.404" r="2"/>
<circle clip-path="url(#clip132)" style="fill:#009af9; stroke:none; fill-opacity:0" cx="2751.61" cy="666.404" r="2"/>
<circle clip-path="url(#clip132)" style="fill:#009af9; stroke:none; fill-opacity:0" cx="2779.79" cy="1042.58" r="2"/>
<circle clip-path="url(#clip132)" style="fill:#009af9; stroke:none; fill-opacity:0" cx="2807.97" cy="1042.58" r="2"/>
</svg>
