<?xml version="1.0" encoding="utf-8"?>
<svg xmlns="http://www.w3.org/2000/svg" xmlns:xlink="http://www.w3.org/1999/xlink" width="800" height="300" viewBox="0 0 3200 1200">
<defs>
  <clipPath id="clip610">
    <rect x="0" y="0" width="3200" height="1200"/>
  </clipPath>
</defs>
<path clip-path="url(#clip610)" d="M0 1200 L3200 1200 L3200 0 L0 0  Z" fill="#ffffff" fill-rule="evenodd" fill-opacity="1"/>
<defs>
  <clipPath id="clip611">
    <rect x="640" y="0" width="2241" height="1200"/>
  </clipPath>
</defs>
<path clip-path="url(#clip610)" d="M271.839 1042.58 L3089.76 1042.58 L3089.76 110.236 L271.839 110.236  Z" fill="#ffffff" fill-rule="evenodd" fill-opacity="1"/>
<defs>
  <clipPath id="clip612">
    <rect x="271" y="110" width="2819" height="933"/>
  </clipPath>
</defs>
<polyline clip-path="url(#clip612)" style="stroke:#000000; stroke-linecap:round; stroke-linejoin:round; stroke-width:2; stroke-opacity:0.1; fill:none" points="1060.86,1042.58 1060.86,110.236 "/>
<polyline clip-path="url(#clip612)" style="stroke:#000000; stroke-linecap:round; stroke-linejoin:round; stroke-width:2; stroke-opacity:0.1; fill:none" points="1934.41,1042.58 1934.41,110.236 "/>
<polyline clip-path="url(#clip612)" style="stroke:#000000; stroke-linecap:round; stroke-linejoin:round; stroke-width:2; stroke-opacity:0.1; fill:none" points="2779.79,1042.58 2779.79,110.236 "/>
<polyline clip-path="url(#clip610)" style="stroke:#000000; stroke-linecap:round; stroke-linejoin:round; stroke-width:4; stroke-opacity:1; fill:none" points="271.839,1042.58 3089.76,1042.58 "/>
<polyline clip-path="url(#clip610)" style="stroke:#000000; stroke-linecap:round; stroke-linejoin:round; stroke-width:4; stroke-opacity:1; fill:none" points="1060.86,1042.58 1060.86,1023.68 "/>
<polyline clip-path="url(#clip610)" style="stroke:#000000; stroke-linecap:round; stroke-linejoin:round; stroke-width:4; stroke-opacity:1; fill:none" points="1934.41,1042.58 1934.41,1023.68 "/>
<polyline clip-path="url(#clip610)" style="stroke:#000000; stroke-linecap:round; stroke-linejoin:round; stroke-width:4; stroke-opacity:1; fill:none" points="2779.79,1042.58 2779.79,1023.68 "/>
<path clip-path="url(#clip610)" d="M932.653 1107.44 L948.972 1107.44 L948.972 1111.38 L927.028 1111.38 L927.028 1107.44 Q929.69 1104.69 934.273 1100.06 Q938.88 1095.4 940.06 1094.06 Q942.305 1091.54 943.185 1089.8 Q944.088 1088.04 944.088 1086.35 Q944.088 1083.6 942.143 1081.86 Q940.222 1080.13 937.12 1080.13 Q934.921 1080.13 932.468 1080.89 Q930.037 1081.65 927.259 1083.2 L927.259 1078.48 Q930.083 1077.35 932.537 1076.77 Q934.991 1076.19 937.028 1076.19 Q942.398 1076.19 945.593 1078.88 Q948.787 1081.56 948.787 1086.05 Q948.787 1088.18 947.977 1090.1 Q947.19 1092 945.083 1094.59 Q944.505 1095.26 941.403 1098.48 Q938.301 1101.68 932.653 1107.44 Z" fill="#000000" fill-rule="nonzero" fill-opacity="1" /><path clip-path="url(#clip610)" d="M968.787 1079.89 Q965.176 1079.89 963.347 1083.46 Q961.541 1087 961.541 1094.13 Q961.541 1101.24 963.347 1104.8 Q965.176 1108.34 968.787 1108.34 Q972.421 1108.34 974.227 1104.8 Q976.055 1101.24 976.055 1094.13 Q976.055 1087 974.227 1083.46 Q972.421 1079.89 968.787 1079.89 M968.787 1076.19 Q974.597 1076.19 977.653 1080.8 Q980.731 1085.38 980.731 1094.13 Q980.731 1102.86 977.653 1107.46 Q974.597 1112.05 968.787 1112.05 Q962.977 1112.05 959.898 1107.46 Q956.842 1102.86 956.842 1094.13 Q956.842 1085.38 959.898 1080.8 Q962.977 1076.19 968.787 1076.19 Z" fill="#000000" fill-rule="nonzero" fill-opacity="1" /><path clip-path="url(#clip610)" d="M992.977 1107.44 L1009.3 1107.44 L1009.3 1111.38 L987.352 1111.38 L987.352 1107.44 Q990.014 1104.69 994.597 1100.06 Q999.203 1095.4 1000.38 1094.06 Q1002.63 1091.54 1003.51 1089.8 Q1004.41 1088.04 1004.41 1086.35 Q1004.41 1083.6 1002.47 1081.86 Q1000.55 1080.13 997.444 1080.13 Q995.245 1080.13 992.791 1080.89 Q990.361 1081.65 987.583 1083.2 L987.583 1078.48 Q990.407 1077.35 992.861 1076.77 Q995.314 1076.19 997.351 1076.19 Q1002.72 1076.19 1005.92 1078.88 Q1009.11 1081.56 1009.11 1086.05 Q1009.11 1088.18 1008.3 1090.1 Q1007.51 1092 1005.41 1094.59 Q1004.83 1095.26 1001.73 1098.48 Q998.625 1101.68 992.977 1107.44 Z" fill="#000000" fill-rule="nonzero" fill-opacity="1" /><path clip-path="url(#clip610)" d="M1031.96 1080.89 L1020.15 1099.34 L1031.96 1099.34 L1031.96 1080.89 M1030.73 1076.82 L1036.61 1076.82 L1036.61 1099.34 L1041.54 1099.34 L1041.54 1103.23 L1036.61 1103.23 L1036.61 1111.38 L1031.96 1111.38 L1031.96 1103.23 L1016.36 1103.23 L1016.36 1098.71 L1030.73 1076.82 Z" fill="#000000" fill-rule="nonzero" fill-opacity="1" /><path clip-path="url(#clip610)" d="M1046.52 1096.49 L1058.99 1096.49 L1058.99 1100.29 L1046.52 1100.29 L1046.52 1096.49 Z" fill="#000000" fill-rule="nonzero" fill-opacity="1" /><path clip-path="url(#clip610)" d="M1067.19 1107.44 L1074.83 1107.44 L1074.83 1081.07 L1066.52 1082.74 L1066.52 1078.48 L1074.78 1076.82 L1079.46 1076.82 L1079.46 1107.44 L1087.1 1107.44 L1087.1 1111.38 L1067.19 1111.38 L1067.19 1107.44 Z" fill="#000000" fill-rule="nonzero" fill-opacity="1" /><path clip-path="url(#clip610)" d="M1106.54 1079.89 Q1102.93 1079.89 1101.1 1083.46 Q1099.3 1087 1099.3 1094.13 Q1099.3 1101.24 1101.1 1104.8 Q1102.93 1108.34 1106.54 1108.34 Q1110.17 1108.34 1111.98 1104.8 Q1113.81 1101.24 1113.81 1094.13 Q1113.81 1087 1111.98 1083.46 Q1110.17 1079.89 1106.54 1079.89 M1106.54 1076.19 Q1112.35 1076.19 1115.41 1080.8 Q1118.49 1085.38 1118.49 1094.13 Q1118.49 1102.86 1115.41 1107.46 Q1112.35 1112.05 1106.54 1112.05 Q1100.73 1112.05 1097.65 1107.46 Q1094.6 1102.86 1094.6 1094.13 Q1094.6 1085.38 1097.65 1080.8 Q1100.73 1076.19 1106.54 1076.19 Z" fill="#000000" fill-rule="nonzero" fill-opacity="1" /><path clip-path="url(#clip610)" d="M1123.95 1096.49 L1136.42 1096.49 L1136.42 1100.29 L1123.95 1100.29 L1123.95 1096.49 Z" fill="#000000" fill-rule="nonzero" fill-opacity="1" /><path clip-path="url(#clip610)" d="M1153.81 1079.89 Q1150.2 1079.89 1148.37 1083.46 Q1146.56 1087 1146.56 1094.13 Q1146.56 1101.24 1148.37 1104.8 Q1150.2 1108.34 1153.81 1108.34 Q1157.44 1108.34 1159.25 1104.8 Q1161.08 1101.24 1161.08 1094.13 Q1161.08 1087 1159.25 1083.46 Q1157.44 1079.89 1153.81 1079.89 M1153.81 1076.19 Q1159.62 1076.19 1162.67 1080.8 Q1165.75 1085.38 1165.75 1094.13 Q1165.75 1102.86 1162.67 1107.46 Q1159.62 1112.05 1153.81 1112.05 Q1148 1112.05 1144.92 1107.46 Q1141.86 1102.86 1141.86 1094.13 Q1141.86 1085.38 1144.92 1080.8 Q1148 1076.19 1153.81 1076.19 Z" fill="#000000" fill-rule="nonzero" fill-opacity="1" /><path clip-path="url(#clip610)" d="M1174.78 1107.44 L1182.42 1107.44 L1182.42 1081.07 L1174.11 1082.74 L1174.11 1078.48 L1182.37 1076.82 L1187.05 1076.82 L1187.05 1107.44 L1194.69 1107.44 L1194.69 1111.38 L1174.78 1111.38 L1174.78 1107.44 Z" fill="#000000" fill-rule="nonzero" fill-opacity="1" /><path clip-path="url(#clip610)" d="M1806.21 1107.44 L1822.53 1107.44 L1822.53 1111.38 L1800.58 1111.38 L1800.58 1107.44 Q1803.25 1104.69 1807.83 1100.06 Q1812.44 1095.4 1813.62 1094.06 Q1815.86 1091.54 1816.74 1089.8 Q1817.64 1088.04 1817.64 1086.35 Q1817.64 1083.6 1815.7 1081.86 Q1813.78 1080.13 1810.68 1080.13 Q1808.48 1080.13 1806.02 1080.89 Q1803.59 1081.65 1800.82 1083.2 L1800.82 1078.48 Q1803.64 1077.35 1806.09 1076.77 Q1808.55 1076.19 1810.58 1076.19 Q1815.95 1076.19 1819.15 1078.88 Q1822.34 1081.56 1822.34 1086.05 Q1822.34 1088.18 1821.53 1090.1 Q1820.75 1092 1818.64 1094.59 Q1818.06 1095.26 1814.96 1098.48 Q1811.86 1101.68 1806.21 1107.44 Z" fill="#000000" fill-rule="nonzero" fill-opacity="1" /><path clip-path="url(#clip610)" d="M1842.34 1079.89 Q1838.73 1079.89 1836.9 1083.46 Q1835.1 1087 1835.1 1094.13 Q1835.1 1101.24 1836.9 1104.8 Q1838.73 1108.34 1842.34 1108.34 Q1845.98 1108.34 1847.78 1104.8 Q1849.61 1101.24 1849.61 1094.13 Q1849.61 1087 1847.78 1083.46 Q1845.98 1079.89 1842.34 1079.89 M1842.34 1076.19 Q1848.15 1076.19 1851.21 1080.8 Q1854.29 1085.38 1854.29 1094.13 Q1854.29 1102.86 1851.21 1107.46 Q1848.15 1112.05 1842.34 1112.05 Q1836.53 1112.05 1833.45 1107.46 Q1830.4 1102.86 1830.4 1094.13 Q1830.4 1085.38 1833.45 1080.8 Q1836.53 1076.19 1842.34 1076.19 Z" fill="#000000" fill-rule="nonzero" fill-opacity="1" /><path clip-path="url(#clip610)" d="M1866.53 1107.44 L1882.85 1107.44 L1882.85 1111.38 L1860.91 1111.38 L1860.91 1107.44 Q1863.57 1104.69 1868.15 1100.06 Q1872.76 1095.4 1873.94 1094.06 Q1876.19 1091.54 1877.07 1089.8 Q1877.97 1088.04 1877.97 1086.35 Q1877.97 1083.6 1876.02 1081.86 Q1874.1 1080.13 1871 1080.13 Q1868.8 1080.13 1866.35 1080.89 Q1863.92 1081.65 1861.14 1083.2 L1861.14 1078.48 Q1863.96 1077.35 1866.42 1076.77 Q1868.87 1076.19 1870.91 1076.19 Q1876.28 1076.19 1879.47 1078.88 Q1882.67 1081.56 1882.67 1086.05 Q1882.67 1088.18 1881.86 1090.1 Q1881.07 1092 1878.96 1094.59 Q1878.38 1095.26 1875.28 1098.48 Q1872.18 1101.68 1866.53 1107.44 Z" fill="#000000" fill-rule="nonzero" fill-opacity="1" /><path clip-path="url(#clip610)" d="M1905.51 1080.89 L1893.71 1099.34 L1905.51 1099.34 L1905.51 1080.89 M1904.29 1076.82 L1910.17 1076.82 L1910.17 1099.34 L1915.1 1099.34 L1915.1 1103.23 L1910.17 1103.23 L1910.17 1111.38 L1905.51 1111.38 L1905.51 1103.23 L1889.91 1103.23 L1889.91 1098.71 L1904.29 1076.82 Z" fill="#000000" fill-rule="nonzero" fill-opacity="1" /><path clip-path="url(#clip610)" d="M1920.07 1096.49 L1932.55 1096.49 L1932.55 1100.29 L1920.07 1100.29 L1920.07 1096.49 Z" fill="#000000" fill-rule="nonzero" fill-opacity="1" /><path clip-path="url(#clip610)" d="M1940.75 1107.44 L1948.38 1107.44 L1948.38 1081.07 L1940.07 1082.74 L1940.07 1078.48 L1948.34 1076.82 L1953.01 1076.82 L1953.01 1107.44 L1960.65 1107.44 L1960.65 1111.38 L1940.75 1111.38 L1940.75 1107.44 Z" fill="#000000" fill-rule="nonzero" fill-opacity="1" /><path clip-path="url(#clip610)" d="M1970.91 1107.44 L1978.55 1107.44 L1978.55 1081.07 L1970.24 1082.74 L1970.24 1078.48 L1978.5 1076.82 L1983.18 1076.82 L1983.18 1107.44 L1990.81 1107.44 L1990.81 1111.38 L1970.91 1111.38 L1970.91 1107.44 Z" fill="#000000" fill-rule="nonzero" fill-opacity="1" /><path clip-path="url(#clip610)" d="M1997.5 1096.49 L2009.98 1096.49 L2009.98 1100.29 L1997.5 1100.29 L1997.5 1096.49 Z" fill="#000000" fill-rule="nonzero" fill-opacity="1" /><path clip-path="url(#clip610)" d="M2027.37 1079.89 Q2023.75 1079.89 2021.93 1083.46 Q2020.12 1087 2020.12 1094.13 Q2020.12 1101.24 2021.93 1104.8 Q2023.75 1108.34 2027.37 1108.34 Q2031 1108.34 2032.81 1104.8 Q2034.63 1101.24 2034.63 1094.13 Q2034.63 1087 2032.81 1083.46 Q2031 1079.89 2027.37 1079.89 M2027.37 1076.19 Q2033.18 1076.19 2036.23 1080.8 Q2039.31 1085.38 2039.31 1094.13 Q2039.31 1102.86 2036.23 1107.46 Q2033.18 1112.05 2027.37 1112.05 Q2021.56 1112.05 2018.48 1107.46 Q2015.42 1102.86 2015.42 1094.13 Q2015.42 1085.38 2018.48 1080.8 Q2021.56 1076.19 2027.37 1076.19 Z" fill="#000000" fill-rule="nonzero" fill-opacity="1" /><path clip-path="url(#clip610)" d="M2048.34 1107.44 L2055.98 1107.44 L2055.98 1081.07 L2047.67 1082.74 L2047.67 1078.48 L2055.93 1076.82 L2060.61 1076.82 L2060.61 1107.44 L2068.25 1107.44 L2068.25 1111.38 L2048.34 1111.38 L2048.34 1107.44 Z" fill="#000000" fill-rule="nonzero" fill-opacity="1" /><path clip-path="url(#clip610)" d="M2651.59 1107.44 L2667.91 1107.44 L2667.91 1111.38 L2645.96 1111.38 L2645.96 1107.44 Q2648.62 1104.69 2653.21 1100.06 Q2657.81 1095.4 2658.99 1094.06 Q2661.24 1091.54 2662.12 1089.8 Q2663.02 1088.04 2663.02 1086.35 Q2663.02 1083.6 2661.08 1081.86 Q2659.16 1080.13 2656.05 1080.13 Q2653.86 1080.13 2651.4 1080.89 Q2648.97 1081.65 2646.19 1083.2 L2646.19 1078.48 Q2649.02 1077.35 2651.47 1076.77 Q2653.92 1076.19 2655.96 1076.19 Q2661.33 1076.19 2664.53 1078.88 Q2667.72 1081.56 2667.72 1086.05 Q2667.72 1088.18 2666.91 1090.1 Q2666.12 1092 2664.02 1094.59 Q2663.44 1095.26 2660.34 1098.48 Q2657.23 1101.68 2651.59 1107.44 Z" fill="#000000" fill-rule="nonzero" fill-opacity="1" /><path clip-path="url(#clip610)" d="M2687.72 1079.89 Q2684.11 1079.89 2682.28 1083.46 Q2680.48 1087 2680.48 1094.13 Q2680.48 1101.24 2682.28 1104.8 Q2684.11 1108.34 2687.72 1108.34 Q2691.36 1108.34 2693.16 1104.8 Q2694.99 1101.24 2694.99 1094.13 Q2694.99 1087 2693.16 1083.46 Q2691.36 1079.89 2687.72 1079.89 M2687.72 1076.19 Q2693.53 1076.19 2696.59 1080.8 Q2699.67 1085.38 2699.67 1094.13 Q2699.67 1102.86 2696.59 1107.46 Q2693.53 1112.05 2687.72 1112.05 Q2681.91 1112.05 2678.83 1107.46 Q2675.78 1102.86 2675.78 1094.13 Q2675.78 1085.38 2678.83 1080.8 Q2681.91 1076.19 2687.72 1076.19 Z" fill="#000000" fill-rule="nonzero" fill-opacity="1" /><path clip-path="url(#clip610)" d="M2711.91 1107.44 L2728.23 1107.44 L2728.23 1111.38 L2706.29 1111.38 L2706.29 1107.44 Q2708.95 1104.69 2713.53 1100.06 Q2718.14 1095.4 2719.32 1094.06 Q2721.56 1091.54 2722.44 1089.8 Q2723.35 1088.04 2723.35 1086.35 Q2723.35 1083.6 2721.4 1081.86 Q2719.48 1080.13 2716.38 1080.13 Q2714.18 1080.13 2711.73 1080.89 Q2709.29 1081.65 2706.52 1083.2 L2706.52 1078.48 Q2709.34 1077.35 2711.79 1076.77 Q2714.25 1076.19 2716.29 1076.19 Q2721.66 1076.19 2724.85 1078.88 Q2728.04 1081.56 2728.04 1086.05 Q2728.04 1088.18 2727.23 1090.1 Q2726.45 1092 2724.34 1094.59 Q2723.76 1095.26 2720.66 1098.48 Q2717.56 1101.68 2711.91 1107.44 Z" fill="#000000" fill-rule="nonzero" fill-opacity="1" /><path clip-path="url(#clip610)" d="M2750.89 1080.89 L2739.09 1099.34 L2750.89 1099.34 L2750.89 1080.89 M2749.66 1076.82 L2755.54 1076.82 L2755.54 1099.34 L2760.48 1099.34 L2760.48 1103.23 L2755.54 1103.23 L2755.54 1111.38 L2750.89 1111.38 L2750.89 1103.23 L2735.29 1103.23 L2735.29 1098.71 L2749.66 1076.82 Z" fill="#000000" fill-rule="nonzero" fill-opacity="1" /><path clip-path="url(#clip610)" d="M2765.45 1096.49 L2777.93 1096.49 L2777.93 1100.29 L2765.45 1100.29 L2765.45 1096.49 Z" fill="#000000" fill-rule="nonzero" fill-opacity="1" /><path clip-path="url(#clip610)" d="M2786.12 1107.44 L2793.76 1107.44 L2793.76 1081.07 L2785.45 1082.74 L2785.45 1078.48 L2793.72 1076.82 L2798.39 1076.82 L2798.39 1107.44 L2806.03 1107.44 L2806.03 1111.38 L2786.12 1111.38 L2786.12 1107.44 Z" fill="#000000" fill-rule="nonzero" fill-opacity="1" /><path clip-path="url(#clip610)" d="M2819.5 1107.44 L2835.82 1107.44 L2835.82 1111.38 L2813.88 1111.38 L2813.88 1107.44 Q2816.54 1104.69 2821.12 1100.06 Q2825.73 1095.4 2826.91 1094.06 Q2829.16 1091.54 2830.03 1089.8 Q2830.94 1088.04 2830.94 1086.35 Q2830.94 1083.6 2828.99 1081.86 Q2827.07 1080.13 2823.97 1080.13 Q2821.77 1080.13 2819.32 1080.89 Q2816.89 1081.65 2814.11 1083.2 L2814.11 1078.48 Q2816.93 1077.35 2819.39 1076.77 Q2821.84 1076.19 2823.88 1076.19 Q2829.25 1076.19 2832.44 1078.88 Q2835.64 1081.56 2835.64 1086.05 Q2835.64 1088.18 2834.83 1090.1 Q2834.04 1092 2831.93 1094.59 Q2831.35 1095.26 2828.25 1098.48 Q2825.15 1101.68 2819.5 1107.44 Z" fill="#000000" fill-rule="nonzero" fill-opacity="1" /><path clip-path="url(#clip610)" d="M2842.88 1096.49 L2855.36 1096.49 L2855.36 1100.29 L2842.88 1100.29 L2842.88 1096.49 Z" fill="#000000" fill-rule="nonzero" fill-opacity="1" /><path clip-path="url(#clip610)" d="M2872.74 1079.89 Q2869.13 1079.89 2867.3 1083.46 Q2865.5 1087 2865.5 1094.13 Q2865.5 1101.24 2867.3 1104.8 Q2869.13 1108.34 2872.74 1108.34 Q2876.38 1108.34 2878.18 1104.8 Q2880.01 1101.24 2880.01 1094.13 Q2880.01 1087 2878.18 1083.46 Q2876.38 1079.89 2872.74 1079.89 M2872.74 1076.19 Q2878.55 1076.19 2881.61 1080.8 Q2884.69 1085.38 2884.69 1094.13 Q2884.69 1102.86 2881.61 1107.46 Q2878.55 1112.05 2872.74 1112.05 Q2866.93 1112.05 2863.85 1107.46 Q2860.8 1102.86 2860.8 1094.13 Q2860.8 1085.38 2863.85 1080.8 Q2866.93 1076.19 2872.74 1076.19 Z" fill="#000000" fill-rule="nonzero" fill-opacity="1" /><path clip-path="url(#clip610)" d="M2893.72 1107.44 L2901.35 1107.44 L2901.35 1081.07 L2893.04 1082.74 L2893.04 1078.48 L2901.31 1076.82 L2905.98 1076.82 L2905.98 1107.44 L2913.62 1107.44 L2913.62 1111.38 L2893.72 1111.38 L2893.72 1107.44 Z" fill="#000000" fill-rule="nonzero" fill-opacity="1" /><polyline clip-path="url(#clip612)" style="stroke:#000000; stroke-linecap:round; stroke-linejoin:round; stroke-width:2; stroke-opacity:0.1; fill:none" points="271.839,1042.58 3089.76,1042.58 "/>
<polyline clip-path="url(#clip612)" style="stroke:#000000; stroke-linecap:round; stroke-linejoin:round; stroke-width:2; stroke-opacity:0.1; fill:none" points="271.839,464.482 3089.76,464.482 "/>
<polyline clip-path="url(#clip610)" style="stroke:#000000; stroke-linecap:round; stroke-linejoin:round; stroke-width:4; stroke-opacity:1; fill:none" points="271.839,1042.58 271.839,110.236 "/>
<polyline clip-path="url(#clip610)" style="stroke:#000000; stroke-linecap:round; stroke-linejoin:round; stroke-width:4; stroke-opacity:1; fill:none" points="271.839,1042.58 290.737,1042.58 "/>
<polyline clip-path="url(#clip610)" style="stroke:#000000; stroke-linecap:round; stroke-linejoin:round; stroke-width:4; stroke-opacity:1; fill:none" points="271.839,464.482 290.737,464.482 "/>
<path clip-path="url(#clip610)" d="M153.134 1062.37 L160.772 1062.37 L160.772 1036 L152.462 1037.67 L152.462 1033.41 L160.726 1031.74 L165.402 1031.74 L165.402 1062.37 L173.041 1062.37 L173.041 1066.3 L153.134 1066.3 L153.134 1062.37 Z" fill="#000000" fill-rule="nonzero" fill-opacity="1" /><path clip-path="url(#clip610)" d="M192.485 1034.82 Q188.874 1034.82 187.045 1038.39 Q185.24 1041.93 185.24 1049.06 Q185.24 1056.16 187.045 1059.73 Q188.874 1063.27 192.485 1063.27 Q196.119 1063.27 197.925 1059.73 Q199.754 1056.16 199.754 1049.06 Q199.754 1041.93 197.925 1038.39 Q196.119 1034.82 192.485 1034.82 M192.485 1031.12 Q198.295 1031.12 201.351 1035.72 Q204.43 1040.31 204.43 1049.06 Q204.43 1057.78 201.351 1062.39 Q198.295 1066.97 192.485 1066.97 Q186.675 1066.97 183.596 1062.39 Q180.541 1057.78 180.541 1049.06 Q180.541 1040.31 183.596 1035.72 Q186.675 1031.12 192.485 1031.12 Z" fill="#000000" fill-rule="nonzero" fill-opacity="1" /><path clip-path="url(#clip610)" d="M214.134 1013.31 Q211.2 1013.31 209.715 1016.21 Q208.248 1019.09 208.248 1024.88 Q208.248 1030.66 209.715 1033.55 Q211.2 1036.43 214.134 1036.43 Q217.087 1036.43 218.554 1033.55 Q220.04 1030.66 220.04 1024.88 Q220.04 1019.09 218.554 1016.21 Q217.087 1013.31 214.134 1013.31 M214.134 1010.31 Q218.855 1010.31 221.338 1014.05 Q223.839 1017.77 223.839 1024.88 Q223.839 1031.97 221.338 1035.71 Q218.855 1039.44 214.134 1039.44 Q209.414 1039.44 206.912 1035.71 Q204.43 1031.97 204.43 1024.88 Q204.43 1017.77 206.912 1014.05 Q209.414 1010.31 214.134 1010.31 Z" fill="#000000" fill-rule="nonzero" fill-opacity="1" /><path clip-path="url(#clip610)" d="M155.823 484.275 L163.462 484.275 L163.462 457.909 L155.152 459.576 L155.152 455.317 L163.416 453.65 L168.092 453.65 L168.092 484.275 L175.73 484.275 L175.73 488.21 L155.823 488.21 L155.823 484.275 Z" fill="#000000" fill-rule="nonzero" fill-opacity="1" /><path clip-path="url(#clip610)" d="M195.175 456.729 Q191.564 456.729 189.735 460.294 Q187.929 463.835 187.929 470.965 Q187.929 478.071 189.735 481.636 Q191.564 485.178 195.175 485.178 Q198.809 485.178 200.615 481.636 Q202.443 478.071 202.443 470.965 Q202.443 463.835 200.615 460.294 Q198.809 456.729 195.175 456.729 M195.175 453.025 Q200.985 453.025 204.04 457.632 Q207.119 462.215 207.119 470.965 Q207.119 479.692 204.04 484.298 Q200.985 488.881 195.175 488.881 Q189.365 488.881 186.286 484.298 Q183.23 479.692 183.23 470.965 Q183.23 462.215 186.286 457.632 Q189.365 453.025 195.175 453.025 Z" fill="#000000" fill-rule="nonzero" fill-opacity="1" /><path clip-path="url(#clip610)" d="M207.665 457.602 L213.871 457.602 L213.871 436.18 L207.119 437.534 L207.119 434.074 L213.833 432.72 L217.633 432.72 L217.633 457.602 L223.839 457.602 L223.839 460.8 L207.665 460.8 L207.665 457.602 Z" fill="#000000" fill-rule="nonzero" fill-opacity="1" /><path clip-path="url(#clip610)" d="M83.4268 934.763 L70.6636 934.763 L70.6636 945.267 L65.38 945.267 L65.38 928.398 L85.7821 928.398 Q88.4239 932.122 89.7925 936.609 Q91.1293 941.097 91.1293 946.19 Q91.1293 957.33 84.6363 963.632 Q78.1114 969.902 66.494 969.902 Q54.8448 969.902 48.3518 963.632 Q41.8269 957.33 41.8269 946.19 Q41.8269 941.543 42.9727 937.373 Q44.1186 933.172 46.3466 929.639 L53.1897 929.639 Q50.166 933.204 48.6382 937.214 Q47.1104 941.225 47.1104 945.649 Q47.1104 954.37 51.9802 958.762 Q56.85 963.123 66.494 963.123 Q76.1062 963.123 80.976 958.762 Q85.8458 954.37 85.8458 945.649 Q85.8458 942.243 85.2729 939.57 Q84.6681 936.896 83.4268 934.763 Z" fill="#000000" fill-rule="nonzero" fill-opacity="1" /><path clip-path="url(#clip610)" d="M70.9182 886.416 L73.7828 886.416 L73.7828 913.343 Q79.8302 912.961 83.013 909.714 Q86.1641 906.436 86.1641 900.611 Q86.1641 897.238 85.3365 894.087 Q84.509 890.904 82.8539 887.785 L88.3921 887.785 Q89.7289 890.936 90.4291 894.246 Q91.1293 897.556 91.1293 900.962 Q91.1293 909.492 86.1641 914.489 Q81.1988 919.454 72.7324 919.454 Q63.9796 919.454 58.8552 914.743 Q53.699 910.001 53.699 901.98 Q53.699 894.787 58.3459 890.617 Q62.9611 886.416 70.9182 886.416 M69.1995 892.272 Q64.3933 892.336 61.5288 894.978 Q58.6642 897.588 58.6642 901.916 Q58.6642 906.818 61.4333 909.778 Q64.2024 912.706 69.2313 913.152 L69.1995 892.272 Z" fill="#000000" fill-rule="nonzero" fill-opacity="1" /><path clip-path="url(#clip610)" d="M68.6902 847.171 L90.2063 847.171 L90.2063 853.028 L68.8812 853.028 Q63.8204 853.028 61.306 855.001 Q58.7915 856.975 58.7915 860.921 Q58.7915 865.664 61.8152 868.401 Q64.8389 871.138 70.0588 871.138 L90.2063 871.138 L90.2063 877.026 L54.5583 877.026 L54.5583 871.138 L60.0965 871.138 Q56.8818 869.038 55.2904 866.205 Q53.699 863.34 53.699 859.616 Q53.699 853.473 57.5184 850.322 Q61.306 847.171 68.6902 847.171 Z" fill="#000000" fill-rule="nonzero" fill-opacity="1" /><path clip-path="url(#clip610)" d="M58.6642 821.677 Q58.6642 826.387 62.3563 829.125 Q66.0166 831.862 72.4141 831.862 Q78.8117 831.862 82.5038 829.156 Q86.1641 826.419 86.1641 821.677 Q86.1641 816.998 82.4719 814.261 Q78.7798 811.523 72.4141 811.523 Q66.0803 811.523 62.3881 814.261 Q58.6642 816.998 58.6642 821.677 M53.699 821.677 Q53.699 814.038 58.6642 809.677 Q63.6295 805.317 72.4141 805.317 Q81.167 805.317 86.1641 809.677 Q91.1293 814.038 91.1293 821.677 Q91.1293 829.347 86.1641 833.708 Q81.167 838.037 72.4141 838.037 Q63.6295 838.037 58.6642 833.708 Q53.699 829.347 53.699 821.677 Z" fill="#000000" fill-rule="nonzero" fill-opacity="1" /><path clip-path="url(#clip610)" d="M61.4015 767.855 Q57.4547 765.658 55.5768 762.603 Q53.699 759.547 53.699 755.41 Q53.699 749.84 57.6139 746.816 Q61.4969 743.792 68.6902 743.792 L90.2063 743.792 L90.2063 749.681 L68.8812 749.681 Q63.7568 749.681 61.2741 751.495 Q58.7915 753.309 58.7915 757.033 Q58.7915 761.584 61.8152 764.226 Q64.8389 766.868 70.0588 766.868 L90.2063 766.868 L90.2063 772.756 L68.8812 772.756 Q63.7249 772.756 61.2741 774.57 Q58.7915 776.385 58.7915 780.172 Q58.7915 784.66 61.8471 787.302 Q64.8708 789.944 70.0588 789.944 L90.2063 789.944 L90.2063 795.832 L54.5583 795.832 L54.5583 789.944 L60.0965 789.944 Q56.8182 787.938 55.2586 785.138 Q53.699 782.337 53.699 778.485 Q53.699 774.602 55.6723 771.897 Q57.6457 769.16 61.4015 767.855 Z" fill="#000000" fill-rule="nonzero" fill-opacity="1" /><path clip-path="url(#clip610)" d="M70.9182 701.619 L73.7828 701.619 L73.7828 728.546 Q79.8302 728.164 83.013 724.918 Q86.1641 721.64 86.1641 715.815 Q86.1641 712.441 85.3365 709.29 Q84.509 706.107 82.8539 702.988 L88.3921 702.988 Q89.7289 706.139 90.4291 709.449 Q91.1293 712.759 91.1293 716.165 Q91.1293 724.695 86.1641 729.692 Q81.1988 734.657 72.7324 734.657 Q63.9796 734.657 58.8552 729.947 Q53.699 725.204 53.699 717.184 Q53.699 709.99 58.3459 705.821 Q62.9611 701.619 70.9182 701.619 M69.1995 707.476 Q64.3933 707.54 61.5288 710.181 Q58.6642 712.791 58.6642 717.12 Q58.6642 722.022 61.4333 724.982 Q64.2024 727.91 69.2313 728.355 L69.1995 707.476 Z" fill="#000000" fill-rule="nonzero" fill-opacity="1" /><path clip-path="url(#clip610)" d="M55.6087 669.282 L61.1468 669.282 Q59.8737 671.764 59.2371 674.438 Q58.6006 677.111 58.6006 679.976 Q58.6006 684.337 59.9373 686.533 Q61.2741 688.697 63.9477 688.697 Q65.9848 688.697 67.1624 687.137 Q68.3083 685.578 69.3586 680.867 L69.8042 678.862 Q71.141 672.624 73.5918 670.014 Q76.0108 667.372 80.3713 667.372 Q85.3365 667.372 88.2329 671.319 Q91.1293 675.234 91.1293 682.109 Q91.1293 684.973 90.5564 688.092 Q90.0153 691.18 88.9013 694.617 L82.8539 694.617 Q84.5408 691.371 85.4002 688.22 Q86.2277 685.069 86.2277 681.981 Q86.2277 677.844 84.8273 675.616 Q83.395 673.388 80.8169 673.388 Q78.4297 673.388 77.1566 675.011 Q75.8834 676.602 74.7058 682.045 L74.2284 684.082 Q73.0825 689.525 70.7272 691.944 Q68.3401 694.363 64.2024 694.363 Q59.1735 694.363 56.4362 690.798 Q53.699 687.233 53.699 680.676 Q53.699 677.43 54.1764 674.565 Q54.6538 671.701 55.6087 669.282 Z" fill="#000000" fill-rule="nonzero" fill-opacity="1" /><path clip-path="url(#clip610)" d="M42.6863 647.638 L42.6863 642.227 L96.2537 658.778 L96.2537 664.189 L42.6863 647.638 Z" fill="#000000" fill-rule="nonzero" fill-opacity="1" /><path clip-path="url(#clip610)" d="M47.9698 629.4 L84.9227 629.4 L84.9227 621.634 Q84.9227 611.799 80.4668 607.248 Q76.0108 602.665 66.3985 602.665 Q56.85 602.665 52.4258 607.248 Q47.9698 611.799 47.9698 621.634 L47.9698 629.4 M42.6863 635.83 L42.6863 622.621 Q42.6863 608.807 48.4472 602.346 Q54.1764 595.885 66.3985 595.885 Q78.6844 595.885 84.4453 602.378 Q90.2063 608.871 90.2063 622.621 L90.2063 635.83 L42.6863 635.83 Z" fill="#000000" fill-rule="nonzero" fill-opacity="1" /><path clip-path="url(#clip610)" d="M72.2868 569.69 Q72.2868 576.788 73.9101 579.525 Q75.5333 582.262 79.4482 582.262 Q82.5674 582.262 84.4135 580.225 Q86.2277 578.157 86.2277 574.624 Q86.2277 569.754 82.7902 566.826 Q79.3209 563.866 73.5918 563.866 L72.2868 563.866 L72.2868 569.69 M69.8679 558.009 L90.2063 558.009 L90.2063 563.866 L84.7954 563.866 Q88.0419 565.871 89.6015 568.863 Q91.1293 571.855 91.1293 576.183 Q91.1293 581.658 88.0738 584.904 Q84.9864 588.119 79.8302 588.119 Q73.8146 588.119 70.759 584.108 Q67.7035 580.066 67.7035 572.077 L67.7035 563.866 L67.1306 563.866 Q63.0884 563.866 60.8922 566.539 Q58.6642 569.181 58.6642 573.987 Q58.6642 577.043 59.3963 579.939 Q60.1283 582.835 61.5924 585.509 L56.1816 585.509 Q54.9403 582.294 54.3355 579.271 Q53.699 576.247 53.699 573.382 Q53.699 565.648 57.7094 561.829 Q61.7197 558.009 69.8679 558.009 Z" fill="#000000" fill-rule="nonzero" fill-opacity="1" /><path clip-path="url(#clip610)" d="M93.5165 531.114 Q99.8822 533.597 101.824 535.952 Q103.765 538.307 103.765 542.254 L103.765 546.933 L98.8636 546.933 L98.8636 543.495 Q98.8636 541.076 97.7178 539.74 Q96.572 538.403 92.307 536.779 L89.6334 535.729 L54.5583 550.147 L54.5583 543.941 L82.4401 532.801 L54.5583 521.661 L54.5583 515.454 L93.5165 531.114 Z" fill="#000000" fill-rule="nonzero" fill-opacity="1" /><path clip-path="url(#clip610)" d="M40.7447 472.581 Q48.0653 476.846 55.2267 478.915 Q62.3881 480.984 69.7405 480.984 Q77.0929 480.984 84.318 478.915 Q91.5113 476.815 98.8 472.581 L98.8 477.674 Q91.3203 482.448 84.0952 484.835 Q76.8701 487.191 69.7405 487.191 Q62.6428 487.191 55.4495 484.835 Q48.2563 482.48 40.7447 477.674 L40.7447 472.581 Z" fill="#000000" fill-rule="nonzero" fill-opacity="1" /><path clip-path="url(#clip610)" d="M42.6863 460.964 L42.6863 430.918 L48.0971 430.918 L48.0971 454.535 L62.1653 454.535 L62.1653 431.904 L67.5762 431.904 L67.5762 454.535 L84.7954 454.535 L84.7954 430.345 L90.2063 430.345 L90.2063 460.964 L42.6863 460.964 Z" fill="#000000" fill-rule="nonzero" fill-opacity="1" /><path clip-path="url(#clip610)" d="M68.6902 390.4 L90.2063 390.4 L90.2063 396.256 L68.8812 396.256 Q63.8204 396.256 61.306 398.23 Q58.7915 400.203 58.7915 404.15 Q58.7915 408.892 61.8152 411.63 Q64.8389 414.367 70.0588 414.367 L90.2063 414.367 L90.2063 420.255 L54.5583 420.255 L54.5583 414.367 L60.0965 414.367 Q56.8818 412.266 55.2904 409.433 Q53.699 406.569 53.699 402.845 Q53.699 396.702 57.5184 393.551 Q61.306 390.4 68.6902 390.4 Z" fill="#000000" fill-rule="nonzero" fill-opacity="1" /><path clip-path="url(#clip610)" d="M71.9685 355.261 Q65.6028 355.261 62.1017 357.903 Q58.6006 360.513 58.6006 365.255 Q58.6006 369.966 62.1017 372.608 Q65.6028 375.218 71.9685 375.218 Q78.3024 375.218 81.8036 372.608 Q85.3047 369.966 85.3047 365.255 Q85.3047 360.513 81.8036 357.903 Q78.3024 355.261 71.9685 355.261 M85.7821 349.405 Q94.8851 349.405 99.3092 353.447 Q103.765 357.489 103.765 365.828 Q103.765 368.916 103.288 371.653 Q102.842 374.39 101.887 376.968 L96.19 376.968 Q97.5905 374.39 98.2589 371.876 Q98.9273 369.361 98.9273 366.751 Q98.9273 360.99 95.9036 358.126 Q92.9117 355.261 86.8325 355.261 L83.9361 355.261 Q87.0871 357.076 88.6467 359.908 Q90.2063 362.741 90.2063 366.688 Q90.2063 373.244 85.2092 377.255 Q80.2121 381.265 71.9685 381.265 Q63.6931 381.265 58.696 377.255 Q53.699 373.244 53.699 366.688 Q53.699 362.741 55.2586 359.908 Q56.8182 357.076 59.9692 355.261 L54.5583 355.261 L54.5583 349.405 L85.7821 349.405 Z" fill="#000000" fill-rule="nonzero" fill-opacity="1" /><path clip-path="url(#clip610)" d="M40.6811 337.342 L40.6811 331.485 L90.2063 331.485 L90.2063 337.342 L40.6811 337.342 Z" fill="#000000" fill-rule="nonzero" fill-opacity="1" /><path clip-path="url(#clip610)" d="M72.2868 303.031 Q72.2868 310.128 73.9101 312.866 Q75.5333 315.603 79.4482 315.603 Q82.5674 315.603 84.4135 313.566 Q86.2277 311.497 86.2277 307.964 Q86.2277 303.094 82.7902 300.166 Q79.3209 297.206 73.5918 297.206 L72.2868 297.206 L72.2868 303.031 M69.8679 291.35 L90.2063 291.35 L90.2063 297.206 L84.7954 297.206 Q88.0419 299.211 89.6015 302.203 Q91.1293 305.195 91.1293 309.524 Q91.1293 314.998 88.0738 318.245 Q84.9864 321.459 79.8302 321.459 Q73.8146 321.459 70.759 317.449 Q67.7035 313.407 67.7035 305.418 L67.7035 297.206 L67.1306 297.206 Q63.0884 297.206 60.8922 299.88 Q58.6642 302.521 58.6642 307.328 Q58.6642 310.383 59.3963 313.28 Q60.1283 316.176 61.5924 318.849 L56.1816 318.849 Q54.9403 315.635 54.3355 312.611 Q53.699 309.587 53.699 306.723 Q53.699 298.988 57.7094 295.169 Q61.7197 291.35 69.8679 291.35 Z" fill="#000000" fill-rule="nonzero" fill-opacity="1" /><path clip-path="url(#clip610)" d="M68.6902 249.654 L90.2063 249.654 L90.2063 255.511 L68.8812 255.511 Q63.8204 255.511 61.306 257.484 Q58.7915 259.457 58.7915 263.404 Q58.7915 268.147 61.8152 270.884 Q64.8389 273.621 70.0588 273.621 L90.2063 273.621 L90.2063 279.509 L54.5583 279.509 L54.5583 273.621 L60.0965 273.621 Q56.8818 271.52 55.2904 268.688 Q53.699 265.823 53.699 262.099 Q53.699 255.956 57.5184 252.805 Q61.306 249.654 68.6902 249.654 Z" fill="#000000" fill-rule="nonzero" fill-opacity="1" /><path clip-path="url(#clip610)" d="M59.9692 214.516 L40.6811 214.516 L40.6811 208.659 L90.2063 208.659 L90.2063 214.516 L84.8591 214.516 Q88.0419 216.362 89.6015 219.194 Q91.1293 221.995 91.1293 225.942 Q91.1293 232.403 85.9731 236.477 Q80.8169 240.519 72.4141 240.519 Q64.0114 240.519 58.8552 236.477 Q53.699 232.403 53.699 225.942 Q53.699 221.995 55.2586 219.194 Q56.7863 216.362 59.9692 214.516 M72.4141 234.472 Q78.8753 234.472 82.5674 231.83 Q86.2277 229.157 86.2277 224.51 Q86.2277 219.863 82.5674 217.189 Q78.8753 214.516 72.4141 214.516 Q65.9529 214.516 62.2927 217.189 Q58.6006 219.863 58.6006 224.51 Q58.6006 229.157 62.2927 231.83 Q65.9529 234.472 72.4141 234.472 Z" fill="#000000" fill-rule="nonzero" fill-opacity="1" /><path clip-path="url(#clip610)" d="M40.7447 197.519 L40.7447 192.427 Q48.2563 187.652 55.4495 185.297 Q62.6428 182.91 69.7405 182.91 Q76.8701 182.91 84.0952 185.297 Q91.3203 187.652 98.8 192.427 L98.8 197.519 Q91.5113 193.286 84.318 191.217 Q77.0929 189.116 69.7405 189.116 Q62.3881 189.116 55.2267 191.217 Q48.0653 193.286 40.7447 197.519 Z" fill="#000000" fill-rule="nonzero" fill-opacity="1" /><path clip-path="url(#clip612)" d="M288.747 464.482 L288.747 1042.58 L311.29 1042.58 L311.29 464.482 L288.747 464.482 L288.747 464.482  Z" fill="#009af9" fill-rule="evenodd" fill-opacity="0.5"/>
<polyline clip-path="url(#clip612)" style="stroke:#000000; stroke-linecap:round; stroke-linejoin:round; stroke-width:4; stroke-opacity:0.5; fill:none" points="288.747,464.482 288.747,1042.58 311.29,1042.58 311.29,464.482 288.747,464.482 "/>
<path clip-path="url(#clip612)" d="M316.926 380.007 L316.926 1042.58 L339.469 1042.58 L339.469 380.007 L316.926 380.007 L316.926 380.007  Z" fill="#009af9" fill-rule="evenodd" fill-opacity="0.5"/>
<polyline clip-path="url(#clip612)" style="stroke:#000000; stroke-linecap:round; stroke-linejoin:round; stroke-width:4; stroke-opacity:0.5; fill:none" points="316.926,380.007 316.926,1042.58 339.469,1042.58 339.469,380.007 316.926,380.007 "/>
<path clip-path="url(#clip612)" d="M345.105 346.482 L345.105 1042.58 L367.649 1042.58 L367.649 346.482 L345.105 346.482 L345.105 346.482  Z" fill="#009af9" fill-rule="evenodd" fill-opacity="0.5"/>
<polyline clip-path="url(#clip612)" style="stroke:#000000; stroke-linecap:round; stroke-linejoin:round; stroke-width:4; stroke-opacity:0.5; fill:none" points="345.105,346.482 345.105,1042.58 367.649,1042.58 367.649,346.482 345.105,346.482 "/>
<path clip-path="url(#clip612)" d="M373.285 592.732 L373.285 1042.58 L395.828 1042.58 L395.828 592.732 L373.285 592.732 L373.285 592.732  Z" fill="#009af9" fill-rule="evenodd" fill-opacity="0.5"/>
<polyline clip-path="url(#clip612)" style="stroke:#000000; stroke-linecap:round; stroke-linejoin:round; stroke-width:4; stroke-opacity:0.5; fill:none" points="373.285,592.732 373.285,1042.58 395.828,1042.58 395.828,592.732 373.285,592.732 "/>
<path clip-path="url(#clip612)" d="M401.464 380.007 L401.464 1042.58 L424.007 1042.58 L424.007 380.007 L401.464 380.007 L401.464 380.007  Z" fill="#009af9" fill-rule="evenodd" fill-opacity="0.5"/>
<polyline clip-path="url(#clip612)" style="stroke:#000000; stroke-linecap:round; stroke-linejoin:round; stroke-width:4; stroke-opacity:0.5; fill:none" points="401.464,380.007 401.464,1042.58 424.007,1042.58 424.007,380.007 401.464,380.007 "/>
<path clip-path="url(#clip612)" d="M429.643 362.685 L429.643 1042.58 L452.186 1042.58 L452.186 362.685 L429.643 362.685 L429.643 362.685  Z" fill="#009af9" fill-rule="evenodd" fill-opacity="0.5"/>
<polyline clip-path="url(#clip612)" style="stroke:#000000; stroke-linecap:round; stroke-linejoin:round; stroke-width:4; stroke-opacity:0.5; fill:none" points="429.643,362.685 429.643,1042.58 452.186,1042.58 452.186,362.685 429.643,362.685 "/>
<path clip-path="url(#clip612)" d="M457.822 290.459 L457.822 1042.58 L480.366 1042.58 L480.366 290.459 L457.822 290.459 L457.822 290.459  Z" fill="#009af9" fill-rule="evenodd" fill-opacity="0.5"/>
<polyline clip-path="url(#clip612)" style="stroke:#000000; stroke-linecap:round; stroke-linejoin:round; stroke-width:4; stroke-opacity:0.5; fill:none" points="457.822,290.459 457.822,1042.58 480.366,1042.58 480.366,290.459 457.822,290.459 "/>
<path clip-path="url(#clip612)" d="M486.001 303.337 L486.001 1042.58 L508.545 1042.58 L508.545 303.337 L486.001 303.337 L486.001 303.337  Z" fill="#009af9" fill-rule="evenodd" fill-opacity="0.5"/>
<polyline clip-path="url(#clip612)" style="stroke:#000000; stroke-linecap:round; stroke-linejoin:round; stroke-width:4; stroke-opacity:0.5; fill:none" points="486.001,303.337 486.001,1042.58 508.545,1042.58 508.545,303.337 486.001,303.337 "/>
<path clip-path="url(#clip612)" d="M514.181 278.21 L514.181 1042.58 L536.724 1042.58 L536.724 278.21 L514.181 278.21 L514.181 278.21  Z" fill="#009af9" fill-rule="evenodd" fill-opacity="0.5"/>
<polyline clip-path="url(#clip612)" style="stroke:#000000; stroke-linecap:round; stroke-linejoin:round; stroke-width:4; stroke-opacity:0.5; fill:none" points="514.181,278.21 514.181,1042.58 536.724,1042.58 536.724,278.21 514.181,278.21 "/>
<path clip-path="url(#clip612)" d="M542.36 255.37 L542.36 1042.58 L564.903 1042.58 L564.903 255.37 L542.36 255.37 L542.36 255.37  Z" fill="#009af9" fill-rule="evenodd" fill-opacity="0.5"/>
<polyline clip-path="url(#clip612)" style="stroke:#000000; stroke-linecap:round; stroke-linejoin:round; stroke-width:4; stroke-opacity:0.5; fill:none" points="542.36,255.37 542.36,1042.58 564.903,1042.58 564.903,255.37 542.36,255.37 "/>
<path clip-path="url(#clip612)" d="M570.539 278.21 L570.539 1042.58 L593.083 1042.58 L593.083 278.21 L570.539 278.21 L570.539 278.21  Z" fill="#009af9" fill-rule="evenodd" fill-opacity="0.5"/>
<polyline clip-path="url(#clip612)" style="stroke:#000000; stroke-linecap:round; stroke-linejoin:round; stroke-width:4; stroke-opacity:0.5; fill:none" points="570.539,278.21 570.539,1042.58 593.083,1042.58 593.083,278.21 570.539,278.21 "/>
<path clip-path="url(#clip612)" d="M598.718 316.911 L598.718 1042.58 L621.262 1042.58 L621.262 316.911 L598.718 316.911 L598.718 316.911  Z" fill="#009af9" fill-rule="evenodd" fill-opacity="0.5"/>
<polyline clip-path="url(#clip612)" style="stroke:#000000; stroke-linecap:round; stroke-linejoin:round; stroke-width:4; stroke-opacity:0.5; fill:none" points="598.718,316.911 598.718,1042.58 621.262,1042.58 621.262,316.911 598.718,316.911 "/>
<path clip-path="url(#clip612)" d="M626.898 224.589 L626.898 1042.58 L649.441 1042.58 L649.441 224.589 L626.898 224.589 L626.898 224.589  Z" fill="#009af9" fill-rule="evenodd" fill-opacity="0.5"/>
<polyline clip-path="url(#clip612)" style="stroke:#000000; stroke-linecap:round; stroke-linejoin:round; stroke-width:4; stroke-opacity:0.5; fill:none" points="626.898,224.589 626.898,1042.58 649.441,1042.58 649.441,224.589 626.898,224.589 "/>
<path clip-path="url(#clip612)" d="M655.077 244.685 L655.077 1042.58 L677.62 1042.58 L677.62 244.685 L655.077 244.685 L655.077 244.685  Z" fill="#009af9" fill-rule="evenodd" fill-opacity="0.5"/>
<polyline clip-path="url(#clip612)" style="stroke:#000000; stroke-linecap:round; stroke-linejoin:round; stroke-width:4; stroke-opacity:0.5; fill:none" points="655.077,244.685 655.077,1042.58 677.62,1042.58 677.62,244.685 655.077,244.685 "/>
<path clip-path="url(#clip612)" d="M683.256 110.236 L683.256 1042.58 L705.8 1042.58 L705.8 110.236 L683.256 110.236 L683.256 110.236  Z" fill="#009af9" fill-rule="evenodd" fill-opacity="0.5"/>
<polyline clip-path="url(#clip612)" style="stroke:#000000; stroke-linecap:round; stroke-linejoin:round; stroke-width:4; stroke-opacity:0.5; fill:none" points="683.256,110.236 683.256,1042.58 705.8,1042.58 705.8,110.236 683.256,110.236 "/>
<path clip-path="url(#clip612)" d="M711.435 197.173 L711.435 1042.58 L733.979 1042.58 L733.979 197.173 L711.435 197.173 L711.435 197.173  Z" fill="#009af9" fill-rule="evenodd" fill-opacity="0.5"/>
<polyline clip-path="url(#clip612)" style="stroke:#000000; stroke-linecap:round; stroke-linejoin:round; stroke-width:4; stroke-opacity:0.5; fill:none" points="711.435,197.173 711.435,1042.58 733.979,1042.58 733.979,197.173 711.435,197.173 "/>
<path clip-path="url(#clip612)" d="M739.615 316.911 L739.615 1042.58 L762.158 1042.58 L762.158 316.911 L739.615 316.911 L739.615 316.911  Z" fill="#009af9" fill-rule="evenodd" fill-opacity="0.5"/>
<polyline clip-path="url(#clip612)" style="stroke:#000000; stroke-linecap:round; stroke-linejoin:round; stroke-width:4; stroke-opacity:0.5; fill:none" points="739.615,316.911 739.615,1042.58 762.158,1042.58 762.158,316.911 739.615,316.911 "/>
<path clip-path="url(#clip612)" d="M767.794 490.935 L767.794 1042.58 L790.337 1042.58 L790.337 490.935 L767.794 490.935 L767.794 490.935  Z" fill="#009af9" fill-rule="evenodd" fill-opacity="0.5"/>
<polyline clip-path="url(#clip612)" style="stroke:#000000; stroke-linecap:round; stroke-linejoin:round; stroke-width:4; stroke-opacity:0.5; fill:none" points="767.794,490.935 767.794,1042.58 790.337,1042.58 790.337,490.935 767.794,490.935 "/>
<path clip-path="url(#clip612)" d="M795.973 149.96 L795.973 1042.58 L818.517 1042.58 L818.517 149.96 L795.973 149.96 L795.973 149.96  Z" fill="#009af9" fill-rule="evenodd" fill-opacity="0.5"/>
<polyline clip-path="url(#clip612)" style="stroke:#000000; stroke-linecap:round; stroke-linejoin:round; stroke-width:4; stroke-opacity:0.5; fill:none" points="795.973,149.96 795.973,1042.58 818.517,1042.58 818.517,149.96 795.973,149.96 "/>
<path clip-path="url(#clip612)" d="M824.152 129.313 L824.152 1042.58 L846.696 1042.58 L846.696 129.313 L824.152 129.313 L824.152 129.313  Z" fill="#009af9" fill-rule="evenodd" fill-opacity="0.5"/>
<polyline clip-path="url(#clip612)" style="stroke:#000000; stroke-linecap:round; stroke-linejoin:round; stroke-width:4; stroke-opacity:0.5; fill:none" points="824.152,129.313 824.152,1042.58 846.696,1042.58 846.696,129.313 824.152,129.313 "/>
<path clip-path="url(#clip612)" d="M852.332 164.733 L852.332 1042.58 L874.875 1042.58 L874.875 164.733 L852.332 164.733 L852.332 164.733  Z" fill="#009af9" fill-rule="evenodd" fill-opacity="0.5"/>
<polyline clip-path="url(#clip612)" style="stroke:#000000; stroke-linecap:round; stroke-linejoin:round; stroke-width:4; stroke-opacity:0.5; fill:none" points="852.332,164.733 852.332,1042.58 874.875,1042.58 874.875,164.733 852.332,164.733 "/>
<path clip-path="url(#clip612)" d="M880.511 188.662 L880.511 1042.58 L903.054 1042.58 L903.054 188.662 L880.511 188.662 L880.511 188.662  Z" fill="#009af9" fill-rule="evenodd" fill-opacity="0.5"/>
<polyline clip-path="url(#clip612)" style="stroke:#000000; stroke-linecap:round; stroke-linejoin:round; stroke-width:4; stroke-opacity:0.5; fill:none" points="880.511,188.662 880.511,1042.58 903.054,1042.58 903.054,188.662 880.511,188.662 "/>
<path clip-path="url(#clip612)" d="M908.69 172.459 L908.69 1042.58 L931.234 1042.58 L931.234 172.459 L908.69 172.459 L908.69 172.459  Z" fill="#009af9" fill-rule="evenodd" fill-opacity="0.5"/>
<polyline clip-path="url(#clip612)" style="stroke:#000000; stroke-linecap:round; stroke-linejoin:round; stroke-width:4; stroke-opacity:0.5; fill:none" points="908.69,172.459 908.69,1042.58 931.234,1042.58 931.234,172.459 908.69,172.459 "/>
<path clip-path="url(#clip612)" d="M936.869 398.613 L936.869 1042.58 L959.413 1042.58 L959.413 398.613 L936.869 398.613 L936.869 398.613  Z" fill="#009af9" fill-rule="evenodd" fill-opacity="0.5"/>
<polyline clip-path="url(#clip612)" style="stroke:#000000; stroke-linecap:round; stroke-linejoin:round; stroke-width:4; stroke-opacity:0.5; fill:none" points="936.869,398.613 936.869,1042.58 959.413,1042.58 959.413,398.613 936.869,398.613 "/>
<path clip-path="url(#clip612)" d="M965.049 316.911 L965.049 1042.58 L987.592 1042.58 L987.592 316.911 L965.049 316.911 L965.049 316.911  Z" fill="#009af9" fill-rule="evenodd" fill-opacity="0.5"/>
<polyline clip-path="url(#clip612)" style="stroke:#000000; stroke-linecap:round; stroke-linejoin:round; stroke-width:4; stroke-opacity:0.5; fill:none" points="965.049,316.911 965.049,1042.58 987.592,1042.58 987.592,316.911 965.049,316.911 "/>
<path clip-path="url(#clip612)" d="M993.228 346.482 L993.228 1042.58 L1015.77 1042.58 L1015.77 346.482 L993.228 346.482 L993.228 346.482  Z" fill="#009af9" fill-rule="evenodd" fill-opacity="0.5"/>
<polyline clip-path="url(#clip612)" style="stroke:#000000; stroke-linecap:round; stroke-linejoin:round; stroke-width:4; stroke-opacity:0.5; fill:none" points="993.228,346.482 993.228,1042.58 1015.77,1042.58 1015.77,346.482 993.228,346.482 "/>
<path clip-path="url(#clip612)" d="M1021.41 244.685 L1021.41 1042.58 L1043.95 1042.58 L1043.95 244.685 L1021.41 244.685 L1021.41 244.685  Z" fill="#009af9" fill-rule="evenodd" fill-opacity="0.5"/>
<polyline clip-path="url(#clip612)" style="stroke:#000000; stroke-linecap:round; stroke-linejoin:round; stroke-width:4; stroke-opacity:0.5; fill:none" points="1021.41,244.685 1021.41,1042.58 1043.95,1042.58 1043.95,244.685 1021.41,244.685 "/>
<path clip-path="url(#clip612)" d="M1049.59 224.589 L1049.59 1042.58 L1072.13 1042.58 L1072.13 224.589 L1049.59 224.589 L1049.59 224.589  Z" fill="#009af9" fill-rule="evenodd" fill-opacity="0.5"/>
<polyline clip-path="url(#clip612)" style="stroke:#000000; stroke-linecap:round; stroke-linejoin:round; stroke-width:4; stroke-opacity:0.5; fill:none" points="1049.59,224.589 1049.59,1042.58 1072.13,1042.58 1072.13,224.589 1049.59,224.589 "/>
<path clip-path="url(#clip612)" d="M1077.77 157.238 L1077.77 1042.58 L1100.31 1042.58 L1100.31 157.238 L1077.77 157.238 L1077.77 157.238  Z" fill="#009af9" fill-rule="evenodd" fill-opacity="0.5"/>
<polyline clip-path="url(#clip612)" style="stroke:#000000; stroke-linecap:round; stroke-linejoin:round; stroke-width:4; stroke-opacity:0.5; fill:none" points="1077.77,157.238 1077.77,1042.58 1100.31,1042.58 1100.31,157.238 1077.77,157.238 "/>
<path clip-path="url(#clip612)" d="M1105.94 278.21 L1105.94 1042.58 L1128.49 1042.58 L1128.49 278.21 L1105.94 278.21 L1105.94 278.21  Z" fill="#009af9" fill-rule="evenodd" fill-opacity="0.5"/>
<polyline clip-path="url(#clip612)" style="stroke:#000000; stroke-linecap:round; stroke-linejoin:round; stroke-width:4; stroke-opacity:0.5; fill:none" points="1105.94,278.21 1105.94,1042.58 1128.49,1042.58 1128.49,278.21 1105.94,278.21 "/>
<path clip-path="url(#clip612)" d="M1134.12 255.37 L1134.12 1042.58 L1156.67 1042.58 L1156.67 255.37 L1134.12 255.37 L1134.12 255.37  Z" fill="#009af9" fill-rule="evenodd" fill-opacity="0.5"/>
<polyline clip-path="url(#clip612)" style="stroke:#000000; stroke-linecap:round; stroke-linejoin:round; stroke-width:4; stroke-opacity:0.5; fill:none" points="1134.12,255.37 1134.12,1042.58 1156.67,1042.58 1156.67,255.37 1134.12,255.37 "/>
<path clip-path="url(#clip612)" d="M1162.3 418.708 L1162.3 1042.58 L1184.85 1042.58 L1184.85 418.708 L1162.3 418.708 L1162.3 418.708  Z" fill="#009af9" fill-rule="evenodd" fill-opacity="0.5"/>
<polyline clip-path="url(#clip612)" style="stroke:#000000; stroke-linecap:round; stroke-linejoin:round; stroke-width:4; stroke-opacity:0.5; fill:none" points="1162.3,418.708 1162.3,1042.58 1184.85,1042.58 1184.85,418.708 1162.3,418.708 "/>
<path clip-path="url(#clip612)" d="M1190.48 398.613 L1190.48 1042.58 L1213.03 1042.58 L1213.03 398.613 L1190.48 398.613 L1190.48 398.613  Z" fill="#009af9" fill-rule="evenodd" fill-opacity="0.5"/>
<polyline clip-path="url(#clip612)" style="stroke:#000000; stroke-linecap:round; stroke-linejoin:round; stroke-width:4; stroke-opacity:0.5; fill:none" points="1190.48,398.613 1190.48,1042.58 1213.03,1042.58 1213.03,398.613 1190.48,398.613 "/>
<path clip-path="url(#clip612)" d="M1218.66 188.662 L1218.66 1042.58 L1241.21 1042.58 L1241.21 188.662 L1218.66 188.662 L1218.66 188.662  Z" fill="#009af9" fill-rule="evenodd" fill-opacity="0.5"/>
<polyline clip-path="url(#clip612)" style="stroke:#000000; stroke-linecap:round; stroke-linejoin:round; stroke-width:4; stroke-opacity:0.5; fill:none" points="1218.66,188.662 1218.66,1042.58 1241.21,1042.58 1241.21,188.662 1218.66,188.662 "/>
<path clip-path="url(#clip612)" d="M1246.84 234.436 L1246.84 1042.58 L1269.38 1042.58 L1269.38 234.436 L1246.84 234.436 L1246.84 234.436  Z" fill="#009af9" fill-rule="evenodd" fill-opacity="0.5"/>
<polyline clip-path="url(#clip612)" style="stroke:#000000; stroke-linecap:round; stroke-linejoin:round; stroke-width:4; stroke-opacity:0.5; fill:none" points="1246.84,234.436 1246.84,1042.58 1269.38,1042.58 1269.38,234.436 1246.84,234.436 "/>
<path clip-path="url(#clip612)" d="M1275.02 215.114 L1275.02 1042.58 L1297.56 1042.58 L1297.56 215.114 L1275.02 215.114 L1275.02 215.114  Z" fill="#009af9" fill-rule="evenodd" fill-opacity="0.5"/>
<polyline clip-path="url(#clip612)" style="stroke:#000000; stroke-linecap:round; stroke-linejoin:round; stroke-width:4; stroke-opacity:0.5; fill:none" points="1275.02,215.114 1275.02,1042.58 1297.56,1042.58 1297.56,215.114 1275.02,215.114 "/>
<path clip-path="url(#clip612)" d="M1303.2 316.911 L1303.2 1042.58 L1325.74 1042.58 L1325.74 316.911 L1303.2 316.911 L1303.2 316.911  Z" fill="#009af9" fill-rule="evenodd" fill-opacity="0.5"/>
<polyline clip-path="url(#clip612)" style="stroke:#000000; stroke-linecap:round; stroke-linejoin:round; stroke-width:4; stroke-opacity:0.5; fill:none" points="1303.2,316.911 1303.2,1042.58 1325.74,1042.58 1325.74,316.911 1303.2,316.911 "/>
<path clip-path="url(#clip612)" d="M1331.38 362.685 L1331.38 1042.58 L1353.92 1042.58 L1353.92 362.685 L1331.38 362.685 L1331.38 362.685  Z" fill="#009af9" fill-rule="evenodd" fill-opacity="0.5"/>
<polyline clip-path="url(#clip612)" style="stroke:#000000; stroke-linecap:round; stroke-linejoin:round; stroke-width:4; stroke-opacity:0.5; fill:none" points="1331.38,362.685 1331.38,1042.58 1353.92,1042.58 1353.92,362.685 1331.38,362.685 "/>
<path clip-path="url(#clip612)" d="M1359.56 554.03 L1359.56 1042.58 L1382.1 1042.58 L1382.1 554.03 L1359.56 554.03 L1359.56 554.03  Z" fill="#009af9" fill-rule="evenodd" fill-opacity="0.5"/>
<polyline clip-path="url(#clip612)" style="stroke:#000000; stroke-linecap:round; stroke-linejoin:round; stroke-width:4; stroke-opacity:0.5; fill:none" points="1359.56,554.03 1359.56,1042.58 1382.1,1042.58 1382.1,554.03 1359.56,554.03 "/>
<path clip-path="url(#clip612)" d="M1387.74 418.708 L1387.74 1042.58 L1410.28 1042.58 L1410.28 418.708 L1387.74 418.708 L1387.74 418.708  Z" fill="#009af9" fill-rule="evenodd" fill-opacity="0.5"/>
<polyline clip-path="url(#clip612)" style="stroke:#000000; stroke-linecap:round; stroke-linejoin:round; stroke-width:4; stroke-opacity:0.5; fill:none" points="1387.74,418.708 1387.74,1042.58 1410.28,1042.58 1410.28,418.708 1387.74,418.708 "/>
<path clip-path="url(#clip612)" d="M1415.92 244.685 L1415.92 1042.58 L1438.46 1042.58 L1438.46 244.685 L1415.92 244.685 L1415.92 244.685  Z" fill="#009af9" fill-rule="evenodd" fill-opacity="0.5"/>
<polyline clip-path="url(#clip612)" style="stroke:#000000; stroke-linecap:round; stroke-linejoin:round; stroke-width:4; stroke-opacity:0.5; fill:none" points="1415.92,244.685 1415.92,1042.58 1438.46,1042.58 1438.46,244.685 1415.92,244.685 "/>
<path clip-path="url(#clip612)" d="M1444.1 180.43 L1444.1 1042.58 L1466.64 1042.58 L1466.64 180.43 L1444.1 180.43 L1444.1 180.43  Z" fill="#009af9" fill-rule="evenodd" fill-opacity="0.5"/>
<polyline clip-path="url(#clip612)" style="stroke:#000000; stroke-linecap:round; stroke-linejoin:round; stroke-width:4; stroke-opacity:0.5; fill:none" points="1444.1,180.43 1444.1,1042.58 1466.64,1042.58 1466.64,180.43 1444.1,180.43 "/>
<path clip-path="url(#clip612)" d="M1472.28 164.733 L1472.28 1042.58 L1494.82 1042.58 L1494.82 164.733 L1472.28 164.733 L1472.28 164.733  Z" fill="#009af9" fill-rule="evenodd" fill-opacity="0.5"/>
<polyline clip-path="url(#clip612)" style="stroke:#000000; stroke-linecap:round; stroke-linejoin:round; stroke-width:4; stroke-opacity:0.5; fill:none" points="1472.28,164.733 1472.28,1042.58 1494.82,1042.58 1494.82,164.733 1472.28,164.733 "/>
<path clip-path="url(#clip612)" d="M1500.45 215.114 L1500.45 1042.58 L1523 1042.58 L1523 215.114 L1500.45 215.114 L1500.45 215.114  Z" fill="#009af9" fill-rule="evenodd" fill-opacity="0.5"/>
<polyline clip-path="url(#clip612)" style="stroke:#000000; stroke-linecap:round; stroke-linejoin:round; stroke-width:4; stroke-opacity:0.5; fill:none" points="1500.45,215.114 1500.45,1042.58 1523,1042.58 1523,215.114 1500.45,215.114 "/>
<path clip-path="url(#clip612)" d="M1528.63 215.114 L1528.63 1042.58 L1551.18 1042.58 L1551.18 215.114 L1528.63 215.114 L1528.63 215.114  Z" fill="#009af9" fill-rule="evenodd" fill-opacity="0.5"/>
<polyline clip-path="url(#clip612)" style="stroke:#000000; stroke-linecap:round; stroke-linejoin:round; stroke-width:4; stroke-opacity:0.5; fill:none" points="1528.63,215.114 1528.63,1042.58 1551.18,1042.58 1551.18,215.114 1528.63,215.114 "/>
<path clip-path="url(#clip612)" d="M1556.81 316.911 L1556.81 1042.58 L1579.36 1042.58 L1579.36 316.911 L1556.81 316.911 L1556.81 316.911  Z" fill="#009af9" fill-rule="evenodd" fill-opacity="0.5"/>
<polyline clip-path="url(#clip612)" style="stroke:#000000; stroke-linecap:round; stroke-linejoin:round; stroke-width:4; stroke-opacity:0.5; fill:none" points="1556.81,316.911 1556.81,1042.58 1579.36,1042.58 1579.36,316.911 1556.81,316.911 "/>
<path clip-path="url(#clip612)" d="M1584.99 418.708 L1584.99 1042.58 L1607.54 1042.58 L1607.54 418.708 L1584.99 418.708 L1584.99 418.708  Z" fill="#009af9" fill-rule="evenodd" fill-opacity="0.5"/>
<polyline clip-path="url(#clip612)" style="stroke:#000000; stroke-linecap:round; stroke-linejoin:round; stroke-width:4; stroke-opacity:0.5; fill:none" points="1584.99,418.708 1584.99,1042.58 1607.54,1042.58 1607.54,418.708 1584.99,418.708 "/>
<path clip-path="url(#clip612)" d="M1613.17 362.685 L1613.17 1042.58 L1635.71 1042.58 L1635.71 362.685 L1613.17 362.685 L1613.17 362.685  Z" fill="#009af9" fill-rule="evenodd" fill-opacity="0.5"/>
<polyline clip-path="url(#clip612)" style="stroke:#000000; stroke-linecap:round; stroke-linejoin:round; stroke-width:4; stroke-opacity:0.5; fill:none" points="1613.17,362.685 1613.17,1042.58 1635.71,1042.58 1635.71,362.685 1613.17,362.685 "/>
<path clip-path="url(#clip612)" d="M1641.35 234.436 L1641.35 1042.58 L1663.89 1042.58 L1663.89 234.436 L1641.35 234.436 L1641.35 234.436  Z" fill="#009af9" fill-rule="evenodd" fill-opacity="0.5"/>
<polyline clip-path="url(#clip612)" style="stroke:#000000; stroke-linecap:round; stroke-linejoin:round; stroke-width:4; stroke-opacity:0.5; fill:none" points="1641.35,234.436 1641.35,1042.58 1663.89,1042.58 1663.89,234.436 1641.35,234.436 "/>
<path clip-path="url(#clip612)" d="M1669.53 266.53 L1669.53 1042.58 L1692.07 1042.58 L1692.07 266.53 L1669.53 266.53 L1669.53 266.53  Z" fill="#009af9" fill-rule="evenodd" fill-opacity="0.5"/>
<polyline clip-path="url(#clip612)" style="stroke:#000000; stroke-linecap:round; stroke-linejoin:round; stroke-width:4; stroke-opacity:0.5; fill:none" points="1669.53,266.53 1669.53,1042.58 1692.07,1042.58 1692.07,266.53 1669.53,266.53 "/>
<path clip-path="url(#clip612)" d="M1697.71 266.53 L1697.71 1042.58 L1720.25 1042.58 L1720.25 266.53 L1697.71 266.53 L1697.71 266.53  Z" fill="#009af9" fill-rule="evenodd" fill-opacity="0.5"/>
<polyline clip-path="url(#clip612)" style="stroke:#000000; stroke-linecap:round; stroke-linejoin:round; stroke-width:4; stroke-opacity:0.5; fill:none" points="1697.71,266.53 1697.71,1042.58 1720.25,1042.58 1720.25,266.53 1697.71,266.53 "/>
<path clip-path="url(#clip612)" d="M1725.89 224.589 L1725.89 1042.58 L1748.43 1042.58 L1748.43 224.589 L1725.89 224.589 L1725.89 224.589  Z" fill="#009af9" fill-rule="evenodd" fill-opacity="0.5"/>
<polyline clip-path="url(#clip612)" style="stroke:#000000; stroke-linecap:round; stroke-linejoin:round; stroke-width:4; stroke-opacity:0.5; fill:none" points="1725.89,224.589 1725.89,1042.58 1748.43,1042.58 1748.43,224.589 1725.89,224.589 "/>
<path clip-path="url(#clip612)" d="M1754.07 490.935 L1754.07 1042.58 L1776.61 1042.58 L1776.61 490.935 L1754.07 490.935 L1754.07 490.935  Z" fill="#009af9" fill-rule="evenodd" fill-opacity="0.5"/>
<polyline clip-path="url(#clip612)" style="stroke:#000000; stroke-linecap:round; stroke-linejoin:round; stroke-width:4; stroke-opacity:0.5; fill:none" points="1754.07,490.935 1754.07,1042.58 1776.61,1042.58 1776.61,490.935 1754.07,490.935 "/>
<path clip-path="url(#clip612)" d="M1782.25 346.482 L1782.25 1042.58 L1804.79 1042.58 L1804.79 346.482 L1782.25 346.482 L1782.25 346.482  Z" fill="#009af9" fill-rule="evenodd" fill-opacity="0.5"/>
<polyline clip-path="url(#clip612)" style="stroke:#000000; stroke-linecap:round; stroke-linejoin:round; stroke-width:4; stroke-opacity:0.5; fill:none" points="1782.25,346.482 1782.25,1042.58 1804.79,1042.58 1804.79,346.482 1782.25,346.482 "/>
<path clip-path="url(#clip612)" d="M1810.43 346.482 L1810.43 1042.58 L1832.97 1042.58 L1832.97 346.482 L1810.43 346.482 L1810.43 346.482  Z" fill="#009af9" fill-rule="evenodd" fill-opacity="0.5"/>
<polyline clip-path="url(#clip612)" style="stroke:#000000; stroke-linecap:round; stroke-linejoin:round; stroke-width:4; stroke-opacity:0.5; fill:none" points="1810.43,346.482 1810.43,1042.58 1832.97,1042.58 1832.97,346.482 1810.43,346.482 "/>
<path clip-path="url(#clip612)" d="M1838.61 197.173 L1838.61 1042.58 L1861.15 1042.58 L1861.15 197.173 L1838.61 197.173 L1838.61 197.173  Z" fill="#009af9" fill-rule="evenodd" fill-opacity="0.5"/>
<polyline clip-path="url(#clip612)" style="stroke:#000000; stroke-linecap:round; stroke-linejoin:round; stroke-width:4; stroke-opacity:0.5; fill:none" points="1838.61,197.173 1838.61,1042.58 1861.15,1042.58 1861.15,197.173 1838.61,197.173 "/>
<path clip-path="url(#clip612)" d="M1866.78 266.53 L1866.78 1042.58 L1889.33 1042.58 L1889.33 266.53 L1866.78 266.53 L1866.78 266.53  Z" fill="#009af9" fill-rule="evenodd" fill-opacity="0.5"/>
<polyline clip-path="url(#clip612)" style="stroke:#000000; stroke-linecap:round; stroke-linejoin:round; stroke-width:4; stroke-opacity:0.5; fill:none" points="1866.78,266.53 1866.78,1042.58 1889.33,1042.58 1889.33,266.53 1866.78,266.53 "/>
<path clip-path="url(#clip612)" d="M1894.96 398.613 L1894.96 1042.58 L1917.51 1042.58 L1917.51 398.613 L1894.96 398.613 L1894.96 398.613  Z" fill="#009af9" fill-rule="evenodd" fill-opacity="0.5"/>
<polyline clip-path="url(#clip612)" style="stroke:#000000; stroke-linecap:round; stroke-linejoin:round; stroke-width:4; stroke-opacity:0.5; fill:none" points="1894.96,398.613 1894.96,1042.58 1917.51,1042.58 1917.51,398.613 1894.96,398.613 "/>
<path clip-path="url(#clip612)" d="M1923.14 440.554 L1923.14 1042.58 L1945.69 1042.58 L1945.69 440.554 L1923.14 440.554 L1923.14 440.554  Z" fill="#009af9" fill-rule="evenodd" fill-opacity="0.5"/>
<polyline clip-path="url(#clip612)" style="stroke:#000000; stroke-linecap:round; stroke-linejoin:round; stroke-width:4; stroke-opacity:0.5; fill:none" points="1923.14,440.554 1923.14,1042.58 1945.69,1042.58 1945.69,440.554 1923.14,440.554 "/>
<path clip-path="url(#clip612)" d="M1951.32 520.505 L1951.32 1042.58 L1973.87 1042.58 L1973.87 520.505 L1951.32 520.505 L1951.32 520.505  Z" fill="#009af9" fill-rule="evenodd" fill-opacity="0.5"/>
<polyline clip-path="url(#clip612)" style="stroke:#000000; stroke-linecap:round; stroke-linejoin:round; stroke-width:4; stroke-opacity:0.5; fill:none" points="1951.32,520.505 1951.32,1042.58 1973.87,1042.58 1973.87,520.505 1951.32,520.505 "/>
<path clip-path="url(#clip612)" d="M1979.5 638.506 L1979.5 1042.58 L2002.04 1042.58 L2002.04 638.506 L1979.5 638.506 L1979.5 638.506  Z" fill="#009af9" fill-rule="evenodd" fill-opacity="0.5"/>
<polyline clip-path="url(#clip612)" style="stroke:#000000; stroke-linecap:round; stroke-linejoin:round; stroke-width:4; stroke-opacity:0.5; fill:none" points="1979.5,638.506 1979.5,1042.58 2002.04,1042.58 2002.04,638.506 1979.5,638.506 "/>
<path clip-path="url(#clip612)" d="M2007.68 362.685 L2007.68 1042.58 L2030.22 1042.58 L2030.22 362.685 L2007.68 362.685 L2007.68 362.685  Z" fill="#009af9" fill-rule="evenodd" fill-opacity="0.5"/>
<polyline clip-path="url(#clip612)" style="stroke:#000000; stroke-linecap:round; stroke-linejoin:round; stroke-width:4; stroke-opacity:0.5; fill:none" points="2007.68,362.685 2007.68,1042.58 2030.22,1042.58 2030.22,362.685 2007.68,362.685 "/>
<path clip-path="url(#clip612)" d="M2035.86 464.482 L2035.86 1042.58 L2058.4 1042.58 L2058.4 464.482 L2035.86 464.482 L2035.86 464.482  Z" fill="#009af9" fill-rule="evenodd" fill-opacity="0.5"/>
<polyline clip-path="url(#clip612)" style="stroke:#000000; stroke-linecap:round; stroke-linejoin:round; stroke-width:4; stroke-opacity:0.5; fill:none" points="2035.86,464.482 2035.86,1042.58 2058.4,1042.58 2058.4,464.482 2035.86,464.482 "/>
<path clip-path="url(#clip612)" d="M2064.04 266.53 L2064.04 1042.58 L2086.58 1042.58 L2086.58 266.53 L2064.04 266.53 L2064.04 266.53  Z" fill="#009af9" fill-rule="evenodd" fill-opacity="0.5"/>
<polyline clip-path="url(#clip612)" style="stroke:#000000; stroke-linecap:round; stroke-linejoin:round; stroke-width:4; stroke-opacity:0.5; fill:none" points="2064.04,266.53 2064.04,1042.58 2086.58,1042.58 2086.58,266.53 2064.04,266.53 "/>
<path clip-path="url(#clip612)" d="M2092.22 380.007 L2092.22 1042.58 L2114.76 1042.58 L2114.76 380.007 L2092.22 380.007 L2092.22 380.007  Z" fill="#009af9" fill-rule="evenodd" fill-opacity="0.5"/>
<polyline clip-path="url(#clip612)" style="stroke:#000000; stroke-linecap:round; stroke-linejoin:round; stroke-width:4; stroke-opacity:0.5; fill:none" points="2092.22,380.007 2092.22,1042.58 2114.76,1042.58 2114.76,380.007 2092.22,380.007 "/>
<path clip-path="url(#clip612)" d="M2120.4 398.613 L2120.4 1042.58 L2142.94 1042.58 L2142.94 398.613 L2120.4 398.613 L2120.4 398.613  Z" fill="#009af9" fill-rule="evenodd" fill-opacity="0.5"/>
<polyline clip-path="url(#clip612)" style="stroke:#000000; stroke-linecap:round; stroke-linejoin:round; stroke-width:4; stroke-opacity:0.5; fill:none" points="2120.4,398.613 2120.4,1042.58 2142.94,1042.58 2142.94,398.613 2120.4,398.613 "/>
<path clip-path="url(#clip612)" d="M2148.58 638.506 L2148.58 1042.58 L2171.12 1042.58 L2171.12 638.506 L2148.58 638.506 L2148.58 638.506  Z" fill="#009af9" fill-rule="evenodd" fill-opacity="0.5"/>
<polyline clip-path="url(#clip612)" style="stroke:#000000; stroke-linecap:round; stroke-linejoin:round; stroke-width:4; stroke-opacity:0.5; fill:none" points="2148.58,638.506 2148.58,1042.58 2171.12,1042.58 2171.12,638.506 2148.58,638.506 "/>
<path clip-path="url(#clip612)" d="M2176.76 520.505 L2176.76 1042.58 L2199.3 1042.58 L2199.3 520.505 L2176.76 520.505 L2176.76 520.505  Z" fill="#009af9" fill-rule="evenodd" fill-opacity="0.5"/>
<polyline clip-path="url(#clip612)" style="stroke:#000000; stroke-linecap:round; stroke-linejoin:round; stroke-width:4; stroke-opacity:0.5; fill:none" points="2176.76,520.505 2176.76,1042.58 2199.3,1042.58 2199.3,520.505 2176.76,520.505 "/>
<path clip-path="url(#clip612)" d="M2204.94 520.505 L2204.94 1042.58 L2227.48 1042.58 L2227.48 520.505 L2204.94 520.505 L2204.94 520.505  Z" fill="#009af9" fill-rule="evenodd" fill-opacity="0.5"/>
<polyline clip-path="url(#clip612)" style="stroke:#000000; stroke-linecap:round; stroke-linejoin:round; stroke-width:4; stroke-opacity:0.5; fill:none" points="2204.94,520.505 2204.94,1042.58 2227.48,1042.58 2227.48,520.505 2204.94,520.505 "/>
<path clip-path="url(#clip612)" d="M2233.11 520.505 L2233.11 1042.58 L2255.66 1042.58 L2255.66 520.505 L2233.11 520.505 L2233.11 520.505  Z" fill="#009af9" fill-rule="evenodd" fill-opacity="0.5"/>
<polyline clip-path="url(#clip612)" style="stroke:#000000; stroke-linecap:round; stroke-linejoin:round; stroke-width:4; stroke-opacity:0.5; fill:none" points="2233.11,520.505 2233.11,1042.58 2255.66,1042.58 2255.66,520.505 2233.11,520.505 "/>
<path clip-path="url(#clip612)" d="M2261.29 490.935 L2261.29 1042.58 L2283.84 1042.58 L2283.84 490.935 L2261.29 490.935 L2261.29 490.935  Z" fill="#009af9" fill-rule="evenodd" fill-opacity="0.5"/>
<polyline clip-path="url(#clip612)" style="stroke:#000000; stroke-linecap:round; stroke-linejoin:round; stroke-width:4; stroke-opacity:0.5; fill:none" points="2261.29,490.935 2261.29,1042.58 2283.84,1042.58 2283.84,490.935 2261.29,490.935 "/>
<path clip-path="url(#clip612)" d="M2289.47 638.506 L2289.47 1042.58 L2312.02 1042.58 L2312.02 638.506 L2289.47 638.506 L2289.47 638.506  Z" fill="#009af9" fill-rule="evenodd" fill-opacity="0.5"/>
<polyline clip-path="url(#clip612)" style="stroke:#000000; stroke-linecap:round; stroke-linejoin:round; stroke-width:4; stroke-opacity:0.5; fill:none" points="2289.47,638.506 2289.47,1042.58 2312.02,1042.58 2312.02,638.506 2289.47,638.506 "/>
<path clip-path="url(#clip612)" d="M2317.65 490.935 L2317.65 1042.58 L2340.2 1042.58 L2340.2 490.935 L2317.65 490.935 L2317.65 490.935  Z" fill="#009af9" fill-rule="evenodd" fill-opacity="0.5"/>
<polyline clip-path="url(#clip612)" style="stroke:#000000; stroke-linecap:round; stroke-linejoin:round; stroke-width:4; stroke-opacity:0.5; fill:none" points="2317.65,490.935 2317.65,1042.58 2340.2,1042.58 2340.2,490.935 2317.65,490.935 "/>
<path clip-path="url(#clip612)" d="M2345.83 638.506 L2345.83 1042.58 L2368.38 1042.58 L2368.38 638.506 L2345.83 638.506 L2345.83 638.506  Z" fill="#009af9" fill-rule="evenodd" fill-opacity="0.5"/>
<polyline clip-path="url(#clip612)" style="stroke:#000000; stroke-linecap:round; stroke-linejoin:round; stroke-width:4; stroke-opacity:0.5; fill:none" points="2345.83,638.506 2345.83,1042.58 2368.38,1042.58 2368.38,638.506 2345.83,638.506 "/>
<path clip-path="url(#clip612)" d="M2374.01 766.755 L2374.01 1042.58 L2396.55 1042.58 L2396.55 766.755 L2374.01 766.755 L2374.01 766.755  Z" fill="#009af9" fill-rule="evenodd" fill-opacity="0.5"/>
<polyline clip-path="url(#clip612)" style="stroke:#000000; stroke-linecap:round; stroke-linejoin:round; stroke-width:4; stroke-opacity:0.5; fill:none" points="2374.01,766.755 2374.01,1042.58 2396.55,1042.58 2396.55,766.755 2374.01,766.755 "/>
<path clip-path="url(#clip612)" d="M2402.19 592.732 L2402.19 1042.58 L2424.73 1042.58 L2424.73 592.732 L2402.19 592.732 L2402.19 592.732  Z" fill="#009af9" fill-rule="evenodd" fill-opacity="0.5"/>
<polyline clip-path="url(#clip612)" style="stroke:#000000; stroke-linecap:round; stroke-linejoin:round; stroke-width:4; stroke-opacity:0.5; fill:none" points="2402.19,592.732 2402.19,1042.58 2424.73,1042.58 2424.73,592.732 2402.19,592.732 "/>
<path clip-path="url(#clip612)" d="M2458.55 1042.58 L2458.55 1042.58 L2481.09 1042.58 L2481.09 1042.58 L2458.55 1042.58 L2458.55 1042.58  Z" fill="#009af9" fill-rule="evenodd" fill-opacity="0.5"/>
<polyline clip-path="url(#clip612)" style="stroke:#000000; stroke-linecap:round; stroke-linejoin:round; stroke-width:4; stroke-opacity:0.5; fill:none" points="2458.55,1042.58 2458.55,1042.58 2481.09,1042.58 2458.55,1042.58 "/>
<path clip-path="url(#clip612)" d="M2514.91 868.552 L2514.91 1042.58 L2537.45 1042.58 L2537.45 868.552 L2514.91 868.552 L2514.91 868.552  Z" fill="#009af9" fill-rule="evenodd" fill-opacity="0.5"/>
<polyline clip-path="url(#clip612)" style="stroke:#000000; stroke-linecap:round; stroke-linejoin:round; stroke-width:4; stroke-opacity:0.5; fill:none" points="2514.91,868.552 2514.91,1042.58 2537.45,1042.58 2537.45,868.552 2514.91,868.552 "/>
<path clip-path="url(#clip612)" d="M2543.09 694.529 L2543.09 1042.58 L2565.63 1042.58 L2565.63 694.529 L2543.09 694.529 L2543.09 694.529  Z" fill="#009af9" fill-rule="evenodd" fill-opacity="0.5"/>
<polyline clip-path="url(#clip612)" style="stroke:#000000; stroke-linecap:round; stroke-linejoin:round; stroke-width:4; stroke-opacity:0.5; fill:none" points="2543.09,694.529 2543.09,1042.58 2565.63,1042.58 2565.63,694.529 2543.09,694.529 "/>
<circle clip-path="url(#clip612)" style="fill:#009af9; stroke:none; fill-opacity:0" cx="300.018" cy="464.482" r="2"/>
<circle clip-path="url(#clip612)" style="fill:#009af9; stroke:none; fill-opacity:0" cx="328.198" cy="380.007" r="2"/>
<circle clip-path="url(#clip612)" style="fill:#009af9; stroke:none; fill-opacity:0" cx="356.377" cy="346.482" r="2"/>
<circle clip-path="url(#clip612)" style="fill:#009af9; stroke:none; fill-opacity:0" cx="384.556" cy="592.732" r="2"/>
<circle clip-path="url(#clip612)" style="fill:#009af9; stroke:none; fill-opacity:0" cx="412.735" cy="380.007" r="2"/>
<circle clip-path="url(#clip612)" style="fill:#009af9; stroke:none; fill-opacity:0" cx="440.915" cy="362.685" r="2"/>
<circle clip-path="url(#clip612)" style="fill:#009af9; stroke:none; fill-opacity:0" cx="469.094" cy="290.459" r="2"/>
<circle clip-path="url(#clip612)" style="fill:#009af9; stroke:none; fill-opacity:0" cx="497.273" cy="303.337" r="2"/>
<circle clip-path="url(#clip612)" style="fill:#009af9; stroke:none; fill-opacity:0" cx="525.452" cy="278.21" r="2"/>
<circle clip-path="url(#clip612)" style="fill:#009af9; stroke:none; fill-opacity:0" cx="553.632" cy="255.37" r="2"/>
<circle clip-path="url(#clip612)" style="fill:#009af9; stroke:none; fill-opacity:0" cx="581.811" cy="278.21" r="2"/>
<circle clip-path="url(#clip612)" style="fill:#009af9; stroke:none; fill-opacity:0" cx="609.99" cy="316.911" r="2"/>
<circle clip-path="url(#clip612)" style="fill:#009af9; stroke:none; fill-opacity:0" cx="638.169" cy="224.589" r="2"/>
<circle clip-path="url(#clip612)" style="fill:#009af9; stroke:none; fill-opacity:0" cx="666.349" cy="244.685" r="2"/>
<circle clip-path="url(#clip612)" style="fill:#009af9; stroke:none; fill-opacity:0" cx="694.528" cy="110.236" r="2"/>
<circle clip-path="url(#clip612)" style="fill:#009af9; stroke:none; fill-opacity:0" cx="722.707" cy="197.173" r="2"/>
<circle clip-path="url(#clip612)" style="fill:#009af9; stroke:none; fill-opacity:0" cx="750.886" cy="316.911" r="2"/>
<circle clip-path="url(#clip612)" style="fill:#009af9; stroke:none; fill-opacity:0" cx="779.066" cy="490.935" r="2"/>
<circle clip-path="url(#clip612)" style="fill:#009af9; stroke:none; fill-opacity:0" cx="807.245" cy="149.96" r="2"/>
<circle clip-path="url(#clip612)" style="fill:#009af9; stroke:none; fill-opacity:0" cx="835.424" cy="129.313" r="2"/>
<circle clip-path="url(#clip612)" style="fill:#009af9; stroke:none; fill-opacity:0" cx="863.603" cy="164.733" r="2"/>
<circle clip-path="url(#clip612)" style="fill:#009af9; stroke:none; fill-opacity:0" cx="891.783" cy="188.662" r="2"/>
<circle clip-path="url(#clip612)" style="fill:#009af9; stroke:none; fill-opacity:0" cx="919.962" cy="172.459" r="2"/>
<circle clip-path="url(#clip612)" style="fill:#009af9; stroke:none; fill-opacity:0" cx="948.141" cy="398.613" r="2"/>
<circle clip-path="url(#clip612)" style="fill:#009af9; stroke:none; fill-opacity:0" cx="976.32" cy="316.911" r="2"/>
<circle clip-path="url(#clip612)" style="fill:#009af9; stroke:none; fill-opacity:0" cx="1004.5" cy="346.482" r="2"/>
<circle clip-path="url(#clip612)" style="fill:#009af9; stroke:none; fill-opacity:0" cx="1032.68" cy="244.685" r="2"/>
<circle clip-path="url(#clip612)" style="fill:#009af9; stroke:none; fill-opacity:0" cx="1060.86" cy="224.589" r="2"/>
<circle clip-path="url(#clip612)" style="fill:#009af9; stroke:none; fill-opacity:0" cx="1089.04" cy="157.238" r="2"/>
<circle clip-path="url(#clip612)" style="fill:#009af9; stroke:none; fill-opacity:0" cx="1117.22" cy="278.21" r="2"/>
<circle clip-path="url(#clip612)" style="fill:#009af9; stroke:none; fill-opacity:0" cx="1145.4" cy="255.37" r="2"/>
<circle clip-path="url(#clip612)" style="fill:#009af9; stroke:none; fill-opacity:0" cx="1173.58" cy="418.708" r="2"/>
<circle clip-path="url(#clip612)" style="fill:#009af9; stroke:none; fill-opacity:0" cx="1201.75" cy="398.613" r="2"/>
<circle clip-path="url(#clip612)" style="fill:#009af9; stroke:none; fill-opacity:0" cx="1229.93" cy="188.662" r="2"/>
<circle clip-path="url(#clip612)" style="fill:#009af9; stroke:none; fill-opacity:0" cx="1258.11" cy="234.436" r="2"/>
<circle clip-path="url(#clip612)" style="fill:#009af9; stroke:none; fill-opacity:0" cx="1286.29" cy="215.114" r="2"/>
<circle clip-path="url(#clip612)" style="fill:#009af9; stroke:none; fill-opacity:0" cx="1314.47" cy="316.911" r="2"/>
<circle clip-path="url(#clip612)" style="fill:#009af9; stroke:none; fill-opacity:0" cx="1342.65" cy="362.685" r="2"/>
<circle clip-path="url(#clip612)" style="fill:#009af9; stroke:none; fill-opacity:0" cx="1370.83" cy="554.03" r="2"/>
<circle clip-path="url(#clip612)" style="fill:#009af9; stroke:none; fill-opacity:0" cx="1399.01" cy="418.708" r="2"/>
<circle clip-path="url(#clip612)" style="fill:#009af9; stroke:none; fill-opacity:0" cx="1427.19" cy="244.685" r="2"/>
<circle clip-path="url(#clip612)" style="fill:#009af9; stroke:none; fill-opacity:0" cx="1455.37" cy="180.43" r="2"/>
<circle clip-path="url(#clip612)" style="fill:#009af9; stroke:none; fill-opacity:0" cx="1483.55" cy="164.733" r="2"/>
<circle clip-path="url(#clip612)" style="fill:#009af9; stroke:none; fill-opacity:0" cx="1511.73" cy="215.114" r="2"/>
<circle clip-path="url(#clip612)" style="fill:#009af9; stroke:none; fill-opacity:0" cx="1539.91" cy="215.114" r="2"/>
<circle clip-path="url(#clip612)" style="fill:#009af9; stroke:none; fill-opacity:0" cx="1568.08" cy="316.911" r="2"/>
<circle clip-path="url(#clip612)" style="fill:#009af9; stroke:none; fill-opacity:0" cx="1596.26" cy="418.708" r="2"/>
<circle clip-path="url(#clip612)" style="fill:#009af9; stroke:none; fill-opacity:0" cx="1624.44" cy="362.685" r="2"/>
<circle clip-path="url(#clip612)" style="fill:#009af9; stroke:none; fill-opacity:0" cx="1652.62" cy="234.436" r="2"/>
<circle clip-path="url(#clip612)" style="fill:#009af9; stroke:none; fill-opacity:0" cx="1680.8" cy="266.53" r="2"/>
<circle clip-path="url(#clip612)" style="fill:#009af9; stroke:none; fill-opacity:0" cx="1708.98" cy="266.53" r="2"/>
<circle clip-path="url(#clip612)" style="fill:#009af9; stroke:none; fill-opacity:0" cx="1737.16" cy="224.589" r="2"/>
<circle clip-path="url(#clip612)" style="fill:#009af9; stroke:none; fill-opacity:0" cx="1765.34" cy="490.935" r="2"/>
<circle clip-path="url(#clip612)" style="fill:#009af9; stroke:none; fill-opacity:0" cx="1793.52" cy="346.482" r="2"/>
<circle clip-path="url(#clip612)" style="fill:#009af9; stroke:none; fill-opacity:0" cx="1821.7" cy="346.482" r="2"/>
<circle clip-path="url(#clip612)" style="fill:#009af9; stroke:none; fill-opacity:0" cx="1849.88" cy="197.173" r="2"/>
<circle clip-path="url(#clip612)" style="fill:#009af9; stroke:none; fill-opacity:0" cx="1878.06" cy="266.53" r="2"/>
<circle clip-path="url(#clip612)" style="fill:#009af9; stroke:none; fill-opacity:0" cx="1906.24" cy="398.613" r="2"/>
<circle clip-path="url(#clip612)" style="fill:#009af9; stroke:none; fill-opacity:0" cx="1934.41" cy="440.554" r="2"/>
<circle clip-path="url(#clip612)" style="fill:#009af9; stroke:none; fill-opacity:0" cx="1962.59" cy="520.505" r="2"/>
<circle clip-path="url(#clip612)" style="fill:#009af9; stroke:none; fill-opacity:0" cx="1990.77" cy="638.506" r="2"/>
<circle clip-path="url(#clip612)" style="fill:#009af9; stroke:none; fill-opacity:0" cx="2018.95" cy="362.685" r="2"/>
<circle clip-path="url(#clip612)" style="fill:#009af9; stroke:none; fill-opacity:0" cx="2047.13" cy="464.482" r="2"/>
<circle clip-path="url(#clip612)" style="fill:#009af9; stroke:none; fill-opacity:0" cx="2075.31" cy="266.53" r="2"/>
<circle clip-path="url(#clip612)" style="fill:#009af9; stroke:none; fill-opacity:0" cx="2103.49" cy="380.007" r="2"/>
<circle clip-path="url(#clip612)" style="fill:#009af9; stroke:none; fill-opacity:0" cx="2131.67" cy="398.613" r="2"/>
<circle clip-path="url(#clip612)" style="fill:#009af9; stroke:none; fill-opacity:0" cx="2159.85" cy="638.506" r="2"/>
<circle clip-path="url(#clip612)" style="fill:#009af9; stroke:none; fill-opacity:0" cx="2188.03" cy="520.505" r="2"/>
<circle clip-path="url(#clip612)" style="fill:#009af9; stroke:none; fill-opacity:0" cx="2216.21" cy="520.505" r="2"/>
<circle clip-path="url(#clip612)" style="fill:#009af9; stroke:none; fill-opacity:0" cx="2244.39" cy="520.505" r="2"/>
<circle clip-path="url(#clip612)" style="fill:#009af9; stroke:none; fill-opacity:0" cx="2272.57" cy="490.935" r="2"/>
<circle clip-path="url(#clip612)" style="fill:#009af9; stroke:none; fill-opacity:0" cx="2300.74" cy="638.506" r="2"/>
<circle clip-path="url(#clip612)" style="fill:#009af9; stroke:none; fill-opacity:0" cx="2328.92" cy="490.935" r="2"/>
<circle clip-path="url(#clip612)" style="fill:#009af9; stroke:none; fill-opacity:0" cx="2357.1" cy="638.506" r="2"/>
<circle clip-path="url(#clip612)" style="fill:#009af9; stroke:none; fill-opacity:0" cx="2385.28" cy="766.755" r="2"/>
<circle clip-path="url(#clip612)" style="fill:#009af9; stroke:none; fill-opacity:0" cx="2413.46" cy="592.732" r="2"/>
<circle clip-path="url(#clip612)" style="fill:#009af9; stroke:none; fill-opacity:0" cx="2469.82" cy="1042.58" r="2"/>
<circle clip-path="url(#clip612)" style="fill:#009af9; stroke:none; fill-opacity:0" cx="2526.18" cy="868.552" r="2"/>
<circle clip-path="url(#clip612)" style="fill:#009af9; stroke:none; fill-opacity:0" cx="2554.36" cy="694.529" r="2"/>
</svg>
