<?xml version="1.0" encoding="utf-8"?>
<svg xmlns="http://www.w3.org/2000/svg" xmlns:xlink="http://www.w3.org/1999/xlink" width="800" height="300" viewBox="0 0 3200 1200">
<defs>
  <clipPath id="clip060">
    <rect x="0" y="0" width="3200" height="1200"/>
  </clipPath>
</defs>
<path clip-path="url(#clip060)" d="M0 1200 L3200 1200 L3200 0 L0 0  Z" fill="#ffffff" fill-rule="evenodd" fill-opacity="1"/>
<defs>
  <clipPath id="clip061">
    <rect x="640" y="0" width="2241" height="1200"/>
  </clipPath>
</defs>
<path clip-path="url(#clip060)" d="M271.839 1042.58 L3089.76 1042.58 L3089.76 110.236 L271.839 110.236  Z" fill="#ffffff" fill-rule="evenodd" fill-opacity="1"/>
<defs>
  <clipPath id="clip062">
    <rect x="271" y="110" width="2819" height="933"/>
  </clipPath>
</defs>
<polyline clip-path="url(#clip062)" style="stroke:#000000; stroke-linecap:round; stroke-linejoin:round; stroke-width:2; stroke-opacity:0.1; fill:none" points="722.707,1042.58 722.707,110.236 "/>
<polyline clip-path="url(#clip062)" style="stroke:#000000; stroke-linecap:round; stroke-linejoin:round; stroke-width:2; stroke-opacity:0.1; fill:none" points="1568.08,1042.58 1568.08,110.236 "/>
<polyline clip-path="url(#clip062)" style="stroke:#000000; stroke-linecap:round; stroke-linejoin:round; stroke-width:2; stroke-opacity:0.1; fill:none" points="2441.64,1042.58 2441.64,110.236 "/>
<polyline clip-path="url(#clip060)" style="stroke:#000000; stroke-linecap:round; stroke-linejoin:round; stroke-width:4; stroke-opacity:1; fill:none" points="271.839,1042.58 3089.76,1042.58 "/>
<polyline clip-path="url(#clip060)" style="stroke:#000000; stroke-linecap:round; stroke-linejoin:round; stroke-width:4; stroke-opacity:1; fill:none" points="722.707,1042.58 722.707,1023.68 "/>
<polyline clip-path="url(#clip060)" style="stroke:#000000; stroke-linecap:round; stroke-linejoin:round; stroke-width:4; stroke-opacity:1; fill:none" points="1568.08,1042.58 1568.08,1023.68 "/>
<polyline clip-path="url(#clip060)" style="stroke:#000000; stroke-linecap:round; stroke-linejoin:round; stroke-width:4; stroke-opacity:1; fill:none" points="2441.64,1042.58 2441.64,1023.68 "/>
<path clip-path="url(#clip060)" d="M594.502 1107.44 L610.821 1107.44 L610.821 1111.38 L588.877 1111.38 L588.877 1107.44 Q591.539 1104.69 596.122 1100.06 Q600.729 1095.4 601.909 1094.06 Q604.155 1091.54 605.034 1089.8 Q605.937 1088.04 605.937 1086.35 Q605.937 1083.6 603.993 1081.86 Q602.071 1080.13 598.969 1080.13 Q596.77 1080.13 594.317 1080.89 Q591.886 1081.65 589.108 1083.2 L589.108 1078.48 Q591.932 1077.35 594.386 1076.77 Q596.84 1076.19 598.877 1076.19 Q604.247 1076.19 607.442 1078.88 Q610.636 1081.56 610.636 1086.05 Q610.636 1088.18 609.826 1090.1 Q609.039 1092 606.932 1094.59 Q606.354 1095.26 603.252 1098.48 Q600.15 1101.68 594.502 1107.44 Z" fill="#000000" fill-rule="nonzero" fill-opacity="1" /><path clip-path="url(#clip060)" d="M630.636 1079.89 Q627.025 1079.89 625.196 1083.46 Q623.391 1087 623.391 1094.13 Q623.391 1101.24 625.196 1104.8 Q627.025 1108.34 630.636 1108.34 Q634.27 1108.34 636.076 1104.8 Q637.904 1101.24 637.904 1094.13 Q637.904 1087 636.076 1083.46 Q634.27 1079.89 630.636 1079.89 M630.636 1076.19 Q636.446 1076.19 639.502 1080.8 Q642.58 1085.38 642.58 1094.13 Q642.58 1102.86 639.502 1107.46 Q636.446 1112.05 630.636 1112.05 Q624.826 1112.05 621.747 1107.46 Q618.691 1102.86 618.691 1094.13 Q618.691 1085.38 621.747 1080.8 Q624.826 1076.19 630.636 1076.19 Z" fill="#000000" fill-rule="nonzero" fill-opacity="1" /><path clip-path="url(#clip060)" d="M654.826 1107.44 L671.145 1107.44 L671.145 1111.38 L649.201 1111.38 L649.201 1107.44 Q651.863 1104.69 656.446 1100.06 Q661.052 1095.4 662.233 1094.06 Q664.478 1091.54 665.358 1089.8 Q666.261 1088.04 666.261 1086.35 Q666.261 1083.6 664.316 1081.86 Q662.395 1080.13 659.293 1080.13 Q657.094 1080.13 654.64 1080.89 Q652.21 1081.65 649.432 1083.2 L649.432 1078.48 Q652.256 1077.35 654.71 1076.77 Q657.164 1076.19 659.201 1076.19 Q664.571 1076.19 667.765 1078.88 Q670.96 1081.56 670.96 1086.05 Q670.96 1088.18 670.15 1090.1 Q669.363 1092 667.256 1094.59 Q666.677 1095.26 663.576 1098.48 Q660.474 1101.68 654.826 1107.44 Z" fill="#000000" fill-rule="nonzero" fill-opacity="1" /><path clip-path="url(#clip060)" d="M693.807 1080.89 L682.001 1099.34 L693.807 1099.34 L693.807 1080.89 M692.58 1076.82 L698.46 1076.82 L698.46 1099.34 L703.39 1099.34 L703.39 1103.23 L698.46 1103.23 L698.46 1111.38 L693.807 1111.38 L693.807 1103.23 L678.205 1103.23 L678.205 1098.71 L692.58 1076.82 Z" fill="#000000" fill-rule="nonzero" fill-opacity="1" /><path clip-path="url(#clip060)" d="M708.367 1096.49 L720.844 1096.49 L720.844 1100.29 L708.367 1100.29 L708.367 1096.49 Z" fill="#000000" fill-rule="nonzero" fill-opacity="1" /><path clip-path="url(#clip060)" d="M738.228 1079.89 Q734.617 1079.89 732.788 1083.46 Q730.983 1087 730.983 1094.13 Q730.983 1101.24 732.788 1104.8 Q734.617 1108.34 738.228 1108.34 Q741.862 1108.34 743.668 1104.8 Q745.496 1101.24 745.496 1094.13 Q745.496 1087 743.668 1083.46 Q741.862 1079.89 738.228 1079.89 M738.228 1076.19 Q744.038 1076.19 747.094 1080.8 Q750.172 1085.38 750.172 1094.13 Q750.172 1102.86 747.094 1107.46 Q744.038 1112.05 738.228 1112.05 Q732.418 1112.05 729.339 1107.46 Q726.284 1102.86 726.284 1094.13 Q726.284 1085.38 729.339 1080.8 Q732.418 1076.19 738.228 1076.19 Z" fill="#000000" fill-rule="nonzero" fill-opacity="1" /><path clip-path="url(#clip060)" d="M768.968 1092.23 Q765.82 1092.23 763.968 1094.39 Q762.14 1096.54 762.14 1100.29 Q762.14 1104.01 763.968 1106.19 Q765.82 1108.34 768.968 1108.34 Q772.117 1108.34 773.945 1106.19 Q775.797 1104.01 775.797 1100.29 Q775.797 1096.54 773.945 1094.39 Q772.117 1092.23 768.968 1092.23 M778.251 1077.58 L778.251 1081.84 Q776.492 1081.01 774.686 1080.57 Q772.904 1080.13 771.144 1080.13 Q766.515 1080.13 764.061 1083.25 Q761.631 1086.38 761.283 1092.7 Q762.649 1090.68 764.709 1089.62 Q766.769 1088.53 769.246 1088.53 Q774.455 1088.53 777.464 1091.7 Q780.496 1094.85 780.496 1100.29 Q780.496 1105.61 777.348 1108.83 Q774.2 1112.05 768.968 1112.05 Q762.973 1112.05 759.802 1107.46 Q756.631 1102.86 756.631 1094.13 Q756.631 1085.94 760.519 1081.07 Q764.408 1076.19 770.959 1076.19 Q772.718 1076.19 774.501 1076.54 Q776.306 1076.89 778.251 1077.58 Z" fill="#000000" fill-rule="nonzero" fill-opacity="1" /><path clip-path="url(#clip060)" d="M785.797 1096.49 L798.274 1096.49 L798.274 1100.29 L785.797 1100.29 L785.797 1096.49 Z" fill="#000000" fill-rule="nonzero" fill-opacity="1" /><path clip-path="url(#clip060)" d="M815.658 1079.89 Q812.047 1079.89 810.218 1083.46 Q808.413 1087 808.413 1094.13 Q808.413 1101.24 810.218 1104.8 Q812.047 1108.34 815.658 1108.34 Q819.292 1108.34 821.098 1104.8 Q822.927 1101.24 822.927 1094.13 Q822.927 1087 821.098 1083.46 Q819.292 1079.89 815.658 1079.89 M815.658 1076.19 Q821.468 1076.19 824.524 1080.8 Q827.602 1085.38 827.602 1094.13 Q827.602 1102.86 824.524 1107.46 Q821.468 1112.05 815.658 1112.05 Q809.848 1112.05 806.769 1107.46 Q803.714 1102.86 803.714 1094.13 Q803.714 1085.38 806.769 1080.8 Q809.848 1076.19 815.658 1076.19 Z" fill="#000000" fill-rule="nonzero" fill-opacity="1" /><path clip-path="url(#clip060)" d="M836.63 1107.44 L844.269 1107.44 L844.269 1081.07 L835.959 1082.74 L835.959 1078.48 L844.223 1076.82 L848.899 1076.82 L848.899 1107.44 L856.537 1107.44 L856.537 1111.38 L836.63 1111.38 L836.63 1107.44 Z" fill="#000000" fill-rule="nonzero" fill-opacity="1" /><path clip-path="url(#clip060)" d="M1439.88 1107.44 L1456.2 1107.44 L1456.2 1111.38 L1434.25 1111.38 L1434.25 1107.44 Q1436.92 1104.69 1441.5 1100.06 Q1446.11 1095.4 1447.29 1094.06 Q1449.53 1091.54 1450.41 1089.8 Q1451.31 1088.04 1451.31 1086.35 Q1451.31 1083.6 1449.37 1081.86 Q1447.45 1080.13 1444.35 1080.13 Q1442.15 1080.13 1439.69 1080.89 Q1437.26 1081.65 1434.49 1083.2 L1434.49 1078.48 Q1437.31 1077.35 1439.76 1076.77 Q1442.22 1076.19 1444.25 1076.19 Q1449.62 1076.19 1452.82 1078.88 Q1456.01 1081.56 1456.01 1086.05 Q1456.01 1088.18 1455.2 1090.1 Q1454.42 1092 1452.31 1094.59 Q1451.73 1095.26 1448.63 1098.48 Q1445.53 1101.68 1439.88 1107.44 Z" fill="#000000" fill-rule="nonzero" fill-opacity="1" /><path clip-path="url(#clip060)" d="M1476.01 1079.89 Q1472.4 1079.89 1470.57 1083.46 Q1468.77 1087 1468.77 1094.13 Q1468.77 1101.24 1470.57 1104.8 Q1472.4 1108.34 1476.01 1108.34 Q1479.65 1108.34 1481.45 1104.8 Q1483.28 1101.24 1483.28 1094.13 Q1483.28 1087 1481.45 1083.46 Q1479.65 1079.89 1476.01 1079.89 M1476.01 1076.19 Q1481.82 1076.19 1484.88 1080.8 Q1487.96 1085.38 1487.96 1094.13 Q1487.96 1102.86 1484.88 1107.46 Q1481.82 1112.05 1476.01 1112.05 Q1470.2 1112.05 1467.12 1107.46 Q1464.07 1102.86 1464.07 1094.13 Q1464.07 1085.38 1467.12 1080.8 Q1470.2 1076.19 1476.01 1076.19 Z" fill="#000000" fill-rule="nonzero" fill-opacity="1" /><path clip-path="url(#clip060)" d="M1500.2 1107.44 L1516.52 1107.44 L1516.52 1111.38 L1494.58 1111.38 L1494.58 1107.44 Q1497.24 1104.69 1501.82 1100.06 Q1506.43 1095.4 1507.61 1094.06 Q1509.86 1091.54 1510.74 1089.8 Q1511.64 1088.04 1511.64 1086.35 Q1511.64 1083.6 1509.69 1081.86 Q1507.77 1080.13 1504.67 1080.13 Q1502.47 1080.13 1500.02 1080.89 Q1497.59 1081.65 1494.81 1083.2 L1494.81 1078.48 Q1497.63 1077.35 1500.09 1076.77 Q1502.54 1076.19 1504.58 1076.19 Q1509.95 1076.19 1513.14 1078.88 Q1516.34 1081.56 1516.34 1086.05 Q1516.34 1088.18 1515.53 1090.1 Q1514.74 1092 1512.63 1094.59 Q1512.05 1095.26 1508.95 1098.48 Q1505.85 1101.68 1500.2 1107.44 Z" fill="#000000" fill-rule="nonzero" fill-opacity="1" /><path clip-path="url(#clip060)" d="M1539.18 1080.89 L1527.38 1099.34 L1539.18 1099.34 L1539.18 1080.89 M1537.96 1076.82 L1543.84 1076.82 L1543.84 1099.34 L1548.77 1099.34 L1548.77 1103.23 L1543.84 1103.23 L1543.84 1111.38 L1539.18 1111.38 L1539.18 1103.23 L1523.58 1103.23 L1523.58 1098.71 L1537.96 1076.82 Z" fill="#000000" fill-rule="nonzero" fill-opacity="1" /><path clip-path="url(#clip060)" d="M1553.74 1096.49 L1566.22 1096.49 L1566.22 1100.29 L1553.74 1100.29 L1553.74 1096.49 Z" fill="#000000" fill-rule="nonzero" fill-opacity="1" /><path clip-path="url(#clip060)" d="M1583.61 1079.89 Q1579.99 1079.89 1578.17 1083.46 Q1576.36 1087 1576.36 1094.13 Q1576.36 1101.24 1578.17 1104.8 Q1579.99 1108.34 1583.61 1108.34 Q1587.24 1108.34 1589.05 1104.8 Q1590.87 1101.24 1590.87 1094.13 Q1590.87 1087 1589.05 1083.46 Q1587.24 1079.89 1583.61 1079.89 M1583.61 1076.19 Q1589.42 1076.19 1592.47 1080.8 Q1595.55 1085.38 1595.55 1094.13 Q1595.55 1102.86 1592.47 1107.46 Q1589.42 1112.05 1583.61 1112.05 Q1577.8 1112.05 1574.72 1107.46 Q1571.66 1102.86 1571.66 1094.13 Q1571.66 1085.38 1574.72 1080.8 Q1577.8 1076.19 1583.61 1076.19 Z" fill="#000000" fill-rule="nonzero" fill-opacity="1" /><path clip-path="url(#clip060)" d="M1602.59 1076.82 L1624.81 1076.82 L1624.81 1078.81 L1612.26 1111.38 L1607.38 1111.38 L1619.18 1080.75 L1602.59 1080.75 L1602.59 1076.82 Z" fill="#000000" fill-rule="nonzero" fill-opacity="1" /><path clip-path="url(#clip060)" d="M1631.17 1096.49 L1643.65 1096.49 L1643.65 1100.29 L1631.17 1100.29 L1631.17 1096.49 Z" fill="#000000" fill-rule="nonzero" fill-opacity="1" /><path clip-path="url(#clip060)" d="M1661.04 1079.89 Q1657.42 1079.89 1655.6 1083.46 Q1653.79 1087 1653.79 1094.13 Q1653.79 1101.24 1655.6 1104.8 Q1657.42 1108.34 1661.04 1108.34 Q1664.67 1108.34 1666.48 1104.8 Q1668.3 1101.24 1668.3 1094.13 Q1668.3 1087 1666.48 1083.46 Q1664.67 1079.89 1661.04 1079.89 M1661.04 1076.19 Q1666.85 1076.19 1669.9 1080.8 Q1672.98 1085.38 1672.98 1094.13 Q1672.98 1102.86 1669.9 1107.46 Q1666.85 1112.05 1661.04 1112.05 Q1655.23 1112.05 1652.15 1107.46 Q1649.09 1102.86 1649.09 1094.13 Q1649.09 1085.38 1652.15 1080.8 Q1655.23 1076.19 1661.04 1076.19 Z" fill="#000000" fill-rule="nonzero" fill-opacity="1" /><path clip-path="url(#clip060)" d="M1682.01 1107.44 L1689.65 1107.44 L1689.65 1081.07 L1681.34 1082.74 L1681.34 1078.48 L1689.6 1076.82 L1694.28 1076.82 L1694.28 1107.44 L1701.91 1107.44 L1701.91 1111.38 L1682.01 1111.38 L1682.01 1107.44 Z" fill="#000000" fill-rule="nonzero" fill-opacity="1" /><path clip-path="url(#clip060)" d="M2313.44 1107.44 L2329.76 1107.44 L2329.76 1111.38 L2307.81 1111.38 L2307.81 1107.44 Q2310.47 1104.69 2315.06 1100.06 Q2319.66 1095.4 2320.84 1094.06 Q2323.09 1091.54 2323.97 1089.8 Q2324.87 1088.04 2324.87 1086.35 Q2324.87 1083.6 2322.93 1081.86 Q2321.01 1080.13 2317.9 1080.13 Q2315.7 1080.13 2313.25 1080.89 Q2310.82 1081.65 2308.04 1083.2 L2308.04 1078.48 Q2310.87 1077.35 2313.32 1076.77 Q2315.77 1076.19 2317.81 1076.19 Q2323.18 1076.19 2326.38 1078.88 Q2329.57 1081.56 2329.57 1086.05 Q2329.57 1088.18 2328.76 1090.1 Q2327.97 1092 2325.87 1094.59 Q2325.29 1095.26 2322.19 1098.48 Q2319.08 1101.68 2313.44 1107.44 Z" fill="#000000" fill-rule="nonzero" fill-opacity="1" /><path clip-path="url(#clip060)" d="M2349.57 1079.89 Q2345.96 1079.89 2344.13 1083.46 Q2342.32 1087 2342.32 1094.13 Q2342.32 1101.24 2344.13 1104.8 Q2345.96 1108.34 2349.57 1108.34 Q2353.2 1108.34 2355.01 1104.8 Q2356.84 1101.24 2356.84 1094.13 Q2356.84 1087 2355.01 1083.46 Q2353.2 1079.89 2349.57 1079.89 M2349.57 1076.19 Q2355.38 1076.19 2358.44 1080.8 Q2361.51 1085.38 2361.51 1094.13 Q2361.51 1102.86 2358.44 1107.46 Q2355.38 1112.05 2349.57 1112.05 Q2343.76 1112.05 2340.68 1107.46 Q2337.63 1102.86 2337.63 1094.13 Q2337.63 1085.38 2340.68 1080.8 Q2343.76 1076.19 2349.57 1076.19 Z" fill="#000000" fill-rule="nonzero" fill-opacity="1" /><path clip-path="url(#clip060)" d="M2373.76 1107.44 L2390.08 1107.44 L2390.08 1111.38 L2368.13 1111.38 L2368.13 1107.44 Q2370.8 1104.69 2375.38 1100.06 Q2379.99 1095.4 2381.17 1094.06 Q2383.41 1091.54 2384.29 1089.8 Q2385.19 1088.04 2385.19 1086.35 Q2385.19 1083.6 2383.25 1081.86 Q2381.33 1080.13 2378.23 1080.13 Q2376.03 1080.13 2373.57 1080.89 Q2371.14 1081.65 2368.37 1083.2 L2368.37 1078.48 Q2371.19 1077.35 2373.64 1076.77 Q2376.1 1076.19 2378.13 1076.19 Q2383.5 1076.19 2386.7 1078.88 Q2389.89 1081.56 2389.89 1086.05 Q2389.89 1088.18 2389.08 1090.1 Q2388.3 1092 2386.19 1094.59 Q2385.61 1095.26 2382.51 1098.48 Q2379.41 1101.68 2373.76 1107.44 Z" fill="#000000" fill-rule="nonzero" fill-opacity="1" /><path clip-path="url(#clip060)" d="M2412.74 1080.89 L2400.94 1099.34 L2412.74 1099.34 L2412.74 1080.89 M2411.51 1076.82 L2417.39 1076.82 L2417.39 1099.34 L2422.32 1099.34 L2422.32 1103.23 L2417.39 1103.23 L2417.39 1111.38 L2412.74 1111.38 L2412.74 1103.23 L2397.14 1103.23 L2397.14 1098.71 L2411.51 1076.82 Z" fill="#000000" fill-rule="nonzero" fill-opacity="1" /><path clip-path="url(#clip060)" d="M2427.3 1096.49 L2439.78 1096.49 L2439.78 1100.29 L2427.3 1100.29 L2427.3 1096.49 Z" fill="#000000" fill-rule="nonzero" fill-opacity="1" /><path clip-path="url(#clip060)" d="M2457.16 1079.89 Q2453.55 1079.89 2451.72 1083.46 Q2449.92 1087 2449.92 1094.13 Q2449.92 1101.24 2451.72 1104.8 Q2453.55 1108.34 2457.16 1108.34 Q2460.8 1108.34 2462.6 1104.8 Q2464.43 1101.24 2464.43 1094.13 Q2464.43 1087 2462.6 1083.46 Q2460.8 1079.89 2457.16 1079.89 M2457.16 1076.19 Q2462.97 1076.19 2466.03 1080.8 Q2469.11 1085.38 2469.11 1094.13 Q2469.11 1102.86 2466.03 1107.46 Q2462.97 1112.05 2457.16 1112.05 Q2451.35 1112.05 2448.27 1107.46 Q2445.22 1102.86 2445.22 1094.13 Q2445.22 1085.38 2448.27 1080.8 Q2451.35 1076.19 2457.16 1076.19 Z" fill="#000000" fill-rule="nonzero" fill-opacity="1" /><path clip-path="url(#clip060)" d="M2487.32 1094.96 Q2483.99 1094.96 2482.07 1096.75 Q2480.17 1098.53 2480.17 1101.65 Q2480.17 1104.78 2482.07 1106.56 Q2483.99 1108.34 2487.32 1108.34 Q2490.66 1108.34 2492.58 1106.56 Q2494.5 1104.76 2494.5 1101.65 Q2494.5 1098.53 2492.58 1096.75 Q2490.68 1094.96 2487.32 1094.96 M2482.65 1092.97 Q2479.64 1092.23 2477.95 1090.17 Q2476.28 1088.11 2476.28 1085.15 Q2476.28 1081.01 2479.22 1078.6 Q2482.18 1076.19 2487.32 1076.19 Q2492.49 1076.19 2495.43 1078.6 Q2498.37 1081.01 2498.37 1085.15 Q2498.37 1088.11 2496.68 1090.17 Q2495.01 1092.23 2492.02 1092.97 Q2495.4 1093.76 2497.28 1096.05 Q2499.18 1098.34 2499.18 1101.65 Q2499.18 1106.68 2496.1 1109.36 Q2493.04 1112.05 2487.32 1112.05 Q2481.61 1112.05 2478.53 1109.36 Q2475.47 1106.68 2475.47 1101.65 Q2475.47 1098.34 2477.37 1096.05 Q2479.27 1093.76 2482.65 1092.97 M2480.93 1085.59 Q2480.93 1088.27 2482.6 1089.78 Q2484.29 1091.28 2487.32 1091.28 Q2490.33 1091.28 2492.02 1089.78 Q2493.74 1088.27 2493.74 1085.59 Q2493.74 1082.9 2492.02 1081.4 Q2490.33 1079.89 2487.32 1079.89 Q2484.29 1079.89 2482.6 1081.4 Q2480.93 1082.9 2480.93 1085.59 Z" fill="#000000" fill-rule="nonzero" fill-opacity="1" /><path clip-path="url(#clip060)" d="M2504.73 1096.49 L2517.21 1096.49 L2517.21 1100.29 L2504.73 1100.29 L2504.73 1096.49 Z" fill="#000000" fill-rule="nonzero" fill-opacity="1" /><path clip-path="url(#clip060)" d="M2534.59 1079.89 Q2530.98 1079.89 2529.15 1083.46 Q2527.35 1087 2527.35 1094.13 Q2527.35 1101.24 2529.15 1104.8 Q2530.98 1108.34 2534.59 1108.34 Q2538.23 1108.34 2540.03 1104.8 Q2541.86 1101.24 2541.86 1094.13 Q2541.86 1087 2540.03 1083.46 Q2538.23 1079.89 2534.59 1079.89 M2534.59 1076.19 Q2540.4 1076.19 2543.46 1080.8 Q2546.54 1085.38 2546.54 1094.13 Q2546.54 1102.86 2543.46 1107.46 Q2540.4 1112.05 2534.59 1112.05 Q2528.78 1112.05 2525.7 1107.46 Q2522.65 1102.86 2522.65 1094.13 Q2522.65 1085.38 2525.7 1080.8 Q2528.78 1076.19 2534.59 1076.19 Z" fill="#000000" fill-rule="nonzero" fill-opacity="1" /><path clip-path="url(#clip060)" d="M2555.56 1107.44 L2563.2 1107.44 L2563.2 1081.07 L2554.89 1082.74 L2554.89 1078.48 L2563.16 1076.82 L2567.83 1076.82 L2567.83 1107.44 L2575.47 1107.44 L2575.47 1111.38 L2555.56 1111.38 L2555.56 1107.44 Z" fill="#000000" fill-rule="nonzero" fill-opacity="1" /><polyline clip-path="url(#clip062)" style="stroke:#000000; stroke-linecap:round; stroke-linejoin:round; stroke-width:2; stroke-opacity:0.1; fill:none" points="271.839,1042.58 3089.76,1042.58 "/>
<polyline clip-path="url(#clip062)" style="stroke:#000000; stroke-linecap:round; stroke-linejoin:round; stroke-width:2; stroke-opacity:0.1; fill:none" points="271.839,504.396 3089.76,504.396 "/>
<polyline clip-path="url(#clip060)" style="stroke:#000000; stroke-linecap:round; stroke-linejoin:round; stroke-width:4; stroke-opacity:1; fill:none" points="271.839,1042.58 271.839,110.236 "/>
<polyline clip-path="url(#clip060)" style="stroke:#000000; stroke-linecap:round; stroke-linejoin:round; stroke-width:4; stroke-opacity:1; fill:none" points="271.839,1042.58 290.737,1042.58 "/>
<polyline clip-path="url(#clip060)" style="stroke:#000000; stroke-linecap:round; stroke-linejoin:round; stroke-width:4; stroke-opacity:1; fill:none" points="271.839,504.396 290.737,504.396 "/>
<path clip-path="url(#clip060)" d="M153.134 1062.37 L160.772 1062.37 L160.772 1036 L152.462 1037.67 L152.462 1033.41 L160.726 1031.74 L165.402 1031.74 L165.402 1062.37 L173.041 1062.37 L173.041 1066.3 L153.134 1066.3 L153.134 1062.37 Z" fill="#000000" fill-rule="nonzero" fill-opacity="1" /><path clip-path="url(#clip060)" d="M192.485 1034.82 Q188.874 1034.82 187.045 1038.39 Q185.24 1041.93 185.24 1049.06 Q185.24 1056.16 187.045 1059.73 Q188.874 1063.27 192.485 1063.27 Q196.119 1063.27 197.925 1059.73 Q199.754 1056.16 199.754 1049.06 Q199.754 1041.93 197.925 1038.39 Q196.119 1034.82 192.485 1034.82 M192.485 1031.12 Q198.295 1031.12 201.351 1035.72 Q204.43 1040.31 204.43 1049.06 Q204.43 1057.78 201.351 1062.39 Q198.295 1066.97 192.485 1066.97 Q186.675 1066.97 183.596 1062.39 Q180.541 1057.78 180.541 1049.06 Q180.541 1040.31 183.596 1035.72 Q186.675 1031.12 192.485 1031.12 Z" fill="#000000" fill-rule="nonzero" fill-opacity="1" /><path clip-path="url(#clip060)" d="M214.134 1013.31 Q211.2 1013.31 209.715 1016.21 Q208.248 1019.09 208.248 1024.88 Q208.248 1030.66 209.715 1033.55 Q211.2 1036.43 214.134 1036.43 Q217.087 1036.43 218.554 1033.55 Q220.04 1030.66 220.04 1024.88 Q220.04 1019.09 218.554 1016.21 Q217.087 1013.31 214.134 1013.31 M214.134 1010.31 Q218.855 1010.31 221.338 1014.05 Q223.839 1017.77 223.839 1024.88 Q223.839 1031.97 221.338 1035.71 Q218.855 1039.44 214.134 1039.44 Q209.414 1039.44 206.912 1035.71 Q204.43 1031.97 204.43 1024.88 Q204.43 1017.77 206.912 1014.05 Q209.414 1010.31 214.134 1010.31 Z" fill="#000000" fill-rule="nonzero" fill-opacity="1" /><path clip-path="url(#clip060)" d="M155.823 524.188 L163.462 524.188 L163.462 497.823 L155.152 499.489 L155.152 495.23 L163.416 493.563 L168.092 493.563 L168.092 524.188 L175.73 524.188 L175.73 528.123 L155.823 528.123 L155.823 524.188 Z" fill="#000000" fill-rule="nonzero" fill-opacity="1" /><path clip-path="url(#clip060)" d="M195.175 496.642 Q191.564 496.642 189.735 500.207 Q187.929 503.749 187.929 510.878 Q187.929 517.985 189.735 521.549 Q191.564 525.091 195.175 525.091 Q198.809 525.091 200.615 521.549 Q202.443 517.985 202.443 510.878 Q202.443 503.749 200.615 500.207 Q198.809 496.642 195.175 496.642 M195.175 492.938 Q200.985 492.938 204.04 497.545 Q207.119 502.128 207.119 510.878 Q207.119 519.605 204.04 524.211 Q200.985 528.795 195.175 528.795 Q189.365 528.795 186.286 524.211 Q183.23 519.605 183.23 510.878 Q183.23 502.128 186.286 497.545 Q189.365 492.938 195.175 492.938 Z" fill="#000000" fill-rule="nonzero" fill-opacity="1" /><path clip-path="url(#clip060)" d="M207.665 497.516 L213.871 497.516 L213.871 476.094 L207.119 477.448 L207.119 473.987 L213.833 472.633 L217.633 472.633 L217.633 497.516 L223.839 497.516 L223.839 500.713 L207.665 500.713 L207.665 497.516 Z" fill="#000000" fill-rule="nonzero" fill-opacity="1" /><path clip-path="url(#clip060)" d="M83.4268 952.253 L70.6636 952.253 L70.6636 962.757 L65.38 962.757 L65.38 945.888 L85.7821 945.888 Q88.4239 949.611 89.7925 954.099 Q91.1293 958.587 91.1293 963.68 Q91.1293 974.82 84.6363 981.122 Q78.1114 987.392 66.494 987.392 Q54.8448 987.392 48.3518 981.122 Q41.8269 974.82 41.8269 963.68 Q41.8269 959.033 42.9727 954.863 Q44.1186 950.662 46.3466 947.129 L53.1897 947.129 Q50.166 950.694 48.6382 954.704 Q47.1104 958.714 47.1104 963.139 Q47.1104 971.86 51.9802 976.252 Q56.85 980.612 66.494 980.612 Q76.1062 980.612 80.976 976.252 Q85.8458 971.86 85.8458 963.139 Q85.8458 959.733 85.2729 957.059 Q84.6681 954.386 83.4268 952.253 Z" fill="#000000" fill-rule="nonzero" fill-opacity="1" /><path clip-path="url(#clip060)" d="M70.9182 903.906 L73.7828 903.906 L73.7828 930.833 Q79.8302 930.451 83.013 927.204 Q86.1641 923.926 86.1641 918.101 Q86.1641 914.727 85.3365 911.576 Q84.509 908.393 82.8539 905.274 L88.3921 905.274 Q89.7289 908.425 90.4291 911.735 Q91.1293 915.046 91.1293 918.451 Q91.1293 926.981 86.1641 931.978 Q81.1988 936.944 72.7324 936.944 Q63.9796 936.944 58.8552 932.233 Q53.699 927.491 53.699 919.47 Q53.699 912.277 58.3459 908.107 Q62.9611 903.906 70.9182 903.906 M69.1995 909.762 Q64.3933 909.826 61.5288 912.468 Q58.6642 915.077 58.6642 919.406 Q58.6642 924.308 61.4333 927.268 Q64.2024 930.196 69.2313 930.642 L69.1995 909.762 Z" fill="#000000" fill-rule="nonzero" fill-opacity="1" /><path clip-path="url(#clip060)" d="M68.6902 864.661 L90.2063 864.661 L90.2063 870.518 L68.8812 870.518 Q63.8204 870.518 61.306 872.491 Q58.7915 874.464 58.7915 878.411 Q58.7915 883.153 61.8152 885.891 Q64.8389 888.628 70.0588 888.628 L90.2063 888.628 L90.2063 894.516 L54.5583 894.516 L54.5583 888.628 L60.0965 888.628 Q56.8818 886.527 55.2904 883.695 Q53.699 880.83 53.699 877.106 Q53.699 870.963 57.5184 867.812 Q61.306 864.661 68.6902 864.661 Z" fill="#000000" fill-rule="nonzero" fill-opacity="1" /><path clip-path="url(#clip060)" d="M58.6642 839.166 Q58.6642 843.877 62.3563 846.614 Q66.0166 849.352 72.4141 849.352 Q78.8117 849.352 82.5038 846.646 Q86.1641 843.909 86.1641 839.166 Q86.1641 834.488 82.4719 831.75 Q78.7798 829.013 72.4141 829.013 Q66.0803 829.013 62.3881 831.75 Q58.6642 834.488 58.6642 839.166 M53.699 839.166 Q53.699 831.528 58.6642 827.167 Q63.6295 822.807 72.4141 822.807 Q81.167 822.807 86.1641 827.167 Q91.1293 831.528 91.1293 839.166 Q91.1293 846.837 86.1641 851.198 Q81.167 855.526 72.4141 855.526 Q63.6295 855.526 58.6642 851.198 Q53.699 846.837 53.699 839.166 Z" fill="#000000" fill-rule="nonzero" fill-opacity="1" /><path clip-path="url(#clip060)" d="M61.4015 785.344 Q57.4547 783.148 55.5768 780.093 Q53.699 777.037 53.699 772.899 Q53.699 767.329 57.6139 764.306 Q61.4969 761.282 68.6902 761.282 L90.2063 761.282 L90.2063 767.17 L68.8812 767.17 Q63.7568 767.17 61.2741 768.985 Q58.7915 770.799 58.7915 774.523 Q58.7915 779.074 61.8152 781.716 Q64.8389 784.358 70.0588 784.358 L90.2063 784.358 L90.2063 790.246 L68.8812 790.246 Q63.7249 790.246 61.2741 792.06 Q58.7915 793.874 58.7915 797.662 Q58.7915 802.15 61.8471 804.792 Q64.8708 807.433 70.0588 807.433 L90.2063 807.433 L90.2063 813.322 L54.5583 813.322 L54.5583 807.433 L60.0965 807.433 Q56.8182 805.428 55.2586 802.627 Q53.699 799.826 53.699 795.975 Q53.699 792.092 55.6723 789.387 Q57.6457 786.649 61.4015 785.344 Z" fill="#000000" fill-rule="nonzero" fill-opacity="1" /><path clip-path="url(#clip060)" d="M70.9182 719.109 L73.7828 719.109 L73.7828 746.036 Q79.8302 745.654 83.013 742.408 Q86.1641 739.129 86.1641 733.305 Q86.1641 729.931 85.3365 726.78 Q84.509 723.597 82.8539 720.478 L88.3921 720.478 Q89.7289 723.629 90.4291 726.939 Q91.1293 730.249 91.1293 733.655 Q91.1293 742.185 86.1641 747.182 Q81.1988 752.147 72.7324 752.147 Q63.9796 752.147 58.8552 747.437 Q53.699 742.694 53.699 734.673 Q53.699 727.48 58.3459 723.311 Q62.9611 719.109 70.9182 719.109 M69.1995 724.966 Q64.3933 725.029 61.5288 727.671 Q58.6642 730.281 58.6642 734.61 Q58.6642 739.511 61.4333 742.471 Q64.2024 745.4 69.2313 745.845 L69.1995 724.966 Z" fill="#000000" fill-rule="nonzero" fill-opacity="1" /><path clip-path="url(#clip060)" d="M55.6087 686.771 L61.1468 686.771 Q59.8737 689.254 59.2371 691.928 Q58.6006 694.601 58.6006 697.466 Q58.6006 701.826 59.9373 704.022 Q61.2741 706.187 63.9477 706.187 Q65.9848 706.187 67.1624 704.627 Q68.3083 703.068 69.3586 698.357 L69.8042 696.352 Q71.141 690.113 73.5918 687.503 Q76.0108 684.862 80.3713 684.862 Q85.3365 684.862 88.2329 688.808 Q91.1293 692.723 91.1293 699.598 Q91.1293 702.463 90.5564 705.582 Q90.0153 708.669 88.9013 712.107 L82.8539 712.107 Q84.5408 708.86 85.4002 705.709 Q86.2277 702.558 86.2277 699.471 Q86.2277 695.333 84.8273 693.105 Q83.395 690.877 80.8169 690.877 Q78.4297 690.877 77.1566 692.501 Q75.8834 694.092 74.7058 699.535 L74.2284 701.572 Q73.0825 707.014 70.7272 709.433 Q68.3401 711.852 64.2024 711.852 Q59.1735 711.852 56.4362 708.288 Q53.699 704.723 53.699 698.166 Q53.699 694.92 54.1764 692.055 Q54.6538 689.19 55.6087 686.771 Z" fill="#000000" fill-rule="nonzero" fill-opacity="1" /><path clip-path="url(#clip060)" d="M42.6863 665.128 L42.6863 659.717 L96.2537 676.268 L96.2537 681.679 L42.6863 665.128 Z" fill="#000000" fill-rule="nonzero" fill-opacity="1" /><path clip-path="url(#clip060)" d="M47.9698 646.89 L84.9227 646.89 L84.9227 639.124 Q84.9227 629.289 80.4668 624.738 Q76.0108 620.154 66.3985 620.154 Q56.85 620.154 52.4258 624.738 Q47.9698 629.289 47.9698 639.124 L47.9698 646.89 M42.6863 653.32 L42.6863 640.111 Q42.6863 626.297 48.4472 619.836 Q54.1764 613.375 66.3985 613.375 Q78.6844 613.375 84.4453 619.868 Q90.2063 626.361 90.2063 640.111 L90.2063 653.32 L42.6863 653.32 Z" fill="#000000" fill-rule="nonzero" fill-opacity="1" /><path clip-path="url(#clip060)" d="M72.2868 587.18 Q72.2868 594.278 73.9101 597.015 Q75.5333 599.752 79.4482 599.752 Q82.5674 599.752 84.4135 597.715 Q86.2277 595.646 86.2277 592.113 Q86.2277 587.244 82.7902 584.315 Q79.3209 581.355 73.5918 581.355 L72.2868 581.355 L72.2868 587.18 M69.8679 575.499 L90.2063 575.499 L90.2063 581.355 L84.7954 581.355 Q88.0419 583.361 89.6015 586.352 Q91.1293 589.344 91.1293 593.673 Q91.1293 599.147 88.0738 602.394 Q84.9864 605.609 79.8302 605.609 Q73.8146 605.609 70.759 601.598 Q67.7035 597.556 67.7035 589.567 L67.7035 581.355 L67.1306 581.355 Q63.0884 581.355 60.8922 584.029 Q58.6642 586.671 58.6642 591.477 Q58.6642 594.532 59.3963 597.429 Q60.1283 600.325 61.5924 602.999 L56.1816 602.999 Q54.9403 599.784 54.3355 596.76 Q53.699 593.737 53.699 590.872 Q53.699 583.138 57.7094 579.318 Q61.7197 575.499 69.8679 575.499 Z" fill="#000000" fill-rule="nonzero" fill-opacity="1" /><path clip-path="url(#clip060)" d="M93.5165 548.604 Q99.8822 551.086 101.824 553.442 Q103.765 555.797 103.765 559.744 L103.765 564.423 L98.8636 564.423 L98.8636 560.985 Q98.8636 558.566 97.7178 557.229 Q96.572 555.892 92.307 554.269 L89.6334 553.219 L54.5583 567.637 L54.5583 561.431 L82.4401 550.291 L54.5583 539.151 L54.5583 532.944 L93.5165 548.604 Z" fill="#000000" fill-rule="nonzero" fill-opacity="1" /><path clip-path="url(#clip060)" d="M40.7447 490.071 Q48.0653 494.336 55.2267 496.405 Q62.3881 498.474 69.7405 498.474 Q77.0929 498.474 84.318 496.405 Q91.5113 494.304 98.8 490.071 L98.8 495.164 Q91.3203 499.938 84.0952 502.325 Q76.8701 504.68 69.7405 504.68 Q62.6428 504.68 55.4495 502.325 Q48.2563 499.97 40.7447 495.164 L40.7447 490.071 Z" fill="#000000" fill-rule="nonzero" fill-opacity="1" /><path clip-path="url(#clip060)" d="M83.4268 446.052 L70.6636 446.052 L70.6636 456.556 L65.38 456.556 L65.38 439.687 L85.7821 439.687 Q88.4239 443.41 89.7925 447.898 Q91.1293 452.386 91.1293 457.479 Q91.1293 468.619 84.6363 474.921 Q78.1114 481.191 66.494 481.191 Q54.8448 481.191 48.3518 474.921 Q41.8269 468.619 41.8269 457.479 Q41.8269 452.832 42.9727 448.662 Q44.1186 444.461 46.3466 440.928 L53.1897 440.928 Q50.166 444.493 48.6382 448.503 Q47.1104 452.513 47.1104 456.938 Q47.1104 465.659 51.9802 470.051 Q56.85 474.411 66.494 474.411 Q76.1062 474.411 80.976 470.051 Q85.8458 465.659 85.8458 456.938 Q85.8458 453.532 85.2729 450.858 Q84.6681 448.185 83.4268 446.052 Z" fill="#000000" fill-rule="nonzero" fill-opacity="1" /><path clip-path="url(#clip060)" d="M70.9182 397.705 L73.7828 397.705 L73.7828 424.632 Q79.8302 424.25 83.013 421.003 Q86.1641 417.725 86.1641 411.9 Q86.1641 408.526 85.3365 405.375 Q84.509 402.193 82.8539 399.073 L88.3921 399.073 Q89.7289 402.224 90.4291 405.535 Q91.1293 408.845 91.1293 412.25 Q91.1293 420.78 86.1641 425.777 Q81.1988 430.743 72.7324 430.743 Q63.9796 430.743 58.8552 426.032 Q53.699 421.29 53.699 413.269 Q53.699 406.076 58.3459 401.906 Q62.9611 397.705 70.9182 397.705 M69.1995 403.561 Q64.3933 403.625 61.5288 406.267 Q58.6642 408.876 58.6642 413.205 Q58.6642 418.107 61.4333 421.067 Q64.2024 423.995 69.2313 424.441 L69.1995 403.561 Z" fill="#000000" fill-rule="nonzero" fill-opacity="1" /><path clip-path="url(#clip060)" d="M60.0328 367.436 Q59.4599 368.422 59.2053 369.6 Q58.9188 370.746 58.9188 372.146 Q58.9188 377.112 62.1653 379.785 Q65.38 382.427 71.4274 382.427 L90.2063 382.427 L90.2063 388.315 L54.5583 388.315 L54.5583 382.427 L60.0965 382.427 Q56.85 380.581 55.2904 377.621 Q53.699 374.661 53.699 370.428 Q53.699 369.823 53.7944 369.091 Q53.8581 368.359 54.0172 367.468 L60.0328 367.436 Z" fill="#000000" fill-rule="nonzero" fill-opacity="1" /><path clip-path="url(#clip060)" d="M61.4015 334.684 Q57.4547 332.488 55.5768 329.432 Q53.699 326.377 53.699 322.239 Q53.699 316.669 57.6139 313.646 Q61.4969 310.622 68.6902 310.622 L90.2063 310.622 L90.2063 316.51 L68.8812 316.51 Q63.7568 316.51 61.2741 318.324 Q58.7915 320.139 58.7915 323.862 Q58.7915 328.414 61.8152 331.056 Q64.8389 333.698 70.0588 333.698 L90.2063 333.698 L90.2063 339.586 L68.8812 339.586 Q63.7249 339.586 61.2741 341.4 Q58.7915 343.214 58.7915 347.002 Q58.7915 351.49 61.8471 354.131 Q64.8708 356.773 70.0588 356.773 L90.2063 356.773 L90.2063 362.661 L54.5583 362.661 L54.5583 356.773 L60.0965 356.773 Q56.8182 354.768 55.2586 351.967 Q53.699 349.166 53.699 345.315 Q53.699 341.432 55.6723 338.726 Q57.6457 335.989 61.4015 334.684 Z" fill="#000000" fill-rule="nonzero" fill-opacity="1" /><path clip-path="url(#clip060)" d="M72.2868 282.74 Q72.2868 289.838 73.9101 292.575 Q75.5333 295.312 79.4482 295.312 Q82.5674 295.312 84.4135 293.275 Q86.2277 291.206 86.2277 287.673 Q86.2277 282.804 82.7902 279.875 Q79.3209 276.915 73.5918 276.915 L72.2868 276.915 L72.2868 282.74 M69.8679 271.059 L90.2063 271.059 L90.2063 276.915 L84.7954 276.915 Q88.0419 278.921 89.6015 281.912 Q91.1293 284.904 91.1293 289.233 Q91.1293 294.708 88.0738 297.954 Q84.9864 301.169 79.8302 301.169 Q73.8146 301.169 70.759 297.158 Q67.7035 293.116 67.7035 285.127 L67.7035 276.915 L67.1306 276.915 Q63.0884 276.915 60.8922 279.589 Q58.6642 282.231 58.6642 287.037 Q58.6642 290.092 59.3963 292.989 Q60.1283 295.885 61.5924 298.559 L56.1816 298.559 Q54.9403 295.344 54.3355 292.32 Q53.699 289.297 53.699 286.432 Q53.699 278.698 57.7094 274.878 Q61.7197 271.059 69.8679 271.059 Z" fill="#000000" fill-rule="nonzero" fill-opacity="1" /><path clip-path="url(#clip060)" d="M68.6902 229.364 L90.2063 229.364 L90.2063 235.22 L68.8812 235.22 Q63.8204 235.22 61.306 237.193 Q58.7915 239.167 58.7915 243.113 Q58.7915 247.856 61.8152 250.593 Q64.8389 253.33 70.0588 253.33 L90.2063 253.33 L90.2063 259.219 L54.5583 259.219 L54.5583 253.33 L60.0965 253.33 Q56.8818 251.23 55.2904 248.397 Q53.699 245.532 53.699 241.809 Q53.699 235.666 57.5184 232.515 Q61.306 229.364 68.6902 229.364 Z" fill="#000000" fill-rule="nonzero" fill-opacity="1" /><path clip-path="url(#clip060)" d="M93.5165 202.85 Q99.8822 205.333 101.824 207.688 Q103.765 210.044 103.765 213.99 L103.765 218.669 L98.8636 218.669 L98.8636 215.232 Q98.8636 212.813 97.7178 211.476 Q96.572 210.139 92.307 208.516 L89.6334 207.466 L54.5583 221.884 L54.5583 215.677 L82.4401 204.537 L54.5583 193.397 L54.5583 187.191 L93.5165 202.85 Z" fill="#000000" fill-rule="nonzero" fill-opacity="1" /><path clip-path="url(#clip060)" d="M40.7447 180.029 L40.7447 174.937 Q48.2563 170.163 55.4495 167.807 Q62.6428 165.42 69.7405 165.42 Q76.8701 165.42 84.0952 167.807 Q91.3203 170.163 98.8 174.937 L98.8 180.029 Q91.5113 175.796 84.318 173.727 Q77.0929 171.627 69.7405 171.627 Q62.3881 171.627 55.2267 173.727 Q48.0653 175.796 40.7447 180.029 Z" fill="#000000" fill-rule="nonzero" fill-opacity="1" /><path clip-path="url(#clip062)" d="M288.747 623.79 L288.747 1042.58 L311.29 1042.58 L311.29 623.79 L288.747 623.79 L288.747 623.79  Z" fill="#009af9" fill-rule="evenodd" fill-opacity="0.5"/>
<polyline clip-path="url(#clip062)" style="stroke:#000000; stroke-linecap:round; stroke-linejoin:round; stroke-width:4; stroke-opacity:0.5; fill:none" points="288.747,623.79 288.747,1042.58 311.29,1042.58 311.29,623.79 288.747,623.79 "/>
<path clip-path="url(#clip062)" d="M316.926 1042.58 L316.926 1042.58 L339.469 1042.58 L339.469 1042.58 L316.926 1042.58 L316.926 1042.58  Z" fill="#009af9" fill-rule="evenodd" fill-opacity="0.5"/>
<polyline clip-path="url(#clip062)" style="stroke:#000000; stroke-linecap:round; stroke-linejoin:round; stroke-width:4; stroke-opacity:0.5; fill:none" points="316.926,1042.58 316.926,1042.58 339.469,1042.58 316.926,1042.58 "/>
<path clip-path="url(#clip062)" d="M345.105 785.799 L345.105 1042.58 L367.649 1042.58 L367.649 785.799 L345.105 785.799 L345.105 785.799  Z" fill="#009af9" fill-rule="evenodd" fill-opacity="0.5"/>
<polyline clip-path="url(#clip062)" style="stroke:#000000; stroke-linecap:round; stroke-linejoin:round; stroke-width:4; stroke-opacity:0.5; fill:none" points="345.105,785.799 345.105,1042.58 367.649,1042.58 367.649,785.799 345.105,785.799 "/>
<path clip-path="url(#clip062)" d="M373.285 785.799 L373.285 1042.58 L395.828 1042.58 L395.828 785.799 L373.285 785.799 L373.285 785.799  Z" fill="#009af9" fill-rule="evenodd" fill-opacity="0.5"/>
<polyline clip-path="url(#clip062)" style="stroke:#000000; stroke-linecap:round; stroke-linejoin:round; stroke-width:4; stroke-opacity:0.5; fill:none" points="373.285,785.799 373.285,1042.58 395.828,1042.58 395.828,785.799 373.285,785.799 "/>
<path clip-path="url(#clip062)" d="M401.464 443.074 L401.464 1042.58 L424.007 1042.58 L424.007 443.074 L401.464 443.074 L401.464 443.074  Z" fill="#009af9" fill-rule="evenodd" fill-opacity="0.5"/>
<polyline clip-path="url(#clip062)" style="stroke:#000000; stroke-linecap:round; stroke-linejoin:round; stroke-width:4; stroke-opacity:0.5; fill:none" points="401.464,443.074 401.464,1042.58 424.007,1042.58 424.007,443.074 401.464,443.074 "/>
<path clip-path="url(#clip062)" d="M429.643 409.627 L429.643 1042.58 L452.186 1042.58 L452.186 409.627 L429.643 409.627 L429.643 409.627  Z" fill="#009af9" fill-rule="evenodd" fill-opacity="0.5"/>
<polyline clip-path="url(#clip062)" style="stroke:#000000; stroke-linecap:round; stroke-linejoin:round; stroke-width:4; stroke-opacity:0.5; fill:none" points="429.643,409.627 429.643,1042.58 452.186,1042.58 452.186,409.627 429.643,409.627 "/>
<path clip-path="url(#clip062)" d="M457.822 623.79 L457.822 1042.58 L480.366 1042.58 L480.366 623.79 L457.822 623.79 L457.822 623.79  Z" fill="#009af9" fill-rule="evenodd" fill-opacity="0.5"/>
<polyline clip-path="url(#clip062)" style="stroke:#000000; stroke-linecap:round; stroke-linejoin:round; stroke-width:4; stroke-opacity:0.5; fill:none" points="457.822,623.79 457.822,1042.58 480.366,1042.58 480.366,623.79 457.822,623.79 "/>
<path clip-path="url(#clip062)" d="M486.001 587.761 L486.001 1042.58 L508.545 1042.58 L508.545 587.761 L486.001 587.761 L486.001 587.761  Z" fill="#009af9" fill-rule="evenodd" fill-opacity="0.5"/>
<polyline clip-path="url(#clip062)" style="stroke:#000000; stroke-linecap:round; stroke-linejoin:round; stroke-width:4; stroke-opacity:0.5; fill:none" points="486.001,587.761 486.001,1042.58 508.545,1042.58 508.545,587.761 486.001,587.761 "/>
<path clip-path="url(#clip062)" d="M514.181 1042.58 L514.181 1042.58 L536.724 1042.58 L536.724 1042.58 L514.181 1042.58 L514.181 1042.58  Z" fill="#009af9" fill-rule="evenodd" fill-opacity="0.5"/>
<polyline clip-path="url(#clip062)" style="stroke:#000000; stroke-linecap:round; stroke-linejoin:round; stroke-width:4; stroke-opacity:0.5; fill:none" points="514.181,1042.58 514.181,1042.58 536.724,1042.58 514.181,1042.58 "/>
<path clip-path="url(#clip062)" d="M542.36 1042.58 L542.36 1042.58 L564.903 1042.58 L564.903 1042.58 L542.36 1042.58 L542.36 1042.58  Z" fill="#009af9" fill-rule="evenodd" fill-opacity="0.5"/>
<polyline clip-path="url(#clip062)" style="stroke:#000000; stroke-linecap:round; stroke-linejoin:round; stroke-width:4; stroke-opacity:0.5; fill:none" points="542.36,1042.58 542.36,1042.58 564.903,1042.58 542.36,1042.58 "/>
<path clip-path="url(#clip062)" d="M570.539 354.376 L570.539 1042.58 L593.083 1042.58 L593.083 354.376 L570.539 354.376 L570.539 354.376  Z" fill="#009af9" fill-rule="evenodd" fill-opacity="0.5"/>
<polyline clip-path="url(#clip062)" style="stroke:#000000; stroke-linecap:round; stroke-linejoin:round; stroke-width:4; stroke-opacity:0.5; fill:none" points="570.539,354.376 570.539,1042.58 593.083,1042.58 593.083,354.376 570.539,354.376 "/>
<path clip-path="url(#clip062)" d="M598.718 529.022 L598.718 1042.58 L621.262 1042.58 L621.262 529.022 L598.718 529.022 L598.718 529.022  Z" fill="#009af9" fill-rule="evenodd" fill-opacity="0.5"/>
<polyline clip-path="url(#clip062)" style="stroke:#000000; stroke-linecap:round; stroke-linejoin:round; stroke-width:4; stroke-opacity:0.5; fill:none" points="598.718,529.022 598.718,1042.58 621.262,1042.58 621.262,529.022 598.718,529.022 "/>
<path clip-path="url(#clip062)" d="M626.898 587.761 L626.898 1042.58 L649.441 1042.58 L649.441 587.761 L626.898 587.761 L626.898 587.761  Z" fill="#009af9" fill-rule="evenodd" fill-opacity="0.5"/>
<polyline clip-path="url(#clip062)" style="stroke:#000000; stroke-linecap:round; stroke-linejoin:round; stroke-width:4; stroke-opacity:0.5; fill:none" points="626.898,587.761 626.898,1042.58 649.441,1042.58 649.441,587.761 626.898,587.761 "/>
<path clip-path="url(#clip062)" d="M655.077 587.761 L655.077 1042.58 L677.62 1042.58 L677.62 587.761 L655.077 587.761 L655.077 587.761  Z" fill="#009af9" fill-rule="evenodd" fill-opacity="0.5"/>
<polyline clip-path="url(#clip062)" style="stroke:#000000; stroke-linecap:round; stroke-linejoin:round; stroke-width:4; stroke-opacity:0.5; fill:none" points="655.077,587.761 655.077,1042.58 677.62,1042.58 677.62,587.761 655.077,587.761 "/>
<path clip-path="url(#clip062)" d="M683.256 504.396 L683.256 1042.58 L705.8 1042.58 L705.8 504.396 L683.256 504.396 L683.256 504.396  Z" fill="#009af9" fill-rule="evenodd" fill-opacity="0.5"/>
<polyline clip-path="url(#clip062)" style="stroke:#000000; stroke-linecap:round; stroke-linejoin:round; stroke-width:4; stroke-opacity:0.5; fill:none" points="683.256,504.396 683.256,1042.58 705.8,1042.58 705.8,504.396 683.256,504.396 "/>
<path clip-path="url(#clip062)" d="M739.615 718.559 L739.615 1042.58 L762.158 1042.58 L762.158 718.559 L739.615 718.559 L739.615 718.559  Z" fill="#009af9" fill-rule="evenodd" fill-opacity="0.5"/>
<polyline clip-path="url(#clip062)" style="stroke:#000000; stroke-linecap:round; stroke-linejoin:round; stroke-width:4; stroke-opacity:0.5; fill:none" points="739.615,718.559 739.615,1042.58 762.158,1042.58 762.158,718.559 739.615,718.559 "/>
<path clip-path="url(#clip062)" d="M767.794 354.376 L767.794 1042.58 L790.337 1042.58 L790.337 354.376 L767.794 354.376 L767.794 354.376  Z" fill="#009af9" fill-rule="evenodd" fill-opacity="0.5"/>
<polyline clip-path="url(#clip062)" style="stroke:#000000; stroke-linecap:round; stroke-linejoin:round; stroke-width:4; stroke-opacity:0.5; fill:none" points="767.794,354.376 767.794,1042.58 790.337,1042.58 790.337,354.376 767.794,354.376 "/>
<path clip-path="url(#clip062)" d="M795.973 299.774 L795.973 1042.58 L818.517 1042.58 L818.517 299.774 L795.973 299.774 L795.973 299.774  Z" fill="#009af9" fill-rule="evenodd" fill-opacity="0.5"/>
<polyline clip-path="url(#clip062)" style="stroke:#000000; stroke-linecap:round; stroke-linejoin:round; stroke-width:4; stroke-opacity:0.5; fill:none" points="795.973,299.774 795.973,1042.58 818.517,1042.58 818.517,299.774 795.973,299.774 "/>
<path clip-path="url(#clip062)" d="M824.152 504.396 L824.152 1042.58 L846.696 1042.58 L846.696 504.396 L824.152 504.396 L824.152 504.396  Z" fill="#009af9" fill-rule="evenodd" fill-opacity="0.5"/>
<polyline clip-path="url(#clip062)" style="stroke:#000000; stroke-linecap:round; stroke-linejoin:round; stroke-width:4; stroke-opacity:0.5; fill:none" points="824.152,504.396 824.152,1042.58 846.696,1042.58 846.696,504.396 824.152,504.396 "/>
<path clip-path="url(#clip062)" d="M852.332 718.559 L852.332 1042.58 L874.875 1042.58 L874.875 718.559 L852.332 718.559 L852.332 718.559  Z" fill="#009af9" fill-rule="evenodd" fill-opacity="0.5"/>
<polyline clip-path="url(#clip062)" style="stroke:#000000; stroke-linecap:round; stroke-linejoin:round; stroke-width:4; stroke-opacity:0.5; fill:none" points="852.332,718.559 852.332,1042.58 874.875,1042.58 874.875,718.559 852.332,718.559 "/>
<path clip-path="url(#clip062)" d="M880.511 785.799 L880.511 1042.58 L903.054 1042.58 L903.054 785.799 L880.511 785.799 L880.511 785.799  Z" fill="#009af9" fill-rule="evenodd" fill-opacity="0.5"/>
<polyline clip-path="url(#clip062)" style="stroke:#000000; stroke-linecap:round; stroke-linejoin:round; stroke-width:4; stroke-opacity:0.5; fill:none" points="880.511,785.799 880.511,1042.58 903.054,1042.58 903.054,785.799 880.511,785.799 "/>
<path clip-path="url(#clip062)" d="M908.69 718.559 L908.69 1042.58 L931.234 1042.58 L931.234 718.559 L908.69 718.559 L908.69 718.559  Z" fill="#009af9" fill-rule="evenodd" fill-opacity="0.5"/>
<polyline clip-path="url(#clip062)" style="stroke:#000000; stroke-linecap:round; stroke-linejoin:round; stroke-width:4; stroke-opacity:0.5; fill:none" points="908.69,718.559 908.69,1042.58 931.234,1042.58 931.234,718.559 908.69,718.559 "/>
<path clip-path="url(#clip062)" d="M936.869 1042.58 L936.869 1042.58 L959.413 1042.58 L959.413 1042.58 L936.869 1042.58 L936.869 1042.58  Z" fill="#009af9" fill-rule="evenodd" fill-opacity="0.5"/>
<polyline clip-path="url(#clip062)" style="stroke:#000000; stroke-linecap:round; stroke-linejoin:round; stroke-width:4; stroke-opacity:0.5; fill:none" points="936.869,1042.58 936.869,1042.58 959.413,1042.58 936.869,1042.58 "/>
<path clip-path="url(#clip062)" d="M965.049 290.233 L965.049 1042.58 L987.592 1042.58 L987.592 290.233 L965.049 290.233 L965.049 290.233  Z" fill="#009af9" fill-rule="evenodd" fill-opacity="0.5"/>
<polyline clip-path="url(#clip062)" style="stroke:#000000; stroke-linecap:round; stroke-linejoin:round; stroke-width:4; stroke-opacity:0.5; fill:none" points="965.049,290.233 965.049,1042.58 987.592,1042.58 987.592,290.233 965.049,290.233 "/>
<path clip-path="url(#clip062)" d="M993.228 394.543 L993.228 1042.58 L1015.77 1042.58 L1015.77 394.543 L993.228 394.543 L993.228 394.543  Z" fill="#009af9" fill-rule="evenodd" fill-opacity="0.5"/>
<polyline clip-path="url(#clip062)" style="stroke:#000000; stroke-linecap:round; stroke-linejoin:round; stroke-width:4; stroke-opacity:0.5; fill:none" points="993.228,394.543 993.228,1042.58 1015.77,1042.58 1015.77,394.543 993.228,394.543 "/>
<path clip-path="url(#clip062)" d="M1021.41 380.373 L1021.41 1042.58 L1043.95 1042.58 L1043.95 380.373 L1021.41 380.373 L1021.41 380.373  Z" fill="#009af9" fill-rule="evenodd" fill-opacity="0.5"/>
<polyline clip-path="url(#clip062)" style="stroke:#000000; stroke-linecap:round; stroke-linejoin:round; stroke-width:4; stroke-opacity:0.5; fill:none" points="1021.41,380.373 1021.41,1042.58 1043.95,1042.58 1043.95,380.373 1021.41,380.373 "/>
<path clip-path="url(#clip062)" d="M1049.59 443.074 L1049.59 1042.58 L1072.13 1042.58 L1072.13 443.074 L1049.59 443.074 L1049.59 443.074  Z" fill="#009af9" fill-rule="evenodd" fill-opacity="0.5"/>
<polyline clip-path="url(#clip062)" style="stroke:#000000; stroke-linecap:round; stroke-linejoin:round; stroke-width:4; stroke-opacity:0.5; fill:none" points="1049.59,443.074 1049.59,1042.58 1072.13,1042.58 1072.13,443.074 1049.59,443.074 "/>
<path clip-path="url(#clip062)" d="M1077.77 529.022 L1077.77 1042.58 L1100.31 1042.58 L1100.31 529.022 L1077.77 529.022 L1077.77 529.022  Z" fill="#009af9" fill-rule="evenodd" fill-opacity="0.5"/>
<polyline clip-path="url(#clip062)" style="stroke:#000000; stroke-linecap:round; stroke-linejoin:round; stroke-width:4; stroke-opacity:0.5; fill:none" points="1077.77,529.022 1077.77,1042.58 1100.31,1042.58 1100.31,529.022 1077.77,529.022 "/>
<path clip-path="url(#clip062)" d="M1105.94 1042.58 L1105.94 1042.58 L1128.49 1042.58 L1128.49 1042.58 L1105.94 1042.58 L1105.94 1042.58  Z" fill="#009af9" fill-rule="evenodd" fill-opacity="0.5"/>
<polyline clip-path="url(#clip062)" style="stroke:#000000; stroke-linecap:round; stroke-linejoin:round; stroke-width:4; stroke-opacity:0.5; fill:none" points="1105.94,1042.58 1105.94,1042.58 1128.49,1042.58 1105.94,1042.58 "/>
<path clip-path="url(#clip062)" d="M1134.12 880.567 L1134.12 1042.58 L1156.67 1042.58 L1156.67 880.567 L1134.12 880.567 L1134.12 880.567  Z" fill="#009af9" fill-rule="evenodd" fill-opacity="0.5"/>
<polyline clip-path="url(#clip062)" style="stroke:#000000; stroke-linecap:round; stroke-linejoin:round; stroke-width:4; stroke-opacity:0.5; fill:none" points="1134.12,880.567 1134.12,1042.58 1156.67,1042.58 1156.67,880.567 1134.12,880.567 "/>
<path clip-path="url(#clip062)" d="M1162.3 218.365 L1162.3 1042.58 L1184.85 1042.58 L1184.85 218.365 L1162.3 218.365 L1162.3 218.365  Z" fill="#009af9" fill-rule="evenodd" fill-opacity="0.5"/>
<polyline clip-path="url(#clip062)" style="stroke:#000000; stroke-linecap:round; stroke-linejoin:round; stroke-width:4; stroke-opacity:0.5; fill:none" points="1162.3,218.365 1162.3,1042.58 1184.85,1042.58 1184.85,218.365 1162.3,218.365 "/>
<path clip-path="url(#clip062)" d="M1190.48 425.753 L1190.48 1042.58 L1213.03 1042.58 L1213.03 425.753 L1190.48 425.753 L1190.48 425.753  Z" fill="#009af9" fill-rule="evenodd" fill-opacity="0.5"/>
<polyline clip-path="url(#clip062)" style="stroke:#000000; stroke-linecap:round; stroke-linejoin:round; stroke-width:4; stroke-opacity:0.5; fill:none" points="1190.48,425.753 1190.48,1042.58 1213.03,1042.58 1213.03,425.753 1190.48,425.753 "/>
<path clip-path="url(#clip062)" d="M1218.66 309.721 L1218.66 1042.58 L1241.21 1042.58 L1241.21 309.721 L1218.66 309.721 L1218.66 309.721  Z" fill="#009af9" fill-rule="evenodd" fill-opacity="0.5"/>
<polyline clip-path="url(#clip062)" style="stroke:#000000; stroke-linecap:round; stroke-linejoin:round; stroke-width:4; stroke-opacity:0.5; fill:none" points="1218.66,309.721 1218.66,1042.58 1241.21,1042.58 1241.21,309.721 1218.66,309.721 "/>
<path clip-path="url(#clip062)" d="M1246.84 367.013 L1246.84 1042.58 L1269.38 1042.58 L1269.38 367.013 L1246.84 367.013 L1246.84 367.013  Z" fill="#009af9" fill-rule="evenodd" fill-opacity="0.5"/>
<polyline clip-path="url(#clip062)" style="stroke:#000000; stroke-linecap:round; stroke-linejoin:round; stroke-width:4; stroke-opacity:0.5; fill:none" points="1246.84,367.013 1246.84,1042.58 1269.38,1042.58 1269.38,367.013 1246.84,367.013 "/>
<path clip-path="url(#clip062)" d="M1275.02 342.388 L1275.02 1042.58 L1297.56 1042.58 L1297.56 342.388 L1275.02 342.388 L1275.02 342.388  Z" fill="#009af9" fill-rule="evenodd" fill-opacity="0.5"/>
<polyline clip-path="url(#clip062)" style="stroke:#000000; stroke-linecap:round; stroke-linejoin:round; stroke-width:4; stroke-opacity:0.5; fill:none" points="1275.02,342.388 1275.02,1042.58 1297.56,1042.58 1297.56,342.388 1275.02,342.388 "/>
<path clip-path="url(#clip062)" d="M1303.2 666.404 L1303.2 1042.58 L1325.74 1042.58 L1325.74 666.404 L1303.2 666.404 L1303.2 666.404  Z" fill="#009af9" fill-rule="evenodd" fill-opacity="0.5"/>
<polyline clip-path="url(#clip062)" style="stroke:#000000; stroke-linecap:round; stroke-linejoin:round; stroke-width:4; stroke-opacity:0.5; fill:none" points="1303.2,666.404 1303.2,1042.58 1325.74,1042.58 1325.74,666.404 1303.2,666.404 "/>
<path clip-path="url(#clip062)" d="M1331.38 623.79 L1331.38 1042.58 L1353.92 1042.58 L1353.92 623.79 L1331.38 623.79 L1331.38 623.79  Z" fill="#009af9" fill-rule="evenodd" fill-opacity="0.5"/>
<polyline clip-path="url(#clip062)" style="stroke:#000000; stroke-linecap:round; stroke-linejoin:round; stroke-width:4; stroke-opacity:0.5; fill:none" points="1331.38,623.79 1331.38,1042.58 1353.92,1042.58 1353.92,623.79 1331.38,623.79 "/>
<path clip-path="url(#clip062)" d="M1359.56 225.342 L1359.56 1042.58 L1382.1 1042.58 L1382.1 225.342 L1359.56 225.342 L1359.56 225.342  Z" fill="#009af9" fill-rule="evenodd" fill-opacity="0.5"/>
<polyline clip-path="url(#clip062)" style="stroke:#000000; stroke-linecap:round; stroke-linejoin:round; stroke-width:4; stroke-opacity:0.5; fill:none" points="1359.56,225.342 1359.56,1042.58 1382.1,1042.58 1382.1,225.342 1359.56,225.342 "/>
<path clip-path="url(#clip062)" d="M1387.74 290.233 L1387.74 1042.58 L1410.28 1042.58 L1410.28 290.233 L1387.74 290.233 L1387.74 290.233  Z" fill="#009af9" fill-rule="evenodd" fill-opacity="0.5"/>
<polyline clip-path="url(#clip062)" style="stroke:#000000; stroke-linecap:round; stroke-linejoin:round; stroke-width:4; stroke-opacity:0.5; fill:none" points="1387.74,290.233 1387.74,1042.58 1410.28,1042.58 1410.28,290.233 1387.74,290.233 "/>
<path clip-path="url(#clip062)" d="M1415.92 211.589 L1415.92 1042.58 L1438.46 1042.58 L1438.46 211.589 L1415.92 211.589 L1415.92 211.589  Z" fill="#009af9" fill-rule="evenodd" fill-opacity="0.5"/>
<polyline clip-path="url(#clip062)" style="stroke:#000000; stroke-linecap:round; stroke-linejoin:round; stroke-width:4; stroke-opacity:0.5; fill:none" points="1415.92,211.589 1415.92,1042.58 1438.46,1042.58 1438.46,211.589 1415.92,211.589 "/>
<path clip-path="url(#clip062)" d="M1444.1 587.761 L1444.1 1042.58 L1466.64 1042.58 L1466.64 587.761 L1444.1 587.761 L1444.1 587.761  Z" fill="#009af9" fill-rule="evenodd" fill-opacity="0.5"/>
<polyline clip-path="url(#clip062)" style="stroke:#000000; stroke-linecap:round; stroke-linejoin:round; stroke-width:4; stroke-opacity:0.5; fill:none" points="1444.1,587.761 1444.1,1042.58 1466.64,1042.58 1466.64,587.761 1444.1,587.761 "/>
<path clip-path="url(#clip062)" d="M1472.28 482.119 L1472.28 1042.58 L1494.82 1042.58 L1494.82 482.119 L1472.28 482.119 L1472.28 482.119  Z" fill="#009af9" fill-rule="evenodd" fill-opacity="0.5"/>
<polyline clip-path="url(#clip062)" style="stroke:#000000; stroke-linecap:round; stroke-linejoin:round; stroke-width:4; stroke-opacity:0.5; fill:none" points="1472.28,482.119 1472.28,1042.58 1494.82,1042.58 1494.82,482.119 1472.28,482.119 "/>
<path clip-path="url(#clip062)" d="M1500.45 880.567 L1500.45 1042.58 L1523 1042.58 L1523 880.567 L1500.45 880.567 L1500.45 880.567  Z" fill="#009af9" fill-rule="evenodd" fill-opacity="0.5"/>
<polyline clip-path="url(#clip062)" style="stroke:#000000; stroke-linecap:round; stroke-linejoin:round; stroke-width:4; stroke-opacity:0.5; fill:none" points="1500.45,880.567 1500.45,1042.58 1523,1042.58 1523,880.567 1500.45,880.567 "/>
<path clip-path="url(#clip062)" d="M1528.63 666.404 L1528.63 1042.58 L1551.18 1042.58 L1551.18 666.404 L1528.63 666.404 L1528.63 666.404  Z" fill="#009af9" fill-rule="evenodd" fill-opacity="0.5"/>
<polyline clip-path="url(#clip062)" style="stroke:#000000; stroke-linecap:round; stroke-linejoin:round; stroke-width:4; stroke-opacity:0.5; fill:none" points="1528.63,666.404 1528.63,1042.58 1551.18,1042.58 1551.18,666.404 1528.63,666.404 "/>
<path clip-path="url(#clip062)" d="M1556.81 225.342 L1556.81 1042.58 L1579.36 1042.58 L1579.36 225.342 L1556.81 225.342 L1556.81 225.342  Z" fill="#009af9" fill-rule="evenodd" fill-opacity="0.5"/>
<polyline clip-path="url(#clip062)" style="stroke:#000000; stroke-linecap:round; stroke-linejoin:round; stroke-width:4; stroke-opacity:0.5; fill:none" points="1556.81,225.342 1556.81,1042.58 1579.36,1042.58 1579.36,225.342 1556.81,225.342 "/>
<path clip-path="url(#clip062)" d="M1584.99 272.245 L1584.99 1042.58 L1607.54 1042.58 L1607.54 272.245 L1584.99 272.245 L1584.99 272.245  Z" fill="#009af9" fill-rule="evenodd" fill-opacity="0.5"/>
<polyline clip-path="url(#clip062)" style="stroke:#000000; stroke-linecap:round; stroke-linejoin:round; stroke-width:4; stroke-opacity:0.5; fill:none" points="1584.99,272.245 1584.99,1042.58 1607.54,1042.58 1607.54,272.245 1584.99,272.245 "/>
<path clip-path="url(#clip062)" d="M1613.17 263.744 L1613.17 1042.58 L1635.71 1042.58 L1635.71 263.744 L1613.17 263.744 L1613.17 263.744  Z" fill="#009af9" fill-rule="evenodd" fill-opacity="0.5"/>
<polyline clip-path="url(#clip062)" style="stroke:#000000; stroke-linecap:round; stroke-linejoin:round; stroke-width:4; stroke-opacity:0.5; fill:none" points="1613.17,263.744 1613.17,1042.58 1635.71,1042.58 1635.71,263.744 1613.17,263.744 "/>
<path clip-path="url(#clip062)" d="M1641.35 342.388 L1641.35 1042.58 L1663.89 1042.58 L1663.89 342.388 L1641.35 342.388 L1641.35 342.388  Z" fill="#009af9" fill-rule="evenodd" fill-opacity="0.5"/>
<polyline clip-path="url(#clip062)" style="stroke:#000000; stroke-linecap:round; stroke-linejoin:round; stroke-width:4; stroke-opacity:0.5; fill:none" points="1641.35,342.388 1641.35,1042.58 1663.89,1042.58 1663.89,342.388 1641.35,342.388 "/>
<path clip-path="url(#clip062)" d="M1669.53 342.388 L1669.53 1042.58 L1692.07 1042.58 L1692.07 342.388 L1669.53 342.388 L1669.53 342.388  Z" fill="#009af9" fill-rule="evenodd" fill-opacity="0.5"/>
<polyline clip-path="url(#clip062)" style="stroke:#000000; stroke-linecap:round; stroke-linejoin:round; stroke-width:4; stroke-opacity:0.5; fill:none" points="1669.53,342.388 1669.53,1042.58 1692.07,1042.58 1692.07,342.388 1669.53,342.388 "/>
<path clip-path="url(#clip062)" d="M1697.71 623.79 L1697.71 1042.58 L1720.25 1042.58 L1720.25 623.79 L1697.71 623.79 L1697.71 623.79  Z" fill="#009af9" fill-rule="evenodd" fill-opacity="0.5"/>
<polyline clip-path="url(#clip062)" style="stroke:#000000; stroke-linecap:round; stroke-linejoin:round; stroke-width:4; stroke-opacity:0.5; fill:none" points="1697.71,623.79 1697.71,1042.58 1720.25,1042.58 1720.25,623.79 1697.71,623.79 "/>
<path clip-path="url(#clip062)" d="M1725.89 785.799 L1725.89 1042.58 L1748.43 1042.58 L1748.43 785.799 L1725.89 785.799 L1725.89 785.799  Z" fill="#009af9" fill-rule="evenodd" fill-opacity="0.5"/>
<polyline clip-path="url(#clip062)" style="stroke:#000000; stroke-linecap:round; stroke-linejoin:round; stroke-width:4; stroke-opacity:0.5; fill:none" points="1725.89,785.799 1725.89,1042.58 1748.43,1042.58 1748.43,785.799 1725.89,785.799 "/>
<path clip-path="url(#clip062)" d="M1754.07 110.236 L1754.07 1042.58 L1776.61 1042.58 L1776.61 110.236 L1754.07 110.236 L1754.07 110.236  Z" fill="#009af9" fill-rule="evenodd" fill-opacity="0.5"/>
<polyline clip-path="url(#clip062)" style="stroke:#000000; stroke-linecap:round; stroke-linejoin:round; stroke-width:4; stroke-opacity:0.5; fill:none" points="1754.07,110.236 1754.07,1042.58 1776.61,1042.58 1776.61,110.236 1754.07,110.236 "/>
<path clip-path="url(#clip062)" d="M1782.25 128.224 L1782.25 1042.58 L1804.79 1042.58 L1804.79 128.224 L1782.25 128.224 L1782.25 128.224  Z" fill="#009af9" fill-rule="evenodd" fill-opacity="0.5"/>
<polyline clip-path="url(#clip062)" style="stroke:#000000; stroke-linecap:round; stroke-linejoin:round; stroke-width:4; stroke-opacity:0.5; fill:none" points="1782.25,128.224 1782.25,1042.58 1804.79,1042.58 1804.79,128.224 1782.25,128.224 "/>
<path clip-path="url(#clip062)" d="M1810.43 232.534 L1810.43 1042.58 L1832.97 1042.58 L1832.97 232.534 L1810.43 232.534 L1810.43 232.534  Z" fill="#009af9" fill-rule="evenodd" fill-opacity="0.5"/>
<polyline clip-path="url(#clip062)" style="stroke:#000000; stroke-linecap:round; stroke-linejoin:round; stroke-width:4; stroke-opacity:0.5; fill:none" points="1810.43,232.534 1810.43,1042.58 1832.97,1042.58 1832.97,232.534 1810.43,232.534 "/>
<path clip-path="url(#clip062)" d="M1838.61 320.111 L1838.61 1042.58 L1861.15 1042.58 L1861.15 320.111 L1838.61 320.111 L1838.61 320.111  Z" fill="#009af9" fill-rule="evenodd" fill-opacity="0.5"/>
<polyline clip-path="url(#clip062)" style="stroke:#000000; stroke-linecap:round; stroke-linejoin:round; stroke-width:4; stroke-opacity:0.5; fill:none" points="1838.61,320.111 1838.61,1042.58 1861.15,1042.58 1861.15,320.111 1838.61,320.111 "/>
<path clip-path="url(#clip062)" d="M1866.78 504.396 L1866.78 1042.58 L1889.33 1042.58 L1889.33 504.396 L1866.78 504.396 L1866.78 504.396  Z" fill="#009af9" fill-rule="evenodd" fill-opacity="0.5"/>
<polyline clip-path="url(#clip062)" style="stroke:#000000; stroke-linecap:round; stroke-linejoin:round; stroke-width:4; stroke-opacity:0.5; fill:none" points="1866.78,504.396 1866.78,1042.58 1889.33,1042.58 1889.33,504.396 1866.78,504.396 "/>
<path clip-path="url(#clip062)" d="M1894.96 880.567 L1894.96 1042.58 L1917.51 1042.58 L1917.51 880.567 L1894.96 880.567 L1894.96 880.567  Z" fill="#009af9" fill-rule="evenodd" fill-opacity="0.5"/>
<polyline clip-path="url(#clip062)" style="stroke:#000000; stroke-linecap:round; stroke-linejoin:round; stroke-width:4; stroke-opacity:0.5; fill:none" points="1894.96,880.567 1894.96,1042.58 1917.51,1042.58 1917.51,880.567 1894.96,880.567 "/>
<path clip-path="url(#clip062)" d="M1923.14 666.404 L1923.14 1042.58 L1945.69 1042.58 L1945.69 666.404 L1923.14 666.404 L1923.14 666.404  Z" fill="#009af9" fill-rule="evenodd" fill-opacity="0.5"/>
<polyline clip-path="url(#clip062)" style="stroke:#000000; stroke-linecap:round; stroke-linejoin:round; stroke-width:4; stroke-opacity:0.5; fill:none" points="1923.14,666.404 1923.14,1042.58 1945.69,1042.58 1945.69,666.404 1923.14,666.404 "/>
<path clip-path="url(#clip062)" d="M1951.32 225.342 L1951.32 1042.58 L1973.87 1042.58 L1973.87 225.342 L1951.32 225.342 L1951.32 225.342  Z" fill="#009af9" fill-rule="evenodd" fill-opacity="0.5"/>
<polyline clip-path="url(#clip062)" style="stroke:#000000; stroke-linecap:round; stroke-linejoin:round; stroke-width:4; stroke-opacity:0.5; fill:none" points="1951.32,225.342 1951.32,1042.58 1973.87,1042.58 1973.87,225.342 1951.32,225.342 "/>
<path clip-path="url(#clip062)" d="M1979.5 163.476 L1979.5 1042.58 L2002.04 1042.58 L2002.04 163.476 L1979.5 163.476 L1979.5 163.476  Z" fill="#009af9" fill-rule="evenodd" fill-opacity="0.5"/>
<polyline clip-path="url(#clip062)" style="stroke:#000000; stroke-linecap:round; stroke-linejoin:round; stroke-width:4; stroke-opacity:0.5; fill:none" points="1979.5,163.476 1979.5,1042.58 2002.04,1042.58 2002.04,163.476 1979.5,163.476 "/>
<path clip-path="url(#clip062)" d="M2007.68 239.955 L2007.68 1042.58 L2030.22 1042.58 L2030.22 239.955 L2007.68 239.955 L2007.68 239.955  Z" fill="#009af9" fill-rule="evenodd" fill-opacity="0.5"/>
<polyline clip-path="url(#clip062)" style="stroke:#000000; stroke-linecap:round; stroke-linejoin:round; stroke-width:4; stroke-opacity:0.5; fill:none" points="2007.68,239.955 2007.68,1042.58 2030.22,1042.58 2030.22,239.955 2007.68,239.955 "/>
<path clip-path="url(#clip062)" d="M2035.86 354.376 L2035.86 1042.58 L2058.4 1042.58 L2058.4 354.376 L2035.86 354.376 L2035.86 354.376  Z" fill="#009af9" fill-rule="evenodd" fill-opacity="0.5"/>
<polyline clip-path="url(#clip062)" style="stroke:#000000; stroke-linecap:round; stroke-linejoin:round; stroke-width:4; stroke-opacity:0.5; fill:none" points="2035.86,354.376 2035.86,1042.58 2058.4,1042.58 2058.4,354.376 2035.86,354.376 "/>
<path clip-path="url(#clip062)" d="M2064.04 482.119 L2064.04 1042.58 L2086.58 1042.58 L2086.58 482.119 L2064.04 482.119 L2064.04 482.119  Z" fill="#009af9" fill-rule="evenodd" fill-opacity="0.5"/>
<polyline clip-path="url(#clip062)" style="stroke:#000000; stroke-linecap:round; stroke-linejoin:round; stroke-width:4; stroke-opacity:0.5; fill:none" points="2064.04,482.119 2064.04,1042.58 2086.58,1042.58 2086.58,482.119 2064.04,482.119 "/>
<path clip-path="url(#clip062)" d="M2092.22 587.761 L2092.22 1042.58 L2114.76 1042.58 L2114.76 587.761 L2092.22 587.761 L2092.22 587.761  Z" fill="#009af9" fill-rule="evenodd" fill-opacity="0.5"/>
<polyline clip-path="url(#clip062)" style="stroke:#000000; stroke-linecap:round; stroke-linejoin:round; stroke-width:4; stroke-opacity:0.5; fill:none" points="2092.22,587.761 2092.22,1042.58 2114.76,1042.58 2114.76,587.761 2092.22,587.761 "/>
<path clip-path="url(#clip062)" d="M2120.4 623.79 L2120.4 1042.58 L2142.94 1042.58 L2142.94 623.79 L2120.4 623.79 L2120.4 623.79  Z" fill="#009af9" fill-rule="evenodd" fill-opacity="0.5"/>
<polyline clip-path="url(#clip062)" style="stroke:#000000; stroke-linecap:round; stroke-linejoin:round; stroke-width:4; stroke-opacity:0.5; fill:none" points="2120.4,623.79 2120.4,1042.58 2142.94,1042.58 2142.94,623.79 2120.4,623.79 "/>
<path clip-path="url(#clip062)" d="M2148.58 168.976 L2148.58 1042.58 L2171.12 1042.58 L2171.12 168.976 L2148.58 168.976 L2148.58 168.976  Z" fill="#009af9" fill-rule="evenodd" fill-opacity="0.5"/>
<polyline clip-path="url(#clip062)" style="stroke:#000000; stroke-linecap:round; stroke-linejoin:round; stroke-width:4; stroke-opacity:0.5; fill:none" points="2148.58,168.976 2148.58,1042.58 2171.12,1042.58 2171.12,168.976 2148.58,168.976 "/>
<path clip-path="url(#clip062)" d="M2176.76 168.976 L2176.76 1042.58 L2199.3 1042.58 L2199.3 168.976 L2176.76 168.976 L2176.76 168.976  Z" fill="#009af9" fill-rule="evenodd" fill-opacity="0.5"/>
<polyline clip-path="url(#clip062)" style="stroke:#000000; stroke-linecap:round; stroke-linejoin:round; stroke-width:4; stroke-opacity:0.5; fill:none" points="2176.76,168.976 2176.76,1042.58 2199.3,1042.58 2199.3,168.976 2176.76,168.976 "/>
<path clip-path="url(#clip062)" d="M2204.94 299.774 L2204.94 1042.58 L2227.48 1042.58 L2227.48 299.774 L2204.94 299.774 L2204.94 299.774  Z" fill="#009af9" fill-rule="evenodd" fill-opacity="0.5"/>
<polyline clip-path="url(#clip062)" style="stroke:#000000; stroke-linecap:round; stroke-linejoin:round; stroke-width:4; stroke-opacity:0.5; fill:none" points="2204.94,299.774 2204.94,1042.58 2227.48,1042.58 2227.48,299.774 2204.94,299.774 "/>
<path clip-path="url(#clip062)" d="M2233.11 380.373 L2233.11 1042.58 L2255.66 1042.58 L2255.66 380.373 L2233.11 380.373 L2233.11 380.373  Z" fill="#009af9" fill-rule="evenodd" fill-opacity="0.5"/>
<polyline clip-path="url(#clip062)" style="stroke:#000000; stroke-linecap:round; stroke-linejoin:round; stroke-width:4; stroke-opacity:0.5; fill:none" points="2233.11,380.373 2233.11,1042.58 2255.66,1042.58 2255.66,380.373 2233.11,380.373 "/>
<path clip-path="url(#clip062)" d="M2261.29 290.233 L2261.29 1042.58 L2283.84 1042.58 L2283.84 290.233 L2261.29 290.233 L2261.29 290.233  Z" fill="#009af9" fill-rule="evenodd" fill-opacity="0.5"/>
<polyline clip-path="url(#clip062)" style="stroke:#000000; stroke-linecap:round; stroke-linejoin:round; stroke-width:4; stroke-opacity:0.5; fill:none" points="2261.29,290.233 2261.29,1042.58 2283.84,1042.58 2283.84,290.233 2261.29,290.233 "/>
<path clip-path="url(#clip062)" d="M2289.47 785.799 L2289.47 1042.58 L2312.02 1042.58 L2312.02 785.799 L2289.47 785.799 L2289.47 785.799  Z" fill="#009af9" fill-rule="evenodd" fill-opacity="0.5"/>
<polyline clip-path="url(#clip062)" style="stroke:#000000; stroke-linecap:round; stroke-linejoin:round; stroke-width:4; stroke-opacity:0.5; fill:none" points="2289.47,785.799 2289.47,1042.58 2312.02,1042.58 2312.02,785.799 2289.47,785.799 "/>
<path clip-path="url(#clip062)" d="M2317.65 556.551 L2317.65 1042.58 L2340.2 1042.58 L2340.2 556.551 L2317.65 556.551 L2317.65 556.551  Z" fill="#009af9" fill-rule="evenodd" fill-opacity="0.5"/>
<polyline clip-path="url(#clip062)" style="stroke:#000000; stroke-linecap:round; stroke-linejoin:round; stroke-width:4; stroke-opacity:0.5; fill:none" points="2317.65,556.551 2317.65,1042.58 2340.2,1042.58 2340.2,556.551 2317.65,556.551 "/>
<path clip-path="url(#clip062)" d="M2345.83 239.955 L2345.83 1042.58 L2368.38 1042.58 L2368.38 239.955 L2345.83 239.955 L2345.83 239.955  Z" fill="#009af9" fill-rule="evenodd" fill-opacity="0.5"/>
<polyline clip-path="url(#clip062)" style="stroke:#000000; stroke-linecap:round; stroke-linejoin:round; stroke-width:4; stroke-opacity:0.5; fill:none" points="2345.83,239.955 2345.83,1042.58 2368.38,1042.58 2368.38,239.955 2345.83,239.955 "/>
<path clip-path="url(#clip062)" d="M2374.01 587.761 L2374.01 1042.58 L2396.55 1042.58 L2396.55 587.761 L2374.01 587.761 L2374.01 587.761  Z" fill="#009af9" fill-rule="evenodd" fill-opacity="0.5"/>
<polyline clip-path="url(#clip062)" style="stroke:#000000; stroke-linecap:round; stroke-linejoin:round; stroke-width:4; stroke-opacity:0.5; fill:none" points="2374.01,587.761 2374.01,1042.58 2396.55,1042.58 2396.55,587.761 2374.01,587.761 "/>
<path clip-path="url(#clip062)" d="M2402.19 623.79 L2402.19 1042.58 L2424.73 1042.58 L2424.73 623.79 L2402.19 623.79 L2402.19 623.79  Z" fill="#009af9" fill-rule="evenodd" fill-opacity="0.5"/>
<polyline clip-path="url(#clip062)" style="stroke:#000000; stroke-linecap:round; stroke-linejoin:round; stroke-width:4; stroke-opacity:0.5; fill:none" points="2402.19,623.79 2402.19,1042.58 2424.73,1042.58 2424.73,623.79 2402.19,623.79 "/>
<path clip-path="url(#clip062)" d="M2430.37 623.79 L2430.37 1042.58 L2452.91 1042.58 L2452.91 623.79 L2430.37 623.79 L2430.37 623.79  Z" fill="#009af9" fill-rule="evenodd" fill-opacity="0.5"/>
<polyline clip-path="url(#clip062)" style="stroke:#000000; stroke-linecap:round; stroke-linejoin:round; stroke-width:4; stroke-opacity:0.5; fill:none" points="2430.37,623.79 2430.37,1042.58 2452.91,1042.58 2452.91,623.79 2430.37,623.79 "/>
<path clip-path="url(#clip062)" d="M2458.55 785.799 L2458.55 1042.58 L2481.09 1042.58 L2481.09 785.799 L2458.55 785.799 L2458.55 785.799  Z" fill="#009af9" fill-rule="evenodd" fill-opacity="0.5"/>
<polyline clip-path="url(#clip062)" style="stroke:#000000; stroke-linecap:round; stroke-linejoin:round; stroke-width:4; stroke-opacity:0.5; fill:none" points="2458.55,785.799 2458.55,1042.58 2481.09,1042.58 2481.09,785.799 2458.55,785.799 "/>
<path clip-path="url(#clip062)" d="M2486.73 1042.58 L2486.73 1042.58 L2509.27 1042.58 L2509.27 1042.58 L2486.73 1042.58 L2486.73 1042.58  Z" fill="#009af9" fill-rule="evenodd" fill-opacity="0.5"/>
<polyline clip-path="url(#clip062)" style="stroke:#000000; stroke-linecap:round; stroke-linejoin:round; stroke-width:4; stroke-opacity:0.5; fill:none" points="2486.73,1042.58 2486.73,1042.58 2509.27,1042.58 2486.73,1042.58 "/>
<path clip-path="url(#clip062)" d="M2514.91 1042.58 L2514.91 1042.58 L2537.45 1042.58 L2537.45 1042.58 L2514.91 1042.58 L2514.91 1042.58  Z" fill="#009af9" fill-rule="evenodd" fill-opacity="0.5"/>
<polyline clip-path="url(#clip062)" style="stroke:#000000; stroke-linecap:round; stroke-linejoin:round; stroke-width:4; stroke-opacity:0.5; fill:none" points="2514.91,1042.58 2514.91,1042.58 2537.45,1042.58 2514.91,1042.58 "/>
<path clip-path="url(#clip062)" d="M2543.09 482.119 L2543.09 1042.58 L2565.63 1042.58 L2565.63 482.119 L2543.09 482.119 L2543.09 482.119  Z" fill="#009af9" fill-rule="evenodd" fill-opacity="0.5"/>
<polyline clip-path="url(#clip062)" style="stroke:#000000; stroke-linecap:round; stroke-linejoin:round; stroke-width:4; stroke-opacity:0.5; fill:none" points="2543.09,482.119 2543.09,1042.58 2565.63,1042.58 2565.63,482.119 2543.09,482.119 "/>
<path clip-path="url(#clip062)" d="M2571.27 1042.58 L2571.27 1042.58 L2593.81 1042.58 L2593.81 1042.58 L2571.27 1042.58 L2571.27 1042.58  Z" fill="#009af9" fill-rule="evenodd" fill-opacity="0.5"/>
<polyline clip-path="url(#clip062)" style="stroke:#000000; stroke-linecap:round; stroke-linejoin:round; stroke-width:4; stroke-opacity:0.5; fill:none" points="2571.27,1042.58 2571.27,1042.58 2593.81,1042.58 2571.27,1042.58 "/>
<circle clip-path="url(#clip062)" style="fill:#009af9; stroke:none; fill-opacity:0" cx="300.018" cy="623.79" r="2"/>
<circle clip-path="url(#clip062)" style="fill:#009af9; stroke:none; fill-opacity:0" cx="328.198" cy="1042.58" r="2"/>
<circle clip-path="url(#clip062)" style="fill:#009af9; stroke:none; fill-opacity:0" cx="356.377" cy="785.799" r="2"/>
<circle clip-path="url(#clip062)" style="fill:#009af9; stroke:none; fill-opacity:0" cx="384.556" cy="785.799" r="2"/>
<circle clip-path="url(#clip062)" style="fill:#009af9; stroke:none; fill-opacity:0" cx="412.735" cy="443.074" r="2"/>
<circle clip-path="url(#clip062)" style="fill:#009af9; stroke:none; fill-opacity:0" cx="440.915" cy="409.627" r="2"/>
<circle clip-path="url(#clip062)" style="fill:#009af9; stroke:none; fill-opacity:0" cx="469.094" cy="623.79" r="2"/>
<circle clip-path="url(#clip062)" style="fill:#009af9; stroke:none; fill-opacity:0" cx="497.273" cy="587.761" r="2"/>
<circle clip-path="url(#clip062)" style="fill:#009af9; stroke:none; fill-opacity:0" cx="525.452" cy="1042.58" r="2"/>
<circle clip-path="url(#clip062)" style="fill:#009af9; stroke:none; fill-opacity:0" cx="553.632" cy="1042.58" r="2"/>
<circle clip-path="url(#clip062)" style="fill:#009af9; stroke:none; fill-opacity:0" cx="581.811" cy="354.376" r="2"/>
<circle clip-path="url(#clip062)" style="fill:#009af9; stroke:none; fill-opacity:0" cx="609.99" cy="529.022" r="2"/>
<circle clip-path="url(#clip062)" style="fill:#009af9; stroke:none; fill-opacity:0" cx="638.169" cy="587.761" r="2"/>
<circle clip-path="url(#clip062)" style="fill:#009af9; stroke:none; fill-opacity:0" cx="666.349" cy="587.761" r="2"/>
<circle clip-path="url(#clip062)" style="fill:#009af9; stroke:none; fill-opacity:0" cx="694.528" cy="504.396" r="2"/>
<circle clip-path="url(#clip062)" style="fill:#009af9; stroke:none; fill-opacity:0" cx="750.886" cy="718.559" r="2"/>
<circle clip-path="url(#clip062)" style="fill:#009af9; stroke:none; fill-opacity:0" cx="779.066" cy="354.376" r="2"/>
<circle clip-path="url(#clip062)" style="fill:#009af9; stroke:none; fill-opacity:0" cx="807.245" cy="299.774" r="2"/>
<circle clip-path="url(#clip062)" style="fill:#009af9; stroke:none; fill-opacity:0" cx="835.424" cy="504.396" r="2"/>
<circle clip-path="url(#clip062)" style="fill:#009af9; stroke:none; fill-opacity:0" cx="863.603" cy="718.559" r="2"/>
<circle clip-path="url(#clip062)" style="fill:#009af9; stroke:none; fill-opacity:0" cx="891.783" cy="785.799" r="2"/>
<circle clip-path="url(#clip062)" style="fill:#009af9; stroke:none; fill-opacity:0" cx="919.962" cy="718.559" r="2"/>
<circle clip-path="url(#clip062)" style="fill:#009af9; stroke:none; fill-opacity:0" cx="948.141" cy="1042.58" r="2"/>
<circle clip-path="url(#clip062)" style="fill:#009af9; stroke:none; fill-opacity:0" cx="976.32" cy="290.233" r="2"/>
<circle clip-path="url(#clip062)" style="fill:#009af9; stroke:none; fill-opacity:0" cx="1004.5" cy="394.543" r="2"/>
<circle clip-path="url(#clip062)" style="fill:#009af9; stroke:none; fill-opacity:0" cx="1032.68" cy="380.373" r="2"/>
<circle clip-path="url(#clip062)" style="fill:#009af9; stroke:none; fill-opacity:0" cx="1060.86" cy="443.074" r="2"/>
<circle clip-path="url(#clip062)" style="fill:#009af9; stroke:none; fill-opacity:0" cx="1089.04" cy="529.022" r="2"/>
<circle clip-path="url(#clip062)" style="fill:#009af9; stroke:none; fill-opacity:0" cx="1117.22" cy="1042.58" r="2"/>
<circle clip-path="url(#clip062)" style="fill:#009af9; stroke:none; fill-opacity:0" cx="1145.4" cy="880.567" r="2"/>
<circle clip-path="url(#clip062)" style="fill:#009af9; stroke:none; fill-opacity:0" cx="1173.58" cy="218.365" r="2"/>
<circle clip-path="url(#clip062)" style="fill:#009af9; stroke:none; fill-opacity:0" cx="1201.75" cy="425.753" r="2"/>
<circle clip-path="url(#clip062)" style="fill:#009af9; stroke:none; fill-opacity:0" cx="1229.93" cy="309.721" r="2"/>
<circle clip-path="url(#clip062)" style="fill:#009af9; stroke:none; fill-opacity:0" cx="1258.11" cy="367.013" r="2"/>
<circle clip-path="url(#clip062)" style="fill:#009af9; stroke:none; fill-opacity:0" cx="1286.29" cy="342.388" r="2"/>
<circle clip-path="url(#clip062)" style="fill:#009af9; stroke:none; fill-opacity:0" cx="1314.47" cy="666.404" r="2"/>
<circle clip-path="url(#clip062)" style="fill:#009af9; stroke:none; fill-opacity:0" cx="1342.65" cy="623.79" r="2"/>
<circle clip-path="url(#clip062)" style="fill:#009af9; stroke:none; fill-opacity:0" cx="1370.83" cy="225.342" r="2"/>
<circle clip-path="url(#clip062)" style="fill:#009af9; stroke:none; fill-opacity:0" cx="1399.01" cy="290.233" r="2"/>
<circle clip-path="url(#clip062)" style="fill:#009af9; stroke:none; fill-opacity:0" cx="1427.19" cy="211.589" r="2"/>
<circle clip-path="url(#clip062)" style="fill:#009af9; stroke:none; fill-opacity:0" cx="1455.37" cy="587.761" r="2"/>
<circle clip-path="url(#clip062)" style="fill:#009af9; stroke:none; fill-opacity:0" cx="1483.55" cy="482.119" r="2"/>
<circle clip-path="url(#clip062)" style="fill:#009af9; stroke:none; fill-opacity:0" cx="1511.73" cy="880.567" r="2"/>
<circle clip-path="url(#clip062)" style="fill:#009af9; stroke:none; fill-opacity:0" cx="1539.91" cy="666.404" r="2"/>
<circle clip-path="url(#clip062)" style="fill:#009af9; stroke:none; fill-opacity:0" cx="1568.08" cy="225.342" r="2"/>
<circle clip-path="url(#clip062)" style="fill:#009af9; stroke:none; fill-opacity:0" cx="1596.26" cy="272.245" r="2"/>
<circle clip-path="url(#clip062)" style="fill:#009af9; stroke:none; fill-opacity:0" cx="1624.44" cy="263.744" r="2"/>
<circle clip-path="url(#clip062)" style="fill:#009af9; stroke:none; fill-opacity:0" cx="1652.62" cy="342.388" r="2"/>
<circle clip-path="url(#clip062)" style="fill:#009af9; stroke:none; fill-opacity:0" cx="1680.8" cy="342.388" r="2"/>
<circle clip-path="url(#clip062)" style="fill:#009af9; stroke:none; fill-opacity:0" cx="1708.98" cy="623.79" r="2"/>
<circle clip-path="url(#clip062)" style="fill:#009af9; stroke:none; fill-opacity:0" cx="1737.16" cy="785.799" r="2"/>
<circle clip-path="url(#clip062)" style="fill:#009af9; stroke:none; fill-opacity:0" cx="1765.34" cy="110.236" r="2"/>
<circle clip-path="url(#clip062)" style="fill:#009af9; stroke:none; fill-opacity:0" cx="1793.52" cy="128.224" r="2"/>
<circle clip-path="url(#clip062)" style="fill:#009af9; stroke:none; fill-opacity:0" cx="1821.7" cy="232.534" r="2"/>
<circle clip-path="url(#clip062)" style="fill:#009af9; stroke:none; fill-opacity:0" cx="1849.88" cy="320.111" r="2"/>
<circle clip-path="url(#clip062)" style="fill:#009af9; stroke:none; fill-opacity:0" cx="1878.06" cy="504.396" r="2"/>
<circle clip-path="url(#clip062)" style="fill:#009af9; stroke:none; fill-opacity:0" cx="1906.24" cy="880.567" r="2"/>
<circle clip-path="url(#clip062)" style="fill:#009af9; stroke:none; fill-opacity:0" cx="1934.41" cy="666.404" r="2"/>
<circle clip-path="url(#clip062)" style="fill:#009af9; stroke:none; fill-opacity:0" cx="1962.59" cy="225.342" r="2"/>
<circle clip-path="url(#clip062)" style="fill:#009af9; stroke:none; fill-opacity:0" cx="1990.77" cy="163.476" r="2"/>
<circle clip-path="url(#clip062)" style="fill:#009af9; stroke:none; fill-opacity:0" cx="2018.95" cy="239.955" r="2"/>
<circle clip-path="url(#clip062)" style="fill:#009af9; stroke:none; fill-opacity:0" cx="2047.13" cy="354.376" r="2"/>
<circle clip-path="url(#clip062)" style="fill:#009af9; stroke:none; fill-opacity:0" cx="2075.31" cy="482.119" r="2"/>
<circle clip-path="url(#clip062)" style="fill:#009af9; stroke:none; fill-opacity:0" cx="2103.49" cy="587.761" r="2"/>
<circle clip-path="url(#clip062)" style="fill:#009af9; stroke:none; fill-opacity:0" cx="2131.67" cy="623.79" r="2"/>
<circle clip-path="url(#clip062)" style="fill:#009af9; stroke:none; fill-opacity:0" cx="2159.85" cy="168.976" r="2"/>
<circle clip-path="url(#clip062)" style="fill:#009af9; stroke:none; fill-opacity:0" cx="2188.03" cy="168.976" r="2"/>
<circle clip-path="url(#clip062)" style="fill:#009af9; stroke:none; fill-opacity:0" cx="2216.21" cy="299.774" r="2"/>
<circle clip-path="url(#clip062)" style="fill:#009af9; stroke:none; fill-opacity:0" cx="2244.39" cy="380.373" r="2"/>
<circle clip-path="url(#clip062)" style="fill:#009af9; stroke:none; fill-opacity:0" cx="2272.57" cy="290.233" r="2"/>
<circle clip-path="url(#clip062)" style="fill:#009af9; stroke:none; fill-opacity:0" cx="2300.74" cy="785.799" r="2"/>
<circle clip-path="url(#clip062)" style="fill:#009af9; stroke:none; fill-opacity:0" cx="2328.92" cy="556.551" r="2"/>
<circle clip-path="url(#clip062)" style="fill:#009af9; stroke:none; fill-opacity:0" cx="2357.1" cy="239.955" r="2"/>
<circle clip-path="url(#clip062)" style="fill:#009af9; stroke:none; fill-opacity:0" cx="2385.28" cy="587.761" r="2"/>
<circle clip-path="url(#clip062)" style="fill:#009af9; stroke:none; fill-opacity:0" cx="2413.46" cy="623.79" r="2"/>
<circle clip-path="url(#clip062)" style="fill:#009af9; stroke:none; fill-opacity:0" cx="2441.64" cy="623.79" r="2"/>
<circle clip-path="url(#clip062)" style="fill:#009af9; stroke:none; fill-opacity:0" cx="2469.82" cy="785.799" r="2"/>
<circle clip-path="url(#clip062)" style="fill:#009af9; stroke:none; fill-opacity:0" cx="2498" cy="1042.58" r="2"/>
<circle clip-path="url(#clip062)" style="fill:#009af9; stroke:none; fill-opacity:0" cx="2526.18" cy="1042.58" r="2"/>
<circle clip-path="url(#clip062)" style="fill:#009af9; stroke:none; fill-opacity:0" cx="2554.36" cy="482.119" r="2"/>
<circle clip-path="url(#clip062)" style="fill:#009af9; stroke:none; fill-opacity:0" cx="2582.54" cy="1042.58" r="2"/>
</svg>
