<?xml version="1.0" encoding="utf-8"?>
<svg xmlns="http://www.w3.org/2000/svg" xmlns:xlink="http://www.w3.org/1999/xlink" width="800" height="300" viewBox="0 0 3200 1200">
<defs>
  <clipPath id="clip300">
    <rect x="0" y="0" width="3200" height="1200"/>
  </clipPath>
</defs>
<path clip-path="url(#clip300)" d="M0 1200 L3200 1200 L3200 0 L0 0  Z" fill="#ffffff" fill-rule="evenodd" fill-opacity="1"/>
<defs>
  <clipPath id="clip301">
    <rect x="640" y="0" width="2241" height="1200"/>
  </clipPath>
</defs>
<path clip-path="url(#clip300)" d="M271.839 1042.58 L3089.76 1042.58 L3089.76 110.236 L271.839 110.236  Z" fill="#ffffff" fill-rule="evenodd" fill-opacity="1"/>
<defs>
  <clipPath id="clip302">
    <rect x="271" y="110" width="2819" height="933"/>
  </clipPath>
</defs>
<polyline clip-path="url(#clip302)" style="stroke:#000000; stroke-linecap:round; stroke-linejoin:round; stroke-width:2; stroke-opacity:0.1; fill:none" points="638.169,1042.58 638.169,110.236 "/>
<polyline clip-path="url(#clip302)" style="stroke:#000000; stroke-linecap:round; stroke-linejoin:round; stroke-width:2; stroke-opacity:0.1; fill:none" points="1511.73,1042.58 1511.73,110.236 "/>
<polyline clip-path="url(#clip302)" style="stroke:#000000; stroke-linecap:round; stroke-linejoin:round; stroke-width:2; stroke-opacity:0.1; fill:none" points="2357.1,1042.58 2357.1,110.236 "/>
<polyline clip-path="url(#clip300)" style="stroke:#000000; stroke-linecap:round; stroke-linejoin:round; stroke-width:4; stroke-opacity:1; fill:none" points="271.839,1042.58 3089.76,1042.58 "/>
<polyline clip-path="url(#clip300)" style="stroke:#000000; stroke-linecap:round; stroke-linejoin:round; stroke-width:4; stroke-opacity:1; fill:none" points="638.169,1042.58 638.169,1023.68 "/>
<polyline clip-path="url(#clip300)" style="stroke:#000000; stroke-linecap:round; stroke-linejoin:round; stroke-width:4; stroke-opacity:1; fill:none" points="1511.73,1042.58 1511.73,1023.68 "/>
<polyline clip-path="url(#clip300)" style="stroke:#000000; stroke-linecap:round; stroke-linejoin:round; stroke-width:4; stroke-opacity:1; fill:none" points="2357.1,1042.58 2357.1,1023.68 "/>
<path clip-path="url(#clip300)" d="M509.964 1107.44 L526.283 1107.44 L526.283 1111.38 L504.339 1111.38 L504.339 1107.44 Q507.001 1104.69 511.584 1100.06 Q516.191 1095.4 517.371 1094.06 Q519.617 1091.54 520.496 1089.8 Q521.399 1088.04 521.399 1086.35 Q521.399 1083.6 519.455 1081.86 Q517.533 1080.13 514.432 1080.13 Q512.233 1080.13 509.779 1080.89 Q507.348 1081.65 504.571 1083.2 L504.571 1078.48 Q507.395 1077.35 509.848 1076.77 Q512.302 1076.19 514.339 1076.19 Q519.709 1076.19 522.904 1078.88 Q526.098 1081.56 526.098 1086.05 Q526.098 1088.18 525.288 1090.1 Q524.501 1092 522.395 1094.59 Q521.816 1095.26 518.714 1098.48 Q515.612 1101.68 509.964 1107.44 Z" fill="#000000" fill-rule="nonzero" fill-opacity="1" /><path clip-path="url(#clip300)" d="M546.098 1079.89 Q542.487 1079.89 540.658 1083.46 Q538.853 1087 538.853 1094.13 Q538.853 1101.24 540.658 1104.8 Q542.487 1108.34 546.098 1108.34 Q549.732 1108.34 551.538 1104.8 Q553.367 1101.24 553.367 1094.13 Q553.367 1087 551.538 1083.46 Q549.732 1079.89 546.098 1079.89 M546.098 1076.19 Q551.908 1076.19 554.964 1080.8 Q558.043 1085.38 558.043 1094.13 Q558.043 1102.86 554.964 1107.46 Q551.908 1112.05 546.098 1112.05 Q540.288 1112.05 537.209 1107.46 Q534.154 1102.86 534.154 1094.13 Q534.154 1085.38 537.209 1080.8 Q540.288 1076.19 546.098 1076.19 Z" fill="#000000" fill-rule="nonzero" fill-opacity="1" /><path clip-path="url(#clip300)" d="M570.288 1107.44 L586.607 1107.44 L586.607 1111.38 L564.663 1111.38 L564.663 1107.44 Q567.325 1104.69 571.908 1100.06 Q576.515 1095.4 577.695 1094.06 Q579.941 1091.54 580.82 1089.8 Q581.723 1088.04 581.723 1086.35 Q581.723 1083.6 579.779 1081.86 Q577.857 1080.13 574.755 1080.13 Q572.556 1080.13 570.103 1080.89 Q567.672 1081.65 564.894 1083.2 L564.894 1078.48 Q567.718 1077.35 570.172 1076.77 Q572.626 1076.19 574.663 1076.19 Q580.033 1076.19 583.228 1078.88 Q586.422 1081.56 586.422 1086.05 Q586.422 1088.18 585.612 1090.1 Q584.825 1092 582.718 1094.59 Q582.14 1095.26 579.038 1098.48 Q575.936 1101.68 570.288 1107.44 Z" fill="#000000" fill-rule="nonzero" fill-opacity="1" /><path clip-path="url(#clip300)" d="M609.269 1080.89 L597.464 1099.34 L609.269 1099.34 L609.269 1080.89 M608.042 1076.82 L613.922 1076.82 L613.922 1099.34 L618.852 1099.34 L618.852 1103.23 L613.922 1103.23 L613.922 1111.38 L609.269 1111.38 L609.269 1103.23 L593.667 1103.23 L593.667 1098.71 L608.042 1076.82 Z" fill="#000000" fill-rule="nonzero" fill-opacity="1" /><path clip-path="url(#clip300)" d="M623.829 1096.49 L636.306 1096.49 L636.306 1100.29 L623.829 1100.29 L623.829 1096.49 Z" fill="#000000" fill-rule="nonzero" fill-opacity="1" /><path clip-path="url(#clip300)" d="M653.69 1079.89 Q650.079 1079.89 648.25 1083.46 Q646.445 1087 646.445 1094.13 Q646.445 1101.24 648.25 1104.8 Q650.079 1108.34 653.69 1108.34 Q657.324 1108.34 659.13 1104.8 Q660.959 1101.24 660.959 1094.13 Q660.959 1087 659.13 1083.46 Q657.324 1079.89 653.69 1079.89 M653.69 1076.19 Q659.5 1076.19 662.556 1080.8 Q665.635 1085.38 665.635 1094.13 Q665.635 1102.86 662.556 1107.46 Q659.5 1112.05 653.69 1112.05 Q647.88 1112.05 644.801 1107.46 Q641.746 1102.86 641.746 1094.13 Q641.746 1085.38 644.801 1080.8 Q647.88 1076.19 653.69 1076.19 Z" fill="#000000" fill-rule="nonzero" fill-opacity="1" /><path clip-path="url(#clip300)" d="M688.019 1092.74 Q691.375 1093.46 693.25 1095.73 Q695.148 1098 695.148 1101.33 Q695.148 1106.45 691.63 1109.25 Q688.111 1112.05 681.63 1112.05 Q679.454 1112.05 677.139 1111.61 Q674.847 1111.19 672.394 1110.33 L672.394 1105.82 Q674.338 1106.95 676.653 1107.53 Q678.968 1108.11 681.491 1108.11 Q685.889 1108.11 688.181 1106.38 Q690.496 1104.64 690.496 1101.33 Q690.496 1098.27 688.343 1096.56 Q686.213 1094.82 682.394 1094.82 L678.366 1094.82 L678.366 1090.98 L682.579 1090.98 Q686.028 1090.98 687.857 1089.62 Q689.685 1088.23 689.685 1085.64 Q689.685 1082.97 687.787 1081.56 Q685.912 1080.13 682.394 1080.13 Q680.472 1080.13 678.273 1080.54 Q676.074 1080.96 673.435 1081.84 L673.435 1077.67 Q676.097 1076.93 678.412 1076.56 Q680.75 1076.19 682.81 1076.19 Q688.134 1076.19 691.236 1078.62 Q694.338 1081.03 694.338 1085.15 Q694.338 1088.02 692.695 1090.01 Q691.051 1091.98 688.019 1092.74 Z" fill="#000000" fill-rule="nonzero" fill-opacity="1" /><path clip-path="url(#clip300)" d="M701.259 1096.49 L713.736 1096.49 L713.736 1100.29 L701.259 1100.29 L701.259 1096.49 Z" fill="#000000" fill-rule="nonzero" fill-opacity="1" /><path clip-path="url(#clip300)" d="M731.12 1079.89 Q727.509 1079.89 725.681 1083.46 Q723.875 1087 723.875 1094.13 Q723.875 1101.24 725.681 1104.8 Q727.509 1108.34 731.12 1108.34 Q734.755 1108.34 736.56 1104.8 Q738.389 1101.24 738.389 1094.13 Q738.389 1087 736.56 1083.46 Q734.755 1079.89 731.12 1079.89 M731.12 1076.19 Q736.93 1076.19 739.986 1080.8 Q743.065 1085.38 743.065 1094.13 Q743.065 1102.86 739.986 1107.46 Q736.93 1112.05 731.12 1112.05 Q725.31 1112.05 722.231 1107.46 Q719.176 1102.86 719.176 1094.13 Q719.176 1085.38 722.231 1080.8 Q725.31 1076.19 731.12 1076.19 Z" fill="#000000" fill-rule="nonzero" fill-opacity="1" /><path clip-path="url(#clip300)" d="M752.092 1107.44 L759.731 1107.44 L759.731 1081.07 L751.421 1082.74 L751.421 1078.48 L759.685 1076.82 L764.361 1076.82 L764.361 1107.44 L772 1107.44 L772 1111.38 L752.092 1111.38 L752.092 1107.44 Z" fill="#000000" fill-rule="nonzero" fill-opacity="1" /><path clip-path="url(#clip300)" d="M1383.52 1107.44 L1399.84 1107.44 L1399.84 1111.38 L1377.9 1111.38 L1377.9 1107.44 Q1380.56 1104.69 1385.14 1100.06 Q1389.75 1095.4 1390.93 1094.06 Q1393.17 1091.54 1394.05 1089.8 Q1394.96 1088.04 1394.96 1086.35 Q1394.96 1083.6 1393.01 1081.86 Q1391.09 1080.13 1387.99 1080.13 Q1385.79 1080.13 1383.34 1080.89 Q1380.9 1081.65 1378.13 1083.2 L1378.13 1078.48 Q1380.95 1077.35 1383.4 1076.77 Q1385.86 1076.19 1387.9 1076.19 Q1393.27 1076.19 1396.46 1078.88 Q1399.65 1081.56 1399.65 1086.05 Q1399.65 1088.18 1398.84 1090.1 Q1398.06 1092 1395.95 1094.59 Q1395.37 1095.26 1392.27 1098.48 Q1389.17 1101.68 1383.52 1107.44 Z" fill="#000000" fill-rule="nonzero" fill-opacity="1" /><path clip-path="url(#clip300)" d="M1419.65 1079.89 Q1416.04 1079.89 1414.21 1083.46 Q1412.41 1087 1412.41 1094.13 Q1412.41 1101.24 1414.21 1104.8 Q1416.04 1108.34 1419.65 1108.34 Q1423.29 1108.34 1425.09 1104.8 Q1426.92 1101.24 1426.92 1094.13 Q1426.92 1087 1425.09 1083.46 Q1423.29 1079.89 1419.65 1079.89 M1419.65 1076.19 Q1425.46 1076.19 1428.52 1080.8 Q1431.6 1085.38 1431.6 1094.13 Q1431.6 1102.86 1428.52 1107.46 Q1425.46 1112.05 1419.65 1112.05 Q1413.84 1112.05 1410.77 1107.46 Q1407.71 1102.86 1407.71 1094.13 Q1407.71 1085.38 1410.77 1080.8 Q1413.84 1076.19 1419.65 1076.19 Z" fill="#000000" fill-rule="nonzero" fill-opacity="1" /><path clip-path="url(#clip300)" d="M1443.84 1107.44 L1460.16 1107.44 L1460.16 1111.38 L1438.22 1111.38 L1438.22 1107.44 Q1440.88 1104.69 1445.46 1100.06 Q1450.07 1095.4 1451.25 1094.06 Q1453.5 1091.54 1454.38 1089.8 Q1455.28 1088.04 1455.28 1086.35 Q1455.28 1083.6 1453.34 1081.86 Q1451.41 1080.13 1448.31 1080.13 Q1446.11 1080.13 1443.66 1080.89 Q1441.23 1081.65 1438.45 1083.2 L1438.45 1078.48 Q1441.28 1077.35 1443.73 1076.77 Q1446.18 1076.19 1448.22 1076.19 Q1453.59 1076.19 1456.78 1078.88 Q1459.98 1081.56 1459.98 1086.05 Q1459.98 1088.18 1459.17 1090.1 Q1458.38 1092 1456.27 1094.59 Q1455.7 1095.26 1452.59 1098.48 Q1449.49 1101.68 1443.84 1107.44 Z" fill="#000000" fill-rule="nonzero" fill-opacity="1" /><path clip-path="url(#clip300)" d="M1482.83 1080.89 L1471.02 1099.34 L1482.83 1099.34 L1482.83 1080.89 M1481.6 1076.82 L1487.48 1076.82 L1487.48 1099.34 L1492.41 1099.34 L1492.41 1103.23 L1487.48 1103.23 L1487.48 1111.38 L1482.83 1111.38 L1482.83 1103.23 L1467.22 1103.23 L1467.22 1098.71 L1481.6 1076.82 Z" fill="#000000" fill-rule="nonzero" fill-opacity="1" /><path clip-path="url(#clip300)" d="M1497.39 1096.49 L1509.86 1096.49 L1509.86 1100.29 L1497.39 1100.29 L1497.39 1096.49 Z" fill="#000000" fill-rule="nonzero" fill-opacity="1" /><path clip-path="url(#clip300)" d="M1527.25 1079.89 Q1523.64 1079.89 1521.81 1083.46 Q1520 1087 1520 1094.13 Q1520 1101.24 1521.81 1104.8 Q1523.64 1108.34 1527.25 1108.34 Q1530.88 1108.34 1532.69 1104.8 Q1534.52 1101.24 1534.52 1094.13 Q1534.52 1087 1532.69 1083.46 Q1530.88 1079.89 1527.25 1079.89 M1527.25 1076.19 Q1533.06 1076.19 1536.11 1080.8 Q1539.19 1085.38 1539.19 1094.13 Q1539.19 1102.86 1536.11 1107.46 Q1533.06 1112.05 1527.25 1112.05 Q1521.44 1112.05 1518.36 1107.46 Q1515.3 1102.86 1515.3 1094.13 Q1515.3 1085.38 1518.36 1080.8 Q1521.44 1076.19 1527.25 1076.19 Z" fill="#000000" fill-rule="nonzero" fill-opacity="1" /><path clip-path="url(#clip300)" d="M1560.26 1080.89 L1548.45 1099.34 L1560.26 1099.34 L1560.26 1080.89 M1559.03 1076.82 L1564.91 1076.82 L1564.91 1099.34 L1569.84 1099.34 L1569.84 1103.23 L1564.91 1103.23 L1564.91 1111.38 L1560.26 1111.38 L1560.26 1103.23 L1544.65 1103.23 L1544.65 1098.71 L1559.03 1076.82 Z" fill="#000000" fill-rule="nonzero" fill-opacity="1" /><path clip-path="url(#clip300)" d="M1574.82 1096.49 L1587.29 1096.49 L1587.29 1100.29 L1574.82 1100.29 L1574.82 1096.49 Z" fill="#000000" fill-rule="nonzero" fill-opacity="1" /><path clip-path="url(#clip300)" d="M1604.68 1079.89 Q1601.07 1079.89 1599.24 1083.46 Q1597.43 1087 1597.43 1094.13 Q1597.43 1101.24 1599.24 1104.8 Q1601.07 1108.34 1604.68 1108.34 Q1608.31 1108.34 1610.12 1104.8 Q1611.95 1101.24 1611.95 1094.13 Q1611.95 1087 1610.12 1083.46 Q1608.31 1079.89 1604.68 1079.89 M1604.68 1076.19 Q1610.49 1076.19 1613.54 1080.8 Q1616.62 1085.38 1616.62 1094.13 Q1616.62 1102.86 1613.54 1107.46 Q1610.49 1112.05 1604.68 1112.05 Q1598.87 1112.05 1595.79 1107.46 Q1592.73 1102.86 1592.73 1094.13 Q1592.73 1085.38 1595.79 1080.8 Q1598.87 1076.19 1604.68 1076.19 Z" fill="#000000" fill-rule="nonzero" fill-opacity="1" /><path clip-path="url(#clip300)" d="M1625.65 1107.44 L1633.29 1107.44 L1633.29 1081.07 L1624.98 1082.74 L1624.98 1078.48 L1633.24 1076.82 L1637.92 1076.82 L1637.92 1107.44 L1645.56 1107.44 L1645.56 1111.38 L1625.65 1111.38 L1625.65 1107.44 Z" fill="#000000" fill-rule="nonzero" fill-opacity="1" /><path clip-path="url(#clip300)" d="M2228.9 1107.44 L2245.22 1107.44 L2245.22 1111.38 L2223.27 1111.38 L2223.27 1107.44 Q2225.94 1104.69 2230.52 1100.06 Q2235.12 1095.4 2236.31 1094.06 Q2238.55 1091.54 2239.43 1089.8 Q2240.33 1088.04 2240.33 1086.35 Q2240.33 1083.6 2238.39 1081.86 Q2236.47 1080.13 2233.37 1080.13 Q2231.17 1080.13 2228.71 1080.89 Q2226.28 1081.65 2223.5 1083.2 L2223.5 1078.48 Q2226.33 1077.35 2228.78 1076.77 Q2231.24 1076.19 2233.27 1076.19 Q2238.64 1076.19 2241.84 1078.88 Q2245.03 1081.56 2245.03 1086.05 Q2245.03 1088.18 2244.22 1090.1 Q2243.44 1092 2241.33 1094.59 Q2240.75 1095.26 2237.65 1098.48 Q2234.55 1101.68 2228.9 1107.44 Z" fill="#000000" fill-rule="nonzero" fill-opacity="1" /><path clip-path="url(#clip300)" d="M2265.03 1079.89 Q2261.42 1079.89 2259.59 1083.46 Q2257.79 1087 2257.79 1094.13 Q2257.79 1101.24 2259.59 1104.8 Q2261.42 1108.34 2265.03 1108.34 Q2268.67 1108.34 2270.47 1104.8 Q2272.3 1101.24 2272.3 1094.13 Q2272.3 1087 2270.47 1083.46 Q2268.67 1079.89 2265.03 1079.89 M2265.03 1076.19 Q2270.84 1076.19 2273.9 1080.8 Q2276.98 1085.38 2276.98 1094.13 Q2276.98 1102.86 2273.9 1107.46 Q2270.84 1112.05 2265.03 1112.05 Q2259.22 1112.05 2256.14 1107.46 Q2253.09 1102.86 2253.09 1094.13 Q2253.09 1085.38 2256.14 1080.8 Q2259.22 1076.19 2265.03 1076.19 Z" fill="#000000" fill-rule="nonzero" fill-opacity="1" /><path clip-path="url(#clip300)" d="M2289.22 1107.44 L2305.54 1107.44 L2305.54 1111.38 L2283.6 1111.38 L2283.6 1107.44 Q2286.26 1104.69 2290.84 1100.06 Q2295.45 1095.4 2296.63 1094.06 Q2298.87 1091.54 2299.75 1089.8 Q2300.66 1088.04 2300.66 1086.35 Q2300.66 1083.6 2298.71 1081.86 Q2296.79 1080.13 2293.69 1080.13 Q2291.49 1080.13 2289.04 1080.89 Q2286.61 1081.65 2283.83 1083.2 L2283.83 1078.48 Q2286.65 1077.35 2289.11 1076.77 Q2291.56 1076.19 2293.6 1076.19 Q2298.97 1076.19 2302.16 1078.88 Q2305.36 1081.56 2305.36 1086.05 Q2305.36 1088.18 2304.55 1090.1 Q2303.76 1092 2301.65 1094.59 Q2301.07 1095.26 2297.97 1098.48 Q2294.87 1101.68 2289.22 1107.44 Z" fill="#000000" fill-rule="nonzero" fill-opacity="1" /><path clip-path="url(#clip300)" d="M2328.2 1080.89 L2316.4 1099.34 L2328.2 1099.34 L2328.2 1080.89 M2326.98 1076.82 L2332.86 1076.82 L2332.86 1099.34 L2337.79 1099.34 L2337.79 1103.23 L2332.86 1103.23 L2332.86 1111.38 L2328.2 1111.38 L2328.2 1103.23 L2312.6 1103.23 L2312.6 1098.71 L2326.98 1076.82 Z" fill="#000000" fill-rule="nonzero" fill-opacity="1" /><path clip-path="url(#clip300)" d="M2342.76 1096.49 L2355.24 1096.49 L2355.24 1100.29 L2342.76 1100.29 L2342.76 1096.49 Z" fill="#000000" fill-rule="nonzero" fill-opacity="1" /><path clip-path="url(#clip300)" d="M2372.62 1079.89 Q2369.01 1079.89 2367.18 1083.46 Q2365.38 1087 2365.38 1094.13 Q2365.38 1101.24 2367.18 1104.8 Q2369.01 1108.34 2372.62 1108.34 Q2376.26 1108.34 2378.06 1104.8 Q2379.89 1101.24 2379.89 1094.13 Q2379.89 1087 2378.06 1083.46 Q2376.26 1079.89 2372.62 1079.89 M2372.62 1076.19 Q2378.43 1076.19 2381.49 1080.8 Q2384.57 1085.38 2384.57 1094.13 Q2384.57 1102.86 2381.49 1107.46 Q2378.43 1112.05 2372.62 1112.05 Q2366.81 1112.05 2363.74 1107.46 Q2360.68 1102.86 2360.68 1094.13 Q2360.68 1085.38 2363.74 1080.8 Q2366.81 1076.19 2372.62 1076.19 Z" fill="#000000" fill-rule="nonzero" fill-opacity="1" /><path clip-path="url(#clip300)" d="M2392.83 1076.82 L2411.19 1076.82 L2411.19 1080.75 L2397.11 1080.75 L2397.11 1089.22 Q2398.13 1088.88 2399.15 1088.71 Q2400.17 1088.53 2401.19 1088.53 Q2406.98 1088.53 2410.36 1091.7 Q2413.74 1094.87 2413.74 1100.29 Q2413.74 1105.87 2410.26 1108.97 Q2406.79 1112.05 2400.47 1112.05 Q2398.3 1112.05 2396.03 1111.68 Q2393.78 1111.31 2391.37 1110.57 L2391.37 1105.87 Q2393.46 1107 2395.68 1107.56 Q2397.9 1108.11 2400.38 1108.11 Q2404.38 1108.11 2406.72 1106.01 Q2409.06 1103.9 2409.06 1100.29 Q2409.06 1096.68 2406.72 1094.57 Q2404.38 1092.46 2400.38 1092.46 Q2398.5 1092.46 2396.63 1092.88 Q2394.78 1093.3 2392.83 1094.18 L2392.83 1076.82 Z" fill="#000000" fill-rule="nonzero" fill-opacity="1" /><path clip-path="url(#clip300)" d="M2420.19 1096.49 L2432.67 1096.49 L2432.67 1100.29 L2420.19 1100.29 L2420.19 1096.49 Z" fill="#000000" fill-rule="nonzero" fill-opacity="1" /><path clip-path="url(#clip300)" d="M2450.05 1079.89 Q2446.44 1079.89 2444.61 1083.46 Q2442.81 1087 2442.81 1094.13 Q2442.81 1101.24 2444.61 1104.8 Q2446.44 1108.34 2450.05 1108.34 Q2453.69 1108.34 2455.49 1104.8 Q2457.32 1101.24 2457.32 1094.13 Q2457.32 1087 2455.49 1083.46 Q2453.69 1079.89 2450.05 1079.89 M2450.05 1076.19 Q2455.86 1076.19 2458.92 1080.8 Q2462 1085.38 2462 1094.13 Q2462 1102.86 2458.92 1107.46 Q2455.86 1112.05 2450.05 1112.05 Q2444.24 1112.05 2441.17 1107.46 Q2438.11 1102.86 2438.11 1094.13 Q2438.11 1085.38 2441.17 1080.8 Q2444.24 1076.19 2450.05 1076.19 Z" fill="#000000" fill-rule="nonzero" fill-opacity="1" /><path clip-path="url(#clip300)" d="M2471.03 1107.44 L2478.67 1107.44 L2478.67 1081.07 L2470.36 1082.74 L2470.36 1078.48 L2478.62 1076.82 L2483.29 1076.82 L2483.29 1107.44 L2490.93 1107.44 L2490.93 1111.38 L2471.03 1111.38 L2471.03 1107.44 Z" fill="#000000" fill-rule="nonzero" fill-opacity="1" /><polyline clip-path="url(#clip302)" style="stroke:#000000; stroke-linecap:round; stroke-linejoin:round; stroke-width:2; stroke-opacity:0.1; fill:none" points="271.839,1042.58 3089.76,1042.58 "/>
<polyline clip-path="url(#clip302)" style="stroke:#000000; stroke-linecap:round; stroke-linejoin:round; stroke-width:2; stroke-opacity:0.1; fill:none" points="271.839,520.353 3089.76,520.353 "/>
<polyline clip-path="url(#clip300)" style="stroke:#000000; stroke-linecap:round; stroke-linejoin:round; stroke-width:4; stroke-opacity:1; fill:none" points="271.839,1042.58 271.839,110.236 "/>
<polyline clip-path="url(#clip300)" style="stroke:#000000; stroke-linecap:round; stroke-linejoin:round; stroke-width:4; stroke-opacity:1; fill:none" points="271.839,1042.58 290.737,1042.58 "/>
<polyline clip-path="url(#clip300)" style="stroke:#000000; stroke-linecap:round; stroke-linejoin:round; stroke-width:4; stroke-opacity:1; fill:none" points="271.839,520.353 290.737,520.353 "/>
<path clip-path="url(#clip300)" d="M153.134 1062.37 L160.772 1062.37 L160.772 1036 L152.462 1037.67 L152.462 1033.41 L160.726 1031.74 L165.402 1031.74 L165.402 1062.37 L173.041 1062.37 L173.041 1066.3 L153.134 1066.3 L153.134 1062.37 Z" fill="#000000" fill-rule="nonzero" fill-opacity="1" /><path clip-path="url(#clip300)" d="M192.485 1034.82 Q188.874 1034.82 187.045 1038.39 Q185.24 1041.93 185.24 1049.06 Q185.24 1056.16 187.045 1059.73 Q188.874 1063.27 192.485 1063.27 Q196.119 1063.27 197.925 1059.73 Q199.754 1056.16 199.754 1049.06 Q199.754 1041.93 197.925 1038.39 Q196.119 1034.82 192.485 1034.82 M192.485 1031.12 Q198.295 1031.12 201.351 1035.72 Q204.43 1040.31 204.43 1049.06 Q204.43 1057.78 201.351 1062.39 Q198.295 1066.97 192.485 1066.97 Q186.675 1066.97 183.596 1062.39 Q180.541 1057.78 180.541 1049.06 Q180.541 1040.31 183.596 1035.72 Q186.675 1031.12 192.485 1031.12 Z" fill="#000000" fill-rule="nonzero" fill-opacity="1" /><path clip-path="url(#clip300)" d="M214.134 1013.31 Q211.2 1013.31 209.715 1016.21 Q208.248 1019.09 208.248 1024.88 Q208.248 1030.66 209.715 1033.55 Q211.2 1036.43 214.134 1036.43 Q217.087 1036.43 218.554 1033.55 Q220.04 1030.66 220.04 1024.88 Q220.04 1019.09 218.554 1016.21 Q217.087 1013.31 214.134 1013.31 M214.134 1010.31 Q218.855 1010.31 221.338 1014.05 Q223.839 1017.77 223.839 1024.88 Q223.839 1031.97 221.338 1035.71 Q218.855 1039.44 214.134 1039.44 Q209.414 1039.44 206.912 1035.71 Q204.43 1031.97 204.43 1024.88 Q204.43 1017.77 206.912 1014.05 Q209.414 1010.31 214.134 1010.31 Z" fill="#000000" fill-rule="nonzero" fill-opacity="1" /><path clip-path="url(#clip300)" d="M155.823 540.146 L163.462 540.146 L163.462 513.78 L155.152 515.447 L155.152 511.187 L163.416 509.521 L168.092 509.521 L168.092 540.146 L175.73 540.146 L175.73 544.081 L155.823 544.081 L155.823 540.146 Z" fill="#000000" fill-rule="nonzero" fill-opacity="1" /><path clip-path="url(#clip300)" d="M195.175 512.599 Q191.564 512.599 189.735 516.164 Q187.929 519.706 187.929 526.836 Q187.929 533.942 189.735 537.507 Q191.564 541.048 195.175 541.048 Q198.809 541.048 200.615 537.507 Q202.443 533.942 202.443 526.836 Q202.443 519.706 200.615 516.164 Q198.809 512.599 195.175 512.599 M195.175 508.896 Q200.985 508.896 204.04 513.502 Q207.119 518.086 207.119 526.836 Q207.119 535.562 204.04 540.169 Q200.985 544.752 195.175 544.752 Q189.365 544.752 186.286 540.169 Q183.23 535.562 183.23 526.836 Q183.23 518.086 186.286 513.502 Q189.365 508.896 195.175 508.896 Z" fill="#000000" fill-rule="nonzero" fill-opacity="1" /><path clip-path="url(#clip300)" d="M207.665 513.473 L213.871 513.473 L213.871 492.051 L207.119 493.405 L207.119 489.945 L213.833 488.59 L217.633 488.59 L217.633 513.473 L223.839 513.473 L223.839 516.67 L207.665 516.67 L207.665 513.473 Z" fill="#000000" fill-rule="nonzero" fill-opacity="1" /><path clip-path="url(#clip300)" d="M83.4268 946.62 L70.6636 946.62 L70.6636 957.123 L65.38 957.123 L65.38 940.254 L85.7821 940.254 Q88.4239 943.978 89.7925 948.466 Q91.1293 952.953 91.1293 958.046 Q91.1293 969.186 84.6363 975.488 Q78.1114 981.758 66.494 981.758 Q54.8448 981.758 48.3518 975.488 Q41.8269 969.186 41.8269 958.046 Q41.8269 953.399 42.9727 949.23 Q44.1186 945.028 46.3466 941.495 L53.1897 941.495 Q50.166 945.06 48.6382 949.07 Q47.1104 953.081 47.1104 957.505 Q47.1104 966.226 51.9802 970.618 Q56.85 974.979 66.494 974.979 Q76.1062 974.979 80.976 970.618 Q85.8458 966.226 85.8458 957.505 Q85.8458 954.099 85.2729 951.426 Q84.6681 948.752 83.4268 946.62 Z" fill="#000000" fill-rule="nonzero" fill-opacity="1" /><path clip-path="url(#clip300)" d="M70.9182 898.272 L73.7828 898.272 L73.7828 925.199 Q79.8302 924.817 83.013 921.571 Q86.1641 918.292 86.1641 912.468 Q86.1641 909.094 85.3365 905.943 Q84.509 902.76 82.8539 899.641 L88.3921 899.641 Q89.7289 902.792 90.4291 906.102 Q91.1293 909.412 91.1293 912.818 Q91.1293 921.348 86.1641 926.345 Q81.1988 931.31 72.7324 931.31 Q63.9796 931.31 58.8552 926.599 Q53.699 921.857 53.699 913.836 Q53.699 906.643 58.3459 902.473 Q62.9611 898.272 70.9182 898.272 M69.1995 904.128 Q64.3933 904.192 61.5288 906.834 Q58.6642 909.444 58.6642 913.773 Q58.6642 918.674 61.4333 921.634 Q64.2024 924.562 69.2313 925.008 L69.1995 904.128 Z" fill="#000000" fill-rule="nonzero" fill-opacity="1" /><path clip-path="url(#clip300)" d="M68.6902 859.027 L90.2063 859.027 L90.2063 864.884 L68.8812 864.884 Q63.8204 864.884 61.306 866.857 Q58.7915 868.831 58.7915 872.777 Q58.7915 877.52 61.8152 880.257 Q64.8389 882.994 70.0588 882.994 L90.2063 882.994 L90.2063 888.883 L54.5583 888.883 L54.5583 882.994 L60.0965 882.994 Q56.8818 880.894 55.2904 878.061 Q53.699 875.196 53.699 871.472 Q53.699 865.329 57.5184 862.178 Q61.306 859.027 68.6902 859.027 Z" fill="#000000" fill-rule="nonzero" fill-opacity="1" /><path clip-path="url(#clip300)" d="M58.6642 833.533 Q58.6642 838.243 62.3563 840.981 Q66.0166 843.718 72.4141 843.718 Q78.8117 843.718 82.5038 841.012 Q86.1641 838.275 86.1641 833.533 Q86.1641 828.854 82.4719 826.117 Q78.7798 823.379 72.4141 823.379 Q66.0803 823.379 62.3881 826.117 Q58.6642 828.854 58.6642 833.533 M53.699 833.533 Q53.699 825.894 58.6642 821.533 Q63.6295 817.173 72.4141 817.173 Q81.167 817.173 86.1641 821.533 Q91.1293 825.894 91.1293 833.533 Q91.1293 841.203 86.1641 845.564 Q81.167 849.893 72.4141 849.893 Q63.6295 849.893 58.6642 845.564 Q53.699 841.203 53.699 833.533 Z" fill="#000000" fill-rule="nonzero" fill-opacity="1" /><path clip-path="url(#clip300)" d="M61.4015 779.711 Q57.4547 777.515 55.5768 774.459 Q53.699 771.403 53.699 767.266 Q53.699 761.696 57.6139 758.672 Q61.4969 755.648 68.6902 755.648 L90.2063 755.648 L90.2063 761.537 L68.8812 761.537 Q63.7568 761.537 61.2741 763.351 Q58.7915 765.165 58.7915 768.889 Q58.7915 773.441 61.8152 776.082 Q64.8389 778.724 70.0588 778.724 L90.2063 778.724 L90.2063 784.612 L68.8812 784.612 Q63.7249 784.612 61.2741 786.427 Q58.7915 788.241 58.7915 792.028 Q58.7915 796.516 61.8471 799.158 Q64.8708 801.8 70.0588 801.8 L90.2063 801.8 L90.2063 807.688 L54.5583 807.688 L54.5583 801.8 L60.0965 801.8 Q56.8182 799.795 55.2586 796.994 Q53.699 794.193 53.699 790.341 Q53.699 786.458 55.6723 783.753 Q57.6457 781.016 61.4015 779.711 Z" fill="#000000" fill-rule="nonzero" fill-opacity="1" /><path clip-path="url(#clip300)" d="M70.9182 713.476 L73.7828 713.476 L73.7828 740.403 Q79.8302 740.021 83.013 736.774 Q86.1641 733.496 86.1641 727.671 Q86.1641 724.297 85.3365 721.146 Q84.509 717.963 82.8539 714.844 L88.3921 714.844 Q89.7289 717.995 90.4291 721.305 Q91.1293 724.616 91.1293 728.021 Q91.1293 736.551 86.1641 741.548 Q81.1988 746.514 72.7324 746.514 Q63.9796 746.514 58.8552 741.803 Q53.699 737.061 53.699 729.04 Q53.699 721.846 58.3459 717.677 Q62.9611 713.476 70.9182 713.476 M69.1995 719.332 Q64.3933 719.396 61.5288 722.037 Q58.6642 724.647 58.6642 728.976 Q58.6642 733.878 61.4333 736.838 Q64.2024 739.766 69.2313 740.212 L69.1995 719.332 Z" fill="#000000" fill-rule="nonzero" fill-opacity="1" /><path clip-path="url(#clip300)" d="M55.6087 681.138 L61.1468 681.138 Q59.8737 683.62 59.2371 686.294 Q58.6006 688.968 58.6006 691.832 Q58.6006 696.193 59.9373 698.389 Q61.2741 700.553 63.9477 700.553 Q65.9848 700.553 67.1624 698.994 Q68.3083 697.434 69.3586 692.723 L69.8042 690.718 Q71.141 684.48 73.5918 681.87 Q76.0108 679.228 80.3713 679.228 Q85.3365 679.228 88.2329 683.175 Q91.1293 687.09 91.1293 693.965 Q91.1293 696.829 90.5564 699.948 Q90.0153 703.036 88.9013 706.473 L82.8539 706.473 Q84.5408 703.227 85.4002 700.076 Q86.2277 696.925 86.2277 693.837 Q86.2277 689.7 84.8273 687.472 Q83.395 685.244 80.8169 685.244 Q78.4297 685.244 77.1566 686.867 Q75.8834 688.458 74.7058 693.901 L74.2284 695.938 Q73.0825 701.381 70.7272 703.8 Q68.3401 706.219 64.2024 706.219 Q59.1735 706.219 56.4362 702.654 Q53.699 699.089 53.699 692.532 Q53.699 689.286 54.1764 686.421 Q54.6538 683.557 55.6087 681.138 Z" fill="#000000" fill-rule="nonzero" fill-opacity="1" /><path clip-path="url(#clip300)" d="M42.6863 659.494 L42.6863 654.084 L96.2537 670.634 L96.2537 676.045 L42.6863 659.494 Z" fill="#000000" fill-rule="nonzero" fill-opacity="1" /><path clip-path="url(#clip300)" d="M47.9698 641.257 L84.9227 641.257 L84.9227 633.49 Q84.9227 623.655 80.4668 619.104 Q76.0108 614.521 66.3985 614.521 Q56.85 614.521 52.4258 619.104 Q47.9698 623.655 47.9698 633.49 L47.9698 641.257 M42.6863 647.686 L42.6863 634.477 Q42.6863 620.664 48.4472 614.202 Q54.1764 607.741 66.3985 607.741 Q78.6844 607.741 84.4453 614.234 Q90.2063 620.727 90.2063 634.477 L90.2063 647.686 L42.6863 647.686 Z" fill="#000000" fill-rule="nonzero" fill-opacity="1" /><path clip-path="url(#clip300)" d="M72.2868 581.546 Q72.2868 588.644 73.9101 591.381 Q75.5333 594.119 79.4482 594.119 Q82.5674 594.119 84.4135 592.082 Q86.2277 590.013 86.2277 586.48 Q86.2277 581.61 82.7902 578.682 Q79.3209 575.722 73.5918 575.722 L72.2868 575.722 L72.2868 581.546 M69.8679 569.865 L90.2063 569.865 L90.2063 575.722 L84.7954 575.722 Q88.0419 577.727 89.6015 580.719 Q91.1293 583.711 91.1293 588.039 Q91.1293 593.514 88.0738 596.76 Q84.9864 599.975 79.8302 599.975 Q73.8146 599.975 70.759 595.965 Q67.7035 591.922 67.7035 583.933 L67.7035 575.722 L67.1306 575.722 Q63.0884 575.722 60.8922 578.395 Q58.6642 581.037 58.6642 585.843 Q58.6642 588.899 59.3963 591.795 Q60.1283 594.691 61.5924 597.365 L56.1816 597.365 Q54.9403 594.15 54.3355 591.127 Q53.699 588.103 53.699 585.238 Q53.699 577.504 57.7094 573.685 Q61.7197 569.865 69.8679 569.865 Z" fill="#000000" fill-rule="nonzero" fill-opacity="1" /><path clip-path="url(#clip300)" d="M93.5165 542.97 Q99.8822 545.453 101.824 547.808 Q103.765 550.163 103.765 554.11 L103.765 558.789 L98.8636 558.789 L98.8636 555.351 Q98.8636 552.932 97.7178 551.596 Q96.572 550.259 92.307 548.636 L89.6334 547.585 L54.5583 562.004 L54.5583 555.797 L82.4401 544.657 L54.5583 533.517 L54.5583 527.31 L93.5165 542.97 Z" fill="#000000" fill-rule="nonzero" fill-opacity="1" /><path clip-path="url(#clip300)" d="M40.7447 484.437 Q48.0653 488.702 55.2267 490.771 Q62.3881 492.84 69.7405 492.84 Q77.0929 492.84 84.318 490.771 Q91.5113 488.671 98.8 484.437 L98.8 489.53 Q91.3203 494.304 84.0952 496.691 Q76.8701 499.047 69.7405 499.047 Q62.6428 499.047 55.4495 496.691 Q48.2563 494.336 40.7447 489.53 L40.7447 484.437 Z" fill="#000000" fill-rule="nonzero" fill-opacity="1" /><path clip-path="url(#clip300)" d="M49.0202 456.938 L72.6688 465.659 L72.6688 448.185 L49.0202 456.938 M42.6863 460.566 L42.6863 453.277 L90.2063 435.167 L90.2063 441.851 L78.016 446.18 L78.016 467.6 L90.2063 471.929 L90.2063 478.708 L42.6863 460.566 Z" fill="#000000" fill-rule="nonzero" fill-opacity="1" /><path clip-path="url(#clip300)" d="M76.1381 429.088 L54.5583 429.088 L54.5583 423.231 L75.9153 423.231 Q80.976 423.231 83.5223 421.258 Q86.0367 419.284 86.0367 415.338 Q86.0367 410.595 83.013 407.858 Q79.9893 405.089 74.7694 405.089 L54.5583 405.089 L54.5583 399.232 L90.2063 399.232 L90.2063 405.089 L84.7318 405.089 Q87.9783 407.221 89.5697 410.054 Q91.1293 412.855 91.1293 416.579 Q91.1293 422.722 87.3099 425.905 Q83.4905 429.088 76.1381 429.088 M53.699 414.351 L53.699 414.351 Z" fill="#000000" fill-rule="nonzero" fill-opacity="1" /><path clip-path="url(#clip300)" d="M55.6087 364.444 L61.1468 364.444 Q59.8737 366.926 59.2371 369.6 Q58.6006 372.274 58.6006 375.138 Q58.6006 379.499 59.9373 381.695 Q61.2741 383.859 63.9477 383.859 Q65.9848 383.859 67.1624 382.3 Q68.3083 380.74 69.3586 376.029 L69.8042 374.024 Q71.141 367.786 73.5918 365.176 Q76.0108 362.534 80.3713 362.534 Q85.3365 362.534 88.2329 366.481 Q91.1293 370.396 91.1293 377.271 Q91.1293 380.135 90.5564 383.255 Q90.0153 386.342 88.9013 389.779 L82.8539 389.779 Q84.5408 386.533 85.4002 383.382 Q86.2277 380.231 86.2277 377.143 Q86.2277 373.006 84.8273 370.778 Q83.395 368.55 80.8169 368.55 Q78.4297 368.55 77.1566 370.173 Q75.8834 371.764 74.7058 377.207 L74.2284 379.244 Q73.0825 384.687 70.7272 387.106 Q68.3401 389.525 64.2024 389.525 Q59.1735 389.525 56.4362 385.96 Q53.699 382.395 53.699 375.838 Q53.699 372.592 54.1764 369.727 Q54.6538 366.863 55.6087 364.444 Z" fill="#000000" fill-rule="nonzero" fill-opacity="1" /><path clip-path="url(#clip300)" d="M44.4369 347.416 L54.5583 347.416 L54.5583 335.353 L59.1098 335.353 L59.1098 347.416 L78.4616 347.416 Q82.8221 347.416 84.0634 346.238 Q85.3047 345.028 85.3047 341.368 L85.3047 335.353 L90.2063 335.353 L90.2063 341.368 Q90.2063 348.148 87.6918 350.726 Q85.1455 353.304 78.4616 353.304 L59.1098 353.304 L59.1098 357.601 L54.5583 357.601 L54.5583 353.304 L44.4369 353.304 L44.4369 347.416 Z" fill="#000000" fill-rule="nonzero" fill-opacity="1" /><path clip-path="url(#clip300)" d="M60.0328 306.993 Q59.4599 307.98 59.2053 309.158 Q58.9188 310.304 58.9188 311.704 Q58.9188 316.669 62.1653 319.343 Q65.38 321.985 71.4274 321.985 L90.2063 321.985 L90.2063 327.873 L54.5583 327.873 L54.5583 321.985 L60.0965 321.985 Q56.85 320.139 55.2904 317.178 Q53.699 314.218 53.699 309.985 Q53.699 309.381 53.7944 308.648 Q53.8581 307.916 54.0172 307.025 L60.0328 306.993 Z" fill="#000000" fill-rule="nonzero" fill-opacity="1" /><path clip-path="url(#clip300)" d="M72.2868 284.65 Q72.2868 291.747 73.9101 294.485 Q75.5333 297.222 79.4482 297.222 Q82.5674 297.222 84.4135 295.185 Q86.2277 293.116 86.2277 289.583 Q86.2277 284.713 82.7902 281.785 Q79.3209 278.825 73.5918 278.825 L72.2868 278.825 L72.2868 284.65 M69.8679 272.969 L90.2063 272.969 L90.2063 278.825 L84.7954 278.825 Q88.0419 280.83 89.6015 283.822 Q91.1293 286.814 91.1293 291.143 Q91.1293 296.617 88.0738 299.864 Q84.9864 303.078 79.8302 303.078 Q73.8146 303.078 70.759 299.068 Q67.7035 295.026 67.7035 287.037 L67.7035 278.825 L67.1306 278.825 Q63.0884 278.825 60.8922 281.499 Q58.6642 284.14 58.6642 288.947 Q58.6642 292.002 59.3963 294.899 Q60.1283 297.795 61.5924 300.469 L56.1816 300.469 Q54.9403 297.254 54.3355 294.23 Q53.699 291.206 53.699 288.342 Q53.699 280.608 57.7094 276.788 Q61.7197 272.969 69.8679 272.969 Z" fill="#000000" fill-rule="nonzero" fill-opacity="1" /><path clip-path="url(#clip300)" d="M40.6811 260.906 L40.6811 255.049 L90.2063 255.049 L90.2063 260.906 L40.6811 260.906 Z" fill="#000000" fill-rule="nonzero" fill-opacity="1" /><path clip-path="url(#clip300)" d="M54.5583 242.795 L54.5583 236.939 L90.2063 236.939 L90.2063 242.795 L54.5583 242.795 M40.6811 242.795 L40.6811 236.939 L48.0971 236.939 L48.0971 242.795 L40.6811 242.795 Z" fill="#000000" fill-rule="nonzero" fill-opacity="1" /><path clip-path="url(#clip300)" d="M72.2868 208.484 Q72.2868 215.582 73.9101 218.319 Q75.5333 221.056 79.4482 221.056 Q82.5674 221.056 84.4135 219.019 Q86.2277 216.95 86.2277 213.417 Q86.2277 208.548 82.7902 205.619 Q79.3209 202.659 73.5918 202.659 L72.2868 202.659 L72.2868 208.484 M69.8679 196.803 L90.2063 196.803 L90.2063 202.659 L84.7954 202.659 Q88.0419 204.665 89.6015 207.657 Q91.1293 210.648 91.1293 214.977 Q91.1293 220.452 88.0738 223.698 Q84.9864 226.913 79.8302 226.913 Q73.8146 226.913 70.759 222.902 Q67.7035 218.86 67.7035 210.871 L67.7035 202.659 L67.1306 202.659 Q63.0884 202.659 60.8922 205.333 Q58.6642 207.975 58.6642 212.781 Q58.6642 215.836 59.3963 218.733 Q60.1283 221.629 61.5924 224.303 L56.1816 224.303 Q54.9403 221.088 54.3355 218.064 Q53.699 215.041 53.699 212.176 Q53.699 204.442 57.7094 200.622 Q61.7197 196.803 69.8679 196.803 Z" fill="#000000" fill-rule="nonzero" fill-opacity="1" /><path clip-path="url(#clip300)" d="M40.7447 185.663 L40.7447 180.57 Q48.2563 175.796 55.4495 173.441 Q62.6428 171.054 69.7405 171.054 Q76.8701 171.054 84.0952 173.441 Q91.3203 175.796 98.8 180.57 L98.8 185.663 Q91.5113 181.43 84.318 179.361 Q77.0929 177.26 69.7405 177.26 Q62.3881 177.26 55.2267 179.361 Q48.0653 181.43 40.7447 185.663 Z" fill="#000000" fill-rule="nonzero" fill-opacity="1" /><path clip-path="url(#clip302)" d="M288.747 194.878 L288.747 1042.58 L311.29 1042.58 L311.29 194.878 L288.747 194.878 L288.747 194.878  Z" fill="#009af9" fill-rule="evenodd" fill-opacity="0.5"/>
<polyline clip-path="url(#clip302)" style="stroke:#000000; stroke-linecap:round; stroke-linejoin:round; stroke-width:4; stroke-opacity:0.5; fill:none" points="288.747,194.878 288.747,1042.58 311.29,1042.58 311.29,194.878 288.747,194.878 "/>
<path clip-path="url(#clip302)" d="M316.926 352.083 L316.926 1042.58 L339.469 1042.58 L339.469 352.083 L316.926 352.083 L316.926 352.083  Z" fill="#009af9" fill-rule="evenodd" fill-opacity="0.5"/>
<polyline clip-path="url(#clip302)" style="stroke:#000000; stroke-linecap:round; stroke-linejoin:round; stroke-width:4; stroke-opacity:0.5; fill:none" points="316.926,352.083 316.926,1042.58 339.469,1042.58 339.469,352.083 316.926,352.083 "/>
<path clip-path="url(#clip302)" d="M345.105 321.798 L345.105 1042.58 L367.649 1042.58 L367.649 321.798 L345.105 321.798 L345.105 321.798  Z" fill="#009af9" fill-rule="evenodd" fill-opacity="0.5"/>
<polyline clip-path="url(#clip302)" style="stroke:#000000; stroke-linecap:round; stroke-linejoin:round; stroke-width:4; stroke-opacity:0.5; fill:none" points="345.105,321.798 345.105,1042.58 367.649,1042.58 367.649,321.798 345.105,321.798 "/>
<path clip-path="url(#clip302)" d="M373.285 189.542 L373.285 1042.58 L395.828 1042.58 L395.828 189.542 L373.285 189.542 L373.285 189.542  Z" fill="#009af9" fill-rule="evenodd" fill-opacity="0.5"/>
<polyline clip-path="url(#clip302)" style="stroke:#000000; stroke-linecap:round; stroke-linejoin:round; stroke-width:4; stroke-opacity:0.5; fill:none" points="373.285,189.542 373.285,1042.58 395.828,1042.58 395.828,189.542 373.285,189.542 "/>
<path clip-path="url(#clip302)" d="M401.464 249.574 L401.464 1042.58 L424.007 1042.58 L424.007 249.574 L401.464 249.574 L401.464 249.574  Z" fill="#009af9" fill-rule="evenodd" fill-opacity="0.5"/>
<polyline clip-path="url(#clip302)" style="stroke:#000000; stroke-linecap:round; stroke-linejoin:round; stroke-width:4; stroke-opacity:0.5; fill:none" points="401.464,249.574 401.464,1042.58 424.007,1042.58 424.007,249.574 401.464,249.574 "/>
<path clip-path="url(#clip302)" d="M429.643 223.625 L429.643 1042.58 L452.186 1042.58 L452.186 223.625 L429.643 223.625 L429.643 223.625  Z" fill="#009af9" fill-rule="evenodd" fill-opacity="0.5"/>
<polyline clip-path="url(#clip302)" style="stroke:#000000; stroke-linecap:round; stroke-linejoin:round; stroke-width:4; stroke-opacity:0.5; fill:none" points="429.643,223.625 429.643,1042.58 452.186,1042.58 452.186,223.625 429.643,223.625 "/>
<path clip-path="url(#clip302)" d="M457.822 286.837 L457.822 1042.58 L480.366 1042.58 L480.366 286.837 L457.822 286.837 L457.822 286.837  Z" fill="#009af9" fill-rule="evenodd" fill-opacity="0.5"/>
<polyline clip-path="url(#clip302)" style="stroke:#000000; stroke-linecap:round; stroke-linejoin:round; stroke-width:4; stroke-opacity:0.5; fill:none" points="457.822,286.837 457.822,1042.58 480.366,1042.58 480.366,286.837 457.822,286.837 "/>
<path clip-path="url(#clip302)" d="M486.001 263.753 L486.001 1042.58 L508.545 1042.58 L508.545 263.753 L486.001 263.753 L486.001 263.753  Z" fill="#009af9" fill-rule="evenodd" fill-opacity="0.5"/>
<polyline clip-path="url(#clip302)" style="stroke:#000000; stroke-linecap:round; stroke-linejoin:round; stroke-width:4; stroke-opacity:0.5; fill:none" points="486.001,263.753 486.001,1042.58 508.545,1042.58 508.545,263.753 486.001,263.753 "/>
<path clip-path="url(#clip302)" d="M514.181 229.839 L514.181 1042.58 L536.724 1042.58 L536.724 229.839 L514.181 229.839 L514.181 229.839  Z" fill="#009af9" fill-rule="evenodd" fill-opacity="0.5"/>
<polyline clip-path="url(#clip302)" style="stroke:#000000; stroke-linecap:round; stroke-linejoin:round; stroke-width:4; stroke-opacity:0.5; fill:none" points="514.181,229.839 514.181,1042.58 536.724,1042.58 536.724,229.839 514.181,229.839 "/>
<path clip-path="url(#clip302)" d="M542.36 249.574 L542.36 1042.58 L564.903 1042.58 L564.903 249.574 L542.36 249.574 L542.36 249.574  Z" fill="#009af9" fill-rule="evenodd" fill-opacity="0.5"/>
<polyline clip-path="url(#clip302)" style="stroke:#000000; stroke-linecap:round; stroke-linejoin:round; stroke-width:4; stroke-opacity:0.5; fill:none" points="542.36,249.574 542.36,1042.58 564.903,1042.58 564.903,249.574 542.36,249.574 "/>
<path clip-path="url(#clip302)" d="M570.539 271.19 L570.539 1042.58 L593.083 1042.58 L593.083 271.19 L570.539 271.19 L570.539 271.19  Z" fill="#009af9" fill-rule="evenodd" fill-opacity="0.5"/>
<polyline clip-path="url(#clip302)" style="stroke:#000000; stroke-linecap:round; stroke-linejoin:round; stroke-width:4; stroke-opacity:0.5; fill:none" points="570.539,271.19 570.539,1042.58 593.083,1042.58 593.083,271.19 570.539,271.19 "/>
<path clip-path="url(#clip302)" d="M598.718 179.231 L598.718 1042.58 L621.262 1042.58 L621.262 179.231 L598.718 179.231 L598.718 179.231  Z" fill="#009af9" fill-rule="evenodd" fill-opacity="0.5"/>
<polyline clip-path="url(#clip302)" style="stroke:#000000; stroke-linecap:round; stroke-linejoin:round; stroke-width:4; stroke-opacity:0.5; fill:none" points="598.718,179.231 598.718,1042.58 621.262,1042.58 621.262,179.231 598.718,179.231 "/>
<path clip-path="url(#clip302)" d="M626.898 133.719 L626.898 1042.58 L649.441 1042.58 L649.441 133.719 L626.898 133.719 L626.898 133.719  Z" fill="#009af9" fill-rule="evenodd" fill-opacity="0.5"/>
<polyline clip-path="url(#clip302)" style="stroke:#000000; stroke-linecap:round; stroke-linejoin:round; stroke-width:4; stroke-opacity:0.5; fill:none" points="626.898,133.719 626.898,1042.58 649.441,1042.58 649.441,133.719 626.898,133.719 "/>
<path clip-path="url(#clip302)" d="M655.077 200.344 L655.077 1042.58 L677.62 1042.58 L677.62 200.344 L655.077 200.344 L655.077 200.344  Z" fill="#009af9" fill-rule="evenodd" fill-opacity="0.5"/>
<polyline clip-path="url(#clip302)" style="stroke:#000000; stroke-linecap:round; stroke-linejoin:round; stroke-width:4; stroke-opacity:0.5; fill:none" points="655.077,200.344 655.077,1042.58 677.62,1042.58 677.62,200.344 655.077,200.344 "/>
<path clip-path="url(#clip302)" d="M683.256 242.803 L683.256 1042.58 L705.8 1042.58 L705.8 242.803 L683.256 242.803 L683.256 242.803  Z" fill="#009af9" fill-rule="evenodd" fill-opacity="0.5"/>
<polyline clip-path="url(#clip302)" style="stroke:#000000; stroke-linecap:round; stroke-linejoin:round; stroke-width:4; stroke-opacity:0.5; fill:none" points="683.256,242.803 683.256,1042.58 705.8,1042.58 705.8,242.803 683.256,242.803 "/>
<path clip-path="url(#clip302)" d="M711.435 146.44 L711.435 1042.58 L733.979 1042.58 L733.979 146.44 L711.435 146.44 L711.435 146.44  Z" fill="#009af9" fill-rule="evenodd" fill-opacity="0.5"/>
<polyline clip-path="url(#clip302)" style="stroke:#000000; stroke-linecap:round; stroke-linejoin:round; stroke-width:4; stroke-opacity:0.5; fill:none" points="711.435,146.44 711.435,1042.58 733.979,1042.58 733.979,146.44 711.435,146.44 "/>
<path clip-path="url(#clip302)" d="M739.615 278.879 L739.615 1042.58 L762.158 1042.58 L762.158 278.879 L739.615 278.879 L739.615 278.879  Z" fill="#009af9" fill-rule="evenodd" fill-opacity="0.5"/>
<polyline clip-path="url(#clip302)" style="stroke:#000000; stroke-linecap:round; stroke-linejoin:round; stroke-width:4; stroke-opacity:0.5; fill:none" points="739.615,278.879 739.615,1042.58 762.158,1042.58 762.158,278.879 739.615,278.879 "/>
<path clip-path="url(#clip302)" d="M767.794 110.236 L767.794 1042.58 L790.337 1042.58 L790.337 110.236 L767.794 110.236 L767.794 110.236  Z" fill="#009af9" fill-rule="evenodd" fill-opacity="0.5"/>
<polyline clip-path="url(#clip302)" style="stroke:#000000; stroke-linecap:round; stroke-linejoin:round; stroke-width:4; stroke-opacity:0.5; fill:none" points="767.794,110.236 767.794,1042.58 790.337,1042.58 790.337,110.236 767.794,110.236 "/>
<path clip-path="url(#clip302)" d="M795.973 155.335 L795.973 1042.58 L818.517 1042.58 L818.517 155.335 L795.973 155.335 L795.973 155.335  Z" fill="#009af9" fill-rule="evenodd" fill-opacity="0.5"/>
<polyline clip-path="url(#clip302)" style="stroke:#000000; stroke-linecap:round; stroke-linejoin:round; stroke-width:4; stroke-opacity:0.5; fill:none" points="795.973,155.335 795.973,1042.58 818.517,1042.58 818.517,155.335 795.973,155.335 "/>
<path clip-path="url(#clip302)" d="M824.152 155.335 L824.152 1042.58 L846.696 1042.58 L846.696 155.335 L824.152 155.335 L824.152 155.335  Z" fill="#009af9" fill-rule="evenodd" fill-opacity="0.5"/>
<polyline clip-path="url(#clip302)" style="stroke:#000000; stroke-linecap:round; stroke-linejoin:round; stroke-width:4; stroke-opacity:0.5; fill:none" points="824.152,155.335 824.152,1042.58 846.696,1042.58 846.696,155.335 824.152,155.335 "/>
<path clip-path="url(#clip302)" d="M852.332 159.917 L852.332 1042.58 L874.875 1042.58 L874.875 159.917 L852.332 159.917 L852.332 159.917  Z" fill="#009af9" fill-rule="evenodd" fill-opacity="0.5"/>
<polyline clip-path="url(#clip302)" style="stroke:#000000; stroke-linecap:round; stroke-linejoin:round; stroke-width:4; stroke-opacity:0.5; fill:none" points="852.332,159.917 852.332,1042.58 874.875,1042.58 874.875,159.917 852.332,159.917 "/>
<path clip-path="url(#clip302)" d="M880.511 155.335 L880.511 1042.58 L903.054 1042.58 L903.054 155.335 L880.511 155.335 L880.511 155.335  Z" fill="#009af9" fill-rule="evenodd" fill-opacity="0.5"/>
<polyline clip-path="url(#clip302)" style="stroke:#000000; stroke-linecap:round; stroke-linejoin:round; stroke-width:4; stroke-opacity:0.5; fill:none" points="880.511,155.335 880.511,1042.58 903.054,1042.58 903.054,155.335 880.511,155.335 "/>
<path clip-path="url(#clip302)" d="M908.69 125.618 L908.69 1042.58 L931.234 1042.58 L931.234 125.618 L908.69 125.618 L908.69 125.618  Z" fill="#009af9" fill-rule="evenodd" fill-opacity="0.5"/>
<polyline clip-path="url(#clip302)" style="stroke:#000000; stroke-linecap:round; stroke-linejoin:round; stroke-width:4; stroke-opacity:0.5; fill:none" points="908.69,125.618 908.69,1042.58 931.234,1042.58 931.234,125.618 908.69,125.618 "/>
<path clip-path="url(#clip302)" d="M936.869 121.674 L936.869 1042.58 L959.413 1042.58 L959.413 121.674 L936.869 121.674 L936.869 121.674  Z" fill="#009af9" fill-rule="evenodd" fill-opacity="0.5"/>
<polyline clip-path="url(#clip302)" style="stroke:#000000; stroke-linecap:round; stroke-linejoin:round; stroke-width:4; stroke-opacity:0.5; fill:none" points="936.869,121.674 936.869,1042.58 959.413,1042.58 959.413,121.674 936.869,121.674 "/>
<path clip-path="url(#clip302)" d="M965.049 189.542 L965.049 1042.58 L987.592 1042.58 L987.592 189.542 L965.049 189.542 L965.049 189.542  Z" fill="#009af9" fill-rule="evenodd" fill-opacity="0.5"/>
<polyline clip-path="url(#clip302)" style="stroke:#000000; stroke-linecap:round; stroke-linejoin:round; stroke-width:4; stroke-opacity:0.5; fill:none" points="965.049,189.542 965.049,1042.58 987.592,1042.58 987.592,189.542 965.049,189.542 "/>
<path clip-path="url(#clip302)" d="M993.228 256.552 L993.228 1042.58 L1015.77 1042.58 L1015.77 256.552 L993.228 256.552 L993.228 256.552  Z" fill="#009af9" fill-rule="evenodd" fill-opacity="0.5"/>
<polyline clip-path="url(#clip302)" style="stroke:#000000; stroke-linecap:round; stroke-linejoin:round; stroke-width:4; stroke-opacity:0.5; fill:none" points="993.228,256.552 993.228,1042.58 1015.77,1042.58 1015.77,256.552 993.228,256.552 "/>
<path clip-path="url(#clip302)" d="M1021.41 242.803 L1021.41 1042.58 L1043.95 1042.58 L1043.95 242.803 L1021.41 242.803 L1021.41 242.803  Z" fill="#009af9" fill-rule="evenodd" fill-opacity="0.5"/>
<polyline clip-path="url(#clip302)" style="stroke:#000000; stroke-linecap:round; stroke-linejoin:round; stroke-width:4; stroke-opacity:0.5; fill:none" points="1021.41,242.803 1021.41,1042.58 1043.95,1042.58 1043.95,242.803 1021.41,242.803 "/>
<path clip-path="url(#clip302)" d="M1049.59 236.229 L1049.59 1042.58 L1072.13 1042.58 L1072.13 236.229 L1049.59 236.229 L1049.59 236.229  Z" fill="#009af9" fill-rule="evenodd" fill-opacity="0.5"/>
<polyline clip-path="url(#clip302)" style="stroke:#000000; stroke-linecap:round; stroke-linejoin:round; stroke-width:4; stroke-opacity:0.5; fill:none" points="1049.59,236.229 1049.59,1042.58 1072.13,1042.58 1072.13,236.229 1049.59,236.229 "/>
<path clip-path="url(#clip302)" d="M1077.77 321.798 L1077.77 1042.58 L1100.31 1042.58 L1100.31 321.798 L1077.77 321.798 L1077.77 321.798  Z" fill="#009af9" fill-rule="evenodd" fill-opacity="0.5"/>
<polyline clip-path="url(#clip302)" style="stroke:#000000; stroke-linecap:round; stroke-linejoin:round; stroke-width:4; stroke-opacity:0.5; fill:none" points="1077.77,321.798 1077.77,1042.58 1100.31,1042.58 1100.31,321.798 1077.77,321.798 "/>
<path clip-path="url(#clip302)" d="M1105.94 133.719 L1105.94 1042.58 L1128.49 1042.58 L1128.49 133.719 L1105.94 133.719 L1105.94 133.719  Z" fill="#009af9" fill-rule="evenodd" fill-opacity="0.5"/>
<polyline clip-path="url(#clip302)" style="stroke:#000000; stroke-linecap:round; stroke-linejoin:round; stroke-width:4; stroke-opacity:0.5; fill:none" points="1105.94,133.719 1105.94,1042.58 1128.49,1042.58 1128.49,133.719 1105.94,133.719 "/>
<path clip-path="url(#clip302)" d="M1134.12 211.686 L1134.12 1042.58 L1156.67 1042.58 L1156.67 211.686 L1134.12 211.686 L1134.12 211.686  Z" fill="#009af9" fill-rule="evenodd" fill-opacity="0.5"/>
<polyline clip-path="url(#clip302)" style="stroke:#000000; stroke-linecap:round; stroke-linejoin:round; stroke-width:4; stroke-opacity:0.5; fill:none" points="1134.12,211.686 1134.12,1042.58 1156.67,1042.58 1156.67,211.686 1134.12,211.686 "/>
<path clip-path="url(#clip302)" d="M1162.3 217.577 L1162.3 1042.58 L1184.85 1042.58 L1184.85 217.577 L1162.3 217.577 L1162.3 217.577  Z" fill="#009af9" fill-rule="evenodd" fill-opacity="0.5"/>
<polyline clip-path="url(#clip302)" style="stroke:#000000; stroke-linecap:round; stroke-linejoin:round; stroke-width:4; stroke-opacity:0.5; fill:none" points="1162.3,217.577 1162.3,1042.58 1184.85,1042.58 1184.85,217.577 1162.3,217.577 "/>
<path clip-path="url(#clip302)" d="M1190.48 242.803 L1190.48 1042.58 L1213.03 1042.58 L1213.03 242.803 L1190.48 242.803 L1190.48 242.803  Z" fill="#009af9" fill-rule="evenodd" fill-opacity="0.5"/>
<polyline clip-path="url(#clip302)" style="stroke:#000000; stroke-linecap:round; stroke-linejoin:round; stroke-width:4; stroke-opacity:0.5; fill:none" points="1190.48,242.803 1190.48,1042.58 1213.03,1042.58 1213.03,242.803 1190.48,242.803 "/>
<path clip-path="url(#clip302)" d="M1218.66 286.837 L1218.66 1042.58 L1241.21 1042.58 L1241.21 286.837 L1218.66 286.837 L1218.66 286.837  Z" fill="#009af9" fill-rule="evenodd" fill-opacity="0.5"/>
<polyline clip-path="url(#clip302)" style="stroke:#000000; stroke-linecap:round; stroke-linejoin:round; stroke-width:4; stroke-opacity:0.5; fill:none" points="1218.66,286.837 1218.66,1042.58 1241.21,1042.58 1241.21,286.837 1218.66,286.837 "/>
<path clip-path="url(#clip302)" d="M1246.84 278.879 L1246.84 1042.58 L1269.38 1042.58 L1269.38 278.879 L1246.84 278.879 L1246.84 278.879  Z" fill="#009af9" fill-rule="evenodd" fill-opacity="0.5"/>
<polyline clip-path="url(#clip302)" style="stroke:#000000; stroke-linecap:round; stroke-linejoin:round; stroke-width:4; stroke-opacity:0.5; fill:none" points="1246.84,278.879 1246.84,1042.58 1269.38,1042.58 1269.38,278.879 1246.84,278.879 "/>
<path clip-path="url(#clip302)" d="M1275.02 295.085 L1275.02 1042.58 L1297.56 1042.58 L1297.56 295.085 L1275.02 295.085 L1275.02 295.085  Z" fill="#009af9" fill-rule="evenodd" fill-opacity="0.5"/>
<polyline clip-path="url(#clip302)" style="stroke:#000000; stroke-linecap:round; stroke-linejoin:round; stroke-width:4; stroke-opacity:0.5; fill:none" points="1275.02,295.085 1275.02,1042.58 1297.56,1042.58 1297.56,295.085 1275.02,295.085 "/>
<path clip-path="url(#clip302)" d="M1303.2 413.757 L1303.2 1042.58 L1325.74 1042.58 L1325.74 413.757 L1303.2 413.757 L1303.2 413.757  Z" fill="#009af9" fill-rule="evenodd" fill-opacity="0.5"/>
<polyline clip-path="url(#clip302)" style="stroke:#000000; stroke-linecap:round; stroke-linejoin:round; stroke-width:4; stroke-opacity:0.5; fill:none" points="1303.2,413.757 1303.2,1042.58 1325.74,1042.58 1325.74,413.757 1303.2,413.757 "/>
<path clip-path="url(#clip302)" d="M1331.38 211.686 L1331.38 1042.58 L1353.92 1042.58 L1353.92 211.686 L1331.38 211.686 L1331.38 211.686  Z" fill="#009af9" fill-rule="evenodd" fill-opacity="0.5"/>
<polyline clip-path="url(#clip302)" style="stroke:#000000; stroke-linecap:round; stroke-linejoin:round; stroke-width:4; stroke-opacity:0.5; fill:none" points="1331.38,211.686 1331.38,1042.58 1353.92,1042.58 1353.92,211.686 1331.38,211.686 "/>
<path clip-path="url(#clip302)" d="M1359.56 331.451 L1359.56 1042.58 L1382.1 1042.58 L1382.1 331.451 L1359.56 331.451 L1359.56 331.451  Z" fill="#009af9" fill-rule="evenodd" fill-opacity="0.5"/>
<polyline clip-path="url(#clip302)" style="stroke:#000000; stroke-linecap:round; stroke-linejoin:round; stroke-width:4; stroke-opacity:0.5; fill:none" points="1359.56,331.451 1359.56,1042.58 1382.1,1042.58 1382.1,331.451 1359.56,331.451 "/>
<path clip-path="url(#clip302)" d="M1387.74 374.782 L1387.74 1042.58 L1410.28 1042.58 L1410.28 374.782 L1387.74 374.782 L1387.74 374.782  Z" fill="#009af9" fill-rule="evenodd" fill-opacity="0.5"/>
<polyline clip-path="url(#clip302)" style="stroke:#000000; stroke-linecap:round; stroke-linejoin:round; stroke-width:4; stroke-opacity:0.5; fill:none" points="1387.74,374.782 1387.74,1042.58 1410.28,1042.58 1410.28,374.782 1387.74,374.782 "/>
<path clip-path="url(#clip302)" d="M1415.92 321.798 L1415.92 1042.58 L1438.46 1042.58 L1438.46 321.798 L1415.92 321.798 L1415.92 321.798  Z" fill="#009af9" fill-rule="evenodd" fill-opacity="0.5"/>
<polyline clip-path="url(#clip302)" style="stroke:#000000; stroke-linecap:round; stroke-linejoin:round; stroke-width:4; stroke-opacity:0.5; fill:none" points="1415.92,321.798 1415.92,1042.58 1438.46,1042.58 1438.46,321.798 1415.92,321.798 "/>
<path clip-path="url(#clip302)" d="M1444.1 236.229 L1444.1 1042.58 L1466.64 1042.58 L1466.64 236.229 L1444.1 236.229 L1444.1 236.229  Z" fill="#009af9" fill-rule="evenodd" fill-opacity="0.5"/>
<polyline clip-path="url(#clip302)" style="stroke:#000000; stroke-linecap:round; stroke-linejoin:round; stroke-width:4; stroke-opacity:0.5; fill:none" points="1444.1,236.229 1444.1,1042.58 1466.64,1042.58 1466.64,236.229 1444.1,236.229 "/>
<path clip-path="url(#clip302)" d="M1472.28 217.577 L1472.28 1042.58 L1494.82 1042.58 L1494.82 217.577 L1472.28 217.577 L1472.28 217.577  Z" fill="#009af9" fill-rule="evenodd" fill-opacity="0.5"/>
<polyline clip-path="url(#clip302)" style="stroke:#000000; stroke-linecap:round; stroke-linejoin:round; stroke-width:4; stroke-opacity:0.5; fill:none" points="1472.28,217.577 1472.28,1042.58 1494.82,1042.58 1494.82,217.577 1472.28,217.577 "/>
<path clip-path="url(#clip302)" d="M1500.45 189.542 L1500.45 1042.58 L1523 1042.58 L1523 189.542 L1500.45 189.542 L1500.45 189.542  Z" fill="#009af9" fill-rule="evenodd" fill-opacity="0.5"/>
<polyline clip-path="url(#clip302)" style="stroke:#000000; stroke-linecap:round; stroke-linejoin:round; stroke-width:4; stroke-opacity:0.5; fill:none" points="1500.45,189.542 1500.45,1042.58 1523,1042.58 1523,189.542 1500.45,189.542 "/>
<path clip-path="url(#clip302)" d="M1528.63 125.618 L1528.63 1042.58 L1551.18 1042.58 L1551.18 125.618 L1528.63 125.618 L1528.63 125.618  Z" fill="#009af9" fill-rule="evenodd" fill-opacity="0.5"/>
<polyline clip-path="url(#clip302)" style="stroke:#000000; stroke-linecap:round; stroke-linejoin:round; stroke-width:4; stroke-opacity:0.5; fill:none" points="1528.63,125.618 1528.63,1042.58 1551.18,1042.58 1551.18,125.618 1528.63,125.618 "/>
<path clip-path="url(#clip302)" d="M1556.81 200.344 L1556.81 1042.58 L1579.36 1042.58 L1579.36 200.344 L1556.81 200.344 L1556.81 200.344  Z" fill="#009af9" fill-rule="evenodd" fill-opacity="0.5"/>
<polyline clip-path="url(#clip302)" style="stroke:#000000; stroke-linecap:round; stroke-linejoin:round; stroke-width:4; stroke-opacity:0.5; fill:none" points="1556.81,200.344 1556.81,1042.58 1579.36,1042.58 1579.36,200.344 1556.81,200.344 "/>
<path clip-path="url(#clip302)" d="M1584.99 205.944 L1584.99 1042.58 L1607.54 1042.58 L1607.54 205.944 L1584.99 205.944 L1584.99 205.944  Z" fill="#009af9" fill-rule="evenodd" fill-opacity="0.5"/>
<polyline clip-path="url(#clip302)" style="stroke:#000000; stroke-linecap:round; stroke-linejoin:round; stroke-width:4; stroke-opacity:0.5; fill:none" points="1584.99,205.944 1584.99,1042.58 1607.54,1042.58 1607.54,205.944 1584.99,205.944 "/>
<path clip-path="url(#clip302)" d="M1613.17 312.54 L1613.17 1042.58 L1635.71 1042.58 L1635.71 312.54 L1613.17 312.54 L1613.17 312.54  Z" fill="#009af9" fill-rule="evenodd" fill-opacity="0.5"/>
<polyline clip-path="url(#clip302)" style="stroke:#000000; stroke-linecap:round; stroke-linejoin:round; stroke-width:4; stroke-opacity:0.5; fill:none" points="1613.17,312.54 1613.17,1042.58 1635.71,1042.58 1635.71,312.54 1613.17,312.54 "/>
<path clip-path="url(#clip302)" d="M1641.35 229.839 L1641.35 1042.58 L1663.89 1042.58 L1663.89 229.839 L1641.35 229.839 L1641.35 229.839  Z" fill="#009af9" fill-rule="evenodd" fill-opacity="0.5"/>
<polyline clip-path="url(#clip302)" style="stroke:#000000; stroke-linecap:round; stroke-linejoin:round; stroke-width:4; stroke-opacity:0.5; fill:none" points="1641.35,229.839 1641.35,1042.58 1663.89,1042.58 1663.89,229.839 1641.35,229.839 "/>
<path clip-path="url(#clip302)" d="M1669.53 205.944 L1669.53 1042.58 L1692.07 1042.58 L1692.07 205.944 L1669.53 205.944 L1669.53 205.944  Z" fill="#009af9" fill-rule="evenodd" fill-opacity="0.5"/>
<polyline clip-path="url(#clip302)" style="stroke:#000000; stroke-linecap:round; stroke-linejoin:round; stroke-width:4; stroke-opacity:0.5; fill:none" points="1669.53,205.944 1669.53,1042.58 1692.07,1042.58 1692.07,205.944 1669.53,205.944 "/>
<path clip-path="url(#clip302)" d="M1697.71 169.369 L1697.71 1042.58 L1720.25 1042.58 L1720.25 169.369 L1697.71 169.369 L1697.71 169.369  Z" fill="#009af9" fill-rule="evenodd" fill-opacity="0.5"/>
<polyline clip-path="url(#clip302)" style="stroke:#000000; stroke-linecap:round; stroke-linejoin:round; stroke-width:4; stroke-opacity:0.5; fill:none" points="1697.71,169.369 1697.71,1042.58 1720.25,1042.58 1720.25,169.369 1697.71,169.369 "/>
<path clip-path="url(#clip302)" d="M1725.89 217.577 L1725.89 1042.58 L1748.43 1042.58 L1748.43 217.577 L1725.89 217.577 L1725.89 217.577  Z" fill="#009af9" fill-rule="evenodd" fill-opacity="0.5"/>
<polyline clip-path="url(#clip302)" style="stroke:#000000; stroke-linecap:round; stroke-linejoin:round; stroke-width:4; stroke-opacity:0.5; fill:none" points="1725.89,217.577 1725.89,1042.58 1748.43,1042.58 1748.43,217.577 1725.89,217.577 "/>
<path clip-path="url(#clip302)" d="M1754.07 125.618 L1754.07 1042.58 L1776.61 1042.58 L1776.61 125.618 L1754.07 125.618 L1754.07 125.618  Z" fill="#009af9" fill-rule="evenodd" fill-opacity="0.5"/>
<polyline clip-path="url(#clip302)" style="stroke:#000000; stroke-linecap:round; stroke-linejoin:round; stroke-width:4; stroke-opacity:0.5; fill:none" points="1754.07,125.618 1754.07,1042.58 1776.61,1042.58 1776.61,125.618 1754.07,125.618 "/>
<path clip-path="url(#clip302)" d="M1782.25 113.985 L1782.25 1042.58 L1804.79 1042.58 L1804.79 113.985 L1782.25 113.985 L1782.25 113.985  Z" fill="#009af9" fill-rule="evenodd" fill-opacity="0.5"/>
<polyline clip-path="url(#clip302)" style="stroke:#000000; stroke-linecap:round; stroke-linejoin:round; stroke-width:4; stroke-opacity:0.5; fill:none" points="1782.25,113.985 1782.25,1042.58 1804.79,1042.58 1804.79,113.985 1782.25,113.985 "/>
<path clip-path="url(#clip302)" d="M1810.43 205.944 L1810.43 1042.58 L1832.97 1042.58 L1832.97 205.944 L1810.43 205.944 L1810.43 205.944  Z" fill="#009af9" fill-rule="evenodd" fill-opacity="0.5"/>
<polyline clip-path="url(#clip302)" style="stroke:#000000; stroke-linecap:round; stroke-linejoin:round; stroke-width:4; stroke-opacity:0.5; fill:none" points="1810.43,205.944 1810.43,1042.58 1832.97,1042.58 1832.97,205.944 1810.43,205.944 "/>
<path clip-path="url(#clip302)" d="M1838.61 312.54 L1838.61 1042.58 L1861.15 1042.58 L1861.15 312.54 L1838.61 312.54 L1838.61 312.54  Z" fill="#009af9" fill-rule="evenodd" fill-opacity="0.5"/>
<polyline clip-path="url(#clip302)" style="stroke:#000000; stroke-linecap:round; stroke-linejoin:round; stroke-width:4; stroke-opacity:0.5; fill:none" points="1838.61,312.54 1838.61,1042.58 1861.15,1042.58 1861.15,312.54 1838.61,312.54 "/>
<path clip-path="url(#clip302)" d="M1866.78 249.574 L1866.78 1042.58 L1889.33 1042.58 L1889.33 249.574 L1866.78 249.574 L1866.78 249.574  Z" fill="#009af9" fill-rule="evenodd" fill-opacity="0.5"/>
<polyline clip-path="url(#clip302)" style="stroke:#000000; stroke-linecap:round; stroke-linejoin:round; stroke-width:4; stroke-opacity:0.5; fill:none" points="1866.78,249.574 1866.78,1042.58 1889.33,1042.58 1889.33,249.574 1866.78,249.574 "/>
<path clip-path="url(#clip302)" d="M1894.96 150.844 L1894.96 1042.58 L1917.51 1042.58 L1917.51 150.844 L1894.96 150.844 L1894.96 150.844  Z" fill="#009af9" fill-rule="evenodd" fill-opacity="0.5"/>
<polyline clip-path="url(#clip302)" style="stroke:#000000; stroke-linecap:round; stroke-linejoin:round; stroke-width:4; stroke-opacity:0.5; fill:none" points="1894.96,150.844 1894.96,1042.58 1917.51,1042.58 1917.51,150.844 1894.96,150.844 "/>
<path clip-path="url(#clip302)" d="M1923.14 137.881 L1923.14 1042.58 L1945.69 1042.58 L1945.69 137.881 L1923.14 137.881 L1923.14 137.881  Z" fill="#009af9" fill-rule="evenodd" fill-opacity="0.5"/>
<polyline clip-path="url(#clip302)" style="stroke:#000000; stroke-linecap:round; stroke-linejoin:round; stroke-width:4; stroke-opacity:0.5; fill:none" points="1923.14,137.881 1923.14,1042.58 1945.69,1042.58 1945.69,137.881 1923.14,137.881 "/>
<path clip-path="url(#clip302)" d="M1951.32 211.686 L1951.32 1042.58 L1973.87 1042.58 L1973.87 211.686 L1951.32 211.686 L1951.32 211.686  Z" fill="#009af9" fill-rule="evenodd" fill-opacity="0.5"/>
<polyline clip-path="url(#clip302)" style="stroke:#000000; stroke-linecap:round; stroke-linejoin:round; stroke-width:4; stroke-opacity:0.5; fill:none" points="1951.32,211.686 1951.32,1042.58 1973.87,1042.58 1973.87,211.686 1951.32,211.686 "/>
<path clip-path="url(#clip302)" d="M1979.5 242.803 L1979.5 1042.58 L2002.04 1042.58 L2002.04 242.803 L1979.5 242.803 L1979.5 242.803  Z" fill="#009af9" fill-rule="evenodd" fill-opacity="0.5"/>
<polyline clip-path="url(#clip302)" style="stroke:#000000; stroke-linecap:round; stroke-linejoin:round; stroke-width:4; stroke-opacity:0.5; fill:none" points="1979.5,242.803 1979.5,1042.58 2002.04,1042.58 2002.04,242.803 1979.5,242.803 "/>
<path clip-path="url(#clip302)" d="M2007.68 312.54 L2007.68 1042.58 L2030.22 1042.58 L2030.22 312.54 L2007.68 312.54 L2007.68 312.54  Z" fill="#009af9" fill-rule="evenodd" fill-opacity="0.5"/>
<polyline clip-path="url(#clip302)" style="stroke:#000000; stroke-linecap:round; stroke-linejoin:round; stroke-width:4; stroke-opacity:0.5; fill:none" points="2007.68,312.54 2007.68,1042.58 2030.22,1042.58 2030.22,312.54 2007.68,312.54 "/>
<path clip-path="url(#clip302)" d="M2035.86 321.798 L2035.86 1042.58 L2058.4 1042.58 L2058.4 321.798 L2035.86 321.798 L2035.86 321.798  Z" fill="#009af9" fill-rule="evenodd" fill-opacity="0.5"/>
<polyline clip-path="url(#clip302)" style="stroke:#000000; stroke-linecap:round; stroke-linejoin:round; stroke-width:4; stroke-opacity:0.5; fill:none" points="2035.86,321.798 2035.86,1042.58 2058.4,1042.58 2058.4,321.798 2035.86,321.798 "/>
<path clip-path="url(#clip302)" d="M2064.04 256.552 L2064.04 1042.58 L2086.58 1042.58 L2086.58 256.552 L2064.04 256.552 L2064.04 256.552  Z" fill="#009af9" fill-rule="evenodd" fill-opacity="0.5"/>
<polyline clip-path="url(#clip302)" style="stroke:#000000; stroke-linecap:round; stroke-linejoin:round; stroke-width:4; stroke-opacity:0.5; fill:none" points="2064.04,256.552 2064.04,1042.58 2086.58,1042.58 2086.58,256.552 2064.04,256.552 "/>
<path clip-path="url(#clip302)" d="M2092.22 249.574 L2092.22 1042.58 L2114.76 1042.58 L2114.76 249.574 L2092.22 249.574 L2092.22 249.574  Z" fill="#009af9" fill-rule="evenodd" fill-opacity="0.5"/>
<polyline clip-path="url(#clip302)" style="stroke:#000000; stroke-linecap:round; stroke-linejoin:round; stroke-width:4; stroke-opacity:0.5; fill:none" points="2092.22,249.574 2092.22,1042.58 2114.76,1042.58 2114.76,249.574 2092.22,249.574 "/>
<path clip-path="url(#clip302)" d="M2120.4 211.686 L2120.4 1042.58 L2142.94 1042.58 L2142.94 211.686 L2120.4 211.686 L2120.4 211.686  Z" fill="#009af9" fill-rule="evenodd" fill-opacity="0.5"/>
<polyline clip-path="url(#clip302)" style="stroke:#000000; stroke-linecap:round; stroke-linejoin:round; stroke-width:4; stroke-opacity:0.5; fill:none" points="2120.4,211.686 2120.4,1042.58 2142.94,1042.58 2142.94,211.686 2120.4,211.686 "/>
<path clip-path="url(#clip302)" d="M2148.58 174.246 L2148.58 1042.58 L2171.12 1042.58 L2171.12 174.246 L2148.58 174.246 L2148.58 174.246  Z" fill="#009af9" fill-rule="evenodd" fill-opacity="0.5"/>
<polyline clip-path="url(#clip302)" style="stroke:#000000; stroke-linecap:round; stroke-linejoin:round; stroke-width:4; stroke-opacity:0.5; fill:none" points="2148.58,174.246 2148.58,1042.58 2171.12,1042.58 2171.12,174.246 2148.58,174.246 "/>
<path clip-path="url(#clip302)" d="M2176.76 249.574 L2176.76 1042.58 L2199.3 1042.58 L2199.3 249.574 L2176.76 249.574 L2176.76 249.574  Z" fill="#009af9" fill-rule="evenodd" fill-opacity="0.5"/>
<polyline clip-path="url(#clip302)" style="stroke:#000000; stroke-linecap:round; stroke-linejoin:round; stroke-width:4; stroke-opacity:0.5; fill:none" points="2176.76,249.574 2176.76,1042.58 2199.3,1042.58 2199.3,249.574 2176.76,249.574 "/>
<path clip-path="url(#clip302)" d="M2204.94 223.625 L2204.94 1042.58 L2227.48 1042.58 L2227.48 223.625 L2204.94 223.625 L2204.94 223.625  Z" fill="#009af9" fill-rule="evenodd" fill-opacity="0.5"/>
<polyline clip-path="url(#clip302)" style="stroke:#000000; stroke-linecap:round; stroke-linejoin:round; stroke-width:4; stroke-opacity:0.5; fill:none" points="2204.94,223.625 2204.94,1042.58 2227.48,1042.58 2227.48,223.625 2204.94,223.625 "/>
<path clip-path="url(#clip302)" d="M2233.11 217.577 L2233.11 1042.58 L2255.66 1042.58 L2255.66 217.577 L2233.11 217.577 L2233.11 217.577  Z" fill="#009af9" fill-rule="evenodd" fill-opacity="0.5"/>
<polyline clip-path="url(#clip302)" style="stroke:#000000; stroke-linecap:round; stroke-linejoin:round; stroke-width:4; stroke-opacity:0.5; fill:none" points="2233.11,217.577 2233.11,1042.58 2255.66,1042.58 2255.66,217.577 2233.11,217.577 "/>
<path clip-path="url(#clip302)" d="M2261.29 263.753 L2261.29 1042.58 L2283.84 1042.58 L2283.84 263.753 L2261.29 263.753 L2261.29 263.753  Z" fill="#009af9" fill-rule="evenodd" fill-opacity="0.5"/>
<polyline clip-path="url(#clip302)" style="stroke:#000000; stroke-linecap:round; stroke-linejoin:round; stroke-width:4; stroke-opacity:0.5; fill:none" points="2261.29,263.753 2261.29,1042.58 2283.84,1042.58 2283.84,263.753 2261.29,263.753 "/>
<path clip-path="url(#clip302)" d="M2289.47 321.798 L2289.47 1042.58 L2312.02 1042.58 L2312.02 321.798 L2289.47 321.798 L2289.47 321.798  Z" fill="#009af9" fill-rule="evenodd" fill-opacity="0.5"/>
<polyline clip-path="url(#clip302)" style="stroke:#000000; stroke-linecap:round; stroke-linejoin:round; stroke-width:4; stroke-opacity:0.5; fill:none" points="2289.47,321.798 2289.47,1042.58 2312.02,1042.58 2312.02,321.798 2289.47,321.798 "/>
<path clip-path="url(#clip302)" d="M2317.65 174.246 L2317.65 1042.58 L2340.2 1042.58 L2340.2 174.246 L2317.65 174.246 L2317.65 174.246  Z" fill="#009af9" fill-rule="evenodd" fill-opacity="0.5"/>
<polyline clip-path="url(#clip302)" style="stroke:#000000; stroke-linecap:round; stroke-linejoin:round; stroke-width:4; stroke-opacity:0.5; fill:none" points="2317.65,174.246 2317.65,1042.58 2340.2,1042.58 2340.2,174.246 2317.65,174.246 "/>
<path clip-path="url(#clip302)" d="M2345.83 164.594 L2345.83 1042.58 L2368.38 1042.58 L2368.38 164.594 L2345.83 164.594 L2345.83 164.594  Z" fill="#009af9" fill-rule="evenodd" fill-opacity="0.5"/>
<polyline clip-path="url(#clip302)" style="stroke:#000000; stroke-linecap:round; stroke-linejoin:round; stroke-width:4; stroke-opacity:0.5; fill:none" points="2345.83,164.594 2345.83,1042.58 2368.38,1042.58 2368.38,164.594 2345.83,164.594 "/>
<path clip-path="url(#clip302)" d="M2374.01 110.236 L2374.01 1042.58 L2396.55 1042.58 L2396.55 110.236 L2374.01 110.236 L2374.01 110.236  Z" fill="#009af9" fill-rule="evenodd" fill-opacity="0.5"/>
<polyline clip-path="url(#clip302)" style="stroke:#000000; stroke-linecap:round; stroke-linejoin:round; stroke-width:4; stroke-opacity:0.5; fill:none" points="2374.01,110.236 2374.01,1042.58 2396.55,1042.58 2396.55,110.236 2374.01,110.236 "/>
<path clip-path="url(#clip302)" d="M2402.19 236.229 L2402.19 1042.58 L2424.73 1042.58 L2424.73 236.229 L2402.19 236.229 L2402.19 236.229  Z" fill="#009af9" fill-rule="evenodd" fill-opacity="0.5"/>
<polyline clip-path="url(#clip302)" style="stroke:#000000; stroke-linecap:round; stroke-linejoin:round; stroke-width:4; stroke-opacity:0.5; fill:none" points="2402.19,236.229 2402.19,1042.58 2424.73,1042.58 2424.73,236.229 2402.19,236.229 "/>
<path clip-path="url(#clip302)" d="M2430.37 278.879 L2430.37 1042.58 L2452.91 1042.58 L2452.91 278.879 L2430.37 278.879 L2430.37 278.879  Z" fill="#009af9" fill-rule="evenodd" fill-opacity="0.5"/>
<polyline clip-path="url(#clip302)" style="stroke:#000000; stroke-linecap:round; stroke-linejoin:round; stroke-width:4; stroke-opacity:0.5; fill:none" points="2430.37,278.879 2430.37,1042.58 2452.91,1042.58 2452.91,278.879 2430.37,278.879 "/>
<path clip-path="url(#clip302)" d="M2458.55 312.54 L2458.55 1042.58 L2481.09 1042.58 L2481.09 312.54 L2458.55 312.54 L2458.55 312.54  Z" fill="#009af9" fill-rule="evenodd" fill-opacity="0.5"/>
<polyline clip-path="url(#clip302)" style="stroke:#000000; stroke-linecap:round; stroke-linejoin:round; stroke-width:4; stroke-opacity:0.5; fill:none" points="2458.55,312.54 2458.55,1042.58 2481.09,1042.58 2481.09,312.54 2458.55,312.54 "/>
<path clip-path="url(#clip302)" d="M2486.73 200.344 L2486.73 1042.58 L2509.27 1042.58 L2509.27 200.344 L2486.73 200.344 L2486.73 200.344  Z" fill="#009af9" fill-rule="evenodd" fill-opacity="0.5"/>
<polyline clip-path="url(#clip302)" style="stroke:#000000; stroke-linecap:round; stroke-linejoin:round; stroke-width:4; stroke-opacity:0.5; fill:none" points="2486.73,200.344 2486.73,1042.58 2509.27,1042.58 2509.27,200.344 2486.73,200.344 "/>
<path clip-path="url(#clip302)" d="M2514.91 194.878 L2514.91 1042.58 L2537.45 1042.58 L2537.45 194.878 L2514.91 194.878 L2514.91 194.878  Z" fill="#009af9" fill-rule="evenodd" fill-opacity="0.5"/>
<polyline clip-path="url(#clip302)" style="stroke:#000000; stroke-linecap:round; stroke-linejoin:round; stroke-width:4; stroke-opacity:0.5; fill:none" points="2514.91,194.878 2514.91,1042.58 2537.45,1042.58 2537.45,194.878 2514.91,194.878 "/>
<path clip-path="url(#clip302)" d="M2543.09 278.879 L2543.09 1042.58 L2565.63 1042.58 L2565.63 278.879 L2543.09 278.879 L2543.09 278.879  Z" fill="#009af9" fill-rule="evenodd" fill-opacity="0.5"/>
<polyline clip-path="url(#clip302)" style="stroke:#000000; stroke-linecap:round; stroke-linejoin:round; stroke-width:4; stroke-opacity:0.5; fill:none" points="2543.09,278.879 2543.09,1042.58 2565.63,1042.58 2565.63,278.879 2543.09,278.879 "/>
<path clip-path="url(#clip302)" d="M2571.27 278.879 L2571.27 1042.58 L2593.81 1042.58 L2593.81 278.879 L2571.27 278.879 L2571.27 278.879  Z" fill="#009af9" fill-rule="evenodd" fill-opacity="0.5"/>
<polyline clip-path="url(#clip302)" style="stroke:#000000; stroke-linecap:round; stroke-linejoin:round; stroke-width:4; stroke-opacity:0.5; fill:none" points="2571.27,278.879 2571.27,1042.58 2593.81,1042.58 2593.81,278.879 2571.27,278.879 "/>
<path clip-path="url(#clip302)" d="M2599.44 374.782 L2599.44 1042.58 L2621.99 1042.58 L2621.99 374.782 L2599.44 374.782 L2599.44 374.782  Z" fill="#009af9" fill-rule="evenodd" fill-opacity="0.5"/>
<polyline clip-path="url(#clip302)" style="stroke:#000000; stroke-linecap:round; stroke-linejoin:round; stroke-width:4; stroke-opacity:0.5; fill:none" points="2599.44,374.782 2599.44,1042.58 2621.99,1042.58 2621.99,374.782 2599.44,374.782 "/>
<path clip-path="url(#clip302)" d="M2627.62 352.083 L2627.62 1042.58 L2650.17 1042.58 L2650.17 352.083 L2627.62 352.083 L2627.62 352.083  Z" fill="#009af9" fill-rule="evenodd" fill-opacity="0.5"/>
<polyline clip-path="url(#clip302)" style="stroke:#000000; stroke-linecap:round; stroke-linejoin:round; stroke-width:4; stroke-opacity:0.5; fill:none" points="2627.62,352.083 2627.62,1042.58 2650.17,1042.58 2650.17,352.083 2627.62,352.083 "/>
<path clip-path="url(#clip302)" d="M2655.8 400.008 L2655.8 1042.58 L2678.35 1042.58 L2678.35 400.008 L2655.8 400.008 L2655.8 400.008  Z" fill="#009af9" fill-rule="evenodd" fill-opacity="0.5"/>
<polyline clip-path="url(#clip302)" style="stroke:#000000; stroke-linecap:round; stroke-linejoin:round; stroke-width:4; stroke-opacity:0.5; fill:none" points="2655.8,400.008 2655.8,1042.58 2678.35,1042.58 2678.35,400.008 2655.8,400.008 "/>
<path clip-path="url(#clip302)" d="M2683.98 1042.58 L2683.98 1042.58 L2706.53 1042.58 L2706.53 1042.58 L2683.98 1042.58 L2683.98 1042.58  Z" fill="#009af9" fill-rule="evenodd" fill-opacity="0.5"/>
<polyline clip-path="url(#clip302)" style="stroke:#000000; stroke-linecap:round; stroke-linejoin:round; stroke-width:4; stroke-opacity:0.5; fill:none" points="2683.98,1042.58 2683.98,1042.58 2706.53,1042.58 2683.98,1042.58 "/>
<circle clip-path="url(#clip302)" style="fill:#009af9; stroke:none; fill-opacity:0" cx="300.018" cy="194.878" r="2"/>
<circle clip-path="url(#clip302)" style="fill:#009af9; stroke:none; fill-opacity:0" cx="328.198" cy="352.083" r="2"/>
<circle clip-path="url(#clip302)" style="fill:#009af9; stroke:none; fill-opacity:0" cx="356.377" cy="321.798" r="2"/>
<circle clip-path="url(#clip302)" style="fill:#009af9; stroke:none; fill-opacity:0" cx="384.556" cy="189.542" r="2"/>
<circle clip-path="url(#clip302)" style="fill:#009af9; stroke:none; fill-opacity:0" cx="412.735" cy="249.574" r="2"/>
<circle clip-path="url(#clip302)" style="fill:#009af9; stroke:none; fill-opacity:0" cx="440.915" cy="223.625" r="2"/>
<circle clip-path="url(#clip302)" style="fill:#009af9; stroke:none; fill-opacity:0" cx="469.094" cy="286.837" r="2"/>
<circle clip-path="url(#clip302)" style="fill:#009af9; stroke:none; fill-opacity:0" cx="497.273" cy="263.753" r="2"/>
<circle clip-path="url(#clip302)" style="fill:#009af9; stroke:none; fill-opacity:0" cx="525.452" cy="229.839" r="2"/>
<circle clip-path="url(#clip302)" style="fill:#009af9; stroke:none; fill-opacity:0" cx="553.632" cy="249.574" r="2"/>
<circle clip-path="url(#clip302)" style="fill:#009af9; stroke:none; fill-opacity:0" cx="581.811" cy="271.19" r="2"/>
<circle clip-path="url(#clip302)" style="fill:#009af9; stroke:none; fill-opacity:0" cx="609.99" cy="179.231" r="2"/>
<circle clip-path="url(#clip302)" style="fill:#009af9; stroke:none; fill-opacity:0" cx="638.169" cy="133.719" r="2"/>
<circle clip-path="url(#clip302)" style="fill:#009af9; stroke:none; fill-opacity:0" cx="666.349" cy="200.344" r="2"/>
<circle clip-path="url(#clip302)" style="fill:#009af9; stroke:none; fill-opacity:0" cx="694.528" cy="242.803" r="2"/>
<circle clip-path="url(#clip302)" style="fill:#009af9; stroke:none; fill-opacity:0" cx="722.707" cy="146.44" r="2"/>
<circle clip-path="url(#clip302)" style="fill:#009af9; stroke:none; fill-opacity:0" cx="750.886" cy="278.879" r="2"/>
<circle clip-path="url(#clip302)" style="fill:#009af9; stroke:none; fill-opacity:0" cx="779.066" cy="110.236" r="2"/>
<circle clip-path="url(#clip302)" style="fill:#009af9; stroke:none; fill-opacity:0" cx="807.245" cy="155.335" r="2"/>
<circle clip-path="url(#clip302)" style="fill:#009af9; stroke:none; fill-opacity:0" cx="835.424" cy="155.335" r="2"/>
<circle clip-path="url(#clip302)" style="fill:#009af9; stroke:none; fill-opacity:0" cx="863.603" cy="159.917" r="2"/>
<circle clip-path="url(#clip302)" style="fill:#009af9; stroke:none; fill-opacity:0" cx="891.783" cy="155.335" r="2"/>
<circle clip-path="url(#clip302)" style="fill:#009af9; stroke:none; fill-opacity:0" cx="919.962" cy="125.618" r="2"/>
<circle clip-path="url(#clip302)" style="fill:#009af9; stroke:none; fill-opacity:0" cx="948.141" cy="121.674" r="2"/>
<circle clip-path="url(#clip302)" style="fill:#009af9; stroke:none; fill-opacity:0" cx="976.32" cy="189.542" r="2"/>
<circle clip-path="url(#clip302)" style="fill:#009af9; stroke:none; fill-opacity:0" cx="1004.5" cy="256.552" r="2"/>
<circle clip-path="url(#clip302)" style="fill:#009af9; stroke:none; fill-opacity:0" cx="1032.68" cy="242.803" r="2"/>
<circle clip-path="url(#clip302)" style="fill:#009af9; stroke:none; fill-opacity:0" cx="1060.86" cy="236.229" r="2"/>
<circle clip-path="url(#clip302)" style="fill:#009af9; stroke:none; fill-opacity:0" cx="1089.04" cy="321.798" r="2"/>
<circle clip-path="url(#clip302)" style="fill:#009af9; stroke:none; fill-opacity:0" cx="1117.22" cy="133.719" r="2"/>
<circle clip-path="url(#clip302)" style="fill:#009af9; stroke:none; fill-opacity:0" cx="1145.4" cy="211.686" r="2"/>
<circle clip-path="url(#clip302)" style="fill:#009af9; stroke:none; fill-opacity:0" cx="1173.58" cy="217.577" r="2"/>
<circle clip-path="url(#clip302)" style="fill:#009af9; stroke:none; fill-opacity:0" cx="1201.75" cy="242.803" r="2"/>
<circle clip-path="url(#clip302)" style="fill:#009af9; stroke:none; fill-opacity:0" cx="1229.93" cy="286.837" r="2"/>
<circle clip-path="url(#clip302)" style="fill:#009af9; stroke:none; fill-opacity:0" cx="1258.11" cy="278.879" r="2"/>
<circle clip-path="url(#clip302)" style="fill:#009af9; stroke:none; fill-opacity:0" cx="1286.29" cy="295.085" r="2"/>
<circle clip-path="url(#clip302)" style="fill:#009af9; stroke:none; fill-opacity:0" cx="1314.47" cy="413.757" r="2"/>
<circle clip-path="url(#clip302)" style="fill:#009af9; stroke:none; fill-opacity:0" cx="1342.65" cy="211.686" r="2"/>
<circle clip-path="url(#clip302)" style="fill:#009af9; stroke:none; fill-opacity:0" cx="1370.83" cy="331.451" r="2"/>
<circle clip-path="url(#clip302)" style="fill:#009af9; stroke:none; fill-opacity:0" cx="1399.01" cy="374.782" r="2"/>
<circle clip-path="url(#clip302)" style="fill:#009af9; stroke:none; fill-opacity:0" cx="1427.19" cy="321.798" r="2"/>
<circle clip-path="url(#clip302)" style="fill:#009af9; stroke:none; fill-opacity:0" cx="1455.37" cy="236.229" r="2"/>
<circle clip-path="url(#clip302)" style="fill:#009af9; stroke:none; fill-opacity:0" cx="1483.55" cy="217.577" r="2"/>
<circle clip-path="url(#clip302)" style="fill:#009af9; stroke:none; fill-opacity:0" cx="1511.73" cy="189.542" r="2"/>
<circle clip-path="url(#clip302)" style="fill:#009af9; stroke:none; fill-opacity:0" cx="1539.91" cy="125.618" r="2"/>
<circle clip-path="url(#clip302)" style="fill:#009af9; stroke:none; fill-opacity:0" cx="1568.08" cy="200.344" r="2"/>
<circle clip-path="url(#clip302)" style="fill:#009af9; stroke:none; fill-opacity:0" cx="1596.26" cy="205.944" r="2"/>
<circle clip-path="url(#clip302)" style="fill:#009af9; stroke:none; fill-opacity:0" cx="1624.44" cy="312.54" r="2"/>
<circle clip-path="url(#clip302)" style="fill:#009af9; stroke:none; fill-opacity:0" cx="1652.62" cy="229.839" r="2"/>
<circle clip-path="url(#clip302)" style="fill:#009af9; stroke:none; fill-opacity:0" cx="1680.8" cy="205.944" r="2"/>
<circle clip-path="url(#clip302)" style="fill:#009af9; stroke:none; fill-opacity:0" cx="1708.98" cy="169.369" r="2"/>
<circle clip-path="url(#clip302)" style="fill:#009af9; stroke:none; fill-opacity:0" cx="1737.16" cy="217.577" r="2"/>
<circle clip-path="url(#clip302)" style="fill:#009af9; stroke:none; fill-opacity:0" cx="1765.34" cy="125.618" r="2"/>
<circle clip-path="url(#clip302)" style="fill:#009af9; stroke:none; fill-opacity:0" cx="1793.52" cy="113.985" r="2"/>
<circle clip-path="url(#clip302)" style="fill:#009af9; stroke:none; fill-opacity:0" cx="1821.7" cy="205.944" r="2"/>
<circle clip-path="url(#clip302)" style="fill:#009af9; stroke:none; fill-opacity:0" cx="1849.88" cy="312.54" r="2"/>
<circle clip-path="url(#clip302)" style="fill:#009af9; stroke:none; fill-opacity:0" cx="1878.06" cy="249.574" r="2"/>
<circle clip-path="url(#clip302)" style="fill:#009af9; stroke:none; fill-opacity:0" cx="1906.24" cy="150.844" r="2"/>
<circle clip-path="url(#clip302)" style="fill:#009af9; stroke:none; fill-opacity:0" cx="1934.41" cy="137.881" r="2"/>
<circle clip-path="url(#clip302)" style="fill:#009af9; stroke:none; fill-opacity:0" cx="1962.59" cy="211.686" r="2"/>
<circle clip-path="url(#clip302)" style="fill:#009af9; stroke:none; fill-opacity:0" cx="1990.77" cy="242.803" r="2"/>
<circle clip-path="url(#clip302)" style="fill:#009af9; stroke:none; fill-opacity:0" cx="2018.95" cy="312.54" r="2"/>
<circle clip-path="url(#clip302)" style="fill:#009af9; stroke:none; fill-opacity:0" cx="2047.13" cy="321.798" r="2"/>
<circle clip-path="url(#clip302)" style="fill:#009af9; stroke:none; fill-opacity:0" cx="2075.31" cy="256.552" r="2"/>
<circle clip-path="url(#clip302)" style="fill:#009af9; stroke:none; fill-opacity:0" cx="2103.49" cy="249.574" r="2"/>
<circle clip-path="url(#clip302)" style="fill:#009af9; stroke:none; fill-opacity:0" cx="2131.67" cy="211.686" r="2"/>
<circle clip-path="url(#clip302)" style="fill:#009af9; stroke:none; fill-opacity:0" cx="2159.85" cy="174.246" r="2"/>
<circle clip-path="url(#clip302)" style="fill:#009af9; stroke:none; fill-opacity:0" cx="2188.03" cy="249.574" r="2"/>
<circle clip-path="url(#clip302)" style="fill:#009af9; stroke:none; fill-opacity:0" cx="2216.21" cy="223.625" r="2"/>
<circle clip-path="url(#clip302)" style="fill:#009af9; stroke:none; fill-opacity:0" cx="2244.39" cy="217.577" r="2"/>
<circle clip-path="url(#clip302)" style="fill:#009af9; stroke:none; fill-opacity:0" cx="2272.57" cy="263.753" r="2"/>
<circle clip-path="url(#clip302)" style="fill:#009af9; stroke:none; fill-opacity:0" cx="2300.74" cy="321.798" r="2"/>
<circle clip-path="url(#clip302)" style="fill:#009af9; stroke:none; fill-opacity:0" cx="2328.92" cy="174.246" r="2"/>
<circle clip-path="url(#clip302)" style="fill:#009af9; stroke:none; fill-opacity:0" cx="2357.1" cy="164.594" r="2"/>
<circle clip-path="url(#clip302)" style="fill:#009af9; stroke:none; fill-opacity:0" cx="2385.28" cy="110.236" r="2"/>
<circle clip-path="url(#clip302)" style="fill:#009af9; stroke:none; fill-opacity:0" cx="2413.46" cy="236.229" r="2"/>
<circle clip-path="url(#clip302)" style="fill:#009af9; stroke:none; fill-opacity:0" cx="2441.64" cy="278.879" r="2"/>
<circle clip-path="url(#clip302)" style="fill:#009af9; stroke:none; fill-opacity:0" cx="2469.82" cy="312.54" r="2"/>
<circle clip-path="url(#clip302)" style="fill:#009af9; stroke:none; fill-opacity:0" cx="2498" cy="200.344" r="2"/>
<circle clip-path="url(#clip302)" style="fill:#009af9; stroke:none; fill-opacity:0" cx="2526.18" cy="194.878" r="2"/>
<circle clip-path="url(#clip302)" style="fill:#009af9; stroke:none; fill-opacity:0" cx="2554.36" cy="278.879" r="2"/>
<circle clip-path="url(#clip302)" style="fill:#009af9; stroke:none; fill-opacity:0" cx="2582.54" cy="278.879" r="2"/>
<circle clip-path="url(#clip302)" style="fill:#009af9; stroke:none; fill-opacity:0" cx="2610.72" cy="374.782" r="2"/>
<circle clip-path="url(#clip302)" style="fill:#009af9; stroke:none; fill-opacity:0" cx="2638.9" cy="352.083" r="2"/>
<circle clip-path="url(#clip302)" style="fill:#009af9; stroke:none; fill-opacity:0" cx="2667.08" cy="400.008" r="2"/>
<circle clip-path="url(#clip302)" style="fill:#009af9; stroke:none; fill-opacity:0" cx="2695.25" cy="1042.58" r="2"/>
</svg>
