<?xml version="1.0" encoding="utf-8"?>
<svg xmlns="http://www.w3.org/2000/svg" xmlns:xlink="http://www.w3.org/1999/xlink" width="800" height="300" viewBox="0 0 3200 1200">
<defs>
  <clipPath id="clip440">
    <rect x="0" y="0" width="3200" height="1200"/>
  </clipPath>
</defs>
<path clip-path="url(#clip440)" d="M0 1200 L3200 1200 L3200 0 L0 0  Z" fill="#ffffff" fill-rule="evenodd" fill-opacity="1"/>
<defs>
  <clipPath id="clip441">
    <rect x="640" y="0" width="2241" height="1200"/>
  </clipPath>
</defs>
<path clip-path="url(#clip440)" d="M271.839 1042.58 L3089.76 1042.58 L3089.76 110.236 L271.839 110.236  Z" fill="#ffffff" fill-rule="evenodd" fill-opacity="1"/>
<defs>
  <clipPath id="clip442">
    <rect x="271" y="110" width="2819" height="933"/>
  </clipPath>
</defs>
<polyline clip-path="url(#clip442)" style="stroke:#000000; stroke-linecap:round; stroke-linejoin:round; stroke-width:2; stroke-opacity:0.1; fill:none" points="1117.22,1042.58 1117.22,110.236 "/>
<polyline clip-path="url(#clip442)" style="stroke:#000000; stroke-linecap:round; stroke-linejoin:round; stroke-width:2; stroke-opacity:0.1; fill:none" points="1990.77,1042.58 1990.77,110.236 "/>
<polyline clip-path="url(#clip442)" style="stroke:#000000; stroke-linecap:round; stroke-linejoin:round; stroke-width:2; stroke-opacity:0.1; fill:none" points="2864.33,1042.58 2864.33,110.236 "/>
<polyline clip-path="url(#clip440)" style="stroke:#000000; stroke-linecap:round; stroke-linejoin:round; stroke-width:4; stroke-opacity:1; fill:none" points="271.839,1042.58 3089.76,1042.58 "/>
<polyline clip-path="url(#clip440)" style="stroke:#000000; stroke-linecap:round; stroke-linejoin:round; stroke-width:4; stroke-opacity:1; fill:none" points="1117.22,1042.58 1117.22,1023.68 "/>
<polyline clip-path="url(#clip440)" style="stroke:#000000; stroke-linecap:round; stroke-linejoin:round; stroke-width:4; stroke-opacity:1; fill:none" points="1990.77,1042.58 1990.77,1023.68 "/>
<polyline clip-path="url(#clip440)" style="stroke:#000000; stroke-linecap:round; stroke-linejoin:round; stroke-width:4; stroke-opacity:1; fill:none" points="2864.33,1042.58 2864.33,1023.68 "/>
<path clip-path="url(#clip440)" d="M989.011 1107.44 L1005.33 1107.44 L1005.33 1111.38 L983.386 1111.38 L983.386 1107.44 Q986.048 1104.69 990.632 1100.06 Q995.238 1095.4 996.419 1094.06 Q998.664 1091.54 999.544 1089.8 Q1000.45 1088.04 1000.45 1086.35 Q1000.45 1083.6 998.502 1081.86 Q996.581 1080.13 993.479 1080.13 Q991.28 1080.13 988.826 1080.89 Q986.396 1081.65 983.618 1083.2 L983.618 1078.48 Q986.442 1077.35 988.896 1076.77 Q991.349 1076.19 993.386 1076.19 Q998.757 1076.19 1001.95 1078.88 Q1005.15 1081.56 1005.15 1086.05 Q1005.15 1088.18 1004.34 1090.1 Q1003.55 1092 1001.44 1094.59 Q1000.86 1095.26 997.761 1098.48 Q994.659 1101.68 989.011 1107.44 Z" fill="#000000" fill-rule="nonzero" fill-opacity="1" /><path clip-path="url(#clip440)" d="M1025.15 1079.89 Q1021.53 1079.89 1019.71 1083.46 Q1017.9 1087 1017.9 1094.13 Q1017.9 1101.24 1019.71 1104.8 Q1021.53 1108.34 1025.15 1108.34 Q1028.78 1108.34 1030.59 1104.8 Q1032.41 1101.24 1032.41 1094.13 Q1032.41 1087 1030.59 1083.46 Q1028.78 1079.89 1025.15 1079.89 M1025.15 1076.19 Q1030.96 1076.19 1034.01 1080.8 Q1037.09 1085.38 1037.09 1094.13 Q1037.09 1102.86 1034.01 1107.46 Q1030.96 1112.05 1025.15 1112.05 Q1019.34 1112.05 1016.26 1107.46 Q1013.2 1102.86 1013.2 1094.13 Q1013.2 1085.38 1016.26 1080.8 Q1019.34 1076.19 1025.15 1076.19 Z" fill="#000000" fill-rule="nonzero" fill-opacity="1" /><path clip-path="url(#clip440)" d="M1049.34 1107.44 L1065.65 1107.44 L1065.65 1111.38 L1043.71 1111.38 L1043.71 1107.44 Q1046.37 1104.69 1050.96 1100.06 Q1055.56 1095.4 1056.74 1094.06 Q1058.99 1091.54 1059.87 1089.8 Q1060.77 1088.04 1060.77 1086.35 Q1060.77 1083.6 1058.83 1081.86 Q1056.9 1080.13 1053.8 1080.13 Q1051.6 1080.13 1049.15 1080.89 Q1046.72 1081.65 1043.94 1083.2 L1043.94 1078.48 Q1046.77 1077.35 1049.22 1076.77 Q1051.67 1076.19 1053.71 1076.19 Q1059.08 1076.19 1062.27 1078.88 Q1065.47 1081.56 1065.47 1086.05 Q1065.47 1088.18 1064.66 1090.1 Q1063.87 1092 1061.77 1094.59 Q1061.19 1095.26 1058.08 1098.48 Q1054.98 1101.68 1049.34 1107.44 Z" fill="#000000" fill-rule="nonzero" fill-opacity="1" /><path clip-path="url(#clip440)" d="M1088.32 1080.89 L1076.51 1099.34 L1088.32 1099.34 L1088.32 1080.89 M1087.09 1076.82 L1092.97 1076.82 L1092.97 1099.34 L1097.9 1099.34 L1097.9 1103.23 L1092.97 1103.23 L1092.97 1111.38 L1088.32 1111.38 L1088.32 1103.23 L1072.71 1103.23 L1072.71 1098.71 L1087.09 1076.82 Z" fill="#000000" fill-rule="nonzero" fill-opacity="1" /><path clip-path="url(#clip440)" d="M1102.88 1096.49 L1115.35 1096.49 L1115.35 1100.29 L1102.88 1100.29 L1102.88 1096.49 Z" fill="#000000" fill-rule="nonzero" fill-opacity="1" /><path clip-path="url(#clip440)" d="M1123.55 1107.44 L1131.19 1107.44 L1131.19 1081.07 L1122.88 1082.74 L1122.88 1078.48 L1131.14 1076.82 L1135.82 1076.82 L1135.82 1107.44 L1143.45 1107.44 L1143.45 1111.38 L1123.55 1111.38 L1123.55 1107.44 Z" fill="#000000" fill-rule="nonzero" fill-opacity="1" /><path clip-path="url(#clip440)" d="M1156.93 1107.44 L1173.25 1107.44 L1173.25 1111.38 L1151.3 1111.38 L1151.3 1107.44 Q1153.96 1104.69 1158.55 1100.06 Q1163.15 1095.4 1164.33 1094.06 Q1166.58 1091.54 1167.46 1089.8 Q1168.36 1088.04 1168.36 1086.35 Q1168.36 1083.6 1166.42 1081.86 Q1164.5 1080.13 1161.39 1080.13 Q1159.2 1080.13 1156.74 1080.89 Q1154.31 1081.65 1151.53 1083.2 L1151.53 1078.48 Q1154.36 1077.35 1156.81 1076.77 Q1159.26 1076.19 1161.3 1076.19 Q1166.67 1076.19 1169.87 1078.88 Q1173.06 1081.56 1173.06 1086.05 Q1173.06 1088.18 1172.25 1090.1 Q1171.46 1092 1169.36 1094.59 Q1168.78 1095.26 1165.68 1098.48 Q1162.58 1101.68 1156.93 1107.44 Z" fill="#000000" fill-rule="nonzero" fill-opacity="1" /><path clip-path="url(#clip440)" d="M1180.31 1096.49 L1192.78 1096.49 L1192.78 1100.29 L1180.31 1100.29 L1180.31 1096.49 Z" fill="#000000" fill-rule="nonzero" fill-opacity="1" /><path clip-path="url(#clip440)" d="M1210.17 1079.89 Q1206.56 1079.89 1204.73 1083.46 Q1202.92 1087 1202.92 1094.13 Q1202.92 1101.24 1204.73 1104.8 Q1206.56 1108.34 1210.17 1108.34 Q1213.8 1108.34 1215.61 1104.8 Q1217.44 1101.24 1217.44 1094.13 Q1217.44 1087 1215.61 1083.46 Q1213.8 1079.89 1210.17 1079.89 M1210.17 1076.19 Q1215.98 1076.19 1219.03 1080.8 Q1222.11 1085.38 1222.11 1094.13 Q1222.11 1102.86 1219.03 1107.46 Q1215.98 1112.05 1210.17 1112.05 Q1204.36 1112.05 1201.28 1107.46 Q1198.22 1102.86 1198.22 1094.13 Q1198.22 1085.38 1201.28 1080.8 Q1204.36 1076.19 1210.17 1076.19 Z" fill="#000000" fill-rule="nonzero" fill-opacity="1" /><path clip-path="url(#clip440)" d="M1231.14 1107.44 L1238.78 1107.44 L1238.78 1081.07 L1230.47 1082.74 L1230.47 1078.48 L1238.73 1076.82 L1243.41 1076.82 L1243.41 1107.44 L1251.05 1107.44 L1251.05 1111.38 L1231.14 1111.38 L1231.14 1107.44 Z" fill="#000000" fill-rule="nonzero" fill-opacity="1" /><path clip-path="url(#clip440)" d="M1862.57 1107.44 L1878.89 1107.44 L1878.89 1111.38 L1856.94 1111.38 L1856.94 1107.44 Q1859.6 1104.69 1864.19 1100.06 Q1868.79 1095.4 1869.98 1094.06 Q1872.22 1091.54 1873.1 1089.8 Q1874 1088.04 1874 1086.35 Q1874 1083.6 1872.06 1081.86 Q1870.14 1080.13 1867.04 1080.13 Q1864.84 1080.13 1862.38 1080.89 Q1859.95 1081.65 1857.17 1083.2 L1857.17 1078.48 Q1860 1077.35 1862.45 1076.77 Q1864.91 1076.19 1866.94 1076.19 Q1872.31 1076.19 1875.51 1078.88 Q1878.7 1081.56 1878.7 1086.05 Q1878.7 1088.18 1877.89 1090.1 Q1877.1 1092 1875 1094.59 Q1874.42 1095.26 1871.32 1098.48 Q1868.22 1101.68 1862.57 1107.44 Z" fill="#000000" fill-rule="nonzero" fill-opacity="1" /><path clip-path="url(#clip440)" d="M1898.7 1079.89 Q1895.09 1079.89 1893.26 1083.46 Q1891.46 1087 1891.46 1094.13 Q1891.46 1101.24 1893.26 1104.8 Q1895.09 1108.34 1898.7 1108.34 Q1902.34 1108.34 1904.14 1104.8 Q1905.97 1101.24 1905.97 1094.13 Q1905.97 1087 1904.14 1083.46 Q1902.34 1079.89 1898.7 1079.89 M1898.7 1076.19 Q1904.51 1076.19 1907.57 1080.8 Q1910.65 1085.38 1910.65 1094.13 Q1910.65 1102.86 1907.57 1107.46 Q1904.51 1112.05 1898.7 1112.05 Q1892.89 1112.05 1889.81 1107.46 Q1886.76 1102.86 1886.76 1094.13 Q1886.76 1085.38 1889.81 1080.8 Q1892.89 1076.19 1898.7 1076.19 Z" fill="#000000" fill-rule="nonzero" fill-opacity="1" /><path clip-path="url(#clip440)" d="M1922.89 1107.44 L1939.21 1107.44 L1939.21 1111.38 L1917.27 1111.38 L1917.27 1107.44 Q1919.93 1104.69 1924.51 1100.06 Q1929.12 1095.4 1930.3 1094.06 Q1932.54 1091.54 1933.42 1089.8 Q1934.33 1088.04 1934.33 1086.35 Q1934.33 1083.6 1932.38 1081.86 Q1930.46 1080.13 1927.36 1080.13 Q1925.16 1080.13 1922.71 1080.89 Q1920.28 1081.65 1917.5 1083.2 L1917.5 1078.48 Q1920.32 1077.35 1922.78 1076.77 Q1925.23 1076.19 1927.27 1076.19 Q1932.64 1076.19 1935.83 1078.88 Q1939.03 1081.56 1939.03 1086.05 Q1939.03 1088.18 1938.22 1090.1 Q1937.43 1092 1935.32 1094.59 Q1934.74 1095.26 1931.64 1098.48 Q1928.54 1101.68 1922.89 1107.44 Z" fill="#000000" fill-rule="nonzero" fill-opacity="1" /><path clip-path="url(#clip440)" d="M1949.07 1076.82 L1967.43 1076.82 L1967.43 1080.75 L1953.35 1080.75 L1953.35 1089.22 Q1954.37 1088.88 1955.39 1088.71 Q1956.41 1088.53 1957.43 1088.53 Q1963.22 1088.53 1966.6 1091.7 Q1969.97 1094.87 1969.97 1100.29 Q1969.97 1105.87 1966.5 1108.97 Q1963.03 1112.05 1956.71 1112.05 Q1954.53 1112.05 1952.27 1111.68 Q1950.02 1111.31 1947.61 1110.57 L1947.61 1105.87 Q1949.7 1107 1951.92 1107.56 Q1954.14 1108.11 1956.62 1108.11 Q1960.62 1108.11 1962.96 1106.01 Q1965.3 1103.9 1965.3 1100.29 Q1965.3 1096.68 1962.96 1094.57 Q1960.62 1092.46 1956.62 1092.46 Q1954.74 1092.46 1952.87 1092.88 Q1951.02 1093.3 1949.07 1094.18 L1949.07 1076.82 Z" fill="#000000" fill-rule="nonzero" fill-opacity="1" /><path clip-path="url(#clip440)" d="M1976.43 1096.49 L1988.91 1096.49 L1988.91 1100.29 L1976.43 1100.29 L1976.43 1096.49 Z" fill="#000000" fill-rule="nonzero" fill-opacity="1" /><path clip-path="url(#clip440)" d="M2006.29 1079.89 Q2002.68 1079.89 2000.85 1083.46 Q1999.05 1087 1999.05 1094.13 Q1999.05 1101.24 2000.85 1104.8 Q2002.68 1108.34 2006.29 1108.34 Q2009.93 1108.34 2011.73 1104.8 Q2013.56 1101.24 2013.56 1094.13 Q2013.56 1087 2011.73 1083.46 Q2009.93 1079.89 2006.29 1079.89 M2006.29 1076.19 Q2012.1 1076.19 2015.16 1080.8 Q2018.24 1085.38 2018.24 1094.13 Q2018.24 1102.86 2015.16 1107.46 Q2012.1 1112.05 2006.29 1112.05 Q2000.48 1112.05 1997.41 1107.46 Q1994.35 1102.86 1994.35 1094.13 Q1994.35 1085.38 1997.41 1080.8 Q2000.48 1076.19 2006.29 1076.19 Z" fill="#000000" fill-rule="nonzero" fill-opacity="1" /><path clip-path="url(#clip440)" d="M2027.27 1107.44 L2034.9 1107.44 L2034.9 1081.07 L2026.59 1082.74 L2026.59 1078.48 L2034.86 1076.82 L2039.53 1076.82 L2039.53 1107.44 L2047.17 1107.44 L2047.17 1111.38 L2027.27 1111.38 L2027.27 1107.44 Z" fill="#000000" fill-rule="nonzero" fill-opacity="1" /><path clip-path="url(#clip440)" d="M2053.86 1096.49 L2066.34 1096.49 L2066.34 1100.29 L2053.86 1100.29 L2053.86 1096.49 Z" fill="#000000" fill-rule="nonzero" fill-opacity="1" /><path clip-path="url(#clip440)" d="M2083.72 1079.89 Q2080.11 1079.89 2078.28 1083.46 Q2076.48 1087 2076.48 1094.13 Q2076.48 1101.24 2078.28 1104.8 Q2080.11 1108.34 2083.72 1108.34 Q2087.36 1108.34 2089.16 1104.8 Q2090.99 1101.24 2090.99 1094.13 Q2090.99 1087 2089.16 1083.46 Q2087.36 1079.89 2083.72 1079.89 M2083.72 1076.19 Q2089.53 1076.19 2092.59 1080.8 Q2095.67 1085.38 2095.67 1094.13 Q2095.67 1102.86 2092.59 1107.46 Q2089.53 1112.05 2083.72 1112.05 Q2077.91 1112.05 2074.84 1107.46 Q2071.78 1102.86 2071.78 1094.13 Q2071.78 1085.38 2074.84 1080.8 Q2077.91 1076.19 2083.72 1076.19 Z" fill="#000000" fill-rule="nonzero" fill-opacity="1" /><path clip-path="url(#clip440)" d="M2104.7 1107.44 L2112.34 1107.44 L2112.34 1081.07 L2104.02 1082.74 L2104.02 1078.48 L2112.29 1076.82 L2116.96 1076.82 L2116.96 1107.44 L2124.6 1107.44 L2124.6 1111.38 L2104.7 1111.38 L2104.7 1107.44 Z" fill="#000000" fill-rule="nonzero" fill-opacity="1" /><path clip-path="url(#clip440)" d="M2736.12 1107.44 L2752.44 1107.44 L2752.44 1111.38 L2730.5 1111.38 L2730.5 1107.44 Q2733.16 1104.69 2737.74 1100.06 Q2742.35 1095.4 2743.53 1094.06 Q2745.78 1091.54 2746.66 1089.8 Q2747.56 1088.04 2747.56 1086.35 Q2747.56 1083.6 2745.62 1081.86 Q2743.69 1080.13 2740.59 1080.13 Q2738.39 1080.13 2735.94 1080.89 Q2733.51 1081.65 2730.73 1083.2 L2730.73 1078.48 Q2733.56 1077.35 2736.01 1076.77 Q2738.46 1076.19 2740.5 1076.19 Q2745.87 1076.19 2749.06 1078.88 Q2752.26 1081.56 2752.26 1086.05 Q2752.26 1088.18 2751.45 1090.1 Q2750.66 1092 2748.55 1094.59 Q2747.98 1095.26 2744.87 1098.48 Q2741.77 1101.68 2736.12 1107.44 Z" fill="#000000" fill-rule="nonzero" fill-opacity="1" /><path clip-path="url(#clip440)" d="M2772.26 1079.89 Q2768.65 1079.89 2766.82 1083.46 Q2765.01 1087 2765.01 1094.13 Q2765.01 1101.24 2766.82 1104.8 Q2768.65 1108.34 2772.26 1108.34 Q2775.89 1108.34 2777.7 1104.8 Q2779.53 1101.24 2779.53 1094.13 Q2779.53 1087 2777.7 1083.46 Q2775.89 1079.89 2772.26 1079.89 M2772.26 1076.19 Q2778.07 1076.19 2781.12 1080.8 Q2784.2 1085.38 2784.2 1094.13 Q2784.2 1102.86 2781.12 1107.46 Q2778.07 1112.05 2772.26 1112.05 Q2766.45 1112.05 2763.37 1107.46 Q2760.31 1102.86 2760.31 1094.13 Q2760.31 1085.38 2763.37 1080.8 Q2766.45 1076.19 2772.26 1076.19 Z" fill="#000000" fill-rule="nonzero" fill-opacity="1" /><path clip-path="url(#clip440)" d="M2796.45 1107.44 L2812.77 1107.44 L2812.77 1111.38 L2790.82 1111.38 L2790.82 1107.44 Q2793.49 1104.69 2798.07 1100.06 Q2802.68 1095.4 2803.86 1094.06 Q2806.1 1091.54 2806.98 1089.8 Q2807.88 1088.04 2807.88 1086.35 Q2807.88 1083.6 2805.94 1081.86 Q2804.02 1080.13 2800.92 1080.13 Q2798.72 1080.13 2796.26 1080.89 Q2793.83 1081.65 2791.05 1083.2 L2791.05 1078.48 Q2793.88 1077.35 2796.33 1076.77 Q2798.79 1076.19 2800.82 1076.19 Q2806.19 1076.19 2809.39 1078.88 Q2812.58 1081.56 2812.58 1086.05 Q2812.58 1088.18 2811.77 1090.1 Q2810.99 1092 2808.88 1094.59 Q2808.3 1095.26 2805.2 1098.48 Q2802.1 1101.68 2796.45 1107.44 Z" fill="#000000" fill-rule="nonzero" fill-opacity="1" /><path clip-path="url(#clip440)" d="M2822.63 1076.82 L2840.99 1076.82 L2840.99 1080.75 L2826.91 1080.75 L2826.91 1089.22 Q2827.93 1088.88 2828.95 1088.71 Q2829.97 1088.53 2830.99 1088.53 Q2836.77 1088.53 2840.15 1091.7 Q2843.53 1094.87 2843.53 1100.29 Q2843.53 1105.87 2840.06 1108.97 Q2836.59 1112.05 2830.27 1112.05 Q2828.09 1112.05 2825.82 1111.68 Q2823.58 1111.31 2821.17 1110.57 L2821.17 1105.87 Q2823.25 1107 2825.48 1107.56 Q2827.7 1108.11 2830.17 1108.11 Q2834.18 1108.11 2836.52 1106.01 Q2838.86 1103.9 2838.86 1100.29 Q2838.86 1096.68 2836.52 1094.57 Q2834.18 1092.46 2830.17 1092.46 Q2828.3 1092.46 2826.42 1092.88 Q2824.57 1093.3 2822.63 1094.18 L2822.63 1076.82 Z" fill="#000000" fill-rule="nonzero" fill-opacity="1" /><path clip-path="url(#clip440)" d="M2849.99 1096.49 L2862.47 1096.49 L2862.47 1100.29 L2849.99 1100.29 L2849.99 1096.49 Z" fill="#000000" fill-rule="nonzero" fill-opacity="1" /><path clip-path="url(#clip440)" d="M2879.85 1079.89 Q2876.24 1079.89 2874.41 1083.46 Q2872.61 1087 2872.61 1094.13 Q2872.61 1101.24 2874.41 1104.8 Q2876.24 1108.34 2879.85 1108.34 Q2883.48 1108.34 2885.29 1104.8 Q2887.12 1101.24 2887.12 1094.13 Q2887.12 1087 2885.29 1083.46 Q2883.48 1079.89 2879.85 1079.89 M2879.85 1076.19 Q2885.66 1076.19 2888.72 1080.8 Q2891.79 1085.38 2891.79 1094.13 Q2891.79 1102.86 2888.72 1107.46 Q2885.66 1112.05 2879.85 1112.05 Q2874.04 1112.05 2870.96 1107.46 Q2867.91 1102.86 2867.91 1094.13 Q2867.91 1085.38 2870.96 1080.8 Q2874.04 1076.19 2879.85 1076.19 Z" fill="#000000" fill-rule="nonzero" fill-opacity="1" /><path clip-path="url(#clip440)" d="M2904.04 1107.44 L2920.36 1107.44 L2920.36 1111.38 L2898.42 1111.38 L2898.42 1107.44 Q2901.08 1104.69 2905.66 1100.06 Q2910.27 1095.4 2911.45 1094.06 Q2913.69 1091.54 2914.57 1089.8 Q2915.48 1088.04 2915.48 1086.35 Q2915.48 1083.6 2913.53 1081.86 Q2911.61 1080.13 2908.51 1080.13 Q2906.31 1080.13 2903.86 1080.89 Q2901.42 1081.65 2898.65 1083.2 L2898.65 1078.48 Q2901.47 1077.35 2903.92 1076.77 Q2906.38 1076.19 2908.42 1076.19 Q2913.79 1076.19 2916.98 1078.88 Q2920.17 1081.56 2920.17 1086.05 Q2920.17 1088.18 2919.36 1090.1 Q2918.58 1092 2916.47 1094.59 Q2915.89 1095.26 2912.79 1098.48 Q2909.69 1101.68 2904.04 1107.44 Z" fill="#000000" fill-rule="nonzero" fill-opacity="1" /><path clip-path="url(#clip440)" d="M2927.42 1096.49 L2939.9 1096.49 L2939.9 1100.29 L2927.42 1100.29 L2927.42 1096.49 Z" fill="#000000" fill-rule="nonzero" fill-opacity="1" /><path clip-path="url(#clip440)" d="M2957.28 1079.89 Q2953.67 1079.89 2951.84 1083.46 Q2950.04 1087 2950.04 1094.13 Q2950.04 1101.24 2951.84 1104.8 Q2953.67 1108.34 2957.28 1108.34 Q2960.91 1108.34 2962.72 1104.8 Q2964.55 1101.24 2964.55 1094.13 Q2964.55 1087 2962.72 1083.46 Q2960.91 1079.89 2957.28 1079.89 M2957.28 1076.19 Q2963.09 1076.19 2966.15 1080.8 Q2969.23 1085.38 2969.23 1094.13 Q2969.23 1102.86 2966.15 1107.46 Q2963.09 1112.05 2957.28 1112.05 Q2951.47 1112.05 2948.39 1107.46 Q2945.34 1102.86 2945.34 1094.13 Q2945.34 1085.38 2948.39 1080.8 Q2951.47 1076.19 2957.28 1076.19 Z" fill="#000000" fill-rule="nonzero" fill-opacity="1" /><path clip-path="url(#clip440)" d="M2978.25 1107.44 L2985.89 1107.44 L2985.89 1081.07 L2977.58 1082.74 L2977.58 1078.48 L2985.85 1076.82 L2990.52 1076.82 L2990.52 1107.44 L2998.16 1107.44 L2998.16 1111.38 L2978.25 1111.38 L2978.25 1107.44 Z" fill="#000000" fill-rule="nonzero" fill-opacity="1" /><polyline clip-path="url(#clip442)" style="stroke:#000000; stroke-linecap:round; stroke-linejoin:round; stroke-width:2; stroke-opacity:0.1; fill:none" points="271.839,1042.58 3089.76,1042.58 "/>
<polyline clip-path="url(#clip442)" style="stroke:#000000; stroke-linecap:round; stroke-linejoin:round; stroke-width:2; stroke-opacity:0.1; fill:none" points="271.839,609.391 3089.76,609.391 "/>
<polyline clip-path="url(#clip442)" style="stroke:#000000; stroke-linecap:round; stroke-linejoin:round; stroke-width:2; stroke-opacity:0.1; fill:none" points="271.839,176.205 3089.76,176.205 "/>
<polyline clip-path="url(#clip440)" style="stroke:#000000; stroke-linecap:round; stroke-linejoin:round; stroke-width:4; stroke-opacity:1; fill:none" points="271.839,1042.58 271.839,110.236 "/>
<polyline clip-path="url(#clip440)" style="stroke:#000000; stroke-linecap:round; stroke-linejoin:round; stroke-width:4; stroke-opacity:1; fill:none" points="271.839,1042.58 290.737,1042.58 "/>
<polyline clip-path="url(#clip440)" style="stroke:#000000; stroke-linecap:round; stroke-linejoin:round; stroke-width:4; stroke-opacity:1; fill:none" points="271.839,609.391 290.737,609.391 "/>
<polyline clip-path="url(#clip440)" style="stroke:#000000; stroke-linecap:round; stroke-linejoin:round; stroke-width:4; stroke-opacity:1; fill:none" points="271.839,176.205 290.737,176.205 "/>
<path clip-path="url(#clip440)" d="M153.134 1062.37 L160.772 1062.37 L160.772 1036 L152.462 1037.67 L152.462 1033.41 L160.726 1031.74 L165.402 1031.74 L165.402 1062.37 L173.041 1062.37 L173.041 1066.3 L153.134 1066.3 L153.134 1062.37 Z" fill="#000000" fill-rule="nonzero" fill-opacity="1" /><path clip-path="url(#clip440)" d="M192.485 1034.82 Q188.874 1034.82 187.045 1038.39 Q185.24 1041.93 185.24 1049.06 Q185.24 1056.16 187.045 1059.73 Q188.874 1063.27 192.485 1063.27 Q196.119 1063.27 197.925 1059.73 Q199.754 1056.16 199.754 1049.06 Q199.754 1041.93 197.925 1038.39 Q196.119 1034.82 192.485 1034.82 M192.485 1031.12 Q198.295 1031.12 201.351 1035.72 Q204.43 1040.31 204.43 1049.06 Q204.43 1057.78 201.351 1062.39 Q198.295 1066.97 192.485 1066.97 Q186.675 1066.97 183.596 1062.39 Q180.541 1057.78 180.541 1049.06 Q180.541 1040.31 183.596 1035.72 Q186.675 1031.12 192.485 1031.12 Z" fill="#000000" fill-rule="nonzero" fill-opacity="1" /><path clip-path="url(#clip440)" d="M214.134 1013.31 Q211.2 1013.31 209.715 1016.21 Q208.248 1019.09 208.248 1024.88 Q208.248 1030.66 209.715 1033.55 Q211.2 1036.43 214.134 1036.43 Q217.087 1036.43 218.554 1033.55 Q220.04 1030.66 220.04 1024.88 Q220.04 1019.09 218.554 1016.21 Q217.087 1013.31 214.134 1013.31 M214.134 1010.31 Q218.855 1010.31 221.338 1014.05 Q223.839 1017.77 223.839 1024.88 Q223.839 1031.97 221.338 1035.71 Q218.855 1039.44 214.134 1039.44 Q209.414 1039.44 206.912 1035.71 Q204.43 1031.97 204.43 1024.88 Q204.43 1017.77 206.912 1014.05 Q209.414 1010.31 214.134 1010.31 Z" fill="#000000" fill-rule="nonzero" fill-opacity="1" /><path clip-path="url(#clip440)" d="M155.823 629.183 L163.462 629.183 L163.462 602.817 L155.152 604.484 L155.152 600.225 L163.416 598.558 L168.092 598.558 L168.092 629.183 L175.73 629.183 L175.73 633.118 L155.823 633.118 L155.823 629.183 Z" fill="#000000" fill-rule="nonzero" fill-opacity="1" /><path clip-path="url(#clip440)" d="M195.175 601.637 Q191.564 601.637 189.735 605.202 Q187.929 608.743 187.929 615.873 Q187.929 622.979 189.735 626.544 Q191.564 630.086 195.175 630.086 Q198.809 630.086 200.615 626.544 Q202.443 622.979 202.443 615.873 Q202.443 608.743 200.615 605.202 Q198.809 601.637 195.175 601.637 M195.175 597.933 Q200.985 597.933 204.04 602.54 Q207.119 607.123 207.119 615.873 Q207.119 624.6 204.04 629.206 Q200.985 633.789 195.175 633.789 Q189.365 633.789 186.286 629.206 Q183.23 624.6 183.23 615.873 Q183.23 607.123 186.286 602.54 Q189.365 597.933 195.175 597.933 Z" fill="#000000" fill-rule="nonzero" fill-opacity="1" /><path clip-path="url(#clip440)" d="M207.665 602.51 L213.871 602.51 L213.871 581.088 L207.119 582.443 L207.119 578.982 L213.833 577.628 L217.633 577.628 L217.633 602.51 L223.839 602.51 L223.839 605.708 L207.665 605.708 L207.665 602.51 Z" fill="#000000" fill-rule="nonzero" fill-opacity="1" /><path clip-path="url(#clip440)" d="M154.713 195.998 L162.352 195.998 L162.352 169.632 L154.042 171.299 L154.042 167.04 L162.306 165.373 L166.982 165.373 L166.982 195.998 L174.621 195.998 L174.621 199.933 L154.713 199.933 L154.713 195.998 Z" fill="#000000" fill-rule="nonzero" fill-opacity="1" /><path clip-path="url(#clip440)" d="M194.065 168.452 Q190.454 168.452 188.625 172.016 Q186.82 175.558 186.82 182.688 Q186.82 189.794 188.625 193.359 Q190.454 196.9 194.065 196.9 Q197.699 196.9 199.505 193.359 Q201.334 189.794 201.334 182.688 Q201.334 175.558 199.505 172.016 Q197.699 168.452 194.065 168.452 M194.065 164.748 Q199.875 164.748 202.931 169.354 Q206.009 173.938 206.009 182.688 Q206.009 191.414 202.931 196.021 Q199.875 200.604 194.065 200.604 Q188.255 200.604 185.176 196.021 Q182.121 191.414 182.121 182.688 Q182.121 173.938 185.176 169.354 Q188.255 164.748 194.065 164.748 Z" fill="#000000" fill-rule="nonzero" fill-opacity="1" /><path clip-path="url(#clip440)" d="M210.58 169.325 L223.839 169.325 L223.839 172.522 L206.009 172.522 L206.009 169.325 Q208.172 167.087 211.896 163.325 Q215.639 159.545 216.598 158.454 Q218.423 156.404 219.137 154.994 Q219.871 153.564 219.871 152.191 Q219.871 149.953 218.291 148.543 Q216.73 147.132 214.21 147.132 Q212.423 147.132 210.429 147.753 Q208.454 148.373 206.198 149.633 L206.198 145.797 Q208.492 144.875 210.486 144.405 Q212.479 143.935 214.134 143.935 Q218.498 143.935 221.093 146.116 Q223.689 148.298 223.689 151.947 Q223.689 153.677 223.03 155.238 Q222.391 156.78 220.68 158.887 Q220.209 159.432 217.689 162.047 Q215.169 164.642 210.58 169.325 Z" fill="#000000" fill-rule="nonzero" fill-opacity="1" /><path clip-path="url(#clip440)" d="M83.4268 952.253 L70.6636 952.253 L70.6636 962.757 L65.38 962.757 L65.38 945.888 L85.7821 945.888 Q88.4239 949.611 89.7925 954.099 Q91.1293 958.587 91.1293 963.68 Q91.1293 974.82 84.6363 981.122 Q78.1114 987.392 66.494 987.392 Q54.8448 987.392 48.3518 981.122 Q41.8269 974.82 41.8269 963.68 Q41.8269 959.033 42.9727 954.863 Q44.1186 950.662 46.3466 947.129 L53.1897 947.129 Q50.166 950.694 48.6382 954.704 Q47.1104 958.714 47.1104 963.139 Q47.1104 971.86 51.9802 976.252 Q56.85 980.612 66.494 980.612 Q76.1062 980.612 80.976 976.252 Q85.8458 971.86 85.8458 963.139 Q85.8458 959.733 85.2729 957.059 Q84.6681 954.386 83.4268 952.253 Z" fill="#000000" fill-rule="nonzero" fill-opacity="1" /><path clip-path="url(#clip440)" d="M70.9182 903.906 L73.7828 903.906 L73.7828 930.833 Q79.8302 930.451 83.013 927.204 Q86.1641 923.926 86.1641 918.101 Q86.1641 914.727 85.3365 911.576 Q84.509 908.393 82.8539 905.274 L88.3921 905.274 Q89.7289 908.425 90.4291 911.735 Q91.1293 915.046 91.1293 918.451 Q91.1293 926.981 86.1641 931.978 Q81.1988 936.944 72.7324 936.944 Q63.9796 936.944 58.8552 932.233 Q53.699 927.491 53.699 919.47 Q53.699 912.277 58.3459 908.107 Q62.9611 903.906 70.9182 903.906 M69.1995 909.762 Q64.3933 909.826 61.5288 912.468 Q58.6642 915.077 58.6642 919.406 Q58.6642 924.308 61.4333 927.268 Q64.2024 930.196 69.2313 930.642 L69.1995 909.762 Z" fill="#000000" fill-rule="nonzero" fill-opacity="1" /><path clip-path="url(#clip440)" d="M68.6902 864.661 L90.2063 864.661 L90.2063 870.518 L68.8812 870.518 Q63.8204 870.518 61.306 872.491 Q58.7915 874.464 58.7915 878.411 Q58.7915 883.153 61.8152 885.891 Q64.8389 888.628 70.0588 888.628 L90.2063 888.628 L90.2063 894.516 L54.5583 894.516 L54.5583 888.628 L60.0965 888.628 Q56.8818 886.527 55.2904 883.695 Q53.699 880.83 53.699 877.106 Q53.699 870.963 57.5184 867.812 Q61.306 864.661 68.6902 864.661 Z" fill="#000000" fill-rule="nonzero" fill-opacity="1" /><path clip-path="url(#clip440)" d="M58.6642 839.166 Q58.6642 843.877 62.3563 846.614 Q66.0166 849.352 72.4141 849.352 Q78.8117 849.352 82.5038 846.646 Q86.1641 843.909 86.1641 839.166 Q86.1641 834.488 82.4719 831.75 Q78.7798 829.013 72.4141 829.013 Q66.0803 829.013 62.3881 831.75 Q58.6642 834.488 58.6642 839.166 M53.699 839.166 Q53.699 831.528 58.6642 827.167 Q63.6295 822.807 72.4141 822.807 Q81.167 822.807 86.1641 827.167 Q91.1293 831.528 91.1293 839.166 Q91.1293 846.837 86.1641 851.198 Q81.167 855.526 72.4141 855.526 Q63.6295 855.526 58.6642 851.198 Q53.699 846.837 53.699 839.166 Z" fill="#000000" fill-rule="nonzero" fill-opacity="1" /><path clip-path="url(#clip440)" d="M61.4015 785.344 Q57.4547 783.148 55.5768 780.093 Q53.699 777.037 53.699 772.899 Q53.699 767.329 57.6139 764.306 Q61.4969 761.282 68.6902 761.282 L90.2063 761.282 L90.2063 767.17 L68.8812 767.17 Q63.7568 767.17 61.2741 768.985 Q58.7915 770.799 58.7915 774.523 Q58.7915 779.074 61.8152 781.716 Q64.8389 784.358 70.0588 784.358 L90.2063 784.358 L90.2063 790.246 L68.8812 790.246 Q63.7249 790.246 61.2741 792.06 Q58.7915 793.874 58.7915 797.662 Q58.7915 802.15 61.8471 804.792 Q64.8708 807.433 70.0588 807.433 L90.2063 807.433 L90.2063 813.322 L54.5583 813.322 L54.5583 807.433 L60.0965 807.433 Q56.8182 805.428 55.2586 802.627 Q53.699 799.826 53.699 795.975 Q53.699 792.092 55.6723 789.387 Q57.6457 786.649 61.4015 785.344 Z" fill="#000000" fill-rule="nonzero" fill-opacity="1" /><path clip-path="url(#clip440)" d="M70.9182 719.109 L73.7828 719.109 L73.7828 746.036 Q79.8302 745.654 83.013 742.408 Q86.1641 739.129 86.1641 733.305 Q86.1641 729.931 85.3365 726.78 Q84.509 723.597 82.8539 720.478 L88.3921 720.478 Q89.7289 723.629 90.4291 726.939 Q91.1293 730.249 91.1293 733.655 Q91.1293 742.185 86.1641 747.182 Q81.1988 752.147 72.7324 752.147 Q63.9796 752.147 58.8552 747.437 Q53.699 742.694 53.699 734.673 Q53.699 727.48 58.3459 723.311 Q62.9611 719.109 70.9182 719.109 M69.1995 724.966 Q64.3933 725.029 61.5288 727.671 Q58.6642 730.281 58.6642 734.61 Q58.6642 739.511 61.4333 742.471 Q64.2024 745.4 69.2313 745.845 L69.1995 724.966 Z" fill="#000000" fill-rule="nonzero" fill-opacity="1" /><path clip-path="url(#clip440)" d="M55.6087 686.771 L61.1468 686.771 Q59.8737 689.254 59.2371 691.928 Q58.6006 694.601 58.6006 697.466 Q58.6006 701.826 59.9373 704.022 Q61.2741 706.187 63.9477 706.187 Q65.9848 706.187 67.1624 704.627 Q68.3083 703.068 69.3586 698.357 L69.8042 696.352 Q71.141 690.113 73.5918 687.503 Q76.0108 684.862 80.3713 684.862 Q85.3365 684.862 88.2329 688.808 Q91.1293 692.723 91.1293 699.598 Q91.1293 702.463 90.5564 705.582 Q90.0153 708.669 88.9013 712.107 L82.8539 712.107 Q84.5408 708.86 85.4002 705.709 Q86.2277 702.558 86.2277 699.471 Q86.2277 695.333 84.8273 693.105 Q83.395 690.877 80.8169 690.877 Q78.4297 690.877 77.1566 692.501 Q75.8834 694.092 74.7058 699.535 L74.2284 701.572 Q73.0825 707.014 70.7272 709.433 Q68.3401 711.852 64.2024 711.852 Q59.1735 711.852 56.4362 708.288 Q53.699 704.723 53.699 698.166 Q53.699 694.92 54.1764 692.055 Q54.6538 689.19 55.6087 686.771 Z" fill="#000000" fill-rule="nonzero" fill-opacity="1" /><path clip-path="url(#clip440)" d="M42.6863 665.128 L42.6863 659.717 L96.2537 676.268 L96.2537 681.679 L42.6863 665.128 Z" fill="#000000" fill-rule="nonzero" fill-opacity="1" /><path clip-path="url(#clip440)" d="M47.9698 646.89 L84.9227 646.89 L84.9227 639.124 Q84.9227 629.289 80.4668 624.738 Q76.0108 620.154 66.3985 620.154 Q56.85 620.154 52.4258 624.738 Q47.9698 629.289 47.9698 639.124 L47.9698 646.89 M42.6863 653.32 L42.6863 640.111 Q42.6863 626.297 48.4472 619.836 Q54.1764 613.375 66.3985 613.375 Q78.6844 613.375 84.4453 619.868 Q90.2063 626.361 90.2063 640.111 L90.2063 653.32 L42.6863 653.32 Z" fill="#000000" fill-rule="nonzero" fill-opacity="1" /><path clip-path="url(#clip440)" d="M72.2868 587.18 Q72.2868 594.278 73.9101 597.015 Q75.5333 599.752 79.4482 599.752 Q82.5674 599.752 84.4135 597.715 Q86.2277 595.646 86.2277 592.113 Q86.2277 587.244 82.7902 584.315 Q79.3209 581.355 73.5918 581.355 L72.2868 581.355 L72.2868 587.18 M69.8679 575.499 L90.2063 575.499 L90.2063 581.355 L84.7954 581.355 Q88.0419 583.361 89.6015 586.352 Q91.1293 589.344 91.1293 593.673 Q91.1293 599.147 88.0738 602.394 Q84.9864 605.609 79.8302 605.609 Q73.8146 605.609 70.759 601.598 Q67.7035 597.556 67.7035 589.567 L67.7035 581.355 L67.1306 581.355 Q63.0884 581.355 60.8922 584.029 Q58.6642 586.671 58.6642 591.477 Q58.6642 594.532 59.3963 597.429 Q60.1283 600.325 61.5924 602.999 L56.1816 602.999 Q54.9403 599.784 54.3355 596.76 Q53.699 593.737 53.699 590.872 Q53.699 583.138 57.7094 579.318 Q61.7197 575.499 69.8679 575.499 Z" fill="#000000" fill-rule="nonzero" fill-opacity="1" /><path clip-path="url(#clip440)" d="M93.5165 548.604 Q99.8822 551.086 101.824 553.442 Q103.765 555.797 103.765 559.744 L103.765 564.423 L98.8636 564.423 L98.8636 560.985 Q98.8636 558.566 97.7178 557.229 Q96.572 555.892 92.307 554.269 L89.6334 553.219 L54.5583 567.637 L54.5583 561.431 L82.4401 550.291 L54.5583 539.151 L54.5583 532.944 L93.5165 548.604 Z" fill="#000000" fill-rule="nonzero" fill-opacity="1" /><path clip-path="url(#clip440)" d="M40.7447 490.071 Q48.0653 494.336 55.2267 496.405 Q62.3881 498.474 69.7405 498.474 Q77.0929 498.474 84.318 496.405 Q91.5113 494.304 98.8 490.071 L98.8 495.164 Q91.3203 499.938 84.0952 502.325 Q76.8701 504.68 69.7405 504.68 Q62.6428 504.68 55.4495 502.325 Q48.2563 499.97 40.7447 495.164 L40.7447 490.071 Z" fill="#000000" fill-rule="nonzero" fill-opacity="1" /><path clip-path="url(#clip440)" d="M47.9698 472.024 L84.9227 472.024 L84.9227 464.258 Q84.9227 454.423 80.4668 449.872 Q76.0108 445.288 66.3985 445.288 Q56.85 445.288 52.4258 449.872 Q47.9698 454.423 47.9698 464.258 L47.9698 472.024 M42.6863 478.454 L42.6863 465.245 Q42.6863 451.431 48.4472 444.97 Q54.1764 438.509 66.3985 438.509 Q78.6844 438.509 84.4453 445.002 Q90.2063 451.495 90.2063 465.245 L90.2063 478.454 L42.6863 478.454 Z" fill="#000000" fill-rule="nonzero" fill-opacity="1" /><path clip-path="url(#clip440)" d="M70.9182 398.023 L73.7828 398.023 L73.7828 424.95 Q79.8302 424.568 83.013 421.321 Q86.1641 418.043 86.1641 412.218 Q86.1641 408.845 85.3365 405.694 Q84.509 402.511 82.8539 399.392 L88.3921 399.392 Q89.7289 402.543 90.4291 405.853 Q91.1293 409.163 91.1293 412.569 Q91.1293 421.099 86.1641 426.096 Q81.1988 431.061 72.7324 431.061 Q63.9796 431.061 58.8552 426.35 Q53.699 421.608 53.699 413.587 Q53.699 406.394 58.3459 402.224 Q62.9611 398.023 70.9182 398.023 M69.1995 403.879 Q64.3933 403.943 61.5288 406.585 Q58.6642 409.195 58.6642 413.523 Q58.6642 418.425 61.4333 421.385 Q64.2024 424.313 69.2313 424.759 L69.1995 403.879 Z" fill="#000000" fill-rule="nonzero" fill-opacity="1" /><path clip-path="url(#clip440)" d="M68.6902 358.778 L90.2063 358.778 L90.2063 364.635 L68.8812 364.635 Q63.8204 364.635 61.306 366.608 Q58.7915 368.582 58.7915 372.528 Q58.7915 377.271 61.8152 380.008 Q64.8389 382.745 70.0588 382.745 L90.2063 382.745 L90.2063 388.634 L54.5583 388.634 L54.5583 382.745 L60.0965 382.745 Q56.8818 380.645 55.2904 377.812 Q53.699 374.947 53.699 371.223 Q53.699 365.08 57.5184 361.929 Q61.306 358.778 68.6902 358.778 Z" fill="#000000" fill-rule="nonzero" fill-opacity="1" /><path clip-path="url(#clip440)" d="M61.4015 319.343 Q57.4547 317.147 55.5768 314.091 Q53.699 311.036 53.699 306.898 Q53.699 301.328 57.6139 298.304 Q61.4969 295.28 68.6902 295.28 L90.2063 295.28 L90.2063 301.169 L68.8812 301.169 Q63.7568 301.169 61.2741 302.983 Q58.7915 304.797 58.7915 308.521 Q58.7915 313.073 61.8152 315.714 Q64.8389 318.356 70.0588 318.356 L90.2063 318.356 L90.2063 324.244 L68.8812 324.244 Q63.7249 324.244 61.2741 326.059 Q58.7915 327.873 58.7915 331.66 Q58.7915 336.148 61.8471 338.79 Q64.8708 341.432 70.0588 341.432 L90.2063 341.432 L90.2063 347.32 L54.5583 347.32 L54.5583 341.432 L60.0965 341.432 Q56.8182 339.427 55.2586 336.626 Q53.699 333.825 53.699 329.974 Q53.699 326.09 55.6723 323.385 Q57.6457 320.648 61.4015 319.343 Z" fill="#000000" fill-rule="nonzero" fill-opacity="1" /><path clip-path="url(#clip440)" d="M72.2868 267.399 Q72.2868 274.496 73.9101 277.234 Q75.5333 279.971 79.4482 279.971 Q82.5674 279.971 84.4135 277.934 Q86.2277 275.865 86.2277 272.332 Q86.2277 267.462 82.7902 264.534 Q79.3209 261.574 73.5918 261.574 L72.2868 261.574 L72.2868 267.399 M69.8679 255.718 L90.2063 255.718 L90.2063 261.574 L84.7954 261.574 Q88.0419 263.579 89.6015 266.571 Q91.1293 269.563 91.1293 273.892 Q91.1293 279.366 88.0738 282.613 Q84.9864 285.827 79.8302 285.827 Q73.8146 285.827 70.759 281.817 Q67.7035 277.775 67.7035 269.786 L67.7035 261.574 L67.1306 261.574 Q63.0884 261.574 60.8922 264.248 Q58.6642 266.889 58.6642 271.696 Q58.6642 274.751 59.3963 277.647 Q60.1283 280.544 61.5924 283.217 L56.1816 283.217 Q54.9403 280.003 54.3355 276.979 Q53.699 273.955 53.699 271.091 Q53.699 263.356 57.7094 259.537 Q61.7197 255.718 69.8679 255.718 Z" fill="#000000" fill-rule="nonzero" fill-opacity="1" /><path clip-path="url(#clip440)" d="M60.0328 222.998 Q59.4599 223.985 59.2053 225.162 Q58.9188 226.308 58.9188 227.708 Q58.9188 232.674 62.1653 235.347 Q65.38 237.989 71.4274 237.989 L90.2063 237.989 L90.2063 243.877 L54.5583 243.877 L54.5583 237.989 L60.0965 237.989 Q56.85 236.143 55.2904 233.183 Q53.699 230.223 53.699 225.99 Q53.699 225.385 53.7944 224.653 Q53.8581 223.921 54.0172 223.03 L60.0328 222.998 Z" fill="#000000" fill-rule="nonzero" fill-opacity="1" /><path clip-path="url(#clip440)" d="M40.6811 217.078 L40.6811 211.189 L69.9315 211.189 L54.5583 193.716 L54.5583 186.236 L71.2365 205.142 L90.2063 185.44 L90.2063 193.079 L72.7961 211.189 L90.2063 211.189 L90.2063 217.078 L40.6811 217.078 Z" fill="#000000" fill-rule="nonzero" fill-opacity="1" /><path clip-path="url(#clip440)" d="M40.7447 180.029 L40.7447 174.937 Q48.2563 170.163 55.4495 167.807 Q62.6428 165.42 69.7405 165.42 Q76.8701 165.42 84.0952 167.807 Q91.3203 170.163 98.8 174.937 L98.8 180.029 Q91.5113 175.796 84.318 173.727 Q77.0929 171.627 69.7405 171.627 Q62.3881 171.627 55.2267 173.727 Q48.0653 175.796 40.7447 180.029 Z" fill="#000000" fill-rule="nonzero" fill-opacity="1" /><path clip-path="url(#clip442)" d="M345.105 119.747 L345.105 1042.58 L367.649 1042.58 L367.649 119.747 L345.105 119.747 L345.105 119.747  Z" fill="#009af9" fill-rule="evenodd" fill-opacity="0.5"/>
<polyline clip-path="url(#clip442)" style="stroke:#000000; stroke-linecap:round; stroke-linejoin:round; stroke-width:4; stroke-opacity:0.5; fill:none" points="345.105,119.747 345.105,1042.58 367.649,1042.58 367.649,119.747 345.105,119.747 "/>
<path clip-path="url(#clip442)" d="M542.36 148.283 L542.36 1042.58 L564.903 1042.58 L564.903 148.283 L542.36 148.283 L542.36 148.283  Z" fill="#009af9" fill-rule="evenodd" fill-opacity="0.5"/>
<polyline clip-path="url(#clip442)" style="stroke:#000000; stroke-linecap:round; stroke-linejoin:round; stroke-width:4; stroke-opacity:0.5; fill:none" points="542.36,148.283 542.36,1042.58 564.903,1042.58 564.903,148.283 542.36,148.283 "/>
<path clip-path="url(#clip442)" d="M739.615 185.855 L739.615 1042.58 L762.158 1042.58 L762.158 185.855 L739.615 185.855 L739.615 185.855  Z" fill="#009af9" fill-rule="evenodd" fill-opacity="0.5"/>
<polyline clip-path="url(#clip442)" style="stroke:#000000; stroke-linecap:round; stroke-linejoin:round; stroke-width:4; stroke-opacity:0.5; fill:none" points="739.615,185.855 739.615,1042.58 762.158,1042.58 762.158,185.855 739.615,185.855 "/>
<path clip-path="url(#clip442)" d="M936.869 126.847 L936.869 1042.58 L959.413 1042.58 L959.413 126.847 L936.869 126.847 L936.869 126.847  Z" fill="#009af9" fill-rule="evenodd" fill-opacity="0.5"/>
<polyline clip-path="url(#clip442)" style="stroke:#000000; stroke-linecap:round; stroke-linejoin:round; stroke-width:4; stroke-opacity:0.5; fill:none" points="936.869,126.847 936.869,1042.58 959.413,1042.58 959.413,126.847 936.869,126.847 "/>
<path clip-path="url(#clip442)" d="M1134.12 110.236 L1134.12 1042.58 L1156.67 1042.58 L1156.67 110.236 L1134.12 110.236 L1134.12 110.236  Z" fill="#009af9" fill-rule="evenodd" fill-opacity="0.5"/>
<polyline clip-path="url(#clip442)" style="stroke:#000000; stroke-linecap:round; stroke-linejoin:round; stroke-width:4; stroke-opacity:0.5; fill:none" points="1134.12,110.236 1134.12,1042.58 1156.67,1042.58 1156.67,110.236 1134.12,110.236 "/>
<path clip-path="url(#clip442)" d="M1331.38 174.333 L1331.38 1042.58 L1353.92 1042.58 L1353.92 174.333 L1331.38 174.333 L1331.38 174.333  Z" fill="#009af9" fill-rule="evenodd" fill-opacity="0.5"/>
<polyline clip-path="url(#clip442)" style="stroke:#000000; stroke-linecap:round; stroke-linejoin:round; stroke-width:4; stroke-opacity:0.5; fill:none" points="1331.38,174.333 1331.38,1042.58 1353.92,1042.58 1353.92,174.333 1331.38,174.333 "/>
<path clip-path="url(#clip442)" d="M1528.63 138.795 L1528.63 1042.58 L1551.18 1042.58 L1551.18 138.795 L1528.63 138.795 L1528.63 138.795  Z" fill="#009af9" fill-rule="evenodd" fill-opacity="0.5"/>
<polyline clip-path="url(#clip442)" style="stroke:#000000; stroke-linecap:round; stroke-linejoin:round; stroke-width:4; stroke-opacity:0.5; fill:none" points="1528.63,138.795 1528.63,1042.58 1551.18,1042.58 1551.18,138.795 1528.63,138.795 "/>
<path clip-path="url(#clip442)" d="M1725.89 198.129 L1725.89 1042.58 L1748.43 1042.58 L1748.43 198.129 L1725.89 198.129 L1725.89 198.129  Z" fill="#009af9" fill-rule="evenodd" fill-opacity="0.5"/>
<polyline clip-path="url(#clip442)" style="stroke:#000000; stroke-linecap:round; stroke-linejoin:round; stroke-width:4; stroke-opacity:0.5; fill:none" points="1725.89,198.129 1725.89,1042.58 1748.43,1042.58 1748.43,198.129 1725.89,198.129 "/>
<path clip-path="url(#clip442)" d="M1923.14 204.58 L1923.14 1042.58 L1945.69 1042.58 L1945.69 204.58 L1923.14 204.58 L1923.14 204.58  Z" fill="#009af9" fill-rule="evenodd" fill-opacity="0.5"/>
<polyline clip-path="url(#clip442)" style="stroke:#000000; stroke-linecap:round; stroke-linejoin:round; stroke-width:4; stroke-opacity:0.5; fill:none" points="1923.14,204.58 1923.14,1042.58 1945.69,1042.58 1945.69,204.58 1923.14,204.58 "/>
<path clip-path="url(#clip442)" d="M2120.4 306.607 L2120.4 1042.58 L2142.94 1042.58 L2142.94 306.607 L2120.4 306.607 L2120.4 306.607  Z" fill="#009af9" fill-rule="evenodd" fill-opacity="0.5"/>
<polyline clip-path="url(#clip442)" style="stroke:#000000; stroke-linecap:round; stroke-linejoin:round; stroke-width:4; stroke-opacity:0.5; fill:none" points="2120.4,306.607 2120.4,1042.58 2142.94,1042.58 2142.94,306.607 2120.4,306.607 "/>
<path clip-path="url(#clip442)" d="M2317.65 739.792 L2317.65 1042.58 L2340.2 1042.58 L2340.2 739.792 L2317.65 739.792 L2317.65 739.792  Z" fill="#009af9" fill-rule="evenodd" fill-opacity="0.5"/>
<polyline clip-path="url(#clip442)" style="stroke:#000000; stroke-linecap:round; stroke-linejoin:round; stroke-width:4; stroke-opacity:0.5; fill:none" points="2317.65,739.792 2317.65,1042.58 2340.2,1042.58 2340.2,739.792 2317.65,739.792 "/>
<circle clip-path="url(#clip442)" style="fill:#009af9; stroke:none; fill-opacity:0" cx="356.377" cy="119.747" r="2"/>
<circle clip-path="url(#clip442)" style="fill:#009af9; stroke:none; fill-opacity:0" cx="553.632" cy="148.283" r="2"/>
<circle clip-path="url(#clip442)" style="fill:#009af9; stroke:none; fill-opacity:0" cx="750.886" cy="185.855" r="2"/>
<circle clip-path="url(#clip442)" style="fill:#009af9; stroke:none; fill-opacity:0" cx="948.141" cy="126.847" r="2"/>
<circle clip-path="url(#clip442)" style="fill:#009af9; stroke:none; fill-opacity:0" cx="1145.4" cy="110.236" r="2"/>
<circle clip-path="url(#clip442)" style="fill:#009af9; stroke:none; fill-opacity:0" cx="1342.65" cy="174.333" r="2"/>
<circle clip-path="url(#clip442)" style="fill:#009af9; stroke:none; fill-opacity:0" cx="1539.91" cy="138.795" r="2"/>
<circle clip-path="url(#clip442)" style="fill:#009af9; stroke:none; fill-opacity:0" cx="1737.16" cy="198.129" r="2"/>
<circle clip-path="url(#clip442)" style="fill:#009af9; stroke:none; fill-opacity:0" cx="1934.41" cy="204.58" r="2"/>
<circle clip-path="url(#clip442)" style="fill:#009af9; stroke:none; fill-opacity:0" cx="2131.67" cy="306.607" r="2"/>
<circle clip-path="url(#clip442)" style="fill:#009af9; stroke:none; fill-opacity:0" cx="2328.92" cy="739.792" r="2"/>
</svg>
