<?xml version="1.0" encoding="utf-8"?>
<svg xmlns="http://www.w3.org/2000/svg" xmlns:xlink="http://www.w3.org/1999/xlink" width="800" height="300" viewBox="0 0 3200 1200">
<defs>
  <clipPath id="clip730">
    <rect x="0" y="0" width="3200" height="1200"/>
  </clipPath>
</defs>
<path clip-path="url(#clip730)" d="M0 1200 L3200 1200 L3200 0 L0 0  Z" fill="#ffffff" fill-rule="evenodd" fill-opacity="1"/>
<defs>
  <clipPath id="clip731">
    <rect x="640" y="0" width="2241" height="1200"/>
  </clipPath>
</defs>
<path clip-path="url(#clip730)" d="M271.839 1042.58 L3089.76 1042.58 L3089.76 110.236 L271.839 110.236  Z" fill="#ffffff" fill-rule="evenodd" fill-opacity="1"/>
<defs>
  <clipPath id="clip732">
    <rect x="271" y="110" width="2819" height="933"/>
  </clipPath>
</defs>
<polyline clip-path="url(#clip732)" style="stroke:#000000; stroke-linecap:round; stroke-linejoin:round; stroke-width:2; stroke-opacity:0.1; fill:none" points="553.632,1042.58 553.632,110.236 "/>
<polyline clip-path="url(#clip732)" style="stroke:#000000; stroke-linecap:round; stroke-linejoin:round; stroke-width:2; stroke-opacity:0.1; fill:none" points="1399.01,1042.58 1399.01,110.236 "/>
<polyline clip-path="url(#clip732)" style="stroke:#000000; stroke-linecap:round; stroke-linejoin:round; stroke-width:2; stroke-opacity:0.1; fill:none" points="2272.57,1042.58 2272.57,110.236 "/>
<polyline clip-path="url(#clip730)" style="stroke:#000000; stroke-linecap:round; stroke-linejoin:round; stroke-width:4; stroke-opacity:1; fill:none" points="271.839,1042.58 3089.76,1042.58 "/>
<polyline clip-path="url(#clip730)" style="stroke:#000000; stroke-linecap:round; stroke-linejoin:round; stroke-width:4; stroke-opacity:1; fill:none" points="553.632,1042.58 553.632,1023.68 "/>
<polyline clip-path="url(#clip730)" style="stroke:#000000; stroke-linecap:round; stroke-linejoin:round; stroke-width:4; stroke-opacity:1; fill:none" points="1399.01,1042.58 1399.01,1023.68 "/>
<polyline clip-path="url(#clip730)" style="stroke:#000000; stroke-linecap:round; stroke-linejoin:round; stroke-width:4; stroke-opacity:1; fill:none" points="2272.57,1042.58 2272.57,1023.68 "/>
<path clip-path="url(#clip730)" d="M425.426 1107.44 L441.746 1107.44 L441.746 1111.38 L419.801 1111.38 L419.801 1107.44 Q422.463 1104.69 427.047 1100.06 Q431.653 1095.4 432.834 1094.06 Q435.079 1091.54 435.959 1089.8 Q436.861 1088.04 436.861 1086.35 Q436.861 1083.6 434.917 1081.86 Q432.996 1080.13 429.894 1080.13 Q427.695 1080.13 425.241 1080.89 Q422.811 1081.65 420.033 1083.2 L420.033 1078.48 Q422.857 1077.35 425.311 1076.77 Q427.764 1076.19 429.801 1076.19 Q435.172 1076.19 438.366 1078.88 Q441.561 1081.56 441.561 1086.05 Q441.561 1088.18 440.75 1090.1 Q439.963 1092 437.857 1094.59 Q437.278 1095.26 434.176 1098.48 Q431.074 1101.68 425.426 1107.44 Z" fill="#000000" fill-rule="nonzero" fill-opacity="1" /><path clip-path="url(#clip730)" d="M461.56 1079.89 Q457.949 1079.89 456.121 1083.46 Q454.315 1087 454.315 1094.13 Q454.315 1101.24 456.121 1104.8 Q457.949 1108.34 461.56 1108.34 Q465.195 1108.34 467 1104.8 Q468.829 1101.24 468.829 1094.13 Q468.829 1087 467 1083.46 Q465.195 1079.89 461.56 1079.89 M461.56 1076.19 Q467.371 1076.19 470.426 1080.8 Q473.505 1085.38 473.505 1094.13 Q473.505 1102.86 470.426 1107.46 Q467.371 1112.05 461.56 1112.05 Q455.75 1112.05 452.672 1107.46 Q449.616 1102.86 449.616 1094.13 Q449.616 1085.38 452.672 1080.8 Q455.75 1076.19 461.56 1076.19 Z" fill="#000000" fill-rule="nonzero" fill-opacity="1" /><path clip-path="url(#clip730)" d="M485.75 1107.44 L502.069 1107.44 L502.069 1111.38 L480.125 1111.38 L480.125 1107.44 Q482.787 1104.69 487.37 1100.06 Q491.977 1095.4 493.157 1094.06 Q495.403 1091.54 496.282 1089.8 Q497.185 1088.04 497.185 1086.35 Q497.185 1083.6 495.241 1081.86 Q493.319 1080.13 490.218 1080.13 Q488.019 1080.13 485.565 1080.89 Q483.134 1081.65 480.357 1083.2 L480.357 1078.48 Q483.181 1077.35 485.634 1076.77 Q488.088 1076.19 490.125 1076.19 Q495.495 1076.19 498.69 1078.88 Q501.884 1081.56 501.884 1086.05 Q501.884 1088.18 501.074 1090.1 Q500.287 1092 498.181 1094.59 Q497.602 1095.26 494.5 1098.48 Q491.398 1101.68 485.75 1107.44 Z" fill="#000000" fill-rule="nonzero" fill-opacity="1" /><path clip-path="url(#clip730)" d="M524.731 1080.89 L512.926 1099.34 L524.731 1099.34 L524.731 1080.89 M523.505 1076.82 L529.384 1076.82 L529.384 1099.34 L534.315 1099.34 L534.315 1103.23 L529.384 1103.23 L529.384 1111.38 L524.731 1111.38 L524.731 1103.23 L509.13 1103.23 L509.13 1098.71 L523.505 1076.82 Z" fill="#000000" fill-rule="nonzero" fill-opacity="1" /><path clip-path="url(#clip730)" d="M539.291 1096.49 L551.768 1096.49 L551.768 1100.29 L539.291 1100.29 L539.291 1096.49 Z" fill="#000000" fill-rule="nonzero" fill-opacity="1" /><path clip-path="url(#clip730)" d="M569.152 1079.89 Q565.541 1079.89 563.713 1083.46 Q561.907 1087 561.907 1094.13 Q561.907 1101.24 563.713 1104.8 Q565.541 1108.34 569.152 1108.34 Q572.787 1108.34 574.592 1104.8 Q576.421 1101.24 576.421 1094.13 Q576.421 1087 574.592 1083.46 Q572.787 1079.89 569.152 1079.89 M569.152 1076.19 Q574.963 1076.19 578.018 1080.8 Q581.097 1085.38 581.097 1094.13 Q581.097 1102.86 578.018 1107.46 Q574.963 1112.05 569.152 1112.05 Q563.342 1112.05 560.264 1107.46 Q557.208 1102.86 557.208 1094.13 Q557.208 1085.38 560.264 1080.8 Q563.342 1076.19 569.152 1076.19 Z" fill="#000000" fill-rule="nonzero" fill-opacity="1" /><path clip-path="url(#clip730)" d="M589.453 1110.66 L589.453 1106.4 Q591.212 1107.23 593.018 1107.67 Q594.824 1108.11 596.56 1108.11 Q601.189 1108.11 603.62 1105.01 Q606.074 1101.89 606.421 1095.54 Q605.078 1097.53 603.018 1098.6 Q600.958 1099.66 598.458 1099.66 Q593.273 1099.66 590.24 1096.54 Q587.231 1093.39 587.231 1087.95 Q587.231 1082.63 590.379 1079.41 Q593.527 1076.19 598.759 1076.19 Q604.754 1076.19 607.902 1080.8 Q611.073 1085.38 611.073 1094.13 Q611.073 1102.3 607.185 1107.19 Q603.319 1112.05 596.768 1112.05 Q595.009 1112.05 593.203 1111.7 Q591.398 1111.35 589.453 1110.66 M598.759 1096.01 Q601.907 1096.01 603.736 1093.85 Q605.587 1091.7 605.587 1087.95 Q605.587 1084.22 603.736 1082.07 Q601.907 1079.89 598.759 1079.89 Q595.611 1079.89 593.759 1082.07 Q591.93 1084.22 591.93 1087.95 Q591.93 1091.7 593.759 1093.85 Q595.611 1096.01 598.759 1096.01 Z" fill="#000000" fill-rule="nonzero" fill-opacity="1" /><path clip-path="url(#clip730)" d="M616.722 1096.49 L629.198 1096.49 L629.198 1100.29 L616.722 1100.29 L616.722 1096.49 Z" fill="#000000" fill-rule="nonzero" fill-opacity="1" /><path clip-path="url(#clip730)" d="M646.583 1079.89 Q642.971 1079.89 641.143 1083.46 Q639.337 1087 639.337 1094.13 Q639.337 1101.24 641.143 1104.8 Q642.971 1108.34 646.583 1108.34 Q650.217 1108.34 652.022 1104.8 Q653.851 1101.24 653.851 1094.13 Q653.851 1087 652.022 1083.46 Q650.217 1079.89 646.583 1079.89 M646.583 1076.19 Q652.393 1076.19 655.448 1080.8 Q658.527 1085.38 658.527 1094.13 Q658.527 1102.86 655.448 1107.46 Q652.393 1112.05 646.583 1112.05 Q640.772 1112.05 637.694 1107.46 Q634.638 1102.86 634.638 1094.13 Q634.638 1085.38 637.694 1080.8 Q640.772 1076.19 646.583 1076.19 Z" fill="#000000" fill-rule="nonzero" fill-opacity="1" /><path clip-path="url(#clip730)" d="M667.555 1107.44 L675.194 1107.44 L675.194 1081.07 L666.883 1082.74 L666.883 1078.48 L675.147 1076.82 L679.823 1076.82 L679.823 1107.44 L687.462 1107.44 L687.462 1111.38 L667.555 1111.38 L667.555 1107.44 Z" fill="#000000" fill-rule="nonzero" fill-opacity="1" /><path clip-path="url(#clip730)" d="M1270.8 1107.44 L1287.12 1107.44 L1287.12 1111.38 L1265.18 1111.38 L1265.18 1107.44 Q1267.84 1104.69 1272.42 1100.06 Q1277.03 1095.4 1278.21 1094.06 Q1280.46 1091.54 1281.34 1089.8 Q1282.24 1088.04 1282.24 1086.35 Q1282.24 1083.6 1280.29 1081.86 Q1278.37 1080.13 1275.27 1080.13 Q1273.07 1080.13 1270.62 1080.89 Q1268.19 1081.65 1265.41 1083.2 L1265.41 1078.48 Q1268.23 1077.35 1270.69 1076.77 Q1273.14 1076.19 1275.18 1076.19 Q1280.55 1076.19 1283.74 1078.88 Q1286.94 1081.56 1286.94 1086.05 Q1286.94 1088.18 1286.13 1090.1 Q1285.34 1092 1283.23 1094.59 Q1282.66 1095.26 1279.55 1098.48 Q1276.45 1101.68 1270.8 1107.44 Z" fill="#000000" fill-rule="nonzero" fill-opacity="1" /><path clip-path="url(#clip730)" d="M1306.94 1079.89 Q1303.33 1079.89 1301.5 1083.46 Q1299.69 1087 1299.69 1094.13 Q1299.69 1101.24 1301.5 1104.8 Q1303.33 1108.34 1306.94 1108.34 Q1310.57 1108.34 1312.38 1104.8 Q1314.21 1101.24 1314.21 1094.13 Q1314.21 1087 1312.38 1083.46 Q1310.57 1079.89 1306.94 1079.89 M1306.94 1076.19 Q1312.75 1076.19 1315.8 1080.8 Q1318.88 1085.38 1318.88 1094.13 Q1318.88 1102.86 1315.8 1107.46 Q1312.75 1112.05 1306.94 1112.05 Q1301.13 1112.05 1298.05 1107.46 Q1294.99 1102.86 1294.99 1094.13 Q1294.99 1085.38 1298.05 1080.8 Q1301.13 1076.19 1306.94 1076.19 Z" fill="#000000" fill-rule="nonzero" fill-opacity="1" /><path clip-path="url(#clip730)" d="M1331.13 1107.44 L1347.45 1107.44 L1347.45 1111.38 L1325.5 1111.38 L1325.5 1107.44 Q1328.16 1104.69 1332.75 1100.06 Q1337.35 1095.4 1338.53 1094.06 Q1340.78 1091.54 1341.66 1089.8 Q1342.56 1088.04 1342.56 1086.35 Q1342.56 1083.6 1340.62 1081.86 Q1338.7 1080.13 1335.6 1080.13 Q1333.4 1080.13 1330.94 1080.89 Q1328.51 1081.65 1325.73 1083.2 L1325.73 1078.48 Q1328.56 1077.35 1331.01 1076.77 Q1333.47 1076.19 1335.5 1076.19 Q1340.87 1076.19 1344.07 1078.88 Q1347.26 1081.56 1347.26 1086.05 Q1347.26 1088.18 1346.45 1090.1 Q1345.66 1092 1343.56 1094.59 Q1342.98 1095.26 1339.88 1098.48 Q1336.78 1101.68 1331.13 1107.44 Z" fill="#000000" fill-rule="nonzero" fill-opacity="1" /><path clip-path="url(#clip730)" d="M1370.11 1080.89 L1358.3 1099.34 L1370.11 1099.34 L1370.11 1080.89 M1368.88 1076.82 L1374.76 1076.82 L1374.76 1099.34 L1379.69 1099.34 L1379.69 1103.23 L1374.76 1103.23 L1374.76 1111.38 L1370.11 1111.38 L1370.11 1103.23 L1354.51 1103.23 L1354.51 1098.71 L1368.88 1076.82 Z" fill="#000000" fill-rule="nonzero" fill-opacity="1" /><path clip-path="url(#clip730)" d="M1384.67 1096.49 L1397.15 1096.49 L1397.15 1100.29 L1384.67 1100.29 L1384.67 1096.49 Z" fill="#000000" fill-rule="nonzero" fill-opacity="1" /><path clip-path="url(#clip730)" d="M1405.34 1107.44 L1412.98 1107.44 L1412.98 1081.07 L1404.67 1082.74 L1404.67 1078.48 L1412.93 1076.82 L1417.61 1076.82 L1417.61 1107.44 L1425.25 1107.44 L1425.25 1111.38 L1405.34 1111.38 L1405.34 1107.44 Z" fill="#000000" fill-rule="nonzero" fill-opacity="1" /><path clip-path="url(#clip730)" d="M1444.69 1079.89 Q1441.08 1079.89 1439.25 1083.46 Q1437.45 1087 1437.45 1094.13 Q1437.45 1101.24 1439.25 1104.8 Q1441.08 1108.34 1444.69 1108.34 Q1448.33 1108.34 1450.13 1104.8 Q1451.96 1101.24 1451.96 1094.13 Q1451.96 1087 1450.13 1083.46 Q1448.33 1079.89 1444.69 1079.89 M1444.69 1076.19 Q1450.5 1076.19 1453.56 1080.8 Q1456.64 1085.38 1456.64 1094.13 Q1456.64 1102.86 1453.56 1107.46 Q1450.5 1112.05 1444.69 1112.05 Q1438.88 1112.05 1435.8 1107.46 Q1432.75 1102.86 1432.75 1094.13 Q1432.75 1085.38 1435.8 1080.8 Q1438.88 1076.19 1444.69 1076.19 Z" fill="#000000" fill-rule="nonzero" fill-opacity="1" /><path clip-path="url(#clip730)" d="M1462.1 1096.49 L1474.58 1096.49 L1474.58 1100.29 L1462.1 1100.29 L1462.1 1096.49 Z" fill="#000000" fill-rule="nonzero" fill-opacity="1" /><path clip-path="url(#clip730)" d="M1491.96 1079.89 Q1488.35 1079.89 1486.52 1083.46 Q1484.71 1087 1484.71 1094.13 Q1484.71 1101.24 1486.52 1104.8 Q1488.35 1108.34 1491.96 1108.34 Q1495.59 1108.34 1497.4 1104.8 Q1499.23 1101.24 1499.23 1094.13 Q1499.23 1087 1497.4 1083.46 Q1495.59 1079.89 1491.96 1079.89 M1491.96 1076.19 Q1497.77 1076.19 1500.83 1080.8 Q1503.9 1085.38 1503.9 1094.13 Q1503.9 1102.86 1500.83 1107.46 Q1497.77 1112.05 1491.96 1112.05 Q1486.15 1112.05 1483.07 1107.46 Q1480.02 1102.86 1480.02 1094.13 Q1480.02 1085.38 1483.07 1080.8 Q1486.15 1076.19 1491.96 1076.19 Z" fill="#000000" fill-rule="nonzero" fill-opacity="1" /><path clip-path="url(#clip730)" d="M1512.93 1107.44 L1520.57 1107.44 L1520.57 1081.07 L1512.26 1082.74 L1512.26 1078.48 L1520.52 1076.82 L1525.2 1076.82 L1525.2 1107.44 L1532.84 1107.44 L1532.84 1111.38 L1512.93 1111.38 L1512.93 1107.44 Z" fill="#000000" fill-rule="nonzero" fill-opacity="1" /><path clip-path="url(#clip730)" d="M2144.36 1107.44 L2160.68 1107.44 L2160.68 1111.38 L2138.74 1111.38 L2138.74 1107.44 Q2141.4 1104.69 2145.98 1100.06 Q2150.59 1095.4 2151.77 1094.06 Q2154.01 1091.54 2154.89 1089.8 Q2155.8 1088.04 2155.8 1086.35 Q2155.8 1083.6 2153.85 1081.86 Q2151.93 1080.13 2148.83 1080.13 Q2146.63 1080.13 2144.18 1080.89 Q2141.74 1081.65 2138.97 1083.2 L2138.97 1078.48 Q2141.79 1077.35 2144.24 1076.77 Q2146.7 1076.19 2148.74 1076.19 Q2154.11 1076.19 2157.3 1078.88 Q2160.49 1081.56 2160.49 1086.05 Q2160.49 1088.18 2159.68 1090.1 Q2158.9 1092 2156.79 1094.59 Q2156.21 1095.26 2153.11 1098.48 Q2150.01 1101.68 2144.36 1107.44 Z" fill="#000000" fill-rule="nonzero" fill-opacity="1" /><path clip-path="url(#clip730)" d="M2180.49 1079.89 Q2176.88 1079.89 2175.05 1083.46 Q2173.25 1087 2173.25 1094.13 Q2173.25 1101.24 2175.05 1104.8 Q2176.88 1108.34 2180.49 1108.34 Q2184.13 1108.34 2185.93 1104.8 Q2187.76 1101.24 2187.76 1094.13 Q2187.76 1087 2185.93 1083.46 Q2184.13 1079.89 2180.49 1079.89 M2180.49 1076.19 Q2186.3 1076.19 2189.36 1080.8 Q2192.44 1085.38 2192.44 1094.13 Q2192.44 1102.86 2189.36 1107.46 Q2186.3 1112.05 2180.49 1112.05 Q2174.68 1112.05 2171.61 1107.46 Q2168.55 1102.86 2168.55 1094.13 Q2168.55 1085.38 2171.61 1080.8 Q2174.68 1076.19 2180.49 1076.19 Z" fill="#000000" fill-rule="nonzero" fill-opacity="1" /><path clip-path="url(#clip730)" d="M2204.68 1107.44 L2221 1107.44 L2221 1111.38 L2199.06 1111.38 L2199.06 1107.44 Q2201.72 1104.69 2206.3 1100.06 Q2210.91 1095.4 2212.09 1094.06 Q2214.34 1091.54 2215.22 1089.8 Q2216.12 1088.04 2216.12 1086.35 Q2216.12 1083.6 2214.17 1081.86 Q2212.25 1080.13 2209.15 1080.13 Q2206.95 1080.13 2204.5 1080.89 Q2202.07 1081.65 2199.29 1083.2 L2199.29 1078.48 Q2202.11 1077.35 2204.57 1076.77 Q2207.02 1076.19 2209.06 1076.19 Q2214.43 1076.19 2217.62 1078.88 Q2220.82 1081.56 2220.82 1086.05 Q2220.82 1088.18 2220.01 1090.1 Q2219.22 1092 2217.11 1094.59 Q2216.54 1095.26 2213.43 1098.48 Q2210.33 1101.68 2204.68 1107.44 Z" fill="#000000" fill-rule="nonzero" fill-opacity="1" /><path clip-path="url(#clip730)" d="M2243.67 1080.89 L2231.86 1099.34 L2243.67 1099.34 L2243.67 1080.89 M2242.44 1076.82 L2248.32 1076.82 L2248.32 1099.34 L2253.25 1099.34 L2253.25 1103.23 L2248.32 1103.23 L2248.32 1111.38 L2243.67 1111.38 L2243.67 1103.23 L2228.06 1103.23 L2228.06 1098.71 L2242.44 1076.82 Z" fill="#000000" fill-rule="nonzero" fill-opacity="1" /><path clip-path="url(#clip730)" d="M2258.23 1096.49 L2270.7 1096.49 L2270.7 1100.29 L2258.23 1100.29 L2258.23 1096.49 Z" fill="#000000" fill-rule="nonzero" fill-opacity="1" /><path clip-path="url(#clip730)" d="M2278.9 1107.44 L2286.54 1107.44 L2286.54 1081.07 L2278.23 1082.74 L2278.23 1078.48 L2286.49 1076.82 L2291.17 1076.82 L2291.17 1107.44 L2298.8 1107.44 L2298.8 1111.38 L2278.9 1111.38 L2278.9 1107.44 Z" fill="#000000" fill-rule="nonzero" fill-opacity="1" /><path clip-path="url(#clip730)" d="M2309.06 1107.44 L2316.7 1107.44 L2316.7 1081.07 L2308.39 1082.74 L2308.39 1078.48 L2316.65 1076.82 L2321.33 1076.82 L2321.33 1107.44 L2328.97 1107.44 L2328.97 1111.38 L2309.06 1111.38 L2309.06 1107.44 Z" fill="#000000" fill-rule="nonzero" fill-opacity="1" /><path clip-path="url(#clip730)" d="M2335.66 1096.49 L2348.13 1096.49 L2348.13 1100.29 L2335.66 1100.29 L2335.66 1096.49 Z" fill="#000000" fill-rule="nonzero" fill-opacity="1" /><path clip-path="url(#clip730)" d="M2365.52 1079.89 Q2361.91 1079.89 2360.08 1083.46 Q2358.27 1087 2358.27 1094.13 Q2358.27 1101.24 2360.08 1104.8 Q2361.91 1108.34 2365.52 1108.34 Q2369.15 1108.34 2370.96 1104.8 Q2372.79 1101.24 2372.79 1094.13 Q2372.79 1087 2370.96 1083.46 Q2369.15 1079.89 2365.52 1079.89 M2365.52 1076.19 Q2371.33 1076.19 2374.38 1080.8 Q2377.46 1085.38 2377.46 1094.13 Q2377.46 1102.86 2374.38 1107.46 Q2371.33 1112.05 2365.52 1112.05 Q2359.71 1112.05 2356.63 1107.46 Q2353.57 1102.86 2353.57 1094.13 Q2353.57 1085.38 2356.63 1080.8 Q2359.71 1076.19 2365.52 1076.19 Z" fill="#000000" fill-rule="nonzero" fill-opacity="1" /><path clip-path="url(#clip730)" d="M2386.49 1107.44 L2394.13 1107.44 L2394.13 1081.07 L2385.82 1082.74 L2385.82 1078.48 L2394.08 1076.82 L2398.76 1076.82 L2398.76 1107.44 L2406.4 1107.44 L2406.4 1111.38 L2386.49 1111.38 L2386.49 1107.44 Z" fill="#000000" fill-rule="nonzero" fill-opacity="1" /><polyline clip-path="url(#clip732)" style="stroke:#000000; stroke-linecap:round; stroke-linejoin:round; stroke-width:2; stroke-opacity:0.1; fill:none" points="271.839,1042.58 3089.76,1042.58 "/>
<polyline clip-path="url(#clip732)" style="stroke:#000000; stroke-linecap:round; stroke-linejoin:round; stroke-width:2; stroke-opacity:0.1; fill:none" points="271.839,526.382 3089.76,526.382 "/>
<polyline clip-path="url(#clip730)" style="stroke:#000000; stroke-linecap:round; stroke-linejoin:round; stroke-width:4; stroke-opacity:1; fill:none" points="271.839,1042.58 271.839,110.236 "/>
<polyline clip-path="url(#clip730)" style="stroke:#000000; stroke-linecap:round; stroke-linejoin:round; stroke-width:4; stroke-opacity:1; fill:none" points="271.839,1042.58 290.737,1042.58 "/>
<polyline clip-path="url(#clip730)" style="stroke:#000000; stroke-linecap:round; stroke-linejoin:round; stroke-width:4; stroke-opacity:1; fill:none" points="271.839,526.382 290.737,526.382 "/>
<path clip-path="url(#clip730)" d="M153.134 1062.37 L160.772 1062.37 L160.772 1036 L152.462 1037.67 L152.462 1033.41 L160.726 1031.74 L165.402 1031.74 L165.402 1062.37 L173.041 1062.37 L173.041 1066.3 L153.134 1066.3 L153.134 1062.37 Z" fill="#000000" fill-rule="nonzero" fill-opacity="1" /><path clip-path="url(#clip730)" d="M192.485 1034.82 Q188.874 1034.82 187.045 1038.39 Q185.24 1041.93 185.24 1049.06 Q185.24 1056.16 187.045 1059.73 Q188.874 1063.27 192.485 1063.27 Q196.119 1063.27 197.925 1059.73 Q199.754 1056.16 199.754 1049.06 Q199.754 1041.93 197.925 1038.39 Q196.119 1034.82 192.485 1034.82 M192.485 1031.12 Q198.295 1031.12 201.351 1035.72 Q204.43 1040.31 204.43 1049.06 Q204.43 1057.78 201.351 1062.39 Q198.295 1066.97 192.485 1066.97 Q186.675 1066.97 183.596 1062.39 Q180.541 1057.78 180.541 1049.06 Q180.541 1040.31 183.596 1035.72 Q186.675 1031.12 192.485 1031.12 Z" fill="#000000" fill-rule="nonzero" fill-opacity="1" /><path clip-path="url(#clip730)" d="M214.134 1013.31 Q211.2 1013.31 209.715 1016.21 Q208.248 1019.09 208.248 1024.88 Q208.248 1030.66 209.715 1033.55 Q211.2 1036.43 214.134 1036.43 Q217.087 1036.43 218.554 1033.55 Q220.04 1030.66 220.04 1024.88 Q220.04 1019.09 218.554 1016.21 Q217.087 1013.31 214.134 1013.31 M214.134 1010.31 Q218.855 1010.31 221.338 1014.05 Q223.839 1017.77 223.839 1024.88 Q223.839 1031.97 221.338 1035.71 Q218.855 1039.44 214.134 1039.44 Q209.414 1039.44 206.912 1035.71 Q204.43 1031.97 204.43 1024.88 Q204.43 1017.77 206.912 1014.05 Q209.414 1010.31 214.134 1010.31 Z" fill="#000000" fill-rule="nonzero" fill-opacity="1" /><path clip-path="url(#clip730)" d="M155.823 546.174 L163.462 546.174 L163.462 519.808 L155.152 521.475 L155.152 517.216 L163.416 515.549 L168.092 515.549 L168.092 546.174 L175.73 546.174 L175.73 550.109 L155.823 550.109 L155.823 546.174 Z" fill="#000000" fill-rule="nonzero" fill-opacity="1" /><path clip-path="url(#clip730)" d="M195.175 518.628 Q191.564 518.628 189.735 522.193 Q187.929 525.734 187.929 532.864 Q187.929 539.97 189.735 543.535 Q191.564 547.077 195.175 547.077 Q198.809 547.077 200.615 543.535 Q202.443 539.97 202.443 532.864 Q202.443 525.734 200.615 522.193 Q198.809 518.628 195.175 518.628 M195.175 514.924 Q200.985 514.924 204.04 519.531 Q207.119 524.114 207.119 532.864 Q207.119 541.591 204.04 546.197 Q200.985 550.78 195.175 550.78 Q189.365 550.78 186.286 546.197 Q183.23 541.591 183.23 532.864 Q183.23 524.114 186.286 519.531 Q189.365 514.924 195.175 514.924 Z" fill="#000000" fill-rule="nonzero" fill-opacity="1" /><path clip-path="url(#clip730)" d="M207.665 519.501 L213.871 519.501 L213.871 498.079 L207.119 499.434 L207.119 495.973 L213.833 494.619 L217.633 494.619 L217.633 519.501 L223.839 519.501 L223.839 522.699 L207.665 522.699 L207.665 519.501 Z" fill="#000000" fill-rule="nonzero" fill-opacity="1" /><path clip-path="url(#clip730)" d="M83.4268 931.246 L70.6636 931.246 L70.6636 941.75 L65.38 941.75 L65.38 924.881 L85.7821 924.881 Q88.4239 928.605 89.7925 933.092 Q91.1293 937.58 91.1293 942.673 Q91.1293 953.813 84.6363 960.115 Q78.1114 966.385 66.494 966.385 Q54.8448 966.385 48.3518 960.115 Q41.8269 953.813 41.8269 942.673 Q41.8269 938.026 42.9727 933.856 Q44.1186 929.655 46.3466 926.122 L53.1897 926.122 Q50.166 929.687 48.6382 933.697 Q47.1104 937.708 47.1104 942.132 Q47.1104 950.853 51.9802 955.245 Q56.85 959.606 66.494 959.606 Q76.1062 959.606 80.976 955.245 Q85.8458 950.853 85.8458 942.132 Q85.8458 938.726 85.2729 936.052 Q84.6681 933.379 83.4268 931.246 Z" fill="#000000" fill-rule="nonzero" fill-opacity="1" /><path clip-path="url(#clip730)" d="M70.9182 882.899 L73.7828 882.899 L73.7828 909.826 Q79.8302 909.444 83.013 906.197 Q86.1641 902.919 86.1641 897.094 Q86.1641 893.721 85.3365 890.57 Q84.509 887.387 82.8539 884.267 L88.3921 884.267 Q89.7289 887.418 90.4291 890.729 Q91.1293 894.039 91.1293 897.444 Q91.1293 905.975 86.1641 910.972 Q81.1988 915.937 72.7324 915.937 Q63.9796 915.937 58.8552 911.226 Q53.699 906.484 53.699 898.463 Q53.699 891.27 58.3459 887.1 Q62.9611 882.899 70.9182 882.899 M69.1995 888.755 Q64.3933 888.819 61.5288 891.461 Q58.6642 894.071 58.6642 898.399 Q58.6642 903.301 61.4333 906.261 Q64.2024 909.189 69.2313 909.635 L69.1995 888.755 Z" fill="#000000" fill-rule="nonzero" fill-opacity="1" /><path clip-path="url(#clip730)" d="M68.6902 843.654 L90.2063 843.654 L90.2063 849.511 L68.8812 849.511 Q63.8204 849.511 61.306 851.484 Q58.7915 853.457 58.7915 857.404 Q58.7915 862.147 61.8152 864.884 Q64.8389 867.621 70.0588 867.621 L90.2063 867.621 L90.2063 873.509 L54.5583 873.509 L54.5583 867.621 L60.0965 867.621 Q56.8818 865.52 55.2904 862.688 Q53.699 859.823 53.699 856.099 Q53.699 849.956 57.5184 846.805 Q61.306 843.654 68.6902 843.654 Z" fill="#000000" fill-rule="nonzero" fill-opacity="1" /><path clip-path="url(#clip730)" d="M58.6642 818.16 Q58.6642 822.87 62.3563 825.607 Q66.0166 828.345 72.4141 828.345 Q78.8117 828.345 82.5038 825.639 Q86.1641 822.902 86.1641 818.16 Q86.1641 813.481 82.4719 810.744 Q78.7798 808.006 72.4141 808.006 Q66.0803 808.006 62.3881 810.744 Q58.6642 813.481 58.6642 818.16 M53.699 818.16 Q53.699 810.521 58.6642 806.16 Q63.6295 801.8 72.4141 801.8 Q81.167 801.8 86.1641 806.16 Q91.1293 810.521 91.1293 818.16 Q91.1293 825.83 86.1641 830.191 Q81.167 834.519 72.4141 834.519 Q63.6295 834.519 58.6642 830.191 Q53.699 825.83 53.699 818.16 Z" fill="#000000" fill-rule="nonzero" fill-opacity="1" /><path clip-path="url(#clip730)" d="M61.4015 764.338 Q57.4547 762.141 55.5768 759.086 Q53.699 756.03 53.699 751.893 Q53.699 746.323 57.6139 743.299 Q61.4969 740.275 68.6902 740.275 L90.2063 740.275 L90.2063 746.163 L68.8812 746.163 Q63.7568 746.163 61.2741 747.978 Q58.7915 749.792 58.7915 753.516 Q58.7915 758.067 61.8152 760.709 Q64.8389 763.351 70.0588 763.351 L90.2063 763.351 L90.2063 769.239 L68.8812 769.239 Q63.7249 769.239 61.2741 771.053 Q58.7915 772.868 58.7915 776.655 Q58.7915 781.143 61.8471 783.785 Q64.8708 786.427 70.0588 786.427 L90.2063 786.427 L90.2063 792.315 L54.5583 792.315 L54.5583 786.427 L60.0965 786.427 Q56.8182 784.421 55.2586 781.62 Q53.699 778.82 53.699 774.968 Q53.699 771.085 55.6723 768.38 Q57.6457 765.643 61.4015 764.338 Z" fill="#000000" fill-rule="nonzero" fill-opacity="1" /><path clip-path="url(#clip730)" d="M70.9182 698.102 L73.7828 698.102 L73.7828 725.029 Q79.8302 724.647 83.013 721.401 Q86.1641 718.123 86.1641 712.298 Q86.1641 708.924 85.3365 705.773 Q84.509 702.59 82.8539 699.471 L88.3921 699.471 Q89.7289 702.622 90.4291 705.932 Q91.1293 709.242 91.1293 712.648 Q91.1293 721.178 86.1641 726.175 Q81.1988 731.14 72.7324 731.14 Q63.9796 731.14 58.8552 726.43 Q53.699 721.687 53.699 713.667 Q53.699 706.473 58.3459 702.304 Q62.9611 698.102 70.9182 698.102 M69.1995 703.959 Q64.3933 704.022 61.5288 706.664 Q58.6642 709.274 58.6642 713.603 Q58.6642 718.504 61.4333 721.465 Q64.2024 724.393 69.2313 724.838 L69.1995 703.959 Z" fill="#000000" fill-rule="nonzero" fill-opacity="1" /><path clip-path="url(#clip730)" d="M55.6087 665.765 L61.1468 665.765 Q59.8737 668.247 59.2371 670.921 Q58.6006 673.594 58.6006 676.459 Q58.6006 680.819 59.9373 683.016 Q61.2741 685.18 63.9477 685.18 Q65.9848 685.18 67.1624 683.62 Q68.3083 682.061 69.3586 677.35 L69.8042 675.345 Q71.141 669.107 73.5918 666.497 Q76.0108 663.855 80.3713 663.855 Q85.3365 663.855 88.2329 667.802 Q91.1293 671.717 91.1293 678.591 Q91.1293 681.456 90.5564 684.575 Q90.0153 687.663 88.9013 691.1 L82.8539 691.1 Q84.5408 687.854 85.4002 684.703 Q86.2277 681.552 86.2277 678.464 Q86.2277 674.326 84.8273 672.098 Q83.395 669.87 80.8169 669.87 Q78.4297 669.87 77.1566 671.494 Q75.8834 673.085 74.7058 678.528 L74.2284 680.565 Q73.0825 686.008 70.7272 688.427 Q68.3401 690.845 64.2024 690.845 Q59.1735 690.845 56.4362 687.281 Q53.699 683.716 53.699 677.159 Q53.699 673.913 54.1764 671.048 Q54.6538 668.184 55.6087 665.765 Z" fill="#000000" fill-rule="nonzero" fill-opacity="1" /><path clip-path="url(#clip730)" d="M42.6863 644.121 L42.6863 638.71 L96.2537 655.261 L96.2537 660.672 L42.6863 644.121 Z" fill="#000000" fill-rule="nonzero" fill-opacity="1" /><path clip-path="url(#clip730)" d="M47.9698 625.883 L84.9227 625.883 L84.9227 618.117 Q84.9227 608.282 80.4668 603.731 Q76.0108 599.147 66.3985 599.147 Q56.85 599.147 52.4258 603.731 Q47.9698 608.282 47.9698 618.117 L47.9698 625.883 M42.6863 632.313 L42.6863 619.104 Q42.6863 605.29 48.4472 598.829 Q54.1764 592.368 66.3985 592.368 Q78.6844 592.368 84.4453 598.861 Q90.2063 605.354 90.2063 619.104 L90.2063 632.313 L42.6863 632.313 Z" fill="#000000" fill-rule="nonzero" fill-opacity="1" /><path clip-path="url(#clip730)" d="M72.2868 566.173 Q72.2868 573.271 73.9101 576.008 Q75.5333 578.745 79.4482 578.745 Q82.5674 578.745 84.4135 576.708 Q86.2277 574.64 86.2277 571.107 Q86.2277 566.237 82.7902 563.309 Q79.3209 560.348 73.5918 560.348 L72.2868 560.348 L72.2868 566.173 M69.8679 554.492 L90.2063 554.492 L90.2063 560.348 L84.7954 560.348 Q88.0419 562.354 89.6015 565.346 Q91.1293 568.337 91.1293 572.666 Q91.1293 578.141 88.0738 581.387 Q84.9864 584.602 79.8302 584.602 Q73.8146 584.602 70.759 580.591 Q67.7035 576.549 67.7035 568.56 L67.7035 560.348 L67.1306 560.348 Q63.0884 560.348 60.8922 563.022 Q58.6642 565.664 58.6642 570.47 Q58.6642 573.526 59.3963 576.422 Q60.1283 579.318 61.5924 581.992 L56.1816 581.992 Q54.9403 578.777 54.3355 575.753 Q53.699 572.73 53.699 569.865 Q53.699 562.131 57.7094 558.311 Q61.7197 554.492 69.8679 554.492 Z" fill="#000000" fill-rule="nonzero" fill-opacity="1" /><path clip-path="url(#clip730)" d="M93.5165 527.597 Q99.8822 530.08 101.824 532.435 Q103.765 534.79 103.765 538.737 L103.765 543.416 L98.8636 543.416 L98.8636 539.978 Q98.8636 537.559 97.7178 536.222 Q96.572 534.886 92.307 533.262 L89.6334 532.212 L54.5583 546.63 L54.5583 540.424 L82.4401 529.284 L54.5583 518.144 L54.5583 511.937 L93.5165 527.597 Z" fill="#000000" fill-rule="nonzero" fill-opacity="1" /><path clip-path="url(#clip730)" d="M40.7447 469.064 Q48.0653 473.329 55.2267 475.398 Q62.3881 477.467 69.7405 477.467 Q77.0929 477.467 84.318 475.398 Q91.5113 473.297 98.8 469.064 L98.8 474.157 Q91.3203 478.931 84.0952 481.318 Q76.8701 483.674 69.7405 483.674 Q62.6428 483.674 55.4495 481.318 Q48.2563 478.963 40.7447 474.157 L40.7447 469.064 Z" fill="#000000" fill-rule="nonzero" fill-opacity="1" /><path clip-path="url(#clip730)" d="M44.2459 428.96 L50.5161 428.96 Q48.7655 432.621 47.9062 435.867 Q47.0468 439.114 47.0468 442.137 Q47.0468 447.389 49.0838 450.254 Q51.1208 453.086 54.8766 453.086 Q58.0276 453.086 59.6509 451.208 Q61.2423 449.299 62.229 444.015 L63.0247 440.132 Q64.3933 432.939 67.8627 429.533 Q71.3001 426.096 77.0929 426.096 Q83.9997 426.096 87.5645 430.743 Q91.1293 435.358 91.1293 444.302 Q91.1293 447.675 90.3654 451.495 Q89.6015 455.283 88.1056 459.357 L81.4853 459.357 Q83.6814 455.442 84.7954 451.686 Q85.9094 447.93 85.9094 444.302 Q85.9094 438.795 83.7451 435.803 Q81.5808 432.812 77.5704 432.812 Q74.0692 432.812 72.0958 434.976 Q70.1225 437.108 69.1358 442.01 L68.3719 445.925 Q66.9396 453.118 63.8841 456.333 Q60.8285 459.548 55.3859 459.548 Q49.0838 459.548 45.4554 455.123 Q41.8269 450.667 41.8269 442.869 Q41.8269 439.527 42.4317 436.058 Q43.0364 432.589 44.2459 428.96 Z" fill="#000000" fill-rule="nonzero" fill-opacity="1" /><path clip-path="url(#clip730)" d="M54.5583 419.73 L54.5583 413.874 L82.3765 406.553 L54.5583 399.264 L54.5583 392.357 L82.3765 385.037 L54.5583 377.748 L54.5583 371.892 L90.2063 381.218 L90.2063 388.124 L60.9877 395.795 L90.2063 403.497 L90.2063 410.404 L54.5583 419.73 Z" fill="#000000" fill-rule="nonzero" fill-opacity="1" /><path clip-path="url(#clip730)" d="M70.9182 332.52 L73.7828 332.52 L73.7828 359.447 Q79.8302 359.065 83.013 355.818 Q86.1641 352.54 86.1641 346.715 Q86.1641 343.342 85.3365 340.191 Q84.509 337.008 82.8539 333.888 L88.3921 333.888 Q89.7289 337.04 90.4291 340.35 Q91.1293 343.66 91.1293 347.065 Q91.1293 355.596 86.1641 360.593 Q81.1988 365.558 72.7324 365.558 Q63.9796 365.558 58.8552 360.847 Q53.699 356.105 53.699 348.084 Q53.699 340.891 58.3459 336.721 Q62.9611 332.52 70.9182 332.52 M69.1995 338.376 Q64.3933 338.44 61.5288 341.082 Q58.6642 343.692 58.6642 348.02 Q58.6642 352.922 61.4333 355.882 Q64.2024 358.81 69.2313 359.256 L69.1995 338.376 Z" fill="#000000" fill-rule="nonzero" fill-opacity="1" /><path clip-path="url(#clip730)" d="M59.9692 299.45 L40.6811 299.45 L40.6811 293.594 L90.2063 293.594 L90.2063 299.45 L84.8591 299.45 Q88.0419 301.296 89.6015 304.129 Q91.1293 306.93 91.1293 310.876 Q91.1293 317.338 85.9731 321.412 Q80.8169 325.454 72.4141 325.454 Q64.0114 325.454 58.8552 321.412 Q53.699 317.338 53.699 310.876 Q53.699 306.93 55.2586 304.129 Q56.7863 301.296 59.9692 299.45 M72.4141 319.406 Q78.8753 319.406 82.5674 316.765 Q86.2277 314.091 86.2277 309.444 Q86.2277 304.797 82.5674 302.124 Q78.8753 299.45 72.4141 299.45 Q65.9529 299.45 62.2927 302.124 Q58.6006 304.797 58.6006 309.444 Q58.6006 314.091 62.2927 316.765 Q65.9529 319.406 72.4141 319.406 Z" fill="#000000" fill-rule="nonzero" fill-opacity="1" /><path clip-path="url(#clip730)" d="M70.9182 251.039 L73.7828 251.039 L73.7828 277.966 Q79.8302 277.584 83.013 274.337 Q86.1641 271.059 86.1641 265.234 Q86.1641 261.861 85.3365 258.709 Q84.509 255.527 82.8539 252.407 L88.3921 252.407 Q89.7289 255.558 90.4291 258.869 Q91.1293 262.179 91.1293 265.584 Q91.1293 274.114 86.1641 279.112 Q81.1988 284.077 72.7324 284.077 Q63.9796 284.077 58.8552 279.366 Q53.699 274.624 53.699 266.603 Q53.699 259.41 58.3459 255.24 Q62.9611 251.039 70.9182 251.039 M69.1995 256.895 Q64.3933 256.959 61.5288 259.601 Q58.6642 262.211 58.6642 266.539 Q58.6642 271.441 61.4333 274.401 Q64.2024 277.329 69.2313 277.775 L69.1995 256.895 Z" fill="#000000" fill-rule="nonzero" fill-opacity="1" /><path clip-path="url(#clip730)" d="M68.6902 211.794 L90.2063 211.794 L90.2063 217.651 L68.8812 217.651 Q63.8204 217.651 61.306 219.624 Q58.7915 221.597 58.7915 225.544 Q58.7915 230.287 61.8152 233.024 Q64.8389 235.761 70.0588 235.761 L90.2063 235.761 L90.2063 241.649 L54.5583 241.649 L54.5583 235.761 L60.0965 235.761 Q56.8818 233.66 55.2904 230.828 Q53.699 227.963 53.699 224.239 Q53.699 218.096 57.5184 214.945 Q61.306 211.794 68.6902 211.794 Z" fill="#000000" fill-rule="nonzero" fill-opacity="1" /><path clip-path="url(#clip730)" d="M40.7447 201.036 L40.7447 195.944 Q48.2563 191.169 55.4495 188.814 Q62.6428 186.427 69.7405 186.427 Q76.8701 186.427 84.0952 188.814 Q91.3203 191.169 98.8 195.944 L98.8 201.036 Q91.5113 196.803 84.318 194.734 Q77.0929 192.633 69.7405 192.633 Q62.3881 192.633 55.2267 194.734 Q48.0653 196.803 40.7447 201.036 Z" fill="#000000" fill-rule="nonzero" fill-opacity="1" /><path clip-path="url(#clip732)" d="M288.747 132.305 L288.747 1042.58 L311.29 1042.58 L311.29 132.305 L288.747 132.305 L288.747 132.305  Z" fill="#009af9" fill-rule="evenodd" fill-opacity="0.5"/>
<polyline clip-path="url(#clip732)" style="stroke:#000000; stroke-linecap:round; stroke-linejoin:round; stroke-width:4; stroke-opacity:0.5; fill:none" points="288.747,132.305 288.747,1042.58 311.29,1042.58 311.29,132.305 288.747,132.305 "/>
<path clip-path="url(#clip732)" d="M316.926 339.66 L316.926 1042.58 L339.469 1042.58 L339.469 339.66 L316.926 339.66 L316.926 339.66  Z" fill="#009af9" fill-rule="evenodd" fill-opacity="0.5"/>
<polyline clip-path="url(#clip732)" style="stroke:#000000; stroke-linecap:round; stroke-linejoin:round; stroke-width:4; stroke-opacity:0.5; fill:none" points="316.926,339.66 316.926,1042.58 339.469,1042.58 339.469,339.66 316.926,339.66 "/>
<path clip-path="url(#clip732)" d="M345.105 330.119 L345.105 1042.58 L367.649 1042.58 L367.649 330.119 L345.105 330.119 L345.105 330.119  Z" fill="#009af9" fill-rule="evenodd" fill-opacity="0.5"/>
<polyline clip-path="url(#clip732)" style="stroke:#000000; stroke-linecap:round; stroke-linejoin:round; stroke-width:4; stroke-opacity:0.5; fill:none" points="345.105,330.119 345.105,1042.58 367.649,1042.58 367.649,330.119 345.105,330.119 "/>
<path clip-path="url(#clip732)" d="M373.285 152.515 L373.285 1042.58 L395.828 1042.58 L395.828 152.515 L373.285 152.515 L373.285 152.515  Z" fill="#009af9" fill-rule="evenodd" fill-opacity="0.5"/>
<polyline clip-path="url(#clip732)" style="stroke:#000000; stroke-linecap:round; stroke-linejoin:round; stroke-width:4; stroke-opacity:0.5; fill:none" points="373.285,152.515 373.285,1042.58 395.828,1042.58 395.828,152.515 373.285,152.515 "/>
<path clip-path="url(#clip732)" d="M401.464 280.094 L401.464 1042.58 L424.007 1042.58 L424.007 280.094 L401.464 280.094 L401.464 280.094  Z" fill="#009af9" fill-rule="evenodd" fill-opacity="0.5"/>
<polyline clip-path="url(#clip732)" style="stroke:#000000; stroke-linecap:round; stroke-linejoin:round; stroke-width:4; stroke-opacity:0.5; fill:none" points="401.464,280.094 401.464,1042.58 424.007,1042.58 424.007,280.094 401.464,280.094 "/>
<path clip-path="url(#clip732)" d="M429.643 132.305 L429.643 1042.58 L452.186 1042.58 L452.186 132.305 L429.643 132.305 L429.643 132.305  Z" fill="#009af9" fill-rule="evenodd" fill-opacity="0.5"/>
<polyline clip-path="url(#clip732)" style="stroke:#000000; stroke-linecap:round; stroke-linejoin:round; stroke-width:4; stroke-opacity:0.5; fill:none" points="429.643,132.305 429.643,1042.58 452.186,1042.58 452.186,132.305 429.643,132.305 "/>
<path clip-path="url(#clip732)" d="M457.822 156.785 L457.822 1042.58 L480.366 1042.58 L480.366 156.785 L457.822 156.785 L457.822 156.785  Z" fill="#009af9" fill-rule="evenodd" fill-opacity="0.5"/>
<polyline clip-path="url(#clip732)" style="stroke:#000000; stroke-linecap:round; stroke-linejoin:round; stroke-width:4; stroke-opacity:0.5; fill:none" points="457.822,156.785 457.822,1042.58 480.366,1042.58 480.366,156.785 457.822,156.785 "/>
<path clip-path="url(#clip732)" d="M486.001 239.222 L486.001 1042.58 L508.545 1042.58 L508.545 239.222 L486.001 239.222 L486.001 239.222  Z" fill="#009af9" fill-rule="evenodd" fill-opacity="0.5"/>
<polyline clip-path="url(#clip732)" style="stroke:#000000; stroke-linecap:round; stroke-linejoin:round; stroke-width:4; stroke-opacity:0.5; fill:none" points="486.001,239.222 486.001,1042.58 508.545,1042.58 508.545,239.222 486.001,239.222 "/>
<path clip-path="url(#clip732)" d="M514.181 370.992 L514.181 1042.58 L536.724 1042.58 L536.724 370.992 L514.181 370.992 L514.181 370.992  Z" fill="#009af9" fill-rule="evenodd" fill-opacity="0.5"/>
<polyline clip-path="url(#clip732)" style="stroke:#000000; stroke-linecap:round; stroke-linejoin:round; stroke-width:4; stroke-opacity:0.5; fill:none" points="514.181,370.992 514.181,1042.58 536.724,1042.58 536.724,370.992 514.181,370.992 "/>
<path clip-path="url(#clip732)" d="M542.36 295.561 L542.36 1042.58 L564.903 1042.58 L564.903 295.561 L542.36 295.561 L542.36 295.561  Z" fill="#009af9" fill-rule="evenodd" fill-opacity="0.5"/>
<polyline clip-path="url(#clip732)" style="stroke:#000000; stroke-linecap:round; stroke-linejoin:round; stroke-width:4; stroke-opacity:0.5; fill:none" points="542.36,295.561 542.36,1042.58 564.903,1042.58 564.903,295.561 542.36,295.561 "/>
<path clip-path="url(#clip732)" d="M570.539 140.171 L570.539 1042.58 L593.083 1042.58 L593.083 140.171 L570.539 140.171 L570.539 140.171  Z" fill="#009af9" fill-rule="evenodd" fill-opacity="0.5"/>
<polyline clip-path="url(#clip732)" style="stroke:#000000; stroke-linecap:round; stroke-linejoin:round; stroke-width:4; stroke-opacity:0.5; fill:none" points="570.539,140.171 570.539,1042.58 593.083,1042.58 593.083,140.171 570.539,140.171 "/>
<path clip-path="url(#clip732)" d="M598.718 227.101 L598.718 1042.58 L621.262 1042.58 L621.262 227.101 L598.718 227.101 L598.718 227.101  Z" fill="#009af9" fill-rule="evenodd" fill-opacity="0.5"/>
<polyline clip-path="url(#clip732)" style="stroke:#000000; stroke-linecap:round; stroke-linejoin:round; stroke-width:4; stroke-opacity:0.5; fill:none" points="598.718,227.101 598.718,1042.58 621.262,1042.58 621.262,227.101 598.718,227.101 "/>
<path clip-path="url(#clip732)" d="M626.898 110.236 L626.898 1042.58 L649.441 1042.58 L649.441 110.236 L626.898 110.236 L626.898 110.236  Z" fill="#009af9" fill-rule="evenodd" fill-opacity="0.5"/>
<polyline clip-path="url(#clip732)" style="stroke:#000000; stroke-linecap:round; stroke-linejoin:round; stroke-width:4; stroke-opacity:0.5; fill:none" points="626.898,110.236 626.898,1042.58 649.441,1042.58 649.441,110.236 626.898,110.236 "/>
<path clip-path="url(#clip732)" d="M655.077 117.354 L655.077 1042.58 L677.62 1042.58 L677.62 117.354 L655.077 117.354 L655.077 117.354  Z" fill="#009af9" fill-rule="evenodd" fill-opacity="0.5"/>
<polyline clip-path="url(#clip732)" style="stroke:#000000; stroke-linecap:round; stroke-linejoin:round; stroke-width:4; stroke-opacity:0.5; fill:none" points="655.077,117.354 655.077,1042.58 677.62,1042.58 677.62,117.354 655.077,117.354 "/>
<path clip-path="url(#clip732)" d="M683.256 140.171 L683.256 1042.58 L705.8 1042.58 L705.8 140.171 L683.256 140.171 L683.256 140.171  Z" fill="#009af9" fill-rule="evenodd" fill-opacity="0.5"/>
<polyline clip-path="url(#clip732)" style="stroke:#000000; stroke-linecap:round; stroke-linejoin:round; stroke-width:4; stroke-opacity:0.5; fill:none" points="683.256,140.171 683.256,1042.58 705.8,1042.58 705.8,140.171 683.256,140.171 "/>
<path clip-path="url(#clip732)" d="M711.435 179.449 L711.435 1042.58 L733.979 1042.58 L733.979 179.449 L711.435 179.449 L711.435 179.449  Z" fill="#009af9" fill-rule="evenodd" fill-opacity="0.5"/>
<polyline clip-path="url(#clip732)" style="stroke:#000000; stroke-linecap:round; stroke-linejoin:round; stroke-width:4; stroke-opacity:0.5; fill:none" points="711.435,179.449 711.435,1042.58 733.979,1042.58 733.979,179.449 711.435,179.449 "/>
<path clip-path="url(#clip732)" d="M739.615 221.278 L739.615 1042.58 L762.158 1042.58 L762.158 221.278 L739.615 221.278 L739.615 221.278  Z" fill="#009af9" fill-rule="evenodd" fill-opacity="0.5"/>
<polyline clip-path="url(#clip732)" style="stroke:#000000; stroke-linecap:round; stroke-linejoin:round; stroke-width:4; stroke-opacity:0.5; fill:none" points="739.615,221.278 739.615,1042.58 762.158,1042.58 762.158,221.278 739.615,221.278 "/>
<path clip-path="url(#clip732)" d="M767.794 227.101 L767.794 1042.58 L790.337 1042.58 L790.337 227.101 L767.794 227.101 L767.794 227.101  Z" fill="#009af9" fill-rule="evenodd" fill-opacity="0.5"/>
<polyline clip-path="url(#clip732)" style="stroke:#000000; stroke-linecap:round; stroke-linejoin:round; stroke-width:4; stroke-opacity:0.5; fill:none" points="767.794,227.101 767.794,1042.58 790.337,1042.58 790.337,227.101 767.794,227.101 "/>
<path clip-path="url(#clip732)" d="M795.973 227.101 L795.973 1042.58 L818.517 1042.58 L818.517 227.101 L795.973 227.101 L795.973 227.101  Z" fill="#009af9" fill-rule="evenodd" fill-opacity="0.5"/>
<polyline clip-path="url(#clip732)" style="stroke:#000000; stroke-linecap:round; stroke-linejoin:round; stroke-width:4; stroke-opacity:0.5; fill:none" points="795.973,227.101 795.973,1042.58 818.517,1042.58 818.517,227.101 795.973,227.101 "/>
<path clip-path="url(#clip732)" d="M824.152 233.079 L824.152 1042.58 L846.696 1042.58 L846.696 233.079 L824.152 233.079 L824.152 233.079  Z" fill="#009af9" fill-rule="evenodd" fill-opacity="0.5"/>
<polyline clip-path="url(#clip732)" style="stroke:#000000; stroke-linecap:round; stroke-linejoin:round; stroke-width:4; stroke-opacity:0.5; fill:none" points="824.152,233.079 824.152,1042.58 846.696,1042.58 846.696,233.079 824.152,233.079 "/>
<path clip-path="url(#clip732)" d="M852.332 199.389 L852.332 1042.58 L874.875 1042.58 L874.875 199.389 L852.332 199.389 L852.332 199.389  Z" fill="#009af9" fill-rule="evenodd" fill-opacity="0.5"/>
<polyline clip-path="url(#clip732)" style="stroke:#000000; stroke-linecap:round; stroke-linejoin:round; stroke-width:4; stroke-opacity:0.5; fill:none" points="852.332,199.389 852.332,1042.58 874.875,1042.58 874.875,199.389 852.332,199.389 "/>
<path clip-path="url(#clip732)" d="M880.511 215.602 L880.511 1042.58 L903.054 1042.58 L903.054 215.602 L880.511 215.602 L880.511 215.602  Z" fill="#009af9" fill-rule="evenodd" fill-opacity="0.5"/>
<polyline clip-path="url(#clip732)" style="stroke:#000000; stroke-linecap:round; stroke-linejoin:round; stroke-width:4; stroke-opacity:0.5; fill:none" points="880.511,215.602 880.511,1042.58 903.054,1042.58 903.054,215.602 880.511,215.602 "/>
<path clip-path="url(#clip732)" d="M908.69 339.66 L908.69 1042.58 L931.234 1042.58 L931.234 339.66 L908.69 339.66 L908.69 339.66  Z" fill="#009af9" fill-rule="evenodd" fill-opacity="0.5"/>
<polyline clip-path="url(#clip732)" style="stroke:#000000; stroke-linecap:round; stroke-linejoin:round; stroke-width:4; stroke-opacity:0.5; fill:none" points="908.69,339.66 908.69,1042.58 931.234,1042.58 931.234,339.66 908.69,339.66 "/>
<path clip-path="url(#clip732)" d="M936.869 295.561 L936.869 1042.58 L959.413 1042.58 L959.413 295.561 L936.869 295.561 L936.869 295.561  Z" fill="#009af9" fill-rule="evenodd" fill-opacity="0.5"/>
<polyline clip-path="url(#clip732)" style="stroke:#000000; stroke-linecap:round; stroke-linejoin:round; stroke-width:4; stroke-opacity:0.5; fill:none" points="936.869,295.561 936.869,1042.58 959.413,1042.58 959.413,295.561 936.869,295.561 "/>
<path clip-path="url(#clip732)" d="M965.049 215.602 L965.049 1042.58 L987.592 1042.58 L987.592 215.602 L965.049 215.602 L965.049 215.602  Z" fill="#009af9" fill-rule="evenodd" fill-opacity="0.5"/>
<polyline clip-path="url(#clip732)" style="stroke:#000000; stroke-linecap:round; stroke-linejoin:round; stroke-width:4; stroke-opacity:0.5; fill:none" points="965.049,215.602 965.049,1042.58 987.592,1042.58 987.592,215.602 965.049,215.602 "/>
<path clip-path="url(#clip732)" d="M993.228 265.626 L993.228 1042.58 L1015.77 1042.58 L1015.77 265.626 L993.228 265.626 L993.228 265.626  Z" fill="#009af9" fill-rule="evenodd" fill-opacity="0.5"/>
<polyline clip-path="url(#clip732)" style="stroke:#000000; stroke-linecap:round; stroke-linejoin:round; stroke-width:4; stroke-opacity:0.5; fill:none" points="993.228,265.626 993.228,1042.58 1015.77,1042.58 1015.77,265.626 993.228,265.626 "/>
<path clip-path="url(#clip732)" d="M1021.41 239.222 L1021.41 1042.58 L1043.95 1042.58 L1043.95 239.222 L1021.41 239.222 L1021.41 239.222  Z" fill="#009af9" fill-rule="evenodd" fill-opacity="0.5"/>
<polyline clip-path="url(#clip732)" style="stroke:#000000; stroke-linecap:round; stroke-linejoin:round; stroke-width:4; stroke-opacity:0.5; fill:none" points="1021.41,239.222 1021.41,1042.58 1043.95,1042.58 1043.95,239.222 1021.41,239.222 "/>
<path clip-path="url(#clip732)" d="M1049.59 272.744 L1049.59 1042.58 L1072.13 1042.58 L1072.13 272.744 L1049.59 272.744 L1049.59 272.744  Z" fill="#009af9" fill-rule="evenodd" fill-opacity="0.5"/>
<polyline clip-path="url(#clip732)" style="stroke:#000000; stroke-linecap:round; stroke-linejoin:round; stroke-width:4; stroke-opacity:0.5; fill:none" points="1049.59,272.744 1049.59,1042.58 1072.13,1042.58 1072.13,272.744 1049.59,272.744 "/>
<path clip-path="url(#clip732)" d="M1077.77 233.079 L1077.77 1042.58 L1100.31 1042.58 L1100.31 233.079 L1077.77 233.079 L1077.77 233.079  Z" fill="#009af9" fill-rule="evenodd" fill-opacity="0.5"/>
<polyline clip-path="url(#clip732)" style="stroke:#000000; stroke-linecap:round; stroke-linejoin:round; stroke-width:4; stroke-opacity:0.5; fill:none" points="1077.77,233.079 1077.77,1042.58 1100.31,1042.58 1100.31,233.079 1077.77,233.079 "/>
<path clip-path="url(#clip732)" d="M1105.94 450.951 L1105.94 1042.58 L1128.49 1042.58 L1128.49 450.951 L1105.94 450.951 L1105.94 450.951  Z" fill="#009af9" fill-rule="evenodd" fill-opacity="0.5"/>
<polyline clip-path="url(#clip732)" style="stroke:#000000; stroke-linecap:round; stroke-linejoin:round; stroke-width:4; stroke-opacity:0.5; fill:none" points="1105.94,450.951 1105.94,1042.58 1128.49,1042.58 1128.49,450.951 1105.94,450.951 "/>
<path clip-path="url(#clip732)" d="M1134.12 349.625 L1134.12 1042.58 L1156.67 1042.58 L1156.67 349.625 L1134.12 349.625 L1134.12 349.625  Z" fill="#009af9" fill-rule="evenodd" fill-opacity="0.5"/>
<polyline clip-path="url(#clip732)" style="stroke:#000000; stroke-linecap:round; stroke-linejoin:round; stroke-width:4; stroke-opacity:0.5; fill:none" points="1134.12,349.625 1134.12,1042.58 1156.67,1042.58 1156.67,349.625 1134.12,349.625 "/>
<path clip-path="url(#clip732)" d="M1162.3 215.602 L1162.3 1042.58 L1184.85 1042.58 L1184.85 215.602 L1162.3 215.602 L1162.3 215.602  Z" fill="#009af9" fill-rule="evenodd" fill-opacity="0.5"/>
<polyline clip-path="url(#clip732)" style="stroke:#000000; stroke-linecap:round; stroke-linejoin:round; stroke-width:4; stroke-opacity:0.5; fill:none" points="1162.3,215.602 1162.3,1042.58 1184.85,1042.58 1184.85,215.602 1162.3,215.602 "/>
<path clip-path="url(#clip732)" d="M1190.48 258.728 L1190.48 1042.58 L1213.03 1042.58 L1213.03 258.728 L1190.48 258.728 L1190.48 258.728  Z" fill="#009af9" fill-rule="evenodd" fill-opacity="0.5"/>
<polyline clip-path="url(#clip732)" style="stroke:#000000; stroke-linecap:round; stroke-linejoin:round; stroke-width:4; stroke-opacity:0.5; fill:none" points="1190.48,258.728 1190.48,1042.58 1213.03,1042.58 1213.03,258.728 1190.48,258.728 "/>
<path clip-path="url(#clip732)" d="M1218.66 245.537 L1218.66 1042.58 L1241.21 1042.58 L1241.21 245.537 L1218.66 245.537 L1218.66 245.537  Z" fill="#009af9" fill-rule="evenodd" fill-opacity="0.5"/>
<polyline clip-path="url(#clip732)" style="stroke:#000000; stroke-linecap:round; stroke-linejoin:round; stroke-width:4; stroke-opacity:0.5; fill:none" points="1218.66,245.537 1218.66,1042.58 1241.21,1042.58 1241.21,245.537 1218.66,245.537 "/>
<path clip-path="url(#clip732)" d="M1246.84 239.222 L1246.84 1042.58 L1269.38 1042.58 L1269.38 239.222 L1246.84 239.222 L1246.84 239.222  Z" fill="#009af9" fill-rule="evenodd" fill-opacity="0.5"/>
<polyline clip-path="url(#clip732)" style="stroke:#000000; stroke-linecap:round; stroke-linejoin:round; stroke-width:4; stroke-opacity:0.5; fill:none" points="1246.84,239.222 1246.84,1042.58 1269.38,1042.58 1269.38,239.222 1246.84,239.222 "/>
<path clip-path="url(#clip732)" d="M1275.02 239.222 L1275.02 1042.58 L1297.56 1042.58 L1297.56 239.222 L1275.02 239.222 L1275.02 239.222  Z" fill="#009af9" fill-rule="evenodd" fill-opacity="0.5"/>
<polyline clip-path="url(#clip732)" style="stroke:#000000; stroke-linecap:round; stroke-linejoin:round; stroke-width:4; stroke-opacity:0.5; fill:none" points="1275.02,239.222 1275.02,1042.58 1297.56,1042.58 1297.56,239.222 1275.02,239.222 "/>
<path clip-path="url(#clip732)" d="M1303.2 435.484 L1303.2 1042.58 L1325.74 1042.58 L1325.74 435.484 L1303.2 435.484 L1303.2 435.484  Z" fill="#009af9" fill-rule="evenodd" fill-opacity="0.5"/>
<polyline clip-path="url(#clip732)" style="stroke:#000000; stroke-linecap:round; stroke-linejoin:round; stroke-width:4; stroke-opacity:0.5; fill:none" points="1303.2,435.484 1303.2,1042.58 1325.74,1042.58 1325.74,435.484 1303.2,435.484 "/>
<path clip-path="url(#clip732)" d="M1331.38 287.694 L1331.38 1042.58 L1353.92 1042.58 L1353.92 287.694 L1331.38 287.694 L1331.38 287.694  Z" fill="#009af9" fill-rule="evenodd" fill-opacity="0.5"/>
<polyline clip-path="url(#clip732)" style="stroke:#000000; stroke-linecap:round; stroke-linejoin:round; stroke-width:4; stroke-opacity:0.5; fill:none" points="1331.38,287.694 1331.38,1042.58 1353.92,1042.58 1353.92,287.694 1331.38,287.694 "/>
<path clip-path="url(#clip732)" d="M1359.56 258.728 L1359.56 1042.58 L1382.1 1042.58 L1382.1 258.728 L1359.56 258.728 L1359.56 258.728  Z" fill="#009af9" fill-rule="evenodd" fill-opacity="0.5"/>
<polyline clip-path="url(#clip732)" style="stroke:#000000; stroke-linecap:round; stroke-linejoin:round; stroke-width:4; stroke-opacity:0.5; fill:none" points="1359.56,258.728 1359.56,1042.58 1382.1,1042.58 1382.1,258.728 1359.56,258.728 "/>
<path clip-path="url(#clip732)" d="M1387.74 199.389 L1387.74 1042.58 L1410.28 1042.58 L1410.28 199.389 L1387.74 199.389 L1387.74 199.389  Z" fill="#009af9" fill-rule="evenodd" fill-opacity="0.5"/>
<polyline clip-path="url(#clip732)" style="stroke:#000000; stroke-linecap:round; stroke-linejoin:round; stroke-width:4; stroke-opacity:0.5; fill:none" points="1387.74,199.389 1387.74,1042.58 1410.28,1042.58 1410.28,199.389 1387.74,199.389 "/>
<path clip-path="url(#clip732)" d="M1415.92 221.278 L1415.92 1042.58 L1438.46 1042.58 L1438.46 221.278 L1415.92 221.278 L1415.92 221.278  Z" fill="#009af9" fill-rule="evenodd" fill-opacity="0.5"/>
<polyline clip-path="url(#clip732)" style="stroke:#000000; stroke-linecap:round; stroke-linejoin:round; stroke-width:4; stroke-opacity:0.5; fill:none" points="1415.92,221.278 1415.92,1042.58 1438.46,1042.58 1438.46,221.278 1415.92,221.278 "/>
<path clip-path="url(#clip732)" d="M1444.1 179.449 L1444.1 1042.58 L1466.64 1042.58 L1466.64 179.449 L1444.1 179.449 L1444.1 179.449  Z" fill="#009af9" fill-rule="evenodd" fill-opacity="0.5"/>
<polyline clip-path="url(#clip732)" style="stroke:#000000; stroke-linecap:round; stroke-linejoin:round; stroke-width:4; stroke-opacity:0.5; fill:none" points="1444.1,179.449 1444.1,1042.58 1466.64,1042.58 1466.64,179.449 1444.1,179.449 "/>
<path clip-path="url(#clip732)" d="M1472.28 204.664 L1472.28 1042.58 L1494.82 1042.58 L1494.82 204.664 L1472.28 204.664 L1472.28 204.664  Z" fill="#009af9" fill-rule="evenodd" fill-opacity="0.5"/>
<polyline clip-path="url(#clip732)" style="stroke:#000000; stroke-linecap:round; stroke-linejoin:round; stroke-width:4; stroke-opacity:0.5; fill:none" points="1472.28,204.664 1472.28,1042.58 1494.82,1042.58 1494.82,204.664 1472.28,204.664 "/>
<path clip-path="url(#clip732)" d="M1500.45 265.626 L1500.45 1042.58 L1523 1042.58 L1523 265.626 L1500.45 265.626 L1500.45 265.626  Z" fill="#009af9" fill-rule="evenodd" fill-opacity="0.5"/>
<polyline clip-path="url(#clip732)" style="stroke:#000000; stroke-linecap:round; stroke-linejoin:round; stroke-width:4; stroke-opacity:0.5; fill:none" points="1500.45,265.626 1500.45,1042.58 1523,1042.58 1523,265.626 1500.45,265.626 "/>
<path clip-path="url(#clip732)" d="M1528.63 349.625 L1528.63 1042.58 L1551.18 1042.58 L1551.18 349.625 L1528.63 349.625 L1528.63 349.625  Z" fill="#009af9" fill-rule="evenodd" fill-opacity="0.5"/>
<polyline clip-path="url(#clip732)" style="stroke:#000000; stroke-linecap:round; stroke-linejoin:round; stroke-width:4; stroke-opacity:0.5; fill:none" points="1528.63,349.625 1528.63,1042.58 1551.18,1042.58 1551.18,349.625 1528.63,349.625 "/>
<path clip-path="url(#clip732)" d="M1556.81 252.035 L1556.81 1042.58 L1579.36 1042.58 L1579.36 252.035 L1556.81 252.035 L1556.81 252.035  Z" fill="#009af9" fill-rule="evenodd" fill-opacity="0.5"/>
<polyline clip-path="url(#clip732)" style="stroke:#000000; stroke-linecap:round; stroke-linejoin:round; stroke-width:4; stroke-opacity:0.5; fill:none" points="1556.81,252.035 1556.81,1042.58 1579.36,1042.58 1579.36,252.035 1556.81,252.035 "/>
<path clip-path="url(#clip732)" d="M1584.99 245.537 L1584.99 1042.58 L1607.54 1042.58 L1607.54 245.537 L1584.99 245.537 L1584.99 245.537  Z" fill="#009af9" fill-rule="evenodd" fill-opacity="0.5"/>
<polyline clip-path="url(#clip732)" style="stroke:#000000; stroke-linecap:round; stroke-linejoin:round; stroke-width:4; stroke-opacity:0.5; fill:none" points="1584.99,245.537 1584.99,1042.58 1607.54,1042.58 1607.54,245.537 1584.99,245.537 "/>
<path clip-path="url(#clip732)" d="M1613.17 156.785 L1613.17 1042.58 L1635.71 1042.58 L1635.71 156.785 L1613.17 156.785 L1613.17 156.785  Z" fill="#009af9" fill-rule="evenodd" fill-opacity="0.5"/>
<polyline clip-path="url(#clip732)" style="stroke:#000000; stroke-linecap:round; stroke-linejoin:round; stroke-width:4; stroke-opacity:0.5; fill:none" points="1613.17,156.785 1613.17,1042.58 1635.71,1042.58 1635.71,156.785 1613.17,156.785 "/>
<path clip-path="url(#clip732)" d="M1641.35 199.389 L1641.35 1042.58 L1663.89 1042.58 L1663.89 199.389 L1641.35 199.389 L1641.35 199.389  Z" fill="#009af9" fill-rule="evenodd" fill-opacity="0.5"/>
<polyline clip-path="url(#clip732)" style="stroke:#000000; stroke-linecap:round; stroke-linejoin:round; stroke-width:4; stroke-opacity:0.5; fill:none" points="1641.35,199.389 1641.35,1042.58 1663.89,1042.58 1663.89,199.389 1641.35,199.389 "/>
<path clip-path="url(#clip732)" d="M1669.53 252.035 L1669.53 1042.58 L1692.07 1042.58 L1692.07 252.035 L1669.53 252.035 L1669.53 252.035  Z" fill="#009af9" fill-rule="evenodd" fill-opacity="0.5"/>
<polyline clip-path="url(#clip732)" style="stroke:#000000; stroke-linecap:round; stroke-linejoin:round; stroke-width:4; stroke-opacity:0.5; fill:none" points="1669.53,252.035 1669.53,1042.58 1692.07,1042.58 1692.07,252.035 1669.53,252.035 "/>
<path clip-path="url(#clip732)" d="M1697.71 258.728 L1697.71 1042.58 L1720.25 1042.58 L1720.25 258.728 L1697.71 258.728 L1697.71 258.728  Z" fill="#009af9" fill-rule="evenodd" fill-opacity="0.5"/>
<polyline clip-path="url(#clip732)" style="stroke:#000000; stroke-linecap:round; stroke-linejoin:round; stroke-width:4; stroke-opacity:0.5; fill:none" points="1697.71,258.728 1697.71,1042.58 1720.25,1042.58 1720.25,258.728 1697.71,258.728 "/>
<path clip-path="url(#clip732)" d="M1725.89 287.694 L1725.89 1042.58 L1748.43 1042.58 L1748.43 287.694 L1725.89 287.694 L1725.89 287.694  Z" fill="#009af9" fill-rule="evenodd" fill-opacity="0.5"/>
<polyline clip-path="url(#clip732)" style="stroke:#000000; stroke-linecap:round; stroke-linejoin:round; stroke-width:4; stroke-opacity:0.5; fill:none" points="1725.89,287.694 1725.89,1042.58 1748.43,1042.58 1748.43,287.694 1725.89,287.694 "/>
<path clip-path="url(#clip732)" d="M1754.07 189.197 L1754.07 1042.58 L1776.61 1042.58 L1776.61 189.197 L1754.07 189.197 L1754.07 189.197  Z" fill="#009af9" fill-rule="evenodd" fill-opacity="0.5"/>
<polyline clip-path="url(#clip732)" style="stroke:#000000; stroke-linecap:round; stroke-linejoin:round; stroke-width:4; stroke-opacity:0.5; fill:none" points="1754.07,189.197 1754.07,1042.58 1776.61,1042.58 1776.61,189.197 1754.07,189.197 "/>
<path clip-path="url(#clip732)" d="M1782.25 233.079 L1782.25 1042.58 L1804.79 1042.58 L1804.79 233.079 L1782.25 233.079 L1782.25 233.079  Z" fill="#009af9" fill-rule="evenodd" fill-opacity="0.5"/>
<polyline clip-path="url(#clip732)" style="stroke:#000000; stroke-linecap:round; stroke-linejoin:round; stroke-width:4; stroke-opacity:0.5; fill:none" points="1782.25,233.079 1782.25,1042.58 1804.79,1042.58 1804.79,233.079 1782.25,233.079 "/>
<path clip-path="url(#clip732)" d="M1810.43 239.222 L1810.43 1042.58 L1832.97 1042.58 L1832.97 239.222 L1810.43 239.222 L1810.43 239.222  Z" fill="#009af9" fill-rule="evenodd" fill-opacity="0.5"/>
<polyline clip-path="url(#clip732)" style="stroke:#000000; stroke-linecap:round; stroke-linejoin:round; stroke-width:4; stroke-opacity:0.5; fill:none" points="1810.43,239.222 1810.43,1042.58 1832.97,1042.58 1832.97,239.222 1810.43,239.222 "/>
<path clip-path="url(#clip732)" d="M1838.61 199.389 L1838.61 1042.58 L1861.15 1042.58 L1861.15 199.389 L1838.61 199.389 L1838.61 199.389  Z" fill="#009af9" fill-rule="evenodd" fill-opacity="0.5"/>
<polyline clip-path="url(#clip732)" style="stroke:#000000; stroke-linecap:round; stroke-linejoin:round; stroke-width:4; stroke-opacity:0.5; fill:none" points="1838.61,199.389 1838.61,1042.58 1861.15,1042.58 1861.15,199.389 1838.61,199.389 "/>
<path clip-path="url(#clip732)" d="M1866.78 221.278 L1866.78 1042.58 L1889.33 1042.58 L1889.33 221.278 L1866.78 221.278 L1866.78 221.278  Z" fill="#009af9" fill-rule="evenodd" fill-opacity="0.5"/>
<polyline clip-path="url(#clip732)" style="stroke:#000000; stroke-linecap:round; stroke-linejoin:round; stroke-width:4; stroke-opacity:0.5; fill:none" points="1866.78,221.278 1866.78,1042.58 1889.33,1042.58 1889.33,221.278 1866.78,221.278 "/>
<path clip-path="url(#clip732)" d="M1894.96 320.967 L1894.96 1042.58 L1917.51 1042.58 L1917.51 320.967 L1894.96 320.967 L1894.96 320.967  Z" fill="#009af9" fill-rule="evenodd" fill-opacity="0.5"/>
<polyline clip-path="url(#clip732)" style="stroke:#000000; stroke-linecap:round; stroke-linejoin:round; stroke-width:4; stroke-opacity:0.5; fill:none" points="1894.96,320.967 1894.96,1042.58 1917.51,1042.58 1917.51,320.967 1894.96,320.967 "/>
<path clip-path="url(#clip732)" d="M1923.14 221.278 L1923.14 1042.58 L1945.69 1042.58 L1945.69 221.278 L1923.14 221.278 L1923.14 221.278  Z" fill="#009af9" fill-rule="evenodd" fill-opacity="0.5"/>
<polyline clip-path="url(#clip732)" style="stroke:#000000; stroke-linecap:round; stroke-linejoin:round; stroke-width:4; stroke-opacity:0.5; fill:none" points="1923.14,221.278 1923.14,1042.58 1945.69,1042.58 1945.69,221.278 1923.14,221.278 "/>
<path clip-path="url(#clip732)" d="M1951.32 170.106 L1951.32 1042.58 L1973.87 1042.58 L1973.87 170.106 L1951.32 170.106 L1951.32 170.106  Z" fill="#009af9" fill-rule="evenodd" fill-opacity="0.5"/>
<polyline clip-path="url(#clip732)" style="stroke:#000000; stroke-linecap:round; stroke-linejoin:round; stroke-width:4; stroke-opacity:0.5; fill:none" points="1951.32,170.106 1951.32,1042.58 1973.87,1042.58 1973.87,170.106 1951.32,170.106 "/>
<path clip-path="url(#clip732)" d="M1979.5 189.197 L1979.5 1042.58 L2002.04 1042.58 L2002.04 189.197 L1979.5 189.197 L1979.5 189.197  Z" fill="#009af9" fill-rule="evenodd" fill-opacity="0.5"/>
<polyline clip-path="url(#clip732)" style="stroke:#000000; stroke-linecap:round; stroke-linejoin:round; stroke-width:4; stroke-opacity:0.5; fill:none" points="1979.5,189.197 1979.5,1042.58 2002.04,1042.58 2002.04,189.197 1979.5,189.197 "/>
<path clip-path="url(#clip732)" d="M2007.68 221.278 L2007.68 1042.58 L2030.22 1042.58 L2030.22 221.278 L2007.68 221.278 L2007.68 221.278  Z" fill="#009af9" fill-rule="evenodd" fill-opacity="0.5"/>
<polyline clip-path="url(#clip732)" style="stroke:#000000; stroke-linecap:round; stroke-linejoin:round; stroke-width:4; stroke-opacity:0.5; fill:none" points="2007.68,221.278 2007.68,1042.58 2030.22,1042.58 2030.22,221.278 2007.68,221.278 "/>
<path clip-path="url(#clip732)" d="M2035.86 174.729 L2035.86 1042.58 L2058.4 1042.58 L2058.4 174.729 L2035.86 174.729 L2035.86 174.729  Z" fill="#009af9" fill-rule="evenodd" fill-opacity="0.5"/>
<polyline clip-path="url(#clip732)" style="stroke:#000000; stroke-linecap:round; stroke-linejoin:round; stroke-width:4; stroke-opacity:0.5; fill:none" points="2035.86,174.729 2035.86,1042.58 2058.4,1042.58 2058.4,174.729 2035.86,174.729 "/>
<path clip-path="url(#clip732)" d="M2064.04 161.138 L2064.04 1042.58 L2086.58 1042.58 L2086.58 161.138 L2064.04 161.138 L2064.04 161.138  Z" fill="#009af9" fill-rule="evenodd" fill-opacity="0.5"/>
<polyline clip-path="url(#clip732)" style="stroke:#000000; stroke-linecap:round; stroke-linejoin:round; stroke-width:4; stroke-opacity:0.5; fill:none" points="2064.04,161.138 2064.04,1042.58 2086.58,1042.58 2086.58,161.138 2064.04,161.138 "/>
<path clip-path="url(#clip732)" d="M2092.22 280.094 L2092.22 1042.58 L2114.76 1042.58 L2114.76 280.094 L2092.22 280.094 L2092.22 280.094  Z" fill="#009af9" fill-rule="evenodd" fill-opacity="0.5"/>
<polyline clip-path="url(#clip732)" style="stroke:#000000; stroke-linecap:round; stroke-linejoin:round; stroke-width:4; stroke-opacity:0.5; fill:none" points="2092.22,280.094 2092.22,1042.58 2114.76,1042.58 2114.76,280.094 2092.22,280.094 "/>
<path clip-path="url(#clip732)" d="M2120.4 339.66 L2120.4 1042.58 L2142.94 1042.58 L2142.94 339.66 L2120.4 339.66 L2120.4 339.66  Z" fill="#009af9" fill-rule="evenodd" fill-opacity="0.5"/>
<polyline clip-path="url(#clip732)" style="stroke:#000000; stroke-linecap:round; stroke-linejoin:round; stroke-width:4; stroke-opacity:0.5; fill:none" points="2120.4,339.66 2120.4,1042.58 2142.94,1042.58 2142.94,339.66 2120.4,339.66 "/>
<path clip-path="url(#clip732)" d="M2148.58 227.101 L2148.58 1042.58 L2171.12 1042.58 L2171.12 227.101 L2148.58 227.101 L2148.58 227.101  Z" fill="#009af9" fill-rule="evenodd" fill-opacity="0.5"/>
<polyline clip-path="url(#clip732)" style="stroke:#000000; stroke-linecap:round; stroke-linejoin:round; stroke-width:4; stroke-opacity:0.5; fill:none" points="2148.58,227.101 2148.58,1042.58 2171.12,1042.58 2171.12,227.101 2148.58,227.101 "/>
<path clip-path="url(#clip732)" d="M2176.76 210.066 L2176.76 1042.58 L2199.3 1042.58 L2199.3 210.066 L2176.76 210.066 L2176.76 210.066  Z" fill="#009af9" fill-rule="evenodd" fill-opacity="0.5"/>
<polyline clip-path="url(#clip732)" style="stroke:#000000; stroke-linecap:round; stroke-linejoin:round; stroke-width:4; stroke-opacity:0.5; fill:none" points="2176.76,210.066 2176.76,1042.58 2199.3,1042.58 2199.3,210.066 2176.76,210.066 "/>
<path clip-path="url(#clip732)" d="M2204.94 320.967 L2204.94 1042.58 L2227.48 1042.58 L2227.48 320.967 L2204.94 320.967 L2204.94 320.967  Z" fill="#009af9" fill-rule="evenodd" fill-opacity="0.5"/>
<polyline clip-path="url(#clip732)" style="stroke:#000000; stroke-linecap:round; stroke-linejoin:round; stroke-width:4; stroke-opacity:0.5; fill:none" points="2204.94,320.967 2204.94,1042.58 2227.48,1042.58 2227.48,320.967 2204.94,320.967 "/>
<path clip-path="url(#clip732)" d="M2233.11 233.079 L2233.11 1042.58 L2255.66 1042.58 L2255.66 233.079 L2233.11 233.079 L2233.11 233.079  Z" fill="#009af9" fill-rule="evenodd" fill-opacity="0.5"/>
<polyline clip-path="url(#clip732)" style="stroke:#000000; stroke-linecap:round; stroke-linejoin:round; stroke-width:4; stroke-opacity:0.5; fill:none" points="2233.11,233.079 2233.11,1042.58 2255.66,1042.58 2255.66,233.079 2233.11,233.079 "/>
<path clip-path="url(#clip732)" d="M2261.29 312.175 L2261.29 1042.58 L2283.84 1042.58 L2283.84 312.175 L2261.29 312.175 L2261.29 312.175  Z" fill="#009af9" fill-rule="evenodd" fill-opacity="0.5"/>
<polyline clip-path="url(#clip732)" style="stroke:#000000; stroke-linecap:round; stroke-linejoin:round; stroke-width:4; stroke-opacity:0.5; fill:none" points="2261.29,312.175 2261.29,1042.58 2283.84,1042.58 2283.84,312.175 2261.29,312.175 "/>
<path clip-path="url(#clip732)" d="M2289.47 295.561 L2289.47 1042.58 L2312.02 1042.58 L2312.02 295.561 L2289.47 295.561 L2289.47 295.561  Z" fill="#009af9" fill-rule="evenodd" fill-opacity="0.5"/>
<polyline clip-path="url(#clip732)" style="stroke:#000000; stroke-linecap:round; stroke-linejoin:round; stroke-width:4; stroke-opacity:0.5; fill:none" points="2289.47,295.561 2289.47,1042.58 2312.02,1042.58 2312.02,295.561 2289.47,295.561 "/>
<path clip-path="url(#clip732)" d="M2317.65 330.119 L2317.65 1042.58 L2340.2 1042.58 L2340.2 330.119 L2317.65 330.119 L2317.65 330.119  Z" fill="#009af9" fill-rule="evenodd" fill-opacity="0.5"/>
<polyline clip-path="url(#clip732)" style="stroke:#000000; stroke-linecap:round; stroke-linejoin:round; stroke-width:4; stroke-opacity:0.5; fill:none" points="2317.65,330.119 2317.65,1042.58 2340.2,1042.58 2340.2,330.119 2317.65,330.119 "/>
<path clip-path="url(#clip732)" d="M2345.83 295.561 L2345.83 1042.58 L2368.38 1042.58 L2368.38 295.561 L2345.83 295.561 L2345.83 295.561  Z" fill="#009af9" fill-rule="evenodd" fill-opacity="0.5"/>
<polyline clip-path="url(#clip732)" style="stroke:#000000; stroke-linecap:round; stroke-linejoin:round; stroke-width:4; stroke-opacity:0.5; fill:none" points="2345.83,295.561 2345.83,1042.58 2368.38,1042.58 2368.38,295.561 2345.83,295.561 "/>
<path clip-path="url(#clip732)" d="M2374.01 258.728 L2374.01 1042.58 L2396.55 1042.58 L2396.55 258.728 L2374.01 258.728 L2374.01 258.728  Z" fill="#009af9" fill-rule="evenodd" fill-opacity="0.5"/>
<polyline clip-path="url(#clip732)" style="stroke:#000000; stroke-linecap:round; stroke-linejoin:round; stroke-width:4; stroke-opacity:0.5; fill:none" points="2374.01,258.728 2374.01,1042.58 2396.55,1042.58 2396.55,258.728 2374.01,258.728 "/>
<path clip-path="url(#clip732)" d="M2402.19 312.175 L2402.19 1042.58 L2424.73 1042.58 L2424.73 312.175 L2402.19 312.175 L2402.19 312.175  Z" fill="#009af9" fill-rule="evenodd" fill-opacity="0.5"/>
<polyline clip-path="url(#clip732)" style="stroke:#000000; stroke-linecap:round; stroke-linejoin:round; stroke-width:4; stroke-opacity:0.5; fill:none" points="2402.19,312.175 2402.19,1042.58 2424.73,1042.58 2424.73,312.175 2402.19,312.175 "/>
<path clip-path="url(#clip732)" d="M2430.37 184.27 L2430.37 1042.58 L2452.91 1042.58 L2452.91 184.27 L2430.37 184.27 L2430.37 184.27  Z" fill="#009af9" fill-rule="evenodd" fill-opacity="0.5"/>
<polyline clip-path="url(#clip732)" style="stroke:#000000; stroke-linecap:round; stroke-linejoin:round; stroke-width:4; stroke-opacity:0.5; fill:none" points="2430.37,184.27 2430.37,1042.58 2452.91,1042.58 2452.91,184.27 2430.37,184.27 "/>
<path clip-path="url(#clip732)" d="M2458.55 280.094 L2458.55 1042.58 L2481.09 1042.58 L2481.09 280.094 L2458.55 280.094 L2458.55 280.094  Z" fill="#009af9" fill-rule="evenodd" fill-opacity="0.5"/>
<polyline clip-path="url(#clip732)" style="stroke:#000000; stroke-linecap:round; stroke-linejoin:round; stroke-width:4; stroke-opacity:0.5; fill:none" points="2458.55,280.094 2458.55,1042.58 2481.09,1042.58 2481.09,280.094 2458.55,280.094 "/>
<path clip-path="url(#clip732)" d="M2486.73 370.992 L2486.73 1042.58 L2509.27 1042.58 L2509.27 370.992 L2486.73 370.992 L2486.73 370.992  Z" fill="#009af9" fill-rule="evenodd" fill-opacity="0.5"/>
<polyline clip-path="url(#clip732)" style="stroke:#000000; stroke-linecap:round; stroke-linejoin:round; stroke-width:4; stroke-opacity:0.5; fill:none" points="2486.73,370.992 2486.73,1042.58 2509.27,1042.58 2509.27,370.992 2486.73,370.992 "/>
<path clip-path="url(#clip732)" d="M2514.91 280.094 L2514.91 1042.58 L2537.45 1042.58 L2537.45 280.094 L2514.91 280.094 L2514.91 280.094  Z" fill="#009af9" fill-rule="evenodd" fill-opacity="0.5"/>
<polyline clip-path="url(#clip732)" style="stroke:#000000; stroke-linecap:round; stroke-linejoin:round; stroke-width:4; stroke-opacity:0.5; fill:none" points="2514.91,280.094 2514.91,1042.58 2537.45,1042.58 2537.45,280.094 2514.91,280.094 "/>
<path clip-path="url(#clip732)" d="M2543.09 330.119 L2543.09 1042.58 L2565.63 1042.58 L2565.63 330.119 L2543.09 330.119 L2543.09 330.119  Z" fill="#009af9" fill-rule="evenodd" fill-opacity="0.5"/>
<polyline clip-path="url(#clip732)" style="stroke:#000000; stroke-linecap:round; stroke-linejoin:round; stroke-width:4; stroke-opacity:0.5; fill:none" points="2543.09,330.119 2543.09,1042.58 2565.63,1042.58 2565.63,330.119 2543.09,330.119 "/>
<path clip-path="url(#clip732)" d="M2571.27 407.425 L2571.27 1042.58 L2593.81 1042.58 L2593.81 407.425 L2571.27 407.425 L2571.27 407.425  Z" fill="#009af9" fill-rule="evenodd" fill-opacity="0.5"/>
<polyline clip-path="url(#clip732)" style="stroke:#000000; stroke-linecap:round; stroke-linejoin:round; stroke-width:4; stroke-opacity:0.5; fill:none" points="2571.27,407.425 2571.27,1042.58 2593.81,1042.58 2593.81,407.425 2571.27,407.425 "/>
<path clip-path="url(#clip732)" d="M2599.44 370.992 L2599.44 1042.58 L2621.99 1042.58 L2621.99 370.992 L2599.44 370.992 L2599.44 370.992  Z" fill="#009af9" fill-rule="evenodd" fill-opacity="0.5"/>
<polyline clip-path="url(#clip732)" style="stroke:#000000; stroke-linecap:round; stroke-linejoin:round; stroke-width:4; stroke-opacity:0.5; fill:none" points="2599.44,370.992 2599.44,1042.58 2621.99,1042.58 2621.99,370.992 2599.44,370.992 "/>
<path clip-path="url(#clip732)" d="M2627.62 606.341 L2627.62 1042.58 L2650.17 1042.58 L2650.17 606.341 L2627.62 606.341 L2627.62 606.341  Z" fill="#009af9" fill-rule="evenodd" fill-opacity="0.5"/>
<polyline clip-path="url(#clip732)" style="stroke:#000000; stroke-linecap:round; stroke-linejoin:round; stroke-width:4; stroke-opacity:0.5; fill:none" points="2627.62,606.341 2627.62,1042.58 2650.17,1042.58 2650.17,606.341 2627.62,606.341 "/>
<path clip-path="url(#clip732)" d="M2655.8 394.611 L2655.8 1042.58 L2678.35 1042.58 L2678.35 394.611 L2655.8 394.611 L2655.8 394.611  Z" fill="#009af9" fill-rule="evenodd" fill-opacity="0.5"/>
<polyline clip-path="url(#clip732)" style="stroke:#000000; stroke-linecap:round; stroke-linejoin:round; stroke-width:4; stroke-opacity:0.5; fill:none" points="2655.8,394.611 2655.8,1042.58 2678.35,1042.58 2678.35,394.611 2655.8,394.611 "/>
<path clip-path="url(#clip732)" d="M2683.98 421.016 L2683.98 1042.58 L2706.53 1042.58 L2706.53 421.016 L2683.98 421.016 L2683.98 421.016  Z" fill="#009af9" fill-rule="evenodd" fill-opacity="0.5"/>
<polyline clip-path="url(#clip732)" style="stroke:#000000; stroke-linecap:round; stroke-linejoin:round; stroke-width:4; stroke-opacity:0.5; fill:none" points="2683.98,421.016 2683.98,1042.58 2706.53,1042.58 2706.53,421.016 2683.98,421.016 "/>
<path clip-path="url(#clip732)" d="M2712.16 505.015 L2712.16 1042.58 L2734.71 1042.58 L2734.71 505.015 L2712.16 505.015 L2712.16 505.015  Z" fill="#009af9" fill-rule="evenodd" fill-opacity="0.5"/>
<polyline clip-path="url(#clip732)" style="stroke:#000000; stroke-linecap:round; stroke-linejoin:round; stroke-width:4; stroke-opacity:0.5; fill:none" points="2712.16,505.015 2712.16,1042.58 2734.71,1042.58 2734.71,505.015 2712.16,505.015 "/>
<path clip-path="url(#clip732)" d="M2740.34 1042.58 L2740.34 1042.58 L2762.88 1042.58 L2762.88 1042.58 L2740.34 1042.58 L2740.34 1042.58  Z" fill="#009af9" fill-rule="evenodd" fill-opacity="0.5"/>
<polyline clip-path="url(#clip732)" style="stroke:#000000; stroke-linecap:round; stroke-linejoin:round; stroke-width:4; stroke-opacity:0.5; fill:none" points="2740.34,1042.58 2740.34,1042.58 2762.88,1042.58 2740.34,1042.58 "/>
<circle clip-path="url(#clip732)" style="fill:#009af9; stroke:none; fill-opacity:0" cx="300.018" cy="132.305" r="2"/>
<circle clip-path="url(#clip732)" style="fill:#009af9; stroke:none; fill-opacity:0" cx="328.198" cy="339.66" r="2"/>
<circle clip-path="url(#clip732)" style="fill:#009af9; stroke:none; fill-opacity:0" cx="356.377" cy="330.119" r="2"/>
<circle clip-path="url(#clip732)" style="fill:#009af9; stroke:none; fill-opacity:0" cx="384.556" cy="152.515" r="2"/>
<circle clip-path="url(#clip732)" style="fill:#009af9; stroke:none; fill-opacity:0" cx="412.735" cy="280.094" r="2"/>
<circle clip-path="url(#clip732)" style="fill:#009af9; stroke:none; fill-opacity:0" cx="440.915" cy="132.305" r="2"/>
<circle clip-path="url(#clip732)" style="fill:#009af9; stroke:none; fill-opacity:0" cx="469.094" cy="156.785" r="2"/>
<circle clip-path="url(#clip732)" style="fill:#009af9; stroke:none; fill-opacity:0" cx="497.273" cy="239.222" r="2"/>
<circle clip-path="url(#clip732)" style="fill:#009af9; stroke:none; fill-opacity:0" cx="525.452" cy="370.992" r="2"/>
<circle clip-path="url(#clip732)" style="fill:#009af9; stroke:none; fill-opacity:0" cx="553.632" cy="295.561" r="2"/>
<circle clip-path="url(#clip732)" style="fill:#009af9; stroke:none; fill-opacity:0" cx="581.811" cy="140.171" r="2"/>
<circle clip-path="url(#clip732)" style="fill:#009af9; stroke:none; fill-opacity:0" cx="609.99" cy="227.101" r="2"/>
<circle clip-path="url(#clip732)" style="fill:#009af9; stroke:none; fill-opacity:0" cx="638.169" cy="110.236" r="2"/>
<circle clip-path="url(#clip732)" style="fill:#009af9; stroke:none; fill-opacity:0" cx="666.349" cy="117.354" r="2"/>
<circle clip-path="url(#clip732)" style="fill:#009af9; stroke:none; fill-opacity:0" cx="694.528" cy="140.171" r="2"/>
<circle clip-path="url(#clip732)" style="fill:#009af9; stroke:none; fill-opacity:0" cx="722.707" cy="179.449" r="2"/>
<circle clip-path="url(#clip732)" style="fill:#009af9; stroke:none; fill-opacity:0" cx="750.886" cy="221.278" r="2"/>
<circle clip-path="url(#clip732)" style="fill:#009af9; stroke:none; fill-opacity:0" cx="779.066" cy="227.101" r="2"/>
<circle clip-path="url(#clip732)" style="fill:#009af9; stroke:none; fill-opacity:0" cx="807.245" cy="227.101" r="2"/>
<circle clip-path="url(#clip732)" style="fill:#009af9; stroke:none; fill-opacity:0" cx="835.424" cy="233.079" r="2"/>
<circle clip-path="url(#clip732)" style="fill:#009af9; stroke:none; fill-opacity:0" cx="863.603" cy="199.389" r="2"/>
<circle clip-path="url(#clip732)" style="fill:#009af9; stroke:none; fill-opacity:0" cx="891.783" cy="215.602" r="2"/>
<circle clip-path="url(#clip732)" style="fill:#009af9; stroke:none; fill-opacity:0" cx="919.962" cy="339.66" r="2"/>
<circle clip-path="url(#clip732)" style="fill:#009af9; stroke:none; fill-opacity:0" cx="948.141" cy="295.561" r="2"/>
<circle clip-path="url(#clip732)" style="fill:#009af9; stroke:none; fill-opacity:0" cx="976.32" cy="215.602" r="2"/>
<circle clip-path="url(#clip732)" style="fill:#009af9; stroke:none; fill-opacity:0" cx="1004.5" cy="265.626" r="2"/>
<circle clip-path="url(#clip732)" style="fill:#009af9; stroke:none; fill-opacity:0" cx="1032.68" cy="239.222" r="2"/>
<circle clip-path="url(#clip732)" style="fill:#009af9; stroke:none; fill-opacity:0" cx="1060.86" cy="272.744" r="2"/>
<circle clip-path="url(#clip732)" style="fill:#009af9; stroke:none; fill-opacity:0" cx="1089.04" cy="233.079" r="2"/>
<circle clip-path="url(#clip732)" style="fill:#009af9; stroke:none; fill-opacity:0" cx="1117.22" cy="450.951" r="2"/>
<circle clip-path="url(#clip732)" style="fill:#009af9; stroke:none; fill-opacity:0" cx="1145.4" cy="349.625" r="2"/>
<circle clip-path="url(#clip732)" style="fill:#009af9; stroke:none; fill-opacity:0" cx="1173.58" cy="215.602" r="2"/>
<circle clip-path="url(#clip732)" style="fill:#009af9; stroke:none; fill-opacity:0" cx="1201.75" cy="258.728" r="2"/>
<circle clip-path="url(#clip732)" style="fill:#009af9; stroke:none; fill-opacity:0" cx="1229.93" cy="245.537" r="2"/>
<circle clip-path="url(#clip732)" style="fill:#009af9; stroke:none; fill-opacity:0" cx="1258.11" cy="239.222" r="2"/>
<circle clip-path="url(#clip732)" style="fill:#009af9; stroke:none; fill-opacity:0" cx="1286.29" cy="239.222" r="2"/>
<circle clip-path="url(#clip732)" style="fill:#009af9; stroke:none; fill-opacity:0" cx="1314.47" cy="435.484" r="2"/>
<circle clip-path="url(#clip732)" style="fill:#009af9; stroke:none; fill-opacity:0" cx="1342.65" cy="287.694" r="2"/>
<circle clip-path="url(#clip732)" style="fill:#009af9; stroke:none; fill-opacity:0" cx="1370.83" cy="258.728" r="2"/>
<circle clip-path="url(#clip732)" style="fill:#009af9; stroke:none; fill-opacity:0" cx="1399.01" cy="199.389" r="2"/>
<circle clip-path="url(#clip732)" style="fill:#009af9; stroke:none; fill-opacity:0" cx="1427.19" cy="221.278" r="2"/>
<circle clip-path="url(#clip732)" style="fill:#009af9; stroke:none; fill-opacity:0" cx="1455.37" cy="179.449" r="2"/>
<circle clip-path="url(#clip732)" style="fill:#009af9; stroke:none; fill-opacity:0" cx="1483.55" cy="204.664" r="2"/>
<circle clip-path="url(#clip732)" style="fill:#009af9; stroke:none; fill-opacity:0" cx="1511.73" cy="265.626" r="2"/>
<circle clip-path="url(#clip732)" style="fill:#009af9; stroke:none; fill-opacity:0" cx="1539.91" cy="349.625" r="2"/>
<circle clip-path="url(#clip732)" style="fill:#009af9; stroke:none; fill-opacity:0" cx="1568.08" cy="252.035" r="2"/>
<circle clip-path="url(#clip732)" style="fill:#009af9; stroke:none; fill-opacity:0" cx="1596.26" cy="245.537" r="2"/>
<circle clip-path="url(#clip732)" style="fill:#009af9; stroke:none; fill-opacity:0" cx="1624.44" cy="156.785" r="2"/>
<circle clip-path="url(#clip732)" style="fill:#009af9; stroke:none; fill-opacity:0" cx="1652.62" cy="199.389" r="2"/>
<circle clip-path="url(#clip732)" style="fill:#009af9; stroke:none; fill-opacity:0" cx="1680.8" cy="252.035" r="2"/>
<circle clip-path="url(#clip732)" style="fill:#009af9; stroke:none; fill-opacity:0" cx="1708.98" cy="258.728" r="2"/>
<circle clip-path="url(#clip732)" style="fill:#009af9; stroke:none; fill-opacity:0" cx="1737.16" cy="287.694" r="2"/>
<circle clip-path="url(#clip732)" style="fill:#009af9; stroke:none; fill-opacity:0" cx="1765.34" cy="189.197" r="2"/>
<circle clip-path="url(#clip732)" style="fill:#009af9; stroke:none; fill-opacity:0" cx="1793.52" cy="233.079" r="2"/>
<circle clip-path="url(#clip732)" style="fill:#009af9; stroke:none; fill-opacity:0" cx="1821.7" cy="239.222" r="2"/>
<circle clip-path="url(#clip732)" style="fill:#009af9; stroke:none; fill-opacity:0" cx="1849.88" cy="199.389" r="2"/>
<circle clip-path="url(#clip732)" style="fill:#009af9; stroke:none; fill-opacity:0" cx="1878.06" cy="221.278" r="2"/>
<circle clip-path="url(#clip732)" style="fill:#009af9; stroke:none; fill-opacity:0" cx="1906.24" cy="320.967" r="2"/>
<circle clip-path="url(#clip732)" style="fill:#009af9; stroke:none; fill-opacity:0" cx="1934.41" cy="221.278" r="2"/>
<circle clip-path="url(#clip732)" style="fill:#009af9; stroke:none; fill-opacity:0" cx="1962.59" cy="170.106" r="2"/>
<circle clip-path="url(#clip732)" style="fill:#009af9; stroke:none; fill-opacity:0" cx="1990.77" cy="189.197" r="2"/>
<circle clip-path="url(#clip732)" style="fill:#009af9; stroke:none; fill-opacity:0" cx="2018.95" cy="221.278" r="2"/>
<circle clip-path="url(#clip732)" style="fill:#009af9; stroke:none; fill-opacity:0" cx="2047.13" cy="174.729" r="2"/>
<circle clip-path="url(#clip732)" style="fill:#009af9; stroke:none; fill-opacity:0" cx="2075.31" cy="161.138" r="2"/>
<circle clip-path="url(#clip732)" style="fill:#009af9; stroke:none; fill-opacity:0" cx="2103.49" cy="280.094" r="2"/>
<circle clip-path="url(#clip732)" style="fill:#009af9; stroke:none; fill-opacity:0" cx="2131.67" cy="339.66" r="2"/>
<circle clip-path="url(#clip732)" style="fill:#009af9; stroke:none; fill-opacity:0" cx="2159.85" cy="227.101" r="2"/>
<circle clip-path="url(#clip732)" style="fill:#009af9; stroke:none; fill-opacity:0" cx="2188.03" cy="210.066" r="2"/>
<circle clip-path="url(#clip732)" style="fill:#009af9; stroke:none; fill-opacity:0" cx="2216.21" cy="320.967" r="2"/>
<circle clip-path="url(#clip732)" style="fill:#009af9; stroke:none; fill-opacity:0" cx="2244.39" cy="233.079" r="2"/>
<circle clip-path="url(#clip732)" style="fill:#009af9; stroke:none; fill-opacity:0" cx="2272.57" cy="312.175" r="2"/>
<circle clip-path="url(#clip732)" style="fill:#009af9; stroke:none; fill-opacity:0" cx="2300.74" cy="295.561" r="2"/>
<circle clip-path="url(#clip732)" style="fill:#009af9; stroke:none; fill-opacity:0" cx="2328.92" cy="330.119" r="2"/>
<circle clip-path="url(#clip732)" style="fill:#009af9; stroke:none; fill-opacity:0" cx="2357.1" cy="295.561" r="2"/>
<circle clip-path="url(#clip732)" style="fill:#009af9; stroke:none; fill-opacity:0" cx="2385.28" cy="258.728" r="2"/>
<circle clip-path="url(#clip732)" style="fill:#009af9; stroke:none; fill-opacity:0" cx="2413.46" cy="312.175" r="2"/>
<circle clip-path="url(#clip732)" style="fill:#009af9; stroke:none; fill-opacity:0" cx="2441.64" cy="184.27" r="2"/>
<circle clip-path="url(#clip732)" style="fill:#009af9; stroke:none; fill-opacity:0" cx="2469.82" cy="280.094" r="2"/>
<circle clip-path="url(#clip732)" style="fill:#009af9; stroke:none; fill-opacity:0" cx="2498" cy="370.992" r="2"/>
<circle clip-path="url(#clip732)" style="fill:#009af9; stroke:none; fill-opacity:0" cx="2526.18" cy="280.094" r="2"/>
<circle clip-path="url(#clip732)" style="fill:#009af9; stroke:none; fill-opacity:0" cx="2554.36" cy="330.119" r="2"/>
<circle clip-path="url(#clip732)" style="fill:#009af9; stroke:none; fill-opacity:0" cx="2582.54" cy="407.425" r="2"/>
<circle clip-path="url(#clip732)" style="fill:#009af9; stroke:none; fill-opacity:0" cx="2610.72" cy="370.992" r="2"/>
<circle clip-path="url(#clip732)" style="fill:#009af9; stroke:none; fill-opacity:0" cx="2638.9" cy="606.341" r="2"/>
<circle clip-path="url(#clip732)" style="fill:#009af9; stroke:none; fill-opacity:0" cx="2667.08" cy="394.611" r="2"/>
<circle clip-path="url(#clip732)" style="fill:#009af9; stroke:none; fill-opacity:0" cx="2695.25" cy="421.016" r="2"/>
<circle clip-path="url(#clip732)" style="fill:#009af9; stroke:none; fill-opacity:0" cx="2723.43" cy="505.015" r="2"/>
<circle clip-path="url(#clip732)" style="fill:#009af9; stroke:none; fill-opacity:0" cx="2751.61" cy="1042.58" r="2"/>
</svg>
