<?xml version="1.0" encoding="utf-8"?>
<svg xmlns="http://www.w3.org/2000/svg" xmlns:xlink="http://www.w3.org/1999/xlink" width="800" height="300" viewBox="0 0 3200 1200">
<defs>
  <clipPath id="clip190">
    <rect x="0" y="0" width="3200" height="1200"/>
  </clipPath>
</defs>
<path clip-path="url(#clip190)" d="
M0 1200 L3200 1200 L3200 0 L0 0  Z
  " fill="#ffffff" fill-rule="evenodd" fill-opacity="1"/>
<defs>
  <clipPath id="clip191">
    <rect x="640" y="0" width="2241" height="1200"/>
  </clipPath>
</defs>
<path clip-path="url(#clip190)" d="
M271.839 973.368 L3089.76 973.368 L3089.76 110.236 L271.839 110.236  Z
  " fill="#ffffff" fill-rule="evenodd" fill-opacity="1"/>
<defs>
  <clipPath id="clip192">
    <rect x="271" y="110" width="2819" height="864"/>
  </clipPath>
</defs>
<polyline clip-path="url(#clip192)" style="stroke:#000000; stroke-linecap:round; stroke-linejoin:round; stroke-width:2; stroke-opacity:0.1; fill:none" points="
  271.839,973.368 271.839,110.236 
  "/>
<polyline clip-path="url(#clip192)" style="stroke:#000000; stroke-linecap:round; stroke-linejoin:round; stroke-width:2; stroke-opacity:0.1; fill:none" points="
  553.632,973.368 553.632,110.236 
  "/>
<polyline clip-path="url(#clip192)" style="stroke:#000000; stroke-linecap:round; stroke-linejoin:round; stroke-width:2; stroke-opacity:0.1; fill:none" points="
  835.424,973.368 835.424,110.236 
  "/>
<polyline clip-path="url(#clip192)" style="stroke:#000000; stroke-linecap:round; stroke-linejoin:round; stroke-width:2; stroke-opacity:0.1; fill:none" points="
  1117.22,973.368 1117.22,110.236 
  "/>
<polyline clip-path="url(#clip192)" style="stroke:#000000; stroke-linecap:round; stroke-linejoin:round; stroke-width:2; stroke-opacity:0.1; fill:none" points="
  1399.01,973.368 1399.01,110.236 
  "/>
<polyline clip-path="url(#clip192)" style="stroke:#000000; stroke-linecap:round; stroke-linejoin:round; stroke-width:2; stroke-opacity:0.1; fill:none" points="
  1680.8,973.368 1680.8,110.236 
  "/>
<polyline clip-path="url(#clip192)" style="stroke:#000000; stroke-linecap:round; stroke-linejoin:round; stroke-width:2; stroke-opacity:0.1; fill:none" points="
  1962.59,973.368 1962.59,110.236 
  "/>
<polyline clip-path="url(#clip192)" style="stroke:#000000; stroke-linecap:round; stroke-linejoin:round; stroke-width:2; stroke-opacity:0.1; fill:none" points="
  2244.39,973.368 2244.39,110.236 
  "/>
<polyline clip-path="url(#clip192)" style="stroke:#000000; stroke-linecap:round; stroke-linejoin:round; stroke-width:2; stroke-opacity:0.1; fill:none" points="
  2526.18,973.368 2526.18,110.236 
  "/>
<polyline clip-path="url(#clip192)" style="stroke:#000000; stroke-linecap:round; stroke-linejoin:round; stroke-width:2; stroke-opacity:0.1; fill:none" points="
  2807.97,973.368 2807.97,110.236 
  "/>
<polyline clip-path="url(#clip192)" style="stroke:#000000; stroke-linecap:round; stroke-linejoin:round; stroke-width:2; stroke-opacity:0.1; fill:none" points="
  3089.76,973.368 3089.76,110.236 
  "/>
<polyline clip-path="url(#clip190)" style="stroke:#000000; stroke-linecap:round; stroke-linejoin:round; stroke-width:4; stroke-opacity:1; fill:none" points="
  271.839,973.368 3089.76,973.368 
  "/>
<polyline clip-path="url(#clip190)" style="stroke:#000000; stroke-linecap:round; stroke-linejoin:round; stroke-width:4; stroke-opacity:1; fill:none" points="
  271.839,973.368 271.839,954.47 
  "/>
<polyline clip-path="url(#clip190)" style="stroke:#000000; stroke-linecap:round; stroke-linejoin:round; stroke-width:4; stroke-opacity:1; fill:none" points="
  553.632,973.368 553.632,954.47 
  "/>
<polyline clip-path="url(#clip190)" style="stroke:#000000; stroke-linecap:round; stroke-linejoin:round; stroke-width:4; stroke-opacity:1; fill:none" points="
  835.424,973.368 835.424,954.47 
  "/>
<polyline clip-path="url(#clip190)" style="stroke:#000000; stroke-linecap:round; stroke-linejoin:round; stroke-width:4; stroke-opacity:1; fill:none" points="
  1117.22,973.368 1117.22,954.47 
  "/>
<polyline clip-path="url(#clip190)" style="stroke:#000000; stroke-linecap:round; stroke-linejoin:round; stroke-width:4; stroke-opacity:1; fill:none" points="
  1399.01,973.368 1399.01,954.47 
  "/>
<polyline clip-path="url(#clip190)" style="stroke:#000000; stroke-linecap:round; stroke-linejoin:round; stroke-width:4; stroke-opacity:1; fill:none" points="
  1680.8,973.368 1680.8,954.47 
  "/>
<polyline clip-path="url(#clip190)" style="stroke:#000000; stroke-linecap:round; stroke-linejoin:round; stroke-width:4; stroke-opacity:1; fill:none" points="
  1962.59,973.368 1962.59,954.47 
  "/>
<polyline clip-path="url(#clip190)" style="stroke:#000000; stroke-linecap:round; stroke-linejoin:round; stroke-width:4; stroke-opacity:1; fill:none" points="
  2244.39,973.368 2244.39,954.47 
  "/>
<polyline clip-path="url(#clip190)" style="stroke:#000000; stroke-linecap:round; stroke-linejoin:round; stroke-width:4; stroke-opacity:1; fill:none" points="
  2526.18,973.368 2526.18,954.47 
  "/>
<polyline clip-path="url(#clip190)" style="stroke:#000000; stroke-linecap:round; stroke-linejoin:round; stroke-width:4; stroke-opacity:1; fill:none" points="
  2807.97,973.368 2807.97,954.47 
  "/>
<polyline clip-path="url(#clip190)" style="stroke:#000000; stroke-linecap:round; stroke-linejoin:round; stroke-width:4; stroke-opacity:1; fill:none" points="
  3089.76,973.368 3089.76,954.47 
  "/>
<path clip-path="url(#clip190)" d="M220.775 1027.28 L233.251 1027.28 L233.251 1031.08 L220.775 1031.08 L220.775 1027.28 Z" fill="#000000" fill-rule="evenodd" fill-opacity="1" /><path clip-path="url(#clip190)" d="M241.446 1038.23 L249.085 1038.23 L249.085 1011.87 L240.775 1013.53 L240.775 1009.27 L249.038 1007.61 L253.714 1007.61 L253.714 1038.23 L261.353 1038.23 L261.353 1042.17 L241.446 1042.17 L241.446 1038.23 Z" fill="#000000" fill-rule="evenodd" fill-opacity="1" /><path clip-path="url(#clip190)" d="M280.798 1010.69 Q277.186 1010.69 275.358 1014.25 Q273.552 1017.79 273.552 1024.92 Q273.552 1032.03 275.358 1035.59 Q277.186 1039.14 280.798 1039.14 Q284.432 1039.14 286.237 1035.59 Q288.066 1032.03 288.066 1024.92 Q288.066 1017.79 286.237 1014.25 Q284.432 1010.69 280.798 1010.69 M280.798 1006.98 Q286.608 1006.98 289.663 1011.59 Q292.742 1016.17 292.742 1024.92 Q292.742 1033.65 289.663 1038.26 Q286.608 1042.84 280.798 1042.84 Q274.987 1042.84 271.909 1038.26 Q268.853 1033.65 268.853 1024.92 Q268.853 1016.17 271.909 1011.59 Q274.987 1006.98 280.798 1006.98 Z" fill="#000000" fill-rule="evenodd" fill-opacity="1" /><path clip-path="url(#clip190)" d="M310.959 1010.69 Q307.348 1010.69 305.52 1014.25 Q303.714 1017.79 303.714 1024.92 Q303.714 1032.03 305.52 1035.59 Q307.348 1039.14 310.959 1039.14 Q314.594 1039.14 316.399 1035.59 Q318.228 1032.03 318.228 1024.92 Q318.228 1017.79 316.399 1014.25 Q314.594 1010.69 310.959 1010.69 M310.959 1006.98 Q316.77 1006.98 319.825 1011.59 Q322.904 1016.17 322.904 1024.92 Q322.904 1033.65 319.825 1038.26 Q316.77 1042.84 310.959 1042.84 Q305.149 1042.84 302.071 1038.26 Q299.015 1033.65 299.015 1024.92 Q299.015 1016.17 302.071 1011.59 Q305.149 1006.98 310.959 1006.98 Z" fill="#000000" fill-rule="evenodd" fill-opacity="1" /><path clip-path="url(#clip190)" d="M517.648 1027.28 L530.125 1027.28 L530.125 1031.08 L517.648 1031.08 L517.648 1027.28 Z" fill="#000000" fill-rule="evenodd" fill-opacity="1" /><path clip-path="url(#clip190)" d="M537.648 1041.45 L537.648 1037.19 Q539.407 1038.02 541.213 1038.46 Q543.018 1038.9 544.754 1038.9 Q549.384 1038.9 551.815 1035.8 Q554.268 1032.68 554.615 1026.33 Q553.273 1028.33 551.213 1029.39 Q549.153 1030.45 546.653 1030.45 Q541.467 1030.45 538.435 1027.33 Q535.426 1024.18 535.426 1018.74 Q535.426 1013.42 538.574 1010.2 Q541.722 1006.98 546.953 1006.98 Q552.949 1006.98 556.097 1011.59 Q559.268 1016.17 559.268 1024.92 Q559.268 1033.09 555.379 1037.98 Q551.514 1042.84 544.963 1042.84 Q543.203 1042.84 541.398 1042.49 Q539.592 1042.14 537.648 1041.45 M546.953 1026.8 Q550.102 1026.8 551.93 1024.64 Q553.782 1022.49 553.782 1018.74 Q553.782 1015.02 551.93 1012.86 Q550.102 1010.69 546.953 1010.69 Q543.805 1010.69 541.953 1012.86 Q540.125 1015.02 540.125 1018.74 Q540.125 1022.49 541.953 1024.64 Q543.805 1026.8 546.953 1026.8 Z" fill="#000000" fill-rule="evenodd" fill-opacity="1" /><path clip-path="url(#clip190)" d="M577.671 1010.69 Q574.06 1010.69 572.231 1014.25 Q570.426 1017.79 570.426 1024.92 Q570.426 1032.03 572.231 1035.59 Q574.06 1039.14 577.671 1039.14 Q581.305 1039.14 583.111 1035.59 Q584.939 1032.03 584.939 1024.92 Q584.939 1017.79 583.111 1014.25 Q581.305 1010.69 577.671 1010.69 M577.671 1006.98 Q583.481 1006.98 586.537 1011.59 Q589.615 1016.17 589.615 1024.92 Q589.615 1033.65 586.537 1038.26 Q583.481 1042.84 577.671 1042.84 Q571.861 1042.84 568.782 1038.26 Q565.727 1033.65 565.727 1024.92 Q565.727 1016.17 568.782 1011.59 Q571.861 1006.98 577.671 1006.98 Z" fill="#000000" fill-rule="evenodd" fill-opacity="1" /><path clip-path="url(#clip190)" d="M799.441 1027.28 L811.917 1027.28 L811.917 1031.08 L799.441 1031.08 L799.441 1027.28 Z" fill="#000000" fill-rule="evenodd" fill-opacity="1" /><path clip-path="url(#clip190)" d="M829.301 1025.76 Q825.968 1025.76 824.047 1027.54 Q822.149 1029.32 822.149 1032.45 Q822.149 1035.57 824.047 1037.35 Q825.968 1039.14 829.301 1039.14 Q832.635 1039.14 834.556 1037.35 Q836.477 1035.55 836.477 1032.45 Q836.477 1029.32 834.556 1027.54 Q832.658 1025.76 829.301 1025.76 M824.626 1023.77 Q821.616 1023.02 819.927 1020.96 Q818.26 1018.9 818.26 1015.94 Q818.26 1011.8 821.2 1009.39 Q824.163 1006.98 829.301 1006.98 Q834.463 1006.98 837.403 1009.39 Q840.343 1011.8 840.343 1015.94 Q840.343 1018.9 838.653 1020.96 Q836.987 1023.02 834.001 1023.77 Q837.38 1024.55 839.255 1026.84 Q841.153 1029.14 841.153 1032.45 Q841.153 1037.47 838.075 1040.15 Q835.019 1042.84 829.301 1042.84 Q823.584 1042.84 820.505 1040.15 Q817.45 1037.47 817.45 1032.45 Q817.45 1029.14 819.348 1026.84 Q821.246 1024.55 824.626 1023.77 M822.913 1016.38 Q822.913 1019.07 824.579 1020.57 Q826.269 1022.08 829.301 1022.08 Q832.311 1022.08 834.001 1020.57 Q835.713 1019.07 835.713 1016.38 Q835.713 1013.7 834.001 1012.19 Q832.311 1010.69 829.301 1010.69 Q826.269 1010.69 824.579 1012.19 Q822.913 1013.7 822.913 1016.38 Z" fill="#000000" fill-rule="evenodd" fill-opacity="1" /><path clip-path="url(#clip190)" d="M859.463 1010.69 Q855.852 1010.69 854.024 1014.25 Q852.218 1017.79 852.218 1024.92 Q852.218 1032.03 854.024 1035.59 Q855.852 1039.14 859.463 1039.14 Q863.098 1039.14 864.903 1035.59 Q866.732 1032.03 866.732 1024.92 Q866.732 1017.79 864.903 1014.25 Q863.098 1010.69 859.463 1010.69 M859.463 1006.98 Q865.274 1006.98 868.329 1011.59 Q871.408 1016.17 871.408 1024.92 Q871.408 1033.65 868.329 1038.26 Q865.274 1042.84 859.463 1042.84 Q853.653 1042.84 850.575 1038.26 Q847.519 1033.65 847.519 1024.92 Q847.519 1016.17 850.575 1011.59 Q853.653 1006.98 859.463 1006.98 Z" fill="#000000" fill-rule="evenodd" fill-opacity="1" /><path clip-path="url(#clip190)" d="M1081.23 1027.28 L1093.71 1027.28 L1093.71 1031.08 L1081.23 1031.08 L1081.23 1027.28 Z" fill="#000000" fill-rule="evenodd" fill-opacity="1" /><path clip-path="url(#clip190)" d="M1099.91 1007.61 L1122.14 1007.61 L1122.14 1009.6 L1109.59 1042.17 L1104.71 1042.17 L1116.51 1011.54 L1099.91 1011.54 L1099.91 1007.61 Z" fill="#000000" fill-rule="evenodd" fill-opacity="1" /><path clip-path="url(#clip190)" d="M1141.26 1010.69 Q1137.64 1010.69 1135.82 1014.25 Q1134.01 1017.79 1134.01 1024.92 Q1134.01 1032.03 1135.82 1035.59 Q1137.64 1039.14 1141.26 1039.14 Q1144.89 1039.14 1146.7 1035.59 Q1148.52 1032.03 1148.52 1024.92 Q1148.52 1017.79 1146.7 1014.25 Q1144.89 1010.69 1141.26 1010.69 M1141.26 1006.98 Q1147.07 1006.98 1150.12 1011.59 Q1153.2 1016.17 1153.2 1024.92 Q1153.2 1033.65 1150.12 1038.26 Q1147.07 1042.84 1141.26 1042.84 Q1135.45 1042.84 1132.37 1038.26 Q1129.31 1033.65 1129.31 1024.92 Q1129.31 1016.17 1132.37 1011.59 Q1135.45 1006.98 1141.26 1006.98 Z" fill="#000000" fill-rule="evenodd" fill-opacity="1" /><path clip-path="url(#clip190)" d="M1363.03 1027.28 L1375.5 1027.28 L1375.5 1031.08 L1363.03 1031.08 L1363.03 1027.28 Z" fill="#000000" fill-rule="evenodd" fill-opacity="1" /><path clip-path="url(#clip190)" d="M1393.47 1023.02 Q1390.32 1023.02 1388.47 1025.18 Q1386.64 1027.33 1386.64 1031.08 Q1386.64 1034.81 1388.47 1036.98 Q1390.32 1039.14 1393.47 1039.14 Q1396.61 1039.14 1398.44 1036.98 Q1400.29 1034.81 1400.29 1031.08 Q1400.29 1027.33 1398.44 1025.18 Q1396.61 1023.02 1393.47 1023.02 M1402.75 1008.37 L1402.75 1012.63 Q1400.99 1011.8 1399.18 1011.36 Q1397.4 1010.92 1395.64 1010.92 Q1391.01 1010.92 1388.56 1014.04 Q1386.13 1017.17 1385.78 1023.49 Q1387.15 1021.47 1389.21 1020.41 Q1391.27 1019.32 1393.74 1019.32 Q1398.95 1019.32 1401.96 1022.49 Q1404.99 1025.64 1404.99 1031.08 Q1404.99 1036.4 1401.84 1039.62 Q1398.7 1042.84 1393.47 1042.84 Q1387.47 1042.84 1384.3 1038.26 Q1381.13 1033.65 1381.13 1024.92 Q1381.13 1016.73 1385.02 1011.87 Q1388.9 1006.98 1395.46 1006.98 Q1397.22 1006.98 1399 1007.33 Q1400.8 1007.68 1402.75 1008.37 Z" fill="#000000" fill-rule="evenodd" fill-opacity="1" /><path clip-path="url(#clip190)" d="M1423.05 1010.69 Q1419.44 1010.69 1417.61 1014.25 Q1415.8 1017.79 1415.8 1024.92 Q1415.8 1032.03 1417.61 1035.59 Q1419.44 1039.14 1423.05 1039.14 Q1426.68 1039.14 1428.49 1035.59 Q1430.32 1032.03 1430.32 1024.92 Q1430.32 1017.79 1428.49 1014.25 Q1426.68 1010.69 1423.05 1010.69 M1423.05 1006.98 Q1428.86 1006.98 1431.91 1011.59 Q1434.99 1016.17 1434.99 1024.92 Q1434.99 1033.65 1431.91 1038.26 Q1428.86 1042.84 1423.05 1042.84 Q1417.24 1042.84 1414.16 1038.26 Q1411.1 1033.65 1411.1 1024.92 Q1411.1 1016.17 1414.16 1011.59 Q1417.24 1006.98 1423.05 1006.98 Z" fill="#000000" fill-rule="evenodd" fill-opacity="1" /><path clip-path="url(#clip190)" d="M1644.82 1027.28 L1657.29 1027.28 L1657.29 1031.08 L1644.82 1031.08 L1644.82 1027.28 Z" fill="#000000" fill-rule="evenodd" fill-opacity="1" /><path clip-path="url(#clip190)" d="M1664.73 1007.61 L1683.08 1007.61 L1683.08 1011.54 L1669.01 1011.54 L1669.01 1020.02 Q1670.03 1019.67 1671.04 1019.51 Q1672.06 1019.32 1673.08 1019.32 Q1678.87 1019.32 1682.25 1022.49 Q1685.63 1025.66 1685.63 1031.08 Q1685.63 1036.66 1682.16 1039.76 Q1678.68 1042.84 1672.36 1042.84 Q1670.19 1042.84 1667.92 1042.47 Q1665.67 1042.1 1663.27 1041.36 L1663.27 1036.66 Q1665.35 1037.79 1667.57 1038.35 Q1669.79 1038.9 1672.27 1038.9 Q1676.28 1038.9 1678.61 1036.8 Q1680.95 1034.69 1680.95 1031.08 Q1680.95 1027.47 1678.61 1025.36 Q1676.28 1023.26 1672.27 1023.26 Q1670.4 1023.26 1668.52 1023.67 Q1666.67 1024.09 1664.73 1024.97 L1664.73 1007.61 Z" fill="#000000" fill-rule="evenodd" fill-opacity="1" /><path clip-path="url(#clip190)" d="M1704.84 1010.69 Q1701.23 1010.69 1699.4 1014.25 Q1697.6 1017.79 1697.6 1024.92 Q1697.6 1032.03 1699.4 1035.59 Q1701.23 1039.14 1704.84 1039.14 Q1708.47 1039.14 1710.28 1035.59 Q1712.11 1032.03 1712.11 1024.92 Q1712.11 1017.79 1710.28 1014.25 Q1708.47 1010.69 1704.84 1010.69 M1704.84 1006.98 Q1710.65 1006.98 1713.71 1011.59 Q1716.79 1016.17 1716.79 1024.92 Q1716.79 1033.65 1713.71 1038.26 Q1710.65 1042.84 1704.84 1042.84 Q1699.03 1042.84 1695.95 1038.26 Q1692.9 1033.65 1692.9 1024.92 Q1692.9 1016.17 1695.95 1011.59 Q1699.03 1006.98 1704.84 1006.98 Z" fill="#000000" fill-rule="evenodd" fill-opacity="1" /><path clip-path="url(#clip190)" d="M1926.61 1027.28 L1939.09 1027.28 L1939.09 1031.08 L1926.61 1031.08 L1926.61 1027.28 Z" fill="#000000" fill-rule="evenodd" fill-opacity="1" /><path clip-path="url(#clip190)" d="M1959.32 1011.68 L1947.51 1030.13 L1959.32 1030.13 L1959.32 1011.68 M1958.09 1007.61 L1963.97 1007.61 L1963.97 1030.13 L1968.9 1030.13 L1968.9 1034.02 L1963.97 1034.02 L1963.97 1042.17 L1959.32 1042.17 L1959.32 1034.02 L1943.72 1034.02 L1943.72 1029.51 L1958.09 1007.61 Z" fill="#000000" fill-rule="evenodd" fill-opacity="1" /><path clip-path="url(#clip190)" d="M1986.63 1010.69 Q1983.02 1010.69 1981.19 1014.25 Q1979.39 1017.79 1979.39 1024.92 Q1979.39 1032.03 1981.19 1035.59 Q1983.02 1039.14 1986.63 1039.14 Q1990.27 1039.14 1992.07 1035.59 Q1993.9 1032.03 1993.9 1024.92 Q1993.9 1017.79 1992.07 1014.25 Q1990.27 1010.69 1986.63 1010.69 M1986.63 1006.98 Q1992.44 1006.98 1995.5 1011.59 Q1998.58 1016.17 1998.58 1024.92 Q1998.58 1033.65 1995.5 1038.26 Q1992.44 1042.84 1986.63 1042.84 Q1980.82 1042.84 1977.74 1038.26 Q1974.69 1033.65 1974.69 1024.92 Q1974.69 1016.17 1977.74 1011.59 Q1980.82 1006.98 1986.63 1006.98 Z" fill="#000000" fill-rule="evenodd" fill-opacity="1" /><path clip-path="url(#clip190)" d="M2208.4 1027.28 L2220.88 1027.28 L2220.88 1031.08 L2208.4 1031.08 L2208.4 1027.28 Z" fill="#000000" fill-rule="evenodd" fill-opacity="1" /><path clip-path="url(#clip190)" d="M2242.43 1023.53 Q2245.79 1024.25 2247.66 1026.52 Q2249.56 1028.79 2249.56 1032.12 Q2249.56 1037.24 2246.04 1040.04 Q2242.52 1042.84 2236.04 1042.84 Q2233.87 1042.84 2231.55 1042.4 Q2229.26 1041.98 2226.81 1041.13 L2226.81 1036.61 Q2228.75 1037.75 2231.06 1038.33 Q2233.38 1038.9 2235.9 1038.9 Q2240.3 1038.9 2242.59 1037.17 Q2244.91 1035.43 2244.91 1032.12 Q2244.91 1029.07 2242.75 1027.35 Q2240.62 1025.62 2236.81 1025.62 L2232.78 1025.62 L2232.78 1021.77 L2236.99 1021.77 Q2240.44 1021.77 2242.27 1020.41 Q2244.1 1019.02 2244.1 1016.43 Q2244.1 1013.77 2242.2 1012.35 Q2240.32 1010.92 2236.81 1010.92 Q2234.88 1010.92 2232.69 1011.33 Q2230.49 1011.75 2227.85 1012.63 L2227.85 1008.46 Q2230.51 1007.72 2232.82 1007.35 Q2235.16 1006.98 2237.22 1006.98 Q2242.55 1006.98 2245.65 1009.41 Q2248.75 1011.82 2248.75 1015.94 Q2248.75 1018.81 2247.11 1020.8 Q2245.46 1022.77 2242.43 1023.53 Z" fill="#000000" fill-rule="evenodd" fill-opacity="1" /><path clip-path="url(#clip190)" d="M2268.43 1010.69 Q2264.81 1010.69 2262.99 1014.25 Q2261.18 1017.79 2261.18 1024.92 Q2261.18 1032.03 2262.99 1035.59 Q2264.81 1039.14 2268.43 1039.14 Q2272.06 1039.14 2273.87 1035.59 Q2275.69 1032.03 2275.69 1024.92 Q2275.69 1017.79 2273.87 1014.25 Q2272.06 1010.69 2268.43 1010.69 M2268.43 1006.98 Q2274.24 1006.98 2277.29 1011.59 Q2280.37 1016.17 2280.37 1024.92 Q2280.37 1033.65 2277.29 1038.26 Q2274.24 1042.84 2268.43 1042.84 Q2262.62 1042.84 2259.54 1038.26 Q2256.48 1033.65 2256.48 1024.92 Q2256.48 1016.17 2259.54 1011.59 Q2262.62 1006.98 2268.43 1006.98 Z" fill="#000000" fill-rule="evenodd" fill-opacity="1" /><path clip-path="url(#clip190)" d="M2490.2 1027.28 L2502.67 1027.28 L2502.67 1031.08 L2490.2 1031.08 L2490.2 1027.28 Z" fill="#000000" fill-rule="evenodd" fill-opacity="1" /><path clip-path="url(#clip190)" d="M2514.08 1038.23 L2530.4 1038.23 L2530.4 1042.17 L2508.46 1042.17 L2508.46 1038.23 Q2511.12 1035.48 2515.7 1030.85 Q2520.31 1026.2 2521.49 1024.85 Q2523.74 1022.33 2524.62 1020.59 Q2525.52 1018.83 2525.52 1017.14 Q2525.52 1014.39 2523.57 1012.65 Q2521.65 1010.92 2518.55 1010.92 Q2516.35 1010.92 2513.9 1011.68 Q2511.47 1012.45 2508.69 1014 L2508.69 1009.27 Q2511.51 1008.14 2513.97 1007.56 Q2516.42 1006.98 2518.46 1006.98 Q2523.83 1006.98 2527.02 1009.67 Q2530.22 1012.35 2530.22 1016.84 Q2530.22 1018.97 2529.41 1020.89 Q2528.62 1022.79 2526.51 1025.39 Q2525.94 1026.06 2522.83 1029.27 Q2519.73 1032.47 2514.08 1038.23 Z" fill="#000000" fill-rule="evenodd" fill-opacity="1" /><path clip-path="url(#clip190)" d="M2550.22 1010.69 Q2546.61 1010.69 2544.78 1014.25 Q2542.97 1017.79 2542.97 1024.92 Q2542.97 1032.03 2544.78 1035.59 Q2546.61 1039.14 2550.22 1039.14 Q2553.85 1039.14 2555.66 1035.59 Q2557.49 1032.03 2557.49 1024.92 Q2557.49 1017.79 2555.66 1014.25 Q2553.85 1010.69 2550.22 1010.69 M2550.22 1006.98 Q2556.03 1006.98 2559.08 1011.59 Q2562.16 1016.17 2562.16 1024.92 Q2562.16 1033.65 2559.08 1038.26 Q2556.03 1042.84 2550.22 1042.84 Q2544.41 1042.84 2541.33 1038.26 Q2538.27 1033.65 2538.27 1024.92 Q2538.27 1016.17 2541.33 1011.59 Q2544.41 1006.98 2550.22 1006.98 Z" fill="#000000" fill-rule="evenodd" fill-opacity="1" /><path clip-path="url(#clip190)" d="M2771.99 1027.28 L2784.46 1027.28 L2784.46 1031.08 L2771.99 1031.08 L2771.99 1027.28 Z" fill="#000000" fill-rule="evenodd" fill-opacity="1" /><path clip-path="url(#clip190)" d="M2792.66 1038.23 L2800.3 1038.23 L2800.3 1011.87 L2791.99 1013.53 L2791.99 1009.27 L2800.25 1007.61 L2804.93 1007.61 L2804.93 1038.23 L2812.57 1038.23 L2812.57 1042.17 L2792.66 1042.17 L2792.66 1038.23 Z" fill="#000000" fill-rule="evenodd" fill-opacity="1" /><path clip-path="url(#clip190)" d="M2832.01 1010.69 Q2828.4 1010.69 2826.57 1014.25 Q2824.77 1017.79 2824.77 1024.92 Q2824.77 1032.03 2826.57 1035.59 Q2828.4 1039.14 2832.01 1039.14 Q2835.64 1039.14 2837.45 1035.59 Q2839.28 1032.03 2839.28 1024.92 Q2839.28 1017.79 2837.45 1014.25 Q2835.64 1010.69 2832.01 1010.69 M2832.01 1006.98 Q2837.82 1006.98 2840.88 1011.59 Q2843.95 1016.17 2843.95 1024.92 Q2843.95 1033.65 2840.88 1038.26 Q2837.82 1042.84 2832.01 1042.84 Q2826.2 1042.84 2823.12 1038.26 Q2820.07 1033.65 2820.07 1024.92 Q2820.07 1016.17 2823.12 1011.59 Q2826.2 1006.98 2832.01 1006.98 Z" fill="#000000" fill-rule="evenodd" fill-opacity="1" /><path clip-path="url(#clip190)" d="M3089.76 1010.69 Q3086.15 1010.69 3084.32 1014.25 Q3082.52 1017.79 3082.52 1024.92 Q3082.52 1032.03 3084.32 1035.59 Q3086.15 1039.14 3089.76 1039.14 Q3093.4 1039.14 3095.2 1035.59 Q3097.03 1032.03 3097.03 1024.92 Q3097.03 1017.79 3095.2 1014.25 Q3093.4 1010.69 3089.76 1010.69 M3089.76 1006.98 Q3095.57 1006.98 3098.63 1011.59 Q3101.71 1016.17 3101.71 1024.92 Q3101.71 1033.65 3098.63 1038.26 Q3095.57 1042.84 3089.76 1042.84 Q3083.95 1042.84 3080.87 1038.26 Q3077.82 1033.65 3077.82 1024.92 Q3077.82 1016.17 3080.87 1011.59 Q3083.95 1006.98 3089.76 1006.98 Z" fill="#000000" fill-rule="evenodd" fill-opacity="1" /><path clip-path="url(#clip190)" d="M1610.68 1076.12 L1610.68 1113.07 L1618.45 1113.07 Q1628.28 1113.07 1632.84 1108.61 Q1637.42 1104.16 1637.42 1094.54 Q1637.42 1085 1632.84 1080.57 Q1628.28 1076.12 1618.45 1076.12 L1610.68 1076.12 M1604.25 1070.83 L1617.46 1070.83 Q1631.28 1070.83 1637.74 1076.59 Q1644.2 1082.32 1644.2 1094.54 Q1644.2 1106.83 1637.71 1112.59 Q1631.21 1118.35 1617.46 1118.35 L1604.25 1118.35 L1604.25 1070.83 Z" fill="#000000" fill-rule="evenodd" fill-opacity="1" /><path clip-path="url(#clip190)" d="M1670.39 1100.43 Q1663.3 1100.43 1660.56 1102.06 Q1657.82 1103.68 1657.82 1107.59 Q1657.82 1110.71 1659.86 1112.56 Q1661.93 1114.37 1665.46 1114.37 Q1670.33 1114.37 1673.26 1110.94 Q1676.22 1107.47 1676.22 1101.74 L1676.22 1100.43 L1670.39 1100.43 M1682.07 1098.01 L1682.07 1118.35 L1676.22 1118.35 L1676.22 1112.94 Q1674.21 1116.19 1671.22 1117.75 Q1668.23 1119.27 1663.9 1119.27 Q1658.43 1119.27 1655.18 1116.22 Q1651.96 1113.13 1651.96 1107.98 Q1651.96 1101.96 1655.98 1098.9 Q1660.02 1095.85 1668.01 1095.85 L1676.22 1095.85 L1676.22 1095.28 Q1676.22 1091.23 1673.54 1089.04 Q1670.9 1086.81 1666.1 1086.81 Q1663.04 1086.81 1660.14 1087.54 Q1657.25 1088.27 1654.57 1089.74 L1654.57 1084.33 Q1657.79 1083.09 1660.81 1082.48 Q1663.84 1081.84 1666.7 1081.84 Q1674.44 1081.84 1678.26 1085.85 Q1682.07 1089.87 1682.07 1098.01 Z" fill="#000000" fill-rule="evenodd" fill-opacity="1" /><path clip-path="url(#clip190)" d="M1708.97 1121.66 Q1706.49 1128.03 1704.13 1129.97 Q1701.78 1131.91 1697.83 1131.91 L1693.15 1131.91 L1693.15 1127.01 L1696.59 1127.01 Q1699.01 1127.01 1700.34 1125.86 Q1701.68 1124.72 1703.3 1120.45 L1704.35 1117.78 L1689.94 1082.7 L1696.14 1082.7 L1707.28 1110.59 L1718.42 1082.7 L1724.63 1082.7 L1708.97 1121.66 Z" fill="#000000" fill-rule="evenodd" fill-opacity="1" /><path clip-path="url(#clip190)" d="M1755.44 1083.75 L1755.44 1089.29 Q1752.96 1088.02 1750.28 1087.38 Q1747.61 1086.75 1744.75 1086.75 Q1740.38 1086.75 1738.19 1088.08 Q1736.02 1089.42 1736.02 1092.09 Q1736.02 1094.13 1737.58 1095.31 Q1739.14 1096.45 1743.85 1097.5 L1745.86 1097.95 Q1752.1 1099.29 1754.71 1101.74 Q1757.35 1104.16 1757.35 1108.52 Q1757.35 1113.48 1753.4 1116.38 Q1749.49 1119.27 1742.61 1119.27 Q1739.75 1119.27 1736.63 1118.7 Q1733.54 1118.16 1730.1 1117.05 L1730.1 1111 Q1733.35 1112.69 1736.5 1113.55 Q1739.65 1114.37 1742.74 1114.37 Q1746.88 1114.37 1749.11 1112.97 Q1751.33 1111.54 1751.33 1108.96 Q1751.33 1106.58 1749.71 1105.3 Q1748.12 1104.03 1742.68 1102.85 L1740.64 1102.37 Q1735.2 1101.23 1732.78 1098.87 Q1730.36 1096.49 1730.36 1092.35 Q1730.36 1087.32 1733.92 1084.58 Q1737.49 1081.84 1744.04 1081.84 Q1747.29 1081.84 1750.16 1082.32 Q1753.02 1082.8 1755.44 1083.75 Z" fill="#000000" fill-rule="evenodd" fill-opacity="1" /><path clip-path="url(#clip190)" d="M1418.96 1140.17 Q1414.7 1147.49 1412.63 1154.65 Q1410.56 1161.81 1410.56 1169.17 Q1410.56 1176.52 1412.63 1183.74 Q1414.73 1190.94 1418.96 1198.23 L1413.87 1198.23 Q1409.1 1190.75 1406.71 1183.52 Q1404.35 1176.3 1404.35 1169.17 Q1404.35 1162.07 1406.71 1154.87 Q1409.07 1147.68 1413.87 1140.17 L1418.96 1140.17 Z" fill="#000000" fill-rule="evenodd" fill-opacity="1" /><path clip-path="url(#clip190)" d="M1444.9 1146.34 Q1439.94 1146.34 1437.42 1151.25 Q1434.94 1156.12 1434.94 1165.92 Q1434.94 1175.69 1437.42 1180.59 Q1439.94 1185.46 1444.9 1185.46 Q1449.9 1185.46 1452.38 1180.59 Q1454.9 1175.69 1454.9 1165.92 Q1454.9 1156.12 1452.38 1151.25 Q1449.9 1146.34 1444.9 1146.34 M1444.9 1141.25 Q1452.89 1141.25 1457.09 1147.59 Q1461.33 1153.89 1461.33 1165.92 Q1461.33 1177.92 1457.09 1184.25 Q1452.89 1190.55 1444.9 1190.55 Q1436.92 1190.55 1432.68 1184.25 Q1428.48 1177.92 1428.48 1165.92 Q1428.48 1153.89 1432.68 1147.59 Q1436.92 1141.25 1444.9 1141.25 Z" fill="#000000" fill-rule="evenodd" fill-opacity="1" /><path clip-path="url(#clip190)" d="M1493.28 1160.03 L1534.09 1160.03 L1534.09 1165.38 L1493.28 1165.38 L1493.28 1160.03 M1493.28 1173.02 L1534.09 1173.02 L1534.09 1178.43 L1493.28 1178.43 L1493.28 1173.02 Z" fill="#000000" fill-rule="evenodd" fill-opacity="1" /><path clip-path="url(#clip190)" d="M1574.22 1184.22 L1596.66 1184.22 L1596.66 1189.63 L1566.49 1189.63 L1566.49 1184.22 Q1570.15 1180.43 1576.45 1174.07 Q1582.79 1167.67 1584.41 1165.82 Q1587.5 1162.35 1588.71 1159.97 Q1589.95 1157.55 1589.95 1155.23 Q1589.95 1151.44 1587.27 1149.05 Q1584.63 1146.66 1580.37 1146.66 Q1577.34 1146.66 1573.97 1147.71 Q1570.63 1148.76 1566.81 1150.9 L1566.81 1144.4 Q1570.69 1142.84 1574.06 1142.05 Q1577.44 1141.25 1580.24 1141.25 Q1587.62 1141.25 1592.02 1144.94 Q1596.41 1148.64 1596.41 1154.81 Q1596.41 1157.74 1595.29 1160.38 Q1594.21 1162.99 1591.32 1166.56 Q1590.52 1167.48 1586.25 1171.9 Q1581.99 1176.3 1574.22 1184.22 Z" fill="#000000" fill-rule="evenodd" fill-opacity="1" /><path clip-path="url(#clip190)" d="M1623.91 1146.34 Q1618.94 1146.34 1616.43 1151.25 Q1613.95 1156.12 1613.95 1165.92 Q1613.95 1175.69 1616.43 1180.59 Q1618.94 1185.46 1623.91 1185.46 Q1628.91 1185.46 1631.39 1180.59 Q1633.9 1175.69 1633.9 1165.92 Q1633.9 1156.12 1631.39 1151.25 Q1628.91 1146.34 1623.91 1146.34 M1623.91 1141.25 Q1631.9 1141.25 1636.1 1147.59 Q1640.33 1153.89 1640.33 1165.92 Q1640.33 1177.92 1636.1 1184.25 Q1631.9 1190.55 1623.91 1190.55 Q1615.92 1190.55 1611.69 1184.25 Q1607.48 1177.92 1607.48 1165.92 Q1607.48 1153.89 1611.69 1147.59 Q1615.92 1141.25 1623.91 1141.25 Z" fill="#000000" fill-rule="evenodd" fill-opacity="1" /><path clip-path="url(#clip190)" d="M1657.17 1184.22 L1679.61 1184.22 L1679.61 1189.63 L1649.43 1189.63 L1649.43 1184.22 Q1653.09 1180.43 1659.4 1174.07 Q1665.73 1167.67 1667.35 1165.82 Q1670.44 1162.35 1671.65 1159.97 Q1672.89 1157.55 1672.89 1155.23 Q1672.89 1151.44 1670.22 1149.05 Q1667.58 1146.66 1663.31 1146.66 Q1660.29 1146.66 1656.91 1147.71 Q1653.57 1148.76 1649.75 1150.9 L1649.75 1144.4 Q1653.64 1142.84 1657.01 1142.05 Q1660.38 1141.25 1663.18 1141.25 Q1670.57 1141.25 1674.96 1144.94 Q1679.35 1148.64 1679.35 1154.81 Q1679.35 1157.74 1678.24 1160.38 Q1677.16 1162.99 1674.26 1166.56 Q1673.47 1167.48 1669.2 1171.9 Q1664.93 1176.3 1657.17 1184.22 Z" fill="#000000" fill-rule="evenodd" fill-opacity="1" /><path clip-path="url(#clip190)" d="M1698.64 1184.22 L1721.08 1184.22 L1721.08 1189.63 L1690.91 1189.63 L1690.91 1184.22 Q1694.57 1180.43 1700.87 1174.07 Q1707.2 1167.67 1708.83 1165.82 Q1711.91 1162.35 1713.12 1159.97 Q1714.36 1157.55 1714.36 1155.23 Q1714.36 1151.44 1711.69 1149.05 Q1709.05 1146.66 1704.78 1146.66 Q1701.76 1146.66 1698.39 1147.71 Q1695.04 1148.76 1691.23 1150.9 L1691.23 1144.4 Q1695.11 1142.84 1698.48 1142.05 Q1701.86 1141.25 1704.66 1141.25 Q1712.04 1141.25 1716.43 1144.94 Q1720.83 1148.64 1720.83 1154.81 Q1720.83 1157.74 1719.71 1160.38 Q1718.63 1162.99 1715.73 1166.56 Q1714.94 1167.48 1710.67 1171.9 Q1706.41 1176.3 1698.64 1184.22 Z" fill="#000000" fill-rule="evenodd" fill-opacity="1" /><path clip-path="url(#clip190)" d="M1744.16 1142.11 L1749.57 1142.11 L1733.02 1195.68 L1727.61 1195.68 L1744.16 1142.11 Z" fill="#000000" fill-rule="evenodd" fill-opacity="1" /><path clip-path="url(#clip190)" d="M1757.65 1184.22 L1768.15 1184.22 L1768.15 1147.97 L1756.73 1150.26 L1756.73 1144.4 L1768.09 1142.11 L1774.52 1142.11 L1774.52 1184.22 L1785.02 1184.22 L1785.02 1189.63 L1757.65 1189.63 L1757.65 1184.22 Z" fill="#000000" fill-rule="evenodd" fill-opacity="1" /><path clip-path="url(#clip190)" d="M1799.12 1184.22 L1809.63 1184.22 L1809.63 1147.97 L1798.2 1150.26 L1798.2 1144.4 L1809.56 1142.11 L1815.99 1142.11 L1815.99 1184.22 L1826.5 1184.22 L1826.5 1189.63 L1799.12 1189.63 L1799.12 1184.22 Z" fill="#000000" fill-rule="evenodd" fill-opacity="1" /><path clip-path="url(#clip190)" d="M1849.06 1142.11 L1854.47 1142.11 L1837.92 1195.68 L1832.51 1195.68 L1849.06 1142.11 Z" fill="#000000" fill-rule="evenodd" fill-opacity="1" /><path clip-path="url(#clip190)" d="M1862.56 1184.22 L1873.06 1184.22 L1873.06 1147.97 L1861.64 1150.26 L1861.64 1144.4 L1873 1142.11 L1879.43 1142.11 L1879.43 1184.22 L1889.93 1184.22 L1889.93 1189.63 L1862.56 1189.63 L1862.56 1184.22 Z" fill="#000000" fill-rule="evenodd" fill-opacity="1" /><path clip-path="url(#clip190)" d="M1920.58 1147.71 L1904.35 1173.08 L1920.58 1173.08 L1920.58 1147.71 M1918.89 1142.11 L1926.98 1142.11 L1926.98 1173.08 L1933.76 1173.08 L1933.76 1178.43 L1926.98 1178.43 L1926.98 1189.63 L1920.58 1189.63 L1920.58 1178.43 L1899.13 1178.43 L1899.13 1172.22 L1918.89 1142.11 Z" fill="#000000" fill-rule="evenodd" fill-opacity="1" /><path clip-path="url(#clip190)" d="M1942.64 1140.17 L1947.73 1140.17 Q1952.51 1147.68 1954.86 1154.87 Q1957.25 1162.07 1957.25 1169.17 Q1957.25 1176.3 1954.86 1183.52 Q1952.51 1190.75 1947.73 1198.23 L1942.64 1198.23 Q1946.87 1190.94 1948.94 1183.74 Q1951.04 1176.52 1951.04 1169.17 Q1951.04 1161.81 1948.94 1154.65 Q1946.87 1147.49 1942.64 1140.17 Z" fill="#000000" fill-rule="evenodd" fill-opacity="1" /><polyline clip-path="url(#clip192)" style="stroke:#000000; stroke-linecap:round; stroke-linejoin:round; stroke-width:2; stroke-opacity:0.1; fill:none" points="
  271.839,973.368 3089.76,973.368 
  "/>
<polyline clip-path="url(#clip192)" style="stroke:#000000; stroke-linecap:round; stroke-linejoin:round; stroke-width:2; stroke-opacity:0.1; fill:none" points="
  271.839,589.408 3089.76,589.408 
  "/>
<polyline clip-path="url(#clip192)" style="stroke:#000000; stroke-linecap:round; stroke-linejoin:round; stroke-width:2; stroke-opacity:0.1; fill:none" points="
  271.839,205.448 3089.76,205.448 
  "/>
<polyline clip-path="url(#clip190)" style="stroke:#000000; stroke-linecap:round; stroke-linejoin:round; stroke-width:4; stroke-opacity:1; fill:none" points="
  271.839,973.368 271.839,110.236 
  "/>
<polyline clip-path="url(#clip190)" style="stroke:#000000; stroke-linecap:round; stroke-linejoin:round; stroke-width:4; stroke-opacity:1; fill:none" points="
  271.839,973.368 290.737,973.368 
  "/>
<polyline clip-path="url(#clip190)" style="stroke:#000000; stroke-linecap:round; stroke-linejoin:round; stroke-width:4; stroke-opacity:1; fill:none" points="
  271.839,589.408 290.737,589.408 
  "/>
<polyline clip-path="url(#clip190)" style="stroke:#000000; stroke-linecap:round; stroke-linejoin:round; stroke-width:4; stroke-opacity:1; fill:none" points="
  271.839,205.448 290.737,205.448 
  "/>
<path clip-path="url(#clip190)" d="M153.134 993.16 L160.772 993.16 L160.772 966.795 L152.462 968.461 L152.462 964.202 L160.726 962.535 L165.402 962.535 L165.402 993.16 L173.041 993.16 L173.041 997.095 L153.134 997.095 L153.134 993.16 Z" fill="#000000" fill-rule="evenodd" fill-opacity="1" /><path clip-path="url(#clip190)" d="M192.485 965.614 Q188.874 965.614 187.045 969.179 Q185.24 972.72 185.24 979.85 Q185.24 986.956 187.045 990.521 Q188.874 994.063 192.485 994.063 Q196.119 994.063 197.925 990.521 Q199.754 986.956 199.754 979.85 Q199.754 972.72 197.925 969.179 Q196.119 965.614 192.485 965.614 M192.485 961.91 Q198.295 961.91 201.351 966.517 Q204.43 971.1 204.43 979.85 Q204.43 988.577 201.351 993.183 Q198.295 997.767 192.485 997.767 Q186.675 997.767 183.596 993.183 Q180.541 988.577 180.541 979.85 Q180.541 971.1 183.596 966.517 Q186.675 961.91 192.485 961.91 Z" fill="#000000" fill-rule="evenodd" fill-opacity="1" /><path clip-path="url(#clip190)" d="M214.134 944.106 Q211.2 944.106 209.715 947.003 Q208.248 949.88 208.248 955.673 Q208.248 961.447 209.715 964.344 Q211.2 967.221 214.134 967.221 Q217.087 967.221 218.554 964.344 Q220.04 961.447 220.04 955.673 Q220.04 949.88 218.554 947.003 Q217.087 944.106 214.134 944.106 M214.134 941.097 Q218.855 941.097 221.338 944.84 Q223.839 948.564 223.839 955.673 Q223.839 962.764 221.338 966.506 Q218.855 970.23 214.134 970.23 Q209.414 970.23 206.912 966.506 Q204.43 962.764 204.43 955.673 Q204.43 948.564 206.912 944.84 Q209.414 941.097 214.134 941.097 Z" fill="#000000" fill-rule="evenodd" fill-opacity="1" /><path clip-path="url(#clip190)" d="M155.823 609.2 L163.462 609.2 L163.462 582.835 L155.152 584.501 L155.152 580.242 L163.416 578.575 L168.092 578.575 L168.092 609.2 L175.73 609.2 L175.73 613.135 L155.823 613.135 L155.823 609.2 Z" fill="#000000" fill-rule="evenodd" fill-opacity="1" /><path clip-path="url(#clip190)" d="M195.175 581.654 Q191.564 581.654 189.735 585.219 Q187.929 588.761 187.929 595.89 Q187.929 602.997 189.735 606.561 Q191.564 610.103 195.175 610.103 Q198.809 610.103 200.615 606.561 Q202.443 602.997 202.443 595.89 Q202.443 588.761 200.615 585.219 Q198.809 581.654 195.175 581.654 M195.175 577.95 Q200.985 577.95 204.04 582.557 Q207.119 587.14 207.119 595.89 Q207.119 604.617 204.04 609.223 Q200.985 613.807 195.175 613.807 Q189.365 613.807 186.286 609.223 Q183.23 604.617 183.23 595.89 Q183.23 587.14 186.286 582.557 Q189.365 577.95 195.175 577.95 Z" fill="#000000" fill-rule="evenodd" fill-opacity="1" /><path clip-path="url(#clip190)" d="M207.665 582.528 L213.871 582.528 L213.871 561.106 L207.119 562.46 L207.119 558.999 L213.833 557.645 L217.633 557.645 L217.633 582.528 L223.839 582.528 L223.839 585.725 L207.665 585.725 L207.665 582.528 Z" fill="#000000" fill-rule="evenodd" fill-opacity="1" /><path clip-path="url(#clip190)" d="M154.713 225.24 L162.352 225.24 L162.352 198.875 L154.042 200.541 L154.042 196.282 L162.306 194.616 L166.982 194.616 L166.982 225.24 L174.621 225.24 L174.621 229.176 L154.713 229.176 L154.713 225.24 Z" fill="#000000" fill-rule="evenodd" fill-opacity="1" /><path clip-path="url(#clip190)" d="M194.065 197.694 Q190.454 197.694 188.625 201.259 Q186.82 204.801 186.82 211.93 Q186.82 219.037 188.625 222.602 Q190.454 226.143 194.065 226.143 Q197.699 226.143 199.505 222.602 Q201.334 219.037 201.334 211.93 Q201.334 204.801 199.505 201.259 Q197.699 197.694 194.065 197.694 M194.065 193.991 Q199.875 193.991 202.931 198.597 Q206.009 203.18 206.009 211.93 Q206.009 220.657 202.931 225.264 Q199.875 229.847 194.065 229.847 Q188.255 229.847 185.176 225.264 Q182.121 220.657 182.121 211.93 Q182.121 203.18 185.176 198.597 Q188.255 193.991 194.065 193.991 Z" fill="#000000" fill-rule="evenodd" fill-opacity="1" /><path clip-path="url(#clip190)" d="M210.58 198.568 L223.839 198.568 L223.839 201.765 L206.009 201.765 L206.009 198.568 Q208.172 196.33 211.896 192.568 Q215.639 188.788 216.598 187.697 Q218.423 185.647 219.137 184.236 Q219.871 182.807 219.871 181.434 Q219.871 179.196 218.291 177.785 Q216.73 176.375 214.21 176.375 Q212.423 176.375 210.429 176.995 Q208.454 177.616 206.198 178.876 L206.198 175.039 Q208.492 174.118 210.486 173.648 Q212.479 173.177 214.134 173.177 Q218.498 173.177 221.093 175.359 Q223.689 177.541 223.689 181.19 Q223.689 182.92 223.03 184.481 Q222.391 186.023 220.68 188.13 Q220.209 188.675 217.689 191.289 Q215.169 193.885 210.58 198.568 Z" fill="#000000" fill-rule="evenodd" fill-opacity="1" /><path clip-path="url(#clip190)" d="M83.4268 858.91 L70.6636 858.91 L70.6636 869.413 L65.38 869.413 L65.38 852.544 L85.7821 852.544 Q88.4239 856.268 89.7925 860.756 Q91.1293 865.244 91.1293 870.336 Q91.1293 881.476 84.6363 887.778 Q78.1114 894.048 66.494 894.048 Q54.8448 894.048 48.3518 887.778 Q41.8269 881.476 41.8269 870.336 Q41.8269 865.689 42.9727 861.52 Q44.1186 857.318 46.3466 853.785 L53.1897 853.785 Q50.166 857.35 48.6382 861.36 Q47.1104 865.371 47.1104 869.795 Q47.1104 878.516 51.9802 882.908 Q56.85 887.269 66.494 887.269 Q76.1062 887.269 80.976 882.908 Q85.8458 878.516 85.8458 869.795 Q85.8458 866.389 85.2729 863.716 Q84.6681 861.042 83.4268 858.91 Z" fill="#000000" fill-rule="evenodd" fill-opacity="1" /><path clip-path="url(#clip190)" d="M70.9182 810.562 L73.7828 810.562 L73.7828 837.489 Q79.8302 837.107 83.013 833.861 Q86.1641 830.582 86.1641 824.758 Q86.1641 821.384 85.3365 818.233 Q84.509 815.05 82.8539 811.931 L88.3921 811.931 Q89.7289 815.082 90.4291 818.392 Q91.1293 821.702 91.1293 825.108 Q91.1293 833.638 86.1641 838.635 Q81.1988 843.6 72.7324 843.6 Q63.9796 843.6 58.8552 838.889 Q53.699 834.147 53.699 826.126 Q53.699 818.933 58.3459 814.763 Q62.9611 810.562 70.9182 810.562 M69.1995 816.419 Q64.3933 816.482 61.5288 819.124 Q58.6642 821.734 58.6642 826.063 Q58.6642 830.964 61.4333 833.924 Q64.2024 836.852 69.2313 837.298 L69.1995 816.419 Z" fill="#000000" fill-rule="evenodd" fill-opacity="1" /><path clip-path="url(#clip190)" d="M68.6902 771.318 L90.2063 771.318 L90.2063 777.174 L68.8812 777.174 Q63.8204 777.174 61.306 779.147 Q58.7915 781.121 58.7915 785.067 Q58.7915 789.81 61.8152 792.547 Q64.8389 795.284 70.0588 795.284 L90.2063 795.284 L90.2063 801.173 L54.5583 801.173 L54.5583 795.284 L60.0965 795.284 Q56.8818 793.184 55.2904 790.351 Q53.699 787.486 53.699 783.762 Q53.699 777.62 57.5184 774.469 Q61.306 771.318 68.6902 771.318 Z" fill="#000000" fill-rule="evenodd" fill-opacity="1" /><path clip-path="url(#clip190)" d="M58.6642 745.823 Q58.6642 750.533 62.3563 753.271 Q66.0166 756.008 72.4141 756.008 Q78.8117 756.008 82.5038 753.303 Q86.1641 750.565 86.1641 745.823 Q86.1641 741.144 82.4719 738.407 Q78.7798 735.67 72.4141 735.67 Q66.0803 735.67 62.3881 738.407 Q58.6642 741.144 58.6642 745.823 M53.699 745.823 Q53.699 738.184 58.6642 733.824 Q63.6295 729.463 72.4141 729.463 Q81.167 729.463 86.1641 733.824 Q91.1293 738.184 91.1293 745.823 Q91.1293 753.494 86.1641 757.854 Q81.167 762.183 72.4141 762.183 Q63.6295 762.183 58.6642 757.854 Q53.699 753.494 53.699 745.823 Z" fill="#000000" fill-rule="evenodd" fill-opacity="1" /><path clip-path="url(#clip190)" d="M61.4015 692.001 Q57.4547 689.805 55.5768 686.749 Q53.699 683.694 53.699 679.556 Q53.699 673.986 57.6139 670.962 Q61.4969 667.938 68.6902 667.938 L90.2063 667.938 L90.2063 673.827 L68.8812 673.827 Q63.7568 673.827 61.2741 675.641 Q58.7915 677.455 58.7915 681.179 Q58.7915 685.731 61.8152 688.372 Q64.8389 691.014 70.0588 691.014 L90.2063 691.014 L90.2063 696.902 L68.8812 696.902 Q63.7249 696.902 61.2741 698.717 Q58.7915 700.531 58.7915 704.318 Q58.7915 708.806 61.8471 711.448 Q64.8708 714.09 70.0588 714.09 L90.2063 714.09 L90.2063 719.978 L54.5583 719.978 L54.5583 714.09 L60.0965 714.09 Q56.8182 712.085 55.2586 709.284 Q53.699 706.483 53.699 702.632 Q53.699 698.748 55.6723 696.043 Q57.6457 693.306 61.4015 692.001 Z" fill="#000000" fill-rule="evenodd" fill-opacity="1" /><path clip-path="url(#clip190)" d="M70.9182 625.766 L73.7828 625.766 L73.7828 652.693 Q79.8302 652.311 83.013 649.064 Q86.1641 645.786 86.1641 639.961 Q86.1641 636.587 85.3365 633.436 Q84.509 630.253 82.8539 627.134 L88.3921 627.134 Q89.7289 630.285 90.4291 633.595 Q91.1293 636.906 91.1293 640.311 Q91.1293 648.841 86.1641 653.838 Q81.1988 658.804 72.7324 658.804 Q63.9796 658.804 58.8552 654.093 Q53.699 649.351 53.699 641.33 Q53.699 634.137 58.3459 629.967 Q62.9611 625.766 70.9182 625.766 M69.1995 631.622 Q64.3933 631.686 61.5288 634.328 Q58.6642 636.937 58.6642 641.266 Q58.6642 646.168 61.4333 649.128 Q64.2024 652.056 69.2313 652.502 L69.1995 631.622 Z" fill="#000000" fill-rule="evenodd" fill-opacity="1" /><path clip-path="url(#clip190)" d="M55.6087 593.428 L61.1468 593.428 Q59.8737 595.91 59.2371 598.584 Q58.6006 601.258 58.6006 604.122 Q58.6006 608.483 59.9373 610.679 Q61.2741 612.843 63.9477 612.843 Q65.9848 612.843 67.1624 611.284 Q68.3083 609.724 69.3586 605.013 L69.8042 603.008 Q71.141 596.77 73.5918 594.16 Q76.0108 591.518 80.3713 591.518 Q85.3365 591.518 88.2329 595.465 Q91.1293 599.38 91.1293 606.255 Q91.1293 609.119 90.5564 612.239 Q90.0153 615.326 88.9013 618.763 L82.8539 618.763 Q84.5408 615.517 85.4002 612.366 Q86.2277 609.215 86.2277 606.127 Q86.2277 601.99 84.8273 599.762 Q83.395 597.534 80.8169 597.534 Q78.4297 597.534 77.1566 599.157 Q75.8834 600.748 74.7058 606.191 L74.2284 608.228 Q73.0825 613.671 70.7272 616.09 Q68.3401 618.509 64.2024 618.509 Q59.1735 618.509 56.4362 614.944 Q53.699 611.379 53.699 604.822 Q53.699 601.576 54.1764 598.711 Q54.6538 595.847 55.6087 593.428 Z" fill="#000000" fill-rule="evenodd" fill-opacity="1" /><path clip-path="url(#clip190)" d="M42.6863 571.784 L42.6863 566.374 L96.2537 582.924 L96.2537 588.335 L42.6863 571.784 Z" fill="#000000" fill-rule="evenodd" fill-opacity="1" /><path clip-path="url(#clip190)" d="M47.9698 553.547 L84.9227 553.547 L84.9227 545.781 Q84.9227 535.946 80.4668 531.394 Q76.0108 526.811 66.3985 526.811 Q56.85 526.811 52.4258 531.394 Q47.9698 535.946 47.9698 545.781 L47.9698 553.547 M42.6863 559.976 L42.6863 546.767 Q42.6863 532.954 48.4472 526.492 Q54.1764 520.031 66.3985 520.031 Q78.6844 520.031 84.4453 526.524 Q90.2063 533.017 90.2063 546.767 L90.2063 559.976 L42.6863 559.976 Z" fill="#000000" fill-rule="evenodd" fill-opacity="1" /><path clip-path="url(#clip190)" d="M72.2868 493.836 Q72.2868 500.934 73.9101 503.671 Q75.5333 506.409 79.4482 506.409 Q82.5674 506.409 84.4135 504.372 Q86.2277 502.303 86.2277 498.77 Q86.2277 493.9 82.7902 490.972 Q79.3209 488.012 73.5918 488.012 L72.2868 488.012 L72.2868 493.836 M69.8679 482.155 L90.2063 482.155 L90.2063 488.012 L84.7954 488.012 Q88.0419 490.017 89.6015 493.009 Q91.1293 496.001 91.1293 500.329 Q91.1293 505.804 88.0738 509.05 Q84.9864 512.265 79.8302 512.265 Q73.8146 512.265 70.759 508.255 Q67.7035 504.212 67.7035 496.224 L67.7035 488.012 L67.1306 488.012 Q63.0884 488.012 60.8922 490.685 Q58.6642 493.327 58.6642 498.133 Q58.6642 501.189 59.3963 504.085 Q60.1283 506.982 61.5924 509.655 L56.1816 509.655 Q54.9403 506.44 54.3355 503.417 Q53.699 500.393 53.699 497.528 Q53.699 489.794 57.7094 485.975 Q61.7197 482.155 69.8679 482.155 Z" fill="#000000" fill-rule="evenodd" fill-opacity="1" /><path clip-path="url(#clip190)" d="M93.5165 455.26 Q99.8822 457.743 101.824 460.098 Q103.765 462.453 103.765 466.4 L103.765 471.079 L98.8636 471.079 L98.8636 467.641 Q98.8636 465.223 97.7178 463.886 Q96.572 462.549 92.307 460.926 L89.6334 459.875 L54.5583 474.294 L54.5583 468.087 L82.4401 456.947 L54.5583 445.807 L54.5583 439.601 L93.5165 455.26 Z" fill="#000000" fill-rule="evenodd" fill-opacity="1" /><path clip-path="url(#clip190)" d="M40.7447 396.728 Q48.0653 400.993 55.2267 403.061 Q62.3881 405.13 69.7405 405.13 Q77.0929 405.13 84.318 403.061 Q91.5113 400.961 98.8 396.728 L98.8 401.82 Q91.3203 406.594 84.0952 408.981 Q76.8701 411.337 69.7405 411.337 Q62.6428 411.337 55.4495 408.981 Q48.2563 406.626 40.7447 401.82 L40.7447 396.728 Z" fill="#000000" fill-rule="evenodd" fill-opacity="1" /><path clip-path="url(#clip190)" d="M44.2459 356.624 L50.5161 356.624 Q48.7655 360.284 47.9062 363.53 Q47.0468 366.777 47.0468 369.801 Q47.0468 375.052 49.0838 377.917 Q51.1208 380.75 54.8766 380.75 Q58.0276 380.75 59.6509 378.872 Q61.2423 376.962 62.229 371.678 L63.0247 367.795 Q64.3933 360.602 67.8627 357.196 Q71.3001 353.759 77.0929 353.759 Q83.9997 353.759 87.5645 358.406 Q91.1293 363.021 91.1293 371.965 Q91.1293 375.339 90.3654 379.158 Q89.6015 382.946 88.1056 387.02 L81.4853 387.02 Q83.6814 383.105 84.7954 379.349 Q85.9094 375.593 85.9094 371.965 Q85.9094 366.459 83.7451 363.467 Q81.5808 360.475 77.5704 360.475 Q74.0692 360.475 72.0958 362.639 Q70.1225 364.772 69.1358 369.673 L68.3719 373.588 Q66.9396 380.781 63.8841 383.996 Q60.8285 387.211 55.3859 387.211 Q49.0838 387.211 45.4554 382.787 Q41.8269 378.331 41.8269 370.533 Q41.8269 367.191 42.4317 363.721 Q43.0364 360.252 44.2459 356.624 Z" fill="#000000" fill-rule="evenodd" fill-opacity="1" /><path clip-path="url(#clip190)" d="M84.8591 338.322 L103.765 338.322 L103.765 344.21 L54.5583 344.21 L54.5583 338.322 L59.9692 338.322 Q56.7863 336.476 55.2586 333.675 Q53.699 330.842 53.699 326.928 Q53.699 320.435 58.8552 316.392 Q64.0114 312.318 72.4141 312.318 Q80.8169 312.318 85.9731 316.392 Q91.1293 320.435 91.1293 326.928 Q91.1293 330.842 89.6015 333.675 Q88.0419 336.476 84.8591 338.322 M72.4141 318.397 Q65.9529 318.397 62.2927 321.071 Q58.6006 323.713 58.6006 328.36 Q58.6006 333.007 62.2927 335.68 Q65.9529 338.322 72.4141 338.322 Q78.8753 338.322 82.5674 335.68 Q86.2277 333.007 86.2277 328.36 Q86.2277 323.713 82.5674 321.071 Q78.8753 318.397 72.4141 318.397 Z" fill="#000000" fill-rule="evenodd" fill-opacity="1" /><path clip-path="url(#clip190)" d="M72.2868 286.41 Q72.2868 293.508 73.9101 296.245 Q75.5333 298.982 79.4482 298.982 Q82.5674 298.982 84.4135 296.945 Q86.2277 294.876 86.2277 291.343 Q86.2277 286.473 82.7902 283.545 Q79.3209 280.585 73.5918 280.585 L72.2868 280.585 L72.2868 286.41 M69.8679 274.729 L90.2063 274.729 L90.2063 280.585 L84.7954 280.585 Q88.0419 282.59 89.6015 285.582 Q91.1293 288.574 91.1293 292.903 Q91.1293 298.377 88.0738 301.624 Q84.9864 304.839 79.8302 304.839 Q73.8146 304.839 70.759 300.828 Q67.7035 296.786 67.7035 288.797 L67.7035 280.585 L67.1306 280.585 Q63.0884 280.585 60.8922 283.259 Q58.6642 285.901 58.6642 290.707 Q58.6642 293.762 59.3963 296.659 Q60.1283 299.555 61.5924 302.229 L56.1816 302.229 Q54.9403 299.014 54.3355 295.99 Q53.699 292.966 53.699 290.102 Q53.699 282.368 57.7094 278.548 Q61.7197 274.729 69.8679 274.729 Z" fill="#000000" fill-rule="evenodd" fill-opacity="1" /><path clip-path="url(#clip190)" d="M54.5583 262.666 L54.5583 256.809 L90.2063 256.809 L90.2063 262.666 L54.5583 262.666 M40.6811 262.666 L40.6811 256.809 L48.0971 256.809 L48.0971 262.666 L40.6811 262.666 Z" fill="#000000" fill-rule="evenodd" fill-opacity="1" /><path clip-path="url(#clip190)" d="M68.6902 214.923 L90.2063 214.923 L90.2063 220.779 L68.8812 220.779 Q63.8204 220.779 61.306 222.753 Q58.7915 224.726 58.7915 228.673 Q58.7915 233.415 61.8152 236.153 Q64.8389 238.89 70.0588 238.89 L90.2063 238.89 L90.2063 244.778 L54.5583 244.778 L54.5583 238.89 L60.0965 238.89 Q56.8818 236.789 55.2904 233.956 Q53.699 231.092 53.699 227.368 Q53.699 221.225 57.5184 218.074 Q61.306 214.923 68.6902 214.923 Z" fill="#000000" fill-rule="evenodd" fill-opacity="1" /><path clip-path="url(#clip190)" d="M40.7447 204.165 L40.7447 199.072 Q48.2563 194.298 55.4495 191.943 Q62.6428 189.556 69.7405 189.556 Q76.8701 189.556 84.0952 191.943 Q91.3203 194.298 98.8 199.072 L98.8 204.165 Q91.5113 199.932 84.318 197.863 Q77.0929 195.762 69.7405 195.762 Q62.3881 195.762 55.2267 197.863 Q48.0653 199.932 40.7447 204.165 Z" fill="#000000" fill-rule="evenodd" fill-opacity="1" /><path clip-path="url(#clip192)" d="
M288.747 342.348 L288.747 973.368 L311.29 973.368 L311.29 342.348 L288.747 342.348 L288.747 342.348  Z
  " fill="#009af9" fill-rule="evenodd" fill-opacity="0.5"/>
<polyline clip-path="url(#clip192)" style="stroke:#000000; stroke-linecap:round; stroke-linejoin:round; stroke-width:4; stroke-opacity:0.5; fill:none" points="
  288.747,342.348 288.747,973.368 311.29,973.368 311.29,342.348 288.747,342.348 
  "/>
<path clip-path="url(#clip192)" d="
M316.926 135.627 L316.926 973.368 L339.469 973.368 L339.469 135.627 L316.926 135.627 L316.926 135.627  Z
  " fill="#009af9" fill-rule="evenodd" fill-opacity="0.5"/>
<polyline clip-path="url(#clip192)" style="stroke:#000000; stroke-linecap:round; stroke-linejoin:round; stroke-width:4; stroke-opacity:0.5; fill:none" points="
  316.926,135.627 316.926,973.368 339.469,973.368 339.469,135.627 316.926,135.627 
  "/>
<path clip-path="url(#clip192)" d="
M345.105 110.236 L345.105 973.368 L367.649 973.368 L367.649 110.236 L345.105 110.236 L345.105 110.236  Z
  " fill="#009af9" fill-rule="evenodd" fill-opacity="0.5"/>
<polyline clip-path="url(#clip192)" style="stroke:#000000; stroke-linecap:round; stroke-linejoin:round; stroke-width:4; stroke-opacity:0.5; fill:none" points="
  345.105,110.236 345.105,973.368 367.649,973.368 367.649,110.236 345.105,110.236 
  "/>
<path clip-path="url(#clip192)" d="
M373.285 175.046 L373.285 973.368 L395.828 973.368 L395.828 175.046 L373.285 175.046 L373.285 175.046  Z
  " fill="#009af9" fill-rule="evenodd" fill-opacity="0.5"/>
<polyline clip-path="url(#clip192)" style="stroke:#000000; stroke-linecap:round; stroke-linejoin:round; stroke-width:4; stroke-opacity:0.5; fill:none" points="
  373.285,175.046 373.285,973.368 395.828,973.368 395.828,175.046 373.285,175.046 
  "/>
<path clip-path="url(#clip192)" d="
M401.464 238.54 L401.464 973.368 L424.007 973.368 L424.007 238.54 L401.464 238.54 L401.464 238.54  Z
  " fill="#009af9" fill-rule="evenodd" fill-opacity="0.5"/>
<polyline clip-path="url(#clip192)" style="stroke:#000000; stroke-linecap:round; stroke-linejoin:round; stroke-width:4; stroke-opacity:0.5; fill:none" points="
  401.464,238.54 401.464,973.368 424.007,973.368 424.007,238.54 401.464,238.54 
  "/>
<path clip-path="url(#clip192)" d="
M429.643 200.519 L429.643 973.368 L452.186 973.368 L452.186 200.519 L429.643 200.519 L429.643 200.519  Z
  " fill="#009af9" fill-rule="evenodd" fill-opacity="0.5"/>
<polyline clip-path="url(#clip192)" style="stroke:#000000; stroke-linecap:round; stroke-linejoin:round; stroke-width:4; stroke-opacity:0.5; fill:none" points="
  429.643,200.519 429.643,973.368 452.186,973.368 452.186,200.519 429.643,200.519 
  "/>
<path clip-path="url(#clip192)" d="
M457.822 334.935 L457.822 973.368 L480.366 973.368 L480.366 334.935 L457.822 334.935 L457.822 334.935  Z
  " fill="#009af9" fill-rule="evenodd" fill-opacity="0.5"/>
<polyline clip-path="url(#clip192)" style="stroke:#000000; stroke-linecap:round; stroke-linejoin:round; stroke-width:4; stroke-opacity:0.5; fill:none" points="
  457.822,334.935 457.822,973.368 480.366,973.368 480.366,334.935 457.822,334.935 
  "/>
<path clip-path="url(#clip192)" d="
M486.001 346.181 L486.001 973.368 L508.545 973.368 L508.545 346.181 L486.001 346.181 L486.001 346.181  Z
  " fill="#009af9" fill-rule="evenodd" fill-opacity="0.5"/>
<polyline clip-path="url(#clip192)" style="stroke:#000000; stroke-linecap:round; stroke-linejoin:round; stroke-width:4; stroke-opacity:0.5; fill:none" points="
  486.001,346.181 486.001,973.368 508.545,973.368 508.545,346.181 486.001,346.181 
  "/>
<path clip-path="url(#clip192)" d="
M514.181 305.138 L514.181 973.368 L536.724 973.368 L536.724 305.138 L514.181 305.138 L514.181 305.138  Z
  " fill="#009af9" fill-rule="evenodd" fill-opacity="0.5"/>
<polyline clip-path="url(#clip192)" style="stroke:#000000; stroke-linecap:round; stroke-linejoin:round; stroke-width:4; stroke-opacity:0.5; fill:none" points="
  514.181,305.138 514.181,973.368 536.724,973.368 536.724,305.138 514.181,305.138 
  "/>
<path clip-path="url(#clip192)" d="
M542.36 191.078 L542.36 973.368 L564.903 973.368 L564.903 191.078 L542.36 191.078 L542.36 191.078  Z
  " fill="#009af9" fill-rule="evenodd" fill-opacity="0.5"/>
<polyline clip-path="url(#clip192)" style="stroke:#000000; stroke-linecap:round; stroke-linejoin:round; stroke-width:4; stroke-opacity:0.5; fill:none" points="
  542.36,191.078 542.36,973.368 564.903,973.368 564.903,191.078 542.36,191.078 
  "/>
<path clip-path="url(#clip192)" d="
M570.539 117.949 L570.539 973.368 L593.083 973.368 L593.083 117.949 L570.539 117.949 L570.539 117.949  Z
  " fill="#009af9" fill-rule="evenodd" fill-opacity="0.5"/>
<polyline clip-path="url(#clip192)" style="stroke:#000000; stroke-linecap:round; stroke-linejoin:round; stroke-width:4; stroke-opacity:0.5; fill:none" points="
  570.539,117.949 570.539,973.368 593.083,973.368 593.083,117.949 570.539,117.949 
  "/>
<path clip-path="url(#clip192)" d="
M598.718 223.017 L598.718 973.368 L621.262 973.368 L621.262 223.017 L598.718 223.017 L598.718 223.017  Z
  " fill="#009af9" fill-rule="evenodd" fill-opacity="0.5"/>
<polyline clip-path="url(#clip192)" style="stroke:#000000; stroke-linecap:round; stroke-linejoin:round; stroke-width:4; stroke-opacity:0.5; fill:none" points="
  598.718,223.017 598.718,973.368 621.262,973.368 621.262,223.017 598.718,223.017 
  "/>
<path clip-path="url(#clip192)" d="
M626.898 224.88 L626.898 973.368 L649.441 973.368 L649.441 224.88 L626.898 224.88 L626.898 224.88  Z
  " fill="#009af9" fill-rule="evenodd" fill-opacity="0.5"/>
<polyline clip-path="url(#clip192)" style="stroke:#000000; stroke-linecap:round; stroke-linejoin:round; stroke-width:4; stroke-opacity:0.5; fill:none" points="
  626.898,224.88 626.898,973.368 649.441,973.368 649.441,224.88 626.898,224.88 
  "/>
<path clip-path="url(#clip192)" d="
M655.077 375.81 L655.077 973.368 L677.62 973.368 L677.62 375.81 L655.077 375.81 L655.077 375.81  Z
  " fill="#009af9" fill-rule="evenodd" fill-opacity="0.5"/>
<polyline clip-path="url(#clip192)" style="stroke:#000000; stroke-linecap:round; stroke-linejoin:round; stroke-width:4; stroke-opacity:0.5; fill:none" points="
  655.077,375.81 655.077,973.368 677.62,973.368 677.62,375.81 655.077,375.81 
  "/>
<path clip-path="url(#clip192)" d="
M683.256 380.508 L683.256 973.368 L705.8 973.368 L705.8 380.508 L683.256 380.508 L683.256 380.508  Z
  " fill="#009af9" fill-rule="evenodd" fill-opacity="0.5"/>
<polyline clip-path="url(#clip192)" style="stroke:#000000; stroke-linecap:round; stroke-linejoin:round; stroke-width:4; stroke-opacity:0.5; fill:none" points="
  683.256,380.508 683.256,973.368 705.8,973.368 705.8,380.508 683.256,380.508 
  "/>
<path clip-path="url(#clip192)" d="
M711.435 192.615 L711.435 973.368 L733.979 973.368 L733.979 192.615 L711.435 192.615 L711.435 192.615  Z
  " fill="#009af9" fill-rule="evenodd" fill-opacity="0.5"/>
<polyline clip-path="url(#clip192)" style="stroke:#000000; stroke-linecap:round; stroke-linejoin:round; stroke-width:4; stroke-opacity:0.5; fill:none" points="
  711.435,192.615 711.435,973.368 733.979,973.368 733.979,192.615 711.435,192.615 
  "/>
<path clip-path="url(#clip192)" d="
M739.615 179.267 L739.615 973.368 L762.158 973.368 L762.158 179.267 L739.615 179.267 L739.615 179.267  Z
  " fill="#009af9" fill-rule="evenodd" fill-opacity="0.5"/>
<polyline clip-path="url(#clip192)" style="stroke:#000000; stroke-linecap:round; stroke-linejoin:round; stroke-width:4; stroke-opacity:0.5; fill:none" points="
  739.615,179.267 739.615,973.368 762.158,973.368 762.158,179.267 739.615,179.267 
  "/>
<path clip-path="url(#clip192)" d="
M767.794 210.527 L767.794 973.368 L790.337 973.368 L790.337 210.527 L767.794 210.527 L767.794 210.527  Z
  " fill="#009af9" fill-rule="evenodd" fill-opacity="0.5"/>
<polyline clip-path="url(#clip192)" style="stroke:#000000; stroke-linecap:round; stroke-linejoin:round; stroke-width:4; stroke-opacity:0.5; fill:none" points="
  767.794,210.527 767.794,973.368 790.337,973.368 790.337,210.527 767.794,210.527 
  "/>
<path clip-path="url(#clip192)" d="
M795.973 267.323 L795.973 973.368 L818.517 973.368 L818.517 267.323 L795.973 267.323 L795.973 267.323  Z
  " fill="#009af9" fill-rule="evenodd" fill-opacity="0.5"/>
<polyline clip-path="url(#clip192)" style="stroke:#000000; stroke-linecap:round; stroke-linejoin:round; stroke-width:4; stroke-opacity:0.5; fill:none" points="
  795.973,267.323 795.973,973.368 818.517,973.368 818.517,267.323 795.973,267.323 
  "/>
<path clip-path="url(#clip192)" d="
M824.152 264.924 L824.152 973.368 L846.696 973.368 L846.696 264.924 L824.152 264.924 L824.152 264.924  Z
  " fill="#009af9" fill-rule="evenodd" fill-opacity="0.5"/>
<polyline clip-path="url(#clip192)" style="stroke:#000000; stroke-linecap:round; stroke-linejoin:round; stroke-width:4; stroke-opacity:0.5; fill:none" points="
  824.152,264.924 824.152,973.368 846.696,973.368 846.696,264.924 824.152,264.924 
  "/>
<path clip-path="url(#clip192)" d="
M852.332 346.181 L852.332 973.368 L874.875 973.368 L874.875 346.181 L852.332 346.181 L852.332 346.181  Z
  " fill="#009af9" fill-rule="evenodd" fill-opacity="0.5"/>
<polyline clip-path="url(#clip192)" style="stroke:#000000; stroke-linecap:round; stroke-linejoin:round; stroke-width:4; stroke-opacity:0.5; fill:none" points="
  852.332,346.181 852.332,973.368 874.875,973.368 874.875,346.181 852.332,346.181 
  "/>
<path clip-path="url(#clip192)" d="
M880.511 406.212 L880.511 973.368 L903.054 973.368 L903.054 406.212 L880.511 406.212 L880.511 406.212  Z
  " fill="#009af9" fill-rule="evenodd" fill-opacity="0.5"/>
<polyline clip-path="url(#clip192)" style="stroke:#000000; stroke-linecap:round; stroke-linejoin:round; stroke-width:4; stroke-opacity:0.5; fill:none" points="
  880.511,406.212 880.511,973.368 903.054,973.368 903.054,406.212 880.511,406.212 
  "/>
<path clip-path="url(#clip192)" d="
M908.69 217.549 L908.69 973.368 L931.234 973.368 L931.234 217.549 L908.69 217.549 L908.69 217.549  Z
  " fill="#009af9" fill-rule="evenodd" fill-opacity="0.5"/>
<polyline clip-path="url(#clip192)" style="stroke:#000000; stroke-linecap:round; stroke-linejoin:round; stroke-width:4; stroke-opacity:0.5; fill:none" points="
  908.69,217.549 908.69,973.368 931.234,973.368 931.234,217.549 908.69,217.549 
  "/>
<path clip-path="url(#clip192)" d="
M936.869 195.732 L936.869 973.368 L959.413 973.368 L959.413 195.732 L936.869 195.732 L936.869 195.732  Z
  " fill="#009af9" fill-rule="evenodd" fill-opacity="0.5"/>
<polyline clip-path="url(#clip192)" style="stroke:#000000; stroke-linecap:round; stroke-linejoin:round; stroke-width:4; stroke-opacity:0.5; fill:none" points="
  936.869,195.732 936.869,973.368 959.413,973.368 959.413,195.732 936.869,195.732 
  "/>
<path clip-path="url(#clip192)" d="
M965.049 182.142 L965.049 973.368 L987.592 973.368 L987.592 182.142 L965.049 182.142 L965.049 182.142  Z
  " fill="#009af9" fill-rule="evenodd" fill-opacity="0.5"/>
<polyline clip-path="url(#clip192)" style="stroke:#000000; stroke-linecap:round; stroke-linejoin:round; stroke-width:4; stroke-opacity:0.5; fill:none" points="
  965.049,182.142 965.049,973.368 987.592,973.368 987.592,182.142 965.049,182.142 
  "/>
<path clip-path="url(#clip192)" d="
M993.228 296.282 L993.228 973.368 L1015.77 973.368 L1015.77 296.282 L993.228 296.282 L993.228 296.282  Z
  " fill="#009af9" fill-rule="evenodd" fill-opacity="0.5"/>
<polyline clip-path="url(#clip192)" style="stroke:#000000; stroke-linecap:round; stroke-linejoin:round; stroke-width:4; stroke-opacity:0.5; fill:none" points="
  993.228,296.282 993.228,973.368 1015.77,973.368 1015.77,296.282 993.228,296.282 
  "/>
<path clip-path="url(#clip192)" d="
M1021.41 308.198 L1021.41 973.368 L1043.95 973.368 L1043.95 308.198 L1021.41 308.198 L1021.41 308.198  Z
  " fill="#009af9" fill-rule="evenodd" fill-opacity="0.5"/>
<polyline clip-path="url(#clip192)" style="stroke:#000000; stroke-linecap:round; stroke-linejoin:round; stroke-width:4; stroke-opacity:0.5; fill:none" points="
  1021.41,308.198 1021.41,973.368 1043.95,973.368 1043.95,308.198 1021.41,308.198 
  "/>
<path clip-path="url(#clip192)" d="
M1049.59 371.241 L1049.59 973.368 L1072.13 973.368 L1072.13 371.241 L1049.59 371.241 L1049.59 371.241  Z
  " fill="#009af9" fill-rule="evenodd" fill-opacity="0.5"/>
<polyline clip-path="url(#clip192)" style="stroke:#000000; stroke-linecap:round; stroke-linejoin:round; stroke-width:4; stroke-opacity:0.5; fill:none" points="
  1049.59,371.241 1049.59,973.368 1072.13,973.368 1072.13,371.241 1049.59,371.241 
  "/>
<path clip-path="url(#clip192)" d="
M1077.77 358.241 L1077.77 973.368 L1100.31 973.368 L1100.31 358.241 L1077.77 358.241 L1077.77 358.241  Z
  " fill="#009af9" fill-rule="evenodd" fill-opacity="0.5"/>
<polyline clip-path="url(#clip192)" style="stroke:#000000; stroke-linecap:round; stroke-linejoin:round; stroke-width:4; stroke-opacity:0.5; fill:none" points="
  1077.77,358.241 1077.77,973.368 1100.31,973.368 1100.31,358.241 1077.77,358.241 
  "/>
<path clip-path="url(#clip192)" d="
M1105.94 287.873 L1105.94 973.368 L1128.49 973.368 L1128.49 287.873 L1105.94 287.873 L1105.94 287.873  Z
  " fill="#009af9" fill-rule="evenodd" fill-opacity="0.5"/>
<polyline clip-path="url(#clip192)" style="stroke:#000000; stroke-linecap:round; stroke-linejoin:round; stroke-width:4; stroke-opacity:0.5; fill:none" points="
  1105.94,287.873 1105.94,973.368 1128.49,973.368 1128.49,287.873 1105.94,287.873 
  "/>
<path clip-path="url(#clip192)" d="
M1134.12 234.522 L1134.12 973.368 L1156.67 973.368 L1156.67 234.522 L1134.12 234.522 L1134.12 234.522  Z
  " fill="#009af9" fill-rule="evenodd" fill-opacity="0.5"/>
<polyline clip-path="url(#clip192)" style="stroke:#000000; stroke-linecap:round; stroke-linejoin:round; stroke-width:4; stroke-opacity:0.5; fill:none" points="
  1134.12,234.522 1134.12,973.368 1156.67,973.368 1156.67,234.522 1134.12,234.522 
  "/>
<path clip-path="url(#clip192)" d="
M1162.3 249.031 L1162.3 973.368 L1184.85 973.368 L1184.85 249.031 L1162.3 249.031 L1162.3 249.031  Z
  " fill="#009af9" fill-rule="evenodd" fill-opacity="0.5"/>
<polyline clip-path="url(#clip192)" style="stroke:#000000; stroke-linecap:round; stroke-linejoin:round; stroke-width:4; stroke-opacity:0.5; fill:none" points="
  1162.3,249.031 1162.3,973.368 1184.85,973.368 1184.85,249.031 1162.3,249.031 
  "/>
<path clip-path="url(#clip192)" d="
M1190.48 267.323 L1190.48 973.368 L1213.03 973.368 L1213.03 267.323 L1190.48 267.323 L1190.48 267.323  Z
  " fill="#009af9" fill-rule="evenodd" fill-opacity="0.5"/>
<polyline clip-path="url(#clip192)" style="stroke:#000000; stroke-linecap:round; stroke-linejoin:round; stroke-width:4; stroke-opacity:0.5; fill:none" points="
  1190.48,267.323 1190.48,973.368 1213.03,973.368 1213.03,267.323 1190.48,267.323 
  "/>
<path clip-path="url(#clip192)" d="
M1218.66 296.282 L1218.66 973.368 L1241.21 973.368 L1241.21 296.282 L1218.66 296.282 L1218.66 296.282  Z
  " fill="#009af9" fill-rule="evenodd" fill-opacity="0.5"/>
<polyline clip-path="url(#clip192)" style="stroke:#000000; stroke-linecap:round; stroke-linejoin:round; stroke-width:4; stroke-opacity:0.5; fill:none" points="
  1218.66,296.282 1218.66,973.368 1241.21,973.368 1241.21,296.282 1218.66,296.282 
  "/>
<path clip-path="url(#clip192)" d="
M1246.84 457.931 L1246.84 973.368 L1269.38 973.368 L1269.38 457.931 L1246.84 457.931 L1246.84 457.931  Z
  " fill="#009af9" fill-rule="evenodd" fill-opacity="0.5"/>
<polyline clip-path="url(#clip192)" style="stroke:#000000; stroke-linecap:round; stroke-linejoin:round; stroke-width:4; stroke-opacity:0.5; fill:none" points="
  1246.84,457.931 1246.84,973.368 1269.38,973.368 1269.38,457.931 1246.84,457.931 
  "/>
<path clip-path="url(#clip192)" d="
M1275.02 430.075 L1275.02 973.368 L1297.56 973.368 L1297.56 430.075 L1275.02 430.075 L1275.02 430.075  Z
  " fill="#009af9" fill-rule="evenodd" fill-opacity="0.5"/>
<polyline clip-path="url(#clip192)" style="stroke:#000000; stroke-linecap:round; stroke-linejoin:round; stroke-width:4; stroke-opacity:0.5; fill:none" points="
  1275.02,430.075 1275.02,973.368 1297.56,973.368 1297.56,430.075 1275.02,430.075 
  "/>
<path clip-path="url(#clip192)" d="
M1303.2 293.432 L1303.2 973.368 L1325.74 973.368 L1325.74 293.432 L1303.2 293.432 L1303.2 293.432  Z
  " fill="#009af9" fill-rule="evenodd" fill-opacity="0.5"/>
<polyline clip-path="url(#clip192)" style="stroke:#000000; stroke-linecap:round; stroke-linejoin:round; stroke-width:4; stroke-opacity:0.5; fill:none" points="
  1303.2,293.432 1303.2,973.368 1325.74,973.368 1325.74,293.432 1303.2,293.432 
  "/>
<path clip-path="url(#clip192)" d="
M1331.38 215.766 L1331.38 973.368 L1353.92 973.368 L1353.92 215.766 L1331.38 215.766 L1331.38 215.766  Z
  " fill="#009af9" fill-rule="evenodd" fill-opacity="0.5"/>
<polyline clip-path="url(#clip192)" style="stroke:#000000; stroke-linecap:round; stroke-linejoin:round; stroke-width:4; stroke-opacity:0.5; fill:none" points="
  1331.38,215.766 1331.38,973.368 1353.92,973.368 1353.92,215.766 1331.38,215.766 
  "/>
<path clip-path="url(#clip192)" d="
M1359.56 240.586 L1359.56 973.368 L1382.1 973.368 L1382.1 240.586 L1359.56 240.586 L1359.56 240.586  Z
  " fill="#009af9" fill-rule="evenodd" fill-opacity="0.5"/>
<polyline clip-path="url(#clip192)" style="stroke:#000000; stroke-linecap:round; stroke-linejoin:round; stroke-width:4; stroke-opacity:0.5; fill:none" points="
  1359.56,240.586 1359.56,973.368 1382.1,973.368 1382.1,240.586 1359.56,240.586 
  "/>
<path clip-path="url(#clip192)" d="
M1387.74 188.046 L1387.74 973.368 L1410.28 973.368 L1410.28 188.046 L1387.74 188.046 L1387.74 188.046  Z
  " fill="#009af9" fill-rule="evenodd" fill-opacity="0.5"/>
<polyline clip-path="url(#clip192)" style="stroke:#000000; stroke-linecap:round; stroke-linejoin:round; stroke-width:4; stroke-opacity:0.5; fill:none" points="
  1387.74,188.046 1387.74,973.368 1410.28,973.368 1410.28,188.046 1387.74,188.046 
  "/>
<path clip-path="url(#clip192)" d="
M1415.92 299.182 L1415.92 973.368 L1438.46 973.368 L1438.46 299.182 L1415.92 299.182 L1415.92 299.182  Z
  " fill="#009af9" fill-rule="evenodd" fill-opacity="0.5"/>
<polyline clip-path="url(#clip192)" style="stroke:#000000; stroke-linecap:round; stroke-linejoin:round; stroke-width:4; stroke-opacity:0.5; fill:none" points="
  1415.92,299.182 1415.92,973.368 1438.46,973.368 1438.46,299.182 1415.92,299.182 
  "/>
<path clip-path="url(#clip192)" d="
M1444.1 465.689 L1444.1 973.368 L1466.64 973.368 L1466.64 465.689 L1444.1 465.689 L1444.1 465.689  Z
  " fill="#009af9" fill-rule="evenodd" fill-opacity="0.5"/>
<polyline clip-path="url(#clip192)" style="stroke:#000000; stroke-linecap:round; stroke-linejoin:round; stroke-width:4; stroke-opacity:0.5; fill:none" points="
  1444.1,465.689 1444.1,973.368 1466.64,973.368 1466.64,465.689 1444.1,465.689 
  "/>
<path clip-path="url(#clip192)" d="
M1472.28 465.689 L1472.28 973.368 L1494.82 973.368 L1494.82 465.689 L1472.28 465.689 L1472.28 465.689  Z
  " fill="#009af9" fill-rule="evenodd" fill-opacity="0.5"/>
<polyline clip-path="url(#clip192)" style="stroke:#000000; stroke-linecap:round; stroke-linejoin:round; stroke-width:4; stroke-opacity:0.5; fill:none" points="
  1472.28,465.689 1472.28,973.368 1494.82,973.368 1494.82,465.689 1472.28,465.689 
  "/>
<path clip-path="url(#clip192)" d="
M1500.45 230.598 L1500.45 973.368 L1523 973.368 L1523 230.598 L1500.45 230.598 L1500.45 230.598  Z
  " fill="#009af9" fill-rule="evenodd" fill-opacity="0.5"/>
<polyline clip-path="url(#clip192)" style="stroke:#000000; stroke-linecap:round; stroke-linejoin:round; stroke-width:4; stroke-opacity:0.5; fill:none" points="
  1500.45,230.598 1500.45,973.368 1523,973.368 1523,230.598 1500.45,230.598 
  "/>
<path clip-path="url(#clip192)" d="
M1528.63 198.908 L1528.63 973.368 L1551.18 973.368 L1551.18 198.908 L1528.63 198.908 L1528.63 198.908  Z
  " fill="#009af9" fill-rule="evenodd" fill-opacity="0.5"/>
<polyline clip-path="url(#clip192)" style="stroke:#000000; stroke-linecap:round; stroke-linejoin:round; stroke-width:4; stroke-opacity:0.5; fill:none" points="
  1528.63,198.908 1528.63,973.368 1551.18,973.368 1551.18,198.908 1528.63,198.908 
  "/>
<path clip-path="url(#clip192)" d="
M1556.81 264.924 L1556.81 973.368 L1579.36 973.368 L1579.36 264.924 L1556.81 264.924 L1556.81 264.924  Z
  " fill="#009af9" fill-rule="evenodd" fill-opacity="0.5"/>
<polyline clip-path="url(#clip192)" style="stroke:#000000; stroke-linecap:round; stroke-linejoin:round; stroke-width:4; stroke-opacity:0.5; fill:none" points="
  1556.81,264.924 1556.81,973.368 1579.36,973.368 1579.36,264.924 1556.81,264.924 
  "/>
<path clip-path="url(#clip192)" d="
M1584.99 255.658 L1584.99 973.368 L1607.54 973.368 L1607.54 255.658 L1584.99 255.658 L1584.99 255.658  Z
  " fill="#009af9" fill-rule="evenodd" fill-opacity="0.5"/>
<polyline clip-path="url(#clip192)" style="stroke:#000000; stroke-linecap:round; stroke-linejoin:round; stroke-width:4; stroke-opacity:0.5; fill:none" points="
  1584.99,255.658 1584.99,973.368 1607.54,973.368 1607.54,255.658 1584.99,255.658 
  "/>
<path clip-path="url(#clip192)" d="
M1613.17 260.227 L1613.17 973.368 L1635.71 973.368 L1635.71 260.227 L1613.17 260.227 L1613.17 260.227  Z
  " fill="#009af9" fill-rule="evenodd" fill-opacity="0.5"/>
<polyline clip-path="url(#clip192)" style="stroke:#000000; stroke-linecap:round; stroke-linejoin:round; stroke-width:4; stroke-opacity:0.5; fill:none" points="
  1613.17,260.227 1613.17,973.368 1635.71,973.368 1635.71,260.227 1613.17,260.227 
  "/>
<path clip-path="url(#clip192)" d="
M1641.35 395.451 L1641.35 973.368 L1663.89 973.368 L1663.89 395.451 L1641.35 395.451 L1641.35 395.451  Z
  " fill="#009af9" fill-rule="evenodd" fill-opacity="0.5"/>
<polyline clip-path="url(#clip192)" style="stroke:#000000; stroke-linecap:round; stroke-linejoin:round; stroke-width:4; stroke-opacity:0.5; fill:none" points="
  1641.35,395.451 1641.35,973.368 1663.89,973.368 1663.89,395.451 1641.35,395.451 
  "/>
<path clip-path="url(#clip192)" d="
M1669.53 395.451 L1669.53 973.368 L1692.07 973.368 L1692.07 395.451 L1669.53 395.451 L1669.53 395.451  Z
  " fill="#009af9" fill-rule="evenodd" fill-opacity="0.5"/>
<polyline clip-path="url(#clip192)" style="stroke:#000000; stroke-linecap:round; stroke-linejoin:round; stroke-width:4; stroke-opacity:0.5; fill:none" points="
  1669.53,395.451 1669.53,973.368 1692.07,973.368 1692.07,395.451 1669.53,395.451 
  "/>
<path clip-path="url(#clip192)" d="
M1697.71 287.873 L1697.71 973.368 L1720.25 973.368 L1720.25 287.873 L1697.71 287.873 L1697.71 287.873  Z
  " fill="#009af9" fill-rule="evenodd" fill-opacity="0.5"/>
<polyline clip-path="url(#clip192)" style="stroke:#000000; stroke-linecap:round; stroke-linejoin:round; stroke-width:4; stroke-opacity:0.5; fill:none" points="
  1697.71,287.873 1697.71,973.368 1720.25,973.368 1720.25,287.873 1697.71,287.873 
  "/>
<path clip-path="url(#clip192)" d="
M1725.89 197.312 L1725.89 973.368 L1748.43 973.368 L1748.43 197.312 L1725.89 197.312 L1725.89 197.312  Z
  " fill="#009af9" fill-rule="evenodd" fill-opacity="0.5"/>
<polyline clip-path="url(#clip192)" style="stroke:#000000; stroke-linecap:round; stroke-linejoin:round; stroke-width:4; stroke-opacity:0.5; fill:none" points="
  1725.89,197.312 1725.89,973.368 1748.43,973.368 1748.43,197.312 1725.89,197.312 
  "/>
<path clip-path="url(#clip192)" d="
M1754.07 251.211 L1754.07 973.368 L1776.61 973.368 L1776.61 251.211 L1754.07 251.211 L1754.07 251.211  Z
  " fill="#009af9" fill-rule="evenodd" fill-opacity="0.5"/>
<polyline clip-path="url(#clip192)" style="stroke:#000000; stroke-linecap:round; stroke-linejoin:round; stroke-width:4; stroke-opacity:0.5; fill:none" points="
  1754.07,251.211 1754.07,973.368 1776.61,973.368 1776.61,251.211 1754.07,251.211 
  "/>
<path clip-path="url(#clip192)" d="
M1782.25 375.81 L1782.25 973.368 L1804.79 973.368 L1804.79 375.81 L1782.25 375.81 L1782.25 375.81  Z
  " fill="#009af9" fill-rule="evenodd" fill-opacity="0.5"/>
<polyline clip-path="url(#clip192)" style="stroke:#000000; stroke-linecap:round; stroke-linejoin:round; stroke-width:4; stroke-opacity:0.5; fill:none" points="
  1782.25,375.81 1782.25,973.368 1804.79,973.368 1804.79,375.81 1782.25,375.81 
  "/>
<path clip-path="url(#clip192)" d="
M1810.43 324.4 L1810.43 973.368 L1832.97 973.368 L1832.97 324.4 L1810.43 324.4 L1810.43 324.4  Z
  " fill="#009af9" fill-rule="evenodd" fill-opacity="0.5"/>
<polyline clip-path="url(#clip192)" style="stroke:#000000; stroke-linecap:round; stroke-linejoin:round; stroke-width:4; stroke-opacity:0.5; fill:none" points="
  1810.43,324.4 1810.43,973.368 1832.97,973.368 1832.97,324.4 1810.43,324.4 
  "/>
<path clip-path="url(#clip192)" d="
M1838.61 457.931 L1838.61 973.368 L1861.15 973.368 L1861.15 457.931 L1838.61 457.931 L1838.61 457.931  Z
  " fill="#009af9" fill-rule="evenodd" fill-opacity="0.5"/>
<polyline clip-path="url(#clip192)" style="stroke:#000000; stroke-linecap:round; stroke-linejoin:round; stroke-width:4; stroke-opacity:0.5; fill:none" points="
  1838.61,457.931 1838.61,973.368 1861.15,973.368 1861.15,457.931 1838.61,457.931 
  "/>
<path clip-path="url(#clip192)" d="
M1866.78 375.81 L1866.78 973.368 L1889.33 973.368 L1889.33 375.81 L1866.78 375.81 L1866.78 375.81  Z
  " fill="#009af9" fill-rule="evenodd" fill-opacity="0.5"/>
<polyline clip-path="url(#clip192)" style="stroke:#000000; stroke-linecap:round; stroke-linejoin:round; stroke-width:4; stroke-opacity:0.5; fill:none" points="
  1866.78,375.81 1866.78,973.368 1889.33,973.368 1889.33,375.81 1866.78,375.81 
  "/>
<path clip-path="url(#clip192)" d="
M1894.96 179.267 L1894.96 973.368 L1917.51 973.368 L1917.51 179.267 L1894.96 179.267 L1894.96 179.267  Z
  " fill="#009af9" fill-rule="evenodd" fill-opacity="0.5"/>
<polyline clip-path="url(#clip192)" style="stroke:#000000; stroke-linecap:round; stroke-linejoin:round; stroke-width:4; stroke-opacity:0.5; fill:none" points="
  1894.96,179.267 1894.96,973.368 1917.51,973.368 1917.51,179.267 1894.96,179.267 
  "/>
<path clip-path="url(#clip192)" d="
M1923.14 173.662 L1923.14 973.368 L1945.69 973.368 L1945.69 173.662 L1923.14 173.662 L1923.14 173.662  Z
  " fill="#009af9" fill-rule="evenodd" fill-opacity="0.5"/>
<polyline clip-path="url(#clip192)" style="stroke:#000000; stroke-linecap:round; stroke-linejoin:round; stroke-width:4; stroke-opacity:0.5; fill:none" points="
  1923.14,173.662 1923.14,973.368 1945.69,973.368 1945.69,173.662 1923.14,173.662 
  "/>
<path clip-path="url(#clip192)" d="
M1951.32 238.54 L1951.32 973.368 L1973.87 973.368 L1973.87 238.54 L1951.32 238.54 L1951.32 238.54  Z
  " fill="#009af9" fill-rule="evenodd" fill-opacity="0.5"/>
<polyline clip-path="url(#clip192)" style="stroke:#000000; stroke-linecap:round; stroke-linejoin:round; stroke-width:4; stroke-opacity:0.5; fill:none" points="
  1951.32,238.54 1951.32,973.368 1973.87,973.368 1973.87,238.54 1951.32,238.54 
  "/>
<path clip-path="url(#clip192)" d="
M1979.5 305.138 L1979.5 973.368 L2002.04 973.368 L2002.04 305.138 L1979.5 305.138 L1979.5 305.138  Z
  " fill="#009af9" fill-rule="evenodd" fill-opacity="0.5"/>
<polyline clip-path="url(#clip192)" style="stroke:#000000; stroke-linecap:round; stroke-linejoin:round; stroke-width:4; stroke-opacity:0.5; fill:none" points="
  1979.5,305.138 1979.5,973.368 2002.04,973.368 2002.04,305.138 1979.5,305.138 
  "/>
<path clip-path="url(#clip192)" d="
M2007.68 246.879 L2007.68 973.368 L2030.22 973.368 L2030.22 246.879 L2007.68 246.879 L2007.68 246.879  Z
  " fill="#009af9" fill-rule="evenodd" fill-opacity="0.5"/>
<polyline clip-path="url(#clip192)" style="stroke:#000000; stroke-linecap:round; stroke-linejoin:round; stroke-width:4; stroke-opacity:0.5; fill:none" points="
  2007.68,246.879 2007.68,973.368 2030.22,973.368 2030.22,246.879 2007.68,246.879 
  "/>
<path clip-path="url(#clip192)" d="
M2035.86 334.935 L2035.86 973.368 L2058.4 973.368 L2058.4 334.935 L2035.86 334.935 L2035.86 334.935  Z
  " fill="#009af9" fill-rule="evenodd" fill-opacity="0.5"/>
<polyline clip-path="url(#clip192)" style="stroke:#000000; stroke-linecap:round; stroke-linejoin:round; stroke-width:4; stroke-opacity:0.5; fill:none" points="
  2035.86,334.935 2035.86,973.368 2058.4,973.368 2058.4,334.935 2035.86,334.935 
  "/>
<path clip-path="url(#clip192)" d="
M2064.04 436.615 L2064.04 973.368 L2086.58 973.368 L2086.58 436.615 L2064.04 436.615 L2064.04 436.615  Z
  " fill="#009af9" fill-rule="evenodd" fill-opacity="0.5"/>
<polyline clip-path="url(#clip192)" style="stroke:#000000; stroke-linecap:round; stroke-linejoin:round; stroke-width:4; stroke-opacity:0.5; fill:none" points="
  2064.04,436.615 2064.04,973.368 2086.58,973.368 2086.58,436.615 2064.04,436.615 
  "/>
<path clip-path="url(#clip192)" d="
M2092.22 197.312 L2092.22 973.368 L2114.76 973.368 L2114.76 197.312 L2092.22 197.312 L2092.22 197.312  Z
  " fill="#009af9" fill-rule="evenodd" fill-opacity="0.5"/>
<polyline clip-path="url(#clip192)" style="stroke:#000000; stroke-linecap:round; stroke-linejoin:round; stroke-width:4; stroke-opacity:0.5; fill:none" points="
  2092.22,197.312 2092.22,973.368 2114.76,973.368 2114.76,197.312 2092.22,197.312 
  "/>
<path clip-path="url(#clip192)" d="
M2120.4 176.441 L2120.4 973.368 L2142.94 973.368 L2142.94 176.441 L2120.4 176.441 L2120.4 176.441  Z
  " fill="#009af9" fill-rule="evenodd" fill-opacity="0.5"/>
<polyline clip-path="url(#clip192)" style="stroke:#000000; stroke-linecap:round; stroke-linejoin:round; stroke-width:4; stroke-opacity:0.5; fill:none" points="
  2120.4,176.441 2120.4,973.368 2142.94,973.368 2142.94,176.441 2120.4,176.441 
  "/>
<path clip-path="url(#clip192)" d="
M2148.58 395.451 L2148.58 973.368 L2171.12 973.368 L2171.12 395.451 L2148.58 395.451 L2148.58 395.451  Z
  " fill="#009af9" fill-rule="evenodd" fill-opacity="0.5"/>
<polyline clip-path="url(#clip192)" style="stroke:#000000; stroke-linecap:round; stroke-linejoin:round; stroke-width:4; stroke-opacity:0.5; fill:none" points="
  2148.58,395.451 2148.58,973.368 2171.12,973.368 2171.12,395.451 2148.58,395.451 
  "/>
<path clip-path="url(#clip192)" d="
M2176.76 224.88 L2176.76 973.368 L2199.3 973.368 L2199.3 224.88 L2176.76 224.88 L2176.76 224.88  Z
  " fill="#009af9" fill-rule="evenodd" fill-opacity="0.5"/>
<polyline clip-path="url(#clip192)" style="stroke:#000000; stroke-linecap:round; stroke-linejoin:round; stroke-width:4; stroke-opacity:0.5; fill:none" points="
  2176.76,224.88 2176.76,973.368 2199.3,973.368 2199.3,224.88 2176.76,224.88 
  "/>
<path clip-path="url(#clip192)" d="
M2204.94 249.031 L2204.94 973.368 L2227.48 973.368 L2227.48 249.031 L2204.94 249.031 L2204.94 249.031  Z
  " fill="#009af9" fill-rule="evenodd" fill-opacity="0.5"/>
<polyline clip-path="url(#clip192)" style="stroke:#000000; stroke-linecap:round; stroke-linejoin:round; stroke-width:4; stroke-opacity:0.5; fill:none" points="
  2204.94,249.031 2204.94,973.368 2227.48,973.368 2227.48,249.031 2204.94,249.031 
  "/>
<path clip-path="url(#clip192)" d="
M2233.11 324.4 L2233.11 973.368 L2255.66 973.368 L2255.66 324.4 L2233.11 324.4 L2233.11 324.4  Z
  " fill="#009af9" fill-rule="evenodd" fill-opacity="0.5"/>
<polyline clip-path="url(#clip192)" style="stroke:#000000; stroke-linecap:round; stroke-linejoin:round; stroke-width:4; stroke-opacity:0.5; fill:none" points="
  2233.11,324.4 2233.11,973.368 2255.66,973.368 2255.66,324.4 2233.11,324.4 
  "/>
<path clip-path="url(#clip192)" d="
M2261.29 350.105 L2261.29 973.368 L2283.84 973.368 L2283.84 350.105 L2261.29 350.105 L2261.29 350.105  Z
  " fill="#009af9" fill-rule="evenodd" fill-opacity="0.5"/>
<polyline clip-path="url(#clip192)" style="stroke:#000000; stroke-linecap:round; stroke-linejoin:round; stroke-width:4; stroke-opacity:0.5; fill:none" points="
  2261.29,350.105 2261.29,973.368 2283.84,973.368 2283.84,350.105 2261.29,350.105 
  "/>
<path clip-path="url(#clip192)" d="
M2289.47 230.598 L2289.47 973.368 L2312.02 973.368 L2312.02 230.598 L2289.47 230.598 L2289.47 230.598  Z
  " fill="#009af9" fill-rule="evenodd" fill-opacity="0.5"/>
<polyline clip-path="url(#clip192)" style="stroke:#000000; stroke-linecap:round; stroke-linejoin:round; stroke-width:4; stroke-opacity:0.5; fill:none" points="
  2289.47,230.598 2289.47,973.368 2312.02,973.368 2312.02,230.598 2289.47,230.598 
  "/>
<path clip-path="url(#clip192)" d="
M2317.65 207.124 L2317.65 973.368 L2340.2 973.368 L2340.2 207.124 L2317.65 207.124 L2317.65 207.124  Z
  " fill="#009af9" fill-rule="evenodd" fill-opacity="0.5"/>
<polyline clip-path="url(#clip192)" style="stroke:#000000; stroke-linecap:round; stroke-linejoin:round; stroke-width:4; stroke-opacity:0.5; fill:none" points="
  2317.65,207.124 2317.65,973.368 2340.2,973.368 2340.2,207.124 2317.65,207.124 
  "/>
<path clip-path="url(#clip192)" d="
M2345.83 226.764 L2345.83 973.368 L2368.38 973.368 L2368.38 226.764 L2345.83 226.764 L2345.83 226.764  Z
  " fill="#009af9" fill-rule="evenodd" fill-opacity="0.5"/>
<polyline clip-path="url(#clip192)" style="stroke:#000000; stroke-linecap:round; stroke-linejoin:round; stroke-width:4; stroke-opacity:0.5; fill:none" points="
  2345.83,226.764 2345.83,973.368 2368.38,973.368 2368.38,226.764 2345.83,226.764 
  "/>
<path clip-path="url(#clip192)" d="
M2374.01 366.794 L2374.01 973.368 L2396.55 973.368 L2396.55 366.794 L2374.01 366.794 L2374.01 366.794  Z
  " fill="#009af9" fill-rule="evenodd" fill-opacity="0.5"/>
<polyline clip-path="url(#clip192)" style="stroke:#000000; stroke-linecap:round; stroke-linejoin:round; stroke-width:4; stroke-opacity:0.5; fill:none" points="
  2374.01,366.794 2374.01,973.368 2396.55,973.368 2396.55,366.794 2374.01,366.794 
  "/>
<path clip-path="url(#clip192)" d="
M2402.19 334.935 L2402.19 973.368 L2424.73 973.368 L2424.73 334.935 L2402.19 334.935 L2402.19 334.935  Z
  " fill="#009af9" fill-rule="evenodd" fill-opacity="0.5"/>
<polyline clip-path="url(#clip192)" style="stroke:#000000; stroke-linecap:round; stroke-linejoin:round; stroke-width:4; stroke-opacity:0.5; fill:none" points="
  2402.19,334.935 2402.19,973.368 2424.73,973.368 2424.73,334.935 2402.19,334.935 
  "/>
<path clip-path="url(#clip192)" d="
M2430.37 457.931 L2430.37 973.368 L2452.91 973.368 L2452.91 457.931 L2430.37 457.931 L2430.37 457.931  Z
  " fill="#009af9" fill-rule="evenodd" fill-opacity="0.5"/>
<polyline clip-path="url(#clip192)" style="stroke:#000000; stroke-linecap:round; stroke-linejoin:round; stroke-width:4; stroke-opacity:0.5; fill:none" points="
  2430.37,457.931 2430.37,973.368 2452.91,973.368 2452.91,457.931 2430.37,457.931 
  "/>
<path clip-path="url(#clip192)" d="
M2458.55 482.378 L2458.55 973.368 L2481.09 973.368 L2481.09 482.378 L2458.55 482.378 L2458.55 482.378  Z
  " fill="#009af9" fill-rule="evenodd" fill-opacity="0.5"/>
<polyline clip-path="url(#clip192)" style="stroke:#000000; stroke-linecap:round; stroke-linejoin:round; stroke-width:4; stroke-opacity:0.5; fill:none" points="
  2458.55,482.378 2458.55,973.368 2481.09,973.368 2481.09,482.378 2458.55,482.378 
  "/>
<path clip-path="url(#clip192)" d="
M2486.73 299.182 L2486.73 973.368 L2509.27 973.368 L2509.27 299.182 L2486.73 299.182 L2486.73 299.182  Z
  " fill="#009af9" fill-rule="evenodd" fill-opacity="0.5"/>
<polyline clip-path="url(#clip192)" style="stroke:#000000; stroke-linecap:round; stroke-linejoin:round; stroke-width:4; stroke-opacity:0.5; fill:none" points="
  2486.73,299.182 2486.73,973.368 2509.27,973.368 2509.27,299.182 2486.73,299.182 
  "/>
<path clip-path="url(#clip192)" d="
M2514.91 308.198 L2514.91 973.368 L2537.45 973.368 L2537.45 308.198 L2514.91 308.198 L2514.91 308.198  Z
  " fill="#009af9" fill-rule="evenodd" fill-opacity="0.5"/>
<polyline clip-path="url(#clip192)" style="stroke:#000000; stroke-linecap:round; stroke-linejoin:round; stroke-width:4; stroke-opacity:0.5; fill:none" points="
  2514.91,308.198 2514.91,973.368 2537.45,973.368 2537.45,308.198 2514.91,308.198 
  "/>
<path clip-path="url(#clip192)" d="
M2543.09 395.451 L2543.09 973.368 L2565.63 973.368 L2565.63 395.451 L2543.09 395.451 L2543.09 395.451  Z
  " fill="#009af9" fill-rule="evenodd" fill-opacity="0.5"/>
<polyline clip-path="url(#clip192)" style="stroke:#000000; stroke-linecap:round; stroke-linejoin:round; stroke-width:4; stroke-opacity:0.5; fill:none" points="
  2543.09,395.451 2543.09,973.368 2565.63,973.368 2565.63,395.451 2543.09,395.451 
  "/>
<path clip-path="url(#clip192)" d="
M2571.27 521.796 L2571.27 973.368 L2593.81 973.368 L2593.81 521.796 L2571.27 521.796 L2571.27 521.796  Z
  " fill="#009af9" fill-rule="evenodd" fill-opacity="0.5"/>
<polyline clip-path="url(#clip192)" style="stroke:#000000; stroke-linecap:round; stroke-linejoin:round; stroke-width:4; stroke-opacity:0.5; fill:none" points="
  2571.27,521.796 2571.27,973.368 2593.81,973.368 2593.81,521.796 2571.27,521.796 
  "/>
<path clip-path="url(#clip192)" d="
M2599.44 511.034 L2599.44 973.368 L2621.99 973.368 L2621.99 511.034 L2599.44 511.034 L2599.44 511.034  Z
  " fill="#009af9" fill-rule="evenodd" fill-opacity="0.5"/>
<polyline clip-path="url(#clip192)" style="stroke:#000000; stroke-linecap:round; stroke-linejoin:round; stroke-width:4; stroke-opacity:0.5; fill:none" points="
  2599.44,511.034 2599.44,973.368 2621.99,973.368 2621.99,511.034 2599.44,511.034 
  "/>
<path clip-path="url(#clip192)" d="
M2627.62 606.977 L2627.62 973.368 L2650.17 973.368 L2650.17 606.977 L2627.62 606.977 L2627.62 606.977  Z
  " fill="#009af9" fill-rule="evenodd" fill-opacity="0.5"/>
<polyline clip-path="url(#clip192)" style="stroke:#000000; stroke-linecap:round; stroke-linejoin:round; stroke-width:4; stroke-opacity:0.5; fill:none" points="
  2627.62,606.977 2627.62,973.368 2650.17,973.368 2650.17,606.977 2627.62,606.977 
  "/>
<path clip-path="url(#clip192)" d="
M2655.8 648.884 L2655.8 973.368 L2678.35 973.368 L2678.35 648.884 L2655.8 648.884 L2655.8 648.884  Z
  " fill="#009af9" fill-rule="evenodd" fill-opacity="0.5"/>
<polyline clip-path="url(#clip192)" style="stroke:#000000; stroke-linecap:round; stroke-linejoin:round; stroke-width:4; stroke-opacity:0.5; fill:none" points="
  2655.8,648.884 2655.8,973.368 2678.35,973.368 2678.35,648.884 2655.8,648.884 
  "/>
<path clip-path="url(#clip192)" d="
M2683.98 511.034 L2683.98 973.368 L2706.53 973.368 L2706.53 511.034 L2683.98 511.034 L2683.98 511.034  Z
  " fill="#009af9" fill-rule="evenodd" fill-opacity="0.5"/>
<polyline clip-path="url(#clip192)" style="stroke:#000000; stroke-linecap:round; stroke-linejoin:round; stroke-width:4; stroke-opacity:0.5; fill:none" points="
  2683.98,511.034 2683.98,973.368 2706.53,973.368 2706.53,511.034 2683.98,511.034 
  "/>
<path clip-path="url(#clip192)" d="
M2712.16 674.589 L2712.16 973.368 L2734.71 973.368 L2734.71 674.589 L2712.16 674.589 L2712.16 674.589  Z
  " fill="#009af9" fill-rule="evenodd" fill-opacity="0.5"/>
<polyline clip-path="url(#clip192)" style="stroke:#000000; stroke-linecap:round; stroke-linejoin:round; stroke-width:4; stroke-opacity:0.5; fill:none" points="
  2712.16,674.589 2712.16,973.368 2734.71,973.368 2734.71,674.589 2712.16,674.589 
  "/>
<path clip-path="url(#clip192)" d="
M2740.34 465.689 L2740.34 973.368 L2762.88 973.368 L2762.88 465.689 L2740.34 465.689 L2740.34 465.689  Z
  " fill="#009af9" fill-rule="evenodd" fill-opacity="0.5"/>
<polyline clip-path="url(#clip192)" style="stroke:#000000; stroke-linecap:round; stroke-linejoin:round; stroke-width:4; stroke-opacity:0.5; fill:none" points="
  2740.34,465.689 2740.34,973.368 2762.88,973.368 2762.88,465.689 2740.34,465.689 
  "/>
<path clip-path="url(#clip192)" d="
M2768.52 973.368 L2768.52 973.368 L2791.06 973.368 L2791.06 973.368 L2768.52 973.368 L2768.52 973.368  Z
  " fill="#009af9" fill-rule="evenodd" fill-opacity="0.5"/>
<polyline clip-path="url(#clip192)" style="stroke:#000000; stroke-linecap:round; stroke-linejoin:round; stroke-width:4; stroke-opacity:0.5; fill:none" points="
  2768.52,973.368 2768.52,973.368 2791.06,973.368 2768.52,973.368 
  "/>
<path clip-path="url(#clip192)" d="
M2881.24 648.884 L2881.24 973.368 L2903.78 973.368 L2903.78 648.884 L2881.24 648.884 L2881.24 648.884  Z
  " fill="#009af9" fill-rule="evenodd" fill-opacity="0.5"/>
<polyline clip-path="url(#clip192)" style="stroke:#000000; stroke-linecap:round; stroke-linejoin:round; stroke-width:4; stroke-opacity:0.5; fill:none" points="
  2881.24,648.884 2881.24,973.368 2903.78,973.368 2903.78,648.884 2881.24,648.884 
  "/>
<circle clip-path="url(#clip192)" style="fill:#009af9; stroke:none; fill-opacity:0" cx="300.018" cy="342.348" r="2"/>
<circle clip-path="url(#clip192)" style="fill:#009af9; stroke:none; fill-opacity:0" cx="328.198" cy="135.627" r="2"/>
<circle clip-path="url(#clip192)" style="fill:#009af9; stroke:none; fill-opacity:0" cx="356.377" cy="110.236" r="2"/>
<circle clip-path="url(#clip192)" style="fill:#009af9; stroke:none; fill-opacity:0" cx="384.556" cy="175.046" r="2"/>
<circle clip-path="url(#clip192)" style="fill:#009af9; stroke:none; fill-opacity:0" cx="412.735" cy="238.54" r="2"/>
<circle clip-path="url(#clip192)" style="fill:#009af9; stroke:none; fill-opacity:0" cx="440.915" cy="200.519" r="2"/>
<circle clip-path="url(#clip192)" style="fill:#009af9; stroke:none; fill-opacity:0" cx="469.094" cy="334.935" r="2"/>
<circle clip-path="url(#clip192)" style="fill:#009af9; stroke:none; fill-opacity:0" cx="497.273" cy="346.181" r="2"/>
<circle clip-path="url(#clip192)" style="fill:#009af9; stroke:none; fill-opacity:0" cx="525.452" cy="305.138" r="2"/>
<circle clip-path="url(#clip192)" style="fill:#009af9; stroke:none; fill-opacity:0" cx="553.632" cy="191.078" r="2"/>
<circle clip-path="url(#clip192)" style="fill:#009af9; stroke:none; fill-opacity:0" cx="581.811" cy="117.949" r="2"/>
<circle clip-path="url(#clip192)" style="fill:#009af9; stroke:none; fill-opacity:0" cx="609.99" cy="223.017" r="2"/>
<circle clip-path="url(#clip192)" style="fill:#009af9; stroke:none; fill-opacity:0" cx="638.169" cy="224.88" r="2"/>
<circle clip-path="url(#clip192)" style="fill:#009af9; stroke:none; fill-opacity:0" cx="666.349" cy="375.81" r="2"/>
<circle clip-path="url(#clip192)" style="fill:#009af9; stroke:none; fill-opacity:0" cx="694.528" cy="380.508" r="2"/>
<circle clip-path="url(#clip192)" style="fill:#009af9; stroke:none; fill-opacity:0" cx="722.707" cy="192.615" r="2"/>
<circle clip-path="url(#clip192)" style="fill:#009af9; stroke:none; fill-opacity:0" cx="750.886" cy="179.267" r="2"/>
<circle clip-path="url(#clip192)" style="fill:#009af9; stroke:none; fill-opacity:0" cx="779.066" cy="210.527" r="2"/>
<circle clip-path="url(#clip192)" style="fill:#009af9; stroke:none; fill-opacity:0" cx="807.245" cy="267.323" r="2"/>
<circle clip-path="url(#clip192)" style="fill:#009af9; stroke:none; fill-opacity:0" cx="835.424" cy="264.924" r="2"/>
<circle clip-path="url(#clip192)" style="fill:#009af9; stroke:none; fill-opacity:0" cx="863.603" cy="346.181" r="2"/>
<circle clip-path="url(#clip192)" style="fill:#009af9; stroke:none; fill-opacity:0" cx="891.783" cy="406.212" r="2"/>
<circle clip-path="url(#clip192)" style="fill:#009af9; stroke:none; fill-opacity:0" cx="919.962" cy="217.549" r="2"/>
<circle clip-path="url(#clip192)" style="fill:#009af9; stroke:none; fill-opacity:0" cx="948.141" cy="195.732" r="2"/>
<circle clip-path="url(#clip192)" style="fill:#009af9; stroke:none; fill-opacity:0" cx="976.32" cy="182.142" r="2"/>
<circle clip-path="url(#clip192)" style="fill:#009af9; stroke:none; fill-opacity:0" cx="1004.5" cy="296.282" r="2"/>
<circle clip-path="url(#clip192)" style="fill:#009af9; stroke:none; fill-opacity:0" cx="1032.68" cy="308.198" r="2"/>
<circle clip-path="url(#clip192)" style="fill:#009af9; stroke:none; fill-opacity:0" cx="1060.86" cy="371.241" r="2"/>
<circle clip-path="url(#clip192)" style="fill:#009af9; stroke:none; fill-opacity:0" cx="1089.04" cy="358.241" r="2"/>
<circle clip-path="url(#clip192)" style="fill:#009af9; stroke:none; fill-opacity:0" cx="1117.22" cy="287.873" r="2"/>
<circle clip-path="url(#clip192)" style="fill:#009af9; stroke:none; fill-opacity:0" cx="1145.4" cy="234.522" r="2"/>
<circle clip-path="url(#clip192)" style="fill:#009af9; stroke:none; fill-opacity:0" cx="1173.58" cy="249.031" r="2"/>
<circle clip-path="url(#clip192)" style="fill:#009af9; stroke:none; fill-opacity:0" cx="1201.75" cy="267.323" r="2"/>
<circle clip-path="url(#clip192)" style="fill:#009af9; stroke:none; fill-opacity:0" cx="1229.93" cy="296.282" r="2"/>
<circle clip-path="url(#clip192)" style="fill:#009af9; stroke:none; fill-opacity:0" cx="1258.11" cy="457.931" r="2"/>
<circle clip-path="url(#clip192)" style="fill:#009af9; stroke:none; fill-opacity:0" cx="1286.29" cy="430.075" r="2"/>
<circle clip-path="url(#clip192)" style="fill:#009af9; stroke:none; fill-opacity:0" cx="1314.47" cy="293.432" r="2"/>
<circle clip-path="url(#clip192)" style="fill:#009af9; stroke:none; fill-opacity:0" cx="1342.65" cy="215.766" r="2"/>
<circle clip-path="url(#clip192)" style="fill:#009af9; stroke:none; fill-opacity:0" cx="1370.83" cy="240.586" r="2"/>
<circle clip-path="url(#clip192)" style="fill:#009af9; stroke:none; fill-opacity:0" cx="1399.01" cy="188.046" r="2"/>
<circle clip-path="url(#clip192)" style="fill:#009af9; stroke:none; fill-opacity:0" cx="1427.19" cy="299.182" r="2"/>
<circle clip-path="url(#clip192)" style="fill:#009af9; stroke:none; fill-opacity:0" cx="1455.37" cy="465.689" r="2"/>
<circle clip-path="url(#clip192)" style="fill:#009af9; stroke:none; fill-opacity:0" cx="1483.55" cy="465.689" r="2"/>
<circle clip-path="url(#clip192)" style="fill:#009af9; stroke:none; fill-opacity:0" cx="1511.73" cy="230.598" r="2"/>
<circle clip-path="url(#clip192)" style="fill:#009af9; stroke:none; fill-opacity:0" cx="1539.91" cy="198.908" r="2"/>
<circle clip-path="url(#clip192)" style="fill:#009af9; stroke:none; fill-opacity:0" cx="1568.08" cy="264.924" r="2"/>
<circle clip-path="url(#clip192)" style="fill:#009af9; stroke:none; fill-opacity:0" cx="1596.26" cy="255.658" r="2"/>
<circle clip-path="url(#clip192)" style="fill:#009af9; stroke:none; fill-opacity:0" cx="1624.44" cy="260.227" r="2"/>
<circle clip-path="url(#clip192)" style="fill:#009af9; stroke:none; fill-opacity:0" cx="1652.62" cy="395.451" r="2"/>
<circle clip-path="url(#clip192)" style="fill:#009af9; stroke:none; fill-opacity:0" cx="1680.8" cy="395.451" r="2"/>
<circle clip-path="url(#clip192)" style="fill:#009af9; stroke:none; fill-opacity:0" cx="1708.98" cy="287.873" r="2"/>
<circle clip-path="url(#clip192)" style="fill:#009af9; stroke:none; fill-opacity:0" cx="1737.16" cy="197.312" r="2"/>
<circle clip-path="url(#clip192)" style="fill:#009af9; stroke:none; fill-opacity:0" cx="1765.34" cy="251.211" r="2"/>
<circle clip-path="url(#clip192)" style="fill:#009af9; stroke:none; fill-opacity:0" cx="1793.52" cy="375.81" r="2"/>
<circle clip-path="url(#clip192)" style="fill:#009af9; stroke:none; fill-opacity:0" cx="1821.7" cy="324.4" r="2"/>
<circle clip-path="url(#clip192)" style="fill:#009af9; stroke:none; fill-opacity:0" cx="1849.88" cy="457.931" r="2"/>
<circle clip-path="url(#clip192)" style="fill:#009af9; stroke:none; fill-opacity:0" cx="1878.06" cy="375.81" r="2"/>
<circle clip-path="url(#clip192)" style="fill:#009af9; stroke:none; fill-opacity:0" cx="1906.24" cy="179.267" r="2"/>
<circle clip-path="url(#clip192)" style="fill:#009af9; stroke:none; fill-opacity:0" cx="1934.41" cy="173.662" r="2"/>
<circle clip-path="url(#clip192)" style="fill:#009af9; stroke:none; fill-opacity:0" cx="1962.59" cy="238.54" r="2"/>
<circle clip-path="url(#clip192)" style="fill:#009af9; stroke:none; fill-opacity:0" cx="1990.77" cy="305.138" r="2"/>
<circle clip-path="url(#clip192)" style="fill:#009af9; stroke:none; fill-opacity:0" cx="2018.95" cy="246.879" r="2"/>
<circle clip-path="url(#clip192)" style="fill:#009af9; stroke:none; fill-opacity:0" cx="2047.13" cy="334.935" r="2"/>
<circle clip-path="url(#clip192)" style="fill:#009af9; stroke:none; fill-opacity:0" cx="2075.31" cy="436.615" r="2"/>
<circle clip-path="url(#clip192)" style="fill:#009af9; stroke:none; fill-opacity:0" cx="2103.49" cy="197.312" r="2"/>
<circle clip-path="url(#clip192)" style="fill:#009af9; stroke:none; fill-opacity:0" cx="2131.67" cy="176.441" r="2"/>
<circle clip-path="url(#clip192)" style="fill:#009af9; stroke:none; fill-opacity:0" cx="2159.85" cy="395.451" r="2"/>
<circle clip-path="url(#clip192)" style="fill:#009af9; stroke:none; fill-opacity:0" cx="2188.03" cy="224.88" r="2"/>
<circle clip-path="url(#clip192)" style="fill:#009af9; stroke:none; fill-opacity:0" cx="2216.21" cy="249.031" r="2"/>
<circle clip-path="url(#clip192)" style="fill:#009af9; stroke:none; fill-opacity:0" cx="2244.39" cy="324.4" r="2"/>
<circle clip-path="url(#clip192)" style="fill:#009af9; stroke:none; fill-opacity:0" cx="2272.57" cy="350.105" r="2"/>
<circle clip-path="url(#clip192)" style="fill:#009af9; stroke:none; fill-opacity:0" cx="2300.74" cy="230.598" r="2"/>
<circle clip-path="url(#clip192)" style="fill:#009af9; stroke:none; fill-opacity:0" cx="2328.92" cy="207.124" r="2"/>
<circle clip-path="url(#clip192)" style="fill:#009af9; stroke:none; fill-opacity:0" cx="2357.1" cy="226.764" r="2"/>
<circle clip-path="url(#clip192)" style="fill:#009af9; stroke:none; fill-opacity:0" cx="2385.28" cy="366.794" r="2"/>
<circle clip-path="url(#clip192)" style="fill:#009af9; stroke:none; fill-opacity:0" cx="2413.46" cy="334.935" r="2"/>
<circle clip-path="url(#clip192)" style="fill:#009af9; stroke:none; fill-opacity:0" cx="2441.64" cy="457.931" r="2"/>
<circle clip-path="url(#clip192)" style="fill:#009af9; stroke:none; fill-opacity:0" cx="2469.82" cy="482.378" r="2"/>
<circle clip-path="url(#clip192)" style="fill:#009af9; stroke:none; fill-opacity:0" cx="2498" cy="299.182" r="2"/>
<circle clip-path="url(#clip192)" style="fill:#009af9; stroke:none; fill-opacity:0" cx="2526.18" cy="308.198" r="2"/>
<circle clip-path="url(#clip192)" style="fill:#009af9; stroke:none; fill-opacity:0" cx="2554.36" cy="395.451" r="2"/>
<circle clip-path="url(#clip192)" style="fill:#009af9; stroke:none; fill-opacity:0" cx="2582.54" cy="521.796" r="2"/>
<circle clip-path="url(#clip192)" style="fill:#009af9; stroke:none; fill-opacity:0" cx="2610.72" cy="511.034" r="2"/>
<circle clip-path="url(#clip192)" style="fill:#009af9; stroke:none; fill-opacity:0" cx="2638.9" cy="606.977" r="2"/>
<circle clip-path="url(#clip192)" style="fill:#009af9; stroke:none; fill-opacity:0" cx="2667.08" cy="648.884" r="2"/>
<circle clip-path="url(#clip192)" style="fill:#009af9; stroke:none; fill-opacity:0" cx="2695.25" cy="511.034" r="2"/>
<circle clip-path="url(#clip192)" style="fill:#009af9; stroke:none; fill-opacity:0" cx="2723.43" cy="674.589" r="2"/>
<circle clip-path="url(#clip192)" style="fill:#009af9; stroke:none; fill-opacity:0" cx="2751.61" cy="465.689" r="2"/>
<circle clip-path="url(#clip192)" style="fill:#009af9; stroke:none; fill-opacity:0" cx="2779.79" cy="973.368" r="2"/>
<circle clip-path="url(#clip192)" style="fill:#009af9; stroke:none; fill-opacity:0" cx="2892.51" cy="648.884" r="2"/>
</svg>
