<?xml version="1.0" encoding="utf-8"?>
<svg xmlns="http://www.w3.org/2000/svg" xmlns:xlink="http://www.w3.org/1999/xlink" width="800" height="300" viewBox="0 0 3200 1200">
<defs>
  <clipPath id="clip250">
    <rect x="0" y="0" width="3200" height="1200"/>
  </clipPath>
</defs>
<path clip-path="url(#clip250)" d="M0 1200 L3200 1200 L3200 0 L0 0  Z" fill="#ffffff" fill-rule="evenodd" fill-opacity="1"/>
<defs>
  <clipPath id="clip251">
    <rect x="640" y="0" width="2241" height="1200"/>
  </clipPath>
</defs>
<path clip-path="url(#clip250)" d="M271.839 1042.58 L3089.76 1042.58 L3089.76 110.236 L271.839 110.236  Z" fill="#ffffff" fill-rule="evenodd" fill-opacity="1"/>
<defs>
  <clipPath id="clip252">
    <rect x="271" y="110" width="2819" height="933"/>
  </clipPath>
</defs>
<polyline clip-path="url(#clip252)" style="stroke:#000000; stroke-linecap:round; stroke-linejoin:round; stroke-width:2; stroke-opacity:0.1; fill:none" points="1117.22,1042.58 1117.22,110.236 "/>
<polyline clip-path="url(#clip252)" style="stroke:#000000; stroke-linecap:round; stroke-linejoin:round; stroke-width:2; stroke-opacity:0.1; fill:none" points="1990.77,1042.58 1990.77,110.236 "/>
<polyline clip-path="url(#clip252)" style="stroke:#000000; stroke-linecap:round; stroke-linejoin:round; stroke-width:2; stroke-opacity:0.1; fill:none" points="2836.15,1042.58 2836.15,110.236 "/>
<polyline clip-path="url(#clip250)" style="stroke:#000000; stroke-linecap:round; stroke-linejoin:round; stroke-width:4; stroke-opacity:1; fill:none" points="271.839,1042.58 3089.76,1042.58 "/>
<polyline clip-path="url(#clip250)" style="stroke:#000000; stroke-linecap:round; stroke-linejoin:round; stroke-width:4; stroke-opacity:1; fill:none" points="1117.22,1042.58 1117.22,1023.68 "/>
<polyline clip-path="url(#clip250)" style="stroke:#000000; stroke-linecap:round; stroke-linejoin:round; stroke-width:4; stroke-opacity:1; fill:none" points="1990.77,1042.58 1990.77,1023.68 "/>
<polyline clip-path="url(#clip250)" style="stroke:#000000; stroke-linecap:round; stroke-linejoin:round; stroke-width:4; stroke-opacity:1; fill:none" points="2836.15,1042.58 2836.15,1023.68 "/>
<path clip-path="url(#clip250)" d="M989.011 1107.44 L1005.33 1107.44 L1005.33 1111.38 L983.386 1111.38 L983.386 1107.44 Q986.048 1104.69 990.632 1100.06 Q995.238 1095.4 996.419 1094.06 Q998.664 1091.54 999.544 1089.8 Q1000.45 1088.04 1000.45 1086.35 Q1000.45 1083.6 998.502 1081.86 Q996.581 1080.13 993.479 1080.13 Q991.28 1080.13 988.826 1080.89 Q986.396 1081.65 983.618 1083.2 L983.618 1078.48 Q986.442 1077.35 988.896 1076.77 Q991.349 1076.19 993.386 1076.19 Q998.757 1076.19 1001.95 1078.88 Q1005.15 1081.56 1005.15 1086.05 Q1005.15 1088.18 1004.34 1090.1 Q1003.55 1092 1001.44 1094.59 Q1000.86 1095.26 997.761 1098.48 Q994.659 1101.68 989.011 1107.44 Z" fill="#000000" fill-rule="nonzero" fill-opacity="1" /><path clip-path="url(#clip250)" d="M1025.15 1079.89 Q1021.53 1079.89 1019.71 1083.46 Q1017.9 1087 1017.9 1094.13 Q1017.9 1101.24 1019.71 1104.8 Q1021.53 1108.34 1025.15 1108.34 Q1028.78 1108.34 1030.59 1104.8 Q1032.41 1101.24 1032.41 1094.13 Q1032.41 1087 1030.59 1083.46 Q1028.78 1079.89 1025.15 1079.89 M1025.15 1076.19 Q1030.96 1076.19 1034.01 1080.8 Q1037.09 1085.38 1037.09 1094.13 Q1037.09 1102.86 1034.01 1107.46 Q1030.96 1112.05 1025.15 1112.05 Q1019.34 1112.05 1016.26 1107.46 Q1013.2 1102.86 1013.2 1094.13 Q1013.2 1085.38 1016.26 1080.8 Q1019.34 1076.19 1025.15 1076.19 Z" fill="#000000" fill-rule="nonzero" fill-opacity="1" /><path clip-path="url(#clip250)" d="M1049.34 1107.44 L1065.65 1107.44 L1065.65 1111.38 L1043.71 1111.38 L1043.71 1107.44 Q1046.37 1104.69 1050.96 1100.06 Q1055.56 1095.4 1056.74 1094.06 Q1058.99 1091.54 1059.87 1089.8 Q1060.77 1088.04 1060.77 1086.35 Q1060.77 1083.6 1058.83 1081.86 Q1056.9 1080.13 1053.8 1080.13 Q1051.6 1080.13 1049.15 1080.89 Q1046.72 1081.65 1043.94 1083.2 L1043.94 1078.48 Q1046.77 1077.35 1049.22 1076.77 Q1051.67 1076.19 1053.71 1076.19 Q1059.08 1076.19 1062.27 1078.88 Q1065.47 1081.56 1065.47 1086.05 Q1065.47 1088.18 1064.66 1090.1 Q1063.87 1092 1061.77 1094.59 Q1061.19 1095.26 1058.08 1098.48 Q1054.98 1101.68 1049.34 1107.44 Z" fill="#000000" fill-rule="nonzero" fill-opacity="1" /><path clip-path="url(#clip250)" d="M1088.32 1080.89 L1076.51 1099.34 L1088.32 1099.34 L1088.32 1080.89 M1087.09 1076.82 L1092.97 1076.82 L1092.97 1099.34 L1097.9 1099.34 L1097.9 1103.23 L1092.97 1103.23 L1092.97 1111.38 L1088.32 1111.38 L1088.32 1103.23 L1072.71 1103.23 L1072.71 1098.71 L1087.09 1076.82 Z" fill="#000000" fill-rule="nonzero" fill-opacity="1" /><path clip-path="url(#clip250)" d="M1102.88 1096.49 L1115.35 1096.49 L1115.35 1100.29 L1102.88 1100.29 L1102.88 1096.49 Z" fill="#000000" fill-rule="nonzero" fill-opacity="1" /><path clip-path="url(#clip250)" d="M1132.74 1079.89 Q1129.13 1079.89 1127.3 1083.46 Q1125.49 1087 1125.49 1094.13 Q1125.49 1101.24 1127.3 1104.8 Q1129.13 1108.34 1132.74 1108.34 Q1136.37 1108.34 1138.18 1104.8 Q1140.01 1101.24 1140.01 1094.13 Q1140.01 1087 1138.18 1083.46 Q1136.37 1079.89 1132.74 1079.89 M1132.74 1076.19 Q1138.55 1076.19 1141.6 1080.8 Q1144.68 1085.38 1144.68 1094.13 Q1144.68 1102.86 1141.6 1107.46 Q1138.55 1112.05 1132.74 1112.05 Q1126.93 1112.05 1123.85 1107.46 Q1120.79 1102.86 1120.79 1094.13 Q1120.79 1085.38 1123.85 1080.8 Q1126.93 1076.19 1132.74 1076.19 Z" fill="#000000" fill-rule="nonzero" fill-opacity="1" /><path clip-path="url(#clip250)" d="M1162.9 1094.96 Q1159.57 1094.96 1157.64 1096.75 Q1155.75 1098.53 1155.75 1101.65 Q1155.75 1104.78 1157.64 1106.56 Q1159.57 1108.34 1162.9 1108.34 Q1166.23 1108.34 1168.15 1106.56 Q1170.08 1104.76 1170.08 1101.65 Q1170.08 1098.53 1168.15 1096.75 Q1166.26 1094.96 1162.9 1094.96 M1158.22 1092.97 Q1155.21 1092.23 1153.52 1090.17 Q1151.86 1088.11 1151.86 1085.15 Q1151.86 1081.01 1154.8 1078.6 Q1157.76 1076.19 1162.9 1076.19 Q1168.06 1076.19 1171 1078.6 Q1173.94 1081.01 1173.94 1085.15 Q1173.94 1088.11 1172.25 1090.17 Q1170.58 1092.23 1167.6 1092.97 Q1170.98 1093.76 1172.85 1096.05 Q1174.75 1098.34 1174.75 1101.65 Q1174.75 1106.68 1171.67 1109.36 Q1168.62 1112.05 1162.9 1112.05 Q1157.18 1112.05 1154.1 1109.36 Q1151.05 1106.68 1151.05 1101.65 Q1151.05 1098.34 1152.95 1096.05 Q1154.84 1093.76 1158.22 1092.97 M1156.51 1085.59 Q1156.51 1088.27 1158.18 1089.78 Q1159.87 1091.28 1162.9 1091.28 Q1165.91 1091.28 1167.6 1089.78 Q1169.31 1088.27 1169.31 1085.59 Q1169.31 1082.9 1167.6 1081.4 Q1165.91 1079.89 1162.9 1079.89 Q1159.87 1079.89 1158.18 1081.4 Q1156.51 1082.9 1156.51 1085.59 Z" fill="#000000" fill-rule="nonzero" fill-opacity="1" /><path clip-path="url(#clip250)" d="M1180.31 1096.49 L1192.78 1096.49 L1192.78 1100.29 L1180.31 1100.29 L1180.31 1096.49 Z" fill="#000000" fill-rule="nonzero" fill-opacity="1" /><path clip-path="url(#clip250)" d="M1210.17 1079.89 Q1206.56 1079.89 1204.73 1083.46 Q1202.92 1087 1202.92 1094.13 Q1202.92 1101.24 1204.73 1104.8 Q1206.56 1108.34 1210.17 1108.34 Q1213.8 1108.34 1215.61 1104.8 Q1217.44 1101.24 1217.44 1094.13 Q1217.44 1087 1215.61 1083.46 Q1213.8 1079.89 1210.17 1079.89 M1210.17 1076.19 Q1215.98 1076.19 1219.03 1080.8 Q1222.11 1085.38 1222.11 1094.13 Q1222.11 1102.86 1219.03 1107.46 Q1215.98 1112.05 1210.17 1112.05 Q1204.36 1112.05 1201.28 1107.46 Q1198.22 1102.86 1198.22 1094.13 Q1198.22 1085.38 1201.28 1080.8 Q1204.36 1076.19 1210.17 1076.19 Z" fill="#000000" fill-rule="nonzero" fill-opacity="1" /><path clip-path="url(#clip250)" d="M1231.14 1107.44 L1238.78 1107.44 L1238.78 1081.07 L1230.47 1082.74 L1230.47 1078.48 L1238.73 1076.82 L1243.41 1076.82 L1243.41 1107.44 L1251.05 1107.44 L1251.05 1111.38 L1231.14 1111.38 L1231.14 1107.44 Z" fill="#000000" fill-rule="nonzero" fill-opacity="1" /><path clip-path="url(#clip250)" d="M1862.57 1107.44 L1878.89 1107.44 L1878.89 1111.38 L1856.94 1111.38 L1856.94 1107.44 Q1859.6 1104.69 1864.19 1100.06 Q1868.79 1095.4 1869.98 1094.06 Q1872.22 1091.54 1873.1 1089.8 Q1874 1088.04 1874 1086.35 Q1874 1083.6 1872.06 1081.86 Q1870.14 1080.13 1867.04 1080.13 Q1864.84 1080.13 1862.38 1080.89 Q1859.95 1081.65 1857.17 1083.2 L1857.17 1078.48 Q1860 1077.35 1862.45 1076.77 Q1864.91 1076.19 1866.94 1076.19 Q1872.31 1076.19 1875.51 1078.88 Q1878.7 1081.56 1878.7 1086.05 Q1878.7 1088.18 1877.89 1090.1 Q1877.1 1092 1875 1094.59 Q1874.42 1095.26 1871.32 1098.48 Q1868.22 1101.68 1862.57 1107.44 Z" fill="#000000" fill-rule="nonzero" fill-opacity="1" /><path clip-path="url(#clip250)" d="M1898.7 1079.89 Q1895.09 1079.89 1893.26 1083.46 Q1891.46 1087 1891.46 1094.13 Q1891.46 1101.24 1893.26 1104.8 Q1895.09 1108.34 1898.7 1108.34 Q1902.34 1108.34 1904.14 1104.8 Q1905.97 1101.24 1905.97 1094.13 Q1905.97 1087 1904.14 1083.46 Q1902.34 1079.89 1898.7 1079.89 M1898.7 1076.19 Q1904.51 1076.19 1907.57 1080.8 Q1910.65 1085.38 1910.65 1094.13 Q1910.65 1102.86 1907.57 1107.46 Q1904.51 1112.05 1898.7 1112.05 Q1892.89 1112.05 1889.81 1107.46 Q1886.76 1102.86 1886.76 1094.13 Q1886.76 1085.38 1889.81 1080.8 Q1892.89 1076.19 1898.7 1076.19 Z" fill="#000000" fill-rule="nonzero" fill-opacity="1" /><path clip-path="url(#clip250)" d="M1922.89 1107.44 L1939.21 1107.44 L1939.21 1111.38 L1917.27 1111.38 L1917.27 1107.44 Q1919.93 1104.69 1924.51 1100.06 Q1929.12 1095.4 1930.3 1094.06 Q1932.54 1091.54 1933.42 1089.8 Q1934.33 1088.04 1934.33 1086.35 Q1934.33 1083.6 1932.38 1081.86 Q1930.46 1080.13 1927.36 1080.13 Q1925.16 1080.13 1922.71 1080.89 Q1920.28 1081.65 1917.5 1083.2 L1917.5 1078.48 Q1920.32 1077.35 1922.78 1076.77 Q1925.23 1076.19 1927.27 1076.19 Q1932.64 1076.19 1935.83 1078.88 Q1939.03 1081.56 1939.03 1086.05 Q1939.03 1088.18 1938.22 1090.1 Q1937.43 1092 1935.32 1094.59 Q1934.74 1095.26 1931.64 1098.48 Q1928.54 1101.68 1922.89 1107.44 Z" fill="#000000" fill-rule="nonzero" fill-opacity="1" /><path clip-path="url(#clip250)" d="M1961.87 1080.89 L1950.07 1099.34 L1961.87 1099.34 L1961.87 1080.89 M1960.65 1076.82 L1966.53 1076.82 L1966.53 1099.34 L1971.46 1099.34 L1971.46 1103.23 L1966.53 1103.23 L1966.53 1111.38 L1961.87 1111.38 L1961.87 1103.23 L1946.27 1103.23 L1946.27 1098.71 L1960.65 1076.82 Z" fill="#000000" fill-rule="nonzero" fill-opacity="1" /><path clip-path="url(#clip250)" d="M1976.43 1096.49 L1988.91 1096.49 L1988.91 1100.29 L1976.43 1100.29 L1976.43 1096.49 Z" fill="#000000" fill-rule="nonzero" fill-opacity="1" /><path clip-path="url(#clip250)" d="M2006.29 1079.89 Q2002.68 1079.89 2000.85 1083.46 Q1999.05 1087 1999.05 1094.13 Q1999.05 1101.24 2000.85 1104.8 Q2002.68 1108.34 2006.29 1108.34 Q2009.93 1108.34 2011.73 1104.8 Q2013.56 1101.24 2013.56 1094.13 Q2013.56 1087 2011.73 1083.46 Q2009.93 1079.89 2006.29 1079.89 M2006.29 1076.19 Q2012.1 1076.19 2015.16 1080.8 Q2018.24 1085.38 2018.24 1094.13 Q2018.24 1102.86 2015.16 1107.46 Q2012.1 1112.05 2006.29 1112.05 Q2000.48 1112.05 1997.41 1107.46 Q1994.35 1102.86 1994.35 1094.13 Q1994.35 1085.38 1997.41 1080.8 Q2000.48 1076.19 2006.29 1076.19 Z" fill="#000000" fill-rule="nonzero" fill-opacity="1" /><path clip-path="url(#clip250)" d="M2026.59 1110.66 L2026.59 1106.4 Q2028.35 1107.23 2030.16 1107.67 Q2031.97 1108.11 2033.7 1108.11 Q2038.33 1108.11 2040.76 1105.01 Q2043.22 1101.89 2043.56 1095.54 Q2042.22 1097.53 2040.16 1098.6 Q2038.1 1099.66 2035.6 1099.66 Q2030.41 1099.66 2027.38 1096.54 Q2024.37 1093.39 2024.37 1087.95 Q2024.37 1082.63 2027.52 1079.41 Q2030.67 1076.19 2035.9 1076.19 Q2041.9 1076.19 2045.04 1080.8 Q2048.22 1085.38 2048.22 1094.13 Q2048.22 1102.3 2044.33 1107.19 Q2040.46 1112.05 2033.91 1112.05 Q2032.15 1112.05 2030.34 1111.7 Q2028.54 1111.35 2026.59 1110.66 M2035.9 1096.01 Q2039.05 1096.01 2040.88 1093.85 Q2042.73 1091.7 2042.73 1087.95 Q2042.73 1084.22 2040.88 1082.07 Q2039.05 1079.89 2035.9 1079.89 Q2032.75 1079.89 2030.9 1082.07 Q2029.07 1084.22 2029.07 1087.95 Q2029.07 1091.7 2030.9 1093.85 Q2032.75 1096.01 2035.9 1096.01 Z" fill="#000000" fill-rule="nonzero" fill-opacity="1" /><path clip-path="url(#clip250)" d="M2053.86 1096.49 L2066.34 1096.49 L2066.34 1100.29 L2053.86 1100.29 L2053.86 1096.49 Z" fill="#000000" fill-rule="nonzero" fill-opacity="1" /><path clip-path="url(#clip250)" d="M2083.72 1079.89 Q2080.11 1079.89 2078.28 1083.46 Q2076.48 1087 2076.48 1094.13 Q2076.48 1101.24 2078.28 1104.8 Q2080.11 1108.34 2083.72 1108.34 Q2087.36 1108.34 2089.16 1104.8 Q2090.99 1101.24 2090.99 1094.13 Q2090.99 1087 2089.16 1083.46 Q2087.36 1079.89 2083.72 1079.89 M2083.72 1076.19 Q2089.53 1076.19 2092.59 1080.8 Q2095.67 1085.38 2095.67 1094.13 Q2095.67 1102.86 2092.59 1107.46 Q2089.53 1112.05 2083.72 1112.05 Q2077.91 1112.05 2074.84 1107.46 Q2071.78 1102.86 2071.78 1094.13 Q2071.78 1085.38 2074.84 1080.8 Q2077.91 1076.19 2083.72 1076.19 Z" fill="#000000" fill-rule="nonzero" fill-opacity="1" /><path clip-path="url(#clip250)" d="M2104.7 1107.44 L2112.34 1107.44 L2112.34 1081.07 L2104.02 1082.74 L2104.02 1078.48 L2112.29 1076.82 L2116.96 1076.82 L2116.96 1107.44 L2124.6 1107.44 L2124.6 1111.38 L2104.7 1111.38 L2104.7 1107.44 Z" fill="#000000" fill-rule="nonzero" fill-opacity="1" /><path clip-path="url(#clip250)" d="M2707.95 1107.44 L2724.26 1107.44 L2724.26 1111.38 L2702.32 1111.38 L2702.32 1107.44 Q2704.98 1104.69 2709.57 1100.06 Q2714.17 1095.4 2715.35 1094.06 Q2717.6 1091.54 2718.48 1089.8 Q2719.38 1088.04 2719.38 1086.35 Q2719.38 1083.6 2717.44 1081.86 Q2715.51 1080.13 2712.41 1080.13 Q2710.21 1080.13 2707.76 1080.89 Q2705.33 1081.65 2702.55 1083.2 L2702.55 1078.48 Q2705.38 1077.35 2707.83 1076.77 Q2710.28 1076.19 2712.32 1076.19 Q2717.69 1076.19 2720.88 1078.88 Q2724.08 1081.56 2724.08 1086.05 Q2724.08 1088.18 2723.27 1090.1 Q2722.48 1092 2720.38 1094.59 Q2719.8 1095.26 2716.7 1098.48 Q2713.59 1101.68 2707.95 1107.44 Z" fill="#000000" fill-rule="nonzero" fill-opacity="1" /><path clip-path="url(#clip250)" d="M2744.08 1079.89 Q2740.47 1079.89 2738.64 1083.46 Q2736.83 1087 2736.83 1094.13 Q2736.83 1101.24 2738.64 1104.8 Q2740.47 1108.34 2744.08 1108.34 Q2747.71 1108.34 2749.52 1104.8 Q2751.35 1101.24 2751.35 1094.13 Q2751.35 1087 2749.52 1083.46 Q2747.71 1079.89 2744.08 1079.89 M2744.08 1076.19 Q2749.89 1076.19 2752.94 1080.8 Q2756.02 1085.38 2756.02 1094.13 Q2756.02 1102.86 2752.94 1107.46 Q2749.89 1112.05 2744.08 1112.05 Q2738.27 1112.05 2735.19 1107.46 Q2732.13 1102.86 2732.13 1094.13 Q2732.13 1085.38 2735.19 1080.8 Q2738.27 1076.19 2744.08 1076.19 Z" fill="#000000" fill-rule="nonzero" fill-opacity="1" /><path clip-path="url(#clip250)" d="M2768.27 1107.44 L2784.59 1107.44 L2784.59 1111.38 L2762.64 1111.38 L2762.64 1107.44 Q2765.31 1104.69 2769.89 1100.06 Q2774.5 1095.4 2775.68 1094.06 Q2777.92 1091.54 2778.8 1089.8 Q2779.7 1088.04 2779.7 1086.35 Q2779.7 1083.6 2777.76 1081.86 Q2775.84 1080.13 2772.74 1080.13 Q2770.54 1080.13 2768.08 1080.89 Q2765.65 1081.65 2762.88 1083.2 L2762.88 1078.48 Q2765.7 1077.35 2768.15 1076.77 Q2770.61 1076.19 2772.64 1076.19 Q2778.01 1076.19 2781.21 1078.88 Q2784.4 1081.56 2784.4 1086.05 Q2784.4 1088.18 2783.59 1090.1 Q2782.81 1092 2780.7 1094.59 Q2780.12 1095.26 2777.02 1098.48 Q2773.92 1101.68 2768.27 1107.44 Z" fill="#000000" fill-rule="nonzero" fill-opacity="1" /><path clip-path="url(#clip250)" d="M2807.25 1080.89 L2795.44 1099.34 L2807.25 1099.34 L2807.25 1080.89 M2806.02 1076.82 L2811.9 1076.82 L2811.9 1099.34 L2816.83 1099.34 L2816.83 1103.23 L2811.9 1103.23 L2811.9 1111.38 L2807.25 1111.38 L2807.25 1103.23 L2791.65 1103.23 L2791.65 1098.71 L2806.02 1076.82 Z" fill="#000000" fill-rule="nonzero" fill-opacity="1" /><path clip-path="url(#clip250)" d="M2821.81 1096.49 L2834.29 1096.49 L2834.29 1100.29 L2821.81 1100.29 L2821.81 1096.49 Z" fill="#000000" fill-rule="nonzero" fill-opacity="1" /><path clip-path="url(#clip250)" d="M2842.48 1107.44 L2850.12 1107.44 L2850.12 1081.07 L2841.81 1082.74 L2841.81 1078.48 L2850.07 1076.82 L2854.75 1076.82 L2854.75 1107.44 L2862.39 1107.44 L2862.39 1111.38 L2842.48 1111.38 L2842.48 1107.44 Z" fill="#000000" fill-rule="nonzero" fill-opacity="1" /><path clip-path="url(#clip250)" d="M2881.83 1079.89 Q2878.22 1079.89 2876.39 1083.46 Q2874.59 1087 2874.59 1094.13 Q2874.59 1101.24 2876.39 1104.8 Q2878.22 1108.34 2881.83 1108.34 Q2885.47 1108.34 2887.27 1104.8 Q2889.1 1101.24 2889.1 1094.13 Q2889.1 1087 2887.27 1083.46 Q2885.47 1079.89 2881.83 1079.89 M2881.83 1076.19 Q2887.64 1076.19 2890.7 1080.8 Q2893.78 1085.38 2893.78 1094.13 Q2893.78 1102.86 2890.7 1107.46 Q2887.64 1112.05 2881.83 1112.05 Q2876.02 1112.05 2872.94 1107.46 Q2869.89 1102.86 2869.89 1094.13 Q2869.89 1085.38 2872.94 1080.8 Q2876.02 1076.19 2881.83 1076.19 Z" fill="#000000" fill-rule="nonzero" fill-opacity="1" /><path clip-path="url(#clip250)" d="M2899.24 1096.49 L2911.72 1096.49 L2911.72 1100.29 L2899.24 1100.29 L2899.24 1096.49 Z" fill="#000000" fill-rule="nonzero" fill-opacity="1" /><path clip-path="url(#clip250)" d="M2929.1 1079.89 Q2925.49 1079.89 2923.66 1083.46 Q2921.86 1087 2921.86 1094.13 Q2921.86 1101.24 2923.66 1104.8 Q2925.49 1108.34 2929.1 1108.34 Q2932.74 1108.34 2934.54 1104.8 Q2936.37 1101.24 2936.37 1094.13 Q2936.37 1087 2934.54 1083.46 Q2932.74 1079.89 2929.1 1079.89 M2929.1 1076.19 Q2934.91 1076.19 2937.97 1080.8 Q2941.05 1085.38 2941.05 1094.13 Q2941.05 1102.86 2937.97 1107.46 Q2934.91 1112.05 2929.1 1112.05 Q2923.29 1112.05 2920.21 1107.46 Q2917.16 1102.86 2917.16 1094.13 Q2917.16 1085.38 2920.21 1080.8 Q2923.29 1076.19 2929.1 1076.19 Z" fill="#000000" fill-rule="nonzero" fill-opacity="1" /><path clip-path="url(#clip250)" d="M2950.07 1107.44 L2957.71 1107.44 L2957.71 1081.07 L2949.4 1082.74 L2949.4 1078.48 L2957.67 1076.82 L2962.34 1076.82 L2962.34 1107.44 L2969.98 1107.44 L2969.98 1111.38 L2950.07 1111.38 L2950.07 1107.44 Z" fill="#000000" fill-rule="nonzero" fill-opacity="1" /><polyline clip-path="url(#clip252)" style="stroke:#000000; stroke-linecap:round; stroke-linejoin:round; stroke-width:2; stroke-opacity:0.1; fill:none" points="271.839,1042.58 3089.76,1042.58 "/>
<polyline clip-path="url(#clip252)" style="stroke:#000000; stroke-linecap:round; stroke-linejoin:round; stroke-width:2; stroke-opacity:0.1; fill:none" points="271.839,460.613 3089.76,460.613 "/>
<polyline clip-path="url(#clip250)" style="stroke:#000000; stroke-linecap:round; stroke-linejoin:round; stroke-width:4; stroke-opacity:1; fill:none" points="271.839,1042.58 271.839,110.236 "/>
<polyline clip-path="url(#clip250)" style="stroke:#000000; stroke-linecap:round; stroke-linejoin:round; stroke-width:4; stroke-opacity:1; fill:none" points="271.839,1042.58 290.737,1042.58 "/>
<polyline clip-path="url(#clip250)" style="stroke:#000000; stroke-linecap:round; stroke-linejoin:round; stroke-width:4; stroke-opacity:1; fill:none" points="271.839,460.613 290.737,460.613 "/>
<path clip-path="url(#clip250)" d="M153.134 1062.37 L160.772 1062.37 L160.772 1036 L152.462 1037.67 L152.462 1033.41 L160.726 1031.74 L165.402 1031.74 L165.402 1062.37 L173.041 1062.37 L173.041 1066.3 L153.134 1066.3 L153.134 1062.37 Z" fill="#000000" fill-rule="nonzero" fill-opacity="1" /><path clip-path="url(#clip250)" d="M192.485 1034.82 Q188.874 1034.82 187.045 1038.39 Q185.24 1041.93 185.24 1049.06 Q185.24 1056.16 187.045 1059.73 Q188.874 1063.27 192.485 1063.27 Q196.119 1063.27 197.925 1059.73 Q199.754 1056.16 199.754 1049.06 Q199.754 1041.93 197.925 1038.39 Q196.119 1034.82 192.485 1034.82 M192.485 1031.12 Q198.295 1031.12 201.351 1035.72 Q204.43 1040.31 204.43 1049.06 Q204.43 1057.78 201.351 1062.39 Q198.295 1066.97 192.485 1066.97 Q186.675 1066.97 183.596 1062.39 Q180.541 1057.78 180.541 1049.06 Q180.541 1040.31 183.596 1035.72 Q186.675 1031.12 192.485 1031.12 Z" fill="#000000" fill-rule="nonzero" fill-opacity="1" /><path clip-path="url(#clip250)" d="M214.134 1013.31 Q211.2 1013.31 209.715 1016.21 Q208.248 1019.09 208.248 1024.88 Q208.248 1030.66 209.715 1033.55 Q211.2 1036.43 214.134 1036.43 Q217.087 1036.43 218.554 1033.55 Q220.04 1030.66 220.04 1024.88 Q220.04 1019.09 218.554 1016.21 Q217.087 1013.31 214.134 1013.31 M214.134 1010.31 Q218.855 1010.31 221.338 1014.05 Q223.839 1017.77 223.839 1024.88 Q223.839 1031.97 221.338 1035.71 Q218.855 1039.44 214.134 1039.44 Q209.414 1039.44 206.912 1035.71 Q204.43 1031.97 204.43 1024.88 Q204.43 1017.77 206.912 1014.05 Q209.414 1010.31 214.134 1010.31 Z" fill="#000000" fill-rule="nonzero" fill-opacity="1" /><path clip-path="url(#clip250)" d="M155.823 480.405 L163.462 480.405 L163.462 454.04 L155.152 455.706 L155.152 451.447 L163.416 449.78 L168.092 449.78 L168.092 480.405 L175.73 480.405 L175.73 484.34 L155.823 484.34 L155.823 480.405 Z" fill="#000000" fill-rule="nonzero" fill-opacity="1" /><path clip-path="url(#clip250)" d="M195.175 452.859 Q191.564 452.859 189.735 456.424 Q187.929 459.966 187.929 467.095 Q187.929 474.202 189.735 477.766 Q191.564 481.308 195.175 481.308 Q198.809 481.308 200.615 477.766 Q202.443 474.202 202.443 467.095 Q202.443 459.966 200.615 456.424 Q198.809 452.859 195.175 452.859 M195.175 449.155 Q200.985 449.155 204.04 453.762 Q207.119 458.345 207.119 467.095 Q207.119 475.822 204.04 480.428 Q200.985 485.012 195.175 485.012 Q189.365 485.012 186.286 480.428 Q183.23 475.822 183.23 467.095 Q183.23 458.345 186.286 453.762 Q189.365 449.155 195.175 449.155 Z" fill="#000000" fill-rule="nonzero" fill-opacity="1" /><path clip-path="url(#clip250)" d="M207.665 453.733 L213.871 453.733 L213.871 432.311 L207.119 433.665 L207.119 430.204 L213.833 428.85 L217.633 428.85 L217.633 453.733 L223.839 453.733 L223.839 456.93 L207.665 456.93 L207.665 453.733 Z" fill="#000000" fill-rule="nonzero" fill-opacity="1" /><path clip-path="url(#clip250)" d="M83.4268 893.402 L70.6636 893.402 L70.6636 903.906 L65.38 903.906 L65.38 887.037 L85.7821 887.037 Q88.4239 890.76 89.7925 895.248 Q91.1293 899.736 91.1293 904.829 Q91.1293 915.969 84.6363 922.271 Q78.1114 928.541 66.494 928.541 Q54.8448 928.541 48.3518 922.271 Q41.8269 915.969 41.8269 904.829 Q41.8269 900.182 42.9727 896.012 Q44.1186 891.811 46.3466 888.278 L53.1897 888.278 Q50.166 891.843 48.6382 895.853 Q47.1104 899.863 47.1104 904.288 Q47.1104 913.009 51.9802 917.401 Q56.85 921.761 66.494 921.761 Q76.1062 921.761 80.976 917.401 Q85.8458 913.009 85.8458 904.288 Q85.8458 900.882 85.2729 898.208 Q84.6681 895.535 83.4268 893.402 Z" fill="#000000" fill-rule="nonzero" fill-opacity="1" /><path clip-path="url(#clip250)" d="M70.9182 845.055 L73.7828 845.055 L73.7828 871.982 Q79.8302 871.6 83.013 868.353 Q86.1641 865.075 86.1641 859.25 Q86.1641 855.876 85.3365 852.725 Q84.509 849.543 82.8539 846.423 L88.3921 846.423 Q89.7289 849.574 90.4291 852.885 Q91.1293 856.195 91.1293 859.6 Q91.1293 868.13 86.1641 873.127 Q81.1988 878.093 72.7324 878.093 Q63.9796 878.093 58.8552 873.382 Q53.699 868.64 53.699 860.619 Q53.699 853.426 58.3459 849.256 Q62.9611 845.055 70.9182 845.055 M69.1995 850.911 Q64.3933 850.975 61.5288 853.617 Q58.6642 856.227 58.6642 860.555 Q58.6642 865.457 61.4333 868.417 Q64.2024 871.345 69.2313 871.791 L69.1995 850.911 Z" fill="#000000" fill-rule="nonzero" fill-opacity="1" /><path clip-path="url(#clip250)" d="M68.6902 805.81 L90.2063 805.81 L90.2063 811.667 L68.8812 811.667 Q63.8204 811.667 61.306 813.64 Q58.7915 815.613 58.7915 819.56 Q58.7915 824.303 61.8152 827.04 Q64.8389 829.777 70.0588 829.777 L90.2063 829.777 L90.2063 835.665 L54.5583 835.665 L54.5583 829.777 L60.0965 829.777 Q56.8818 827.676 55.2904 824.844 Q53.699 821.979 53.699 818.255 Q53.699 812.112 57.5184 808.961 Q61.306 805.81 68.6902 805.81 Z" fill="#000000" fill-rule="nonzero" fill-opacity="1" /><path clip-path="url(#clip250)" d="M58.6642 780.315 Q58.6642 785.026 62.3563 787.763 Q66.0166 790.501 72.4141 790.501 Q78.8117 790.501 82.5038 787.795 Q86.1641 785.058 86.1641 780.315 Q86.1641 775.637 82.4719 772.899 Q78.7798 770.162 72.4141 770.162 Q66.0803 770.162 62.3881 772.899 Q58.6642 775.637 58.6642 780.315 M53.699 780.315 Q53.699 772.677 58.6642 768.316 Q63.6295 763.956 72.4141 763.956 Q81.167 763.956 86.1641 768.316 Q91.1293 772.677 91.1293 780.315 Q91.1293 787.986 86.1641 792.347 Q81.167 796.675 72.4141 796.675 Q63.6295 796.675 58.6642 792.347 Q53.699 787.986 53.699 780.315 Z" fill="#000000" fill-rule="nonzero" fill-opacity="1" /><path clip-path="url(#clip250)" d="M61.4015 726.493 Q57.4547 724.297 55.5768 721.242 Q53.699 718.186 53.699 714.048 Q53.699 708.478 57.6139 705.455 Q61.4969 702.431 68.6902 702.431 L90.2063 702.431 L90.2063 708.319 L68.8812 708.319 Q63.7568 708.319 61.2741 710.134 Q58.7915 711.948 58.7915 715.672 Q58.7915 720.223 61.8152 722.865 Q64.8389 725.507 70.0588 725.507 L90.2063 725.507 L90.2063 731.395 L68.8812 731.395 Q63.7249 731.395 61.2741 733.209 Q58.7915 735.023 58.7915 738.811 Q58.7915 743.299 61.8471 745.941 Q64.8708 748.582 70.0588 748.582 L90.2063 748.582 L90.2063 754.471 L54.5583 754.471 L54.5583 748.582 L60.0965 748.582 Q56.8182 746.577 55.2586 743.776 Q53.699 740.975 53.699 737.124 Q53.699 733.241 55.6723 730.536 Q57.6457 727.798 61.4015 726.493 Z" fill="#000000" fill-rule="nonzero" fill-opacity="1" /><path clip-path="url(#clip250)" d="M70.9182 660.258 L73.7828 660.258 L73.7828 687.185 Q79.8302 686.803 83.013 683.557 Q86.1641 680.278 86.1641 674.454 Q86.1641 671.08 85.3365 667.929 Q84.509 664.746 82.8539 661.627 L88.3921 661.627 Q89.7289 664.778 90.4291 668.088 Q91.1293 671.398 91.1293 674.804 Q91.1293 683.334 86.1641 688.331 Q81.1988 693.296 72.7324 693.296 Q63.9796 693.296 58.8552 688.586 Q53.699 683.843 53.699 675.822 Q53.699 668.629 58.3459 664.46 Q62.9611 660.258 70.9182 660.258 M69.1995 666.115 Q64.3933 666.178 61.5288 668.82 Q58.6642 671.43 58.6642 675.759 Q58.6642 680.66 61.4333 683.62 Q64.2024 686.549 69.2313 686.994 L69.1995 666.115 Z" fill="#000000" fill-rule="nonzero" fill-opacity="1" /><path clip-path="url(#clip250)" d="M55.6087 627.92 L61.1468 627.92 Q59.8737 630.403 59.2371 633.077 Q58.6006 635.75 58.6006 638.615 Q58.6006 642.975 59.9373 645.172 Q61.2741 647.336 63.9477 647.336 Q65.9848 647.336 67.1624 645.776 Q68.3083 644.217 69.3586 639.506 L69.8042 637.501 Q71.141 631.262 73.5918 628.653 Q76.0108 626.011 80.3713 626.011 Q85.3365 626.011 88.2329 629.957 Q91.1293 633.872 91.1293 640.747 Q91.1293 643.612 90.5564 646.731 Q90.0153 649.818 88.9013 653.256 L82.8539 653.256 Q84.5408 650.009 85.4002 646.858 Q86.2277 643.707 86.2277 640.62 Q86.2277 636.482 84.8273 634.254 Q83.395 632.026 80.8169 632.026 Q78.4297 632.026 77.1566 633.65 Q75.8834 635.241 74.7058 640.684 L74.2284 642.721 Q73.0825 648.163 70.7272 650.582 Q68.3401 653.001 64.2024 653.001 Q59.1735 653.001 56.4362 649.437 Q53.699 645.872 53.699 639.315 Q53.699 636.069 54.1764 633.204 Q54.6538 630.339 55.6087 627.92 Z" fill="#000000" fill-rule="nonzero" fill-opacity="1" /><path clip-path="url(#clip250)" d="M42.6863 606.277 L42.6863 600.866 L96.2537 617.417 L96.2537 622.828 L42.6863 606.277 Z" fill="#000000" fill-rule="nonzero" fill-opacity="1" /><path clip-path="url(#clip250)" d="M47.9698 588.039 L84.9227 588.039 L84.9227 580.273 Q84.9227 570.438 80.4668 565.887 Q76.0108 561.303 66.3985 561.303 Q56.85 561.303 52.4258 565.887 Q47.9698 570.438 47.9698 580.273 L47.9698 588.039 M42.6863 594.469 L42.6863 581.26 Q42.6863 567.446 48.4472 560.985 Q54.1764 554.524 66.3985 554.524 Q78.6844 554.524 84.4453 561.017 Q90.2063 567.51 90.2063 581.26 L90.2063 594.469 L42.6863 594.469 Z" fill="#000000" fill-rule="nonzero" fill-opacity="1" /><path clip-path="url(#clip250)" d="M72.2868 528.329 Q72.2868 535.427 73.9101 538.164 Q75.5333 540.901 79.4482 540.901 Q82.5674 540.901 84.4135 538.864 Q86.2277 536.795 86.2277 533.262 Q86.2277 528.393 82.7902 525.464 Q79.3209 522.504 73.5918 522.504 L72.2868 522.504 L72.2868 528.329 M69.8679 516.648 L90.2063 516.648 L90.2063 522.504 L84.7954 522.504 Q88.0419 524.51 89.6015 527.501 Q91.1293 530.493 91.1293 534.822 Q91.1293 540.297 88.0738 543.543 Q84.9864 546.758 79.8302 546.758 Q73.8146 546.758 70.759 542.747 Q67.7035 538.705 67.7035 530.716 L67.7035 522.504 L67.1306 522.504 Q63.0884 522.504 60.8922 525.178 Q58.6642 527.82 58.6642 532.626 Q58.6642 535.681 59.3963 538.578 Q60.1283 541.474 61.5924 544.148 L56.1816 544.148 Q54.9403 540.933 54.3355 537.909 Q53.699 534.886 53.699 532.021 Q53.699 524.287 57.7094 520.467 Q61.7197 516.648 69.8679 516.648 Z" fill="#000000" fill-rule="nonzero" fill-opacity="1" /><path clip-path="url(#clip250)" d="M93.5165 489.753 Q99.8822 492.235 101.824 494.591 Q103.765 496.946 103.765 500.893 L103.765 505.572 L98.8636 505.572 L98.8636 502.134 Q98.8636 499.715 97.7178 498.378 Q96.572 497.042 92.307 495.418 L89.6334 494.368 L54.5583 508.786 L54.5583 502.58 L82.4401 491.44 L54.5583 480.3 L54.5583 474.093 L93.5165 489.753 Z" fill="#000000" fill-rule="nonzero" fill-opacity="1" /><path clip-path="url(#clip250)" d="M40.7447 431.22 Q48.0653 435.485 55.2267 437.554 Q62.3881 439.623 69.7405 439.623 Q77.0929 439.623 84.318 437.554 Q91.5113 435.453 98.8 431.22 L98.8 436.313 Q91.3203 441.087 84.0952 443.474 Q76.8701 445.829 69.7405 445.829 Q62.6428 445.829 55.4495 443.474 Q48.2563 441.119 40.7447 436.313 L40.7447 431.22 Z" fill="#000000" fill-rule="nonzero" fill-opacity="1" /><path clip-path="url(#clip250)" d="M67.5125 413.173 L84.9227 413.173 L84.9227 402.861 Q84.9227 397.673 82.7902 395.19 Q80.6259 392.676 76.2017 392.676 Q71.7457 392.676 69.6451 395.19 Q67.5125 397.673 67.5125 402.861 L67.5125 413.173 M47.9698 413.173 L62.2927 413.173 L62.2927 403.657 Q62.2927 398.946 60.5421 396.654 Q58.7597 394.331 55.1312 394.331 Q51.5346 394.331 49.7522 396.654 Q47.9698 398.946 47.9698 403.657 L47.9698 413.173 M42.6863 419.603 L42.6863 403.179 Q42.6863 395.827 45.7418 391.848 Q48.7974 387.87 54.431 387.87 Q58.7915 387.87 61.3696 389.907 Q63.9477 391.944 64.5843 395.89 Q65.6028 391.148 68.8493 388.538 Q72.064 385.896 76.902 385.896 Q83.2677 385.896 86.737 390.225 Q90.2063 394.554 90.2063 402.543 L90.2063 419.603 L42.6863 419.603 Z" fill="#000000" fill-rule="nonzero" fill-opacity="1" /><path clip-path="url(#clip250)" d="M60.0328 354.482 Q59.4599 355.468 59.2053 356.646 Q58.9188 357.792 58.9188 359.192 Q58.9188 364.157 62.1653 366.831 Q65.38 369.473 71.4274 369.473 L90.2063 369.473 L90.2063 375.361 L54.5583 375.361 L54.5583 369.473 L60.0965 369.473 Q56.85 367.627 55.2904 364.667 Q53.699 361.707 53.699 357.473 Q53.699 356.869 53.7944 356.137 Q53.8581 355.405 54.0172 354.513 L60.0328 354.482 Z" fill="#000000" fill-rule="nonzero" fill-opacity="1" /><path clip-path="url(#clip250)" d="M72.2868 332.138 Q72.2868 339.236 73.9101 341.973 Q75.5333 344.71 79.4482 344.71 Q82.5674 344.71 84.4135 342.673 Q86.2277 340.604 86.2277 337.071 Q86.2277 332.202 82.7902 329.273 Q79.3209 326.313 73.5918 326.313 L72.2868 326.313 L72.2868 332.138 M69.8679 320.457 L90.2063 320.457 L90.2063 326.313 L84.7954 326.313 Q88.0419 328.318 89.6015 331.31 Q91.1293 334.302 91.1293 338.631 Q91.1293 344.105 88.0738 347.352 Q84.9864 350.567 79.8302 350.567 Q73.8146 350.567 70.759 346.556 Q67.7035 342.514 67.7035 334.525 L67.7035 326.313 L67.1306 326.313 Q63.0884 326.313 60.8922 328.987 Q58.6642 331.629 58.6642 336.435 Q58.6642 339.49 59.3963 342.387 Q60.1283 345.283 61.5924 347.957 L56.1816 347.957 Q54.9403 344.742 54.3355 341.718 Q53.699 338.695 53.699 335.83 Q53.699 328.096 57.7094 324.276 Q61.7197 320.457 69.8679 320.457 Z" fill="#000000" fill-rule="nonzero" fill-opacity="1" /><path clip-path="url(#clip250)" d="M54.5583 310.94 L54.5583 283.122 L59.9055 283.122 L85.5275 305.147 L85.5275 283.122 L90.2063 283.122 L90.2063 311.736 L84.8591 311.736 L59.2371 289.71 L59.2371 310.94 L54.5583 310.94 Z" fill="#000000" fill-rule="nonzero" fill-opacity="1" /><path clip-path="url(#clip250)" d="M54.5583 274.178 L54.5583 268.322 L90.2063 268.322 L90.2063 274.178 L54.5583 274.178 M40.6811 274.178 L40.6811 268.322 L48.0971 268.322 L48.0971 274.178 L40.6811 274.178 Z" fill="#000000" fill-rule="nonzero" fill-opacity="1" /><path clip-path="url(#clip250)" d="M40.6811 256.068 L40.6811 250.211 L90.2063 250.211 L90.2063 256.068 L40.6811 256.068 Z" fill="#000000" fill-rule="nonzero" fill-opacity="1" /><path clip-path="url(#clip250)" d="M40.7447 238.88 L40.7447 233.788 Q48.2563 229.013 55.4495 226.658 Q62.6428 224.271 69.7405 224.271 Q76.8701 224.271 84.0952 226.658 Q91.3203 229.013 98.8 233.788 L98.8 238.88 Q91.5113 234.647 84.318 232.578 Q77.0929 230.478 69.7405 230.478 Q62.3881 230.478 55.2267 232.578 Q48.0653 234.647 40.7447 238.88 Z" fill="#000000" fill-rule="nonzero" fill-opacity="1" /><path clip-path="url(#clip252)" d="M288.747 414.532 L288.747 1042.58 L311.29 1042.58 L311.29 414.532 L288.747 414.532 L288.747 414.532  Z" fill="#009af9" fill-rule="evenodd" fill-opacity="0.5"/>
<polyline clip-path="url(#clip252)" style="stroke:#000000; stroke-linecap:round; stroke-linejoin:round; stroke-width:4; stroke-opacity:0.5; fill:none" points="288.747,414.532 288.747,1042.58 311.29,1042.58 311.29,414.532 288.747,414.532 "/>
<path clip-path="url(#clip252)" d="M316.926 394.302 L316.926 1042.58 L339.469 1042.58 L339.469 394.302 L316.926 394.302 L316.926 394.302  Z" fill="#009af9" fill-rule="evenodd" fill-opacity="0.5"/>
<polyline clip-path="url(#clip252)" style="stroke:#000000; stroke-linecap:round; stroke-linejoin:round; stroke-width:4; stroke-opacity:0.5; fill:none" points="316.926,394.302 316.926,1042.58 339.469,1042.58 339.469,394.302 316.926,394.302 "/>
<path clip-path="url(#clip252)" d="M345.105 867.387 L345.105 1042.58 L367.649 1042.58 L367.649 867.387 L345.105 867.387 L345.105 867.387  Z" fill="#009af9" fill-rule="evenodd" fill-opacity="0.5"/>
<polyline clip-path="url(#clip252)" style="stroke:#000000; stroke-linecap:round; stroke-linejoin:round; stroke-width:4; stroke-opacity:0.5; fill:none" points="345.105,867.387 345.105,1042.58 367.649,1042.58 367.649,867.387 345.105,867.387 "/>
<path clip-path="url(#clip252)" d="M373.285 692.199 L373.285 1042.58 L395.828 1042.58 L395.828 692.199 L373.285 692.199 L373.285 692.199  Z" fill="#009af9" fill-rule="evenodd" fill-opacity="0.5"/>
<polyline clip-path="url(#clip252)" style="stroke:#000000; stroke-linecap:round; stroke-linejoin:round; stroke-width:4; stroke-opacity:0.5; fill:none" points="373.285,692.199 373.285,1042.58 395.828,1042.58 395.828,692.199 373.285,692.199 "/>
<path clip-path="url(#clip252)" d="M401.464 867.387 L401.464 1042.58 L424.007 1042.58 L424.007 867.387 L401.464 867.387 L401.464 867.387  Z" fill="#009af9" fill-rule="evenodd" fill-opacity="0.5"/>
<polyline clip-path="url(#clip252)" style="stroke:#000000; stroke-linecap:round; stroke-linejoin:round; stroke-width:4; stroke-opacity:0.5; fill:none" points="401.464,867.387 401.464,1042.58 424.007,1042.58 424.007,867.387 401.464,867.387 "/>
<path clip-path="url(#clip252)" d="M429.643 550.76 L429.643 1042.58 L452.186 1042.58 L452.186 550.76 L429.643 550.76 L429.643 550.76  Z" fill="#009af9" fill-rule="evenodd" fill-opacity="0.5"/>
<polyline clip-path="url(#clip252)" style="stroke:#000000; stroke-linecap:round; stroke-linejoin:round; stroke-width:4; stroke-opacity:0.5; fill:none" points="429.643,550.76 429.643,1042.58 452.186,1042.58 452.186,550.76 429.643,550.76 "/>
<path clip-path="url(#clip252)" d="M457.822 550.76 L457.822 1042.58 L480.366 1042.58 L480.366 550.76 L457.822 550.76 L457.822 550.76  Z" fill="#009af9" fill-rule="evenodd" fill-opacity="0.5"/>
<polyline clip-path="url(#clip252)" style="stroke:#000000; stroke-linecap:round; stroke-linejoin:round; stroke-width:4; stroke-opacity:0.5; fill:none" points="457.822,550.76 457.822,1042.58 480.366,1042.58 480.366,550.76 457.822,550.76 "/>
<path clip-path="url(#clip252)" d="M486.001 460.613 L486.001 1042.58 L508.545 1042.58 L508.545 460.613 L486.001 460.613 L486.001 460.613  Z" fill="#009af9" fill-rule="evenodd" fill-opacity="0.5"/>
<polyline clip-path="url(#clip252)" style="stroke:#000000; stroke-linecap:round; stroke-linejoin:round; stroke-width:4; stroke-opacity:0.5; fill:none" points="486.001,460.613 486.001,1042.58 508.545,1042.58 508.545,460.613 486.001,460.613 "/>
<path clip-path="url(#clip252)" d="M514.181 692.199 L514.181 1042.58 L536.724 1042.58 L536.724 692.199 L514.181 692.199 L514.181 692.199  Z" fill="#009af9" fill-rule="evenodd" fill-opacity="0.5"/>
<polyline clip-path="url(#clip252)" style="stroke:#000000; stroke-linecap:round; stroke-linejoin:round; stroke-width:4; stroke-opacity:0.5; fill:none" points="514.181,692.199 514.181,1042.58 536.724,1042.58 536.724,692.199 514.181,692.199 "/>
<path clip-path="url(#clip252)" d="M542.36 692.199 L542.36 1042.58 L564.903 1042.58 L564.903 692.199 L542.36 692.199 L542.36 692.199  Z" fill="#009af9" fill-rule="evenodd" fill-opacity="0.5"/>
<polyline clip-path="url(#clip252)" style="stroke:#000000; stroke-linecap:round; stroke-linejoin:round; stroke-width:4; stroke-opacity:0.5; fill:none" points="542.36,692.199 542.36,1042.58 564.903,1042.58 564.903,692.199 542.36,692.199 "/>
<path clip-path="url(#clip252)" d="M570.539 764.909 L570.539 1042.58 L593.083 1042.58 L593.083 764.909 L570.539 764.909 L570.539 764.909  Z" fill="#009af9" fill-rule="evenodd" fill-opacity="0.5"/>
<polyline clip-path="url(#clip252)" style="stroke:#000000; stroke-linecap:round; stroke-linejoin:round; stroke-width:4; stroke-opacity:0.5; fill:none" points="570.539,764.909 570.539,1042.58 593.083,1042.58 593.083,764.909 570.539,764.909 "/>
<path clip-path="url(#clip252)" d="M598.718 550.76 L598.718 1042.58 L621.262 1042.58 L621.262 550.76 L598.718 550.76 L598.718 550.76  Z" fill="#009af9" fill-rule="evenodd" fill-opacity="0.5"/>
<polyline clip-path="url(#clip252)" style="stroke:#000000; stroke-linecap:round; stroke-linejoin:round; stroke-width:4; stroke-opacity:0.5; fill:none" points="598.718,550.76 598.718,1042.58 621.262,1042.58 621.262,550.76 598.718,550.76 "/>
<path clip-path="url(#clip252)" d="M626.898 550.76 L626.898 1042.58 L649.441 1042.58 L649.441 550.76 L626.898 550.76 L626.898 550.76  Z" fill="#009af9" fill-rule="evenodd" fill-opacity="0.5"/>
<polyline clip-path="url(#clip252)" style="stroke:#000000; stroke-linecap:round; stroke-linejoin:round; stroke-width:4; stroke-opacity:0.5; fill:none" points="626.898,550.76 626.898,1042.58 649.441,1042.58 649.441,550.76 626.898,550.76 "/>
<path clip-path="url(#clip252)" d="M655.077 436.524 L655.077 1042.58 L677.62 1042.58 L677.62 436.524 L655.077 436.524 L655.077 436.524  Z" fill="#009af9" fill-rule="evenodd" fill-opacity="0.5"/>
<polyline clip-path="url(#clip252)" style="stroke:#000000; stroke-linecap:round; stroke-linejoin:round; stroke-width:4; stroke-opacity:0.5; fill:none" points="655.077,436.524 655.077,1042.58 677.62,1042.58 677.62,436.524 655.077,436.524 "/>
<path clip-path="url(#clip252)" d="M683.256 517.011 L683.256 1042.58 L705.8 1042.58 L705.8 517.011 L683.256 517.011 L683.256 517.011  Z" fill="#009af9" fill-rule="evenodd" fill-opacity="0.5"/>
<polyline clip-path="url(#clip252)" style="stroke:#000000; stroke-linecap:round; stroke-linejoin:round; stroke-width:4; stroke-opacity:0.5; fill:none" points="683.256,517.011 683.256,1042.58 705.8,1042.58 705.8,517.011 683.256,517.011 "/>
<path clip-path="url(#clip252)" d="M711.435 358.134 L711.435 1042.58 L733.979 1042.58 L733.979 358.134 L711.435 358.134 L711.435 358.134  Z" fill="#009af9" fill-rule="evenodd" fill-opacity="0.5"/>
<polyline clip-path="url(#clip252)" style="stroke:#000000; stroke-linecap:round; stroke-linejoin:round; stroke-width:4; stroke-opacity:0.5; fill:none" points="711.435,358.134 711.435,1042.58 733.979,1042.58 733.979,358.134 711.435,358.134 "/>
<path clip-path="url(#clip252)" d="M739.615 589.721 L739.615 1042.58 L762.158 1042.58 L762.158 589.721 L739.615 589.721 L739.615 589.721  Z" fill="#009af9" fill-rule="evenodd" fill-opacity="0.5"/>
<polyline clip-path="url(#clip252)" style="stroke:#000000; stroke-linecap:round; stroke-linejoin:round; stroke-width:4; stroke-opacity:0.5; fill:none" points="739.615,589.721 739.615,1042.58 762.158,1042.58 762.158,589.721 739.615,589.721 "/>
<path clip-path="url(#clip252)" d="M767.794 764.909 L767.794 1042.58 L790.337 1042.58 L790.337 764.909 L767.794 764.909 L767.794 764.909  Z" fill="#009af9" fill-rule="evenodd" fill-opacity="0.5"/>
<polyline clip-path="url(#clip252)" style="stroke:#000000; stroke-linecap:round; stroke-linejoin:round; stroke-width:4; stroke-opacity:0.5; fill:none" points="767.794,764.909 767.794,1042.58 790.337,1042.58 790.337,764.909 767.794,764.909 "/>
<path clip-path="url(#clip252)" d="M795.973 867.387 L795.973 1042.58 L818.517 1042.58 L818.517 867.387 L795.973 867.387 L795.973 867.387  Z" fill="#009af9" fill-rule="evenodd" fill-opacity="0.5"/>
<polyline clip-path="url(#clip252)" style="stroke:#000000; stroke-linecap:round; stroke-linejoin:round; stroke-width:4; stroke-opacity:0.5; fill:none" points="795.973,867.387 795.973,1042.58 818.517,1042.58 818.517,867.387 795.973,867.387 "/>
<path clip-path="url(#clip252)" d="M824.152 436.524 L824.152 1042.58 L846.696 1042.58 L846.696 436.524 L824.152 436.524 L824.152 436.524  Z" fill="#009af9" fill-rule="evenodd" fill-opacity="0.5"/>
<polyline clip-path="url(#clip252)" style="stroke:#000000; stroke-linecap:round; stroke-linejoin:round; stroke-width:4; stroke-opacity:0.5; fill:none" points="824.152,436.524 824.152,1042.58 846.696,1042.58 846.696,436.524 824.152,436.524 "/>
<path clip-path="url(#clip252)" d="M852.332 358.134 L852.332 1042.58 L874.875 1042.58 L874.875 358.134 L852.332 358.134 L852.332 358.134  Z" fill="#009af9" fill-rule="evenodd" fill-opacity="0.5"/>
<polyline clip-path="url(#clip252)" style="stroke:#000000; stroke-linecap:round; stroke-linejoin:round; stroke-width:4; stroke-opacity:0.5; fill:none" points="852.332,358.134 852.332,1042.58 874.875,1042.58 874.875,358.134 852.332,358.134 "/>
<path clip-path="url(#clip252)" d="M880.511 692.199 L880.511 1042.58 L903.054 1042.58 L903.054 692.199 L880.511 692.199 L880.511 692.199  Z" fill="#009af9" fill-rule="evenodd" fill-opacity="0.5"/>
<polyline clip-path="url(#clip252)" style="stroke:#000000; stroke-linecap:round; stroke-linejoin:round; stroke-width:4; stroke-opacity:0.5; fill:none" points="880.511,692.199 880.511,1042.58 903.054,1042.58 903.054,692.199 880.511,692.199 "/>
<path clip-path="url(#clip252)" d="M908.69 635.801 L908.69 1042.58 L931.234 1042.58 L931.234 635.801 L908.69 635.801 L908.69 635.801  Z" fill="#009af9" fill-rule="evenodd" fill-opacity="0.5"/>
<polyline clip-path="url(#clip252)" style="stroke:#000000; stroke-linecap:round; stroke-linejoin:round; stroke-width:4; stroke-opacity:0.5; fill:none" points="908.69,635.801 908.69,1042.58 931.234,1042.58 931.234,635.801 908.69,635.801 "/>
<path clip-path="url(#clip252)" d="M936.869 1042.58 L936.869 1042.58 L959.413 1042.58 L959.413 1042.58 L936.869 1042.58 L936.869 1042.58  Z" fill="#009af9" fill-rule="evenodd" fill-opacity="0.5"/>
<polyline clip-path="url(#clip252)" style="stroke:#000000; stroke-linecap:round; stroke-linejoin:round; stroke-width:4; stroke-opacity:0.5; fill:none" points="936.869,1042.58 936.869,1042.58 959.413,1042.58 936.869,1042.58 "/>
<path clip-path="url(#clip252)" d="M965.049 1042.58 L965.049 1042.58 L987.592 1042.58 L987.592 1042.58 L965.049 1042.58 L965.049 1042.58  Z" fill="#009af9" fill-rule="evenodd" fill-opacity="0.5"/>
<polyline clip-path="url(#clip252)" style="stroke:#000000; stroke-linecap:round; stroke-linejoin:round; stroke-width:4; stroke-opacity:0.5; fill:none" points="965.049,1042.58 965.049,1042.58 987.592,1042.58 965.049,1042.58 "/>
<path clip-path="url(#clip252)" d="M993.228 589.721 L993.228 1042.58 L1015.77 1042.58 L1015.77 589.721 L993.228 589.721 L993.228 589.721  Z" fill="#009af9" fill-rule="evenodd" fill-opacity="0.5"/>
<polyline clip-path="url(#clip252)" style="stroke:#000000; stroke-linecap:round; stroke-linejoin:round; stroke-width:4; stroke-opacity:0.5; fill:none" points="993.228,589.721 993.228,1042.58 1015.77,1042.58 1015.77,589.721 993.228,589.721 "/>
<path clip-path="url(#clip252)" d="M1021.41 589.721 L1021.41 1042.58 L1043.95 1042.58 L1043.95 589.721 L1021.41 589.721 L1021.41 589.721  Z" fill="#009af9" fill-rule="evenodd" fill-opacity="0.5"/>
<polyline clip-path="url(#clip252)" style="stroke:#000000; stroke-linecap:round; stroke-linejoin:round; stroke-width:4; stroke-opacity:0.5; fill:none" points="1021.41,589.721 1021.41,1042.58 1043.95,1042.58 1043.95,589.721 1021.41,589.721 "/>
<path clip-path="url(#clip252)" d="M1049.59 589.721 L1049.59 1042.58 L1072.13 1042.58 L1072.13 589.721 L1049.59 589.721 L1049.59 589.721  Z" fill="#009af9" fill-rule="evenodd" fill-opacity="0.5"/>
<polyline clip-path="url(#clip252)" style="stroke:#000000; stroke-linecap:round; stroke-linejoin:round; stroke-width:4; stroke-opacity:0.5; fill:none" points="1049.59,589.721 1049.59,1042.58 1072.13,1042.58 1072.13,589.721 1049.59,589.721 "/>
<path clip-path="url(#clip252)" d="M1077.77 635.801 L1077.77 1042.58 L1100.31 1042.58 L1100.31 635.801 L1077.77 635.801 L1077.77 635.801  Z" fill="#009af9" fill-rule="evenodd" fill-opacity="0.5"/>
<polyline clip-path="url(#clip252)" style="stroke:#000000; stroke-linecap:round; stroke-linejoin:round; stroke-width:4; stroke-opacity:0.5; fill:none" points="1077.77,635.801 1077.77,1042.58 1100.31,1042.58 1100.31,635.801 1077.77,635.801 "/>
<path clip-path="url(#clip252)" d="M1105.94 635.801 L1105.94 1042.58 L1128.49 1042.58 L1128.49 635.801 L1105.94 635.801 L1105.94 635.801  Z" fill="#009af9" fill-rule="evenodd" fill-opacity="0.5"/>
<polyline clip-path="url(#clip252)" style="stroke:#000000; stroke-linecap:round; stroke-linejoin:round; stroke-width:4; stroke-opacity:0.5; fill:none" points="1105.94,635.801 1105.94,1042.58 1128.49,1042.58 1128.49,635.801 1105.94,635.801 "/>
<path clip-path="url(#clip252)" d="M1134.12 517.011 L1134.12 1042.58 L1156.67 1042.58 L1156.67 517.011 L1134.12 517.011 L1134.12 517.011  Z" fill="#009af9" fill-rule="evenodd" fill-opacity="0.5"/>
<polyline clip-path="url(#clip252)" style="stroke:#000000; stroke-linecap:round; stroke-linejoin:round; stroke-width:4; stroke-opacity:0.5; fill:none" points="1134.12,517.011 1134.12,1042.58 1156.67,1042.58 1156.67,517.011 1134.12,517.011 "/>
<path clip-path="url(#clip252)" d="M1162.3 1042.58 L1162.3 1042.58 L1184.85 1042.58 L1184.85 1042.58 L1162.3 1042.58 L1162.3 1042.58  Z" fill="#009af9" fill-rule="evenodd" fill-opacity="0.5"/>
<polyline clip-path="url(#clip252)" style="stroke:#000000; stroke-linecap:round; stroke-linejoin:round; stroke-width:4; stroke-opacity:0.5; fill:none" points="1162.3,1042.58 1162.3,1042.58 1184.85,1042.58 1162.3,1042.58 "/>
<path clip-path="url(#clip252)" d="M1218.66 635.801 L1218.66 1042.58 L1241.21 1042.58 L1241.21 635.801 L1218.66 635.801 L1218.66 635.801  Z" fill="#009af9" fill-rule="evenodd" fill-opacity="0.5"/>
<polyline clip-path="url(#clip252)" style="stroke:#000000; stroke-linecap:round; stroke-linejoin:round; stroke-width:4; stroke-opacity:0.5; fill:none" points="1218.66,635.801 1218.66,1042.58 1241.21,1042.58 1241.21,635.801 1218.66,635.801 "/>
<path clip-path="url(#clip252)" d="M1246.84 487.242 L1246.84 1042.58 L1269.38 1042.58 L1269.38 487.242 L1246.84 487.242 L1246.84 487.242  Z" fill="#009af9" fill-rule="evenodd" fill-opacity="0.5"/>
<polyline clip-path="url(#clip252)" style="stroke:#000000; stroke-linecap:round; stroke-linejoin:round; stroke-width:4; stroke-opacity:0.5; fill:none" points="1246.84,487.242 1246.84,1042.58 1269.38,1042.58 1269.38,487.242 1246.84,487.242 "/>
<path clip-path="url(#clip252)" d="M1275.02 550.76 L1275.02 1042.58 L1297.56 1042.58 L1297.56 550.76 L1275.02 550.76 L1275.02 550.76  Z" fill="#009af9" fill-rule="evenodd" fill-opacity="0.5"/>
<polyline clip-path="url(#clip252)" style="stroke:#000000; stroke-linecap:round; stroke-linejoin:round; stroke-width:4; stroke-opacity:0.5; fill:none" points="1275.02,550.76 1275.02,1042.58 1297.56,1042.58 1297.56,550.76 1275.02,550.76 "/>
<path clip-path="url(#clip252)" d="M1303.2 487.242 L1303.2 1042.58 L1325.74 1042.58 L1325.74 487.242 L1303.2 487.242 L1303.2 487.242  Z" fill="#009af9" fill-rule="evenodd" fill-opacity="0.5"/>
<polyline clip-path="url(#clip252)" style="stroke:#000000; stroke-linecap:round; stroke-linejoin:round; stroke-width:4; stroke-opacity:0.5; fill:none" points="1303.2,487.242 1303.2,1042.58 1325.74,1042.58 1325.74,487.242 1303.2,487.242 "/>
<path clip-path="url(#clip252)" d="M1331.38 764.909 L1331.38 1042.58 L1353.92 1042.58 L1353.92 764.909 L1331.38 764.909 L1331.38 764.909  Z" fill="#009af9" fill-rule="evenodd" fill-opacity="0.5"/>
<polyline clip-path="url(#clip252)" style="stroke:#000000; stroke-linecap:round; stroke-linejoin:round; stroke-width:4; stroke-opacity:0.5; fill:none" points="1331.38,764.909 1331.38,1042.58 1353.92,1042.58 1353.92,764.909 1331.38,764.909 "/>
<path clip-path="url(#clip252)" d="M1359.56 764.909 L1359.56 1042.58 L1382.1 1042.58 L1382.1 764.909 L1359.56 764.909 L1359.56 764.909  Z" fill="#009af9" fill-rule="evenodd" fill-opacity="0.5"/>
<polyline clip-path="url(#clip252)" style="stroke:#000000; stroke-linecap:round; stroke-linejoin:round; stroke-width:4; stroke-opacity:0.5; fill:none" points="1359.56,764.909 1359.56,1042.58 1382.1,1042.58 1382.1,764.909 1359.56,764.909 "/>
<path clip-path="url(#clip252)" d="M1387.74 1042.58 L1387.74 1042.58 L1410.28 1042.58 L1410.28 1042.58 L1387.74 1042.58 L1387.74 1042.58  Z" fill="#009af9" fill-rule="evenodd" fill-opacity="0.5"/>
<polyline clip-path="url(#clip252)" style="stroke:#000000; stroke-linecap:round; stroke-linejoin:round; stroke-width:4; stroke-opacity:0.5; fill:none" points="1387.74,1042.58 1387.74,1042.58 1410.28,1042.58 1387.74,1042.58 "/>
<path clip-path="url(#clip252)" d="M1415.92 517.011 L1415.92 1042.58 L1438.46 1042.58 L1438.46 517.011 L1415.92 517.011 L1415.92 517.011  Z" fill="#009af9" fill-rule="evenodd" fill-opacity="0.5"/>
<polyline clip-path="url(#clip252)" style="stroke:#000000; stroke-linecap:round; stroke-linejoin:round; stroke-width:4; stroke-opacity:0.5; fill:none" points="1415.92,517.011 1415.92,1042.58 1438.46,1042.58 1438.46,517.011 1415.92,517.011 "/>
<path clip-path="url(#clip252)" d="M1444.1 764.909 L1444.1 1042.58 L1466.64 1042.58 L1466.64 764.909 L1444.1 764.909 L1444.1 764.909  Z" fill="#009af9" fill-rule="evenodd" fill-opacity="0.5"/>
<polyline clip-path="url(#clip252)" style="stroke:#000000; stroke-linecap:round; stroke-linejoin:round; stroke-width:4; stroke-opacity:0.5; fill:none" points="1444.1,764.909 1444.1,1042.58 1466.64,1042.58 1466.64,764.909 1444.1,764.909 "/>
<path clip-path="url(#clip252)" d="M1472.28 764.909 L1472.28 1042.58 L1494.82 1042.58 L1494.82 764.909 L1472.28 764.909 L1472.28 764.909  Z" fill="#009af9" fill-rule="evenodd" fill-opacity="0.5"/>
<polyline clip-path="url(#clip252)" style="stroke:#000000; stroke-linecap:round; stroke-linejoin:round; stroke-width:4; stroke-opacity:0.5; fill:none" points="1472.28,764.909 1472.28,1042.58 1494.82,1042.58 1494.82,764.909 1472.28,764.909 "/>
<path clip-path="url(#clip252)" d="M1500.45 589.721 L1500.45 1042.58 L1523 1042.58 L1523 589.721 L1500.45 589.721 L1500.45 589.721  Z" fill="#009af9" fill-rule="evenodd" fill-opacity="0.5"/>
<polyline clip-path="url(#clip252)" style="stroke:#000000; stroke-linecap:round; stroke-linejoin:round; stroke-width:4; stroke-opacity:0.5; fill:none" points="1500.45,589.721 1500.45,1042.58 1523,1042.58 1523,589.721 1500.45,589.721 "/>
<path clip-path="url(#clip252)" d="M1528.63 550.76 L1528.63 1042.58 L1551.18 1042.58 L1551.18 550.76 L1528.63 550.76 L1528.63 550.76  Z" fill="#009af9" fill-rule="evenodd" fill-opacity="0.5"/>
<polyline clip-path="url(#clip252)" style="stroke:#000000; stroke-linecap:round; stroke-linejoin:round; stroke-width:4; stroke-opacity:0.5; fill:none" points="1528.63,550.76 1528.63,1042.58 1551.18,1042.58 1551.18,550.76 1528.63,550.76 "/>
<path clip-path="url(#clip252)" d="M1556.81 867.387 L1556.81 1042.58 L1579.36 1042.58 L1579.36 867.387 L1556.81 867.387 L1556.81 867.387  Z" fill="#009af9" fill-rule="evenodd" fill-opacity="0.5"/>
<polyline clip-path="url(#clip252)" style="stroke:#000000; stroke-linecap:round; stroke-linejoin:round; stroke-width:4; stroke-opacity:0.5; fill:none" points="1556.81,867.387 1556.81,1042.58 1579.36,1042.58 1579.36,867.387 1556.81,867.387 "/>
<path clip-path="url(#clip252)" d="M1584.99 764.909 L1584.99 1042.58 L1607.54 1042.58 L1607.54 764.909 L1584.99 764.909 L1584.99 764.909  Z" fill="#009af9" fill-rule="evenodd" fill-opacity="0.5"/>
<polyline clip-path="url(#clip252)" style="stroke:#000000; stroke-linecap:round; stroke-linejoin:round; stroke-width:4; stroke-opacity:0.5; fill:none" points="1584.99,764.909 1584.99,1042.58 1607.54,1042.58 1607.54,764.909 1584.99,764.909 "/>
<path clip-path="url(#clip252)" d="M1613.17 635.801 L1613.17 1042.58 L1635.71 1042.58 L1635.71 635.801 L1613.17 635.801 L1613.17 635.801  Z" fill="#009af9" fill-rule="evenodd" fill-opacity="0.5"/>
<polyline clip-path="url(#clip252)" style="stroke:#000000; stroke-linecap:round; stroke-linejoin:round; stroke-width:4; stroke-opacity:0.5; fill:none" points="1613.17,635.801 1613.17,1042.58 1635.71,1042.58 1635.71,635.801 1613.17,635.801 "/>
<path clip-path="url(#clip252)" d="M1641.35 764.909 L1641.35 1042.58 L1663.89 1042.58 L1663.89 764.909 L1641.35 764.909 L1641.35 764.909  Z" fill="#009af9" fill-rule="evenodd" fill-opacity="0.5"/>
<polyline clip-path="url(#clip252)" style="stroke:#000000; stroke-linecap:round; stroke-linejoin:round; stroke-width:4; stroke-opacity:0.5; fill:none" points="1641.35,764.909 1641.35,1042.58 1663.89,1042.58 1663.89,764.909 1641.35,764.909 "/>
<path clip-path="url(#clip252)" d="M1669.53 550.76 L1669.53 1042.58 L1692.07 1042.58 L1692.07 550.76 L1669.53 550.76 L1669.53 550.76  Z" fill="#009af9" fill-rule="evenodd" fill-opacity="0.5"/>
<polyline clip-path="url(#clip252)" style="stroke:#000000; stroke-linecap:round; stroke-linejoin:round; stroke-width:4; stroke-opacity:0.5; fill:none" points="1669.53,550.76 1669.53,1042.58 1692.07,1042.58 1692.07,550.76 1669.53,550.76 "/>
<path clip-path="url(#clip252)" d="M1697.71 414.532 L1697.71 1042.58 L1720.25 1042.58 L1720.25 414.532 L1697.71 414.532 L1697.71 414.532  Z" fill="#009af9" fill-rule="evenodd" fill-opacity="0.5"/>
<polyline clip-path="url(#clip252)" style="stroke:#000000; stroke-linecap:round; stroke-linejoin:round; stroke-width:4; stroke-opacity:0.5; fill:none" points="1697.71,414.532 1697.71,1042.58 1720.25,1042.58 1720.25,414.532 1697.71,414.532 "/>
<path clip-path="url(#clip252)" d="M1725.89 517.011 L1725.89 1042.58 L1748.43 1042.58 L1748.43 517.011 L1725.89 517.011 L1725.89 517.011  Z" fill="#009af9" fill-rule="evenodd" fill-opacity="0.5"/>
<polyline clip-path="url(#clip252)" style="stroke:#000000; stroke-linecap:round; stroke-linejoin:round; stroke-width:4; stroke-opacity:0.5; fill:none" points="1725.89,517.011 1725.89,1042.58 1748.43,1042.58 1748.43,517.011 1725.89,517.011 "/>
<path clip-path="url(#clip252)" d="M1754.07 1042.58 L1754.07 1042.58 L1776.61 1042.58 L1776.61 1042.58 L1754.07 1042.58 L1754.07 1042.58  Z" fill="#009af9" fill-rule="evenodd" fill-opacity="0.5"/>
<polyline clip-path="url(#clip252)" style="stroke:#000000; stroke-linecap:round; stroke-linejoin:round; stroke-width:4; stroke-opacity:0.5; fill:none" points="1754.07,1042.58 1754.07,1042.58 1776.61,1042.58 1754.07,1042.58 "/>
<path clip-path="url(#clip252)" d="M1782.25 1042.58 L1782.25 1042.58 L1804.79 1042.58 L1804.79 1042.58 L1782.25 1042.58 L1782.25 1042.58  Z" fill="#009af9" fill-rule="evenodd" fill-opacity="0.5"/>
<polyline clip-path="url(#clip252)" style="stroke:#000000; stroke-linecap:round; stroke-linejoin:round; stroke-width:4; stroke-opacity:0.5; fill:none" points="1782.25,1042.58 1782.25,1042.58 1804.79,1042.58 1782.25,1042.58 "/>
<path clip-path="url(#clip252)" d="M1810.43 635.801 L1810.43 1042.58 L1832.97 1042.58 L1832.97 635.801 L1810.43 635.801 L1810.43 635.801  Z" fill="#009af9" fill-rule="evenodd" fill-opacity="0.5"/>
<polyline clip-path="url(#clip252)" style="stroke:#000000; stroke-linecap:round; stroke-linejoin:round; stroke-width:4; stroke-opacity:0.5; fill:none" points="1810.43,635.801 1810.43,1042.58 1832.97,1042.58 1832.97,635.801 1810.43,635.801 "/>
<path clip-path="url(#clip252)" d="M1838.61 517.011 L1838.61 1042.58 L1861.15 1042.58 L1861.15 517.011 L1838.61 517.011 L1838.61 517.011  Z" fill="#009af9" fill-rule="evenodd" fill-opacity="0.5"/>
<polyline clip-path="url(#clip252)" style="stroke:#000000; stroke-linecap:round; stroke-linejoin:round; stroke-width:4; stroke-opacity:0.5; fill:none" points="1838.61,517.011 1838.61,1042.58 1861.15,1042.58 1861.15,517.011 1838.61,517.011 "/>
<path clip-path="url(#clip252)" d="M1866.78 414.532 L1866.78 1042.58 L1889.33 1042.58 L1889.33 414.532 L1866.78 414.532 L1866.78 414.532  Z" fill="#009af9" fill-rule="evenodd" fill-opacity="0.5"/>
<polyline clip-path="url(#clip252)" style="stroke:#000000; stroke-linecap:round; stroke-linejoin:round; stroke-width:4; stroke-opacity:0.5; fill:none" points="1866.78,414.532 1866.78,1042.58 1889.33,1042.58 1889.33,414.532 1866.78,414.532 "/>
<path clip-path="url(#clip252)" d="M1894.96 589.721 L1894.96 1042.58 L1917.51 1042.58 L1917.51 589.721 L1894.96 589.721 L1894.96 589.721  Z" fill="#009af9" fill-rule="evenodd" fill-opacity="0.5"/>
<polyline clip-path="url(#clip252)" style="stroke:#000000; stroke-linecap:round; stroke-linejoin:round; stroke-width:4; stroke-opacity:0.5; fill:none" points="1894.96,589.721 1894.96,1042.58 1917.51,1042.58 1917.51,589.721 1894.96,589.721 "/>
<path clip-path="url(#clip252)" d="M1923.14 487.242 L1923.14 1042.58 L1945.69 1042.58 L1945.69 487.242 L1923.14 487.242 L1923.14 487.242  Z" fill="#009af9" fill-rule="evenodd" fill-opacity="0.5"/>
<polyline clip-path="url(#clip252)" style="stroke:#000000; stroke-linecap:round; stroke-linejoin:round; stroke-width:4; stroke-opacity:0.5; fill:none" points="1923.14,487.242 1923.14,1042.58 1945.69,1042.58 1945.69,487.242 1923.14,487.242 "/>
<path clip-path="url(#clip252)" d="M1979.5 635.801 L1979.5 1042.58 L2002.04 1042.58 L2002.04 635.801 L1979.5 635.801 L1979.5 635.801  Z" fill="#009af9" fill-rule="evenodd" fill-opacity="0.5"/>
<polyline clip-path="url(#clip252)" style="stroke:#000000; stroke-linecap:round; stroke-linejoin:round; stroke-width:4; stroke-opacity:0.5; fill:none" points="1979.5,635.801 1979.5,1042.58 2002.04,1042.58 2002.04,635.801 1979.5,635.801 "/>
<path clip-path="url(#clip252)" d="M2007.68 375.572 L2007.68 1042.58 L2030.22 1042.58 L2030.22 375.572 L2007.68 375.572 L2007.68 375.572  Z" fill="#009af9" fill-rule="evenodd" fill-opacity="0.5"/>
<polyline clip-path="url(#clip252)" style="stroke:#000000; stroke-linecap:round; stroke-linejoin:round; stroke-width:4; stroke-opacity:0.5; fill:none" points="2007.68,375.572 2007.68,1042.58 2030.22,1042.58 2030.22,375.572 2007.68,375.572 "/>
<path clip-path="url(#clip252)" d="M2035.86 326.5 L2035.86 1042.58 L2058.4 1042.58 L2058.4 326.5 L2035.86 326.5 L2035.86 326.5  Z" fill="#009af9" fill-rule="evenodd" fill-opacity="0.5"/>
<polyline clip-path="url(#clip252)" style="stroke:#000000; stroke-linecap:round; stroke-linejoin:round; stroke-width:4; stroke-opacity:0.5; fill:none" points="2035.86,326.5 2035.86,1042.58 2058.4,1042.58 2058.4,326.5 2035.86,326.5 "/>
<path clip-path="url(#clip252)" d="M2064.04 166.634 L2064.04 1042.58 L2086.58 1042.58 L2086.58 166.634 L2064.04 166.634 L2064.04 166.634  Z" fill="#009af9" fill-rule="evenodd" fill-opacity="0.5"/>
<polyline clip-path="url(#clip252)" style="stroke:#000000; stroke-linecap:round; stroke-linejoin:round; stroke-width:4; stroke-opacity:0.5; fill:none" points="2064.04,166.634 2064.04,1042.58 2086.58,1042.58 2086.58,166.634 2064.04,166.634 "/>
<path clip-path="url(#clip252)" d="M2092.22 166.634 L2092.22 1042.58 L2114.76 1042.58 L2114.76 166.634 L2092.22 166.634 L2092.22 166.634  Z" fill="#009af9" fill-rule="evenodd" fill-opacity="0.5"/>
<polyline clip-path="url(#clip252)" style="stroke:#000000; stroke-linecap:round; stroke-linejoin:round; stroke-width:4; stroke-opacity:0.5; fill:none" points="2092.22,166.634 2092.22,1042.58 2114.76,1042.58 2114.76,166.634 2092.22,166.634 "/>
<path clip-path="url(#clip252)" d="M2120.4 358.134 L2120.4 1042.58 L2142.94 1042.58 L2142.94 358.134 L2120.4 358.134 L2120.4 358.134  Z" fill="#009af9" fill-rule="evenodd" fill-opacity="0.5"/>
<polyline clip-path="url(#clip252)" style="stroke:#000000; stroke-linecap:round; stroke-linejoin:round; stroke-width:4; stroke-opacity:0.5; fill:none" points="2120.4,358.134 2120.4,1042.58 2142.94,1042.58 2142.94,358.134 2120.4,358.134 "/>
<path clip-path="url(#clip252)" d="M2148.58 1042.58 L2148.58 1042.58 L2171.12 1042.58 L2171.12 1042.58 L2148.58 1042.58 L2148.58 1042.58  Z" fill="#009af9" fill-rule="evenodd" fill-opacity="0.5"/>
<polyline clip-path="url(#clip252)" style="stroke:#000000; stroke-linecap:round; stroke-linejoin:round; stroke-width:4; stroke-opacity:0.5; fill:none" points="2148.58,1042.58 2148.58,1042.58 2171.12,1042.58 2148.58,1042.58 "/>
<path clip-path="url(#clip252)" d="M2176.76 692.199 L2176.76 1042.58 L2199.3 1042.58 L2199.3 692.199 L2176.76 692.199 L2176.76 692.199  Z" fill="#009af9" fill-rule="evenodd" fill-opacity="0.5"/>
<polyline clip-path="url(#clip252)" style="stroke:#000000; stroke-linecap:round; stroke-linejoin:round; stroke-width:4; stroke-opacity:0.5; fill:none" points="2176.76,692.199 2176.76,1042.58 2199.3,1042.58 2199.3,692.199 2176.76,692.199 "/>
<path clip-path="url(#clip252)" d="M2204.94 123.2 L2204.94 1042.58 L2227.48 1042.58 L2227.48 123.2 L2204.94 123.2 L2204.94 123.2  Z" fill="#009af9" fill-rule="evenodd" fill-opacity="0.5"/>
<polyline clip-path="url(#clip252)" style="stroke:#000000; stroke-linecap:round; stroke-linejoin:round; stroke-width:4; stroke-opacity:0.5; fill:none" points="2204.94,123.2 2204.94,1042.58 2227.48,1042.58 2227.48,123.2 2204.94,123.2 "/>
<path clip-path="url(#clip252)" d="M2233.11 110.236 L2233.11 1042.58 L2255.66 1042.58 L2255.66 110.236 L2233.11 110.236 L2233.11 110.236  Z" fill="#009af9" fill-rule="evenodd" fill-opacity="0.5"/>
<polyline clip-path="url(#clip252)" style="stroke:#000000; stroke-linecap:round; stroke-linejoin:round; stroke-width:4; stroke-opacity:0.5; fill:none" points="2233.11,110.236 2233.11,1042.58 2255.66,1042.58 2255.66,110.236 2233.11,110.236 "/>
<path clip-path="url(#clip252)" d="M2261.29 341.823 L2261.29 1042.58 L2283.84 1042.58 L2283.84 341.823 L2261.29 341.823 L2261.29 341.823  Z" fill="#009af9" fill-rule="evenodd" fill-opacity="0.5"/>
<polyline clip-path="url(#clip252)" style="stroke:#000000; stroke-linecap:round; stroke-linejoin:round; stroke-width:4; stroke-opacity:0.5; fill:none" points="2261.29,341.823 2261.29,1042.58 2283.84,1042.58 2283.84,341.823 2261.29,341.823 "/>
<path clip-path="url(#clip252)" d="M2289.47 298.389 L2289.47 1042.58 L2312.02 1042.58 L2312.02 298.389 L2289.47 298.389 L2289.47 298.389  Z" fill="#009af9" fill-rule="evenodd" fill-opacity="0.5"/>
<polyline clip-path="url(#clip252)" style="stroke:#000000; stroke-linecap:round; stroke-linejoin:round; stroke-width:4; stroke-opacity:0.5; fill:none" points="2289.47,298.389 2289.47,1042.58 2312.02,1042.58 2312.02,298.389 2289.47,298.389 "/>
<path clip-path="url(#clip252)" d="M2317.65 1042.58 L2317.65 1042.58 L2340.2 1042.58 L2340.2 1042.58 L2317.65 1042.58 L2317.65 1042.58  Z" fill="#009af9" fill-rule="evenodd" fill-opacity="0.5"/>
<polyline clip-path="url(#clip252)" style="stroke:#000000; stroke-linecap:round; stroke-linejoin:round; stroke-width:4; stroke-opacity:0.5; fill:none" points="2317.65,1042.58 2317.65,1042.58 2340.2,1042.58 2317.65,1042.58 "/>
<path clip-path="url(#clip252)" d="M2374.01 867.387 L2374.01 1042.58 L2396.55 1042.58 L2396.55 867.387 L2374.01 867.387 L2374.01 867.387  Z" fill="#009af9" fill-rule="evenodd" fill-opacity="0.5"/>
<polyline clip-path="url(#clip252)" style="stroke:#000000; stroke-linecap:round; stroke-linejoin:round; stroke-width:4; stroke-opacity:0.5; fill:none" points="2374.01,867.387 2374.01,1042.58 2396.55,1042.58 2396.55,867.387 2374.01,867.387 "/>
<path clip-path="url(#clip252)" d="M2402.19 867.387 L2402.19 1042.58 L2424.73 1042.58 L2424.73 867.387 L2402.19 867.387 L2402.19 867.387  Z" fill="#009af9" fill-rule="evenodd" fill-opacity="0.5"/>
<polyline clip-path="url(#clip252)" style="stroke:#000000; stroke-linecap:round; stroke-linejoin:round; stroke-width:4; stroke-opacity:0.5; fill:none" points="2402.19,867.387 2402.19,1042.58 2424.73,1042.58 2424.73,867.387 2402.19,867.387 "/>
<circle clip-path="url(#clip252)" style="fill:#009af9; stroke:none; fill-opacity:0" cx="300.018" cy="414.532" r="2"/>
<circle clip-path="url(#clip252)" style="fill:#009af9; stroke:none; fill-opacity:0" cx="328.198" cy="394.302" r="2"/>
<circle clip-path="url(#clip252)" style="fill:#009af9; stroke:none; fill-opacity:0" cx="356.377" cy="867.387" r="2"/>
<circle clip-path="url(#clip252)" style="fill:#009af9; stroke:none; fill-opacity:0" cx="384.556" cy="692.199" r="2"/>
<circle clip-path="url(#clip252)" style="fill:#009af9; stroke:none; fill-opacity:0" cx="412.735" cy="867.387" r="2"/>
<circle clip-path="url(#clip252)" style="fill:#009af9; stroke:none; fill-opacity:0" cx="440.915" cy="550.76" r="2"/>
<circle clip-path="url(#clip252)" style="fill:#009af9; stroke:none; fill-opacity:0" cx="469.094" cy="550.76" r="2"/>
<circle clip-path="url(#clip252)" style="fill:#009af9; stroke:none; fill-opacity:0" cx="497.273" cy="460.613" r="2"/>
<circle clip-path="url(#clip252)" style="fill:#009af9; stroke:none; fill-opacity:0" cx="525.452" cy="692.199" r="2"/>
<circle clip-path="url(#clip252)" style="fill:#009af9; stroke:none; fill-opacity:0" cx="553.632" cy="692.199" r="2"/>
<circle clip-path="url(#clip252)" style="fill:#009af9; stroke:none; fill-opacity:0" cx="581.811" cy="764.909" r="2"/>
<circle clip-path="url(#clip252)" style="fill:#009af9; stroke:none; fill-opacity:0" cx="609.99" cy="550.76" r="2"/>
<circle clip-path="url(#clip252)" style="fill:#009af9; stroke:none; fill-opacity:0" cx="638.169" cy="550.76" r="2"/>
<circle clip-path="url(#clip252)" style="fill:#009af9; stroke:none; fill-opacity:0" cx="666.349" cy="436.524" r="2"/>
<circle clip-path="url(#clip252)" style="fill:#009af9; stroke:none; fill-opacity:0" cx="694.528" cy="517.011" r="2"/>
<circle clip-path="url(#clip252)" style="fill:#009af9; stroke:none; fill-opacity:0" cx="722.707" cy="358.134" r="2"/>
<circle clip-path="url(#clip252)" style="fill:#009af9; stroke:none; fill-opacity:0" cx="750.886" cy="589.721" r="2"/>
<circle clip-path="url(#clip252)" style="fill:#009af9; stroke:none; fill-opacity:0" cx="779.066" cy="764.909" r="2"/>
<circle clip-path="url(#clip252)" style="fill:#009af9; stroke:none; fill-opacity:0" cx="807.245" cy="867.387" r="2"/>
<circle clip-path="url(#clip252)" style="fill:#009af9; stroke:none; fill-opacity:0" cx="835.424" cy="436.524" r="2"/>
<circle clip-path="url(#clip252)" style="fill:#009af9; stroke:none; fill-opacity:0" cx="863.603" cy="358.134" r="2"/>
<circle clip-path="url(#clip252)" style="fill:#009af9; stroke:none; fill-opacity:0" cx="891.783" cy="692.199" r="2"/>
<circle clip-path="url(#clip252)" style="fill:#009af9; stroke:none; fill-opacity:0" cx="919.962" cy="635.801" r="2"/>
<circle clip-path="url(#clip252)" style="fill:#009af9; stroke:none; fill-opacity:0" cx="948.141" cy="1042.58" r="2"/>
<circle clip-path="url(#clip252)" style="fill:#009af9; stroke:none; fill-opacity:0" cx="976.32" cy="1042.58" r="2"/>
<circle clip-path="url(#clip252)" style="fill:#009af9; stroke:none; fill-opacity:0" cx="1004.5" cy="589.721" r="2"/>
<circle clip-path="url(#clip252)" style="fill:#009af9; stroke:none; fill-opacity:0" cx="1032.68" cy="589.721" r="2"/>
<circle clip-path="url(#clip252)" style="fill:#009af9; stroke:none; fill-opacity:0" cx="1060.86" cy="589.721" r="2"/>
<circle clip-path="url(#clip252)" style="fill:#009af9; stroke:none; fill-opacity:0" cx="1089.04" cy="635.801" r="2"/>
<circle clip-path="url(#clip252)" style="fill:#009af9; stroke:none; fill-opacity:0" cx="1117.22" cy="635.801" r="2"/>
<circle clip-path="url(#clip252)" style="fill:#009af9; stroke:none; fill-opacity:0" cx="1145.4" cy="517.011" r="2"/>
<circle clip-path="url(#clip252)" style="fill:#009af9; stroke:none; fill-opacity:0" cx="1173.58" cy="1042.58" r="2"/>
<circle clip-path="url(#clip252)" style="fill:#009af9; stroke:none; fill-opacity:0" cx="1229.93" cy="635.801" r="2"/>
<circle clip-path="url(#clip252)" style="fill:#009af9; stroke:none; fill-opacity:0" cx="1258.11" cy="487.242" r="2"/>
<circle clip-path="url(#clip252)" style="fill:#009af9; stroke:none; fill-opacity:0" cx="1286.29" cy="550.76" r="2"/>
<circle clip-path="url(#clip252)" style="fill:#009af9; stroke:none; fill-opacity:0" cx="1314.47" cy="487.242" r="2"/>
<circle clip-path="url(#clip252)" style="fill:#009af9; stroke:none; fill-opacity:0" cx="1342.65" cy="764.909" r="2"/>
<circle clip-path="url(#clip252)" style="fill:#009af9; stroke:none; fill-opacity:0" cx="1370.83" cy="764.909" r="2"/>
<circle clip-path="url(#clip252)" style="fill:#009af9; stroke:none; fill-opacity:0" cx="1399.01" cy="1042.58" r="2"/>
<circle clip-path="url(#clip252)" style="fill:#009af9; stroke:none; fill-opacity:0" cx="1427.19" cy="517.011" r="2"/>
<circle clip-path="url(#clip252)" style="fill:#009af9; stroke:none; fill-opacity:0" cx="1455.37" cy="764.909" r="2"/>
<circle clip-path="url(#clip252)" style="fill:#009af9; stroke:none; fill-opacity:0" cx="1483.55" cy="764.909" r="2"/>
<circle clip-path="url(#clip252)" style="fill:#009af9; stroke:none; fill-opacity:0" cx="1511.73" cy="589.721" r="2"/>
<circle clip-path="url(#clip252)" style="fill:#009af9; stroke:none; fill-opacity:0" cx="1539.91" cy="550.76" r="2"/>
<circle clip-path="url(#clip252)" style="fill:#009af9; stroke:none; fill-opacity:0" cx="1568.08" cy="867.387" r="2"/>
<circle clip-path="url(#clip252)" style="fill:#009af9; stroke:none; fill-opacity:0" cx="1596.26" cy="764.909" r="2"/>
<circle clip-path="url(#clip252)" style="fill:#009af9; stroke:none; fill-opacity:0" cx="1624.44" cy="635.801" r="2"/>
<circle clip-path="url(#clip252)" style="fill:#009af9; stroke:none; fill-opacity:0" cx="1652.62" cy="764.909" r="2"/>
<circle clip-path="url(#clip252)" style="fill:#009af9; stroke:none; fill-opacity:0" cx="1680.8" cy="550.76" r="2"/>
<circle clip-path="url(#clip252)" style="fill:#009af9; stroke:none; fill-opacity:0" cx="1708.98" cy="414.532" r="2"/>
<circle clip-path="url(#clip252)" style="fill:#009af9; stroke:none; fill-opacity:0" cx="1737.16" cy="517.011" r="2"/>
<circle clip-path="url(#clip252)" style="fill:#009af9; stroke:none; fill-opacity:0" cx="1765.34" cy="1042.58" r="2"/>
<circle clip-path="url(#clip252)" style="fill:#009af9; stroke:none; fill-opacity:0" cx="1793.52" cy="1042.58" r="2"/>
<circle clip-path="url(#clip252)" style="fill:#009af9; stroke:none; fill-opacity:0" cx="1821.7" cy="635.801" r="2"/>
<circle clip-path="url(#clip252)" style="fill:#009af9; stroke:none; fill-opacity:0" cx="1849.88" cy="517.011" r="2"/>
<circle clip-path="url(#clip252)" style="fill:#009af9; stroke:none; fill-opacity:0" cx="1878.06" cy="414.532" r="2"/>
<circle clip-path="url(#clip252)" style="fill:#009af9; stroke:none; fill-opacity:0" cx="1906.24" cy="589.721" r="2"/>
<circle clip-path="url(#clip252)" style="fill:#009af9; stroke:none; fill-opacity:0" cx="1934.41" cy="487.242" r="2"/>
<circle clip-path="url(#clip252)" style="fill:#009af9; stroke:none; fill-opacity:0" cx="1990.77" cy="635.801" r="2"/>
<circle clip-path="url(#clip252)" style="fill:#009af9; stroke:none; fill-opacity:0" cx="2018.95" cy="375.572" r="2"/>
<circle clip-path="url(#clip252)" style="fill:#009af9; stroke:none; fill-opacity:0" cx="2047.13" cy="326.5" r="2"/>
<circle clip-path="url(#clip252)" style="fill:#009af9; stroke:none; fill-opacity:0" cx="2075.31" cy="166.634" r="2"/>
<circle clip-path="url(#clip252)" style="fill:#009af9; stroke:none; fill-opacity:0" cx="2103.49" cy="166.634" r="2"/>
<circle clip-path="url(#clip252)" style="fill:#009af9; stroke:none; fill-opacity:0" cx="2131.67" cy="358.134" r="2"/>
<circle clip-path="url(#clip252)" style="fill:#009af9; stroke:none; fill-opacity:0" cx="2159.85" cy="1042.58" r="2"/>
<circle clip-path="url(#clip252)" style="fill:#009af9; stroke:none; fill-opacity:0" cx="2188.03" cy="692.199" r="2"/>
<circle clip-path="url(#clip252)" style="fill:#009af9; stroke:none; fill-opacity:0" cx="2216.21" cy="123.2" r="2"/>
<circle clip-path="url(#clip252)" style="fill:#009af9; stroke:none; fill-opacity:0" cx="2244.39" cy="110.236" r="2"/>
<circle clip-path="url(#clip252)" style="fill:#009af9; stroke:none; fill-opacity:0" cx="2272.57" cy="341.823" r="2"/>
<circle clip-path="url(#clip252)" style="fill:#009af9; stroke:none; fill-opacity:0" cx="2300.74" cy="298.389" r="2"/>
<circle clip-path="url(#clip252)" style="fill:#009af9; stroke:none; fill-opacity:0" cx="2328.92" cy="1042.58" r="2"/>
<circle clip-path="url(#clip252)" style="fill:#009af9; stroke:none; fill-opacity:0" cx="2385.28" cy="867.387" r="2"/>
<circle clip-path="url(#clip252)" style="fill:#009af9; stroke:none; fill-opacity:0" cx="2413.46" cy="867.387" r="2"/>
</svg>
