<?xml version="1.0" encoding="utf-8"?>
<svg xmlns="http://www.w3.org/2000/svg" xmlns:xlink="http://www.w3.org/1999/xlink" width="800" height="300" viewBox="0 0 3200 1200">
<defs>
  <clipPath id="clip080">
    <rect x="0" y="0" width="3200" height="1200"/>
  </clipPath>
</defs>
<path clip-path="url(#clip080)" d="M0 1200 L3200 1200 L3200 0 L0 0  Z" fill="#ffffff" fill-rule="evenodd" fill-opacity="1"/>
<defs>
  <clipPath id="clip081">
    <rect x="640" y="0" width="2241" height="1200"/>
  </clipPath>
</defs>
<path clip-path="url(#clip080)" d="M271.839 1042.58 L3089.76 1042.58 L3089.76 110.236 L271.839 110.236  Z" fill="#ffffff" fill-rule="evenodd" fill-opacity="1"/>
<defs>
  <clipPath id="clip082">
    <rect x="271" y="110" width="2819" height="933"/>
  </clipPath>
</defs>
<polyline clip-path="url(#clip082)" style="stroke:#000000; stroke-linecap:round; stroke-linejoin:round; stroke-width:2; stroke-opacity:0.1; fill:none" points="919.962,1042.58 919.962,110.236 "/>
<polyline clip-path="url(#clip082)" style="stroke:#000000; stroke-linecap:round; stroke-linejoin:round; stroke-width:2; stroke-opacity:0.1; fill:none" points="1793.52,1042.58 1793.52,110.236 "/>
<polyline clip-path="url(#clip082)" style="stroke:#000000; stroke-linecap:round; stroke-linejoin:round; stroke-width:2; stroke-opacity:0.1; fill:none" points="2667.08,1042.58 2667.08,110.236 "/>
<polyline clip-path="url(#clip080)" style="stroke:#000000; stroke-linecap:round; stroke-linejoin:round; stroke-width:4; stroke-opacity:1; fill:none" points="271.839,1042.58 3089.76,1042.58 "/>
<polyline clip-path="url(#clip080)" style="stroke:#000000; stroke-linecap:round; stroke-linejoin:round; stroke-width:4; stroke-opacity:1; fill:none" points="919.962,1042.58 919.962,1023.68 "/>
<polyline clip-path="url(#clip080)" style="stroke:#000000; stroke-linecap:round; stroke-linejoin:round; stroke-width:4; stroke-opacity:1; fill:none" points="1793.52,1042.58 1793.52,1023.68 "/>
<polyline clip-path="url(#clip080)" style="stroke:#000000; stroke-linecap:round; stroke-linejoin:round; stroke-width:4; stroke-opacity:1; fill:none" points="2667.08,1042.58 2667.08,1023.68 "/>
<path clip-path="url(#clip080)" d="M791.757 1107.44 L808.076 1107.44 L808.076 1111.38 L786.132 1111.38 L786.132 1107.44 Q788.794 1104.69 793.377 1100.06 Q797.983 1095.4 799.164 1094.06 Q801.409 1091.54 802.289 1089.8 Q803.192 1088.04 803.192 1086.35 Q803.192 1083.6 801.247 1081.86 Q799.326 1080.13 796.224 1080.13 Q794.025 1080.13 791.571 1080.89 Q789.141 1081.65 786.363 1083.2 L786.363 1078.48 Q789.187 1077.35 791.641 1076.77 Q794.094 1076.19 796.132 1076.19 Q801.502 1076.19 804.696 1078.88 Q807.891 1081.56 807.891 1086.05 Q807.891 1088.18 807.081 1090.1 Q806.293 1092 804.187 1094.59 Q803.608 1095.26 800.506 1098.48 Q797.405 1101.68 791.757 1107.44 Z" fill="#000000" fill-rule="nonzero" fill-opacity="1" /><path clip-path="url(#clip080)" d="M827.891 1079.89 Q824.28 1079.89 822.451 1083.46 Q820.645 1087 820.645 1094.13 Q820.645 1101.24 822.451 1104.8 Q824.28 1108.34 827.891 1108.34 Q831.525 1108.34 833.33 1104.8 Q835.159 1101.24 835.159 1094.13 Q835.159 1087 833.33 1083.46 Q831.525 1079.89 827.891 1079.89 M827.891 1076.19 Q833.701 1076.19 836.756 1080.8 Q839.835 1085.38 839.835 1094.13 Q839.835 1102.86 836.756 1107.46 Q833.701 1112.05 827.891 1112.05 Q822.08 1112.05 819.002 1107.46 Q815.946 1102.86 815.946 1094.13 Q815.946 1085.38 819.002 1080.8 Q822.08 1076.19 827.891 1076.19 Z" fill="#000000" fill-rule="nonzero" fill-opacity="1" /><path clip-path="url(#clip080)" d="M852.08 1107.44 L868.4 1107.44 L868.4 1111.38 L846.455 1111.38 L846.455 1107.44 Q849.117 1104.69 853.701 1100.06 Q858.307 1095.4 859.488 1094.06 Q861.733 1091.54 862.613 1089.8 Q863.515 1088.04 863.515 1086.35 Q863.515 1083.6 861.571 1081.86 Q859.65 1080.13 856.548 1080.13 Q854.349 1080.13 851.895 1080.89 Q849.465 1081.65 846.687 1083.2 L846.687 1078.48 Q849.511 1077.35 851.965 1076.77 Q854.418 1076.19 856.455 1076.19 Q861.826 1076.19 865.02 1078.88 Q868.214 1081.56 868.214 1086.05 Q868.214 1088.18 867.404 1090.1 Q866.617 1092 864.511 1094.59 Q863.932 1095.26 860.83 1098.48 Q857.728 1101.68 852.08 1107.44 Z" fill="#000000" fill-rule="nonzero" fill-opacity="1" /><path clip-path="url(#clip080)" d="M891.062 1080.89 L879.256 1099.34 L891.062 1099.34 L891.062 1080.89 M889.835 1076.82 L895.714 1076.82 L895.714 1099.34 L900.645 1099.34 L900.645 1103.23 L895.714 1103.23 L895.714 1111.38 L891.062 1111.38 L891.062 1103.23 L875.46 1103.23 L875.46 1098.71 L889.835 1076.82 Z" fill="#000000" fill-rule="nonzero" fill-opacity="1" /><path clip-path="url(#clip080)" d="M905.622 1096.49 L918.098 1096.49 L918.098 1100.29 L905.622 1100.29 L905.622 1096.49 Z" fill="#000000" fill-rule="nonzero" fill-opacity="1" /><path clip-path="url(#clip080)" d="M935.483 1079.89 Q931.872 1079.89 930.043 1083.46 Q928.237 1087 928.237 1094.13 Q928.237 1101.24 930.043 1104.8 Q931.872 1108.34 935.483 1108.34 Q939.117 1108.34 940.922 1104.8 Q942.751 1101.24 942.751 1094.13 Q942.751 1087 940.922 1083.46 Q939.117 1079.89 935.483 1079.89 M935.483 1076.19 Q941.293 1076.19 944.348 1080.8 Q947.427 1085.38 947.427 1094.13 Q947.427 1102.86 944.348 1107.46 Q941.293 1112.05 935.483 1112.05 Q929.672 1112.05 926.594 1107.46 Q923.538 1102.86 923.538 1094.13 Q923.538 1085.38 926.594 1080.8 Q929.672 1076.19 935.483 1076.19 Z" fill="#000000" fill-rule="nonzero" fill-opacity="1" /><path clip-path="url(#clip080)" d="M954.464 1076.82 L976.686 1076.82 L976.686 1078.81 L964.14 1111.38 L959.256 1111.38 L971.061 1080.75 L954.464 1080.75 L954.464 1076.82 Z" fill="#000000" fill-rule="nonzero" fill-opacity="1" /><path clip-path="url(#clip080)" d="M983.052 1096.49 L995.529 1096.49 L995.529 1100.29 L983.052 1100.29 L983.052 1096.49 Z" fill="#000000" fill-rule="nonzero" fill-opacity="1" /><path clip-path="url(#clip080)" d="M1012.91 1079.89 Q1009.3 1079.89 1007.47 1083.46 Q1005.67 1087 1005.67 1094.13 Q1005.67 1101.24 1007.47 1104.8 Q1009.3 1108.34 1012.91 1108.34 Q1016.55 1108.34 1018.35 1104.8 Q1020.18 1101.24 1020.18 1094.13 Q1020.18 1087 1018.35 1083.46 Q1016.55 1079.89 1012.91 1079.89 M1012.91 1076.19 Q1018.72 1076.19 1021.78 1080.8 Q1024.86 1085.38 1024.86 1094.13 Q1024.86 1102.86 1021.78 1107.46 Q1018.72 1112.05 1012.91 1112.05 Q1007.1 1112.05 1004.02 1107.46 Q1000.97 1102.86 1000.97 1094.13 Q1000.97 1085.38 1004.02 1080.8 Q1007.1 1076.19 1012.91 1076.19 Z" fill="#000000" fill-rule="nonzero" fill-opacity="1" /><path clip-path="url(#clip080)" d="M1033.88 1107.44 L1041.52 1107.44 L1041.52 1081.07 L1033.21 1082.74 L1033.21 1078.48 L1041.48 1076.82 L1046.15 1076.82 L1046.15 1107.44 L1053.79 1107.44 L1053.79 1111.38 L1033.88 1111.38 L1033.88 1107.44 Z" fill="#000000" fill-rule="nonzero" fill-opacity="1" /><path clip-path="url(#clip080)" d="M1665.31 1107.44 L1681.63 1107.44 L1681.63 1111.38 L1659.69 1111.38 L1659.69 1107.44 Q1662.35 1104.69 1666.93 1100.06 Q1671.54 1095.4 1672.72 1094.06 Q1674.97 1091.54 1675.85 1089.8 Q1676.75 1088.04 1676.75 1086.35 Q1676.75 1083.6 1674.8 1081.86 Q1672.88 1080.13 1669.78 1080.13 Q1667.58 1080.13 1665.13 1080.89 Q1662.7 1081.65 1659.92 1083.2 L1659.92 1078.48 Q1662.74 1077.35 1665.2 1076.77 Q1667.65 1076.19 1669.69 1076.19 Q1675.06 1076.19 1678.25 1078.88 Q1681.45 1081.56 1681.45 1086.05 Q1681.45 1088.18 1680.64 1090.1 Q1679.85 1092 1677.74 1094.59 Q1677.16 1095.26 1674.06 1098.48 Q1670.96 1101.68 1665.31 1107.44 Z" fill="#000000" fill-rule="nonzero" fill-opacity="1" /><path clip-path="url(#clip080)" d="M1701.45 1079.89 Q1697.84 1079.89 1696.01 1083.46 Q1694.2 1087 1694.2 1094.13 Q1694.2 1101.24 1696.01 1104.8 Q1697.84 1108.34 1701.45 1108.34 Q1705.08 1108.34 1706.89 1104.8 Q1708.72 1101.24 1708.72 1094.13 Q1708.72 1087 1706.89 1083.46 Q1705.08 1079.89 1701.45 1079.89 M1701.45 1076.19 Q1707.26 1076.19 1710.31 1080.8 Q1713.39 1085.38 1713.39 1094.13 Q1713.39 1102.86 1710.31 1107.46 Q1707.26 1112.05 1701.45 1112.05 Q1695.64 1112.05 1692.56 1107.46 Q1689.5 1102.86 1689.5 1094.13 Q1689.5 1085.38 1692.56 1080.8 Q1695.64 1076.19 1701.45 1076.19 Z" fill="#000000" fill-rule="nonzero" fill-opacity="1" /><path clip-path="url(#clip080)" d="M1725.64 1107.44 L1741.96 1107.44 L1741.96 1111.38 L1720.01 1111.38 L1720.01 1107.44 Q1722.67 1104.69 1727.26 1100.06 Q1731.86 1095.4 1733.04 1094.06 Q1735.29 1091.54 1736.17 1089.8 Q1737.07 1088.04 1737.07 1086.35 Q1737.07 1083.6 1735.13 1081.86 Q1733.21 1080.13 1730.1 1080.13 Q1727.91 1080.13 1725.45 1080.89 Q1723.02 1081.65 1720.24 1083.2 L1720.24 1078.48 Q1723.07 1077.35 1725.52 1076.77 Q1727.97 1076.19 1730.01 1076.19 Q1735.38 1076.19 1738.58 1078.88 Q1741.77 1081.56 1741.77 1086.05 Q1741.77 1088.18 1740.96 1090.1 Q1740.17 1092 1738.07 1094.59 Q1737.49 1095.26 1734.39 1098.48 Q1731.29 1101.68 1725.64 1107.44 Z" fill="#000000" fill-rule="nonzero" fill-opacity="1" /><path clip-path="url(#clip080)" d="M1764.62 1080.89 L1752.81 1099.34 L1764.62 1099.34 L1764.62 1080.89 M1763.39 1076.82 L1769.27 1076.82 L1769.27 1099.34 L1774.2 1099.34 L1774.2 1103.23 L1769.27 1103.23 L1769.27 1111.38 L1764.62 1111.38 L1764.62 1103.23 L1749.02 1103.23 L1749.02 1098.71 L1763.39 1076.82 Z" fill="#000000" fill-rule="nonzero" fill-opacity="1" /><path clip-path="url(#clip080)" d="M1779.18 1096.49 L1791.66 1096.49 L1791.66 1100.29 L1779.18 1100.29 L1779.18 1096.49 Z" fill="#000000" fill-rule="nonzero" fill-opacity="1" /><path clip-path="url(#clip080)" d="M1809.04 1079.89 Q1805.43 1079.89 1803.6 1083.46 Q1801.79 1087 1801.79 1094.13 Q1801.79 1101.24 1803.6 1104.8 Q1805.43 1108.34 1809.04 1108.34 Q1812.67 1108.34 1814.48 1104.8 Q1816.31 1101.24 1816.31 1094.13 Q1816.31 1087 1814.48 1083.46 Q1812.67 1079.89 1809.04 1079.89 M1809.04 1076.19 Q1814.85 1076.19 1817.9 1080.8 Q1820.98 1085.38 1820.98 1094.13 Q1820.98 1102.86 1817.9 1107.46 Q1814.85 1112.05 1809.04 1112.05 Q1803.23 1112.05 1800.15 1107.46 Q1797.09 1102.86 1797.09 1094.13 Q1797.09 1085.38 1800.15 1080.8 Q1803.23 1076.19 1809.04 1076.19 Z" fill="#000000" fill-rule="nonzero" fill-opacity="1" /><path clip-path="url(#clip080)" d="M1839.2 1094.96 Q1835.87 1094.96 1833.95 1096.75 Q1832.05 1098.53 1832.05 1101.65 Q1832.05 1104.78 1833.95 1106.56 Q1835.87 1108.34 1839.2 1108.34 Q1842.53 1108.34 1844.46 1106.56 Q1846.38 1104.76 1846.38 1101.65 Q1846.38 1098.53 1844.46 1096.75 Q1842.56 1094.96 1839.2 1094.96 M1834.53 1092.97 Q1831.52 1092.23 1829.83 1090.17 Q1828.16 1088.11 1828.16 1085.15 Q1828.16 1081.01 1831.1 1078.6 Q1834.06 1076.19 1839.2 1076.19 Q1844.36 1076.19 1847.3 1078.6 Q1850.24 1081.01 1850.24 1085.15 Q1850.24 1088.11 1848.55 1090.17 Q1846.89 1092.23 1843.9 1092.97 Q1847.28 1093.76 1849.15 1096.05 Q1851.05 1098.34 1851.05 1101.65 Q1851.05 1106.68 1847.97 1109.36 Q1844.92 1112.05 1839.2 1112.05 Q1833.48 1112.05 1830.4 1109.36 Q1827.35 1106.68 1827.35 1101.65 Q1827.35 1098.34 1829.25 1096.05 Q1831.15 1093.76 1834.53 1092.97 M1832.81 1085.59 Q1832.81 1088.27 1834.48 1089.78 Q1836.17 1091.28 1839.2 1091.28 Q1842.21 1091.28 1843.9 1089.78 Q1845.61 1088.27 1845.61 1085.59 Q1845.61 1082.9 1843.9 1081.4 Q1842.21 1079.89 1839.2 1079.89 Q1836.17 1079.89 1834.48 1081.4 Q1832.81 1082.9 1832.81 1085.59 Z" fill="#000000" fill-rule="nonzero" fill-opacity="1" /><path clip-path="url(#clip080)" d="M1856.61 1096.49 L1869.09 1096.49 L1869.09 1100.29 L1856.61 1100.29 L1856.61 1096.49 Z" fill="#000000" fill-rule="nonzero" fill-opacity="1" /><path clip-path="url(#clip080)" d="M1886.47 1079.89 Q1882.86 1079.89 1881.03 1083.46 Q1879.22 1087 1879.22 1094.13 Q1879.22 1101.24 1881.03 1104.8 Q1882.86 1108.34 1886.47 1108.34 Q1890.1 1108.34 1891.91 1104.8 Q1893.74 1101.24 1893.74 1094.13 Q1893.74 1087 1891.91 1083.46 Q1890.1 1079.89 1886.47 1079.89 M1886.47 1076.19 Q1892.28 1076.19 1895.34 1080.8 Q1898.41 1085.38 1898.41 1094.13 Q1898.41 1102.86 1895.34 1107.46 Q1892.28 1112.05 1886.47 1112.05 Q1880.66 1112.05 1877.58 1107.46 Q1874.52 1102.86 1874.52 1094.13 Q1874.52 1085.38 1877.58 1080.8 Q1880.66 1076.19 1886.47 1076.19 Z" fill="#000000" fill-rule="nonzero" fill-opacity="1" /><path clip-path="url(#clip080)" d="M1907.44 1107.44 L1915.08 1107.44 L1915.08 1081.07 L1906.77 1082.74 L1906.77 1078.48 L1915.03 1076.82 L1919.71 1076.82 L1919.71 1107.44 L1927.35 1107.44 L1927.35 1111.38 L1907.44 1111.38 L1907.44 1107.44 Z" fill="#000000" fill-rule="nonzero" fill-opacity="1" /><path clip-path="url(#clip080)" d="M2538.87 1107.44 L2555.19 1107.44 L2555.19 1111.38 L2533.24 1111.38 L2533.24 1107.44 Q2535.91 1104.69 2540.49 1100.06 Q2545.1 1095.4 2546.28 1094.06 Q2548.52 1091.54 2549.4 1089.8 Q2550.3 1088.04 2550.3 1086.35 Q2550.3 1083.6 2548.36 1081.86 Q2546.44 1080.13 2543.34 1080.13 Q2541.14 1080.13 2538.68 1080.89 Q2536.25 1081.65 2533.48 1083.2 L2533.48 1078.48 Q2536.3 1077.35 2538.75 1076.77 Q2541.21 1076.19 2543.24 1076.19 Q2548.62 1076.19 2551.81 1078.88 Q2555 1081.56 2555 1086.05 Q2555 1088.18 2554.19 1090.1 Q2553.41 1092 2551.3 1094.59 Q2550.72 1095.26 2547.62 1098.48 Q2544.52 1101.68 2538.87 1107.44 Z" fill="#000000" fill-rule="nonzero" fill-opacity="1" /><path clip-path="url(#clip080)" d="M2575 1079.89 Q2571.39 1079.89 2569.56 1083.46 Q2567.76 1087 2567.76 1094.13 Q2567.76 1101.24 2569.56 1104.8 Q2571.39 1108.34 2575 1108.34 Q2578.64 1108.34 2580.44 1104.8 Q2582.27 1101.24 2582.27 1094.13 Q2582.27 1087 2580.44 1083.46 Q2578.64 1079.89 2575 1079.89 M2575 1076.19 Q2580.81 1076.19 2583.87 1080.8 Q2586.95 1085.38 2586.95 1094.13 Q2586.95 1102.86 2583.87 1107.46 Q2580.81 1112.05 2575 1112.05 Q2569.19 1112.05 2566.11 1107.46 Q2563.06 1102.86 2563.06 1094.13 Q2563.06 1085.38 2566.11 1080.8 Q2569.19 1076.19 2575 1076.19 Z" fill="#000000" fill-rule="nonzero" fill-opacity="1" /><path clip-path="url(#clip080)" d="M2599.19 1107.44 L2615.51 1107.44 L2615.51 1111.38 L2593.57 1111.38 L2593.57 1107.44 Q2596.23 1104.69 2600.81 1100.06 Q2605.42 1095.4 2606.6 1094.06 Q2608.85 1091.54 2609.73 1089.8 Q2610.63 1088.04 2610.63 1086.35 Q2610.63 1083.6 2608.68 1081.86 Q2606.76 1080.13 2603.66 1080.13 Q2601.46 1080.13 2599.01 1080.89 Q2596.58 1081.65 2593.8 1083.2 L2593.8 1078.48 Q2596.62 1077.35 2599.08 1076.77 Q2601.53 1076.19 2603.57 1076.19 Q2608.94 1076.19 2612.13 1078.88 Q2615.33 1081.56 2615.33 1086.05 Q2615.33 1088.18 2614.52 1090.1 Q2613.73 1092 2611.62 1094.59 Q2611.05 1095.26 2607.94 1098.48 Q2604.84 1101.68 2599.19 1107.44 Z" fill="#000000" fill-rule="nonzero" fill-opacity="1" /><path clip-path="url(#clip080)" d="M2638.17 1080.89 L2626.37 1099.34 L2638.17 1099.34 L2638.17 1080.89 M2636.95 1076.82 L2642.83 1076.82 L2642.83 1099.34 L2647.76 1099.34 L2647.76 1103.23 L2642.83 1103.23 L2642.83 1111.38 L2638.17 1111.38 L2638.17 1103.23 L2622.57 1103.23 L2622.57 1098.71 L2636.95 1076.82 Z" fill="#000000" fill-rule="nonzero" fill-opacity="1" /><path clip-path="url(#clip080)" d="M2652.73 1096.49 L2665.21 1096.49 L2665.21 1100.29 L2652.73 1100.29 L2652.73 1096.49 Z" fill="#000000" fill-rule="nonzero" fill-opacity="1" /><path clip-path="url(#clip080)" d="M2682.6 1079.89 Q2678.98 1079.89 2677.16 1083.46 Q2675.35 1087 2675.35 1094.13 Q2675.35 1101.24 2677.16 1104.8 Q2678.98 1108.34 2682.6 1108.34 Q2686.23 1108.34 2688.04 1104.8 Q2689.86 1101.24 2689.86 1094.13 Q2689.86 1087 2688.04 1083.46 Q2686.23 1079.89 2682.6 1079.89 M2682.6 1076.19 Q2688.41 1076.19 2691.46 1080.8 Q2694.54 1085.38 2694.54 1094.13 Q2694.54 1102.86 2691.46 1107.46 Q2688.41 1112.05 2682.6 1112.05 Q2676.79 1112.05 2673.71 1107.46 Q2670.65 1102.86 2670.65 1094.13 Q2670.65 1085.38 2673.71 1080.8 Q2676.79 1076.19 2682.6 1076.19 Z" fill="#000000" fill-rule="nonzero" fill-opacity="1" /><path clip-path="url(#clip080)" d="M2702.9 1110.66 L2702.9 1106.4 Q2704.66 1107.23 2706.46 1107.67 Q2708.27 1108.11 2710 1108.11 Q2714.63 1108.11 2717.06 1105.01 Q2719.52 1101.89 2719.86 1095.54 Q2718.52 1097.53 2716.46 1098.6 Q2714.4 1099.66 2711.9 1099.66 Q2706.72 1099.66 2703.68 1096.54 Q2700.67 1093.39 2700.67 1087.95 Q2700.67 1082.63 2703.82 1079.41 Q2706.97 1076.19 2712.2 1076.19 Q2718.2 1076.19 2721.35 1080.8 Q2724.52 1085.38 2724.52 1094.13 Q2724.52 1102.3 2720.63 1107.19 Q2716.76 1112.05 2710.21 1112.05 Q2708.45 1112.05 2706.65 1111.7 Q2704.84 1111.35 2702.9 1110.66 M2712.2 1096.01 Q2715.35 1096.01 2717.18 1093.85 Q2719.03 1091.7 2719.03 1087.95 Q2719.03 1084.22 2717.18 1082.07 Q2715.35 1079.89 2712.2 1079.89 Q2709.05 1079.89 2707.2 1082.07 Q2705.37 1084.22 2705.37 1087.95 Q2705.37 1091.7 2707.2 1093.85 Q2709.05 1096.01 2712.2 1096.01 Z" fill="#000000" fill-rule="nonzero" fill-opacity="1" /><path clip-path="url(#clip080)" d="M2730.17 1096.49 L2742.64 1096.49 L2742.64 1100.29 L2730.17 1100.29 L2730.17 1096.49 Z" fill="#000000" fill-rule="nonzero" fill-opacity="1" /><path clip-path="url(#clip080)" d="M2760.03 1079.89 Q2756.41 1079.89 2754.59 1083.46 Q2752.78 1087 2752.78 1094.13 Q2752.78 1101.24 2754.59 1104.8 Q2756.41 1108.34 2760.03 1108.34 Q2763.66 1108.34 2765.47 1104.8 Q2767.29 1101.24 2767.29 1094.13 Q2767.29 1087 2765.47 1083.46 Q2763.66 1079.89 2760.03 1079.89 M2760.03 1076.19 Q2765.84 1076.19 2768.89 1080.8 Q2771.97 1085.38 2771.97 1094.13 Q2771.97 1102.86 2768.89 1107.46 Q2765.84 1112.05 2760.03 1112.05 Q2754.22 1112.05 2751.14 1107.46 Q2748.08 1102.86 2748.08 1094.13 Q2748.08 1085.38 2751.14 1080.8 Q2754.22 1076.19 2760.03 1076.19 Z" fill="#000000" fill-rule="nonzero" fill-opacity="1" /><path clip-path="url(#clip080)" d="M2781 1107.44 L2788.64 1107.44 L2788.64 1081.07 L2780.33 1082.74 L2780.33 1078.48 L2788.59 1076.82 L2793.27 1076.82 L2793.27 1107.44 L2800.91 1107.44 L2800.91 1111.38 L2781 1111.38 L2781 1107.44 Z" fill="#000000" fill-rule="nonzero" fill-opacity="1" /><polyline clip-path="url(#clip082)" style="stroke:#000000; stroke-linecap:round; stroke-linejoin:round; stroke-width:2; stroke-opacity:0.1; fill:none" points="271.839,1042.58 3089.76,1042.58 "/>
<polyline clip-path="url(#clip082)" style="stroke:#000000; stroke-linecap:round; stroke-linejoin:round; stroke-width:2; stroke-opacity:0.1; fill:none" points="271.839,460.613 3089.76,460.613 "/>
<polyline clip-path="url(#clip080)" style="stroke:#000000; stroke-linecap:round; stroke-linejoin:round; stroke-width:4; stroke-opacity:1; fill:none" points="271.839,1042.58 271.839,110.236 "/>
<polyline clip-path="url(#clip080)" style="stroke:#000000; stroke-linecap:round; stroke-linejoin:round; stroke-width:4; stroke-opacity:1; fill:none" points="271.839,1042.58 290.737,1042.58 "/>
<polyline clip-path="url(#clip080)" style="stroke:#000000; stroke-linecap:round; stroke-linejoin:round; stroke-width:4; stroke-opacity:1; fill:none" points="271.839,460.613 290.737,460.613 "/>
<path clip-path="url(#clip080)" d="M153.134 1062.37 L160.772 1062.37 L160.772 1036 L152.462 1037.67 L152.462 1033.41 L160.726 1031.74 L165.402 1031.74 L165.402 1062.37 L173.041 1062.37 L173.041 1066.3 L153.134 1066.3 L153.134 1062.37 Z" fill="#000000" fill-rule="nonzero" fill-opacity="1" /><path clip-path="url(#clip080)" d="M192.485 1034.82 Q188.874 1034.82 187.045 1038.39 Q185.24 1041.93 185.24 1049.06 Q185.24 1056.16 187.045 1059.73 Q188.874 1063.27 192.485 1063.27 Q196.119 1063.27 197.925 1059.73 Q199.754 1056.16 199.754 1049.06 Q199.754 1041.93 197.925 1038.39 Q196.119 1034.82 192.485 1034.82 M192.485 1031.12 Q198.295 1031.12 201.351 1035.72 Q204.43 1040.31 204.43 1049.06 Q204.43 1057.78 201.351 1062.39 Q198.295 1066.97 192.485 1066.97 Q186.675 1066.97 183.596 1062.39 Q180.541 1057.78 180.541 1049.06 Q180.541 1040.31 183.596 1035.72 Q186.675 1031.12 192.485 1031.12 Z" fill="#000000" fill-rule="nonzero" fill-opacity="1" /><path clip-path="url(#clip080)" d="M214.134 1013.31 Q211.2 1013.31 209.715 1016.21 Q208.248 1019.09 208.248 1024.88 Q208.248 1030.66 209.715 1033.55 Q211.2 1036.43 214.134 1036.43 Q217.087 1036.43 218.554 1033.55 Q220.04 1030.66 220.04 1024.88 Q220.04 1019.09 218.554 1016.21 Q217.087 1013.31 214.134 1013.31 M214.134 1010.31 Q218.855 1010.31 221.338 1014.05 Q223.839 1017.77 223.839 1024.88 Q223.839 1031.97 221.338 1035.71 Q218.855 1039.44 214.134 1039.44 Q209.414 1039.44 206.912 1035.71 Q204.43 1031.97 204.43 1024.88 Q204.43 1017.77 206.912 1014.05 Q209.414 1010.31 214.134 1010.31 Z" fill="#000000" fill-rule="nonzero" fill-opacity="1" /><path clip-path="url(#clip080)" d="M155.823 480.405 L163.462 480.405 L163.462 454.04 L155.152 455.706 L155.152 451.447 L163.416 449.78 L168.092 449.78 L168.092 480.405 L175.73 480.405 L175.73 484.34 L155.823 484.34 L155.823 480.405 Z" fill="#000000" fill-rule="nonzero" fill-opacity="1" /><path clip-path="url(#clip080)" d="M195.175 452.859 Q191.564 452.859 189.735 456.424 Q187.929 459.966 187.929 467.095 Q187.929 474.202 189.735 477.766 Q191.564 481.308 195.175 481.308 Q198.809 481.308 200.615 477.766 Q202.443 474.202 202.443 467.095 Q202.443 459.966 200.615 456.424 Q198.809 452.859 195.175 452.859 M195.175 449.155 Q200.985 449.155 204.04 453.762 Q207.119 458.345 207.119 467.095 Q207.119 475.822 204.04 480.428 Q200.985 485.012 195.175 485.012 Q189.365 485.012 186.286 480.428 Q183.23 475.822 183.23 467.095 Q183.23 458.345 186.286 453.762 Q189.365 449.155 195.175 449.155 Z" fill="#000000" fill-rule="nonzero" fill-opacity="1" /><path clip-path="url(#clip080)" d="M207.665 453.733 L213.871 453.733 L213.871 432.311 L207.119 433.665 L207.119 430.204 L213.833 428.85 L217.633 428.85 L217.633 453.733 L223.839 453.733 L223.839 456.93 L207.665 456.93 L207.665 453.733 Z" fill="#000000" fill-rule="nonzero" fill-opacity="1" /><path clip-path="url(#clip080)" d="M83.4268 915.173 L70.6636 915.173 L70.6636 925.676 L65.38 925.676 L65.38 908.807 L85.7821 908.807 Q88.4239 912.531 89.7925 917.019 Q91.1293 921.507 91.1293 926.599 Q91.1293 937.739 84.6363 944.041 Q78.1114 950.312 66.494 950.312 Q54.8448 950.312 48.3518 944.041 Q41.8269 937.739 41.8269 926.599 Q41.8269 921.952 42.9727 917.783 Q44.1186 913.582 46.3466 910.049 L53.1897 910.049 Q50.166 913.613 48.6382 917.624 Q47.1104 921.634 47.1104 926.058 Q47.1104 934.779 51.9802 939.172 Q56.85 943.532 66.494 943.532 Q76.1062 943.532 80.976 939.172 Q85.8458 934.779 85.8458 926.058 Q85.8458 922.653 85.2729 919.979 Q84.6681 917.305 83.4268 915.173 Z" fill="#000000" fill-rule="nonzero" fill-opacity="1" /><path clip-path="url(#clip080)" d="M70.9182 866.825 L73.7828 866.825 L73.7828 893.752 Q79.8302 893.37 83.013 890.124 Q86.1641 886.846 86.1641 881.021 Q86.1641 877.647 85.3365 874.496 Q84.509 871.313 82.8539 868.194 L88.3921 868.194 Q89.7289 871.345 90.4291 874.655 Q91.1293 877.965 91.1293 881.371 Q91.1293 889.901 86.1641 894.898 Q81.1988 899.863 72.7324 899.863 Q63.9796 899.863 58.8552 895.153 Q53.699 890.41 53.699 882.39 Q53.699 875.196 58.3459 871.027 Q62.9611 866.825 70.9182 866.825 M69.1995 872.682 Q64.3933 872.746 61.5288 875.387 Q58.6642 877.997 58.6642 882.326 Q58.6642 887.228 61.4333 890.188 Q64.2024 893.116 69.2313 893.561 L69.1995 872.682 Z" fill="#000000" fill-rule="nonzero" fill-opacity="1" /><path clip-path="url(#clip080)" d="M68.6902 827.581 L90.2063 827.581 L90.2063 833.437 L68.8812 833.437 Q63.8204 833.437 61.306 835.411 Q58.7915 837.384 58.7915 841.331 Q58.7915 846.073 61.8152 848.81 Q64.8389 851.548 70.0588 851.548 L90.2063 851.548 L90.2063 857.436 L54.5583 857.436 L54.5583 851.548 L60.0965 851.548 Q56.8818 849.447 55.2904 846.614 Q53.699 843.75 53.699 840.026 Q53.699 833.883 57.5184 830.732 Q61.306 827.581 68.6902 827.581 Z" fill="#000000" fill-rule="nonzero" fill-opacity="1" /><path clip-path="url(#clip080)" d="M58.6642 802.086 Q58.6642 806.797 62.3563 809.534 Q66.0166 812.271 72.4141 812.271 Q78.8117 812.271 82.5038 809.566 Q86.1641 806.829 86.1641 802.086 Q86.1641 797.407 82.4719 794.67 Q78.7798 791.933 72.4141 791.933 Q66.0803 791.933 62.3881 794.67 Q58.6642 797.407 58.6642 802.086 M53.699 802.086 Q53.699 794.447 58.6642 790.087 Q63.6295 785.726 72.4141 785.726 Q81.167 785.726 86.1641 790.087 Q91.1293 794.447 91.1293 802.086 Q91.1293 809.757 86.1641 814.117 Q81.167 818.446 72.4141 818.446 Q63.6295 818.446 58.6642 814.117 Q53.699 809.757 53.699 802.086 Z" fill="#000000" fill-rule="nonzero" fill-opacity="1" /><path clip-path="url(#clip080)" d="M61.4015 748.264 Q57.4547 746.068 55.5768 743.012 Q53.699 739.957 53.699 735.819 Q53.699 730.249 57.6139 727.225 Q61.4969 724.202 68.6902 724.202 L90.2063 724.202 L90.2063 730.09 L68.8812 730.09 Q63.7568 730.09 61.2741 731.904 Q58.7915 733.719 58.7915 737.442 Q58.7915 741.994 61.8152 744.636 Q64.8389 747.277 70.0588 747.277 L90.2063 747.277 L90.2063 753.166 L68.8812 753.166 Q63.7249 753.166 61.2741 754.98 Q58.7915 756.794 58.7915 760.582 Q58.7915 765.07 61.8471 767.711 Q64.8708 770.353 70.0588 770.353 L90.2063 770.353 L90.2063 776.241 L54.5583 776.241 L54.5583 770.353 L60.0965 770.353 Q56.8182 768.348 55.2586 765.547 Q53.699 762.746 53.699 758.895 Q53.699 755.012 55.6723 752.306 Q57.6457 749.569 61.4015 748.264 Z" fill="#000000" fill-rule="nonzero" fill-opacity="1" /><path clip-path="url(#clip080)" d="M70.9182 682.029 L73.7828 682.029 L73.7828 708.956 Q79.8302 708.574 83.013 705.327 Q86.1641 702.049 86.1641 696.224 Q86.1641 692.851 85.3365 689.7 Q84.509 686.517 82.8539 683.398 L88.3921 683.398 Q89.7289 686.549 90.4291 689.859 Q91.1293 693.169 91.1293 696.575 Q91.1293 705.105 86.1641 710.102 Q81.1988 715.067 72.7324 715.067 Q63.9796 715.067 58.8552 710.356 Q53.699 705.614 53.699 697.593 Q53.699 690.4 58.3459 686.23 Q62.9611 682.029 70.9182 682.029 M69.1995 687.885 Q64.3933 687.949 61.5288 690.591 Q58.6642 693.201 58.6642 697.529 Q58.6642 702.431 61.4333 705.391 Q64.2024 708.319 69.2313 708.765 L69.1995 687.885 Z" fill="#000000" fill-rule="nonzero" fill-opacity="1" /><path clip-path="url(#clip080)" d="M55.6087 649.691 L61.1468 649.691 Q59.8737 652.174 59.2371 654.847 Q58.6006 657.521 58.6006 660.386 Q58.6006 664.746 59.9373 666.942 Q61.2741 669.107 63.9477 669.107 Q65.9848 669.107 67.1624 667.547 Q68.3083 665.987 69.3586 661.277 L69.8042 659.272 Q71.141 653.033 73.5918 650.423 Q76.0108 647.781 80.3713 647.781 Q85.3365 647.781 88.2329 651.728 Q91.1293 655.643 91.1293 662.518 Q91.1293 665.383 90.5564 668.502 Q90.0153 671.589 88.9013 675.027 L82.8539 675.027 Q84.5408 671.78 85.4002 668.629 Q86.2277 665.478 86.2277 662.391 Q86.2277 658.253 84.8273 656.025 Q83.395 653.797 80.8169 653.797 Q78.4297 653.797 77.1566 655.42 Q75.8834 657.012 74.7058 662.454 L74.2284 664.491 Q73.0825 669.934 70.7272 672.353 Q68.3401 674.772 64.2024 674.772 Q59.1735 674.772 56.4362 671.207 Q53.699 667.642 53.699 661.086 Q53.699 657.839 54.1764 654.975 Q54.6538 652.11 55.6087 649.691 Z" fill="#000000" fill-rule="nonzero" fill-opacity="1" /><path clip-path="url(#clip080)" d="M42.6863 628.048 L42.6863 622.637 L96.2537 639.188 L96.2537 644.599 L42.6863 628.048 Z" fill="#000000" fill-rule="nonzero" fill-opacity="1" /><path clip-path="url(#clip080)" d="M47.9698 609.81 L84.9227 609.81 L84.9227 602.044 Q84.9227 592.209 80.4668 587.657 Q76.0108 583.074 66.3985 583.074 Q56.85 583.074 52.4258 587.657 Q47.9698 592.209 47.9698 602.044 L47.9698 609.81 M42.6863 616.239 L42.6863 603.031 Q42.6863 589.217 48.4472 582.756 Q54.1764 576.295 66.3985 576.295 Q78.6844 576.295 84.4453 582.788 Q90.2063 589.281 90.2063 603.031 L90.2063 616.239 L42.6863 616.239 Z" fill="#000000" fill-rule="nonzero" fill-opacity="1" /><path clip-path="url(#clip080)" d="M72.2868 550.1 Q72.2868 557.197 73.9101 559.935 Q75.5333 562.672 79.4482 562.672 Q82.5674 562.672 84.4135 560.635 Q86.2277 558.566 86.2277 555.033 Q86.2277 550.163 82.7902 547.235 Q79.3209 544.275 73.5918 544.275 L72.2868 544.275 L72.2868 550.1 M69.8679 538.419 L90.2063 538.419 L90.2063 544.275 L84.7954 544.275 Q88.0419 546.28 89.6015 549.272 Q91.1293 552.264 91.1293 556.593 Q91.1293 562.067 88.0738 565.314 Q84.9864 568.528 79.8302 568.528 Q73.8146 568.528 70.759 564.518 Q67.7035 560.476 67.7035 552.487 L67.7035 544.275 L67.1306 544.275 Q63.0884 544.275 60.8922 546.949 Q58.6642 549.59 58.6642 554.397 Q58.6642 557.452 59.3963 560.348 Q60.1283 563.245 61.5924 565.918 L56.1816 565.918 Q54.9403 562.704 54.3355 559.68 Q53.699 556.656 53.699 553.792 Q53.699 546.057 57.7094 542.238 Q61.7197 538.419 69.8679 538.419 Z" fill="#000000" fill-rule="nonzero" fill-opacity="1" /><path clip-path="url(#clip080)" d="M93.5165 511.524 Q99.8822 514.006 101.824 516.361 Q103.765 518.717 103.765 522.664 L103.765 527.342 L98.8636 527.342 L98.8636 523.905 Q98.8636 521.486 97.7178 520.149 Q96.572 518.812 92.307 517.189 L89.6334 516.139 L54.5583 530.557 L54.5583 524.35 L82.4401 513.21 L54.5583 502.07 L54.5583 495.864 L93.5165 511.524 Z" fill="#000000" fill-rule="nonzero" fill-opacity="1" /><path clip-path="url(#clip080)" d="M40.7447 452.991 Q48.0653 457.256 55.2267 459.325 Q62.3881 461.394 69.7405 461.394 Q77.0929 461.394 84.318 459.325 Q91.5113 457.224 98.8 452.991 L98.8 458.083 Q91.3203 462.858 84.0952 465.245 Q76.8701 467.6 69.7405 467.6 Q62.6428 467.6 55.4495 465.245 Q48.2563 462.89 40.7447 458.083 L40.7447 452.991 Z" fill="#000000" fill-rule="nonzero" fill-opacity="1" /><path clip-path="url(#clip080)" d="M42.6863 441.373 L42.6863 434.944 L90.2063 434.944 L90.2063 441.373 L42.6863 441.373 Z" fill="#000000" fill-rule="nonzero" fill-opacity="1" /><path clip-path="url(#clip080)" d="M60.0328 401.747 Q59.4599 402.734 59.2053 403.911 Q58.9188 405.057 58.9188 406.458 Q58.9188 411.423 62.1653 414.096 Q65.38 416.738 71.4274 416.738 L90.2063 416.738 L90.2063 422.626 L54.5583 422.626 L54.5583 416.738 L60.0965 416.738 Q56.85 414.892 55.2904 411.932 Q53.699 408.972 53.699 404.739 Q53.699 404.134 53.7944 403.402 Q53.8581 402.67 54.0172 401.779 L60.0328 401.747 Z" fill="#000000" fill-rule="nonzero" fill-opacity="1" /><path clip-path="url(#clip080)" d="M70.9182 366.545 L73.7828 366.545 L73.7828 393.471 Q79.8302 393.09 83.013 389.843 Q86.1641 386.565 86.1641 380.74 Q86.1641 377.366 85.3365 374.215 Q84.509 371.032 82.8539 367.913 L88.3921 367.913 Q89.7289 371.064 90.4291 374.374 Q91.1293 377.685 91.1293 381.09 Q91.1293 389.62 86.1641 394.617 Q81.1988 399.583 72.7324 399.583 Q63.9796 399.583 58.8552 394.872 Q53.699 390.129 53.699 382.109 Q53.699 374.915 58.3459 370.746 Q62.9611 366.545 70.9182 366.545 M69.1995 372.401 Q64.3933 372.465 61.5288 375.106 Q58.6642 377.716 58.6642 382.045 Q58.6642 386.947 61.4333 389.907 Q64.2024 392.835 69.2313 393.281 L69.1995 372.401 Z" fill="#000000" fill-rule="nonzero" fill-opacity="1" /><path clip-path="url(#clip080)" d="M40.6811 356.932 L40.6811 351.076 L90.2063 351.076 L90.2063 356.932 L40.6811 356.932 Z" fill="#000000" fill-rule="nonzero" fill-opacity="1" /><path clip-path="url(#clip080)" d="M72.2868 322.621 Q72.2868 329.719 73.9101 332.456 Q75.5333 335.193 79.4482 335.193 Q82.5674 335.193 84.4135 333.156 Q86.2277 331.088 86.2277 327.555 Q86.2277 322.685 82.7902 319.757 Q79.3209 316.797 73.5918 316.797 L72.2868 316.797 L72.2868 322.621 M69.8679 310.94 L90.2063 310.94 L90.2063 316.797 L84.7954 316.797 Q88.0419 318.802 89.6015 321.794 Q91.1293 324.786 91.1293 329.114 Q91.1293 334.589 88.0738 337.835 Q84.9864 341.05 79.8302 341.05 Q73.8146 341.05 70.759 337.04 Q67.7035 332.997 67.7035 325.008 L67.7035 316.797 L67.1306 316.797 Q63.0884 316.797 60.8922 319.47 Q58.6642 322.112 58.6642 326.918 Q58.6642 329.974 59.3963 332.87 Q60.1283 335.766 61.5924 338.44 L56.1816 338.44 Q54.9403 335.225 54.3355 332.202 Q53.699 329.178 53.699 326.313 Q53.699 318.579 57.7094 314.76 Q61.7197 310.94 69.8679 310.94 Z" fill="#000000" fill-rule="nonzero" fill-opacity="1" /><path clip-path="url(#clip080)" d="M68.6902 269.245 L90.2063 269.245 L90.2063 275.101 L68.8812 275.101 Q63.8204 275.101 61.306 277.075 Q58.7915 279.048 58.7915 282.995 Q58.7915 287.737 61.8152 290.474 Q64.8389 293.212 70.0588 293.212 L90.2063 293.212 L90.2063 299.1 L54.5583 299.1 L54.5583 293.212 L60.0965 293.212 Q56.8818 291.111 55.2904 288.278 Q53.699 285.414 53.699 281.69 Q53.699 275.547 57.5184 272.396 Q61.306 269.245 68.6902 269.245 Z" fill="#000000" fill-rule="nonzero" fill-opacity="1" /><path clip-path="url(#clip080)" d="M59.9692 234.106 L40.6811 234.106 L40.6811 228.25 L90.2063 228.25 L90.2063 234.106 L84.8591 234.106 Q88.0419 235.952 89.6015 238.785 Q91.1293 241.586 91.1293 245.532 Q91.1293 251.994 85.9731 256.068 Q80.8169 260.11 72.4141 260.11 Q64.0114 260.11 58.8552 256.068 Q53.699 251.994 53.699 245.532 Q53.699 241.586 55.2586 238.785 Q56.7863 235.952 59.9692 234.106 M72.4141 254.063 Q78.8753 254.063 82.5674 251.421 Q86.2277 248.747 86.2277 244.1 Q86.2277 239.453 82.5674 236.78 Q78.8753 234.106 72.4141 234.106 Q65.9529 234.106 62.2927 236.78 Q58.6006 239.453 58.6006 244.1 Q58.6006 248.747 62.2927 251.421 Q65.9529 254.063 72.4141 254.063 Z" fill="#000000" fill-rule="nonzero" fill-opacity="1" /><path clip-path="url(#clip080)" d="M40.7447 217.11 L40.7447 212.017 Q48.2563 207.243 55.4495 204.887 Q62.6428 202.5 69.7405 202.5 Q76.8701 202.5 84.0952 204.887 Q91.3203 207.243 98.8 212.017 L98.8 217.11 Q91.5113 212.876 84.318 210.808 Q77.0929 208.707 69.7405 208.707 Q62.3881 208.707 55.2267 210.808 Q48.0653 212.876 40.7447 217.11 Z" fill="#000000" fill-rule="nonzero" fill-opacity="1" /><path clip-path="url(#clip082)" d="M288.747 298.389 L288.747 1042.58 L311.29 1042.58 L311.29 298.389 L288.747 298.389 L288.747 298.389  Z" fill="#009af9" fill-rule="evenodd" fill-opacity="0.5"/>
<polyline clip-path="url(#clip082)" style="stroke:#000000; stroke-linecap:round; stroke-linejoin:round; stroke-width:4; stroke-opacity:0.5; fill:none" points="288.747,298.389 288.747,1042.58 311.29,1042.58 311.29,298.389 288.747,298.389 "/>
<path clip-path="url(#clip082)" d="M316.926 341.823 L316.926 1042.58 L339.469 1042.58 L339.469 341.823 L316.926 341.823 L316.926 341.823  Z" fill="#009af9" fill-rule="evenodd" fill-opacity="0.5"/>
<polyline clip-path="url(#clip082)" style="stroke:#000000; stroke-linecap:round; stroke-linejoin:round; stroke-width:4; stroke-opacity:0.5; fill:none" points="316.926,341.823 316.926,1042.58 339.469,1042.58 339.469,341.823 316.926,341.823 "/>
<path clip-path="url(#clip082)" d="M345.105 285.425 L345.105 1042.58 L367.649 1042.58 L367.649 285.425 L345.105 285.425 L345.105 285.425  Z" fill="#009af9" fill-rule="evenodd" fill-opacity="0.5"/>
<polyline clip-path="url(#clip082)" style="stroke:#000000; stroke-linecap:round; stroke-linejoin:round; stroke-width:4; stroke-opacity:0.5; fill:none" points="345.105,285.425 345.105,1042.58 367.649,1042.58 367.649,285.425 345.105,285.425 "/>
<path clip-path="url(#clip082)" d="M373.285 229.026 L373.285 1042.58 L395.828 1042.58 L395.828 229.026 L373.285 229.026 L373.285 229.026  Z" fill="#009af9" fill-rule="evenodd" fill-opacity="0.5"/>
<polyline clip-path="url(#clip082)" style="stroke:#000000; stroke-linecap:round; stroke-linejoin:round; stroke-width:4; stroke-opacity:0.5; fill:none" points="373.285,229.026 373.285,1042.58 395.828,1042.58 395.828,229.026 373.285,229.026 "/>
<path clip-path="url(#clip082)" d="M401.464 239.344 L401.464 1042.58 L424.007 1042.58 L424.007 239.344 L401.464 239.344 L401.464 239.344  Z" fill="#009af9" fill-rule="evenodd" fill-opacity="0.5"/>
<polyline clip-path="url(#clip082)" style="stroke:#000000; stroke-linecap:round; stroke-linejoin:round; stroke-width:4; stroke-opacity:0.5; fill:none" points="401.464,239.344 401.464,1042.58 424.007,1042.58 424.007,239.344 401.464,239.344 "/>
<path clip-path="url(#clip082)" d="M429.643 261.336 L429.643 1042.58 L452.186 1042.58 L452.186 261.336 L429.643 261.336 L429.643 261.336  Z" fill="#009af9" fill-rule="evenodd" fill-opacity="0.5"/>
<polyline clip-path="url(#clip082)" style="stroke:#000000; stroke-linecap:round; stroke-linejoin:round; stroke-width:4; stroke-opacity:0.5; fill:none" points="429.643,261.336 429.643,1042.58 452.186,1042.58 452.186,261.336 429.643,261.336 "/>
<path clip-path="url(#clip082)" d="M457.822 326.5 L457.822 1042.58 L480.366 1042.58 L480.366 326.5 L457.822 326.5 L457.822 326.5  Z" fill="#009af9" fill-rule="evenodd" fill-opacity="0.5"/>
<polyline clip-path="url(#clip082)" style="stroke:#000000; stroke-linecap:round; stroke-linejoin:round; stroke-width:4; stroke-opacity:0.5; fill:none" points="457.822,326.5 457.822,1042.58 480.366,1042.58 480.366,326.5 457.822,326.5 "/>
<path clip-path="url(#clip082)" d="M486.001 285.425 L486.001 1042.58 L508.545 1042.58 L508.545 285.425 L486.001 285.425 L486.001 285.425  Z" fill="#009af9" fill-rule="evenodd" fill-opacity="0.5"/>
<polyline clip-path="url(#clip082)" style="stroke:#000000; stroke-linecap:round; stroke-linejoin:round; stroke-width:4; stroke-opacity:0.5; fill:none" points="486.001,285.425 486.001,1042.58 508.545,1042.58 508.545,285.425 486.001,285.425 "/>
<path clip-path="url(#clip082)" d="M514.181 250.101 L514.181 1042.58 L536.724 1042.58 L536.724 250.101 L514.181 250.101 L514.181 250.101  Z" fill="#009af9" fill-rule="evenodd" fill-opacity="0.5"/>
<polyline clip-path="url(#clip082)" style="stroke:#000000; stroke-linecap:round; stroke-linejoin:round; stroke-width:4; stroke-opacity:0.5; fill:none" points="514.181,250.101 514.181,1042.58 536.724,1042.58 536.724,250.101 514.181,250.101 "/>
<path clip-path="url(#clip082)" d="M542.36 110.236 L542.36 1042.58 L564.903 1042.58 L564.903 110.236 L542.36 110.236 L542.36 110.236  Z" fill="#009af9" fill-rule="evenodd" fill-opacity="0.5"/>
<polyline clip-path="url(#clip082)" style="stroke:#000000; stroke-linecap:round; stroke-linejoin:round; stroke-width:4; stroke-opacity:0.5; fill:none" points="542.36,110.236 542.36,1042.58 564.903,1042.58 564.903,110.236 542.36,110.236 "/>
<path clip-path="url(#clip082)" d="M570.539 261.336 L570.539 1042.58 L593.083 1042.58 L593.083 261.336 L570.539 261.336 L570.539 261.336  Z" fill="#009af9" fill-rule="evenodd" fill-opacity="0.5"/>
<polyline clip-path="url(#clip082)" style="stroke:#000000; stroke-linecap:round; stroke-linejoin:round; stroke-width:4; stroke-opacity:0.5; fill:none" points="570.539,261.336 570.539,1042.58 593.083,1042.58 593.083,261.336 570.539,261.336 "/>
<path clip-path="url(#clip082)" d="M598.718 158.857 L598.718 1042.58 L621.262 1042.58 L621.262 158.857 L598.718 158.857 L598.718 158.857  Z" fill="#009af9" fill-rule="evenodd" fill-opacity="0.5"/>
<polyline clip-path="url(#clip082)" style="stroke:#000000; stroke-linecap:round; stroke-linejoin:round; stroke-width:4; stroke-opacity:0.5; fill:none" points="598.718,158.857 598.718,1042.58 621.262,1042.58 621.262,158.857 598.718,158.857 "/>
<path clip-path="url(#clip082)" d="M626.898 110.236 L626.898 1042.58 L649.441 1042.58 L649.441 110.236 L626.898 110.236 L626.898 110.236  Z" fill="#009af9" fill-rule="evenodd" fill-opacity="0.5"/>
<polyline clip-path="url(#clip082)" style="stroke:#000000; stroke-linecap:round; stroke-linejoin:round; stroke-width:4; stroke-opacity:0.5; fill:none" points="626.898,110.236 626.898,1042.58 649.441,1042.58 649.441,110.236 626.898,110.236 "/>
<path clip-path="url(#clip082)" d="M655.077 285.425 L655.077 1042.58 L677.62 1042.58 L677.62 285.425 L655.077 285.425 L655.077 285.425  Z" fill="#009af9" fill-rule="evenodd" fill-opacity="0.5"/>
<polyline clip-path="url(#clip082)" style="stroke:#000000; stroke-linecap:round; stroke-linejoin:round; stroke-width:4; stroke-opacity:0.5; fill:none" points="655.077,285.425 655.077,1042.58 677.62,1042.58 677.62,285.425 655.077,285.425 "/>
<path clip-path="url(#clip082)" d="M683.256 298.389 L683.256 1042.58 L705.8 1042.58 L705.8 298.389 L683.256 298.389 L683.256 298.389  Z" fill="#009af9" fill-rule="evenodd" fill-opacity="0.5"/>
<polyline clip-path="url(#clip082)" style="stroke:#000000; stroke-linecap:round; stroke-linejoin:round; stroke-width:4; stroke-opacity:0.5; fill:none" points="683.256,298.389 683.256,1042.58 705.8,1042.58 705.8,298.389 683.256,298.389 "/>
<path clip-path="url(#clip082)" d="M711.435 191.514 L711.435 1042.58 L733.979 1042.58 L733.979 191.514 L711.435 191.514 L711.435 191.514  Z" fill="#009af9" fill-rule="evenodd" fill-opacity="0.5"/>
<polyline clip-path="url(#clip082)" style="stroke:#000000; stroke-linecap:round; stroke-linejoin:round; stroke-width:4; stroke-opacity:0.5; fill:none" points="711.435,191.514 711.435,1042.58 733.979,1042.58 733.979,191.514 711.435,191.514 "/>
<path clip-path="url(#clip082)" d="M739.615 209.575 L739.615 1042.58 L762.158 1042.58 L762.158 209.575 L739.615 209.575 L739.615 209.575  Z" fill="#009af9" fill-rule="evenodd" fill-opacity="0.5"/>
<polyline clip-path="url(#clip082)" style="stroke:#000000; stroke-linecap:round; stroke-linejoin:round; stroke-width:4; stroke-opacity:0.5; fill:none" points="739.615,209.575 739.615,1042.58 762.158,1042.58 762.158,209.575 739.615,209.575 "/>
<path clip-path="url(#clip082)" d="M767.794 273.093 L767.794 1042.58 L790.337 1042.58 L790.337 273.093 L767.794 273.093 L767.794 273.093  Z" fill="#009af9" fill-rule="evenodd" fill-opacity="0.5"/>
<polyline clip-path="url(#clip082)" style="stroke:#000000; stroke-linecap:round; stroke-linejoin:round; stroke-width:4; stroke-opacity:0.5; fill:none" points="767.794,273.093 767.794,1042.58 790.337,1042.58 790.337,273.093 767.794,273.093 "/>
<path clip-path="url(#clip082)" d="M795.973 174.659 L795.973 1042.58 L818.517 1042.58 L818.517 174.659 L795.973 174.659 L795.973 174.659  Z" fill="#009af9" fill-rule="evenodd" fill-opacity="0.5"/>
<polyline clip-path="url(#clip082)" style="stroke:#000000; stroke-linecap:round; stroke-linejoin:round; stroke-width:4; stroke-opacity:0.5; fill:none" points="795.973,174.659 795.973,1042.58 818.517,1042.58 818.517,174.659 795.973,174.659 "/>
<path clip-path="url(#clip082)" d="M824.152 285.425 L824.152 1042.58 L846.696 1042.58 L846.696 285.425 L824.152 285.425 L824.152 285.425  Z" fill="#009af9" fill-rule="evenodd" fill-opacity="0.5"/>
<polyline clip-path="url(#clip082)" style="stroke:#000000; stroke-linecap:round; stroke-linejoin:round; stroke-width:4; stroke-opacity:0.5; fill:none" points="824.152,285.425 824.152,1042.58 846.696,1042.58 846.696,285.425 824.152,285.425 "/>
<path clip-path="url(#clip082)" d="M852.332 517.011 L852.332 1042.58 L874.875 1042.58 L874.875 517.011 L852.332 517.011 L852.332 517.011  Z" fill="#009af9" fill-rule="evenodd" fill-opacity="0.5"/>
<polyline clip-path="url(#clip082)" style="stroke:#000000; stroke-linecap:round; stroke-linejoin:round; stroke-width:4; stroke-opacity:0.5; fill:none" points="852.332,517.011 852.332,1042.58 874.875,1042.58 874.875,517.011 852.332,517.011 "/>
<path clip-path="url(#clip082)" d="M880.511 460.613 L880.511 1042.58 L903.054 1042.58 L903.054 460.613 L880.511 460.613 L880.511 460.613  Z" fill="#009af9" fill-rule="evenodd" fill-opacity="0.5"/>
<polyline clip-path="url(#clip082)" style="stroke:#000000; stroke-linecap:round; stroke-linejoin:round; stroke-width:4; stroke-opacity:0.5; fill:none" points="880.511,460.613 880.511,1042.58 903.054,1042.58 903.054,460.613 880.511,460.613 "/>
<path clip-path="url(#clip082)" d="M908.69 341.823 L908.69 1042.58 L931.234 1042.58 L931.234 341.823 L908.69 341.823 L908.69 341.823  Z" fill="#009af9" fill-rule="evenodd" fill-opacity="0.5"/>
<polyline clip-path="url(#clip082)" style="stroke:#000000; stroke-linecap:round; stroke-linejoin:round; stroke-width:4; stroke-opacity:0.5; fill:none" points="908.69,341.823 908.69,1042.58 931.234,1042.58 931.234,341.823 908.69,341.823 "/>
<path clip-path="url(#clip082)" d="M936.869 229.026 L936.869 1042.58 L959.413 1042.58 L959.413 229.026 L936.869 229.026 L936.869 229.026  Z" fill="#009af9" fill-rule="evenodd" fill-opacity="0.5"/>
<polyline clip-path="url(#clip082)" style="stroke:#000000; stroke-linecap:round; stroke-linejoin:round; stroke-width:4; stroke-opacity:0.5; fill:none" points="936.869,229.026 936.869,1042.58 959.413,1042.58 959.413,229.026 936.869,229.026 "/>
<path clip-path="url(#clip082)" d="M965.049 326.5 L965.049 1042.58 L987.592 1042.58 L987.592 326.5 L965.049 326.5 L965.049 326.5  Z" fill="#009af9" fill-rule="evenodd" fill-opacity="0.5"/>
<polyline clip-path="url(#clip082)" style="stroke:#000000; stroke-linecap:round; stroke-linejoin:round; stroke-width:4; stroke-opacity:0.5; fill:none" points="965.049,326.5 965.049,1042.58 987.592,1042.58 987.592,326.5 965.049,326.5 "/>
<path clip-path="url(#clip082)" d="M993.228 250.101 L993.228 1042.58 L1015.77 1042.58 L1015.77 250.101 L993.228 250.101 L993.228 250.101  Z" fill="#009af9" fill-rule="evenodd" fill-opacity="0.5"/>
<polyline clip-path="url(#clip082)" style="stroke:#000000; stroke-linecap:round; stroke-linejoin:round; stroke-width:4; stroke-opacity:0.5; fill:none" points="993.228,250.101 993.228,1042.58 1015.77,1042.58 1015.77,250.101 993.228,250.101 "/>
<path clip-path="url(#clip082)" d="M1021.41 285.425 L1021.41 1042.58 L1043.95 1042.58 L1043.95 285.425 L1021.41 285.425 L1021.41 285.425  Z" fill="#009af9" fill-rule="evenodd" fill-opacity="0.5"/>
<polyline clip-path="url(#clip082)" style="stroke:#000000; stroke-linecap:round; stroke-linejoin:round; stroke-width:4; stroke-opacity:0.5; fill:none" points="1021.41,285.425 1021.41,1042.58 1043.95,1042.58 1043.95,285.425 1021.41,285.425 "/>
<path clip-path="url(#clip082)" d="M1049.59 358.134 L1049.59 1042.58 L1072.13 1042.58 L1072.13 358.134 L1049.59 358.134 L1049.59 358.134  Z" fill="#009af9" fill-rule="evenodd" fill-opacity="0.5"/>
<polyline clip-path="url(#clip082)" style="stroke:#000000; stroke-linecap:round; stroke-linejoin:round; stroke-width:4; stroke-opacity:0.5; fill:none" points="1049.59,358.134 1049.59,1042.58 1072.13,1042.58 1072.13,358.134 1049.59,358.134 "/>
<path clip-path="url(#clip082)" d="M1077.77 273.093 L1077.77 1042.58 L1100.31 1042.58 L1100.31 273.093 L1077.77 273.093 L1077.77 273.093  Z" fill="#009af9" fill-rule="evenodd" fill-opacity="0.5"/>
<polyline clip-path="url(#clip082)" style="stroke:#000000; stroke-linecap:round; stroke-linejoin:round; stroke-width:4; stroke-opacity:0.5; fill:none" points="1077.77,273.093 1077.77,1042.58 1100.31,1042.58 1100.31,273.093 1077.77,273.093 "/>
<path clip-path="url(#clip082)" d="M1105.94 261.336 L1105.94 1042.58 L1128.49 1042.58 L1128.49 261.336 L1105.94 261.336 L1105.94 261.336  Z" fill="#009af9" fill-rule="evenodd" fill-opacity="0.5"/>
<polyline clip-path="url(#clip082)" style="stroke:#000000; stroke-linecap:round; stroke-linejoin:round; stroke-width:4; stroke-opacity:0.5; fill:none" points="1105.94,261.336 1105.94,1042.58 1128.49,1042.58 1128.49,261.336 1105.94,261.336 "/>
<path clip-path="url(#clip082)" d="M1134.12 229.026 L1134.12 1042.58 L1156.67 1042.58 L1156.67 229.026 L1134.12 229.026 L1134.12 229.026  Z" fill="#009af9" fill-rule="evenodd" fill-opacity="0.5"/>
<polyline clip-path="url(#clip082)" style="stroke:#000000; stroke-linecap:round; stroke-linejoin:round; stroke-width:4; stroke-opacity:0.5; fill:none" points="1134.12,229.026 1134.12,1042.58 1156.67,1042.58 1156.67,229.026 1134.12,229.026 "/>
<path clip-path="url(#clip082)" d="M1162.3 239.344 L1162.3 1042.58 L1184.85 1042.58 L1184.85 239.344 L1162.3 239.344 L1162.3 239.344  Z" fill="#009af9" fill-rule="evenodd" fill-opacity="0.5"/>
<polyline clip-path="url(#clip082)" style="stroke:#000000; stroke-linecap:round; stroke-linejoin:round; stroke-width:4; stroke-opacity:0.5; fill:none" points="1162.3,239.344 1162.3,1042.58 1184.85,1042.58 1184.85,239.344 1162.3,239.344 "/>
<path clip-path="url(#clip082)" d="M1190.48 200.383 L1190.48 1042.58 L1213.03 1042.58 L1213.03 200.383 L1190.48 200.383 L1190.48 200.383  Z" fill="#009af9" fill-rule="evenodd" fill-opacity="0.5"/>
<polyline clip-path="url(#clip082)" style="stroke:#000000; stroke-linecap:round; stroke-linejoin:round; stroke-width:4; stroke-opacity:0.5; fill:none" points="1190.48,200.383 1190.48,1042.58 1213.03,1042.58 1213.03,200.383 1190.48,200.383 "/>
<path clip-path="url(#clip082)" d="M1218.66 375.572 L1218.66 1042.58 L1241.21 1042.58 L1241.21 375.572 L1218.66 375.572 L1218.66 375.572  Z" fill="#009af9" fill-rule="evenodd" fill-opacity="0.5"/>
<polyline clip-path="url(#clip082)" style="stroke:#000000; stroke-linecap:round; stroke-linejoin:round; stroke-width:4; stroke-opacity:0.5; fill:none" points="1218.66,375.572 1218.66,1042.58 1241.21,1042.58 1241.21,375.572 1218.66,375.572 "/>
<path clip-path="url(#clip082)" d="M1246.84 517.011 L1246.84 1042.58 L1269.38 1042.58 L1269.38 517.011 L1246.84 517.011 L1246.84 517.011  Z" fill="#009af9" fill-rule="evenodd" fill-opacity="0.5"/>
<polyline clip-path="url(#clip082)" style="stroke:#000000; stroke-linecap:round; stroke-linejoin:round; stroke-width:4; stroke-opacity:0.5; fill:none" points="1246.84,517.011 1246.84,1042.58 1269.38,1042.58 1269.38,517.011 1246.84,517.011 "/>
<path clip-path="url(#clip082)" d="M1275.02 298.389 L1275.02 1042.58 L1297.56 1042.58 L1297.56 298.389 L1275.02 298.389 L1275.02 298.389  Z" fill="#009af9" fill-rule="evenodd" fill-opacity="0.5"/>
<polyline clip-path="url(#clip082)" style="stroke:#000000; stroke-linecap:round; stroke-linejoin:round; stroke-width:4; stroke-opacity:0.5; fill:none" points="1275.02,298.389 1275.02,1042.58 1297.56,1042.58 1297.56,298.389 1275.02,298.389 "/>
<path clip-path="url(#clip082)" d="M1303.2 158.857 L1303.2 1042.58 L1325.74 1042.58 L1325.74 158.857 L1303.2 158.857 L1303.2 158.857  Z" fill="#009af9" fill-rule="evenodd" fill-opacity="0.5"/>
<polyline clip-path="url(#clip082)" style="stroke:#000000; stroke-linecap:round; stroke-linejoin:round; stroke-width:4; stroke-opacity:0.5; fill:none" points="1303.2,158.857 1303.2,1042.58 1325.74,1042.58 1325.74,158.857 1303.2,158.857 "/>
<path clip-path="url(#clip082)" d="M1331.38 298.389 L1331.38 1042.58 L1353.92 1042.58 L1353.92 298.389 L1331.38 298.389 L1331.38 298.389  Z" fill="#009af9" fill-rule="evenodd" fill-opacity="0.5"/>
<polyline clip-path="url(#clip082)" style="stroke:#000000; stroke-linecap:round; stroke-linejoin:round; stroke-width:4; stroke-opacity:0.5; fill:none" points="1331.38,298.389 1331.38,1042.58 1353.92,1042.58 1353.92,298.389 1331.38,298.389 "/>
<path clip-path="url(#clip082)" d="M1359.56 209.575 L1359.56 1042.58 L1382.1 1042.58 L1382.1 209.575 L1359.56 209.575 L1359.56 209.575  Z" fill="#009af9" fill-rule="evenodd" fill-opacity="0.5"/>
<polyline clip-path="url(#clip082)" style="stroke:#000000; stroke-linecap:round; stroke-linejoin:round; stroke-width:4; stroke-opacity:0.5; fill:none" points="1359.56,209.575 1359.56,1042.58 1382.1,1042.58 1382.1,209.575 1359.56,209.575 "/>
<path clip-path="url(#clip082)" d="M1387.74 200.383 L1387.74 1042.58 L1410.28 1042.58 L1410.28 200.383 L1387.74 200.383 L1387.74 200.383  Z" fill="#009af9" fill-rule="evenodd" fill-opacity="0.5"/>
<polyline clip-path="url(#clip082)" style="stroke:#000000; stroke-linecap:round; stroke-linejoin:round; stroke-width:4; stroke-opacity:0.5; fill:none" points="1387.74,200.383 1387.74,1042.58 1410.28,1042.58 1410.28,200.383 1387.74,200.383 "/>
<path clip-path="url(#clip082)" d="M1415.92 261.336 L1415.92 1042.58 L1438.46 1042.58 L1438.46 261.336 L1415.92 261.336 L1415.92 261.336  Z" fill="#009af9" fill-rule="evenodd" fill-opacity="0.5"/>
<polyline clip-path="url(#clip082)" style="stroke:#000000; stroke-linecap:round; stroke-linejoin:round; stroke-width:4; stroke-opacity:0.5; fill:none" points="1415.92,261.336 1415.92,1042.58 1438.46,1042.58 1438.46,261.336 1415.92,261.336 "/>
<path clip-path="url(#clip082)" d="M1444.1 517.011 L1444.1 1042.58 L1466.64 1042.58 L1466.64 517.011 L1444.1 517.011 L1444.1 517.011  Z" fill="#009af9" fill-rule="evenodd" fill-opacity="0.5"/>
<polyline clip-path="url(#clip082)" style="stroke:#000000; stroke-linecap:round; stroke-linejoin:round; stroke-width:4; stroke-opacity:0.5; fill:none" points="1444.1,517.011 1444.1,1042.58 1466.64,1042.58 1466.64,517.011 1444.1,517.011 "/>
<path clip-path="url(#clip082)" d="M1472.28 375.572 L1472.28 1042.58 L1494.82 1042.58 L1494.82 375.572 L1472.28 375.572 L1472.28 375.572  Z" fill="#009af9" fill-rule="evenodd" fill-opacity="0.5"/>
<polyline clip-path="url(#clip082)" style="stroke:#000000; stroke-linecap:round; stroke-linejoin:round; stroke-width:4; stroke-opacity:0.5; fill:none" points="1472.28,375.572 1472.28,1042.58 1494.82,1042.58 1494.82,375.572 1472.28,375.572 "/>
<path clip-path="url(#clip082)" d="M1500.45 298.389 L1500.45 1042.58 L1523 1042.58 L1523 298.389 L1500.45 298.389 L1500.45 298.389  Z" fill="#009af9" fill-rule="evenodd" fill-opacity="0.5"/>
<polyline clip-path="url(#clip082)" style="stroke:#000000; stroke-linecap:round; stroke-linejoin:round; stroke-width:4; stroke-opacity:0.5; fill:none" points="1500.45,298.389 1500.45,1042.58 1523,1042.58 1523,298.389 1500.45,298.389 "/>
<path clip-path="url(#clip082)" d="M1528.63 312.054 L1528.63 1042.58 L1551.18 1042.58 L1551.18 312.054 L1528.63 312.054 L1528.63 312.054  Z" fill="#009af9" fill-rule="evenodd" fill-opacity="0.5"/>
<polyline clip-path="url(#clip082)" style="stroke:#000000; stroke-linecap:round; stroke-linejoin:round; stroke-width:4; stroke-opacity:0.5; fill:none" points="1528.63,312.054 1528.63,1042.58 1551.18,1042.58 1551.18,312.054 1528.63,312.054 "/>
<path clip-path="url(#clip082)" d="M1556.81 261.336 L1556.81 1042.58 L1579.36 1042.58 L1579.36 261.336 L1556.81 261.336 L1556.81 261.336  Z" fill="#009af9" fill-rule="evenodd" fill-opacity="0.5"/>
<polyline clip-path="url(#clip082)" style="stroke:#000000; stroke-linecap:round; stroke-linejoin:round; stroke-width:4; stroke-opacity:0.5; fill:none" points="1556.81,261.336 1556.81,1042.58 1579.36,1042.58 1579.36,261.336 1556.81,261.336 "/>
<path clip-path="url(#clip082)" d="M1584.99 298.389 L1584.99 1042.58 L1607.54 1042.58 L1607.54 298.389 L1584.99 298.389 L1584.99 298.389  Z" fill="#009af9" fill-rule="evenodd" fill-opacity="0.5"/>
<polyline clip-path="url(#clip082)" style="stroke:#000000; stroke-linecap:round; stroke-linejoin:round; stroke-width:4; stroke-opacity:0.5; fill:none" points="1584.99,298.389 1584.99,1042.58 1607.54,1042.58 1607.54,298.389 1584.99,298.389 "/>
<path clip-path="url(#clip082)" d="M1613.17 436.524 L1613.17 1042.58 L1635.71 1042.58 L1635.71 436.524 L1613.17 436.524 L1613.17 436.524  Z" fill="#009af9" fill-rule="evenodd" fill-opacity="0.5"/>
<polyline clip-path="url(#clip082)" style="stroke:#000000; stroke-linecap:round; stroke-linejoin:round; stroke-width:4; stroke-opacity:0.5; fill:none" points="1613.17,436.524 1613.17,1042.58 1635.71,1042.58 1635.71,436.524 1613.17,436.524 "/>
<path clip-path="url(#clip082)" d="M1641.35 375.572 L1641.35 1042.58 L1663.89 1042.58 L1663.89 375.572 L1641.35 375.572 L1641.35 375.572  Z" fill="#009af9" fill-rule="evenodd" fill-opacity="0.5"/>
<polyline clip-path="url(#clip082)" style="stroke:#000000; stroke-linecap:round; stroke-linejoin:round; stroke-width:4; stroke-opacity:0.5; fill:none" points="1641.35,375.572 1641.35,1042.58 1663.89,1042.58 1663.89,375.572 1641.35,375.572 "/>
<path clip-path="url(#clip082)" d="M1669.53 326.5 L1669.53 1042.58 L1692.07 1042.58 L1692.07 326.5 L1669.53 326.5 L1669.53 326.5  Z" fill="#009af9" fill-rule="evenodd" fill-opacity="0.5"/>
<polyline clip-path="url(#clip082)" style="stroke:#000000; stroke-linecap:round; stroke-linejoin:round; stroke-width:4; stroke-opacity:0.5; fill:none" points="1669.53,326.5 1669.53,1042.58 1692.07,1042.58 1692.07,326.5 1669.53,326.5 "/>
<path clip-path="url(#clip082)" d="M1697.71 191.514 L1697.71 1042.58 L1720.25 1042.58 L1720.25 191.514 L1697.71 191.514 L1697.71 191.514  Z" fill="#009af9" fill-rule="evenodd" fill-opacity="0.5"/>
<polyline clip-path="url(#clip082)" style="stroke:#000000; stroke-linecap:round; stroke-linejoin:round; stroke-width:4; stroke-opacity:0.5; fill:none" points="1697.71,191.514 1697.71,1042.58 1720.25,1042.58 1720.25,191.514 1697.71,191.514 "/>
<path clip-path="url(#clip082)" d="M1725.89 394.302 L1725.89 1042.58 L1748.43 1042.58 L1748.43 394.302 L1725.89 394.302 L1725.89 394.302  Z" fill="#009af9" fill-rule="evenodd" fill-opacity="0.5"/>
<polyline clip-path="url(#clip082)" style="stroke:#000000; stroke-linecap:round; stroke-linejoin:round; stroke-width:4; stroke-opacity:0.5; fill:none" points="1725.89,394.302 1725.89,1042.58 1748.43,1042.58 1748.43,394.302 1725.89,394.302 "/>
<path clip-path="url(#clip082)" d="M1754.07 219.114 L1754.07 1042.58 L1776.61 1042.58 L1776.61 219.114 L1754.07 219.114 L1754.07 219.114  Z" fill="#009af9" fill-rule="evenodd" fill-opacity="0.5"/>
<polyline clip-path="url(#clip082)" style="stroke:#000000; stroke-linecap:round; stroke-linejoin:round; stroke-width:4; stroke-opacity:0.5; fill:none" points="1754.07,219.114 1754.07,1042.58 1776.61,1042.58 1776.61,219.114 1754.07,219.114 "/>
<path clip-path="url(#clip082)" d="M1782.25 312.054 L1782.25 1042.58 L1804.79 1042.58 L1804.79 312.054 L1782.25 312.054 L1782.25 312.054  Z" fill="#009af9" fill-rule="evenodd" fill-opacity="0.5"/>
<polyline clip-path="url(#clip082)" style="stroke:#000000; stroke-linecap:round; stroke-linejoin:round; stroke-width:4; stroke-opacity:0.5; fill:none" points="1782.25,312.054 1782.25,1042.58 1804.79,1042.58 1804.79,312.054 1782.25,312.054 "/>
<path clip-path="url(#clip082)" d="M1810.43 436.524 L1810.43 1042.58 L1832.97 1042.58 L1832.97 436.524 L1810.43 436.524 L1810.43 436.524  Z" fill="#009af9" fill-rule="evenodd" fill-opacity="0.5"/>
<polyline clip-path="url(#clip082)" style="stroke:#000000; stroke-linecap:round; stroke-linejoin:round; stroke-width:4; stroke-opacity:0.5; fill:none" points="1810.43,436.524 1810.43,1042.58 1832.97,1042.58 1832.97,436.524 1810.43,436.524 "/>
<path clip-path="url(#clip082)" d="M1838.61 550.76 L1838.61 1042.58 L1861.15 1042.58 L1861.15 550.76 L1838.61 550.76 L1838.61 550.76  Z" fill="#009af9" fill-rule="evenodd" fill-opacity="0.5"/>
<polyline clip-path="url(#clip082)" style="stroke:#000000; stroke-linecap:round; stroke-linejoin:round; stroke-width:4; stroke-opacity:0.5; fill:none" points="1838.61,550.76 1838.61,1042.58 1861.15,1042.58 1861.15,550.76 1838.61,550.76 "/>
<path clip-path="url(#clip082)" d="M1866.78 517.011 L1866.78 1042.58 L1889.33 1042.58 L1889.33 517.011 L1866.78 517.011 L1866.78 517.011  Z" fill="#009af9" fill-rule="evenodd" fill-opacity="0.5"/>
<polyline clip-path="url(#clip082)" style="stroke:#000000; stroke-linecap:round; stroke-linejoin:round; stroke-width:4; stroke-opacity:0.5; fill:none" points="1866.78,517.011 1866.78,1042.58 1889.33,1042.58 1889.33,517.011 1866.78,517.011 "/>
<path clip-path="url(#clip082)" d="M1894.96 517.011 L1894.96 1042.58 L1917.51 1042.58 L1917.51 517.011 L1894.96 517.011 L1894.96 517.011  Z" fill="#009af9" fill-rule="evenodd" fill-opacity="0.5"/>
<polyline clip-path="url(#clip082)" style="stroke:#000000; stroke-linecap:round; stroke-linejoin:round; stroke-width:4; stroke-opacity:0.5; fill:none" points="1894.96,517.011 1894.96,1042.58 1917.51,1042.58 1917.51,517.011 1894.96,517.011 "/>
<path clip-path="url(#clip082)" d="M1923.14 239.344 L1923.14 1042.58 L1945.69 1042.58 L1945.69 239.344 L1923.14 239.344 L1923.14 239.344  Z" fill="#009af9" fill-rule="evenodd" fill-opacity="0.5"/>
<polyline clip-path="url(#clip082)" style="stroke:#000000; stroke-linecap:round; stroke-linejoin:round; stroke-width:4; stroke-opacity:0.5; fill:none" points="1923.14,239.344 1923.14,1042.58 1945.69,1042.58 1945.69,239.344 1923.14,239.344 "/>
<path clip-path="url(#clip082)" d="M1951.32 312.054 L1951.32 1042.58 L1973.87 1042.58 L1973.87 312.054 L1951.32 312.054 L1951.32 312.054  Z" fill="#009af9" fill-rule="evenodd" fill-opacity="0.5"/>
<polyline clip-path="url(#clip082)" style="stroke:#000000; stroke-linecap:round; stroke-linejoin:round; stroke-width:4; stroke-opacity:0.5; fill:none" points="1951.32,312.054 1951.32,1042.58 1973.87,1042.58 1973.87,312.054 1951.32,312.054 "/>
<path clip-path="url(#clip082)" d="M1979.5 414.532 L1979.5 1042.58 L2002.04 1042.58 L2002.04 414.532 L1979.5 414.532 L1979.5 414.532  Z" fill="#009af9" fill-rule="evenodd" fill-opacity="0.5"/>
<polyline clip-path="url(#clip082)" style="stroke:#000000; stroke-linecap:round; stroke-linejoin:round; stroke-width:4; stroke-opacity:0.5; fill:none" points="1979.5,414.532 1979.5,1042.58 2002.04,1042.58 2002.04,414.532 1979.5,414.532 "/>
<path clip-path="url(#clip082)" d="M2007.68 589.721 L2007.68 1042.58 L2030.22 1042.58 L2030.22 589.721 L2007.68 589.721 L2007.68 589.721  Z" fill="#009af9" fill-rule="evenodd" fill-opacity="0.5"/>
<polyline clip-path="url(#clip082)" style="stroke:#000000; stroke-linecap:round; stroke-linejoin:round; stroke-width:4; stroke-opacity:0.5; fill:none" points="2007.68,589.721 2007.68,1042.58 2030.22,1042.58 2030.22,589.721 2007.68,589.721 "/>
<path clip-path="url(#clip082)" d="M2035.86 414.532 L2035.86 1042.58 L2058.4 1042.58 L2058.4 414.532 L2035.86 414.532 L2035.86 414.532  Z" fill="#009af9" fill-rule="evenodd" fill-opacity="0.5"/>
<polyline clip-path="url(#clip082)" style="stroke:#000000; stroke-linecap:round; stroke-linejoin:round; stroke-width:4; stroke-opacity:0.5; fill:none" points="2035.86,414.532 2035.86,1042.58 2058.4,1042.58 2058.4,414.532 2035.86,414.532 "/>
<path clip-path="url(#clip082)" d="M2064.04 764.909 L2064.04 1042.58 L2086.58 1042.58 L2086.58 764.909 L2064.04 764.909 L2064.04 764.909  Z" fill="#009af9" fill-rule="evenodd" fill-opacity="0.5"/>
<polyline clip-path="url(#clip082)" style="stroke:#000000; stroke-linecap:round; stroke-linejoin:round; stroke-width:4; stroke-opacity:0.5; fill:none" points="2064.04,764.909 2064.04,1042.58 2086.58,1042.58 2086.58,764.909 2064.04,764.909 "/>
<path clip-path="url(#clip082)" d="M2092.22 460.613 L2092.22 1042.58 L2114.76 1042.58 L2114.76 460.613 L2092.22 460.613 L2092.22 460.613  Z" fill="#009af9" fill-rule="evenodd" fill-opacity="0.5"/>
<polyline clip-path="url(#clip082)" style="stroke:#000000; stroke-linecap:round; stroke-linejoin:round; stroke-width:4; stroke-opacity:0.5; fill:none" points="2092.22,460.613 2092.22,1042.58 2114.76,1042.58 2114.76,460.613 2092.22,460.613 "/>
<path clip-path="url(#clip082)" d="M2120.4 414.532 L2120.4 1042.58 L2142.94 1042.58 L2142.94 414.532 L2120.4 414.532 L2120.4 414.532  Z" fill="#009af9" fill-rule="evenodd" fill-opacity="0.5"/>
<polyline clip-path="url(#clip082)" style="stroke:#000000; stroke-linecap:round; stroke-linejoin:round; stroke-width:4; stroke-opacity:0.5; fill:none" points="2120.4,414.532 2120.4,1042.58 2142.94,1042.58 2142.94,414.532 2120.4,414.532 "/>
<path clip-path="url(#clip082)" d="M2148.58 436.524 L2148.58 1042.58 L2171.12 1042.58 L2171.12 436.524 L2148.58 436.524 L2148.58 436.524  Z" fill="#009af9" fill-rule="evenodd" fill-opacity="0.5"/>
<polyline clip-path="url(#clip082)" style="stroke:#000000; stroke-linecap:round; stroke-linejoin:round; stroke-width:4; stroke-opacity:0.5; fill:none" points="2148.58,436.524 2148.58,1042.58 2171.12,1042.58 2171.12,436.524 2148.58,436.524 "/>
<path clip-path="url(#clip082)" d="M2176.76 487.242 L2176.76 1042.58 L2199.3 1042.58 L2199.3 487.242 L2176.76 487.242 L2176.76 487.242  Z" fill="#009af9" fill-rule="evenodd" fill-opacity="0.5"/>
<polyline clip-path="url(#clip082)" style="stroke:#000000; stroke-linecap:round; stroke-linejoin:round; stroke-width:4; stroke-opacity:0.5; fill:none" points="2176.76,487.242 2176.76,1042.58 2199.3,1042.58 2199.3,487.242 2176.76,487.242 "/>
<path clip-path="url(#clip082)" d="M2204.94 394.302 L2204.94 1042.58 L2227.48 1042.58 L2227.48 394.302 L2204.94 394.302 L2204.94 394.302  Z" fill="#009af9" fill-rule="evenodd" fill-opacity="0.5"/>
<polyline clip-path="url(#clip082)" style="stroke:#000000; stroke-linecap:round; stroke-linejoin:round; stroke-width:4; stroke-opacity:0.5; fill:none" points="2204.94,394.302 2204.94,1042.58 2227.48,1042.58 2227.48,394.302 2204.94,394.302 "/>
<path clip-path="url(#clip082)" d="M2233.11 589.721 L2233.11 1042.58 L2255.66 1042.58 L2255.66 589.721 L2233.11 589.721 L2233.11 589.721  Z" fill="#009af9" fill-rule="evenodd" fill-opacity="0.5"/>
<polyline clip-path="url(#clip082)" style="stroke:#000000; stroke-linecap:round; stroke-linejoin:round; stroke-width:4; stroke-opacity:0.5; fill:none" points="2233.11,589.721 2233.11,1042.58 2255.66,1042.58 2255.66,589.721 2233.11,589.721 "/>
<path clip-path="url(#clip082)" d="M2261.29 635.801 L2261.29 1042.58 L2283.84 1042.58 L2283.84 635.801 L2261.29 635.801 L2261.29 635.801  Z" fill="#009af9" fill-rule="evenodd" fill-opacity="0.5"/>
<polyline clip-path="url(#clip082)" style="stroke:#000000; stroke-linecap:round; stroke-linejoin:round; stroke-width:4; stroke-opacity:0.5; fill:none" points="2261.29,635.801 2261.29,1042.58 2283.84,1042.58 2283.84,635.801 2261.29,635.801 "/>
<path clip-path="url(#clip082)" d="M2289.47 341.823 L2289.47 1042.58 L2312.02 1042.58 L2312.02 341.823 L2289.47 341.823 L2289.47 341.823  Z" fill="#009af9" fill-rule="evenodd" fill-opacity="0.5"/>
<polyline clip-path="url(#clip082)" style="stroke:#000000; stroke-linecap:round; stroke-linejoin:round; stroke-width:4; stroke-opacity:0.5; fill:none" points="2289.47,341.823 2289.47,1042.58 2312.02,1042.58 2312.02,341.823 2289.47,341.823 "/>
<path clip-path="url(#clip082)" d="M2317.65 460.613 L2317.65 1042.58 L2340.2 1042.58 L2340.2 460.613 L2317.65 460.613 L2317.65 460.613  Z" fill="#009af9" fill-rule="evenodd" fill-opacity="0.5"/>
<polyline clip-path="url(#clip082)" style="stroke:#000000; stroke-linecap:round; stroke-linejoin:round; stroke-width:4; stroke-opacity:0.5; fill:none" points="2317.65,460.613 2317.65,1042.58 2340.2,1042.58 2340.2,460.613 2317.65,460.613 "/>
<path clip-path="url(#clip082)" d="M2345.83 589.721 L2345.83 1042.58 L2368.38 1042.58 L2368.38 589.721 L2345.83 589.721 L2345.83 589.721  Z" fill="#009af9" fill-rule="evenodd" fill-opacity="0.5"/>
<polyline clip-path="url(#clip082)" style="stroke:#000000; stroke-linecap:round; stroke-linejoin:round; stroke-width:4; stroke-opacity:0.5; fill:none" points="2345.83,589.721 2345.83,1042.58 2368.38,1042.58 2368.38,589.721 2345.83,589.721 "/>
<path clip-path="url(#clip082)" d="M2374.01 460.613 L2374.01 1042.58 L2396.55 1042.58 L2396.55 460.613 L2374.01 460.613 L2374.01 460.613  Z" fill="#009af9" fill-rule="evenodd" fill-opacity="0.5"/>
<polyline clip-path="url(#clip082)" style="stroke:#000000; stroke-linecap:round; stroke-linejoin:round; stroke-width:4; stroke-opacity:0.5; fill:none" points="2374.01,460.613 2374.01,1042.58 2396.55,1042.58 2396.55,460.613 2374.01,460.613 "/>
<path clip-path="url(#clip082)" d="M2402.19 460.613 L2402.19 1042.58 L2424.73 1042.58 L2424.73 460.613 L2402.19 460.613 L2402.19 460.613  Z" fill="#009af9" fill-rule="evenodd" fill-opacity="0.5"/>
<polyline clip-path="url(#clip082)" style="stroke:#000000; stroke-linecap:round; stroke-linejoin:round; stroke-width:4; stroke-opacity:0.5; fill:none" points="2402.19,460.613 2402.19,1042.58 2424.73,1042.58 2424.73,460.613 2402.19,460.613 "/>
<path clip-path="url(#clip082)" d="M2430.37 1042.58 L2430.37 1042.58 L2452.91 1042.58 L2452.91 1042.58 L2430.37 1042.58 L2430.37 1042.58  Z" fill="#009af9" fill-rule="evenodd" fill-opacity="0.5"/>
<polyline clip-path="url(#clip082)" style="stroke:#000000; stroke-linecap:round; stroke-linejoin:round; stroke-width:4; stroke-opacity:0.5; fill:none" points="2430.37,1042.58 2430.37,1042.58 2452.91,1042.58 2430.37,1042.58 "/>
<path clip-path="url(#clip082)" d="M2458.55 1042.58 L2458.55 1042.58 L2481.09 1042.58 L2481.09 1042.58 L2458.55 1042.58 L2458.55 1042.58  Z" fill="#009af9" fill-rule="evenodd" fill-opacity="0.5"/>
<polyline clip-path="url(#clip082)" style="stroke:#000000; stroke-linecap:round; stroke-linejoin:round; stroke-width:4; stroke-opacity:0.5; fill:none" points="2458.55,1042.58 2458.55,1042.58 2481.09,1042.58 2458.55,1042.58 "/>
<path clip-path="url(#clip082)" d="M2486.73 312.054 L2486.73 1042.58 L2509.27 1042.58 L2509.27 312.054 L2486.73 312.054 L2486.73 312.054  Z" fill="#009af9" fill-rule="evenodd" fill-opacity="0.5"/>
<polyline clip-path="url(#clip082)" style="stroke:#000000; stroke-linecap:round; stroke-linejoin:round; stroke-width:4; stroke-opacity:0.5; fill:none" points="2486.73,312.054 2486.73,1042.58 2509.27,1042.58 2509.27,312.054 2486.73,312.054 "/>
<path clip-path="url(#clip082)" d="M2514.91 436.524 L2514.91 1042.58 L2537.45 1042.58 L2537.45 436.524 L2514.91 436.524 L2514.91 436.524  Z" fill="#009af9" fill-rule="evenodd" fill-opacity="0.5"/>
<polyline clip-path="url(#clip082)" style="stroke:#000000; stroke-linecap:round; stroke-linejoin:round; stroke-width:4; stroke-opacity:0.5; fill:none" points="2514.91,436.524 2514.91,1042.58 2537.45,1042.58 2537.45,436.524 2514.91,436.524 "/>
<path clip-path="url(#clip082)" d="M2543.09 136.865 L2543.09 1042.58 L2565.63 1042.58 L2565.63 136.865 L2543.09 136.865 L2543.09 136.865  Z" fill="#009af9" fill-rule="evenodd" fill-opacity="0.5"/>
<polyline clip-path="url(#clip082)" style="stroke:#000000; stroke-linecap:round; stroke-linejoin:round; stroke-width:4; stroke-opacity:0.5; fill:none" points="2543.09,136.865 2543.09,1042.58 2565.63,1042.58 2565.63,136.865 2543.09,136.865 "/>
<path clip-path="url(#clip082)" d="M2571.27 436.524 L2571.27 1042.58 L2593.81 1042.58 L2593.81 436.524 L2571.27 436.524 L2571.27 436.524  Z" fill="#009af9" fill-rule="evenodd" fill-opacity="0.5"/>
<polyline clip-path="url(#clip082)" style="stroke:#000000; stroke-linecap:round; stroke-linejoin:round; stroke-width:4; stroke-opacity:0.5; fill:none" points="2571.27,436.524 2571.27,1042.58 2593.81,1042.58 2593.81,436.524 2571.27,436.524 "/>
<path clip-path="url(#clip082)" d="M2599.44 764.909 L2599.44 1042.58 L2621.99 1042.58 L2621.99 764.909 L2599.44 764.909 L2599.44 764.909  Z" fill="#009af9" fill-rule="evenodd" fill-opacity="0.5"/>
<polyline clip-path="url(#clip082)" style="stroke:#000000; stroke-linecap:round; stroke-linejoin:round; stroke-width:4; stroke-opacity:0.5; fill:none" points="2599.44,764.909 2599.44,1042.58 2621.99,1042.58 2621.99,764.909 2599.44,764.909 "/>
<path clip-path="url(#clip082)" d="M2627.62 764.909 L2627.62 1042.58 L2650.17 1042.58 L2650.17 764.909 L2627.62 764.909 L2627.62 764.909  Z" fill="#009af9" fill-rule="evenodd" fill-opacity="0.5"/>
<polyline clip-path="url(#clip082)" style="stroke:#000000; stroke-linecap:round; stroke-linejoin:round; stroke-width:4; stroke-opacity:0.5; fill:none" points="2627.62,764.909 2627.62,1042.58 2650.17,1042.58 2650.17,764.909 2627.62,764.909 "/>
<path clip-path="url(#clip082)" d="M2655.8 517.011 L2655.8 1042.58 L2678.35 1042.58 L2678.35 517.011 L2655.8 517.011 L2655.8 517.011  Z" fill="#009af9" fill-rule="evenodd" fill-opacity="0.5"/>
<polyline clip-path="url(#clip082)" style="stroke:#000000; stroke-linecap:round; stroke-linejoin:round; stroke-width:4; stroke-opacity:0.5; fill:none" points="2655.8,517.011 2655.8,1042.58 2678.35,1042.58 2678.35,517.011 2655.8,517.011 "/>
<path clip-path="url(#clip082)" d="M2683.98 692.199 L2683.98 1042.58 L2706.53 1042.58 L2706.53 692.199 L2683.98 692.199 L2683.98 692.199  Z" fill="#009af9" fill-rule="evenodd" fill-opacity="0.5"/>
<polyline clip-path="url(#clip082)" style="stroke:#000000; stroke-linecap:round; stroke-linejoin:round; stroke-width:4; stroke-opacity:0.5; fill:none" points="2683.98,692.199 2683.98,1042.58 2706.53,1042.58 2706.53,692.199 2683.98,692.199 "/>
<path clip-path="url(#clip082)" d="M2712.16 764.909 L2712.16 1042.58 L2734.71 1042.58 L2734.71 764.909 L2712.16 764.909 L2712.16 764.909  Z" fill="#009af9" fill-rule="evenodd" fill-opacity="0.5"/>
<polyline clip-path="url(#clip082)" style="stroke:#000000; stroke-linecap:round; stroke-linejoin:round; stroke-width:4; stroke-opacity:0.5; fill:none" points="2712.16,764.909 2712.16,1042.58 2734.71,1042.58 2734.71,764.909 2712.16,764.909 "/>
<circle clip-path="url(#clip082)" style="fill:#009af9; stroke:none; fill-opacity:0" cx="300.018" cy="298.389" r="2"/>
<circle clip-path="url(#clip082)" style="fill:#009af9; stroke:none; fill-opacity:0" cx="328.198" cy="341.823" r="2"/>
<circle clip-path="url(#clip082)" style="fill:#009af9; stroke:none; fill-opacity:0" cx="356.377" cy="285.425" r="2"/>
<circle clip-path="url(#clip082)" style="fill:#009af9; stroke:none; fill-opacity:0" cx="384.556" cy="229.026" r="2"/>
<circle clip-path="url(#clip082)" style="fill:#009af9; stroke:none; fill-opacity:0" cx="412.735" cy="239.344" r="2"/>
<circle clip-path="url(#clip082)" style="fill:#009af9; stroke:none; fill-opacity:0" cx="440.915" cy="261.336" r="2"/>
<circle clip-path="url(#clip082)" style="fill:#009af9; stroke:none; fill-opacity:0" cx="469.094" cy="326.5" r="2"/>
<circle clip-path="url(#clip082)" style="fill:#009af9; stroke:none; fill-opacity:0" cx="497.273" cy="285.425" r="2"/>
<circle clip-path="url(#clip082)" style="fill:#009af9; stroke:none; fill-opacity:0" cx="525.452" cy="250.101" r="2"/>
<circle clip-path="url(#clip082)" style="fill:#009af9; stroke:none; fill-opacity:0" cx="553.632" cy="110.236" r="2"/>
<circle clip-path="url(#clip082)" style="fill:#009af9; stroke:none; fill-opacity:0" cx="581.811" cy="261.336" r="2"/>
<circle clip-path="url(#clip082)" style="fill:#009af9; stroke:none; fill-opacity:0" cx="609.99" cy="158.857" r="2"/>
<circle clip-path="url(#clip082)" style="fill:#009af9; stroke:none; fill-opacity:0" cx="638.169" cy="110.236" r="2"/>
<circle clip-path="url(#clip082)" style="fill:#009af9; stroke:none; fill-opacity:0" cx="666.349" cy="285.425" r="2"/>
<circle clip-path="url(#clip082)" style="fill:#009af9; stroke:none; fill-opacity:0" cx="694.528" cy="298.389" r="2"/>
<circle clip-path="url(#clip082)" style="fill:#009af9; stroke:none; fill-opacity:0" cx="722.707" cy="191.514" r="2"/>
<circle clip-path="url(#clip082)" style="fill:#009af9; stroke:none; fill-opacity:0" cx="750.886" cy="209.575" r="2"/>
<circle clip-path="url(#clip082)" style="fill:#009af9; stroke:none; fill-opacity:0" cx="779.066" cy="273.093" r="2"/>
<circle clip-path="url(#clip082)" style="fill:#009af9; stroke:none; fill-opacity:0" cx="807.245" cy="174.659" r="2"/>
<circle clip-path="url(#clip082)" style="fill:#009af9; stroke:none; fill-opacity:0" cx="835.424" cy="285.425" r="2"/>
<circle clip-path="url(#clip082)" style="fill:#009af9; stroke:none; fill-opacity:0" cx="863.603" cy="517.011" r="2"/>
<circle clip-path="url(#clip082)" style="fill:#009af9; stroke:none; fill-opacity:0" cx="891.783" cy="460.613" r="2"/>
<circle clip-path="url(#clip082)" style="fill:#009af9; stroke:none; fill-opacity:0" cx="919.962" cy="341.823" r="2"/>
<circle clip-path="url(#clip082)" style="fill:#009af9; stroke:none; fill-opacity:0" cx="948.141" cy="229.026" r="2"/>
<circle clip-path="url(#clip082)" style="fill:#009af9; stroke:none; fill-opacity:0" cx="976.32" cy="326.5" r="2"/>
<circle clip-path="url(#clip082)" style="fill:#009af9; stroke:none; fill-opacity:0" cx="1004.5" cy="250.101" r="2"/>
<circle clip-path="url(#clip082)" style="fill:#009af9; stroke:none; fill-opacity:0" cx="1032.68" cy="285.425" r="2"/>
<circle clip-path="url(#clip082)" style="fill:#009af9; stroke:none; fill-opacity:0" cx="1060.86" cy="358.134" r="2"/>
<circle clip-path="url(#clip082)" style="fill:#009af9; stroke:none; fill-opacity:0" cx="1089.04" cy="273.093" r="2"/>
<circle clip-path="url(#clip082)" style="fill:#009af9; stroke:none; fill-opacity:0" cx="1117.22" cy="261.336" r="2"/>
<circle clip-path="url(#clip082)" style="fill:#009af9; stroke:none; fill-opacity:0" cx="1145.4" cy="229.026" r="2"/>
<circle clip-path="url(#clip082)" style="fill:#009af9; stroke:none; fill-opacity:0" cx="1173.58" cy="239.344" r="2"/>
<circle clip-path="url(#clip082)" style="fill:#009af9; stroke:none; fill-opacity:0" cx="1201.75" cy="200.383" r="2"/>
<circle clip-path="url(#clip082)" style="fill:#009af9; stroke:none; fill-opacity:0" cx="1229.93" cy="375.572" r="2"/>
<circle clip-path="url(#clip082)" style="fill:#009af9; stroke:none; fill-opacity:0" cx="1258.11" cy="517.011" r="2"/>
<circle clip-path="url(#clip082)" style="fill:#009af9; stroke:none; fill-opacity:0" cx="1286.29" cy="298.389" r="2"/>
<circle clip-path="url(#clip082)" style="fill:#009af9; stroke:none; fill-opacity:0" cx="1314.47" cy="158.857" r="2"/>
<circle clip-path="url(#clip082)" style="fill:#009af9; stroke:none; fill-opacity:0" cx="1342.65" cy="298.389" r="2"/>
<circle clip-path="url(#clip082)" style="fill:#009af9; stroke:none; fill-opacity:0" cx="1370.83" cy="209.575" r="2"/>
<circle clip-path="url(#clip082)" style="fill:#009af9; stroke:none; fill-opacity:0" cx="1399.01" cy="200.383" r="2"/>
<circle clip-path="url(#clip082)" style="fill:#009af9; stroke:none; fill-opacity:0" cx="1427.19" cy="261.336" r="2"/>
<circle clip-path="url(#clip082)" style="fill:#009af9; stroke:none; fill-opacity:0" cx="1455.37" cy="517.011" r="2"/>
<circle clip-path="url(#clip082)" style="fill:#009af9; stroke:none; fill-opacity:0" cx="1483.55" cy="375.572" r="2"/>
<circle clip-path="url(#clip082)" style="fill:#009af9; stroke:none; fill-opacity:0" cx="1511.73" cy="298.389" r="2"/>
<circle clip-path="url(#clip082)" style="fill:#009af9; stroke:none; fill-opacity:0" cx="1539.91" cy="312.054" r="2"/>
<circle clip-path="url(#clip082)" style="fill:#009af9; stroke:none; fill-opacity:0" cx="1568.08" cy="261.336" r="2"/>
<circle clip-path="url(#clip082)" style="fill:#009af9; stroke:none; fill-opacity:0" cx="1596.26" cy="298.389" r="2"/>
<circle clip-path="url(#clip082)" style="fill:#009af9; stroke:none; fill-opacity:0" cx="1624.44" cy="436.524" r="2"/>
<circle clip-path="url(#clip082)" style="fill:#009af9; stroke:none; fill-opacity:0" cx="1652.62" cy="375.572" r="2"/>
<circle clip-path="url(#clip082)" style="fill:#009af9; stroke:none; fill-opacity:0" cx="1680.8" cy="326.5" r="2"/>
<circle clip-path="url(#clip082)" style="fill:#009af9; stroke:none; fill-opacity:0" cx="1708.98" cy="191.514" r="2"/>
<circle clip-path="url(#clip082)" style="fill:#009af9; stroke:none; fill-opacity:0" cx="1737.16" cy="394.302" r="2"/>
<circle clip-path="url(#clip082)" style="fill:#009af9; stroke:none; fill-opacity:0" cx="1765.34" cy="219.114" r="2"/>
<circle clip-path="url(#clip082)" style="fill:#009af9; stroke:none; fill-opacity:0" cx="1793.52" cy="312.054" r="2"/>
<circle clip-path="url(#clip082)" style="fill:#009af9; stroke:none; fill-opacity:0" cx="1821.7" cy="436.524" r="2"/>
<circle clip-path="url(#clip082)" style="fill:#009af9; stroke:none; fill-opacity:0" cx="1849.88" cy="550.76" r="2"/>
<circle clip-path="url(#clip082)" style="fill:#009af9; stroke:none; fill-opacity:0" cx="1878.06" cy="517.011" r="2"/>
<circle clip-path="url(#clip082)" style="fill:#009af9; stroke:none; fill-opacity:0" cx="1906.24" cy="517.011" r="2"/>
<circle clip-path="url(#clip082)" style="fill:#009af9; stroke:none; fill-opacity:0" cx="1934.41" cy="239.344" r="2"/>
<circle clip-path="url(#clip082)" style="fill:#009af9; stroke:none; fill-opacity:0" cx="1962.59" cy="312.054" r="2"/>
<circle clip-path="url(#clip082)" style="fill:#009af9; stroke:none; fill-opacity:0" cx="1990.77" cy="414.532" r="2"/>
<circle clip-path="url(#clip082)" style="fill:#009af9; stroke:none; fill-opacity:0" cx="2018.95" cy="589.721" r="2"/>
<circle clip-path="url(#clip082)" style="fill:#009af9; stroke:none; fill-opacity:0" cx="2047.13" cy="414.532" r="2"/>
<circle clip-path="url(#clip082)" style="fill:#009af9; stroke:none; fill-opacity:0" cx="2075.31" cy="764.909" r="2"/>
<circle clip-path="url(#clip082)" style="fill:#009af9; stroke:none; fill-opacity:0" cx="2103.49" cy="460.613" r="2"/>
<circle clip-path="url(#clip082)" style="fill:#009af9; stroke:none; fill-opacity:0" cx="2131.67" cy="414.532" r="2"/>
<circle clip-path="url(#clip082)" style="fill:#009af9; stroke:none; fill-opacity:0" cx="2159.85" cy="436.524" r="2"/>
<circle clip-path="url(#clip082)" style="fill:#009af9; stroke:none; fill-opacity:0" cx="2188.03" cy="487.242" r="2"/>
<circle clip-path="url(#clip082)" style="fill:#009af9; stroke:none; fill-opacity:0" cx="2216.21" cy="394.302" r="2"/>
<circle clip-path="url(#clip082)" style="fill:#009af9; stroke:none; fill-opacity:0" cx="2244.39" cy="589.721" r="2"/>
<circle clip-path="url(#clip082)" style="fill:#009af9; stroke:none; fill-opacity:0" cx="2272.57" cy="635.801" r="2"/>
<circle clip-path="url(#clip082)" style="fill:#009af9; stroke:none; fill-opacity:0" cx="2300.74" cy="341.823" r="2"/>
<circle clip-path="url(#clip082)" style="fill:#009af9; stroke:none; fill-opacity:0" cx="2328.92" cy="460.613" r="2"/>
<circle clip-path="url(#clip082)" style="fill:#009af9; stroke:none; fill-opacity:0" cx="2357.1" cy="589.721" r="2"/>
<circle clip-path="url(#clip082)" style="fill:#009af9; stroke:none; fill-opacity:0" cx="2385.28" cy="460.613" r="2"/>
<circle clip-path="url(#clip082)" style="fill:#009af9; stroke:none; fill-opacity:0" cx="2413.46" cy="460.613" r="2"/>
<circle clip-path="url(#clip082)" style="fill:#009af9; stroke:none; fill-opacity:0" cx="2441.64" cy="1042.58" r="2"/>
<circle clip-path="url(#clip082)" style="fill:#009af9; stroke:none; fill-opacity:0" cx="2469.82" cy="1042.58" r="2"/>
<circle clip-path="url(#clip082)" style="fill:#009af9; stroke:none; fill-opacity:0" cx="2498" cy="312.054" r="2"/>
<circle clip-path="url(#clip082)" style="fill:#009af9; stroke:none; fill-opacity:0" cx="2526.18" cy="436.524" r="2"/>
<circle clip-path="url(#clip082)" style="fill:#009af9; stroke:none; fill-opacity:0" cx="2554.36" cy="136.865" r="2"/>
<circle clip-path="url(#clip082)" style="fill:#009af9; stroke:none; fill-opacity:0" cx="2582.54" cy="436.524" r="2"/>
<circle clip-path="url(#clip082)" style="fill:#009af9; stroke:none; fill-opacity:0" cx="2610.72" cy="764.909" r="2"/>
<circle clip-path="url(#clip082)" style="fill:#009af9; stroke:none; fill-opacity:0" cx="2638.9" cy="764.909" r="2"/>
<circle clip-path="url(#clip082)" style="fill:#009af9; stroke:none; fill-opacity:0" cx="2667.08" cy="517.011" r="2"/>
<circle clip-path="url(#clip082)" style="fill:#009af9; stroke:none; fill-opacity:0" cx="2695.25" cy="692.199" r="2"/>
<circle clip-path="url(#clip082)" style="fill:#009af9; stroke:none; fill-opacity:0" cx="2723.43" cy="764.909" r="2"/>
</svg>
