<?xml version="1.0" encoding="utf-8"?>
<svg xmlns="http://www.w3.org/2000/svg" xmlns:xlink="http://www.w3.org/1999/xlink" width="800" height="300" viewBox="0 0 3200 1200">
<defs>
  <clipPath id="clip410">
    <rect x="0" y="0" width="3200" height="1200"/>
  </clipPath>
</defs>
<path clip-path="url(#clip410)" d="M0 1200 L3200 1200 L3200 0 L0 0  Z" fill="#ffffff" fill-rule="evenodd" fill-opacity="1"/>
<defs>
  <clipPath id="clip411">
    <rect x="640" y="0" width="2241" height="1200"/>
  </clipPath>
</defs>
<path clip-path="url(#clip410)" d="M271.839 1042.58 L3089.76 1042.58 L3089.76 110.236 L271.839 110.236  Z" fill="#ffffff" fill-rule="evenodd" fill-opacity="1"/>
<defs>
  <clipPath id="clip412">
    <rect x="271" y="110" width="2819" height="933"/>
  </clipPath>
</defs>
<polyline clip-path="url(#clip412)" style="stroke:#000000; stroke-linecap:round; stroke-linejoin:round; stroke-width:2; stroke-opacity:0.1; fill:none" points="553.632,1042.58 553.632,110.236 "/>
<polyline clip-path="url(#clip412)" style="stroke:#000000; stroke-linecap:round; stroke-linejoin:round; stroke-width:2; stroke-opacity:0.1; fill:none" points="1399.01,1042.58 1399.01,110.236 "/>
<polyline clip-path="url(#clip412)" style="stroke:#000000; stroke-linecap:round; stroke-linejoin:round; stroke-width:2; stroke-opacity:0.1; fill:none" points="2272.57,1042.58 2272.57,110.236 "/>
<polyline clip-path="url(#clip410)" style="stroke:#000000; stroke-linecap:round; stroke-linejoin:round; stroke-width:4; stroke-opacity:1; fill:none" points="271.839,1042.58 3089.76,1042.58 "/>
<polyline clip-path="url(#clip410)" style="stroke:#000000; stroke-linecap:round; stroke-linejoin:round; stroke-width:4; stroke-opacity:1; fill:none" points="553.632,1042.58 553.632,1023.68 "/>
<polyline clip-path="url(#clip410)" style="stroke:#000000; stroke-linecap:round; stroke-linejoin:round; stroke-width:4; stroke-opacity:1; fill:none" points="1399.01,1042.58 1399.01,1023.68 "/>
<polyline clip-path="url(#clip410)" style="stroke:#000000; stroke-linecap:round; stroke-linejoin:round; stroke-width:4; stroke-opacity:1; fill:none" points="2272.57,1042.58 2272.57,1023.68 "/>
<path clip-path="url(#clip410)" d="M425.426 1107.44 L441.746 1107.44 L441.746 1111.38 L419.801 1111.38 L419.801 1107.44 Q422.463 1104.69 427.047 1100.06 Q431.653 1095.4 432.834 1094.06 Q435.079 1091.54 435.959 1089.8 Q436.861 1088.04 436.861 1086.35 Q436.861 1083.6 434.917 1081.86 Q432.996 1080.13 429.894 1080.13 Q427.695 1080.13 425.241 1080.89 Q422.811 1081.65 420.033 1083.2 L420.033 1078.48 Q422.857 1077.35 425.311 1076.77 Q427.764 1076.19 429.801 1076.19 Q435.172 1076.19 438.366 1078.88 Q441.561 1081.56 441.561 1086.05 Q441.561 1088.18 440.75 1090.1 Q439.963 1092 437.857 1094.59 Q437.278 1095.26 434.176 1098.48 Q431.074 1101.68 425.426 1107.44 Z" fill="#000000" fill-rule="nonzero" fill-opacity="1" /><path clip-path="url(#clip410)" d="M461.56 1079.89 Q457.949 1079.89 456.121 1083.46 Q454.315 1087 454.315 1094.13 Q454.315 1101.24 456.121 1104.8 Q457.949 1108.34 461.56 1108.34 Q465.195 1108.34 467 1104.8 Q468.829 1101.24 468.829 1094.13 Q468.829 1087 467 1083.46 Q465.195 1079.89 461.56 1079.89 M461.56 1076.19 Q467.371 1076.19 470.426 1080.8 Q473.505 1085.38 473.505 1094.13 Q473.505 1102.86 470.426 1107.46 Q467.371 1112.05 461.56 1112.05 Q455.75 1112.05 452.672 1107.46 Q449.616 1102.86 449.616 1094.13 Q449.616 1085.38 452.672 1080.8 Q455.75 1076.19 461.56 1076.19 Z" fill="#000000" fill-rule="nonzero" fill-opacity="1" /><path clip-path="url(#clip410)" d="M485.75 1107.44 L502.069 1107.44 L502.069 1111.38 L480.125 1111.38 L480.125 1107.44 Q482.787 1104.69 487.37 1100.06 Q491.977 1095.4 493.157 1094.06 Q495.403 1091.54 496.282 1089.8 Q497.185 1088.04 497.185 1086.35 Q497.185 1083.6 495.241 1081.86 Q493.319 1080.13 490.218 1080.13 Q488.019 1080.13 485.565 1080.89 Q483.134 1081.65 480.357 1083.2 L480.357 1078.48 Q483.181 1077.35 485.634 1076.77 Q488.088 1076.19 490.125 1076.19 Q495.495 1076.19 498.69 1078.88 Q501.884 1081.56 501.884 1086.05 Q501.884 1088.18 501.074 1090.1 Q500.287 1092 498.181 1094.59 Q497.602 1095.26 494.5 1098.48 Q491.398 1101.68 485.75 1107.44 Z" fill="#000000" fill-rule="nonzero" fill-opacity="1" /><path clip-path="url(#clip410)" d="M524.731 1080.89 L512.926 1099.34 L524.731 1099.34 L524.731 1080.89 M523.505 1076.82 L529.384 1076.82 L529.384 1099.34 L534.315 1099.34 L534.315 1103.23 L529.384 1103.23 L529.384 1111.38 L524.731 1111.38 L524.731 1103.23 L509.13 1103.23 L509.13 1098.71 L523.505 1076.82 Z" fill="#000000" fill-rule="nonzero" fill-opacity="1" /><path clip-path="url(#clip410)" d="M539.291 1096.49 L551.768 1096.49 L551.768 1100.29 L539.291 1100.29 L539.291 1096.49 Z" fill="#000000" fill-rule="nonzero" fill-opacity="1" /><path clip-path="url(#clip410)" d="M569.152 1079.89 Q565.541 1079.89 563.713 1083.46 Q561.907 1087 561.907 1094.13 Q561.907 1101.24 563.713 1104.8 Q565.541 1108.34 569.152 1108.34 Q572.787 1108.34 574.592 1104.8 Q576.421 1101.24 576.421 1094.13 Q576.421 1087 574.592 1083.46 Q572.787 1079.89 569.152 1079.89 M569.152 1076.19 Q574.963 1076.19 578.018 1080.8 Q581.097 1085.38 581.097 1094.13 Q581.097 1102.86 578.018 1107.46 Q574.963 1112.05 569.152 1112.05 Q563.342 1112.05 560.264 1107.46 Q557.208 1102.86 557.208 1094.13 Q557.208 1085.38 560.264 1080.8 Q563.342 1076.19 569.152 1076.19 Z" fill="#000000" fill-rule="nonzero" fill-opacity="1" /><path clip-path="url(#clip410)" d="M589.453 1110.66 L589.453 1106.4 Q591.212 1107.23 593.018 1107.67 Q594.824 1108.11 596.56 1108.11 Q601.189 1108.11 603.62 1105.01 Q606.074 1101.89 606.421 1095.54 Q605.078 1097.53 603.018 1098.6 Q600.958 1099.66 598.458 1099.66 Q593.273 1099.66 590.24 1096.54 Q587.231 1093.39 587.231 1087.95 Q587.231 1082.63 590.379 1079.41 Q593.527 1076.19 598.759 1076.19 Q604.754 1076.19 607.902 1080.8 Q611.073 1085.38 611.073 1094.13 Q611.073 1102.3 607.185 1107.19 Q603.319 1112.05 596.768 1112.05 Q595.009 1112.05 593.203 1111.7 Q591.398 1111.35 589.453 1110.66 M598.759 1096.01 Q601.907 1096.01 603.736 1093.85 Q605.587 1091.7 605.587 1087.95 Q605.587 1084.22 603.736 1082.07 Q601.907 1079.89 598.759 1079.89 Q595.611 1079.89 593.759 1082.07 Q591.93 1084.22 591.93 1087.95 Q591.93 1091.7 593.759 1093.85 Q595.611 1096.01 598.759 1096.01 Z" fill="#000000" fill-rule="nonzero" fill-opacity="1" /><path clip-path="url(#clip410)" d="M616.722 1096.49 L629.198 1096.49 L629.198 1100.29 L616.722 1100.29 L616.722 1096.49 Z" fill="#000000" fill-rule="nonzero" fill-opacity="1" /><path clip-path="url(#clip410)" d="M646.583 1079.89 Q642.971 1079.89 641.143 1083.46 Q639.337 1087 639.337 1094.13 Q639.337 1101.24 641.143 1104.8 Q642.971 1108.34 646.583 1108.34 Q650.217 1108.34 652.022 1104.8 Q653.851 1101.24 653.851 1094.13 Q653.851 1087 652.022 1083.46 Q650.217 1079.89 646.583 1079.89 M646.583 1076.19 Q652.393 1076.19 655.448 1080.8 Q658.527 1085.38 658.527 1094.13 Q658.527 1102.86 655.448 1107.46 Q652.393 1112.05 646.583 1112.05 Q640.772 1112.05 637.694 1107.46 Q634.638 1102.86 634.638 1094.13 Q634.638 1085.38 637.694 1080.8 Q640.772 1076.19 646.583 1076.19 Z" fill="#000000" fill-rule="nonzero" fill-opacity="1" /><path clip-path="url(#clip410)" d="M667.555 1107.44 L675.194 1107.44 L675.194 1081.07 L666.883 1082.74 L666.883 1078.48 L675.147 1076.82 L679.823 1076.82 L679.823 1107.44 L687.462 1107.44 L687.462 1111.38 L667.555 1111.38 L667.555 1107.44 Z" fill="#000000" fill-rule="nonzero" fill-opacity="1" /><path clip-path="url(#clip410)" d="M1270.8 1107.44 L1287.12 1107.44 L1287.12 1111.38 L1265.18 1111.38 L1265.18 1107.44 Q1267.84 1104.69 1272.42 1100.06 Q1277.03 1095.4 1278.21 1094.06 Q1280.46 1091.54 1281.34 1089.8 Q1282.24 1088.04 1282.24 1086.35 Q1282.24 1083.6 1280.29 1081.86 Q1278.37 1080.13 1275.27 1080.13 Q1273.07 1080.13 1270.62 1080.89 Q1268.19 1081.65 1265.41 1083.2 L1265.41 1078.48 Q1268.23 1077.35 1270.69 1076.77 Q1273.14 1076.19 1275.18 1076.19 Q1280.55 1076.19 1283.74 1078.88 Q1286.94 1081.56 1286.94 1086.05 Q1286.94 1088.18 1286.13 1090.1 Q1285.34 1092 1283.23 1094.59 Q1282.66 1095.26 1279.55 1098.48 Q1276.45 1101.68 1270.8 1107.44 Z" fill="#000000" fill-rule="nonzero" fill-opacity="1" /><path clip-path="url(#clip410)" d="M1306.94 1079.89 Q1303.33 1079.89 1301.5 1083.46 Q1299.69 1087 1299.69 1094.13 Q1299.69 1101.24 1301.5 1104.8 Q1303.33 1108.34 1306.94 1108.34 Q1310.57 1108.34 1312.38 1104.8 Q1314.21 1101.24 1314.21 1094.13 Q1314.21 1087 1312.38 1083.46 Q1310.57 1079.89 1306.94 1079.89 M1306.94 1076.19 Q1312.75 1076.19 1315.8 1080.8 Q1318.88 1085.38 1318.88 1094.13 Q1318.88 1102.86 1315.8 1107.46 Q1312.75 1112.05 1306.94 1112.05 Q1301.13 1112.05 1298.05 1107.46 Q1294.99 1102.86 1294.99 1094.13 Q1294.99 1085.38 1298.05 1080.8 Q1301.13 1076.19 1306.94 1076.19 Z" fill="#000000" fill-rule="nonzero" fill-opacity="1" /><path clip-path="url(#clip410)" d="M1331.13 1107.44 L1347.45 1107.44 L1347.45 1111.38 L1325.5 1111.38 L1325.5 1107.44 Q1328.16 1104.69 1332.75 1100.06 Q1337.35 1095.4 1338.53 1094.06 Q1340.78 1091.54 1341.66 1089.8 Q1342.56 1088.04 1342.56 1086.35 Q1342.56 1083.6 1340.62 1081.86 Q1338.7 1080.13 1335.6 1080.13 Q1333.4 1080.13 1330.94 1080.89 Q1328.51 1081.65 1325.73 1083.2 L1325.73 1078.48 Q1328.56 1077.35 1331.01 1076.77 Q1333.47 1076.19 1335.5 1076.19 Q1340.87 1076.19 1344.07 1078.88 Q1347.26 1081.56 1347.26 1086.05 Q1347.26 1088.18 1346.45 1090.1 Q1345.66 1092 1343.56 1094.59 Q1342.98 1095.26 1339.88 1098.48 Q1336.78 1101.68 1331.13 1107.44 Z" fill="#000000" fill-rule="nonzero" fill-opacity="1" /><path clip-path="url(#clip410)" d="M1370.11 1080.89 L1358.3 1099.34 L1370.11 1099.34 L1370.11 1080.89 M1368.88 1076.82 L1374.76 1076.82 L1374.76 1099.34 L1379.69 1099.34 L1379.69 1103.23 L1374.76 1103.23 L1374.76 1111.38 L1370.11 1111.38 L1370.11 1103.23 L1354.51 1103.23 L1354.51 1098.71 L1368.88 1076.82 Z" fill="#000000" fill-rule="nonzero" fill-opacity="1" /><path clip-path="url(#clip410)" d="M1384.67 1096.49 L1397.15 1096.49 L1397.15 1100.29 L1384.67 1100.29 L1384.67 1096.49 Z" fill="#000000" fill-rule="nonzero" fill-opacity="1" /><path clip-path="url(#clip410)" d="M1405.34 1107.44 L1412.98 1107.44 L1412.98 1081.07 L1404.67 1082.74 L1404.67 1078.48 L1412.93 1076.82 L1417.61 1076.82 L1417.61 1107.44 L1425.25 1107.44 L1425.25 1111.38 L1405.34 1111.38 L1405.34 1107.44 Z" fill="#000000" fill-rule="nonzero" fill-opacity="1" /><path clip-path="url(#clip410)" d="M1444.69 1079.89 Q1441.08 1079.89 1439.25 1083.46 Q1437.45 1087 1437.45 1094.13 Q1437.45 1101.24 1439.25 1104.8 Q1441.08 1108.34 1444.69 1108.34 Q1448.33 1108.34 1450.13 1104.8 Q1451.96 1101.24 1451.96 1094.13 Q1451.96 1087 1450.13 1083.46 Q1448.33 1079.89 1444.69 1079.89 M1444.69 1076.19 Q1450.5 1076.19 1453.56 1080.8 Q1456.64 1085.38 1456.64 1094.13 Q1456.64 1102.86 1453.56 1107.46 Q1450.5 1112.05 1444.69 1112.05 Q1438.88 1112.05 1435.8 1107.46 Q1432.75 1102.86 1432.75 1094.13 Q1432.75 1085.38 1435.8 1080.8 Q1438.88 1076.19 1444.69 1076.19 Z" fill="#000000" fill-rule="nonzero" fill-opacity="1" /><path clip-path="url(#clip410)" d="M1462.1 1096.49 L1474.58 1096.49 L1474.58 1100.29 L1462.1 1100.29 L1462.1 1096.49 Z" fill="#000000" fill-rule="nonzero" fill-opacity="1" /><path clip-path="url(#clip410)" d="M1491.96 1079.89 Q1488.35 1079.89 1486.52 1083.46 Q1484.71 1087 1484.71 1094.13 Q1484.71 1101.24 1486.52 1104.8 Q1488.35 1108.34 1491.96 1108.34 Q1495.59 1108.34 1497.4 1104.8 Q1499.23 1101.24 1499.23 1094.13 Q1499.23 1087 1497.4 1083.46 Q1495.59 1079.89 1491.96 1079.89 M1491.96 1076.19 Q1497.77 1076.19 1500.83 1080.8 Q1503.9 1085.38 1503.9 1094.13 Q1503.9 1102.86 1500.83 1107.46 Q1497.77 1112.05 1491.96 1112.05 Q1486.15 1112.05 1483.07 1107.46 Q1480.02 1102.86 1480.02 1094.13 Q1480.02 1085.38 1483.07 1080.8 Q1486.15 1076.19 1491.96 1076.19 Z" fill="#000000" fill-rule="nonzero" fill-opacity="1" /><path clip-path="url(#clip410)" d="M1512.93 1107.44 L1520.57 1107.44 L1520.57 1081.07 L1512.26 1082.74 L1512.26 1078.48 L1520.52 1076.82 L1525.2 1076.82 L1525.2 1107.44 L1532.84 1107.44 L1532.84 1111.38 L1512.93 1111.38 L1512.93 1107.44 Z" fill="#000000" fill-rule="nonzero" fill-opacity="1" /><path clip-path="url(#clip410)" d="M2144.36 1107.44 L2160.68 1107.44 L2160.68 1111.38 L2138.74 1111.38 L2138.74 1107.44 Q2141.4 1104.69 2145.98 1100.06 Q2150.59 1095.4 2151.77 1094.06 Q2154.01 1091.54 2154.89 1089.8 Q2155.8 1088.04 2155.8 1086.35 Q2155.8 1083.6 2153.85 1081.86 Q2151.93 1080.13 2148.83 1080.13 Q2146.63 1080.13 2144.18 1080.89 Q2141.74 1081.65 2138.97 1083.2 L2138.97 1078.48 Q2141.79 1077.35 2144.24 1076.77 Q2146.7 1076.19 2148.74 1076.19 Q2154.11 1076.19 2157.3 1078.88 Q2160.49 1081.56 2160.49 1086.05 Q2160.49 1088.18 2159.68 1090.1 Q2158.9 1092 2156.79 1094.59 Q2156.21 1095.26 2153.11 1098.48 Q2150.01 1101.68 2144.36 1107.44 Z" fill="#000000" fill-rule="nonzero" fill-opacity="1" /><path clip-path="url(#clip410)" d="M2180.49 1079.89 Q2176.88 1079.89 2175.05 1083.46 Q2173.25 1087 2173.25 1094.13 Q2173.25 1101.24 2175.05 1104.8 Q2176.88 1108.34 2180.49 1108.34 Q2184.13 1108.34 2185.93 1104.8 Q2187.76 1101.24 2187.76 1094.13 Q2187.76 1087 2185.93 1083.46 Q2184.13 1079.89 2180.49 1079.89 M2180.49 1076.19 Q2186.3 1076.19 2189.36 1080.8 Q2192.44 1085.38 2192.44 1094.13 Q2192.44 1102.86 2189.36 1107.46 Q2186.3 1112.05 2180.49 1112.05 Q2174.68 1112.05 2171.61 1107.46 Q2168.55 1102.86 2168.55 1094.13 Q2168.55 1085.38 2171.61 1080.8 Q2174.68 1076.19 2180.49 1076.19 Z" fill="#000000" fill-rule="nonzero" fill-opacity="1" /><path clip-path="url(#clip410)" d="M2204.68 1107.44 L2221 1107.44 L2221 1111.38 L2199.06 1111.38 L2199.06 1107.44 Q2201.72 1104.69 2206.3 1100.06 Q2210.91 1095.4 2212.09 1094.06 Q2214.34 1091.54 2215.22 1089.8 Q2216.12 1088.04 2216.12 1086.35 Q2216.12 1083.6 2214.17 1081.86 Q2212.25 1080.13 2209.15 1080.13 Q2206.95 1080.13 2204.5 1080.89 Q2202.07 1081.65 2199.29 1083.2 L2199.29 1078.48 Q2202.11 1077.35 2204.57 1076.77 Q2207.02 1076.19 2209.06 1076.19 Q2214.43 1076.19 2217.62 1078.88 Q2220.82 1081.56 2220.82 1086.05 Q2220.82 1088.18 2220.01 1090.1 Q2219.22 1092 2217.11 1094.59 Q2216.54 1095.26 2213.43 1098.48 Q2210.33 1101.68 2204.68 1107.44 Z" fill="#000000" fill-rule="nonzero" fill-opacity="1" /><path clip-path="url(#clip410)" d="M2243.67 1080.89 L2231.86 1099.34 L2243.67 1099.34 L2243.67 1080.89 M2242.44 1076.82 L2248.32 1076.82 L2248.32 1099.34 L2253.25 1099.34 L2253.25 1103.23 L2248.32 1103.23 L2248.32 1111.38 L2243.67 1111.38 L2243.67 1103.23 L2228.06 1103.23 L2228.06 1098.71 L2242.44 1076.82 Z" fill="#000000" fill-rule="nonzero" fill-opacity="1" /><path clip-path="url(#clip410)" d="M2258.23 1096.49 L2270.7 1096.49 L2270.7 1100.29 L2258.23 1100.29 L2258.23 1096.49 Z" fill="#000000" fill-rule="nonzero" fill-opacity="1" /><path clip-path="url(#clip410)" d="M2278.9 1107.44 L2286.54 1107.44 L2286.54 1081.07 L2278.23 1082.74 L2278.23 1078.48 L2286.49 1076.82 L2291.17 1076.82 L2291.17 1107.44 L2298.8 1107.44 L2298.8 1111.38 L2278.9 1111.38 L2278.9 1107.44 Z" fill="#000000" fill-rule="nonzero" fill-opacity="1" /><path clip-path="url(#clip410)" d="M2309.06 1107.44 L2316.7 1107.44 L2316.7 1081.07 L2308.39 1082.74 L2308.39 1078.48 L2316.65 1076.82 L2321.33 1076.82 L2321.33 1107.44 L2328.97 1107.44 L2328.97 1111.38 L2309.06 1111.38 L2309.06 1107.44 Z" fill="#000000" fill-rule="nonzero" fill-opacity="1" /><path clip-path="url(#clip410)" d="M2335.66 1096.49 L2348.13 1096.49 L2348.13 1100.29 L2335.66 1100.29 L2335.66 1096.49 Z" fill="#000000" fill-rule="nonzero" fill-opacity="1" /><path clip-path="url(#clip410)" d="M2365.52 1079.89 Q2361.91 1079.89 2360.08 1083.46 Q2358.27 1087 2358.27 1094.13 Q2358.27 1101.24 2360.08 1104.8 Q2361.91 1108.34 2365.52 1108.34 Q2369.15 1108.34 2370.96 1104.8 Q2372.79 1101.24 2372.79 1094.13 Q2372.79 1087 2370.96 1083.46 Q2369.15 1079.89 2365.52 1079.89 M2365.52 1076.19 Q2371.33 1076.19 2374.38 1080.8 Q2377.46 1085.38 2377.46 1094.13 Q2377.46 1102.86 2374.38 1107.46 Q2371.33 1112.05 2365.52 1112.05 Q2359.71 1112.05 2356.63 1107.46 Q2353.57 1102.86 2353.57 1094.13 Q2353.57 1085.38 2356.63 1080.8 Q2359.71 1076.19 2365.52 1076.19 Z" fill="#000000" fill-rule="nonzero" fill-opacity="1" /><path clip-path="url(#clip410)" d="M2386.49 1107.44 L2394.13 1107.44 L2394.13 1081.07 L2385.82 1082.74 L2385.82 1078.48 L2394.08 1076.82 L2398.76 1076.82 L2398.76 1107.44 L2406.4 1107.44 L2406.4 1111.38 L2386.49 1111.38 L2386.49 1107.44 Z" fill="#000000" fill-rule="nonzero" fill-opacity="1" /><polyline clip-path="url(#clip412)" style="stroke:#000000; stroke-linecap:round; stroke-linejoin:round; stroke-width:2; stroke-opacity:0.1; fill:none" points="271.839,1042.58 3089.76,1042.58 "/>
<polyline clip-path="url(#clip412)" style="stroke:#000000; stroke-linecap:round; stroke-linejoin:round; stroke-width:2; stroke-opacity:0.1; fill:none" points="271.839,670.002 3089.76,670.002 "/>
<polyline clip-path="url(#clip412)" style="stroke:#000000; stroke-linecap:round; stroke-linejoin:round; stroke-width:2; stroke-opacity:0.1; fill:none" points="271.839,297.428 3089.76,297.428 "/>
<polyline clip-path="url(#clip410)" style="stroke:#000000; stroke-linecap:round; stroke-linejoin:round; stroke-width:4; stroke-opacity:1; fill:none" points="271.839,1042.58 271.839,110.236 "/>
<polyline clip-path="url(#clip410)" style="stroke:#000000; stroke-linecap:round; stroke-linejoin:round; stroke-width:4; stroke-opacity:1; fill:none" points="271.839,1042.58 290.737,1042.58 "/>
<polyline clip-path="url(#clip410)" style="stroke:#000000; stroke-linecap:round; stroke-linejoin:round; stroke-width:4; stroke-opacity:1; fill:none" points="271.839,670.002 290.737,670.002 "/>
<polyline clip-path="url(#clip410)" style="stroke:#000000; stroke-linecap:round; stroke-linejoin:round; stroke-width:4; stroke-opacity:1; fill:none" points="271.839,297.428 290.737,297.428 "/>
<path clip-path="url(#clip410)" d="M153.134 1062.37 L160.772 1062.37 L160.772 1036 L152.462 1037.67 L152.462 1033.41 L160.726 1031.74 L165.402 1031.74 L165.402 1062.37 L173.041 1062.37 L173.041 1066.3 L153.134 1066.3 L153.134 1062.37 Z" fill="#000000" fill-rule="nonzero" fill-opacity="1" /><path clip-path="url(#clip410)" d="M192.485 1034.82 Q188.874 1034.82 187.045 1038.39 Q185.24 1041.93 185.24 1049.06 Q185.24 1056.16 187.045 1059.73 Q188.874 1063.27 192.485 1063.27 Q196.119 1063.27 197.925 1059.73 Q199.754 1056.16 199.754 1049.06 Q199.754 1041.93 197.925 1038.39 Q196.119 1034.82 192.485 1034.82 M192.485 1031.12 Q198.295 1031.12 201.351 1035.72 Q204.43 1040.31 204.43 1049.06 Q204.43 1057.78 201.351 1062.39 Q198.295 1066.97 192.485 1066.97 Q186.675 1066.97 183.596 1062.39 Q180.541 1057.78 180.541 1049.06 Q180.541 1040.31 183.596 1035.72 Q186.675 1031.12 192.485 1031.12 Z" fill="#000000" fill-rule="nonzero" fill-opacity="1" /><path clip-path="url(#clip410)" d="M214.134 1013.31 Q211.2 1013.31 209.715 1016.21 Q208.248 1019.09 208.248 1024.88 Q208.248 1030.66 209.715 1033.55 Q211.2 1036.43 214.134 1036.43 Q217.087 1036.43 218.554 1033.55 Q220.04 1030.66 220.04 1024.88 Q220.04 1019.09 218.554 1016.21 Q217.087 1013.31 214.134 1013.31 M214.134 1010.31 Q218.855 1010.31 221.338 1014.05 Q223.839 1017.77 223.839 1024.88 Q223.839 1031.97 221.338 1035.71 Q218.855 1039.44 214.134 1039.44 Q209.414 1039.44 206.912 1035.71 Q204.43 1031.97 204.43 1024.88 Q204.43 1017.77 206.912 1014.05 Q209.414 1010.31 214.134 1010.31 Z" fill="#000000" fill-rule="nonzero" fill-opacity="1" /><path clip-path="url(#clip410)" d="M155.823 689.794 L163.462 689.794 L163.462 663.428 L155.152 665.095 L155.152 660.836 L163.416 659.169 L168.092 659.169 L168.092 689.794 L175.73 689.794 L175.73 693.729 L155.823 693.729 L155.823 689.794 Z" fill="#000000" fill-rule="nonzero" fill-opacity="1" /><path clip-path="url(#clip410)" d="M195.175 662.248 Q191.564 662.248 189.735 665.813 Q187.929 669.354 187.929 676.484 Q187.929 683.59 189.735 687.155 Q191.564 690.697 195.175 690.697 Q198.809 690.697 200.615 687.155 Q202.443 683.59 202.443 676.484 Q202.443 669.354 200.615 665.813 Q198.809 662.248 195.175 662.248 M195.175 658.544 Q200.985 658.544 204.04 663.151 Q207.119 667.734 207.119 676.484 Q207.119 685.211 204.04 689.817 Q200.985 694.401 195.175 694.401 Q189.365 694.401 186.286 689.817 Q183.23 685.211 183.23 676.484 Q183.23 667.734 186.286 663.151 Q189.365 658.544 195.175 658.544 Z" fill="#000000" fill-rule="nonzero" fill-opacity="1" /><path clip-path="url(#clip410)" d="M207.665 663.122 L213.871 663.122 L213.871 641.699 L207.119 643.054 L207.119 639.593 L213.833 638.239 L217.633 638.239 L217.633 663.122 L223.839 663.122 L223.839 666.319 L207.665 666.319 L207.665 663.122 Z" fill="#000000" fill-rule="nonzero" fill-opacity="1" /><path clip-path="url(#clip410)" d="M154.713 317.22 L162.352 317.22 L162.352 290.854 L154.042 292.521 L154.042 288.262 L162.306 286.595 L166.982 286.595 L166.982 317.22 L174.621 317.22 L174.621 321.155 L154.713 321.155 L154.713 317.22 Z" fill="#000000" fill-rule="nonzero" fill-opacity="1" /><path clip-path="url(#clip410)" d="M194.065 289.674 Q190.454 289.674 188.625 293.239 Q186.82 296.78 186.82 303.91 Q186.82 311.016 188.625 314.581 Q190.454 318.123 194.065 318.123 Q197.699 318.123 199.505 314.581 Q201.334 311.016 201.334 303.91 Q201.334 296.78 199.505 293.239 Q197.699 289.674 194.065 289.674 M194.065 285.97 Q199.875 285.97 202.931 290.577 Q206.009 295.16 206.009 303.91 Q206.009 312.637 202.931 317.243 Q199.875 321.826 194.065 321.826 Q188.255 321.826 185.176 317.243 Q182.121 312.637 182.121 303.91 Q182.121 295.16 185.176 290.577 Q188.255 285.97 194.065 285.97 Z" fill="#000000" fill-rule="nonzero" fill-opacity="1" /><path clip-path="url(#clip410)" d="M210.58 290.547 L223.839 290.547 L223.839 293.745 L206.009 293.745 L206.009 290.547 Q208.172 288.309 211.896 284.548 Q215.639 280.767 216.598 279.677 Q218.423 277.626 219.137 276.216 Q219.871 274.787 219.871 273.414 Q219.871 271.175 218.291 269.765 Q216.73 268.354 214.21 268.354 Q212.423 268.354 210.429 268.975 Q208.454 269.596 206.198 270.856 L206.198 267.019 Q208.492 266.097 210.486 265.627 Q212.479 265.157 214.134 265.157 Q218.498 265.157 221.093 267.339 Q223.689 269.52 223.689 273.169 Q223.689 274.899 223.03 276.46 Q222.391 278.003 220.68 280.109 Q220.209 280.655 217.689 283.269 Q215.169 285.864 210.58 290.547 Z" fill="#000000" fill-rule="nonzero" fill-opacity="1" /><path clip-path="url(#clip410)" d="M83.4268 952.253 L70.6636 952.253 L70.6636 962.757 L65.38 962.757 L65.38 945.888 L85.7821 945.888 Q88.4239 949.611 89.7925 954.099 Q91.1293 958.587 91.1293 963.68 Q91.1293 974.82 84.6363 981.122 Q78.1114 987.392 66.494 987.392 Q54.8448 987.392 48.3518 981.122 Q41.8269 974.82 41.8269 963.68 Q41.8269 959.033 42.9727 954.863 Q44.1186 950.662 46.3466 947.129 L53.1897 947.129 Q50.166 950.694 48.6382 954.704 Q47.1104 958.714 47.1104 963.139 Q47.1104 971.86 51.9802 976.252 Q56.85 980.612 66.494 980.612 Q76.1062 980.612 80.976 976.252 Q85.8458 971.86 85.8458 963.139 Q85.8458 959.733 85.2729 957.059 Q84.6681 954.386 83.4268 952.253 Z" fill="#000000" fill-rule="nonzero" fill-opacity="1" /><path clip-path="url(#clip410)" d="M70.9182 903.906 L73.7828 903.906 L73.7828 930.833 Q79.8302 930.451 83.013 927.204 Q86.1641 923.926 86.1641 918.101 Q86.1641 914.727 85.3365 911.576 Q84.509 908.393 82.8539 905.274 L88.3921 905.274 Q89.7289 908.425 90.4291 911.735 Q91.1293 915.046 91.1293 918.451 Q91.1293 926.981 86.1641 931.978 Q81.1988 936.944 72.7324 936.944 Q63.9796 936.944 58.8552 932.233 Q53.699 927.491 53.699 919.47 Q53.699 912.277 58.3459 908.107 Q62.9611 903.906 70.9182 903.906 M69.1995 909.762 Q64.3933 909.826 61.5288 912.468 Q58.6642 915.077 58.6642 919.406 Q58.6642 924.308 61.4333 927.268 Q64.2024 930.196 69.2313 930.642 L69.1995 909.762 Z" fill="#000000" fill-rule="nonzero" fill-opacity="1" /><path clip-path="url(#clip410)" d="M68.6902 864.661 L90.2063 864.661 L90.2063 870.518 L68.8812 870.518 Q63.8204 870.518 61.306 872.491 Q58.7915 874.464 58.7915 878.411 Q58.7915 883.153 61.8152 885.891 Q64.8389 888.628 70.0588 888.628 L90.2063 888.628 L90.2063 894.516 L54.5583 894.516 L54.5583 888.628 L60.0965 888.628 Q56.8818 886.527 55.2904 883.695 Q53.699 880.83 53.699 877.106 Q53.699 870.963 57.5184 867.812 Q61.306 864.661 68.6902 864.661 Z" fill="#000000" fill-rule="nonzero" fill-opacity="1" /><path clip-path="url(#clip410)" d="M58.6642 839.166 Q58.6642 843.877 62.3563 846.614 Q66.0166 849.352 72.4141 849.352 Q78.8117 849.352 82.5038 846.646 Q86.1641 843.909 86.1641 839.166 Q86.1641 834.488 82.4719 831.75 Q78.7798 829.013 72.4141 829.013 Q66.0803 829.013 62.3881 831.75 Q58.6642 834.488 58.6642 839.166 M53.699 839.166 Q53.699 831.528 58.6642 827.167 Q63.6295 822.807 72.4141 822.807 Q81.167 822.807 86.1641 827.167 Q91.1293 831.528 91.1293 839.166 Q91.1293 846.837 86.1641 851.198 Q81.167 855.526 72.4141 855.526 Q63.6295 855.526 58.6642 851.198 Q53.699 846.837 53.699 839.166 Z" fill="#000000" fill-rule="nonzero" fill-opacity="1" /><path clip-path="url(#clip410)" d="M61.4015 785.344 Q57.4547 783.148 55.5768 780.093 Q53.699 777.037 53.699 772.899 Q53.699 767.329 57.6139 764.306 Q61.4969 761.282 68.6902 761.282 L90.2063 761.282 L90.2063 767.17 L68.8812 767.17 Q63.7568 767.17 61.2741 768.985 Q58.7915 770.799 58.7915 774.523 Q58.7915 779.074 61.8152 781.716 Q64.8389 784.358 70.0588 784.358 L90.2063 784.358 L90.2063 790.246 L68.8812 790.246 Q63.7249 790.246 61.2741 792.06 Q58.7915 793.874 58.7915 797.662 Q58.7915 802.15 61.8471 804.792 Q64.8708 807.433 70.0588 807.433 L90.2063 807.433 L90.2063 813.322 L54.5583 813.322 L54.5583 807.433 L60.0965 807.433 Q56.8182 805.428 55.2586 802.627 Q53.699 799.826 53.699 795.975 Q53.699 792.092 55.6723 789.387 Q57.6457 786.649 61.4015 785.344 Z" fill="#000000" fill-rule="nonzero" fill-opacity="1" /><path clip-path="url(#clip410)" d="M70.9182 719.109 L73.7828 719.109 L73.7828 746.036 Q79.8302 745.654 83.013 742.408 Q86.1641 739.129 86.1641 733.305 Q86.1641 729.931 85.3365 726.78 Q84.509 723.597 82.8539 720.478 L88.3921 720.478 Q89.7289 723.629 90.4291 726.939 Q91.1293 730.249 91.1293 733.655 Q91.1293 742.185 86.1641 747.182 Q81.1988 752.147 72.7324 752.147 Q63.9796 752.147 58.8552 747.437 Q53.699 742.694 53.699 734.673 Q53.699 727.48 58.3459 723.311 Q62.9611 719.109 70.9182 719.109 M69.1995 724.966 Q64.3933 725.029 61.5288 727.671 Q58.6642 730.281 58.6642 734.61 Q58.6642 739.511 61.4333 742.471 Q64.2024 745.4 69.2313 745.845 L69.1995 724.966 Z" fill="#000000" fill-rule="nonzero" fill-opacity="1" /><path clip-path="url(#clip410)" d="M55.6087 686.771 L61.1468 686.771 Q59.8737 689.254 59.2371 691.928 Q58.6006 694.601 58.6006 697.466 Q58.6006 701.826 59.9373 704.022 Q61.2741 706.187 63.9477 706.187 Q65.9848 706.187 67.1624 704.627 Q68.3083 703.068 69.3586 698.357 L69.8042 696.352 Q71.141 690.113 73.5918 687.503 Q76.0108 684.862 80.3713 684.862 Q85.3365 684.862 88.2329 688.808 Q91.1293 692.723 91.1293 699.598 Q91.1293 702.463 90.5564 705.582 Q90.0153 708.669 88.9013 712.107 L82.8539 712.107 Q84.5408 708.86 85.4002 705.709 Q86.2277 702.558 86.2277 699.471 Q86.2277 695.333 84.8273 693.105 Q83.395 690.877 80.8169 690.877 Q78.4297 690.877 77.1566 692.501 Q75.8834 694.092 74.7058 699.535 L74.2284 701.572 Q73.0825 707.014 70.7272 709.433 Q68.3401 711.852 64.2024 711.852 Q59.1735 711.852 56.4362 708.288 Q53.699 704.723 53.699 698.166 Q53.699 694.92 54.1764 692.055 Q54.6538 689.19 55.6087 686.771 Z" fill="#000000" fill-rule="nonzero" fill-opacity="1" /><path clip-path="url(#clip410)" d="M42.6863 665.128 L42.6863 659.717 L96.2537 676.268 L96.2537 681.679 L42.6863 665.128 Z" fill="#000000" fill-rule="nonzero" fill-opacity="1" /><path clip-path="url(#clip410)" d="M47.9698 646.89 L84.9227 646.89 L84.9227 639.124 Q84.9227 629.289 80.4668 624.738 Q76.0108 620.154 66.3985 620.154 Q56.85 620.154 52.4258 624.738 Q47.9698 629.289 47.9698 639.124 L47.9698 646.89 M42.6863 653.32 L42.6863 640.111 Q42.6863 626.297 48.4472 619.836 Q54.1764 613.375 66.3985 613.375 Q78.6844 613.375 84.4453 619.868 Q90.2063 626.361 90.2063 640.111 L90.2063 653.32 L42.6863 653.32 Z" fill="#000000" fill-rule="nonzero" fill-opacity="1" /><path clip-path="url(#clip410)" d="M72.2868 587.18 Q72.2868 594.278 73.9101 597.015 Q75.5333 599.752 79.4482 599.752 Q82.5674 599.752 84.4135 597.715 Q86.2277 595.646 86.2277 592.113 Q86.2277 587.244 82.7902 584.315 Q79.3209 581.355 73.5918 581.355 L72.2868 581.355 L72.2868 587.18 M69.8679 575.499 L90.2063 575.499 L90.2063 581.355 L84.7954 581.355 Q88.0419 583.361 89.6015 586.352 Q91.1293 589.344 91.1293 593.673 Q91.1293 599.147 88.0738 602.394 Q84.9864 605.609 79.8302 605.609 Q73.8146 605.609 70.759 601.598 Q67.7035 597.556 67.7035 589.567 L67.7035 581.355 L67.1306 581.355 Q63.0884 581.355 60.8922 584.029 Q58.6642 586.671 58.6642 591.477 Q58.6642 594.532 59.3963 597.429 Q60.1283 600.325 61.5924 602.999 L56.1816 602.999 Q54.9403 599.784 54.3355 596.76 Q53.699 593.737 53.699 590.872 Q53.699 583.138 57.7094 579.318 Q61.7197 575.499 69.8679 575.499 Z" fill="#000000" fill-rule="nonzero" fill-opacity="1" /><path clip-path="url(#clip410)" d="M93.5165 548.604 Q99.8822 551.086 101.824 553.442 Q103.765 555.797 103.765 559.744 L103.765 564.423 L98.8636 564.423 L98.8636 560.985 Q98.8636 558.566 97.7178 557.229 Q96.572 555.892 92.307 554.269 L89.6334 553.219 L54.5583 567.637 L54.5583 561.431 L82.4401 550.291 L54.5583 539.151 L54.5583 532.944 L93.5165 548.604 Z" fill="#000000" fill-rule="nonzero" fill-opacity="1" /><path clip-path="url(#clip410)" d="M40.7447 490.071 Q48.0653 494.336 55.2267 496.405 Q62.3881 498.474 69.7405 498.474 Q77.0929 498.474 84.318 496.405 Q91.5113 494.304 98.8 490.071 L98.8 495.164 Q91.3203 499.938 84.0952 502.325 Q76.8701 504.68 69.7405 504.68 Q62.6428 504.68 55.4495 502.325 Q48.2563 499.97 40.7447 495.164 L40.7447 490.071 Z" fill="#000000" fill-rule="nonzero" fill-opacity="1" /><path clip-path="url(#clip410)" d="M47.9698 472.024 L84.9227 472.024 L84.9227 464.258 Q84.9227 454.423 80.4668 449.872 Q76.0108 445.288 66.3985 445.288 Q56.85 445.288 52.4258 449.872 Q47.9698 454.423 47.9698 464.258 L47.9698 472.024 M42.6863 478.454 L42.6863 465.245 Q42.6863 451.431 48.4472 444.97 Q54.1764 438.509 66.3985 438.509 Q78.6844 438.509 84.4453 445.002 Q90.2063 451.495 90.2063 465.245 L90.2063 478.454 L42.6863 478.454 Z" fill="#000000" fill-rule="nonzero" fill-opacity="1" /><path clip-path="url(#clip410)" d="M70.9182 398.023 L73.7828 398.023 L73.7828 424.95 Q79.8302 424.568 83.013 421.321 Q86.1641 418.043 86.1641 412.218 Q86.1641 408.845 85.3365 405.694 Q84.509 402.511 82.8539 399.392 L88.3921 399.392 Q89.7289 402.543 90.4291 405.853 Q91.1293 409.163 91.1293 412.569 Q91.1293 421.099 86.1641 426.096 Q81.1988 431.061 72.7324 431.061 Q63.9796 431.061 58.8552 426.35 Q53.699 421.608 53.699 413.587 Q53.699 406.394 58.3459 402.224 Q62.9611 398.023 70.9182 398.023 M69.1995 403.879 Q64.3933 403.943 61.5288 406.585 Q58.6642 409.195 58.6642 413.523 Q58.6642 418.425 61.4333 421.385 Q64.2024 424.313 69.2313 424.759 L69.1995 403.879 Z" fill="#000000" fill-rule="nonzero" fill-opacity="1" /><path clip-path="url(#clip410)" d="M68.6902 358.778 L90.2063 358.778 L90.2063 364.635 L68.8812 364.635 Q63.8204 364.635 61.306 366.608 Q58.7915 368.582 58.7915 372.528 Q58.7915 377.271 61.8152 380.008 Q64.8389 382.745 70.0588 382.745 L90.2063 382.745 L90.2063 388.634 L54.5583 388.634 L54.5583 382.745 L60.0965 382.745 Q56.8818 380.645 55.2904 377.812 Q53.699 374.947 53.699 371.223 Q53.699 365.08 57.5184 361.929 Q61.306 358.778 68.6902 358.778 Z" fill="#000000" fill-rule="nonzero" fill-opacity="1" /><path clip-path="url(#clip410)" d="M61.4015 319.343 Q57.4547 317.147 55.5768 314.091 Q53.699 311.036 53.699 306.898 Q53.699 301.328 57.6139 298.304 Q61.4969 295.28 68.6902 295.28 L90.2063 295.28 L90.2063 301.169 L68.8812 301.169 Q63.7568 301.169 61.2741 302.983 Q58.7915 304.797 58.7915 308.521 Q58.7915 313.073 61.8152 315.714 Q64.8389 318.356 70.0588 318.356 L90.2063 318.356 L90.2063 324.244 L68.8812 324.244 Q63.7249 324.244 61.2741 326.059 Q58.7915 327.873 58.7915 331.66 Q58.7915 336.148 61.8471 338.79 Q64.8708 341.432 70.0588 341.432 L90.2063 341.432 L90.2063 347.32 L54.5583 347.32 L54.5583 341.432 L60.0965 341.432 Q56.8182 339.427 55.2586 336.626 Q53.699 333.825 53.699 329.974 Q53.699 326.09 55.6723 323.385 Q57.6457 320.648 61.4015 319.343 Z" fill="#000000" fill-rule="nonzero" fill-opacity="1" /><path clip-path="url(#clip410)" d="M72.2868 267.399 Q72.2868 274.496 73.9101 277.234 Q75.5333 279.971 79.4482 279.971 Q82.5674 279.971 84.4135 277.934 Q86.2277 275.865 86.2277 272.332 Q86.2277 267.462 82.7902 264.534 Q79.3209 261.574 73.5918 261.574 L72.2868 261.574 L72.2868 267.399 M69.8679 255.718 L90.2063 255.718 L90.2063 261.574 L84.7954 261.574 Q88.0419 263.579 89.6015 266.571 Q91.1293 269.563 91.1293 273.892 Q91.1293 279.366 88.0738 282.613 Q84.9864 285.827 79.8302 285.827 Q73.8146 285.827 70.759 281.817 Q67.7035 277.775 67.7035 269.786 L67.7035 261.574 L67.1306 261.574 Q63.0884 261.574 60.8922 264.248 Q58.6642 266.889 58.6642 271.696 Q58.6642 274.751 59.3963 277.647 Q60.1283 280.544 61.5924 283.217 L56.1816 283.217 Q54.9403 280.003 54.3355 276.979 Q53.699 273.955 53.699 271.091 Q53.699 263.356 57.7094 259.537 Q61.7197 255.718 69.8679 255.718 Z" fill="#000000" fill-rule="nonzero" fill-opacity="1" /><path clip-path="url(#clip410)" d="M60.0328 222.998 Q59.4599 223.985 59.2053 225.162 Q58.9188 226.308 58.9188 227.708 Q58.9188 232.674 62.1653 235.347 Q65.38 237.989 71.4274 237.989 L90.2063 237.989 L90.2063 243.877 L54.5583 243.877 L54.5583 237.989 L60.0965 237.989 Q56.85 236.143 55.2904 233.183 Q53.699 230.223 53.699 225.99 Q53.699 225.385 53.7944 224.653 Q53.8581 223.921 54.0172 223.03 L60.0328 222.998 Z" fill="#000000" fill-rule="nonzero" fill-opacity="1" /><path clip-path="url(#clip410)" d="M40.6811 217.078 L40.6811 211.189 L69.9315 211.189 L54.5583 193.716 L54.5583 186.236 L71.2365 205.142 L90.2063 185.44 L90.2063 193.079 L72.7961 211.189 L90.2063 211.189 L90.2063 217.078 L40.6811 217.078 Z" fill="#000000" fill-rule="nonzero" fill-opacity="1" /><path clip-path="url(#clip410)" d="M40.7447 180.029 L40.7447 174.937 Q48.2563 170.163 55.4495 167.807 Q62.6428 165.42 69.7405 165.42 Q76.8701 165.42 84.0952 167.807 Q91.3203 170.163 98.8 174.937 L98.8 180.029 Q91.5113 175.796 84.318 173.727 Q77.0929 171.627 69.7405 171.627 Q62.3881 171.627 55.2267 173.727 Q48.0653 175.796 40.7447 180.029 Z" fill="#000000" fill-rule="nonzero" fill-opacity="1" /><path clip-path="url(#clip412)" d="M373.285 164.782 L373.285 1042.58 L395.828 1042.58 L395.828 164.782 L373.285 164.782 L373.285 164.782  Z" fill="#009af9" fill-rule="evenodd" fill-opacity="0.5"/>
<polyline clip-path="url(#clip412)" style="stroke:#000000; stroke-linecap:round; stroke-linejoin:round; stroke-width:4; stroke-opacity:0.5; fill:none" points="373.285,164.782 373.285,1042.58 395.828,1042.58 395.828,164.782 373.285,164.782 "/>
<path clip-path="url(#clip412)" d="M570.539 110.236 L570.539 1042.58 L593.083 1042.58 L593.083 110.236 L570.539 110.236 L570.539 110.236  Z" fill="#009af9" fill-rule="evenodd" fill-opacity="0.5"/>
<polyline clip-path="url(#clip412)" style="stroke:#000000; stroke-linecap:round; stroke-linejoin:round; stroke-width:4; stroke-opacity:0.5; fill:none" points="570.539,110.236 570.539,1042.58 593.083,1042.58 593.083,110.236 570.539,110.236 "/>
<path clip-path="url(#clip412)" d="M767.794 189.368 L767.794 1042.58 L790.337 1042.58 L790.337 189.368 L767.794 189.368 L767.794 189.368  Z" fill="#009af9" fill-rule="evenodd" fill-opacity="0.5"/>
<polyline clip-path="url(#clip412)" style="stroke:#000000; stroke-linecap:round; stroke-linejoin:round; stroke-width:4; stroke-opacity:0.5; fill:none" points="767.794,189.368 767.794,1042.58 790.337,1042.58 790.337,189.368 767.794,189.368 "/>
<path clip-path="url(#clip412)" d="M965.049 233.992 L965.049 1042.58 L987.592 1042.58 L987.592 233.992 L965.049 233.992 L965.049 233.992  Z" fill="#009af9" fill-rule="evenodd" fill-opacity="0.5"/>
<polyline clip-path="url(#clip412)" style="stroke:#000000; stroke-linecap:round; stroke-linejoin:round; stroke-width:4; stroke-opacity:0.5; fill:none" points="965.049,233.992 965.049,1042.58 987.592,1042.58 987.592,233.992 965.049,233.992 "/>
<path clip-path="url(#clip412)" d="M1162.3 238.426 L1162.3 1042.58 L1184.85 1042.58 L1184.85 238.426 L1162.3 238.426 L1162.3 238.426  Z" fill="#009af9" fill-rule="evenodd" fill-opacity="0.5"/>
<polyline clip-path="url(#clip412)" style="stroke:#000000; stroke-linecap:round; stroke-linejoin:round; stroke-width:4; stroke-opacity:0.5; fill:none" points="1162.3,238.426 1162.3,1042.58 1184.85,1042.58 1184.85,238.426 1162.3,238.426 "/>
<path clip-path="url(#clip412)" d="M1359.56 183.662 L1359.56 1042.58 L1382.1 1042.58 L1382.1 183.662 L1359.56 183.662 L1359.56 183.662  Z" fill="#009af9" fill-rule="evenodd" fill-opacity="0.5"/>
<polyline clip-path="url(#clip412)" style="stroke:#000000; stroke-linecap:round; stroke-linejoin:round; stroke-width:4; stroke-opacity:0.5; fill:none" points="1359.56,183.662 1359.56,1042.58 1382.1,1042.58 1382.1,183.662 1359.56,183.662 "/>
<path clip-path="url(#clip412)" d="M1556.81 148.519 L1556.81 1042.58 L1579.36 1042.58 L1579.36 148.519 L1556.81 148.519 L1556.81 148.519  Z" fill="#009af9" fill-rule="evenodd" fill-opacity="0.5"/>
<polyline clip-path="url(#clip412)" style="stroke:#000000; stroke-linecap:round; stroke-linejoin:round; stroke-width:4; stroke-opacity:0.5; fill:none" points="1556.81,148.519 1556.81,1042.58 1579.36,1042.58 1579.36,148.519 1556.81,148.519 "/>
<path clip-path="url(#clip412)" d="M1754.07 187.717 L1754.07 1042.58 L1776.61 1042.58 L1776.61 187.717 L1754.07 187.717 L1754.07 187.717  Z" fill="#009af9" fill-rule="evenodd" fill-opacity="0.5"/>
<polyline clip-path="url(#clip412)" style="stroke:#000000; stroke-linecap:round; stroke-linejoin:round; stroke-width:4; stroke-opacity:0.5; fill:none" points="1754.07,187.717 1754.07,1042.58 1776.61,1042.58 1776.61,187.717 1754.07,187.717 "/>
<path clip-path="url(#clip412)" d="M1951.32 210.619 L1951.32 1042.58 L1973.87 1042.58 L1973.87 210.619 L1951.32 210.619 L1951.32 210.619  Z" fill="#009af9" fill-rule="evenodd" fill-opacity="0.5"/>
<polyline clip-path="url(#clip412)" style="stroke:#000000; stroke-linecap:round; stroke-linejoin:round; stroke-width:4; stroke-opacity:0.5; fill:none" points="1951.32,210.619 1951.32,1042.58 1973.87,1042.58 1973.87,210.619 1951.32,210.619 "/>
<path clip-path="url(#clip412)" d="M2148.58 192.722 L2148.58 1042.58 L2171.12 1042.58 L2171.12 192.722 L2148.58 192.722 L2148.58 192.722  Z" fill="#009af9" fill-rule="evenodd" fill-opacity="0.5"/>
<polyline clip-path="url(#clip412)" style="stroke:#000000; stroke-linecap:round; stroke-linejoin:round; stroke-width:4; stroke-opacity:0.5; fill:none" points="2148.58,192.722 2148.58,1042.58 2171.12,1042.58 2171.12,192.722 2148.58,192.722 "/>
<path clip-path="url(#clip412)" d="M2345.83 266.584 L2345.83 1042.58 L2368.38 1042.58 L2368.38 266.584 L2345.83 266.584 L2345.83 266.584  Z" fill="#009af9" fill-rule="evenodd" fill-opacity="0.5"/>
<polyline clip-path="url(#clip412)" style="stroke:#000000; stroke-linecap:round; stroke-linejoin:round; stroke-width:4; stroke-opacity:0.5; fill:none" points="2345.83,266.584 2345.83,1042.58 2368.38,1042.58 2368.38,266.584 2345.83,266.584 "/>
<path clip-path="url(#clip412)" d="M2543.09 323.724 L2543.09 1042.58 L2565.63 1042.58 L2565.63 323.724 L2543.09 323.724 L2543.09 323.724  Z" fill="#009af9" fill-rule="evenodd" fill-opacity="0.5"/>
<polyline clip-path="url(#clip412)" style="stroke:#000000; stroke-linecap:round; stroke-linejoin:round; stroke-width:4; stroke-opacity:0.5; fill:none" points="2543.09,323.724 2543.09,1042.58 2565.63,1042.58 2565.63,323.724 2543.09,323.724 "/>
<circle clip-path="url(#clip412)" style="fill:#009af9; stroke:none; fill-opacity:0" cx="384.556" cy="164.782" r="2"/>
<circle clip-path="url(#clip412)" style="fill:#009af9; stroke:none; fill-opacity:0" cx="581.811" cy="110.236" r="2"/>
<circle clip-path="url(#clip412)" style="fill:#009af9; stroke:none; fill-opacity:0" cx="779.066" cy="189.368" r="2"/>
<circle clip-path="url(#clip412)" style="fill:#009af9; stroke:none; fill-opacity:0" cx="976.32" cy="233.992" r="2"/>
<circle clip-path="url(#clip412)" style="fill:#009af9; stroke:none; fill-opacity:0" cx="1173.58" cy="238.426" r="2"/>
<circle clip-path="url(#clip412)" style="fill:#009af9; stroke:none; fill-opacity:0" cx="1370.83" cy="183.662" r="2"/>
<circle clip-path="url(#clip412)" style="fill:#009af9; stroke:none; fill-opacity:0" cx="1568.08" cy="148.519" r="2"/>
<circle clip-path="url(#clip412)" style="fill:#009af9; stroke:none; fill-opacity:0" cx="1765.34" cy="187.717" r="2"/>
<circle clip-path="url(#clip412)" style="fill:#009af9; stroke:none; fill-opacity:0" cx="1962.59" cy="210.619" r="2"/>
<circle clip-path="url(#clip412)" style="fill:#009af9; stroke:none; fill-opacity:0" cx="2159.85" cy="192.722" r="2"/>
<circle clip-path="url(#clip412)" style="fill:#009af9; stroke:none; fill-opacity:0" cx="2357.1" cy="266.584" r="2"/>
<circle clip-path="url(#clip412)" style="fill:#009af9; stroke:none; fill-opacity:0" cx="2554.36" cy="323.724" r="2"/>
</svg>
