<?xml version="1.0" encoding="utf-8"?>
<svg xmlns="http://www.w3.org/2000/svg" xmlns:xlink="http://www.w3.org/1999/xlink" width="800" height="300" viewBox="0 0 3200 1200">
<defs>
  <clipPath id="clip490">
    <rect x="0" y="0" width="3200" height="1200"/>
  </clipPath>
</defs>
<path clip-path="url(#clip490)" d="M0 1200 L3200 1200 L3200 0 L0 0  Z" fill="#ffffff" fill-rule="evenodd" fill-opacity="1"/>
<defs>
  <clipPath id="clip491">
    <rect x="640" y="0" width="2241" height="1200"/>
  </clipPath>
</defs>
<path clip-path="url(#clip490)" d="M271.839 1042.58 L3089.76 1042.58 L3089.76 110.236 L271.839 110.236  Z" fill="#ffffff" fill-rule="evenodd" fill-opacity="1"/>
<defs>
  <clipPath id="clip492">
    <rect x="271" y="110" width="2819" height="933"/>
  </clipPath>
</defs>
<polyline clip-path="url(#clip492)" style="stroke:#000000; stroke-linecap:round; stroke-linejoin:round; stroke-width:2; stroke-opacity:0.1; fill:none" points="1117.22,1042.58 1117.22,110.236 "/>
<polyline clip-path="url(#clip492)" style="stroke:#000000; stroke-linecap:round; stroke-linejoin:round; stroke-width:2; stroke-opacity:0.1; fill:none" points="1990.77,1042.58 1990.77,110.236 "/>
<polyline clip-path="url(#clip492)" style="stroke:#000000; stroke-linecap:round; stroke-linejoin:round; stroke-width:2; stroke-opacity:0.1; fill:none" points="2836.15,1042.58 2836.15,110.236 "/>
<polyline clip-path="url(#clip490)" style="stroke:#000000; stroke-linecap:round; stroke-linejoin:round; stroke-width:4; stroke-opacity:1; fill:none" points="271.839,1042.58 3089.76,1042.58 "/>
<polyline clip-path="url(#clip490)" style="stroke:#000000; stroke-linecap:round; stroke-linejoin:round; stroke-width:4; stroke-opacity:1; fill:none" points="1117.22,1042.58 1117.22,1023.68 "/>
<polyline clip-path="url(#clip490)" style="stroke:#000000; stroke-linecap:round; stroke-linejoin:round; stroke-width:4; stroke-opacity:1; fill:none" points="1990.77,1042.58 1990.77,1023.68 "/>
<polyline clip-path="url(#clip490)" style="stroke:#000000; stroke-linecap:round; stroke-linejoin:round; stroke-width:4; stroke-opacity:1; fill:none" points="2836.15,1042.58 2836.15,1023.68 "/>
<path clip-path="url(#clip490)" d="M989.011 1107.44 L1005.33 1107.44 L1005.33 1111.38 L983.386 1111.38 L983.386 1107.44 Q986.048 1104.69 990.632 1100.06 Q995.238 1095.4 996.419 1094.06 Q998.664 1091.54 999.544 1089.8 Q1000.45 1088.04 1000.45 1086.35 Q1000.45 1083.6 998.502 1081.86 Q996.581 1080.13 993.479 1080.13 Q991.28 1080.13 988.826 1080.89 Q986.396 1081.65 983.618 1083.2 L983.618 1078.48 Q986.442 1077.35 988.896 1076.77 Q991.349 1076.19 993.386 1076.19 Q998.757 1076.19 1001.95 1078.88 Q1005.15 1081.56 1005.15 1086.05 Q1005.15 1088.18 1004.34 1090.1 Q1003.55 1092 1001.44 1094.59 Q1000.86 1095.26 997.761 1098.48 Q994.659 1101.68 989.011 1107.44 Z" fill="#000000" fill-rule="nonzero" fill-opacity="1" /><path clip-path="url(#clip490)" d="M1025.15 1079.89 Q1021.53 1079.89 1019.71 1083.46 Q1017.9 1087 1017.9 1094.13 Q1017.9 1101.24 1019.71 1104.8 Q1021.53 1108.34 1025.15 1108.34 Q1028.78 1108.34 1030.59 1104.8 Q1032.41 1101.24 1032.41 1094.13 Q1032.41 1087 1030.59 1083.46 Q1028.78 1079.89 1025.15 1079.89 M1025.15 1076.19 Q1030.96 1076.19 1034.01 1080.8 Q1037.09 1085.38 1037.09 1094.13 Q1037.09 1102.86 1034.01 1107.46 Q1030.96 1112.05 1025.15 1112.05 Q1019.34 1112.05 1016.26 1107.46 Q1013.2 1102.86 1013.2 1094.13 Q1013.2 1085.38 1016.26 1080.8 Q1019.34 1076.19 1025.15 1076.19 Z" fill="#000000" fill-rule="nonzero" fill-opacity="1" /><path clip-path="url(#clip490)" d="M1049.34 1107.44 L1065.65 1107.44 L1065.65 1111.38 L1043.71 1111.38 L1043.71 1107.44 Q1046.37 1104.69 1050.96 1100.06 Q1055.56 1095.4 1056.74 1094.06 Q1058.99 1091.54 1059.87 1089.8 Q1060.77 1088.04 1060.77 1086.35 Q1060.77 1083.6 1058.83 1081.86 Q1056.9 1080.13 1053.8 1080.13 Q1051.6 1080.13 1049.15 1080.89 Q1046.72 1081.65 1043.94 1083.2 L1043.94 1078.48 Q1046.77 1077.35 1049.22 1076.77 Q1051.67 1076.19 1053.71 1076.19 Q1059.08 1076.19 1062.27 1078.88 Q1065.47 1081.56 1065.47 1086.05 Q1065.47 1088.18 1064.66 1090.1 Q1063.87 1092 1061.77 1094.59 Q1061.19 1095.26 1058.08 1098.48 Q1054.98 1101.68 1049.34 1107.44 Z" fill="#000000" fill-rule="nonzero" fill-opacity="1" /><path clip-path="url(#clip490)" d="M1088.32 1080.89 L1076.51 1099.34 L1088.32 1099.34 L1088.32 1080.89 M1087.09 1076.82 L1092.97 1076.82 L1092.97 1099.34 L1097.9 1099.34 L1097.9 1103.23 L1092.97 1103.23 L1092.97 1111.38 L1088.32 1111.38 L1088.32 1103.23 L1072.71 1103.23 L1072.71 1098.71 L1087.09 1076.82 Z" fill="#000000" fill-rule="nonzero" fill-opacity="1" /><path clip-path="url(#clip490)" d="M1102.88 1096.49 L1115.35 1096.49 L1115.35 1100.29 L1102.88 1100.29 L1102.88 1096.49 Z" fill="#000000" fill-rule="nonzero" fill-opacity="1" /><path clip-path="url(#clip490)" d="M1132.74 1079.89 Q1129.13 1079.89 1127.3 1083.46 Q1125.49 1087 1125.49 1094.13 Q1125.49 1101.24 1127.3 1104.8 Q1129.13 1108.34 1132.74 1108.34 Q1136.37 1108.34 1138.18 1104.8 Q1140.01 1101.24 1140.01 1094.13 Q1140.01 1087 1138.18 1083.46 Q1136.37 1079.89 1132.74 1079.89 M1132.74 1076.19 Q1138.55 1076.19 1141.6 1080.8 Q1144.68 1085.38 1144.68 1094.13 Q1144.68 1102.86 1141.6 1107.46 Q1138.55 1112.05 1132.74 1112.05 Q1126.93 1112.05 1123.85 1107.46 Q1120.79 1102.86 1120.79 1094.13 Q1120.79 1085.38 1123.85 1080.8 Q1126.93 1076.19 1132.74 1076.19 Z" fill="#000000" fill-rule="nonzero" fill-opacity="1" /><path clip-path="url(#clip490)" d="M1162.9 1094.96 Q1159.57 1094.96 1157.64 1096.75 Q1155.75 1098.53 1155.75 1101.65 Q1155.75 1104.78 1157.64 1106.56 Q1159.57 1108.34 1162.9 1108.34 Q1166.23 1108.34 1168.15 1106.56 Q1170.08 1104.76 1170.08 1101.65 Q1170.08 1098.53 1168.15 1096.75 Q1166.26 1094.96 1162.9 1094.96 M1158.22 1092.97 Q1155.21 1092.23 1153.52 1090.17 Q1151.86 1088.11 1151.86 1085.15 Q1151.86 1081.01 1154.8 1078.6 Q1157.76 1076.19 1162.9 1076.19 Q1168.06 1076.19 1171 1078.6 Q1173.94 1081.01 1173.94 1085.15 Q1173.94 1088.11 1172.25 1090.17 Q1170.58 1092.23 1167.6 1092.97 Q1170.98 1093.76 1172.85 1096.05 Q1174.75 1098.34 1174.75 1101.65 Q1174.75 1106.68 1171.67 1109.36 Q1168.62 1112.05 1162.9 1112.05 Q1157.18 1112.05 1154.1 1109.36 Q1151.05 1106.68 1151.05 1101.65 Q1151.05 1098.34 1152.95 1096.05 Q1154.84 1093.76 1158.22 1092.97 M1156.51 1085.59 Q1156.51 1088.27 1158.18 1089.78 Q1159.87 1091.28 1162.9 1091.28 Q1165.91 1091.28 1167.6 1089.78 Q1169.31 1088.27 1169.31 1085.59 Q1169.31 1082.9 1167.6 1081.4 Q1165.91 1079.89 1162.9 1079.89 Q1159.87 1079.89 1158.18 1081.4 Q1156.51 1082.9 1156.51 1085.59 Z" fill="#000000" fill-rule="nonzero" fill-opacity="1" /><path clip-path="url(#clip490)" d="M1180.31 1096.49 L1192.78 1096.49 L1192.78 1100.29 L1180.31 1100.29 L1180.31 1096.49 Z" fill="#000000" fill-rule="nonzero" fill-opacity="1" /><path clip-path="url(#clip490)" d="M1210.17 1079.89 Q1206.56 1079.89 1204.73 1083.46 Q1202.92 1087 1202.92 1094.13 Q1202.92 1101.24 1204.73 1104.8 Q1206.56 1108.34 1210.17 1108.34 Q1213.8 1108.34 1215.61 1104.8 Q1217.44 1101.24 1217.44 1094.13 Q1217.44 1087 1215.61 1083.46 Q1213.8 1079.89 1210.17 1079.89 M1210.17 1076.19 Q1215.98 1076.19 1219.03 1080.8 Q1222.11 1085.38 1222.11 1094.13 Q1222.11 1102.86 1219.03 1107.46 Q1215.98 1112.05 1210.17 1112.05 Q1204.36 1112.05 1201.28 1107.46 Q1198.22 1102.86 1198.22 1094.13 Q1198.22 1085.38 1201.28 1080.8 Q1204.36 1076.19 1210.17 1076.19 Z" fill="#000000" fill-rule="nonzero" fill-opacity="1" /><path clip-path="url(#clip490)" d="M1231.14 1107.44 L1238.78 1107.44 L1238.78 1081.07 L1230.47 1082.74 L1230.47 1078.48 L1238.73 1076.82 L1243.41 1076.82 L1243.41 1107.44 L1251.05 1107.44 L1251.05 1111.38 L1231.14 1111.38 L1231.14 1107.44 Z" fill="#000000" fill-rule="nonzero" fill-opacity="1" /><path clip-path="url(#clip490)" d="M1862.57 1107.44 L1878.89 1107.44 L1878.89 1111.38 L1856.94 1111.38 L1856.94 1107.44 Q1859.6 1104.69 1864.19 1100.06 Q1868.79 1095.4 1869.98 1094.06 Q1872.22 1091.54 1873.1 1089.8 Q1874 1088.04 1874 1086.35 Q1874 1083.6 1872.06 1081.86 Q1870.14 1080.13 1867.04 1080.13 Q1864.84 1080.13 1862.38 1080.89 Q1859.95 1081.65 1857.17 1083.2 L1857.17 1078.48 Q1860 1077.35 1862.45 1076.77 Q1864.91 1076.19 1866.94 1076.19 Q1872.31 1076.19 1875.51 1078.88 Q1878.7 1081.56 1878.7 1086.05 Q1878.7 1088.18 1877.89 1090.1 Q1877.1 1092 1875 1094.59 Q1874.42 1095.26 1871.32 1098.48 Q1868.22 1101.68 1862.57 1107.44 Z" fill="#000000" fill-rule="nonzero" fill-opacity="1" /><path clip-path="url(#clip490)" d="M1898.7 1079.89 Q1895.09 1079.89 1893.26 1083.46 Q1891.46 1087 1891.46 1094.13 Q1891.46 1101.24 1893.26 1104.8 Q1895.09 1108.34 1898.7 1108.34 Q1902.34 1108.34 1904.14 1104.8 Q1905.97 1101.24 1905.97 1094.13 Q1905.97 1087 1904.14 1083.46 Q1902.34 1079.89 1898.7 1079.89 M1898.7 1076.19 Q1904.51 1076.19 1907.57 1080.8 Q1910.65 1085.38 1910.65 1094.13 Q1910.65 1102.86 1907.57 1107.46 Q1904.51 1112.05 1898.7 1112.05 Q1892.89 1112.05 1889.81 1107.46 Q1886.76 1102.86 1886.76 1094.13 Q1886.76 1085.38 1889.81 1080.8 Q1892.89 1076.19 1898.7 1076.19 Z" fill="#000000" fill-rule="nonzero" fill-opacity="1" /><path clip-path="url(#clip490)" d="M1922.89 1107.44 L1939.21 1107.44 L1939.21 1111.38 L1917.27 1111.38 L1917.27 1107.44 Q1919.93 1104.69 1924.51 1100.06 Q1929.12 1095.4 1930.3 1094.06 Q1932.54 1091.54 1933.42 1089.8 Q1934.33 1088.04 1934.33 1086.35 Q1934.33 1083.6 1932.38 1081.86 Q1930.46 1080.13 1927.36 1080.13 Q1925.16 1080.13 1922.71 1080.89 Q1920.28 1081.65 1917.5 1083.2 L1917.5 1078.48 Q1920.32 1077.35 1922.78 1076.77 Q1925.23 1076.19 1927.27 1076.19 Q1932.64 1076.19 1935.83 1078.88 Q1939.03 1081.56 1939.03 1086.05 Q1939.03 1088.18 1938.22 1090.1 Q1937.43 1092 1935.32 1094.59 Q1934.74 1095.26 1931.64 1098.48 Q1928.54 1101.68 1922.89 1107.44 Z" fill="#000000" fill-rule="nonzero" fill-opacity="1" /><path clip-path="url(#clip490)" d="M1961.87 1080.89 L1950.07 1099.34 L1961.87 1099.34 L1961.87 1080.89 M1960.65 1076.82 L1966.53 1076.82 L1966.53 1099.34 L1971.46 1099.34 L1971.46 1103.23 L1966.53 1103.23 L1966.53 1111.38 L1961.87 1111.38 L1961.87 1103.23 L1946.27 1103.23 L1946.27 1098.71 L1960.65 1076.82 Z" fill="#000000" fill-rule="nonzero" fill-opacity="1" /><path clip-path="url(#clip490)" d="M1976.43 1096.49 L1988.91 1096.49 L1988.91 1100.29 L1976.43 1100.29 L1976.43 1096.49 Z" fill="#000000" fill-rule="nonzero" fill-opacity="1" /><path clip-path="url(#clip490)" d="M2006.29 1079.89 Q2002.68 1079.89 2000.85 1083.46 Q1999.05 1087 1999.05 1094.13 Q1999.05 1101.24 2000.85 1104.8 Q2002.68 1108.34 2006.29 1108.34 Q2009.93 1108.34 2011.73 1104.8 Q2013.56 1101.24 2013.56 1094.13 Q2013.56 1087 2011.73 1083.46 Q2009.93 1079.89 2006.29 1079.89 M2006.29 1076.19 Q2012.1 1076.19 2015.16 1080.8 Q2018.24 1085.38 2018.24 1094.13 Q2018.24 1102.86 2015.16 1107.46 Q2012.1 1112.05 2006.29 1112.05 Q2000.48 1112.05 1997.41 1107.46 Q1994.35 1102.86 1994.35 1094.13 Q1994.35 1085.38 1997.41 1080.8 Q2000.48 1076.19 2006.29 1076.19 Z" fill="#000000" fill-rule="nonzero" fill-opacity="1" /><path clip-path="url(#clip490)" d="M2026.59 1110.66 L2026.59 1106.4 Q2028.35 1107.23 2030.16 1107.67 Q2031.97 1108.11 2033.7 1108.11 Q2038.33 1108.11 2040.76 1105.01 Q2043.22 1101.89 2043.56 1095.54 Q2042.22 1097.53 2040.16 1098.6 Q2038.1 1099.66 2035.6 1099.66 Q2030.41 1099.66 2027.38 1096.54 Q2024.37 1093.39 2024.37 1087.95 Q2024.37 1082.63 2027.52 1079.41 Q2030.67 1076.19 2035.9 1076.19 Q2041.9 1076.19 2045.04 1080.8 Q2048.22 1085.38 2048.22 1094.13 Q2048.22 1102.3 2044.33 1107.19 Q2040.46 1112.05 2033.91 1112.05 Q2032.15 1112.05 2030.34 1111.7 Q2028.54 1111.35 2026.59 1110.66 M2035.9 1096.01 Q2039.05 1096.01 2040.88 1093.85 Q2042.73 1091.7 2042.73 1087.95 Q2042.73 1084.22 2040.88 1082.07 Q2039.05 1079.89 2035.9 1079.89 Q2032.75 1079.89 2030.9 1082.07 Q2029.07 1084.22 2029.07 1087.95 Q2029.07 1091.7 2030.9 1093.85 Q2032.75 1096.01 2035.9 1096.01 Z" fill="#000000" fill-rule="nonzero" fill-opacity="1" /><path clip-path="url(#clip490)" d="M2053.86 1096.49 L2066.34 1096.49 L2066.34 1100.29 L2053.86 1100.29 L2053.86 1096.49 Z" fill="#000000" fill-rule="nonzero" fill-opacity="1" /><path clip-path="url(#clip490)" d="M2083.72 1079.89 Q2080.11 1079.89 2078.28 1083.46 Q2076.48 1087 2076.48 1094.13 Q2076.48 1101.24 2078.28 1104.8 Q2080.11 1108.34 2083.72 1108.34 Q2087.36 1108.34 2089.16 1104.8 Q2090.99 1101.24 2090.99 1094.13 Q2090.99 1087 2089.16 1083.46 Q2087.36 1079.89 2083.72 1079.89 M2083.72 1076.19 Q2089.53 1076.19 2092.59 1080.8 Q2095.67 1085.38 2095.67 1094.13 Q2095.67 1102.86 2092.59 1107.46 Q2089.53 1112.05 2083.72 1112.05 Q2077.91 1112.05 2074.84 1107.46 Q2071.78 1102.86 2071.78 1094.13 Q2071.78 1085.38 2074.84 1080.8 Q2077.91 1076.19 2083.72 1076.19 Z" fill="#000000" fill-rule="nonzero" fill-opacity="1" /><path clip-path="url(#clip490)" d="M2104.7 1107.44 L2112.34 1107.44 L2112.34 1081.07 L2104.02 1082.74 L2104.02 1078.48 L2112.29 1076.82 L2116.96 1076.82 L2116.96 1107.44 L2124.6 1107.44 L2124.6 1111.38 L2104.7 1111.38 L2104.7 1107.44 Z" fill="#000000" fill-rule="nonzero" fill-opacity="1" /><path clip-path="url(#clip490)" d="M2707.95 1107.44 L2724.26 1107.44 L2724.26 1111.38 L2702.32 1111.38 L2702.32 1107.44 Q2704.98 1104.69 2709.57 1100.06 Q2714.17 1095.4 2715.35 1094.06 Q2717.6 1091.54 2718.48 1089.8 Q2719.38 1088.04 2719.38 1086.35 Q2719.38 1083.6 2717.44 1081.86 Q2715.51 1080.13 2712.41 1080.13 Q2710.21 1080.13 2707.76 1080.89 Q2705.33 1081.65 2702.55 1083.2 L2702.55 1078.48 Q2705.38 1077.35 2707.83 1076.77 Q2710.28 1076.19 2712.32 1076.19 Q2717.69 1076.19 2720.88 1078.88 Q2724.08 1081.56 2724.08 1086.05 Q2724.08 1088.18 2723.27 1090.1 Q2722.48 1092 2720.38 1094.59 Q2719.8 1095.26 2716.7 1098.48 Q2713.59 1101.68 2707.95 1107.44 Z" fill="#000000" fill-rule="nonzero" fill-opacity="1" /><path clip-path="url(#clip490)" d="M2744.08 1079.89 Q2740.47 1079.89 2738.64 1083.46 Q2736.83 1087 2736.83 1094.13 Q2736.83 1101.24 2738.64 1104.8 Q2740.47 1108.34 2744.08 1108.34 Q2747.71 1108.34 2749.52 1104.8 Q2751.35 1101.24 2751.35 1094.13 Q2751.35 1087 2749.52 1083.46 Q2747.71 1079.89 2744.08 1079.89 M2744.08 1076.19 Q2749.89 1076.19 2752.94 1080.8 Q2756.02 1085.38 2756.02 1094.13 Q2756.02 1102.86 2752.94 1107.46 Q2749.89 1112.05 2744.08 1112.05 Q2738.27 1112.05 2735.19 1107.46 Q2732.13 1102.86 2732.13 1094.13 Q2732.13 1085.38 2735.19 1080.8 Q2738.27 1076.19 2744.08 1076.19 Z" fill="#000000" fill-rule="nonzero" fill-opacity="1" /><path clip-path="url(#clip490)" d="M2768.27 1107.44 L2784.59 1107.44 L2784.59 1111.38 L2762.64 1111.38 L2762.64 1107.44 Q2765.31 1104.69 2769.89 1100.06 Q2774.5 1095.4 2775.68 1094.06 Q2777.92 1091.54 2778.8 1089.8 Q2779.7 1088.04 2779.7 1086.35 Q2779.7 1083.6 2777.76 1081.86 Q2775.84 1080.13 2772.74 1080.13 Q2770.54 1080.13 2768.08 1080.89 Q2765.65 1081.65 2762.88 1083.2 L2762.88 1078.48 Q2765.7 1077.35 2768.15 1076.77 Q2770.61 1076.19 2772.64 1076.19 Q2778.01 1076.19 2781.21 1078.88 Q2784.4 1081.56 2784.4 1086.05 Q2784.4 1088.18 2783.59 1090.1 Q2782.81 1092 2780.7 1094.59 Q2780.12 1095.26 2777.02 1098.48 Q2773.92 1101.68 2768.27 1107.44 Z" fill="#000000" fill-rule="nonzero" fill-opacity="1" /><path clip-path="url(#clip490)" d="M2807.25 1080.89 L2795.44 1099.34 L2807.25 1099.34 L2807.25 1080.89 M2806.02 1076.82 L2811.9 1076.82 L2811.9 1099.34 L2816.83 1099.34 L2816.83 1103.23 L2811.9 1103.23 L2811.9 1111.38 L2807.25 1111.38 L2807.25 1103.23 L2791.65 1103.23 L2791.65 1098.71 L2806.02 1076.82 Z" fill="#000000" fill-rule="nonzero" fill-opacity="1" /><path clip-path="url(#clip490)" d="M2821.81 1096.49 L2834.29 1096.49 L2834.29 1100.29 L2821.81 1100.29 L2821.81 1096.49 Z" fill="#000000" fill-rule="nonzero" fill-opacity="1" /><path clip-path="url(#clip490)" d="M2842.48 1107.44 L2850.12 1107.44 L2850.12 1081.07 L2841.81 1082.74 L2841.81 1078.48 L2850.07 1076.82 L2854.75 1076.82 L2854.75 1107.44 L2862.39 1107.44 L2862.39 1111.38 L2842.48 1111.38 L2842.48 1107.44 Z" fill="#000000" fill-rule="nonzero" fill-opacity="1" /><path clip-path="url(#clip490)" d="M2881.83 1079.89 Q2878.22 1079.89 2876.39 1083.46 Q2874.59 1087 2874.59 1094.13 Q2874.59 1101.24 2876.39 1104.8 Q2878.22 1108.34 2881.83 1108.34 Q2885.47 1108.34 2887.27 1104.8 Q2889.1 1101.24 2889.1 1094.13 Q2889.1 1087 2887.27 1083.46 Q2885.47 1079.89 2881.83 1079.89 M2881.83 1076.19 Q2887.64 1076.19 2890.7 1080.8 Q2893.78 1085.38 2893.78 1094.13 Q2893.78 1102.86 2890.7 1107.46 Q2887.64 1112.05 2881.83 1112.05 Q2876.02 1112.05 2872.94 1107.46 Q2869.89 1102.86 2869.89 1094.13 Q2869.89 1085.38 2872.94 1080.8 Q2876.02 1076.19 2881.83 1076.19 Z" fill="#000000" fill-rule="nonzero" fill-opacity="1" /><path clip-path="url(#clip490)" d="M2899.24 1096.49 L2911.72 1096.49 L2911.72 1100.29 L2899.24 1100.29 L2899.24 1096.49 Z" fill="#000000" fill-rule="nonzero" fill-opacity="1" /><path clip-path="url(#clip490)" d="M2929.1 1079.89 Q2925.49 1079.89 2923.66 1083.46 Q2921.86 1087 2921.86 1094.13 Q2921.86 1101.24 2923.66 1104.8 Q2925.49 1108.34 2929.1 1108.34 Q2932.74 1108.34 2934.54 1104.8 Q2936.37 1101.24 2936.37 1094.13 Q2936.37 1087 2934.54 1083.46 Q2932.74 1079.89 2929.1 1079.89 M2929.1 1076.19 Q2934.91 1076.19 2937.97 1080.8 Q2941.05 1085.38 2941.05 1094.13 Q2941.05 1102.86 2937.97 1107.46 Q2934.91 1112.05 2929.1 1112.05 Q2923.29 1112.05 2920.21 1107.46 Q2917.16 1102.86 2917.16 1094.13 Q2917.16 1085.38 2920.21 1080.8 Q2923.29 1076.19 2929.1 1076.19 Z" fill="#000000" fill-rule="nonzero" fill-opacity="1" /><path clip-path="url(#clip490)" d="M2950.07 1107.44 L2957.71 1107.44 L2957.71 1081.07 L2949.4 1082.74 L2949.4 1078.48 L2957.67 1076.82 L2962.34 1076.82 L2962.34 1107.44 L2969.98 1107.44 L2969.98 1111.38 L2950.07 1111.38 L2950.07 1107.44 Z" fill="#000000" fill-rule="nonzero" fill-opacity="1" /><polyline clip-path="url(#clip492)" style="stroke:#000000; stroke-linecap:round; stroke-linejoin:round; stroke-width:2; stroke-opacity:0.1; fill:none" points="271.839,1042.58 3089.76,1042.58 "/>
<polyline clip-path="url(#clip492)" style="stroke:#000000; stroke-linecap:round; stroke-linejoin:round; stroke-width:2; stroke-opacity:0.1; fill:none" points="271.839,468.21 3089.76,468.21 "/>
<polyline clip-path="url(#clip490)" style="stroke:#000000; stroke-linecap:round; stroke-linejoin:round; stroke-width:4; stroke-opacity:1; fill:none" points="271.839,1042.58 271.839,110.236 "/>
<polyline clip-path="url(#clip490)" style="stroke:#000000; stroke-linecap:round; stroke-linejoin:round; stroke-width:4; stroke-opacity:1; fill:none" points="271.839,1042.58 290.737,1042.58 "/>
<polyline clip-path="url(#clip490)" style="stroke:#000000; stroke-linecap:round; stroke-linejoin:round; stroke-width:4; stroke-opacity:1; fill:none" points="271.839,468.21 290.737,468.21 "/>
<path clip-path="url(#clip490)" d="M153.134 1062.37 L160.772 1062.37 L160.772 1036 L152.462 1037.67 L152.462 1033.41 L160.726 1031.74 L165.402 1031.74 L165.402 1062.37 L173.041 1062.37 L173.041 1066.3 L153.134 1066.3 L153.134 1062.37 Z" fill="#000000" fill-rule="nonzero" fill-opacity="1" /><path clip-path="url(#clip490)" d="M192.485 1034.82 Q188.874 1034.82 187.045 1038.39 Q185.24 1041.93 185.24 1049.06 Q185.24 1056.16 187.045 1059.73 Q188.874 1063.27 192.485 1063.27 Q196.119 1063.27 197.925 1059.73 Q199.754 1056.16 199.754 1049.06 Q199.754 1041.93 197.925 1038.39 Q196.119 1034.82 192.485 1034.82 M192.485 1031.12 Q198.295 1031.12 201.351 1035.72 Q204.43 1040.31 204.43 1049.06 Q204.43 1057.78 201.351 1062.39 Q198.295 1066.97 192.485 1066.97 Q186.675 1066.97 183.596 1062.39 Q180.541 1057.78 180.541 1049.06 Q180.541 1040.31 183.596 1035.72 Q186.675 1031.12 192.485 1031.12 Z" fill="#000000" fill-rule="nonzero" fill-opacity="1" /><path clip-path="url(#clip490)" d="M214.134 1013.31 Q211.2 1013.31 209.715 1016.21 Q208.248 1019.09 208.248 1024.88 Q208.248 1030.66 209.715 1033.55 Q211.2 1036.43 214.134 1036.43 Q217.087 1036.43 218.554 1033.55 Q220.04 1030.66 220.04 1024.88 Q220.04 1019.09 218.554 1016.21 Q217.087 1013.31 214.134 1013.31 M214.134 1010.31 Q218.855 1010.31 221.338 1014.05 Q223.839 1017.77 223.839 1024.88 Q223.839 1031.97 221.338 1035.71 Q218.855 1039.44 214.134 1039.44 Q209.414 1039.44 206.912 1035.71 Q204.43 1031.97 204.43 1024.88 Q204.43 1017.77 206.912 1014.05 Q209.414 1010.31 214.134 1010.31 Z" fill="#000000" fill-rule="nonzero" fill-opacity="1" /><path clip-path="url(#clip490)" d="M155.823 488.002 L163.462 488.002 L163.462 461.636 L155.152 463.303 L155.152 459.044 L163.416 457.377 L168.092 457.377 L168.092 488.002 L175.73 488.002 L175.73 491.937 L155.823 491.937 L155.823 488.002 Z" fill="#000000" fill-rule="nonzero" fill-opacity="1" /><path clip-path="url(#clip490)" d="M195.175 460.456 Q191.564 460.456 189.735 464.021 Q187.929 467.562 187.929 474.692 Q187.929 481.798 189.735 485.363 Q191.564 488.905 195.175 488.905 Q198.809 488.905 200.615 485.363 Q202.443 481.798 202.443 474.692 Q202.443 467.562 200.615 464.021 Q198.809 460.456 195.175 460.456 M195.175 456.752 Q200.985 456.752 204.04 461.359 Q207.119 465.942 207.119 474.692 Q207.119 483.419 204.04 488.025 Q200.985 492.608 195.175 492.608 Q189.365 492.608 186.286 488.025 Q183.23 483.419 183.23 474.692 Q183.23 465.942 186.286 461.359 Q189.365 456.752 195.175 456.752 Z" fill="#000000" fill-rule="nonzero" fill-opacity="1" /><path clip-path="url(#clip490)" d="M207.665 461.329 L213.871 461.329 L213.871 439.907 L207.119 441.262 L207.119 437.801 L213.833 436.447 L217.633 436.447 L217.633 461.329 L223.839 461.329 L223.839 464.527 L207.665 464.527 L207.665 461.329 Z" fill="#000000" fill-rule="nonzero" fill-opacity="1" /><path clip-path="url(#clip490)" d="M83.4268 915.173 L70.6636 915.173 L70.6636 925.676 L65.38 925.676 L65.38 908.807 L85.7821 908.807 Q88.4239 912.531 89.7925 917.019 Q91.1293 921.507 91.1293 926.599 Q91.1293 937.739 84.6363 944.041 Q78.1114 950.312 66.494 950.312 Q54.8448 950.312 48.3518 944.041 Q41.8269 937.739 41.8269 926.599 Q41.8269 921.952 42.9727 917.783 Q44.1186 913.582 46.3466 910.049 L53.1897 910.049 Q50.166 913.613 48.6382 917.624 Q47.1104 921.634 47.1104 926.058 Q47.1104 934.779 51.9802 939.172 Q56.85 943.532 66.494 943.532 Q76.1062 943.532 80.976 939.172 Q85.8458 934.779 85.8458 926.058 Q85.8458 922.653 85.2729 919.979 Q84.6681 917.305 83.4268 915.173 Z" fill="#000000" fill-rule="nonzero" fill-opacity="1" /><path clip-path="url(#clip490)" d="M70.9182 866.825 L73.7828 866.825 L73.7828 893.752 Q79.8302 893.37 83.013 890.124 Q86.1641 886.846 86.1641 881.021 Q86.1641 877.647 85.3365 874.496 Q84.509 871.313 82.8539 868.194 L88.3921 868.194 Q89.7289 871.345 90.4291 874.655 Q91.1293 877.965 91.1293 881.371 Q91.1293 889.901 86.1641 894.898 Q81.1988 899.863 72.7324 899.863 Q63.9796 899.863 58.8552 895.153 Q53.699 890.41 53.699 882.39 Q53.699 875.196 58.3459 871.027 Q62.9611 866.825 70.9182 866.825 M69.1995 872.682 Q64.3933 872.746 61.5288 875.387 Q58.6642 877.997 58.6642 882.326 Q58.6642 887.228 61.4333 890.188 Q64.2024 893.116 69.2313 893.561 L69.1995 872.682 Z" fill="#000000" fill-rule="nonzero" fill-opacity="1" /><path clip-path="url(#clip490)" d="M68.6902 827.581 L90.2063 827.581 L90.2063 833.437 L68.8812 833.437 Q63.8204 833.437 61.306 835.411 Q58.7915 837.384 58.7915 841.331 Q58.7915 846.073 61.8152 848.81 Q64.8389 851.548 70.0588 851.548 L90.2063 851.548 L90.2063 857.436 L54.5583 857.436 L54.5583 851.548 L60.0965 851.548 Q56.8818 849.447 55.2904 846.614 Q53.699 843.75 53.699 840.026 Q53.699 833.883 57.5184 830.732 Q61.306 827.581 68.6902 827.581 Z" fill="#000000" fill-rule="nonzero" fill-opacity="1" /><path clip-path="url(#clip490)" d="M58.6642 802.086 Q58.6642 806.797 62.3563 809.534 Q66.0166 812.271 72.4141 812.271 Q78.8117 812.271 82.5038 809.566 Q86.1641 806.829 86.1641 802.086 Q86.1641 797.407 82.4719 794.67 Q78.7798 791.933 72.4141 791.933 Q66.0803 791.933 62.3881 794.67 Q58.6642 797.407 58.6642 802.086 M53.699 802.086 Q53.699 794.447 58.6642 790.087 Q63.6295 785.726 72.4141 785.726 Q81.167 785.726 86.1641 790.087 Q91.1293 794.447 91.1293 802.086 Q91.1293 809.757 86.1641 814.117 Q81.167 818.446 72.4141 818.446 Q63.6295 818.446 58.6642 814.117 Q53.699 809.757 53.699 802.086 Z" fill="#000000" fill-rule="nonzero" fill-opacity="1" /><path clip-path="url(#clip490)" d="M61.4015 748.264 Q57.4547 746.068 55.5768 743.012 Q53.699 739.957 53.699 735.819 Q53.699 730.249 57.6139 727.225 Q61.4969 724.202 68.6902 724.202 L90.2063 724.202 L90.2063 730.09 L68.8812 730.09 Q63.7568 730.09 61.2741 731.904 Q58.7915 733.719 58.7915 737.442 Q58.7915 741.994 61.8152 744.636 Q64.8389 747.277 70.0588 747.277 L90.2063 747.277 L90.2063 753.166 L68.8812 753.166 Q63.7249 753.166 61.2741 754.98 Q58.7915 756.794 58.7915 760.582 Q58.7915 765.07 61.8471 767.711 Q64.8708 770.353 70.0588 770.353 L90.2063 770.353 L90.2063 776.241 L54.5583 776.241 L54.5583 770.353 L60.0965 770.353 Q56.8182 768.348 55.2586 765.547 Q53.699 762.746 53.699 758.895 Q53.699 755.012 55.6723 752.306 Q57.6457 749.569 61.4015 748.264 Z" fill="#000000" fill-rule="nonzero" fill-opacity="1" /><path clip-path="url(#clip490)" d="M70.9182 682.029 L73.7828 682.029 L73.7828 708.956 Q79.8302 708.574 83.013 705.327 Q86.1641 702.049 86.1641 696.224 Q86.1641 692.851 85.3365 689.7 Q84.509 686.517 82.8539 683.398 L88.3921 683.398 Q89.7289 686.549 90.4291 689.859 Q91.1293 693.169 91.1293 696.575 Q91.1293 705.105 86.1641 710.102 Q81.1988 715.067 72.7324 715.067 Q63.9796 715.067 58.8552 710.356 Q53.699 705.614 53.699 697.593 Q53.699 690.4 58.3459 686.23 Q62.9611 682.029 70.9182 682.029 M69.1995 687.885 Q64.3933 687.949 61.5288 690.591 Q58.6642 693.201 58.6642 697.529 Q58.6642 702.431 61.4333 705.391 Q64.2024 708.319 69.2313 708.765 L69.1995 687.885 Z" fill="#000000" fill-rule="nonzero" fill-opacity="1" /><path clip-path="url(#clip490)" d="M55.6087 649.691 L61.1468 649.691 Q59.8737 652.174 59.2371 654.847 Q58.6006 657.521 58.6006 660.386 Q58.6006 664.746 59.9373 666.942 Q61.2741 669.107 63.9477 669.107 Q65.9848 669.107 67.1624 667.547 Q68.3083 665.987 69.3586 661.277 L69.8042 659.272 Q71.141 653.033 73.5918 650.423 Q76.0108 647.781 80.3713 647.781 Q85.3365 647.781 88.2329 651.728 Q91.1293 655.643 91.1293 662.518 Q91.1293 665.383 90.5564 668.502 Q90.0153 671.589 88.9013 675.027 L82.8539 675.027 Q84.5408 671.78 85.4002 668.629 Q86.2277 665.478 86.2277 662.391 Q86.2277 658.253 84.8273 656.025 Q83.395 653.797 80.8169 653.797 Q78.4297 653.797 77.1566 655.42 Q75.8834 657.012 74.7058 662.454 L74.2284 664.491 Q73.0825 669.934 70.7272 672.353 Q68.3401 674.772 64.2024 674.772 Q59.1735 674.772 56.4362 671.207 Q53.699 667.642 53.699 661.086 Q53.699 657.839 54.1764 654.975 Q54.6538 652.11 55.6087 649.691 Z" fill="#000000" fill-rule="nonzero" fill-opacity="1" /><path clip-path="url(#clip490)" d="M42.6863 628.048 L42.6863 622.637 L96.2537 639.188 L96.2537 644.599 L42.6863 628.048 Z" fill="#000000" fill-rule="nonzero" fill-opacity="1" /><path clip-path="url(#clip490)" d="M47.9698 609.81 L84.9227 609.81 L84.9227 602.044 Q84.9227 592.209 80.4668 587.657 Q76.0108 583.074 66.3985 583.074 Q56.85 583.074 52.4258 587.657 Q47.9698 592.209 47.9698 602.044 L47.9698 609.81 M42.6863 616.239 L42.6863 603.031 Q42.6863 589.217 48.4472 582.756 Q54.1764 576.295 66.3985 576.295 Q78.6844 576.295 84.4453 582.788 Q90.2063 589.281 90.2063 603.031 L90.2063 616.239 L42.6863 616.239 Z" fill="#000000" fill-rule="nonzero" fill-opacity="1" /><path clip-path="url(#clip490)" d="M72.2868 550.1 Q72.2868 557.197 73.9101 559.935 Q75.5333 562.672 79.4482 562.672 Q82.5674 562.672 84.4135 560.635 Q86.2277 558.566 86.2277 555.033 Q86.2277 550.163 82.7902 547.235 Q79.3209 544.275 73.5918 544.275 L72.2868 544.275 L72.2868 550.1 M69.8679 538.419 L90.2063 538.419 L90.2063 544.275 L84.7954 544.275 Q88.0419 546.28 89.6015 549.272 Q91.1293 552.264 91.1293 556.593 Q91.1293 562.067 88.0738 565.314 Q84.9864 568.528 79.8302 568.528 Q73.8146 568.528 70.759 564.518 Q67.7035 560.476 67.7035 552.487 L67.7035 544.275 L67.1306 544.275 Q63.0884 544.275 60.8922 546.949 Q58.6642 549.59 58.6642 554.397 Q58.6642 557.452 59.3963 560.348 Q60.1283 563.245 61.5924 565.918 L56.1816 565.918 Q54.9403 562.704 54.3355 559.68 Q53.699 556.656 53.699 553.792 Q53.699 546.057 57.7094 542.238 Q61.7197 538.419 69.8679 538.419 Z" fill="#000000" fill-rule="nonzero" fill-opacity="1" /><path clip-path="url(#clip490)" d="M93.5165 511.524 Q99.8822 514.006 101.824 516.361 Q103.765 518.717 103.765 522.664 L103.765 527.342 L98.8636 527.342 L98.8636 523.905 Q98.8636 521.486 97.7178 520.149 Q96.572 518.812 92.307 517.189 L89.6334 516.139 L54.5583 530.557 L54.5583 524.35 L82.4401 513.21 L54.5583 502.07 L54.5583 495.864 L93.5165 511.524 Z" fill="#000000" fill-rule="nonzero" fill-opacity="1" /><path clip-path="url(#clip490)" d="M40.7447 452.991 Q48.0653 457.256 55.2267 459.325 Q62.3881 461.394 69.7405 461.394 Q77.0929 461.394 84.318 459.325 Q91.5113 457.224 98.8 452.991 L98.8 458.083 Q91.3203 462.858 84.0952 465.245 Q76.8701 467.6 69.7405 467.6 Q62.6428 467.6 55.4495 465.245 Q48.2563 462.89 40.7447 458.083 L40.7447 452.991 Z" fill="#000000" fill-rule="nonzero" fill-opacity="1" /><path clip-path="url(#clip490)" d="M42.6863 441.373 L42.6863 434.944 L90.2063 434.944 L90.2063 441.373 L42.6863 441.373 Z" fill="#000000" fill-rule="nonzero" fill-opacity="1" /><path clip-path="url(#clip490)" d="M60.0328 401.747 Q59.4599 402.734 59.2053 403.911 Q58.9188 405.057 58.9188 406.458 Q58.9188 411.423 62.1653 414.096 Q65.38 416.738 71.4274 416.738 L90.2063 416.738 L90.2063 422.626 L54.5583 422.626 L54.5583 416.738 L60.0965 416.738 Q56.85 414.892 55.2904 411.932 Q53.699 408.972 53.699 404.739 Q53.699 404.134 53.7944 403.402 Q53.8581 402.67 54.0172 401.779 L60.0328 401.747 Z" fill="#000000" fill-rule="nonzero" fill-opacity="1" /><path clip-path="url(#clip490)" d="M70.9182 366.545 L73.7828 366.545 L73.7828 393.471 Q79.8302 393.09 83.013 389.843 Q86.1641 386.565 86.1641 380.74 Q86.1641 377.366 85.3365 374.215 Q84.509 371.032 82.8539 367.913 L88.3921 367.913 Q89.7289 371.064 90.4291 374.374 Q91.1293 377.685 91.1293 381.09 Q91.1293 389.62 86.1641 394.617 Q81.1988 399.583 72.7324 399.583 Q63.9796 399.583 58.8552 394.872 Q53.699 390.129 53.699 382.109 Q53.699 374.915 58.3459 370.746 Q62.9611 366.545 70.9182 366.545 M69.1995 372.401 Q64.3933 372.465 61.5288 375.106 Q58.6642 377.716 58.6642 382.045 Q58.6642 386.947 61.4333 389.907 Q64.2024 392.835 69.2313 393.281 L69.1995 372.401 Z" fill="#000000" fill-rule="nonzero" fill-opacity="1" /><path clip-path="url(#clip490)" d="M40.6811 356.932 L40.6811 351.076 L90.2063 351.076 L90.2063 356.932 L40.6811 356.932 Z" fill="#000000" fill-rule="nonzero" fill-opacity="1" /><path clip-path="url(#clip490)" d="M72.2868 322.621 Q72.2868 329.719 73.9101 332.456 Q75.5333 335.193 79.4482 335.193 Q82.5674 335.193 84.4135 333.156 Q86.2277 331.088 86.2277 327.555 Q86.2277 322.685 82.7902 319.757 Q79.3209 316.797 73.5918 316.797 L72.2868 316.797 L72.2868 322.621 M69.8679 310.94 L90.2063 310.94 L90.2063 316.797 L84.7954 316.797 Q88.0419 318.802 89.6015 321.794 Q91.1293 324.786 91.1293 329.114 Q91.1293 334.589 88.0738 337.835 Q84.9864 341.05 79.8302 341.05 Q73.8146 341.05 70.759 337.04 Q67.7035 332.997 67.7035 325.008 L67.7035 316.797 L67.1306 316.797 Q63.0884 316.797 60.8922 319.47 Q58.6642 322.112 58.6642 326.918 Q58.6642 329.974 59.3963 332.87 Q60.1283 335.766 61.5924 338.44 L56.1816 338.44 Q54.9403 335.225 54.3355 332.202 Q53.699 329.178 53.699 326.313 Q53.699 318.579 57.7094 314.76 Q61.7197 310.94 69.8679 310.94 Z" fill="#000000" fill-rule="nonzero" fill-opacity="1" /><path clip-path="url(#clip490)" d="M68.6902 269.245 L90.2063 269.245 L90.2063 275.101 L68.8812 275.101 Q63.8204 275.101 61.306 277.075 Q58.7915 279.048 58.7915 282.995 Q58.7915 287.737 61.8152 290.474 Q64.8389 293.212 70.0588 293.212 L90.2063 293.212 L90.2063 299.1 L54.5583 299.1 L54.5583 293.212 L60.0965 293.212 Q56.8818 291.111 55.2904 288.278 Q53.699 285.414 53.699 281.69 Q53.699 275.547 57.5184 272.396 Q61.306 269.245 68.6902 269.245 Z" fill="#000000" fill-rule="nonzero" fill-opacity="1" /><path clip-path="url(#clip490)" d="M59.9692 234.106 L40.6811 234.106 L40.6811 228.25 L90.2063 228.25 L90.2063 234.106 L84.8591 234.106 Q88.0419 235.952 89.6015 238.785 Q91.1293 241.586 91.1293 245.532 Q91.1293 251.994 85.9731 256.068 Q80.8169 260.11 72.4141 260.11 Q64.0114 260.11 58.8552 256.068 Q53.699 251.994 53.699 245.532 Q53.699 241.586 55.2586 238.785 Q56.7863 235.952 59.9692 234.106 M72.4141 254.063 Q78.8753 254.063 82.5674 251.421 Q86.2277 248.747 86.2277 244.1 Q86.2277 239.453 82.5674 236.78 Q78.8753 234.106 72.4141 234.106 Q65.9529 234.106 62.2927 236.78 Q58.6006 239.453 58.6006 244.1 Q58.6006 248.747 62.2927 251.421 Q65.9529 254.063 72.4141 254.063 Z" fill="#000000" fill-rule="nonzero" fill-opacity="1" /><path clip-path="url(#clip490)" d="M40.7447 217.11 L40.7447 212.017 Q48.2563 207.243 55.4495 204.887 Q62.6428 202.5 69.7405 202.5 Q76.8701 202.5 84.0952 204.887 Q91.3203 207.243 98.8 212.017 L98.8 217.11 Q91.5113 212.876 84.318 210.808 Q77.0929 208.707 69.7405 208.707 Q62.3881 208.707 55.2267 210.808 Q48.0653 212.876 40.7447 217.11 Z" fill="#000000" fill-rule="nonzero" fill-opacity="1" /><path clip-path="url(#clip492)" d="M288.747 335.847 L288.747 1042.58 L311.29 1042.58 L311.29 335.847 L288.747 335.847 L288.747 335.847  Z" fill="#009af9" fill-rule="evenodd" fill-opacity="0.5"/>
<polyline clip-path="url(#clip492)" style="stroke:#000000; stroke-linecap:round; stroke-linejoin:round; stroke-width:4; stroke-opacity:0.5; fill:none" points="288.747,335.847 288.747,1042.58 311.29,1042.58 311.29,335.847 288.747,335.847 "/>
<path clip-path="url(#clip492)" d="M316.926 239.646 L316.926 1042.58 L339.469 1042.58 L339.469 239.646 L316.926 239.646 L316.926 239.646  Z" fill="#009af9" fill-rule="evenodd" fill-opacity="0.5"/>
<polyline clip-path="url(#clip492)" style="stroke:#000000; stroke-linecap:round; stroke-linejoin:round; stroke-width:4; stroke-opacity:0.5; fill:none" points="316.926,239.646 316.926,1042.58 339.469,1042.58 339.469,239.646 316.926,239.646 "/>
<path clip-path="url(#clip492)" d="M345.105 249.829 L345.105 1042.58 L367.649 1042.58 L367.649 249.829 L345.105 249.829 L345.105 249.829  Z" fill="#009af9" fill-rule="evenodd" fill-opacity="0.5"/>
<polyline clip-path="url(#clip492)" style="stroke:#000000; stroke-linecap:round; stroke-linejoin:round; stroke-width:4; stroke-opacity:0.5; fill:none" points="345.105,249.829 345.105,1042.58 367.649,1042.58 367.649,249.829 345.105,249.829 "/>
<path clip-path="url(#clip492)" d="M373.285 367.069 L373.285 1042.58 L395.828 1042.58 L395.828 367.069 L373.285 367.069 L373.285 367.069  Z" fill="#009af9" fill-rule="evenodd" fill-opacity="0.5"/>
<polyline clip-path="url(#clip492)" style="stroke:#000000; stroke-linecap:round; stroke-linejoin:round; stroke-width:4; stroke-opacity:0.5; fill:none" points="373.285,367.069 373.285,1042.58 395.828,1042.58 395.828,367.069 373.285,367.069 "/>
<path clip-path="url(#clip492)" d="M401.464 271.534 L401.464 1042.58 L424.007 1042.58 L424.007 271.534 L401.464 271.534 L401.464 271.534  Z" fill="#009af9" fill-rule="evenodd" fill-opacity="0.5"/>
<polyline clip-path="url(#clip492)" style="stroke:#000000; stroke-linecap:round; stroke-linejoin:round; stroke-width:4; stroke-opacity:0.5; fill:none" points="401.464,271.534 401.464,1042.58 424.007,1042.58 424.007,271.534 401.464,271.534 "/>
<path clip-path="url(#clip492)" d="M429.643 239.646 L429.643 1042.58 L452.186 1042.58 L452.186 239.646 L429.643 239.646 L429.643 239.646  Z" fill="#009af9" fill-rule="evenodd" fill-opacity="0.5"/>
<polyline clip-path="url(#clip492)" style="stroke:#000000; stroke-linecap:round; stroke-linejoin:round; stroke-width:4; stroke-opacity:0.5; fill:none" points="429.643,239.646 429.643,1042.58 452.186,1042.58 452.186,239.646 429.643,239.646 "/>
<path clip-path="url(#clip492)" d="M457.822 211.377 L457.822 1042.58 L480.366 1042.58 L480.366 211.377 L457.822 211.377 L457.822 211.377  Z" fill="#009af9" fill-rule="evenodd" fill-opacity="0.5"/>
<polyline clip-path="url(#clip492)" style="stroke:#000000; stroke-linecap:round; stroke-linejoin:round; stroke-width:4; stroke-opacity:0.5; fill:none" points="457.822,211.377 457.822,1042.58 480.366,1042.58 480.366,211.377 457.822,211.377 "/>
<path clip-path="url(#clip492)" d="M486.001 249.829 L486.001 1042.58 L508.545 1042.58 L508.545 249.829 L486.001 249.829 L486.001 249.829  Z" fill="#009af9" fill-rule="evenodd" fill-opacity="0.5"/>
<polyline clip-path="url(#clip492)" style="stroke:#000000; stroke-linecap:round; stroke-linejoin:round; stroke-width:4; stroke-opacity:0.5; fill:none" points="486.001,249.829 486.001,1042.58 508.545,1042.58 508.545,249.829 486.001,249.829 "/>
<path clip-path="url(#clip492)" d="M514.181 202.624 L514.181 1042.58 L536.724 1042.58 L536.724 202.624 L514.181 202.624 L514.181 202.624  Z" fill="#009af9" fill-rule="evenodd" fill-opacity="0.5"/>
<polyline clip-path="url(#clip492)" style="stroke:#000000; stroke-linecap:round; stroke-linejoin:round; stroke-width:4; stroke-opacity:0.5; fill:none" points="514.181,202.624 514.181,1042.58 536.724,1042.58 536.724,202.624 514.181,202.624 "/>
<path clip-path="url(#clip492)" d="M542.36 350.97 L542.36 1042.58 L564.903 1042.58 L564.903 350.97 L542.36 350.97 L542.36 350.97  Z" fill="#009af9" fill-rule="evenodd" fill-opacity="0.5"/>
<polyline clip-path="url(#clip492)" style="stroke:#000000; stroke-linecap:round; stroke-linejoin:round; stroke-width:4; stroke-opacity:0.5; fill:none" points="542.36,350.97 542.36,1042.58 564.903,1042.58 564.903,350.97 542.36,350.97 "/>
<path clip-path="url(#clip492)" d="M570.539 468.21 L570.539 1042.58 L593.083 1042.58 L593.083 468.21 L570.539 468.21 L570.539 468.21  Z" fill="#009af9" fill-rule="evenodd" fill-opacity="0.5"/>
<polyline clip-path="url(#clip492)" style="stroke:#000000; stroke-linecap:round; stroke-linejoin:round; stroke-width:4; stroke-opacity:0.5; fill:none" points="570.539,468.21 570.539,1042.58 593.083,1042.58 593.083,468.21 570.539,468.21 "/>
<path clip-path="url(#clip492)" d="M598.718 283.138 L598.718 1042.58 L621.262 1042.58 L621.262 283.138 L598.718 283.138 L598.718 283.138  Z" fill="#009af9" fill-rule="evenodd" fill-opacity="0.5"/>
<polyline clip-path="url(#clip492)" style="stroke:#000000; stroke-linecap:round; stroke-linejoin:round; stroke-width:4; stroke-opacity:0.5; fill:none" points="598.718,283.138 598.718,1042.58 621.262,1042.58 621.262,283.138 598.718,283.138 "/>
<path clip-path="url(#clip492)" d="M626.898 162.946 L626.898 1042.58 L649.441 1042.58 L649.441 162.946 L626.898 162.946 L626.898 162.946  Z" fill="#009af9" fill-rule="evenodd" fill-opacity="0.5"/>
<polyline clip-path="url(#clip492)" style="stroke:#000000; stroke-linecap:round; stroke-linejoin:round; stroke-width:4; stroke-opacity:0.5; fill:none" points="626.898,162.946 626.898,1042.58 649.441,1042.58 649.441,162.946 626.898,162.946 "/>
<path clip-path="url(#clip492)" d="M655.077 283.138 L655.077 1042.58 L677.62 1042.58 L677.62 283.138 L655.077 283.138 L655.077 283.138  Z" fill="#009af9" fill-rule="evenodd" fill-opacity="0.5"/>
<polyline clip-path="url(#clip492)" style="stroke:#000000; stroke-linecap:round; stroke-linejoin:round; stroke-width:4; stroke-opacity:0.5; fill:none" points="655.077,283.138 655.077,1042.58 677.62,1042.58 677.62,283.138 655.077,283.138 "/>
<path clip-path="url(#clip492)" d="M683.256 211.377 L683.256 1042.58 L705.8 1042.58 L705.8 211.377 L683.256 211.377 L683.256 211.377  Z" fill="#009af9" fill-rule="evenodd" fill-opacity="0.5"/>
<polyline clip-path="url(#clip492)" style="stroke:#000000; stroke-linecap:round; stroke-linejoin:round; stroke-width:4; stroke-opacity:0.5; fill:none" points="683.256,211.377 683.256,1042.58 705.8,1042.58 705.8,211.377 683.256,211.377 "/>
<path clip-path="url(#clip492)" d="M711.435 211.377 L711.435 1042.58 L733.979 1042.58 L733.979 211.377 L711.435 211.377 L711.435 211.377  Z" fill="#009af9" fill-rule="evenodd" fill-opacity="0.5"/>
<polyline clip-path="url(#clip492)" style="stroke:#000000; stroke-linecap:round; stroke-linejoin:round; stroke-width:4; stroke-opacity:0.5; fill:none" points="711.435,211.377 711.435,1042.58 733.979,1042.58 733.979,211.377 711.435,211.377 "/>
<path clip-path="url(#clip492)" d="M739.615 260.445 L739.615 1042.58 L762.158 1042.58 L762.158 260.445 L739.615 260.445 L739.615 260.445  Z" fill="#009af9" fill-rule="evenodd" fill-opacity="0.5"/>
<polyline clip-path="url(#clip492)" style="stroke:#000000; stroke-linecap:round; stroke-linejoin:round; stroke-width:4; stroke-opacity:0.5; fill:none" points="739.615,260.445 739.615,1042.58 762.158,1042.58 762.158,260.445 739.615,260.445 "/>
<path clip-path="url(#clip492)" d="M767.794 523.871 L767.794 1042.58 L790.337 1042.58 L790.337 523.871 L767.794 523.871 L767.794 523.871  Z" fill="#009af9" fill-rule="evenodd" fill-opacity="0.5"/>
<polyline clip-path="url(#clip492)" style="stroke:#000000; stroke-linecap:round; stroke-linejoin:round; stroke-width:4; stroke-opacity:0.5; fill:none" points="767.794,523.871 767.794,1042.58 790.337,1042.58 790.337,523.871 767.794,523.871 "/>
<path clip-path="url(#clip492)" d="M795.973 384.279 L795.973 1042.58 L818.517 1042.58 L818.517 384.279 L795.973 384.279 L795.973 384.279  Z" fill="#009af9" fill-rule="evenodd" fill-opacity="0.5"/>
<polyline clip-path="url(#clip492)" style="stroke:#000000; stroke-linecap:round; stroke-linejoin:round; stroke-width:4; stroke-opacity:0.5; fill:none" points="795.973,384.279 795.973,1042.58 818.517,1042.58 818.517,384.279 795.973,384.279 "/>
<path clip-path="url(#clip492)" d="M824.152 308.103 L824.152 1042.58 L846.696 1042.58 L846.696 308.103 L824.152 308.103 L824.152 308.103  Z" fill="#009af9" fill-rule="evenodd" fill-opacity="0.5"/>
<polyline clip-path="url(#clip492)" style="stroke:#000000; stroke-linecap:round; stroke-linejoin:round; stroke-width:4; stroke-opacity:0.5; fill:none" points="824.152,308.103 824.152,1042.58 846.696,1042.58 846.696,308.103 824.152,308.103 "/>
<path clip-path="url(#clip492)" d="M852.332 321.59 L852.332 1042.58 L874.875 1042.58 L874.875 321.59 L852.332 321.59 L852.332 321.59  Z" fill="#009af9" fill-rule="evenodd" fill-opacity="0.5"/>
<polyline clip-path="url(#clip492)" style="stroke:#000000; stroke-linecap:round; stroke-linejoin:round; stroke-width:4; stroke-opacity:0.5; fill:none" points="852.332,321.59 852.332,1042.58 874.875,1042.58 874.875,321.59 852.332,321.59 "/>
<path clip-path="url(#clip492)" d="M880.511 271.534 L880.511 1042.58 L903.054 1042.58 L903.054 271.534 L880.511 271.534 L880.511 271.534  Z" fill="#009af9" fill-rule="evenodd" fill-opacity="0.5"/>
<polyline clip-path="url(#clip492)" style="stroke:#000000; stroke-linecap:round; stroke-linejoin:round; stroke-width:4; stroke-opacity:0.5; fill:none" points="880.511,271.534 880.511,1042.58 903.054,1042.58 903.054,271.534 880.511,271.534 "/>
<path clip-path="url(#clip492)" d="M908.69 308.103 L908.69 1042.58 L931.234 1042.58 L931.234 308.103 L908.69 308.103 L908.69 308.103  Z" fill="#009af9" fill-rule="evenodd" fill-opacity="0.5"/>
<polyline clip-path="url(#clip492)" style="stroke:#000000; stroke-linecap:round; stroke-linejoin:round; stroke-width:4; stroke-opacity:0.5; fill:none" points="908.69,308.103 908.69,1042.58 931.234,1042.58 931.234,308.103 908.69,308.103 "/>
<path clip-path="url(#clip492)" d="M936.869 444.435 L936.869 1042.58 L959.413 1042.58 L959.413 444.435 L936.869 444.435 L936.869 444.435  Z" fill="#009af9" fill-rule="evenodd" fill-opacity="0.5"/>
<polyline clip-path="url(#clip492)" style="stroke:#000000; stroke-linecap:round; stroke-linejoin:round; stroke-width:4; stroke-opacity:0.5; fill:none" points="936.869,444.435 936.869,1042.58 959.413,1042.58 959.413,444.435 936.869,444.435 "/>
<path clip-path="url(#clip492)" d="M965.049 384.279 L965.049 1042.58 L987.592 1042.58 L987.592 384.279 L965.049 384.279 L965.049 384.279  Z" fill="#009af9" fill-rule="evenodd" fill-opacity="0.5"/>
<polyline clip-path="url(#clip492)" style="stroke:#000000; stroke-linecap:round; stroke-linejoin:round; stroke-width:4; stroke-opacity:0.5; fill:none" points="965.049,384.279 965.049,1042.58 987.592,1042.58 987.592,384.279 965.049,384.279 "/>
<path clip-path="url(#clip492)" d="M993.228 321.59 L993.228 1042.58 L1015.77 1042.58 L1015.77 321.59 L993.228 321.59 L993.228 321.59  Z" fill="#009af9" fill-rule="evenodd" fill-opacity="0.5"/>
<polyline clip-path="url(#clip492)" style="stroke:#000000; stroke-linecap:round; stroke-linejoin:round; stroke-width:4; stroke-opacity:0.5; fill:none" points="993.228,321.59 993.228,1042.58 1015.77,1042.58 1015.77,321.59 993.228,321.59 "/>
<path clip-path="url(#clip492)" d="M1021.41 202.624 L1021.41 1042.58 L1043.95 1042.58 L1043.95 202.624 L1021.41 202.624 L1021.41 202.624  Z" fill="#009af9" fill-rule="evenodd" fill-opacity="0.5"/>
<polyline clip-path="url(#clip492)" style="stroke:#000000; stroke-linecap:round; stroke-linejoin:round; stroke-width:4; stroke-opacity:0.5; fill:none" points="1021.41,202.624 1021.41,1042.58 1043.95,1042.58 1043.95,202.624 1021.41,202.624 "/>
<path clip-path="url(#clip492)" d="M1049.59 402.764 L1049.59 1042.58 L1072.13 1042.58 L1072.13 402.764 L1049.59 402.764 L1049.59 402.764  Z" fill="#009af9" fill-rule="evenodd" fill-opacity="0.5"/>
<polyline clip-path="url(#clip492)" style="stroke:#000000; stroke-linecap:round; stroke-linejoin:round; stroke-width:4; stroke-opacity:0.5; fill:none" points="1049.59,402.764 1049.59,1042.58 1072.13,1042.58 1072.13,402.764 1049.59,402.764 "/>
<path clip-path="url(#clip492)" d="M1077.77 229.863 L1077.77 1042.58 L1100.31 1042.58 L1100.31 229.863 L1077.77 229.863 L1077.77 229.863  Z" fill="#009af9" fill-rule="evenodd" fill-opacity="0.5"/>
<polyline clip-path="url(#clip492)" style="stroke:#000000; stroke-linecap:round; stroke-linejoin:round; stroke-width:4; stroke-opacity:0.5; fill:none" points="1077.77,229.863 1077.77,1042.58 1100.31,1042.58 1100.31,229.863 1077.77,229.863 "/>
<path clip-path="url(#clip492)" d="M1105.94 321.59 L1105.94 1042.58 L1128.49 1042.58 L1128.49 321.59 L1105.94 321.59 L1105.94 321.59  Z" fill="#009af9" fill-rule="evenodd" fill-opacity="0.5"/>
<polyline clip-path="url(#clip492)" style="stroke:#000000; stroke-linecap:round; stroke-linejoin:round; stroke-width:4; stroke-opacity:0.5; fill:none" points="1105.94,321.59 1105.94,1042.58 1128.49,1042.58 1128.49,321.59 1105.94,321.59 "/>
<path clip-path="url(#clip492)" d="M1134.12 444.435 L1134.12 1042.58 L1156.67 1042.58 L1156.67 444.435 L1134.12 444.435 L1134.12 444.435  Z" fill="#009af9" fill-rule="evenodd" fill-opacity="0.5"/>
<polyline clip-path="url(#clip492)" style="stroke:#000000; stroke-linecap:round; stroke-linejoin:round; stroke-width:4; stroke-opacity:0.5; fill:none" points="1134.12,444.435 1134.12,1042.58 1156.67,1042.58 1156.67,444.435 1134.12,444.435 "/>
<path clip-path="url(#clip492)" d="M1162.3 557.18 L1162.3 1042.58 L1184.85 1042.58 L1184.85 557.18 L1162.3 557.18 L1162.3 557.18  Z" fill="#009af9" fill-rule="evenodd" fill-opacity="0.5"/>
<polyline clip-path="url(#clip492)" style="stroke:#000000; stroke-linecap:round; stroke-linejoin:round; stroke-width:4; stroke-opacity:0.5; fill:none" points="1162.3,557.18 1162.3,1042.58 1184.85,1042.58 1184.85,557.18 1162.3,557.18 "/>
<path clip-path="url(#clip492)" d="M1190.48 523.871 L1190.48 1042.58 L1213.03 1042.58 L1213.03 523.871 L1190.48 523.871 L1190.48 523.871  Z" fill="#009af9" fill-rule="evenodd" fill-opacity="0.5"/>
<polyline clip-path="url(#clip492)" style="stroke:#000000; stroke-linecap:round; stroke-linejoin:round; stroke-width:4; stroke-opacity:0.5; fill:none" points="1190.48,523.871 1190.48,1042.58 1213.03,1042.58 1213.03,523.871 1190.48,523.871 "/>
<path clip-path="url(#clip492)" d="M1218.66 523.871 L1218.66 1042.58 L1241.21 1042.58 L1241.21 523.871 L1218.66 523.871 L1218.66 523.871  Z" fill="#009af9" fill-rule="evenodd" fill-opacity="0.5"/>
<polyline clip-path="url(#clip492)" style="stroke:#000000; stroke-linecap:round; stroke-linejoin:round; stroke-width:4; stroke-opacity:0.5; fill:none" points="1218.66,523.871 1218.66,1042.58 1241.21,1042.58 1241.21,523.871 1218.66,523.871 "/>
<path clip-path="url(#clip492)" d="M1246.84 249.829 L1246.84 1042.58 L1269.38 1042.58 L1269.38 249.829 L1246.84 249.829 L1246.84 249.829  Z" fill="#009af9" fill-rule="evenodd" fill-opacity="0.5"/>
<polyline clip-path="url(#clip492)" style="stroke:#000000; stroke-linecap:round; stroke-linejoin:round; stroke-width:4; stroke-opacity:0.5; fill:none" points="1246.84,249.829 1246.84,1042.58 1269.38,1042.58 1269.38,249.829 1246.84,249.829 "/>
<path clip-path="url(#clip492)" d="M1275.02 295.308 L1275.02 1042.58 L1297.56 1042.58 L1297.56 295.308 L1275.02 295.308 L1275.02 295.308  Z" fill="#009af9" fill-rule="evenodd" fill-opacity="0.5"/>
<polyline clip-path="url(#clip492)" style="stroke:#000000; stroke-linecap:round; stroke-linejoin:round; stroke-width:4; stroke-opacity:0.5; fill:none" points="1275.02,295.308 1275.02,1042.58 1297.56,1042.58 1297.56,295.308 1275.02,295.308 "/>
<path clip-path="url(#clip492)" d="M1303.2 422.731 L1303.2 1042.58 L1325.74 1042.58 L1325.74 422.731 L1303.2 422.731 L1303.2 422.731  Z" fill="#009af9" fill-rule="evenodd" fill-opacity="0.5"/>
<polyline clip-path="url(#clip492)" style="stroke:#000000; stroke-linecap:round; stroke-linejoin:round; stroke-width:4; stroke-opacity:0.5; fill:none" points="1303.2,422.731 1303.2,1042.58 1325.74,1042.58 1325.74,422.731 1303.2,422.731 "/>
<path clip-path="url(#clip492)" d="M1331.38 595.632 L1331.38 1042.58 L1353.92 1042.58 L1353.92 595.632 L1331.38 595.632 L1331.38 595.632  Z" fill="#009af9" fill-rule="evenodd" fill-opacity="0.5"/>
<polyline clip-path="url(#clip492)" style="stroke:#000000; stroke-linecap:round; stroke-linejoin:round; stroke-width:4; stroke-opacity:0.5; fill:none" points="1331.38,595.632 1331.38,1042.58 1353.92,1042.58 1353.92,595.632 1331.38,595.632 "/>
<path clip-path="url(#clip492)" d="M1359.56 422.731 L1359.56 1042.58 L1382.1 1042.58 L1382.1 422.731 L1359.56 422.731 L1359.56 422.731  Z" fill="#009af9" fill-rule="evenodd" fill-opacity="0.5"/>
<polyline clip-path="url(#clip492)" style="stroke:#000000; stroke-linecap:round; stroke-linejoin:round; stroke-width:4; stroke-opacity:0.5; fill:none" points="1359.56,422.731 1359.56,1042.58 1382.1,1042.58 1382.1,422.731 1359.56,422.731 "/>
<path clip-path="url(#clip492)" d="M1387.74 768.533 L1387.74 1042.58 L1410.28 1042.58 L1410.28 768.533 L1387.74 768.533 L1387.74 768.533  Z" fill="#009af9" fill-rule="evenodd" fill-opacity="0.5"/>
<polyline clip-path="url(#clip492)" style="stroke:#000000; stroke-linecap:round; stroke-linejoin:round; stroke-width:4; stroke-opacity:0.5; fill:none" points="1387.74,768.533 1387.74,1042.58 1410.28,1042.58 1410.28,768.533 1387.74,768.533 "/>
<path clip-path="url(#clip492)" d="M1415.92 468.21 L1415.92 1042.58 L1438.46 1042.58 L1438.46 468.21 L1415.92 468.21 L1415.92 468.21  Z" fill="#009af9" fill-rule="evenodd" fill-opacity="0.5"/>
<polyline clip-path="url(#clip492)" style="stroke:#000000; stroke-linecap:round; stroke-linejoin:round; stroke-width:4; stroke-opacity:0.5; fill:none" points="1415.92,468.21 1415.92,1042.58 1438.46,1042.58 1438.46,468.21 1415.92,468.21 "/>
<path clip-path="url(#clip492)" d="M1444.1 422.731 L1444.1 1042.58 L1466.64 1042.58 L1466.64 422.731 L1444.1 422.731 L1444.1 422.731  Z" fill="#009af9" fill-rule="evenodd" fill-opacity="0.5"/>
<polyline clip-path="url(#clip492)" style="stroke:#000000; stroke-linecap:round; stroke-linejoin:round; stroke-width:4; stroke-opacity:0.5; fill:none" points="1444.1,422.731 1444.1,1042.58 1466.64,1042.58 1466.64,422.731 1444.1,422.731 "/>
<path clip-path="url(#clip492)" d="M1472.28 444.435 L1472.28 1042.58 L1494.82 1042.58 L1494.82 444.435 L1472.28 444.435 L1472.28 444.435  Z" fill="#009af9" fill-rule="evenodd" fill-opacity="0.5"/>
<polyline clip-path="url(#clip492)" style="stroke:#000000; stroke-linecap:round; stroke-linejoin:round; stroke-width:4; stroke-opacity:0.5; fill:none" points="1472.28,444.435 1472.28,1042.58 1494.82,1042.58 1494.82,444.435 1472.28,444.435 "/>
<path clip-path="url(#clip492)" d="M1500.45 494.491 L1500.45 1042.58 L1523 1042.58 L1523 494.491 L1500.45 494.491 L1500.45 494.491  Z" fill="#009af9" fill-rule="evenodd" fill-opacity="0.5"/>
<polyline clip-path="url(#clip492)" style="stroke:#000000; stroke-linecap:round; stroke-linejoin:round; stroke-width:4; stroke-opacity:0.5; fill:none" points="1500.45,494.491 1500.45,1042.58 1523,1042.58 1523,494.491 1500.45,494.491 "/>
<path clip-path="url(#clip492)" d="M1528.63 402.764 L1528.63 1042.58 L1551.18 1042.58 L1551.18 402.764 L1528.63 402.764 L1528.63 402.764  Z" fill="#009af9" fill-rule="evenodd" fill-opacity="0.5"/>
<polyline clip-path="url(#clip492)" style="stroke:#000000; stroke-linecap:round; stroke-linejoin:round; stroke-width:4; stroke-opacity:0.5; fill:none" points="1528.63,402.764 1528.63,1042.58 1551.18,1042.58 1551.18,402.764 1528.63,402.764 "/>
<path clip-path="url(#clip492)" d="M1556.81 557.18 L1556.81 1042.58 L1579.36 1042.58 L1579.36 557.18 L1556.81 557.18 L1556.81 557.18  Z" fill="#009af9" fill-rule="evenodd" fill-opacity="0.5"/>
<polyline clip-path="url(#clip492)" style="stroke:#000000; stroke-linecap:round; stroke-linejoin:round; stroke-width:4; stroke-opacity:0.5; fill:none" points="1556.81,557.18 1556.81,1042.58 1579.36,1042.58 1579.36,557.18 1556.81,557.18 "/>
<path clip-path="url(#clip492)" d="M1584.99 595.632 L1584.99 1042.58 L1607.54 1042.58 L1607.54 595.632 L1584.99 595.632 L1584.99 595.632  Z" fill="#009af9" fill-rule="evenodd" fill-opacity="0.5"/>
<polyline clip-path="url(#clip492)" style="stroke:#000000; stroke-linecap:round; stroke-linejoin:round; stroke-width:4; stroke-opacity:0.5; fill:none" points="1584.99,595.632 1584.99,1042.58 1607.54,1042.58 1607.54,595.632 1584.99,595.632 "/>
<path clip-path="url(#clip492)" d="M1613.17 335.847 L1613.17 1042.58 L1635.71 1042.58 L1635.71 335.847 L1613.17 335.847 L1613.17 335.847  Z" fill="#009af9" fill-rule="evenodd" fill-opacity="0.5"/>
<polyline clip-path="url(#clip492)" style="stroke:#000000; stroke-linecap:round; stroke-linejoin:round; stroke-width:4; stroke-opacity:0.5; fill:none" points="1613.17,335.847 1613.17,1042.58 1635.71,1042.58 1635.71,335.847 1613.17,335.847 "/>
<path clip-path="url(#clip492)" d="M1641.35 422.731 L1641.35 1042.58 L1663.89 1042.58 L1663.89 422.731 L1641.35 422.731 L1641.35 422.731  Z" fill="#009af9" fill-rule="evenodd" fill-opacity="0.5"/>
<polyline clip-path="url(#clip492)" style="stroke:#000000; stroke-linecap:round; stroke-linejoin:round; stroke-width:4; stroke-opacity:0.5; fill:none" points="1641.35,422.731 1641.35,1042.58 1663.89,1042.58 1663.89,422.731 1641.35,422.731 "/>
<path clip-path="url(#clip492)" d="M1669.53 523.871 L1669.53 1042.58 L1692.07 1042.58 L1692.07 523.871 L1669.53 523.871 L1669.53 523.871  Z" fill="#009af9" fill-rule="evenodd" fill-opacity="0.5"/>
<polyline clip-path="url(#clip492)" style="stroke:#000000; stroke-linecap:round; stroke-linejoin:round; stroke-width:4; stroke-opacity:0.5; fill:none" points="1669.53,523.871 1669.53,1042.58 1692.07,1042.58 1692.07,523.871 1669.53,523.871 "/>
<path clip-path="url(#clip492)" d="M1697.71 367.069 L1697.71 1042.58 L1720.25 1042.58 L1720.25 367.069 L1697.71 367.069 L1697.71 367.069  Z" fill="#009af9" fill-rule="evenodd" fill-opacity="0.5"/>
<polyline clip-path="url(#clip492)" style="stroke:#000000; stroke-linecap:round; stroke-linejoin:round; stroke-width:4; stroke-opacity:0.5; fill:none" points="1697.71,367.069 1697.71,1042.58 1720.25,1042.58 1720.25,367.069 1697.71,367.069 "/>
<path clip-path="url(#clip492)" d="M1725.89 402.764 L1725.89 1042.58 L1748.43 1042.58 L1748.43 402.764 L1725.89 402.764 L1725.89 402.764  Z" fill="#009af9" fill-rule="evenodd" fill-opacity="0.5"/>
<polyline clip-path="url(#clip492)" style="stroke:#000000; stroke-linecap:round; stroke-linejoin:round; stroke-width:4; stroke-opacity:0.5; fill:none" points="1725.89,402.764 1725.89,1042.58 1748.43,1042.58 1748.43,402.764 1725.89,402.764 "/>
<path clip-path="url(#clip492)" d="M1754.07 869.674 L1754.07 1042.58 L1776.61 1042.58 L1776.61 869.674 L1754.07 869.674 L1754.07 869.674  Z" fill="#009af9" fill-rule="evenodd" fill-opacity="0.5"/>
<polyline clip-path="url(#clip492)" style="stroke:#000000; stroke-linecap:round; stroke-linejoin:round; stroke-width:4; stroke-opacity:0.5; fill:none" points="1754.07,869.674 1754.07,1042.58 1776.61,1042.58 1776.61,869.674 1754.07,869.674 "/>
<path clip-path="url(#clip492)" d="M1782.25 696.773 L1782.25 1042.58 L1804.79 1042.58 L1804.79 696.773 L1782.25 696.773 L1782.25 696.773  Z" fill="#009af9" fill-rule="evenodd" fill-opacity="0.5"/>
<polyline clip-path="url(#clip492)" style="stroke:#000000; stroke-linecap:round; stroke-linejoin:round; stroke-width:4; stroke-opacity:0.5; fill:none" points="1782.25,696.773 1782.25,1042.58 1804.79,1042.58 1804.79,696.773 1782.25,696.773 "/>
<path clip-path="url(#clip492)" d="M1810.43 308.103 L1810.43 1042.58 L1832.97 1042.58 L1832.97 308.103 L1810.43 308.103 L1810.43 308.103  Z" fill="#009af9" fill-rule="evenodd" fill-opacity="0.5"/>
<polyline clip-path="url(#clip492)" style="stroke:#000000; stroke-linecap:round; stroke-linejoin:round; stroke-width:4; stroke-opacity:0.5; fill:none" points="1810.43,308.103 1810.43,1042.58 1832.97,1042.58 1832.97,308.103 1810.43,308.103 "/>
<path clip-path="url(#clip492)" d="M1838.61 335.847 L1838.61 1042.58 L1861.15 1042.58 L1861.15 335.847 L1838.61 335.847 L1838.61 335.847  Z" fill="#009af9" fill-rule="evenodd" fill-opacity="0.5"/>
<polyline clip-path="url(#clip492)" style="stroke:#000000; stroke-linecap:round; stroke-linejoin:round; stroke-width:4; stroke-opacity:0.5; fill:none" points="1838.61,335.847 1838.61,1042.58 1861.15,1042.58 1861.15,335.847 1838.61,335.847 "/>
<path clip-path="url(#clip492)" d="M1866.78 110.236 L1866.78 1042.58 L1889.33 1042.58 L1889.33 110.236 L1866.78 110.236 L1866.78 110.236  Z" fill="#009af9" fill-rule="evenodd" fill-opacity="0.5"/>
<polyline clip-path="url(#clip492)" style="stroke:#000000; stroke-linecap:round; stroke-linejoin:round; stroke-width:4; stroke-opacity:0.5; fill:none" points="1866.78,110.236 1866.78,1042.58 1889.33,1042.58 1889.33,110.236 1866.78,110.236 "/>
<path clip-path="url(#clip492)" d="M1894.96 350.97 L1894.96 1042.58 L1917.51 1042.58 L1917.51 350.97 L1894.96 350.97 L1894.96 350.97  Z" fill="#009af9" fill-rule="evenodd" fill-opacity="0.5"/>
<polyline clip-path="url(#clip492)" style="stroke:#000000; stroke-linecap:round; stroke-linejoin:round; stroke-width:4; stroke-opacity:0.5; fill:none" points="1894.96,350.97 1894.96,1042.58 1917.51,1042.58 1917.51,350.97 1894.96,350.97 "/>
<path clip-path="url(#clip492)" d="M1923.14 523.871 L1923.14 1042.58 L1945.69 1042.58 L1945.69 523.871 L1923.14 523.871 L1923.14 523.871  Z" fill="#009af9" fill-rule="evenodd" fill-opacity="0.5"/>
<polyline clip-path="url(#clip492)" style="stroke:#000000; stroke-linecap:round; stroke-linejoin:round; stroke-width:4; stroke-opacity:0.5; fill:none" points="1923.14,523.871 1923.14,1042.58 1945.69,1042.58 1945.69,523.871 1923.14,523.871 "/>
<path clip-path="url(#clip492)" d="M1951.32 696.773 L1951.32 1042.58 L1973.87 1042.58 L1973.87 696.773 L1951.32 696.773 L1951.32 696.773  Z" fill="#009af9" fill-rule="evenodd" fill-opacity="0.5"/>
<polyline clip-path="url(#clip492)" style="stroke:#000000; stroke-linecap:round; stroke-linejoin:round; stroke-width:4; stroke-opacity:0.5; fill:none" points="1951.32,696.773 1951.32,1042.58 1973.87,1042.58 1973.87,696.773 1951.32,696.773 "/>
<path clip-path="url(#clip492)" d="M1979.5 384.279 L1979.5 1042.58 L2002.04 1042.58 L2002.04 384.279 L1979.5 384.279 L1979.5 384.279  Z" fill="#009af9" fill-rule="evenodd" fill-opacity="0.5"/>
<polyline clip-path="url(#clip492)" style="stroke:#000000; stroke-linecap:round; stroke-linejoin:round; stroke-width:4; stroke-opacity:0.5; fill:none" points="1979.5,384.279 1979.5,1042.58 2002.04,1042.58 2002.04,384.279 1979.5,384.279 "/>
<path clip-path="url(#clip492)" d="M2007.68 384.279 L2007.68 1042.58 L2030.22 1042.58 L2030.22 384.279 L2007.68 384.279 L2007.68 384.279  Z" fill="#009af9" fill-rule="evenodd" fill-opacity="0.5"/>
<polyline clip-path="url(#clip492)" style="stroke:#000000; stroke-linecap:round; stroke-linejoin:round; stroke-width:4; stroke-opacity:0.5; fill:none" points="2007.68,384.279 2007.68,1042.58 2030.22,1042.58 2030.22,384.279 2007.68,384.279 "/>
<path clip-path="url(#clip492)" d="M2035.86 494.491 L2035.86 1042.58 L2058.4 1042.58 L2058.4 494.491 L2035.86 494.491 L2035.86 494.491  Z" fill="#009af9" fill-rule="evenodd" fill-opacity="0.5"/>
<polyline clip-path="url(#clip492)" style="stroke:#000000; stroke-linecap:round; stroke-linejoin:round; stroke-width:4; stroke-opacity:0.5; fill:none" points="2035.86,494.491 2035.86,1042.58 2058.4,1042.58 2058.4,494.491 2035.86,494.491 "/>
<path clip-path="url(#clip492)" d="M2064.04 557.18 L2064.04 1042.58 L2086.58 1042.58 L2086.58 557.18 L2064.04 557.18 L2064.04 557.18  Z" fill="#009af9" fill-rule="evenodd" fill-opacity="0.5"/>
<polyline clip-path="url(#clip492)" style="stroke:#000000; stroke-linecap:round; stroke-linejoin:round; stroke-width:4; stroke-opacity:0.5; fill:none" points="2064.04,557.18 2064.04,1042.58 2086.58,1042.58 2086.58,557.18 2064.04,557.18 "/>
<path clip-path="url(#clip492)" d="M2092.22 557.18 L2092.22 1042.58 L2114.76 1042.58 L2114.76 557.18 L2092.22 557.18 L2092.22 557.18  Z" fill="#009af9" fill-rule="evenodd" fill-opacity="0.5"/>
<polyline clip-path="url(#clip492)" style="stroke:#000000; stroke-linecap:round; stroke-linejoin:round; stroke-width:4; stroke-opacity:0.5; fill:none" points="2092.22,557.18 2092.22,1042.58 2114.76,1042.58 2114.76,557.18 2092.22,557.18 "/>
<path clip-path="url(#clip492)" d="M2120.4 595.632 L2120.4 1042.58 L2142.94 1042.58 L2142.94 595.632 L2120.4 595.632 L2120.4 595.632  Z" fill="#009af9" fill-rule="evenodd" fill-opacity="0.5"/>
<polyline clip-path="url(#clip492)" style="stroke:#000000; stroke-linecap:round; stroke-linejoin:round; stroke-width:4; stroke-opacity:0.5; fill:none" points="2120.4,595.632 2120.4,1042.58 2142.94,1042.58 2142.94,595.632 2120.4,595.632 "/>
<path clip-path="url(#clip492)" d="M2148.58 468.21 L2148.58 1042.58 L2171.12 1042.58 L2171.12 468.21 L2148.58 468.21 L2148.58 468.21  Z" fill="#009af9" fill-rule="evenodd" fill-opacity="0.5"/>
<polyline clip-path="url(#clip492)" style="stroke:#000000; stroke-linecap:round; stroke-linejoin:round; stroke-width:4; stroke-opacity:0.5; fill:none" points="2148.58,468.21 2148.58,1042.58 2171.12,1042.58 2171.12,468.21 2148.58,468.21 "/>
<path clip-path="url(#clip492)" d="M2176.76 523.871 L2176.76 1042.58 L2199.3 1042.58 L2199.3 523.871 L2176.76 523.871 L2176.76 523.871  Z" fill="#009af9" fill-rule="evenodd" fill-opacity="0.5"/>
<polyline clip-path="url(#clip492)" style="stroke:#000000; stroke-linecap:round; stroke-linejoin:round; stroke-width:4; stroke-opacity:0.5; fill:none" points="2176.76,523.871 2176.76,1042.58 2199.3,1042.58 2199.3,523.871 2176.76,523.871 "/>
<path clip-path="url(#clip492)" d="M2204.94 444.435 L2204.94 1042.58 L2227.48 1042.58 L2227.48 444.435 L2204.94 444.435 L2204.94 444.435  Z" fill="#009af9" fill-rule="evenodd" fill-opacity="0.5"/>
<polyline clip-path="url(#clip492)" style="stroke:#000000; stroke-linecap:round; stroke-linejoin:round; stroke-width:4; stroke-opacity:0.5; fill:none" points="2204.94,444.435 2204.94,1042.58 2227.48,1042.58 2227.48,444.435 2204.94,444.435 "/>
<path clip-path="url(#clip492)" d="M2233.11 641.111 L2233.11 1042.58 L2255.66 1042.58 L2255.66 641.111 L2233.11 641.111 L2233.11 641.111  Z" fill="#009af9" fill-rule="evenodd" fill-opacity="0.5"/>
<polyline clip-path="url(#clip492)" style="stroke:#000000; stroke-linecap:round; stroke-linejoin:round; stroke-width:4; stroke-opacity:0.5; fill:none" points="2233.11,641.111 2233.11,1042.58 2255.66,1042.58 2255.66,641.111 2233.11,641.111 "/>
<path clip-path="url(#clip492)" d="M2261.29 595.632 L2261.29 1042.58 L2283.84 1042.58 L2283.84 595.632 L2261.29 595.632 L2261.29 595.632  Z" fill="#009af9" fill-rule="evenodd" fill-opacity="0.5"/>
<polyline clip-path="url(#clip492)" style="stroke:#000000; stroke-linecap:round; stroke-linejoin:round; stroke-width:4; stroke-opacity:0.5; fill:none" points="2261.29,595.632 2261.29,1042.58 2283.84,1042.58 2283.84,595.632 2261.29,595.632 "/>
<path clip-path="url(#clip492)" d="M2289.47 557.18 L2289.47 1042.58 L2312.02 1042.58 L2312.02 557.18 L2289.47 557.18 L2289.47 557.18  Z" fill="#009af9" fill-rule="evenodd" fill-opacity="0.5"/>
<polyline clip-path="url(#clip492)" style="stroke:#000000; stroke-linecap:round; stroke-linejoin:round; stroke-width:4; stroke-opacity:0.5; fill:none" points="2289.47,557.18 2289.47,1042.58 2312.02,1042.58 2312.02,557.18 2289.47,557.18 "/>
<path clip-path="url(#clip492)" d="M2317.65 422.731 L2317.65 1042.58 L2340.2 1042.58 L2340.2 422.731 L2317.65 422.731 L2317.65 422.731  Z" fill="#009af9" fill-rule="evenodd" fill-opacity="0.5"/>
<polyline clip-path="url(#clip492)" style="stroke:#000000; stroke-linecap:round; stroke-linejoin:round; stroke-width:4; stroke-opacity:0.5; fill:none" points="2317.65,422.731 2317.65,1042.58 2340.2,1042.58 2340.2,422.731 2317.65,422.731 "/>
<path clip-path="url(#clip492)" d="M2345.83 402.764 L2345.83 1042.58 L2368.38 1042.58 L2368.38 402.764 L2345.83 402.764 L2345.83 402.764  Z" fill="#009af9" fill-rule="evenodd" fill-opacity="0.5"/>
<polyline clip-path="url(#clip492)" style="stroke:#000000; stroke-linecap:round; stroke-linejoin:round; stroke-width:4; stroke-opacity:0.5; fill:none" points="2345.83,402.764 2345.83,1042.58 2368.38,1042.58 2368.38,402.764 2345.83,402.764 "/>
<path clip-path="url(#clip492)" d="M2374.01 523.871 L2374.01 1042.58 L2396.55 1042.58 L2396.55 523.871 L2374.01 523.871 L2374.01 523.871  Z" fill="#009af9" fill-rule="evenodd" fill-opacity="0.5"/>
<polyline clip-path="url(#clip492)" style="stroke:#000000; stroke-linecap:round; stroke-linejoin:round; stroke-width:4; stroke-opacity:0.5; fill:none" points="2374.01,523.871 2374.01,1042.58 2396.55,1042.58 2396.55,523.871 2374.01,523.871 "/>
<path clip-path="url(#clip492)" d="M2402.19 308.103 L2402.19 1042.58 L2424.73 1042.58 L2424.73 308.103 L2402.19 308.103 L2402.19 308.103  Z" fill="#009af9" fill-rule="evenodd" fill-opacity="0.5"/>
<polyline clip-path="url(#clip492)" style="stroke:#000000; stroke-linecap:round; stroke-linejoin:round; stroke-width:4; stroke-opacity:0.5; fill:none" points="2402.19,308.103 2402.19,1042.58 2424.73,1042.58 2424.73,308.103 2402.19,308.103 "/>
<path clip-path="url(#clip492)" d="M2430.37 350.97 L2430.37 1042.58 L2452.91 1042.58 L2452.91 350.97 L2430.37 350.97 L2430.37 350.97  Z" fill="#009af9" fill-rule="evenodd" fill-opacity="0.5"/>
<polyline clip-path="url(#clip492)" style="stroke:#000000; stroke-linecap:round; stroke-linejoin:round; stroke-width:4; stroke-opacity:0.5; fill:none" points="2430.37,350.97 2430.37,1042.58 2452.91,1042.58 2452.91,350.97 2430.37,350.97 "/>
<path clip-path="url(#clip492)" d="M2458.55 402.764 L2458.55 1042.58 L2481.09 1042.58 L2481.09 402.764 L2458.55 402.764 L2458.55 402.764  Z" fill="#009af9" fill-rule="evenodd" fill-opacity="0.5"/>
<polyline clip-path="url(#clip492)" style="stroke:#000000; stroke-linecap:round; stroke-linejoin:round; stroke-width:4; stroke-opacity:0.5; fill:none" points="2458.55,402.764 2458.55,1042.58 2481.09,1042.58 2481.09,402.764 2458.55,402.764 "/>
<path clip-path="url(#clip492)" d="M2486.73 468.21 L2486.73 1042.58 L2509.27 1042.58 L2509.27 468.21 L2486.73 468.21 L2486.73 468.21  Z" fill="#009af9" fill-rule="evenodd" fill-opacity="0.5"/>
<polyline clip-path="url(#clip492)" style="stroke:#000000; stroke-linecap:round; stroke-linejoin:round; stroke-width:4; stroke-opacity:0.5; fill:none" points="2486.73,468.21 2486.73,1042.58 2509.27,1042.58 2509.27,468.21 2486.73,468.21 "/>
<path clip-path="url(#clip492)" d="M2514.91 494.491 L2514.91 1042.58 L2537.45 1042.58 L2537.45 494.491 L2514.91 494.491 L2514.91 494.491  Z" fill="#009af9" fill-rule="evenodd" fill-opacity="0.5"/>
<polyline clip-path="url(#clip492)" style="stroke:#000000; stroke-linecap:round; stroke-linejoin:round; stroke-width:4; stroke-opacity:0.5; fill:none" points="2514.91,494.491 2514.91,1042.58 2537.45,1042.58 2537.45,494.491 2514.91,494.491 "/>
<path clip-path="url(#clip492)" d="M2543.09 696.773 L2543.09 1042.58 L2565.63 1042.58 L2565.63 696.773 L2543.09 696.773 L2543.09 696.773  Z" fill="#009af9" fill-rule="evenodd" fill-opacity="0.5"/>
<polyline clip-path="url(#clip492)" style="stroke:#000000; stroke-linecap:round; stroke-linejoin:round; stroke-width:4; stroke-opacity:0.5; fill:none" points="2543.09,696.773 2543.09,1042.58 2565.63,1042.58 2565.63,696.773 2543.09,696.773 "/>
<path clip-path="url(#clip492)" d="M2571.27 595.632 L2571.27 1042.58 L2593.81 1042.58 L2593.81 595.632 L2571.27 595.632 L2571.27 595.632  Z" fill="#009af9" fill-rule="evenodd" fill-opacity="0.5"/>
<polyline clip-path="url(#clip492)" style="stroke:#000000; stroke-linecap:round; stroke-linejoin:round; stroke-width:4; stroke-opacity:0.5; fill:none" points="2571.27,595.632 2571.27,1042.58 2593.81,1042.58 2593.81,595.632 2571.27,595.632 "/>
<path clip-path="url(#clip492)" d="M2599.44 402.764 L2599.44 1042.58 L2621.99 1042.58 L2621.99 402.764 L2599.44 402.764 L2599.44 402.764  Z" fill="#009af9" fill-rule="evenodd" fill-opacity="0.5"/>
<polyline clip-path="url(#clip492)" style="stroke:#000000; stroke-linecap:round; stroke-linejoin:round; stroke-width:4; stroke-opacity:0.5; fill:none" points="2599.44,402.764 2599.44,1042.58 2621.99,1042.58 2621.99,402.764 2599.44,402.764 "/>
<path clip-path="url(#clip492)" d="M2627.62 1042.58 L2627.62 1042.58 L2650.17 1042.58 L2650.17 1042.58 L2627.62 1042.58 L2627.62 1042.58  Z" fill="#009af9" fill-rule="evenodd" fill-opacity="0.5"/>
<polyline clip-path="url(#clip492)" style="stroke:#000000; stroke-linecap:round; stroke-linejoin:round; stroke-width:4; stroke-opacity:0.5; fill:none" points="2627.62,1042.58 2627.62,1042.58 2650.17,1042.58 2627.62,1042.58 "/>
<path clip-path="url(#clip492)" d="M2655.8 869.674 L2655.8 1042.58 L2678.35 1042.58 L2678.35 869.674 L2655.8 869.674 L2655.8 869.674  Z" fill="#009af9" fill-rule="evenodd" fill-opacity="0.5"/>
<polyline clip-path="url(#clip492)" style="stroke:#000000; stroke-linecap:round; stroke-linejoin:round; stroke-width:4; stroke-opacity:0.5; fill:none" points="2655.8,869.674 2655.8,1042.58 2678.35,1042.58 2678.35,869.674 2655.8,869.674 "/>
<path clip-path="url(#clip492)" d="M2683.98 869.674 L2683.98 1042.58 L2706.53 1042.58 L2706.53 869.674 L2683.98 869.674 L2683.98 869.674  Z" fill="#009af9" fill-rule="evenodd" fill-opacity="0.5"/>
<polyline clip-path="url(#clip492)" style="stroke:#000000; stroke-linecap:round; stroke-linejoin:round; stroke-width:4; stroke-opacity:0.5; fill:none" points="2683.98,869.674 2683.98,1042.58 2706.53,1042.58 2706.53,869.674 2683.98,869.674 "/>
<path clip-path="url(#clip492)" d="M2712.16 641.111 L2712.16 1042.58 L2734.71 1042.58 L2734.71 641.111 L2712.16 641.111 L2712.16 641.111  Z" fill="#009af9" fill-rule="evenodd" fill-opacity="0.5"/>
<polyline clip-path="url(#clip492)" style="stroke:#000000; stroke-linecap:round; stroke-linejoin:round; stroke-width:4; stroke-opacity:0.5; fill:none" points="2712.16,641.111 2712.16,1042.58 2734.71,1042.58 2734.71,641.111 2712.16,641.111 "/>
<path clip-path="url(#clip492)" d="M2740.34 595.632 L2740.34 1042.58 L2762.88 1042.58 L2762.88 595.632 L2740.34 595.632 L2740.34 595.632  Z" fill="#009af9" fill-rule="evenodd" fill-opacity="0.5"/>
<polyline clip-path="url(#clip492)" style="stroke:#000000; stroke-linecap:round; stroke-linejoin:round; stroke-width:4; stroke-opacity:0.5; fill:none" points="2740.34,595.632 2740.34,1042.58 2762.88,1042.58 2762.88,595.632 2740.34,595.632 "/>
<path clip-path="url(#clip492)" d="M2796.7 595.632 L2796.7 1042.58 L2819.24 1042.58 L2819.24 595.632 L2796.7 595.632 L2796.7 595.632  Z" fill="#009af9" fill-rule="evenodd" fill-opacity="0.5"/>
<polyline clip-path="url(#clip492)" style="stroke:#000000; stroke-linecap:round; stroke-linejoin:round; stroke-width:4; stroke-opacity:0.5; fill:none" points="2796.7,595.632 2796.7,1042.58 2819.24,1042.58 2819.24,595.632 2796.7,595.632 "/>
<path clip-path="url(#clip492)" d="M2824.88 641.111 L2824.88 1042.58 L2847.42 1042.58 L2847.42 641.111 L2824.88 641.111 L2824.88 641.111  Z" fill="#009af9" fill-rule="evenodd" fill-opacity="0.5"/>
<polyline clip-path="url(#clip492)" style="stroke:#000000; stroke-linecap:round; stroke-linejoin:round; stroke-width:4; stroke-opacity:0.5; fill:none" points="2824.88,641.111 2824.88,1042.58 2847.42,1042.58 2847.42,641.111 2824.88,641.111 "/>
<path clip-path="url(#clip492)" d="M2853.06 768.533 L2853.06 1042.58 L2875.6 1042.58 L2875.6 768.533 L2853.06 768.533 L2853.06 768.533  Z" fill="#009af9" fill-rule="evenodd" fill-opacity="0.5"/>
<polyline clip-path="url(#clip492)" style="stroke:#000000; stroke-linecap:round; stroke-linejoin:round; stroke-width:4; stroke-opacity:0.5; fill:none" points="2853.06,768.533 2853.06,1042.58 2875.6,1042.58 2875.6,768.533 2853.06,768.533 "/>
<circle clip-path="url(#clip492)" style="fill:#009af9; stroke:none; fill-opacity:0" cx="300.018" cy="335.847" r="2"/>
<circle clip-path="url(#clip492)" style="fill:#009af9; stroke:none; fill-opacity:0" cx="328.198" cy="239.646" r="2"/>
<circle clip-path="url(#clip492)" style="fill:#009af9; stroke:none; fill-opacity:0" cx="356.377" cy="249.829" r="2"/>
<circle clip-path="url(#clip492)" style="fill:#009af9; stroke:none; fill-opacity:0" cx="384.556" cy="367.069" r="2"/>
<circle clip-path="url(#clip492)" style="fill:#009af9; stroke:none; fill-opacity:0" cx="412.735" cy="271.534" r="2"/>
<circle clip-path="url(#clip492)" style="fill:#009af9; stroke:none; fill-opacity:0" cx="440.915" cy="239.646" r="2"/>
<circle clip-path="url(#clip492)" style="fill:#009af9; stroke:none; fill-opacity:0" cx="469.094" cy="211.377" r="2"/>
<circle clip-path="url(#clip492)" style="fill:#009af9; stroke:none; fill-opacity:0" cx="497.273" cy="249.829" r="2"/>
<circle clip-path="url(#clip492)" style="fill:#009af9; stroke:none; fill-opacity:0" cx="525.452" cy="202.624" r="2"/>
<circle clip-path="url(#clip492)" style="fill:#009af9; stroke:none; fill-opacity:0" cx="553.632" cy="350.97" r="2"/>
<circle clip-path="url(#clip492)" style="fill:#009af9; stroke:none; fill-opacity:0" cx="581.811" cy="468.21" r="2"/>
<circle clip-path="url(#clip492)" style="fill:#009af9; stroke:none; fill-opacity:0" cx="609.99" cy="283.138" r="2"/>
<circle clip-path="url(#clip492)" style="fill:#009af9; stroke:none; fill-opacity:0" cx="638.169" cy="162.946" r="2"/>
<circle clip-path="url(#clip492)" style="fill:#009af9; stroke:none; fill-opacity:0" cx="666.349" cy="283.138" r="2"/>
<circle clip-path="url(#clip492)" style="fill:#009af9; stroke:none; fill-opacity:0" cx="694.528" cy="211.377" r="2"/>
<circle clip-path="url(#clip492)" style="fill:#009af9; stroke:none; fill-opacity:0" cx="722.707" cy="211.377" r="2"/>
<circle clip-path="url(#clip492)" style="fill:#009af9; stroke:none; fill-opacity:0" cx="750.886" cy="260.445" r="2"/>
<circle clip-path="url(#clip492)" style="fill:#009af9; stroke:none; fill-opacity:0" cx="779.066" cy="523.871" r="2"/>
<circle clip-path="url(#clip492)" style="fill:#009af9; stroke:none; fill-opacity:0" cx="807.245" cy="384.279" r="2"/>
<circle clip-path="url(#clip492)" style="fill:#009af9; stroke:none; fill-opacity:0" cx="835.424" cy="308.103" r="2"/>
<circle clip-path="url(#clip492)" style="fill:#009af9; stroke:none; fill-opacity:0" cx="863.603" cy="321.59" r="2"/>
<circle clip-path="url(#clip492)" style="fill:#009af9; stroke:none; fill-opacity:0" cx="891.783" cy="271.534" r="2"/>
<circle clip-path="url(#clip492)" style="fill:#009af9; stroke:none; fill-opacity:0" cx="919.962" cy="308.103" r="2"/>
<circle clip-path="url(#clip492)" style="fill:#009af9; stroke:none; fill-opacity:0" cx="948.141" cy="444.435" r="2"/>
<circle clip-path="url(#clip492)" style="fill:#009af9; stroke:none; fill-opacity:0" cx="976.32" cy="384.279" r="2"/>
<circle clip-path="url(#clip492)" style="fill:#009af9; stroke:none; fill-opacity:0" cx="1004.5" cy="321.59" r="2"/>
<circle clip-path="url(#clip492)" style="fill:#009af9; stroke:none; fill-opacity:0" cx="1032.68" cy="202.624" r="2"/>
<circle clip-path="url(#clip492)" style="fill:#009af9; stroke:none; fill-opacity:0" cx="1060.86" cy="402.764" r="2"/>
<circle clip-path="url(#clip492)" style="fill:#009af9; stroke:none; fill-opacity:0" cx="1089.04" cy="229.863" r="2"/>
<circle clip-path="url(#clip492)" style="fill:#009af9; stroke:none; fill-opacity:0" cx="1117.22" cy="321.59" r="2"/>
<circle clip-path="url(#clip492)" style="fill:#009af9; stroke:none; fill-opacity:0" cx="1145.4" cy="444.435" r="2"/>
<circle clip-path="url(#clip492)" style="fill:#009af9; stroke:none; fill-opacity:0" cx="1173.58" cy="557.18" r="2"/>
<circle clip-path="url(#clip492)" style="fill:#009af9; stroke:none; fill-opacity:0" cx="1201.75" cy="523.871" r="2"/>
<circle clip-path="url(#clip492)" style="fill:#009af9; stroke:none; fill-opacity:0" cx="1229.93" cy="523.871" r="2"/>
<circle clip-path="url(#clip492)" style="fill:#009af9; stroke:none; fill-opacity:0" cx="1258.11" cy="249.829" r="2"/>
<circle clip-path="url(#clip492)" style="fill:#009af9; stroke:none; fill-opacity:0" cx="1286.29" cy="295.308" r="2"/>
<circle clip-path="url(#clip492)" style="fill:#009af9; stroke:none; fill-opacity:0" cx="1314.47" cy="422.731" r="2"/>
<circle clip-path="url(#clip492)" style="fill:#009af9; stroke:none; fill-opacity:0" cx="1342.65" cy="595.632" r="2"/>
<circle clip-path="url(#clip492)" style="fill:#009af9; stroke:none; fill-opacity:0" cx="1370.83" cy="422.731" r="2"/>
<circle clip-path="url(#clip492)" style="fill:#009af9; stroke:none; fill-opacity:0" cx="1399.01" cy="768.533" r="2"/>
<circle clip-path="url(#clip492)" style="fill:#009af9; stroke:none; fill-opacity:0" cx="1427.19" cy="468.21" r="2"/>
<circle clip-path="url(#clip492)" style="fill:#009af9; stroke:none; fill-opacity:0" cx="1455.37" cy="422.731" r="2"/>
<circle clip-path="url(#clip492)" style="fill:#009af9; stroke:none; fill-opacity:0" cx="1483.55" cy="444.435" r="2"/>
<circle clip-path="url(#clip492)" style="fill:#009af9; stroke:none; fill-opacity:0" cx="1511.73" cy="494.491" r="2"/>
<circle clip-path="url(#clip492)" style="fill:#009af9; stroke:none; fill-opacity:0" cx="1539.91" cy="402.764" r="2"/>
<circle clip-path="url(#clip492)" style="fill:#009af9; stroke:none; fill-opacity:0" cx="1568.08" cy="557.18" r="2"/>
<circle clip-path="url(#clip492)" style="fill:#009af9; stroke:none; fill-opacity:0" cx="1596.26" cy="595.632" r="2"/>
<circle clip-path="url(#clip492)" style="fill:#009af9; stroke:none; fill-opacity:0" cx="1624.44" cy="335.847" r="2"/>
<circle clip-path="url(#clip492)" style="fill:#009af9; stroke:none; fill-opacity:0" cx="1652.62" cy="422.731" r="2"/>
<circle clip-path="url(#clip492)" style="fill:#009af9; stroke:none; fill-opacity:0" cx="1680.8" cy="523.871" r="2"/>
<circle clip-path="url(#clip492)" style="fill:#009af9; stroke:none; fill-opacity:0" cx="1708.98" cy="367.069" r="2"/>
<circle clip-path="url(#clip492)" style="fill:#009af9; stroke:none; fill-opacity:0" cx="1737.16" cy="402.764" r="2"/>
<circle clip-path="url(#clip492)" style="fill:#009af9; stroke:none; fill-opacity:0" cx="1765.34" cy="869.674" r="2"/>
<circle clip-path="url(#clip492)" style="fill:#009af9; stroke:none; fill-opacity:0" cx="1793.52" cy="696.773" r="2"/>
<circle clip-path="url(#clip492)" style="fill:#009af9; stroke:none; fill-opacity:0" cx="1821.7" cy="308.103" r="2"/>
<circle clip-path="url(#clip492)" style="fill:#009af9; stroke:none; fill-opacity:0" cx="1849.88" cy="335.847" r="2"/>
<circle clip-path="url(#clip492)" style="fill:#009af9; stroke:none; fill-opacity:0" cx="1878.06" cy="110.236" r="2"/>
<circle clip-path="url(#clip492)" style="fill:#009af9; stroke:none; fill-opacity:0" cx="1906.24" cy="350.97" r="2"/>
<circle clip-path="url(#clip492)" style="fill:#009af9; stroke:none; fill-opacity:0" cx="1934.41" cy="523.871" r="2"/>
<circle clip-path="url(#clip492)" style="fill:#009af9; stroke:none; fill-opacity:0" cx="1962.59" cy="696.773" r="2"/>
<circle clip-path="url(#clip492)" style="fill:#009af9; stroke:none; fill-opacity:0" cx="1990.77" cy="384.279" r="2"/>
<circle clip-path="url(#clip492)" style="fill:#009af9; stroke:none; fill-opacity:0" cx="2018.95" cy="384.279" r="2"/>
<circle clip-path="url(#clip492)" style="fill:#009af9; stroke:none; fill-opacity:0" cx="2047.13" cy="494.491" r="2"/>
<circle clip-path="url(#clip492)" style="fill:#009af9; stroke:none; fill-opacity:0" cx="2075.31" cy="557.18" r="2"/>
<circle clip-path="url(#clip492)" style="fill:#009af9; stroke:none; fill-opacity:0" cx="2103.49" cy="557.18" r="2"/>
<circle clip-path="url(#clip492)" style="fill:#009af9; stroke:none; fill-opacity:0" cx="2131.67" cy="595.632" r="2"/>
<circle clip-path="url(#clip492)" style="fill:#009af9; stroke:none; fill-opacity:0" cx="2159.85" cy="468.21" r="2"/>
<circle clip-path="url(#clip492)" style="fill:#009af9; stroke:none; fill-opacity:0" cx="2188.03" cy="523.871" r="2"/>
<circle clip-path="url(#clip492)" style="fill:#009af9; stroke:none; fill-opacity:0" cx="2216.21" cy="444.435" r="2"/>
<circle clip-path="url(#clip492)" style="fill:#009af9; stroke:none; fill-opacity:0" cx="2244.39" cy="641.111" r="2"/>
<circle clip-path="url(#clip492)" style="fill:#009af9; stroke:none; fill-opacity:0" cx="2272.57" cy="595.632" r="2"/>
<circle clip-path="url(#clip492)" style="fill:#009af9; stroke:none; fill-opacity:0" cx="2300.74" cy="557.18" r="2"/>
<circle clip-path="url(#clip492)" style="fill:#009af9; stroke:none; fill-opacity:0" cx="2328.92" cy="422.731" r="2"/>
<circle clip-path="url(#clip492)" style="fill:#009af9; stroke:none; fill-opacity:0" cx="2357.1" cy="402.764" r="2"/>
<circle clip-path="url(#clip492)" style="fill:#009af9; stroke:none; fill-opacity:0" cx="2385.28" cy="523.871" r="2"/>
<circle clip-path="url(#clip492)" style="fill:#009af9; stroke:none; fill-opacity:0" cx="2413.46" cy="308.103" r="2"/>
<circle clip-path="url(#clip492)" style="fill:#009af9; stroke:none; fill-opacity:0" cx="2441.64" cy="350.97" r="2"/>
<circle clip-path="url(#clip492)" style="fill:#009af9; stroke:none; fill-opacity:0" cx="2469.82" cy="402.764" r="2"/>
<circle clip-path="url(#clip492)" style="fill:#009af9; stroke:none; fill-opacity:0" cx="2498" cy="468.21" r="2"/>
<circle clip-path="url(#clip492)" style="fill:#009af9; stroke:none; fill-opacity:0" cx="2526.18" cy="494.491" r="2"/>
<circle clip-path="url(#clip492)" style="fill:#009af9; stroke:none; fill-opacity:0" cx="2554.36" cy="696.773" r="2"/>
<circle clip-path="url(#clip492)" style="fill:#009af9; stroke:none; fill-opacity:0" cx="2582.54" cy="595.632" r="2"/>
<circle clip-path="url(#clip492)" style="fill:#009af9; stroke:none; fill-opacity:0" cx="2610.72" cy="402.764" r="2"/>
<circle clip-path="url(#clip492)" style="fill:#009af9; stroke:none; fill-opacity:0" cx="2638.9" cy="1042.58" r="2"/>
<circle clip-path="url(#clip492)" style="fill:#009af9; stroke:none; fill-opacity:0" cx="2667.08" cy="869.674" r="2"/>
<circle clip-path="url(#clip492)" style="fill:#009af9; stroke:none; fill-opacity:0" cx="2695.25" cy="869.674" r="2"/>
<circle clip-path="url(#clip492)" style="fill:#009af9; stroke:none; fill-opacity:0" cx="2723.43" cy="641.111" r="2"/>
<circle clip-path="url(#clip492)" style="fill:#009af9; stroke:none; fill-opacity:0" cx="2751.61" cy="595.632" r="2"/>
<circle clip-path="url(#clip492)" style="fill:#009af9; stroke:none; fill-opacity:0" cx="2807.97" cy="595.632" r="2"/>
<circle clip-path="url(#clip492)" style="fill:#009af9; stroke:none; fill-opacity:0" cx="2836.15" cy="641.111" r="2"/>
<circle clip-path="url(#clip492)" style="fill:#009af9; stroke:none; fill-opacity:0" cx="2864.33" cy="768.533" r="2"/>
</svg>
