<?xml version="1.0" encoding="utf-8"?>
<svg xmlns="http://www.w3.org/2000/svg" xmlns:xlink="http://www.w3.org/1999/xlink" width="800" height="300" viewBox="0 0 3200 1200">
<defs>
  <clipPath id="clip360">
    <rect x="0" y="0" width="3200" height="1200"/>
  </clipPath>
</defs>
<path clip-path="url(#clip360)" d="M0 1200 L3200 1200 L3200 0 L0 0  Z" fill="#ffffff" fill-rule="evenodd" fill-opacity="1"/>
<defs>
  <clipPath id="clip361">
    <rect x="640" y="0" width="2241" height="1200"/>
  </clipPath>
</defs>
<path clip-path="url(#clip360)" d="M271.839 1042.58 L3089.76 1042.58 L3089.76 110.236 L271.839 110.236  Z" fill="#ffffff" fill-rule="evenodd" fill-opacity="1"/>
<defs>
  <clipPath id="clip362">
    <rect x="271" y="110" width="2819" height="933"/>
  </clipPath>
</defs>
<polyline clip-path="url(#clip362)" style="stroke:#000000; stroke-linecap:round; stroke-linejoin:round; stroke-width:2; stroke-opacity:0.1; fill:none" points="891.783,1042.58 891.783,110.236 "/>
<polyline clip-path="url(#clip362)" style="stroke:#000000; stroke-linecap:round; stroke-linejoin:round; stroke-width:2; stroke-opacity:0.1; fill:none" points="1765.34,1042.58 1765.34,110.236 "/>
<polyline clip-path="url(#clip362)" style="stroke:#000000; stroke-linecap:round; stroke-linejoin:round; stroke-width:2; stroke-opacity:0.1; fill:none" points="2610.72,1042.58 2610.72,110.236 "/>
<polyline clip-path="url(#clip360)" style="stroke:#000000; stroke-linecap:round; stroke-linejoin:round; stroke-width:4; stroke-opacity:1; fill:none" points="271.839,1042.58 3089.76,1042.58 "/>
<polyline clip-path="url(#clip360)" style="stroke:#000000; stroke-linecap:round; stroke-linejoin:round; stroke-width:4; stroke-opacity:1; fill:none" points="891.783,1042.58 891.783,1023.68 "/>
<polyline clip-path="url(#clip360)" style="stroke:#000000; stroke-linecap:round; stroke-linejoin:round; stroke-width:4; stroke-opacity:1; fill:none" points="1765.34,1042.58 1765.34,1023.68 "/>
<polyline clip-path="url(#clip360)" style="stroke:#000000; stroke-linecap:round; stroke-linejoin:round; stroke-width:4; stroke-opacity:1; fill:none" points="2610.72,1042.58 2610.72,1023.68 "/>
<path clip-path="url(#clip360)" d="M763.577 1107.44 L779.897 1107.44 L779.897 1111.38 L757.952 1111.38 L757.952 1107.44 Q760.614 1104.69 765.198 1100.06 Q769.804 1095.4 770.985 1094.06 Q773.23 1091.54 774.11 1089.8 Q775.012 1088.04 775.012 1086.35 Q775.012 1083.6 773.068 1081.86 Q771.147 1080.13 768.045 1080.13 Q765.846 1080.13 763.392 1080.89 Q760.962 1081.65 758.184 1083.2 L758.184 1078.48 Q761.008 1077.35 763.462 1076.77 Q765.915 1076.19 767.952 1076.19 Q773.323 1076.19 776.517 1078.88 Q779.711 1081.56 779.711 1086.05 Q779.711 1088.18 778.901 1090.1 Q778.114 1092 776.008 1094.59 Q775.429 1095.26 772.327 1098.48 Q769.225 1101.68 763.577 1107.44 Z" fill="#000000" fill-rule="nonzero" fill-opacity="1" /><path clip-path="url(#clip360)" d="M799.711 1079.89 Q796.1 1079.89 794.272 1083.46 Q792.466 1087 792.466 1094.13 Q792.466 1101.24 794.272 1104.8 Q796.1 1108.34 799.711 1108.34 Q803.346 1108.34 805.151 1104.8 Q806.98 1101.24 806.98 1094.13 Q806.98 1087 805.151 1083.46 Q803.346 1079.89 799.711 1079.89 M799.711 1076.19 Q805.522 1076.19 808.577 1080.8 Q811.656 1085.38 811.656 1094.13 Q811.656 1102.86 808.577 1107.46 Q805.522 1112.05 799.711 1112.05 Q793.901 1112.05 790.823 1107.46 Q787.767 1102.86 787.767 1094.13 Q787.767 1085.38 790.823 1080.8 Q793.901 1076.19 799.711 1076.19 Z" fill="#000000" fill-rule="nonzero" fill-opacity="1" /><path clip-path="url(#clip360)" d="M823.901 1107.44 L840.22 1107.44 L840.22 1111.38 L818.276 1111.38 L818.276 1107.44 Q820.938 1104.69 825.521 1100.06 Q830.128 1095.4 831.308 1094.06 Q833.554 1091.54 834.433 1089.8 Q835.336 1088.04 835.336 1086.35 Q835.336 1083.6 833.392 1081.86 Q831.47 1080.13 828.369 1080.13 Q826.17 1080.13 823.716 1080.89 Q821.285 1081.65 818.508 1083.2 L818.508 1078.48 Q821.332 1077.35 823.785 1076.77 Q826.239 1076.19 828.276 1076.19 Q833.646 1076.19 836.841 1078.88 Q840.035 1081.56 840.035 1086.05 Q840.035 1088.18 839.225 1090.1 Q838.438 1092 836.332 1094.59 Q835.753 1095.26 832.651 1098.48 Q829.549 1101.68 823.901 1107.44 Z" fill="#000000" fill-rule="nonzero" fill-opacity="1" /><path clip-path="url(#clip360)" d="M850.081 1076.82 L868.438 1076.82 L868.438 1080.75 L854.364 1080.75 L854.364 1089.22 Q855.382 1088.88 856.401 1088.71 Q857.419 1088.53 858.438 1088.53 Q864.225 1088.53 867.605 1091.7 Q870.984 1094.87 870.984 1100.29 Q870.984 1105.87 867.512 1108.97 Q864.04 1112.05 857.72 1112.05 Q855.544 1112.05 853.276 1111.68 Q851.031 1111.31 848.623 1110.57 L848.623 1105.87 Q850.706 1107 852.929 1107.56 Q855.151 1108.11 857.628 1108.11 Q861.632 1108.11 863.97 1106.01 Q866.308 1103.9 866.308 1100.29 Q866.308 1096.68 863.97 1094.57 Q861.632 1092.46 857.628 1092.46 Q855.753 1092.46 853.878 1092.88 Q852.026 1093.3 850.081 1094.18 L850.081 1076.82 Z" fill="#000000" fill-rule="nonzero" fill-opacity="1" /><path clip-path="url(#clip360)" d="M877.442 1096.49 L889.919 1096.49 L889.919 1100.29 L877.442 1100.29 L877.442 1096.49 Z" fill="#000000" fill-rule="nonzero" fill-opacity="1" /><path clip-path="url(#clip360)" d="M907.303 1079.89 Q903.692 1079.89 901.864 1083.46 Q900.058 1087 900.058 1094.13 Q900.058 1101.24 901.864 1104.8 Q903.692 1108.34 907.303 1108.34 Q910.938 1108.34 912.743 1104.8 Q914.572 1101.24 914.572 1094.13 Q914.572 1087 912.743 1083.46 Q910.938 1079.89 907.303 1079.89 M907.303 1076.19 Q913.114 1076.19 916.169 1080.8 Q919.248 1085.38 919.248 1094.13 Q919.248 1102.86 916.169 1107.46 Q913.114 1112.05 907.303 1112.05 Q901.493 1112.05 898.415 1107.46 Q895.359 1102.86 895.359 1094.13 Q895.359 1085.38 898.415 1080.8 Q901.493 1076.19 907.303 1076.19 Z" fill="#000000" fill-rule="nonzero" fill-opacity="1" /><path clip-path="url(#clip360)" d="M941.632 1092.74 Q944.988 1093.46 946.863 1095.73 Q948.761 1098 948.761 1101.33 Q948.761 1106.45 945.243 1109.25 Q941.724 1112.05 935.243 1112.05 Q933.067 1112.05 930.752 1111.61 Q928.461 1111.19 926.007 1110.33 L926.007 1105.82 Q927.951 1106.95 930.266 1107.53 Q932.581 1108.11 935.104 1108.11 Q939.502 1108.11 941.794 1106.38 Q944.109 1104.64 944.109 1101.33 Q944.109 1098.27 941.956 1096.56 Q939.826 1094.82 936.007 1094.82 L931.979 1094.82 L931.979 1090.98 L936.192 1090.98 Q939.641 1090.98 941.47 1089.62 Q943.299 1088.23 943.299 1085.64 Q943.299 1082.97 941.4 1081.56 Q939.525 1080.13 936.007 1080.13 Q934.086 1080.13 931.887 1080.54 Q929.688 1080.96 927.049 1081.84 L927.049 1077.67 Q929.711 1076.93 932.025 1076.56 Q934.363 1076.19 936.424 1076.19 Q941.748 1076.19 944.849 1078.62 Q947.951 1081.03 947.951 1085.15 Q947.951 1088.02 946.308 1090.01 Q944.664 1091.98 941.632 1092.74 Z" fill="#000000" fill-rule="nonzero" fill-opacity="1" /><path clip-path="url(#clip360)" d="M954.873 1096.49 L967.349 1096.49 L967.349 1100.29 L954.873 1100.29 L954.873 1096.49 Z" fill="#000000" fill-rule="nonzero" fill-opacity="1" /><path clip-path="url(#clip360)" d="M984.734 1079.89 Q981.122 1079.89 979.294 1083.46 Q977.488 1087 977.488 1094.13 Q977.488 1101.24 979.294 1104.8 Q981.122 1108.34 984.734 1108.34 Q988.368 1108.34 990.173 1104.8 Q992.002 1101.24 992.002 1094.13 Q992.002 1087 990.173 1083.46 Q988.368 1079.89 984.734 1079.89 M984.734 1076.19 Q990.544 1076.19 993.599 1080.8 Q996.678 1085.38 996.678 1094.13 Q996.678 1102.86 993.599 1107.46 Q990.544 1112.05 984.734 1112.05 Q978.923 1112.05 975.845 1107.46 Q972.789 1102.86 972.789 1094.13 Q972.789 1085.38 975.845 1080.8 Q978.923 1076.19 984.734 1076.19 Z" fill="#000000" fill-rule="nonzero" fill-opacity="1" /><path clip-path="url(#clip360)" d="M1005.71 1107.44 L1013.34 1107.44 L1013.34 1081.07 L1005.03 1082.74 L1005.03 1078.48 L1013.3 1076.82 L1017.97 1076.82 L1017.97 1107.44 L1025.61 1107.44 L1025.61 1111.38 L1005.71 1111.38 L1005.71 1107.44 Z" fill="#000000" fill-rule="nonzero" fill-opacity="1" /><path clip-path="url(#clip360)" d="M1637.13 1107.44 L1653.45 1107.44 L1653.45 1111.38 L1631.51 1111.38 L1631.51 1107.44 Q1634.17 1104.69 1638.75 1100.06 Q1643.36 1095.4 1644.54 1094.06 Q1646.79 1091.54 1647.67 1089.8 Q1648.57 1088.04 1648.57 1086.35 Q1648.57 1083.6 1646.62 1081.86 Q1644.7 1080.13 1641.6 1080.13 Q1639.4 1080.13 1636.95 1080.89 Q1634.52 1081.65 1631.74 1083.2 L1631.74 1078.48 Q1634.56 1077.35 1637.02 1076.77 Q1639.47 1076.19 1641.51 1076.19 Q1646.88 1076.19 1650.07 1078.88 Q1653.27 1081.56 1653.27 1086.05 Q1653.27 1088.18 1652.46 1090.1 Q1651.67 1092 1649.56 1094.59 Q1648.99 1095.26 1645.88 1098.48 Q1642.78 1101.68 1637.13 1107.44 Z" fill="#000000" fill-rule="nonzero" fill-opacity="1" /><path clip-path="url(#clip360)" d="M1673.27 1079.89 Q1669.66 1079.89 1667.83 1083.46 Q1666.02 1087 1666.02 1094.13 Q1666.02 1101.24 1667.83 1104.8 Q1669.66 1108.34 1673.27 1108.34 Q1676.9 1108.34 1678.71 1104.8 Q1680.54 1101.24 1680.54 1094.13 Q1680.54 1087 1678.71 1083.46 Q1676.9 1079.89 1673.27 1079.89 M1673.27 1076.19 Q1679.08 1076.19 1682.13 1080.8 Q1685.21 1085.38 1685.21 1094.13 Q1685.21 1102.86 1682.13 1107.46 Q1679.08 1112.05 1673.27 1112.05 Q1667.46 1112.05 1664.38 1107.46 Q1661.32 1102.86 1661.32 1094.13 Q1661.32 1085.38 1664.38 1080.8 Q1667.46 1076.19 1673.27 1076.19 Z" fill="#000000" fill-rule="nonzero" fill-opacity="1" /><path clip-path="url(#clip360)" d="M1697.46 1107.44 L1713.78 1107.44 L1713.78 1111.38 L1691.83 1111.38 L1691.83 1107.44 Q1694.49 1104.69 1699.08 1100.06 Q1703.68 1095.4 1704.87 1094.06 Q1707.11 1091.54 1707.99 1089.8 Q1708.89 1088.04 1708.89 1086.35 Q1708.89 1083.6 1706.95 1081.86 Q1705.03 1080.13 1701.93 1080.13 Q1699.73 1080.13 1697.27 1080.89 Q1694.84 1081.65 1692.06 1083.2 L1692.06 1078.48 Q1694.89 1077.35 1697.34 1076.77 Q1699.8 1076.19 1701.83 1076.19 Q1707.2 1076.19 1710.4 1078.88 Q1713.59 1081.56 1713.59 1086.05 Q1713.59 1088.18 1712.78 1090.1 Q1711.99 1092 1709.89 1094.59 Q1709.31 1095.26 1706.21 1098.48 Q1703.11 1101.68 1697.46 1107.44 Z" fill="#000000" fill-rule="nonzero" fill-opacity="1" /><path clip-path="url(#clip360)" d="M1723.64 1076.82 L1741.99 1076.82 L1741.99 1080.75 L1727.92 1080.75 L1727.92 1089.22 Q1728.94 1088.88 1729.96 1088.71 Q1730.98 1088.53 1731.99 1088.53 Q1737.78 1088.53 1741.16 1091.7 Q1744.54 1094.87 1744.54 1100.29 Q1744.54 1105.87 1741.07 1108.97 Q1737.6 1112.05 1731.28 1112.05 Q1729.1 1112.05 1726.83 1111.68 Q1724.59 1111.31 1722.18 1110.57 L1722.18 1105.87 Q1724.26 1107 1726.49 1107.56 Q1728.71 1108.11 1731.18 1108.11 Q1735.19 1108.11 1737.53 1106.01 Q1739.86 1103.9 1739.86 1100.29 Q1739.86 1096.68 1737.53 1094.57 Q1735.19 1092.46 1731.18 1092.46 Q1729.31 1092.46 1727.43 1092.88 Q1725.58 1093.3 1723.64 1094.18 L1723.64 1076.82 Z" fill="#000000" fill-rule="nonzero" fill-opacity="1" /><path clip-path="url(#clip360)" d="M1751 1096.49 L1763.48 1096.49 L1763.48 1100.29 L1751 1100.29 L1751 1096.49 Z" fill="#000000" fill-rule="nonzero" fill-opacity="1" /><path clip-path="url(#clip360)" d="M1780.86 1079.89 Q1777.25 1079.89 1775.42 1083.46 Q1773.61 1087 1773.61 1094.13 Q1773.61 1101.24 1775.42 1104.8 Q1777.25 1108.34 1780.86 1108.34 Q1784.49 1108.34 1786.3 1104.8 Q1788.13 1101.24 1788.13 1094.13 Q1788.13 1087 1786.3 1083.46 Q1784.49 1079.89 1780.86 1079.89 M1780.86 1076.19 Q1786.67 1076.19 1789.73 1080.8 Q1792.8 1085.38 1792.8 1094.13 Q1792.8 1102.86 1789.73 1107.46 Q1786.67 1112.05 1780.86 1112.05 Q1775.05 1112.05 1771.97 1107.46 Q1768.92 1102.86 1768.92 1094.13 Q1768.92 1085.38 1771.97 1080.8 Q1775.05 1076.19 1780.86 1076.19 Z" fill="#000000" fill-rule="nonzero" fill-opacity="1" /><path clip-path="url(#clip360)" d="M1813.87 1080.89 L1802.06 1099.34 L1813.87 1099.34 L1813.87 1080.89 M1812.64 1076.82 L1818.52 1076.82 L1818.52 1099.34 L1823.45 1099.34 L1823.45 1103.23 L1818.52 1103.23 L1818.52 1111.38 L1813.87 1111.38 L1813.87 1103.23 L1798.27 1103.23 L1798.27 1098.71 L1812.64 1076.82 Z" fill="#000000" fill-rule="nonzero" fill-opacity="1" /><path clip-path="url(#clip360)" d="M1828.43 1096.49 L1840.91 1096.49 L1840.91 1100.29 L1828.43 1100.29 L1828.43 1096.49 Z" fill="#000000" fill-rule="nonzero" fill-opacity="1" /><path clip-path="url(#clip360)" d="M1858.29 1079.89 Q1854.68 1079.89 1852.85 1083.46 Q1851.04 1087 1851.04 1094.13 Q1851.04 1101.24 1852.85 1104.8 Q1854.68 1108.34 1858.29 1108.34 Q1861.92 1108.34 1863.73 1104.8 Q1865.56 1101.24 1865.56 1094.13 Q1865.56 1087 1863.73 1083.46 Q1861.92 1079.89 1858.29 1079.89 M1858.29 1076.19 Q1864.1 1076.19 1867.16 1080.8 Q1870.23 1085.38 1870.23 1094.13 Q1870.23 1102.86 1867.16 1107.46 Q1864.1 1112.05 1858.29 1112.05 Q1852.48 1112.05 1849.4 1107.46 Q1846.35 1102.86 1846.35 1094.13 Q1846.35 1085.38 1849.4 1080.8 Q1852.48 1076.19 1858.29 1076.19 Z" fill="#000000" fill-rule="nonzero" fill-opacity="1" /><path clip-path="url(#clip360)" d="M1879.26 1107.44 L1886.9 1107.44 L1886.9 1081.07 L1878.59 1082.74 L1878.59 1078.48 L1886.85 1076.82 L1891.53 1076.82 L1891.53 1107.44 L1899.17 1107.44 L1899.17 1111.38 L1879.26 1111.38 L1879.26 1107.44 Z" fill="#000000" fill-rule="nonzero" fill-opacity="1" /><path clip-path="url(#clip360)" d="M2482.51 1107.44 L2498.83 1107.44 L2498.83 1111.38 L2476.89 1111.38 L2476.89 1107.44 Q2479.55 1104.69 2484.13 1100.06 Q2488.74 1095.4 2489.92 1094.06 Q2492.16 1091.54 2493.04 1089.8 Q2493.95 1088.04 2493.95 1086.35 Q2493.95 1083.6 2492 1081.86 Q2490.08 1080.13 2486.98 1080.13 Q2484.78 1080.13 2482.33 1080.89 Q2479.9 1081.65 2477.12 1083.2 L2477.12 1078.48 Q2479.94 1077.35 2482.4 1076.77 Q2484.85 1076.19 2486.89 1076.19 Q2492.26 1076.19 2495.45 1078.88 Q2498.65 1081.56 2498.65 1086.05 Q2498.65 1088.18 2497.84 1090.1 Q2497.05 1092 2494.94 1094.59 Q2494.36 1095.26 2491.26 1098.48 Q2488.16 1101.68 2482.51 1107.44 Z" fill="#000000" fill-rule="nonzero" fill-opacity="1" /><path clip-path="url(#clip360)" d="M2518.65 1079.89 Q2515.03 1079.89 2513.21 1083.46 Q2511.4 1087 2511.4 1094.13 Q2511.4 1101.24 2513.21 1104.8 Q2515.03 1108.34 2518.65 1108.34 Q2522.28 1108.34 2524.09 1104.8 Q2525.91 1101.24 2525.91 1094.13 Q2525.91 1087 2524.09 1083.46 Q2522.28 1079.89 2518.65 1079.89 M2518.65 1076.19 Q2524.46 1076.19 2527.51 1080.8 Q2530.59 1085.38 2530.59 1094.13 Q2530.59 1102.86 2527.51 1107.46 Q2524.46 1112.05 2518.65 1112.05 Q2512.84 1112.05 2509.76 1107.46 Q2506.7 1102.86 2506.7 1094.13 Q2506.7 1085.38 2509.76 1080.8 Q2512.84 1076.19 2518.65 1076.19 Z" fill="#000000" fill-rule="nonzero" fill-opacity="1" /><path clip-path="url(#clip360)" d="M2542.84 1107.44 L2559.15 1107.44 L2559.15 1111.38 L2537.21 1111.38 L2537.21 1107.44 Q2539.87 1104.69 2544.46 1100.06 Q2549.06 1095.4 2550.24 1094.06 Q2552.49 1091.54 2553.37 1089.8 Q2554.27 1088.04 2554.27 1086.35 Q2554.27 1083.6 2552.33 1081.86 Q2550.4 1080.13 2547.3 1080.13 Q2545.1 1080.13 2542.65 1080.89 Q2540.22 1081.65 2537.44 1083.2 L2537.44 1078.48 Q2540.27 1077.35 2542.72 1076.77 Q2545.17 1076.19 2547.21 1076.19 Q2552.58 1076.19 2555.77 1078.88 Q2558.97 1081.56 2558.97 1086.05 Q2558.97 1088.18 2558.16 1090.1 Q2557.37 1092 2555.27 1094.59 Q2554.69 1095.26 2551.58 1098.48 Q2548.48 1101.68 2542.84 1107.44 Z" fill="#000000" fill-rule="nonzero" fill-opacity="1" /><path clip-path="url(#clip360)" d="M2569.02 1076.82 L2587.37 1076.82 L2587.37 1080.75 L2573.3 1080.75 L2573.3 1089.22 Q2574.32 1088.88 2575.33 1088.71 Q2576.35 1088.53 2577.37 1088.53 Q2583.16 1088.53 2586.54 1091.7 Q2589.92 1094.87 2589.92 1100.29 Q2589.92 1105.87 2586.45 1108.97 Q2582.97 1112.05 2576.65 1112.05 Q2574.48 1112.05 2572.21 1111.68 Q2569.96 1111.31 2567.56 1110.57 L2567.56 1105.87 Q2569.64 1107 2571.86 1107.56 Q2574.08 1108.11 2576.56 1108.11 Q2580.57 1108.11 2582.9 1106.01 Q2585.24 1103.9 2585.24 1100.29 Q2585.24 1096.68 2582.9 1094.57 Q2580.57 1092.46 2576.56 1092.46 Q2574.69 1092.46 2572.81 1092.88 Q2570.96 1093.3 2569.02 1094.18 L2569.02 1076.82 Z" fill="#000000" fill-rule="nonzero" fill-opacity="1" /><path clip-path="url(#clip360)" d="M2596.38 1096.49 L2608.85 1096.49 L2608.85 1100.29 L2596.38 1100.29 L2596.38 1096.49 Z" fill="#000000" fill-rule="nonzero" fill-opacity="1" /><path clip-path="url(#clip360)" d="M2626.24 1079.89 Q2622.63 1079.89 2620.8 1083.46 Q2618.99 1087 2618.99 1094.13 Q2618.99 1101.24 2620.8 1104.8 Q2622.63 1108.34 2626.24 1108.34 Q2629.87 1108.34 2631.68 1104.8 Q2633.51 1101.24 2633.51 1094.13 Q2633.51 1087 2631.68 1083.46 Q2629.87 1079.89 2626.24 1079.89 M2626.24 1076.19 Q2632.05 1076.19 2635.1 1080.8 Q2638.18 1085.38 2638.18 1094.13 Q2638.18 1102.86 2635.1 1107.46 Q2632.05 1112.05 2626.24 1112.05 Q2620.43 1112.05 2617.35 1107.46 Q2614.29 1102.86 2614.29 1094.13 Q2614.29 1085.38 2617.35 1080.8 Q2620.43 1076.19 2626.24 1076.19 Z" fill="#000000" fill-rule="nonzero" fill-opacity="1" /><path clip-path="url(#clip360)" d="M2646.45 1076.82 L2664.8 1076.82 L2664.8 1080.75 L2650.73 1080.75 L2650.73 1089.22 Q2651.75 1088.88 2652.76 1088.71 Q2653.78 1088.53 2654.8 1088.53 Q2660.59 1088.53 2663.97 1091.7 Q2667.35 1094.87 2667.35 1100.29 Q2667.35 1105.87 2663.88 1108.97 Q2660.4 1112.05 2654.08 1112.05 Q2651.91 1112.05 2649.64 1111.68 Q2647.39 1111.31 2644.99 1110.57 L2644.99 1105.87 Q2647.07 1107 2649.29 1107.56 Q2651.51 1108.11 2653.99 1108.11 Q2658 1108.11 2660.33 1106.01 Q2662.67 1103.9 2662.67 1100.29 Q2662.67 1096.68 2660.33 1094.57 Q2658 1092.46 2653.99 1092.46 Q2652.12 1092.46 2650.24 1092.88 Q2648.39 1093.3 2646.45 1094.18 L2646.45 1076.82 Z" fill="#000000" fill-rule="nonzero" fill-opacity="1" /><path clip-path="url(#clip360)" d="M2673.81 1096.49 L2686.28 1096.49 L2686.28 1100.29 L2673.81 1100.29 L2673.81 1096.49 Z" fill="#000000" fill-rule="nonzero" fill-opacity="1" /><path clip-path="url(#clip360)" d="M2703.67 1079.89 Q2700.06 1079.89 2698.23 1083.46 Q2696.42 1087 2696.42 1094.13 Q2696.42 1101.24 2698.23 1104.8 Q2700.06 1108.34 2703.67 1108.34 Q2707.3 1108.34 2709.11 1104.8 Q2710.94 1101.24 2710.94 1094.13 Q2710.94 1087 2709.11 1083.46 Q2707.3 1079.89 2703.67 1079.89 M2703.67 1076.19 Q2709.48 1076.19 2712.53 1080.8 Q2715.61 1085.38 2715.61 1094.13 Q2715.61 1102.86 2712.53 1107.46 Q2709.48 1112.05 2703.67 1112.05 Q2697.86 1112.05 2694.78 1107.46 Q2691.72 1102.86 2691.72 1094.13 Q2691.72 1085.38 2694.78 1080.8 Q2697.86 1076.19 2703.67 1076.19 Z" fill="#000000" fill-rule="nonzero" fill-opacity="1" /><path clip-path="url(#clip360)" d="M2724.64 1107.44 L2732.28 1107.44 L2732.28 1081.07 L2723.97 1082.74 L2723.97 1078.48 L2732.23 1076.82 L2736.91 1076.82 L2736.91 1107.44 L2744.55 1107.44 L2744.55 1111.38 L2724.64 1111.38 L2724.64 1107.44 Z" fill="#000000" fill-rule="nonzero" fill-opacity="1" /><polyline clip-path="url(#clip362)" style="stroke:#000000; stroke-linecap:round; stroke-linejoin:round; stroke-width:2; stroke-opacity:0.1; fill:none" points="271.839,1042.58 3089.76,1042.58 "/>
<polyline clip-path="url(#clip362)" style="stroke:#000000; stroke-linecap:round; stroke-linejoin:round; stroke-width:2; stroke-opacity:0.1; fill:none" points="271.839,325.959 3089.76,325.959 "/>
<polyline clip-path="url(#clip360)" style="stroke:#000000; stroke-linecap:round; stroke-linejoin:round; stroke-width:4; stroke-opacity:1; fill:none" points="271.839,1042.58 271.839,110.236 "/>
<polyline clip-path="url(#clip360)" style="stroke:#000000; stroke-linecap:round; stroke-linejoin:round; stroke-width:4; stroke-opacity:1; fill:none" points="271.839,1042.58 290.737,1042.58 "/>
<polyline clip-path="url(#clip360)" style="stroke:#000000; stroke-linecap:round; stroke-linejoin:round; stroke-width:4; stroke-opacity:1; fill:none" points="271.839,325.959 290.737,325.959 "/>
<path clip-path="url(#clip360)" d="M153.134 1062.37 L160.772 1062.37 L160.772 1036 L152.462 1037.67 L152.462 1033.41 L160.726 1031.74 L165.402 1031.74 L165.402 1062.37 L173.041 1062.37 L173.041 1066.3 L153.134 1066.3 L153.134 1062.37 Z" fill="#000000" fill-rule="nonzero" fill-opacity="1" /><path clip-path="url(#clip360)" d="M192.485 1034.82 Q188.874 1034.82 187.045 1038.39 Q185.24 1041.93 185.24 1049.06 Q185.24 1056.16 187.045 1059.73 Q188.874 1063.27 192.485 1063.27 Q196.119 1063.27 197.925 1059.73 Q199.754 1056.16 199.754 1049.06 Q199.754 1041.93 197.925 1038.39 Q196.119 1034.82 192.485 1034.82 M192.485 1031.12 Q198.295 1031.12 201.351 1035.72 Q204.43 1040.31 204.43 1049.06 Q204.43 1057.78 201.351 1062.39 Q198.295 1066.97 192.485 1066.97 Q186.675 1066.97 183.596 1062.39 Q180.541 1057.78 180.541 1049.06 Q180.541 1040.31 183.596 1035.72 Q186.675 1031.12 192.485 1031.12 Z" fill="#000000" fill-rule="nonzero" fill-opacity="1" /><path clip-path="url(#clip360)" d="M214.134 1013.31 Q211.2 1013.31 209.715 1016.21 Q208.248 1019.09 208.248 1024.88 Q208.248 1030.66 209.715 1033.55 Q211.2 1036.43 214.134 1036.43 Q217.087 1036.43 218.554 1033.55 Q220.04 1030.66 220.04 1024.88 Q220.04 1019.09 218.554 1016.21 Q217.087 1013.31 214.134 1013.31 M214.134 1010.31 Q218.855 1010.31 221.338 1014.05 Q223.839 1017.77 223.839 1024.88 Q223.839 1031.97 221.338 1035.71 Q218.855 1039.44 214.134 1039.44 Q209.414 1039.44 206.912 1035.71 Q204.43 1031.97 204.43 1024.88 Q204.43 1017.77 206.912 1014.05 Q209.414 1010.31 214.134 1010.31 Z" fill="#000000" fill-rule="nonzero" fill-opacity="1" /><path clip-path="url(#clip360)" d="M155.823 345.752 L163.462 345.752 L163.462 319.386 L155.152 321.053 L155.152 316.794 L163.416 315.127 L168.092 315.127 L168.092 345.752 L175.73 345.752 L175.73 349.687 L155.823 349.687 L155.823 345.752 Z" fill="#000000" fill-rule="nonzero" fill-opacity="1" /><path clip-path="url(#clip360)" d="M195.175 318.206 Q191.564 318.206 189.735 321.77 Q187.929 325.312 187.929 332.442 Q187.929 339.548 189.735 343.113 Q191.564 346.654 195.175 346.654 Q198.809 346.654 200.615 343.113 Q202.443 339.548 202.443 332.442 Q202.443 325.312 200.615 321.77 Q198.809 318.206 195.175 318.206 M195.175 314.502 Q200.985 314.502 204.04 319.108 Q207.119 323.692 207.119 332.442 Q207.119 341.168 204.04 345.775 Q200.985 350.358 195.175 350.358 Q189.365 350.358 186.286 345.775 Q183.23 341.168 183.23 332.442 Q183.23 323.692 186.286 319.108 Q189.365 314.502 195.175 314.502 Z" fill="#000000" fill-rule="nonzero" fill-opacity="1" /><path clip-path="url(#clip360)" d="M207.665 319.079 L213.871 319.079 L213.871 297.657 L207.119 299.011 L207.119 295.551 L213.833 294.196 L217.633 294.196 L217.633 319.079 L223.839 319.079 L223.839 322.276 L207.665 322.276 L207.665 319.079 Z" fill="#000000" fill-rule="nonzero" fill-opacity="1" /><path clip-path="url(#clip360)" d="M83.4268 893.514 L70.6636 893.514 L70.6636 904.017 L65.38 904.017 L65.38 887.148 L85.7821 887.148 Q88.4239 890.872 89.7925 895.36 Q91.1293 899.848 91.1293 904.94 Q91.1293 916.08 84.6363 922.382 Q78.1114 928.652 66.494 928.652 Q54.8448 928.652 48.3518 922.382 Q41.8269 916.08 41.8269 904.94 Q41.8269 900.293 42.9727 896.124 Q44.1186 891.922 46.3466 888.389 L53.1897 888.389 Q50.166 891.954 48.6382 895.964 Q47.1104 899.975 47.1104 904.399 Q47.1104 913.12 51.9802 917.512 Q56.85 921.873 66.494 921.873 Q76.1062 921.873 80.976 917.512 Q85.8458 913.12 85.8458 904.399 Q85.8458 900.993 85.2729 898.32 Q84.6681 895.646 83.4268 893.514 Z" fill="#000000" fill-rule="nonzero" fill-opacity="1" /><path clip-path="url(#clip360)" d="M70.9182 845.166 L73.7828 845.166 L73.7828 872.093 Q79.8302 871.711 83.013 868.465 Q86.1641 865.186 86.1641 859.362 Q86.1641 855.988 85.3365 852.837 Q84.509 849.654 82.8539 846.535 L88.3921 846.535 Q89.7289 849.686 90.4291 852.996 Q91.1293 856.306 91.1293 859.712 Q91.1293 868.242 86.1641 873.239 Q81.1988 878.204 72.7324 878.204 Q63.9796 878.204 58.8552 873.494 Q53.699 868.751 53.699 860.73 Q53.699 853.537 58.3459 849.367 Q62.9611 845.166 70.9182 845.166 M69.1995 851.023 Q64.3933 851.086 61.5288 853.728 Q58.6642 856.338 58.6642 860.667 Q58.6642 865.568 61.4333 868.528 Q64.2024 871.456 69.2313 871.902 L69.1995 851.023 Z" fill="#000000" fill-rule="nonzero" fill-opacity="1" /><path clip-path="url(#clip360)" d="M68.6902 805.922 L90.2063 805.922 L90.2063 811.778 L68.8812 811.778 Q63.8204 811.778 61.306 813.751 Q58.7915 815.725 58.7915 819.671 Q58.7915 824.414 61.8152 827.151 Q64.8389 829.888 70.0588 829.888 L90.2063 829.888 L90.2063 835.777 L54.5583 835.777 L54.5583 829.888 L60.0965 829.888 Q56.8818 827.788 55.2904 824.955 Q53.699 822.09 53.699 818.366 Q53.699 812.224 57.5184 809.073 Q61.306 805.922 68.6902 805.922 Z" fill="#000000" fill-rule="nonzero" fill-opacity="1" /><path clip-path="url(#clip360)" d="M58.6642 780.427 Q58.6642 785.138 62.3563 787.875 Q66.0166 790.612 72.4141 790.612 Q78.8117 790.612 82.5038 787.907 Q86.1641 785.169 86.1641 780.427 Q86.1641 775.748 82.4719 773.011 Q78.7798 770.274 72.4141 770.274 Q66.0803 770.274 62.3881 773.011 Q58.6642 775.748 58.6642 780.427 M53.699 780.427 Q53.699 772.788 58.6642 768.428 Q63.6295 764.067 72.4141 764.067 Q81.167 764.067 86.1641 768.428 Q91.1293 772.788 91.1293 780.427 Q91.1293 788.098 86.1641 792.458 Q81.167 796.787 72.4141 796.787 Q63.6295 796.787 58.6642 792.458 Q53.699 788.098 53.699 780.427 Z" fill="#000000" fill-rule="nonzero" fill-opacity="1" /><path clip-path="url(#clip360)" d="M61.4015 726.605 Q57.4547 724.409 55.5768 721.353 Q53.699 718.298 53.699 714.16 Q53.699 708.59 57.6139 705.566 Q61.4969 702.542 68.6902 702.542 L90.2063 702.542 L90.2063 708.431 L68.8812 708.431 Q63.7568 708.431 61.2741 710.245 Q58.7915 712.059 58.7915 715.783 Q58.7915 720.335 61.8152 722.976 Q64.8389 725.618 70.0588 725.618 L90.2063 725.618 L90.2063 731.506 L68.8812 731.506 Q63.7249 731.506 61.2741 733.321 Q58.7915 735.135 58.7915 738.922 Q58.7915 743.41 61.8471 746.052 Q64.8708 748.694 70.0588 748.694 L90.2063 748.694 L90.2063 754.582 L54.5583 754.582 L54.5583 748.694 L60.0965 748.694 Q56.8182 746.689 55.2586 743.888 Q53.699 741.087 53.699 737.236 Q53.699 733.352 55.6723 730.647 Q57.6457 727.91 61.4015 726.605 Z" fill="#000000" fill-rule="nonzero" fill-opacity="1" /><path clip-path="url(#clip360)" d="M70.9182 660.37 L73.7828 660.37 L73.7828 687.297 Q79.8302 686.915 83.013 683.668 Q86.1641 680.39 86.1641 674.565 Q86.1641 671.191 85.3365 668.04 Q84.509 664.857 82.8539 661.738 L88.3921 661.738 Q89.7289 664.889 90.4291 668.199 Q91.1293 671.51 91.1293 674.915 Q91.1293 683.445 86.1641 688.442 Q81.1988 693.408 72.7324 693.408 Q63.9796 693.408 58.8552 688.697 Q53.699 683.955 53.699 675.934 Q53.699 668.741 58.3459 664.571 Q62.9611 660.37 70.9182 660.37 M69.1995 666.226 Q64.3933 666.29 61.5288 668.932 Q58.6642 671.541 58.6642 675.87 Q58.6642 680.772 61.4333 683.732 Q64.2024 686.66 69.2313 687.106 L69.1995 666.226 Z" fill="#000000" fill-rule="nonzero" fill-opacity="1" /><path clip-path="url(#clip360)" d="M55.6087 628.032 L61.1468 628.032 Q59.8737 630.514 59.2371 633.188 Q58.6006 635.862 58.6006 638.726 Q58.6006 643.087 59.9373 645.283 Q61.2741 647.447 63.9477 647.447 Q65.9848 647.447 67.1624 645.888 Q68.3083 644.328 69.3586 639.617 L69.8042 637.612 Q71.141 631.374 73.5918 628.764 Q76.0108 626.122 80.3713 626.122 Q85.3365 626.122 88.2329 630.069 Q91.1293 633.984 91.1293 640.859 Q91.1293 643.723 90.5564 646.843 Q90.0153 649.93 88.9013 653.367 L82.8539 653.367 Q84.5408 650.121 85.4002 646.97 Q86.2277 643.819 86.2277 640.731 Q86.2277 636.594 84.8273 634.366 Q83.395 632.138 80.8169 632.138 Q78.4297 632.138 77.1566 633.761 Q75.8834 635.352 74.7058 640.795 L74.2284 642.832 Q73.0825 648.275 70.7272 650.694 Q68.3401 653.113 64.2024 653.113 Q59.1735 653.113 56.4362 649.548 Q53.699 645.983 53.699 639.426 Q53.699 636.18 54.1764 633.315 Q54.6538 630.451 55.6087 628.032 Z" fill="#000000" fill-rule="nonzero" fill-opacity="1" /><path clip-path="url(#clip360)" d="M42.6863 606.388 L42.6863 600.978 L96.2537 617.528 L96.2537 622.939 L42.6863 606.388 Z" fill="#000000" fill-rule="nonzero" fill-opacity="1" /><path clip-path="url(#clip360)" d="M47.9698 588.151 L84.9227 588.151 L84.9227 580.385 Q84.9227 570.55 80.4668 565.998 Q76.0108 561.415 66.3985 561.415 Q56.85 561.415 52.4258 565.998 Q47.9698 570.55 47.9698 580.385 L47.9698 588.151 M42.6863 594.58 L42.6863 581.371 Q42.6863 567.558 48.4472 561.096 Q54.1764 554.635 66.3985 554.635 Q78.6844 554.635 84.4453 561.128 Q90.2063 567.621 90.2063 581.371 L90.2063 594.58 L42.6863 594.58 Z" fill="#000000" fill-rule="nonzero" fill-opacity="1" /><path clip-path="url(#clip360)" d="M72.2868 528.44 Q72.2868 535.538 73.9101 538.275 Q75.5333 541.013 79.4482 541.013 Q82.5674 541.013 84.4135 538.976 Q86.2277 536.907 86.2277 533.374 Q86.2277 528.504 82.7902 525.576 Q79.3209 522.616 73.5918 522.616 L72.2868 522.616 L72.2868 528.44 M69.8679 516.759 L90.2063 516.759 L90.2063 522.616 L84.7954 522.616 Q88.0419 524.621 89.6015 527.613 Q91.1293 530.605 91.1293 534.933 Q91.1293 540.408 88.0738 543.654 Q84.9864 546.869 79.8302 546.869 Q73.8146 546.869 70.759 542.859 Q67.7035 538.816 67.7035 530.828 L67.7035 522.616 L67.1306 522.616 Q63.0884 522.616 60.8922 525.289 Q58.6642 527.931 58.6642 532.737 Q58.6642 535.793 59.3963 538.689 Q60.1283 541.586 61.5924 544.259 L56.1816 544.259 Q54.9403 541.044 54.3355 538.021 Q53.699 534.997 53.699 532.132 Q53.699 524.398 57.7094 520.579 Q61.7197 516.759 69.8679 516.759 Z" fill="#000000" fill-rule="nonzero" fill-opacity="1" /><path clip-path="url(#clip360)" d="M93.5165 489.864 Q99.8822 492.347 101.824 494.702 Q103.765 497.057 103.765 501.004 L103.765 505.683 L98.8636 505.683 L98.8636 502.246 Q98.8636 499.827 97.7178 498.49 Q96.572 497.153 92.307 495.53 L89.6334 494.479 L54.5583 508.898 L54.5583 502.691 L82.4401 491.551 L54.5583 480.411 L54.5583 474.205 L93.5165 489.864 Z" fill="#000000" fill-rule="nonzero" fill-opacity="1" /><path clip-path="url(#clip360)" d="M40.7447 431.332 Q48.0653 435.597 55.2267 437.665 Q62.3881 439.734 69.7405 439.734 Q77.0929 439.734 84.318 437.665 Q91.5113 435.565 98.8 431.332 L98.8 436.424 Q91.3203 441.198 84.0952 443.586 Q76.8701 445.941 69.7405 445.941 Q62.6428 445.941 55.4495 443.586 Q48.2563 441.23 40.7447 436.424 L40.7447 431.332 Z" fill="#000000" fill-rule="nonzero" fill-opacity="1" /><path clip-path="url(#clip360)" d="M44.2459 391.228 L50.5161 391.228 Q48.7655 394.888 47.9062 398.134 Q47.0468 401.381 47.0468 404.405 Q47.0468 409.656 49.0838 412.521 Q51.1208 415.354 54.8766 415.354 Q58.0276 415.354 59.6509 413.476 Q61.2423 411.566 62.229 406.282 L63.0247 402.399 Q64.3933 395.206 67.8627 391.8 Q71.3001 388.363 77.0929 388.363 Q83.9997 388.363 87.5645 393.01 Q91.1293 397.625 91.1293 406.569 Q91.1293 409.943 90.3654 413.762 Q89.6015 417.55 88.1056 421.624 L81.4853 421.624 Q83.6814 417.709 84.7954 413.953 Q85.9094 410.197 85.9094 406.569 Q85.9094 401.063 83.7451 398.071 Q81.5808 395.079 77.5704 395.079 Q74.0692 395.079 72.0958 397.243 Q70.1225 399.376 69.1358 404.277 L68.3719 408.192 Q66.9396 415.385 63.8841 418.6 Q60.8285 421.815 55.3859 421.815 Q49.0838 421.815 45.4554 417.391 Q41.8269 412.935 41.8269 405.137 Q41.8269 401.795 42.4317 398.325 Q43.0364 394.856 44.2459 391.228 Z" fill="#000000" fill-rule="nonzero" fill-opacity="1" /><path clip-path="url(#clip360)" d="M84.8591 372.926 L103.765 372.926 L103.765 378.814 L54.5583 378.814 L54.5583 372.926 L59.9692 372.926 Q56.7863 371.08 55.2586 368.279 Q53.699 365.446 53.699 361.532 Q53.699 355.039 58.8552 350.996 Q64.0114 346.922 72.4141 346.922 Q80.8169 346.922 85.9731 350.996 Q91.1293 355.039 91.1293 361.532 Q91.1293 365.446 89.6015 368.279 Q88.0419 371.08 84.8591 372.926 M72.4141 353.002 Q65.9529 353.002 62.2927 355.675 Q58.6006 358.317 58.6006 362.964 Q58.6006 367.611 62.2927 370.284 Q65.9529 372.926 72.4141 372.926 Q78.8753 372.926 82.5674 370.284 Q86.2277 367.611 86.2277 362.964 Q86.2277 358.317 82.5674 355.675 Q78.8753 353.002 72.4141 353.002 Z" fill="#000000" fill-rule="nonzero" fill-opacity="1" /><path clip-path="url(#clip360)" d="M72.2868 321.014 Q72.2868 328.112 73.9101 330.849 Q75.5333 333.586 79.4482 333.586 Q82.5674 333.586 84.4135 331.549 Q86.2277 329.48 86.2277 325.947 Q86.2277 321.077 82.7902 318.149 Q79.3209 315.189 73.5918 315.189 L72.2868 315.189 L72.2868 321.014 M69.8679 309.333 L90.2063 309.333 L90.2063 315.189 L84.7954 315.189 Q88.0419 317.194 89.6015 320.186 Q91.1293 323.178 91.1293 327.507 Q91.1293 332.981 88.0738 336.228 Q84.9864 339.443 79.8302 339.443 Q73.8146 339.443 70.759 335.432 Q67.7035 331.39 67.7035 323.401 L67.7035 315.189 L67.1306 315.189 Q63.0884 315.189 60.8922 317.863 Q58.6642 320.505 58.6642 325.311 Q58.6642 328.366 59.3963 331.263 Q60.1283 334.159 61.5924 336.833 L56.1816 336.833 Q54.9403 333.618 54.3355 330.594 Q53.699 327.571 53.699 324.706 Q53.699 316.972 57.7094 313.152 Q61.7197 309.333 69.8679 309.333 Z" fill="#000000" fill-rule="nonzero" fill-opacity="1" /><path clip-path="url(#clip360)" d="M54.5583 297.27 L54.5583 291.413 L90.2063 291.413 L90.2063 297.27 L54.5583 297.27 M40.6811 297.27 L40.6811 291.413 L48.0971 291.413 L48.0971 297.27 L40.6811 297.27 Z" fill="#000000" fill-rule="nonzero" fill-opacity="1" /><path clip-path="url(#clip360)" d="M68.6902 249.527 L90.2063 249.527 L90.2063 255.383 L68.8812 255.383 Q63.8204 255.383 61.306 257.357 Q58.7915 259.33 58.7915 263.277 Q58.7915 268.019 61.8152 270.757 Q64.8389 273.494 70.0588 273.494 L90.2063 273.494 L90.2063 279.382 L54.5583 279.382 L54.5583 273.494 L60.0965 273.494 Q56.8818 271.393 55.2904 268.56 Q53.699 265.696 53.699 261.972 Q53.699 255.829 57.5184 252.678 Q61.306 249.527 68.6902 249.527 Z" fill="#000000" fill-rule="nonzero" fill-opacity="1" /><path clip-path="url(#clip360)" d="M40.7447 238.769 L40.7447 233.676 Q48.2563 228.902 55.4495 226.547 Q62.6428 224.16 69.7405 224.16 Q76.8701 224.16 84.0952 226.547 Q91.3203 228.902 98.8 233.676 L98.8 238.769 Q91.5113 234.536 84.318 232.467 Q77.0929 230.366 69.7405 230.366 Q62.3881 230.366 55.2267 232.467 Q48.0653 234.536 40.7447 238.769 Z" fill="#000000" fill-rule="nonzero" fill-opacity="1" /><path clip-path="url(#clip362)" d="M288.747 700.663 L288.747 1042.58 L311.29 1042.58 L311.29 700.663 L288.747 700.663 L288.747 700.663  Z" fill="#009af9" fill-rule="evenodd" fill-opacity="0.5"/>
<polyline clip-path="url(#clip362)" style="stroke:#000000; stroke-linecap:round; stroke-linejoin:round; stroke-width:4; stroke-opacity:0.5; fill:none" points="288.747,700.663 288.747,1042.58 311.29,1042.58 311.29,700.663 288.747,700.663 "/>
<path clip-path="url(#clip362)" d="M316.926 395.407 L316.926 1042.58 L339.469 1042.58 L339.469 395.407 L316.926 395.407 L316.926 395.407  Z" fill="#009af9" fill-rule="evenodd" fill-opacity="0.5"/>
<polyline clip-path="url(#clip362)" style="stroke:#000000; stroke-linecap:round; stroke-linejoin:round; stroke-width:4; stroke-opacity:0.5; fill:none" points="316.926,395.407 316.926,1042.58 339.469,1042.58 339.469,395.407 316.926,395.407 "/>
<path clip-path="url(#clip362)" d="M345.105 325.959 L345.105 1042.58 L367.649 1042.58 L367.649 325.959 L345.105 325.959 L345.105 325.959  Z" fill="#009af9" fill-rule="evenodd" fill-opacity="0.5"/>
<polyline clip-path="url(#clip362)" style="stroke:#000000; stroke-linecap:round; stroke-linejoin:round; stroke-width:4; stroke-opacity:0.5; fill:none" points="345.105,325.959 345.105,1042.58 367.649,1042.58 367.649,325.959 345.105,325.959 "/>
<path clip-path="url(#clip362)" d="M373.285 143.027 L373.285 1042.58 L395.828 1042.58 L395.828 143.027 L373.285 143.027 L373.285 143.027  Z" fill="#009af9" fill-rule="evenodd" fill-opacity="0.5"/>
<polyline clip-path="url(#clip362)" style="stroke:#000000; stroke-linecap:round; stroke-linejoin:round; stroke-width:4; stroke-opacity:0.5; fill:none" points="373.285,143.027 373.285,1042.58 395.828,1042.58 395.828,143.027 373.285,143.027 "/>
<path clip-path="url(#clip362)" d="M401.464 269.217 L401.464 1042.58 L424.007 1042.58 L424.007 269.217 L401.464 269.217 L401.464 269.217  Z" fill="#009af9" fill-rule="evenodd" fill-opacity="0.5"/>
<polyline clip-path="url(#clip362)" style="stroke:#000000; stroke-linecap:round; stroke-linejoin:round; stroke-width:4; stroke-opacity:0.5; fill:none" points="401.464,269.217 401.464,1042.58 424.007,1042.58 424.007,269.217 401.464,269.217 "/>
<path clip-path="url(#clip362)" d="M429.643 325.959 L429.643 1042.58 L452.186 1042.58 L452.186 325.959 L429.643 325.959 L429.643 325.959  Z" fill="#009af9" fill-rule="evenodd" fill-opacity="0.5"/>
<polyline clip-path="url(#clip362)" style="stroke:#000000; stroke-linecap:round; stroke-linejoin:round; stroke-width:4; stroke-opacity:0.5; fill:none" points="429.643,325.959 429.643,1042.58 452.186,1042.58 452.186,325.959 429.643,325.959 "/>
<path clip-path="url(#clip362)" d="M457.822 358.75 L457.822 1042.58 L480.366 1042.58 L480.366 358.75 L457.822 358.75 L457.822 358.75  Z" fill="#009af9" fill-rule="evenodd" fill-opacity="0.5"/>
<polyline clip-path="url(#clip362)" style="stroke:#000000; stroke-linecap:round; stroke-linejoin:round; stroke-width:4; stroke-opacity:0.5; fill:none" points="457.822,358.75 457.822,1042.58 480.366,1042.58 480.366,358.75 457.822,358.75 "/>
<path clip-path="url(#clip362)" d="M486.001 325.959 L486.001 1042.58 L508.545 1042.58 L508.545 325.959 L486.001 325.959 L486.001 325.959  Z" fill="#009af9" fill-rule="evenodd" fill-opacity="0.5"/>
<polyline clip-path="url(#clip362)" style="stroke:#000000; stroke-linecap:round; stroke-linejoin:round; stroke-width:4; stroke-opacity:0.5; fill:none" points="486.001,325.959 486.001,1042.58 508.545,1042.58 508.545,325.959 486.001,325.959 "/>
<path clip-path="url(#clip362)" d="M514.181 244.306 L514.181 1042.58 L536.724 1042.58 L536.724 244.306 L514.181 244.306 L514.181 244.306  Z" fill="#009af9" fill-rule="evenodd" fill-opacity="0.5"/>
<polyline clip-path="url(#clip362)" style="stroke:#000000; stroke-linecap:round; stroke-linejoin:round; stroke-width:4; stroke-opacity:0.5; fill:none" points="514.181,244.306 514.181,1042.58 536.724,1042.58 536.724,244.306 514.181,244.306 "/>
<path clip-path="url(#clip362)" d="M542.36 221.242 L542.36 1042.58 L564.903 1042.58 L564.903 221.242 L542.36 221.242 L542.36 221.242  Z" fill="#009af9" fill-rule="evenodd" fill-opacity="0.5"/>
<polyline clip-path="url(#clip362)" style="stroke:#000000; stroke-linecap:round; stroke-linejoin:round; stroke-width:4; stroke-opacity:0.5; fill:none" points="542.36,221.242 542.36,1042.58 564.903,1042.58 564.903,221.242 542.36,221.242 "/>
<path clip-path="url(#clip362)" d="M570.539 199.769 L570.539 1042.58 L593.083 1042.58 L593.083 199.769 L570.539 199.769 L570.539 199.769  Z" fill="#009af9" fill-rule="evenodd" fill-opacity="0.5"/>
<polyline clip-path="url(#clip362)" style="stroke:#000000; stroke-linecap:round; stroke-linejoin:round; stroke-width:4; stroke-opacity:0.5; fill:none" points="570.539,199.769 570.539,1042.58 593.083,1042.58 593.083,199.769 570.539,199.769 "/>
<path clip-path="url(#clip362)" d="M598.718 199.769 L598.718 1042.58 L621.262 1042.58 L621.262 199.769 L598.718 199.769 L598.718 199.769  Z" fill="#009af9" fill-rule="evenodd" fill-opacity="0.5"/>
<polyline clip-path="url(#clip362)" style="stroke:#000000; stroke-linecap:round; stroke-linejoin:round; stroke-width:4; stroke-opacity:0.5; fill:none" points="598.718,199.769 598.718,1042.58 621.262,1042.58 621.262,199.769 598.718,199.769 "/>
<path clip-path="url(#clip362)" d="M626.898 244.306 L626.898 1042.58 L649.441 1042.58 L649.441 244.306 L626.898 244.306 L626.898 244.306  Z" fill="#009af9" fill-rule="evenodd" fill-opacity="0.5"/>
<polyline clip-path="url(#clip362)" style="stroke:#000000; stroke-linecap:round; stroke-linejoin:round; stroke-width:4; stroke-opacity:0.5; fill:none" points="626.898,244.306 626.898,1042.58 649.441,1042.58 649.441,244.306 626.898,244.306 "/>
<path clip-path="url(#clip362)" d="M655.077 110.236 L655.077 1042.58 L677.62 1042.58 L677.62 110.236 L655.077 110.236 L655.077 110.236  Z" fill="#009af9" fill-rule="evenodd" fill-opacity="0.5"/>
<polyline clip-path="url(#clip362)" style="stroke:#000000; stroke-linecap:round; stroke-linejoin:round; stroke-width:4; stroke-opacity:0.5; fill:none" points="655.077,110.236 655.077,1042.58 677.62,1042.58 677.62,110.236 655.077,110.236 "/>
<path clip-path="url(#clip362)" d="M683.256 611.13 L683.256 1042.58 L705.8 1042.58 L705.8 611.13 L683.256 611.13 L683.256 611.13  Z" fill="#009af9" fill-rule="evenodd" fill-opacity="0.5"/>
<polyline clip-path="url(#clip362)" style="stroke:#000000; stroke-linecap:round; stroke-linejoin:round; stroke-width:4; stroke-opacity:0.5; fill:none" points="683.256,611.13 683.256,1042.58 705.8,1042.58 705.8,611.13 683.256,611.13 "/>
<path clip-path="url(#clip362)" d="M711.435 1042.58 L711.435 1042.58 L733.979 1042.58 L733.979 1042.58 L711.435 1042.58 L711.435 1042.58  Z" fill="#009af9" fill-rule="evenodd" fill-opacity="0.5"/>
<polyline clip-path="url(#clip362)" style="stroke:#000000; stroke-linecap:round; stroke-linejoin:round; stroke-width:4; stroke-opacity:0.5; fill:none" points="711.435,1042.58 711.435,1042.58 733.979,1042.58 711.435,1042.58 "/>
<path clip-path="url(#clip362)" d="M739.615 296.297 L739.615 1042.58 L762.158 1042.58 L762.158 296.297 L739.615 296.297 L739.615 296.297  Z" fill="#009af9" fill-rule="evenodd" fill-opacity="0.5"/>
<polyline clip-path="url(#clip362)" style="stroke:#000000; stroke-linecap:round; stroke-linejoin:round; stroke-width:4; stroke-opacity:0.5; fill:none" points="739.615,296.297 739.615,1042.58 762.158,1042.58 762.158,296.297 739.615,296.297 "/>
<path clip-path="url(#clip362)" d="M767.794 160.816 L767.794 1042.58 L790.337 1042.58 L790.337 160.816 L767.794 160.816 L767.794 160.816  Z" fill="#009af9" fill-rule="evenodd" fill-opacity="0.5"/>
<polyline clip-path="url(#clip362)" style="stroke:#000000; stroke-linecap:round; stroke-linejoin:round; stroke-width:4; stroke-opacity:0.5; fill:none" points="767.794,160.816 767.794,1042.58 790.337,1042.58 790.337,160.816 767.794,160.816 "/>
<path clip-path="url(#clip362)" d="M795.973 269.217 L795.973 1042.58 L818.517 1042.58 L818.517 269.217 L795.973 269.217 L795.973 269.217  Z" fill="#009af9" fill-rule="evenodd" fill-opacity="0.5"/>
<polyline clip-path="url(#clip362)" style="stroke:#000000; stroke-linecap:round; stroke-linejoin:round; stroke-width:4; stroke-opacity:0.5; fill:none" points="795.973,269.217 795.973,1042.58 818.517,1042.58 818.517,269.217 795.973,269.217 "/>
<path clip-path="url(#clip362)" d="M824.152 358.75 L824.152 1042.58 L846.696 1042.58 L846.696 358.75 L824.152 358.75 L824.152 358.75  Z" fill="#009af9" fill-rule="evenodd" fill-opacity="0.5"/>
<polyline clip-path="url(#clip362)" style="stroke:#000000; stroke-linecap:round; stroke-linejoin:round; stroke-width:4; stroke-opacity:0.5; fill:none" points="824.152,358.75 824.152,1042.58 846.696,1042.58 846.696,358.75 824.152,358.75 "/>
<path clip-path="url(#clip362)" d="M852.332 436.965 L852.332 1042.58 L874.875 1042.58 L874.875 436.965 L852.332 436.965 L852.332 436.965  Z" fill="#009af9" fill-rule="evenodd" fill-opacity="0.5"/>
<polyline clip-path="url(#clip362)" style="stroke:#000000; stroke-linecap:round; stroke-linejoin:round; stroke-width:4; stroke-opacity:0.5; fill:none" points="852.332,436.965 852.332,1042.58 874.875,1042.58 874.875,436.965 852.332,436.965 "/>
<path clip-path="url(#clip362)" d="M880.511 611.13 L880.511 1042.58 L903.054 1042.58 L903.054 611.13 L880.511 611.13 L880.511 611.13  Z" fill="#009af9" fill-rule="evenodd" fill-opacity="0.5"/>
<polyline clip-path="url(#clip362)" style="stroke:#000000; stroke-linecap:round; stroke-linejoin:round; stroke-width:4; stroke-opacity:0.5; fill:none" points="880.511,611.13 880.511,1042.58 903.054,1042.58 903.054,611.13 880.511,611.13 "/>
<path clip-path="url(#clip362)" d="M908.69 484.94 L908.69 1042.58 L931.234 1042.58 L931.234 484.94 L908.69 484.94 L908.69 484.94  Z" fill="#009af9" fill-rule="evenodd" fill-opacity="0.5"/>
<polyline clip-path="url(#clip362)" style="stroke:#000000; stroke-linecap:round; stroke-linejoin:round; stroke-width:4; stroke-opacity:0.5; fill:none" points="908.69,484.94 908.69,1042.58 931.234,1042.58 931.234,484.94 908.69,484.94 "/>
<path clip-path="url(#clip362)" d="M936.869 296.297 L936.869 1042.58 L959.413 1042.58 L959.413 296.297 L936.869 296.297 L936.869 296.297  Z" fill="#009af9" fill-rule="evenodd" fill-opacity="0.5"/>
<polyline clip-path="url(#clip362)" style="stroke:#000000; stroke-linecap:round; stroke-linejoin:round; stroke-width:4; stroke-opacity:0.5; fill:none" points="936.869,296.297 936.869,1042.58 959.413,1042.58 959.413,296.297 936.869,296.297 "/>
<path clip-path="url(#clip362)" d="M965.049 244.306 L965.049 1042.58 L987.592 1042.58 L987.592 244.306 L965.049 244.306 L965.049 244.306  Z" fill="#009af9" fill-rule="evenodd" fill-opacity="0.5"/>
<polyline clip-path="url(#clip362)" style="stroke:#000000; stroke-linecap:round; stroke-linejoin:round; stroke-width:4; stroke-opacity:0.5; fill:none" points="965.049,244.306 965.049,1042.58 987.592,1042.58 987.592,244.306 965.049,244.306 "/>
<path clip-path="url(#clip362)" d="M993.228 436.965 L993.228 1042.58 L1015.77 1042.58 L1015.77 436.965 L993.228 436.965 L993.228 436.965  Z" fill="#009af9" fill-rule="evenodd" fill-opacity="0.5"/>
<polyline clip-path="url(#clip362)" style="stroke:#000000; stroke-linecap:round; stroke-linejoin:round; stroke-width:4; stroke-opacity:0.5; fill:none" points="993.228,436.965 993.228,1042.58 1015.77,1042.58 1015.77,436.965 993.228,436.965 "/>
<path clip-path="url(#clip362)" d="M1021.41 296.297 L1021.41 1042.58 L1043.95 1042.58 L1043.95 296.297 L1021.41 296.297 L1021.41 296.297  Z" fill="#009af9" fill-rule="evenodd" fill-opacity="0.5"/>
<polyline clip-path="url(#clip362)" style="stroke:#000000; stroke-linecap:round; stroke-linejoin:round; stroke-width:4; stroke-opacity:0.5; fill:none" points="1021.41,296.297 1021.41,1042.58 1043.95,1042.58 1043.95,296.297 1021.41,296.297 "/>
<path clip-path="url(#clip362)" d="M1049.59 325.959 L1049.59 1042.58 L1072.13 1042.58 L1072.13 325.959 L1049.59 325.959 L1049.59 325.959  Z" fill="#009af9" fill-rule="evenodd" fill-opacity="0.5"/>
<polyline clip-path="url(#clip362)" style="stroke:#000000; stroke-linecap:round; stroke-linejoin:round; stroke-width:4; stroke-opacity:0.5; fill:none" points="1049.59,325.959 1049.59,1042.58 1072.13,1042.58 1072.13,325.959 1049.59,325.959 "/>
<path clip-path="url(#clip362)" d="M1077.77 436.965 L1077.77 1042.58 L1100.31 1042.58 L1100.31 436.965 L1077.77 436.965 L1077.77 436.965  Z" fill="#009af9" fill-rule="evenodd" fill-opacity="0.5"/>
<polyline clip-path="url(#clip362)" style="stroke:#000000; stroke-linecap:round; stroke-linejoin:round; stroke-width:4; stroke-opacity:0.5; fill:none" points="1077.77,436.965 1077.77,1042.58 1100.31,1042.58 1100.31,436.965 1077.77,436.965 "/>
<path clip-path="url(#clip362)" d="M1105.94 358.75 L1105.94 1042.58 L1128.49 1042.58 L1128.49 358.75 L1105.94 358.75 L1105.94 358.75  Z" fill="#009af9" fill-rule="evenodd" fill-opacity="0.5"/>
<polyline clip-path="url(#clip362)" style="stroke:#000000; stroke-linecap:round; stroke-linejoin:round; stroke-width:4; stroke-opacity:0.5; fill:none" points="1105.94,358.75 1105.94,1042.58 1128.49,1042.58 1128.49,358.75 1105.94,358.75 "/>
<path clip-path="url(#clip362)" d="M1134.12 199.769 L1134.12 1042.58 L1156.67 1042.58 L1156.67 199.769 L1134.12 199.769 L1134.12 199.769  Z" fill="#009af9" fill-rule="evenodd" fill-opacity="0.5"/>
<polyline clip-path="url(#clip362)" style="stroke:#000000; stroke-linecap:round; stroke-linejoin:round; stroke-width:4; stroke-opacity:0.5; fill:none" points="1134.12,199.769 1134.12,1042.58 1156.67,1042.58 1156.67,199.769 1134.12,199.769 "/>
<path clip-path="url(#clip362)" d="M1162.3 143.027 L1162.3 1042.58 L1184.85 1042.58 L1184.85 143.027 L1162.3 143.027 L1162.3 143.027  Z" fill="#009af9" fill-rule="evenodd" fill-opacity="0.5"/>
<polyline clip-path="url(#clip362)" style="stroke:#000000; stroke-linecap:round; stroke-linejoin:round; stroke-width:4; stroke-opacity:0.5; fill:none" points="1162.3,143.027 1162.3,1042.58 1184.85,1042.58 1184.85,143.027 1162.3,143.027 "/>
<path clip-path="url(#clip362)" d="M1190.48 221.242 L1190.48 1042.58 L1213.03 1042.58 L1213.03 221.242 L1190.48 221.242 L1190.48 221.242  Z" fill="#009af9" fill-rule="evenodd" fill-opacity="0.5"/>
<polyline clip-path="url(#clip362)" style="stroke:#000000; stroke-linecap:round; stroke-linejoin:round; stroke-width:4; stroke-opacity:0.5; fill:none" points="1190.48,221.242 1190.48,1042.58 1213.03,1042.58 1213.03,221.242 1190.48,221.242 "/>
<path clip-path="url(#clip362)" d="M1218.66 484.94 L1218.66 1042.58 L1241.21 1042.58 L1241.21 484.94 L1218.66 484.94 L1218.66 484.94  Z" fill="#009af9" fill-rule="evenodd" fill-opacity="0.5"/>
<polyline clip-path="url(#clip362)" style="stroke:#000000; stroke-linecap:round; stroke-linejoin:round; stroke-width:4; stroke-opacity:0.5; fill:none" points="1218.66,484.94 1218.66,1042.58 1241.21,1042.58 1241.21,484.94 1218.66,484.94 "/>
<path clip-path="url(#clip362)" d="M1246.84 826.853 L1246.84 1042.58 L1269.38 1042.58 L1269.38 826.853 L1246.84 826.853 L1246.84 826.853  Z" fill="#009af9" fill-rule="evenodd" fill-opacity="0.5"/>
<polyline clip-path="url(#clip362)" style="stroke:#000000; stroke-linecap:round; stroke-linejoin:round; stroke-width:4; stroke-opacity:0.5; fill:none" points="1246.84,826.853 1246.84,1042.58 1269.38,1042.58 1269.38,826.853 1246.84,826.853 "/>
<path clip-path="url(#clip362)" d="M1275.02 611.13 L1275.02 1042.58 L1297.56 1042.58 L1297.56 611.13 L1275.02 611.13 L1275.02 611.13  Z" fill="#009af9" fill-rule="evenodd" fill-opacity="0.5"/>
<polyline clip-path="url(#clip362)" style="stroke:#000000; stroke-linecap:round; stroke-linejoin:round; stroke-width:4; stroke-opacity:0.5; fill:none" points="1275.02,611.13 1275.02,1042.58 1297.56,1042.58 1297.56,611.13 1275.02,611.13 "/>
<path clip-path="url(#clip362)" d="M1303.2 541.682 L1303.2 1042.58 L1325.74 1042.58 L1325.74 541.682 L1303.2 541.682 L1303.2 541.682  Z" fill="#009af9" fill-rule="evenodd" fill-opacity="0.5"/>
<polyline clip-path="url(#clip362)" style="stroke:#000000; stroke-linecap:round; stroke-linejoin:round; stroke-width:4; stroke-opacity:0.5; fill:none" points="1303.2,541.682 1303.2,1042.58 1325.74,1042.58 1325.74,541.682 1303.2,541.682 "/>
<path clip-path="url(#clip362)" d="M1331.38 358.75 L1331.38 1042.58 L1353.92 1042.58 L1353.92 358.75 L1331.38 358.75 L1331.38 358.75  Z" fill="#009af9" fill-rule="evenodd" fill-opacity="0.5"/>
<polyline clip-path="url(#clip362)" style="stroke:#000000; stroke-linecap:round; stroke-linejoin:round; stroke-width:4; stroke-opacity:0.5; fill:none" points="1331.38,358.75 1331.38,1042.58 1353.92,1042.58 1353.92,358.75 1331.38,358.75 "/>
<path clip-path="url(#clip362)" d="M1359.56 296.297 L1359.56 1042.58 L1382.1 1042.58 L1382.1 296.297 L1359.56 296.297 L1359.56 296.297  Z" fill="#009af9" fill-rule="evenodd" fill-opacity="0.5"/>
<polyline clip-path="url(#clip362)" style="stroke:#000000; stroke-linecap:round; stroke-linejoin:round; stroke-width:4; stroke-opacity:0.5; fill:none" points="1359.56,296.297 1359.56,1042.58 1382.1,1042.58 1382.1,296.297 1359.56,296.297 "/>
<path clip-path="url(#clip362)" d="M1387.74 160.816 L1387.74 1042.58 L1410.28 1042.58 L1410.28 160.816 L1387.74 160.816 L1387.74 160.816  Z" fill="#009af9" fill-rule="evenodd" fill-opacity="0.5"/>
<polyline clip-path="url(#clip362)" style="stroke:#000000; stroke-linecap:round; stroke-linejoin:round; stroke-width:4; stroke-opacity:0.5; fill:none" points="1387.74,160.816 1387.74,1042.58 1410.28,1042.58 1410.28,160.816 1387.74,160.816 "/>
<path clip-path="url(#clip362)" d="M1415.92 325.959 L1415.92 1042.58 L1438.46 1042.58 L1438.46 325.959 L1415.92 325.959 L1415.92 325.959  Z" fill="#009af9" fill-rule="evenodd" fill-opacity="0.5"/>
<polyline clip-path="url(#clip362)" style="stroke:#000000; stroke-linecap:round; stroke-linejoin:round; stroke-width:4; stroke-opacity:0.5; fill:none" points="1415.92,325.959 1415.92,1042.58 1438.46,1042.58 1438.46,325.959 1415.92,325.959 "/>
<path clip-path="url(#clip362)" d="M1444.1 325.959 L1444.1 1042.58 L1466.64 1042.58 L1466.64 325.959 L1444.1 325.959 L1444.1 325.959  Z" fill="#009af9" fill-rule="evenodd" fill-opacity="0.5"/>
<polyline clip-path="url(#clip362)" style="stroke:#000000; stroke-linecap:round; stroke-linejoin:round; stroke-width:4; stroke-opacity:0.5; fill:none" points="1444.1,325.959 1444.1,1042.58 1466.64,1042.58 1466.64,325.959 1444.1,325.959 "/>
<path clip-path="url(#clip362)" d="M1472.28 395.407 L1472.28 1042.58 L1494.82 1042.58 L1494.82 395.407 L1472.28 395.407 L1472.28 395.407  Z" fill="#009af9" fill-rule="evenodd" fill-opacity="0.5"/>
<polyline clip-path="url(#clip362)" style="stroke:#000000; stroke-linecap:round; stroke-linejoin:round; stroke-width:4; stroke-opacity:0.5; fill:none" points="1472.28,395.407 1472.28,1042.58 1494.82,1042.58 1494.82,395.407 1472.28,395.407 "/>
<path clip-path="url(#clip362)" d="M1500.45 244.306 L1500.45 1042.58 L1523 1042.58 L1523 244.306 L1500.45 244.306 L1500.45 244.306  Z" fill="#009af9" fill-rule="evenodd" fill-opacity="0.5"/>
<polyline clip-path="url(#clip362)" style="stroke:#000000; stroke-linecap:round; stroke-linejoin:round; stroke-width:4; stroke-opacity:0.5; fill:none" points="1500.45,244.306 1500.45,1042.58 1523,1042.58 1523,244.306 1500.45,244.306 "/>
<path clip-path="url(#clip362)" d="M1528.63 395.407 L1528.63 1042.58 L1551.18 1042.58 L1551.18 395.407 L1528.63 395.407 L1528.63 395.407  Z" fill="#009af9" fill-rule="evenodd" fill-opacity="0.5"/>
<polyline clip-path="url(#clip362)" style="stroke:#000000; stroke-linecap:round; stroke-linejoin:round; stroke-width:4; stroke-opacity:0.5; fill:none" points="1528.63,395.407 1528.63,1042.58 1551.18,1042.58 1551.18,395.407 1528.63,395.407 "/>
<path clip-path="url(#clip362)" d="M1556.81 221.242 L1556.81 1042.58 L1579.36 1042.58 L1579.36 221.242 L1556.81 221.242 L1556.81 221.242  Z" fill="#009af9" fill-rule="evenodd" fill-opacity="0.5"/>
<polyline clip-path="url(#clip362)" style="stroke:#000000; stroke-linecap:round; stroke-linejoin:round; stroke-width:4; stroke-opacity:0.5; fill:none" points="1556.81,221.242 1556.81,1042.58 1579.36,1042.58 1579.36,221.242 1556.81,221.242 "/>
<path clip-path="url(#clip362)" d="M1584.99 244.306 L1584.99 1042.58 L1607.54 1042.58 L1607.54 244.306 L1584.99 244.306 L1584.99 244.306  Z" fill="#009af9" fill-rule="evenodd" fill-opacity="0.5"/>
<polyline clip-path="url(#clip362)" style="stroke:#000000; stroke-linecap:round; stroke-linejoin:round; stroke-width:4; stroke-opacity:0.5; fill:none" points="1584.99,244.306 1584.99,1042.58 1607.54,1042.58 1607.54,244.306 1584.99,244.306 "/>
<path clip-path="url(#clip362)" d="M1613.17 296.297 L1613.17 1042.58 L1635.71 1042.58 L1635.71 296.297 L1613.17 296.297 L1613.17 296.297  Z" fill="#009af9" fill-rule="evenodd" fill-opacity="0.5"/>
<polyline clip-path="url(#clip362)" style="stroke:#000000; stroke-linecap:round; stroke-linejoin:round; stroke-width:4; stroke-opacity:0.5; fill:none" points="1613.17,296.297 1613.17,1042.58 1635.71,1042.58 1635.71,296.297 1613.17,296.297 "/>
<path clip-path="url(#clip362)" d="M1641.35 358.75 L1641.35 1042.58 L1663.89 1042.58 L1663.89 358.75 L1641.35 358.75 L1641.35 358.75  Z" fill="#009af9" fill-rule="evenodd" fill-opacity="0.5"/>
<polyline clip-path="url(#clip362)" style="stroke:#000000; stroke-linecap:round; stroke-linejoin:round; stroke-width:4; stroke-opacity:0.5; fill:none" points="1641.35,358.75 1641.35,1042.58 1663.89,1042.58 1663.89,358.75 1641.35,358.75 "/>
<path clip-path="url(#clip362)" d="M1669.53 179.684 L1669.53 1042.58 L1692.07 1042.58 L1692.07 179.684 L1669.53 179.684 L1669.53 179.684  Z" fill="#009af9" fill-rule="evenodd" fill-opacity="0.5"/>
<polyline clip-path="url(#clip362)" style="stroke:#000000; stroke-linecap:round; stroke-linejoin:round; stroke-width:4; stroke-opacity:0.5; fill:none" points="1669.53,179.684 1669.53,1042.58 1692.07,1042.58 1692.07,179.684 1669.53,179.684 "/>
<path clip-path="url(#clip362)" d="M1697.71 395.407 L1697.71 1042.58 L1720.25 1042.58 L1720.25 395.407 L1697.71 395.407 L1697.71 395.407  Z" fill="#009af9" fill-rule="evenodd" fill-opacity="0.5"/>
<polyline clip-path="url(#clip362)" style="stroke:#000000; stroke-linecap:round; stroke-linejoin:round; stroke-width:4; stroke-opacity:0.5; fill:none" points="1697.71,395.407 1697.71,1042.58 1720.25,1042.58 1720.25,395.407 1697.71,395.407 "/>
<path clip-path="url(#clip362)" d="M1725.89 179.684 L1725.89 1042.58 L1748.43 1042.58 L1748.43 179.684 L1725.89 179.684 L1725.89 179.684  Z" fill="#009af9" fill-rule="evenodd" fill-opacity="0.5"/>
<polyline clip-path="url(#clip362)" style="stroke:#000000; stroke-linecap:round; stroke-linejoin:round; stroke-width:4; stroke-opacity:0.5; fill:none" points="1725.89,179.684 1725.89,1042.58 1748.43,1042.58 1748.43,179.684 1725.89,179.684 "/>
<path clip-path="url(#clip362)" d="M1754.07 244.306 L1754.07 1042.58 L1776.61 1042.58 L1776.61 244.306 L1754.07 244.306 L1754.07 244.306  Z" fill="#009af9" fill-rule="evenodd" fill-opacity="0.5"/>
<polyline clip-path="url(#clip362)" style="stroke:#000000; stroke-linecap:round; stroke-linejoin:round; stroke-width:4; stroke-opacity:0.5; fill:none" points="1754.07,244.306 1754.07,1042.58 1776.61,1042.58 1776.61,244.306 1754.07,244.306 "/>
<path clip-path="url(#clip362)" d="M1782.25 244.306 L1782.25 1042.58 L1804.79 1042.58 L1804.79 244.306 L1782.25 244.306 L1782.25 244.306  Z" fill="#009af9" fill-rule="evenodd" fill-opacity="0.5"/>
<polyline clip-path="url(#clip362)" style="stroke:#000000; stroke-linecap:round; stroke-linejoin:round; stroke-width:4; stroke-opacity:0.5; fill:none" points="1782.25,244.306 1782.25,1042.58 1804.79,1042.58 1804.79,244.306 1782.25,244.306 "/>
<path clip-path="url(#clip362)" d="M1810.43 358.75 L1810.43 1042.58 L1832.97 1042.58 L1832.97 358.75 L1810.43 358.75 L1810.43 358.75  Z" fill="#009af9" fill-rule="evenodd" fill-opacity="0.5"/>
<polyline clip-path="url(#clip362)" style="stroke:#000000; stroke-linecap:round; stroke-linejoin:round; stroke-width:4; stroke-opacity:0.5; fill:none" points="1810.43,358.75 1810.43,1042.58 1832.97,1042.58 1832.97,358.75 1810.43,358.75 "/>
<path clip-path="url(#clip362)" d="M1838.61 325.959 L1838.61 1042.58 L1861.15 1042.58 L1861.15 325.959 L1838.61 325.959 L1838.61 325.959  Z" fill="#009af9" fill-rule="evenodd" fill-opacity="0.5"/>
<polyline clip-path="url(#clip362)" style="stroke:#000000; stroke-linecap:round; stroke-linejoin:round; stroke-width:4; stroke-opacity:0.5; fill:none" points="1838.61,325.959 1838.61,1042.58 1861.15,1042.58 1861.15,325.959 1838.61,325.959 "/>
<path clip-path="url(#clip362)" d="M1866.78 700.663 L1866.78 1042.58 L1889.33 1042.58 L1889.33 700.663 L1866.78 700.663 L1866.78 700.663  Z" fill="#009af9" fill-rule="evenodd" fill-opacity="0.5"/>
<polyline clip-path="url(#clip362)" style="stroke:#000000; stroke-linecap:round; stroke-linejoin:round; stroke-width:4; stroke-opacity:0.5; fill:none" points="1866.78,700.663 1866.78,1042.58 1889.33,1042.58 1889.33,700.663 1866.78,700.663 "/>
<path clip-path="url(#clip362)" d="M1894.96 395.407 L1894.96 1042.58 L1917.51 1042.58 L1917.51 395.407 L1894.96 395.407 L1894.96 395.407  Z" fill="#009af9" fill-rule="evenodd" fill-opacity="0.5"/>
<polyline clip-path="url(#clip362)" style="stroke:#000000; stroke-linecap:round; stroke-linejoin:round; stroke-width:4; stroke-opacity:0.5; fill:none" points="1894.96,395.407 1894.96,1042.58 1917.51,1042.58 1917.51,395.407 1894.96,395.407 "/>
<path clip-path="url(#clip362)" d="M1923.14 269.217 L1923.14 1042.58 L1945.69 1042.58 L1945.69 269.217 L1923.14 269.217 L1923.14 269.217  Z" fill="#009af9" fill-rule="evenodd" fill-opacity="0.5"/>
<polyline clip-path="url(#clip362)" style="stroke:#000000; stroke-linecap:round; stroke-linejoin:round; stroke-width:4; stroke-opacity:0.5; fill:none" points="1923.14,269.217 1923.14,1042.58 1945.69,1042.58 1945.69,269.217 1923.14,269.217 "/>
<path clip-path="url(#clip362)" d="M1951.32 325.959 L1951.32 1042.58 L1973.87 1042.58 L1973.87 325.959 L1951.32 325.959 L1951.32 325.959  Z" fill="#009af9" fill-rule="evenodd" fill-opacity="0.5"/>
<polyline clip-path="url(#clip362)" style="stroke:#000000; stroke-linecap:round; stroke-linejoin:round; stroke-width:4; stroke-opacity:0.5; fill:none" points="1951.32,325.959 1951.32,1042.58 1973.87,1042.58 1973.87,325.959 1951.32,325.959 "/>
<path clip-path="url(#clip362)" d="M1979.5 395.407 L1979.5 1042.58 L2002.04 1042.58 L2002.04 395.407 L1979.5 395.407 L1979.5 395.407  Z" fill="#009af9" fill-rule="evenodd" fill-opacity="0.5"/>
<polyline clip-path="url(#clip362)" style="stroke:#000000; stroke-linecap:round; stroke-linejoin:round; stroke-width:4; stroke-opacity:0.5; fill:none" points="1979.5,395.407 1979.5,1042.58 2002.04,1042.58 2002.04,395.407 1979.5,395.407 "/>
<path clip-path="url(#clip362)" d="M2007.68 296.297 L2007.68 1042.58 L2030.22 1042.58 L2030.22 296.297 L2007.68 296.297 L2007.68 296.297  Z" fill="#009af9" fill-rule="evenodd" fill-opacity="0.5"/>
<polyline clip-path="url(#clip362)" style="stroke:#000000; stroke-linecap:round; stroke-linejoin:round; stroke-width:4; stroke-opacity:0.5; fill:none" points="2007.68,296.297 2007.68,1042.58 2030.22,1042.58 2030.22,296.297 2007.68,296.297 "/>
<path clip-path="url(#clip362)" d="M2035.86 611.13 L2035.86 1042.58 L2058.4 1042.58 L2058.4 611.13 L2035.86 611.13 L2035.86 611.13  Z" fill="#009af9" fill-rule="evenodd" fill-opacity="0.5"/>
<polyline clip-path="url(#clip362)" style="stroke:#000000; stroke-linecap:round; stroke-linejoin:round; stroke-width:4; stroke-opacity:0.5; fill:none" points="2035.86,611.13 2035.86,1042.58 2058.4,1042.58 2058.4,611.13 2035.86,611.13 "/>
<path clip-path="url(#clip362)" d="M2064.04 611.13 L2064.04 1042.58 L2086.58 1042.58 L2086.58 611.13 L2064.04 611.13 L2064.04 611.13  Z" fill="#009af9" fill-rule="evenodd" fill-opacity="0.5"/>
<polyline clip-path="url(#clip362)" style="stroke:#000000; stroke-linecap:round; stroke-linejoin:round; stroke-width:4; stroke-opacity:0.5; fill:none" points="2064.04,611.13 2064.04,1042.58 2086.58,1042.58 2086.58,611.13 2064.04,611.13 "/>
<path clip-path="url(#clip362)" d="M2092.22 611.13 L2092.22 1042.58 L2114.76 1042.58 L2114.76 611.13 L2092.22 611.13 L2092.22 611.13  Z" fill="#009af9" fill-rule="evenodd" fill-opacity="0.5"/>
<polyline clip-path="url(#clip362)" style="stroke:#000000; stroke-linecap:round; stroke-linejoin:round; stroke-width:4; stroke-opacity:0.5; fill:none" points="2092.22,611.13 2092.22,1042.58 2114.76,1042.58 2114.76,611.13 2092.22,611.13 "/>
<path clip-path="url(#clip362)" d="M2120.4 484.94 L2120.4 1042.58 L2142.94 1042.58 L2142.94 484.94 L2120.4 484.94 L2120.4 484.94  Z" fill="#009af9" fill-rule="evenodd" fill-opacity="0.5"/>
<polyline clip-path="url(#clip362)" style="stroke:#000000; stroke-linecap:round; stroke-linejoin:round; stroke-width:4; stroke-opacity:0.5; fill:none" points="2120.4,484.94 2120.4,1042.58 2142.94,1042.58 2142.94,484.94 2120.4,484.94 "/>
<path clip-path="url(#clip362)" d="M2148.58 395.407 L2148.58 1042.58 L2171.12 1042.58 L2171.12 395.407 L2148.58 395.407 L2148.58 395.407  Z" fill="#009af9" fill-rule="evenodd" fill-opacity="0.5"/>
<polyline clip-path="url(#clip362)" style="stroke:#000000; stroke-linecap:round; stroke-linejoin:round; stroke-width:4; stroke-opacity:0.5; fill:none" points="2148.58,395.407 2148.58,1042.58 2171.12,1042.58 2171.12,395.407 2148.58,395.407 "/>
<path clip-path="url(#clip362)" d="M2176.76 199.769 L2176.76 1042.58 L2199.3 1042.58 L2199.3 199.769 L2176.76 199.769 L2176.76 199.769  Z" fill="#009af9" fill-rule="evenodd" fill-opacity="0.5"/>
<polyline clip-path="url(#clip362)" style="stroke:#000000; stroke-linecap:round; stroke-linejoin:round; stroke-width:4; stroke-opacity:0.5; fill:none" points="2176.76,199.769 2176.76,1042.58 2199.3,1042.58 2199.3,199.769 2176.76,199.769 "/>
<path clip-path="url(#clip362)" d="M2204.94 395.407 L2204.94 1042.58 L2227.48 1042.58 L2227.48 395.407 L2204.94 395.407 L2204.94 395.407  Z" fill="#009af9" fill-rule="evenodd" fill-opacity="0.5"/>
<polyline clip-path="url(#clip362)" style="stroke:#000000; stroke-linecap:round; stroke-linejoin:round; stroke-width:4; stroke-opacity:0.5; fill:none" points="2204.94,395.407 2204.94,1042.58 2227.48,1042.58 2227.48,395.407 2204.94,395.407 "/>
<path clip-path="url(#clip362)" d="M2233.11 700.663 L2233.11 1042.58 L2255.66 1042.58 L2255.66 700.663 L2233.11 700.663 L2233.11 700.663  Z" fill="#009af9" fill-rule="evenodd" fill-opacity="0.5"/>
<polyline clip-path="url(#clip362)" style="stroke:#000000; stroke-linecap:round; stroke-linejoin:round; stroke-width:4; stroke-opacity:0.5; fill:none" points="2233.11,700.663 2233.11,1042.58 2255.66,1042.58 2255.66,700.663 2233.11,700.663 "/>
<path clip-path="url(#clip362)" d="M2261.29 611.13 L2261.29 1042.58 L2283.84 1042.58 L2283.84 611.13 L2261.29 611.13 L2261.29 611.13  Z" fill="#009af9" fill-rule="evenodd" fill-opacity="0.5"/>
<polyline clip-path="url(#clip362)" style="stroke:#000000; stroke-linecap:round; stroke-linejoin:round; stroke-width:4; stroke-opacity:0.5; fill:none" points="2261.29,611.13 2261.29,1042.58 2283.84,1042.58 2283.84,611.13 2261.29,611.13 "/>
<path clip-path="url(#clip362)" d="M2289.47 700.663 L2289.47 1042.58 L2312.02 1042.58 L2312.02 700.663 L2289.47 700.663 L2289.47 700.663  Z" fill="#009af9" fill-rule="evenodd" fill-opacity="0.5"/>
<polyline clip-path="url(#clip362)" style="stroke:#000000; stroke-linecap:round; stroke-linejoin:round; stroke-width:4; stroke-opacity:0.5; fill:none" points="2289.47,700.663 2289.47,1042.58 2312.02,1042.58 2312.02,700.663 2289.47,700.663 "/>
<path clip-path="url(#clip362)" d="M2317.65 611.13 L2317.65 1042.58 L2340.2 1042.58 L2340.2 611.13 L2317.65 611.13 L2317.65 611.13  Z" fill="#009af9" fill-rule="evenodd" fill-opacity="0.5"/>
<polyline clip-path="url(#clip362)" style="stroke:#000000; stroke-linecap:round; stroke-linejoin:round; stroke-width:4; stroke-opacity:0.5; fill:none" points="2317.65,611.13 2317.65,1042.58 2340.2,1042.58 2340.2,611.13 2317.65,611.13 "/>
<path clip-path="url(#clip362)" d="M2345.83 395.407 L2345.83 1042.58 L2368.38 1042.58 L2368.38 395.407 L2345.83 395.407 L2345.83 395.407  Z" fill="#009af9" fill-rule="evenodd" fill-opacity="0.5"/>
<polyline clip-path="url(#clip362)" style="stroke:#000000; stroke-linecap:round; stroke-linejoin:round; stroke-width:4; stroke-opacity:0.5; fill:none" points="2345.83,395.407 2345.83,1042.58 2368.38,1042.58 2368.38,395.407 2345.83,395.407 "/>
<path clip-path="url(#clip362)" d="M2374.01 221.242 L2374.01 1042.58 L2396.55 1042.58 L2396.55 221.242 L2374.01 221.242 L2374.01 221.242  Z" fill="#009af9" fill-rule="evenodd" fill-opacity="0.5"/>
<polyline clip-path="url(#clip362)" style="stroke:#000000; stroke-linecap:round; stroke-linejoin:round; stroke-width:4; stroke-opacity:0.5; fill:none" points="2374.01,221.242 2374.01,1042.58 2396.55,1042.58 2396.55,221.242 2374.01,221.242 "/>
<path clip-path="url(#clip362)" d="M2402.19 484.94 L2402.19 1042.58 L2424.73 1042.58 L2424.73 484.94 L2402.19 484.94 L2402.19 484.94  Z" fill="#009af9" fill-rule="evenodd" fill-opacity="0.5"/>
<polyline clip-path="url(#clip362)" style="stroke:#000000; stroke-linecap:round; stroke-linejoin:round; stroke-width:4; stroke-opacity:0.5; fill:none" points="2402.19,484.94 2402.19,1042.58 2424.73,1042.58 2424.73,484.94 2402.19,484.94 "/>
<path clip-path="url(#clip362)" d="M2430.37 611.13 L2430.37 1042.58 L2452.91 1042.58 L2452.91 611.13 L2430.37 611.13 L2430.37 611.13  Z" fill="#009af9" fill-rule="evenodd" fill-opacity="0.5"/>
<polyline clip-path="url(#clip362)" style="stroke:#000000; stroke-linecap:round; stroke-linejoin:round; stroke-width:4; stroke-opacity:0.5; fill:none" points="2430.37,611.13 2430.37,1042.58 2452.91,1042.58 2452.91,611.13 2430.37,611.13 "/>
<path clip-path="url(#clip362)" d="M2458.55 541.682 L2458.55 1042.58 L2481.09 1042.58 L2481.09 541.682 L2458.55 541.682 L2458.55 541.682  Z" fill="#009af9" fill-rule="evenodd" fill-opacity="0.5"/>
<polyline clip-path="url(#clip362)" style="stroke:#000000; stroke-linecap:round; stroke-linejoin:round; stroke-width:4; stroke-opacity:0.5; fill:none" points="2458.55,541.682 2458.55,1042.58 2481.09,1042.58 2481.09,541.682 2458.55,541.682 "/>
<path clip-path="url(#clip362)" d="M2486.73 358.75 L2486.73 1042.58 L2509.27 1042.58 L2509.27 358.75 L2486.73 358.75 L2486.73 358.75  Z" fill="#009af9" fill-rule="evenodd" fill-opacity="0.5"/>
<polyline clip-path="url(#clip362)" style="stroke:#000000; stroke-linecap:round; stroke-linejoin:round; stroke-width:4; stroke-opacity:0.5; fill:none" points="2486.73,358.75 2486.73,1042.58 2509.27,1042.58 2509.27,358.75 2486.73,358.75 "/>
<path clip-path="url(#clip362)" d="M2514.91 541.682 L2514.91 1042.58 L2537.45 1042.58 L2537.45 541.682 L2514.91 541.682 L2514.91 541.682  Z" fill="#009af9" fill-rule="evenodd" fill-opacity="0.5"/>
<polyline clip-path="url(#clip362)" style="stroke:#000000; stroke-linecap:round; stroke-linejoin:round; stroke-width:4; stroke-opacity:0.5; fill:none" points="2514.91,541.682 2514.91,1042.58 2537.45,1042.58 2537.45,541.682 2514.91,541.682 "/>
<path clip-path="url(#clip362)" d="M2543.09 436.965 L2543.09 1042.58 L2565.63 1042.58 L2565.63 436.965 L2543.09 436.965 L2543.09 436.965  Z" fill="#009af9" fill-rule="evenodd" fill-opacity="0.5"/>
<polyline clip-path="url(#clip362)" style="stroke:#000000; stroke-linecap:round; stroke-linejoin:round; stroke-width:4; stroke-opacity:0.5; fill:none" points="2543.09,436.965 2543.09,1042.58 2565.63,1042.58 2565.63,436.965 2543.09,436.965 "/>
<path clip-path="url(#clip362)" d="M2571.27 395.407 L2571.27 1042.58 L2593.81 1042.58 L2593.81 395.407 L2571.27 395.407 L2571.27 395.407  Z" fill="#009af9" fill-rule="evenodd" fill-opacity="0.5"/>
<polyline clip-path="url(#clip362)" style="stroke:#000000; stroke-linecap:round; stroke-linejoin:round; stroke-width:4; stroke-opacity:0.5; fill:none" points="2571.27,395.407 2571.27,1042.58 2593.81,1042.58 2593.81,395.407 2571.27,395.407 "/>
<path clip-path="url(#clip362)" d="M2599.44 611.13 L2599.44 1042.58 L2621.99 1042.58 L2621.99 611.13 L2599.44 611.13 L2599.44 611.13  Z" fill="#009af9" fill-rule="evenodd" fill-opacity="0.5"/>
<polyline clip-path="url(#clip362)" style="stroke:#000000; stroke-linecap:round; stroke-linejoin:round; stroke-width:4; stroke-opacity:0.5; fill:none" points="2599.44,611.13 2599.44,1042.58 2621.99,1042.58 2621.99,611.13 2599.44,611.13 "/>
<path clip-path="url(#clip362)" d="M2627.62 395.407 L2627.62 1042.58 L2650.17 1042.58 L2650.17 395.407 L2627.62 395.407 L2627.62 395.407  Z" fill="#009af9" fill-rule="evenodd" fill-opacity="0.5"/>
<polyline clip-path="url(#clip362)" style="stroke:#000000; stroke-linecap:round; stroke-linejoin:round; stroke-width:4; stroke-opacity:0.5; fill:none" points="2627.62,395.407 2627.62,1042.58 2650.17,1042.58 2650.17,395.407 2627.62,395.407 "/>
<path clip-path="url(#clip362)" d="M2655.8 541.682 L2655.8 1042.58 L2678.35 1042.58 L2678.35 541.682 L2655.8 541.682 L2655.8 541.682  Z" fill="#009af9" fill-rule="evenodd" fill-opacity="0.5"/>
<polyline clip-path="url(#clip362)" style="stroke:#000000; stroke-linecap:round; stroke-linejoin:round; stroke-width:4; stroke-opacity:0.5; fill:none" points="2655.8,541.682 2655.8,1042.58 2678.35,1042.58 2678.35,541.682 2655.8,541.682 "/>
<path clip-path="url(#clip362)" d="M2683.98 436.965 L2683.98 1042.58 L2706.53 1042.58 L2706.53 436.965 L2683.98 436.965 L2683.98 436.965  Z" fill="#009af9" fill-rule="evenodd" fill-opacity="0.5"/>
<polyline clip-path="url(#clip362)" style="stroke:#000000; stroke-linecap:round; stroke-linejoin:round; stroke-width:4; stroke-opacity:0.5; fill:none" points="2683.98,436.965 2683.98,1042.58 2706.53,1042.58 2706.53,436.965 2683.98,436.965 "/>
<path clip-path="url(#clip362)" d="M2712.16 541.682 L2712.16 1042.58 L2734.71 1042.58 L2734.71 541.682 L2712.16 541.682 L2712.16 541.682  Z" fill="#009af9" fill-rule="evenodd" fill-opacity="0.5"/>
<polyline clip-path="url(#clip362)" style="stroke:#000000; stroke-linecap:round; stroke-linejoin:round; stroke-width:4; stroke-opacity:0.5; fill:none" points="2712.16,541.682 2712.16,1042.58 2734.71,1042.58 2734.71,541.682 2712.16,541.682 "/>
<path clip-path="url(#clip362)" d="M2740.34 700.663 L2740.34 1042.58 L2762.88 1042.58 L2762.88 700.663 L2740.34 700.663 L2740.34 700.663  Z" fill="#009af9" fill-rule="evenodd" fill-opacity="0.5"/>
<polyline clip-path="url(#clip362)" style="stroke:#000000; stroke-linecap:round; stroke-linejoin:round; stroke-width:4; stroke-opacity:0.5; fill:none" points="2740.34,700.663 2740.34,1042.58 2762.88,1042.58 2762.88,700.663 2740.34,700.663 "/>
<circle clip-path="url(#clip362)" style="fill:#009af9; stroke:none; fill-opacity:0" cx="300.018" cy="700.663" r="2"/>
<circle clip-path="url(#clip362)" style="fill:#009af9; stroke:none; fill-opacity:0" cx="328.198" cy="395.407" r="2"/>
<circle clip-path="url(#clip362)" style="fill:#009af9; stroke:none; fill-opacity:0" cx="356.377" cy="325.959" r="2"/>
<circle clip-path="url(#clip362)" style="fill:#009af9; stroke:none; fill-opacity:0" cx="384.556" cy="143.027" r="2"/>
<circle clip-path="url(#clip362)" style="fill:#009af9; stroke:none; fill-opacity:0" cx="412.735" cy="269.217" r="2"/>
<circle clip-path="url(#clip362)" style="fill:#009af9; stroke:none; fill-opacity:0" cx="440.915" cy="325.959" r="2"/>
<circle clip-path="url(#clip362)" style="fill:#009af9; stroke:none; fill-opacity:0" cx="469.094" cy="358.75" r="2"/>
<circle clip-path="url(#clip362)" style="fill:#009af9; stroke:none; fill-opacity:0" cx="497.273" cy="325.959" r="2"/>
<circle clip-path="url(#clip362)" style="fill:#009af9; stroke:none; fill-opacity:0" cx="525.452" cy="244.306" r="2"/>
<circle clip-path="url(#clip362)" style="fill:#009af9; stroke:none; fill-opacity:0" cx="553.632" cy="221.242" r="2"/>
<circle clip-path="url(#clip362)" style="fill:#009af9; stroke:none; fill-opacity:0" cx="581.811" cy="199.769" r="2"/>
<circle clip-path="url(#clip362)" style="fill:#009af9; stroke:none; fill-opacity:0" cx="609.99" cy="199.769" r="2"/>
<circle clip-path="url(#clip362)" style="fill:#009af9; stroke:none; fill-opacity:0" cx="638.169" cy="244.306" r="2"/>
<circle clip-path="url(#clip362)" style="fill:#009af9; stroke:none; fill-opacity:0" cx="666.349" cy="110.236" r="2"/>
<circle clip-path="url(#clip362)" style="fill:#009af9; stroke:none; fill-opacity:0" cx="694.528" cy="611.13" r="2"/>
<circle clip-path="url(#clip362)" style="fill:#009af9; stroke:none; fill-opacity:0" cx="722.707" cy="1042.58" r="2"/>
<circle clip-path="url(#clip362)" style="fill:#009af9; stroke:none; fill-opacity:0" cx="750.886" cy="296.297" r="2"/>
<circle clip-path="url(#clip362)" style="fill:#009af9; stroke:none; fill-opacity:0" cx="779.066" cy="160.816" r="2"/>
<circle clip-path="url(#clip362)" style="fill:#009af9; stroke:none; fill-opacity:0" cx="807.245" cy="269.217" r="2"/>
<circle clip-path="url(#clip362)" style="fill:#009af9; stroke:none; fill-opacity:0" cx="835.424" cy="358.75" r="2"/>
<circle clip-path="url(#clip362)" style="fill:#009af9; stroke:none; fill-opacity:0" cx="863.603" cy="436.965" r="2"/>
<circle clip-path="url(#clip362)" style="fill:#009af9; stroke:none; fill-opacity:0" cx="891.783" cy="611.13" r="2"/>
<circle clip-path="url(#clip362)" style="fill:#009af9; stroke:none; fill-opacity:0" cx="919.962" cy="484.94" r="2"/>
<circle clip-path="url(#clip362)" style="fill:#009af9; stroke:none; fill-opacity:0" cx="948.141" cy="296.297" r="2"/>
<circle clip-path="url(#clip362)" style="fill:#009af9; stroke:none; fill-opacity:0" cx="976.32" cy="244.306" r="2"/>
<circle clip-path="url(#clip362)" style="fill:#009af9; stroke:none; fill-opacity:0" cx="1004.5" cy="436.965" r="2"/>
<circle clip-path="url(#clip362)" style="fill:#009af9; stroke:none; fill-opacity:0" cx="1032.68" cy="296.297" r="2"/>
<circle clip-path="url(#clip362)" style="fill:#009af9; stroke:none; fill-opacity:0" cx="1060.86" cy="325.959" r="2"/>
<circle clip-path="url(#clip362)" style="fill:#009af9; stroke:none; fill-opacity:0" cx="1089.04" cy="436.965" r="2"/>
<circle clip-path="url(#clip362)" style="fill:#009af9; stroke:none; fill-opacity:0" cx="1117.22" cy="358.75" r="2"/>
<circle clip-path="url(#clip362)" style="fill:#009af9; stroke:none; fill-opacity:0" cx="1145.4" cy="199.769" r="2"/>
<circle clip-path="url(#clip362)" style="fill:#009af9; stroke:none; fill-opacity:0" cx="1173.58" cy="143.027" r="2"/>
<circle clip-path="url(#clip362)" style="fill:#009af9; stroke:none; fill-opacity:0" cx="1201.75" cy="221.242" r="2"/>
<circle clip-path="url(#clip362)" style="fill:#009af9; stroke:none; fill-opacity:0" cx="1229.93" cy="484.94" r="2"/>
<circle clip-path="url(#clip362)" style="fill:#009af9; stroke:none; fill-opacity:0" cx="1258.11" cy="826.853" r="2"/>
<circle clip-path="url(#clip362)" style="fill:#009af9; stroke:none; fill-opacity:0" cx="1286.29" cy="611.13" r="2"/>
<circle clip-path="url(#clip362)" style="fill:#009af9; stroke:none; fill-opacity:0" cx="1314.47" cy="541.682" r="2"/>
<circle clip-path="url(#clip362)" style="fill:#009af9; stroke:none; fill-opacity:0" cx="1342.65" cy="358.75" r="2"/>
<circle clip-path="url(#clip362)" style="fill:#009af9; stroke:none; fill-opacity:0" cx="1370.83" cy="296.297" r="2"/>
<circle clip-path="url(#clip362)" style="fill:#009af9; stroke:none; fill-opacity:0" cx="1399.01" cy="160.816" r="2"/>
<circle clip-path="url(#clip362)" style="fill:#009af9; stroke:none; fill-opacity:0" cx="1427.19" cy="325.959" r="2"/>
<circle clip-path="url(#clip362)" style="fill:#009af9; stroke:none; fill-opacity:0" cx="1455.37" cy="325.959" r="2"/>
<circle clip-path="url(#clip362)" style="fill:#009af9; stroke:none; fill-opacity:0" cx="1483.55" cy="395.407" r="2"/>
<circle clip-path="url(#clip362)" style="fill:#009af9; stroke:none; fill-opacity:0" cx="1511.73" cy="244.306" r="2"/>
<circle clip-path="url(#clip362)" style="fill:#009af9; stroke:none; fill-opacity:0" cx="1539.91" cy="395.407" r="2"/>
<circle clip-path="url(#clip362)" style="fill:#009af9; stroke:none; fill-opacity:0" cx="1568.08" cy="221.242" r="2"/>
<circle clip-path="url(#clip362)" style="fill:#009af9; stroke:none; fill-opacity:0" cx="1596.26" cy="244.306" r="2"/>
<circle clip-path="url(#clip362)" style="fill:#009af9; stroke:none; fill-opacity:0" cx="1624.44" cy="296.297" r="2"/>
<circle clip-path="url(#clip362)" style="fill:#009af9; stroke:none; fill-opacity:0" cx="1652.62" cy="358.75" r="2"/>
<circle clip-path="url(#clip362)" style="fill:#009af9; stroke:none; fill-opacity:0" cx="1680.8" cy="179.684" r="2"/>
<circle clip-path="url(#clip362)" style="fill:#009af9; stroke:none; fill-opacity:0" cx="1708.98" cy="395.407" r="2"/>
<circle clip-path="url(#clip362)" style="fill:#009af9; stroke:none; fill-opacity:0" cx="1737.16" cy="179.684" r="2"/>
<circle clip-path="url(#clip362)" style="fill:#009af9; stroke:none; fill-opacity:0" cx="1765.34" cy="244.306" r="2"/>
<circle clip-path="url(#clip362)" style="fill:#009af9; stroke:none; fill-opacity:0" cx="1793.52" cy="244.306" r="2"/>
<circle clip-path="url(#clip362)" style="fill:#009af9; stroke:none; fill-opacity:0" cx="1821.7" cy="358.75" r="2"/>
<circle clip-path="url(#clip362)" style="fill:#009af9; stroke:none; fill-opacity:0" cx="1849.88" cy="325.959" r="2"/>
<circle clip-path="url(#clip362)" style="fill:#009af9; stroke:none; fill-opacity:0" cx="1878.06" cy="700.663" r="2"/>
<circle clip-path="url(#clip362)" style="fill:#009af9; stroke:none; fill-opacity:0" cx="1906.24" cy="395.407" r="2"/>
<circle clip-path="url(#clip362)" style="fill:#009af9; stroke:none; fill-opacity:0" cx="1934.41" cy="269.217" r="2"/>
<circle clip-path="url(#clip362)" style="fill:#009af9; stroke:none; fill-opacity:0" cx="1962.59" cy="325.959" r="2"/>
<circle clip-path="url(#clip362)" style="fill:#009af9; stroke:none; fill-opacity:0" cx="1990.77" cy="395.407" r="2"/>
<circle clip-path="url(#clip362)" style="fill:#009af9; stroke:none; fill-opacity:0" cx="2018.95" cy="296.297" r="2"/>
<circle clip-path="url(#clip362)" style="fill:#009af9; stroke:none; fill-opacity:0" cx="2047.13" cy="611.13" r="2"/>
<circle clip-path="url(#clip362)" style="fill:#009af9; stroke:none; fill-opacity:0" cx="2075.31" cy="611.13" r="2"/>
<circle clip-path="url(#clip362)" style="fill:#009af9; stroke:none; fill-opacity:0" cx="2103.49" cy="611.13" r="2"/>
<circle clip-path="url(#clip362)" style="fill:#009af9; stroke:none; fill-opacity:0" cx="2131.67" cy="484.94" r="2"/>
<circle clip-path="url(#clip362)" style="fill:#009af9; stroke:none; fill-opacity:0" cx="2159.85" cy="395.407" r="2"/>
<circle clip-path="url(#clip362)" style="fill:#009af9; stroke:none; fill-opacity:0" cx="2188.03" cy="199.769" r="2"/>
<circle clip-path="url(#clip362)" style="fill:#009af9; stroke:none; fill-opacity:0" cx="2216.21" cy="395.407" r="2"/>
<circle clip-path="url(#clip362)" style="fill:#009af9; stroke:none; fill-opacity:0" cx="2244.39" cy="700.663" r="2"/>
<circle clip-path="url(#clip362)" style="fill:#009af9; stroke:none; fill-opacity:0" cx="2272.57" cy="611.13" r="2"/>
<circle clip-path="url(#clip362)" style="fill:#009af9; stroke:none; fill-opacity:0" cx="2300.74" cy="700.663" r="2"/>
<circle clip-path="url(#clip362)" style="fill:#009af9; stroke:none; fill-opacity:0" cx="2328.92" cy="611.13" r="2"/>
<circle clip-path="url(#clip362)" style="fill:#009af9; stroke:none; fill-opacity:0" cx="2357.1" cy="395.407" r="2"/>
<circle clip-path="url(#clip362)" style="fill:#009af9; stroke:none; fill-opacity:0" cx="2385.28" cy="221.242" r="2"/>
<circle clip-path="url(#clip362)" style="fill:#009af9; stroke:none; fill-opacity:0" cx="2413.46" cy="484.94" r="2"/>
<circle clip-path="url(#clip362)" style="fill:#009af9; stroke:none; fill-opacity:0" cx="2441.64" cy="611.13" r="2"/>
<circle clip-path="url(#clip362)" style="fill:#009af9; stroke:none; fill-opacity:0" cx="2469.82" cy="541.682" r="2"/>
<circle clip-path="url(#clip362)" style="fill:#009af9; stroke:none; fill-opacity:0" cx="2498" cy="358.75" r="2"/>
<circle clip-path="url(#clip362)" style="fill:#009af9; stroke:none; fill-opacity:0" cx="2526.18" cy="541.682" r="2"/>
<circle clip-path="url(#clip362)" style="fill:#009af9; stroke:none; fill-opacity:0" cx="2554.36" cy="436.965" r="2"/>
<circle clip-path="url(#clip362)" style="fill:#009af9; stroke:none; fill-opacity:0" cx="2582.54" cy="395.407" r="2"/>
<circle clip-path="url(#clip362)" style="fill:#009af9; stroke:none; fill-opacity:0" cx="2610.72" cy="611.13" r="2"/>
<circle clip-path="url(#clip362)" style="fill:#009af9; stroke:none; fill-opacity:0" cx="2638.9" cy="395.407" r="2"/>
<circle clip-path="url(#clip362)" style="fill:#009af9; stroke:none; fill-opacity:0" cx="2667.08" cy="541.682" r="2"/>
<circle clip-path="url(#clip362)" style="fill:#009af9; stroke:none; fill-opacity:0" cx="2695.25" cy="436.965" r="2"/>
<circle clip-path="url(#clip362)" style="fill:#009af9; stroke:none; fill-opacity:0" cx="2723.43" cy="541.682" r="2"/>
<circle clip-path="url(#clip362)" style="fill:#009af9; stroke:none; fill-opacity:0" cx="2751.61" cy="700.663" r="2"/>
</svg>
