<?xml version="1.0" encoding="utf-8"?>
<svg xmlns="http://www.w3.org/2000/svg" xmlns:xlink="http://www.w3.org/1999/xlink" width="800" height="300" viewBox="0 0 3200 1200">
<defs>
  <clipPath id="clip510">
    <rect x="0" y="0" width="3200" height="1200"/>
  </clipPath>
</defs>
<path clip-path="url(#clip510)" d="M0 1200 L3200 1200 L3200 0 L0 0  Z" fill="#ffffff" fill-rule="evenodd" fill-opacity="1"/>
<defs>
  <clipPath id="clip511">
    <rect x="640" y="0" width="2241" height="1200"/>
  </clipPath>
</defs>
<path clip-path="url(#clip510)" d="M271.839 1042.58 L3089.76 1042.58 L3089.76 110.236 L271.839 110.236  Z" fill="#ffffff" fill-rule="evenodd" fill-opacity="1"/>
<defs>
  <clipPath id="clip512">
    <rect x="271" y="110" width="2819" height="933"/>
  </clipPath>
</defs>
<polyline clip-path="url(#clip512)" style="stroke:#000000; stroke-linecap:round; stroke-linejoin:round; stroke-width:2; stroke-opacity:0.1; fill:none" points="1032.68,1042.58 1032.68,110.236 "/>
<polyline clip-path="url(#clip512)" style="stroke:#000000; stroke-linecap:round; stroke-linejoin:round; stroke-width:2; stroke-opacity:0.1; fill:none" points="1878.06,1042.58 1878.06,110.236 "/>
<polyline clip-path="url(#clip512)" style="stroke:#000000; stroke-linecap:round; stroke-linejoin:round; stroke-width:2; stroke-opacity:0.1; fill:none" points="2751.61,1042.58 2751.61,110.236 "/>
<polyline clip-path="url(#clip510)" style="stroke:#000000; stroke-linecap:round; stroke-linejoin:round; stroke-width:4; stroke-opacity:1; fill:none" points="271.839,1042.58 3089.76,1042.58 "/>
<polyline clip-path="url(#clip510)" style="stroke:#000000; stroke-linecap:round; stroke-linejoin:round; stroke-width:4; stroke-opacity:1; fill:none" points="1032.68,1042.58 1032.68,1023.68 "/>
<polyline clip-path="url(#clip510)" style="stroke:#000000; stroke-linecap:round; stroke-linejoin:round; stroke-width:4; stroke-opacity:1; fill:none" points="1878.06,1042.58 1878.06,1023.68 "/>
<polyline clip-path="url(#clip510)" style="stroke:#000000; stroke-linecap:round; stroke-linejoin:round; stroke-width:4; stroke-opacity:1; fill:none" points="2751.61,1042.58 2751.61,1023.68 "/>
<path clip-path="url(#clip510)" d="M904.474 1107.44 L920.793 1107.44 L920.793 1111.38 L898.849 1111.38 L898.849 1107.44 Q901.511 1104.69 906.094 1100.06 Q910.7 1095.4 911.881 1094.06 Q914.126 1091.54 915.006 1089.8 Q915.909 1088.04 915.909 1086.35 Q915.909 1083.6 913.964 1081.86 Q912.043 1080.13 908.941 1080.13 Q906.742 1080.13 904.288 1080.89 Q901.858 1081.65 899.08 1083.2 L899.08 1078.48 Q901.904 1077.35 904.358 1076.77 Q906.811 1076.19 908.848 1076.19 Q914.219 1076.19 917.413 1078.88 Q920.608 1081.56 920.608 1086.05 Q920.608 1088.18 919.798 1090.1 Q919.01 1092 916.904 1094.59 Q916.325 1095.26 913.223 1098.48 Q910.122 1101.68 904.474 1107.44 Z" fill="#000000" fill-rule="nonzero" fill-opacity="1" /><path clip-path="url(#clip510)" d="M940.608 1079.89 Q936.996 1079.89 935.168 1083.46 Q933.362 1087 933.362 1094.13 Q933.362 1101.24 935.168 1104.8 Q936.996 1108.34 940.608 1108.34 Q944.242 1108.34 946.047 1104.8 Q947.876 1101.24 947.876 1094.13 Q947.876 1087 946.047 1083.46 Q944.242 1079.89 940.608 1079.89 M940.608 1076.19 Q946.418 1076.19 949.473 1080.8 Q952.552 1085.38 952.552 1094.13 Q952.552 1102.86 949.473 1107.46 Q946.418 1112.05 940.608 1112.05 Q934.797 1112.05 931.719 1107.46 Q928.663 1102.86 928.663 1094.13 Q928.663 1085.38 931.719 1080.8 Q934.797 1076.19 940.608 1076.19 Z" fill="#000000" fill-rule="nonzero" fill-opacity="1" /><path clip-path="url(#clip510)" d="M964.797 1107.44 L981.117 1107.44 L981.117 1111.38 L959.172 1111.38 L959.172 1107.44 Q961.834 1104.69 966.418 1100.06 Q971.024 1095.4 972.205 1094.06 Q974.45 1091.54 975.33 1089.8 Q976.232 1088.04 976.232 1086.35 Q976.232 1083.6 974.288 1081.86 Q972.367 1080.13 969.265 1080.13 Q967.066 1080.13 964.612 1080.89 Q962.182 1081.65 959.404 1083.2 L959.404 1078.48 Q962.228 1077.35 964.682 1076.77 Q967.135 1076.19 969.172 1076.19 Q974.543 1076.19 977.737 1078.88 Q980.931 1081.56 980.931 1086.05 Q980.931 1088.18 980.121 1090.1 Q979.334 1092 977.228 1094.59 Q976.649 1095.26 973.547 1098.48 Q970.445 1101.68 964.797 1107.44 Z" fill="#000000" fill-rule="nonzero" fill-opacity="1" /><path clip-path="url(#clip510)" d="M1003.78 1080.89 L991.973 1099.34 L1003.78 1099.34 L1003.78 1080.89 M1002.55 1076.82 L1008.43 1076.82 L1008.43 1099.34 L1013.36 1099.34 L1013.36 1103.23 L1008.43 1103.23 L1008.43 1111.38 L1003.78 1111.38 L1003.78 1103.23 L988.177 1103.23 L988.177 1098.71 L1002.55 1076.82 Z" fill="#000000" fill-rule="nonzero" fill-opacity="1" /><path clip-path="url(#clip510)" d="M1018.34 1096.49 L1030.82 1096.49 L1030.82 1100.29 L1018.34 1100.29 L1018.34 1096.49 Z" fill="#000000" fill-rule="nonzero" fill-opacity="1" /><path clip-path="url(#clip510)" d="M1039.01 1107.44 L1046.65 1107.44 L1046.65 1081.07 L1038.34 1082.74 L1038.34 1078.48 L1046.6 1076.82 L1051.28 1076.82 L1051.28 1107.44 L1058.92 1107.44 L1058.92 1111.38 L1039.01 1111.38 L1039.01 1107.44 Z" fill="#000000" fill-rule="nonzero" fill-opacity="1" /><path clip-path="url(#clip510)" d="M1069.17 1107.44 L1076.81 1107.44 L1076.81 1081.07 L1068.5 1082.74 L1068.5 1078.48 L1076.76 1076.82 L1081.44 1076.82 L1081.44 1107.44 L1089.08 1107.44 L1089.08 1111.38 L1069.17 1111.38 L1069.17 1107.44 Z" fill="#000000" fill-rule="nonzero" fill-opacity="1" /><path clip-path="url(#clip510)" d="M1095.77 1096.49 L1108.25 1096.49 L1108.25 1100.29 L1095.77 1100.29 L1095.77 1096.49 Z" fill="#000000" fill-rule="nonzero" fill-opacity="1" /><path clip-path="url(#clip510)" d="M1125.63 1079.89 Q1122.02 1079.89 1120.19 1083.46 Q1118.38 1087 1118.38 1094.13 Q1118.38 1101.24 1120.19 1104.8 Q1122.02 1108.34 1125.63 1108.34 Q1129.26 1108.34 1131.07 1104.8 Q1132.9 1101.24 1132.9 1094.13 Q1132.9 1087 1131.07 1083.46 Q1129.26 1079.89 1125.63 1079.89 M1125.63 1076.19 Q1131.44 1076.19 1134.5 1080.8 Q1137.57 1085.38 1137.57 1094.13 Q1137.57 1102.86 1134.5 1107.46 Q1131.44 1112.05 1125.63 1112.05 Q1119.82 1112.05 1116.74 1107.46 Q1113.69 1102.86 1113.69 1094.13 Q1113.69 1085.38 1116.74 1080.8 Q1119.82 1076.19 1125.63 1076.19 Z" fill="#000000" fill-rule="nonzero" fill-opacity="1" /><path clip-path="url(#clip510)" d="M1146.6 1107.44 L1154.24 1107.44 L1154.24 1081.07 L1145.93 1082.74 L1145.93 1078.48 L1154.19 1076.82 L1158.87 1076.82 L1158.87 1107.44 L1166.51 1107.44 L1166.51 1111.38 L1146.6 1111.38 L1146.6 1107.44 Z" fill="#000000" fill-rule="nonzero" fill-opacity="1" /><path clip-path="url(#clip510)" d="M1749.85 1107.44 L1766.17 1107.44 L1766.17 1111.38 L1744.23 1111.38 L1744.23 1107.44 Q1746.89 1104.69 1751.47 1100.06 Q1756.08 1095.4 1757.26 1094.06 Q1759.5 1091.54 1760.38 1089.8 Q1761.29 1088.04 1761.29 1086.35 Q1761.29 1083.6 1759.34 1081.86 Q1757.42 1080.13 1754.32 1080.13 Q1752.12 1080.13 1749.67 1080.89 Q1747.24 1081.65 1744.46 1083.2 L1744.46 1078.48 Q1747.28 1077.35 1749.74 1076.77 Q1752.19 1076.19 1754.23 1076.19 Q1759.6 1076.19 1762.79 1078.88 Q1765.99 1081.56 1765.99 1086.05 Q1765.99 1088.18 1765.17 1090.1 Q1764.39 1092 1762.28 1094.59 Q1761.7 1095.26 1758.6 1098.48 Q1755.5 1101.68 1749.85 1107.44 Z" fill="#000000" fill-rule="nonzero" fill-opacity="1" /><path clip-path="url(#clip510)" d="M1785.98 1079.89 Q1782.37 1079.89 1780.55 1083.46 Q1778.74 1087 1778.74 1094.13 Q1778.74 1101.24 1780.55 1104.8 Q1782.37 1108.34 1785.98 1108.34 Q1789.62 1108.34 1791.42 1104.8 Q1793.25 1101.24 1793.25 1094.13 Q1793.25 1087 1791.42 1083.46 Q1789.62 1079.89 1785.98 1079.89 M1785.98 1076.19 Q1791.8 1076.19 1794.85 1080.8 Q1797.93 1085.38 1797.93 1094.13 Q1797.93 1102.86 1794.85 1107.46 Q1791.8 1112.05 1785.98 1112.05 Q1780.17 1112.05 1777.1 1107.46 Q1774.04 1102.86 1774.04 1094.13 Q1774.04 1085.38 1777.1 1080.8 Q1780.17 1076.19 1785.98 1076.19 Z" fill="#000000" fill-rule="nonzero" fill-opacity="1" /><path clip-path="url(#clip510)" d="M1810.17 1107.44 L1826.49 1107.44 L1826.49 1111.38 L1804.55 1111.38 L1804.55 1107.44 Q1807.21 1104.69 1811.79 1100.06 Q1816.4 1095.4 1817.58 1094.06 Q1819.83 1091.54 1820.71 1089.8 Q1821.61 1088.04 1821.61 1086.35 Q1821.61 1083.6 1819.67 1081.86 Q1817.74 1080.13 1814.64 1080.13 Q1812.44 1080.13 1809.99 1080.89 Q1807.56 1081.65 1804.78 1083.2 L1804.78 1078.48 Q1807.61 1077.35 1810.06 1076.77 Q1812.51 1076.19 1814.55 1076.19 Q1819.92 1076.19 1823.11 1078.88 Q1826.31 1081.56 1826.31 1086.05 Q1826.31 1088.18 1825.5 1090.1 Q1824.71 1092 1822.61 1094.59 Q1822.03 1095.26 1818.92 1098.48 Q1815.82 1101.68 1810.17 1107.44 Z" fill="#000000" fill-rule="nonzero" fill-opacity="1" /><path clip-path="url(#clip510)" d="M1849.16 1080.89 L1837.35 1099.34 L1849.16 1099.34 L1849.16 1080.89 M1847.93 1076.82 L1853.81 1076.82 L1853.81 1099.34 L1858.74 1099.34 L1858.74 1103.23 L1853.81 1103.23 L1853.81 1111.38 L1849.16 1111.38 L1849.16 1103.23 L1833.55 1103.23 L1833.55 1098.71 L1847.93 1076.82 Z" fill="#000000" fill-rule="nonzero" fill-opacity="1" /><path clip-path="url(#clip510)" d="M1863.72 1096.49 L1876.19 1096.49 L1876.19 1100.29 L1863.72 1100.29 L1863.72 1096.49 Z" fill="#000000" fill-rule="nonzero" fill-opacity="1" /><path clip-path="url(#clip510)" d="M1884.39 1107.44 L1892.03 1107.44 L1892.03 1081.07 L1883.72 1082.74 L1883.72 1078.48 L1891.98 1076.82 L1896.66 1076.82 L1896.66 1107.44 L1904.29 1107.44 L1904.29 1111.38 L1884.39 1111.38 L1884.39 1107.44 Z" fill="#000000" fill-rule="nonzero" fill-opacity="1" /><path clip-path="url(#clip510)" d="M1917.77 1107.44 L1934.09 1107.44 L1934.09 1111.38 L1912.14 1111.38 L1912.14 1107.44 Q1914.8 1104.69 1919.39 1100.06 Q1923.99 1095.4 1925.17 1094.06 Q1927.42 1091.54 1928.3 1089.8 Q1929.2 1088.04 1929.2 1086.35 Q1929.2 1083.6 1927.26 1081.86 Q1925.34 1080.13 1922.23 1080.13 Q1920.04 1080.13 1917.58 1080.89 Q1915.15 1081.65 1912.37 1083.2 L1912.37 1078.48 Q1915.2 1077.35 1917.65 1076.77 Q1920.1 1076.19 1922.14 1076.19 Q1927.51 1076.19 1930.71 1078.88 Q1933.9 1081.56 1933.9 1086.05 Q1933.9 1088.18 1933.09 1090.1 Q1932.3 1092 1930.2 1094.59 Q1929.62 1095.26 1926.52 1098.48 Q1923.41 1101.68 1917.77 1107.44 Z" fill="#000000" fill-rule="nonzero" fill-opacity="1" /><path clip-path="url(#clip510)" d="M1941.15 1096.49 L1953.62 1096.49 L1953.62 1100.29 L1941.15 1100.29 L1941.15 1096.49 Z" fill="#000000" fill-rule="nonzero" fill-opacity="1" /><path clip-path="url(#clip510)" d="M1971.01 1079.89 Q1967.4 1079.89 1965.57 1083.46 Q1963.76 1087 1963.76 1094.13 Q1963.76 1101.24 1965.57 1104.8 Q1967.4 1108.34 1971.01 1108.34 Q1974.64 1108.34 1976.45 1104.8 Q1978.28 1101.24 1978.28 1094.13 Q1978.28 1087 1976.45 1083.46 Q1974.64 1079.89 1971.01 1079.89 M1971.01 1076.19 Q1976.82 1076.19 1979.87 1080.8 Q1982.95 1085.38 1982.95 1094.13 Q1982.95 1102.86 1979.87 1107.46 Q1976.82 1112.05 1971.01 1112.05 Q1965.2 1112.05 1962.12 1107.46 Q1959.06 1102.86 1959.06 1094.13 Q1959.06 1085.38 1962.12 1080.8 Q1965.2 1076.19 1971.01 1076.19 Z" fill="#000000" fill-rule="nonzero" fill-opacity="1" /><path clip-path="url(#clip510)" d="M1991.98 1107.44 L1999.62 1107.44 L1999.62 1081.07 L1991.31 1082.74 L1991.31 1078.48 L1999.57 1076.82 L2004.25 1076.82 L2004.25 1107.44 L2011.89 1107.44 L2011.89 1111.38 L1991.98 1111.38 L1991.98 1107.44 Z" fill="#000000" fill-rule="nonzero" fill-opacity="1" /><path clip-path="url(#clip510)" d="M2623.41 1107.44 L2639.73 1107.44 L2639.73 1111.38 L2617.78 1111.38 L2617.78 1107.44 Q2620.44 1104.69 2625.03 1100.06 Q2629.63 1095.4 2630.81 1094.06 Q2633.06 1091.54 2633.94 1089.8 Q2634.84 1088.04 2634.84 1086.35 Q2634.84 1083.6 2632.9 1081.86 Q2630.98 1080.13 2627.88 1080.13 Q2625.68 1080.13 2623.22 1080.89 Q2620.79 1081.65 2618.01 1083.2 L2618.01 1078.48 Q2620.84 1077.35 2623.29 1076.77 Q2625.75 1076.19 2627.78 1076.19 Q2633.15 1076.19 2636.35 1078.88 Q2639.54 1081.56 2639.54 1086.05 Q2639.54 1088.18 2638.73 1090.1 Q2637.94 1092 2635.84 1094.59 Q2635.26 1095.26 2632.16 1098.48 Q2629.06 1101.68 2623.41 1107.44 Z" fill="#000000" fill-rule="nonzero" fill-opacity="1" /><path clip-path="url(#clip510)" d="M2659.54 1079.89 Q2655.93 1079.89 2654.1 1083.46 Q2652.3 1087 2652.3 1094.13 Q2652.3 1101.24 2654.1 1104.8 Q2655.93 1108.34 2659.54 1108.34 Q2663.18 1108.34 2664.98 1104.8 Q2666.81 1101.24 2666.81 1094.13 Q2666.81 1087 2664.98 1083.46 Q2663.18 1079.89 2659.54 1079.89 M2659.54 1076.19 Q2665.35 1076.19 2668.41 1080.8 Q2671.49 1085.38 2671.49 1094.13 Q2671.49 1102.86 2668.41 1107.46 Q2665.35 1112.05 2659.54 1112.05 Q2653.73 1112.05 2650.65 1107.46 Q2647.6 1102.86 2647.6 1094.13 Q2647.6 1085.38 2650.65 1080.8 Q2653.73 1076.19 2659.54 1076.19 Z" fill="#000000" fill-rule="nonzero" fill-opacity="1" /><path clip-path="url(#clip510)" d="M2683.73 1107.44 L2700.05 1107.44 L2700.05 1111.38 L2678.11 1111.38 L2678.11 1107.44 Q2680.77 1104.69 2685.35 1100.06 Q2689.96 1095.4 2691.14 1094.06 Q2693.38 1091.54 2694.26 1089.8 Q2695.17 1088.04 2695.17 1086.35 Q2695.17 1083.6 2693.22 1081.86 Q2691.3 1080.13 2688.2 1080.13 Q2686 1080.13 2683.55 1080.89 Q2681.12 1081.65 2678.34 1083.2 L2678.34 1078.48 Q2681.16 1077.35 2683.62 1076.77 Q2686.07 1076.19 2688.11 1076.19 Q2693.48 1076.19 2696.67 1078.88 Q2699.87 1081.56 2699.87 1086.05 Q2699.87 1088.18 2699.06 1090.1 Q2698.27 1092 2696.16 1094.59 Q2695.58 1095.26 2692.48 1098.48 Q2689.38 1101.68 2683.73 1107.44 Z" fill="#000000" fill-rule="nonzero" fill-opacity="1" /><path clip-path="url(#clip510)" d="M2709.91 1076.82 L2728.27 1076.82 L2728.27 1080.75 L2714.19 1080.75 L2714.19 1089.22 Q2715.21 1088.88 2716.23 1088.71 Q2717.25 1088.53 2718.27 1088.53 Q2724.06 1088.53 2727.43 1091.7 Q2730.81 1094.87 2730.81 1100.29 Q2730.81 1105.87 2727.34 1108.97 Q2723.87 1112.05 2717.55 1112.05 Q2715.37 1112.05 2713.11 1111.68 Q2710.86 1111.31 2708.45 1110.57 L2708.45 1105.87 Q2710.54 1107 2712.76 1107.56 Q2714.98 1108.11 2717.46 1108.11 Q2721.46 1108.11 2723.8 1106.01 Q2726.14 1103.9 2726.14 1100.29 Q2726.14 1096.68 2723.8 1094.57 Q2721.46 1092.46 2717.46 1092.46 Q2715.58 1092.46 2713.71 1092.88 Q2711.86 1093.3 2709.91 1094.18 L2709.91 1076.82 Z" fill="#000000" fill-rule="nonzero" fill-opacity="1" /><path clip-path="url(#clip510)" d="M2737.27 1096.49 L2749.75 1096.49 L2749.75 1100.29 L2737.27 1100.29 L2737.27 1096.49 Z" fill="#000000" fill-rule="nonzero" fill-opacity="1" /><path clip-path="url(#clip510)" d="M2767.13 1079.89 Q2763.52 1079.89 2761.69 1083.46 Q2759.89 1087 2759.89 1094.13 Q2759.89 1101.24 2761.69 1104.8 Q2763.52 1108.34 2767.13 1108.34 Q2770.77 1108.34 2772.57 1104.8 Q2774.4 1101.24 2774.4 1094.13 Q2774.4 1087 2772.57 1083.46 Q2770.77 1079.89 2767.13 1079.89 M2767.13 1076.19 Q2772.94 1076.19 2776 1080.8 Q2779.08 1085.38 2779.08 1094.13 Q2779.08 1102.86 2776 1107.46 Q2772.94 1112.05 2767.13 1112.05 Q2761.32 1112.05 2758.24 1107.46 Q2755.19 1102.86 2755.19 1094.13 Q2755.19 1085.38 2758.24 1080.8 Q2761.32 1076.19 2767.13 1076.19 Z" fill="#000000" fill-rule="nonzero" fill-opacity="1" /><path clip-path="url(#clip510)" d="M2788.11 1107.44 L2795.74 1107.44 L2795.74 1081.07 L2787.43 1082.74 L2787.43 1078.48 L2795.7 1076.82 L2800.37 1076.82 L2800.37 1107.44 L2808.01 1107.44 L2808.01 1111.38 L2788.11 1111.38 L2788.11 1107.44 Z" fill="#000000" fill-rule="nonzero" fill-opacity="1" /><path clip-path="url(#clip510)" d="M2814.7 1096.49 L2827.18 1096.49 L2827.18 1100.29 L2814.7 1100.29 L2814.7 1096.49 Z" fill="#000000" fill-rule="nonzero" fill-opacity="1" /><path clip-path="url(#clip510)" d="M2844.56 1079.89 Q2840.95 1079.89 2839.12 1083.46 Q2837.32 1087 2837.32 1094.13 Q2837.32 1101.24 2839.12 1104.8 Q2840.95 1108.34 2844.56 1108.34 Q2848.2 1108.34 2850 1104.8 Q2851.83 1101.24 2851.83 1094.13 Q2851.83 1087 2850 1083.46 Q2848.2 1079.89 2844.56 1079.89 M2844.56 1076.19 Q2850.37 1076.19 2853.43 1080.8 Q2856.51 1085.38 2856.51 1094.13 Q2856.51 1102.86 2853.43 1107.46 Q2850.37 1112.05 2844.56 1112.05 Q2838.75 1112.05 2835.67 1107.46 Q2832.62 1102.86 2832.62 1094.13 Q2832.62 1085.38 2835.67 1080.8 Q2838.75 1076.19 2844.56 1076.19 Z" fill="#000000" fill-rule="nonzero" fill-opacity="1" /><path clip-path="url(#clip510)" d="M2865.54 1107.44 L2873.17 1107.44 L2873.17 1081.07 L2864.86 1082.74 L2864.86 1078.48 L2873.13 1076.82 L2877.8 1076.82 L2877.8 1107.44 L2885.44 1107.44 L2885.44 1111.38 L2865.54 1111.38 L2865.54 1107.44 Z" fill="#000000" fill-rule="nonzero" fill-opacity="1" /><polyline clip-path="url(#clip512)" style="stroke:#000000; stroke-linecap:round; stroke-linejoin:round; stroke-width:2; stroke-opacity:0.1; fill:none" points="271.839,1042.58 3089.76,1042.58 "/>
<polyline clip-path="url(#clip512)" style="stroke:#000000; stroke-linecap:round; stroke-linejoin:round; stroke-width:2; stroke-opacity:0.1; fill:none" points="271.839,654.048 3089.76,654.048 "/>
<polyline clip-path="url(#clip512)" style="stroke:#000000; stroke-linecap:round; stroke-linejoin:round; stroke-width:2; stroke-opacity:0.1; fill:none" points="271.839,265.521 3089.76,265.521 "/>
<polyline clip-path="url(#clip510)" style="stroke:#000000; stroke-linecap:round; stroke-linejoin:round; stroke-width:4; stroke-opacity:1; fill:none" points="271.839,1042.58 271.839,110.236 "/>
<polyline clip-path="url(#clip510)" style="stroke:#000000; stroke-linecap:round; stroke-linejoin:round; stroke-width:4; stroke-opacity:1; fill:none" points="271.839,1042.58 290.737,1042.58 "/>
<polyline clip-path="url(#clip510)" style="stroke:#000000; stroke-linecap:round; stroke-linejoin:round; stroke-width:4; stroke-opacity:1; fill:none" points="271.839,654.048 290.737,654.048 "/>
<polyline clip-path="url(#clip510)" style="stroke:#000000; stroke-linecap:round; stroke-linejoin:round; stroke-width:4; stroke-opacity:1; fill:none" points="271.839,265.521 290.737,265.521 "/>
<path clip-path="url(#clip510)" d="M153.134 1062.37 L160.772 1062.37 L160.772 1036 L152.462 1037.67 L152.462 1033.41 L160.726 1031.74 L165.402 1031.74 L165.402 1062.37 L173.041 1062.37 L173.041 1066.3 L153.134 1066.3 L153.134 1062.37 Z" fill="#000000" fill-rule="nonzero" fill-opacity="1" /><path clip-path="url(#clip510)" d="M192.485 1034.82 Q188.874 1034.82 187.045 1038.39 Q185.24 1041.93 185.24 1049.06 Q185.24 1056.16 187.045 1059.73 Q188.874 1063.27 192.485 1063.27 Q196.119 1063.27 197.925 1059.73 Q199.754 1056.16 199.754 1049.06 Q199.754 1041.93 197.925 1038.39 Q196.119 1034.82 192.485 1034.82 M192.485 1031.12 Q198.295 1031.12 201.351 1035.72 Q204.43 1040.31 204.43 1049.06 Q204.43 1057.78 201.351 1062.39 Q198.295 1066.97 192.485 1066.97 Q186.675 1066.97 183.596 1062.39 Q180.541 1057.78 180.541 1049.06 Q180.541 1040.31 183.596 1035.72 Q186.675 1031.12 192.485 1031.12 Z" fill="#000000" fill-rule="nonzero" fill-opacity="1" /><path clip-path="url(#clip510)" d="M214.134 1013.31 Q211.2 1013.31 209.715 1016.21 Q208.248 1019.09 208.248 1024.88 Q208.248 1030.66 209.715 1033.55 Q211.2 1036.43 214.134 1036.43 Q217.087 1036.43 218.554 1033.55 Q220.04 1030.66 220.04 1024.88 Q220.04 1019.09 218.554 1016.21 Q217.087 1013.31 214.134 1013.31 M214.134 1010.31 Q218.855 1010.31 221.338 1014.05 Q223.839 1017.77 223.839 1024.88 Q223.839 1031.97 221.338 1035.71 Q218.855 1039.44 214.134 1039.44 Q209.414 1039.44 206.912 1035.71 Q204.43 1031.97 204.43 1024.88 Q204.43 1017.77 206.912 1014.05 Q209.414 1010.31 214.134 1010.31 Z" fill="#000000" fill-rule="nonzero" fill-opacity="1" /><path clip-path="url(#clip510)" d="M155.823 673.841 L163.462 673.841 L163.462 647.475 L155.152 649.142 L155.152 644.882 L163.416 643.216 L168.092 643.216 L168.092 673.841 L175.73 673.841 L175.73 677.776 L155.823 677.776 L155.823 673.841 Z" fill="#000000" fill-rule="nonzero" fill-opacity="1" /><path clip-path="url(#clip510)" d="M195.175 646.294 Q191.564 646.294 189.735 649.859 Q187.929 653.401 187.929 660.53 Q187.929 667.637 189.735 671.202 Q191.564 674.743 195.175 674.743 Q198.809 674.743 200.615 671.202 Q202.443 667.637 202.443 660.53 Q202.443 653.401 200.615 649.859 Q198.809 646.294 195.175 646.294 M195.175 642.591 Q200.985 642.591 204.04 647.197 Q207.119 651.78 207.119 660.53 Q207.119 669.257 204.04 673.864 Q200.985 678.447 195.175 678.447 Q189.365 678.447 186.286 673.864 Q183.23 669.257 183.23 660.53 Q183.23 651.78 186.286 647.197 Q189.365 642.591 195.175 642.591 Z" fill="#000000" fill-rule="nonzero" fill-opacity="1" /><path clip-path="url(#clip510)" d="M207.665 647.168 L213.871 647.168 L213.871 625.746 L207.119 627.1 L207.119 623.639 L213.833 622.285 L217.633 622.285 L217.633 647.168 L223.839 647.168 L223.839 650.365 L207.665 650.365 L207.665 647.168 Z" fill="#000000" fill-rule="nonzero" fill-opacity="1" /><path clip-path="url(#clip510)" d="M154.713 285.313 L162.352 285.313 L162.352 258.947 L154.042 260.614 L154.042 256.355 L162.306 254.688 L166.982 254.688 L166.982 285.313 L174.621 285.313 L174.621 289.248 L154.713 289.248 L154.713 285.313 Z" fill="#000000" fill-rule="nonzero" fill-opacity="1" /><path clip-path="url(#clip510)" d="M194.065 257.767 Q190.454 257.767 188.625 261.332 Q186.82 264.873 186.82 272.003 Q186.82 279.109 188.625 282.674 Q190.454 286.216 194.065 286.216 Q197.699 286.216 199.505 282.674 Q201.334 279.109 201.334 272.003 Q201.334 264.873 199.505 261.332 Q197.699 257.767 194.065 257.767 M194.065 254.063 Q199.875 254.063 202.931 258.67 Q206.009 263.253 206.009 272.003 Q206.009 280.73 202.931 285.336 Q199.875 289.919 194.065 289.919 Q188.255 289.919 185.176 285.336 Q182.121 280.73 182.121 272.003 Q182.121 263.253 185.176 258.67 Q188.255 254.063 194.065 254.063 Z" fill="#000000" fill-rule="nonzero" fill-opacity="1" /><path clip-path="url(#clip510)" d="M210.58 258.64 L223.839 258.64 L223.839 261.838 L206.009 261.838 L206.009 258.64 Q208.172 256.402 211.896 252.641 Q215.639 248.86 216.598 247.769 Q218.423 245.719 219.137 244.309 Q219.871 242.879 219.871 241.507 Q219.871 239.268 218.291 237.858 Q216.73 236.447 214.21 236.447 Q212.423 236.447 210.429 237.068 Q208.454 237.689 206.198 238.949 L206.198 235.112 Q208.492 234.19 210.486 233.72 Q212.479 233.25 214.134 233.25 Q218.498 233.25 221.093 235.432 Q223.689 237.613 223.689 241.262 Q223.689 242.992 223.03 244.553 Q222.391 246.096 220.68 248.202 Q220.209 248.747 217.689 251.362 Q215.169 253.957 210.58 258.64 Z" fill="#000000" fill-rule="nonzero" fill-opacity="1" /><path clip-path="url(#clip510)" d="M83.4268 952.253 L70.6636 952.253 L70.6636 962.757 L65.38 962.757 L65.38 945.888 L85.7821 945.888 Q88.4239 949.611 89.7925 954.099 Q91.1293 958.587 91.1293 963.68 Q91.1293 974.82 84.6363 981.122 Q78.1114 987.392 66.494 987.392 Q54.8448 987.392 48.3518 981.122 Q41.8269 974.82 41.8269 963.68 Q41.8269 959.033 42.9727 954.863 Q44.1186 950.662 46.3466 947.129 L53.1897 947.129 Q50.166 950.694 48.6382 954.704 Q47.1104 958.714 47.1104 963.139 Q47.1104 971.86 51.9802 976.252 Q56.85 980.612 66.494 980.612 Q76.1062 980.612 80.976 976.252 Q85.8458 971.86 85.8458 963.139 Q85.8458 959.733 85.2729 957.059 Q84.6681 954.386 83.4268 952.253 Z" fill="#000000" fill-rule="nonzero" fill-opacity="1" /><path clip-path="url(#clip510)" d="M70.9182 903.906 L73.7828 903.906 L73.7828 930.833 Q79.8302 930.451 83.013 927.204 Q86.1641 923.926 86.1641 918.101 Q86.1641 914.727 85.3365 911.576 Q84.509 908.393 82.8539 905.274 L88.3921 905.274 Q89.7289 908.425 90.4291 911.735 Q91.1293 915.046 91.1293 918.451 Q91.1293 926.981 86.1641 931.978 Q81.1988 936.944 72.7324 936.944 Q63.9796 936.944 58.8552 932.233 Q53.699 927.491 53.699 919.47 Q53.699 912.277 58.3459 908.107 Q62.9611 903.906 70.9182 903.906 M69.1995 909.762 Q64.3933 909.826 61.5288 912.468 Q58.6642 915.077 58.6642 919.406 Q58.6642 924.308 61.4333 927.268 Q64.2024 930.196 69.2313 930.642 L69.1995 909.762 Z" fill="#000000" fill-rule="nonzero" fill-opacity="1" /><path clip-path="url(#clip510)" d="M68.6902 864.661 L90.2063 864.661 L90.2063 870.518 L68.8812 870.518 Q63.8204 870.518 61.306 872.491 Q58.7915 874.464 58.7915 878.411 Q58.7915 883.153 61.8152 885.891 Q64.8389 888.628 70.0588 888.628 L90.2063 888.628 L90.2063 894.516 L54.5583 894.516 L54.5583 888.628 L60.0965 888.628 Q56.8818 886.527 55.2904 883.695 Q53.699 880.83 53.699 877.106 Q53.699 870.963 57.5184 867.812 Q61.306 864.661 68.6902 864.661 Z" fill="#000000" fill-rule="nonzero" fill-opacity="1" /><path clip-path="url(#clip510)" d="M58.6642 839.166 Q58.6642 843.877 62.3563 846.614 Q66.0166 849.352 72.4141 849.352 Q78.8117 849.352 82.5038 846.646 Q86.1641 843.909 86.1641 839.166 Q86.1641 834.488 82.4719 831.75 Q78.7798 829.013 72.4141 829.013 Q66.0803 829.013 62.3881 831.75 Q58.6642 834.488 58.6642 839.166 M53.699 839.166 Q53.699 831.528 58.6642 827.167 Q63.6295 822.807 72.4141 822.807 Q81.167 822.807 86.1641 827.167 Q91.1293 831.528 91.1293 839.166 Q91.1293 846.837 86.1641 851.198 Q81.167 855.526 72.4141 855.526 Q63.6295 855.526 58.6642 851.198 Q53.699 846.837 53.699 839.166 Z" fill="#000000" fill-rule="nonzero" fill-opacity="1" /><path clip-path="url(#clip510)" d="M61.4015 785.344 Q57.4547 783.148 55.5768 780.093 Q53.699 777.037 53.699 772.899 Q53.699 767.329 57.6139 764.306 Q61.4969 761.282 68.6902 761.282 L90.2063 761.282 L90.2063 767.17 L68.8812 767.17 Q63.7568 767.17 61.2741 768.985 Q58.7915 770.799 58.7915 774.523 Q58.7915 779.074 61.8152 781.716 Q64.8389 784.358 70.0588 784.358 L90.2063 784.358 L90.2063 790.246 L68.8812 790.246 Q63.7249 790.246 61.2741 792.06 Q58.7915 793.874 58.7915 797.662 Q58.7915 802.15 61.8471 804.792 Q64.8708 807.433 70.0588 807.433 L90.2063 807.433 L90.2063 813.322 L54.5583 813.322 L54.5583 807.433 L60.0965 807.433 Q56.8182 805.428 55.2586 802.627 Q53.699 799.826 53.699 795.975 Q53.699 792.092 55.6723 789.387 Q57.6457 786.649 61.4015 785.344 Z" fill="#000000" fill-rule="nonzero" fill-opacity="1" /><path clip-path="url(#clip510)" d="M70.9182 719.109 L73.7828 719.109 L73.7828 746.036 Q79.8302 745.654 83.013 742.408 Q86.1641 739.129 86.1641 733.305 Q86.1641 729.931 85.3365 726.78 Q84.509 723.597 82.8539 720.478 L88.3921 720.478 Q89.7289 723.629 90.4291 726.939 Q91.1293 730.249 91.1293 733.655 Q91.1293 742.185 86.1641 747.182 Q81.1988 752.147 72.7324 752.147 Q63.9796 752.147 58.8552 747.437 Q53.699 742.694 53.699 734.673 Q53.699 727.48 58.3459 723.311 Q62.9611 719.109 70.9182 719.109 M69.1995 724.966 Q64.3933 725.029 61.5288 727.671 Q58.6642 730.281 58.6642 734.61 Q58.6642 739.511 61.4333 742.471 Q64.2024 745.4 69.2313 745.845 L69.1995 724.966 Z" fill="#000000" fill-rule="nonzero" fill-opacity="1" /><path clip-path="url(#clip510)" d="M55.6087 686.771 L61.1468 686.771 Q59.8737 689.254 59.2371 691.928 Q58.6006 694.601 58.6006 697.466 Q58.6006 701.826 59.9373 704.022 Q61.2741 706.187 63.9477 706.187 Q65.9848 706.187 67.1624 704.627 Q68.3083 703.068 69.3586 698.357 L69.8042 696.352 Q71.141 690.113 73.5918 687.503 Q76.0108 684.862 80.3713 684.862 Q85.3365 684.862 88.2329 688.808 Q91.1293 692.723 91.1293 699.598 Q91.1293 702.463 90.5564 705.582 Q90.0153 708.669 88.9013 712.107 L82.8539 712.107 Q84.5408 708.86 85.4002 705.709 Q86.2277 702.558 86.2277 699.471 Q86.2277 695.333 84.8273 693.105 Q83.395 690.877 80.8169 690.877 Q78.4297 690.877 77.1566 692.501 Q75.8834 694.092 74.7058 699.535 L74.2284 701.572 Q73.0825 707.014 70.7272 709.433 Q68.3401 711.852 64.2024 711.852 Q59.1735 711.852 56.4362 708.288 Q53.699 704.723 53.699 698.166 Q53.699 694.92 54.1764 692.055 Q54.6538 689.19 55.6087 686.771 Z" fill="#000000" fill-rule="nonzero" fill-opacity="1" /><path clip-path="url(#clip510)" d="M42.6863 665.128 L42.6863 659.717 L96.2537 676.268 L96.2537 681.679 L42.6863 665.128 Z" fill="#000000" fill-rule="nonzero" fill-opacity="1" /><path clip-path="url(#clip510)" d="M47.9698 646.89 L84.9227 646.89 L84.9227 639.124 Q84.9227 629.289 80.4668 624.738 Q76.0108 620.154 66.3985 620.154 Q56.85 620.154 52.4258 624.738 Q47.9698 629.289 47.9698 639.124 L47.9698 646.89 M42.6863 653.32 L42.6863 640.111 Q42.6863 626.297 48.4472 619.836 Q54.1764 613.375 66.3985 613.375 Q78.6844 613.375 84.4453 619.868 Q90.2063 626.361 90.2063 640.111 L90.2063 653.32 L42.6863 653.32 Z" fill="#000000" fill-rule="nonzero" fill-opacity="1" /><path clip-path="url(#clip510)" d="M72.2868 587.18 Q72.2868 594.278 73.9101 597.015 Q75.5333 599.752 79.4482 599.752 Q82.5674 599.752 84.4135 597.715 Q86.2277 595.646 86.2277 592.113 Q86.2277 587.244 82.7902 584.315 Q79.3209 581.355 73.5918 581.355 L72.2868 581.355 L72.2868 587.18 M69.8679 575.499 L90.2063 575.499 L90.2063 581.355 L84.7954 581.355 Q88.0419 583.361 89.6015 586.352 Q91.1293 589.344 91.1293 593.673 Q91.1293 599.147 88.0738 602.394 Q84.9864 605.609 79.8302 605.609 Q73.8146 605.609 70.759 601.598 Q67.7035 597.556 67.7035 589.567 L67.7035 581.355 L67.1306 581.355 Q63.0884 581.355 60.8922 584.029 Q58.6642 586.671 58.6642 591.477 Q58.6642 594.532 59.3963 597.429 Q60.1283 600.325 61.5924 602.999 L56.1816 602.999 Q54.9403 599.784 54.3355 596.76 Q53.699 593.737 53.699 590.872 Q53.699 583.138 57.7094 579.318 Q61.7197 575.499 69.8679 575.499 Z" fill="#000000" fill-rule="nonzero" fill-opacity="1" /><path clip-path="url(#clip510)" d="M93.5165 548.604 Q99.8822 551.086 101.824 553.442 Q103.765 555.797 103.765 559.744 L103.765 564.423 L98.8636 564.423 L98.8636 560.985 Q98.8636 558.566 97.7178 557.229 Q96.572 555.892 92.307 554.269 L89.6334 553.219 L54.5583 567.637 L54.5583 561.431 L82.4401 550.291 L54.5583 539.151 L54.5583 532.944 L93.5165 548.604 Z" fill="#000000" fill-rule="nonzero" fill-opacity="1" /><path clip-path="url(#clip510)" d="M40.7447 490.071 Q48.0653 494.336 55.2267 496.405 Q62.3881 498.474 69.7405 498.474 Q77.0929 498.474 84.318 496.405 Q91.5113 494.304 98.8 490.071 L98.8 495.164 Q91.3203 499.938 84.0952 502.325 Q76.8701 504.68 69.7405 504.68 Q62.6428 504.68 55.4495 502.325 Q48.2563 499.97 40.7447 495.164 L40.7447 490.071 Z" fill="#000000" fill-rule="nonzero" fill-opacity="1" /><path clip-path="url(#clip510)" d="M47.9698 472.024 L84.9227 472.024 L84.9227 464.258 Q84.9227 454.423 80.4668 449.872 Q76.0108 445.288 66.3985 445.288 Q56.85 445.288 52.4258 449.872 Q47.9698 454.423 47.9698 464.258 L47.9698 472.024 M42.6863 478.454 L42.6863 465.245 Q42.6863 451.431 48.4472 444.97 Q54.1764 438.509 66.3985 438.509 Q78.6844 438.509 84.4453 445.002 Q90.2063 451.495 90.2063 465.245 L90.2063 478.454 L42.6863 478.454 Z" fill="#000000" fill-rule="nonzero" fill-opacity="1" /><path clip-path="url(#clip510)" d="M70.9182 398.023 L73.7828 398.023 L73.7828 424.95 Q79.8302 424.568 83.013 421.321 Q86.1641 418.043 86.1641 412.218 Q86.1641 408.845 85.3365 405.694 Q84.509 402.511 82.8539 399.392 L88.3921 399.392 Q89.7289 402.543 90.4291 405.853 Q91.1293 409.163 91.1293 412.569 Q91.1293 421.099 86.1641 426.096 Q81.1988 431.061 72.7324 431.061 Q63.9796 431.061 58.8552 426.35 Q53.699 421.608 53.699 413.587 Q53.699 406.394 58.3459 402.224 Q62.9611 398.023 70.9182 398.023 M69.1995 403.879 Q64.3933 403.943 61.5288 406.585 Q58.6642 409.195 58.6642 413.523 Q58.6642 418.425 61.4333 421.385 Q64.2024 424.313 69.2313 424.759 L69.1995 403.879 Z" fill="#000000" fill-rule="nonzero" fill-opacity="1" /><path clip-path="url(#clip510)" d="M68.6902 358.778 L90.2063 358.778 L90.2063 364.635 L68.8812 364.635 Q63.8204 364.635 61.306 366.608 Q58.7915 368.582 58.7915 372.528 Q58.7915 377.271 61.8152 380.008 Q64.8389 382.745 70.0588 382.745 L90.2063 382.745 L90.2063 388.634 L54.5583 388.634 L54.5583 382.745 L60.0965 382.745 Q56.8818 380.645 55.2904 377.812 Q53.699 374.947 53.699 371.223 Q53.699 365.08 57.5184 361.929 Q61.306 358.778 68.6902 358.778 Z" fill="#000000" fill-rule="nonzero" fill-opacity="1" /><path clip-path="url(#clip510)" d="M61.4015 319.343 Q57.4547 317.147 55.5768 314.091 Q53.699 311.036 53.699 306.898 Q53.699 301.328 57.6139 298.304 Q61.4969 295.28 68.6902 295.28 L90.2063 295.28 L90.2063 301.169 L68.8812 301.169 Q63.7568 301.169 61.2741 302.983 Q58.7915 304.797 58.7915 308.521 Q58.7915 313.073 61.8152 315.714 Q64.8389 318.356 70.0588 318.356 L90.2063 318.356 L90.2063 324.244 L68.8812 324.244 Q63.7249 324.244 61.2741 326.059 Q58.7915 327.873 58.7915 331.66 Q58.7915 336.148 61.8471 338.79 Q64.8708 341.432 70.0588 341.432 L90.2063 341.432 L90.2063 347.32 L54.5583 347.32 L54.5583 341.432 L60.0965 341.432 Q56.8182 339.427 55.2586 336.626 Q53.699 333.825 53.699 329.974 Q53.699 326.09 55.6723 323.385 Q57.6457 320.648 61.4015 319.343 Z" fill="#000000" fill-rule="nonzero" fill-opacity="1" /><path clip-path="url(#clip510)" d="M72.2868 267.399 Q72.2868 274.496 73.9101 277.234 Q75.5333 279.971 79.4482 279.971 Q82.5674 279.971 84.4135 277.934 Q86.2277 275.865 86.2277 272.332 Q86.2277 267.462 82.7902 264.534 Q79.3209 261.574 73.5918 261.574 L72.2868 261.574 L72.2868 267.399 M69.8679 255.718 L90.2063 255.718 L90.2063 261.574 L84.7954 261.574 Q88.0419 263.579 89.6015 266.571 Q91.1293 269.563 91.1293 273.892 Q91.1293 279.366 88.0738 282.613 Q84.9864 285.827 79.8302 285.827 Q73.8146 285.827 70.759 281.817 Q67.7035 277.775 67.7035 269.786 L67.7035 261.574 L67.1306 261.574 Q63.0884 261.574 60.8922 264.248 Q58.6642 266.889 58.6642 271.696 Q58.6642 274.751 59.3963 277.647 Q60.1283 280.544 61.5924 283.217 L56.1816 283.217 Q54.9403 280.003 54.3355 276.979 Q53.699 273.955 53.699 271.091 Q53.699 263.356 57.7094 259.537 Q61.7197 255.718 69.8679 255.718 Z" fill="#000000" fill-rule="nonzero" fill-opacity="1" /><path clip-path="url(#clip510)" d="M60.0328 222.998 Q59.4599 223.985 59.2053 225.162 Q58.9188 226.308 58.9188 227.708 Q58.9188 232.674 62.1653 235.347 Q65.38 237.989 71.4274 237.989 L90.2063 237.989 L90.2063 243.877 L54.5583 243.877 L54.5583 237.989 L60.0965 237.989 Q56.85 236.143 55.2904 233.183 Q53.699 230.223 53.699 225.99 Q53.699 225.385 53.7944 224.653 Q53.8581 223.921 54.0172 223.03 L60.0328 222.998 Z" fill="#000000" fill-rule="nonzero" fill-opacity="1" /><path clip-path="url(#clip510)" d="M40.6811 217.078 L40.6811 211.189 L69.9315 211.189 L54.5583 193.716 L54.5583 186.236 L71.2365 205.142 L90.2063 185.44 L90.2063 193.079 L72.7961 211.189 L90.2063 211.189 L90.2063 217.078 L40.6811 217.078 Z" fill="#000000" fill-rule="nonzero" fill-opacity="1" /><path clip-path="url(#clip510)" d="M40.7447 180.029 L40.7447 174.937 Q48.2563 170.163 55.4495 167.807 Q62.6428 165.42 69.7405 165.42 Q76.8701 165.42 84.0952 167.807 Q91.3203 170.163 98.8 174.937 L98.8 180.029 Q91.5113 175.796 84.318 173.727 Q77.0929 171.627 69.7405 171.627 Q62.3881 171.627 55.2267 173.727 Q48.0653 175.796 40.7447 180.029 Z" fill="#000000" fill-rule="nonzero" fill-opacity="1" /><path clip-path="url(#clip512)" d="M316.926 110.236 L316.926 1042.58 L339.469 1042.58 L339.469 110.236 L316.926 110.236 L316.926 110.236  Z" fill="#009af9" fill-rule="evenodd" fill-opacity="0.5"/>
<polyline clip-path="url(#clip512)" style="stroke:#000000; stroke-linecap:round; stroke-linejoin:round; stroke-width:4; stroke-opacity:0.5; fill:none" points="316.926,110.236 316.926,1042.58 339.469,1042.58 339.469,110.236 316.926,110.236 "/>
<path clip-path="url(#clip512)" d="M514.181 151.112 L514.181 1042.58 L536.724 1042.58 L536.724 151.112 L514.181 151.112 L514.181 151.112  Z" fill="#009af9" fill-rule="evenodd" fill-opacity="0.5"/>
<polyline clip-path="url(#clip512)" style="stroke:#000000; stroke-linecap:round; stroke-linejoin:round; stroke-width:4; stroke-opacity:0.5; fill:none" points="514.181,151.112 514.181,1042.58 536.724,1042.58 536.724,151.112 514.181,151.112 "/>
<path clip-path="url(#clip512)" d="M711.435 174.995 L711.435 1042.58 L733.979 1042.58 L733.979 174.995 L711.435 174.995 L711.435 174.995  Z" fill="#009af9" fill-rule="evenodd" fill-opacity="0.5"/>
<polyline clip-path="url(#clip512)" style="stroke:#000000; stroke-linecap:round; stroke-linejoin:round; stroke-width:4; stroke-opacity:0.5; fill:none" points="711.435,174.995 711.435,1042.58 733.979,1042.58 733.979,174.995 711.435,174.995 "/>
<path clip-path="url(#clip512)" d="M908.69 155.45 L908.69 1042.58 L931.234 1042.58 L931.234 155.45 L908.69 155.45 L908.69 155.45  Z" fill="#009af9" fill-rule="evenodd" fill-opacity="0.5"/>
<polyline clip-path="url(#clip512)" style="stroke:#000000; stroke-linecap:round; stroke-linejoin:round; stroke-width:4; stroke-opacity:0.5; fill:none" points="908.69,155.45 908.69,1042.58 931.234,1042.58 931.234,155.45 908.69,155.45 "/>
<path clip-path="url(#clip512)" d="M1105.94 214.882 L1105.94 1042.58 L1128.49 1042.58 L1128.49 214.882 L1105.94 214.882 L1105.94 214.882  Z" fill="#009af9" fill-rule="evenodd" fill-opacity="0.5"/>
<polyline clip-path="url(#clip512)" style="stroke:#000000; stroke-linecap:round; stroke-linejoin:round; stroke-width:4; stroke-opacity:0.5; fill:none" points="1105.94,214.882 1105.94,1042.58 1128.49,1042.58 1128.49,214.882 1105.94,214.882 "/>
<path clip-path="url(#clip512)" d="M1303.2 237.592 L1303.2 1042.58 L1325.74 1042.58 L1325.74 237.592 L1303.2 237.592 L1303.2 237.592  Z" fill="#009af9" fill-rule="evenodd" fill-opacity="0.5"/>
<polyline clip-path="url(#clip512)" style="stroke:#000000; stroke-linecap:round; stroke-linejoin:round; stroke-width:4; stroke-opacity:0.5; fill:none" points="1303.2,237.592 1303.2,1042.58 1325.74,1042.58 1325.74,237.592 1303.2,237.592 "/>
<path clip-path="url(#clip512)" d="M1500.45 272.409 L1500.45 1042.58 L1523 1042.58 L1523 272.409 L1500.45 272.409 L1500.45 272.409  Z" fill="#009af9" fill-rule="evenodd" fill-opacity="0.5"/>
<polyline clip-path="url(#clip512)" style="stroke:#000000; stroke-linecap:round; stroke-linejoin:round; stroke-width:4; stroke-opacity:0.5; fill:none" points="1500.45,272.409 1500.45,1042.58 1523,1042.58 1523,272.409 1500.45,272.409 "/>
<path clip-path="url(#clip512)" d="M1697.71 222.553 L1697.71 1042.58 L1720.25 1042.58 L1720.25 222.553 L1697.71 222.553 L1697.71 222.553  Z" fill="#009af9" fill-rule="evenodd" fill-opacity="0.5"/>
<polyline clip-path="url(#clip512)" style="stroke:#000000; stroke-linecap:round; stroke-linejoin:round; stroke-width:4; stroke-opacity:0.5; fill:none" points="1697.71,222.553 1697.71,1042.58 1720.25,1042.58 1720.25,222.553 1697.71,222.553 "/>
<path clip-path="url(#clip512)" d="M1894.96 252.534 L1894.96 1042.58 L1917.51 1042.58 L1917.51 252.534 L1894.96 252.534 L1894.96 252.534  Z" fill="#009af9" fill-rule="evenodd" fill-opacity="0.5"/>
<polyline clip-path="url(#clip512)" style="stroke:#000000; stroke-linecap:round; stroke-linejoin:round; stroke-width:4; stroke-opacity:0.5; fill:none" points="1894.96,252.534 1894.96,1042.58 1917.51,1042.58 1917.51,252.534 1894.96,252.534 "/>
<path clip-path="url(#clip512)" d="M2092.22 415.965 L2092.22 1042.58 L2114.76 1042.58 L2114.76 415.965 L2092.22 415.965 L2092.22 415.965  Z" fill="#009af9" fill-rule="evenodd" fill-opacity="0.5"/>
<polyline clip-path="url(#clip512)" style="stroke:#000000; stroke-linecap:round; stroke-linejoin:round; stroke-width:4; stroke-opacity:0.5; fill:none" points="2092.22,415.965 2092.22,1042.58 2114.76,1042.58 2114.76,415.965 2092.22,415.965 "/>
<path clip-path="url(#clip512)" d="M2289.47 328.132 L2289.47 1042.58 L2312.02 1042.58 L2312.02 328.132 L2289.47 328.132 L2289.47 328.132  Z" fill="#009af9" fill-rule="evenodd" fill-opacity="0.5"/>
<polyline clip-path="url(#clip512)" style="stroke:#000000; stroke-linecap:round; stroke-linejoin:round; stroke-width:4; stroke-opacity:0.5; fill:none" points="2289.47,328.132 2289.47,1042.58 2312.02,1042.58 2312.02,328.132 2289.47,328.132 "/>
<circle clip-path="url(#clip512)" style="fill:#009af9; stroke:none; fill-opacity:0" cx="328.198" cy="110.236" r="2"/>
<circle clip-path="url(#clip512)" style="fill:#009af9; stroke:none; fill-opacity:0" cx="525.452" cy="151.112" r="2"/>
<circle clip-path="url(#clip512)" style="fill:#009af9; stroke:none; fill-opacity:0" cx="722.707" cy="174.995" r="2"/>
<circle clip-path="url(#clip512)" style="fill:#009af9; stroke:none; fill-opacity:0" cx="919.962" cy="155.45" r="2"/>
<circle clip-path="url(#clip512)" style="fill:#009af9; stroke:none; fill-opacity:0" cx="1117.22" cy="214.882" r="2"/>
<circle clip-path="url(#clip512)" style="fill:#009af9; stroke:none; fill-opacity:0" cx="1314.47" cy="237.592" r="2"/>
<circle clip-path="url(#clip512)" style="fill:#009af9; stroke:none; fill-opacity:0" cx="1511.73" cy="272.409" r="2"/>
<circle clip-path="url(#clip512)" style="fill:#009af9; stroke:none; fill-opacity:0" cx="1708.98" cy="222.553" r="2"/>
<circle clip-path="url(#clip512)" style="fill:#009af9; stroke:none; fill-opacity:0" cx="1906.24" cy="252.534" r="2"/>
<circle clip-path="url(#clip512)" style="fill:#009af9; stroke:none; fill-opacity:0" cx="2103.49" cy="415.965" r="2"/>
<circle clip-path="url(#clip512)" style="fill:#009af9; stroke:none; fill-opacity:0" cx="2300.74" cy="328.132" r="2"/>
</svg>
