<?xml version="1.0" encoding="utf-8"?>
<svg xmlns="http://www.w3.org/2000/svg" xmlns:xlink="http://www.w3.org/1999/xlink" width="800" height="300" viewBox="0 0 3200 1200">
<defs>
  <clipPath id="clip960">
    <rect x="0" y="0" width="3200" height="1200"/>
  </clipPath>
</defs>
<path clip-path="url(#clip960)" d="
M0 1200 L3200 1200 L3200 0 L0 0  Z
  " fill="#ffffff" fill-rule="evenodd" fill-opacity="1"/>
<defs>
  <clipPath id="clip961">
    <rect x="640" y="0" width="2241" height="1200"/>
  </clipPath>
</defs>
<path clip-path="url(#clip960)" d="
M271.839 1042.58 L3089.76 1042.58 L3089.76 110.236 L271.839 110.236  Z
  " fill="#ffffff" fill-rule="evenodd" fill-opacity="1"/>
<defs>
  <clipPath id="clip962">
    <rect x="271" y="110" width="2819" height="933"/>
  </clipPath>
</defs>
<polyline clip-path="url(#clip962)" style="stroke:#000000; stroke-linecap:round; stroke-linejoin:round; stroke-width:2; stroke-opacity:0.1; fill:none" points="
  328.198,1042.58 328.198,110.236 
  "/>
<polyline clip-path="url(#clip962)" style="stroke:#000000; stroke-linecap:round; stroke-linejoin:round; stroke-width:2; stroke-opacity:0.1; fill:none" points="
  1201.75,1042.58 1201.75,110.236 
  "/>
<polyline clip-path="url(#clip962)" style="stroke:#000000; stroke-linecap:round; stroke-linejoin:round; stroke-width:2; stroke-opacity:0.1; fill:none" points="
  2047.13,1042.58 2047.13,110.236 
  "/>
<polyline clip-path="url(#clip962)" style="stroke:#000000; stroke-linecap:round; stroke-linejoin:round; stroke-width:2; stroke-opacity:0.1; fill:none" points="
  2920.69,1042.58 2920.69,110.236 
  "/>
<polyline clip-path="url(#clip960)" style="stroke:#000000; stroke-linecap:round; stroke-linejoin:round; stroke-width:4; stroke-opacity:1; fill:none" points="
  271.839,1042.58 3089.76,1042.58 
  "/>
<polyline clip-path="url(#clip960)" style="stroke:#000000; stroke-linecap:round; stroke-linejoin:round; stroke-width:4; stroke-opacity:1; fill:none" points="
  328.198,1042.58 328.198,1023.68 
  "/>
<polyline clip-path="url(#clip960)" style="stroke:#000000; stroke-linecap:round; stroke-linejoin:round; stroke-width:4; stroke-opacity:1; fill:none" points="
  1201.75,1042.58 1201.75,1023.68 
  "/>
<polyline clip-path="url(#clip960)" style="stroke:#000000; stroke-linecap:round; stroke-linejoin:round; stroke-width:4; stroke-opacity:1; fill:none" points="
  2047.13,1042.58 2047.13,1023.68 
  "/>
<polyline clip-path="url(#clip960)" style="stroke:#000000; stroke-linecap:round; stroke-linejoin:round; stroke-width:4; stroke-opacity:1; fill:none" points="
  2920.69,1042.58 2920.69,1023.68 
  "/>
<path clip-path="url(#clip960)" d="M199.992 1107.44 L216.312 1107.44 L216.312 1111.38 L194.367 1111.38 L194.367 1107.44 Q197.029 1104.69 201.613 1100.06 Q206.219 1095.4 207.4 1094.06 Q209.645 1091.54 210.525 1089.8 Q211.427 1088.04 211.427 1086.35 Q211.427 1083.6 209.483 1081.86 Q207.562 1080.13 204.46 1080.13 Q202.261 1080.13 199.807 1080.89 Q197.377 1081.65 194.599 1083.2 L194.599 1078.48 Q197.423 1077.35 199.877 1076.77 Q202.33 1076.19 204.367 1076.19 Q209.738 1076.19 212.932 1078.88 Q216.127 1081.56 216.127 1086.05 Q216.127 1088.18 215.316 1090.1 Q214.529 1092 212.423 1094.59 Q211.844 1095.26 208.742 1098.48 Q205.64 1101.68 199.992 1107.44 Z" fill="#000000" fill-rule="evenodd" fill-opacity="1" /><path clip-path="url(#clip960)" d="M236.126 1079.89 Q232.515 1079.89 230.687 1083.46 Q228.881 1087 228.881 1094.13 Q228.881 1101.24 230.687 1104.8 Q232.515 1108.34 236.126 1108.34 Q239.761 1108.34 241.566 1104.8 Q243.395 1101.24 243.395 1094.13 Q243.395 1087 241.566 1083.46 Q239.761 1079.89 236.126 1079.89 M236.126 1076.19 Q241.937 1076.19 244.992 1080.8 Q248.071 1085.38 248.071 1094.13 Q248.071 1102.86 244.992 1107.46 Q241.937 1112.05 236.126 1112.05 Q230.316 1112.05 227.238 1107.46 Q224.182 1102.86 224.182 1094.13 Q224.182 1085.38 227.238 1080.8 Q230.316 1076.19 236.126 1076.19 Z" fill="#000000" fill-rule="evenodd" fill-opacity="1" /><path clip-path="url(#clip960)" d="M260.316 1107.44 L276.635 1107.44 L276.635 1111.38 L254.691 1111.38 L254.691 1107.44 Q257.353 1104.69 261.936 1100.06 Q266.543 1095.4 267.723 1094.06 Q269.969 1091.54 270.848 1089.8 Q271.751 1088.04 271.751 1086.35 Q271.751 1083.6 269.807 1081.86 Q267.886 1080.13 264.784 1080.13 Q262.585 1080.13 260.131 1080.89 Q257.7 1081.65 254.923 1083.2 L254.923 1078.48 Q257.747 1077.35 260.2 1076.77 Q262.654 1076.19 264.691 1076.19 Q270.061 1076.19 273.256 1078.88 Q276.45 1081.56 276.45 1086.05 Q276.45 1088.18 275.64 1090.1 Q274.853 1092 272.747 1094.59 Q272.168 1095.26 269.066 1098.48 Q265.964 1101.68 260.316 1107.44 Z" fill="#000000" fill-rule="evenodd" fill-opacity="1" /><path clip-path="url(#clip960)" d="M300.617 1092.74 Q303.973 1093.46 305.848 1095.73 Q307.746 1098 307.746 1101.33 Q307.746 1106.45 304.228 1109.25 Q300.709 1112.05 294.228 1112.05 Q292.052 1112.05 289.737 1111.61 Q287.446 1111.19 284.992 1110.33 L284.992 1105.82 Q286.936 1106.95 289.251 1107.53 Q291.566 1108.11 294.089 1108.11 Q298.487 1108.11 300.779 1106.38 Q303.094 1104.64 303.094 1101.33 Q303.094 1098.27 300.941 1096.56 Q298.811 1094.82 294.992 1094.82 L290.964 1094.82 L290.964 1090.98 L295.177 1090.98 Q298.626 1090.98 300.455 1089.62 Q302.283 1088.23 302.283 1085.64 Q302.283 1082.97 300.385 1081.56 Q298.51 1080.13 294.992 1080.13 Q293.071 1080.13 290.872 1080.54 Q288.672 1080.96 286.034 1081.84 L286.034 1077.67 Q288.696 1076.93 291.01 1076.56 Q293.348 1076.19 295.409 1076.19 Q300.733 1076.19 303.834 1078.62 Q306.936 1081.03 306.936 1085.15 Q306.936 1088.02 305.293 1090.01 Q303.649 1091.98 300.617 1092.74 Z" fill="#000000" fill-rule="evenodd" fill-opacity="1" /><path clip-path="url(#clip960)" d="M313.858 1096.49 L326.334 1096.49 L326.334 1100.29 L313.858 1100.29 L313.858 1096.49 Z" fill="#000000" fill-rule="evenodd" fill-opacity="1" /><path clip-path="url(#clip960)" d="M343.718 1079.89 Q340.107 1079.89 338.279 1083.46 Q336.473 1087 336.473 1094.13 Q336.473 1101.24 338.279 1104.8 Q340.107 1108.34 343.718 1108.34 Q347.353 1108.34 349.158 1104.8 Q350.987 1101.24 350.987 1094.13 Q350.987 1087 349.158 1083.46 Q347.353 1079.89 343.718 1079.89 M343.718 1076.19 Q349.529 1076.19 352.584 1080.8 Q355.663 1085.38 355.663 1094.13 Q355.663 1102.86 352.584 1107.46 Q349.529 1112.05 343.718 1112.05 Q337.908 1112.05 334.83 1107.46 Q331.774 1102.86 331.774 1094.13 Q331.774 1085.38 334.83 1080.8 Q337.908 1076.19 343.718 1076.19 Z" fill="#000000" fill-rule="evenodd" fill-opacity="1" /><path clip-path="url(#clip960)" d="M363.927 1076.82 L382.283 1076.82 L382.283 1080.75 L368.209 1080.75 L368.209 1089.22 Q369.228 1088.88 370.246 1088.71 Q371.265 1088.53 372.283 1088.53 Q378.07 1088.53 381.45 1091.7 Q384.829 1094.87 384.829 1100.29 Q384.829 1105.87 381.357 1108.97 Q377.885 1112.05 371.566 1112.05 Q369.39 1112.05 367.121 1111.68 Q364.876 1111.31 362.468 1110.57 L362.468 1105.87 Q364.552 1107 366.774 1107.56 Q368.996 1108.11 371.473 1108.11 Q375.478 1108.11 377.815 1106.01 Q380.153 1103.9 380.153 1100.29 Q380.153 1096.68 377.815 1094.57 Q375.478 1092.46 371.473 1092.46 Q369.598 1092.46 367.723 1092.88 Q365.871 1093.3 363.927 1094.18 L363.927 1076.82 Z" fill="#000000" fill-rule="evenodd" fill-opacity="1" /><path clip-path="url(#clip960)" d="M391.288 1096.49 L403.764 1096.49 L403.764 1100.29 L391.288 1100.29 L391.288 1096.49 Z" fill="#000000" fill-rule="evenodd" fill-opacity="1" /><path clip-path="url(#clip960)" d="M421.149 1079.89 Q417.538 1079.89 415.709 1083.46 Q413.903 1087 413.903 1094.13 Q413.903 1101.24 415.709 1104.8 Q417.538 1108.34 421.149 1108.34 Q424.783 1108.34 426.588 1104.8 Q428.417 1101.24 428.417 1094.13 Q428.417 1087 426.588 1083.46 Q424.783 1079.89 421.149 1079.89 M421.149 1076.19 Q426.959 1076.19 430.014 1080.8 Q433.093 1085.38 433.093 1094.13 Q433.093 1102.86 430.014 1107.46 Q426.959 1112.05 421.149 1112.05 Q415.338 1112.05 412.26 1107.46 Q409.204 1102.86 409.204 1094.13 Q409.204 1085.38 412.26 1080.8 Q415.338 1076.19 421.149 1076.19 Z" fill="#000000" fill-rule="evenodd" fill-opacity="1" /><path clip-path="url(#clip960)" d="M442.121 1107.44 L449.76 1107.44 L449.76 1081.07 L441.449 1082.74 L441.449 1078.48 L449.713 1076.82 L454.389 1076.82 L454.389 1107.44 L462.028 1107.44 L462.028 1111.38 L442.121 1111.38 L442.121 1107.44 Z" fill="#000000" fill-rule="evenodd" fill-opacity="1" /><path clip-path="url(#clip960)" d="M1073.55 1107.44 L1089.87 1107.44 L1089.87 1111.38 L1067.92 1111.38 L1067.92 1107.44 Q1070.59 1104.69 1075.17 1100.06 Q1079.78 1095.4 1080.96 1094.06 Q1083.2 1091.54 1084.08 1089.8 Q1084.98 1088.04 1084.98 1086.35 Q1084.98 1083.6 1083.04 1081.86 Q1081.12 1080.13 1078.02 1080.13 Q1075.82 1080.13 1073.36 1080.89 Q1070.93 1081.65 1068.16 1083.2 L1068.16 1078.48 Q1070.98 1077.35 1073.43 1076.77 Q1075.89 1076.19 1077.92 1076.19 Q1083.29 1076.19 1086.49 1078.88 Q1089.68 1081.56 1089.68 1086.05 Q1089.68 1088.18 1088.87 1090.1 Q1088.09 1092 1085.98 1094.59 Q1085.4 1095.26 1082.3 1098.48 Q1079.2 1101.68 1073.55 1107.44 Z" fill="#000000" fill-rule="evenodd" fill-opacity="1" /><path clip-path="url(#clip960)" d="M1109.68 1079.89 Q1106.07 1079.89 1104.24 1083.46 Q1102.44 1087 1102.44 1094.13 Q1102.44 1101.24 1104.24 1104.8 Q1106.07 1108.34 1109.68 1108.34 Q1113.32 1108.34 1115.12 1104.8 Q1116.95 1101.24 1116.95 1094.13 Q1116.95 1087 1115.12 1083.46 Q1113.32 1079.89 1109.68 1079.89 M1109.68 1076.19 Q1115.49 1076.19 1118.55 1080.8 Q1121.63 1085.38 1121.63 1094.13 Q1121.63 1102.86 1118.55 1107.46 Q1115.49 1112.05 1109.68 1112.05 Q1103.87 1112.05 1100.79 1107.46 Q1097.74 1102.86 1097.74 1094.13 Q1097.74 1085.38 1100.79 1080.8 Q1103.87 1076.19 1109.68 1076.19 Z" fill="#000000" fill-rule="evenodd" fill-opacity="1" /><path clip-path="url(#clip960)" d="M1133.87 1107.44 L1150.19 1107.44 L1150.19 1111.38 L1128.25 1111.38 L1128.25 1107.44 Q1130.91 1104.69 1135.49 1100.06 Q1140.1 1095.4 1141.28 1094.06 Q1143.53 1091.54 1144.41 1089.8 Q1145.31 1088.04 1145.31 1086.35 Q1145.31 1083.6 1143.36 1081.86 Q1141.44 1080.13 1138.34 1080.13 Q1136.14 1080.13 1133.69 1080.89 Q1131.26 1081.65 1128.48 1083.2 L1128.48 1078.48 Q1131.3 1077.35 1133.76 1076.77 Q1136.21 1076.19 1138.25 1076.19 Q1143.62 1076.19 1146.81 1078.88 Q1150.01 1081.56 1150.01 1086.05 Q1150.01 1088.18 1149.2 1090.1 Q1148.41 1092 1146.3 1094.59 Q1145.72 1095.26 1142.62 1098.48 Q1139.52 1101.68 1133.87 1107.44 Z" fill="#000000" fill-rule="evenodd" fill-opacity="1" /><path clip-path="url(#clip960)" d="M1174.17 1092.74 Q1177.53 1093.46 1179.4 1095.73 Q1181.3 1098 1181.3 1101.33 Q1181.3 1106.45 1177.78 1109.25 Q1174.27 1112.05 1167.78 1112.05 Q1165.61 1112.05 1163.29 1111.61 Q1161 1111.19 1158.55 1110.33 L1158.55 1105.82 Q1160.49 1106.95 1162.81 1107.53 Q1165.12 1108.11 1167.65 1108.11 Q1172.04 1108.11 1174.34 1106.38 Q1176.65 1104.64 1176.65 1101.33 Q1176.65 1098.27 1174.5 1096.56 Q1172.37 1094.82 1168.55 1094.82 L1164.52 1094.82 L1164.52 1090.98 L1168.73 1090.98 Q1172.18 1090.98 1174.01 1089.62 Q1175.84 1088.23 1175.84 1085.64 Q1175.84 1082.97 1173.94 1081.56 Q1172.07 1080.13 1168.55 1080.13 Q1166.63 1080.13 1164.43 1080.54 Q1162.23 1080.96 1159.59 1081.84 L1159.59 1077.67 Q1162.25 1076.93 1164.57 1076.56 Q1166.9 1076.19 1168.97 1076.19 Q1174.29 1076.19 1177.39 1078.62 Q1180.49 1081.03 1180.49 1085.15 Q1180.49 1088.02 1178.85 1090.01 Q1177.21 1091.98 1174.17 1092.74 Z" fill="#000000" fill-rule="evenodd" fill-opacity="1" /><path clip-path="url(#clip960)" d="M1187.41 1096.49 L1199.89 1096.49 L1199.89 1100.29 L1187.41 1100.29 L1187.41 1096.49 Z" fill="#000000" fill-rule="evenodd" fill-opacity="1" /><path clip-path="url(#clip960)" d="M1217.28 1079.89 Q1213.66 1079.89 1211.84 1083.46 Q1210.03 1087 1210.03 1094.13 Q1210.03 1101.24 1211.84 1104.8 Q1213.66 1108.34 1217.28 1108.34 Q1220.91 1108.34 1222.71 1104.8 Q1224.54 1101.24 1224.54 1094.13 Q1224.54 1087 1222.71 1083.46 Q1220.91 1079.89 1217.28 1079.89 M1217.28 1076.19 Q1223.09 1076.19 1226.14 1080.8 Q1229.22 1085.38 1229.22 1094.13 Q1229.22 1102.86 1226.14 1107.46 Q1223.09 1112.05 1217.28 1112.05 Q1211.46 1112.05 1208.39 1107.46 Q1205.33 1102.86 1205.33 1094.13 Q1205.33 1085.38 1208.39 1080.8 Q1211.46 1076.19 1217.28 1076.19 Z" fill="#000000" fill-rule="evenodd" fill-opacity="1" /><path clip-path="url(#clip960)" d="M1248.02 1092.23 Q1244.87 1092.23 1243.02 1094.39 Q1241.19 1096.54 1241.19 1100.29 Q1241.19 1104.01 1243.02 1106.19 Q1244.87 1108.34 1248.02 1108.34 Q1251.16 1108.34 1252.99 1106.19 Q1254.84 1104.01 1254.84 1100.29 Q1254.84 1096.54 1252.99 1094.39 Q1251.16 1092.23 1248.02 1092.23 M1257.3 1077.58 L1257.3 1081.84 Q1255.54 1081.01 1253.73 1080.57 Q1251.95 1080.13 1250.19 1080.13 Q1245.56 1080.13 1243.11 1083.25 Q1240.68 1086.38 1240.33 1092.7 Q1241.7 1090.68 1243.76 1089.62 Q1245.82 1088.53 1248.29 1088.53 Q1253.5 1088.53 1256.51 1091.7 Q1259.54 1094.85 1259.54 1100.29 Q1259.54 1105.61 1256.4 1108.83 Q1253.25 1112.05 1248.02 1112.05 Q1242.02 1112.05 1238.85 1107.46 Q1235.68 1102.86 1235.68 1094.13 Q1235.68 1085.94 1239.57 1081.07 Q1243.46 1076.19 1250.01 1076.19 Q1251.77 1076.19 1253.55 1076.54 Q1255.35 1076.89 1257.3 1077.58 Z" fill="#000000" fill-rule="evenodd" fill-opacity="1" /><path clip-path="url(#clip960)" d="M1264.84 1096.49 L1277.32 1096.49 L1277.32 1100.29 L1264.84 1100.29 L1264.84 1096.49 Z" fill="#000000" fill-rule="evenodd" fill-opacity="1" /><path clip-path="url(#clip960)" d="M1294.71 1079.89 Q1291.09 1079.89 1289.27 1083.46 Q1287.46 1087 1287.46 1094.13 Q1287.46 1101.24 1289.27 1104.8 Q1291.09 1108.34 1294.71 1108.34 Q1298.34 1108.34 1300.14 1104.8 Q1301.97 1101.24 1301.97 1094.13 Q1301.97 1087 1300.14 1083.46 Q1298.34 1079.89 1294.71 1079.89 M1294.71 1076.19 Q1300.52 1076.19 1303.57 1080.8 Q1306.65 1085.38 1306.65 1094.13 Q1306.65 1102.86 1303.57 1107.46 Q1300.52 1112.05 1294.71 1112.05 Q1288.9 1112.05 1285.82 1107.46 Q1282.76 1102.86 1282.76 1094.13 Q1282.76 1085.38 1285.82 1080.8 Q1288.9 1076.19 1294.71 1076.19 Z" fill="#000000" fill-rule="evenodd" fill-opacity="1" /><path clip-path="url(#clip960)" d="M1315.68 1107.44 L1323.32 1107.44 L1323.32 1081.07 L1315.01 1082.74 L1315.01 1078.48 L1323.27 1076.82 L1327.95 1076.82 L1327.95 1107.44 L1335.58 1107.44 L1335.58 1111.38 L1315.68 1111.38 L1315.68 1107.44 Z" fill="#000000" fill-rule="evenodd" fill-opacity="1" /><path clip-path="url(#clip960)" d="M1918.93 1107.44 L1935.25 1107.44 L1935.25 1111.38 L1913.3 1111.38 L1913.3 1107.44 Q1915.96 1104.69 1920.55 1100.06 Q1925.15 1095.4 1926.33 1094.06 Q1928.58 1091.54 1929.46 1089.8 Q1930.36 1088.04 1930.36 1086.35 Q1930.36 1083.6 1928.42 1081.86 Q1926.5 1080.13 1923.39 1080.13 Q1921.19 1080.13 1918.74 1080.89 Q1916.31 1081.65 1913.53 1083.2 L1913.53 1078.48 Q1916.36 1077.35 1918.81 1076.77 Q1921.26 1076.19 1923.3 1076.19 Q1928.67 1076.19 1931.87 1078.88 Q1935.06 1081.56 1935.06 1086.05 Q1935.06 1088.18 1934.25 1090.1 Q1933.46 1092 1931.36 1094.59 Q1930.78 1095.26 1927.68 1098.48 Q1924.57 1101.68 1918.93 1107.44 Z" fill="#000000" fill-rule="evenodd" fill-opacity="1" /><path clip-path="url(#clip960)" d="M1955.06 1079.89 Q1951.45 1079.89 1949.62 1083.46 Q1947.82 1087 1947.82 1094.13 Q1947.82 1101.24 1949.62 1104.8 Q1951.45 1108.34 1955.06 1108.34 Q1958.69 1108.34 1960.5 1104.8 Q1962.33 1101.24 1962.33 1094.13 Q1962.33 1087 1960.5 1083.46 Q1958.69 1079.89 1955.06 1079.89 M1955.06 1076.19 Q1960.87 1076.19 1963.93 1080.8 Q1967 1085.38 1967 1094.13 Q1967 1102.86 1963.93 1107.46 Q1960.87 1112.05 1955.06 1112.05 Q1949.25 1112.05 1946.17 1107.46 Q1943.12 1102.86 1943.12 1094.13 Q1943.12 1085.38 1946.17 1080.8 Q1949.25 1076.19 1955.06 1076.19 Z" fill="#000000" fill-rule="evenodd" fill-opacity="1" /><path clip-path="url(#clip960)" d="M1979.25 1107.44 L1995.57 1107.44 L1995.57 1111.38 L1973.63 1111.38 L1973.63 1107.44 Q1976.29 1104.69 1980.87 1100.06 Q1985.48 1095.4 1986.66 1094.06 Q1988.9 1091.54 1989.78 1089.8 Q1990.69 1088.04 1990.69 1086.35 Q1990.69 1083.6 1988.74 1081.86 Q1986.82 1080.13 1983.72 1080.13 Q1981.52 1080.13 1979.06 1080.89 Q1976.63 1081.65 1973.86 1083.2 L1973.86 1078.48 Q1976.68 1077.35 1979.13 1076.77 Q1981.59 1076.19 1983.63 1076.19 Q1989 1076.19 1992.19 1078.88 Q1995.38 1081.56 1995.38 1086.05 Q1995.38 1088.18 1994.57 1090.1 Q1993.79 1092 1991.68 1094.59 Q1991.1 1095.26 1988 1098.48 Q1984.9 1101.68 1979.25 1107.44 Z" fill="#000000" fill-rule="evenodd" fill-opacity="1" /><path clip-path="url(#clip960)" d="M2019.55 1092.74 Q2022.91 1093.46 2024.78 1095.73 Q2026.68 1098 2026.68 1101.33 Q2026.68 1106.45 2023.16 1109.25 Q2019.64 1112.05 2013.16 1112.05 Q2010.99 1112.05 2008.67 1111.61 Q2006.38 1111.19 2003.93 1110.33 L2003.93 1105.82 Q2005.87 1106.95 2008.19 1107.53 Q2010.5 1108.11 2013.02 1108.11 Q2017.42 1108.11 2019.71 1106.38 Q2022.03 1104.64 2022.03 1101.33 Q2022.03 1098.27 2019.87 1096.56 Q2017.75 1094.82 2013.93 1094.82 L2009.9 1094.82 L2009.9 1090.98 L2014.11 1090.98 Q2017.56 1090.98 2019.39 1089.62 Q2021.22 1088.23 2021.22 1085.64 Q2021.22 1082.97 2019.32 1081.56 Q2017.44 1080.13 2013.93 1080.13 Q2012 1080.13 2009.81 1080.54 Q2007.61 1080.96 2004.97 1081.84 L2004.97 1077.67 Q2007.63 1076.93 2009.94 1076.56 Q2012.28 1076.19 2014.34 1076.19 Q2019.67 1076.19 2022.77 1078.62 Q2025.87 1081.03 2025.87 1085.15 Q2025.87 1088.02 2024.23 1090.01 Q2022.58 1091.98 2019.55 1092.74 Z" fill="#000000" fill-rule="evenodd" fill-opacity="1" /><path clip-path="url(#clip960)" d="M2032.79 1096.49 L2045.27 1096.49 L2045.27 1100.29 L2032.79 1100.29 L2032.79 1096.49 Z" fill="#000000" fill-rule="evenodd" fill-opacity="1" /><path clip-path="url(#clip960)" d="M2062.65 1079.89 Q2059.04 1079.89 2057.21 1083.46 Q2055.41 1087 2055.41 1094.13 Q2055.41 1101.24 2057.21 1104.8 Q2059.04 1108.34 2062.65 1108.34 Q2066.29 1108.34 2068.09 1104.8 Q2069.92 1101.24 2069.92 1094.13 Q2069.92 1087 2068.09 1083.46 Q2066.29 1079.89 2062.65 1079.89 M2062.65 1076.19 Q2068.46 1076.19 2071.52 1080.8 Q2074.6 1085.38 2074.6 1094.13 Q2074.6 1102.86 2071.52 1107.46 Q2068.46 1112.05 2062.65 1112.05 Q2056.84 1112.05 2053.76 1107.46 Q2050.71 1102.86 2050.71 1094.13 Q2050.71 1085.38 2053.76 1080.8 Q2056.84 1076.19 2062.65 1076.19 Z" fill="#000000" fill-rule="evenodd" fill-opacity="1" /><path clip-path="url(#clip960)" d="M2081.63 1076.82 L2103.86 1076.82 L2103.86 1078.81 L2091.31 1111.38 L2086.43 1111.38 L2098.23 1080.75 L2081.63 1080.75 L2081.63 1076.82 Z" fill="#000000" fill-rule="evenodd" fill-opacity="1" /><path clip-path="url(#clip960)" d="M2110.22 1096.49 L2122.7 1096.49 L2122.7 1100.29 L2110.22 1100.29 L2110.22 1096.49 Z" fill="#000000" fill-rule="evenodd" fill-opacity="1" /><path clip-path="url(#clip960)" d="M2140.08 1079.89 Q2136.47 1079.89 2134.64 1083.46 Q2132.84 1087 2132.84 1094.13 Q2132.84 1101.24 2134.64 1104.8 Q2136.47 1108.34 2140.08 1108.34 Q2143.72 1108.34 2145.52 1104.8 Q2147.35 1101.24 2147.35 1094.13 Q2147.35 1087 2145.52 1083.46 Q2143.72 1079.89 2140.08 1079.89 M2140.08 1076.19 Q2145.89 1076.19 2148.95 1080.8 Q2152.03 1085.38 2152.03 1094.13 Q2152.03 1102.86 2148.95 1107.46 Q2145.89 1112.05 2140.08 1112.05 Q2134.27 1112.05 2131.19 1107.46 Q2128.14 1102.86 2128.14 1094.13 Q2128.14 1085.38 2131.19 1080.8 Q2134.27 1076.19 2140.08 1076.19 Z" fill="#000000" fill-rule="evenodd" fill-opacity="1" /><path clip-path="url(#clip960)" d="M2161.05 1107.44 L2168.69 1107.44 L2168.69 1081.07 L2160.38 1082.74 L2160.38 1078.48 L2168.65 1076.82 L2173.32 1076.82 L2173.32 1107.44 L2180.96 1107.44 L2180.96 1111.38 L2161.05 1111.38 L2161.05 1107.44 Z" fill="#000000" fill-rule="evenodd" fill-opacity="1" /><path clip-path="url(#clip960)" d="M2792.48 1107.44 L2808.8 1107.44 L2808.8 1111.38 L2786.86 1111.38 L2786.86 1107.44 Q2789.52 1104.69 2794.1 1100.06 Q2798.71 1095.4 2799.89 1094.06 Q2802.14 1091.54 2803.02 1089.8 Q2803.92 1088.04 2803.92 1086.35 Q2803.92 1083.6 2801.97 1081.86 Q2800.05 1080.13 2796.95 1080.13 Q2794.75 1080.13 2792.3 1080.89 Q2789.87 1081.65 2787.09 1083.2 L2787.09 1078.48 Q2789.91 1077.35 2792.37 1076.77 Q2794.82 1076.19 2796.86 1076.19 Q2802.23 1076.19 2805.42 1078.88 Q2808.62 1081.56 2808.62 1086.05 Q2808.62 1088.18 2807.81 1090.1 Q2807.02 1092 2804.91 1094.59 Q2804.33 1095.26 2801.23 1098.48 Q2798.13 1101.68 2792.48 1107.44 Z" fill="#000000" fill-rule="evenodd" fill-opacity="1" /><path clip-path="url(#clip960)" d="M2828.62 1079.89 Q2825.01 1079.89 2823.18 1083.46 Q2821.37 1087 2821.37 1094.13 Q2821.37 1101.24 2823.18 1104.8 Q2825.01 1108.34 2828.62 1108.34 Q2832.25 1108.34 2834.06 1104.8 Q2835.89 1101.24 2835.89 1094.13 Q2835.89 1087 2834.06 1083.46 Q2832.25 1079.89 2828.62 1079.89 M2828.62 1076.19 Q2834.43 1076.19 2837.48 1080.8 Q2840.56 1085.38 2840.56 1094.13 Q2840.56 1102.86 2837.48 1107.46 Q2834.43 1112.05 2828.62 1112.05 Q2822.81 1112.05 2819.73 1107.46 Q2816.67 1102.86 2816.67 1094.13 Q2816.67 1085.38 2819.73 1080.8 Q2822.81 1076.19 2828.62 1076.19 Z" fill="#000000" fill-rule="evenodd" fill-opacity="1" /><path clip-path="url(#clip960)" d="M2852.81 1107.44 L2869.13 1107.44 L2869.13 1111.38 L2847.18 1111.38 L2847.18 1107.44 Q2849.84 1104.69 2854.43 1100.06 Q2859.03 1095.4 2860.21 1094.06 Q2862.46 1091.54 2863.34 1089.8 Q2864.24 1088.04 2864.24 1086.35 Q2864.24 1083.6 2862.3 1081.86 Q2860.38 1080.13 2857.27 1080.13 Q2855.08 1080.13 2852.62 1080.89 Q2850.19 1081.65 2847.41 1083.2 L2847.41 1078.48 Q2850.24 1077.35 2852.69 1076.77 Q2855.14 1076.19 2857.18 1076.19 Q2862.55 1076.19 2865.75 1078.88 Q2868.94 1081.56 2868.94 1086.05 Q2868.94 1088.18 2868.13 1090.1 Q2867.34 1092 2865.24 1094.59 Q2864.66 1095.26 2861.56 1098.48 Q2858.45 1101.68 2852.81 1107.44 Z" fill="#000000" fill-rule="evenodd" fill-opacity="1" /><path clip-path="url(#clip960)" d="M2893.11 1092.74 Q2896.46 1093.46 2898.34 1095.73 Q2900.24 1098 2900.24 1101.33 Q2900.24 1106.45 2896.72 1109.25 Q2893.2 1112.05 2886.72 1112.05 Q2884.54 1112.05 2882.23 1111.61 Q2879.94 1111.19 2877.48 1110.33 L2877.48 1105.82 Q2879.43 1106.95 2881.74 1107.53 Q2884.06 1108.11 2886.58 1108.11 Q2890.98 1108.11 2893.27 1106.38 Q2895.58 1104.64 2895.58 1101.33 Q2895.58 1098.27 2893.43 1096.56 Q2891.3 1094.82 2887.48 1094.82 L2883.45 1094.82 L2883.45 1090.98 L2887.67 1090.98 Q2891.12 1090.98 2892.95 1089.62 Q2894.77 1088.23 2894.77 1085.64 Q2894.77 1082.97 2892.88 1081.56 Q2891 1080.13 2887.48 1080.13 Q2885.56 1080.13 2883.36 1080.54 Q2881.16 1080.96 2878.52 1081.84 L2878.52 1077.67 Q2881.19 1076.93 2883.5 1076.56 Q2885.84 1076.19 2887.9 1076.19 Q2893.22 1076.19 2896.33 1078.62 Q2899.43 1081.03 2899.43 1085.15 Q2899.43 1088.02 2897.78 1090.01 Q2896.14 1091.98 2893.11 1092.74 Z" fill="#000000" fill-rule="evenodd" fill-opacity="1" /><path clip-path="url(#clip960)" d="M2906.35 1096.49 L2918.82 1096.49 L2918.82 1100.29 L2906.35 1100.29 L2906.35 1096.49 Z" fill="#000000" fill-rule="evenodd" fill-opacity="1" /><path clip-path="url(#clip960)" d="M2936.21 1079.89 Q2932.6 1079.89 2930.77 1083.46 Q2928.96 1087 2928.96 1094.13 Q2928.96 1101.24 2930.77 1104.8 Q2932.6 1108.34 2936.21 1108.34 Q2939.84 1108.34 2941.65 1104.8 Q2943.48 1101.24 2943.48 1094.13 Q2943.48 1087 2941.65 1083.46 Q2939.84 1079.89 2936.21 1079.89 M2936.21 1076.19 Q2942.02 1076.19 2945.07 1080.8 Q2948.15 1085.38 2948.15 1094.13 Q2948.15 1102.86 2945.07 1107.46 Q2942.02 1112.05 2936.21 1112.05 Q2930.4 1112.05 2927.32 1107.46 Q2924.26 1102.86 2924.26 1094.13 Q2924.26 1085.38 2927.32 1080.8 Q2930.4 1076.19 2936.21 1076.19 Z" fill="#000000" fill-rule="evenodd" fill-opacity="1" /><path clip-path="url(#clip960)" d="M2966.37 1094.96 Q2963.04 1094.96 2961.12 1096.75 Q2959.22 1098.53 2959.22 1101.65 Q2959.22 1104.78 2961.12 1106.56 Q2963.04 1108.34 2966.37 1108.34 Q2969.7 1108.34 2971.63 1106.56 Q2973.55 1104.76 2973.55 1101.65 Q2973.55 1098.53 2971.63 1096.75 Q2969.73 1094.96 2966.37 1094.96 M2961.7 1092.97 Q2958.69 1092.23 2957 1090.17 Q2955.33 1088.11 2955.33 1085.15 Q2955.33 1081.01 2958.27 1078.6 Q2961.23 1076.19 2966.37 1076.19 Q2971.53 1076.19 2974.47 1078.6 Q2977.41 1081.01 2977.41 1085.15 Q2977.41 1088.11 2975.72 1090.17 Q2974.06 1092.23 2971.07 1092.97 Q2974.45 1093.76 2976.32 1096.05 Q2978.22 1098.34 2978.22 1101.65 Q2978.22 1106.68 2975.14 1109.36 Q2972.09 1112.05 2966.37 1112.05 Q2960.65 1112.05 2957.57 1109.36 Q2954.52 1106.68 2954.52 1101.65 Q2954.52 1098.34 2956.42 1096.05 Q2958.32 1093.76 2961.7 1092.97 M2959.98 1085.59 Q2959.98 1088.27 2961.65 1089.78 Q2963.34 1091.28 2966.37 1091.28 Q2969.38 1091.28 2971.07 1089.78 Q2972.78 1088.27 2972.78 1085.59 Q2972.78 1082.9 2971.07 1081.4 Q2969.38 1079.89 2966.37 1079.89 Q2963.34 1079.89 2961.65 1081.4 Q2959.98 1082.9 2959.98 1085.59 Z" fill="#000000" fill-rule="evenodd" fill-opacity="1" /><path clip-path="url(#clip960)" d="M2983.78 1096.49 L2996.26 1096.49 L2996.26 1100.29 L2983.78 1100.29 L2983.78 1096.49 Z" fill="#000000" fill-rule="evenodd" fill-opacity="1" /><path clip-path="url(#clip960)" d="M3013.64 1079.89 Q3010.03 1079.89 3008.2 1083.46 Q3006.39 1087 3006.39 1094.13 Q3006.39 1101.24 3008.2 1104.8 Q3010.03 1108.34 3013.64 1108.34 Q3017.27 1108.34 3019.08 1104.8 Q3020.91 1101.24 3020.91 1094.13 Q3020.91 1087 3019.08 1083.46 Q3017.27 1079.89 3013.64 1079.89 M3013.64 1076.19 Q3019.45 1076.19 3022.5 1080.8 Q3025.58 1085.38 3025.58 1094.13 Q3025.58 1102.86 3022.5 1107.46 Q3019.45 1112.05 3013.64 1112.05 Q3007.83 1112.05 3004.75 1107.46 Q3001.69 1102.86 3001.69 1094.13 Q3001.69 1085.38 3004.75 1080.8 Q3007.83 1076.19 3013.64 1076.19 Z" fill="#000000" fill-rule="evenodd" fill-opacity="1" /><path clip-path="url(#clip960)" d="M3034.61 1107.44 L3042.25 1107.44 L3042.25 1081.07 L3033.94 1082.74 L3033.94 1078.48 L3042.2 1076.82 L3046.88 1076.82 L3046.88 1107.44 L3054.52 1107.44 L3054.52 1111.38 L3034.61 1111.38 L3034.61 1107.44 Z" fill="#000000" fill-rule="evenodd" fill-opacity="1" /><polyline clip-path="url(#clip962)" style="stroke:#000000; stroke-linecap:round; stroke-linejoin:round; stroke-width:2; stroke-opacity:0.1; fill:none" points="
  271.839,1042.58 3089.76,1042.58 
  "/>
<polyline clip-path="url(#clip962)" style="stroke:#000000; stroke-linecap:round; stroke-linejoin:round; stroke-width:2; stroke-opacity:0.1; fill:none" points="
  271.839,634.649 3089.76,634.649 
  "/>
<polyline clip-path="url(#clip962)" style="stroke:#000000; stroke-linecap:round; stroke-linejoin:round; stroke-width:2; stroke-opacity:0.1; fill:none" points="
  271.839,226.723 3089.76,226.723 
  "/>
<polyline clip-path="url(#clip960)" style="stroke:#000000; stroke-linecap:round; stroke-linejoin:round; stroke-width:4; stroke-opacity:1; fill:none" points="
  271.839,1042.58 271.839,110.236 
  "/>
<polyline clip-path="url(#clip960)" style="stroke:#000000; stroke-linecap:round; stroke-linejoin:round; stroke-width:4; stroke-opacity:1; fill:none" points="
  271.839,1042.58 290.737,1042.58 
  "/>
<polyline clip-path="url(#clip960)" style="stroke:#000000; stroke-linecap:round; stroke-linejoin:round; stroke-width:4; stroke-opacity:1; fill:none" points="
  271.839,634.649 290.737,634.649 
  "/>
<polyline clip-path="url(#clip960)" style="stroke:#000000; stroke-linecap:round; stroke-linejoin:round; stroke-width:4; stroke-opacity:1; fill:none" points="
  271.839,226.723 290.737,226.723 
  "/>
<path clip-path="url(#clip960)" d="M153.134 1062.37 L160.772 1062.37 L160.772 1036 L152.462 1037.67 L152.462 1033.41 L160.726 1031.74 L165.402 1031.74 L165.402 1062.37 L173.041 1062.37 L173.041 1066.3 L153.134 1066.3 L153.134 1062.37 Z" fill="#000000" fill-rule="evenodd" fill-opacity="1" /><path clip-path="url(#clip960)" d="M192.485 1034.82 Q188.874 1034.82 187.045 1038.39 Q185.24 1041.93 185.24 1049.06 Q185.24 1056.16 187.045 1059.73 Q188.874 1063.27 192.485 1063.27 Q196.119 1063.27 197.925 1059.73 Q199.754 1056.16 199.754 1049.06 Q199.754 1041.93 197.925 1038.39 Q196.119 1034.82 192.485 1034.82 M192.485 1031.12 Q198.295 1031.12 201.351 1035.72 Q204.43 1040.31 204.43 1049.06 Q204.43 1057.78 201.351 1062.39 Q198.295 1066.97 192.485 1066.97 Q186.675 1066.97 183.596 1062.39 Q180.541 1057.78 180.541 1049.06 Q180.541 1040.31 183.596 1035.72 Q186.675 1031.12 192.485 1031.12 Z" fill="#000000" fill-rule="evenodd" fill-opacity="1" /><path clip-path="url(#clip960)" d="M214.134 1013.31 Q211.2 1013.31 209.715 1016.21 Q208.248 1019.09 208.248 1024.88 Q208.248 1030.66 209.715 1033.55 Q211.2 1036.43 214.134 1036.43 Q217.087 1036.43 218.554 1033.55 Q220.04 1030.66 220.04 1024.88 Q220.04 1019.09 218.554 1016.21 Q217.087 1013.31 214.134 1013.31 M214.134 1010.31 Q218.855 1010.31 221.338 1014.05 Q223.839 1017.77 223.839 1024.88 Q223.839 1031.97 221.338 1035.71 Q218.855 1039.44 214.134 1039.44 Q209.414 1039.44 206.912 1035.71 Q204.43 1031.97 204.43 1024.88 Q204.43 1017.77 206.912 1014.05 Q209.414 1010.31 214.134 1010.31 Z" fill="#000000" fill-rule="evenodd" fill-opacity="1" /><path clip-path="url(#clip960)" d="M155.823 654.442 L163.462 654.442 L163.462 628.076 L155.152 629.743 L155.152 625.483 L163.416 623.817 L168.092 623.817 L168.092 654.442 L175.73 654.442 L175.73 658.377 L155.823 658.377 L155.823 654.442 Z" fill="#000000" fill-rule="evenodd" fill-opacity="1" /><path clip-path="url(#clip960)" d="M195.175 626.895 Q191.564 626.895 189.735 630.46 Q187.929 634.002 187.929 641.132 Q187.929 648.238 189.735 651.803 Q191.564 655.344 195.175 655.344 Q198.809 655.344 200.615 651.803 Q202.443 648.238 202.443 641.132 Q202.443 634.002 200.615 630.46 Q198.809 626.895 195.175 626.895 M195.175 623.192 Q200.985 623.192 204.04 627.798 Q207.119 632.382 207.119 641.132 Q207.119 649.858 204.04 654.465 Q200.985 659.048 195.175 659.048 Q189.365 659.048 186.286 654.465 Q183.23 649.858 183.23 641.132 Q183.23 632.382 186.286 627.798 Q189.365 623.192 195.175 623.192 Z" fill="#000000" fill-rule="evenodd" fill-opacity="1" /><path clip-path="url(#clip960)" d="M207.665 627.769 L213.871 627.769 L213.871 606.347 L207.119 607.701 L207.119 604.241 L213.833 602.886 L217.633 602.886 L217.633 627.769 L223.839 627.769 L223.839 630.966 L207.665 630.966 L207.665 627.769 Z" fill="#000000" fill-rule="evenodd" fill-opacity="1" /><path clip-path="url(#clip960)" d="M154.713 246.515 L162.352 246.515 L162.352 220.149 L154.042 221.816 L154.042 217.557 L162.306 215.89 L166.982 215.89 L166.982 246.515 L174.621 246.515 L174.621 250.45 L154.713 250.45 L154.713 246.515 Z" fill="#000000" fill-rule="evenodd" fill-opacity="1" /><path clip-path="url(#clip960)" d="M194.065 218.969 Q190.454 218.969 188.625 222.534 Q186.82 226.075 186.82 233.205 Q186.82 240.311 188.625 243.876 Q190.454 247.418 194.065 247.418 Q197.699 247.418 199.505 243.876 Q201.334 240.311 201.334 233.205 Q201.334 226.075 199.505 222.534 Q197.699 218.969 194.065 218.969 M194.065 215.265 Q199.875 215.265 202.931 219.872 Q206.009 224.455 206.009 233.205 Q206.009 241.932 202.931 246.538 Q199.875 251.122 194.065 251.122 Q188.255 251.122 185.176 246.538 Q182.121 241.932 182.121 233.205 Q182.121 224.455 185.176 219.872 Q188.255 215.265 194.065 215.265 Z" fill="#000000" fill-rule="evenodd" fill-opacity="1" /><path clip-path="url(#clip960)" d="M210.58 219.843 L223.839 219.843 L223.839 223.04 L206.009 223.04 L206.009 219.843 Q208.172 217.604 211.896 213.843 Q215.639 210.062 216.598 208.972 Q218.423 206.922 219.137 205.511 Q219.871 204.082 219.871 202.709 Q219.871 200.471 218.291 199.06 Q216.73 197.649 214.21 197.649 Q212.423 197.649 210.429 198.27 Q208.454 198.891 206.198 200.151 L206.198 196.314 Q208.492 195.392 210.486 194.922 Q212.479 194.452 214.134 194.452 Q218.498 194.452 221.093 196.634 Q223.689 198.815 223.689 202.464 Q223.689 204.194 223.03 205.755 Q222.391 207.298 220.68 209.404 Q220.209 209.95 217.689 212.564 Q215.169 215.159 210.58 219.843 Z" fill="#000000" fill-rule="evenodd" fill-opacity="1" /><path clip-path="url(#clip960)" d="M83.4268 931.246 L70.6636 931.246 L70.6636 941.75 L65.38 941.75 L65.38 924.881 L85.7821 924.881 Q88.4239 928.605 89.7925 933.092 Q91.1293 937.58 91.1293 942.673 Q91.1293 953.813 84.6363 960.115 Q78.1114 966.385 66.494 966.385 Q54.8448 966.385 48.3518 960.115 Q41.8269 953.813 41.8269 942.673 Q41.8269 938.026 42.9727 933.856 Q44.1186 929.655 46.3466 926.122 L53.1897 926.122 Q50.166 929.687 48.6382 933.697 Q47.1104 937.708 47.1104 942.132 Q47.1104 950.853 51.9802 955.245 Q56.85 959.606 66.494 959.606 Q76.1062 959.606 80.976 955.245 Q85.8458 950.853 85.8458 942.132 Q85.8458 938.726 85.2729 936.052 Q84.6681 933.379 83.4268 931.246 Z" fill="#000000" fill-rule="evenodd" fill-opacity="1" /><path clip-path="url(#clip960)" d="M70.9182 882.899 L73.7828 882.899 L73.7828 909.826 Q79.8302 909.444 83.013 906.197 Q86.1641 902.919 86.1641 897.094 Q86.1641 893.721 85.3365 890.57 Q84.509 887.387 82.8539 884.267 L88.3921 884.267 Q89.7289 887.418 90.4291 890.729 Q91.1293 894.039 91.1293 897.444 Q91.1293 905.975 86.1641 910.972 Q81.1988 915.937 72.7324 915.937 Q63.9796 915.937 58.8552 911.226 Q53.699 906.484 53.699 898.463 Q53.699 891.27 58.3459 887.1 Q62.9611 882.899 70.9182 882.899 M69.1995 888.755 Q64.3933 888.819 61.5288 891.461 Q58.6642 894.071 58.6642 898.399 Q58.6642 903.301 61.4333 906.261 Q64.2024 909.189 69.2313 909.635 L69.1995 888.755 Z" fill="#000000" fill-rule="evenodd" fill-opacity="1" /><path clip-path="url(#clip960)" d="M68.6902 843.654 L90.2063 843.654 L90.2063 849.511 L68.8812 849.511 Q63.8204 849.511 61.306 851.484 Q58.7915 853.457 58.7915 857.404 Q58.7915 862.147 61.8152 864.884 Q64.8389 867.621 70.0588 867.621 L90.2063 867.621 L90.2063 873.509 L54.5583 873.509 L54.5583 867.621 L60.0965 867.621 Q56.8818 865.52 55.2904 862.688 Q53.699 859.823 53.699 856.099 Q53.699 849.956 57.5184 846.805 Q61.306 843.654 68.6902 843.654 Z" fill="#000000" fill-rule="evenodd" fill-opacity="1" /><path clip-path="url(#clip960)" d="M58.6642 818.16 Q58.6642 822.87 62.3563 825.607 Q66.0166 828.345 72.4141 828.345 Q78.8117 828.345 82.5038 825.639 Q86.1641 822.902 86.1641 818.16 Q86.1641 813.481 82.4719 810.744 Q78.7798 808.006 72.4141 808.006 Q66.0803 808.006 62.3881 810.744 Q58.6642 813.481 58.6642 818.16 M53.699 818.16 Q53.699 810.521 58.6642 806.16 Q63.6295 801.8 72.4141 801.8 Q81.167 801.8 86.1641 806.16 Q91.1293 810.521 91.1293 818.16 Q91.1293 825.83 86.1641 830.191 Q81.167 834.519 72.4141 834.519 Q63.6295 834.519 58.6642 830.191 Q53.699 825.83 53.699 818.16 Z" fill="#000000" fill-rule="evenodd" fill-opacity="1" /><path clip-path="url(#clip960)" d="M61.4015 764.338 Q57.4547 762.141 55.5768 759.086 Q53.699 756.03 53.699 751.893 Q53.699 746.323 57.6139 743.299 Q61.4969 740.275 68.6902 740.275 L90.2063 740.275 L90.2063 746.163 L68.8812 746.163 Q63.7568 746.163 61.2741 747.978 Q58.7915 749.792 58.7915 753.516 Q58.7915 758.067 61.8152 760.709 Q64.8389 763.351 70.0588 763.351 L90.2063 763.351 L90.2063 769.239 L68.8812 769.239 Q63.7249 769.239 61.2741 771.053 Q58.7915 772.868 58.7915 776.655 Q58.7915 781.143 61.8471 783.785 Q64.8708 786.427 70.0588 786.427 L90.2063 786.427 L90.2063 792.315 L54.5583 792.315 L54.5583 786.427 L60.0965 786.427 Q56.8182 784.421 55.2586 781.62 Q53.699 778.82 53.699 774.968 Q53.699 771.085 55.6723 768.38 Q57.6457 765.643 61.4015 764.338 Z" fill="#000000" fill-rule="evenodd" fill-opacity="1" /><path clip-path="url(#clip960)" d="M70.9182 698.102 L73.7828 698.102 L73.7828 725.029 Q79.8302 724.647 83.013 721.401 Q86.1641 718.123 86.1641 712.298 Q86.1641 708.924 85.3365 705.773 Q84.509 702.59 82.8539 699.471 L88.3921 699.471 Q89.7289 702.622 90.4291 705.932 Q91.1293 709.242 91.1293 712.648 Q91.1293 721.178 86.1641 726.175 Q81.1988 731.14 72.7324 731.14 Q63.9796 731.14 58.8552 726.43 Q53.699 721.687 53.699 713.667 Q53.699 706.473 58.3459 702.304 Q62.9611 698.102 70.9182 698.102 M69.1995 703.959 Q64.3933 704.022 61.5288 706.664 Q58.6642 709.274 58.6642 713.603 Q58.6642 718.504 61.4333 721.465 Q64.2024 724.393 69.2313 724.838 L69.1995 703.959 Z" fill="#000000" fill-rule="evenodd" fill-opacity="1" /><path clip-path="url(#clip960)" d="M55.6087 665.765 L61.1468 665.765 Q59.8737 668.247 59.2371 670.921 Q58.6006 673.594 58.6006 676.459 Q58.6006 680.819 59.9373 683.016 Q61.2741 685.18 63.9477 685.18 Q65.9848 685.18 67.1624 683.62 Q68.3083 682.061 69.3586 677.35 L69.8042 675.345 Q71.141 669.107 73.5918 666.497 Q76.0108 663.855 80.3713 663.855 Q85.3365 663.855 88.2329 667.802 Q91.1293 671.717 91.1293 678.591 Q91.1293 681.456 90.5564 684.575 Q90.0153 687.663 88.9013 691.1 L82.8539 691.1 Q84.5408 687.854 85.4002 684.703 Q86.2277 681.552 86.2277 678.464 Q86.2277 674.326 84.8273 672.098 Q83.395 669.87 80.8169 669.87 Q78.4297 669.87 77.1566 671.494 Q75.8834 673.085 74.7058 678.528 L74.2284 680.565 Q73.0825 686.008 70.7272 688.427 Q68.3401 690.845 64.2024 690.845 Q59.1735 690.845 56.4362 687.281 Q53.699 683.716 53.699 677.159 Q53.699 673.913 54.1764 671.048 Q54.6538 668.184 55.6087 665.765 Z" fill="#000000" fill-rule="evenodd" fill-opacity="1" /><path clip-path="url(#clip960)" d="M42.6863 644.121 L42.6863 638.71 L96.2537 655.261 L96.2537 660.672 L42.6863 644.121 Z" fill="#000000" fill-rule="evenodd" fill-opacity="1" /><path clip-path="url(#clip960)" d="M47.9698 625.883 L84.9227 625.883 L84.9227 618.117 Q84.9227 608.282 80.4668 603.731 Q76.0108 599.147 66.3985 599.147 Q56.85 599.147 52.4258 603.731 Q47.9698 608.282 47.9698 618.117 L47.9698 625.883 M42.6863 632.313 L42.6863 619.104 Q42.6863 605.29 48.4472 598.829 Q54.1764 592.368 66.3985 592.368 Q78.6844 592.368 84.4453 598.861 Q90.2063 605.354 90.2063 619.104 L90.2063 632.313 L42.6863 632.313 Z" fill="#000000" fill-rule="evenodd" fill-opacity="1" /><path clip-path="url(#clip960)" d="M72.2868 566.173 Q72.2868 573.271 73.9101 576.008 Q75.5333 578.745 79.4482 578.745 Q82.5674 578.745 84.4135 576.708 Q86.2277 574.64 86.2277 571.107 Q86.2277 566.237 82.7902 563.309 Q79.3209 560.348 73.5918 560.348 L72.2868 560.348 L72.2868 566.173 M69.8679 554.492 L90.2063 554.492 L90.2063 560.348 L84.7954 560.348 Q88.0419 562.354 89.6015 565.346 Q91.1293 568.337 91.1293 572.666 Q91.1293 578.141 88.0738 581.387 Q84.9864 584.602 79.8302 584.602 Q73.8146 584.602 70.759 580.591 Q67.7035 576.549 67.7035 568.56 L67.7035 560.348 L67.1306 560.348 Q63.0884 560.348 60.8922 563.022 Q58.6642 565.664 58.6642 570.47 Q58.6642 573.526 59.3963 576.422 Q60.1283 579.318 61.5924 581.992 L56.1816 581.992 Q54.9403 578.777 54.3355 575.753 Q53.699 572.73 53.699 569.865 Q53.699 562.131 57.7094 558.311 Q61.7197 554.492 69.8679 554.492 Z" fill="#000000" fill-rule="evenodd" fill-opacity="1" /><path clip-path="url(#clip960)" d="M93.5165 527.597 Q99.8822 530.08 101.824 532.435 Q103.765 534.79 103.765 538.737 L103.765 543.416 L98.8636 543.416 L98.8636 539.978 Q98.8636 537.559 97.7178 536.222 Q96.572 534.886 92.307 533.262 L89.6334 532.212 L54.5583 546.63 L54.5583 540.424 L82.4401 529.284 L54.5583 518.144 L54.5583 511.937 L93.5165 527.597 Z" fill="#000000" fill-rule="evenodd" fill-opacity="1" /><path clip-path="url(#clip960)" d="M40.7447 469.064 Q48.0653 473.329 55.2267 475.398 Q62.3881 477.467 69.7405 477.467 Q77.0929 477.467 84.318 475.398 Q91.5113 473.297 98.8 469.064 L98.8 474.157 Q91.3203 478.931 84.0952 481.318 Q76.8701 483.674 69.7405 483.674 Q62.6428 483.674 55.4495 481.318 Q48.2563 478.963 40.7447 474.157 L40.7447 469.064 Z" fill="#000000" fill-rule="evenodd" fill-opacity="1" /><path clip-path="url(#clip960)" d="M44.2459 428.96 L50.5161 428.96 Q48.7655 432.621 47.9062 435.867 Q47.0468 439.114 47.0468 442.137 Q47.0468 447.389 49.0838 450.254 Q51.1208 453.086 54.8766 453.086 Q58.0276 453.086 59.6509 451.208 Q61.2423 449.299 62.229 444.015 L63.0247 440.132 Q64.3933 432.939 67.8627 429.533 Q71.3001 426.096 77.0929 426.096 Q83.9997 426.096 87.5645 430.743 Q91.1293 435.358 91.1293 444.302 Q91.1293 447.675 90.3654 451.495 Q89.6015 455.283 88.1056 459.357 L81.4853 459.357 Q83.6814 455.442 84.7954 451.686 Q85.9094 447.93 85.9094 444.302 Q85.9094 438.795 83.7451 435.803 Q81.5808 432.812 77.5704 432.812 Q74.0692 432.812 72.0958 434.976 Q70.1225 437.108 69.1358 442.01 L68.3719 445.925 Q66.9396 453.118 63.8841 456.333 Q60.8285 459.548 55.3859 459.548 Q49.0838 459.548 45.4554 455.123 Q41.8269 450.667 41.8269 442.869 Q41.8269 439.527 42.4317 436.058 Q43.0364 432.589 44.2459 428.96 Z" fill="#000000" fill-rule="evenodd" fill-opacity="1" /><path clip-path="url(#clip960)" d="M54.5583 419.73 L54.5583 413.874 L82.3765 406.553 L54.5583 399.264 L54.5583 392.357 L82.3765 385.037 L54.5583 377.748 L54.5583 371.892 L90.2063 381.218 L90.2063 388.124 L60.9877 395.795 L90.2063 403.497 L90.2063 410.404 L54.5583 419.73 Z" fill="#000000" fill-rule="evenodd" fill-opacity="1" /><path clip-path="url(#clip960)" d="M70.9182 332.52 L73.7828 332.52 L73.7828 359.447 Q79.8302 359.065 83.013 355.818 Q86.1641 352.54 86.1641 346.715 Q86.1641 343.342 85.3365 340.191 Q84.509 337.008 82.8539 333.888 L88.3921 333.888 Q89.7289 337.04 90.4291 340.35 Q91.1293 343.66 91.1293 347.065 Q91.1293 355.596 86.1641 360.593 Q81.1988 365.558 72.7324 365.558 Q63.9796 365.558 58.8552 360.847 Q53.699 356.105 53.699 348.084 Q53.699 340.891 58.3459 336.721 Q62.9611 332.52 70.9182 332.52 M69.1995 338.376 Q64.3933 338.44 61.5288 341.082 Q58.6642 343.692 58.6642 348.02 Q58.6642 352.922 61.4333 355.882 Q64.2024 358.81 69.2313 359.256 L69.1995 338.376 Z" fill="#000000" fill-rule="evenodd" fill-opacity="1" /><path clip-path="url(#clip960)" d="M59.9692 299.45 L40.6811 299.45 L40.6811 293.594 L90.2063 293.594 L90.2063 299.45 L84.8591 299.45 Q88.0419 301.296 89.6015 304.129 Q91.1293 306.93 91.1293 310.876 Q91.1293 317.338 85.9731 321.412 Q80.8169 325.454 72.4141 325.454 Q64.0114 325.454 58.8552 321.412 Q53.699 317.338 53.699 310.876 Q53.699 306.93 55.2586 304.129 Q56.7863 301.296 59.9692 299.45 M72.4141 319.406 Q78.8753 319.406 82.5674 316.765 Q86.2277 314.091 86.2277 309.444 Q86.2277 304.797 82.5674 302.124 Q78.8753 299.45 72.4141 299.45 Q65.9529 299.45 62.2927 302.124 Q58.6006 304.797 58.6006 309.444 Q58.6006 314.091 62.2927 316.765 Q65.9529 319.406 72.4141 319.406 Z" fill="#000000" fill-rule="evenodd" fill-opacity="1" /><path clip-path="url(#clip960)" d="M70.9182 251.039 L73.7828 251.039 L73.7828 277.966 Q79.8302 277.584 83.013 274.337 Q86.1641 271.059 86.1641 265.234 Q86.1641 261.861 85.3365 258.709 Q84.509 255.527 82.8539 252.407 L88.3921 252.407 Q89.7289 255.558 90.4291 258.869 Q91.1293 262.179 91.1293 265.584 Q91.1293 274.114 86.1641 279.112 Q81.1988 284.077 72.7324 284.077 Q63.9796 284.077 58.8552 279.366 Q53.699 274.624 53.699 266.603 Q53.699 259.41 58.3459 255.24 Q62.9611 251.039 70.9182 251.039 M69.1995 256.895 Q64.3933 256.959 61.5288 259.601 Q58.6642 262.211 58.6642 266.539 Q58.6642 271.441 61.4333 274.401 Q64.2024 277.329 69.2313 277.775 L69.1995 256.895 Z" fill="#000000" fill-rule="evenodd" fill-opacity="1" /><path clip-path="url(#clip960)" d="M68.6902 211.794 L90.2063 211.794 L90.2063 217.651 L68.8812 217.651 Q63.8204 217.651 61.306 219.624 Q58.7915 221.597 58.7915 225.544 Q58.7915 230.287 61.8152 233.024 Q64.8389 235.761 70.0588 235.761 L90.2063 235.761 L90.2063 241.649 L54.5583 241.649 L54.5583 235.761 L60.0965 235.761 Q56.8818 233.66 55.2904 230.828 Q53.699 227.963 53.699 224.239 Q53.699 218.096 57.5184 214.945 Q61.306 211.794 68.6902 211.794 Z" fill="#000000" fill-rule="evenodd" fill-opacity="1" /><path clip-path="url(#clip960)" d="M40.7447 201.036 L40.7447 195.944 Q48.2563 191.169 55.4495 188.814 Q62.6428 186.427 69.7405 186.427 Q76.8701 186.427 84.0952 188.814 Q91.3203 191.169 98.8 195.944 L98.8 201.036 Q91.5113 196.803 84.318 194.734 Q77.0929 192.633 69.7405 192.633 Q62.3881 192.633 55.2267 194.734 Q48.0653 196.803 40.7447 201.036 Z" fill="#000000" fill-rule="evenodd" fill-opacity="1" /><path clip-path="url(#clip962)" d="
M288.747 407.719 L288.747 1042.58 L311.29 1042.58 L311.29 407.719 L288.747 407.719 L288.747 407.719  Z
  " fill="#009af9" fill-rule="evenodd" fill-opacity="0.5"/>
<polyline clip-path="url(#clip962)" style="stroke:#000000; stroke-linecap:round; stroke-linejoin:round; stroke-width:4; stroke-opacity:0.5; fill:none" points="
  288.747,407.719 288.747,1042.58 311.29,1042.58 311.29,407.719 288.747,407.719 
  "/>
<path clip-path="url(#clip962)" d="
M316.926 398.14 L316.926 1042.58 L339.469 1042.58 L339.469 398.14 L316.926 398.14 L316.926 398.14  Z
  " fill="#009af9" fill-rule="evenodd" fill-opacity="0.5"/>
<polyline clip-path="url(#clip962)" style="stroke:#000000; stroke-linecap:round; stroke-linejoin:round; stroke-width:4; stroke-opacity:0.5; fill:none" points="
  316.926,398.14 316.926,1042.58 339.469,1042.58 339.469,398.14 316.926,398.14 
  "/>
<path clip-path="url(#clip962)" d="
M345.105 364.293 L345.105 1042.58 L367.649 1042.58 L367.649 364.293 L345.105 364.293 L345.105 364.293  Z
  " fill="#009af9" fill-rule="evenodd" fill-opacity="0.5"/>
<polyline clip-path="url(#clip962)" style="stroke:#000000; stroke-linecap:round; stroke-linejoin:round; stroke-width:4; stroke-opacity:0.5; fill:none" points="
  345.105,364.293 345.105,1042.58 367.649,1042.58 367.649,364.293 345.105,364.293 
  "/>
<path clip-path="url(#clip962)" d="
M373.285 308.577 L373.285 1042.58 L395.828 1042.58 L395.828 308.577 L373.285 308.577 L373.285 308.577  Z
  " fill="#009af9" fill-rule="evenodd" fill-opacity="0.5"/>
<polyline clip-path="url(#clip962)" style="stroke:#000000; stroke-linecap:round; stroke-linejoin:round; stroke-width:4; stroke-opacity:0.5; fill:none" points="
  373.285,308.577 373.285,1042.58 395.828,1042.58 395.828,308.577 373.285,308.577 
  "/>
<path clip-path="url(#clip962)" d="
M401.464 326.308 L401.464 1042.58 L424.007 1042.58 L424.007 326.308 L401.464 326.308 L401.464 326.308  Z
  " fill="#009af9" fill-rule="evenodd" fill-opacity="0.5"/>
<polyline clip-path="url(#clip962)" style="stroke:#000000; stroke-linecap:round; stroke-linejoin:round; stroke-width:4; stroke-opacity:0.5; fill:none" points="
  401.464,326.308 401.464,1042.58 424.007,1042.58 424.007,326.308 401.464,326.308 
  "/>
<path clip-path="url(#clip962)" d="
M429.643 339.198 L429.643 1042.58 L452.186 1042.58 L452.186 339.198 L429.643 339.198 L429.643 339.198  Z
  " fill="#009af9" fill-rule="evenodd" fill-opacity="0.5"/>
<polyline clip-path="url(#clip962)" style="stroke:#000000; stroke-linecap:round; stroke-linejoin:round; stroke-width:4; stroke-opacity:0.5; fill:none" points="
  429.643,339.198 429.643,1042.58 452.186,1042.58 452.186,339.198 429.643,339.198 
  "/>
<path clip-path="url(#clip962)" d="
M457.822 407.719 L457.822 1042.58 L480.366 1042.58 L480.366 407.719 L457.822 407.719 L457.822 407.719  Z
  " fill="#009af9" fill-rule="evenodd" fill-opacity="0.5"/>
<polyline clip-path="url(#clip962)" style="stroke:#000000; stroke-linecap:round; stroke-linejoin:round; stroke-width:4; stroke-opacity:0.5; fill:none" points="
  457.822,407.719 457.822,1042.58 480.366,1042.58 480.366,407.719 457.822,407.719 
  "/>
<path clip-path="url(#clip962)" d="
M486.001 465.371 L486.001 1042.58 L508.545 1042.58 L508.545 465.371 L486.001 465.371 L486.001 465.371  Z
  " fill="#009af9" fill-rule="evenodd" fill-opacity="0.5"/>
<polyline clip-path="url(#clip962)" style="stroke:#000000; stroke-linecap:round; stroke-linejoin:round; stroke-width:4; stroke-opacity:0.5; fill:none" points="
  486.001,465.371 486.001,1042.58 508.545,1042.58 508.545,465.371 486.001,465.371 
  "/>
<path clip-path="url(#clip962)" d="
M514.181 284.92 L514.181 1042.58 L536.724 1042.58 L536.724 284.92 L514.181 284.92 L514.181 284.92  Z
  " fill="#009af9" fill-rule="evenodd" fill-opacity="0.5"/>
<polyline clip-path="url(#clip962)" style="stroke:#000000; stroke-linecap:round; stroke-linejoin:round; stroke-width:4; stroke-opacity:0.5; fill:none" points="
  514.181,284.92 514.181,1042.58 536.724,1042.58 536.724,284.92 514.181,284.92 
  "/>
<path clip-path="url(#clip962)" d="
M542.36 346.013 L542.36 1042.58 L564.903 1042.58 L564.903 346.013 L542.36 346.013 L542.36 346.013  Z
  " fill="#009af9" fill-rule="evenodd" fill-opacity="0.5"/>
<polyline clip-path="url(#clip962)" style="stroke:#000000; stroke-linecap:round; stroke-linejoin:round; stroke-width:4; stroke-opacity:0.5; fill:none" points="
  542.36,346.013 542.36,1042.58 564.903,1042.58 564.903,346.013 542.36,346.013 
  "/>
<path clip-path="url(#clip962)" d="
M570.539 332.636 L570.539 1042.58 L593.083 1042.58 L593.083 332.636 L570.539 332.636 L570.539 332.636  Z
  " fill="#009af9" fill-rule="evenodd" fill-opacity="0.5"/>
<polyline clip-path="url(#clip962)" style="stroke:#000000; stroke-linecap:round; stroke-linejoin:round; stroke-width:4; stroke-opacity:0.5; fill:none" points="
  570.539,332.636 570.539,1042.58 593.083,1042.58 593.083,332.636 570.539,332.636 
  "/>
<path clip-path="url(#clip962)" d="
M598.718 332.636 L598.718 1042.58 L621.262 1042.58 L621.262 332.636 L598.718 332.636 L598.718 332.636  Z
  " fill="#009af9" fill-rule="evenodd" fill-opacity="0.5"/>
<polyline clip-path="url(#clip962)" style="stroke:#000000; stroke-linecap:round; stroke-linejoin:round; stroke-width:4; stroke-opacity:0.5; fill:none" points="
  598.718,332.636 598.718,1042.58 621.262,1042.58 621.262,332.636 598.718,332.636 
  "/>
<path clip-path="url(#clip962)" d="
M626.898 110.236 L626.898 1042.58 L649.441 1042.58 L649.441 110.236 L626.898 110.236 L626.898 110.236  Z
  " fill="#009af9" fill-rule="evenodd" fill-opacity="0.5"/>
<polyline clip-path="url(#clip962)" style="stroke:#000000; stroke-linecap:round; stroke-linejoin:round; stroke-width:4; stroke-opacity:0.5; fill:none" points="
  626.898,110.236 626.898,1042.58 649.441,1042.58 649.441,110.236 626.898,110.236 
  "/>
<path clip-path="url(#clip962)" d="
M655.077 428.585 L655.077 1042.58 L677.62 1042.58 L677.62 428.585 L655.077 428.585 L655.077 428.585  Z
  " fill="#009af9" fill-rule="evenodd" fill-opacity="0.5"/>
<polyline clip-path="url(#clip962)" style="stroke:#000000; stroke-linecap:round; stroke-linejoin:round; stroke-width:4; stroke-opacity:0.5; fill:none" points="
  655.077,428.585 655.077,1042.58 677.62,1042.58 677.62,428.585 655.077,428.585 
  "/>
<path clip-path="url(#clip962)" d="
M683.256 487.091 L683.256 1042.58 L705.8 1042.58 L705.8 487.091 L683.256 487.091 L683.256 487.091  Z
  " fill="#009af9" fill-rule="evenodd" fill-opacity="0.5"/>
<polyline clip-path="url(#clip962)" style="stroke:#000000; stroke-linecap:round; stroke-linejoin:round; stroke-width:4; stroke-opacity:0.5; fill:none" points="
  683.256,487.091 683.256,1042.58 705.8,1042.58 705.8,487.091 683.256,487.091 
  "/>
<path clip-path="url(#clip962)" d="
M711.435 282.477 L711.435 1042.58 L733.979 1042.58 L733.979 282.477 L711.435 282.477 L711.435 282.477  Z
  " fill="#009af9" fill-rule="evenodd" fill-opacity="0.5"/>
<polyline clip-path="url(#clip962)" style="stroke:#000000; stroke-linecap:round; stroke-linejoin:round; stroke-width:4; stroke-opacity:0.5; fill:none" points="
  711.435,282.477 711.435,1042.58 733.979,1042.58 733.979,282.477 711.435,282.477 
  "/>
<path clip-path="url(#clip962)" d="
M739.615 303.04 L739.615 1042.58 L762.158 1042.58 L762.158 303.04 L739.615 303.04 L739.615 303.04  Z
  " fill="#009af9" fill-rule="evenodd" fill-opacity="0.5"/>
<polyline clip-path="url(#clip962)" style="stroke:#000000; stroke-linecap:round; stroke-linejoin:round; stroke-width:4; stroke-opacity:0.5; fill:none" points="
  739.615,303.04 739.615,1042.58 762.158,1042.58 762.158,303.04 739.615,303.04 
  "/>
<path clip-path="url(#clip962)" d="
M767.794 323.227 L767.794 1042.58 L790.337 1042.58 L790.337 323.227 L767.794 323.227 L767.794 323.227  Z
  " fill="#009af9" fill-rule="evenodd" fill-opacity="0.5"/>
<polyline clip-path="url(#clip962)" style="stroke:#000000; stroke-linecap:round; stroke-linejoin:round; stroke-width:4; stroke-opacity:0.5; fill:none" points="
  767.794,323.227 767.794,1042.58 790.337,1042.58 790.337,323.227 767.794,323.227 
  "/>
<path clip-path="url(#clip962)" d="
M795.973 452.242 L795.973 1042.58 L818.517 1042.58 L818.517 452.242 L795.973 452.242 L795.973 452.242  Z
  " fill="#009af9" fill-rule="evenodd" fill-opacity="0.5"/>
<polyline clip-path="url(#clip962)" style="stroke:#000000; stroke-linecap:round; stroke-linejoin:round; stroke-width:4; stroke-opacity:0.5; fill:none" points="
  795.973,452.242 795.973,1042.58 818.517,1042.58 818.517,452.242 795.973,452.242 
  "/>
<path clip-path="url(#clip962)" d="
M824.152 428.585 L824.152 1042.58 L846.696 1042.58 L846.696 428.585 L824.152 428.585 L824.152 428.585  Z
  " fill="#009af9" fill-rule="evenodd" fill-opacity="0.5"/>
<polyline clip-path="url(#clip962)" style="stroke:#000000; stroke-linecap:round; stroke-linejoin:round; stroke-width:4; stroke-opacity:0.5; fill:none" points="
  824.152,428.585 824.152,1042.58 846.696,1042.58 846.696,428.585 824.152,428.585 
  "/>
<path clip-path="url(#clip962)" d="
M852.332 465.371 L852.332 1042.58 L874.875 1042.58 L874.875 465.371 L852.332 465.371 L852.332 465.371  Z
  " fill="#009af9" fill-rule="evenodd" fill-opacity="0.5"/>
<polyline clip-path="url(#clip962)" style="stroke:#000000; stroke-linecap:round; stroke-linejoin:round; stroke-width:4; stroke-opacity:0.5; fill:none" points="
  852.332,465.371 852.332,1042.58 874.875,1042.58 874.875,465.371 852.332,465.371 
  "/>
<path clip-path="url(#clip962)" d="
M880.511 479.551 L880.511 1042.58 L903.054 1042.58 L903.054 479.551 L880.511 479.551 L880.511 479.551  Z
  " fill="#009af9" fill-rule="evenodd" fill-opacity="0.5"/>
<polyline clip-path="url(#clip962)" style="stroke:#000000; stroke-linecap:round; stroke-linejoin:round; stroke-width:4; stroke-opacity:0.5; fill:none" points="
  880.511,479.551 880.511,1042.58 903.054,1042.58 903.054,479.551 880.511,479.551 
  "/>
<path clip-path="url(#clip962)" d="
M908.69 372.168 L908.69 1042.58 L931.234 1042.58 L931.234 372.168 L908.69 372.168 L908.69 372.168  Z
  " fill="#009af9" fill-rule="evenodd" fill-opacity="0.5"/>
<polyline clip-path="url(#clip962)" style="stroke:#000000; stroke-linecap:round; stroke-linejoin:round; stroke-width:4; stroke-opacity:0.5; fill:none" points="
  908.69,372.168 908.69,1042.58 931.234,1042.58 931.234,372.168 908.69,372.168 
  "/>
<path clip-path="url(#clip962)" d="
M936.869 353.1 L936.869 1042.58 L959.413 1042.58 L959.413 353.1 L936.869 353.1 L936.869 353.1  Z
  " fill="#009af9" fill-rule="evenodd" fill-opacity="0.5"/>
<polyline clip-path="url(#clip962)" style="stroke:#000000; stroke-linecap:round; stroke-linejoin:round; stroke-width:4; stroke-opacity:0.5; fill:none" points="
  936.869,353.1 936.869,1042.58 959.413,1042.58 959.413,353.1 936.869,353.1 
  "/>
<path clip-path="url(#clip962)" d="
M965.049 487.091 L965.049 1042.58 L987.592 1042.58 L987.592 487.091 L965.049 487.091 L965.049 487.091  Z
  " fill="#009af9" fill-rule="evenodd" fill-opacity="0.5"/>
<polyline clip-path="url(#clip962)" style="stroke:#000000; stroke-linecap:round; stroke-linejoin:round; stroke-width:4; stroke-opacity:0.5; fill:none" points="
  965.049,487.091 965.049,1042.58 987.592,1042.58 987.592,487.091 965.049,487.091 
  "/>
<path clip-path="url(#clip962)" d="
M993.228 412.709 L993.228 1042.58 L1015.77 1042.58 L1015.77 412.709 L993.228 412.709 L993.228 412.709  Z
  " fill="#009af9" fill-rule="evenodd" fill-opacity="0.5"/>
<polyline clip-path="url(#clip962)" style="stroke:#000000; stroke-linecap:round; stroke-linejoin:round; stroke-width:4; stroke-opacity:0.5; fill:none" points="
  993.228,412.709 993.228,1042.58 1015.77,1042.58 1015.77,412.709 993.228,412.709 
  "/>
<path clip-path="url(#clip962)" d="
M1021.41 221.486 L1021.41 1042.58 L1043.95 1042.58 L1043.95 221.486 L1021.41 221.486 L1021.41 221.486  Z
  " fill="#009af9" fill-rule="evenodd" fill-opacity="0.5"/>
<polyline clip-path="url(#clip962)" style="stroke:#000000; stroke-linecap:round; stroke-linejoin:round; stroke-width:4; stroke-opacity:0.5; fill:none" points="
  1021.41,221.486 1021.41,1042.58 1043.95,1042.58 1043.95,221.486 1021.41,221.486 
  "/>
<path clip-path="url(#clip962)" d="
M1049.59 520.938 L1049.59 1042.58 L1072.13 1042.58 L1072.13 520.938 L1049.59 520.938 L1049.59 520.938  Z
  " fill="#009af9" fill-rule="evenodd" fill-opacity="0.5"/>
<polyline clip-path="url(#clip962)" style="stroke:#000000; stroke-linecap:round; stroke-linejoin:round; stroke-width:4; stroke-opacity:0.5; fill:none" points="
  1049.59,520.938 1049.59,1042.58 1072.13,1042.58 1072.13,520.938 1049.59,520.938 
  "/>
<path clip-path="url(#clip962)" d="
M1077.77 503.207 L1077.77 1042.58 L1100.31 1042.58 L1100.31 503.207 L1077.77 503.207 L1077.77 503.207  Z
  " fill="#009af9" fill-rule="evenodd" fill-opacity="0.5"/>
<polyline clip-path="url(#clip962)" style="stroke:#000000; stroke-linecap:round; stroke-linejoin:round; stroke-width:4; stroke-opacity:0.5; fill:none" points="
  1077.77,503.207 1077.77,1042.58 1100.31,1042.58 1100.31,503.207 1077.77,503.207 
  "/>
<path clip-path="url(#clip962)" d="
M1105.94 364.293 L1105.94 1042.58 L1128.49 1042.58 L1128.49 364.293 L1105.94 364.293 L1105.94 364.293  Z
  " fill="#009af9" fill-rule="evenodd" fill-opacity="0.5"/>
<polyline clip-path="url(#clip962)" style="stroke:#000000; stroke-linecap:round; stroke-linejoin:round; stroke-width:4; stroke-opacity:0.5; fill:none" points="
  1105.94,364.293 1105.94,1042.58 1128.49,1042.58 1128.49,364.293 1105.94,364.293 
  "/>
<path clip-path="url(#clip962)" d="
M1134.12 530.517 L1134.12 1042.58 L1156.67 1042.58 L1156.67 530.517 L1134.12 530.517 L1134.12 530.517  Z
  " fill="#009af9" fill-rule="evenodd" fill-opacity="0.5"/>
<polyline clip-path="url(#clip962)" style="stroke:#000000; stroke-linecap:round; stroke-linejoin:round; stroke-width:4; stroke-opacity:0.5; fill:none" points="
  1134.12,530.517 1134.12,1042.58 1156.67,1042.58 1156.67,530.517 1134.12,530.517 
  "/>
<path clip-path="url(#clip962)" d="
M1162.3 407.719 L1162.3 1042.58 L1184.85 1042.58 L1184.85 407.719 L1162.3 407.719 L1162.3 407.719  Z
  " fill="#009af9" fill-rule="evenodd" fill-opacity="0.5"/>
<polyline clip-path="url(#clip962)" style="stroke:#000000; stroke-linecap:round; stroke-linejoin:round; stroke-width:4; stroke-opacity:0.5; fill:none" points="
  1162.3,407.719 1162.3,1042.58 1184.85,1042.58 1184.85,407.719 1162.3,407.719 
  "/>
<path clip-path="url(#clip962)" d="
M1190.48 440.019 L1190.48 1042.58 L1213.03 1042.58 L1213.03 440.019 L1190.48 440.019 L1190.48 440.019  Z
  " fill="#009af9" fill-rule="evenodd" fill-opacity="0.5"/>
<polyline clip-path="url(#clip962)" style="stroke:#000000; stroke-linecap:round; stroke-linejoin:round; stroke-width:4; stroke-opacity:0.5; fill:none" points="
  1190.48,440.019 1190.48,1042.58 1213.03,1042.58 1213.03,440.019 1190.48,440.019 
  "/>
<path clip-path="url(#clip962)" d="
M1218.66 412.709 L1218.66 1042.58 L1241.21 1042.58 L1241.21 412.709 L1218.66 412.709 L1218.66 412.709  Z
  " fill="#009af9" fill-rule="evenodd" fill-opacity="0.5"/>
<polyline clip-path="url(#clip962)" style="stroke:#000000; stroke-linecap:round; stroke-linejoin:round; stroke-width:4; stroke-opacity:0.5; fill:none" points="
  1218.66,412.709 1218.66,1042.58 1241.21,1042.58 1241.21,412.709 1218.66,412.709 
  "/>
<path clip-path="url(#clip962)" d="
M1246.84 465.371 L1246.84 1042.58 L1269.38 1042.58 L1269.38 465.371 L1246.84 465.371 L1246.84 465.371  Z
  " fill="#009af9" fill-rule="evenodd" fill-opacity="0.5"/>
<polyline clip-path="url(#clip962)" style="stroke:#000000; stroke-linecap:round; stroke-linejoin:round; stroke-width:4; stroke-opacity:0.5; fill:none" points="
  1246.84,465.371 1246.84,1042.58 1269.38,1042.58 1269.38,465.371 1246.84,465.371 
  "/>
<path clip-path="url(#clip962)" d="
M1275.02 465.371 L1275.02 1042.58 L1297.56 1042.58 L1297.56 465.371 L1275.02 465.371 L1275.02 465.371  Z
  " fill="#009af9" fill-rule="evenodd" fill-opacity="0.5"/>
<polyline clip-path="url(#clip962)" style="stroke:#000000; stroke-linecap:round; stroke-linejoin:round; stroke-width:4; stroke-opacity:0.5; fill:none" points="
  1275.02,465.371 1275.02,1042.58 1297.56,1042.58 1297.56,465.371 1275.02,465.371 
  "/>
<path clip-path="url(#clip962)" d="
M1303.2 380.409 L1303.2 1042.58 L1325.74 1042.58 L1325.74 380.409 L1303.2 380.409 L1303.2 380.409  Z
  " fill="#009af9" fill-rule="evenodd" fill-opacity="0.5"/>
<polyline clip-path="url(#clip962)" style="stroke:#000000; stroke-linecap:round; stroke-linejoin:round; stroke-width:4; stroke-opacity:0.5; fill:none" points="
  1303.2,380.409 1303.2,1042.58 1325.74,1042.58 1325.74,380.409 1303.2,380.409 
  "/>
<path clip-path="url(#clip962)" d="
M1331.38 511.851 L1331.38 1042.58 L1353.92 1042.58 L1353.92 511.851 L1331.38 511.851 L1331.38 511.851  Z
  " fill="#009af9" fill-rule="evenodd" fill-opacity="0.5"/>
<polyline clip-path="url(#clip962)" style="stroke:#000000; stroke-linecap:round; stroke-linejoin:round; stroke-width:4; stroke-opacity:0.5; fill:none" points="
  1331.38,511.851 1331.38,1042.58 1353.92,1042.58 1353.92,511.851 1331.38,511.851 
  "/>
<path clip-path="url(#clip962)" d="
M1359.56 412.709 L1359.56 1042.58 L1382.1 1042.58 L1382.1 412.709 L1359.56 412.709 L1359.56 412.709  Z
  " fill="#009af9" fill-rule="evenodd" fill-opacity="0.5"/>
<polyline clip-path="url(#clip962)" style="stroke:#000000; stroke-linecap:round; stroke-linejoin:round; stroke-width:4; stroke-opacity:0.5; fill:none" points="
  1359.56,412.709 1359.56,1042.58 1382.1,1042.58 1382.1,412.709 1359.56,412.709 
  "/>
<path clip-path="url(#clip962)" d="
M1387.74 393.538 L1387.74 1042.58 L1410.28 1042.58 L1410.28 393.538 L1387.74 393.538 L1387.74 393.538  Z
  " fill="#009af9" fill-rule="evenodd" fill-opacity="0.5"/>
<polyline clip-path="url(#clip962)" style="stroke:#000000; stroke-linecap:round; stroke-linejoin:round; stroke-width:4; stroke-opacity:0.5; fill:none" points="
  1387.74,393.538 1387.74,1042.58 1410.28,1042.58 1410.28,393.538 1387.74,393.538 
  "/>
<path clip-path="url(#clip962)" d="
M1415.92 243.431 L1415.92 1042.58 L1438.46 1042.58 L1438.46 243.431 L1415.92 243.431 L1415.92 243.431  Z
  " fill="#009af9" fill-rule="evenodd" fill-opacity="0.5"/>
<polyline clip-path="url(#clip962)" style="stroke:#000000; stroke-linecap:round; stroke-linejoin:round; stroke-width:4; stroke-opacity:0.5; fill:none" points="
  1415.92,243.431 1415.92,1042.58 1438.46,1042.58 1438.46,243.431 1415.92,243.431 
  "/>
<path clip-path="url(#clip962)" d="
M1444.1 465.371 L1444.1 1042.58 L1466.64 1042.58 L1466.64 465.371 L1444.1 465.371 L1444.1 465.371  Z
  " fill="#009af9" fill-rule="evenodd" fill-opacity="0.5"/>
<polyline clip-path="url(#clip962)" style="stroke:#000000; stroke-linecap:round; stroke-linejoin:round; stroke-width:4; stroke-opacity:0.5; fill:none" points="
  1444.1,465.371 1444.1,1042.58 1466.64,1042.58 1466.64,465.371 1444.1,465.371 
  "/>
<path clip-path="url(#clip962)" d="
M1472.28 530.517 L1472.28 1042.58 L1494.82 1042.58 L1494.82 530.517 L1472.28 530.517 L1472.28 530.517  Z
  " fill="#009af9" fill-rule="evenodd" fill-opacity="0.5"/>
<polyline clip-path="url(#clip962)" style="stroke:#000000; stroke-linecap:round; stroke-linejoin:round; stroke-width:4; stroke-opacity:0.5; fill:none" points="
  1472.28,530.517 1472.28,1042.58 1494.82,1042.58 1494.82,530.517 1472.28,530.517 
  "/>
<path clip-path="url(#clip962)" d="
M1500.45 494.966 L1500.45 1042.58 L1523 1042.58 L1523 494.966 L1500.45 494.966 L1500.45 494.966  Z
  " fill="#009af9" fill-rule="evenodd" fill-opacity="0.5"/>
<polyline clip-path="url(#clip962)" style="stroke:#000000; stroke-linecap:round; stroke-linejoin:round; stroke-width:4; stroke-opacity:0.5; fill:none" points="
  1500.45,494.966 1500.45,1042.58 1523,1042.58 1523,494.966 1500.45,494.966 
  "/>
<path clip-path="url(#clip962)" d="
M1528.63 479.551 L1528.63 1042.58 L1551.18 1042.58 L1551.18 479.551 L1528.63 479.551 L1528.63 479.551  Z
  " fill="#009af9" fill-rule="evenodd" fill-opacity="0.5"/>
<polyline clip-path="url(#clip962)" style="stroke:#000000; stroke-linecap:round; stroke-linejoin:round; stroke-width:4; stroke-opacity:0.5; fill:none" points="
  1528.63,479.551 1528.63,1042.58 1551.18,1042.58 1551.18,479.551 1528.63,479.551 
  "/>
<path clip-path="url(#clip962)" d="
M1556.81 452.242 L1556.81 1042.58 L1579.36 1042.58 L1579.36 452.242 L1556.81 452.242 L1556.81 452.242  Z
  " fill="#009af9" fill-rule="evenodd" fill-opacity="0.5"/>
<polyline clip-path="url(#clip962)" style="stroke:#000000; stroke-linecap:round; stroke-linejoin:round; stroke-width:4; stroke-opacity:0.5; fill:none" points="
  1556.81,452.242 1556.81,1042.58 1579.36,1042.58 1579.36,452.242 1556.81,452.242 
  "/>
<path clip-path="url(#clip962)" d="
M1584.99 575.04 L1584.99 1042.58 L1607.54 1042.58 L1607.54 575.04 L1584.99 575.04 L1584.99 575.04  Z
  " fill="#009af9" fill-rule="evenodd" fill-opacity="0.5"/>
<polyline clip-path="url(#clip962)" style="stroke:#000000; stroke-linecap:round; stroke-linejoin:round; stroke-width:4; stroke-opacity:0.5; fill:none" points="
  1584.99,575.04 1584.99,1042.58 1607.54,1042.58 1607.54,575.04 1584.99,575.04 
  "/>
<path clip-path="url(#clip962)" d="
M1613.17 440.019 L1613.17 1042.58 L1635.71 1042.58 L1635.71 440.019 L1613.17 440.019 L1613.17 440.019  Z
  " fill="#009af9" fill-rule="evenodd" fill-opacity="0.5"/>
<polyline clip-path="url(#clip962)" style="stroke:#000000; stroke-linecap:round; stroke-linejoin:round; stroke-width:4; stroke-opacity:0.5; fill:none" points="
  1613.17,440.019 1613.17,1042.58 1635.71,1042.58 1635.71,440.019 1613.17,440.019 
  "/>
<path clip-path="url(#clip962)" d="
M1641.35 575.04 L1641.35 1042.58 L1663.89 1042.58 L1663.89 575.04 L1641.35 575.04 L1641.35 575.04  Z
  " fill="#009af9" fill-rule="evenodd" fill-opacity="0.5"/>
<polyline clip-path="url(#clip962)" style="stroke:#000000; stroke-linecap:round; stroke-linejoin:round; stroke-width:4; stroke-opacity:0.5; fill:none" points="
  1641.35,575.04 1641.35,1042.58 1663.89,1042.58 1663.89,575.04 1641.35,575.04 
  "/>
<path clip-path="url(#clip962)" d="
M1669.53 602.349 L1669.53 1042.58 L1692.07 1042.58 L1692.07 602.349 L1669.53 602.349 L1669.53 602.349  Z
  " fill="#009af9" fill-rule="evenodd" fill-opacity="0.5"/>
<polyline clip-path="url(#clip962)" style="stroke:#000000; stroke-linecap:round; stroke-linejoin:round; stroke-width:4; stroke-opacity:0.5; fill:none" points="
  1669.53,602.349 1669.53,1042.58 1692.07,1042.58 1692.07,602.349 1669.53,602.349 
  "/>
<path clip-path="url(#clip962)" d="
M1697.71 511.851 L1697.71 1042.58 L1720.25 1042.58 L1720.25 511.851 L1697.71 511.851 L1697.71 511.851  Z
  " fill="#009af9" fill-rule="evenodd" fill-opacity="0.5"/>
<polyline clip-path="url(#clip962)" style="stroke:#000000; stroke-linecap:round; stroke-linejoin:round; stroke-width:4; stroke-opacity:0.5; fill:none" points="
  1697.71,511.851 1697.71,1042.58 1720.25,1042.58 1720.25,511.851 1697.71,511.851 
  "/>
<path clip-path="url(#clip962)" d="
M1725.89 520.938 L1725.89 1042.58 L1748.43 1042.58 L1748.43 520.938 L1725.89 520.938 L1725.89 520.938  Z
  " fill="#009af9" fill-rule="evenodd" fill-opacity="0.5"/>
<polyline clip-path="url(#clip962)" style="stroke:#000000; stroke-linecap:round; stroke-linejoin:round; stroke-width:4; stroke-opacity:0.5; fill:none" points="
  1725.89,520.938 1725.89,1042.58 1748.43,1042.58 1748.43,520.938 1725.89,520.938 
  "/>
<path clip-path="url(#clip962)" d="
M1754.07 551.383 L1754.07 1042.58 L1776.61 1042.58 L1776.61 551.383 L1754.07 551.383 L1754.07 551.383  Z
  " fill="#009af9" fill-rule="evenodd" fill-opacity="0.5"/>
<polyline clip-path="url(#clip962)" style="stroke:#000000; stroke-linecap:round; stroke-linejoin:round; stroke-width:4; stroke-opacity:0.5; fill:none" points="
  1754.07,551.383 1754.07,1042.58 1776.61,1042.58 1776.61,551.383 1754.07,551.383 
  "/>
<path clip-path="url(#clip962)" d="
M1782.25 380.409 L1782.25 1042.58 L1804.79 1042.58 L1804.79 380.409 L1782.25 380.409 L1782.25 380.409  Z
  " fill="#009af9" fill-rule="evenodd" fill-opacity="0.5"/>
<polyline clip-path="url(#clip962)" style="stroke:#000000; stroke-linecap:round; stroke-linejoin:round; stroke-width:4; stroke-opacity:0.5; fill:none" points="
  1782.25,380.409 1782.25,1042.58 1804.79,1042.58 1804.79,380.409 1782.25,380.409 
  "/>
<path clip-path="url(#clip962)" d="
M1810.43 617.764 L1810.43 1042.58 L1832.97 1042.58 L1832.97 617.764 L1810.43 617.764 L1810.43 617.764  Z
  " fill="#009af9" fill-rule="evenodd" fill-opacity="0.5"/>
<polyline clip-path="url(#clip962)" style="stroke:#000000; stroke-linecap:round; stroke-linejoin:round; stroke-width:4; stroke-opacity:0.5; fill:none" points="
  1810.43,617.764 1810.43,1042.58 1832.97,1042.58 1832.97,617.764 1810.43,617.764 
  "/>
<path clip-path="url(#clip962)" d="
M1838.61 697.838 L1838.61 1042.58 L1861.15 1042.58 L1861.15 697.838 L1838.61 697.838 L1838.61 697.838  Z
  " fill="#009af9" fill-rule="evenodd" fill-opacity="0.5"/>
<polyline clip-path="url(#clip962)" style="stroke:#000000; stroke-linecap:round; stroke-linejoin:round; stroke-width:4; stroke-opacity:0.5; fill:none" points="
  1838.61,697.838 1838.61,1042.58 1861.15,1042.58 1861.15,697.838 1838.61,697.838 
  "/>
<path clip-path="url(#clip962)" d="
M1866.78 796.979 L1866.78 1042.58 L1889.33 1042.58 L1889.33 796.979 L1866.78 796.979 L1866.78 796.979  Z
  " fill="#009af9" fill-rule="evenodd" fill-opacity="0.5"/>
<polyline clip-path="url(#clip962)" style="stroke:#000000; stroke-linecap:round; stroke-linejoin:round; stroke-width:4; stroke-opacity:0.5; fill:none" points="
  1866.78,796.979 1866.78,1042.58 1889.33,1042.58 1889.33,796.979 1866.78,796.979 
  "/>
<path clip-path="url(#clip962)" d="
M1894.96 588.169 L1894.96 1042.58 L1917.51 1042.58 L1917.51 588.169 L1894.96 588.169 L1894.96 588.169  Z
  " fill="#009af9" fill-rule="evenodd" fill-opacity="0.5"/>
<polyline clip-path="url(#clip962)" style="stroke:#000000; stroke-linecap:round; stroke-linejoin:round; stroke-width:4; stroke-opacity:0.5; fill:none" points="
  1894.96,588.169 1894.96,1042.58 1917.51,1042.58 1917.51,588.169 1894.96,588.169 
  "/>
<path clip-path="url(#clip962)" d="
M1923.14 617.764 L1923.14 1042.58 L1945.69 1042.58 L1945.69 617.764 L1923.14 617.764 L1923.14 617.764  Z
  " fill="#009af9" fill-rule="evenodd" fill-opacity="0.5"/>
<polyline clip-path="url(#clip962)" style="stroke:#000000; stroke-linecap:round; stroke-linejoin:round; stroke-width:4; stroke-opacity:0.5; fill:none" points="
  1923.14,617.764 1923.14,1042.58 1945.69,1042.58 1945.69,617.764 1923.14,617.764 
  "/>
<path clip-path="url(#clip962)" d="
M1951.32 540.643 L1951.32 1042.58 L1973.87 1042.58 L1973.87 540.643 L1951.32 540.643 L1951.32 540.643  Z
  " fill="#009af9" fill-rule="evenodd" fill-opacity="0.5"/>
<polyline clip-path="url(#clip962)" style="stroke:#000000; stroke-linecap:round; stroke-linejoin:round; stroke-width:4; stroke-opacity:0.5; fill:none" points="
  1951.32,540.643 1951.32,1042.58 1973.87,1042.58 1973.87,540.643 1951.32,540.643 
  "/>
<path clip-path="url(#clip962)" d="
M1979.5 551.383 L1979.5 1042.58 L2002.04 1042.58 L2002.04 551.383 L1979.5 551.383 L1979.5 551.383  Z
  " fill="#009af9" fill-rule="evenodd" fill-opacity="0.5"/>
<polyline clip-path="url(#clip962)" style="stroke:#000000; stroke-linecap:round; stroke-linejoin:round; stroke-width:4; stroke-opacity:0.5; fill:none" points="
  1979.5,551.383 1979.5,1042.58 2002.04,1042.58 2002.04,551.383 1979.5,551.383 
  "/>
<path clip-path="url(#clip962)" d="
M2007.68 653.315 L2007.68 1042.58 L2030.22 1042.58 L2030.22 653.315 L2007.68 653.315 L2007.68 653.315  Z
  " fill="#009af9" fill-rule="evenodd" fill-opacity="0.5"/>
<polyline clip-path="url(#clip962)" style="stroke:#000000; stroke-linecap:round; stroke-linejoin:round; stroke-width:4; stroke-opacity:0.5; fill:none" points="
  2007.68,653.315 2007.68,1042.58 2030.22,1042.58 2030.22,653.315 2007.68,653.315 
  "/>
<path clip-path="url(#clip962)" d="
M2035.86 674.181 L2035.86 1042.58 L2058.4 1042.58 L2058.4 674.181 L2035.86 674.181 L2035.86 674.181  Z
  " fill="#009af9" fill-rule="evenodd" fill-opacity="0.5"/>
<polyline clip-path="url(#clip962)" style="stroke:#000000; stroke-linecap:round; stroke-linejoin:round; stroke-width:4; stroke-opacity:0.5; fill:none" points="
  2035.86,674.181 2035.86,1042.58 2058.4,1042.58 2058.4,674.181 2035.86,674.181 
  "/>
<path clip-path="url(#clip962)" d="
M2064.04 634.649 L2064.04 1042.58 L2086.58 1042.58 L2086.58 634.649 L2064.04 634.649 L2064.04 634.649  Z
  " fill="#009af9" fill-rule="evenodd" fill-opacity="0.5"/>
<polyline clip-path="url(#clip962)" style="stroke:#000000; stroke-linecap:round; stroke-linejoin:round; stroke-width:4; stroke-opacity:0.5; fill:none" points="
  2064.04,634.649 2064.04,1042.58 2086.58,1042.58 2086.58,634.649 2064.04,634.649 
  "/>
<path clip-path="url(#clip962)" d="
M2092.22 562.817 L2092.22 1042.58 L2114.76 1042.58 L2114.76 562.817 L2092.22 562.817 L2092.22 562.817  Z
  " fill="#009af9" fill-rule="evenodd" fill-opacity="0.5"/>
<polyline clip-path="url(#clip962)" style="stroke:#000000; stroke-linecap:round; stroke-linejoin:round; stroke-width:4; stroke-opacity:0.5; fill:none" points="
  2092.22,562.817 2092.22,1042.58 2114.76,1042.58 2114.76,562.817 2092.22,562.817 
  "/>
<path clip-path="url(#clip962)" d="
M2120.4 617.764 L2120.4 1042.58 L2142.94 1042.58 L2142.94 617.764 L2120.4 617.764 L2120.4 617.764  Z
  " fill="#009af9" fill-rule="evenodd" fill-opacity="0.5"/>
<polyline clip-path="url(#clip962)" style="stroke:#000000; stroke-linecap:round; stroke-linejoin:round; stroke-width:4; stroke-opacity:0.5; fill:none" points="
  2120.4,617.764 2120.4,1042.58 2142.94,1042.58 2142.94,617.764 2120.4,617.764 
  "/>
<path clip-path="url(#clip962)" d="
M2148.58 697.838 L2148.58 1042.58 L2171.12 1042.58 L2171.12 697.838 L2148.58 697.838 L2148.58 697.838  Z
  " fill="#009af9" fill-rule="evenodd" fill-opacity="0.5"/>
<polyline clip-path="url(#clip962)" style="stroke:#000000; stroke-linecap:round; stroke-linejoin:round; stroke-width:4; stroke-opacity:0.5; fill:none" points="
  2148.58,697.838 2148.58,1042.58 2171.12,1042.58 2171.12,697.838 2148.58,697.838 
  "/>
<path clip-path="url(#clip962)" d="
M2176.76 575.04 L2176.76 1042.58 L2199.3 1042.58 L2199.3 575.04 L2176.76 575.04 L2176.76 575.04  Z
  " fill="#009af9" fill-rule="evenodd" fill-opacity="0.5"/>
<polyline clip-path="url(#clip962)" style="stroke:#000000; stroke-linecap:round; stroke-linejoin:round; stroke-width:4; stroke-opacity:0.5; fill:none" points="
  2176.76,575.04 2176.76,1042.58 2199.3,1042.58 2199.3,575.04 2176.76,575.04 
  "/>
<path clip-path="url(#clip962)" d="
M2204.94 653.315 L2204.94 1042.58 L2227.48 1042.58 L2227.48 653.315 L2204.94 653.315 L2204.94 653.315  Z
  " fill="#009af9" fill-rule="evenodd" fill-opacity="0.5"/>
<polyline clip-path="url(#clip962)" style="stroke:#000000; stroke-linecap:round; stroke-linejoin:round; stroke-width:4; stroke-opacity:0.5; fill:none" points="
  2204.94,653.315 2204.94,1042.58 2227.48,1042.58 2227.48,653.315 2204.94,653.315 
  "/>
<path clip-path="url(#clip962)" d="
M2233.11 653.315 L2233.11 1042.58 L2255.66 1042.58 L2255.66 653.315 L2233.11 653.315 L2233.11 653.315  Z
  " fill="#009af9" fill-rule="evenodd" fill-opacity="0.5"/>
<polyline clip-path="url(#clip962)" style="stroke:#000000; stroke-linecap:round; stroke-linejoin:round; stroke-width:4; stroke-opacity:0.5; fill:none" points="
  2233.11,653.315 2233.11,1042.58 2255.66,1042.58 2255.66,653.315 2233.11,653.315 
  "/>
<path clip-path="url(#clip962)" d="
M2261.29 697.838 L2261.29 1042.58 L2283.84 1042.58 L2283.84 697.838 L2261.29 697.838 L2261.29 697.838  Z
  " fill="#009af9" fill-rule="evenodd" fill-opacity="0.5"/>
<polyline clip-path="url(#clip962)" style="stroke:#000000; stroke-linecap:round; stroke-linejoin:round; stroke-width:4; stroke-opacity:0.5; fill:none" points="
  2261.29,697.838 2261.29,1042.58 2283.84,1042.58 2283.84,697.838 2261.29,697.838 
  "/>
<path clip-path="url(#clip962)" d="
M2289.47 653.315 L2289.47 1042.58 L2312.02 1042.58 L2312.02 653.315 L2289.47 653.315 L2289.47 653.315  Z
  " fill="#009af9" fill-rule="evenodd" fill-opacity="0.5"/>
<polyline clip-path="url(#clip962)" style="stroke:#000000; stroke-linecap:round; stroke-linejoin:round; stroke-width:4; stroke-opacity:0.5; fill:none" points="
  2289.47,653.315 2289.47,1042.58 2312.02,1042.58 2312.02,653.315 2289.47,653.315 
  "/>
<path clip-path="url(#clip962)" d="
M2317.65 588.169 L2317.65 1042.58 L2340.2 1042.58 L2340.2 588.169 L2317.65 588.169 L2317.65 588.169  Z
  " fill="#009af9" fill-rule="evenodd" fill-opacity="0.5"/>
<polyline clip-path="url(#clip962)" style="stroke:#000000; stroke-linecap:round; stroke-linejoin:round; stroke-width:4; stroke-opacity:0.5; fill:none" points="
  2317.65,588.169 2317.65,1042.58 2340.2,1042.58 2340.2,588.169 2317.65,588.169 
  "/>
<path clip-path="url(#clip962)" d="
M2345.83 725.147 L2345.83 1042.58 L2368.38 1042.58 L2368.38 725.147 L2345.83 725.147 L2345.83 725.147  Z
  " fill="#009af9" fill-rule="evenodd" fill-opacity="0.5"/>
<polyline clip-path="url(#clip962)" style="stroke:#000000; stroke-linecap:round; stroke-linejoin:round; stroke-width:4; stroke-opacity:0.5; fill:none" points="
  2345.83,725.147 2345.83,1042.58 2368.38,1042.58 2368.38,725.147 2345.83,725.147 
  "/>
<path clip-path="url(#clip962)" d="
M2374.01 458.684 L2374.01 1042.58 L2396.55 1042.58 L2396.55 458.684 L2374.01 458.684 L2374.01 458.684  Z
  " fill="#009af9" fill-rule="evenodd" fill-opacity="0.5"/>
<polyline clip-path="url(#clip962)" style="stroke:#000000; stroke-linecap:round; stroke-linejoin:round; stroke-width:4; stroke-opacity:0.5; fill:none" points="
  2374.01,458.684 2374.01,1042.58 2396.55,1042.58 2396.55,458.684 2374.01,458.684 
  "/>
<path clip-path="url(#clip962)" d="
M2402.19 725.147 L2402.19 1042.58 L2424.73 1042.58 L2424.73 725.147 L2402.19 725.147 L2402.19 725.147  Z
  " fill="#009af9" fill-rule="evenodd" fill-opacity="0.5"/>
<polyline clip-path="url(#clip962)" style="stroke:#000000; stroke-linecap:round; stroke-linejoin:round; stroke-width:4; stroke-opacity:0.5; fill:none" points="
  2402.19,725.147 2402.19,1042.58 2424.73,1042.58 2424.73,725.147 2402.19,725.147 
  "/>
<path clip-path="url(#clip962)" d="
M2430.37 796.979 L2430.37 1042.58 L2452.91 1042.58 L2452.91 796.979 L2430.37 796.979 L2430.37 796.979  Z
  " fill="#009af9" fill-rule="evenodd" fill-opacity="0.5"/>
<polyline clip-path="url(#clip962)" style="stroke:#000000; stroke-linecap:round; stroke-linejoin:round; stroke-width:4; stroke-opacity:0.5; fill:none" points="
  2430.37,796.979 2430.37,1042.58 2452.91,1042.58 2452.91,796.979 2430.37,796.979 
  "/>
<path clip-path="url(#clip962)" d="
M2458.55 796.979 L2458.55 1042.58 L2481.09 1042.58 L2481.09 796.979 L2458.55 796.979 L2458.55 796.979  Z
  " fill="#009af9" fill-rule="evenodd" fill-opacity="0.5"/>
<polyline clip-path="url(#clip962)" style="stroke:#000000; stroke-linecap:round; stroke-linejoin:round; stroke-width:4; stroke-opacity:0.5; fill:none" points="
  2458.55,796.979 2458.55,1042.58 2481.09,1042.58 2481.09,796.979 2458.55,796.979 
  "/>
<path clip-path="url(#clip962)" d="
M2486.73 674.181 L2486.73 1042.58 L2509.27 1042.58 L2509.27 674.181 L2486.73 674.181 L2486.73 674.181  Z
  " fill="#009af9" fill-rule="evenodd" fill-opacity="0.5"/>
<polyline clip-path="url(#clip962)" style="stroke:#000000; stroke-linecap:round; stroke-linejoin:round; stroke-width:4; stroke-opacity:0.5; fill:none" points="
  2486.73,674.181 2486.73,1042.58 2509.27,1042.58 2509.27,674.181 2486.73,674.181 
  "/>
<path clip-path="url(#clip962)" d="
M2514.91 757.447 L2514.91 1042.58 L2537.45 1042.58 L2537.45 757.447 L2514.91 757.447 L2514.91 757.447  Z
  " fill="#009af9" fill-rule="evenodd" fill-opacity="0.5"/>
<polyline clip-path="url(#clip962)" style="stroke:#000000; stroke-linecap:round; stroke-linejoin:round; stroke-width:4; stroke-opacity:0.5; fill:none" points="
  2514.91,757.447 2514.91,1042.58 2537.45,1042.58 2537.45,757.447 2514.91,757.447 
  "/>
<path clip-path="url(#clip962)" d="
M2543.09 530.517 L2543.09 1042.58 L2565.63 1042.58 L2565.63 530.517 L2543.09 530.517 L2543.09 530.517  Z
  " fill="#009af9" fill-rule="evenodd" fill-opacity="0.5"/>
<polyline clip-path="url(#clip962)" style="stroke:#000000; stroke-linecap:round; stroke-linejoin:round; stroke-width:4; stroke-opacity:0.5; fill:none" points="
  2543.09,530.517 2543.09,1042.58 2565.63,1042.58 2565.63,530.517 2543.09,530.517 
  "/>
<path clip-path="url(#clip962)" d="
M2571.27 796.979 L2571.27 1042.58 L2593.81 1042.58 L2593.81 796.979 L2571.27 796.979 L2571.27 796.979  Z
  " fill="#009af9" fill-rule="evenodd" fill-opacity="0.5"/>
<polyline clip-path="url(#clip962)" style="stroke:#000000; stroke-linecap:round; stroke-linejoin:round; stroke-width:4; stroke-opacity:0.5; fill:none" points="
  2571.27,796.979 2571.27,1042.58 2593.81,1042.58 2593.81,796.979 2571.27,796.979 
  "/>
<path clip-path="url(#clip962)" d="
M2599.44 1042.58 L2599.44 1042.58 L2621.99 1042.58 L2621.99 1042.58 L2599.44 1042.58 L2599.44 1042.58  Z
  " fill="#009af9" fill-rule="evenodd" fill-opacity="0.5"/>
<polyline clip-path="url(#clip962)" style="stroke:#000000; stroke-linecap:round; stroke-linejoin:round; stroke-width:4; stroke-opacity:0.5; fill:none" points="
  2599.44,1042.58 2599.44,1042.58 2621.99,1042.58 2599.44,1042.58 
  "/>
<path clip-path="url(#clip962)" d="
M2627.62 1042.58 L2627.62 1042.58 L2650.17 1042.58 L2650.17 1042.58 L2627.62 1042.58 L2627.62 1042.58  Z
  " fill="#009af9" fill-rule="evenodd" fill-opacity="0.5"/>
<polyline clip-path="url(#clip962)" style="stroke:#000000; stroke-linecap:round; stroke-linejoin:round; stroke-width:4; stroke-opacity:0.5; fill:none" points="
  2627.62,1042.58 2627.62,1042.58 2650.17,1042.58 2627.62,1042.58 
  "/>
<path clip-path="url(#clip962)" d="
M2655.8 1042.58 L2655.8 1042.58 L2678.35 1042.58 L2678.35 1042.58 L2655.8 1042.58 L2655.8 1042.58  Z
  " fill="#009af9" fill-rule="evenodd" fill-opacity="0.5"/>
<polyline clip-path="url(#clip962)" style="stroke:#000000; stroke-linecap:round; stroke-linejoin:round; stroke-width:4; stroke-opacity:0.5; fill:none" points="
  2655.8,1042.58 2655.8,1042.58 2678.35,1042.58 2655.8,1042.58 
  "/>
<circle clip-path="url(#clip962)" style="fill:#009af9; stroke:none; fill-opacity:0" cx="300.018" cy="407.719" r="2"/>
<circle clip-path="url(#clip962)" style="fill:#009af9; stroke:none; fill-opacity:0" cx="328.198" cy="398.14" r="2"/>
<circle clip-path="url(#clip962)" style="fill:#009af9; stroke:none; fill-opacity:0" cx="356.377" cy="364.293" r="2"/>
<circle clip-path="url(#clip962)" style="fill:#009af9; stroke:none; fill-opacity:0" cx="384.556" cy="308.577" r="2"/>
<circle clip-path="url(#clip962)" style="fill:#009af9; stroke:none; fill-opacity:0" cx="412.735" cy="326.308" r="2"/>
<circle clip-path="url(#clip962)" style="fill:#009af9; stroke:none; fill-opacity:0" cx="440.915" cy="339.198" r="2"/>
<circle clip-path="url(#clip962)" style="fill:#009af9; stroke:none; fill-opacity:0" cx="469.094" cy="407.719" r="2"/>
<circle clip-path="url(#clip962)" style="fill:#009af9; stroke:none; fill-opacity:0" cx="497.273" cy="465.371" r="2"/>
<circle clip-path="url(#clip962)" style="fill:#009af9; stroke:none; fill-opacity:0" cx="525.452" cy="284.92" r="2"/>
<circle clip-path="url(#clip962)" style="fill:#009af9; stroke:none; fill-opacity:0" cx="553.632" cy="346.013" r="2"/>
<circle clip-path="url(#clip962)" style="fill:#009af9; stroke:none; fill-opacity:0" cx="581.811" cy="332.636" r="2"/>
<circle clip-path="url(#clip962)" style="fill:#009af9; stroke:none; fill-opacity:0" cx="609.99" cy="332.636" r="2"/>
<circle clip-path="url(#clip962)" style="fill:#009af9; stroke:none; fill-opacity:0" cx="638.169" cy="110.236" r="2"/>
<circle clip-path="url(#clip962)" style="fill:#009af9; stroke:none; fill-opacity:0" cx="666.349" cy="428.585" r="2"/>
<circle clip-path="url(#clip962)" style="fill:#009af9; stroke:none; fill-opacity:0" cx="694.528" cy="487.091" r="2"/>
<circle clip-path="url(#clip962)" style="fill:#009af9; stroke:none; fill-opacity:0" cx="722.707" cy="282.477" r="2"/>
<circle clip-path="url(#clip962)" style="fill:#009af9; stroke:none; fill-opacity:0" cx="750.886" cy="303.04" r="2"/>
<circle clip-path="url(#clip962)" style="fill:#009af9; stroke:none; fill-opacity:0" cx="779.066" cy="323.227" r="2"/>
<circle clip-path="url(#clip962)" style="fill:#009af9; stroke:none; fill-opacity:0" cx="807.245" cy="452.242" r="2"/>
<circle clip-path="url(#clip962)" style="fill:#009af9; stroke:none; fill-opacity:0" cx="835.424" cy="428.585" r="2"/>
<circle clip-path="url(#clip962)" style="fill:#009af9; stroke:none; fill-opacity:0" cx="863.603" cy="465.371" r="2"/>
<circle clip-path="url(#clip962)" style="fill:#009af9; stroke:none; fill-opacity:0" cx="891.783" cy="479.551" r="2"/>
<circle clip-path="url(#clip962)" style="fill:#009af9; stroke:none; fill-opacity:0" cx="919.962" cy="372.168" r="2"/>
<circle clip-path="url(#clip962)" style="fill:#009af9; stroke:none; fill-opacity:0" cx="948.141" cy="353.1" r="2"/>
<circle clip-path="url(#clip962)" style="fill:#009af9; stroke:none; fill-opacity:0" cx="976.32" cy="487.091" r="2"/>
<circle clip-path="url(#clip962)" style="fill:#009af9; stroke:none; fill-opacity:0" cx="1004.5" cy="412.709" r="2"/>
<circle clip-path="url(#clip962)" style="fill:#009af9; stroke:none; fill-opacity:0" cx="1032.68" cy="221.486" r="2"/>
<circle clip-path="url(#clip962)" style="fill:#009af9; stroke:none; fill-opacity:0" cx="1060.86" cy="520.938" r="2"/>
<circle clip-path="url(#clip962)" style="fill:#009af9; stroke:none; fill-opacity:0" cx="1089.04" cy="503.207" r="2"/>
<circle clip-path="url(#clip962)" style="fill:#009af9; stroke:none; fill-opacity:0" cx="1117.22" cy="364.293" r="2"/>
<circle clip-path="url(#clip962)" style="fill:#009af9; stroke:none; fill-opacity:0" cx="1145.4" cy="530.517" r="2"/>
<circle clip-path="url(#clip962)" style="fill:#009af9; stroke:none; fill-opacity:0" cx="1173.58" cy="407.719" r="2"/>
<circle clip-path="url(#clip962)" style="fill:#009af9; stroke:none; fill-opacity:0" cx="1201.75" cy="440.019" r="2"/>
<circle clip-path="url(#clip962)" style="fill:#009af9; stroke:none; fill-opacity:0" cx="1229.93" cy="412.709" r="2"/>
<circle clip-path="url(#clip962)" style="fill:#009af9; stroke:none; fill-opacity:0" cx="1258.11" cy="465.371" r="2"/>
<circle clip-path="url(#clip962)" style="fill:#009af9; stroke:none; fill-opacity:0" cx="1286.29" cy="465.371" r="2"/>
<circle clip-path="url(#clip962)" style="fill:#009af9; stroke:none; fill-opacity:0" cx="1314.47" cy="380.409" r="2"/>
<circle clip-path="url(#clip962)" style="fill:#009af9; stroke:none; fill-opacity:0" cx="1342.65" cy="511.851" r="2"/>
<circle clip-path="url(#clip962)" style="fill:#009af9; stroke:none; fill-opacity:0" cx="1370.83" cy="412.709" r="2"/>
<circle clip-path="url(#clip962)" style="fill:#009af9; stroke:none; fill-opacity:0" cx="1399.01" cy="393.538" r="2"/>
<circle clip-path="url(#clip962)" style="fill:#009af9; stroke:none; fill-opacity:0" cx="1427.19" cy="243.431" r="2"/>
<circle clip-path="url(#clip962)" style="fill:#009af9; stroke:none; fill-opacity:0" cx="1455.37" cy="465.371" r="2"/>
<circle clip-path="url(#clip962)" style="fill:#009af9; stroke:none; fill-opacity:0" cx="1483.55" cy="530.517" r="2"/>
<circle clip-path="url(#clip962)" style="fill:#009af9; stroke:none; fill-opacity:0" cx="1511.73" cy="494.966" r="2"/>
<circle clip-path="url(#clip962)" style="fill:#009af9; stroke:none; fill-opacity:0" cx="1539.91" cy="479.551" r="2"/>
<circle clip-path="url(#clip962)" style="fill:#009af9; stroke:none; fill-opacity:0" cx="1568.08" cy="452.242" r="2"/>
<circle clip-path="url(#clip962)" style="fill:#009af9; stroke:none; fill-opacity:0" cx="1596.26" cy="575.04" r="2"/>
<circle clip-path="url(#clip962)" style="fill:#009af9; stroke:none; fill-opacity:0" cx="1624.44" cy="440.019" r="2"/>
<circle clip-path="url(#clip962)" style="fill:#009af9; stroke:none; fill-opacity:0" cx="1652.62" cy="575.04" r="2"/>
<circle clip-path="url(#clip962)" style="fill:#009af9; stroke:none; fill-opacity:0" cx="1680.8" cy="602.349" r="2"/>
<circle clip-path="url(#clip962)" style="fill:#009af9; stroke:none; fill-opacity:0" cx="1708.98" cy="511.851" r="2"/>
<circle clip-path="url(#clip962)" style="fill:#009af9; stroke:none; fill-opacity:0" cx="1737.16" cy="520.938" r="2"/>
<circle clip-path="url(#clip962)" style="fill:#009af9; stroke:none; fill-opacity:0" cx="1765.34" cy="551.383" r="2"/>
<circle clip-path="url(#clip962)" style="fill:#009af9; stroke:none; fill-opacity:0" cx="1793.52" cy="380.409" r="2"/>
<circle clip-path="url(#clip962)" style="fill:#009af9; stroke:none; fill-opacity:0" cx="1821.7" cy="617.764" r="2"/>
<circle clip-path="url(#clip962)" style="fill:#009af9; stroke:none; fill-opacity:0" cx="1849.88" cy="697.838" r="2"/>
<circle clip-path="url(#clip962)" style="fill:#009af9; stroke:none; fill-opacity:0" cx="1878.06" cy="796.979" r="2"/>
<circle clip-path="url(#clip962)" style="fill:#009af9; stroke:none; fill-opacity:0" cx="1906.24" cy="588.169" r="2"/>
<circle clip-path="url(#clip962)" style="fill:#009af9; stroke:none; fill-opacity:0" cx="1934.41" cy="617.764" r="2"/>
<circle clip-path="url(#clip962)" style="fill:#009af9; stroke:none; fill-opacity:0" cx="1962.59" cy="540.643" r="2"/>
<circle clip-path="url(#clip962)" style="fill:#009af9; stroke:none; fill-opacity:0" cx="1990.77" cy="551.383" r="2"/>
<circle clip-path="url(#clip962)" style="fill:#009af9; stroke:none; fill-opacity:0" cx="2018.95" cy="653.315" r="2"/>
<circle clip-path="url(#clip962)" style="fill:#009af9; stroke:none; fill-opacity:0" cx="2047.13" cy="674.181" r="2"/>
<circle clip-path="url(#clip962)" style="fill:#009af9; stroke:none; fill-opacity:0" cx="2075.31" cy="634.649" r="2"/>
<circle clip-path="url(#clip962)" style="fill:#009af9; stroke:none; fill-opacity:0" cx="2103.49" cy="562.817" r="2"/>
<circle clip-path="url(#clip962)" style="fill:#009af9; stroke:none; fill-opacity:0" cx="2131.67" cy="617.764" r="2"/>
<circle clip-path="url(#clip962)" style="fill:#009af9; stroke:none; fill-opacity:0" cx="2159.85" cy="697.838" r="2"/>
<circle clip-path="url(#clip962)" style="fill:#009af9; stroke:none; fill-opacity:0" cx="2188.03" cy="575.04" r="2"/>
<circle clip-path="url(#clip962)" style="fill:#009af9; stroke:none; fill-opacity:0" cx="2216.21" cy="653.315" r="2"/>
<circle clip-path="url(#clip962)" style="fill:#009af9; stroke:none; fill-opacity:0" cx="2244.39" cy="653.315" r="2"/>
<circle clip-path="url(#clip962)" style="fill:#009af9; stroke:none; fill-opacity:0" cx="2272.57" cy="697.838" r="2"/>
<circle clip-path="url(#clip962)" style="fill:#009af9; stroke:none; fill-opacity:0" cx="2300.74" cy="653.315" r="2"/>
<circle clip-path="url(#clip962)" style="fill:#009af9; stroke:none; fill-opacity:0" cx="2328.92" cy="588.169" r="2"/>
<circle clip-path="url(#clip962)" style="fill:#009af9; stroke:none; fill-opacity:0" cx="2357.1" cy="725.147" r="2"/>
<circle clip-path="url(#clip962)" style="fill:#009af9; stroke:none; fill-opacity:0" cx="2385.28" cy="458.684" r="2"/>
<circle clip-path="url(#clip962)" style="fill:#009af9; stroke:none; fill-opacity:0" cx="2413.46" cy="725.147" r="2"/>
<circle clip-path="url(#clip962)" style="fill:#009af9; stroke:none; fill-opacity:0" cx="2441.64" cy="796.979" r="2"/>
<circle clip-path="url(#clip962)" style="fill:#009af9; stroke:none; fill-opacity:0" cx="2469.82" cy="796.979" r="2"/>
<circle clip-path="url(#clip962)" style="fill:#009af9; stroke:none; fill-opacity:0" cx="2498" cy="674.181" r="2"/>
<circle clip-path="url(#clip962)" style="fill:#009af9; stroke:none; fill-opacity:0" cx="2526.18" cy="757.447" r="2"/>
<circle clip-path="url(#clip962)" style="fill:#009af9; stroke:none; fill-opacity:0" cx="2554.36" cy="530.517" r="2"/>
<circle clip-path="url(#clip962)" style="fill:#009af9; stroke:none; fill-opacity:0" cx="2582.54" cy="796.979" r="2"/>
<circle clip-path="url(#clip962)" style="fill:#009af9; stroke:none; fill-opacity:0" cx="2610.72" cy="1042.58" r="2"/>
<circle clip-path="url(#clip962)" style="fill:#009af9; stroke:none; fill-opacity:0" cx="2638.9" cy="1042.58" r="2"/>
<circle clip-path="url(#clip962)" style="fill:#009af9; stroke:none; fill-opacity:0" cx="2667.08" cy="1042.58" r="2"/>
</svg>
