<?xml version="1.0" encoding="utf-8"?>
<svg xmlns="http://www.w3.org/2000/svg" xmlns:xlink="http://www.w3.org/1999/xlink" width="800" height="300" viewBox="0 0 3200 1200">
<defs>
  <clipPath id="clip280">
    <rect x="0" y="0" width="3200" height="1200"/>
  </clipPath>
</defs>
<path clip-path="url(#clip280)" d="M0 1200 L3200 1200 L3200 0 L0 0  Z" fill="#ffffff" fill-rule="evenodd" fill-opacity="1"/>
<defs>
  <clipPath id="clip281">
    <rect x="640" y="0" width="2241" height="1200"/>
  </clipPath>
</defs>
<path clip-path="url(#clip280)" d="M271.839 1042.58 L3089.76 1042.58 L3089.76 110.236 L271.839 110.236  Z" fill="#ffffff" fill-rule="evenodd" fill-opacity="1"/>
<defs>
  <clipPath id="clip282">
    <rect x="271" y="110" width="2819" height="933"/>
  </clipPath>
</defs>
<polyline clip-path="url(#clip282)" style="stroke:#000000; stroke-linecap:round; stroke-linejoin:round; stroke-width:2; stroke-opacity:0.1; fill:none" points="891.783,1042.58 891.783,110.236 "/>
<polyline clip-path="url(#clip282)" style="stroke:#000000; stroke-linecap:round; stroke-linejoin:round; stroke-width:2; stroke-opacity:0.1; fill:none" points="1765.34,1042.58 1765.34,110.236 "/>
<polyline clip-path="url(#clip282)" style="stroke:#000000; stroke-linecap:round; stroke-linejoin:round; stroke-width:2; stroke-opacity:0.1; fill:none" points="2610.72,1042.58 2610.72,110.236 "/>
<polyline clip-path="url(#clip280)" style="stroke:#000000; stroke-linecap:round; stroke-linejoin:round; stroke-width:4; stroke-opacity:1; fill:none" points="271.839,1042.58 3089.76,1042.58 "/>
<polyline clip-path="url(#clip280)" style="stroke:#000000; stroke-linecap:round; stroke-linejoin:round; stroke-width:4; stroke-opacity:1; fill:none" points="891.783,1042.58 891.783,1023.68 "/>
<polyline clip-path="url(#clip280)" style="stroke:#000000; stroke-linecap:round; stroke-linejoin:round; stroke-width:4; stroke-opacity:1; fill:none" points="1765.34,1042.58 1765.34,1023.68 "/>
<polyline clip-path="url(#clip280)" style="stroke:#000000; stroke-linecap:round; stroke-linejoin:round; stroke-width:4; stroke-opacity:1; fill:none" points="2610.72,1042.58 2610.72,1023.68 "/>
<path clip-path="url(#clip280)" d="M763.577 1107.44 L779.897 1107.44 L779.897 1111.38 L757.952 1111.38 L757.952 1107.44 Q760.614 1104.69 765.198 1100.06 Q769.804 1095.4 770.985 1094.06 Q773.23 1091.54 774.11 1089.8 Q775.012 1088.04 775.012 1086.35 Q775.012 1083.6 773.068 1081.86 Q771.147 1080.13 768.045 1080.13 Q765.846 1080.13 763.392 1080.89 Q760.962 1081.65 758.184 1083.2 L758.184 1078.48 Q761.008 1077.35 763.462 1076.77 Q765.915 1076.19 767.952 1076.19 Q773.323 1076.19 776.517 1078.88 Q779.711 1081.56 779.711 1086.05 Q779.711 1088.18 778.901 1090.1 Q778.114 1092 776.008 1094.59 Q775.429 1095.26 772.327 1098.48 Q769.225 1101.68 763.577 1107.44 Z" fill="#000000" fill-rule="nonzero" fill-opacity="1" /><path clip-path="url(#clip280)" d="M799.711 1079.89 Q796.1 1079.89 794.272 1083.46 Q792.466 1087 792.466 1094.13 Q792.466 1101.24 794.272 1104.8 Q796.1 1108.34 799.711 1108.34 Q803.346 1108.34 805.151 1104.8 Q806.98 1101.24 806.98 1094.13 Q806.98 1087 805.151 1083.46 Q803.346 1079.89 799.711 1079.89 M799.711 1076.19 Q805.522 1076.19 808.577 1080.8 Q811.656 1085.38 811.656 1094.13 Q811.656 1102.86 808.577 1107.46 Q805.522 1112.05 799.711 1112.05 Q793.901 1112.05 790.823 1107.46 Q787.767 1102.86 787.767 1094.13 Q787.767 1085.38 790.823 1080.8 Q793.901 1076.19 799.711 1076.19 Z" fill="#000000" fill-rule="nonzero" fill-opacity="1" /><path clip-path="url(#clip280)" d="M823.901 1107.44 L840.22 1107.44 L840.22 1111.38 L818.276 1111.38 L818.276 1107.44 Q820.938 1104.69 825.521 1100.06 Q830.128 1095.4 831.308 1094.06 Q833.554 1091.54 834.433 1089.8 Q835.336 1088.04 835.336 1086.35 Q835.336 1083.6 833.392 1081.86 Q831.47 1080.13 828.369 1080.13 Q826.17 1080.13 823.716 1080.89 Q821.285 1081.65 818.508 1083.2 L818.508 1078.48 Q821.332 1077.35 823.785 1076.77 Q826.239 1076.19 828.276 1076.19 Q833.646 1076.19 836.841 1078.88 Q840.035 1081.56 840.035 1086.05 Q840.035 1088.18 839.225 1090.1 Q838.438 1092 836.332 1094.59 Q835.753 1095.26 832.651 1098.48 Q829.549 1101.68 823.901 1107.44 Z" fill="#000000" fill-rule="nonzero" fill-opacity="1" /><path clip-path="url(#clip280)" d="M850.081 1076.82 L868.438 1076.82 L868.438 1080.75 L854.364 1080.75 L854.364 1089.22 Q855.382 1088.88 856.401 1088.71 Q857.419 1088.53 858.438 1088.53 Q864.225 1088.53 867.605 1091.7 Q870.984 1094.87 870.984 1100.29 Q870.984 1105.87 867.512 1108.97 Q864.04 1112.05 857.72 1112.05 Q855.544 1112.05 853.276 1111.68 Q851.031 1111.31 848.623 1110.57 L848.623 1105.87 Q850.706 1107 852.929 1107.56 Q855.151 1108.11 857.628 1108.11 Q861.632 1108.11 863.97 1106.01 Q866.308 1103.9 866.308 1100.29 Q866.308 1096.68 863.97 1094.57 Q861.632 1092.46 857.628 1092.46 Q855.753 1092.46 853.878 1092.88 Q852.026 1093.3 850.081 1094.18 L850.081 1076.82 Z" fill="#000000" fill-rule="nonzero" fill-opacity="1" /><path clip-path="url(#clip280)" d="M877.442 1096.49 L889.919 1096.49 L889.919 1100.29 L877.442 1100.29 L877.442 1096.49 Z" fill="#000000" fill-rule="nonzero" fill-opacity="1" /><path clip-path="url(#clip280)" d="M907.303 1079.89 Q903.692 1079.89 901.864 1083.46 Q900.058 1087 900.058 1094.13 Q900.058 1101.24 901.864 1104.8 Q903.692 1108.34 907.303 1108.34 Q910.938 1108.34 912.743 1104.8 Q914.572 1101.24 914.572 1094.13 Q914.572 1087 912.743 1083.46 Q910.938 1079.89 907.303 1079.89 M907.303 1076.19 Q913.114 1076.19 916.169 1080.8 Q919.248 1085.38 919.248 1094.13 Q919.248 1102.86 916.169 1107.46 Q913.114 1112.05 907.303 1112.05 Q901.493 1112.05 898.415 1107.46 Q895.359 1102.86 895.359 1094.13 Q895.359 1085.38 898.415 1080.8 Q901.493 1076.19 907.303 1076.19 Z" fill="#000000" fill-rule="nonzero" fill-opacity="1" /><path clip-path="url(#clip280)" d="M941.632 1092.74 Q944.988 1093.46 946.863 1095.73 Q948.761 1098 948.761 1101.33 Q948.761 1106.45 945.243 1109.25 Q941.724 1112.05 935.243 1112.05 Q933.067 1112.05 930.752 1111.61 Q928.461 1111.19 926.007 1110.33 L926.007 1105.82 Q927.951 1106.95 930.266 1107.53 Q932.581 1108.11 935.104 1108.11 Q939.502 1108.11 941.794 1106.38 Q944.109 1104.64 944.109 1101.33 Q944.109 1098.27 941.956 1096.56 Q939.826 1094.82 936.007 1094.82 L931.979 1094.82 L931.979 1090.98 L936.192 1090.98 Q939.641 1090.98 941.47 1089.62 Q943.299 1088.23 943.299 1085.64 Q943.299 1082.97 941.4 1081.56 Q939.525 1080.13 936.007 1080.13 Q934.086 1080.13 931.887 1080.54 Q929.688 1080.96 927.049 1081.84 L927.049 1077.67 Q929.711 1076.93 932.025 1076.56 Q934.363 1076.19 936.424 1076.19 Q941.748 1076.19 944.849 1078.62 Q947.951 1081.03 947.951 1085.15 Q947.951 1088.02 946.308 1090.01 Q944.664 1091.98 941.632 1092.74 Z" fill="#000000" fill-rule="nonzero" fill-opacity="1" /><path clip-path="url(#clip280)" d="M954.873 1096.49 L967.349 1096.49 L967.349 1100.29 L954.873 1100.29 L954.873 1096.49 Z" fill="#000000" fill-rule="nonzero" fill-opacity="1" /><path clip-path="url(#clip280)" d="M984.734 1079.89 Q981.122 1079.89 979.294 1083.46 Q977.488 1087 977.488 1094.13 Q977.488 1101.24 979.294 1104.8 Q981.122 1108.34 984.734 1108.34 Q988.368 1108.34 990.173 1104.8 Q992.002 1101.24 992.002 1094.13 Q992.002 1087 990.173 1083.46 Q988.368 1079.89 984.734 1079.89 M984.734 1076.19 Q990.544 1076.19 993.599 1080.8 Q996.678 1085.38 996.678 1094.13 Q996.678 1102.86 993.599 1107.46 Q990.544 1112.05 984.734 1112.05 Q978.923 1112.05 975.845 1107.46 Q972.789 1102.86 972.789 1094.13 Q972.789 1085.38 975.845 1080.8 Q978.923 1076.19 984.734 1076.19 Z" fill="#000000" fill-rule="nonzero" fill-opacity="1" /><path clip-path="url(#clip280)" d="M1005.71 1107.44 L1013.34 1107.44 L1013.34 1081.07 L1005.03 1082.74 L1005.03 1078.48 L1013.3 1076.82 L1017.97 1076.82 L1017.97 1107.44 L1025.61 1107.44 L1025.61 1111.38 L1005.71 1111.38 L1005.71 1107.44 Z" fill="#000000" fill-rule="nonzero" fill-opacity="1" /><path clip-path="url(#clip280)" d="M1637.13 1107.44 L1653.45 1107.44 L1653.45 1111.38 L1631.51 1111.38 L1631.51 1107.44 Q1634.17 1104.69 1638.75 1100.06 Q1643.36 1095.4 1644.54 1094.06 Q1646.79 1091.54 1647.67 1089.8 Q1648.57 1088.04 1648.57 1086.35 Q1648.57 1083.6 1646.62 1081.86 Q1644.7 1080.13 1641.6 1080.13 Q1639.4 1080.13 1636.95 1080.89 Q1634.52 1081.65 1631.74 1083.2 L1631.74 1078.48 Q1634.56 1077.35 1637.02 1076.77 Q1639.47 1076.19 1641.51 1076.19 Q1646.88 1076.19 1650.07 1078.88 Q1653.27 1081.56 1653.27 1086.05 Q1653.27 1088.18 1652.46 1090.1 Q1651.67 1092 1649.56 1094.59 Q1648.99 1095.26 1645.88 1098.48 Q1642.78 1101.68 1637.13 1107.44 Z" fill="#000000" fill-rule="nonzero" fill-opacity="1" /><path clip-path="url(#clip280)" d="M1673.27 1079.89 Q1669.66 1079.89 1667.83 1083.46 Q1666.02 1087 1666.02 1094.13 Q1666.02 1101.24 1667.83 1104.8 Q1669.66 1108.34 1673.27 1108.34 Q1676.9 1108.34 1678.71 1104.8 Q1680.54 1101.24 1680.54 1094.13 Q1680.54 1087 1678.71 1083.46 Q1676.9 1079.89 1673.27 1079.89 M1673.27 1076.19 Q1679.08 1076.19 1682.13 1080.8 Q1685.21 1085.38 1685.21 1094.13 Q1685.21 1102.86 1682.13 1107.46 Q1679.08 1112.05 1673.27 1112.05 Q1667.46 1112.05 1664.38 1107.46 Q1661.32 1102.86 1661.32 1094.13 Q1661.32 1085.38 1664.38 1080.8 Q1667.46 1076.19 1673.27 1076.19 Z" fill="#000000" fill-rule="nonzero" fill-opacity="1" /><path clip-path="url(#clip280)" d="M1697.46 1107.44 L1713.78 1107.44 L1713.78 1111.38 L1691.83 1111.38 L1691.83 1107.44 Q1694.49 1104.69 1699.08 1100.06 Q1703.68 1095.4 1704.87 1094.06 Q1707.11 1091.54 1707.99 1089.8 Q1708.89 1088.04 1708.89 1086.35 Q1708.89 1083.6 1706.95 1081.86 Q1705.03 1080.13 1701.93 1080.13 Q1699.73 1080.13 1697.27 1080.89 Q1694.84 1081.65 1692.06 1083.2 L1692.06 1078.48 Q1694.89 1077.35 1697.34 1076.77 Q1699.8 1076.19 1701.83 1076.19 Q1707.2 1076.19 1710.4 1078.88 Q1713.59 1081.56 1713.59 1086.05 Q1713.59 1088.18 1712.78 1090.1 Q1711.99 1092 1709.89 1094.59 Q1709.31 1095.26 1706.21 1098.48 Q1703.11 1101.68 1697.46 1107.44 Z" fill="#000000" fill-rule="nonzero" fill-opacity="1" /><path clip-path="url(#clip280)" d="M1723.64 1076.82 L1741.99 1076.82 L1741.99 1080.75 L1727.92 1080.75 L1727.92 1089.22 Q1728.94 1088.88 1729.96 1088.71 Q1730.98 1088.53 1731.99 1088.53 Q1737.78 1088.53 1741.16 1091.7 Q1744.54 1094.87 1744.54 1100.29 Q1744.54 1105.87 1741.07 1108.97 Q1737.6 1112.05 1731.28 1112.05 Q1729.1 1112.05 1726.83 1111.68 Q1724.59 1111.31 1722.18 1110.57 L1722.18 1105.87 Q1724.26 1107 1726.49 1107.56 Q1728.71 1108.11 1731.18 1108.11 Q1735.19 1108.11 1737.53 1106.01 Q1739.86 1103.9 1739.86 1100.29 Q1739.86 1096.68 1737.53 1094.57 Q1735.19 1092.46 1731.18 1092.46 Q1729.31 1092.46 1727.43 1092.88 Q1725.58 1093.3 1723.64 1094.18 L1723.64 1076.82 Z" fill="#000000" fill-rule="nonzero" fill-opacity="1" /><path clip-path="url(#clip280)" d="M1751 1096.49 L1763.48 1096.49 L1763.48 1100.29 L1751 1100.29 L1751 1096.49 Z" fill="#000000" fill-rule="nonzero" fill-opacity="1" /><path clip-path="url(#clip280)" d="M1780.86 1079.89 Q1777.25 1079.89 1775.42 1083.46 Q1773.61 1087 1773.61 1094.13 Q1773.61 1101.24 1775.42 1104.8 Q1777.25 1108.34 1780.86 1108.34 Q1784.49 1108.34 1786.3 1104.8 Q1788.13 1101.24 1788.13 1094.13 Q1788.13 1087 1786.3 1083.46 Q1784.49 1079.89 1780.86 1079.89 M1780.86 1076.19 Q1786.67 1076.19 1789.73 1080.8 Q1792.8 1085.38 1792.8 1094.13 Q1792.8 1102.86 1789.73 1107.46 Q1786.67 1112.05 1780.86 1112.05 Q1775.05 1112.05 1771.97 1107.46 Q1768.92 1102.86 1768.92 1094.13 Q1768.92 1085.38 1771.97 1080.8 Q1775.05 1076.19 1780.86 1076.19 Z" fill="#000000" fill-rule="nonzero" fill-opacity="1" /><path clip-path="url(#clip280)" d="M1813.87 1080.89 L1802.06 1099.34 L1813.87 1099.34 L1813.87 1080.89 M1812.64 1076.82 L1818.52 1076.82 L1818.52 1099.34 L1823.45 1099.34 L1823.45 1103.23 L1818.52 1103.23 L1818.52 1111.38 L1813.87 1111.38 L1813.87 1103.23 L1798.27 1103.23 L1798.27 1098.71 L1812.64 1076.82 Z" fill="#000000" fill-rule="nonzero" fill-opacity="1" /><path clip-path="url(#clip280)" d="M1828.43 1096.49 L1840.91 1096.49 L1840.91 1100.29 L1828.43 1100.29 L1828.43 1096.49 Z" fill="#000000" fill-rule="nonzero" fill-opacity="1" /><path clip-path="url(#clip280)" d="M1858.29 1079.89 Q1854.68 1079.89 1852.85 1083.46 Q1851.04 1087 1851.04 1094.13 Q1851.04 1101.24 1852.85 1104.8 Q1854.68 1108.34 1858.29 1108.34 Q1861.92 1108.34 1863.73 1104.8 Q1865.56 1101.24 1865.56 1094.13 Q1865.56 1087 1863.73 1083.46 Q1861.92 1079.89 1858.29 1079.89 M1858.29 1076.19 Q1864.1 1076.19 1867.16 1080.8 Q1870.23 1085.38 1870.23 1094.13 Q1870.23 1102.86 1867.16 1107.46 Q1864.1 1112.05 1858.29 1112.05 Q1852.48 1112.05 1849.4 1107.46 Q1846.35 1102.86 1846.35 1094.13 Q1846.35 1085.38 1849.4 1080.8 Q1852.48 1076.19 1858.29 1076.19 Z" fill="#000000" fill-rule="nonzero" fill-opacity="1" /><path clip-path="url(#clip280)" d="M1879.26 1107.44 L1886.9 1107.44 L1886.9 1081.07 L1878.59 1082.74 L1878.59 1078.48 L1886.85 1076.82 L1891.53 1076.82 L1891.53 1107.44 L1899.17 1107.44 L1899.17 1111.38 L1879.26 1111.38 L1879.26 1107.44 Z" fill="#000000" fill-rule="nonzero" fill-opacity="1" /><path clip-path="url(#clip280)" d="M2482.51 1107.44 L2498.83 1107.44 L2498.83 1111.38 L2476.89 1111.38 L2476.89 1107.44 Q2479.55 1104.69 2484.13 1100.06 Q2488.74 1095.4 2489.92 1094.06 Q2492.16 1091.54 2493.04 1089.8 Q2493.95 1088.04 2493.95 1086.35 Q2493.95 1083.6 2492 1081.86 Q2490.08 1080.13 2486.98 1080.13 Q2484.78 1080.13 2482.33 1080.89 Q2479.9 1081.65 2477.12 1083.2 L2477.12 1078.48 Q2479.94 1077.35 2482.4 1076.77 Q2484.85 1076.19 2486.89 1076.19 Q2492.26 1076.19 2495.45 1078.88 Q2498.65 1081.56 2498.65 1086.05 Q2498.65 1088.18 2497.84 1090.1 Q2497.05 1092 2494.94 1094.59 Q2494.36 1095.26 2491.26 1098.48 Q2488.16 1101.68 2482.51 1107.44 Z" fill="#000000" fill-rule="nonzero" fill-opacity="1" /><path clip-path="url(#clip280)" d="M2518.65 1079.89 Q2515.03 1079.89 2513.21 1083.46 Q2511.4 1087 2511.4 1094.13 Q2511.4 1101.24 2513.21 1104.8 Q2515.03 1108.34 2518.65 1108.34 Q2522.28 1108.34 2524.09 1104.8 Q2525.91 1101.24 2525.91 1094.13 Q2525.91 1087 2524.09 1083.46 Q2522.28 1079.89 2518.65 1079.89 M2518.65 1076.19 Q2524.46 1076.19 2527.51 1080.8 Q2530.59 1085.38 2530.59 1094.13 Q2530.59 1102.86 2527.51 1107.46 Q2524.46 1112.05 2518.65 1112.05 Q2512.84 1112.05 2509.76 1107.46 Q2506.7 1102.86 2506.7 1094.13 Q2506.7 1085.38 2509.76 1080.8 Q2512.84 1076.19 2518.65 1076.19 Z" fill="#000000" fill-rule="nonzero" fill-opacity="1" /><path clip-path="url(#clip280)" d="M2542.84 1107.44 L2559.15 1107.44 L2559.15 1111.38 L2537.21 1111.38 L2537.21 1107.44 Q2539.87 1104.69 2544.46 1100.06 Q2549.06 1095.4 2550.24 1094.06 Q2552.49 1091.54 2553.37 1089.8 Q2554.27 1088.04 2554.27 1086.35 Q2554.27 1083.6 2552.33 1081.86 Q2550.4 1080.13 2547.3 1080.13 Q2545.1 1080.13 2542.65 1080.89 Q2540.22 1081.65 2537.44 1083.2 L2537.44 1078.48 Q2540.27 1077.35 2542.72 1076.77 Q2545.17 1076.19 2547.21 1076.19 Q2552.58 1076.19 2555.77 1078.88 Q2558.97 1081.56 2558.97 1086.05 Q2558.97 1088.18 2558.16 1090.1 Q2557.37 1092 2555.27 1094.59 Q2554.69 1095.26 2551.58 1098.48 Q2548.48 1101.68 2542.84 1107.44 Z" fill="#000000" fill-rule="nonzero" fill-opacity="1" /><path clip-path="url(#clip280)" d="M2569.02 1076.82 L2587.37 1076.82 L2587.37 1080.75 L2573.3 1080.75 L2573.3 1089.22 Q2574.32 1088.88 2575.33 1088.71 Q2576.35 1088.53 2577.37 1088.53 Q2583.16 1088.53 2586.54 1091.7 Q2589.92 1094.87 2589.92 1100.29 Q2589.92 1105.87 2586.45 1108.97 Q2582.97 1112.05 2576.65 1112.05 Q2574.48 1112.05 2572.21 1111.68 Q2569.96 1111.31 2567.56 1110.57 L2567.56 1105.87 Q2569.64 1107 2571.86 1107.56 Q2574.08 1108.11 2576.56 1108.11 Q2580.57 1108.11 2582.9 1106.01 Q2585.24 1103.9 2585.24 1100.29 Q2585.24 1096.68 2582.9 1094.57 Q2580.57 1092.46 2576.56 1092.46 Q2574.69 1092.46 2572.81 1092.88 Q2570.96 1093.3 2569.02 1094.18 L2569.02 1076.82 Z" fill="#000000" fill-rule="nonzero" fill-opacity="1" /><path clip-path="url(#clip280)" d="M2596.38 1096.49 L2608.85 1096.49 L2608.85 1100.29 L2596.38 1100.29 L2596.38 1096.49 Z" fill="#000000" fill-rule="nonzero" fill-opacity="1" /><path clip-path="url(#clip280)" d="M2626.24 1079.89 Q2622.63 1079.89 2620.8 1083.46 Q2618.99 1087 2618.99 1094.13 Q2618.99 1101.24 2620.8 1104.8 Q2622.63 1108.34 2626.24 1108.34 Q2629.87 1108.34 2631.68 1104.8 Q2633.51 1101.24 2633.51 1094.13 Q2633.51 1087 2631.68 1083.46 Q2629.87 1079.89 2626.24 1079.89 M2626.24 1076.19 Q2632.05 1076.19 2635.1 1080.8 Q2638.18 1085.38 2638.18 1094.13 Q2638.18 1102.86 2635.1 1107.46 Q2632.05 1112.05 2626.24 1112.05 Q2620.43 1112.05 2617.35 1107.46 Q2614.29 1102.86 2614.29 1094.13 Q2614.29 1085.38 2617.35 1080.8 Q2620.43 1076.19 2626.24 1076.19 Z" fill="#000000" fill-rule="nonzero" fill-opacity="1" /><path clip-path="url(#clip280)" d="M2646.45 1076.82 L2664.8 1076.82 L2664.8 1080.75 L2650.73 1080.75 L2650.73 1089.22 Q2651.75 1088.88 2652.76 1088.71 Q2653.78 1088.53 2654.8 1088.53 Q2660.59 1088.53 2663.97 1091.7 Q2667.35 1094.87 2667.35 1100.29 Q2667.35 1105.87 2663.88 1108.97 Q2660.4 1112.05 2654.08 1112.05 Q2651.91 1112.05 2649.64 1111.68 Q2647.39 1111.31 2644.99 1110.57 L2644.99 1105.87 Q2647.07 1107 2649.29 1107.56 Q2651.51 1108.11 2653.99 1108.11 Q2658 1108.11 2660.33 1106.01 Q2662.67 1103.9 2662.67 1100.29 Q2662.67 1096.68 2660.33 1094.57 Q2658 1092.46 2653.99 1092.46 Q2652.12 1092.46 2650.24 1092.88 Q2648.39 1093.3 2646.45 1094.18 L2646.45 1076.82 Z" fill="#000000" fill-rule="nonzero" fill-opacity="1" /><path clip-path="url(#clip280)" d="M2673.81 1096.49 L2686.28 1096.49 L2686.28 1100.29 L2673.81 1100.29 L2673.81 1096.49 Z" fill="#000000" fill-rule="nonzero" fill-opacity="1" /><path clip-path="url(#clip280)" d="M2703.67 1079.89 Q2700.06 1079.89 2698.23 1083.46 Q2696.42 1087 2696.42 1094.13 Q2696.42 1101.24 2698.23 1104.8 Q2700.06 1108.34 2703.67 1108.34 Q2707.3 1108.34 2709.11 1104.8 Q2710.94 1101.24 2710.94 1094.13 Q2710.94 1087 2709.11 1083.46 Q2707.3 1079.89 2703.67 1079.89 M2703.67 1076.19 Q2709.48 1076.19 2712.53 1080.8 Q2715.61 1085.38 2715.61 1094.13 Q2715.61 1102.86 2712.53 1107.46 Q2709.48 1112.05 2703.67 1112.05 Q2697.86 1112.05 2694.78 1107.46 Q2691.72 1102.86 2691.72 1094.13 Q2691.72 1085.38 2694.78 1080.8 Q2697.86 1076.19 2703.67 1076.19 Z" fill="#000000" fill-rule="nonzero" fill-opacity="1" /><path clip-path="url(#clip280)" d="M2724.64 1107.44 L2732.28 1107.44 L2732.28 1081.07 L2723.97 1082.74 L2723.97 1078.48 L2732.23 1076.82 L2736.91 1076.82 L2736.91 1107.44 L2744.55 1107.44 L2744.55 1111.38 L2724.64 1111.38 L2724.64 1107.44 Z" fill="#000000" fill-rule="nonzero" fill-opacity="1" /><polyline clip-path="url(#clip282)" style="stroke:#000000; stroke-linecap:round; stroke-linejoin:round; stroke-width:2; stroke-opacity:0.1; fill:none" points="271.839,1042.58 3089.76,1042.58 "/>
<polyline clip-path="url(#clip282)" style="stroke:#000000; stroke-linecap:round; stroke-linejoin:round; stroke-width:2; stroke-opacity:0.1; fill:none" points="271.839,375.638 3089.76,375.638 "/>
<polyline clip-path="url(#clip280)" style="stroke:#000000; stroke-linecap:round; stroke-linejoin:round; stroke-width:4; stroke-opacity:1; fill:none" points="271.839,1042.58 271.839,110.236 "/>
<polyline clip-path="url(#clip280)" style="stroke:#000000; stroke-linecap:round; stroke-linejoin:round; stroke-width:4; stroke-opacity:1; fill:none" points="271.839,1042.58 290.737,1042.58 "/>
<polyline clip-path="url(#clip280)" style="stroke:#000000; stroke-linecap:round; stroke-linejoin:round; stroke-width:4; stroke-opacity:1; fill:none" points="271.839,375.638 290.737,375.638 "/>
<path clip-path="url(#clip280)" d="M153.134 1062.37 L160.772 1062.37 L160.772 1036 L152.462 1037.67 L152.462 1033.41 L160.726 1031.74 L165.402 1031.74 L165.402 1062.37 L173.041 1062.37 L173.041 1066.3 L153.134 1066.3 L153.134 1062.37 Z" fill="#000000" fill-rule="nonzero" fill-opacity="1" /><path clip-path="url(#clip280)" d="M192.485 1034.82 Q188.874 1034.82 187.045 1038.39 Q185.24 1041.93 185.24 1049.06 Q185.24 1056.16 187.045 1059.73 Q188.874 1063.27 192.485 1063.27 Q196.119 1063.27 197.925 1059.73 Q199.754 1056.16 199.754 1049.06 Q199.754 1041.93 197.925 1038.39 Q196.119 1034.82 192.485 1034.82 M192.485 1031.12 Q198.295 1031.12 201.351 1035.72 Q204.43 1040.31 204.43 1049.06 Q204.43 1057.78 201.351 1062.39 Q198.295 1066.97 192.485 1066.97 Q186.675 1066.97 183.596 1062.39 Q180.541 1057.78 180.541 1049.06 Q180.541 1040.31 183.596 1035.72 Q186.675 1031.12 192.485 1031.12 Z" fill="#000000" fill-rule="nonzero" fill-opacity="1" /><path clip-path="url(#clip280)" d="M214.134 1013.31 Q211.2 1013.31 209.715 1016.21 Q208.248 1019.09 208.248 1024.88 Q208.248 1030.66 209.715 1033.55 Q211.2 1036.43 214.134 1036.43 Q217.087 1036.43 218.554 1033.55 Q220.04 1030.66 220.04 1024.88 Q220.04 1019.09 218.554 1016.21 Q217.087 1013.31 214.134 1013.31 M214.134 1010.31 Q218.855 1010.31 221.338 1014.05 Q223.839 1017.77 223.839 1024.88 Q223.839 1031.97 221.338 1035.71 Q218.855 1039.44 214.134 1039.44 Q209.414 1039.44 206.912 1035.71 Q204.43 1031.97 204.43 1024.88 Q204.43 1017.77 206.912 1014.05 Q209.414 1010.31 214.134 1010.31 Z" fill="#000000" fill-rule="nonzero" fill-opacity="1" /><path clip-path="url(#clip280)" d="M155.823 395.43 L163.462 395.43 L163.462 369.064 L155.152 370.731 L155.152 366.472 L163.416 364.805 L168.092 364.805 L168.092 395.43 L175.73 395.43 L175.73 399.365 L155.823 399.365 L155.823 395.43 Z" fill="#000000" fill-rule="nonzero" fill-opacity="1" /><path clip-path="url(#clip280)" d="M195.175 367.884 Q191.564 367.884 189.735 371.449 Q187.929 374.99 187.929 382.12 Q187.929 389.226 189.735 392.791 Q191.564 396.333 195.175 396.333 Q198.809 396.333 200.615 392.791 Q202.443 389.226 202.443 382.12 Q202.443 374.99 200.615 371.449 Q198.809 367.884 195.175 367.884 M195.175 364.18 Q200.985 364.18 204.04 368.787 Q207.119 373.37 207.119 382.12 Q207.119 390.847 204.04 395.453 Q200.985 400.036 195.175 400.036 Q189.365 400.036 186.286 395.453 Q183.23 390.847 183.23 382.12 Q183.23 373.37 186.286 368.787 Q189.365 364.18 195.175 364.18 Z" fill="#000000" fill-rule="nonzero" fill-opacity="1" /><path clip-path="url(#clip280)" d="M207.665 368.757 L213.871 368.757 L213.871 347.335 L207.119 348.69 L207.119 345.229 L213.833 343.875 L217.633 343.875 L217.633 368.757 L223.839 368.757 L223.839 371.955 L207.665 371.955 L207.665 368.757 Z" fill="#000000" fill-rule="nonzero" fill-opacity="1" /><path clip-path="url(#clip280)" d="M83.4268 910.828 L70.6636 910.828 L70.6636 921.332 L65.38 921.332 L65.38 904.463 L85.7821 904.463 Q88.4239 908.187 89.7925 912.674 Q91.1293 917.162 91.1293 922.255 Q91.1293 933.395 84.6363 939.697 Q78.1114 945.967 66.494 945.967 Q54.8448 945.967 48.3518 939.697 Q41.8269 933.395 41.8269 922.255 Q41.8269 917.608 42.9727 913.438 Q44.1186 909.237 46.3466 905.704 L53.1897 905.704 Q50.166 909.269 48.6382 913.279 Q47.1104 917.29 47.1104 921.714 Q47.1104 930.435 51.9802 934.827 Q56.85 939.188 66.494 939.188 Q76.1062 939.188 80.976 934.827 Q85.8458 930.435 85.8458 921.714 Q85.8458 918.308 85.2729 915.634 Q84.6681 912.961 83.4268 910.828 Z" fill="#000000" fill-rule="nonzero" fill-opacity="1" /><path clip-path="url(#clip280)" d="M70.9182 862.481 L73.7828 862.481 L73.7828 889.408 Q79.8302 889.026 83.013 885.779 Q86.1641 882.501 86.1641 876.676 Q86.1641 873.303 85.3365 870.152 Q84.509 866.969 82.8539 863.849 L88.3921 863.849 Q89.7289 867 90.4291 870.311 Q91.1293 873.621 91.1293 877.026 Q91.1293 885.557 86.1641 890.554 Q81.1988 895.519 72.7324 895.519 Q63.9796 895.519 58.8552 890.808 Q53.699 886.066 53.699 878.045 Q53.699 870.852 58.3459 866.682 Q62.9611 862.481 70.9182 862.481 M69.1995 868.337 Q64.3933 868.401 61.5288 871.043 Q58.6642 873.653 58.6642 877.981 Q58.6642 882.883 61.4333 885.843 Q64.2024 888.771 69.2313 889.217 L69.1995 868.337 Z" fill="#000000" fill-rule="nonzero" fill-opacity="1" /><path clip-path="url(#clip280)" d="M68.6902 823.236 L90.2063 823.236 L90.2063 829.093 L68.8812 829.093 Q63.8204 829.093 61.306 831.066 Q58.7915 833.039 58.7915 836.986 Q58.7915 841.729 61.8152 844.466 Q64.8389 847.203 70.0588 847.203 L90.2063 847.203 L90.2063 853.091 L54.5583 853.091 L54.5583 847.203 L60.0965 847.203 Q56.8818 845.102 55.2904 842.27 Q53.699 839.405 53.699 835.681 Q53.699 829.538 57.5184 826.387 Q61.306 823.236 68.6902 823.236 Z" fill="#000000" fill-rule="nonzero" fill-opacity="1" /><path clip-path="url(#clip280)" d="M58.6642 797.742 Q58.6642 802.452 62.3563 805.189 Q66.0166 807.927 72.4141 807.927 Q78.8117 807.927 82.5038 805.221 Q86.1641 802.484 86.1641 797.742 Q86.1641 793.063 82.4719 790.326 Q78.7798 787.588 72.4141 787.588 Q66.0803 787.588 62.3881 790.326 Q58.6642 793.063 58.6642 797.742 M53.699 797.742 Q53.699 790.103 58.6642 785.742 Q63.6295 781.382 72.4141 781.382 Q81.167 781.382 86.1641 785.742 Q91.1293 790.103 91.1293 797.742 Q91.1293 805.412 86.1641 809.773 Q81.167 814.101 72.4141 814.101 Q63.6295 814.101 58.6642 809.773 Q53.699 805.412 53.699 797.742 Z" fill="#000000" fill-rule="nonzero" fill-opacity="1" /><path clip-path="url(#clip280)" d="M61.4015 743.92 Q57.4547 741.723 55.5768 738.668 Q53.699 735.612 53.699 731.475 Q53.699 725.905 57.6139 722.881 Q61.4969 719.857 68.6902 719.857 L90.2063 719.857 L90.2063 725.745 L68.8812 725.745 Q63.7568 725.745 61.2741 727.56 Q58.7915 729.374 58.7915 733.098 Q58.7915 737.649 61.8152 740.291 Q64.8389 742.933 70.0588 742.933 L90.2063 742.933 L90.2063 748.821 L68.8812 748.821 Q63.7249 748.821 61.2741 750.635 Q58.7915 752.45 58.7915 756.237 Q58.7915 760.725 61.8471 763.367 Q64.8708 766.009 70.0588 766.009 L90.2063 766.009 L90.2063 771.897 L54.5583 771.897 L54.5583 766.009 L60.0965 766.009 Q56.8182 764.003 55.2586 761.202 Q53.699 758.402 53.699 754.55 Q53.699 750.667 55.6723 747.962 Q57.6457 745.225 61.4015 743.92 Z" fill="#000000" fill-rule="nonzero" fill-opacity="1" /><path clip-path="url(#clip280)" d="M70.9182 677.684 L73.7828 677.684 L73.7828 704.611 Q79.8302 704.229 83.013 700.983 Q86.1641 697.705 86.1641 691.88 Q86.1641 688.506 85.3365 685.355 Q84.509 682.172 82.8539 679.053 L88.3921 679.053 Q89.7289 682.204 90.4291 685.514 Q91.1293 688.824 91.1293 692.23 Q91.1293 700.76 86.1641 705.757 Q81.1988 710.722 72.7324 710.722 Q63.9796 710.722 58.8552 706.012 Q53.699 701.269 53.699 693.249 Q53.699 686.055 58.3459 681.886 Q62.9611 677.684 70.9182 677.684 M69.1995 683.541 Q64.3933 683.604 61.5288 686.246 Q58.6642 688.856 58.6642 693.185 Q58.6642 698.086 61.4333 701.047 Q64.2024 703.975 69.2313 704.42 L69.1995 683.541 Z" fill="#000000" fill-rule="nonzero" fill-opacity="1" /><path clip-path="url(#clip280)" d="M55.6087 645.347 L61.1468 645.347 Q59.8737 647.829 59.2371 650.503 Q58.6006 653.176 58.6006 656.041 Q58.6006 660.401 59.9373 662.598 Q61.2741 664.762 63.9477 664.762 Q65.9848 664.762 67.1624 663.202 Q68.3083 661.643 69.3586 656.932 L69.8042 654.927 Q71.141 648.689 73.5918 646.079 Q76.0108 643.437 80.3713 643.437 Q85.3365 643.437 88.2329 647.384 Q91.1293 651.299 91.1293 658.173 Q91.1293 661.038 90.5564 664.157 Q90.0153 667.245 88.9013 670.682 L82.8539 670.682 Q84.5408 667.436 85.4002 664.285 Q86.2277 661.134 86.2277 658.046 Q86.2277 653.908 84.8273 651.68 Q83.395 649.452 80.8169 649.452 Q78.4297 649.452 77.1566 651.076 Q75.8834 652.667 74.7058 658.11 L74.2284 660.147 Q73.0825 665.59 70.7272 668.009 Q68.3401 670.427 64.2024 670.427 Q59.1735 670.427 56.4362 666.863 Q53.699 663.298 53.699 656.741 Q53.699 653.495 54.1764 650.63 Q54.6538 647.766 55.6087 645.347 Z" fill="#000000" fill-rule="nonzero" fill-opacity="1" /><path clip-path="url(#clip280)" d="M42.6863 623.703 L42.6863 618.292 L96.2537 634.843 L96.2537 640.254 L42.6863 623.703 Z" fill="#000000" fill-rule="nonzero" fill-opacity="1" /><path clip-path="url(#clip280)" d="M47.9698 605.465 L84.9227 605.465 L84.9227 597.699 Q84.9227 587.864 80.4668 583.313 Q76.0108 578.729 66.3985 578.729 Q56.85 578.729 52.4258 583.313 Q47.9698 587.864 47.9698 597.699 L47.9698 605.465 M42.6863 611.895 L42.6863 598.686 Q42.6863 584.872 48.4472 578.411 Q54.1764 571.95 66.3985 571.95 Q78.6844 571.95 84.4453 578.443 Q90.2063 584.936 90.2063 598.686 L90.2063 611.895 L42.6863 611.895 Z" fill="#000000" fill-rule="nonzero" fill-opacity="1" /><path clip-path="url(#clip280)" d="M72.2868 545.755 Q72.2868 552.853 73.9101 555.59 Q75.5333 558.327 79.4482 558.327 Q82.5674 558.327 84.4135 556.29 Q86.2277 554.221 86.2277 550.689 Q86.2277 545.819 82.7902 542.891 Q79.3209 539.93 73.5918 539.93 L72.2868 539.93 L72.2868 545.755 M69.8679 534.074 L90.2063 534.074 L90.2063 539.93 L84.7954 539.93 Q88.0419 541.936 89.6015 544.928 Q91.1293 547.919 91.1293 552.248 Q91.1293 557.723 88.0738 560.969 Q84.9864 564.184 79.8302 564.184 Q73.8146 564.184 70.759 560.173 Q67.7035 556.131 67.7035 548.142 L67.7035 539.93 L67.1306 539.93 Q63.0884 539.93 60.8922 542.604 Q58.6642 545.246 58.6642 550.052 Q58.6642 553.107 59.3963 556.004 Q60.1283 558.9 61.5924 561.574 L56.1816 561.574 Q54.9403 558.359 54.3355 555.335 Q53.699 552.312 53.699 549.447 Q53.699 541.713 57.7094 537.893 Q61.7197 534.074 69.8679 534.074 Z" fill="#000000" fill-rule="nonzero" fill-opacity="1" /><path clip-path="url(#clip280)" d="M93.5165 507.179 Q99.8822 509.662 101.824 512.017 Q103.765 514.372 103.765 518.319 L103.765 522.998 L98.8636 522.998 L98.8636 519.56 Q98.8636 517.141 97.7178 515.804 Q96.572 514.468 92.307 512.844 L89.6334 511.794 L54.5583 526.212 L54.5583 520.006 L82.4401 508.866 L54.5583 497.726 L54.5583 491.519 L93.5165 507.179 Z" fill="#000000" fill-rule="nonzero" fill-opacity="1" /><path clip-path="url(#clip280)" d="M40.7447 448.646 Q48.0653 452.911 55.2267 454.98 Q62.3881 457.049 69.7405 457.049 Q77.0929 457.049 84.318 454.98 Q91.5113 452.879 98.8 448.646 L98.8 453.739 Q91.3203 458.513 84.0952 460.9 Q76.8701 463.256 69.7405 463.256 Q62.6428 463.256 55.4495 460.9 Q48.2563 458.545 40.7447 453.739 L40.7447 448.646 Z" fill="#000000" fill-rule="nonzero" fill-opacity="1" /><path clip-path="url(#clip280)" d="M42.6863 437.029 L42.6863 409.72 L48.0971 409.72 L48.0971 430.599 L62.1017 430.599 L62.1017 411.757 L67.5125 411.757 L67.5125 430.599 L90.2063 430.599 L90.2063 437.029 L42.6863 437.029 Z" fill="#000000" fill-rule="nonzero" fill-opacity="1" /><path clip-path="url(#clip280)" d="M60.0328 383.875 Q59.4599 384.862 59.2053 386.04 Q58.9188 387.185 58.9188 388.586 Q58.9188 393.551 62.1653 396.225 Q65.38 398.866 71.4274 398.866 L90.2063 398.866 L90.2063 404.755 L54.5583 404.755 L54.5583 398.866 L60.0965 398.866 Q56.85 397.02 55.2904 394.06 Q53.699 391.1 53.699 386.867 Q53.699 386.262 53.7944 385.53 Q53.8581 384.798 54.0172 383.907 L60.0328 383.875 Z" fill="#000000" fill-rule="nonzero" fill-opacity="1" /><path clip-path="url(#clip280)" d="M72.2868 361.532 Q72.2868 368.629 73.9101 371.367 Q75.5333 374.104 79.4482 374.104 Q82.5674 374.104 84.4135 372.067 Q86.2277 369.998 86.2277 366.465 Q86.2277 361.595 82.7902 358.667 Q79.3209 355.707 73.5918 355.707 L72.2868 355.707 L72.2868 361.532 M69.8679 349.85 L90.2063 349.85 L90.2063 355.707 L84.7954 355.707 Q88.0419 357.712 89.6015 360.704 Q91.1293 363.696 91.1293 368.025 Q91.1293 373.499 88.0738 376.746 Q84.9864 379.96 79.8302 379.96 Q73.8146 379.96 70.759 375.95 Q67.7035 371.908 67.7035 363.919 L67.7035 355.707 L67.1306 355.707 Q63.0884 355.707 60.8922 358.381 Q58.6642 361.022 58.6642 365.828 Q58.6642 368.884 59.3963 371.78 Q60.1283 374.677 61.5924 377.35 L56.1816 377.35 Q54.9403 374.136 54.3355 371.112 Q53.699 368.088 53.699 365.224 Q53.699 357.489 57.7094 353.67 Q61.7197 349.85 69.8679 349.85 Z" fill="#000000" fill-rule="nonzero" fill-opacity="1" /><path clip-path="url(#clip280)" d="M68.6902 308.155 L90.2063 308.155 L90.2063 314.012 L68.8812 314.012 Q63.8204 314.012 61.306 315.985 Q58.7915 317.958 58.7915 321.905 Q58.7915 326.647 61.8152 329.385 Q64.8389 332.122 70.0588 332.122 L90.2063 332.122 L90.2063 338.01 L54.5583 338.01 L54.5583 332.122 L60.0965 332.122 Q56.8818 330.021 55.2904 327.189 Q53.699 324.324 53.699 320.6 Q53.699 314.457 57.5184 311.306 Q61.306 308.155 68.6902 308.155 Z" fill="#000000" fill-rule="nonzero" fill-opacity="1" /><path clip-path="url(#clip280)" d="M55.927 270.82 L61.4015 270.82 Q60.0328 273.303 59.3644 275.817 Q58.6642 278.3 58.6642 280.846 Q58.6642 286.544 62.2927 289.695 Q65.8893 292.846 72.4141 292.846 Q78.939 292.846 82.5674 289.695 Q86.1641 286.544 86.1641 280.846 Q86.1641 278.3 85.4957 275.817 Q84.7954 273.303 83.4268 270.82 L88.8377 270.82 Q89.9835 273.271 90.5564 275.913 Q91.1293 278.523 91.1293 281.483 Q91.1293 289.535 86.0686 294.278 Q81.0078 299.02 72.4141 299.02 Q63.6931 299.02 58.696 294.246 Q53.699 289.44 53.699 281.101 Q53.699 278.395 54.2719 275.817 Q54.813 273.239 55.927 270.82 Z" fill="#000000" fill-rule="nonzero" fill-opacity="1" /><path clip-path="url(#clip280)" d="M70.9182 230.143 L73.7828 230.143 L73.7828 257.07 Q79.8302 256.688 83.013 253.442 Q86.1641 250.164 86.1641 244.339 Q86.1641 240.965 85.3365 237.814 Q84.509 234.631 82.8539 231.512 L88.3921 231.512 Q89.7289 234.663 90.4291 237.973 Q91.1293 241.283 91.1293 244.689 Q91.1293 253.219 86.1641 258.216 Q81.1988 263.181 72.7324 263.181 Q63.9796 263.181 58.8552 258.471 Q53.699 253.728 53.699 245.708 Q53.699 238.514 58.3459 234.345 Q62.9611 230.143 70.9182 230.143 M69.1995 236 Q64.3933 236.063 61.5288 238.705 Q58.6642 241.315 58.6642 245.644 Q58.6642 250.545 61.4333 253.506 Q64.2024 256.434 69.2313 256.879 L69.1995 236 Z" fill="#000000" fill-rule="nonzero" fill-opacity="1" /><path clip-path="url(#clip280)" d="M40.7447 221.454 L40.7447 216.362 Q48.2563 211.587 55.4495 209.232 Q62.6428 206.845 69.7405 206.845 Q76.8701 206.845 84.0952 209.232 Q91.3203 211.587 98.8 216.362 L98.8 221.454 Q91.5113 217.221 84.318 215.152 Q77.0929 213.051 69.7405 213.051 Q62.3881 213.051 55.2267 215.152 Q48.0653 217.221 40.7447 221.454 Z" fill="#000000" fill-rule="nonzero" fill-opacity="1" /><path clip-path="url(#clip282)" d="M288.747 724.365 L288.747 1042.58 L311.29 1042.58 L311.29 724.365 L288.747 724.365 L288.747 724.365  Z" fill="#009af9" fill-rule="evenodd" fill-opacity="0.5"/>
<polyline clip-path="url(#clip282)" style="stroke:#000000; stroke-linecap:round; stroke-linejoin:round; stroke-width:4; stroke-opacity:0.5; fill:none" points="288.747,724.365 288.747,1042.58 311.29,1042.58 311.29,724.365 288.747,724.365 "/>
<path clip-path="url(#clip282)" d="M316.926 724.365 L316.926 1042.58 L339.469 1042.58 L339.469 724.365 L316.926 724.365 L316.926 724.365  Z" fill="#009af9" fill-rule="evenodd" fill-opacity="0.5"/>
<polyline clip-path="url(#clip282)" style="stroke:#000000; stroke-linecap:round; stroke-linejoin:round; stroke-width:4; stroke-opacity:0.5; fill:none" points="316.926,724.365 316.926,1042.58 339.469,1042.58 339.469,724.365 316.926,724.365 "/>
<path clip-path="url(#clip282)" d="M345.105 322.829 L345.105 1042.58 L367.649 1042.58 L367.649 322.829 L345.105 322.829 L345.105 322.829  Z" fill="#009af9" fill-rule="evenodd" fill-opacity="0.5"/>
<polyline clip-path="url(#clip282)" style="stroke:#000000; stroke-linecap:round; stroke-linejoin:round; stroke-width:4; stroke-opacity:0.5; fill:none" points="345.105,322.829 345.105,1042.58 367.649,1042.58 367.649,322.829 345.105,322.829 "/>
<path clip-path="url(#clip282)" d="M373.285 641.039 L373.285 1042.58 L395.828 1042.58 L395.828 641.039 L373.285 641.039 L373.285 641.039  Z" fill="#009af9" fill-rule="evenodd" fill-opacity="0.5"/>
<polyline clip-path="url(#clip282)" style="stroke:#000000; stroke-linecap:round; stroke-linejoin:round; stroke-width:4; stroke-opacity:0.5; fill:none" points="373.285,641.039 373.285,1042.58 395.828,1042.58 395.828,641.039 373.285,641.039 "/>
<path clip-path="url(#clip282)" d="M401.464 440.271 L401.464 1042.58 L424.007 1042.58 L424.007 440.271 L401.464 440.271 L401.464 440.271  Z" fill="#009af9" fill-rule="evenodd" fill-opacity="0.5"/>
<polyline clip-path="url(#clip282)" style="stroke:#000000; stroke-linecap:round; stroke-linejoin:round; stroke-width:4; stroke-opacity:0.5; fill:none" points="401.464,440.271 401.464,1042.58 424.007,1042.58 424.007,440.271 401.464,440.271 "/>
<path clip-path="url(#clip282)" d="M429.643 348.031 L429.643 1042.58 L452.186 1042.58 L452.186 348.031 L429.643 348.031 L429.643 348.031  Z" fill="#009af9" fill-rule="evenodd" fill-opacity="0.5"/>
<polyline clip-path="url(#clip282)" style="stroke:#000000; stroke-linecap:round; stroke-linejoin:round; stroke-width:4; stroke-opacity:0.5; fill:none" points="429.643,348.031 429.643,1042.58 452.186,1042.58 452.186,348.031 429.643,348.031 "/>
<path clip-path="url(#clip282)" d="M457.822 478.948 L457.822 1042.58 L480.366 1042.58 L480.366 478.948 L457.822 478.948 L457.822 478.948  Z" fill="#009af9" fill-rule="evenodd" fill-opacity="0.5"/>
<polyline clip-path="url(#clip282)" style="stroke:#000000; stroke-linecap:round; stroke-linejoin:round; stroke-width:4; stroke-opacity:0.5; fill:none" points="457.822,478.948 457.822,1042.58 480.366,1042.58 480.366,478.948 457.822,478.948 "/>
<path clip-path="url(#clip282)" d="M486.001 841.807 L486.001 1042.58 L508.545 1042.58 L508.545 841.807 L486.001 841.807 L486.001 841.807  Z" fill="#009af9" fill-rule="evenodd" fill-opacity="0.5"/>
<polyline clip-path="url(#clip282)" style="stroke:#000000; stroke-linecap:round; stroke-linejoin:round; stroke-width:4; stroke-opacity:0.5; fill:none" points="486.001,841.807 486.001,1042.58 508.545,1042.58 508.545,841.807 486.001,841.807 "/>
<path clip-path="url(#clip282)" d="M514.181 724.365 L514.181 1042.58 L536.724 1042.58 L536.724 724.365 L514.181 724.365 L514.181 724.365  Z" fill="#009af9" fill-rule="evenodd" fill-opacity="0.5"/>
<polyline clip-path="url(#clip282)" style="stroke:#000000; stroke-linecap:round; stroke-linejoin:round; stroke-width:4; stroke-opacity:0.5; fill:none" points="514.181,724.365 514.181,1042.58 536.724,1042.58 536.724,724.365 514.181,724.365 "/>
<path clip-path="url(#clip282)" d="M542.36 348.031 L542.36 1042.58 L564.903 1042.58 L564.903 348.031 L542.36 348.031 L542.36 348.031  Z" fill="#009af9" fill-rule="evenodd" fill-opacity="0.5"/>
<polyline clip-path="url(#clip282)" style="stroke:#000000; stroke-linecap:round; stroke-linejoin:round; stroke-width:4; stroke-opacity:0.5; fill:none" points="542.36,348.031 542.36,1042.58 564.903,1042.58 564.903,348.031 542.36,348.031 "/>
<path clip-path="url(#clip282)" d="M570.539 478.948 L570.539 1042.58 L593.083 1042.58 L593.083 478.948 L570.539 478.948 L570.539 478.948  Z" fill="#009af9" fill-rule="evenodd" fill-opacity="0.5"/>
<polyline clip-path="url(#clip282)" style="stroke:#000000; stroke-linecap:round; stroke-linejoin:round; stroke-width:4; stroke-opacity:0.5; fill:none" points="570.539,478.948 570.539,1042.58 593.083,1042.58 593.083,478.948 570.539,478.948 "/>
<path clip-path="url(#clip282)" d="M598.718 406.155 L598.718 1042.58 L621.262 1042.58 L621.262 406.155 L598.718 406.155 L598.718 406.155  Z" fill="#009af9" fill-rule="evenodd" fill-opacity="0.5"/>
<polyline clip-path="url(#clip282)" style="stroke:#000000; stroke-linecap:round; stroke-linejoin:round; stroke-width:4; stroke-opacity:0.5; fill:none" points="598.718,406.155 598.718,1042.58 621.262,1042.58 621.262,406.155 598.718,406.155 "/>
<path clip-path="url(#clip282)" d="M626.898 724.365 L626.898 1042.58 L649.441 1042.58 L649.441 724.365 L626.898 724.365 L626.898 724.365  Z" fill="#009af9" fill-rule="evenodd" fill-opacity="0.5"/>
<polyline clip-path="url(#clip282)" style="stroke:#000000; stroke-linecap:round; stroke-linejoin:round; stroke-width:4; stroke-opacity:0.5; fill:none" points="626.898,724.365 626.898,1042.58 649.441,1042.58 649.441,724.365 626.898,724.365 "/>
<path clip-path="url(#clip282)" d="M655.077 841.807 L655.077 1042.58 L677.62 1042.58 L677.62 841.807 L655.077 841.807 L655.077 841.807  Z" fill="#009af9" fill-rule="evenodd" fill-opacity="0.5"/>
<polyline clip-path="url(#clip282)" style="stroke:#000000; stroke-linecap:round; stroke-linejoin:round; stroke-width:4; stroke-opacity:0.5; fill:none" points="655.077,841.807 655.077,1042.58 677.62,1042.58 677.62,841.807 655.077,841.807 "/>
<path clip-path="url(#clip282)" d="M683.256 641.039 L683.256 1042.58 L705.8 1042.58 L705.8 641.039 L683.256 641.039 L683.256 641.039  Z" fill="#009af9" fill-rule="evenodd" fill-opacity="0.5"/>
<polyline clip-path="url(#clip282)" style="stroke:#000000; stroke-linecap:round; stroke-linejoin:round; stroke-width:4; stroke-opacity:0.5; fill:none" points="683.256,641.039 683.256,1042.58 705.8,1042.58 705.8,641.039 683.256,641.039 "/>
<path clip-path="url(#clip282)" d="M711.435 841.807 L711.435 1042.58 L733.979 1042.58 L733.979 841.807 L711.435 841.807 L711.435 841.807  Z" fill="#009af9" fill-rule="evenodd" fill-opacity="0.5"/>
<polyline clip-path="url(#clip282)" style="stroke:#000000; stroke-linecap:round; stroke-linejoin:round; stroke-width:4; stroke-opacity:0.5; fill:none" points="711.435,841.807 711.435,1042.58 733.979,1042.58 733.979,841.807 711.435,841.807 "/>
<path clip-path="url(#clip282)" d="M739.615 221.942 L739.615 1042.58 L762.158 1042.58 L762.158 221.942 L739.615 221.942 L739.615 221.942  Z" fill="#009af9" fill-rule="evenodd" fill-opacity="0.5"/>
<polyline clip-path="url(#clip282)" style="stroke:#000000; stroke-linecap:round; stroke-linejoin:round; stroke-width:4; stroke-opacity:0.5; fill:none" points="739.615,221.942 739.615,1042.58 762.158,1042.58 762.158,221.942 739.615,221.942 "/>
<path clip-path="url(#clip282)" d="M767.794 258.196 L767.794 1042.58 L790.337 1042.58 L790.337 258.196 L767.794 258.196 L767.794 258.196  Z" fill="#009af9" fill-rule="evenodd" fill-opacity="0.5"/>
<polyline clip-path="url(#clip282)" style="stroke:#000000; stroke-linecap:round; stroke-linejoin:round; stroke-width:4; stroke-opacity:0.5; fill:none" points="767.794,258.196 767.794,1042.58 790.337,1042.58 790.337,258.196 767.794,258.196 "/>
<path clip-path="url(#clip282)" d="M795.973 406.155 L795.973 1042.58 L818.517 1042.58 L818.517 406.155 L795.973 406.155 L795.973 406.155  Z" fill="#009af9" fill-rule="evenodd" fill-opacity="0.5"/>
<polyline clip-path="url(#clip282)" style="stroke:#000000; stroke-linecap:round; stroke-linejoin:round; stroke-width:4; stroke-opacity:0.5; fill:none" points="795.973,406.155 795.973,1042.58 818.517,1042.58 818.517,406.155 795.973,406.155 "/>
<path clip-path="url(#clip282)" d="M824.152 322.829 L824.152 1042.58 L846.696 1042.58 L846.696 322.829 L824.152 322.829 L824.152 322.829  Z" fill="#009af9" fill-rule="evenodd" fill-opacity="0.5"/>
<polyline clip-path="url(#clip282)" style="stroke:#000000; stroke-linecap:round; stroke-linejoin:round; stroke-width:4; stroke-opacity:0.5; fill:none" points="824.152,322.829 824.152,1042.58 846.696,1042.58 846.696,322.829 824.152,322.829 "/>
<path clip-path="url(#clip282)" d="M852.332 322.829 L852.332 1042.58 L874.875 1042.58 L874.875 322.829 L852.332 322.829 L852.332 322.829  Z" fill="#009af9" fill-rule="evenodd" fill-opacity="0.5"/>
<polyline clip-path="url(#clip282)" style="stroke:#000000; stroke-linecap:round; stroke-linejoin:round; stroke-width:4; stroke-opacity:0.5; fill:none" points="852.332,322.829 852.332,1042.58 874.875,1042.58 874.875,322.829 852.332,322.829 "/>
<path clip-path="url(#clip282)" d="M880.511 1042.58 L880.511 1042.58 L903.054 1042.58 L903.054 1042.58 L880.511 1042.58 L880.511 1042.58  Z" fill="#009af9" fill-rule="evenodd" fill-opacity="0.5"/>
<polyline clip-path="url(#clip282)" style="stroke:#000000; stroke-linecap:round; stroke-linejoin:round; stroke-width:4; stroke-opacity:0.5; fill:none" points="880.511,1042.58 880.511,1042.58 903.054,1042.58 880.511,1042.58 "/>
<path clip-path="url(#clip282)" d="M936.869 523.597 L936.869 1042.58 L959.413 1042.58 L959.413 523.597 L936.869 523.597 L936.869 523.597  Z" fill="#009af9" fill-rule="evenodd" fill-opacity="0.5"/>
<polyline clip-path="url(#clip282)" style="stroke:#000000; stroke-linecap:round; stroke-linejoin:round; stroke-width:4; stroke-opacity:0.5; fill:none" points="936.869,523.597 936.869,1042.58 959.413,1042.58 959.413,523.597 936.869,523.597 "/>
<path clip-path="url(#clip282)" d="M965.049 478.948 L965.049 1042.58 L987.592 1042.58 L987.592 478.948 L965.049 478.948 L965.049 478.948  Z" fill="#009af9" fill-rule="evenodd" fill-opacity="0.5"/>
<polyline clip-path="url(#clip282)" style="stroke:#000000; stroke-linecap:round; stroke-linejoin:round; stroke-width:4; stroke-opacity:0.5; fill:none" points="965.049,478.948 965.049,1042.58 987.592,1042.58 987.592,478.948 965.049,478.948 "/>
<path clip-path="url(#clip282)" d="M993.228 348.031 L993.228 1042.58 L1015.77 1042.58 L1015.77 348.031 L993.228 348.031 L993.228 348.031  Z" fill="#009af9" fill-rule="evenodd" fill-opacity="0.5"/>
<polyline clip-path="url(#clip282)" style="stroke:#000000; stroke-linecap:round; stroke-linejoin:round; stroke-width:4; stroke-opacity:0.5; fill:none" points="993.228,348.031 993.228,1042.58 1015.77,1042.58 1015.77,348.031 993.228,348.031 "/>
<path clip-path="url(#clip282)" d="M1021.41 440.271 L1021.41 1042.58 L1043.95 1042.58 L1043.95 440.271 L1021.41 440.271 L1021.41 440.271  Z" fill="#009af9" fill-rule="evenodd" fill-opacity="0.5"/>
<polyline clip-path="url(#clip282)" style="stroke:#000000; stroke-linecap:round; stroke-linejoin:round; stroke-width:4; stroke-opacity:0.5; fill:none" points="1021.41,440.271 1021.41,1042.58 1043.95,1042.58 1043.95,440.271 1021.41,440.271 "/>
<path clip-path="url(#clip282)" d="M1049.59 440.271 L1049.59 1042.58 L1072.13 1042.58 L1072.13 440.271 L1049.59 440.271 L1049.59 440.271  Z" fill="#009af9" fill-rule="evenodd" fill-opacity="0.5"/>
<polyline clip-path="url(#clip282)" style="stroke:#000000; stroke-linecap:round; stroke-linejoin:round; stroke-width:4; stroke-opacity:0.5; fill:none" points="1049.59,440.271 1049.59,1042.58 1072.13,1042.58 1072.13,440.271 1049.59,440.271 "/>
<path clip-path="url(#clip282)" d="M1077.77 724.365 L1077.77 1042.58 L1100.31 1042.58 L1100.31 724.365 L1077.77 724.365 L1077.77 724.365  Z" fill="#009af9" fill-rule="evenodd" fill-opacity="0.5"/>
<polyline clip-path="url(#clip282)" style="stroke:#000000; stroke-linecap:round; stroke-linejoin:round; stroke-width:4; stroke-opacity:0.5; fill:none" points="1077.77,724.365 1077.77,1042.58 1100.31,1042.58 1100.31,724.365 1077.77,724.365 "/>
<path clip-path="url(#clip282)" d="M1105.94 724.365 L1105.94 1042.58 L1128.49 1042.58 L1128.49 724.365 L1105.94 724.365 L1105.94 724.365  Z" fill="#009af9" fill-rule="evenodd" fill-opacity="0.5"/>
<polyline clip-path="url(#clip282)" style="stroke:#000000; stroke-linecap:round; stroke-linejoin:round; stroke-width:4; stroke-opacity:0.5; fill:none" points="1105.94,724.365 1105.94,1042.58 1128.49,1042.58 1128.49,724.365 1105.94,724.365 "/>
<path clip-path="url(#clip282)" d="M1134.12 299.644 L1134.12 1042.58 L1156.67 1042.58 L1156.67 299.644 L1134.12 299.644 L1134.12 299.644  Z" fill="#009af9" fill-rule="evenodd" fill-opacity="0.5"/>
<polyline clip-path="url(#clip282)" style="stroke:#000000; stroke-linecap:round; stroke-linejoin:round; stroke-width:4; stroke-opacity:0.5; fill:none" points="1134.12,299.644 1134.12,1042.58 1156.67,1042.58 1156.67,299.644 1134.12,299.644 "/>
<path clip-path="url(#clip282)" d="M1162.3 478.948 L1162.3 1042.58 L1184.85 1042.58 L1184.85 478.948 L1162.3 478.948 L1162.3 478.948  Z" fill="#009af9" fill-rule="evenodd" fill-opacity="0.5"/>
<polyline clip-path="url(#clip282)" style="stroke:#000000; stroke-linecap:round; stroke-linejoin:round; stroke-width:4; stroke-opacity:0.5; fill:none" points="1162.3,478.948 1162.3,1042.58 1184.85,1042.58 1184.85,478.948 1162.3,478.948 "/>
<path clip-path="url(#clip282)" d="M1190.48 239.502 L1190.48 1042.58 L1213.03 1042.58 L1213.03 239.502 L1190.48 239.502 L1190.48 239.502  Z" fill="#009af9" fill-rule="evenodd" fill-opacity="0.5"/>
<polyline clip-path="url(#clip282)" style="stroke:#000000; stroke-linecap:round; stroke-linejoin:round; stroke-width:4; stroke-opacity:0.5; fill:none" points="1190.48,239.502 1190.48,1042.58 1213.03,1042.58 1213.03,239.502 1190.48,239.502 "/>
<path clip-path="url(#clip282)" d="M1218.66 258.196 L1218.66 1042.58 L1241.21 1042.58 L1241.21 258.196 L1218.66 258.196 L1218.66 258.196  Z" fill="#009af9" fill-rule="evenodd" fill-opacity="0.5"/>
<polyline clip-path="url(#clip282)" style="stroke:#000000; stroke-linecap:round; stroke-linejoin:round; stroke-width:4; stroke-opacity:0.5; fill:none" points="1218.66,258.196 1218.66,1042.58 1241.21,1042.58 1241.21,258.196 1218.66,258.196 "/>
<path clip-path="url(#clip282)" d="M1246.84 174.869 L1246.84 1042.58 L1269.38 1042.58 L1269.38 174.869 L1246.84 174.869 L1246.84 174.869  Z" fill="#009af9" fill-rule="evenodd" fill-opacity="0.5"/>
<polyline clip-path="url(#clip282)" style="stroke:#000000; stroke-linecap:round; stroke-linejoin:round; stroke-width:4; stroke-opacity:0.5; fill:none" points="1246.84,174.869 1246.84,1042.58 1269.38,1042.58 1269.38,174.869 1246.84,174.869 "/>
<path clip-path="url(#clip282)" d="M1275.02 841.807 L1275.02 1042.58 L1297.56 1042.58 L1297.56 841.807 L1275.02 841.807 L1275.02 841.807  Z" fill="#009af9" fill-rule="evenodd" fill-opacity="0.5"/>
<polyline clip-path="url(#clip282)" style="stroke:#000000; stroke-linecap:round; stroke-linejoin:round; stroke-width:4; stroke-opacity:0.5; fill:none" points="1275.02,841.807 1275.02,1042.58 1297.56,1042.58 1297.56,841.807 1275.02,841.807 "/>
<path clip-path="url(#clip282)" d="M1303.2 1042.58 L1303.2 1042.58 L1325.74 1042.58 L1325.74 1042.58 L1303.2 1042.58 L1303.2 1042.58  Z" fill="#009af9" fill-rule="evenodd" fill-opacity="0.5"/>
<polyline clip-path="url(#clip282)" style="stroke:#000000; stroke-linecap:round; stroke-linejoin:round; stroke-width:4; stroke-opacity:0.5; fill:none" points="1303.2,1042.58 1303.2,1042.58 1325.74,1042.58 1303.2,1042.58 "/>
<path clip-path="url(#clip282)" d="M1331.38 322.829 L1331.38 1042.58 L1353.92 1042.58 L1353.92 322.829 L1331.38 322.829 L1331.38 322.829  Z" fill="#009af9" fill-rule="evenodd" fill-opacity="0.5"/>
<polyline clip-path="url(#clip282)" style="stroke:#000000; stroke-linecap:round; stroke-linejoin:round; stroke-width:4; stroke-opacity:0.5; fill:none" points="1331.38,322.829 1331.38,1042.58 1353.92,1042.58 1353.92,322.829 1331.38,322.829 "/>
<path clip-path="url(#clip282)" d="M1359.56 406.155 L1359.56 1042.58 L1382.1 1042.58 L1382.1 406.155 L1359.56 406.155 L1359.56 406.155  Z" fill="#009af9" fill-rule="evenodd" fill-opacity="0.5"/>
<polyline clip-path="url(#clip282)" style="stroke:#000000; stroke-linecap:round; stroke-linejoin:round; stroke-width:4; stroke-opacity:0.5; fill:none" points="1359.56,406.155 1359.56,1042.58 1382.1,1042.58 1382.1,406.155 1359.56,406.155 "/>
<path clip-path="url(#clip282)" d="M1387.74 322.829 L1387.74 1042.58 L1410.28 1042.58 L1410.28 322.829 L1387.74 322.829 L1387.74 322.829  Z" fill="#009af9" fill-rule="evenodd" fill-opacity="0.5"/>
<polyline clip-path="url(#clip282)" style="stroke:#000000; stroke-linecap:round; stroke-linejoin:round; stroke-width:4; stroke-opacity:0.5; fill:none" points="1387.74,322.829 1387.74,1042.58 1410.28,1042.58 1410.28,322.829 1387.74,322.829 "/>
<path clip-path="url(#clip282)" d="M1415.92 440.271 L1415.92 1042.58 L1438.46 1042.58 L1438.46 440.271 L1415.92 440.271 L1415.92 440.271  Z" fill="#009af9" fill-rule="evenodd" fill-opacity="0.5"/>
<polyline clip-path="url(#clip282)" style="stroke:#000000; stroke-linecap:round; stroke-linejoin:round; stroke-width:4; stroke-opacity:0.5; fill:none" points="1415.92,440.271 1415.92,1042.58 1438.46,1042.58 1438.46,440.271 1415.92,440.271 "/>
<path clip-path="url(#clip282)" d="M1444.1 189.726 L1444.1 1042.58 L1466.64 1042.58 L1466.64 189.726 L1444.1 189.726 L1444.1 189.726  Z" fill="#009af9" fill-rule="evenodd" fill-opacity="0.5"/>
<polyline clip-path="url(#clip282)" style="stroke:#000000; stroke-linecap:round; stroke-linejoin:round; stroke-width:4; stroke-opacity:0.5; fill:none" points="1444.1,189.726 1444.1,1042.58 1466.64,1042.58 1466.64,189.726 1444.1,189.726 "/>
<path clip-path="url(#clip282)" d="M1472.28 641.039 L1472.28 1042.58 L1494.82 1042.58 L1494.82 641.039 L1472.28 641.039 L1472.28 641.039  Z" fill="#009af9" fill-rule="evenodd" fill-opacity="0.5"/>
<polyline clip-path="url(#clip282)" style="stroke:#000000; stroke-linecap:round; stroke-linejoin:round; stroke-width:4; stroke-opacity:0.5; fill:none" points="1472.28,641.039 1472.28,1042.58 1494.82,1042.58 1494.82,641.039 1472.28,641.039 "/>
<path clip-path="url(#clip282)" d="M1500.45 724.365 L1500.45 1042.58 L1523 1042.58 L1523 724.365 L1500.45 724.365 L1500.45 724.365  Z" fill="#009af9" fill-rule="evenodd" fill-opacity="0.5"/>
<polyline clip-path="url(#clip282)" style="stroke:#000000; stroke-linecap:round; stroke-linejoin:round; stroke-width:4; stroke-opacity:0.5; fill:none" points="1500.45,724.365 1500.45,1042.58 1523,1042.58 1523,724.365 1500.45,724.365 "/>
<path clip-path="url(#clip282)" d="M1528.63 174.869 L1528.63 1042.58 L1551.18 1042.58 L1551.18 174.869 L1528.63 174.869 L1528.63 174.869  Z" fill="#009af9" fill-rule="evenodd" fill-opacity="0.5"/>
<polyline clip-path="url(#clip282)" style="stroke:#000000; stroke-linecap:round; stroke-linejoin:round; stroke-width:4; stroke-opacity:0.5; fill:none" points="1528.63,174.869 1528.63,1042.58 1551.18,1042.58 1551.18,174.869 1528.63,174.869 "/>
<path clip-path="url(#clip282)" d="M1556.81 160.737 L1556.81 1042.58 L1579.36 1042.58 L1579.36 160.737 L1556.81 160.737 L1556.81 160.737  Z" fill="#009af9" fill-rule="evenodd" fill-opacity="0.5"/>
<polyline clip-path="url(#clip282)" style="stroke:#000000; stroke-linecap:round; stroke-linejoin:round; stroke-width:4; stroke-opacity:0.5; fill:none" points="1556.81,160.737 1556.81,1042.58 1579.36,1042.58 1579.36,160.737 1556.81,160.737 "/>
<path clip-path="url(#clip282)" d="M1584.99 478.948 L1584.99 1042.58 L1607.54 1042.58 L1607.54 478.948 L1584.99 478.948 L1584.99 478.948  Z" fill="#009af9" fill-rule="evenodd" fill-opacity="0.5"/>
<polyline clip-path="url(#clip282)" style="stroke:#000000; stroke-linecap:round; stroke-linejoin:round; stroke-width:4; stroke-opacity:0.5; fill:none" points="1584.99,478.948 1584.99,1042.58 1607.54,1042.58 1607.54,478.948 1584.99,478.948 "/>
<path clip-path="url(#clip282)" d="M1613.17 348.031 L1613.17 1042.58 L1635.71 1042.58 L1635.71 348.031 L1613.17 348.031 L1613.17 348.031  Z" fill="#009af9" fill-rule="evenodd" fill-opacity="0.5"/>
<polyline clip-path="url(#clip282)" style="stroke:#000000; stroke-linecap:round; stroke-linejoin:round; stroke-width:4; stroke-opacity:0.5; fill:none" points="1613.17,348.031 1613.17,1042.58 1635.71,1042.58 1635.71,348.031 1613.17,348.031 "/>
<path clip-path="url(#clip282)" d="M1641.35 278.179 L1641.35 1042.58 L1663.89 1042.58 L1663.89 278.179 L1641.35 278.179 L1641.35 278.179  Z" fill="#009af9" fill-rule="evenodd" fill-opacity="0.5"/>
<polyline clip-path="url(#clip282)" style="stroke:#000000; stroke-linecap:round; stroke-linejoin:round; stroke-width:4; stroke-opacity:0.5; fill:none" points="1641.35,278.179 1641.35,1042.58 1663.89,1042.58 1663.89,278.179 1641.35,278.179 "/>
<path clip-path="url(#clip282)" d="M1669.53 641.039 L1669.53 1042.58 L1692.07 1042.58 L1692.07 641.039 L1669.53 641.039 L1669.53 641.039  Z" fill="#009af9" fill-rule="evenodd" fill-opacity="0.5"/>
<polyline clip-path="url(#clip282)" style="stroke:#000000; stroke-linecap:round; stroke-linejoin:round; stroke-width:4; stroke-opacity:0.5; fill:none" points="1669.53,641.039 1669.53,1042.58 1692.07,1042.58 1692.07,641.039 1669.53,641.039 "/>
<path clip-path="url(#clip282)" d="M1697.71 724.365 L1697.71 1042.58 L1720.25 1042.58 L1720.25 724.365 L1697.71 724.365 L1697.71 724.365  Z" fill="#009af9" fill-rule="evenodd" fill-opacity="0.5"/>
<polyline clip-path="url(#clip282)" style="stroke:#000000; stroke-linecap:round; stroke-linejoin:round; stroke-width:4; stroke-opacity:0.5; fill:none" points="1697.71,724.365 1697.71,1042.58 1720.25,1042.58 1720.25,724.365 1697.71,724.365 "/>
<path clip-path="url(#clip282)" d="M1725.89 348.031 L1725.89 1042.58 L1748.43 1042.58 L1748.43 348.031 L1725.89 348.031 L1725.89 348.031  Z" fill="#009af9" fill-rule="evenodd" fill-opacity="0.5"/>
<polyline clip-path="url(#clip282)" style="stroke:#000000; stroke-linecap:round; stroke-linejoin:round; stroke-width:4; stroke-opacity:0.5; fill:none" points="1725.89,348.031 1725.89,1042.58 1748.43,1042.58 1748.43,348.031 1725.89,348.031 "/>
<path clip-path="url(#clip282)" d="M1754.07 576.406 L1754.07 1042.58 L1776.61 1042.58 L1776.61 576.406 L1754.07 576.406 L1754.07 576.406  Z" fill="#009af9" fill-rule="evenodd" fill-opacity="0.5"/>
<polyline clip-path="url(#clip282)" style="stroke:#000000; stroke-linecap:round; stroke-linejoin:round; stroke-width:4; stroke-opacity:0.5; fill:none" points="1754.07,576.406 1754.07,1042.58 1776.61,1042.58 1776.61,576.406 1754.07,576.406 "/>
<path clip-path="url(#clip282)" d="M1782.25 221.942 L1782.25 1042.58 L1804.79 1042.58 L1804.79 221.942 L1782.25 221.942 L1782.25 221.942  Z" fill="#009af9" fill-rule="evenodd" fill-opacity="0.5"/>
<polyline clip-path="url(#clip282)" style="stroke:#000000; stroke-linecap:round; stroke-linejoin:round; stroke-width:4; stroke-opacity:0.5; fill:none" points="1782.25,221.942 1782.25,1042.58 1804.79,1042.58 1804.79,221.942 1782.25,221.942 "/>
<path clip-path="url(#clip282)" d="M1810.43 278.179 L1810.43 1042.58 L1832.97 1042.58 L1832.97 278.179 L1810.43 278.179 L1810.43 278.179  Z" fill="#009af9" fill-rule="evenodd" fill-opacity="0.5"/>
<polyline clip-path="url(#clip282)" style="stroke:#000000; stroke-linecap:round; stroke-linejoin:round; stroke-width:4; stroke-opacity:0.5; fill:none" points="1810.43,278.179 1810.43,1042.58 1832.97,1042.58 1832.97,278.179 1810.43,278.179 "/>
<path clip-path="url(#clip282)" d="M1838.61 440.271 L1838.61 1042.58 L1861.15 1042.58 L1861.15 440.271 L1838.61 440.271 L1838.61 440.271  Z" fill="#009af9" fill-rule="evenodd" fill-opacity="0.5"/>
<polyline clip-path="url(#clip282)" style="stroke:#000000; stroke-linecap:round; stroke-linejoin:round; stroke-width:4; stroke-opacity:0.5; fill:none" points="1838.61,440.271 1838.61,1042.58 1861.15,1042.58 1861.15,440.271 1838.61,440.271 "/>
<path clip-path="url(#clip282)" d="M1866.78 641.039 L1866.78 1042.58 L1889.33 1042.58 L1889.33 641.039 L1866.78 641.039 L1866.78 641.039  Z" fill="#009af9" fill-rule="evenodd" fill-opacity="0.5"/>
<polyline clip-path="url(#clip282)" style="stroke:#000000; stroke-linecap:round; stroke-linejoin:round; stroke-width:4; stroke-opacity:0.5; fill:none" points="1866.78,641.039 1866.78,1042.58 1889.33,1042.58 1889.33,641.039 1866.78,641.039 "/>
<path clip-path="url(#clip282)" d="M1894.96 1042.58 L1894.96 1042.58 L1917.51 1042.58 L1917.51 1042.58 L1894.96 1042.58 L1894.96 1042.58  Z" fill="#009af9" fill-rule="evenodd" fill-opacity="0.5"/>
<polyline clip-path="url(#clip282)" style="stroke:#000000; stroke-linecap:round; stroke-linejoin:round; stroke-width:4; stroke-opacity:0.5; fill:none" points="1894.96,1042.58 1894.96,1042.58 1917.51,1042.58 1894.96,1042.58 "/>
<path clip-path="url(#clip282)" d="M1923.14 278.179 L1923.14 1042.58 L1945.69 1042.58 L1945.69 278.179 L1923.14 278.179 L1923.14 278.179  Z" fill="#009af9" fill-rule="evenodd" fill-opacity="0.5"/>
<polyline clip-path="url(#clip282)" style="stroke:#000000; stroke-linecap:round; stroke-linejoin:round; stroke-width:4; stroke-opacity:0.5; fill:none" points="1923.14,278.179 1923.14,1042.58 1945.69,1042.58 1945.69,278.179 1923.14,278.179 "/>
<path clip-path="url(#clip282)" d="M1951.32 375.638 L1951.32 1042.58 L1973.87 1042.58 L1973.87 375.638 L1951.32 375.638 L1951.32 375.638  Z" fill="#009af9" fill-rule="evenodd" fill-opacity="0.5"/>
<polyline clip-path="url(#clip282)" style="stroke:#000000; stroke-linecap:round; stroke-linejoin:round; stroke-width:4; stroke-opacity:0.5; fill:none" points="1951.32,375.638 1951.32,1042.58 1973.87,1042.58 1973.87,375.638 1951.32,375.638 "/>
<path clip-path="url(#clip282)" d="M1979.5 205.387 L1979.5 1042.58 L2002.04 1042.58 L2002.04 205.387 L1979.5 205.387 L1979.5 205.387  Z" fill="#009af9" fill-rule="evenodd" fill-opacity="0.5"/>
<polyline clip-path="url(#clip282)" style="stroke:#000000; stroke-linecap:round; stroke-linejoin:round; stroke-width:4; stroke-opacity:0.5; fill:none" points="1979.5,205.387 1979.5,1042.58 2002.04,1042.58 2002.04,205.387 1979.5,205.387 "/>
<path clip-path="url(#clip282)" d="M2007.68 221.942 L2007.68 1042.58 L2030.22 1042.58 L2030.22 221.942 L2007.68 221.942 L2007.68 221.942  Z" fill="#009af9" fill-rule="evenodd" fill-opacity="0.5"/>
<polyline clip-path="url(#clip282)" style="stroke:#000000; stroke-linecap:round; stroke-linejoin:round; stroke-width:4; stroke-opacity:0.5; fill:none" points="2007.68,221.942 2007.68,1042.58 2030.22,1042.58 2030.22,221.942 2007.68,221.942 "/>
<path clip-path="url(#clip282)" d="M2035.86 576.406 L2035.86 1042.58 L2058.4 1042.58 L2058.4 576.406 L2035.86 576.406 L2035.86 576.406  Z" fill="#009af9" fill-rule="evenodd" fill-opacity="0.5"/>
<polyline clip-path="url(#clip282)" style="stroke:#000000; stroke-linecap:round; stroke-linejoin:round; stroke-width:4; stroke-opacity:0.5; fill:none" points="2035.86,576.406 2035.86,1042.58 2058.4,1042.58 2058.4,576.406 2035.86,576.406 "/>
<path clip-path="url(#clip282)" d="M2064.04 841.807 L2064.04 1042.58 L2086.58 1042.58 L2086.58 841.807 L2064.04 841.807 L2064.04 841.807  Z" fill="#009af9" fill-rule="evenodd" fill-opacity="0.5"/>
<polyline clip-path="url(#clip282)" style="stroke:#000000; stroke-linecap:round; stroke-linejoin:round; stroke-width:4; stroke-opacity:0.5; fill:none" points="2064.04,841.807 2064.04,1042.58 2086.58,1042.58 2086.58,841.807 2064.04,841.807 "/>
<path clip-path="url(#clip282)" d="M2092.22 641.039 L2092.22 1042.58 L2114.76 1042.58 L2114.76 641.039 L2092.22 641.039 L2092.22 641.039  Z" fill="#009af9" fill-rule="evenodd" fill-opacity="0.5"/>
<polyline clip-path="url(#clip282)" style="stroke:#000000; stroke-linecap:round; stroke-linejoin:round; stroke-width:4; stroke-opacity:0.5; fill:none" points="2092.22,641.039 2092.22,1042.58 2114.76,1042.58 2114.76,641.039 2092.22,641.039 "/>
<path clip-path="url(#clip282)" d="M2120.4 110.236 L2120.4 1042.58 L2142.94 1042.58 L2142.94 110.236 L2120.4 110.236 L2120.4 110.236  Z" fill="#009af9" fill-rule="evenodd" fill-opacity="0.5"/>
<polyline clip-path="url(#clip282)" style="stroke:#000000; stroke-linecap:round; stroke-linejoin:round; stroke-width:4; stroke-opacity:0.5; fill:none" points="2120.4,110.236 2120.4,1042.58 2142.94,1042.58 2142.94,110.236 2120.4,110.236 "/>
<path clip-path="url(#clip282)" d="M2148.58 239.502 L2148.58 1042.58 L2171.12 1042.58 L2171.12 239.502 L2148.58 239.502 L2148.58 239.502  Z" fill="#009af9" fill-rule="evenodd" fill-opacity="0.5"/>
<polyline clip-path="url(#clip282)" style="stroke:#000000; stroke-linecap:round; stroke-linejoin:round; stroke-width:4; stroke-opacity:0.5; fill:none" points="2148.58,239.502 2148.58,1042.58 2171.12,1042.58 2171.12,239.502 2148.58,239.502 "/>
<path clip-path="url(#clip282)" d="M2176.76 189.726 L2176.76 1042.58 L2199.3 1042.58 L2199.3 189.726 L2176.76 189.726 L2176.76 189.726  Z" fill="#009af9" fill-rule="evenodd" fill-opacity="0.5"/>
<polyline clip-path="url(#clip282)" style="stroke:#000000; stroke-linecap:round; stroke-linejoin:round; stroke-width:4; stroke-opacity:0.5; fill:none" points="2176.76,189.726 2176.76,1042.58 2199.3,1042.58 2199.3,189.726 2176.76,189.726 "/>
<path clip-path="url(#clip282)" d="M2204.94 160.737 L2204.94 1042.58 L2227.48 1042.58 L2227.48 160.737 L2204.94 160.737 L2204.94 160.737  Z" fill="#009af9" fill-rule="evenodd" fill-opacity="0.5"/>
<polyline clip-path="url(#clip282)" style="stroke:#000000; stroke-linecap:round; stroke-linejoin:round; stroke-width:4; stroke-opacity:0.5; fill:none" points="2204.94,160.737 2204.94,1042.58 2227.48,1042.58 2227.48,160.737 2204.94,160.737 "/>
<path clip-path="url(#clip282)" d="M2233.11 406.155 L2233.11 1042.58 L2255.66 1042.58 L2255.66 406.155 L2233.11 406.155 L2233.11 406.155  Z" fill="#009af9" fill-rule="evenodd" fill-opacity="0.5"/>
<polyline clip-path="url(#clip282)" style="stroke:#000000; stroke-linecap:round; stroke-linejoin:round; stroke-width:4; stroke-opacity:0.5; fill:none" points="2233.11,406.155 2233.11,1042.58 2255.66,1042.58 2255.66,406.155 2233.11,406.155 "/>
<path clip-path="url(#clip282)" d="M2261.29 724.365 L2261.29 1042.58 L2283.84 1042.58 L2283.84 724.365 L2261.29 724.365 L2261.29 724.365  Z" fill="#009af9" fill-rule="evenodd" fill-opacity="0.5"/>
<polyline clip-path="url(#clip282)" style="stroke:#000000; stroke-linecap:round; stroke-linejoin:round; stroke-width:4; stroke-opacity:0.5; fill:none" points="2261.29,724.365 2261.29,1042.58 2283.84,1042.58 2283.84,724.365 2261.29,724.365 "/>
<path clip-path="url(#clip282)" d="M2317.65 841.807 L2317.65 1042.58 L2340.2 1042.58 L2340.2 841.807 L2317.65 841.807 L2317.65 841.807  Z" fill="#009af9" fill-rule="evenodd" fill-opacity="0.5"/>
<polyline clip-path="url(#clip282)" style="stroke:#000000; stroke-linecap:round; stroke-linejoin:round; stroke-width:4; stroke-opacity:0.5; fill:none" points="2317.65,841.807 2317.65,1042.58 2340.2,1042.58 2340.2,841.807 2317.65,841.807 "/>
<path clip-path="url(#clip282)" d="M2345.83 1042.58 L2345.83 1042.58 L2368.38 1042.58 L2368.38 1042.58 L2345.83 1042.58 L2345.83 1042.58  Z" fill="#009af9" fill-rule="evenodd" fill-opacity="0.5"/>
<polyline clip-path="url(#clip282)" style="stroke:#000000; stroke-linecap:round; stroke-linejoin:round; stroke-width:4; stroke-opacity:0.5; fill:none" points="2345.83,1042.58 2345.83,1042.58 2368.38,1042.58 2345.83,1042.58 "/>
<path clip-path="url(#clip282)" d="M2374.01 724.365 L2374.01 1042.58 L2396.55 1042.58 L2396.55 724.365 L2374.01 724.365 L2374.01 724.365  Z" fill="#009af9" fill-rule="evenodd" fill-opacity="0.5"/>
<polyline clip-path="url(#clip282)" style="stroke:#000000; stroke-linecap:round; stroke-linejoin:round; stroke-width:4; stroke-opacity:0.5; fill:none" points="2374.01,724.365 2374.01,1042.58 2396.55,1042.58 2396.55,724.365 2374.01,724.365 "/>
<path clip-path="url(#clip282)" d="M2402.19 841.807 L2402.19 1042.58 L2424.73 1042.58 L2424.73 841.807 L2402.19 841.807 L2402.19 841.807  Z" fill="#009af9" fill-rule="evenodd" fill-opacity="0.5"/>
<polyline clip-path="url(#clip282)" style="stroke:#000000; stroke-linecap:round; stroke-linejoin:round; stroke-width:4; stroke-opacity:0.5; fill:none" points="2402.19,841.807 2402.19,1042.58 2424.73,1042.58 2424.73,841.807 2402.19,841.807 "/>
<path clip-path="url(#clip282)" d="M2430.37 841.807 L2430.37 1042.58 L2452.91 1042.58 L2452.91 841.807 L2430.37 841.807 L2430.37 841.807  Z" fill="#009af9" fill-rule="evenodd" fill-opacity="0.5"/>
<polyline clip-path="url(#clip282)" style="stroke:#000000; stroke-linecap:round; stroke-linejoin:round; stroke-width:4; stroke-opacity:0.5; fill:none" points="2430.37,841.807 2430.37,1042.58 2452.91,1042.58 2452.91,841.807 2430.37,841.807 "/>
<path clip-path="url(#clip282)" d="M2458.55 1042.58 L2458.55 1042.58 L2481.09 1042.58 L2481.09 1042.58 L2458.55 1042.58 L2458.55 1042.58  Z" fill="#009af9" fill-rule="evenodd" fill-opacity="0.5"/>
<polyline clip-path="url(#clip282)" style="stroke:#000000; stroke-linecap:round; stroke-linejoin:round; stroke-width:4; stroke-opacity:0.5; fill:none" points="2458.55,1042.58 2458.55,1042.58 2481.09,1042.58 2458.55,1042.58 "/>
<path clip-path="url(#clip282)" d="M2514.91 641.039 L2514.91 1042.58 L2537.45 1042.58 L2537.45 641.039 L2514.91 641.039 L2514.91 641.039  Z" fill="#009af9" fill-rule="evenodd" fill-opacity="0.5"/>
<polyline clip-path="url(#clip282)" style="stroke:#000000; stroke-linecap:round; stroke-linejoin:round; stroke-width:4; stroke-opacity:0.5; fill:none" points="2514.91,641.039 2514.91,1042.58 2537.45,1042.58 2537.45,641.039 2514.91,641.039 "/>
<circle clip-path="url(#clip282)" style="fill:#009af9; stroke:none; fill-opacity:0" cx="300.018" cy="724.365" r="2"/>
<circle clip-path="url(#clip282)" style="fill:#009af9; stroke:none; fill-opacity:0" cx="328.198" cy="724.365" r="2"/>
<circle clip-path="url(#clip282)" style="fill:#009af9; stroke:none; fill-opacity:0" cx="356.377" cy="322.829" r="2"/>
<circle clip-path="url(#clip282)" style="fill:#009af9; stroke:none; fill-opacity:0" cx="384.556" cy="641.039" r="2"/>
<circle clip-path="url(#clip282)" style="fill:#009af9; stroke:none; fill-opacity:0" cx="412.735" cy="440.271" r="2"/>
<circle clip-path="url(#clip282)" style="fill:#009af9; stroke:none; fill-opacity:0" cx="440.915" cy="348.031" r="2"/>
<circle clip-path="url(#clip282)" style="fill:#009af9; stroke:none; fill-opacity:0" cx="469.094" cy="478.948" r="2"/>
<circle clip-path="url(#clip282)" style="fill:#009af9; stroke:none; fill-opacity:0" cx="497.273" cy="841.807" r="2"/>
<circle clip-path="url(#clip282)" style="fill:#009af9; stroke:none; fill-opacity:0" cx="525.452" cy="724.365" r="2"/>
<circle clip-path="url(#clip282)" style="fill:#009af9; stroke:none; fill-opacity:0" cx="553.632" cy="348.031" r="2"/>
<circle clip-path="url(#clip282)" style="fill:#009af9; stroke:none; fill-opacity:0" cx="581.811" cy="478.948" r="2"/>
<circle clip-path="url(#clip282)" style="fill:#009af9; stroke:none; fill-opacity:0" cx="609.99" cy="406.155" r="2"/>
<circle clip-path="url(#clip282)" style="fill:#009af9; stroke:none; fill-opacity:0" cx="638.169" cy="724.365" r="2"/>
<circle clip-path="url(#clip282)" style="fill:#009af9; stroke:none; fill-opacity:0" cx="666.349" cy="841.807" r="2"/>
<circle clip-path="url(#clip282)" style="fill:#009af9; stroke:none; fill-opacity:0" cx="694.528" cy="641.039" r="2"/>
<circle clip-path="url(#clip282)" style="fill:#009af9; stroke:none; fill-opacity:0" cx="722.707" cy="841.807" r="2"/>
<circle clip-path="url(#clip282)" style="fill:#009af9; stroke:none; fill-opacity:0" cx="750.886" cy="221.942" r="2"/>
<circle clip-path="url(#clip282)" style="fill:#009af9; stroke:none; fill-opacity:0" cx="779.066" cy="258.196" r="2"/>
<circle clip-path="url(#clip282)" style="fill:#009af9; stroke:none; fill-opacity:0" cx="807.245" cy="406.155" r="2"/>
<circle clip-path="url(#clip282)" style="fill:#009af9; stroke:none; fill-opacity:0" cx="835.424" cy="322.829" r="2"/>
<circle clip-path="url(#clip282)" style="fill:#009af9; stroke:none; fill-opacity:0" cx="863.603" cy="322.829" r="2"/>
<circle clip-path="url(#clip282)" style="fill:#009af9; stroke:none; fill-opacity:0" cx="891.783" cy="1042.58" r="2"/>
<circle clip-path="url(#clip282)" style="fill:#009af9; stroke:none; fill-opacity:0" cx="948.141" cy="523.597" r="2"/>
<circle clip-path="url(#clip282)" style="fill:#009af9; stroke:none; fill-opacity:0" cx="976.32" cy="478.948" r="2"/>
<circle clip-path="url(#clip282)" style="fill:#009af9; stroke:none; fill-opacity:0" cx="1004.5" cy="348.031" r="2"/>
<circle clip-path="url(#clip282)" style="fill:#009af9; stroke:none; fill-opacity:0" cx="1032.68" cy="440.271" r="2"/>
<circle clip-path="url(#clip282)" style="fill:#009af9; stroke:none; fill-opacity:0" cx="1060.86" cy="440.271" r="2"/>
<circle clip-path="url(#clip282)" style="fill:#009af9; stroke:none; fill-opacity:0" cx="1089.04" cy="724.365" r="2"/>
<circle clip-path="url(#clip282)" style="fill:#009af9; stroke:none; fill-opacity:0" cx="1117.22" cy="724.365" r="2"/>
<circle clip-path="url(#clip282)" style="fill:#009af9; stroke:none; fill-opacity:0" cx="1145.4" cy="299.644" r="2"/>
<circle clip-path="url(#clip282)" style="fill:#009af9; stroke:none; fill-opacity:0" cx="1173.58" cy="478.948" r="2"/>
<circle clip-path="url(#clip282)" style="fill:#009af9; stroke:none; fill-opacity:0" cx="1201.75" cy="239.502" r="2"/>
<circle clip-path="url(#clip282)" style="fill:#009af9; stroke:none; fill-opacity:0" cx="1229.93" cy="258.196" r="2"/>
<circle clip-path="url(#clip282)" style="fill:#009af9; stroke:none; fill-opacity:0" cx="1258.11" cy="174.869" r="2"/>
<circle clip-path="url(#clip282)" style="fill:#009af9; stroke:none; fill-opacity:0" cx="1286.29" cy="841.807" r="2"/>
<circle clip-path="url(#clip282)" style="fill:#009af9; stroke:none; fill-opacity:0" cx="1314.47" cy="1042.58" r="2"/>
<circle clip-path="url(#clip282)" style="fill:#009af9; stroke:none; fill-opacity:0" cx="1342.65" cy="322.829" r="2"/>
<circle clip-path="url(#clip282)" style="fill:#009af9; stroke:none; fill-opacity:0" cx="1370.83" cy="406.155" r="2"/>
<circle clip-path="url(#clip282)" style="fill:#009af9; stroke:none; fill-opacity:0" cx="1399.01" cy="322.829" r="2"/>
<circle clip-path="url(#clip282)" style="fill:#009af9; stroke:none; fill-opacity:0" cx="1427.19" cy="440.271" r="2"/>
<circle clip-path="url(#clip282)" style="fill:#009af9; stroke:none; fill-opacity:0" cx="1455.37" cy="189.726" r="2"/>
<circle clip-path="url(#clip282)" style="fill:#009af9; stroke:none; fill-opacity:0" cx="1483.55" cy="641.039" r="2"/>
<circle clip-path="url(#clip282)" style="fill:#009af9; stroke:none; fill-opacity:0" cx="1511.73" cy="724.365" r="2"/>
<circle clip-path="url(#clip282)" style="fill:#009af9; stroke:none; fill-opacity:0" cx="1539.91" cy="174.869" r="2"/>
<circle clip-path="url(#clip282)" style="fill:#009af9; stroke:none; fill-opacity:0" cx="1568.08" cy="160.737" r="2"/>
<circle clip-path="url(#clip282)" style="fill:#009af9; stroke:none; fill-opacity:0" cx="1596.26" cy="478.948" r="2"/>
<circle clip-path="url(#clip282)" style="fill:#009af9; stroke:none; fill-opacity:0" cx="1624.44" cy="348.031" r="2"/>
<circle clip-path="url(#clip282)" style="fill:#009af9; stroke:none; fill-opacity:0" cx="1652.62" cy="278.179" r="2"/>
<circle clip-path="url(#clip282)" style="fill:#009af9; stroke:none; fill-opacity:0" cx="1680.8" cy="641.039" r="2"/>
<circle clip-path="url(#clip282)" style="fill:#009af9; stroke:none; fill-opacity:0" cx="1708.98" cy="724.365" r="2"/>
<circle clip-path="url(#clip282)" style="fill:#009af9; stroke:none; fill-opacity:0" cx="1737.16" cy="348.031" r="2"/>
<circle clip-path="url(#clip282)" style="fill:#009af9; stroke:none; fill-opacity:0" cx="1765.34" cy="576.406" r="2"/>
<circle clip-path="url(#clip282)" style="fill:#009af9; stroke:none; fill-opacity:0" cx="1793.52" cy="221.942" r="2"/>
<circle clip-path="url(#clip282)" style="fill:#009af9; stroke:none; fill-opacity:0" cx="1821.7" cy="278.179" r="2"/>
<circle clip-path="url(#clip282)" style="fill:#009af9; stroke:none; fill-opacity:0" cx="1849.88" cy="440.271" r="2"/>
<circle clip-path="url(#clip282)" style="fill:#009af9; stroke:none; fill-opacity:0" cx="1878.06" cy="641.039" r="2"/>
<circle clip-path="url(#clip282)" style="fill:#009af9; stroke:none; fill-opacity:0" cx="1906.24" cy="1042.58" r="2"/>
<circle clip-path="url(#clip282)" style="fill:#009af9; stroke:none; fill-opacity:0" cx="1934.41" cy="278.179" r="2"/>
<circle clip-path="url(#clip282)" style="fill:#009af9; stroke:none; fill-opacity:0" cx="1962.59" cy="375.638" r="2"/>
<circle clip-path="url(#clip282)" style="fill:#009af9; stroke:none; fill-opacity:0" cx="1990.77" cy="205.387" r="2"/>
<circle clip-path="url(#clip282)" style="fill:#009af9; stroke:none; fill-opacity:0" cx="2018.95" cy="221.942" r="2"/>
<circle clip-path="url(#clip282)" style="fill:#009af9; stroke:none; fill-opacity:0" cx="2047.13" cy="576.406" r="2"/>
<circle clip-path="url(#clip282)" style="fill:#009af9; stroke:none; fill-opacity:0" cx="2075.31" cy="841.807" r="2"/>
<circle clip-path="url(#clip282)" style="fill:#009af9; stroke:none; fill-opacity:0" cx="2103.49" cy="641.039" r="2"/>
<circle clip-path="url(#clip282)" style="fill:#009af9; stroke:none; fill-opacity:0" cx="2131.67" cy="110.236" r="2"/>
<circle clip-path="url(#clip282)" style="fill:#009af9; stroke:none; fill-opacity:0" cx="2159.85" cy="239.502" r="2"/>
<circle clip-path="url(#clip282)" style="fill:#009af9; stroke:none; fill-opacity:0" cx="2188.03" cy="189.726" r="2"/>
<circle clip-path="url(#clip282)" style="fill:#009af9; stroke:none; fill-opacity:0" cx="2216.21" cy="160.737" r="2"/>
<circle clip-path="url(#clip282)" style="fill:#009af9; stroke:none; fill-opacity:0" cx="2244.39" cy="406.155" r="2"/>
<circle clip-path="url(#clip282)" style="fill:#009af9; stroke:none; fill-opacity:0" cx="2272.57" cy="724.365" r="2"/>
<circle clip-path="url(#clip282)" style="fill:#009af9; stroke:none; fill-opacity:0" cx="2328.92" cy="841.807" r="2"/>
<circle clip-path="url(#clip282)" style="fill:#009af9; stroke:none; fill-opacity:0" cx="2357.1" cy="1042.58" r="2"/>
<circle clip-path="url(#clip282)" style="fill:#009af9; stroke:none; fill-opacity:0" cx="2385.28" cy="724.365" r="2"/>
<circle clip-path="url(#clip282)" style="fill:#009af9; stroke:none; fill-opacity:0" cx="2413.46" cy="841.807" r="2"/>
<circle clip-path="url(#clip282)" style="fill:#009af9; stroke:none; fill-opacity:0" cx="2441.64" cy="841.807" r="2"/>
<circle clip-path="url(#clip282)" style="fill:#009af9; stroke:none; fill-opacity:0" cx="2469.82" cy="1042.58" r="2"/>
<circle clip-path="url(#clip282)" style="fill:#009af9; stroke:none; fill-opacity:0" cx="2526.18" cy="641.039" r="2"/>
</svg>
