<?xml version="1.0" encoding="utf-8"?>
<svg xmlns="http://www.w3.org/2000/svg" xmlns:xlink="http://www.w3.org/1999/xlink" width="800" height="300" viewBox="0 0 3200 1200">
<defs>
  <clipPath id="clip480">
    <rect x="0" y="0" width="3200" height="1200"/>
  </clipPath>
</defs>
<path clip-path="url(#clip480)" d="M0 1200 L3200 1200 L3200 0 L0 0  Z" fill="#ffffff" fill-rule="evenodd" fill-opacity="1"/>
<defs>
  <clipPath id="clip481">
    <rect x="640" y="0" width="2241" height="1200"/>
  </clipPath>
</defs>
<path clip-path="url(#clip480)" d="M271.839 1042.58 L3089.76 1042.58 L3089.76 110.236 L271.839 110.236  Z" fill="#ffffff" fill-rule="evenodd" fill-opacity="1"/>
<defs>
  <clipPath id="clip482">
    <rect x="271" y="110" width="2819" height="933"/>
  </clipPath>
</defs>
<polyline clip-path="url(#clip482)" style="stroke:#000000; stroke-linecap:round; stroke-linejoin:round; stroke-width:2; stroke-opacity:0.1; fill:none" points="1117.22,1042.58 1117.22,110.236 "/>
<polyline clip-path="url(#clip482)" style="stroke:#000000; stroke-linecap:round; stroke-linejoin:round; stroke-width:2; stroke-opacity:0.1; fill:none" points="1934.41,1042.58 1934.41,110.236 "/>
<polyline clip-path="url(#clip482)" style="stroke:#000000; stroke-linecap:round; stroke-linejoin:round; stroke-width:2; stroke-opacity:0.1; fill:none" points="2807.97,1042.58 2807.97,110.236 "/>
<polyline clip-path="url(#clip480)" style="stroke:#000000; stroke-linecap:round; stroke-linejoin:round; stroke-width:4; stroke-opacity:1; fill:none" points="271.839,1042.58 3089.76,1042.58 "/>
<polyline clip-path="url(#clip480)" style="stroke:#000000; stroke-linecap:round; stroke-linejoin:round; stroke-width:4; stroke-opacity:1; fill:none" points="1117.22,1042.58 1117.22,1023.68 "/>
<polyline clip-path="url(#clip480)" style="stroke:#000000; stroke-linecap:round; stroke-linejoin:round; stroke-width:4; stroke-opacity:1; fill:none" points="1934.41,1042.58 1934.41,1023.68 "/>
<polyline clip-path="url(#clip480)" style="stroke:#000000; stroke-linecap:round; stroke-linejoin:round; stroke-width:4; stroke-opacity:1; fill:none" points="2807.97,1042.58 2807.97,1023.68 "/>
<path clip-path="url(#clip480)" d="M989.011 1107.44 L1005.33 1107.44 L1005.33 1111.38 L983.386 1111.38 L983.386 1107.44 Q986.048 1104.69 990.632 1100.06 Q995.238 1095.4 996.419 1094.06 Q998.664 1091.54 999.544 1089.8 Q1000.45 1088.04 1000.45 1086.35 Q1000.45 1083.6 998.502 1081.86 Q996.581 1080.13 993.479 1080.13 Q991.28 1080.13 988.826 1080.89 Q986.396 1081.65 983.618 1083.2 L983.618 1078.48 Q986.442 1077.35 988.896 1076.77 Q991.349 1076.19 993.386 1076.19 Q998.757 1076.19 1001.95 1078.88 Q1005.15 1081.56 1005.15 1086.05 Q1005.15 1088.18 1004.34 1090.1 Q1003.55 1092 1001.44 1094.59 Q1000.86 1095.26 997.761 1098.48 Q994.659 1101.68 989.011 1107.44 Z" fill="#000000" fill-rule="nonzero" fill-opacity="1" /><path clip-path="url(#clip480)" d="M1025.15 1079.89 Q1021.53 1079.89 1019.71 1083.46 Q1017.9 1087 1017.9 1094.13 Q1017.9 1101.24 1019.71 1104.8 Q1021.53 1108.34 1025.15 1108.34 Q1028.78 1108.34 1030.59 1104.8 Q1032.41 1101.24 1032.41 1094.13 Q1032.41 1087 1030.59 1083.46 Q1028.78 1079.89 1025.15 1079.89 M1025.15 1076.19 Q1030.96 1076.19 1034.01 1080.8 Q1037.09 1085.38 1037.09 1094.13 Q1037.09 1102.86 1034.01 1107.46 Q1030.96 1112.05 1025.15 1112.05 Q1019.34 1112.05 1016.26 1107.46 Q1013.2 1102.86 1013.2 1094.13 Q1013.2 1085.38 1016.26 1080.8 Q1019.34 1076.19 1025.15 1076.19 Z" fill="#000000" fill-rule="nonzero" fill-opacity="1" /><path clip-path="url(#clip480)" d="M1049.34 1107.44 L1065.65 1107.44 L1065.65 1111.38 L1043.71 1111.38 L1043.71 1107.44 Q1046.37 1104.69 1050.96 1100.06 Q1055.56 1095.4 1056.74 1094.06 Q1058.99 1091.54 1059.87 1089.8 Q1060.77 1088.04 1060.77 1086.35 Q1060.77 1083.6 1058.83 1081.86 Q1056.9 1080.13 1053.8 1080.13 Q1051.6 1080.13 1049.15 1080.89 Q1046.72 1081.65 1043.94 1083.2 L1043.94 1078.48 Q1046.77 1077.35 1049.22 1076.77 Q1051.67 1076.19 1053.71 1076.19 Q1059.08 1076.19 1062.27 1078.88 Q1065.47 1081.56 1065.47 1086.05 Q1065.47 1088.18 1064.66 1090.1 Q1063.87 1092 1061.77 1094.59 Q1061.19 1095.26 1058.08 1098.48 Q1054.98 1101.68 1049.34 1107.44 Z" fill="#000000" fill-rule="nonzero" fill-opacity="1" /><path clip-path="url(#clip480)" d="M1088.32 1080.89 L1076.51 1099.34 L1088.32 1099.34 L1088.32 1080.89 M1087.09 1076.82 L1092.97 1076.82 L1092.97 1099.34 L1097.9 1099.34 L1097.9 1103.23 L1092.97 1103.23 L1092.97 1111.38 L1088.32 1111.38 L1088.32 1103.23 L1072.71 1103.23 L1072.71 1098.71 L1087.09 1076.82 Z" fill="#000000" fill-rule="nonzero" fill-opacity="1" /><path clip-path="url(#clip480)" d="M1102.88 1096.49 L1115.35 1096.49 L1115.35 1100.29 L1102.88 1100.29 L1102.88 1096.49 Z" fill="#000000" fill-rule="nonzero" fill-opacity="1" /><path clip-path="url(#clip480)" d="M1132.74 1079.89 Q1129.13 1079.89 1127.3 1083.46 Q1125.49 1087 1125.49 1094.13 Q1125.49 1101.24 1127.3 1104.8 Q1129.13 1108.34 1132.74 1108.34 Q1136.37 1108.34 1138.18 1104.8 Q1140.01 1101.24 1140.01 1094.13 Q1140.01 1087 1138.18 1083.46 Q1136.37 1079.89 1132.74 1079.89 M1132.74 1076.19 Q1138.55 1076.19 1141.6 1080.8 Q1144.68 1085.38 1144.68 1094.13 Q1144.68 1102.86 1141.6 1107.46 Q1138.55 1112.05 1132.74 1112.05 Q1126.93 1112.05 1123.85 1107.46 Q1120.79 1102.86 1120.79 1094.13 Q1120.79 1085.38 1123.85 1080.8 Q1126.93 1076.19 1132.74 1076.19 Z" fill="#000000" fill-rule="nonzero" fill-opacity="1" /><path clip-path="url(#clip480)" d="M1156.93 1107.44 L1173.25 1107.44 L1173.25 1111.38 L1151.3 1111.38 L1151.3 1107.44 Q1153.96 1104.69 1158.55 1100.06 Q1163.15 1095.4 1164.33 1094.06 Q1166.58 1091.54 1167.46 1089.8 Q1168.36 1088.04 1168.36 1086.35 Q1168.36 1083.6 1166.42 1081.86 Q1164.5 1080.13 1161.39 1080.13 Q1159.2 1080.13 1156.74 1080.89 Q1154.31 1081.65 1151.53 1083.2 L1151.53 1078.48 Q1154.36 1077.35 1156.81 1076.77 Q1159.26 1076.19 1161.3 1076.19 Q1166.67 1076.19 1169.87 1078.88 Q1173.06 1081.56 1173.06 1086.05 Q1173.06 1088.18 1172.25 1090.1 Q1171.46 1092 1169.36 1094.59 Q1168.78 1095.26 1165.68 1098.48 Q1162.58 1101.68 1156.93 1107.44 Z" fill="#000000" fill-rule="nonzero" fill-opacity="1" /><path clip-path="url(#clip480)" d="M1180.31 1096.49 L1192.78 1096.49 L1192.78 1100.29 L1180.31 1100.29 L1180.31 1096.49 Z" fill="#000000" fill-rule="nonzero" fill-opacity="1" /><path clip-path="url(#clip480)" d="M1210.17 1079.89 Q1206.56 1079.89 1204.73 1083.46 Q1202.92 1087 1202.92 1094.13 Q1202.92 1101.24 1204.73 1104.8 Q1206.56 1108.34 1210.17 1108.34 Q1213.8 1108.34 1215.61 1104.8 Q1217.44 1101.24 1217.44 1094.13 Q1217.44 1087 1215.61 1083.46 Q1213.8 1079.89 1210.17 1079.89 M1210.17 1076.19 Q1215.98 1076.19 1219.03 1080.8 Q1222.11 1085.38 1222.11 1094.13 Q1222.11 1102.86 1219.03 1107.46 Q1215.98 1112.05 1210.17 1112.05 Q1204.36 1112.05 1201.28 1107.46 Q1198.22 1102.86 1198.22 1094.13 Q1198.22 1085.38 1201.28 1080.8 Q1204.36 1076.19 1210.17 1076.19 Z" fill="#000000" fill-rule="nonzero" fill-opacity="1" /><path clip-path="url(#clip480)" d="M1231.14 1107.44 L1238.78 1107.44 L1238.78 1081.07 L1230.47 1082.74 L1230.47 1078.48 L1238.73 1076.82 L1243.41 1076.82 L1243.41 1107.44 L1251.05 1107.44 L1251.05 1111.38 L1231.14 1111.38 L1231.14 1107.44 Z" fill="#000000" fill-rule="nonzero" fill-opacity="1" /><path clip-path="url(#clip480)" d="M1806.21 1107.44 L1822.53 1107.44 L1822.53 1111.38 L1800.58 1111.38 L1800.58 1107.44 Q1803.25 1104.69 1807.83 1100.06 Q1812.44 1095.4 1813.62 1094.06 Q1815.86 1091.54 1816.74 1089.8 Q1817.64 1088.04 1817.64 1086.35 Q1817.64 1083.6 1815.7 1081.86 Q1813.78 1080.13 1810.68 1080.13 Q1808.48 1080.13 1806.02 1080.89 Q1803.59 1081.65 1800.82 1083.2 L1800.82 1078.48 Q1803.64 1077.35 1806.09 1076.77 Q1808.55 1076.19 1810.58 1076.19 Q1815.95 1076.19 1819.15 1078.88 Q1822.34 1081.56 1822.34 1086.05 Q1822.34 1088.18 1821.53 1090.1 Q1820.75 1092 1818.64 1094.59 Q1818.06 1095.26 1814.96 1098.48 Q1811.86 1101.68 1806.21 1107.44 Z" fill="#000000" fill-rule="nonzero" fill-opacity="1" /><path clip-path="url(#clip480)" d="M1842.34 1079.89 Q1838.73 1079.89 1836.9 1083.46 Q1835.1 1087 1835.1 1094.13 Q1835.1 1101.24 1836.9 1104.8 Q1838.73 1108.34 1842.34 1108.34 Q1845.98 1108.34 1847.78 1104.8 Q1849.61 1101.24 1849.61 1094.13 Q1849.61 1087 1847.78 1083.46 Q1845.98 1079.89 1842.34 1079.89 M1842.34 1076.19 Q1848.15 1076.19 1851.21 1080.8 Q1854.29 1085.38 1854.29 1094.13 Q1854.29 1102.86 1851.21 1107.46 Q1848.15 1112.05 1842.34 1112.05 Q1836.53 1112.05 1833.45 1107.46 Q1830.4 1102.86 1830.4 1094.13 Q1830.4 1085.38 1833.45 1080.8 Q1836.53 1076.19 1842.34 1076.19 Z" fill="#000000" fill-rule="nonzero" fill-opacity="1" /><path clip-path="url(#clip480)" d="M1866.53 1107.44 L1882.85 1107.44 L1882.85 1111.38 L1860.91 1111.38 L1860.91 1107.44 Q1863.57 1104.69 1868.15 1100.06 Q1872.76 1095.4 1873.94 1094.06 Q1876.19 1091.54 1877.07 1089.8 Q1877.97 1088.04 1877.97 1086.35 Q1877.97 1083.6 1876.02 1081.86 Q1874.1 1080.13 1871 1080.13 Q1868.8 1080.13 1866.35 1080.89 Q1863.92 1081.65 1861.14 1083.2 L1861.14 1078.48 Q1863.96 1077.35 1866.42 1076.77 Q1868.87 1076.19 1870.91 1076.19 Q1876.28 1076.19 1879.47 1078.88 Q1882.67 1081.56 1882.67 1086.05 Q1882.67 1088.18 1881.86 1090.1 Q1881.07 1092 1878.96 1094.59 Q1878.38 1095.26 1875.28 1098.48 Q1872.18 1101.68 1866.53 1107.44 Z" fill="#000000" fill-rule="nonzero" fill-opacity="1" /><path clip-path="url(#clip480)" d="M1905.51 1080.89 L1893.71 1099.34 L1905.51 1099.34 L1905.51 1080.89 M1904.29 1076.82 L1910.17 1076.82 L1910.17 1099.34 L1915.1 1099.34 L1915.1 1103.23 L1910.17 1103.23 L1910.17 1111.38 L1905.51 1111.38 L1905.51 1103.23 L1889.91 1103.23 L1889.91 1098.71 L1904.29 1076.82 Z" fill="#000000" fill-rule="nonzero" fill-opacity="1" /><path clip-path="url(#clip480)" d="M1920.07 1096.49 L1932.55 1096.49 L1932.55 1100.29 L1920.07 1100.29 L1920.07 1096.49 Z" fill="#000000" fill-rule="nonzero" fill-opacity="1" /><path clip-path="url(#clip480)" d="M1949.94 1079.89 Q1946.32 1079.89 1944.5 1083.46 Q1942.69 1087 1942.69 1094.13 Q1942.69 1101.24 1944.5 1104.8 Q1946.32 1108.34 1949.94 1108.34 Q1953.57 1108.34 1955.38 1104.8 Q1957.2 1101.24 1957.2 1094.13 Q1957.2 1087 1955.38 1083.46 Q1953.57 1079.89 1949.94 1079.89 M1949.94 1076.19 Q1955.75 1076.19 1958.8 1080.8 Q1961.88 1085.38 1961.88 1094.13 Q1961.88 1102.86 1958.8 1107.46 Q1955.75 1112.05 1949.94 1112.05 Q1944.13 1112.05 1941.05 1107.46 Q1937.99 1102.86 1937.99 1094.13 Q1937.99 1085.38 1941.05 1080.8 Q1944.13 1076.19 1949.94 1076.19 Z" fill="#000000" fill-rule="nonzero" fill-opacity="1" /><path clip-path="url(#clip480)" d="M1984.26 1092.74 Q1987.62 1093.46 1989.5 1095.73 Q1991.39 1098 1991.39 1101.33 Q1991.39 1106.45 1987.88 1109.25 Q1984.36 1112.05 1977.88 1112.05 Q1975.7 1112.05 1973.38 1111.61 Q1971.09 1111.19 1968.64 1110.33 L1968.64 1105.82 Q1970.58 1106.95 1972.9 1107.53 Q1975.21 1108.11 1977.74 1108.11 Q1982.13 1108.11 1984.43 1106.38 Q1986.74 1104.64 1986.74 1101.33 Q1986.74 1098.27 1984.59 1096.56 Q1982.46 1094.82 1978.64 1094.82 L1974.61 1094.82 L1974.61 1090.98 L1978.82 1090.98 Q1982.27 1090.98 1984.1 1089.62 Q1985.93 1088.23 1985.93 1085.64 Q1985.93 1082.97 1984.03 1081.56 Q1982.16 1080.13 1978.64 1080.13 Q1976.72 1080.13 1974.52 1080.54 Q1972.32 1080.96 1969.68 1081.84 L1969.68 1077.67 Q1972.34 1076.93 1974.66 1076.56 Q1977 1076.19 1979.06 1076.19 Q1984.38 1076.19 1987.48 1078.62 Q1990.58 1081.03 1990.58 1085.15 Q1990.58 1088.02 1988.94 1090.01 Q1987.3 1091.98 1984.26 1092.74 Z" fill="#000000" fill-rule="nonzero" fill-opacity="1" /><path clip-path="url(#clip480)" d="M1997.5 1096.49 L2009.98 1096.49 L2009.98 1100.29 L1997.5 1100.29 L1997.5 1096.49 Z" fill="#000000" fill-rule="nonzero" fill-opacity="1" /><path clip-path="url(#clip480)" d="M2027.37 1079.89 Q2023.75 1079.89 2021.93 1083.46 Q2020.12 1087 2020.12 1094.13 Q2020.12 1101.24 2021.93 1104.8 Q2023.75 1108.34 2027.37 1108.34 Q2031 1108.34 2032.81 1104.8 Q2034.63 1101.24 2034.63 1094.13 Q2034.63 1087 2032.81 1083.46 Q2031 1079.89 2027.37 1079.89 M2027.37 1076.19 Q2033.18 1076.19 2036.23 1080.8 Q2039.31 1085.38 2039.31 1094.13 Q2039.31 1102.86 2036.23 1107.46 Q2033.18 1112.05 2027.37 1112.05 Q2021.56 1112.05 2018.48 1107.46 Q2015.42 1102.86 2015.42 1094.13 Q2015.42 1085.38 2018.48 1080.8 Q2021.56 1076.19 2027.37 1076.19 Z" fill="#000000" fill-rule="nonzero" fill-opacity="1" /><path clip-path="url(#clip480)" d="M2048.34 1107.44 L2055.98 1107.44 L2055.98 1081.07 L2047.67 1082.74 L2047.67 1078.48 L2055.93 1076.82 L2060.61 1076.82 L2060.61 1107.44 L2068.25 1107.44 L2068.25 1111.38 L2048.34 1111.38 L2048.34 1107.44 Z" fill="#000000" fill-rule="nonzero" fill-opacity="1" /><path clip-path="url(#clip480)" d="M2679.77 1107.44 L2696.09 1107.44 L2696.09 1111.38 L2674.14 1111.38 L2674.14 1107.44 Q2676.8 1104.69 2681.39 1100.06 Q2685.99 1095.4 2687.17 1094.06 Q2689.42 1091.54 2690.3 1089.8 Q2691.2 1088.04 2691.2 1086.35 Q2691.2 1083.6 2689.26 1081.86 Q2687.34 1080.13 2684.23 1080.13 Q2682.03 1080.13 2679.58 1080.89 Q2677.15 1081.65 2674.37 1083.2 L2674.37 1078.48 Q2677.2 1077.35 2679.65 1076.77 Q2682.1 1076.19 2684.14 1076.19 Q2689.51 1076.19 2692.71 1078.88 Q2695.9 1081.56 2695.9 1086.05 Q2695.9 1088.18 2695.09 1090.1 Q2694.3 1092 2692.2 1094.59 Q2691.62 1095.26 2688.52 1098.48 Q2685.41 1101.68 2679.77 1107.44 Z" fill="#000000" fill-rule="nonzero" fill-opacity="1" /><path clip-path="url(#clip480)" d="M2715.9 1079.89 Q2712.29 1079.89 2710.46 1083.46 Q2708.65 1087 2708.65 1094.13 Q2708.65 1101.24 2710.46 1104.8 Q2712.29 1108.34 2715.9 1108.34 Q2719.53 1108.34 2721.34 1104.8 Q2723.17 1101.24 2723.17 1094.13 Q2723.17 1087 2721.34 1083.46 Q2719.53 1079.89 2715.9 1079.89 M2715.9 1076.19 Q2721.71 1076.19 2724.77 1080.8 Q2727.84 1085.38 2727.84 1094.13 Q2727.84 1102.86 2724.77 1107.46 Q2721.71 1112.05 2715.9 1112.05 Q2710.09 1112.05 2707.01 1107.46 Q2703.96 1102.86 2703.96 1094.13 Q2703.96 1085.38 2707.01 1080.8 Q2710.09 1076.19 2715.9 1076.19 Z" fill="#000000" fill-rule="nonzero" fill-opacity="1" /><path clip-path="url(#clip480)" d="M2740.09 1107.44 L2756.41 1107.44 L2756.41 1111.38 L2734.46 1111.38 L2734.46 1107.44 Q2737.13 1104.69 2741.71 1100.06 Q2746.32 1095.4 2747.5 1094.06 Q2749.74 1091.54 2750.62 1089.8 Q2751.52 1088.04 2751.52 1086.35 Q2751.52 1083.6 2749.58 1081.86 Q2747.66 1080.13 2744.56 1080.13 Q2742.36 1080.13 2739.9 1080.89 Q2737.47 1081.65 2734.7 1083.2 L2734.7 1078.48 Q2737.52 1077.35 2739.97 1076.77 Q2742.43 1076.19 2744.46 1076.19 Q2749.84 1076.19 2753.03 1078.88 Q2756.22 1081.56 2756.22 1086.05 Q2756.22 1088.18 2755.41 1090.1 Q2754.63 1092 2752.52 1094.59 Q2751.94 1095.26 2748.84 1098.48 Q2745.74 1101.68 2740.09 1107.44 Z" fill="#000000" fill-rule="nonzero" fill-opacity="1" /><path clip-path="url(#clip480)" d="M2779.07 1080.89 L2767.27 1099.34 L2779.07 1099.34 L2779.07 1080.89 M2777.84 1076.82 L2783.72 1076.82 L2783.72 1099.34 L2788.65 1099.34 L2788.65 1103.23 L2783.72 1103.23 L2783.72 1111.38 L2779.07 1111.38 L2779.07 1103.23 L2763.47 1103.23 L2763.47 1098.71 L2777.84 1076.82 Z" fill="#000000" fill-rule="nonzero" fill-opacity="1" /><path clip-path="url(#clip480)" d="M2793.63 1096.49 L2806.11 1096.49 L2806.11 1100.29 L2793.63 1100.29 L2793.63 1096.49 Z" fill="#000000" fill-rule="nonzero" fill-opacity="1" /><path clip-path="url(#clip480)" d="M2823.49 1079.89 Q2819.88 1079.89 2818.05 1083.46 Q2816.25 1087 2816.25 1094.13 Q2816.25 1101.24 2818.05 1104.8 Q2819.88 1108.34 2823.49 1108.34 Q2827.13 1108.34 2828.93 1104.8 Q2830.76 1101.24 2830.76 1094.13 Q2830.76 1087 2828.93 1083.46 Q2827.13 1079.89 2823.49 1079.89 M2823.49 1076.19 Q2829.3 1076.19 2832.36 1080.8 Q2835.44 1085.38 2835.44 1094.13 Q2835.44 1102.86 2832.36 1107.46 Q2829.3 1112.05 2823.49 1112.05 Q2817.68 1112.05 2814.6 1107.46 Q2811.55 1102.86 2811.55 1094.13 Q2811.55 1085.38 2814.6 1080.8 Q2817.68 1076.19 2823.49 1076.19 Z" fill="#000000" fill-rule="nonzero" fill-opacity="1" /><path clip-path="url(#clip480)" d="M2856.5 1080.89 L2844.7 1099.34 L2856.5 1099.34 L2856.5 1080.89 M2855.27 1076.82 L2861.15 1076.82 L2861.15 1099.34 L2866.08 1099.34 L2866.08 1103.23 L2861.15 1103.23 L2861.15 1111.38 L2856.5 1111.38 L2856.5 1103.23 L2840.9 1103.23 L2840.9 1098.71 L2855.27 1076.82 Z" fill="#000000" fill-rule="nonzero" fill-opacity="1" /><path clip-path="url(#clip480)" d="M2871.06 1096.49 L2883.54 1096.49 L2883.54 1100.29 L2871.06 1100.29 L2871.06 1096.49 Z" fill="#000000" fill-rule="nonzero" fill-opacity="1" /><path clip-path="url(#clip480)" d="M2900.92 1079.89 Q2897.31 1079.89 2895.48 1083.46 Q2893.68 1087 2893.68 1094.13 Q2893.68 1101.24 2895.48 1104.8 Q2897.31 1108.34 2900.92 1108.34 Q2904.56 1108.34 2906.36 1104.8 Q2908.19 1101.24 2908.19 1094.13 Q2908.19 1087 2906.36 1083.46 Q2904.56 1079.89 2900.92 1079.89 M2900.92 1076.19 Q2906.73 1076.19 2909.79 1080.8 Q2912.87 1085.38 2912.87 1094.13 Q2912.87 1102.86 2909.79 1107.46 Q2906.73 1112.05 2900.92 1112.05 Q2895.11 1112.05 2892.03 1107.46 Q2888.98 1102.86 2888.98 1094.13 Q2888.98 1085.38 2892.03 1080.8 Q2895.11 1076.19 2900.92 1076.19 Z" fill="#000000" fill-rule="nonzero" fill-opacity="1" /><path clip-path="url(#clip480)" d="M2921.89 1107.44 L2929.53 1107.44 L2929.53 1081.07 L2921.22 1082.74 L2921.22 1078.48 L2929.49 1076.82 L2934.16 1076.82 L2934.16 1107.44 L2941.8 1107.44 L2941.8 1111.38 L2921.89 1111.38 L2921.89 1107.44 Z" fill="#000000" fill-rule="nonzero" fill-opacity="1" /><polyline clip-path="url(#clip482)" style="stroke:#000000; stroke-linecap:round; stroke-linejoin:round; stroke-width:2; stroke-opacity:0.1; fill:none" points="271.839,1042.58 3089.76,1042.58 "/>
<polyline clip-path="url(#clip482)" style="stroke:#000000; stroke-linecap:round; stroke-linejoin:round; stroke-width:2; stroke-opacity:0.1; fill:none" points="271.839,634.649 3089.76,634.649 "/>
<polyline clip-path="url(#clip482)" style="stroke:#000000; stroke-linecap:round; stroke-linejoin:round; stroke-width:2; stroke-opacity:0.1; fill:none" points="271.839,226.723 3089.76,226.723 "/>
<polyline clip-path="url(#clip480)" style="stroke:#000000; stroke-linecap:round; stroke-linejoin:round; stroke-width:4; stroke-opacity:1; fill:none" points="271.839,1042.58 271.839,110.236 "/>
<polyline clip-path="url(#clip480)" style="stroke:#000000; stroke-linecap:round; stroke-linejoin:round; stroke-width:4; stroke-opacity:1; fill:none" points="271.839,1042.58 290.737,1042.58 "/>
<polyline clip-path="url(#clip480)" style="stroke:#000000; stroke-linecap:round; stroke-linejoin:round; stroke-width:4; stroke-opacity:1; fill:none" points="271.839,634.649 290.737,634.649 "/>
<polyline clip-path="url(#clip480)" style="stroke:#000000; stroke-linecap:round; stroke-linejoin:round; stroke-width:4; stroke-opacity:1; fill:none" points="271.839,226.723 290.737,226.723 "/>
<path clip-path="url(#clip480)" d="M153.134 1062.37 L160.772 1062.37 L160.772 1036 L152.462 1037.67 L152.462 1033.41 L160.726 1031.74 L165.402 1031.74 L165.402 1062.37 L173.041 1062.37 L173.041 1066.3 L153.134 1066.3 L153.134 1062.37 Z" fill="#000000" fill-rule="nonzero" fill-opacity="1" /><path clip-path="url(#clip480)" d="M192.485 1034.82 Q188.874 1034.82 187.045 1038.39 Q185.24 1041.93 185.24 1049.06 Q185.24 1056.16 187.045 1059.73 Q188.874 1063.27 192.485 1063.27 Q196.119 1063.27 197.925 1059.73 Q199.754 1056.16 199.754 1049.06 Q199.754 1041.93 197.925 1038.39 Q196.119 1034.82 192.485 1034.82 M192.485 1031.12 Q198.295 1031.12 201.351 1035.72 Q204.43 1040.31 204.43 1049.06 Q204.43 1057.78 201.351 1062.39 Q198.295 1066.97 192.485 1066.97 Q186.675 1066.97 183.596 1062.39 Q180.541 1057.78 180.541 1049.06 Q180.541 1040.31 183.596 1035.72 Q186.675 1031.12 192.485 1031.12 Z" fill="#000000" fill-rule="nonzero" fill-opacity="1" /><path clip-path="url(#clip480)" d="M214.134 1013.31 Q211.2 1013.31 209.715 1016.21 Q208.248 1019.09 208.248 1024.88 Q208.248 1030.66 209.715 1033.55 Q211.2 1036.43 214.134 1036.43 Q217.087 1036.43 218.554 1033.55 Q220.04 1030.66 220.04 1024.88 Q220.04 1019.09 218.554 1016.21 Q217.087 1013.31 214.134 1013.31 M214.134 1010.31 Q218.855 1010.31 221.338 1014.05 Q223.839 1017.77 223.839 1024.88 Q223.839 1031.97 221.338 1035.71 Q218.855 1039.44 214.134 1039.44 Q209.414 1039.44 206.912 1035.71 Q204.43 1031.97 204.43 1024.88 Q204.43 1017.77 206.912 1014.05 Q209.414 1010.31 214.134 1010.31 Z" fill="#000000" fill-rule="nonzero" fill-opacity="1" /><path clip-path="url(#clip480)" d="M155.823 654.442 L163.462 654.442 L163.462 628.076 L155.152 629.743 L155.152 625.483 L163.416 623.817 L168.092 623.817 L168.092 654.442 L175.73 654.442 L175.73 658.377 L155.823 658.377 L155.823 654.442 Z" fill="#000000" fill-rule="nonzero" fill-opacity="1" /><path clip-path="url(#clip480)" d="M195.175 626.895 Q191.564 626.895 189.735 630.46 Q187.929 634.002 187.929 641.132 Q187.929 648.238 189.735 651.803 Q191.564 655.344 195.175 655.344 Q198.809 655.344 200.615 651.803 Q202.443 648.238 202.443 641.132 Q202.443 634.002 200.615 630.46 Q198.809 626.895 195.175 626.895 M195.175 623.192 Q200.985 623.192 204.04 627.798 Q207.119 632.382 207.119 641.132 Q207.119 649.858 204.04 654.465 Q200.985 659.048 195.175 659.048 Q189.365 659.048 186.286 654.465 Q183.23 649.858 183.23 641.132 Q183.23 632.382 186.286 627.798 Q189.365 623.192 195.175 623.192 Z" fill="#000000" fill-rule="nonzero" fill-opacity="1" /><path clip-path="url(#clip480)" d="M207.665 627.769 L213.871 627.769 L213.871 606.347 L207.119 607.701 L207.119 604.241 L213.833 602.886 L217.633 602.886 L217.633 627.769 L223.839 627.769 L223.839 630.966 L207.665 630.966 L207.665 627.769 Z" fill="#000000" fill-rule="nonzero" fill-opacity="1" /><path clip-path="url(#clip480)" d="M154.713 246.515 L162.352 246.515 L162.352 220.149 L154.042 221.816 L154.042 217.557 L162.306 215.89 L166.982 215.89 L166.982 246.515 L174.621 246.515 L174.621 250.45 L154.713 250.45 L154.713 246.515 Z" fill="#000000" fill-rule="nonzero" fill-opacity="1" /><path clip-path="url(#clip480)" d="M194.065 218.969 Q190.454 218.969 188.625 222.534 Q186.82 226.075 186.82 233.205 Q186.82 240.311 188.625 243.876 Q190.454 247.418 194.065 247.418 Q197.699 247.418 199.505 243.876 Q201.334 240.311 201.334 233.205 Q201.334 226.075 199.505 222.534 Q197.699 218.969 194.065 218.969 M194.065 215.265 Q199.875 215.265 202.931 219.872 Q206.009 224.455 206.009 233.205 Q206.009 241.932 202.931 246.538 Q199.875 251.122 194.065 251.122 Q188.255 251.122 185.176 246.538 Q182.121 241.932 182.121 233.205 Q182.121 224.455 185.176 219.872 Q188.255 215.265 194.065 215.265 Z" fill="#000000" fill-rule="nonzero" fill-opacity="1" /><path clip-path="url(#clip480)" d="M210.58 219.843 L223.839 219.843 L223.839 223.04 L206.009 223.04 L206.009 219.843 Q208.172 217.604 211.896 213.843 Q215.639 210.062 216.598 208.972 Q218.423 206.922 219.137 205.511 Q219.871 204.082 219.871 202.709 Q219.871 200.471 218.291 199.06 Q216.73 197.649 214.21 197.649 Q212.423 197.649 210.429 198.27 Q208.454 198.891 206.198 200.151 L206.198 196.314 Q208.492 195.392 210.486 194.922 Q212.479 194.452 214.134 194.452 Q218.498 194.452 221.093 196.634 Q223.689 198.815 223.689 202.464 Q223.689 204.194 223.03 205.755 Q222.391 207.298 220.68 209.404 Q220.209 209.95 217.689 212.564 Q215.169 215.159 210.58 219.843 Z" fill="#000000" fill-rule="nonzero" fill-opacity="1" /><path clip-path="url(#clip480)" d="M83.4268 931.246 L70.6636 931.246 L70.6636 941.75 L65.38 941.75 L65.38 924.881 L85.7821 924.881 Q88.4239 928.605 89.7925 933.092 Q91.1293 937.58 91.1293 942.673 Q91.1293 953.813 84.6363 960.115 Q78.1114 966.385 66.494 966.385 Q54.8448 966.385 48.3518 960.115 Q41.8269 953.813 41.8269 942.673 Q41.8269 938.026 42.9727 933.856 Q44.1186 929.655 46.3466 926.122 L53.1897 926.122 Q50.166 929.687 48.6382 933.697 Q47.1104 937.708 47.1104 942.132 Q47.1104 950.853 51.9802 955.245 Q56.85 959.606 66.494 959.606 Q76.1062 959.606 80.976 955.245 Q85.8458 950.853 85.8458 942.132 Q85.8458 938.726 85.2729 936.052 Q84.6681 933.379 83.4268 931.246 Z" fill="#000000" fill-rule="nonzero" fill-opacity="1" /><path clip-path="url(#clip480)" d="M70.9182 882.899 L73.7828 882.899 L73.7828 909.826 Q79.8302 909.444 83.013 906.197 Q86.1641 902.919 86.1641 897.094 Q86.1641 893.721 85.3365 890.57 Q84.509 887.387 82.8539 884.267 L88.3921 884.267 Q89.7289 887.418 90.4291 890.729 Q91.1293 894.039 91.1293 897.444 Q91.1293 905.975 86.1641 910.972 Q81.1988 915.937 72.7324 915.937 Q63.9796 915.937 58.8552 911.226 Q53.699 906.484 53.699 898.463 Q53.699 891.27 58.3459 887.1 Q62.9611 882.899 70.9182 882.899 M69.1995 888.755 Q64.3933 888.819 61.5288 891.461 Q58.6642 894.071 58.6642 898.399 Q58.6642 903.301 61.4333 906.261 Q64.2024 909.189 69.2313 909.635 L69.1995 888.755 Z" fill="#000000" fill-rule="nonzero" fill-opacity="1" /><path clip-path="url(#clip480)" d="M68.6902 843.654 L90.2063 843.654 L90.2063 849.511 L68.8812 849.511 Q63.8204 849.511 61.306 851.484 Q58.7915 853.457 58.7915 857.404 Q58.7915 862.147 61.8152 864.884 Q64.8389 867.621 70.0588 867.621 L90.2063 867.621 L90.2063 873.509 L54.5583 873.509 L54.5583 867.621 L60.0965 867.621 Q56.8818 865.52 55.2904 862.688 Q53.699 859.823 53.699 856.099 Q53.699 849.956 57.5184 846.805 Q61.306 843.654 68.6902 843.654 Z" fill="#000000" fill-rule="nonzero" fill-opacity="1" /><path clip-path="url(#clip480)" d="M58.6642 818.16 Q58.6642 822.87 62.3563 825.607 Q66.0166 828.345 72.4141 828.345 Q78.8117 828.345 82.5038 825.639 Q86.1641 822.902 86.1641 818.16 Q86.1641 813.481 82.4719 810.744 Q78.7798 808.006 72.4141 808.006 Q66.0803 808.006 62.3881 810.744 Q58.6642 813.481 58.6642 818.16 M53.699 818.16 Q53.699 810.521 58.6642 806.16 Q63.6295 801.8 72.4141 801.8 Q81.167 801.8 86.1641 806.16 Q91.1293 810.521 91.1293 818.16 Q91.1293 825.83 86.1641 830.191 Q81.167 834.519 72.4141 834.519 Q63.6295 834.519 58.6642 830.191 Q53.699 825.83 53.699 818.16 Z" fill="#000000" fill-rule="nonzero" fill-opacity="1" /><path clip-path="url(#clip480)" d="M61.4015 764.338 Q57.4547 762.141 55.5768 759.086 Q53.699 756.03 53.699 751.893 Q53.699 746.323 57.6139 743.299 Q61.4969 740.275 68.6902 740.275 L90.2063 740.275 L90.2063 746.163 L68.8812 746.163 Q63.7568 746.163 61.2741 747.978 Q58.7915 749.792 58.7915 753.516 Q58.7915 758.067 61.8152 760.709 Q64.8389 763.351 70.0588 763.351 L90.2063 763.351 L90.2063 769.239 L68.8812 769.239 Q63.7249 769.239 61.2741 771.053 Q58.7915 772.868 58.7915 776.655 Q58.7915 781.143 61.8471 783.785 Q64.8708 786.427 70.0588 786.427 L90.2063 786.427 L90.2063 792.315 L54.5583 792.315 L54.5583 786.427 L60.0965 786.427 Q56.8182 784.421 55.2586 781.62 Q53.699 778.82 53.699 774.968 Q53.699 771.085 55.6723 768.38 Q57.6457 765.643 61.4015 764.338 Z" fill="#000000" fill-rule="nonzero" fill-opacity="1" /><path clip-path="url(#clip480)" d="M70.9182 698.102 L73.7828 698.102 L73.7828 725.029 Q79.8302 724.647 83.013 721.401 Q86.1641 718.123 86.1641 712.298 Q86.1641 708.924 85.3365 705.773 Q84.509 702.59 82.8539 699.471 L88.3921 699.471 Q89.7289 702.622 90.4291 705.932 Q91.1293 709.242 91.1293 712.648 Q91.1293 721.178 86.1641 726.175 Q81.1988 731.14 72.7324 731.14 Q63.9796 731.14 58.8552 726.43 Q53.699 721.687 53.699 713.667 Q53.699 706.473 58.3459 702.304 Q62.9611 698.102 70.9182 698.102 M69.1995 703.959 Q64.3933 704.022 61.5288 706.664 Q58.6642 709.274 58.6642 713.603 Q58.6642 718.504 61.4333 721.465 Q64.2024 724.393 69.2313 724.838 L69.1995 703.959 Z" fill="#000000" fill-rule="nonzero" fill-opacity="1" /><path clip-path="url(#clip480)" d="M55.6087 665.765 L61.1468 665.765 Q59.8737 668.247 59.2371 670.921 Q58.6006 673.594 58.6006 676.459 Q58.6006 680.819 59.9373 683.016 Q61.2741 685.18 63.9477 685.18 Q65.9848 685.18 67.1624 683.62 Q68.3083 682.061 69.3586 677.35 L69.8042 675.345 Q71.141 669.107 73.5918 666.497 Q76.0108 663.855 80.3713 663.855 Q85.3365 663.855 88.2329 667.802 Q91.1293 671.717 91.1293 678.591 Q91.1293 681.456 90.5564 684.575 Q90.0153 687.663 88.9013 691.1 L82.8539 691.1 Q84.5408 687.854 85.4002 684.703 Q86.2277 681.552 86.2277 678.464 Q86.2277 674.326 84.8273 672.098 Q83.395 669.87 80.8169 669.87 Q78.4297 669.87 77.1566 671.494 Q75.8834 673.085 74.7058 678.528 L74.2284 680.565 Q73.0825 686.008 70.7272 688.427 Q68.3401 690.845 64.2024 690.845 Q59.1735 690.845 56.4362 687.281 Q53.699 683.716 53.699 677.159 Q53.699 673.913 54.1764 671.048 Q54.6538 668.184 55.6087 665.765 Z" fill="#000000" fill-rule="nonzero" fill-opacity="1" /><path clip-path="url(#clip480)" d="M42.6863 644.121 L42.6863 638.71 L96.2537 655.261 L96.2537 660.672 L42.6863 644.121 Z" fill="#000000" fill-rule="nonzero" fill-opacity="1" /><path clip-path="url(#clip480)" d="M47.9698 625.883 L84.9227 625.883 L84.9227 618.117 Q84.9227 608.282 80.4668 603.731 Q76.0108 599.147 66.3985 599.147 Q56.85 599.147 52.4258 603.731 Q47.9698 608.282 47.9698 618.117 L47.9698 625.883 M42.6863 632.313 L42.6863 619.104 Q42.6863 605.29 48.4472 598.829 Q54.1764 592.368 66.3985 592.368 Q78.6844 592.368 84.4453 598.861 Q90.2063 605.354 90.2063 619.104 L90.2063 632.313 L42.6863 632.313 Z" fill="#000000" fill-rule="nonzero" fill-opacity="1" /><path clip-path="url(#clip480)" d="M72.2868 566.173 Q72.2868 573.271 73.9101 576.008 Q75.5333 578.745 79.4482 578.745 Q82.5674 578.745 84.4135 576.708 Q86.2277 574.64 86.2277 571.107 Q86.2277 566.237 82.7902 563.309 Q79.3209 560.348 73.5918 560.348 L72.2868 560.348 L72.2868 566.173 M69.8679 554.492 L90.2063 554.492 L90.2063 560.348 L84.7954 560.348 Q88.0419 562.354 89.6015 565.346 Q91.1293 568.337 91.1293 572.666 Q91.1293 578.141 88.0738 581.387 Q84.9864 584.602 79.8302 584.602 Q73.8146 584.602 70.759 580.591 Q67.7035 576.549 67.7035 568.56 L67.7035 560.348 L67.1306 560.348 Q63.0884 560.348 60.8922 563.022 Q58.6642 565.664 58.6642 570.47 Q58.6642 573.526 59.3963 576.422 Q60.1283 579.318 61.5924 581.992 L56.1816 581.992 Q54.9403 578.777 54.3355 575.753 Q53.699 572.73 53.699 569.865 Q53.699 562.131 57.7094 558.311 Q61.7197 554.492 69.8679 554.492 Z" fill="#000000" fill-rule="nonzero" fill-opacity="1" /><path clip-path="url(#clip480)" d="M93.5165 527.597 Q99.8822 530.08 101.824 532.435 Q103.765 534.79 103.765 538.737 L103.765 543.416 L98.8636 543.416 L98.8636 539.978 Q98.8636 537.559 97.7178 536.222 Q96.572 534.886 92.307 533.262 L89.6334 532.212 L54.5583 546.63 L54.5583 540.424 L82.4401 529.284 L54.5583 518.144 L54.5583 511.937 L93.5165 527.597 Z" fill="#000000" fill-rule="nonzero" fill-opacity="1" /><path clip-path="url(#clip480)" d="M40.7447 469.064 Q48.0653 473.329 55.2267 475.398 Q62.3881 477.467 69.7405 477.467 Q77.0929 477.467 84.318 475.398 Q91.5113 473.297 98.8 469.064 L98.8 474.157 Q91.3203 478.931 84.0952 481.318 Q76.8701 483.674 69.7405 483.674 Q62.6428 483.674 55.4495 481.318 Q48.2563 478.963 40.7447 474.157 L40.7447 469.064 Z" fill="#000000" fill-rule="nonzero" fill-opacity="1" /><path clip-path="url(#clip480)" d="M44.2459 428.96 L50.5161 428.96 Q48.7655 432.621 47.9062 435.867 Q47.0468 439.114 47.0468 442.137 Q47.0468 447.389 49.0838 450.254 Q51.1208 453.086 54.8766 453.086 Q58.0276 453.086 59.6509 451.208 Q61.2423 449.299 62.229 444.015 L63.0247 440.132 Q64.3933 432.939 67.8627 429.533 Q71.3001 426.096 77.0929 426.096 Q83.9997 426.096 87.5645 430.743 Q91.1293 435.358 91.1293 444.302 Q91.1293 447.675 90.3654 451.495 Q89.6015 455.283 88.1056 459.357 L81.4853 459.357 Q83.6814 455.442 84.7954 451.686 Q85.9094 447.93 85.9094 444.302 Q85.9094 438.795 83.7451 435.803 Q81.5808 432.812 77.5704 432.812 Q74.0692 432.812 72.0958 434.976 Q70.1225 437.108 69.1358 442.01 L68.3719 445.925 Q66.9396 453.118 63.8841 456.333 Q60.8285 459.548 55.3859 459.548 Q49.0838 459.548 45.4554 455.123 Q41.8269 450.667 41.8269 442.869 Q41.8269 439.527 42.4317 436.058 Q43.0364 432.589 44.2459 428.96 Z" fill="#000000" fill-rule="nonzero" fill-opacity="1" /><path clip-path="url(#clip480)" d="M54.5583 419.73 L54.5583 413.874 L82.3765 406.553 L54.5583 399.264 L54.5583 392.357 L82.3765 385.037 L54.5583 377.748 L54.5583 371.892 L90.2063 381.218 L90.2063 388.124 L60.9877 395.795 L90.2063 403.497 L90.2063 410.404 L54.5583 419.73 Z" fill="#000000" fill-rule="nonzero" fill-opacity="1" /><path clip-path="url(#clip480)" d="M70.9182 332.52 L73.7828 332.52 L73.7828 359.447 Q79.8302 359.065 83.013 355.818 Q86.1641 352.54 86.1641 346.715 Q86.1641 343.342 85.3365 340.191 Q84.509 337.008 82.8539 333.888 L88.3921 333.888 Q89.7289 337.04 90.4291 340.35 Q91.1293 343.66 91.1293 347.065 Q91.1293 355.596 86.1641 360.593 Q81.1988 365.558 72.7324 365.558 Q63.9796 365.558 58.8552 360.847 Q53.699 356.105 53.699 348.084 Q53.699 340.891 58.3459 336.721 Q62.9611 332.52 70.9182 332.52 M69.1995 338.376 Q64.3933 338.44 61.5288 341.082 Q58.6642 343.692 58.6642 348.02 Q58.6642 352.922 61.4333 355.882 Q64.2024 358.81 69.2313 359.256 L69.1995 338.376 Z" fill="#000000" fill-rule="nonzero" fill-opacity="1" /><path clip-path="url(#clip480)" d="M59.9692 299.45 L40.6811 299.45 L40.6811 293.594 L90.2063 293.594 L90.2063 299.45 L84.8591 299.45 Q88.0419 301.296 89.6015 304.129 Q91.1293 306.93 91.1293 310.876 Q91.1293 317.338 85.9731 321.412 Q80.8169 325.454 72.4141 325.454 Q64.0114 325.454 58.8552 321.412 Q53.699 317.338 53.699 310.876 Q53.699 306.93 55.2586 304.129 Q56.7863 301.296 59.9692 299.45 M72.4141 319.406 Q78.8753 319.406 82.5674 316.765 Q86.2277 314.091 86.2277 309.444 Q86.2277 304.797 82.5674 302.124 Q78.8753 299.45 72.4141 299.45 Q65.9529 299.45 62.2927 302.124 Q58.6006 304.797 58.6006 309.444 Q58.6006 314.091 62.2927 316.765 Q65.9529 319.406 72.4141 319.406 Z" fill="#000000" fill-rule="nonzero" fill-opacity="1" /><path clip-path="url(#clip480)" d="M70.9182 251.039 L73.7828 251.039 L73.7828 277.966 Q79.8302 277.584 83.013 274.337 Q86.1641 271.059 86.1641 265.234 Q86.1641 261.861 85.3365 258.709 Q84.509 255.527 82.8539 252.407 L88.3921 252.407 Q89.7289 255.558 90.4291 258.869 Q91.1293 262.179 91.1293 265.584 Q91.1293 274.114 86.1641 279.112 Q81.1988 284.077 72.7324 284.077 Q63.9796 284.077 58.8552 279.366 Q53.699 274.624 53.699 266.603 Q53.699 259.41 58.3459 255.24 Q62.9611 251.039 70.9182 251.039 M69.1995 256.895 Q64.3933 256.959 61.5288 259.601 Q58.6642 262.211 58.6642 266.539 Q58.6642 271.441 61.4333 274.401 Q64.2024 277.329 69.2313 277.775 L69.1995 256.895 Z" fill="#000000" fill-rule="nonzero" fill-opacity="1" /><path clip-path="url(#clip480)" d="M68.6902 211.794 L90.2063 211.794 L90.2063 217.651 L68.8812 217.651 Q63.8204 217.651 61.306 219.624 Q58.7915 221.597 58.7915 225.544 Q58.7915 230.287 61.8152 233.024 Q64.8389 235.761 70.0588 235.761 L90.2063 235.761 L90.2063 241.649 L54.5583 241.649 L54.5583 235.761 L60.0965 235.761 Q56.8818 233.66 55.2904 230.828 Q53.699 227.963 53.699 224.239 Q53.699 218.096 57.5184 214.945 Q61.306 211.794 68.6902 211.794 Z" fill="#000000" fill-rule="nonzero" fill-opacity="1" /><path clip-path="url(#clip480)" d="M40.7447 201.036 L40.7447 195.944 Q48.2563 191.169 55.4495 188.814 Q62.6428 186.427 69.7405 186.427 Q76.8701 186.427 84.0952 188.814 Q91.3203 191.169 98.8 195.944 L98.8 201.036 Q91.5113 196.803 84.318 194.734 Q77.0929 192.633 69.7405 192.633 Q62.3881 192.633 55.2267 194.734 Q48.0653 196.803 40.7447 201.036 Z" fill="#000000" fill-rule="nonzero" fill-opacity="1" /><path clip-path="url(#clip482)" d="M288.747 332.636 L288.747 1042.58 L311.29 1042.58 L311.29 332.636 L288.747 332.636 L288.747 332.636  Z" fill="#009af9" fill-rule="evenodd" fill-opacity="0.5"/>
<polyline clip-path="url(#clip482)" style="stroke:#000000; stroke-linecap:round; stroke-linejoin:round; stroke-width:4; stroke-opacity:0.5; fill:none" points="288.747,332.636 288.747,1042.58 311.29,1042.58 311.29,332.636 288.747,332.636 "/>
<path clip-path="url(#clip482)" d="M316.926 320.198 L316.926 1042.58 L339.469 1042.58 L339.469 320.198 L316.926 320.198 L316.926 320.198  Z" fill="#009af9" fill-rule="evenodd" fill-opacity="0.5"/>
<polyline clip-path="url(#clip482)" style="stroke:#000000; stroke-linecap:round; stroke-linejoin:round; stroke-width:4; stroke-opacity:0.5; fill:none" points="316.926,320.198 316.926,1042.58 339.469,1042.58 339.469,320.198 316.926,320.198 "/>
<path clip-path="url(#clip482)" d="M345.105 360.483 L345.105 1042.58 L367.649 1042.58 L367.649 360.483 L345.105 360.483 L345.105 360.483  Z" fill="#009af9" fill-rule="evenodd" fill-opacity="0.5"/>
<polyline clip-path="url(#clip482)" style="stroke:#000000; stroke-linecap:round; stroke-linejoin:round; stroke-width:4; stroke-opacity:0.5; fill:none" points="345.105,360.483 345.105,1042.58 367.649,1042.58 367.649,360.483 345.105,360.483 "/>
<path clip-path="url(#clip482)" d="M373.285 472.319 L373.285 1042.58 L395.828 1042.58 L395.828 472.319 L373.285 472.319 L373.285 472.319  Z" fill="#009af9" fill-rule="evenodd" fill-opacity="0.5"/>
<polyline clip-path="url(#clip482)" style="stroke:#000000; stroke-linecap:round; stroke-linejoin:round; stroke-width:4; stroke-opacity:0.5; fill:none" points="373.285,472.319 373.285,1042.58 395.828,1042.58 395.828,472.319 373.285,472.319 "/>
<path clip-path="url(#clip482)" d="M401.464 479.551 L401.464 1042.58 L424.007 1042.58 L424.007 479.551 L401.464 479.551 L401.464 479.551  Z" fill="#009af9" fill-rule="evenodd" fill-opacity="0.5"/>
<polyline clip-path="url(#clip482)" style="stroke:#000000; stroke-linecap:round; stroke-linejoin:round; stroke-width:4; stroke-opacity:0.5; fill:none" points="401.464,479.551 401.464,1042.58 424.007,1042.58 424.007,479.551 401.464,479.551 "/>
<path clip-path="url(#clip482)" d="M429.643 423.134 L429.643 1042.58 L452.186 1042.58 L452.186 423.134 L429.643 423.134 L429.643 423.134  Z" fill="#009af9" fill-rule="evenodd" fill-opacity="0.5"/>
<polyline clip-path="url(#clip482)" style="stroke:#000000; stroke-linecap:round; stroke-linejoin:round; stroke-width:4; stroke-opacity:0.5; fill:none" points="429.643,423.134 429.643,1042.58 452.186,1042.58 452.186,423.134 429.643,423.134 "/>
<path clip-path="url(#clip482)" d="M457.822 472.319 L457.822 1042.58 L480.366 1042.58 L480.366 472.319 L457.822 472.319 L457.822 472.319  Z" fill="#009af9" fill-rule="evenodd" fill-opacity="0.5"/>
<polyline clip-path="url(#clip482)" style="stroke:#000000; stroke-linecap:round; stroke-linejoin:round; stroke-width:4; stroke-opacity:0.5; fill:none" points="457.822,472.319 457.822,1042.58 480.366,1042.58 480.366,472.319 457.822,472.319 "/>
<path clip-path="url(#clip482)" d="M486.001 389.053 L486.001 1042.58 L508.545 1042.58 L508.545 389.053 L486.001 389.053 L486.001 389.053  Z" fill="#009af9" fill-rule="evenodd" fill-opacity="0.5"/>
<polyline clip-path="url(#clip482)" style="stroke:#000000; stroke-linecap:round; stroke-linejoin:round; stroke-width:4; stroke-opacity:0.5; fill:none" points="486.001,389.053 486.001,1042.58 508.545,1042.58 508.545,389.053 486.001,389.053 "/>
<path clip-path="url(#clip482)" d="M514.181 465.371 L514.181 1042.58 L536.724 1042.58 L536.724 465.371 L514.181 465.371 L514.181 465.371  Z" fill="#009af9" fill-rule="evenodd" fill-opacity="0.5"/>
<polyline clip-path="url(#clip482)" style="stroke:#000000; stroke-linecap:round; stroke-linejoin:round; stroke-width:4; stroke-opacity:0.5; fill:none" points="514.181,465.371 514.181,1042.58 536.724,1042.58 536.724,465.371 514.181,465.371 "/>
<path clip-path="url(#clip482)" d="M542.36 110.236 L542.36 1042.58 L564.903 1042.58 L564.903 110.236 L542.36 110.236 L542.36 110.236  Z" fill="#009af9" fill-rule="evenodd" fill-opacity="0.5"/>
<polyline clip-path="url(#clip482)" style="stroke:#000000; stroke-linecap:round; stroke-linejoin:round; stroke-width:4; stroke-opacity:0.5; fill:none" points="542.36,110.236 542.36,1042.58 564.903,1042.58 564.903,110.236 542.36,110.236 "/>
<path clip-path="url(#clip482)" d="M570.539 617.764 L570.539 1042.58 L593.083 1042.58 L593.083 617.764 L570.539 617.764 L570.539 617.764  Z" fill="#009af9" fill-rule="evenodd" fill-opacity="0.5"/>
<polyline clip-path="url(#clip482)" style="stroke:#000000; stroke-linecap:round; stroke-linejoin:round; stroke-width:4; stroke-opacity:0.5; fill:none" points="570.539,617.764 570.539,1042.58 593.083,1042.58 593.083,617.764 570.539,617.764 "/>
<path clip-path="url(#clip482)" d="M598.718 757.447 L598.718 1042.58 L621.262 1042.58 L621.262 757.447 L598.718 757.447 L598.718 757.447  Z" fill="#009af9" fill-rule="evenodd" fill-opacity="0.5"/>
<polyline clip-path="url(#clip482)" style="stroke:#000000; stroke-linecap:round; stroke-linejoin:round; stroke-width:4; stroke-opacity:0.5; fill:none" points="598.718,757.447 598.718,1042.58 621.262,1042.58 621.262,757.447 598.718,757.447 "/>
<path clip-path="url(#clip482)" d="M626.898 417.845 L626.898 1042.58 L649.441 1042.58 L649.441 417.845 L626.898 417.845 L626.898 417.845  Z" fill="#009af9" fill-rule="evenodd" fill-opacity="0.5"/>
<polyline clip-path="url(#clip482)" style="stroke:#000000; stroke-linecap:round; stroke-linejoin:round; stroke-width:4; stroke-opacity:0.5; fill:none" points="626.898,417.845 626.898,1042.58 649.441,1042.58 649.441,417.845 626.898,417.845 "/>
<path clip-path="url(#clip482)" d="M655.077 487.091 L655.077 1042.58 L677.62 1042.58 L677.62 487.091 L655.077 487.091 L655.077 487.091  Z" fill="#009af9" fill-rule="evenodd" fill-opacity="0.5"/>
<polyline clip-path="url(#clip482)" style="stroke:#000000; stroke-linecap:round; stroke-linejoin:round; stroke-width:4; stroke-opacity:0.5; fill:none" points="655.077,487.091 655.077,1042.58 677.62,1042.58 677.62,487.091 655.077,487.091 "/>
<path clip-path="url(#clip482)" d="M683.256 472.319 L683.256 1042.58 L705.8 1042.58 L705.8 472.319 L683.256 472.319 L683.256 472.319  Z" fill="#009af9" fill-rule="evenodd" fill-opacity="0.5"/>
<polyline clip-path="url(#clip482)" style="stroke:#000000; stroke-linecap:round; stroke-linejoin:round; stroke-width:4; stroke-opacity:0.5; fill:none" points="683.256,472.319 683.256,1042.58 705.8,1042.58 705.8,472.319 683.256,472.319 "/>
<path clip-path="url(#clip482)" d="M711.435 540.643 L711.435 1042.58 L733.979 1042.58 L733.979 540.643 L711.435 540.643 L711.435 540.643  Z" fill="#009af9" fill-rule="evenodd" fill-opacity="0.5"/>
<polyline clip-path="url(#clip482)" style="stroke:#000000; stroke-linecap:round; stroke-linejoin:round; stroke-width:4; stroke-opacity:0.5; fill:none" points="711.435,540.643 711.435,1042.58 733.979,1042.58 733.979,540.643 711.435,540.643 "/>
<path clip-path="url(#clip482)" d="M739.615 503.207 L739.615 1042.58 L762.158 1042.58 L762.158 503.207 L739.615 503.207 L739.615 503.207  Z" fill="#009af9" fill-rule="evenodd" fill-opacity="0.5"/>
<polyline clip-path="url(#clip482)" style="stroke:#000000; stroke-linecap:round; stroke-linejoin:round; stroke-width:4; stroke-opacity:0.5; fill:none" points="739.615,503.207 739.615,1042.58 762.158,1042.58 762.158,503.207 739.615,503.207 "/>
<path clip-path="url(#clip482)" d="M767.794 588.169 L767.794 1042.58 L790.337 1042.58 L790.337 588.169 L767.794 588.169 L767.794 588.169  Z" fill="#009af9" fill-rule="evenodd" fill-opacity="0.5"/>
<polyline clip-path="url(#clip482)" style="stroke:#000000; stroke-linecap:round; stroke-linejoin:round; stroke-width:4; stroke-opacity:0.5; fill:none" points="767.794,588.169 767.794,1042.58 790.337,1042.58 790.337,588.169 767.794,588.169 "/>
<path clip-path="url(#clip482)" d="M795.973 653.315 L795.973 1042.58 L818.517 1042.58 L818.517 653.315 L795.973 653.315 L795.973 653.315  Z" fill="#009af9" fill-rule="evenodd" fill-opacity="0.5"/>
<polyline clip-path="url(#clip482)" style="stroke:#000000; stroke-linecap:round; stroke-linejoin:round; stroke-width:4; stroke-opacity:0.5; fill:none" points="795.973,653.315 795.973,1042.58 818.517,1042.58 818.517,653.315 795.973,653.315 "/>
<path clip-path="url(#clip482)" d="M824.152 551.383 L824.152 1042.58 L846.696 1042.58 L846.696 551.383 L824.152 551.383 L824.152 551.383  Z" fill="#009af9" fill-rule="evenodd" fill-opacity="0.5"/>
<polyline clip-path="url(#clip482)" style="stroke:#000000; stroke-linecap:round; stroke-linejoin:round; stroke-width:4; stroke-opacity:0.5; fill:none" points="824.152,551.383 824.152,1042.58 846.696,1042.58 846.696,551.383 824.152,551.383 "/>
<path clip-path="url(#clip482)" d="M852.332 602.349 L852.332 1042.58 L874.875 1042.58 L874.875 602.349 L852.332 602.349 L852.332 602.349  Z" fill="#009af9" fill-rule="evenodd" fill-opacity="0.5"/>
<polyline clip-path="url(#clip482)" style="stroke:#000000; stroke-linecap:round; stroke-linejoin:round; stroke-width:4; stroke-opacity:0.5; fill:none" points="852.332,602.349 852.332,1042.58 874.875,1042.58 874.875,602.349 852.332,602.349 "/>
<path clip-path="url(#clip482)" d="M880.511 653.315 L880.511 1042.58 L903.054 1042.58 L903.054 653.315 L880.511 653.315 L880.511 653.315  Z" fill="#009af9" fill-rule="evenodd" fill-opacity="0.5"/>
<polyline clip-path="url(#clip482)" style="stroke:#000000; stroke-linecap:round; stroke-linejoin:round; stroke-width:4; stroke-opacity:0.5; fill:none" points="880.511,653.315 880.511,1042.58 903.054,1042.58 903.054,653.315 880.511,653.315 "/>
<path clip-path="url(#clip482)" d="M908.69 562.817 L908.69 1042.58 L931.234 1042.58 L931.234 562.817 L908.69 562.817 L908.69 562.817  Z" fill="#009af9" fill-rule="evenodd" fill-opacity="0.5"/>
<polyline clip-path="url(#clip482)" style="stroke:#000000; stroke-linecap:round; stroke-linejoin:round; stroke-width:4; stroke-opacity:0.5; fill:none" points="908.69,562.817 908.69,1042.58 931.234,1042.58 931.234,562.817 908.69,562.817 "/>
<path clip-path="url(#clip482)" d="M936.869 653.315 L936.869 1042.58 L959.413 1042.58 L959.413 653.315 L936.869 653.315 L936.869 653.315  Z" fill="#009af9" fill-rule="evenodd" fill-opacity="0.5"/>
<polyline clip-path="url(#clip482)" style="stroke:#000000; stroke-linecap:round; stroke-linejoin:round; stroke-width:4; stroke-opacity:0.5; fill:none" points="936.869,653.315 936.869,1042.58 959.413,1042.58 959.413,653.315 936.869,653.315 "/>
<path clip-path="url(#clip482)" d="M965.049 847.945 L965.049 1042.58 L987.592 1042.58 L987.592 847.945 L965.049 847.945 L965.049 847.945  Z" fill="#009af9" fill-rule="evenodd" fill-opacity="0.5"/>
<polyline clip-path="url(#clip482)" style="stroke:#000000; stroke-linecap:round; stroke-linejoin:round; stroke-width:4; stroke-opacity:0.5; fill:none" points="965.049,847.945 965.049,1042.58 987.592,1042.58 987.592,847.945 965.049,847.945 "/>
<path clip-path="url(#clip482)" d="M993.228 796.979 L993.228 1042.58 L1015.77 1042.58 L1015.77 796.979 L993.228 796.979 L993.228 796.979  Z" fill="#009af9" fill-rule="evenodd" fill-opacity="0.5"/>
<polyline clip-path="url(#clip482)" style="stroke:#000000; stroke-linecap:round; stroke-linejoin:round; stroke-width:4; stroke-opacity:0.5; fill:none" points="993.228,796.979 993.228,1042.58 1015.77,1042.58 1015.77,796.979 993.228,796.979 "/>
<path clip-path="url(#clip482)" d="M1021.41 551.383 L1021.41 1042.58 L1043.95 1042.58 L1043.95 551.383 L1021.41 551.383 L1021.41 551.383  Z" fill="#009af9" fill-rule="evenodd" fill-opacity="0.5"/>
<polyline clip-path="url(#clip482)" style="stroke:#000000; stroke-linecap:round; stroke-linejoin:round; stroke-width:4; stroke-opacity:0.5; fill:none" points="1021.41,551.383 1021.41,1042.58 1043.95,1042.58 1043.95,551.383 1021.41,551.383 "/>
<path clip-path="url(#clip482)" d="M1049.59 360.483 L1049.59 1042.58 L1072.13 1042.58 L1072.13 360.483 L1049.59 360.483 L1049.59 360.483  Z" fill="#009af9" fill-rule="evenodd" fill-opacity="0.5"/>
<polyline clip-path="url(#clip482)" style="stroke:#000000; stroke-linecap:round; stroke-linejoin:round; stroke-width:4; stroke-opacity:0.5; fill:none" points="1049.59,360.483 1049.59,1042.58 1072.13,1042.58 1072.13,360.483 1049.59,360.483 "/>
<path clip-path="url(#clip482)" d="M1077.77 602.349 L1077.77 1042.58 L1100.31 1042.58 L1100.31 602.349 L1077.77 602.349 L1077.77 602.349  Z" fill="#009af9" fill-rule="evenodd" fill-opacity="0.5"/>
<polyline clip-path="url(#clip482)" style="stroke:#000000; stroke-linecap:round; stroke-linejoin:round; stroke-width:4; stroke-opacity:0.5; fill:none" points="1077.77,602.349 1077.77,1042.58 1100.31,1042.58 1100.31,602.349 1077.77,602.349 "/>
<path clip-path="url(#clip482)" d="M1105.94 540.643 L1105.94 1042.58 L1128.49 1042.58 L1128.49 540.643 L1105.94 540.643 L1105.94 540.643  Z" fill="#009af9" fill-rule="evenodd" fill-opacity="0.5"/>
<polyline clip-path="url(#clip482)" style="stroke:#000000; stroke-linecap:round; stroke-linejoin:round; stroke-width:4; stroke-opacity:0.5; fill:none" points="1105.94,540.643 1105.94,1042.58 1128.49,1042.58 1128.49,540.643 1105.94,540.643 "/>
<path clip-path="url(#clip482)" d="M1134.12 617.764 L1134.12 1042.58 L1156.67 1042.58 L1156.67 617.764 L1134.12 617.764 L1134.12 617.764  Z" fill="#009af9" fill-rule="evenodd" fill-opacity="0.5"/>
<polyline clip-path="url(#clip482)" style="stroke:#000000; stroke-linecap:round; stroke-linejoin:round; stroke-width:4; stroke-opacity:0.5; fill:none" points="1134.12,617.764 1134.12,1042.58 1156.67,1042.58 1156.67,617.764 1134.12,617.764 "/>
<path clip-path="url(#clip482)" d="M1162.3 847.945 L1162.3 1042.58 L1184.85 1042.58 L1184.85 847.945 L1162.3 847.945 L1162.3 847.945  Z" fill="#009af9" fill-rule="evenodd" fill-opacity="0.5"/>
<polyline clip-path="url(#clip482)" style="stroke:#000000; stroke-linecap:round; stroke-linejoin:round; stroke-width:4; stroke-opacity:0.5; fill:none" points="1162.3,847.945 1162.3,1042.58 1184.85,1042.58 1184.85,847.945 1162.3,847.945 "/>
<path clip-path="url(#clip482)" d="M1190.48 757.447 L1190.48 1042.58 L1213.03 1042.58 L1213.03 757.447 L1190.48 757.447 L1190.48 757.447  Z" fill="#009af9" fill-rule="evenodd" fill-opacity="0.5"/>
<polyline clip-path="url(#clip482)" style="stroke:#000000; stroke-linecap:round; stroke-linejoin:round; stroke-width:4; stroke-opacity:0.5; fill:none" points="1190.48,757.447 1190.48,1042.58 1213.03,1042.58 1213.03,757.447 1190.48,757.447 "/>
<path clip-path="url(#clip482)" d="M1218.66 757.447 L1218.66 1042.58 L1241.21 1042.58 L1241.21 757.447 L1218.66 757.447 L1218.66 757.447  Z" fill="#009af9" fill-rule="evenodd" fill-opacity="0.5"/>
<polyline clip-path="url(#clip482)" style="stroke:#000000; stroke-linecap:round; stroke-linejoin:round; stroke-width:4; stroke-opacity:0.5; fill:none" points="1218.66,757.447 1218.66,1042.58 1241.21,1042.58 1241.21,757.447 1218.66,757.447 "/>
<path clip-path="url(#clip482)" d="M1246.84 725.147 L1246.84 1042.58 L1269.38 1042.58 L1269.38 725.147 L1246.84 725.147 L1246.84 725.147  Z" fill="#009af9" fill-rule="evenodd" fill-opacity="0.5"/>
<polyline clip-path="url(#clip482)" style="stroke:#000000; stroke-linecap:round; stroke-linejoin:round; stroke-width:4; stroke-opacity:0.5; fill:none" points="1246.84,725.147 1246.84,1042.58 1269.38,1042.58 1269.38,725.147 1246.84,725.147 "/>
<path clip-path="url(#clip482)" d="M1275.02 847.945 L1275.02 1042.58 L1297.56 1042.58 L1297.56 847.945 L1275.02 847.945 L1275.02 847.945  Z" fill="#009af9" fill-rule="evenodd" fill-opacity="0.5"/>
<polyline clip-path="url(#clip482)" style="stroke:#000000; stroke-linecap:round; stroke-linejoin:round; stroke-width:4; stroke-opacity:0.5; fill:none" points="1275.02,847.945 1275.02,1042.58 1297.56,1042.58 1297.56,847.945 1275.02,847.945 "/>
<path clip-path="url(#clip482)" d="M1303.2 653.315 L1303.2 1042.58 L1325.74 1042.58 L1325.74 653.315 L1303.2 653.315 L1303.2 653.315  Z" fill="#009af9" fill-rule="evenodd" fill-opacity="0.5"/>
<polyline clip-path="url(#clip482)" style="stroke:#000000; stroke-linecap:round; stroke-linejoin:round; stroke-width:4; stroke-opacity:0.5; fill:none" points="1303.2,653.315 1303.2,1042.58 1325.74,1042.58 1325.74,653.315 1303.2,653.315 "/>
<path clip-path="url(#clip482)" d="M1331.38 796.979 L1331.38 1042.58 L1353.92 1042.58 L1353.92 796.979 L1331.38 796.979 L1331.38 796.979  Z" fill="#009af9" fill-rule="evenodd" fill-opacity="0.5"/>
<polyline clip-path="url(#clip482)" style="stroke:#000000; stroke-linecap:round; stroke-linejoin:round; stroke-width:4; stroke-opacity:0.5; fill:none" points="1331.38,796.979 1331.38,1042.58 1353.92,1042.58 1353.92,796.979 1331.38,796.979 "/>
<path clip-path="url(#clip482)" d="M1359.56 1042.58 L1359.56 1042.58 L1382.1 1042.58 L1382.1 1042.58 L1359.56 1042.58 L1359.56 1042.58  Z" fill="#009af9" fill-rule="evenodd" fill-opacity="0.5"/>
<polyline clip-path="url(#clip482)" style="stroke:#000000; stroke-linecap:round; stroke-linejoin:round; stroke-width:4; stroke-opacity:0.5; fill:none" points="1359.56,1042.58 1359.56,1042.58 1382.1,1042.58 1359.56,1042.58 "/>
<path clip-path="url(#clip482)" d="M1387.74 725.147 L1387.74 1042.58 L1410.28 1042.58 L1410.28 725.147 L1387.74 725.147 L1387.74 725.147  Z" fill="#009af9" fill-rule="evenodd" fill-opacity="0.5"/>
<polyline clip-path="url(#clip482)" style="stroke:#000000; stroke-linecap:round; stroke-linejoin:round; stroke-width:4; stroke-opacity:0.5; fill:none" points="1387.74,725.147 1387.74,1042.58 1410.28,1042.58 1410.28,725.147 1387.74,725.147 "/>
<path clip-path="url(#clip482)" d="M1415.92 674.181 L1415.92 1042.58 L1438.46 1042.58 L1438.46 674.181 L1415.92 674.181 L1415.92 674.181  Z" fill="#009af9" fill-rule="evenodd" fill-opacity="0.5"/>
<polyline clip-path="url(#clip482)" style="stroke:#000000; stroke-linecap:round; stroke-linejoin:round; stroke-width:4; stroke-opacity:0.5; fill:none" points="1415.92,674.181 1415.92,1042.58 1438.46,1042.58 1438.46,674.181 1415.92,674.181 "/>
<path clip-path="url(#clip482)" d="M1444.1 428.585 L1444.1 1042.58 L1466.64 1042.58 L1466.64 428.585 L1444.1 428.585 L1444.1 428.585  Z" fill="#009af9" fill-rule="evenodd" fill-opacity="0.5"/>
<polyline clip-path="url(#clip482)" style="stroke:#000000; stroke-linecap:round; stroke-linejoin:round; stroke-width:4; stroke-opacity:0.5; fill:none" points="1444.1,428.585 1444.1,1042.58 1466.64,1042.58 1466.64,428.585 1444.1,428.585 "/>
<path clip-path="url(#clip482)" d="M1472.28 796.979 L1472.28 1042.58 L1494.82 1042.58 L1494.82 796.979 L1472.28 796.979 L1472.28 796.979  Z" fill="#009af9" fill-rule="evenodd" fill-opacity="0.5"/>
<polyline clip-path="url(#clip482)" style="stroke:#000000; stroke-linecap:round; stroke-linejoin:round; stroke-width:4; stroke-opacity:0.5; fill:none" points="1472.28,796.979 1472.28,1042.58 1494.82,1042.58 1494.82,796.979 1472.28,796.979 "/>
<path clip-path="url(#clip482)" d="M1500.45 796.979 L1500.45 1042.58 L1523 1042.58 L1523 796.979 L1500.45 796.979 L1500.45 796.979  Z" fill="#009af9" fill-rule="evenodd" fill-opacity="0.5"/>
<polyline clip-path="url(#clip482)" style="stroke:#000000; stroke-linecap:round; stroke-linejoin:round; stroke-width:4; stroke-opacity:0.5; fill:none" points="1500.45,796.979 1500.45,1042.58 1523,1042.58 1523,796.979 1500.45,796.979 "/>
<path clip-path="url(#clip482)" d="M1528.63 757.447 L1528.63 1042.58 L1551.18 1042.58 L1551.18 757.447 L1528.63 757.447 L1528.63 757.447  Z" fill="#009af9" fill-rule="evenodd" fill-opacity="0.5"/>
<polyline clip-path="url(#clip482)" style="stroke:#000000; stroke-linecap:round; stroke-linejoin:round; stroke-width:4; stroke-opacity:0.5; fill:none" points="1528.63,757.447 1528.63,1042.58 1551.18,1042.58 1551.18,757.447 1528.63,757.447 "/>
<path clip-path="url(#clip482)" d="M1556.81 919.778 L1556.81 1042.58 L1579.36 1042.58 L1579.36 919.778 L1556.81 919.778 L1556.81 919.778  Z" fill="#009af9" fill-rule="evenodd" fill-opacity="0.5"/>
<polyline clip-path="url(#clip482)" style="stroke:#000000; stroke-linecap:round; stroke-linejoin:round; stroke-width:4; stroke-opacity:0.5; fill:none" points="1556.81,919.778 1556.81,1042.58 1579.36,1042.58 1579.36,919.778 1556.81,919.778 "/>
<path clip-path="url(#clip482)" d="M1584.99 725.147 L1584.99 1042.58 L1607.54 1042.58 L1607.54 725.147 L1584.99 725.147 L1584.99 725.147  Z" fill="#009af9" fill-rule="evenodd" fill-opacity="0.5"/>
<polyline clip-path="url(#clip482)" style="stroke:#000000; stroke-linecap:round; stroke-linejoin:round; stroke-width:4; stroke-opacity:0.5; fill:none" points="1584.99,725.147 1584.99,1042.58 1607.54,1042.58 1607.54,725.147 1584.99,725.147 "/>
<path clip-path="url(#clip482)" d="M1613.17 725.147 L1613.17 1042.58 L1635.71 1042.58 L1635.71 725.147 L1613.17 725.147 L1613.17 725.147  Z" fill="#009af9" fill-rule="evenodd" fill-opacity="0.5"/>
<polyline clip-path="url(#clip482)" style="stroke:#000000; stroke-linecap:round; stroke-linejoin:round; stroke-width:4; stroke-opacity:0.5; fill:none" points="1613.17,725.147 1613.17,1042.58 1635.71,1042.58 1635.71,725.147 1613.17,725.147 "/>
<path clip-path="url(#clip482)" d="M1641.35 757.447 L1641.35 1042.58 L1663.89 1042.58 L1663.89 757.447 L1641.35 757.447 L1641.35 757.447  Z" fill="#009af9" fill-rule="evenodd" fill-opacity="0.5"/>
<polyline clip-path="url(#clip482)" style="stroke:#000000; stroke-linecap:round; stroke-linejoin:round; stroke-width:4; stroke-opacity:0.5; fill:none" points="1641.35,757.447 1641.35,1042.58 1663.89,1042.58 1663.89,757.447 1641.35,757.447 "/>
<path clip-path="url(#clip482)" d="M1669.53 674.181 L1669.53 1042.58 L1692.07 1042.58 L1692.07 674.181 L1669.53 674.181 L1669.53 674.181  Z" fill="#009af9" fill-rule="evenodd" fill-opacity="0.5"/>
<polyline clip-path="url(#clip482)" style="stroke:#000000; stroke-linecap:round; stroke-linejoin:round; stroke-width:4; stroke-opacity:0.5; fill:none" points="1669.53,674.181 1669.53,1042.58 1692.07,1042.58 1692.07,674.181 1669.53,674.181 "/>
<path clip-path="url(#clip482)" d="M1697.71 697.838 L1697.71 1042.58 L1720.25 1042.58 L1720.25 697.838 L1697.71 697.838 L1697.71 697.838  Z" fill="#009af9" fill-rule="evenodd" fill-opacity="0.5"/>
<polyline clip-path="url(#clip482)" style="stroke:#000000; stroke-linecap:round; stroke-linejoin:round; stroke-width:4; stroke-opacity:0.5; fill:none" points="1697.71,697.838 1697.71,1042.58 1720.25,1042.58 1720.25,697.838 1697.71,697.838 "/>
<path clip-path="url(#clip482)" d="M1725.89 1042.58 L1725.89 1042.58 L1748.43 1042.58 L1748.43 1042.58 L1725.89 1042.58 L1725.89 1042.58  Z" fill="#009af9" fill-rule="evenodd" fill-opacity="0.5"/>
<polyline clip-path="url(#clip482)" style="stroke:#000000; stroke-linecap:round; stroke-linejoin:round; stroke-width:4; stroke-opacity:0.5; fill:none" points="1725.89,1042.58 1725.89,1042.58 1748.43,1042.58 1725.89,1042.58 "/>
<path clip-path="url(#clip482)" d="M1754.07 847.945 L1754.07 1042.58 L1776.61 1042.58 L1776.61 847.945 L1754.07 847.945 L1754.07 847.945  Z" fill="#009af9" fill-rule="evenodd" fill-opacity="0.5"/>
<polyline clip-path="url(#clip482)" style="stroke:#000000; stroke-linecap:round; stroke-linejoin:round; stroke-width:4; stroke-opacity:0.5; fill:none" points="1754.07,847.945 1754.07,1042.58 1776.61,1042.58 1776.61,847.945 1754.07,847.945 "/>
<path clip-path="url(#clip482)" d="M1782.25 919.778 L1782.25 1042.58 L1804.79 1042.58 L1804.79 919.778 L1782.25 919.778 L1782.25 919.778  Z" fill="#009af9" fill-rule="evenodd" fill-opacity="0.5"/>
<polyline clip-path="url(#clip482)" style="stroke:#000000; stroke-linecap:round; stroke-linejoin:round; stroke-width:4; stroke-opacity:0.5; fill:none" points="1782.25,919.778 1782.25,1042.58 1804.79,1042.58 1804.79,919.778 1782.25,919.778 "/>
<path clip-path="url(#clip482)" d="M1810.43 674.181 L1810.43 1042.58 L1832.97 1042.58 L1832.97 674.181 L1810.43 674.181 L1810.43 674.181  Z" fill="#009af9" fill-rule="evenodd" fill-opacity="0.5"/>
<polyline clip-path="url(#clip482)" style="stroke:#000000; stroke-linecap:round; stroke-linejoin:round; stroke-width:4; stroke-opacity:0.5; fill:none" points="1810.43,674.181 1810.43,1042.58 1832.97,1042.58 1832.97,674.181 1810.43,674.181 "/>
<path clip-path="url(#clip482)" d="M1838.61 458.684 L1838.61 1042.58 L1861.15 1042.58 L1861.15 458.684 L1838.61 458.684 L1838.61 458.684  Z" fill="#009af9" fill-rule="evenodd" fill-opacity="0.5"/>
<polyline clip-path="url(#clip482)" style="stroke:#000000; stroke-linecap:round; stroke-linejoin:round; stroke-width:4; stroke-opacity:0.5; fill:none" points="1838.61,458.684 1838.61,1042.58 1861.15,1042.58 1861.15,458.684 1838.61,458.684 "/>
<path clip-path="url(#clip482)" d="M1866.78 847.945 L1866.78 1042.58 L1889.33 1042.58 L1889.33 847.945 L1866.78 847.945 L1866.78 847.945  Z" fill="#009af9" fill-rule="evenodd" fill-opacity="0.5"/>
<polyline clip-path="url(#clip482)" style="stroke:#000000; stroke-linecap:round; stroke-linejoin:round; stroke-width:4; stroke-opacity:0.5; fill:none" points="1866.78,847.945 1866.78,1042.58 1889.33,1042.58 1889.33,847.945 1866.78,847.945 "/>
<path clip-path="url(#clip482)" d="M1894.96 847.945 L1894.96 1042.58 L1917.51 1042.58 L1917.51 847.945 L1894.96 847.945 L1894.96 847.945  Z" fill="#009af9" fill-rule="evenodd" fill-opacity="0.5"/>
<polyline clip-path="url(#clip482)" style="stroke:#000000; stroke-linecap:round; stroke-linejoin:round; stroke-width:4; stroke-opacity:0.5; fill:none" points="1894.96,847.945 1894.96,1042.58 1917.51,1042.58 1917.51,847.945 1894.96,847.945 "/>
<path clip-path="url(#clip482)" d="M1923.14 757.447 L1923.14 1042.58 L1945.69 1042.58 L1945.69 757.447 L1923.14 757.447 L1923.14 757.447  Z" fill="#009af9" fill-rule="evenodd" fill-opacity="0.5"/>
<polyline clip-path="url(#clip482)" style="stroke:#000000; stroke-linecap:round; stroke-linejoin:round; stroke-width:4; stroke-opacity:0.5; fill:none" points="1923.14,757.447 1923.14,1042.58 1945.69,1042.58 1945.69,757.447 1923.14,757.447 "/>
<path clip-path="url(#clip482)" d="M1951.32 847.945 L1951.32 1042.58 L1973.87 1042.58 L1973.87 847.945 L1951.32 847.945 L1951.32 847.945  Z" fill="#009af9" fill-rule="evenodd" fill-opacity="0.5"/>
<polyline clip-path="url(#clip482)" style="stroke:#000000; stroke-linecap:round; stroke-linejoin:round; stroke-width:4; stroke-opacity:0.5; fill:none" points="1951.32,847.945 1951.32,1042.58 1973.87,1042.58 1973.87,847.945 1951.32,847.945 "/>
<path clip-path="url(#clip482)" d="M1979.5 919.778 L1979.5 1042.58 L2002.04 1042.58 L2002.04 919.778 L1979.5 919.778 L1979.5 919.778  Z" fill="#009af9" fill-rule="evenodd" fill-opacity="0.5"/>
<polyline clip-path="url(#clip482)" style="stroke:#000000; stroke-linecap:round; stroke-linejoin:round; stroke-width:4; stroke-opacity:0.5; fill:none" points="1979.5,919.778 1979.5,1042.58 2002.04,1042.58 2002.04,919.778 1979.5,919.778 "/>
<path clip-path="url(#clip482)" d="M2007.68 674.181 L2007.68 1042.58 L2030.22 1042.58 L2030.22 674.181 L2007.68 674.181 L2007.68 674.181  Z" fill="#009af9" fill-rule="evenodd" fill-opacity="0.5"/>
<polyline clip-path="url(#clip482)" style="stroke:#000000; stroke-linecap:round; stroke-linejoin:round; stroke-width:4; stroke-opacity:0.5; fill:none" points="2007.68,674.181 2007.68,1042.58 2030.22,1042.58 2030.22,674.181 2007.68,674.181 "/>
<path clip-path="url(#clip482)" d="M2035.86 847.945 L2035.86 1042.58 L2058.4 1042.58 L2058.4 847.945 L2035.86 847.945 L2035.86 847.945  Z" fill="#009af9" fill-rule="evenodd" fill-opacity="0.5"/>
<polyline clip-path="url(#clip482)" style="stroke:#000000; stroke-linecap:round; stroke-linejoin:round; stroke-width:4; stroke-opacity:0.5; fill:none" points="2035.86,847.945 2035.86,1042.58 2058.4,1042.58 2058.4,847.945 2035.86,847.945 "/>
<path clip-path="url(#clip482)" d="M2064.04 1042.58 L2064.04 1042.58 L2086.58 1042.58 L2086.58 1042.58 L2064.04 1042.58 L2064.04 1042.58  Z" fill="#009af9" fill-rule="evenodd" fill-opacity="0.5"/>
<polyline clip-path="url(#clip482)" style="stroke:#000000; stroke-linecap:round; stroke-linejoin:round; stroke-width:4; stroke-opacity:0.5; fill:none" points="2064.04,1042.58 2064.04,1042.58 2086.58,1042.58 2064.04,1042.58 "/>
<path clip-path="url(#clip482)" d="M2120.4 919.778 L2120.4 1042.58 L2142.94 1042.58 L2142.94 919.778 L2120.4 919.778 L2120.4 919.778  Z" fill="#009af9" fill-rule="evenodd" fill-opacity="0.5"/>
<polyline clip-path="url(#clip482)" style="stroke:#000000; stroke-linecap:round; stroke-linejoin:round; stroke-width:4; stroke-opacity:0.5; fill:none" points="2120.4,919.778 2120.4,1042.58 2142.94,1042.58 2142.94,919.778 2120.4,919.778 "/>
<path clip-path="url(#clip482)" d="M2148.58 796.979 L2148.58 1042.58 L2171.12 1042.58 L2171.12 796.979 L2148.58 796.979 L2148.58 796.979  Z" fill="#009af9" fill-rule="evenodd" fill-opacity="0.5"/>
<polyline clip-path="url(#clip482)" style="stroke:#000000; stroke-linecap:round; stroke-linejoin:round; stroke-width:4; stroke-opacity:0.5; fill:none" points="2148.58,796.979 2148.58,1042.58 2171.12,1042.58 2171.12,796.979 2148.58,796.979 "/>
<path clip-path="url(#clip482)" d="M2176.76 796.979 L2176.76 1042.58 L2199.3 1042.58 L2199.3 796.979 L2176.76 796.979 L2176.76 796.979  Z" fill="#009af9" fill-rule="evenodd" fill-opacity="0.5"/>
<polyline clip-path="url(#clip482)" style="stroke:#000000; stroke-linecap:round; stroke-linejoin:round; stroke-width:4; stroke-opacity:0.5; fill:none" points="2176.76,796.979 2176.76,1042.58 2199.3,1042.58 2199.3,796.979 2176.76,796.979 "/>
<path clip-path="url(#clip482)" d="M2204.94 1042.58 L2204.94 1042.58 L2227.48 1042.58 L2227.48 1042.58 L2204.94 1042.58 L2204.94 1042.58  Z" fill="#009af9" fill-rule="evenodd" fill-opacity="0.5"/>
<polyline clip-path="url(#clip482)" style="stroke:#000000; stroke-linecap:round; stroke-linejoin:round; stroke-width:4; stroke-opacity:0.5; fill:none" points="2204.94,1042.58 2204.94,1042.58 2227.48,1042.58 2204.94,1042.58 "/>
<path clip-path="url(#clip482)" d="M2233.11 919.778 L2233.11 1042.58 L2255.66 1042.58 L2255.66 919.778 L2233.11 919.778 L2233.11 919.778  Z" fill="#009af9" fill-rule="evenodd" fill-opacity="0.5"/>
<polyline clip-path="url(#clip482)" style="stroke:#000000; stroke-linecap:round; stroke-linejoin:round; stroke-width:4; stroke-opacity:0.5; fill:none" points="2233.11,919.778 2233.11,1042.58 2255.66,1042.58 2255.66,919.778 2233.11,919.778 "/>
<path clip-path="url(#clip482)" d="M2261.29 757.447 L2261.29 1042.58 L2283.84 1042.58 L2283.84 757.447 L2261.29 757.447 L2261.29 757.447  Z" fill="#009af9" fill-rule="evenodd" fill-opacity="0.5"/>
<polyline clip-path="url(#clip482)" style="stroke:#000000; stroke-linecap:round; stroke-linejoin:round; stroke-width:4; stroke-opacity:0.5; fill:none" points="2261.29,757.447 2261.29,1042.58 2283.84,1042.58 2283.84,757.447 2261.29,757.447 "/>
<path clip-path="url(#clip482)" d="M2289.47 796.979 L2289.47 1042.58 L2312.02 1042.58 L2312.02 796.979 L2289.47 796.979 L2289.47 796.979  Z" fill="#009af9" fill-rule="evenodd" fill-opacity="0.5"/>
<polyline clip-path="url(#clip482)" style="stroke:#000000; stroke-linecap:round; stroke-linejoin:round; stroke-width:4; stroke-opacity:0.5; fill:none" points="2289.47,796.979 2289.47,1042.58 2312.02,1042.58 2312.02,796.979 2289.47,796.979 "/>
<path clip-path="url(#clip482)" d="M2374.01 847.945 L2374.01 1042.58 L2396.55 1042.58 L2396.55 847.945 L2374.01 847.945 L2374.01 847.945  Z" fill="#009af9" fill-rule="evenodd" fill-opacity="0.5"/>
<polyline clip-path="url(#clip482)" style="stroke:#000000; stroke-linecap:round; stroke-linejoin:round; stroke-width:4; stroke-opacity:0.5; fill:none" points="2374.01,847.945 2374.01,1042.58 2396.55,1042.58 2396.55,847.945 2374.01,847.945 "/>
<path clip-path="url(#clip482)" d="M2430.37 1042.58 L2430.37 1042.58 L2452.91 1042.58 L2452.91 1042.58 L2430.37 1042.58 L2430.37 1042.58  Z" fill="#009af9" fill-rule="evenodd" fill-opacity="0.5"/>
<polyline clip-path="url(#clip482)" style="stroke:#000000; stroke-linecap:round; stroke-linejoin:round; stroke-width:4; stroke-opacity:0.5; fill:none" points="2430.37,1042.58 2430.37,1042.58 2452.91,1042.58 2430.37,1042.58 "/>
<path clip-path="url(#clip482)" d="M2458.55 1042.58 L2458.55 1042.58 L2481.09 1042.58 L2481.09 1042.58 L2458.55 1042.58 L2458.55 1042.58  Z" fill="#009af9" fill-rule="evenodd" fill-opacity="0.5"/>
<polyline clip-path="url(#clip482)" style="stroke:#000000; stroke-linecap:round; stroke-linejoin:round; stroke-width:4; stroke-opacity:0.5; fill:none" points="2458.55,1042.58 2458.55,1042.58 2481.09,1042.58 2458.55,1042.58 "/>
<path clip-path="url(#clip482)" d="M2571.27 1042.58 L2571.27 1042.58 L2593.81 1042.58 L2593.81 1042.58 L2571.27 1042.58 L2571.27 1042.58  Z" fill="#009af9" fill-rule="evenodd" fill-opacity="0.5"/>
<polyline clip-path="url(#clip482)" style="stroke:#000000; stroke-linecap:round; stroke-linejoin:round; stroke-width:4; stroke-opacity:0.5; fill:none" points="2571.27,1042.58 2571.27,1042.58 2593.81,1042.58 2571.27,1042.58 "/>
<circle clip-path="url(#clip482)" style="fill:#009af9; stroke:none; fill-opacity:0" cx="300.018" cy="332.636" r="2"/>
<circle clip-path="url(#clip482)" style="fill:#009af9; stroke:none; fill-opacity:0" cx="328.198" cy="320.198" r="2"/>
<circle clip-path="url(#clip482)" style="fill:#009af9; stroke:none; fill-opacity:0" cx="356.377" cy="360.483" r="2"/>
<circle clip-path="url(#clip482)" style="fill:#009af9; stroke:none; fill-opacity:0" cx="384.556" cy="472.319" r="2"/>
<circle clip-path="url(#clip482)" style="fill:#009af9; stroke:none; fill-opacity:0" cx="412.735" cy="479.551" r="2"/>
<circle clip-path="url(#clip482)" style="fill:#009af9; stroke:none; fill-opacity:0" cx="440.915" cy="423.134" r="2"/>
<circle clip-path="url(#clip482)" style="fill:#009af9; stroke:none; fill-opacity:0" cx="469.094" cy="472.319" r="2"/>
<circle clip-path="url(#clip482)" style="fill:#009af9; stroke:none; fill-opacity:0" cx="497.273" cy="389.053" r="2"/>
<circle clip-path="url(#clip482)" style="fill:#009af9; stroke:none; fill-opacity:0" cx="525.452" cy="465.371" r="2"/>
<circle clip-path="url(#clip482)" style="fill:#009af9; stroke:none; fill-opacity:0" cx="553.632" cy="110.236" r="2"/>
<circle clip-path="url(#clip482)" style="fill:#009af9; stroke:none; fill-opacity:0" cx="581.811" cy="617.764" r="2"/>
<circle clip-path="url(#clip482)" style="fill:#009af9; stroke:none; fill-opacity:0" cx="609.99" cy="757.447" r="2"/>
<circle clip-path="url(#clip482)" style="fill:#009af9; stroke:none; fill-opacity:0" cx="638.169" cy="417.845" r="2"/>
<circle clip-path="url(#clip482)" style="fill:#009af9; stroke:none; fill-opacity:0" cx="666.349" cy="487.091" r="2"/>
<circle clip-path="url(#clip482)" style="fill:#009af9; stroke:none; fill-opacity:0" cx="694.528" cy="472.319" r="2"/>
<circle clip-path="url(#clip482)" style="fill:#009af9; stroke:none; fill-opacity:0" cx="722.707" cy="540.643" r="2"/>
<circle clip-path="url(#clip482)" style="fill:#009af9; stroke:none; fill-opacity:0" cx="750.886" cy="503.207" r="2"/>
<circle clip-path="url(#clip482)" style="fill:#009af9; stroke:none; fill-opacity:0" cx="779.066" cy="588.169" r="2"/>
<circle clip-path="url(#clip482)" style="fill:#009af9; stroke:none; fill-opacity:0" cx="807.245" cy="653.315" r="2"/>
<circle clip-path="url(#clip482)" style="fill:#009af9; stroke:none; fill-opacity:0" cx="835.424" cy="551.383" r="2"/>
<circle clip-path="url(#clip482)" style="fill:#009af9; stroke:none; fill-opacity:0" cx="863.603" cy="602.349" r="2"/>
<circle clip-path="url(#clip482)" style="fill:#009af9; stroke:none; fill-opacity:0" cx="891.783" cy="653.315" r="2"/>
<circle clip-path="url(#clip482)" style="fill:#009af9; stroke:none; fill-opacity:0" cx="919.962" cy="562.817" r="2"/>
<circle clip-path="url(#clip482)" style="fill:#009af9; stroke:none; fill-opacity:0" cx="948.141" cy="653.315" r="2"/>
<circle clip-path="url(#clip482)" style="fill:#009af9; stroke:none; fill-opacity:0" cx="976.32" cy="847.945" r="2"/>
<circle clip-path="url(#clip482)" style="fill:#009af9; stroke:none; fill-opacity:0" cx="1004.5" cy="796.979" r="2"/>
<circle clip-path="url(#clip482)" style="fill:#009af9; stroke:none; fill-opacity:0" cx="1032.68" cy="551.383" r="2"/>
<circle clip-path="url(#clip482)" style="fill:#009af9; stroke:none; fill-opacity:0" cx="1060.86" cy="360.483" r="2"/>
<circle clip-path="url(#clip482)" style="fill:#009af9; stroke:none; fill-opacity:0" cx="1089.04" cy="602.349" r="2"/>
<circle clip-path="url(#clip482)" style="fill:#009af9; stroke:none; fill-opacity:0" cx="1117.22" cy="540.643" r="2"/>
<circle clip-path="url(#clip482)" style="fill:#009af9; stroke:none; fill-opacity:0" cx="1145.4" cy="617.764" r="2"/>
<circle clip-path="url(#clip482)" style="fill:#009af9; stroke:none; fill-opacity:0" cx="1173.58" cy="847.945" r="2"/>
<circle clip-path="url(#clip482)" style="fill:#009af9; stroke:none; fill-opacity:0" cx="1201.75" cy="757.447" r="2"/>
<circle clip-path="url(#clip482)" style="fill:#009af9; stroke:none; fill-opacity:0" cx="1229.93" cy="757.447" r="2"/>
<circle clip-path="url(#clip482)" style="fill:#009af9; stroke:none; fill-opacity:0" cx="1258.11" cy="725.147" r="2"/>
<circle clip-path="url(#clip482)" style="fill:#009af9; stroke:none; fill-opacity:0" cx="1286.29" cy="847.945" r="2"/>
<circle clip-path="url(#clip482)" style="fill:#009af9; stroke:none; fill-opacity:0" cx="1314.47" cy="653.315" r="2"/>
<circle clip-path="url(#clip482)" style="fill:#009af9; stroke:none; fill-opacity:0" cx="1342.65" cy="796.979" r="2"/>
<circle clip-path="url(#clip482)" style="fill:#009af9; stroke:none; fill-opacity:0" cx="1370.83" cy="1042.58" r="2"/>
<circle clip-path="url(#clip482)" style="fill:#009af9; stroke:none; fill-opacity:0" cx="1399.01" cy="725.147" r="2"/>
<circle clip-path="url(#clip482)" style="fill:#009af9; stroke:none; fill-opacity:0" cx="1427.19" cy="674.181" r="2"/>
<circle clip-path="url(#clip482)" style="fill:#009af9; stroke:none; fill-opacity:0" cx="1455.37" cy="428.585" r="2"/>
<circle clip-path="url(#clip482)" style="fill:#009af9; stroke:none; fill-opacity:0" cx="1483.55" cy="796.979" r="2"/>
<circle clip-path="url(#clip482)" style="fill:#009af9; stroke:none; fill-opacity:0" cx="1511.73" cy="796.979" r="2"/>
<circle clip-path="url(#clip482)" style="fill:#009af9; stroke:none; fill-opacity:0" cx="1539.91" cy="757.447" r="2"/>
<circle clip-path="url(#clip482)" style="fill:#009af9; stroke:none; fill-opacity:0" cx="1568.08" cy="919.778" r="2"/>
<circle clip-path="url(#clip482)" style="fill:#009af9; stroke:none; fill-opacity:0" cx="1596.26" cy="725.147" r="2"/>
<circle clip-path="url(#clip482)" style="fill:#009af9; stroke:none; fill-opacity:0" cx="1624.44" cy="725.147" r="2"/>
<circle clip-path="url(#clip482)" style="fill:#009af9; stroke:none; fill-opacity:0" cx="1652.62" cy="757.447" r="2"/>
<circle clip-path="url(#clip482)" style="fill:#009af9; stroke:none; fill-opacity:0" cx="1680.8" cy="674.181" r="2"/>
<circle clip-path="url(#clip482)" style="fill:#009af9; stroke:none; fill-opacity:0" cx="1708.98" cy="697.838" r="2"/>
<circle clip-path="url(#clip482)" style="fill:#009af9; stroke:none; fill-opacity:0" cx="1737.16" cy="1042.58" r="2"/>
<circle clip-path="url(#clip482)" style="fill:#009af9; stroke:none; fill-opacity:0" cx="1765.34" cy="847.945" r="2"/>
<circle clip-path="url(#clip482)" style="fill:#009af9; stroke:none; fill-opacity:0" cx="1793.52" cy="919.778" r="2"/>
<circle clip-path="url(#clip482)" style="fill:#009af9; stroke:none; fill-opacity:0" cx="1821.7" cy="674.181" r="2"/>
<circle clip-path="url(#clip482)" style="fill:#009af9; stroke:none; fill-opacity:0" cx="1849.88" cy="458.684" r="2"/>
<circle clip-path="url(#clip482)" style="fill:#009af9; stroke:none; fill-opacity:0" cx="1878.06" cy="847.945" r="2"/>
<circle clip-path="url(#clip482)" style="fill:#009af9; stroke:none; fill-opacity:0" cx="1906.24" cy="847.945" r="2"/>
<circle clip-path="url(#clip482)" style="fill:#009af9; stroke:none; fill-opacity:0" cx="1934.41" cy="757.447" r="2"/>
<circle clip-path="url(#clip482)" style="fill:#009af9; stroke:none; fill-opacity:0" cx="1962.59" cy="847.945" r="2"/>
<circle clip-path="url(#clip482)" style="fill:#009af9; stroke:none; fill-opacity:0" cx="1990.77" cy="919.778" r="2"/>
<circle clip-path="url(#clip482)" style="fill:#009af9; stroke:none; fill-opacity:0" cx="2018.95" cy="674.181" r="2"/>
<circle clip-path="url(#clip482)" style="fill:#009af9; stroke:none; fill-opacity:0" cx="2047.13" cy="847.945" r="2"/>
<circle clip-path="url(#clip482)" style="fill:#009af9; stroke:none; fill-opacity:0" cx="2075.31" cy="1042.58" r="2"/>
<circle clip-path="url(#clip482)" style="fill:#009af9; stroke:none; fill-opacity:0" cx="2131.67" cy="919.778" r="2"/>
<circle clip-path="url(#clip482)" style="fill:#009af9; stroke:none; fill-opacity:0" cx="2159.85" cy="796.979" r="2"/>
<circle clip-path="url(#clip482)" style="fill:#009af9; stroke:none; fill-opacity:0" cx="2188.03" cy="796.979" r="2"/>
<circle clip-path="url(#clip482)" style="fill:#009af9; stroke:none; fill-opacity:0" cx="2216.21" cy="1042.58" r="2"/>
<circle clip-path="url(#clip482)" style="fill:#009af9; stroke:none; fill-opacity:0" cx="2244.39" cy="919.778" r="2"/>
<circle clip-path="url(#clip482)" style="fill:#009af9; stroke:none; fill-opacity:0" cx="2272.57" cy="757.447" r="2"/>
<circle clip-path="url(#clip482)" style="fill:#009af9; stroke:none; fill-opacity:0" cx="2300.74" cy="796.979" r="2"/>
<circle clip-path="url(#clip482)" style="fill:#009af9; stroke:none; fill-opacity:0" cx="2385.28" cy="847.945" r="2"/>
<circle clip-path="url(#clip482)" style="fill:#009af9; stroke:none; fill-opacity:0" cx="2441.64" cy="1042.58" r="2"/>
<circle clip-path="url(#clip482)" style="fill:#009af9; stroke:none; fill-opacity:0" cx="2469.82" cy="1042.58" r="2"/>
<circle clip-path="url(#clip482)" style="fill:#009af9; stroke:none; fill-opacity:0" cx="2582.54" cy="1042.58" r="2"/>
</svg>
