<?xml version="1.0" encoding="utf-8"?>
<svg xmlns="http://www.w3.org/2000/svg" xmlns:xlink="http://www.w3.org/1999/xlink" width="800" height="300" viewBox="0 0 3200 1200">
<defs>
  <clipPath id="clip500">
    <rect x="0" y="0" width="3200" height="1200"/>
  </clipPath>
</defs>
<path clip-path="url(#clip500)" d="M0 1200 L3200 1200 L3200 0 L0 0  Z" fill="#ffffff" fill-rule="evenodd" fill-opacity="1"/>
<defs>
  <clipPath id="clip501">
    <rect x="640" y="0" width="2241" height="1200"/>
  </clipPath>
</defs>
<path clip-path="url(#clip500)" d="M271.839 1042.58 L3089.76 1042.58 L3089.76 110.236 L271.839 110.236  Z" fill="#ffffff" fill-rule="evenodd" fill-opacity="1"/>
<defs>
  <clipPath id="clip502">
    <rect x="271" y="110" width="2819" height="933"/>
  </clipPath>
</defs>
<polyline clip-path="url(#clip502)" style="stroke:#000000; stroke-linecap:round; stroke-linejoin:round; stroke-width:2; stroke-opacity:0.1; fill:none" points="525.452,1042.58 525.452,110.236 "/>
<polyline clip-path="url(#clip502)" style="stroke:#000000; stroke-linecap:round; stroke-linejoin:round; stroke-width:2; stroke-opacity:0.1; fill:none" points="1342.65,1042.58 1342.65,110.236 "/>
<polyline clip-path="url(#clip502)" style="stroke:#000000; stroke-linecap:round; stroke-linejoin:round; stroke-width:2; stroke-opacity:0.1; fill:none" points="2216.21,1042.58 2216.21,110.236 "/>
<polyline clip-path="url(#clip502)" style="stroke:#000000; stroke-linecap:round; stroke-linejoin:round; stroke-width:2; stroke-opacity:0.1; fill:none" points="3061.58,1042.58 3061.58,110.236 "/>
<polyline clip-path="url(#clip500)" style="stroke:#000000; stroke-linecap:round; stroke-linejoin:round; stroke-width:4; stroke-opacity:1; fill:none" points="271.839,1042.58 3089.76,1042.58 "/>
<polyline clip-path="url(#clip500)" style="stroke:#000000; stroke-linecap:round; stroke-linejoin:round; stroke-width:4; stroke-opacity:1; fill:none" points="525.452,1042.58 525.452,1023.68 "/>
<polyline clip-path="url(#clip500)" style="stroke:#000000; stroke-linecap:round; stroke-linejoin:round; stroke-width:4; stroke-opacity:1; fill:none" points="1342.65,1042.58 1342.65,1023.68 "/>
<polyline clip-path="url(#clip500)" style="stroke:#000000; stroke-linecap:round; stroke-linejoin:round; stroke-width:4; stroke-opacity:1; fill:none" points="2216.21,1042.58 2216.21,1023.68 "/>
<polyline clip-path="url(#clip500)" style="stroke:#000000; stroke-linecap:round; stroke-linejoin:round; stroke-width:4; stroke-opacity:1; fill:none" points="3061.58,1042.58 3061.58,1023.68 "/>
<path clip-path="url(#clip500)" d="M397.247 1107.44 L413.566 1107.44 L413.566 1111.38 L391.622 1111.38 L391.622 1107.44 Q394.284 1104.69 398.867 1100.06 Q403.474 1095.4 404.654 1094.06 Q406.9 1091.54 407.779 1089.8 Q408.682 1088.04 408.682 1086.35 Q408.682 1083.6 406.738 1081.86 Q404.816 1080.13 401.715 1080.13 Q399.516 1080.13 397.062 1080.89 Q394.631 1081.65 391.854 1083.2 L391.854 1078.48 Q394.678 1077.35 397.131 1076.77 Q399.585 1076.19 401.622 1076.19 Q406.992 1076.19 410.187 1078.88 Q413.381 1081.56 413.381 1086.05 Q413.381 1088.18 412.571 1090.1 Q411.784 1092 409.678 1094.59 Q409.099 1095.26 405.997 1098.48 Q402.895 1101.68 397.247 1107.44 Z" fill="#000000" fill-rule="nonzero" fill-opacity="1" /><path clip-path="url(#clip500)" d="M433.381 1079.89 Q429.77 1079.89 427.941 1083.46 Q426.136 1087 426.136 1094.13 Q426.136 1101.24 427.941 1104.8 Q429.77 1108.34 433.381 1108.34 Q437.015 1108.34 438.821 1104.8 Q440.65 1101.24 440.65 1094.13 Q440.65 1087 438.821 1083.46 Q437.015 1079.89 433.381 1079.89 M433.381 1076.19 Q439.191 1076.19 442.247 1080.8 Q445.326 1085.38 445.326 1094.13 Q445.326 1102.86 442.247 1107.46 Q439.191 1112.05 433.381 1112.05 Q427.571 1112.05 424.492 1107.46 Q421.437 1102.86 421.437 1094.13 Q421.437 1085.38 424.492 1080.8 Q427.571 1076.19 433.381 1076.19 Z" fill="#000000" fill-rule="nonzero" fill-opacity="1" /><path clip-path="url(#clip500)" d="M457.571 1107.44 L473.89 1107.44 L473.89 1111.38 L451.946 1111.38 L451.946 1107.44 Q454.608 1104.69 459.191 1100.06 Q463.798 1095.4 464.978 1094.06 Q467.224 1091.54 468.103 1089.8 Q469.006 1088.04 469.006 1086.35 Q469.006 1083.6 467.062 1081.86 Q465.14 1080.13 462.038 1080.13 Q459.839 1080.13 457.386 1080.89 Q454.955 1081.65 452.177 1083.2 L452.177 1078.48 Q455.001 1077.35 457.455 1076.77 Q459.909 1076.19 461.946 1076.19 Q467.316 1076.19 470.511 1078.88 Q473.705 1081.56 473.705 1086.05 Q473.705 1088.18 472.895 1090.1 Q472.108 1092 470.001 1094.59 Q469.423 1095.26 466.321 1098.48 Q463.219 1101.68 457.571 1107.44 Z" fill="#000000" fill-rule="nonzero" fill-opacity="1" /><path clip-path="url(#clip500)" d="M496.552 1080.89 L484.747 1099.34 L496.552 1099.34 L496.552 1080.89 M495.325 1076.82 L501.205 1076.82 L501.205 1099.34 L506.135 1099.34 L506.135 1103.23 L501.205 1103.23 L501.205 1111.38 L496.552 1111.38 L496.552 1103.23 L480.95 1103.23 L480.95 1098.71 L495.325 1076.82 Z" fill="#000000" fill-rule="nonzero" fill-opacity="1" /><path clip-path="url(#clip500)" d="M511.112 1096.49 L523.589 1096.49 L523.589 1100.29 L511.112 1100.29 L511.112 1096.49 Z" fill="#000000" fill-rule="nonzero" fill-opacity="1" /><path clip-path="url(#clip500)" d="M540.973 1079.89 Q537.362 1079.89 535.533 1083.46 Q533.728 1087 533.728 1094.13 Q533.728 1101.24 535.533 1104.8 Q537.362 1108.34 540.973 1108.34 Q544.607 1108.34 546.413 1104.8 Q548.242 1101.24 548.242 1094.13 Q548.242 1087 546.413 1083.46 Q544.607 1079.89 540.973 1079.89 M540.973 1076.19 Q546.783 1076.19 549.839 1080.8 Q552.918 1085.38 552.918 1094.13 Q552.918 1102.86 549.839 1107.46 Q546.783 1112.05 540.973 1112.05 Q535.163 1112.05 532.084 1107.46 Q529.029 1102.86 529.029 1094.13 Q529.029 1085.38 532.084 1080.8 Q535.163 1076.19 540.973 1076.19 Z" fill="#000000" fill-rule="nonzero" fill-opacity="1" /><path clip-path="url(#clip500)" d="M565.163 1107.44 L581.482 1107.44 L581.482 1111.38 L559.538 1111.38 L559.538 1107.44 Q562.2 1104.69 566.783 1100.06 Q571.39 1095.4 572.57 1094.06 Q574.816 1091.54 575.695 1089.8 Q576.598 1088.04 576.598 1086.35 Q576.598 1083.6 574.654 1081.86 Q572.732 1080.13 569.63 1080.13 Q567.431 1080.13 564.978 1080.89 Q562.547 1081.65 559.769 1083.2 L559.769 1078.48 Q562.593 1077.35 565.047 1076.77 Q567.501 1076.19 569.538 1076.19 Q574.908 1076.19 578.103 1078.88 Q581.297 1081.56 581.297 1086.05 Q581.297 1088.18 580.487 1090.1 Q579.7 1092 577.593 1094.59 Q577.015 1095.26 573.913 1098.48 Q570.811 1101.68 565.163 1107.44 Z" fill="#000000" fill-rule="nonzero" fill-opacity="1" /><path clip-path="url(#clip500)" d="M588.542 1096.49 L601.019 1096.49 L601.019 1100.29 L588.542 1100.29 L588.542 1096.49 Z" fill="#000000" fill-rule="nonzero" fill-opacity="1" /><path clip-path="url(#clip500)" d="M618.403 1079.89 Q614.792 1079.89 612.964 1083.46 Q611.158 1087 611.158 1094.13 Q611.158 1101.24 612.964 1104.8 Q614.792 1108.34 618.403 1108.34 Q622.038 1108.34 623.843 1104.8 Q625.672 1101.24 625.672 1094.13 Q625.672 1087 623.843 1083.46 Q622.038 1079.89 618.403 1079.89 M618.403 1076.19 Q624.213 1076.19 627.269 1080.8 Q630.348 1085.38 630.348 1094.13 Q630.348 1102.86 627.269 1107.46 Q624.213 1112.05 618.403 1112.05 Q612.593 1112.05 609.514 1107.46 Q606.459 1102.86 606.459 1094.13 Q606.459 1085.38 609.514 1080.8 Q612.593 1076.19 618.403 1076.19 Z" fill="#000000" fill-rule="nonzero" fill-opacity="1" /><path clip-path="url(#clip500)" d="M639.375 1107.44 L647.014 1107.44 L647.014 1081.07 L638.704 1082.74 L638.704 1078.48 L646.968 1076.82 L651.644 1076.82 L651.644 1107.44 L659.283 1107.44 L659.283 1111.38 L639.375 1111.38 L639.375 1107.44 Z" fill="#000000" fill-rule="nonzero" fill-opacity="1" /><path clip-path="url(#clip500)" d="M1214.45 1107.44 L1230.76 1107.44 L1230.76 1111.38 L1208.82 1111.38 L1208.82 1107.44 Q1211.48 1104.69 1216.07 1100.06 Q1220.67 1095.4 1221.85 1094.06 Q1224.1 1091.54 1224.98 1089.8 Q1225.88 1088.04 1225.88 1086.35 Q1225.88 1083.6 1223.94 1081.86 Q1222.01 1080.13 1218.91 1080.13 Q1216.71 1080.13 1214.26 1080.89 Q1211.83 1081.65 1209.05 1083.2 L1209.05 1078.48 Q1211.88 1077.35 1214.33 1076.77 Q1216.78 1076.19 1218.82 1076.19 Q1224.19 1076.19 1227.38 1078.88 Q1230.58 1081.56 1230.58 1086.05 Q1230.58 1088.18 1229.77 1090.1 Q1228.98 1092 1226.88 1094.59 Q1226.3 1095.26 1223.2 1098.48 Q1220.09 1101.68 1214.45 1107.44 Z" fill="#000000" fill-rule="nonzero" fill-opacity="1" /><path clip-path="url(#clip500)" d="M1250.58 1079.89 Q1246.97 1079.89 1245.14 1083.46 Q1243.33 1087 1243.33 1094.13 Q1243.33 1101.24 1245.14 1104.8 Q1246.97 1108.34 1250.58 1108.34 Q1254.21 1108.34 1256.02 1104.8 Q1257.85 1101.24 1257.85 1094.13 Q1257.85 1087 1256.02 1083.46 Q1254.21 1079.89 1250.58 1079.89 M1250.58 1076.19 Q1256.39 1076.19 1259.44 1080.8 Q1262.52 1085.38 1262.52 1094.13 Q1262.52 1102.86 1259.44 1107.46 Q1256.39 1112.05 1250.58 1112.05 Q1244.77 1112.05 1241.69 1107.46 Q1238.63 1102.86 1238.63 1094.13 Q1238.63 1085.38 1241.69 1080.8 Q1244.77 1076.19 1250.58 1076.19 Z" fill="#000000" fill-rule="nonzero" fill-opacity="1" /><path clip-path="url(#clip500)" d="M1274.77 1107.44 L1291.09 1107.44 L1291.09 1111.38 L1269.14 1111.38 L1269.14 1107.44 Q1271.81 1104.69 1276.39 1100.06 Q1281 1095.4 1282.18 1094.06 Q1284.42 1091.54 1285.3 1089.8 Q1286.2 1088.04 1286.2 1086.35 Q1286.2 1083.6 1284.26 1081.86 Q1282.34 1080.13 1279.24 1080.13 Q1277.04 1080.13 1274.58 1080.89 Q1272.15 1081.65 1269.38 1083.2 L1269.38 1078.48 Q1272.2 1077.35 1274.65 1076.77 Q1277.11 1076.19 1279.14 1076.19 Q1284.51 1076.19 1287.71 1078.88 Q1290.9 1081.56 1290.9 1086.05 Q1290.9 1088.18 1290.09 1090.1 Q1289.31 1092 1287.2 1094.59 Q1286.62 1095.26 1283.52 1098.48 Q1280.42 1101.68 1274.77 1107.44 Z" fill="#000000" fill-rule="nonzero" fill-opacity="1" /><path clip-path="url(#clip500)" d="M1313.75 1080.89 L1301.94 1099.34 L1313.75 1099.34 L1313.75 1080.89 M1312.52 1076.82 L1318.4 1076.82 L1318.4 1099.34 L1323.33 1099.34 L1323.33 1103.23 L1318.4 1103.23 L1318.4 1111.38 L1313.75 1111.38 L1313.75 1103.23 L1298.15 1103.23 L1298.15 1098.71 L1312.52 1076.82 Z" fill="#000000" fill-rule="nonzero" fill-opacity="1" /><path clip-path="url(#clip500)" d="M1328.31 1096.49 L1340.79 1096.49 L1340.79 1100.29 L1328.31 1100.29 L1328.31 1096.49 Z" fill="#000000" fill-rule="nonzero" fill-opacity="1" /><path clip-path="url(#clip500)" d="M1358.17 1079.89 Q1354.56 1079.89 1352.73 1083.46 Q1350.93 1087 1350.93 1094.13 Q1350.93 1101.24 1352.73 1104.8 Q1354.56 1108.34 1358.17 1108.34 Q1361.81 1108.34 1363.61 1104.8 Q1365.44 1101.24 1365.44 1094.13 Q1365.44 1087 1363.61 1083.46 Q1361.81 1079.89 1358.17 1079.89 M1358.17 1076.19 Q1363.98 1076.19 1367.04 1080.8 Q1370.12 1085.38 1370.12 1094.13 Q1370.12 1102.86 1367.04 1107.46 Q1363.98 1112.05 1358.17 1112.05 Q1352.36 1112.05 1349.28 1107.46 Q1346.23 1102.86 1346.23 1094.13 Q1346.23 1085.38 1349.28 1080.8 Q1352.36 1076.19 1358.17 1076.19 Z" fill="#000000" fill-rule="nonzero" fill-opacity="1" /><path clip-path="url(#clip500)" d="M1392.5 1092.74 Q1395.86 1093.46 1397.73 1095.73 Q1399.63 1098 1399.63 1101.33 Q1399.63 1106.45 1396.11 1109.25 Q1392.59 1112.05 1386.11 1112.05 Q1383.94 1112.05 1381.62 1111.61 Q1379.33 1111.19 1376.87 1110.33 L1376.87 1105.82 Q1378.82 1106.95 1381.13 1107.53 Q1383.45 1108.11 1385.97 1108.11 Q1390.37 1108.11 1392.66 1106.38 Q1394.98 1104.64 1394.98 1101.33 Q1394.98 1098.27 1392.82 1096.56 Q1390.69 1094.82 1386.87 1094.82 L1382.85 1094.82 L1382.85 1090.98 L1387.06 1090.98 Q1390.51 1090.98 1392.34 1089.62 Q1394.17 1088.23 1394.17 1085.64 Q1394.17 1082.97 1392.27 1081.56 Q1390.39 1080.13 1386.87 1080.13 Q1384.95 1080.13 1382.75 1080.54 Q1380.56 1080.96 1377.92 1081.84 L1377.92 1077.67 Q1380.58 1076.93 1382.89 1076.56 Q1385.23 1076.19 1387.29 1076.19 Q1392.62 1076.19 1395.72 1078.62 Q1398.82 1081.03 1398.82 1085.15 Q1398.82 1088.02 1397.18 1090.01 Q1395.53 1091.98 1392.5 1092.74 Z" fill="#000000" fill-rule="nonzero" fill-opacity="1" /><path clip-path="url(#clip500)" d="M1405.74 1096.49 L1418.22 1096.49 L1418.22 1100.29 L1405.74 1100.29 L1405.74 1096.49 Z" fill="#000000" fill-rule="nonzero" fill-opacity="1" /><path clip-path="url(#clip500)" d="M1435.6 1079.89 Q1431.99 1079.89 1430.16 1083.46 Q1428.36 1087 1428.36 1094.13 Q1428.36 1101.24 1430.16 1104.8 Q1431.99 1108.34 1435.6 1108.34 Q1439.24 1108.34 1441.04 1104.8 Q1442.87 1101.24 1442.87 1094.13 Q1442.87 1087 1441.04 1083.46 Q1439.24 1079.89 1435.6 1079.89 M1435.6 1076.19 Q1441.41 1076.19 1444.47 1080.8 Q1447.55 1085.38 1447.55 1094.13 Q1447.55 1102.86 1444.47 1107.46 Q1441.41 1112.05 1435.6 1112.05 Q1429.79 1112.05 1426.71 1107.46 Q1423.66 1102.86 1423.66 1094.13 Q1423.66 1085.38 1426.71 1080.8 Q1429.79 1076.19 1435.6 1076.19 Z" fill="#000000" fill-rule="nonzero" fill-opacity="1" /><path clip-path="url(#clip500)" d="M1456.57 1107.44 L1464.21 1107.44 L1464.21 1081.07 L1455.9 1082.74 L1455.9 1078.48 L1464.17 1076.82 L1468.84 1076.82 L1468.84 1107.44 L1476.48 1107.44 L1476.48 1111.38 L1456.57 1111.38 L1456.57 1107.44 Z" fill="#000000" fill-rule="nonzero" fill-opacity="1" /><path clip-path="url(#clip500)" d="M2088 1107.44 L2104.32 1107.44 L2104.32 1111.38 L2082.38 1111.38 L2082.38 1107.44 Q2085.04 1104.69 2089.62 1100.06 Q2094.23 1095.4 2095.41 1094.06 Q2097.65 1091.54 2098.53 1089.8 Q2099.44 1088.04 2099.44 1086.35 Q2099.44 1083.6 2097.49 1081.86 Q2095.57 1080.13 2092.47 1080.13 Q2090.27 1080.13 2087.82 1080.89 Q2085.39 1081.65 2082.61 1083.2 L2082.61 1078.48 Q2085.43 1077.35 2087.89 1076.77 Q2090.34 1076.19 2092.38 1076.19 Q2097.75 1076.19 2100.94 1078.88 Q2104.14 1081.56 2104.14 1086.05 Q2104.14 1088.18 2103.33 1090.1 Q2102.54 1092 2100.43 1094.59 Q2099.85 1095.26 2096.75 1098.48 Q2093.65 1101.68 2088 1107.44 Z" fill="#000000" fill-rule="nonzero" fill-opacity="1" /><path clip-path="url(#clip500)" d="M2124.14 1079.89 Q2120.52 1079.89 2118.7 1083.46 Q2116.89 1087 2116.89 1094.13 Q2116.89 1101.24 2118.7 1104.8 Q2120.52 1108.34 2124.14 1108.34 Q2127.77 1108.34 2129.58 1104.8 Q2131.4 1101.24 2131.4 1094.13 Q2131.4 1087 2129.58 1083.46 Q2127.77 1079.89 2124.14 1079.89 M2124.14 1076.19 Q2129.95 1076.19 2133 1080.8 Q2136.08 1085.38 2136.08 1094.13 Q2136.08 1102.86 2133 1107.46 Q2129.95 1112.05 2124.14 1112.05 Q2118.33 1112.05 2115.25 1107.46 Q2112.19 1102.86 2112.19 1094.13 Q2112.19 1085.38 2115.25 1080.8 Q2118.33 1076.19 2124.14 1076.19 Z" fill="#000000" fill-rule="nonzero" fill-opacity="1" /><path clip-path="url(#clip500)" d="M2148.33 1107.44 L2164.64 1107.44 L2164.64 1111.38 L2142.7 1111.38 L2142.7 1107.44 Q2145.36 1104.69 2149.95 1100.06 Q2154.55 1095.4 2155.73 1094.06 Q2157.98 1091.54 2158.86 1089.8 Q2159.76 1088.04 2159.76 1086.35 Q2159.76 1083.6 2157.82 1081.86 Q2155.89 1080.13 2152.79 1080.13 Q2150.59 1080.13 2148.14 1080.89 Q2145.71 1081.65 2142.93 1083.2 L2142.93 1078.48 Q2145.76 1077.35 2148.21 1076.77 Q2150.66 1076.19 2152.7 1076.19 Q2158.07 1076.19 2161.27 1078.88 Q2164.46 1081.56 2164.46 1086.05 Q2164.46 1088.18 2163.65 1090.1 Q2162.86 1092 2160.76 1094.59 Q2160.18 1095.26 2157.08 1098.48 Q2153.97 1101.68 2148.33 1107.44 Z" fill="#000000" fill-rule="nonzero" fill-opacity="1" /><path clip-path="url(#clip500)" d="M2187.31 1080.89 L2175.5 1099.34 L2187.31 1099.34 L2187.31 1080.89 M2186.08 1076.82 L2191.96 1076.82 L2191.96 1099.34 L2196.89 1099.34 L2196.89 1103.23 L2191.96 1103.23 L2191.96 1111.38 L2187.31 1111.38 L2187.31 1103.23 L2171.71 1103.23 L2171.71 1098.71 L2186.08 1076.82 Z" fill="#000000" fill-rule="nonzero" fill-opacity="1" /><path clip-path="url(#clip500)" d="M2201.87 1096.49 L2214.34 1096.49 L2214.34 1100.29 L2201.87 1100.29 L2201.87 1096.49 Z" fill="#000000" fill-rule="nonzero" fill-opacity="1" /><path clip-path="url(#clip500)" d="M2231.73 1079.89 Q2228.12 1079.89 2226.29 1083.46 Q2224.48 1087 2224.48 1094.13 Q2224.48 1101.24 2226.29 1104.8 Q2228.12 1108.34 2231.73 1108.34 Q2235.36 1108.34 2237.17 1104.8 Q2239 1101.24 2239 1094.13 Q2239 1087 2237.17 1083.46 Q2235.36 1079.89 2231.73 1079.89 M2231.73 1076.19 Q2237.54 1076.19 2240.59 1080.8 Q2243.67 1085.38 2243.67 1094.13 Q2243.67 1102.86 2240.59 1107.46 Q2237.54 1112.05 2231.73 1112.05 Q2225.92 1112.05 2222.84 1107.46 Q2219.78 1102.86 2219.78 1094.13 Q2219.78 1085.38 2222.84 1080.8 Q2225.92 1076.19 2231.73 1076.19 Z" fill="#000000" fill-rule="nonzero" fill-opacity="1" /><path clip-path="url(#clip500)" d="M2264.74 1080.89 L2252.93 1099.34 L2264.74 1099.34 L2264.74 1080.89 M2263.51 1076.82 L2269.39 1076.82 L2269.39 1099.34 L2274.32 1099.34 L2274.32 1103.23 L2269.39 1103.23 L2269.39 1111.38 L2264.74 1111.38 L2264.74 1103.23 L2249.14 1103.23 L2249.14 1098.71 L2263.51 1076.82 Z" fill="#000000" fill-rule="nonzero" fill-opacity="1" /><path clip-path="url(#clip500)" d="M2279.3 1096.49 L2291.77 1096.49 L2291.77 1100.29 L2279.3 1100.29 L2279.3 1096.49 Z" fill="#000000" fill-rule="nonzero" fill-opacity="1" /><path clip-path="url(#clip500)" d="M2309.16 1079.89 Q2305.55 1079.89 2303.72 1083.46 Q2301.91 1087 2301.91 1094.13 Q2301.91 1101.24 2303.72 1104.8 Q2305.55 1108.34 2309.16 1108.34 Q2312.79 1108.34 2314.6 1104.8 Q2316.43 1101.24 2316.43 1094.13 Q2316.43 1087 2314.6 1083.46 Q2312.79 1079.89 2309.16 1079.89 M2309.16 1076.19 Q2314.97 1076.19 2318.02 1080.8 Q2321.1 1085.38 2321.1 1094.13 Q2321.1 1102.86 2318.02 1107.46 Q2314.97 1112.05 2309.16 1112.05 Q2303.35 1112.05 2300.27 1107.46 Q2297.21 1102.86 2297.21 1094.13 Q2297.21 1085.38 2300.27 1080.8 Q2303.35 1076.19 2309.16 1076.19 Z" fill="#000000" fill-rule="nonzero" fill-opacity="1" /><path clip-path="url(#clip500)" d="M2330.13 1107.44 L2337.77 1107.44 L2337.77 1081.07 L2329.46 1082.74 L2329.46 1078.48 L2337.72 1076.82 L2342.4 1076.82 L2342.4 1107.44 L2350.04 1107.44 L2350.04 1111.38 L2330.13 1111.38 L2330.13 1107.44 Z" fill="#000000" fill-rule="nonzero" fill-opacity="1" /><path clip-path="url(#clip500)" d="M2933.38 1107.44 L2949.7 1107.44 L2949.7 1111.38 L2927.75 1111.38 L2927.75 1107.44 Q2930.42 1104.69 2935 1100.06 Q2939.61 1095.4 2940.79 1094.06 Q2943.03 1091.54 2943.91 1089.8 Q2944.81 1088.04 2944.81 1086.35 Q2944.81 1083.6 2942.87 1081.86 Q2940.95 1080.13 2937.85 1080.13 Q2935.65 1080.13 2933.19 1080.89 Q2930.76 1081.65 2927.99 1083.2 L2927.99 1078.48 Q2930.81 1077.35 2933.26 1076.77 Q2935.72 1076.19 2937.75 1076.19 Q2943.12 1076.19 2946.32 1078.88 Q2949.51 1081.56 2949.51 1086.05 Q2949.51 1088.18 2948.7 1090.1 Q2947.92 1092 2945.81 1094.59 Q2945.23 1095.26 2942.13 1098.48 Q2939.03 1101.68 2933.38 1107.44 Z" fill="#000000" fill-rule="nonzero" fill-opacity="1" /><path clip-path="url(#clip500)" d="M2969.51 1079.89 Q2965.9 1079.89 2964.07 1083.46 Q2962.27 1087 2962.27 1094.13 Q2962.27 1101.24 2964.07 1104.8 Q2965.9 1108.34 2969.51 1108.34 Q2973.15 1108.34 2974.95 1104.8 Q2976.78 1101.24 2976.78 1094.13 Q2976.78 1087 2974.95 1083.46 Q2973.15 1079.89 2969.51 1079.89 M2969.51 1076.19 Q2975.32 1076.19 2978.38 1080.8 Q2981.46 1085.38 2981.46 1094.13 Q2981.46 1102.86 2978.38 1107.46 Q2975.32 1112.05 2969.51 1112.05 Q2963.7 1112.05 2960.62 1107.46 Q2957.57 1102.86 2957.57 1094.13 Q2957.57 1085.38 2960.62 1080.8 Q2963.7 1076.19 2969.51 1076.19 Z" fill="#000000" fill-rule="nonzero" fill-opacity="1" /><path clip-path="url(#clip500)" d="M2993.7 1107.44 L3010.02 1107.44 L3010.02 1111.38 L2988.08 1111.38 L2988.08 1107.44 Q2990.74 1104.69 2995.32 1100.06 Q2999.93 1095.4 3001.11 1094.06 Q3003.36 1091.54 3004.24 1089.8 Q3005.14 1088.04 3005.14 1086.35 Q3005.14 1083.6 3003.19 1081.86 Q3001.27 1080.13 2998.17 1080.13 Q2995.97 1080.13 2993.52 1080.89 Q2991.09 1081.65 2988.31 1083.2 L2988.31 1078.48 Q2991.13 1077.35 2993.59 1076.77 Q2996.04 1076.19 2998.08 1076.19 Q3003.45 1076.19 3006.64 1078.88 Q3009.84 1081.56 3009.84 1086.05 Q3009.84 1088.18 3009.03 1090.1 Q3008.24 1092 3006.13 1094.59 Q3005.55 1095.26 3002.45 1098.48 Q2999.35 1101.68 2993.7 1107.44 Z" fill="#000000" fill-rule="nonzero" fill-opacity="1" /><path clip-path="url(#clip500)" d="M3032.68 1080.89 L3020.88 1099.34 L3032.68 1099.34 L3032.68 1080.89 M3031.46 1076.82 L3037.34 1076.82 L3037.34 1099.34 L3042.27 1099.34 L3042.27 1103.23 L3037.34 1103.23 L3037.34 1111.38 L3032.68 1111.38 L3032.68 1103.23 L3017.08 1103.23 L3017.08 1098.71 L3031.46 1076.82 Z" fill="#000000" fill-rule="nonzero" fill-opacity="1" /><path clip-path="url(#clip500)" d="M3047.24 1096.49 L3059.72 1096.49 L3059.72 1100.29 L3047.24 1100.29 L3047.24 1096.49 Z" fill="#000000" fill-rule="nonzero" fill-opacity="1" /><path clip-path="url(#clip500)" d="M3077.11 1079.89 Q3073.49 1079.89 3071.67 1083.46 Q3069.86 1087 3069.86 1094.13 Q3069.86 1101.24 3071.67 1104.8 Q3073.49 1108.34 3077.11 1108.34 Q3080.74 1108.34 3082.55 1104.8 Q3084.37 1101.24 3084.37 1094.13 Q3084.37 1087 3082.55 1083.46 Q3080.74 1079.89 3077.11 1079.89 M3077.11 1076.19 Q3082.92 1076.19 3085.97 1080.8 Q3089.05 1085.38 3089.05 1094.13 Q3089.05 1102.86 3085.97 1107.46 Q3082.92 1112.05 3077.11 1112.05 Q3071.3 1112.05 3068.22 1107.46 Q3065.16 1102.86 3065.16 1094.13 Q3065.16 1085.38 3068.22 1080.8 Q3071.3 1076.19 3077.11 1076.19 Z" fill="#000000" fill-rule="nonzero" fill-opacity="1" /><path clip-path="url(#clip500)" d="M3097.31 1076.82 L3115.67 1076.82 L3115.67 1080.75 L3101.6 1080.75 L3101.6 1089.22 Q3102.61 1088.88 3103.63 1088.71 Q3104.65 1088.53 3105.67 1088.53 Q3111.46 1088.53 3114.84 1091.7 Q3118.22 1094.87 3118.22 1100.29 Q3118.22 1105.87 3114.74 1108.97 Q3111.27 1112.05 3104.95 1112.05 Q3102.78 1112.05 3100.51 1111.68 Q3098.26 1111.31 3095.86 1110.57 L3095.86 1105.87 Q3097.94 1107 3100.16 1107.56 Q3102.38 1108.11 3104.86 1108.11 Q3108.86 1108.11 3111.2 1106.01 Q3113.54 1103.9 3113.54 1100.29 Q3113.54 1096.68 3111.2 1094.57 Q3108.86 1092.46 3104.86 1092.46 Q3102.98 1092.46 3101.11 1092.88 Q3099.26 1093.3 3097.31 1094.18 L3097.31 1076.82 Z" fill="#000000" fill-rule="nonzero" fill-opacity="1" /><path clip-path="url(#clip500)" d="M3124.67 1096.49 L3137.15 1096.49 L3137.15 1100.29 L3124.67 1100.29 L3124.67 1096.49 Z" fill="#000000" fill-rule="nonzero" fill-opacity="1" /><path clip-path="url(#clip500)" d="M3154.54 1079.89 Q3150.92 1079.89 3149.1 1083.46 Q3147.29 1087 3147.29 1094.13 Q3147.29 1101.24 3149.1 1104.8 Q3150.92 1108.34 3154.54 1108.34 Q3158.17 1108.34 3159.98 1104.8 Q3161.8 1101.24 3161.8 1094.13 Q3161.8 1087 3159.98 1083.46 Q3158.17 1079.89 3154.54 1079.89 M3154.54 1076.19 Q3160.35 1076.19 3163.4 1080.8 Q3166.48 1085.38 3166.48 1094.13 Q3166.48 1102.86 3163.4 1107.46 Q3160.35 1112.05 3154.54 1112.05 Q3148.73 1112.05 3145.65 1107.46 Q3142.59 1102.86 3142.59 1094.13 Q3142.59 1085.38 3145.65 1080.8 Q3148.73 1076.19 3154.54 1076.19 Z" fill="#000000" fill-rule="nonzero" fill-opacity="1" /><path clip-path="url(#clip500)" d="M3175.51 1107.44 L3183.15 1107.44 L3183.15 1081.07 L3174.84 1082.74 L3174.84 1078.48 L3183.1 1076.82 L3187.78 1076.82 L3187.78 1107.44 L3195.41 1107.44 L3195.41 1111.38 L3175.51 1111.38 L3175.51 1107.44 Z" fill="#000000" fill-rule="nonzero" fill-opacity="1" /><polyline clip-path="url(#clip502)" style="stroke:#000000; stroke-linecap:round; stroke-linejoin:round; stroke-width:2; stroke-opacity:0.1; fill:none" points="271.839,1042.58 3089.76,1042.58 "/>
<polyline clip-path="url(#clip502)" style="stroke:#000000; stroke-linecap:round; stroke-linejoin:round; stroke-width:2; stroke-opacity:0.1; fill:none" points="271.839,618.526 3089.76,618.526 "/>
<polyline clip-path="url(#clip502)" style="stroke:#000000; stroke-linecap:round; stroke-linejoin:round; stroke-width:2; stroke-opacity:0.1; fill:none" points="271.839,194.477 3089.76,194.477 "/>
<polyline clip-path="url(#clip500)" style="stroke:#000000; stroke-linecap:round; stroke-linejoin:round; stroke-width:4; stroke-opacity:1; fill:none" points="271.839,1042.58 271.839,110.236 "/>
<polyline clip-path="url(#clip500)" style="stroke:#000000; stroke-linecap:round; stroke-linejoin:round; stroke-width:4; stroke-opacity:1; fill:none" points="271.839,1042.58 290.737,1042.58 "/>
<polyline clip-path="url(#clip500)" style="stroke:#000000; stroke-linecap:round; stroke-linejoin:round; stroke-width:4; stroke-opacity:1; fill:none" points="271.839,618.526 290.737,618.526 "/>
<polyline clip-path="url(#clip500)" style="stroke:#000000; stroke-linecap:round; stroke-linejoin:round; stroke-width:4; stroke-opacity:1; fill:none" points="271.839,194.477 290.737,194.477 "/>
<path clip-path="url(#clip500)" d="M153.134 1062.37 L160.772 1062.37 L160.772 1036 L152.462 1037.67 L152.462 1033.41 L160.726 1031.74 L165.402 1031.74 L165.402 1062.37 L173.041 1062.37 L173.041 1066.3 L153.134 1066.3 L153.134 1062.37 Z" fill="#000000" fill-rule="nonzero" fill-opacity="1" /><path clip-path="url(#clip500)" d="M192.485 1034.82 Q188.874 1034.82 187.045 1038.39 Q185.24 1041.93 185.24 1049.06 Q185.24 1056.16 187.045 1059.73 Q188.874 1063.27 192.485 1063.27 Q196.119 1063.27 197.925 1059.73 Q199.754 1056.16 199.754 1049.06 Q199.754 1041.93 197.925 1038.39 Q196.119 1034.82 192.485 1034.82 M192.485 1031.12 Q198.295 1031.12 201.351 1035.72 Q204.43 1040.31 204.43 1049.06 Q204.43 1057.78 201.351 1062.39 Q198.295 1066.97 192.485 1066.97 Q186.675 1066.97 183.596 1062.39 Q180.541 1057.78 180.541 1049.06 Q180.541 1040.31 183.596 1035.72 Q186.675 1031.12 192.485 1031.12 Z" fill="#000000" fill-rule="nonzero" fill-opacity="1" /><path clip-path="url(#clip500)" d="M214.134 1013.31 Q211.2 1013.31 209.715 1016.21 Q208.248 1019.09 208.248 1024.88 Q208.248 1030.66 209.715 1033.55 Q211.2 1036.43 214.134 1036.43 Q217.087 1036.43 218.554 1033.55 Q220.04 1030.66 220.04 1024.88 Q220.04 1019.09 218.554 1016.21 Q217.087 1013.31 214.134 1013.31 M214.134 1010.31 Q218.855 1010.31 221.338 1014.05 Q223.839 1017.77 223.839 1024.88 Q223.839 1031.97 221.338 1035.71 Q218.855 1039.44 214.134 1039.44 Q209.414 1039.44 206.912 1035.71 Q204.43 1031.97 204.43 1024.88 Q204.43 1017.77 206.912 1014.05 Q209.414 1010.31 214.134 1010.31 Z" fill="#000000" fill-rule="nonzero" fill-opacity="1" /><path clip-path="url(#clip500)" d="M155.823 638.319 L163.462 638.319 L163.462 611.953 L155.152 613.62 L155.152 609.36 L163.416 607.694 L168.092 607.694 L168.092 638.319 L175.73 638.319 L175.73 642.254 L155.823 642.254 L155.823 638.319 Z" fill="#000000" fill-rule="nonzero" fill-opacity="1" /><path clip-path="url(#clip500)" d="M195.175 610.772 Q191.564 610.772 189.735 614.337 Q187.929 617.879 187.929 625.009 Q187.929 632.115 189.735 635.68 Q191.564 639.221 195.175 639.221 Q198.809 639.221 200.615 635.68 Q202.443 632.115 202.443 625.009 Q202.443 617.879 200.615 614.337 Q198.809 610.772 195.175 610.772 M195.175 607.069 Q200.985 607.069 204.04 611.675 Q207.119 616.259 207.119 625.009 Q207.119 633.735 204.04 638.342 Q200.985 642.925 195.175 642.925 Q189.365 642.925 186.286 638.342 Q183.23 633.735 183.23 625.009 Q183.23 616.259 186.286 611.675 Q189.365 607.069 195.175 607.069 Z" fill="#000000" fill-rule="nonzero" fill-opacity="1" /><path clip-path="url(#clip500)" d="M207.665 611.646 L213.871 611.646 L213.871 590.224 L207.119 591.578 L207.119 588.118 L213.833 586.763 L217.633 586.763 L217.633 611.646 L223.839 611.646 L223.839 614.843 L207.665 614.843 L207.665 611.646 Z" fill="#000000" fill-rule="nonzero" fill-opacity="1" /><path clip-path="url(#clip500)" d="M154.713 214.269 L162.352 214.269 L162.352 187.904 L154.042 189.57 L154.042 185.311 L162.306 183.644 L166.982 183.644 L166.982 214.269 L174.621 214.269 L174.621 218.204 L154.713 218.204 L154.713 214.269 Z" fill="#000000" fill-rule="nonzero" fill-opacity="1" /><path clip-path="url(#clip500)" d="M194.065 186.723 Q190.454 186.723 188.625 190.288 Q186.82 193.829 186.82 200.959 Q186.82 208.065 188.625 211.63 Q190.454 215.172 194.065 215.172 Q197.699 215.172 199.505 211.63 Q201.334 208.065 201.334 200.959 Q201.334 193.829 199.505 190.288 Q197.699 186.723 194.065 186.723 M194.065 183.019 Q199.875 183.019 202.931 187.626 Q206.009 192.209 206.009 200.959 Q206.009 209.686 202.931 214.292 Q199.875 218.876 194.065 218.876 Q188.255 218.876 185.176 214.292 Q182.121 209.686 182.121 200.959 Q182.121 192.209 185.176 187.626 Q188.255 183.019 194.065 183.019 Z" fill="#000000" fill-rule="nonzero" fill-opacity="1" /><path clip-path="url(#clip500)" d="M210.58 187.597 L223.839 187.597 L223.839 190.794 L206.009 190.794 L206.009 187.597 Q208.172 185.358 211.896 181.597 Q215.639 177.817 216.598 176.726 Q218.423 174.676 219.137 173.265 Q219.871 171.836 219.871 170.463 Q219.871 168.225 218.291 166.814 Q216.73 165.403 214.21 165.403 Q212.423 165.403 210.429 166.024 Q208.454 166.645 206.198 167.905 L206.198 164.068 Q208.492 163.146 210.486 162.676 Q212.479 162.206 214.134 162.206 Q218.498 162.206 221.093 164.388 Q223.689 166.569 223.689 170.218 Q223.689 171.948 223.03 173.51 Q222.391 175.052 220.68 177.158 Q220.209 177.704 217.689 180.318 Q215.169 182.913 210.58 187.597 Z" fill="#000000" fill-rule="nonzero" fill-opacity="1" /><path clip-path="url(#clip500)" d="M83.4268 910.828 L70.6636 910.828 L70.6636 921.332 L65.38 921.332 L65.38 904.463 L85.7821 904.463 Q88.4239 908.187 89.7925 912.674 Q91.1293 917.162 91.1293 922.255 Q91.1293 933.395 84.6363 939.697 Q78.1114 945.967 66.494 945.967 Q54.8448 945.967 48.3518 939.697 Q41.8269 933.395 41.8269 922.255 Q41.8269 917.608 42.9727 913.438 Q44.1186 909.237 46.3466 905.704 L53.1897 905.704 Q50.166 909.269 48.6382 913.279 Q47.1104 917.29 47.1104 921.714 Q47.1104 930.435 51.9802 934.827 Q56.85 939.188 66.494 939.188 Q76.1062 939.188 80.976 934.827 Q85.8458 930.435 85.8458 921.714 Q85.8458 918.308 85.2729 915.634 Q84.6681 912.961 83.4268 910.828 Z" fill="#000000" fill-rule="nonzero" fill-opacity="1" /><path clip-path="url(#clip500)" d="M70.9182 862.481 L73.7828 862.481 L73.7828 889.408 Q79.8302 889.026 83.013 885.779 Q86.1641 882.501 86.1641 876.676 Q86.1641 873.303 85.3365 870.152 Q84.509 866.969 82.8539 863.849 L88.3921 863.849 Q89.7289 867 90.4291 870.311 Q91.1293 873.621 91.1293 877.026 Q91.1293 885.557 86.1641 890.554 Q81.1988 895.519 72.7324 895.519 Q63.9796 895.519 58.8552 890.808 Q53.699 886.066 53.699 878.045 Q53.699 870.852 58.3459 866.682 Q62.9611 862.481 70.9182 862.481 M69.1995 868.337 Q64.3933 868.401 61.5288 871.043 Q58.6642 873.653 58.6642 877.981 Q58.6642 882.883 61.4333 885.843 Q64.2024 888.771 69.2313 889.217 L69.1995 868.337 Z" fill="#000000" fill-rule="nonzero" fill-opacity="1" /><path clip-path="url(#clip500)" d="M68.6902 823.236 L90.2063 823.236 L90.2063 829.093 L68.8812 829.093 Q63.8204 829.093 61.306 831.066 Q58.7915 833.039 58.7915 836.986 Q58.7915 841.729 61.8152 844.466 Q64.8389 847.203 70.0588 847.203 L90.2063 847.203 L90.2063 853.091 L54.5583 853.091 L54.5583 847.203 L60.0965 847.203 Q56.8818 845.102 55.2904 842.27 Q53.699 839.405 53.699 835.681 Q53.699 829.538 57.5184 826.387 Q61.306 823.236 68.6902 823.236 Z" fill="#000000" fill-rule="nonzero" fill-opacity="1" /><path clip-path="url(#clip500)" d="M58.6642 797.742 Q58.6642 802.452 62.3563 805.189 Q66.0166 807.927 72.4141 807.927 Q78.8117 807.927 82.5038 805.221 Q86.1641 802.484 86.1641 797.742 Q86.1641 793.063 82.4719 790.326 Q78.7798 787.588 72.4141 787.588 Q66.0803 787.588 62.3881 790.326 Q58.6642 793.063 58.6642 797.742 M53.699 797.742 Q53.699 790.103 58.6642 785.742 Q63.6295 781.382 72.4141 781.382 Q81.167 781.382 86.1641 785.742 Q91.1293 790.103 91.1293 797.742 Q91.1293 805.412 86.1641 809.773 Q81.167 814.101 72.4141 814.101 Q63.6295 814.101 58.6642 809.773 Q53.699 805.412 53.699 797.742 Z" fill="#000000" fill-rule="nonzero" fill-opacity="1" /><path clip-path="url(#clip500)" d="M61.4015 743.92 Q57.4547 741.723 55.5768 738.668 Q53.699 735.612 53.699 731.475 Q53.699 725.905 57.6139 722.881 Q61.4969 719.857 68.6902 719.857 L90.2063 719.857 L90.2063 725.745 L68.8812 725.745 Q63.7568 725.745 61.2741 727.56 Q58.7915 729.374 58.7915 733.098 Q58.7915 737.649 61.8152 740.291 Q64.8389 742.933 70.0588 742.933 L90.2063 742.933 L90.2063 748.821 L68.8812 748.821 Q63.7249 748.821 61.2741 750.635 Q58.7915 752.45 58.7915 756.237 Q58.7915 760.725 61.8471 763.367 Q64.8708 766.009 70.0588 766.009 L90.2063 766.009 L90.2063 771.897 L54.5583 771.897 L54.5583 766.009 L60.0965 766.009 Q56.8182 764.003 55.2586 761.202 Q53.699 758.402 53.699 754.55 Q53.699 750.667 55.6723 747.962 Q57.6457 745.225 61.4015 743.92 Z" fill="#000000" fill-rule="nonzero" fill-opacity="1" /><path clip-path="url(#clip500)" d="M70.9182 677.684 L73.7828 677.684 L73.7828 704.611 Q79.8302 704.229 83.013 700.983 Q86.1641 697.705 86.1641 691.88 Q86.1641 688.506 85.3365 685.355 Q84.509 682.172 82.8539 679.053 L88.3921 679.053 Q89.7289 682.204 90.4291 685.514 Q91.1293 688.824 91.1293 692.23 Q91.1293 700.76 86.1641 705.757 Q81.1988 710.722 72.7324 710.722 Q63.9796 710.722 58.8552 706.012 Q53.699 701.269 53.699 693.249 Q53.699 686.055 58.3459 681.886 Q62.9611 677.684 70.9182 677.684 M69.1995 683.541 Q64.3933 683.604 61.5288 686.246 Q58.6642 688.856 58.6642 693.185 Q58.6642 698.086 61.4333 701.047 Q64.2024 703.975 69.2313 704.42 L69.1995 683.541 Z" fill="#000000" fill-rule="nonzero" fill-opacity="1" /><path clip-path="url(#clip500)" d="M55.6087 645.347 L61.1468 645.347 Q59.8737 647.829 59.2371 650.503 Q58.6006 653.176 58.6006 656.041 Q58.6006 660.401 59.9373 662.598 Q61.2741 664.762 63.9477 664.762 Q65.9848 664.762 67.1624 663.202 Q68.3083 661.643 69.3586 656.932 L69.8042 654.927 Q71.141 648.689 73.5918 646.079 Q76.0108 643.437 80.3713 643.437 Q85.3365 643.437 88.2329 647.384 Q91.1293 651.299 91.1293 658.173 Q91.1293 661.038 90.5564 664.157 Q90.0153 667.245 88.9013 670.682 L82.8539 670.682 Q84.5408 667.436 85.4002 664.285 Q86.2277 661.134 86.2277 658.046 Q86.2277 653.908 84.8273 651.68 Q83.395 649.452 80.8169 649.452 Q78.4297 649.452 77.1566 651.076 Q75.8834 652.667 74.7058 658.11 L74.2284 660.147 Q73.0825 665.59 70.7272 668.009 Q68.3401 670.427 64.2024 670.427 Q59.1735 670.427 56.4362 666.863 Q53.699 663.298 53.699 656.741 Q53.699 653.495 54.1764 650.63 Q54.6538 647.766 55.6087 645.347 Z" fill="#000000" fill-rule="nonzero" fill-opacity="1" /><path clip-path="url(#clip500)" d="M42.6863 623.703 L42.6863 618.292 L96.2537 634.843 L96.2537 640.254 L42.6863 623.703 Z" fill="#000000" fill-rule="nonzero" fill-opacity="1" /><path clip-path="url(#clip500)" d="M47.9698 605.465 L84.9227 605.465 L84.9227 597.699 Q84.9227 587.864 80.4668 583.313 Q76.0108 578.729 66.3985 578.729 Q56.85 578.729 52.4258 583.313 Q47.9698 587.864 47.9698 597.699 L47.9698 605.465 M42.6863 611.895 L42.6863 598.686 Q42.6863 584.872 48.4472 578.411 Q54.1764 571.95 66.3985 571.95 Q78.6844 571.95 84.4453 578.443 Q90.2063 584.936 90.2063 598.686 L90.2063 611.895 L42.6863 611.895 Z" fill="#000000" fill-rule="nonzero" fill-opacity="1" /><path clip-path="url(#clip500)" d="M72.2868 545.755 Q72.2868 552.853 73.9101 555.59 Q75.5333 558.327 79.4482 558.327 Q82.5674 558.327 84.4135 556.29 Q86.2277 554.221 86.2277 550.689 Q86.2277 545.819 82.7902 542.891 Q79.3209 539.93 73.5918 539.93 L72.2868 539.93 L72.2868 545.755 M69.8679 534.074 L90.2063 534.074 L90.2063 539.93 L84.7954 539.93 Q88.0419 541.936 89.6015 544.928 Q91.1293 547.919 91.1293 552.248 Q91.1293 557.723 88.0738 560.969 Q84.9864 564.184 79.8302 564.184 Q73.8146 564.184 70.759 560.173 Q67.7035 556.131 67.7035 548.142 L67.7035 539.93 L67.1306 539.93 Q63.0884 539.93 60.8922 542.604 Q58.6642 545.246 58.6642 550.052 Q58.6642 553.107 59.3963 556.004 Q60.1283 558.9 61.5924 561.574 L56.1816 561.574 Q54.9403 558.359 54.3355 555.335 Q53.699 552.312 53.699 549.447 Q53.699 541.713 57.7094 537.893 Q61.7197 534.074 69.8679 534.074 Z" fill="#000000" fill-rule="nonzero" fill-opacity="1" /><path clip-path="url(#clip500)" d="M93.5165 507.179 Q99.8822 509.662 101.824 512.017 Q103.765 514.372 103.765 518.319 L103.765 522.998 L98.8636 522.998 L98.8636 519.56 Q98.8636 517.141 97.7178 515.804 Q96.572 514.468 92.307 512.844 L89.6334 511.794 L54.5583 526.212 L54.5583 520.006 L82.4401 508.866 L54.5583 497.726 L54.5583 491.519 L93.5165 507.179 Z" fill="#000000" fill-rule="nonzero" fill-opacity="1" /><path clip-path="url(#clip500)" d="M40.7447 448.646 Q48.0653 452.911 55.2267 454.98 Q62.3881 457.049 69.7405 457.049 Q77.0929 457.049 84.318 454.98 Q91.5113 452.879 98.8 448.646 L98.8 453.739 Q91.3203 458.513 84.0952 460.9 Q76.8701 463.256 69.7405 463.256 Q62.6428 463.256 55.4495 460.9 Q48.2563 458.545 40.7447 453.739 L40.7447 448.646 Z" fill="#000000" fill-rule="nonzero" fill-opacity="1" /><path clip-path="url(#clip500)" d="M42.6863 437.029 L42.6863 409.72 L48.0971 409.72 L48.0971 430.599 L62.1017 430.599 L62.1017 411.757 L67.5125 411.757 L67.5125 430.599 L90.2063 430.599 L90.2063 437.029 L42.6863 437.029 Z" fill="#000000" fill-rule="nonzero" fill-opacity="1" /><path clip-path="url(#clip500)" d="M60.0328 383.875 Q59.4599 384.862 59.2053 386.04 Q58.9188 387.185 58.9188 388.586 Q58.9188 393.551 62.1653 396.225 Q65.38 398.866 71.4274 398.866 L90.2063 398.866 L90.2063 404.755 L54.5583 404.755 L54.5583 398.866 L60.0965 398.866 Q56.85 397.02 55.2904 394.06 Q53.699 391.1 53.699 386.867 Q53.699 386.262 53.7944 385.53 Q53.8581 384.798 54.0172 383.907 L60.0328 383.875 Z" fill="#000000" fill-rule="nonzero" fill-opacity="1" /><path clip-path="url(#clip500)" d="M72.2868 361.532 Q72.2868 368.629 73.9101 371.367 Q75.5333 374.104 79.4482 374.104 Q82.5674 374.104 84.4135 372.067 Q86.2277 369.998 86.2277 366.465 Q86.2277 361.595 82.7902 358.667 Q79.3209 355.707 73.5918 355.707 L72.2868 355.707 L72.2868 361.532 M69.8679 349.85 L90.2063 349.85 L90.2063 355.707 L84.7954 355.707 Q88.0419 357.712 89.6015 360.704 Q91.1293 363.696 91.1293 368.025 Q91.1293 373.499 88.0738 376.746 Q84.9864 379.96 79.8302 379.96 Q73.8146 379.96 70.759 375.95 Q67.7035 371.908 67.7035 363.919 L67.7035 355.707 L67.1306 355.707 Q63.0884 355.707 60.8922 358.381 Q58.6642 361.022 58.6642 365.828 Q58.6642 368.884 59.3963 371.78 Q60.1283 374.677 61.5924 377.35 L56.1816 377.35 Q54.9403 374.136 54.3355 371.112 Q53.699 368.088 53.699 365.224 Q53.699 357.489 57.7094 353.67 Q61.7197 349.85 69.8679 349.85 Z" fill="#000000" fill-rule="nonzero" fill-opacity="1" /><path clip-path="url(#clip500)" d="M68.6902 308.155 L90.2063 308.155 L90.2063 314.012 L68.8812 314.012 Q63.8204 314.012 61.306 315.985 Q58.7915 317.958 58.7915 321.905 Q58.7915 326.647 61.8152 329.385 Q64.8389 332.122 70.0588 332.122 L90.2063 332.122 L90.2063 338.01 L54.5583 338.01 L54.5583 332.122 L60.0965 332.122 Q56.8818 330.021 55.2904 327.189 Q53.699 324.324 53.699 320.6 Q53.699 314.457 57.5184 311.306 Q61.306 308.155 68.6902 308.155 Z" fill="#000000" fill-rule="nonzero" fill-opacity="1" /><path clip-path="url(#clip500)" d="M55.927 270.82 L61.4015 270.82 Q60.0328 273.303 59.3644 275.817 Q58.6642 278.3 58.6642 280.846 Q58.6642 286.544 62.2927 289.695 Q65.8893 292.846 72.4141 292.846 Q78.939 292.846 82.5674 289.695 Q86.1641 286.544 86.1641 280.846 Q86.1641 278.3 85.4957 275.817 Q84.7954 273.303 83.4268 270.82 L88.8377 270.82 Q89.9835 273.271 90.5564 275.913 Q91.1293 278.523 91.1293 281.483 Q91.1293 289.535 86.0686 294.278 Q81.0078 299.02 72.4141 299.02 Q63.6931 299.02 58.696 294.246 Q53.699 289.44 53.699 281.101 Q53.699 278.395 54.2719 275.817 Q54.813 273.239 55.927 270.82 Z" fill="#000000" fill-rule="nonzero" fill-opacity="1" /><path clip-path="url(#clip500)" d="M70.9182 230.143 L73.7828 230.143 L73.7828 257.07 Q79.8302 256.688 83.013 253.442 Q86.1641 250.164 86.1641 244.339 Q86.1641 240.965 85.3365 237.814 Q84.509 234.631 82.8539 231.512 L88.3921 231.512 Q89.7289 234.663 90.4291 237.973 Q91.1293 241.283 91.1293 244.689 Q91.1293 253.219 86.1641 258.216 Q81.1988 263.181 72.7324 263.181 Q63.9796 263.181 58.8552 258.471 Q53.699 253.728 53.699 245.708 Q53.699 238.514 58.3459 234.345 Q62.9611 230.143 70.9182 230.143 M69.1995 236 Q64.3933 236.063 61.5288 238.705 Q58.6642 241.315 58.6642 245.644 Q58.6642 250.545 61.4333 253.506 Q64.2024 256.434 69.2313 256.879 L69.1995 236 Z" fill="#000000" fill-rule="nonzero" fill-opacity="1" /><path clip-path="url(#clip500)" d="M40.7447 221.454 L40.7447 216.362 Q48.2563 211.587 55.4495 209.232 Q62.6428 206.845 69.7405 206.845 Q76.8701 206.845 84.0952 209.232 Q91.3203 211.587 98.8 216.362 L98.8 221.454 Q91.5113 217.221 84.318 215.152 Q77.0929 213.051 69.7405 213.051 Q62.3881 213.051 55.2267 215.152 Q48.0653 217.221 40.7447 221.454 Z" fill="#000000" fill-rule="nonzero" fill-opacity="1" /><path clip-path="url(#clip502)" d="M288.747 404.318 L288.747 1042.58 L311.29 1042.58 L311.29 404.318 L288.747 404.318 L288.747 404.318  Z" fill="#009af9" fill-rule="evenodd" fill-opacity="0.5"/>
<polyline clip-path="url(#clip502)" style="stroke:#000000; stroke-linecap:round; stroke-linejoin:round; stroke-width:4; stroke-opacity:0.5; fill:none" points="288.747,404.318 288.747,1042.58 311.29,1042.58 311.29,404.318 288.747,404.318 "/>
<path clip-path="url(#clip502)" d="M316.926 422.447 L316.926 1042.58 L339.469 1042.58 L339.469 422.447 L316.926 422.447 L316.926 422.447  Z" fill="#009af9" fill-rule="evenodd" fill-opacity="0.5"/>
<polyline clip-path="url(#clip502)" style="stroke:#000000; stroke-linecap:round; stroke-linejoin:round; stroke-width:4; stroke-opacity:0.5; fill:none" points="316.926,422.447 316.926,1042.58 339.469,1042.58 339.469,422.447 316.926,422.447 "/>
<path clip-path="url(#clip502)" d="M345.105 422.447 L345.105 1042.58 L367.649 1042.58 L367.649 422.447 L345.105 422.447 L345.105 422.447  Z" fill="#009af9" fill-rule="evenodd" fill-opacity="0.5"/>
<polyline clip-path="url(#clip502)" style="stroke:#000000; stroke-linecap:round; stroke-linejoin:round; stroke-width:4; stroke-opacity:0.5; fill:none" points="345.105,422.447 345.105,1042.58 367.649,1042.58 367.649,422.447 345.105,422.447 "/>
<path clip-path="url(#clip502)" d="M373.285 531.969 L373.285 1042.58 L395.828 1042.58 L395.828 531.969 L373.285 531.969 L373.285 531.969  Z" fill="#009af9" fill-rule="evenodd" fill-opacity="0.5"/>
<polyline clip-path="url(#clip502)" style="stroke:#000000; stroke-linecap:round; stroke-linejoin:round; stroke-width:4; stroke-opacity:0.5; fill:none" points="373.285,531.969 373.285,1042.58 395.828,1042.58 395.828,531.969 373.285,531.969 "/>
<path clip-path="url(#clip502)" d="M401.464 600.974 L401.464 1042.58 L424.007 1042.58 L424.007 600.974 L401.464 600.974 L401.464 600.974  Z" fill="#009af9" fill-rule="evenodd" fill-opacity="0.5"/>
<polyline clip-path="url(#clip502)" style="stroke:#000000; stroke-linecap:round; stroke-linejoin:round; stroke-width:4; stroke-opacity:0.5; fill:none" points="401.464,600.974 401.464,1042.58 424.007,1042.58 424.007,600.974 401.464,600.974 "/>
<path clip-path="url(#clip502)" d="M429.643 110.236 L429.643 1042.58 L452.186 1042.58 L452.186 110.236 L429.643 110.236 L429.643 110.236  Z" fill="#009af9" fill-rule="evenodd" fill-opacity="0.5"/>
<polyline clip-path="url(#clip502)" style="stroke:#000000; stroke-linecap:round; stroke-linejoin:round; stroke-width:4; stroke-opacity:0.5; fill:none" points="429.643,110.236 429.643,1042.58 452.186,1042.58 452.186,110.236 429.643,110.236 "/>
<path clip-path="url(#clip502)" d="M457.822 363.223 L457.822 1042.58 L480.366 1042.58 L480.366 363.223 L457.822 363.223 L457.822 363.223  Z" fill="#009af9" fill-rule="evenodd" fill-opacity="0.5"/>
<polyline clip-path="url(#clip502)" style="stroke:#000000; stroke-linecap:round; stroke-linejoin:round; stroke-width:4; stroke-opacity:0.5; fill:none" points="457.822,363.223 457.822,1042.58 480.366,1042.58 480.366,363.223 457.822,363.223 "/>
<path clip-path="url(#clip502)" d="M486.001 659.621 L486.001 1042.58 L508.545 1042.58 L508.545 659.621 L486.001 659.621 L486.001 659.621  Z" fill="#009af9" fill-rule="evenodd" fill-opacity="0.5"/>
<polyline clip-path="url(#clip502)" style="stroke:#000000; stroke-linecap:round; stroke-linejoin:round; stroke-width:4; stroke-opacity:0.5; fill:none" points="486.001,659.621 486.001,1042.58 508.545,1042.58 508.545,659.621 486.001,659.621 "/>
<path clip-path="url(#clip502)" d="M514.181 584.949 L514.181 1042.58 L536.724 1042.58 L536.724 584.949 L514.181 584.949 L514.181 584.949  Z" fill="#009af9" fill-rule="evenodd" fill-opacity="0.5"/>
<polyline clip-path="url(#clip502)" style="stroke:#000000; stroke-linecap:round; stroke-linejoin:round; stroke-width:4; stroke-opacity:0.5; fill:none" points="514.181,584.949 514.181,1042.58 536.724,1042.58 536.724,584.949 514.181,584.949 "/>
<path clip-path="url(#clip502)" d="M542.36 543.855 L542.36 1042.58 L564.903 1042.58 L564.903 543.855 L542.36 543.855 L542.36 543.855  Z" fill="#009af9" fill-rule="evenodd" fill-opacity="0.5"/>
<polyline clip-path="url(#clip502)" style="stroke:#000000; stroke-linecap:round; stroke-linejoin:round; stroke-width:4; stroke-opacity:0.5; fill:none" points="542.36,543.855 542.36,1042.58 564.903,1042.58 564.903,543.855 542.36,543.855 "/>
<path clip-path="url(#clip502)" d="M570.539 746.178 L570.539 1042.58 L593.083 1042.58 L593.083 746.178 L570.539 746.178 L570.539 746.178  Z" fill="#009af9" fill-rule="evenodd" fill-opacity="0.5"/>
<polyline clip-path="url(#clip502)" style="stroke:#000000; stroke-linecap:round; stroke-linejoin:round; stroke-width:4; stroke-opacity:0.5; fill:none" points="570.539,746.178 570.539,1042.58 593.083,1042.58 593.083,746.178 570.539,746.178 "/>
<path clip-path="url(#clip502)" d="M598.718 531.969 L598.718 1042.58 L621.262 1042.58 L621.262 531.969 L598.718 531.969 L598.718 531.969  Z" fill="#009af9" fill-rule="evenodd" fill-opacity="0.5"/>
<polyline clip-path="url(#clip502)" style="stroke:#000000; stroke-linecap:round; stroke-linejoin:round; stroke-width:4; stroke-opacity:0.5; fill:none" points="598.718,531.969 598.718,1042.58 621.262,1042.58 621.262,531.969 598.718,531.969 "/>
<path clip-path="url(#clip502)" d="M626.898 135.161 L626.898 1042.58 L649.441 1042.58 L649.441 135.161 L626.898 135.161 L626.898 135.161  Z" fill="#009af9" fill-rule="evenodd" fill-opacity="0.5"/>
<polyline clip-path="url(#clip502)" style="stroke:#000000; stroke-linecap:round; stroke-linejoin:round; stroke-width:4; stroke-opacity:0.5; fill:none" points="626.898,135.161 626.898,1042.58 649.441,1042.58 649.441,135.161 626.898,135.161 "/>
<path clip-path="url(#clip502)" d="M655.077 490.875 L655.077 1042.58 L677.62 1042.58 L677.62 490.875 L655.077 490.875 L655.077 490.875  Z" fill="#009af9" fill-rule="evenodd" fill-opacity="0.5"/>
<polyline clip-path="url(#clip502)" style="stroke:#000000; stroke-linecap:round; stroke-linejoin:round; stroke-width:4; stroke-opacity:0.5; fill:none" points="655.077,490.875 655.077,1042.58 677.62,1042.58 677.62,490.875 655.077,490.875 "/>
<path clip-path="url(#clip502)" d="M683.256 712.601 L683.256 1042.58 L705.8 1042.58 L705.8 712.601 L683.256 712.601 L683.256 712.601  Z" fill="#009af9" fill-rule="evenodd" fill-opacity="0.5"/>
<polyline clip-path="url(#clip502)" style="stroke:#000000; stroke-linecap:round; stroke-linejoin:round; stroke-width:4; stroke-opacity:0.5; fill:none" points="683.256,712.601 683.256,1042.58 705.8,1042.58 705.8,712.601 683.256,712.601 "/>
<path clip-path="url(#clip502)" d="M711.435 746.178 L711.435 1042.58 L733.979 1042.58 L733.979 746.178 L711.435 746.178 L711.435 746.178  Z" fill="#009af9" fill-rule="evenodd" fill-opacity="0.5"/>
<polyline clip-path="url(#clip502)" style="stroke:#000000; stroke-linecap:round; stroke-linejoin:round; stroke-width:4; stroke-opacity:0.5; fill:none" points="711.435,746.178 711.435,1042.58 733.979,1042.58 733.979,746.178 711.435,746.178 "/>
<path clip-path="url(#clip502)" d="M739.615 684.212 L739.615 1042.58 L762.158 1042.58 L762.158 684.212 L739.615 684.212 L739.615 684.212  Z" fill="#009af9" fill-rule="evenodd" fill-opacity="0.5"/>
<polyline clip-path="url(#clip502)" style="stroke:#000000; stroke-linecap:round; stroke-linejoin:round; stroke-width:4; stroke-opacity:0.5; fill:none" points="739.615,684.212 739.615,1042.58 762.158,1042.58 762.158,684.212 739.615,684.212 "/>
<path clip-path="url(#clip502)" d="M767.794 746.178 L767.794 1042.58 L790.337 1042.58 L790.337 746.178 L767.794 746.178 L767.794 746.178  Z" fill="#009af9" fill-rule="evenodd" fill-opacity="0.5"/>
<polyline clip-path="url(#clip502)" style="stroke:#000000; stroke-linecap:round; stroke-linejoin:round; stroke-width:4; stroke-opacity:0.5; fill:none" points="767.794,746.178 767.794,1042.58 790.337,1042.58 790.337,746.178 767.794,746.178 "/>
<path clip-path="url(#clip502)" d="M795.973 684.212 L795.973 1042.58 L818.517 1042.58 L818.517 684.212 L795.973 684.212 L795.973 684.212  Z" fill="#009af9" fill-rule="evenodd" fill-opacity="0.5"/>
<polyline clip-path="url(#clip502)" style="stroke:#000000; stroke-linecap:round; stroke-linejoin:round; stroke-width:4; stroke-opacity:0.5; fill:none" points="795.973,684.212 795.973,1042.58 818.517,1042.58 818.517,684.212 795.973,684.212 "/>
<path clip-path="url(#clip502)" d="M824.152 192.644 L824.152 1042.58 L846.696 1042.58 L846.696 192.644 L824.152 192.644 L824.152 192.644  Z" fill="#009af9" fill-rule="evenodd" fill-opacity="0.5"/>
<polyline clip-path="url(#clip502)" style="stroke:#000000; stroke-linecap:round; stroke-linejoin:round; stroke-width:4; stroke-opacity:0.5; fill:none" points="824.152,192.644 824.152,1042.58 846.696,1042.58 846.696,192.644 824.152,192.644 "/>
<path clip-path="url(#clip502)" d="M852.332 600.974 L852.332 1042.58 L874.875 1042.58 L874.875 600.974 L852.332 600.974 L852.332 600.974  Z" fill="#009af9" fill-rule="evenodd" fill-opacity="0.5"/>
<polyline clip-path="url(#clip502)" style="stroke:#000000; stroke-linecap:round; stroke-linejoin:round; stroke-width:4; stroke-opacity:0.5; fill:none" points="852.332,600.974 852.332,1042.58 874.875,1042.58 874.875,600.974 852.332,600.974 "/>
<path clip-path="url(#clip502)" d="M880.511 637.93 L880.511 1042.58 L903.054 1042.58 L903.054 637.93 L880.511 637.93 L880.511 637.93  Z" fill="#009af9" fill-rule="evenodd" fill-opacity="0.5"/>
<polyline clip-path="url(#clip502)" style="stroke:#000000; stroke-linecap:round; stroke-linejoin:round; stroke-width:4; stroke-opacity:0.5; fill:none" points="880.511,637.93 880.511,1042.58 903.054,1042.58 903.054,637.93 880.511,637.93 "/>
<path clip-path="url(#clip502)" d="M908.69 637.93 L908.69 1042.58 L931.234 1042.58 L931.234 637.93 L908.69 637.93 L908.69 637.93  Z" fill="#009af9" fill-rule="evenodd" fill-opacity="0.5"/>
<polyline clip-path="url(#clip502)" style="stroke:#000000; stroke-linecap:round; stroke-linejoin:round; stroke-width:4; stroke-opacity:0.5; fill:none" points="908.69,637.93 908.69,1042.58 931.234,1042.58 931.234,637.93 908.69,637.93 "/>
<path clip-path="url(#clip502)" d="M936.869 746.178 L936.869 1042.58 L959.413 1042.58 L959.413 746.178 L936.869 746.178 L936.869 746.178  Z" fill="#009af9" fill-rule="evenodd" fill-opacity="0.5"/>
<polyline clip-path="url(#clip502)" style="stroke:#000000; stroke-linecap:round; stroke-linejoin:round; stroke-width:4; stroke-opacity:0.5; fill:none" points="936.869,746.178 936.869,1042.58 959.413,1042.58 959.413,746.178 936.869,746.178 "/>
<path clip-path="url(#clip502)" d="M965.049 914.924 L965.049 1042.58 L987.592 1042.58 L987.592 914.924 L965.049 914.924 L965.049 914.924  Z" fill="#009af9" fill-rule="evenodd" fill-opacity="0.5"/>
<polyline clip-path="url(#clip502)" style="stroke:#000000; stroke-linecap:round; stroke-linejoin:round; stroke-width:4; stroke-opacity:0.5; fill:none" points="965.049,914.924 965.049,1042.58 987.592,1042.58 987.592,914.924 965.049,914.924 "/>
<path clip-path="url(#clip502)" d="M993.228 712.601 L993.228 1042.58 L1015.77 1042.58 L1015.77 712.601 L993.228 712.601 L993.228 712.601  Z" fill="#009af9" fill-rule="evenodd" fill-opacity="0.5"/>
<polyline clip-path="url(#clip502)" style="stroke:#000000; stroke-linecap:round; stroke-linejoin:round; stroke-width:4; stroke-opacity:0.5; fill:none" points="993.228,712.601 993.228,1042.58 1015.77,1042.58 1015.77,712.601 993.228,712.601 "/>
<path clip-path="url(#clip502)" d="M1021.41 233.284 L1021.41 1042.58 L1043.95 1042.58 L1043.95 233.284 L1021.41 233.284 L1021.41 233.284  Z" fill="#009af9" fill-rule="evenodd" fill-opacity="0.5"/>
<polyline clip-path="url(#clip502)" style="stroke:#000000; stroke-linecap:round; stroke-linejoin:round; stroke-width:4; stroke-opacity:0.5; fill:none" points="1021.41,233.284 1021.41,1042.58 1043.95,1042.58 1043.95,233.284 1021.41,233.284 "/>
<path clip-path="url(#clip502)" d="M1049.59 584.949 L1049.59 1042.58 L1072.13 1042.58 L1072.13 584.949 L1049.59 584.949 L1049.59 584.949  Z" fill="#009af9" fill-rule="evenodd" fill-opacity="0.5"/>
<polyline clip-path="url(#clip502)" style="stroke:#000000; stroke-linecap:round; stroke-linejoin:round; stroke-width:4; stroke-opacity:0.5; fill:none" points="1049.59,584.949 1049.59,1042.58 1072.13,1042.58 1072.13,584.949 1049.59,584.949 "/>
<path clip-path="url(#clip502)" d="M1077.77 520.804 L1077.77 1042.58 L1100.31 1042.58 L1100.31 520.804 L1077.77 520.804 L1077.77 520.804  Z" fill="#009af9" fill-rule="evenodd" fill-opacity="0.5"/>
<polyline clip-path="url(#clip502)" style="stroke:#000000; stroke-linecap:round; stroke-linejoin:round; stroke-width:4; stroke-opacity:0.5; fill:none" points="1077.77,520.804 1077.77,1042.58 1100.31,1042.58 1100.31,520.804 1077.77,520.804 "/>
<path clip-path="url(#clip502)" d="M1105.94 684.212 L1105.94 1042.58 L1128.49 1042.58 L1128.49 684.212 L1105.94 684.212 L1105.94 684.212  Z" fill="#009af9" fill-rule="evenodd" fill-opacity="0.5"/>
<polyline clip-path="url(#clip502)" style="stroke:#000000; stroke-linecap:round; stroke-linejoin:round; stroke-width:4; stroke-opacity:0.5; fill:none" points="1105.94,684.212 1105.94,1042.58 1128.49,1042.58 1128.49,684.212 1105.94,684.212 "/>
<path clip-path="url(#clip502)" d="M1134.12 556.561 L1134.12 1042.58 L1156.67 1042.58 L1156.67 556.561 L1134.12 556.561 L1134.12 556.561  Z" fill="#009af9" fill-rule="evenodd" fill-opacity="0.5"/>
<polyline clip-path="url(#clip502)" style="stroke:#000000; stroke-linecap:round; stroke-linejoin:round; stroke-width:4; stroke-opacity:0.5; fill:none" points="1134.12,556.561 1134.12,1042.58 1156.67,1042.58 1156.67,556.561 1134.12,556.561 "/>
<path clip-path="url(#clip502)" d="M1162.3 914.924 L1162.3 1042.58 L1184.85 1042.58 L1184.85 914.924 L1162.3 914.924 L1162.3 914.924  Z" fill="#009af9" fill-rule="evenodd" fill-opacity="0.5"/>
<polyline clip-path="url(#clip502)" style="stroke:#000000; stroke-linecap:round; stroke-linejoin:round; stroke-width:4; stroke-opacity:0.5; fill:none" points="1162.3,914.924 1162.3,1042.58 1184.85,1042.58 1184.85,914.924 1162.3,914.924 "/>
<path clip-path="url(#clip502)" d="M1190.48 684.212 L1190.48 1042.58 L1213.03 1042.58 L1213.03 684.212 L1190.48 684.212 L1190.48 684.212  Z" fill="#009af9" fill-rule="evenodd" fill-opacity="0.5"/>
<polyline clip-path="url(#clip502)" style="stroke:#000000; stroke-linecap:round; stroke-linejoin:round; stroke-width:4; stroke-opacity:0.5; fill:none" points="1190.48,684.212 1190.48,1042.58 1213.03,1042.58 1213.03,684.212 1190.48,684.212 "/>
<path clip-path="url(#clip502)" d="M1218.66 329.646 L1218.66 1042.58 L1241.21 1042.58 L1241.21 329.646 L1218.66 329.646 L1218.66 329.646  Z" fill="#009af9" fill-rule="evenodd" fill-opacity="0.5"/>
<polyline clip-path="url(#clip502)" style="stroke:#000000; stroke-linecap:round; stroke-linejoin:round; stroke-width:4; stroke-opacity:0.5; fill:none" points="1218.66,329.646 1218.66,1042.58 1241.21,1042.58 1241.21,329.646 1218.66,329.646 "/>
<path clip-path="url(#clip502)" d="M1246.84 600.974 L1246.84 1042.58 L1269.38 1042.58 L1269.38 600.974 L1246.84 600.974 L1246.84 600.974  Z" fill="#009af9" fill-rule="evenodd" fill-opacity="0.5"/>
<polyline clip-path="url(#clip502)" style="stroke:#000000; stroke-linecap:round; stroke-linejoin:round; stroke-width:4; stroke-opacity:0.5; fill:none" points="1246.84,600.974 1246.84,1042.58 1269.38,1042.58 1269.38,600.974 1246.84,600.974 "/>
<path clip-path="url(#clip502)" d="M1275.02 712.601 L1275.02 1042.58 L1297.56 1042.58 L1297.56 712.601 L1275.02 712.601 L1275.02 712.601  Z" fill="#009af9" fill-rule="evenodd" fill-opacity="0.5"/>
<polyline clip-path="url(#clip502)" style="stroke:#000000; stroke-linecap:round; stroke-linejoin:round; stroke-width:4; stroke-opacity:0.5; fill:none" points="1275.02,712.601 1275.02,1042.58 1297.56,1042.58 1297.56,712.601 1275.02,712.601 "/>
<path clip-path="url(#clip502)" d="M1303.2 659.621 L1303.2 1042.58 L1325.74 1042.58 L1325.74 659.621 L1303.2 659.621 L1303.2 659.621  Z" fill="#009af9" fill-rule="evenodd" fill-opacity="0.5"/>
<polyline clip-path="url(#clip502)" style="stroke:#000000; stroke-linecap:round; stroke-linejoin:round; stroke-width:4; stroke-opacity:0.5; fill:none" points="1303.2,659.621 1303.2,1042.58 1325.74,1042.58 1325.74,659.621 1303.2,659.621 "/>
<path clip-path="url(#clip502)" d="M1331.38 637.93 L1331.38 1042.58 L1353.92 1042.58 L1353.92 637.93 L1331.38 637.93 L1331.38 637.93  Z" fill="#009af9" fill-rule="evenodd" fill-opacity="0.5"/>
<polyline clip-path="url(#clip502)" style="stroke:#000000; stroke-linecap:round; stroke-linejoin:round; stroke-width:4; stroke-opacity:0.5; fill:none" points="1331.38,637.93 1331.38,1042.58 1353.92,1042.58 1353.92,637.93 1331.38,637.93 "/>
<path clip-path="url(#clip502)" d="M1359.56 712.601 L1359.56 1042.58 L1382.1 1042.58 L1382.1 712.601 L1359.56 712.601 L1359.56 712.601  Z" fill="#009af9" fill-rule="evenodd" fill-opacity="0.5"/>
<polyline clip-path="url(#clip502)" style="stroke:#000000; stroke-linecap:round; stroke-linejoin:round; stroke-width:4; stroke-opacity:0.5; fill:none" points="1359.56,712.601 1359.56,1042.58 1382.1,1042.58 1382.1,712.601 1359.56,712.601 "/>
<path clip-path="url(#clip502)" d="M1387.74 787.272 L1387.74 1042.58 L1410.28 1042.58 L1410.28 787.272 L1387.74 787.272 L1387.74 787.272  Z" fill="#009af9" fill-rule="evenodd" fill-opacity="0.5"/>
<polyline clip-path="url(#clip502)" style="stroke:#000000; stroke-linecap:round; stroke-linejoin:round; stroke-width:4; stroke-opacity:0.5; fill:none" points="1387.74,787.272 1387.74,1042.58 1410.28,1042.58 1410.28,787.272 1387.74,787.272 "/>
<path clip-path="url(#clip502)" d="M1415.92 428.909 L1415.92 1042.58 L1438.46 1042.58 L1438.46 428.909 L1415.92 428.909 L1415.92 428.909  Z" fill="#009af9" fill-rule="evenodd" fill-opacity="0.5"/>
<polyline clip-path="url(#clip502)" style="stroke:#000000; stroke-linecap:round; stroke-linejoin:round; stroke-width:4; stroke-opacity:0.5; fill:none" points="1415.92,428.909 1415.92,1042.58 1438.46,1042.58 1438.46,428.909 1415.92,428.909 "/>
<path clip-path="url(#clip502)" d="M1444.1 659.621 L1444.1 1042.58 L1466.64 1042.58 L1466.64 659.621 L1444.1 659.621 L1444.1 659.621  Z" fill="#009af9" fill-rule="evenodd" fill-opacity="0.5"/>
<polyline clip-path="url(#clip502)" style="stroke:#000000; stroke-linecap:round; stroke-linejoin:round; stroke-width:4; stroke-opacity:0.5; fill:none" points="1444.1,659.621 1444.1,1042.58 1466.64,1042.58 1466.64,659.621 1444.1,659.621 "/>
<path clip-path="url(#clip502)" d="M1472.28 712.601 L1472.28 1042.58 L1494.82 1042.58 L1494.82 712.601 L1472.28 712.601 L1472.28 712.601  Z" fill="#009af9" fill-rule="evenodd" fill-opacity="0.5"/>
<polyline clip-path="url(#clip502)" style="stroke:#000000; stroke-linecap:round; stroke-linejoin:round; stroke-width:4; stroke-opacity:0.5; fill:none" points="1472.28,712.601 1472.28,1042.58 1494.82,1042.58 1494.82,712.601 1472.28,712.601 "/>
<path clip-path="url(#clip502)" d="M1500.45 584.949 L1500.45 1042.58 L1523 1042.58 L1523 584.949 L1500.45 584.949 L1500.45 584.949  Z" fill="#009af9" fill-rule="evenodd" fill-opacity="0.5"/>
<polyline clip-path="url(#clip502)" style="stroke:#000000; stroke-linecap:round; stroke-linejoin:round; stroke-width:4; stroke-opacity:0.5; fill:none" points="1500.45,584.949 1500.45,1042.58 1523,1042.58 1523,584.949 1500.45,584.949 "/>
<path clip-path="url(#clip502)" d="M1528.63 712.601 L1528.63 1042.58 L1551.18 1042.58 L1551.18 712.601 L1528.63 712.601 L1528.63 712.601  Z" fill="#009af9" fill-rule="evenodd" fill-opacity="0.5"/>
<polyline clip-path="url(#clip502)" style="stroke:#000000; stroke-linecap:round; stroke-linejoin:round; stroke-width:4; stroke-opacity:0.5; fill:none" points="1528.63,712.601 1528.63,1042.58 1551.18,1042.58 1551.18,712.601 1528.63,712.601 "/>
<path clip-path="url(#clip502)" d="M1556.81 840.253 L1556.81 1042.58 L1579.36 1042.58 L1579.36 840.253 L1556.81 840.253 L1556.81 840.253  Z" fill="#009af9" fill-rule="evenodd" fill-opacity="0.5"/>
<polyline clip-path="url(#clip502)" style="stroke:#000000; stroke-linecap:round; stroke-linejoin:round; stroke-width:4; stroke-opacity:0.5; fill:none" points="1556.81,840.253 1556.81,1042.58 1579.36,1042.58 1579.36,840.253 1556.81,840.253 "/>
<path clip-path="url(#clip502)" d="M1584.99 840.253 L1584.99 1042.58 L1607.54 1042.58 L1607.54 840.253 L1584.99 840.253 L1584.99 840.253  Z" fill="#009af9" fill-rule="evenodd" fill-opacity="0.5"/>
<polyline clip-path="url(#clip502)" style="stroke:#000000; stroke-linecap:round; stroke-linejoin:round; stroke-width:4; stroke-opacity:0.5; fill:none" points="1584.99,840.253 1584.99,1042.58 1607.54,1042.58 1607.54,840.253 1584.99,840.253 "/>
<path clip-path="url(#clip502)" d="M1613.17 428.909 L1613.17 1042.58 L1635.71 1042.58 L1635.71 428.909 L1613.17 428.909 L1613.17 428.909  Z" fill="#009af9" fill-rule="evenodd" fill-opacity="0.5"/>
<polyline clip-path="url(#clip502)" style="stroke:#000000; stroke-linecap:round; stroke-linejoin:round; stroke-width:4; stroke-opacity:0.5; fill:none" points="1613.17,428.909 1613.17,1042.58 1635.71,1042.58 1635.71,428.909 1613.17,428.909 "/>
<path clip-path="url(#clip502)" d="M1641.35 746.178 L1641.35 1042.58 L1663.89 1042.58 L1663.89 746.178 L1641.35 746.178 L1641.35 746.178  Z" fill="#009af9" fill-rule="evenodd" fill-opacity="0.5"/>
<polyline clip-path="url(#clip502)" style="stroke:#000000; stroke-linecap:round; stroke-linejoin:round; stroke-width:4; stroke-opacity:0.5; fill:none" points="1641.35,746.178 1641.35,1042.58 1663.89,1042.58 1663.89,746.178 1641.35,746.178 "/>
<path clip-path="url(#clip502)" d="M1669.53 684.212 L1669.53 1042.58 L1692.07 1042.58 L1692.07 684.212 L1669.53 684.212 L1669.53 684.212  Z" fill="#009af9" fill-rule="evenodd" fill-opacity="0.5"/>
<polyline clip-path="url(#clip502)" style="stroke:#000000; stroke-linecap:round; stroke-linejoin:round; stroke-width:4; stroke-opacity:0.5; fill:none" points="1669.53,684.212 1669.53,1042.58 1692.07,1042.58 1692.07,684.212 1669.53,684.212 "/>
<path clip-path="url(#clip502)" d="M1697.71 618.526 L1697.71 1042.58 L1720.25 1042.58 L1720.25 618.526 L1697.71 618.526 L1697.71 618.526  Z" fill="#009af9" fill-rule="evenodd" fill-opacity="0.5"/>
<polyline clip-path="url(#clip502)" style="stroke:#000000; stroke-linecap:round; stroke-linejoin:round; stroke-width:4; stroke-opacity:0.5; fill:none" points="1697.71,618.526 1697.71,1042.58 1720.25,1042.58 1720.25,618.526 1697.71,618.526 "/>
<path clip-path="url(#clip502)" d="M1725.89 556.561 L1725.89 1042.58 L1748.43 1042.58 L1748.43 556.561 L1725.89 556.561 L1725.89 556.561  Z" fill="#009af9" fill-rule="evenodd" fill-opacity="0.5"/>
<polyline clip-path="url(#clip502)" style="stroke:#000000; stroke-linecap:round; stroke-linejoin:round; stroke-width:4; stroke-opacity:0.5; fill:none" points="1725.89,556.561 1725.89,1042.58 1748.43,1042.58 1748.43,556.561 1725.89,556.561 "/>
<path clip-path="url(#clip502)" d="M1754.07 746.178 L1754.07 1042.58 L1776.61 1042.58 L1776.61 746.178 L1754.07 746.178 L1754.07 746.178  Z" fill="#009af9" fill-rule="evenodd" fill-opacity="0.5"/>
<polyline clip-path="url(#clip502)" style="stroke:#000000; stroke-linecap:round; stroke-linejoin:round; stroke-width:4; stroke-opacity:0.5; fill:none" points="1754.07,746.178 1754.07,1042.58 1776.61,1042.58 1776.61,746.178 1754.07,746.178 "/>
<path clip-path="url(#clip502)" d="M1782.25 746.178 L1782.25 1042.58 L1804.79 1042.58 L1804.79 746.178 L1782.25 746.178 L1782.25 746.178  Z" fill="#009af9" fill-rule="evenodd" fill-opacity="0.5"/>
<polyline clip-path="url(#clip502)" style="stroke:#000000; stroke-linecap:round; stroke-linejoin:round; stroke-width:4; stroke-opacity:0.5; fill:none" points="1782.25,746.178 1782.25,1042.58 1804.79,1042.58 1804.79,746.178 1782.25,746.178 "/>
<path clip-path="url(#clip502)" d="M1810.43 345.67 L1810.43 1042.58 L1832.97 1042.58 L1832.97 345.67 L1810.43 345.67 L1810.43 345.67  Z" fill="#009af9" fill-rule="evenodd" fill-opacity="0.5"/>
<polyline clip-path="url(#clip502)" style="stroke:#000000; stroke-linecap:round; stroke-linejoin:round; stroke-width:4; stroke-opacity:0.5; fill:none" points="1810.43,345.67 1810.43,1042.58 1832.97,1042.58 1832.97,345.67 1810.43,345.67 "/>
<path clip-path="url(#clip502)" d="M1838.61 712.601 L1838.61 1042.58 L1861.15 1042.58 L1861.15 712.601 L1838.61 712.601 L1838.61 712.601  Z" fill="#009af9" fill-rule="evenodd" fill-opacity="0.5"/>
<polyline clip-path="url(#clip502)" style="stroke:#000000; stroke-linecap:round; stroke-linejoin:round; stroke-width:4; stroke-opacity:0.5; fill:none" points="1838.61,712.601 1838.61,1042.58 1861.15,1042.58 1861.15,712.601 1838.61,712.601 "/>
<path clip-path="url(#clip502)" d="M1866.78 618.526 L1866.78 1042.58 L1889.33 1042.58 L1889.33 618.526 L1866.78 618.526 L1866.78 618.526  Z" fill="#009af9" fill-rule="evenodd" fill-opacity="0.5"/>
<polyline clip-path="url(#clip502)" style="stroke:#000000; stroke-linecap:round; stroke-linejoin:round; stroke-width:4; stroke-opacity:0.5; fill:none" points="1866.78,618.526 1866.78,1042.58 1889.33,1042.58 1889.33,618.526 1866.78,618.526 "/>
<path clip-path="url(#clip502)" d="M1894.96 584.949 L1894.96 1042.58 L1917.51 1042.58 L1917.51 584.949 L1894.96 584.949 L1894.96 584.949  Z" fill="#009af9" fill-rule="evenodd" fill-opacity="0.5"/>
<polyline clip-path="url(#clip502)" style="stroke:#000000; stroke-linecap:round; stroke-linejoin:round; stroke-width:4; stroke-opacity:0.5; fill:none" points="1894.96,584.949 1894.96,1042.58 1917.51,1042.58 1917.51,584.949 1894.96,584.949 "/>
<path clip-path="url(#clip502)" d="M1923.14 570.209 L1923.14 1042.58 L1945.69 1042.58 L1945.69 570.209 L1923.14 570.209 L1923.14 570.209  Z" fill="#009af9" fill-rule="evenodd" fill-opacity="0.5"/>
<polyline clip-path="url(#clip502)" style="stroke:#000000; stroke-linecap:round; stroke-linejoin:round; stroke-width:4; stroke-opacity:0.5; fill:none" points="1923.14,570.209 1923.14,1042.58 1945.69,1042.58 1945.69,570.209 1923.14,570.209 "/>
<path clip-path="url(#clip502)" d="M1951.32 914.924 L1951.32 1042.58 L1973.87 1042.58 L1973.87 914.924 L1951.32 914.924 L1951.32 914.924  Z" fill="#009af9" fill-rule="evenodd" fill-opacity="0.5"/>
<polyline clip-path="url(#clip502)" style="stroke:#000000; stroke-linecap:round; stroke-linejoin:round; stroke-width:4; stroke-opacity:0.5; fill:none" points="1951.32,914.924 1951.32,1042.58 1973.87,1042.58 1973.87,914.924 1951.32,914.924 "/>
<path clip-path="url(#clip502)" d="M1979.5 840.253 L1979.5 1042.58 L2002.04 1042.58 L2002.04 840.253 L1979.5 840.253 L1979.5 840.253  Z" fill="#009af9" fill-rule="evenodd" fill-opacity="0.5"/>
<polyline clip-path="url(#clip502)" style="stroke:#000000; stroke-linecap:round; stroke-linejoin:round; stroke-width:4; stroke-opacity:0.5; fill:none" points="1979.5,840.253 1979.5,1042.58 2002.04,1042.58 2002.04,840.253 1979.5,840.253 "/>
<path clip-path="url(#clip502)" d="M2007.68 442.557 L2007.68 1042.58 L2030.22 1042.58 L2030.22 442.557 L2007.68 442.557 L2007.68 442.557  Z" fill="#009af9" fill-rule="evenodd" fill-opacity="0.5"/>
<polyline clip-path="url(#clip502)" style="stroke:#000000; stroke-linecap:round; stroke-linejoin:round; stroke-width:4; stroke-opacity:0.5; fill:none" points="2007.68,442.557 2007.68,1042.58 2030.22,1042.58 2030.22,442.557 2007.68,442.557 "/>
<path clip-path="url(#clip502)" d="M2035.86 1042.58 L2035.86 1042.58 L2058.4 1042.58 L2058.4 1042.58 L2035.86 1042.58 L2035.86 1042.58  Z" fill="#009af9" fill-rule="evenodd" fill-opacity="0.5"/>
<polyline clip-path="url(#clip502)" style="stroke:#000000; stroke-linecap:round; stroke-linejoin:round; stroke-width:4; stroke-opacity:0.5; fill:none" points="2035.86,1042.58 2035.86,1042.58 2058.4,1042.58 2035.86,1042.58 "/>
<path clip-path="url(#clip502)" d="M2064.04 746.178 L2064.04 1042.58 L2086.58 1042.58 L2086.58 746.178 L2064.04 746.178 L2064.04 746.178  Z" fill="#009af9" fill-rule="evenodd" fill-opacity="0.5"/>
<polyline clip-path="url(#clip502)" style="stroke:#000000; stroke-linecap:round; stroke-linejoin:round; stroke-width:4; stroke-opacity:0.5; fill:none" points="2064.04,746.178 2064.04,1042.58 2086.58,1042.58 2086.58,746.178 2064.04,746.178 "/>
<path clip-path="url(#clip502)" d="M2092.22 787.272 L2092.22 1042.58 L2114.76 1042.58 L2114.76 787.272 L2092.22 787.272 L2092.22 787.272  Z" fill="#009af9" fill-rule="evenodd" fill-opacity="0.5"/>
<polyline clip-path="url(#clip502)" style="stroke:#000000; stroke-linecap:round; stroke-linejoin:round; stroke-width:4; stroke-opacity:0.5; fill:none" points="2092.22,787.272 2092.22,1042.58 2114.76,1042.58 2114.76,787.272 2092.22,787.272 "/>
<path clip-path="url(#clip502)" d="M2120.4 787.272 L2120.4 1042.58 L2142.94 1042.58 L2142.94 787.272 L2120.4 787.272 L2120.4 787.272  Z" fill="#009af9" fill-rule="evenodd" fill-opacity="0.5"/>
<polyline clip-path="url(#clip502)" style="stroke:#000000; stroke-linecap:round; stroke-linejoin:round; stroke-width:4; stroke-opacity:0.5; fill:none" points="2120.4,787.272 2120.4,1042.58 2142.94,1042.58 2142.94,787.272 2120.4,787.272 "/>
<path clip-path="url(#clip502)" d="M2148.58 914.924 L2148.58 1042.58 L2171.12 1042.58 L2171.12 914.924 L2148.58 914.924 L2148.58 914.924  Z" fill="#009af9" fill-rule="evenodd" fill-opacity="0.5"/>
<polyline clip-path="url(#clip502)" style="stroke:#000000; stroke-linecap:round; stroke-linejoin:round; stroke-width:4; stroke-opacity:0.5; fill:none" points="2148.58,914.924 2148.58,1042.58 2171.12,1042.58 2171.12,914.924 2148.58,914.924 "/>
<path clip-path="url(#clip502)" d="M2204.94 840.253 L2204.94 1042.58 L2227.48 1042.58 L2227.48 840.253 L2204.94 840.253 L2204.94 840.253  Z" fill="#009af9" fill-rule="evenodd" fill-opacity="0.5"/>
<polyline clip-path="url(#clip502)" style="stroke:#000000; stroke-linecap:round; stroke-linejoin:round; stroke-width:4; stroke-opacity:0.5; fill:none" points="2204.94,840.253 2204.94,1042.58 2227.48,1042.58 2227.48,840.253 2204.94,840.253 "/>
<path clip-path="url(#clip502)" d="M2233.11 712.601 L2233.11 1042.58 L2255.66 1042.58 L2255.66 712.601 L2233.11 712.601 L2233.11 712.601  Z" fill="#009af9" fill-rule="evenodd" fill-opacity="0.5"/>
<polyline clip-path="url(#clip502)" style="stroke:#000000; stroke-linecap:round; stroke-linejoin:round; stroke-width:4; stroke-opacity:0.5; fill:none" points="2233.11,712.601 2233.11,1042.58 2255.66,1042.58 2255.66,712.601 2233.11,712.601 "/>
<path clip-path="url(#clip502)" d="M2261.29 840.253 L2261.29 1042.58 L2283.84 1042.58 L2283.84 840.253 L2261.29 840.253 L2261.29 840.253  Z" fill="#009af9" fill-rule="evenodd" fill-opacity="0.5"/>
<polyline clip-path="url(#clip502)" style="stroke:#000000; stroke-linecap:round; stroke-linejoin:round; stroke-width:4; stroke-opacity:0.5; fill:none" points="2261.29,840.253 2261.29,1042.58 2283.84,1042.58 2283.84,840.253 2261.29,840.253 "/>
<path clip-path="url(#clip502)" d="M2289.47 914.924 L2289.47 1042.58 L2312.02 1042.58 L2312.02 914.924 L2289.47 914.924 L2289.47 914.924  Z" fill="#009af9" fill-rule="evenodd" fill-opacity="0.5"/>
<polyline clip-path="url(#clip502)" style="stroke:#000000; stroke-linecap:round; stroke-linejoin:round; stroke-width:4; stroke-opacity:0.5; fill:none" points="2289.47,914.924 2289.47,1042.58 2312.02,1042.58 2312.02,914.924 2289.47,914.924 "/>
<path clip-path="url(#clip502)" d="M2317.65 684.212 L2317.65 1042.58 L2340.2 1042.58 L2340.2 684.212 L2317.65 684.212 L2317.65 684.212  Z" fill="#009af9" fill-rule="evenodd" fill-opacity="0.5"/>
<polyline clip-path="url(#clip502)" style="stroke:#000000; stroke-linecap:round; stroke-linejoin:round; stroke-width:4; stroke-opacity:0.5; fill:none" points="2317.65,684.212 2317.65,1042.58 2340.2,1042.58 2340.2,684.212 2317.65,684.212 "/>
<path clip-path="url(#clip502)" d="M2345.83 914.924 L2345.83 1042.58 L2368.38 1042.58 L2368.38 914.924 L2345.83 914.924 L2345.83 914.924  Z" fill="#009af9" fill-rule="evenodd" fill-opacity="0.5"/>
<polyline clip-path="url(#clip502)" style="stroke:#000000; stroke-linecap:round; stroke-linejoin:round; stroke-width:4; stroke-opacity:0.5; fill:none" points="2345.83,914.924 2345.83,1042.58 2368.38,1042.58 2368.38,914.924 2345.83,914.924 "/>
<path clip-path="url(#clip502)" d="M2374.01 840.253 L2374.01 1042.58 L2396.55 1042.58 L2396.55 840.253 L2374.01 840.253 L2374.01 840.253  Z" fill="#009af9" fill-rule="evenodd" fill-opacity="0.5"/>
<polyline clip-path="url(#clip502)" style="stroke:#000000; stroke-linecap:round; stroke-linejoin:round; stroke-width:4; stroke-opacity:0.5; fill:none" points="2374.01,840.253 2374.01,1042.58 2396.55,1042.58 2396.55,840.253 2374.01,840.253 "/>
<path clip-path="url(#clip502)" d="M2402.19 914.924 L2402.19 1042.58 L2424.73 1042.58 L2424.73 914.924 L2402.19 914.924 L2402.19 914.924  Z" fill="#009af9" fill-rule="evenodd" fill-opacity="0.5"/>
<polyline clip-path="url(#clip502)" style="stroke:#000000; stroke-linecap:round; stroke-linejoin:round; stroke-width:4; stroke-opacity:0.5; fill:none" points="2402.19,914.924 2402.19,1042.58 2424.73,1042.58 2424.73,914.924 2402.19,914.924 "/>
<path clip-path="url(#clip502)" d="M2430.37 914.924 L2430.37 1042.58 L2452.91 1042.58 L2452.91 914.924 L2430.37 914.924 L2430.37 914.924  Z" fill="#009af9" fill-rule="evenodd" fill-opacity="0.5"/>
<polyline clip-path="url(#clip502)" style="stroke:#000000; stroke-linecap:round; stroke-linejoin:round; stroke-width:4; stroke-opacity:0.5; fill:none" points="2430.37,914.924 2430.37,1042.58 2452.91,1042.58 2452.91,914.924 2430.37,914.924 "/>
<path clip-path="url(#clip502)" d="M2486.73 1042.58 L2486.73 1042.58 L2509.27 1042.58 L2509.27 1042.58 L2486.73 1042.58 L2486.73 1042.58  Z" fill="#009af9" fill-rule="evenodd" fill-opacity="0.5"/>
<polyline clip-path="url(#clip502)" style="stroke:#000000; stroke-linecap:round; stroke-linejoin:round; stroke-width:4; stroke-opacity:0.5; fill:none" points="2486.73,1042.58 2486.73,1042.58 2509.27,1042.58 2486.73,1042.58 "/>
<path clip-path="url(#clip502)" d="M2514.91 1042.58 L2514.91 1042.58 L2537.45 1042.58 L2537.45 1042.58 L2514.91 1042.58 L2514.91 1042.58  Z" fill="#009af9" fill-rule="evenodd" fill-opacity="0.5"/>
<polyline clip-path="url(#clip502)" style="stroke:#000000; stroke-linecap:round; stroke-linejoin:round; stroke-width:4; stroke-opacity:0.5; fill:none" points="2514.91,1042.58 2514.91,1042.58 2537.45,1042.58 2514.91,1042.58 "/>
<path clip-path="url(#clip502)" d="M2599.44 914.924 L2599.44 1042.58 L2621.99 1042.58 L2621.99 914.924 L2599.44 914.924 L2599.44 914.924  Z" fill="#009af9" fill-rule="evenodd" fill-opacity="0.5"/>
<polyline clip-path="url(#clip502)" style="stroke:#000000; stroke-linecap:round; stroke-linejoin:round; stroke-width:4; stroke-opacity:0.5; fill:none" points="2599.44,914.924 2599.44,1042.58 2621.99,1042.58 2621.99,914.924 2599.44,914.924 "/>
<path clip-path="url(#clip502)" d="M2627.62 914.924 L2627.62 1042.58 L2650.17 1042.58 L2650.17 914.924 L2627.62 914.924 L2627.62 914.924  Z" fill="#009af9" fill-rule="evenodd" fill-opacity="0.5"/>
<polyline clip-path="url(#clip502)" style="stroke:#000000; stroke-linecap:round; stroke-linejoin:round; stroke-width:4; stroke-opacity:0.5; fill:none" points="2627.62,914.924 2627.62,1042.58 2650.17,1042.58 2650.17,914.924 2627.62,914.924 "/>
<circle clip-path="url(#clip502)" style="fill:#009af9; stroke:none; fill-opacity:0" cx="300.018" cy="404.318" r="2"/>
<circle clip-path="url(#clip502)" style="fill:#009af9; stroke:none; fill-opacity:0" cx="328.198" cy="422.447" r="2"/>
<circle clip-path="url(#clip502)" style="fill:#009af9; stroke:none; fill-opacity:0" cx="356.377" cy="422.447" r="2"/>
<circle clip-path="url(#clip502)" style="fill:#009af9; stroke:none; fill-opacity:0" cx="384.556" cy="531.969" r="2"/>
<circle clip-path="url(#clip502)" style="fill:#009af9; stroke:none; fill-opacity:0" cx="412.735" cy="600.974" r="2"/>
<circle clip-path="url(#clip502)" style="fill:#009af9; stroke:none; fill-opacity:0" cx="440.915" cy="110.236" r="2"/>
<circle clip-path="url(#clip502)" style="fill:#009af9; stroke:none; fill-opacity:0" cx="469.094" cy="363.223" r="2"/>
<circle clip-path="url(#clip502)" style="fill:#009af9; stroke:none; fill-opacity:0" cx="497.273" cy="659.621" r="2"/>
<circle clip-path="url(#clip502)" style="fill:#009af9; stroke:none; fill-opacity:0" cx="525.452" cy="584.949" r="2"/>
<circle clip-path="url(#clip502)" style="fill:#009af9; stroke:none; fill-opacity:0" cx="553.632" cy="543.855" r="2"/>
<circle clip-path="url(#clip502)" style="fill:#009af9; stroke:none; fill-opacity:0" cx="581.811" cy="746.178" r="2"/>
<circle clip-path="url(#clip502)" style="fill:#009af9; stroke:none; fill-opacity:0" cx="609.99" cy="531.969" r="2"/>
<circle clip-path="url(#clip502)" style="fill:#009af9; stroke:none; fill-opacity:0" cx="638.169" cy="135.161" r="2"/>
<circle clip-path="url(#clip502)" style="fill:#009af9; stroke:none; fill-opacity:0" cx="666.349" cy="490.875" r="2"/>
<circle clip-path="url(#clip502)" style="fill:#009af9; stroke:none; fill-opacity:0" cx="694.528" cy="712.601" r="2"/>
<circle clip-path="url(#clip502)" style="fill:#009af9; stroke:none; fill-opacity:0" cx="722.707" cy="746.178" r="2"/>
<circle clip-path="url(#clip502)" style="fill:#009af9; stroke:none; fill-opacity:0" cx="750.886" cy="684.212" r="2"/>
<circle clip-path="url(#clip502)" style="fill:#009af9; stroke:none; fill-opacity:0" cx="779.066" cy="746.178" r="2"/>
<circle clip-path="url(#clip502)" style="fill:#009af9; stroke:none; fill-opacity:0" cx="807.245" cy="684.212" r="2"/>
<circle clip-path="url(#clip502)" style="fill:#009af9; stroke:none; fill-opacity:0" cx="835.424" cy="192.644" r="2"/>
<circle clip-path="url(#clip502)" style="fill:#009af9; stroke:none; fill-opacity:0" cx="863.603" cy="600.974" r="2"/>
<circle clip-path="url(#clip502)" style="fill:#009af9; stroke:none; fill-opacity:0" cx="891.783" cy="637.93" r="2"/>
<circle clip-path="url(#clip502)" style="fill:#009af9; stroke:none; fill-opacity:0" cx="919.962" cy="637.93" r="2"/>
<circle clip-path="url(#clip502)" style="fill:#009af9; stroke:none; fill-opacity:0" cx="948.141" cy="746.178" r="2"/>
<circle clip-path="url(#clip502)" style="fill:#009af9; stroke:none; fill-opacity:0" cx="976.32" cy="914.924" r="2"/>
<circle clip-path="url(#clip502)" style="fill:#009af9; stroke:none; fill-opacity:0" cx="1004.5" cy="712.601" r="2"/>
<circle clip-path="url(#clip502)" style="fill:#009af9; stroke:none; fill-opacity:0" cx="1032.68" cy="233.284" r="2"/>
<circle clip-path="url(#clip502)" style="fill:#009af9; stroke:none; fill-opacity:0" cx="1060.86" cy="584.949" r="2"/>
<circle clip-path="url(#clip502)" style="fill:#009af9; stroke:none; fill-opacity:0" cx="1089.04" cy="520.804" r="2"/>
<circle clip-path="url(#clip502)" style="fill:#009af9; stroke:none; fill-opacity:0" cx="1117.22" cy="684.212" r="2"/>
<circle clip-path="url(#clip502)" style="fill:#009af9; stroke:none; fill-opacity:0" cx="1145.4" cy="556.561" r="2"/>
<circle clip-path="url(#clip502)" style="fill:#009af9; stroke:none; fill-opacity:0" cx="1173.58" cy="914.924" r="2"/>
<circle clip-path="url(#clip502)" style="fill:#009af9; stroke:none; fill-opacity:0" cx="1201.75" cy="684.212" r="2"/>
<circle clip-path="url(#clip502)" style="fill:#009af9; stroke:none; fill-opacity:0" cx="1229.93" cy="329.646" r="2"/>
<circle clip-path="url(#clip502)" style="fill:#009af9; stroke:none; fill-opacity:0" cx="1258.11" cy="600.974" r="2"/>
<circle clip-path="url(#clip502)" style="fill:#009af9; stroke:none; fill-opacity:0" cx="1286.29" cy="712.601" r="2"/>
<circle clip-path="url(#clip502)" style="fill:#009af9; stroke:none; fill-opacity:0" cx="1314.47" cy="659.621" r="2"/>
<circle clip-path="url(#clip502)" style="fill:#009af9; stroke:none; fill-opacity:0" cx="1342.65" cy="637.93" r="2"/>
<circle clip-path="url(#clip502)" style="fill:#009af9; stroke:none; fill-opacity:0" cx="1370.83" cy="712.601" r="2"/>
<circle clip-path="url(#clip502)" style="fill:#009af9; stroke:none; fill-opacity:0" cx="1399.01" cy="787.272" r="2"/>
<circle clip-path="url(#clip502)" style="fill:#009af9; stroke:none; fill-opacity:0" cx="1427.19" cy="428.909" r="2"/>
<circle clip-path="url(#clip502)" style="fill:#009af9; stroke:none; fill-opacity:0" cx="1455.37" cy="659.621" r="2"/>
<circle clip-path="url(#clip502)" style="fill:#009af9; stroke:none; fill-opacity:0" cx="1483.55" cy="712.601" r="2"/>
<circle clip-path="url(#clip502)" style="fill:#009af9; stroke:none; fill-opacity:0" cx="1511.73" cy="584.949" r="2"/>
<circle clip-path="url(#clip502)" style="fill:#009af9; stroke:none; fill-opacity:0" cx="1539.91" cy="712.601" r="2"/>
<circle clip-path="url(#clip502)" style="fill:#009af9; stroke:none; fill-opacity:0" cx="1568.08" cy="840.253" r="2"/>
<circle clip-path="url(#clip502)" style="fill:#009af9; stroke:none; fill-opacity:0" cx="1596.26" cy="840.253" r="2"/>
<circle clip-path="url(#clip502)" style="fill:#009af9; stroke:none; fill-opacity:0" cx="1624.44" cy="428.909" r="2"/>
<circle clip-path="url(#clip502)" style="fill:#009af9; stroke:none; fill-opacity:0" cx="1652.62" cy="746.178" r="2"/>
<circle clip-path="url(#clip502)" style="fill:#009af9; stroke:none; fill-opacity:0" cx="1680.8" cy="684.212" r="2"/>
<circle clip-path="url(#clip502)" style="fill:#009af9; stroke:none; fill-opacity:0" cx="1708.98" cy="618.526" r="2"/>
<circle clip-path="url(#clip502)" style="fill:#009af9; stroke:none; fill-opacity:0" cx="1737.16" cy="556.561" r="2"/>
<circle clip-path="url(#clip502)" style="fill:#009af9; stroke:none; fill-opacity:0" cx="1765.34" cy="746.178" r="2"/>
<circle clip-path="url(#clip502)" style="fill:#009af9; stroke:none; fill-opacity:0" cx="1793.52" cy="746.178" r="2"/>
<circle clip-path="url(#clip502)" style="fill:#009af9; stroke:none; fill-opacity:0" cx="1821.7" cy="345.67" r="2"/>
<circle clip-path="url(#clip502)" style="fill:#009af9; stroke:none; fill-opacity:0" cx="1849.88" cy="712.601" r="2"/>
<circle clip-path="url(#clip502)" style="fill:#009af9; stroke:none; fill-opacity:0" cx="1878.06" cy="618.526" r="2"/>
<circle clip-path="url(#clip502)" style="fill:#009af9; stroke:none; fill-opacity:0" cx="1906.24" cy="584.949" r="2"/>
<circle clip-path="url(#clip502)" style="fill:#009af9; stroke:none; fill-opacity:0" cx="1934.41" cy="570.209" r="2"/>
<circle clip-path="url(#clip502)" style="fill:#009af9; stroke:none; fill-opacity:0" cx="1962.59" cy="914.924" r="2"/>
<circle clip-path="url(#clip502)" style="fill:#009af9; stroke:none; fill-opacity:0" cx="1990.77" cy="840.253" r="2"/>
<circle clip-path="url(#clip502)" style="fill:#009af9; stroke:none; fill-opacity:0" cx="2018.95" cy="442.557" r="2"/>
<circle clip-path="url(#clip502)" style="fill:#009af9; stroke:none; fill-opacity:0" cx="2047.13" cy="1042.58" r="2"/>
<circle clip-path="url(#clip502)" style="fill:#009af9; stroke:none; fill-opacity:0" cx="2075.31" cy="746.178" r="2"/>
<circle clip-path="url(#clip502)" style="fill:#009af9; stroke:none; fill-opacity:0" cx="2103.49" cy="787.272" r="2"/>
<circle clip-path="url(#clip502)" style="fill:#009af9; stroke:none; fill-opacity:0" cx="2131.67" cy="787.272" r="2"/>
<circle clip-path="url(#clip502)" style="fill:#009af9; stroke:none; fill-opacity:0" cx="2159.85" cy="914.924" r="2"/>
<circle clip-path="url(#clip502)" style="fill:#009af9; stroke:none; fill-opacity:0" cx="2216.21" cy="840.253" r="2"/>
<circle clip-path="url(#clip502)" style="fill:#009af9; stroke:none; fill-opacity:0" cx="2244.39" cy="712.601" r="2"/>
<circle clip-path="url(#clip502)" style="fill:#009af9; stroke:none; fill-opacity:0" cx="2272.57" cy="840.253" r="2"/>
<circle clip-path="url(#clip502)" style="fill:#009af9; stroke:none; fill-opacity:0" cx="2300.74" cy="914.924" r="2"/>
<circle clip-path="url(#clip502)" style="fill:#009af9; stroke:none; fill-opacity:0" cx="2328.92" cy="684.212" r="2"/>
<circle clip-path="url(#clip502)" style="fill:#009af9; stroke:none; fill-opacity:0" cx="2357.1" cy="914.924" r="2"/>
<circle clip-path="url(#clip502)" style="fill:#009af9; stroke:none; fill-opacity:0" cx="2385.28" cy="840.253" r="2"/>
<circle clip-path="url(#clip502)" style="fill:#009af9; stroke:none; fill-opacity:0" cx="2413.46" cy="914.924" r="2"/>
<circle clip-path="url(#clip502)" style="fill:#009af9; stroke:none; fill-opacity:0" cx="2441.64" cy="914.924" r="2"/>
<circle clip-path="url(#clip502)" style="fill:#009af9; stroke:none; fill-opacity:0" cx="2498" cy="1042.58" r="2"/>
<circle clip-path="url(#clip502)" style="fill:#009af9; stroke:none; fill-opacity:0" cx="2526.18" cy="1042.58" r="2"/>
<circle clip-path="url(#clip502)" style="fill:#009af9; stroke:none; fill-opacity:0" cx="2610.72" cy="914.924" r="2"/>
<circle clip-path="url(#clip502)" style="fill:#009af9; stroke:none; fill-opacity:0" cx="2638.9" cy="914.924" r="2"/>
</svg>
