<?xml version="1.0" encoding="utf-8"?>
<svg xmlns="http://www.w3.org/2000/svg" xmlns:xlink="http://www.w3.org/1999/xlink" width="800" height="300" viewBox="0 0 3200 1200">
<defs>
  <clipPath id="clip330">
    <rect x="0" y="0" width="3200" height="1200"/>
  </clipPath>
</defs>
<path clip-path="url(#clip330)" d="M0 1200 L3200 1200 L3200 0 L0 0  Z" fill="#ffffff" fill-rule="evenodd" fill-opacity="1"/>
<defs>
  <clipPath id="clip331">
    <rect x="640" y="0" width="2241" height="1200"/>
  </clipPath>
</defs>
<path clip-path="url(#clip330)" d="M271.839 1042.58 L3089.76 1042.58 L3089.76 110.236 L271.839 110.236  Z" fill="#ffffff" fill-rule="evenodd" fill-opacity="1"/>
<defs>
  <clipPath id="clip332">
    <rect x="271" y="110" width="2819" height="933"/>
  </clipPath>
</defs>
<polyline clip-path="url(#clip332)" style="stroke:#000000; stroke-linecap:round; stroke-linejoin:round; stroke-width:2; stroke-opacity:0.1; fill:none" points="553.632,1042.58 553.632,110.236 "/>
<polyline clip-path="url(#clip332)" style="stroke:#000000; stroke-linecap:round; stroke-linejoin:round; stroke-width:2; stroke-opacity:0.1; fill:none" points="1399.01,1042.58 1399.01,110.236 "/>
<polyline clip-path="url(#clip332)" style="stroke:#000000; stroke-linecap:round; stroke-linejoin:round; stroke-width:2; stroke-opacity:0.1; fill:none" points="2272.57,1042.58 2272.57,110.236 "/>
<polyline clip-path="url(#clip330)" style="stroke:#000000; stroke-linecap:round; stroke-linejoin:round; stroke-width:4; stroke-opacity:1; fill:none" points="271.839,1042.58 3089.76,1042.58 "/>
<polyline clip-path="url(#clip330)" style="stroke:#000000; stroke-linecap:round; stroke-linejoin:round; stroke-width:4; stroke-opacity:1; fill:none" points="553.632,1042.58 553.632,1023.68 "/>
<polyline clip-path="url(#clip330)" style="stroke:#000000; stroke-linecap:round; stroke-linejoin:round; stroke-width:4; stroke-opacity:1; fill:none" points="1399.01,1042.58 1399.01,1023.68 "/>
<polyline clip-path="url(#clip330)" style="stroke:#000000; stroke-linecap:round; stroke-linejoin:round; stroke-width:4; stroke-opacity:1; fill:none" points="2272.57,1042.58 2272.57,1023.68 "/>
<path clip-path="url(#clip330)" d="M425.426 1107.44 L441.746 1107.44 L441.746 1111.38 L419.801 1111.38 L419.801 1107.44 Q422.463 1104.69 427.047 1100.06 Q431.653 1095.4 432.834 1094.06 Q435.079 1091.54 435.959 1089.8 Q436.861 1088.04 436.861 1086.35 Q436.861 1083.6 434.917 1081.86 Q432.996 1080.13 429.894 1080.13 Q427.695 1080.13 425.241 1080.89 Q422.811 1081.65 420.033 1083.2 L420.033 1078.48 Q422.857 1077.35 425.311 1076.77 Q427.764 1076.19 429.801 1076.19 Q435.172 1076.19 438.366 1078.88 Q441.561 1081.56 441.561 1086.05 Q441.561 1088.18 440.75 1090.1 Q439.963 1092 437.857 1094.59 Q437.278 1095.26 434.176 1098.48 Q431.074 1101.68 425.426 1107.44 Z" fill="#000000" fill-rule="nonzero" fill-opacity="1" /><path clip-path="url(#clip330)" d="M461.56 1079.89 Q457.949 1079.89 456.121 1083.46 Q454.315 1087 454.315 1094.13 Q454.315 1101.24 456.121 1104.8 Q457.949 1108.34 461.56 1108.34 Q465.195 1108.34 467 1104.8 Q468.829 1101.24 468.829 1094.13 Q468.829 1087 467 1083.46 Q465.195 1079.89 461.56 1079.89 M461.56 1076.19 Q467.371 1076.19 470.426 1080.8 Q473.505 1085.38 473.505 1094.13 Q473.505 1102.86 470.426 1107.46 Q467.371 1112.05 461.56 1112.05 Q455.75 1112.05 452.672 1107.46 Q449.616 1102.86 449.616 1094.13 Q449.616 1085.38 452.672 1080.8 Q455.75 1076.19 461.56 1076.19 Z" fill="#000000" fill-rule="nonzero" fill-opacity="1" /><path clip-path="url(#clip330)" d="M485.75 1107.44 L502.069 1107.44 L502.069 1111.38 L480.125 1111.38 L480.125 1107.44 Q482.787 1104.69 487.37 1100.06 Q491.977 1095.4 493.157 1094.06 Q495.403 1091.54 496.282 1089.8 Q497.185 1088.04 497.185 1086.35 Q497.185 1083.6 495.241 1081.86 Q493.319 1080.13 490.218 1080.13 Q488.019 1080.13 485.565 1080.89 Q483.134 1081.65 480.357 1083.2 L480.357 1078.48 Q483.181 1077.35 485.634 1076.77 Q488.088 1076.19 490.125 1076.19 Q495.495 1076.19 498.69 1078.88 Q501.884 1081.56 501.884 1086.05 Q501.884 1088.18 501.074 1090.1 Q500.287 1092 498.181 1094.59 Q497.602 1095.26 494.5 1098.48 Q491.398 1101.68 485.75 1107.44 Z" fill="#000000" fill-rule="nonzero" fill-opacity="1" /><path clip-path="url(#clip330)" d="M524.731 1080.89 L512.926 1099.34 L524.731 1099.34 L524.731 1080.89 M523.505 1076.82 L529.384 1076.82 L529.384 1099.34 L534.315 1099.34 L534.315 1103.23 L529.384 1103.23 L529.384 1111.38 L524.731 1111.38 L524.731 1103.23 L509.13 1103.23 L509.13 1098.71 L523.505 1076.82 Z" fill="#000000" fill-rule="nonzero" fill-opacity="1" /><path clip-path="url(#clip330)" d="M539.291 1096.49 L551.768 1096.49 L551.768 1100.29 L539.291 1100.29 L539.291 1096.49 Z" fill="#000000" fill-rule="nonzero" fill-opacity="1" /><path clip-path="url(#clip330)" d="M569.152 1079.89 Q565.541 1079.89 563.713 1083.46 Q561.907 1087 561.907 1094.13 Q561.907 1101.24 563.713 1104.8 Q565.541 1108.34 569.152 1108.34 Q572.787 1108.34 574.592 1104.8 Q576.421 1101.24 576.421 1094.13 Q576.421 1087 574.592 1083.46 Q572.787 1079.89 569.152 1079.89 M569.152 1076.19 Q574.963 1076.19 578.018 1080.8 Q581.097 1085.38 581.097 1094.13 Q581.097 1102.86 578.018 1107.46 Q574.963 1112.05 569.152 1112.05 Q563.342 1112.05 560.264 1107.46 Q557.208 1102.86 557.208 1094.13 Q557.208 1085.38 560.264 1080.8 Q563.342 1076.19 569.152 1076.19 Z" fill="#000000" fill-rule="nonzero" fill-opacity="1" /><path clip-path="url(#clip330)" d="M589.453 1110.66 L589.453 1106.4 Q591.212 1107.23 593.018 1107.67 Q594.824 1108.11 596.56 1108.11 Q601.189 1108.11 603.62 1105.01 Q606.074 1101.89 606.421 1095.54 Q605.078 1097.53 603.018 1098.6 Q600.958 1099.66 598.458 1099.66 Q593.273 1099.66 590.24 1096.54 Q587.231 1093.39 587.231 1087.95 Q587.231 1082.63 590.379 1079.41 Q593.527 1076.19 598.759 1076.19 Q604.754 1076.19 607.902 1080.8 Q611.073 1085.38 611.073 1094.13 Q611.073 1102.3 607.185 1107.19 Q603.319 1112.05 596.768 1112.05 Q595.009 1112.05 593.203 1111.7 Q591.398 1111.35 589.453 1110.66 M598.759 1096.01 Q601.907 1096.01 603.736 1093.85 Q605.587 1091.7 605.587 1087.95 Q605.587 1084.22 603.736 1082.07 Q601.907 1079.89 598.759 1079.89 Q595.611 1079.89 593.759 1082.07 Q591.93 1084.22 591.93 1087.95 Q591.93 1091.7 593.759 1093.85 Q595.611 1096.01 598.759 1096.01 Z" fill="#000000" fill-rule="nonzero" fill-opacity="1" /><path clip-path="url(#clip330)" d="M616.722 1096.49 L629.198 1096.49 L629.198 1100.29 L616.722 1100.29 L616.722 1096.49 Z" fill="#000000" fill-rule="nonzero" fill-opacity="1" /><path clip-path="url(#clip330)" d="M646.583 1079.89 Q642.971 1079.89 641.143 1083.46 Q639.337 1087 639.337 1094.13 Q639.337 1101.24 641.143 1104.8 Q642.971 1108.34 646.583 1108.34 Q650.217 1108.34 652.022 1104.8 Q653.851 1101.24 653.851 1094.13 Q653.851 1087 652.022 1083.46 Q650.217 1079.89 646.583 1079.89 M646.583 1076.19 Q652.393 1076.19 655.448 1080.8 Q658.527 1085.38 658.527 1094.13 Q658.527 1102.86 655.448 1107.46 Q652.393 1112.05 646.583 1112.05 Q640.772 1112.05 637.694 1107.46 Q634.638 1102.86 634.638 1094.13 Q634.638 1085.38 637.694 1080.8 Q640.772 1076.19 646.583 1076.19 Z" fill="#000000" fill-rule="nonzero" fill-opacity="1" /><path clip-path="url(#clip330)" d="M667.555 1107.44 L675.194 1107.44 L675.194 1081.07 L666.883 1082.74 L666.883 1078.48 L675.147 1076.82 L679.823 1076.82 L679.823 1107.44 L687.462 1107.44 L687.462 1111.38 L667.555 1111.38 L667.555 1107.44 Z" fill="#000000" fill-rule="nonzero" fill-opacity="1" /><path clip-path="url(#clip330)" d="M1270.8 1107.44 L1287.12 1107.44 L1287.12 1111.38 L1265.18 1111.38 L1265.18 1107.44 Q1267.84 1104.69 1272.42 1100.06 Q1277.03 1095.4 1278.21 1094.06 Q1280.46 1091.54 1281.34 1089.8 Q1282.24 1088.04 1282.24 1086.35 Q1282.24 1083.6 1280.29 1081.86 Q1278.37 1080.13 1275.27 1080.13 Q1273.07 1080.13 1270.62 1080.89 Q1268.19 1081.65 1265.41 1083.2 L1265.41 1078.48 Q1268.23 1077.35 1270.69 1076.77 Q1273.14 1076.19 1275.18 1076.19 Q1280.55 1076.19 1283.74 1078.88 Q1286.94 1081.56 1286.94 1086.05 Q1286.94 1088.18 1286.13 1090.1 Q1285.34 1092 1283.23 1094.59 Q1282.66 1095.26 1279.55 1098.48 Q1276.45 1101.68 1270.8 1107.44 Z" fill="#000000" fill-rule="nonzero" fill-opacity="1" /><path clip-path="url(#clip330)" d="M1306.94 1079.89 Q1303.33 1079.89 1301.5 1083.46 Q1299.69 1087 1299.69 1094.13 Q1299.69 1101.24 1301.5 1104.8 Q1303.33 1108.34 1306.94 1108.34 Q1310.57 1108.34 1312.38 1104.8 Q1314.21 1101.24 1314.21 1094.13 Q1314.21 1087 1312.38 1083.46 Q1310.57 1079.89 1306.94 1079.89 M1306.94 1076.19 Q1312.75 1076.19 1315.8 1080.8 Q1318.88 1085.38 1318.88 1094.13 Q1318.88 1102.86 1315.8 1107.46 Q1312.75 1112.05 1306.94 1112.05 Q1301.13 1112.05 1298.05 1107.46 Q1294.99 1102.86 1294.99 1094.13 Q1294.99 1085.38 1298.05 1080.8 Q1301.13 1076.19 1306.94 1076.19 Z" fill="#000000" fill-rule="nonzero" fill-opacity="1" /><path clip-path="url(#clip330)" d="M1331.13 1107.44 L1347.45 1107.44 L1347.45 1111.38 L1325.5 1111.38 L1325.5 1107.44 Q1328.16 1104.69 1332.75 1100.06 Q1337.35 1095.4 1338.53 1094.06 Q1340.78 1091.54 1341.66 1089.8 Q1342.56 1088.04 1342.56 1086.35 Q1342.56 1083.6 1340.62 1081.86 Q1338.7 1080.13 1335.6 1080.13 Q1333.4 1080.13 1330.94 1080.89 Q1328.51 1081.65 1325.73 1083.2 L1325.73 1078.48 Q1328.56 1077.35 1331.01 1076.77 Q1333.47 1076.19 1335.5 1076.19 Q1340.87 1076.19 1344.07 1078.88 Q1347.26 1081.56 1347.26 1086.05 Q1347.26 1088.18 1346.45 1090.1 Q1345.66 1092 1343.56 1094.59 Q1342.98 1095.26 1339.88 1098.48 Q1336.78 1101.68 1331.13 1107.44 Z" fill="#000000" fill-rule="nonzero" fill-opacity="1" /><path clip-path="url(#clip330)" d="M1370.11 1080.89 L1358.3 1099.34 L1370.11 1099.34 L1370.11 1080.89 M1368.88 1076.82 L1374.76 1076.82 L1374.76 1099.34 L1379.69 1099.34 L1379.69 1103.23 L1374.76 1103.23 L1374.76 1111.38 L1370.11 1111.38 L1370.11 1103.23 L1354.51 1103.23 L1354.51 1098.71 L1368.88 1076.82 Z" fill="#000000" fill-rule="nonzero" fill-opacity="1" /><path clip-path="url(#clip330)" d="M1384.67 1096.49 L1397.15 1096.49 L1397.15 1100.29 L1384.67 1100.29 L1384.67 1096.49 Z" fill="#000000" fill-rule="nonzero" fill-opacity="1" /><path clip-path="url(#clip330)" d="M1405.34 1107.44 L1412.98 1107.44 L1412.98 1081.07 L1404.67 1082.74 L1404.67 1078.48 L1412.93 1076.82 L1417.61 1076.82 L1417.61 1107.44 L1425.25 1107.44 L1425.25 1111.38 L1405.34 1111.38 L1405.34 1107.44 Z" fill="#000000" fill-rule="nonzero" fill-opacity="1" /><path clip-path="url(#clip330)" d="M1444.69 1079.89 Q1441.08 1079.89 1439.25 1083.46 Q1437.45 1087 1437.45 1094.13 Q1437.45 1101.24 1439.25 1104.8 Q1441.08 1108.34 1444.69 1108.34 Q1448.33 1108.34 1450.13 1104.8 Q1451.96 1101.24 1451.96 1094.13 Q1451.96 1087 1450.13 1083.46 Q1448.33 1079.89 1444.69 1079.89 M1444.69 1076.19 Q1450.5 1076.19 1453.56 1080.8 Q1456.64 1085.38 1456.64 1094.13 Q1456.64 1102.86 1453.56 1107.46 Q1450.5 1112.05 1444.69 1112.05 Q1438.88 1112.05 1435.8 1107.46 Q1432.75 1102.86 1432.75 1094.13 Q1432.75 1085.38 1435.8 1080.8 Q1438.88 1076.19 1444.69 1076.19 Z" fill="#000000" fill-rule="nonzero" fill-opacity="1" /><path clip-path="url(#clip330)" d="M1462.1 1096.49 L1474.58 1096.49 L1474.58 1100.29 L1462.1 1100.29 L1462.1 1096.49 Z" fill="#000000" fill-rule="nonzero" fill-opacity="1" /><path clip-path="url(#clip330)" d="M1491.96 1079.89 Q1488.35 1079.89 1486.52 1083.46 Q1484.71 1087 1484.71 1094.13 Q1484.71 1101.24 1486.52 1104.8 Q1488.35 1108.34 1491.96 1108.34 Q1495.59 1108.34 1497.4 1104.8 Q1499.23 1101.24 1499.23 1094.13 Q1499.23 1087 1497.4 1083.46 Q1495.59 1079.89 1491.96 1079.89 M1491.96 1076.19 Q1497.77 1076.19 1500.83 1080.8 Q1503.9 1085.38 1503.9 1094.13 Q1503.9 1102.86 1500.83 1107.46 Q1497.77 1112.05 1491.96 1112.05 Q1486.15 1112.05 1483.07 1107.46 Q1480.02 1102.86 1480.02 1094.13 Q1480.02 1085.38 1483.07 1080.8 Q1486.15 1076.19 1491.96 1076.19 Z" fill="#000000" fill-rule="nonzero" fill-opacity="1" /><path clip-path="url(#clip330)" d="M1512.93 1107.44 L1520.57 1107.44 L1520.57 1081.07 L1512.26 1082.74 L1512.26 1078.48 L1520.52 1076.82 L1525.2 1076.82 L1525.2 1107.44 L1532.84 1107.44 L1532.84 1111.38 L1512.93 1111.38 L1512.93 1107.44 Z" fill="#000000" fill-rule="nonzero" fill-opacity="1" /><path clip-path="url(#clip330)" d="M2144.36 1107.44 L2160.68 1107.44 L2160.68 1111.38 L2138.74 1111.38 L2138.74 1107.44 Q2141.4 1104.69 2145.98 1100.06 Q2150.59 1095.4 2151.77 1094.06 Q2154.01 1091.54 2154.89 1089.8 Q2155.8 1088.04 2155.8 1086.35 Q2155.8 1083.6 2153.85 1081.86 Q2151.93 1080.13 2148.83 1080.13 Q2146.63 1080.13 2144.18 1080.89 Q2141.74 1081.65 2138.97 1083.2 L2138.97 1078.48 Q2141.79 1077.35 2144.24 1076.77 Q2146.7 1076.19 2148.74 1076.19 Q2154.11 1076.19 2157.3 1078.88 Q2160.49 1081.56 2160.49 1086.05 Q2160.49 1088.18 2159.68 1090.1 Q2158.9 1092 2156.79 1094.59 Q2156.21 1095.26 2153.11 1098.48 Q2150.01 1101.68 2144.36 1107.44 Z" fill="#000000" fill-rule="nonzero" fill-opacity="1" /><path clip-path="url(#clip330)" d="M2180.49 1079.89 Q2176.88 1079.89 2175.05 1083.46 Q2173.25 1087 2173.25 1094.13 Q2173.25 1101.24 2175.05 1104.8 Q2176.88 1108.34 2180.49 1108.34 Q2184.13 1108.34 2185.93 1104.8 Q2187.76 1101.24 2187.76 1094.13 Q2187.76 1087 2185.93 1083.46 Q2184.13 1079.89 2180.49 1079.89 M2180.49 1076.19 Q2186.3 1076.19 2189.36 1080.8 Q2192.44 1085.38 2192.44 1094.13 Q2192.44 1102.86 2189.36 1107.46 Q2186.3 1112.05 2180.49 1112.05 Q2174.68 1112.05 2171.61 1107.46 Q2168.55 1102.86 2168.55 1094.13 Q2168.55 1085.38 2171.61 1080.8 Q2174.68 1076.19 2180.49 1076.19 Z" fill="#000000" fill-rule="nonzero" fill-opacity="1" /><path clip-path="url(#clip330)" d="M2204.68 1107.44 L2221 1107.44 L2221 1111.38 L2199.06 1111.38 L2199.06 1107.44 Q2201.72 1104.69 2206.3 1100.06 Q2210.91 1095.4 2212.09 1094.06 Q2214.34 1091.54 2215.22 1089.8 Q2216.12 1088.04 2216.12 1086.35 Q2216.12 1083.6 2214.17 1081.86 Q2212.25 1080.13 2209.15 1080.13 Q2206.95 1080.13 2204.5 1080.89 Q2202.07 1081.65 2199.29 1083.2 L2199.29 1078.48 Q2202.11 1077.35 2204.57 1076.77 Q2207.02 1076.19 2209.06 1076.19 Q2214.43 1076.19 2217.62 1078.88 Q2220.82 1081.56 2220.82 1086.05 Q2220.82 1088.18 2220.01 1090.1 Q2219.22 1092 2217.11 1094.59 Q2216.54 1095.26 2213.43 1098.48 Q2210.33 1101.68 2204.68 1107.44 Z" fill="#000000" fill-rule="nonzero" fill-opacity="1" /><path clip-path="url(#clip330)" d="M2243.67 1080.89 L2231.86 1099.34 L2243.67 1099.34 L2243.67 1080.89 M2242.44 1076.82 L2248.32 1076.82 L2248.32 1099.34 L2253.25 1099.34 L2253.25 1103.23 L2248.32 1103.23 L2248.32 1111.38 L2243.67 1111.38 L2243.67 1103.23 L2228.06 1103.23 L2228.06 1098.71 L2242.44 1076.82 Z" fill="#000000" fill-rule="nonzero" fill-opacity="1" /><path clip-path="url(#clip330)" d="M2258.23 1096.49 L2270.7 1096.49 L2270.7 1100.29 L2258.23 1100.29 L2258.23 1096.49 Z" fill="#000000" fill-rule="nonzero" fill-opacity="1" /><path clip-path="url(#clip330)" d="M2278.9 1107.44 L2286.54 1107.44 L2286.54 1081.07 L2278.23 1082.74 L2278.23 1078.48 L2286.49 1076.82 L2291.17 1076.82 L2291.17 1107.44 L2298.8 1107.44 L2298.8 1111.38 L2278.9 1111.38 L2278.9 1107.44 Z" fill="#000000" fill-rule="nonzero" fill-opacity="1" /><path clip-path="url(#clip330)" d="M2309.06 1107.44 L2316.7 1107.44 L2316.7 1081.07 L2308.39 1082.74 L2308.39 1078.48 L2316.65 1076.82 L2321.33 1076.82 L2321.33 1107.44 L2328.97 1107.44 L2328.97 1111.38 L2309.06 1111.38 L2309.06 1107.44 Z" fill="#000000" fill-rule="nonzero" fill-opacity="1" /><path clip-path="url(#clip330)" d="M2335.66 1096.49 L2348.13 1096.49 L2348.13 1100.29 L2335.66 1100.29 L2335.66 1096.49 Z" fill="#000000" fill-rule="nonzero" fill-opacity="1" /><path clip-path="url(#clip330)" d="M2365.52 1079.89 Q2361.91 1079.89 2360.08 1083.46 Q2358.27 1087 2358.27 1094.13 Q2358.27 1101.24 2360.08 1104.8 Q2361.91 1108.34 2365.52 1108.34 Q2369.15 1108.34 2370.96 1104.8 Q2372.79 1101.24 2372.79 1094.13 Q2372.79 1087 2370.96 1083.46 Q2369.15 1079.89 2365.52 1079.89 M2365.52 1076.19 Q2371.33 1076.19 2374.38 1080.8 Q2377.46 1085.38 2377.46 1094.13 Q2377.46 1102.86 2374.38 1107.46 Q2371.33 1112.05 2365.52 1112.05 Q2359.71 1112.05 2356.63 1107.46 Q2353.57 1102.86 2353.57 1094.13 Q2353.57 1085.38 2356.63 1080.8 Q2359.71 1076.19 2365.52 1076.19 Z" fill="#000000" fill-rule="nonzero" fill-opacity="1" /><path clip-path="url(#clip330)" d="M2386.49 1107.44 L2394.13 1107.44 L2394.13 1081.07 L2385.82 1082.74 L2385.82 1078.48 L2394.08 1076.82 L2398.76 1076.82 L2398.76 1107.44 L2406.4 1107.44 L2406.4 1111.38 L2386.49 1111.38 L2386.49 1107.44 Z" fill="#000000" fill-rule="nonzero" fill-opacity="1" /><polyline clip-path="url(#clip332)" style="stroke:#000000; stroke-linecap:round; stroke-linejoin:round; stroke-width:2; stroke-opacity:0.1; fill:none" points="271.839,1042.58 3089.76,1042.58 "/>
<polyline clip-path="url(#clip332)" style="stroke:#000000; stroke-linecap:round; stroke-linejoin:round; stroke-width:2; stroke-opacity:0.1; fill:none" points="271.839,593.374 3089.76,593.374 "/>
<polyline clip-path="url(#clip332)" style="stroke:#000000; stroke-linecap:round; stroke-linejoin:round; stroke-width:2; stroke-opacity:0.1; fill:none" points="271.839,144.172 3089.76,144.172 "/>
<polyline clip-path="url(#clip330)" style="stroke:#000000; stroke-linecap:round; stroke-linejoin:round; stroke-width:4; stroke-opacity:1; fill:none" points="271.839,1042.58 271.839,110.236 "/>
<polyline clip-path="url(#clip330)" style="stroke:#000000; stroke-linecap:round; stroke-linejoin:round; stroke-width:4; stroke-opacity:1; fill:none" points="271.839,1042.58 290.737,1042.58 "/>
<polyline clip-path="url(#clip330)" style="stroke:#000000; stroke-linecap:round; stroke-linejoin:round; stroke-width:4; stroke-opacity:1; fill:none" points="271.839,593.374 290.737,593.374 "/>
<polyline clip-path="url(#clip330)" style="stroke:#000000; stroke-linecap:round; stroke-linejoin:round; stroke-width:4; stroke-opacity:1; fill:none" points="271.839,144.172 290.737,144.172 "/>
<path clip-path="url(#clip330)" d="M153.134 1062.37 L160.772 1062.37 L160.772 1036 L152.462 1037.67 L152.462 1033.41 L160.726 1031.74 L165.402 1031.74 L165.402 1062.37 L173.041 1062.37 L173.041 1066.3 L153.134 1066.3 L153.134 1062.37 Z" fill="#000000" fill-rule="nonzero" fill-opacity="1" /><path clip-path="url(#clip330)" d="M192.485 1034.82 Q188.874 1034.82 187.045 1038.39 Q185.24 1041.93 185.24 1049.06 Q185.24 1056.16 187.045 1059.73 Q188.874 1063.27 192.485 1063.27 Q196.119 1063.27 197.925 1059.73 Q199.754 1056.16 199.754 1049.06 Q199.754 1041.93 197.925 1038.39 Q196.119 1034.82 192.485 1034.82 M192.485 1031.12 Q198.295 1031.12 201.351 1035.72 Q204.43 1040.31 204.43 1049.06 Q204.43 1057.78 201.351 1062.39 Q198.295 1066.97 192.485 1066.97 Q186.675 1066.97 183.596 1062.39 Q180.541 1057.78 180.541 1049.06 Q180.541 1040.31 183.596 1035.72 Q186.675 1031.12 192.485 1031.12 Z" fill="#000000" fill-rule="nonzero" fill-opacity="1" /><path clip-path="url(#clip330)" d="M214.134 1013.31 Q211.2 1013.31 209.715 1016.21 Q208.248 1019.09 208.248 1024.88 Q208.248 1030.66 209.715 1033.55 Q211.2 1036.43 214.134 1036.43 Q217.087 1036.43 218.554 1033.55 Q220.04 1030.66 220.04 1024.88 Q220.04 1019.09 218.554 1016.21 Q217.087 1013.31 214.134 1013.31 M214.134 1010.31 Q218.855 1010.31 221.338 1014.05 Q223.839 1017.77 223.839 1024.88 Q223.839 1031.97 221.338 1035.71 Q218.855 1039.44 214.134 1039.44 Q209.414 1039.44 206.912 1035.71 Q204.43 1031.97 204.43 1024.88 Q204.43 1017.77 206.912 1014.05 Q209.414 1010.31 214.134 1010.31 Z" fill="#000000" fill-rule="nonzero" fill-opacity="1" /><path clip-path="url(#clip330)" d="M155.823 613.166 L163.462 613.166 L163.462 586.801 L155.152 588.467 L155.152 584.208 L163.416 582.542 L168.092 582.542 L168.092 613.166 L175.73 613.166 L175.73 617.102 L155.823 617.102 L155.823 613.166 Z" fill="#000000" fill-rule="nonzero" fill-opacity="1" /><path clip-path="url(#clip330)" d="M195.175 585.62 Q191.564 585.62 189.735 589.185 Q187.929 592.727 187.929 599.856 Q187.929 606.963 189.735 610.527 Q191.564 614.069 195.175 614.069 Q198.809 614.069 200.615 610.527 Q202.443 606.963 202.443 599.856 Q202.443 592.727 200.615 589.185 Q198.809 585.62 195.175 585.62 M195.175 581.917 Q200.985 581.917 204.04 586.523 Q207.119 591.106 207.119 599.856 Q207.119 608.583 204.04 613.189 Q200.985 617.773 195.175 617.773 Q189.365 617.773 186.286 613.189 Q183.23 608.583 183.23 599.856 Q183.23 591.106 186.286 586.523 Q189.365 581.917 195.175 581.917 Z" fill="#000000" fill-rule="nonzero" fill-opacity="1" /><path clip-path="url(#clip330)" d="M207.665 586.494 L213.871 586.494 L213.871 565.072 L207.119 566.426 L207.119 562.965 L213.833 561.611 L217.633 561.611 L217.633 586.494 L223.839 586.494 L223.839 589.691 L207.665 589.691 L207.665 586.494 Z" fill="#000000" fill-rule="nonzero" fill-opacity="1" /><path clip-path="url(#clip330)" d="M154.713 163.964 L162.352 163.964 L162.352 137.599 L154.042 139.266 L154.042 135.006 L162.306 133.34 L166.982 133.34 L166.982 163.964 L174.621 163.964 L174.621 167.9 L154.713 167.9 L154.713 163.964 Z" fill="#000000" fill-rule="nonzero" fill-opacity="1" /><path clip-path="url(#clip330)" d="M194.065 136.418 Q190.454 136.418 188.625 139.983 Q186.82 143.525 186.82 150.654 Q186.82 157.761 188.625 161.326 Q190.454 164.867 194.065 164.867 Q197.699 164.867 199.505 161.326 Q201.334 157.761 201.334 150.654 Q201.334 143.525 199.505 139.983 Q197.699 136.418 194.065 136.418 M194.065 132.715 Q199.875 132.715 202.931 137.321 Q206.009 141.904 206.009 150.654 Q206.009 159.381 202.931 163.988 Q199.875 168.571 194.065 168.571 Q188.255 168.571 185.176 163.988 Q182.121 159.381 182.121 150.654 Q182.121 141.904 185.176 137.321 Q188.255 132.715 194.065 132.715 Z" fill="#000000" fill-rule="nonzero" fill-opacity="1" /><path clip-path="url(#clip330)" d="M210.58 137.292 L223.839 137.292 L223.839 140.489 L206.009 140.489 L206.009 137.292 Q208.172 135.054 211.896 131.292 Q215.639 127.512 216.598 126.421 Q218.423 124.371 219.137 122.96 Q219.871 121.531 219.871 120.158 Q219.871 117.92 218.291 116.509 Q216.73 115.099 214.21 115.099 Q212.423 115.099 210.429 115.719 Q208.454 116.34 206.198 117.6 L206.198 113.763 Q208.492 112.842 210.486 112.372 Q212.479 111.901 214.134 111.901 Q218.498 111.901 221.093 114.083 Q223.689 116.265 223.689 119.914 Q223.689 121.644 223.03 123.205 Q222.391 124.747 220.68 126.854 Q220.209 127.399 217.689 130.013 Q215.169 132.609 210.58 137.292 Z" fill="#000000" fill-rule="nonzero" fill-opacity="1" /><path clip-path="url(#clip330)" d="M83.4268 952.253 L70.6636 952.253 L70.6636 962.757 L65.38 962.757 L65.38 945.888 L85.7821 945.888 Q88.4239 949.611 89.7925 954.099 Q91.1293 958.587 91.1293 963.68 Q91.1293 974.82 84.6363 981.122 Q78.1114 987.392 66.494 987.392 Q54.8448 987.392 48.3518 981.122 Q41.8269 974.82 41.8269 963.68 Q41.8269 959.033 42.9727 954.863 Q44.1186 950.662 46.3466 947.129 L53.1897 947.129 Q50.166 950.694 48.6382 954.704 Q47.1104 958.714 47.1104 963.139 Q47.1104 971.86 51.9802 976.252 Q56.85 980.612 66.494 980.612 Q76.1062 980.612 80.976 976.252 Q85.8458 971.86 85.8458 963.139 Q85.8458 959.733 85.2729 957.059 Q84.6681 954.386 83.4268 952.253 Z" fill="#000000" fill-rule="nonzero" fill-opacity="1" /><path clip-path="url(#clip330)" d="M70.9182 903.906 L73.7828 903.906 L73.7828 930.833 Q79.8302 930.451 83.013 927.204 Q86.1641 923.926 86.1641 918.101 Q86.1641 914.727 85.3365 911.576 Q84.509 908.393 82.8539 905.274 L88.3921 905.274 Q89.7289 908.425 90.4291 911.735 Q91.1293 915.046 91.1293 918.451 Q91.1293 926.981 86.1641 931.978 Q81.1988 936.944 72.7324 936.944 Q63.9796 936.944 58.8552 932.233 Q53.699 927.491 53.699 919.47 Q53.699 912.277 58.3459 908.107 Q62.9611 903.906 70.9182 903.906 M69.1995 909.762 Q64.3933 909.826 61.5288 912.468 Q58.6642 915.077 58.6642 919.406 Q58.6642 924.308 61.4333 927.268 Q64.2024 930.196 69.2313 930.642 L69.1995 909.762 Z" fill="#000000" fill-rule="nonzero" fill-opacity="1" /><path clip-path="url(#clip330)" d="M68.6902 864.661 L90.2063 864.661 L90.2063 870.518 L68.8812 870.518 Q63.8204 870.518 61.306 872.491 Q58.7915 874.464 58.7915 878.411 Q58.7915 883.153 61.8152 885.891 Q64.8389 888.628 70.0588 888.628 L90.2063 888.628 L90.2063 894.516 L54.5583 894.516 L54.5583 888.628 L60.0965 888.628 Q56.8818 886.527 55.2904 883.695 Q53.699 880.83 53.699 877.106 Q53.699 870.963 57.5184 867.812 Q61.306 864.661 68.6902 864.661 Z" fill="#000000" fill-rule="nonzero" fill-opacity="1" /><path clip-path="url(#clip330)" d="M58.6642 839.166 Q58.6642 843.877 62.3563 846.614 Q66.0166 849.352 72.4141 849.352 Q78.8117 849.352 82.5038 846.646 Q86.1641 843.909 86.1641 839.166 Q86.1641 834.488 82.4719 831.75 Q78.7798 829.013 72.4141 829.013 Q66.0803 829.013 62.3881 831.75 Q58.6642 834.488 58.6642 839.166 M53.699 839.166 Q53.699 831.528 58.6642 827.167 Q63.6295 822.807 72.4141 822.807 Q81.167 822.807 86.1641 827.167 Q91.1293 831.528 91.1293 839.166 Q91.1293 846.837 86.1641 851.198 Q81.167 855.526 72.4141 855.526 Q63.6295 855.526 58.6642 851.198 Q53.699 846.837 53.699 839.166 Z" fill="#000000" fill-rule="nonzero" fill-opacity="1" /><path clip-path="url(#clip330)" d="M61.4015 785.344 Q57.4547 783.148 55.5768 780.093 Q53.699 777.037 53.699 772.899 Q53.699 767.329 57.6139 764.306 Q61.4969 761.282 68.6902 761.282 L90.2063 761.282 L90.2063 767.17 L68.8812 767.17 Q63.7568 767.17 61.2741 768.985 Q58.7915 770.799 58.7915 774.523 Q58.7915 779.074 61.8152 781.716 Q64.8389 784.358 70.0588 784.358 L90.2063 784.358 L90.2063 790.246 L68.8812 790.246 Q63.7249 790.246 61.2741 792.06 Q58.7915 793.874 58.7915 797.662 Q58.7915 802.15 61.8471 804.792 Q64.8708 807.433 70.0588 807.433 L90.2063 807.433 L90.2063 813.322 L54.5583 813.322 L54.5583 807.433 L60.0965 807.433 Q56.8182 805.428 55.2586 802.627 Q53.699 799.826 53.699 795.975 Q53.699 792.092 55.6723 789.387 Q57.6457 786.649 61.4015 785.344 Z" fill="#000000" fill-rule="nonzero" fill-opacity="1" /><path clip-path="url(#clip330)" d="M70.9182 719.109 L73.7828 719.109 L73.7828 746.036 Q79.8302 745.654 83.013 742.408 Q86.1641 739.129 86.1641 733.305 Q86.1641 729.931 85.3365 726.78 Q84.509 723.597 82.8539 720.478 L88.3921 720.478 Q89.7289 723.629 90.4291 726.939 Q91.1293 730.249 91.1293 733.655 Q91.1293 742.185 86.1641 747.182 Q81.1988 752.147 72.7324 752.147 Q63.9796 752.147 58.8552 747.437 Q53.699 742.694 53.699 734.673 Q53.699 727.48 58.3459 723.311 Q62.9611 719.109 70.9182 719.109 M69.1995 724.966 Q64.3933 725.029 61.5288 727.671 Q58.6642 730.281 58.6642 734.61 Q58.6642 739.511 61.4333 742.471 Q64.2024 745.4 69.2313 745.845 L69.1995 724.966 Z" fill="#000000" fill-rule="nonzero" fill-opacity="1" /><path clip-path="url(#clip330)" d="M55.6087 686.771 L61.1468 686.771 Q59.8737 689.254 59.2371 691.928 Q58.6006 694.601 58.6006 697.466 Q58.6006 701.826 59.9373 704.022 Q61.2741 706.187 63.9477 706.187 Q65.9848 706.187 67.1624 704.627 Q68.3083 703.068 69.3586 698.357 L69.8042 696.352 Q71.141 690.113 73.5918 687.503 Q76.0108 684.862 80.3713 684.862 Q85.3365 684.862 88.2329 688.808 Q91.1293 692.723 91.1293 699.598 Q91.1293 702.463 90.5564 705.582 Q90.0153 708.669 88.9013 712.107 L82.8539 712.107 Q84.5408 708.86 85.4002 705.709 Q86.2277 702.558 86.2277 699.471 Q86.2277 695.333 84.8273 693.105 Q83.395 690.877 80.8169 690.877 Q78.4297 690.877 77.1566 692.501 Q75.8834 694.092 74.7058 699.535 L74.2284 701.572 Q73.0825 707.014 70.7272 709.433 Q68.3401 711.852 64.2024 711.852 Q59.1735 711.852 56.4362 708.288 Q53.699 704.723 53.699 698.166 Q53.699 694.92 54.1764 692.055 Q54.6538 689.19 55.6087 686.771 Z" fill="#000000" fill-rule="nonzero" fill-opacity="1" /><path clip-path="url(#clip330)" d="M42.6863 665.128 L42.6863 659.717 L96.2537 676.268 L96.2537 681.679 L42.6863 665.128 Z" fill="#000000" fill-rule="nonzero" fill-opacity="1" /><path clip-path="url(#clip330)" d="M47.9698 646.89 L84.9227 646.89 L84.9227 639.124 Q84.9227 629.289 80.4668 624.738 Q76.0108 620.154 66.3985 620.154 Q56.85 620.154 52.4258 624.738 Q47.9698 629.289 47.9698 639.124 L47.9698 646.89 M42.6863 653.32 L42.6863 640.111 Q42.6863 626.297 48.4472 619.836 Q54.1764 613.375 66.3985 613.375 Q78.6844 613.375 84.4453 619.868 Q90.2063 626.361 90.2063 640.111 L90.2063 653.32 L42.6863 653.32 Z" fill="#000000" fill-rule="nonzero" fill-opacity="1" /><path clip-path="url(#clip330)" d="M72.2868 587.18 Q72.2868 594.278 73.9101 597.015 Q75.5333 599.752 79.4482 599.752 Q82.5674 599.752 84.4135 597.715 Q86.2277 595.646 86.2277 592.113 Q86.2277 587.244 82.7902 584.315 Q79.3209 581.355 73.5918 581.355 L72.2868 581.355 L72.2868 587.18 M69.8679 575.499 L90.2063 575.499 L90.2063 581.355 L84.7954 581.355 Q88.0419 583.361 89.6015 586.352 Q91.1293 589.344 91.1293 593.673 Q91.1293 599.147 88.0738 602.394 Q84.9864 605.609 79.8302 605.609 Q73.8146 605.609 70.759 601.598 Q67.7035 597.556 67.7035 589.567 L67.7035 581.355 L67.1306 581.355 Q63.0884 581.355 60.8922 584.029 Q58.6642 586.671 58.6642 591.477 Q58.6642 594.532 59.3963 597.429 Q60.1283 600.325 61.5924 602.999 L56.1816 602.999 Q54.9403 599.784 54.3355 596.76 Q53.699 593.737 53.699 590.872 Q53.699 583.138 57.7094 579.318 Q61.7197 575.499 69.8679 575.499 Z" fill="#000000" fill-rule="nonzero" fill-opacity="1" /><path clip-path="url(#clip330)" d="M93.5165 548.604 Q99.8822 551.086 101.824 553.442 Q103.765 555.797 103.765 559.744 L103.765 564.423 L98.8636 564.423 L98.8636 560.985 Q98.8636 558.566 97.7178 557.229 Q96.572 555.892 92.307 554.269 L89.6334 553.219 L54.5583 567.637 L54.5583 561.431 L82.4401 550.291 L54.5583 539.151 L54.5583 532.944 L93.5165 548.604 Z" fill="#000000" fill-rule="nonzero" fill-opacity="1" /><path clip-path="url(#clip330)" d="M40.7447 490.071 Q48.0653 494.336 55.2267 496.405 Q62.3881 498.474 69.7405 498.474 Q77.0929 498.474 84.318 496.405 Q91.5113 494.304 98.8 490.071 L98.8 495.164 Q91.3203 499.938 84.0952 502.325 Q76.8701 504.68 69.7405 504.68 Q62.6428 504.68 55.4495 502.325 Q48.2563 499.97 40.7447 495.164 L40.7447 490.071 Z" fill="#000000" fill-rule="nonzero" fill-opacity="1" /><path clip-path="url(#clip330)" d="M83.4268 446.052 L70.6636 446.052 L70.6636 456.556 L65.38 456.556 L65.38 439.687 L85.7821 439.687 Q88.4239 443.41 89.7925 447.898 Q91.1293 452.386 91.1293 457.479 Q91.1293 468.619 84.6363 474.921 Q78.1114 481.191 66.494 481.191 Q54.8448 481.191 48.3518 474.921 Q41.8269 468.619 41.8269 457.479 Q41.8269 452.832 42.9727 448.662 Q44.1186 444.461 46.3466 440.928 L53.1897 440.928 Q50.166 444.493 48.6382 448.503 Q47.1104 452.513 47.1104 456.938 Q47.1104 465.659 51.9802 470.051 Q56.85 474.411 66.494 474.411 Q76.1062 474.411 80.976 470.051 Q85.8458 465.659 85.8458 456.938 Q85.8458 453.532 85.2729 450.858 Q84.6681 448.185 83.4268 446.052 Z" fill="#000000" fill-rule="nonzero" fill-opacity="1" /><path clip-path="url(#clip330)" d="M70.9182 397.705 L73.7828 397.705 L73.7828 424.632 Q79.8302 424.25 83.013 421.003 Q86.1641 417.725 86.1641 411.9 Q86.1641 408.526 85.3365 405.375 Q84.509 402.193 82.8539 399.073 L88.3921 399.073 Q89.7289 402.224 90.4291 405.535 Q91.1293 408.845 91.1293 412.25 Q91.1293 420.78 86.1641 425.777 Q81.1988 430.743 72.7324 430.743 Q63.9796 430.743 58.8552 426.032 Q53.699 421.29 53.699 413.269 Q53.699 406.076 58.3459 401.906 Q62.9611 397.705 70.9182 397.705 M69.1995 403.561 Q64.3933 403.625 61.5288 406.267 Q58.6642 408.876 58.6642 413.205 Q58.6642 418.107 61.4333 421.067 Q64.2024 423.995 69.2313 424.441 L69.1995 403.561 Z" fill="#000000" fill-rule="nonzero" fill-opacity="1" /><path clip-path="url(#clip330)" d="M60.0328 367.436 Q59.4599 368.422 59.2053 369.6 Q58.9188 370.746 58.9188 372.146 Q58.9188 377.112 62.1653 379.785 Q65.38 382.427 71.4274 382.427 L90.2063 382.427 L90.2063 388.315 L54.5583 388.315 L54.5583 382.427 L60.0965 382.427 Q56.85 380.581 55.2904 377.621 Q53.699 374.661 53.699 370.428 Q53.699 369.823 53.7944 369.091 Q53.8581 368.359 54.0172 367.468 L60.0328 367.436 Z" fill="#000000" fill-rule="nonzero" fill-opacity="1" /><path clip-path="url(#clip330)" d="M61.4015 334.684 Q57.4547 332.488 55.5768 329.432 Q53.699 326.377 53.699 322.239 Q53.699 316.669 57.6139 313.646 Q61.4969 310.622 68.6902 310.622 L90.2063 310.622 L90.2063 316.51 L68.8812 316.51 Q63.7568 316.51 61.2741 318.324 Q58.7915 320.139 58.7915 323.862 Q58.7915 328.414 61.8152 331.056 Q64.8389 333.698 70.0588 333.698 L90.2063 333.698 L90.2063 339.586 L68.8812 339.586 Q63.7249 339.586 61.2741 341.4 Q58.7915 343.214 58.7915 347.002 Q58.7915 351.49 61.8471 354.131 Q64.8708 356.773 70.0588 356.773 L90.2063 356.773 L90.2063 362.661 L54.5583 362.661 L54.5583 356.773 L60.0965 356.773 Q56.8182 354.768 55.2586 351.967 Q53.699 349.166 53.699 345.315 Q53.699 341.432 55.6723 338.726 Q57.6457 335.989 61.4015 334.684 Z" fill="#000000" fill-rule="nonzero" fill-opacity="1" /><path clip-path="url(#clip330)" d="M72.2868 282.74 Q72.2868 289.838 73.9101 292.575 Q75.5333 295.312 79.4482 295.312 Q82.5674 295.312 84.4135 293.275 Q86.2277 291.206 86.2277 287.673 Q86.2277 282.804 82.7902 279.875 Q79.3209 276.915 73.5918 276.915 L72.2868 276.915 L72.2868 282.74 M69.8679 271.059 L90.2063 271.059 L90.2063 276.915 L84.7954 276.915 Q88.0419 278.921 89.6015 281.912 Q91.1293 284.904 91.1293 289.233 Q91.1293 294.708 88.0738 297.954 Q84.9864 301.169 79.8302 301.169 Q73.8146 301.169 70.759 297.158 Q67.7035 293.116 67.7035 285.127 L67.7035 276.915 L67.1306 276.915 Q63.0884 276.915 60.8922 279.589 Q58.6642 282.231 58.6642 287.037 Q58.6642 290.092 59.3963 292.989 Q60.1283 295.885 61.5924 298.559 L56.1816 298.559 Q54.9403 295.344 54.3355 292.32 Q53.699 289.297 53.699 286.432 Q53.699 278.698 57.7094 274.878 Q61.7197 271.059 69.8679 271.059 Z" fill="#000000" fill-rule="nonzero" fill-opacity="1" /><path clip-path="url(#clip330)" d="M68.6902 229.364 L90.2063 229.364 L90.2063 235.22 L68.8812 235.22 Q63.8204 235.22 61.306 237.193 Q58.7915 239.167 58.7915 243.113 Q58.7915 247.856 61.8152 250.593 Q64.8389 253.33 70.0588 253.33 L90.2063 253.33 L90.2063 259.219 L54.5583 259.219 L54.5583 253.33 L60.0965 253.33 Q56.8818 251.23 55.2904 248.397 Q53.699 245.532 53.699 241.809 Q53.699 235.666 57.5184 232.515 Q61.306 229.364 68.6902 229.364 Z" fill="#000000" fill-rule="nonzero" fill-opacity="1" /><path clip-path="url(#clip330)" d="M93.5165 202.85 Q99.8822 205.333 101.824 207.688 Q103.765 210.044 103.765 213.99 L103.765 218.669 L98.8636 218.669 L98.8636 215.232 Q98.8636 212.813 97.7178 211.476 Q96.572 210.139 92.307 208.516 L89.6334 207.466 L54.5583 221.884 L54.5583 215.677 L82.4401 204.537 L54.5583 193.397 L54.5583 187.191 L93.5165 202.85 Z" fill="#000000" fill-rule="nonzero" fill-opacity="1" /><path clip-path="url(#clip330)" d="M40.7447 180.029 L40.7447 174.937 Q48.2563 170.163 55.4495 167.807 Q62.6428 165.42 69.7405 165.42 Q76.8701 165.42 84.0952 167.807 Q91.3203 170.163 98.8 174.937 L98.8 180.029 Q91.5113 175.796 84.318 173.727 Q77.0929 171.627 69.7405 171.627 Q62.3881 171.627 55.2267 173.727 Q48.0653 175.796 40.7447 180.029 Z" fill="#000000" fill-rule="nonzero" fill-opacity="1" /><path clip-path="url(#clip332)" d="M288.747 542.19 L288.747 1042.58 L311.29 1042.58 L311.29 542.19 L288.747 542.19 L288.747 542.19  Z" fill="#009af9" fill-rule="evenodd" fill-opacity="0.5"/>
<polyline clip-path="url(#clip332)" style="stroke:#000000; stroke-linecap:round; stroke-linejoin:round; stroke-width:4; stroke-opacity:0.5; fill:none" points="288.747,542.19 288.747,1042.58 311.29,1042.58 311.29,542.19 288.747,542.19 "/>
<path clip-path="url(#clip332)" d="M316.926 728.597 L316.926 1042.58 L339.469 1042.58 L339.469 728.597 L316.926 728.597 L316.926 728.597  Z" fill="#009af9" fill-rule="evenodd" fill-opacity="0.5"/>
<polyline clip-path="url(#clip332)" style="stroke:#000000; stroke-linecap:round; stroke-linejoin:round; stroke-width:4; stroke-opacity:0.5; fill:none" points="316.926,728.597 316.926,1042.58 339.469,1042.58 339.469,728.597 316.926,728.597 "/>
<path clip-path="url(#clip332)" d="M345.105 662.956 L345.105 1042.58 L367.649 1042.58 L367.649 662.956 L345.105 662.956 L345.105 662.956  Z" fill="#009af9" fill-rule="evenodd" fill-opacity="0.5"/>
<polyline clip-path="url(#clip332)" style="stroke:#000000; stroke-linecap:round; stroke-linejoin:round; stroke-width:4; stroke-opacity:0.5; fill:none" points="345.105,662.956 345.105,1042.58 367.649,1042.58 367.649,662.956 345.105,662.956 "/>
<path clip-path="url(#clip332)" d="M373.285 225.233 L373.285 1042.58 L395.828 1042.58 L395.828 225.233 L373.285 225.233 L373.285 225.233  Z" fill="#009af9" fill-rule="evenodd" fill-opacity="0.5"/>
<polyline clip-path="url(#clip332)" style="stroke:#000000; stroke-linecap:round; stroke-linejoin:round; stroke-width:4; stroke-opacity:0.5; fill:none" points="373.285,225.233 373.285,1042.58 395.828,1042.58 395.828,225.233 373.285,225.233 "/>
<path clip-path="url(#clip332)" d="M401.464 399.605 L401.464 1042.58 L424.007 1042.58 L424.007 399.605 L401.464 399.605 L401.464 399.605  Z" fill="#009af9" fill-rule="evenodd" fill-opacity="0.5"/>
<polyline clip-path="url(#clip332)" style="stroke:#000000; stroke-linecap:round; stroke-linejoin:round; stroke-width:4; stroke-opacity:0.5; fill:none" points="401.464,399.605 401.464,1042.58 424.007,1042.58 424.007,399.605 401.464,399.605 "/>
<path clip-path="url(#clip332)" d="M429.643 283.337 L429.643 1042.58 L452.186 1042.58 L452.186 283.337 L429.643 283.337 L429.643 283.337  Z" fill="#009af9" fill-rule="evenodd" fill-opacity="0.5"/>
<polyline clip-path="url(#clip332)" style="stroke:#000000; stroke-linecap:round; stroke-linejoin:round; stroke-width:4; stroke-opacity:0.5; fill:none" points="429.643,283.337 429.643,1042.58 452.186,1042.58 452.186,283.337 429.643,283.337 "/>
<path clip-path="url(#clip332)" d="M457.822 468.157 L457.822 1042.58 L480.366 1042.58 L480.366 468.157 L457.822 468.157 L457.822 468.157  Z" fill="#009af9" fill-rule="evenodd" fill-opacity="0.5"/>
<polyline clip-path="url(#clip332)" style="stroke:#000000; stroke-linecap:round; stroke-linejoin:round; stroke-width:4; stroke-opacity:0.5; fill:none" points="457.822,468.157 457.822,1042.58 480.366,1042.58 480.366,468.157 457.822,468.157 "/>
<path clip-path="url(#clip332)" d="M486.001 392.51 L486.001 1042.58 L508.545 1042.58 L508.545 392.51 L486.001 392.51 L486.001 392.51  Z" fill="#009af9" fill-rule="evenodd" fill-opacity="0.5"/>
<polyline clip-path="url(#clip332)" style="stroke:#000000; stroke-linecap:round; stroke-linejoin:round; stroke-width:4; stroke-opacity:0.5; fill:none" points="486.001,392.51 486.001,1042.58 508.545,1042.58 508.545,392.51 486.001,392.51 "/>
<path clip-path="url(#clip332)" d="M514.181 693.029 L514.181 1042.58 L536.724 1042.58 L536.724 693.029 L514.181 693.029 L514.181 693.029  Z" fill="#009af9" fill-rule="evenodd" fill-opacity="0.5"/>
<polyline clip-path="url(#clip332)" style="stroke:#000000; stroke-linecap:round; stroke-linejoin:round; stroke-width:4; stroke-opacity:0.5; fill:none" points="514.181,693.029 514.181,1042.58 536.724,1042.58 536.724,693.029 514.181,693.029 "/>
<path clip-path="url(#clip332)" d="M542.36 828.252 L542.36 1042.58 L564.903 1042.58 L564.903 828.252 L542.36 828.252 L542.36 828.252  Z" fill="#009af9" fill-rule="evenodd" fill-opacity="0.5"/>
<polyline clip-path="url(#clip332)" style="stroke:#000000; stroke-linecap:round; stroke-linejoin:round; stroke-width:4; stroke-opacity:0.5; fill:none" points="542.36,828.252 542.36,1042.58 564.903,1042.58 564.903,828.252 542.36,828.252 "/>
<path clip-path="url(#clip332)" d="M570.539 240.602 L570.539 1042.58 L593.083 1042.58 L593.083 240.602 L570.539 240.602 L570.539 240.602  Z" fill="#009af9" fill-rule="evenodd" fill-opacity="0.5"/>
<polyline clip-path="url(#clip332)" style="stroke:#000000; stroke-linecap:round; stroke-linejoin:round; stroke-width:4; stroke-opacity:0.5; fill:none" points="570.539,240.602 570.539,1042.58 593.083,1042.58 593.083,240.602 570.539,240.602 "/>
<path clip-path="url(#clip332)" d="M598.718 313.409 L598.718 1042.58 L621.262 1042.58 L621.262 313.409 L598.718 313.409 L598.718 313.409  Z" fill="#009af9" fill-rule="evenodd" fill-opacity="0.5"/>
<polyline clip-path="url(#clip332)" style="stroke:#000000; stroke-linecap:round; stroke-linejoin:round; stroke-width:4; stroke-opacity:0.5; fill:none" points="598.718,313.409 598.718,1042.58 621.262,1042.58 621.262,313.409 598.718,313.409 "/>
<path clip-path="url(#clip332)" d="M626.898 304.334 L626.898 1042.58 L649.441 1042.58 L649.441 304.334 L626.898 304.334 L626.898 304.334  Z" fill="#009af9" fill-rule="evenodd" fill-opacity="0.5"/>
<polyline clip-path="url(#clip332)" style="stroke:#000000; stroke-linecap:round; stroke-linejoin:round; stroke-width:4; stroke-opacity:0.5; fill:none" points="626.898,304.334 626.898,1042.58 649.441,1042.58 649.441,304.334 626.898,304.334 "/>
<path clip-path="url(#clip332)" d="M655.077 439.557 L655.077 1042.58 L677.62 1042.58 L677.62 439.557 L655.077 439.557 L655.077 439.557  Z" fill="#009af9" fill-rule="evenodd" fill-opacity="0.5"/>
<polyline clip-path="url(#clip332)" style="stroke:#000000; stroke-linecap:round; stroke-linejoin:round; stroke-width:4; stroke-opacity:0.5; fill:none" points="655.077,439.557 655.077,1042.58 677.62,1042.58 677.62,439.557 655.077,439.557 "/>
<path clip-path="url(#clip332)" d="M683.256 489.856 L683.256 1042.58 L705.8 1042.58 L705.8 489.856 L683.256 489.856 L683.256 489.856  Z" fill="#009af9" fill-rule="evenodd" fill-opacity="0.5"/>
<polyline clip-path="url(#clip332)" style="stroke:#000000; stroke-linecap:round; stroke-linejoin:round; stroke-width:4; stroke-opacity:0.5; fill:none" points="683.256,489.856 683.256,1042.58 705.8,1042.58 705.8,489.856 683.256,489.856 "/>
<path clip-path="url(#clip332)" d="M711.435 636.906 L711.435 1042.58 L733.979 1042.58 L733.979 636.906 L711.435 636.906 L711.435 636.906  Z" fill="#009af9" fill-rule="evenodd" fill-opacity="0.5"/>
<polyline clip-path="url(#clip332)" style="stroke:#000000; stroke-linecap:round; stroke-linejoin:round; stroke-width:4; stroke-opacity:0.5; fill:none" points="711.435,636.906 711.435,1042.58 733.979,1042.58 733.979,636.906 711.435,636.906 "/>
<path clip-path="url(#clip332)" d="M739.615 693.029 L739.615 1042.58 L762.158 1042.58 L762.158 693.029 L739.615 693.029 L739.615 693.029  Z" fill="#009af9" fill-rule="evenodd" fill-opacity="0.5"/>
<polyline clip-path="url(#clip332)" style="stroke:#000000; stroke-linecap:round; stroke-linejoin:round; stroke-width:4; stroke-opacity:0.5; fill:none" points="739.615,693.029 739.615,1042.58 762.158,1042.58 762.158,693.029 739.615,693.029 "/>
<path clip-path="url(#clip332)" d="M767.794 225.233 L767.794 1042.58 L790.337 1042.58 L790.337 225.233 L767.794 225.233 L767.794 225.233  Z" fill="#009af9" fill-rule="evenodd" fill-opacity="0.5"/>
<polyline clip-path="url(#clip332)" style="stroke:#000000; stroke-linecap:round; stroke-linejoin:round; stroke-width:4; stroke-opacity:0.5; fill:none" points="767.794,225.233 767.794,1042.58 790.337,1042.58 790.337,225.233 767.794,225.233 "/>
<path clip-path="url(#clip332)" d="M795.973 385.664 L795.973 1042.58 L818.517 1042.58 L818.517 385.664 L795.973 385.664 L795.973 385.664  Z" fill="#009af9" fill-rule="evenodd" fill-opacity="0.5"/>
<polyline clip-path="url(#clip332)" style="stroke:#000000; stroke-linecap:round; stroke-linejoin:round; stroke-width:4; stroke-opacity:0.5; fill:none" points="795.973,385.664 795.973,1042.58 818.517,1042.58 818.517,385.664 795.973,385.664 "/>
<path clip-path="url(#clip332)" d="M824.152 313.409 L824.152 1042.58 L846.696 1042.58 L846.696 313.409 L824.152 313.409 L824.152 313.409  Z" fill="#009af9" fill-rule="evenodd" fill-opacity="0.5"/>
<polyline clip-path="url(#clip332)" style="stroke:#000000; stroke-linecap:round; stroke-linejoin:round; stroke-width:4; stroke-opacity:0.5; fill:none" points="824.152,313.409 824.152,1042.58 846.696,1042.58 846.696,313.409 824.152,313.409 "/>
<path clip-path="url(#clip332)" d="M852.332 439.557 L852.332 1042.58 L874.875 1042.58 L874.875 439.557 L852.332 439.557 L852.332 439.557  Z" fill="#009af9" fill-rule="evenodd" fill-opacity="0.5"/>
<polyline clip-path="url(#clip332)" style="stroke:#000000; stroke-linecap:round; stroke-linejoin:round; stroke-width:4; stroke-opacity:0.5; fill:none" points="852.332,439.557 852.332,1042.58 874.875,1042.58 874.875,439.557 852.332,439.557 "/>
<path clip-path="url(#clip332)" d="M880.511 557.806 L880.511 1042.58 L903.054 1042.58 L903.054 557.806 L880.511 557.806 L880.511 557.806  Z" fill="#009af9" fill-rule="evenodd" fill-opacity="0.5"/>
<polyline clip-path="url(#clip332)" style="stroke:#000000; stroke-linecap:round; stroke-linejoin:round; stroke-width:4; stroke-opacity:0.5; fill:none" points="880.511,557.806 880.511,1042.58 903.054,1042.58 903.054,557.806 880.511,557.806 "/>
<path clip-path="url(#clip332)" d="M908.69 828.252 L908.69 1042.58 L931.234 1042.58 L931.234 828.252 L908.69 828.252 L908.69 828.252  Z" fill="#009af9" fill-rule="evenodd" fill-opacity="0.5"/>
<polyline clip-path="url(#clip332)" style="stroke:#000000; stroke-linecap:round; stroke-linejoin:round; stroke-width:4; stroke-opacity:0.5; fill:none" points="908.69,828.252 908.69,1042.58 931.234,1042.58 931.234,828.252 908.69,828.252 "/>
<path clip-path="url(#clip332)" d="M936.869 574.78 L936.869 1042.58 L959.413 1042.58 L959.413 574.78 L936.869 574.78 L936.869 574.78  Z" fill="#009af9" fill-rule="evenodd" fill-opacity="0.5"/>
<polyline clip-path="url(#clip332)" style="stroke:#000000; stroke-linecap:round; stroke-linejoin:round; stroke-width:4; stroke-opacity:0.5; fill:none" points="936.869,574.78 936.869,1042.58 959.413,1042.58 959.413,574.78 936.869,574.78 "/>
<path clip-path="url(#clip332)" d="M965.049 173.595 L965.049 1042.58 L987.592 1042.58 L987.592 173.595 L965.049 173.595 L965.049 173.595  Z" fill="#009af9" fill-rule="evenodd" fill-opacity="0.5"/>
<polyline clip-path="url(#clip332)" style="stroke:#000000; stroke-linecap:round; stroke-linejoin:round; stroke-width:4; stroke-opacity:0.5; fill:none" points="965.049,173.595 965.049,1042.58 987.592,1042.58 987.592,173.595 965.049,173.595 "/>
<path clip-path="url(#clip332)" d="M993.228 222.3 L993.228 1042.58 L1015.77 1042.58 L1015.77 222.3 L993.228 222.3 L993.228 222.3  Z" fill="#009af9" fill-rule="evenodd" fill-opacity="0.5"/>
<polyline clip-path="url(#clip332)" style="stroke:#000000; stroke-linecap:round; stroke-linejoin:round; stroke-width:4; stroke-opacity:0.5; fill:none" points="993.228,222.3 993.228,1042.58 1015.77,1042.58 1015.77,222.3 993.228,222.3 "/>
<path clip-path="url(#clip332)" d="M1021.41 250.441 L1021.41 1042.58 L1043.95 1042.58 L1043.95 250.441 L1021.41 250.441 L1021.41 250.441  Z" fill="#009af9" fill-rule="evenodd" fill-opacity="0.5"/>
<polyline clip-path="url(#clip332)" style="stroke:#000000; stroke-linecap:round; stroke-linejoin:round; stroke-width:4; stroke-opacity:0.5; fill:none" points="1021.41,250.441 1021.41,1042.58 1043.95,1042.58 1043.95,250.441 1021.41,250.441 "/>
<path clip-path="url(#clip332)" d="M1049.59 392.51 L1049.59 1042.58 L1072.13 1042.58 L1072.13 392.51 L1049.59 392.51 L1049.59 392.51  Z" fill="#009af9" fill-rule="evenodd" fill-opacity="0.5"/>
<polyline clip-path="url(#clip332)" style="stroke:#000000; stroke-linecap:round; stroke-linejoin:round; stroke-width:4; stroke-opacity:0.5; fill:none" points="1049.59,392.51 1049.59,1042.58 1072.13,1042.58 1072.13,392.51 1049.59,392.51 "/>
<path clip-path="url(#clip332)" d="M1077.77 501.683 L1077.77 1042.58 L1100.31 1042.58 L1100.31 501.683 L1077.77 501.683 L1077.77 501.683  Z" fill="#009af9" fill-rule="evenodd" fill-opacity="0.5"/>
<polyline clip-path="url(#clip332)" style="stroke:#000000; stroke-linecap:round; stroke-linejoin:round; stroke-width:4; stroke-opacity:0.5; fill:none" points="1077.77,501.683 1077.77,1042.58 1100.31,1042.58 1100.31,501.683 1077.77,501.683 "/>
<path clip-path="url(#clip332)" d="M1105.94 636.906 L1105.94 1042.58 L1128.49 1042.58 L1128.49 636.906 L1105.94 636.906 L1105.94 636.906  Z" fill="#009af9" fill-rule="evenodd" fill-opacity="0.5"/>
<polyline clip-path="url(#clip332)" style="stroke:#000000; stroke-linecap:round; stroke-linejoin:round; stroke-width:4; stroke-opacity:0.5; fill:none" points="1105.94,636.906 1105.94,1042.58 1128.49,1042.58 1128.49,636.906 1105.94,636.906 "/>
<path clip-path="url(#clip332)" d="M1134.12 542.19 L1134.12 1042.58 L1156.67 1042.58 L1156.67 542.19 L1134.12 542.19 L1134.12 542.19  Z" fill="#009af9" fill-rule="evenodd" fill-opacity="0.5"/>
<polyline clip-path="url(#clip332)" style="stroke:#000000; stroke-linecap:round; stroke-linejoin:round; stroke-width:4; stroke-opacity:0.5; fill:none" points="1134.12,542.19 1134.12,1042.58 1156.67,1042.58 1156.67,542.19 1134.12,542.19 "/>
<path clip-path="url(#clip332)" d="M1162.3 158.33 L1162.3 1042.58 L1184.85 1042.58 L1184.85 158.33 L1162.3 158.33 L1162.3 158.33  Z" fill="#009af9" fill-rule="evenodd" fill-opacity="0.5"/>
<polyline clip-path="url(#clip332)" style="stroke:#000000; stroke-linecap:round; stroke-linejoin:round; stroke-width:4; stroke-opacity:0.5; fill:none" points="1162.3,158.33 1162.3,1042.58 1184.85,1042.58 1184.85,158.33 1162.3,158.33 "/>
<path clip-path="url(#clip332)" d="M1190.48 360.456 L1190.48 1042.58 L1213.03 1042.58 L1213.03 360.456 L1190.48 360.456 L1190.48 360.456  Z" fill="#009af9" fill-rule="evenodd" fill-opacity="0.5"/>
<polyline clip-path="url(#clip332)" style="stroke:#000000; stroke-linecap:round; stroke-linejoin:round; stroke-width:4; stroke-opacity:0.5; fill:none" points="1190.48,360.456 1190.48,1042.58 1213.03,1042.58 1213.03,360.456 1190.48,360.456 "/>
<path clip-path="url(#clip332)" d="M1218.66 237.43 L1218.66 1042.58 L1241.21 1042.58 L1241.21 237.43 L1218.66 237.43 L1218.66 237.43  Z" fill="#009af9" fill-rule="evenodd" fill-opacity="0.5"/>
<polyline clip-path="url(#clip332)" style="stroke:#000000; stroke-linecap:round; stroke-linejoin:round; stroke-width:4; stroke-opacity:0.5; fill:none" points="1218.66,237.43 1218.66,1042.58 1241.21,1042.58 1241.21,237.43 1218.66,237.43 "/>
<path clip-path="url(#clip332)" d="M1246.84 379.05 L1246.84 1042.58 L1269.38 1042.58 L1269.38 379.05 L1246.84 379.05 L1246.84 379.05  Z" fill="#009af9" fill-rule="evenodd" fill-opacity="0.5"/>
<polyline clip-path="url(#clip332)" style="stroke:#000000; stroke-linecap:round; stroke-linejoin:round; stroke-width:4; stroke-opacity:0.5; fill:none" points="1246.84,379.05 1246.84,1042.58 1269.38,1042.58 1269.38,379.05 1246.84,379.05 "/>
<path clip-path="url(#clip332)" d="M1275.02 354.633 L1275.02 1042.58 L1297.56 1042.58 L1297.56 354.633 L1275.02 354.633 L1275.02 354.633  Z" fill="#009af9" fill-rule="evenodd" fill-opacity="0.5"/>
<polyline clip-path="url(#clip332)" style="stroke:#000000; stroke-linecap:round; stroke-linejoin:round; stroke-width:4; stroke-opacity:0.5; fill:none" points="1275.02,354.633 1275.02,1042.58 1297.56,1042.58 1297.56,354.633 1275.02,354.633 "/>
<path clip-path="url(#clip332)" d="M1303.2 574.78 L1303.2 1042.58 L1325.74 1042.58 L1325.74 574.78 L1303.2 574.78 L1303.2 574.78  Z" fill="#009af9" fill-rule="evenodd" fill-opacity="0.5"/>
<polyline clip-path="url(#clip332)" style="stroke:#000000; stroke-linecap:round; stroke-linejoin:round; stroke-width:4; stroke-opacity:0.5; fill:none" points="1303.2,574.78 1303.2,1042.58 1325.74,1042.58 1325.74,574.78 1303.2,574.78 "/>
<path clip-path="url(#clip332)" d="M1331.38 593.374 L1331.38 1042.58 L1353.92 1042.58 L1353.92 593.374 L1331.38 593.374 L1331.38 593.374  Z" fill="#009af9" fill-rule="evenodd" fill-opacity="0.5"/>
<polyline clip-path="url(#clip332)" style="stroke:#000000; stroke-linecap:round; stroke-linejoin:round; stroke-width:4; stroke-opacity:0.5; fill:none" points="1331.38,593.374 1331.38,1042.58 1353.92,1042.58 1353.92,593.374 1331.38,593.374 "/>
<path clip-path="url(#clip332)" d="M1359.56 178.186 L1359.56 1042.58 L1382.1 1042.58 L1382.1 178.186 L1359.56 178.186 L1359.56 178.186  Z" fill="#009af9" fill-rule="evenodd" fill-opacity="0.5"/>
<polyline clip-path="url(#clip332)" style="stroke:#000000; stroke-linecap:round; stroke-linejoin:round; stroke-width:4; stroke-opacity:0.5; fill:none" points="1359.56,178.186 1359.56,1042.58 1382.1,1042.58 1382.1,178.186 1359.56,178.186 "/>
<path clip-path="url(#clip332)" d="M1387.74 299.95 L1387.74 1042.58 L1410.28 1042.58 L1410.28 299.95 L1387.74 299.95 L1387.74 299.95  Z" fill="#009af9" fill-rule="evenodd" fill-opacity="0.5"/>
<polyline clip-path="url(#clip332)" style="stroke:#000000; stroke-linecap:round; stroke-linejoin:round; stroke-width:4; stroke-opacity:0.5; fill:none" points="1387.74,299.95 1387.74,1042.58 1410.28,1042.58 1410.28,299.95 1387.74,299.95 "/>
<path clip-path="url(#clip332)" d="M1415.92 360.456 L1415.92 1042.58 L1438.46 1042.58 L1438.46 360.456 L1415.92 360.456 L1415.92 360.456  Z" fill="#009af9" fill-rule="evenodd" fill-opacity="0.5"/>
<polyline clip-path="url(#clip332)" style="stroke:#000000; stroke-linecap:round; stroke-linejoin:round; stroke-width:4; stroke-opacity:0.5; fill:none" points="1415.92,360.456 1415.92,1042.58 1438.46,1042.58 1438.46,360.456 1415.92,360.456 "/>
<path clip-path="url(#clip332)" d="M1444.1 613.928 L1444.1 1042.58 L1466.64 1042.58 L1466.64 613.928 L1444.1 613.928 L1444.1 613.928  Z" fill="#009af9" fill-rule="evenodd" fill-opacity="0.5"/>
<polyline clip-path="url(#clip332)" style="stroke:#000000; stroke-linecap:round; stroke-linejoin:round; stroke-width:4; stroke-opacity:0.5; fill:none" points="1444.1,613.928 1444.1,1042.58 1466.64,1042.58 1466.64,613.928 1444.1,613.928 "/>
<path clip-path="url(#clip332)" d="M1472.28 372.653 L1472.28 1042.58 L1494.82 1042.58 L1494.82 372.653 L1472.28 372.653 L1472.28 372.653  Z" fill="#009af9" fill-rule="evenodd" fill-opacity="0.5"/>
<polyline clip-path="url(#clip332)" style="stroke:#000000; stroke-linecap:round; stroke-linejoin:round; stroke-width:4; stroke-opacity:0.5; fill:none" points="1472.28,372.653 1472.28,1042.58 1494.82,1042.58 1494.82,372.653 1472.28,372.653 "/>
<path clip-path="url(#clip332)" d="M1500.45 557.806 L1500.45 1042.58 L1523 1042.58 L1523 557.806 L1500.45 557.806 L1500.45 557.806  Z" fill="#009af9" fill-rule="evenodd" fill-opacity="0.5"/>
<polyline clip-path="url(#clip332)" style="stroke:#000000; stroke-linecap:round; stroke-linejoin:round; stroke-width:4; stroke-opacity:0.5; fill:none" points="1500.45,557.806 1500.45,1042.58 1523,1042.58 1523,557.806 1500.45,557.806 "/>
<path clip-path="url(#clip332)" d="M1528.63 478.705 L1528.63 1042.58 L1551.18 1042.58 L1551.18 478.705 L1528.63 478.705 L1528.63 478.705  Z" fill="#009af9" fill-rule="evenodd" fill-opacity="0.5"/>
<polyline clip-path="url(#clip332)" style="stroke:#000000; stroke-linecap:round; stroke-linejoin:round; stroke-width:4; stroke-opacity:0.5; fill:none" points="1528.63,478.705 1528.63,1042.58 1551.18,1042.58 1551.18,478.705 1528.63,478.705 "/>
<path clip-path="url(#clip332)" d="M1556.81 110.236 L1556.81 1042.58 L1579.36 1042.58 L1579.36 110.236 L1556.81 110.236 L1556.81 110.236  Z" fill="#009af9" fill-rule="evenodd" fill-opacity="0.5"/>
<polyline clip-path="url(#clip332)" style="stroke:#000000; stroke-linecap:round; stroke-linejoin:round; stroke-width:4; stroke-opacity:0.5; fill:none" points="1556.81,110.236 1556.81,1042.58 1579.36,1042.58 1579.36,110.236 1556.81,110.236 "/>
<path clip-path="url(#clip332)" d="M1584.99 271.744 L1584.99 1042.58 L1607.54 1042.58 L1607.54 271.744 L1584.99 271.744 L1584.99 271.744  Z" fill="#009af9" fill-rule="evenodd" fill-opacity="0.5"/>
<polyline clip-path="url(#clip332)" style="stroke:#000000; stroke-linecap:round; stroke-linejoin:round; stroke-width:4; stroke-opacity:0.5; fill:none" points="1584.99,271.744 1584.99,1042.58 1607.54,1042.58 1607.54,271.744 1584.99,271.744 "/>
<path clip-path="url(#clip332)" d="M1613.17 243.827 L1613.17 1042.58 L1635.71 1042.58 L1635.71 243.827 L1613.17 243.827 L1613.17 243.827  Z" fill="#009af9" fill-rule="evenodd" fill-opacity="0.5"/>
<polyline clip-path="url(#clip332)" style="stroke:#000000; stroke-linecap:round; stroke-linejoin:round; stroke-width:4; stroke-opacity:0.5; fill:none" points="1613.17,243.827 1613.17,1042.58 1635.71,1042.58 1635.71,243.827 1613.17,243.827 "/>
<path clip-path="url(#clip332)" d="M1641.35 439.557 L1641.35 1042.58 L1663.89 1042.58 L1663.89 439.557 L1641.35 439.557 L1641.35 439.557  Z" fill="#009af9" fill-rule="evenodd" fill-opacity="0.5"/>
<polyline clip-path="url(#clip332)" style="stroke:#000000; stroke-linecap:round; stroke-linejoin:round; stroke-width:4; stroke-opacity:0.5; fill:none" points="1641.35,439.557 1641.35,1042.58 1663.89,1042.58 1663.89,439.557 1641.35,439.557 "/>
<path clip-path="url(#clip332)" d="M1669.53 372.653 L1669.53 1042.58 L1692.07 1042.58 L1692.07 372.653 L1669.53 372.653 L1669.53 372.653  Z" fill="#009af9" fill-rule="evenodd" fill-opacity="0.5"/>
<polyline clip-path="url(#clip332)" style="stroke:#000000; stroke-linecap:round; stroke-linejoin:round; stroke-width:4; stroke-opacity:0.5; fill:none" points="1669.53,372.653 1669.53,1042.58 1692.07,1042.58 1692.07,372.653 1669.53,372.653 "/>
<path clip-path="url(#clip332)" d="M1697.71 636.906 L1697.71 1042.58 L1720.25 1042.58 L1720.25 636.906 L1697.71 636.906 L1697.71 636.906  Z" fill="#009af9" fill-rule="evenodd" fill-opacity="0.5"/>
<polyline clip-path="url(#clip332)" style="stroke:#000000; stroke-linecap:round; stroke-linejoin:round; stroke-width:4; stroke-opacity:0.5; fill:none" points="1697.71,636.906 1697.71,1042.58 1720.25,1042.58 1720.25,636.906 1697.71,636.906 "/>
<path clip-path="url(#clip332)" d="M1725.89 542.19 L1725.89 1042.58 L1748.43 1042.58 L1748.43 542.19 L1725.89 542.19 L1725.89 542.19  Z" fill="#009af9" fill-rule="evenodd" fill-opacity="0.5"/>
<polyline clip-path="url(#clip332)" style="stroke:#000000; stroke-linecap:round; stroke-linejoin:round; stroke-width:4; stroke-opacity:0.5; fill:none" points="1725.89,542.19 1725.89,1042.58 1748.43,1042.58 1748.43,542.19 1725.89,542.19 "/>
<path clip-path="url(#clip332)" d="M1754.07 187.704 L1754.07 1042.58 L1776.61 1042.58 L1776.61 187.704 L1754.07 187.704 L1754.07 187.704  Z" fill="#009af9" fill-rule="evenodd" fill-opacity="0.5"/>
<polyline clip-path="url(#clip332)" style="stroke:#000000; stroke-linecap:round; stroke-linejoin:round; stroke-width:4; stroke-opacity:0.5; fill:none" points="1754.07,187.704 1754.07,1042.58 1776.61,1042.58 1776.61,187.704 1754.07,187.704 "/>
<path clip-path="url(#clip332)" d="M1782.25 332.934 L1782.25 1042.58 L1804.79 1042.58 L1804.79 332.934 L1782.25 332.934 L1782.25 332.934  Z" fill="#009af9" fill-rule="evenodd" fill-opacity="0.5"/>
<polyline clip-path="url(#clip332)" style="stroke:#000000; stroke-linecap:round; stroke-linejoin:round; stroke-width:4; stroke-opacity:0.5; fill:none" points="1782.25,332.934 1782.25,1042.58 1804.79,1042.58 1804.79,332.934 1782.25,332.934 "/>
<path clip-path="url(#clip332)" d="M1810.43 257.286 L1810.43 1042.58 L1832.97 1042.58 L1832.97 257.286 L1810.43 257.286 L1810.43 257.286  Z" fill="#009af9" fill-rule="evenodd" fill-opacity="0.5"/>
<polyline clip-path="url(#clip332)" style="stroke:#000000; stroke-linecap:round; stroke-linejoin:round; stroke-width:4; stroke-opacity:0.5; fill:none" points="1810.43,257.286 1810.43,1042.58 1832.97,1042.58 1832.97,257.286 1810.43,257.286 "/>
<path clip-path="url(#clip332)" d="M1838.61 439.557 L1838.61 1042.58 L1861.15 1042.58 L1861.15 439.557 L1838.61 439.557 L1838.61 439.557  Z" fill="#009af9" fill-rule="evenodd" fill-opacity="0.5"/>
<polyline clip-path="url(#clip332)" style="stroke:#000000; stroke-linecap:round; stroke-linejoin:round; stroke-width:4; stroke-opacity:0.5; fill:none" points="1838.61,439.557 1838.61,1042.58 1861.15,1042.58 1861.15,439.557 1838.61,439.557 "/>
<path clip-path="url(#clip332)" d="M1866.78 379.05 L1866.78 1042.58 L1889.33 1042.58 L1889.33 379.05 L1866.78 379.05 L1866.78 379.05  Z" fill="#009af9" fill-rule="evenodd" fill-opacity="0.5"/>
<polyline clip-path="url(#clip332)" style="stroke:#000000; stroke-linecap:round; stroke-linejoin:round; stroke-width:4; stroke-opacity:0.5; fill:none" points="1866.78,379.05 1866.78,1042.58 1889.33,1042.58 1889.33,379.05 1866.78,379.05 "/>
<path clip-path="url(#clip332)" d="M1894.96 557.806 L1894.96 1042.58 L1917.51 1042.58 L1917.51 557.806 L1894.96 557.806 L1894.96 557.806  Z" fill="#009af9" fill-rule="evenodd" fill-opacity="0.5"/>
<polyline clip-path="url(#clip332)" style="stroke:#000000; stroke-linecap:round; stroke-linejoin:round; stroke-width:4; stroke-opacity:0.5; fill:none" points="1894.96,557.806 1894.96,1042.58 1917.51,1042.58 1917.51,557.806 1894.96,557.806 "/>
<path clip-path="url(#clip332)" d="M1923.14 613.928 L1923.14 1042.58 L1945.69 1042.58 L1945.69 613.928 L1923.14 613.928 L1923.14 613.928  Z" fill="#009af9" fill-rule="evenodd" fill-opacity="0.5"/>
<polyline clip-path="url(#clip332)" style="stroke:#000000; stroke-linecap:round; stroke-linejoin:round; stroke-width:4; stroke-opacity:0.5; fill:none" points="1923.14,613.928 1923.14,1042.58 1945.69,1042.58 1945.69,613.928 1923.14,613.928 "/>
<path clip-path="url(#clip332)" d="M1951.32 205.568 L1951.32 1042.58 L1973.87 1042.58 L1973.87 205.568 L1951.32 205.568 L1951.32 205.568  Z" fill="#009af9" fill-rule="evenodd" fill-opacity="0.5"/>
<polyline clip-path="url(#clip332)" style="stroke:#000000; stroke-linecap:round; stroke-linejoin:round; stroke-width:4; stroke-opacity:0.5; fill:none" points="1951.32,205.568 1951.32,1042.58 1973.87,1042.58 1973.87,205.568 1951.32,205.568 "/>
<path clip-path="url(#clip332)" d="M1979.5 318.11 L1979.5 1042.58 L2002.04 1042.58 L2002.04 318.11 L1979.5 318.11 L1979.5 318.11  Z" fill="#009af9" fill-rule="evenodd" fill-opacity="0.5"/>
<polyline clip-path="url(#clip332)" style="stroke:#000000; stroke-linecap:round; stroke-linejoin:round; stroke-width:4; stroke-opacity:0.5; fill:none" points="1979.5,318.11 1979.5,1042.58 2002.04,1042.58 2002.04,318.11 1979.5,318.11 "/>
<path clip-path="url(#clip332)" d="M2007.68 271.744 L2007.68 1042.58 L2030.22 1042.58 L2030.22 271.744 L2007.68 271.744 L2007.68 271.744  Z" fill="#009af9" fill-rule="evenodd" fill-opacity="0.5"/>
<polyline clip-path="url(#clip332)" style="stroke:#000000; stroke-linecap:round; stroke-linejoin:round; stroke-width:4; stroke-opacity:0.5; fill:none" points="2007.68,271.744 2007.68,1042.58 2030.22,1042.58 2030.22,271.744 2007.68,271.744 "/>
<path clip-path="url(#clip332)" d="M2035.86 478.705 L2035.86 1042.58 L2058.4 1042.58 L2058.4 478.705 L2035.86 478.705 L2035.86 478.705  Z" fill="#009af9" fill-rule="evenodd" fill-opacity="0.5"/>
<polyline clip-path="url(#clip332)" style="stroke:#000000; stroke-linecap:round; stroke-linejoin:round; stroke-width:4; stroke-opacity:0.5; fill:none" points="2035.86,478.705 2035.86,1042.58 2058.4,1042.58 2058.4,478.705 2035.86,478.705 "/>
<path clip-path="url(#clip332)" d="M2064.04 501.683 L2064.04 1042.58 L2086.58 1042.58 L2086.58 501.683 L2064.04 501.683 L2064.04 501.683  Z" fill="#009af9" fill-rule="evenodd" fill-opacity="0.5"/>
<polyline clip-path="url(#clip332)" style="stroke:#000000; stroke-linecap:round; stroke-linejoin:round; stroke-width:4; stroke-opacity:0.5; fill:none" points="2064.04,501.683 2064.04,1042.58 2086.58,1042.58 2086.58,501.683 2064.04,501.683 "/>
<path clip-path="url(#clip332)" d="M2092.22 772.129 L2092.22 1042.58 L2114.76 1042.58 L2114.76 772.129 L2092.22 772.129 L2092.22 772.129  Z" fill="#009af9" fill-rule="evenodd" fill-opacity="0.5"/>
<polyline clip-path="url(#clip332)" style="stroke:#000000; stroke-linecap:round; stroke-linejoin:round; stroke-width:4; stroke-opacity:0.5; fill:none" points="2092.22,772.129 2092.22,1042.58 2114.76,1042.58 2114.76,772.129 2092.22,772.129 "/>
<path clip-path="url(#clip332)" d="M2120.4 728.597 L2120.4 1042.58 L2142.94 1042.58 L2142.94 728.597 L2120.4 728.597 L2120.4 728.597  Z" fill="#009af9" fill-rule="evenodd" fill-opacity="0.5"/>
<polyline clip-path="url(#clip332)" style="stroke:#000000; stroke-linecap:round; stroke-linejoin:round; stroke-width:4; stroke-opacity:0.5; fill:none" points="2120.4,728.597 2120.4,1042.58 2142.94,1042.58 2142.94,728.597 2120.4,728.597 "/>
<path clip-path="url(#clip332)" d="M2148.58 268.028 L2148.58 1042.58 L2171.12 1042.58 L2171.12 268.028 L2148.58 268.028 L2148.58 268.028  Z" fill="#009af9" fill-rule="evenodd" fill-opacity="0.5"/>
<polyline clip-path="url(#clip332)" style="stroke:#000000; stroke-linecap:round; stroke-linejoin:round; stroke-width:4; stroke-opacity:0.5; fill:none" points="2148.58,268.028 2148.58,1042.58 2171.12,1042.58 2171.12,268.028 2148.58,268.028 "/>
<path clip-path="url(#clip332)" d="M2176.76 458.151 L2176.76 1042.58 L2199.3 1042.58 L2199.3 458.151 L2176.76 458.151 L2176.76 458.151  Z" fill="#009af9" fill-rule="evenodd" fill-opacity="0.5"/>
<polyline clip-path="url(#clip332)" style="stroke:#000000; stroke-linecap:round; stroke-linejoin:round; stroke-width:4; stroke-opacity:0.5; fill:none" points="2176.76,458.151 2176.76,1042.58 2199.3,1042.58 2199.3,458.151 2176.76,458.151 "/>
<path clip-path="url(#clip332)" d="M2204.94 613.928 L2204.94 1042.58 L2227.48 1042.58 L2227.48 613.928 L2204.94 613.928 L2204.94 613.928  Z" fill="#009af9" fill-rule="evenodd" fill-opacity="0.5"/>
<polyline clip-path="url(#clip332)" style="stroke:#000000; stroke-linecap:round; stroke-linejoin:round; stroke-width:4; stroke-opacity:0.5; fill:none" points="2204.94,613.928 2204.94,1042.58 2227.48,1042.58 2227.48,613.928 2204.94,613.928 "/>
<path clip-path="url(#clip332)" d="M2233.11 527.733 L2233.11 1042.58 L2255.66 1042.58 L2255.66 527.733 L2233.11 527.733 L2233.11 527.733  Z" fill="#009af9" fill-rule="evenodd" fill-opacity="0.5"/>
<polyline clip-path="url(#clip332)" style="stroke:#000000; stroke-linecap:round; stroke-linejoin:round; stroke-width:4; stroke-opacity:0.5; fill:none" points="2233.11,527.733 2233.11,1042.58 2255.66,1042.58 2255.66,527.733 2233.11,527.733 "/>
<path clip-path="url(#clip332)" d="M2261.29 828.252 L2261.29 1042.58 L2283.84 1042.58 L2283.84 828.252 L2261.29 828.252 L2261.29 828.252  Z" fill="#009af9" fill-rule="evenodd" fill-opacity="0.5"/>
<polyline clip-path="url(#clip332)" style="stroke:#000000; stroke-linecap:round; stroke-linejoin:round; stroke-width:4; stroke-opacity:0.5; fill:none" points="2261.29,828.252 2261.29,1042.58 2283.84,1042.58 2283.84,828.252 2261.29,828.252 "/>
<path clip-path="url(#clip332)" d="M2289.47 662.956 L2289.47 1042.58 L2312.02 1042.58 L2312.02 662.956 L2289.47 662.956 L2289.47 662.956  Z" fill="#009af9" fill-rule="evenodd" fill-opacity="0.5"/>
<polyline clip-path="url(#clip332)" style="stroke:#000000; stroke-linecap:round; stroke-linejoin:round; stroke-width:4; stroke-opacity:0.5; fill:none" points="2289.47,662.956 2289.47,1042.58 2312.02,1042.58 2312.02,662.956 2289.47,662.956 "/>
<path clip-path="url(#clip332)" d="M2317.65 907.353 L2317.65 1042.58 L2340.2 1042.58 L2340.2 907.353 L2317.65 907.353 L2317.65 907.353  Z" fill="#009af9" fill-rule="evenodd" fill-opacity="0.5"/>
<polyline clip-path="url(#clip332)" style="stroke:#000000; stroke-linecap:round; stroke-linejoin:round; stroke-width:4; stroke-opacity:0.5; fill:none" points="2317.65,907.353 2317.65,1042.58 2340.2,1042.58 2340.2,907.353 2317.65,907.353 "/>
<path clip-path="url(#clip332)" d="M2345.83 422.582 L2345.83 1042.58 L2368.38 1042.58 L2368.38 422.582 L2345.83 422.582 L2345.83 422.582  Z" fill="#009af9" fill-rule="evenodd" fill-opacity="0.5"/>
<polyline clip-path="url(#clip332)" style="stroke:#000000; stroke-linecap:round; stroke-linejoin:round; stroke-width:4; stroke-opacity:0.5; fill:none" points="2345.83,422.582 2345.83,1042.58 2368.38,1042.58 2368.38,422.582 2345.83,422.582 "/>
<path clip-path="url(#clip332)" d="M2374.01 772.129 L2374.01 1042.58 L2396.55 1042.58 L2396.55 772.129 L2374.01 772.129 L2374.01 772.129  Z" fill="#009af9" fill-rule="evenodd" fill-opacity="0.5"/>
<polyline clip-path="url(#clip332)" style="stroke:#000000; stroke-linecap:round; stroke-linejoin:round; stroke-width:4; stroke-opacity:0.5; fill:none" points="2374.01,772.129 2374.01,1042.58 2396.55,1042.58 2396.55,772.129 2374.01,772.129 "/>
<path clip-path="url(#clip332)" d="M2402.19 772.129 L2402.19 1042.58 L2424.73 1042.58 L2424.73 772.129 L2402.19 772.129 L2402.19 772.129  Z" fill="#009af9" fill-rule="evenodd" fill-opacity="0.5"/>
<polyline clip-path="url(#clip332)" style="stroke:#000000; stroke-linecap:round; stroke-linejoin:round; stroke-width:4; stroke-opacity:0.5; fill:none" points="2402.19,772.129 2402.19,1042.58 2424.73,1042.58 2424.73,772.129 2402.19,772.129 "/>
<circle clip-path="url(#clip332)" style="fill:#009af9; stroke:none; fill-opacity:0" cx="300.018" cy="542.19" r="2"/>
<circle clip-path="url(#clip332)" style="fill:#009af9; stroke:none; fill-opacity:0" cx="328.198" cy="728.597" r="2"/>
<circle clip-path="url(#clip332)" style="fill:#009af9; stroke:none; fill-opacity:0" cx="356.377" cy="662.956" r="2"/>
<circle clip-path="url(#clip332)" style="fill:#009af9; stroke:none; fill-opacity:0" cx="384.556" cy="225.233" r="2"/>
<circle clip-path="url(#clip332)" style="fill:#009af9; stroke:none; fill-opacity:0" cx="412.735" cy="399.605" r="2"/>
<circle clip-path="url(#clip332)" style="fill:#009af9; stroke:none; fill-opacity:0" cx="440.915" cy="283.337" r="2"/>
<circle clip-path="url(#clip332)" style="fill:#009af9; stroke:none; fill-opacity:0" cx="469.094" cy="468.157" r="2"/>
<circle clip-path="url(#clip332)" style="fill:#009af9; stroke:none; fill-opacity:0" cx="497.273" cy="392.51" r="2"/>
<circle clip-path="url(#clip332)" style="fill:#009af9; stroke:none; fill-opacity:0" cx="525.452" cy="693.029" r="2"/>
<circle clip-path="url(#clip332)" style="fill:#009af9; stroke:none; fill-opacity:0" cx="553.632" cy="828.252" r="2"/>
<circle clip-path="url(#clip332)" style="fill:#009af9; stroke:none; fill-opacity:0" cx="581.811" cy="240.602" r="2"/>
<circle clip-path="url(#clip332)" style="fill:#009af9; stroke:none; fill-opacity:0" cx="609.99" cy="313.409" r="2"/>
<circle clip-path="url(#clip332)" style="fill:#009af9; stroke:none; fill-opacity:0" cx="638.169" cy="304.334" r="2"/>
<circle clip-path="url(#clip332)" style="fill:#009af9; stroke:none; fill-opacity:0" cx="666.349" cy="439.557" r="2"/>
<circle clip-path="url(#clip332)" style="fill:#009af9; stroke:none; fill-opacity:0" cx="694.528" cy="489.856" r="2"/>
<circle clip-path="url(#clip332)" style="fill:#009af9; stroke:none; fill-opacity:0" cx="722.707" cy="636.906" r="2"/>
<circle clip-path="url(#clip332)" style="fill:#009af9; stroke:none; fill-opacity:0" cx="750.886" cy="693.029" r="2"/>
<circle clip-path="url(#clip332)" style="fill:#009af9; stroke:none; fill-opacity:0" cx="779.066" cy="225.233" r="2"/>
<circle clip-path="url(#clip332)" style="fill:#009af9; stroke:none; fill-opacity:0" cx="807.245" cy="385.664" r="2"/>
<circle clip-path="url(#clip332)" style="fill:#009af9; stroke:none; fill-opacity:0" cx="835.424" cy="313.409" r="2"/>
<circle clip-path="url(#clip332)" style="fill:#009af9; stroke:none; fill-opacity:0" cx="863.603" cy="439.557" r="2"/>
<circle clip-path="url(#clip332)" style="fill:#009af9; stroke:none; fill-opacity:0" cx="891.783" cy="557.806" r="2"/>
<circle clip-path="url(#clip332)" style="fill:#009af9; stroke:none; fill-opacity:0" cx="919.962" cy="828.252" r="2"/>
<circle clip-path="url(#clip332)" style="fill:#009af9; stroke:none; fill-opacity:0" cx="948.141" cy="574.78" r="2"/>
<circle clip-path="url(#clip332)" style="fill:#009af9; stroke:none; fill-opacity:0" cx="976.32" cy="173.595" r="2"/>
<circle clip-path="url(#clip332)" style="fill:#009af9; stroke:none; fill-opacity:0" cx="1004.5" cy="222.3" r="2"/>
<circle clip-path="url(#clip332)" style="fill:#009af9; stroke:none; fill-opacity:0" cx="1032.68" cy="250.441" r="2"/>
<circle clip-path="url(#clip332)" style="fill:#009af9; stroke:none; fill-opacity:0" cx="1060.86" cy="392.51" r="2"/>
<circle clip-path="url(#clip332)" style="fill:#009af9; stroke:none; fill-opacity:0" cx="1089.04" cy="501.683" r="2"/>
<circle clip-path="url(#clip332)" style="fill:#009af9; stroke:none; fill-opacity:0" cx="1117.22" cy="636.906" r="2"/>
<circle clip-path="url(#clip332)" style="fill:#009af9; stroke:none; fill-opacity:0" cx="1145.4" cy="542.19" r="2"/>
<circle clip-path="url(#clip332)" style="fill:#009af9; stroke:none; fill-opacity:0" cx="1173.58" cy="158.33" r="2"/>
<circle clip-path="url(#clip332)" style="fill:#009af9; stroke:none; fill-opacity:0" cx="1201.75" cy="360.456" r="2"/>
<circle clip-path="url(#clip332)" style="fill:#009af9; stroke:none; fill-opacity:0" cx="1229.93" cy="237.43" r="2"/>
<circle clip-path="url(#clip332)" style="fill:#009af9; stroke:none; fill-opacity:0" cx="1258.11" cy="379.05" r="2"/>
<circle clip-path="url(#clip332)" style="fill:#009af9; stroke:none; fill-opacity:0" cx="1286.29" cy="354.633" r="2"/>
<circle clip-path="url(#clip332)" style="fill:#009af9; stroke:none; fill-opacity:0" cx="1314.47" cy="574.78" r="2"/>
<circle clip-path="url(#clip332)" style="fill:#009af9; stroke:none; fill-opacity:0" cx="1342.65" cy="593.374" r="2"/>
<circle clip-path="url(#clip332)" style="fill:#009af9; stroke:none; fill-opacity:0" cx="1370.83" cy="178.186" r="2"/>
<circle clip-path="url(#clip332)" style="fill:#009af9; stroke:none; fill-opacity:0" cx="1399.01" cy="299.95" r="2"/>
<circle clip-path="url(#clip332)" style="fill:#009af9; stroke:none; fill-opacity:0" cx="1427.19" cy="360.456" r="2"/>
<circle clip-path="url(#clip332)" style="fill:#009af9; stroke:none; fill-opacity:0" cx="1455.37" cy="613.928" r="2"/>
<circle clip-path="url(#clip332)" style="fill:#009af9; stroke:none; fill-opacity:0" cx="1483.55" cy="372.653" r="2"/>
<circle clip-path="url(#clip332)" style="fill:#009af9; stroke:none; fill-opacity:0" cx="1511.73" cy="557.806" r="2"/>
<circle clip-path="url(#clip332)" style="fill:#009af9; stroke:none; fill-opacity:0" cx="1539.91" cy="478.705" r="2"/>
<circle clip-path="url(#clip332)" style="fill:#009af9; stroke:none; fill-opacity:0" cx="1568.08" cy="110.236" r="2"/>
<circle clip-path="url(#clip332)" style="fill:#009af9; stroke:none; fill-opacity:0" cx="1596.26" cy="271.744" r="2"/>
<circle clip-path="url(#clip332)" style="fill:#009af9; stroke:none; fill-opacity:0" cx="1624.44" cy="243.827" r="2"/>
<circle clip-path="url(#clip332)" style="fill:#009af9; stroke:none; fill-opacity:0" cx="1652.62" cy="439.557" r="2"/>
<circle clip-path="url(#clip332)" style="fill:#009af9; stroke:none; fill-opacity:0" cx="1680.8" cy="372.653" r="2"/>
<circle clip-path="url(#clip332)" style="fill:#009af9; stroke:none; fill-opacity:0" cx="1708.98" cy="636.906" r="2"/>
<circle clip-path="url(#clip332)" style="fill:#009af9; stroke:none; fill-opacity:0" cx="1737.16" cy="542.19" r="2"/>
<circle clip-path="url(#clip332)" style="fill:#009af9; stroke:none; fill-opacity:0" cx="1765.34" cy="187.704" r="2"/>
<circle clip-path="url(#clip332)" style="fill:#009af9; stroke:none; fill-opacity:0" cx="1793.52" cy="332.934" r="2"/>
<circle clip-path="url(#clip332)" style="fill:#009af9; stroke:none; fill-opacity:0" cx="1821.7" cy="257.286" r="2"/>
<circle clip-path="url(#clip332)" style="fill:#009af9; stroke:none; fill-opacity:0" cx="1849.88" cy="439.557" r="2"/>
<circle clip-path="url(#clip332)" style="fill:#009af9; stroke:none; fill-opacity:0" cx="1878.06" cy="379.05" r="2"/>
<circle clip-path="url(#clip332)" style="fill:#009af9; stroke:none; fill-opacity:0" cx="1906.24" cy="557.806" r="2"/>
<circle clip-path="url(#clip332)" style="fill:#009af9; stroke:none; fill-opacity:0" cx="1934.41" cy="613.928" r="2"/>
<circle clip-path="url(#clip332)" style="fill:#009af9; stroke:none; fill-opacity:0" cx="1962.59" cy="205.568" r="2"/>
<circle clip-path="url(#clip332)" style="fill:#009af9; stroke:none; fill-opacity:0" cx="1990.77" cy="318.11" r="2"/>
<circle clip-path="url(#clip332)" style="fill:#009af9; stroke:none; fill-opacity:0" cx="2018.95" cy="271.744" r="2"/>
<circle clip-path="url(#clip332)" style="fill:#009af9; stroke:none; fill-opacity:0" cx="2047.13" cy="478.705" r="2"/>
<circle clip-path="url(#clip332)" style="fill:#009af9; stroke:none; fill-opacity:0" cx="2075.31" cy="501.683" r="2"/>
<circle clip-path="url(#clip332)" style="fill:#009af9; stroke:none; fill-opacity:0" cx="2103.49" cy="772.129" r="2"/>
<circle clip-path="url(#clip332)" style="fill:#009af9; stroke:none; fill-opacity:0" cx="2131.67" cy="728.597" r="2"/>
<circle clip-path="url(#clip332)" style="fill:#009af9; stroke:none; fill-opacity:0" cx="2159.85" cy="268.028" r="2"/>
<circle clip-path="url(#clip332)" style="fill:#009af9; stroke:none; fill-opacity:0" cx="2188.03" cy="458.151" r="2"/>
<circle clip-path="url(#clip332)" style="fill:#009af9; stroke:none; fill-opacity:0" cx="2216.21" cy="613.928" r="2"/>
<circle clip-path="url(#clip332)" style="fill:#009af9; stroke:none; fill-opacity:0" cx="2244.39" cy="527.733" r="2"/>
<circle clip-path="url(#clip332)" style="fill:#009af9; stroke:none; fill-opacity:0" cx="2272.57" cy="828.252" r="2"/>
<circle clip-path="url(#clip332)" style="fill:#009af9; stroke:none; fill-opacity:0" cx="2300.74" cy="662.956" r="2"/>
<circle clip-path="url(#clip332)" style="fill:#009af9; stroke:none; fill-opacity:0" cx="2328.92" cy="907.353" r="2"/>
<circle clip-path="url(#clip332)" style="fill:#009af9; stroke:none; fill-opacity:0" cx="2357.1" cy="422.582" r="2"/>
<circle clip-path="url(#clip332)" style="fill:#009af9; stroke:none; fill-opacity:0" cx="2385.28" cy="772.129" r="2"/>
<circle clip-path="url(#clip332)" style="fill:#009af9; stroke:none; fill-opacity:0" cx="2413.46" cy="772.129" r="2"/>
</svg>
