<?xml version="1.0" encoding="utf-8"?>
<svg xmlns="http://www.w3.org/2000/svg" xmlns:xlink="http://www.w3.org/1999/xlink" width="800" height="300" viewBox="0 0 3200 1200">
<defs>
  <clipPath id="clip000">
    <rect x="0" y="0" width="3200" height="1200"/>
  </clipPath>
</defs>
<path clip-path="url(#clip000)" d="M0 1200 L3200 1200 L3200 0 L0 0  Z" fill="#ffffff" fill-rule="evenodd" fill-opacity="1"/>
<defs>
  <clipPath id="clip001">
    <rect x="640" y="0" width="2241" height="1200"/>
  </clipPath>
</defs>
<path clip-path="url(#clip000)" d="M271.839 1042.58 L3089.76 1042.58 L3089.76 110.236 L271.839 110.236  Z" fill="#ffffff" fill-rule="evenodd" fill-opacity="1"/>
<defs>
  <clipPath id="clip002">
    <rect x="271" y="110" width="2819" height="933"/>
  </clipPath>
</defs>
<polyline clip-path="url(#clip002)" style="stroke:#000000; stroke-linecap:round; stroke-linejoin:round; stroke-width:2; stroke-opacity:0.1; fill:none" points="1117.22,1042.58 1117.22,110.236 "/>
<polyline clip-path="url(#clip002)" style="stroke:#000000; stroke-linecap:round; stroke-linejoin:round; stroke-width:2; stroke-opacity:0.1; fill:none" points="1934.41,1042.58 1934.41,110.236 "/>
<polyline clip-path="url(#clip002)" style="stroke:#000000; stroke-linecap:round; stroke-linejoin:round; stroke-width:2; stroke-opacity:0.1; fill:none" points="2807.97,1042.58 2807.97,110.236 "/>
<polyline clip-path="url(#clip000)" style="stroke:#000000; stroke-linecap:round; stroke-linejoin:round; stroke-width:4; stroke-opacity:1; fill:none" points="271.839,1042.58 3089.76,1042.58 "/>
<polyline clip-path="url(#clip000)" style="stroke:#000000; stroke-linecap:round; stroke-linejoin:round; stroke-width:4; stroke-opacity:1; fill:none" points="1117.22,1042.58 1117.22,1023.68 "/>
<polyline clip-path="url(#clip000)" style="stroke:#000000; stroke-linecap:round; stroke-linejoin:round; stroke-width:4; stroke-opacity:1; fill:none" points="1934.41,1042.58 1934.41,1023.68 "/>
<polyline clip-path="url(#clip000)" style="stroke:#000000; stroke-linecap:round; stroke-linejoin:round; stroke-width:4; stroke-opacity:1; fill:none" points="2807.97,1042.58 2807.97,1023.68 "/>
<path clip-path="url(#clip000)" d="M989.011 1107.44 L1005.33 1107.44 L1005.33 1111.38 L983.386 1111.38 L983.386 1107.44 Q986.048 1104.69 990.632 1100.06 Q995.238 1095.4 996.419 1094.06 Q998.664 1091.54 999.544 1089.8 Q1000.45 1088.04 1000.45 1086.35 Q1000.45 1083.6 998.502 1081.86 Q996.581 1080.13 993.479 1080.13 Q991.28 1080.13 988.826 1080.89 Q986.396 1081.65 983.618 1083.2 L983.618 1078.48 Q986.442 1077.35 988.896 1076.77 Q991.349 1076.19 993.386 1076.19 Q998.757 1076.19 1001.95 1078.88 Q1005.15 1081.56 1005.15 1086.05 Q1005.15 1088.18 1004.34 1090.1 Q1003.55 1092 1001.44 1094.59 Q1000.86 1095.26 997.761 1098.48 Q994.659 1101.68 989.011 1107.44 Z" fill="#000000" fill-rule="nonzero" fill-opacity="1" /><path clip-path="url(#clip000)" d="M1025.15 1079.89 Q1021.53 1079.89 1019.71 1083.46 Q1017.9 1087 1017.9 1094.13 Q1017.9 1101.24 1019.71 1104.8 Q1021.53 1108.34 1025.15 1108.34 Q1028.78 1108.34 1030.59 1104.8 Q1032.41 1101.24 1032.41 1094.13 Q1032.41 1087 1030.59 1083.46 Q1028.78 1079.89 1025.15 1079.89 M1025.15 1076.19 Q1030.96 1076.19 1034.01 1080.8 Q1037.09 1085.38 1037.09 1094.13 Q1037.09 1102.86 1034.01 1107.46 Q1030.96 1112.05 1025.15 1112.05 Q1019.34 1112.05 1016.26 1107.46 Q1013.2 1102.86 1013.2 1094.13 Q1013.2 1085.38 1016.26 1080.8 Q1019.34 1076.19 1025.15 1076.19 Z" fill="#000000" fill-rule="nonzero" fill-opacity="1" /><path clip-path="url(#clip000)" d="M1049.34 1107.44 L1065.65 1107.44 L1065.65 1111.38 L1043.71 1111.38 L1043.71 1107.44 Q1046.37 1104.69 1050.96 1100.06 Q1055.56 1095.4 1056.74 1094.06 Q1058.99 1091.54 1059.87 1089.8 Q1060.77 1088.04 1060.77 1086.35 Q1060.77 1083.6 1058.83 1081.86 Q1056.9 1080.13 1053.8 1080.13 Q1051.6 1080.13 1049.15 1080.89 Q1046.72 1081.65 1043.94 1083.2 L1043.94 1078.48 Q1046.77 1077.35 1049.22 1076.77 Q1051.67 1076.19 1053.71 1076.19 Q1059.08 1076.19 1062.27 1078.88 Q1065.47 1081.56 1065.47 1086.05 Q1065.47 1088.18 1064.66 1090.1 Q1063.87 1092 1061.77 1094.59 Q1061.19 1095.26 1058.08 1098.48 Q1054.98 1101.68 1049.34 1107.44 Z" fill="#000000" fill-rule="nonzero" fill-opacity="1" /><path clip-path="url(#clip000)" d="M1088.32 1080.89 L1076.51 1099.34 L1088.32 1099.34 L1088.32 1080.89 M1087.09 1076.82 L1092.97 1076.82 L1092.97 1099.34 L1097.9 1099.34 L1097.9 1103.23 L1092.97 1103.23 L1092.97 1111.38 L1088.32 1111.38 L1088.32 1103.23 L1072.71 1103.23 L1072.71 1098.71 L1087.09 1076.82 Z" fill="#000000" fill-rule="nonzero" fill-opacity="1" /><path clip-path="url(#clip000)" d="M1102.88 1096.49 L1115.35 1096.49 L1115.35 1100.29 L1102.88 1100.29 L1102.88 1096.49 Z" fill="#000000" fill-rule="nonzero" fill-opacity="1" /><path clip-path="url(#clip000)" d="M1132.74 1079.89 Q1129.13 1079.89 1127.3 1083.46 Q1125.49 1087 1125.49 1094.13 Q1125.49 1101.24 1127.3 1104.8 Q1129.13 1108.34 1132.74 1108.34 Q1136.37 1108.34 1138.18 1104.8 Q1140.01 1101.24 1140.01 1094.13 Q1140.01 1087 1138.18 1083.46 Q1136.37 1079.89 1132.74 1079.89 M1132.74 1076.19 Q1138.55 1076.19 1141.6 1080.8 Q1144.68 1085.38 1144.68 1094.13 Q1144.68 1102.86 1141.6 1107.46 Q1138.55 1112.05 1132.74 1112.05 Q1126.93 1112.05 1123.85 1107.46 Q1120.79 1102.86 1120.79 1094.13 Q1120.79 1085.38 1123.85 1080.8 Q1126.93 1076.19 1132.74 1076.19 Z" fill="#000000" fill-rule="nonzero" fill-opacity="1" /><path clip-path="url(#clip000)" d="M1156.93 1107.44 L1173.25 1107.44 L1173.25 1111.38 L1151.3 1111.38 L1151.3 1107.44 Q1153.96 1104.69 1158.55 1100.06 Q1163.15 1095.4 1164.33 1094.06 Q1166.58 1091.54 1167.46 1089.8 Q1168.36 1088.04 1168.36 1086.35 Q1168.36 1083.6 1166.42 1081.86 Q1164.5 1080.13 1161.39 1080.13 Q1159.2 1080.13 1156.74 1080.89 Q1154.31 1081.65 1151.53 1083.2 L1151.53 1078.48 Q1154.36 1077.35 1156.81 1076.77 Q1159.26 1076.19 1161.3 1076.19 Q1166.67 1076.19 1169.87 1078.88 Q1173.06 1081.56 1173.06 1086.05 Q1173.06 1088.18 1172.25 1090.1 Q1171.46 1092 1169.36 1094.59 Q1168.78 1095.26 1165.68 1098.48 Q1162.58 1101.68 1156.93 1107.44 Z" fill="#000000" fill-rule="nonzero" fill-opacity="1" /><path clip-path="url(#clip000)" d="M1180.31 1096.49 L1192.78 1096.49 L1192.78 1100.29 L1180.31 1100.29 L1180.31 1096.49 Z" fill="#000000" fill-rule="nonzero" fill-opacity="1" /><path clip-path="url(#clip000)" d="M1210.17 1079.89 Q1206.56 1079.89 1204.73 1083.46 Q1202.92 1087 1202.92 1094.13 Q1202.92 1101.24 1204.73 1104.8 Q1206.56 1108.34 1210.17 1108.34 Q1213.8 1108.34 1215.61 1104.8 Q1217.44 1101.24 1217.44 1094.13 Q1217.44 1087 1215.61 1083.46 Q1213.8 1079.89 1210.17 1079.89 M1210.17 1076.19 Q1215.98 1076.19 1219.03 1080.8 Q1222.11 1085.38 1222.11 1094.13 Q1222.11 1102.86 1219.03 1107.46 Q1215.98 1112.05 1210.17 1112.05 Q1204.36 1112.05 1201.28 1107.46 Q1198.22 1102.86 1198.22 1094.13 Q1198.22 1085.38 1201.28 1080.8 Q1204.36 1076.19 1210.17 1076.19 Z" fill="#000000" fill-rule="nonzero" fill-opacity="1" /><path clip-path="url(#clip000)" d="M1231.14 1107.44 L1238.78 1107.44 L1238.78 1081.07 L1230.47 1082.74 L1230.47 1078.48 L1238.73 1076.82 L1243.41 1076.82 L1243.41 1107.44 L1251.05 1107.44 L1251.05 1111.38 L1231.14 1111.38 L1231.14 1107.44 Z" fill="#000000" fill-rule="nonzero" fill-opacity="1" /><path clip-path="url(#clip000)" d="M1806.21 1107.44 L1822.53 1107.44 L1822.53 1111.38 L1800.58 1111.38 L1800.58 1107.44 Q1803.25 1104.69 1807.83 1100.06 Q1812.44 1095.4 1813.62 1094.06 Q1815.86 1091.54 1816.74 1089.8 Q1817.64 1088.04 1817.64 1086.35 Q1817.64 1083.6 1815.7 1081.86 Q1813.78 1080.13 1810.68 1080.13 Q1808.48 1080.13 1806.02 1080.89 Q1803.59 1081.65 1800.82 1083.2 L1800.82 1078.48 Q1803.64 1077.35 1806.09 1076.77 Q1808.55 1076.19 1810.58 1076.19 Q1815.95 1076.19 1819.15 1078.88 Q1822.34 1081.56 1822.34 1086.05 Q1822.34 1088.18 1821.53 1090.1 Q1820.75 1092 1818.64 1094.59 Q1818.06 1095.26 1814.96 1098.48 Q1811.86 1101.68 1806.21 1107.44 Z" fill="#000000" fill-rule="nonzero" fill-opacity="1" /><path clip-path="url(#clip000)" d="M1842.34 1079.89 Q1838.73 1079.89 1836.9 1083.46 Q1835.1 1087 1835.1 1094.13 Q1835.1 1101.24 1836.9 1104.8 Q1838.73 1108.34 1842.34 1108.34 Q1845.98 1108.34 1847.78 1104.8 Q1849.61 1101.24 1849.61 1094.13 Q1849.61 1087 1847.78 1083.46 Q1845.98 1079.89 1842.34 1079.89 M1842.34 1076.19 Q1848.15 1076.19 1851.21 1080.8 Q1854.29 1085.38 1854.29 1094.13 Q1854.29 1102.86 1851.21 1107.46 Q1848.15 1112.05 1842.34 1112.05 Q1836.53 1112.05 1833.45 1107.46 Q1830.4 1102.86 1830.4 1094.13 Q1830.4 1085.38 1833.45 1080.8 Q1836.53 1076.19 1842.34 1076.19 Z" fill="#000000" fill-rule="nonzero" fill-opacity="1" /><path clip-path="url(#clip000)" d="M1866.53 1107.44 L1882.85 1107.44 L1882.85 1111.38 L1860.91 1111.38 L1860.91 1107.44 Q1863.57 1104.69 1868.15 1100.06 Q1872.76 1095.4 1873.94 1094.06 Q1876.19 1091.54 1877.07 1089.8 Q1877.97 1088.04 1877.97 1086.35 Q1877.97 1083.6 1876.02 1081.86 Q1874.1 1080.13 1871 1080.13 Q1868.8 1080.13 1866.35 1080.89 Q1863.92 1081.65 1861.14 1083.2 L1861.14 1078.48 Q1863.96 1077.35 1866.42 1076.77 Q1868.87 1076.19 1870.91 1076.19 Q1876.28 1076.19 1879.47 1078.88 Q1882.67 1081.56 1882.67 1086.05 Q1882.67 1088.18 1881.86 1090.1 Q1881.07 1092 1878.96 1094.59 Q1878.38 1095.26 1875.28 1098.48 Q1872.18 1101.68 1866.53 1107.44 Z" fill="#000000" fill-rule="nonzero" fill-opacity="1" /><path clip-path="url(#clip000)" d="M1905.51 1080.89 L1893.71 1099.34 L1905.51 1099.34 L1905.51 1080.89 M1904.29 1076.82 L1910.17 1076.82 L1910.17 1099.34 L1915.1 1099.34 L1915.1 1103.23 L1910.17 1103.23 L1910.17 1111.38 L1905.51 1111.38 L1905.51 1103.23 L1889.91 1103.23 L1889.91 1098.71 L1904.29 1076.82 Z" fill="#000000" fill-rule="nonzero" fill-opacity="1" /><path clip-path="url(#clip000)" d="M1920.07 1096.49 L1932.55 1096.49 L1932.55 1100.29 L1920.07 1100.29 L1920.07 1096.49 Z" fill="#000000" fill-rule="nonzero" fill-opacity="1" /><path clip-path="url(#clip000)" d="M1949.94 1079.89 Q1946.32 1079.89 1944.5 1083.46 Q1942.69 1087 1942.69 1094.13 Q1942.69 1101.24 1944.5 1104.8 Q1946.32 1108.34 1949.94 1108.34 Q1953.57 1108.34 1955.38 1104.8 Q1957.2 1101.24 1957.2 1094.13 Q1957.2 1087 1955.38 1083.46 Q1953.57 1079.89 1949.94 1079.89 M1949.94 1076.19 Q1955.75 1076.19 1958.8 1080.8 Q1961.88 1085.38 1961.88 1094.13 Q1961.88 1102.86 1958.8 1107.46 Q1955.75 1112.05 1949.94 1112.05 Q1944.13 1112.05 1941.05 1107.46 Q1937.99 1102.86 1937.99 1094.13 Q1937.99 1085.38 1941.05 1080.8 Q1944.13 1076.19 1949.94 1076.19 Z" fill="#000000" fill-rule="nonzero" fill-opacity="1" /><path clip-path="url(#clip000)" d="M1984.26 1092.74 Q1987.62 1093.46 1989.5 1095.73 Q1991.39 1098 1991.39 1101.33 Q1991.39 1106.45 1987.88 1109.25 Q1984.36 1112.05 1977.88 1112.05 Q1975.7 1112.05 1973.38 1111.61 Q1971.09 1111.19 1968.64 1110.33 L1968.64 1105.82 Q1970.58 1106.95 1972.9 1107.53 Q1975.21 1108.11 1977.74 1108.11 Q1982.13 1108.11 1984.43 1106.38 Q1986.74 1104.64 1986.74 1101.33 Q1986.74 1098.27 1984.59 1096.56 Q1982.46 1094.82 1978.64 1094.82 L1974.61 1094.82 L1974.61 1090.98 L1978.82 1090.98 Q1982.27 1090.98 1984.1 1089.62 Q1985.93 1088.23 1985.93 1085.64 Q1985.93 1082.97 1984.03 1081.56 Q1982.16 1080.13 1978.64 1080.13 Q1976.72 1080.13 1974.52 1080.54 Q1972.32 1080.96 1969.68 1081.84 L1969.68 1077.67 Q1972.34 1076.93 1974.66 1076.56 Q1977 1076.19 1979.06 1076.19 Q1984.38 1076.19 1987.48 1078.62 Q1990.58 1081.03 1990.58 1085.15 Q1990.58 1088.02 1988.94 1090.01 Q1987.3 1091.98 1984.26 1092.74 Z" fill="#000000" fill-rule="nonzero" fill-opacity="1" /><path clip-path="url(#clip000)" d="M1997.5 1096.49 L2009.98 1096.49 L2009.98 1100.29 L1997.5 1100.29 L1997.5 1096.49 Z" fill="#000000" fill-rule="nonzero" fill-opacity="1" /><path clip-path="url(#clip000)" d="M2027.37 1079.89 Q2023.75 1079.89 2021.93 1083.46 Q2020.12 1087 2020.12 1094.13 Q2020.12 1101.24 2021.93 1104.8 Q2023.75 1108.34 2027.37 1108.34 Q2031 1108.34 2032.81 1104.8 Q2034.63 1101.24 2034.63 1094.13 Q2034.63 1087 2032.81 1083.46 Q2031 1079.89 2027.37 1079.89 M2027.37 1076.19 Q2033.18 1076.19 2036.23 1080.8 Q2039.31 1085.38 2039.31 1094.13 Q2039.31 1102.86 2036.23 1107.46 Q2033.18 1112.05 2027.37 1112.05 Q2021.56 1112.05 2018.48 1107.46 Q2015.42 1102.86 2015.42 1094.13 Q2015.42 1085.38 2018.48 1080.8 Q2021.56 1076.19 2027.37 1076.19 Z" fill="#000000" fill-rule="nonzero" fill-opacity="1" /><path clip-path="url(#clip000)" d="M2048.34 1107.44 L2055.98 1107.44 L2055.98 1081.07 L2047.67 1082.74 L2047.67 1078.48 L2055.93 1076.82 L2060.61 1076.82 L2060.61 1107.44 L2068.25 1107.44 L2068.25 1111.38 L2048.34 1111.38 L2048.34 1107.44 Z" fill="#000000" fill-rule="nonzero" fill-opacity="1" /><path clip-path="url(#clip000)" d="M2679.77 1107.44 L2696.09 1107.44 L2696.09 1111.38 L2674.14 1111.38 L2674.14 1107.44 Q2676.8 1104.69 2681.39 1100.06 Q2685.99 1095.4 2687.17 1094.06 Q2689.42 1091.54 2690.3 1089.8 Q2691.2 1088.04 2691.2 1086.35 Q2691.2 1083.6 2689.26 1081.86 Q2687.34 1080.13 2684.23 1080.13 Q2682.03 1080.13 2679.58 1080.89 Q2677.15 1081.65 2674.37 1083.2 L2674.37 1078.48 Q2677.2 1077.35 2679.65 1076.77 Q2682.1 1076.19 2684.14 1076.19 Q2689.51 1076.19 2692.71 1078.88 Q2695.9 1081.56 2695.9 1086.05 Q2695.9 1088.18 2695.09 1090.1 Q2694.3 1092 2692.2 1094.59 Q2691.62 1095.26 2688.52 1098.48 Q2685.41 1101.68 2679.77 1107.44 Z" fill="#000000" fill-rule="nonzero" fill-opacity="1" /><path clip-path="url(#clip000)" d="M2715.9 1079.89 Q2712.29 1079.89 2710.46 1083.46 Q2708.65 1087 2708.65 1094.13 Q2708.65 1101.24 2710.46 1104.8 Q2712.29 1108.34 2715.9 1108.34 Q2719.53 1108.34 2721.34 1104.8 Q2723.17 1101.24 2723.17 1094.13 Q2723.17 1087 2721.34 1083.46 Q2719.53 1079.89 2715.9 1079.89 M2715.9 1076.19 Q2721.71 1076.19 2724.77 1080.8 Q2727.84 1085.38 2727.84 1094.13 Q2727.84 1102.86 2724.77 1107.46 Q2721.71 1112.05 2715.9 1112.05 Q2710.09 1112.05 2707.01 1107.46 Q2703.96 1102.86 2703.96 1094.13 Q2703.96 1085.38 2707.01 1080.8 Q2710.09 1076.19 2715.9 1076.19 Z" fill="#000000" fill-rule="nonzero" fill-opacity="1" /><path clip-path="url(#clip000)" d="M2740.09 1107.44 L2756.41 1107.44 L2756.41 1111.38 L2734.46 1111.38 L2734.46 1107.44 Q2737.13 1104.69 2741.71 1100.06 Q2746.32 1095.4 2747.5 1094.06 Q2749.74 1091.54 2750.62 1089.8 Q2751.52 1088.04 2751.52 1086.35 Q2751.52 1083.6 2749.58 1081.86 Q2747.66 1080.13 2744.56 1080.13 Q2742.36 1080.13 2739.9 1080.89 Q2737.47 1081.65 2734.7 1083.2 L2734.7 1078.48 Q2737.52 1077.35 2739.97 1076.77 Q2742.43 1076.19 2744.46 1076.19 Q2749.84 1076.19 2753.03 1078.88 Q2756.22 1081.56 2756.22 1086.05 Q2756.22 1088.18 2755.41 1090.1 Q2754.63 1092 2752.52 1094.59 Q2751.94 1095.26 2748.84 1098.48 Q2745.74 1101.68 2740.09 1107.44 Z" fill="#000000" fill-rule="nonzero" fill-opacity="1" /><path clip-path="url(#clip000)" d="M2779.07 1080.89 L2767.27 1099.34 L2779.07 1099.34 L2779.07 1080.89 M2777.84 1076.82 L2783.72 1076.82 L2783.72 1099.34 L2788.65 1099.34 L2788.65 1103.23 L2783.72 1103.23 L2783.72 1111.38 L2779.07 1111.38 L2779.07 1103.23 L2763.47 1103.23 L2763.47 1098.71 L2777.84 1076.82 Z" fill="#000000" fill-rule="nonzero" fill-opacity="1" /><path clip-path="url(#clip000)" d="M2793.63 1096.49 L2806.11 1096.49 L2806.11 1100.29 L2793.63 1100.29 L2793.63 1096.49 Z" fill="#000000" fill-rule="nonzero" fill-opacity="1" /><path clip-path="url(#clip000)" d="M2823.49 1079.89 Q2819.88 1079.89 2818.05 1083.46 Q2816.25 1087 2816.25 1094.13 Q2816.25 1101.24 2818.05 1104.8 Q2819.88 1108.34 2823.49 1108.34 Q2827.13 1108.34 2828.93 1104.8 Q2830.76 1101.24 2830.76 1094.13 Q2830.76 1087 2828.93 1083.46 Q2827.13 1079.89 2823.49 1079.89 M2823.49 1076.19 Q2829.3 1076.19 2832.36 1080.8 Q2835.44 1085.38 2835.44 1094.13 Q2835.44 1102.86 2832.36 1107.46 Q2829.3 1112.05 2823.49 1112.05 Q2817.68 1112.05 2814.6 1107.46 Q2811.55 1102.86 2811.55 1094.13 Q2811.55 1085.38 2814.6 1080.8 Q2817.68 1076.19 2823.49 1076.19 Z" fill="#000000" fill-rule="nonzero" fill-opacity="1" /><path clip-path="url(#clip000)" d="M2856.5 1080.89 L2844.7 1099.34 L2856.5 1099.34 L2856.5 1080.89 M2855.27 1076.82 L2861.15 1076.82 L2861.15 1099.34 L2866.08 1099.34 L2866.08 1103.23 L2861.15 1103.23 L2861.15 1111.38 L2856.5 1111.38 L2856.5 1103.23 L2840.9 1103.23 L2840.9 1098.71 L2855.27 1076.82 Z" fill="#000000" fill-rule="nonzero" fill-opacity="1" /><path clip-path="url(#clip000)" d="M2871.06 1096.49 L2883.54 1096.49 L2883.54 1100.29 L2871.06 1100.29 L2871.06 1096.49 Z" fill="#000000" fill-rule="nonzero" fill-opacity="1" /><path clip-path="url(#clip000)" d="M2900.92 1079.89 Q2897.31 1079.89 2895.48 1083.46 Q2893.68 1087 2893.68 1094.13 Q2893.68 1101.24 2895.48 1104.8 Q2897.31 1108.34 2900.92 1108.34 Q2904.56 1108.34 2906.36 1104.8 Q2908.19 1101.24 2908.19 1094.13 Q2908.19 1087 2906.36 1083.46 Q2904.56 1079.89 2900.92 1079.89 M2900.92 1076.19 Q2906.73 1076.19 2909.79 1080.8 Q2912.87 1085.38 2912.87 1094.13 Q2912.87 1102.86 2909.79 1107.46 Q2906.73 1112.05 2900.92 1112.05 Q2895.11 1112.05 2892.03 1107.46 Q2888.98 1102.86 2888.98 1094.13 Q2888.98 1085.38 2892.03 1080.8 Q2895.11 1076.19 2900.92 1076.19 Z" fill="#000000" fill-rule="nonzero" fill-opacity="1" /><path clip-path="url(#clip000)" d="M2921.89 1107.44 L2929.53 1107.44 L2929.53 1081.07 L2921.22 1082.74 L2921.22 1078.48 L2929.49 1076.82 L2934.16 1076.82 L2934.16 1107.44 L2941.8 1107.44 L2941.8 1111.38 L2921.89 1111.38 L2921.89 1107.44 Z" fill="#000000" fill-rule="nonzero" fill-opacity="1" /><polyline clip-path="url(#clip002)" style="stroke:#000000; stroke-linecap:round; stroke-linejoin:round; stroke-width:2; stroke-opacity:0.1; fill:none" points="271.839,1042.58 3089.76,1042.58 "/>
<polyline clip-path="url(#clip002)" style="stroke:#000000; stroke-linecap:round; stroke-linejoin:round; stroke-width:2; stroke-opacity:0.1; fill:none" points="271.839,633.84 3089.76,633.84 "/>
<polyline clip-path="url(#clip002)" style="stroke:#000000; stroke-linecap:round; stroke-linejoin:round; stroke-width:2; stroke-opacity:0.1; fill:none" points="271.839,225.105 3089.76,225.105 "/>
<polyline clip-path="url(#clip000)" style="stroke:#000000; stroke-linecap:round; stroke-linejoin:round; stroke-width:4; stroke-opacity:1; fill:none" points="271.839,1042.58 271.839,110.236 "/>
<polyline clip-path="url(#clip000)" style="stroke:#000000; stroke-linecap:round; stroke-linejoin:round; stroke-width:4; stroke-opacity:1; fill:none" points="271.839,1042.58 290.737,1042.58 "/>
<polyline clip-path="url(#clip000)" style="stroke:#000000; stroke-linecap:round; stroke-linejoin:round; stroke-width:4; stroke-opacity:1; fill:none" points="271.839,633.84 290.737,633.84 "/>
<polyline clip-path="url(#clip000)" style="stroke:#000000; stroke-linecap:round; stroke-linejoin:round; stroke-width:4; stroke-opacity:1; fill:none" points="271.839,225.105 290.737,225.105 "/>
<path clip-path="url(#clip000)" d="M153.134 1062.37 L160.772 1062.37 L160.772 1036 L152.462 1037.67 L152.462 1033.41 L160.726 1031.74 L165.402 1031.74 L165.402 1062.37 L173.041 1062.37 L173.041 1066.3 L153.134 1066.3 L153.134 1062.37 Z" fill="#000000" fill-rule="nonzero" fill-opacity="1" /><path clip-path="url(#clip000)" d="M192.485 1034.82 Q188.874 1034.82 187.045 1038.39 Q185.24 1041.93 185.24 1049.06 Q185.24 1056.16 187.045 1059.73 Q188.874 1063.27 192.485 1063.27 Q196.119 1063.27 197.925 1059.73 Q199.754 1056.16 199.754 1049.06 Q199.754 1041.93 197.925 1038.39 Q196.119 1034.82 192.485 1034.82 M192.485 1031.12 Q198.295 1031.12 201.351 1035.72 Q204.43 1040.31 204.43 1049.06 Q204.43 1057.78 201.351 1062.39 Q198.295 1066.97 192.485 1066.97 Q186.675 1066.97 183.596 1062.39 Q180.541 1057.78 180.541 1049.06 Q180.541 1040.31 183.596 1035.72 Q186.675 1031.12 192.485 1031.12 Z" fill="#000000" fill-rule="nonzero" fill-opacity="1" /><path clip-path="url(#clip000)" d="M214.134 1013.31 Q211.2 1013.31 209.715 1016.21 Q208.248 1019.09 208.248 1024.88 Q208.248 1030.66 209.715 1033.55 Q211.2 1036.43 214.134 1036.43 Q217.087 1036.43 218.554 1033.55 Q220.04 1030.66 220.04 1024.88 Q220.04 1019.09 218.554 1016.21 Q217.087 1013.31 214.134 1013.31 M214.134 1010.31 Q218.855 1010.31 221.338 1014.05 Q223.839 1017.77 223.839 1024.88 Q223.839 1031.97 221.338 1035.71 Q218.855 1039.44 214.134 1039.44 Q209.414 1039.44 206.912 1035.71 Q204.43 1031.97 204.43 1024.88 Q204.43 1017.77 206.912 1014.05 Q209.414 1010.31 214.134 1010.31 Z" fill="#000000" fill-rule="nonzero" fill-opacity="1" /><path clip-path="url(#clip000)" d="M155.823 653.633 L163.462 653.633 L163.462 627.267 L155.152 628.934 L155.152 624.674 L163.416 623.008 L168.092 623.008 L168.092 653.633 L175.73 653.633 L175.73 657.568 L155.823 657.568 L155.823 653.633 Z" fill="#000000" fill-rule="nonzero" fill-opacity="1" /><path clip-path="url(#clip000)" d="M195.175 626.086 Q191.564 626.086 189.735 629.651 Q187.929 633.193 187.929 640.322 Q187.929 647.429 189.735 650.994 Q191.564 654.535 195.175 654.535 Q198.809 654.535 200.615 650.994 Q202.443 647.429 202.443 640.322 Q202.443 633.193 200.615 629.651 Q198.809 626.086 195.175 626.086 M195.175 622.383 Q200.985 622.383 204.04 626.989 Q207.119 631.573 207.119 640.322 Q207.119 649.049 204.04 653.656 Q200.985 658.239 195.175 658.239 Q189.365 658.239 186.286 653.656 Q183.23 649.049 183.23 640.322 Q183.23 631.573 186.286 626.989 Q189.365 622.383 195.175 622.383 Z" fill="#000000" fill-rule="nonzero" fill-opacity="1" /><path clip-path="url(#clip000)" d="M207.665 626.96 L213.871 626.96 L213.871 605.538 L207.119 606.892 L207.119 603.432 L213.833 602.077 L217.633 602.077 L217.633 626.96 L223.839 626.96 L223.839 630.157 L207.665 630.157 L207.665 626.96 Z" fill="#000000" fill-rule="nonzero" fill-opacity="1" /><path clip-path="url(#clip000)" d="M154.713 244.897 L162.352 244.897 L162.352 218.531 L154.042 220.198 L154.042 215.939 L162.306 214.272 L166.982 214.272 L166.982 244.897 L174.621 244.897 L174.621 248.832 L154.713 248.832 L154.713 244.897 Z" fill="#000000" fill-rule="nonzero" fill-opacity="1" /><path clip-path="url(#clip000)" d="M194.065 217.351 Q190.454 217.351 188.625 220.916 Q186.82 224.457 186.82 231.587 Q186.82 238.693 188.625 242.258 Q190.454 245.8 194.065 245.8 Q197.699 245.8 199.505 242.258 Q201.334 238.693 201.334 231.587 Q201.334 224.457 199.505 220.916 Q197.699 217.351 194.065 217.351 M194.065 213.647 Q199.875 213.647 202.931 218.254 Q206.009 222.837 206.009 231.587 Q206.009 240.314 202.931 244.92 Q199.875 249.503 194.065 249.503 Q188.255 249.503 185.176 244.92 Q182.121 240.314 182.121 231.587 Q182.121 222.837 185.176 218.254 Q188.255 213.647 194.065 213.647 Z" fill="#000000" fill-rule="nonzero" fill-opacity="1" /><path clip-path="url(#clip000)" d="M210.58 218.224 L223.839 218.224 L223.839 221.422 L206.009 221.422 L206.009 218.224 Q208.172 215.986 211.896 212.225 Q215.639 208.444 216.598 207.354 Q218.423 205.304 219.137 203.893 Q219.871 202.464 219.871 201.091 Q219.871 198.852 218.291 197.442 Q216.73 196.031 214.21 196.031 Q212.423 196.031 210.429 196.652 Q208.454 197.273 206.198 198.533 L206.198 194.696 Q208.492 193.774 210.486 193.304 Q212.479 192.834 214.134 192.834 Q218.498 192.834 221.093 195.016 Q223.689 197.197 223.689 200.846 Q223.689 202.576 223.03 204.137 Q222.391 205.68 220.68 207.786 Q220.209 208.332 217.689 210.946 Q215.169 213.541 210.58 218.224 Z" fill="#000000" fill-rule="nonzero" fill-opacity="1" /><path clip-path="url(#clip000)" d="M83.4268 893.355 L70.6636 893.355 L70.6636 903.858 L65.38 903.858 L65.38 886.989 L85.7821 886.989 Q88.4239 890.713 89.7925 895.201 Q91.1293 899.688 91.1293 904.781 Q91.1293 915.921 84.6363 922.223 Q78.1114 928.493 66.494 928.493 Q54.8448 928.493 48.3518 922.223 Q41.8269 915.921 41.8269 904.781 Q41.8269 900.134 42.9727 895.964 Q44.1186 891.763 46.3466 888.23 L53.1897 888.23 Q50.166 891.795 48.6382 895.805 Q47.1104 899.816 47.1104 904.24 Q47.1104 912.961 51.9802 917.353 Q56.85 921.714 66.494 921.714 Q76.1062 921.714 80.976 917.353 Q85.8458 912.961 85.8458 904.24 Q85.8458 900.834 85.2729 898.161 Q84.6681 895.487 83.4268 893.355 Z" fill="#000000" fill-rule="nonzero" fill-opacity="1" /><path clip-path="url(#clip000)" d="M70.9182 845.007 L73.7828 845.007 L73.7828 871.934 Q79.8302 871.552 83.013 868.305 Q86.1641 865.027 86.1641 859.203 Q86.1641 855.829 85.3365 852.678 Q84.509 849.495 82.8539 846.376 L88.3921 846.376 Q89.7289 849.527 90.4291 852.837 Q91.1293 856.147 91.1293 859.553 Q91.1293 868.083 86.1641 873.08 Q81.1988 878.045 72.7324 878.045 Q63.9796 878.045 58.8552 873.334 Q53.699 868.592 53.699 860.571 Q53.699 853.378 58.3459 849.208 Q62.9611 845.007 70.9182 845.007 M69.1995 850.863 Q64.3933 850.927 61.5288 853.569 Q58.6642 856.179 58.6642 860.507 Q58.6642 865.409 61.4333 868.369 Q64.2024 871.297 69.2313 871.743 L69.1995 850.863 Z" fill="#000000" fill-rule="nonzero" fill-opacity="1" /><path clip-path="url(#clip000)" d="M68.6902 805.762 L90.2063 805.762 L90.2063 811.619 L68.8812 811.619 Q63.8204 811.619 61.306 813.592 Q58.7915 815.566 58.7915 819.512 Q58.7915 824.255 61.8152 826.992 Q64.8389 829.729 70.0588 829.729 L90.2063 829.729 L90.2063 835.618 L54.5583 835.618 L54.5583 829.729 L60.0965 829.729 Q56.8818 827.629 55.2904 824.796 Q53.699 821.931 53.699 818.207 Q53.699 812.064 57.5184 808.913 Q61.306 805.762 68.6902 805.762 Z" fill="#000000" fill-rule="nonzero" fill-opacity="1" /><path clip-path="url(#clip000)" d="M58.6642 780.268 Q58.6642 784.978 62.3563 787.716 Q66.0166 790.453 72.4141 790.453 Q78.8117 790.453 82.5038 787.747 Q86.1641 785.01 86.1641 780.268 Q86.1641 775.589 82.4719 772.852 Q78.7798 770.114 72.4141 770.114 Q66.0803 770.114 62.3881 772.852 Q58.6642 775.589 58.6642 780.268 M53.699 780.268 Q53.699 772.629 58.6642 768.268 Q63.6295 763.908 72.4141 763.908 Q81.167 763.908 86.1641 768.268 Q91.1293 772.629 91.1293 780.268 Q91.1293 787.938 86.1641 792.299 Q81.167 796.628 72.4141 796.628 Q63.6295 796.628 58.6642 792.299 Q53.699 787.938 53.699 780.268 Z" fill="#000000" fill-rule="nonzero" fill-opacity="1" /><path clip-path="url(#clip000)" d="M61.4015 726.446 Q57.4547 724.25 55.5768 721.194 Q53.699 718.138 53.699 714.001 Q53.699 708.431 57.6139 705.407 Q61.4969 702.383 68.6902 702.383 L90.2063 702.383 L90.2063 708.272 L68.8812 708.272 Q63.7568 708.272 61.2741 710.086 Q58.7915 711.9 58.7915 715.624 Q58.7915 720.175 61.8152 722.817 Q64.8389 725.459 70.0588 725.459 L90.2063 725.459 L90.2063 731.347 L68.8812 731.347 Q63.7249 731.347 61.2741 733.162 Q58.7915 734.976 58.7915 738.763 Q58.7915 743.251 61.8471 745.893 Q64.8708 748.535 70.0588 748.535 L90.2063 748.535 L90.2063 754.423 L54.5583 754.423 L54.5583 748.535 L60.0965 748.535 Q56.8182 746.529 55.2586 743.729 Q53.699 740.928 53.699 737.076 Q53.699 733.193 55.6723 730.488 Q57.6457 727.751 61.4015 726.446 Z" fill="#000000" fill-rule="nonzero" fill-opacity="1" /><path clip-path="url(#clip000)" d="M70.9182 660.211 L73.7828 660.211 L73.7828 687.137 Q79.8302 686.756 83.013 683.509 Q86.1641 680.231 86.1641 674.406 Q86.1641 671.032 85.3365 667.881 Q84.509 664.698 82.8539 661.579 L88.3921 661.579 Q89.7289 664.73 90.4291 668.04 Q91.1293 671.35 91.1293 674.756 Q91.1293 683.286 86.1641 688.283 Q81.1988 693.249 72.7324 693.249 Q63.9796 693.249 58.8552 688.538 Q53.699 683.795 53.699 675.775 Q53.699 668.581 58.3459 664.412 Q62.9611 660.211 70.9182 660.211 M69.1995 666.067 Q64.3933 666.131 61.5288 668.772 Q58.6642 671.382 58.6642 675.711 Q58.6642 680.613 61.4333 683.573 Q64.2024 686.501 69.2313 686.946 L69.1995 666.067 Z" fill="#000000" fill-rule="nonzero" fill-opacity="1" /><path clip-path="url(#clip000)" d="M55.6087 627.873 L61.1468 627.873 Q59.8737 630.355 59.2371 633.029 Q58.6006 635.703 58.6006 638.567 Q58.6006 642.928 59.9373 645.124 Q61.2741 647.288 63.9477 647.288 Q65.9848 647.288 67.1624 645.729 Q68.3083 644.169 69.3586 639.458 L69.8042 637.453 Q71.141 631.215 73.5918 628.605 Q76.0108 625.963 80.3713 625.963 Q85.3365 625.963 88.2329 629.91 Q91.1293 633.825 91.1293 640.7 Q91.1293 643.564 90.5564 646.683 Q90.0153 649.771 88.9013 653.208 L82.8539 653.208 Q84.5408 649.962 85.4002 646.811 Q86.2277 643.66 86.2277 640.572 Q86.2277 636.435 84.8273 634.207 Q83.395 631.979 80.8169 631.979 Q78.4297 631.979 77.1566 633.602 Q75.8834 635.193 74.7058 640.636 L74.2284 642.673 Q73.0825 648.116 70.7272 650.535 Q68.3401 652.954 64.2024 652.954 Q59.1735 652.954 56.4362 649.389 Q53.699 645.824 53.699 639.267 Q53.699 636.021 54.1764 633.156 Q54.6538 630.292 55.6087 627.873 Z" fill="#000000" fill-rule="nonzero" fill-opacity="1" /><path clip-path="url(#clip000)" d="M42.6863 606.229 L42.6863 600.818 L96.2537 617.369 L96.2537 622.78 L42.6863 606.229 Z" fill="#000000" fill-rule="nonzero" fill-opacity="1" /><path clip-path="url(#clip000)" d="M47.9698 587.992 L84.9227 587.992 L84.9227 580.225 Q84.9227 570.39 80.4668 565.839 Q76.0108 561.256 66.3985 561.256 Q56.85 561.256 52.4258 565.839 Q47.9698 570.39 47.9698 580.225 L47.9698 587.992 M42.6863 594.421 L42.6863 581.212 Q42.6863 567.399 48.4472 560.937 Q54.1764 554.476 66.3985 554.476 Q78.6844 554.476 84.4453 560.969 Q90.2063 567.462 90.2063 581.212 L90.2063 594.421 L42.6863 594.421 Z" fill="#000000" fill-rule="nonzero" fill-opacity="1" /><path clip-path="url(#clip000)" d="M72.2868 528.281 Q72.2868 535.379 73.9101 538.116 Q75.5333 540.854 79.4482 540.854 Q82.5674 540.854 84.4135 538.816 Q86.2277 536.748 86.2277 533.215 Q86.2277 528.345 82.7902 525.417 Q79.3209 522.457 73.5918 522.457 L72.2868 522.457 L72.2868 528.281 M69.8679 516.6 L90.2063 516.6 L90.2063 522.457 L84.7954 522.457 Q88.0419 524.462 89.6015 527.454 Q91.1293 530.446 91.1293 534.774 Q91.1293 540.249 88.0738 543.495 Q84.9864 546.71 79.8302 546.71 Q73.8146 546.71 70.759 542.7 Q67.7035 538.657 67.7035 530.668 L67.7035 522.457 L67.1306 522.457 Q63.0884 522.457 60.8922 525.13 Q58.6642 527.772 58.6642 532.578 Q58.6642 535.634 59.3963 538.53 Q60.1283 541.426 61.5924 544.1 L56.1816 544.1 Q54.9403 540.885 54.3355 537.862 Q53.699 534.838 53.699 531.973 Q53.699 524.239 57.7094 520.42 Q61.7197 516.6 69.8679 516.6 Z" fill="#000000" fill-rule="nonzero" fill-opacity="1" /><path clip-path="url(#clip000)" d="M93.5165 489.705 Q99.8822 492.188 101.824 494.543 Q103.765 496.898 103.765 500.845 L103.765 505.524 L98.8636 505.524 L98.8636 502.086 Q98.8636 499.667 97.7178 498.331 Q96.572 496.994 92.307 495.371 L89.6334 494.32 L54.5583 508.739 L54.5583 502.532 L82.4401 491.392 L54.5583 480.252 L54.5583 474.045 L93.5165 489.705 Z" fill="#000000" fill-rule="nonzero" fill-opacity="1" /><path clip-path="url(#clip000)" d="M40.7447 431.172 Q48.0653 435.437 55.2267 437.506 Q62.3881 439.575 69.7405 439.575 Q77.0929 439.575 84.318 437.506 Q91.5113 435.406 98.8 431.172 L98.8 436.265 Q91.3203 441.039 84.0952 443.426 Q76.8701 445.782 69.7405 445.782 Q62.6428 445.782 55.4495 443.426 Q48.2563 441.071 40.7447 436.265 L40.7447 431.172 Z" fill="#000000" fill-rule="nonzero" fill-opacity="1" /><path clip-path="url(#clip000)" d="M42.6863 419.555 L42.6863 413.126 L86.8961 413.126 Q95.4898 413.126 99.3729 416.404 Q103.256 419.65 103.256 426.876 L103.256 429.326 L97.8451 429.326 L97.8451 427.321 Q97.8451 423.056 95.458 421.306 Q93.0709 419.555 86.8961 419.555 L42.6863 419.555 Z" fill="#000000" fill-rule="nonzero" fill-opacity="1" /><path clip-path="url(#clip000)" d="M72.2868 384.384 Q72.2868 391.482 73.9101 394.219 Q75.5333 396.957 79.4482 396.957 Q82.5674 396.957 84.4135 394.92 Q86.2277 392.851 86.2277 389.318 Q86.2277 384.448 82.7902 381.52 Q79.3209 378.56 73.5918 378.56 L72.2868 378.56 L72.2868 384.384 M69.8679 372.703 L90.2063 372.703 L90.2063 378.56 L84.7954 378.56 Q88.0419 380.565 89.6015 383.557 Q91.1293 386.549 91.1293 390.877 Q91.1293 396.352 88.0738 399.598 Q84.9864 402.813 79.8302 402.813 Q73.8146 402.813 70.759 398.803 Q67.7035 394.761 67.7035 386.772 L67.7035 378.56 L67.1306 378.56 Q63.0884 378.56 60.8922 381.233 Q58.6642 383.875 58.6642 388.681 Q58.6642 391.737 59.3963 394.633 Q60.1283 397.53 61.5924 400.203 L56.1816 400.203 Q54.9403 396.989 54.3355 393.965 Q53.699 390.941 53.699 388.077 Q53.699 380.342 57.7094 376.523 Q61.7197 372.703 69.8679 372.703 Z" fill="#000000" fill-rule="nonzero" fill-opacity="1" /><path clip-path="url(#clip000)" d="M84.8591 354.975 L103.765 354.975 L103.765 360.863 L54.5583 360.863 L54.5583 354.975 L59.9692 354.975 Q56.7863 353.129 55.2586 350.328 Q53.699 347.495 53.699 343.58 Q53.699 337.087 58.8552 333.045 Q64.0114 328.971 72.4141 328.971 Q80.8169 328.971 85.9731 333.045 Q91.1293 337.087 91.1293 343.58 Q91.1293 347.495 89.6015 350.328 Q88.0419 353.129 84.8591 354.975 M72.4141 335.05 Q65.9529 335.05 62.2927 337.724 Q58.6006 340.366 58.6006 345.013 Q58.6006 349.66 62.2927 352.333 Q65.9529 354.975 72.4141 354.975 Q78.8753 354.975 82.5674 352.333 Q86.2277 349.66 86.2277 345.013 Q86.2277 340.366 82.5674 337.724 Q78.8753 335.05 72.4141 335.05 Z" fill="#000000" fill-rule="nonzero" fill-opacity="1" /><path clip-path="url(#clip000)" d="M72.2868 303.063 Q72.2868 310.16 73.9101 312.898 Q75.5333 315.635 79.4482 315.635 Q82.5674 315.635 84.4135 313.598 Q86.2277 311.529 86.2277 307.996 Q86.2277 303.126 82.7902 300.198 Q79.3209 297.238 73.5918 297.238 L72.2868 297.238 L72.2868 303.063 M69.8679 291.381 L90.2063 291.381 L90.2063 297.238 L84.7954 297.238 Q88.0419 299.243 89.6015 302.235 Q91.1293 305.227 91.1293 309.556 Q91.1293 315.03 88.0738 318.277 Q84.9864 321.491 79.8302 321.491 Q73.8146 321.491 70.759 317.481 Q67.7035 313.439 67.7035 305.45 L67.7035 297.238 L67.1306 297.238 Q63.0884 297.238 60.8922 299.912 Q58.6642 302.553 58.6642 307.359 Q58.6642 310.415 59.3963 313.311 Q60.1283 316.208 61.5924 318.881 L56.1816 318.881 Q54.9403 315.667 54.3355 312.643 Q53.699 309.619 53.699 306.755 Q53.699 299.02 57.7094 295.201 Q61.7197 291.381 69.8679 291.381 Z" fill="#000000" fill-rule="nonzero" fill-opacity="1" /><path clip-path="url(#clip000)" d="M68.6902 249.686 L90.2063 249.686 L90.2063 255.543 L68.8812 255.543 Q63.8204 255.543 61.306 257.516 Q58.7915 259.489 58.7915 263.436 Q58.7915 268.178 61.8152 270.916 Q64.8389 273.653 70.0588 273.653 L90.2063 273.653 L90.2063 279.541 L54.5583 279.541 L54.5583 273.653 L60.0965 273.653 Q56.8818 271.552 55.2904 268.72 Q53.699 265.855 53.699 262.131 Q53.699 255.988 57.5184 252.837 Q61.306 249.686 68.6902 249.686 Z" fill="#000000" fill-rule="nonzero" fill-opacity="1" /><path clip-path="url(#clip000)" d="M40.7447 238.928 L40.7447 233.835 Q48.2563 229.061 55.4495 226.706 Q62.6428 224.319 69.7405 224.319 Q76.8701 224.319 84.0952 226.706 Q91.3203 229.061 98.8 233.835 L98.8 238.928 Q91.5113 234.695 84.318 232.626 Q77.0929 230.525 69.7405 230.525 Q62.3881 230.525 55.2267 232.626 Q48.0653 234.695 40.7447 238.928 Z" fill="#000000" fill-rule="nonzero" fill-opacity="1" /><path clip-path="url(#clip002)" d="M288.747 309.961 L288.747 1042.58 L311.29 1042.58 L311.29 309.961 L288.747 309.961 L288.747 309.961  Z" fill="#009af9" fill-rule="evenodd" fill-opacity="0.5"/>
<polyline clip-path="url(#clip002)" style="stroke:#000000; stroke-linecap:round; stroke-linejoin:round; stroke-width:4; stroke-opacity:0.5; fill:none" points="288.747,309.961 288.747,1042.58 311.29,1042.58 311.29,309.961 288.747,309.961 "/>
<path clip-path="url(#clip002)" d="M316.926 125.766 L316.926 1042.58 L339.469 1042.58 L339.469 125.766 L316.926 125.766 L316.926 125.766  Z" fill="#009af9" fill-rule="evenodd" fill-opacity="0.5"/>
<polyline clip-path="url(#clip002)" style="stroke:#000000; stroke-linecap:round; stroke-linejoin:round; stroke-width:4; stroke-opacity:0.5; fill:none" points="316.926,125.766 316.926,1042.58 339.469,1042.58 339.469,125.766 316.926,125.766 "/>
<path clip-path="url(#clip002)" d="M345.105 156.716 L345.105 1042.58 L367.649 1042.58 L367.649 156.716 L345.105 156.716 L345.105 156.716  Z" fill="#009af9" fill-rule="evenodd" fill-opacity="0.5"/>
<polyline clip-path="url(#clip002)" style="stroke:#000000; stroke-linecap:round; stroke-linejoin:round; stroke-width:4; stroke-opacity:0.5; fill:none" points="345.105,156.716 345.105,1042.58 367.649,1042.58 367.649,156.716 345.105,156.716 "/>
<path clip-path="url(#clip002)" d="M373.285 234.21 L373.285 1042.58 L395.828 1042.58 L395.828 234.21 L373.285 234.21 L373.285 234.21  Z" fill="#009af9" fill-rule="evenodd" fill-opacity="0.5"/>
<polyline clip-path="url(#clip002)" style="stroke:#000000; stroke-linecap:round; stroke-linejoin:round; stroke-width:4; stroke-opacity:0.5; fill:none" points="373.285,234.21 373.285,1042.58 395.828,1042.58 395.828,234.21 373.285,234.21 "/>
<path clip-path="url(#clip002)" d="M401.464 344.631 L401.464 1042.58 L424.007 1042.58 L424.007 344.631 L401.464 344.631 L401.464 344.631  Z" fill="#009af9" fill-rule="evenodd" fill-opacity="0.5"/>
<polyline clip-path="url(#clip002)" style="stroke:#000000; stroke-linecap:round; stroke-linejoin:round; stroke-width:4; stroke-opacity:0.5; fill:none" points="401.464,344.631 401.464,1042.58 424.007,1042.58 424.007,344.631 401.464,344.631 "/>
<path clip-path="url(#clip002)" d="M429.643 324.887 L429.643 1042.58 L452.186 1042.58 L452.186 324.887 L429.643 324.887 L429.643 324.887  Z" fill="#009af9" fill-rule="evenodd" fill-opacity="0.5"/>
<polyline clip-path="url(#clip002)" style="stroke:#000000; stroke-linecap:round; stroke-linejoin:round; stroke-width:4; stroke-opacity:0.5; fill:none" points="429.643,324.887 429.643,1042.58 452.186,1042.58 452.186,324.887 429.643,324.887 "/>
<path clip-path="url(#clip002)" d="M457.822 118.804 L457.822 1042.58 L480.366 1042.58 L480.366 118.804 L457.822 118.804 L457.822 118.804  Z" fill="#009af9" fill-rule="evenodd" fill-opacity="0.5"/>
<polyline clip-path="url(#clip002)" style="stroke:#000000; stroke-linecap:round; stroke-linejoin:round; stroke-width:4; stroke-opacity:0.5; fill:none" points="457.822,118.804 457.822,1042.58 480.366,1042.58 480.366,118.804 457.822,118.804 "/>
<path clip-path="url(#clip002)" d="M486.001 155.513 L486.001 1042.58 L508.545 1042.58 L508.545 155.513 L486.001 155.513 L486.001 155.513  Z" fill="#009af9" fill-rule="evenodd" fill-opacity="0.5"/>
<polyline clip-path="url(#clip002)" style="stroke:#000000; stroke-linecap:round; stroke-linejoin:round; stroke-width:4; stroke-opacity:0.5; fill:none" points="486.001,155.513 486.001,1042.58 508.545,1042.58 508.545,155.513 486.001,155.513 "/>
<path clip-path="url(#clip002)" d="M514.181 170.522 L514.181 1042.58 L536.724 1042.58 L536.724 170.522 L514.181 170.522 L514.181 170.522  Z" fill="#009af9" fill-rule="evenodd" fill-opacity="0.5"/>
<polyline clip-path="url(#clip002)" style="stroke:#000000; stroke-linecap:round; stroke-linejoin:round; stroke-width:4; stroke-opacity:0.5; fill:none" points="514.181,170.522 514.181,1042.58 536.724,1042.58 536.724,170.522 514.181,170.522 "/>
<path clip-path="url(#clip002)" d="M542.36 154.317 L542.36 1042.58 L564.903 1042.58 L564.903 154.317 L542.36 154.317 L542.36 154.317  Z" fill="#009af9" fill-rule="evenodd" fill-opacity="0.5"/>
<polyline clip-path="url(#clip002)" style="stroke:#000000; stroke-linecap:round; stroke-linejoin:round; stroke-width:4; stroke-opacity:0.5; fill:none" points="542.36,154.317 542.36,1042.58 564.903,1042.58 564.903,154.317 542.36,154.317 "/>
<path clip-path="url(#clip002)" d="M570.539 256.054 L570.539 1042.58 L593.083 1042.58 L593.083 256.054 L570.539 256.054 L570.539 256.054  Z" fill="#009af9" fill-rule="evenodd" fill-opacity="0.5"/>
<polyline clip-path="url(#clip002)" style="stroke:#000000; stroke-linecap:round; stroke-linejoin:round; stroke-width:4; stroke-opacity:0.5; fill:none" points="570.539,256.054 570.539,1042.58 593.083,1042.58 593.083,256.054 570.539,256.054 "/>
<path clip-path="url(#clip002)" d="M598.718 433.003 L598.718 1042.58 L621.262 1042.58 L621.262 433.003 L598.718 433.003 L598.718 433.003  Z" fill="#009af9" fill-rule="evenodd" fill-opacity="0.5"/>
<polyline clip-path="url(#clip002)" style="stroke:#000000; stroke-linecap:round; stroke-linejoin:round; stroke-width:4; stroke-opacity:0.5; fill:none" points="598.718,433.003 598.718,1042.58 621.262,1042.58 621.262,433.003 598.718,433.003 "/>
<path clip-path="url(#clip002)" d="M626.898 130.912 L626.898 1042.58 L649.441 1042.58 L649.441 130.912 L626.898 130.912 L626.898 130.912  Z" fill="#009af9" fill-rule="evenodd" fill-opacity="0.5"/>
<polyline clip-path="url(#clip002)" style="stroke:#000000; stroke-linecap:round; stroke-linejoin:round; stroke-width:4; stroke-opacity:0.5; fill:none" points="626.898,130.912 626.898,1042.58 649.441,1042.58 649.441,130.912 626.898,130.912 "/>
<path clip-path="url(#clip002)" d="M655.077 156.716 L655.077 1042.58 L677.62 1042.58 L677.62 156.716 L655.077 156.716 L655.077 156.716  Z" fill="#009af9" fill-rule="evenodd" fill-opacity="0.5"/>
<polyline clip-path="url(#clip002)" style="stroke:#000000; stroke-linecap:round; stroke-linejoin:round; stroke-width:4; stroke-opacity:0.5; fill:none" points="655.077,156.716 655.077,1042.58 677.62,1042.58 677.62,156.716 655.077,156.716 "/>
<path clip-path="url(#clip002)" d="M683.256 186.92 L683.256 1042.58 L705.8 1042.58 L705.8 186.92 L683.256 186.92 L683.256 186.92  Z" fill="#009af9" fill-rule="evenodd" fill-opacity="0.5"/>
<polyline clip-path="url(#clip002)" style="stroke:#000000; stroke-linecap:round; stroke-linejoin:round; stroke-width:4; stroke-opacity:0.5; fill:none" points="683.256,186.92 683.256,1042.58 705.8,1042.58 705.8,186.92 683.256,186.92 "/>
<path clip-path="url(#clip002)" d="M711.435 169.222 L711.435 1042.58 L733.979 1042.58 L733.979 169.222 L711.435 169.222 L711.435 169.222  Z" fill="#009af9" fill-rule="evenodd" fill-opacity="0.5"/>
<polyline clip-path="url(#clip002)" style="stroke:#000000; stroke-linecap:round; stroke-linejoin:round; stroke-width:4; stroke-opacity:0.5; fill:none" points="711.435,169.222 711.435,1042.58 733.979,1042.58 733.979,169.222 711.435,169.222 "/>
<path clip-path="url(#clip002)" d="M739.615 181.284 L739.615 1042.58 L762.158 1042.58 L762.158 181.284 L739.615 181.284 L739.615 181.284  Z" fill="#009af9" fill-rule="evenodd" fill-opacity="0.5"/>
<polyline clip-path="url(#clip002)" style="stroke:#000000; stroke-linecap:round; stroke-linejoin:round; stroke-width:4; stroke-opacity:0.5; fill:none" points="739.615,181.284 739.615,1042.58 762.158,1042.58 762.158,181.284 739.615,181.284 "/>
<path clip-path="url(#clip002)" d="M767.794 301.574 L767.794 1042.58 L790.337 1042.58 L790.337 301.574 L767.794 301.574 L767.794 301.574  Z" fill="#009af9" fill-rule="evenodd" fill-opacity="0.5"/>
<polyline clip-path="url(#clip002)" style="stroke:#000000; stroke-linecap:round; stroke-linejoin:round; stroke-width:4; stroke-opacity:0.5; fill:none" points="767.794,301.574 767.794,1042.58 790.337,1042.58 790.337,301.574 767.794,301.574 "/>
<path clip-path="url(#clip002)" d="M795.973 401.596 L795.973 1042.58 L818.517 1042.58 L818.517 401.596 L795.973 401.596 L795.973 401.596  Z" fill="#009af9" fill-rule="evenodd" fill-opacity="0.5"/>
<polyline clip-path="url(#clip002)" style="stroke:#000000; stroke-linecap:round; stroke-linejoin:round; stroke-width:4; stroke-opacity:0.5; fill:none" points="795.973,401.596 795.973,1042.58 818.517,1042.58 818.517,401.596 795.973,401.596 "/>
<path clip-path="url(#clip002)" d="M824.152 110.236 L824.152 1042.58 L846.696 1042.58 L846.696 110.236 L824.152 110.236 L824.152 110.236  Z" fill="#009af9" fill-rule="evenodd" fill-opacity="0.5"/>
<polyline clip-path="url(#clip002)" style="stroke:#000000; stroke-linecap:round; stroke-linejoin:round; stroke-width:4; stroke-opacity:0.5; fill:none" points="824.152,110.236 824.152,1042.58 846.696,1042.58 846.696,110.236 824.152,110.236 "/>
<path clip-path="url(#clip002)" d="M852.332 189.806 L852.332 1042.58 L874.875 1042.58 L874.875 189.806 L852.332 189.806 L852.332 189.806  Z" fill="#009af9" fill-rule="evenodd" fill-opacity="0.5"/>
<polyline clip-path="url(#clip002)" style="stroke:#000000; stroke-linecap:round; stroke-linejoin:round; stroke-width:4; stroke-opacity:0.5; fill:none" points="852.332,189.806 852.332,1042.58 874.875,1042.58 874.875,189.806 852.332,189.806 "/>
<path clip-path="url(#clip002)" d="M880.511 211.443 L880.511 1042.58 L903.054 1042.58 L903.054 211.443 L880.511 211.443 L880.511 211.443  Z" fill="#009af9" fill-rule="evenodd" fill-opacity="0.5"/>
<polyline clip-path="url(#clip002)" style="stroke:#000000; stroke-linecap:round; stroke-linejoin:round; stroke-width:4; stroke-opacity:0.5; fill:none" points="880.511,211.443 880.511,1042.58 903.054,1042.58 903.054,211.443 880.511,211.443 "/>
<path clip-path="url(#clip002)" d="M908.69 198.758 L908.69 1042.58 L931.234 1042.58 L931.234 198.758 L908.69 198.758 L908.69 198.758  Z" fill="#009af9" fill-rule="evenodd" fill-opacity="0.5"/>
<polyline clip-path="url(#clip002)" style="stroke:#000000; stroke-linecap:round; stroke-linejoin:round; stroke-width:4; stroke-opacity:0.5; fill:none" points="908.69,198.758 908.69,1042.58 931.234,1042.58 931.234,198.758 908.69,198.758 "/>
<path clip-path="url(#clip002)" d="M936.869 198.758 L936.869 1042.58 L959.413 1042.58 L959.413 198.758 L936.869 198.758 L936.869 198.758  Z" fill="#009af9" fill-rule="evenodd" fill-opacity="0.5"/>
<polyline clip-path="url(#clip002)" style="stroke:#000000; stroke-linecap:round; stroke-linejoin:round; stroke-width:4; stroke-opacity:0.5; fill:none" points="936.869,198.758 936.869,1042.58 959.413,1042.58 959.413,198.758 936.869,198.758 "/>
<path clip-path="url(#clip002)" d="M965.049 262.51 L965.049 1042.58 L987.592 1042.58 L987.592 262.51 L965.049 262.51 L965.049 262.51  Z" fill="#009af9" fill-rule="evenodd" fill-opacity="0.5"/>
<polyline clip-path="url(#clip002)" style="stroke:#000000; stroke-linecap:round; stroke-linejoin:round; stroke-width:4; stroke-opacity:0.5; fill:none" points="965.049,262.51 965.049,1042.58 987.592,1042.58 987.592,262.51 965.049,262.51 "/>
<path clip-path="url(#clip002)" d="M993.228 392.251 L993.228 1042.58 L1015.77 1042.58 L1015.77 392.251 L993.228 392.251 L993.228 392.251  Z" fill="#009af9" fill-rule="evenodd" fill-opacity="0.5"/>
<polyline clip-path="url(#clip002)" style="stroke:#000000; stroke-linecap:round; stroke-linejoin:round; stroke-width:4; stroke-opacity:0.5; fill:none" points="993.228,392.251 993.228,1042.58 1015.77,1042.58 1015.77,392.251 993.228,392.251 "/>
<path clip-path="url(#clip002)" d="M1021.41 118.804 L1021.41 1042.58 L1043.95 1042.58 L1043.95 118.804 L1021.41 118.804 L1021.41 118.804  Z" fill="#009af9" fill-rule="evenodd" fill-opacity="0.5"/>
<polyline clip-path="url(#clip002)" style="stroke:#000000; stroke-linecap:round; stroke-linejoin:round; stroke-width:4; stroke-opacity:0.5; fill:none" points="1021.41,118.804 1021.41,1042.58 1043.95,1042.58 1043.95,118.804 1021.41,118.804 "/>
<path clip-path="url(#clip002)" d="M1049.59 174.482 L1049.59 1042.58 L1072.13 1042.58 L1072.13 174.482 L1049.59 174.482 L1049.59 174.482  Z" fill="#009af9" fill-rule="evenodd" fill-opacity="0.5"/>
<polyline clip-path="url(#clip002)" style="stroke:#000000; stroke-linecap:round; stroke-linejoin:round; stroke-width:4; stroke-opacity:0.5; fill:none" points="1049.59,174.482 1049.59,1042.58 1072.13,1042.58 1072.13,174.482 1049.59,174.482 "/>
<path clip-path="url(#clip002)" d="M1077.77 197.235 L1077.77 1042.58 L1100.31 1042.58 L1100.31 197.235 L1077.77 197.235 L1077.77 197.235  Z" fill="#009af9" fill-rule="evenodd" fill-opacity="0.5"/>
<polyline clip-path="url(#clip002)" style="stroke:#000000; stroke-linecap:round; stroke-linejoin:round; stroke-width:4; stroke-opacity:0.5; fill:none" points="1077.77,197.235 1077.77,1042.58 1100.31,1042.58 1100.31,197.235 1077.77,197.235 "/>
<path clip-path="url(#clip002)" d="M1105.94 179.903 L1105.94 1042.58 L1128.49 1042.58 L1128.49 179.903 L1105.94 179.903 L1105.94 179.903  Z" fill="#009af9" fill-rule="evenodd" fill-opacity="0.5"/>
<polyline clip-path="url(#clip002)" style="stroke:#000000; stroke-linecap:round; stroke-linejoin:round; stroke-width:4; stroke-opacity:0.5; fill:none" points="1105.94,179.903 1105.94,1042.58 1128.49,1042.58 1128.49,179.903 1105.94,179.903 "/>
<path clip-path="url(#clip002)" d="M1134.12 182.676 L1134.12 1042.58 L1156.67 1042.58 L1156.67 182.676 L1134.12 182.676 L1134.12 182.676  Z" fill="#009af9" fill-rule="evenodd" fill-opacity="0.5"/>
<polyline clip-path="url(#clip002)" style="stroke:#000000; stroke-linecap:round; stroke-linejoin:round; stroke-width:4; stroke-opacity:0.5; fill:none" points="1134.12,182.676 1134.12,1042.58 1156.67,1042.58 1156.67,182.676 1134.12,182.676 "/>
<path clip-path="url(#clip002)" d="M1162.3 296.194 L1162.3 1042.58 L1184.85 1042.58 L1184.85 296.194 L1162.3 296.194 L1162.3 296.194  Z" fill="#009af9" fill-rule="evenodd" fill-opacity="0.5"/>
<polyline clip-path="url(#clip002)" style="stroke:#000000; stroke-linecap:round; stroke-linejoin:round; stroke-width:4; stroke-opacity:0.5; fill:none" points="1162.3,296.194 1162.3,1042.58 1184.85,1042.58 1184.85,296.194 1162.3,296.194 "/>
<path clip-path="url(#clip002)" d="M1190.48 337.803 L1190.48 1042.58 L1213.03 1042.58 L1213.03 337.803 L1190.48 337.803 L1190.48 337.803  Z" fill="#009af9" fill-rule="evenodd" fill-opacity="0.5"/>
<polyline clip-path="url(#clip002)" style="stroke:#000000; stroke-linecap:round; stroke-linejoin:round; stroke-width:4; stroke-opacity:0.5; fill:none" points="1190.48,337.803 1190.48,1042.58 1213.03,1042.58 1213.03,337.803 1190.48,337.803 "/>
<path clip-path="url(#clip002)" d="M1218.66 141.673 L1218.66 1042.58 L1241.21 1042.58 L1241.21 141.673 L1218.66 141.673 L1218.66 141.673  Z" fill="#009af9" fill-rule="evenodd" fill-opacity="0.5"/>
<polyline clip-path="url(#clip002)" style="stroke:#000000; stroke-linecap:round; stroke-linejoin:round; stroke-width:4; stroke-opacity:0.5; fill:none" points="1218.66,141.673 1218.66,1042.58 1241.21,1042.58 1241.21,141.673 1218.66,141.673 "/>
<path clip-path="url(#clip002)" d="M1246.84 192.74 L1246.84 1042.58 L1269.38 1042.58 L1269.38 192.74 L1246.84 192.74 L1246.84 192.74  Z" fill="#009af9" fill-rule="evenodd" fill-opacity="0.5"/>
<polyline clip-path="url(#clip002)" style="stroke:#000000; stroke-linecap:round; stroke-linejoin:round; stroke-width:4; stroke-opacity:0.5; fill:none" points="1246.84,192.74 1246.84,1042.58 1269.38,1042.58 1269.38,192.74 1246.84,192.74 "/>
<path clip-path="url(#clip002)" d="M1275.02 203.41 L1275.02 1042.58 L1297.56 1042.58 L1297.56 203.41 L1275.02 203.41 L1275.02 203.41  Z" fill="#009af9" fill-rule="evenodd" fill-opacity="0.5"/>
<polyline clip-path="url(#clip002)" style="stroke:#000000; stroke-linecap:round; stroke-linejoin:round; stroke-width:4; stroke-opacity:0.5; fill:none" points="1275.02,203.41 1275.02,1042.58 1297.56,1042.58 1297.56,203.41 1275.02,203.41 "/>
<path clip-path="url(#clip002)" d="M1303.2 226.889 L1303.2 1042.58 L1325.74 1042.58 L1325.74 226.889 L1303.2 226.889 L1303.2 226.889  Z" fill="#009af9" fill-rule="evenodd" fill-opacity="0.5"/>
<polyline clip-path="url(#clip002)" style="stroke:#000000; stroke-linecap:round; stroke-linejoin:round; stroke-width:4; stroke-opacity:0.5; fill:none" points="1303.2,226.889 1303.2,1042.58 1325.74,1042.58 1325.74,226.889 1303.2,226.889 "/>
<path clip-path="url(#clip002)" d="M1331.38 258.18 L1331.38 1042.58 L1353.92 1042.58 L1353.92 258.18 L1331.38 258.18 L1331.38 258.18  Z" fill="#009af9" fill-rule="evenodd" fill-opacity="0.5"/>
<polyline clip-path="url(#clip002)" style="stroke:#000000; stroke-linecap:round; stroke-linejoin:round; stroke-width:4; stroke-opacity:0.5; fill:none" points="1331.38,258.18 1331.38,1042.58 1353.92,1042.58 1353.92,258.18 1331.38,258.18 "/>
<path clip-path="url(#clip002)" d="M1359.56 337.803 L1359.56 1042.58 L1382.1 1042.58 L1382.1 337.803 L1359.56 337.803 L1359.56 337.803  Z" fill="#009af9" fill-rule="evenodd" fill-opacity="0.5"/>
<polyline clip-path="url(#clip002)" style="stroke:#000000; stroke-linecap:round; stroke-linejoin:round; stroke-width:4; stroke-opacity:0.5; fill:none" points="1359.56,337.803 1359.56,1042.58 1382.1,1042.58 1382.1,337.803 1359.56,337.803 "/>
<path clip-path="url(#clip002)" d="M1387.74 561.865 L1387.74 1042.58 L1410.28 1042.58 L1410.28 561.865 L1387.74 561.865 L1387.74 561.865  Z" fill="#009af9" fill-rule="evenodd" fill-opacity="0.5"/>
<polyline clip-path="url(#clip002)" style="stroke:#000000; stroke-linecap:round; stroke-linejoin:round; stroke-width:4; stroke-opacity:0.5; fill:none" points="1387.74,561.865 1387.74,1042.58 1410.28,1042.58 1410.28,561.865 1387.74,561.865 "/>
<path clip-path="url(#clip002)" d="M1415.92 331.228 L1415.92 1042.58 L1438.46 1042.58 L1438.46 331.228 L1415.92 331.228 L1415.92 331.228  Z" fill="#009af9" fill-rule="evenodd" fill-opacity="0.5"/>
<polyline clip-path="url(#clip002)" style="stroke:#000000; stroke-linecap:round; stroke-linejoin:round; stroke-width:4; stroke-opacity:0.5; fill:none" points="1415.92,331.228 1415.92,1042.58 1438.46,1042.58 1438.46,331.228 1415.92,331.228 "/>
<path clip-path="url(#clip002)" d="M1444.1 143.906 L1444.1 1042.58 L1466.64 1042.58 L1466.64 143.906 L1444.1 143.906 L1444.1 143.906  Z" fill="#009af9" fill-rule="evenodd" fill-opacity="0.5"/>
<polyline clip-path="url(#clip002)" style="stroke:#000000; stroke-linecap:round; stroke-linejoin:round; stroke-width:4; stroke-opacity:0.5; fill:none" points="1444.1,143.906 1444.1,1042.58 1466.64,1042.58 1466.64,143.906 1444.1,143.906 "/>
<path clip-path="url(#clip002)" d="M1472.28 247.796 L1472.28 1042.58 L1494.82 1042.58 L1494.82 247.796 L1472.28 247.796 L1472.28 247.796  Z" fill="#009af9" fill-rule="evenodd" fill-opacity="0.5"/>
<polyline clip-path="url(#clip002)" style="stroke:#000000; stroke-linecap:round; stroke-linejoin:round; stroke-width:4; stroke-opacity:0.5; fill:none" points="1472.28,247.796 1472.28,1042.58 1494.82,1042.58 1494.82,247.796 1472.28,247.796 "/>
<path clip-path="url(#clip002)" d="M1500.45 245.791 L1500.45 1042.58 L1523 1042.58 L1523 245.791 L1500.45 245.791 L1500.45 245.791  Z" fill="#009af9" fill-rule="evenodd" fill-opacity="0.5"/>
<polyline clip-path="url(#clip002)" style="stroke:#000000; stroke-linecap:round; stroke-linejoin:round; stroke-width:4; stroke-opacity:0.5; fill:none" points="1500.45,245.791 1500.45,1042.58 1523,1042.58 1523,245.791 1500.45,245.791 "/>
<path clip-path="url(#clip002)" d="M1528.63 256.054 L1528.63 1042.58 L1551.18 1042.58 L1551.18 256.054 L1528.63 256.054 L1528.63 256.054  Z" fill="#009af9" fill-rule="evenodd" fill-opacity="0.5"/>
<polyline clip-path="url(#clip002)" style="stroke:#000000; stroke-linecap:round; stroke-linejoin:round; stroke-width:4; stroke-opacity:0.5; fill:none" points="1528.63,256.054 1528.63,1042.58 1551.18,1042.58 1551.18,256.054 1528.63,256.054 "/>
<path clip-path="url(#clip002)" d="M1556.81 416.606 L1556.81 1042.58 L1579.36 1042.58 L1579.36 416.606 L1556.81 416.606 L1556.81 416.606  Z" fill="#009af9" fill-rule="evenodd" fill-opacity="0.5"/>
<polyline clip-path="url(#clip002)" style="stroke:#000000; stroke-linecap:round; stroke-linejoin:round; stroke-width:4; stroke-opacity:0.5; fill:none" points="1556.81,416.606 1556.81,1042.58 1579.36,1042.58 1579.36,416.606 1556.81,416.606 "/>
<path clip-path="url(#clip002)" d="M1584.99 673.451 L1584.99 1042.58 L1607.54 1042.58 L1607.54 673.451 L1584.99 673.451 L1584.99 673.451  Z" fill="#009af9" fill-rule="evenodd" fill-opacity="0.5"/>
<polyline clip-path="url(#clip002)" style="stroke:#000000; stroke-linecap:round; stroke-linejoin:round; stroke-width:4; stroke-opacity:0.5; fill:none" points="1584.99,673.451 1584.99,1042.58 1607.54,1042.58 1607.54,673.451 1584.99,673.451 "/>
<path clip-path="url(#clip002)" d="M1613.17 223.338 L1613.17 1042.58 L1635.71 1042.58 L1635.71 223.338 L1613.17 223.338 L1613.17 223.338  Z" fill="#009af9" fill-rule="evenodd" fill-opacity="0.5"/>
<polyline clip-path="url(#clip002)" style="stroke:#000000; stroke-linecap:round; stroke-linejoin:round; stroke-width:4; stroke-opacity:0.5; fill:none" points="1613.17,223.338 1613.17,1042.58 1635.71,1042.58 1635.71,223.338 1613.17,223.338 "/>
<path clip-path="url(#clip002)" d="M1641.35 392.251 L1641.35 1042.58 L1663.89 1042.58 L1663.89 392.251 L1641.35 392.251 L1641.35 392.251  Z" fill="#009af9" fill-rule="evenodd" fill-opacity="0.5"/>
<polyline clip-path="url(#clip002)" style="stroke:#000000; stroke-linecap:round; stroke-linejoin:round; stroke-width:4; stroke-opacity:0.5; fill:none" points="1641.35,392.251 1641.35,1042.58 1663.89,1042.58 1663.89,392.251 1641.35,392.251 "/>
<path clip-path="url(#clip002)" d="M1669.53 392.251 L1669.53 1042.58 L1692.07 1042.58 L1692.07 392.251 L1669.53 392.251 L1669.53 392.251  Z" fill="#009af9" fill-rule="evenodd" fill-opacity="0.5"/>
<polyline clip-path="url(#clip002)" style="stroke:#000000; stroke-linecap:round; stroke-linejoin:round; stroke-width:4; stroke-opacity:0.5; fill:none" points="1669.53,392.251 1669.53,1042.58 1692.07,1042.58 1692.07,392.251 1669.53,392.251 "/>
<path clip-path="url(#clip002)" d="M1697.71 370.838 L1697.71 1042.58 L1720.25 1042.58 L1720.25 370.838 L1697.71 370.838 L1697.71 370.838  Z" fill="#009af9" fill-rule="evenodd" fill-opacity="0.5"/>
<polyline clip-path="url(#clip002)" style="stroke:#000000; stroke-linecap:round; stroke-linejoin:round; stroke-width:4; stroke-opacity:0.5; fill:none" points="1697.71,370.838 1697.71,1042.58 1720.25,1042.58 1720.25,370.838 1697.71,370.838 "/>
<path clip-path="url(#clip002)" d="M1725.89 756.882 L1725.89 1042.58 L1748.43 1042.58 L1748.43 756.882 L1725.89 756.882 L1725.89 756.882  Z" fill="#009af9" fill-rule="evenodd" fill-opacity="0.5"/>
<polyline clip-path="url(#clip002)" style="stroke:#000000; stroke-linecap:round; stroke-linejoin:round; stroke-width:4; stroke-opacity:0.5; fill:none" points="1725.89,756.882 1725.89,1042.58 1748.43,1042.58 1748.43,756.882 1725.89,756.882 "/>
<path clip-path="url(#clip002)" d="M1754.07 451.071 L1754.07 1042.58 L1776.61 1042.58 L1776.61 451.071 L1754.07 451.071 L1754.07 451.071  Z" fill="#009af9" fill-rule="evenodd" fill-opacity="0.5"/>
<polyline clip-path="url(#clip002)" style="stroke:#000000; stroke-linecap:round; stroke-linejoin:round; stroke-width:4; stroke-opacity:0.5; fill:none" points="1754.07,451.071 1754.07,1042.58 1776.61,1042.58 1776.61,451.071 1754.07,451.071 "/>
<path clip-path="url(#clip002)" d="M1782.25 616.921 L1782.25 1042.58 L1804.79 1042.58 L1804.79 616.921 L1782.25 616.921 L1782.25 616.921  Z" fill="#009af9" fill-rule="evenodd" fill-opacity="0.5"/>
<polyline clip-path="url(#clip002)" style="stroke:#000000; stroke-linecap:round; stroke-linejoin:round; stroke-width:4; stroke-opacity:0.5; fill:none" points="1782.25,616.921 1782.25,1042.58 1804.79,1042.58 1804.79,616.921 1782.25,616.921 "/>
<path clip-path="url(#clip002)" d="M1810.43 464.226 L1810.43 1042.58 L1832.97 1042.58 L1832.97 464.226 L1810.43 464.226 L1810.43 464.226  Z" fill="#009af9" fill-rule="evenodd" fill-opacity="0.5"/>
<polyline clip-path="url(#clip002)" style="stroke:#000000; stroke-linecap:round; stroke-linejoin:round; stroke-width:4; stroke-opacity:0.5; fill:none" points="1810.43,464.226 1810.43,1042.58 1832.97,1042.58 1832.97,464.226 1810.43,464.226 "/>
<path clip-path="url(#clip002)" d="M1838.61 519.904 L1838.61 1042.58 L1861.15 1042.58 L1861.15 519.904 L1838.61 519.904 L1838.61 519.904  Z" fill="#009af9" fill-rule="evenodd" fill-opacity="0.5"/>
<polyline clip-path="url(#clip002)" style="stroke:#000000; stroke-linecap:round; stroke-linejoin:round; stroke-width:4; stroke-opacity:0.5; fill:none" points="1838.61,519.904 1838.61,1042.58 1861.15,1042.58 1861.15,519.904 1838.61,519.904 "/>
<path clip-path="url(#clip002)" d="M1866.78 574.112 L1866.78 1042.58 L1889.33 1042.58 L1889.33 574.112 L1866.78 574.112 L1866.78 574.112  Z" fill="#009af9" fill-rule="evenodd" fill-opacity="0.5"/>
<polyline clip-path="url(#clip002)" style="stroke:#000000; stroke-linecap:round; stroke-linejoin:round; stroke-width:4; stroke-opacity:0.5; fill:none" points="1866.78,574.112 1866.78,1042.58 1889.33,1042.58 1889.33,574.112 1866.78,574.112 "/>
<path clip-path="url(#clip002)" d="M1894.96 697.154 L1894.96 1042.58 L1917.51 1042.58 L1917.51 697.154 L1894.96 697.154 L1894.96 697.154  Z" fill="#009af9" fill-rule="evenodd" fill-opacity="0.5"/>
<polyline clip-path="url(#clip002)" style="stroke:#000000; stroke-linecap:round; stroke-linejoin:round; stroke-width:4; stroke-opacity:0.5; fill:none" points="1894.96,697.154 1894.96,1042.58 1917.51,1042.58 1917.51,697.154 1894.96,697.154 "/>
<path clip-path="url(#clip002)" d="M1923.14 673.451 L1923.14 1042.58 L1945.69 1042.58 L1945.69 673.451 L1923.14 673.451 L1923.14 673.451  Z" fill="#009af9" fill-rule="evenodd" fill-opacity="0.5"/>
<polyline clip-path="url(#clip002)" style="stroke:#000000; stroke-linecap:round; stroke-linejoin:round; stroke-width:4; stroke-opacity:0.5; fill:none" points="1923.14,673.451 1923.14,1042.58 1945.69,1042.58 1945.69,673.451 1923.14,673.451 "/>
<path clip-path="url(#clip002)" d="M1951.32 652.543 L1951.32 1042.58 L1973.87 1042.58 L1973.87 652.543 L1951.32 652.543 L1951.32 652.543  Z" fill="#009af9" fill-rule="evenodd" fill-opacity="0.5"/>
<polyline clip-path="url(#clip002)" style="stroke:#000000; stroke-linecap:round; stroke-linejoin:round; stroke-width:4; stroke-opacity:0.5; fill:none" points="1951.32,652.543 1951.32,1042.58 1973.87,1042.58 1973.87,652.543 1951.32,652.543 "/>
<path clip-path="url(#clip002)" d="M1979.5 601.476 L1979.5 1042.58 L2002.04 1042.58 L2002.04 601.476 L1979.5 601.476 L1979.5 601.476  Z" fill="#009af9" fill-rule="evenodd" fill-opacity="0.5"/>
<polyline clip-path="url(#clip002)" style="stroke:#000000; stroke-linecap:round; stroke-linejoin:round; stroke-width:4; stroke-opacity:0.5; fill:none" points="1979.5,601.476 1979.5,1042.58 2002.04,1042.58 2002.04,601.476 1979.5,601.476 "/>
<path clip-path="url(#clip002)" d="M2007.68 510.798 L2007.68 1042.58 L2030.22 1042.58 L2030.22 510.798 L2007.68 510.798 L2007.68 510.798  Z" fill="#009af9" fill-rule="evenodd" fill-opacity="0.5"/>
<polyline clip-path="url(#clip002)" style="stroke:#000000; stroke-linecap:round; stroke-linejoin:round; stroke-width:4; stroke-opacity:0.5; fill:none" points="2007.68,510.798 2007.68,1042.58 2030.22,1042.58 2030.22,510.798 2007.68,510.798 "/>
<path clip-path="url(#clip002)" d="M2035.86 673.451 L2035.86 1042.58 L2058.4 1042.58 L2058.4 673.451 L2035.86 673.451 L2035.86 673.451  Z" fill="#009af9" fill-rule="evenodd" fill-opacity="0.5"/>
<polyline clip-path="url(#clip002)" style="stroke:#000000; stroke-linecap:round; stroke-linejoin:round; stroke-width:4; stroke-opacity:0.5; fill:none" points="2035.86,673.451 2035.86,1042.58 2058.4,1042.58 2058.4,673.451 2035.86,673.451 "/>
<path clip-path="url(#clip002)" d="M2064.04 616.921 L2064.04 1042.58 L2086.58 1042.58 L2086.58 616.921 L2064.04 616.921 L2064.04 616.921  Z" fill="#009af9" fill-rule="evenodd" fill-opacity="0.5"/>
<polyline clip-path="url(#clip002)" style="stroke:#000000; stroke-linecap:round; stroke-linejoin:round; stroke-width:4; stroke-opacity:0.5; fill:none" points="2064.04,616.921 2064.04,1042.58 2086.58,1042.58 2086.58,616.921 2064.04,616.921 "/>
<path clip-path="url(#clip002)" d="M2092.22 574.112 L2092.22 1042.58 L2114.76 1042.58 L2114.76 574.112 L2092.22 574.112 L2092.22 574.112  Z" fill="#009af9" fill-rule="evenodd" fill-opacity="0.5"/>
<polyline clip-path="url(#clip002)" style="stroke:#000000; stroke-linecap:round; stroke-linejoin:round; stroke-width:4; stroke-opacity:0.5; fill:none" points="2092.22,574.112 2092.22,1042.58 2114.76,1042.58 2114.76,574.112 2092.22,574.112 "/>
<path clip-path="url(#clip002)" d="M2120.4 616.921 L2120.4 1042.58 L2142.94 1042.58 L2142.94 616.921 L2120.4 616.921 L2120.4 616.921  Z" fill="#009af9" fill-rule="evenodd" fill-opacity="0.5"/>
<polyline clip-path="url(#clip002)" style="stroke:#000000; stroke-linecap:round; stroke-linejoin:round; stroke-width:4; stroke-opacity:0.5; fill:none" points="2120.4,616.921 2120.4,1042.58 2142.94,1042.58 2142.94,616.921 2120.4,616.921 "/>
<path clip-path="url(#clip002)" d="M2148.58 919.534 L2148.58 1042.58 L2171.12 1042.58 L2171.12 919.534 L2148.58 919.534 L2148.58 919.534  Z" fill="#009af9" fill-rule="evenodd" fill-opacity="0.5"/>
<polyline clip-path="url(#clip002)" style="stroke:#000000; stroke-linecap:round; stroke-linejoin:round; stroke-width:4; stroke-opacity:0.5; fill:none" points="2148.58,919.534 2148.58,1042.58 2171.12,1042.58 2171.12,919.534 2148.58,919.534 "/>
<path clip-path="url(#clip002)" d="M2176.76 756.882 L2176.76 1042.58 L2199.3 1042.58 L2199.3 756.882 L2176.76 756.882 L2176.76 756.882  Z" fill="#009af9" fill-rule="evenodd" fill-opacity="0.5"/>
<polyline clip-path="url(#clip002)" style="stroke:#000000; stroke-linecap:round; stroke-linejoin:round; stroke-width:4; stroke-opacity:0.5; fill:none" points="2176.76,756.882 2176.76,1042.58 2199.3,1042.58 2199.3,756.882 2176.76,756.882 "/>
<path clip-path="url(#clip002)" d="M2204.94 697.154 L2204.94 1042.58 L2227.48 1042.58 L2227.48 697.154 L2204.94 697.154 L2204.94 697.154  Z" fill="#009af9" fill-rule="evenodd" fill-opacity="0.5"/>
<polyline clip-path="url(#clip002)" style="stroke:#000000; stroke-linecap:round; stroke-linejoin:round; stroke-width:4; stroke-opacity:0.5; fill:none" points="2204.94,697.154 2204.94,1042.58 2227.48,1042.58 2227.48,697.154 2204.94,697.154 "/>
<path clip-path="url(#clip002)" d="M2233.11 697.154 L2233.11 1042.58 L2255.66 1042.58 L2255.66 697.154 L2233.11 697.154 L2233.11 697.154  Z" fill="#009af9" fill-rule="evenodd" fill-opacity="0.5"/>
<polyline clip-path="url(#clip002)" style="stroke:#000000; stroke-linecap:round; stroke-linejoin:round; stroke-width:4; stroke-opacity:0.5; fill:none" points="2233.11,697.154 2233.11,1042.58 2255.66,1042.58 2255.66,697.154 2233.11,697.154 "/>
<path clip-path="url(#clip002)" d="M2261.29 652.543 L2261.29 1042.58 L2283.84 1042.58 L2283.84 652.543 L2261.29 652.543 L2261.29 652.543  Z" fill="#009af9" fill-rule="evenodd" fill-opacity="0.5"/>
<polyline clip-path="url(#clip002)" style="stroke:#000000; stroke-linecap:round; stroke-linejoin:round; stroke-width:4; stroke-opacity:0.5; fill:none" points="2261.29,652.543 2261.29,1042.58 2283.84,1042.58 2283.84,652.543 2261.29,652.543 "/>
<path clip-path="url(#clip002)" d="M2289.47 633.84 L2289.47 1042.58 L2312.02 1042.58 L2312.02 633.84 L2289.47 633.84 L2289.47 633.84  Z" fill="#009af9" fill-rule="evenodd" fill-opacity="0.5"/>
<polyline clip-path="url(#clip002)" style="stroke:#000000; stroke-linecap:round; stroke-linejoin:round; stroke-width:4; stroke-opacity:0.5; fill:none" points="2289.47,633.84 2289.47,1042.58 2312.02,1042.58 2312.02,633.84 2289.47,633.84 "/>
<path clip-path="url(#clip002)" d="M2317.65 697.154 L2317.65 1042.58 L2340.2 1042.58 L2340.2 697.154 L2317.65 697.154 L2317.65 697.154  Z" fill="#009af9" fill-rule="evenodd" fill-opacity="0.5"/>
<polyline clip-path="url(#clip002)" style="stroke:#000000; stroke-linecap:round; stroke-linejoin:round; stroke-width:4; stroke-opacity:0.5; fill:none" points="2317.65,697.154 2317.65,1042.58 2340.2,1042.58 2340.2,697.154 2317.65,697.154 "/>
<path clip-path="url(#clip002)" d="M2345.83 652.543 L2345.83 1042.58 L2368.38 1042.58 L2368.38 652.543 L2345.83 652.543 L2345.83 652.543  Z" fill="#009af9" fill-rule="evenodd" fill-opacity="0.5"/>
<polyline clip-path="url(#clip002)" style="stroke:#000000; stroke-linecap:round; stroke-linejoin:round; stroke-width:4; stroke-opacity:0.5; fill:none" points="2345.83,652.543 2345.83,1042.58 2368.38,1042.58 2368.38,652.543 2345.83,652.543 "/>
<path clip-path="url(#clip002)" d="M2374.01 756.882 L2374.01 1042.58 L2396.55 1042.58 L2396.55 756.882 L2374.01 756.882 L2374.01 756.882  Z" fill="#009af9" fill-rule="evenodd" fill-opacity="0.5"/>
<polyline clip-path="url(#clip002)" style="stroke:#000000; stroke-linecap:round; stroke-linejoin:round; stroke-width:4; stroke-opacity:0.5; fill:none" points="2374.01,756.882 2374.01,1042.58 2396.55,1042.58 2396.55,756.882 2374.01,756.882 "/>
<path clip-path="url(#clip002)" d="M2402.19 697.154 L2402.19 1042.58 L2424.73 1042.58 L2424.73 697.154 L2402.19 697.154 L2402.19 697.154  Z" fill="#009af9" fill-rule="evenodd" fill-opacity="0.5"/>
<polyline clip-path="url(#clip002)" style="stroke:#000000; stroke-linecap:round; stroke-linejoin:round; stroke-width:4; stroke-opacity:0.5; fill:none" points="2402.19,697.154 2402.19,1042.58 2424.73,1042.58 2424.73,697.154 2402.19,697.154 "/>
<circle clip-path="url(#clip002)" style="fill:#009af9; stroke:none; fill-opacity:0" cx="300.018" cy="309.961" r="2"/>
<circle clip-path="url(#clip002)" style="fill:#009af9; stroke:none; fill-opacity:0" cx="328.198" cy="125.766" r="2"/>
<circle clip-path="url(#clip002)" style="fill:#009af9; stroke:none; fill-opacity:0" cx="356.377" cy="156.716" r="2"/>
<circle clip-path="url(#clip002)" style="fill:#009af9; stroke:none; fill-opacity:0" cx="384.556" cy="234.21" r="2"/>
<circle clip-path="url(#clip002)" style="fill:#009af9; stroke:none; fill-opacity:0" cx="412.735" cy="344.631" r="2"/>
<circle clip-path="url(#clip002)" style="fill:#009af9; stroke:none; fill-opacity:0" cx="440.915" cy="324.887" r="2"/>
<circle clip-path="url(#clip002)" style="fill:#009af9; stroke:none; fill-opacity:0" cx="469.094" cy="118.804" r="2"/>
<circle clip-path="url(#clip002)" style="fill:#009af9; stroke:none; fill-opacity:0" cx="497.273" cy="155.513" r="2"/>
<circle clip-path="url(#clip002)" style="fill:#009af9; stroke:none; fill-opacity:0" cx="525.452" cy="170.522" r="2"/>
<circle clip-path="url(#clip002)" style="fill:#009af9; stroke:none; fill-opacity:0" cx="553.632" cy="154.317" r="2"/>
<circle clip-path="url(#clip002)" style="fill:#009af9; stroke:none; fill-opacity:0" cx="581.811" cy="256.054" r="2"/>
<circle clip-path="url(#clip002)" style="fill:#009af9; stroke:none; fill-opacity:0" cx="609.99" cy="433.003" r="2"/>
<circle clip-path="url(#clip002)" style="fill:#009af9; stroke:none; fill-opacity:0" cx="638.169" cy="130.912" r="2"/>
<circle clip-path="url(#clip002)" style="fill:#009af9; stroke:none; fill-opacity:0" cx="666.349" cy="156.716" r="2"/>
<circle clip-path="url(#clip002)" style="fill:#009af9; stroke:none; fill-opacity:0" cx="694.528" cy="186.92" r="2"/>
<circle clip-path="url(#clip002)" style="fill:#009af9; stroke:none; fill-opacity:0" cx="722.707" cy="169.222" r="2"/>
<circle clip-path="url(#clip002)" style="fill:#009af9; stroke:none; fill-opacity:0" cx="750.886" cy="181.284" r="2"/>
<circle clip-path="url(#clip002)" style="fill:#009af9; stroke:none; fill-opacity:0" cx="779.066" cy="301.574" r="2"/>
<circle clip-path="url(#clip002)" style="fill:#009af9; stroke:none; fill-opacity:0" cx="807.245" cy="401.596" r="2"/>
<circle clip-path="url(#clip002)" style="fill:#009af9; stroke:none; fill-opacity:0" cx="835.424" cy="110.236" r="2"/>
<circle clip-path="url(#clip002)" style="fill:#009af9; stroke:none; fill-opacity:0" cx="863.603" cy="189.806" r="2"/>
<circle clip-path="url(#clip002)" style="fill:#009af9; stroke:none; fill-opacity:0" cx="891.783" cy="211.443" r="2"/>
<circle clip-path="url(#clip002)" style="fill:#009af9; stroke:none; fill-opacity:0" cx="919.962" cy="198.758" r="2"/>
<circle clip-path="url(#clip002)" style="fill:#009af9; stroke:none; fill-opacity:0" cx="948.141" cy="198.758" r="2"/>
<circle clip-path="url(#clip002)" style="fill:#009af9; stroke:none; fill-opacity:0" cx="976.32" cy="262.51" r="2"/>
<circle clip-path="url(#clip002)" style="fill:#009af9; stroke:none; fill-opacity:0" cx="1004.5" cy="392.251" r="2"/>
<circle clip-path="url(#clip002)" style="fill:#009af9; stroke:none; fill-opacity:0" cx="1032.68" cy="118.804" r="2"/>
<circle clip-path="url(#clip002)" style="fill:#009af9; stroke:none; fill-opacity:0" cx="1060.86" cy="174.482" r="2"/>
<circle clip-path="url(#clip002)" style="fill:#009af9; stroke:none; fill-opacity:0" cx="1089.04" cy="197.235" r="2"/>
<circle clip-path="url(#clip002)" style="fill:#009af9; stroke:none; fill-opacity:0" cx="1117.22" cy="179.903" r="2"/>
<circle clip-path="url(#clip002)" style="fill:#009af9; stroke:none; fill-opacity:0" cx="1145.4" cy="182.676" r="2"/>
<circle clip-path="url(#clip002)" style="fill:#009af9; stroke:none; fill-opacity:0" cx="1173.58" cy="296.194" r="2"/>
<circle clip-path="url(#clip002)" style="fill:#009af9; stroke:none; fill-opacity:0" cx="1201.75" cy="337.803" r="2"/>
<circle clip-path="url(#clip002)" style="fill:#009af9; stroke:none; fill-opacity:0" cx="1229.93" cy="141.673" r="2"/>
<circle clip-path="url(#clip002)" style="fill:#009af9; stroke:none; fill-opacity:0" cx="1258.11" cy="192.74" r="2"/>
<circle clip-path="url(#clip002)" style="fill:#009af9; stroke:none; fill-opacity:0" cx="1286.29" cy="203.41" r="2"/>
<circle clip-path="url(#clip002)" style="fill:#009af9; stroke:none; fill-opacity:0" cx="1314.47" cy="226.889" r="2"/>
<circle clip-path="url(#clip002)" style="fill:#009af9; stroke:none; fill-opacity:0" cx="1342.65" cy="258.18" r="2"/>
<circle clip-path="url(#clip002)" style="fill:#009af9; stroke:none; fill-opacity:0" cx="1370.83" cy="337.803" r="2"/>
<circle clip-path="url(#clip002)" style="fill:#009af9; stroke:none; fill-opacity:0" cx="1399.01" cy="561.865" r="2"/>
<circle clip-path="url(#clip002)" style="fill:#009af9; stroke:none; fill-opacity:0" cx="1427.19" cy="331.228" r="2"/>
<circle clip-path="url(#clip002)" style="fill:#009af9; stroke:none; fill-opacity:0" cx="1455.37" cy="143.906" r="2"/>
<circle clip-path="url(#clip002)" style="fill:#009af9; stroke:none; fill-opacity:0" cx="1483.55" cy="247.796" r="2"/>
<circle clip-path="url(#clip002)" style="fill:#009af9; stroke:none; fill-opacity:0" cx="1511.73" cy="245.791" r="2"/>
<circle clip-path="url(#clip002)" style="fill:#009af9; stroke:none; fill-opacity:0" cx="1539.91" cy="256.054" r="2"/>
<circle clip-path="url(#clip002)" style="fill:#009af9; stroke:none; fill-opacity:0" cx="1568.08" cy="416.606" r="2"/>
<circle clip-path="url(#clip002)" style="fill:#009af9; stroke:none; fill-opacity:0" cx="1596.26" cy="673.451" r="2"/>
<circle clip-path="url(#clip002)" style="fill:#009af9; stroke:none; fill-opacity:0" cx="1624.44" cy="223.338" r="2"/>
<circle clip-path="url(#clip002)" style="fill:#009af9; stroke:none; fill-opacity:0" cx="1652.62" cy="392.251" r="2"/>
<circle clip-path="url(#clip002)" style="fill:#009af9; stroke:none; fill-opacity:0" cx="1680.8" cy="392.251" r="2"/>
<circle clip-path="url(#clip002)" style="fill:#009af9; stroke:none; fill-opacity:0" cx="1708.98" cy="370.838" r="2"/>
<circle clip-path="url(#clip002)" style="fill:#009af9; stroke:none; fill-opacity:0" cx="1737.16" cy="756.882" r="2"/>
<circle clip-path="url(#clip002)" style="fill:#009af9; stroke:none; fill-opacity:0" cx="1765.34" cy="451.071" r="2"/>
<circle clip-path="url(#clip002)" style="fill:#009af9; stroke:none; fill-opacity:0" cx="1793.52" cy="616.921" r="2"/>
<circle clip-path="url(#clip002)" style="fill:#009af9; stroke:none; fill-opacity:0" cx="1821.7" cy="464.226" r="2"/>
<circle clip-path="url(#clip002)" style="fill:#009af9; stroke:none; fill-opacity:0" cx="1849.88" cy="519.904" r="2"/>
<circle clip-path="url(#clip002)" style="fill:#009af9; stroke:none; fill-opacity:0" cx="1878.06" cy="574.112" r="2"/>
<circle clip-path="url(#clip002)" style="fill:#009af9; stroke:none; fill-opacity:0" cx="1906.24" cy="697.154" r="2"/>
<circle clip-path="url(#clip002)" style="fill:#009af9; stroke:none; fill-opacity:0" cx="1934.41" cy="673.451" r="2"/>
<circle clip-path="url(#clip002)" style="fill:#009af9; stroke:none; fill-opacity:0" cx="1962.59" cy="652.543" r="2"/>
<circle clip-path="url(#clip002)" style="fill:#009af9; stroke:none; fill-opacity:0" cx="1990.77" cy="601.476" r="2"/>
<circle clip-path="url(#clip002)" style="fill:#009af9; stroke:none; fill-opacity:0" cx="2018.95" cy="510.798" r="2"/>
<circle clip-path="url(#clip002)" style="fill:#009af9; stroke:none; fill-opacity:0" cx="2047.13" cy="673.451" r="2"/>
<circle clip-path="url(#clip002)" style="fill:#009af9; stroke:none; fill-opacity:0" cx="2075.31" cy="616.921" r="2"/>
<circle clip-path="url(#clip002)" style="fill:#009af9; stroke:none; fill-opacity:0" cx="2103.49" cy="574.112" r="2"/>
<circle clip-path="url(#clip002)" style="fill:#009af9; stroke:none; fill-opacity:0" cx="2131.67" cy="616.921" r="2"/>
<circle clip-path="url(#clip002)" style="fill:#009af9; stroke:none; fill-opacity:0" cx="2159.85" cy="919.534" r="2"/>
<circle clip-path="url(#clip002)" style="fill:#009af9; stroke:none; fill-opacity:0" cx="2188.03" cy="756.882" r="2"/>
<circle clip-path="url(#clip002)" style="fill:#009af9; stroke:none; fill-opacity:0" cx="2216.21" cy="697.154" r="2"/>
<circle clip-path="url(#clip002)" style="fill:#009af9; stroke:none; fill-opacity:0" cx="2244.39" cy="697.154" r="2"/>
<circle clip-path="url(#clip002)" style="fill:#009af9; stroke:none; fill-opacity:0" cx="2272.57" cy="652.543" r="2"/>
<circle clip-path="url(#clip002)" style="fill:#009af9; stroke:none; fill-opacity:0" cx="2300.74" cy="633.84" r="2"/>
<circle clip-path="url(#clip002)" style="fill:#009af9; stroke:none; fill-opacity:0" cx="2328.92" cy="697.154" r="2"/>
<circle clip-path="url(#clip002)" style="fill:#009af9; stroke:none; fill-opacity:0" cx="2357.1" cy="652.543" r="2"/>
<circle clip-path="url(#clip002)" style="fill:#009af9; stroke:none; fill-opacity:0" cx="2385.28" cy="756.882" r="2"/>
<circle clip-path="url(#clip002)" style="fill:#009af9; stroke:none; fill-opacity:0" cx="2413.46" cy="697.154" r="2"/>
</svg>
