<?xml version="1.0" encoding="utf-8"?>
<svg xmlns="http://www.w3.org/2000/svg" xmlns:xlink="http://www.w3.org/1999/xlink" width="800" height="300" viewBox="0 0 3200 1200">
<defs>
  <clipPath id="clip660">
    <rect x="0" y="0" width="3200" height="1200"/>
  </clipPath>
</defs>
<path clip-path="url(#clip660)" d="M0 1200 L3200 1200 L3200 0 L0 0  Z" fill="#ffffff" fill-rule="evenodd" fill-opacity="1"/>
<defs>
  <clipPath id="clip661">
    <rect x="640" y="0" width="2241" height="1200"/>
  </clipPath>
</defs>
<path clip-path="url(#clip660)" d="M271.839 1042.58 L3089.76 1042.58 L3089.76 110.236 L271.839 110.236  Z" fill="#ffffff" fill-rule="evenodd" fill-opacity="1"/>
<defs>
  <clipPath id="clip662">
    <rect x="271" y="110" width="2819" height="933"/>
  </clipPath>
</defs>
<polyline clip-path="url(#clip662)" style="stroke:#000000; stroke-linecap:round; stroke-linejoin:round; stroke-width:2; stroke-opacity:0.1; fill:none" points="525.452,1042.58 525.452,110.236 "/>
<polyline clip-path="url(#clip662)" style="stroke:#000000; stroke-linecap:round; stroke-linejoin:round; stroke-width:2; stroke-opacity:0.1; fill:none" points="1342.65,1042.58 1342.65,110.236 "/>
<polyline clip-path="url(#clip662)" style="stroke:#000000; stroke-linecap:round; stroke-linejoin:round; stroke-width:2; stroke-opacity:0.1; fill:none" points="2216.21,1042.58 2216.21,110.236 "/>
<polyline clip-path="url(#clip662)" style="stroke:#000000; stroke-linecap:round; stroke-linejoin:round; stroke-width:2; stroke-opacity:0.1; fill:none" points="3061.58,1042.58 3061.58,110.236 "/>
<polyline clip-path="url(#clip660)" style="stroke:#000000; stroke-linecap:round; stroke-linejoin:round; stroke-width:4; stroke-opacity:1; fill:none" points="271.839,1042.58 3089.76,1042.58 "/>
<polyline clip-path="url(#clip660)" style="stroke:#000000; stroke-linecap:round; stroke-linejoin:round; stroke-width:4; stroke-opacity:1; fill:none" points="525.452,1042.58 525.452,1023.68 "/>
<polyline clip-path="url(#clip660)" style="stroke:#000000; stroke-linecap:round; stroke-linejoin:round; stroke-width:4; stroke-opacity:1; fill:none" points="1342.65,1042.58 1342.65,1023.68 "/>
<polyline clip-path="url(#clip660)" style="stroke:#000000; stroke-linecap:round; stroke-linejoin:round; stroke-width:4; stroke-opacity:1; fill:none" points="2216.21,1042.58 2216.21,1023.68 "/>
<polyline clip-path="url(#clip660)" style="stroke:#000000; stroke-linecap:round; stroke-linejoin:round; stroke-width:4; stroke-opacity:1; fill:none" points="3061.58,1042.58 3061.58,1023.68 "/>
<path clip-path="url(#clip660)" d="M397.247 1107.44 L413.566 1107.44 L413.566 1111.38 L391.622 1111.38 L391.622 1107.44 Q394.284 1104.69 398.867 1100.06 Q403.474 1095.4 404.654 1094.06 Q406.9 1091.54 407.779 1089.8 Q408.682 1088.04 408.682 1086.35 Q408.682 1083.6 406.738 1081.86 Q404.816 1080.13 401.715 1080.13 Q399.516 1080.13 397.062 1080.89 Q394.631 1081.65 391.854 1083.2 L391.854 1078.48 Q394.678 1077.35 397.131 1076.77 Q399.585 1076.19 401.622 1076.19 Q406.992 1076.19 410.187 1078.88 Q413.381 1081.56 413.381 1086.05 Q413.381 1088.18 412.571 1090.1 Q411.784 1092 409.678 1094.59 Q409.099 1095.26 405.997 1098.48 Q402.895 1101.68 397.247 1107.44 Z" fill="#000000" fill-rule="nonzero" fill-opacity="1" /><path clip-path="url(#clip660)" d="M433.381 1079.89 Q429.77 1079.89 427.941 1083.46 Q426.136 1087 426.136 1094.13 Q426.136 1101.24 427.941 1104.8 Q429.77 1108.34 433.381 1108.34 Q437.015 1108.34 438.821 1104.8 Q440.65 1101.24 440.65 1094.13 Q440.65 1087 438.821 1083.46 Q437.015 1079.89 433.381 1079.89 M433.381 1076.19 Q439.191 1076.19 442.247 1080.8 Q445.326 1085.38 445.326 1094.13 Q445.326 1102.86 442.247 1107.46 Q439.191 1112.05 433.381 1112.05 Q427.571 1112.05 424.492 1107.46 Q421.437 1102.86 421.437 1094.13 Q421.437 1085.38 424.492 1080.8 Q427.571 1076.19 433.381 1076.19 Z" fill="#000000" fill-rule="nonzero" fill-opacity="1" /><path clip-path="url(#clip660)" d="M457.571 1107.44 L473.89 1107.44 L473.89 1111.38 L451.946 1111.38 L451.946 1107.44 Q454.608 1104.69 459.191 1100.06 Q463.798 1095.4 464.978 1094.06 Q467.224 1091.54 468.103 1089.8 Q469.006 1088.04 469.006 1086.35 Q469.006 1083.6 467.062 1081.86 Q465.14 1080.13 462.038 1080.13 Q459.839 1080.13 457.386 1080.89 Q454.955 1081.65 452.177 1083.2 L452.177 1078.48 Q455.001 1077.35 457.455 1076.77 Q459.909 1076.19 461.946 1076.19 Q467.316 1076.19 470.511 1078.88 Q473.705 1081.56 473.705 1086.05 Q473.705 1088.18 472.895 1090.1 Q472.108 1092 470.001 1094.59 Q469.423 1095.26 466.321 1098.48 Q463.219 1101.68 457.571 1107.44 Z" fill="#000000" fill-rule="nonzero" fill-opacity="1" /><path clip-path="url(#clip660)" d="M496.552 1080.89 L484.747 1099.34 L496.552 1099.34 L496.552 1080.89 M495.325 1076.82 L501.205 1076.82 L501.205 1099.34 L506.135 1099.34 L506.135 1103.23 L501.205 1103.23 L501.205 1111.38 L496.552 1111.38 L496.552 1103.23 L480.95 1103.23 L480.95 1098.71 L495.325 1076.82 Z" fill="#000000" fill-rule="nonzero" fill-opacity="1" /><path clip-path="url(#clip660)" d="M511.112 1096.49 L523.589 1096.49 L523.589 1100.29 L511.112 1100.29 L511.112 1096.49 Z" fill="#000000" fill-rule="nonzero" fill-opacity="1" /><path clip-path="url(#clip660)" d="M540.973 1079.89 Q537.362 1079.89 535.533 1083.46 Q533.728 1087 533.728 1094.13 Q533.728 1101.24 535.533 1104.8 Q537.362 1108.34 540.973 1108.34 Q544.607 1108.34 546.413 1104.8 Q548.242 1101.24 548.242 1094.13 Q548.242 1087 546.413 1083.46 Q544.607 1079.89 540.973 1079.89 M540.973 1076.19 Q546.783 1076.19 549.839 1080.8 Q552.918 1085.38 552.918 1094.13 Q552.918 1102.86 549.839 1107.46 Q546.783 1112.05 540.973 1112.05 Q535.163 1112.05 532.084 1107.46 Q529.029 1102.86 529.029 1094.13 Q529.029 1085.38 532.084 1080.8 Q535.163 1076.19 540.973 1076.19 Z" fill="#000000" fill-rule="nonzero" fill-opacity="1" /><path clip-path="url(#clip660)" d="M565.163 1107.44 L581.482 1107.44 L581.482 1111.38 L559.538 1111.38 L559.538 1107.44 Q562.2 1104.69 566.783 1100.06 Q571.39 1095.4 572.57 1094.06 Q574.816 1091.54 575.695 1089.8 Q576.598 1088.04 576.598 1086.35 Q576.598 1083.6 574.654 1081.86 Q572.732 1080.13 569.63 1080.13 Q567.431 1080.13 564.978 1080.89 Q562.547 1081.65 559.769 1083.2 L559.769 1078.48 Q562.593 1077.35 565.047 1076.77 Q567.501 1076.19 569.538 1076.19 Q574.908 1076.19 578.103 1078.88 Q581.297 1081.56 581.297 1086.05 Q581.297 1088.18 580.487 1090.1 Q579.7 1092 577.593 1094.59 Q577.015 1095.26 573.913 1098.48 Q570.811 1101.68 565.163 1107.44 Z" fill="#000000" fill-rule="nonzero" fill-opacity="1" /><path clip-path="url(#clip660)" d="M588.542 1096.49 L601.019 1096.49 L601.019 1100.29 L588.542 1100.29 L588.542 1096.49 Z" fill="#000000" fill-rule="nonzero" fill-opacity="1" /><path clip-path="url(#clip660)" d="M618.403 1079.89 Q614.792 1079.89 612.964 1083.46 Q611.158 1087 611.158 1094.13 Q611.158 1101.24 612.964 1104.8 Q614.792 1108.34 618.403 1108.34 Q622.038 1108.34 623.843 1104.8 Q625.672 1101.24 625.672 1094.13 Q625.672 1087 623.843 1083.46 Q622.038 1079.89 618.403 1079.89 M618.403 1076.19 Q624.213 1076.19 627.269 1080.8 Q630.348 1085.38 630.348 1094.13 Q630.348 1102.86 627.269 1107.46 Q624.213 1112.05 618.403 1112.05 Q612.593 1112.05 609.514 1107.46 Q606.459 1102.86 606.459 1094.13 Q606.459 1085.38 609.514 1080.8 Q612.593 1076.19 618.403 1076.19 Z" fill="#000000" fill-rule="nonzero" fill-opacity="1" /><path clip-path="url(#clip660)" d="M639.375 1107.44 L647.014 1107.44 L647.014 1081.07 L638.704 1082.74 L638.704 1078.48 L646.968 1076.82 L651.644 1076.82 L651.644 1107.44 L659.283 1107.44 L659.283 1111.38 L639.375 1111.38 L639.375 1107.44 Z" fill="#000000" fill-rule="nonzero" fill-opacity="1" /><path clip-path="url(#clip660)" d="M1214.45 1107.44 L1230.76 1107.44 L1230.76 1111.38 L1208.82 1111.38 L1208.82 1107.44 Q1211.48 1104.69 1216.07 1100.06 Q1220.67 1095.4 1221.85 1094.06 Q1224.1 1091.54 1224.98 1089.8 Q1225.88 1088.04 1225.88 1086.35 Q1225.88 1083.6 1223.94 1081.86 Q1222.01 1080.13 1218.91 1080.13 Q1216.71 1080.13 1214.26 1080.89 Q1211.83 1081.65 1209.05 1083.2 L1209.05 1078.48 Q1211.88 1077.35 1214.33 1076.77 Q1216.78 1076.19 1218.82 1076.19 Q1224.19 1076.19 1227.38 1078.88 Q1230.58 1081.56 1230.58 1086.05 Q1230.58 1088.18 1229.77 1090.1 Q1228.98 1092 1226.88 1094.59 Q1226.3 1095.26 1223.2 1098.48 Q1220.09 1101.68 1214.45 1107.44 Z" fill="#000000" fill-rule="nonzero" fill-opacity="1" /><path clip-path="url(#clip660)" d="M1250.58 1079.89 Q1246.97 1079.89 1245.14 1083.46 Q1243.33 1087 1243.33 1094.13 Q1243.33 1101.24 1245.14 1104.8 Q1246.97 1108.34 1250.58 1108.34 Q1254.21 1108.34 1256.02 1104.8 Q1257.85 1101.24 1257.85 1094.13 Q1257.85 1087 1256.02 1083.46 Q1254.21 1079.89 1250.58 1079.89 M1250.58 1076.19 Q1256.39 1076.19 1259.44 1080.8 Q1262.52 1085.38 1262.52 1094.13 Q1262.52 1102.86 1259.44 1107.46 Q1256.39 1112.05 1250.58 1112.05 Q1244.77 1112.05 1241.69 1107.46 Q1238.63 1102.86 1238.63 1094.13 Q1238.63 1085.38 1241.69 1080.8 Q1244.77 1076.19 1250.58 1076.19 Z" fill="#000000" fill-rule="nonzero" fill-opacity="1" /><path clip-path="url(#clip660)" d="M1274.77 1107.44 L1291.09 1107.44 L1291.09 1111.38 L1269.14 1111.38 L1269.14 1107.44 Q1271.81 1104.69 1276.39 1100.06 Q1281 1095.4 1282.18 1094.06 Q1284.42 1091.54 1285.3 1089.8 Q1286.2 1088.04 1286.2 1086.35 Q1286.2 1083.6 1284.26 1081.86 Q1282.34 1080.13 1279.24 1080.13 Q1277.04 1080.13 1274.58 1080.89 Q1272.15 1081.65 1269.38 1083.2 L1269.38 1078.48 Q1272.2 1077.35 1274.65 1076.77 Q1277.11 1076.19 1279.14 1076.19 Q1284.51 1076.19 1287.71 1078.88 Q1290.9 1081.56 1290.9 1086.05 Q1290.9 1088.18 1290.09 1090.1 Q1289.31 1092 1287.2 1094.59 Q1286.62 1095.26 1283.52 1098.48 Q1280.42 1101.68 1274.77 1107.44 Z" fill="#000000" fill-rule="nonzero" fill-opacity="1" /><path clip-path="url(#clip660)" d="M1313.75 1080.89 L1301.94 1099.34 L1313.75 1099.34 L1313.75 1080.89 M1312.52 1076.82 L1318.4 1076.82 L1318.4 1099.34 L1323.33 1099.34 L1323.33 1103.23 L1318.4 1103.23 L1318.4 1111.38 L1313.75 1111.38 L1313.75 1103.23 L1298.15 1103.23 L1298.15 1098.71 L1312.52 1076.82 Z" fill="#000000" fill-rule="nonzero" fill-opacity="1" /><path clip-path="url(#clip660)" d="M1328.31 1096.49 L1340.79 1096.49 L1340.79 1100.29 L1328.31 1100.29 L1328.31 1096.49 Z" fill="#000000" fill-rule="nonzero" fill-opacity="1" /><path clip-path="url(#clip660)" d="M1358.17 1079.89 Q1354.56 1079.89 1352.73 1083.46 Q1350.93 1087 1350.93 1094.13 Q1350.93 1101.24 1352.73 1104.8 Q1354.56 1108.34 1358.17 1108.34 Q1361.81 1108.34 1363.61 1104.8 Q1365.44 1101.24 1365.44 1094.13 Q1365.44 1087 1363.61 1083.46 Q1361.81 1079.89 1358.17 1079.89 M1358.17 1076.19 Q1363.98 1076.19 1367.04 1080.8 Q1370.12 1085.38 1370.12 1094.13 Q1370.12 1102.86 1367.04 1107.46 Q1363.98 1112.05 1358.17 1112.05 Q1352.36 1112.05 1349.28 1107.46 Q1346.23 1102.86 1346.23 1094.13 Q1346.23 1085.38 1349.28 1080.8 Q1352.36 1076.19 1358.17 1076.19 Z" fill="#000000" fill-rule="nonzero" fill-opacity="1" /><path clip-path="url(#clip660)" d="M1392.5 1092.74 Q1395.86 1093.46 1397.73 1095.73 Q1399.63 1098 1399.63 1101.33 Q1399.63 1106.45 1396.11 1109.25 Q1392.59 1112.05 1386.11 1112.05 Q1383.94 1112.05 1381.62 1111.61 Q1379.33 1111.19 1376.87 1110.33 L1376.87 1105.82 Q1378.82 1106.95 1381.13 1107.53 Q1383.45 1108.11 1385.97 1108.11 Q1390.37 1108.11 1392.66 1106.38 Q1394.98 1104.64 1394.98 1101.33 Q1394.98 1098.27 1392.82 1096.56 Q1390.69 1094.82 1386.87 1094.82 L1382.85 1094.82 L1382.85 1090.98 L1387.06 1090.98 Q1390.51 1090.98 1392.34 1089.62 Q1394.17 1088.23 1394.17 1085.64 Q1394.17 1082.97 1392.27 1081.56 Q1390.39 1080.13 1386.87 1080.13 Q1384.95 1080.13 1382.75 1080.54 Q1380.56 1080.96 1377.92 1081.84 L1377.92 1077.67 Q1380.58 1076.93 1382.89 1076.56 Q1385.23 1076.19 1387.29 1076.19 Q1392.62 1076.19 1395.72 1078.62 Q1398.82 1081.03 1398.82 1085.15 Q1398.82 1088.02 1397.18 1090.01 Q1395.53 1091.98 1392.5 1092.74 Z" fill="#000000" fill-rule="nonzero" fill-opacity="1" /><path clip-path="url(#clip660)" d="M1405.74 1096.49 L1418.22 1096.49 L1418.22 1100.29 L1405.74 1100.29 L1405.74 1096.49 Z" fill="#000000" fill-rule="nonzero" fill-opacity="1" /><path clip-path="url(#clip660)" d="M1435.6 1079.89 Q1431.99 1079.89 1430.16 1083.46 Q1428.36 1087 1428.36 1094.13 Q1428.36 1101.24 1430.16 1104.8 Q1431.99 1108.34 1435.6 1108.34 Q1439.24 1108.34 1441.04 1104.8 Q1442.87 1101.24 1442.87 1094.13 Q1442.87 1087 1441.04 1083.46 Q1439.24 1079.89 1435.6 1079.89 M1435.6 1076.19 Q1441.41 1076.19 1444.47 1080.8 Q1447.55 1085.38 1447.55 1094.13 Q1447.55 1102.86 1444.47 1107.46 Q1441.41 1112.05 1435.6 1112.05 Q1429.79 1112.05 1426.71 1107.46 Q1423.66 1102.86 1423.66 1094.13 Q1423.66 1085.38 1426.71 1080.8 Q1429.79 1076.19 1435.6 1076.19 Z" fill="#000000" fill-rule="nonzero" fill-opacity="1" /><path clip-path="url(#clip660)" d="M1456.57 1107.44 L1464.21 1107.44 L1464.21 1081.07 L1455.9 1082.74 L1455.9 1078.48 L1464.17 1076.82 L1468.84 1076.82 L1468.84 1107.44 L1476.48 1107.44 L1476.48 1111.38 L1456.57 1111.38 L1456.57 1107.44 Z" fill="#000000" fill-rule="nonzero" fill-opacity="1" /><path clip-path="url(#clip660)" d="M2088 1107.44 L2104.32 1107.44 L2104.32 1111.38 L2082.38 1111.38 L2082.38 1107.44 Q2085.04 1104.69 2089.62 1100.06 Q2094.23 1095.4 2095.41 1094.06 Q2097.65 1091.54 2098.53 1089.8 Q2099.44 1088.04 2099.44 1086.35 Q2099.44 1083.6 2097.49 1081.86 Q2095.57 1080.13 2092.47 1080.13 Q2090.27 1080.13 2087.82 1080.89 Q2085.39 1081.65 2082.61 1083.2 L2082.61 1078.48 Q2085.43 1077.35 2087.89 1076.77 Q2090.34 1076.19 2092.38 1076.19 Q2097.75 1076.19 2100.94 1078.88 Q2104.14 1081.56 2104.14 1086.05 Q2104.14 1088.18 2103.33 1090.1 Q2102.54 1092 2100.43 1094.59 Q2099.85 1095.26 2096.75 1098.48 Q2093.65 1101.68 2088 1107.44 Z" fill="#000000" fill-rule="nonzero" fill-opacity="1" /><path clip-path="url(#clip660)" d="M2124.14 1079.89 Q2120.52 1079.89 2118.7 1083.46 Q2116.89 1087 2116.89 1094.13 Q2116.89 1101.24 2118.7 1104.8 Q2120.52 1108.34 2124.14 1108.34 Q2127.77 1108.34 2129.58 1104.8 Q2131.4 1101.24 2131.4 1094.13 Q2131.4 1087 2129.58 1083.46 Q2127.77 1079.89 2124.14 1079.89 M2124.14 1076.19 Q2129.95 1076.19 2133 1080.8 Q2136.08 1085.38 2136.08 1094.13 Q2136.08 1102.86 2133 1107.46 Q2129.95 1112.05 2124.14 1112.05 Q2118.33 1112.05 2115.25 1107.46 Q2112.19 1102.86 2112.19 1094.13 Q2112.19 1085.38 2115.25 1080.8 Q2118.33 1076.19 2124.14 1076.19 Z" fill="#000000" fill-rule="nonzero" fill-opacity="1" /><path clip-path="url(#clip660)" d="M2148.33 1107.44 L2164.64 1107.44 L2164.64 1111.38 L2142.7 1111.38 L2142.7 1107.44 Q2145.36 1104.69 2149.95 1100.06 Q2154.55 1095.4 2155.73 1094.06 Q2157.98 1091.54 2158.86 1089.8 Q2159.76 1088.04 2159.76 1086.35 Q2159.76 1083.6 2157.82 1081.86 Q2155.89 1080.13 2152.79 1080.13 Q2150.59 1080.13 2148.14 1080.89 Q2145.71 1081.65 2142.93 1083.2 L2142.93 1078.48 Q2145.76 1077.35 2148.21 1076.77 Q2150.66 1076.19 2152.7 1076.19 Q2158.07 1076.19 2161.27 1078.88 Q2164.46 1081.56 2164.46 1086.05 Q2164.46 1088.18 2163.65 1090.1 Q2162.86 1092 2160.76 1094.59 Q2160.18 1095.26 2157.08 1098.48 Q2153.97 1101.68 2148.33 1107.44 Z" fill="#000000" fill-rule="nonzero" fill-opacity="1" /><path clip-path="url(#clip660)" d="M2187.31 1080.89 L2175.5 1099.34 L2187.31 1099.34 L2187.31 1080.89 M2186.08 1076.82 L2191.96 1076.82 L2191.96 1099.34 L2196.89 1099.34 L2196.89 1103.23 L2191.96 1103.23 L2191.96 1111.38 L2187.31 1111.38 L2187.31 1103.23 L2171.71 1103.23 L2171.71 1098.71 L2186.08 1076.82 Z" fill="#000000" fill-rule="nonzero" fill-opacity="1" /><path clip-path="url(#clip660)" d="M2201.87 1096.49 L2214.34 1096.49 L2214.34 1100.29 L2201.87 1100.29 L2201.87 1096.49 Z" fill="#000000" fill-rule="nonzero" fill-opacity="1" /><path clip-path="url(#clip660)" d="M2231.73 1079.89 Q2228.12 1079.89 2226.29 1083.46 Q2224.48 1087 2224.48 1094.13 Q2224.48 1101.24 2226.29 1104.8 Q2228.12 1108.34 2231.73 1108.34 Q2235.36 1108.34 2237.17 1104.8 Q2239 1101.24 2239 1094.13 Q2239 1087 2237.17 1083.46 Q2235.36 1079.89 2231.73 1079.89 M2231.73 1076.19 Q2237.54 1076.19 2240.59 1080.8 Q2243.67 1085.38 2243.67 1094.13 Q2243.67 1102.86 2240.59 1107.46 Q2237.54 1112.05 2231.73 1112.05 Q2225.92 1112.05 2222.84 1107.46 Q2219.78 1102.86 2219.78 1094.13 Q2219.78 1085.38 2222.84 1080.8 Q2225.92 1076.19 2231.73 1076.19 Z" fill="#000000" fill-rule="nonzero" fill-opacity="1" /><path clip-path="url(#clip660)" d="M2264.74 1080.89 L2252.93 1099.34 L2264.74 1099.34 L2264.74 1080.89 M2263.51 1076.82 L2269.39 1076.82 L2269.39 1099.34 L2274.32 1099.34 L2274.32 1103.23 L2269.39 1103.23 L2269.39 1111.38 L2264.74 1111.38 L2264.74 1103.23 L2249.14 1103.23 L2249.14 1098.71 L2263.51 1076.82 Z" fill="#000000" fill-rule="nonzero" fill-opacity="1" /><path clip-path="url(#clip660)" d="M2279.3 1096.49 L2291.77 1096.49 L2291.77 1100.29 L2279.3 1100.29 L2279.3 1096.49 Z" fill="#000000" fill-rule="nonzero" fill-opacity="1" /><path clip-path="url(#clip660)" d="M2309.16 1079.89 Q2305.55 1079.89 2303.72 1083.46 Q2301.91 1087 2301.91 1094.13 Q2301.91 1101.24 2303.72 1104.8 Q2305.55 1108.34 2309.16 1108.34 Q2312.79 1108.34 2314.6 1104.8 Q2316.43 1101.24 2316.43 1094.13 Q2316.43 1087 2314.6 1083.46 Q2312.79 1079.89 2309.16 1079.89 M2309.16 1076.19 Q2314.97 1076.19 2318.02 1080.8 Q2321.1 1085.38 2321.1 1094.13 Q2321.1 1102.86 2318.02 1107.46 Q2314.97 1112.05 2309.16 1112.05 Q2303.35 1112.05 2300.27 1107.46 Q2297.21 1102.86 2297.21 1094.13 Q2297.21 1085.38 2300.27 1080.8 Q2303.35 1076.19 2309.16 1076.19 Z" fill="#000000" fill-rule="nonzero" fill-opacity="1" /><path clip-path="url(#clip660)" d="M2330.13 1107.44 L2337.77 1107.44 L2337.77 1081.07 L2329.46 1082.74 L2329.46 1078.48 L2337.72 1076.82 L2342.4 1076.82 L2342.4 1107.44 L2350.04 1107.44 L2350.04 1111.38 L2330.13 1111.38 L2330.13 1107.44 Z" fill="#000000" fill-rule="nonzero" fill-opacity="1" /><path clip-path="url(#clip660)" d="M2933.38 1107.44 L2949.7 1107.44 L2949.7 1111.38 L2927.75 1111.38 L2927.75 1107.44 Q2930.42 1104.69 2935 1100.06 Q2939.61 1095.4 2940.79 1094.06 Q2943.03 1091.54 2943.91 1089.8 Q2944.81 1088.04 2944.81 1086.35 Q2944.81 1083.6 2942.87 1081.86 Q2940.95 1080.13 2937.85 1080.13 Q2935.65 1080.13 2933.19 1080.89 Q2930.76 1081.65 2927.99 1083.2 L2927.99 1078.48 Q2930.81 1077.35 2933.26 1076.77 Q2935.72 1076.19 2937.75 1076.19 Q2943.12 1076.19 2946.32 1078.88 Q2949.51 1081.56 2949.51 1086.05 Q2949.51 1088.18 2948.7 1090.1 Q2947.92 1092 2945.81 1094.59 Q2945.23 1095.26 2942.13 1098.48 Q2939.03 1101.68 2933.38 1107.44 Z" fill="#000000" fill-rule="nonzero" fill-opacity="1" /><path clip-path="url(#clip660)" d="M2969.51 1079.89 Q2965.9 1079.89 2964.07 1083.46 Q2962.27 1087 2962.27 1094.13 Q2962.27 1101.24 2964.07 1104.8 Q2965.9 1108.34 2969.51 1108.34 Q2973.15 1108.34 2974.95 1104.8 Q2976.78 1101.24 2976.78 1094.13 Q2976.78 1087 2974.95 1083.46 Q2973.15 1079.89 2969.51 1079.89 M2969.51 1076.19 Q2975.32 1076.19 2978.38 1080.8 Q2981.46 1085.38 2981.46 1094.13 Q2981.46 1102.86 2978.38 1107.46 Q2975.32 1112.05 2969.51 1112.05 Q2963.7 1112.05 2960.62 1107.46 Q2957.57 1102.86 2957.57 1094.13 Q2957.57 1085.38 2960.62 1080.8 Q2963.7 1076.19 2969.51 1076.19 Z" fill="#000000" fill-rule="nonzero" fill-opacity="1" /><path clip-path="url(#clip660)" d="M2993.7 1107.44 L3010.02 1107.44 L3010.02 1111.38 L2988.08 1111.38 L2988.08 1107.44 Q2990.74 1104.69 2995.32 1100.06 Q2999.93 1095.4 3001.11 1094.06 Q3003.36 1091.54 3004.24 1089.8 Q3005.14 1088.04 3005.14 1086.35 Q3005.14 1083.6 3003.19 1081.86 Q3001.27 1080.13 2998.17 1080.13 Q2995.97 1080.13 2993.52 1080.89 Q2991.09 1081.65 2988.31 1083.2 L2988.31 1078.48 Q2991.13 1077.35 2993.59 1076.77 Q2996.04 1076.19 2998.08 1076.19 Q3003.45 1076.19 3006.64 1078.88 Q3009.84 1081.56 3009.84 1086.05 Q3009.84 1088.18 3009.03 1090.1 Q3008.24 1092 3006.13 1094.59 Q3005.55 1095.26 3002.45 1098.48 Q2999.35 1101.68 2993.7 1107.44 Z" fill="#000000" fill-rule="nonzero" fill-opacity="1" /><path clip-path="url(#clip660)" d="M3032.68 1080.89 L3020.88 1099.34 L3032.68 1099.34 L3032.68 1080.89 M3031.46 1076.82 L3037.34 1076.82 L3037.34 1099.34 L3042.27 1099.34 L3042.27 1103.23 L3037.34 1103.23 L3037.34 1111.38 L3032.68 1111.38 L3032.68 1103.23 L3017.08 1103.23 L3017.08 1098.71 L3031.46 1076.82 Z" fill="#000000" fill-rule="nonzero" fill-opacity="1" /><path clip-path="url(#clip660)" d="M3047.24 1096.49 L3059.72 1096.49 L3059.72 1100.29 L3047.24 1100.29 L3047.24 1096.49 Z" fill="#000000" fill-rule="nonzero" fill-opacity="1" /><path clip-path="url(#clip660)" d="M3077.11 1079.89 Q3073.49 1079.89 3071.67 1083.46 Q3069.86 1087 3069.86 1094.13 Q3069.86 1101.24 3071.67 1104.8 Q3073.49 1108.34 3077.11 1108.34 Q3080.74 1108.34 3082.55 1104.8 Q3084.37 1101.24 3084.37 1094.13 Q3084.37 1087 3082.55 1083.46 Q3080.74 1079.89 3077.11 1079.89 M3077.11 1076.19 Q3082.92 1076.19 3085.97 1080.8 Q3089.05 1085.38 3089.05 1094.13 Q3089.05 1102.86 3085.97 1107.46 Q3082.92 1112.05 3077.11 1112.05 Q3071.3 1112.05 3068.22 1107.46 Q3065.16 1102.86 3065.16 1094.13 Q3065.16 1085.38 3068.22 1080.8 Q3071.3 1076.19 3077.11 1076.19 Z" fill="#000000" fill-rule="nonzero" fill-opacity="1" /><path clip-path="url(#clip660)" d="M3097.31 1076.82 L3115.67 1076.82 L3115.67 1080.75 L3101.6 1080.75 L3101.6 1089.22 Q3102.61 1088.88 3103.63 1088.71 Q3104.65 1088.53 3105.67 1088.53 Q3111.46 1088.53 3114.84 1091.7 Q3118.22 1094.87 3118.22 1100.29 Q3118.22 1105.87 3114.74 1108.97 Q3111.27 1112.05 3104.95 1112.05 Q3102.78 1112.05 3100.51 1111.68 Q3098.26 1111.31 3095.86 1110.57 L3095.86 1105.87 Q3097.94 1107 3100.16 1107.56 Q3102.38 1108.11 3104.86 1108.11 Q3108.86 1108.11 3111.2 1106.01 Q3113.54 1103.9 3113.54 1100.29 Q3113.54 1096.68 3111.2 1094.57 Q3108.86 1092.46 3104.86 1092.46 Q3102.98 1092.46 3101.11 1092.88 Q3099.26 1093.3 3097.31 1094.18 L3097.31 1076.82 Z" fill="#000000" fill-rule="nonzero" fill-opacity="1" /><path clip-path="url(#clip660)" d="M3124.67 1096.49 L3137.15 1096.49 L3137.15 1100.29 L3124.67 1100.29 L3124.67 1096.49 Z" fill="#000000" fill-rule="nonzero" fill-opacity="1" /><path clip-path="url(#clip660)" d="M3154.54 1079.89 Q3150.92 1079.89 3149.1 1083.46 Q3147.29 1087 3147.29 1094.13 Q3147.29 1101.24 3149.1 1104.8 Q3150.92 1108.34 3154.54 1108.34 Q3158.17 1108.34 3159.98 1104.8 Q3161.8 1101.24 3161.8 1094.13 Q3161.8 1087 3159.98 1083.46 Q3158.17 1079.89 3154.54 1079.89 M3154.54 1076.19 Q3160.35 1076.19 3163.4 1080.8 Q3166.48 1085.38 3166.48 1094.13 Q3166.48 1102.86 3163.4 1107.46 Q3160.35 1112.05 3154.54 1112.05 Q3148.73 1112.05 3145.65 1107.46 Q3142.59 1102.86 3142.59 1094.13 Q3142.59 1085.38 3145.65 1080.8 Q3148.73 1076.19 3154.54 1076.19 Z" fill="#000000" fill-rule="nonzero" fill-opacity="1" /><path clip-path="url(#clip660)" d="M3175.51 1107.44 L3183.15 1107.44 L3183.15 1081.07 L3174.84 1082.74 L3174.84 1078.48 L3183.1 1076.82 L3187.78 1076.82 L3187.78 1107.44 L3195.41 1107.44 L3195.41 1111.38 L3175.51 1111.38 L3175.51 1107.44 Z" fill="#000000" fill-rule="nonzero" fill-opacity="1" /><polyline clip-path="url(#clip662)" style="stroke:#000000; stroke-linecap:round; stroke-linejoin:round; stroke-width:2; stroke-opacity:0.1; fill:none" points="271.839,1042.58 3089.76,1042.58 "/>
<polyline clip-path="url(#clip662)" style="stroke:#000000; stroke-linecap:round; stroke-linejoin:round; stroke-width:2; stroke-opacity:0.1; fill:none" points="271.839,591.775 3089.76,591.775 "/>
<polyline clip-path="url(#clip662)" style="stroke:#000000; stroke-linecap:round; stroke-linejoin:round; stroke-width:2; stroke-opacity:0.1; fill:none" points="271.839,140.974 3089.76,140.974 "/>
<polyline clip-path="url(#clip660)" style="stroke:#000000; stroke-linecap:round; stroke-linejoin:round; stroke-width:4; stroke-opacity:1; fill:none" points="271.839,1042.58 271.839,110.236 "/>
<polyline clip-path="url(#clip660)" style="stroke:#000000; stroke-linecap:round; stroke-linejoin:round; stroke-width:4; stroke-opacity:1; fill:none" points="271.839,1042.58 290.737,1042.58 "/>
<polyline clip-path="url(#clip660)" style="stroke:#000000; stroke-linecap:round; stroke-linejoin:round; stroke-width:4; stroke-opacity:1; fill:none" points="271.839,591.775 290.737,591.775 "/>
<polyline clip-path="url(#clip660)" style="stroke:#000000; stroke-linecap:round; stroke-linejoin:round; stroke-width:4; stroke-opacity:1; fill:none" points="271.839,140.974 290.737,140.974 "/>
<path clip-path="url(#clip660)" d="M153.134 1062.37 L160.772 1062.37 L160.772 1036 L152.462 1037.67 L152.462 1033.41 L160.726 1031.74 L165.402 1031.74 L165.402 1062.37 L173.041 1062.37 L173.041 1066.3 L153.134 1066.3 L153.134 1062.37 Z" fill="#000000" fill-rule="nonzero" fill-opacity="1" /><path clip-path="url(#clip660)" d="M192.485 1034.82 Q188.874 1034.82 187.045 1038.39 Q185.24 1041.93 185.24 1049.06 Q185.24 1056.16 187.045 1059.73 Q188.874 1063.27 192.485 1063.27 Q196.119 1063.27 197.925 1059.73 Q199.754 1056.16 199.754 1049.06 Q199.754 1041.93 197.925 1038.39 Q196.119 1034.82 192.485 1034.82 M192.485 1031.12 Q198.295 1031.12 201.351 1035.72 Q204.43 1040.31 204.43 1049.06 Q204.43 1057.78 201.351 1062.39 Q198.295 1066.97 192.485 1066.97 Q186.675 1066.97 183.596 1062.39 Q180.541 1057.78 180.541 1049.06 Q180.541 1040.31 183.596 1035.72 Q186.675 1031.12 192.485 1031.12 Z" fill="#000000" fill-rule="nonzero" fill-opacity="1" /><path clip-path="url(#clip660)" d="M214.134 1013.31 Q211.2 1013.31 209.715 1016.21 Q208.248 1019.09 208.248 1024.88 Q208.248 1030.66 209.715 1033.55 Q211.2 1036.43 214.134 1036.43 Q217.087 1036.43 218.554 1033.55 Q220.04 1030.66 220.04 1024.88 Q220.04 1019.09 218.554 1016.21 Q217.087 1013.31 214.134 1013.31 M214.134 1010.31 Q218.855 1010.31 221.338 1014.05 Q223.839 1017.77 223.839 1024.88 Q223.839 1031.97 221.338 1035.71 Q218.855 1039.44 214.134 1039.44 Q209.414 1039.44 206.912 1035.71 Q204.43 1031.97 204.43 1024.88 Q204.43 1017.77 206.912 1014.05 Q209.414 1010.31 214.134 1010.31 Z" fill="#000000" fill-rule="nonzero" fill-opacity="1" /><path clip-path="url(#clip660)" d="M155.823 611.568 L163.462 611.568 L163.462 585.202 L155.152 586.869 L155.152 582.609 L163.416 580.943 L168.092 580.943 L168.092 611.568 L175.73 611.568 L175.73 615.503 L155.823 615.503 L155.823 611.568 Z" fill="#000000" fill-rule="nonzero" fill-opacity="1" /><path clip-path="url(#clip660)" d="M195.175 584.021 Q191.564 584.021 189.735 587.586 Q187.929 591.128 187.929 598.257 Q187.929 605.364 189.735 608.929 Q191.564 612.47 195.175 612.47 Q198.809 612.47 200.615 608.929 Q202.443 605.364 202.443 598.257 Q202.443 591.128 200.615 587.586 Q198.809 584.021 195.175 584.021 M195.175 580.318 Q200.985 580.318 204.04 584.924 Q207.119 589.507 207.119 598.257 Q207.119 606.984 204.04 611.591 Q200.985 616.174 195.175 616.174 Q189.365 616.174 186.286 611.591 Q183.23 606.984 183.23 598.257 Q183.23 589.507 186.286 584.924 Q189.365 580.318 195.175 580.318 Z" fill="#000000" fill-rule="nonzero" fill-opacity="1" /><path clip-path="url(#clip660)" d="M207.665 584.895 L213.871 584.895 L213.871 563.473 L207.119 564.827 L207.119 561.366 L213.833 560.012 L217.633 560.012 L217.633 584.895 L223.839 584.895 L223.839 588.092 L207.665 588.092 L207.665 584.895 Z" fill="#000000" fill-rule="nonzero" fill-opacity="1" /><path clip-path="url(#clip660)" d="M154.713 160.767 L162.352 160.767 L162.352 134.401 L154.042 136.068 L154.042 131.809 L162.306 130.142 L166.982 130.142 L166.982 160.767 L174.621 160.767 L174.621 164.702 L154.713 164.702 L154.713 160.767 Z" fill="#000000" fill-rule="nonzero" fill-opacity="1" /><path clip-path="url(#clip660)" d="M194.065 133.221 Q190.454 133.221 188.625 136.786 Q186.82 140.327 186.82 147.457 Q186.82 154.563 188.625 158.128 Q190.454 161.67 194.065 161.67 Q197.699 161.67 199.505 158.128 Q201.334 154.563 201.334 147.457 Q201.334 140.327 199.505 136.786 Q197.699 133.221 194.065 133.221 M194.065 129.517 Q199.875 129.517 202.931 134.124 Q206.009 138.707 206.009 147.457 Q206.009 156.184 202.931 160.79 Q199.875 165.373 194.065 165.373 Q188.255 165.373 185.176 160.79 Q182.121 156.184 182.121 147.457 Q182.121 138.707 185.176 134.124 Q188.255 129.517 194.065 129.517 Z" fill="#000000" fill-rule="nonzero" fill-opacity="1" /><path clip-path="url(#clip660)" d="M210.58 134.094 L223.839 134.094 L223.839 137.292 L206.009 137.292 L206.009 134.094 Q208.172 131.856 211.896 128.095 Q215.639 124.314 216.598 123.223 Q218.423 121.173 219.137 119.763 Q219.871 118.333 219.871 116.96 Q219.871 114.722 218.291 113.312 Q216.73 111.901 214.21 111.901 Q212.423 111.901 210.429 112.522 Q208.454 113.142 206.198 114.403 L206.198 110.566 Q208.492 109.644 210.486 109.174 Q212.479 108.704 214.134 108.704 Q218.498 108.704 221.093 110.886 Q223.689 113.067 223.689 116.716 Q223.689 118.446 223.03 120.007 Q222.391 121.55 220.68 123.656 Q220.209 124.201 217.689 126.816 Q215.169 129.411 210.58 134.094 Z" fill="#000000" fill-rule="nonzero" fill-opacity="1" /><path clip-path="url(#clip660)" d="M83.4268 884.029 L70.6636 884.029 L70.6636 894.532 L65.38 894.532 L65.38 877.663 L85.7821 877.663 Q88.4239 881.387 89.7925 885.875 Q91.1293 890.363 91.1293 895.455 Q91.1293 906.595 84.6363 912.897 Q78.1114 919.167 66.494 919.167 Q54.8448 919.167 48.3518 912.897 Q41.8269 906.595 41.8269 895.455 Q41.8269 890.808 42.9727 886.639 Q44.1186 882.437 46.3466 878.904 L53.1897 878.904 Q50.166 882.469 48.6382 886.48 Q47.1104 890.49 47.1104 894.914 Q47.1104 903.635 51.9802 908.027 Q56.85 912.388 66.494 912.388 Q76.1062 912.388 80.976 908.027 Q85.8458 903.635 85.8458 894.914 Q85.8458 891.508 85.2729 888.835 Q84.6681 886.161 83.4268 884.029 Z" fill="#000000" fill-rule="nonzero" fill-opacity="1" /><path clip-path="url(#clip660)" d="M70.9182 835.681 L73.7828 835.681 L73.7828 862.608 Q79.8302 862.226 83.013 858.98 Q86.1641 855.701 86.1641 849.877 Q86.1641 846.503 85.3365 843.352 Q84.509 840.169 82.8539 837.05 L88.3921 837.05 Q89.7289 840.201 90.4291 843.511 Q91.1293 846.821 91.1293 850.227 Q91.1293 858.757 86.1641 863.754 Q81.1988 868.719 72.7324 868.719 Q63.9796 868.719 58.8552 864.009 Q53.699 859.266 53.699 851.245 Q53.699 844.052 58.3459 839.883 Q62.9611 835.681 70.9182 835.681 M69.1995 841.538 Q64.3933 841.601 61.5288 844.243 Q58.6642 846.853 58.6642 851.182 Q58.6642 856.083 61.4333 859.043 Q64.2024 861.972 69.2313 862.417 L69.1995 841.538 Z" fill="#000000" fill-rule="nonzero" fill-opacity="1" /><path clip-path="url(#clip660)" d="M68.6902 796.437 L90.2063 796.437 L90.2063 802.293 L68.8812 802.293 Q63.8204 802.293 61.306 804.266 Q58.7915 806.24 58.7915 810.187 Q58.7915 814.929 61.8152 817.666 Q64.8389 820.404 70.0588 820.404 L90.2063 820.404 L90.2063 826.292 L54.5583 826.292 L54.5583 820.404 L60.0965 820.404 Q56.8818 818.303 55.2904 815.47 Q53.699 812.606 53.699 808.882 Q53.699 802.739 57.5184 799.588 Q61.306 796.437 68.6902 796.437 Z" fill="#000000" fill-rule="nonzero" fill-opacity="1" /><path clip-path="url(#clip660)" d="M58.6642 770.942 Q58.6642 775.653 62.3563 778.39 Q66.0166 781.127 72.4141 781.127 Q78.8117 781.127 82.5038 778.422 Q86.1641 775.684 86.1641 770.942 Q86.1641 766.263 82.4719 763.526 Q78.7798 760.789 72.4141 760.789 Q66.0803 760.789 62.3881 763.526 Q58.6642 766.263 58.6642 770.942 M53.699 770.942 Q53.699 763.303 58.6642 758.943 Q63.6295 754.582 72.4141 754.582 Q81.167 754.582 86.1641 758.943 Q91.1293 763.303 91.1293 770.942 Q91.1293 778.613 86.1641 782.973 Q81.167 787.302 72.4141 787.302 Q63.6295 787.302 58.6642 782.973 Q53.699 778.613 53.699 770.942 Z" fill="#000000" fill-rule="nonzero" fill-opacity="1" /><path clip-path="url(#clip660)" d="M61.4015 717.12 Q57.4547 714.924 55.5768 711.868 Q53.699 708.813 53.699 704.675 Q53.699 699.105 57.6139 696.081 Q61.4969 693.058 68.6902 693.058 L90.2063 693.058 L90.2063 698.946 L68.8812 698.946 Q63.7568 698.946 61.2741 700.76 Q58.7915 702.574 58.7915 706.298 Q58.7915 710.85 61.8152 713.491 Q64.8389 716.133 70.0588 716.133 L90.2063 716.133 L90.2063 722.022 L68.8812 722.022 Q63.7249 722.022 61.2741 723.836 Q58.7915 725.65 58.7915 729.438 Q58.7915 733.925 61.8471 736.567 Q64.8708 739.209 70.0588 739.209 L90.2063 739.209 L90.2063 745.097 L54.5583 745.097 L54.5583 739.209 L60.0965 739.209 Q56.8182 737.204 55.2586 734.403 Q53.699 731.602 53.699 727.751 Q53.699 723.868 55.6723 721.162 Q57.6457 718.425 61.4015 717.12 Z" fill="#000000" fill-rule="nonzero" fill-opacity="1" /><path clip-path="url(#clip660)" d="M70.9182 650.885 L73.7828 650.885 L73.7828 677.812 Q79.8302 677.43 83.013 674.183 Q86.1641 670.905 86.1641 665.08 Q86.1641 661.706 85.3365 658.555 Q84.509 655.373 82.8539 652.253 L88.3921 652.253 Q89.7289 655.404 90.4291 658.715 Q91.1293 662.025 91.1293 665.43 Q91.1293 673.96 86.1641 678.958 Q81.1988 683.923 72.7324 683.923 Q63.9796 683.923 58.8552 679.212 Q53.699 674.47 53.699 666.449 Q53.699 659.256 58.3459 655.086 Q62.9611 650.885 70.9182 650.885 M69.1995 656.741 Q64.3933 656.805 61.5288 659.447 Q58.6642 662.057 58.6642 666.385 Q58.6642 671.287 61.4333 674.247 Q64.2024 677.175 69.2313 677.621 L69.1995 656.741 Z" fill="#000000" fill-rule="nonzero" fill-opacity="1" /><path clip-path="url(#clip660)" d="M55.6087 618.547 L61.1468 618.547 Q59.8737 621.03 59.2371 623.703 Q58.6006 626.377 58.6006 629.241 Q58.6006 633.602 59.9373 635.798 Q61.2741 637.962 63.9477 637.962 Q65.9848 637.962 67.1624 636.403 Q68.3083 634.843 69.3586 630.133 L69.8042 628.127 Q71.141 621.889 73.5918 619.279 Q76.0108 616.637 80.3713 616.637 Q85.3365 616.637 88.2329 620.584 Q91.1293 624.499 91.1293 631.374 Q91.1293 634.238 90.5564 637.358 Q90.0153 640.445 88.9013 643.882 L82.8539 643.882 Q84.5408 640.636 85.4002 637.485 Q86.2277 634.334 86.2277 631.247 Q86.2277 627.109 84.8273 624.881 Q83.395 622.653 80.8169 622.653 Q78.4297 622.653 77.1566 624.276 Q75.8834 625.868 74.7058 631.31 L74.2284 633.347 Q73.0825 638.79 70.7272 641.209 Q68.3401 643.628 64.2024 643.628 Q59.1735 643.628 56.4362 640.063 Q53.699 636.498 53.699 629.942 Q53.699 626.695 54.1764 623.83 Q54.6538 620.966 55.6087 618.547 Z" fill="#000000" fill-rule="nonzero" fill-opacity="1" /><path clip-path="url(#clip660)" d="M42.6863 596.904 L42.6863 591.493 L96.2537 608.044 L96.2537 613.454 L42.6863 596.904 Z" fill="#000000" fill-rule="nonzero" fill-opacity="1" /><path clip-path="url(#clip660)" d="M47.9698 578.666 L84.9227 578.666 L84.9227 570.9 Q84.9227 561.065 80.4668 556.513 Q76.0108 551.93 66.3985 551.93 Q56.85 551.93 52.4258 556.513 Q47.9698 561.065 47.9698 570.9 L47.9698 578.666 M42.6863 585.095 L42.6863 571.886 Q42.6863 558.073 48.4472 551.612 Q54.1764 545.15 66.3985 545.15 Q78.6844 545.15 84.4453 551.643 Q90.2063 558.136 90.2063 571.886 L90.2063 585.095 L42.6863 585.095 Z" fill="#000000" fill-rule="nonzero" fill-opacity="1" /><path clip-path="url(#clip660)" d="M72.2868 518.955 Q72.2868 526.053 73.9101 528.79 Q75.5333 531.528 79.4482 531.528 Q82.5674 531.528 84.4135 529.491 Q86.2277 527.422 86.2277 523.889 Q86.2277 519.019 82.7902 516.091 Q79.3209 513.131 73.5918 513.131 L72.2868 513.131 L72.2868 518.955 M69.8679 507.274 L90.2063 507.274 L90.2063 513.131 L84.7954 513.131 Q88.0419 515.136 89.6015 518.128 Q91.1293 521.12 91.1293 525.449 Q91.1293 530.923 88.0738 534.17 Q84.9864 537.384 79.8302 537.384 Q73.8146 537.384 70.759 533.374 Q67.7035 529.332 67.7035 521.343 L67.7035 513.131 L67.1306 513.131 Q63.0884 513.131 60.8922 515.804 Q58.6642 518.446 58.6642 523.252 Q58.6642 526.308 59.3963 529.204 Q60.1283 532.101 61.5924 534.774 L56.1816 534.774 Q54.9403 531.56 54.3355 528.536 Q53.699 525.512 53.699 522.648 Q53.699 514.913 57.7094 511.094 Q61.7197 507.274 69.8679 507.274 Z" fill="#000000" fill-rule="nonzero" fill-opacity="1" /><path clip-path="url(#clip660)" d="M93.5165 480.379 Q99.8822 482.862 101.824 485.217 Q103.765 487.573 103.765 491.519 L103.765 496.198 L98.8636 496.198 L98.8636 492.761 Q98.8636 490.342 97.7178 489.005 Q96.572 487.668 92.307 486.045 L89.6334 484.994 L54.5583 499.413 L54.5583 493.206 L82.4401 482.066 L54.5583 470.926 L54.5583 464.72 L93.5165 480.379 Z" fill="#000000" fill-rule="nonzero" fill-opacity="1" /><path clip-path="url(#clip660)" d="M40.7447 421.847 Q48.0653 426.112 55.2267 428.181 Q62.3881 430.249 69.7405 430.249 Q77.0929 430.249 84.318 428.181 Q91.5113 426.08 98.8 421.847 L98.8 426.939 Q91.3203 431.713 84.0952 434.101 Q76.8701 436.456 69.7405 436.456 Q62.6428 436.456 55.4495 434.101 Q48.2563 431.745 40.7447 426.939 L40.7447 421.847 Z" fill="#000000" fill-rule="nonzero" fill-opacity="1" /><path clip-path="url(#clip660)" d="M46.3466 374.645 L53.126 374.645 Q50.1023 377.891 48.6064 381.584 Q47.1104 385.244 47.1104 389.382 Q47.1104 397.53 52.1075 401.858 Q57.0728 406.187 66.494 406.187 Q75.8834 406.187 80.8805 401.858 Q85.8458 397.53 85.8458 389.382 Q85.8458 385.244 84.3498 381.584 Q82.8539 377.891 79.8302 374.645 L86.546 374.645 Q88.8377 378.019 89.9835 381.806 Q91.1293 385.562 91.1293 389.763 Q91.1293 400.553 84.5408 406.76 Q77.9205 412.966 66.494 412.966 Q55.0358 412.966 48.4472 406.76 Q41.8269 400.553 41.8269 389.763 Q41.8269 385.498 42.9727 381.743 Q44.0867 377.955 46.3466 374.645 Z" fill="#000000" fill-rule="nonzero" fill-opacity="1" /><path clip-path="url(#clip660)" d="M68.6902 335.337 L90.2063 335.337 L90.2063 341.193 L68.8812 341.193 Q63.8204 341.193 61.306 343.166 Q58.7915 345.14 58.7915 349.087 Q58.7915 353.829 61.8152 356.566 Q64.8389 359.304 70.0588 359.304 L90.2063 359.304 L90.2063 365.192 L40.6811 365.192 L40.6811 359.304 L60.0965 359.304 Q56.8818 357.203 55.2904 354.37 Q53.699 351.506 53.699 347.782 Q53.699 341.639 57.5184 338.488 Q61.306 335.337 68.6902 335.337 Z" fill="#000000" fill-rule="nonzero" fill-opacity="1" /><path clip-path="url(#clip660)" d="M54.5583 323.656 L54.5583 317.799 L90.2063 317.799 L90.2063 323.656 L54.5583 323.656 M40.6811 323.656 L40.6811 317.799 L48.0971 317.799 L48.0971 323.656 L40.6811 323.656 Z" fill="#000000" fill-rule="nonzero" fill-opacity="1" /><path clip-path="url(#clip660)" d="M40.6811 305.545 L40.6811 299.689 L90.2063 299.689 L90.2063 305.545 L40.6811 305.545 Z" fill="#000000" fill-rule="nonzero" fill-opacity="1" /><path clip-path="url(#clip660)" d="M70.9182 256.943 L73.7828 256.943 L73.7828 283.87 Q79.8302 283.488 83.013 280.241 Q86.1641 276.963 86.1641 271.139 Q86.1641 267.765 85.3365 264.614 Q84.509 261.431 82.8539 258.312 L88.3921 258.312 Q89.7289 261.463 90.4291 264.773 Q91.1293 268.083 91.1293 271.489 Q91.1293 280.019 86.1641 285.016 Q81.1988 289.981 72.7324 289.981 Q63.9796 289.981 58.8552 285.27 Q53.699 280.528 53.699 272.507 Q53.699 265.314 58.3459 261.144 Q62.9611 256.943 70.9182 256.943 M69.1995 262.799 Q64.3933 262.863 61.5288 265.505 Q58.6642 268.115 58.6642 272.443 Q58.6642 277.345 61.4333 280.305 Q64.2024 283.233 69.2313 283.679 L69.1995 262.799 Z" fill="#000000" fill-rule="nonzero" fill-opacity="1" /><path clip-path="url(#clip660)" d="M40.7447 248.254 L40.7447 243.161 Q48.2563 238.387 55.4495 236.032 Q62.6428 233.645 69.7405 233.645 Q76.8701 233.645 84.0952 236.032 Q91.3203 238.387 98.8 243.161 L98.8 248.254 Q91.5113 244.021 84.318 241.952 Q77.0929 239.851 69.7405 239.851 Q62.3881 239.851 55.2267 241.952 Q48.0653 244.021 40.7447 248.254 Z" fill="#000000" fill-rule="nonzero" fill-opacity="1" /><path clip-path="url(#clip662)" d="M288.747 487.889 L288.747 1042.58 L311.29 1042.58 L311.29 487.889 L288.747 487.889 L288.747 487.889  Z" fill="#009af9" fill-rule="evenodd" fill-opacity="0.5"/>
<polyline clip-path="url(#clip662)" style="stroke:#000000; stroke-linecap:round; stroke-linejoin:round; stroke-width:4; stroke-opacity:0.5; fill:none" points="288.747,487.889 288.747,1042.58 311.29,1042.58 311.29,487.889 288.747,487.889 "/>
<path clip-path="url(#clip662)" d="M316.926 661.605 L316.926 1042.58 L339.469 1042.58 L339.469 661.605 L316.926 661.605 L316.926 661.605  Z" fill="#009af9" fill-rule="evenodd" fill-opacity="0.5"/>
<polyline clip-path="url(#clip662)" style="stroke:#000000; stroke-linecap:round; stroke-linejoin:round; stroke-width:4; stroke-opacity:0.5; fill:none" points="316.926,661.605 316.926,1042.58 339.469,1042.58 339.469,661.605 316.926,661.605 "/>
<path clip-path="url(#clip662)" d="M345.105 573.115 L345.105 1042.58 L367.649 1042.58 L367.649 573.115 L345.105 573.115 L345.105 573.115  Z" fill="#009af9" fill-rule="evenodd" fill-opacity="0.5"/>
<polyline clip-path="url(#clip662)" style="stroke:#000000; stroke-linecap:round; stroke-linejoin:round; stroke-width:4; stroke-opacity:0.5; fill:none" points="345.105,573.115 345.105,1042.58 367.649,1042.58 367.649,573.115 345.105,573.115 "/>
<path clip-path="url(#clip662)" d="M373.285 591.775 L373.285 1042.58 L395.828 1042.58 L395.828 591.775 L373.285 591.775 L373.285 591.775  Z" fill="#009af9" fill-rule="evenodd" fill-opacity="0.5"/>
<polyline clip-path="url(#clip662)" style="stroke:#000000; stroke-linecap:round; stroke-linejoin:round; stroke-width:4; stroke-opacity:0.5; fill:none" points="373.285,591.775 373.285,1042.58 395.828,1042.58 395.828,591.775 373.285,591.775 "/>
<path clip-path="url(#clip662)" d="M401.464 635.462 L401.464 1042.58 L424.007 1042.58 L424.007 635.462 L401.464 635.462 L401.464 635.462  Z" fill="#009af9" fill-rule="evenodd" fill-opacity="0.5"/>
<polyline clip-path="url(#clip662)" style="stroke:#000000; stroke-linecap:round; stroke-linejoin:round; stroke-width:4; stroke-opacity:0.5; fill:none" points="401.464,635.462 401.464,1042.58 424.007,1042.58 424.007,635.462 401.464,635.462 "/>
<path clip-path="url(#clip662)" d="M429.643 456.071 L429.643 1042.58 L452.186 1042.58 L452.186 456.071 L429.643 456.071 L429.643 456.071  Z" fill="#009af9" fill-rule="evenodd" fill-opacity="0.5"/>
<polyline clip-path="url(#clip662)" style="stroke:#000000; stroke-linecap:round; stroke-linejoin:round; stroke-width:4; stroke-opacity:0.5; fill:none" points="429.643,456.071 429.643,1042.58 452.186,1042.58 452.186,456.071 429.643,456.071 "/>
<path clip-path="url(#clip662)" d="M457.822 591.775 L457.822 1042.58 L480.366 1042.58 L480.366 591.775 L457.822 591.775 L457.822 591.775  Z" fill="#009af9" fill-rule="evenodd" fill-opacity="0.5"/>
<polyline clip-path="url(#clip662)" style="stroke:#000000; stroke-linecap:round; stroke-linejoin:round; stroke-width:4; stroke-opacity:0.5; fill:none" points="457.822,591.775 457.822,1042.58 480.366,1042.58 480.366,591.775 457.822,591.775 "/>
<path clip-path="url(#clip662)" d="M486.001 512.393 L486.001 1042.58 L508.545 1042.58 L508.545 512.393 L486.001 512.393 L486.001 512.393  Z" fill="#009af9" fill-rule="evenodd" fill-opacity="0.5"/>
<polyline clip-path="url(#clip662)" style="stroke:#000000; stroke-linecap:round; stroke-linejoin:round; stroke-width:4; stroke-opacity:0.5; fill:none" points="486.001,512.393 486.001,1042.58 508.545,1042.58 508.545,512.393 486.001,512.393 "/>
<path clip-path="url(#clip662)" d="M514.181 525.9 L514.181 1042.58 L536.724 1042.58 L536.724 525.9 L514.181 525.9 L514.181 525.9  Z" fill="#009af9" fill-rule="evenodd" fill-opacity="0.5"/>
<polyline clip-path="url(#clip662)" style="stroke:#000000; stroke-linecap:round; stroke-linejoin:round; stroke-width:4; stroke-opacity:0.5; fill:none" points="514.181,525.9 514.181,1042.58 536.724,1042.58 536.724,525.9 514.181,525.9 "/>
<path clip-path="url(#clip662)" d="M542.36 512.393 L542.36 1042.58 L564.903 1042.58 L564.903 512.393 L542.36 512.393 L542.36 512.393  Z" fill="#009af9" fill-rule="evenodd" fill-opacity="0.5"/>
<polyline clip-path="url(#clip662)" style="stroke:#000000; stroke-linecap:round; stroke-linejoin:round; stroke-width:4; stroke-opacity:0.5; fill:none" points="542.36,512.393 542.36,1042.58 564.903,1042.58 564.903,512.393 542.36,512.393 "/>
<path clip-path="url(#clip662)" d="M570.539 573.115 L570.539 1042.58 L593.083 1042.58 L593.083 573.115 L570.539 573.115 L570.539 573.115  Z" fill="#009af9" fill-rule="evenodd" fill-opacity="0.5"/>
<polyline clip-path="url(#clip662)" style="stroke:#000000; stroke-linecap:round; stroke-linejoin:round; stroke-width:4; stroke-opacity:0.5; fill:none" points="570.539,573.115 570.539,1042.58 593.083,1042.58 593.083,573.115 570.539,573.115 "/>
<path clip-path="url(#clip662)" d="M598.718 661.605 L598.718 1042.58 L621.262 1042.58 L621.262 661.605 L598.718 661.605 L598.718 661.605  Z" fill="#009af9" fill-rule="evenodd" fill-opacity="0.5"/>
<polyline clip-path="url(#clip662)" style="stroke:#000000; stroke-linecap:round; stroke-linejoin:round; stroke-width:4; stroke-opacity:0.5; fill:none" points="598.718,661.605 598.718,1042.58 621.262,1042.58 621.262,661.605 598.718,661.605 "/>
<path clip-path="url(#clip662)" d="M626.898 525.9 L626.898 1042.58 L649.441 1042.58 L649.441 525.9 L626.898 525.9 L626.898 525.9  Z" fill="#009af9" fill-rule="evenodd" fill-opacity="0.5"/>
<polyline clip-path="url(#clip662)" style="stroke:#000000; stroke-linecap:round; stroke-linejoin:round; stroke-width:4; stroke-opacity:0.5; fill:none" points="626.898,525.9 626.898,1042.58 649.441,1042.58 649.441,525.9 626.898,525.9 "/>
<path clip-path="url(#clip662)" d="M655.077 499.758 L655.077 1042.58 L677.62 1042.58 L677.62 499.758 L655.077 499.758 L655.077 499.758  Z" fill="#009af9" fill-rule="evenodd" fill-opacity="0.5"/>
<polyline clip-path="url(#clip662)" style="stroke:#000000; stroke-linecap:round; stroke-linejoin:round; stroke-width:4; stroke-opacity:0.5; fill:none" points="655.077,499.758 655.077,1042.58 677.62,1042.58 677.62,499.758 655.077,499.758 "/>
<path clip-path="url(#clip662)" d="M683.256 612.403 L683.256 1042.58 L705.8 1042.58 L705.8 612.403 L683.256 612.403 L683.256 612.403  Z" fill="#009af9" fill-rule="evenodd" fill-opacity="0.5"/>
<polyline clip-path="url(#clip662)" style="stroke:#000000; stroke-linecap:round; stroke-linejoin:round; stroke-width:4; stroke-opacity:0.5; fill:none" points="683.256,612.403 683.256,1042.58 705.8,1042.58 705.8,612.403 683.256,612.403 "/>
<path clip-path="url(#clip662)" d="M711.435 691.785 L711.435 1042.58 L733.979 1042.58 L733.979 691.785 L711.435 691.785 L711.435 691.785  Z" fill="#009af9" fill-rule="evenodd" fill-opacity="0.5"/>
<polyline clip-path="url(#clip662)" style="stroke:#000000; stroke-linecap:round; stroke-linejoin:round; stroke-width:4; stroke-opacity:0.5; fill:none" points="711.435,691.785 711.435,1042.58 733.979,1042.58 733.979,691.785 711.435,691.785 "/>
<path clip-path="url(#clip662)" d="M739.615 512.393 L739.615 1042.58 L762.158 1042.58 L762.158 512.393 L739.615 512.393 L739.615 512.393  Z" fill="#009af9" fill-rule="evenodd" fill-opacity="0.5"/>
<polyline clip-path="url(#clip662)" style="stroke:#000000; stroke-linecap:round; stroke-linejoin:round; stroke-width:4; stroke-opacity:0.5; fill:none" points="739.615,512.393 739.615,1042.58 762.158,1042.58 762.158,512.393 739.615,512.393 "/>
<path clip-path="url(#clip662)" d="M767.794 635.462 L767.794 1042.58 L790.337 1042.58 L790.337 635.462 L767.794 635.462 L767.794 635.462  Z" fill="#009af9" fill-rule="evenodd" fill-opacity="0.5"/>
<polyline clip-path="url(#clip662)" style="stroke:#000000; stroke-linecap:round; stroke-linejoin:round; stroke-width:4; stroke-opacity:0.5; fill:none" points="767.794,635.462 767.794,1042.58 790.337,1042.58 790.337,635.462 767.794,635.462 "/>
<path clip-path="url(#clip662)" d="M795.973 456.071 L795.973 1042.58 L818.517 1042.58 L818.517 456.071 L795.973 456.071 L795.973 456.071  Z" fill="#009af9" fill-rule="evenodd" fill-opacity="0.5"/>
<polyline clip-path="url(#clip662)" style="stroke:#000000; stroke-linecap:round; stroke-linejoin:round; stroke-width:4; stroke-opacity:0.5; fill:none" points="795.973,456.071 795.973,1042.58 818.517,1042.58 818.517,456.071 795.973,456.071 "/>
<path clip-path="url(#clip662)" d="M824.152 404.705 L824.152 1042.58 L846.696 1042.58 L846.696 404.705 L824.152 404.705 L824.152 404.705  Z" fill="#009af9" fill-rule="evenodd" fill-opacity="0.5"/>
<polyline clip-path="url(#clip662)" style="stroke:#000000; stroke-linecap:round; stroke-linejoin:round; stroke-width:4; stroke-opacity:0.5; fill:none" points="824.152,404.705 824.152,1042.58 846.696,1042.58 846.696,404.705 824.152,404.705 "/>
<path clip-path="url(#clip662)" d="M852.332 556.08 L852.332 1042.58 L874.875 1042.58 L874.875 556.08 L852.332 556.08 L852.332 556.08  Z" fill="#009af9" fill-rule="evenodd" fill-opacity="0.5"/>
<polyline clip-path="url(#clip662)" style="stroke:#000000; stroke-linecap:round; stroke-linejoin:round; stroke-width:4; stroke-opacity:0.5; fill:none" points="852.332,556.08 852.332,1042.58 874.875,1042.58 874.875,556.08 852.332,556.08 "/>
<path clip-path="url(#clip662)" d="M880.511 635.462 L880.511 1042.58 L903.054 1042.58 L903.054 635.462 L880.511 635.462 L880.511 635.462  Z" fill="#009af9" fill-rule="evenodd" fill-opacity="0.5"/>
<polyline clip-path="url(#clip662)" style="stroke:#000000; stroke-linecap:round; stroke-linejoin:round; stroke-width:4; stroke-opacity:0.5; fill:none" points="880.511,635.462 880.511,1042.58 903.054,1042.58 903.054,635.462 880.511,635.462 "/>
<path clip-path="url(#clip662)" d="M908.69 691.785 L908.69 1042.58 L931.234 1042.58 L931.234 691.785 L908.69 691.785 L908.69 691.785  Z" fill="#009af9" fill-rule="evenodd" fill-opacity="0.5"/>
<polyline clip-path="url(#clip662)" style="stroke:#000000; stroke-linecap:round; stroke-linejoin:round; stroke-width:4; stroke-opacity:0.5; fill:none" points="908.69,691.785 908.69,1042.58 931.234,1042.58 931.234,691.785 908.69,691.785 "/>
<path clip-path="url(#clip662)" d="M936.869 556.08 L936.869 1042.58 L959.413 1042.58 L959.413 556.08 L936.869 556.08 L936.869 556.08  Z" fill="#009af9" fill-rule="evenodd" fill-opacity="0.5"/>
<polyline clip-path="url(#clip662)" style="stroke:#000000; stroke-linecap:round; stroke-linejoin:round; stroke-width:4; stroke-opacity:0.5; fill:none" points="936.869,556.08 936.869,1042.58 959.413,1042.58 959.413,556.08 936.869,556.08 "/>
<path clip-path="url(#clip662)" d="M965.049 540.409 L965.049 1042.58 L987.592 1042.58 L987.592 540.409 L965.049 540.409 L965.049 540.409  Z" fill="#009af9" fill-rule="evenodd" fill-opacity="0.5"/>
<polyline clip-path="url(#clip662)" style="stroke:#000000; stroke-linecap:round; stroke-linejoin:round; stroke-width:4; stroke-opacity:0.5; fill:none" points="965.049,540.409 965.049,1042.58 987.592,1042.58 987.592,540.409 965.049,540.409 "/>
<path clip-path="url(#clip662)" d="M993.228 512.393 L993.228 1042.58 L1015.77 1042.58 L1015.77 512.393 L993.228 512.393 L993.228 512.393  Z" fill="#009af9" fill-rule="evenodd" fill-opacity="0.5"/>
<polyline clip-path="url(#clip662)" style="stroke:#000000; stroke-linecap:round; stroke-linejoin:round; stroke-width:4; stroke-opacity:0.5; fill:none" points="993.228,512.393 993.228,1042.58 1015.77,1042.58 1015.77,512.393 993.228,512.393 "/>
<path clip-path="url(#clip662)" d="M1021.41 437.411 L1021.41 1042.58 L1043.95 1042.58 L1043.95 437.411 L1021.41 437.411 L1021.41 437.411  Z" fill="#009af9" fill-rule="evenodd" fill-opacity="0.5"/>
<polyline clip-path="url(#clip662)" style="stroke:#000000; stroke-linecap:round; stroke-linejoin:round; stroke-width:4; stroke-opacity:0.5; fill:none" points="1021.41,437.411 1021.41,1042.58 1043.95,1042.58 1043.95,437.411 1021.41,437.411 "/>
<path clip-path="url(#clip662)" d="M1049.59 512.393 L1049.59 1042.58 L1072.13 1042.58 L1072.13 512.393 L1049.59 512.393 L1049.59 512.393  Z" fill="#009af9" fill-rule="evenodd" fill-opacity="0.5"/>
<polyline clip-path="url(#clip662)" style="stroke:#000000; stroke-linecap:round; stroke-linejoin:round; stroke-width:4; stroke-opacity:0.5; fill:none" points="1049.59,512.393 1049.59,1042.58 1072.13,1042.58 1072.13,512.393 1049.59,512.393 "/>
<path clip-path="url(#clip662)" d="M1077.77 727.48 L1077.77 1042.58 L1100.31 1042.58 L1100.31 727.48 L1077.77 727.48 L1077.77 727.48  Z" fill="#009af9" fill-rule="evenodd" fill-opacity="0.5"/>
<polyline clip-path="url(#clip662)" style="stroke:#000000; stroke-linecap:round; stroke-linejoin:round; stroke-width:4; stroke-opacity:0.5; fill:none" points="1077.77,727.48 1077.77,1042.58 1100.31,1042.58 1100.31,727.48 1077.77,727.48 "/>
<path clip-path="url(#clip662)" d="M1105.94 635.462 L1105.94 1042.58 L1128.49 1042.58 L1128.49 635.462 L1105.94 635.462 L1105.94 635.462  Z" fill="#009af9" fill-rule="evenodd" fill-opacity="0.5"/>
<polyline clip-path="url(#clip662)" style="stroke:#000000; stroke-linecap:round; stroke-linejoin:round; stroke-width:4; stroke-opacity:0.5; fill:none" points="1105.94,635.462 1105.94,1042.58 1128.49,1042.58 1128.49,635.462 1105.94,635.462 "/>
<path clip-path="url(#clip662)" d="M1134.12 556.08 L1134.12 1042.58 L1156.67 1042.58 L1156.67 556.08 L1134.12 556.08 L1134.12 556.08  Z" fill="#009af9" fill-rule="evenodd" fill-opacity="0.5"/>
<polyline clip-path="url(#clip662)" style="stroke:#000000; stroke-linecap:round; stroke-linejoin:round; stroke-width:4; stroke-opacity:0.5; fill:none" points="1134.12,556.08 1134.12,1042.58 1156.67,1042.58 1156.67,556.08 1134.12,556.08 "/>
<path clip-path="url(#clip662)" d="M1162.3 727.48 L1162.3 1042.58 L1184.85 1042.58 L1184.85 727.48 L1162.3 727.48 L1162.3 727.48  Z" fill="#009af9" fill-rule="evenodd" fill-opacity="0.5"/>
<polyline clip-path="url(#clip662)" style="stroke:#000000; stroke-linecap:round; stroke-linejoin:round; stroke-width:4; stroke-opacity:0.5; fill:none" points="1162.3,727.48 1162.3,1042.58 1184.85,1042.58 1184.85,727.48 1162.3,727.48 "/>
<path clip-path="url(#clip662)" d="M1190.48 525.9 L1190.48 1042.58 L1213.03 1042.58 L1213.03 525.9 L1190.48 525.9 L1190.48 525.9  Z" fill="#009af9" fill-rule="evenodd" fill-opacity="0.5"/>
<polyline clip-path="url(#clip662)" style="stroke:#000000; stroke-linecap:round; stroke-linejoin:round; stroke-width:4; stroke-opacity:0.5; fill:none" points="1190.48,525.9 1190.48,1042.58 1213.03,1042.58 1213.03,525.9 1190.48,525.9 "/>
<path clip-path="url(#clip662)" d="M1218.66 335.629 L1218.66 1042.58 L1241.21 1042.58 L1241.21 335.629 L1218.66 335.629 L1218.66 335.629  Z" fill="#009af9" fill-rule="evenodd" fill-opacity="0.5"/>
<polyline clip-path="url(#clip662)" style="stroke:#000000; stroke-linecap:round; stroke-linejoin:round; stroke-width:4; stroke-opacity:0.5; fill:none" points="1218.66,335.629 1218.66,1042.58 1241.21,1042.58 1241.21,335.629 1218.66,335.629 "/>
<path clip-path="url(#clip662)" d="M1246.84 420.376 L1246.84 1042.58 L1269.38 1042.58 L1269.38 420.376 L1246.84 420.376 L1246.84 420.376  Z" fill="#009af9" fill-rule="evenodd" fill-opacity="0.5"/>
<polyline clip-path="url(#clip662)" style="stroke:#000000; stroke-linecap:round; stroke-linejoin:round; stroke-width:4; stroke-opacity:0.5; fill:none" points="1246.84,420.376 1246.84,1042.58 1269.38,1042.58 1269.38,420.376 1246.84,420.376 "/>
<path clip-path="url(#clip662)" d="M1275.02 612.403 L1275.02 1042.58 L1297.56 1042.58 L1297.56 612.403 L1275.02 612.403 L1275.02 612.403  Z" fill="#009af9" fill-rule="evenodd" fill-opacity="0.5"/>
<polyline clip-path="url(#clip662)" style="stroke:#000000; stroke-linecap:round; stroke-linejoin:round; stroke-width:4; stroke-opacity:0.5; fill:none" points="1275.02,612.403 1275.02,1042.58 1297.56,1042.58 1297.56,612.403 1275.02,612.403 "/>
<path clip-path="url(#clip662)" d="M1303.2 591.775 L1303.2 1042.58 L1325.74 1042.58 L1325.74 591.775 L1303.2 591.775 L1303.2 591.775  Z" fill="#009af9" fill-rule="evenodd" fill-opacity="0.5"/>
<polyline clip-path="url(#clip662)" style="stroke:#000000; stroke-linecap:round; stroke-linejoin:round; stroke-width:4; stroke-opacity:0.5; fill:none" points="1303.2,591.775 1303.2,1042.58 1325.74,1042.58 1325.74,591.775 1303.2,591.775 "/>
<path clip-path="url(#clip662)" d="M1331.38 437.411 L1331.38 1042.58 L1353.92 1042.58 L1353.92 437.411 L1331.38 437.411 L1331.38 437.411  Z" fill="#009af9" fill-rule="evenodd" fill-opacity="0.5"/>
<polyline clip-path="url(#clip662)" style="stroke:#000000; stroke-linecap:round; stroke-linejoin:round; stroke-width:4; stroke-opacity:0.5; fill:none" points="1331.38,437.411 1331.38,1042.58 1353.92,1042.58 1353.92,437.411 1331.38,437.411 "/>
<path clip-path="url(#clip662)" d="M1359.56 525.9 L1359.56 1042.58 L1382.1 1042.58 L1382.1 525.9 L1359.56 525.9 L1359.56 525.9  Z" fill="#009af9" fill-rule="evenodd" fill-opacity="0.5"/>
<polyline clip-path="url(#clip662)" style="stroke:#000000; stroke-linecap:round; stroke-linejoin:round; stroke-width:4; stroke-opacity:0.5; fill:none" points="1359.56,525.9 1359.56,1042.58 1382.1,1042.58 1382.1,525.9 1359.56,525.9 "/>
<path clip-path="url(#clip662)" d="M1387.74 466.113 L1387.74 1042.58 L1410.28 1042.58 L1410.28 466.113 L1387.74 466.113 L1387.74 466.113  Z" fill="#009af9" fill-rule="evenodd" fill-opacity="0.5"/>
<polyline clip-path="url(#clip662)" style="stroke:#000000; stroke-linecap:round; stroke-linejoin:round; stroke-width:4; stroke-opacity:0.5; fill:none" points="1387.74,466.113 1387.74,1042.58 1410.28,1042.58 1410.28,466.113 1387.74,466.113 "/>
<path clip-path="url(#clip662)" d="M1415.92 397.316 L1415.92 1042.58 L1438.46 1042.58 L1438.46 397.316 L1415.92 397.316 L1415.92 397.316  Z" fill="#009af9" fill-rule="evenodd" fill-opacity="0.5"/>
<polyline clip-path="url(#clip662)" style="stroke:#000000; stroke-linecap:round; stroke-linejoin:round; stroke-width:4; stroke-opacity:0.5; fill:none" points="1415.92,397.316 1415.92,1042.58 1438.46,1042.58 1438.46,397.316 1415.92,397.316 "/>
<path clip-path="url(#clip662)" d="M1444.1 110.236 L1444.1 1042.58 L1466.64 1042.58 L1466.64 110.236 L1444.1 110.236 L1444.1 110.236  Z" fill="#009af9" fill-rule="evenodd" fill-opacity="0.5"/>
<polyline clip-path="url(#clip662)" style="stroke:#000000; stroke-linecap:round; stroke-linejoin:round; stroke-width:4; stroke-opacity:0.5; fill:none" points="1444.1,110.236 1444.1,1042.58 1466.64,1042.58 1466.64,110.236 1444.1,110.236 "/>
<path clip-path="url(#clip662)" d="M1472.28 512.393 L1472.28 1042.58 L1494.82 1042.58 L1494.82 512.393 L1472.28 512.393 L1472.28 512.393  Z" fill="#009af9" fill-rule="evenodd" fill-opacity="0.5"/>
<polyline clip-path="url(#clip662)" style="stroke:#000000; stroke-linecap:round; stroke-linejoin:round; stroke-width:4; stroke-opacity:0.5; fill:none" points="1472.28,512.393 1472.28,1042.58 1494.82,1042.58 1494.82,512.393 1472.28,512.393 "/>
<path clip-path="url(#clip662)" d="M1500.45 512.393 L1500.45 1042.58 L1523 1042.58 L1523 512.393 L1500.45 512.393 L1500.45 512.393  Z" fill="#009af9" fill-rule="evenodd" fill-opacity="0.5"/>
<polyline clip-path="url(#clip662)" style="stroke:#000000; stroke-linecap:round; stroke-linejoin:round; stroke-width:4; stroke-opacity:0.5; fill:none" points="1500.45,512.393 1500.45,1042.58 1523,1042.58 1523,512.393 1500.45,512.393 "/>
<path clip-path="url(#clip662)" d="M1528.63 556.08 L1528.63 1042.58 L1551.18 1042.58 L1551.18 556.08 L1528.63 556.08 L1528.63 556.08  Z" fill="#009af9" fill-rule="evenodd" fill-opacity="0.5"/>
<polyline clip-path="url(#clip662)" style="stroke:#000000; stroke-linecap:round; stroke-linejoin:round; stroke-width:4; stroke-opacity:0.5; fill:none" points="1528.63,556.08 1528.63,1042.58 1551.18,1042.58 1551.18,556.08 1528.63,556.08 "/>
<path clip-path="url(#clip662)" d="M1556.81 661.605 L1556.81 1042.58 L1579.36 1042.58 L1579.36 661.605 L1556.81 661.605 L1556.81 661.605  Z" fill="#009af9" fill-rule="evenodd" fill-opacity="0.5"/>
<polyline clip-path="url(#clip662)" style="stroke:#000000; stroke-linecap:round; stroke-linejoin:round; stroke-width:4; stroke-opacity:0.5; fill:none" points="1556.81,661.605 1556.81,1042.58 1579.36,1042.58 1579.36,661.605 1556.81,661.605 "/>
<path clip-path="url(#clip662)" d="M1584.99 428.708 L1584.99 1042.58 L1607.54 1042.58 L1607.54 428.708 L1584.99 428.708 L1584.99 428.708  Z" fill="#009af9" fill-rule="evenodd" fill-opacity="0.5"/>
<polyline clip-path="url(#clip662)" style="stroke:#000000; stroke-linecap:round; stroke-linejoin:round; stroke-width:4; stroke-opacity:0.5; fill:none" points="1584.99,428.708 1584.99,1042.58 1607.54,1042.58 1607.54,428.708 1584.99,428.708 "/>
<path clip-path="url(#clip662)" d="M1613.17 370.269 L1613.17 1042.58 L1635.71 1042.58 L1635.71 370.269 L1613.17 370.269 L1613.17 370.269  Z" fill="#009af9" fill-rule="evenodd" fill-opacity="0.5"/>
<polyline clip-path="url(#clip662)" style="stroke:#000000; stroke-linecap:round; stroke-linejoin:round; stroke-width:4; stroke-opacity:0.5; fill:none" points="1613.17,370.269 1613.17,1042.58 1635.71,1042.58 1635.71,370.269 1613.17,370.269 "/>
<path clip-path="url(#clip662)" d="M1641.35 231.432 L1641.35 1042.58 L1663.89 1042.58 L1663.89 231.432 L1641.35 231.432 L1641.35 231.432  Z" fill="#009af9" fill-rule="evenodd" fill-opacity="0.5"/>
<polyline clip-path="url(#clip662)" style="stroke:#000000; stroke-linecap:round; stroke-linejoin:round; stroke-width:4; stroke-opacity:0.5; fill:none" points="1641.35,231.432 1641.35,1042.58 1663.89,1042.58 1663.89,231.432 1641.35,231.432 "/>
<path clip-path="url(#clip662)" d="M1669.53 456.071 L1669.53 1042.58 L1692.07 1042.58 L1692.07 456.071 L1669.53 456.071 L1669.53 456.071  Z" fill="#009af9" fill-rule="evenodd" fill-opacity="0.5"/>
<polyline clip-path="url(#clip662)" style="stroke:#000000; stroke-linecap:round; stroke-linejoin:round; stroke-width:4; stroke-opacity:0.5; fill:none" points="1669.53,456.071 1669.53,1042.58 1692.07,1042.58 1692.07,456.071 1669.53,456.071 "/>
<path clip-path="url(#clip662)" d="M1697.71 487.889 L1697.71 1042.58 L1720.25 1042.58 L1720.25 487.889 L1697.71 487.889 L1697.71 487.889  Z" fill="#009af9" fill-rule="evenodd" fill-opacity="0.5"/>
<polyline clip-path="url(#clip662)" style="stroke:#000000; stroke-linecap:round; stroke-linejoin:round; stroke-width:4; stroke-opacity:0.5; fill:none" points="1697.71,487.889 1697.71,1042.58 1720.25,1042.58 1720.25,487.889 1697.71,487.889 "/>
<path clip-path="url(#clip662)" d="M1725.89 661.605 L1725.89 1042.58 L1748.43 1042.58 L1748.43 661.605 L1725.89 661.605 L1725.89 661.605  Z" fill="#009af9" fill-rule="evenodd" fill-opacity="0.5"/>
<polyline clip-path="url(#clip662)" style="stroke:#000000; stroke-linecap:round; stroke-linejoin:round; stroke-width:4; stroke-opacity:0.5; fill:none" points="1725.89,661.605 1725.89,1042.58 1748.43,1042.58 1748.43,661.605 1725.89,661.605 "/>
<path clip-path="url(#clip662)" d="M1754.07 556.08 L1754.07 1042.58 L1776.61 1042.58 L1776.61 556.08 L1754.07 556.08 L1754.07 556.08  Z" fill="#009af9" fill-rule="evenodd" fill-opacity="0.5"/>
<polyline clip-path="url(#clip662)" style="stroke:#000000; stroke-linecap:round; stroke-linejoin:round; stroke-width:4; stroke-opacity:0.5; fill:none" points="1754.07,556.08 1754.07,1042.58 1776.61,1042.58 1776.61,556.08 1754.07,556.08 "/>
<path clip-path="url(#clip662)" d="M1782.25 556.08 L1782.25 1042.58 L1804.79 1042.58 L1804.79 556.08 L1782.25 556.08 L1782.25 556.08  Z" fill="#009af9" fill-rule="evenodd" fill-opacity="0.5"/>
<polyline clip-path="url(#clip662)" style="stroke:#000000; stroke-linecap:round; stroke-linejoin:round; stroke-width:4; stroke-opacity:0.5; fill:none" points="1782.25,556.08 1782.25,1042.58 1804.79,1042.58 1804.79,556.08 1782.25,556.08 "/>
<path clip-path="url(#clip662)" d="M1810.43 420.376 L1810.43 1042.58 L1832.97 1042.58 L1832.97 420.376 L1810.43 420.376 L1810.43 420.376  Z" fill="#009af9" fill-rule="evenodd" fill-opacity="0.5"/>
<polyline clip-path="url(#clip662)" style="stroke:#000000; stroke-linecap:round; stroke-linejoin:round; stroke-width:4; stroke-opacity:0.5; fill:none" points="1810.43,420.376 1810.43,1042.58 1832.97,1042.58 1832.97,420.376 1810.43,420.376 "/>
<path clip-path="url(#clip662)" d="M1838.61 428.708 L1838.61 1042.58 L1861.15 1042.58 L1861.15 428.708 L1838.61 428.708 L1838.61 428.708  Z" fill="#009af9" fill-rule="evenodd" fill-opacity="0.5"/>
<polyline clip-path="url(#clip662)" style="stroke:#000000; stroke-linecap:round; stroke-linejoin:round; stroke-width:4; stroke-opacity:0.5; fill:none" points="1838.61,428.708 1838.61,1042.58 1861.15,1042.58 1861.15,428.708 1838.61,428.708 "/>
<path clip-path="url(#clip662)" d="M1866.78 525.9 L1866.78 1042.58 L1889.33 1042.58 L1889.33 525.9 L1866.78 525.9 L1866.78 525.9  Z" fill="#009af9" fill-rule="evenodd" fill-opacity="0.5"/>
<polyline clip-path="url(#clip662)" style="stroke:#000000; stroke-linecap:round; stroke-linejoin:round; stroke-width:4; stroke-opacity:0.5; fill:none" points="1866.78,525.9 1866.78,1042.58 1889.33,1042.58 1889.33,525.9 1866.78,525.9 "/>
<path clip-path="url(#clip662)" d="M1894.96 591.775 L1894.96 1042.58 L1917.51 1042.58 L1917.51 591.775 L1894.96 591.775 L1894.96 591.775  Z" fill="#009af9" fill-rule="evenodd" fill-opacity="0.5"/>
<polyline clip-path="url(#clip662)" style="stroke:#000000; stroke-linecap:round; stroke-linejoin:round; stroke-width:4; stroke-opacity:0.5; fill:none" points="1894.96,591.775 1894.96,1042.58 1917.51,1042.58 1917.51,591.775 1894.96,591.775 "/>
<path clip-path="url(#clip662)" d="M1923.14 512.393 L1923.14 1042.58 L1945.69 1042.58 L1945.69 512.393 L1923.14 512.393 L1923.14 512.393  Z" fill="#009af9" fill-rule="evenodd" fill-opacity="0.5"/>
<polyline clip-path="url(#clip662)" style="stroke:#000000; stroke-linecap:round; stroke-linejoin:round; stroke-width:4; stroke-opacity:0.5; fill:none" points="1923.14,512.393 1923.14,1042.58 1945.69,1042.58 1945.69,512.393 1923.14,512.393 "/>
<path clip-path="url(#clip662)" d="M1951.32 612.403 L1951.32 1042.58 L1973.87 1042.58 L1973.87 612.403 L1951.32 612.403 L1951.32 612.403  Z" fill="#009af9" fill-rule="evenodd" fill-opacity="0.5"/>
<polyline clip-path="url(#clip662)" style="stroke:#000000; stroke-linecap:round; stroke-linejoin:round; stroke-width:4; stroke-opacity:0.5; fill:none" points="1951.32,612.403 1951.32,1042.58 1973.87,1042.58 1973.87,612.403 1951.32,612.403 "/>
<path clip-path="url(#clip662)" d="M1979.5 906.871 L1979.5 1042.58 L2002.04 1042.58 L2002.04 906.871 L1979.5 906.871 L1979.5 906.871  Z" fill="#009af9" fill-rule="evenodd" fill-opacity="0.5"/>
<polyline clip-path="url(#clip662)" style="stroke:#000000; stroke-linecap:round; stroke-linejoin:round; stroke-width:4; stroke-opacity:0.5; fill:none" points="1979.5,906.871 1979.5,1042.58 2002.04,1042.58 2002.04,906.871 1979.5,906.871 "/>
<path clip-path="url(#clip662)" d="M2007.68 540.409 L2007.68 1042.58 L2030.22 1042.58 L2030.22 540.409 L2007.68 540.409 L2007.68 540.409  Z" fill="#009af9" fill-rule="evenodd" fill-opacity="0.5"/>
<polyline clip-path="url(#clip662)" style="stroke:#000000; stroke-linecap:round; stroke-linejoin:round; stroke-width:4; stroke-opacity:0.5; fill:none" points="2007.68,540.409 2007.68,1042.58 2030.22,1042.58 2030.22,540.409 2007.68,540.409 "/>
<path clip-path="url(#clip662)" d="M2035.86 556.08 L2035.86 1042.58 L2058.4 1042.58 L2058.4 556.08 L2035.86 556.08 L2035.86 556.08  Z" fill="#009af9" fill-rule="evenodd" fill-opacity="0.5"/>
<polyline clip-path="url(#clip662)" style="stroke:#000000; stroke-linecap:round; stroke-linejoin:round; stroke-width:4; stroke-opacity:0.5; fill:none" points="2035.86,556.08 2035.86,1042.58 2058.4,1042.58 2058.4,556.08 2035.86,556.08 "/>
<path clip-path="url(#clip662)" d="M2064.04 906.871 L2064.04 1042.58 L2086.58 1042.58 L2086.58 906.871 L2064.04 906.871 L2064.04 906.871  Z" fill="#009af9" fill-rule="evenodd" fill-opacity="0.5"/>
<polyline clip-path="url(#clip662)" style="stroke:#000000; stroke-linecap:round; stroke-linejoin:round; stroke-width:4; stroke-opacity:0.5; fill:none" points="2064.04,906.871 2064.04,1042.58 2086.58,1042.58 2086.58,906.871 2064.04,906.871 "/>
<path clip-path="url(#clip662)" d="M2092.22 771.167 L2092.22 1042.58 L2114.76 1042.58 L2114.76 771.167 L2092.22 771.167 L2092.22 771.167  Z" fill="#009af9" fill-rule="evenodd" fill-opacity="0.5"/>
<polyline clip-path="url(#clip662)" style="stroke:#000000; stroke-linecap:round; stroke-linejoin:round; stroke-width:4; stroke-opacity:0.5; fill:none" points="2092.22,771.167 2092.22,1042.58 2114.76,1042.58 2114.76,771.167 2092.22,771.167 "/>
<path clip-path="url(#clip662)" d="M2120.4 827.489 L2120.4 1042.58 L2142.94 1042.58 L2142.94 827.489 L2120.4 827.489 L2120.4 827.489  Z" fill="#009af9" fill-rule="evenodd" fill-opacity="0.5"/>
<polyline clip-path="url(#clip662)" style="stroke:#000000; stroke-linecap:round; stroke-linejoin:round; stroke-width:4; stroke-opacity:0.5; fill:none" points="2120.4,827.489 2120.4,1042.58 2142.94,1042.58 2142.94,827.489 2120.4,827.489 "/>
<path clip-path="url(#clip662)" d="M2148.58 771.167 L2148.58 1042.58 L2171.12 1042.58 L2171.12 771.167 L2148.58 771.167 L2148.58 771.167  Z" fill="#009af9" fill-rule="evenodd" fill-opacity="0.5"/>
<polyline clip-path="url(#clip662)" style="stroke:#000000; stroke-linecap:round; stroke-linejoin:round; stroke-width:4; stroke-opacity:0.5; fill:none" points="2148.58,771.167 2148.58,1042.58 2171.12,1042.58 2171.12,771.167 2148.58,771.167 "/>
<path clip-path="url(#clip662)" d="M2176.76 691.785 L2176.76 1042.58 L2199.3 1042.58 L2199.3 691.785 L2176.76 691.785 L2176.76 691.785  Z" fill="#009af9" fill-rule="evenodd" fill-opacity="0.5"/>
<polyline clip-path="url(#clip662)" style="stroke:#000000; stroke-linecap:round; stroke-linejoin:round; stroke-width:4; stroke-opacity:0.5; fill:none" points="2176.76,691.785 2176.76,1042.58 2199.3,1042.58 2199.3,691.785 2176.76,691.785 "/>
<path clip-path="url(#clip662)" d="M2204.94 635.462 L2204.94 1042.58 L2227.48 1042.58 L2227.48 635.462 L2204.94 635.462 L2204.94 635.462  Z" fill="#009af9" fill-rule="evenodd" fill-opacity="0.5"/>
<polyline clip-path="url(#clip662)" style="stroke:#000000; stroke-linecap:round; stroke-linejoin:round; stroke-width:4; stroke-opacity:0.5; fill:none" points="2204.94,635.462 2204.94,1042.58 2227.48,1042.58 2227.48,635.462 2204.94,635.462 "/>
<path clip-path="url(#clip662)" d="M2233.11 771.167 L2233.11 1042.58 L2255.66 1042.58 L2255.66 771.167 L2233.11 771.167 L2233.11 771.167  Z" fill="#009af9" fill-rule="evenodd" fill-opacity="0.5"/>
<polyline clip-path="url(#clip662)" style="stroke:#000000; stroke-linecap:round; stroke-linejoin:round; stroke-width:4; stroke-opacity:0.5; fill:none" points="2233.11,771.167 2233.11,1042.58 2255.66,1042.58 2255.66,771.167 2233.11,771.167 "/>
<path clip-path="url(#clip662)" d="M2261.29 691.785 L2261.29 1042.58 L2283.84 1042.58 L2283.84 691.785 L2261.29 691.785 L2261.29 691.785  Z" fill="#009af9" fill-rule="evenodd" fill-opacity="0.5"/>
<polyline clip-path="url(#clip662)" style="stroke:#000000; stroke-linecap:round; stroke-linejoin:round; stroke-width:4; stroke-opacity:0.5; fill:none" points="2261.29,691.785 2261.29,1042.58 2283.84,1042.58 2283.84,691.785 2261.29,691.785 "/>
<path clip-path="url(#clip662)" d="M2317.65 1042.58 L2317.65 1042.58 L2340.2 1042.58 L2340.2 1042.58 L2317.65 1042.58 L2317.65 1042.58  Z" fill="#009af9" fill-rule="evenodd" fill-opacity="0.5"/>
<polyline clip-path="url(#clip662)" style="stroke:#000000; stroke-linecap:round; stroke-linejoin:round; stroke-width:4; stroke-opacity:0.5; fill:none" points="2317.65,1042.58 2317.65,1042.58 2340.2,1042.58 2317.65,1042.58 "/>
<path clip-path="url(#clip662)" d="M2345.83 906.871 L2345.83 1042.58 L2368.38 1042.58 L2368.38 906.871 L2345.83 906.871 L2345.83 906.871  Z" fill="#009af9" fill-rule="evenodd" fill-opacity="0.5"/>
<polyline clip-path="url(#clip662)" style="stroke:#000000; stroke-linecap:round; stroke-linejoin:round; stroke-width:4; stroke-opacity:0.5; fill:none" points="2345.83,906.871 2345.83,1042.58 2368.38,1042.58 2368.38,906.871 2345.83,906.871 "/>
<path clip-path="url(#clip662)" d="M2402.19 661.605 L2402.19 1042.58 L2424.73 1042.58 L2424.73 661.605 L2402.19 661.605 L2402.19 661.605  Z" fill="#009af9" fill-rule="evenodd" fill-opacity="0.5"/>
<polyline clip-path="url(#clip662)" style="stroke:#000000; stroke-linecap:round; stroke-linejoin:round; stroke-width:4; stroke-opacity:0.5; fill:none" points="2402.19,661.605 2402.19,1042.58 2424.73,1042.58 2424.73,661.605 2402.19,661.605 "/>
<path clip-path="url(#clip662)" d="M2430.37 1042.58 L2430.37 1042.58 L2452.91 1042.58 L2452.91 1042.58 L2430.37 1042.58 L2430.37 1042.58  Z" fill="#009af9" fill-rule="evenodd" fill-opacity="0.5"/>
<polyline clip-path="url(#clip662)" style="stroke:#000000; stroke-linecap:round; stroke-linejoin:round; stroke-width:4; stroke-opacity:0.5; fill:none" points="2430.37,1042.58 2430.37,1042.58 2452.91,1042.58 2430.37,1042.58 "/>
<path clip-path="url(#clip662)" d="M2486.73 1042.58 L2486.73 1042.58 L2509.27 1042.58 L2509.27 1042.58 L2486.73 1042.58 L2486.73 1042.58  Z" fill="#009af9" fill-rule="evenodd" fill-opacity="0.5"/>
<polyline clip-path="url(#clip662)" style="stroke:#000000; stroke-linecap:round; stroke-linejoin:round; stroke-width:4; stroke-opacity:0.5; fill:none" points="2486.73,1042.58 2486.73,1042.58 2509.27,1042.58 2486.73,1042.58 "/>
<path clip-path="url(#clip662)" d="M2514.91 1042.58 L2514.91 1042.58 L2537.45 1042.58 L2537.45 1042.58 L2514.91 1042.58 L2514.91 1042.58  Z" fill="#009af9" fill-rule="evenodd" fill-opacity="0.5"/>
<polyline clip-path="url(#clip662)" style="stroke:#000000; stroke-linecap:round; stroke-linejoin:round; stroke-width:4; stroke-opacity:0.5; fill:none" points="2514.91,1042.58 2514.91,1042.58 2537.45,1042.58 2514.91,1042.58 "/>
<path clip-path="url(#clip662)" d="M2543.09 1042.58 L2543.09 1042.58 L2565.63 1042.58 L2565.63 1042.58 L2543.09 1042.58 L2543.09 1042.58  Z" fill="#009af9" fill-rule="evenodd" fill-opacity="0.5"/>
<polyline clip-path="url(#clip662)" style="stroke:#000000; stroke-linecap:round; stroke-linejoin:round; stroke-width:4; stroke-opacity:0.5; fill:none" points="2543.09,1042.58 2543.09,1042.58 2565.63,1042.58 2543.09,1042.58 "/>
<path clip-path="url(#clip662)" d="M2571.27 1042.58 L2571.27 1042.58 L2593.81 1042.58 L2593.81 1042.58 L2571.27 1042.58 L2571.27 1042.58  Z" fill="#009af9" fill-rule="evenodd" fill-opacity="0.5"/>
<polyline clip-path="url(#clip662)" style="stroke:#000000; stroke-linecap:round; stroke-linejoin:round; stroke-width:4; stroke-opacity:0.5; fill:none" points="2571.27,1042.58 2571.27,1042.58 2593.81,1042.58 2571.27,1042.58 "/>
<path clip-path="url(#clip662)" d="M2599.44 906.871 L2599.44 1042.58 L2621.99 1042.58 L2621.99 906.871 L2599.44 906.871 L2599.44 906.871  Z" fill="#009af9" fill-rule="evenodd" fill-opacity="0.5"/>
<polyline clip-path="url(#clip662)" style="stroke:#000000; stroke-linecap:round; stroke-linejoin:round; stroke-width:4; stroke-opacity:0.5; fill:none" points="2599.44,906.871 2599.44,1042.58 2621.99,1042.58 2621.99,906.871 2599.44,906.871 "/>
<path clip-path="url(#clip662)" d="M2627.62 906.871 L2627.62 1042.58 L2650.17 1042.58 L2650.17 906.871 L2627.62 906.871 L2627.62 906.871  Z" fill="#009af9" fill-rule="evenodd" fill-opacity="0.5"/>
<polyline clip-path="url(#clip662)" style="stroke:#000000; stroke-linecap:round; stroke-linejoin:round; stroke-width:4; stroke-opacity:0.5; fill:none" points="2627.62,906.871 2627.62,1042.58 2650.17,1042.58 2650.17,906.871 2627.62,906.871 "/>
<path clip-path="url(#clip662)" d="M2655.8 1042.58 L2655.8 1042.58 L2678.35 1042.58 L2678.35 1042.58 L2655.8 1042.58 L2655.8 1042.58  Z" fill="#009af9" fill-rule="evenodd" fill-opacity="0.5"/>
<polyline clip-path="url(#clip662)" style="stroke:#000000; stroke-linecap:round; stroke-linejoin:round; stroke-width:4; stroke-opacity:0.5; fill:none" points="2655.8,1042.58 2655.8,1042.58 2678.35,1042.58 2655.8,1042.58 "/>
<circle clip-path="url(#clip662)" style="fill:#009af9; stroke:none; fill-opacity:0" cx="300.018" cy="487.889" r="2"/>
<circle clip-path="url(#clip662)" style="fill:#009af9; stroke:none; fill-opacity:0" cx="328.198" cy="661.605" r="2"/>
<circle clip-path="url(#clip662)" style="fill:#009af9; stroke:none; fill-opacity:0" cx="356.377" cy="573.115" r="2"/>
<circle clip-path="url(#clip662)" style="fill:#009af9; stroke:none; fill-opacity:0" cx="384.556" cy="591.775" r="2"/>
<circle clip-path="url(#clip662)" style="fill:#009af9; stroke:none; fill-opacity:0" cx="412.735" cy="635.462" r="2"/>
<circle clip-path="url(#clip662)" style="fill:#009af9; stroke:none; fill-opacity:0" cx="440.915" cy="456.071" r="2"/>
<circle clip-path="url(#clip662)" style="fill:#009af9; stroke:none; fill-opacity:0" cx="469.094" cy="591.775" r="2"/>
<circle clip-path="url(#clip662)" style="fill:#009af9; stroke:none; fill-opacity:0" cx="497.273" cy="512.393" r="2"/>
<circle clip-path="url(#clip662)" style="fill:#009af9; stroke:none; fill-opacity:0" cx="525.452" cy="525.9" r="2"/>
<circle clip-path="url(#clip662)" style="fill:#009af9; stroke:none; fill-opacity:0" cx="553.632" cy="512.393" r="2"/>
<circle clip-path="url(#clip662)" style="fill:#009af9; stroke:none; fill-opacity:0" cx="581.811" cy="573.115" r="2"/>
<circle clip-path="url(#clip662)" style="fill:#009af9; stroke:none; fill-opacity:0" cx="609.99" cy="661.605" r="2"/>
<circle clip-path="url(#clip662)" style="fill:#009af9; stroke:none; fill-opacity:0" cx="638.169" cy="525.9" r="2"/>
<circle clip-path="url(#clip662)" style="fill:#009af9; stroke:none; fill-opacity:0" cx="666.349" cy="499.758" r="2"/>
<circle clip-path="url(#clip662)" style="fill:#009af9; stroke:none; fill-opacity:0" cx="694.528" cy="612.403" r="2"/>
<circle clip-path="url(#clip662)" style="fill:#009af9; stroke:none; fill-opacity:0" cx="722.707" cy="691.785" r="2"/>
<circle clip-path="url(#clip662)" style="fill:#009af9; stroke:none; fill-opacity:0" cx="750.886" cy="512.393" r="2"/>
<circle clip-path="url(#clip662)" style="fill:#009af9; stroke:none; fill-opacity:0" cx="779.066" cy="635.462" r="2"/>
<circle clip-path="url(#clip662)" style="fill:#009af9; stroke:none; fill-opacity:0" cx="807.245" cy="456.071" r="2"/>
<circle clip-path="url(#clip662)" style="fill:#009af9; stroke:none; fill-opacity:0" cx="835.424" cy="404.705" r="2"/>
<circle clip-path="url(#clip662)" style="fill:#009af9; stroke:none; fill-opacity:0" cx="863.603" cy="556.08" r="2"/>
<circle clip-path="url(#clip662)" style="fill:#009af9; stroke:none; fill-opacity:0" cx="891.783" cy="635.462" r="2"/>
<circle clip-path="url(#clip662)" style="fill:#009af9; stroke:none; fill-opacity:0" cx="919.962" cy="691.785" r="2"/>
<circle clip-path="url(#clip662)" style="fill:#009af9; stroke:none; fill-opacity:0" cx="948.141" cy="556.08" r="2"/>
<circle clip-path="url(#clip662)" style="fill:#009af9; stroke:none; fill-opacity:0" cx="976.32" cy="540.409" r="2"/>
<circle clip-path="url(#clip662)" style="fill:#009af9; stroke:none; fill-opacity:0" cx="1004.5" cy="512.393" r="2"/>
<circle clip-path="url(#clip662)" style="fill:#009af9; stroke:none; fill-opacity:0" cx="1032.68" cy="437.411" r="2"/>
<circle clip-path="url(#clip662)" style="fill:#009af9; stroke:none; fill-opacity:0" cx="1060.86" cy="512.393" r="2"/>
<circle clip-path="url(#clip662)" style="fill:#009af9; stroke:none; fill-opacity:0" cx="1089.04" cy="727.48" r="2"/>
<circle clip-path="url(#clip662)" style="fill:#009af9; stroke:none; fill-opacity:0" cx="1117.22" cy="635.462" r="2"/>
<circle clip-path="url(#clip662)" style="fill:#009af9; stroke:none; fill-opacity:0" cx="1145.4" cy="556.08" r="2"/>
<circle clip-path="url(#clip662)" style="fill:#009af9; stroke:none; fill-opacity:0" cx="1173.58" cy="727.48" r="2"/>
<circle clip-path="url(#clip662)" style="fill:#009af9; stroke:none; fill-opacity:0" cx="1201.75" cy="525.9" r="2"/>
<circle clip-path="url(#clip662)" style="fill:#009af9; stroke:none; fill-opacity:0" cx="1229.93" cy="335.629" r="2"/>
<circle clip-path="url(#clip662)" style="fill:#009af9; stroke:none; fill-opacity:0" cx="1258.11" cy="420.376" r="2"/>
<circle clip-path="url(#clip662)" style="fill:#009af9; stroke:none; fill-opacity:0" cx="1286.29" cy="612.403" r="2"/>
<circle clip-path="url(#clip662)" style="fill:#009af9; stroke:none; fill-opacity:0" cx="1314.47" cy="591.775" r="2"/>
<circle clip-path="url(#clip662)" style="fill:#009af9; stroke:none; fill-opacity:0" cx="1342.65" cy="437.411" r="2"/>
<circle clip-path="url(#clip662)" style="fill:#009af9; stroke:none; fill-opacity:0" cx="1370.83" cy="525.9" r="2"/>
<circle clip-path="url(#clip662)" style="fill:#009af9; stroke:none; fill-opacity:0" cx="1399.01" cy="466.113" r="2"/>
<circle clip-path="url(#clip662)" style="fill:#009af9; stroke:none; fill-opacity:0" cx="1427.19" cy="397.316" r="2"/>
<circle clip-path="url(#clip662)" style="fill:#009af9; stroke:none; fill-opacity:0" cx="1455.37" cy="110.236" r="2"/>
<circle clip-path="url(#clip662)" style="fill:#009af9; stroke:none; fill-opacity:0" cx="1483.55" cy="512.393" r="2"/>
<circle clip-path="url(#clip662)" style="fill:#009af9; stroke:none; fill-opacity:0" cx="1511.73" cy="512.393" r="2"/>
<circle clip-path="url(#clip662)" style="fill:#009af9; stroke:none; fill-opacity:0" cx="1539.91" cy="556.08" r="2"/>
<circle clip-path="url(#clip662)" style="fill:#009af9; stroke:none; fill-opacity:0" cx="1568.08" cy="661.605" r="2"/>
<circle clip-path="url(#clip662)" style="fill:#009af9; stroke:none; fill-opacity:0" cx="1596.26" cy="428.708" r="2"/>
<circle clip-path="url(#clip662)" style="fill:#009af9; stroke:none; fill-opacity:0" cx="1624.44" cy="370.269" r="2"/>
<circle clip-path="url(#clip662)" style="fill:#009af9; stroke:none; fill-opacity:0" cx="1652.62" cy="231.432" r="2"/>
<circle clip-path="url(#clip662)" style="fill:#009af9; stroke:none; fill-opacity:0" cx="1680.8" cy="456.071" r="2"/>
<circle clip-path="url(#clip662)" style="fill:#009af9; stroke:none; fill-opacity:0" cx="1708.98" cy="487.889" r="2"/>
<circle clip-path="url(#clip662)" style="fill:#009af9; stroke:none; fill-opacity:0" cx="1737.16" cy="661.605" r="2"/>
<circle clip-path="url(#clip662)" style="fill:#009af9; stroke:none; fill-opacity:0" cx="1765.34" cy="556.08" r="2"/>
<circle clip-path="url(#clip662)" style="fill:#009af9; stroke:none; fill-opacity:0" cx="1793.52" cy="556.08" r="2"/>
<circle clip-path="url(#clip662)" style="fill:#009af9; stroke:none; fill-opacity:0" cx="1821.7" cy="420.376" r="2"/>
<circle clip-path="url(#clip662)" style="fill:#009af9; stroke:none; fill-opacity:0" cx="1849.88" cy="428.708" r="2"/>
<circle clip-path="url(#clip662)" style="fill:#009af9; stroke:none; fill-opacity:0" cx="1878.06" cy="525.9" r="2"/>
<circle clip-path="url(#clip662)" style="fill:#009af9; stroke:none; fill-opacity:0" cx="1906.24" cy="591.775" r="2"/>
<circle clip-path="url(#clip662)" style="fill:#009af9; stroke:none; fill-opacity:0" cx="1934.41" cy="512.393" r="2"/>
<circle clip-path="url(#clip662)" style="fill:#009af9; stroke:none; fill-opacity:0" cx="1962.59" cy="612.403" r="2"/>
<circle clip-path="url(#clip662)" style="fill:#009af9; stroke:none; fill-opacity:0" cx="1990.77" cy="906.871" r="2"/>
<circle clip-path="url(#clip662)" style="fill:#009af9; stroke:none; fill-opacity:0" cx="2018.95" cy="540.409" r="2"/>
<circle clip-path="url(#clip662)" style="fill:#009af9; stroke:none; fill-opacity:0" cx="2047.13" cy="556.08" r="2"/>
<circle clip-path="url(#clip662)" style="fill:#009af9; stroke:none; fill-opacity:0" cx="2075.31" cy="906.871" r="2"/>
<circle clip-path="url(#clip662)" style="fill:#009af9; stroke:none; fill-opacity:0" cx="2103.49" cy="771.167" r="2"/>
<circle clip-path="url(#clip662)" style="fill:#009af9; stroke:none; fill-opacity:0" cx="2131.67" cy="827.489" r="2"/>
<circle clip-path="url(#clip662)" style="fill:#009af9; stroke:none; fill-opacity:0" cx="2159.85" cy="771.167" r="2"/>
<circle clip-path="url(#clip662)" style="fill:#009af9; stroke:none; fill-opacity:0" cx="2188.03" cy="691.785" r="2"/>
<circle clip-path="url(#clip662)" style="fill:#009af9; stroke:none; fill-opacity:0" cx="2216.21" cy="635.462" r="2"/>
<circle clip-path="url(#clip662)" style="fill:#009af9; stroke:none; fill-opacity:0" cx="2244.39" cy="771.167" r="2"/>
<circle clip-path="url(#clip662)" style="fill:#009af9; stroke:none; fill-opacity:0" cx="2272.57" cy="691.785" r="2"/>
<circle clip-path="url(#clip662)" style="fill:#009af9; stroke:none; fill-opacity:0" cx="2328.92" cy="1042.58" r="2"/>
<circle clip-path="url(#clip662)" style="fill:#009af9; stroke:none; fill-opacity:0" cx="2357.1" cy="906.871" r="2"/>
<circle clip-path="url(#clip662)" style="fill:#009af9; stroke:none; fill-opacity:0" cx="2413.46" cy="661.605" r="2"/>
<circle clip-path="url(#clip662)" style="fill:#009af9; stroke:none; fill-opacity:0" cx="2441.64" cy="1042.58" r="2"/>
<circle clip-path="url(#clip662)" style="fill:#009af9; stroke:none; fill-opacity:0" cx="2498" cy="1042.58" r="2"/>
<circle clip-path="url(#clip662)" style="fill:#009af9; stroke:none; fill-opacity:0" cx="2526.18" cy="1042.58" r="2"/>
<circle clip-path="url(#clip662)" style="fill:#009af9; stroke:none; fill-opacity:0" cx="2554.36" cy="1042.58" r="2"/>
<circle clip-path="url(#clip662)" style="fill:#009af9; stroke:none; fill-opacity:0" cx="2582.54" cy="1042.58" r="2"/>
<circle clip-path="url(#clip662)" style="fill:#009af9; stroke:none; fill-opacity:0" cx="2610.72" cy="906.871" r="2"/>
<circle clip-path="url(#clip662)" style="fill:#009af9; stroke:none; fill-opacity:0" cx="2638.9" cy="906.871" r="2"/>
<circle clip-path="url(#clip662)" style="fill:#009af9; stroke:none; fill-opacity:0" cx="2667.08" cy="1042.58" r="2"/>
</svg>
