<?xml version="1.0" encoding="utf-8"?>
<svg xmlns="http://www.w3.org/2000/svg" xmlns:xlink="http://www.w3.org/1999/xlink" width="800" height="300" viewBox="0 0 3200 1200">
<defs>
  <clipPath id="clip860">
    <rect x="0" y="0" width="3200" height="1200"/>
  </clipPath>
</defs>
<path clip-path="url(#clip860)" d="M0 1200 L3200 1200 L3200 0 L0 0  Z" fill="#ffffff" fill-rule="evenodd" fill-opacity="1"/>
<defs>
  <clipPath id="clip861">
    <rect x="640" y="0" width="2241" height="1200"/>
  </clipPath>
</defs>
<path clip-path="url(#clip860)" d="M271.839 1042.58 L3089.76 1042.58 L3089.76 110.236 L271.839 110.236  Z" fill="#ffffff" fill-rule="evenodd" fill-opacity="1"/>
<defs>
  <clipPath id="clip862">
    <rect x="271" y="110" width="2819" height="933"/>
  </clipPath>
</defs>
<polyline clip-path="url(#clip862)" style="stroke:#000000; stroke-linecap:round; stroke-linejoin:round; stroke-width:2; stroke-opacity:0.1; fill:none" points="666.349,1042.58 666.349,110.236 "/>
<polyline clip-path="url(#clip862)" style="stroke:#000000; stroke-linecap:round; stroke-linejoin:round; stroke-width:2; stroke-opacity:0.1; fill:none" points="1483.55,1042.58 1483.55,110.236 "/>
<polyline clip-path="url(#clip862)" style="stroke:#000000; stroke-linecap:round; stroke-linejoin:round; stroke-width:2; stroke-opacity:0.1; fill:none" points="2357.1,1042.58 2357.1,110.236 "/>
<polyline clip-path="url(#clip860)" style="stroke:#000000; stroke-linecap:round; stroke-linejoin:round; stroke-width:4; stroke-opacity:1; fill:none" points="271.839,1042.58 3089.76,1042.58 "/>
<polyline clip-path="url(#clip860)" style="stroke:#000000; stroke-linecap:round; stroke-linejoin:round; stroke-width:4; stroke-opacity:1; fill:none" points="666.349,1042.58 666.349,1023.68 "/>
<polyline clip-path="url(#clip860)" style="stroke:#000000; stroke-linecap:round; stroke-linejoin:round; stroke-width:4; stroke-opacity:1; fill:none" points="1483.55,1042.58 1483.55,1023.68 "/>
<polyline clip-path="url(#clip860)" style="stroke:#000000; stroke-linecap:round; stroke-linejoin:round; stroke-width:4; stroke-opacity:1; fill:none" points="2357.1,1042.58 2357.1,1023.68 "/>
<path clip-path="url(#clip860)" d="M538.143 1107.44 L554.463 1107.44 L554.463 1111.38 L532.518 1111.38 L532.518 1107.44 Q535.18 1104.69 539.764 1100.06 Q544.37 1095.4 545.551 1094.06 Q547.796 1091.54 548.676 1089.8 Q549.578 1088.04 549.578 1086.35 Q549.578 1083.6 547.634 1081.86 Q545.713 1080.13 542.611 1080.13 Q540.412 1080.13 537.958 1080.89 Q535.528 1081.65 532.75 1083.2 L532.75 1078.48 Q535.574 1077.35 538.028 1076.77 Q540.481 1076.19 542.518 1076.19 Q547.889 1076.19 551.083 1078.88 Q554.277 1081.56 554.277 1086.05 Q554.277 1088.18 553.467 1090.1 Q552.68 1092 550.574 1094.59 Q549.995 1095.26 546.893 1098.48 Q543.791 1101.68 538.143 1107.44 Z" fill="#000000" fill-rule="nonzero" fill-opacity="1" /><path clip-path="url(#clip860)" d="M574.277 1079.89 Q570.666 1079.89 568.838 1083.46 Q567.032 1087 567.032 1094.13 Q567.032 1101.24 568.838 1104.8 Q570.666 1108.34 574.277 1108.34 Q577.912 1108.34 579.717 1104.8 Q581.546 1101.24 581.546 1094.13 Q581.546 1087 579.717 1083.46 Q577.912 1079.89 574.277 1079.89 M574.277 1076.19 Q580.088 1076.19 583.143 1080.8 Q586.222 1085.38 586.222 1094.13 Q586.222 1102.86 583.143 1107.46 Q580.088 1112.05 574.277 1112.05 Q568.467 1112.05 565.389 1107.46 Q562.333 1102.86 562.333 1094.13 Q562.333 1085.38 565.389 1080.8 Q568.467 1076.19 574.277 1076.19 Z" fill="#000000" fill-rule="nonzero" fill-opacity="1" /><path clip-path="url(#clip860)" d="M598.467 1107.44 L614.786 1107.44 L614.786 1111.38 L592.842 1111.38 L592.842 1107.44 Q595.504 1104.69 600.087 1100.06 Q604.694 1095.4 605.874 1094.06 Q608.12 1091.54 608.999 1089.8 Q609.902 1088.04 609.902 1086.35 Q609.902 1083.6 607.958 1081.86 Q606.036 1080.13 602.935 1080.13 Q600.736 1080.13 598.282 1080.89 Q595.851 1081.65 593.074 1083.2 L593.074 1078.48 Q595.898 1077.35 598.351 1076.77 Q600.805 1076.19 602.842 1076.19 Q608.212 1076.19 611.407 1078.88 Q614.601 1081.56 614.601 1086.05 Q614.601 1088.18 613.791 1090.1 Q613.004 1092 610.898 1094.59 Q610.319 1095.26 607.217 1098.48 Q604.115 1101.68 598.467 1107.44 Z" fill="#000000" fill-rule="nonzero" fill-opacity="1" /><path clip-path="url(#clip860)" d="M637.448 1080.89 L625.643 1099.34 L637.448 1099.34 L637.448 1080.89 M636.222 1076.82 L642.101 1076.82 L642.101 1099.34 L647.032 1099.34 L647.032 1103.23 L642.101 1103.23 L642.101 1111.38 L637.448 1111.38 L637.448 1103.23 L621.847 1103.23 L621.847 1098.71 L636.222 1076.82 Z" fill="#000000" fill-rule="nonzero" fill-opacity="1" /><path clip-path="url(#clip860)" d="M652.008 1096.49 L664.485 1096.49 L664.485 1100.29 L652.008 1100.29 L652.008 1096.49 Z" fill="#000000" fill-rule="nonzero" fill-opacity="1" /><path clip-path="url(#clip860)" d="M681.869 1079.89 Q678.258 1079.89 676.43 1083.46 Q674.624 1087 674.624 1094.13 Q674.624 1101.24 676.43 1104.8 Q678.258 1108.34 681.869 1108.34 Q685.504 1108.34 687.309 1104.8 Q689.138 1101.24 689.138 1094.13 Q689.138 1087 687.309 1083.46 Q685.504 1079.89 681.869 1079.89 M681.869 1076.19 Q687.68 1076.19 690.735 1080.8 Q693.814 1085.38 693.814 1094.13 Q693.814 1102.86 690.735 1107.46 Q687.68 1112.05 681.869 1112.05 Q676.059 1112.05 672.981 1107.46 Q669.925 1102.86 669.925 1094.13 Q669.925 1085.38 672.981 1080.8 Q676.059 1076.19 681.869 1076.19 Z" fill="#000000" fill-rule="nonzero" fill-opacity="1" /><path clip-path="url(#clip860)" d="M706.059 1107.44 L722.378 1107.44 L722.378 1111.38 L700.434 1111.38 L700.434 1107.44 Q703.096 1104.69 707.679 1100.06 Q712.286 1095.4 713.466 1094.06 Q715.712 1091.54 716.591 1089.8 Q717.494 1088.04 717.494 1086.35 Q717.494 1083.6 715.55 1081.86 Q713.628 1080.13 710.527 1080.13 Q708.328 1080.13 705.874 1080.89 Q703.443 1081.65 700.666 1083.2 L700.666 1078.48 Q703.49 1077.35 705.943 1076.77 Q708.397 1076.19 710.434 1076.19 Q715.804 1076.19 718.999 1078.88 Q722.193 1081.56 722.193 1086.05 Q722.193 1088.18 721.383 1090.1 Q720.596 1092 718.49 1094.59 Q717.911 1095.26 714.809 1098.48 Q711.707 1101.68 706.059 1107.44 Z" fill="#000000" fill-rule="nonzero" fill-opacity="1" /><path clip-path="url(#clip860)" d="M729.439 1096.49 L741.915 1096.49 L741.915 1100.29 L729.439 1100.29 L729.439 1096.49 Z" fill="#000000" fill-rule="nonzero" fill-opacity="1" /><path clip-path="url(#clip860)" d="M759.3 1079.89 Q755.688 1079.89 753.86 1083.46 Q752.054 1087 752.054 1094.13 Q752.054 1101.24 753.86 1104.8 Q755.688 1108.34 759.3 1108.34 Q762.934 1108.34 764.739 1104.8 Q766.568 1101.24 766.568 1094.13 Q766.568 1087 764.739 1083.46 Q762.934 1079.89 759.3 1079.89 M759.3 1076.19 Q765.11 1076.19 768.165 1080.8 Q771.244 1085.38 771.244 1094.13 Q771.244 1102.86 768.165 1107.46 Q765.11 1112.05 759.3 1112.05 Q753.489 1112.05 750.411 1107.46 Q747.355 1102.86 747.355 1094.13 Q747.355 1085.38 750.411 1080.8 Q753.489 1076.19 759.3 1076.19 Z" fill="#000000" fill-rule="nonzero" fill-opacity="1" /><path clip-path="url(#clip860)" d="M780.272 1107.44 L787.911 1107.44 L787.911 1081.07 L779.6 1082.74 L779.6 1078.48 L787.864 1076.82 L792.54 1076.82 L792.54 1107.44 L800.179 1107.44 L800.179 1111.38 L780.272 1111.38 L780.272 1107.44 Z" fill="#000000" fill-rule="nonzero" fill-opacity="1" /><path clip-path="url(#clip860)" d="M1355.34 1107.44 L1371.66 1107.44 L1371.66 1111.38 L1349.72 1111.38 L1349.72 1107.44 Q1352.38 1104.69 1356.96 1100.06 Q1361.57 1095.4 1362.75 1094.06 Q1364.99 1091.54 1365.87 1089.8 Q1366.78 1088.04 1366.78 1086.35 Q1366.78 1083.6 1364.83 1081.86 Q1362.91 1080.13 1359.81 1080.13 Q1357.61 1080.13 1355.16 1080.89 Q1352.73 1081.65 1349.95 1083.2 L1349.95 1078.48 Q1352.77 1077.35 1355.23 1076.77 Q1357.68 1076.19 1359.72 1076.19 Q1365.09 1076.19 1368.28 1078.88 Q1371.48 1081.56 1371.48 1086.05 Q1371.48 1088.18 1370.67 1090.1 Q1369.88 1092 1367.77 1094.59 Q1367.19 1095.26 1364.09 1098.48 Q1360.99 1101.68 1355.34 1107.44 Z" fill="#000000" fill-rule="nonzero" fill-opacity="1" /><path clip-path="url(#clip860)" d="M1391.48 1079.89 Q1387.86 1079.89 1386.04 1083.46 Q1384.23 1087 1384.23 1094.13 Q1384.23 1101.24 1386.04 1104.8 Q1387.86 1108.34 1391.48 1108.34 Q1395.11 1108.34 1396.92 1104.8 Q1398.74 1101.24 1398.74 1094.13 Q1398.74 1087 1396.92 1083.46 Q1395.11 1079.89 1391.48 1079.89 M1391.48 1076.19 Q1397.29 1076.19 1400.34 1080.8 Q1403.42 1085.38 1403.42 1094.13 Q1403.42 1102.86 1400.34 1107.46 Q1397.29 1112.05 1391.48 1112.05 Q1385.67 1112.05 1382.59 1107.46 Q1379.53 1102.86 1379.53 1094.13 Q1379.53 1085.38 1382.59 1080.8 Q1385.67 1076.19 1391.48 1076.19 Z" fill="#000000" fill-rule="nonzero" fill-opacity="1" /><path clip-path="url(#clip860)" d="M1415.67 1107.44 L1431.98 1107.44 L1431.98 1111.38 L1410.04 1111.38 L1410.04 1107.44 Q1412.7 1104.69 1417.29 1100.06 Q1421.89 1095.4 1423.07 1094.06 Q1425.32 1091.54 1426.2 1089.8 Q1427.1 1088.04 1427.1 1086.35 Q1427.1 1083.6 1425.16 1081.86 Q1423.23 1080.13 1420.13 1080.13 Q1417.93 1080.13 1415.48 1080.89 Q1413.05 1081.65 1410.27 1083.2 L1410.27 1078.48 Q1413.1 1077.35 1415.55 1076.77 Q1418 1076.19 1420.04 1076.19 Q1425.41 1076.19 1428.6 1078.88 Q1431.8 1081.56 1431.8 1086.05 Q1431.8 1088.18 1430.99 1090.1 Q1430.2 1092 1428.1 1094.59 Q1427.52 1095.26 1424.42 1098.48 Q1421.31 1101.68 1415.67 1107.44 Z" fill="#000000" fill-rule="nonzero" fill-opacity="1" /><path clip-path="url(#clip860)" d="M1454.65 1080.89 L1442.84 1099.34 L1454.65 1099.34 L1454.65 1080.89 M1453.42 1076.82 L1459.3 1076.82 L1459.3 1099.34 L1464.23 1099.34 L1464.23 1103.23 L1459.3 1103.23 L1459.3 1111.38 L1454.65 1111.38 L1454.65 1103.23 L1439.04 1103.23 L1439.04 1098.71 L1453.42 1076.82 Z" fill="#000000" fill-rule="nonzero" fill-opacity="1" /><path clip-path="url(#clip860)" d="M1469.21 1096.49 L1481.68 1096.49 L1481.68 1100.29 L1469.21 1100.29 L1469.21 1096.49 Z" fill="#000000" fill-rule="nonzero" fill-opacity="1" /><path clip-path="url(#clip860)" d="M1499.07 1079.89 Q1495.46 1079.89 1493.63 1083.46 Q1491.82 1087 1491.82 1094.13 Q1491.82 1101.24 1493.63 1104.8 Q1495.46 1108.34 1499.07 1108.34 Q1502.7 1108.34 1504.51 1104.8 Q1506.34 1101.24 1506.34 1094.13 Q1506.34 1087 1504.51 1083.46 Q1502.7 1079.89 1499.07 1079.89 M1499.07 1076.19 Q1504.88 1076.19 1507.93 1080.8 Q1511.01 1085.38 1511.01 1094.13 Q1511.01 1102.86 1507.93 1107.46 Q1504.88 1112.05 1499.07 1112.05 Q1493.26 1112.05 1490.18 1107.46 Q1487.12 1102.86 1487.12 1094.13 Q1487.12 1085.38 1490.18 1080.8 Q1493.26 1076.19 1499.07 1076.19 Z" fill="#000000" fill-rule="nonzero" fill-opacity="1" /><path clip-path="url(#clip860)" d="M1533.4 1092.74 Q1536.75 1093.46 1538.63 1095.73 Q1540.53 1098 1540.53 1101.33 Q1540.53 1106.45 1537.01 1109.25 Q1533.49 1112.05 1527.01 1112.05 Q1524.83 1112.05 1522.52 1111.61 Q1520.22 1111.19 1517.77 1110.33 L1517.77 1105.82 Q1519.72 1106.95 1522.03 1107.53 Q1524.35 1108.11 1526.87 1108.11 Q1531.27 1108.11 1533.56 1106.38 Q1535.87 1104.64 1535.87 1101.33 Q1535.87 1098.27 1533.72 1096.56 Q1531.59 1094.82 1527.77 1094.82 L1523.74 1094.82 L1523.74 1090.98 L1527.96 1090.98 Q1531.41 1090.98 1533.23 1089.62 Q1535.06 1088.23 1535.06 1085.64 Q1535.06 1082.97 1533.16 1081.56 Q1531.29 1080.13 1527.77 1080.13 Q1525.85 1080.13 1523.65 1080.54 Q1521.45 1080.96 1518.81 1081.84 L1518.81 1077.67 Q1521.47 1076.93 1523.79 1076.56 Q1526.13 1076.19 1528.19 1076.19 Q1533.51 1076.19 1536.61 1078.62 Q1539.72 1081.03 1539.72 1085.15 Q1539.72 1088.02 1538.07 1090.01 Q1536.43 1091.98 1533.4 1092.74 Z" fill="#000000" fill-rule="nonzero" fill-opacity="1" /><path clip-path="url(#clip860)" d="M1546.64 1096.49 L1559.11 1096.49 L1559.11 1100.29 L1546.64 1100.29 L1546.64 1096.49 Z" fill="#000000" fill-rule="nonzero" fill-opacity="1" /><path clip-path="url(#clip860)" d="M1576.5 1079.89 Q1572.89 1079.89 1571.06 1083.46 Q1569.25 1087 1569.25 1094.13 Q1569.25 1101.24 1571.06 1104.8 Q1572.89 1108.34 1576.5 1108.34 Q1580.13 1108.34 1581.94 1104.8 Q1583.77 1101.24 1583.77 1094.13 Q1583.77 1087 1581.94 1083.46 Q1580.13 1079.89 1576.5 1079.89 M1576.5 1076.19 Q1582.31 1076.19 1585.36 1080.8 Q1588.44 1085.38 1588.44 1094.13 Q1588.44 1102.86 1585.36 1107.46 Q1582.31 1112.05 1576.5 1112.05 Q1570.69 1112.05 1567.61 1107.46 Q1564.55 1102.86 1564.55 1094.13 Q1564.55 1085.38 1567.61 1080.8 Q1570.69 1076.19 1576.5 1076.19 Z" fill="#000000" fill-rule="nonzero" fill-opacity="1" /><path clip-path="url(#clip860)" d="M1597.47 1107.44 L1605.11 1107.44 L1605.11 1081.07 L1596.8 1082.74 L1596.8 1078.48 L1605.06 1076.82 L1609.74 1076.82 L1609.74 1107.44 L1617.38 1107.44 L1617.38 1111.38 L1597.47 1111.38 L1597.47 1107.44 Z" fill="#000000" fill-rule="nonzero" fill-opacity="1" /><path clip-path="url(#clip860)" d="M2228.9 1107.44 L2245.22 1107.44 L2245.22 1111.38 L2223.27 1111.38 L2223.27 1107.44 Q2225.94 1104.69 2230.52 1100.06 Q2235.12 1095.4 2236.31 1094.06 Q2238.55 1091.54 2239.43 1089.8 Q2240.33 1088.04 2240.33 1086.35 Q2240.33 1083.6 2238.39 1081.86 Q2236.47 1080.13 2233.37 1080.13 Q2231.17 1080.13 2228.71 1080.89 Q2226.28 1081.65 2223.5 1083.2 L2223.5 1078.48 Q2226.33 1077.35 2228.78 1076.77 Q2231.24 1076.19 2233.27 1076.19 Q2238.64 1076.19 2241.84 1078.88 Q2245.03 1081.56 2245.03 1086.05 Q2245.03 1088.18 2244.22 1090.1 Q2243.44 1092 2241.33 1094.59 Q2240.75 1095.26 2237.65 1098.48 Q2234.55 1101.68 2228.9 1107.44 Z" fill="#000000" fill-rule="nonzero" fill-opacity="1" /><path clip-path="url(#clip860)" d="M2265.03 1079.89 Q2261.42 1079.89 2259.59 1083.46 Q2257.79 1087 2257.79 1094.13 Q2257.79 1101.24 2259.59 1104.8 Q2261.42 1108.34 2265.03 1108.34 Q2268.67 1108.34 2270.47 1104.8 Q2272.3 1101.24 2272.3 1094.13 Q2272.3 1087 2270.47 1083.46 Q2268.67 1079.89 2265.03 1079.89 M2265.03 1076.19 Q2270.84 1076.19 2273.9 1080.8 Q2276.98 1085.38 2276.98 1094.13 Q2276.98 1102.86 2273.9 1107.46 Q2270.84 1112.05 2265.03 1112.05 Q2259.22 1112.05 2256.14 1107.46 Q2253.09 1102.86 2253.09 1094.13 Q2253.09 1085.38 2256.14 1080.8 Q2259.22 1076.19 2265.03 1076.19 Z" fill="#000000" fill-rule="nonzero" fill-opacity="1" /><path clip-path="url(#clip860)" d="M2289.22 1107.44 L2305.54 1107.44 L2305.54 1111.38 L2283.6 1111.38 L2283.6 1107.44 Q2286.26 1104.69 2290.84 1100.06 Q2295.45 1095.4 2296.63 1094.06 Q2298.87 1091.54 2299.75 1089.8 Q2300.66 1088.04 2300.66 1086.35 Q2300.66 1083.6 2298.71 1081.86 Q2296.79 1080.13 2293.69 1080.13 Q2291.49 1080.13 2289.04 1080.89 Q2286.61 1081.65 2283.83 1083.2 L2283.83 1078.48 Q2286.65 1077.35 2289.11 1076.77 Q2291.56 1076.19 2293.6 1076.19 Q2298.97 1076.19 2302.16 1078.88 Q2305.36 1081.56 2305.36 1086.05 Q2305.36 1088.18 2304.55 1090.1 Q2303.76 1092 2301.65 1094.59 Q2301.07 1095.26 2297.97 1098.48 Q2294.87 1101.68 2289.22 1107.44 Z" fill="#000000" fill-rule="nonzero" fill-opacity="1" /><path clip-path="url(#clip860)" d="M2328.2 1080.89 L2316.4 1099.34 L2328.2 1099.34 L2328.2 1080.89 M2326.98 1076.82 L2332.86 1076.82 L2332.86 1099.34 L2337.79 1099.34 L2337.79 1103.23 L2332.86 1103.23 L2332.86 1111.38 L2328.2 1111.38 L2328.2 1103.23 L2312.6 1103.23 L2312.6 1098.71 L2326.98 1076.82 Z" fill="#000000" fill-rule="nonzero" fill-opacity="1" /><path clip-path="url(#clip860)" d="M2342.76 1096.49 L2355.24 1096.49 L2355.24 1100.29 L2342.76 1100.29 L2342.76 1096.49 Z" fill="#000000" fill-rule="nonzero" fill-opacity="1" /><path clip-path="url(#clip860)" d="M2372.62 1079.89 Q2369.01 1079.89 2367.18 1083.46 Q2365.38 1087 2365.38 1094.13 Q2365.38 1101.24 2367.18 1104.8 Q2369.01 1108.34 2372.62 1108.34 Q2376.26 1108.34 2378.06 1104.8 Q2379.89 1101.24 2379.89 1094.13 Q2379.89 1087 2378.06 1083.46 Q2376.26 1079.89 2372.62 1079.89 M2372.62 1076.19 Q2378.43 1076.19 2381.49 1080.8 Q2384.57 1085.38 2384.57 1094.13 Q2384.57 1102.86 2381.49 1107.46 Q2378.43 1112.05 2372.62 1112.05 Q2366.81 1112.05 2363.74 1107.46 Q2360.68 1102.86 2360.68 1094.13 Q2360.68 1085.38 2363.74 1080.8 Q2366.81 1076.19 2372.62 1076.19 Z" fill="#000000" fill-rule="nonzero" fill-opacity="1" /><path clip-path="url(#clip860)" d="M2405.63 1080.89 L2393.83 1099.34 L2405.63 1099.34 L2405.63 1080.89 M2404.41 1076.82 L2410.29 1076.82 L2410.29 1099.34 L2415.22 1099.34 L2415.22 1103.23 L2410.29 1103.23 L2410.29 1111.38 L2405.63 1111.38 L2405.63 1103.23 L2390.03 1103.23 L2390.03 1098.71 L2404.41 1076.82 Z" fill="#000000" fill-rule="nonzero" fill-opacity="1" /><path clip-path="url(#clip860)" d="M2420.19 1096.49 L2432.67 1096.49 L2432.67 1100.29 L2420.19 1100.29 L2420.19 1096.49 Z" fill="#000000" fill-rule="nonzero" fill-opacity="1" /><path clip-path="url(#clip860)" d="M2450.05 1079.89 Q2446.44 1079.89 2444.61 1083.46 Q2442.81 1087 2442.81 1094.13 Q2442.81 1101.24 2444.61 1104.8 Q2446.44 1108.34 2450.05 1108.34 Q2453.69 1108.34 2455.49 1104.8 Q2457.32 1101.24 2457.32 1094.13 Q2457.32 1087 2455.49 1083.46 Q2453.69 1079.89 2450.05 1079.89 M2450.05 1076.19 Q2455.86 1076.19 2458.92 1080.8 Q2462 1085.38 2462 1094.13 Q2462 1102.86 2458.92 1107.46 Q2455.86 1112.05 2450.05 1112.05 Q2444.24 1112.05 2441.17 1107.46 Q2438.11 1102.86 2438.11 1094.13 Q2438.11 1085.38 2441.17 1080.8 Q2444.24 1076.19 2450.05 1076.19 Z" fill="#000000" fill-rule="nonzero" fill-opacity="1" /><path clip-path="url(#clip860)" d="M2471.03 1107.44 L2478.67 1107.44 L2478.67 1081.07 L2470.36 1082.74 L2470.36 1078.48 L2478.62 1076.82 L2483.29 1076.82 L2483.29 1107.44 L2490.93 1107.44 L2490.93 1111.38 L2471.03 1111.38 L2471.03 1107.44 Z" fill="#000000" fill-rule="nonzero" fill-opacity="1" /><polyline clip-path="url(#clip862)" style="stroke:#000000; stroke-linecap:round; stroke-linejoin:round; stroke-width:2; stroke-opacity:0.1; fill:none" points="271.839,1042.58 3089.76,1042.58 "/>
<polyline clip-path="url(#clip862)" style="stroke:#000000; stroke-linecap:round; stroke-linejoin:round; stroke-width:2; stroke-opacity:0.1; fill:none" points="271.839,423.317 3089.76,423.317 "/>
<polyline clip-path="url(#clip860)" style="stroke:#000000; stroke-linecap:round; stroke-linejoin:round; stroke-width:4; stroke-opacity:1; fill:none" points="271.839,1042.58 271.839,110.236 "/>
<polyline clip-path="url(#clip860)" style="stroke:#000000; stroke-linecap:round; stroke-linejoin:round; stroke-width:4; stroke-opacity:1; fill:none" points="271.839,1042.58 290.737,1042.58 "/>
<polyline clip-path="url(#clip860)" style="stroke:#000000; stroke-linecap:round; stroke-linejoin:round; stroke-width:4; stroke-opacity:1; fill:none" points="271.839,423.317 290.737,423.317 "/>
<path clip-path="url(#clip860)" d="M153.134 1062.37 L160.772 1062.37 L160.772 1036 L152.462 1037.67 L152.462 1033.41 L160.726 1031.74 L165.402 1031.74 L165.402 1062.37 L173.041 1062.37 L173.041 1066.3 L153.134 1066.3 L153.134 1062.37 Z" fill="#000000" fill-rule="nonzero" fill-opacity="1" /><path clip-path="url(#clip860)" d="M192.485 1034.82 Q188.874 1034.82 187.045 1038.39 Q185.24 1041.93 185.24 1049.06 Q185.24 1056.16 187.045 1059.73 Q188.874 1063.27 192.485 1063.27 Q196.119 1063.27 197.925 1059.73 Q199.754 1056.16 199.754 1049.06 Q199.754 1041.93 197.925 1038.39 Q196.119 1034.82 192.485 1034.82 M192.485 1031.12 Q198.295 1031.12 201.351 1035.72 Q204.43 1040.31 204.43 1049.06 Q204.43 1057.78 201.351 1062.39 Q198.295 1066.97 192.485 1066.97 Q186.675 1066.97 183.596 1062.39 Q180.541 1057.78 180.541 1049.06 Q180.541 1040.31 183.596 1035.72 Q186.675 1031.12 192.485 1031.12 Z" fill="#000000" fill-rule="nonzero" fill-opacity="1" /><path clip-path="url(#clip860)" d="M214.134 1013.31 Q211.2 1013.31 209.715 1016.21 Q208.248 1019.09 208.248 1024.88 Q208.248 1030.66 209.715 1033.55 Q211.2 1036.43 214.134 1036.43 Q217.087 1036.43 218.554 1033.55 Q220.04 1030.66 220.04 1024.88 Q220.04 1019.09 218.554 1016.21 Q217.087 1013.31 214.134 1013.31 M214.134 1010.31 Q218.855 1010.31 221.338 1014.05 Q223.839 1017.77 223.839 1024.88 Q223.839 1031.97 221.338 1035.71 Q218.855 1039.44 214.134 1039.44 Q209.414 1039.44 206.912 1035.71 Q204.43 1031.97 204.43 1024.88 Q204.43 1017.77 206.912 1014.05 Q209.414 1010.31 214.134 1010.31 Z" fill="#000000" fill-rule="nonzero" fill-opacity="1" /><path clip-path="url(#clip860)" d="M154.713 443.11 L162.352 443.11 L162.352 416.744 L154.042 418.411 L154.042 414.151 L162.306 412.485 L166.982 412.485 L166.982 443.11 L174.621 443.11 L174.621 447.045 L154.713 447.045 L154.713 443.11 Z" fill="#000000" fill-rule="nonzero" fill-opacity="1" /><path clip-path="url(#clip860)" d="M194.065 415.563 Q190.454 415.563 188.625 419.128 Q186.82 422.67 186.82 429.799 Q186.82 436.906 188.625 440.471 Q190.454 444.012 194.065 444.012 Q197.699 444.012 199.505 440.471 Q201.334 436.906 201.334 429.799 Q201.334 422.67 199.505 419.128 Q197.699 415.563 194.065 415.563 M194.065 411.86 Q199.875 411.86 202.931 416.466 Q206.009 421.049 206.009 429.799 Q206.009 438.526 202.931 443.133 Q199.875 447.716 194.065 447.716 Q188.255 447.716 185.176 443.133 Q182.121 438.526 182.121 429.799 Q182.121 421.049 185.176 416.466 Q188.255 411.86 194.065 411.86 Z" fill="#000000" fill-rule="nonzero" fill-opacity="1" /><path clip-path="url(#clip860)" d="M210.58 416.437 L223.839 416.437 L223.839 419.634 L206.009 419.634 L206.009 416.437 Q208.172 414.199 211.896 410.437 Q215.639 406.657 216.598 405.566 Q218.423 403.516 219.137 402.105 Q219.871 400.676 219.871 399.303 Q219.871 397.065 218.291 395.654 Q216.73 394.244 214.21 394.244 Q212.423 394.244 210.429 394.864 Q208.454 395.485 206.198 396.745 L206.198 392.908 Q208.492 391.987 210.486 391.517 Q212.479 391.046 214.134 391.046 Q218.498 391.046 221.093 393.228 Q223.689 395.41 223.689 399.059 Q223.689 400.789 223.03 402.35 Q222.391 403.892 220.68 405.999 Q220.209 406.544 217.689 409.158 Q215.169 411.754 210.58 416.437 Z" fill="#000000" fill-rule="nonzero" fill-opacity="1" /><path clip-path="url(#clip860)" d="M83.4268 869.897 L70.6636 869.897 L70.6636 880.4 L65.38 880.4 L65.38 863.531 L85.7821 863.531 Q88.4239 867.255 89.7925 871.743 Q91.1293 876.231 91.1293 881.323 Q91.1293 892.463 84.6363 898.765 Q78.1114 905.036 66.494 905.036 Q54.8448 905.036 48.3518 898.765 Q41.8269 892.463 41.8269 881.323 Q41.8269 876.676 42.9727 872.507 Q44.1186 868.305 46.3466 864.772 L53.1897 864.772 Q50.166 868.337 48.6382 872.348 Q47.1104 876.358 47.1104 880.782 Q47.1104 889.503 51.9802 893.896 Q56.85 898.256 66.494 898.256 Q76.1062 898.256 80.976 893.896 Q85.8458 889.503 85.8458 880.782 Q85.8458 877.377 85.2729 874.703 Q84.6681 872.029 83.4268 869.897 Z" fill="#000000" fill-rule="nonzero" fill-opacity="1" /><path clip-path="url(#clip860)" d="M70.9182 821.549 L73.7828 821.549 L73.7828 848.476 Q79.8302 848.094 83.013 844.848 Q86.1641 841.569 86.1641 835.745 Q86.1641 832.371 85.3365 829.22 Q84.509 826.037 82.8539 822.918 L88.3921 822.918 Q89.7289 826.069 90.4291 829.379 Q91.1293 832.689 91.1293 836.095 Q91.1293 844.625 86.1641 849.622 Q81.1988 854.587 72.7324 854.587 Q63.9796 854.587 58.8552 849.877 Q53.699 845.134 53.699 837.113 Q53.699 829.92 58.3459 825.751 Q62.9611 821.549 70.9182 821.549 M69.1995 827.406 Q64.3933 827.469 61.5288 830.111 Q58.6642 832.721 58.6642 837.05 Q58.6642 841.951 61.4333 844.911 Q64.2024 847.84 69.2313 848.285 L69.1995 827.406 Z" fill="#000000" fill-rule="nonzero" fill-opacity="1" /><path clip-path="url(#clip860)" d="M68.6902 782.305 L90.2063 782.305 L90.2063 788.161 L68.8812 788.161 Q63.8204 788.161 61.306 790.135 Q58.7915 792.108 58.7915 796.055 Q58.7915 800.797 61.8152 803.534 Q64.8389 806.272 70.0588 806.272 L90.2063 806.272 L90.2063 812.16 L54.5583 812.16 L54.5583 806.272 L60.0965 806.272 Q56.8818 804.171 55.2904 801.338 Q53.699 798.474 53.699 794.75 Q53.699 788.607 57.5184 785.456 Q61.306 782.305 68.6902 782.305 Z" fill="#000000" fill-rule="nonzero" fill-opacity="1" /><path clip-path="url(#clip860)" d="M58.6642 756.81 Q58.6642 761.521 62.3563 764.258 Q66.0166 766.995 72.4141 766.995 Q78.8117 766.995 82.5038 764.29 Q86.1641 761.553 86.1641 756.81 Q86.1641 752.131 82.4719 749.394 Q78.7798 746.657 72.4141 746.657 Q66.0803 746.657 62.3881 749.394 Q58.6642 752.131 58.6642 756.81 M53.699 756.81 Q53.699 749.171 58.6642 744.811 Q63.6295 740.45 72.4141 740.45 Q81.167 740.45 86.1641 744.811 Q91.1293 749.171 91.1293 756.81 Q91.1293 764.481 86.1641 768.841 Q81.167 773.17 72.4141 773.17 Q63.6295 773.17 58.6642 768.841 Q53.699 764.481 53.699 756.81 Z" fill="#000000" fill-rule="nonzero" fill-opacity="1" /><path clip-path="url(#clip860)" d="M61.4015 702.988 Q57.4547 700.792 55.5768 697.736 Q53.699 694.681 53.699 690.543 Q53.699 684.973 57.6139 681.949 Q61.4969 678.926 68.6902 678.926 L90.2063 678.926 L90.2063 684.814 L68.8812 684.814 Q63.7568 684.814 61.2741 686.628 Q58.7915 688.442 58.7915 692.166 Q58.7915 696.718 61.8152 699.36 Q64.8389 702.001 70.0588 702.001 L90.2063 702.001 L90.2063 707.89 L68.8812 707.89 Q63.7249 707.89 61.2741 709.704 Q58.7915 711.518 58.7915 715.306 Q58.7915 719.794 61.8471 722.435 Q64.8708 725.077 70.0588 725.077 L90.2063 725.077 L90.2063 730.965 L54.5583 730.965 L54.5583 725.077 L60.0965 725.077 Q56.8182 723.072 55.2586 720.271 Q53.699 717.47 53.699 713.619 Q53.699 709.736 55.6723 707.03 Q57.6457 704.293 61.4015 702.988 Z" fill="#000000" fill-rule="nonzero" fill-opacity="1" /><path clip-path="url(#clip860)" d="M70.9182 636.753 L73.7828 636.753 L73.7828 663.68 Q79.8302 663.298 83.013 660.051 Q86.1641 656.773 86.1641 650.948 Q86.1641 647.575 85.3365 644.424 Q84.509 641.241 82.8539 638.122 L88.3921 638.122 Q89.7289 641.273 90.4291 644.583 Q91.1293 647.893 91.1293 651.299 Q91.1293 659.829 86.1641 664.826 Q81.1988 669.791 72.7324 669.791 Q63.9796 669.791 58.8552 665.08 Q53.699 660.338 53.699 652.317 Q53.699 645.124 58.3459 640.954 Q62.9611 636.753 70.9182 636.753 M69.1995 642.609 Q64.3933 642.673 61.5288 645.315 Q58.6642 647.925 58.6642 652.253 Q58.6642 657.155 61.4333 660.115 Q64.2024 663.043 69.2313 663.489 L69.1995 642.609 Z" fill="#000000" fill-rule="nonzero" fill-opacity="1" /><path clip-path="url(#clip860)" d="M55.6087 604.415 L61.1468 604.415 Q59.8737 606.898 59.2371 609.571 Q58.6006 612.245 58.6006 615.109 Q58.6006 619.47 59.9373 621.666 Q61.2741 623.83 63.9477 623.83 Q65.9848 623.83 67.1624 622.271 Q68.3083 620.711 69.3586 616.001 L69.8042 613.995 Q71.141 607.757 73.5918 605.147 Q76.0108 602.505 80.3713 602.505 Q85.3365 602.505 88.2329 606.452 Q91.1293 610.367 91.1293 617.242 Q91.1293 620.107 90.5564 623.226 Q90.0153 626.313 88.9013 629.751 L82.8539 629.751 Q84.5408 626.504 85.4002 623.353 Q86.2277 620.202 86.2277 617.115 Q86.2277 612.977 84.8273 610.749 Q83.395 608.521 80.8169 608.521 Q78.4297 608.521 77.1566 610.144 Q75.8834 611.736 74.7058 617.178 L74.2284 619.215 Q73.0825 624.658 70.7272 627.077 Q68.3401 629.496 64.2024 629.496 Q59.1735 629.496 56.4362 625.931 Q53.699 622.366 53.699 615.81 Q53.699 612.563 54.1764 609.699 Q54.6538 606.834 55.6087 604.415 Z" fill="#000000" fill-rule="nonzero" fill-opacity="1" /><path clip-path="url(#clip860)" d="M42.6863 582.772 L42.6863 577.361 L96.2537 593.912 L96.2537 599.323 L42.6863 582.772 Z" fill="#000000" fill-rule="nonzero" fill-opacity="1" /><path clip-path="url(#clip860)" d="M47.9698 564.534 L84.9227 564.534 L84.9227 556.768 Q84.9227 546.933 80.4668 542.381 Q76.0108 537.798 66.3985 537.798 Q56.85 537.798 52.4258 542.381 Q47.9698 546.933 47.9698 556.768 L47.9698 564.534 M42.6863 570.963 L42.6863 557.754 Q42.6863 543.941 48.4472 537.48 Q54.1764 531.018 66.3985 531.018 Q78.6844 531.018 84.4453 537.512 Q90.2063 544.005 90.2063 557.754 L90.2063 570.963 L42.6863 570.963 Z" fill="#000000" fill-rule="nonzero" fill-opacity="1" /><path clip-path="url(#clip860)" d="M72.2868 504.824 Q72.2868 511.921 73.9101 514.659 Q75.5333 517.396 79.4482 517.396 Q82.5674 517.396 84.4135 515.359 Q86.2277 513.29 86.2277 509.757 Q86.2277 504.887 82.7902 501.959 Q79.3209 498.999 73.5918 498.999 L72.2868 498.999 L72.2868 504.824 M69.8679 493.143 L90.2063 493.143 L90.2063 498.999 L84.7954 498.999 Q88.0419 501.004 89.6015 503.996 Q91.1293 506.988 91.1293 511.317 Q91.1293 516.791 88.0738 520.038 Q84.9864 523.252 79.8302 523.252 Q73.8146 523.252 70.759 519.242 Q67.7035 515.2 67.7035 507.211 L67.7035 498.999 L67.1306 498.999 Q63.0884 498.999 60.8922 501.673 Q58.6642 504.314 58.6642 509.12 Q58.6642 512.176 59.3963 515.072 Q60.1283 517.969 61.5924 520.642 L56.1816 520.642 Q54.9403 517.428 54.3355 514.404 Q53.699 511.38 53.699 508.516 Q53.699 500.781 57.7094 496.962 Q61.7197 493.143 69.8679 493.143 Z" fill="#000000" fill-rule="nonzero" fill-opacity="1" /><path clip-path="url(#clip860)" d="M93.5165 466.247 Q99.8822 468.73 101.824 471.085 Q103.765 473.441 103.765 477.387 L103.765 482.066 L98.8636 482.066 L98.8636 478.629 Q98.8636 476.21 97.7178 474.873 Q96.572 473.536 92.307 471.913 L89.6334 470.863 L54.5583 485.281 L54.5583 479.074 L82.4401 467.934 L54.5583 456.794 L54.5583 450.588 L93.5165 466.247 Z" fill="#000000" fill-rule="nonzero" fill-opacity="1" /><path clip-path="url(#clip860)" d="M40.7447 407.715 Q48.0653 411.98 55.2267 414.049 Q62.3881 416.117 69.7405 416.117 Q77.0929 416.117 84.318 414.049 Q91.5113 411.948 98.8 407.715 L98.8 412.807 Q91.3203 417.582 84.0952 419.969 Q76.8701 422.324 69.7405 422.324 Q62.6428 422.324 55.4495 419.969 Q48.2563 417.613 40.7447 412.807 L40.7447 407.715 Z" fill="#000000" fill-rule="nonzero" fill-opacity="1" /><path clip-path="url(#clip860)" d="M42.6863 396.829 L42.6863 390.368 L71.5548 390.368 Q79.1936 390.368 82.5674 387.599 Q85.9094 384.83 85.9094 378.623 Q85.9094 372.449 82.5674 369.68 Q79.1936 366.911 71.5548 366.911 L42.6863 366.911 L42.6863 360.449 L72.3505 360.449 Q81.6444 360.449 86.3869 365.065 Q91.1293 369.648 91.1293 378.623 Q91.1293 387.631 86.3869 392.246 Q81.6444 396.829 72.3505 396.829 L42.6863 396.829 Z" fill="#000000" fill-rule="nonzero" fill-opacity="1" /><path clip-path="url(#clip860)" d="M44.2459 319.9 L50.5161 319.9 Q48.7655 323.56 47.9062 326.807 Q47.0468 330.053 47.0468 333.077 Q47.0468 338.329 49.0838 341.193 Q51.1208 344.026 54.8766 344.026 Q58.0276 344.026 59.6509 342.148 Q61.2423 340.238 62.229 334.955 L63.0247 331.072 Q64.3933 323.878 67.8627 320.473 Q71.3001 317.035 77.0929 317.035 Q83.9997 317.035 87.5645 321.682 Q91.1293 326.297 91.1293 335.241 Q91.1293 338.615 90.3654 342.434 Q89.6015 346.222 88.1056 350.296 L81.4853 350.296 Q83.6814 346.381 84.7954 342.625 Q85.9094 338.87 85.9094 335.241 Q85.9094 329.735 83.7451 326.743 Q81.5808 323.751 77.5704 323.751 Q74.0692 323.751 72.0958 325.915 Q70.1225 328.048 69.1358 332.95 L68.3719 336.864 Q66.9396 344.058 63.8841 347.272 Q60.8285 350.487 55.3859 350.487 Q49.0838 350.487 45.4554 346.063 Q41.8269 341.607 41.8269 333.809 Q41.8269 330.467 42.4317 326.998 Q43.0364 323.528 44.2459 319.9 Z" fill="#000000" fill-rule="nonzero" fill-opacity="1" /><path clip-path="url(#clip860)" d="M49.0202 289.917 L72.6688 298.638 L72.6688 281.165 L49.0202 289.917 M42.6863 293.546 L42.6863 286.257 L90.2063 268.147 L90.2063 274.831 L78.016 279.159 L78.016 300.58 L90.2063 304.909 L90.2063 311.688 L42.6863 293.546 Z" fill="#000000" fill-rule="nonzero" fill-opacity="1" /><path clip-path="url(#clip860)" d="M40.7447 262.386 L40.7447 257.293 Q48.2563 252.519 55.4495 250.164 Q62.6428 247.776 69.7405 247.776 Q76.8701 247.776 84.0952 250.164 Q91.3203 252.519 98.8 257.293 L98.8 262.386 Q91.5113 258.152 84.318 256.084 Q77.0929 253.983 69.7405 253.983 Q62.3881 253.983 55.2267 256.084 Q48.0653 258.152 40.7447 262.386 Z" fill="#000000" fill-rule="nonzero" fill-opacity="1" /><path clip-path="url(#clip862)" d="M288.747 164.171 L288.747 1042.58 L311.29 1042.58 L311.29 164.171 L288.747 164.171 L288.747 164.171  Z" fill="#009af9" fill-rule="evenodd" fill-opacity="0.5"/>
<polyline clip-path="url(#clip862)" style="stroke:#000000; stroke-linecap:round; stroke-linejoin:round; stroke-width:4; stroke-opacity:0.5; fill:none" points="288.747,164.171 288.747,1042.58 311.29,1042.58 311.29,164.171 288.747,164.171 "/>
<path clip-path="url(#clip862)" d="M316.926 217.524 L316.926 1042.58 L339.469 1042.58 L339.469 217.524 L316.926 217.524 L316.926 217.524  Z" fill="#009af9" fill-rule="evenodd" fill-opacity="0.5"/>
<polyline clip-path="url(#clip862)" style="stroke:#000000; stroke-linecap:round; stroke-linejoin:round; stroke-width:4; stroke-opacity:0.5; fill:none" points="316.926,217.524 316.926,1042.58 339.469,1042.58 339.469,217.524 316.926,217.524 "/>
<path clip-path="url(#clip862)" d="M345.105 204.497 L345.105 1042.58 L367.649 1042.58 L367.649 204.497 L345.105 204.497 L345.105 204.497  Z" fill="#009af9" fill-rule="evenodd" fill-opacity="0.5"/>
<polyline clip-path="url(#clip862)" style="stroke:#000000; stroke-linecap:round; stroke-linejoin:round; stroke-width:4; stroke-opacity:0.5; fill:none" points="345.105,204.497 345.105,1042.58 367.649,1042.58 367.649,204.497 345.105,204.497 "/>
<path clip-path="url(#clip862)" d="M373.285 132.106 L373.285 1042.58 L395.828 1042.58 L395.828 132.106 L373.285 132.106 L373.285 132.106  Z" fill="#009af9" fill-rule="evenodd" fill-opacity="0.5"/>
<polyline clip-path="url(#clip862)" style="stroke:#000000; stroke-linecap:round; stroke-linejoin:round; stroke-width:4; stroke-opacity:0.5; fill:none" points="373.285,132.106 373.285,1042.58 395.828,1042.58 395.828,132.106 373.285,132.106 "/>
<path clip-path="url(#clip862)" d="M401.464 136.813 L401.464 1042.58 L424.007 1042.58 L424.007 136.813 L401.464 136.813 L401.464 136.813  Z" fill="#009af9" fill-rule="evenodd" fill-opacity="0.5"/>
<polyline clip-path="url(#clip862)" style="stroke:#000000; stroke-linecap:round; stroke-linejoin:round; stroke-width:4; stroke-opacity:0.5; fill:none" points="401.464,136.813 401.464,1042.58 424.007,1042.58 424.007,136.813 401.464,136.813 "/>
<path clip-path="url(#clip862)" d="M429.643 150.238 L429.643 1042.58 L452.186 1042.58 L452.186 150.238 L429.643 150.238 L429.643 150.238  Z" fill="#009af9" fill-rule="evenodd" fill-opacity="0.5"/>
<polyline clip-path="url(#clip862)" style="stroke:#000000; stroke-linecap:round; stroke-linejoin:round; stroke-width:4; stroke-opacity:0.5; fill:none" points="429.643,150.238 429.643,1042.58 452.186,1042.58 452.186,150.238 429.643,150.238 "/>
<path clip-path="url(#clip862)" d="M457.822 153.996 L457.822 1042.58 L480.366 1042.58 L480.366 153.996 L457.822 153.996 L457.822 153.996  Z" fill="#009af9" fill-rule="evenodd" fill-opacity="0.5"/>
<polyline clip-path="url(#clip862)" style="stroke:#000000; stroke-linecap:round; stroke-linejoin:round; stroke-width:4; stroke-opacity:0.5; fill:none" points="457.822,153.996 457.822,1042.58 480.366,1042.58 480.366,153.996 457.822,153.996 "/>
<path clip-path="url(#clip862)" d="M486.001 179.716 L486.001 1042.58 L508.545 1042.58 L508.545 179.716 L486.001 179.716 L486.001 179.716  Z" fill="#009af9" fill-rule="evenodd" fill-opacity="0.5"/>
<polyline clip-path="url(#clip862)" style="stroke:#000000; stroke-linecap:round; stroke-linejoin:round; stroke-width:4; stroke-opacity:0.5; fill:none" points="486.001,179.716 486.001,1042.58 508.545,1042.58 508.545,179.716 486.001,179.716 "/>
<path clip-path="url(#clip862)" d="M514.181 228.749 L514.181 1042.58 L536.724 1042.58 L536.724 228.749 L514.181 228.749 L514.181 228.749  Z" fill="#009af9" fill-rule="evenodd" fill-opacity="0.5"/>
<polyline clip-path="url(#clip862)" style="stroke:#000000; stroke-linecap:round; stroke-linejoin:round; stroke-width:4; stroke-opacity:0.5; fill:none" points="514.181,228.749 514.181,1042.58 536.724,1042.58 536.724,228.749 514.181,228.749 "/>
<path clip-path="url(#clip862)" d="M542.36 232.601 L542.36 1042.58 L564.903 1042.58 L564.903 232.601 L542.36 232.601 L542.36 232.601  Z" fill="#009af9" fill-rule="evenodd" fill-opacity="0.5"/>
<polyline clip-path="url(#clip862)" style="stroke:#000000; stroke-linecap:round; stroke-linejoin:round; stroke-width:4; stroke-opacity:0.5; fill:none" points="542.36,232.601 542.36,1042.58 564.903,1042.58 564.903,232.601 542.36,232.601 "/>
<path clip-path="url(#clip862)" d="M570.539 110.236 L570.539 1042.58 L593.083 1042.58 L593.083 110.236 L570.539 110.236 L570.539 110.236  Z" fill="#009af9" fill-rule="evenodd" fill-opacity="0.5"/>
<polyline clip-path="url(#clip862)" style="stroke:#000000; stroke-linecap:round; stroke-linejoin:round; stroke-width:4; stroke-opacity:0.5; fill:none" points="570.539,110.236 570.539,1042.58 593.083,1042.58 593.083,110.236 570.539,110.236 "/>
<path clip-path="url(#clip862)" d="M598.718 132.106 L598.718 1042.58 L621.262 1042.58 L621.262 132.106 L598.718 132.106 L598.718 132.106  Z" fill="#009af9" fill-rule="evenodd" fill-opacity="0.5"/>
<polyline clip-path="url(#clip862)" style="stroke:#000000; stroke-linecap:round; stroke-linejoin:round; stroke-width:4; stroke-opacity:0.5; fill:none" points="598.718,132.106 598.718,1042.58 621.262,1042.58 621.262,132.106 598.718,132.106 "/>
<path clip-path="url(#clip862)" d="M626.898 147.617 L626.898 1042.58 L649.441 1042.58 L649.441 147.617 L626.898 147.617 L626.898 147.617  Z" fill="#009af9" fill-rule="evenodd" fill-opacity="0.5"/>
<polyline clip-path="url(#clip862)" style="stroke:#000000; stroke-linecap:round; stroke-linejoin:round; stroke-width:4; stroke-opacity:0.5; fill:none" points="626.898,147.617 626.898,1042.58 649.441,1042.58 649.441,147.617 626.898,147.617 "/>
<path clip-path="url(#clip862)" d="M655.077 158.236 L655.077 1042.58 L677.62 1042.58 L677.62 158.236 L655.077 158.236 L655.077 158.236  Z" fill="#009af9" fill-rule="evenodd" fill-opacity="0.5"/>
<polyline clip-path="url(#clip862)" style="stroke:#000000; stroke-linecap:round; stroke-linejoin:round; stroke-width:4; stroke-opacity:0.5; fill:none" points="655.077,158.236 655.077,1042.58 677.62,1042.58 677.62,158.236 655.077,158.236 "/>
<path clip-path="url(#clip862)" d="M683.256 167.54 L683.256 1042.58 L705.8 1042.58 L705.8 167.54 L683.256 167.54 L683.256 167.54  Z" fill="#009af9" fill-rule="evenodd" fill-opacity="0.5"/>
<polyline clip-path="url(#clip862)" style="stroke:#000000; stroke-linecap:round; stroke-linejoin:round; stroke-width:4; stroke-opacity:0.5; fill:none" points="683.256,167.54 683.256,1042.58 705.8,1042.58 705.8,167.54 683.256,167.54 "/>
<path clip-path="url(#clip862)" d="M711.435 239.962 L711.435 1042.58 L733.979 1042.58 L733.979 239.962 L711.435 239.962 L711.435 239.962  Z" fill="#009af9" fill-rule="evenodd" fill-opacity="0.5"/>
<polyline clip-path="url(#clip862)" style="stroke:#000000; stroke-linecap:round; stroke-linejoin:round; stroke-width:4; stroke-opacity:0.5; fill:none" points="711.435,239.962 711.435,1042.58 733.979,1042.58 733.979,239.962 711.435,239.962 "/>
<path clip-path="url(#clip862)" d="M739.615 245.222 L739.615 1042.58 L762.158 1042.58 L762.158 245.222 L739.615 245.222 L739.615 245.222  Z" fill="#009af9" fill-rule="evenodd" fill-opacity="0.5"/>
<polyline clip-path="url(#clip862)" style="stroke:#000000; stroke-linecap:round; stroke-linejoin:round; stroke-width:4; stroke-opacity:0.5; fill:none" points="739.615,245.222 739.615,1042.58 762.158,1042.58 762.158,245.222 739.615,245.222 "/>
<path clip-path="url(#clip862)" d="M767.794 153.272 L767.794 1042.58 L790.337 1042.58 L790.337 153.272 L767.794 153.272 L767.794 153.272  Z" fill="#009af9" fill-rule="evenodd" fill-opacity="0.5"/>
<polyline clip-path="url(#clip862)" style="stroke:#000000; stroke-linecap:round; stroke-linejoin:round; stroke-width:4; stroke-opacity:0.5; fill:none" points="767.794,153.272 767.794,1042.58 790.337,1042.58 790.337,153.272 767.794,153.272 "/>
<path clip-path="url(#clip862)" d="M795.973 143.358 L795.973 1042.58 L818.517 1042.58 L818.517 143.358 L795.973 143.358 L795.973 143.358  Z" fill="#009af9" fill-rule="evenodd" fill-opacity="0.5"/>
<polyline clip-path="url(#clip862)" style="stroke:#000000; stroke-linecap:round; stroke-linejoin:round; stroke-width:4; stroke-opacity:0.5; fill:none" points="795.973,143.358 795.973,1042.58 818.517,1042.58 818.517,143.358 795.973,143.358 "/>
<path clip-path="url(#clip862)" d="M824.152 150.238 L824.152 1042.58 L846.696 1042.58 L846.696 150.238 L824.152 150.238 L824.152 150.238  Z" fill="#009af9" fill-rule="evenodd" fill-opacity="0.5"/>
<polyline clip-path="url(#clip862)" style="stroke:#000000; stroke-linecap:round; stroke-linejoin:round; stroke-width:4; stroke-opacity:0.5; fill:none" points="824.152,150.238 824.152,1042.58 846.696,1042.58 846.696,150.238 824.152,150.238 "/>
<path clip-path="url(#clip862)" d="M852.332 159.743 L852.332 1042.58 L874.875 1042.58 L874.875 159.743 L852.332 159.743 L852.332 159.743  Z" fill="#009af9" fill-rule="evenodd" fill-opacity="0.5"/>
<polyline clip-path="url(#clip862)" style="stroke:#000000; stroke-linecap:round; stroke-linejoin:round; stroke-width:4; stroke-opacity:0.5; fill:none" points="852.332,159.743 852.332,1042.58 874.875,1042.58 874.875,159.743 852.332,159.743 "/>
<path clip-path="url(#clip862)" d="M880.511 172.862 L880.511 1042.58 L903.054 1042.58 L903.054 172.862 L880.511 172.862 L880.511 172.862  Z" fill="#009af9" fill-rule="evenodd" fill-opacity="0.5"/>
<polyline clip-path="url(#clip862)" style="stroke:#000000; stroke-linecap:round; stroke-linejoin:round; stroke-width:4; stroke-opacity:0.5; fill:none" points="880.511,172.862 880.511,1042.58 903.054,1042.58 903.054,172.862 880.511,172.862 "/>
<path clip-path="url(#clip862)" d="M908.69 249.215 L908.69 1042.58 L931.234 1042.58 L931.234 249.215 L908.69 249.215 L908.69 249.215  Z" fill="#009af9" fill-rule="evenodd" fill-opacity="0.5"/>
<polyline clip-path="url(#clip862)" style="stroke:#000000; stroke-linecap:round; stroke-linejoin:round; stroke-width:4; stroke-opacity:0.5; fill:none" points="908.69,249.215 908.69,1042.58 931.234,1042.58 931.234,249.215 908.69,249.215 "/>
<path clip-path="url(#clip862)" d="M936.869 281.543 L936.869 1042.58 L959.413 1042.58 L959.413 281.543 L936.869 281.543 L936.869 281.543  Z" fill="#009af9" fill-rule="evenodd" fill-opacity="0.5"/>
<polyline clip-path="url(#clip862)" style="stroke:#000000; stroke-linecap:round; stroke-linejoin:round; stroke-width:4; stroke-opacity:0.5; fill:none" points="936.869,281.543 936.869,1042.58 959.413,1042.58 959.413,281.543 936.869,281.543 "/>
<path clip-path="url(#clip862)" d="M965.049 153.815 L965.049 1042.58 L987.592 1042.58 L987.592 153.815 L965.049 153.815 L965.049 153.815  Z" fill="#009af9" fill-rule="evenodd" fill-opacity="0.5"/>
<polyline clip-path="url(#clip862)" style="stroke:#000000; stroke-linecap:round; stroke-linejoin:round; stroke-width:4; stroke-opacity:0.5; fill:none" points="965.049,153.815 965.049,1042.58 987.592,1042.58 987.592,153.815 965.049,153.815 "/>
<path clip-path="url(#clip862)" d="M993.228 199.823 L993.228 1042.58 L1015.77 1042.58 L1015.77 199.823 L993.228 199.823 L993.228 199.823  Z" fill="#009af9" fill-rule="evenodd" fill-opacity="0.5"/>
<polyline clip-path="url(#clip862)" style="stroke:#000000; stroke-linecap:round; stroke-linejoin:round; stroke-width:4; stroke-opacity:0.5; fill:none" points="993.228,199.823 993.228,1042.58 1015.77,1042.58 1015.77,199.823 993.228,199.823 "/>
<path clip-path="url(#clip862)" d="M1021.41 185.324 L1021.41 1042.58 L1043.95 1042.58 L1043.95 185.324 L1021.41 185.324 L1021.41 185.324  Z" fill="#009af9" fill-rule="evenodd" fill-opacity="0.5"/>
<polyline clip-path="url(#clip862)" style="stroke:#000000; stroke-linecap:round; stroke-linejoin:round; stroke-width:4; stroke-opacity:0.5; fill:none" points="1021.41,185.324 1021.41,1042.58 1043.95,1042.58 1043.95,185.324 1021.41,185.324 "/>
<path clip-path="url(#clip862)" d="M1049.59 197.296 L1049.59 1042.58 L1072.13 1042.58 L1072.13 197.296 L1049.59 197.296 L1049.59 197.296  Z" fill="#009af9" fill-rule="evenodd" fill-opacity="0.5"/>
<polyline clip-path="url(#clip862)" style="stroke:#000000; stroke-linecap:round; stroke-linejoin:round; stroke-width:4; stroke-opacity:0.5; fill:none" points="1049.59,197.296 1049.59,1042.58 1072.13,1042.58 1072.13,197.296 1049.59,197.296 "/>
<path clip-path="url(#clip862)" d="M1077.77 213.793 L1077.77 1042.58 L1100.31 1042.58 L1100.31 213.793 L1077.77 213.793 L1077.77 213.793  Z" fill="#009af9" fill-rule="evenodd" fill-opacity="0.5"/>
<polyline clip-path="url(#clip862)" style="stroke:#000000; stroke-linecap:round; stroke-linejoin:round; stroke-width:4; stroke-opacity:0.5; fill:none" points="1077.77,213.793 1077.77,1042.58 1100.31,1042.58 1100.31,213.793 1077.77,213.793 "/>
<path clip-path="url(#clip862)" d="M1105.94 285.828 L1105.94 1042.58 L1128.49 1042.58 L1128.49 285.828 L1105.94 285.828 L1105.94 285.828  Z" fill="#009af9" fill-rule="evenodd" fill-opacity="0.5"/>
<polyline clip-path="url(#clip862)" style="stroke:#000000; stroke-linecap:round; stroke-linejoin:round; stroke-width:4; stroke-opacity:0.5; fill:none" points="1105.94,285.828 1105.94,1042.58 1128.49,1042.58 1128.49,285.828 1105.94,285.828 "/>
<path clip-path="url(#clip862)" d="M1134.12 284.864 L1134.12 1042.58 L1156.67 1042.58 L1156.67 284.864 L1134.12 284.864 L1134.12 284.864  Z" fill="#009af9" fill-rule="evenodd" fill-opacity="0.5"/>
<polyline clip-path="url(#clip862)" style="stroke:#000000; stroke-linecap:round; stroke-linejoin:round; stroke-width:4; stroke-opacity:0.5; fill:none" points="1134.12,284.864 1134.12,1042.58 1156.67,1042.58 1156.67,284.864 1134.12,284.864 "/>
<path clip-path="url(#clip862)" d="M1162.3 206.895 L1162.3 1042.58 L1184.85 1042.58 L1184.85 206.895 L1162.3 206.895 L1162.3 206.895  Z" fill="#009af9" fill-rule="evenodd" fill-opacity="0.5"/>
<polyline clip-path="url(#clip862)" style="stroke:#000000; stroke-linecap:round; stroke-linejoin:round; stroke-width:4; stroke-opacity:0.5; fill:none" points="1162.3,206.895 1162.3,1042.58 1184.85,1042.58 1184.85,206.895 1162.3,206.895 "/>
<path clip-path="url(#clip862)" d="M1190.48 199.823 L1190.48 1042.58 L1213.03 1042.58 L1213.03 199.823 L1190.48 199.823 L1190.48 199.823  Z" fill="#009af9" fill-rule="evenodd" fill-opacity="0.5"/>
<polyline clip-path="url(#clip862)" style="stroke:#000000; stroke-linecap:round; stroke-linejoin:round; stroke-width:4; stroke-opacity:0.5; fill:none" points="1190.48,199.823 1190.48,1042.58 1213.03,1042.58 1213.03,199.823 1190.48,199.823 "/>
<path clip-path="url(#clip862)" d="M1218.66 195.307 L1218.66 1042.58 L1241.21 1042.58 L1241.21 195.307 L1218.66 195.307 L1218.66 195.307  Z" fill="#009af9" fill-rule="evenodd" fill-opacity="0.5"/>
<polyline clip-path="url(#clip862)" style="stroke:#000000; stroke-linecap:round; stroke-linejoin:round; stroke-width:4; stroke-opacity:0.5; fill:none" points="1218.66,195.307 1218.66,1042.58 1241.21,1042.58 1241.21,195.307 1218.66,195.307 "/>
<path clip-path="url(#clip862)" d="M1246.84 188.57 L1246.84 1042.58 L1269.38 1042.58 L1269.38 188.57 L1246.84 188.57 L1246.84 188.57  Z" fill="#009af9" fill-rule="evenodd" fill-opacity="0.5"/>
<polyline clip-path="url(#clip862)" style="stroke:#000000; stroke-linecap:round; stroke-linejoin:round; stroke-width:4; stroke-opacity:0.5; fill:none" points="1246.84,188.57 1246.84,1042.58 1269.38,1042.58 1269.38,188.57 1246.84,188.57 "/>
<path clip-path="url(#clip862)" d="M1275.02 214.076 L1275.02 1042.58 L1297.56 1042.58 L1297.56 214.076 L1275.02 214.076 L1275.02 214.076  Z" fill="#009af9" fill-rule="evenodd" fill-opacity="0.5"/>
<polyline clip-path="url(#clip862)" style="stroke:#000000; stroke-linecap:round; stroke-linejoin:round; stroke-width:4; stroke-opacity:0.5; fill:none" points="1275.02,214.076 1275.02,1042.58 1297.56,1042.58 1297.56,214.076 1275.02,214.076 "/>
<path clip-path="url(#clip862)" d="M1303.2 307.284 L1303.2 1042.58 L1325.74 1042.58 L1325.74 307.284 L1303.2 307.284 L1303.2 307.284  Z" fill="#009af9" fill-rule="evenodd" fill-opacity="0.5"/>
<polyline clip-path="url(#clip862)" style="stroke:#000000; stroke-linecap:round; stroke-linejoin:round; stroke-width:4; stroke-opacity:0.5; fill:none" points="1303.2,307.284 1303.2,1042.58 1325.74,1042.58 1325.74,307.284 1303.2,307.284 "/>
<path clip-path="url(#clip862)" d="M1331.38 295.347 L1331.38 1042.58 L1353.92 1042.58 L1353.92 295.347 L1331.38 295.347 L1331.38 295.347  Z" fill="#009af9" fill-rule="evenodd" fill-opacity="0.5"/>
<polyline clip-path="url(#clip862)" style="stroke:#000000; stroke-linecap:round; stroke-linejoin:round; stroke-width:4; stroke-opacity:0.5; fill:none" points="1331.38,295.347 1331.38,1042.58 1353.92,1042.58 1353.92,295.347 1331.38,295.347 "/>
<path clip-path="url(#clip862)" d="M1359.56 209.887 L1359.56 1042.58 L1382.1 1042.58 L1382.1 209.887 L1359.56 209.887 L1359.56 209.887  Z" fill="#009af9" fill-rule="evenodd" fill-opacity="0.5"/>
<polyline clip-path="url(#clip862)" style="stroke:#000000; stroke-linecap:round; stroke-linejoin:round; stroke-width:4; stroke-opacity:0.5; fill:none" points="1359.56,209.887 1359.56,1042.58 1382.1,1042.58 1382.1,209.887 1359.56,209.887 "/>
<path clip-path="url(#clip862)" d="M1387.74 218.108 L1387.74 1042.58 L1410.28 1042.58 L1410.28 218.108 L1387.74 218.108 L1387.74 218.108  Z" fill="#009af9" fill-rule="evenodd" fill-opacity="0.5"/>
<polyline clip-path="url(#clip862)" style="stroke:#000000; stroke-linecap:round; stroke-linejoin:round; stroke-width:4; stroke-opacity:0.5; fill:none" points="1387.74,218.108 1387.74,1042.58 1410.28,1042.58 1410.28,218.108 1387.74,218.108 "/>
<path clip-path="url(#clip862)" d="M1415.92 236.902 L1415.92 1042.58 L1438.46 1042.58 L1438.46 236.902 L1415.92 236.902 L1415.92 236.902  Z" fill="#009af9" fill-rule="evenodd" fill-opacity="0.5"/>
<polyline clip-path="url(#clip862)" style="stroke:#000000; stroke-linecap:round; stroke-linejoin:round; stroke-width:4; stroke-opacity:0.5; fill:none" points="1415.92,236.902 1415.92,1042.58 1438.46,1042.58 1438.46,236.902 1415.92,236.902 "/>
<path clip-path="url(#clip862)" d="M1444.1 291.257 L1444.1 1042.58 L1466.64 1042.58 L1466.64 291.257 L1444.1 291.257 L1444.1 291.257  Z" fill="#009af9" fill-rule="evenodd" fill-opacity="0.5"/>
<polyline clip-path="url(#clip862)" style="stroke:#000000; stroke-linecap:round; stroke-linejoin:round; stroke-width:4; stroke-opacity:0.5; fill:none" points="1444.1,291.257 1444.1,1042.58 1466.64,1042.58 1466.64,291.257 1444.1,291.257 "/>
<path clip-path="url(#clip862)" d="M1472.28 279.682 L1472.28 1042.58 L1494.82 1042.58 L1494.82 279.682 L1472.28 279.682 L1472.28 279.682  Z" fill="#009af9" fill-rule="evenodd" fill-opacity="0.5"/>
<polyline clip-path="url(#clip862)" style="stroke:#000000; stroke-linecap:round; stroke-linejoin:round; stroke-width:4; stroke-opacity:0.5; fill:none" points="1472.28,279.682 1472.28,1042.58 1494.82,1042.58 1494.82,279.682 1472.28,279.682 "/>
<path clip-path="url(#clip862)" d="M1500.45 359.278 L1500.45 1042.58 L1523 1042.58 L1523 359.278 L1500.45 359.278 L1500.45 359.278  Z" fill="#009af9" fill-rule="evenodd" fill-opacity="0.5"/>
<polyline clip-path="url(#clip862)" style="stroke:#000000; stroke-linecap:round; stroke-linejoin:round; stroke-width:4; stroke-opacity:0.5; fill:none" points="1500.45,359.278 1500.45,1042.58 1523,1042.58 1523,359.278 1500.45,359.278 "/>
<path clip-path="url(#clip862)" d="M1528.63 355.978 L1528.63 1042.58 L1551.18 1042.58 L1551.18 355.978 L1528.63 355.978 L1528.63 355.978  Z" fill="#009af9" fill-rule="evenodd" fill-opacity="0.5"/>
<polyline clip-path="url(#clip862)" style="stroke:#000000; stroke-linecap:round; stroke-linejoin:round; stroke-width:4; stroke-opacity:0.5; fill:none" points="1528.63,355.978 1528.63,1042.58 1551.18,1042.58 1551.18,355.978 1528.63,355.978 "/>
<path clip-path="url(#clip862)" d="M1556.81 292.776 L1556.81 1042.58 L1579.36 1042.58 L1579.36 292.776 L1556.81 292.776 L1556.81 292.776  Z" fill="#009af9" fill-rule="evenodd" fill-opacity="0.5"/>
<polyline clip-path="url(#clip862)" style="stroke:#000000; stroke-linecap:round; stroke-linejoin:round; stroke-width:4; stroke-opacity:0.5; fill:none" points="1556.81,292.776 1556.81,1042.58 1579.36,1042.58 1579.36,292.776 1556.81,292.776 "/>
<path clip-path="url(#clip862)" d="M1584.99 316.076 L1584.99 1042.58 L1607.54 1042.58 L1607.54 316.076 L1584.99 316.076 L1584.99 316.076  Z" fill="#009af9" fill-rule="evenodd" fill-opacity="0.5"/>
<polyline clip-path="url(#clip862)" style="stroke:#000000; stroke-linecap:round; stroke-linejoin:round; stroke-width:4; stroke-opacity:0.5; fill:none" points="1584.99,316.076 1584.99,1042.58 1607.54,1042.58 1607.54,316.076 1584.99,316.076 "/>
<path clip-path="url(#clip862)" d="M1613.17 295.347 L1613.17 1042.58 L1635.71 1042.58 L1635.71 295.347 L1613.17 295.347 L1613.17 295.347  Z" fill="#009af9" fill-rule="evenodd" fill-opacity="0.5"/>
<polyline clip-path="url(#clip862)" style="stroke:#000000; stroke-linecap:round; stroke-linejoin:round; stroke-width:4; stroke-opacity:0.5; fill:none" points="1613.17,295.347 1613.17,1042.58 1635.71,1042.58 1635.71,295.347 1613.17,295.347 "/>
<path clip-path="url(#clip862)" d="M1641.35 314.87 L1641.35 1042.58 L1663.89 1042.58 L1663.89 314.87 L1641.35 314.87 L1641.35 314.87  Z" fill="#009af9" fill-rule="evenodd" fill-opacity="0.5"/>
<polyline clip-path="url(#clip862)" style="stroke:#000000; stroke-linecap:round; stroke-linejoin:round; stroke-width:4; stroke-opacity:0.5; fill:none" points="1641.35,314.87 1641.35,1042.58 1663.89,1042.58 1663.89,314.87 1641.35,314.87 "/>
<path clip-path="url(#clip862)" d="M1669.53 326.135 L1669.53 1042.58 L1692.07 1042.58 L1692.07 326.135 L1669.53 326.135 L1669.53 326.135  Z" fill="#009af9" fill-rule="evenodd" fill-opacity="0.5"/>
<polyline clip-path="url(#clip862)" style="stroke:#000000; stroke-linecap:round; stroke-linejoin:round; stroke-width:4; stroke-opacity:0.5; fill:none" points="1669.53,326.135 1669.53,1042.58 1692.07,1042.58 1692.07,326.135 1669.53,326.135 "/>
<path clip-path="url(#clip862)" d="M1697.71 380.006 L1697.71 1042.58 L1720.25 1042.58 L1720.25 380.006 L1697.71 380.006 L1697.71 380.006  Z" fill="#009af9" fill-rule="evenodd" fill-opacity="0.5"/>
<polyline clip-path="url(#clip862)" style="stroke:#000000; stroke-linecap:round; stroke-linejoin:round; stroke-width:4; stroke-opacity:0.5; fill:none" points="1697.71,380.006 1697.71,1042.58 1720.25,1042.58 1720.25,380.006 1697.71,380.006 "/>
<path clip-path="url(#clip862)" d="M1725.89 382.962 L1725.89 1042.58 L1748.43 1042.58 L1748.43 382.962 L1725.89 382.962 L1725.89 382.962  Z" fill="#009af9" fill-rule="evenodd" fill-opacity="0.5"/>
<polyline clip-path="url(#clip862)" style="stroke:#000000; stroke-linecap:round; stroke-linejoin:round; stroke-width:4; stroke-opacity:0.5; fill:none" points="1725.89,382.962 1725.89,1042.58 1748.43,1042.58 1748.43,382.962 1725.89,382.962 "/>
<path clip-path="url(#clip862)" d="M1754.07 328.107 L1754.07 1042.58 L1776.61 1042.58 L1776.61 328.107 L1754.07 328.107 L1754.07 328.107  Z" fill="#009af9" fill-rule="evenodd" fill-opacity="0.5"/>
<polyline clip-path="url(#clip862)" style="stroke:#000000; stroke-linecap:round; stroke-linejoin:round; stroke-width:4; stroke-opacity:0.5; fill:none" points="1754.07,328.107 1754.07,1042.58 1776.61,1042.58 1776.61,328.107 1754.07,328.107 "/>
<path clip-path="url(#clip862)" d="M1782.25 335.599 L1782.25 1042.58 L1804.79 1042.58 L1804.79 335.599 L1782.25 335.599 L1782.25 335.599  Z" fill="#009af9" fill-rule="evenodd" fill-opacity="0.5"/>
<polyline clip-path="url(#clip862)" style="stroke:#000000; stroke-linecap:round; stroke-linejoin:round; stroke-width:4; stroke-opacity:0.5; fill:none" points="1782.25,335.599 1782.25,1042.58 1804.79,1042.58 1804.79,335.599 1782.25,335.599 "/>
<path clip-path="url(#clip862)" d="M1810.43 339.868 L1810.43 1042.58 L1832.97 1042.58 L1832.97 339.868 L1810.43 339.868 L1810.43 339.868  Z" fill="#009af9" fill-rule="evenodd" fill-opacity="0.5"/>
<polyline clip-path="url(#clip862)" style="stroke:#000000; stroke-linecap:round; stroke-linejoin:round; stroke-width:4; stroke-opacity:0.5; fill:none" points="1810.43,339.868 1810.43,1042.58 1832.97,1042.58 1832.97,339.868 1810.43,339.868 "/>
<path clip-path="url(#clip862)" d="M1838.61 348.836 L1838.61 1042.58 L1861.15 1042.58 L1861.15 348.836 L1838.61 348.836 L1838.61 348.836  Z" fill="#009af9" fill-rule="evenodd" fill-opacity="0.5"/>
<polyline clip-path="url(#clip862)" style="stroke:#000000; stroke-linecap:round; stroke-linejoin:round; stroke-width:4; stroke-opacity:0.5; fill:none" points="1838.61,348.836 1838.61,1042.58 1861.15,1042.58 1861.15,348.836 1838.61,348.836 "/>
<path clip-path="url(#clip862)" d="M1866.78 368.794 L1866.78 1042.58 L1889.33 1042.58 L1889.33 368.794 L1866.78 368.794 L1866.78 368.794  Z" fill="#009af9" fill-rule="evenodd" fill-opacity="0.5"/>
<polyline clip-path="url(#clip862)" style="stroke:#000000; stroke-linecap:round; stroke-linejoin:round; stroke-width:4; stroke-opacity:0.5; fill:none" points="1866.78,368.794 1866.78,1042.58 1889.33,1042.58 1889.33,368.794 1866.78,368.794 "/>
<path clip-path="url(#clip862)" d="M1894.96 426.034 L1894.96 1042.58 L1917.51 1042.58 L1917.51 426.034 L1894.96 426.034 L1894.96 426.034  Z" fill="#009af9" fill-rule="evenodd" fill-opacity="0.5"/>
<polyline clip-path="url(#clip862)" style="stroke:#000000; stroke-linecap:round; stroke-linejoin:round; stroke-width:4; stroke-opacity:0.5; fill:none" points="1894.96,426.034 1894.96,1042.58 1917.51,1042.58 1917.51,426.034 1894.96,426.034 "/>
<path clip-path="url(#clip862)" d="M1923.14 460.221 L1923.14 1042.58 L1945.69 1042.58 L1945.69 460.221 L1923.14 460.221 L1923.14 460.221  Z" fill="#009af9" fill-rule="evenodd" fill-opacity="0.5"/>
<polyline clip-path="url(#clip862)" style="stroke:#000000; stroke-linecap:round; stroke-linejoin:round; stroke-width:4; stroke-opacity:0.5; fill:none" points="1923.14,460.221 1923.14,1042.58 1945.69,1042.58 1945.69,460.221 1923.14,460.221 "/>
<path clip-path="url(#clip862)" d="M1951.32 374.283 L1951.32 1042.58 L1973.87 1042.58 L1973.87 374.283 L1951.32 374.283 L1951.32 374.283  Z" fill="#009af9" fill-rule="evenodd" fill-opacity="0.5"/>
<polyline clip-path="url(#clip862)" style="stroke:#000000; stroke-linecap:round; stroke-linejoin:round; stroke-width:4; stroke-opacity:0.5; fill:none" points="1951.32,374.283 1951.32,1042.58 1973.87,1042.58 1973.87,374.283 1951.32,374.283 "/>
<path clip-path="url(#clip862)" d="M1979.5 401.06 L1979.5 1042.58 L2002.04 1042.58 L2002.04 401.06 L1979.5 401.06 L1979.5 401.06  Z" fill="#009af9" fill-rule="evenodd" fill-opacity="0.5"/>
<polyline clip-path="url(#clip862)" style="stroke:#000000; stroke-linecap:round; stroke-linejoin:round; stroke-width:4; stroke-opacity:0.5; fill:none" points="1979.5,401.06 1979.5,1042.58 2002.04,1042.58 2002.04,401.06 1979.5,401.06 "/>
<path clip-path="url(#clip862)" d="M2007.68 406.882 L2007.68 1042.58 L2030.22 1042.58 L2030.22 406.882 L2007.68 406.882 L2007.68 406.882  Z" fill="#009af9" fill-rule="evenodd" fill-opacity="0.5"/>
<polyline clip-path="url(#clip862)" style="stroke:#000000; stroke-linecap:round; stroke-linejoin:round; stroke-width:4; stroke-opacity:0.5; fill:none" points="2007.68,406.882 2007.68,1042.58 2030.22,1042.58 2030.22,406.882 2007.68,406.882 "/>
<path clip-path="url(#clip862)" d="M2035.86 390.122 L2035.86 1042.58 L2058.4 1042.58 L2058.4 390.122 L2035.86 390.122 L2035.86 390.122  Z" fill="#009af9" fill-rule="evenodd" fill-opacity="0.5"/>
<polyline clip-path="url(#clip862)" style="stroke:#000000; stroke-linecap:round; stroke-linejoin:round; stroke-width:4; stroke-opacity:0.5; fill:none" points="2035.86,390.122 2035.86,1042.58 2058.4,1042.58 2058.4,390.122 2035.86,390.122 "/>
<path clip-path="url(#clip862)" d="M2064.04 396.578 L2064.04 1042.58 L2086.58 1042.58 L2086.58 396.578 L2064.04 396.578 L2064.04 396.578  Z" fill="#009af9" fill-rule="evenodd" fill-opacity="0.5"/>
<polyline clip-path="url(#clip862)" style="stroke:#000000; stroke-linecap:round; stroke-linejoin:round; stroke-width:4; stroke-opacity:0.5; fill:none" points="2064.04,396.578 2064.04,1042.58 2086.58,1042.58 2086.58,396.578 2064.04,396.578 "/>
<path clip-path="url(#clip862)" d="M2092.22 448.373 L2092.22 1042.58 L2114.76 1042.58 L2114.76 448.373 L2092.22 448.373 L2092.22 448.373  Z" fill="#009af9" fill-rule="evenodd" fill-opacity="0.5"/>
<polyline clip-path="url(#clip862)" style="stroke:#000000; stroke-linecap:round; stroke-linejoin:round; stroke-width:4; stroke-opacity:0.5; fill:none" points="2092.22,448.373 2092.22,1042.58 2114.76,1042.58 2114.76,448.373 2092.22,448.373 "/>
<path clip-path="url(#clip862)" d="M2120.4 483.329 L2120.4 1042.58 L2142.94 1042.58 L2142.94 483.329 L2120.4 483.329 L2120.4 483.329  Z" fill="#009af9" fill-rule="evenodd" fill-opacity="0.5"/>
<polyline clip-path="url(#clip862)" style="stroke:#000000; stroke-linecap:round; stroke-linejoin:round; stroke-width:4; stroke-opacity:0.5; fill:none" points="2120.4,483.329 2120.4,1042.58 2142.94,1042.58 2142.94,483.329 2120.4,483.329 "/>
<path clip-path="url(#clip862)" d="M2148.58 390.122 L2148.58 1042.58 L2171.12 1042.58 L2171.12 390.122 L2148.58 390.122 L2148.58 390.122  Z" fill="#009af9" fill-rule="evenodd" fill-opacity="0.5"/>
<polyline clip-path="url(#clip862)" style="stroke:#000000; stroke-linecap:round; stroke-linejoin:round; stroke-width:4; stroke-opacity:0.5; fill:none" points="2148.58,390.122 2148.58,1042.58 2171.12,1042.58 2171.12,390.122 2148.58,390.122 "/>
<path clip-path="url(#clip862)" d="M2176.76 415.482 L2176.76 1042.58 L2199.3 1042.58 L2199.3 415.482 L2176.76 415.482 L2176.76 415.482  Z" fill="#009af9" fill-rule="evenodd" fill-opacity="0.5"/>
<polyline clip-path="url(#clip862)" style="stroke:#000000; stroke-linecap:round; stroke-linejoin:round; stroke-width:4; stroke-opacity:0.5; fill:none" points="2176.76,415.482 2176.76,1042.58 2199.3,1042.58 2199.3,415.482 2176.76,415.482 "/>
<path clip-path="url(#clip862)" d="M2204.94 412.968 L2204.94 1042.58 L2227.48 1042.58 L2227.48 412.968 L2204.94 412.968 L2204.94 412.968  Z" fill="#009af9" fill-rule="evenodd" fill-opacity="0.5"/>
<polyline clip-path="url(#clip862)" style="stroke:#000000; stroke-linecap:round; stroke-linejoin:round; stroke-width:4; stroke-opacity:0.5; fill:none" points="2204.94,412.968 2204.94,1042.58 2227.48,1042.58 2227.48,412.968 2204.94,412.968 "/>
<path clip-path="url(#clip862)" d="M2233.11 420.654 L2233.11 1042.58 L2255.66 1042.58 L2255.66 420.654 L2233.11 420.654 L2233.11 420.654  Z" fill="#009af9" fill-rule="evenodd" fill-opacity="0.5"/>
<polyline clip-path="url(#clip862)" style="stroke:#000000; stroke-linecap:round; stroke-linejoin:round; stroke-width:4; stroke-opacity:0.5; fill:none" points="2233.11,420.654 2233.11,1042.58 2255.66,1042.58 2255.66,420.654 2233.11,420.654 "/>
<path clip-path="url(#clip862)" d="M2261.29 498.905 L2261.29 1042.58 L2283.84 1042.58 L2283.84 498.905 L2261.29 498.905 L2261.29 498.905  Z" fill="#009af9" fill-rule="evenodd" fill-opacity="0.5"/>
<polyline clip-path="url(#clip862)" style="stroke:#000000; stroke-linecap:round; stroke-linejoin:round; stroke-width:4; stroke-opacity:0.5; fill:none" points="2261.29,498.905 2261.29,1042.58 2283.84,1042.58 2283.84,498.905 2261.29,498.905 "/>
<path clip-path="url(#clip862)" d="M2289.47 527.737 L2289.47 1042.58 L2312.02 1042.58 L2312.02 527.737 L2289.47 527.737 L2289.47 527.737  Z" fill="#009af9" fill-rule="evenodd" fill-opacity="0.5"/>
<polyline clip-path="url(#clip862)" style="stroke:#000000; stroke-linecap:round; stroke-linejoin:round; stroke-width:4; stroke-opacity:0.5; fill:none" points="2289.47,527.737 2289.47,1042.58 2312.02,1042.58 2312.02,527.737 2289.47,527.737 "/>
<path clip-path="url(#clip862)" d="M2317.65 508.689 L2317.65 1042.58 L2340.2 1042.58 L2340.2 508.689 L2317.65 508.689 L2317.65 508.689  Z" fill="#009af9" fill-rule="evenodd" fill-opacity="0.5"/>
<polyline clip-path="url(#clip862)" style="stroke:#000000; stroke-linecap:round; stroke-linejoin:round; stroke-width:4; stroke-opacity:0.5; fill:none" points="2317.65,508.689 2317.65,1042.58 2340.2,1042.58 2340.2,508.689 2317.65,508.689 "/>
<path clip-path="url(#clip862)" d="M2345.83 405.698 L2345.83 1042.58 L2368.38 1042.58 L2368.38 405.698 L2345.83 405.698 L2345.83 405.698  Z" fill="#009af9" fill-rule="evenodd" fill-opacity="0.5"/>
<polyline clip-path="url(#clip862)" style="stroke:#000000; stroke-linecap:round; stroke-linejoin:round; stroke-width:4; stroke-opacity:0.5; fill:none" points="2345.83,405.698 2345.83,1042.58 2368.38,1042.58 2368.38,405.698 2345.83,405.698 "/>
<path clip-path="url(#clip862)" d="M2374.01 395.48 L2374.01 1042.58 L2396.55 1042.58 L2396.55 395.48 L2374.01 395.48 L2374.01 395.48  Z" fill="#009af9" fill-rule="evenodd" fill-opacity="0.5"/>
<polyline clip-path="url(#clip862)" style="stroke:#000000; stroke-linecap:round; stroke-linejoin:round; stroke-width:4; stroke-opacity:0.5; fill:none" points="2374.01,395.48 2374.01,1042.58 2396.55,1042.58 2396.55,395.48 2374.01,395.48 "/>
<path clip-path="url(#clip862)" d="M2402.19 438.987 L2402.19 1042.58 L2424.73 1042.58 L2424.73 438.987 L2402.19 438.987 L2402.19 438.987  Z" fill="#009af9" fill-rule="evenodd" fill-opacity="0.5"/>
<polyline clip-path="url(#clip862)" style="stroke:#000000; stroke-linecap:round; stroke-linejoin:round; stroke-width:4; stroke-opacity:0.5; fill:none" points="2402.19,438.987 2402.19,1042.58 2424.73,1042.58 2424.73,438.987 2402.19,438.987 "/>
<path clip-path="url(#clip862)" d="M2430.37 440.507 L2430.37 1042.58 L2452.91 1042.58 L2452.91 440.507 L2430.37 440.507 L2430.37 440.507  Z" fill="#009af9" fill-rule="evenodd" fill-opacity="0.5"/>
<polyline clip-path="url(#clip862)" style="stroke:#000000; stroke-linecap:round; stroke-linejoin:round; stroke-width:4; stroke-opacity:0.5; fill:none" points="2430.37,440.507 2430.37,1042.58 2452.91,1042.58 2452.91,440.507 2430.37,440.507 "/>
<path clip-path="url(#clip862)" d="M2458.55 469.372 L2458.55 1042.58 L2481.09 1042.58 L2481.09 469.372 L2458.55 469.372 L2458.55 469.372  Z" fill="#009af9" fill-rule="evenodd" fill-opacity="0.5"/>
<polyline clip-path="url(#clip862)" style="stroke:#000000; stroke-linecap:round; stroke-linejoin:round; stroke-width:4; stroke-opacity:0.5; fill:none" points="2458.55,469.372 2458.55,1042.58 2481.09,1042.58 2481.09,469.372 2458.55,469.372 "/>
<path clip-path="url(#clip862)" d="M2486.73 473.214 L2486.73 1042.58 L2509.27 1042.58 L2509.27 473.214 L2486.73 473.214 L2486.73 473.214  Z" fill="#009af9" fill-rule="evenodd" fill-opacity="0.5"/>
<polyline clip-path="url(#clip862)" style="stroke:#000000; stroke-linecap:round; stroke-linejoin:round; stroke-width:4; stroke-opacity:0.5; fill:none" points="2486.73,473.214 2486.73,1042.58 2509.27,1042.58 2509.27,473.214 2486.73,473.214 "/>
<path clip-path="url(#clip862)" d="M2514.91 519.241 L2514.91 1042.58 L2537.45 1042.58 L2537.45 519.241 L2514.91 519.241 L2514.91 519.241  Z" fill="#009af9" fill-rule="evenodd" fill-opacity="0.5"/>
<polyline clip-path="url(#clip862)" style="stroke:#000000; stroke-linecap:round; stroke-linejoin:round; stroke-width:4; stroke-opacity:0.5; fill:none" points="2514.91,519.241 2514.91,1042.58 2537.45,1042.58 2537.45,519.241 2514.91,519.241 "/>
<path clip-path="url(#clip862)" d="M2543.09 443.598 L2543.09 1042.58 L2565.63 1042.58 L2565.63 443.598 L2543.09 443.598 L2543.09 443.598  Z" fill="#009af9" fill-rule="evenodd" fill-opacity="0.5"/>
<polyline clip-path="url(#clip862)" style="stroke:#000000; stroke-linecap:round; stroke-linejoin:round; stroke-width:4; stroke-opacity:0.5; fill:none" points="2543.09,443.598 2543.09,1042.58 2565.63,1042.58 2565.63,443.598 2543.09,443.598 "/>
<path clip-path="url(#clip862)" d="M2571.27 463.807 L2571.27 1042.58 L2593.81 1042.58 L2593.81 463.807 L2571.27 463.807 L2571.27 463.807  Z" fill="#009af9" fill-rule="evenodd" fill-opacity="0.5"/>
<polyline clip-path="url(#clip862)" style="stroke:#000000; stroke-linecap:round; stroke-linejoin:round; stroke-width:4; stroke-opacity:0.5; fill:none" points="2571.27,463.807 2571.27,1042.58 2593.81,1042.58 2593.81,463.807 2571.27,463.807 "/>
<path clip-path="url(#clip862)" d="M2599.44 479.192 L2599.44 1042.58 L2621.99 1042.58 L2621.99 479.192 L2599.44 479.192 L2599.44 479.192  Z" fill="#009af9" fill-rule="evenodd" fill-opacity="0.5"/>
<polyline clip-path="url(#clip862)" style="stroke:#000000; stroke-linecap:round; stroke-linejoin:round; stroke-width:4; stroke-opacity:0.5; fill:none" points="2599.44,479.192 2599.44,1042.58 2621.99,1042.58 2621.99,479.192 2599.44,479.192 "/>
<path clip-path="url(#clip862)" d="M2627.62 539.97 L2627.62 1042.58 L2650.17 1042.58 L2650.17 539.97 L2627.62 539.97 L2627.62 539.97  Z" fill="#009af9" fill-rule="evenodd" fill-opacity="0.5"/>
<polyline clip-path="url(#clip862)" style="stroke:#000000; stroke-linecap:round; stroke-linejoin:round; stroke-width:4; stroke-opacity:0.5; fill:none" points="2627.62,539.97 2627.62,1042.58 2650.17,1042.58 2650.17,539.97 2627.62,539.97 "/>
<path clip-path="url(#clip862)" d="M2655.8 553.428 L2655.8 1042.58 L2678.35 1042.58 L2678.35 553.428 L2655.8 553.428 L2655.8 553.428  Z" fill="#009af9" fill-rule="evenodd" fill-opacity="0.5"/>
<polyline clip-path="url(#clip862)" style="stroke:#000000; stroke-linecap:round; stroke-linejoin:round; stroke-width:4; stroke-opacity:0.5; fill:none" points="2655.8,553.428 2655.8,1042.58 2678.35,1042.58 2678.35,553.428 2655.8,553.428 "/>
<path clip-path="url(#clip862)" d="M2683.98 661.593 L2683.98 1042.58 L2706.53 1042.58 L2706.53 661.593 L2683.98 661.593 L2683.98 661.593  Z" fill="#009af9" fill-rule="evenodd" fill-opacity="0.5"/>
<polyline clip-path="url(#clip862)" style="stroke:#000000; stroke-linecap:round; stroke-linejoin:round; stroke-width:4; stroke-opacity:0.5; fill:none" points="2683.98,661.593 2683.98,1042.58 2706.53,1042.58 2706.53,661.593 2683.98,661.593 "/>
<path clip-path="url(#clip862)" d="M2712.16 708.43 L2712.16 1042.58 L2734.71 1042.58 L2734.71 708.43 L2712.16 708.43 L2712.16 708.43  Z" fill="#009af9" fill-rule="evenodd" fill-opacity="0.5"/>
<polyline clip-path="url(#clip862)" style="stroke:#000000; stroke-linecap:round; stroke-linejoin:round; stroke-width:4; stroke-opacity:0.5; fill:none" points="2712.16,708.43 2712.16,1042.58 2734.71,1042.58 2734.71,708.43 2712.16,708.43 "/>
<path clip-path="url(#clip862)" d="M2740.34 697.666 L2740.34 1042.58 L2762.88 1042.58 L2762.88 697.666 L2740.34 697.666 L2740.34 697.666  Z" fill="#009af9" fill-rule="evenodd" fill-opacity="0.5"/>
<polyline clip-path="url(#clip862)" style="stroke:#000000; stroke-linecap:round; stroke-linejoin:round; stroke-width:4; stroke-opacity:0.5; fill:none" points="2740.34,697.666 2740.34,1042.58 2762.88,1042.58 2762.88,697.666 2740.34,697.666 "/>
<path clip-path="url(#clip862)" d="M2768.52 687.701 L2768.52 1042.58 L2791.06 1042.58 L2791.06 687.701 L2768.52 687.701 L2768.52 687.701  Z" fill="#009af9" fill-rule="evenodd" fill-opacity="0.5"/>
<polyline clip-path="url(#clip862)" style="stroke:#000000; stroke-linecap:round; stroke-linejoin:round; stroke-width:4; stroke-opacity:0.5; fill:none" points="2768.52,687.701 2768.52,1042.58 2791.06,1042.58 2791.06,687.701 2768.52,687.701 "/>
<path clip-path="url(#clip862)" d="M2796.7 747.114 L2796.7 1042.58 L2819.24 1042.58 L2819.24 747.114 L2796.7 747.114 L2796.7 747.114  Z" fill="#009af9" fill-rule="evenodd" fill-opacity="0.5"/>
<polyline clip-path="url(#clip862)" style="stroke:#000000; stroke-linecap:round; stroke-linejoin:round; stroke-width:4; stroke-opacity:0.5; fill:none" points="2796.7,747.114 2796.7,1042.58 2819.24,1042.58 2819.24,747.114 2796.7,747.114 "/>
<path clip-path="url(#clip862)" d="M2853.06 1042.58 L2853.06 1042.58 L2875.6 1042.58 L2875.6 1042.58 L2853.06 1042.58 L2853.06 1042.58  Z" fill="#009af9" fill-rule="evenodd" fill-opacity="0.5"/>
<polyline clip-path="url(#clip862)" style="stroke:#000000; stroke-linecap:round; stroke-linejoin:round; stroke-width:4; stroke-opacity:0.5; fill:none" points="2853.06,1042.58 2853.06,1042.58 2875.6,1042.58 2853.06,1042.58 "/>
<path clip-path="url(#clip862)" d="M2937.6 1042.58 L2937.6 1042.58 L2960.14 1042.58 L2960.14 1042.58 L2937.6 1042.58 L2937.6 1042.58  Z" fill="#009af9" fill-rule="evenodd" fill-opacity="0.5"/>
<polyline clip-path="url(#clip862)" style="stroke:#000000; stroke-linecap:round; stroke-linejoin:round; stroke-width:4; stroke-opacity:0.5; fill:none" points="2937.6,1042.58 2937.6,1042.58 2960.14,1042.58 2937.6,1042.58 "/>
<circle clip-path="url(#clip862)" style="fill:#009af9; stroke:none; fill-opacity:0" cx="300.018" cy="164.171" r="2"/>
<circle clip-path="url(#clip862)" style="fill:#009af9; stroke:none; fill-opacity:0" cx="328.198" cy="217.524" r="2"/>
<circle clip-path="url(#clip862)" style="fill:#009af9; stroke:none; fill-opacity:0" cx="356.377" cy="204.497" r="2"/>
<circle clip-path="url(#clip862)" style="fill:#009af9; stroke:none; fill-opacity:0" cx="384.556" cy="132.106" r="2"/>
<circle clip-path="url(#clip862)" style="fill:#009af9; stroke:none; fill-opacity:0" cx="412.735" cy="136.813" r="2"/>
<circle clip-path="url(#clip862)" style="fill:#009af9; stroke:none; fill-opacity:0" cx="440.915" cy="150.238" r="2"/>
<circle clip-path="url(#clip862)" style="fill:#009af9; stroke:none; fill-opacity:0" cx="469.094" cy="153.996" r="2"/>
<circle clip-path="url(#clip862)" style="fill:#009af9; stroke:none; fill-opacity:0" cx="497.273" cy="179.716" r="2"/>
<circle clip-path="url(#clip862)" style="fill:#009af9; stroke:none; fill-opacity:0" cx="525.452" cy="228.749" r="2"/>
<circle clip-path="url(#clip862)" style="fill:#009af9; stroke:none; fill-opacity:0" cx="553.632" cy="232.601" r="2"/>
<circle clip-path="url(#clip862)" style="fill:#009af9; stroke:none; fill-opacity:0" cx="581.811" cy="110.236" r="2"/>
<circle clip-path="url(#clip862)" style="fill:#009af9; stroke:none; fill-opacity:0" cx="609.99" cy="132.106" r="2"/>
<circle clip-path="url(#clip862)" style="fill:#009af9; stroke:none; fill-opacity:0" cx="638.169" cy="147.617" r="2"/>
<circle clip-path="url(#clip862)" style="fill:#009af9; stroke:none; fill-opacity:0" cx="666.349" cy="158.236" r="2"/>
<circle clip-path="url(#clip862)" style="fill:#009af9; stroke:none; fill-opacity:0" cx="694.528" cy="167.54" r="2"/>
<circle clip-path="url(#clip862)" style="fill:#009af9; stroke:none; fill-opacity:0" cx="722.707" cy="239.962" r="2"/>
<circle clip-path="url(#clip862)" style="fill:#009af9; stroke:none; fill-opacity:0" cx="750.886" cy="245.222" r="2"/>
<circle clip-path="url(#clip862)" style="fill:#009af9; stroke:none; fill-opacity:0" cx="779.066" cy="153.272" r="2"/>
<circle clip-path="url(#clip862)" style="fill:#009af9; stroke:none; fill-opacity:0" cx="807.245" cy="143.358" r="2"/>
<circle clip-path="url(#clip862)" style="fill:#009af9; stroke:none; fill-opacity:0" cx="835.424" cy="150.238" r="2"/>
<circle clip-path="url(#clip862)" style="fill:#009af9; stroke:none; fill-opacity:0" cx="863.603" cy="159.743" r="2"/>
<circle clip-path="url(#clip862)" style="fill:#009af9; stroke:none; fill-opacity:0" cx="891.783" cy="172.862" r="2"/>
<circle clip-path="url(#clip862)" style="fill:#009af9; stroke:none; fill-opacity:0" cx="919.962" cy="249.215" r="2"/>
<circle clip-path="url(#clip862)" style="fill:#009af9; stroke:none; fill-opacity:0" cx="948.141" cy="281.543" r="2"/>
<circle clip-path="url(#clip862)" style="fill:#009af9; stroke:none; fill-opacity:0" cx="976.32" cy="153.815" r="2"/>
<circle clip-path="url(#clip862)" style="fill:#009af9; stroke:none; fill-opacity:0" cx="1004.5" cy="199.823" r="2"/>
<circle clip-path="url(#clip862)" style="fill:#009af9; stroke:none; fill-opacity:0" cx="1032.68" cy="185.324" r="2"/>
<circle clip-path="url(#clip862)" style="fill:#009af9; stroke:none; fill-opacity:0" cx="1060.86" cy="197.296" r="2"/>
<circle clip-path="url(#clip862)" style="fill:#009af9; stroke:none; fill-opacity:0" cx="1089.04" cy="213.793" r="2"/>
<circle clip-path="url(#clip862)" style="fill:#009af9; stroke:none; fill-opacity:0" cx="1117.22" cy="285.828" r="2"/>
<circle clip-path="url(#clip862)" style="fill:#009af9; stroke:none; fill-opacity:0" cx="1145.4" cy="284.864" r="2"/>
<circle clip-path="url(#clip862)" style="fill:#009af9; stroke:none; fill-opacity:0" cx="1173.58" cy="206.895" r="2"/>
<circle clip-path="url(#clip862)" style="fill:#009af9; stroke:none; fill-opacity:0" cx="1201.75" cy="199.823" r="2"/>
<circle clip-path="url(#clip862)" style="fill:#009af9; stroke:none; fill-opacity:0" cx="1229.93" cy="195.307" r="2"/>
<circle clip-path="url(#clip862)" style="fill:#009af9; stroke:none; fill-opacity:0" cx="1258.11" cy="188.57" r="2"/>
<circle clip-path="url(#clip862)" style="fill:#009af9; stroke:none; fill-opacity:0" cx="1286.29" cy="214.076" r="2"/>
<circle clip-path="url(#clip862)" style="fill:#009af9; stroke:none; fill-opacity:0" cx="1314.47" cy="307.284" r="2"/>
<circle clip-path="url(#clip862)" style="fill:#009af9; stroke:none; fill-opacity:0" cx="1342.65" cy="295.347" r="2"/>
<circle clip-path="url(#clip862)" style="fill:#009af9; stroke:none; fill-opacity:0" cx="1370.83" cy="209.887" r="2"/>
<circle clip-path="url(#clip862)" style="fill:#009af9; stroke:none; fill-opacity:0" cx="1399.01" cy="218.108" r="2"/>
<circle clip-path="url(#clip862)" style="fill:#009af9; stroke:none; fill-opacity:0" cx="1427.19" cy="236.902" r="2"/>
<circle clip-path="url(#clip862)" style="fill:#009af9; stroke:none; fill-opacity:0" cx="1455.37" cy="291.257" r="2"/>
<circle clip-path="url(#clip862)" style="fill:#009af9; stroke:none; fill-opacity:0" cx="1483.55" cy="279.682" r="2"/>
<circle clip-path="url(#clip862)" style="fill:#009af9; stroke:none; fill-opacity:0" cx="1511.73" cy="359.278" r="2"/>
<circle clip-path="url(#clip862)" style="fill:#009af9; stroke:none; fill-opacity:0" cx="1539.91" cy="355.978" r="2"/>
<circle clip-path="url(#clip862)" style="fill:#009af9; stroke:none; fill-opacity:0" cx="1568.08" cy="292.776" r="2"/>
<circle clip-path="url(#clip862)" style="fill:#009af9; stroke:none; fill-opacity:0" cx="1596.26" cy="316.076" r="2"/>
<circle clip-path="url(#clip862)" style="fill:#009af9; stroke:none; fill-opacity:0" cx="1624.44" cy="295.347" r="2"/>
<circle clip-path="url(#clip862)" style="fill:#009af9; stroke:none; fill-opacity:0" cx="1652.62" cy="314.87" r="2"/>
<circle clip-path="url(#clip862)" style="fill:#009af9; stroke:none; fill-opacity:0" cx="1680.8" cy="326.135" r="2"/>
<circle clip-path="url(#clip862)" style="fill:#009af9; stroke:none; fill-opacity:0" cx="1708.98" cy="380.006" r="2"/>
<circle clip-path="url(#clip862)" style="fill:#009af9; stroke:none; fill-opacity:0" cx="1737.16" cy="382.962" r="2"/>
<circle clip-path="url(#clip862)" style="fill:#009af9; stroke:none; fill-opacity:0" cx="1765.34" cy="328.107" r="2"/>
<circle clip-path="url(#clip862)" style="fill:#009af9; stroke:none; fill-opacity:0" cx="1793.52" cy="335.599" r="2"/>
<circle clip-path="url(#clip862)" style="fill:#009af9; stroke:none; fill-opacity:0" cx="1821.7" cy="339.868" r="2"/>
<circle clip-path="url(#clip862)" style="fill:#009af9; stroke:none; fill-opacity:0" cx="1849.88" cy="348.836" r="2"/>
<circle clip-path="url(#clip862)" style="fill:#009af9; stroke:none; fill-opacity:0" cx="1878.06" cy="368.794" r="2"/>
<circle clip-path="url(#clip862)" style="fill:#009af9; stroke:none; fill-opacity:0" cx="1906.24" cy="426.034" r="2"/>
<circle clip-path="url(#clip862)" style="fill:#009af9; stroke:none; fill-opacity:0" cx="1934.41" cy="460.221" r="2"/>
<circle clip-path="url(#clip862)" style="fill:#009af9; stroke:none; fill-opacity:0" cx="1962.59" cy="374.283" r="2"/>
<circle clip-path="url(#clip862)" style="fill:#009af9; stroke:none; fill-opacity:0" cx="1990.77" cy="401.06" r="2"/>
<circle clip-path="url(#clip862)" style="fill:#009af9; stroke:none; fill-opacity:0" cx="2018.95" cy="406.882" r="2"/>
<circle clip-path="url(#clip862)" style="fill:#009af9; stroke:none; fill-opacity:0" cx="2047.13" cy="390.122" r="2"/>
<circle clip-path="url(#clip862)" style="fill:#009af9; stroke:none; fill-opacity:0" cx="2075.31" cy="396.578" r="2"/>
<circle clip-path="url(#clip862)" style="fill:#009af9; stroke:none; fill-opacity:0" cx="2103.49" cy="448.373" r="2"/>
<circle clip-path="url(#clip862)" style="fill:#009af9; stroke:none; fill-opacity:0" cx="2131.67" cy="483.329" r="2"/>
<circle clip-path="url(#clip862)" style="fill:#009af9; stroke:none; fill-opacity:0" cx="2159.85" cy="390.122" r="2"/>
<circle clip-path="url(#clip862)" style="fill:#009af9; stroke:none; fill-opacity:0" cx="2188.03" cy="415.482" r="2"/>
<circle clip-path="url(#clip862)" style="fill:#009af9; stroke:none; fill-opacity:0" cx="2216.21" cy="412.968" r="2"/>
<circle clip-path="url(#clip862)" style="fill:#009af9; stroke:none; fill-opacity:0" cx="2244.39" cy="420.654" r="2"/>
<circle clip-path="url(#clip862)" style="fill:#009af9; stroke:none; fill-opacity:0" cx="2272.57" cy="498.905" r="2"/>
<circle clip-path="url(#clip862)" style="fill:#009af9; stroke:none; fill-opacity:0" cx="2300.74" cy="527.737" r="2"/>
<circle clip-path="url(#clip862)" style="fill:#009af9; stroke:none; fill-opacity:0" cx="2328.92" cy="508.689" r="2"/>
<circle clip-path="url(#clip862)" style="fill:#009af9; stroke:none; fill-opacity:0" cx="2357.1" cy="405.698" r="2"/>
<circle clip-path="url(#clip862)" style="fill:#009af9; stroke:none; fill-opacity:0" cx="2385.28" cy="395.48" r="2"/>
<circle clip-path="url(#clip862)" style="fill:#009af9; stroke:none; fill-opacity:0" cx="2413.46" cy="438.987" r="2"/>
<circle clip-path="url(#clip862)" style="fill:#009af9; stroke:none; fill-opacity:0" cx="2441.64" cy="440.507" r="2"/>
<circle clip-path="url(#clip862)" style="fill:#009af9; stroke:none; fill-opacity:0" cx="2469.82" cy="469.372" r="2"/>
<circle clip-path="url(#clip862)" style="fill:#009af9; stroke:none; fill-opacity:0" cx="2498" cy="473.214" r="2"/>
<circle clip-path="url(#clip862)" style="fill:#009af9; stroke:none; fill-opacity:0" cx="2526.18" cy="519.241" r="2"/>
<circle clip-path="url(#clip862)" style="fill:#009af9; stroke:none; fill-opacity:0" cx="2554.36" cy="443.598" r="2"/>
<circle clip-path="url(#clip862)" style="fill:#009af9; stroke:none; fill-opacity:0" cx="2582.54" cy="463.807" r="2"/>
<circle clip-path="url(#clip862)" style="fill:#009af9; stroke:none; fill-opacity:0" cx="2610.72" cy="479.192" r="2"/>
<circle clip-path="url(#clip862)" style="fill:#009af9; stroke:none; fill-opacity:0" cx="2638.9" cy="539.97" r="2"/>
<circle clip-path="url(#clip862)" style="fill:#009af9; stroke:none; fill-opacity:0" cx="2667.08" cy="553.428" r="2"/>
<circle clip-path="url(#clip862)" style="fill:#009af9; stroke:none; fill-opacity:0" cx="2695.25" cy="661.593" r="2"/>
<circle clip-path="url(#clip862)" style="fill:#009af9; stroke:none; fill-opacity:0" cx="2723.43" cy="708.43" r="2"/>
<circle clip-path="url(#clip862)" style="fill:#009af9; stroke:none; fill-opacity:0" cx="2751.61" cy="697.666" r="2"/>
<circle clip-path="url(#clip862)" style="fill:#009af9; stroke:none; fill-opacity:0" cx="2779.79" cy="687.701" r="2"/>
<circle clip-path="url(#clip862)" style="fill:#009af9; stroke:none; fill-opacity:0" cx="2807.97" cy="747.114" r="2"/>
<circle clip-path="url(#clip862)" style="fill:#009af9; stroke:none; fill-opacity:0" cx="2864.33" cy="1042.58" r="2"/>
<circle clip-path="url(#clip862)" style="fill:#009af9; stroke:none; fill-opacity:0" cx="2948.87" cy="1042.58" r="2"/>
</svg>
