<?xml version="1.0" encoding="utf-8"?>
<svg xmlns="http://www.w3.org/2000/svg" xmlns:xlink="http://www.w3.org/1999/xlink" width="800" height="300" viewBox="0 0 3200 1200">
<defs>
  <clipPath id="clip680">
    <rect x="0" y="0" width="3200" height="1200"/>
  </clipPath>
</defs>
<path clip-path="url(#clip680)" d="M0 1200 L3200 1200 L3200 0 L0 0  Z" fill="#ffffff" fill-rule="evenodd" fill-opacity="1"/>
<defs>
  <clipPath id="clip681">
    <rect x="640" y="0" width="2241" height="1200"/>
  </clipPath>
</defs>
<path clip-path="url(#clip680)" d="M271.839 1042.58 L3089.76 1042.58 L3089.76 110.236 L271.839 110.236  Z" fill="#ffffff" fill-rule="evenodd" fill-opacity="1"/>
<defs>
  <clipPath id="clip682">
    <rect x="271" y="110" width="2819" height="933"/>
  </clipPath>
</defs>
<polyline clip-path="url(#clip682)" style="stroke:#000000; stroke-linecap:round; stroke-linejoin:round; stroke-width:2; stroke-opacity:0.1; fill:none" points="891.783,1042.58 891.783,110.236 "/>
<polyline clip-path="url(#clip682)" style="stroke:#000000; stroke-linecap:round; stroke-linejoin:round; stroke-width:2; stroke-opacity:0.1; fill:none" points="1765.34,1042.58 1765.34,110.236 "/>
<polyline clip-path="url(#clip682)" style="stroke:#000000; stroke-linecap:round; stroke-linejoin:round; stroke-width:2; stroke-opacity:0.1; fill:none" points="2610.72,1042.58 2610.72,110.236 "/>
<polyline clip-path="url(#clip680)" style="stroke:#000000; stroke-linecap:round; stroke-linejoin:round; stroke-width:4; stroke-opacity:1; fill:none" points="271.839,1042.58 3089.76,1042.58 "/>
<polyline clip-path="url(#clip680)" style="stroke:#000000; stroke-linecap:round; stroke-linejoin:round; stroke-width:4; stroke-opacity:1; fill:none" points="891.783,1042.58 891.783,1023.68 "/>
<polyline clip-path="url(#clip680)" style="stroke:#000000; stroke-linecap:round; stroke-linejoin:round; stroke-width:4; stroke-opacity:1; fill:none" points="1765.34,1042.58 1765.34,1023.68 "/>
<polyline clip-path="url(#clip680)" style="stroke:#000000; stroke-linecap:round; stroke-linejoin:round; stroke-width:4; stroke-opacity:1; fill:none" points="2610.72,1042.58 2610.72,1023.68 "/>
<path clip-path="url(#clip680)" d="M763.577 1107.44 L779.897 1107.44 L779.897 1111.38 L757.952 1111.38 L757.952 1107.44 Q760.614 1104.69 765.198 1100.06 Q769.804 1095.4 770.985 1094.06 Q773.23 1091.54 774.11 1089.8 Q775.012 1088.04 775.012 1086.35 Q775.012 1083.6 773.068 1081.86 Q771.147 1080.13 768.045 1080.13 Q765.846 1080.13 763.392 1080.89 Q760.962 1081.65 758.184 1083.2 L758.184 1078.48 Q761.008 1077.35 763.462 1076.77 Q765.915 1076.19 767.952 1076.19 Q773.323 1076.19 776.517 1078.88 Q779.711 1081.56 779.711 1086.05 Q779.711 1088.18 778.901 1090.1 Q778.114 1092 776.008 1094.59 Q775.429 1095.26 772.327 1098.48 Q769.225 1101.68 763.577 1107.44 Z" fill="#000000" fill-rule="nonzero" fill-opacity="1" /><path clip-path="url(#clip680)" d="M799.711 1079.89 Q796.1 1079.89 794.272 1083.46 Q792.466 1087 792.466 1094.13 Q792.466 1101.24 794.272 1104.8 Q796.1 1108.34 799.711 1108.34 Q803.346 1108.34 805.151 1104.8 Q806.98 1101.24 806.98 1094.13 Q806.98 1087 805.151 1083.46 Q803.346 1079.89 799.711 1079.89 M799.711 1076.19 Q805.522 1076.19 808.577 1080.8 Q811.656 1085.38 811.656 1094.13 Q811.656 1102.86 808.577 1107.46 Q805.522 1112.05 799.711 1112.05 Q793.901 1112.05 790.823 1107.46 Q787.767 1102.86 787.767 1094.13 Q787.767 1085.38 790.823 1080.8 Q793.901 1076.19 799.711 1076.19 Z" fill="#000000" fill-rule="nonzero" fill-opacity="1" /><path clip-path="url(#clip680)" d="M823.901 1107.44 L840.22 1107.44 L840.22 1111.38 L818.276 1111.38 L818.276 1107.44 Q820.938 1104.69 825.521 1100.06 Q830.128 1095.4 831.308 1094.06 Q833.554 1091.54 834.433 1089.8 Q835.336 1088.04 835.336 1086.35 Q835.336 1083.6 833.392 1081.86 Q831.47 1080.13 828.369 1080.13 Q826.17 1080.13 823.716 1080.89 Q821.285 1081.65 818.508 1083.2 L818.508 1078.48 Q821.332 1077.35 823.785 1076.77 Q826.239 1076.19 828.276 1076.19 Q833.646 1076.19 836.841 1078.88 Q840.035 1081.56 840.035 1086.05 Q840.035 1088.18 839.225 1090.1 Q838.438 1092 836.332 1094.59 Q835.753 1095.26 832.651 1098.48 Q829.549 1101.68 823.901 1107.44 Z" fill="#000000" fill-rule="nonzero" fill-opacity="1" /><path clip-path="url(#clip680)" d="M850.081 1076.82 L868.438 1076.82 L868.438 1080.75 L854.364 1080.75 L854.364 1089.22 Q855.382 1088.88 856.401 1088.71 Q857.419 1088.53 858.438 1088.53 Q864.225 1088.53 867.605 1091.7 Q870.984 1094.87 870.984 1100.29 Q870.984 1105.87 867.512 1108.97 Q864.04 1112.05 857.72 1112.05 Q855.544 1112.05 853.276 1111.68 Q851.031 1111.31 848.623 1110.57 L848.623 1105.87 Q850.706 1107 852.929 1107.56 Q855.151 1108.11 857.628 1108.11 Q861.632 1108.11 863.97 1106.01 Q866.308 1103.9 866.308 1100.29 Q866.308 1096.68 863.97 1094.57 Q861.632 1092.46 857.628 1092.46 Q855.753 1092.46 853.878 1092.88 Q852.026 1093.3 850.081 1094.18 L850.081 1076.82 Z" fill="#000000" fill-rule="nonzero" fill-opacity="1" /><path clip-path="url(#clip680)" d="M877.442 1096.49 L889.919 1096.49 L889.919 1100.29 L877.442 1100.29 L877.442 1096.49 Z" fill="#000000" fill-rule="nonzero" fill-opacity="1" /><path clip-path="url(#clip680)" d="M907.303 1079.89 Q903.692 1079.89 901.864 1083.46 Q900.058 1087 900.058 1094.13 Q900.058 1101.24 901.864 1104.8 Q903.692 1108.34 907.303 1108.34 Q910.938 1108.34 912.743 1104.8 Q914.572 1101.24 914.572 1094.13 Q914.572 1087 912.743 1083.46 Q910.938 1079.89 907.303 1079.89 M907.303 1076.19 Q913.114 1076.19 916.169 1080.8 Q919.248 1085.38 919.248 1094.13 Q919.248 1102.86 916.169 1107.46 Q913.114 1112.05 907.303 1112.05 Q901.493 1112.05 898.415 1107.46 Q895.359 1102.86 895.359 1094.13 Q895.359 1085.38 898.415 1080.8 Q901.493 1076.19 907.303 1076.19 Z" fill="#000000" fill-rule="nonzero" fill-opacity="1" /><path clip-path="url(#clip680)" d="M941.632 1092.74 Q944.988 1093.46 946.863 1095.73 Q948.761 1098 948.761 1101.33 Q948.761 1106.45 945.243 1109.25 Q941.724 1112.05 935.243 1112.05 Q933.067 1112.05 930.752 1111.61 Q928.461 1111.19 926.007 1110.33 L926.007 1105.82 Q927.951 1106.95 930.266 1107.53 Q932.581 1108.11 935.104 1108.11 Q939.502 1108.11 941.794 1106.38 Q944.109 1104.64 944.109 1101.33 Q944.109 1098.27 941.956 1096.56 Q939.826 1094.82 936.007 1094.82 L931.979 1094.82 L931.979 1090.98 L936.192 1090.98 Q939.641 1090.98 941.47 1089.62 Q943.299 1088.23 943.299 1085.64 Q943.299 1082.97 941.4 1081.56 Q939.525 1080.13 936.007 1080.13 Q934.086 1080.13 931.887 1080.54 Q929.688 1080.96 927.049 1081.84 L927.049 1077.67 Q929.711 1076.93 932.025 1076.56 Q934.363 1076.19 936.424 1076.19 Q941.748 1076.19 944.849 1078.62 Q947.951 1081.03 947.951 1085.15 Q947.951 1088.02 946.308 1090.01 Q944.664 1091.98 941.632 1092.74 Z" fill="#000000" fill-rule="nonzero" fill-opacity="1" /><path clip-path="url(#clip680)" d="M954.873 1096.49 L967.349 1096.49 L967.349 1100.29 L954.873 1100.29 L954.873 1096.49 Z" fill="#000000" fill-rule="nonzero" fill-opacity="1" /><path clip-path="url(#clip680)" d="M984.734 1079.89 Q981.122 1079.89 979.294 1083.46 Q977.488 1087 977.488 1094.13 Q977.488 1101.24 979.294 1104.8 Q981.122 1108.34 984.734 1108.34 Q988.368 1108.34 990.173 1104.8 Q992.002 1101.24 992.002 1094.13 Q992.002 1087 990.173 1083.46 Q988.368 1079.89 984.734 1079.89 M984.734 1076.19 Q990.544 1076.19 993.599 1080.8 Q996.678 1085.38 996.678 1094.13 Q996.678 1102.86 993.599 1107.46 Q990.544 1112.05 984.734 1112.05 Q978.923 1112.05 975.845 1107.46 Q972.789 1102.86 972.789 1094.13 Q972.789 1085.38 975.845 1080.8 Q978.923 1076.19 984.734 1076.19 Z" fill="#000000" fill-rule="nonzero" fill-opacity="1" /><path clip-path="url(#clip680)" d="M1005.71 1107.44 L1013.34 1107.44 L1013.34 1081.07 L1005.03 1082.74 L1005.03 1078.48 L1013.3 1076.82 L1017.97 1076.82 L1017.97 1107.44 L1025.61 1107.44 L1025.61 1111.38 L1005.71 1111.38 L1005.71 1107.44 Z" fill="#000000" fill-rule="nonzero" fill-opacity="1" /><path clip-path="url(#clip680)" d="M1637.13 1107.44 L1653.45 1107.44 L1653.45 1111.38 L1631.51 1111.38 L1631.51 1107.44 Q1634.17 1104.69 1638.75 1100.06 Q1643.36 1095.4 1644.54 1094.06 Q1646.79 1091.54 1647.67 1089.8 Q1648.57 1088.04 1648.57 1086.35 Q1648.57 1083.6 1646.62 1081.86 Q1644.7 1080.13 1641.6 1080.13 Q1639.4 1080.13 1636.95 1080.89 Q1634.52 1081.65 1631.74 1083.2 L1631.74 1078.48 Q1634.56 1077.35 1637.02 1076.77 Q1639.47 1076.19 1641.51 1076.19 Q1646.88 1076.19 1650.07 1078.88 Q1653.27 1081.56 1653.27 1086.05 Q1653.27 1088.18 1652.46 1090.1 Q1651.67 1092 1649.56 1094.59 Q1648.99 1095.26 1645.88 1098.48 Q1642.78 1101.68 1637.13 1107.44 Z" fill="#000000" fill-rule="nonzero" fill-opacity="1" /><path clip-path="url(#clip680)" d="M1673.27 1079.89 Q1669.66 1079.89 1667.83 1083.46 Q1666.02 1087 1666.02 1094.13 Q1666.02 1101.24 1667.83 1104.8 Q1669.66 1108.34 1673.27 1108.34 Q1676.9 1108.34 1678.71 1104.8 Q1680.54 1101.24 1680.54 1094.13 Q1680.54 1087 1678.71 1083.46 Q1676.9 1079.89 1673.27 1079.89 M1673.27 1076.19 Q1679.08 1076.19 1682.13 1080.8 Q1685.21 1085.38 1685.21 1094.13 Q1685.21 1102.86 1682.13 1107.46 Q1679.08 1112.05 1673.27 1112.05 Q1667.46 1112.05 1664.38 1107.46 Q1661.32 1102.86 1661.32 1094.13 Q1661.32 1085.38 1664.38 1080.8 Q1667.46 1076.19 1673.27 1076.19 Z" fill="#000000" fill-rule="nonzero" fill-opacity="1" /><path clip-path="url(#clip680)" d="M1697.46 1107.44 L1713.78 1107.44 L1713.78 1111.38 L1691.83 1111.38 L1691.83 1107.44 Q1694.49 1104.69 1699.08 1100.06 Q1703.68 1095.4 1704.87 1094.06 Q1707.11 1091.54 1707.99 1089.8 Q1708.89 1088.04 1708.89 1086.35 Q1708.89 1083.6 1706.95 1081.86 Q1705.03 1080.13 1701.93 1080.13 Q1699.73 1080.13 1697.27 1080.89 Q1694.84 1081.65 1692.06 1083.2 L1692.06 1078.48 Q1694.89 1077.35 1697.34 1076.77 Q1699.8 1076.19 1701.83 1076.19 Q1707.2 1076.19 1710.4 1078.88 Q1713.59 1081.56 1713.59 1086.05 Q1713.59 1088.18 1712.78 1090.1 Q1711.99 1092 1709.89 1094.59 Q1709.31 1095.26 1706.21 1098.48 Q1703.11 1101.68 1697.46 1107.44 Z" fill="#000000" fill-rule="nonzero" fill-opacity="1" /><path clip-path="url(#clip680)" d="M1723.64 1076.82 L1741.99 1076.82 L1741.99 1080.75 L1727.92 1080.75 L1727.92 1089.22 Q1728.94 1088.88 1729.96 1088.71 Q1730.98 1088.53 1731.99 1088.53 Q1737.78 1088.53 1741.16 1091.7 Q1744.54 1094.87 1744.54 1100.29 Q1744.54 1105.87 1741.07 1108.97 Q1737.6 1112.05 1731.28 1112.05 Q1729.1 1112.05 1726.83 1111.68 Q1724.59 1111.31 1722.18 1110.57 L1722.18 1105.87 Q1724.26 1107 1726.49 1107.56 Q1728.71 1108.11 1731.18 1108.11 Q1735.19 1108.11 1737.53 1106.01 Q1739.86 1103.9 1739.86 1100.29 Q1739.86 1096.68 1737.53 1094.57 Q1735.19 1092.46 1731.18 1092.46 Q1729.31 1092.46 1727.43 1092.88 Q1725.58 1093.3 1723.64 1094.18 L1723.64 1076.82 Z" fill="#000000" fill-rule="nonzero" fill-opacity="1" /><path clip-path="url(#clip680)" d="M1751 1096.49 L1763.48 1096.49 L1763.48 1100.29 L1751 1100.29 L1751 1096.49 Z" fill="#000000" fill-rule="nonzero" fill-opacity="1" /><path clip-path="url(#clip680)" d="M1780.86 1079.89 Q1777.25 1079.89 1775.42 1083.46 Q1773.61 1087 1773.61 1094.13 Q1773.61 1101.24 1775.42 1104.8 Q1777.25 1108.34 1780.86 1108.34 Q1784.49 1108.34 1786.3 1104.8 Q1788.13 1101.24 1788.13 1094.13 Q1788.13 1087 1786.3 1083.46 Q1784.49 1079.89 1780.86 1079.89 M1780.86 1076.19 Q1786.67 1076.19 1789.73 1080.8 Q1792.8 1085.38 1792.8 1094.13 Q1792.8 1102.86 1789.73 1107.46 Q1786.67 1112.05 1780.86 1112.05 Q1775.05 1112.05 1771.97 1107.46 Q1768.92 1102.86 1768.92 1094.13 Q1768.92 1085.38 1771.97 1080.8 Q1775.05 1076.19 1780.86 1076.19 Z" fill="#000000" fill-rule="nonzero" fill-opacity="1" /><path clip-path="url(#clip680)" d="M1813.87 1080.89 L1802.06 1099.34 L1813.87 1099.34 L1813.87 1080.89 M1812.64 1076.82 L1818.52 1076.82 L1818.52 1099.34 L1823.45 1099.34 L1823.45 1103.23 L1818.52 1103.23 L1818.52 1111.38 L1813.87 1111.38 L1813.87 1103.23 L1798.27 1103.23 L1798.27 1098.71 L1812.64 1076.82 Z" fill="#000000" fill-rule="nonzero" fill-opacity="1" /><path clip-path="url(#clip680)" d="M1828.43 1096.49 L1840.91 1096.49 L1840.91 1100.29 L1828.43 1100.29 L1828.43 1096.49 Z" fill="#000000" fill-rule="nonzero" fill-opacity="1" /><path clip-path="url(#clip680)" d="M1858.29 1079.89 Q1854.68 1079.89 1852.85 1083.46 Q1851.04 1087 1851.04 1094.13 Q1851.04 1101.24 1852.85 1104.8 Q1854.68 1108.34 1858.29 1108.34 Q1861.92 1108.34 1863.73 1104.8 Q1865.56 1101.24 1865.56 1094.13 Q1865.56 1087 1863.73 1083.46 Q1861.92 1079.89 1858.29 1079.89 M1858.29 1076.19 Q1864.1 1076.19 1867.16 1080.8 Q1870.23 1085.38 1870.23 1094.13 Q1870.23 1102.86 1867.16 1107.46 Q1864.1 1112.05 1858.29 1112.05 Q1852.48 1112.05 1849.4 1107.46 Q1846.35 1102.86 1846.35 1094.13 Q1846.35 1085.38 1849.4 1080.8 Q1852.48 1076.19 1858.29 1076.19 Z" fill="#000000" fill-rule="nonzero" fill-opacity="1" /><path clip-path="url(#clip680)" d="M1879.26 1107.44 L1886.9 1107.44 L1886.9 1081.07 L1878.59 1082.74 L1878.59 1078.48 L1886.85 1076.82 L1891.53 1076.82 L1891.53 1107.44 L1899.17 1107.44 L1899.17 1111.38 L1879.26 1111.38 L1879.26 1107.44 Z" fill="#000000" fill-rule="nonzero" fill-opacity="1" /><path clip-path="url(#clip680)" d="M2482.51 1107.44 L2498.83 1107.44 L2498.83 1111.38 L2476.89 1111.38 L2476.89 1107.44 Q2479.55 1104.69 2484.13 1100.06 Q2488.74 1095.4 2489.92 1094.06 Q2492.16 1091.54 2493.04 1089.8 Q2493.95 1088.04 2493.95 1086.35 Q2493.95 1083.6 2492 1081.86 Q2490.08 1080.13 2486.98 1080.13 Q2484.78 1080.13 2482.33 1080.89 Q2479.9 1081.65 2477.12 1083.2 L2477.12 1078.48 Q2479.94 1077.35 2482.4 1076.77 Q2484.85 1076.19 2486.89 1076.19 Q2492.26 1076.19 2495.45 1078.88 Q2498.65 1081.56 2498.65 1086.05 Q2498.65 1088.18 2497.84 1090.1 Q2497.05 1092 2494.94 1094.59 Q2494.36 1095.26 2491.26 1098.48 Q2488.16 1101.68 2482.51 1107.44 Z" fill="#000000" fill-rule="nonzero" fill-opacity="1" /><path clip-path="url(#clip680)" d="M2518.65 1079.89 Q2515.03 1079.89 2513.21 1083.46 Q2511.4 1087 2511.4 1094.13 Q2511.4 1101.24 2513.21 1104.8 Q2515.03 1108.34 2518.65 1108.34 Q2522.28 1108.34 2524.09 1104.8 Q2525.91 1101.24 2525.91 1094.13 Q2525.91 1087 2524.09 1083.46 Q2522.28 1079.89 2518.65 1079.89 M2518.65 1076.19 Q2524.46 1076.19 2527.51 1080.8 Q2530.59 1085.38 2530.59 1094.13 Q2530.59 1102.86 2527.51 1107.46 Q2524.46 1112.05 2518.65 1112.05 Q2512.84 1112.05 2509.76 1107.46 Q2506.7 1102.86 2506.7 1094.13 Q2506.7 1085.38 2509.76 1080.8 Q2512.84 1076.19 2518.65 1076.19 Z" fill="#000000" fill-rule="nonzero" fill-opacity="1" /><path clip-path="url(#clip680)" d="M2542.84 1107.44 L2559.15 1107.44 L2559.15 1111.38 L2537.21 1111.38 L2537.21 1107.44 Q2539.87 1104.69 2544.46 1100.06 Q2549.06 1095.4 2550.24 1094.06 Q2552.49 1091.54 2553.37 1089.8 Q2554.27 1088.04 2554.27 1086.35 Q2554.27 1083.6 2552.33 1081.86 Q2550.4 1080.13 2547.3 1080.13 Q2545.1 1080.13 2542.65 1080.89 Q2540.22 1081.65 2537.44 1083.2 L2537.44 1078.48 Q2540.27 1077.35 2542.72 1076.77 Q2545.17 1076.19 2547.21 1076.19 Q2552.58 1076.19 2555.77 1078.88 Q2558.97 1081.56 2558.97 1086.05 Q2558.97 1088.18 2558.16 1090.1 Q2557.37 1092 2555.27 1094.59 Q2554.69 1095.26 2551.58 1098.48 Q2548.48 1101.68 2542.84 1107.44 Z" fill="#000000" fill-rule="nonzero" fill-opacity="1" /><path clip-path="url(#clip680)" d="M2569.02 1076.82 L2587.37 1076.82 L2587.37 1080.75 L2573.3 1080.75 L2573.3 1089.22 Q2574.32 1088.88 2575.33 1088.71 Q2576.35 1088.53 2577.37 1088.53 Q2583.16 1088.53 2586.54 1091.7 Q2589.92 1094.87 2589.92 1100.29 Q2589.92 1105.87 2586.45 1108.97 Q2582.97 1112.05 2576.65 1112.05 Q2574.48 1112.05 2572.21 1111.68 Q2569.96 1111.31 2567.56 1110.57 L2567.56 1105.87 Q2569.64 1107 2571.86 1107.56 Q2574.08 1108.11 2576.56 1108.11 Q2580.57 1108.11 2582.9 1106.01 Q2585.24 1103.9 2585.24 1100.29 Q2585.24 1096.68 2582.9 1094.57 Q2580.57 1092.46 2576.56 1092.46 Q2574.69 1092.46 2572.81 1092.88 Q2570.96 1093.3 2569.02 1094.18 L2569.02 1076.82 Z" fill="#000000" fill-rule="nonzero" fill-opacity="1" /><path clip-path="url(#clip680)" d="M2596.38 1096.49 L2608.85 1096.49 L2608.85 1100.29 L2596.38 1100.29 L2596.38 1096.49 Z" fill="#000000" fill-rule="nonzero" fill-opacity="1" /><path clip-path="url(#clip680)" d="M2626.24 1079.89 Q2622.63 1079.89 2620.8 1083.46 Q2618.99 1087 2618.99 1094.13 Q2618.99 1101.24 2620.8 1104.8 Q2622.63 1108.34 2626.24 1108.34 Q2629.87 1108.34 2631.68 1104.8 Q2633.51 1101.24 2633.51 1094.13 Q2633.51 1087 2631.68 1083.46 Q2629.87 1079.89 2626.24 1079.89 M2626.24 1076.19 Q2632.05 1076.19 2635.1 1080.8 Q2638.18 1085.38 2638.18 1094.13 Q2638.18 1102.86 2635.1 1107.46 Q2632.05 1112.05 2626.24 1112.05 Q2620.43 1112.05 2617.35 1107.46 Q2614.29 1102.86 2614.29 1094.13 Q2614.29 1085.38 2617.35 1080.8 Q2620.43 1076.19 2626.24 1076.19 Z" fill="#000000" fill-rule="nonzero" fill-opacity="1" /><path clip-path="url(#clip680)" d="M2646.45 1076.82 L2664.8 1076.82 L2664.8 1080.75 L2650.73 1080.75 L2650.73 1089.22 Q2651.75 1088.88 2652.76 1088.71 Q2653.78 1088.53 2654.8 1088.53 Q2660.59 1088.53 2663.97 1091.7 Q2667.35 1094.87 2667.35 1100.29 Q2667.35 1105.87 2663.88 1108.97 Q2660.4 1112.05 2654.08 1112.05 Q2651.91 1112.05 2649.64 1111.68 Q2647.39 1111.31 2644.99 1110.57 L2644.99 1105.87 Q2647.07 1107 2649.29 1107.56 Q2651.51 1108.11 2653.99 1108.11 Q2658 1108.11 2660.33 1106.01 Q2662.67 1103.9 2662.67 1100.29 Q2662.67 1096.68 2660.33 1094.57 Q2658 1092.46 2653.99 1092.46 Q2652.12 1092.46 2650.24 1092.88 Q2648.39 1093.3 2646.45 1094.18 L2646.45 1076.82 Z" fill="#000000" fill-rule="nonzero" fill-opacity="1" /><path clip-path="url(#clip680)" d="M2673.81 1096.49 L2686.28 1096.49 L2686.28 1100.29 L2673.81 1100.29 L2673.81 1096.49 Z" fill="#000000" fill-rule="nonzero" fill-opacity="1" /><path clip-path="url(#clip680)" d="M2703.67 1079.89 Q2700.06 1079.89 2698.23 1083.46 Q2696.42 1087 2696.42 1094.13 Q2696.42 1101.24 2698.23 1104.8 Q2700.06 1108.34 2703.67 1108.34 Q2707.3 1108.34 2709.11 1104.8 Q2710.94 1101.24 2710.94 1094.13 Q2710.94 1087 2709.11 1083.46 Q2707.3 1079.89 2703.67 1079.89 M2703.67 1076.19 Q2709.48 1076.19 2712.53 1080.8 Q2715.61 1085.38 2715.61 1094.13 Q2715.61 1102.86 2712.53 1107.46 Q2709.48 1112.05 2703.67 1112.05 Q2697.86 1112.05 2694.78 1107.46 Q2691.72 1102.86 2691.72 1094.13 Q2691.72 1085.38 2694.78 1080.8 Q2697.86 1076.19 2703.67 1076.19 Z" fill="#000000" fill-rule="nonzero" fill-opacity="1" /><path clip-path="url(#clip680)" d="M2724.64 1107.44 L2732.28 1107.44 L2732.28 1081.07 L2723.97 1082.74 L2723.97 1078.48 L2732.23 1076.82 L2736.91 1076.82 L2736.91 1107.44 L2744.55 1107.44 L2744.55 1111.38 L2724.64 1111.38 L2724.64 1107.44 Z" fill="#000000" fill-rule="nonzero" fill-opacity="1" /><polyline clip-path="url(#clip682)" style="stroke:#000000; stroke-linecap:round; stroke-linejoin:round; stroke-width:2; stroke-opacity:0.1; fill:none" points="271.839,1042.58 3089.76,1042.58 "/>
<polyline clip-path="url(#clip682)" style="stroke:#000000; stroke-linecap:round; stroke-linejoin:round; stroke-width:2; stroke-opacity:0.1; fill:none" points="271.839,683.209 3089.76,683.209 "/>
<polyline clip-path="url(#clip682)" style="stroke:#000000; stroke-linecap:round; stroke-linejoin:round; stroke-width:2; stroke-opacity:0.1; fill:none" points="271.839,323.841 3089.76,323.841 "/>
<polyline clip-path="url(#clip680)" style="stroke:#000000; stroke-linecap:round; stroke-linejoin:round; stroke-width:4; stroke-opacity:1; fill:none" points="271.839,1042.58 271.839,110.236 "/>
<polyline clip-path="url(#clip680)" style="stroke:#000000; stroke-linecap:round; stroke-linejoin:round; stroke-width:4; stroke-opacity:1; fill:none" points="271.839,1042.58 290.737,1042.58 "/>
<polyline clip-path="url(#clip680)" style="stroke:#000000; stroke-linecap:round; stroke-linejoin:round; stroke-width:4; stroke-opacity:1; fill:none" points="271.839,683.209 290.737,683.209 "/>
<polyline clip-path="url(#clip680)" style="stroke:#000000; stroke-linecap:round; stroke-linejoin:round; stroke-width:4; stroke-opacity:1; fill:none" points="271.839,323.841 290.737,323.841 "/>
<path clip-path="url(#clip680)" d="M153.134 1062.37 L160.772 1062.37 L160.772 1036 L152.462 1037.67 L152.462 1033.41 L160.726 1031.74 L165.402 1031.74 L165.402 1062.37 L173.041 1062.37 L173.041 1066.3 L153.134 1066.3 L153.134 1062.37 Z" fill="#000000" fill-rule="nonzero" fill-opacity="1" /><path clip-path="url(#clip680)" d="M192.485 1034.82 Q188.874 1034.82 187.045 1038.39 Q185.24 1041.93 185.24 1049.06 Q185.24 1056.16 187.045 1059.73 Q188.874 1063.27 192.485 1063.27 Q196.119 1063.27 197.925 1059.73 Q199.754 1056.16 199.754 1049.06 Q199.754 1041.93 197.925 1038.39 Q196.119 1034.82 192.485 1034.82 M192.485 1031.12 Q198.295 1031.12 201.351 1035.72 Q204.43 1040.31 204.43 1049.06 Q204.43 1057.78 201.351 1062.39 Q198.295 1066.97 192.485 1066.97 Q186.675 1066.97 183.596 1062.39 Q180.541 1057.78 180.541 1049.06 Q180.541 1040.31 183.596 1035.72 Q186.675 1031.12 192.485 1031.12 Z" fill="#000000" fill-rule="nonzero" fill-opacity="1" /><path clip-path="url(#clip680)" d="M214.134 1013.31 Q211.2 1013.31 209.715 1016.21 Q208.248 1019.09 208.248 1024.88 Q208.248 1030.66 209.715 1033.55 Q211.2 1036.43 214.134 1036.43 Q217.087 1036.43 218.554 1033.55 Q220.04 1030.66 220.04 1024.88 Q220.04 1019.09 218.554 1016.21 Q217.087 1013.31 214.134 1013.31 M214.134 1010.31 Q218.855 1010.31 221.338 1014.05 Q223.839 1017.77 223.839 1024.88 Q223.839 1031.97 221.338 1035.71 Q218.855 1039.44 214.134 1039.44 Q209.414 1039.44 206.912 1035.71 Q204.43 1031.97 204.43 1024.88 Q204.43 1017.77 206.912 1014.05 Q209.414 1010.31 214.134 1010.31 Z" fill="#000000" fill-rule="nonzero" fill-opacity="1" /><path clip-path="url(#clip680)" d="M155.823 703.001 L163.462 703.001 L163.462 676.635 L155.152 678.302 L155.152 674.043 L163.416 672.376 L168.092 672.376 L168.092 703.001 L175.73 703.001 L175.73 706.936 L155.823 706.936 L155.823 703.001 Z" fill="#000000" fill-rule="nonzero" fill-opacity="1" /><path clip-path="url(#clip680)" d="M195.175 675.455 Q191.564 675.455 189.735 679.02 Q187.929 682.561 187.929 689.691 Q187.929 696.797 189.735 700.362 Q191.564 703.904 195.175 703.904 Q198.809 703.904 200.615 700.362 Q202.443 696.797 202.443 689.691 Q202.443 682.561 200.615 679.02 Q198.809 675.455 195.175 675.455 M195.175 671.751 Q200.985 671.751 204.04 676.358 Q207.119 680.941 207.119 689.691 Q207.119 698.418 204.04 703.024 Q200.985 707.607 195.175 707.607 Q189.365 707.607 186.286 703.024 Q183.23 698.418 183.23 689.691 Q183.23 680.941 186.286 676.358 Q189.365 671.751 195.175 671.751 Z" fill="#000000" fill-rule="nonzero" fill-opacity="1" /><path clip-path="url(#clip680)" d="M207.665 676.328 L213.871 676.328 L213.871 654.906 L207.119 656.261 L207.119 652.8 L213.833 651.446 L217.633 651.446 L217.633 676.328 L223.839 676.328 L223.839 679.526 L207.665 679.526 L207.665 676.328 Z" fill="#000000" fill-rule="nonzero" fill-opacity="1" /><path clip-path="url(#clip680)" d="M154.713 343.634 L162.352 343.634 L162.352 317.268 L154.042 318.935 L154.042 314.676 L162.306 313.009 L166.982 313.009 L166.982 343.634 L174.621 343.634 L174.621 347.569 L154.713 347.569 L154.713 343.634 Z" fill="#000000" fill-rule="nonzero" fill-opacity="1" /><path clip-path="url(#clip680)" d="M194.065 316.088 Q190.454 316.088 188.625 319.652 Q186.82 323.194 186.82 330.324 Q186.82 337.43 188.625 340.995 Q190.454 344.537 194.065 344.537 Q197.699 344.537 199.505 340.995 Q201.334 337.43 201.334 330.324 Q201.334 323.194 199.505 319.652 Q197.699 316.088 194.065 316.088 M194.065 312.384 Q199.875 312.384 202.931 316.99 Q206.009 321.574 206.009 330.324 Q206.009 339.051 202.931 343.657 Q199.875 348.24 194.065 348.24 Q188.255 348.24 185.176 343.657 Q182.121 339.051 182.121 330.324 Q182.121 321.574 185.176 316.99 Q188.255 312.384 194.065 312.384 Z" fill="#000000" fill-rule="nonzero" fill-opacity="1" /><path clip-path="url(#clip680)" d="M210.58 316.961 L223.839 316.961 L223.839 320.159 L206.009 320.159 L206.009 316.961 Q208.172 314.723 211.896 310.962 Q215.639 307.181 216.598 306.09 Q218.423 304.04 219.137 302.63 Q219.871 301.2 219.871 299.827 Q219.871 297.589 218.291 296.179 Q216.73 294.768 214.21 294.768 Q212.423 294.768 210.429 295.389 Q208.454 296.009 206.198 297.27 L206.198 293.433 Q208.492 292.511 210.486 292.041 Q212.479 291.571 214.134 291.571 Q218.498 291.571 221.093 293.752 Q223.689 295.934 223.689 299.583 Q223.689 301.313 223.03 302.874 Q222.391 304.416 220.68 306.523 Q220.209 307.068 217.689 309.683 Q215.169 312.278 210.58 316.961 Z" fill="#000000" fill-rule="nonzero" fill-opacity="1" /><path clip-path="url(#clip680)" d="M83.4268 869.897 L70.6636 869.897 L70.6636 880.4 L65.38 880.4 L65.38 863.531 L85.7821 863.531 Q88.4239 867.255 89.7925 871.743 Q91.1293 876.231 91.1293 881.323 Q91.1293 892.463 84.6363 898.765 Q78.1114 905.036 66.494 905.036 Q54.8448 905.036 48.3518 898.765 Q41.8269 892.463 41.8269 881.323 Q41.8269 876.676 42.9727 872.507 Q44.1186 868.305 46.3466 864.772 L53.1897 864.772 Q50.166 868.337 48.6382 872.348 Q47.1104 876.358 47.1104 880.782 Q47.1104 889.503 51.9802 893.896 Q56.85 898.256 66.494 898.256 Q76.1062 898.256 80.976 893.896 Q85.8458 889.503 85.8458 880.782 Q85.8458 877.377 85.2729 874.703 Q84.6681 872.029 83.4268 869.897 Z" fill="#000000" fill-rule="nonzero" fill-opacity="1" /><path clip-path="url(#clip680)" d="M70.9182 821.549 L73.7828 821.549 L73.7828 848.476 Q79.8302 848.094 83.013 844.848 Q86.1641 841.569 86.1641 835.745 Q86.1641 832.371 85.3365 829.22 Q84.509 826.037 82.8539 822.918 L88.3921 822.918 Q89.7289 826.069 90.4291 829.379 Q91.1293 832.689 91.1293 836.095 Q91.1293 844.625 86.1641 849.622 Q81.1988 854.587 72.7324 854.587 Q63.9796 854.587 58.8552 849.877 Q53.699 845.134 53.699 837.113 Q53.699 829.92 58.3459 825.751 Q62.9611 821.549 70.9182 821.549 M69.1995 827.406 Q64.3933 827.469 61.5288 830.111 Q58.6642 832.721 58.6642 837.05 Q58.6642 841.951 61.4333 844.911 Q64.2024 847.84 69.2313 848.285 L69.1995 827.406 Z" fill="#000000" fill-rule="nonzero" fill-opacity="1" /><path clip-path="url(#clip680)" d="M68.6902 782.305 L90.2063 782.305 L90.2063 788.161 L68.8812 788.161 Q63.8204 788.161 61.306 790.135 Q58.7915 792.108 58.7915 796.055 Q58.7915 800.797 61.8152 803.534 Q64.8389 806.272 70.0588 806.272 L90.2063 806.272 L90.2063 812.16 L54.5583 812.16 L54.5583 806.272 L60.0965 806.272 Q56.8818 804.171 55.2904 801.338 Q53.699 798.474 53.699 794.75 Q53.699 788.607 57.5184 785.456 Q61.306 782.305 68.6902 782.305 Z" fill="#000000" fill-rule="nonzero" fill-opacity="1" /><path clip-path="url(#clip680)" d="M58.6642 756.81 Q58.6642 761.521 62.3563 764.258 Q66.0166 766.995 72.4141 766.995 Q78.8117 766.995 82.5038 764.29 Q86.1641 761.553 86.1641 756.81 Q86.1641 752.131 82.4719 749.394 Q78.7798 746.657 72.4141 746.657 Q66.0803 746.657 62.3881 749.394 Q58.6642 752.131 58.6642 756.81 M53.699 756.81 Q53.699 749.171 58.6642 744.811 Q63.6295 740.45 72.4141 740.45 Q81.167 740.45 86.1641 744.811 Q91.1293 749.171 91.1293 756.81 Q91.1293 764.481 86.1641 768.841 Q81.167 773.17 72.4141 773.17 Q63.6295 773.17 58.6642 768.841 Q53.699 764.481 53.699 756.81 Z" fill="#000000" fill-rule="nonzero" fill-opacity="1" /><path clip-path="url(#clip680)" d="M61.4015 702.988 Q57.4547 700.792 55.5768 697.736 Q53.699 694.681 53.699 690.543 Q53.699 684.973 57.6139 681.949 Q61.4969 678.926 68.6902 678.926 L90.2063 678.926 L90.2063 684.814 L68.8812 684.814 Q63.7568 684.814 61.2741 686.628 Q58.7915 688.442 58.7915 692.166 Q58.7915 696.718 61.8152 699.36 Q64.8389 702.001 70.0588 702.001 L90.2063 702.001 L90.2063 707.89 L68.8812 707.89 Q63.7249 707.89 61.2741 709.704 Q58.7915 711.518 58.7915 715.306 Q58.7915 719.794 61.8471 722.435 Q64.8708 725.077 70.0588 725.077 L90.2063 725.077 L90.2063 730.965 L54.5583 730.965 L54.5583 725.077 L60.0965 725.077 Q56.8182 723.072 55.2586 720.271 Q53.699 717.47 53.699 713.619 Q53.699 709.736 55.6723 707.03 Q57.6457 704.293 61.4015 702.988 Z" fill="#000000" fill-rule="nonzero" fill-opacity="1" /><path clip-path="url(#clip680)" d="M70.9182 636.753 L73.7828 636.753 L73.7828 663.68 Q79.8302 663.298 83.013 660.051 Q86.1641 656.773 86.1641 650.948 Q86.1641 647.575 85.3365 644.424 Q84.509 641.241 82.8539 638.122 L88.3921 638.122 Q89.7289 641.273 90.4291 644.583 Q91.1293 647.893 91.1293 651.299 Q91.1293 659.829 86.1641 664.826 Q81.1988 669.791 72.7324 669.791 Q63.9796 669.791 58.8552 665.08 Q53.699 660.338 53.699 652.317 Q53.699 645.124 58.3459 640.954 Q62.9611 636.753 70.9182 636.753 M69.1995 642.609 Q64.3933 642.673 61.5288 645.315 Q58.6642 647.925 58.6642 652.253 Q58.6642 657.155 61.4333 660.115 Q64.2024 663.043 69.2313 663.489 L69.1995 642.609 Z" fill="#000000" fill-rule="nonzero" fill-opacity="1" /><path clip-path="url(#clip680)" d="M55.6087 604.415 L61.1468 604.415 Q59.8737 606.898 59.2371 609.571 Q58.6006 612.245 58.6006 615.109 Q58.6006 619.47 59.9373 621.666 Q61.2741 623.83 63.9477 623.83 Q65.9848 623.83 67.1624 622.271 Q68.3083 620.711 69.3586 616.001 L69.8042 613.995 Q71.141 607.757 73.5918 605.147 Q76.0108 602.505 80.3713 602.505 Q85.3365 602.505 88.2329 606.452 Q91.1293 610.367 91.1293 617.242 Q91.1293 620.107 90.5564 623.226 Q90.0153 626.313 88.9013 629.751 L82.8539 629.751 Q84.5408 626.504 85.4002 623.353 Q86.2277 620.202 86.2277 617.115 Q86.2277 612.977 84.8273 610.749 Q83.395 608.521 80.8169 608.521 Q78.4297 608.521 77.1566 610.144 Q75.8834 611.736 74.7058 617.178 L74.2284 619.215 Q73.0825 624.658 70.7272 627.077 Q68.3401 629.496 64.2024 629.496 Q59.1735 629.496 56.4362 625.931 Q53.699 622.366 53.699 615.81 Q53.699 612.563 54.1764 609.699 Q54.6538 606.834 55.6087 604.415 Z" fill="#000000" fill-rule="nonzero" fill-opacity="1" /><path clip-path="url(#clip680)" d="M42.6863 582.772 L42.6863 577.361 L96.2537 593.912 L96.2537 599.323 L42.6863 582.772 Z" fill="#000000" fill-rule="nonzero" fill-opacity="1" /><path clip-path="url(#clip680)" d="M47.9698 564.534 L84.9227 564.534 L84.9227 556.768 Q84.9227 546.933 80.4668 542.381 Q76.0108 537.798 66.3985 537.798 Q56.85 537.798 52.4258 542.381 Q47.9698 546.933 47.9698 556.768 L47.9698 564.534 M42.6863 570.963 L42.6863 557.754 Q42.6863 543.941 48.4472 537.48 Q54.1764 531.018 66.3985 531.018 Q78.6844 531.018 84.4453 537.512 Q90.2063 544.005 90.2063 557.754 L90.2063 570.963 L42.6863 570.963 Z" fill="#000000" fill-rule="nonzero" fill-opacity="1" /><path clip-path="url(#clip680)" d="M72.2868 504.824 Q72.2868 511.921 73.9101 514.659 Q75.5333 517.396 79.4482 517.396 Q82.5674 517.396 84.4135 515.359 Q86.2277 513.29 86.2277 509.757 Q86.2277 504.887 82.7902 501.959 Q79.3209 498.999 73.5918 498.999 L72.2868 498.999 L72.2868 504.824 M69.8679 493.143 L90.2063 493.143 L90.2063 498.999 L84.7954 498.999 Q88.0419 501.004 89.6015 503.996 Q91.1293 506.988 91.1293 511.317 Q91.1293 516.791 88.0738 520.038 Q84.9864 523.252 79.8302 523.252 Q73.8146 523.252 70.759 519.242 Q67.7035 515.2 67.7035 507.211 L67.7035 498.999 L67.1306 498.999 Q63.0884 498.999 60.8922 501.673 Q58.6642 504.314 58.6642 509.12 Q58.6642 512.176 59.3963 515.072 Q60.1283 517.969 61.5924 520.642 L56.1816 520.642 Q54.9403 517.428 54.3355 514.404 Q53.699 511.38 53.699 508.516 Q53.699 500.781 57.7094 496.962 Q61.7197 493.143 69.8679 493.143 Z" fill="#000000" fill-rule="nonzero" fill-opacity="1" /><path clip-path="url(#clip680)" d="M93.5165 466.247 Q99.8822 468.73 101.824 471.085 Q103.765 473.441 103.765 477.387 L103.765 482.066 L98.8636 482.066 L98.8636 478.629 Q98.8636 476.21 97.7178 474.873 Q96.572 473.536 92.307 471.913 L89.6334 470.863 L54.5583 485.281 L54.5583 479.074 L82.4401 467.934 L54.5583 456.794 L54.5583 450.588 L93.5165 466.247 Z" fill="#000000" fill-rule="nonzero" fill-opacity="1" /><path clip-path="url(#clip680)" d="M40.7447 407.715 Q48.0653 411.98 55.2267 414.049 Q62.3881 416.117 69.7405 416.117 Q77.0929 416.117 84.318 414.049 Q91.5113 411.948 98.8 407.715 L98.8 412.807 Q91.3203 417.582 84.0952 419.969 Q76.8701 422.324 69.7405 422.324 Q62.6428 422.324 55.4495 419.969 Q48.2563 417.613 40.7447 412.807 L40.7447 407.715 Z" fill="#000000" fill-rule="nonzero" fill-opacity="1" /><path clip-path="url(#clip680)" d="M42.6863 396.829 L42.6863 390.368 L71.5548 390.368 Q79.1936 390.368 82.5674 387.599 Q85.9094 384.83 85.9094 378.623 Q85.9094 372.449 82.5674 369.68 Q79.1936 366.911 71.5548 366.911 L42.6863 366.911 L42.6863 360.449 L72.3505 360.449 Q81.6444 360.449 86.3869 365.065 Q91.1293 369.648 91.1293 378.623 Q91.1293 387.631 86.3869 392.246 Q81.6444 396.829 72.3505 396.829 L42.6863 396.829 Z" fill="#000000" fill-rule="nonzero" fill-opacity="1" /><path clip-path="url(#clip680)" d="M44.2459 319.9 L50.5161 319.9 Q48.7655 323.56 47.9062 326.807 Q47.0468 330.053 47.0468 333.077 Q47.0468 338.329 49.0838 341.193 Q51.1208 344.026 54.8766 344.026 Q58.0276 344.026 59.6509 342.148 Q61.2423 340.238 62.229 334.955 L63.0247 331.072 Q64.3933 323.878 67.8627 320.473 Q71.3001 317.035 77.0929 317.035 Q83.9997 317.035 87.5645 321.682 Q91.1293 326.297 91.1293 335.241 Q91.1293 338.615 90.3654 342.434 Q89.6015 346.222 88.1056 350.296 L81.4853 350.296 Q83.6814 346.381 84.7954 342.625 Q85.9094 338.87 85.9094 335.241 Q85.9094 329.735 83.7451 326.743 Q81.5808 323.751 77.5704 323.751 Q74.0692 323.751 72.0958 325.915 Q70.1225 328.048 69.1358 332.95 L68.3719 336.864 Q66.9396 344.058 63.8841 347.272 Q60.8285 350.487 55.3859 350.487 Q49.0838 350.487 45.4554 346.063 Q41.8269 341.607 41.8269 333.809 Q41.8269 330.467 42.4317 326.998 Q43.0364 323.528 44.2459 319.9 Z" fill="#000000" fill-rule="nonzero" fill-opacity="1" /><path clip-path="url(#clip680)" d="M49.0202 289.917 L72.6688 298.638 L72.6688 281.165 L49.0202 289.917 M42.6863 293.546 L42.6863 286.257 L90.2063 268.147 L90.2063 274.831 L78.016 279.159 L78.016 300.58 L90.2063 304.909 L90.2063 311.688 L42.6863 293.546 Z" fill="#000000" fill-rule="nonzero" fill-opacity="1" /><path clip-path="url(#clip680)" d="M40.7447 262.386 L40.7447 257.293 Q48.2563 252.519 55.4495 250.164 Q62.6428 247.776 69.7405 247.776 Q76.8701 247.776 84.0952 250.164 Q91.3203 252.519 98.8 257.293 L98.8 262.386 Q91.5113 258.152 84.318 256.084 Q77.0929 253.983 69.7405 253.983 Q62.3881 253.983 55.2267 256.084 Q48.0653 258.152 40.7447 262.386 Z" fill="#000000" fill-rule="nonzero" fill-opacity="1" /><path clip-path="url(#clip682)" d="M288.747 226.15 L288.747 1042.58 L311.29 1042.58 L311.29 226.15 L288.747 226.15 L288.747 226.15  Z" fill="#009af9" fill-rule="evenodd" fill-opacity="0.5"/>
<polyline clip-path="url(#clip682)" style="stroke:#000000; stroke-linecap:round; stroke-linejoin:round; stroke-width:4; stroke-opacity:0.5; fill:none" points="288.747,226.15 288.747,1042.58 311.29,1042.58 311.29,226.15 288.747,226.15 "/>
<path clip-path="url(#clip682)" d="M316.926 218.814 L316.926 1042.58 L339.469 1042.58 L339.469 218.814 L316.926 218.814 L316.926 218.814  Z" fill="#009af9" fill-rule="evenodd" fill-opacity="0.5"/>
<polyline clip-path="url(#clip682)" style="stroke:#000000; stroke-linecap:round; stroke-linejoin:round; stroke-width:4; stroke-opacity:0.5; fill:none" points="316.926,218.814 316.926,1042.58 339.469,1042.58 339.469,218.814 316.926,218.814 "/>
<path clip-path="url(#clip682)" d="M345.105 110.236 L345.105 1042.58 L367.649 1042.58 L367.649 110.236 L345.105 110.236 L345.105 110.236  Z" fill="#009af9" fill-rule="evenodd" fill-opacity="0.5"/>
<polyline clip-path="url(#clip682)" style="stroke:#000000; stroke-linecap:round; stroke-linejoin:round; stroke-width:4; stroke-opacity:0.5; fill:none" points="345.105,110.236 345.105,1042.58 367.649,1042.58 367.649,110.236 345.105,110.236 "/>
<path clip-path="url(#clip682)" d="M373.285 137.978 L373.285 1042.58 L395.828 1042.58 L395.828 137.978 L373.285 137.978 L373.285 137.978  Z" fill="#009af9" fill-rule="evenodd" fill-opacity="0.5"/>
<polyline clip-path="url(#clip682)" style="stroke:#000000; stroke-linecap:round; stroke-linejoin:round; stroke-width:4; stroke-opacity:0.5; fill:none" points="373.285,137.978 373.285,1042.58 395.828,1042.58 395.828,137.978 373.285,137.978 "/>
<path clip-path="url(#clip682)" d="M401.464 141.82 L401.464 1042.58 L424.007 1042.58 L424.007 141.82 L401.464 141.82 L401.464 141.82  Z" fill="#009af9" fill-rule="evenodd" fill-opacity="0.5"/>
<polyline clip-path="url(#clip682)" style="stroke:#000000; stroke-linecap:round; stroke-linejoin:round; stroke-width:4; stroke-opacity:0.5; fill:none" points="401.464,141.82 401.464,1042.58 424.007,1042.58 424.007,141.82 401.464,141.82 "/>
<path clip-path="url(#clip682)" d="M429.643 143.286 L429.643 1042.58 L452.186 1042.58 L452.186 143.286 L429.643 143.286 L429.643 143.286  Z" fill="#009af9" fill-rule="evenodd" fill-opacity="0.5"/>
<polyline clip-path="url(#clip682)" style="stroke:#000000; stroke-linecap:round; stroke-linejoin:round; stroke-width:4; stroke-opacity:0.5; fill:none" points="429.643,143.286 429.643,1042.58 452.186,1042.58 452.186,143.286 429.643,143.286 "/>
<path clip-path="url(#clip682)" d="M457.822 157.133 L457.822 1042.58 L480.366 1042.58 L480.366 157.133 L457.822 157.133 L457.822 157.133  Z" fill="#009af9" fill-rule="evenodd" fill-opacity="0.5"/>
<polyline clip-path="url(#clip682)" style="stroke:#000000; stroke-linecap:round; stroke-linejoin:round; stroke-width:4; stroke-opacity:0.5; fill:none" points="457.822,157.133 457.822,1042.58 480.366,1042.58 480.366,157.133 457.822,157.133 "/>
<path clip-path="url(#clip682)" d="M486.001 216.443 L486.001 1042.58 L508.545 1042.58 L508.545 216.443 L486.001 216.443 L486.001 216.443  Z" fill="#009af9" fill-rule="evenodd" fill-opacity="0.5"/>
<polyline clip-path="url(#clip682)" style="stroke:#000000; stroke-linecap:round; stroke-linejoin:round; stroke-width:4; stroke-opacity:0.5; fill:none" points="486.001,216.443 486.001,1042.58 508.545,1042.58 508.545,216.443 486.001,216.443 "/>
<path clip-path="url(#clip682)" d="M514.181 231.24 L514.181 1042.58 L536.724 1042.58 L536.724 231.24 L514.181 231.24 L514.181 231.24  Z" fill="#009af9" fill-rule="evenodd" fill-opacity="0.5"/>
<polyline clip-path="url(#clip682)" style="stroke:#000000; stroke-linecap:round; stroke-linejoin:round; stroke-width:4; stroke-opacity:0.5; fill:none" points="514.181,231.24 514.181,1042.58 536.724,1042.58 536.724,231.24 514.181,231.24 "/>
<path clip-path="url(#clip682)" d="M542.36 140.851 L542.36 1042.58 L564.903 1042.58 L564.903 140.851 L542.36 140.851 L542.36 140.851  Z" fill="#009af9" fill-rule="evenodd" fill-opacity="0.5"/>
<polyline clip-path="url(#clip682)" style="stroke:#000000; stroke-linecap:round; stroke-linejoin:round; stroke-width:4; stroke-opacity:0.5; fill:none" points="542.36,140.851 542.36,1042.58 564.903,1042.58 564.903,140.851 542.36,140.851 "/>
<path clip-path="url(#clip682)" d="M570.539 150.827 L570.539 1042.58 L593.083 1042.58 L593.083 150.827 L570.539 150.827 L570.539 150.827  Z" fill="#009af9" fill-rule="evenodd" fill-opacity="0.5"/>
<polyline clip-path="url(#clip682)" style="stroke:#000000; stroke-linecap:round; stroke-linejoin:round; stroke-width:4; stroke-opacity:0.5; fill:none" points="570.539,150.827 570.539,1042.58 593.083,1042.58 593.083,150.827 570.539,150.827 "/>
<path clip-path="url(#clip682)" d="M598.718 180.212 L598.718 1042.58 L621.262 1042.58 L621.262 180.212 L598.718 180.212 L598.718 180.212  Z" fill="#009af9" fill-rule="evenodd" fill-opacity="0.5"/>
<polyline clip-path="url(#clip682)" style="stroke:#000000; stroke-linecap:round; stroke-linejoin:round; stroke-width:4; stroke-opacity:0.5; fill:none" points="598.718,180.212 598.718,1042.58 621.262,1042.58 621.262,180.212 598.718,180.212 "/>
<path clip-path="url(#clip682)" d="M626.898 172.331 L626.898 1042.58 L649.441 1042.58 L649.441 172.331 L626.898 172.331 L626.898 172.331  Z" fill="#009af9" fill-rule="evenodd" fill-opacity="0.5"/>
<polyline clip-path="url(#clip682)" style="stroke:#000000; stroke-linecap:round; stroke-linejoin:round; stroke-width:4; stroke-opacity:0.5; fill:none" points="626.898,172.331 626.898,1042.58 649.441,1042.58 649.441,172.331 626.898,172.331 "/>
<path clip-path="url(#clip682)" d="M655.077 191.826 L655.077 1042.58 L677.62 1042.58 L677.62 191.826 L655.077 191.826 L655.077 191.826  Z" fill="#009af9" fill-rule="evenodd" fill-opacity="0.5"/>
<polyline clip-path="url(#clip682)" style="stroke:#000000; stroke-linecap:round; stroke-linejoin:round; stroke-width:4; stroke-opacity:0.5; fill:none" points="655.077,191.826 655.077,1042.58 677.62,1042.58 677.62,191.826 655.077,191.826 "/>
<path clip-path="url(#clip682)" d="M683.256 221.221 L683.256 1042.58 L705.8 1042.58 L705.8 221.221 L683.256 221.221 L683.256 221.221  Z" fill="#009af9" fill-rule="evenodd" fill-opacity="0.5"/>
<polyline clip-path="url(#clip682)" style="stroke:#000000; stroke-linecap:round; stroke-linejoin:round; stroke-width:4; stroke-opacity:0.5; fill:none" points="683.256,221.221 683.256,1042.58 705.8,1042.58 705.8,221.221 683.256,221.221 "/>
<path clip-path="url(#clip682)" d="M711.435 292.807 L711.435 1042.58 L733.979 1042.58 L733.979 292.807 L711.435 292.807 L711.435 292.807  Z" fill="#009af9" fill-rule="evenodd" fill-opacity="0.5"/>
<polyline clip-path="url(#clip682)" style="stroke:#000000; stroke-linecap:round; stroke-linejoin:round; stroke-width:4; stroke-opacity:0.5; fill:none" points="711.435,292.807 711.435,1042.58 733.979,1042.58 733.979,292.807 711.435,292.807 "/>
<path clip-path="url(#clip682)" d="M739.615 152.38 L739.615 1042.58 L762.158 1042.58 L762.158 152.38 L739.615 152.38 L739.615 152.38  Z" fill="#009af9" fill-rule="evenodd" fill-opacity="0.5"/>
<polyline clip-path="url(#clip682)" style="stroke:#000000; stroke-linecap:round; stroke-linejoin:round; stroke-width:4; stroke-opacity:0.5; fill:none" points="739.615,152.38 739.615,1042.58 762.158,1042.58 762.158,152.38 739.615,152.38 "/>
<path clip-path="url(#clip682)" d="M767.794 156.598 L767.794 1042.58 L790.337 1042.58 L790.337 156.598 L767.794 156.598 L767.794 156.598  Z" fill="#009af9" fill-rule="evenodd" fill-opacity="0.5"/>
<polyline clip-path="url(#clip682)" style="stroke:#000000; stroke-linecap:round; stroke-linejoin:round; stroke-width:4; stroke-opacity:0.5; fill:none" points="767.794,156.598 767.794,1042.58 790.337,1042.58 790.337,156.598 767.794,156.598 "/>
<path clip-path="url(#clip682)" d="M795.973 168.823 L795.973 1042.58 L818.517 1042.58 L818.517 168.823 L795.973 168.823 L795.973 168.823  Z" fill="#009af9" fill-rule="evenodd" fill-opacity="0.5"/>
<polyline clip-path="url(#clip682)" style="stroke:#000000; stroke-linecap:round; stroke-linejoin:round; stroke-width:4; stroke-opacity:0.5; fill:none" points="795.973,168.823 795.973,1042.58 818.517,1042.58 818.517,168.823 795.973,168.823 "/>
<path clip-path="url(#clip682)" d="M824.152 163.706 L824.152 1042.58 L846.696 1042.58 L846.696 163.706 L824.152 163.706 L824.152 163.706  Z" fill="#009af9" fill-rule="evenodd" fill-opacity="0.5"/>
<polyline clip-path="url(#clip682)" style="stroke:#000000; stroke-linecap:round; stroke-linejoin:round; stroke-width:4; stroke-opacity:0.5; fill:none" points="824.152,163.706 824.152,1042.58 846.696,1042.58 846.696,163.706 824.152,163.706 "/>
<path clip-path="url(#clip682)" d="M852.332 192.497 L852.332 1042.58 L874.875 1042.58 L874.875 192.497 L852.332 192.497 L852.332 192.497  Z" fill="#009af9" fill-rule="evenodd" fill-opacity="0.5"/>
<polyline clip-path="url(#clip682)" style="stroke:#000000; stroke-linecap:round; stroke-linejoin:round; stroke-width:4; stroke-opacity:0.5; fill:none" points="852.332,192.497 852.332,1042.58 874.875,1042.58 874.875,192.497 852.332,192.497 "/>
<path clip-path="url(#clip682)" d="M880.511 259.523 L880.511 1042.58 L903.054 1042.58 L903.054 259.523 L880.511 259.523 L880.511 259.523  Z" fill="#009af9" fill-rule="evenodd" fill-opacity="0.5"/>
<polyline clip-path="url(#clip682)" style="stroke:#000000; stroke-linecap:round; stroke-linejoin:round; stroke-width:4; stroke-opacity:0.5; fill:none" points="880.511,259.523 880.511,1042.58 903.054,1042.58 903.054,259.523 880.511,259.523 "/>
<path clip-path="url(#clip682)" d="M908.69 258.493 L908.69 1042.58 L931.234 1042.58 L931.234 258.493 L908.69 258.493 L908.69 258.493  Z" fill="#009af9" fill-rule="evenodd" fill-opacity="0.5"/>
<polyline clip-path="url(#clip682)" style="stroke:#000000; stroke-linecap:round; stroke-linejoin:round; stroke-width:4; stroke-opacity:0.5; fill:none" points="908.69,258.493 908.69,1042.58 931.234,1042.58 931.234,258.493 908.69,258.493 "/>
<path clip-path="url(#clip682)" d="M936.869 153.424 L936.869 1042.58 L959.413 1042.58 L959.413 153.424 L936.869 153.424 L936.869 153.424  Z" fill="#009af9" fill-rule="evenodd" fill-opacity="0.5"/>
<polyline clip-path="url(#clip682)" style="stroke:#000000; stroke-linecap:round; stroke-linejoin:round; stroke-width:4; stroke-opacity:0.5; fill:none" points="936.869,153.424 936.869,1042.58 959.413,1042.58 959.413,153.424 936.869,153.424 "/>
<path clip-path="url(#clip682)" d="M965.049 189.169 L965.049 1042.58 L987.592 1042.58 L987.592 189.169 L965.049 189.169 L965.049 189.169  Z" fill="#009af9" fill-rule="evenodd" fill-opacity="0.5"/>
<polyline clip-path="url(#clip682)" style="stroke:#000000; stroke-linecap:round; stroke-linejoin:round; stroke-width:4; stroke-opacity:0.5; fill:none" points="965.049,189.169 965.049,1042.58 987.592,1042.58 987.592,189.169 965.049,189.169 "/>
<path clip-path="url(#clip682)" d="M993.228 182.719 L993.228 1042.58 L1015.77 1042.58 L1015.77 182.719 L993.228 182.719 L993.228 182.719  Z" fill="#009af9" fill-rule="evenodd" fill-opacity="0.5"/>
<polyline clip-path="url(#clip682)" style="stroke:#000000; stroke-linecap:round; stroke-linejoin:round; stroke-width:4; stroke-opacity:0.5; fill:none" points="993.228,182.719 993.228,1042.58 1015.77,1042.58 1015.77,182.719 993.228,182.719 "/>
<path clip-path="url(#clip682)" d="M1021.41 175.919 L1021.41 1042.58 L1043.95 1042.58 L1043.95 175.919 L1021.41 175.919 L1021.41 175.919  Z" fill="#009af9" fill-rule="evenodd" fill-opacity="0.5"/>
<polyline clip-path="url(#clip682)" style="stroke:#000000; stroke-linecap:round; stroke-linejoin:round; stroke-width:4; stroke-opacity:0.5; fill:none" points="1021.41,175.919 1021.41,1042.58 1043.95,1042.58 1043.95,175.919 1021.41,175.919 "/>
<path clip-path="url(#clip682)" d="M1049.59 173.518 L1049.59 1042.58 L1072.13 1042.58 L1072.13 173.518 L1049.59 173.518 L1049.59 173.518  Z" fill="#009af9" fill-rule="evenodd" fill-opacity="0.5"/>
<polyline clip-path="url(#clip682)" style="stroke:#000000; stroke-linecap:round; stroke-linejoin:round; stroke-width:4; stroke-opacity:0.5; fill:none" points="1049.59,173.518 1049.59,1042.58 1072.13,1042.58 1072.13,173.518 1049.59,173.518 "/>
<path clip-path="url(#clip682)" d="M1077.77 272.447 L1077.77 1042.58 L1100.31 1042.58 L1100.31 272.447 L1077.77 272.447 L1077.77 272.447  Z" fill="#009af9" fill-rule="evenodd" fill-opacity="0.5"/>
<polyline clip-path="url(#clip682)" style="stroke:#000000; stroke-linecap:round; stroke-linejoin:round; stroke-width:4; stroke-opacity:0.5; fill:none" points="1077.77,272.447 1077.77,1042.58 1100.31,1042.58 1100.31,272.447 1077.77,272.447 "/>
<path clip-path="url(#clip682)" d="M1105.94 277.004 L1105.94 1042.58 L1128.49 1042.58 L1128.49 277.004 L1105.94 277.004 L1105.94 277.004  Z" fill="#009af9" fill-rule="evenodd" fill-opacity="0.5"/>
<polyline clip-path="url(#clip682)" style="stroke:#000000; stroke-linecap:round; stroke-linejoin:round; stroke-width:4; stroke-opacity:0.5; fill:none" points="1105.94,277.004 1105.94,1042.58 1128.49,1042.58 1128.49,277.004 1105.94,277.004 "/>
<path clip-path="url(#clip682)" d="M1134.12 185.267 L1134.12 1042.58 L1156.67 1042.58 L1156.67 185.267 L1134.12 185.267 L1134.12 185.267  Z" fill="#009af9" fill-rule="evenodd" fill-opacity="0.5"/>
<polyline clip-path="url(#clip682)" style="stroke:#000000; stroke-linecap:round; stroke-linejoin:round; stroke-width:4; stroke-opacity:0.5; fill:none" points="1134.12,185.267 1134.12,1042.58 1156.67,1042.58 1156.67,185.267 1134.12,185.267 "/>
<path clip-path="url(#clip682)" d="M1162.3 193.171 L1162.3 1042.58 L1184.85 1042.58 L1184.85 193.171 L1162.3 193.171 L1162.3 193.171  Z" fill="#009af9" fill-rule="evenodd" fill-opacity="0.5"/>
<polyline clip-path="url(#clip682)" style="stroke:#000000; stroke-linecap:round; stroke-linejoin:round; stroke-width:4; stroke-opacity:0.5; fill:none" points="1162.3,193.171 1162.3,1042.58 1184.85,1042.58 1184.85,193.171 1162.3,193.171 "/>
<path clip-path="url(#clip682)" d="M1190.48 209.54 L1190.48 1042.58 L1213.03 1042.58 L1213.03 209.54 L1190.48 209.54 L1190.48 209.54  Z" fill="#009af9" fill-rule="evenodd" fill-opacity="0.5"/>
<polyline clip-path="url(#clip682)" style="stroke:#000000; stroke-linecap:round; stroke-linejoin:round; stroke-width:4; stroke-opacity:0.5; fill:none" points="1190.48,209.54 1190.48,1042.58 1213.03,1042.58 1213.03,209.54 1190.48,209.54 "/>
<path clip-path="url(#clip682)" d="M1218.66 196.586 L1218.66 1042.58 L1241.21 1042.58 L1241.21 196.586 L1218.66 196.586 L1218.66 196.586  Z" fill="#009af9" fill-rule="evenodd" fill-opacity="0.5"/>
<polyline clip-path="url(#clip682)" style="stroke:#000000; stroke-linecap:round; stroke-linejoin:round; stroke-width:4; stroke-opacity:0.5; fill:none" points="1218.66,196.586 1218.66,1042.58 1241.21,1042.58 1241.21,196.586 1218.66,196.586 "/>
<path clip-path="url(#clip682)" d="M1246.84 234.728 L1246.84 1042.58 L1269.38 1042.58 L1269.38 234.728 L1246.84 234.728 L1246.84 234.728  Z" fill="#009af9" fill-rule="evenodd" fill-opacity="0.5"/>
<polyline clip-path="url(#clip682)" style="stroke:#000000; stroke-linecap:round; stroke-linejoin:round; stroke-width:4; stroke-opacity:0.5; fill:none" points="1246.84,234.728 1246.84,1042.58 1269.38,1042.58 1269.38,234.728 1246.84,234.728 "/>
<path clip-path="url(#clip682)" d="M1275.02 328.595 L1275.02 1042.58 L1297.56 1042.58 L1297.56 328.595 L1275.02 328.595 L1275.02 328.595  Z" fill="#009af9" fill-rule="evenodd" fill-opacity="0.5"/>
<polyline clip-path="url(#clip682)" style="stroke:#000000; stroke-linecap:round; stroke-linejoin:round; stroke-width:4; stroke-opacity:0.5; fill:none" points="1275.02,328.595 1275.02,1042.58 1297.56,1042.58 1297.56,328.595 1275.02,328.595 "/>
<path clip-path="url(#clip682)" d="M1303.2 317.72 L1303.2 1042.58 L1325.74 1042.58 L1325.74 317.72 L1303.2 317.72 L1303.2 317.72  Z" fill="#009af9" fill-rule="evenodd" fill-opacity="0.5"/>
<polyline clip-path="url(#clip682)" style="stroke:#000000; stroke-linecap:round; stroke-linejoin:round; stroke-width:4; stroke-opacity:0.5; fill:none" points="1303.2,317.72 1303.2,1042.58 1325.74,1042.58 1325.74,317.72 1303.2,317.72 "/>
<path clip-path="url(#clip682)" d="M1331.38 222.847 L1331.38 1042.58 L1353.92 1042.58 L1353.92 222.847 L1331.38 222.847 L1331.38 222.847  Z" fill="#009af9" fill-rule="evenodd" fill-opacity="0.5"/>
<polyline clip-path="url(#clip682)" style="stroke:#000000; stroke-linecap:round; stroke-linejoin:round; stroke-width:4; stroke-opacity:0.5; fill:none" points="1331.38,222.847 1331.38,1042.58 1353.92,1042.58 1353.92,222.847 1331.38,222.847 "/>
<path clip-path="url(#clip682)" d="M1359.56 249.515 L1359.56 1042.58 L1382.1 1042.58 L1382.1 249.515 L1359.56 249.515 L1359.56 249.515  Z" fill="#009af9" fill-rule="evenodd" fill-opacity="0.5"/>
<polyline clip-path="url(#clip682)" style="stroke:#000000; stroke-linecap:round; stroke-linejoin:round; stroke-width:4; stroke-opacity:0.5; fill:none" points="1359.56,249.515 1359.56,1042.58 1382.1,1042.58 1382.1,249.515 1359.56,249.515 "/>
<path clip-path="url(#clip682)" d="M1387.74 253.441 L1387.74 1042.58 L1410.28 1042.58 L1410.28 253.441 L1387.74 253.441 L1387.74 253.441  Z" fill="#009af9" fill-rule="evenodd" fill-opacity="0.5"/>
<polyline clip-path="url(#clip682)" style="stroke:#000000; stroke-linecap:round; stroke-linejoin:round; stroke-width:4; stroke-opacity:0.5; fill:none" points="1387.74,253.441 1387.74,1042.58 1410.28,1042.58 1410.28,253.441 1387.74,253.441 "/>
<path clip-path="url(#clip682)" d="M1415.92 252.451 L1415.92 1042.58 L1438.46 1042.58 L1438.46 252.451 L1415.92 252.451 L1415.92 252.451  Z" fill="#009af9" fill-rule="evenodd" fill-opacity="0.5"/>
<polyline clip-path="url(#clip682)" style="stroke:#000000; stroke-linecap:round; stroke-linejoin:round; stroke-width:4; stroke-opacity:0.5; fill:none" points="1415.92,252.451 1415.92,1042.58 1438.46,1042.58 1438.46,252.451 1415.92,252.451 "/>
<path clip-path="url(#clip682)" d="M1444.1 273.573 L1444.1 1042.58 L1466.64 1042.58 L1466.64 273.573 L1444.1 273.573 L1444.1 273.573  Z" fill="#009af9" fill-rule="evenodd" fill-opacity="0.5"/>
<polyline clip-path="url(#clip682)" style="stroke:#000000; stroke-linecap:round; stroke-linejoin:round; stroke-width:4; stroke-opacity:0.5; fill:none" points="1444.1,273.573 1444.1,1042.58 1466.64,1042.58 1466.64,273.573 1444.1,273.573 "/>
<path clip-path="url(#clip682)" d="M1472.28 322.288 L1472.28 1042.58 L1494.82 1042.58 L1494.82 322.288 L1472.28 322.288 L1472.28 322.288  Z" fill="#009af9" fill-rule="evenodd" fill-opacity="0.5"/>
<polyline clip-path="url(#clip682)" style="stroke:#000000; stroke-linecap:round; stroke-linejoin:round; stroke-width:4; stroke-opacity:0.5; fill:none" points="1472.28,322.288 1472.28,1042.58 1494.82,1042.58 1494.82,322.288 1472.28,322.288 "/>
<path clip-path="url(#clip682)" d="M1500.45 314.747 L1500.45 1042.58 L1523 1042.58 L1523 314.747 L1500.45 314.747 L1500.45 314.747  Z" fill="#009af9" fill-rule="evenodd" fill-opacity="0.5"/>
<polyline clip-path="url(#clip682)" style="stroke:#000000; stroke-linecap:round; stroke-linejoin:round; stroke-width:4; stroke-opacity:0.5; fill:none" points="1500.45,314.747 1500.45,1042.58 1523,1042.58 1523,314.747 1500.45,314.747 "/>
<path clip-path="url(#clip682)" d="M1528.63 240.11 L1528.63 1042.58 L1551.18 1042.58 L1551.18 240.11 L1528.63 240.11 L1528.63 240.11  Z" fill="#009af9" fill-rule="evenodd" fill-opacity="0.5"/>
<polyline clip-path="url(#clip682)" style="stroke:#000000; stroke-linecap:round; stroke-linejoin:round; stroke-width:4; stroke-opacity:0.5; fill:none" points="1528.63,240.11 1528.63,1042.58 1551.18,1042.58 1551.18,240.11 1528.63,240.11 "/>
<path clip-path="url(#clip682)" d="M1556.81 245.685 L1556.81 1042.58 L1579.36 1042.58 L1579.36 245.685 L1556.81 245.685 L1556.81 245.685  Z" fill="#009af9" fill-rule="evenodd" fill-opacity="0.5"/>
<polyline clip-path="url(#clip682)" style="stroke:#000000; stroke-linecap:round; stroke-linejoin:round; stroke-width:4; stroke-opacity:0.5; fill:none" points="1556.81,245.685 1556.81,1042.58 1579.36,1042.58 1579.36,245.685 1556.81,245.685 "/>
<path clip-path="url(#clip682)" d="M1584.99 242.873 L1584.99 1042.58 L1607.54 1042.58 L1607.54 242.873 L1584.99 242.873 L1584.99 242.873  Z" fill="#009af9" fill-rule="evenodd" fill-opacity="0.5"/>
<polyline clip-path="url(#clip682)" style="stroke:#000000; stroke-linecap:round; stroke-linejoin:round; stroke-width:4; stroke-opacity:0.5; fill:none" points="1584.99,242.873 1584.99,1042.58 1607.54,1042.58 1607.54,242.873 1584.99,242.873 "/>
<path clip-path="url(#clip682)" d="M1613.17 237.396 L1613.17 1042.58 L1635.71 1042.58 L1635.71 237.396 L1613.17 237.396 L1613.17 237.396  Z" fill="#009af9" fill-rule="evenodd" fill-opacity="0.5"/>
<polyline clip-path="url(#clip682)" style="stroke:#000000; stroke-linecap:round; stroke-linejoin:round; stroke-width:4; stroke-opacity:0.5; fill:none" points="1613.17,237.396 1613.17,1042.58 1635.71,1042.58 1635.71,237.396 1613.17,237.396 "/>
<path clip-path="url(#clip682)" d="M1641.35 295.386 L1641.35 1042.58 L1663.89 1042.58 L1663.89 295.386 L1641.35 295.386 L1641.35 295.386  Z" fill="#009af9" fill-rule="evenodd" fill-opacity="0.5"/>
<polyline clip-path="url(#clip682)" style="stroke:#000000; stroke-linecap:round; stroke-linejoin:round; stroke-width:4; stroke-opacity:0.5; fill:none" points="1641.35,295.386 1641.35,1042.58 1663.89,1042.58 1663.89,295.386 1641.35,295.386 "/>
<path clip-path="url(#clip682)" d="M1669.53 393.494 L1669.53 1042.58 L1692.07 1042.58 L1692.07 393.494 L1669.53 393.494 L1669.53 393.494  Z" fill="#009af9" fill-rule="evenodd" fill-opacity="0.5"/>
<polyline clip-path="url(#clip682)" style="stroke:#000000; stroke-linecap:round; stroke-linejoin:round; stroke-width:4; stroke-opacity:0.5; fill:none" points="1669.53,393.494 1669.53,1042.58 1692.07,1042.58 1692.07,393.494 1669.53,393.494 "/>
<path clip-path="url(#clip682)" d="M1697.71 326.994 L1697.71 1042.58 L1720.25 1042.58 L1720.25 326.994 L1697.71 326.994 L1697.71 326.994  Z" fill="#009af9" fill-rule="evenodd" fill-opacity="0.5"/>
<polyline clip-path="url(#clip682)" style="stroke:#000000; stroke-linecap:round; stroke-linejoin:round; stroke-width:4; stroke-opacity:0.5; fill:none" points="1697.71,326.994 1697.71,1042.58 1720.25,1042.58 1720.25,326.994 1697.71,326.994 "/>
<path clip-path="url(#clip682)" d="M1725.89 227.829 L1725.89 1042.58 L1748.43 1042.58 L1748.43 227.829 L1725.89 227.829 L1725.89 227.829  Z" fill="#009af9" fill-rule="evenodd" fill-opacity="0.5"/>
<polyline clip-path="url(#clip682)" style="stroke:#000000; stroke-linecap:round; stroke-linejoin:round; stroke-width:4; stroke-opacity:0.5; fill:none" points="1725.89,227.829 1725.89,1042.58 1748.43,1042.58 1748.43,227.829 1725.89,227.829 "/>
<path clip-path="url(#clip682)" d="M1754.07 252.451 L1754.07 1042.58 L1776.61 1042.58 L1776.61 252.451 L1754.07 252.451 L1754.07 252.451  Z" fill="#009af9" fill-rule="evenodd" fill-opacity="0.5"/>
<polyline clip-path="url(#clip682)" style="stroke:#000000; stroke-linecap:round; stroke-linejoin:round; stroke-width:4; stroke-opacity:0.5; fill:none" points="1754.07,252.451 1754.07,1042.58 1776.61,1042.58 1776.61,252.451 1754.07,252.451 "/>
<path clip-path="url(#clip682)" d="M1782.25 259.523 L1782.25 1042.58 L1804.79 1042.58 L1804.79 259.523 L1782.25 259.523 L1782.25 259.523  Z" fill="#009af9" fill-rule="evenodd" fill-opacity="0.5"/>
<polyline clip-path="url(#clip682)" style="stroke:#000000; stroke-linecap:round; stroke-linejoin:round; stroke-width:4; stroke-opacity:0.5; fill:none" points="1782.25,259.523 1782.25,1042.58 1804.79,1042.58 1804.79,259.523 1782.25,259.523 "/>
<path clip-path="url(#clip682)" d="M1810.43 275.852 L1810.43 1042.58 L1832.97 1042.58 L1832.97 275.852 L1810.43 275.852 L1810.43 275.852  Z" fill="#009af9" fill-rule="evenodd" fill-opacity="0.5"/>
<polyline clip-path="url(#clip682)" style="stroke:#000000; stroke-linecap:round; stroke-linejoin:round; stroke-width:4; stroke-opacity:0.5; fill:none" points="1810.43,275.852 1810.43,1042.58 1832.97,1042.58 1832.97,275.852 1810.43,275.852 "/>
<path clip-path="url(#clip682)" d="M1838.61 311.83 L1838.61 1042.58 L1861.15 1042.58 L1861.15 311.83 L1838.61 311.83 L1838.61 311.83  Z" fill="#009af9" fill-rule="evenodd" fill-opacity="0.5"/>
<polyline clip-path="url(#clip682)" style="stroke:#000000; stroke-linecap:round; stroke-linejoin:round; stroke-width:4; stroke-opacity:0.5; fill:none" points="1838.61,311.83 1838.61,1042.58 1861.15,1042.58 1861.15,311.83 1838.61,311.83 "/>
<path clip-path="url(#clip682)" d="M1866.78 379.508 L1866.78 1042.58 L1889.33 1042.58 L1889.33 379.508 L1866.78 379.508 L1866.78 379.508  Z" fill="#009af9" fill-rule="evenodd" fill-opacity="0.5"/>
<polyline clip-path="url(#clip682)" style="stroke:#000000; stroke-linecap:round; stroke-linejoin:round; stroke-width:4; stroke-opacity:0.5; fill:none" points="1866.78,379.508 1866.78,1042.58 1889.33,1042.58 1889.33,379.508 1866.78,379.508 "/>
<path clip-path="url(#clip682)" d="M1894.96 351.053 L1894.96 1042.58 L1917.51 1042.58 L1917.51 351.053 L1894.96 351.053 L1894.96 351.053  Z" fill="#009af9" fill-rule="evenodd" fill-opacity="0.5"/>
<polyline clip-path="url(#clip682)" style="stroke:#000000; stroke-linecap:round; stroke-linejoin:round; stroke-width:4; stroke-opacity:0.5; fill:none" points="1894.96,351.053 1894.96,1042.58 1917.51,1042.58 1917.51,351.053 1894.96,351.053 "/>
<path clip-path="url(#clip682)" d="M1923.14 234.728 L1923.14 1042.58 L1945.69 1042.58 L1945.69 234.728 L1923.14 234.728 L1923.14 234.728  Z" fill="#009af9" fill-rule="evenodd" fill-opacity="0.5"/>
<polyline clip-path="url(#clip682)" style="stroke:#000000; stroke-linecap:round; stroke-linejoin:round; stroke-width:4; stroke-opacity:0.5; fill:none" points="1923.14,234.728 1923.14,1042.58 1945.69,1042.58 1945.69,234.728 1923.14,234.728 "/>
<path clip-path="url(#clip682)" d="M1951.32 285.314 L1951.32 1042.58 L1973.87 1042.58 L1973.87 285.314 L1951.32 285.314 L1951.32 285.314  Z" fill="#009af9" fill-rule="evenodd" fill-opacity="0.5"/>
<polyline clip-path="url(#clip682)" style="stroke:#000000; stroke-linecap:round; stroke-linejoin:round; stroke-width:4; stroke-opacity:0.5; fill:none" points="1951.32,285.314 1951.32,1042.58 1973.87,1042.58 1973.87,285.314 1951.32,285.314 "/>
<path clip-path="url(#clip682)" d="M1979.5 265.851 L1979.5 1042.58 L2002.04 1042.58 L2002.04 265.851 L1979.5 265.851 L1979.5 265.851  Z" fill="#009af9" fill-rule="evenodd" fill-opacity="0.5"/>
<polyline clip-path="url(#clip682)" style="stroke:#000000; stroke-linecap:round; stroke-linejoin:round; stroke-width:4; stroke-opacity:0.5; fill:none" points="1979.5,265.851 1979.5,1042.58 2002.04,1042.58 2002.04,265.851 1979.5,265.851 "/>
<path clip-path="url(#clip682)" d="M2007.68 308.966 L2007.68 1042.58 L2030.22 1042.58 L2030.22 308.966 L2007.68 308.966 L2007.68 308.966  Z" fill="#009af9" fill-rule="evenodd" fill-opacity="0.5"/>
<polyline clip-path="url(#clip682)" style="stroke:#000000; stroke-linecap:round; stroke-linejoin:round; stroke-width:4; stroke-opacity:0.5; fill:none" points="2007.68,308.966 2007.68,1042.58 2030.22,1042.58 2030.22,308.966 2007.68,308.966 "/>
<path clip-path="url(#clip682)" d="M2035.86 356.729 L2035.86 1042.58 L2058.4 1042.58 L2058.4 356.729 L2035.86 356.729 L2035.86 356.729  Z" fill="#009af9" fill-rule="evenodd" fill-opacity="0.5"/>
<polyline clip-path="url(#clip682)" style="stroke:#000000; stroke-linecap:round; stroke-linejoin:round; stroke-width:4; stroke-opacity:0.5; fill:none" points="2035.86,356.729 2035.86,1042.58 2058.4,1042.58 2058.4,356.729 2035.86,356.729 "/>
<path clip-path="url(#clip682)" d="M2064.04 445.035 L2064.04 1042.58 L2086.58 1042.58 L2086.58 445.035 L2064.04 445.035 L2064.04 445.035  Z" fill="#009af9" fill-rule="evenodd" fill-opacity="0.5"/>
<polyline clip-path="url(#clip682)" style="stroke:#000000; stroke-linecap:round; stroke-linejoin:round; stroke-width:4; stroke-opacity:0.5; fill:none" points="2064.04,445.035 2064.04,1042.58 2086.58,1042.58 2086.58,445.035 2064.04,445.035 "/>
<path clip-path="url(#clip682)" d="M2092.22 466.848 L2092.22 1042.58 L2114.76 1042.58 L2114.76 466.848 L2092.22 466.848 L2092.22 466.848  Z" fill="#009af9" fill-rule="evenodd" fill-opacity="0.5"/>
<polyline clip-path="url(#clip682)" style="stroke:#000000; stroke-linecap:round; stroke-linejoin:round; stroke-width:4; stroke-opacity:0.5; fill:none" points="2092.22,466.848 2092.22,1042.58 2114.76,1042.58 2114.76,466.848 2092.22,466.848 "/>
<path clip-path="url(#clip682)" d="M2120.4 338.561 L2120.4 1042.58 L2142.94 1042.58 L2142.94 338.561 L2120.4 338.561 L2120.4 338.561  Z" fill="#009af9" fill-rule="evenodd" fill-opacity="0.5"/>
<polyline clip-path="url(#clip682)" style="stroke:#000000; stroke-linecap:round; stroke-linejoin:round; stroke-width:4; stroke-opacity:0.5; fill:none" points="2120.4,338.561 2120.4,1042.58 2142.94,1042.58 2142.94,338.561 2120.4,338.561 "/>
<path clip-path="url(#clip682)" d="M2148.58 406.19 L2148.58 1042.58 L2171.12 1042.58 L2171.12 406.19 L2148.58 406.19 L2148.58 406.19  Z" fill="#009af9" fill-rule="evenodd" fill-opacity="0.5"/>
<polyline clip-path="url(#clip682)" style="stroke:#000000; stroke-linecap:round; stroke-linejoin:round; stroke-width:4; stroke-opacity:0.5; fill:none" points="2148.58,406.19 2148.58,1042.58 2171.12,1042.58 2171.12,406.19 2148.58,406.19 "/>
<path clip-path="url(#clip682)" d="M2176.76 384.032 L2176.76 1042.58 L2199.3 1042.58 L2199.3 384.032 L2176.76 384.032 L2176.76 384.032  Z" fill="#009af9" fill-rule="evenodd" fill-opacity="0.5"/>
<polyline clip-path="url(#clip682)" style="stroke:#000000; stroke-linecap:round; stroke-linejoin:round; stroke-width:4; stroke-opacity:0.5; fill:none" points="2176.76,384.032 2176.76,1042.58 2199.3,1042.58 2199.3,384.032 2176.76,384.032 "/>
<path clip-path="url(#clip682)" d="M2204.94 403.567 L2204.94 1042.58 L2227.48 1042.58 L2227.48 403.567 L2204.94 403.567 L2204.94 403.567  Z" fill="#009af9" fill-rule="evenodd" fill-opacity="0.5"/>
<polyline clip-path="url(#clip682)" style="stroke:#000000; stroke-linecap:round; stroke-linejoin:round; stroke-width:4; stroke-opacity:0.5; fill:none" points="2204.94,403.567 2204.94,1042.58 2227.48,1042.58 2227.48,403.567 2204.94,403.567 "/>
<path clip-path="url(#clip682)" d="M2233.11 408.858 L2233.11 1042.58 L2255.66 1042.58 L2255.66 408.858 L2233.11 408.858 L2233.11 408.858  Z" fill="#009af9" fill-rule="evenodd" fill-opacity="0.5"/>
<polyline clip-path="url(#clip682)" style="stroke:#000000; stroke-linecap:round; stroke-linejoin:round; stroke-width:4; stroke-opacity:0.5; fill:none" points="2233.11,408.858 2233.11,1042.58 2255.66,1042.58 2255.66,408.858 2233.11,408.858 "/>
<path clip-path="url(#clip682)" d="M2261.29 591.472 L2261.29 1042.58 L2283.84 1042.58 L2283.84 591.472 L2261.29 591.472 L2261.29 591.472  Z" fill="#009af9" fill-rule="evenodd" fill-opacity="0.5"/>
<polyline clip-path="url(#clip682)" style="stroke:#000000; stroke-linecap:round; stroke-linejoin:round; stroke-width:4; stroke-opacity:0.5; fill:none" points="2261.29,591.472 2261.29,1042.58 2283.84,1042.58 2283.84,591.472 2261.29,591.472 "/>
<path clip-path="url(#clip682)" d="M2289.47 522.515 L2289.47 1042.58 L2312.02 1042.58 L2312.02 522.515 L2289.47 522.515 L2289.47 522.515  Z" fill="#009af9" fill-rule="evenodd" fill-opacity="0.5"/>
<polyline clip-path="url(#clip682)" style="stroke:#000000; stroke-linecap:round; stroke-linejoin:round; stroke-width:4; stroke-opacity:0.5; fill:none" points="2289.47,522.515 2289.47,1042.58 2312.02,1042.58 2312.02,522.515 2289.47,522.515 "/>
<path clip-path="url(#clip682)" d="M2317.65 377.294 L2317.65 1042.58 L2340.2 1042.58 L2340.2 377.294 L2317.65 377.294 L2317.65 377.294  Z" fill="#009af9" fill-rule="evenodd" fill-opacity="0.5"/>
<polyline clip-path="url(#clip682)" style="stroke:#000000; stroke-linecap:round; stroke-linejoin:round; stroke-width:4; stroke-opacity:0.5; fill:none" points="2317.65,377.294 2317.65,1042.58 2340.2,1042.58 2340.2,377.294 2317.65,377.294 "/>
<path clip-path="url(#clip682)" d="M2345.83 428.931 L2345.83 1042.58 L2368.38 1042.58 L2368.38 428.931 L2345.83 428.931 L2345.83 428.931  Z" fill="#009af9" fill-rule="evenodd" fill-opacity="0.5"/>
<polyline clip-path="url(#clip682)" style="stroke:#000000; stroke-linecap:round; stroke-linejoin:round; stroke-width:4; stroke-opacity:0.5; fill:none" points="2345.83,428.931 2345.83,1042.58 2368.38,1042.58 2368.38,428.931 2345.83,428.931 "/>
<path clip-path="url(#clip682)" d="M2374.01 466.848 L2374.01 1042.58 L2396.55 1042.58 L2396.55 466.848 L2374.01 466.848 L2374.01 466.848  Z" fill="#009af9" fill-rule="evenodd" fill-opacity="0.5"/>
<polyline clip-path="url(#clip682)" style="stroke:#000000; stroke-linecap:round; stroke-linejoin:round; stroke-width:4; stroke-opacity:0.5; fill:none" points="2374.01,466.848 2374.01,1042.58 2396.55,1042.58 2396.55,466.848 2374.01,466.848 "/>
<path clip-path="url(#clip682)" d="M2402.19 479.016 L2402.19 1042.58 L2424.73 1042.58 L2424.73 479.016 L2402.19 479.016 L2402.19 479.016  Z" fill="#009af9" fill-rule="evenodd" fill-opacity="0.5"/>
<polyline clip-path="url(#clip682)" style="stroke:#000000; stroke-linecap:round; stroke-linejoin:round; stroke-width:4; stroke-opacity:0.5; fill:none" points="2402.19,479.016 2402.19,1042.58 2424.73,1042.58 2424.73,479.016 2402.19,479.016 "/>
<path clip-path="url(#clip682)" d="M2430.37 553.215 L2430.37 1042.58 L2452.91 1042.58 L2452.91 553.215 L2430.37 553.215 L2430.37 553.215  Z" fill="#009af9" fill-rule="evenodd" fill-opacity="0.5"/>
<polyline clip-path="url(#clip682)" style="stroke:#000000; stroke-linecap:round; stroke-linejoin:round; stroke-width:4; stroke-opacity:0.5; fill:none" points="2430.37,553.215 2430.37,1042.58 2452.91,1042.58 2452.91,553.215 2430.37,553.215 "/>
<path clip-path="url(#clip682)" d="M2458.55 619.927 L2458.55 1042.58 L2481.09 1042.58 L2481.09 619.927 L2458.55 619.927 L2458.55 619.927  Z" fill="#009af9" fill-rule="evenodd" fill-opacity="0.5"/>
<polyline clip-path="url(#clip682)" style="stroke:#000000; stroke-linecap:round; stroke-linejoin:round; stroke-width:4; stroke-opacity:0.5; fill:none" points="2458.55,619.927 2458.55,1042.58 2481.09,1042.58 2481.09,619.927 2458.55,619.927 "/>
<path clip-path="url(#clip682)" d="M2486.73 553.215 L2486.73 1042.58 L2509.27 1042.58 L2509.27 553.215 L2486.73 553.215 L2486.73 553.215  Z" fill="#009af9" fill-rule="evenodd" fill-opacity="0.5"/>
<polyline clip-path="url(#clip682)" style="stroke:#000000; stroke-linecap:round; stroke-linejoin:round; stroke-width:4; stroke-opacity:0.5; fill:none" points="2486.73,553.215 2486.73,1042.58 2509.27,1042.58 2509.27,553.215 2486.73,553.215 "/>
<path clip-path="url(#clip682)" d="M2514.91 511.747 L2514.91 1042.58 L2537.45 1042.58 L2537.45 511.747 L2514.91 511.747 L2514.91 511.747  Z" fill="#009af9" fill-rule="evenodd" fill-opacity="0.5"/>
<polyline clip-path="url(#clip682)" style="stroke:#000000; stroke-linecap:round; stroke-linejoin:round; stroke-width:4; stroke-opacity:0.5; fill:none" points="2514.91,511.747 2514.91,1042.58 2537.45,1042.58 2537.45,511.747 2514.91,511.747 "/>
<path clip-path="url(#clip682)" d="M2543.09 654.753 L2543.09 1042.58 L2565.63 1042.58 L2565.63 654.753 L2543.09 654.753 L2543.09 654.753  Z" fill="#009af9" fill-rule="evenodd" fill-opacity="0.5"/>
<polyline clip-path="url(#clip682)" style="stroke:#000000; stroke-linecap:round; stroke-linejoin:round; stroke-width:4; stroke-opacity:0.5; fill:none" points="2543.09,654.753 2543.09,1042.58 2565.63,1042.58 2565.63,654.753 2543.09,654.753 "/>
<path clip-path="url(#clip682)" d="M2571.27 791.389 L2571.27 1042.58 L2593.81 1042.58 L2593.81 791.389 L2571.27 791.389 L2571.27 791.389  Z" fill="#009af9" fill-rule="evenodd" fill-opacity="0.5"/>
<polyline clip-path="url(#clip682)" style="stroke:#000000; stroke-linecap:round; stroke-linejoin:round; stroke-width:4; stroke-opacity:0.5; fill:none" points="2571.27,791.389 2571.27,1042.58 2593.81,1042.58 2593.81,791.389 2571.27,791.389 "/>
<path clip-path="url(#clip682)" d="M2599.44 826.215 L2599.44 1042.58 L2621.99 1042.58 L2621.99 826.215 L2599.44 826.215 L2599.44 826.215  Z" fill="#009af9" fill-rule="evenodd" fill-opacity="0.5"/>
<polyline clip-path="url(#clip682)" style="stroke:#000000; stroke-linecap:round; stroke-linejoin:round; stroke-width:4; stroke-opacity:0.5; fill:none" points="2599.44,826.215 2599.44,1042.58 2621.99,1042.58 2621.99,826.215 2599.44,826.215 "/>
<path clip-path="url(#clip682)" d="M2627.62 791.389 L2627.62 1042.58 L2650.17 1042.58 L2650.17 791.389 L2627.62 791.389 L2627.62 791.389  Z" fill="#009af9" fill-rule="evenodd" fill-opacity="0.5"/>
<polyline clip-path="url(#clip682)" style="stroke:#000000; stroke-linecap:round; stroke-linejoin:round; stroke-width:4; stroke-opacity:0.5; fill:none" points="2627.62,791.389 2627.62,1042.58 2650.17,1042.58 2650.17,791.389 2627.62,791.389 "/>
<path clip-path="url(#clip682)" d="M2655.8 762.934 L2655.8 1042.58 L2678.35 1042.58 L2678.35 762.934 L2655.8 762.934 L2655.8 762.934  Z" fill="#009af9" fill-rule="evenodd" fill-opacity="0.5"/>
<polyline clip-path="url(#clip682)" style="stroke:#000000; stroke-linecap:round; stroke-linejoin:round; stroke-width:4; stroke-opacity:0.5; fill:none" points="2655.8,762.934 2655.8,1042.58 2678.35,1042.58 2678.35,762.934 2655.8,762.934 "/>
<path clip-path="url(#clip682)" d="M2683.98 738.875 L2683.98 1042.58 L2706.53 1042.58 L2706.53 738.875 L2683.98 738.875 L2683.98 738.875  Z" fill="#009af9" fill-rule="evenodd" fill-opacity="0.5"/>
<polyline clip-path="url(#clip682)" style="stroke:#000000; stroke-linecap:round; stroke-linejoin:round; stroke-width:4; stroke-opacity:0.5; fill:none" points="2683.98,738.875 2683.98,1042.58 2706.53,1042.58 2706.53,738.875 2683.98,738.875 "/>
<path clip-path="url(#clip682)" d="M2712.16 871.114 L2712.16 1042.58 L2734.71 1042.58 L2734.71 871.114 L2712.16 871.114 L2712.16 871.114  Z" fill="#009af9" fill-rule="evenodd" fill-opacity="0.5"/>
<polyline clip-path="url(#clip682)" style="stroke:#000000; stroke-linecap:round; stroke-linejoin:round; stroke-width:4; stroke-opacity:0.5; fill:none" points="2712.16,871.114 2712.16,1042.58 2734.71,1042.58 2734.71,871.114 2712.16,871.114 "/>
<circle clip-path="url(#clip682)" style="fill:#009af9; stroke:none; fill-opacity:0" cx="300.018" cy="226.15" r="2"/>
<circle clip-path="url(#clip682)" style="fill:#009af9; stroke:none; fill-opacity:0" cx="328.198" cy="218.814" r="2"/>
<circle clip-path="url(#clip682)" style="fill:#009af9; stroke:none; fill-opacity:0" cx="356.377" cy="110.236" r="2"/>
<circle clip-path="url(#clip682)" style="fill:#009af9; stroke:none; fill-opacity:0" cx="384.556" cy="137.978" r="2"/>
<circle clip-path="url(#clip682)" style="fill:#009af9; stroke:none; fill-opacity:0" cx="412.735" cy="141.82" r="2"/>
<circle clip-path="url(#clip682)" style="fill:#009af9; stroke:none; fill-opacity:0" cx="440.915" cy="143.286" r="2"/>
<circle clip-path="url(#clip682)" style="fill:#009af9; stroke:none; fill-opacity:0" cx="469.094" cy="157.133" r="2"/>
<circle clip-path="url(#clip682)" style="fill:#009af9; stroke:none; fill-opacity:0" cx="497.273" cy="216.443" r="2"/>
<circle clip-path="url(#clip682)" style="fill:#009af9; stroke:none; fill-opacity:0" cx="525.452" cy="231.24" r="2"/>
<circle clip-path="url(#clip682)" style="fill:#009af9; stroke:none; fill-opacity:0" cx="553.632" cy="140.851" r="2"/>
<circle clip-path="url(#clip682)" style="fill:#009af9; stroke:none; fill-opacity:0" cx="581.811" cy="150.827" r="2"/>
<circle clip-path="url(#clip682)" style="fill:#009af9; stroke:none; fill-opacity:0" cx="609.99" cy="180.212" r="2"/>
<circle clip-path="url(#clip682)" style="fill:#009af9; stroke:none; fill-opacity:0" cx="638.169" cy="172.331" r="2"/>
<circle clip-path="url(#clip682)" style="fill:#009af9; stroke:none; fill-opacity:0" cx="666.349" cy="191.826" r="2"/>
<circle clip-path="url(#clip682)" style="fill:#009af9; stroke:none; fill-opacity:0" cx="694.528" cy="221.221" r="2"/>
<circle clip-path="url(#clip682)" style="fill:#009af9; stroke:none; fill-opacity:0" cx="722.707" cy="292.807" r="2"/>
<circle clip-path="url(#clip682)" style="fill:#009af9; stroke:none; fill-opacity:0" cx="750.886" cy="152.38" r="2"/>
<circle clip-path="url(#clip682)" style="fill:#009af9; stroke:none; fill-opacity:0" cx="779.066" cy="156.598" r="2"/>
<circle clip-path="url(#clip682)" style="fill:#009af9; stroke:none; fill-opacity:0" cx="807.245" cy="168.823" r="2"/>
<circle clip-path="url(#clip682)" style="fill:#009af9; stroke:none; fill-opacity:0" cx="835.424" cy="163.706" r="2"/>
<circle clip-path="url(#clip682)" style="fill:#009af9; stroke:none; fill-opacity:0" cx="863.603" cy="192.497" r="2"/>
<circle clip-path="url(#clip682)" style="fill:#009af9; stroke:none; fill-opacity:0" cx="891.783" cy="259.523" r="2"/>
<circle clip-path="url(#clip682)" style="fill:#009af9; stroke:none; fill-opacity:0" cx="919.962" cy="258.493" r="2"/>
<circle clip-path="url(#clip682)" style="fill:#009af9; stroke:none; fill-opacity:0" cx="948.141" cy="153.424" r="2"/>
<circle clip-path="url(#clip682)" style="fill:#009af9; stroke:none; fill-opacity:0" cx="976.32" cy="189.169" r="2"/>
<circle clip-path="url(#clip682)" style="fill:#009af9; stroke:none; fill-opacity:0" cx="1004.5" cy="182.719" r="2"/>
<circle clip-path="url(#clip682)" style="fill:#009af9; stroke:none; fill-opacity:0" cx="1032.68" cy="175.919" r="2"/>
<circle clip-path="url(#clip682)" style="fill:#009af9; stroke:none; fill-opacity:0" cx="1060.86" cy="173.518" r="2"/>
<circle clip-path="url(#clip682)" style="fill:#009af9; stroke:none; fill-opacity:0" cx="1089.04" cy="272.447" r="2"/>
<circle clip-path="url(#clip682)" style="fill:#009af9; stroke:none; fill-opacity:0" cx="1117.22" cy="277.004" r="2"/>
<circle clip-path="url(#clip682)" style="fill:#009af9; stroke:none; fill-opacity:0" cx="1145.4" cy="185.267" r="2"/>
<circle clip-path="url(#clip682)" style="fill:#009af9; stroke:none; fill-opacity:0" cx="1173.58" cy="193.171" r="2"/>
<circle clip-path="url(#clip682)" style="fill:#009af9; stroke:none; fill-opacity:0" cx="1201.75" cy="209.54" r="2"/>
<circle clip-path="url(#clip682)" style="fill:#009af9; stroke:none; fill-opacity:0" cx="1229.93" cy="196.586" r="2"/>
<circle clip-path="url(#clip682)" style="fill:#009af9; stroke:none; fill-opacity:0" cx="1258.11" cy="234.728" r="2"/>
<circle clip-path="url(#clip682)" style="fill:#009af9; stroke:none; fill-opacity:0" cx="1286.29" cy="328.595" r="2"/>
<circle clip-path="url(#clip682)" style="fill:#009af9; stroke:none; fill-opacity:0" cx="1314.47" cy="317.72" r="2"/>
<circle clip-path="url(#clip682)" style="fill:#009af9; stroke:none; fill-opacity:0" cx="1342.65" cy="222.847" r="2"/>
<circle clip-path="url(#clip682)" style="fill:#009af9; stroke:none; fill-opacity:0" cx="1370.83" cy="249.515" r="2"/>
<circle clip-path="url(#clip682)" style="fill:#009af9; stroke:none; fill-opacity:0" cx="1399.01" cy="253.441" r="2"/>
<circle clip-path="url(#clip682)" style="fill:#009af9; stroke:none; fill-opacity:0" cx="1427.19" cy="252.451" r="2"/>
<circle clip-path="url(#clip682)" style="fill:#009af9; stroke:none; fill-opacity:0" cx="1455.37" cy="273.573" r="2"/>
<circle clip-path="url(#clip682)" style="fill:#009af9; stroke:none; fill-opacity:0" cx="1483.55" cy="322.288" r="2"/>
<circle clip-path="url(#clip682)" style="fill:#009af9; stroke:none; fill-opacity:0" cx="1511.73" cy="314.747" r="2"/>
<circle clip-path="url(#clip682)" style="fill:#009af9; stroke:none; fill-opacity:0" cx="1539.91" cy="240.11" r="2"/>
<circle clip-path="url(#clip682)" style="fill:#009af9; stroke:none; fill-opacity:0" cx="1568.08" cy="245.685" r="2"/>
<circle clip-path="url(#clip682)" style="fill:#009af9; stroke:none; fill-opacity:0" cx="1596.26" cy="242.873" r="2"/>
<circle clip-path="url(#clip682)" style="fill:#009af9; stroke:none; fill-opacity:0" cx="1624.44" cy="237.396" r="2"/>
<circle clip-path="url(#clip682)" style="fill:#009af9; stroke:none; fill-opacity:0" cx="1652.62" cy="295.386" r="2"/>
<circle clip-path="url(#clip682)" style="fill:#009af9; stroke:none; fill-opacity:0" cx="1680.8" cy="393.494" r="2"/>
<circle clip-path="url(#clip682)" style="fill:#009af9; stroke:none; fill-opacity:0" cx="1708.98" cy="326.994" r="2"/>
<circle clip-path="url(#clip682)" style="fill:#009af9; stroke:none; fill-opacity:0" cx="1737.16" cy="227.829" r="2"/>
<circle clip-path="url(#clip682)" style="fill:#009af9; stroke:none; fill-opacity:0" cx="1765.34" cy="252.451" r="2"/>
<circle clip-path="url(#clip682)" style="fill:#009af9; stroke:none; fill-opacity:0" cx="1793.52" cy="259.523" r="2"/>
<circle clip-path="url(#clip682)" style="fill:#009af9; stroke:none; fill-opacity:0" cx="1821.7" cy="275.852" r="2"/>
<circle clip-path="url(#clip682)" style="fill:#009af9; stroke:none; fill-opacity:0" cx="1849.88" cy="311.83" r="2"/>
<circle clip-path="url(#clip682)" style="fill:#009af9; stroke:none; fill-opacity:0" cx="1878.06" cy="379.508" r="2"/>
<circle clip-path="url(#clip682)" style="fill:#009af9; stroke:none; fill-opacity:0" cx="1906.24" cy="351.053" r="2"/>
<circle clip-path="url(#clip682)" style="fill:#009af9; stroke:none; fill-opacity:0" cx="1934.41" cy="234.728" r="2"/>
<circle clip-path="url(#clip682)" style="fill:#009af9; stroke:none; fill-opacity:0" cx="1962.59" cy="285.314" r="2"/>
<circle clip-path="url(#clip682)" style="fill:#009af9; stroke:none; fill-opacity:0" cx="1990.77" cy="265.851" r="2"/>
<circle clip-path="url(#clip682)" style="fill:#009af9; stroke:none; fill-opacity:0" cx="2018.95" cy="308.966" r="2"/>
<circle clip-path="url(#clip682)" style="fill:#009af9; stroke:none; fill-opacity:0" cx="2047.13" cy="356.729" r="2"/>
<circle clip-path="url(#clip682)" style="fill:#009af9; stroke:none; fill-opacity:0" cx="2075.31" cy="445.035" r="2"/>
<circle clip-path="url(#clip682)" style="fill:#009af9; stroke:none; fill-opacity:0" cx="2103.49" cy="466.848" r="2"/>
<circle clip-path="url(#clip682)" style="fill:#009af9; stroke:none; fill-opacity:0" cx="2131.67" cy="338.561" r="2"/>
<circle clip-path="url(#clip682)" style="fill:#009af9; stroke:none; fill-opacity:0" cx="2159.85" cy="406.19" r="2"/>
<circle clip-path="url(#clip682)" style="fill:#009af9; stroke:none; fill-opacity:0" cx="2188.03" cy="384.032" r="2"/>
<circle clip-path="url(#clip682)" style="fill:#009af9; stroke:none; fill-opacity:0" cx="2216.21" cy="403.567" r="2"/>
<circle clip-path="url(#clip682)" style="fill:#009af9; stroke:none; fill-opacity:0" cx="2244.39" cy="408.858" r="2"/>
<circle clip-path="url(#clip682)" style="fill:#009af9; stroke:none; fill-opacity:0" cx="2272.57" cy="591.472" r="2"/>
<circle clip-path="url(#clip682)" style="fill:#009af9; stroke:none; fill-opacity:0" cx="2300.74" cy="522.515" r="2"/>
<circle clip-path="url(#clip682)" style="fill:#009af9; stroke:none; fill-opacity:0" cx="2328.92" cy="377.294" r="2"/>
<circle clip-path="url(#clip682)" style="fill:#009af9; stroke:none; fill-opacity:0" cx="2357.1" cy="428.931" r="2"/>
<circle clip-path="url(#clip682)" style="fill:#009af9; stroke:none; fill-opacity:0" cx="2385.28" cy="466.848" r="2"/>
<circle clip-path="url(#clip682)" style="fill:#009af9; stroke:none; fill-opacity:0" cx="2413.46" cy="479.016" r="2"/>
<circle clip-path="url(#clip682)" style="fill:#009af9; stroke:none; fill-opacity:0" cx="2441.64" cy="553.215" r="2"/>
<circle clip-path="url(#clip682)" style="fill:#009af9; stroke:none; fill-opacity:0" cx="2469.82" cy="619.927" r="2"/>
<circle clip-path="url(#clip682)" style="fill:#009af9; stroke:none; fill-opacity:0" cx="2498" cy="553.215" r="2"/>
<circle clip-path="url(#clip682)" style="fill:#009af9; stroke:none; fill-opacity:0" cx="2526.18" cy="511.747" r="2"/>
<circle clip-path="url(#clip682)" style="fill:#009af9; stroke:none; fill-opacity:0" cx="2554.36" cy="654.753" r="2"/>
<circle clip-path="url(#clip682)" style="fill:#009af9; stroke:none; fill-opacity:0" cx="2582.54" cy="791.389" r="2"/>
<circle clip-path="url(#clip682)" style="fill:#009af9; stroke:none; fill-opacity:0" cx="2610.72" cy="826.215" r="2"/>
<circle clip-path="url(#clip682)" style="fill:#009af9; stroke:none; fill-opacity:0" cx="2638.9" cy="791.389" r="2"/>
<circle clip-path="url(#clip682)" style="fill:#009af9; stroke:none; fill-opacity:0" cx="2667.08" cy="762.934" r="2"/>
<circle clip-path="url(#clip682)" style="fill:#009af9; stroke:none; fill-opacity:0" cx="2695.25" cy="738.875" r="2"/>
<circle clip-path="url(#clip682)" style="fill:#009af9; stroke:none; fill-opacity:0" cx="2723.43" cy="871.114" r="2"/>
</svg>
