<?xml version="1.0" encoding="utf-8"?>
<svg xmlns="http://www.w3.org/2000/svg" xmlns:xlink="http://www.w3.org/1999/xlink" width="800" height="300" viewBox="0 0 3200 1200">
<defs>
  <clipPath id="clip980">
    <rect x="0" y="0" width="3200" height="1200"/>
  </clipPath>
</defs>
<path clip-path="url(#clip980)" d="M0 1200 L3200 1200 L3200 0 L0 0  Z" fill="#ffffff" fill-rule="evenodd" fill-opacity="1"/>
<defs>
  <clipPath id="clip981">
    <rect x="640" y="0" width="2241" height="1200"/>
  </clipPath>
</defs>
<path clip-path="url(#clip980)" d="M271.839 1042.58 L3089.76 1042.58 L3089.76 110.236 L271.839 110.236  Z" fill="#ffffff" fill-rule="evenodd" fill-opacity="1"/>
<defs>
  <clipPath id="clip982">
    <rect x="271" y="110" width="2819" height="933"/>
  </clipPath>
</defs>
<polyline clip-path="url(#clip982)" style="stroke:#000000; stroke-linecap:round; stroke-linejoin:round; stroke-width:2; stroke-opacity:0.1; fill:none" points="722.707,1042.58 722.707,110.236 "/>
<polyline clip-path="url(#clip982)" style="stroke:#000000; stroke-linecap:round; stroke-linejoin:round; stroke-width:2; stroke-opacity:0.1; fill:none" points="1568.08,1042.58 1568.08,110.236 "/>
<polyline clip-path="url(#clip982)" style="stroke:#000000; stroke-linecap:round; stroke-linejoin:round; stroke-width:2; stroke-opacity:0.1; fill:none" points="2441.64,1042.58 2441.64,110.236 "/>
<polyline clip-path="url(#clip980)" style="stroke:#000000; stroke-linecap:round; stroke-linejoin:round; stroke-width:4; stroke-opacity:1; fill:none" points="271.839,1042.58 3089.76,1042.58 "/>
<polyline clip-path="url(#clip980)" style="stroke:#000000; stroke-linecap:round; stroke-linejoin:round; stroke-width:4; stroke-opacity:1; fill:none" points="722.707,1042.58 722.707,1023.68 "/>
<polyline clip-path="url(#clip980)" style="stroke:#000000; stroke-linecap:round; stroke-linejoin:round; stroke-width:4; stroke-opacity:1; fill:none" points="1568.08,1042.58 1568.08,1023.68 "/>
<polyline clip-path="url(#clip980)" style="stroke:#000000; stroke-linecap:round; stroke-linejoin:round; stroke-width:4; stroke-opacity:1; fill:none" points="2441.64,1042.58 2441.64,1023.68 "/>
<path clip-path="url(#clip980)" d="M594.502 1107.44 L610.821 1107.44 L610.821 1111.38 L588.877 1111.38 L588.877 1107.44 Q591.539 1104.69 596.122 1100.06 Q600.729 1095.4 601.909 1094.06 Q604.155 1091.54 605.034 1089.8 Q605.937 1088.04 605.937 1086.35 Q605.937 1083.6 603.993 1081.86 Q602.071 1080.13 598.969 1080.13 Q596.77 1080.13 594.317 1080.89 Q591.886 1081.65 589.108 1083.2 L589.108 1078.48 Q591.932 1077.35 594.386 1076.77 Q596.84 1076.19 598.877 1076.19 Q604.247 1076.19 607.442 1078.88 Q610.636 1081.56 610.636 1086.05 Q610.636 1088.18 609.826 1090.1 Q609.039 1092 606.932 1094.59 Q606.354 1095.26 603.252 1098.48 Q600.15 1101.68 594.502 1107.44 Z" fill="#000000" fill-rule="nonzero" fill-opacity="1" /><path clip-path="url(#clip980)" d="M630.636 1079.89 Q627.025 1079.89 625.196 1083.46 Q623.391 1087 623.391 1094.13 Q623.391 1101.24 625.196 1104.8 Q627.025 1108.34 630.636 1108.34 Q634.27 1108.34 636.076 1104.8 Q637.904 1101.24 637.904 1094.13 Q637.904 1087 636.076 1083.46 Q634.27 1079.89 630.636 1079.89 M630.636 1076.19 Q636.446 1076.19 639.502 1080.8 Q642.58 1085.38 642.58 1094.13 Q642.58 1102.86 639.502 1107.46 Q636.446 1112.05 630.636 1112.05 Q624.826 1112.05 621.747 1107.46 Q618.691 1102.86 618.691 1094.13 Q618.691 1085.38 621.747 1080.8 Q624.826 1076.19 630.636 1076.19 Z" fill="#000000" fill-rule="nonzero" fill-opacity="1" /><path clip-path="url(#clip980)" d="M654.826 1107.44 L671.145 1107.44 L671.145 1111.38 L649.201 1111.38 L649.201 1107.44 Q651.863 1104.69 656.446 1100.06 Q661.052 1095.4 662.233 1094.06 Q664.478 1091.54 665.358 1089.8 Q666.261 1088.04 666.261 1086.35 Q666.261 1083.6 664.316 1081.86 Q662.395 1080.13 659.293 1080.13 Q657.094 1080.13 654.64 1080.89 Q652.21 1081.65 649.432 1083.2 L649.432 1078.48 Q652.256 1077.35 654.71 1076.77 Q657.164 1076.19 659.201 1076.19 Q664.571 1076.19 667.765 1078.88 Q670.96 1081.56 670.96 1086.05 Q670.96 1088.18 670.15 1090.1 Q669.363 1092 667.256 1094.59 Q666.677 1095.26 663.576 1098.48 Q660.474 1101.68 654.826 1107.44 Z" fill="#000000" fill-rule="nonzero" fill-opacity="1" /><path clip-path="url(#clip980)" d="M693.807 1080.89 L682.001 1099.34 L693.807 1099.34 L693.807 1080.89 M692.58 1076.82 L698.46 1076.82 L698.46 1099.34 L703.39 1099.34 L703.39 1103.23 L698.46 1103.23 L698.46 1111.38 L693.807 1111.38 L693.807 1103.23 L678.205 1103.23 L678.205 1098.71 L692.58 1076.82 Z" fill="#000000" fill-rule="nonzero" fill-opacity="1" /><path clip-path="url(#clip980)" d="M708.367 1096.49 L720.844 1096.49 L720.844 1100.29 L708.367 1100.29 L708.367 1096.49 Z" fill="#000000" fill-rule="nonzero" fill-opacity="1" /><path clip-path="url(#clip980)" d="M738.228 1079.89 Q734.617 1079.89 732.788 1083.46 Q730.983 1087 730.983 1094.13 Q730.983 1101.24 732.788 1104.8 Q734.617 1108.34 738.228 1108.34 Q741.862 1108.34 743.668 1104.8 Q745.496 1101.24 745.496 1094.13 Q745.496 1087 743.668 1083.46 Q741.862 1079.89 738.228 1079.89 M738.228 1076.19 Q744.038 1076.19 747.094 1080.8 Q750.172 1085.38 750.172 1094.13 Q750.172 1102.86 747.094 1107.46 Q744.038 1112.05 738.228 1112.05 Q732.418 1112.05 729.339 1107.46 Q726.284 1102.86 726.284 1094.13 Q726.284 1085.38 729.339 1080.8 Q732.418 1076.19 738.228 1076.19 Z" fill="#000000" fill-rule="nonzero" fill-opacity="1" /><path clip-path="url(#clip980)" d="M768.968 1092.23 Q765.82 1092.23 763.968 1094.39 Q762.14 1096.54 762.14 1100.29 Q762.14 1104.01 763.968 1106.19 Q765.82 1108.34 768.968 1108.34 Q772.117 1108.34 773.945 1106.19 Q775.797 1104.01 775.797 1100.29 Q775.797 1096.54 773.945 1094.39 Q772.117 1092.23 768.968 1092.23 M778.251 1077.58 L778.251 1081.84 Q776.492 1081.01 774.686 1080.57 Q772.904 1080.13 771.144 1080.13 Q766.515 1080.13 764.061 1083.25 Q761.631 1086.38 761.283 1092.7 Q762.649 1090.68 764.709 1089.62 Q766.769 1088.53 769.246 1088.53 Q774.455 1088.53 777.464 1091.7 Q780.496 1094.85 780.496 1100.29 Q780.496 1105.61 777.348 1108.83 Q774.2 1112.05 768.968 1112.05 Q762.973 1112.05 759.802 1107.46 Q756.631 1102.86 756.631 1094.13 Q756.631 1085.94 760.519 1081.07 Q764.408 1076.19 770.959 1076.19 Q772.718 1076.19 774.501 1076.54 Q776.306 1076.89 778.251 1077.58 Z" fill="#000000" fill-rule="nonzero" fill-opacity="1" /><path clip-path="url(#clip980)" d="M785.797 1096.49 L798.274 1096.49 L798.274 1100.29 L785.797 1100.29 L785.797 1096.49 Z" fill="#000000" fill-rule="nonzero" fill-opacity="1" /><path clip-path="url(#clip980)" d="M815.658 1079.89 Q812.047 1079.89 810.218 1083.46 Q808.413 1087 808.413 1094.13 Q808.413 1101.24 810.218 1104.8 Q812.047 1108.34 815.658 1108.34 Q819.292 1108.34 821.098 1104.8 Q822.927 1101.24 822.927 1094.13 Q822.927 1087 821.098 1083.46 Q819.292 1079.89 815.658 1079.89 M815.658 1076.19 Q821.468 1076.19 824.524 1080.8 Q827.602 1085.38 827.602 1094.13 Q827.602 1102.86 824.524 1107.46 Q821.468 1112.05 815.658 1112.05 Q809.848 1112.05 806.769 1107.46 Q803.714 1102.86 803.714 1094.13 Q803.714 1085.38 806.769 1080.8 Q809.848 1076.19 815.658 1076.19 Z" fill="#000000" fill-rule="nonzero" fill-opacity="1" /><path clip-path="url(#clip980)" d="M836.63 1107.44 L844.269 1107.44 L844.269 1081.07 L835.959 1082.74 L835.959 1078.48 L844.223 1076.82 L848.899 1076.82 L848.899 1107.44 L856.537 1107.44 L856.537 1111.38 L836.63 1111.38 L836.63 1107.44 Z" fill="#000000" fill-rule="nonzero" fill-opacity="1" /><path clip-path="url(#clip980)" d="M1439.88 1107.44 L1456.2 1107.44 L1456.2 1111.38 L1434.25 1111.38 L1434.25 1107.44 Q1436.92 1104.69 1441.5 1100.06 Q1446.11 1095.4 1447.29 1094.06 Q1449.53 1091.54 1450.41 1089.8 Q1451.31 1088.04 1451.31 1086.35 Q1451.31 1083.6 1449.37 1081.86 Q1447.45 1080.13 1444.35 1080.13 Q1442.15 1080.13 1439.69 1080.89 Q1437.26 1081.65 1434.49 1083.2 L1434.49 1078.48 Q1437.31 1077.35 1439.76 1076.77 Q1442.22 1076.19 1444.25 1076.19 Q1449.62 1076.19 1452.82 1078.88 Q1456.01 1081.56 1456.01 1086.05 Q1456.01 1088.18 1455.2 1090.1 Q1454.42 1092 1452.31 1094.59 Q1451.73 1095.26 1448.63 1098.48 Q1445.53 1101.68 1439.88 1107.44 Z" fill="#000000" fill-rule="nonzero" fill-opacity="1" /><path clip-path="url(#clip980)" d="M1476.01 1079.89 Q1472.4 1079.89 1470.57 1083.46 Q1468.77 1087 1468.77 1094.13 Q1468.77 1101.24 1470.57 1104.8 Q1472.4 1108.34 1476.01 1108.34 Q1479.65 1108.34 1481.45 1104.8 Q1483.28 1101.24 1483.28 1094.13 Q1483.28 1087 1481.45 1083.46 Q1479.65 1079.89 1476.01 1079.89 M1476.01 1076.19 Q1481.82 1076.19 1484.88 1080.8 Q1487.96 1085.38 1487.96 1094.13 Q1487.96 1102.86 1484.88 1107.46 Q1481.82 1112.05 1476.01 1112.05 Q1470.2 1112.05 1467.12 1107.46 Q1464.07 1102.86 1464.07 1094.13 Q1464.07 1085.38 1467.12 1080.8 Q1470.2 1076.19 1476.01 1076.19 Z" fill="#000000" fill-rule="nonzero" fill-opacity="1" /><path clip-path="url(#clip980)" d="M1500.2 1107.44 L1516.52 1107.44 L1516.52 1111.38 L1494.58 1111.38 L1494.58 1107.44 Q1497.24 1104.69 1501.82 1100.06 Q1506.43 1095.4 1507.61 1094.06 Q1509.86 1091.54 1510.74 1089.8 Q1511.64 1088.04 1511.64 1086.35 Q1511.64 1083.6 1509.69 1081.86 Q1507.77 1080.13 1504.67 1080.13 Q1502.47 1080.13 1500.02 1080.89 Q1497.59 1081.65 1494.81 1083.2 L1494.81 1078.48 Q1497.63 1077.35 1500.09 1076.77 Q1502.54 1076.19 1504.58 1076.19 Q1509.95 1076.19 1513.14 1078.88 Q1516.34 1081.56 1516.34 1086.05 Q1516.34 1088.18 1515.53 1090.1 Q1514.74 1092 1512.63 1094.59 Q1512.05 1095.26 1508.95 1098.48 Q1505.85 1101.68 1500.2 1107.44 Z" fill="#000000" fill-rule="nonzero" fill-opacity="1" /><path clip-path="url(#clip980)" d="M1539.18 1080.89 L1527.38 1099.34 L1539.18 1099.34 L1539.18 1080.89 M1537.96 1076.82 L1543.84 1076.82 L1543.84 1099.34 L1548.77 1099.34 L1548.77 1103.23 L1543.84 1103.23 L1543.84 1111.38 L1539.18 1111.38 L1539.18 1103.23 L1523.58 1103.23 L1523.58 1098.71 L1537.96 1076.82 Z" fill="#000000" fill-rule="nonzero" fill-opacity="1" /><path clip-path="url(#clip980)" d="M1553.74 1096.49 L1566.22 1096.49 L1566.22 1100.29 L1553.74 1100.29 L1553.74 1096.49 Z" fill="#000000" fill-rule="nonzero" fill-opacity="1" /><path clip-path="url(#clip980)" d="M1583.61 1079.89 Q1579.99 1079.89 1578.17 1083.46 Q1576.36 1087 1576.36 1094.13 Q1576.36 1101.24 1578.17 1104.8 Q1579.99 1108.34 1583.61 1108.34 Q1587.24 1108.34 1589.05 1104.8 Q1590.87 1101.24 1590.87 1094.13 Q1590.87 1087 1589.05 1083.46 Q1587.24 1079.89 1583.61 1079.89 M1583.61 1076.19 Q1589.42 1076.19 1592.47 1080.8 Q1595.55 1085.38 1595.55 1094.13 Q1595.55 1102.86 1592.47 1107.46 Q1589.42 1112.05 1583.61 1112.05 Q1577.8 1112.05 1574.72 1107.46 Q1571.66 1102.86 1571.66 1094.13 Q1571.66 1085.38 1574.72 1080.8 Q1577.8 1076.19 1583.61 1076.19 Z" fill="#000000" fill-rule="nonzero" fill-opacity="1" /><path clip-path="url(#clip980)" d="M1602.59 1076.82 L1624.81 1076.82 L1624.81 1078.81 L1612.26 1111.38 L1607.38 1111.38 L1619.18 1080.75 L1602.59 1080.75 L1602.59 1076.82 Z" fill="#000000" fill-rule="nonzero" fill-opacity="1" /><path clip-path="url(#clip980)" d="M1631.17 1096.49 L1643.65 1096.49 L1643.65 1100.29 L1631.17 1100.29 L1631.17 1096.49 Z" fill="#000000" fill-rule="nonzero" fill-opacity="1" /><path clip-path="url(#clip980)" d="M1661.04 1079.89 Q1657.42 1079.89 1655.6 1083.46 Q1653.79 1087 1653.79 1094.13 Q1653.79 1101.24 1655.6 1104.8 Q1657.42 1108.34 1661.04 1108.34 Q1664.67 1108.34 1666.48 1104.8 Q1668.3 1101.24 1668.3 1094.13 Q1668.3 1087 1666.48 1083.46 Q1664.67 1079.89 1661.04 1079.89 M1661.04 1076.19 Q1666.85 1076.19 1669.9 1080.8 Q1672.98 1085.38 1672.98 1094.13 Q1672.98 1102.86 1669.9 1107.46 Q1666.85 1112.05 1661.04 1112.05 Q1655.23 1112.05 1652.15 1107.46 Q1649.09 1102.86 1649.09 1094.13 Q1649.09 1085.38 1652.15 1080.8 Q1655.23 1076.19 1661.04 1076.19 Z" fill="#000000" fill-rule="nonzero" fill-opacity="1" /><path clip-path="url(#clip980)" d="M1682.01 1107.44 L1689.65 1107.44 L1689.65 1081.07 L1681.34 1082.74 L1681.34 1078.48 L1689.6 1076.82 L1694.28 1076.82 L1694.28 1107.44 L1701.91 1107.44 L1701.91 1111.38 L1682.01 1111.38 L1682.01 1107.44 Z" fill="#000000" fill-rule="nonzero" fill-opacity="1" /><path clip-path="url(#clip980)" d="M2313.44 1107.44 L2329.76 1107.44 L2329.76 1111.38 L2307.81 1111.38 L2307.81 1107.44 Q2310.47 1104.69 2315.06 1100.06 Q2319.66 1095.4 2320.84 1094.06 Q2323.09 1091.54 2323.97 1089.8 Q2324.87 1088.04 2324.87 1086.35 Q2324.87 1083.6 2322.93 1081.86 Q2321.01 1080.13 2317.9 1080.13 Q2315.7 1080.13 2313.25 1080.89 Q2310.82 1081.65 2308.04 1083.2 L2308.04 1078.48 Q2310.87 1077.35 2313.32 1076.77 Q2315.77 1076.19 2317.81 1076.19 Q2323.18 1076.19 2326.38 1078.88 Q2329.57 1081.56 2329.57 1086.05 Q2329.57 1088.18 2328.76 1090.1 Q2327.97 1092 2325.87 1094.59 Q2325.29 1095.26 2322.19 1098.48 Q2319.08 1101.68 2313.44 1107.44 Z" fill="#000000" fill-rule="nonzero" fill-opacity="1" /><path clip-path="url(#clip980)" d="M2349.57 1079.89 Q2345.96 1079.89 2344.13 1083.46 Q2342.32 1087 2342.32 1094.13 Q2342.32 1101.24 2344.13 1104.8 Q2345.96 1108.34 2349.57 1108.34 Q2353.2 1108.34 2355.01 1104.8 Q2356.84 1101.24 2356.84 1094.13 Q2356.84 1087 2355.01 1083.46 Q2353.2 1079.89 2349.57 1079.89 M2349.57 1076.19 Q2355.38 1076.19 2358.44 1080.8 Q2361.51 1085.38 2361.51 1094.13 Q2361.51 1102.86 2358.44 1107.46 Q2355.38 1112.05 2349.57 1112.05 Q2343.76 1112.05 2340.68 1107.46 Q2337.63 1102.86 2337.63 1094.13 Q2337.63 1085.38 2340.68 1080.8 Q2343.76 1076.19 2349.57 1076.19 Z" fill="#000000" fill-rule="nonzero" fill-opacity="1" /><path clip-path="url(#clip980)" d="M2373.76 1107.44 L2390.08 1107.44 L2390.08 1111.38 L2368.13 1111.38 L2368.13 1107.44 Q2370.8 1104.69 2375.38 1100.06 Q2379.99 1095.4 2381.17 1094.06 Q2383.41 1091.54 2384.29 1089.8 Q2385.19 1088.04 2385.19 1086.35 Q2385.19 1083.6 2383.25 1081.86 Q2381.33 1080.13 2378.23 1080.13 Q2376.03 1080.13 2373.57 1080.89 Q2371.14 1081.65 2368.37 1083.2 L2368.37 1078.48 Q2371.19 1077.35 2373.64 1076.77 Q2376.1 1076.19 2378.13 1076.19 Q2383.5 1076.19 2386.7 1078.88 Q2389.89 1081.56 2389.89 1086.05 Q2389.89 1088.18 2389.08 1090.1 Q2388.3 1092 2386.19 1094.59 Q2385.61 1095.26 2382.51 1098.48 Q2379.41 1101.68 2373.76 1107.44 Z" fill="#000000" fill-rule="nonzero" fill-opacity="1" /><path clip-path="url(#clip980)" d="M2412.74 1080.89 L2400.94 1099.34 L2412.74 1099.34 L2412.74 1080.89 M2411.51 1076.82 L2417.39 1076.82 L2417.39 1099.34 L2422.32 1099.34 L2422.32 1103.23 L2417.39 1103.23 L2417.39 1111.38 L2412.74 1111.38 L2412.74 1103.23 L2397.14 1103.23 L2397.14 1098.71 L2411.51 1076.82 Z" fill="#000000" fill-rule="nonzero" fill-opacity="1" /><path clip-path="url(#clip980)" d="M2427.3 1096.49 L2439.78 1096.49 L2439.78 1100.29 L2427.3 1100.29 L2427.3 1096.49 Z" fill="#000000" fill-rule="nonzero" fill-opacity="1" /><path clip-path="url(#clip980)" d="M2457.16 1079.89 Q2453.55 1079.89 2451.72 1083.46 Q2449.92 1087 2449.92 1094.13 Q2449.92 1101.24 2451.72 1104.8 Q2453.55 1108.34 2457.16 1108.34 Q2460.8 1108.34 2462.6 1104.8 Q2464.43 1101.24 2464.43 1094.13 Q2464.43 1087 2462.6 1083.46 Q2460.8 1079.89 2457.16 1079.89 M2457.16 1076.19 Q2462.97 1076.19 2466.03 1080.8 Q2469.11 1085.38 2469.11 1094.13 Q2469.11 1102.86 2466.03 1107.46 Q2462.97 1112.05 2457.16 1112.05 Q2451.35 1112.05 2448.27 1107.46 Q2445.22 1102.86 2445.22 1094.13 Q2445.22 1085.38 2448.27 1080.8 Q2451.35 1076.19 2457.16 1076.19 Z" fill="#000000" fill-rule="nonzero" fill-opacity="1" /><path clip-path="url(#clip980)" d="M2487.32 1094.96 Q2483.99 1094.96 2482.07 1096.75 Q2480.17 1098.53 2480.17 1101.65 Q2480.17 1104.78 2482.07 1106.56 Q2483.99 1108.34 2487.32 1108.34 Q2490.66 1108.34 2492.58 1106.56 Q2494.5 1104.76 2494.5 1101.65 Q2494.5 1098.53 2492.58 1096.75 Q2490.68 1094.96 2487.32 1094.96 M2482.65 1092.97 Q2479.64 1092.23 2477.95 1090.17 Q2476.28 1088.11 2476.28 1085.15 Q2476.28 1081.01 2479.22 1078.6 Q2482.18 1076.19 2487.32 1076.19 Q2492.49 1076.19 2495.43 1078.6 Q2498.37 1081.01 2498.37 1085.15 Q2498.37 1088.11 2496.68 1090.17 Q2495.01 1092.23 2492.02 1092.97 Q2495.4 1093.76 2497.28 1096.05 Q2499.18 1098.34 2499.18 1101.65 Q2499.18 1106.68 2496.1 1109.36 Q2493.04 1112.05 2487.32 1112.05 Q2481.61 1112.05 2478.53 1109.36 Q2475.47 1106.68 2475.47 1101.65 Q2475.47 1098.34 2477.37 1096.05 Q2479.27 1093.76 2482.65 1092.97 M2480.93 1085.59 Q2480.93 1088.27 2482.6 1089.78 Q2484.29 1091.28 2487.32 1091.28 Q2490.33 1091.28 2492.02 1089.78 Q2493.74 1088.27 2493.74 1085.59 Q2493.74 1082.9 2492.02 1081.4 Q2490.33 1079.89 2487.32 1079.89 Q2484.29 1079.89 2482.6 1081.4 Q2480.93 1082.9 2480.93 1085.59 Z" fill="#000000" fill-rule="nonzero" fill-opacity="1" /><path clip-path="url(#clip980)" d="M2504.73 1096.49 L2517.21 1096.49 L2517.21 1100.29 L2504.73 1100.29 L2504.73 1096.49 Z" fill="#000000" fill-rule="nonzero" fill-opacity="1" /><path clip-path="url(#clip980)" d="M2534.59 1079.89 Q2530.98 1079.89 2529.15 1083.46 Q2527.35 1087 2527.35 1094.13 Q2527.35 1101.24 2529.15 1104.8 Q2530.98 1108.34 2534.59 1108.34 Q2538.23 1108.34 2540.03 1104.8 Q2541.86 1101.24 2541.86 1094.13 Q2541.86 1087 2540.03 1083.46 Q2538.23 1079.89 2534.59 1079.89 M2534.59 1076.19 Q2540.4 1076.19 2543.46 1080.8 Q2546.54 1085.38 2546.54 1094.13 Q2546.54 1102.86 2543.46 1107.46 Q2540.4 1112.05 2534.59 1112.05 Q2528.78 1112.05 2525.7 1107.46 Q2522.65 1102.86 2522.65 1094.13 Q2522.65 1085.38 2525.7 1080.8 Q2528.78 1076.19 2534.59 1076.19 Z" fill="#000000" fill-rule="nonzero" fill-opacity="1" /><path clip-path="url(#clip980)" d="M2555.56 1107.44 L2563.2 1107.44 L2563.2 1081.07 L2554.89 1082.74 L2554.89 1078.48 L2563.16 1076.82 L2567.83 1076.82 L2567.83 1107.44 L2575.47 1107.44 L2575.47 1111.38 L2555.56 1111.38 L2555.56 1107.44 Z" fill="#000000" fill-rule="nonzero" fill-opacity="1" /><polyline clip-path="url(#clip982)" style="stroke:#000000; stroke-linecap:round; stroke-linejoin:round; stroke-width:2; stroke-opacity:0.1; fill:none" points="271.839,1042.58 3089.76,1042.58 "/>
<polyline clip-path="url(#clip982)" style="stroke:#000000; stroke-linecap:round; stroke-linejoin:round; stroke-width:2; stroke-opacity:0.1; fill:none" points="271.839,448.048 3089.76,448.048 "/>
<polyline clip-path="url(#clip980)" style="stroke:#000000; stroke-linecap:round; stroke-linejoin:round; stroke-width:4; stroke-opacity:1; fill:none" points="271.839,1042.58 271.839,110.236 "/>
<polyline clip-path="url(#clip980)" style="stroke:#000000; stroke-linecap:round; stroke-linejoin:round; stroke-width:4; stroke-opacity:1; fill:none" points="271.839,1042.58 290.737,1042.58 "/>
<polyline clip-path="url(#clip980)" style="stroke:#000000; stroke-linecap:round; stroke-linejoin:round; stroke-width:4; stroke-opacity:1; fill:none" points="271.839,448.048 290.737,448.048 "/>
<path clip-path="url(#clip980)" d="M153.134 1062.37 L160.772 1062.37 L160.772 1036 L152.462 1037.67 L152.462 1033.41 L160.726 1031.74 L165.402 1031.74 L165.402 1062.37 L173.041 1062.37 L173.041 1066.3 L153.134 1066.3 L153.134 1062.37 Z" fill="#000000" fill-rule="nonzero" fill-opacity="1" /><path clip-path="url(#clip980)" d="M192.485 1034.82 Q188.874 1034.82 187.045 1038.39 Q185.24 1041.93 185.24 1049.06 Q185.24 1056.16 187.045 1059.73 Q188.874 1063.27 192.485 1063.27 Q196.119 1063.27 197.925 1059.73 Q199.754 1056.16 199.754 1049.06 Q199.754 1041.93 197.925 1038.39 Q196.119 1034.82 192.485 1034.82 M192.485 1031.12 Q198.295 1031.12 201.351 1035.72 Q204.43 1040.31 204.43 1049.06 Q204.43 1057.78 201.351 1062.39 Q198.295 1066.97 192.485 1066.97 Q186.675 1066.97 183.596 1062.39 Q180.541 1057.78 180.541 1049.06 Q180.541 1040.31 183.596 1035.72 Q186.675 1031.12 192.485 1031.12 Z" fill="#000000" fill-rule="nonzero" fill-opacity="1" /><path clip-path="url(#clip980)" d="M214.134 1013.31 Q211.2 1013.31 209.715 1016.21 Q208.248 1019.09 208.248 1024.88 Q208.248 1030.66 209.715 1033.55 Q211.2 1036.43 214.134 1036.43 Q217.087 1036.43 218.554 1033.55 Q220.04 1030.66 220.04 1024.88 Q220.04 1019.09 218.554 1016.21 Q217.087 1013.31 214.134 1013.31 M214.134 1010.31 Q218.855 1010.31 221.338 1014.05 Q223.839 1017.77 223.839 1024.88 Q223.839 1031.97 221.338 1035.71 Q218.855 1039.44 214.134 1039.44 Q209.414 1039.44 206.912 1035.71 Q204.43 1031.97 204.43 1024.88 Q204.43 1017.77 206.912 1014.05 Q209.414 1010.31 214.134 1010.31 Z" fill="#000000" fill-rule="nonzero" fill-opacity="1" /><path clip-path="url(#clip980)" d="M155.823 467.84 L163.462 467.84 L163.462 441.475 L155.152 443.141 L155.152 438.882 L163.416 437.216 L168.092 437.216 L168.092 467.84 L175.73 467.84 L175.73 471.776 L155.823 471.776 L155.823 467.84 Z" fill="#000000" fill-rule="nonzero" fill-opacity="1" /><path clip-path="url(#clip980)" d="M195.175 440.294 Q191.564 440.294 189.735 443.859 Q187.929 447.401 187.929 454.53 Q187.929 461.637 189.735 465.202 Q191.564 468.743 195.175 468.743 Q198.809 468.743 200.615 465.202 Q202.443 461.637 202.443 454.53 Q202.443 447.401 200.615 443.859 Q198.809 440.294 195.175 440.294 M195.175 436.591 Q200.985 436.591 204.04 441.197 Q207.119 445.78 207.119 454.53 Q207.119 463.257 204.04 467.864 Q200.985 472.447 195.175 472.447 Q189.365 472.447 186.286 467.864 Q183.23 463.257 183.23 454.53 Q183.23 445.78 186.286 441.197 Q189.365 436.591 195.175 436.591 Z" fill="#000000" fill-rule="nonzero" fill-opacity="1" /><path clip-path="url(#clip980)" d="M207.665 441.168 L213.871 441.168 L213.871 419.746 L207.119 421.1 L207.119 417.639 L213.833 416.285 L217.633 416.285 L217.633 441.168 L223.839 441.168 L223.839 444.365 L207.665 444.365 L207.665 441.168 Z" fill="#000000" fill-rule="nonzero" fill-opacity="1" /><path clip-path="url(#clip980)" d="M83.4268 891.524 L70.6636 891.524 L70.6636 902.028 L65.38 902.028 L65.38 885.159 L85.7821 885.159 Q88.4239 888.883 89.7925 893.37 Q91.1293 897.858 91.1293 902.951 Q91.1293 914.091 84.6363 920.393 Q78.1114 926.663 66.494 926.663 Q54.8448 926.663 48.3518 920.393 Q41.8269 914.091 41.8269 902.951 Q41.8269 898.304 42.9727 894.134 Q44.1186 889.933 46.3466 886.4 L53.1897 886.4 Q50.166 889.965 48.6382 893.975 Q47.1104 897.986 47.1104 902.41 Q47.1104 911.131 51.9802 915.523 Q56.85 919.884 66.494 919.884 Q76.1062 919.884 80.976 915.523 Q85.8458 911.131 85.8458 902.41 Q85.8458 899.004 85.2729 896.33 Q84.6681 893.657 83.4268 891.524 Z" fill="#000000" fill-rule="nonzero" fill-opacity="1" /><path clip-path="url(#clip980)" d="M70.9182 843.177 L73.7828 843.177 L73.7828 870.104 Q79.8302 869.722 83.013 866.475 Q86.1641 863.197 86.1641 857.372 Q86.1641 853.999 85.3365 850.848 Q84.509 847.665 82.8539 844.545 L88.3921 844.545 Q89.7289 847.696 90.4291 851.007 Q91.1293 854.317 91.1293 857.722 Q91.1293 866.253 86.1641 871.25 Q81.1988 876.215 72.7324 876.215 Q63.9796 876.215 58.8552 871.504 Q53.699 866.762 53.699 858.741 Q53.699 851.548 58.3459 847.378 Q62.9611 843.177 70.9182 843.177 M69.1995 849.033 Q64.3933 849.097 61.5288 851.739 Q58.6642 854.349 58.6642 858.677 Q58.6642 863.579 61.4333 866.539 Q64.2024 869.467 69.2313 869.913 L69.1995 849.033 Z" fill="#000000" fill-rule="nonzero" fill-opacity="1" /><path clip-path="url(#clip980)" d="M68.6902 803.932 L90.2063 803.932 L90.2063 809.789 L68.8812 809.789 Q63.8204 809.789 61.306 811.762 Q58.7915 813.735 58.7915 817.682 Q58.7915 822.425 61.8152 825.162 Q64.8389 827.899 70.0588 827.899 L90.2063 827.899 L90.2063 833.787 L54.5583 833.787 L54.5583 827.899 L60.0965 827.899 Q56.8818 825.798 55.2904 822.966 Q53.699 820.101 53.699 816.377 Q53.699 810.234 57.5184 807.083 Q61.306 803.932 68.6902 803.932 Z" fill="#000000" fill-rule="nonzero" fill-opacity="1" /><path clip-path="url(#clip980)" d="M58.6642 778.438 Q58.6642 783.148 62.3563 785.885 Q66.0166 788.623 72.4141 788.623 Q78.8117 788.623 82.5038 785.917 Q86.1641 783.18 86.1641 778.438 Q86.1641 773.759 82.4719 771.022 Q78.7798 768.284 72.4141 768.284 Q66.0803 768.284 62.3881 771.022 Q58.6642 773.759 58.6642 778.438 M53.699 778.438 Q53.699 770.799 58.6642 766.438 Q63.6295 762.078 72.4141 762.078 Q81.167 762.078 86.1641 766.438 Q91.1293 770.799 91.1293 778.438 Q91.1293 786.108 86.1641 790.469 Q81.167 794.797 72.4141 794.797 Q63.6295 794.797 58.6642 790.469 Q53.699 786.108 53.699 778.438 Z" fill="#000000" fill-rule="nonzero" fill-opacity="1" /><path clip-path="url(#clip980)" d="M61.4015 724.616 Q57.4547 722.419 55.5768 719.364 Q53.699 716.308 53.699 712.171 Q53.699 706.601 57.6139 703.577 Q61.4969 700.553 68.6902 700.553 L90.2063 700.553 L90.2063 706.441 L68.8812 706.441 Q63.7568 706.441 61.2741 708.256 Q58.7915 710.07 58.7915 713.794 Q58.7915 718.345 61.8152 720.987 Q64.8389 723.629 70.0588 723.629 L90.2063 723.629 L90.2063 729.517 L68.8812 729.517 Q63.7249 729.517 61.2741 731.331 Q58.7915 733.146 58.7915 736.933 Q58.7915 741.421 61.8471 744.063 Q64.8708 746.705 70.0588 746.705 L90.2063 746.705 L90.2063 752.593 L54.5583 752.593 L54.5583 746.705 L60.0965 746.705 Q56.8182 744.699 55.2586 741.898 Q53.699 739.098 53.699 735.246 Q53.699 731.363 55.6723 728.658 Q57.6457 725.921 61.4015 724.616 Z" fill="#000000" fill-rule="nonzero" fill-opacity="1" /><path clip-path="url(#clip980)" d="M70.9182 658.38 L73.7828 658.38 L73.7828 685.307 Q79.8302 684.925 83.013 681.679 Q86.1641 678.401 86.1641 672.576 Q86.1641 669.202 85.3365 666.051 Q84.509 662.868 82.8539 659.749 L88.3921 659.749 Q89.7289 662.9 90.4291 666.21 Q91.1293 669.52 91.1293 672.926 Q91.1293 681.456 86.1641 686.453 Q81.1988 691.418 72.7324 691.418 Q63.9796 691.418 58.8552 686.708 Q53.699 681.965 53.699 673.945 Q53.699 666.751 58.3459 662.582 Q62.9611 658.38 70.9182 658.38 M69.1995 664.237 Q64.3933 664.3 61.5288 666.942 Q58.6642 669.552 58.6642 673.881 Q58.6642 678.782 61.4333 681.743 Q64.2024 684.671 69.2313 685.116 L69.1995 664.237 Z" fill="#000000" fill-rule="nonzero" fill-opacity="1" /><path clip-path="url(#clip980)" d="M55.6087 626.043 L61.1468 626.043 Q59.8737 628.525 59.2371 631.199 Q58.6006 633.872 58.6006 636.737 Q58.6006 641.097 59.9373 643.294 Q61.2741 645.458 63.9477 645.458 Q65.9848 645.458 67.1624 643.898 Q68.3083 642.339 69.3586 637.628 L69.8042 635.623 Q71.141 629.385 73.5918 626.775 Q76.0108 624.133 80.3713 624.133 Q85.3365 624.133 88.2329 628.08 Q91.1293 631.995 91.1293 638.869 Q91.1293 641.734 90.5564 644.853 Q90.0153 647.941 88.9013 651.378 L82.8539 651.378 Q84.5408 648.132 85.4002 644.981 Q86.2277 641.83 86.2277 638.742 Q86.2277 634.604 84.8273 632.376 Q83.395 630.148 80.8169 630.148 Q78.4297 630.148 77.1566 631.772 Q75.8834 633.363 74.7058 638.806 L74.2284 640.843 Q73.0825 646.286 70.7272 648.704 Q68.3401 651.123 64.2024 651.123 Q59.1735 651.123 56.4362 647.559 Q53.699 643.994 53.699 637.437 Q53.699 634.191 54.1764 631.326 Q54.6538 628.462 55.6087 626.043 Z" fill="#000000" fill-rule="nonzero" fill-opacity="1" /><path clip-path="url(#clip980)" d="M42.6863 604.399 L42.6863 598.988 L96.2537 615.539 L96.2537 620.95 L42.6863 604.399 Z" fill="#000000" fill-rule="nonzero" fill-opacity="1" /><path clip-path="url(#clip980)" d="M47.9698 586.161 L84.9227 586.161 L84.9227 578.395 Q84.9227 568.56 80.4668 564.009 Q76.0108 559.425 66.3985 559.425 Q56.85 559.425 52.4258 564.009 Q47.9698 568.56 47.9698 578.395 L47.9698 586.161 M42.6863 592.591 L42.6863 579.382 Q42.6863 565.568 48.4472 559.107 Q54.1764 552.646 66.3985 552.646 Q78.6844 552.646 84.4453 559.139 Q90.2063 565.632 90.2063 579.382 L90.2063 592.591 L42.6863 592.591 Z" fill="#000000" fill-rule="nonzero" fill-opacity="1" /><path clip-path="url(#clip980)" d="M72.2868 526.451 Q72.2868 533.549 73.9101 536.286 Q75.5333 539.023 79.4482 539.023 Q82.5674 539.023 84.4135 536.986 Q86.2277 534.917 86.2277 531.385 Q86.2277 526.515 82.7902 523.587 Q79.3209 520.626 73.5918 520.626 L72.2868 520.626 L72.2868 526.451 M69.8679 514.77 L90.2063 514.77 L90.2063 520.626 L84.7954 520.626 Q88.0419 522.632 89.6015 525.624 Q91.1293 528.615 91.1293 532.944 Q91.1293 538.419 88.0738 541.665 Q84.9864 544.88 79.8302 544.88 Q73.8146 544.88 70.759 540.869 Q67.7035 536.827 67.7035 528.838 L67.7035 520.626 L67.1306 520.626 Q63.0884 520.626 60.8922 523.3 Q58.6642 525.942 58.6642 530.748 Q58.6642 533.803 59.3963 536.7 Q60.1283 539.596 61.5924 542.27 L56.1816 542.27 Q54.9403 539.055 54.3355 536.031 Q53.699 533.008 53.699 530.143 Q53.699 522.409 57.7094 518.589 Q61.7197 514.77 69.8679 514.77 Z" fill="#000000" fill-rule="nonzero" fill-opacity="1" /><path clip-path="url(#clip980)" d="M93.5165 487.875 Q99.8822 490.358 101.824 492.713 Q103.765 495.068 103.765 499.015 L103.765 503.694 L98.8636 503.694 L98.8636 500.256 Q98.8636 497.837 97.7178 496.5 Q96.572 495.164 92.307 493.54 L89.6334 492.49 L54.5583 506.908 L54.5583 500.702 L82.4401 489.562 L54.5583 478.422 L54.5583 472.215 L93.5165 487.875 Z" fill="#000000" fill-rule="nonzero" fill-opacity="1" /><path clip-path="url(#clip980)" d="M40.7447 429.342 Q48.0653 433.607 55.2267 435.676 Q62.3881 437.745 69.7405 437.745 Q77.0929 437.745 84.318 435.676 Q91.5113 433.575 98.8 429.342 L98.8 434.435 Q91.3203 439.209 84.0952 441.596 Q76.8701 443.952 69.7405 443.952 Q62.6428 443.952 55.4495 441.596 Q48.2563 439.241 40.7447 434.435 L40.7447 429.342 Z" fill="#000000" fill-rule="nonzero" fill-opacity="1" /><path clip-path="url(#clip980)" d="M42.6863 417.725 L42.6863 411.295 L90.2063 411.295 L90.2063 417.725 L42.6863 417.725 Z" fill="#000000" fill-rule="nonzero" fill-opacity="1" /><path clip-path="url(#clip980)" d="M55.6087 376.029 L61.1468 376.029 Q59.8737 378.512 59.2371 381.186 Q58.6006 383.859 58.6006 386.724 Q58.6006 391.084 59.9373 393.281 Q61.2741 395.445 63.9477 395.445 Q65.9848 395.445 67.1624 393.885 Q68.3083 392.326 69.3586 387.615 L69.8042 385.61 Q71.141 379.371 73.5918 376.762 Q76.0108 374.12 80.3713 374.12 Q85.3365 374.12 88.2329 378.066 Q91.1293 381.981 91.1293 388.856 Q91.1293 391.721 90.5564 394.84 Q90.0153 397.927 88.9013 401.365 L82.8539 401.365 Q84.5408 398.118 85.4002 394.967 Q86.2277 391.816 86.2277 388.729 Q86.2277 384.591 84.8273 382.363 Q83.395 380.135 80.8169 380.135 Q78.4297 380.135 77.1566 381.759 Q75.8834 383.35 74.7058 388.793 L74.2284 390.83 Q73.0825 396.272 70.7272 398.691 Q68.3401 401.11 64.2024 401.11 Q59.1735 401.11 56.4362 397.546 Q53.699 393.981 53.699 387.424 Q53.699 384.178 54.1764 381.313 Q54.6538 378.448 55.6087 376.029 Z" fill="#000000" fill-rule="nonzero" fill-opacity="1" /><path clip-path="url(#clip980)" d="M60.0328 344.137 Q59.4599 345.124 59.2053 346.302 Q58.9188 347.447 58.9188 348.848 Q58.9188 353.813 62.1653 356.487 Q65.38 359.129 71.4274 359.129 L90.2063 359.129 L90.2063 365.017 L54.5583 365.017 L54.5583 359.129 L60.0965 359.129 Q56.85 357.282 55.2904 354.322 Q53.699 351.362 53.699 347.129 Q53.699 346.524 53.7944 345.792 Q53.8581 345.06 54.0172 344.169 L60.0328 344.137 Z" fill="#000000" fill-rule="nonzero" fill-opacity="1" /><path clip-path="url(#clip980)" d="M72.2868 321.794 Q72.2868 328.891 73.9101 331.629 Q75.5333 334.366 79.4482 334.366 Q82.5674 334.366 84.4135 332.329 Q86.2277 330.26 86.2277 326.727 Q86.2277 321.857 82.7902 318.929 Q79.3209 315.969 73.5918 315.969 L72.2868 315.969 L72.2868 321.794 M69.8679 310.113 L90.2063 310.113 L90.2063 315.969 L84.7954 315.969 Q88.0419 317.974 89.6015 320.966 Q91.1293 323.958 91.1293 328.287 Q91.1293 333.761 88.0738 337.008 Q84.9864 340.222 79.8302 340.222 Q73.8146 340.222 70.759 336.212 Q67.7035 332.17 67.7035 324.181 L67.7035 315.969 L67.1306 315.969 Q63.0884 315.969 60.8922 318.643 Q58.6642 321.284 58.6642 326.09 Q58.6642 329.146 59.3963 332.042 Q60.1283 334.939 61.5924 337.612 L56.1816 337.612 Q54.9403 334.398 54.3355 331.374 Q53.699 328.35 53.699 325.486 Q53.699 317.751 57.7094 313.932 Q61.7197 310.113 69.8679 310.113 Z" fill="#000000" fill-rule="nonzero" fill-opacity="1" /><path clip-path="url(#clip980)" d="M70.9182 267.558 L73.7828 267.558 L73.7828 294.485 Q79.8302 294.103 83.013 290.856 Q86.1641 287.578 86.1641 281.753 Q86.1641 278.38 85.3365 275.228 Q84.509 272.046 82.8539 268.926 L88.3921 268.926 Q89.7289 272.077 90.4291 275.388 Q91.1293 278.698 91.1293 282.103 Q91.1293 290.633 86.1641 295.631 Q81.1988 300.596 72.7324 300.596 Q63.9796 300.596 58.8552 295.885 Q53.699 291.143 53.699 283.122 Q53.699 275.929 58.3459 271.759 Q62.9611 267.558 70.9182 267.558 M69.1995 273.414 Q64.3933 273.478 61.5288 276.12 Q58.6642 278.73 58.6642 283.058 Q58.6642 287.96 61.4333 290.92 Q64.2024 293.848 69.2313 294.294 L69.1995 273.414 Z" fill="#000000" fill-rule="nonzero" fill-opacity="1" /><path clip-path="url(#clip980)" d="M40.6811 257.946 L40.6811 252.089 L90.2063 252.089 L90.2063 257.946 L40.6811 257.946 Z" fill="#000000" fill-rule="nonzero" fill-opacity="1" /><path clip-path="url(#clip980)" d="M40.7447 240.758 L40.7447 235.666 Q48.2563 230.891 55.4495 228.536 Q62.6428 226.149 69.7405 226.149 Q76.8701 226.149 84.0952 228.536 Q91.3203 230.891 98.8 235.666 L98.8 240.758 Q91.5113 236.525 84.318 234.456 Q77.0929 232.355 69.7405 232.355 Q62.3881 232.355 55.2267 234.456 Q48.0653 236.525 40.7447 240.758 Z" fill="#000000" fill-rule="nonzero" fill-opacity="1" /><path clip-path="url(#clip982)" d="M288.747 863.605 L288.747 1042.58 L311.29 1042.58 L311.29 863.605 L288.747 863.605 L288.747 863.605  Z" fill="#009af9" fill-rule="evenodd" fill-opacity="0.5"/>
<polyline clip-path="url(#clip982)" style="stroke:#000000; stroke-linecap:round; stroke-linejoin:round; stroke-width:4; stroke-opacity:0.5; fill:none" points="288.747,863.605 288.747,1042.58 311.29,1042.58 311.29,863.605 288.747,863.605 "/>
<path clip-path="url(#clip982)" d="M316.926 758.914 L316.926 1042.58 L339.469 1042.58 L339.469 758.914 L316.926 758.914 L316.926 758.914  Z" fill="#009af9" fill-rule="evenodd" fill-opacity="0.5"/>
<polyline clip-path="url(#clip982)" style="stroke:#000000; stroke-linecap:round; stroke-linejoin:round; stroke-width:4; stroke-opacity:0.5; fill:none" points="316.926,758.914 316.926,1042.58 339.469,1042.58 339.469,758.914 316.926,758.914 "/>
<path clip-path="url(#clip982)" d="M345.105 758.914 L345.105 1042.58 L367.649 1042.58 L367.649 758.914 L345.105 758.914 L345.105 758.914  Z" fill="#009af9" fill-rule="evenodd" fill-opacity="0.5"/>
<polyline clip-path="url(#clip982)" style="stroke:#000000; stroke-linecap:round; stroke-linejoin:round; stroke-width:4; stroke-opacity:0.5; fill:none" points="345.105,758.914 345.105,1042.58 367.649,1042.58 367.649,758.914 345.105,758.914 "/>
<path clip-path="url(#clip982)" d="M373.285 540.141 L373.285 1042.58 L395.828 1042.58 L395.828 540.141 L373.285 540.141 L373.285 540.141  Z" fill="#009af9" fill-rule="evenodd" fill-opacity="0.5"/>
<polyline clip-path="url(#clip982)" style="stroke:#000000; stroke-linecap:round; stroke-linejoin:round; stroke-width:4; stroke-opacity:0.5; fill:none" points="373.285,540.141 373.285,1042.58 395.828,1042.58 395.828,540.141 373.285,540.141 "/>
<path clip-path="url(#clip982)" d="M401.464 380.305 L401.464 1042.58 L424.007 1042.58 L424.007 380.305 L401.464 380.305 L401.464 380.305  Z" fill="#009af9" fill-rule="evenodd" fill-opacity="0.5"/>
<polyline clip-path="url(#clip982)" style="stroke:#000000; stroke-linecap:round; stroke-linejoin:round; stroke-width:4; stroke-opacity:0.5; fill:none" points="401.464,380.305 401.464,1042.58 424.007,1042.58 424.007,380.305 401.464,380.305 "/>
<path clip-path="url(#clip982)" d="M429.643 684.634 L429.643 1042.58 L452.186 1042.58 L452.186 684.634 L429.643 684.634 L429.643 684.634  Z" fill="#009af9" fill-rule="evenodd" fill-opacity="0.5"/>
<polyline clip-path="url(#clip982)" style="stroke:#000000; stroke-linecap:round; stroke-linejoin:round; stroke-width:4; stroke-opacity:0.5; fill:none" points="429.643,684.634 429.643,1042.58 452.186,1042.58 452.186,684.634 429.643,684.634 "/>
<path clip-path="url(#clip982)" d="M457.822 684.634 L457.822 1042.58 L480.366 1042.58 L480.366 684.634 L457.822 684.634 L457.822 684.634  Z" fill="#009af9" fill-rule="evenodd" fill-opacity="0.5"/>
<polyline clip-path="url(#clip982)" style="stroke:#000000; stroke-linecap:round; stroke-linejoin:round; stroke-width:4; stroke-opacity:0.5; fill:none" points="457.822,684.634 457.822,1042.58 480.366,1042.58 480.366,684.634 457.822,684.634 "/>
<path clip-path="url(#clip982)" d="M486.001 448.048 L486.001 1042.58 L508.545 1042.58 L508.545 448.048 L486.001 448.048 L486.001 448.048  Z" fill="#009af9" fill-rule="evenodd" fill-opacity="0.5"/>
<polyline clip-path="url(#clip982)" style="stroke:#000000; stroke-linecap:round; stroke-linejoin:round; stroke-width:4; stroke-opacity:0.5; fill:none" points="486.001,448.048 486.001,1042.58 508.545,1042.58 508.545,448.048 486.001,448.048 "/>
<path clip-path="url(#clip982)" d="M514.181 863.605 L514.181 1042.58 L536.724 1042.58 L536.724 863.605 L514.181 863.605 L514.181 863.605  Z" fill="#009af9" fill-rule="evenodd" fill-opacity="0.5"/>
<polyline clip-path="url(#clip982)" style="stroke:#000000; stroke-linecap:round; stroke-linejoin:round; stroke-width:4; stroke-opacity:0.5; fill:none" points="514.181,863.605 514.181,1042.58 536.724,1042.58 536.724,863.605 514.181,863.605 "/>
<path clip-path="url(#clip982)" d="M542.36 400.972 L542.36 1042.58 L564.903 1042.58 L564.903 400.972 L542.36 400.972 L542.36 400.972  Z" fill="#009af9" fill-rule="evenodd" fill-opacity="0.5"/>
<polyline clip-path="url(#clip982)" style="stroke:#000000; stroke-linecap:round; stroke-linejoin:round; stroke-width:4; stroke-opacity:0.5; fill:none" points="542.36,400.972 542.36,1042.58 564.903,1042.58 564.903,400.972 542.36,400.972 "/>
<path clip-path="url(#clip982)" d="M570.539 448.048 L570.539 1042.58 L593.083 1042.58 L593.083 448.048 L570.539 448.048 L570.539 448.048  Z" fill="#009af9" fill-rule="evenodd" fill-opacity="0.5"/>
<polyline clip-path="url(#clip982)" style="stroke:#000000; stroke-linecap:round; stroke-linejoin:round; stroke-width:4; stroke-opacity:0.5; fill:none" points="570.539,448.048 570.539,1042.58 593.083,1042.58 593.083,448.048 570.539,448.048 "/>
<path clip-path="url(#clip982)" d="M598.718 505.664 L598.718 1042.58 L621.262 1042.58 L621.262 505.664 L598.718 505.664 L598.718 505.664  Z" fill="#009af9" fill-rule="evenodd" fill-opacity="0.5"/>
<polyline clip-path="url(#clip982)" style="stroke:#000000; stroke-linecap:round; stroke-linejoin:round; stroke-width:4; stroke-opacity:0.5; fill:none" points="598.718,505.664 598.718,1042.58 621.262,1042.58 621.262,505.664 598.718,505.664 "/>
<path clip-path="url(#clip982)" d="M626.898 627.019 L626.898 1042.58 L649.441 1042.58 L649.441 627.019 L626.898 627.019 L626.898 627.019  Z" fill="#009af9" fill-rule="evenodd" fill-opacity="0.5"/>
<polyline clip-path="url(#clip982)" style="stroke:#000000; stroke-linecap:round; stroke-linejoin:round; stroke-width:4; stroke-opacity:0.5; fill:none" points="626.898,627.019 626.898,1042.58 649.441,1042.58 649.441,627.019 626.898,627.019 "/>
<path clip-path="url(#clip982)" d="M655.077 758.914 L655.077 1042.58 L677.62 1042.58 L677.62 758.914 L655.077 758.914 L655.077 758.914  Z" fill="#009af9" fill-rule="evenodd" fill-opacity="0.5"/>
<polyline clip-path="url(#clip982)" style="stroke:#000000; stroke-linecap:round; stroke-linejoin:round; stroke-width:4; stroke-opacity:0.5; fill:none" points="655.077,758.914 655.077,1042.58 677.62,1042.58 677.62,758.914 655.077,758.914 "/>
<path clip-path="url(#clip982)" d="M683.256 627.019 L683.256 1042.58 L705.8 1042.58 L705.8 627.019 L683.256 627.019 L683.256 627.019  Z" fill="#009af9" fill-rule="evenodd" fill-opacity="0.5"/>
<polyline clip-path="url(#clip982)" style="stroke:#000000; stroke-linecap:round; stroke-linejoin:round; stroke-width:4; stroke-opacity:0.5; fill:none" points="683.256,627.019 683.256,1042.58 705.8,1042.58 705.8,627.019 683.256,627.019 "/>
<path clip-path="url(#clip982)" d="M711.435 627.019 L711.435 1042.58 L733.979 1042.58 L733.979 627.019 L711.435 627.019 L711.435 627.019  Z" fill="#009af9" fill-rule="evenodd" fill-opacity="0.5"/>
<polyline clip-path="url(#clip982)" style="stroke:#000000; stroke-linecap:round; stroke-linejoin:round; stroke-width:4; stroke-opacity:0.5; fill:none" points="711.435,627.019 711.435,1042.58 733.979,1042.58 733.979,627.019 711.435,627.019 "/>
<path clip-path="url(#clip982)" d="M739.615 475.252 L739.615 1042.58 L762.158 1042.58 L762.158 475.252 L739.615 475.252 L739.615 475.252  Z" fill="#009af9" fill-rule="evenodd" fill-opacity="0.5"/>
<polyline clip-path="url(#clip982)" style="stroke:#000000; stroke-linecap:round; stroke-linejoin:round; stroke-width:4; stroke-opacity:0.5; fill:none" points="739.615,475.252 739.615,1042.58 762.158,1042.58 762.158,475.252 739.615,475.252 "/>
<path clip-path="url(#clip982)" d="M767.794 684.634 L767.794 1042.58 L790.337 1042.58 L790.337 684.634 L767.794 684.634 L767.794 684.634  Z" fill="#009af9" fill-rule="evenodd" fill-opacity="0.5"/>
<polyline clip-path="url(#clip982)" style="stroke:#000000; stroke-linecap:round; stroke-linejoin:round; stroke-width:4; stroke-opacity:0.5; fill:none" points="767.794,684.634 767.794,1042.58 790.337,1042.58 790.337,684.634 767.794,684.634 "/>
<path clip-path="url(#clip982)" d="M795.973 282.321 L795.973 1042.58 L818.517 1042.58 L818.517 282.321 L795.973 282.321 L795.973 282.321  Z" fill="#009af9" fill-rule="evenodd" fill-opacity="0.5"/>
<polyline clip-path="url(#clip982)" style="stroke:#000000; stroke-linecap:round; stroke-linejoin:round; stroke-width:4; stroke-opacity:0.5; fill:none" points="795.973,282.321 795.973,1042.58 818.517,1042.58 818.517,282.321 795.973,282.321 "/>
<path clip-path="url(#clip982)" d="M824.152 361.171 L824.152 1042.58 L846.696 1042.58 L846.696 361.171 L824.152 361.171 L824.152 361.171  Z" fill="#009af9" fill-rule="evenodd" fill-opacity="0.5"/>
<polyline clip-path="url(#clip982)" style="stroke:#000000; stroke-linecap:round; stroke-linejoin:round; stroke-width:4; stroke-opacity:0.5; fill:none" points="824.152,361.171 824.152,1042.58 846.696,1042.58 846.696,361.171 824.152,361.171 "/>
<path clip-path="url(#clip982)" d="M852.332 400.972 L852.332 1042.58 L874.875 1042.58 L874.875 400.972 L852.332 400.972 L852.332 400.972  Z" fill="#009af9" fill-rule="evenodd" fill-opacity="0.5"/>
<polyline clip-path="url(#clip982)" style="stroke:#000000; stroke-linecap:round; stroke-linejoin:round; stroke-width:4; stroke-opacity:0.5; fill:none" points="852.332,400.972 852.332,1042.58 874.875,1042.58 874.875,400.972 852.332,400.972 "/>
<path clip-path="url(#clip982)" d="M880.511 758.914 L880.511 1042.58 L903.054 1042.58 L903.054 758.914 L880.511 758.914 L880.511 758.914  Z" fill="#009af9" fill-rule="evenodd" fill-opacity="0.5"/>
<polyline clip-path="url(#clip982)" style="stroke:#000000; stroke-linecap:round; stroke-linejoin:round; stroke-width:4; stroke-opacity:0.5; fill:none" points="880.511,758.914 880.511,1042.58 903.054,1042.58 903.054,758.914 880.511,758.914 "/>
<path clip-path="url(#clip982)" d="M908.69 579.943 L908.69 1042.58 L931.234 1042.58 L931.234 579.943 L908.69 579.943 L908.69 579.943  Z" fill="#009af9" fill-rule="evenodd" fill-opacity="0.5"/>
<polyline clip-path="url(#clip982)" style="stroke:#000000; stroke-linecap:round; stroke-linejoin:round; stroke-width:4; stroke-opacity:0.5; fill:none" points="908.69,579.943 908.69,1042.58 931.234,1042.58 931.234,579.943 908.69,579.943 "/>
<path clip-path="url(#clip982)" d="M936.869 475.252 L936.869 1042.58 L959.413 1042.58 L959.413 475.252 L936.869 475.252 L936.869 475.252  Z" fill="#009af9" fill-rule="evenodd" fill-opacity="0.5"/>
<polyline clip-path="url(#clip982)" style="stroke:#000000; stroke-linecap:round; stroke-linejoin:round; stroke-width:4; stroke-opacity:0.5; fill:none" points="936.869,475.252 936.869,1042.58 959.413,1042.58 959.413,475.252 936.869,475.252 "/>
<path clip-path="url(#clip982)" d="M965.049 380.305 L965.049 1042.58 L987.592 1042.58 L987.592 380.305 L965.049 380.305 L965.049 380.305  Z" fill="#009af9" fill-rule="evenodd" fill-opacity="0.5"/>
<polyline clip-path="url(#clip982)" style="stroke:#000000; stroke-linecap:round; stroke-linejoin:round; stroke-width:4; stroke-opacity:0.5; fill:none" points="965.049,380.305 965.049,1042.58 987.592,1042.58 987.592,380.305 965.049,380.305 "/>
<path clip-path="url(#clip982)" d="M993.228 475.252 L993.228 1042.58 L1015.77 1042.58 L1015.77 475.252 L993.228 475.252 L993.228 475.252  Z" fill="#009af9" fill-rule="evenodd" fill-opacity="0.5"/>
<polyline clip-path="url(#clip982)" style="stroke:#000000; stroke-linecap:round; stroke-linejoin:round; stroke-width:4; stroke-opacity:0.5; fill:none" points="993.228,475.252 993.228,1042.58 1015.77,1042.58 1015.77,475.252 993.228,475.252 "/>
<path clip-path="url(#clip982)" d="M1021.41 505.664 L1021.41 1042.58 L1043.95 1042.58 L1043.95 505.664 L1021.41 505.664 L1021.41 505.664  Z" fill="#009af9" fill-rule="evenodd" fill-opacity="0.5"/>
<polyline clip-path="url(#clip982)" style="stroke:#000000; stroke-linecap:round; stroke-linejoin:round; stroke-width:4; stroke-opacity:0.5; fill:none" points="1021.41,505.664 1021.41,1042.58 1043.95,1042.58 1043.95,505.664 1021.41,505.664 "/>
<path clip-path="url(#clip982)" d="M1049.59 361.171 L1049.59 1042.58 L1072.13 1042.58 L1072.13 361.171 L1049.59 361.171 L1049.59 361.171  Z" fill="#009af9" fill-rule="evenodd" fill-opacity="0.5"/>
<polyline clip-path="url(#clip982)" style="stroke:#000000; stroke-linecap:round; stroke-linejoin:round; stroke-width:4; stroke-opacity:0.5; fill:none" points="1049.59,361.171 1049.59,1042.58 1072.13,1042.58 1072.13,361.171 1049.59,361.171 "/>
<path clip-path="url(#clip982)" d="M1077.77 423.439 L1077.77 1042.58 L1100.31 1042.58 L1100.31 423.439 L1077.77 423.439 L1077.77 423.439  Z" fill="#009af9" fill-rule="evenodd" fill-opacity="0.5"/>
<polyline clip-path="url(#clip982)" style="stroke:#000000; stroke-linecap:round; stroke-linejoin:round; stroke-width:4; stroke-opacity:0.5; fill:none" points="1077.77,423.439 1077.77,1042.58 1100.31,1042.58 1100.31,423.439 1077.77,423.439 "/>
<path clip-path="url(#clip982)" d="M1105.94 505.664 L1105.94 1042.58 L1128.49 1042.58 L1128.49 505.664 L1105.94 505.664 L1105.94 505.664  Z" fill="#009af9" fill-rule="evenodd" fill-opacity="0.5"/>
<polyline clip-path="url(#clip982)" style="stroke:#000000; stroke-linecap:round; stroke-linejoin:round; stroke-width:4; stroke-opacity:0.5; fill:none" points="1105.94,505.664 1105.94,1042.58 1128.49,1042.58 1128.49,505.664 1105.94,505.664 "/>
<path clip-path="url(#clip982)" d="M1134.12 296.281 L1134.12 1042.58 L1156.67 1042.58 L1156.67 296.281 L1134.12 296.281 L1134.12 296.281  Z" fill="#009af9" fill-rule="evenodd" fill-opacity="0.5"/>
<polyline clip-path="url(#clip982)" style="stroke:#000000; stroke-linecap:round; stroke-linejoin:round; stroke-width:4; stroke-opacity:0.5; fill:none" points="1134.12,296.281 1134.12,1042.58 1156.67,1042.58 1156.67,296.281 1134.12,296.281 "/>
<path clip-path="url(#clip982)" d="M1162.3 380.305 L1162.3 1042.58 L1184.85 1042.58 L1184.85 380.305 L1162.3 380.305 L1162.3 380.305  Z" fill="#009af9" fill-rule="evenodd" fill-opacity="0.5"/>
<polyline clip-path="url(#clip982)" style="stroke:#000000; stroke-linecap:round; stroke-linejoin:round; stroke-width:4; stroke-opacity:0.5; fill:none" points="1162.3,380.305 1162.3,1042.58 1184.85,1042.58 1184.85,380.305 1162.3,380.305 "/>
<path clip-path="url(#clip982)" d="M1190.48 343.357 L1190.48 1042.58 L1213.03 1042.58 L1213.03 343.357 L1190.48 343.357 L1190.48 343.357  Z" fill="#009af9" fill-rule="evenodd" fill-opacity="0.5"/>
<polyline clip-path="url(#clip982)" style="stroke:#000000; stroke-linecap:round; stroke-linejoin:round; stroke-width:4; stroke-opacity:0.5; fill:none" points="1190.48,343.357 1190.48,1042.58 1213.03,1042.58 1213.03,343.357 1190.48,343.357 "/>
<path clip-path="url(#clip982)" d="M1218.66 423.439 L1218.66 1042.58 L1241.21 1042.58 L1241.21 423.439 L1218.66 423.439 L1218.66 423.439  Z" fill="#009af9" fill-rule="evenodd" fill-opacity="0.5"/>
<polyline clip-path="url(#clip982)" style="stroke:#000000; stroke-linecap:round; stroke-linejoin:round; stroke-width:4; stroke-opacity:0.5; fill:none" points="1218.66,423.439 1218.66,1042.58 1241.21,1042.58 1241.21,423.439 1218.66,423.439 "/>
<path clip-path="url(#clip982)" d="M1246.84 475.252 L1246.84 1042.58 L1269.38 1042.58 L1269.38 475.252 L1246.84 475.252 L1246.84 475.252  Z" fill="#009af9" fill-rule="evenodd" fill-opacity="0.5"/>
<polyline clip-path="url(#clip982)" style="stroke:#000000; stroke-linecap:round; stroke-linejoin:round; stroke-width:4; stroke-opacity:0.5; fill:none" points="1246.84,475.252 1246.84,1042.58 1269.38,1042.58 1269.38,475.252 1246.84,475.252 "/>
<path clip-path="url(#clip982)" d="M1275.02 423.439 L1275.02 1042.58 L1297.56 1042.58 L1297.56 423.439 L1275.02 423.439 L1275.02 423.439  Z" fill="#009af9" fill-rule="evenodd" fill-opacity="0.5"/>
<polyline clip-path="url(#clip982)" style="stroke:#000000; stroke-linecap:round; stroke-linejoin:round; stroke-width:4; stroke-opacity:0.5; fill:none" points="1275.02,423.439 1275.02,1042.58 1297.56,1042.58 1297.56,423.439 1275.02,423.439 "/>
<path clip-path="url(#clip982)" d="M1303.2 400.972 L1303.2 1042.58 L1325.74 1042.58 L1325.74 400.972 L1303.2 400.972 L1303.2 400.972  Z" fill="#009af9" fill-rule="evenodd" fill-opacity="0.5"/>
<polyline clip-path="url(#clip982)" style="stroke:#000000; stroke-linecap:round; stroke-linejoin:round; stroke-width:4; stroke-opacity:0.5; fill:none" points="1303.2,400.972 1303.2,1042.58 1325.74,1042.58 1325.74,400.972 1303.2,400.972 "/>
<path clip-path="url(#clip982)" d="M1331.38 448.048 L1331.38 1042.58 L1353.92 1042.58 L1353.92 448.048 L1331.38 448.048 L1331.38 448.048  Z" fill="#009af9" fill-rule="evenodd" fill-opacity="0.5"/>
<polyline clip-path="url(#clip982)" style="stroke:#000000; stroke-linecap:round; stroke-linejoin:round; stroke-width:4; stroke-opacity:0.5; fill:none" points="1331.38,448.048 1331.38,1042.58 1353.92,1042.58 1353.92,448.048 1331.38,448.048 "/>
<path clip-path="url(#clip982)" d="M1359.56 222.002 L1359.56 1042.58 L1382.1 1042.58 L1382.1 222.002 L1359.56 222.002 L1359.56 222.002  Z" fill="#009af9" fill-rule="evenodd" fill-opacity="0.5"/>
<polyline clip-path="url(#clip982)" style="stroke:#000000; stroke-linecap:round; stroke-linejoin:round; stroke-width:4; stroke-opacity:0.5; fill:none" points="1359.56,222.002 1359.56,1042.58 1382.1,1042.58 1382.1,222.002 1359.56,222.002 "/>
<path clip-path="url(#clip982)" d="M1387.74 256.48 L1387.74 1042.58 L1410.28 1042.58 L1410.28 256.48 L1387.74 256.48 L1387.74 256.48  Z" fill="#009af9" fill-rule="evenodd" fill-opacity="0.5"/>
<polyline clip-path="url(#clip982)" style="stroke:#000000; stroke-linecap:round; stroke-linejoin:round; stroke-width:4; stroke-opacity:0.5; fill:none" points="1387.74,256.48 1387.74,1042.58 1410.28,1042.58 1410.28,256.48 1387.74,256.48 "/>
<path clip-path="url(#clip982)" d="M1415.92 326.693 L1415.92 1042.58 L1438.46 1042.58 L1438.46 326.693 L1415.92 326.693 L1415.92 326.693  Z" fill="#009af9" fill-rule="evenodd" fill-opacity="0.5"/>
<polyline clip-path="url(#clip982)" style="stroke:#000000; stroke-linecap:round; stroke-linejoin:round; stroke-width:4; stroke-opacity:0.5; fill:none" points="1415.92,326.693 1415.92,1042.58 1438.46,1042.58 1438.46,326.693 1415.92,326.693 "/>
<path clip-path="url(#clip982)" d="M1444.1 269.077 L1444.1 1042.58 L1466.64 1042.58 L1466.64 269.077 L1444.1 269.077 L1444.1 269.077  Z" fill="#009af9" fill-rule="evenodd" fill-opacity="0.5"/>
<polyline clip-path="url(#clip982)" style="stroke:#000000; stroke-linecap:round; stroke-linejoin:round; stroke-width:4; stroke-opacity:0.5; fill:none" points="1444.1,269.077 1444.1,1042.58 1466.64,1042.58 1466.64,269.077 1444.1,269.077 "/>
<path clip-path="url(#clip982)" d="M1472.28 343.357 L1472.28 1042.58 L1494.82 1042.58 L1494.82 343.357 L1472.28 343.357 L1472.28 343.357  Z" fill="#009af9" fill-rule="evenodd" fill-opacity="0.5"/>
<polyline clip-path="url(#clip982)" style="stroke:#000000; stroke-linecap:round; stroke-linejoin:round; stroke-width:4; stroke-opacity:0.5; fill:none" points="1472.28,343.357 1472.28,1042.58 1494.82,1042.58 1494.82,343.357 1472.28,343.357 "/>
<path clip-path="url(#clip982)" d="M1500.45 627.019 L1500.45 1042.58 L1523 1042.58 L1523 627.019 L1500.45 627.019 L1500.45 627.019  Z" fill="#009af9" fill-rule="evenodd" fill-opacity="0.5"/>
<polyline clip-path="url(#clip982)" style="stroke:#000000; stroke-linecap:round; stroke-linejoin:round; stroke-width:4; stroke-opacity:0.5; fill:none" points="1500.45,627.019 1500.45,1042.58 1523,1042.58 1523,627.019 1500.45,627.019 "/>
<path clip-path="url(#clip982)" d="M1528.63 139.777 L1528.63 1042.58 L1551.18 1042.58 L1551.18 139.777 L1528.63 139.777 L1528.63 139.777  Z" fill="#009af9" fill-rule="evenodd" fill-opacity="0.5"/>
<polyline clip-path="url(#clip982)" style="stroke:#000000; stroke-linecap:round; stroke-linejoin:round; stroke-width:4; stroke-opacity:0.5; fill:none" points="1528.63,139.777 1528.63,1042.58 1551.18,1042.58 1551.18,139.777 1528.63,139.777 "/>
<path clip-path="url(#clip982)" d="M1556.81 282.321 L1556.81 1042.58 L1579.36 1042.58 L1579.36 282.321 L1556.81 282.321 L1556.81 282.321  Z" fill="#009af9" fill-rule="evenodd" fill-opacity="0.5"/>
<polyline clip-path="url(#clip982)" style="stroke:#000000; stroke-linecap:round; stroke-linejoin:round; stroke-width:4; stroke-opacity:0.5; fill:none" points="1556.81,282.321 1556.81,1042.58 1579.36,1042.58 1579.36,282.321 1556.81,282.321 "/>
<path clip-path="url(#clip982)" d="M1584.99 326.693 L1584.99 1042.58 L1607.54 1042.58 L1607.54 326.693 L1584.99 326.693 L1584.99 326.693  Z" fill="#009af9" fill-rule="evenodd" fill-opacity="0.5"/>
<polyline clip-path="url(#clip982)" style="stroke:#000000; stroke-linecap:round; stroke-linejoin:round; stroke-width:4; stroke-opacity:0.5; fill:none" points="1584.99,326.693 1584.99,1042.58 1607.54,1042.58 1607.54,326.693 1584.99,326.693 "/>
<path clip-path="url(#clip982)" d="M1613.17 211.462 L1613.17 1042.58 L1635.71 1042.58 L1635.71 211.462 L1613.17 211.462 L1613.17 211.462  Z" fill="#009af9" fill-rule="evenodd" fill-opacity="0.5"/>
<polyline clip-path="url(#clip982)" style="stroke:#000000; stroke-linecap:round; stroke-linejoin:round; stroke-width:4; stroke-opacity:0.5; fill:none" points="1613.17,211.462 1613.17,1042.58 1635.71,1042.58 1635.71,211.462 1613.17,211.462 "/>
<path clip-path="url(#clip982)" d="M1641.35 296.281 L1641.35 1042.58 L1663.89 1042.58 L1663.89 296.281 L1641.35 296.281 L1641.35 296.281  Z" fill="#009af9" fill-rule="evenodd" fill-opacity="0.5"/>
<polyline clip-path="url(#clip982)" style="stroke:#000000; stroke-linecap:round; stroke-linejoin:round; stroke-width:4; stroke-opacity:0.5; fill:none" points="1641.35,296.281 1641.35,1042.58 1663.89,1042.58 1663.89,296.281 1641.35,296.281 "/>
<path clip-path="url(#clip982)" d="M1669.53 423.439 L1669.53 1042.58 L1692.07 1042.58 L1692.07 423.439 L1669.53 423.439 L1669.53 423.439  Z" fill="#009af9" fill-rule="evenodd" fill-opacity="0.5"/>
<polyline clip-path="url(#clip982)" style="stroke:#000000; stroke-linecap:round; stroke-linejoin:round; stroke-width:4; stroke-opacity:0.5; fill:none" points="1669.53,423.439 1669.53,1042.58 1692.07,1042.58 1692.07,423.439 1669.53,423.439 "/>
<path clip-path="url(#clip982)" d="M1697.71 380.305 L1697.71 1042.58 L1720.25 1042.58 L1720.25 380.305 L1697.71 380.305 L1697.71 380.305  Z" fill="#009af9" fill-rule="evenodd" fill-opacity="0.5"/>
<polyline clip-path="url(#clip982)" style="stroke:#000000; stroke-linecap:round; stroke-linejoin:round; stroke-width:4; stroke-opacity:0.5; fill:none" points="1697.71,380.305 1697.71,1042.58 1720.25,1042.58 1720.25,380.305 1697.71,380.305 "/>
<path clip-path="url(#clip982)" d="M1725.89 110.236 L1725.89 1042.58 L1748.43 1042.58 L1748.43 110.236 L1725.89 110.236 L1725.89 110.236  Z" fill="#009af9" fill-rule="evenodd" fill-opacity="0.5"/>
<polyline clip-path="url(#clip982)" style="stroke:#000000; stroke-linecap:round; stroke-linejoin:round; stroke-width:4; stroke-opacity:0.5; fill:none" points="1725.89,110.236 1725.89,1042.58 1748.43,1042.58 1748.43,110.236 1725.89,110.236 "/>
<path clip-path="url(#clip982)" d="M1754.07 173.139 L1754.07 1042.58 L1776.61 1042.58 L1776.61 173.139 L1754.07 173.139 L1754.07 173.139  Z" fill="#009af9" fill-rule="evenodd" fill-opacity="0.5"/>
<polyline clip-path="url(#clip982)" style="stroke:#000000; stroke-linecap:round; stroke-linejoin:round; stroke-width:4; stroke-opacity:0.5; fill:none" points="1754.07,173.139 1754.07,1042.58 1776.61,1042.58 1776.61,173.139 1754.07,173.139 "/>
<path clip-path="url(#clip982)" d="M1782.25 211.462 L1782.25 1042.58 L1804.79 1042.58 L1804.79 211.462 L1782.25 211.462 L1782.25 211.462  Z" fill="#009af9" fill-rule="evenodd" fill-opacity="0.5"/>
<polyline clip-path="url(#clip982)" style="stroke:#000000; stroke-linecap:round; stroke-linejoin:round; stroke-width:4; stroke-opacity:0.5; fill:none" points="1782.25,211.462 1782.25,1042.58 1804.79,1042.58 1804.79,211.462 1782.25,211.462 "/>
<path clip-path="url(#clip982)" d="M1810.43 296.281 L1810.43 1042.58 L1832.97 1042.58 L1832.97 296.281 L1810.43 296.281 L1810.43 296.281  Z" fill="#009af9" fill-rule="evenodd" fill-opacity="0.5"/>
<polyline clip-path="url(#clip982)" style="stroke:#000000; stroke-linecap:round; stroke-linejoin:round; stroke-width:4; stroke-opacity:0.5; fill:none" points="1810.43,296.281 1810.43,1042.58 1832.97,1042.58 1832.97,296.281 1810.43,296.281 "/>
<path clip-path="url(#clip982)" d="M1838.61 326.693 L1838.61 1042.58 L1861.15 1042.58 L1861.15 326.693 L1838.61 326.693 L1838.61 326.693  Z" fill="#009af9" fill-rule="evenodd" fill-opacity="0.5"/>
<polyline clip-path="url(#clip982)" style="stroke:#000000; stroke-linecap:round; stroke-linejoin:round; stroke-width:4; stroke-opacity:0.5; fill:none" points="1838.61,326.693 1838.61,1042.58 1861.15,1042.58 1861.15,326.693 1838.61,326.693 "/>
<path clip-path="url(#clip982)" d="M1866.78 296.281 L1866.78 1042.58 L1889.33 1042.58 L1889.33 296.281 L1866.78 296.281 L1866.78 296.281  Z" fill="#009af9" fill-rule="evenodd" fill-opacity="0.5"/>
<polyline clip-path="url(#clip982)" style="stroke:#000000; stroke-linecap:round; stroke-linejoin:round; stroke-width:4; stroke-opacity:0.5; fill:none" points="1866.78,296.281 1866.78,1042.58 1889.33,1042.58 1889.33,296.281 1866.78,296.281 "/>
<path clip-path="url(#clip982)" d="M1894.96 579.943 L1894.96 1042.58 L1917.51 1042.58 L1917.51 579.943 L1894.96 579.943 L1894.96 579.943  Z" fill="#009af9" fill-rule="evenodd" fill-opacity="0.5"/>
<polyline clip-path="url(#clip982)" style="stroke:#000000; stroke-linecap:round; stroke-linejoin:round; stroke-width:4; stroke-opacity:0.5; fill:none" points="1894.96,579.943 1894.96,1042.58 1917.51,1042.58 1917.51,579.943 1894.96,579.943 "/>
<path clip-path="url(#clip982)" d="M1923.14 182.2 L1923.14 1042.58 L1945.69 1042.58 L1945.69 182.2 L1923.14 182.2 L1923.14 182.2  Z" fill="#009af9" fill-rule="evenodd" fill-opacity="0.5"/>
<polyline clip-path="url(#clip982)" style="stroke:#000000; stroke-linecap:round; stroke-linejoin:round; stroke-width:4; stroke-opacity:0.5; fill:none" points="1923.14,182.2 1923.14,1042.58 1945.69,1042.58 1945.69,182.2 1923.14,182.2 "/>
<path clip-path="url(#clip982)" d="M1951.32 232.991 L1951.32 1042.58 L1973.87 1042.58 L1973.87 232.991 L1951.32 232.991 L1951.32 232.991  Z" fill="#009af9" fill-rule="evenodd" fill-opacity="0.5"/>
<polyline clip-path="url(#clip982)" style="stroke:#000000; stroke-linecap:round; stroke-linejoin:round; stroke-width:4; stroke-opacity:0.5; fill:none" points="1951.32,232.991 1951.32,1042.58 1973.87,1042.58 1973.87,232.991 1951.32,232.991 "/>
<path clip-path="url(#clip982)" d="M1979.5 155.92 L1979.5 1042.58 L2002.04 1042.58 L2002.04 155.92 L1979.5 155.92 L1979.5 155.92  Z" fill="#009af9" fill-rule="evenodd" fill-opacity="0.5"/>
<polyline clip-path="url(#clip982)" style="stroke:#000000; stroke-linecap:round; stroke-linejoin:round; stroke-width:4; stroke-opacity:0.5; fill:none" points="1979.5,155.92 1979.5,1042.58 2002.04,1042.58 2002.04,155.92 1979.5,155.92 "/>
<path clip-path="url(#clip982)" d="M2007.68 423.439 L2007.68 1042.58 L2030.22 1042.58 L2030.22 423.439 L2007.68 423.439 L2007.68 423.439  Z" fill="#009af9" fill-rule="evenodd" fill-opacity="0.5"/>
<polyline clip-path="url(#clip982)" style="stroke:#000000; stroke-linecap:round; stroke-linejoin:round; stroke-width:4; stroke-opacity:0.5; fill:none" points="2007.68,423.439 2007.68,1042.58 2030.22,1042.58 2030.22,423.439 2007.68,423.439 "/>
<path clip-path="url(#clip982)" d="M2035.86 423.439 L2035.86 1042.58 L2058.4 1042.58 L2058.4 423.439 L2035.86 423.439 L2035.86 423.439  Z" fill="#009af9" fill-rule="evenodd" fill-opacity="0.5"/>
<polyline clip-path="url(#clip982)" style="stroke:#000000; stroke-linecap:round; stroke-linejoin:round; stroke-width:4; stroke-opacity:0.5; fill:none" points="2035.86,423.439 2035.86,1042.58 2058.4,1042.58 2058.4,423.439 2035.86,423.439 "/>
<path clip-path="url(#clip982)" d="M2064.04 579.943 L2064.04 1042.58 L2086.58 1042.58 L2086.58 579.943 L2064.04 579.943 L2064.04 579.943  Z" fill="#009af9" fill-rule="evenodd" fill-opacity="0.5"/>
<polyline clip-path="url(#clip982)" style="stroke:#000000; stroke-linecap:round; stroke-linejoin:round; stroke-width:4; stroke-opacity:0.5; fill:none" points="2064.04,579.943 2064.04,1042.58 2086.58,1042.58 2086.58,579.943 2064.04,579.943 "/>
<path clip-path="url(#clip982)" d="M2092.22 579.943 L2092.22 1042.58 L2114.76 1042.58 L2114.76 579.943 L2092.22 579.943 L2092.22 579.943  Z" fill="#009af9" fill-rule="evenodd" fill-opacity="0.5"/>
<polyline clip-path="url(#clip982)" style="stroke:#000000; stroke-linecap:round; stroke-linejoin:round; stroke-width:4; stroke-opacity:0.5; fill:none" points="2092.22,579.943 2092.22,1042.58 2114.76,1042.58 2114.76,579.943 2092.22,579.943 "/>
<path clip-path="url(#clip982)" d="M2120.4 311.04 L2120.4 1042.58 L2142.94 1042.58 L2142.94 311.04 L2120.4 311.04 L2120.4 311.04  Z" fill="#009af9" fill-rule="evenodd" fill-opacity="0.5"/>
<polyline clip-path="url(#clip982)" style="stroke:#000000; stroke-linecap:round; stroke-linejoin:round; stroke-width:4; stroke-opacity:0.5; fill:none" points="2120.4,311.04 2120.4,1042.58 2142.94,1042.58 2142.94,311.04 2120.4,311.04 "/>
<path clip-path="url(#clip982)" d="M2148.58 448.048 L2148.58 1042.58 L2171.12 1042.58 L2171.12 448.048 L2148.58 448.048 L2148.58 448.048  Z" fill="#009af9" fill-rule="evenodd" fill-opacity="0.5"/>
<polyline clip-path="url(#clip982)" style="stroke:#000000; stroke-linecap:round; stroke-linejoin:round; stroke-width:4; stroke-opacity:0.5; fill:none" points="2148.58,448.048 2148.58,1042.58 2171.12,1042.58 2171.12,448.048 2148.58,448.048 "/>
<path clip-path="url(#clip982)" d="M2176.76 343.357 L2176.76 1042.58 L2199.3 1042.58 L2199.3 343.357 L2176.76 343.357 L2176.76 343.357  Z" fill="#009af9" fill-rule="evenodd" fill-opacity="0.5"/>
<polyline clip-path="url(#clip982)" style="stroke:#000000; stroke-linecap:round; stroke-linejoin:round; stroke-width:4; stroke-opacity:0.5; fill:none" points="2176.76,343.357 2176.76,1042.58 2199.3,1042.58 2199.3,343.357 2176.76,343.357 "/>
<path clip-path="url(#clip982)" d="M2204.94 311.04 L2204.94 1042.58 L2227.48 1042.58 L2227.48 311.04 L2204.94 311.04 L2204.94 311.04  Z" fill="#009af9" fill-rule="evenodd" fill-opacity="0.5"/>
<polyline clip-path="url(#clip982)" style="stroke:#000000; stroke-linecap:round; stroke-linejoin:round; stroke-width:4; stroke-opacity:0.5; fill:none" points="2204.94,311.04 2204.94,1042.58 2227.48,1042.58 2227.48,311.04 2204.94,311.04 "/>
<path clip-path="url(#clip982)" d="M2233.11 282.321 L2233.11 1042.58 L2255.66 1042.58 L2255.66 282.321 L2233.11 282.321 L2233.11 282.321  Z" fill="#009af9" fill-rule="evenodd" fill-opacity="0.5"/>
<polyline clip-path="url(#clip982)" style="stroke:#000000; stroke-linecap:round; stroke-linejoin:round; stroke-width:4; stroke-opacity:0.5; fill:none" points="2233.11,282.321 2233.11,1042.58 2255.66,1042.58 2255.66,282.321 2233.11,282.321 "/>
<path clip-path="url(#clip982)" d="M2261.29 505.664 L2261.29 1042.58 L2283.84 1042.58 L2283.84 505.664 L2261.29 505.664 L2261.29 505.664  Z" fill="#009af9" fill-rule="evenodd" fill-opacity="0.5"/>
<polyline clip-path="url(#clip982)" style="stroke:#000000; stroke-linecap:round; stroke-linejoin:round; stroke-width:4; stroke-opacity:0.5; fill:none" points="2261.29,505.664 2261.29,1042.58 2283.84,1042.58 2283.84,505.664 2261.29,505.664 "/>
<path clip-path="url(#clip982)" d="M2289.47 361.171 L2289.47 1042.58 L2312.02 1042.58 L2312.02 361.171 L2289.47 361.171 L2289.47 361.171  Z" fill="#009af9" fill-rule="evenodd" fill-opacity="0.5"/>
<polyline clip-path="url(#clip982)" style="stroke:#000000; stroke-linecap:round; stroke-linejoin:round; stroke-width:4; stroke-opacity:0.5; fill:none" points="2289.47,361.171 2289.47,1042.58 2312.02,1042.58 2312.02,361.171 2289.47,361.171 "/>
<path clip-path="url(#clip982)" d="M2317.65 201.335 L2317.65 1042.58 L2340.2 1042.58 L2340.2 201.335 L2317.65 201.335 L2317.65 201.335  Z" fill="#009af9" fill-rule="evenodd" fill-opacity="0.5"/>
<polyline clip-path="url(#clip982)" style="stroke:#000000; stroke-linecap:round; stroke-linejoin:round; stroke-width:4; stroke-opacity:0.5; fill:none" points="2317.65,201.335 2317.65,1042.58 2340.2,1042.58 2340.2,201.335 2317.65,201.335 "/>
<path clip-path="url(#clip982)" d="M2345.83 380.305 L2345.83 1042.58 L2368.38 1042.58 L2368.38 380.305 L2345.83 380.305 L2345.83 380.305  Z" fill="#009af9" fill-rule="evenodd" fill-opacity="0.5"/>
<polyline clip-path="url(#clip982)" style="stroke:#000000; stroke-linecap:round; stroke-linejoin:round; stroke-width:4; stroke-opacity:0.5; fill:none" points="2345.83,380.305 2345.83,1042.58 2368.38,1042.58 2368.38,380.305 2345.83,380.305 "/>
<path clip-path="url(#clip982)" d="M2374.01 505.664 L2374.01 1042.58 L2396.55 1042.58 L2396.55 505.664 L2374.01 505.664 L2374.01 505.664  Z" fill="#009af9" fill-rule="evenodd" fill-opacity="0.5"/>
<polyline clip-path="url(#clip982)" style="stroke:#000000; stroke-linecap:round; stroke-linejoin:round; stroke-width:4; stroke-opacity:0.5; fill:none" points="2374.01,505.664 2374.01,1042.58 2396.55,1042.58 2396.55,505.664 2374.01,505.664 "/>
<path clip-path="url(#clip982)" d="M2402.19 282.321 L2402.19 1042.58 L2424.73 1042.58 L2424.73 282.321 L2402.19 282.321 L2402.19 282.321  Z" fill="#009af9" fill-rule="evenodd" fill-opacity="0.5"/>
<polyline clip-path="url(#clip982)" style="stroke:#000000; stroke-linecap:round; stroke-linejoin:round; stroke-width:4; stroke-opacity:0.5; fill:none" points="2402.19,282.321 2402.19,1042.58 2424.73,1042.58 2424.73,282.321 2402.19,282.321 "/>
<path clip-path="url(#clip982)" d="M2430.37 505.664 L2430.37 1042.58 L2452.91 1042.58 L2452.91 505.664 L2430.37 505.664 L2430.37 505.664  Z" fill="#009af9" fill-rule="evenodd" fill-opacity="0.5"/>
<polyline clip-path="url(#clip982)" style="stroke:#000000; stroke-linecap:round; stroke-linejoin:round; stroke-width:4; stroke-opacity:0.5; fill:none" points="2430.37,505.664 2430.37,1042.58 2452.91,1042.58 2452.91,505.664 2430.37,505.664 "/>
<path clip-path="url(#clip982)" d="M2458.55 475.252 L2458.55 1042.58 L2481.09 1042.58 L2481.09 475.252 L2458.55 475.252 L2458.55 475.252  Z" fill="#009af9" fill-rule="evenodd" fill-opacity="0.5"/>
<polyline clip-path="url(#clip982)" style="stroke:#000000; stroke-linecap:round; stroke-linejoin:round; stroke-width:4; stroke-opacity:0.5; fill:none" points="2458.55,475.252 2458.55,1042.58 2481.09,1042.58 2481.09,475.252 2458.55,475.252 "/>
<path clip-path="url(#clip982)" d="M2486.73 684.634 L2486.73 1042.58 L2509.27 1042.58 L2509.27 684.634 L2486.73 684.634 L2486.73 684.634  Z" fill="#009af9" fill-rule="evenodd" fill-opacity="0.5"/>
<polyline clip-path="url(#clip982)" style="stroke:#000000; stroke-linecap:round; stroke-linejoin:round; stroke-width:4; stroke-opacity:0.5; fill:none" points="2486.73,684.634 2486.73,1042.58 2509.27,1042.58 2509.27,684.634 2486.73,684.634 "/>
<path clip-path="url(#clip982)" d="M2514.91 296.281 L2514.91 1042.58 L2537.45 1042.58 L2537.45 296.281 L2514.91 296.281 L2514.91 296.281  Z" fill="#009af9" fill-rule="evenodd" fill-opacity="0.5"/>
<polyline clip-path="url(#clip982)" style="stroke:#000000; stroke-linecap:round; stroke-linejoin:round; stroke-width:4; stroke-opacity:0.5; fill:none" points="2514.91,296.281 2514.91,1042.58 2537.45,1042.58 2537.45,296.281 2514.91,296.281 "/>
<path clip-path="url(#clip982)" d="M2543.09 326.693 L2543.09 1042.58 L2565.63 1042.58 L2565.63 326.693 L2543.09 326.693 L2543.09 326.693  Z" fill="#009af9" fill-rule="evenodd" fill-opacity="0.5"/>
<polyline clip-path="url(#clip982)" style="stroke:#000000; stroke-linecap:round; stroke-linejoin:round; stroke-width:4; stroke-opacity:0.5; fill:none" points="2543.09,326.693 2543.09,1042.58 2565.63,1042.58 2565.63,326.693 2543.09,326.693 "/>
<path clip-path="url(#clip982)" d="M2571.27 423.439 L2571.27 1042.58 L2593.81 1042.58 L2593.81 423.439 L2571.27 423.439 L2571.27 423.439  Z" fill="#009af9" fill-rule="evenodd" fill-opacity="0.5"/>
<polyline clip-path="url(#clip982)" style="stroke:#000000; stroke-linecap:round; stroke-linejoin:round; stroke-width:4; stroke-opacity:0.5; fill:none" points="2571.27,423.439 2571.27,1042.58 2593.81,1042.58 2593.81,423.439 2571.27,423.439 "/>
<path clip-path="url(#clip982)" d="M2599.44 540.141 L2599.44 1042.58 L2621.99 1042.58 L2621.99 540.141 L2599.44 540.141 L2599.44 540.141  Z" fill="#009af9" fill-rule="evenodd" fill-opacity="0.5"/>
<polyline clip-path="url(#clip982)" style="stroke:#000000; stroke-linecap:round; stroke-linejoin:round; stroke-width:4; stroke-opacity:0.5; fill:none" points="2599.44,540.141 2599.44,1042.58 2621.99,1042.58 2621.99,540.141 2599.44,540.141 "/>
<path clip-path="url(#clip982)" d="M2627.62 579.943 L2627.62 1042.58 L2650.17 1042.58 L2650.17 579.943 L2627.62 579.943 L2627.62 579.943  Z" fill="#009af9" fill-rule="evenodd" fill-opacity="0.5"/>
<polyline clip-path="url(#clip982)" style="stroke:#000000; stroke-linecap:round; stroke-linejoin:round; stroke-width:4; stroke-opacity:0.5; fill:none" points="2627.62,579.943 2627.62,1042.58 2650.17,1042.58 2650.17,579.943 2627.62,579.943 "/>
<path clip-path="url(#clip982)" d="M2655.8 579.943 L2655.8 1042.58 L2678.35 1042.58 L2678.35 579.943 L2655.8 579.943 L2655.8 579.943  Z" fill="#009af9" fill-rule="evenodd" fill-opacity="0.5"/>
<polyline clip-path="url(#clip982)" style="stroke:#000000; stroke-linecap:round; stroke-linejoin:round; stroke-width:4; stroke-opacity:0.5; fill:none" points="2655.8,579.943 2655.8,1042.58 2678.35,1042.58 2678.35,579.943 2655.8,579.943 "/>
<path clip-path="url(#clip982)" d="M2683.98 684.634 L2683.98 1042.58 L2706.53 1042.58 L2706.53 684.634 L2683.98 684.634 L2683.98 684.634  Z" fill="#009af9" fill-rule="evenodd" fill-opacity="0.5"/>
<polyline clip-path="url(#clip982)" style="stroke:#000000; stroke-linecap:round; stroke-linejoin:round; stroke-width:4; stroke-opacity:0.5; fill:none" points="2683.98,684.634 2683.98,1042.58 2706.53,1042.58 2706.53,684.634 2683.98,684.634 "/>
<path clip-path="url(#clip982)" d="M2712.16 684.634 L2712.16 1042.58 L2734.71 1042.58 L2734.71 684.634 L2712.16 684.634 L2712.16 684.634  Z" fill="#009af9" fill-rule="evenodd" fill-opacity="0.5"/>
<polyline clip-path="url(#clip982)" style="stroke:#000000; stroke-linecap:round; stroke-linejoin:round; stroke-width:4; stroke-opacity:0.5; fill:none" points="2712.16,684.634 2712.16,1042.58 2734.71,1042.58 2734.71,684.634 2712.16,684.634 "/>
<path clip-path="url(#clip982)" d="M2740.34 540.141 L2740.34 1042.58 L2762.88 1042.58 L2762.88 540.141 L2740.34 540.141 L2740.34 540.141  Z" fill="#009af9" fill-rule="evenodd" fill-opacity="0.5"/>
<polyline clip-path="url(#clip982)" style="stroke:#000000; stroke-linecap:round; stroke-linejoin:round; stroke-width:4; stroke-opacity:0.5; fill:none" points="2740.34,540.141 2740.34,1042.58 2762.88,1042.58 2762.88,540.141 2740.34,540.141 "/>
<path clip-path="url(#clip982)" d="M2768.52 579.943 L2768.52 1042.58 L2791.06 1042.58 L2791.06 579.943 L2768.52 579.943 L2768.52 579.943  Z" fill="#009af9" fill-rule="evenodd" fill-opacity="0.5"/>
<polyline clip-path="url(#clip982)" style="stroke:#000000; stroke-linecap:round; stroke-linejoin:round; stroke-width:4; stroke-opacity:0.5; fill:none" points="2768.52,579.943 2768.52,1042.58 2791.06,1042.58 2791.06,579.943 2768.52,579.943 "/>
<path clip-path="url(#clip982)" d="M2796.7 758.914 L2796.7 1042.58 L2819.24 1042.58 L2819.24 758.914 L2796.7 758.914 L2796.7 758.914  Z" fill="#009af9" fill-rule="evenodd" fill-opacity="0.5"/>
<polyline clip-path="url(#clip982)" style="stroke:#000000; stroke-linecap:round; stroke-linejoin:round; stroke-width:4; stroke-opacity:0.5; fill:none" points="2796.7,758.914 2796.7,1042.58 2819.24,1042.58 2819.24,758.914 2796.7,758.914 "/>
<path clip-path="url(#clip982)" d="M2824.88 1042.58 L2824.88 1042.58 L2847.42 1042.58 L2847.42 1042.58 L2824.88 1042.58 L2824.88 1042.58  Z" fill="#009af9" fill-rule="evenodd" fill-opacity="0.5"/>
<polyline clip-path="url(#clip982)" style="stroke:#000000; stroke-linecap:round; stroke-linejoin:round; stroke-width:4; stroke-opacity:0.5; fill:none" points="2824.88,1042.58 2824.88,1042.58 2847.42,1042.58 2824.88,1042.58 "/>
<path clip-path="url(#clip982)" d="M2853.06 1042.58 L2853.06 1042.58 L2875.6 1042.58 L2875.6 1042.58 L2853.06 1042.58 L2853.06 1042.58  Z" fill="#009af9" fill-rule="evenodd" fill-opacity="0.5"/>
<polyline clip-path="url(#clip982)" style="stroke:#000000; stroke-linecap:round; stroke-linejoin:round; stroke-width:4; stroke-opacity:0.5; fill:none" points="2853.06,1042.58 2853.06,1042.58 2875.6,1042.58 2853.06,1042.58 "/>
<circle clip-path="url(#clip982)" style="fill:#009af9; stroke:none; fill-opacity:0" cx="300.018" cy="863.605" r="2"/>
<circle clip-path="url(#clip982)" style="fill:#009af9; stroke:none; fill-opacity:0" cx="328.198" cy="758.914" r="2"/>
<circle clip-path="url(#clip982)" style="fill:#009af9; stroke:none; fill-opacity:0" cx="356.377" cy="758.914" r="2"/>
<circle clip-path="url(#clip982)" style="fill:#009af9; stroke:none; fill-opacity:0" cx="384.556" cy="540.141" r="2"/>
<circle clip-path="url(#clip982)" style="fill:#009af9; stroke:none; fill-opacity:0" cx="412.735" cy="380.305" r="2"/>
<circle clip-path="url(#clip982)" style="fill:#009af9; stroke:none; fill-opacity:0" cx="440.915" cy="684.634" r="2"/>
<circle clip-path="url(#clip982)" style="fill:#009af9; stroke:none; fill-opacity:0" cx="469.094" cy="684.634" r="2"/>
<circle clip-path="url(#clip982)" style="fill:#009af9; stroke:none; fill-opacity:0" cx="497.273" cy="448.048" r="2"/>
<circle clip-path="url(#clip982)" style="fill:#009af9; stroke:none; fill-opacity:0" cx="525.452" cy="863.605" r="2"/>
<circle clip-path="url(#clip982)" style="fill:#009af9; stroke:none; fill-opacity:0" cx="553.632" cy="400.972" r="2"/>
<circle clip-path="url(#clip982)" style="fill:#009af9; stroke:none; fill-opacity:0" cx="581.811" cy="448.048" r="2"/>
<circle clip-path="url(#clip982)" style="fill:#009af9; stroke:none; fill-opacity:0" cx="609.99" cy="505.664" r="2"/>
<circle clip-path="url(#clip982)" style="fill:#009af9; stroke:none; fill-opacity:0" cx="638.169" cy="627.019" r="2"/>
<circle clip-path="url(#clip982)" style="fill:#009af9; stroke:none; fill-opacity:0" cx="666.349" cy="758.914" r="2"/>
<circle clip-path="url(#clip982)" style="fill:#009af9; stroke:none; fill-opacity:0" cx="694.528" cy="627.019" r="2"/>
<circle clip-path="url(#clip982)" style="fill:#009af9; stroke:none; fill-opacity:0" cx="722.707" cy="627.019" r="2"/>
<circle clip-path="url(#clip982)" style="fill:#009af9; stroke:none; fill-opacity:0" cx="750.886" cy="475.252" r="2"/>
<circle clip-path="url(#clip982)" style="fill:#009af9; stroke:none; fill-opacity:0" cx="779.066" cy="684.634" r="2"/>
<circle clip-path="url(#clip982)" style="fill:#009af9; stroke:none; fill-opacity:0" cx="807.245" cy="282.321" r="2"/>
<circle clip-path="url(#clip982)" style="fill:#009af9; stroke:none; fill-opacity:0" cx="835.424" cy="361.171" r="2"/>
<circle clip-path="url(#clip982)" style="fill:#009af9; stroke:none; fill-opacity:0" cx="863.603" cy="400.972" r="2"/>
<circle clip-path="url(#clip982)" style="fill:#009af9; stroke:none; fill-opacity:0" cx="891.783" cy="758.914" r="2"/>
<circle clip-path="url(#clip982)" style="fill:#009af9; stroke:none; fill-opacity:0" cx="919.962" cy="579.943" r="2"/>
<circle clip-path="url(#clip982)" style="fill:#009af9; stroke:none; fill-opacity:0" cx="948.141" cy="475.252" r="2"/>
<circle clip-path="url(#clip982)" style="fill:#009af9; stroke:none; fill-opacity:0" cx="976.32" cy="380.305" r="2"/>
<circle clip-path="url(#clip982)" style="fill:#009af9; stroke:none; fill-opacity:0" cx="1004.5" cy="475.252" r="2"/>
<circle clip-path="url(#clip982)" style="fill:#009af9; stroke:none; fill-opacity:0" cx="1032.68" cy="505.664" r="2"/>
<circle clip-path="url(#clip982)" style="fill:#009af9; stroke:none; fill-opacity:0" cx="1060.86" cy="361.171" r="2"/>
<circle clip-path="url(#clip982)" style="fill:#009af9; stroke:none; fill-opacity:0" cx="1089.04" cy="423.439" r="2"/>
<circle clip-path="url(#clip982)" style="fill:#009af9; stroke:none; fill-opacity:0" cx="1117.22" cy="505.664" r="2"/>
<circle clip-path="url(#clip982)" style="fill:#009af9; stroke:none; fill-opacity:0" cx="1145.4" cy="296.281" r="2"/>
<circle clip-path="url(#clip982)" style="fill:#009af9; stroke:none; fill-opacity:0" cx="1173.58" cy="380.305" r="2"/>
<circle clip-path="url(#clip982)" style="fill:#009af9; stroke:none; fill-opacity:0" cx="1201.75" cy="343.357" r="2"/>
<circle clip-path="url(#clip982)" style="fill:#009af9; stroke:none; fill-opacity:0" cx="1229.93" cy="423.439" r="2"/>
<circle clip-path="url(#clip982)" style="fill:#009af9; stroke:none; fill-opacity:0" cx="1258.11" cy="475.252" r="2"/>
<circle clip-path="url(#clip982)" style="fill:#009af9; stroke:none; fill-opacity:0" cx="1286.29" cy="423.439" r="2"/>
<circle clip-path="url(#clip982)" style="fill:#009af9; stroke:none; fill-opacity:0" cx="1314.47" cy="400.972" r="2"/>
<circle clip-path="url(#clip982)" style="fill:#009af9; stroke:none; fill-opacity:0" cx="1342.65" cy="448.048" r="2"/>
<circle clip-path="url(#clip982)" style="fill:#009af9; stroke:none; fill-opacity:0" cx="1370.83" cy="222.002" r="2"/>
<circle clip-path="url(#clip982)" style="fill:#009af9; stroke:none; fill-opacity:0" cx="1399.01" cy="256.48" r="2"/>
<circle clip-path="url(#clip982)" style="fill:#009af9; stroke:none; fill-opacity:0" cx="1427.19" cy="326.693" r="2"/>
<circle clip-path="url(#clip982)" style="fill:#009af9; stroke:none; fill-opacity:0" cx="1455.37" cy="269.077" r="2"/>
<circle clip-path="url(#clip982)" style="fill:#009af9; stroke:none; fill-opacity:0" cx="1483.55" cy="343.357" r="2"/>
<circle clip-path="url(#clip982)" style="fill:#009af9; stroke:none; fill-opacity:0" cx="1511.73" cy="627.019" r="2"/>
<circle clip-path="url(#clip982)" style="fill:#009af9; stroke:none; fill-opacity:0" cx="1539.91" cy="139.777" r="2"/>
<circle clip-path="url(#clip982)" style="fill:#009af9; stroke:none; fill-opacity:0" cx="1568.08" cy="282.321" r="2"/>
<circle clip-path="url(#clip982)" style="fill:#009af9; stroke:none; fill-opacity:0" cx="1596.26" cy="326.693" r="2"/>
<circle clip-path="url(#clip982)" style="fill:#009af9; stroke:none; fill-opacity:0" cx="1624.44" cy="211.462" r="2"/>
<circle clip-path="url(#clip982)" style="fill:#009af9; stroke:none; fill-opacity:0" cx="1652.62" cy="296.281" r="2"/>
<circle clip-path="url(#clip982)" style="fill:#009af9; stroke:none; fill-opacity:0" cx="1680.8" cy="423.439" r="2"/>
<circle clip-path="url(#clip982)" style="fill:#009af9; stroke:none; fill-opacity:0" cx="1708.98" cy="380.305" r="2"/>
<circle clip-path="url(#clip982)" style="fill:#009af9; stroke:none; fill-opacity:0" cx="1737.16" cy="110.236" r="2"/>
<circle clip-path="url(#clip982)" style="fill:#009af9; stroke:none; fill-opacity:0" cx="1765.34" cy="173.139" r="2"/>
<circle clip-path="url(#clip982)" style="fill:#009af9; stroke:none; fill-opacity:0" cx="1793.52" cy="211.462" r="2"/>
<circle clip-path="url(#clip982)" style="fill:#009af9; stroke:none; fill-opacity:0" cx="1821.7" cy="296.281" r="2"/>
<circle clip-path="url(#clip982)" style="fill:#009af9; stroke:none; fill-opacity:0" cx="1849.88" cy="326.693" r="2"/>
<circle clip-path="url(#clip982)" style="fill:#009af9; stroke:none; fill-opacity:0" cx="1878.06" cy="296.281" r="2"/>
<circle clip-path="url(#clip982)" style="fill:#009af9; stroke:none; fill-opacity:0" cx="1906.24" cy="579.943" r="2"/>
<circle clip-path="url(#clip982)" style="fill:#009af9; stroke:none; fill-opacity:0" cx="1934.41" cy="182.2" r="2"/>
<circle clip-path="url(#clip982)" style="fill:#009af9; stroke:none; fill-opacity:0" cx="1962.59" cy="232.991" r="2"/>
<circle clip-path="url(#clip982)" style="fill:#009af9; stroke:none; fill-opacity:0" cx="1990.77" cy="155.92" r="2"/>
<circle clip-path="url(#clip982)" style="fill:#009af9; stroke:none; fill-opacity:0" cx="2018.95" cy="423.439" r="2"/>
<circle clip-path="url(#clip982)" style="fill:#009af9; stroke:none; fill-opacity:0" cx="2047.13" cy="423.439" r="2"/>
<circle clip-path="url(#clip982)" style="fill:#009af9; stroke:none; fill-opacity:0" cx="2075.31" cy="579.943" r="2"/>
<circle clip-path="url(#clip982)" style="fill:#009af9; stroke:none; fill-opacity:0" cx="2103.49" cy="579.943" r="2"/>
<circle clip-path="url(#clip982)" style="fill:#009af9; stroke:none; fill-opacity:0" cx="2131.67" cy="311.04" r="2"/>
<circle clip-path="url(#clip982)" style="fill:#009af9; stroke:none; fill-opacity:0" cx="2159.85" cy="448.048" r="2"/>
<circle clip-path="url(#clip982)" style="fill:#009af9; stroke:none; fill-opacity:0" cx="2188.03" cy="343.357" r="2"/>
<circle clip-path="url(#clip982)" style="fill:#009af9; stroke:none; fill-opacity:0" cx="2216.21" cy="311.04" r="2"/>
<circle clip-path="url(#clip982)" style="fill:#009af9; stroke:none; fill-opacity:0" cx="2244.39" cy="282.321" r="2"/>
<circle clip-path="url(#clip982)" style="fill:#009af9; stroke:none; fill-opacity:0" cx="2272.57" cy="505.664" r="2"/>
<circle clip-path="url(#clip982)" style="fill:#009af9; stroke:none; fill-opacity:0" cx="2300.74" cy="361.171" r="2"/>
<circle clip-path="url(#clip982)" style="fill:#009af9; stroke:none; fill-opacity:0" cx="2328.92" cy="201.335" r="2"/>
<circle clip-path="url(#clip982)" style="fill:#009af9; stroke:none; fill-opacity:0" cx="2357.1" cy="380.305" r="2"/>
<circle clip-path="url(#clip982)" style="fill:#009af9; stroke:none; fill-opacity:0" cx="2385.28" cy="505.664" r="2"/>
<circle clip-path="url(#clip982)" style="fill:#009af9; stroke:none; fill-opacity:0" cx="2413.46" cy="282.321" r="2"/>
<circle clip-path="url(#clip982)" style="fill:#009af9; stroke:none; fill-opacity:0" cx="2441.64" cy="505.664" r="2"/>
<circle clip-path="url(#clip982)" style="fill:#009af9; stroke:none; fill-opacity:0" cx="2469.82" cy="475.252" r="2"/>
<circle clip-path="url(#clip982)" style="fill:#009af9; stroke:none; fill-opacity:0" cx="2498" cy="684.634" r="2"/>
<circle clip-path="url(#clip982)" style="fill:#009af9; stroke:none; fill-opacity:0" cx="2526.18" cy="296.281" r="2"/>
<circle clip-path="url(#clip982)" style="fill:#009af9; stroke:none; fill-opacity:0" cx="2554.36" cy="326.693" r="2"/>
<circle clip-path="url(#clip982)" style="fill:#009af9; stroke:none; fill-opacity:0" cx="2582.54" cy="423.439" r="2"/>
<circle clip-path="url(#clip982)" style="fill:#009af9; stroke:none; fill-opacity:0" cx="2610.72" cy="540.141" r="2"/>
<circle clip-path="url(#clip982)" style="fill:#009af9; stroke:none; fill-opacity:0" cx="2638.9" cy="579.943" r="2"/>
<circle clip-path="url(#clip982)" style="fill:#009af9; stroke:none; fill-opacity:0" cx="2667.08" cy="579.943" r="2"/>
<circle clip-path="url(#clip982)" style="fill:#009af9; stroke:none; fill-opacity:0" cx="2695.25" cy="684.634" r="2"/>
<circle clip-path="url(#clip982)" style="fill:#009af9; stroke:none; fill-opacity:0" cx="2723.43" cy="684.634" r="2"/>
<circle clip-path="url(#clip982)" style="fill:#009af9; stroke:none; fill-opacity:0" cx="2751.61" cy="540.141" r="2"/>
<circle clip-path="url(#clip982)" style="fill:#009af9; stroke:none; fill-opacity:0" cx="2779.79" cy="579.943" r="2"/>
<circle clip-path="url(#clip982)" style="fill:#009af9; stroke:none; fill-opacity:0" cx="2807.97" cy="758.914" r="2"/>
<circle clip-path="url(#clip982)" style="fill:#009af9; stroke:none; fill-opacity:0" cx="2836.15" cy="1042.58" r="2"/>
<circle clip-path="url(#clip982)" style="fill:#009af9; stroke:none; fill-opacity:0" cx="2864.33" cy="1042.58" r="2"/>
</svg>
