<?xml version="1.0" encoding="utf-8"?>
<svg xmlns="http://www.w3.org/2000/svg" xmlns:xlink="http://www.w3.org/1999/xlink" width="800" height="300" viewBox="0 0 3200 1200">
<defs>
  <clipPath id="clip540">
    <rect x="0" y="0" width="3200" height="1200"/>
  </clipPath>
</defs>
<path clip-path="url(#clip540)" d="M0 1200 L3200 1200 L3200 0 L0 0  Z" fill="#ffffff" fill-rule="evenodd" fill-opacity="1"/>
<defs>
  <clipPath id="clip541">
    <rect x="640" y="0" width="2241" height="1200"/>
  </clipPath>
</defs>
<path clip-path="url(#clip540)" d="M271.839 1042.58 L3089.76 1042.58 L3089.76 110.236 L271.839 110.236  Z" fill="#ffffff" fill-rule="evenodd" fill-opacity="1"/>
<defs>
  <clipPath id="clip542">
    <rect x="271" y="110" width="2819" height="933"/>
  </clipPath>
</defs>
<polyline clip-path="url(#clip542)" style="stroke:#000000; stroke-linecap:round; stroke-linejoin:round; stroke-width:2; stroke-opacity:0.1; fill:none" points="638.169,1042.58 638.169,110.236 "/>
<polyline clip-path="url(#clip542)" style="stroke:#000000; stroke-linecap:round; stroke-linejoin:round; stroke-width:2; stroke-opacity:0.1; fill:none" points="1511.73,1042.58 1511.73,110.236 "/>
<polyline clip-path="url(#clip542)" style="stroke:#000000; stroke-linecap:round; stroke-linejoin:round; stroke-width:2; stroke-opacity:0.1; fill:none" points="2357.1,1042.58 2357.1,110.236 "/>
<polyline clip-path="url(#clip540)" style="stroke:#000000; stroke-linecap:round; stroke-linejoin:round; stroke-width:4; stroke-opacity:1; fill:none" points="271.839,1042.58 3089.76,1042.58 "/>
<polyline clip-path="url(#clip540)" style="stroke:#000000; stroke-linecap:round; stroke-linejoin:round; stroke-width:4; stroke-opacity:1; fill:none" points="638.169,1042.58 638.169,1023.68 "/>
<polyline clip-path="url(#clip540)" style="stroke:#000000; stroke-linecap:round; stroke-linejoin:round; stroke-width:4; stroke-opacity:1; fill:none" points="1511.73,1042.58 1511.73,1023.68 "/>
<polyline clip-path="url(#clip540)" style="stroke:#000000; stroke-linecap:round; stroke-linejoin:round; stroke-width:4; stroke-opacity:1; fill:none" points="2357.1,1042.58 2357.1,1023.68 "/>
<path clip-path="url(#clip540)" d="M509.964 1107.44 L526.283 1107.44 L526.283 1111.38 L504.339 1111.38 L504.339 1107.44 Q507.001 1104.69 511.584 1100.06 Q516.191 1095.4 517.371 1094.06 Q519.617 1091.54 520.496 1089.8 Q521.399 1088.04 521.399 1086.35 Q521.399 1083.6 519.455 1081.86 Q517.533 1080.13 514.432 1080.13 Q512.233 1080.13 509.779 1080.89 Q507.348 1081.65 504.571 1083.2 L504.571 1078.48 Q507.395 1077.35 509.848 1076.77 Q512.302 1076.19 514.339 1076.19 Q519.709 1076.19 522.904 1078.88 Q526.098 1081.56 526.098 1086.05 Q526.098 1088.18 525.288 1090.1 Q524.501 1092 522.395 1094.59 Q521.816 1095.26 518.714 1098.48 Q515.612 1101.68 509.964 1107.44 Z" fill="#000000" fill-rule="nonzero" fill-opacity="1" /><path clip-path="url(#clip540)" d="M546.098 1079.89 Q542.487 1079.89 540.658 1083.46 Q538.853 1087 538.853 1094.13 Q538.853 1101.24 540.658 1104.8 Q542.487 1108.34 546.098 1108.34 Q549.732 1108.34 551.538 1104.8 Q553.367 1101.24 553.367 1094.13 Q553.367 1087 551.538 1083.46 Q549.732 1079.89 546.098 1079.89 M546.098 1076.19 Q551.908 1076.19 554.964 1080.8 Q558.043 1085.38 558.043 1094.13 Q558.043 1102.86 554.964 1107.46 Q551.908 1112.05 546.098 1112.05 Q540.288 1112.05 537.209 1107.46 Q534.154 1102.86 534.154 1094.13 Q534.154 1085.38 537.209 1080.8 Q540.288 1076.19 546.098 1076.19 Z" fill="#000000" fill-rule="nonzero" fill-opacity="1" /><path clip-path="url(#clip540)" d="M570.288 1107.44 L586.607 1107.44 L586.607 1111.38 L564.663 1111.38 L564.663 1107.44 Q567.325 1104.69 571.908 1100.06 Q576.515 1095.4 577.695 1094.06 Q579.941 1091.54 580.82 1089.8 Q581.723 1088.04 581.723 1086.35 Q581.723 1083.6 579.779 1081.86 Q577.857 1080.13 574.755 1080.13 Q572.556 1080.13 570.103 1080.89 Q567.672 1081.65 564.894 1083.2 L564.894 1078.48 Q567.718 1077.35 570.172 1076.77 Q572.626 1076.19 574.663 1076.19 Q580.033 1076.19 583.228 1078.88 Q586.422 1081.56 586.422 1086.05 Q586.422 1088.18 585.612 1090.1 Q584.825 1092 582.718 1094.59 Q582.14 1095.26 579.038 1098.48 Q575.936 1101.68 570.288 1107.44 Z" fill="#000000" fill-rule="nonzero" fill-opacity="1" /><path clip-path="url(#clip540)" d="M609.269 1080.89 L597.464 1099.34 L609.269 1099.34 L609.269 1080.89 M608.042 1076.82 L613.922 1076.82 L613.922 1099.34 L618.852 1099.34 L618.852 1103.23 L613.922 1103.23 L613.922 1111.38 L609.269 1111.38 L609.269 1103.23 L593.667 1103.23 L593.667 1098.71 L608.042 1076.82 Z" fill="#000000" fill-rule="nonzero" fill-opacity="1" /><path clip-path="url(#clip540)" d="M623.829 1096.49 L636.306 1096.49 L636.306 1100.29 L623.829 1100.29 L623.829 1096.49 Z" fill="#000000" fill-rule="nonzero" fill-opacity="1" /><path clip-path="url(#clip540)" d="M653.69 1079.89 Q650.079 1079.89 648.25 1083.46 Q646.445 1087 646.445 1094.13 Q646.445 1101.24 648.25 1104.8 Q650.079 1108.34 653.69 1108.34 Q657.324 1108.34 659.13 1104.8 Q660.959 1101.24 660.959 1094.13 Q660.959 1087 659.13 1083.46 Q657.324 1079.89 653.69 1079.89 M653.69 1076.19 Q659.5 1076.19 662.556 1080.8 Q665.635 1085.38 665.635 1094.13 Q665.635 1102.86 662.556 1107.46 Q659.5 1112.05 653.69 1112.05 Q647.88 1112.05 644.801 1107.46 Q641.746 1102.86 641.746 1094.13 Q641.746 1085.38 644.801 1080.8 Q647.88 1076.19 653.69 1076.19 Z" fill="#000000" fill-rule="nonzero" fill-opacity="1" /><path clip-path="url(#clip540)" d="M688.019 1092.74 Q691.375 1093.46 693.25 1095.73 Q695.148 1098 695.148 1101.33 Q695.148 1106.45 691.63 1109.25 Q688.111 1112.05 681.63 1112.05 Q679.454 1112.05 677.139 1111.61 Q674.847 1111.19 672.394 1110.33 L672.394 1105.82 Q674.338 1106.95 676.653 1107.53 Q678.968 1108.11 681.491 1108.11 Q685.889 1108.11 688.181 1106.38 Q690.496 1104.64 690.496 1101.33 Q690.496 1098.27 688.343 1096.56 Q686.213 1094.82 682.394 1094.82 L678.366 1094.82 L678.366 1090.98 L682.579 1090.98 Q686.028 1090.98 687.857 1089.62 Q689.685 1088.23 689.685 1085.64 Q689.685 1082.97 687.787 1081.56 Q685.912 1080.13 682.394 1080.13 Q680.472 1080.13 678.273 1080.54 Q676.074 1080.96 673.435 1081.84 L673.435 1077.67 Q676.097 1076.93 678.412 1076.56 Q680.75 1076.19 682.81 1076.19 Q688.134 1076.19 691.236 1078.62 Q694.338 1081.03 694.338 1085.15 Q694.338 1088.02 692.695 1090.01 Q691.051 1091.98 688.019 1092.74 Z" fill="#000000" fill-rule="nonzero" fill-opacity="1" /><path clip-path="url(#clip540)" d="M701.259 1096.49 L713.736 1096.49 L713.736 1100.29 L701.259 1100.29 L701.259 1096.49 Z" fill="#000000" fill-rule="nonzero" fill-opacity="1" /><path clip-path="url(#clip540)" d="M731.12 1079.89 Q727.509 1079.89 725.681 1083.46 Q723.875 1087 723.875 1094.13 Q723.875 1101.24 725.681 1104.8 Q727.509 1108.34 731.12 1108.34 Q734.755 1108.34 736.56 1104.8 Q738.389 1101.24 738.389 1094.13 Q738.389 1087 736.56 1083.46 Q734.755 1079.89 731.12 1079.89 M731.12 1076.19 Q736.93 1076.19 739.986 1080.8 Q743.065 1085.38 743.065 1094.13 Q743.065 1102.86 739.986 1107.46 Q736.93 1112.05 731.12 1112.05 Q725.31 1112.05 722.231 1107.46 Q719.176 1102.86 719.176 1094.13 Q719.176 1085.38 722.231 1080.8 Q725.31 1076.19 731.12 1076.19 Z" fill="#000000" fill-rule="nonzero" fill-opacity="1" /><path clip-path="url(#clip540)" d="M752.092 1107.44 L759.731 1107.44 L759.731 1081.07 L751.421 1082.74 L751.421 1078.48 L759.685 1076.82 L764.361 1076.82 L764.361 1107.44 L772 1107.44 L772 1111.38 L752.092 1111.38 L752.092 1107.44 Z" fill="#000000" fill-rule="nonzero" fill-opacity="1" /><path clip-path="url(#clip540)" d="M1383.52 1107.44 L1399.84 1107.44 L1399.84 1111.38 L1377.9 1111.38 L1377.9 1107.44 Q1380.56 1104.69 1385.14 1100.06 Q1389.75 1095.4 1390.93 1094.06 Q1393.17 1091.54 1394.05 1089.8 Q1394.96 1088.04 1394.96 1086.35 Q1394.96 1083.6 1393.01 1081.86 Q1391.09 1080.13 1387.99 1080.13 Q1385.79 1080.13 1383.34 1080.89 Q1380.9 1081.65 1378.13 1083.2 L1378.13 1078.48 Q1380.95 1077.35 1383.4 1076.77 Q1385.86 1076.19 1387.9 1076.19 Q1393.27 1076.19 1396.46 1078.88 Q1399.65 1081.56 1399.65 1086.05 Q1399.65 1088.18 1398.84 1090.1 Q1398.06 1092 1395.95 1094.59 Q1395.37 1095.26 1392.27 1098.48 Q1389.17 1101.68 1383.52 1107.44 Z" fill="#000000" fill-rule="nonzero" fill-opacity="1" /><path clip-path="url(#clip540)" d="M1419.65 1079.89 Q1416.04 1079.89 1414.21 1083.46 Q1412.41 1087 1412.41 1094.13 Q1412.41 1101.24 1414.21 1104.8 Q1416.04 1108.34 1419.65 1108.34 Q1423.29 1108.34 1425.09 1104.8 Q1426.92 1101.24 1426.92 1094.13 Q1426.92 1087 1425.09 1083.46 Q1423.29 1079.89 1419.65 1079.89 M1419.65 1076.19 Q1425.46 1076.19 1428.52 1080.8 Q1431.6 1085.38 1431.6 1094.13 Q1431.6 1102.86 1428.52 1107.46 Q1425.46 1112.05 1419.65 1112.05 Q1413.84 1112.05 1410.77 1107.46 Q1407.71 1102.86 1407.71 1094.13 Q1407.71 1085.38 1410.77 1080.8 Q1413.84 1076.19 1419.65 1076.19 Z" fill="#000000" fill-rule="nonzero" fill-opacity="1" /><path clip-path="url(#clip540)" d="M1443.84 1107.44 L1460.16 1107.44 L1460.16 1111.38 L1438.22 1111.38 L1438.22 1107.44 Q1440.88 1104.69 1445.46 1100.06 Q1450.07 1095.4 1451.25 1094.06 Q1453.5 1091.54 1454.38 1089.8 Q1455.28 1088.04 1455.28 1086.35 Q1455.28 1083.6 1453.34 1081.86 Q1451.41 1080.13 1448.31 1080.13 Q1446.11 1080.13 1443.66 1080.89 Q1441.23 1081.65 1438.45 1083.2 L1438.45 1078.48 Q1441.28 1077.35 1443.73 1076.77 Q1446.18 1076.19 1448.22 1076.19 Q1453.59 1076.19 1456.78 1078.88 Q1459.98 1081.56 1459.98 1086.05 Q1459.98 1088.18 1459.17 1090.1 Q1458.38 1092 1456.27 1094.59 Q1455.7 1095.26 1452.59 1098.48 Q1449.49 1101.68 1443.84 1107.44 Z" fill="#000000" fill-rule="nonzero" fill-opacity="1" /><path clip-path="url(#clip540)" d="M1482.83 1080.89 L1471.02 1099.34 L1482.83 1099.34 L1482.83 1080.89 M1481.6 1076.82 L1487.48 1076.82 L1487.48 1099.34 L1492.41 1099.34 L1492.41 1103.23 L1487.48 1103.23 L1487.48 1111.38 L1482.83 1111.38 L1482.83 1103.23 L1467.22 1103.23 L1467.22 1098.71 L1481.6 1076.82 Z" fill="#000000" fill-rule="nonzero" fill-opacity="1" /><path clip-path="url(#clip540)" d="M1497.39 1096.49 L1509.86 1096.49 L1509.86 1100.29 L1497.39 1100.29 L1497.39 1096.49 Z" fill="#000000" fill-rule="nonzero" fill-opacity="1" /><path clip-path="url(#clip540)" d="M1527.25 1079.89 Q1523.64 1079.89 1521.81 1083.46 Q1520 1087 1520 1094.13 Q1520 1101.24 1521.81 1104.8 Q1523.64 1108.34 1527.25 1108.34 Q1530.88 1108.34 1532.69 1104.8 Q1534.52 1101.24 1534.52 1094.13 Q1534.52 1087 1532.69 1083.46 Q1530.88 1079.89 1527.25 1079.89 M1527.25 1076.19 Q1533.06 1076.19 1536.11 1080.8 Q1539.19 1085.38 1539.19 1094.13 Q1539.19 1102.86 1536.11 1107.46 Q1533.06 1112.05 1527.25 1112.05 Q1521.44 1112.05 1518.36 1107.46 Q1515.3 1102.86 1515.3 1094.13 Q1515.3 1085.38 1518.36 1080.8 Q1521.44 1076.19 1527.25 1076.19 Z" fill="#000000" fill-rule="nonzero" fill-opacity="1" /><path clip-path="url(#clip540)" d="M1560.26 1080.89 L1548.45 1099.34 L1560.26 1099.34 L1560.26 1080.89 M1559.03 1076.82 L1564.91 1076.82 L1564.91 1099.34 L1569.84 1099.34 L1569.84 1103.23 L1564.91 1103.23 L1564.91 1111.38 L1560.26 1111.38 L1560.26 1103.23 L1544.65 1103.23 L1544.65 1098.71 L1559.03 1076.82 Z" fill="#000000" fill-rule="nonzero" fill-opacity="1" /><path clip-path="url(#clip540)" d="M1574.82 1096.49 L1587.29 1096.49 L1587.29 1100.29 L1574.82 1100.29 L1574.82 1096.49 Z" fill="#000000" fill-rule="nonzero" fill-opacity="1" /><path clip-path="url(#clip540)" d="M1604.68 1079.89 Q1601.07 1079.89 1599.24 1083.46 Q1597.43 1087 1597.43 1094.13 Q1597.43 1101.24 1599.24 1104.8 Q1601.07 1108.34 1604.68 1108.34 Q1608.31 1108.34 1610.12 1104.8 Q1611.95 1101.24 1611.95 1094.13 Q1611.95 1087 1610.12 1083.46 Q1608.31 1079.89 1604.68 1079.89 M1604.68 1076.19 Q1610.49 1076.19 1613.54 1080.8 Q1616.62 1085.38 1616.62 1094.13 Q1616.62 1102.86 1613.54 1107.46 Q1610.49 1112.05 1604.68 1112.05 Q1598.87 1112.05 1595.79 1107.46 Q1592.73 1102.86 1592.73 1094.13 Q1592.73 1085.38 1595.79 1080.8 Q1598.87 1076.19 1604.68 1076.19 Z" fill="#000000" fill-rule="nonzero" fill-opacity="1" /><path clip-path="url(#clip540)" d="M1625.65 1107.44 L1633.29 1107.44 L1633.29 1081.07 L1624.98 1082.74 L1624.98 1078.48 L1633.24 1076.82 L1637.92 1076.82 L1637.92 1107.44 L1645.56 1107.44 L1645.56 1111.38 L1625.65 1111.38 L1625.65 1107.44 Z" fill="#000000" fill-rule="nonzero" fill-opacity="1" /><path clip-path="url(#clip540)" d="M2228.9 1107.44 L2245.22 1107.44 L2245.22 1111.38 L2223.27 1111.38 L2223.27 1107.44 Q2225.94 1104.69 2230.52 1100.06 Q2235.12 1095.4 2236.31 1094.06 Q2238.55 1091.54 2239.43 1089.8 Q2240.33 1088.04 2240.33 1086.35 Q2240.33 1083.6 2238.39 1081.86 Q2236.47 1080.13 2233.37 1080.13 Q2231.17 1080.13 2228.71 1080.89 Q2226.28 1081.65 2223.5 1083.2 L2223.5 1078.48 Q2226.33 1077.35 2228.78 1076.77 Q2231.24 1076.19 2233.27 1076.19 Q2238.64 1076.19 2241.84 1078.88 Q2245.03 1081.56 2245.03 1086.05 Q2245.03 1088.18 2244.22 1090.1 Q2243.44 1092 2241.33 1094.59 Q2240.75 1095.26 2237.65 1098.48 Q2234.55 1101.68 2228.9 1107.44 Z" fill="#000000" fill-rule="nonzero" fill-opacity="1" /><path clip-path="url(#clip540)" d="M2265.03 1079.89 Q2261.42 1079.89 2259.59 1083.46 Q2257.79 1087 2257.79 1094.13 Q2257.79 1101.24 2259.59 1104.8 Q2261.42 1108.34 2265.03 1108.34 Q2268.67 1108.34 2270.47 1104.8 Q2272.3 1101.24 2272.3 1094.13 Q2272.3 1087 2270.47 1083.46 Q2268.67 1079.89 2265.03 1079.89 M2265.03 1076.19 Q2270.84 1076.19 2273.9 1080.8 Q2276.98 1085.38 2276.98 1094.13 Q2276.98 1102.86 2273.9 1107.46 Q2270.84 1112.05 2265.03 1112.05 Q2259.22 1112.05 2256.14 1107.46 Q2253.09 1102.86 2253.09 1094.13 Q2253.09 1085.38 2256.14 1080.8 Q2259.22 1076.19 2265.03 1076.19 Z" fill="#000000" fill-rule="nonzero" fill-opacity="1" /><path clip-path="url(#clip540)" d="M2289.22 1107.44 L2305.54 1107.44 L2305.54 1111.38 L2283.6 1111.38 L2283.6 1107.44 Q2286.26 1104.69 2290.84 1100.06 Q2295.45 1095.4 2296.63 1094.06 Q2298.87 1091.54 2299.75 1089.8 Q2300.66 1088.04 2300.66 1086.35 Q2300.66 1083.6 2298.71 1081.86 Q2296.79 1080.13 2293.69 1080.13 Q2291.49 1080.13 2289.04 1080.89 Q2286.61 1081.65 2283.83 1083.2 L2283.83 1078.48 Q2286.65 1077.35 2289.11 1076.77 Q2291.56 1076.19 2293.6 1076.19 Q2298.97 1076.19 2302.16 1078.88 Q2305.36 1081.56 2305.36 1086.05 Q2305.36 1088.18 2304.55 1090.1 Q2303.76 1092 2301.65 1094.59 Q2301.07 1095.26 2297.97 1098.48 Q2294.87 1101.68 2289.22 1107.44 Z" fill="#000000" fill-rule="nonzero" fill-opacity="1" /><path clip-path="url(#clip540)" d="M2328.2 1080.89 L2316.4 1099.34 L2328.2 1099.34 L2328.2 1080.89 M2326.98 1076.82 L2332.86 1076.82 L2332.86 1099.34 L2337.79 1099.34 L2337.79 1103.23 L2332.86 1103.23 L2332.86 1111.38 L2328.2 1111.38 L2328.2 1103.23 L2312.6 1103.23 L2312.6 1098.71 L2326.98 1076.82 Z" fill="#000000" fill-rule="nonzero" fill-opacity="1" /><path clip-path="url(#clip540)" d="M2342.76 1096.49 L2355.24 1096.49 L2355.24 1100.29 L2342.76 1100.29 L2342.76 1096.49 Z" fill="#000000" fill-rule="nonzero" fill-opacity="1" /><path clip-path="url(#clip540)" d="M2372.62 1079.89 Q2369.01 1079.89 2367.18 1083.46 Q2365.38 1087 2365.38 1094.13 Q2365.38 1101.24 2367.18 1104.8 Q2369.01 1108.34 2372.62 1108.34 Q2376.26 1108.34 2378.06 1104.8 Q2379.89 1101.24 2379.89 1094.13 Q2379.89 1087 2378.06 1083.46 Q2376.26 1079.89 2372.62 1079.89 M2372.62 1076.19 Q2378.43 1076.19 2381.49 1080.8 Q2384.57 1085.38 2384.57 1094.13 Q2384.57 1102.86 2381.49 1107.46 Q2378.43 1112.05 2372.62 1112.05 Q2366.81 1112.05 2363.74 1107.46 Q2360.68 1102.86 2360.68 1094.13 Q2360.68 1085.38 2363.74 1080.8 Q2366.81 1076.19 2372.62 1076.19 Z" fill="#000000" fill-rule="nonzero" fill-opacity="1" /><path clip-path="url(#clip540)" d="M2392.83 1076.82 L2411.19 1076.82 L2411.19 1080.75 L2397.11 1080.75 L2397.11 1089.22 Q2398.13 1088.88 2399.15 1088.71 Q2400.17 1088.53 2401.19 1088.53 Q2406.98 1088.53 2410.36 1091.7 Q2413.74 1094.87 2413.74 1100.29 Q2413.74 1105.87 2410.26 1108.97 Q2406.79 1112.05 2400.47 1112.05 Q2398.3 1112.05 2396.03 1111.68 Q2393.78 1111.31 2391.37 1110.57 L2391.37 1105.87 Q2393.46 1107 2395.68 1107.56 Q2397.9 1108.11 2400.38 1108.11 Q2404.38 1108.11 2406.72 1106.01 Q2409.06 1103.9 2409.06 1100.29 Q2409.06 1096.68 2406.72 1094.57 Q2404.38 1092.46 2400.38 1092.46 Q2398.5 1092.46 2396.63 1092.88 Q2394.78 1093.3 2392.83 1094.18 L2392.83 1076.82 Z" fill="#000000" fill-rule="nonzero" fill-opacity="1" /><path clip-path="url(#clip540)" d="M2420.19 1096.49 L2432.67 1096.49 L2432.67 1100.29 L2420.19 1100.29 L2420.19 1096.49 Z" fill="#000000" fill-rule="nonzero" fill-opacity="1" /><path clip-path="url(#clip540)" d="M2450.05 1079.89 Q2446.44 1079.89 2444.61 1083.46 Q2442.81 1087 2442.81 1094.13 Q2442.81 1101.24 2444.61 1104.8 Q2446.44 1108.34 2450.05 1108.34 Q2453.69 1108.34 2455.49 1104.8 Q2457.32 1101.24 2457.32 1094.13 Q2457.32 1087 2455.49 1083.46 Q2453.69 1079.89 2450.05 1079.89 M2450.05 1076.19 Q2455.86 1076.19 2458.92 1080.8 Q2462 1085.38 2462 1094.13 Q2462 1102.86 2458.92 1107.46 Q2455.86 1112.05 2450.05 1112.05 Q2444.24 1112.05 2441.17 1107.46 Q2438.11 1102.86 2438.11 1094.13 Q2438.11 1085.38 2441.17 1080.8 Q2444.24 1076.19 2450.05 1076.19 Z" fill="#000000" fill-rule="nonzero" fill-opacity="1" /><path clip-path="url(#clip540)" d="M2471.03 1107.44 L2478.67 1107.44 L2478.67 1081.07 L2470.36 1082.74 L2470.36 1078.48 L2478.62 1076.82 L2483.29 1076.82 L2483.29 1107.44 L2490.93 1107.44 L2490.93 1111.38 L2471.03 1111.38 L2471.03 1107.44 Z" fill="#000000" fill-rule="nonzero" fill-opacity="1" /><polyline clip-path="url(#clip542)" style="stroke:#000000; stroke-linecap:round; stroke-linejoin:round; stroke-width:2; stroke-opacity:0.1; fill:none" points="271.839,1042.58 3089.76,1042.58 "/>
<polyline clip-path="url(#clip542)" style="stroke:#000000; stroke-linecap:round; stroke-linejoin:round; stroke-width:2; stroke-opacity:0.1; fill:none" points="271.839,712.136 3089.76,712.136 "/>
<polyline clip-path="url(#clip542)" style="stroke:#000000; stroke-linecap:round; stroke-linejoin:round; stroke-width:2; stroke-opacity:0.1; fill:none" points="271.839,381.697 3089.76,381.697 "/>
<polyline clip-path="url(#clip540)" style="stroke:#000000; stroke-linecap:round; stroke-linejoin:round; stroke-width:4; stroke-opacity:1; fill:none" points="271.839,1042.58 271.839,110.236 "/>
<polyline clip-path="url(#clip540)" style="stroke:#000000; stroke-linecap:round; stroke-linejoin:round; stroke-width:4; stroke-opacity:1; fill:none" points="271.839,1042.58 290.737,1042.58 "/>
<polyline clip-path="url(#clip540)" style="stroke:#000000; stroke-linecap:round; stroke-linejoin:round; stroke-width:4; stroke-opacity:1; fill:none" points="271.839,712.136 290.737,712.136 "/>
<polyline clip-path="url(#clip540)" style="stroke:#000000; stroke-linecap:round; stroke-linejoin:round; stroke-width:4; stroke-opacity:1; fill:none" points="271.839,381.697 290.737,381.697 "/>
<path clip-path="url(#clip540)" d="M153.134 1062.37 L160.772 1062.37 L160.772 1036 L152.462 1037.67 L152.462 1033.41 L160.726 1031.74 L165.402 1031.74 L165.402 1062.37 L173.041 1062.37 L173.041 1066.3 L153.134 1066.3 L153.134 1062.37 Z" fill="#000000" fill-rule="nonzero" fill-opacity="1" /><path clip-path="url(#clip540)" d="M192.485 1034.82 Q188.874 1034.82 187.045 1038.39 Q185.24 1041.93 185.24 1049.06 Q185.24 1056.16 187.045 1059.73 Q188.874 1063.27 192.485 1063.27 Q196.119 1063.27 197.925 1059.73 Q199.754 1056.16 199.754 1049.06 Q199.754 1041.93 197.925 1038.39 Q196.119 1034.82 192.485 1034.82 M192.485 1031.12 Q198.295 1031.12 201.351 1035.72 Q204.43 1040.31 204.43 1049.06 Q204.43 1057.78 201.351 1062.39 Q198.295 1066.97 192.485 1066.97 Q186.675 1066.97 183.596 1062.39 Q180.541 1057.78 180.541 1049.06 Q180.541 1040.31 183.596 1035.72 Q186.675 1031.12 192.485 1031.12 Z" fill="#000000" fill-rule="nonzero" fill-opacity="1" /><path clip-path="url(#clip540)" d="M214.134 1013.31 Q211.2 1013.31 209.715 1016.21 Q208.248 1019.09 208.248 1024.88 Q208.248 1030.66 209.715 1033.55 Q211.2 1036.43 214.134 1036.43 Q217.087 1036.43 218.554 1033.55 Q220.04 1030.66 220.04 1024.88 Q220.04 1019.09 218.554 1016.21 Q217.087 1013.31 214.134 1013.31 M214.134 1010.31 Q218.855 1010.31 221.338 1014.05 Q223.839 1017.77 223.839 1024.88 Q223.839 1031.97 221.338 1035.71 Q218.855 1039.44 214.134 1039.44 Q209.414 1039.44 206.912 1035.71 Q204.43 1031.97 204.43 1024.88 Q204.43 1017.77 206.912 1014.05 Q209.414 1010.31 214.134 1010.31 Z" fill="#000000" fill-rule="nonzero" fill-opacity="1" /><path clip-path="url(#clip540)" d="M155.823 731.929 L163.462 731.929 L163.462 705.563 L155.152 707.23 L155.152 702.971 L163.416 701.304 L168.092 701.304 L168.092 731.929 L175.73 731.929 L175.73 735.864 L155.823 735.864 L155.823 731.929 Z" fill="#000000" fill-rule="nonzero" fill-opacity="1" /><path clip-path="url(#clip540)" d="M195.175 704.383 Q191.564 704.383 189.735 707.947 Q187.929 711.489 187.929 718.619 Q187.929 725.725 189.735 729.29 Q191.564 732.831 195.175 732.831 Q198.809 732.831 200.615 729.29 Q202.443 725.725 202.443 718.619 Q202.443 711.489 200.615 707.947 Q198.809 704.383 195.175 704.383 M195.175 700.679 Q200.985 700.679 204.04 705.285 Q207.119 709.869 207.119 718.619 Q207.119 727.345 204.04 731.952 Q200.985 736.535 195.175 736.535 Q189.365 736.535 186.286 731.952 Q183.23 727.345 183.23 718.619 Q183.23 709.869 186.286 705.285 Q189.365 700.679 195.175 700.679 Z" fill="#000000" fill-rule="nonzero" fill-opacity="1" /><path clip-path="url(#clip540)" d="M207.665 705.256 L213.871 705.256 L213.871 683.834 L207.119 685.188 L207.119 681.728 L213.833 680.373 L217.633 680.373 L217.633 705.256 L223.839 705.256 L223.839 708.453 L207.665 708.453 L207.665 705.256 Z" fill="#000000" fill-rule="nonzero" fill-opacity="1" /><path clip-path="url(#clip540)" d="M154.713 401.489 L162.352 401.489 L162.352 375.124 L154.042 376.79 L154.042 372.531 L162.306 370.864 L166.982 370.864 L166.982 401.489 L174.621 401.489 L174.621 405.424 L154.713 405.424 L154.713 401.489 Z" fill="#000000" fill-rule="nonzero" fill-opacity="1" /><path clip-path="url(#clip540)" d="M194.065 373.943 Q190.454 373.943 188.625 377.508 Q186.82 381.049 186.82 388.179 Q186.82 395.286 188.625 398.85 Q190.454 402.392 194.065 402.392 Q197.699 402.392 199.505 398.85 Q201.334 395.286 201.334 388.179 Q201.334 381.049 199.505 377.508 Q197.699 373.943 194.065 373.943 M194.065 370.239 Q199.875 370.239 202.931 374.846 Q206.009 379.429 206.009 388.179 Q206.009 396.906 202.931 401.512 Q199.875 406.096 194.065 406.096 Q188.255 406.096 185.176 401.512 Q182.121 396.906 182.121 388.179 Q182.121 379.429 185.176 374.846 Q188.255 370.239 194.065 370.239 Z" fill="#000000" fill-rule="nonzero" fill-opacity="1" /><path clip-path="url(#clip540)" d="M210.58 374.817 L223.839 374.817 L223.839 378.014 L206.009 378.014 L206.009 374.817 Q208.172 372.578 211.896 368.817 Q215.639 365.037 216.598 363.946 Q218.423 361.896 219.137 360.485 Q219.871 359.056 219.871 357.683 Q219.871 355.445 218.291 354.034 Q216.73 352.623 214.21 352.623 Q212.423 352.623 210.429 353.244 Q208.454 353.865 206.198 355.125 L206.198 351.288 Q208.492 350.367 210.486 349.896 Q212.479 349.426 214.134 349.426 Q218.498 349.426 221.093 351.608 Q223.689 353.79 223.689 357.438 Q223.689 359.169 223.03 360.73 Q222.391 362.272 220.68 364.378 Q220.209 364.924 217.689 367.538 Q215.169 370.133 210.58 374.817 Z" fill="#000000" fill-rule="nonzero" fill-opacity="1" /><path clip-path="url(#clip540)" d="M83.4268 869.897 L70.6636 869.897 L70.6636 880.4 L65.38 880.4 L65.38 863.531 L85.7821 863.531 Q88.4239 867.255 89.7925 871.743 Q91.1293 876.231 91.1293 881.323 Q91.1293 892.463 84.6363 898.765 Q78.1114 905.036 66.494 905.036 Q54.8448 905.036 48.3518 898.765 Q41.8269 892.463 41.8269 881.323 Q41.8269 876.676 42.9727 872.507 Q44.1186 868.305 46.3466 864.772 L53.1897 864.772 Q50.166 868.337 48.6382 872.348 Q47.1104 876.358 47.1104 880.782 Q47.1104 889.503 51.9802 893.896 Q56.85 898.256 66.494 898.256 Q76.1062 898.256 80.976 893.896 Q85.8458 889.503 85.8458 880.782 Q85.8458 877.377 85.2729 874.703 Q84.6681 872.029 83.4268 869.897 Z" fill="#000000" fill-rule="nonzero" fill-opacity="1" /><path clip-path="url(#clip540)" d="M70.9182 821.549 L73.7828 821.549 L73.7828 848.476 Q79.8302 848.094 83.013 844.848 Q86.1641 841.569 86.1641 835.745 Q86.1641 832.371 85.3365 829.22 Q84.509 826.037 82.8539 822.918 L88.3921 822.918 Q89.7289 826.069 90.4291 829.379 Q91.1293 832.689 91.1293 836.095 Q91.1293 844.625 86.1641 849.622 Q81.1988 854.587 72.7324 854.587 Q63.9796 854.587 58.8552 849.877 Q53.699 845.134 53.699 837.113 Q53.699 829.92 58.3459 825.751 Q62.9611 821.549 70.9182 821.549 M69.1995 827.406 Q64.3933 827.469 61.5288 830.111 Q58.6642 832.721 58.6642 837.05 Q58.6642 841.951 61.4333 844.911 Q64.2024 847.84 69.2313 848.285 L69.1995 827.406 Z" fill="#000000" fill-rule="nonzero" fill-opacity="1" /><path clip-path="url(#clip540)" d="M68.6902 782.305 L90.2063 782.305 L90.2063 788.161 L68.8812 788.161 Q63.8204 788.161 61.306 790.135 Q58.7915 792.108 58.7915 796.055 Q58.7915 800.797 61.8152 803.534 Q64.8389 806.272 70.0588 806.272 L90.2063 806.272 L90.2063 812.16 L54.5583 812.16 L54.5583 806.272 L60.0965 806.272 Q56.8818 804.171 55.2904 801.338 Q53.699 798.474 53.699 794.75 Q53.699 788.607 57.5184 785.456 Q61.306 782.305 68.6902 782.305 Z" fill="#000000" fill-rule="nonzero" fill-opacity="1" /><path clip-path="url(#clip540)" d="M58.6642 756.81 Q58.6642 761.521 62.3563 764.258 Q66.0166 766.995 72.4141 766.995 Q78.8117 766.995 82.5038 764.29 Q86.1641 761.553 86.1641 756.81 Q86.1641 752.131 82.4719 749.394 Q78.7798 746.657 72.4141 746.657 Q66.0803 746.657 62.3881 749.394 Q58.6642 752.131 58.6642 756.81 M53.699 756.81 Q53.699 749.171 58.6642 744.811 Q63.6295 740.45 72.4141 740.45 Q81.167 740.45 86.1641 744.811 Q91.1293 749.171 91.1293 756.81 Q91.1293 764.481 86.1641 768.841 Q81.167 773.17 72.4141 773.17 Q63.6295 773.17 58.6642 768.841 Q53.699 764.481 53.699 756.81 Z" fill="#000000" fill-rule="nonzero" fill-opacity="1" /><path clip-path="url(#clip540)" d="M61.4015 702.988 Q57.4547 700.792 55.5768 697.736 Q53.699 694.681 53.699 690.543 Q53.699 684.973 57.6139 681.949 Q61.4969 678.926 68.6902 678.926 L90.2063 678.926 L90.2063 684.814 L68.8812 684.814 Q63.7568 684.814 61.2741 686.628 Q58.7915 688.442 58.7915 692.166 Q58.7915 696.718 61.8152 699.36 Q64.8389 702.001 70.0588 702.001 L90.2063 702.001 L90.2063 707.89 L68.8812 707.89 Q63.7249 707.89 61.2741 709.704 Q58.7915 711.518 58.7915 715.306 Q58.7915 719.794 61.8471 722.435 Q64.8708 725.077 70.0588 725.077 L90.2063 725.077 L90.2063 730.965 L54.5583 730.965 L54.5583 725.077 L60.0965 725.077 Q56.8182 723.072 55.2586 720.271 Q53.699 717.47 53.699 713.619 Q53.699 709.736 55.6723 707.03 Q57.6457 704.293 61.4015 702.988 Z" fill="#000000" fill-rule="nonzero" fill-opacity="1" /><path clip-path="url(#clip540)" d="M70.9182 636.753 L73.7828 636.753 L73.7828 663.68 Q79.8302 663.298 83.013 660.051 Q86.1641 656.773 86.1641 650.948 Q86.1641 647.575 85.3365 644.424 Q84.509 641.241 82.8539 638.122 L88.3921 638.122 Q89.7289 641.273 90.4291 644.583 Q91.1293 647.893 91.1293 651.299 Q91.1293 659.829 86.1641 664.826 Q81.1988 669.791 72.7324 669.791 Q63.9796 669.791 58.8552 665.08 Q53.699 660.338 53.699 652.317 Q53.699 645.124 58.3459 640.954 Q62.9611 636.753 70.9182 636.753 M69.1995 642.609 Q64.3933 642.673 61.5288 645.315 Q58.6642 647.925 58.6642 652.253 Q58.6642 657.155 61.4333 660.115 Q64.2024 663.043 69.2313 663.489 L69.1995 642.609 Z" fill="#000000" fill-rule="nonzero" fill-opacity="1" /><path clip-path="url(#clip540)" d="M55.6087 604.415 L61.1468 604.415 Q59.8737 606.898 59.2371 609.571 Q58.6006 612.245 58.6006 615.109 Q58.6006 619.47 59.9373 621.666 Q61.2741 623.83 63.9477 623.83 Q65.9848 623.83 67.1624 622.271 Q68.3083 620.711 69.3586 616.001 L69.8042 613.995 Q71.141 607.757 73.5918 605.147 Q76.0108 602.505 80.3713 602.505 Q85.3365 602.505 88.2329 606.452 Q91.1293 610.367 91.1293 617.242 Q91.1293 620.107 90.5564 623.226 Q90.0153 626.313 88.9013 629.751 L82.8539 629.751 Q84.5408 626.504 85.4002 623.353 Q86.2277 620.202 86.2277 617.115 Q86.2277 612.977 84.8273 610.749 Q83.395 608.521 80.8169 608.521 Q78.4297 608.521 77.1566 610.144 Q75.8834 611.736 74.7058 617.178 L74.2284 619.215 Q73.0825 624.658 70.7272 627.077 Q68.3401 629.496 64.2024 629.496 Q59.1735 629.496 56.4362 625.931 Q53.699 622.366 53.699 615.81 Q53.699 612.563 54.1764 609.699 Q54.6538 606.834 55.6087 604.415 Z" fill="#000000" fill-rule="nonzero" fill-opacity="1" /><path clip-path="url(#clip540)" d="M42.6863 582.772 L42.6863 577.361 L96.2537 593.912 L96.2537 599.323 L42.6863 582.772 Z" fill="#000000" fill-rule="nonzero" fill-opacity="1" /><path clip-path="url(#clip540)" d="M47.9698 564.534 L84.9227 564.534 L84.9227 556.768 Q84.9227 546.933 80.4668 542.381 Q76.0108 537.798 66.3985 537.798 Q56.85 537.798 52.4258 542.381 Q47.9698 546.933 47.9698 556.768 L47.9698 564.534 M42.6863 570.963 L42.6863 557.754 Q42.6863 543.941 48.4472 537.48 Q54.1764 531.018 66.3985 531.018 Q78.6844 531.018 84.4453 537.512 Q90.2063 544.005 90.2063 557.754 L90.2063 570.963 L42.6863 570.963 Z" fill="#000000" fill-rule="nonzero" fill-opacity="1" /><path clip-path="url(#clip540)" d="M72.2868 504.824 Q72.2868 511.921 73.9101 514.659 Q75.5333 517.396 79.4482 517.396 Q82.5674 517.396 84.4135 515.359 Q86.2277 513.29 86.2277 509.757 Q86.2277 504.887 82.7902 501.959 Q79.3209 498.999 73.5918 498.999 L72.2868 498.999 L72.2868 504.824 M69.8679 493.143 L90.2063 493.143 L90.2063 498.999 L84.7954 498.999 Q88.0419 501.004 89.6015 503.996 Q91.1293 506.988 91.1293 511.317 Q91.1293 516.791 88.0738 520.038 Q84.9864 523.252 79.8302 523.252 Q73.8146 523.252 70.759 519.242 Q67.7035 515.2 67.7035 507.211 L67.7035 498.999 L67.1306 498.999 Q63.0884 498.999 60.8922 501.673 Q58.6642 504.314 58.6642 509.12 Q58.6642 512.176 59.3963 515.072 Q60.1283 517.969 61.5924 520.642 L56.1816 520.642 Q54.9403 517.428 54.3355 514.404 Q53.699 511.38 53.699 508.516 Q53.699 500.781 57.7094 496.962 Q61.7197 493.143 69.8679 493.143 Z" fill="#000000" fill-rule="nonzero" fill-opacity="1" /><path clip-path="url(#clip540)" d="M93.5165 466.247 Q99.8822 468.73 101.824 471.085 Q103.765 473.441 103.765 477.387 L103.765 482.066 L98.8636 482.066 L98.8636 478.629 Q98.8636 476.21 97.7178 474.873 Q96.572 473.536 92.307 471.913 L89.6334 470.863 L54.5583 485.281 L54.5583 479.074 L82.4401 467.934 L54.5583 456.794 L54.5583 450.588 L93.5165 466.247 Z" fill="#000000" fill-rule="nonzero" fill-opacity="1" /><path clip-path="url(#clip540)" d="M40.7447 407.715 Q48.0653 411.98 55.2267 414.049 Q62.3881 416.117 69.7405 416.117 Q77.0929 416.117 84.318 414.049 Q91.5113 411.948 98.8 407.715 L98.8 412.807 Q91.3203 417.582 84.0952 419.969 Q76.8701 422.324 69.7405 422.324 Q62.6428 422.324 55.4495 419.969 Q48.2563 417.613 40.7447 412.807 L40.7447 407.715 Z" fill="#000000" fill-rule="nonzero" fill-opacity="1" /><path clip-path="url(#clip540)" d="M42.6863 396.829 L42.6863 390.368 L71.5548 390.368 Q79.1936 390.368 82.5674 387.599 Q85.9094 384.83 85.9094 378.623 Q85.9094 372.449 82.5674 369.68 Q79.1936 366.911 71.5548 366.911 L42.6863 366.911 L42.6863 360.449 L72.3505 360.449 Q81.6444 360.449 86.3869 365.065 Q91.1293 369.648 91.1293 378.623 Q91.1293 387.631 86.3869 392.246 Q81.6444 396.829 72.3505 396.829 L42.6863 396.829 Z" fill="#000000" fill-rule="nonzero" fill-opacity="1" /><path clip-path="url(#clip540)" d="M44.2459 319.9 L50.5161 319.9 Q48.7655 323.56 47.9062 326.807 Q47.0468 330.053 47.0468 333.077 Q47.0468 338.329 49.0838 341.193 Q51.1208 344.026 54.8766 344.026 Q58.0276 344.026 59.6509 342.148 Q61.2423 340.238 62.229 334.955 L63.0247 331.072 Q64.3933 323.878 67.8627 320.473 Q71.3001 317.035 77.0929 317.035 Q83.9997 317.035 87.5645 321.682 Q91.1293 326.297 91.1293 335.241 Q91.1293 338.615 90.3654 342.434 Q89.6015 346.222 88.1056 350.296 L81.4853 350.296 Q83.6814 346.381 84.7954 342.625 Q85.9094 338.87 85.9094 335.241 Q85.9094 329.735 83.7451 326.743 Q81.5808 323.751 77.5704 323.751 Q74.0692 323.751 72.0958 325.915 Q70.1225 328.048 69.1358 332.95 L68.3719 336.864 Q66.9396 344.058 63.8841 347.272 Q60.8285 350.487 55.3859 350.487 Q49.0838 350.487 45.4554 346.063 Q41.8269 341.607 41.8269 333.809 Q41.8269 330.467 42.4317 326.998 Q43.0364 323.528 44.2459 319.9 Z" fill="#000000" fill-rule="nonzero" fill-opacity="1" /><path clip-path="url(#clip540)" d="M49.0202 289.917 L72.6688 298.638 L72.6688 281.165 L49.0202 289.917 M42.6863 293.546 L42.6863 286.257 L90.2063 268.147 L90.2063 274.831 L78.016 279.159 L78.016 300.58 L90.2063 304.909 L90.2063 311.688 L42.6863 293.546 Z" fill="#000000" fill-rule="nonzero" fill-opacity="1" /><path clip-path="url(#clip540)" d="M40.7447 262.386 L40.7447 257.293 Q48.2563 252.519 55.4495 250.164 Q62.6428 247.776 69.7405 247.776 Q76.8701 247.776 84.0952 250.164 Q91.3203 252.519 98.8 257.293 L98.8 262.386 Q91.5113 258.152 84.318 256.084 Q77.0929 253.983 69.7405 253.983 Q62.3881 253.983 55.2267 256.084 Q48.0653 258.152 40.7447 262.386 Z" fill="#000000" fill-rule="nonzero" fill-opacity="1" /><path clip-path="url(#clip542)" d="M288.747 216.58 L288.747 1042.58 L311.29 1042.58 L311.29 216.58 L288.747 216.58 L288.747 216.58  Z" fill="#009af9" fill-rule="evenodd" fill-opacity="0.5"/>
<polyline clip-path="url(#clip542)" style="stroke:#000000; stroke-linecap:round; stroke-linejoin:round; stroke-width:4; stroke-opacity:0.5; fill:none" points="288.747,216.58 288.747,1042.58 311.29,1042.58 311.29,216.58 288.747,216.58 "/>
<path clip-path="url(#clip542)" d="M316.926 130.174 L316.926 1042.58 L339.469 1042.58 L339.469 130.174 L316.926 130.174 L316.926 130.174  Z" fill="#009af9" fill-rule="evenodd" fill-opacity="0.5"/>
<polyline clip-path="url(#clip542)" style="stroke:#000000; stroke-linecap:round; stroke-linejoin:round; stroke-width:4; stroke-opacity:0.5; fill:none" points="316.926,130.174 316.926,1042.58 339.469,1042.58 339.469,130.174 316.926,130.174 "/>
<path clip-path="url(#clip542)" d="M345.105 120.091 L345.105 1042.58 L367.649 1042.58 L367.649 120.091 L345.105 120.091 L345.105 120.091  Z" fill="#009af9" fill-rule="evenodd" fill-opacity="0.5"/>
<polyline clip-path="url(#clip542)" style="stroke:#000000; stroke-linecap:round; stroke-linejoin:round; stroke-width:4; stroke-opacity:0.5; fill:none" points="345.105,120.091 345.105,1042.58 367.649,1042.58 367.649,120.091 345.105,120.091 "/>
<path clip-path="url(#clip542)" d="M373.285 110.67 L373.285 1042.58 L395.828 1042.58 L395.828 110.67 L373.285 110.67 L373.285 110.67  Z" fill="#009af9" fill-rule="evenodd" fill-opacity="0.5"/>
<polyline clip-path="url(#clip542)" style="stroke:#000000; stroke-linecap:round; stroke-linejoin:round; stroke-width:4; stroke-opacity:0.5; fill:none" points="373.285,110.67 373.285,1042.58 395.828,1042.58 395.828,110.67 373.285,110.67 "/>
<path clip-path="url(#clip542)" d="M401.464 110.236 L401.464 1042.58 L424.007 1042.58 L424.007 110.236 L401.464 110.236 L401.464 110.236  Z" fill="#009af9" fill-rule="evenodd" fill-opacity="0.5"/>
<polyline clip-path="url(#clip542)" style="stroke:#000000; stroke-linecap:round; stroke-linejoin:round; stroke-width:4; stroke-opacity:0.5; fill:none" points="401.464,110.236 401.464,1042.58 424.007,1042.58 424.007,110.236 401.464,110.236 "/>
<path clip-path="url(#clip542)" d="M429.643 132.936 L429.643 1042.58 L452.186 1042.58 L452.186 132.936 L429.643 132.936 L429.643 132.936  Z" fill="#009af9" fill-rule="evenodd" fill-opacity="0.5"/>
<polyline clip-path="url(#clip542)" style="stroke:#000000; stroke-linecap:round; stroke-linejoin:round; stroke-width:4; stroke-opacity:0.5; fill:none" points="429.643,132.936 429.643,1042.58 452.186,1042.58 452.186,132.936 429.643,132.936 "/>
<path clip-path="url(#clip542)" d="M457.822 240.761 L457.822 1042.58 L480.366 1042.58 L480.366 240.761 L457.822 240.761 L457.822 240.761  Z" fill="#009af9" fill-rule="evenodd" fill-opacity="0.5"/>
<polyline clip-path="url(#clip542)" style="stroke:#000000; stroke-linecap:round; stroke-linejoin:round; stroke-width:4; stroke-opacity:0.5; fill:none" points="457.822,240.761 457.822,1042.58 480.366,1042.58 480.366,240.761 457.822,240.761 "/>
<path clip-path="url(#clip542)" d="M486.001 222.136 L486.001 1042.58 L508.545 1042.58 L508.545 222.136 L486.001 222.136 L486.001 222.136  Z" fill="#009af9" fill-rule="evenodd" fill-opacity="0.5"/>
<polyline clip-path="url(#clip542)" style="stroke:#000000; stroke-linecap:round; stroke-linejoin:round; stroke-width:4; stroke-opacity:0.5; fill:none" points="486.001,222.136 486.001,1042.58 508.545,1042.58 508.545,222.136 486.001,222.136 "/>
<path clip-path="url(#clip542)" d="M514.181 119.859 L514.181 1042.58 L536.724 1042.58 L536.724 119.859 L514.181 119.859 L514.181 119.859  Z" fill="#009af9" fill-rule="evenodd" fill-opacity="0.5"/>
<polyline clip-path="url(#clip542)" style="stroke:#000000; stroke-linecap:round; stroke-linejoin:round; stroke-width:4; stroke-opacity:0.5; fill:none" points="514.181,119.859 514.181,1042.58 536.724,1042.58 536.724,119.859 514.181,119.859 "/>
<path clip-path="url(#clip542)" d="M542.36 130.922 L542.36 1042.58 L564.903 1042.58 L564.903 130.922 L542.36 130.922 L542.36 130.922  Z" fill="#009af9" fill-rule="evenodd" fill-opacity="0.5"/>
<polyline clip-path="url(#clip542)" style="stroke:#000000; stroke-linecap:round; stroke-linejoin:round; stroke-width:4; stroke-opacity:0.5; fill:none" points="542.36,130.922 542.36,1042.58 564.903,1042.58 564.903,130.922 542.36,130.922 "/>
<path clip-path="url(#clip542)" d="M570.539 149.586 L570.539 1042.58 L593.083 1042.58 L593.083 149.586 L570.539 149.586 L570.539 149.586  Z" fill="#009af9" fill-rule="evenodd" fill-opacity="0.5"/>
<polyline clip-path="url(#clip542)" style="stroke:#000000; stroke-linecap:round; stroke-linejoin:round; stroke-width:4; stroke-opacity:0.5; fill:none" points="570.539,149.586 570.539,1042.58 593.083,1042.58 593.083,149.586 570.539,149.586 "/>
<path clip-path="url(#clip542)" d="M598.718 192.014 L598.718 1042.58 L621.262 1042.58 L621.262 192.014 L598.718 192.014 L598.718 192.014  Z" fill="#009af9" fill-rule="evenodd" fill-opacity="0.5"/>
<polyline clip-path="url(#clip542)" style="stroke:#000000; stroke-linecap:round; stroke-linejoin:round; stroke-width:4; stroke-opacity:0.5; fill:none" points="598.718,192.014 598.718,1042.58 621.262,1042.58 621.262,192.014 598.718,192.014 "/>
<path clip-path="url(#clip542)" d="M626.898 201.915 L626.898 1042.58 L649.441 1042.58 L649.441 201.915 L626.898 201.915 L626.898 201.915  Z" fill="#009af9" fill-rule="evenodd" fill-opacity="0.5"/>
<polyline clip-path="url(#clip542)" style="stroke:#000000; stroke-linecap:round; stroke-linejoin:round; stroke-width:4; stroke-opacity:0.5; fill:none" points="626.898,201.915 626.898,1042.58 649.441,1042.58 649.441,201.915 626.898,201.915 "/>
<path clip-path="url(#clip542)" d="M655.077 268.547 L655.077 1042.58 L677.62 1042.58 L677.62 268.547 L655.077 268.547 L655.077 268.547  Z" fill="#009af9" fill-rule="evenodd" fill-opacity="0.5"/>
<polyline clip-path="url(#clip542)" style="stroke:#000000; stroke-linecap:round; stroke-linejoin:round; stroke-width:4; stroke-opacity:0.5; fill:none" points="655.077,268.547 655.077,1042.58 677.62,1042.58 677.62,268.547 655.077,268.547 "/>
<path clip-path="url(#clip542)" d="M683.256 265.322 L683.256 1042.58 L705.8 1042.58 L705.8 265.322 L683.256 265.322 L683.256 265.322  Z" fill="#009af9" fill-rule="evenodd" fill-opacity="0.5"/>
<polyline clip-path="url(#clip542)" style="stroke:#000000; stroke-linecap:round; stroke-linejoin:round; stroke-width:4; stroke-opacity:0.5; fill:none" points="683.256,265.322 683.256,1042.58 705.8,1042.58 705.8,265.322 683.256,265.322 "/>
<path clip-path="url(#clip542)" d="M711.435 171.708 L711.435 1042.58 L733.979 1042.58 L733.979 171.708 L711.435 171.708 L711.435 171.708  Z" fill="#009af9" fill-rule="evenodd" fill-opacity="0.5"/>
<polyline clip-path="url(#clip542)" style="stroke:#000000; stroke-linecap:round; stroke-linejoin:round; stroke-width:4; stroke-opacity:0.5; fill:none" points="711.435,171.708 711.435,1042.58 733.979,1042.58 733.979,171.708 711.435,171.708 "/>
<path clip-path="url(#clip542)" d="M739.615 191.632 L739.615 1042.58 L762.158 1042.58 L762.158 191.632 L739.615 191.632 L739.615 191.632  Z" fill="#009af9" fill-rule="evenodd" fill-opacity="0.5"/>
<polyline clip-path="url(#clip542)" style="stroke:#000000; stroke-linecap:round; stroke-linejoin:round; stroke-width:4; stroke-opacity:0.5; fill:none" points="739.615,191.632 739.615,1042.58 762.158,1042.58 762.158,191.632 739.615,191.632 "/>
<path clip-path="url(#clip542)" d="M767.794 184.195 L767.794 1042.58 L790.337 1042.58 L790.337 184.195 L767.794 184.195 L767.794 184.195  Z" fill="#009af9" fill-rule="evenodd" fill-opacity="0.5"/>
<polyline clip-path="url(#clip542)" style="stroke:#000000; stroke-linecap:round; stroke-linejoin:round; stroke-width:4; stroke-opacity:0.5; fill:none" points="767.794,184.195 767.794,1042.58 790.337,1042.58 790.337,184.195 767.794,184.195 "/>
<path clip-path="url(#clip542)" d="M795.973 206.075 L795.973 1042.58 L818.517 1042.58 L818.517 206.075 L795.973 206.075 L795.973 206.075  Z" fill="#009af9" fill-rule="evenodd" fill-opacity="0.5"/>
<polyline clip-path="url(#clip542)" style="stroke:#000000; stroke-linecap:round; stroke-linejoin:round; stroke-width:4; stroke-opacity:0.5; fill:none" points="795.973,206.075 795.973,1042.58 818.517,1042.58 818.517,206.075 795.973,206.075 "/>
<path clip-path="url(#clip542)" d="M824.152 227.425 L824.152 1042.58 L846.696 1042.58 L846.696 227.425 L824.152 227.425 L824.152 227.425  Z" fill="#009af9" fill-rule="evenodd" fill-opacity="0.5"/>
<polyline clip-path="url(#clip542)" style="stroke:#000000; stroke-linecap:round; stroke-linejoin:round; stroke-width:4; stroke-opacity:0.5; fill:none" points="824.152,227.425 824.152,1042.58 846.696,1042.58 846.696,227.425 824.152,227.425 "/>
<path clip-path="url(#clip542)" d="M852.332 292.639 L852.332 1042.58 L874.875 1042.58 L874.875 292.639 L852.332 292.639 L852.332 292.639  Z" fill="#009af9" fill-rule="evenodd" fill-opacity="0.5"/>
<polyline clip-path="url(#clip542)" style="stroke:#000000; stroke-linecap:round; stroke-linejoin:round; stroke-width:4; stroke-opacity:0.5; fill:none" points="852.332,292.639 852.332,1042.58 874.875,1042.58 874.875,292.639 852.332,292.639 "/>
<path clip-path="url(#clip542)" d="M880.511 302.21 L880.511 1042.58 L903.054 1042.58 L903.054 302.21 L880.511 302.21 L880.511 302.21  Z" fill="#009af9" fill-rule="evenodd" fill-opacity="0.5"/>
<polyline clip-path="url(#clip542)" style="stroke:#000000; stroke-linecap:round; stroke-linejoin:round; stroke-width:4; stroke-opacity:0.5; fill:none" points="880.511,302.21 880.511,1042.58 903.054,1042.58 903.054,302.21 880.511,302.21 "/>
<path clip-path="url(#clip542)" d="M908.69 234.452 L908.69 1042.58 L931.234 1042.58 L931.234 234.452 L908.69 234.452 L908.69 234.452  Z" fill="#009af9" fill-rule="evenodd" fill-opacity="0.5"/>
<polyline clip-path="url(#clip542)" style="stroke:#000000; stroke-linecap:round; stroke-linejoin:round; stroke-width:4; stroke-opacity:0.5; fill:none" points="908.69,234.452 908.69,1042.58 931.234,1042.58 931.234,234.452 908.69,234.452 "/>
<path clip-path="url(#clip542)" d="M936.869 242.382 L936.869 1042.58 L959.413 1042.58 L959.413 242.382 L936.869 242.382 L936.869 242.382  Z" fill="#009af9" fill-rule="evenodd" fill-opacity="0.5"/>
<polyline clip-path="url(#clip542)" style="stroke:#000000; stroke-linecap:round; stroke-linejoin:round; stroke-width:4; stroke-opacity:0.5; fill:none" points="936.869,242.382 936.869,1042.58 959.413,1042.58 959.413,242.382 936.869,242.382 "/>
<path clip-path="url(#clip542)" d="M965.049 236.524 L965.049 1042.58 L987.592 1042.58 L987.592 236.524 L965.049 236.524 L965.049 236.524  Z" fill="#009af9" fill-rule="evenodd" fill-opacity="0.5"/>
<polyline clip-path="url(#clip542)" style="stroke:#000000; stroke-linecap:round; stroke-linejoin:round; stroke-width:4; stroke-opacity:0.5; fill:none" points="965.049,236.524 965.049,1042.58 987.592,1042.58 987.592,236.524 965.049,236.524 "/>
<path clip-path="url(#clip542)" d="M993.228 253.101 L993.228 1042.58 L1015.77 1042.58 L1015.77 253.101 L993.228 253.101 L993.228 253.101  Z" fill="#009af9" fill-rule="evenodd" fill-opacity="0.5"/>
<polyline clip-path="url(#clip542)" style="stroke:#000000; stroke-linecap:round; stroke-linejoin:round; stroke-width:4; stroke-opacity:0.5; fill:none" points="993.228,253.101 993.228,1042.58 1015.77,1042.58 1015.77,253.101 993.228,253.101 "/>
<path clip-path="url(#clip542)" d="M1021.41 269.857 L1021.41 1042.58 L1043.95 1042.58 L1043.95 269.857 L1021.41 269.857 L1021.41 269.857  Z" fill="#009af9" fill-rule="evenodd" fill-opacity="0.5"/>
<polyline clip-path="url(#clip542)" style="stroke:#000000; stroke-linecap:round; stroke-linejoin:round; stroke-width:4; stroke-opacity:0.5; fill:none" points="1021.41,269.857 1021.41,1042.58 1043.95,1042.58 1043.95,269.857 1021.41,269.857 "/>
<path clip-path="url(#clip542)" d="M1049.59 345.154 L1049.59 1042.58 L1072.13 1042.58 L1072.13 345.154 L1049.59 345.154 L1049.59 345.154  Z" fill="#009af9" fill-rule="evenodd" fill-opacity="0.5"/>
<polyline clip-path="url(#clip542)" style="stroke:#000000; stroke-linecap:round; stroke-linejoin:round; stroke-width:4; stroke-opacity:0.5; fill:none" points="1049.59,345.154 1049.59,1042.58 1072.13,1042.58 1072.13,345.154 1049.59,345.154 "/>
<path clip-path="url(#clip542)" d="M1077.77 355.532 L1077.77 1042.58 L1100.31 1042.58 L1100.31 355.532 L1077.77 355.532 L1077.77 355.532  Z" fill="#009af9" fill-rule="evenodd" fill-opacity="0.5"/>
<polyline clip-path="url(#clip542)" style="stroke:#000000; stroke-linecap:round; stroke-linejoin:round; stroke-width:4; stroke-opacity:0.5; fill:none" points="1077.77,355.532 1077.77,1042.58 1100.31,1042.58 1100.31,355.532 1077.77,355.532 "/>
<path clip-path="url(#clip542)" d="M1105.94 267.896 L1105.94 1042.58 L1128.49 1042.58 L1128.49 267.896 L1105.94 267.896 L1105.94 267.896  Z" fill="#009af9" fill-rule="evenodd" fill-opacity="0.5"/>
<polyline clip-path="url(#clip542)" style="stroke:#000000; stroke-linecap:round; stroke-linejoin:round; stroke-width:4; stroke-opacity:0.5; fill:none" points="1105.94,267.896 1105.94,1042.58 1128.49,1042.58 1128.49,267.896 1105.94,267.896 "/>
<path clip-path="url(#clip542)" d="M1134.12 271.18 L1134.12 1042.58 L1156.67 1042.58 L1156.67 271.18 L1134.12 271.18 L1134.12 271.18  Z" fill="#009af9" fill-rule="evenodd" fill-opacity="0.5"/>
<polyline clip-path="url(#clip542)" style="stroke:#000000; stroke-linecap:round; stroke-linejoin:round; stroke-width:4; stroke-opacity:0.5; fill:none" points="1134.12,271.18 1134.12,1042.58 1156.67,1042.58 1156.67,271.18 1134.12,271.18 "/>
<path clip-path="url(#clip542)" d="M1162.3 259.693 L1162.3 1042.58 L1184.85 1042.58 L1184.85 259.693 L1162.3 259.693 L1162.3 259.693  Z" fill="#009af9" fill-rule="evenodd" fill-opacity="0.5"/>
<polyline clip-path="url(#clip542)" style="stroke:#000000; stroke-linecap:round; stroke-linejoin:round; stroke-width:4; stroke-opacity:0.5; fill:none" points="1162.3,259.693 1162.3,1042.58 1184.85,1042.58 1184.85,259.693 1162.3,259.693 "/>
<path clip-path="url(#clip542)" d="M1190.48 265.322 L1190.48 1042.58 L1213.03 1042.58 L1213.03 265.322 L1190.48 265.322 L1190.48 265.322  Z" fill="#009af9" fill-rule="evenodd" fill-opacity="0.5"/>
<polyline clip-path="url(#clip542)" style="stroke:#000000; stroke-linecap:round; stroke-linejoin:round; stroke-width:4; stroke-opacity:0.5; fill:none" points="1190.48,265.322 1190.48,1042.58 1213.03,1042.58 1213.03,265.322 1190.48,265.322 "/>
<path clip-path="url(#clip542)" d="M1218.66 272.515 L1218.66 1042.58 L1241.21 1042.58 L1241.21 272.515 L1218.66 272.515 L1218.66 272.515  Z" fill="#009af9" fill-rule="evenodd" fill-opacity="0.5"/>
<polyline clip-path="url(#clip542)" style="stroke:#000000; stroke-linecap:round; stroke-linejoin:round; stroke-width:4; stroke-opacity:0.5; fill:none" points="1218.66,272.515 1218.66,1042.58 1241.21,1042.58 1241.21,272.515 1218.66,272.515 "/>
<path clip-path="url(#clip542)" d="M1246.84 334.439 L1246.84 1042.58 L1269.38 1042.58 L1269.38 334.439 L1246.84 334.439 L1246.84 334.439  Z" fill="#009af9" fill-rule="evenodd" fill-opacity="0.5"/>
<polyline clip-path="url(#clip542)" style="stroke:#000000; stroke-linecap:round; stroke-linejoin:round; stroke-width:4; stroke-opacity:0.5; fill:none" points="1246.84,334.439 1246.84,1042.58 1269.38,1042.58 1269.38,334.439 1246.84,334.439 "/>
<path clip-path="url(#clip542)" d="M1275.02 359.165 L1275.02 1042.58 L1297.56 1042.58 L1297.56 359.165 L1275.02 359.165 L1275.02 359.165  Z" fill="#009af9" fill-rule="evenodd" fill-opacity="0.5"/>
<polyline clip-path="url(#clip542)" style="stroke:#000000; stroke-linecap:round; stroke-linejoin:round; stroke-width:4; stroke-opacity:0.5; fill:none" points="1275.02,359.165 1275.02,1042.58 1297.56,1042.58 1297.56,359.165 1275.02,359.165 "/>
<path clip-path="url(#clip542)" d="M1303.2 265.961 L1303.2 1042.58 L1325.74 1042.58 L1325.74 265.961 L1303.2 265.961 L1303.2 265.961  Z" fill="#009af9" fill-rule="evenodd" fill-opacity="0.5"/>
<polyline clip-path="url(#clip542)" style="stroke:#000000; stroke-linecap:round; stroke-linejoin:round; stroke-width:4; stroke-opacity:0.5; fill:none" points="1303.2,265.961 1303.2,1042.58 1325.74,1042.58 1325.74,265.961 1303.2,265.961 "/>
<path clip-path="url(#clip542)" d="M1331.38 296.55 L1331.38 1042.58 L1353.92 1042.58 L1353.92 296.55 L1331.38 296.55 L1331.38 296.55  Z" fill="#009af9" fill-rule="evenodd" fill-opacity="0.5"/>
<polyline clip-path="url(#clip542)" style="stroke:#000000; stroke-linecap:round; stroke-linejoin:round; stroke-width:4; stroke-opacity:0.5; fill:none" points="1331.38,296.55 1331.38,1042.58 1353.92,1042.58 1353.92,296.55 1331.38,296.55 "/>
<path clip-path="url(#clip542)" d="M1359.56 295.759 L1359.56 1042.58 L1382.1 1042.58 L1382.1 295.759 L1359.56 295.759 L1359.56 295.759  Z" fill="#009af9" fill-rule="evenodd" fill-opacity="0.5"/>
<polyline clip-path="url(#clip542)" style="stroke:#000000; stroke-linecap:round; stroke-linejoin:round; stroke-width:4; stroke-opacity:0.5; fill:none" points="1359.56,295.759 1359.56,1042.58 1382.1,1042.58 1382.1,295.759 1359.56,295.759 "/>
<path clip-path="url(#clip542)" d="M1387.74 295.759 L1387.74 1042.58 L1410.28 1042.58 L1410.28 295.759 L1387.74 295.759 L1387.74 295.759  Z" fill="#009af9" fill-rule="evenodd" fill-opacity="0.5"/>
<polyline clip-path="url(#clip542)" style="stroke:#000000; stroke-linecap:round; stroke-linejoin:round; stroke-width:4; stroke-opacity:0.5; fill:none" points="1387.74,295.759 1387.74,1042.58 1410.28,1042.58 1410.28,295.759 1387.74,295.759 "/>
<path clip-path="url(#clip542)" d="M1415.92 362.893 L1415.92 1042.58 L1438.46 1042.58 L1438.46 362.893 L1415.92 362.893 L1415.92 362.893  Z" fill="#009af9" fill-rule="evenodd" fill-opacity="0.5"/>
<polyline clip-path="url(#clip542)" style="stroke:#000000; stroke-linecap:round; stroke-linejoin:round; stroke-width:4; stroke-opacity:0.5; fill:none" points="1415.92,362.893 1415.92,1042.58 1438.46,1042.58 1438.46,362.893 1415.92,362.893 "/>
<path clip-path="url(#clip542)" d="M1444.1 398.42 L1444.1 1042.58 L1466.64 1042.58 L1466.64 398.42 L1444.1 398.42 L1444.1 398.42  Z" fill="#009af9" fill-rule="evenodd" fill-opacity="0.5"/>
<polyline clip-path="url(#clip542)" style="stroke:#000000; stroke-linecap:round; stroke-linejoin:round; stroke-width:4; stroke-opacity:0.5; fill:none" points="1444.1,398.42 1444.1,1042.58 1466.64,1042.58 1466.64,398.42 1444.1,398.42 "/>
<path clip-path="url(#clip542)" d="M1472.28 395.231 L1472.28 1042.58 L1494.82 1042.58 L1494.82 395.231 L1472.28 395.231 L1472.28 395.231  Z" fill="#009af9" fill-rule="evenodd" fill-opacity="0.5"/>
<polyline clip-path="url(#clip542)" style="stroke:#000000; stroke-linecap:round; stroke-linejoin:round; stroke-width:4; stroke-opacity:0.5; fill:none" points="1472.28,395.231 1472.28,1042.58 1494.82,1042.58 1494.82,395.231 1472.28,395.231 "/>
<path clip-path="url(#clip542)" d="M1500.45 290.343 L1500.45 1042.58 L1523 1042.58 L1523 290.343 L1500.45 290.343 L1500.45 290.343  Z" fill="#009af9" fill-rule="evenodd" fill-opacity="0.5"/>
<polyline clip-path="url(#clip542)" style="stroke:#000000; stroke-linecap:round; stroke-linejoin:round; stroke-width:4; stroke-opacity:0.5; fill:none" points="1500.45,290.343 1500.45,1042.58 1523,1042.58 1523,290.343 1500.45,290.343 "/>
<path clip-path="url(#clip542)" d="M1528.63 288.832 L1528.63 1042.58 L1551.18 1042.58 L1551.18 288.832 L1528.63 288.832 L1528.63 288.832  Z" fill="#009af9" fill-rule="evenodd" fill-opacity="0.5"/>
<polyline clip-path="url(#clip542)" style="stroke:#000000; stroke-linecap:round; stroke-linejoin:round; stroke-width:4; stroke-opacity:0.5; fill:none" points="1528.63,288.832 1528.63,1042.58 1551.18,1042.58 1551.18,288.832 1528.63,288.832 "/>
<path clip-path="url(#clip542)" d="M1556.81 307.246 L1556.81 1042.58 L1579.36 1042.58 L1579.36 307.246 L1556.81 307.246 L1556.81 307.246  Z" fill="#009af9" fill-rule="evenodd" fill-opacity="0.5"/>
<polyline clip-path="url(#clip542)" style="stroke:#000000; stroke-linecap:round; stroke-linejoin:round; stroke-width:4; stroke-opacity:0.5; fill:none" points="1556.81,307.246 1556.81,1042.58 1579.36,1042.58 1579.36,307.246 1556.81,307.246 "/>
<path clip-path="url(#clip542)" d="M1584.99 305.547 L1584.99 1042.58 L1607.54 1042.58 L1607.54 305.547 L1584.99 305.547 L1584.99 305.547  Z" fill="#009af9" fill-rule="evenodd" fill-opacity="0.5"/>
<polyline clip-path="url(#clip542)" style="stroke:#000000; stroke-linecap:round; stroke-linejoin:round; stroke-width:4; stroke-opacity:0.5; fill:none" points="1584.99,305.547 1584.99,1042.58 1607.54,1042.58 1607.54,305.547 1584.99,305.547 "/>
<path clip-path="url(#clip542)" d="M1613.17 330.368 L1613.17 1042.58 L1635.71 1042.58 L1635.71 330.368 L1613.17 330.368 L1613.17 330.368  Z" fill="#009af9" fill-rule="evenodd" fill-opacity="0.5"/>
<polyline clip-path="url(#clip542)" style="stroke:#000000; stroke-linecap:round; stroke-linejoin:round; stroke-width:4; stroke-opacity:0.5; fill:none" points="1613.17,330.368 1613.17,1042.58 1635.71,1042.58 1635.71,330.368 1613.17,330.368 "/>
<path clip-path="url(#clip542)" d="M1641.35 356.733 L1641.35 1042.58 L1663.89 1042.58 L1663.89 356.733 L1641.35 356.733 L1641.35 356.733  Z" fill="#009af9" fill-rule="evenodd" fill-opacity="0.5"/>
<polyline clip-path="url(#clip542)" style="stroke:#000000; stroke-linecap:round; stroke-linejoin:round; stroke-width:4; stroke-opacity:0.5; fill:none" points="1641.35,356.733 1641.35,1042.58 1663.89,1042.58 1663.89,356.733 1641.35,356.733 "/>
<path clip-path="url(#clip542)" d="M1669.53 393.663 L1669.53 1042.58 L1692.07 1042.58 L1692.07 393.663 L1669.53 393.663 L1669.53 393.663  Z" fill="#009af9" fill-rule="evenodd" fill-opacity="0.5"/>
<polyline clip-path="url(#clip542)" style="stroke:#000000; stroke-linecap:round; stroke-linejoin:round; stroke-width:4; stroke-opacity:0.5; fill:none" points="1669.53,393.663 1669.53,1042.58 1692.07,1042.58 1692.07,393.663 1669.53,393.663 "/>
<path clip-path="url(#clip542)" d="M1697.71 305.547 L1697.71 1042.58 L1720.25 1042.58 L1720.25 305.547 L1697.71 305.547 L1697.71 305.547  Z" fill="#009af9" fill-rule="evenodd" fill-opacity="0.5"/>
<polyline clip-path="url(#clip542)" style="stroke:#000000; stroke-linecap:round; stroke-linejoin:round; stroke-width:4; stroke-opacity:0.5; fill:none" points="1697.71,305.547 1697.71,1042.58 1720.25,1042.58 1720.25,305.547 1697.71,305.547 "/>
<path clip-path="url(#clip542)" d="M1725.89 335.475 L1725.89 1042.58 L1748.43 1042.58 L1748.43 335.475 L1725.89 335.475 L1725.89 335.475  Z" fill="#009af9" fill-rule="evenodd" fill-opacity="0.5"/>
<polyline clip-path="url(#clip542)" style="stroke:#000000; stroke-linecap:round; stroke-linejoin:round; stroke-width:4; stroke-opacity:0.5; fill:none" points="1725.89,335.475 1725.89,1042.58 1748.43,1042.58 1748.43,335.475 1725.89,335.475 "/>
<path clip-path="url(#clip542)" d="M1754.07 337.57 L1754.07 1042.58 L1776.61 1042.58 L1776.61 337.57 L1754.07 337.57 L1754.07 337.57  Z" fill="#009af9" fill-rule="evenodd" fill-opacity="0.5"/>
<polyline clip-path="url(#clip542)" style="stroke:#000000; stroke-linecap:round; stroke-linejoin:round; stroke-width:4; stroke-opacity:0.5; fill:none" points="1754.07,337.57 1754.07,1042.58 1776.61,1042.58 1776.61,337.57 1754.07,337.57 "/>
<path clip-path="url(#clip542)" d="M1782.25 347.396 L1782.25 1042.58 L1804.79 1042.58 L1804.79 347.396 L1782.25 347.396 L1782.25 347.396  Z" fill="#009af9" fill-rule="evenodd" fill-opacity="0.5"/>
<polyline clip-path="url(#clip542)" style="stroke:#000000; stroke-linecap:round; stroke-linejoin:round; stroke-width:4; stroke-opacity:0.5; fill:none" points="1782.25,347.396 1782.25,1042.58 1804.79,1042.58 1804.79,347.396 1782.25,347.396 "/>
<path clip-path="url(#clip542)" d="M1810.43 365.433 L1810.43 1042.58 L1832.97 1042.58 L1832.97 365.433 L1810.43 365.433 L1810.43 365.433  Z" fill="#009af9" fill-rule="evenodd" fill-opacity="0.5"/>
<polyline clip-path="url(#clip542)" style="stroke:#000000; stroke-linecap:round; stroke-linejoin:round; stroke-width:4; stroke-opacity:0.5; fill:none" points="1810.43,365.433 1810.43,1042.58 1832.97,1042.58 1832.97,365.433 1810.43,365.433 "/>
<path clip-path="url(#clip542)" d="M1838.61 411.937 L1838.61 1042.58 L1861.15 1042.58 L1861.15 411.937 L1838.61 411.937 L1838.61 411.937  Z" fill="#009af9" fill-rule="evenodd" fill-opacity="0.5"/>
<polyline clip-path="url(#clip542)" style="stroke:#000000; stroke-linecap:round; stroke-linejoin:round; stroke-width:4; stroke-opacity:0.5; fill:none" points="1838.61,411.937 1838.61,1042.58 1861.15,1042.58 1861.15,411.937 1838.61,411.937 "/>
<path clip-path="url(#clip542)" d="M1866.78 430.847 L1866.78 1042.58 L1889.33 1042.58 L1889.33 430.847 L1866.78 430.847 L1866.78 430.847  Z" fill="#009af9" fill-rule="evenodd" fill-opacity="0.5"/>
<polyline clip-path="url(#clip542)" style="stroke:#000000; stroke-linecap:round; stroke-linejoin:round; stroke-width:4; stroke-opacity:0.5; fill:none" points="1866.78,430.847 1866.78,1042.58 1889.33,1042.58 1889.33,430.847 1866.78,430.847 "/>
<path clip-path="url(#clip542)" d="M1894.96 371.987 L1894.96 1042.58 L1917.51 1042.58 L1917.51 371.987 L1894.96 371.987 L1894.96 371.987  Z" fill="#009af9" fill-rule="evenodd" fill-opacity="0.5"/>
<polyline clip-path="url(#clip542)" style="stroke:#000000; stroke-linecap:round; stroke-linejoin:round; stroke-width:4; stroke-opacity:0.5; fill:none" points="1894.96,371.987 1894.96,1042.58 1917.51,1042.58 1917.51,371.987 1894.96,371.987 "/>
<path clip-path="url(#clip542)" d="M1923.14 381.697 L1923.14 1042.58 L1945.69 1042.58 L1945.69 381.697 L1923.14 381.697 L1923.14 381.697  Z" fill="#009af9" fill-rule="evenodd" fill-opacity="0.5"/>
<polyline clip-path="url(#clip542)" style="stroke:#000000; stroke-linecap:round; stroke-linejoin:round; stroke-width:4; stroke-opacity:0.5; fill:none" points="1923.14,381.697 1923.14,1042.58 1945.69,1042.58 1945.69,381.697 1923.14,381.697 "/>
<path clip-path="url(#clip542)" d="M1951.32 340.771 L1951.32 1042.58 L1973.87 1042.58 L1973.87 340.771 L1951.32 340.771 L1951.32 340.771  Z" fill="#009af9" fill-rule="evenodd" fill-opacity="0.5"/>
<polyline clip-path="url(#clip542)" style="stroke:#000000; stroke-linecap:round; stroke-linejoin:round; stroke-width:4; stroke-opacity:0.5; fill:none" points="1951.32,340.771 1951.32,1042.58 1973.87,1042.58 1973.87,340.771 1951.32,340.771 "/>
<path clip-path="url(#clip542)" d="M1979.5 360.397 L1979.5 1042.58 L2002.04 1042.58 L2002.04 360.397 L1979.5 360.397 L1979.5 360.397  Z" fill="#009af9" fill-rule="evenodd" fill-opacity="0.5"/>
<polyline clip-path="url(#clip542)" style="stroke:#000000; stroke-linecap:round; stroke-linejoin:round; stroke-width:4; stroke-opacity:0.5; fill:none" points="1979.5,360.397 1979.5,1042.58 2002.04,1042.58 2002.04,360.397 1979.5,360.397 "/>
<path clip-path="url(#clip542)" d="M2007.68 370.652 L2007.68 1042.58 L2030.22 1042.58 L2030.22 370.652 L2007.68 370.652 L2007.68 370.652  Z" fill="#009af9" fill-rule="evenodd" fill-opacity="0.5"/>
<polyline clip-path="url(#clip542)" style="stroke:#000000; stroke-linecap:round; stroke-linejoin:round; stroke-width:4; stroke-opacity:0.5; fill:none" points="2007.68,370.652 2007.68,1042.58 2030.22,1042.58 2030.22,370.652 2007.68,370.652 "/>
<path clip-path="url(#clip542)" d="M2035.86 467.491 L2035.86 1042.58 L2058.4 1042.58 L2058.4 467.491 L2035.86 467.491 L2035.86 467.491  Z" fill="#009af9" fill-rule="evenodd" fill-opacity="0.5"/>
<polyline clip-path="url(#clip542)" style="stroke:#000000; stroke-linecap:round; stroke-linejoin:round; stroke-width:4; stroke-opacity:0.5; fill:none" points="2035.86,467.491 2035.86,1042.58 2058.4,1042.58 2058.4,467.491 2035.86,467.491 "/>
<path clip-path="url(#clip542)" d="M2064.04 470.124 L2064.04 1042.58 L2086.58 1042.58 L2086.58 470.124 L2064.04 470.124 L2064.04 470.124  Z" fill="#009af9" fill-rule="evenodd" fill-opacity="0.5"/>
<polyline clip-path="url(#clip542)" style="stroke:#000000; stroke-linecap:round; stroke-linejoin:round; stroke-width:4; stroke-opacity:0.5; fill:none" points="2064.04,470.124 2064.04,1042.58 2086.58,1042.58 2086.58,470.124 2064.04,470.124 "/>
<path clip-path="url(#clip542)" d="M2092.22 348.53 L2092.22 1042.58 L2114.76 1042.58 L2114.76 348.53 L2092.22 348.53 L2092.22 348.53  Z" fill="#009af9" fill-rule="evenodd" fill-opacity="0.5"/>
<polyline clip-path="url(#clip542)" style="stroke:#000000; stroke-linecap:round; stroke-linejoin:round; stroke-width:4; stroke-opacity:0.5; fill:none" points="2092.22,348.53 2092.22,1042.58 2114.76,1042.58 2114.76,348.53 2092.22,348.53 "/>
<path clip-path="url(#clip542)" d="M2120.4 353.16 L2120.4 1042.58 L2142.94 1042.58 L2142.94 353.16 L2120.4 353.16 L2120.4 353.16  Z" fill="#009af9" fill-rule="evenodd" fill-opacity="0.5"/>
<polyline clip-path="url(#clip542)" style="stroke:#000000; stroke-linecap:round; stroke-linejoin:round; stroke-width:4; stroke-opacity:0.5; fill:none" points="2120.4,353.16 2120.4,1042.58 2142.94,1042.58 2142.94,353.16 2120.4,353.16 "/>
<path clip-path="url(#clip542)" d="M2148.58 357.944 L2148.58 1042.58 L2171.12 1042.58 L2171.12 357.944 L2148.58 357.944 L2148.58 357.944  Z" fill="#009af9" fill-rule="evenodd" fill-opacity="0.5"/>
<polyline clip-path="url(#clip542)" style="stroke:#000000; stroke-linecap:round; stroke-linejoin:round; stroke-width:4; stroke-opacity:0.5; fill:none" points="2148.58,357.944 2148.58,1042.58 2171.12,1042.58 2171.12,357.944 2148.58,357.944 "/>
<path clip-path="url(#clip542)" d="M2176.76 389.058 L2176.76 1042.58 L2199.3 1042.58 L2199.3 389.058 L2176.76 389.058 L2176.76 389.058  Z" fill="#009af9" fill-rule="evenodd" fill-opacity="0.5"/>
<polyline clip-path="url(#clip542)" style="stroke:#000000; stroke-linecap:round; stroke-linejoin:round; stroke-width:4; stroke-opacity:0.5; fill:none" points="2176.76,389.058 2176.76,1042.58 2199.3,1042.58 2199.3,389.058 2176.76,389.058 "/>
<path clip-path="url(#clip542)" d="M2204.94 432.882 L2204.94 1042.58 L2227.48 1042.58 L2227.48 432.882 L2204.94 432.882 L2204.94 432.882  Z" fill="#009af9" fill-rule="evenodd" fill-opacity="0.5"/>
<polyline clip-path="url(#clip542)" style="stroke:#000000; stroke-linecap:round; stroke-linejoin:round; stroke-width:4; stroke-opacity:0.5; fill:none" points="2204.94,432.882 2204.94,1042.58 2227.48,1042.58 2227.48,432.882 2204.94,432.882 "/>
<path clip-path="url(#clip542)" d="M2233.11 484.068 L2233.11 1042.58 L2255.66 1042.58 L2255.66 484.068 L2233.11 484.068 L2233.11 484.068  Z" fill="#009af9" fill-rule="evenodd" fill-opacity="0.5"/>
<polyline clip-path="url(#clip542)" style="stroke:#000000; stroke-linecap:round; stroke-linejoin:round; stroke-width:4; stroke-opacity:0.5; fill:none" points="2233.11,484.068 2233.11,1042.58 2255.66,1042.58 2255.66,484.068 2233.11,484.068 "/>
<path clip-path="url(#clip542)" d="M2261.29 472.807 L2261.29 1042.58 L2283.84 1042.58 L2283.84 472.807 L2261.29 472.807 L2261.29 472.807  Z" fill="#009af9" fill-rule="evenodd" fill-opacity="0.5"/>
<polyline clip-path="url(#clip542)" style="stroke:#000000; stroke-linecap:round; stroke-linejoin:round; stroke-width:4; stroke-opacity:0.5; fill:none" points="2261.29,472.807 2261.29,1042.58 2283.84,1042.58 2283.84,472.807 2261.29,472.807 "/>
<path clip-path="url(#clip542)" d="M2289.47 380.269 L2289.47 1042.58 L2312.02 1042.58 L2312.02 380.269 L2289.47 380.269 L2289.47 380.269  Z" fill="#009af9" fill-rule="evenodd" fill-opacity="0.5"/>
<polyline clip-path="url(#clip542)" style="stroke:#000000; stroke-linecap:round; stroke-linejoin:round; stroke-width:4; stroke-opacity:0.5; fill:none" points="2289.47,380.269 2289.47,1042.58 2312.02,1042.58 2312.02,380.269 2289.47,380.269 "/>
<path clip-path="url(#clip542)" d="M2317.65 384.596 L2317.65 1042.58 L2340.2 1042.58 L2340.2 384.596 L2317.65 384.596 L2317.65 384.596  Z" fill="#009af9" fill-rule="evenodd" fill-opacity="0.5"/>
<polyline clip-path="url(#clip542)" style="stroke:#000000; stroke-linecap:round; stroke-linejoin:round; stroke-width:4; stroke-opacity:0.5; fill:none" points="2317.65,384.596 2317.65,1042.58 2340.2,1042.58 2340.2,384.596 2317.65,384.596 "/>
<path clip-path="url(#clip542)" d="M2345.83 434.947 L2345.83 1042.58 L2368.38 1042.58 L2368.38 434.947 L2345.83 434.947 L2345.83 434.947  Z" fill="#009af9" fill-rule="evenodd" fill-opacity="0.5"/>
<polyline clip-path="url(#clip542)" style="stroke:#000000; stroke-linecap:round; stroke-linejoin:round; stroke-width:4; stroke-opacity:0.5; fill:none" points="2345.83,434.947 2345.83,1042.58 2368.38,1042.58 2368.38,434.947 2345.83,434.947 "/>
<path clip-path="url(#clip542)" d="M2374.01 448.003 L2374.01 1042.58 L2396.55 1042.58 L2396.55 448.003 L2374.01 448.003 L2374.01 448.003  Z" fill="#009af9" fill-rule="evenodd" fill-opacity="0.5"/>
<polyline clip-path="url(#clip542)" style="stroke:#000000; stroke-linecap:round; stroke-linejoin:round; stroke-width:4; stroke-opacity:0.5; fill:none" points="2374.01,448.003 2374.01,1042.58 2396.55,1042.58 2396.55,448.003 2374.01,448.003 "/>
<path clip-path="url(#clip542)" d="M2402.19 470.124 L2402.19 1042.58 L2424.73 1042.58 L2424.73 470.124 L2402.19 470.124 L2402.19 470.124  Z" fill="#009af9" fill-rule="evenodd" fill-opacity="0.5"/>
<polyline clip-path="url(#clip542)" style="stroke:#000000; stroke-linecap:round; stroke-linejoin:round; stroke-width:4; stroke-opacity:0.5; fill:none" points="2402.19,470.124 2402.19,1042.58 2424.73,1042.58 2424.73,470.124 2402.19,470.124 "/>
<path clip-path="url(#clip542)" d="M2430.37 509.648 L2430.37 1042.58 L2452.91 1042.58 L2452.91 509.648 L2430.37 509.648 L2430.37 509.648  Z" fill="#009af9" fill-rule="evenodd" fill-opacity="0.5"/>
<polyline clip-path="url(#clip542)" style="stroke:#000000; stroke-linecap:round; stroke-linejoin:round; stroke-width:4; stroke-opacity:0.5; fill:none" points="2430.37,509.648 2430.37,1042.58 2452.91,1042.58 2452.91,509.648 2430.37,509.648 "/>
<path clip-path="url(#clip542)" d="M2458.55 520.553 L2458.55 1042.58 L2481.09 1042.58 L2481.09 520.553 L2458.55 520.553 L2458.55 520.553  Z" fill="#009af9" fill-rule="evenodd" fill-opacity="0.5"/>
<polyline clip-path="url(#clip542)" style="stroke:#000000; stroke-linecap:round; stroke-linejoin:round; stroke-width:4; stroke-opacity:0.5; fill:none" points="2458.55,520.553 2458.55,1042.58 2481.09,1042.58 2481.09,520.553 2458.55,520.553 "/>
<path clip-path="url(#clip542)" d="M2486.73 424.908 L2486.73 1042.58 L2509.27 1042.58 L2509.27 424.908 L2486.73 424.908 L2486.73 424.908  Z" fill="#009af9" fill-rule="evenodd" fill-opacity="0.5"/>
<polyline clip-path="url(#clip542)" style="stroke:#000000; stroke-linecap:round; stroke-linejoin:round; stroke-width:4; stroke-opacity:0.5; fill:none" points="2486.73,424.908 2486.73,1042.58 2509.27,1042.58 2509.27,424.908 2486.73,424.908 "/>
<path clip-path="url(#clip542)" d="M2514.91 481.169 L2514.91 1042.58 L2537.45 1042.58 L2537.45 481.169 L2514.91 481.169 L2514.91 481.169  Z" fill="#009af9" fill-rule="evenodd" fill-opacity="0.5"/>
<polyline clip-path="url(#clip542)" style="stroke:#000000; stroke-linecap:round; stroke-linejoin:round; stroke-width:4; stroke-opacity:0.5; fill:none" points="2514.91,481.169 2514.91,1042.58 2537.45,1042.58 2537.45,481.169 2514.91,481.169 "/>
<path clip-path="url(#clip542)" d="M2543.09 443.518 L2543.09 1042.58 L2565.63 1042.58 L2565.63 443.518 L2543.09 443.518 L2543.09 443.518  Z" fill="#009af9" fill-rule="evenodd" fill-opacity="0.5"/>
<polyline clip-path="url(#clip542)" style="stroke:#000000; stroke-linecap:round; stroke-linejoin:round; stroke-width:4; stroke-opacity:0.5; fill:none" points="2543.09,443.518 2543.09,1042.58 2565.63,1042.58 2565.63,443.518 2543.09,443.518 "/>
<path clip-path="url(#clip542)" d="M2571.27 448.003 L2571.27 1042.58 L2593.81 1042.58 L2593.81 448.003 L2571.27 448.003 L2571.27 448.003  Z" fill="#009af9" fill-rule="evenodd" fill-opacity="0.5"/>
<polyline clip-path="url(#clip542)" style="stroke:#000000; stroke-linecap:round; stroke-linejoin:round; stroke-width:4; stroke-opacity:0.5; fill:none" points="2571.27,448.003 2571.27,1042.58 2593.81,1042.58 2593.81,448.003 2571.27,448.003 "/>
<path clip-path="url(#clip542)" d="M2599.44 509.648 L2599.44 1042.58 L2621.99 1042.58 L2621.99 509.648 L2599.44 509.648 L2599.44 509.648  Z" fill="#009af9" fill-rule="evenodd" fill-opacity="0.5"/>
<polyline clip-path="url(#clip542)" style="stroke:#000000; stroke-linecap:round; stroke-linejoin:round; stroke-width:4; stroke-opacity:0.5; fill:none" points="2599.44,509.648 2599.44,1042.58 2621.99,1042.58 2621.99,509.648 2599.44,509.648 "/>
<path clip-path="url(#clip542)" d="M2627.62 559.342 L2627.62 1042.58 L2650.17 1042.58 L2650.17 559.342 L2627.62 559.342 L2627.62 559.342  Z" fill="#009af9" fill-rule="evenodd" fill-opacity="0.5"/>
<polyline clip-path="url(#clip542)" style="stroke:#000000; stroke-linecap:round; stroke-linejoin:round; stroke-width:4; stroke-opacity:0.5; fill:none" points="2627.62,559.342 2627.62,1042.58 2650.17,1042.58 2650.17,559.342 2627.62,559.342 "/>
<path clip-path="url(#clip542)" d="M2655.8 620.025 L2655.8 1042.58 L2678.35 1042.58 L2678.35 620.025 L2655.8 620.025 L2655.8 620.025  Z" fill="#009af9" fill-rule="evenodd" fill-opacity="0.5"/>
<polyline clip-path="url(#clip542)" style="stroke:#000000; stroke-linecap:round; stroke-linejoin:round; stroke-width:4; stroke-opacity:0.5; fill:none" points="2655.8,620.025 2655.8,1042.58 2678.35,1042.58 2678.35,620.025 2655.8,620.025 "/>
<path clip-path="url(#clip542)" d="M2683.98 487.027 L2683.98 1042.58 L2706.53 1042.58 L2706.53 487.027 L2683.98 487.027 L2683.98 487.027  Z" fill="#009af9" fill-rule="evenodd" fill-opacity="0.5"/>
<polyline clip-path="url(#clip542)" style="stroke:#000000; stroke-linecap:round; stroke-linejoin:round; stroke-width:4; stroke-opacity:0.5; fill:none" points="2683.98,487.027 2683.98,1042.58 2706.53,1042.58 2706.53,487.027 2683.98,487.027 "/>
<path clip-path="url(#clip542)" d="M2712.16 516.825 L2712.16 1042.58 L2734.71 1042.58 L2734.71 516.825 L2712.16 516.825 L2712.16 516.825  Z" fill="#009af9" fill-rule="evenodd" fill-opacity="0.5"/>
<polyline clip-path="url(#clip542)" style="stroke:#000000; stroke-linecap:round; stroke-linejoin:round; stroke-width:4; stroke-opacity:0.5; fill:none" points="2712.16,516.825 2712.16,1042.58 2734.71,1042.58 2734.71,516.825 2712.16,516.825 "/>
<path clip-path="url(#clip542)" d="M2740.34 635.987 L2740.34 1042.58 L2762.88 1042.58 L2762.88 635.987 L2740.34 635.987 L2740.34 635.987  Z" fill="#009af9" fill-rule="evenodd" fill-opacity="0.5"/>
<polyline clip-path="url(#clip542)" style="stroke:#000000; stroke-linecap:round; stroke-linejoin:round; stroke-width:4; stroke-opacity:0.5; fill:none" points="2740.34,635.987 2740.34,1042.58 2762.88,1042.58 2762.88,635.987 2740.34,635.987 "/>
<path clip-path="url(#clip542)" d="M2768.52 674.485 L2768.52 1042.58 L2791.06 1042.58 L2791.06 674.485 L2768.52 674.485 L2768.52 674.485  Z" fill="#009af9" fill-rule="evenodd" fill-opacity="0.5"/>
<polyline clip-path="url(#clip542)" style="stroke:#000000; stroke-linecap:round; stroke-linejoin:round; stroke-width:4; stroke-opacity:0.5; fill:none" points="2768.52,674.485 2768.52,1042.58 2791.06,1042.58 2791.06,674.485 2768.52,674.485 "/>
<path clip-path="url(#clip542)" d="M2796.7 712.136 L2796.7 1042.58 L2819.24 1042.58 L2819.24 712.136 L2796.7 712.136 L2796.7 712.136  Z" fill="#009af9" fill-rule="evenodd" fill-opacity="0.5"/>
<polyline clip-path="url(#clip542)" style="stroke:#000000; stroke-linecap:round; stroke-linejoin:round; stroke-width:4; stroke-opacity:0.5; fill:none" points="2796.7,712.136 2796.7,1042.58 2819.24,1042.58 2819.24,712.136 2796.7,712.136 "/>
<path clip-path="url(#clip542)" d="M2824.88 884.916 L2824.88 1042.58 L2847.42 1042.58 L2847.42 884.916 L2824.88 884.916 L2824.88 884.916  Z" fill="#009af9" fill-rule="evenodd" fill-opacity="0.5"/>
<polyline clip-path="url(#clip542)" style="stroke:#000000; stroke-linecap:round; stroke-linejoin:round; stroke-width:4; stroke-opacity:0.5; fill:none" points="2824.88,884.916 2824.88,1042.58 2847.42,1042.58 2847.42,884.916 2824.88,884.916 "/>
<path clip-path="url(#clip542)" d="M2853.06 1042.58 L2853.06 1042.58 L2875.6 1042.58 L2875.6 1042.58 L2853.06 1042.58 L2853.06 1042.58  Z" fill="#009af9" fill-rule="evenodd" fill-opacity="0.5"/>
<polyline clip-path="url(#clip542)" style="stroke:#000000; stroke-linecap:round; stroke-linejoin:round; stroke-width:4; stroke-opacity:0.5; fill:none" points="2853.06,1042.58 2853.06,1042.58 2875.6,1042.58 2853.06,1042.58 "/>
<circle clip-path="url(#clip542)" style="fill:#009af9; stroke:none; fill-opacity:0" cx="300.018" cy="216.58" r="2"/>
<circle clip-path="url(#clip542)" style="fill:#009af9; stroke:none; fill-opacity:0" cx="328.198" cy="130.174" r="2"/>
<circle clip-path="url(#clip542)" style="fill:#009af9; stroke:none; fill-opacity:0" cx="356.377" cy="120.091" r="2"/>
<circle clip-path="url(#clip542)" style="fill:#009af9; stroke:none; fill-opacity:0" cx="384.556" cy="110.67" r="2"/>
<circle clip-path="url(#clip542)" style="fill:#009af9; stroke:none; fill-opacity:0" cx="412.735" cy="110.236" r="2"/>
<circle clip-path="url(#clip542)" style="fill:#009af9; stroke:none; fill-opacity:0" cx="440.915" cy="132.936" r="2"/>
<circle clip-path="url(#clip542)" style="fill:#009af9; stroke:none; fill-opacity:0" cx="469.094" cy="240.761" r="2"/>
<circle clip-path="url(#clip542)" style="fill:#009af9; stroke:none; fill-opacity:0" cx="497.273" cy="222.136" r="2"/>
<circle clip-path="url(#clip542)" style="fill:#009af9; stroke:none; fill-opacity:0" cx="525.452" cy="119.859" r="2"/>
<circle clip-path="url(#clip542)" style="fill:#009af9; stroke:none; fill-opacity:0" cx="553.632" cy="130.922" r="2"/>
<circle clip-path="url(#clip542)" style="fill:#009af9; stroke:none; fill-opacity:0" cx="581.811" cy="149.586" r="2"/>
<circle clip-path="url(#clip542)" style="fill:#009af9; stroke:none; fill-opacity:0" cx="609.99" cy="192.014" r="2"/>
<circle clip-path="url(#clip542)" style="fill:#009af9; stroke:none; fill-opacity:0" cx="638.169" cy="201.915" r="2"/>
<circle clip-path="url(#clip542)" style="fill:#009af9; stroke:none; fill-opacity:0" cx="666.349" cy="268.547" r="2"/>
<circle clip-path="url(#clip542)" style="fill:#009af9; stroke:none; fill-opacity:0" cx="694.528" cy="265.322" r="2"/>
<circle clip-path="url(#clip542)" style="fill:#009af9; stroke:none; fill-opacity:0" cx="722.707" cy="171.708" r="2"/>
<circle clip-path="url(#clip542)" style="fill:#009af9; stroke:none; fill-opacity:0" cx="750.886" cy="191.632" r="2"/>
<circle clip-path="url(#clip542)" style="fill:#009af9; stroke:none; fill-opacity:0" cx="779.066" cy="184.195" r="2"/>
<circle clip-path="url(#clip542)" style="fill:#009af9; stroke:none; fill-opacity:0" cx="807.245" cy="206.075" r="2"/>
<circle clip-path="url(#clip542)" style="fill:#009af9; stroke:none; fill-opacity:0" cx="835.424" cy="227.425" r="2"/>
<circle clip-path="url(#clip542)" style="fill:#009af9; stroke:none; fill-opacity:0" cx="863.603" cy="292.639" r="2"/>
<circle clip-path="url(#clip542)" style="fill:#009af9; stroke:none; fill-opacity:0" cx="891.783" cy="302.21" r="2"/>
<circle clip-path="url(#clip542)" style="fill:#009af9; stroke:none; fill-opacity:0" cx="919.962" cy="234.452" r="2"/>
<circle clip-path="url(#clip542)" style="fill:#009af9; stroke:none; fill-opacity:0" cx="948.141" cy="242.382" r="2"/>
<circle clip-path="url(#clip542)" style="fill:#009af9; stroke:none; fill-opacity:0" cx="976.32" cy="236.524" r="2"/>
<circle clip-path="url(#clip542)" style="fill:#009af9; stroke:none; fill-opacity:0" cx="1004.5" cy="253.101" r="2"/>
<circle clip-path="url(#clip542)" style="fill:#009af9; stroke:none; fill-opacity:0" cx="1032.68" cy="269.857" r="2"/>
<circle clip-path="url(#clip542)" style="fill:#009af9; stroke:none; fill-opacity:0" cx="1060.86" cy="345.154" r="2"/>
<circle clip-path="url(#clip542)" style="fill:#009af9; stroke:none; fill-opacity:0" cx="1089.04" cy="355.532" r="2"/>
<circle clip-path="url(#clip542)" style="fill:#009af9; stroke:none; fill-opacity:0" cx="1117.22" cy="267.896" r="2"/>
<circle clip-path="url(#clip542)" style="fill:#009af9; stroke:none; fill-opacity:0" cx="1145.4" cy="271.18" r="2"/>
<circle clip-path="url(#clip542)" style="fill:#009af9; stroke:none; fill-opacity:0" cx="1173.58" cy="259.693" r="2"/>
<circle clip-path="url(#clip542)" style="fill:#009af9; stroke:none; fill-opacity:0" cx="1201.75" cy="265.322" r="2"/>
<circle clip-path="url(#clip542)" style="fill:#009af9; stroke:none; fill-opacity:0" cx="1229.93" cy="272.515" r="2"/>
<circle clip-path="url(#clip542)" style="fill:#009af9; stroke:none; fill-opacity:0" cx="1258.11" cy="334.439" r="2"/>
<circle clip-path="url(#clip542)" style="fill:#009af9; stroke:none; fill-opacity:0" cx="1286.29" cy="359.165" r="2"/>
<circle clip-path="url(#clip542)" style="fill:#009af9; stroke:none; fill-opacity:0" cx="1314.47" cy="265.961" r="2"/>
<circle clip-path="url(#clip542)" style="fill:#009af9; stroke:none; fill-opacity:0" cx="1342.65" cy="296.55" r="2"/>
<circle clip-path="url(#clip542)" style="fill:#009af9; stroke:none; fill-opacity:0" cx="1370.83" cy="295.759" r="2"/>
<circle clip-path="url(#clip542)" style="fill:#009af9; stroke:none; fill-opacity:0" cx="1399.01" cy="295.759" r="2"/>
<circle clip-path="url(#clip542)" style="fill:#009af9; stroke:none; fill-opacity:0" cx="1427.19" cy="362.893" r="2"/>
<circle clip-path="url(#clip542)" style="fill:#009af9; stroke:none; fill-opacity:0" cx="1455.37" cy="398.42" r="2"/>
<circle clip-path="url(#clip542)" style="fill:#009af9; stroke:none; fill-opacity:0" cx="1483.55" cy="395.231" r="2"/>
<circle clip-path="url(#clip542)" style="fill:#009af9; stroke:none; fill-opacity:0" cx="1511.73" cy="290.343" r="2"/>
<circle clip-path="url(#clip542)" style="fill:#009af9; stroke:none; fill-opacity:0" cx="1539.91" cy="288.832" r="2"/>
<circle clip-path="url(#clip542)" style="fill:#009af9; stroke:none; fill-opacity:0" cx="1568.08" cy="307.246" r="2"/>
<circle clip-path="url(#clip542)" style="fill:#009af9; stroke:none; fill-opacity:0" cx="1596.26" cy="305.547" r="2"/>
<circle clip-path="url(#clip542)" style="fill:#009af9; stroke:none; fill-opacity:0" cx="1624.44" cy="330.368" r="2"/>
<circle clip-path="url(#clip542)" style="fill:#009af9; stroke:none; fill-opacity:0" cx="1652.62" cy="356.733" r="2"/>
<circle clip-path="url(#clip542)" style="fill:#009af9; stroke:none; fill-opacity:0" cx="1680.8" cy="393.663" r="2"/>
<circle clip-path="url(#clip542)" style="fill:#009af9; stroke:none; fill-opacity:0" cx="1708.98" cy="305.547" r="2"/>
<circle clip-path="url(#clip542)" style="fill:#009af9; stroke:none; fill-opacity:0" cx="1737.16" cy="335.475" r="2"/>
<circle clip-path="url(#clip542)" style="fill:#009af9; stroke:none; fill-opacity:0" cx="1765.34" cy="337.57" r="2"/>
<circle clip-path="url(#clip542)" style="fill:#009af9; stroke:none; fill-opacity:0" cx="1793.52" cy="347.396" r="2"/>
<circle clip-path="url(#clip542)" style="fill:#009af9; stroke:none; fill-opacity:0" cx="1821.7" cy="365.433" r="2"/>
<circle clip-path="url(#clip542)" style="fill:#009af9; stroke:none; fill-opacity:0" cx="1849.88" cy="411.937" r="2"/>
<circle clip-path="url(#clip542)" style="fill:#009af9; stroke:none; fill-opacity:0" cx="1878.06" cy="430.847" r="2"/>
<circle clip-path="url(#clip542)" style="fill:#009af9; stroke:none; fill-opacity:0" cx="1906.24" cy="371.987" r="2"/>
<circle clip-path="url(#clip542)" style="fill:#009af9; stroke:none; fill-opacity:0" cx="1934.41" cy="381.697" r="2"/>
<circle clip-path="url(#clip542)" style="fill:#009af9; stroke:none; fill-opacity:0" cx="1962.59" cy="340.771" r="2"/>
<circle clip-path="url(#clip542)" style="fill:#009af9; stroke:none; fill-opacity:0" cx="1990.77" cy="360.397" r="2"/>
<circle clip-path="url(#clip542)" style="fill:#009af9; stroke:none; fill-opacity:0" cx="2018.95" cy="370.652" r="2"/>
<circle clip-path="url(#clip542)" style="fill:#009af9; stroke:none; fill-opacity:0" cx="2047.13" cy="467.491" r="2"/>
<circle clip-path="url(#clip542)" style="fill:#009af9; stroke:none; fill-opacity:0" cx="2075.31" cy="470.124" r="2"/>
<circle clip-path="url(#clip542)" style="fill:#009af9; stroke:none; fill-opacity:0" cx="2103.49" cy="348.53" r="2"/>
<circle clip-path="url(#clip542)" style="fill:#009af9; stroke:none; fill-opacity:0" cx="2131.67" cy="353.16" r="2"/>
<circle clip-path="url(#clip542)" style="fill:#009af9; stroke:none; fill-opacity:0" cx="2159.85" cy="357.944" r="2"/>
<circle clip-path="url(#clip542)" style="fill:#009af9; stroke:none; fill-opacity:0" cx="2188.03" cy="389.058" r="2"/>
<circle clip-path="url(#clip542)" style="fill:#009af9; stroke:none; fill-opacity:0" cx="2216.21" cy="432.882" r="2"/>
<circle clip-path="url(#clip542)" style="fill:#009af9; stroke:none; fill-opacity:0" cx="2244.39" cy="484.068" r="2"/>
<circle clip-path="url(#clip542)" style="fill:#009af9; stroke:none; fill-opacity:0" cx="2272.57" cy="472.807" r="2"/>
<circle clip-path="url(#clip542)" style="fill:#009af9; stroke:none; fill-opacity:0" cx="2300.74" cy="380.269" r="2"/>
<circle clip-path="url(#clip542)" style="fill:#009af9; stroke:none; fill-opacity:0" cx="2328.92" cy="384.596" r="2"/>
<circle clip-path="url(#clip542)" style="fill:#009af9; stroke:none; fill-opacity:0" cx="2357.1" cy="434.947" r="2"/>
<circle clip-path="url(#clip542)" style="fill:#009af9; stroke:none; fill-opacity:0" cx="2385.28" cy="448.003" r="2"/>
<circle clip-path="url(#clip542)" style="fill:#009af9; stroke:none; fill-opacity:0" cx="2413.46" cy="470.124" r="2"/>
<circle clip-path="url(#clip542)" style="fill:#009af9; stroke:none; fill-opacity:0" cx="2441.64" cy="509.648" r="2"/>
<circle clip-path="url(#clip542)" style="fill:#009af9; stroke:none; fill-opacity:0" cx="2469.82" cy="520.553" r="2"/>
<circle clip-path="url(#clip542)" style="fill:#009af9; stroke:none; fill-opacity:0" cx="2498" cy="424.908" r="2"/>
<circle clip-path="url(#clip542)" style="fill:#009af9; stroke:none; fill-opacity:0" cx="2526.18" cy="481.169" r="2"/>
<circle clip-path="url(#clip542)" style="fill:#009af9; stroke:none; fill-opacity:0" cx="2554.36" cy="443.518" r="2"/>
<circle clip-path="url(#clip542)" style="fill:#009af9; stroke:none; fill-opacity:0" cx="2582.54" cy="448.003" r="2"/>
<circle clip-path="url(#clip542)" style="fill:#009af9; stroke:none; fill-opacity:0" cx="2610.72" cy="509.648" r="2"/>
<circle clip-path="url(#clip542)" style="fill:#009af9; stroke:none; fill-opacity:0" cx="2638.9" cy="559.342" r="2"/>
<circle clip-path="url(#clip542)" style="fill:#009af9; stroke:none; fill-opacity:0" cx="2667.08" cy="620.025" r="2"/>
<circle clip-path="url(#clip542)" style="fill:#009af9; stroke:none; fill-opacity:0" cx="2695.25" cy="487.027" r="2"/>
<circle clip-path="url(#clip542)" style="fill:#009af9; stroke:none; fill-opacity:0" cx="2723.43" cy="516.825" r="2"/>
<circle clip-path="url(#clip542)" style="fill:#009af9; stroke:none; fill-opacity:0" cx="2751.61" cy="635.987" r="2"/>
<circle clip-path="url(#clip542)" style="fill:#009af9; stroke:none; fill-opacity:0" cx="2779.79" cy="674.485" r="2"/>
<circle clip-path="url(#clip542)" style="fill:#009af9; stroke:none; fill-opacity:0" cx="2807.97" cy="712.136" r="2"/>
<circle clip-path="url(#clip542)" style="fill:#009af9; stroke:none; fill-opacity:0" cx="2836.15" cy="884.916" r="2"/>
<circle clip-path="url(#clip542)" style="fill:#009af9; stroke:none; fill-opacity:0" cx="2864.33" cy="1042.58" r="2"/>
</svg>
